<svg xmlns="http://www.w3.org/2000/svg" viewBox="0 0 48 48"><defs><radialGradient id="thisWeirdIdNameFixesABug0" cx="24" cy="24" r="23.437" gradientUnits="userSpaceOnUse"><stop stop-color="#eeeeee"/><stop offset="1" stop-color="#cecece"/></radialGradient></defs><path d="m 47.44 11.547 l 0 24.906 c 0 10.25 0 10.984 -10.984 10.984 l -24.902 0 c -10.988 0 -10.988 -0.734 -10.988 -10.984 l 0 -24.906 c 0 -10.25 0 -10.984 10.988 -10.984 l 24.902 0 c 10.984 0 10.984 0.734 10.984 10.984" fill="url(#thisWeirdIdNameFixesABug0)"/><!-- color: #eeeeee --><path d="m 17.328 18 c -1.66 0 -3.273 0.629 -4.461 1.742 c -1.188 1.117 -1.867 2.664 -1.867 4.258 c 0 1.594 0.684 3.137 1.867 4.25 c 1.172 1.102 2.762 1.727 4.402 1.738 l 0 0.004 c 0.02 0 0.035 0 0.059 0 c 1.957 0.082 3.539 -0.637 4.695 -1.676 c 0.797 -0.723 1.406 -1.57 1.977 -2.438 c 0.57 0.867 1.18 1.715 1.977 2.438 c 1.156 1.039 2.734 1.758 4.695 1.676 c 0.016 0 0.035 0 0.055 0 l 0 -0.004 c 1.641 -0.016 3.234 -0.637 4.406 -1.738 c 1.188 -1.117 1.867 -2.656 1.867 -4.25 c 0 -1.594 -0.684 -3.145 -1.867 -4.258 c -1.188 -1.113 -2.801 -1.742 -4.461 -1.742 c -2.066 0 -3.695 0.785 -4.902 1.875 c -0.695 0.633 -1.258 1.355 -1.77 2.098 c -0.516 -0.742 -1.074 -1.465 -1.773 -2.098 c -1.203 -1.09 -2.836 -1.875 -4.898 -1.875 m 0 2.117 c 1.539 0 2.523 0.496 3.43 1.309 c 0.711 0.645 1.332 1.543 1.953 2.496 c -0.707 1.113 -1.387 2.145 -2.152 2.836 c -0.852 0.766 -1.73 1.191 -3.172 1.117 l -0.031 -0.004 l -0.027 0 c -1.086 0 -2.188 -0.43 -2.941 -1.137 l -0.02 -0.012 c -0.758 -0.711 -1.203 -1.738 -1.203 -2.727 c 0 -0.992 0.445 -2.02 1.203 -2.73 c 0.766 -0.711 1.871 -1.148 2.961 -1.148 m 13.352 0 c 1.086 0 2.191 0.438 2.957 1.148 c 0.758 0.715 1.207 1.742 1.207 2.73 c 0 0.992 -0.449 2.02 -1.207 2.727 l -0.02 0.012 c -0.758 0.703 -1.855 1.137 -2.938 1.137 l -0.031 0 l -0.027 0.004 c -1.438 0.074 -2.324 -0.352 -3.176 -1.117 c -0.762 -0.691 -1.445 -1.723 -2.148 -2.836 c 0.621 -0.953 1.238 -1.855 1.953 -2.496 c 0.902 -0.816 1.887 -1.309 3.43 -1.309 m 0 0" fill="#fff"/><path d="m 30 21 l 0 2 l -1.996 0 l 0 1.996 l 1.996 0 l 0 2 l 2 0 l 0 -2 l 1.996 0 l 0 -1.996 l -1.996 0 l 0 -2 m -2 0" fill="#fff"/><path d="m 15 23 l 0 1.996 l 5 0 l 0 -1.996 m -5 0" fill="#fff"/><path d="m 38.27 47.44 c 2.543 -0.012 4.379 -0.082 5.711 -0.441 l -4.23 -7.25 -4.484 7.691 1.191 0 c 0.641 0 1.242 0 1.813 0 z m 1.48 -7.691 -5.125 -8.789 -5.129 8.789 z m 0 0 7.652 0 c 0.031 -0.973 0.039 -2.063 0.039 -3.297 l 0 -1.098 -2.563 -4.395 z m 5.129 -8.789 -5.129 -8.789 -5.125 8.789 z m 0 0 2.563 0 0 -4.395 z m -10.254 0 -5.129 -8.789 -5.125 8.789 z m -10.254 0 -5.129 8.789 10.254 0 z m 0 0 -5.129 -8.789 -5.125 8.789 z m -10.254 0 -5.129 8.789 10.254 0 z m 0 0 -5.129 -8.789 -5.125 8.789 z m -10.254 0 -3.297 5.648 c 0 1.168 0.012 2.211 0.039 3.141 l 8.383 0 z m 0 0 -3.297 -5.648 0 5.648 z m 5.125 8.789 -4.313 7.395 c 1.598 0.293 3.809 0.297 6.879 0.297 l 1.922 0 z m 0 -17.578 -5.125 -8.789 -3.297 5.648 0 3.141 z m 0 0 10.254 0 -5.125 -8.789 z m 5.129 -8.789 -5.129 -8.789 -5.125 8.789 z m 0 0 10.254 0 -5.129 -8.789 z m 5.125 -8.789 -2.352 -4.03 -5.336 0 c -0.078 0 -0.141 0 -0.215 0 l -2.352 4.03 z m 0 0 10.254 0 -2.352 -4.03 -5.551 0 z m 10.254 0 10.254 0 l -2.352 -4.03 c -0.313 0 -0.609 0 -0.941 0 l -4.609 0 z m 0 0 -5.125 8.789 10.254 0 z m 5.129 8.789 10.254 0 -5.129 -8.789 z m 0 0 -5.129 8.789 10.254 0 z m 5.125 8.789 7.691 0 0 -4.395 -2.563 -4.395 z m 5.129 -8.789 2.563 0 0 -1.832 c 0 -0.914 -0.008 -1.75 -0.023 -2.523 z m -15.383 8.789 -5.125 -8.789 -5.129 8.789 z m 10.254 -17.578 7.309 0 c -0.555 -2.758 -1.887 -3.629 -5.03 -3.902 z m -30.762 0 l -2.305 -3.953 c -3.66 0.207 -5.141 0.996 -5.734 3.953 z m -5.125 8.789 l -3.238 -5.555 c -0.043 1.074 -0.059 2.309 -0.059 3.723 l 0 1.832 z m 15.379 26.367 -4.484 7.691 8.973 0 z m 10.254 0 -4.484 7.691 8.973 0 z m -26.898 6.621 -1.602 -2.746 c 0.293 1.316 0.785 2.18 1.602 2.746 z" fill="#fff" fill-opacity="0.13986928104575164"/></svg>