<svg xmlns="http://www.w3.org/2000/svg" viewBox="0 0 48 48"><defs><radialGradient id="thisWeirdIdNameFixesABug0" cx="24" cy="24" r="23.437" gradientUnits="userSpaceOnUse"><stop stop-color="#d84d4d"/><stop offset="1" stop-color="#b82d2d"/></radialGradient></defs><path d="m 47.44 11.547 l 0 24.906 c 0 10.25 0 10.984 -10.984 10.984 l -24.902 0 c -10.988 0 -10.988 -0.734 -10.988 -10.984 l 0 -24.906 c 0 -10.25 0 -10.984 10.988 -10.984 l 24.902 0 c 10.984 0 10.984 0.734 10.984 10.984" fill="url(#thisWeirdIdNameFixesABug0)"/><!-- color: #d84d4d --><path d="m 19.813 12 c -0.797 0 -1.469 1.523 0.094 1.188 c 0.609 -0.199 0.535 -1.188 -0.094 -1.188 m 9.188 1 c -0.465 0 -0.906 0.539 -0.688 0.844 c 0.059 0.082 0.367 0.168 0.656 0.188 c 0.398 0.027 0.5 -0.094 0.5 -0.5 c 0 -0.375 -0.129 -0.531 -0.469 -0.531 m -7.188 0.313 c -0.828 0.121 -1.66 0.859 -1.813 1.688 c -0.113 0.594 -0.023 0.949 -0.531 0.813 c -0.313 -0.086 -1.031 -0.754 -1.469 -0.813 c -0.688 0.102 -1.496 0.895 -1 2 c 0.492 0.574 0.66 0.992 0 1 c -1.484 0.391 -2.031 0.727 -1.531 2.406 c 0.098 0.285 0.063 0.645 -0.344 1.063 c -0.602 0.629 -0.645 0.66 -1.563 0.375 c -1.293 -0.398 -2.703 1.184 -0.094 1.156 c 1.648 -0.195 1.828 0.191 0.406 0.938 c -0.965 0.504 -1.273 0.707 -1.281 1.281 c -0.008 0.563 0.254 0.742 0.969 1.031 c 1.578 0.559 2.246 0.77 2.438 2.75 c 0 0.598 -0.094 1.625 0.469 1.969 c 0.547 0.336 0.684 0.574 0.594 0.969 c -0.152 0.695 0.32 0.891 1.25 0.563 c 1.043 -0.371 1.188 -0.105 0.375 0.625 c -0.445 0.395 -0.656 0.852 -0.656 1.313 c 0.012 1.027 3.137 1.746 2.625 -0.438 c -0.234 -0.992 -0.738 -1.73 0.344 -2 c 0.715 -0.266 1.383 0.809 2 1 c 1.438 0.441 2.508 -0.191 3.375 -0.938 c 0.523 -0.453 1.078 -0.387 1.406 -0.313 c 1.211 0.25 5.91 0.66 4.125 -2.281 c -0.734 -1.07 -0.586 -1.281 0.906 -1.25 c 1.227 0.023 1.328 -0.023 1.406 -0.5 c 0.047 -0.285 -0.07 -0.738 -0.25 -1.031 c -0.27 -0.438 -0.258 -0.563 0.031 -0.719 c 0.273 -0.148 0.07 -0.934 -0.25 -1.688 c -0.66 -2.129 1.441 -5.852 -0.656 -6.531 c -1.266 -0.457 0.418 -2.938 -1.5 -2.344 c -0.555 0.16 -0.945 -0.125 -1.594 -0.563 c -0.93 -0.469 -1.215 -0.488 -2.375 -0.438 c -0.988 0.039 -1.453 -1.266 -2.625 -0.406 c -0.984 1.031 -0.746 0.523 -2 -0.281 c -0.25 -0.25 -0.531 -0.383 -0.844 -0.406 c -0.117 -0.008 -0.227 -0.016 -0.344 0 m 2.188 1.688 l 7 4.25 l -7 4.25 l -7 -4.25 m 0 0.75 l 6.5 4 l 0 8 l -6.5 -4 m 14 -8 l 0 8 l -6.5 4 l 0 -8 m 10.75 -2.75 c -0.156 0.035 -0.297 0.148 -0.469 0.281 c -0.473 0.367 -0.5 0.398 -0.094 0.781 c 0.586 0.559 1.215 0.414 1.313 -0.313 c 0.078 -0.57 -0.281 -0.867 -0.75 -0.75 m -11.438 12.531 c -0.168 0.035 -0.207 0.223 -0.156 0.531 c 0.047 0.27 0.258 0.5 0.469 0.5 c 0.227 0 0.391 0.238 0.438 0.594 c 0.047 0.332 0.199 0.594 0.313 0.594 c 0.117 0 0.262 -0.262 0.344 -0.594 c 0.109 -0.473 0.039 -0.863 -0.5 -1.25 c -0.434 -0.309 -0.738 -0.41 -0.906 -0.375 m 2.375 0.313 c -0.156 -0.02 -0.313 0.059 -0.313 0.25 c 0 0.191 0.184 0.344 0.406 0.344 c 0.219 0 0.367 -0.102 0.313 -0.25 c -0.078 -0.199 -0.25 -0.324 -0.406 -0.344 m -3.844 0.375 c -0.141 0 -0.352 0.203 -0.344 0.531 c 0.016 0.531 0.152 0.637 0.344 0.25 c 0.297 -0.594 0.297 -0.781 0 -0.781 m 0 0" fill="#fff"/><path d="m 38.27 47.44 c 2.543 -0.012 4.379 -0.082 5.711 -0.441 l -4.23 -7.25 -4.484 7.691 1.191 0 c 0.641 0 1.242 0 1.813 0 z m 1.48 -7.691 -5.125 -8.789 -5.129 8.789 z m 0 0 7.652 0 c 0.031 -0.973 0.039 -2.063 0.039 -3.297 l 0 -1.098 -2.563 -4.395 z m 5.129 -8.789 -5.129 -8.789 -5.125 8.789 z m 0 0 2.563 0 0 -4.395 z m -10.254 0 -5.129 -8.789 -5.125 8.789 z m -10.254 0 -5.129 8.789 10.254 0 z m 0 0 -5.129 -8.789 -5.125 8.789 z m -10.254 0 -5.129 8.789 10.254 0 z m 0 0 -5.129 -8.789 -5.125 8.789 z m -10.254 0 -3.297 5.648 c 0 1.168 0.012 2.211 0.039 3.141 l 8.383 0 z m 0 0 -3.297 -5.648 0 5.648 z m 5.125 8.789 -4.313 7.395 c 1.598 0.293 3.809 0.297 6.879 0.297 l 1.922 0 z m 0 -17.578 -5.125 -8.789 -3.297 5.648 0 3.141 z m 0 0 10.254 0 -5.125 -8.789 z m 5.129 -8.789 -5.129 -8.789 -5.125 8.789 z m 0 0 10.254 0 -5.129 -8.789 z m 5.125 -8.789 -2.352 -4.03 -5.336 0 c -0.078 0 -0.141 0 -0.215 0 l -2.352 4.03 z m 0 0 10.254 0 -2.352 -4.03 -5.551 0 z m 10.254 0 10.254 0 l -2.352 -4.03 c -0.313 0 -0.609 0 -0.941 0 l -4.609 0 z m 0 0 -5.125 8.789 10.254 0 z m 5.129 8.789 10.254 0 -5.129 -8.789 z m 0 0 -5.129 8.789 10.254 0 z m 5.125 8.789 7.691 0 0 -4.395 -2.563 -4.395 z m 5.129 -8.789 2.563 0 0 -1.832 c 0 -0.914 -0.008 -1.75 -0.023 -2.523 z m -15.383 8.789 -5.125 -8.789 -5.129 8.789 z m 10.254 -17.578 7.309 0 c -0.555 -2.758 -1.887 -3.629 -5.03 -3.902 z m -30.762 0 l -2.305 -3.953 c -3.66 0.207 -5.141 0.996 -5.734 3.953 z m -5.125 8.789 l -3.238 -5.555 c -0.043 1.074 -0.059 2.309 -0.059 3.723 l 0 1.832 z m 15.379 26.367 -4.484 7.691 8.973 0 z m 10.254 0 -4.484 7.691 8.973 0 z m -26.898 6.621 -1.602 -2.746 c 0.293 1.316 0.785 2.18 1.602 2.746 z" fill="#fff" fill-opacity="0.06492374727668845"/></svg>