<svg xmlns="http://www.w3.org/2000/svg" viewBox="0 0 48 48"><defs><radialGradient id="thisWeirdIdNameFixesABug0" cx="24" cy="24" r="23.437" gradientUnits="userSpaceOnUse"><stop stop-color="#eeeeee"/><stop offset="1" stop-color="#cecece"/></radialGradient></defs><path d="m 47.44 11.547 l 0 24.906 c 0 10.25 0 10.984 -10.984 10.984 l -24.902 0 c -10.988 0 -10.988 -0.734 -10.988 -10.984 l 0 -24.906 c 0 -10.25 0 -10.984 10.988 -10.984 l 24.902 0 c 10.984 0 10.984 0.734 10.984 10.984" fill="url(#thisWeirdIdNameFixesABug0)"/><!-- color: #eeeeee --><path d="m 32.17 19.816 l 0 5.01 l -0.875 0 l -0.168 0.48 c 0.004 0.008 -0.012 0.02 0 0.031 c 0.316 0.477 0.527 1.031 0.527 1.656 c 0 1.652 -1.336 2.988 -2.996 2.988 c -0.219 0 -0.438 -0.012 -0.645 -0.059 c -0.191 0.125 -0.391 0.23 -0.59 0.336 c -0.289 0.156 -0.602 0.281 -0.906 0.395 c -0.59 1.148 -1.438 2.133 -2.48 2.875 c 1.309 0.926 2.902 1.461 4.633 1.461 c 4.43 0 8.02 -3.578 8.02 -8 c 0 -3.164 -1.848 -5.883 -4.52 -7.18 m -13.1 2.059 c -0.086 0.191 -0.164 0.395 -0.227 0.598 c 0.059 -0.203 0.145 -0.402 0.227 -0.598 m -0.227 0.598 c -0.016 0.047 -0.043 0.094 -0.059 0.141 c -0.043 0.172 -0.086 0.336 -0.113 0.508 c 0.035 -0.223 0.109 -0.438 0.172 -0.645 m -0.172 2.227 c 0.027 0.168 0.07 0.336 0.113 0.504 c 0.016 0.051 0.043 0.094 0.059 0.145 c -0.063 -0.215 -0.133 -0.426 -0.172 -0.648 m 0.172 0.648 c 0.063 0.199 0.141 0.398 0.227 0.59 c -0.082 -0.191 -0.168 -0.391 -0.227 -0.59 m 8.441 -0.508 c -0.656 0.418 -1.09 1.145 -1.156 1.969 c 0.098 -0.07 0.195 -0.145 0.281 -0.227 l 0.031 0 c 0.008 -0.008 0.016 -0.016 0.027 -0.027 c 0.098 -0.098 0.203 -0.18 0.313 -0.309 c 0.215 -0.258 0.426 -0.582 0.563 -0.898 l 0.227 -0.508 m 3.387 1.012 l -0.027 0.113 c -0.336 1.105 -0.906 2.113 -1.695 2.93 c -0.223 0.234 -0.477 0.445 -0.727 0.648 c 0.059 0.004 0.105 0.031 0.168 0.031 c 1.426 0 2.566 -1.141 2.566 -2.563 c 0 -0.418 -0.102 -0.813 -0.281 -1.156 m -4.148 2.672 c -0.043 0.023 -0.094 0.035 -0.141 0.059 c 0.008 0.008 0.02 0.016 0.023 0.027 c 0.035 -0.031 0.074 -0.063 0.113 -0.086 m 0 0" fill="#fff"/><path d="m 24.05 11 c -4.426 0 -8.02 3.578 -8.02 8 c 0 0.246 0.004 0.492 0.027 0.734 c 0.82 -0.379 1.727 -0.598 2.684 -0.68 c 0.027 -0.031 0.047 -0.078 0.141 -0.168 c 0.027 -0.027 0.043 -0.07 0.055 -0.086 c 0.477 -0.477 1.035 -0.895 1.668 -1.238 c 0.066 -0.039 0.082 -0.043 0.055 -0.031 c 0.074 -0.039 0.105 -0.047 0.113 -0.055 l 0 -0.031 c 0.273 -0.137 0.52 -0.207 0.707 -0.281 c -0.027 0.012 0.086 -0.035 0.313 -0.113 c 0.547 -0.633 1.352 -1.043 2.258 -1.043 c 0.91 0 1.711 0.41 2.262 1.043 c 0.23 0.078 0.316 0.125 0.285 0.113 c 0.184 0.07 0.426 0.168 0.703 0.309 l 0 -0.027 c 0.02 0.008 0.074 0.047 0.141 0.082 c -0.031 -0.016 -0.016 -0.012 0.059 0.031 c 0.516 0.281 0.941 0.633 1.355 1.012 c 0.223 -0.41 0.563 -0.738 1.047 -0.871 l 0 -0.027 c 0.02 -0.008 0.035 -0.023 0.055 -0.031 c 0.008 -0.004 0.023 0.004 0.031 0 c 0.043 -0.008 0.098 -0.02 0.141 -0.027 l 0.055 -0.02 l 0.086 0 c 0.098 -0.004 0.191 0.016 0.285 0.02 l 1.383 0 c -0.66 -3.754 -3.926 -6.617 -7.879 -6.617 m -0.012 5.441 c -0.52 0 -1.01 0.133 -1.41 0.398 c 0.031 -0.02 0.074 -0.031 0.227 -0.063 c 0.215 -0.031 0.23 -0.012 0.172 0 c 0.293 -0.043 0.645 -0.086 1.023 -0.086 c 0.344 0 0.637 0.023 0.906 0.059 c 0.02 -0.004 0.105 -0.004 0.273 0.027 c 0.105 0.023 0.156 0.039 0.199 0.063 c -0.402 -0.262 -0.871 -0.398 -1.383 -0.398 m -1.309 2.227 c -0.141 0.031 -0.289 0.051 -0.395 0.082 c 0.055 -0.016 -0.027 0.039 -0.227 0.117 c 0.199 -0.078 0.406 -0.145 0.621 -0.199 m 2.57 0 c 0.215 0.055 0.422 0.121 0.621 0.199 c -0.152 -0.059 -0.227 -0.102 -0.227 -0.117 c -0.102 -0.023 -0.254 -0.051 -0.398 -0.082 m 0.824 0.277 c 0.141 0.066 0.297 0.148 0.453 0.23 c 0 -0.012 0.027 -0.02 0.027 -0.027 c 0.039 0.02 0.039 0.008 -0.027 -0.027 c -0.008 -0.004 -0.059 0 -0.113 -0.027 l 0 -0.031 c -0.07 -0.035 -0.219 -0.066 -0.34 -0.113 m -4.547 0.113 c -0.063 0.035 -0.086 0.059 -0.086 0.059 c 0.027 -0.016 0.059 -0.016 0.086 -0.027 m 2.453 1.211 c -0.176 0 -0.34 0.023 -0.531 0.055 c -0.082 0.012 -0.207 0.027 -0.344 0.059 c -0.18 0.043 -0.359 0.098 -0.535 0.168 c -0.152 0.07 -0.273 0.152 -0.395 0.23 c 0.465 0.461 1.094 0.762 1.805 0.762 c 0.715 0 1.344 -0.301 1.809 -0.762 c -0.129 -0.074 -0.266 -0.16 -0.426 -0.23 c -0.176 -0.07 -0.352 -0.117 -0.535 -0.168 c -0.133 -0.027 -0.23 -0.043 -0.313 -0.059 c -0.063 -0.008 -0.113 -0.02 -0.168 -0.027 c -0.145 -0.012 -0.266 -0.023 -0.367 -0.023 m 0 0" fill="#fff"/><path d="m 16.06 19.734 c -2.754 1.266 -4.66 4.04 -4.66 7.266 c 0 4.418 3.59 8 8.02 8 c 1.727 0 3.316 -0.543 4.629 -1.461 c -1.047 -0.742 -1.918 -1.727 -2.52 -2.875 c -0.004 -0.004 -0.059 -0.027 -0.055 -0.027 c -0.191 -0.07 -0.438 -0.148 -0.707 -0.281 l 0 -0.027 c -0.008 -0.008 -0.039 -0.02 -0.113 -0.059 c 0.027 0.016 0.023 0.012 -0.055 -0.027 c -0.184 -0.098 -0.34 -0.227 -0.508 -0.336 c -0.215 0.051 -0.441 0.086 -0.676 0.086 c -1.656 0 -2.996 -1.332 -2.996 -2.988 c 0 -0.641 0.195 -1.23 0.535 -1.719 c -0.086 -0.441 -0.141 -0.898 -0.141 -1.383 c 0 -0.418 0.047 -0.824 0.113 -1.211 c -0.473 -0.898 -0.781 -1.891 -0.875 -2.957 m 2.625 4.957 c 0.035 0.258 0.094 0.504 0.172 0.762 c 0.078 0.266 0.215 0.535 0.34 0.789 c 0.07 0.145 0.152 0.266 0.227 0.395 c -0.344 -0.586 -0.617 -1.242 -0.734 -1.945 m 1.832 0 c 0.09 0.387 0.246 0.762 0.453 1.098 c 0.07 0.113 0.121 0.223 0.172 0.281 c 0.094 0.125 0.203 0.234 0.34 0.367 c 0.105 0.098 0.207 0.207 0.34 0.309 c 0.066 0.055 0.023 0.027 0.063 0.063 c 0.043 0.035 0.059 0.043 0.086 0.059 c -0.063 -0.965 -0.609 -1.781 -1.441 -2.168 m -3.422 1.184 c -0.164 0.336 -0.258 0.723 -0.258 1.125 c 0 1.422 1.145 2.563 2.566 2.563 c 0.055 0 0.094 -0.027 0.145 -0.027 c -0.215 -0.176 -0.43 -0.344 -0.621 -0.535 c -0.012 -0.016 -0.027 -0.059 -0.055 -0.086 c 0.012 0.012 0.004 0.004 -0.027 -0.027 c -0.031 -0.035 -0.008 -0.031 -0.031 -0.059 c -0.02 -0.02 -0.008 -0.012 -0.023 -0.027 c -0.215 -0.23 -0.441 -0.496 -0.648 -0.789 c -0.23 -0.328 -0.43 -0.648 -0.59 -0.988 c -0.164 -0.332 -0.316 -0.699 -0.426 -1.07 c -0.008 -0.027 -0.023 -0.055 -0.027 -0.082 m 0 0.004" fill="#fff"/><path d="m 24.04 17.594 c -0.305 0 -0.609 0.043 -0.902 0.082 c -0.047 0.008 -0.094 -0.004 -0.141 0 c -0.078 0.016 -0.148 0.039 -0.227 0.059 c -0.246 0.051 -0.477 0.094 -0.707 0.172 c -0.086 0.027 -0.168 0.078 -0.254 0.113 c -0.207 0.074 -0.426 0.152 -0.621 0.254 c -0.035 0.016 -0.078 0.035 -0.113 0.055 c -0.016 0.012 -0.039 0.02 -0.055 0.031 c -0.539 0.289 -1.012 0.668 -1.441 1.098 c -0.016 0.016 -0.039 0.039 -0.055 0.055 c -0.023 0.027 -0.031 0.063 -0.059 0.086 c -0.207 0.223 -0.414 0.453 -0.59 0.707 c -0.199 0.277 -0.359 0.563 -0.508 0.871 c -0.141 0.293 -0.27 0.613 -0.367 0.926 c -0.176 0.578 -0.285 1.172 -0.285 1.805 c 0 0.633 0.109 1.23 0.285 1.813 c 0.094 0.313 0.223 0.633 0.367 0.926 c 0.148 0.309 0.313 0.598 0.508 0.875 c 0.176 0.25 0.383 0.477 0.59 0.703 c 0.016 0.016 0.016 0.043 0.031 0.059 c 0.008 0.008 0.016 0.016 0.027 0.027 c 0.016 0.016 0.039 0.039 0.055 0.055 c 0.43 0.43 0.906 0.809 1.441 1.102 c 0.016 0.008 0.039 0.016 0.055 0.027 c 0.035 0.02 0.074 0.039 0.113 0.055 c 0.195 0.102 0.414 0.176 0.621 0.258 c 0.086 0.031 0.168 0.082 0.254 0.113 c 0.23 0.078 0.465 0.121 0.707 0.168 c 0.078 0.02 0.148 0.043 0.227 0.059 c 0.047 0.008 0.094 -0.008 0.141 0 c 0.293 0.043 0.598 0.086 0.902 0.086 c 1.07 0 2.086 -0.262 2.969 -0.734 c 0.586 -0.316 1.121 -0.734 1.578 -1.211 c 0.688 -0.719 1.203 -1.594 1.496 -2.563 l -1.922 0 c -0.172 0.395 -0.402 0.77 -0.676 1.098 c -0.129 0.16 -0.27 0.313 -0.426 0.449 c -0.004 0.004 -0.02 -0.004 -0.027 0 c -0.16 0.141 -0.328 0.277 -0.508 0.395 c -0.352 0.238 -0.734 0.43 -1.156 0.563 c -0.211 0.063 -0.43 0.105 -0.648 0.141 c -0.223 0.031 -0.449 0.059 -0.68 0.059 c -0.152 0 -0.301 -0.016 -0.453 -0.027 c -0.074 -0.008 -0.152 -0.02 -0.227 -0.031 c -0.133 -0.02 -0.266 -0.051 -0.395 -0.082 c -0.234 -0.059 -0.461 -0.137 -0.68 -0.227 c -0.211 -0.086 -0.422 -0.191 -0.617 -0.309 c -0.047 -0.027 -0.098 -0.055 -0.145 -0.086 c -0.004 -0.004 -0.02 0.004 -0.027 0 c -0.086 -0.059 -0.145 -0.137 -0.227 -0.195 c -0.148 -0.113 -0.289 -0.234 -0.426 -0.363 c -0.152 -0.152 -0.293 -0.313 -0.434 -0.477 c -0.07 -0.105 -0.145 -0.227 -0.227 -0.34 c -0.422 -0.688 -0.676 -1.492 -0.676 -2.363 c 0 -0.871 0.254 -1.684 0.676 -2.367 c 0.074 -0.113 0.148 -0.23 0.227 -0.336 c 0.137 -0.172 0.273 -0.328 0.434 -0.48 c 0.059 -0.055 0.102 -0.113 0.172 -0.168 c 0.082 -0.07 0.168 -0.133 0.254 -0.199 c 0.129 -0.098 0.254 -0.195 0.395 -0.281 c 0.195 -0.117 0.406 -0.219 0.617 -0.305 c 0.223 -0.094 0.449 -0.172 0.684 -0.23 c 0.129 -0.031 0.258 -0.063 0.395 -0.082 c 0.223 -0.035 0.445 -0.059 0.68 -0.059 c 0.152 0 0.301 0.016 0.453 0.027 c 0.074 0.008 0.152 0.02 0.227 0.031 c 0.133 0.02 0.266 0.051 0.395 0.082 c 0.234 0.059 0.461 0.137 0.68 0.227 c 0.211 0.086 0.422 0.191 0.617 0.309 c 0.047 0.027 0.098 0.055 0.145 0.086 c 0.004 0.004 0.02 -0.004 0.027 0 c 0.086 0.059 0.145 0.137 0.227 0.199 c 0.148 0.113 0.289 0.23 0.426 0.359 c 0.152 0.152 0.293 0.313 0.426 0.48 c 0.078 0.102 0.156 0.223 0.23 0.336 c 0.117 0.188 0.223 0.387 0.313 0.594 c -0.059 0 -0.082 0 -0.145 0 l -1.301 0 c -0.477 0 -0.902 0.426 -0.902 0.898 c -0.008 0.063 -0.008 0.137 0 0.195 l 0 0.703 l 5.422 0 l 0 -4.508 c 0.008 -0.055 0.008 -0.113 0 -0.168 l 0 -0.734 l -0.734 0 c -0.078 -0.02 -0.168 -0.023 -0.254 -0.02 c -0.039 0.008 -0.07 0.016 -0.109 0.02 c -0.406 0.094 -0.715 0.488 -0.707 0.902 l 0 1.324 c -0.086 -0.148 -0.152 -0.309 -0.254 -0.449 c -0.18 -0.254 -0.387 -0.484 -0.598 -0.707 c -0.02 -0.02 -0.027 -0.059 -0.055 -0.086 c -0.02 -0.016 -0.039 -0.039 -0.059 -0.055 c -0.43 -0.43 -0.902 -0.809 -1.441 -1.098 c -0.016 -0.012 -0.039 -0.02 -0.055 -0.031 c -0.035 -0.016 -0.074 -0.039 -0.113 -0.055 c -0.199 -0.102 -0.414 -0.176 -0.621 -0.254 c -0.086 -0.035 -0.168 -0.086 -0.254 -0.113 c -0.227 -0.078 -0.469 -0.121 -0.707 -0.172 c -0.074 -0.016 -0.145 -0.043 -0.227 -0.059 c -0.047 -0.004 -0.098 0.008 -0.141 0 c -0.297 -0.039 -0.598 -0.082 -0.906 -0.082 m -0.004 0" fill="#fff"/><path d="m 38.27 47.44 c 2.543 -0.012 4.379 -0.082 5.711 -0.441 l -4.23 -7.25 -4.484 7.691 1.191 0 c 0.641 0 1.242 0 1.813 0 z m 1.48 -7.691 -5.125 -8.789 -5.129 8.789 z m 0 0 7.652 0 c 0.031 -0.973 0.039 -2.063 0.039 -3.297 l 0 -1.098 -2.563 -4.395 z m 5.129 -8.789 -5.129 -8.789 -5.125 8.789 z m 0 0 2.563 0 0 -4.395 z m -10.254 0 -5.129 -8.789 -5.125 8.789 z m -10.254 0 -5.129 8.789 10.254 0 z m 0 0 -5.129 -8.789 -5.125 8.789 z m -10.254 0 -5.129 8.789 10.254 0 z m 0 0 -5.129 -8.789 -5.125 8.789 z m -10.254 0 -3.297 5.648 c 0 1.168 0.012 2.211 0.039 3.141 l 8.383 0 z m 0 0 -3.297 -5.648 0 5.648 z m 5.125 8.789 -4.313 7.395 c 1.598 0.293 3.809 0.297 6.879 0.297 l 1.922 0 z m 0 -17.578 -5.125 -8.789 -3.297 5.648 0 3.141 z m 0 0 10.254 0 -5.125 -8.789 z m 5.129 -8.789 -5.129 -8.789 -5.125 8.789 z m 0 0 10.254 0 -5.129 -8.789 z m 5.125 -8.789 -2.352 -4.03 -5.336 0 c -0.078 0 -0.141 0 -0.215 0 l -2.352 4.03 z m 0 0 10.254 0 -2.352 -4.03 -5.551 0 z m 10.254 0 10.254 0 l -2.352 -4.03 c -0.313 0 -0.609 0 -0.941 0 l -4.609 0 z m 0 0 -5.125 8.789 10.254 0 z m 5.129 8.789 10.254 0 -5.129 -8.789 z m 0 0 -5.129 8.789 10.254 0 z m 5.125 8.789 7.691 0 0 -4.395 -2.563 -4.395 z m 5.129 -8.789 2.563 0 0 -1.832 c 0 -0.914 -0.008 -1.75 -0.023 -2.523 z m -15.383 8.789 -5.125 -8.789 -5.129 8.789 z m 10.254 -17.578 7.309 0 c -0.555 -2.758 -1.887 -3.629 -5.03 -3.902 z m -30.762 0 l -2.305 -3.953 c -3.66 0.207 -5.141 0.996 -5.734 3.953 z m -5.125 8.789 l -3.238 -5.555 c -0.043 1.074 -0.059 2.309 -0.059 3.723 l 0 1.832 z m 15.379 26.367 -4.484 7.691 8.973 0 z m 10.254 0 -4.484 7.691 8.973 0 z m -26.898 6.621 -1.602 -2.746 c 0.293 1.316 0.785 2.18 1.602 2.746 z" fill="#fff" fill-opacity="0.13986928104575164"/></svg>