<svg xmlns="http://www.w3.org/2000/svg" viewBox="0 0 48 48"><defs><radialGradient id="thisWeirdIdNameFixesABug0" cx="24" cy="24" r="23.437" gradientUnits="userSpaceOnUse"><stop stop-color="#97da54"/><stop offset="1" stop-color="#77ba34"/></radialGradient></defs><path d="m 47.44 11.547 l 0 24.906 c 0 10.25 0 10.984 -10.984 10.984 l -24.902 0 c -10.988 0 -10.988 -0.734 -10.988 -10.984 l 0 -24.906 c 0 -10.25 0 -10.984 10.988 -10.984 l 24.902 0 c 10.984 0 10.984 0.734 10.984 10.984" fill="url(#thisWeirdIdNameFixesABug0)"/><!-- color: #97da54 --><path d="m 17.344 16.313 l 0 11.03 c 0 1.172 0.449 2.199 1.281 3.03 c 0.711 0.703 1.574 1.148 2.531 1.25 l 2.719 0 l 0 -2.156 l 4.719 0 l -7.06 -0.031 c -1.137 0 -2.094 -1.078 -2.094 -2.5 l 0 -10.625 m 5.719 1.813 c -0.93 0.008 -1.773 0.332 -2.438 1 c -0.668 0.676 -1.031 1.543 -1.031 2.5 l 0 4.813 l 2.188 0 l 0 -4.813 c 0 -0.363 0.145 -0.672 0.406 -0.938 c 0.262 -0.266 0.52 -0.375 0.875 -0.375 c 0.367 0 0.648 0.109 0.906 0.375 c 0.262 0.266 0.375 0.57 0.375 0.938 l 0 4.813 l 2.188 0 l 0 -4.813 c 0 -0.363 0.117 -0.672 0.375 -0.938 c 0.262 -0.266 0.543 -0.375 0.906 -0.375 c 0.363 0 0.648 0.109 0.906 0.375 c 0.262 0.266 0.375 0.57 0.375 0.938 l 0.031 4.781 l 2.156 0 l 0 -4.781 c 0 -0.957 -0.324 -1.82 -1 -2.5 c -0.672 -0.676 -1.527 -1 -2.469 -1 c -0.926 0 -1.719 0.332 -2.375 0.969 c -0.641 -0.629 -1.434 -0.961 -2.344 -0.969 m 6.03 9.125 c 0 0.289 -0.066 0.59 -0.188 0.844 c 0.129 -0.266 0.188 -0.543 0.188 -0.844 m 0 0" fill="#fff" fill-rule="evenodd"/><path d="m 22.688 35.996 c -4.977 0 -9.297 -3.773 -9.297 -8.75 l -0.004 -6.04 l 0 -1.543 l -3.156 0 l 0 -7.676 l 13.309 0.066 l 4.164 0.008 c 4.98 0 9.297 3.77 9.297 8.746 l 0 15.18 l -14.316 0 m 12.289 -4.066 c 0 -3.305 0 -11.11 0 -11.11 c 0 -3.711 -3.258 -6.719 -7.27 -6.719 l -4.168 0 l 0 -0.008 l -11.273 -0.055 l 0 3.605 c 0 0 0.457 0 1.262 0 c 0.859 0 1.891 0.805 1.891 1.988 l 0.02 7.609 c 0 3.711 3.254 6.723 7.266 6.723 l 9.902 0 c 1.27 0 2.383 -0.809 2.383 -2.039 m -0.004 0" fill="#fff" fill-rule="evenodd"/><path d="m 38.27 47.44 c 2.543 -0.012 4.379 -0.082 5.711 -0.441 l -4.23 -7.25 -4.484 7.691 1.191 0 c 0.641 0 1.242 0 1.813 0 z m 1.48 -7.691 -5.125 -8.789 -5.129 8.789 z m 0 0 7.652 0 c 0.031 -0.973 0.039 -2.063 0.039 -3.297 l 0 -1.098 -2.563 -4.395 z m 5.129 -8.789 -5.129 -8.789 -5.125 8.789 z m 0 0 2.563 0 0 -4.395 z m -10.254 0 -5.129 -8.789 -5.125 8.789 z m -10.254 0 -5.129 8.789 10.254 0 z m 0 0 -5.129 -8.789 -5.125 8.789 z m -10.254 0 -5.129 8.789 10.254 0 z m 0 0 -5.129 -8.789 -5.125 8.789 z m -10.254 0 -3.297 5.648 c 0 1.168 0.012 2.211 0.039 3.141 l 8.383 0 z m 0 0 -3.297 -5.648 0 5.648 z m 5.125 8.789 -4.313 7.395 c 1.598 0.293 3.809 0.297 6.879 0.297 l 1.922 0 z m 0 -17.578 -5.125 -8.789 -3.297 5.648 0 3.141 z m 0 0 10.254 0 -5.125 -8.789 z m 5.129 -8.789 -5.129 -8.789 -5.125 8.789 z m 0 0 10.254 0 -5.129 -8.789 z m 5.125 -8.789 -2.352 -4.03 -5.336 0 c -0.078 0 -0.141 0 -0.215 0 l -2.352 4.03 z m 0 0 10.254 0 -2.352 -4.03 -5.551 0 z m 10.254 0 10.254 0 l -2.352 -4.03 c -0.313 0 -0.609 0 -0.941 0 l -4.609 0 z m 0 0 -5.125 8.789 10.254 0 z m 5.129 8.789 10.254 0 -5.129 -8.789 z m 0 0 -5.129 8.789 10.254 0 z m 5.125 8.789 7.691 0 0 -4.395 -2.563 -4.395 z m 5.129 -8.789 2.563 0 0 -1.832 c 0 -0.914 -0.008 -1.75 -0.023 -2.523 z m -15.383 8.789 -5.125 -8.789 -5.129 8.789 z m 10.254 -17.578 7.309 0 c -0.555 -2.758 -1.887 -3.629 -5.03 -3.902 z m -30.762 0 l -2.305 -3.953 c -3.66 0.207 -5.141 0.996 -5.734 3.953 z m -5.125 8.789 l -3.238 -5.555 c -0.043 1.074 -0.059 2.309 -0.059 3.723 l 0 1.832 z m 15.379 26.367 -4.484 7.691 8.973 0 z m 10.254 0 -4.484 7.691 8.973 0 z m -26.898 6.621 -1.602 -2.746 c 0.293 1.316 0.785 2.18 1.602 2.746 z" fill="#fff" fill-opacity="0.08300653594771243"/></svg>