<svg xmlns="http://www.w3.org/2000/svg" viewBox="0 0 48 48"><defs><radialGradient id="thisWeirdIdNameFixesABug0" cx="24" cy="24" r="23.437" gradientUnits="userSpaceOnUse"><stop stop-color="#936750"/><stop offset="1" stop-color="#734730"/></radialGradient></defs><path d="m 47.44 11.547 l 0 24.906 c 0 10.25 0 10.984 -10.984 10.984 l -24.902 0 c -10.988 0 -10.988 -0.734 -10.988 -10.984 l 0 -24.906 c 0 -10.25 0 -10.984 10.988 -10.984 l 24.902 0 c 10.984 0 10.984 0.734 10.984 10.984" fill="url(#thisWeirdIdNameFixesABug0)"/><!-- color: #936750 --><path d="m 26.05 11 c -0.074 0 -0.156 0.016 -0.258 0.051 l -11.434 3.34 c -0.098 0.02 -0.09 0.043 -0.012 0.109 l 10.145 8.06 c 0.191 0.152 0.273 0.172 0.535 0.09 l 11.379 -3.922 c 0.27 -0.098 0.281 -0.117 0.02 -0.293 l -9.988 -7.27 c -0.156 -0.105 -0.258 -0.16 -0.387 -0.164 m -1.313 0.977 c 0.23 0 0.477 0.023 0.723 0.078 c 0.988 0.215 1.699 0.82 1.566 1.352 c -0.125 0.523 -1.043 0.773 -2.035 0.566 c -0.988 -0.227 -1.707 -0.82 -1.566 -1.352 c 0.094 -0.395 0.637 -0.637 1.313 -0.641 m -6.438 1.945 c 0.227 0 0.477 0.023 0.723 0.078 c 0.996 0.215 1.699 0.816 1.57 1.344 c -0.129 0.523 -1.043 0.777 -2.035 0.563 c -0.996 -0.219 -1.699 -0.816 -1.57 -1.352 c 0.094 -0.391 0.629 -0.629 1.313 -0.633 m 9.766 0.496 c 0.227 0 0.477 0.027 0.723 0.082 c 0.996 0.215 1.699 0.816 1.57 1.34 c -0.129 0.527 -1.043 0.777 -2.039 0.563 c -0.992 -0.219 -1.695 -0.813 -1.566 -1.344 c 0.094 -0.395 0.629 -0.637 1.313 -0.641 m -14.43 0.621 c -0.02 0.004 -0.027 0.039 -0.039 0.105 l -2.582 12.82 c -0.027 0.133 -0.023 0.164 0.102 0.27 l 9.789 8.391 c 0.227 0.219 0.277 0.215 0.309 -0.051 l 2.852 -13 c 0.066 -0.18 0 -0.273 -0.102 -0.359 l -10.223 -8.117 c -0.055 -0.043 -0.082 -0.066 -0.105 -0.063 m 7.953 1.469 c 0.227 0 0.477 0.023 0.723 0.078 c 0.996 0.215 1.699 0.82 1.57 1.344 c -0.129 0.523 -1.043 0.777 -2.039 0.559 c -0.996 -0.215 -1.695 -0.813 -1.57 -1.344 c 0.098 -0.391 0.633 -0.629 1.316 -0.633 m 9.867 0.426 c 0.227 0 0.477 0.023 0.723 0.078 c 0.996 0.215 1.699 0.816 1.57 1.344 c -0.129 0.523 -1.043 0.777 -2.035 0.566 c -0.996 -0.215 -1.699 -0.824 -1.57 -1.355 c 0.094 -0.391 0.629 -0.629 1.316 -0.633 m -17.191 0.473 c 0.039 -0.004 0.082 -0.004 0.121 0 c 0.469 0.023 0.977 0.457 1.27 1.16 c 0.398 0.941 0.273 1.984 -0.289 2.344 c -0.555 0.355 -1.316 -0.102 -1.723 -1.047 c -0.395 -0.934 -0.262 -1.977 0.293 -2.344 c 0.105 -0.063 0.211 -0.102 0.324 -0.117 m 10.703 1.691 c 0.227 0 0.477 0.02 0.723 0.078 c 0.996 0.219 1.699 0.813 1.57 1.344 c -0.125 0.52 -1.039 0.77 -2.035 0.559 c -0.996 -0.215 -1.699 -0.816 -1.57 -1.34 c 0.102 -0.395 0.629 -0.633 1.316 -0.637 m 11.961 0.352 c -0.023 0.004 -0.055 0.016 -0.09 0.023 l -11.691 4.04 c -0.238 0.098 -0.227 0.137 -0.27 0.313 l -2.852 12.961 c -0.008 0.191 -0.082 0.277 0.148 0.18 l 11.516 -4.281 c 0.223 -0.105 0.266 -0.125 0.289 -0.34 l 2.988 -12.781 c 0.023 -0.09 0.016 -0.121 -0.047 -0.109 m -1.895 2.105 c 0.332 0.004 0.59 0.164 0.703 0.469 c 0.227 0.613 -0.211 1.594 -0.988 2.188 c -0.777 0.598 -1.59 0.582 -1.816 -0.031 c -0.227 -0.613 0.211 -1.59 0.988 -2.188 c 0.391 -0.297 0.785 -0.441 1.113 -0.438 m -14.168 1.117 c 0.477 0.012 0.992 0.457 1.293 1.172 c 0.398 0.934 0.27 1.984 -0.285 2.34 c -0.559 0.359 -1.328 -0.113 -1.723 -1.047 c -0.398 -0.938 -0.262 -1.977 0.289 -2.336 c 0.102 -0.066 0.215 -0.105 0.328 -0.121 c 0.031 -0.004 0.059 -0.008 0.09 -0.004 m -4.168 1.496 c 0.477 0.012 0.992 0.457 1.297 1.168 c 0.395 0.938 0.266 1.984 -0.289 2.344 c -0.555 0.359 -1.324 -0.113 -1.723 -1.047 c -0.395 -0.938 -0.262 -1.98 0.293 -2.336 c 0.102 -0.066 0.211 -0.105 0.324 -0.121 c 0.031 -0.004 0.059 -0.008 0.094 -0.004 m -4.105 1.48 c 0.039 -0.004 0.082 -0.004 0.121 0 c 0.469 0.027 0.973 0.469 1.27 1.172 c 0.395 0.934 0.27 1.977 -0.289 2.332 c -0.555 0.359 -1.324 -0.109 -1.719 -1.043 c -0.398 -0.938 -0.266 -1.984 0.289 -2.344 c 0.102 -0.066 0.211 -0.105 0.324 -0.121 m 18.07 1.246 c 0.324 0.008 0.578 0.168 0.691 0.469 c 0.227 0.613 -0.215 1.594 -0.992 2.188 c -0.773 0.594 -1.59 0.582 -1.816 -0.031 c -0.227 -0.613 0.215 -1.59 0.992 -2.188 c 0.34 -0.262 0.684 -0.402 0.988 -0.434 c 0.051 -0.004 0.098 -0.008 0.141 -0.004 m -11.68 4.148 c 0.039 -0.004 0.082 -0.004 0.121 0 c 0.465 0.02 0.977 0.461 1.27 1.16 c 0.398 0.938 0.262 1.98 -0.289 2.344 c -0.559 0.355 -1.32 -0.109 -1.715 -1.047 c -0.398 -0.938 -0.27 -1.984 0.285 -2.34 c 0.105 -0.066 0.215 -0.105 0.328 -0.121 m 6.914 1.348 c 0.332 0.004 0.59 0.156 0.703 0.465 c 0.227 0.609 -0.211 1.59 -0.988 2.184 c -0.777 0.598 -1.59 0.586 -1.816 -0.023 c -0.23 -0.613 0.211 -1.59 0.988 -2.188 c 0.387 -0.297 0.785 -0.441 1.113 -0.438 m 0 0" fill="#fff"/><path d="m 38.27 47.44 c 2.543 -0.012 4.379 -0.082 5.711 -0.441 l -4.23 -7.25 -4.484 7.691 1.191 0 c 0.641 0 1.242 0 1.813 0 z m 1.48 -7.691 -5.125 -8.789 -5.129 8.789 z m 0 0 7.652 0 c 0.031 -0.973 0.039 -2.063 0.039 -3.297 l 0 -1.098 -2.563 -4.395 z m 5.129 -8.789 -5.129 -8.789 -5.125 8.789 z m 0 0 2.563 0 0 -4.395 z m -10.254 0 -5.129 -8.789 -5.125 8.789 z m -10.254 0 -5.129 8.789 10.254 0 z m 0 0 -5.129 -8.789 -5.125 8.789 z m -10.254 0 -5.129 8.789 10.254 0 z m 0 0 -5.129 -8.789 -5.125 8.789 z m -10.254 0 -3.297 5.648 c 0 1.168 0.012 2.211 0.039 3.141 l 8.383 0 z m 0 0 -3.297 -5.648 0 5.648 z m 5.125 8.789 -4.313 7.395 c 1.598 0.293 3.809 0.297 6.879 0.297 l 1.922 0 z m 0 -17.578 -5.125 -8.789 -3.297 5.648 0 3.141 z m 0 0 10.254 0 -5.125 -8.789 z m 5.129 -8.789 -5.129 -8.789 -5.125 8.789 z m 0 0 10.254 0 -5.129 -8.789 z m 5.125 -8.789 -2.352 -4.03 -5.336 0 c -0.078 0 -0.141 0 -0.215 0 l -2.352 4.03 z m 0 0 10.254 0 -2.352 -4.03 -5.551 0 z m 10.254 0 10.254 0 l -2.352 -4.03 c -0.313 0 -0.609 0 -0.941 0 l -4.609 0 z m 0 0 -5.125 8.789 10.254 0 z m 5.129 8.789 10.254 0 -5.129 -8.789 z m 0 0 -5.129 8.789 10.254 0 z m 5.125 8.789 7.691 0 0 -4.395 -2.563 -4.395 z m 5.129 -8.789 2.563 0 0 -1.832 c 0 -0.914 -0.008 -1.75 -0.023 -2.523 z m -15.383 8.789 -5.125 -8.789 -5.129 8.789 z m 10.254 -17.578 7.309 0 c -0.555 -2.758 -1.887 -3.629 -5.03 -3.902 z m -30.762 0 l -2.305 -3.953 c -3.66 0.207 -5.141 0.996 -5.734 3.953 z m -5.125 8.789 l -3.238 -5.555 c -0.043 1.074 -0.059 2.309 -0.059 3.723 l 0 1.832 z m 15.379 26.367 -4.484 7.691 8.973 0 z m 10.254 0 -4.484 7.691 8.973 0 z m -26.898 6.621 -1.602 -2.746 c 0.293 1.316 0.785 2.18 1.602 2.746 z" fill="#fff" fill-opacity="0.05620915032679738"/></svg>