<svg xmlns="http://www.w3.org/2000/svg" viewBox="0 0 48 48"><defs><radialGradient id="thisWeirdIdNameFixesABug0" cx="24" cy="24" r="23.437" gradientUnits="userSpaceOnUse"><stop stop-color="#f8bd5a"/><stop offset="1" stop-color="#d89d3a"/></radialGradient></defs><path d="m 47.44 11.547 l 0 24.906 c 0 10.25 0 10.984 -10.984 10.984 l -24.902 0 c -10.988 0 -10.988 -0.734 -10.988 -10.984 l 0 -24.906 c 0 -10.25 0 -10.984 10.988 -10.984 l 24.902 0 c 10.984 0 10.984 0.734 10.984 10.984" fill="url(#thisWeirdIdNameFixesABug0)"/><!-- color: #f8bd5a --><path d="m 23.672 10 c -7.582 0 -13.84 6.141 -14.613 14.07 c -0.004 0.02 0 0.047 0 0.07 c 0 0.008 0 0.016 0 0.023 c -0.004 0.027 0 0.047 0 0.07 c -0.086 1.141 -0.066 2.082 0 3.145 c 2.961 12.898 11.824 11.895 11.824 8.141 l -4.01 -6.922 c -0.863 -0.59 -1.762 0.418 -2.594 0.961 c -1.063 0.703 -1.145 0.813 -1.762 -0.797 c -0.719 -1.898 -1.086 -4.98 0 -7.508 c 2.246 -5.25 6.457 -8.176 11.152 -8.262 c 0.234 0 0.465 0 0.699 0 c 4.672 0.102 8.867 3.03 11.11 8.262 c 1.082 2.527 0.719 5.605 0 7.508 c -0.609 1.609 -0.699 1.5 -1.766 0.797 c -0.824 -0.547 -1.723 -1.551 -2.594 -0.961 l -4.01 6.922 c 0 3.75 8.867 4.758 11.828 -8.141 c 0.063 -1.063 0.086 -2 0 -3.145 c -0.004 -0.023 0.004 -0.043 0 -0.07 c 0 -0.008 0 -0.012 0 -0.023 c -0.004 -0.023 0.004 -0.047 0 -0.07 c -0.777 -7.938 -6.992 -14.07 -14.574 -14.07 c -0.699 0 0 0 -0.699 0 m 0.004 0" fill="#fff"/><path d="m 24 17 c -3 3 -3 3 -5.898 5.461 c -0.094 0.09 -0.129 0.227 -0.078 0.34 c 0.055 0.113 0.188 0.195 0.328 0.199 l 2.648 0 l 0 6.563 c 0 0.164 0.188 0.438 0.363 0.438 l 5.305 0 c 0.184 0 0.332 -0.211 0.332 -0.379 l 0 -6.652 l 2.652 0.031 c 0.137 0 0.27 -0.086 0.324 -0.199 c 0.055 -0.113 0.02 -0.25 -0.078 -0.34 c -2.898 -2.457 -2.898 -2.457 -5.898 -5.461 m 0 0" fill="#fff"/><path d="m 38.27 47.44 c 2.543 -0.012 4.379 -0.082 5.711 -0.441 l -4.23 -7.25 -4.484 7.691 1.191 0 c 0.641 0 1.242 0 1.813 0 z m 1.48 -7.691 -5.125 -8.789 -5.129 8.789 z m 0 0 7.652 0 c 0.031 -0.973 0.039 -2.063 0.039 -3.297 l 0 -1.098 -2.563 -4.395 z m 5.129 -8.789 -5.129 -8.789 -5.125 8.789 z m 0 0 2.563 0 0 -4.395 z m -10.254 0 -5.129 -8.789 -5.125 8.789 z m -10.254 0 -5.129 8.789 10.254 0 z m 0 0 -5.129 -8.789 -5.125 8.789 z m -10.254 0 -5.129 8.789 10.254 0 z m 0 0 -5.129 -8.789 -5.125 8.789 z m -10.254 0 -3.297 5.648 c 0 1.168 0.012 2.211 0.039 3.141 l 8.383 0 z m 0 0 -3.297 -5.648 0 5.648 z m 5.125 8.789 -4.313 7.395 c 1.598 0.293 3.809 0.297 6.879 0.297 l 1.922 0 z m 0 -17.578 -5.125 -8.789 -3.297 5.648 0 3.141 z m 0 0 10.254 0 -5.125 -8.789 z m 5.129 -8.789 -5.129 -8.789 -5.125 8.789 z m 0 0 10.254 0 -5.129 -8.789 z m 5.125 -8.789 -2.352 -4.03 -5.336 0 c -0.078 0 -0.141 0 -0.215 0 l -2.352 4.03 z m 0 0 10.254 0 -2.352 -4.03 -5.551 0 z m 10.254 0 10.254 0 l -2.352 -4.03 c -0.313 0 -0.609 0 -0.941 0 l -4.609 0 z m 0 0 -5.125 8.789 10.254 0 z m 5.129 8.789 10.254 0 -5.129 -8.789 z m 0 0 -5.129 8.789 10.254 0 z m 5.125 8.789 7.691 0 0 -4.395 -2.563 -4.395 z m 5.129 -8.789 2.563 0 0 -1.832 c 0 -0.914 -0.008 -1.75 -0.023 -2.523 z m -15.383 8.789 -5.125 -8.789 -5.129 8.789 z m 10.254 -17.578 7.309 0 c -0.555 -2.758 -1.887 -3.629 -5.03 -3.902 z m -30.762 0 l -2.305 -3.953 c -3.66 0.207 -5.141 0.996 -5.734 3.953 z m -5.125 8.789 l -3.238 -5.555 c -0.043 1.074 -0.059 2.309 -0.059 3.723 l 0 1.832 z m 15.379 26.367 -4.484 7.691 8.973 0 z m 10.254 0 -4.484 7.691 8.973 0 z m -26.898 6.621 -1.602 -2.746 c 0.293 1.316 0.785 2.18 1.602 2.746 z" fill="#fff" fill-opacity="0.09912854030501089"/></svg>