<svg xmlns="http://www.w3.org/2000/svg" viewBox="0 0 48 48"><defs><radialGradient id="thisWeirdIdNameFixesABug0" cx="24" cy="24" r="23.437" gradientUnits="userSpaceOnUse"><stop stop-color="#e6dd60"/><stop offset="1" stop-color="#c6bd40"/></radialGradient></defs><path d="m 47.44 11.547 l 0 24.906 c 0 10.25 0 10.984 -10.984 10.984 l -24.902 0 c -10.988 0 -10.988 -0.734 -10.988 -10.984 l 0 -24.906 c 0 -10.25 0 -10.984 10.988 -10.984 l 24.902 0 c 10.984 0 10.984 0.734 10.984 10.984" fill="url(#thisWeirdIdNameFixesABug0)"/><!-- color: #e6dd60 --><path d="m 19 14 l -7 7 l 0 10.5 c 0 1.418 1.195 2.5 2.563 2.5 l 18.906 0 c 1.367 0 2.531 -1.082 2.531 -2.5 l 0 -15 c 0 -1.418 -1.164 -2.5 -2.531 -2.5 m -14.469 2 l 13 0 c 0.824 0 2 1.191 2 2 l 0 12 c 0 1 -1 2 -2 2 l -2.5 0 c 0 0 -0.012 -0.656 -0.313 -1.781 c -0.129 -0.492 -0.332 -1.082 -0.594 -1.75 c 0.211 -0.113 0.414 -0.258 0.594 -0.438 c 0.063 -0.063 0.102 -0.148 0.156 -0.219 c 0.75 0.047 1.656 -0.023 2.375 -0.438 c 1.453 -0.84 2.094 -3.125 2.094 -3.125 c 0 0 -2.293 -0.621 -3.75 0.219 c -0.195 0.113 -0.398 0.25 -0.563 0.406 c -0.09 -0.137 -0.191 -0.254 -0.313 -0.375 c -0.02 -0.016 -0.012 -0.047 -0.031 -0.063 c 0.02 -0.023 0.039 -0.023 0.063 -0.031 c 1.191 -0.691 1.594 -2.211 0.906 -3.406 c -0.559 -0.961 -1.652 -1.379 -2.688 -1.156 c -0.32 -1 -1.234 -1.75 -2.344 -1.75 l -0.031 -0.031 c -1.375 0 -2.469 1.121 -2.469 2.5 l 0 0.094 c -0.023 -0.008 -0.031 -0.031 -0.063 -0.031 c -1.332 -0.355 -2.711 0.449 -3.063 1.781 c -0.359 1.332 0.449 2.707 1.781 3.063 c 0.023 0.004 0.012 -0.004 0.031 0 c -0.012 0.02 0 0.035 0 0.063 c -0.691 1.195 -0.258 2.746 0.938 3.438 c 0.238 0.137 0.492 0.23 0.75 0.281 c -0.527 0.977 -0.676 2.152 -0.719 2.75 l 2.375 0 c 0.578 -0.195 1.156 -0.473 1.594 -0.906 c 0.625 -0.625 0.953 -1.543 1.125 -2.344 c 0.18 0.008 0.355 0 0.531 -0.031 c 0.262 0.648 0.473 1.223 0.594 1.688 c 0.277 1.051 0.25 1.594 0.25 1.594 l -4.094 0 c -1.191 0.402 -2.406 0.406 -2.406 0.406 c 0 0 0.016 -0.172 0.031 -0.406 l -6.25 0 c -0.996 0 -2 -1 -2 -2 l 0 -9 l 2.188 0 c 1.496 0 2.813 -1.145 2.813 -2.656 m 5.75 3.813 c 0.109 -0.012 0.23 -0.008 0.344 0 c 0.129 0.008 0.277 0.027 0.406 0.063 c 1.035 0.277 1.621 1.344 1.344 2.375 c -0.277 1.031 -1.313 1.652 -2.344 1.375 c -1.035 -0.273 -1.648 -1.34 -1.375 -2.375 c 0.211 -0.789 0.863 -1.348 1.625 -1.438 m 0 0" fill="#fff"/><path d="m 38.27 47.44 c 2.543 -0.012 4.379 -0.082 5.711 -0.441 l -4.23 -7.25 -4.484 7.691 1.191 0 c 0.641 0 1.242 0 1.813 0 z m 1.48 -7.691 -5.125 -8.789 -5.129 8.789 z m 0 0 7.652 0 c 0.031 -0.973 0.039 -2.063 0.039 -3.297 l 0 -1.098 -2.563 -4.395 z m 5.129 -8.789 -5.129 -8.789 -5.125 8.789 z m 0 0 2.563 0 0 -4.395 z m -10.254 0 -5.129 -8.789 -5.125 8.789 z m -10.254 0 -5.129 8.789 10.254 0 z m 0 0 -5.129 -8.789 -5.125 8.789 z m -10.254 0 -5.129 8.789 10.254 0 z m 0 0 -5.129 -8.789 -5.125 8.789 z m -10.254 0 -3.297 5.648 c 0 1.168 0.012 2.211 0.039 3.141 l 8.383 0 z m 0 0 -3.297 -5.648 0 5.648 z m 5.125 8.789 -4.313 7.395 c 1.598 0.293 3.809 0.297 6.879 0.297 l 1.922 0 z m 0 -17.578 -5.125 -8.789 -3.297 5.648 0 3.141 z m 0 0 10.254 0 -5.125 -8.789 z m 5.129 -8.789 -5.129 -8.789 -5.125 8.789 z m 0 0 10.254 0 -5.129 -8.789 z m 5.125 -8.789 -2.352 -4.03 -5.336 0 c -0.078 0 -0.141 0 -0.215 0 l -2.352 4.03 z m 0 0 10.254 0 -2.352 -4.03 -5.551 0 z m 10.254 0 10.254 0 l -2.352 -4.03 c -0.313 0 -0.609 0 -0.941 0 l -4.609 0 z m 0 0 -5.125 8.789 10.254 0 z m 5.129 8.789 10.254 0 -5.129 -8.789 z m 0 0 -5.129 8.789 10.254 0 z m 5.125 8.789 7.691 0 0 -4.395 -2.563 -4.395 z m 5.129 -8.789 2.563 0 0 -1.832 c 0 -0.914 -0.008 -1.75 -0.023 -2.523 z m -15.383 8.789 -5.125 -8.789 -5.129 8.789 z m 10.254 -17.578 7.309 0 c -0.555 -2.758 -1.887 -3.629 -5.03 -3.902 z m -30.762 0 l -2.305 -3.953 c -3.66 0.207 -5.141 0.996 -5.734 3.953 z m -5.125 8.789 l -3.238 -5.555 c -0.043 1.074 -0.059 2.309 -0.059 3.723 l 0 1.832 z m 15.379 26.367 -4.484 7.691 8.973 0 z m 10.254 0 -4.484 7.691 8.973 0 z m -26.898 6.621 -1.602 -2.746 c 0.293 1.316 0.785 2.18 1.602 2.746 z" fill="#fff" fill-opacity="0.10348583877995643"/></svg>