<svg xmlns="http://www.w3.org/2000/svg" viewBox="0 0 48 48"><defs><radialGradient id="thisWeirdIdNameFixesABug0" cx="24" cy="24" r="23.437" gradientUnits="userSpaceOnUse"><stop stop-color="#428585"/><stop offset="1" stop-color="#226565"/></radialGradient></defs><path d="m 47.44 11.547 l 0 24.906 c 0 10.25 0 10.984 -10.984 10.984 l -24.902 0 c -10.988 0 -10.988 -0.734 -10.988 -10.984 l 0 -24.906 c 0 -10.25 0 -10.984 10.988 -10.984 l 24.902 0 c 10.984 0 10.984 0.734 10.984 10.984" fill="url(#thisWeirdIdNameFixesABug0)"/><!-- color: #428585 --><path d="m 15.313 11 c -1.281 0 -2.313 1.047 -2.313 2.313 l 0 21.375 c 0 1.27 1.047 2.344 2.313 2.344 l 17.375 0 c 1.273 0 2.313 -1.082 2.313 -2.344 l 0 -21.375 c 0 -1.266 -1.035 -2.313 -2.313 -2.313 m -17.375 2 l 17.375 0 c 0.184 0 0.313 0.125 0.313 0.313 l 0 21.375 c 0 0.199 -0.109 0.344 -0.313 0.344 l -17.375 0 c -0.195 0 -0.313 -0.137 -0.313 -0.344 l 0 -21.375 c 0 -0.188 0.125 -0.313 0.313 -0.313 m 8.656 1.313 c -4.203 0 -7.594 3.234 -7.594 7.219 c 0 3.988 3.387 7.25 7.594 7.25 c 4.207 0 7.625 -3.262 7.625 -7.25 c 0 -3.984 -3.418 -7.219 -7.625 -7.219 m 0.031 2.688 c 0.359 0 1 0.32 1 0.656 l 0 3.219 c 0.012 0.324 -0.59 0.629 -0.938 0.656 l -0.063 0 c -0.367 0.004 -1.016 -0.313 -1 -0.656 l 0 -3.219 c 0 -0.336 0.641 -0.656 1 -0.656 m -2.5 0.75 c 0.391 0 0.559 0.359 0.5 0.719 l 0 2.281 c 0.016 0.32 0 0.742 -0.5 0.656 c -0.387 0.035 -0.484 -0.293 -0.469 -0.656 l 0 -2.281 c -0.059 -0.359 0.078 -0.719 0.469 -0.719 m 5 0.75 c 0.359 0 0.5 0.32 0.5 0.656 l 0 1.594 c 0 0.254 0.105 0.621 -0.5 0.656 c -0.395 0.008 -0.5 -0.402 -0.5 -0.656 l 0 -1.594 c 0 -0.336 0.141 -0.656 0.5 -0.656 m -5.531 3.594 c 0.254 -0.012 0.492 0.039 0.688 0.188 l 2.344 2.219 l 2.219 -2.125 c 0.285 -0.281 0.773 -0.359 1.156 -0.219 c 0.383 0.152 0.645 0.555 0.625 0.938 c -0.008 0.246 -0.121 0.48 -0.313 0.656 l -3 2.969 c -0.172 0.156 -0.383 0.262 -0.625 0.281 c -0.297 0.023 -0.602 -0.09 -0.813 -0.281 l -3.03 -3.063 c -0.324 -0.352 -0.293 -0.949 0.063 -1.281 c 0.18 -0.172 0.434 -0.273 0.688 -0.281 m 5.594 7.594 l 3.438 4.03 l 1.688 0 l 0 -1.625 m -5.125 -2.406" fill="#fff"/><path d="m 38.27 47.44 c 2.543 -0.012 4.379 -0.082 5.711 -0.441 l -4.23 -7.25 -4.484 7.691 1.191 0 c 0.641 0 1.242 0 1.813 0 z m 1.48 -7.691 -5.125 -8.789 -5.129 8.789 z m 0 0 7.652 0 c 0.031 -0.973 0.039 -2.063 0.039 -3.297 l 0 -1.098 -2.563 -4.395 z m 5.129 -8.789 -5.129 -8.789 -5.125 8.789 z m 0 0 2.563 0 0 -4.395 z m -10.254 0 -5.129 -8.789 -5.125 8.789 z m -10.254 0 -5.129 8.789 10.254 0 z m 0 0 -5.129 -8.789 -5.125 8.789 z m -10.254 0 -5.129 8.789 10.254 0 z m 0 0 -5.129 -8.789 -5.125 8.789 z m -10.254 0 -3.297 5.648 c 0 1.168 0.012 2.211 0.039 3.141 l 8.383 0 z m 0 0 -3.297 -5.648 0 5.648 z m 5.125 8.789 -4.313 7.395 c 1.598 0.293 3.809 0.297 6.879 0.297 l 1.922 0 z m 0 -17.578 -5.125 -8.789 -3.297 5.648 0 3.141 z m 0 0 10.254 0 -5.125 -8.789 z m 5.129 -8.789 -5.129 -8.789 -5.125 8.789 z m 0 0 10.254 0 -5.129 -8.789 z m 5.125 -8.789 -2.352 -4.03 -5.336 0 c -0.078 0 -0.141 0 -0.215 0 l -2.352 4.03 z m 0 0 10.254 0 -2.352 -4.03 -5.551 0 z m 10.254 0 10.254 0 l -2.352 -4.03 c -0.313 0 -0.609 0 -0.941 0 l -4.609 0 z m 0 0 -5.125 8.789 10.254 0 z m 5.129 8.789 10.254 0 -5.129 -8.789 z m 0 0 -5.129 8.789 10.254 0 z m 5.125 8.789 7.691 0 0 -4.395 -2.563 -4.395 z m 5.129 -8.789 2.563 0 0 -1.832 c 0 -0.914 -0.008 -1.75 -0.023 -2.523 z m -15.383 8.789 -5.125 -8.789 -5.129 8.789 z m 10.254 -17.578 7.309 0 c -0.555 -2.758 -1.887 -3.629 -5.03 -3.902 z m -30.762 0 l -2.305 -3.953 c -3.66 0.207 -5.141 0.996 -5.734 3.953 z m -5.125 8.789 l -3.238 -5.555 c -0.043 1.074 -0.059 2.309 -0.059 3.723 l 0 1.832 z m 15.379 26.367 -4.484 7.691 8.973 0 z m 10.254 0 -4.484 7.691 8.973 0 z m -26.898 6.621 -1.602 -2.746 c 0.293 1.316 0.785 2.18 1.602 2.746 z" fill="#fff" fill-opacity="0.05664488017429193"/></svg>