<svg xmlns="http://www.w3.org/2000/svg" viewBox="0 0 48 48"><defs><radialGradient id="thisWeirdIdNameFixesABug0" cx="24" cy="24" r="23.437" gradientUnits="userSpaceOnUse"><stop stop-color="#cdcdcd"/><stop offset="1" stop-color="#adadad"/></radialGradient></defs><path d="m 47.44 11.547 l 0 24.906 c 0 10.25 0 10.984 -10.984 10.984 l -24.902 0 c -10.988 0 -10.988 -0.734 -10.988 -10.984 l 0 -24.906 c 0 -10.25 0 -10.984 10.988 -10.984 l 24.902 0 c 10.984 0 10.984 0.734 10.984 10.984" fill="url(#thisWeirdIdNameFixesABug0)"/><!-- color: #cdcdcd --><path d="m 23.844 11 c -1.074 0 -2.098 0.094 -3 0.25 c -1.02 0.18 -1.715 0.438 -2.188 0.781 l 10.375 0 c -0.563 -0.383 -1.238 -0.672 -1.906 -0.781 c -1.078 -0.176 -2.211 -0.258 -3.281 -0.25 m 8.219 1.156 c -0.895 0.145 -1.398 0.824 -1.719 1.438 c -0.047 -0.121 -0.125 -0.227 -0.188 -0.344 c 0.199 0.375 0.344 0.777 0.344 1.219 l 0 0.938 c 1.258 0.516 1.957 -0.355 2.781 -1.406 l -1.344 0 c 0.398 -0.691 0.34 -1.113 0.125 -1.844 m -13.906 0.375 c -0.098 0.141 -0.156 0.277 -0.219 0.438 c 0.059 -0.156 0.125 -0.301 0.219 -0.438 m 2.969 0.625 c -0.441 0.473 -1.074 1.191 -1.531 1.719 c 0.219 0.227 0.535 0.375 0.875 0.375 c 0.648 0 1.156 -0.504 1.156 -1.156 c 0 -0.398 -0.207 -0.723 -0.5 -0.938 m -3.281 0.156 c -0.039 0.168 -0.078 0.344 -0.094 0.531 c 0.016 -0.188 0.055 -0.363 0.094 -0.531 m -0.125 2.688 l 0 0.844 l 6.281 0 l 0 0.781 l -8.625 0 c -1.82 0 -3.438 1.094 -3.938 3.156 c -0.578 2.363 -0.602 3.816 0 6.281 c 0.445 1.836 1.516 3.156 3.344 3.156 l 1.844 0 l 0 -3.125 c 0 -2.051 1.777 -3.875 3.906 -3.875 l 6.594 0 c 1.742 0 3.375 -1.422 3.375 -3.156 l 0 -4.063 m 0.875 1.625 l 0 2.75 c 0 2.137 -1.82 3.688 -3.906 3.688 l -6.875 0 c -1.715 0 -3.156 1.707 -3.156 3.406 l 0 5.156 c -1.246 -0.496 -1.957 0.328 -2.781 1.375 l 1.344 0 c -0.395 0.695 -0.34 1.141 -0.125 1.875 c 0.914 -0.148 1.465 -0.848 1.781 -1.469 c -0.129 -0.309 -0.188 -0.652 -0.188 -1.031 l 0 -1.344 l 12.781 0 l 0 -1.031 l -6.281 0 l 0 -0.781 l 9.406 0 c 1.82 0 2.492 -1.266 3.125 -3.156 c 0.656 -1.941 0.629 -3.789 0 -6.281 c -0.449 -1.793 -1.301 -3.156 -3.125 -3.156 m -15.719 16.781 c 0.23 0.543 0.672 0.965 1.188 1.313 c -0.508 -0.355 -0.926 -0.805 -1.156 -1.344 c -0.008 0.012 -0.023 0.02 -0.031 0.031 m 1.188 1.313 c 0.137 0.094 0.258 0.203 0.406 0.281 l 0.094 0 c -0.172 -0.094 -0.344 -0.172 -0.5 -0.281 m 0.5 0.281 c 0.391 0.211 0.801 0.398 1.25 0.531 c 1.984 0.578 4.156 0.68 6.531 0 c 0.465 -0.133 0.926 -0.309 1.344 -0.531 m -0.906 -3.5 c -0.691 0 -1.25 0.559 -1.25 1.25 c 0 0.359 0.164 0.676 0.406 0.906 l 1.594 -1.875 c -0.211 -0.164 -0.461 -0.281 -0.75 -0.281 m 2.594 1.563 c -0.086 0.336 -0.211 0.645 -0.406 0.906 c 0.191 -0.262 0.32 -0.574 0.406 -0.906 m -0.969 1.469 c -0.203 0.164 -0.449 0.309 -0.688 0.438 c 0.246 -0.133 0.48 -0.266 0.688 -0.438 m 0 0" fill="#fff"/><path d="m 38.27 47.44 c 2.543 -0.012 4.379 -0.082 5.711 -0.441 l -4.23 -7.25 -4.484 7.691 1.191 0 c 0.641 0 1.242 0 1.813 0 z m 1.48 -7.691 -5.125 -8.789 -5.129 8.789 z m 0 0 7.652 0 c 0.031 -0.973 0.039 -2.063 0.039 -3.297 l 0 -1.098 -2.563 -4.395 z m 5.129 -8.789 -5.129 -8.789 -5.125 8.789 z m 0 0 2.563 0 0 -4.395 z m -10.254 0 -5.129 -8.789 -5.125 8.789 z m -10.254 0 -5.129 8.789 10.254 0 z m 0 0 -5.129 -8.789 -5.125 8.789 z m -10.254 0 -5.129 8.789 10.254 0 z m 0 0 -5.129 -8.789 -5.125 8.789 z m -10.254 0 -3.297 5.648 c 0 1.168 0.012 2.211 0.039 3.141 l 8.383 0 z m 0 0 -3.297 -5.648 0 5.648 z m 5.125 8.789 -4.313 7.395 c 1.598 0.293 3.809 0.297 6.879 0.297 l 1.922 0 z m 0 -17.578 -5.125 -8.789 -3.297 5.648 0 3.141 z m 0 0 10.254 0 -5.125 -8.789 z m 5.129 -8.789 -5.129 -8.789 -5.125 8.789 z m 0 0 10.254 0 -5.129 -8.789 z m 5.125 -8.789 -2.352 -4.03 -5.336 0 c -0.078 0 -0.141 0 -0.215 0 l -2.352 4.03 z m 0 0 10.254 0 -2.352 -4.03 -5.551 0 z m 10.254 0 10.254 0 l -2.352 -4.03 c -0.313 0 -0.609 0 -0.941 0 l -4.609 0 z m 0 0 -5.125 8.789 10.254 0 z m 5.129 8.789 10.254 0 -5.129 -8.789 z m 0 0 -5.129 8.789 10.254 0 z m 5.125 8.789 7.691 0 0 -4.395 -2.563 -4.395 z m 5.129 -8.789 2.563 0 0 -1.832 c 0 -0.914 -0.008 -1.75 -0.023 -2.523 z m -15.383 8.789 -5.125 -8.789 -5.129 8.789 z m 10.254 -17.578 7.309 0 c -0.555 -2.758 -1.887 -3.629 -5.03 -3.902 z m -30.762 0 l -2.305 -3.953 c -3.66 0.207 -5.141 0.996 -5.734 3.953 z m -5.125 8.789 l -3.238 -5.555 c -0.043 1.074 -0.059 2.309 -0.059 3.723 l 0 1.832 z m 15.379 26.367 -4.484 7.691 8.973 0 z m 10.254 0 -4.484 7.691 8.973 0 z m -26.898 6.621 -1.602 -2.746 c 0.293 1.316 0.785 2.18 1.602 2.746 z" fill="#fff" fill-opacity="0.11830065359477124"/></svg>