<svg xmlns="http://www.w3.org/2000/svg" viewBox="0 0 48 48"><defs><radialGradient id="thisWeirdIdNameFixesABug0" cx="24" cy="24" r="23.437" gradientUnits="userSpaceOnUse"><stop stop-color="#eeeeee"/><stop offset="1" stop-color="#cecece"/></radialGradient></defs><path d="m 47.44 11.547 l 0 24.906 c 0 10.25 0 10.984 -10.984 10.984 l -24.902 0 c -10.988 0 -10.988 -0.734 -10.988 -10.984 l 0 -24.906 c 0 -10.25 0 -10.984 10.988 -10.984 l 24.902 0 c 10.984 0 10.984 0.734 10.984 10.984" fill="url(#thisWeirdIdNameFixesABug0)"/><!-- color: #eeeeee --><path d="m 23.875 27.719 c -0.023 0.016 -0.047 0.039 -0.063 0.063 c -0.012 0.008 -0.023 0.02 -0.031 0.031 c -0.016 0.027 -0.027 0.063 -0.031 0.094 c -0.004 0.02 -0.004 0.043 0 0.063 c -0.047 1.547 -0.055 3.078 0 4.344 c 0.027 0.633 0.07 1.199 0.125 1.656 c 0.055 0.457 0.121 0.789 0.219 1.031 c 0.16 0.383 0.418 0.992 0.969 1.438 c 0.551 0.445 1.387 0.711 2.594 0.469 c 0.988 -0.203 1.719 -0.527 2.219 -1.031 c 0.5 -0.504 0.75 -1.16 0.906 -2.031 c 0.227 -1.273 0.66 -4.715 0.719 -5.469 c 0.004 -0.02 0.004 -0.043 0 -0.063 c -0.004 -0.031 -0.016 -0.066 -0.031 -0.094 c -0.023 -0.039 -0.055 -0.07 -0.094 -0.094 c -0.027 -0.016 -0.063 -0.027 -0.094 -0.031 c -0.043 0 -0.086 0.012 -0.125 0.031 c -0.023 0.008 -0.043 0.02 -0.063 0.031 c -0.059 0.047 -0.09 0.113 -0.094 0.188 c -0.051 0.676 -0.469 4.18 -0.688 5.406 c -0.145 0.82 -0.406 1.371 -0.813 1.781 c -0.406 0.41 -1 0.68 -1.938 0.875 c -1.102 0.223 -1.746 0.012 -2.188 -0.344 c -0.441 -0.355 -0.66 -0.879 -0.813 -1.25 c -0.059 -0.141 -0.137 -0.469 -0.188 -0.906 c -0.051 -0.438 -0.098 -0.969 -0.125 -1.594 c -0.055 -1.246 -0.074 -2.809 -0.031 -4.344 c 0 -0.012 0 -0.02 0 -0.031 c -0.004 -0.059 -0.023 -0.113 -0.063 -0.156 c -0.02 -0.012 -0.039 -0.023 -0.063 -0.031 c -0.027 -0.016 -0.063 -0.027 -0.094 -0.031 c -0.039 -0.012 -0.086 -0.012 -0.125 0 m 0 0" fill="#fff"/><path d="m 16.06 11.375 c -1.313 0.074 -2.656 0.449 -3.625 1.438 c -0.969 0.988 -1.531 2.555 -1.406 4.938 c 0.027 0.543 0.227 1.738 0.563 3.188 c 0.336 1.449 0.793 3.16 1.375 4.688 c 0.582 1.527 1.285 2.867 2.094 3.625 c 0.402 0.379 0.852 0.613 1.344 0.594 c 0.492 -0.02 0.953 -0.316 1.406 -0.844 c 1.234 -1.438 2.375 -2.563 2.375 -2.563 c 0.027 -0.027 0.051 -0.059 0.063 -0.094 c 0.008 -0.031 0.008 -0.063 0 -0.094 c -0.004 -0.059 -0.023 -0.113 -0.063 -0.156 c -0.035 -0.031 -0.078 -0.055 -0.125 -0.063 c -0.039 -0.012 -0.086 -0.012 -0.125 0 c -0.031 0.004 -0.066 0.016 -0.094 0.031 c -0.012 0.008 -0.023 0.02 -0.031 0.031 c 0 0 -1.125 1.141 -2.375 2.594 c -0.398 0.461 -0.746 0.645 -1.063 0.656 c -0.316 0.012 -0.656 -0.148 -1 -0.469 c -0.688 -0.645 -1.367 -1.941 -1.938 -3.438 c -0.57 -1.496 -1.043 -3.191 -1.375 -4.625 c -0.332 -1.434 -0.508 -2.641 -0.531 -3.094 c -0.121 -2.293 0.43 -3.691 1.281 -4.563 c 0.852 -0.871 2.01 -1.211 3.25 -1.281 c 2.473 -0.137 5.063 0.875 5.063 0.875 c 0.031 0.008 0.063 0.008 0.094 0 c 0.031 0.008 0.063 0.008 0.094 0 c 0.051 -0.016 0.094 -0.051 0.125 -0.094 c 0.016 -0.027 0.027 -0.063 0.031 -0.094 c 0.012 -0.039 0.012 -0.086 0 -0.125 c -0.008 -0.023 -0.02 -0.043 -0.031 -0.063 c -0.023 -0.039 -0.055 -0.07 -0.094 -0.094 c -0.012 0 -0.02 0 -0.031 0 c 0 0 -2.625 -1.051 -5.25 -0.906 m 0 0" fill="#fff"/><path d="m 30.06 11 c -0.992 0.008 -1.844 0.148 -2.438 0.281 c -0.297 0.066 -0.539 0.141 -0.688 0.188 c -0.02 0.004 -0.016 0.027 -0.031 0.031 c -0.012 0.004 -0.023 -0.004 -0.031 0 c -0.02 0.008 -0.047 -0.004 -0.063 0 c -0.012 0.008 -0.023 0.02 -0.031 0.031 c -0.008 0.004 -0.023 -0.004 -0.031 0 c -0.004 0.004 -0.031 0.031 -0.031 0.031 c 0 0 -0.063 0.031 -0.063 0.031 c 0 0 0.031 0.375 0.031 0.375 c 0 0 0.156 0.031 0.156 0.031 c 0 0 0.055 0 0.063 0 c 0.016 -0.004 0.023 0.004 0.031 0 c 0 0 0.031 0 0.031 0 c 0.004 0 0.02 -0.027 0.031 -0.031 c 0.023 -0.008 0.047 -0.016 0.094 -0.031 c 0.133 -0.043 0.34 -0.094 0.625 -0.156 c 0.566 -0.129 1.398 -0.273 2.344 -0.281 c 1.891 -0.016 4.211 0.477 5.906 2.563 c 0.242 0.297 0.418 0.938 0.406 1.781 c -0.012 0.844 -0.188 1.898 -0.5 3.063 c -0.625 2.332 -1.836 5.07 -3.531 7.5 c -0.016 0.027 -0.027 0.063 -0.031 0.094 c -0.027 0.09 -0.004 0.184 0.063 0.25 c 0.02 0.012 0.039 0.023 0.063 0.031 c 0.027 0.016 0.063 0.027 0.094 0.031 c 0.043 0 0.086 -0.012 0.125 -0.031 c 0.023 -0.008 0.043 -0.02 0.063 -0.031 c 0.012 -0.008 0.023 -0.02 0.031 -0.031 c 1.734 -2.484 2.953 -5.297 3.594 -7.688 c 0.32 -1.195 0.516 -2.285 0.531 -3.188 c 0.016 -0.902 -0.121 -1.629 -0.5 -2.094 c -1.813 -2.23 -4.332 -2.766 -6.313 -2.75 m 0 0" fill="#fff"/><path d="m 24.656 11.313 c -1.625 -0.023 -2.871 0.457 -3.781 1.188 c -0.91 0.73 -1.496 1.688 -1.875 2.656 c -0.758 1.934 -0.688 3.875 -0.688 3.875 c 0 0.012 0 0.02 0 0.031 c 0.004 0.031 0.016 0.066 0.031 0.094 c 0.008 0.012 0.02 0.023 0.031 0.031 c 0.066 0.066 0.16 0.09 0.25 0.063 c 0.031 -0.004 0.066 -0.016 0.094 -0.031 c 0.051 -0.039 0.082 -0.094 0.094 -0.156 c 0.004 -0.02 0.004 -0.043 0 -0.063 c 0 0 -0.059 -1.836 0.656 -3.656 c 0.355 -0.91 0.895 -1.809 1.719 -2.469 c 0.824 -0.66 1.945 -1.086 3.469 -1.063 c 3.066 0.047 5.059 1.555 6.281 3.063 c 0.609 0.754 1.01 1.5 1.25 2.063 c 0.117 0.27 0.211 0.473 0.25 0.625 c -1.504 -0.18 -2.512 0.02 -3.03 0.594 c -0.559 0.617 -0.547 1.535 -0.313 2.438 c 0.234 0.902 0.707 1.82 1.125 2.594 c 0.211 0.387 0.402 0.754 0.563 1.031 c 0.16 0.277 0.277 0.484 0.313 0.563 c 0.234 0.551 0.539 0.926 0.781 1.219 c 0.207 0.25 0.316 0.414 0.375 0.531 c -0.098 0.031 -0.242 0.07 -0.438 0.156 c -0.207 0.09 -0.438 0.258 -0.594 0.531 c -0.156 0.273 -0.25 0.648 -0.219 1.156 c 0.008 0.168 0.102 0.309 0.219 0.406 c 0.117 0.098 0.25 0.172 0.406 0.219 c 0.316 0.094 0.73 0.129 1.156 0.125 c 0.852 -0.008 1.82 -0.176 2.469 -0.469 c 0.754 -0.336 1.352 -0.758 1.625 -1.156 c 0.066 -0.102 0.113 -0.215 0.125 -0.344 c 0.012 -0.129 -0.043 -0.262 -0.156 -0.344 c -0.223 -0.168 -0.496 -0.137 -0.875 -0.063 c -1.598 0.32 -2.422 0.188 -2.813 0.031 c -0.195 -0.078 -0.301 -0.164 -0.344 -0.219 c -0.043 -0.055 -0.031 -0.063 -0.031 -0.063 c -0.004 -0.008 0.004 -0.023 0 -0.031 c -0.008 -0.023 -0.02 -0.043 -0.031 -0.063 c -0.008 -0.012 -0.02 -0.023 -0.031 -0.031 c -0.004 -0.004 -0.027 0.004 -0.031 0 c 0 -0.012 0 -0.02 0 -0.031 c -0.004 -0.004 -0.027 0.004 -0.031 0 c -0.105 -0.219 -0.223 -0.434 -0.406 -0.656 c -0.23 -0.281 -0.477 -0.605 -0.688 -1.094 c -0.063 -0.148 -0.184 -0.348 -0.344 -0.625 c -0.16 -0.277 -0.355 -0.621 -0.563 -1 c -0.41 -0.758 -0.848 -1.672 -1.063 -2.5 c -0.215 -0.828 -0.203 -1.539 0.188 -1.969 c 0.391 -0.43 1.23 -0.691 2.875 -0.438 l 0.094 0 c 0.07 -0.016 0.125 -0.051 0.156 -0.094 c 0.031 -0.043 0.055 -0.098 0.063 -0.125 c 0.012 -0.055 0.004 -0.086 0 -0.125 c -0.004 -0.074 -0.008 -0.156 -0.031 -0.25 c -0.047 -0.191 -0.152 -0.418 -0.281 -0.719 c -0.262 -0.602 -0.699 -1.395 -1.344 -2.188 c -1.289 -1.59 -3.426 -3.199 -6.656 -3.25 m 7.906 15.656 c 0.102 0.098 0.203 0.199 0.406 0.281 c 0.531 0.215 1.441 0.297 3.094 -0.031 c 0.285 -0.055 0.387 -0.027 0.406 -0.031 c -0.008 0.016 -0.016 0.008 -0.031 0.031 c -0.16 0.234 -0.711 0.656 -1.406 0.969 c -0.535 0.238 -1.492 0.43 -2.281 0.438 c -0.395 0.004 -0.734 -0.055 -0.969 -0.125 c -0.117 -0.035 -0.211 -0.059 -0.25 -0.094 c -0.039 -0.035 -0.031 -0.047 -0.031 -0.063 c -0.027 -0.441 0.031 -0.711 0.125 -0.875 c 0.094 -0.164 0.23 -0.25 0.375 -0.313 c 0.145 -0.063 0.313 -0.102 0.469 -0.156 c 0.031 -0.012 0.063 -0.016 0.094 -0.031 m 0 0" fill="#fff"/><path d="m 22.813 26.625 c -0.195 0.016 -0.387 0.168 -0.594 0.344 c -0.016 0.016 -0.047 -0.016 -0.063 0 c -0.012 0.008 -0.023 0.02 -0.031 0.031 c -0.008 0.008 -0.023 -0.008 -0.031 0 c -0.012 0.008 -0.023 0.02 -0.031 0.031 c -0.012 0 -0.02 0 -0.031 0 c 0 0.012 0 0.02 0 0.031 c -0.016 0.016 -0.016 0.016 -0.031 0.031 c -0.398 0.441 -0.578 0.723 -0.781 0.875 c -0.215 0.164 -0.535 0.293 -1.406 0.469 c -0.461 0.09 -0.77 0.184 -0.969 0.344 c -0.102 0.078 -0.191 0.188 -0.219 0.313 c -0.027 0.125 0.008 0.25 0.063 0.344 c 0.109 0.191 0.281 0.309 0.469 0.406 c 0.188 0.098 0.402 0.172 0.594 0.219 c 0.43 0.105 1.145 0.223 1.938 0.094 c 0.793 -0.129 1.66 -0.543 2.344 -1.469 c 0.258 -0.348 0.234 -0.762 0.094 -1.125 c -0.141 -0.363 -0.398 -0.703 -0.75 -0.844 c -0.133 -0.051 -0.32 -0.113 -0.563 -0.094 m 0.031 0.5 c 0.109 -0.008 0.211 0.012 0.344 0.063 c 0.184 0.074 0.406 0.285 0.5 0.531 c 0.094 0.246 0.074 0.504 -0.063 0.688 c -0.605 0.82 -1.34 1.137 -2.031 1.25 c -0.691 0.113 -1.324 0 -1.719 -0.094 c -0.148 -0.035 -0.324 -0.082 -0.469 -0.156 c -0.145 -0.074 -0.262 -0.188 -0.281 -0.219 c -0.004 0.012 -0.008 0 0.031 -0.031 c 0.078 -0.063 0.324 -0.164 0.75 -0.25 c 0.887 -0.176 1.309 -0.293 1.625 -0.531 c 0.293 -0.223 0.445 -0.527 0.813 -0.938 c 0.027 -0.027 0.035 -0.031 0.063 -0.063 c 0.016 -0.02 0.016 -0.016 0.031 -0.031 c 0.168 -0.168 0.309 -0.211 0.406 -0.219 m 0 0" fill="#fff"/><path d="m 20.656 17.688 c -0.582 0.129 -1.145 0.371 -1.563 0.594 c -0.207 0.113 -0.367 0.211 -0.5 0.313 c -0.066 0.051 -0.141 0.102 -0.188 0.156 c -0.047 0.055 -0.09 0.113 -0.094 0.25 c 0 0.23 0.047 0.676 0.063 1.313 c 0.016 0.637 0 1.445 -0.125 2.313 c -0.344 2.375 1.508 4.395 3.719 4.313 c 0 0.098 -0.078 0.215 -0.063 0.313 c 0.012 0.035 0.035 0.066 0.063 0.094 c 0.008 0.012 0.02 0.023 0.031 0.031 c 0.008 0.012 0.02 0.023 0.031 0.031 c 0.027 0.016 0.063 0.027 0.094 0.031 c 0.039 0.012 0.086 0.012 0.125 0 c 0.023 -0.008 0.043 -0.02 0.063 -0.031 c 0.023 -0.016 0.047 -0.039 0.063 -0.063 c 0.012 -0.02 0.023 -0.039 0.031 -0.063 c 0.008 -0.031 0.008 -0.063 0 -0.094 c 0 -0.012 0 -0.02 0 -0.031 c -0.07 -0.449 0.172 -1.098 0.469 -1.875 c 0.418 -1.09 1.523 -2.391 0.688 -6.125 c -0.168 -0.75 -0.613 -1.234 -1.156 -1.438 c -0.543 -0.203 -1.168 -0.16 -1.75 -0.031 m 0.094 0.5 c 0.527 -0.117 1.063 -0.152 1.469 0 c 0.406 0.152 0.703 0.441 0.844 1.063 c 0.813 3.625 -0.184 4.645 -0.656 5.875 c -0.188 0.484 -0.223 0.91 -0.313 1.344 c -1.957 0.16 -3.684 -1.645 -3.375 -3.781 c 0.133 -0.902 0.172 -1.723 0.156 -2.375 c -0.016 -0.621 -0.059 -1.078 -0.063 -1.25 c 0 -0.004 0 -0.027 0 -0.031 c 0.016 -0.016 0.039 -0.012 0.063 -0.031 c 0.098 -0.078 0.281 -0.18 0.469 -0.281 c 0.379 -0.203 0.879 -0.414 1.406 -0.531 m 0 0" fill="#fff"/><path d="m 21.344 18.563 c -0.078 0.02 -0.176 0.043 -0.25 0.094 c -0.074 0.051 -0.141 0.129 -0.156 0.25 l 0.5 0.063 c 0 0.012 0.004 0.02 0 0.031 l -0.031 0 l -0.469 -0.094 c -0.027 0.133 0.023 0.203 0.063 0.281 c 0.039 0.078 0.09 0.148 0.156 0.219 c 0.137 0.137 0.32 0.281 0.563 0.313 c 0.242 0.035 0.469 -0.055 0.625 -0.156 c 0.078 -0.051 0.137 -0.125 0.188 -0.188 c 0.051 -0.063 0.105 -0.113 0.125 -0.219 c 0.02 -0.121 -0.035 -0.246 -0.094 -0.313 c -0.059 -0.066 -0.117 -0.086 -0.188 -0.125 c -0.141 -0.078 -0.305 -0.129 -0.5 -0.156 c -0.195 -0.027 -0.375 -0.035 -0.531 0 m 0.156 0.5 c 0.078 -0.012 0.164 -0.016 0.281 0 c 0.121 0.016 0.211 0.063 0.281 0.094 c -0.078 0.051 -0.184 0.074 -0.281 0.063 c -0.102 -0.016 -0.207 -0.082 -0.281 -0.156 m 0 0" fill="#fff"/><path d="m 30.813 18.406 c -0.184 0.023 -0.344 0.09 -0.469 0.156 c -0.063 0.031 -0.113 0.074 -0.156 0.125 c -0.043 0.051 -0.074 0.113 -0.063 0.188 c 0.016 0.066 0.051 0.105 0.094 0.156 c 0.043 0.051 0.121 0.113 0.188 0.156 c 0.133 0.09 0.324 0.176 0.531 0.156 l 0 -0.031 c 0.207 -0.027 0.379 -0.129 0.5 -0.25 c 0.059 -0.063 0.09 -0.121 0.125 -0.188 c 0.035 -0.066 0.082 -0.137 0.063 -0.219 l -0.031 0 c -0.016 -0.063 -0.047 -0.125 -0.094 -0.156 c -0.055 -0.035 -0.117 -0.047 -0.188 -0.063 c -0.137 -0.031 -0.316 -0.055 -0.5 -0.031 m 0.031 0.25 c 0.156 -0.023 0.309 0.008 0.406 0.031 c 0.047 0.012 0.078 0.02 0.094 0.031 c 0 0.008 0.008 0.012 0 0.031 c -0.02 0.035 -0.051 0.078 -0.094 0.125 c -0.09 0.09 -0.207 0.199 -0.344 0.219 l 0 -0.031 c -0.137 0.016 -0.277 -0.031 -0.375 -0.094 c -0.047 -0.031 -0.098 -0.063 -0.125 -0.094 c -0.012 -0.012 0.008 -0.02 0 -0.031 c 0.012 -0.016 0.02 -0.039 0.063 -0.063 c 0.086 -0.047 0.219 -0.102 0.375 -0.125 m 0 0" fill="#fff"/><path d="m 32.656 17.563 c -0.012 0.008 -0.023 0.02 -0.031 0.031 c -0.031 0.004 -0.066 0.016 -0.094 0.031 c -0.066 0.051 -0.102 0.133 -0.094 0.219 c 0.043 0.945 -0.211 1.621 -0.25 2.719 c -0.023 0.816 0.176 1.645 0.219 2.469 c 0.043 0.824 -0.051 1.641 -0.625 2.469 c -0.059 0.086 -0.059 0.195 0 0.281 c 0.008 0.012 0.02 0.023 0.031 0.031 c 0.008 0.012 0.02 0.023 0.031 0.031 c 0.027 0.016 0.063 0.027 0.094 0.031 c 0.039 0.012 0.086 0.012 0.125 0 c 0.051 -0.016 0.094 -0.051 0.125 -0.094 c 0.645 -0.938 0.766 -1.898 0.719 -2.781 c -0.047 -0.883 -0.242 -1.715 -0.219 -2.438 c 0.039 -1.02 0.301 -1.703 0.25 -2.75 c 0.004 -0.02 0.004 -0.043 0 -0.063 c -0.008 -0.023 -0.02 -0.043 -0.031 -0.063 c -0.023 -0.039 -0.055 -0.07 -0.094 -0.094 c -0.027 -0.016 -0.063 -0.027 -0.094 -0.031 c -0.02 -0.004 -0.043 -0.004 -0.063 0 m 0 0" fill="#fff"/><path d="m 38.27 47.44 c 2.543 -0.012 4.379 -0.082 5.711 -0.441 l -4.23 -7.25 -4.484 7.691 1.191 0 c 0.641 0 1.242 0 1.813 0 z m 1.48 -7.691 -5.125 -8.789 -5.129 8.789 z m 0 0 7.652 0 c 0.031 -0.973 0.039 -2.063 0.039 -3.297 l 0 -1.098 -2.563 -4.395 z m 5.129 -8.789 -5.129 -8.789 -5.125 8.789 z m 0 0 2.563 0 0 -4.395 z m -10.254 0 -5.129 -8.789 -5.125 8.789 z m -10.254 0 -5.129 8.789 10.254 0 z m 0 0 -5.129 -8.789 -5.125 8.789 z m -10.254 0 -5.129 8.789 10.254 0 z m 0 0 -5.129 -8.789 -5.125 8.789 z m -10.254 0 -3.297 5.648 c 0 1.168 0.012 2.211 0.039 3.141 l 8.383 0 z m 0 0 -3.297 -5.648 0 5.648 z m 5.125 8.789 -4.313 7.395 c 1.598 0.293 3.809 0.297 6.879 0.297 l 1.922 0 z m 0 -17.578 -5.125 -8.789 -3.297 5.648 0 3.141 z m 0 0 10.254 0 -5.125 -8.789 z m 5.129 -8.789 -5.129 -8.789 -5.125 8.789 z m 0 0 10.254 0 -5.129 -8.789 z m 5.125 -8.789 -2.352 -4.03 -5.336 0 c -0.078 0 -0.141 0 -0.215 0 l -2.352 4.03 z m 0 0 10.254 0 -2.352 -4.03 -5.551 0 z m 10.254 0 10.254 0 l -2.352 -4.03 c -0.313 0 -0.609 0 -0.941 0 l -4.609 0 z m 0 0 -5.125 8.789 10.254 0 z m 5.129 8.789 10.254 0 -5.129 -8.789 z m 0 0 -5.129 8.789 10.254 0 z m 5.125 8.789 7.691 0 0 -4.395 -2.563 -4.395 z m 5.129 -8.789 2.563 0 0 -1.832 c 0 -0.914 -0.008 -1.75 -0.023 -2.523 z m -15.383 8.789 -5.125 -8.789 -5.129 8.789 z m 10.254 -17.578 7.309 0 c -0.555 -2.758 -1.887 -3.629 -5.03 -3.902 z m -30.762 0 l -2.305 -3.953 c -3.66 0.207 -5.141 0.996 -5.734 3.953 z m -5.125 8.789 l -3.238 -5.555 c -0.043 1.074 -0.059 2.309 -0.059 3.723 l 0 1.832 z m 15.379 26.367 -4.484 7.691 8.973 0 z m 10.254 0 -4.484 7.691 8.973 0 z m -26.898 6.621 -1.602 -2.746 c 0.293 1.316 0.785 2.18 1.602 2.746 z" fill="#fff" fill-opacity="0.13986928104575164"/></svg>