<svg xmlns="http://www.w3.org/2000/svg" viewBox="0 0 48 48"><defs><radialGradient id="thisWeirdIdNameFixesABug0" cx="24" cy="24" r="23.437" gradientUnits="userSpaceOnUse"><stop stop-color="#df61be"/><stop offset="1" stop-color="#bf419e"/></radialGradient></defs><path d="m 47.44 11.547 l 0 24.906 c 0 10.25 0 10.984 -10.984 10.984 l -24.902 0 c -10.988 0 -10.988 -0.734 -10.988 -10.984 l 0 -24.906 c 0 -10.25 0 -10.984 10.988 -10.984 l 24.902 0 c 10.984 0 10.984 0.734 10.984 10.984" fill="url(#thisWeirdIdNameFixesABug0)"/><!-- color: #df61be --><path d="m 31.25 15 c -0.184 0.02 -0.379 0.086 -0.488 0.145 c -0.145 0.07 -0.168 0.137 -0.234 0.219 c -0.129 0.16 -0.195 0.355 -0.273 0.582 c -0.148 0.453 -0.305 1.066 -0.391 1.82 c -0.164 1.504 -0.281 3.488 -0.371 5.5 c -0.082 2.01 -0.176 4.02 -0.391 5.516 c -0.105 0.75 -0.223 1.414 -0.391 1.82 c -0.02 0.051 -0.094 0.035 -0.117 0.074 c -0.148 -0.313 -0.297 -0.793 -0.387 -1.383 c -0.188 -1.184 -0.203 -2.754 -0.273 -4.352 c -0.074 -1.602 -0.203 -3.207 -0.391 -4.426 c -0.098 -0.609 -0.211 -1.141 -0.391 -1.531 c -0.094 -0.195 -0.188 -0.363 -0.352 -0.508 c -0.172 -0.145 -0.379 -0.293 -0.781 -0.293 c -0.313 0 -0.703 0.109 -0.902 0.219 c -0.195 0.109 -0.281 0.227 -0.391 0.363 c -0.211 0.281 -0.289 0.617 -0.391 1.023 c -0.195 0.809 -0.32 1.852 -0.391 2.895 c -0.066 1.039 -0.098 2.09 -0.273 2.84 c -0.09 0.375 -0.266 0.699 -0.391 0.875 c -0.066 0.086 -0.094 0.129 -0.117 0.145 c -0.027 0 -0.074 -0.043 -0.117 -0.074 c -0.074 -0.051 -0.203 -0.191 -0.277 -0.363 c -0.145 -0.34 -0.223 -0.859 -0.273 -1.383 c -0.047 -0.527 -0.008 -1.078 -0.234 -1.531 c -0.113 -0.223 -0.258 -0.41 -0.547 -0.582 c -0.289 -0.172 -0.828 -0.285 -1.289 -0.273 c -0.559 0.023 -0.898 0.242 -1.133 0.492 c -0.23 0.25 -0.426 0.539 -0.527 0.875 c -0.199 0.676 -0.199 1.563 -0.254 2.402 c -0.051 0.844 -0.109 1.656 -0.273 2.238 c -0.074 0.266 -0.27 0.461 -0.371 0.586 c -0.035 -0.051 -0.098 -0.07 -0.137 -0.148 c -0.148 -0.297 -0.289 -0.746 -0.391 -1.309 c -0.199 -1.125 -0.285 -2.617 -0.371 -4.133 c -0.09 -1.52 -0.094 -3.055 -0.273 -4.207 c -0.094 -0.578 -0.223 -1.07 -0.391 -1.441 c -0.086 -0.184 -0.242 -0.297 -0.391 -0.434 c -0.152 -0.141 -0.332 -0.367 -0.746 -0.367 c -0.387 0 -0.781 0.164 -0.934 0.293 c -0.156 0.129 -0.152 0.27 -0.234 0.438 c -0.172 0.336 -0.297 0.77 -0.391 1.293 c -0.188 1.043 -0.293 2.406 -0.391 3.77 c -0.102 1.363 -0.191 2.715 -0.391 3.715 c -0.102 0.496 -0.25 0.895 -0.391 1.145 c -0.086 -0.129 -0.324 -0.281 -0.391 -0.508 c -0.164 -0.57 -0.191 -1.297 -0.273 -2.094 c -0.082 -0.801 -0.129 -1.625 -0.352 -2.258 c -0.113 -0.316 -0.313 -0.625 -0.547 -0.855 c -0.234 -0.234 -0.633 -0.438 -1.172 -0.438 c -0.27 0 -0.52 0.07 -0.703 0.164 c 0.023 1.969 0 3.441 0 3.441 c 0 0 0.203 -0.375 0.352 -1.441 c 0.074 -0.527 0.102 -0.945 0.234 -1.219 c 0.047 -0.094 0.113 -0.172 0.156 -0.219 c 0.016 0.008 0.066 0.023 0.117 0.074 c 0.117 0.117 0.137 0.359 0.234 0.637 c 0.195 0.559 0.309 1.316 0.391 2.113 c 0.082 0.797 0.211 1.605 0.391 2.238 c 0.09 0.32 0.195 0.57 0.391 0.801 c 0.098 0.121 0.211 0.277 0.391 0.363 c 0.18 0.094 0.391 0.141 0.664 0.148 c 0.375 0 0.73 -0.156 0.898 -0.293 c 0.168 -0.129 0.297 -0.27 0.391 -0.438 c 0.184 -0.328 0.285 -0.766 0.391 -1.293 c 0.207 -1.035 0.289 -2.352 0.391 -3.715 c 0.098 -1.363 0.207 -2.762 0.391 -3.77 c 0.07 -0.402 0.133 -0.688 0.23 -0.945 c 0.109 0.293 0.32 0.695 0.391 1.164 c 0.176 1.117 0.309 2.617 0.391 4.137 c 0.094 1.516 0.184 3.043 0.391 4.203 c 0.105 0.586 0.203 1.086 0.391 1.457 c 0.098 0.191 0.227 0.297 0.391 0.438 c 0.168 0.145 0.367 0.355 0.762 0.363 c 0.559 0.023 1.066 -0.266 1.289 -0.508 c 0.227 -0.238 0.297 -0.543 0.391 -0.875 c 0.188 -0.66 0.336 -1.469 0.391 -2.313 c 0.055 -0.84 0.055 -1.656 0.234 -2.258 c 0.09 -0.297 0.152 -0.523 0.277 -0.656 c 0.117 -0.129 0.246 -0.145 0.273 -0.145 c 0.145 0 0.152 0.027 0.234 0.074 c 0.078 0.047 0.188 0.129 0.273 0.289 c 0.164 0.324 0.223 0.863 0.273 1.383 c 0.047 0.523 0.043 1.082 0.234 1.531 c 0.098 0.227 0.254 0.406 0.512 0.582 c 0.254 0.18 0.715 0.273 1.172 0.273 c 0.313 0 0.586 -0.031 0.781 -0.145 c 0.188 -0.109 0.289 -0.277 0.391 -0.418 c 0.195 -0.277 0.297 -0.617 0.391 -1.02 c 0.184 -0.809 0.324 -1.875 0.391 -2.914 c 0.063 -1.039 0.043 -2.074 0.234 -2.824 c 0.09 -0.371 0.254 -0.625 0.387 -0.801 c 0.035 0.047 0.125 0.082 0.156 0.145 c 0.145 0.313 0.301 0.797 0.391 1.387 c 0.188 1.18 0.164 2.75 0.234 4.352 c 0.074 1.598 0.199 3.207 0.391 4.422 c 0.094 0.613 0.207 1.145 0.391 1.531 c 0.09 0.195 0.227 0.352 0.391 0.5 c 0.164 0.145 0.488 0.289 0.898 0.289 c 0.238 0 0.383 -0.074 0.527 -0.145 c 0.148 -0.074 0.293 -0.117 0.371 -0.207 c 0.16 -0.168 0.297 -0.344 0.391 -0.582 c 0.195 -0.473 0.281 -1.129 0.391 -1.895 c 0.219 -1.527 0.285 -3.578 0.371 -5.59 c 0.09 -2.01 0.23 -4.02 0.391 -5.5 c 0.063 -0.555 0.051 -0.934 0.137 -1.313 c 0.125 0.449 0.285 0.969 0.371 1.66 c 0.203 1.621 0.441 3.801 0.547 5.953 c 0.105 2.152 0.199 4.34 0.391 5.953 c 0.098 0.813 0.234 1.461 0.391 1.957 c 0.078 0.242 0.109 0.414 0.234 0.582 c 0.066 0.082 0.145 0.207 0.273 0.293 c 0.133 0.074 0.352 0.152 0.625 0.145 c 0.383 -0.023 0.633 -0.16 0.781 -0.293 c 0.148 -0.133 0.305 -0.273 0.391 -0.438 c 0.172 -0.336 0.289 -0.773 0.391 -1.297 c 0.203 -1.031 0.281 -2.434 0.391 -3.789 c 0.109 -1.348 0.195 -2.695 0.391 -3.695 c 0.098 -0.496 0.258 -0.883 0.391 -1.148 c 0.078 0.129 0.176 0.207 0.234 0.418 c 0.16 0.566 0.195 1.383 0.273 2.188 c 0.082 0.805 0.168 1.598 0.391 2.238 c 0.109 0.328 0.27 0.645 0.508 0.875 c 0.152 0.16 0.422 0.285 0.742 0.363 l 0 -1.512 c -0.168 -0.555 -0.277 -1.289 -0.352 -2.039 c -0.082 -0.801 -0.211 -1.555 -0.391 -2.184 c -0.09 -0.316 -0.191 -0.629 -0.391 -0.855 c -0.102 -0.117 -0.199 -0.203 -0.391 -0.293 c -0.191 -0.09 -0.469 -0.152 -0.742 -0.145 c -0.387 0 -0.633 0.16 -0.781 0.289 c -0.148 0.133 -0.188 0.27 -0.273 0.438 c -0.172 0.336 -0.289 0.777 -0.391 1.293 c -0.203 1.039 -0.398 2.418 -0.508 3.77 c -0.109 1.355 -0.195 2.715 -0.391 3.715 c -0.07 0.379 -0.18 0.605 -0.273 0.863 c -0.137 -0.441 -0.301 -1.039 -0.391 -1.809 c -0.188 -1.59 -0.285 -3.727 -0.391 -5.879 c -0.105 -2.156 -0.148 -4.309 -0.352 -5.957 c -0.102 -0.82 -0.223 -1.508 -0.391 -2.02 c -0.082 -0.254 -0.145 -0.48 -0.273 -0.656 c -0.066 -0.09 -0.16 -0.141 -0.277 -0.219 c -0.113 -0.078 -0.363 -0.191 -0.625 -0.219 c -0.063 -0.004 -0.113 -0.008 -0.172 0" fill="#fff"/><path d="m 38.27 47.44 c 2.543 -0.012 4.379 -0.082 5.711 -0.441 l -4.23 -7.25 -4.484 7.691 1.191 0 c 0.641 0 1.242 0 1.813 0 z m 1.48 -7.691 -5.125 -8.789 -5.129 8.789 z m 0 0 7.652 0 c 0.031 -0.973 0.039 -2.063 0.039 -3.297 l 0 -1.098 -2.563 -4.395 z m 5.129 -8.789 -5.129 -8.789 -5.125 8.789 z m 0 0 2.563 0 0 -4.395 z m -10.254 0 -5.129 -8.789 -5.125 8.789 z m -10.254 0 -5.129 8.789 10.254 0 z m 0 0 -5.129 -8.789 -5.125 8.789 z m -10.254 0 -5.129 8.789 10.254 0 z m 0 0 -5.129 -8.789 -5.125 8.789 z m -10.254 0 -3.297 5.648 c 0 1.168 0.012 2.211 0.039 3.141 l 8.383 0 z m 0 0 -3.297 -5.648 0 5.648 z m 5.125 8.789 -4.313 7.395 c 1.598 0.293 3.809 0.297 6.879 0.297 l 1.922 0 z m 0 -17.578 -5.125 -8.789 -3.297 5.648 0 3.141 z m 0 0 10.254 0 -5.125 -8.789 z m 5.129 -8.789 -5.129 -8.789 -5.125 8.789 z m 0 0 10.254 0 -5.129 -8.789 z m 5.125 -8.789 -2.352 -4.03 -5.336 0 c -0.078 0 -0.141 0 -0.215 0 l -2.352 4.03 z m 0 0 10.254 0 -2.352 -4.03 -5.551 0 z m 10.254 0 10.254 0 l -2.352 -4.03 c -0.313 0 -0.609 0 -0.941 0 l -4.609 0 z m 0 0 -5.125 8.789 10.254 0 z m 5.129 8.789 10.254 0 -5.129 -8.789 z m 0 0 -5.129 8.789 10.254 0 z m 5.125 8.789 7.691 0 0 -4.395 -2.563 -4.395 z m 5.129 -8.789 2.563 0 0 -1.832 c 0 -0.914 -0.008 -1.75 -0.023 -2.523 z m -15.383 8.789 -5.125 -8.789 -5.129 8.789 z m 10.254 -17.578 7.309 0 c -0.555 -2.758 -1.887 -3.629 -5.03 -3.902 z m -30.762 0 l -2.305 -3.953 c -3.66 0.207 -5.141 0.996 -5.734 3.953 z m -5.125 8.789 l -3.238 -5.555 c -0.043 1.074 -0.059 2.309 -0.059 3.723 l 0 1.832 z m 15.379 26.367 -4.484 7.691 8.973 0 z m 10.254 0 -4.484 7.691 8.973 0 z m -26.898 6.621 -1.602 -2.746 c 0.293 1.316 0.785 2.18 1.602 2.746 z" fill="#fff" fill-opacity="0.09542483660130718"/></svg>