<svg xmlns="http://www.w3.org/2000/svg" viewBox="0 0 48 48"><defs><radialGradient id="0" cx="24" cy="24" r="23.437" gradientUnits="userSpaceOnUse"><stop stop-color="#606034"/><stop offset="1" stop-color="#404014"/></radialGradient><clipPath id="1"><path d="m 13 16 l 8.66 0 l 0 2.25 l -8.66 0 m 0 0 l 2.738 0 l 0 4.137 l -2.738 0 m 0 0 l 8.258 0 l 0 2.25 l -8.258 0 m 0 0 l 2.738 0 l 0 6.363 l -2.738 0 m 0 -6.363"/></clipPath><clipPath id="2"><path d="m 22 20 l 15 0 l 0 11 l -15 0 m 0 -11"/></clipPath><clipPath id="3"><path d="m 34.383 20.16 l -1.113 4.805 c -0.266 1.27 -0.492 2.449 -0.656 3.629 l -0.043 0 c -0.227 -1.18 -0.492 -2.359 -0.805 -3.629 l -1.254 -4.805 l -2.063 0 l -1.297 4.941 c -0.289 1.113 -0.621 2.313 -0.828 3.492 l -0.039 0 c -0.188 -1.18 -0.414 -2.359 -0.641 -3.516 l -1.051 -4.918 l -2.594 0 l 2.965 10.836 l 2.371 0 l 1.277 -4.406 c 0.289 -1.066 0.555 -2.137 0.762 -3.473 l 0.043 0 c 0.227 1.313 0.453 2.336 0.762 3.473 l 1.195 4.406 l 2.348 0 l 3.156 -10.836 m -2.496 0"/></clipPath></defs><path d="m 47.44 11.547 l 0 24.906 c 0 10.25 0 10.984 -10.984 10.984 l -24.902 0 c -10.988 0 -10.988 -0.734 -10.988 -10.984 l 0 -24.906 c 0 -10.25 0 -10.984 10.988 -10.984 l 24.902 0 c 10.984 0 10.984 0.734 10.984 10.984" fill="url(#0)"/><g clip-path="url(#1)"><path d="m 13 16 l 0 15 l 2.738 0 l 0 -6.363 l 5.52 0 l 0 -2.25 l -5.52 0 l 0 -4.137 l 5.922 0 l 0 -2.25 m -8.66 0" fill="#fff"/></g><g clip-path="url(#2)"><g clip-path="url(#3)"><path d="m 34.383 20.16 l -1.113 4.805 c -0.266 1.27 -0.492 2.449 -0.656 3.629 l -0.043 0 c -0.227 -1.18 -0.492 -2.359 -0.805 -3.629 l -1.254 -4.805 l -2.063 0 l -1.297 4.941 c -0.289 1.113 -0.621 2.313 -0.828 3.492 l -0.039 0 c -0.188 -1.18 -0.414 -2.359 -0.641 -3.516 l -1.051 -4.918 l -2.594 0 l 2.965 10.836 l 2.371 0 l 1.277 -4.406 c 0.289 -1.066 0.555 -2.137 0.762 -3.473 l 0.043 0 c 0.227 1.313 0.453 2.336 0.762 3.473 l 1.195 4.406 l 2.348 0 l 3.156 -10.836 m -2.496 0" fill="#fff"/></g></g><path d="m 38.27 47.44 c 2.543 -0.012 4.379 -0.082 5.711 -0.441 l -4.23 -7.25 -4.484 7.691 1.191 0 c 0.641 0 1.242 0 1.813 0 z m 1.48 -7.691 -5.125 -8.789 -5.129 8.789 z m 0 0 7.652 0 c 0.031 -0.973 0.039 -2.063 0.039 -3.297 l 0 -1.098 -2.563 -4.395 z m 5.129 -8.789 -5.129 -8.789 -5.125 8.789 z m 0 0 2.563 0 0 -4.395 z m -10.254 0 -5.129 -8.789 -5.125 8.789 z m -10.254 0 -5.129 8.789 10.254 0 z m 0 0 -5.129 -8.789 -5.125 8.789 z m -10.254 0 -5.129 8.789 10.254 0 z m 0 0 -5.129 -8.789 -5.125 8.789 z m -10.254 0 -3.297 5.648 c 0 1.168 0.012 2.211 0.039 3.141 l 8.383 0 z m 0 0 -3.297 -5.648 0 5.648 z m 5.125 8.789 -4.313 7.395 c 1.598 0.293 3.809 0.297 6.879 0.297 l 1.922 0 z m 0 -17.578 -5.125 -8.789 -3.297 5.648 0 3.141 z m 0 0 10.254 0 -5.125 -8.789 z m 5.129 -8.789 -5.129 -8.789 -5.125 8.789 z m 0 0 10.254 0 -5.129 -8.789 z m 5.125 -8.789 -2.352 -4.03 -5.336 0 c -0.078 0 -0.141 0 -0.215 0 l -2.352 4.03 z m 0 0 10.254 0 -2.352 -4.03 -5.551 0 z m 10.254 0 10.254 0 l -2.352 -4.03 c -0.313 0 -0.609 0 -0.941 0 l -4.609 0 z m 0 0 -5.125 8.789 10.254 0 z m 5.129 8.789 10.254 0 -5.129 -8.789 z m 0 0 -5.129 8.789 10.254 0 z m 5.125 8.789 7.691 0 0 -4.395 -2.563 -4.395 z m 5.129 -8.789 2.563 0 0 -1.832 c 0 -0.914 -0.008 -1.75 -0.023 -2.523 z m -15.383 8.789 -5.125 -8.789 -5.129 8.789 z m 10.254 -17.578 7.309 0 c -0.555 -2.758 -1.887 -3.629 -5.03 -3.902 z m -30.762 0 l -2.305 -3.953 c -3.66 0.207 -5.141 0.996 -5.734 3.953 z m -5.125 8.789 l -3.238 -5.555 c -0.043 1.074 -0.059 2.309 -0.059 3.723 l 0 1.832 z m 15.379 26.367 -4.484 7.691 8.973 0 z m 10.254 0 -4.484 7.691 8.973 0 z m -26.898 6.621 -1.602 -2.746 c 0.293 1.316 0.785 2.18 1.602 2.746 z" fill="#fff" fill-opacity="0.037"/></svg>