<svg xmlns="http://www.w3.org/2000/svg" viewBox="0 0 48 48"><defs><radialGradient id="0" cx="24" cy="24" r="23.437" gradientUnits="userSpaceOnUse"><stop stop-color="#48428a"/><stop offset="1" stop-color="#28226a"/></radialGradient><clipPath id="1"><path d="m 26 20 l 10 0 l 0 12 l -10 0 m 0 -12"/></clipPath><clipPath id="2"><path d="m 26.13 25.824 c 0 3.266 1.988 5.41 5.367 5.41 c 1.5 0 2.738 -0.309 3.637 -0.68 l -0.383 -1.859 c -0.793 0.305 -1.668 0.48 -2.887 0.48 c -1.672 0 -3.148 -0.832 -3.211 -2.758 l 6.977 0 c 0.043 -0.242 0.082 -0.637 0.082 -1.141 c 0 -2.344 -1.09 -5.188 -4.492 -5.188 c -3.336 0 -5.09 2.773 -5.09 5.727 m 4.941 -3.895 c 1.754 0 2.184 1.617 2.16 2.605 l -4.578 0 c 0.105 -1.098 0.793 -2.605 2.418 -2.605"/></clipPath></defs><path d="m 47.44 11.547 l 0 24.906 c 0 10.25 0 10.984 -10.984 10.984 l -24.902 0 c -10.988 0 -10.988 -0.734 -10.988 -10.984 l 0 -24.906 c 0 -10.25 0 -10.984 10.988 -10.984 l 24.902 0 c 10.984 0 10.984 0.734 10.984 10.984" fill="url(#0)"/><path d="m 17.12 16.234 l -4.621 14.758 l 2.719 0 l 1.238 -4.18 l 4.578 0 l 1.305 4.18 l 2.824 0 l -4.684 -14.758 m -2.48 4.906 c 0.254 -0.875 0.473 -1.906 0.684 -2.762 l 0.043 0 c 0.211 0.855 0.449 1.859 0.727 2.762 l 1.133 3.633 l -3.699 0 m 1.113 -3.633" fill="#fff"/><g clip-path="url(#1)"><g clip-path="url(#2)"><path d="m 26.13 25.824 c 0 3.266 1.988 5.41 5.367 5.41 c 1.5 0 2.738 -0.309 3.637 -0.68 l -0.383 -1.859 c -0.793 0.305 -1.668 0.48 -2.887 0.48 c -1.672 0 -3.148 -0.832 -3.211 -2.758 l 6.977 0 c 0.043 -0.242 0.082 -0.637 0.082 -1.141 c 0 -2.344 -1.09 -5.188 -4.492 -5.188 c -3.336 0 -5.09 2.773 -5.09 5.727 m 4.941 -3.895 c 1.754 0 2.184 1.617 2.16 2.605 l -4.578 0 c 0.105 -1.098 0.793 -2.605 2.418 -2.605" fill="#fff"/></g></g><path d="m 38.27 47.44 c 2.543 -0.012 4.379 -0.082 5.711 -0.441 l -4.23 -7.25 -4.484 7.691 1.191 0 c 0.641 0 1.242 0 1.813 0 z m 1.48 -7.691 -5.125 -8.789 -5.129 8.789 z m 0 0 7.652 0 c 0.031 -0.973 0.039 -2.063 0.039 -3.297 l 0 -1.098 -2.563 -4.395 z m 5.129 -8.789 -5.129 -8.789 -5.125 8.789 z m 0 0 2.563 0 0 -4.395 z m -10.254 0 -5.129 -8.789 -5.125 8.789 z m -10.254 0 -5.129 8.789 10.254 0 z m 0 0 -5.129 -8.789 -5.125 8.789 z m -10.254 0 -5.129 8.789 10.254 0 z m 0 0 -5.129 -8.789 -5.125 8.789 z m -10.254 0 -3.297 5.648 c 0 1.168 0.012 2.211 0.039 3.141 l 8.383 0 z m 0 0 -3.297 -5.648 0 5.648 z m 5.125 8.789 -4.313 7.395 c 1.598 0.293 3.809 0.297 6.879 0.297 l 1.922 0 z m 0 -17.578 -5.125 -8.789 -3.297 5.648 0 3.141 z m 0 0 10.254 0 -5.125 -8.789 z m 5.129 -8.789 -5.129 -8.789 -5.125 8.789 z m 0 0 10.254 0 -5.129 -8.789 z m 5.125 -8.789 -2.352 -4.03 -5.336 0 c -0.078 0 -0.141 0 -0.215 0 l -2.352 4.03 z m 0 0 10.254 0 -2.352 -4.03 -5.551 0 z m 10.254 0 10.254 0 l -2.352 -4.03 c -0.313 0 -0.609 0 -0.941 0 l -4.609 0 z m 0 0 -5.125 8.789 10.254 0 z m 5.129 8.789 10.254 0 -5.129 -8.789 z m 0 0 -5.129 8.789 10.254 0 z m 5.125 8.789 7.691 0 0 -4.395 -2.563 -4.395 z m 5.129 -8.789 2.563 0 0 -1.832 c 0 -0.914 -0.008 -1.75 -0.023 -2.523 z m -15.383 8.789 -5.125 -8.789 -5.129 8.789 z m 10.254 -17.578 7.309 0 c -0.555 -2.758 -1.887 -3.629 -5.03 -3.902 z m -30.762 0 l -2.305 -3.953 c -3.66 0.207 -5.141 0.996 -5.734 3.953 z m -5.125 8.789 l -3.238 -5.555 c -0.043 1.074 -0.059 2.309 -0.059 3.723 l 0 1.832 z m 15.379 26.367 -4.484 7.691 8.973 0 z m 10.254 0 -4.484 7.691 8.973 0 z m -26.898 6.621 -1.602 -2.746 c 0.293 1.316 0.785 2.18 1.602 2.746 z" fill="#fff" fill-opacity="0.044"/></svg>