<?xml version="1.0" encoding="UTF-8" standalone="no"?>
<svg
   xmlns:dc="http://purl.org/dc/elements/1.1/"
   xmlns:cc="http://creativecommons.org/ns#"
   xmlns:rdf="http://www.w3.org/1999/02/22-rdf-syntax-ns#"
   xmlns:svg="http://www.w3.org/2000/svg"
   xmlns="http://www.w3.org/2000/svg"
   xmlns:sodipodi="http://sodipodi.sourceforge.net/DTD/sodipodi-0.dtd"
   xmlns:inkscape="http://www.inkscape.org/namespaces/inkscape"
   width="48"
   height="48"
   viewBox="0 0 48 48"
   id="svg2"
   version="1.1"
   inkscape:version="0.48.4 r9939"
   sodipodi:docname="anjuta.svg">
  <metadata
     id="metadata21">
    <rdf:RDF>
      <cc:Work
         rdf:about="">
        <dc:format>image/svg+xml</dc:format>
        <dc:type
           rdf:resource="http://purl.org/dc/dcmitype/StillImage" />
      </cc:Work>
    </rdf:RDF>
  </metadata>
  <sodipodi:namedview
     pagecolor="#ffffff"
     bordercolor="#666666"
     borderopacity="1"
     objecttolerance="10"
     gridtolerance="10"
     guidetolerance="10"
     inkscape:pageopacity="0"
     inkscape:pageshadow="2"
     inkscape:window-width="640"
     inkscape:window-height="480"
     id="namedview19"
     showgrid="false"
     inkscape:zoom="4.9166667"
     inkscape:cx="24"
     inkscape:cy="24"
     inkscape:window-x="0"
     inkscape:window-y="0"
     inkscape:window-maximized="0"
     inkscape:current-layer="svg2" />
  <defs
     id="defs4">
    <radialGradient
       cx="148.004"
       cy="160"
       gradientTransform="matrix(.1831 0 0 .1831 -3.10029 -5.29688)"
       id="radial0"
       r="128"
       gradientUnits="userSpaceOnUse">
      <stop
         offset="0"
         style="stop-color:#d6b2df"
         id="stop7" />
      <stop
         offset="1"
         style="stop-color:#643b70"
         id="stop9" />
    </radialGradient>
  </defs>
  <path
     style="fill:url(#radial0)"
     d="M 47.4375 11.546875 L 47.4375 36.453125 C 47.4375 46.703125 47.4375 47.4375 36.453125 47.4375 L 11.550781 47.4375 C 0.5625 47.4375 0.5625 46.703125 0.5625 36.453125 L 0.5625 11.546875 C 0.5625 1.296875 0.5625 0.5625 11.550781 0.5625 L 36.453125 0.5625 C 47.4375 0.5625 47.4375 1.296875 47.4375 11.546875 Z "
     id="path11" />
  <path
     inkscape:connector-curvature="0"
     id="path15"
     d="m 38.265625,47.4375 c 2.542969,-0.01172 4.378906,-0.08203 5.710937,-0.441406 l -4.230468,-7.25 -4.484375,7.691406 1.191406,0 c 0.640625,0 1.242187,0 1.8125,0 z m 1.480469,-7.691406 -5.125,-8.789063 -5.128906,8.789063 z m 0,0 7.652344,0 c 0.03125,-0.972656 0.03906,-2.0625 0.03906,-3.296875 l 0,-1.097657 -2.5625,-4.394531 z m 5.128906,-8.789063 -5.128906,-8.789062 -5.125,8.789062 z m 0,0 2.5625,0 0,-4.394531 z m -10.253906,0 -5.128906,-8.789062 -5.125,8.789062 z m -10.253906,0 -5.128907,8.789063 10.253907,0 z m 0,0 -5.128907,-8.789062 -5.125,8.789062 z m -10.253907,0 -5.128906,8.789063 10.253906,0 z m 0,0 -5.128906,-8.789062 -5.125,8.789062 z m -10.253906,0 -3.296875,5.648438 c 0,1.167969 0.011719,2.210937 0.039062,3.140625 l 8.382813,0 z m 0,0 -3.296875,-5.648437 0,5.648437 z m 5.125,8.789063 -4.3125,7.394531 c 1.597656,0.292969 3.808594,0.296875 6.878906,0.296875 l 1.921875,0 z m 0,-17.578125 -5.125,-8.789063 -3.296875,5.648438 0,3.140625 z m 0,0 10.253906,0 -5.125,-8.789063 z m 5.128906,-8.789063 -5.128906,-8.789062 -5.125,8.789062 z m 0,0 10.253907,0 -5.128907,-8.789062 z m 5.125,-8.789062 -2.351562,-4.027344 -5.335938,0 c -0.07813,0 -0.140625,0 -0.214843,0 L 8.984375,4.589844 z m 0,0 10.253907,0 -2.351563,-4.027344 -5.550781,0 z m 10.253907,0 10.253906,0 L 37.394531,0.5625 c -0.3125,0 -0.609375,0 -0.941406,0 l -4.609375,0 z m 0,0 -5.125,8.789062 10.253906,0 z m 5.128906,8.789062 10.253906,0 -5.128906,-8.789062 z m 0,0 -5.128906,8.789063 10.253906,0 z m 5.125,8.789063 7.691406,0 0,-4.394531 -2.5625,-4.394532 z m 5.128906,-8.789063 2.5625,0 0,-1.832031 c 0,-0.914063 -0.0078,-1.75 -0.02344,-2.523437 z m -15.382812,8.789063 -5.125,-8.789063 -5.128907,8.789063 z m 10.253906,-17.578125 7.308594,0 C 46.5,1.832031 45.167969,0.960938 42.023438,0.6875 z m -30.761719,0 L 6.679688,0.636719 C 3.019531,0.84375 1.539062,1.632812 0.945312,4.589844 z m -5.125,8.789062 L 0.621094,7.824219 C 0.578125,8.898438 0.5625,10.132812 0.5625,11.546875 l 0,1.832031 z m 15.378906,26.367188 -4.484375,7.691406 8.972656,0 z m 10.253907,0 -4.484376,7.691406 8.972657,0 z M 2.59375,46.367188 0.992188,43.621094 c 0.292968,1.316406 0.785156,2.179687 1.601562,2.746094 z"
     style="fill:#ffffff;fill-opacity:0.05100002" />
  <path
     style="color:#000000;fill:#e8e3ee"
     inkscape:connector-curvature="0"
     id="path30"
     d="m 24.724093,9.0046 c -1.407495,0.032 -2.793067,0.2383 -4.13364,0.6049 0.329219,0.1462 0.653855,0.3021 0.990945,0.4399 0.795626,-0.2965 2.004041,-0.6054 3.652315,-0.5774 1.677594,0.029 4.340698,0.7841 5.889011,1.2647 A 15.585291,15.134434 0 0 0 26.677656,9.0596 c -0.02888,0 -0.05628,0 -0.08487,0 -0.623626,-0.05 -1.247572,-0.069 -1.868632,-0.055 z m -1.075881,1.0723 c -0.648816,0.031 -1.165985,0.075 -1.613816,0.1374 0.22979,0.091 0.448741,0.1868 0.679504,0.275 0.02944,-10e-5 0.05533,-2e-4 0.08487,0 2.121999,0.01 4.60775,0.4859 7.502827,1.5121 -1.823492,-0.4532 -3.666462,-0.7221 -5.436013,-0.7148 2.314119,0.8437 4.431793,1.6272 5.549256,2.6119 l -0.113244,1.1272 c 0,0 4.936954,2.1294 8.154018,4.9213 A 15.585291,15.134434 0 0 0 31.405777,10.9017 C 28.089622,10.1301 25.482832,9.9905 23.648134,10.0769 z m -5.096258,0.2474 c 0.02587,0.3158 0.06401,0.5966 0.141559,0.8523 0.254388,-0.095 0.521968,-0.1992 0.792751,-0.2749 -0.310461,-0.1731 -0.628281,-0.3513 -0.93431,-0.5774 z m -1.500564,0.7423 c -5.216637,2.9371 -8.8529368,9.0703 -7.8992018,18.7231 9.11e-4,0.01 -9.1e-4,0.018 0,0.027 a 15.585291,15.134434 0 0 0 0.736129,1.4297 c -0.36976,-4.3967 -0.221012,-7.5188 1.3306858,-12.0972 0,0 -1.2818928,5.9333 0.537937,14.654 0.0019,0.01 -0.0019,0.018 0,0.027 a 15.585291,15.134434 0 0 0 1.047567,1.0448 C 10.828394,26.8302 10.711864,15.5495 17.391145,11.7806 17.268681,11.5679 17.150173,11.3283 17.05139,11.0658 z m 4.21857,0.6599 c -0.64535,0.1687 -1.250391,0.4113 -1.840319,0.6873 0.866839,0.8739 2.138743,1.0071 2.746324,0.9623 0,0 -2.134869,0.7208 -3.765572,-0.4399 -4.666149,2.9053 -6.820955,10.0363 -2.434885,24.2218 a 15.585291,15.134434 0 0 0 0.02824,0 A 15.585291,15.134434 0 0 0 23.421635,39 15.585291,15.134434 0 0 0 38.908604,22.229 c -0.574689,0.8652 -1.302485,2.2374 -1.670439,4.1515 0,0 -7.482969,-4.8159 -13.391836,-1.1272 0,0 -8.122507,-3.957 -3.057759,-9.5128 0,0 1.562448,0.8179 2.406569,1.1823 -4.173725,2.96 0.934312,6.5159 0.934312,6.5159 0,0 4.154337,-3.9954 12.032835,0.4674 0,0 0.570624,-1.8171 1.274063,-2.227 -3.939197,-3.6886 -9.343088,-5.5262 -9.343088,-5.5262 l 0.113244,-1.6221 C 24.890554,12.9346 22.84626,12.3199 21.26993,11.7265 z m 3.595694,2.7768 c 0,0 1.580028,0.4949 2.378254,0.4949 0,0 0.05503,1.139 -1.075881,1.4297 -0.864744,-0.2584 -1.302373,-1.9246 -1.302373,-1.9246 z" />
</svg>
