<svg xmlns="http://www.w3.org/2000/svg" viewBox="0 0 48 48"><defs><radialGradient id="0" cx="24" cy="24" r="23.437" gradientUnits="userSpaceOnUse"><stop stop-color="#3d3d3d"/><stop offset="1" stop-color="#1d1d1d"/></radialGradient></defs><path d="m 47.44 11.547 l 0 24.906 c 0 10.25 0 10.984 -10.984 10.984 l -24.902 0 c -10.988 0 -10.988 -0.734 -10.988 -10.984 l 0 -24.906 c 0 -10.25 0 -10.984 10.988 -10.984 l 24.902 0 c 10.984 0 10.984 0.734 10.984 10.984" fill="url(#0)"/><path d="m 32.02 12.02 c -0.652 0.18 -1.746 1.621 -2.301 1.727 c -0.637 0.121 -2.535 -1.133 -2.977 -0.668 c -0.438 0.469 0.953 2.305 0.875 2.941 c -0.082 0.633 -1.898 2.066 -1.586 2.625 c 0.313 0.555 2.508 -0.191 3.09 0.078 c 0.586 0.27 1.391 2.391 2.023 2.27 c 0.633 -0.121 0.59 -2.391 1.031 -2.859 c 0.441 -0.465 2.738 -0.578 2.816 -1.215 c 0.078 -0.633 -2.105 -1.281 -2.422 -1.84 c -0.313 -0.559 0.27 -2.789 -0.316 -3.059 c -0.07 -0.031 -0.145 -0.023 -0.238 0 m 0.004 0" fill="#fff"/><path d="m 21.07 20 c -1.27 0.176 -1.438 4.789 -2.363 5.68 c -0.926 0.891 -5.469 0.852 -5.695 2.121 c -0.227 1.266 4.04 2.863 4.602 4.03 c 0.559 1.16 -0.879 5.496 0.25 6.102 c 1.133 0.609 3.965 -3 5.234 -3.176 c 1.27 -0.176 4.941 2.543 5.863 1.652 c 0.93 -0.891 -1.617 -4.707 -1.391 -5.977 c 0.227 -1.273 3.934 -3.926 3.375 -5.082 c -0.559 -1.16 -4.945 0.098 -6.074 -0.512 c -1.133 -0.609 -2.527 -5.01 -3.801 -4.828 m 0 -0.008" fill="#fff"/><path d="m 38.27 47.44 c 2.543 -0.012 4.379 -0.082 5.711 -0.441 l -4.23 -7.25 -4.484 7.691 1.191 0 c 0.641 0 1.242 0 1.813 0 z m 1.48 -7.691 -5.125 -8.789 -5.129 8.789 z m 0 0 7.652 0 c 0.031 -0.973 0.039 -2.063 0.039 -3.297 l 0 -1.098 -2.563 -4.395 z m 5.129 -8.789 -5.129 -8.789 -5.125 8.789 z m 0 0 2.563 0 0 -4.395 z m -10.254 0 -5.129 -8.789 -5.125 8.789 z m -10.254 0 -5.129 8.789 10.254 0 z m 0 0 -5.129 -8.789 -5.125 8.789 z m -10.254 0 -5.129 8.789 10.254 0 z m 0 0 -5.129 -8.789 -5.125 8.789 z m -10.254 0 -3.297 5.648 c 0 1.168 0.012 2.211 0.039 3.141 l 8.383 0 z m 0 0 -3.297 -5.648 0 5.648 z m 5.125 8.789 -4.313 7.395 c 1.598 0.293 3.809 0.297 6.879 0.297 l 1.922 0 z m 0 -17.578 -5.125 -8.789 -3.297 5.648 0 3.141 z m 0 0 10.254 0 -5.125 -8.789 z m 5.129 -8.789 -5.129 -8.789 -5.125 8.789 z m 0 0 10.254 0 -5.129 -8.789 z m 5.125 -8.789 -2.352 -4.03 -5.336 0 c -0.078 0 -0.141 0 -0.215 0 l -2.352 4.03 z m 0 0 10.254 0 -2.352 -4.03 -5.551 0 z m 10.254 0 10.254 0 l -2.352 -4.03 c -0.313 0 -0.609 0 -0.941 0 l -4.609 0 z m 0 0 -5.125 8.789 10.254 0 z m 5.129 8.789 10.254 0 -5.129 -8.789 z m 0 0 -5.129 8.789 10.254 0 z m 5.125 8.789 7.691 0 0 -4.395 -2.563 -4.395 z m 5.129 -8.789 2.563 0 0 -1.832 c 0 -0.914 -0.008 -1.75 -0.023 -2.523 z m -15.383 8.789 -5.125 -8.789 -5.129 8.789 z m 10.254 -17.578 7.309 0 c -0.555 -2.758 -1.887 -3.629 -5.03 -3.902 z m -30.762 0 l -2.305 -3.953 c -3.66 0.207 -5.141 0.996 -5.734 3.953 z m -5.125 8.789 l -3.238 -5.555 c -0.043 1.074 -0.059 2.309 -0.059 3.723 l 0 1.832 z m 15.379 26.367 -4.484 7.691 8.973 0 z m 10.254 0 -4.484 7.691 8.973 0 z m -26.898 6.621 -1.602 -2.746 c 0.293 1.316 0.785 2.18 1.602 2.746 z" fill="#fff" fill-opacity="0.024"/></svg>