<?xml version="1.0" encoding="UTF-8" standalone="no"?>
<svg
   xmlns:dc="http://purl.org/dc/elements/1.1/"
   xmlns:cc="http://creativecommons.org/ns#"
   xmlns:rdf="http://www.w3.org/1999/02/22-rdf-syntax-ns#"
   xmlns:svg="http://www.w3.org/2000/svg"
   xmlns="http://www.w3.org/2000/svg"
   xmlns:xlink="http://www.w3.org/1999/xlink"
   xmlns:sodipodi="http://sodipodi.sourceforge.net/DTD/sodipodi-0.dtd"
   xmlns:inkscape="http://www.inkscape.org/namespaces/inkscape"
   width="48"
   viewBox="0 0 13.546667 13.546667"
   height="48"
   id="svg2"
   version="1.1"
   inkscape:version="0.48.4 r9939"
   sodipodi:docname="app-launcher.svg">
  <metadata
     id="metadata28">
    <rdf:RDF>
      <cc:Work
         rdf:about="">
        <dc:format>image/svg+xml</dc:format>
        <dc:type
           rdf:resource="http://purl.org/dc/dcmitype/StillImage" />
        <dc:title />
      </cc:Work>
    </rdf:RDF>
  </metadata>
  <sodipodi:namedview
     pagecolor="#333333"
     bordercolor="#666666"
     borderopacity="1"
     objecttolerance="10"
     gridtolerance="10"
     guidetolerance="10"
     inkscape:pageopacity="1"
     inkscape:pageshadow="2"
     inkscape:window-width="1280"
     inkscape:window-height="998"
     id="namedview26"
     showgrid="false"
     inkscape:zoom="7.8359495"
     inkscape:cx="16.930991"
     inkscape:cy="23.050017"
     inkscape:window-x="0"
     inkscape:window-y="0"
     inkscape:window-maximized="1"
     inkscape:current-layer="svg2" />
  <defs
     id="defs4">
    <linearGradient
       id="linearGradient4460">
      <stop
         offset="0"
         style="stop-color:#d7d7d7;stop-opacity:1;"
         id="stop7" />
      <stop
         offset="1"
         style="stop-color:#f1f1f1;stop-opacity:1;"
         id="stop9" />
    </linearGradient>
    <linearGradient
       gradientTransform="matrix(1.09524,0,0,1.09524,-133.00183,-293.02198)"
       xlink:href="#linearGradient4460"
       id="linearGradient3102"
       y1="279.096"
       y2="268.33"
       gradientUnits="userSpaceOnUse"
       x2="0" />
    <linearGradient
       inkscape:collect="always"
       xlink:href="#linearGradient4460"
       id="linearGradient3006"
       gradientUnits="userSpaceOnUse"
       gradientTransform="matrix(1.09524,0,0,1.09524,-133.00183,-293.02198)"
       y1="279.096"
       x2="0"
       y2="268.33" />
    <linearGradient
       inkscape:collect="always"
       xlink:href="#linearGradient4460"
       id="linearGradient3093"
       gradientUnits="userSpaceOnUse"
       y1="1050.36"
       x2="0"
       y2="1006.36"
       gradientTransform="matrix(0.28222223,0,0,0.28222223,-14.058004,-283.55521)" />
    <linearGradient
       id="1">
      <stop
         stop-color="#10a7ce"
         id="stop8" />
      <stop
         offset="1"
         stop-color="#1ac8ef"
         id="stop10" />
    </linearGradient>
    <radialGradient
       cx="148.004"
       cy="160"
       gradientTransform="matrix(0.1831,0,0,0.1831,-3.10029,-5.29688)"
       id="radial0"
       r="128"
       gradientUnits="userSpaceOnUse">
      <stop
         offset="0"
         style="stop-color:#8bffc7;stop-opacity:1;"
         id="stop7-1" />
      <stop
         offset="1"
         style="stop-color:#00984f;stop-opacity:1;"
         id="stop9-9" />
    </radialGradient>
    <radialGradient
       r="128"
       cy="160"
       cx="148.004"
       gradientTransform="matrix(0.05167489,0,0,0.05167489,-0.87510821,-1.4947617)"
       gradientUnits="userSpaceOnUse"
       id="radialGradient3001"
       xlink:href="#radial0"
       inkscape:collect="always" />
  </defs>
  <path
     inkscape:connector-curvature="0"
     style="fill:url(#radialGradient3001)"
     d="m 13.38778,3.2589204 0,7.0290976 c 0,2.892778 0,3.100035 -3.100035,3.100035 l -7.0279951,0 c -3.10113701,0 -3.10113701,-0.207257 -3.10113701,-3.100035 l 0,-7.0290976 c 0,-2.89277779 0,-3.10003479 3.10113701,-3.10003479 l 7.0279951,0 c 3.100035,0 3.100035,0.207257 3.100035,3.10003479 z"
     id="path11" />
  <path
     inkscape:connector-curvature="0"
     id="path15"
     d="m 10.799273,13.388053 c 0.717682,-0.0033 1.235825,-0.02315 1.611753,-0.124575 l -1.193932,-2.046111 -1.2655901,2.170686 0.3362411,0 c 0.180799,0 0.350573,0 0.511528,0 z M 11.217094,11.217367 9.7707049,8.7368979 8.3232139,11.217367 z m 0,0 2.159662,0 c 0.0088,-0.274505 0.01102,-0.582083 0.01102,-0.930451 l 0,-0.3097838 -0.723194,-1.2402343 z M 12.664586,8.7368979 11.217094,6.2564292 9.7707049,8.7368979 z m 0,0 0.723194,0 0,-1.2402343 z m -2.8938811,0 -1.447491,-2.4804687 -1.446389,2.4804687 z m -2.89388,0 -1.447492,2.4804691 2.893881,0 z m 0,0 -1.447492,-2.4804687 -1.446389,2.4804687 z m -2.893881,0 -1.447491,2.4804691 2.89388,0 z m 0,0 -1.447491,-2.4804687 -1.446389,2.4804687 z m -2.89388,0 -0.93045101,1.5941151 c 0,0.329627 0.0033,0.623976 0.01102,0.886354 l 2.36581601,0 z m 0,0 -0.93045101,-1.5941145 0,1.5941145 z m 1.446389,2.4804691 -1.217083,2.086901 c 0.450894,0.08268 1.07487,0.08379 1.94138,0.08379 l 0.542396,0 z m 0,-4.9609378 -1.446389,-2.4804689 -0.93045101,1.5941147 0,0.8863542 z m 0,0 2.89388,0 -1.446389,-2.4804689 z M 3.9829439,3.7759603 2.5354529,1.2954916 1.0890639,3.7759603 z m 0,0 2.893881,0 -1.447492,-2.4804687 z m 1.446389,-2.4804687 -0.663663,-1.13660599 -1.50592,0 c -0.02205,0 -0.03969,0 -0.06063,0 L 2.5354569,1.2954916 z m 0,0 2.893881,0 -0.663664,-1.13660599 -1.566553,0 z m 2.893881,0 2.8938801,0 -0.663663,-1.13660599 c -0.0882,0 -0.171979,0 -0.265686,0 l -1.3008681,0 z m 0,0 -1.446389,2.4804687 2.89388,0 z m 1.447491,2.4804687 2.8938811,0 -1.447492,-2.4804687 z m 0,0 -1.447491,2.4804689 2.8938801,0 z m 1.4463891,2.4804689 2.170686,0 0,-1.2402343 -0.723194,-1.2402346 z m 1.447492,-2.4804689 0.723194,0 0,-0.5170399 c 0,-0.2579689 -0.0022,-0.4938889 -0.0066,-0.71217 z M 8.3232139,6.2564292 6.8768249,3.7759603 5.4293329,6.2564292 z m 2.8938801,-4.9609376 2.062648,0 C 13.123197,0.51717551 12.747268,0.27133371 11.859811,0.19416341 z m -8.6816411,0 -0.650434,-1.11565969 C 0.85204089,0.23826091 0.43421989,0.46095141 0.26665089,1.2954916 z M 1.0890639,3.7759603 0.17514889,2.2083041 c -0.01213,0.3031685 -0.01654,0.6515363 -0.01654,1.0506163 l 0,0.5170399 z m 4.340269,7.4414067 -1.26559,2.170686 2.532283,0 z m 2.893881,0 -1.265591,2.170686 2.532283,0 z m -7.59133701,1.86862 -0.451997,-0.775009 c 0.08268,0.371519 0.221589,0.615157 0.451997,0.775009 z"
     style="fill:#ffffff;fill-opacity:0.05100002" />
  <rect
     width="1.6933334"
     x="3.3866668"
     y="3.6688888"
     height="1.6933334"
     style="fill:#f9f9f9;fill-opacity:1"
     id="rect18" />
  <rect
     id="rect3777"
     style="fill:#f9f9f9;fill-opacity:1"
     height="1.6933334"
     y="3.6688888"
     x="5.9266667"
     width="1.6933334" />
  <rect
     width="1.6933334"
     x="8.4666672"
     y="3.6688888"
     height="1.6933334"
     style="fill:#f9f9f9;fill-opacity:1"
     id="rect3779" />
  <rect
     id="rect3781"
     style="fill:#f9f9f9;fill-opacity:1"
     height="1.6933334"
     y="5.9266667"
     x="3.3866668"
     width="1.6933334" />
  <rect
     width="1.6933334"
     x="5.9266667"
     y="5.9266667"
     height="1.6933334"
     style="fill:#f9f9f9;fill-opacity:1"
     id="rect3783" />
  <rect
     id="rect3785"
     style="fill:#f9f9f9;fill-opacity:1"
     height="1.6933334"
     y="5.9266667"
     x="8.4666672"
     width="1.6933334" />
  <rect
     width="1.6933334"
     x="3.3866668"
     y="8.1844444"
     height="1.6933334"
     style="fill:#f9f9f9;fill-opacity:1"
     id="rect3787" />
  <rect
     id="rect3789"
     style="fill:#f9f9f9;fill-opacity:1"
     height="1.6933334"
     y="8.1844444"
     x="5.9266667"
     width="1.6933334" />
  <rect
     width="1.6933334"
     x="8.4666672"
     y="8.1844444"
     height="1.6933334"
     style="fill:#f9f9f9;fill-opacity:1"
     id="rect3791" />
</svg>
