<?xml version="1.0" encoding="UTF-8" standalone="no"?>
<svg
   xmlns:dc="http://purl.org/dc/elements/1.1/"
   xmlns:cc="http://creativecommons.org/ns#"
   xmlns:rdf="http://www.w3.org/1999/02/22-rdf-syntax-ns#"
   xmlns:svg="http://www.w3.org/2000/svg"
   xmlns="http://www.w3.org/2000/svg"
   xmlns:xlink="http://www.w3.org/1999/xlink"
   xmlns:sodipodi="http://sodipodi.sourceforge.net/DTD/sodipodi-0.dtd"
   xmlns:inkscape="http://www.inkscape.org/namespaces/inkscape"
   width="48"
   height="48"
   id="svg2"
   version="1.1"
   inkscape:version="0.48.4 r9939"
   sodipodi:docname="caffeine.svg">
  <metadata
     id="metadata50">
    <rdf:RDF>
      <cc:Work
         rdf:about="">
        <dc:format>image/svg+xml</dc:format>
        <dc:type
           rdf:resource="http://purl.org/dc/dcmitype/StillImage" />
      </cc:Work>
    </rdf:RDF>
  </metadata>
  <sodipodi:namedview
     pagecolor="#ffffff"
     bordercolor="#666666"
     borderopacity="1"
     objecttolerance="10"
     gridtolerance="10"
     guidetolerance="10"
     inkscape:pageopacity="0"
     inkscape:pageshadow="2"
     inkscape:window-width="672"
     inkscape:window-height="480"
     id="namedview48"
     showgrid="false"
     inkscape:zoom="4.9166667"
     inkscape:cx="27.254237"
     inkscape:cy="24"
     inkscape:window-x="53"
     inkscape:window-y="130"
     inkscape:window-maximized="0"
     inkscape:current-layer="svg2" />
  <defs
     id="defs4">
    <linearGradient
       xlink:href="#1"
       id="0"
       y1="1050.36"
       x2="0"
       y2="1006.36"
       gradientUnits="userSpaceOnUse" />
    <linearGradient
       id="1">
      <stop
         stop-color="#785424"
         id="stop8" />
      <stop
         offset="1"
         stop-color="#b88b51"
         id="stop10" />
    </linearGradient>
    <radialGradient
       cx="148.004"
       cy="160"
       gradientTransform="matrix(0.1831,0,0,0.1831,-3.10029,-5.29688)"
       id="radial0"
       r="128"
       gradientUnits="userSpaceOnUse">
      <stop
         offset="0"
         style="stop-color:#ffcc94;stop-opacity:1;"
         id="stop7" />
      <stop
         offset="1"
         style="stop-color:#aa6b00;stop-opacity:1;"
         id="stop9" />
    </radialGradient>
    <radialGradient
       r="128"
       cy="160"
       cx="148.004"
       gradientTransform="matrix(0.1831,0,0,0.1831,-3.10079,-5.2963796)"
       gradientUnits="userSpaceOnUse"
       id="radialGradient3035"
       xlink:href="#radial0"
       inkscape:collect="always" />
    <linearGradient
       inkscape:collect="always"
       xlink:href="#1"
       id="linearGradient3054"
       gradientUnits="userSpaceOnUse"
       y1="1050.36"
       x2="0"
       y2="1006.36"
       gradientTransform="translate(-60,-1009.0402)" />
  </defs>
  <path
     inkscape:connector-curvature="0"
     style="fill:url(#radialGradient3035)"
     d="m 47.437,11.547375 0,24.90625 c 0,10.25 0,10.984375 -10.984375,10.984375 l -24.902344,0 C 0.562,47.438 0.562,46.703625 0.562,36.453625 l 0,-24.90625 c 0,-10.2499996 0,-10.9843746 10.988281,-10.9843746 l 24.902344,0 C 47.437,0.5630004 47.437,1.2973754 47.437,11.547375 z"
     id="path11" />
  <path
     inkscape:connector-curvature="0"
     id="path15"
     d="m 38.265125,47.438 c 2.542969,-0.01172 4.378906,-0.08203 5.710937,-0.441406 l -4.230468,-7.25 -4.484375,7.691406 1.191406,0 c 0.640625,0 1.242187,0 1.8125,0 z m 1.480469,-7.691406 -5.125,-8.789063 -5.128906,8.789063 z m 0,0 7.652344,0 c 0.03125,-0.972656 0.03906,-2.0625 0.03906,-3.296875 l 0,-1.097657 -2.5625,-4.394531 z m 5.128906,-8.789063 -5.128906,-8.789062 -5.125,8.789062 z m 0,0 2.5625,0 0,-4.394531 z m -10.253906,0 -5.128906,-8.789062 -5.125,8.789062 z m -10.253906,0 -5.128907,8.789063 10.253907,0 z m 0,0 -5.128907,-8.789062 -5.125,8.789062 z m -10.253907,0 -5.128906,8.789063 10.253906,0 z m 0,0 -5.128906,-8.789062 -5.125,8.789062 z m -10.253906,0 L 0.562,36.605969 c 0,1.167969 0.01172,2.210937 0.03906,3.140625 l 8.382813,0 z m 0,0 -3.296875,-5.648437 0,5.648437 z m 5.125,8.789063 -4.3125,7.394531 C 6.269031,47.434094 8.479969,47.438 11.550281,47.438 l 1.921875,0 z m 0,-17.578125 -5.125,-8.789063 -3.296875,5.648438 0,3.140625 z m 0,0 10.253906,0 -5.125,-8.789063 z m 5.128906,-8.789063 -5.128906,-8.7890616 -5.125,8.7890616 z m 0,0 10.253907,0 -5.128907,-8.7890616 z m 5.125,-8.7890616 -2.351562,-4.027344 -5.335938,0 c -0.07813,0 -0.140625,0 -0.214843,0 l -2.351563,4.027344 z m 0,0 10.253907,0 -2.351563,-4.027344 -5.550781,0 z m 10.253907,0 10.253906,0 -2.351563,-4.027344 c -0.3125,0 -0.609375,0 -0.941406,0 l -4.609375,0 z m 0,0 -5.125,8.7890616 10.253906,0 z m 5.128906,8.7890616 10.253906,0 -5.128906,-8.7890616 z m 0,0 -5.128906,8.789063 10.253906,0 z m 5.125,8.789063 7.691406,0 0,-4.394531 -2.5625,-4.394532 z m 5.128906,-8.789063 2.5625,0 0,-1.832031 c 0,-0.914063 -0.0078,-1.7499996 -0.02344,-2.5234366 z m -15.382812,8.789063 -5.125,-8.789063 -5.128907,8.789063 z m 10.253906,-17.5781246 7.308594,0 C 46.4995,1.8325314 45.167469,0.9614384 42.022938,0.6880004 z m -30.761719,0 -2.304687,-3.953125 c -3.660157,0.207031 -5.140626,0.996093 -5.734376,3.953125 z m -5.125,8.7890616 -3.238281,-5.5546866 c -0.04297,1.074219 -0.05859,2.3085926 -0.05859,3.7226556 l 0,1.832031 z m 15.378906,26.367188 -4.484375,7.691406 8.972656,0 z m 10.253907,0 -4.484376,7.691406 8.972657,0 z M 2.59325,46.367688 0.991688,43.621594 C 1.284656,44.938 1.776844,45.801281 2.59325,46.367688 z"
     style="fill:#ffffff;fill-opacity:0.05100002" />
  <rect
     style="fill:#f9f9f9;fill-opacity:1"
     width="18.496061"
     x="14"
     y="28.006298"
     rx="5.3149605"
     height="7.9937005"
     ry="3.9968503"
     id="rect32" />
  <rect
     style="fill:#f9f9f9;fill-opacity:1"
     width="18.496061"
     x="14"
     y="21.054331"
     height="11.001968"
     id="rect34" />
  <g
     style="fill:#f9f9f9;fill-opacity:1"
     transform="matrix(-0.32403543,0,0,0.31443306,62.100428,20.620984)"
     id="g36">
    <path
       d="m 94.254036,9.800518 c -3.138034,2.6e-5 -5.6185,1.048202 -7.441406,3.144531 -1.809903,2.083354 -2.71485,4.941424 -2.714844,8.574219 -6e-6,3.73699 0.872389,6.627612 2.617187,8.671875 1.757803,2.031254 4.2578,3.046878 7.5,3.046875 1.99217,3e-6 4.264303,-0.35807 6.816407,-1.074219 l 0,2.910157 c -1.979188,0.742187 -4.420592,1.11328 -7.324219,1.113281 -4.205741,-1e-6 -7.454435,-1.276041 -9.746094,-3.828125 -2.278649,-2.552078 -3.417971,-6.178376 -3.417969,-10.878906 -2e-6,-2.942692 0.546872,-5.520814 1.640625,-7.734375 1.106766,-2.213518 2.695306,-3.9192453 4.765625,-5.117188 2.083323,-1.1978883 4.531237,-1.796846 7.34375,-1.796875 2.994773,2.9e-5 5.611958,0.5469035 7.851562,1.640625 l -1.40625,2.851563 c -2.161478,-1.0156 -4.322934,-1.523412 -6.484374,-1.523438"
       id="path38"
       inkscape:connector-curvature="0"
       style="fill:#f9f9f9;fill-opacity:1" />
  </g>
  <g
     style="fill:#f9f9f9;fill-opacity:1"
     transform="matrix(0.19998425,0,0,0.16079527,-13.664121,8.5424525)"
     id="g40">
    <path
       d="m 158.27232,21.558036 c 0.13521,-0.428715 -4.98527,1.661465 -7.96875,3.5 -1.48,0.912047 -4.79654,3.937799 -5.65625,5.09375 -0.88834,1.194442 -1.65598,2.549596 -2.1875,3.9375 -0.53146,1.387687 -0.92939,2.897841 -1,4.375 -0.0711,1.487406 0.0852,3.097173 0.5625,4.5 0.49121,1.443628 1.42013,2.791934 2.34375,4.03125 0.94252,1.264624 2.2235,2.316742 3.28125,3.5 1.0328,1.155323 2.21693,2.218273 3,3.53125 0.78778,1.320881 1.40175,2.840514 1.6875,4.34375 0.25756,1.355032 0.16793,2.848022 -0.0625,4.21875 -0.23021,1.369425 -0.68661,2.759708 -1.3125,4 -0.6615,1.310886 -1.52083,2.589376 -2.53125,3.65625 -1.10374,1.165411 -3.92911,2.626722 -3.8125,3.0625 0.10778,0.402803 4.40332,-1.143087 5.8125,-1.75 1.22095,-0.525845 4.44312,-2.364202 5.46875,-3.28125 0.98224,-0.878227 2.00424,-1.76445 2.78125,-2.8125 0.74662,-1.007071 1.48442,-2.176437 1.78125,-3.375 0.32914,-1.328998 0.31311,-2.820674 0.0937,-4.1875 -0.24127,-1.503255 -0.81728,-3.014485 -1.46875,-4.40625 -0.64775,-1.383824 -1.52542,-2.680873 -2.40625,-3.9375 -0.89082,-1.270931 -1.91334,-2.45998 -2.90625,-3.65625 -0.96771,-1.165933 -2.16405,-2.17215 -2.96875,-3.4375 -0.82524,-1.297641 -1.71883,-2.774134 -1.9375,-4.25 -0.20653,-1.394213 0.19887,-2.97165 0.65625,-4.34375 0.47569,-1.427113 1.31341,-2.766985 2.15625,-4.03125 0.78707,-1.180616 1.82918,-2.198126 2.71875,-3.3125 1.30727,-1.637596 3.52596,-3.86203 3.875,-4.96875 z"
       id="path42"
       inkscape:connector-curvature="0"
       style="fill:#f9f9f9;fill-opacity:1" />
    <path
       d="m 187.17723,21.558036 c 0.13521,-0.428715 -4.98527,1.661465 -7.96875,3.5 -1.48,0.912047 -4.79654,3.937799 -5.65625,5.09375 -0.88834,1.194442 -1.65598,2.549596 -2.1875,3.9375 -0.53146,1.387687 -0.92939,2.897841 -1,4.375 -0.0711,1.487406 0.0852,3.097173 0.5625,4.5 0.49121,1.443628 1.42013,2.791934 2.34375,4.03125 0.94252,1.264624 2.2235,2.316742 3.28125,3.5 1.0328,1.155323 2.21693,2.218273 3,3.53125 0.78778,1.320881 1.40175,2.840514 1.6875,4.34375 0.25756,1.355032 0.16793,2.848022 -0.0625,4.21875 -0.23021,1.369425 -0.68661,2.759708 -1.3125,4 -0.6615,1.310886 -1.52083,2.589376 -2.53125,3.65625 -1.10374,1.165411 -3.92911,2.626722 -3.8125,3.0625 0.10778,0.402803 4.40332,-1.143087 5.8125,-1.75 1.22095,-0.525845 4.44312,-2.364202 5.46875,-3.28125 0.98224,-0.878227 2.00424,-1.76445 2.78125,-2.8125 0.74662,-1.007071 1.48442,-2.176437 1.78125,-3.375 0.32914,-1.328998 0.31311,-2.820674 0.0937,-4.1875 -0.24127,-1.503255 -0.81728,-3.014485 -1.46875,-4.40625 -0.64775,-1.383824 -1.52542,-2.680873 -2.40625,-3.9375 -0.89082,-1.270931 -1.91334,-2.45998 -2.90625,-3.65625 -0.96771,-1.165933 -2.16405,-2.17215 -2.96875,-3.4375 -0.82524,-1.297641 -1.71883,-2.774134 -1.9375,-4.25 -0.20653,-1.394213 0.19887,-2.97165 0.65625,-4.34375 0.47569,-1.427113 1.31341,-2.766985 2.15625,-4.03125 0.78707,-1.180616 1.82918,-2.198126 2.71875,-3.3125 1.30727,-1.637596 3.52596,-3.86203 3.875,-4.96875 z"
       id="path44"
       inkscape:connector-curvature="0"
       style="fill:#f9f9f9;fill-opacity:1" />
    <path
       d="m 216.08213,21.558036 c 0.13521,-0.428715 -4.98527,1.661465 -7.96875,3.5 -1.48,0.912047 -4.79654,3.937799 -5.65625,5.09375 -0.88834,1.194442 -1.65598,2.549596 -2.1875,3.9375 -0.53146,1.387687 -0.92939,2.897841 -1,4.375 -0.0711,1.487406 0.0852,3.097173 0.5625,4.5 0.49121,1.443628 1.42013,2.791934 2.34375,4.03125 0.94252,1.264624 2.2235,2.316742 3.28125,3.5 1.0328,1.155323 2.21693,2.218273 3,3.53125 0.78778,1.320881 1.40175,2.840514 1.6875,4.34375 0.25756,1.355032 0.16793,2.848022 -0.0625,4.21875 -0.23021,1.369425 -0.68661,2.759708 -1.3125,4 -0.6615,1.310886 -1.52083,2.589376 -2.53125,3.65625 -1.10374,1.165411 -3.92911,2.626722 -3.8125,3.0625 0.10778,0.402803 4.40332,-1.143087 5.8125,-1.75 1.22095,-0.525845 4.44312,-2.364202 5.46875,-3.28125 0.98224,-0.878227 2.00424,-1.76445 2.78125,-2.8125 0.74662,-1.007071 1.48442,-2.176437 1.78125,-3.375 0.32914,-1.328998 0.31311,-2.820674 0.0937,-4.1875 -0.24127,-1.503255 -0.81728,-3.014485 -1.46875,-4.40625 -0.64775,-1.383824 -1.52542,-2.680873 -2.40625,-3.9375 -0.89082,-1.270931 -1.91334,-2.45998 -2.90625,-3.65625 -0.96771,-1.165933 -2.16405,-2.17215 -2.96875,-3.4375 -0.82524,-1.297641 -1.71883,-2.774134 -1.9375,-4.25 -0.20653,-1.394213 0.19887,-2.97165 0.65625,-4.34375 0.47569,-1.427113 1.31341,-2.766985 2.15625,-4.03125 0.78707,-1.180616 1.82918,-2.198126 2.71875,-3.3125 1.30727,-1.637596 3.52596,-3.86203 3.875,-4.96875 z"
       id="path46"
       inkscape:connector-curvature="0"
       style="fill:#f9f9f9;fill-opacity:1" />
  </g>
</svg>
