<?xml version="1.0" encoding="UTF-8" standalone="no"?>
<svg
   xmlns:dc="http://purl.org/dc/elements/1.1/"
   xmlns:cc="http://creativecommons.org/ns#"
   xmlns:rdf="http://www.w3.org/1999/02/22-rdf-syntax-ns#"
   xmlns:svg="http://www.w3.org/2000/svg"
   xmlns="http://www.w3.org/2000/svg"
   xmlns:xlink="http://www.w3.org/1999/xlink"
   xmlns:sodipodi="http://sodipodi.sourceforge.net/DTD/sodipodi-0.dtd"
   xmlns:inkscape="http://www.inkscape.org/namespaces/inkscape"
   width="48"
   viewBox="0 0 13.546667 13.546667"
   height="48"
   id="svg2"
   version="1.1"
   inkscape:version="0.48.4 r9939"
   sodipodi:docname="calibre-viewer.svg"
   enable-background="new">
  <metadata
     id="metadata26">
    <rdf:RDF>
      <cc:Work
         rdf:about="">
        <dc:format>image/svg+xml</dc:format>
        <dc:type
           rdf:resource="http://purl.org/dc/dcmitype/StillImage" />
        <dc:title />
      </cc:Work>
    </rdf:RDF>
  </metadata>
  <sodipodi:namedview
     pagecolor="#ffffff"
     bordercolor="#666666"
     borderopacity="1"
     objecttolerance="10"
     gridtolerance="10"
     guidetolerance="10"
     inkscape:pageopacity="0"
     inkscape:pageshadow="2"
     inkscape:window-width="1280"
     inkscape:window-height="998"
     id="namedview24"
     showgrid="true"
     inkscape:zoom="4.9621381"
     inkscape:cx="23.043324"
     inkscape:cy="16.914449"
     inkscape:window-x="0"
     inkscape:window-y="0"
     inkscape:window-maximized="1"
     inkscape:current-layer="svg2">
    <inkscape:grid
       type="xygrid"
       id="grid3020" />
  </sodipodi:namedview>
  <defs
     id="defs4">
    <linearGradient
       id="linearGradient3862">
      <stop
         style="stop-color:#0a403e;stop-opacity:1;"
         offset="0"
         id="stop3864" />
      <stop
         style="stop-color:#0a6363;stop-opacity:1;"
         offset="1"
         id="stop3866" />
    </linearGradient>
    <linearGradient
       id="linearGradient5393">
      <stop
         style="stop-color:#0a403e;stop-opacity:1;"
         offset="0"
         id="stop5395" />
      <stop
         style="stop-color:#0a6363;stop-opacity:1;"
         offset="1"
         id="stop5397" />
    </linearGradient>
    <linearGradient
       id="linearGradient4460">
      <stop
         offset="0"
         style="stop-color:#0a4140;stop-opacity:1;"
         id="stop7" />
      <stop
         offset="1"
         style="stop-color:#0a6464;stop-opacity:1;"
         id="stop9" />
    </linearGradient>
    <linearGradient
       gradientTransform="matrix(1.10525,0,0,1.10525,-134.27874,-295.76183)"
       xlink:href="#linearGradient4460"
       id="linearGradient3008"
       y1="279.096"
       y2="268.33"
       gradientUnits="userSpaceOnUse"
       x2="0" />
    <linearGradient
       y2="31.61907"
       x2="283.80957"
       y1="299.80954"
       x1="283.80957"
       gradientTransform="matrix(0.11931818,0,0,0.11931818,414.13636,48.22727)"
       gradientUnits="userSpaceOnUse"
       id="linearGradient3885"
       xlink:href="#outerBackgroundGradient"
       inkscape:collect="always" />
    <clipPath
       id="clipPath3881"
       clipPathUnits="userSpaceOnUse">
      <rect
         ry="7"
         y="53"
         x="417"
         height="30"
         width="30"
         id="rect3883"
         style="color:#bebebe;fill:url(#linearGradient3885);fill-opacity:1;fill-rule:nonzero;stroke:none;stroke-width:0;marker:none;visibility:visible;display:inline;overflow:visible;enable-background:accumulate" />
    </clipPath>
    <linearGradient
       y2="28.571428"
       x2="286.85715"
       y1="302.85715"
       x1="286.85715"
       gradientTransform="matrix(0.0875,0,0,0.0875,414.9,97.5)"
       gradientUnits="userSpaceOnUse"
       id="linearGradient3875"
       xlink:href="#outerBackgroundGradient"
       inkscape:collect="always" />
    <clipPath
       id="clipPath3871"
       clipPathUnits="userSpaceOnUse">
      <rect
         style="color:#bebebe;fill:url(#linearGradient3875);fill-opacity:1;fill-rule:nonzero;stroke:none;stroke-width:0;marker:none;visibility:visible;display:inline;overflow:visible;enable-background:accumulate"
         id="rect3873"
         width="22"
         height="22"
         x="417"
         y="101"
         ry="5" />
    </clipPath>
    <linearGradient
       y2="28"
       x2="384"
       y1="124"
       x1="384"
       gradientUnits="userSpaceOnUse"
       id="linearGradient4350"
       xlink:href="#outerBackgroundGradient"
       inkscape:collect="always" />
    <clipPath
       id="clipPath4346"
       clipPathUnits="userSpaceOnUse">
      <rect
         ry="18"
         y="32"
         x="292"
         height="88"
         width="88"
         id="rect4348"
         style="color:#bebebe;fill:url(#linearGradient4350);fill-opacity:1;fill-rule:nonzero;stroke:none;stroke-width:0;marker:none;visibility:visible;display:inline;overflow:visible;enable-background:accumulate" />
    </clipPath>
    <linearGradient
       y2="140"
       x2="352"
       y1="204"
       x1="352"
       gradientUnits="userSpaceOnUse"
       id="linearGradient4191"
       xlink:href="#outerBackgroundGradient"
       inkscape:collect="always" />
    <clipPath
       id="clipPath4187"
       clipPathUnits="userSpaceOnUse">
      <rect
         style="color:#bebebe;fill:url(#linearGradient4191);fill-opacity:1;fill-rule:nonzero;stroke:none;stroke-width:0;marker:none;visibility:visible;display:inline;overflow:visible;enable-background:accumulate"
         id="rect4189"
         width="60"
         height="60"
         x="290"
         y="142"
         ry="12.5" />
    </clipPath>
    <linearGradient
       y2="40"
       x2="144"
       y1="280"
       x1="144"
       gradientTransform="translate(0,-4)"
       gradientUnits="userSpaceOnUse"
       id="linearGradient3866"
       xlink:href="#outerBackgroundGradient"
       inkscape:collect="always" />
    <clipPath
       id="clipPath3862"
       clipPathUnits="userSpaceOnUse">
      <rect
         style="color:#bebebe;fill:url(#linearGradient3866);fill-opacity:1;fill-rule:nonzero;stroke:none;stroke-width:0;marker:none;visibility:visible;display:inline;overflow:visible;enable-background:accumulate"
         id="rect3864"
         width="220"
         height="220"
         x="34"
         y="46"
         ry="50" />
    </clipPath>
    <linearGradient
       y2="40.00005"
       x2="144"
       y1="280.00003"
       x1="144"
       gradientTransform="matrix(0.06666667,0,0,0.06666667,302.4,209.33333)"
       gradientUnits="userSpaceOnUse"
       id="linearGradient3859"
       xlink:href="#outerBackgroundGradient"
       inkscape:collect="always" />
    <clipPath
       id="clipPath3855"
       clipPathUnits="userSpaceOnUse">
      <rect
         transform="matrix(0,1,-1,0,0,0)"
         ry="3"
         y="212"
         x="304"
         height="16"
         width="16"
         id="rect3857"
         style="color:#bebebe;fill:url(#linearGradient3859);fill-opacity:1;fill-rule:nonzero;stroke:none;stroke-width:0;marker:none;visibility:visible;display:inline;overflow:visible;enable-background:accumulate" />
    </clipPath>
    <linearGradient
       y2="40.00005"
       x2="149.71432"
       y1="291.42862"
       x1="149.71432"
       gradientTransform="matrix(0.11931818,0,0,0.11931818,430.13636,32.227267)"
       gradientUnits="userSpaceOnUse"
       id="linearGradient4093"
       xlink:href="#outerBackgroundGradient"
       inkscape:collect="always" />
    <clipPath
       id="clipPath4089"
       clipPathUnits="userSpaceOnUse">
      <rect
         ry="6"
         y="37"
         x="433"
         height="30"
         width="30"
         id="rect4091"
         style="color:#bebebe;fill:url(#linearGradient4093);fill-opacity:1;fill-rule:nonzero;stroke:none;stroke-width:0;marker:none;visibility:visible;display:inline;overflow:visible;enable-background:accumulate" />
    </clipPath>
    <linearGradient
       y2="40.000046"
       x2="149.71428"
       y1="291.42862"
       x1="149.71428"
       gradientTransform="matrix(0.0875,0,0,0.0875,430.9,81.499996)"
       gradientUnits="userSpaceOnUse"
       id="linearGradient4048"
       xlink:href="#outerBackgroundGradient"
       inkscape:collect="always" />
    <clipPath
       id="clipPath4044"
       clipPathUnits="userSpaceOnUse">
      <rect
         style="color:#bebebe;fill:url(#linearGradient4048);fill-opacity:1;fill-rule:nonzero;stroke:none;stroke-width:0;marker:none;visibility:visible;display:inline;overflow:visible;enable-background:accumulate"
         id="rect4046"
         width="22"
         height="22"
         x="433"
         y="85"
         ry="4" />
    </clipPath>
    <linearGradient
       y2="40.000172"
       x2="144.00006"
       y1="280.00018"
       x1="144.00006"
       gradientTransform="matrix(0.175,0,0,0.175,302.79999,215.99997)"
       gradientUnits="userSpaceOnUse"
       id="linearGradient4895"
       xlink:href="#outerBackgroundGradient"
       inkscape:collect="always" />
    <clipPath
       id="clipPath4891"
       clipPathUnits="userSpaceOnUse">
      <rect
         transform="matrix(0,1,-1,0,0,0)"
         style="color:#bebebe;fill:url(#linearGradient4895);fill-opacity:1;fill-rule:nonzero;stroke:none;stroke-width:0;marker:none;visibility:visible;display:inline;overflow:visible;enable-background:accumulate"
         id="rect4893"
         width="42"
         height="42"
         x="307"
         y="223"
         ry="9" />
    </clipPath>
    <linearGradient
       id="outerBackgroundGradient">
      <stop
         id="stop3864-8-6"
         offset="0"
         style="stop-color:#b94642;stop-opacity:1;" />
      <stop
         id="stop3866-9-1"
         offset="1"
         style="stop-color:#c66a58;stop-opacity:1;" />
    </linearGradient>
    <linearGradient
       inkscape:collect="always"
       xlink:href="#linearGradient4460"
       id="linearGradient4104"
       gradientUnits="userSpaceOnUse"
       gradientTransform="matrix(1.10525,0,0,1.10525,-134.27874,-295.76183)"
       y1="279.09601"
       x2="0"
       y2="268.32999" />
    <pattern
       patternUnits="userSpaceOnUse"
       width="47.108848"
       height="65"
       patternTransform="matrix(0.28222223,0,0,0.28222223,-14.159837,-6.208889)"
       id="pattern3989">
      <path
         sodipodi:nodetypes="ccsccccccccccccccccccccccccccsccsccccsscccccccccc"
         id="path3958"
         d="m 0,14.561951 4.2148452,6.423828 c 0.272374,-0.441772 0.5821972,-0.861486 0.964846,-1.244138 1.6071165,-1.60711 3.8277566,-2.216754 5.9160118,-1.87891 L 5.1726507,0 z m 11.095703,3.30078 1.091792,1.650396 c 0.4212,0.181453 0.818582,0.394086 1.193354,0.685544 l 0.685545,-1.091795 c -0.893916,-0.665944 -1.916759,-1.073633 -2.970691,-1.244145 z m 2.970691,1.244145 c 0.261921,0.19513 0.524044,0.397084 0.761726,0.634765 2.464345,2.464405 2.642048,6.391379 0.5332,9.064451 l 3.554691,3.554686 -1.117188,1.117189 -3.554693,-3.55469 c -2.196993,1.741791 -5.236955,1.915555 -7.617175,0.558596 L 0,40.561952 0.17266535,52.816988 15.172664,65 37.58257,61.652015 40.172664,28.449416 47.108848,15 37.970049,11.59458 14.622611,1.5945803 z M 6.626955,30.481873 7.3378912,29.390076 C 6.8993219,29.145942 6.4667479,28.849009 6.0937546,28.476016 4.4026546,26.784915 4.0694066,24.274191 5.0273467,22.229917 L 4.2148452,20.985779 c -1.6182496,2.624528 -1.3084335,6.131037 0.964846,8.404297 0.4398236,0.439824 0.9312874,0.797645 1.4472638,1.091797 z M 5.0273467,22.229917 12.236254,25 7.3378912,29.390076 c 2.1001074,1.16902 4.7900338,0.872076 6.5761578,-0.91406 2.159129,-2.159144 2.159129,-5.661182 0,-7.820317 -0.166464,-0.166465 -0.352169,-0.31624 -0.5332,-0.457028 l -0.38086,0.558593 -0.812494,-1.244137 c -2.014313,-0.867811 -4.4457058,-0.50541 -6.0937404,1.142572 -0.468039,0.468041 -0.801287,1.008434 -1.0664079,1.574218 z m 14.2187443,9.978517 3.554688,3.554688 -1.599608,1.599611 -3.554691,-3.554689 z"
         style="fill:#2d2d2d"
         inkscape:connector-curvature="0" />
    </pattern>
    <linearGradient
       x2="0"
       gradientUnits="userSpaceOnUse"
       y2="268.33"
       y1="279.096"
       id="linearGradient3007"
       xlink:href="#linearGradient4460-5"
       gradientTransform="matrix(1.10525,0,0,1.10525,-134.27874,-295.76183)" />
    <linearGradient
       id="linearGradient4460-5">
      <stop
         id="stop5312"
         style="stop-color:#d7d7d7"
         offset="0" />
      <stop
         id="stop5314"
         style="stop-color:#efefef"
         offset="1" />
    </linearGradient>
    <linearGradient
       inkscape:collect="always"
       xlink:href="#linearGradient5393"
       id="linearGradient5399"
       x1="8.9443693"
       y1="1025.3622"
       x2="30.555628"
       y2="1025.3622"
       gradientUnits="userSpaceOnUse" />
    <linearGradient
       inkscape:collect="always"
       xlink:href="#linearGradient5393-4"
       id="linearGradient5399-7"
       x1="8.9443693"
       y1="1025.3622"
       x2="30.555628"
       y2="1025.3622"
       gradientUnits="userSpaceOnUse" />
    <linearGradient
       id="linearGradient5393-4">
      <stop
         style="stop-color:#0a403e;stop-opacity:1;"
         offset="0"
         id="stop5395-7" />
      <stop
         style="stop-color:#0a6363;stop-opacity:1;"
         offset="1"
         id="stop5397-5" />
    </linearGradient>
    <linearGradient
       inkscape:collect="always"
       xlink:href="#linearGradient5393-4"
       id="linearGradient3041-3"
       gradientUnits="userSpaceOnUse"
       x1="8.9443693"
       y1="1025.3622"
       x2="30.555628"
       y2="1025.3622" />
    <linearGradient
       id="linearGradient3057">
      <stop
         style="stop-color:#0a403e;stop-opacity:1;"
         offset="0"
         id="stop3059" />
      <stop
         style="stop-color:#0a6363;stop-opacity:1;"
         offset="1"
         id="stop3061" />
    </linearGradient>
    <linearGradient
       inkscape:collect="always"
       xlink:href="#linearGradient3862"
       id="linearGradient3868"
       x1="8.9443696"
       y1="1025.3622"
       x2="30.555627"
       y2="1025.3622"
       gradientUnits="userSpaceOnUse" />
    <linearGradient
       id="linearGradient5393-1">
      <stop
         style="stop-color:#0a403e;stop-opacity:1;"
         offset="0"
         id="stop5395-5" />
      <stop
         style="stop-color:#0a6363;stop-opacity:1;"
         offset="1"
         id="stop5397-7" />
    </linearGradient>
    <linearGradient
       inkscape:collect="always"
       xlink:href="#linearGradient5393-1"
       id="linearGradient3041-9"
       gradientUnits="userSpaceOnUse"
       x1="8.9443693"
       y1="1025.3622"
       x2="30.555628"
       y2="1025.3622" />
    <linearGradient
       id="linearGradient9318">
      <stop
         style="stop-color:#0c4d4a;stop-opacity:1;"
         offset="0"
         id="stop9320" />
      <stop
         style="stop-color:#085050;stop-opacity:1;"
         offset="1"
         id="stop9322" />
    </linearGradient>
    <linearGradient
       inkscape:collect="always"
       xlink:href="#linearGradient9318"
       id="linearGradient14830"
       x1="9.4221478"
       y1="1025.3622"
       x2="30.077848"
       y2="1025.3622"
       gradientUnits="userSpaceOnUse" />
    <linearGradient
       inkscape:collect="always"
       xlink:href="#linearGradient9318-6"
       id="linearGradient14830-9"
       x1="9.4221478"
       y1="1025.3622"
       x2="30.077848"
       y2="1025.3622"
       gradientUnits="userSpaceOnUse" />
    <linearGradient
       id="linearGradient9318-6">
      <stop
         style="stop-color:#0c4d4a;stop-opacity:1;"
         offset="0"
         id="stop9320-1" />
      <stop
         style="stop-color:#085050;stop-opacity:1;"
         offset="1"
         id="stop9322-8" />
    </linearGradient>
    <linearGradient
       inkscape:collect="always"
       xlink:href="#linearGradient9318-6"
       id="linearGradient8818"
       x1="9.4221478"
       y1="1025.3622"
       x2="30.077848"
       y2="1025.3622"
       gradientUnits="userSpaceOnUse" />
    <linearGradient
       id="linearGradient8820">
      <stop
         style="stop-color:#0c4d4a;stop-opacity:1;"
         offset="0"
         id="stop8822" />
      <stop
         style="stop-color:#085050;stop-opacity:1;"
         offset="1"
         id="stop8824" />
    </linearGradient>
    <filter
       inkscape:collect="always"
       id="filter8861">
      <feGaussianBlur
         inkscape:collect="always"
         stdDeviation="0.0925"
         id="feGaussianBlur8863" />
    </filter>
    <linearGradient
       inkscape:collect="always"
       xlink:href="#linearGradient5393"
       id="linearGradient9406"
       gradientUnits="userSpaceOnUse"
       x1="8.9443693"
       y1="1025.3622"
       x2="30.555628"
       y2="1025.3622" />
    <linearGradient
       gradientTransform="translate(-78.066775,-887.05181)"
       xlink:href="#0"
       id="B"
       y1="1050.36"
       x2="0"
       y2="1006.36"
       gradientUnits="userSpaceOnUse" />
    <linearGradient
       id="0">
      <stop
         stop-color="#c34141"
         id="stop7-8" />
      <stop
         offset="1"
         stop-color="#d76464"
         id="stop9-3" />
    </linearGradient>
    <linearGradient
       inkscape:collect="always"
       xlink:href="#linearGradient4460"
       id="linearGradient3108"
       gradientUnits="userSpaceOnUse"
       gradientTransform="matrix(0.28222223,0,0,0.28222223,5.9916667e-7,-283.45335)"
       y1="1050.36"
       x2="0"
       y2="1006.36" />
    <radialGradient
       cx="148.004"
       cy="160"
       gradientTransform="matrix(0.1831,0,0,0.1831,-3.10029,-5.29688)"
       id="radial0"
       r="128"
       gradientUnits="userSpaceOnUse">
      <stop
         offset="0"
         style="stop-color:#93d1e7"
         id="stop7-2" />
      <stop
         offset="1"
         style="stop-color:#037386"
         id="stop9-8" />
    </radialGradient>
    <radialGradient
       r="128"
       cy="160"
       cx="148.004"
       gradientTransform="matrix(0.1831,0,0,0.1831,-3.66279,-5.85938)"
       gradientUnits="userSpaceOnUse"
       id="radialGradient3002"
       xlink:href="#radial0"
       inkscape:collect="always" />
    <radialGradient
       inkscape:collect="always"
       xlink:href="#radial0"
       id="radialGradient3118"
       gradientUnits="userSpaceOnUse"
       gradientTransform="matrix(0.05167489,0,0,0.05167489,-0.87511191,-1.4947612)"
       cx="148.004"
       cy="160"
       r="128" />
  </defs>
  <path
     inkscape:connector-curvature="0"
     style="fill:url(#radialGradient3118)"
     d="m 13.387776,3.2589209 0,7.0290971 c 0,2.892778 0,3.100035 -3.100035,3.100035 l -7.0279949,0 c -3.10113721,0 -3.10113721,-0.207257 -3.10113721,-3.100035 l 0,-7.0290971 c 0,-2.89277779 0,-3.10003479 3.10113721,-3.10003479 l 7.0279949,0 c 3.100035,0 3.100035,0.207257 3.100035,3.10003479 z"
     id="path11" />
  <path
     inkscape:connector-curvature="0"
     id="path15"
     d="m 10.799269,13.388053 c 0.717682,-0.0033 1.235825,-0.02315 1.611753,-0.124575 l -1.193932,-2.046111 -1.2655902,2.170686 0.3362412,0 c 0.180799,0 0.350573,0 0.511528,0 z M 11.21709,11.217367 9.7707012,8.7368984 8.3232099,11.217367 z m 0,0 2.159662,0 c 0.0088,-0.274505 0.01102,-0.582083 0.01102,-0.930451 l 0,-0.3097833 -0.723194,-1.2402343 z M 12.664582,8.7368984 11.21709,6.2564297 9.7707012,8.7368984 z m 0,0 0.723194,0 0,-1.2402343 z m -2.8938808,0 L 8.3232099,6.2564297 6.876821,8.7368984 z m -2.8938802,0 -1.4474916,2.4804686 2.8938805,0 z m 0,0 L 5.4293294,6.2564297 3.9829405,8.7368984 z m -2.8938805,0 -1.4474913,2.4804686 2.8938802,0 z m 0,0 L 2.5354492,6.2564297 1.0890603,8.7368984 z m -2.8938802,0 -0.93045141,1.5941146 c 0,0.329627 0.00331,0.623976 0.011024,0.886354 l 2.36581621,0 z m 0,0 -0.93045141,-1.5941145 0,1.5941145 z m 1.4463889,2.4804686 -1.2170833,2.086901 c 0.450894,0.08268 1.0748699,0.08379 1.9413802,0.08379 l 0.5423958,0 z m 0,-4.9609373 -1.4463889,-2.4804689 -0.93045141,1.5941147 0,0.8863542 z m 0,0 2.8938802,0 L 3.9829405,3.7759608 z M 3.9829405,3.7759608 2.5354492,1.2954921 1.0890603,3.7759608 z m 0,0 2.8938805,0 -1.4474916,-2.4804687 z m 1.4463889,-2.4804687 -0.663663,-1.13660599 -1.5070227,0 c -0.020946,0 -0.038585,0 -0.059531,0 L 2.5354493,1.2954921 z m 0,0 2.8938805,0 -0.6636633,-1.13660599 -1.5665538,0 z m 2.8938805,0 2.8938801,0 -0.663663,-1.13660599 c -0.0882,0 -0.171979,0 -0.266788,0 l -1.299766,0 z m 0,0 -1.4463889,2.4804687 2.8938802,0 z m 1.4474913,2.4804687 2.8938808,0 -1.447492,-2.4804687 z m 0,0 -1.4474913,2.4804689 2.8938801,0 z m 1.4463888,2.4804689 2.170686,0 0,-1.2402343 -0.723194,-1.2402346 z m 1.447492,-2.4804689 0.723194,0 0,-0.5170399 c 0,-0.2579689 -0.0022,-0.4938889 -0.0066,-0.71217 z M 8.3232099,6.2564297 6.876821,3.7759608 5.4293294,6.2564297 z m 2.8938801,-4.9609376 2.062648,0 C 13.123193,0.51717601 12.747264,0.27133421 11.859807,0.19416391 z m -8.6816408,0 L 1.8850153,0.17983241 C 0.85203759,0.23826141 0.43421639,0.46095201 0.26664689,1.2954921 z M 1.0890603,3.7759608 0.17514539,2.2083046 c -0.012127,0.3031685 -0.016536,0.6515363 -0.016536,1.0506163 l 0,0.5170399 z m 4.3402691,7.4414062 -1.2655903,2.170686 2.532283,0 z m 2.8938805,0 -1.2655906,2.170686 2.5322833,0 z m -7.59133711,1.86862 -0.4519964,-0.775009 c 0.082682,0.371519 0.2215884,0.615157 0.4519964,0.775009 z"
     style="fill:#ffffff;fill-opacity:0.05100002" />
  <g
     style="display:inline;opacity:1"
     inkscape:label="Symbols"
     id="layer6"
     inkscape:groupmode="layer"
     transform="matrix(0.28222223,0,0,0.28222223,22.03218,-33.107606)">
    <path
       style="fill:#f9f9f9;fill-opacity:1"
       d="M 12 13 L 12 30 L 21 36 L 21 18 L 12 13 z M 14 13 L 22 18 L 26 18 L 34 13 C 30 13 28 13.51983 24 17 C 20 13.60709 18 13 14 13 z M 36 13 L 27 18 L 27 24.5625 C 27.235962 24.159464 27.529318 23.783183 27.875 23.4375 C 30.053198 21.259297 33.571802 21.259297 35.75 23.4375 C 35.833777 23.521277 35.922668 23.599873 36 23.6875 L 36 13 z M 22 19 L 22 37 L 26 37 L 26 19 L 22 19 z M 27 30.1875 L 27 36 L 31.59375 32.9375 C 30.240633 32.884329 28.908042 32.345545 27.875 31.3125 C 27.529318 30.966817 27.235962 30.590536 27 30.1875 z "
       transform="translate(-78.066777,117.31041)"
       id="path3912" />
  </g>
  <g
     transform="matrix(0.26191,-0.26191,0.26191,0.26191,-290.1647,-231.38364)"
     id="g5323">
    <path
       inkscape:connector-curvature="0"
       style="fill:none;stroke:#ffffff;stroke-width:1.60000002"
       d="m 28.374998,19.875002 c 0,5.108634 -4.141366,9.25 -9.25,9.25 -5.108634,0 -9.2499999,-4.141366 -9.2499999,-9.25 0,-5.108634 4.1413659,-9.25 9.2499999,-9.25 5.108634,0 9.25,4.141366 9.25,9.25 z"
       transform="translate(0.625,1005.4872)"
       id="path5325" />
  </g>
  <g
     style="fill:#ffffff"
     transform="matrix(0.26191,-0.26191,0.26191,0.26191,-290.1647,-231.38364)"
     id="g5327">
    <rect
       width="3.415"
       x="18.042"
       y="1043.276"
       rx="0"
       height="7.5440001"
       id="rect5329" />
    <rect
       width="2.3959999"
       x="18.552"
       y="1035.526"
       rx="0"
       height="7.5440001"
       id="rect5331" />
  </g>
  <g
     style="fill:#a1a1a1;fill-opacity:1;stroke:none;filter:url(#filter8861)"
     transform="matrix(0.12033272,-0.12033299,0.12033272,0.12033299,-116.78078,-113.28246)"
     id="g5333-0-3" />
  <g
     style="fill:#ffffff;fill-opacity:1;stroke-width:2.1557014;stroke-miterlimit:4;stroke-dasharray:none"
     transform="matrix(0.08769762,-0.08769769,0.08769762,0.08769769,-82.660515,-80.477797)"
     id="g5337">
    <rect
       style="fill:#ffffff;fill-opacity:1;stroke-width:2.1557014;stroke-miterlimit:4;stroke-dasharray:none"
       width="3.415"
       x="18.042"
       y="1043.276"
       rx="0"
       height="7.5440001"
       id="rect5339" />
    <rect
       style="fill:#ffffff;fill-opacity:1;stroke-width:2.1557014;stroke-miterlimit:4;stroke-dasharray:none"
       width="2.3959999"
       x="18.552"
       y="1035.526"
       rx="0"
       height="7.5440001"
       id="rect5341" />
  </g>
  <g
     style="fill:none;stroke:#ffffff;stroke-width:2.1557014;stroke-miterlimit:4;stroke-opacity:1;stroke-dasharray:none"
     transform="matrix(0.08769762,-0.08769769,0.08769762,0.08769769,-82.649683,-80.466968)"
     id="g5333">
    <path
       inkscape:connector-curvature="0"
       style="fill:none;stroke:#ffffff;stroke-width:2.1557014;stroke-miterlimit:4;stroke-opacity:1;stroke-dasharray:none"
       d="m 28.374998,19.875002 c 0,5.108634 -4.141366,9.25 -9.25,9.25 -5.108634,0 -9.2499999,-4.141366 -9.2499999,-9.25 0,-5.108634 4.1413659,-9.25 9.2499999,-9.25 5.108634,0 9.25,4.141366 9.25,9.25 z"
       transform="translate(0.625,1005.4872)"
       id="path5335" />
  </g>
</svg>
