<?xml version="1.0" encoding="UTF-8" standalone="no"?>
<svg
   xmlns:dc="http://purl.org/dc/elements/1.1/"
   xmlns:cc="http://creativecommons.org/ns#"
   xmlns:rdf="http://www.w3.org/1999/02/22-rdf-syntax-ns#"
   xmlns:svg="http://www.w3.org/2000/svg"
   xmlns="http://www.w3.org/2000/svg"
   xmlns:xlink="http://www.w3.org/1999/xlink"
   xmlns:sodipodi="http://sodipodi.sourceforge.net/DTD/sodipodi-0.dtd"
   xmlns:inkscape="http://www.inkscape.org/namespaces/inkscape"
   width="48"
   viewBox="0 0 13.546667 13.546667"
   height="48"
   id="svg2"
   version="1.1"
   inkscape:version="0.48.4 r9939"
   sodipodi:docname="dvdstyler.svg">
  <metadata
     id="metadata32">
    <rdf:RDF>
      <cc:Work
         rdf:about="">
        <dc:format>image/svg+xml</dc:format>
        <dc:type
           rdf:resource="http://purl.org/dc/dcmitype/StillImage" />
      </cc:Work>
    </rdf:RDF>
  </metadata>
  <sodipodi:namedview
     pagecolor="#ffffff"
     bordercolor="#666666"
     borderopacity="1"
     objecttolerance="10"
     gridtolerance="10"
     guidetolerance="10"
     inkscape:pageopacity="0"
     inkscape:pageshadow="2"
     inkscape:window-width="1280"
     inkscape:window-height="998"
     id="namedview30"
     showgrid="false"
     inkscape:zoom="13.906433"
     inkscape:cx="38.766355"
     inkscape:cy="27.119125"
     inkscape:window-x="0"
     inkscape:window-y="0"
     inkscape:window-maximized="1"
     inkscape:current-layer="svg2" />
  <defs
     id="defs4">
    <linearGradient
       id="0">
      <stop
         stop-color="#4b4b4b"
         id="stop7" />
      <stop
         offset="1"
         stop-color="#2d2d2d"
         id="stop9" />
    </linearGradient>
    <linearGradient
       gradientTransform="matrix(0.28222223,0,0,0.28222223,-13.546667,-296.99999)"
       xlink:href="#0"
       id="1"
       y1="1050.36"
       x2="0"
       y2="1006.36"
       gradientUnits="userSpaceOnUse" />
    <radialGradient
       r="128"
       cy="160"
       cx="148.004"
       gradientTransform="matrix(0.1831,0,0,0.1831,-3.10079,-5.2963797)"
       gradientUnits="userSpaceOnUse"
       id="radialGradient3010"
       xlink:href="#radial0"
       inkscape:collect="always" />
    <radialGradient
       cx="148.004"
       cy="160"
       gradientTransform="matrix(0.1831,0,0,0.1831,-3.10029,-5.29688)"
       id="radial0"
       r="128"
       gradientUnits="userSpaceOnUse">
      <stop
         offset="0"
         style="stop-color:#ee6fa6;stop-opacity:1;"
         id="stop7-4" />
      <stop
         offset="1"
         style="stop-color:#c71077;stop-opacity:1;"
         id="stop9-6" />
    </radialGradient>
    <radialGradient
       r="128"
       cy="160"
       cx="148.004"
       gradientTransform="matrix(0.05167489,0,0,0.05167489,-0.87511191,-1.4947616)"
       gradientUnits="userSpaceOnUse"
       id="radialGradient3016"
       xlink:href="#radial0"
       inkscape:collect="always" />
  </defs>
  <path
     inkscape:connector-curvature="0"
     style="fill:url(#radialGradient3016)"
     d="m 13.387776,3.2589205 0,7.0290975 c 0,2.892778 0,3.100035 -3.100035,3.100035 l -7.0279949,0 c -3.10113721,0 -3.10113721,-0.207257 -3.10113721,-3.100035 l 0,-7.0290975 c 0,-2.89277789 0,-3.10003479 3.10113721,-3.10003479 l 7.0279949,0 c 3.100035,0 3.100035,0.2072569 3.100035,3.10003479 z"
     id="path11" />
  <path
     inkscape:connector-curvature="0"
     style="fill:#ffffff;fill-opacity:0.05100002"
     d="m 10.799269,13.388053 c 0.717682,-0.0033 1.235825,-0.02315 1.611753,-0.124575 l -1.193932,-2.046111 -1.2655903,2.170686 0.3362413,0 c 0.180799,0 0.350573,0 0.511528,0 z M 11.21709,11.217367 9.7707017,8.736898 8.3232097,11.217367 z m 0,0 2.159662,0 c 0.0088,-0.274505 0.01102,-0.582083 0.01102,-0.930451 l 0,-0.3097839 L 12.664578,8.736898 z M 12.664582,8.736898 11.21709,6.2564293 9.7707017,8.736898 z m 0,0 0.723194,0 0,-1.2402343 z m -2.8938803,0 -1.447492,-2.4804687 -1.446389,2.4804687 z m -2.893881,0 -1.447491,2.480469 2.89388,0 z m 0,0 -1.447491,-2.4804687 -1.446389,2.4804687 z m -2.89388,0 -1.4474912,2.480469 2.8938802,0 z m 0,0 L 2.5354495,6.2564293 1.0890603,8.736898 z m -2.8938804,0 -0.93045141,1.594115 c 0,0.329627 0.00331,0.623976 0.011024,0.886354 l 2.36581651,0 z m 0,0 -0.93045141,-1.5941145 0,1.5941145 z m 1.4463892,2.480469 -1.2170836,2.086901 c 0.4508943,0.08268 1.0748701,0.08379 1.9413802,0.08379 l 0.5423956,0 z m 0,-4.9609377 -1.4463892,-2.4804689 -0.93045141,1.5941147 0,0.8863542 z m 0,0 2.8938802,0 -1.446389,-2.4804689 z M 3.9829407,3.7759604 2.5354495,1.2954917 1.0890603,3.7759604 z m 0,0 2.89388,0 -1.447491,-2.4804687 z m 1.446389,-2.4804687 -0.663663,-1.13660599 -1.507023,0 c -0.020946,0 -0.038585,0 -0.059531,0 L 2.5354496,1.2954917 z m 0,0 2.89388,0 -0.663663,-1.13660599 -1.566554,0 z m 2.89388,0 2.8938803,0 -0.663663,-1.13660599 c -0.0882,0 -0.171979,0 -0.266788,0 l -1.2997663,0 z m 0,0 -1.446389,2.4804687 2.893881,0 z m 1.447492,2.4804687 2.8938803,0 -1.447492,-2.4804687 z m 0,0 -1.447492,2.4804689 2.8938803,0 z m 1.4463883,2.4804689 2.170686,0 0,-1.2402343 -0.723194,-1.2402346 z m 1.447492,-2.4804689 0.723194,0 0,-0.5170399 c 0,-0.2579689 -0.0022,-0.4938889 -0.0066,-0.71217 z M 8.3232097,6.2564293 6.8768207,3.7759604 5.4293297,6.2564293 z m 2.8938803,-4.9609376 2.062648,0 C 13.123193,0.51717561 12.747264,0.27133381 11.859807,0.19416351 z m -8.6816405,0 L 1.8850156,0.17983201 C 0.85203769,0.23826071 0.43421639,0.46095151 0.26664699,1.2954917 z M 1.0890603,3.7759604 0.17514549,2.2083042 c -0.012127,0.3031685 -0.016535,0.6515362 -0.016535,1.0506163 l 0,0.5170399 z m 4.3402694,7.4414066 -1.265591,2.170686 2.532283,0 z m 2.89388,0 -1.26559,2.170686 2.532283,0 z m -7.59133691,1.86862 -0.4519964,-0.775009 c 0.082682,0.371519 0.2215885,0.615157 0.4519964,0.775009 z"
     id="path13" />
  <path
     d="m 6.7733338,2.54 c -2.3367842,0 -4.2333337,1.8965481 -4.2333337,4.2333339 0,2.3367859 1.8965495,4.2333331 4.2333337,4.2333331 2.3367869,0 4.2333332,-1.8965472 4.2333332,-4.2333331 0,-0.4381474 -0.06132,-0.8631534 -0.185063,-1.260747 -0.204675,0.4194871 -0.412971,0.8132824 -0.613024,1.1219492 0.01757,0.023679 0.04636,0.047698 0.05783,0.069399 l -0.173497,0.0347 -0.01157,0.1156649 -1.08725,1.4458108 -0.011566,0 c 0.055008,0.080889 0.090459,0.1825302 0.092532,0.3007286 0.013718,0.7822624 -0.8064421,0.8294522 -1.8390712,1.0525502 0,0 0.3510829,-0.5624554 0.6361567,-1.168215 C 8.0201136,8.1707541 8.3155639,8.0411326 8.5777056,8.0687803 L 9.3295271,6.4263393 9.4220591,6.3453743 9.3642271,6.171877 c 0.025649,-0.00554 0.05271,-6.57e-4 0.080967,0 C 9.6926796,5.7255999 10.033339,5.1562507 10.382078,4.5757016 9.6385156,3.3573975 8.3040884,2.54 6.7733338,2.54 z m 0,2.9147545 c 0.7286808,0 1.3185794,0.5899001 1.3185794,1.3185794 0,0.728679 -0.5898986,1.3301459 -1.3185794,1.3301459 -0.7286793,0 -1.3301458,-0.6014669 -1.3301458,-1.3301459 0,-0.7286793 0.6014665,-1.3185794 1.3301458,-1.3185794 z m 0,0.2660292 c -0.5857627,0 -1.0641167,0.4667774 -1.0641167,1.0525502 0,0.5857728 0.478354,1.0641167 1.0641167,1.0641167 0.5857639,0 1.0525502,-0.4783439 1.0525502,-1.0641167 0,-0.5857728 -0.4667863,-1.0525502 -1.0525502,-1.0525502 z m 0,0.3932606 c 0.3651213,0 0.6592898,0.294167 0.6592898,0.6592896 0,0.3651231 -0.2941685,0.6592898 -0.6592898,0.6592898 -0.3651201,0 -0.6592896,-0.2941667 -0.6592896,-0.6592898 0,-0.3651226 0.2941695,-0.6592896 0.6592896,-0.6592896 z"
     fill="#f462c7"
     id="path28"
     style="fill:#f9f9f9;fill-opacity:1" />
</svg>
