<?xml version="1.0" encoding="UTF-8" standalone="no"?>
<svg
   xmlns:dc="http://purl.org/dc/elements/1.1/"
   xmlns:cc="http://creativecommons.org/ns#"
   xmlns:rdf="http://www.w3.org/1999/02/22-rdf-syntax-ns#"
   xmlns:svg="http://www.w3.org/2000/svg"
   xmlns="http://www.w3.org/2000/svg"
   xmlns:xlink="http://www.w3.org/1999/xlink"
   xmlns:sodipodi="http://sodipodi.sourceforge.net/DTD/sodipodi-0.dtd"
   xmlns:inkscape="http://www.inkscape.org/namespaces/inkscape"
   width="48"
   viewBox="0 0 13.546667 13.546667"
   height="48"
   id="svg2"
   version="1.1"
   inkscape:version="0.48.4 r9939"
   sodipodi:docname="emerald-decorator.svg">
  <metadata
     id="metadata28">
    <rdf:RDF>
      <cc:Work
         rdf:about="">
        <dc:format>image/svg+xml</dc:format>
        <dc:type
           rdf:resource="http://purl.org/dc/dcmitype/StillImage" />
        <dc:title />
      </cc:Work>
    </rdf:RDF>
  </metadata>
  <sodipodi:namedview
     pagecolor="#333333"
     bordercolor="#666666"
     borderopacity="1"
     objecttolerance="10"
     gridtolerance="10"
     guidetolerance="10"
     inkscape:pageopacity="1"
     inkscape:pageshadow="2"
     inkscape:window-width="1280"
     inkscape:window-height="998"
     id="namedview26"
     showgrid="false"
     inkscape:zoom="5.540853"
     inkscape:cx="-19.280895"
     inkscape:cy="-2.1934469"
     inkscape:window-x="0"
     inkscape:window-y="0"
     inkscape:window-maximized="1"
     inkscape:current-layer="svg2">
    <inkscape:grid
       type="xygrid"
       id="grid3008" />
  </sodipodi:namedview>
  <defs
     id="defs4">
    <linearGradient
       id="linearGradient3788">
      <stop
         style="stop-color:#5ccc01;stop-opacity:1;"
         offset="0"
         id="stop3790" />
      <stop
         style="stop-color:#b7fe3b;stop-opacity:0;"
         offset="1"
         id="stop3792" />
    </linearGradient>
    <linearGradient
       id="linearGradient4460">
      <stop
         offset="0"
         style="stop-color:#d7d7d7;stop-opacity:1;"
         id="stop7" />
      <stop
         offset="1"
         style="stop-color:#f1f1f1;stop-opacity:1;"
         id="stop9" />
    </linearGradient>
    <linearGradient
       gradientTransform="matrix(1.09524,0,0,1.09524,-133.00183,-293.02198)"
       xlink:href="#linearGradient4460"
       id="linearGradient3102"
       y1="279.096"
       y2="268.33"
       gradientUnits="userSpaceOnUse"
       x2="0" />
    <linearGradient
       inkscape:collect="always"
       xlink:href="#linearGradient4460"
       id="linearGradient3006"
       gradientUnits="userSpaceOnUse"
       gradientTransform="matrix(1.09524,0,0,1.09524,-133.02411,-293.02516)"
       y1="279.096"
       x2="0"
       y2="268.33" />
    <linearGradient
       inkscape:collect="always"
       xlink:href="#1"
       id="linearGradient3013"
       gradientUnits="userSpaceOnUse"
       y1="1050.36"
       x2="0"
       y2="1006.36"
       gradientTransform="translate(0,-1004.3622)" />
    <linearGradient
       id="1">
      <stop
         stop-color="#dbdbdb"
         id="stop8" />
      <stop
         offset="1"
         stop-color="#f9f9f9"
         id="stop10" />
    </linearGradient>
    <linearGradient
       y2="1006.36"
       x2="0"
       y1="1050.36"
       gradientTransform="translate(0,-1004.3622)"
       gradientUnits="userSpaceOnUse"
       id="linearGradient3155"
       xlink:href="#1"
       inkscape:collect="always" />
    <linearGradient
       inkscape:collect="always"
       xlink:href="#linearGradient4460"
       id="linearGradient3035"
       gradientUnits="userSpaceOnUse"
       gradientTransform="matrix(0.28222223,0,0,0.28222223,0,-283.45334)"
       y1="1050.36"
       x2="0"
       y2="1006.36" />
    <radialGradient
       r="128"
       cy="160"
       cx="148.004"
       gradientTransform="matrix(0.05167489,0,0,0.05167489,-0.87510811,-1.4947608)"
       gradientUnits="userSpaceOnUse"
       id="radialGradient3012"
       xlink:href="#radial0"
       inkscape:collect="always" />
    <radialGradient
       cx="148.004"
       cy="160"
       gradientTransform="matrix(0.1831,0,0,0.1831,-3.10029,-5.29688)"
       id="radial0"
       r="128"
       gradientUnits="userSpaceOnUse">
      <stop
         offset="0"
         style="stop-color:#bded7d;stop-opacity:1;"
         id="stop7-6" />
      <stop
         offset="1"
         style="stop-color:#6ab700;stop-opacity:1;"
         id="stop9-6" />
    </radialGradient>
    <radialGradient
       r="128"
       cy="160"
       cx="148.004"
       gradientTransform="matrix(0.05167489,0,0,0.05167489,-0.87510811,-1.4947615)"
       gradientUnits="userSpaceOnUse"
       id="radialGradient3009"
       xlink:href="#radial0"
       inkscape:collect="always" />
  </defs>
  <path
     inkscape:connector-curvature="0"
     style="fill:url(#radialGradient3009)"
     d="m 13.38778,3.2589205 0,7.0290975 c 0,2.892777 0,3.100035 -3.100035,3.100035 l -7.027995,0 c -3.10113711,0 -3.10113711,-0.207258 -3.10113711,-3.100035 l 0,-7.0290975 c 0,-2.89277789 0,-3.10003479 3.10113711,-3.10003479 l 7.027995,0 c 3.100035,0 3.100035,0.2072569 3.100035,3.10003479 z"
     id="path11" />
  <path
     id="path15"
     d="m 10.799273,13.388053 c 0.717682,-0.0033 1.235825,-0.02315 1.611753,-0.124575 l -1.193932,-2.046111 -1.2655898,2.170686 0.3362408,0 c 0.180799,0 0.350573,0 0.511528,0 z m 0.417821,-2.170686 -1.4463888,-2.480469 -1.447491,2.480469 z m 0,0 2.159662,0 c 0.0088,-0.274505 0.01102,-0.582083 0.01102,-0.930451 l 0,-0.3097837 L 12.664582,8.736898 z M 12.664586,8.736898 11.217094,6.2564293 9.7707052,8.736898 z m 0,0 0.723194,0 0,-1.2402343 z m -2.8938808,0 -1.447491,-2.4804687 -1.446389,2.4804687 z m -2.89388,0 -1.447492,2.480469 2.893881,0 z m 0,0 -1.447492,-2.4804687 -1.446389,2.4804687 z m -2.893881,0 -1.4474913,2.480469 2.8938803,0 z m 0,0 L 2.5354529,6.2564293 1.0890639,8.736898 z m -2.8938803,0 -0.93045101,1.594114 c 0,0.329628 0.0033,0.623977 0.01102,0.886355 l 2.36581601,0 z m 0,0 -0.93045101,-1.5941145 0,1.5941145 z m 1.446389,2.480469 -1.217083,2.086901 c 0.450894,0.08268 1.07487,0.08379 1.940278,0.08379 l 0.5434983,0 z m 0,-4.9609377 -1.446389,-2.4804689 -0.93045101,1.5941147 0,0.8863542 z m 0,0 2.8938803,0 -1.446389,-2.4804689 z M 3.9829442,3.7759604 2.5354529,1.2954918 1.0890639,3.7759604 z m 0,0 2.893881,0 -1.447492,-2.4804686 z m 1.446389,-2.4804686 -0.663663,-1.13660609 -1.5070223,0 c -0.020949,0 -0.03858,0 -0.05953,0 L 2.5354539,1.2954918 z m 0,0 2.893881,0 -0.663663,-1.13660609 -1.566554,0 z m 2.893881,0 2.8938798,0 -0.663663,-1.13660609 c -0.0882,0 -0.171979,0 -0.266788,0 l -1.2997658,0 z m 0,0 -1.446389,2.4804686 2.89388,0 z m 1.447491,2.4804686 2.8938808,0 -1.447492,-2.4804686 z m 0,0 -1.447491,2.4804689 2.8938798,0 z m 1.4463888,2.4804689 2.170686,0 0,-1.2402343 -0.723194,-1.2402346 z m 1.447492,-2.4804689 0.723194,0 0,-0.5170399 c 0,-0.2579689 -0.0022,-0.4938889 -0.0066,-0.71217 z M 8.3232142,6.2564293 6.8768252,3.7759604 5.4293332,6.2564293 z m 2.8938798,-4.9609375 2.062648,0 C 13.123197,0.51717561 12.747268,0.27133371 11.859811,0.19416341 z m -8.6816411,0 -0.650434,-1.11565989 C 0.85204189,0.23826091 0.43421989,0.46095161 0.26665089,1.2954918 z M 1.0890639,3.7759604 0.17514889,2.2083043 c -0.01213,0.3031684 -0.01654,0.6515362 -0.01654,1.0506162 l 0,0.5170399 z m 4.3402693,7.4414066 -1.26559,2.170686 2.532283,0 z m 2.893881,0 -1.265591,2.170686 2.532284,0 z m -7.59133731,1.86862 -0.451997,-0.775009 c 0.08268,0.371519 0.221589,0.615157 0.451997,0.775009 z"
     style="fill:#ffffff;fill-opacity:0.05100002"
     inkscape:connector-curvature="0" />
  <path
     style="fill:none;stroke:#f9f9f9;stroke-width:0.50000000000000000;stroke-linecap:butt;stroke-linejoin:miter;stroke-opacity:1;stroke-miterlimit:4;stroke-dasharray:none;fill-opacity:1"
     d="m 11.676951,33.579284 7.848443,-19.397777 4.275168,-2.743764 4.083742,2.233296 6.69989,7.97606 0.701894,7.274166 -2.679956,3.38185 z"
     id="path3010"
     inkscape:connector-curvature="0"
     transform="scale(0.28222223,0.28222223)" />
  <path
     style="fill:none;stroke:#f9f9f9;stroke-width:0.50000000000000000;stroke-linecap:butt;stroke-linejoin:miter;stroke-miterlimit:4;stroke-opacity:1;stroke-dasharray:none;fill-opacity:1"
     d="m 11.964033,33.441716 7.497553,-11.092723 0.07155,-7.724811"
     id="path3796"
     inkscape:connector-curvature="0"
     transform="scale(0.28222223,0.28222223)"
     sodipodi:nodetypes="ccc" />
  <path
     style="fill:none;stroke:#f9f9f9;stroke-width:0.50000000000000000;stroke-linecap:butt;stroke-linejoin:miter;stroke-miterlimit:4;stroke-opacity:1;stroke-dasharray:none;fill-opacity:1"
     d="m 12.158996,33.235472 12.981544,-3.484696 -5.551338,-7.082741 5.997997,-3.7647 0.350947,-4.881349"
     id="path3798"
     inkscape:connector-curvature="0"
     transform="scale(0.28222223,0.28222223)"
     sodipodi:nodetypes="ccccc" />
  <path
     style="fill:none;stroke:#f9f9f9;stroke-width:0.50000000000000000;stroke-linecap:butt;stroke-linejoin:miter;stroke-miterlimit:4;stroke-opacity:1;stroke-dasharray:none;fill-opacity:1"
     d="m 19.433827,14.405776 8.559405,-0.54851"
     id="path3800"
     inkscape:connector-curvature="0"
     transform="scale(0.28222223,0.28222223)"
     sodipodi:nodetypes="cc" />
  <path
     style="fill:none;stroke:#f9f9f9;stroke-width:0.50000000000000000;stroke-linecap:butt;stroke-linejoin:miter;stroke-opacity:1;stroke-miterlimit:4;stroke-dasharray:none;fill-opacity:1"
     d="m 25.523391,18.967143 3.318041,5.615146 -3.445658,5.296104"
     id="path3802"
     inkscape:connector-curvature="0"
     sodipodi:nodetypes="ccc"
     transform="scale(0.28222223,0.28222223)" />
  <path
     style="fill:none;stroke:#f9f9f9;stroke-width:0.50000000000000000;stroke-linecap:butt;stroke-linejoin:miter;stroke-miterlimit:4;stroke-opacity:1;stroke-dasharray:none;fill-opacity:1"
     d="M 34.417321,21.504 32.405087,32.233558"
     id="path3804"
     inkscape:connector-curvature="0"
     transform="scale(0.28222223,0.28222223)"
     sodipodi:nodetypes="cc" />
  <path
     style="fill:none;stroke:#f9f9f9;stroke-width:0.50000000000000000;stroke-linecap:butt;stroke-linejoin:miter;stroke-miterlimit:4;stroke-opacity:1;stroke-dasharray:none;fill-opacity:1"
     d="m 28.969049,24.646097 4.498497,1.595212"
     id="path3806"
     inkscape:connector-curvature="0"
     transform="scale(0.28222223,0.28222223)"
     sodipodi:nodetypes="cc" />
  <path
     style="fill:none;stroke:#f9f9f9;stroke-width:0.14111111000000001;stroke-linecap:butt;stroke-linejoin:miter;stroke-miterlimit:4;stroke-opacity:1;stroke-dasharray:none;fill-opacity:1"
     d="m 7.1132273,8.4143383 0.6663024,0.522237 0.3549519,0.2419403"
     id="path3808"
     inkscape:connector-curvature="0"
     sodipodi:nodetypes="ccc" />
</svg>
