<?xml version="1.0" encoding="UTF-8" standalone="no"?>
<svg
   xmlns:dc="http://purl.org/dc/elements/1.1/"
   xmlns:cc="http://creativecommons.org/ns#"
   xmlns:rdf="http://www.w3.org/1999/02/22-rdf-syntax-ns#"
   xmlns:svg="http://www.w3.org/2000/svg"
   xmlns="http://www.w3.org/2000/svg"
   xmlns:xlink="http://www.w3.org/1999/xlink"
   xmlns:sodipodi="http://sodipodi.sourceforge.net/DTD/sodipodi-0.dtd"
   xmlns:inkscape="http://www.inkscape.org/namespaces/inkscape"
   width="48"
   viewBox="0 0 13.546667 13.546667"
   height="48"
   id="svg2"
   version="1.1"
   inkscape:version="0.48.4 r9939"
   sodipodi:docname="engrampa.svg">
  <metadata
     id="metadata36">
    <rdf:RDF>
      <cc:Work
         rdf:about="">
        <dc:format>image/svg+xml</dc:format>
        <dc:type
           rdf:resource="http://purl.org/dc/dcmitype/StillImage" />
      </cc:Work>
    </rdf:RDF>
  </metadata>
  <sodipodi:namedview
     pagecolor="#ffffff"
     bordercolor="#666666"
     borderopacity="1"
     objecttolerance="10"
     gridtolerance="10"
     guidetolerance="10"
     inkscape:pageopacity="0"
     inkscape:pageshadow="2"
     inkscape:window-width="672"
     inkscape:window-height="480"
     id="namedview34"
     showgrid="false"
     inkscape:zoom="4.9166667"
     inkscape:cx="34.169492"
     inkscape:cy="28.881356"
     inkscape:window-x="377"
     inkscape:window-y="240"
     inkscape:window-maximized="0"
     inkscape:current-layer="svg2" />
  <defs
     id="defs4">
    <linearGradient
       id="0">
      <stop
         stop-color="#786748"
         id="stop7" />
      <stop
         offset="1"
         stop-color="#9d875f"
         id="stop9" />
    </linearGradient>
    <linearGradient
       gradientTransform="matrix(0.28222223,0,0,0.28222223,0,-283.45334)"
       xlink:href="#0"
       id="1"
       y1="1050.36"
       x2="0"
       y2="1006.36"
       gradientUnits="userSpaceOnUse" />
    <radialGradient
       r="128"
       cy="160"
       cx="148.004"
       gradientTransform="matrix(0.05167489,0,0,0.05167489,-0.87511191,-1.4947562)"
       gradientUnits="userSpaceOnUse"
       id="radialGradient3015"
       xlink:href="#radial0"
       inkscape:collect="always" />
    <radialGradient
       cx="148.004"
       cy="160"
       gradientTransform="matrix(0.1831,0,0,0.1831,-3.10029,-5.29688)"
       id="radial0"
       r="128"
       gradientUnits="userSpaceOnUse">
      <stop
         offset="0"
         style="stop-color:#f5ce7a;stop-opacity:1;"
         id="stop7-0" />
      <stop
         offset="1"
         style="stop-color:#e5a211;stop-opacity:1;"
         id="stop9-2" />
    </radialGradient>
    <radialGradient
       r="128"
       cy="160"
       cx="148.004"
       gradientTransform="matrix(0.05167489,0,0,0.05167489,-0.87510811,-1.4947562)"
       gradientUnits="userSpaceOnUse"
       id="radialGradient3008"
       xlink:href="#radial0"
       inkscape:collect="always" />
  </defs>
  <path
     inkscape:connector-curvature="0"
     style="fill:url(#radialGradient3008)"
     d="m 13.38778,3.2589259 0,7.0290971 c 0,2.892778 0,3.100035 -3.100035,3.100035 l -7.0279951,0 c -3.10113701,0 -3.10113701,-0.207257 -3.10113701,-3.100035 l 0,-7.0290971 c 0,-2.89277779 0,-3.10003479 3.10113701,-3.10003479 l 7.0279951,0 c 3.100035,0 3.100035,0.207257 3.100035,3.10003479 z"
     id="path11" />
  <path
     id="path15"
     d="m 10.799273,13.388058 c 0.717682,-0.0033 1.235825,-0.02315 1.611753,-0.124574 l -1.193932,-2.046112 -1.2655901,2.170686 0.3362411,0 c 0.180799,0 0.350573,0 0.511528,0 z M 11.217094,11.217372 9.7707049,8.7369034 8.3232139,11.217372 z m 0,0 2.159662,0 c 0.0088,-0.274505 0.01102,-0.582083 0.01102,-0.930451 l 0,-0.3097833 -0.723193,-1.2402343 z M 12.664585,8.7369034 11.217094,6.2564347 9.7707049,8.7369034 z m 0,0 0.723195,0 0,-1.2402343 z m -2.8938801,0 -1.447491,-2.4804687 -1.446389,2.4804687 z m -2.89388,0 -1.447492,2.4804686 2.893881,0 z m 0,0 -1.447492,-2.4804687 -1.446389,2.4804687 z m -2.893881,0 -1.447491,2.4804686 2.89388,0 z m 0,0 -1.447491,-2.4804687 -1.446389,2.4804687 z m -2.89388,0 -0.93045101,1.5941146 c 0,0.329627 0.0033,0.623976 0.01102,0.886354 l 2.36581601,0 z m 0,0 -0.93045101,-1.5941145 0,1.5941145 z m 1.446389,2.4804686 -1.217083,2.086901 c 0.450894,0.08268 1.07487,0.08378 1.94138,0.08378 l 0.542396,0 z m 0,-4.9609373 -1.446389,-2.4804689 -0.93045101,1.5941147 0,0.8863542 z m 0,0 2.89388,0 -1.446389,-2.4804689 z M 3.9829439,3.7759658 2.5354529,1.2954971 1.0890639,3.7759658 z m 0,0 2.893881,0 -1.447492,-2.4804687 z m 1.446389,-2.4804687 -0.663663,-1.13660599 -1.507022,0 c -0.02095,0 -0.03858,0 -0.05953,0 L 2.5354539,1.2954971 z m 0,0 2.893881,0 -0.663664,-1.13660599 -1.566553,0 z m 2.893881,0 2.8938801,0 -0.663663,-1.13660599 c -0.08819,0 -0.171979,0 -0.266788,0 l -1.2997661,0 z m 0,0 -1.446389,2.4804687 2.89388,0 z m 1.447491,2.4804687 2.8938801,0 -1.447491,-2.4804687 z m 0,0 -1.447491,2.4804689 2.8938801,0 z m 1.4463891,2.4804689 2.170686,0 0,-1.2402343 -0.723195,-1.2402346 z m 1.447491,-2.4804689 0.723195,0 0,-0.5170399 c 0,-0.2579689 -0.0022,-0.4938889 -0.0066,-0.71217 z M 8.3232139,6.2564347 6.8768249,3.7759658 5.4293329,6.2564347 z m 2.8938801,-4.9609376 2.062648,0 C 13.123197,0.51718101 12.747268,0.27133921 11.859811,0.19416891 z m -8.6816411,0 -0.650434,-1.11565969 C 0.85204189,0.23826641 0.43421989,0.46095691 0.26665089,1.2954971 z M 1.0890639,3.7759658 0.17514889,2.2083096 c -0.01213,0.3031685 -0.01654,0.6515363 -0.01654,1.0506163 l 0,0.5170399 z m 4.340269,7.4414062 -1.26559,2.170686 2.532283,0 z m 2.893881,0 -1.265591,2.170686 2.532283,0 z m -7.59133701,1.86862 -0.451997,-0.775009 c 0.08268,0.37152 0.221589,0.615157 0.451997,0.775009 z"
     style="fill:#ffffff;fill-opacity:0.05100002"
     inkscape:connector-curvature="0" />
  <path
     d="M 12.8125 14 C 12.371145 14.048672 11.997938 14.497758 12 14.96875 L 12 33.03125 C 12.000048 33.531623 12.435008 33.99994 12.90625 34 L 35.09375 34 C 35.564976 33.99994 35.999954 33.531504 36 33.03125 L 36 16.625 C 35.999954 16.124627 35.564997 15.687559 35.09375 15.6875 L 26.4375 15.6875 L 26.4375 14.96875 C 26.437452 14.468377 26.002491 14.00006 25.53125 14 L 19 14 L 19 16 L 17 16 L 17 18 L 19 18 L 19 20 L 17 20 L 17 22 L 19 22 L 19 24 L 17 24 L 17 22 L 15 22 L 15 20 L 17 20 L 17 18 L 15 18 L 15 16 L 17 16 L 17 14 L 12.90625 14 C 12.877018 13.998516 12.841626 13.998516 12.8125 14 z M 15 25 L 17 25 L 19 25 L 19 29 L 15 29 L 15 25 z "
     transform="scale(0.28222223,0.28222223)"
     id="path28"
     style="fill:#f9f9f9;fill-opacity:1" />
</svg>
