<?xml version="1.0" encoding="UTF-8" standalone="no"?>
<svg
   xmlns:dc="http://purl.org/dc/elements/1.1/"
   xmlns:cc="http://creativecommons.org/ns#"
   xmlns:rdf="http://www.w3.org/1999/02/22-rdf-syntax-ns#"
   xmlns:svg="http://www.w3.org/2000/svg"
   xmlns="http://www.w3.org/2000/svg"
   xmlns:xlink="http://www.w3.org/1999/xlink"
   xmlns:sodipodi="http://sodipodi.sourceforge.net/DTD/sodipodi-0.dtd"
   xmlns:inkscape="http://www.inkscape.org/namespaces/inkscape"
   width="48"
   viewBox="0 0 13.546667 13.546667"
   height="48"
   id="svg2"
   version="1.1"
   inkscape:version="0.48.4 r9939"
   sodipodi:docname="firewall-config.svg">
  <metadata
     id="metadata91">
    <rdf:RDF>
      <cc:Work
         rdf:about="">
        <dc:format>image/svg+xml</dc:format>
        <dc:type
           rdf:resource="http://purl.org/dc/dcmitype/StillImage" />
      </cc:Work>
    </rdf:RDF>
  </metadata>
  <sodipodi:namedview
     pagecolor="#ffffff"
     bordercolor="#666666"
     borderopacity="1"
     objecttolerance="10"
     gridtolerance="10"
     guidetolerance="10"
     inkscape:pageopacity="0"
     inkscape:pageshadow="2"
     inkscape:window-width="672"
     inkscape:window-height="480"
     id="namedview89"
     showgrid="false"
     inkscape:zoom="4.9166667"
     inkscape:cx="41.084746"
     inkscape:cy="25.220339"
     inkscape:window-x="0"
     inkscape:window-y="0"
     inkscape:window-maximized="0"
     inkscape:current-layer="svg2" />
  <defs
     id="defs4">
    <clipPath
       id="clipPath6">
      <path
         d="m 354.86109,118 c -1.8996,-12.45313 -13.15124,-10.92696 -20.45752,-20.554999 -4.49745,-5.081917 -6.90039,-18.152021 2.43544,-27.37416 -1.1041,9.579323 0.17861,13.6059 5.45531,17.924775 -2.35422,-4.952062 -3.08439,-11.995623 -0.82801,-16.853182 2.76375,-5.949983 10.39112,-12.87528 10.52102,-19.142434 4.36202,2.178866 7.92821,8.352919 5.94243,14.368984 -3.85543,11.680556 0.10189,12.135543 1.94832,13.248716 -0.37991,-7.072519 1.0237,-8.206151 2.38673,-10.423628 1.02898,7.51113 12.13245,12.469545 11.25168,21.870132 -0.54446,5.811093 -5.52033,11.186756 -9.69301,14.563846 0.37909,-7.615119 0.0767,-8.633953 -7.11146,-14.612521 -2.75975,-2.295398 -3.9291,-3.912975 -5.30916,-6.867919 -0.85908,2.610094 -2.43714,6.487429 3.26799,14.45466 5.21391,7.28145 0.61392,16.7798 0.19057,19.39773 z"
         id="path8" />
    </clipPath>
    <linearGradient
       y2="31.619"
       x2="0"
       y1="299.81"
       gradientTransform="matrix(0.11931818,0,0,0.11931818,414.13636,48.22727)"
       gradientUnits="userSpaceOnUse"
       id="0"
       xlink:href="#9" />
    <clipPath
       id="clipPath11">
      <rect
         y="53"
         x="417"
         height="30"
         width="30"
         fill="url(#0)"
         color="#bebebe"
         rx="7"
         id="rect13" />
    </clipPath>
    <linearGradient
       y2="28.571"
       x2="0"
       y1="302.86"
       gradientTransform="matrix(0.0875,0,0,0.0875,414.9,97.5)"
       gradientUnits="userSpaceOnUse"
       id="1"
       xlink:href="#9" />
    <clipPath
       id="clipPath16">
      <rect
         width="22"
         height="22"
         x="417"
         y="101"
         fill="url(#1)"
         color="#bebebe"
         rx="5"
         id="rect18" />
    </clipPath>
    <linearGradient
       y2="28"
       x2="0"
       y1="124"
       gradientUnits="userSpaceOnUse"
       id="2"
       xlink:href="#9" />
    <clipPath
       id="clipPath21">
      <rect
         y="32"
         x="292"
         height="88"
         width="88"
         fill="url(#2)"
         color="#bebebe"
         rx="18"
         id="rect23" />
    </clipPath>
    <linearGradient
       y2="140"
       x2="0"
       y1="204"
       gradientUnits="userSpaceOnUse"
       id="3"
       xlink:href="#9" />
    <clipPath
       id="clipPath26">
      <rect
         width="60"
         height="60"
         x="290"
         y="142"
         fill="url(#3)"
         color="#bebebe"
         rx="12.5"
         id="rect28" />
    </clipPath>
    <linearGradient
       y2="40"
       x2="0"
       y1="280"
       gradientTransform="translate(0,-4)"
       gradientUnits="userSpaceOnUse"
       id="4"
       xlink:href="#9" />
    <clipPath
       id="clipPath31">
      <rect
         width="220"
         height="220"
         x="34"
         y="46"
         fill="url(#4)"
         color="#bebebe"
         rx="50"
         id="rect33" />
    </clipPath>
    <linearGradient
       y2="40"
       x2="0"
       y1="280"
       gradientTransform="matrix(0.06666667,0,0,0.06666667,302.4,209.33333)"
       gradientUnits="userSpaceOnUse"
       id="5"
       xlink:href="#9" />
    <clipPath
       id="clipPath36">
      <rect
         transform="matrix(0,1,-1,0,0,0)"
         y="212"
         x="304"
         height="16"
         width="16"
         fill="url(#5)"
         color="#bebebe"
         rx="3"
         id="rect38" />
    </clipPath>
    <linearGradient
       y2="40"
       x2="0"
       y1="291.43"
       gradientTransform="matrix(0.11931818,0,0,0.11931818,430.13636,32.227267)"
       gradientUnits="userSpaceOnUse"
       id="6"
       xlink:href="#9" />
    <clipPath
       id="clipPath41">
      <rect
         y="37"
         x="433"
         height="30"
         width="30"
         fill="url(#6)"
         color="#bebebe"
         rx="6"
         id="rect43" />
    </clipPath>
    <linearGradient
       y2="40"
       x2="0"
       y1="291.43"
       gradientTransform="matrix(0.0875,0,0,0.0875,430.9,81.499996)"
       gradientUnits="userSpaceOnUse"
       id="7"
       xlink:href="#9" />
    <clipPath
       id="clipPath46">
      <rect
         width="22"
         height="22"
         x="433"
         y="85"
         fill="url(#7)"
         color="#bebebe"
         rx="4"
         id="rect48" />
    </clipPath>
    <linearGradient
       y2="40"
       x2="0"
       y1="280"
       gradientTransform="matrix(0.175,0,0,0.175,302.79999,215.99997)"
       gradientUnits="userSpaceOnUse"
       id="8"
       xlink:href="#9" />
    <clipPath
       id="clipPath51">
      <rect
         transform="matrix(0,1,-1,0,0,0)"
         width="42"
         height="42"
         x="307"
         y="223"
         fill="url(#8)"
         color="#bebebe"
         rx="9"
         id="rect53" />
    </clipPath>
    <linearGradient
       id="9">
      <stop
         stop-color="#6c3c3c"
         id="stop56" />
      <stop
         offset="1"
         stop-color="#9a5757"
         id="stop58" />
    </linearGradient>
    <linearGradient
       gradientTransform="translate(-67.734997,-874.63794)"
       xlink:href="#9"
       id="A"
       y1="1050.36"
       x2="0"
       y2="1006.36"
       gradientUnits="userSpaceOnUse" />
    <linearGradient
       id="B">
      <stop
         stop-color="#ff6b00"
         id="stop62" />
      <stop
         offset="1"
         stop-color="#ffee00"
         id="stop64" />
    </linearGradient>
    <linearGradient
       y2="18.924"
       x2="400.18"
       y1="836.4"
       x1="373.89"
       gradientUnits="userSpaceOnUse"
       id="C"
       xlink:href="#B" />
    <radialGradient
       cx="148.004"
       cy="160"
       gradientTransform="matrix(0.1831,0,0,0.1831,-3.10029,-5.29688)"
       id="radial0"
       r="128"
       gradientUnits="userSpaceOnUse">
      <stop
         offset="0"
         style="stop-color:#ebc1bf"
         id="stop7" />
      <stop
         offset="1"
         style="stop-color:#880300"
         id="stop9" />
    </radialGradient>
    <radialGradient
       r="128"
       cy="160"
       cx="148.004"
       gradientTransform="matrix(0.05167489,0,0,0.05167489,-0.87511111,-1.4947563)"
       gradientUnits="userSpaceOnUse"
       id="radialGradient3031"
       xlink:href="#radial0"
       inkscape:collect="always" />
    <linearGradient
       inkscape:collect="always"
       xlink:href="#B"
       id="linearGradient3106"
       gradientUnits="userSpaceOnUse"
       x1="373.89"
       y1="836.4"
       x2="400.18"
       y2="18.924" />
  </defs>
  <path
     inkscape:connector-curvature="0"
     style="fill:url(#radialGradient3031)"
     d="m 13.387776,3.2589258 0,7.0290972 c 0,2.892778 0,3.100035 -3.100035,3.100035 l -7.0279941,0 c -3.10113801,0 -3.10113801,-0.207257 -3.10113801,-3.100035 l 0,-7.0290972 c 0,-2.89277779 0,-3.10003479 3.10113801,-3.10003479 l 7.0279941,0 c 3.100035,0 3.100035,0.207257 3.100035,3.10003479 z"
     id="path11" />
  <path
     id="path15"
     d="m 10.799269,13.388058 c 0.717682,-0.0033 1.235825,-0.02315 1.611753,-0.124575 l -1.193932,-2.046111 -1.2655901,2.170686 0.3362411,0 c 0.180799,0 0.350573,0 0.511528,0 z M 11.21709,11.217372 9.7707012,8.7369033 8.32321,11.217372 z m 0,0 2.159662,0 c 0.0088,-0.274505 0.01102,-0.582083 0.01102,-0.930451 l 0,-0.3097833 -0.723194,-1.2402344 z M 12.664581,8.7369033 11.21709,6.2564347 9.7707012,8.7369033 z m 0,0 0.723195,0 0,-1.2402343 z m -2.8938798,0 L 8.32321,6.2564347 6.876821,8.7369033 z m -2.8938802,0 -1.4474915,2.4804687 2.8938805,0 z m 0,0 -1.4474915,-2.4804686 -1.446389,2.4804686 z m -2.8938805,0 -1.4474913,2.4804687 2.8938803,0 z m 0,0 L 2.5354492,6.2564347 1.0890603,8.7369033 z m -2.8938802,0 -0.9304514,1.5941147 c 0,0.329627 0.003307,0.623976 0.0110242,0.886354 l 2.36581614,0 z m 0,0 -0.9304514,-1.5941145 0,1.5941145 z m 1.4463889,2.4804687 -1.2170833,2.086901 c 0.450894,0.08268 1.0748699,0.08378 1.9413802,0.08378 l 0.5423958,0 z m 0,-4.9609373 -1.4463889,-2.480469 -0.9304514,1.5941148 0,0.8863542 z m 0,0 2.8938803,0 -1.446389,-2.480469 z M 3.9829405,3.7759657 2.5354492,1.295497 1.0890603,3.7759657 z m 0,0 2.8938805,0 L 5.4293295,1.295497 z M 5.4293295,1.295497 4.7656664,0.15889101 l -1.5070227,0 c -0.020946,0 -0.038585,0 -0.059531,0 L 2.5354492,1.295497 z m 0,0 2.8938805,0 -0.6636634,-1.13660599 -1.5665538,0 z m 2.8938805,0 2.89388,0 -0.663663,-1.13660599 c -0.08819,0 -0.171979,0 -0.266788,0 l -1.299766,0 z m 0,0 -1.446389,2.4804687 2.8938802,0 z m 1.4474912,2.4804687 2.8938798,0 L 11.21709,1.295497 z m 0,0 -1.4474912,2.480469 2.89388,0 z m 1.4463888,2.480469 2.170686,0 0,-1.2402344 -0.723195,-1.2402346 z m 1.447491,-2.480469 0.723195,0 0,-0.5170399 c 0,-0.2579689 -0.0022,-0.4938889 -0.0066,-0.71217 z M 8.32321,6.2564347 6.876821,3.7759657 5.4293295,6.2564347 z m 2.89388,-4.9609377 2.062648,0 C 13.123193,0.51718088 12.747264,0.27133907 11.859807,0.19416879 z m -8.6816408,0 L 1.8850153,0.17983726 C 0.85203767,0.23826601 0.4342164,0.46095685 0.26664695,1.295497 z M 1.0890603,3.7759657 0.17514543,2.2083095 C 0.16301862,2.511478 0.1586089,2.8598458 0.1586089,3.2589258 l 0,0.5170399 z m 4.3402692,7.4414063 -1.2655904,2.170686 2.532283,0 z m 2.8938805,0 -1.2655906,2.170686 2.5322832,0 z m -7.5913372,1.86862 -0.4519964,-0.775009 c 0.0826821,0.371519 0.22158848,0.615157 0.4519964,0.775009 z"
     style="fill:#ffffff;fill-opacity:0.05100002"
     inkscape:connector-curvature="0" />
  <path
     inkscape:connector-curvature="0"
     style="fill:#f9f9f9;fill-opacity:1"
     id="path87"
     d="M 5.6447523,2.5427008 C 5.4819634,2.7603867 5.4694726,3.2344662 5.9379427,3.6024518 6.4780803,4.1564933 6.615264,4.5734304 6.6090235,5.3761376 6.6039154,6.0329878 6.3297466,6.2015302 6.091094,6.7876756 5.8091444,7.3375147 5.7236708,7.6017238 5.9276731,8.0262796 5.9998348,8.2113852 6.1120763,8.3434444 6.2543772,8.5550731 6.0325446,8.406183 5.8307514,8.3103417 5.6289586,8.0465141 5.4413538,7.7551231 5.2923851,7.6299072 5.7217034,6.4377265 5.8217074,6.1592907 5.9618317,5.7392549 6.0116857,5.4519691 6.0306018,5.2557206 6.0093977,4.9635622 5.8778637,4.7216235 5.5073892,4.2331194 5.4159795,4.273788 4.9312513,3.9906604 5.1988906,4.4753366 5.0509113,4.7025693 4.2763011,5.6668855 3.6253717,6.5976085 3.3464698,6.9524889 3.3913085,7.5804517 3.4455405,8.3399469 3.9081508,8.9826155 4.7135667,9.5082954 4.9768171,9.6801136 5.2053837,9.7193185 5.3706045,9.7772779 L 5.8704012,9.877778 C 5.6679374,9.7542211 5.4955637,9.6837641 5.2630099,9.507107 4.7838042,9.0779344 4.5072726,8.5483356 4.4568175,7.9662067 4.4268243,7.6201503 4.4923153,7.1866299 4.5107348,7.5401805 c 0.01162,0.070648 0.062341,0.2978157 0.1024598,0.346562 0.08024,0.1925146 0.4502854,0.722298 0.7858923,1.0459713 0.169186,0.1631691 0.5169633,0.4471756 0.7833252,0.6090495 0.4854794,0.2368547 0.7001492,0.2701599 1.0652687,0.3123147 0.31511,0 0.6993899,-0.04944 0.571831,-0.042019 C 7.1665507,8.9592464 7.1426134,8.9202328 7.1054136,8.3781395 7.1081123,7.8770439 7.3100987,7.7659593 7.6636146,7.1395884 8.1029158,6.3612219 8.2128063,6.0158731 8.2156248,5.4376041 8.2197148,4.5991177 7.8167371,4.1544161 6.9363314,3.6862617 6.6911284,3.5637062 6.6243351,3.5291942 6.1766049,3.3544667 5.919161,3.2341775 5.6617173,2.9724306 5.6447523,2.5427008 z M 8.6712717,4.9011644 C 8.900498,5.209402 9.0997402,5.6679389 9.1184644,5.9938585 9.0677346,6.4192335 9.0650429,6.4487426 8.5083191,7.0717636 8.2767567,7.3701935 8.1401476,7.5555319 8.0796161,7.677772 7.9082638,8.0238165 7.9032476,8.8905644 8.1848149,9.360859 L 8.4184568,9.7529722 8.5211566,9.4604772 C 8.6001587,9.2368105 8.7064857,8.958749 9.2559587,8.6020066 9.95012,8.0598756 10.056988,7.9005993 10.157968,7.2187377 10.16856,6.7675168 10.103425,6.4385851 9.7738292,5.9039955 9.4298462,5.4076295 9.1256789,5.2472298 8.6712717,4.9011644 z" />
</svg>
