<?xml version="1.0" encoding="UTF-8" standalone="no"?>
<svg
   xmlns:dc="http://purl.org/dc/elements/1.1/"
   xmlns:cc="http://creativecommons.org/ns#"
   xmlns:rdf="http://www.w3.org/1999/02/22-rdf-syntax-ns#"
   xmlns:svg="http://www.w3.org/2000/svg"
   xmlns="http://www.w3.org/2000/svg"
   xmlns:xlink="http://www.w3.org/1999/xlink"
   xmlns:sodipodi="http://sodipodi.sourceforge.net/DTD/sodipodi-0.dtd"
   xmlns:inkscape="http://www.inkscape.org/namespaces/inkscape"
   width="48"
   viewBox="0 0 13.546667 13.546667"
   height="48"
   id="svg2"
   version="1.1"
   inkscape:version="0.48.4 r9939"
   sodipodi:docname="footnote.svg">
  <metadata
     id="metadata91">
    <rdf:RDF>
      <cc:Work
         rdf:about="">
        <dc:format>image/svg+xml</dc:format>
        <dc:type
           rdf:resource="http://purl.org/dc/dcmitype/StillImage" />
      </cc:Work>
    </rdf:RDF>
  </metadata>
  <sodipodi:namedview
     pagecolor="#ffffff"
     bordercolor="#666666"
     borderopacity="1"
     objecttolerance="10"
     gridtolerance="10"
     guidetolerance="10"
     inkscape:pageopacity="0"
     inkscape:pageshadow="2"
     inkscape:window-width="1280"
     inkscape:window-height="998"
     id="namedview89"
     showgrid="false"
     inkscape:zoom="6.9532167"
     inkscape:cx="26.168465"
     inkscape:cy="17.891607"
     inkscape:window-x="0"
     inkscape:window-y="0"
     inkscape:window-maximized="1"
     inkscape:current-layer="svg2" />
  <defs
     id="defs4">
    <linearGradient
       id="0">
      <stop
         stop-color="#b756ae"
         id="stop7" />
      <stop
         offset="1"
         stop-color="#c25ab8"
         id="stop9" />
    </linearGradient>
    <linearGradient
       xlink:href="#0"
       id="1"
       gradientUnits="userSpaceOnUse"
       gradientTransform="matrix(1.10525,0,0,1.10525,-134.27874,-295.76183)"
       y1="279.1"
       x2="0"
       y2="268.33" />
    <linearGradient
       y2="31.619"
       x2="0"
       y1="299.81"
       gradientTransform="matrix(0.11931818,0,0,0.11931818,414.13636,48.22727)"
       gradientUnits="userSpaceOnUse"
       id="2"
       xlink:href="#B" />
    <clipPath
       id="clipPath13">
      <rect
         y="53"
         x="417"
         height="30"
         width="30"
         fill="url(#2)"
         color="#bebebe"
         rx="7"
         id="rect15" />
    </clipPath>
    <linearGradient
       y2="28.571"
       x2="0"
       y1="302.86"
       gradientTransform="matrix(0.0875,0,0,0.0875,414.9,97.5)"
       gradientUnits="userSpaceOnUse"
       id="3"
       xlink:href="#B" />
    <clipPath
       id="clipPath18">
      <rect
         width="22"
         height="22"
         x="417"
         y="101"
         fill="url(#3)"
         color="#bebebe"
         rx="5"
         id="rect20" />
    </clipPath>
    <linearGradient
       y2="28"
       x2="0"
       y1="124"
       gradientUnits="userSpaceOnUse"
       id="4"
       xlink:href="#B" />
    <clipPath
       id="clipPath23">
      <rect
         y="32"
         x="292"
         height="88"
         width="88"
         fill="url(#4)"
         color="#bebebe"
         rx="18"
         id="rect25" />
    </clipPath>
    <linearGradient
       y2="140"
       x2="0"
       y1="204"
       gradientUnits="userSpaceOnUse"
       id="5"
       xlink:href="#B" />
    <clipPath
       id="clipPath28">
      <rect
         width="60"
         height="60"
         x="290"
         y="142"
         fill="url(#5)"
         color="#bebebe"
         rx="12.5"
         id="rect30" />
    </clipPath>
    <linearGradient
       y2="40"
       x2="0"
       y1="280"
       gradientTransform="translate(0,-4)"
       gradientUnits="userSpaceOnUse"
       id="6"
       xlink:href="#B" />
    <clipPath
       id="clipPath33">
      <rect
         width="220"
         height="220"
         x="34"
         y="46"
         fill="url(#6)"
         color="#bebebe"
         rx="50"
         id="rect35" />
    </clipPath>
    <linearGradient
       y2="40"
       x2="0"
       y1="280"
       gradientTransform="matrix(0.06666667,0,0,0.06666667,302.4,209.33333)"
       gradientUnits="userSpaceOnUse"
       id="7"
       xlink:href="#B" />
    <clipPath
       id="clipPath38">
      <rect
         transform="matrix(0,1,-1,0,0,0)"
         y="212"
         x="304"
         height="16"
         width="16"
         fill="url(#7)"
         color="#bebebe"
         rx="3"
         id="rect40" />
    </clipPath>
    <linearGradient
       y2="40"
       x2="0"
       y1="291.43"
       gradientTransform="matrix(0.11931818,0,0,0.11931818,430.13636,32.227267)"
       gradientUnits="userSpaceOnUse"
       id="8"
       xlink:href="#B" />
    <clipPath
       id="clipPath43">
      <rect
         y="37"
         x="433"
         height="30"
         width="30"
         fill="url(#8)"
         color="#bebebe"
         rx="6"
         id="rect45" />
    </clipPath>
    <linearGradient
       y2="40"
       x2="0"
       y1="291.43"
       gradientTransform="matrix(0.0875,0,0,0.0875,430.9,81.499996)"
       gradientUnits="userSpaceOnUse"
       id="9"
       xlink:href="#B" />
    <clipPath
       id="clipPath48">
      <rect
         width="22"
         height="22"
         x="433"
         y="85"
         fill="url(#9)"
         color="#bebebe"
         rx="4"
         id="rect50" />
    </clipPath>
    <linearGradient
       y2="40"
       x2="0"
       y1="280"
       gradientTransform="matrix(0.175,0,0,0.175,302.79999,215.99997)"
       gradientUnits="userSpaceOnUse"
       id="A"
       xlink:href="#B" />
    <clipPath
       id="clipPath53">
      <rect
         transform="matrix(0,1,-1,0,0,0)"
         width="42"
         height="42"
         x="307"
         y="223"
         fill="url(#A)"
         color="#bebebe"
         rx="9"
         id="rect55" />
    </clipPath>
    <linearGradient
       id="B">
      <stop
         stop-color="#2f7474"
         id="stop58" />
      <stop
         offset="1"
         stop-color="#75b4b4"
         id="stop60" />
    </linearGradient>
    <linearGradient
       gradientTransform="matrix(0.28222223,0,0,0.28222223,0,-283.45334)"
       xlink:href="#0"
       id="C"
       y1="1050.36"
       x2="0"
       y2="1006.36"
       gradientUnits="userSpaceOnUse" />
    <radialGradient
       r="128"
       cy="160"
       cx="148.004"
       gradientTransform="matrix(0.05167489,0,0,0.05167489,-0.87511191,-1.4947612)"
       gradientUnits="userSpaceOnUse"
       id="radialGradient3001"
       xlink:href="#radial0"
       inkscape:collect="always" />
    <radialGradient
       cx="148.004"
       cy="160"
       gradientTransform="matrix(0.1831,0,0,0.1831,-3.10029,-5.29688)"
       id="radial0"
       r="128"
       gradientUnits="userSpaceOnUse">
      <stop
         offset="0"
         style="stop-color:#e4b5df;stop-opacity:1;"
         id="stop7-4" />
      <stop
         offset="1"
         style="stop-color:#bd4bb1;stop-opacity:1;"
         id="stop9-6" />
    </radialGradient>
    <radialGradient
       r="128"
       cy="160"
       cx="148.004"
       gradientTransform="matrix(0.05167489,0,0,0.05167489,-0.8749708,-1.4948998)"
       gradientUnits="userSpaceOnUse"
       id="radialGradient3009"
       xlink:href="#radial0"
       inkscape:collect="always" />
  </defs>
  <path
     inkscape:connector-curvature="0"
     style="fill:url(#radialGradient3009)"
     d="m 13.387917,3.2587823 0,7.0290977 c 0,2.892778 0,3.100035 -3.100035,3.100035 l -7.0279948,0 C 0.15875,13.387915 0.15875,13.180658 0.15875,10.28788 l 0,-7.0290977 c 0,-2.8927778 0,-3.1000348 3.1011372,-3.1000348 l 7.0279948,0 c 3.100035,0 3.100035,0.207257 3.100035,3.1000348 z"
     id="path11" />
  <path
     inkscape:connector-curvature="0"
     id="path15"
     d="m 10.79941,13.387915 c 0.717682,-0.0033 1.235825,-0.02315 1.611753,-0.124575 l -1.193932,-2.046111 -1.2655901,2.170686 0.3362411,0 c 0.180799,0 0.350573,0 0.511528,0 z M 11.217231,11.217229 9.7708423,8.7367598 8.323351,11.217229 z m 0,0 2.159662,0 c 0.0088,-0.274505 0.01102,-0.582083 0.01102,-0.930451 l 0,-0.3097839 L 12.66472,8.7367598 z M 12.664723,8.7367598 11.217231,6.2562911 9.7708423,8.7367598 z m 0,0 0.723194,0 0,-1.2402343 z m -2.8938807,0 L 8.323351,6.2562911 6.8769621,8.7367598 z m -2.8938802,0 -1.4474916,2.4804682 2.8938805,0 z m 0,0 L 5.4294705,6.2562911 3.9830816,8.7367598 z m -2.8938805,0 -1.4474913,2.4804682 2.8938802,0 z m 0,0 L 2.5355903,6.2562911 1.0892014,8.7367598 z m -2.8938802,0 L 0.15875,10.330875 c 0,0.329627 0.00331,0.623976 0.011024,0.886354 l 2.3658161,0 z m 0,0 -0.9304514,-1.5941145 0,1.5941145 z M 2.5355903,11.217229 1.318507,13.30413 c 0.450894,0.08268 1.0748699,0.08379 1.9413802,0.08379 l 0.5423958,0 z m 0,-4.9609379 L 1.0892014,3.7758222 0.15875,5.3699369 l 0,0.8863542 z m 0,0 2.8938802,0 L 3.9830816,3.7758222 z M 3.9830816,3.7758222 2.5355903,1.2953535 1.0892014,3.7758222 z m 0,0 2.8938805,0 -1.4474916,-2.4804687 z m 1.4463889,-2.4804687 -0.663663,-1.136606 -1.5059203,0 c -0.02205,0 -0.039688,0 -0.060634,0 l -0.6636629,1.136606 z m 0,0 2.8938805,0 -0.6636633,-1.136606 -1.5665538,0 z m 2.8938805,0 2.89388,0 -0.663663,-1.136606 c -0.0882,0 -0.171979,0 -0.265686,0 l -1.3008679,0 z m 0,0 -1.4463889,2.4804687 2.8938802,0 z m 1.4474913,2.4804687 2.8938807,0 -1.447492,-2.4804687 z m 0,0 -1.4474913,2.4804689 2.89388,0 z m 1.4463887,2.4804689 2.170686,0 0,-1.2402343 -0.723194,-1.2402346 z m 1.447492,-2.4804689 0.723194,0 0,-0.5170399 c 0,-0.2579689 -0.0022,-0.4938889 -0.0066,-0.71217 z M 8.323351,6.2562911 6.8769621,3.7758222 5.4294705,6.2562911 z m 2.89388,-4.9609376 2.062648,0 C 13.123334,0.5170374 12.747405,0.2711956 11.859948,0.1940253 z m -8.6816407,0 L 1.8851564,0.1796938 C 0.85217879,0.2381228 0.4343575,0.46081339 0.2667881,1.2953535 z M 1.0892014,3.7758222 0.1752865,2.208166 c -0.012127,0.3031685 -0.016536,0.6515363 -0.016536,1.0506163 l 0,0.5170399 z m 4.3402691,7.4414068 -1.2655903,2.170686 2.532283,0 z m 2.8938805,0 -1.2655906,2.170686 2.5322833,0 z M 0.7320139,13.085849 0.2800175,12.31084 c 0.082682,0.371518 0.22158851,0.615157 0.4519964,0.775009 z"
     style="fill:#ffffff;fill-opacity:0.05100002" />
  <path
     d="m 4.2333334,3.1044445 c -0.2822222,0 -0.2822222,0.2822222 -0.2822222,0.2822222 l 0,6.4911113 c 0,0.282222 0.2822222,0.564444 0.5644445,0.564444 l 4.7916053,0 c 0.1509988,-2.4e-5 0.2883794,-0.130842 0.2883948,-0.274647 l 0,-5.9342416 C 9.5955404,4.0895551 9.4643324,3.9511112 9.3133336,3.9511112 l -4.2333335,0 -0.5644444,-0.5644445 c 1.4419944,-0.012228 3.3271475,-2.5e-6 4.7977779,0 0.029528,0 -0.089959,-0.2822222 -0.2822223,-0.2822222 z m 0.8466667,1.4111112 3.9511112,0 4e-7,5.3622225 -3.9511112,0 z"
     fill="#ebebeb"
     color="#000000"
     id="path81"
     style="fill:#f9f9f9;fill-opacity:1" />
  <path
     d="M 16 15 L 16 36 L 33 36 L 33 15 L 16 15 z M 25.5625 18 C 26.252085 17.987316 27.110819 18.214663 27.9375 18.6875 C 29.258961 19.443358 30.093211 20.579951 30 21.40625 L 24.59375 18.3125 C 24.577344 18.303996 24.579246 18.289754 24.5625 18.28125 C 24.815625 18.095715 25.148749 18.00761 25.5625 18 z M 24.71875 18.8125 C 24.81908 18.824954 24.937901 18.884107 25.03125 18.9375 L 25.375 19.125 C 25.748396 19.338573 25.871829 19.817578 25.65625 20.1875 L 21.4375 27.40625 C 21.22192 27.776171 20.748396 27.901073 20.375 27.6875 L 20.03125 27.5 C 19.657853 27.286426 19.534422 26.807422 19.75 26.4375 L 23.96875 19.21875 C 24.130435 18.941309 24.417761 18.775139 24.71875 18.8125 z M 26.34375 19.9375 C 26.535912 19.886489 26.750801 19.924463 26.9375 20.03125 L 27.28125 20.21875 C 27.654647 20.432324 27.77808 20.911328 27.5625 21.28125 L 23.34375 28.5 C 23.12817 28.869921 22.654647 28.994823 22.28125 28.78125 L 21.96875 28.59375 C 21.595353 28.380176 21.440672 27.901172 21.65625 27.53125 L 25.875 20.3125 C 25.98279 20.127539 26.151588 19.988511 26.34375 19.9375 z M 28.5625 21.03125 C 28.66283 21.043704 28.781651 21.071607 28.875 21.125 L 29.21875 21.3125 C 29.592147 21.526074 29.715579 22.005077 29.5 22.375 L 25.28125 29.59375 C 25.065671 29.963671 24.592147 30.088573 24.21875 29.875 L 23.875 29.6875 C 23.501603 29.473927 23.378172 28.994922 23.59375 28.625 L 27.8125 21.40625 C 27.974185 21.128809 28.261511 20.993889 28.5625 21.03125 z M 19.1875 27.4375 C 19.300617 27.369202 24.690804 30.462699 24.6875 30.59375 C 24.684196 30.724801 19.141063 34.062753 19.03125 34 C 18.921437 33.937246 19.074383 27.505797 19.1875 27.4375 z "
     transform="scale(0.28222223,0.28222223)"
     id="rect83"
     style="fill-opacity:1;fill:#f9f9f9;stroke:none;stroke-opacity:1" />
</svg>
