<?xml version="1.0" encoding="UTF-8" standalone="no"?>
<svg
   xmlns:dc="http://purl.org/dc/elements/1.1/"
   xmlns:cc="http://creativecommons.org/ns#"
   xmlns:rdf="http://www.w3.org/1999/02/22-rdf-syntax-ns#"
   xmlns:svg="http://www.w3.org/2000/svg"
   xmlns="http://www.w3.org/2000/svg"
   xmlns:xlink="http://www.w3.org/1999/xlink"
   xmlns:sodipodi="http://sodipodi.sourceforge.net/DTD/sodipodi-0.dtd"
   xmlns:inkscape="http://www.inkscape.org/namespaces/inkscape"
   viewBox="0 0 48 48"
   width="48"
   height="48"
   id="svg2"
   version="1.1"
   inkscape:version="0.48.4 r9939"
   sodipodi:docname="gnome-window-manager.svg">
  <metadata
     id="metadata34">
    <rdf:RDF>
      <cc:Work
         rdf:about="">
        <dc:format>image/svg+xml</dc:format>
        <dc:type
           rdf:resource="http://purl.org/dc/dcmitype/StillImage" />
      </cc:Work>
    </rdf:RDF>
  </metadata>
  <sodipodi:namedview
     pagecolor="#ffffff"
     bordercolor="#666666"
     borderopacity="1"
     objecttolerance="10"
     gridtolerance="10"
     guidetolerance="10"
     inkscape:pageopacity="0"
     inkscape:pageshadow="2"
     inkscape:window-width="672"
     inkscape:window-height="480"
     id="namedview32"
     showgrid="false"
     inkscape:zoom="4.9166667"
     inkscape:cx="41.084746"
     inkscape:cy="24"
     inkscape:window-x="0"
     inkscape:window-y="0"
     inkscape:window-maximized="0"
     inkscape:current-layer="svg2" />
  <defs
     id="defs4">
    <linearGradient
       id="0">
      <stop
         stop-color="#204a87"
         id="stop7" />
      <stop
         offset="1"
         stop-color="#6984aa"
         id="stop9" />
    </linearGradient>
    <linearGradient
       gradientTransform="translate(0,-1004.3622)"
       xlink:href="#0"
       id="1"
       y1="1050.36"
       x2="0"
       y2="1006.36"
       gradientUnits="userSpaceOnUse" />
    <radialGradient
       r="128"
       cy="160"
       cx="148.004"
       gradientTransform="matrix(0.1831,0,0,0.1831,-3.100784,-5.2963806)"
       gradientUnits="userSpaceOnUse"
       id="radialGradient3027"
       xlink:href="#radial0"
       inkscape:collect="always" />
    <radialGradient
       cx="148.004"
       cy="160"
       gradientTransform="matrix(0.1831,0,0,0.1831,-3.10029,-5.29688)"
       id="radial0"
       r="128"
       gradientUnits="userSpaceOnUse">
      <stop
         offset="0"
         style="stop-color:#a38cd5;stop-opacity:1;"
         id="stop7-6" />
      <stop
         offset="1"
         style="stop-color:#523ca4;stop-opacity:1;"
         id="stop9-7" />
    </radialGradient>
    <radialGradient
       r="128"
       cy="160"
       cx="148.004"
       gradientTransform="matrix(0.1831,0,0,0.1831,-3.100784,-5.2963807)"
       gradientUnits="userSpaceOnUse"
       id="radialGradient3012"
       xlink:href="#radial0"
       inkscape:collect="always" />
  </defs>
  <path
     inkscape:connector-curvature="0"
     style="fill:url(#radialGradient3012)"
     d="m 47.437005,11.547375 0,24.906249 c 0,10.25 0,10.984376 -10.984375,10.984376 l -24.902342,0 C 0.562006,47.438 0.562006,46.703624 0.562006,36.453624 l 0,-24.906249 c 0,-10.2500001 0,-10.9843751 10.988282,-10.9843751 l 24.902342,0 c 10.984375,0 10.984375,0.734375 10.984375,10.9843751 z"
     id="path11" />
  <path
     id="path15"
     d="m 38.26513,47.438 c 2.542968,-0.01169 4.378908,-0.08203 5.710936,-0.441404 l -4.230467,-7.250003 -4.484374,7.691407 1.191405,0 c 0.640626,0 1.242187,0 1.8125,0 z m 1.480469,-7.691407 -5.124999,-8.789062 -5.128906,8.789062 z m 0,0 7.652345,0 c 0.03118,-0.972656 0.03905,-2.062499 0.03905,-3.296874 l 0,-1.097657 -2.562495,-4.394531 z m 5.128905,-8.789062 -5.128905,-8.789062 -5.124999,8.789062 z m 0,0 2.562501,0 0,-4.394531 z m -10.253904,0 -5.128906,-8.789062 -5.125,8.789062 z m -10.253906,0 -5.128907,8.789062 10.253907,0 z m 0,0 -5.128907,-8.789062 -5.125,8.789062 z m -10.253907,0 -5.128906,8.789062 10.253906,0 z m 0,0 -5.128906,-8.789062 -5.125,8.789062 z m -10.253906,0 -3.296875,5.648437 c 0,1.16797 0.01173,2.210939 0.03906,3.140625 l 8.382812,0 z m 0,0 -3.296875,-5.648437 0,5.648437 z m 5.125,8.789062 -4.3125,7.394531 c 1.597656,0.29296 3.808594,0.296858 6.878907,0.296858 l 1.921874,0 z m 0,-17.578124 -5.125,-8.789063 -3.296875,5.648438 0,3.140625 z m 0,0 10.253906,0 -5.125,-8.789063 z m 5.128906,-8.789063 -5.128906,-8.7890621 -5.125,8.7890621 z m 0,0 10.253907,0 -5.128907,-8.7890621 z m 5.125,-8.7890621 -2.351561,-4.027344 -5.339845,0 c -0.07422,0 -0.136718,0 -0.210936,0 l -2.351564,4.027344 z m 0,0 10.253907,0 -2.351562,-4.027344 -5.550782,0 z m 10.253907,0 10.253905,0 -2.351562,-4.027344 c -0.312484,0 -0.609375,0 -0.945312,0 l -4.605469,0 z m 0,0 -5.125,8.7890621 10.253906,0 z m 5.128906,8.7890621 10.253904,0 -5.128905,-8.7890621 z m 0,0 -5.128906,8.789063 10.253905,0 z m 5.124999,8.789063 7.691406,0 0,-4.394531 -2.562501,-4.394532 z m 5.128905,-8.789063 2.562501,0 0,-1.832031 c 0,-0.914063 -0.0078,-1.75 -0.02338,-2.523437 z m -15.38281,8.789063 -5.125,-8.789063 -5.128907,8.789063 z m 10.253905,-17.5781251 7.308595,0 c -0.554687,-2.757813 -1.886719,-3.628906 -5.031252,-3.902344 z m -30.761718,0 -2.304687,-3.953125 C 3.019037,0.8442509 1.538568,1.6333119 0.944818,4.5903439 z M 3.858881,13.379406 0.6206,7.824718 C 0.57763,8.898937 0.562,10.133312 0.562,11.547375 l 0,1.832031 z m 15.378906,26.367187 -4.484375,7.691407 8.972656,0 z m 10.253907,0 -4.484376,7.691407 8.972657,0 z M 2.593256,46.367687 0.991694,43.621592 c 0.292968,1.31641 0.785156,2.17969 1.601562,2.746095 z"
     style="fill:#ffffff;fill-opacity:0.05100002"
     inkscape:connector-curvature="0" />
  <g
     transform="matrix(0.75000006,0,0,0.78502459,6.000785,-783.28803)"
     fill="#dedede"
     id="g28">
    <path
       d="m 9.075016,1014.3499 c -0.585537,0.061 -1.078149,0.6113 -1.075,1.2 l 0,25.6246 c 6.3e-5,0.6283 0.571698,1.1999 1.199999,1.2 l 29.599984,0 c 0.628301,-10e-5 1.199937,-0.5717 1.2,-1.2 l 0,-25.6246 c -6.3e-5,-0.6283 -0.571699,-1.1999 -1.2,-1.2 l -29.599984,0 c -0.04163,0 -0.08337,0 -0.124999,0 z m 25.591649,1.5477 c 0.441828,0 1,0.5581 1,1 0,0.4418 -0.558172,1 -1,1 -0.441828,0 -1,-0.5582 -1,-1 0,-0.4419 0.558172,-1 1,-1 z m -23.999997,3.4417 26.666664,0 0,21 -26.666664,0 z"
       color="#000000"
       id="path30" />
  </g>
</svg>
