<?xml version="1.0" encoding="UTF-8" standalone="no"?>
<svg
   xmlns:dc="http://purl.org/dc/elements/1.1/"
   xmlns:cc="http://creativecommons.org/ns#"
   xmlns:rdf="http://www.w3.org/1999/02/22-rdf-syntax-ns#"
   xmlns:svg="http://www.w3.org/2000/svg"
   xmlns="http://www.w3.org/2000/svg"
   xmlns:xlink="http://www.w3.org/1999/xlink"
   xmlns:sodipodi="http://sodipodi.sourceforge.net/DTD/sodipodi-0.dtd"
   xmlns:inkscape="http://www.inkscape.org/namespaces/inkscape"
   width="48"
   viewBox="0 0 13.546667 13.546667"
   height="48"
   id="svg2"
   version="1.1"
   inkscape:version="0.48.4 r9939"
   sodipodi:docname="gnome-mahjongg.svg">
  <metadata
     id="metadata34">
    <rdf:RDF>
      <cc:Work
         rdf:about="">
        <dc:format>image/svg+xml</dc:format>
        <dc:type
           rdf:resource="http://purl.org/dc/dcmitype/StillImage" />
      </cc:Work>
    </rdf:RDF>
  </metadata>
  <sodipodi:namedview
     pagecolor="#ffffff"
     bordercolor="#666666"
     borderopacity="1"
     objecttolerance="10"
     gridtolerance="10"
     guidetolerance="10"
     inkscape:pageopacity="0"
     inkscape:pageshadow="2"
     inkscape:window-width="672"
     inkscape:window-height="480"
     id="namedview32"
     showgrid="false"
     inkscape:zoom="4.9166667"
     inkscape:cx="34.983051"
     inkscape:cy="26.847458"
     inkscape:window-x="0"
     inkscape:window-y="0"
     inkscape:window-maximized="0"
     inkscape:current-layer="svg2" />
  <defs
     id="defs4">
    <linearGradient
       id="0">
      <stop
         stop-color="#f0eacd"
         id="stop7" />
      <stop
         offset="1"
         stop-color="#fffef4"
         id="stop9" />
    </linearGradient>
    <linearGradient
       gradientTransform="matrix(0.28222223,0,0,0.28222223,0,-283.45334)"
       xlink:href="#0"
       id="1"
       y1="1050.36"
       x2="0"
       y2="1006.36"
       gradientUnits="userSpaceOnUse" />
    <radialGradient
       cx="148.004"
       cy="160"
       gradientTransform="matrix(0.1831,0,0,0.1831,-3.10029,-5.29688)"
       id="radial0"
       r="128"
       gradientUnits="userSpaceOnUse">
      <stop
         offset="0"
         style="stop-color:#fbcac7"
         id="stop7-0" />
      <stop
         offset="1"
         style="stop-color:#a54235"
         id="stop9-9" />
    </radialGradient>
    <radialGradient
       r="128"
       cy="160"
       cx="148.004"
       gradientTransform="matrix(0.05167489,0,0,0.05167489,-0.87511211,-1.4947565)"
       gradientUnits="userSpaceOnUse"
       id="radialGradient3015"
       xlink:href="#radial0"
       inkscape:collect="always" />
  </defs>
  <path
     inkscape:connector-curvature="0"
     style="fill:url(#radialGradient3015)"
     d="m 13.387776,3.2589256 0,7.0290974 c 0,2.892778 0,3.100035 -3.100035,3.100035 l -7.0279946,0 c -3.10113751,0 -3.10113751,-0.207257 -3.10113751,-3.100035 l 0,-7.0290974 c 0,-2.89277779 0,-3.10003474 3.10113751,-3.10003474 l 7.0279946,0 c 3.100035,0 3.100035,0.20725695 3.100035,3.10003474 z"
     id="path11" />
  <path
     id="path15"
     d="m 10.799269,13.388058 c 0.717682,-0.0033 1.235825,-0.02315 1.611753,-0.124575 l -1.193932,-2.046111 -1.2655901,2.170686 0.3362411,0 c 0.180799,0 0.350573,0 0.511528,0 z M 11.21709,11.217372 9.7707012,8.7369032 8.32321,11.217372 z m 0,0 2.159662,0 c 0.0088,-0.274505 0.01102,-0.582083 0.01102,-0.930451 l 0,-0.3097835 -0.723194,-1.2402343 z M 12.664581,8.7369032 11.21709,6.2564345 9.7707012,8.7369032 z m 0,0 0.723195,0 0,-1.2402344 z m -2.8938798,0 L 8.32321,6.2564345 6.876821,8.7369032 z m -2.8938802,0 -1.4474915,2.4804688 2.8938805,0 z m 0,0 -1.4474915,-2.4804687 -1.446389,2.4804687 z m -2.8938805,0 -1.4474913,2.4804688 2.8938803,0 z m 0,0 L 2.5354492,6.2564345 1.0890603,8.7369032 z m -2.8938802,0 -0.9304514,1.5941148 c 0,0.329627 0.003307,0.623976 0.0110242,0.886354 l 2.36581614,0 z m 0,0 -0.9304514,-1.5941145 0,1.5941145 z m 1.4463889,2.4804688 -1.2170833,2.086901 c 0.450894,0.08268 1.0748699,0.08378 1.9402778,0.08378 l 0.5434982,0 z m 0,-4.9609375 -1.4463889,-2.480469 -0.9304514,1.5941148 0,0.8863542 z m 0,0 2.8938803,0 -1.446389,-2.480469 z M 3.9829405,3.7759655 2.5354492,1.2954969 1.0890603,3.7759655 z m 0,0 2.8938805,0 -1.4474915,-2.4804686 z m 1.446389,-2.4804686 -0.6636631,-1.13660604 -1.5070227,0 c -0.020946,0 -0.038585,0 -0.059531,0 L 2.5354492,1.2954969 z m 0,0 2.8938805,0 -0.6636634,-1.13660604 -1.5665538,0 z m 2.8938805,0 2.89388,0 -0.663663,-1.13660604 c -0.08819,0 -0.171979,0 -0.266788,0 l -1.299766,0 z m 0,0 -1.446389,2.4804686 2.8938802,0 z m 1.4474912,2.4804686 2.8938798,0 -1.447491,-2.4804686 z m 0,0 -1.4474912,2.480469 2.89388,0 z m 1.4463888,2.480469 2.170686,0 0,-1.2402343 -0.723195,-1.2402347 z m 1.447491,-2.480469 0.723195,0 0,-0.5170398 c 0,-0.2579689 -0.0022,-0.4938889 -0.0066,-0.71217 z M 8.32321,6.2564345 6.876821,3.7759655 5.4293295,6.2564345 z m 2.89388,-4.9609376 2.062648,0 C 13.123193,0.51718073 12.747264,0.27133892 11.859807,0.19416864 z m -8.6816408,0 L 1.8850153,0.17983711 C 0.85203767,0.23826586 0.4342164,0.4609567 0.26664695,1.2954969 z M 1.0890603,3.7759655 0.17514543,2.2083094 C 0.16301862,2.5114779 0.1586089,2.8598457 0.1586089,3.2589257 l 0,0.5170398 z m 4.3402692,7.4414065 -1.2655904,2.170686 2.532283,0 z m 2.8938805,0 -1.2655906,2.170686 2.5322832,0 z m -7.5913372,1.86862 -0.4519964,-0.775009 c 0.0826821,0.371519 0.22158848,0.615156 0.4519964,0.775009 z"
     style="fill:#ffffff;fill-opacity:0.05100002"
     inkscape:connector-curvature="0" />
  <path
     style="fill:#f9f9f9;fill-opacity:1"
     inkscape:connector-curvature="0"
     id="path30"
     d="m 4.3285774,4.022933 c 0.1336725,0.1347491 0.2700254,0.2779117 0.4090504,0.4294981 0.080196,0.089943 0.1684287,0.1319378 0.2646827,0.126315 0.069508,-0.00622 0.1176305,-0.050522 0.1443718,-0.1347492 0.032078,-0.08984 0.02139,-0.2329815 -0.032079,-0.4294981 C 5.0825123,3.9078427 4.9835993,3.8123906 4.8178388,3.728184 4.4007629,3.5597398 4.1574632,3.5007838 4.0879623,3.5513264 c -0.032079,0.022615 -0.042779,0.075835 -0.032079,0.1599997 0.02139,0.072826 0.1122876,0.176868 0.2727033,0.3116069 z M 3.5425944,5.6230445 C 3.7992504,5.93184 4.0318512,6.1451833 4.2404109,6.2631057 4.3259589,6.2799118 4.3981448,6.2464034 4.4569683,6.162062 4.494397,6.0892358 4.5077671,5.9964602 4.4970663,5.8841502 4.4328962,5.6146726 4.1601971,5.409753 3.6789671,5.2694018 c -0.00536,-0.00622 -0.010725,-0.0083 -0.01604,-0.0083 -0.1015988,-0.022615 -0.1791282,-0.025209 -0.2326002,-0.0083 -0.037429,0.00622 -0.050799,0.047721 -0.040098,0.126315 0.00536,0.07293 0.05615,0.1543977 0.1523928,0.2442167 z m 0.01604,3.267551 c -0.069508,0.022616 -0.093578,0.084238 -0.07219,0.1852503 0.1176366,0.4435551 0.2673507,0.7046504 0.4491535,0.7832238 0.037429,0.039318 0.08556,0.050626 0.1443721,0.033612 0.037429,-0.016806 0.058819,-0.098243 0.064168,-0.2442063 0.00536,-0.2189869 0.2299206,-1.0723396 0.6737155,-2.5601619 0.032079,-0.08984 0.045449,-0.1543977 0.040098,-0.1936948 C 4.8525881,6.8383911 4.823191,6.8299881 4.769724,6.8693059 4.7055539,6.9199315 4.4007718,7.4700493 3.8553868,8.5198978 3.8019187,8.6434326 3.7029941,8.7669363 3.558622,8.8904399 z M 7.232067,8.5874125 c 0.00536,0.00622 0.013358,0.013901 0.02406,0.025209 0.6897469,0.9263657 1.1336018,1.4204425 1.3314022,1.4821585 0.2726917,0.101043 0.7405819,0.08424 1.403592,-0.05063 0.1015832,-0.0062 0.1577292,-0.02521 0.1684352,-0.059029 0.0053,-0.039318 -0.02942,-0.075731 -0.104267,-0.1094571 C 9.0928047,9.550046 8.4458247,9.2636897 8.114292,9.0166927 7.8736662,8.8594836 7.6731546,8.7050755 7.512769,8.5534892 7.9672635,8.4972615 8.5233423,8.4635457 9.1810826,8.4525492 9.5072465,8.4693552 9.6917212,8.4442499 9.7345147,8.3767145 9.755903,8.3204869 9.723792,8.2532108 9.6382679,8.1745959 9.3655595,7.9724981 9.1329592,7.8938728 8.940451,7.9387926 8.5340706,8.0397326 7.9806586,8.149335 7.2802078,8.2672366 7.3122856,8.0931903 7.3390144,7.9163431 7.3604162,7.7366844 7.7026277,7.6692527 8.0261167,7.6131704 8.330914,7.5682194 8.464587,7.5456038 8.5073642,7.4953932 8.4592454,7.416633 8.4057649,7.3267933 8.3041738,7.2678684 8.1544599,7.2397961 7.9619581,7.2171806 7.7053004,7.2624117 7.3844509,7.3745453 c 0.00536,-0.1571987 0.013359,-0.3088058 0.02406,-0.4547694 0.3849815,-0.067432 0.83951,-0.126315 1.363517,-0.1768473 0.053468,-0.00622 0.085547,-0.030915 0.096248,-0.075731 C 8.8682694,6.6277761 8.8014246,6.5605519 8.6677584,6.4650791 8.7800459,6.2292654 8.9030211,6.0748677 9.0367098,6.0018755 9.1329586,5.9119321 9.143648,5.8166045 9.0687875,5.7155607 8.9885781,5.6426308 8.8174682,5.5302897 8.5554701,5.378693 8.4699107,5.3393751 8.3683146,5.3365741 8.2506839,5.3703937 7.9886695,5.4770394 7.7293379,5.5668999 7.4726599,5.6398921 c 0.00536,-0.039318 0.01871,-0.084238 0.040099,-0.1347596 0.02139,-0.067432 0.010726,-0.1178913 -0.032079,-0.1515967 C 7.4004707,5.2862079 7.2988732,5.2272311 7.1758945,5.1766989 7.3576908,5.137381 7.6357353,5.1009679 8.0100238,5.067221 c 0.053468,-0.00622 0.082878,-0.033612 0.088228,-0.084238 0.00536,-0.039422 -0.069519,-0.1094468 -0.2245794,-0.2105424 -0.00536,-0.00622 -0.016051,-0.0083 -0.032079,-0.0083 0.048117,-0.2245786 0.098917,-0.4407333 0.1523927,-0.6484954 0.3261638,-0.056228 0.6336404,-0.10094 0.9223517,-0.1347388 0.053468,0.00622 0.1042682,-0.025313 0.1523928,-0.092744 C 9.0740938,3.8319354 9.0179191,3.7731143 8.900296,3.7113054 8.7398776,3.5878017 8.4645003,3.5934141 8.0741819,3.7281114 c 0.00536,-0.022616 0.013359,-0.047721 0.02406,-0.075731 -4.8e-6,-0.022616 0.045449,-0.1459636 0.1363522,-0.3705421 C 8.2559716,3.2313165 8.22387,3.1611357 8.1383459,3.071296 7.9779262,2.9533944 7.8415741,2.8747898 7.7292953,2.835472 7.6597764,2.8128564 7.6009592,2.8187697 7.5528399,2.852278 c -0.037441,0.033612 -0.042779,0.08984 -0.01604,0.1684235 0.053468,0.1066562 0.080196,0.1993072 0.080209,0.2779118 -0.00536,0.1740463 -0.01337,0.3593381 -0.02406,0.5558235 -0.048131,1.04e-5 -0.3368678,0.06183 -0.866244,0.1852815 -4.6e-6,-0.3705318 -0.010725,-0.5670587 -0.032078,-0.5895187 -0.00536,-0.00622 -0.010725,-0.0083 -0.01604,-0.0083 C 6.6090682,3.3856727 6.5074796,3.3380245 6.3738007,3.298717 6.272202,3.2761015 6.1759578,3.2904178 6.0850567,3.3406284 6.0369261,3.38005 6.047628,3.4333729 6.1171355,3.5006385 6.2026835,3.6353877 6.2775435,3.8319043 6.3417151,4.0901571 6.0850532,4.1069632 5.8150232,4.140679 5.531631,4.1912009 c -0.144372,0.016806 -0.1604136,0.07293 -0.04813,0.1684235 0.1497143,0.1347492 0.3315165,0.176868 0.5454015,0.126315 0.1122874,-0.033612 0.2379413,-0.058925 0.3769722,-0.075835 0.085548,0.5726711 0.1497148,0.9011359 0.1924978,0.9853632 0.037429,0.050522 0.072178,0.056228 0.1042679,0.016702 0.01604,-0.022616 0.032079,-0.061726 0.048131,-0.1179017 C 6.8951386,5.4458653 6.978019,5.6002526 6.9994122,5.7574514 6.6732381,5.813679 6.3417269,5.8668877 6.0048695,5.9174822 5.9834791,5.8669604 5.8498025,5.8304435 5.603841,5.8080147 c -0.06417,-0.016702 -0.1015987,-0.0083 -0.1122873,0.025209 -0.032091,0.033612 -0.02407,0.08984 0.02406,0.1684339 0.1336725,0.2358136 0.2513091,0.5502319 0.3529115,0.9432235 0.021391,0.1178809 0.069509,0.2133434 0.1443719,0.2863355 0.096236,0.1066665 0.155061,0.1207027 0.1764542,0.041911 0.00536,-0.039318 0.010725,-0.08984 0.01604,-0.1515863 0.032078,0.00622 0.074859,0.00207 0.1283315,-0.0083 C 6.5155198,7.0627206 6.742772,7.017697 7.0154534,6.9784933 7.01009,7.1469272 7.0020833,7.3097383 6.9913938,7.466937 6.649178,7.539867 6.3230032,7.6185338 6.0128811,7.7027403 c -0.096248,0.022616 -0.08556,0.078532 0.032078,0.1684339 0.064157,0.050522 0.3716193,0.028114 0.9223515,-0.067432 -0.00536,0.039422 -0.010724,0.087039 -0.01604,0.1431626 -0.00536,0.1347491 -0.026739,0.2638756 -0.06417,0.3874 -0.5828586,0.08984 -1.2057924,0.1824596 -1.8688037,0.2779014 -0.1122871,0.01691 -0.1256572,0.070233 -0.040099,0.1600308 0.069509,0.072826 0.1523869,0.1235141 0.2486414,0.151576 0.1122873,0.022616 0.2085318,0.022616 0.2887451,0 C 5.9059184,8.8059221 6.3229774,8.7189042 6.7667783,8.6627388 6.5101155,9.0838339 6.1678885,9.4066344 5.7401187,9.6311922 5.5583166,9.7211356 5.3337372,9.8249077 5.0664022,9.9428094 c -0.06417,0.022616 -0.1069371,0.042015 -0.1283302,0.059029 -0.02139,0.02262 0.00536,0.04482 0.080209,0.06733 C 5.5155589,10.102778 6.0823268,9.892329 6.7186562,9.4375907 6.7988522,9.3702628 6.8710444,9.2972084 6.9352148,9.2186142 7.0635403,9.0445679 7.1571161,8.8340359 7.2159396,8.5870183 z M 7.0235618,6.7261226 C 6.7187761,6.7768519 6.4353784,6.8243653 6.1734015,6.8692955 6.1092315,6.5604897 6.0691218,6.3331102 6.053092,6.1871362 6.0905208,6.1809117 6.13864,6.1675292 6.197464,6.1450174 6.4594678,6.0887897 6.7294978,6.03278 7.0075482,5.9765938 c 0.00536,0.2582425 0.010724,0.5081027 0.01604,0.7495288 z M 7.4085554,6.2460818 c -5.9e-6,-0.1178912 0.00804,-0.2357929 0.02406,-0.3536945 0.1924901,-0.039422 0.384982,-0.081333 0.5774779,-0.1263254 0.1497142,-0.039318 0.2593299,-0.025209 0.3288425,0.041911 0.032078,0.033612 0.040098,0.087039 0.02406,0.1600101 -0.03744,0.1740567 -0.08021,0.3340564 -0.1283314,0.48002 -0.2940965,0.067432 -0.569463,0.1319275 -0.8261141,0.1936948 -4.6e-6,-0.1403408 -4.6e-6,-0.272289 0,-0.3958134 z M 6.7670636,4.974435 C 6.7617002,4.8901973 6.7563389,4.8116135 6.7510232,4.738611 6.7456598,4.5982909 6.7402974,4.4663324 6.7349828,4.3427976 6.9809448,4.28657 7.2616639,4.2333508 7.5771269,4.1827978 7.5557366,4.3736917 7.5343472,4.5730092 7.5129569,4.7807402 7.2349019,4.8649779 6.9862653,4.9295048 6.7670502,4.974435 z" />
</svg>
