<?xml version="1.0" encoding="UTF-8" standalone="no"?>
<svg
   xmlns:dc="http://purl.org/dc/elements/1.1/"
   xmlns:cc="http://creativecommons.org/ns#"
   xmlns:rdf="http://www.w3.org/1999/02/22-rdf-syntax-ns#"
   xmlns:svg="http://www.w3.org/2000/svg"
   xmlns="http://www.w3.org/2000/svg"
   xmlns:xlink="http://www.w3.org/1999/xlink"
   xmlns:sodipodi="http://sodipodi.sourceforge.net/DTD/sodipodi-0.dtd"
   xmlns:inkscape="http://www.inkscape.org/namespaces/inkscape"
   width="48"
   viewBox="0 0 13.546667 13.546667"
   height="48"
   id="svg2"
   version="1.1"
   inkscape:version="0.48.4 r9939"
   sodipodi:docname="gnome-tweak-tool.svg">
  <metadata
     id="metadata36">
    <rdf:RDF>
      <cc:Work
         rdf:about="">
        <dc:format>image/svg+xml</dc:format>
        <dc:type
           rdf:resource="http://purl.org/dc/dcmitype/StillImage" />
      </cc:Work>
    </rdf:RDF>
  </metadata>
  <sodipodi:namedview
     pagecolor="#ffffff"
     bordercolor="#666666"
     borderopacity="1"
     objecttolerance="10"
     gridtolerance="10"
     guidetolerance="10"
     inkscape:pageopacity="0"
     inkscape:pageshadow="2"
     inkscape:window-width="640"
     inkscape:window-height="480"
     id="namedview34"
     showgrid="false"
     inkscape:zoom="4.9166667"
     inkscape:cx="24"
     inkscape:cy="24"
     inkscape:window-x="0"
     inkscape:window-y="0"
     inkscape:window-maximized="0"
     inkscape:current-layer="svg2" />
  <defs
     id="defs4">
    <linearGradient
       id="0">
      <stop
         stop-color="#1c2026"
         id="stop7" />
      <stop
         offset="1"
         stop-color="#363c48"
         id="stop9" />
    </linearGradient>
    <linearGradient
       gradientTransform="matrix(0.28222223,0,0,0.28222223,-2.0000001e-8,-283.45334)"
       xlink:href="#0"
       id="1"
       y1="1050.36"
       x2="0"
       y2="1006.36"
       gradientUnits="userSpaceOnUse" />
    <radialGradient
       cx="148.004"
       cy="160"
       gradientTransform="matrix(0.1831,0,0,0.1831,-3.10029,-5.29688)"
       id="radial0"
       r="128"
       gradientUnits="userSpaceOnUse">
      <stop
         offset="0"
         style="stop-color:#f4a8b0"
         id="stop7-2" />
      <stop
         offset="1"
         style="stop-color:#b21426"
         id="stop9-2" />
    </radialGradient>
    <radialGradient
       r="128"
       cy="160"
       cx="148.004"
       gradientTransform="matrix(0.05167489,0,0,0.05167489,-0.8749708,-1.4948998)"
       gradientUnits="userSpaceOnUse"
       id="radialGradient3015"
       xlink:href="#radial0"
       inkscape:collect="always" />
  </defs>
  <path
     inkscape:connector-curvature="0"
     style="fill:url(#radialGradient3015)"
     d="m 13.387917,3.2587823 0,7.0290977 c 0,2.892778 0,3.100035 -3.100035,3.100035 l -7.0279948,0 C 0.15875,13.387915 0.15875,13.180658 0.15875,10.28788 l 0,-7.0290977 c 0,-2.89277785 0,-3.1000348 3.1011372,-3.1000348 l 7.0279948,0 c 3.100035,0 3.100035,0.20725695 3.100035,3.1000348 z"
     id="path11" />
  <path
     inkscape:connector-curvature="0"
     style="fill:#ffffff;fill-opacity:0.05100002"
     d="m 10.79941,13.387915 c 0.717682,-0.0033 1.235825,-0.02315 1.611753,-0.124575 l -1.193932,-2.046111 -1.2655901,2.170686 0.3362411,0 c 0.180799,0 0.350573,0 0.511528,0 z M 11.217231,11.217229 9.7708423,8.7367598 8.323351,11.217229 z m 0,0 2.159662,0 c 0.0088,-0.274505 0.01102,-0.582083 0.01102,-0.930451 l 0,-0.3097839 -0.723194,-1.2402343 z M 12.664723,8.7367598 11.217231,6.2562911 9.7708423,8.7367598 z m 0,0 0.723194,0 0,-1.2402343 z m -2.8938807,0 L 8.323351,6.2562911 6.8769621,8.7367598 z m -2.8938802,0 -1.4474916,2.4804682 2.8938805,0 z m 0,0 L 5.4294705,6.2562911 3.9830816,8.7367598 z m -2.8938805,0 -1.4474913,2.4804682 2.8938802,0 z m 0,0 L 2.5355903,6.2562911 1.0892014,8.7367598 z m -2.8938802,0 L 0.15875,10.330875 c 0,0.329627 0.003307,0.623976 0.0110242,0.886354 l 2.36581614,0 z m 0,0 -0.9304514,-1.5941145 0,1.5941145 z M 2.5355903,11.217229 1.318507,13.30413 c 0.450894,0.08268 1.0748699,0.08379 1.9402778,0.08379 l 0.5434982,0 z m 0,-4.9609379 L 1.0892014,3.7758222 0.15875,5.3699369 l 0,0.8863542 z m 0,0 2.8938802,0 L 3.9830816,3.7758222 z M 3.9830816,3.7758222 2.5355903,1.2953535 1.0892014,3.7758222 z m 0,0 2.8938805,0 -1.4474916,-2.4804687 z m 1.4463889,-2.4804687 -0.663663,-1.136606 -1.5070227,0 c -0.020946,0 -0.038585,0 -0.059531,0 l -0.6636634,1.136606 z m 0,0 2.8938805,0 -0.6636633,-1.136606 -1.5665538,0 z m 2.8938805,0 2.89388,0 -0.663663,-1.136606 c -0.0882,0 -0.171979,0 -0.266788,0 l -1.2997659,0 z m 0,0 -1.4463889,2.4804687 2.8938802,0 z m 1.4474913,2.4804687 2.8938807,0 -1.447492,-2.4804687 z m 0,0 -1.4474913,2.4804689 2.89388,0 z m 1.4463887,2.4804689 2.170686,0 0,-1.2402343 -0.723194,-1.2402346 z m 1.447492,-2.4804689 0.723194,0 0,-0.5170399 c 0,-0.2579689 -0.0022,-0.4938889 -0.0066,-0.71217 z M 8.323351,6.2562911 6.8769621,3.7758222 5.4294705,6.2562911 z m 2.89388,-4.9609376 2.062648,0 C 13.123334,0.51703737 12.747405,0.27119556 11.859948,0.19402528 z m -8.6816407,0 L 1.8851564,0.17969375 C 0.85217877,0.2381225 0.4343575,0.46081334 0.26678806,1.2953535 z M 1.0892014,3.7758222 0.17528653,2.208166 C 0.16315972,2.5113345 0.15875,2.8597023 0.15875,3.2587823 l 0,0.5170399 z m 4.3402691,7.4414068 -1.2655903,2.170686 2.532283,0 z m 2.8938805,0 -1.2655906,2.170686 2.5322833,0 z M 0.7320139,13.085849 0.28001751,12.31084 c 0.0826821,0.371518 0.22158847,0.615157 0.45199639,0.775009 z"
     id="path13" />
  <path
     inkscape:connector-curvature="0"
     style="fill:none;stroke:#ffffff;stroke-width:0.41750357;stroke-linecap:round;stroke-linejoin:round"
     d="m 3.9635347,5.3120686 5.6195975,0 c 0.1774391,0 0.3214778,0.1440388 0.3214778,0.3214777 l 0,2.2795692 c 0,0.1774391 -0.1440387,0.3214779 -0.3214778,0.3214779 l -5.6195975,0 c -0.1774391,0 -0.3214778,-0.1440388 -0.3214778,-0.3214779 l 0,-2.2795692 c 0,-0.1774389 0.1440387,-0.3214777 0.3214778,-0.3214777 z"
     id="path15" />
  <path
     inkscape:connector-curvature="0"
     style="fill:#ffffff"
     d="m 4.1639363,5.7295721 c -0.057755,0 -0.1043758,0.046621 -0.1043758,0.1043759 l 0,1.878766 c 0,0.057755 0.046621,0.1043759 0.1043758,0.1043759 l 2.5161547,0 c 0.057755,0 0.1043759,-0.046621 0.1043759,-0.1043759 l 0,-1.878766 c 0,-0.057755 -0.046621,-0.1043759 -0.1043759,-0.1043759 z m 0.7306312,1.4612624 0,-0.8350071 0.2087518,0 0,0.8350071 z m 0.4175036,0 0,-0.8350071 0.2087517,0 0,0.8350071 z m 0.4175035,0 0,-0.8350071 0.2087518,0 0,0.8350071 z"
     id="path17" />
</svg>
