<?xml version="1.0" encoding="UTF-8" standalone="no"?>
<svg
   xmlns:dc="http://purl.org/dc/elements/1.1/"
   xmlns:cc="http://creativecommons.org/ns#"
   xmlns:rdf="http://www.w3.org/1999/02/22-rdf-syntax-ns#"
   xmlns:svg="http://www.w3.org/2000/svg"
   xmlns="http://www.w3.org/2000/svg"
   xmlns:xlink="http://www.w3.org/1999/xlink"
   xmlns:sodipodi="http://sodipodi.sourceforge.net/DTD/sodipodi-0.dtd"
   xmlns:inkscape="http://www.inkscape.org/namespaces/inkscape"
   width="48"
   viewBox="0 0 13.546667 13.546667"
   height="48"
   id="svg2"
   version="1.1"
   inkscape:version="0.48.4 r9939"
   sodipodi:docname="gns3.svg">
  <metadata
     id="metadata43">
    <rdf:RDF>
      <cc:Work
         rdf:about="">
        <dc:format>image/svg+xml</dc:format>
        <dc:type
           rdf:resource="http://purl.org/dc/dcmitype/StillImage" />
      </cc:Work>
    </rdf:RDF>
  </metadata>
  <sodipodi:namedview
     pagecolor="#ffffff"
     bordercolor="#666666"
     borderopacity="1"
     objecttolerance="10"
     gridtolerance="10"
     guidetolerance="10"
     inkscape:pageopacity="0"
     inkscape:pageshadow="2"
     inkscape:window-width="672"
     inkscape:window-height="480"
     id="namedview41"
     showgrid="false"
     inkscape:zoom="4.9166667"
     inkscape:cx="25.423729"
     inkscape:cy="25.830508"
     inkscape:window-x="220"
     inkscape:window-y="163"
     inkscape:window-maximized="0"
     inkscape:current-layer="svg2" />
  <defs
     id="defs4">
    <linearGradient
       id="0">
      <stop
         stop-color="#dedede"
         id="stop7" />
      <stop
         offset="1"
         stop-color="#f9f9f9"
         id="stop9" />
    </linearGradient>
    <linearGradient
       gradientTransform="matrix(0.28222223,0,0,0.28222223,0,-283.45334)"
       xlink:href="#0"
       id="1"
       y1="1050.36"
       x2="0"
       y2="1006.36"
       gradientUnits="userSpaceOnUse" />
    <path
       id="2"
       d="m 26.033899,28.881355 a 7.1186442,8.3389826 0 1 1 -14.237289,0 7.1186442,8.3389826 0 1 1 14.237289,0 z" />
    <radialGradient
       r="128"
       cy="160"
       cx="148.004"
       spreadMethod="pad"
       gradientTransform="matrix(0.1831,0,0,0.1831,-3.10079,-5.2963972)"
       gradientUnits="userSpaceOnUse"
       id="radialGradient3030"
       xlink:href="#linearGradient4460"
       inkscape:collect="always" />
    <linearGradient
       id="linearGradient4460">
      <stop
         offset="0"
         style="stop-color:#747474;stop-opacity:1;"
         id="stop8-6" />
      <stop
         offset="1"
         style="stop-color:#2d2d2d;stop-opacity:1;"
         id="stop10-2" />
    </linearGradient>
    <radialGradient
       r="128"
       cy="160"
       cx="148.004"
       spreadMethod="pad"
       gradientTransform="matrix(0.05167489,0,0,0.05167489,-0.8749708,-1.4948998)"
       gradientUnits="userSpaceOnUse"
       id="radialGradient3015"
       xlink:href="#linearGradient4460"
       inkscape:collect="always" />
  </defs>
  <path
     inkscape:connector-curvature="0"
     style="fill:url(#radialGradient3015);fill-opacity:1"
     d="m 13.387917,3.258782 0,7.029098 c 0,2.892778 0,3.100035 -3.100035,3.100035 l -7.0279948,0 C 0.15875,13.387915 0.15875,13.180658 0.15875,10.28788 l 0,-7.029098 c 0,-2.89277755 0,-3.1000345 3.1011372,-3.1000345 l 7.0279948,0 c 3.100035,0 3.100035,0.20725695 3.100035,3.1000345 z"
     id="path11" />
  <path
     inkscape:connector-curvature="0"
     id="path15-7"
     d="m 10.79941,13.387915 c 0.717682,-0.0033 1.235825,-0.02315 1.611753,-0.124575 l -1.193932,-2.046111 -1.2655901,2.170686 0.3362411,0 c 0.180799,0 0.350573,0 0.511528,0 z M 11.217231,11.217229 9.7708423,8.7367595 8.323351,11.217229 z m 0,0 2.159662,0 c 0.0088,-0.274505 0.01102,-0.582083 0.01102,-0.930451 l 0,-0.3097842 L 12.66472,8.7367595 z M 12.664723,8.7367595 11.217231,6.2562908 9.7708423,8.7367595 z m 0,0 0.723194,0 0,-1.2402343 z m -2.8938807,0 L 8.323351,6.2562908 6.8769621,8.7367595 z m -2.8938802,0 -1.4474916,2.4804685 2.8938805,0 z m 0,0 L 5.4294705,6.2562908 3.9830816,8.7367595 z m -2.8938805,0 -1.4474913,2.4804685 2.8938802,0 z m 0,0 L 2.5355903,6.2562908 1.0892014,8.7367595 z m -2.8938802,0 L 0.15875,10.330875 c 0,0.329627 0.00331,0.623976 0.0110236,0.886354 l 2.3658162,0 z m 0,0 L 0.15875,7.142645 l 0,1.5941145 z M 2.5355903,11.217229 1.318507,13.30413 c 0.450894,0.08268 1.0748699,0.08379 1.9413802,0.08379 l 0.5423958,0 z m 0,-4.9609382 L 1.0892014,3.7758219 0.15875,5.3699367 l 0,0.8863541 z m 0,0 2.8938802,0 L 3.9830816,3.7758219 z M 3.9830816,3.7758219 2.5355903,1.2953535 1.0892014,3.7758219 z m 0,0 2.8938805,0 -1.4474916,-2.4804684 z m 1.4463889,-2.4804684 -0.663663,-1.136606 -1.5059203,0 c -0.02205,0 -0.039688,0 -0.060634,0 l -0.6636629,1.136606 z m 0,0 2.8938805,0 -0.6636633,-1.136606 -1.5665538,0 z m 2.8938805,0 2.89388,0 -0.663663,-1.136606 c -0.0882,0 -0.171979,0 -0.265686,0 l -1.3008679,0 z m 0,0 -1.4463889,2.4804684 2.8938802,0 z m 1.4474913,2.4804684 2.8938807,0 -1.447492,-2.4804684 z m 0,0 -1.4474913,2.4804689 2.89388,0 z m 1.4463887,2.4804689 2.170686,0 0,-1.2402343 -0.723194,-1.2402346 z m 1.447492,-2.4804689 0.723194,0 0,-0.5170399 c 0,-0.2579689 -0.0022,-0.4938886 -0.0066,-0.7121697 z M 8.323351,6.2562908 6.8769621,3.7758219 5.4294705,6.2562908 z m 2.89388,-4.9609373 2.062648,0 C 13.123334,0.51703737 12.747405,0.27119556 11.859948,0.19402528 z m -8.6816407,0 L 1.8851564,0.17969375 C 0.85217877,0.2381225 0.4343575,0.46081334 0.26678806,1.2953535 z M 1.0892014,3.7758219 0.17528653,2.208166 c -0.0121271,0.3031685 -0.0165354,0.6515363 -0.0165354,1.050616 l 0,0.5170399 z m 4.3402691,7.4414071 -1.2655903,2.170686 2.532283,0 z m 2.8938805,0 -1.2655906,2.170686 2.5322833,0 z M 0.7320139,13.085849 0.28001751,12.31084 c 0.0826821,0.371518 0.22158847,0.615157 0.45199639,0.775009 z"
     style="fill:#ffffff;fill-opacity:0.05100002" />
  <path
     d="M 4.5155557,7.9022225 C 4.6459474,7.5006756 6.4911113,4.7977779 6.4911113,4.7977779 L 6.7733335,5.0800002 4.7977779,8.1844447 z"
     fill="#38adda"
     id="path29"
     style="fill:#f9f9f9;fill-opacity:1" />
  <path
     d="m 5.0800001,8.7488891 0,0.2822223 3.3866668,0 0,-0.2822223 z"
     fill="#e55858"
     id="path31"
     style="fill:#f9f9f9;fill-opacity:1" />
  <use
     transform="matrix(0.15858201,0,0,0.1353749,1.5159366,4.8390785)"
     fill="#e55858"
     xlink:href="#2"
     id="use33"
     style="fill:#f9f9f9;fill-opacity:1" />
  <path
     d="M 9.0311115,7.9022225 C 8.9007198,7.5006756 7.0555559,4.7977779 7.0555559,4.7977779 L 6.7733337,5.0800002 8.7488893,8.1844447 z"
     fill="#ff9500"
     id="path35"
     style="fill:#f9f9f9;fill-opacity:1" />
  <use
     transform="matrix(0.15858201,0,0,0.1353749,6.0314926,4.8390785)"
     fill="#ff9500"
     xlink:href="#2"
     id="use37"
     style="fill:#f9f9f9;fill-opacity:1" />
  <use
     transform="matrix(0.15858201,0,0,0.1353749,3.7737146,0.32352254)"
     fill="#38adda"
     xlink:href="#2"
     id="use39"
     style="fill:#f9f9f9;fill-opacity:1" />
</svg>
