<?xml version="1.0" encoding="UTF-8" standalone="no"?>
<svg
   xmlns:dc="http://purl.org/dc/elements/1.1/"
   xmlns:cc="http://creativecommons.org/ns#"
   xmlns:rdf="http://www.w3.org/1999/02/22-rdf-syntax-ns#"
   xmlns:svg="http://www.w3.org/2000/svg"
   xmlns="http://www.w3.org/2000/svg"
   xmlns:xlink="http://www.w3.org/1999/xlink"
   xmlns:sodipodi="http://sodipodi.sourceforge.net/DTD/sodipodi-0.dtd"
   xmlns:inkscape="http://www.inkscape.org/namespaces/inkscape"
   height="48"
   width="48"
   viewBox="0 0 13.546667 13.546667"
   id="svg2"
   version="1.1"
   inkscape:version="0.48.4 r9939"
   sodipodi:docname="gtg.svg">
  <metadata
     id="metadata44">
    <rdf:RDF>
      <cc:Work
         rdf:about="">
        <dc:format>image/svg+xml</dc:format>
        <dc:type
           rdf:resource="http://purl.org/dc/dcmitype/StillImage" />
      </cc:Work>
    </rdf:RDF>
  </metadata>
  <sodipodi:namedview
     pagecolor="#ffffff"
     bordercolor="#666666"
     borderopacity="1"
     objecttolerance="10"
     gridtolerance="10"
     guidetolerance="10"
     inkscape:pageopacity="0"
     inkscape:pageshadow="2"
     inkscape:window-width="640"
     inkscape:window-height="480"
     id="namedview42"
     showgrid="false"
     inkscape:zoom="4.9166667"
     inkscape:cx="24"
     inkscape:cy="24"
     inkscape:window-x="0"
     inkscape:window-y="0"
     inkscape:window-maximized="0"
     inkscape:current-layer="svg2" />
  <defs
     id="defs4">
    <linearGradient
       id="0"
       gradientUnits="userSpaceOnUse"
       x2="0"
       gradientTransform="matrix(1.09524,0,0,1.09524,-133.00183,-293.02198)"
       y1="279.1"
       y2="268.33">
      <stop
         stop-color="#dcdcdc"
         id="stop7" />
      <stop
         stop-color="#f8f8f8"
         offset="1"
         id="stop9" />
    </linearGradient>
    <linearGradient
       gradientTransform="matrix(0.28222223,0,0,0.28222223,0,-283.45334)"
       xlink:href="#0"
       id="1"
       y1="1050.36"
       x2="0"
       y2="1006.36"
       gradientUnits="userSpaceOnUse" />
    <radialGradient
       r="128"
       cy="160"
       cx="148.004"
       gradientTransform="matrix(0.05167489,0,0,0.05167489,-0.87511191,-1.4947616)"
       gradientUnits="userSpaceOnUse"
       id="radialGradient3019"
       xlink:href="#radial0"
       inkscape:collect="always" />
    <radialGradient
       cx="148.004"
       cy="160"
       gradientTransform="matrix(0.1831,0,0,0.1831,-3.10029,-5.29688)"
       id="radial0"
       r="128"
       gradientUnits="userSpaceOnUse">
      <stop
         offset="0"
         style="stop-color:#d1c16f"
         id="stop7-7" />
      <stop
         offset="1"
         style="stop-color:#7a5b00"
         id="stop9-0" />
    </radialGradient>
    <radialGradient
       r="128"
       cy="160"
       cx="148.004"
       gradientTransform="matrix(0.05167489,0,0,0.05167489,-0.87482968,-1.4947611)"
       gradientUnits="userSpaceOnUse"
       id="radialGradient3013"
       xlink:href="#radial0"
       inkscape:collect="always" />
  </defs>
  <path
     inkscape:connector-curvature="0"
     style="fill:url(#radialGradient3013)"
     d="m 13.388057,3.258921 0,7.029097 c 0,2.892778 0,3.100035 -3.100035,3.100035 l -7.0279937,0 c -3.10113718,0 -3.10113718,-0.207257 -3.10113718,-3.100035 l 0,-7.029097 c 0,-2.89277779 0,-3.10003479 3.10113718,-3.10003479 l 7.0279937,0 c 3.100035,0 3.100035,0.207257 3.100035,3.10003479 z"
     id="path11" />
  <path
     inkscape:connector-curvature="0"
     style="fill:#ffffff;fill-opacity:0.05100002"
     d="m 10.79955,13.388053 c 0.717682,-0.0033 1.235825,-0.02315 1.611753,-0.124575 l -1.193932,-2.046111 -1.2655892,2.170686 0.3362402,0 c 0.180799,0 0.350573,0 0.511528,0 z M 11.217371,11.217367 9.7709838,8.7368981 8.3234918,11.217367 z m 0,0 2.159662,0 c 0.0088,-0.274505 0.01102,-0.582083 0.01102,-0.930451 l 0,-0.3097829 -0.723194,-1.240235 z m 1.447492,-2.4804689 -1.447492,-2.480468 -1.4463872,2.480468 z m 0,0 0.723194,0 0,-1.240234 z m -2.8938792,0 -1.447492,-2.480468 -1.446389,2.480468 z m -2.893881,0 -1.447491,2.4804689 2.89388,0 z m 0,0 -1.447491,-2.480468 -1.446389,2.480468 z m -2.89388,0 -1.4474914,2.4804689 2.8938804,0 z m 0,0 -1.4474914,-2.480468 -1.4463888,2.480468 z m -2.8938802,0 -0.93045148,1.5941149 c 0,0.329627 0.00331,0.623976 0.011024,0.886354 l 2.36581608,0 z m 0,0 -0.93045148,-1.594114 0,1.594114 z m 1.4463888,2.4804689 -1.2170833,2.086901 c 0.450894,0.08268 1.0748699,0.08379 1.9413802,0.08379 l 0.5423955,0 z m 0,-4.9609369 -1.4463888,-2.4804692 -0.93045148,1.5941152 0,0.886354 z m 0,0 2.8938804,0 -1.446389,-2.4804692 z M 3.9832228,3.7759609 2.5357314,1.2954922 1.0893426,3.7759609 z m 0,0 2.89388,0 -1.447491,-2.4804687 z m 1.446389,-2.4804687 -0.663663,-1.13660599 -1.5070229,0 c -0.020946,0 -0.038585,0 -0.059531,0 L 2.5357315,1.2954922 z m 0,0 2.89388,0 -0.663663,-1.13660599 -1.566554,0 z m 2.89388,0 2.8938792,0 -0.663663,-1.13660599 c -0.0882,0 -0.171979,0 -0.266788,0 l -1.2997652,0 z m 0,0 -1.446389,2.4804687 2.893881,0 z m 1.447492,2.4804687 2.8938792,0 -1.447492,-2.4804687 z m 0,0 -1.447492,2.4804692 2.8938792,0 z m 1.4463872,2.4804692 2.170686,0 0,-1.2402346 -0.723194,-1.2402346 z m 1.447492,-2.4804692 0.723194,0 0,-0.5170399 c 0,-0.2579689 -0.0022,-0.4938889 -0.0066,-0.71217 z M 8.3234918,6.2564301 6.8771028,3.7759609 5.4296118,6.2564301 z m 2.8938792,-4.9609379 2.062648,0 C 13.123474,0.51717611 12.747545,0.27133431 11.860088,0.19416401 z m -8.6816396,0 L 1.8852975,0.17983251 C 0.85231992,0.23826121 0.43449862,0.46095211 0.26692922,1.2954922 z M 1.0893426,3.7759609 0.17542762,2.2083047 C 0.16330082,2.5114732 0.15889112,2.859841 0.15889112,3.258921 l 0,0.5170399 z m 4.3402692,7.4414061 -1.26559,2.170686 2.532283,0 z m 2.89388,0 -1.26559,2.170686 2.532283,0 z m -7.59133678,1.86862 -0.4519964,-0.775009 c 0.082682,0.371519 0.2215886,0.615157 0.4519964,0.775009 z"
     id="path13" />
  <path
     inkscape:connector-curvature="0"
     d="m 6.7736158,3.3866672 c -1.850479,0 -3.3866668,1.5000258 -3.3866668,3.3866669 0,1.886641 1.5361878,3.3866659 3.3866668,3.3866659 1.850479,0 3.3866662,-1.5000249 3.3866662,-3.3866659 0,-1.8866411 -1.5361872,-3.3866669 -3.3866662,-3.3866669 z m 0,0.5717041 c 1.607697,0 2.87648,1.2765893 2.87648,2.8149628 0,1.538373 -1.268783,2.814962 -2.87648,2.814962 -1.607697,0 -2.87648,-1.276589 -2.87648,-2.814962 0,-1.5383735 1.268783,-2.8149628 2.87648,-2.8149628 z"
     id="path30"
     style="color:#000000;fill:#f9f9f9;fill-opacity:1" />
  <g
     transform="matrix(0.00996415,0,0,0.00998038,4.9132598,2.9325533)"
     id="g32"
     style="fill:#f9f9f9;fill-opacity:1">
    <path
       inkscape:connector-curvature="0"
       d="M 25.257828,388.61333 150.45625,554.27704 c 37.34741,38 79.69481,38 94.04221,0 C 304.95799,413.59515 467.18948,152.15947 574.3879,75.207333 603.02112,44.393193 556.09708,2.2137629 520.0424,22.567643 442.55598,59.297633 219.55415,375.7357 190.73563,465.21994 L 95.906641,334.51412 C 61.357035,284.54719 -7.1925678,340.58026 25.257828,388.61333 z"
       id="path34"
       style="fill:#f9f9f9;fill-opacity:1;fill-rule:evenodd" />
  </g>
</svg>
