<?xml version="1.0" encoding="UTF-8" standalone="no"?>
<svg
   xmlns:dc="http://purl.org/dc/elements/1.1/"
   xmlns:cc="http://creativecommons.org/ns#"
   xmlns:rdf="http://www.w3.org/1999/02/22-rdf-syntax-ns#"
   xmlns:svg="http://www.w3.org/2000/svg"
   xmlns="http://www.w3.org/2000/svg"
   xmlns:xlink="http://www.w3.org/1999/xlink"
   xmlns:sodipodi="http://sodipodi.sourceforge.net/DTD/sodipodi-0.dtd"
   xmlns:inkscape="http://www.inkscape.org/namespaces/inkscape"
   width="48"
   viewBox="0 0 13.546667 13.546667"
   height="48"
   id="svg2"
   version="1.1"
   inkscape:version="0.48.4 r9939"
   sodipodi:docname="hp_logo.svg">
  <metadata
     id="metadata26">
    <rdf:RDF>
      <cc:Work
         rdf:about="">
        <dc:format>image/svg+xml</dc:format>
        <dc:type
           rdf:resource="http://purl.org/dc/dcmitype/StillImage" />
      </cc:Work>
    </rdf:RDF>
  </metadata>
  <defs
     id="defs24">
    <radialGradient
       r="128"
       cy="160"
       cx="148.004"
       gradientTransform="matrix(0.05167489,0,0,0.05167489,-0.87511211,-1.4947612)"
       gradientUnits="userSpaceOnUse"
       id="radialGradient3018"
       xlink:href="#radial0"
       inkscape:collect="always" />
    <radialGradient
       cx="148.004"
       cy="160"
       gradientTransform="matrix(0.1831,0,0,0.1831,-3.10029,-5.29688)"
       id="radial0"
       r="128"
       gradientUnits="userSpaceOnUse">
      <stop
         offset="0"
         style="stop-color:#7f9fd0;stop-opacity:1;"
         id="stop7-1" />
      <stop
         offset="1"
         style="stop-color:#2d4c7b;stop-opacity:1;"
         id="stop9-2" />
    </radialGradient>
    <radialGradient
       r="128"
       cy="160"
       cx="148.004"
       gradientTransform="matrix(0.05167489,0,0,0.05167489,-0.87510911,-1.4947613)"
       gradientUnits="userSpaceOnUse"
       id="radialGradient3083"
       xlink:href="#radial0"
       inkscape:collect="always" />
  </defs>
  <sodipodi:namedview
     pagecolor="#ffffff"
     bordercolor="#666666"
     borderopacity="1"
     objecttolerance="10"
     gridtolerance="10"
     guidetolerance="10"
     inkscape:pageopacity="0"
     inkscape:pageshadow="2"
     inkscape:window-width="640"
     inkscape:window-height="480"
     id="namedview22"
     showgrid="false"
     inkscape:zoom="4.9166667"
     inkscape:cx="24"
     inkscape:cy="24"
     inkscape:window-x="460"
     inkscape:window-y="276"
     inkscape:window-maximized="0"
     inkscape:current-layer="svg2" />
  <path
     inkscape:connector-curvature="0"
     style="fill:url(#radialGradient3083)"
     d="m 13.387779,3.2589208 0,7.0290972 c 0,2.892778 0,3.100035 -3.100035,3.100035 l -7.0279944,0 c -3.10113771,0 -3.10113771,-0.207257 -3.10113771,-3.100035 l 0,-7.0290972 c 0,-2.89277785 0,-3.10003475 3.10113771,-3.10003475 l 7.0279944,0 c 3.100035,0 3.100035,0.2072569 3.100035,3.10003475 z"
     id="path11" />
  <path
     inkscape:connector-curvature="0"
     id="path15"
     d="m 10.799272,13.388053 c 0.717682,-0.0033 1.235825,-0.02315 1.611753,-0.124575 l -1.193932,-2.046111 -1.2655897,2.170686 0.3362407,0 c 0.180799,0 0.350573,0 0.511528,0 z M 11.217093,11.217367 9.770705,8.7368983 8.3232132,11.217367 z m 0,0 2.159662,0 c 0.0088,-0.274505 0.01102,-0.582083 0.01102,-0.930451 l 0,-0.3097829 -0.723193,-1.2402348 z M 12.664585,8.7368983 11.217093,6.2564296 9.770705,8.7368983 z m 0,0 0.723194,0 0,-1.2402343 z m -2.89388,0 L 8.3232132,6.2564296 6.8768245,8.7368983 z m -2.8938805,0 -1.4474916,2.4804687 2.8938803,0 z m 0,0 L 5.4293329,6.2564296 3.982944,8.7368983 z m -2.8938805,0 -1.4474915,2.4804687 2.8938804,0 z m 0,0 L 2.5354525,6.2564296 1.0890638,8.7368983 z m -2.8938802,0 -0.93045191,1.5941147 c 0,0.329627 0.0033,0.623976 0.01102,0.886354 l 2.36581671,0 z m 0,0 -0.93045191,-1.5941145 0,1.5941145 z m 1.4463887,2.4804687 -1.2170831,2.086901 c 0.450894,0.08268 1.0748699,0.08379 1.9413802,0.08379 l 0.5423958,0 z m 0,-4.9609374 -1.4463887,-2.4804689 -0.93045191,1.5941147 0,0.8863542 z m 0,0 2.8938804,0 L 3.982944,3.7759607 z M 3.982944,3.7759607 2.5354525,1.295492 1.0890638,3.7759607 z m 0,0 2.8938805,0 L 5.4293329,1.295492 z M 5.4293329,1.295492 4.7656699,0.15888605 l -1.5059203,0 c -0.02205,0 -0.039688,0 -0.060634,0 L 2.5354526,1.295492 z m 0,0 2.8938803,0 -0.6636631,-1.13660595 -1.5665538,0 z m 2.8938803,0 2.8938798,0 -0.663663,-1.13660595 c -0.0882,0 -0.171979,0 -0.265686,0 l -1.3008678,0 z m 0,0 -1.4463887,2.4804687 2.8938805,0 z m 1.4474918,2.4804687 2.89388,0 -1.447492,-2.4804687 z m 0,0 -1.4474918,2.4804689 2.8938798,0 z m 1.446388,2.4804689 2.170686,0 0,-1.2402343 -0.723194,-1.2402346 z m 1.447492,-2.4804689 0.723194,0 0,-0.5170399 c 0,-0.2579689 -0.0022,-0.4938889 -0.0066,-0.71217 z M 8.3232132,6.2564296 6.8768245,3.7759607 5.4293329,6.2564296 z m 2.8938798,-4.9609376 2.062648,0 C 13.123196,0.51717591 12.747267,0.27133405 11.85981,0.19416375 z m -8.6816405,0 L 1.8850186,0.17983225 C 0.85204119,0.23826125 0.43421989,0.46095191 0.26664989,1.295492 z M 1.0890638,3.7759607 0.17514889,2.2083045 c -0.01213,0.3031685 -0.01654,0.6515363 -0.01654,1.0506163 l 0,0.5170399 z m 4.3402691,7.4414063 -1.2655903,2.170686 2.532283,0 z m 2.8938803,0 -1.2655904,2.170686 2.5322833,0 z m -7.59133691,1.86862 -0.4519964,-0.775009 c 0.082682,0.371519 0.2215885,0.615157 0.4519964,0.775009 z"
     style="fill:#ffffff;fill-opacity:0.05100002" />
  <path
     d="m 6.7732726,0.84666741 c -0.8466058,-7.2e-7 -0.5643836,-7.2e-7 -1.2699391,-7.2e-7 C 4.5438812,3.5033879 3.5590692,6.3263441 2.5999543,8.9834035 c 0.061198,0.018578 0.1223192,0.011703 0.1852064,0.012347 0.3495678,-0.00169 0.6999353,0.00138 1.0495031,0 0.047614,-3.374e-4 0.041786,-0.068391 0.061736,-0.098777 0.4212391,-1.1877428 0.8491598,-2.368896 1.2717509,-3.5559635 0.025354,-0.073601 0.05262,-0.1523604 0.08643,-0.2222477 0.2190711,0.00371 0.4353235,-0.00337 0.6543961,0 -0.4594415,1.2866645 -0.9166713,2.5803731 -1.3828747,3.8646409 0.048687,0.019586 0.097122,0.011306 0.1481652,0.012347 0.3671477,-0.0034 0.7317438,0.00504 1.0988915,0 C 6.1879721,7.8265798 6.6166988,6.6576741 7.0325616,5.4891754 7.1214327,5.2501412 7.124454,4.9688147 6.9831732,4.7483497 6.859777,4.5532059 6.6263256,4.4487862 6.4028597,4.4396723 c -0.3056196,-0.00911 -0.607728,0.0054 -0.913685,0 C 5.8433325,3.4569014 6.6642657,1.1545075 6.7732726,0.84666741 z M 8.1808415,4.4149781 c -0.00945,0.019582 -0.015314,0.067186 -0.024694,0.08643 C 7.204776,7.1699505 6.1761688,10.032813 5.2211112,12.7 c 0.4233334,0 1.1180562,-9.21e-4 1.2700001,0 0.4168443,-1.171199 0.8493654,-2.361207 1.2699296,-3.5313928 0.4577185,-0.00844 0.9128098,-0.00392 1.3705278,-0.012347 0.292148,-0.010143 0.583079,-0.1856236 0.67909,-0.4691896 0.3870953,-1.0884828 0.7733593,-2.1664238 1.1482803,-3.2596332 0.06153,-0.1650955 0.09842,-0.3457175 0.04939,-0.5185781 -0.06626,-0.2191145 -0.265812,-0.3864253 -0.481537,-0.4444954 -0.187293,-0.05807 -0.375264,-0.033667 -0.5679663,-0.037041 -0.587573,-0.00169 -1.190749,-0.00661 -1.7779842,-0.012345 z m 1.0495032,0.6914374 c 0.03594,-0.010682 0.07461,0.00532 0.111124,0 0.169713,0.00304 0.336484,-0.00371 0.506231,0 -0.395208,1.1266355 -0.796537,2.2541075 -1.185321,3.3831042 -0.219748,0.01553 -0.4466575,0.00135 -0.6667436,0 0.4012936,-1.119206 0.7963746,-2.2388663 1.1976686,-3.35841 0.0091,-0.010303 0.025,-0.021138 0.037041,-0.024694 z"
     fill="#f9f9f9"
     id="path20" />
</svg>
