<svg xmlns="http://www.w3.org/2000/svg" viewBox="0 0 48 48"><defs><radialGradient id="0" cx="24" cy="24" r="23.437" gradientUnits="userSpaceOnUse"><stop stop-color="#eee"/><stop offset="1" stop-color="#cecece"/></radialGradient></defs><path d="m 47.44 11.547 l 0 24.906 c 0 10.25 0 10.984 -10.984 10.984 l -24.902 0 c -10.988 0 -10.988 -0.734 -10.988 -10.984 l 0 -24.906 c 0 -10.25 0 -10.984 10.988 -10.984 l 24.902 0 c 10.984 0 10.984 0.734 10.984 10.984" fill="url(#0)"/><path d="m 24 9 c -8.27 0 -15 6.758 -15 15.06 c 0 0.254 0.082 0.504 0.094 0.75 l 0 0.031 c 0.008 0.238 0.008 0.48 0.031 0.719 l 0.031 0.25 c 0.016 0.16 0.039 0.309 0.063 0.469 c 0.004 0.02 0.031 0.043 0.031 0.063 c 0.039 0.246 0.074 0.504 0.125 0.75 c 0.094 0.445 0.219 0.883 0.344 1.313 c 0.113 0.375 0.234 0.762 0.375 1.125 c 0.031 0.082 0.063 0.172 0.094 0.25 c 0.02 0.043 0.043 0.078 0.063 0.125 c 0.172 0.406 0.355 0.801 0.563 1.188 c 0.168 0.324 0.367 0.633 0.563 0.938 c 0.059 0.094 0.098 0.188 0.156 0.281 c 0.199 0.301 0.406 0.59 0.625 0.875 l 0.219 0.25 c 0.262 0.328 0.523 0.664 0.813 0.969 c 0.016 0.02 0.016 0.043 0.031 0.063 c 0.203 0.211 0.383 0.391 0.563 0.563 c 0.078 0.074 0.176 0.145 0.25 0.219 c 0.152 0.141 0.309 0.273 0.469 0.406 c 0.969 0.805 1.914 1.395 2.938 1.875 c 0.012 0.016 0.051 -0.008 0.063 0 c 0.094 0.027 0.18 0.023 0.188 -0.031 c 0.051 -0.199 -0.918 -1.66 -0.375 -1.406 c 0.797 0.375 1.051 0.34 0.438 -0.063 c -0.859 -0.566 -1.648 -1.363 -1.906 -1.938 c -0.375 -0.828 -0.742 -1.844 -0.688 -1.906 c 0.031 -0.031 0.344 0.199 0.688 0.5 c 0.719 0.625 1.965 1.23 2.688 1.344 c 0.293 -0.035 0.23 -0.195 0.125 -0.375 c -1.059 -1.359 -1.617 -1.418 4.594 0.594 c 3.055 0.988 5.566 1.797 5.594 1.813 c 0.027 0.02 -0.117 0.23 -0.313 0.469 c -0.484 0.59 -1.938 1.73 -3.03 2.344 c -0.059 0.035 -0.105 0.094 -0.156 0.125 c 0.023 0 0.066 -0.027 0.094 -0.031 c 0.035 -0.004 0.063 0.004 0.094 0 c 0.297 -0.027 0.586 -0.082 0.875 -0.125 c 0.207 -0.035 0.418 -0.086 0.625 -0.125 c 0.242 -0.047 0.484 -0.098 0.719 -0.156 c 0.117 -0.035 0.223 -0.031 0.344 -0.063 c 0.117 -0.031 0.23 -0.09 0.344 -0.125 c 0.234 -0.074 0.488 -0.168 0.719 -0.25 c 0.227 -0.082 0.441 -0.156 0.656 -0.25 c 0.008 -0.004 0.023 0.004 0.031 0 c 0.012 -0.004 -0.008 -0.027 0 -0.031 c 0.375 -0.16 0.77 -0.34 1.125 -0.531 c 0.059 -0.031 0.129 -0.031 0.188 -0.063 c 0.25 -0.141 0.484 -0.285 0.719 -0.438 c 0.078 -0.051 0.141 -0.105 0.219 -0.156 c 0.191 -0.129 0.406 -0.242 0.594 -0.375 c 0.203 -0.145 0.402 -0.285 0.594 -0.438 c 0.078 -0.066 0.168 -0.152 0.25 -0.219 c 0.176 -0.145 0.332 -0.285 0.5 -0.438 c 0.051 -0.047 0.102 -0.109 0.156 -0.156 c 0.207 -0.195 0.43 -0.383 0.625 -0.594 c 0.176 -0.18 0.336 -0.371 0.5 -0.563 c 0.074 -0.09 0.145 -0.188 0.219 -0.281 c 0.113 -0.137 0.238 -0.266 0.344 -0.406 c 0.082 -0.105 0.141 -0.238 0.219 -0.344 c 0.145 -0.199 0.301 -0.391 0.438 -0.594 c 0.039 -0.066 0.082 -0.125 0.125 -0.188 c 0.172 -0.277 0.344 -0.555 0.5 -0.844 c 0.023 -0.039 0.043 -0.09 0.063 -0.125 c 0.207 -0.387 0.387 -0.781 0.563 -1.188 c 0.082 -0.195 0.145 -0.395 0.219 -0.594 c 0.012 -0.031 0.016 -0.063 0.031 -0.094 c 0.109 -0.305 0.219 -0.625 0.313 -0.938 c 0.043 -0.16 0.082 -0.305 0.125 -0.469 c 0.059 -0.242 0.105 -0.477 0.156 -0.719 c 0.039 -0.191 0.059 -0.375 0.094 -0.563 c 0.008 -0.059 0.055 -0.129 0.063 -0.188 c 0.043 -0.277 0.066 -0.563 0.094 -0.844 c 0.043 -0.48 0.156 -0.949 0.156 -1.438 c 0 -8.301 -6.73 -15.06 -15 -15.06 m -11.125 7.281 c 0.039 -0.008 0.074 -0.004 0.125 0 c 0.074 0.004 0.172 0.02 0.281 0.031 c 1.145 0.176 1.313 0.445 1.313 1.969 c 0 0.461 -0.066 0.883 -0.156 1 c -0.016 0.02 -0.02 0.016 -0.031 0.031 l -1.844 -2.75 c 0.008 -0.012 0.023 -0.016 0.031 -0.031 c 0.098 -0.141 0.16 -0.23 0.281 -0.25 m 4.813 0.156 c 0.074 -0.004 0.141 0.016 0.219 0.031 c 0.223 0.059 0.281 0.141 0.281 0.5 c 0 0.277 -0.07 0.527 -0.219 0.656 c -0.125 0.109 -0.398 0.188 -0.625 0.188 c -0.398 0 -0.41 0.004 -0.375 -0.563 c 0.031 -0.473 0.211 -0.629 0.469 -0.75 c 0.09 -0.039 0.176 -0.059 0.25 -0.063 m -0.156 0.344 c -0.199 0 -0.344 0.145 -0.344 0.344 c 0 0.199 0.145 0.375 0.344 0.375 c 0.195 0 0.375 -0.176 0.375 -0.375 c 0 -0.199 -0.18 -0.344 -0.375 -0.344 m -5.531 0.969 c 0.723 1.094 1.488 2.184 2.25 3.25 c 0.008 0.012 0.023 0.02 0.031 0.031 c 0 0.008 0 0.023 0 0.031 c 0.117 0.578 0.242 0.754 0.438 0.625 c 1.309 1.809 2.66 3.555 4 5.313 c 0.969 -0.031 7.934 -3.164 11.875 -4.125 c 0.07 0.113 0.07 0.332 0.094 0.875 c 0.043 1.148 -0.223 2.508 -0.656 3.344 c -0.168 0.336 -0.281 0.633 -0.219 0.688 c 0.063 0.059 0.504 -0.09 0.969 -0.313 c 0.758 -0.363 1.328 -0.844 1.938 -1.656 c 0.211 -0.281 0.215 -0.258 0.219 0.281 c -0.078 1.207 -0.383 2.313 -0.813 3.438 c -0.344 1.305 -0.906 2.75 -1.688 4.219 c -0.414 0.766 -0.828 1.461 -0.938 1.563 c -0.18 0.152 -1.199 -0.133 -9.219 -2.688 c -4.941 -1.578 -9.02 -2.891 -9.06 -2.938 c -0.043 -0.043 -0.195 -0.461 -0.375 -0.938 c -0.395 -1.086 -0.824 -2.898 -0.938 -4.219 l -0.063 -1 l 0.469 0.5 c 0.516 0.551 1.031 0.844 1.438 0.844 l 0.25 0 l -0.25 -0.469 c -0.746 -1.406 -0.836 -3.918 -0.188 -5.75 c 0.164 -0.465 0.344 -0.789 0.438 -0.906 m 9.313 0.188 c 0.152 -0.012 0.324 0 0.531 0 c 0.543 0 1.594 0.121 2.313 0.25 c 3.664 0.652 5.262 0.949 5.344 1.031 c 0.145 0.145 0.848 2.23 0.844 2.5 c 0 0.012 -0.023 0.016 -0.031 0.031 c -0.004 -0.02 0.004 -0.043 0 -0.063 l -11.344 4.313 l -3.5 -5.125 c 0.004 -0.012 -0.004 -0.02 0 -0.031 c 0.004 -0.012 -0.004 -0.023 0 -0.031 c 0.117 -0.277 0.367 -0.266 0.688 -0.438 c 0.289 -0.164 0.48 -0.254 0.625 -0.406 c 1.031 -0.816 2.141 -1.348 3.344 -1.688 c 0.473 -0.219 0.73 -0.313 1.188 -0.344 m 0 0" fill="#fff"/><path d="m 38.27 47.44 c 2.543 -0.012 4.379 -0.082 5.711 -0.441 l -4.23 -7.25 -4.484 7.691 1.191 0 c 0.641 0 1.242 0 1.813 0 z m 1.48 -7.691 -5.125 -8.789 -5.129 8.789 z m 0 0 7.652 0 c 0.031 -0.973 0.039 -2.063 0.039 -3.297 l 0 -1.098 -2.563 -4.395 z m 5.129 -8.789 -5.129 -8.789 -5.125 8.789 z m 0 0 2.563 0 0 -4.395 z m -10.254 0 -5.129 -8.789 -5.125 8.789 z m -10.254 0 -5.129 8.789 10.254 0 z m 0 0 -5.129 -8.789 -5.125 8.789 z m -10.254 0 -5.129 8.789 10.254 0 z m 0 0 -5.129 -8.789 -5.125 8.789 z m -10.254 0 -3.297 5.648 c 0 1.168 0.012 2.211 0.039 3.141 l 8.383 0 z m 0 0 -3.297 -5.648 0 5.648 z m 5.125 8.789 -4.313 7.395 c 1.598 0.293 3.809 0.297 6.879 0.297 l 1.922 0 z m 0 -17.578 -5.125 -8.789 -3.297 5.648 0 3.141 z m 0 0 10.254 0 -5.125 -8.789 z m 5.129 -8.789 -5.129 -8.789 -5.125 8.789 z m 0 0 10.254 0 -5.129 -8.789 z m 5.125 -8.789 -2.352 -4.03 -5.336 0 c -0.078 0 -0.141 0 -0.215 0 l -2.352 4.03 z m 0 0 10.254 0 -2.352 -4.03 -5.551 0 z m 10.254 0 10.254 0 l -2.352 -4.03 c -0.313 0 -0.609 0 -0.941 0 l -4.609 0 z m 0 0 -5.125 8.789 10.254 0 z m 5.129 8.789 10.254 0 -5.129 -8.789 z m 0 0 -5.129 8.789 10.254 0 z m 5.125 8.789 7.691 0 0 -4.395 -2.563 -4.395 z m 5.129 -8.789 2.563 0 0 -1.832 c 0 -0.914 -0.008 -1.75 -0.023 -2.523 z m -15.383 8.789 -5.125 -8.789 -5.129 8.789 z m 10.254 -17.578 7.309 0 c -0.555 -2.758 -1.887 -3.629 -5.03 -3.902 z m -30.762 0 l -2.305 -3.953 c -3.66 0.207 -5.141 0.996 -5.734 3.953 z m -5.125 8.789 l -3.238 -5.555 c -0.043 1.074 -0.059 2.309 -0.059 3.723 l 0 1.832 z m 15.379 26.367 -4.484 7.691 8.973 0 z m 10.254 0 -4.484 7.691 8.973 0 z m -26.898 6.621 -1.602 -2.746 c 0.293 1.316 0.785 2.18 1.602 2.746 z" fill="#fff" fill-opacity="0.14"/></svg>