<svg xmlns="http://www.w3.org/2000/svg" viewBox="0 0 48 48"><defs><radialGradient id="0" cx="24" cy="24" r="23.437" gradientUnits="userSpaceOnUse"><stop stop-color="#f78c46"/><stop offset="1" stop-color="#d76c26"/></radialGradient></defs><path d="m 47.44 11.547 l 0 24.906 c 0 10.25 0 10.984 -10.984 10.984 l -24.902 0 c -10.988 0 -10.988 -0.734 -10.988 -10.984 l 0 -24.906 c 0 -10.25 0 -10.984 10.988 -10.984 l 24.902 0 c 10.984 0 10.984 0.734 10.984 10.984" fill="url(#0)"/><path d="m 18.688 35.496 c -0.699 -0.258 -2.184 -0.438 -3.301 -0.398 c -1.117 0.039 -2.316 0.051 -2.668 0.027 c -1.133 -0.078 -0.668 -0.902 0.762 -1.355 l 1.398 -0.441 l -1.555 -0.328 c -1.188 -0.25 -1.711 -0.73 -2.215 -2.027 c -0.75 -1.938 -0.531 -2.199 2.5 -3 c 1.563 -0.41 1.879 -0.766 2.621 -2.961 l 0.844 -2.496 l -1.668 -1.895 c -0.918 -1.043 -2.496 -2.738 -3.512 -3.77 c -2.207 -2.242 -2.547 -4.484 -0.699 -4.605 c 0.629 -0.039 2.172 -0.141 3.43 -0.219 c 1.656 -0.109 2.664 0.105 3.66 0.781 c 0.754 0.516 1.621 0.934 1.918 0.934 c 0.563 0 6.27 2.09 7.641 2.797 c 0.426 0.223 1.57 0.563 2.535 0.758 c 0.969 0.191 1.992 0.52 2.27 0.723 c 0.281 0.207 1.078 0.449 1.777 0.539 c 1.027 0.133 1.273 0.438 1.293 1.586 c 0.02 1.203 0.223 1.422 1.313 1.422 c 1.547 0 2.984 1 2.969 2.074 c -0.02 1.348 -1.879 4.672 -3.5 6.258 c -0.863 0.84 -1.566 2.01 -1.566 2.586 c 0 0.582 -0.328 1.316 -0.727 1.621 c -0.582 0.449 -0.84 0.367 -1.285 -0.414 c -0.656 -1.145 -1.898 -1.238 -3.289 -0.254 c -1.105 0.781 -2.824 0.934 -2.824 0.25 c 0 -0.246 0.23 -0.578 0.508 -0.738 c 0.281 -0.164 0.523 -0.762 0.523 -1.332 c 0.008 -0.621 0.703 -1.52 1.727 -2.227 c 0.941 -0.652 1.609 -1.344 1.48 -1.539 c -0.426 -0.648 -2.207 -0.371 -2.207 0.344 c 0 0.953 -7.176 7.84 -8.125 7.813 c -0.418 -0.023 -1.328 -0.242 -2.027 -0.512 m 2.031 -1.602 c 0 -0.391 -0.445 -0.711 -0.988 -0.711 c -0.539 0 -1.102 -0.184 -1.254 -0.41 c -0.152 -0.227 -0.871 -0.305 -1.602 -0.172 c -0.969 0.172 -1.145 0.348 -0.648 0.641 c 0.375 0.23 0.453 0.422 0.176 0.441 c -1 0.082 1.551 0.859 2.918 0.891 c 0.918 0.023 1.398 -0.211 1.398 -0.68 m 11.539 -3.172 c 0.047 -0.551 -0.184 -0.711 -0.742 -0.512 c -0.559 0.199 -0.691 0.109 -0.422 -0.301 c 0.301 -0.449 0.148 -0.445 -0.656 0.023 c -0.688 0.398 -0.852 0.723 -0.477 0.938 c 0.367 0.215 0.047 0.758 -0.906 1.535 l -1.48 1.203 l 2.313 -1.043 c 1.289 -0.582 2.336 -1.395 2.375 -1.844 m 1.457 1.16 c -0.547 -0.508 -0.836 0.203 -0.453 1.117 c 0.355 0.852 0.387 0.855 0.563 0.027 c 0.102 -0.477 0.055 -0.992 -0.109 -1.145 m -9.699 -0.949 c 1.387 -1.238 2.809 -2.191 3.168 -2.113 c 1.422 0.305 0.508 -1.988 -2.121 -5.305 c -2.543 -3.211 -2.707 -3.563 -2 -4.379 c 0.727 -0.848 0.746 -0.836 0.438 0.211 c -0.441 1.48 1.051 3.082 2.289 2.465 c 0.563 -0.281 1.07 -0.254 1.426 0.078 c 0.316 0.293 0.945 0.355 1.473 0.145 c 0.508 -0.203 1.531 -0.324 2.273 -0.27 c 0.809 0.063 1.539 -0.211 1.813 -0.664 c 0.398 -0.66 0.535 -0.609 1.012 0.367 c 0.488 1 0.387 1.227 -0.902 1.938 c -1.27 0.695 -1.418 1 -1.148 2.328 c 0.754 3.727 2.473 4.496 4.809 2.164 c 2.539 -2.543 3.352 -5.621 1.477 -5.621 c -0.539 0 -1.145 0.242 -1.34 0.539 c -0.605 0.906 -2.238 -1.555 -1.898 -2.844 c 0.254 -0.953 0.148 -1.074 -0.715 -0.82 c -0.621 0.188 -1.262 0.023 -1.656 -0.418 c -0.352 -0.398 -1.195 -0.723 -1.895 -0.723 c -0.691 0 -1.863 -0.301 -2.605 -0.668 c -2.52 -1.246 -7.758 -3.125 -8.703 -3.125 c -0.523 0 -0.891 0.555 -1.273 0.945 c -1.121 1.148 -3.711 0.57 -3.16 -1.387 c 0.148 -0.516 -0.035 -1.027 -0.406 -1.16 c -0.813 -0.289 -3.586 0.363 -3.41 0.805 c 0.066 0.176 0.129 0.516 0.129 0.754 c 0 0.746 7.77 4.105 8 3.461 c 0.25 -0.699 1.645 -0.77 1.645 -0.082 c 0 0.27 -0.379 1.027 -0.84 1.684 c -0.941 1.34 -1.117 1.012 3.047 5.602 l 1.953 2.156 l -2.082 2.91 c -1.148 1.602 -2.082 2.992 -2.082 3.094 c 0 0.594 1.078 -0.082 3.297 -2.07 m -2.148 -0.934 c 1.664 -2.414 1.797 -2.82 1.191 -3.676 c -0.953 -1.344 -2.09 -1.426 -3.355 -0.246 c -0.754 0.703 -1.031 1.469 -0.922 2.52 c 0.102 0.918 -0.066 1.508 -0.43 1.508 c -0.324 0 -0.754 0.152 -0.949 0.332 c -0.195 0.184 -0.992 0.215 -1.77 0.07 c -0.777 -0.145 -1.801 -0.059 -2.277 0.191 c -0.711 0.371 -0.492 0.539 1.219 0.945 c 1.168 0.277 2.086 0.309 2.086 0.07 c 0 -0.68 1.34 -0.488 2.031 0.289 c 0.348 0.391 0.781 0.711 0.969 0.711 c 0.184 0 1.176 -1.223 2.207 -2.715 m -4.855 -0.754 c 0.289 -0.164 0.418 -0.84 0.285 -1.492 c -0.137 -0.656 0.121 -2.047 0.57 -3.094 c 0.449 -1.047 0.621 -1.902 0.383 -1.902 c -0.242 0 -0.82 1.145 -1.293 2.543 c -0.602 1.789 -1.223 2.695 -2.098 3.07 c -0.688 0.293 -1.246 0.695 -1.246 0.895 c 0 0.434 2.641 0.422 3.398 -0.02 m 0.75 -15.98 c -0.379 -0.699 -1.648 -0.965 -2.203 -0.273 c -0.699 0.863 -0.551 1.848 0.813 2.082 c 0.969 0.164 1.922 -0.832 1.391 -1.813 m 0 0.004" fill="#fff"/><path d="m 16.961 13.82 c 0 0.262 -0.215 0.477 -0.477 0.477 c -0.266 0 -0.48 -0.215 -0.48 -0.477 c 0 -0.266 0.215 -0.48 0.48 -0.48 c 0.262 0 0.477 0.215 0.477 0.48 m 0 0" fill="#fff"/><path d="m 38.27 47.44 c 2.543 -0.012 4.379 -0.082 5.711 -0.441 l -4.23 -7.25 -4.484 7.691 1.191 0 c 0.641 0 1.242 0 1.813 0 z m 1.48 -7.691 -5.125 -8.789 -5.129 8.789 z m 0 0 7.652 0 c 0.031 -0.973 0.039 -2.063 0.039 -3.297 l 0 -1.098 -2.563 -4.395 z m 5.129 -8.789 -5.129 -8.789 -5.125 8.789 z m 0 0 2.563 0 0 -4.395 z m -10.254 0 -5.129 -8.789 -5.125 8.789 z m -10.254 0 -5.129 8.789 10.254 0 z m 0 0 -5.129 -8.789 -5.125 8.789 z m -10.254 0 -5.129 8.789 10.254 0 z m 0 0 -5.129 -8.789 -5.125 8.789 z m -10.254 0 -3.297 5.648 c 0 1.168 0.012 2.211 0.039 3.141 l 8.383 0 z m 0 0 -3.297 -5.648 0 5.648 z m 5.125 8.789 -4.313 7.395 c 1.598 0.293 3.809 0.297 6.879 0.297 l 1.922 0 z m 0 -17.578 -5.125 -8.789 -3.297 5.648 0 3.141 z m 0 0 10.254 0 -5.125 -8.789 z m 5.129 -8.789 -5.129 -8.789 -5.125 8.789 z m 0 0 10.254 0 -5.129 -8.789 z m 5.125 -8.789 -2.352 -4.03 -5.336 0 c -0.078 0 -0.141 0 -0.215 0 l -2.352 4.03 z m 0 0 10.254 0 -2.352 -4.03 -5.551 0 z m 10.254 0 10.254 0 l -2.352 -4.03 c -0.313 0 -0.609 0 -0.941 0 l -4.609 0 z m 0 0 -5.125 8.789 10.254 0 z m 5.129 8.789 10.254 0 -5.129 -8.789 z m 0 0 -5.129 8.789 10.254 0 z m 5.125 8.789 7.691 0 0 -4.395 -2.563 -4.395 z m 5.129 -8.789 2.563 0 0 -1.832 c 0 -0.914 -0.008 -1.75 -0.023 -2.523 z m -15.383 8.789 -5.125 -8.789 -5.129 8.789 z m 10.254 -17.578 7.309 0 c -0.555 -2.758 -1.887 -3.629 -5.03 -3.902 z m -30.762 0 l -2.305 -3.953 c -3.66 0.207 -5.141 0.996 -5.734 3.953 z m -5.125 8.789 l -3.238 -5.555 c -0.043 1.074 -0.059 2.309 -0.059 3.723 l 0 1.832 z m 15.379 26.367 -4.484 7.691 8.973 0 z m 10.254 0 -4.484 7.691 8.973 0 z m -26.898 6.621 -1.602 -2.746 c 0.293 1.316 0.785 2.18 1.602 2.746 z" fill="#fff" fill-opacity="0.084"/></svg>