<?xml version="1.0" encoding="UTF-8" standalone="no"?>
<svg
   xmlns:dc="http://purl.org/dc/elements/1.1/"
   xmlns:cc="http://creativecommons.org/ns#"
   xmlns:rdf="http://www.w3.org/1999/02/22-rdf-syntax-ns#"
   xmlns:svg="http://www.w3.org/2000/svg"
   xmlns="http://www.w3.org/2000/svg"
   xmlns:xlink="http://www.w3.org/1999/xlink"
   xmlns:sodipodi="http://sodipodi.sourceforge.net/DTD/sodipodi-0.dtd"
   xmlns:inkscape="http://www.inkscape.org/namespaces/inkscape"
   width="48"
   viewBox="0 0 13.546667 13.546667"
   height="48"
   id="svg2"
   version="1.1"
   inkscape:version="0.48.4 r9939"
   sodipodi:docname="lightworks.svg">
  <metadata
     id="metadata24">
    <rdf:RDF>
      <cc:Work
         rdf:about="">
        <dc:format>image/svg+xml</dc:format>
        <dc:type
           rdf:resource="http://purl.org/dc/dcmitype/StillImage" />
        <dc:title />
      </cc:Work>
    </rdf:RDF>
  </metadata>
  <sodipodi:namedview
     pagecolor="#ffffff"
     bordercolor="#666666"
     borderopacity="1"
     objecttolerance="10"
     gridtolerance="10"
     guidetolerance="10"
     inkscape:pageopacity="0"
     inkscape:pageshadow="2"
     inkscape:window-width="1280"
     inkscape:window-height="998"
     id="namedview22"
     showgrid="true"
     inkscape:zoom="11.130231"
     inkscape:cx="27.66058"
     inkscape:cy="22.763163"
     inkscape:window-x="0"
     inkscape:window-y="0"
     inkscape:window-maximized="1"
     inkscape:current-layer="layer6">
    <inkscape:grid
       type="xygrid"
       id="grid4142" />
  </sodipodi:namedview>
  <defs
     id="defs4">
    <linearGradient
       id="linearGradient4460">
      <stop
         offset="0"
         style="stop-color:#214c89"
         id="stop7" />
      <stop
         offset="1"
         style="stop-color:#2d67b9"
         id="stop9" />
    </linearGradient>
    <linearGradient
       gradientTransform="matrix(1.10528,0,0,1.10528,-134.28288,-295.77052)"
       xlink:href="#linearGradient4460"
       id="linearGradient3115"
       y1="279.096"
       y2="268.33"
       gradientUnits="userSpaceOnUse"
       x2="0" />
    <linearGradient
       y2="31.61907"
       x2="283.80957"
       y1="299.80954"
       x1="283.80957"
       gradientTransform="matrix(0.11931818,0,0,0.11931818,414.13636,48.22727)"
       gradientUnits="userSpaceOnUse"
       id="linearGradient3885"
       xlink:href="#outerBackgroundGradient"
       inkscape:collect="always" />
    <clipPath
       id="clipPath3881"
       clipPathUnits="userSpaceOnUse">
      <rect
         ry="7"
         y="53"
         x="417"
         height="30"
         width="30"
         id="rect3883"
         style="color:#bebebe;fill:url(#linearGradient3885);fill-opacity:1;fill-rule:nonzero;stroke:none;stroke-width:0;marker:none;visibility:visible;display:inline;overflow:visible;enable-background:accumulate" />
    </clipPath>
    <linearGradient
       y2="28.571428"
       x2="286.85715"
       y1="302.85715"
       x1="286.85715"
       gradientTransform="matrix(0.0875,0,0,0.0875,414.9,97.5)"
       gradientUnits="userSpaceOnUse"
       id="linearGradient3875"
       xlink:href="#outerBackgroundGradient"
       inkscape:collect="always" />
    <clipPath
       id="clipPath3871"
       clipPathUnits="userSpaceOnUse">
      <rect
         style="color:#bebebe;fill:url(#linearGradient3875);fill-opacity:1;fill-rule:nonzero;stroke:none;stroke-width:0;marker:none;visibility:visible;display:inline;overflow:visible;enable-background:accumulate"
         id="rect3873"
         width="22"
         height="22"
         x="417"
         y="101"
         ry="5" />
    </clipPath>
    <linearGradient
       y2="28"
       x2="384"
       y1="124"
       x1="384"
       gradientUnits="userSpaceOnUse"
       id="linearGradient4350"
       xlink:href="#outerBackgroundGradient"
       inkscape:collect="always" />
    <clipPath
       id="clipPath4346"
       clipPathUnits="userSpaceOnUse">
      <rect
         ry="18"
         y="32"
         x="292"
         height="88"
         width="88"
         id="rect4348"
         style="color:#bebebe;fill:url(#linearGradient4350);fill-opacity:1;fill-rule:nonzero;stroke:none;stroke-width:0;marker:none;visibility:visible;display:inline;overflow:visible;enable-background:accumulate" />
    </clipPath>
    <linearGradient
       y2="140"
       x2="352"
       y1="204"
       x1="352"
       gradientUnits="userSpaceOnUse"
       id="linearGradient4191"
       xlink:href="#outerBackgroundGradient"
       inkscape:collect="always" />
    <clipPath
       id="clipPath4187"
       clipPathUnits="userSpaceOnUse">
      <rect
         style="color:#bebebe;fill:url(#linearGradient4191);fill-opacity:1;fill-rule:nonzero;stroke:none;stroke-width:0;marker:none;visibility:visible;display:inline;overflow:visible;enable-background:accumulate"
         id="rect4189"
         width="60"
         height="60"
         x="290"
         y="142"
         ry="12.5" />
    </clipPath>
    <linearGradient
       y2="40"
       x2="144"
       y1="280"
       x1="144"
       gradientTransform="translate(0,-4)"
       gradientUnits="userSpaceOnUse"
       id="linearGradient3866"
       xlink:href="#outerBackgroundGradient"
       inkscape:collect="always" />
    <clipPath
       id="clipPath3862"
       clipPathUnits="userSpaceOnUse">
      <rect
         style="color:#bebebe;fill:url(#linearGradient3866);fill-opacity:1;fill-rule:nonzero;stroke:none;stroke-width:0;marker:none;visibility:visible;display:inline;overflow:visible;enable-background:accumulate"
         id="rect3864"
         width="220"
         height="220"
         x="34"
         y="46"
         ry="50" />
    </clipPath>
    <linearGradient
       y2="40.00005"
       x2="144"
       y1="280.00003"
       x1="144"
       gradientTransform="matrix(0.06666667,0,0,0.06666667,302.4,209.33333)"
       gradientUnits="userSpaceOnUse"
       id="linearGradient3859"
       xlink:href="#outerBackgroundGradient"
       inkscape:collect="always" />
    <clipPath
       id="clipPath3855"
       clipPathUnits="userSpaceOnUse">
      <rect
         transform="matrix(0,1,-1,0,0,0)"
         ry="3"
         y="212"
         x="304"
         height="16"
         width="16"
         id="rect3857"
         style="color:#bebebe;fill:url(#linearGradient3859);fill-opacity:1;fill-rule:nonzero;stroke:none;stroke-width:0;marker:none;visibility:visible;display:inline;overflow:visible;enable-background:accumulate" />
    </clipPath>
    <linearGradient
       y2="40.00005"
       x2="149.71432"
       y1="291.42862"
       x1="149.71432"
       gradientTransform="matrix(0.11931818,0,0,0.11931818,430.13636,32.227267)"
       gradientUnits="userSpaceOnUse"
       id="linearGradient4093"
       xlink:href="#outerBackgroundGradient"
       inkscape:collect="always" />
    <clipPath
       id="clipPath4089"
       clipPathUnits="userSpaceOnUse">
      <rect
         ry="6"
         y="37"
         x="433"
         height="30"
         width="30"
         id="rect4091"
         style="color:#bebebe;fill:url(#linearGradient4093);fill-opacity:1;fill-rule:nonzero;stroke:none;stroke-width:0;marker:none;visibility:visible;display:inline;overflow:visible;enable-background:accumulate" />
    </clipPath>
    <linearGradient
       y2="40.000046"
       x2="149.71428"
       y1="291.42862"
       x1="149.71428"
       gradientTransform="matrix(0.0875,0,0,0.0875,430.9,81.499996)"
       gradientUnits="userSpaceOnUse"
       id="linearGradient4048"
       xlink:href="#outerBackgroundGradient"
       inkscape:collect="always" />
    <clipPath
       id="clipPath4044"
       clipPathUnits="userSpaceOnUse">
      <rect
         style="color:#bebebe;fill:url(#linearGradient4048);fill-opacity:1;fill-rule:nonzero;stroke:none;stroke-width:0;marker:none;visibility:visible;display:inline;overflow:visible;enable-background:accumulate"
         id="rect4046"
         width="22"
         height="22"
         x="433"
         y="85"
         ry="4" />
    </clipPath>
    <linearGradient
       y2="40.000172"
       x2="144.00006"
       y1="280.00018"
       x1="144.00006"
       gradientTransform="matrix(0.175,0,0,0.175,302.79999,215.99997)"
       gradientUnits="userSpaceOnUse"
       id="linearGradient4895"
       xlink:href="#outerBackgroundGradient"
       inkscape:collect="always" />
    <clipPath
       id="clipPath4891"
       clipPathUnits="userSpaceOnUse">
      <rect
         transform="matrix(0,1,-1,0,0,0)"
         style="color:#bebebe;fill:url(#linearGradient4895);fill-opacity:1;fill-rule:nonzero;stroke:none;stroke-width:0;marker:none;visibility:visible;display:inline;overflow:visible;enable-background:accumulate"
         id="rect4893"
         width="42"
         height="42"
         x="307"
         y="223"
         ry="9" />
    </clipPath>
    <linearGradient
       id="outerBackgroundGradient">
      <stop
         id="stop3864-8-6"
         offset="0"
         style="stop-color:#040e18;stop-opacity:1;" />
      <stop
         id="stop3866-9-1"
         offset="1"
         style="stop-color:#1e3a50;stop-opacity:1;" />
    </linearGradient>
    <linearGradient
       id="linearGradient5690">
      <stop
         id="stop5692"
         offset="0"
         style="stop-color:#dbe7ea;stop-opacity:1;" />
      <stop
         id="stop5694"
         offset="1"
         style="stop-color:#7a8288;stop-opacity:1;" />
    </linearGradient>
    <linearGradient
       inkscape:collect="always"
       xlink:href="#outerBackgroundGradient"
       id="linearGradient4137"
       gradientUnits="userSpaceOnUse"
       gradientTransform="matrix(1.10528,0,0,1.10528,-134.28288,-295.77052)"
       y1="279.09601"
       x2="0"
       y2="268.32999" />
    <linearGradient
       inkscape:collect="always"
       xlink:href="#linearGradient5690"
       id="linearGradient4210"
       x1="0.99352485"
       y1="150.51006"
       x2="0.99352485"
       y2="176.51006"
       gradientUnits="userSpaceOnUse" />
    <linearGradient
       inkscape:collect="always"
       xlink:href="#outerBackgroundGradient"
       id="linearGradient3092"
       gradientUnits="userSpaceOnUse"
       gradientTransform="matrix(0.28222223,0,0,0.28222223,5.9916667e-7,-283.45334)"
       y1="1050.36"
       x2="0"
       y2="1006.36" />
    <linearGradient
       id="linearGradient4460-9">
      <stop
         offset="0"
         style="stop-color:#cecece;stop-opacity:1;"
         id="stop7-8" />
      <stop
         offset="1"
         style="stop-color:#e9e9e9;stop-opacity:1;"
         id="stop9-0" />
    </linearGradient>
    <radialGradient
       r="128"
       cy="160"
       cx="148.004"
       spreadMethod="pad"
       gradientTransform="matrix(0.05167489,0,0,0.05167489,-0.87511211,-1.4947611)"
       gradientUnits="userSpaceOnUse"
       id="radialGradient3034"
       xlink:href="#linearGradient4460-7-2"
       inkscape:collect="always" />
    <linearGradient
       id="linearGradient4460-7-2">
      <stop
         offset="0"
         style="stop-color:#5b5890;stop-opacity:1;"
         id="stop8-6-7" />
      <stop
         offset="1"
         style="stop-color:#030127;stop-opacity:1;"
         id="stop10-2-5" />
    </linearGradient>
    <radialGradient
       r="128"
       cy="160"
       cx="148.004"
       spreadMethod="pad"
       gradientTransform="matrix(0.05167489,0,0,0.05167489,-0.87511211,-1.4947614)"
       gradientUnits="userSpaceOnUse"
       id="radialGradient3011"
       xlink:href="#linearGradient4460-7-2"
       inkscape:collect="always" />
    <linearGradient
       inkscape:collect="always"
       xlink:href="#linearGradient5690"
       id="linearGradient3097"
       gradientUnits="userSpaceOnUse"
       x1="0.99352485"
       y1="150.51006"
       x2="0.99352485"
       y2="176.51006" />
    <linearGradient
       inkscape:collect="always"
       xlink:href="#linearGradient5690"
       id="linearGradient3099"
       gradientUnits="userSpaceOnUse"
       x1="0.99352485"
       y1="150.51006"
       x2="0.99352485"
       y2="176.51006" />
    <linearGradient
       inkscape:collect="always"
       xlink:href="#linearGradient5690"
       id="linearGradient3101"
       gradientUnits="userSpaceOnUse"
       x1="0.99352485"
       y1="150.51006"
       x2="0.99352485"
       y2="176.51006" />
    <linearGradient
       inkscape:collect="always"
       xlink:href="#linearGradient5690"
       id="linearGradient3103"
       gradientUnits="userSpaceOnUse"
       x1="0.99352485"
       y1="150.51006"
       x2="0.99352485"
       y2="176.51006" />
    <linearGradient
       inkscape:collect="always"
       xlink:href="#linearGradient5690"
       id="linearGradient3105"
       gradientUnits="userSpaceOnUse"
       x1="0.99352485"
       y1="150.51006"
       x2="0.99352485"
       y2="176.51006" />
    <linearGradient
       inkscape:collect="always"
       xlink:href="#linearGradient5690"
       id="linearGradient3107"
       gradientUnits="userSpaceOnUse"
       x1="0.99352485"
       y1="150.51006"
       x2="0.99352485"
       y2="176.51006" />
    <linearGradient
       inkscape:collect="always"
       xlink:href="#linearGradient5690"
       id="linearGradient3109"
       gradientUnits="userSpaceOnUse"
       x1="0.99352485"
       y1="150.51006"
       x2="0.99352485"
       y2="176.51006" />
    <linearGradient
       inkscape:collect="always"
       xlink:href="#linearGradient5690"
       id="linearGradient3111"
       gradientUnits="userSpaceOnUse"
       x1="0.99352485"
       y1="150.51006"
       x2="0.99352485"
       y2="176.51006" />
  </defs>
  <path
     inkscape:connector-curvature="0"
     style="fill:url(#radialGradient3011);fill-opacity:1"
     d="m 13.387775,3.2589206 0,7.0290974 c 0,2.892778 0,3.100035 -3.100034,3.100035 l -7.0279947,0 c -3.10113741,0 -3.10113741,-0.207257 -3.10113741,-3.100035 l 0,-7.0290974 c 0,-2.89277789 0,-3.10003479 3.10113741,-3.10003479 l 7.0279947,0 c 3.100034,0 3.100034,0.2072569 3.100034,3.10003479 z"
     id="path11-4" />
  <path
     inkscape:connector-curvature="0"
     id="path15-5"
     d="m 10.799268,13.388053 c 0.717683,-0.0033 1.235826,-0.02315 1.611754,-0.124575 l -1.193933,-2.046111 -1.2655897,2.170686 0.3362417,0 c 0.180799,0 0.350572,0 0.511527,0 z M 11.217089,11.217367 9.7707004,8.7368981 8.3232094,11.217367 z m 0,0 2.159663,0 c 0.0088,-0.274505 0.01102,-0.582083 0.01102,-0.930451 l 0,-0.3097836 -0.723193,-1.2402343 z M 12.664582,8.7368981 11.217089,6.2564294 9.7707004,8.7368981 z m 0,0 0.723193,0 0,-1.2402343 z m -2.8938816,0 -1.447491,-2.4804687 -1.446389,2.4804687 z m -2.89388,0 -1.447491,2.4804689 2.89388,0 z m 0,0 -1.447491,-2.4804687 -1.4463892,2.4804687 z m -2.8938802,0 -1.4474909,2.4804689 2.8938801,0 z m 0,0 L 2.5354493,6.2564294 1.08906,8.7368981 z m -2.8938802,0 -0.93045111,1.5941149 c 0,0.329627 0.0033,0.623976 0.011021,0.886354 l 2.36581641,0 z m 0,0 -0.93045111,-1.5941145 0,1.5941145 z m 1.4463893,2.4804689 -1.217083,2.086901 c 0.450893,0.08268 1.074869,0.08379 1.94138,0.08379 l 0.542395,0 z m 0,-4.9609376 L 1.08906,3.7759605 0.15860889,5.3700752 l 0,0.8863542 z m 0,0 2.8938801,0 L 3.9829402,3.7759605 z M 3.9829402,3.7759605 2.5354493,1.2954918 1.08906,3.7759605 z m 0,0 2.8938802,0 -1.447491,-2.4804687 z m 1.4463892,-2.4804687 -0.663663,-1.13660599 -1.5059201,0 c -0.02205,0 -0.03969,0 -0.06063,0 L 2.5354533,1.2954918 z m 0,0 2.89388,0 -0.6636631,-1.13660599 -1.5665541,0 z m 2.89388,0 2.8938796,0 -0.663662,-1.13660599 c -0.0882,0 -0.17198,0 -0.265686,0 l -1.3008686,0 z m 0,0 -1.446389,2.4804687 2.89388,0 z m 1.447491,2.4804687 2.8938816,0 -1.447493,-2.4804687 z m 0,0 -1.447491,2.4804689 2.8938796,0 z m 1.4463886,2.4804689 2.170686,0 0,-1.2402343 -0.723193,-1.2402346 z m 1.447493,-2.4804689 0.723193,0 0,-0.5170399 c 0,-0.2579689 -0.0022,-0.4938888 -0.0066,-0.71217 z M 8.3232094,6.2564294 6.8768204,3.7759605 5.4293294,6.2564294 z m 2.8938796,-4.9609376 2.062648,0 C 13.123192,0.51717571 12.747264,0.27133381 11.859806,0.19416361 z m -8.6816397,0 -0.650434,-1.11565979 C 0.85203709,0.23826101 0.43421609,0.46095171 0.26664689,1.2954918 z M 1.08906,3.7759605 0.17514479,2.2083044 c -0.01213,0.3031684 -0.01653,0.6515362 -0.01653,1.0506162 l 0,0.5170399 z m 4.3402694,7.4414065 -1.2655911,2.170686 2.532283,0 z m 2.89388,0 -1.2655901,2.170686 2.532283,0 z m -7.59133661,1.86862 -0.4519967,-0.775009 c 0.08268,0.371519 0.2215888,0.615157 0.4519967,0.775009 z"
     style="fill:#ffffff;fill-opacity:0.05100002" />
  <g
     inkscape:groupmode="layer"
     id="layer7"
     inkscape:label="Baseplate"
     style="display:none"
     transform="matrix(0.28222223,0,0,0.28222223,6.4929387,-39.37284)">
    <text
       id="context"
       inkscape:label="context"
       style="font-size:18px;font-style:normal;font-variant:normal;font-weight:normal;font-stretch:normal;fill:#000000;fill-opacity:1;stroke:none;display:inline;enable-background:new;font-family:DejaVu Sans;-inkscape-font-specification:DejaVu Sans"
       x="15.006836"
       xml:space="preserve"
       y="19.745117"><tspan
         id="tspan3933"
         sodipodi:role="line"
         x="15.006836"
         y="19.745117"
         style="font-style:normal;font-variant:normal;font-weight:normal;font-stretch:normal;font-family:DejaVu Sans;-inkscape-font-specification:DejaVu Sans">apps</tspan></text>
    <text
       id="icon-name"
       inkscape:label="icon-name"
       sodipodi:linespacing="125%"
       style="font-size:18px;font-style:normal;font-variant:normal;font-weight:bold;font-stretch:normal;text-align:start;line-height:125%;writing-mode:lr-tb;text-anchor:start;fill:#000000;fill-opacity:1;stroke:none;display:inline;enable-background:new;font-family:DejaVu Sans;-inkscape-font-specification:DejaVu Sans Bold"
       x="122.48828"
       xml:space="preserve"
       y="19.745117"><tspan
         id="tspan3937"
         sodipodi:role="line"
         x="122.48828"
         y="19.745117"
         style="font-size:18px;font-style:normal;font-variant:normal;font-weight:bold;font-stretch:normal;font-family:DejaVu Sans;-inkscape-font-specification:DejaVu Sans Bold">lightworks</tspan></text>
    <rect
       inkscape:label="16x16"
       y="140"
       x="416"
       height="16"
       width="16"
       id="rect16x16"
       style="fill:#eeeeec;fill-opacity:1;fill-rule:nonzero;stroke:none;stroke-width:2;marker:none;visibility:visible;display:inline;overflow:visible;enable-background:accumulate" />
    <rect
       inkscape:label="24x24"
       y="100"
       x="416"
       height="24"
       width="24"
       id="rect24x24"
       style="fill:#d4d4d4;fill-opacity:1;fill-rule:nonzero;stroke:none;stroke-width:2;marker:none;visibility:visible;display:inline;overflow:visible;enable-background:accumulate" />
    <rect
       inkscape:label="32x32"
       y="52"
       x="416"
       height="32"
       width="32"
       id="rect32x32"
       style="fill:#eeeeec;fill-opacity:1;fill-rule:nonzero;stroke:none;stroke-width:2;marker:none;visibility:visible;display:inline;overflow:visible;enable-background:accumulate" />
    <rect
       style="fill:#eeeeec;fill-opacity:1;fill-rule:nonzero;stroke:none;stroke-width:2;marker:none;visibility:visible;display:inline;overflow:visible;enable-background:accumulate"
       id="rect22x22"
       width="22"
       height="22"
       x="417"
       y="101"
       inkscape:label="22x22" />
    <rect
       style="fill:#eeeeec;fill-opacity:1;fill-rule:nonzero;stroke:none;stroke-width:2;marker:none;visibility:visible;display:inline;overflow:visible;enable-background:accumulate"
       id="rect48x48"
       width="48"
       height="48"
       x="288"
       y="220"
       inkscape:label="48x48" />
    <rect
       inkscape:label="256x256"
       y="28"
       x="16"
       height="256"
       width="256"
       id="rect256x256"
       style="fill:#eeeeec;fill-opacity:1;fill-rule:nonzero;stroke:none;stroke-width:2;marker:none;visibility:visible;display:inline;overflow:visible;enable-background:accumulate" />
    <rect
       inkscape:label="64x64"
       y="140"
       x="288"
       height="64"
       width="64"
       id="rect64x64"
       style="fill:#eeeeec;fill-opacity:1;fill-rule:nonzero;stroke:none;stroke-width:2;marker:none;visibility:visible;display:inline;overflow:visible;enable-background:accumulate" />
    <rect
       inkscape:label="96x96"
       y="28"
       x="288"
       height="96"
       width="96"
       id="rect96x96"
       style="fill:#eeeeec;fill-opacity:1;fill-rule:nonzero;stroke:none;stroke-width:2;marker:none;visibility:visible;display:inline;overflow:visible;enable-background:accumulate" />
  </g>
  <g
     style="display:inline"
     inkscape:label="Shadow"
     id="layer4"
     inkscape:groupmode="layer"
     transform="matrix(0.28222223,0,0,0.28222223,6.4929387,-39.37284)" />
  <g
     style="display:inline"
     inkscape:label="Background"
     id="layer2"
     inkscape:groupmode="layer"
     transform="matrix(0.28222223,0,0,0.28222223,6.4929387,-39.37284)" />
  <g
     style="display:inline"
     inkscape:label="Symbols"
     id="layer6"
     inkscape:groupmode="layer"
     transform="matrix(0.28222223,0,0,0.28222223,6.4929387,-39.37284)">
    <path
       inkscape:connector-curvature="0"
       style="color:#000000;fill:#f9f9f9;fill-opacity:1;fill-rule:nonzero;stroke:none;stroke-width:2;marker:none;visibility:visible;display:inline;overflow:visible;enable-background:new"
       d="m -5.747216,150.51011 c -3.4568928,0 -6.259259,2.80237 -6.259259,6.25926 0,3.30242 2.5654195,5.99401 5.8078702,6.22917 0.2575444,-3.56127 3.1192874,-6.42302 6.68055547,-6.68056 -0.23514592,-3.24245 -2.92674297,-5.80787 -6.22916667,-5.80787 z"
       id="path4158" />
    <path
       inkscape:connector-curvature="0"
       style="color:#000000;fill:#f9f9f9;fill-opacity:1;fill-rule:nonzero;stroke:none;stroke-width:2;marker:none;visibility:visible;display:inline;overflow:visible;enable-background:new"
       d="m 7.7342655,150.51011 c -3.3024237,0 -5.9940207,2.56542 -6.2291667,5.80787 3.5612682,0.25754 6.4230111,3.11929 6.6805556,6.68056 3.2424506,-0.23516 5.8078706,-2.92675 5.8078706,-6.22917 0,-3.45689 -2.802367,-6.25926 -6.2592595,-6.25926 z"
       id="path4156" />
    <path
       sodipodi:nodetypes="cccc"
       inkscape:connector-curvature="0"
       style="color:#000000;fill:#f9f9f9;fill-opacity:1;fill-rule:nonzero;stroke:none;stroke-width:2;marker:none;visibility:visible;display:inline;overflow:visible;enable-background:new"
       d="m -5.0064751,164.51006 c 0.2500526,3.0424 1.9576052,4.74995 4.99999996,5 l 0,-5 z"
       id="path4150" />
    <path
       inkscape:connector-curvature="0"
       style="color:#000000;fill:#f9f9f9;fill-opacity:1;fill-rule:nonzero;stroke:none;stroke-width:2;marker:none;visibility:visible;display:inline;overflow:visible;enable-background:new"
       d="m -6.3791607,164.02159 c -3.1562652,0.32058 -5.6273143,2.98837 -5.6273143,6.22921 0,3.45689 2.8023662,6.25926 6.259259,6.25926 3.3024237,0 5.99402075,-2.56542 6.22916667,-5.80787 -3.56126807,-0.25754 -6.42301107,-3.11929 -6.68055547,-6.68056 -0.060474,0.005 -0.1205729,-0.006 -0.1805559,0 z"
       id="path4146" />
    <path
       inkscape:connector-curvature="0"
       style="color:#000000;fill:#f9f9f9;fill-opacity:1;fill-rule:nonzero;stroke:none;stroke-width:2;marker:none;visibility:visible;display:inline;overflow:visible;enable-background:new"
       d="m 8.1856544,164.02159 c -0.2575445,3.56126 -3.1192874,6.42301 -6.6805556,6.68055 0.235146,3.24245 2.926743,5.80787 6.2291667,5.80787 3.4568925,0 6.2592595,-2.80236 6.2592595,-6.25926 0,-3.30242 -2.56542,-5.99402 -5.8078706,-6.22916 z"
       id="path5658" />
    <path
       sodipodi:nodetypes="cccc"
       id="path4160"
       d="m 6.9935248,164.51006 c -0.2500526,3.0424 -1.9576052,4.74995 -4.9999999,5 l 0,-5 z"
       style="color:#000000;fill:#f9f9f9;fill-opacity:1;fill-rule:nonzero;stroke:none;stroke-width:2;marker:none;visibility:visible;display:inline;overflow:visible;enable-background:new"
       inkscape:connector-curvature="0" />
    <path
       sodipodi:nodetypes="cccc"
       inkscape:connector-curvature="0"
       style="color:#000000;fill:#f9f9f9;fill-opacity:1;fill-rule:nonzero;stroke:none;stroke-width:2;marker:none;visibility:visible;display:inline;overflow:visible;enable-background:new"
       d="m 6.9935248,162.51006 c -0.2500526,-3.0424 -1.9576052,-4.74995 -4.9999999,-5 l 0,5 z"
       id="path4164" />
    <path
       sodipodi:nodetypes="cccc"
       id="path4168"
       d="m -5.0064751,162.51006 c 0.2500526,-3.0424 1.9576053,-4.74995 4.99999996,-5 l 0,5 z"
       style="color:#000000;fill:#f9f9f9;fill-opacity:1;fill-rule:nonzero;stroke:none;stroke-width:2;marker:none;visibility:visible;display:inline;overflow:visible;enable-background:new"
       inkscape:connector-curvature="0" />
  </g>
  <g
     style="display:inline"
     inkscape:label="Highlights"
     id="layer5"
     inkscape:groupmode="layer"
     transform="matrix(0.28222223,0,0,0.28222223,6.4929387,-39.37284)" />
</svg>
