<?xml version="1.0" encoding="UTF-8" standalone="no"?>
<svg
   xmlns:dc="http://purl.org/dc/elements/1.1/"
   xmlns:cc="http://creativecommons.org/ns#"
   xmlns:rdf="http://www.w3.org/1999/02/22-rdf-syntax-ns#"
   xmlns:svg="http://www.w3.org/2000/svg"
   xmlns="http://www.w3.org/2000/svg"
   xmlns:xlink="http://www.w3.org/1999/xlink"
   xmlns:sodipodi="http://sodipodi.sourceforge.net/DTD/sodipodi-0.dtd"
   xmlns:inkscape="http://www.inkscape.org/namespaces/inkscape"
   width="48"
   viewBox="0 0 13.546667 13.546667"
   height="48"
   id="svg2"
   version="1.1"
   inkscape:version="0.48.4 r9939"
   sodipodi:docname="lmms.svg">
  <metadata
     id="metadata57">
    <rdf:RDF>
      <cc:Work
         rdf:about="">
        <dc:format>image/svg+xml</dc:format>
        <dc:type
           rdf:resource="http://purl.org/dc/dcmitype/StillImage" />
      </cc:Work>
    </rdf:RDF>
  </metadata>
  <sodipodi:namedview
     pagecolor="#ffffff"
     bordercolor="#666666"
     borderopacity="1"
     objecttolerance="10"
     gridtolerance="10"
     guidetolerance="10"
     inkscape:pageopacity="0"
     inkscape:pageshadow="2"
     inkscape:window-width="672"
     inkscape:window-height="480"
     id="namedview55"
     showgrid="false"
     inkscape:zoom="4.9166667"
     inkscape:cx="39.661017"
     inkscape:cy="25.423729"
     inkscape:window-x="0"
     inkscape:window-y="0"
     inkscape:window-maximized="0"
     inkscape:current-layer="svg2" />
  <defs
     id="defs4">
    <clipPath
       id="clipPath6">
      <path
         d="M -670.14006,51.863192 L -114.61564,405.00326 L -257.11075,510.32573 L -514.2215,-71.013029 L -670.14006,51.863192 z"
         id="path8" />
    </clipPath>
    <linearGradient
       id="0">
      <stop
         stop-color="#c8c8c8"
         id="stop11" />
      <stop
         offset="1"
         stop-color="#e8e8e8"
         id="stop13" />
    </linearGradient>
    <linearGradient
       gradientTransform="matrix(0.28222223,0,0,0.28222223,0,-283.45334)"
       xlink:href="#0"
       id="1"
       y1="1050.36"
       x2="0"
       y2="1006.36"
       gradientUnits="userSpaceOnUse" />
    <radialGradient
       r="128"
       cy="160"
       cx="148.004"
       gradientTransform="matrix(0.05167489,0,0,0.05167489,-0.87511191,-1.4947614)"
       gradientUnits="userSpaceOnUse"
       id="radialGradient3011"
       xlink:href="#radial0"
       inkscape:collect="always" />
    <radialGradient
       cx="148.004"
       cy="160"
       gradientTransform="matrix(0.1831,0,0,0.1831,-3.10029,-5.29688)"
       id="radial0"
       r="128"
       gradientUnits="userSpaceOnUse">
      <stop
         offset="0"
         style="stop-color:#b9e5c7"
         id="stop7-4" />
      <stop
         offset="1"
         style="stop-color:#028e2e"
         id="stop9-7" />
    </radialGradient>
    <radialGradient
       r="128"
       cy="160"
       cx="148.004"
       gradientTransform="matrix(0.05167489,0,0,0.05167489,-0.87511211,-1.4947611)"
       gradientUnits="userSpaceOnUse"
       id="radialGradient3009"
       xlink:href="#radial0"
       inkscape:collect="always" />
  </defs>
  <path
     inkscape:connector-curvature="0"
     style="fill:url(#radialGradient3009)"
     d="m 13.387776,3.2589212 0,7.0290968 c 0,2.892778 0,3.100035 -3.100035,3.100035 l -7.0279941,0 c -3.10113801,0 -3.10113801,-0.207257 -3.10113801,-3.100035 l 0,-7.0290968 c 0,-2.89277779 0,-3.10003479 3.10113801,-3.10003479 l 7.0279941,0 c 3.100035,0 3.100035,0.207257 3.100035,3.10003479 z"
     id="path11" />
  <path
     inkscape:connector-curvature="0"
     id="path15"
     d="m 10.799269,13.388053 c 0.717682,-0.0033 1.235825,-0.02315 1.611753,-0.124575 l -1.193932,-2.046111 -1.2655901,2.170686 0.3362411,0 c 0.180799,0 0.350573,0 0.511528,0 z M 11.21709,11.217367 9.7707019,8.7368991 8.3232109,11.217367 z m 0,0 2.159662,0 c 0.0088,-0.274505 0.01102,-0.582083 0.01102,-0.930451 l 0,-0.3097829 -0.723193,-1.240234 z M 12.664582,8.7368991 11.21709,6.2564301 9.7707019,8.7368991 z m 0,0 0.723194,0 0,-1.240235 z m -2.8938801,0 -1.447491,-2.480469 -1.446389,2.480469 z m -2.89388,0 -1.447492,2.4804679 2.893881,0 z m 0,0 -1.447492,-2.480469 -1.446389,2.480469 z m -2.893881,0 -1.447491,2.4804679 2.89388,0 z m 0,0 -1.447491,-2.480469 -1.446389,2.480469 z m -2.89388,0 -0.93045201,1.5941139 c 0,0.329627 0.0033,0.623976 0.01102,0.886354 l 2.36581601,0 z m 0,0 -0.93045201,-1.594115 0,1.594115 z m 1.446389,2.4804679 -1.217084,2.086901 c 0.450894,0.08268 1.07487,0.08379 1.940278,0.08379 l 0.543499,0 z m 0,-4.9609369 -1.446389,-2.480469 -0.93045201,1.5941147 0,0.8863543 z m 0,0 2.89388,0 -1.446389,-2.480469 z m 1.447491,-2.480469 -1.447491,-2.4804687 -1.446389,2.4804687 z m 0,0 2.893881,0 -1.447492,-2.4804687 z m 1.446389,-2.4804687 -0.663663,-1.13660599 -1.507023,0 c -0.02095,0 -0.03858,0 -0.05953,0 L 2.5354509,1.2954924 z m 0,0 2.893881,0 -0.663664,-1.13660599 -1.566554,0 z m 2.893881,0 2.8938791,0 -0.663663,-1.13660599 c -0.0882,0 -0.171979,0 -0.265686,0 l -1.3008681,0 z m 0,0 -1.446389,2.4804687 2.89388,0 z m 1.447491,2.4804687 2.8938801,0 -1.447492,-2.4804687 z m 0,0 -1.447491,2.480469 2.8938791,0 z m 1.4463881,2.480469 2.170686,0 0,-1.2402344 -0.723194,-1.2402346 z m 1.447492,-2.480469 0.723194,0 0,-0.5170399 c 0,-0.2579689 -0.0022,-0.4938889 -0.0066,-0.71217 z m -4.3413711,2.480469 -1.446389,-2.480469 -1.447492,2.480469 z m 2.8938791,-4.9609377 2.062648,0 C 13.123193,0.51717631 12.747264,0.27133451 11.859807,0.19416421 z m -8.6816401,0 -0.650434,-1.11565969 C 0.85203789,0.23826171 0.43421689,0.46095231 0.26664689,1.2954924 z M 1.0890609,3.7759611 0.17514589,2.2083049 c -0.01213,0.3031685 -0.01653,0.6515363 -0.01653,1.0506163 l 0,0.5170399 z m 4.340269,7.4414059 -1.26559,2.170686 2.532283,0 z m 2.893881,0 -1.265591,2.170686 2.532283,0 z m -7.59133801,1.86862 -0.451996,-0.775009 c 0.08268,0.371519 0.221588,0.615157 0.451996,0.775009 z"
     style="fill:#ffffff;fill-opacity:0.05100002" />
  <path
     style="color:#000000;fill:#f9f9f9;fill-opacity:1"
     inkscape:connector-curvature="0"
     id="path34"
     d="m 9.4340446,3.3869957 c 0.189883,0 0.386851,0.04762 0.551076,0.158687 0.6568994,0.444172 1.3037644,0.2775818 1.3037644,0.2775818 0,0 -0.65713,1.0608512 -1.4919374,0.8992882 -0.789,-0.152067 -0.941211,0.04355 -0.967742,0.06621 l -0.0403,3.358707 c -1.36e-4,0.02275 0.0012,0.04355 0,0.06611 -0.03738,0.719456 -0.666809,1.440364 -1.545704,1.771942 -1.114967,0.4207133 -2.293298,0.05474 -2.634416,-0.819855 -0.34112,-0.874464 0.282882,-1.933007 1.397852,-2.353739 0.863029,-0.325558 1.763086,-0.17129 2.284954,0.317376 l 0,-3.358717 c 0.341914,-0.187807 0.783408,-0.3804662 1.142446,-0.383781 z" />
  <g
     style="color:#000000;fill:#f9f9f9;fill-opacity:1"
     transform="matrix(0.02602,0,0,0.02961,2.89389,-10.21009)"
     id="g38">
    <rect
       width="42"
       x="48"
       y="562.85999"
       rx="12.956"
       height="125"
       id="2"
       style="fill:#f9f9f9;fill-opacity:1" />
    <path
       d="m 72,622.36218 c 0,29.82338 -10.521308,54 -23.5,54 -12.978692,0 -23.5,-24.17662 -23.5,-54 0,-29.82337 10.521308,-54 23.5,-54 12.978692,0 23.5,24.17663 23.5,54 z"
       transform="matrix(1,0,0,0.94444,0,37.57568)"
       id="3"
       inkscape:connector-curvature="0"
       style="fill:#f9f9f9;fill-opacity:1" />
  </g>
  <g
     style="color:#000000;fill:#f9f9f9;fill-opacity:1"
     transform="matrix(0.02602,0,0,0.02961,-8.34457,-14.48146)"
     id="g42">
    <path
       d="m 461,759.86218 c 0,5.24671 -4.25329,9.5 -9.5,9.5 -5.24671,0 -9.5,-4.25329 -9.5,-9.5 0,-5.2467 4.25329,-9.5 9.5,-9.5 5.24671,0 9.5,4.2533 9.5,9.5 z"
       transform="matrix(1.11842,0,0,1,-52.5921,7)"
       id="4"
       inkscape:connector-curvature="0"
       style="fill:#f9f9f9;fill-opacity:1" />
    <path
       d="m 581,603.375 c -77.87215,0 -141,63.12785 -141,141 0,7.83306 0.64678,15.51456 1.875,23 l 21.34375,0 C 461.77385,759.9312 461,752.24121 461,744.375 c 0,-66.27417 53.72583,-120 120,-120 66.27417,0 120,53.72583 120,120 0,7.86621 -0.77385,15.5562 -2.21875,23 l 21.34375,0 c 1.22822,-7.48544 1.875,-15.16694 1.875,-23 0,-77.87215 -63.12785,-141 -141,-141 z"
       id="path45"
       inkscape:connector-curvature="0"
       style="fill:#f9f9f9;fill-opacity:1" />
    <use
       transform="matrix(0.98823,0,0,1,262.7,-1)"
       xlink:href="#4"
       id="use47"
       x="0"
       y="0"
       width="13.546667"
       height="13.546667"
       style="fill:#f9f9f9;fill-opacity:1" />
  </g>
  <use
     style="color:#000000;fill:#f9f9f9;fill-opacity:1"
     height="13.546667"
     width="13.546667"
     y="0"
     x="0"
     id="use51"
     xlink:href="#2"
     transform="matrix(-0.02602,0,0,0.02961,10.65314,-10.21009)" />
  <use
     style="color:#000000;fill:#f9f9f9;fill-opacity:1"
     height="13.546667"
     width="13.546667"
     y="0"
     x="0"
     id="use53"
     xlink:href="#3"
     transform="matrix(-0.02602,0,0,0.02961,10.65314,-10.21009)" />
</svg>
