<?xml version="1.0" encoding="UTF-8" standalone="no"?>
<svg
   xmlns:dc="http://purl.org/dc/elements/1.1/"
   xmlns:cc="http://creativecommons.org/ns#"
   xmlns:rdf="http://www.w3.org/1999/02/22-rdf-syntax-ns#"
   xmlns:svg="http://www.w3.org/2000/svg"
   xmlns="http://www.w3.org/2000/svg"
   xmlns:xlink="http://www.w3.org/1999/xlink"
   xmlns:sodipodi="http://sodipodi.sourceforge.net/DTD/sodipodi-0.dtd"
   xmlns:inkscape="http://www.inkscape.org/namespaces/inkscape"
   width="48"
   viewBox="0 0 13.546667 13.546667"
   height="48"
   id="svg2"
   version="1.1"
   inkscape:version="0.48.4 r9939"
   sodipodi:docname="lpi-bug.svg">
  <metadata
     id="metadata36">
    <rdf:RDF>
      <cc:Work
         rdf:about="">
        <dc:format>image/svg+xml</dc:format>
        <dc:type
           rdf:resource="http://purl.org/dc/dcmitype/StillImage" />
      </cc:Work>
    </rdf:RDF>
  </metadata>
  <sodipodi:namedview
     pagecolor="#ffffff"
     bordercolor="#666666"
     borderopacity="1"
     objecttolerance="10"
     gridtolerance="10"
     guidetolerance="10"
     inkscape:pageopacity="0"
     inkscape:pageshadow="2"
     inkscape:window-width="640"
     inkscape:window-height="480"
     id="namedview34"
     showgrid="false"
     inkscape:zoom="4.9166667"
     inkscape:cx="24"
     inkscape:cy="24"
     inkscape:window-x="0"
     inkscape:window-y="0"
     inkscape:window-maximized="0"
     inkscape:current-layer="svg2" />
  <defs
     id="defs4">
    <linearGradient
       id="0">
      <stop
         stop-color="#891410"
         id="stop7" />
      <stop
         offset="1"
         stop-color="#b81b1a"
         id="stop9" />
    </linearGradient>
    <linearGradient
       gradientTransform="matrix(0.28222223,0,0,0.28222223,0,-283.45334)"
       xlink:href="#0"
       id="1"
       y1="1050.36"
       x2="0"
       y2="1006.36"
       gradientUnits="userSpaceOnUse" />
    <radialGradient
       gradientTransform="translate(-5e-4,5.0017e-4)"
       r="23.4375"
       fy="24"
       fx="24"
       cy="24"
       cx="24"
       gradientUnits="userSpaceOnUse"
       id="radialGradient3011"
       xlink:href="#radial0-3"
       inkscape:collect="always" />
    <radialGradient
       cx="148.004"
       cy="160"
       gradientTransform="matrix(0.17968213,0,0,0.17968213,-2.594418,-4.7500049)"
       id="radial0-3"
       r="128"
       gradientUnits="userSpaceOnUse">
      <stop
         offset="0"
         style="stop-color:#ffbcbc"
         id="stop7-7" />
      <stop
         offset="1"
         style="stop-color:#a40f0c"
         id="stop9-5" />
    </radialGradient>
    <radialGradient
       r="23.4375"
       fy="24"
       fx="24"
       cy="24"
       cx="24"
       gradientTransform="matrix(0.28222223,0,0,0.28222223,-1.4110721e-4,1.3660721e-4)"
       gradientUnits="userSpaceOnUse"
       id="radialGradient3012"
       xlink:href="#radial0-3"
       inkscape:collect="always" />
  </defs>
  <path
     inkscape:connector-curvature="0"
     style="fill:url(#radialGradient3012);fill-opacity:1"
     d="m 13.387776,3.2589214 0,7.0290966 c 0,2.892778 0,3.100035 -3.100035,3.100035 l -7.027995,0 c -3.10113711,0 -3.10113711,-0.207257 -3.10113711,-3.100035 l 0,-7.0290966 c 0,-2.89277789 0,-3.10003479 3.10113711,-3.10003479 l 7.027995,0 c 3.100035,0 3.100035,0.2072569 3.100035,3.10003479 z"
     id="path11" />
  <path
     inkscape:connector-curvature="0"
     style="fill:#ffffff;fill-opacity:0.05100002"
     d="m 10.799269,13.388053 c 0.717682,-0.0033 1.235825,-0.02315 1.611753,-0.124575 l -1.193932,-2.046111 -1.26559,2.170686 0.336241,0 c 0.180799,0 0.350573,0 0.511528,0 z M 11.21709,11.217367 9.770701,8.7368991 8.32321,11.217367 z m 0,0 2.159662,0 c 0.0088,-0.274505 0.01102,-0.582083 0.01102,-0.930451 l 0,-0.3097829 -0.723194,-1.240234 z M 12.664582,8.7368991 11.21709,6.2564301 9.770701,8.7368991 z m 0,0 0.723194,0 0,-1.240235 z m -2.893881,0 -1.447491,-2.480469 -1.446389,2.480469 z m -2.89388,0 -1.447492,2.4804679 2.893881,0 z m 0,0 -1.447492,-2.480469 -1.446388,2.480469 z m -2.89388,0 -1.4474918,2.4804679 2.8938798,0 z m 0,0 -1.4474918,-2.480469 -1.4463888,2.480469 z m -2.8938806,0 -0.93045151,1.5941139 c 0,0.329627 0.00331,0.623976 0.011024,0.886354 l 2.36581621,0 z m 0,0 -0.93045151,-1.594115 0,1.594115 z m 1.4463888,2.4804679 -1.2170833,2.086901 c 0.450894,0.08268 1.0748699,0.08379 1.9402781,0.08379 l 0.543498,0 z m 0,-4.9609369 -1.4463888,-2.4804688 -0.93045151,1.5941147 0,0.8863541 z m 0,0 2.8938798,0 L 3.982941,3.7759613 z M 3.982941,3.7759613 2.5354492,1.2954926 1.0890604,3.7759613 z m 0,0 2.89388,0 L 5.429329,1.2954926 z M 5.429329,1.2954926 4.765666,0.15888661 l -1.507022,0 c -0.02095,0 -0.03859,0 -0.05953,0 L 2.5354502,1.2954926 z m 0,0 2.893881,0 -0.663663,-1.13660599 -1.566554,0 z m 2.893881,0 2.89388,0 -0.663663,-1.13660599 c -0.0882,0 -0.171979,0 -0.265686,0 l -1.300868,0 z m 0,0 -1.446389,2.4804687 2.89388,0 z m 1.447491,2.4804687 2.893881,0 -1.447492,-2.4804687 z m 0,0 -1.447491,2.4804688 2.89388,0 z m 1.446389,2.4804688 2.170686,0 0,-1.2402342 -0.723194,-1.2402346 z m 1.447492,-2.4804688 0.723194,0 0,-0.5170399 c 0,-0.2579689 -0.0022,-0.4938889 -0.0066,-0.71217 z M 8.32321,6.2564301 6.876821,3.7759613 5.429329,6.2564301 z m 2.89388,-4.9609375 2.062648,0 C 13.123193,0.51717651 12.747264,0.27133461 11.859807,0.19416441 z m -8.6816408,0 L 1.8850153,0.17983281 C 0.85203769,0.23826161 0.43421639,0.46095241 0.26664699,1.2954926 z M 1.0890604,3.7759613 0.17514549,2.2083051 c -0.012127,0.3031685 -0.016535,0.6515362 -0.016535,1.0506163 l 0,0.5170399 z m 4.3402686,7.4414057 -1.26559,2.170686 2.532283,0 z m 2.893881,0 -1.265591,2.170686 2.532284,0 z m -7.59133721,1.86862 -0.4519963,-0.775009 c 0.082682,0.371519 0.2215884,0.615157 0.4519963,0.775009 z"
     id="path13" />
  <path
     style="fill:#f9f9f9;fill-opacity:1"
     inkscape:connector-curvature="0"
     id="path17"
     d="m 7.619859,5.9268031 c 0,1.128889 -0.282222,1.693334 -0.564444,1.975556 l -0.564445,0 C 6.208748,7.6201371 5.926526,7.0556921 5.926526,5.9268031 c 0,-1.1288886 0,-1.4111108 0,-2.5399998 l 1.693333,0"
     sodipodi:nodetypes="cccccc" />
  <path
     sodipodi:type="arc"
     style="fill:#f9f9f9;fill-opacity:1;stroke:#5fb10e;stroke-width:0;stroke-miterlimit:4;stroke-opacity:1;stroke-dasharray:none"
     id="path3002"
     sodipodi:cx="21"
     sodipodi:cy="28"
     sodipodi:rx="3"
     sodipodi:ry="3"
     d="m 24,28 a 3,3 0 1 1 -6,0 3,3 0 1 1 6,0 z"
     transform="matrix(0.28222223,0,0,0.28222223,0.84652559,1.4112477)" />
</svg>
