<?xml version="1.0" encoding="UTF-8" standalone="no"?>
<svg
   xmlns:dc="http://purl.org/dc/elements/1.1/"
   xmlns:cc="http://creativecommons.org/ns#"
   xmlns:rdf="http://www.w3.org/1999/02/22-rdf-syntax-ns#"
   xmlns:svg="http://www.w3.org/2000/svg"
   xmlns="http://www.w3.org/2000/svg"
   xmlns:xlink="http://www.w3.org/1999/xlink"
   xmlns:sodipodi="http://sodipodi.sourceforge.net/DTD/sodipodi-0.dtd"
   xmlns:inkscape="http://www.inkscape.org/namespaces/inkscape"
   width="48"
   viewBox="0 0 13.546667 13.546667"
   height="48"
   id="svg2"
   version="1.1"
   inkscape:version="0.48.4 r9939"
   sodipodi:docname="luminance-hdr.svg">
  <metadata
     id="metadata176">
    <rdf:RDF>
      <cc:Work
         rdf:about="">
        <dc:format>image/svg+xml</dc:format>
        <dc:type
           rdf:resource="http://purl.org/dc/dcmitype/StillImage" />
      </cc:Work>
    </rdf:RDF>
  </metadata>
  <sodipodi:namedview
     pagecolor="#ffffff"
     bordercolor="#666666"
     borderopacity="1"
     objecttolerance="10"
     gridtolerance="10"
     guidetolerance="10"
     inkscape:pageopacity="0"
     inkscape:pageshadow="2"
     inkscape:window-width="1280"
     inkscape:window-height="998"
     id="namedview174"
     showgrid="false"
     inkscape:zoom="1.7383042"
     inkscape:cx="-156.11384"
     inkscape:cy="-69.442276"
     inkscape:window-x="0"
     inkscape:window-y="0"
     inkscape:window-maximized="1"
     inkscape:current-layer="svg2" />
  <defs
     id="defs4">
    <linearGradient
       id="0">
      <stop
         stop-color="#ffffff"
         id="stop7" />
      <stop
         offset="1"
         stop-opacity="0"
         id="stop9" />
    </linearGradient>
    <linearGradient
       id="1">
      <stop
         stop-color="#c7ba56"
         id="stop12" />
      <stop
         offset="1"
         stop-color="#de7d53"
         id="stop14" />
    </linearGradient>
    <linearGradient
       id="2">
      <stop
         stop-color="#5d5d60"
         id="stop17" />
      <stop
         offset="1"
         stop-color="#aaaaaa"
         id="stop19" />
    </linearGradient>
    <linearGradient
       gradientUnits="userSpaceOnUse"
       x2="0"
       y2="40"
       y1="280"
       xlink:href="#5"
       id="3"
       gradientTransform="matrix(.175 0 0 .175 302.79999 215.99997)" />
    <linearGradient
       gradientUnits="userSpaceOnUse"
       x2="0"
       y2="90"
       y1="230"
       xlink:href="#5"
       id="4"
       gradientTransform="matrix(.25 0 0 .25 299.99999 131.99999)" />
    <linearGradient
       id="5">
      <stop
         stop-color="#dedede"
         id="stop24" />
      <stop
         offset="1"
         stop-color="#fff"
         id="stop26" />
    </linearGradient>
    <linearGradient
       gradientUnits="userSpaceOnUse"
       x2="0"
       y2="90"
       y1="230"
       xlink:href="#5"
       id="6"
       gradientTransform="matrix(.375 0 0 .375 298 16)" />
    <clipPath
       id="clipPath29">
      <path
         d="m 183.5625,117.5625 c -0.12976,-0.01 -0.24485,0.0155 -0.375,0.0625 l -12.21875,4.4375 c -0.52059,0.1895 -0.81447,0.76065 -0.625,1.28125 l 4.8125,13.15625 c 0.14211,0.3904 0.48572,0.63685 0.875,0.65625 C 176.11041,137.63006 176.50303,138 177,138 l 13,0 c 0.554,0 1,-0.446 1,-1 l 0,-14 c 0,-0.554 -0.446,-1 -1,-1 l -4.15625,0 -1.375,-3.78125 c -0.14211,-0.3904 -0.51697,-0.63685 -0.90625,-0.65625 z m -0.65625,2.28125 L 183.6875,122 177,122 l 5.90625,-2.15625 z m -6.46875,2.34375 C 176.17786,122.36777 176,122.6586 176,123 l 0,10 -3.40625,-9.40625 3.84375,-1.40625 z M 178,124 l 11,0 0,10 -11,0 0,-10 z"
         id="path31" />
    </clipPath>
    <clipPath
       id="clipPath33">
      <path
         d="m 1174.0312,475.53125 -8.4374,3.0625 L 1169,488 l 9,0 0,-10 -3.0625,0 -0.9063,-2.46875 z m -0.5937,1.28125 0.4375,1.1875 -3.7188,0 3.2813,-1.1875 z m -4.4375,1.59375 0,6.6875 -2.125,-5.90625 2.125,-0.78125 z m 1,0.59375 4.25,0 1.0625,0 1.6875,0 0,4.625 0,1.4375 0,0.9375 -2.5312,0 -4.4688,0 0,-0.5 0,-6.5 z"
         id="path35" />
    </clipPath>
    <clipPath
       id="clipPath37">
      <path
         d="m 353,161 0,31 c 0,3 -3,3 -3,3 l 0,-34 -23,0 3,-3 20,0 c 0,0 3,0 3,3 z m -9,3 c 3,0 3,3 3,3 l 0,31 c 0,3 -3,3 -3,3 l -23,0 c 0,0 -3,-0.41177 -3,-3 l 0,-28 6,-6 z m 0,3 -19,0 0,4 -4,0 0,27 23,0 z"
         id="path39" />
    </clipPath>
    <clipPath
       id="clipPath41">
      <path
         d="m 1571,-186 0,84 c 0,7 7,7 7,7 l 0,-91 63,0 -7,-7 -56,0 c 0,0 -7,0 -7,7 z m 21,7 c -7,0 -7,7 -7,7 l 0,84 c 0,7 7,7 7,7 l 63,0 c 0,0 7,0 7,-7 l 0,-77 -14,-14 z m 0,7 52,0 0,11 11,0 0,73 -63,0 z"
         id="path43" />
    </clipPath>
    <clipPath
       id="clipPath45">
      <path
         d="m 1165.5938,-341.6875 -5.6563,2.0625 2.0625,5.625 6,0 0,-6 -1.8125,0 -0.5937,-1.6875 z m -0.5938,1.28125 0.1562,0.40625 -1.2812,0 1.125,-0.40625 z m -3,1.09375 0,2.40625 -0.7812,-2.125 0.7812,-0.28125 z m 1,0.3125 4,0 0,4 -4,0 0,-4 z"
         id="path47" />
    </clipPath>
    <clipPath
       id="clipPath49">
      <path
         d="m 1316.0312,171.0625 c -0.1296,-0.01 -0.2447,0.0155 -0.375,0.0625 l -1.875,0.6875 -2.0312,0.75 -2.0312,0.7187 -10.0313,3.6563 c -0.9397,0.342 -0.625,1.2813 -0.625,1.2813 l 5.5,15.0312 1.4063,3.9062 0.031,0 c 0.01,10e-4 0.021,-5e-4 0.031,0 0.079,0.474 0.4718,0.8438 0.9688,0.8438 l 17,0 c 0.554,0 1,-0.446 1,-1 l 0,-20 c 0,-0.554 -0.446,-1 -1,-1 l -2,0 -2.1562,0 -1.3438,0 -1.5625,-4.2812 c -0.1421,-0.3905 -0.517,-0.6369 -0.9063,-0.6563 z m -0.625,2.2813 0.9688,2.6562 -8.2812,0 7.3124,-2.6562 z m -9.375,3.4062 c -0.032,0.1376 -0.031,0.25 -0.031,0.25 l 0,14.375 -4.6875,-12.9062 4.7187,-1.7188 z M 1308,178 l 15,0 0,14 -15,0 0,-14 z"
         id="path51" />
    </clipPath>
    <clipPath
       id="clipPath53">
      <rect
         height="240"
         rx="50"
         y="36"
         x="24"
         width="240"
         fill="#986767"
         color="#bebebe"
         id="rect55" />
    </clipPath>
    <clipPath
       id="clipPath57">
      <path
         d="m 331.84375,235.34375 c -0.1947,-0.015 -0.36735,0.0225 -0.5625,0.093 l -17.8282,6.65625 c -0.78075,0.28425 -1.2216,1.1409 -0.9375,1.9218 l 7.21875,19.73445 c 0.2133,0.5856 0.7287,0.9552 1.3125,0.9843 0.1185,0.71085 0.7077,1.2657 1.4532,1.2657 l 19,0 c 0.831,0 1.5,-0.669 1.5,-1.5 l 0,-21 c 0,-0.831 -0.669,-1.5 -1.5,-1.5 l -6.23445,0 -2.0625,-5.67195 c -0.21315,-0.5856 -0.77535,-0.9552 -1.3593,-0.9843 z m -0.98445,3.4218 L 332.03125,242 322.5,242 z m -9.20305,3.5157 C 321.26685,242.5517 321,242.9879 321,243.5 l 0,15 -5.10945,-14.10945 z M 324,245 l 16,0 0,15 -16,0 z"
         id="path59" />
    </clipPath>
    <clipPath
       id="clipPath61">
      <path
         d="m 1807,-237 c -2,0 -2,2 -2,2 l 0,35.99998 c 0,1.0526 0.9582,2.0052 2,2 l 2,0 0,-4 0,-29.99998 0,-2 1.625,0 16.375,0 6,0 -4,-4 -22,0 z m 5.625,6 c -0.9118,0.172 -1.636,1.0632 -1.625,2 l 0,35.99998 c 0,1.0526 0.9582,2.0052 2,2 l 28,0 c 1.0418,0 1.9946,-0.9474 2,-2 l 0,-29.99999 -8,-7.99999 -22,0 c -0.124,-0.02 -0.2504,-0.02 -0.375,0 z m 2.375,4 18,0 0,3.99999 c 0,2 2,2 2,2 l 4,0 0,25.99999 -24,0 0,-31.99998 z"
         id="path63" />
    </clipPath>
    <clipPath
       id="clipPath65">
      <path
         d="m 1426.4688,44.03125 c -0.065,-0.003 -0.1225,0.008 -0.1876,0.03125 l -10.3437,3.75 c -0.2602,0.0947 -0.4072,0.39595 -0.3125,0.65625 l 4.375,11.9375 0,0.09375 c 0,0.277 0.223,0.5 0.5,0.5 l 11,0 c 0.277,0 0.5,-0.223 0.5,-0.5 l 0,-13 c 0,-0.277 -0.223,-0.5 -0.5,-0.5 l -3.625,0 -0.9688,-2.65625 c -0.071,-0.19522 -0.243,-0.30278 -0.4374,-0.3125 z m -0.3126,1.125 0.6563,1.84375 -5.6875,0 5.0312,-1.84375 z m -6.1562,2.25 c -0.01,0.03179 0,0.06006 0,0.09375 l 0,9.46875 -0.1875,0.0625 -3.0625,-8.4375 3.25,-1.1875 z m 1,0.59375 10,0 0,9 -10,0 0,-9 z"
         id="path67" />
    </clipPath>
    <clipPath
       id="clipPath69">
      <path
         d="m 1795,-132 0,24 c 0,2 2,2 2,2 l 0,-26 18,0 -2,-2 -16,0 c 0,0 -2,0 -2,2 z m 6,2 c -2,0 -2,2 -2,2 l 0,24 c 0,2 2,2 2,2 l 18,0 c 0,0 2,0 2,-2 l 0,-22 -4,-4 z m 0,2 15,0 0,3 3,0 0,21 -18,0 z"
         id="path71" />
    </clipPath>
    <clipPath
       id="clipPath73">
      <rect
         height="30"
         rx="4"
         y="29"
         x="433"
         width="30"
         opacity="0.2"
         fill="#6d6d6d"
         color="#bebebe"
         id="rect75" />
    </clipPath>
    <clipPath
       id="clipPath77">
      <rect
         height="20"
         rx="4"
         y="78"
         x="434"
         width="20"
         color="#bebebe"
         id="rect79" />
    </clipPath>
    <clipPath
       id="clipPath81">
      <rect
         height="22"
         rx="3"
         y="77"
         x="433"
         width="22"
         opacity="0.2"
         fill="#6d6d6d"
         color="#bebebe"
         id="rect83" />
    </clipPath>
    <clipPath
       id="clipPath85">
      <rect
         transform="rotate(90)"
         height="42"
         rx="9"
         y="223"
         x="307"
         width="42"
         fill="url(#3)"
         color="#bebebe"
         id="rect87" />
    </clipPath>
    <clipPath
       id="clipPath89">
      <rect
         height="22"
         rx="4"
         y="77"
         x="433"
         width="22"
         color="#bebebe"
         id="rect91" />
    </clipPath>
    <clipPath
       id="clipPath93">
      <rect
         height="30"
         rx="6"
         y="29"
         x="433"
         width="30"
         color="#bebebe"
         id="rect95" />
    </clipPath>
    <clipPath
       id="clipPath97">
      <rect
         height="90"
         rx="18.75"
         y="31"
         x="307"
         width="90"
         fill="url(#6)"
         color="#bebebe"
         id="rect99" />
    </clipPath>
    <clipPath
       id="clipPath101">
      <rect
         transform="matrix(0 -1 1 0 0 0)"
         height="60"
         rx="12.5"
         y="142"
         x="306"
         width="60"
         fill="url(#4)"
         color="#bebebe"
         id="rect103" />
    </clipPath>
    <clipPath
       id="clipPath105">
      <rect
         height="16"
         rx="2"
         y="116"
         x="432"
         width="16"
         opacity="0.2"
         fill="#6d6d6d"
         color="#bebebe"
         id="rect107" />
    </clipPath>
    <clipPath
       id="clipPath109">
      <path
         d="m 1908,740 0,8 1,0 0,-7 4.5,0 -1,-1 -4.5,0 z m 2,2 0,8 6,0 0,-6.5 -1.5,-1.5 -4.5,0 z m 1,1 3,0 0,1 1,0 0,5 -4,0 0,-6 z"
         id="path111" />
    </clipPath>
    <clipPath
       id="clipPath113">
      <rect
         height="16"
         rx="3"
         y="116"
         x="432"
         width="16"
         color="#bebebe"
         id="rect115" />
    </clipPath>
    <clipPath
       id="clipPath117">
      <path
         d="m 1791,-60 c -1,0 -1,1 -1,1 l 0,18 c 0,0.5263 0.4791,1.0026 1,1 l 1,0 0,-2 0,-15 0,-1 0.8125,0 8.1875,0 3,0 -2,-2 -11,0 z m 2.8125,3 c -0.4559,0.086 -0.818,0.5316 -0.8125,1 l 0,18 c 0,0.5263 0.4791,1.0026 1,1 l 14,0 c 0.5209,0 0.9973,-0.4737 1,-1 l 0,-15 -4,-4 -11,0 c -0.062,-0.01 -0.1252,-0.01 -0.1875,0 z m 1.1875,2 9,0 0,2 c 0,1 1,1 1,1 l 2,0 0,13 -12,0 0,-16 z"
         id="path119" />
    </clipPath>
    <clipPath
       id="clipPath121">
      <rect
         height="22"
         rx="5"
         y="77"
         x="433"
         width="22"
         color="#bebebe"
         id="rect123" />
    </clipPath>
    <clipPath
       id="clipPath125">
      <path
         d="m 1914,-259 0,14 1,0 0,-13 9.5,0 -1,-1 z m 2,2 0,14 11,0 0,-12.5 -1.5,-1.5 z m 1,1 8,0 0,1 1,0 0,11 -9,0 z"
         id="path127" />
    </clipPath>
    <clipPath
       id="clipPath129">
      <path
         d="m 1911,-213 0,10 1,0 0,-9 6.5,0 -1,-1 z m 2,2 0,10 8,0 0,-8.5 -1.5,-1.5 z m 1,1 5,0 0,1 1,0 0,7 -6,0 z"
         id="path131" />
    </clipPath>
    <linearGradient
       xlink:href="#1"
       id="7"
       x1="-8.184"
       x2="-5.362"
       gradientUnits="userSpaceOnUse" />
    <linearGradient
       xlink:href="#0"
       id="8"
       y1="-4.219"
       x2="0"
       y2="12.607"
       gradientUnits="userSpaceOnUse" />
    <linearGradient
       gradientTransform="matrix(0.28222223,0,0,0.28222223,0,-283.45334)"
       xlink:href="#2"
       id="9"
       y1="1050.36"
       x2="0"
       y2="1006.36"
       gradientUnits="userSpaceOnUse" />
    <radialGradient
       r="128"
       cy="160"
       cx="148.004"
       spreadMethod="pad"
       gradientTransform="matrix(0.1831,0,0,0.1831,-3.10079,-5.2963975)"
       gradientUnits="userSpaceOnUse"
       id="radialGradient3013"
       xlink:href="#linearGradient4460"
       inkscape:collect="always" />
    <linearGradient
       id="linearGradient4460">
      <stop
         offset="0"
         style="stop-color:#acacac;stop-opacity:1;"
         id="stop8-7" />
      <stop
         offset="1"
         style="stop-color:#777777;stop-opacity:1;"
         id="stop10-4" />
    </linearGradient>
    <radialGradient
       r="128"
       cy="160"
       cx="148.004"
       spreadMethod="pad"
       gradientTransform="matrix(0.05167489,0,0,0.05167489,-0.87511191,-1.4947612)"
       gradientUnits="userSpaceOnUse"
       id="radialGradient3023"
       xlink:href="#linearGradient4460"
       inkscape:collect="always" />
  </defs>
  <path
     inkscape:connector-curvature="0"
     style="fill:url(#radialGradient3023);fill-opacity:1"
     d="m 13.387776,3.2589209 0,7.0290971 c 0,2.892778 0,3.100035 -3.100035,3.100035 l -7.027996,0 c -3.10113611,0 -3.10113611,-0.207257 -3.10113611,-3.100035 l 0,-7.0290971 c 0,-2.89277779 0,-3.10003479 3.10113611,-3.10003479 l 7.027996,0 c 3.100035,0 3.100035,0.207257 3.100035,3.10003479 z"
     id="path11" />
  <path
     inkscape:connector-curvature="0"
     id="path15"
     d="m 10.799269,13.388053 c 0.717682,-0.0033 1.235825,-0.02315 1.611753,-0.124575 l -1.193932,-2.046111 -1.26559,2.170686 0.336241,0 c 0.180799,0 0.350573,0 0.511528,0 z M 11.21709,11.217367 9.770701,8.7368984 8.32321,11.217367 z m 0,0 2.159662,0 c 0.0088,-0.274505 0.01102,-0.582083 0.01102,-0.930451 l 0,-0.3097833 -0.723193,-1.2402343 z M 12.664582,8.7368984 11.21709,6.2564297 9.770701,8.7368984 z m 0,0 0.723194,0 0,-1.2402343 z m -2.893881,0 L 8.32321,6.2564297 6.876821,8.7368984 z m -2.89388,0 -1.447491,2.4804686 2.89388,0 z m 0,0 L 5.42933,6.2564297 3.98294,8.7368984 z m -2.893881,0 -1.4474905,2.4804686 2.8938805,0 z m 0,0 L 2.5354495,6.2564297 1.0890603,8.7368984 z m -2.8938797,0 -0.93045141,1.5941146 c 0,0.329627 0.00331,0.623976 0.011024,0.886354 l 2.36581591,0 z m 0,0 -0.93045141,-1.5941145 0,1.5941145 z m 1.4463892,2.4804686 -1.2170833,2.086901 c 0.4508937,0.08268 1.0748696,0.08379 1.9413788,0.08379 l 0.542397,0 z m 0,-4.9609373 -1.4463892,-2.4804689 -0.93045141,1.5941147 0,0.8863542 z m 0,0 2.8938805,0 L 3.98294,3.7759608 z M 3.98294,3.7759608 2.5354495,1.2954921 1.0890603,3.7759608 z m 0,0 2.893881,0 L 5.42933,1.2954921 z M 5.42933,1.2954921 4.765667,0.15888611 l -1.505922,0 c -0.02205,0 -0.03969,0 -0.06063,0 L 2.5354538,1.2954921 z m 0,0 2.89388,0 -0.663663,-1.13660599 -1.566555,0 z m 2.89388,0 2.89388,0 -0.663663,-1.13660599 c -0.0882,0 -0.171979,0 -0.265686,0 l -1.300868,0 z m 0,0 -1.446389,2.4804687 2.89388,0 z m 1.447491,2.4804687 2.893881,0 -1.447492,-2.4804687 z m 0,0 -1.447491,2.4804689 2.89388,0 z m 1.446389,2.4804689 2.170686,0 0,-1.2402343 -0.723194,-1.2402346 z m 1.447492,-2.4804689 0.723194,0 0,-0.5170399 c 0,-0.2579689 -0.0022,-0.4938888 -0.0066,-0.7121699 z M 8.32321,6.2564297 6.876821,3.7759608 5.42933,6.2564297 z m 2.89388,-4.9609376 2.062648,0 C 13.123193,0.51717591 12.747264,0.27133411 11.859807,0.19416391 z m -8.6816405,0 L 1.8850153,0.17983241 C 0.85203769,0.23826141 0.43421639,0.46095191 0.26664699,1.2954921 z M 1.0890603,3.7759608 0.17514539,2.2083047 c -0.012127,0.3031685 -0.016535,0.6515363 -0.016535,1.0506162 l 0,0.5170399 z m 4.3402697,7.4414062 -1.265591,2.170686 2.532282,0 z m 2.89388,0 -1.26559,2.170686 2.532283,0 z m -7.59133721,1.86862 -0.4519964,-0.775009 c 0.082682,0.371519 0.2215888,0.615157 0.4519964,0.775009 z"
     style="fill:#ffffff;fill-opacity:0.05100002" />
  <path
     d="M 24 9 C 15.690655 9 9 15.690655 9 24 C 9 32.309345 15.690655 39 24 39 C 32.309345 39 39 32.309345 39 24 C 39 15.690655 32.309345 9 24 9 z M 24 11 C 31.202218 11 37 16.797782 37 24 C 37 31.202218 31.202218 37 24 37 C 16.797782 37 11 31.202218 11 24 C 11 16.797782 16.797782 11 24 11 z M 24 13 C 17.906872 13 13 17.906872 13 24 C 13 30.093128 17.906872 35 24 35 C 30.093128 35 35 30.093128 35 24 C 35 17.906872 30.093128 13 24 13 z M 24 15 C 28.986 15 33 19.014 33 24 C 33 28.986 28.986 33 24 33 C 19.014 33 15 28.986 15 24 C 15 19.014 19.014 15 24 15 z M 24 17 C 20.123091 17 17 20.123091 17 24 C 17 27.876909 20.123091 31 24 31 C 27.876909 31 31 27.876909 31 24 C 31 20.123091 27.876909 17 24 17 z M 24 19 C 26.769782 19 29 21.230218 29 24 C 29 26.769782 26.769782 29 24 29 C 21.230218 29 19 26.769782 19 24 C 19 21.230218 21.230218 19 24 19 z M 23.78125 21 A 3 3.0000001 0 0 0 21 24 A 3 3.0000001 0 1 0 27 24 A 3 3.0000001 0 0 0 23.78125 21 z "
     transform="scale(0.28222223,0.28222223)"
     id="rect152"
     style="fill:#f9f9f9;fill-opacity:1" />
</svg>
