<?xml version="1.0" encoding="UTF-8" standalone="no"?>
<svg
   xmlns:dc="http://purl.org/dc/elements/1.1/"
   xmlns:cc="http://creativecommons.org/ns#"
   xmlns:rdf="http://www.w3.org/1999/02/22-rdf-syntax-ns#"
   xmlns:svg="http://www.w3.org/2000/svg"
   xmlns="http://www.w3.org/2000/svg"
   xmlns:xlink="http://www.w3.org/1999/xlink"
   xmlns:sodipodi="http://sodipodi.sourceforge.net/DTD/sodipodi-0.dtd"
   xmlns:inkscape="http://www.inkscape.org/namespaces/inkscape"
   width="48"
   viewBox="0 0 13.546667 13.546667"
   height="48"
   id="svg2"
   version="1.1"
   inkscape:version="0.48.4 r9939"
   sodipodi:docname="navicat.svg">
  <metadata
     id="metadata36">
    <rdf:RDF>
      <cc:Work
         rdf:about="">
        <dc:format>image/svg+xml</dc:format>
        <dc:type
           rdf:resource="http://purl.org/dc/dcmitype/StillImage" />
      </cc:Work>
    </rdf:RDF>
  </metadata>
  <sodipodi:namedview
     pagecolor="#ffffff"
     bordercolor="#666666"
     borderopacity="1"
     objecttolerance="10"
     gridtolerance="10"
     guidetolerance="10"
     inkscape:pageopacity="0"
     inkscape:pageshadow="2"
     inkscape:window-width="672"
     inkscape:window-height="480"
     id="namedview34"
     showgrid="false"
     inkscape:zoom="4.9166667"
     inkscape:cx="27.254237"
     inkscape:cy="27.661017"
     inkscape:window-x="0"
     inkscape:window-y="0"
     inkscape:window-maximized="0"
     inkscape:current-layer="svg2" />
  <defs
     id="defs4">
    <linearGradient
       id="0">
      <stop
         stop-color="#2d2d2d"
         id="stop7" />
      <stop
         offset="1"
         stop-color="#4b4b4b"
         id="stop9" />
    </linearGradient>
    <linearGradient
       gradientTransform="matrix(0.28222223,0,0,0.28222223,0,-283.45334)"
       xlink:href="#0"
       id="1"
       y1="1050.36"
       x2="0"
       y2="1006.36"
       gradientUnits="userSpaceOnUse" />
    <radialGradient
       cx="148.004"
       cy="160"
       gradientTransform="matrix(0.1831,0,0,0.1831,-3.10029,-5.29688)"
       id="radial0"
       r="128"
       gradientUnits="userSpaceOnUse">
      <stop
         offset="0"
         style="stop-color:#dbc199"
         id="stop7-6" />
      <stop
         offset="1"
         style="stop-color:#8c601f"
         id="stop9-7" />
    </radialGradient>
    <radialGradient
       r="128"
       cy="160"
       cx="148.004"
       gradientTransform="matrix(0.05167489,0,0,0.05167489,-0.87511191,-1.4947616)"
       gradientUnits="userSpaceOnUse"
       id="radialGradient3002"
       xlink:href="#radial0"
       inkscape:collect="always" />
  </defs>
  <path
     inkscape:connector-curvature="0"
     style="fill:url(#radialGradient3002)"
     d="m 13.387776,3.2589205 0,7.0290975 c 0,2.892778 0,3.100035 -3.100035,3.100035 l -7.0279949,0 c -3.10113721,0 -3.10113721,-0.207257 -3.10113721,-3.100035 l 0,-7.0290975 c 0,-2.89277789 0,-3.10003479 3.10113721,-3.10003479 l 7.0279949,0 c 3.100035,0 3.100035,0.2072569 3.100035,3.10003479 z"
     id="path11" />
  <path
     inkscape:connector-curvature="0"
     id="path15"
     d="m 10.799269,13.388053 c 0.717682,-0.0033 1.235825,-0.02315 1.611753,-0.124575 l -1.193932,-2.046111 -1.2655897,2.170686 0.3362407,0 c 0.180799,0 0.350573,0 0.511528,0 z M 11.21709,11.217367 9.7707013,8.7368981 8.3232103,11.217367 z m 0,0 2.159662,0 c 0.0088,-0.274505 0.01102,-0.582083 0.01102,-0.930451 l 0,-0.3097839 -0.723194,-1.240234 z M 12.664582,8.7368981 11.21709,6.2564293 9.7707013,8.7368981 z m 0,0 0.723194,0 0,-1.240234 z m -2.8938807,0 -1.447491,-2.4804688 -1.446389,2.4804688 z m -2.89388,0 -1.447492,2.4804689 2.893881,0 z m 0,0 -1.447492,-2.4804688 -1.4463888,2.4804688 z m -2.8938808,0 -1.4474913,2.4804689 2.8938801,0 z m 0,0 L 2.5354492,6.2564293 1.0890603,8.7368981 z m -2.8938802,0 -0.93045141,1.5941149 c 0,0.329627 0.00331,0.623976 0.011024,0.886354 l 2.36581611,0 z m 0,0 -0.93045141,-1.594115 0,1.594115 z m 1.4463889,2.4804689 -1.2170833,2.086901 c 0.450894,0.08268 1.0748699,0.08379 1.9413802,0.08379 l 0.5423958,0 z m 0,-4.9609377 -1.4463889,-2.4804689 -0.93045141,1.5941147 0,0.8863542 z m 0,0 2.8938801,0 L 3.9829405,3.7759604 z M 3.9829405,3.7759604 2.5354492,1.2954917 1.0890603,3.7759604 z m 0,0 2.8938808,0 -1.447492,-2.4804687 z m 1.4463888,-2.4804687 -0.663663,-1.13660599 -1.5059202,0 c -0.02205,0 -0.039688,0 -0.060634,0 L 2.5354492,1.2954917 z m 0,0 2.893881,0 -0.663664,-1.13660599 -1.566553,0 z m 2.893881,0 2.8938797,0 -0.663663,-1.13660599 c -0.0882,0 -0.171979,0 -0.265686,0 l -1.3008677,0 z m 0,0 -1.446389,2.4804687 2.89388,0 z m 1.447491,2.4804687 2.8938807,0 -1.447492,-2.4804687 z m 0,0 -1.447491,2.4804689 2.8938797,0 z m 1.4463887,2.4804689 2.170686,0 0,-1.2402343 -0.723194,-1.2402346 z m 1.447492,-2.4804689 0.723194,0 0,-0.5170399 c 0,-0.2579689 -0.0022,-0.4938889 -0.0066,-0.71217 z M 8.3232103,6.2564293 6.8768213,3.7759604 5.4293293,6.2564293 z m 2.8938797,-4.9609376 2.062648,0 C 13.123193,0.51717561 12.747264,0.27133381 11.859807,0.19416351 z m -8.6816408,0 L 1.8850153,0.17983191 C 0.85203769,0.23826071 0.43421639,0.46095151 0.26664699,1.2954917 z M 1.0890603,3.7759604 0.17514539,2.2083042 c -0.012127,0.3031685 -0.016536,0.6515363 -0.016536,1.0506163 l 0,0.5170399 z m 4.340269,7.4414066 -1.2655902,2.170686 2.5322832,0 z m 2.893881,0 -1.265591,2.170686 2.532283,0 z m -7.59133751,1.86862 -0.4519964,-0.775009 c 0.082682,0.371519 0.2215885,0.615157 0.4519964,0.775009 z"
     style="fill:#ffffff;fill-opacity:0.05100002" />
  <path
     d="m 6.1918731,9.8558208 c -0.864413,-0.09947 -1.550237,-0.530802 -1.740924,-1.094904 -0.09163,-0.271072 -0.09393,-0.870463 -0.0047,-1.215914 0.241561,-0.93482 0.872152,-1.480406 1.840025,-1.591989 0.507745,-0.05853 1.146664,-0.02518 1.492013,0.0779 0.697265,0.208112 1.374083,0.752642 1.63557,1.315888 0.188587,0.406219 0.185417,0.542519 -0.02248,0.966533 -0.402459,0.820823 -1.212784,1.324595 -2.427537,1.509178 -0.431941,0.06563 -0.474962,0.06749 -0.771999,0.03331 z"
     fill="#dfd632"
     id="path28"
     style="fill:#f9f9f9;fill-opacity:1" />
  <path
     d="m 9.4836571,7.1756618 c -0.192652,-0.33136 -0.69111,-0.757166 -1.200978,-1.025932 -0.252466,-0.133082 -0.45903,-0.251653 -0.45903,-0.263493 0,-0.05896 0.969963,-1.605374 1.050231,-1.67439 0.17941,-0.154262 0.324939,-0.104867 0.60276,0.204586 0.5380109,0.599267 0.7554909,1.280493 0.6625079,2.075208 -0.05795,0.495271 -0.130082,0.703057 -0.2810749,0.809662 -0.166345,0.117442 -0.249266,0.08962 -0.374416,-0.125641 z"
     fill="#48e02a"
     id="path30"
     style="fill:#f9f9f9;fill-opacity:1" />
  <path
     d="m 3.8121981,7.0681948 c -0.476813,-0.120338 -0.562193,-0.715159 -0.209115,-1.456866 0.424841,-0.892461 1.033821,-1.430696 1.977819,-1.748061 0.786945,-0.264564 1.361317,-0.258853 1.595751,0.01587 0.09219,0.108029 0.1029,0.167559 0.101454,0.563704 -0.0018,0.499215 -0.06727,1.327138 -0.108163,1.368362 -0.01481,0.01493 -0.23739,0.02228 -0.494615,0.01632 -1.002775,-0.02321 -1.743597,0.338394 -2.099376,1.024737 l -0.129175,0.249195 -0.271963,-0.0052 c -0.149579,-0.0028 -0.312757,-0.01548 -0.362617,-0.02807 z"
     fill="#47bcd4"
     id="path32"
     style="fill:#f9f9f9;fill-opacity:1" />
</svg>
