<svg xmlns="http://www.w3.org/2000/svg" viewBox="0 0 48 48"><defs><radialGradient id="0" cx="24" cy="24" r="23.437" gradientUnits="userSpaceOnUse"><stop stop-color="#e87e0b"/><stop offset="1" stop-color="#c85e00"/></radialGradient></defs><path d="m 47.44 11.547 l 0 24.906 c 0 10.25 0 10.984 -10.984 10.984 l -24.902 0 c -10.988 0 -10.988 -0.734 -10.988 -10.984 l 0 -24.906 c 0 -10.25 0 -10.984 10.988 -10.984 l 24.902 0 c 10.984 0 10.984 0.734 10.984 10.984" fill="url(#0)"/><path d="m 20.84 27.984 c -1.02 -0.074 -1.844 -0.387 -2.516 -0.945 c -0.301 -0.25 -0.625 -0.648 -0.816 -1 c -0.047 -0.082 -0.105 -0.16 -0.113 -0.172 l 0 1.949 l -2.867 0 l -0.008 -2.25 c -0.008 -2.332 -0.008 -2.445 -0.074 -2.727 c -0.117 -0.512 -0.539 -0.707 -0.984 -0.707 c -0.516 -0.016 -0.906 0.211 -1.137 0.73 c -0.098 0.277 -0.09 0.121 -0.098 2.645 l -0.004 2.313 l -2.879 0 c -0.043 -2.125 0.043 -4.25 -0.035 -6.367 c -0.031 -0.344 -0.098 -0.629 -0.234 -1.031 l -0.074 -0.227 l 2.801 0.012 l 0.07 0.156 c 0.043 0.094 0.082 0.215 0.098 0.293 c 0.016 0.074 0.031 0.141 0.039 0.141 c 0.008 0 0.102 -0.07 0.215 -0.145 c 0.43 -0.313 0.871 -0.492 1.43 -0.578 c 0.297 -0.047 1.043 -0.043 1.355 0.008 c 0.688 0.117 1.25 0.375 1.68 0.777 c 0.313 0.297 0.539 0.754 0.641 1.289 l 0.035 0.191 l 0.074 -0.148 c 0.141 -0.293 0.313 -0.543 0.543 -0.797 c 0.688 -0.77 1.637 -1.219 2.859 -1.359 c 0.281 -0.031 1.027 -0.031 1.324 0.004 c 0.621 0.078 1.137 0.234 1.602 0.496 c 0.367 0.207 0.641 0.426 0.93 0.742 c 0.27 0.297 0.504 0.668 0.66 1.02 l 0.055 0.121 l 0 -0.355 c 0 -0.75 -0.035 -1.164 -0.141 -1.598 l -0.066 -0.277 l 2.832 0.023 l 0.035 0.129 c 0.059 0.195 0.102 0.449 0.113 0.664 l 0.012 0.199 l 0.102 -0.148 c 0.336 -0.492 0.75 -0.797 1.27 -0.938 c 0.25 -0.07 0.477 -0.09 0.82 -0.082 c 0.289 0.004 0.477 0.035 0.809 0.121 l 0.086 0.02 c 0 0.301 0 0.605 0 0.906 c 0.004 0 0.078 -0.043 0.141 -0.09 c 1.074 -0.832 2.613 -1.172 4.07 -0.902 c 0.805 0.148 1.563 0.484 2.137 0.949 c 0.996 0.805 1.488 2.02 1.363 3.379 c -0.086 0.93 -0.488 1.762 -1.156 2.375 c -0.883 0.813 -2.145 1.246 -3.523 1.207 c -0.898 -0.027 -1.66 -0.227 -2.363 -0.625 c -0.574 -0.316 -1.063 -0.785 -1.426 -1.359 c -0.645 -1.043 -0.73 -2.445 -0.219 -3.613 c 0.039 -0.094 0.074 -0.172 0.074 -0.176 c -0.289 -0.105 -0.598 -0.102 -0.887 -0.035 c -0.18 0.059 -0.293 0.121 -0.449 0.25 c -0.375 0.305 -0.598 0.75 -0.688 1.398 c -0.051 0.34 -0.059 0.668 -0.059 2.32 l 0 1.66 l -2.875 0 l 0 -1.855 l -0.086 0.152 c -0.129 0.234 -0.277 0.438 -0.469 0.641 c -0.684 0.734 -1.652 1.137 -2.949 1.23 c -0.27 0.02 -0.797 0.02 -1.066 0 m 2.113 -2.559 l 2.457 0.047 l 0 -0.863 l -5.566 0 l 0.012 0.113 c 0.008 0.063 0.027 0.184 0.047 0.27 c 0.137 0.578 0.547 0.938 1.199 1.051 c 0.734 0.074 1.348 0.035 1.852 -0.617 m 12.293 0.445 c 0.473 -0.316 0.762 -0.914 0.816 -1.688 c 0.039 -0.563 -0.09 -1.156 -0.352 -1.566 c -0.082 -0.137 -0.266 -0.336 -0.371 -0.414 c -0.383 -0.285 -0.852 -0.32 -1.297 -0.219 c -0.688 0.227 -1.105 0.922 -1.141 1.887 c -0.023 0.707 0.156 1.313 0.52 1.719 c 0.23 0.254 0.434 0.379 0.754 0.453 c 0.363 0.063 0.738 0.016 1.07 -0.172 m -12.523 -2.941 c 0.023 -0.027 -0.066 -0.363 -0.137 -0.512 c -0.074 -0.152 -0.262 -0.332 -0.441 -0.426 c -0.523 -0.273 -1.313 -0.219 -1.754 0.117 c -0.223 0.176 -0.398 0.445 -0.492 0.77 l -0.02 0.074 l 1.414 -0.008 c 0.781 -0.004 1.422 -0.012 1.43 -0.016 m 0 0" fill="#fff"/><path d="m 38.27 47.44 c 2.543 -0.012 4.379 -0.082 5.711 -0.441 l -4.23 -7.25 -4.484 7.691 1.191 0 c 0.641 0 1.242 0 1.813 0 z m 1.48 -7.691 -5.125 -8.789 -5.129 8.789 z m 0 0 7.652 0 c 0.031 -0.973 0.039 -2.063 0.039 -3.297 l 0 -1.098 -2.563 -4.395 z m 5.129 -8.789 -5.129 -8.789 -5.125 8.789 z m 0 0 2.563 0 0 -4.395 z m -10.254 0 -5.129 -8.789 -5.125 8.789 z m -10.254 0 -5.129 8.789 10.254 0 z m 0 0 -5.129 -8.789 -5.125 8.789 z m -10.254 0 -5.129 8.789 10.254 0 z m 0 0 -5.129 -8.789 -5.125 8.789 z m -10.254 0 -3.297 5.648 c 0 1.168 0.012 2.211 0.039 3.141 l 8.383 0 z m 0 0 -3.297 -5.648 0 5.648 z m 5.125 8.789 -4.313 7.395 c 1.598 0.293 3.809 0.297 6.879 0.297 l 1.922 0 z m 0 -17.578 -5.125 -8.789 -3.297 5.648 0 3.141 z m 0 0 10.254 0 -5.125 -8.789 z m 5.129 -8.789 -5.129 -8.789 -5.125 8.789 z m 0 0 10.254 0 -5.129 -8.789 z m 5.125 -8.789 -2.352 -4.03 -5.336 0 c -0.078 0 -0.141 0 -0.215 0 l -2.352 4.03 z m 0 0 10.254 0 -2.352 -4.03 -5.551 0 z m 10.254 0 10.254 0 l -2.352 -4.03 c -0.313 0 -0.609 0 -0.941 0 l -4.609 0 z m 0 0 -5.125 8.789 10.254 0 z m 5.129 8.789 10.254 0 -5.129 -8.789 z m 0 0 -5.129 8.789 10.254 0 z m 5.125 8.789 7.691 0 0 -4.395 -2.563 -4.395 z m 5.129 -8.789 2.563 0 0 -1.832 c 0 -0.914 -0.008 -1.75 -0.023 -2.523 z m -15.383 8.789 -5.125 -8.789 -5.129 8.789 z m 10.254 -17.578 7.309 0 c -0.555 -2.758 -1.887 -3.629 -5.03 -3.902 z m -30.762 0 l -2.305 -3.953 c -3.66 0.207 -5.141 0.996 -5.734 3.953 z m -5.125 8.789 l -3.238 -5.555 c -0.043 1.074 -0.059 2.309 -0.059 3.723 l 0 1.832 z m 15.379 26.367 -4.484 7.691 8.973 0 z m 10.254 0 -4.484 7.691 8.973 0 z m -26.898 6.621 -1.602 -2.746 c 0.293 1.316 0.785 2.18 1.602 2.746 z" fill="#fff" fill-opacity="0.065"/></svg>