<?xml version="1.0" encoding="UTF-8" standalone="no"?>
<svg
   xmlns:dc="http://purl.org/dc/elements/1.1/"
   xmlns:cc="http://creativecommons.org/ns#"
   xmlns:rdf="http://www.w3.org/1999/02/22-rdf-syntax-ns#"
   xmlns:svg="http://www.w3.org/2000/svg"
   xmlns="http://www.w3.org/2000/svg"
   xmlns:xlink="http://www.w3.org/1999/xlink"
   xmlns:sodipodi="http://sodipodi.sourceforge.net/DTD/sodipodi-0.dtd"
   xmlns:inkscape="http://www.inkscape.org/namespaces/inkscape"
   width="48"
   viewBox="0 0 13.546667 13.546667"
   height="48"
   id="svg2"
   version="1.1"
   inkscape:version="0.48.4 r9939"
   sodipodi:docname="netactview.svg">
  <metadata
     id="metadata26">
    <rdf:RDF>
      <cc:Work
         rdf:about="">
        <dc:format>image/svg+xml</dc:format>
        <dc:type
           rdf:resource="http://purl.org/dc/dcmitype/StillImage" />
        <dc:title />
      </cc:Work>
    </rdf:RDF>
  </metadata>
  <sodipodi:namedview
     pagecolor="#ffffff"
     bordercolor="#666666"
     borderopacity="1"
     objecttolerance="10"
     gridtolerance="10"
     guidetolerance="10"
     inkscape:pageopacity="0"
     inkscape:pageshadow="2"
     inkscape:window-width="1280"
     inkscape:window-height="998"
     id="namedview24"
     showgrid="false"
     inkscape:zoom="11.081706"
     inkscape:cx="24.541434"
     inkscape:cy="23.639044"
     inkscape:window-x="0"
     inkscape:window-y="0"
     inkscape:window-maximized="1"
     inkscape:current-layer="svg2" />
  <defs
     id="defs4">
    <linearGradient
       id="linearGradient4460">
      <stop
         offset="0"
         style="stop-color:#dedede"
         id="stop7" />
      <stop
         offset="1"
         style="stop-color:#f9f9f9"
         id="stop9" />
    </linearGradient>
    <linearGradient
       gradientTransform="matrix(1.10525 0 0 1.10525 -134.27874 -295.76183)"
       xlink:href="#linearGradient4460"
       id="linearGradient3002"
       y1="279.096"
       y2="268.33"
       gradientUnits="userSpaceOnUse"
       x2="0" />
    <linearGradient
       gradientTransform="matrix(0.28222223,0,0,0.28222223,0,-283.45334)"
       xlink:href="#linearGradient4460"
       id="1"
       y1="1050.36"
       x2="0"
       y2="1006.36"
       gradientUnits="userSpaceOnUse" />
    <linearGradient
       id="0">
      <stop
         stop-color="#99bfe6"
         id="stop7-3" />
      <stop
         offset="1"
         stop-color="#dde9f0"
         id="stop9-0" />
    </linearGradient>
    <radialGradient
       r="128"
       cy="160"
       cx="148.004"
       gradientTransform="matrix(0.05167489,0,0,0.05167489,-0.87510911,-1.4947608)"
       gradientUnits="userSpaceOnUse"
       id="radialGradient3011"
       xlink:href="#radial0"
       inkscape:collect="always" />
    <radialGradient
       cx="148.004"
       cy="160"
       gradientTransform="matrix(0.1831,0,0,0.1831,-3.10029,-5.29688)"
       id="radial0"
       r="128"
       gradientUnits="userSpaceOnUse">
      <stop
         offset="0"
         style="stop-color:#c77b9c;stop-opacity:1;"
         id="stop7-3-7" />
      <stop
         offset="1"
         style="stop-color:#74314e;stop-opacity:1;"
         id="stop9-4" />
    </radialGradient>
    <radialGradient
       r="128"
       cy="160"
       cx="148.004"
       gradientTransform="matrix(0.05167489,0,0,0.05167489,-0.87510911,-1.4947602)"
       gradientUnits="userSpaceOnUse"
       id="radialGradient3012"
       xlink:href="#radial0"
       inkscape:collect="always" />
  </defs>
  <path
     inkscape:connector-curvature="0"
     style="fill:url(#radialGradient3012)"
     d="m 13.387779,3.2589219 0,7.0290971 c 0,2.892777 0,3.100034 -3.100035,3.100034 l -7.0279943,0 c -3.10113781,0 -3.10113781,-0.207257 -3.10113781,-3.100034 l 0,-7.0290971 c 0,-2.89277789 0,-3.10003479 3.10113781,-3.10003479 l 7.0279943,0 c 3.100035,0 3.100035,0.2072569 3.100035,3.10003479 z"
     id="path11" />
  <path
     id="path15"
     d="m 10.799272,13.388053 c 0.717682,-0.0033 1.235825,-0.02315 1.611753,-0.124574 l -1.193932,-2.04611 -1.2655901,2.170684 0.3362411,0 c 0.180799,0 0.350573,0 0.511528,0 z M 11.217093,11.217369 9.7707038,8.7368994 8.3232128,11.217369 z m 0,0 2.159662,0 c 0.0088,-0.274506 0.01102,-0.582084 0.01102,-0.930452 l 0,-0.3097833 -0.723194,-1.2402343 z M 12.664585,8.7368994 11.217093,6.2564307 9.7707038,8.7368994 z m 0,0 0.723194,0 0,-1.2402343 z m -2.8938812,0 -1.447491,-2.4804687 -1.446389,2.4804687 z m -2.89388,0 -1.447491,2.4804696 2.89388,0 z m 0,0 -1.447491,-2.4804687 -1.4463889,2.4804687 z m -2.8938799,0 -1.4474921,2.4804696 2.893881,0 z m 0,0 L 2.5354518,6.2564307 1.089064,8.7368994 z m -2.8938799,0 -0.93045211,1.5941156 c 0,0.329626 0.0033,0.623975 0.01102,0.886354 l 2.36581591,0 z m 0,0 -0.93045211,-1.5941145 0,1.5941145 z m 1.4463878,2.4804696 -1.2170829,2.086899 c 0.4508939,0.08268 1.0748699,0.08379 1.9402779,0.08379 l 0.5434979,0 z m 0,-4.9609383 -1.4463878,-2.4804689 -0.93045211,1.5941147 0,0.8863542 z m 0,0 2.893881,0 L 3.9829439,3.7759618 z M 3.9829439,3.7759618 2.5354518,1.2954931 1.089064,3.7759618 z m 0,0 2.8938799,0 -1.447491,-2.4804687 z m 1.4463889,-2.4804687 -0.663663,-1.13660599 -1.507023,0 c -0.020949,0 -0.03858,0 -0.05953,0 L 2.5354528,1.2954931 z m 0,0 2.89388,0 -0.6636631,-1.13660599 -1.5665538,0 z m 2.89388,0 2.8938802,0 -0.663663,-1.13660599 c -0.0882,0 -0.171979,0 -0.266788,0 l -1.2997662,0 z m 0,0 -1.446389,2.4804687 2.89388,0 z m 1.447491,2.4804687 2.8938812,0 -1.447492,-2.4804687 z m 0,0 -1.447491,2.4804689 2.8938802,0 z m 1.4463892,2.4804689 2.170686,0 0,-1.2402343 -0.723194,-1.2402346 z m 1.447492,-2.4804689 0.723194,0 0,-0.5170399 c 0,-0.2579689 -0.0022,-0.4938889 -0.0066,-0.71217 z M 8.3232128,6.2564307 6.8768238,3.7759618 5.4293328,6.2564307 z m 2.8938802,-4.9609376 2.062648,0 C 13.123196,0.51717691 12.747267,0.27133511 11.85981,0.19416491 z m -8.6816412,0 -0.650433,-1.11565979 C 0.85204099,0.23826231 0.43421989,0.46095291 0.26664989,1.2954931 z M 1.089064,3.7759618 0.17514889,2.2083056 c -0.01213,0.3031685 -0.01654,0.6515364 -0.01654,1.0506163 l 0,0.5170399 z m 4.3402688,7.4414072 -1.2655911,2.170684 2.5322832,0 z m 2.89388,0 -1.2655901,2.170684 2.532283,0 z m -7.59133681,1.868619 -0.4519961,-0.775009 c 0.08268,0.371519 0.221588,0.615157 0.4519961,0.775009 z"
     style="fill:#ffffff;fill-opacity:0.05100002"
     inkscape:connector-curvature="0" />
  <path
     style="color:#000000;fill:#f9f9f9;fill-opacity:1"
     inkscape:connector-curvature="0"
     id="path30"
     d="m 3.2543773,3.6688898 c -0.08263,0.0088 -0.1503744,0.084436 -0.1499305,0.1675694 l 0,3.0515279 c 9e-6,0.08873 0.078905,0.1675553 0.1675694,0.1675694 l 1.525764,0 0,0.5644445 -1.128889,0 0,0.5644444 2.0549307,0 0,-1.6933333 -1.9314584,0 C 3.7332535,6.4910979 3.6777166,6.4356141 3.6777107,6.3764593 l 0,-2.0284723 c -9.313e-4,-0.05272 0.036444,-0.1048238 0.088194,-0.1146528 0.007,-0.00141 0.019417,-0.00141 0.026458,0 l 3.1397223,0 c 0.05911,1.41e-5 0.1146477,0.055498 0.1146528,0.1146528 l 0,0.8113889 0.5732639,0 0,-1.3229167 c -9e-6,-0.08871 -0.078906,-0.1675415 -0.1675695,-0.1675694 l -4.1804167,0 z" />
  <path
     style="color:#000000;fill:#f9f9f9;fill-opacity:1"
     inkscape:connector-curvature="0"
     id="path32"
     d="m 6.0783661,5.3622234 c -0.08263,0.0088 -0.152139,0.08633 -0.151695,0.1694629 l 0,3.0503499 c 9e-6,0.08873 0.08067,0.169449 0.1693341,0.1694628 l 1.5239989,0 -1.1e-6,0.8438408 1.1288892,0 0,-0.8438408 1.5239998,0 c 0.08866,-1.38e-5 0.169323,-0.08074 0.169332,-0.1694628 l 0,-3.0503499 c -9e-6,-0.08871 -0.08067,-0.1694349 -0.169332,-0.1694629 l -4.1768868,0 z M 6.590064,5.9271 c 0.007,-0.00141 0.014131,-0.00141 0.02117,0 l 3.146056,0 c 0.05911,1.41e-5 0.1128829,0.05382 0.112888,0.1129749 l 0,2.0333872 c -5.1e-6,0.05916 -0.05378,0.1129609 -0.112888,0.112975 l -3.146056,0 C 6.552124,8.186423 6.4983511,8.1326171 6.4983451,8.0734621 l 0,-2.0333872 c -9.313e-4,-0.05272 0.03997,-0.103146 0.09172,-0.1129749 z m -0.09895,3.385802 0,0.5648765 3.386667,0 0,-0.5648765 z" />
</svg>
