<?xml version="1.0" encoding="UTF-8" standalone="no"?>
<svg
   xmlns:dc="http://purl.org/dc/elements/1.1/"
   xmlns:cc="http://creativecommons.org/ns#"
   xmlns:rdf="http://www.w3.org/1999/02/22-rdf-syntax-ns#"
   xmlns:svg="http://www.w3.org/2000/svg"
   xmlns="http://www.w3.org/2000/svg"
   xmlns:xlink="http://www.w3.org/1999/xlink"
   xmlns:sodipodi="http://sodipodi.sourceforge.net/DTD/sodipodi-0.dtd"
   xmlns:inkscape="http://www.inkscape.org/namespaces/inkscape"
   width="48"
   viewBox="0 0 13.546667 13.546667"
   height="48"
   id="svg2"
   version="1.1"
   inkscape:version="0.48.4 r9939"
   sodipodi:docname="nvidia-current-updates-settings.svg">
  <metadata
     id="metadata44">
    <rdf:RDF>
      <cc:Work
         rdf:about="">
        <dc:format>image/svg+xml</dc:format>
        <dc:type
           rdf:resource="http://purl.org/dc/dcmitype/StillImage" />
      </cc:Work>
    </rdf:RDF>
  </metadata>
  <sodipodi:namedview
     pagecolor="#ffffff"
     bordercolor="#666666"
     borderopacity="1"
     objecttolerance="10"
     gridtolerance="10"
     guidetolerance="10"
     inkscape:pageopacity="0"
     inkscape:pageshadow="2"
     inkscape:window-width="672"
     inkscape:window-height="480"
     id="namedview42"
     showgrid="false"
     inkscape:zoom="2.4583333"
     inkscape:cx="59.010058"
     inkscape:cy="4.9380199"
     inkscape:window-x="0"
     inkscape:window-y="0"
     inkscape:window-maximized="0"
     inkscape:current-layer="svg2" />
  <defs
     id="defs4">
    <linearGradient
       xlink:href="#2"
       id="0"
       y1="42"
       y2="19"
       x2="0"
       gradientUnits="userSpaceOnUse" />
    <linearGradient
       gradientTransform="matrix(.67324 0 0 .67324 2.21393 2.09317)"
       xlink:href="#3"
       id="1"
       y1="14.08"
       y2="0.245"
       gradientUnits="userSpaceOnUse"
       x2="0" />
    <linearGradient
       id="2">
      <stop
         stop-color="#2d2d2d"
         id="stop9" />
      <stop
         offset="1"
         stop-color="#4b4b4b"
         id="stop11" />
    </linearGradient>
    <linearGradient
       id="3">
      <stop
         stop-color="#619603"
         id="stop14" />
      <stop
         offset="1"
         stop-color="#ddfda4"
         id="stop16" />
    </linearGradient>
    <linearGradient
       xlink:href="#3"
       id="4"
       gradientUnits="userSpaceOnUse"
       gradientTransform="matrix(0.28222223,0,0,0.28222223,3.4440679,-283.16633)"
       y1="1050.36"
       x2="0"
       y2="1006.36" />
    <linearGradient
       xlink:href="#2"
       id="5"
       gradientUnits="userSpaceOnUse"
       gradientTransform="matrix(0.28222223,0,0,0.28222223,-4.7642934,-283.62554)"
       y1="1050.36"
       x2="0"
       y2="1006.36" />
    <radialGradient
       r="128"
       cy="160"
       cx="148.004"
       gradientTransform="matrix(0.05167489,0,0,0.05167489,-0.87510811,-1.4947615)"
       gradientUnits="userSpaceOnUse"
       id="radialGradient3009"
       xlink:href="#radial0"
       inkscape:collect="always" />
    <radialGradient
       cx="148.004"
       cy="160"
       gradientTransform="matrix(0.1831,0,0,0.1831,-3.10029,-5.29688)"
       id="radial0"
       r="128"
       gradientUnits="userSpaceOnUse">
      <stop
         offset="0"
         style="stop-color:#bded7d;stop-opacity:1;"
         id="stop7-6" />
      <stop
         offset="1"
         style="stop-color:#6ab700;stop-opacity:1;"
         id="stop9-6" />
    </radialGradient>
    <radialGradient
       r="128"
       cy="160"
       cx="148.004"
       gradientTransform="matrix(0.05167489,0,0,0.05167489,-0.87510811,-1.4947608)"
       gradientUnits="userSpaceOnUse"
       id="radialGradient3027"
       xlink:href="#radial0"
       inkscape:collect="always" />
  </defs>
  <path
     inkscape:connector-curvature="0"
     style="fill:url(#radialGradient3027)"
     d="m 13.38778,3.2589212 0,7.0290968 c 0,2.892777 0,3.100035 -3.100035,3.100035 l -7.027995,0 c -3.10113711,0 -3.10113711,-0.207258 -3.10113711,-3.100035 l 0,-7.0290968 c 0,-2.89277789 0,-3.10003479 3.10113711,-3.10003479 l 7.027995,0 c 3.100035,0 3.100035,0.2072569 3.100035,3.10003479 z"
     id="path11" />
  <path
     id="path15"
     d="m 10.799273,13.388053 c 0.717682,-0.0033 1.235825,-0.02315 1.611753,-0.124575 l -1.193932,-2.046111 -1.2655899,2.170686 0.3362409,0 c 0.180799,0 0.350573,0 0.511528,0 z M 11.217094,11.217367 9.7707051,8.7368987 8.3232141,11.217367 z m 0,0 2.159662,0 c 0.0088,-0.274505 0.01102,-0.582083 0.01102,-0.930451 l 0,-0.309783 -0.723194,-1.2402343 z M 12.664586,8.7368987 11.217094,6.25643 9.7707051,8.7368987 z m 0,0 0.723194,0 0,-1.2402343 z m -2.8938809,0 L 8.3232141,6.25643 6.8768251,8.7368987 z m -2.89388,0 -1.447492,2.4804683 2.893881,0 z m 0,0 L 5.4293331,6.25643 3.9829441,8.7368987 z m -2.893881,0 -1.4474912,2.4804683 2.8938802,0 z m 0,0 L 2.5354529,6.25643 1.089064,8.7368987 z m -2.8938801,0 -0.93045111,1.5941133 c 0,0.329628 0.0033,0.623977 0.01102,0.886355 l 2.36581601,0 z m 0,0 -0.93045111,-1.5941145 0,1.5941145 z m 1.4463889,2.4804683 -1.217083,2.086901 c 0.450894,0.08268 1.07487,0.08379 1.940278,0.08379 l 0.5434982,0 z m 0,-4.960937 -1.4463889,-2.4804689 -0.93045111,1.5941147 0,0.8863542 z m 0,0 2.8938802,0 -1.446389,-2.4804689 z M 3.9829441,3.7759611 2.5354529,1.2954925 1.089064,3.7759611 z m 0,0 2.893881,0 -1.447492,-2.4804686 z m 1.446389,-2.4804686 -0.663663,-1.13660609 -1.5070222,0 c -0.020949,0 -0.03858,0 -0.05953,0 L 2.5354539,1.2954925 z m 0,0 2.893881,0 -0.663663,-1.13660609 -1.566554,0 z m 2.893881,0 2.8938799,0 -0.663663,-1.13660609 c -0.0882,0 -0.171979,0 -0.266788,0 l -1.2997659,0 z m 0,0 -1.446389,2.4804686 2.89388,0 z m 1.447491,2.4804686 2.8938809,0 -1.447492,-2.4804686 z m 0,0 -1.447491,2.4804689 2.8938799,0 z m 1.4463889,2.4804689 2.170686,0 0,-1.2402343 -0.723194,-1.2402346 z m 1.447492,-2.4804689 0.723194,0 0,-0.5170399 c 0,-0.2579689 -0.0022,-0.4938889 -0.0066,-0.71217 z M 8.3232141,6.25643 6.8768251,3.7759611 5.4293331,6.25643 z m 2.8938799,-4.9609375 2.062648,0 C 13.123197,0.51717631 12.747268,0.27133441 11.859811,0.19416411 z m -8.6816411,0 -0.650434,-1.11565989 C 0.85204189,0.23826161 0.43421989,0.46095231 0.26665089,1.2954925 z M 1.089064,3.7759611 0.17514889,2.208305 c -0.01213,0.3031684 -0.01654,0.6515362 -0.01654,1.0506162 l 0,0.5170399 z m 4.3402691,7.4414059 -1.26559,2.170686 2.532283,0 z m 2.893881,0 -1.265591,2.170686 2.532284,0 z m -7.59133721,1.86862 -0.451997,-0.775009 c 0.08268,0.371519 0.221589,0.615157 0.451997,0.775009 z"
     style="fill:#ffffff;fill-opacity:0.05100002"
     inkscape:connector-curvature="0" />
  <path
     d="m 6.7740312,4.7472914 c 0.011792,-9.088e-4 0.02383,-0.00512 0.035626,-0.00594 0,0 0.056572,-0.00514 -0.035626,0.00594 z m 0,0 C 5.1783453,4.8754427 3.7992757,6.2257627 3.7992757,6.2257627 c 0,0 0.7798972,2.2629055 2.9747555,2.4700566 l 0,-0.4096969 C 5.1633401,8.0834915 4.6127318,6.3088896 4.6127318,6.3088896 c 0,0 0.7206639,-1.0655193 2.1612994,-1.1756518 z m 0,0.8609572 c -4.5160208,5.2922794 -2.2580104,2.6461395 0,0 z m 0,0 C 5.8032948,5.7132511 5.2183707,6.3623283 5.2183707,6.3623283 c 0,0 0.338336,1.2614448 1.5556605,1.4784714 l 0,-0.3740711 C 6.0877475,7.2361395 5.865573,6.43358 5.865573,6.43358 c 0,0 0.3989637,-0.4767766 0.9084582,-0.4156345 z"
     id="path38"
     style="fill:#f9f9f9;fill-opacity:1"
     inkscape:connector-curvature="0"
     sodipodi:nodetypes="ccccccccccccccccccc" />
  <path
     d="m 39.46875,26.15625 c -26.3125,14.5625 -13.15625,7.28125 0,0 z m 0,0 C 39.013081,25.694445 36.791439,24.65238 36.25,24.21875 32.98431,27.037631 29.601099,29.4375 24.9375,29.4375 24.608405,29.4375 24.306889,29.409724 24,29.375 l 0,1.4375 c 0.334057,0.02963 0.678804,0.0625 1.03125,0.0625 4.10262,0 11.33245,-2.119129 14.4375,-4.71875 z M 24.375,16.78125 c -0.124875,0.0043 -0.250761,0.0226 -0.375,0.03125 l 0,1.375 c 0.12406,-0.0076 0.247926,-0.02721 0.375,-0.03125 4.622361,-0.145188 7.65625,3.96875 7.65625,3.96875 0,0 -3.269267,4.53125 -6.78125,4.53125 -0.455626,0 -0.87423,-0.07404 -1.25,-0.1875 l 0,1.3125 c 0.368055,0.05902 0.743076,0.125 1.15625,0.125 5.011573,0 9.8125,-5.84375 9.8125,-5.84375 0,0 -4.165755,-5.497895 -10.59375,-5.28125 z m 0.4375,3.03125 C 24.534341,19.812401 24.262811,19.849524 24,19.875 l 0,1.4375 c 1.68205,0.241172 2.071091,1.086869 3.125,2.84375 L 29.53125,22.125 c 0,0 -1.757864,-2.3125 -4.71875,-2.3125 z"
     transform="scale(.28222)"
     fill="url(#0)"
     fill-rule="evenodd"
     id="path40"
     style="fill:#f9f9f9;fill-opacity:1" />
</svg>
