<svg xmlns="http://www.w3.org/2000/svg" viewBox="0 0 48 48"><defs><radialGradient id="0" cx="24" cy="24" r="23.437" gradientUnits="userSpaceOnUse"><stop stop-color="#eee"/><stop offset="1" stop-color="#cecece"/></radialGradient></defs><path d="m 47.44 11.547 l 0 24.906 c 0 10.25 0 10.984 -10.984 10.984 l -24.902 0 c -10.988 0 -10.988 -0.734 -10.988 -10.984 l 0 -24.906 c 0 -10.25 0 -10.984 10.988 -10.984 l 24.902 0 c 10.984 0 10.984 0.734 10.984 10.984" fill="url(#0)"/><path d="m 36.18 16 c -1.582 -0.023 -3.086 0.391 -4.379 1.133 c -1.012 -0.57 -2.164 -0.941 -3.398 -1.059 c -1.699 -0.156 -3.328 0.191 -4.738 0.922 c -0.016 0.008 -0.031 0.016 -0.043 0.023 c -0.035 0.027 -0.059 0.07 -0.059 0.117 c 0 0.082 0.066 0.141 0.145 0.141 c 0.008 0 0.02 0 0.027 0 c 0.004 0 0.008 -0.004 0.008 -0.004 c 0.762 -0.137 1.551 -0.176 2.359 -0.102 c 2.258 0.211 4.23 0.906 5.613 2.461 c 0.07 0.074 0.133 0.066 0.203 -0.004 c 1.742 -1.996 4.406 -2.789 7.27 -2.52 c 0.16 0.016 0.32 0.031 0.477 0.059 c 0.055 0.008 0.141 0.02 0.191 0.023 c 0.094 0.012 0.145 -0.063 0.145 -0.141 c 0 -0.063 -0.023 -0.105 -0.078 -0.129 c -0.055 -0.027 -0.109 -0.063 -0.164 -0.082 c -0.887 -0.43 -1.863 -0.699 -2.898 -0.809 c -0.227 -0.02 -0.457 -0.039 -0.684 -0.043 m 0.004 0.004" fill="#fff"/><path d="m 30.938 22.84 c -3.191 0 -6.141 1.012 -8.555 2.711 c -1.844 -0.82 -3.883 -1.277 -6.03 -1.277 c -3.055 0 -5.887 0.922 -8.242 2.5 c -0.004 0.004 -0.016 0.012 -0.02 0.016 c -0.055 0.039 -0.082 0.098 -0.082 0.168 c 0 0.121 0.098 0.219 0.215 0.219 c 0.016 0 0.031 -0.004 0.043 -0.004 c 0.012 0 0.02 -0.004 0.023 -0.008 c 1.352 -0.406 2.785 -0.621 4.27 -0.621 c 3.934 0 7.449 0.926 10.09 3.391 c 0.008 0.004 0.016 0.012 0.023 0.016 c 0.039 0.035 0.086 0.047 0.145 0.047 c 0.066 0 0.125 -0.02 0.164 -0.07 c 0 0 0.086 -0.113 0.129 -0.18 c 2.691 -3.641 7.121 -5.438 12.04 -5.438 c 0.352 0 0.703 0.008 1.051 0.035 c 0.098 0.004 0.313 0.023 0.316 0.023 c 0.117 0 0.215 -0.098 0.215 -0.219 c 0 -0.086 -0.051 -0.156 -0.125 -0.188 c -0.008 -0.004 -0.016 -0.008 -0.023 -0.012 c -1.742 -0.711 -3.641 -1.113 -5.633 -1.113 m -0.008 0.004" fill="#fff"/><path d="m 38.27 47.44 c 2.543 -0.012 4.379 -0.082 5.711 -0.441 l -4.23 -7.25 -4.484 7.691 1.191 0 c 0.641 0 1.242 0 1.813 0 z m 1.48 -7.691 -5.125 -8.789 -5.129 8.789 z m 0 0 7.652 0 c 0.031 -0.973 0.039 -2.063 0.039 -3.297 l 0 -1.098 -2.563 -4.395 z m 5.129 -8.789 -5.129 -8.789 -5.125 8.789 z m 0 0 2.563 0 0 -4.395 z m -10.254 0 -5.129 -8.789 -5.125 8.789 z m -10.254 0 -5.129 8.789 10.254 0 z m 0 0 -5.129 -8.789 -5.125 8.789 z m -10.254 0 -5.129 8.789 10.254 0 z m 0 0 -5.129 -8.789 -5.125 8.789 z m -10.254 0 -3.297 5.648 c 0 1.168 0.012 2.211 0.039 3.141 l 8.383 0 z m 0 0 -3.297 -5.648 0 5.648 z m 5.125 8.789 -4.313 7.395 c 1.598 0.293 3.809 0.297 6.879 0.297 l 1.922 0 z m 0 -17.578 -5.125 -8.789 -3.297 5.648 0 3.141 z m 0 0 10.254 0 -5.125 -8.789 z m 5.129 -8.789 -5.129 -8.789 -5.125 8.789 z m 0 0 10.254 0 -5.129 -8.789 z m 5.125 -8.789 -2.352 -4.03 -5.336 0 c -0.078 0 -0.141 0 -0.215 0 l -2.352 4.03 z m 0 0 10.254 0 -2.352 -4.03 -5.551 0 z m 10.254 0 10.254 0 l -2.352 -4.03 c -0.313 0 -0.609 0 -0.941 0 l -4.609 0 z m 0 0 -5.125 8.789 10.254 0 z m 5.129 8.789 10.254 0 -5.129 -8.789 z m 0 0 -5.129 8.789 10.254 0 z m 5.125 8.789 7.691 0 0 -4.395 -2.563 -4.395 z m 5.129 -8.789 2.563 0 0 -1.832 c 0 -0.914 -0.008 -1.75 -0.023 -2.523 z m -15.383 8.789 -5.125 -8.789 -5.129 8.789 z m 10.254 -17.578 7.309 0 c -0.555 -2.758 -1.887 -3.629 -5.03 -3.902 z m -30.762 0 l -2.305 -3.953 c -3.66 0.207 -5.141 0.996 -5.734 3.953 z m -5.125 8.789 l -3.238 -5.555 c -0.043 1.074 -0.059 2.309 -0.059 3.723 l 0 1.832 z m 15.379 26.367 -4.484 7.691 8.973 0 z m 10.254 0 -4.484 7.691 8.973 0 z m -26.898 6.621 -1.602 -2.746 c 0.293 1.316 0.785 2.18 1.602 2.746 z" fill="#fff" fill-opacity="0.14"/></svg>