<?xml version="1.0" encoding="UTF-8" standalone="no"?>
<svg
   xmlns:dc="http://purl.org/dc/elements/1.1/"
   xmlns:cc="http://creativecommons.org/ns#"
   xmlns:rdf="http://www.w3.org/1999/02/22-rdf-syntax-ns#"
   xmlns:svg="http://www.w3.org/2000/svg"
   xmlns="http://www.w3.org/2000/svg"
   xmlns:xlink="http://www.w3.org/1999/xlink"
   xmlns:sodipodi="http://sodipodi.sourceforge.net/DTD/sodipodi-0.dtd"
   xmlns:inkscape="http://www.inkscape.org/namespaces/inkscape"
   width="48"
   viewBox="0 0 13.546667 13.546667"
   height="48"
   id="svg2"
   version="1.1"
   inkscape:version="0.48.4 r9939"
   sodipodi:docname="pcsx2.svg">
  <metadata
     id="metadata22">
    <rdf:RDF>
      <cc:Work
         rdf:about="">
        <dc:format>image/svg+xml</dc:format>
        <dc:type
           rdf:resource="http://purl.org/dc/dcmitype/StillImage" />
        <dc:title />
      </cc:Work>
    </rdf:RDF>
  </metadata>
  <sodipodi:namedview
     pagecolor="#ffffff"
     bordercolor="#666666"
     borderopacity="1"
     objecttolerance="10"
     gridtolerance="10"
     guidetolerance="10"
     inkscape:pageopacity="0"
     inkscape:pageshadow="2"
     inkscape:window-width="1280"
     inkscape:window-height="998"
     id="namedview20"
     showgrid="true"
     inkscape:zoom="5.6568543"
     inkscape:cx="21.715682"
     inkscape:cy="22.58744"
     inkscape:window-x="0"
     inkscape:window-y="0"
     inkscape:window-maximized="1"
     inkscape:current-layer="svg2"
     showguides="true"
     inkscape:guide-bbox="true">
    <inkscape:grid
       type="xygrid"
       id="grid2989" />
  </sodipodi:namedview>
  <defs
     id="defs4">
    <linearGradient
       id="linearGradient4460">
      <stop
         offset="0"
         style="stop-color:#3d8fe6;stop-opacity:1;"
         id="stop7" />
      <stop
         offset="1"
         style="stop-color:#89d4ec;stop-opacity:1;"
         id="stop9" />
    </linearGradient>
    <linearGradient
       gradientTransform="matrix(1.10525,0,0,1.10525,-134.27874,-295.76183)"
       xlink:href="#linearGradient4460"
       id="linearGradient3006"
       y1="279.096"
       y2="268.33"
       gradientUnits="userSpaceOnUse"
       x2="0" />
    <linearGradient
       inkscape:collect="always"
       xlink:href="#grad"
       id="linearGradient3000"
       gradientUnits="userSpaceOnUse"
       gradientTransform="matrix(1.10525,0,0,1.10525,-134.27874,-295.76183)"
       y1="279.09601"
       x2="0"
       y2="268.32999" />
    <linearGradient
       x1="0"
       y1="0"
       x2="0"
       y2="48"
       id="grad"
       gradientUnits="userSpaceOnUse">
      <stop
         style="stop-color:#06a4ff;stop-opacity:1"
         offset="0"
         id="stop7-9" />
      <stop
         style="stop-color:#75e3ff;stop-opacity:1"
         offset="1"
         id="stop9-0" />
    </linearGradient>
    <linearGradient
       inkscape:collect="always"
       xlink:href="#1"
       id="linearGradient3013"
       gradientUnits="userSpaceOnUse"
       y1="1050.36"
       x2="0"
       y2="1006.36"
       gradientTransform="translate(0,-1004.3622)" />
    <linearGradient
       id="1">
      <stop
         stop-color="#dbdbdb"
         id="stop8" />
      <stop
         offset="1"
         stop-color="#f9f9f9"
         id="stop10" />
    </linearGradient>
    <linearGradient
       y2="1006.36"
       x2="0"
       y1="1050.36"
       gradientTransform="translate(0,-1004.3622)"
       gradientUnits="userSpaceOnUse"
       id="linearGradient3230"
       xlink:href="#1"
       inkscape:collect="always" />
    <linearGradient
       inkscape:collect="always"
       xlink:href="#grad"
       id="linearGradient3027"
       gradientUnits="userSpaceOnUse"
       gradientTransform="matrix(0.28222223,0,0,0.28222223,0,-283.45334)"
       y1="1050.36"
       x2="0"
       y2="1006.36" />
    <radialGradient
       cx="148.004"
       cy="160"
       gradientTransform="matrix(0.1831,0,0,0.1831,-3.10029,-5.29688)"
       id="radial0"
       r="128"
       gradientUnits="userSpaceOnUse">
      <stop
         offset="0"
         style="stop-color:#b8d2e8"
         id="stop7-6" />
      <stop
         offset="1"
         style="stop-color:#013969"
         id="stop9-1" />
    </radialGradient>
    <radialGradient
       r="128"
       cy="160"
       cx="148.004"
       gradientTransform="matrix(0.05167489,0,0,0.05167489,-0.87510811,-1.4947612)"
       gradientUnits="userSpaceOnUse"
       id="radialGradient3013"
       xlink:href="#radial0"
       inkscape:collect="always" />
  </defs>
  <path
     inkscape:connector-curvature="0"
     style="fill:url(#radialGradient3013)"
     d="m 13.387779,3.2589209 0,7.0290971 c 0,2.892778 0,3.100035 -3.100035,3.100035 l -7.0279941,0 c -3.10113801,0 -3.10113801,-0.207257 -3.10113801,-3.100035 l 0,-7.0290971 c 0,-2.89277789 0,-3.10003479 3.10113801,-3.10003479 l 7.0279941,0 c 3.100035,0 3.100035,0.2072569 3.100035,3.10003479 z"
     id="path11" />
  <path
     inkscape:connector-curvature="0"
     style="fill:#ffffff;fill-opacity:0.05100002"
     d="m 10.799272,13.388053 c 0.717682,-0.0033 1.235825,-0.02315 1.611753,-0.124575 l -1.193932,-2.046111 -1.2655901,2.170686 0.3362411,0 c 0.180799,0 0.350573,0 0.511528,0 z M 11.217093,11.217367 9.7707049,8.7368984 8.3232129,11.217367 z m 0,0 2.159662,0 c 0.0088,-0.274505 0.01102,-0.582083 0.01102,-0.930451 l 0,-0.3097833 -0.723194,-1.2402343 z M 12.664585,8.7368984 11.217093,6.2564297 9.7707049,8.7368984 z m 0,0 0.723194,0 0,-1.2402343 z m -2.8938801,0 -1.447492,-2.4804687 -1.446388,2.4804687 z m -2.89388,0 -1.447492,2.4804686 2.89388,0 z m 0,0 -1.447492,-2.4804687 -1.446389,2.4804687 z m -2.893881,0 -1.447491,2.4804686 2.89388,0 z m 0,0 -1.447491,-2.4804687 -1.446389,2.4804687 z m -2.89388,0 -0.93045201,1.5941146 c 0,0.329627 0.0033,0.623976 0.01102,0.886354 l 2.36581601,0 z m 0,0 -0.93045201,-1.5941145 0,1.5941145 z m 1.446389,2.4804686 -1.217084,2.086901 c 0.450894,0.08268 1.07487,0.08379 1.941381,0.08379 l 0.542395,0 z m 0,-4.9609373 -1.446389,-2.4804689 -0.93045201,1.5941147 0,0.8863542 z m 0,0 2.89388,0 -1.446389,-2.4804689 z M 3.9829439,3.7759608 2.5354529,1.2954921 1.0890639,3.7759608 z m 0,0 2.893881,0 -1.447492,-2.4804687 z m 1.446389,-2.4804687 -0.663663,-1.13660599 -1.507023,0 c -0.02095,0 -0.03858,0 -0.05953,0 L 2.5354539,1.2954921 z m 0,0 2.89388,0 -0.663663,-1.13660599 -1.566554,0 z m 2.89388,0 2.8938801,0 -0.663663,-1.13660599 c -0.0882,0 -0.171979,0 -0.266788,0 l -1.2997651,0 z m 0,0 -1.446388,2.4804687 2.89388,0 z m 1.447492,2.4804687 2.8938801,0 -1.447492,-2.4804687 z m 0,0 -1.447492,2.4804689 2.8938801,0 z m 1.4463881,2.4804689 2.170686,0 0,-1.2402343 -0.723194,-1.2402346 z m 1.447492,-2.4804689 0.723194,0 0,-0.5170399 c 0,-0.2579689 -0.0022,-0.4938889 -0.0066,-0.71217 z M 8.3232129,6.2564297 6.8768249,3.7759608 5.4293329,6.2564297 z m 2.8938801,-4.9609376 2.062648,0 C 13.123196,0.51717591 12.747267,0.27133411 11.85981,0.19416381 z m -8.6816401,0 -0.650434,-1.11565979 C 0.85204089,0.23826131 0.43421989,0.46095191 0.26665089,1.2954921 z M 1.0890639,3.7759608 0.17514889,2.2083046 c -0.01213,0.3031685 -0.01654,0.6515363 -0.01654,1.0506163 l 0,0.5170399 z m 4.340269,7.4414062 -1.26559,2.170686 2.532283,0 z m 2.89388,0 -1.26559,2.170686 2.532283,0 z m -7.59133701,1.86862 -0.451996,-0.775009 c 0.08268,0.371519 0.221588,0.615157 0.451996,0.775009 z"
     id="path13" />
  <path
     style="fill:#f9f9f9;fill-opacity:1;stroke:#000000;stroke-width:0;stroke-linecap:butt;stroke-linejoin:miter;stroke-miterlimit:4;stroke-opacity:1;stroke-dasharray:none"
     d="m 12,12 0,4 20,0 c 0,2 0,6 0,6 l -20,0 c 0,4 0.02176,9.981026 0,10 l 0,4 24,0 0,-4 -20,0 0,-6 20,0 0,-10 0,-4 z"
     id="path3765"
     inkscape:connector-curvature="0"
     transform="scale(0.28222223,0.28222223)"
     sodipodi:nodetypes="ccccccccccccccc" />
</svg>
