<?xml version="1.0" encoding="UTF-8" standalone="no"?>
<svg
   xmlns:dc="http://purl.org/dc/elements/1.1/"
   xmlns:cc="http://creativecommons.org/ns#"
   xmlns:rdf="http://www.w3.org/1999/02/22-rdf-syntax-ns#"
   xmlns:svg="http://www.w3.org/2000/svg"
   xmlns="http://www.w3.org/2000/svg"
   xmlns:xlink="http://www.w3.org/1999/xlink"
   xmlns:sodipodi="http://sodipodi.sourceforge.net/DTD/sodipodi-0.dtd"
   xmlns:inkscape="http://www.inkscape.org/namespaces/inkscape"
   width="48"
   viewBox="0 0 13.546667 13.546667"
   height="48"
   id="svg2"
   version="1.1"
   inkscape:version="0.48.4 r9939"
   sodipodi:docname="picard.svg">
  <metadata
     id="metadata74">
    <rdf:RDF>
      <cc:Work
         rdf:about="">
        <dc:format>image/svg+xml</dc:format>
        <dc:type
           rdf:resource="http://purl.org/dc/dcmitype/StillImage" />
      </cc:Work>
    </rdf:RDF>
  </metadata>
  <sodipodi:namedview
     pagecolor="#ffffff"
     bordercolor="#666666"
     borderopacity="1"
     objecttolerance="10"
     gridtolerance="10"
     guidetolerance="10"
     inkscape:pageopacity="0"
     inkscape:pageshadow="2"
     inkscape:window-width="672"
     inkscape:window-height="480"
     id="namedview72"
     showgrid="false"
     inkscape:zoom="6.9532167"
     inkscape:cx="29.228227"
     inkscape:cy="27.258912"
     inkscape:window-x="0"
     inkscape:window-y="0"
     inkscape:window-maximized="0"
     inkscape:current-layer="svg2" />
  <defs
     id="defs4">
    <linearGradient
       id="0">
      <stop
         stop-color="#dadada"
         id="stop7" />
      <stop
         offset="1"
         stop-color="#fafafa"
         id="stop9" />
    </linearGradient>
    <linearGradient
       gradientTransform="matrix(0.28222223,0,0,0.28222223,0,-283.45334)"
       xlink:href="#0"
       id="1"
       y1="1050.36"
       x2="0"
       y2="1006.36"
       gradientUnits="userSpaceOnUse" />
    <radialGradient
       cx="148.004"
       cy="160"
       gradientTransform="matrix(0.1831,0,0,0.1831,-3.10029,-5.29688)"
       id="radial0"
       r="128"
       gradientUnits="userSpaceOnUse">
      <stop
         offset="0"
         style="stop-color:#e5a4b3"
         id="stop22" />
      <stop
         offset="1"
         style="stop-color:#ab3752"
         id="stop24" />
    </radialGradient>
    <radialGradient
       r="128"
       cy="160"
       cx="148.004"
       gradientTransform="matrix(0.05167489,0,0,0.05167489,-0.87511191,-1.4947608)"
       gradientUnits="userSpaceOnUse"
       id="radialGradient3062"
       xlink:href="#radial0"
       inkscape:collect="always" />
  </defs>
  <path
     inkscape:connector-curvature="0"
     style="fill:url(#radialGradient3062)"
     d="m 13.387776,3.2589213 0,7.0290967 c 0,2.892778 0,3.100035 -3.100035,3.100035 l -7.0279949,0 c -3.10113721,0 -3.10113721,-0.207257 -3.10113721,-3.100035 l 0,-7.0290967 c 0,-2.89277779 0,-3.10003479 3.10113721,-3.10003479 l 7.0279949,0 c 3.100035,0 3.100035,0.207257 3.100035,3.10003479 z"
     id="path26" />
  <path
     inkscape:connector-curvature="0"
     style="fill:#ffffff;fill-opacity:0.05100002"
     d="m 10.799269,13.388053 c 0.717682,-0.0033 1.235825,-0.02315 1.611753,-0.124575 l -1.193932,-2.046111 -1.2655897,2.170686 0.3362407,0 c 0.180799,0 0.350573,0 0.511528,0 z M 11.21709,11.217367 9.7707013,8.7368991 8.3232103,11.217367 z m 0,0 2.159662,0 c 0.0088,-0.274505 0.01102,-0.582083 0.01102,-0.930451 l 0,-0.3097829 -0.723194,-1.240234 z M 12.664582,8.7368991 11.21709,6.2564301 9.7707013,8.7368991 z m 0,0 0.723194,0 0,-1.2402346 z m -2.8938807,0 -1.447491,-2.480469 -1.446389,2.480469 z m -2.89388,0 -1.447492,2.4804679 2.893881,0 z m 0,0 -1.447492,-2.480469 -1.446389,2.480469 z m -2.893881,0 -1.4474911,2.4804679 2.8938801,0 z m 0,0 -1.4474911,-2.480469 -1.4463889,2.480469 z m -2.89388,0 -0.93045141,1.5941139 c 0,0.329627 0.00331,0.623976 0.011024,0.886354 l 2.36581611,0 z m 0,0 -0.93045141,-1.5941148 0,1.5941148 z m 1.4463889,2.4804679 -1.2170833,2.086901 c 0.450894,0.08268 1.0748699,0.08379 1.9402778,0.08379 l 0.5434986,0 z m 0,-4.9609369 -1.4463889,-2.4804689 -0.93045141,1.5941147 0,0.8863542 z m 0,0 2.8938801,0 -1.446389,-2.4804689 z M 3.9829403,3.7759612 2.5354492,1.2954925 1.0890603,3.7759612 z m 0,0 2.893881,0 -1.447492,-2.4804687 z m 1.446389,-2.4804687 -0.663663,-1.13660599 -1.5070226,0 c -0.020947,0 -0.038585,0 -0.059531,0 L 2.5354493,1.2954925 z m 0,0 2.893881,0 -0.663664,-1.13660599 -1.566553,0 z m 2.893881,0 2.8938797,0 -0.663663,-1.13660599 c -0.0882,0 -0.171979,0 -0.266788,0 l -1.2997657,0 z m 0,0 -1.446389,2.4804687 2.89388,0 z m 1.447491,2.4804687 2.8938807,0 -1.447492,-2.4804687 z m 0,0 -1.447491,2.4804689 2.8938797,0 z m 1.4463887,2.4804689 2.170686,0 0,-1.2402343 -0.723194,-1.2402346 z m 1.447492,-2.4804689 0.723194,0 0,-0.5170399 c 0,-0.2579689 -0.0022,-0.4938889 -0.0066,-0.71217 z M 8.3232103,6.2564301 6.8768213,3.7759612 5.4293293,6.2564301 z m 2.8938797,-4.9609376 2.062648,0 C 13.123193,0.51717641 12.747264,0.27133461 11.859807,0.19416431 z m -8.6816408,0 L 1.8850153,0.17983281 C 0.85203769,0.23826151 0.43421639,0.46095241 0.26664699,1.2954925 z M 1.0890603,3.7759612 0.17514539,2.208305 c -0.012127,0.3031685 -0.016536,0.6515363 -0.016536,1.0506163 l 0,0.5170399 z m 4.340269,7.4414058 -1.26559,2.170686 2.532283,0 z m 2.893881,0 -1.265591,2.170686 2.532283,0 z m -7.59133751,1.86862 -0.4519964,-0.775009 c 0.082682,0.371519 0.2215885,0.615157 0.4519964,0.775009 z"
     id="path28-9" />
  <path
     style="opacity:0.90000000000000002;fill:#f9f9f9;fill-opacity:1"
     inkscape:connector-curvature="0"
     id="path34"
     d="M 6.1179932,8.7214594 C 6.0959612,8.8847661 6.0944271,9.2379537 6.0542733,9.3411158 6.0141802,9.4441249 5.905541,9.7425135 5.8545172,9.844835 c -0.017936,0.035875 -0.034848,0.079113 -0.052188,0.1242069 l -0.1004718,-0.01342 c 0.00755,-0.016756 0.015888,-0.033245 0.026727,-0.04929 0.061355,-0.08967 0.05987,-0.2311915 0.05987,-0.2311915 0,0 0.1329429,-0.3319143 0.1619143,-0.4357824 0.029173,-0.1038534 -0.00619,-0.4009901 0.010297,-0.4823257 0.01662,-0.081116 0.052696,-0.125743 0.1187719,-0.2858039 C 6.1455207,8.3110637 6.081709,8.1062972 6.0755102,8.0350621 6.0691967,7.9640285 6.0644986,7.7045077 6.047067,7.632563 6.0298438,7.5605286 5.9118518,7.3399837 5.9068379,7.2895459 5.9019246,7.2391154 5.692318,7.1619407 5.692318,7.1619407 5.6890538,7.0439378 5.6277961,6.9541864 5.6277961,6.9541864 5.6356571,6.8369901 5.2721719,6.480774 5.2721719,6.480774 5.1573434,6.3782247 4.6199868,6.1390704 4.4792361,6.0934198 4.3382702,6.0479633 4.2549101,6.1361426 4.2549101,6.1361426 4.0738845,6.0287935 3.9024294,6.1105853 3.7876179,6.1729414 3.6728063,6.2352975 3.6539208,6.3516944 3.6539208,6.3516944 3.5822651,6.4290296 3.6059224,6.2422455 3.6059224,6.2422455 c 0,0 0.059669,-0.2312061 0.2288655,-0.2778213 0.169103,-0.046727 0.4421542,0.00841 0.4421542,0.00841 0.3800246,-0.054767 0.9543517,0.2930893 1.1212099,0.4464967 0.1667505,0.1535045 0.5183505,0.6854033 0.5183505,0.6854033 0,0 0.1141382,0.1143494 0.207672,0.3684613 0.093678,0.2542273 0.080345,0.7833136 0.062244,0.8880222 -0.018102,0.1047086 -0.046436,0.1968252 -0.068425,0.36024 z" />
  <g
     style="opacity:0.90000000000000002;fill:#f9f9f9;fill-opacity:1"
     id="g36"
     transform="matrix(0.05034,0.00365,-0.0035,0.05218,-2.10173,-5.21756)">
    <path
       inkscape:connector-curvature="0"
       id="path38"
       d="m 148.453,210.265 c -0.635,-1.088 -3.17,1.086 -5.071,1.086 -1.902,0 -5.389,-1.305 -7.609,-0.869 -2.219,0.436 -5.072,2.176 -5.705,3.697 -0.635,1.521 0.951,7.176 2.854,7.611 0,0 -3.172,3.48 -1.588,4.785 1.588,1.305 2.221,0 2.221,-0.652 0,-0.652 -0.318,-2.393 0.951,-2.828 1.268,-0.434 2.854,-1.957 2.854,-1.957 0,0 -2.537,0 -3.805,-1.305 -1.27,-1.305 -0.635,-3.697 0,-4.785 0.633,-1.088 2.217,-3.045 3.805,-3.045 1.584,0 4.754,1.305 6.976,1.088 2.215,-0.217 4.752,-1.738 4.117,-2.826 z"
       style="fill:#f9f9f9;fill-opacity:1" />
    <path
       inkscape:connector-curvature="0"
       id="path40"
       d="m 153.525,216.571 c 0,0 3.486,3.914 0,8.48 -3.486,4.568 -3.17,2.611 -3.17,2.611 l 1.268,1.74 c 0,0 2.535,-3.697 4.756,-3.48 2.219,0.217 5.072,2.174 6.023,5.438 0.951,3.262 -1.268,5.873 -4.121,6.307 -2.854,0.436 -13.633,-0.652 -13.633,-0.652 0,0 0.953,0.652 0.635,1.74 -0.316,1.086 -0.949,2.393 -0.949,2.393 0,0 2.535,-2.176 8.875,-1.959 6.34,0.219 8.561,1.305 11.096,5.438 2.535,4.133 0.949,10.221 -0.318,11.744 -1.267,1.523 -6.975,1.959 -7.607,3.48 -0.632,1.521 1.268,3.045 1.586,4.131 0.316,1.088 -0.951,1.959 -0.951,1.959 0,0 3.486,-1.523 6.021,-1.305 2.537,0.217 7.293,2.609 7.293,2.609 0,0 -0.953,0.436 -0.635,1.088 0.318,0.652 0.951,1.305 0.635,1.957 -0.316,0.652 -1.268,1.086 -1.268,1.086 0,0 1.584,0.219 2.535,-1.086 0.951,-1.305 -0.951,-1.523 -0.316,-2.176 0.633,-0.652 1.902,-0.434 1.902,-0.434 0,0 -0.953,-0.219 -2.537,-2.176 -1.584,-1.957 -2.219,-3.045 -4.438,-3.045 -2.221,0 -4.756,0.217 -4.756,0.217 0,0 -2.219,-0.869 -1.268,-2.174 0.951,-1.305 8.242,-2.176 8.242,-2.176 0,0 -2.219,-1.305 -2.219,-2.391 0,-1.088 1.584,-3.264 4.438,-4.785 2.854,-1.523 5.072,-3.916 5.072,-8.482 0,-4.566 1.209,-5.607 3.109,-7.348 l -0.666,-3 c 0,0 -1.809,4.041 -3.711,5.346 l -4.756,-2.176 c 0,0 0.951,2.828 3.488,3.916 0,0 1.9,3.697 0.316,6.307 -1.586,2.609 -5.707,4.566 -5.707,4.566 0,0 -1.268,-6.307 -1.902,-7.611 -0.633,-1.305 -1.902,-2.609 -2.219,-3.48 -0.316,-0.869 1.904,-6.307 1.586,-8.047 -0.318,-1.738 -2.854,-6.959 -7.609,-7.395 10e-4,0.001 -0.633,-7.61 -4.12,-7.175 z"
       style="fill:#f9f9f9;fill-opacity:1" />
    <path
       inkscape:connector-curvature="0"
       id="path42"
       d="m 146.551,227.444 c 0,0 2.537,-0.65 4.756,0.436 2.219,1.088 3.805,4.35 1.902,6.09 0,0 -0.951,0.652 -1.902,-0.436 0,0 0.316,-4.566 -1.586,-5.002 -1.902,-0.436 -3.17,-1.088 -3.17,-1.088 z"
       style="fill:#f9f9f9;fill-opacity:1" />
    <path
       inkscape:connector-curvature="0"
       id="path44"
       d="m 149.088,221.573 c 0,0 -3.486,-1.521 -6.657,-0.652 -3.17,0.869 -5.072,4.783 -5.072,4.783 0,0 -1.586,-2.826 1.268,-5 2.854,-2.176 7.608,-0.871 9.827,-0.652 2.218,0.217 2.536,0.433 0.634,1.521 z"
       style="fill:#f9f9f9;fill-opacity:1" />
    <path
       inkscape:connector-curvature="0"
       id="path46"
       d="m 144.967,219.833 c 0,0 -0.951,-1.74 0.316,-2.174 1.268,-0.436 2.854,-0.871 2.219,-1.523 -0.633,-0.652 -3.803,0.652 -4.755,2.609 -0.951,1.959 -0.951,1.959 -0.951,1.959 l 3.171,-0.871 z"
       style="fill:#f9f9f9;fill-opacity:1" />
    <path
       inkscape:connector-curvature="0"
       id="path48"
       d="m 142.431,228.751 c 0,0 -6.023,5.436 -6.023,11.09 0,5.656 2.854,10.223 5.072,10.223 2.22,0 2.222,-1.957 3.804,-1.523 1.586,0.436 3.805,2.395 1.586,2.828 -2.221,0.436 -4.438,1.305 -6.341,0.436 -1.902,-0.871 -4.121,-1.959 -5.391,-3.916 -1.266,-1.957 -0.949,-6.088 -1.266,-8.264 -0.318,-2.176 3.801,-9.787 5.389,-10.873 1.584,-1.089 3.17,-1.96 3.17,-0.001 z"
       style="fill:#f9f9f9;fill-opacity:1" />
    <path
       inkscape:connector-curvature="0"
       id="path50"
       d="m 156.063,246.149 c 0,0 -2.537,-0.436 -3.488,-1.523 -0.951,-1.086 -1.266,0.219 -0.633,2.393 0.633,2.174 0.951,5.654 0.316,7.178 -0.635,1.521 -3.488,5.654 -7.291,5.219 -3.806,-0.436 -5.073,-1.521 -6.024,-2.826 -0.951,-1.307 -2.852,-1.523 -3.17,-0.219 -0.316,1.305 0.949,2.828 1.586,3.697 0.633,0.869 0.316,0.869 2.219,1.521 1.902,0.654 5.706,1.523 8.876,0.436 3.17,-1.087 6.023,-5.871 6.023,-7.395 0,-1.522 0.634,-6.307 1.586,-8.481 z"
       style="fill:#f9f9f9;fill-opacity:1" />
  </g>
  <path
     style="opacity:0.90000000000000002;fill:#f9f9f9;fill-opacity:1"
     inkscape:connector-curvature="0"
     id="path52"
     d="m 5.9717473,9.2796047 c 0,0 0.011537,-0.4314275 -0.1001255,-0.5268785 -0.1116625,-0.095451 -0.1464597,-0.08497 -0.1475677,-0.1227507 -8.262e-4,-0.029161 -0.00287,-0.039428 0.080704,-0.030485 0.066895,0.00721 0.2367852,0.1433243 0.2367852,0.1433243 l -0.069796,0.5367899 z" />
  <path
     style="opacity:0.90000000000000002;fill:#f9f9f9;fill-opacity:1"
     inkscape:connector-curvature="0"
     id="path54"
     d="m 4.7797099,6.1869357 c 0,0 0.14752,0.06313 0.1081626,0.1476309 -0.039465,0.084598 -0.041696,0.1193573 0.025357,0.1242191 0.067154,0.00487 0.10768,-0.09706 0.1892154,-0.056227 0.081629,0.040945 0.00514,0.1751873 0.087842,0.1986963 0.082805,0.023412 0.1175006,0.00841 0.1666716,0.029493 0.049171,0.021078 0.2243864,0.1735709 0.2030046,0.2419673 -0.021476,0.068285 -0.1776472,-0.1177482 -0.2303182,-0.086646 -0.052678,0.031206 -0.1400374,0.077201 -0.075222,0.1169264 0.064722,0.039614 0.2660818,0.054214 0.344211,0.1473381 0.078035,0.093013 0.096166,0.1439821 0.145189,0.097882 0.051252,-0.048403 -0.07618,-0.37256 -0.171029,-0.4667919 C 5.4779525,6.5870866 4.9498815,6.1642485 4.7797099,6.1869357 z" />
  <path
     style="opacity:0.90000000000000002;fill:#f9f9f9;fill-opacity:1"
     inkscape:connector-curvature="0"
     id="path56"
     d="m 5.7446627,7.7616459 c 0,0 0.082557,0.042952 0.1091867,0.035077 0.026738,-0.00797 0.096886,-0.064338 0.1344474,-0.1281 0.037461,-0.06377 0.026766,-0.116245 0.014917,-0.1515007 l 0.065951,0.078609 0.019953,0.2696455 -0.020032,-0.021115 c 0,0 -0.00266,-0.066679 -0.026384,-0.065935 -0.023724,7.442e-4 -0.078897,0.043515 -0.078897,0.043515 l -0.1526983,0.011055 -0.070284,-0.049455 0.00384,-0.021796 z" />
  <path
     style="opacity:0.90000000000000002;fill:#f9f9f9;fill-opacity:1"
     inkscape:connector-curvature="0"
     id="path58"
     d="m 5.9014523,8.6428381 c 0,0 0.051166,0.032811 0.0756,0.022994 0.024591,-0.00991 0.037026,-0.049749 0.037026,-0.049749 l -0.028323,0.1085292 -0.055827,-0.00405 -0.028476,-0.077727 z" />
  <path
     style="opacity:0.90000000000000002;fill:#f9f9f9;fill-opacity:1"
     inkscape:connector-curvature="0"
     id="path60"
     d="m 3.9242941,8.6330292 c -0.045569,0.024014 -0.088481,0.042348 -0.081774,0.069051 0.00661,0.026696 0.028693,0.7223107 0.3296139,0.7616425 0.300878,0.039224 0.5673464,-0.037514 0.7113664,0.077796 0.14402,0.11531 -0.030226,0.1987346 -0.030226,0.1987346 0,0 -0.024983,0.1205691 0.1157436,0.034609 0,0 0.040133,0.029127 0.05034,0.00365 C 5.0294653,9.7530284 5.0501655,9.571116 4.9775745,9.5221229 4.9049835,9.4731298 4.7981773,9.4304647 4.7501753,9.3919584 4.7021663,9.3535566 4.3530511,9.4030138 4.2618755,9.3792047 4.0708374,9.3291214 4.0958102,9.1559081 4.0290502,9.0199831 3.9622902,8.8840581 3.967927,8.609976 3.9242941,8.6330292 z" />
  <path
     style="opacity:0.90000000000000002;fill:#f9f9f9;fill-opacity:1"
     inkscape:connector-curvature="0"
     id="path62"
     d="m 5.8559053,9.4983484 c 0,0 -0.079891,0.1865345 -0.1805708,0.1792345 0,0 0.1307064,0.061911 0.1092308,0.1301955 -0.021382,0.068396 0.07134,-0.30943 0.07134,-0.30943 z" />
  <path
     style="opacity:0.90000000000000002;fill:#f9f9f9;fill-opacity:1"
     inkscape:connector-curvature="0"
     id="path64"
     d="m 4.9562443,9.7134277 c 0,0 0.150219,-0.035931 0.2672759,-0.02241 0.1171646,0.013424 0.1607339,0.1210311 0.1607339,0.1210311 0,0 -0.1189759,-0.060326 -0.1857932,-0.064175 -0.066921,-0.0038 -0.1886303,0.039963 -0.1886303,0.039963 l -0.053586,-0.074409 z" />
  <path
     style="opacity:0.90000000000000002;fill:#f9f9f9;fill-opacity:1"
     inkscape:connector-curvature="0"
     id="path66"
     d="m 4.1854601,9.6911506 c 0,0 -0.066817,-0.1712696 -0.2171829,-0.1919772 C 3.8179117,9.4784657 3.8401817,9.4790318 3.7904997,9.4655719 3.7408177,9.4521121 3.6723841,9.2777891 3.619798,9.2608678 3.567212,9.2439465 3.5495966,9.2230066 3.5269435,9.2311692 c -0.022653,0.00816 -0.011872,0.035214 3.26e-4,0.042652 0.012198,0.00744 0.058929,0.017381 0.080052,0.032021 0.021124,0.01464 0.052863,0.15458 0.138112,0.2033899 0.08525,0.04881 0.1534752,0.058056 0.1874546,0.070325 0.033979,0.012269 0.1407511,0.08335 0.1893997,0.1589743 -4.68e-5,-5.58e-5 0.077569,0.036613 0.063172,-0.047381 z" />
  <path
     d="m 10.039479,3.8833475 c -0.0092,3.657e-4 -0.01809,0.00281 -0.02649,0.00656 L 6.4281748,5.5028915 c -0.026123,0.011723 -0.042831,0.038076 -0.042461,0.067148 l 0.037938,3.0819362 C 6.2798276,8.626092 6.1190467,8.636033 5.956918,8.6878011 5.7439465,8.7557936 5.5668271,8.8825035 5.4508522,9.0366448 5.3348772,9.1907862 5.2792251,9.3762979 5.3232003,9.5533785 5.3671386,9.7304686 5.5031904,9.859795 5.6756298,9.9235486 5.8480692,9.9873209 6.0587607,9.9899468 6.2715938,9.9216729 6.4829408,9.8541493 6.6589986,9.7289868 6.7750105,9.5764678 6.8884193,9.4273907 6.9446714,9.2486408 6.9092623,9.076193 6.9099823,8.3297291 6.925693,6.4314159 6.9263392,6.3499468 l 2.7153041,-1.2348471 0.00831,2.6086051 C 9.5095884,7.7006343 9.3537828,7.7117944 9.1965926,7.7621558 8.983621,7.8301483 8.8065017,7.9566331 8.6905267,8.1107745 c -0.115975,0.1541413 -0.1716363,0.339653 -0.1276519,0.516743 0.043938,0.17709 0.1797594,0.3064071 0.352208,0.37017 0.1724394,0.063772 0.3833525,0.066398 0.5961856,-0.00188 0.2129715,-0.067993 0.3900909,-0.1944773 0.5060656,-0.3486187 0.115975,-0.1541413 0.171637,-0.339653 0.127652,-0.5167336 0,-8.44e-5 0,-1.595e-4 0,-2.157e-4 L 10.11314,3.9551382 c -1.11e-4,-0.019507 -0.0083,-0.038263 -0.02188,-0.051768 -0.01385,-0.013599 -0.03258,-0.02082 -0.05178,-0.020163 z"
     fill="#e83b71"
     fill-rule="evenodd"
     id="path68"
     style="fill:#f9f9f9;fill-opacity:1" />
</svg>
