<svg xmlns="http://www.w3.org/2000/svg" viewBox="0 0 48 48"><defs><radialGradient id="0" cx="24" cy="24" r="23.437" gradientUnits="userSpaceOnUse"><stop stop-color="#eee"/><stop offset="1" stop-color="#cecece"/></radialGradient></defs><path d="m 47.44 11.547 l 0 24.906 c 0 10.25 0 10.984 -10.984 10.984 l -24.902 0 c -10.988 0 -10.988 -0.734 -10.988 -10.984 l 0 -24.906 c 0 -10.25 0 -10.984 10.988 -10.984 l 24.902 0 c 10.984 0 10.984 0.734 10.984 10.984" fill="url(#0)"/><path d="m 24 12 c -7.168 0 -13 5.836 -13 13 c 0 7.168 5.832 13 13 13 c 7.07 0 12.816 -5.684 12.969 -12.719 c 0 -0.012 0 -0.02 0 -0.031 c 0 -0.031 0.031 -0.063 0.031 -0.094 c 0.004 -0.051 0.004 -0.105 0 -0.156 c 0 -0.031 0 -0.063 0 -0.094 c -0.004 -0.063 -0.016 -0.125 -0.031 -0.188 c -0.152 -7.04 -5.895 -12.719 -12.969 -12.719 m 0 2 c 6.07 0 10.965 4.883 11 10.938 c 0 0.02 0 0.043 0 0.063 c 0 6.09 -4.91 11 -11 11 c -6.09 0 -11 -4.91 -11 -11 c 0 -6.086 4.91 -11 11 -11 m 0 0" fill="#fff"/><path d="m 23.875 17.656 c -0.516 0.066 -0.895 0.512 -0.875 1.031 l 0 6.438 l 0.281 0.281 l 5.406 5.469 c 0.242 0.297 0.629 0.434 1 0.348 c 0.371 -0.086 0.664 -0.379 0.75 -0.75 c 0.086 -0.375 -0.051 -0.762 -0.348 -1 l -5.094 -5.188 l 0 -5.594 c 0.012 -0.293 -0.105 -0.578 -0.324 -0.777 c -0.215 -0.199 -0.508 -0.289 -0.801 -0.254 m 0 0" fill="#fff"/><path d="m 15.02 17.293 l 1.34 -1.344 l -2.344 -2.414 l -1.344 1.41 m 2.348 2.348" fill="#fff"/><path d="m 19 11 c 2.359 -1.168 6.586 -1.211 9 0 c -3.656 -4 -5.379 -4 -9 0 m 0 0" fill="#fff"/><path d="m 38.27 47.44 c 2.543 -0.012 4.379 -0.082 5.711 -0.441 l -4.23 -7.25 -4.484 7.691 1.191 0 c 0.641 0 1.242 0 1.813 0 z m 1.48 -7.691 -5.125 -8.789 -5.129 8.789 z m 0 0 7.652 0 c 0.031 -0.973 0.039 -2.063 0.039 -3.297 l 0 -1.098 -2.563 -4.395 z m 5.129 -8.789 -5.129 -8.789 -5.125 8.789 z m 0 0 2.563 0 0 -4.395 z m -10.254 0 -5.129 -8.789 -5.125 8.789 z m -10.254 0 -5.129 8.789 10.254 0 z m 0 0 -5.129 -8.789 -5.125 8.789 z m -10.254 0 -5.129 8.789 10.254 0 z m 0 0 -5.129 -8.789 -5.125 8.789 z m -10.254 0 -3.297 5.648 c 0 1.168 0.012 2.211 0.039 3.141 l 8.383 0 z m 0 0 -3.297 -5.648 0 5.648 z m 5.125 8.789 -4.313 7.395 c 1.598 0.293 3.809 0.297 6.879 0.297 l 1.922 0 z m 0 -17.578 -5.125 -8.789 -3.297 5.648 0 3.141 z m 0 0 10.254 0 -5.125 -8.789 z m 5.129 -8.789 -5.129 -8.789 -5.125 8.789 z m 0 0 10.254 0 -5.129 -8.789 z m 5.125 -8.789 -2.352 -4.03 -5.336 0 c -0.078 0 -0.141 0 -0.215 0 l -2.352 4.03 z m 0 0 10.254 0 -2.352 -4.03 -5.551 0 z m 10.254 0 10.254 0 l -2.352 -4.03 c -0.313 0 -0.609 0 -0.941 0 l -4.609 0 z m 0 0 -5.125 8.789 10.254 0 z m 5.129 8.789 10.254 0 -5.129 -8.789 z m 0 0 -5.129 8.789 10.254 0 z m 5.125 8.789 7.691 0 0 -4.395 -2.563 -4.395 z m 5.129 -8.789 2.563 0 0 -1.832 c 0 -0.914 -0.008 -1.75 -0.023 -2.523 z m -15.383 8.789 -5.125 -8.789 -5.129 8.789 z m 10.254 -17.578 7.309 0 c -0.555 -2.758 -1.887 -3.629 -5.03 -3.902 z m -30.762 0 l -2.305 -3.953 c -3.66 0.207 -5.141 0.996 -5.734 3.953 z m -5.125 8.789 l -3.238 -5.555 c -0.043 1.074 -0.059 2.309 -0.059 3.723 l 0 1.832 z m 15.379 26.367 -4.484 7.691 8.973 0 z m 10.254 0 -4.484 7.691 8.973 0 z m -26.898 6.621 -1.602 -2.746 c 0.293 1.316 0.785 2.18 1.602 2.746 z" fill="#fff" fill-opacity="0.14"/></svg>