<?xml version="1.0" encoding="UTF-8" standalone="no"?>
<svg
   xmlns:dc="http://purl.org/dc/elements/1.1/"
   xmlns:cc="http://creativecommons.org/ns#"
   xmlns:rdf="http://www.w3.org/1999/02/22-rdf-syntax-ns#"
   xmlns:svg="http://www.w3.org/2000/svg"
   xmlns="http://www.w3.org/2000/svg"
   xmlns:xlink="http://www.w3.org/1999/xlink"
   xmlns:sodipodi="http://sodipodi.sourceforge.net/DTD/sodipodi-0.dtd"
   xmlns:inkscape="http://www.inkscape.org/namespaces/inkscape"
   width="48"
   height="48"
   id="svg2"
   version="1.1"
   inkscape:version="0.48.4 r9939"
   sodipodi:docname="mate-notification-properties.svg">
  <metadata
     id="metadata334">
    <rdf:RDF>
      <cc:Work
         rdf:about="">
        <dc:format>image/svg+xml</dc:format>
        <dc:type
           rdf:resource="http://purl.org/dc/dcmitype/StillImage" />
      </cc:Work>
    </rdf:RDF>
  </metadata>
  <sodipodi:namedview
     pagecolor="#ffffff"
     bordercolor="#666666"
     borderopacity="1"
     objecttolerance="10"
     gridtolerance="10"
     guidetolerance="10"
     inkscape:pageopacity="0"
     inkscape:pageshadow="2"
     inkscape:window-width="640"
     inkscape:window-height="480"
     id="namedview332"
     showgrid="false"
     inkscape:zoom="4.9166667"
     inkscape:cx="24"
     inkscape:cy="24"
     inkscape:window-x="0"
     inkscape:window-y="0"
     inkscape:window-maximized="0"
     inkscape:current-layer="svg2" />
  <defs
     id="defs4">
    <clipPath
       id="clipPath6">
      <rect
         width="42"
         x="307"
         y="223"
         rx="9"
         height="42"
         transform="rotate(90)"
         fill="url(#3)"
         color="#bebebe"
         id="rect8" />
    </clipPath>
    <clipPath
       id="clipPath10">
      <rect
         width="240"
         x="24"
         y="36"
         rx="50"
         height="240"
         fill="#986767"
         color="#bebebe"
         id="rect12" />
    </clipPath>
    <clipPath
       id="clipPath14">
      <rect
         width="16"
         x="432"
         y="116"
         rx="2"
         height="16"
         opacity="0.2"
         fill="#6d6d6d"
         color="#bebebe"
         id="rect16" />
    </clipPath>
    <clipPath
       id="clipPath18">
      <path
         d="m 98.03125,23.191212 c -41.492132,1.05238 -74.84375,35.06824 -74.84375,76.812498 0,42.40687 34.405632,76.8125 76.8125,76.8125 42.40687,0 76.8125,-34.40563 76.8125,-76.8125 0,-42.406866 -34.40563,-76.812498 -76.8125,-76.812498 -0.662607,0 -1.310145,-0.0167 -1.96875,0 z M 100,50.659962 c 27.24464,0 49.34375,22.099114 49.34375,49.343748 -1e-5,27.24464 -22.09911,49.34375 -49.34375,49.34375 -27.244636,-1e-5 -49.34375,-22.09911 -49.34375,-49.34375 0,-27.244634 22.099114,-49.343748 49.34375,-49.343748 z"
         id="path20" />
    </clipPath>
    <clipPath
       id="clipPath22">
      <path
         d="m 152,204 a 8,8 0 1 1 -16,0 8,8 0 1 1 16,0 z"
         id="path24" />
    </clipPath>
    <clipPath
       id="clipPath26">
      <path
         d="m 145,215 c 33.13708,0 60,-26.86292 60,-60 0,-33.13708 -26.86292,-60 -60,-60 -33.13708,0 -60,26.86292 -60,60 0,12.50698 3.8285,24.10633 10.375,33.71875 L 89,211 111.28125,204.625 C 120.89367,211.1715 132.49302,215 145,215 z"
         id="path28" />
    </clipPath>
    <clipPath
       id="clipPath30">
      <rect
         width="16"
         x="432"
         y="116"
         rx="3"
         height="16"
         color="#bebebe"
         id="rect32" />
    </clipPath>
    <clipPath
       id="clipPath34">
      <path
         d="m 144,70 c -49.705627,0 -90,40.29437 -90,90 0,49.70563 40.294373,90 90,90 49.70563,0 90,-40.29437 90,-90 0,-49.70563 -40.29437,-90 -90,-90 z m 0,32.1875 c 32.03251,0 58,25.96748 58,58 0,32.03252 -25.96749,58 -58,58 -32.03251,0 -58,-25.96748 -58,-58 0,-32.03252 25.96749,-58 58,-58 z"
         id="path36" />
    </clipPath>
    <clipPath
       id="clipPath38">
      <rect
         width="22"
         x="433"
         y="77"
         rx="3"
         height="22"
         opacity="0.2"
         fill="#6d6d6d"
         color="#bebebe"
         id="rect40" />
    </clipPath>
    <clipPath
       id="clipPath42">
      <rect
         width="30"
         x="433"
         y="29"
         rx="4"
         height="30"
         opacity="0.2"
         fill="#6d6d6d"
         color="#bebebe"
         id="rect44" />
    </clipPath>
    <clipPath
       id="clipPath46">
      <rect
         width="90"
         x="307"
         y="31"
         rx="18.75"
         height="90"
         fill="url(#1)"
         color="#bebebe"
         id="rect48" />
    </clipPath>
    <clipPath
       id="clipPath50">
      <rect
         width="60"
         x="306"
         y="142"
         rx="12.5"
         height="60"
         transform="matrix(0 -1 1 0 0 0)"
         fill="url(#0)"
         color="#bebebe"
         id="rect52" />
    </clipPath>
    <clipPath
       id="clipPath54">
      <rect
         width="30"
         x="433"
         y="29"
         rx="6"
         height="30"
         color="#bebebe"
         id="rect56" />
    </clipPath>
    <clipPath
       id="clipPath58">
      <rect
         width="22"
         x="433"
         y="77"
         rx="5"
         height="22"
         color="#bebebe"
         id="rect60" />
    </clipPath>
    <clipPath
       id="clipPath62">
      <rect
         width="22"
         x="433"
         y="77"
         rx="4"
         height="22"
         color="#bebebe"
         id="rect64" />
    </clipPath>
    <clipPath
       id="clipPath66">
      <rect
         width="20"
         x="434"
         y="78"
         rx="4"
         height="20"
         color="#bebebe"
         id="rect68" />
    </clipPath>
    <linearGradient
       gradientTransform="matrix(-1 0 0 -1 289 315)"
       xlink:href="#2"
       y1="40"
       y2="276"
       x1="265"
       x2="264"
       gradientUnits="userSpaceOnUse"
       id="linearGradient70" />
    <linearGradient
       gradientTransform="matrix(.25 0 0 .25 299.99999 131.99999)"
       id="0"
       xlink:href="#2"
       y1="230"
       y2="90"
       x2="0"
       gradientUnits="userSpaceOnUse" />
    <linearGradient
       gradientTransform="matrix(.375 0 0 .375 298 16)"
       id="1"
       xlink:href="#2"
       y1="230"
       y2="90"
       x2="0"
       gradientUnits="userSpaceOnUse" />
    <linearGradient
       id="2">
      <stop
         stop-color="#151515"
         id="stop75" />
      <stop
         offset="1"
         stop-color="#222"
         id="stop77" />
    </linearGradient>
    <linearGradient
       gradientTransform="matrix(.175 0 0 .175 302.79999 215.99997)"
       id="3"
       xlink:href="#2"
       y1="280"
       y2="40"
       x2="0"
       gradientUnits="userSpaceOnUse" />
    <linearGradient
       id="4">
      <stop
         stop-color="#d2221d"
         id="stop81" />
      <stop
         offset="1"
         stop-color="#c21a15"
         id="stop83" />
    </linearGradient>
    <use
       id="5"
       xlink:href="#d" />
    <clipPath
       id="clipPath86">
      <use
         xlink:href="#5"
         id="use88" />
    </clipPath>
    <clipPath
       id="clipPath90">
      <use
         transform="matrix(8,0,0,8,-2141.5757,-54.424243)"
         xlink:href="#5"
         id="use92" />
    </clipPath>
    <use
       id="6"
       xlink:href="#d" />
    <clipPath
       id="clipPath95">
      <use
         xlink:href="#6"
         id="use97" />
    </clipPath>
    <clipPath
       id="clipPath99">
      <use
         transform="matrix(8,0,0,8,-2141.5757,-54.424243)"
         xlink:href="#6"
         id="use101" />
    </clipPath>
    <use
       id="7"
       xlink:href="#d" />
    <clipPath
       id="clipPath104">
      <use
         xlink:href="#7"
         id="use106" />
    </clipPath>
    <clipPath
       id="clipPath108">
      <use
         transform="matrix(8,0,0,8,-2141.5757,-54.424243)"
         xlink:href="#7"
         id="use110" />
    </clipPath>
    <use
       id="8"
       xlink:href="#d" />
    <clipPath
       id="clipPath113">
      <use
         xlink:href="#8"
         id="use115" />
    </clipPath>
    <clipPath
       id="clipPath117">
      <use
         transform="matrix(8,0,0,8,-2141.5757,-54.424243)"
         xlink:href="#8"
         id="use119" />
    </clipPath>
    <use
       id="9"
       xlink:href="#d" />
    <clipPath
       id="clipPath122">
      <use
         xlink:href="#9"
         id="use124" />
    </clipPath>
    <clipPath
       id="clipPath126">
      <use
         transform="matrix(8,0,0,8,-2141.5757,-54.424243)"
         xlink:href="#9"
         id="use128" />
    </clipPath>
    <use
       id="A"
       xlink:href="#d" />
    <clipPath
       id="clipPath131">
      <use
         xlink:href="#A"
         id="use133" />
    </clipPath>
    <clipPath
       id="clipPath135">
      <use
         transform="matrix(8,0,0,8,-2141.5757,-54.424243)"
         xlink:href="#A"
         id="use137" />
    </clipPath>
    <use
       id="B"
       xlink:href="#d" />
    <clipPath
       id="clipPath140">
      <use
         xlink:href="#B"
         id="use142" />
    </clipPath>
    <clipPath
       id="clipPath144">
      <use
         transform="matrix(8,0,0,8,-2141.5757,-54.424243)"
         xlink:href="#B"
         id="use146" />
    </clipPath>
    <linearGradient
       y2="31.619"
       x2="0"
       y1="299.81"
       gradientTransform="matrix(0.11931818,0,0,0.11931818,414.13636,48.22727)"
       gradientUnits="userSpaceOnUse"
       id="C"
       xlink:href="#L" />
    <clipPath
       id="clipPath149">
      <rect
         y="53"
         x="417"
         height="30"
         width="30"
         fill="url(#C)"
         color="#bebebe"
         rx="7"
         id="rect151" />
    </clipPath>
    <linearGradient
       y2="28.571"
       x2="0"
       y1="302.86"
       gradientTransform="matrix(0.0875,0,0,0.0875,414.9,97.5)"
       gradientUnits="userSpaceOnUse"
       id="D"
       xlink:href="#L" />
    <clipPath
       id="clipPath154">
      <rect
         width="22"
         height="22"
         x="417"
         y="101"
         fill="url(#D)"
         color="#bebebe"
         rx="5"
         id="rect156" />
    </clipPath>
    <linearGradient
       y2="28"
       x2="0"
       y1="124"
       gradientUnits="userSpaceOnUse"
       id="E"
       xlink:href="#L" />
    <clipPath
       id="clipPath159">
      <rect
         y="32"
         x="292"
         height="88"
         width="88"
         fill="url(#E)"
         color="#bebebe"
         rx="18"
         id="rect161" />
    </clipPath>
    <linearGradient
       y2="140"
       x2="0"
       y1="204"
       gradientUnits="userSpaceOnUse"
       id="F"
       xlink:href="#L" />
    <clipPath
       id="clipPath164">
      <rect
         width="60"
         height="60"
         x="290"
         y="142"
         fill="url(#F)"
         color="#bebebe"
         rx="12.5"
         id="rect166" />
    </clipPath>
    <linearGradient
       y2="40"
       x2="0"
       y1="280"
       gradientTransform="translate(0,-4)"
       gradientUnits="userSpaceOnUse"
       id="G"
       xlink:href="#L" />
    <clipPath
       id="clipPath169">
      <rect
         width="220"
         height="220"
         x="34"
         y="46"
         fill="url(#G)"
         color="#bebebe"
         rx="50"
         id="rect171" />
    </clipPath>
    <linearGradient
       y2="40"
       x2="0"
       y1="280"
       gradientTransform="matrix(0.06666667,0,0,0.06666667,302.4,209.33333)"
       gradientUnits="userSpaceOnUse"
       id="H"
       xlink:href="#L" />
    <clipPath
       id="clipPath174">
      <rect
         transform="matrix(0,1,-1,0,0,0)"
         y="212"
         x="304"
         height="16"
         width="16"
         fill="url(#H)"
         color="#bebebe"
         rx="3"
         id="rect176" />
    </clipPath>
    <linearGradient
       y2="40"
       x2="0"
       y1="291.43"
       gradientTransform="matrix(0.11931818,0,0,0.11931818,430.13636,32.227267)"
       gradientUnits="userSpaceOnUse"
       id="I"
       xlink:href="#L" />
    <clipPath
       id="clipPath179">
      <rect
         y="37"
         x="433"
         height="30"
         width="30"
         fill="url(#I)"
         color="#bebebe"
         rx="6"
         id="rect181" />
    </clipPath>
    <linearGradient
       y2="40"
       x2="0"
       y1="291.43"
       gradientTransform="matrix(0.0875,0,0,0.0875,430.9,81.499996)"
       gradientUnits="userSpaceOnUse"
       id="J"
       xlink:href="#L" />
    <clipPath
       id="clipPath184">
      <rect
         width="22"
         height="22"
         x="433"
         y="85"
         fill="url(#J)"
         color="#bebebe"
         rx="4"
         id="rect186" />
    </clipPath>
    <linearGradient
       y2="40"
       x2="0"
       y1="280"
       gradientTransform="matrix(0.175,0,0,0.175,302.79999,215.99997)"
       gradientUnits="userSpaceOnUse"
       id="K"
       xlink:href="#L" />
    <clipPath
       id="clipPath189">
      <rect
         transform="matrix(0,1,-1,0,0,0)"
         width="42"
         height="42"
         x="307"
         y="223"
         fill="url(#K)"
         color="#bebebe"
         rx="9"
         id="rect191" />
    </clipPath>
    <linearGradient
       id="L">
      <stop
         stop-color="#620000"
         id="stop194" />
      <stop
         offset="1"
         stop-color="#dd0f0f"
         id="stop196" />
    </linearGradient>
    <use
       id="M"
       xlink:href="#d" />
    <clipPath
       id="clipPath199">
      <use
         xlink:href="#M"
         id="use201" />
    </clipPath>
    <clipPath
       id="clipPath203">
      <use
         transform="matrix(8,0,0,8,-2141.5757,-54.424243)"
         xlink:href="#M"
         id="use205" />
    </clipPath>
    <use
       id="N"
       xlink:href="#d" />
    <clipPath
       id="clipPath208">
      <use
         xlink:href="#N"
         id="use210" />
    </clipPath>
    <clipPath
       id="clipPath212">
      <use
         transform="matrix(8,0,0,8,-2141.5757,-54.424243)"
         xlink:href="#N"
         id="use214" />
    </clipPath>
    <use
       id="O"
       xlink:href="#d" />
    <clipPath
       id="clipPath217">
      <use
         xlink:href="#O"
         id="use219" />
    </clipPath>
    <clipPath
       id="clipPath221">
      <use
         transform="matrix(8,0,0,8,-2141.5757,-54.424243)"
         xlink:href="#O"
         id="use223" />
    </clipPath>
    <use
       id="P"
       xlink:href="#d" />
    <clipPath
       id="clipPath226">
      <use
         xlink:href="#P"
         id="use228" />
    </clipPath>
    <clipPath
       id="clipPath230">
      <use
         transform="matrix(8,0,0,8,-2141.5757,-54.424243)"
         xlink:href="#P"
         id="use232" />
    </clipPath>
    <use
       id="Q"
       xlink:href="#d" />
    <clipPath
       id="clipPath235">
      <use
         xlink:href="#Q"
         id="use237" />
    </clipPath>
    <clipPath
       id="clipPath239">
      <use
         transform="matrix(8,0,0,8,-2141.5757,-54.424243)"
         xlink:href="#Q"
         id="use241" />
    </clipPath>
    <use
       id="R"
       xlink:href="#d" />
    <clipPath
       id="clipPath244">
      <use
         xlink:href="#R"
         id="use246" />
    </clipPath>
    <clipPath
       id="clipPath248">
      <use
         transform="matrix(8,0,0,8,-2141.5757,-54.424243)"
         xlink:href="#R"
         id="use250" />
    </clipPath>
    <use
       id="S"
       xlink:href="#d" />
    <clipPath
       id="clipPath253">
      <use
         xlink:href="#S"
         id="use255" />
    </clipPath>
    <clipPath
       id="clipPath257">
      <use
         transform="matrix(8,0,0,8,-2141.5757,-54.424243)"
         xlink:href="#S"
         id="use259" />
    </clipPath>
    <linearGradient
       y2="31.619"
       x2="0"
       y1="299.81"
       gradientTransform="matrix(0.11931818,0,0,0.11931818,414.13636,48.22727)"
       gradientUnits="userSpaceOnUse"
       id="T"
       xlink:href="#L" />
    <clipPath
       id="clipPath262">
      <rect
         y="53"
         x="417"
         height="30"
         width="30"
         fill="url(#T)"
         color="#bebebe"
         rx="7"
         id="rect264" />
    </clipPath>
    <linearGradient
       y2="28.571"
       x2="0"
       y1="302.86"
       gradientTransform="matrix(0.0875,0,0,0.0875,414.9,97.5)"
       gradientUnits="userSpaceOnUse"
       id="U"
       xlink:href="#L" />
    <clipPath
       id="clipPath267">
      <rect
         width="22"
         height="22"
         x="417"
         y="101"
         fill="url(#U)"
         color="#bebebe"
         rx="5"
         id="rect269" />
    </clipPath>
    <linearGradient
       y2="28"
       x2="0"
       y1="124"
       gradientUnits="userSpaceOnUse"
       id="V"
       xlink:href="#L" />
    <clipPath
       id="clipPath272">
      <rect
         y="32"
         x="292"
         height="88"
         width="88"
         fill="url(#V)"
         color="#bebebe"
         rx="18"
         id="rect274" />
    </clipPath>
    <linearGradient
       y2="140"
       x2="0"
       y1="204"
       gradientUnits="userSpaceOnUse"
       id="W"
       xlink:href="#L" />
    <clipPath
       id="clipPath277">
      <rect
         width="60"
         height="60"
         x="290"
         y="142"
         fill="url(#W)"
         color="#bebebe"
         rx="12.5"
         id="rect279" />
    </clipPath>
    <linearGradient
       y2="40"
       x2="0"
       y1="280"
       gradientTransform="translate(0,-4)"
       gradientUnits="userSpaceOnUse"
       id="X"
       xlink:href="#L" />
    <clipPath
       id="clipPath282">
      <rect
         width="220"
         height="220"
         x="34"
         y="46"
         fill="url(#X)"
         color="#bebebe"
         rx="50"
         id="rect284" />
    </clipPath>
    <linearGradient
       y2="40"
       x2="0"
       y1="280"
       gradientTransform="matrix(0.06666667,0,0,0.06666667,302.4,209.33333)"
       gradientUnits="userSpaceOnUse"
       id="Y"
       xlink:href="#L" />
    <clipPath
       id="clipPath287">
      <rect
         transform="matrix(0,1,-1,0,0,0)"
         y="212"
         x="304"
         height="16"
         width="16"
         fill="url(#Y)"
         color="#bebebe"
         rx="3"
         id="rect289" />
    </clipPath>
    <linearGradient
       y2="40"
       x2="0"
       y1="291.43"
       gradientTransform="matrix(0.11931818,0,0,0.11931818,430.13636,32.227267)"
       gradientUnits="userSpaceOnUse"
       id="Z"
       xlink:href="#L" />
    <clipPath
       id="clipPath292">
      <rect
         y="37"
         x="433"
         height="30"
         width="30"
         fill="url(#Z)"
         color="#bebebe"
         rx="6"
         id="rect294" />
    </clipPath>
    <linearGradient
       y2="40"
       x2="0"
       y1="291.43"
       gradientTransform="matrix(0.0875,0,0,0.0875,430.9,81.499996)"
       gradientUnits="userSpaceOnUse"
       id="a"
       xlink:href="#L" />
    <clipPath
       id="clipPath297">
      <rect
         width="22"
         height="22"
         x="433"
         y="85"
         fill="url(#a)"
         color="#bebebe"
         rx="4"
         id="rect299" />
    </clipPath>
    <linearGradient
       y2="40"
       x2="0"
       y1="280"
       gradientTransform="matrix(0.175,0,0,0.175,302.79999,215.99997)"
       gradientUnits="userSpaceOnUse"
       id="b"
       xlink:href="#L" />
    <clipPath
       id="clipPath302">
      <rect
         transform="matrix(0,1,-1,0,0,0)"
         width="42"
         height="42"
         x="307"
         y="223"
         fill="url(#b)"
         color="#bebebe"
         rx="9"
         id="rect304" />
    </clipPath>
    <clipPath
       id="clipPath306">
      <path
         d="m 489.217,197.275 c -2.603,0 -3.953,-1.367 -3.953,-3.971 l 0,0 0,-1.034 c 0,-2.604 1.35,-3.971 3.953,-3.971 l 0,0 1.035,0 c 2.62,0 3.97,1.367 3.97,3.971 l 0,0 0,1.034 c 0,2.604 -1.35,3.971 -3.97,3.971 l 0,0 -1.035,0 z"
         id="path308" />
    </clipPath>
    <linearGradient
       xlink:href="#4"
       id="c"
       y1="1050.36"
       x2="0"
       y2="1006.36"
       gradientUnits="userSpaceOnUse"
       gradientTransform="translate(-47.999983,-2056.7244)" />
    <path
       id="d"
       d="m 296,26 a 10,10 0 1 1 -20,0 10,10 0 1 1 20,0 z"
       color="#000000"
       fill="none" />
    <radialGradient
       r="128"
       cy="160"
       cx="148.004"
       gradientTransform="matrix(0.1831,0,0,0.1831,-3.10079,-5.2963803)"
       gradientUnits="userSpaceOnUse"
       id="radialGradient3030"
       xlink:href="#radial0"
       inkscape:collect="always" />
    <radialGradient
       cx="148.004"
       cy="160"
       gradientTransform="matrix(0.1831,0,0,0.1831,-3.10029,-5.29688)"
       id="radial0"
       r="128"
       gradientUnits="userSpaceOnUse">
      <stop
         offset="0"
         style="stop-color:#ebc1c1"
         id="stop7" />
      <stop
         offset="1"
         style="stop-color:#9b2520"
         id="stop9" />
    </radialGradient>
    <radialGradient
       r="128"
       cy="160"
       cx="148.004"
       gradientTransform="matrix(0.1831,0,0,0.1831,-3.10079,-5.2963801)"
       gradientUnits="userSpaceOnUse"
       id="radialGradient3009"
       xlink:href="#radial0"
       inkscape:collect="always" />
    <linearGradient
       inkscape:collect="always"
       xlink:href="#4"
       id="linearGradient3330"
       gradientUnits="userSpaceOnUse"
       gradientTransform="translate(-47.999983,-2056.7244)"
       y1="1050.36"
       x2="0"
       y2="1006.36" />
    <linearGradient
       inkscape:collect="always"
       xlink:href="#4"
       id="linearGradient3334"
       gradientUnits="userSpaceOnUse"
       gradientTransform="translate(-47.999983,-1052.3622)"
       y1="1050.36"
       x2="0"
       y2="1006.36" />
  </defs>
  <path
     inkscape:connector-curvature="0"
     style="fill:url(#radialGradient3009)"
     d="m 47.437,11.547375 0,24.90625 c 0,10.25 0,10.984375 -10.984375,10.984375 l -24.902344,0 C 0.562,47.438 0.562,46.703625 0.562,36.453625 l 0,-24.90625 c 0,-10.2500001 0,-10.9843751 10.988281,-10.9843751 l 24.902344,0 C 47.437,0.5629999 47.437,1.2973749 47.437,11.547375 z"
     id="path11" />
  <path
     id="path15"
     d="m 38.265125,47.438 c 2.542969,-0.01172 4.378906,-0.08203 5.710937,-0.441406 l -4.230468,-7.25 -4.484376,7.691406 1.191407,0 c 0.640625,0 1.242187,0 1.8125,0 z m 1.480469,-7.691406 -5.125001,-8.789063 -5.128906,8.789063 z m 0,0 7.652344,0 c 0.03125,-0.972656 0.03906,-2.0625 0.03906,-3.296875 l 0,-1.097657 -2.5625,-4.394531 z m 5.128906,-8.789063 -5.128906,-8.789062 -5.125001,8.789062 z m 0,0 2.5625,0 0,-4.394531 z m -10.253907,0 -5.128906,-8.789062 -5.125,8.789062 z m -10.253906,0 -5.128907,8.789063 10.253907,0 z m 0,0 -5.128907,-8.789062 -5.124999,8.789062 z m -10.253906,0 -5.128906,8.789063 10.253905,0 z m 0,0 -5.128906,-8.789062 -5.125,8.789062 z m -10.253906,0 L 0.562,36.605969 c 0,1.167969 0.01172,2.210937 0.03906,3.140625 l 8.382813,0 z m 0,0 -3.296875,-5.648437 0,5.648437 z m 5.125,8.789063 -4.3125,7.394531 c 1.597656,0.292969 3.808594,0.296875 6.875,0.296875 l 1.925781,0 z m 0,-17.578125 -5.125,-8.789063 -3.296875,5.648438 0,3.140625 z m 0,0 10.253905,0 -5.124999,-8.789063 z m 5.128906,-8.789063 -5.128906,-8.7890621 -5.125,8.7890621 z m 0,0 10.253906,0 -5.128907,-8.7890621 z m 5.125,-8.7890621 -2.351562,-4.027344 -5.339844,0 c -0.07422,0 -0.136719,0 -0.210937,0 l -2.351563,4.027344 z m 0,0 10.253906,0 -2.351562,-4.027344 -5.550781,0 z m 10.253906,0 10.253907,0 -2.351563,-4.027344 c -0.3125,0 -0.609375,0 -0.945312,0 l -4.60547,0 z m 0,0 -5.125,8.7890621 10.253906,0 z m 5.128906,8.7890621 10.253907,0 -5.128906,-8.7890621 z m 0,0 -5.128906,8.789063 10.253907,0 z m 5.125001,8.789063 7.691406,0 0,-4.394531 -2.5625,-4.394532 z m 5.128906,-8.789063 2.5625,0 0,-1.832031 c 0,-0.914063 -0.0078,-1.75 -0.02344,-2.523437 z m -15.382813,8.789063 -5.125,-8.789063 -5.128907,8.789063 z m 10.253907,-17.5781251 7.308594,0 C 46.4995,1.8325309 45.167469,0.9614379 42.022938,0.6879999 z m -30.761719,0 -2.304687,-3.953125 c -3.660157,0.207031 -5.140626,0.996093 -5.734376,3.953125 z m -5.125,8.7890621 -3.238281,-5.554687 c -0.04297,1.074219 -0.05859,2.308593 -0.05859,3.722656 l 0,1.832031 z M 19.23778,39.746594 14.753406,47.438 l 8.972655,0 z m 10.253907,0 -4.484375,7.691406 8.972656,0 z M 2.59325,46.367688 0.991688,43.621594 C 1.284656,44.938 1.776844,45.801281 2.59325,46.367688 z"
     style="fill:#ffffff;fill-opacity:0.05100002"
     inkscape:connector-curvature="0" />
  <path
     style="fill:#f9f9f9"
     inkscape:connector-curvature="0"
     id="path330"
     d="M 13.453125,13 C 12.644531,13 12,13.6445 12,14.4531 l 0,15.8438 c 0,0.8086 0.644531,1.4531 1.453125,1.4531 L 18,31.75 18,37 l 6,-5.25 10.546875,0 C 35.355469,31.75 36,31.1055 36,30.2969 L 36,14.4531 C 36,13.6445 35.355094,13 34.5465,13 z M 23,17 l 2,0 0,4 3,-2 1,1.5 -3,2 3,2 -1,1.5 -3,-2 0,4 -2,0 -0.0078,-4.0312 -2.992187,2.0312 -1,-1.5 3,-2 -3,-2 1,-1.5 3,2 z" />
</svg>
