<?xml version="1.0" encoding="UTF-8" standalone="no"?>
<svg
   xmlns:dc="http://purl.org/dc/elements/1.1/"
   xmlns:cc="http://creativecommons.org/ns#"
   xmlns:rdf="http://www.w3.org/1999/02/22-rdf-syntax-ns#"
   xmlns:svg="http://www.w3.org/2000/svg"
   xmlns="http://www.w3.org/2000/svg"
   xmlns:xlink="http://www.w3.org/1999/xlink"
   xmlns:sodipodi="http://sodipodi.sourceforge.net/DTD/sodipodi-0.dtd"
   xmlns:inkscape="http://www.inkscape.org/namespaces/inkscape"
   width="48"
   viewBox="0 0 13.546667 13.546667"
   height="48"
   id="svg2"
   version="1.1"
   inkscape:version="0.48.4 r9939"
   sodipodi:docname="puddletag.svg">
  <metadata
     id="metadata32">
    <rdf:RDF>
      <cc:Work
         rdf:about="">
        <dc:format>image/svg+xml</dc:format>
        <dc:type
           rdf:resource="http://purl.org/dc/dcmitype/StillImage" />
      </cc:Work>
    </rdf:RDF>
  </metadata>
  <sodipodi:namedview
     pagecolor="#ffffff"
     bordercolor="#666666"
     borderopacity="1"
     objecttolerance="10"
     gridtolerance="10"
     guidetolerance="10"
     inkscape:pageopacity="0"
     inkscape:pageshadow="2"
     inkscape:window-width="1280"
     inkscape:window-height="998"
     id="namedview30"
     showgrid="false"
     inkscape:zoom="9.8333333"
     inkscape:cx="38.740113"
     inkscape:cy="26.979213"
     inkscape:window-x="0"
     inkscape:window-y="0"
     inkscape:window-maximized="1"
     inkscape:current-layer="svg2" />
  <defs
     id="defs4">
    <linearGradient
       id="0">
      <stop
         stop-color="#5685b1"
         id="stop7" />
      <stop
         offset="1"
         stop-color="#24547d"
         id="stop9" />
    </linearGradient>
    <linearGradient
       gradientTransform="matrix(0.28222223,0,0,0.28222223,-13.54667,-296.99999)"
       xlink:href="#0"
       id="1"
       y1="1050.36"
       x2="0"
       y2="1006.36"
       gradientUnits="userSpaceOnUse" />
    <radialGradient
       cx="148.004"
       cy="160"
       gradientTransform="matrix(0.1831,0,0,0.1831,-3.10029,-5.29688)"
       id="radial0"
       r="128"
       gradientUnits="userSpaceOnUse">
      <stop
         offset="0"
         style="stop-color:#dcd69f"
         id="stop7-9" />
      <stop
         offset="1"
         style="stop-color:#94891c"
         id="stop9-7" />
    </radialGradient>
    <radialGradient
       r="128"
       cy="160"
       cx="148.004"
       gradientTransform="matrix(0.05167489,0,0,0.05167489,-0.87511161,-1.4947562)"
       gradientUnits="userSpaceOnUse"
       id="radialGradient3018"
       xlink:href="#radial0"
       inkscape:collect="always" />
  </defs>
  <path
     inkscape:connector-curvature="0"
     style="fill:url(#radialGradient3018)"
     d="m 13.387776,3.2589258 0,7.0290972 c 0,2.892778 0,3.100035 -3.100035,3.100035 l -7.0279951,0 c -3.10113701,0 -3.10113701,-0.207257 -3.10113701,-3.100035 l 0,-7.0290972 c 0,-2.89277783 0,-3.10003473 3.10113701,-3.10003473 l 7.0279951,0 c 3.100035,0 3.100035,0.2072569 3.100035,3.10003473 z"
     id="path11" />
  <path
     id="path15"
     d="m 10.799269,13.388058 c 0.717682,-0.0033 1.235825,-0.02315 1.611753,-0.124574 l -1.193932,-2.046112 -1.2655901,2.170686 0.3362411,0 c 0.180799,0 0.350573,0 0.511528,0 z M 11.21709,11.217372 9.7707012,8.7369034 8.32321,11.217372 z m 0,0 2.159662,0 c 0.0088,-0.274505 0.01102,-0.582083 0.01102,-0.930451 l 0,-0.3097833 -0.723194,-1.2402343 z M 12.664581,8.7369034 11.21709,6.2564347 9.7707012,8.7369034 z m 0,0 0.723195,0 0,-1.2402343 z m -2.8938798,0 L 8.32321,6.2564347 6.876821,8.7369034 z m -2.8938802,0 -1.4474915,2.4804686 2.8938805,0 z m 0,0 -1.4474915,-2.4804687 -1.446389,2.4804687 z m -2.8938805,0 -1.4474913,2.4804686 2.8938803,0 z m 0,0 L 2.5354492,6.2564347 1.0890603,8.7369034 z m -2.8938802,0 -0.9304514,1.5941146 c 0,0.329627 0.003307,0.623976 0.0110242,0.886354 l 2.36581614,0 z m 0,0 -0.9304514,-1.5941145 0,1.5941145 z m 1.4463889,2.4804686 -1.2170833,2.086901 c 0.450894,0.08268 1.0748699,0.08378 1.9413802,0.08378 l 0.5423958,0 z m 0,-4.9609373 -1.4463889,-2.4804689 -0.9304514,1.5941147 0,0.8863542 z m 0,0 2.8938803,0 -1.446389,-2.4804689 z M 3.9829405,3.7759658 2.5354492,1.2954971 1.0890603,3.7759658 z m 0,0 2.8938805,0 -1.4474915,-2.4804687 z m 1.446389,-2.4804687 -0.6636631,-1.13660602 -1.5070227,0 c -0.020946,0 -0.038585,0 -0.059531,0 L 2.5354492,1.2954971 z m 0,0 2.8938805,0 -0.6636634,-1.13660602 -1.5665538,0 z m 2.8938805,0 2.89388,0 -0.663663,-1.13660602 c -0.08819,0 -0.171979,0 -0.266788,0 l -1.299766,0 z m 0,0 -1.446389,2.4804687 2.8938802,0 z m 1.4474912,2.4804687 2.8938798,0 -1.447491,-2.4804687 z m 0,0 -1.4474912,2.4804689 2.89388,0 z m 1.4463888,2.4804689 2.170686,0 0,-1.2402343 -0.723195,-1.2402346 z m 1.447491,-2.4804689 0.723195,0 0,-0.5170399 c 0,-0.2579689 -0.0022,-0.4938889 -0.0066,-0.71217 z M 8.32321,6.2564347 6.876821,3.7759658 5.4293295,6.2564347 z m 2.89388,-4.9609376 2.062648,0 C 13.123193,0.51718095 12.747264,0.27133914 11.859807,0.19416885 z m -8.6816408,0 L 1.8850153,0.17983733 C 0.85203767,0.23826608 0.4342164,0.46095692 0.26664695,1.2954971 z M 1.0890603,3.7759658 0.17514543,2.2083096 C 0.16301862,2.5114781 0.1586089,2.8598459 0.1586089,3.2589259 l 0,0.5170399 z m 4.3402692,7.4414062 -1.2655904,2.170686 2.532283,0 z m 2.8938805,0 -1.2655906,2.170686 2.5322832,0 z m -7.5913372,1.86862 -0.4519964,-0.775009 c 0.0826821,0.37152 0.22158848,0.615157 0.4519964,0.775009 z"
     style="fill:#ffffff;fill-opacity:0.05100002"
     inkscape:connector-curvature="0" />
  <path
     d="M 23.71875 16 C 23.114676 16.001266 22.651677 16.113405 22.125 16.375 C 21.617602 16.627018 21.211738 16.95325 20.875 17.4375 C 20.469369 18.020829 20.125 19.089942 20.125 19.71875 C 20.125 19.849828 20.090705 19.982149 20.0625 20 C 20.034154 20.017823 19.906329 19.973077 19.78125 19.90625 C 19.597175 19.80815 19.480402 19.783504 19.09375 19.78125 C 18.653108 19.77865 18.58559 19.796577 18.25 19.96875 C 17.711198 20.245234 17.31264 20.66638 17 21.3125 C 16.746583 21.836259 16.75 21.859509 16.75 22.375 C 16.75 22.827631 16.756016 22.909343 16.875 23.15625 L 17.03125 23.46875 L 16.84375 23.46875 C 16.753573 23.482215 16.412802 23.53083 16.0625 23.5625 C 14.566176 23.697833 13.339573 24.240782 12.71875 25.03125 C 12.459026 25.361911 12.15846 26.064899 12.0625 26.5625 C 11.940327 27.196014 11.99262 28.140779 12.15625 28.625 C 12.482482 29.590362 13.261014 30.377359 14.1875 30.625 C 14.77858 30.782985 15.87359 30.685553 16.4375 30.4375 C 16.554252 30.386122 16.766119 30.274364 16.90625 30.1875 C 17.046388 30.100636 17.148419 30.051484 17.15625 30.0625 C 17.164045 30.073413 17.260695 30.177713 17.34375 30.3125 C 17.832071 31.105142 19.022006 31.791992 20.15625 31.9375 C 22.169536 32.195772 24.005737 31.455266 24.78125 30.0625 C 24.883439 29.879024 24.984409 29.719547 25 29.71875 C 25.015591 29.717855 25.075181 29.788458 25.125 29.875 C 25.502054 30.53001 26.154265 31.180276 26.84375 31.53125 C 28.141036 32.191627 29.772223 31.918867 30.9375 30.84375 C 31.140248 30.656713 31.671246 30.00918 31.875 29.71875 C 31.882441 29.707837 32.032767 29.843691 32.1875 30 C 32.534744 30.35077 32.798484 30.499285 33.40625 30.65625 C 33.933515 30.792419 34.678515 30.825357 35.125 30.71875 C 35.270949 30.683848 35.598604 30.54362 35.875 30.40625 C 36.303935 30.19307 36.464334 30.080302 36.875 29.65625 C 37.25835 29.260408 37.383396 29.056378 37.5625 28.6875 C 38.15779 27.461436 38.135276 26.232132 37.5 25.25 C 37.252854 24.867894 36.627556 24.223591 36.21875 23.96875 C 35.078391 23.257879 33.545557 23.095881 32.65625 23.5625 L 32.46875 23.65625 L 32.375 23.09375 C 32.216615 22.133054 31.947063 21.553561 31.4375 20.9375 C 30.922668 20.315069 30.223729 19.966411 29.3125 19.875 C 28.810874 19.824674 28.118056 19.886506 27.65625 20.03125 C 27.469376 20.089863 27.318417 20.13293 27.3125 20.125 C 27.306476 20.116992 27.25397 19.927163 27.21875 19.6875 C 26.899002 17.512166 25.470745 15.996342 23.71875 16 z M 25.8125 21 C 26.036756 21 26.274785 21.056344 26.46875 21.1875 C 27.244617 21.712113 28 21.53125 28 21.53125 C 28 21.53125 27.235991 22.753319 26.25 22.5625 C 25.318111 22.382897 25.125088 22.629789 25.09375 22.65625 L 25.0625 26.625 C 25.062228 26.651894 25.064023 26.661042 25.0625 26.6875 C 25.018342 27.537234 24.256817 28.389633 23.21875 28.78125 C 21.901865 29.278167 20.527897 28.845533 20.125 27.8125 C 19.722102 26.779667 20.433122 25.528193 21.75 25.03125 C 22.769323 24.646734 23.852374 24.829127 24.46875 25.40625 L 24.46875 21.46875 L 24.4375 21.40625 C 24.4375 21.40625 25.139676 20.990501 25.8125 21 z "
     transform="scale(.28222)"
     fill="#f9f9f9"
     fill-opacity="0.941"
     id="path28" />
</svg>
