<svg xmlns="http://www.w3.org/2000/svg" viewBox="0 0 48 48"><defs><radialGradient id="0" cx="24" cy="24" r="23.437" gradientUnits="userSpaceOnUse"><stop stop-color="#145fbb"/><stop offset="1" stop-color="#003f9b"/></radialGradient></defs><path d="m 47.44 11.547 l 0 24.906 c 0 10.25 0 10.984 -10.984 10.984 l -24.902 0 c -10.988 0 -10.988 -0.734 -10.988 -10.984 l 0 -24.906 c 0 -10.25 0 -10.984 10.988 -10.984 l 24.902 0 c 10.984 0 10.984 0.734 10.984 10.984" fill="url(#0)"/><path d="m 15.289 17.609 c -3.477 0 -6.289 2.902 -6.289 6.492 c 0 3.59 2.813 6.488 6.289 6.488 c 1.844 0 3.559 -0.285 4.711 -1.59 l 0 6 c 0 0.898 0.629 1.5 1.5 1.5 c 0.871 0 1.5 -0.602 1.5 -1.5 l 0 -16 c 0 -0.898 -0.617 -1.395 -1.488 -1.395 c -0.871 0 -1.457 0.496 -1.512 1.395 l -0.043 0.711 l 0.043 2.289 l 2 0 c -1.082 1.543 -1.848 2.508 -3 4 c -1.188 -1.508 -1.816 -2.488 -3 -4 l 2 0 l 0 -4 c -0.633 -0.215 -2.01 -0.395 -2.711 -0.395 m 0 0.004" fill="#fff"/><path d="m 26.453 11.5 c -0.871 0 -1.453 0.602 -1.453 1.5 l 0 16 c 0 0.902 0.582 1.59 1.453 1.59 c 0.871 0 1.469 -0.691 1.547 -1.59 l 0.043 -0.516 l -0.043 -2.484 l -2 0 c 1.129 -1.441 1.867 -2.555 3 -4 c 1.184 1.516 1.813 2.492 3 4 l -2 0 l 0 4 c 0.633 0.219 2.01 0.59 2.711 0.59 c 3.477 0 6.289 -2.902 6.289 -6.488 c 0 -3.59 -2.813 -6.492 -6.289 -6.492 c -1.844 0 -3.559 1.09 -4.711 2.395 l 0 -7 c 0 -0.902 -0.672 -1.5 -1.547 -1.5 m 0 -0.004" fill="#fff"/><path d="m 38.27 47.44 c 2.543 -0.012 4.379 -0.082 5.711 -0.441 l -4.23 -7.25 -4.484 7.691 1.191 0 c 0.641 0 1.242 0 1.813 0 z m 1.48 -7.691 -5.125 -8.789 -5.129 8.789 z m 0 0 7.652 0 c 0.031 -0.973 0.039 -2.063 0.039 -3.297 l 0 -1.098 -2.563 -4.395 z m 5.129 -8.789 -5.129 -8.789 -5.125 8.789 z m 0 0 2.563 0 0 -4.395 z m -10.254 0 -5.129 -8.789 -5.125 8.789 z m -10.254 0 -5.129 8.789 10.254 0 z m 0 0 -5.129 -8.789 -5.125 8.789 z m -10.254 0 -5.129 8.789 10.254 0 z m 0 0 -5.129 -8.789 -5.125 8.789 z m -10.254 0 -3.297 5.648 c 0 1.168 0.012 2.211 0.039 3.141 l 8.383 0 z m 0 0 -3.297 -5.648 0 5.648 z m 5.125 8.789 -4.313 7.395 c 1.598 0.293 3.809 0.297 6.879 0.297 l 1.922 0 z m 0 -17.578 -5.125 -8.789 -3.297 5.648 0 3.141 z m 0 0 10.254 0 -5.125 -8.789 z m 5.129 -8.789 -5.129 -8.789 -5.125 8.789 z m 0 0 10.254 0 -5.129 -8.789 z m 5.125 -8.789 -2.352 -4.03 -5.336 0 c -0.078 0 -0.141 0 -0.215 0 l -2.352 4.03 z m 0 0 10.254 0 -2.352 -4.03 -5.551 0 z m 10.254 0 10.254 0 l -2.352 -4.03 c -0.313 0 -0.609 0 -0.941 0 l -4.609 0 z m 0 0 -5.125 8.789 10.254 0 z m 5.129 8.789 10.254 0 -5.129 -8.789 z m 0 0 -5.129 8.789 10.254 0 z m 5.125 8.789 7.691 0 0 -4.395 -2.563 -4.395 z m 5.129 -8.789 2.563 0 0 -1.832 c 0 -0.914 -0.008 -1.75 -0.023 -2.523 z m -15.383 8.789 -5.125 -8.789 -5.129 8.789 z m 10.254 -17.578 7.309 0 c -0.555 -2.758 -1.887 -3.629 -5.03 -3.902 z m -30.762 0 l -2.305 -3.953 c -3.66 0.207 -5.141 0.996 -5.734 3.953 z m -5.125 8.789 l -3.238 -5.555 c -0.043 1.074 -0.059 2.309 -0.059 3.723 l 0 1.832 z m 15.379 26.367 -4.484 7.691 8.973 0 z m 10.254 0 -4.484 7.691 8.973 0 z m -26.898 6.621 -1.602 -2.746 c 0.293 1.316 0.785 2.18 1.602 2.746 z" fill="#fff" fill-opacity="0.05"/></svg>