<?xml version="1.0" encoding="UTF-8" standalone="no"?>
<svg
   xmlns:dc="http://purl.org/dc/elements/1.1/"
   xmlns:cc="http://creativecommons.org/ns#"
   xmlns:rdf="http://www.w3.org/1999/02/22-rdf-syntax-ns#"
   xmlns:svg="http://www.w3.org/2000/svg"
   xmlns="http://www.w3.org/2000/svg"
   xmlns:xlink="http://www.w3.org/1999/xlink"
   xmlns:sodipodi="http://sodipodi.sourceforge.net/DTD/sodipodi-0.dtd"
   xmlns:inkscape="http://www.inkscape.org/namespaces/inkscape"
   width="48"
   viewBox="0 0 13.546667 13.546667"
   height="48"
   id="svg2"
   version="1.1"
   inkscape:version="0.48.4 r9939"
   sodipodi:docname="qjackctl.svg">
  <metadata
     id="metadata112">
    <rdf:RDF>
      <cc:Work
         rdf:about="">
        <dc:format>image/svg+xml</dc:format>
        <dc:type
           rdf:resource="http://purl.org/dc/dcmitype/StillImage" />
      </cc:Work>
    </rdf:RDF>
  </metadata>
  <sodipodi:namedview
     pagecolor="#ffffff"
     bordercolor="#666666"
     borderopacity="1"
     objecttolerance="10"
     gridtolerance="10"
     guidetolerance="10"
     inkscape:pageopacity="0"
     inkscape:pageshadow="2"
     inkscape:window-width="672"
     inkscape:window-height="480"
     id="namedview110"
     showgrid="false"
     inkscape:zoom="4.9166667"
     inkscape:cx="23.186441"
     inkscape:cy="23.389831"
     inkscape:window-x="0"
     inkscape:window-y="0"
     inkscape:window-maximized="0"
     inkscape:current-layer="svg2" />
  <defs
     id="defs4">
    <linearGradient
       id="0">
      <stop
         stop-color="#5988c8"
         id="stop7" />
      <stop
         offset="1"
         stop-color="#93b3e0"
         id="stop9" />
    </linearGradient>
    <linearGradient
       gradientUnits="userSpaceOnUse"
       x2="0"
       y2="40"
       y1="280"
       xlink:href="#2"
       id="1"
       gradientTransform="matrix(.175 0 0 .175 302.79999 215.99997)" />
    <linearGradient
       id="2">
      <stop
         stop-color="#151515"
         id="stop13" />
      <stop
         offset="1"
         stop-color="#222"
         id="stop15" />
    </linearGradient>
    <linearGradient
       gradientUnits="userSpaceOnUse"
       x2="0"
       y2="90"
       y1="230"
       xlink:href="#2"
       id="3"
       gradientTransform="matrix(.375 0 0 .375 298 16)" />
    <linearGradient
       gradientUnits="userSpaceOnUse"
       x2="0"
       y2="90"
       y1="230"
       xlink:href="#2"
       id="4"
       gradientTransform="matrix(.25 0 0 .25 299.99999 131.99999)" />
    <linearGradient
       gradientUnits="userSpaceOnUse"
       x2="264"
       x1="265"
       y2="276"
       y1="40"
       xlink:href="#2"
       gradientTransform="matrix(-1 0 0 -1 289 315)"
       id="linearGradient19" />
    <clipPath
       id="clipPath21">
      <rect
         height="20"
         rx="4"
         y="78"
         x="434"
         width="20"
         color="#bebebe"
         id="rect23" />
    </clipPath>
    <clipPath
       id="clipPath25">
      <rect
         height="22"
         rx="4"
         y="77"
         x="433"
         width="22"
         color="#bebebe"
         id="rect27" />
    </clipPath>
    <clipPath
       id="clipPath29">
      <rect
         height="22"
         rx="5"
         y="77"
         x="433"
         width="22"
         color="#bebebe"
         id="rect31" />
    </clipPath>
    <clipPath
       id="clipPath33">
      <rect
         height="30"
         rx="6"
         y="29"
         x="433"
         width="30"
         color="#bebebe"
         id="rect35" />
    </clipPath>
    <clipPath
       id="clipPath37">
      <rect
         transform="matrix(0 -1 1 0 0 0)"
         height="60"
         rx="12.5"
         y="142"
         x="306"
         width="60"
         fill="url(#4)"
         color="#bebebe"
         id="rect39" />
    </clipPath>
    <clipPath
       id="clipPath41">
      <rect
         height="90"
         rx="18.75"
         y="31"
         x="307"
         width="90"
         fill="url(#3)"
         color="#bebebe"
         id="rect43" />
    </clipPath>
    <clipPath
       id="clipPath45">
      <rect
         height="30"
         rx="4"
         y="29"
         x="433"
         width="30"
         opacity="0.2"
         fill="#6d6d6d"
         color="#bebebe"
         id="rect47" />
    </clipPath>
    <clipPath
       id="clipPath49">
      <rect
         height="22"
         rx="3"
         y="77"
         x="433"
         width="22"
         opacity="0.2"
         fill="#6d6d6d"
         color="#bebebe"
         id="rect51" />
    </clipPath>
    <clipPath
       id="clipPath53">
      <path
         d="m 144,70 c -49.705627,0 -90,40.29437 -90,90 0,49.70563 40.294373,90 90,90 49.70563,0 90,-40.29437 90,-90 0,-49.70563 -40.29437,-90 -90,-90 z m 0,32.1875 c 32.03251,0 58,25.96748 58,58 0,32.03252 -25.96749,58 -58,58 -32.03251,0 -58,-25.96748 -58,-58 0,-32.03252 25.96749,-58 58,-58 z"
         id="path55" />
    </clipPath>
    <clipPath
       id="clipPath57">
      <path
         d="m 152,204 a 8,8 0 1 1 -16,0 8,8 0 1 1 16,0 z"
         id="path59" />
    </clipPath>
    <clipPath
       id="clipPath61">
      <rect
         height="16"
         rx="3"
         y="116"
         x="432"
         width="16"
         color="#bebebe"
         id="rect63" />
    </clipPath>
    <clipPath
       id="clipPath65">
      <path
         d="m 145,215 c 33.13708,0 60,-26.86292 60,-60 0,-33.13708 -26.86292,-60 -60,-60 -33.13708,0 -60,26.86292 -60,60 0,12.50698 3.8285,24.10633 10.375,33.71875 L 89,211 111.28125,204.625 C 120.89367,211.1715 132.49302,215 145,215 z"
         id="path67" />
    </clipPath>
    <clipPath
       id="clipPath69">
      <path
         d="m 98.03125,23.191212 c -41.492132,1.05238 -74.84375,35.06824 -74.84375,76.812498 0,42.40687 34.405632,76.8125 76.8125,76.8125 42.40687,0 76.8125,-34.40563 76.8125,-76.8125 0,-42.406866 -34.40563,-76.812498 -76.8125,-76.812498 -0.662607,0 -1.310145,-0.0167 -1.96875,0 z M 100,50.659962 c 27.24464,0 49.34375,22.099114 49.34375,49.343748 -1e-5,27.24464 -22.09911,49.34375 -49.34375,49.34375 -27.244636,-1e-5 -49.34375,-22.09911 -49.34375,-49.34375 0,-27.244634 22.099114,-49.343748 49.34375,-49.343748 z"
         id="path71" />
    </clipPath>
    <clipPath
       id="clipPath73">
      <rect
         height="16"
         rx="2"
         y="116"
         x="432"
         width="16"
         opacity="0.2"
         fill="#6d6d6d"
         color="#bebebe"
         id="rect75" />
    </clipPath>
    <clipPath
       id="clipPath77">
      <rect
         height="240"
         rx="50"
         y="36"
         x="24"
         width="240"
         fill="#986767"
         color="#bebebe"
         id="rect79" />
    </clipPath>
    <clipPath
       id="clipPath81">
      <rect
         transform="rotate(90)"
         height="42"
         rx="9"
         y="223"
         x="307"
         width="42"
         fill="url(#1)"
         color="#bebebe"
         id="rect83" />
    </clipPath>
    <filter
       color-interpolation-filters="sRGB"
       id="filter85">
      <feBlend
         mode="darken"
         in2="BackgroundImage"
         id="feBlend87" />
    </filter>
    <linearGradient
       gradientTransform="matrix(0.28222223,0,0,0.28222223,0,-283.45334)"
       xlink:href="#0"
       id="5"
       y1="1050.36"
       x2="0"
       y2="1006.36"
       gradientUnits="userSpaceOnUse" />
    <radialGradient
       r="128"
       cy="160"
       cx="148.004"
       gradientTransform="matrix(0.05167489,0,0,0.05167489,-0.87510721,-1.4947563)"
       gradientUnits="userSpaceOnUse"
       id="radialGradient3009"
       xlink:href="#radial0"
       inkscape:collect="always" />
    <radialGradient
       cx="148.004"
       cy="160"
       gradientTransform="matrix(0.1831,0,0,0.1831,-3.10029,-5.29688)"
       id="radial0"
       r="128"
       gradientUnits="userSpaceOnUse">
      <stop
         offset="0"
         style="stop-color:#cce2ff"
         id="stop7-9" />
      <stop
         offset="1"
         style="stop-color:#6693ce;stop-opacity:1;"
         id="stop9-9" />
    </radialGradient>
    <radialGradient
       r="128"
       cy="160"
       cx="148.004"
       gradientTransform="matrix(0.05167489,0,0,0.05167489,-0.87510811,-1.494756)"
       gradientUnits="userSpaceOnUse"
       id="radialGradient3013"
       xlink:href="#radial0"
       inkscape:collect="always" />
  </defs>
  <path
     inkscape:connector-curvature="0"
     style="fill:url(#radialGradient3013)"
     d="m 13.387779,3.2589262 0,7.0290968 c 0,2.892778 0,3.100035 -3.100035,3.100035 l -7.0279938,0 c -3.10113831,0 -3.10113831,-0.207257 -3.10113831,-3.100035 l 0,-7.0290968 c 0,-2.89277779 0,-3.10003479 3.10113831,-3.10003479 l 7.0279938,0 c 3.100035,0 3.100035,0.207257 3.100035,3.10003479 z"
     id="path11" />
  <path
     id="path15-4"
     d="m 10.799272,13.388058 c 0.717682,-0.0033 1.235825,-0.02315 1.611753,-0.124574 l -1.193932,-2.046112 -1.2655893,2.170686 0.3362403,0 c 0.180799,0 0.350573,0 0.511528,0 z M 11.217093,11.217372 9.770705,8.7369037 8.3232138,11.217372 z m 0,0 2.159662,0 c 0.0088,-0.274505 0.01102,-0.582083 0.01102,-0.930451 l 0,-0.309783 -0.723193,-1.2402343 z M 12.664584,8.7369037 11.217093,6.256435 9.770705,8.7369037 z m 0,0 0.723195,0 0,-1.2402343 z m -2.893879,0 L 8.3232138,6.256435 6.8768248,8.7369037 z m -2.8938802,0 -1.4474915,2.4804683 2.8938805,0 z m 0,0 L 5.4293333,6.256435 3.9829443,8.7369037 z m -2.8938805,0 -1.4474913,2.4804683 2.8938803,0 z m 0,0 L 2.535453,6.256435 1.089064,8.7369037 z m -2.8938803,0 -0.93045211,1.5941143 c 0,0.329627 0.0033,0.623976 0.01103,0.886354 l 2.36581611,0 z m 0,0 -0.93045211,-1.5941145 0,1.5941145 z m 1.446389,2.4804683 -1.217084,2.086901 c 0.4508941,0.08268 1.0748702,0.08378 1.9413812,0.08378 l 0.5423955,0 z m 0,-4.960937 -1.446389,-2.4804689 -0.93045211,1.5941147 0,0.8863542 z m 0,0 2.8938803,0 -1.446389,-2.4804689 z M 3.9829443,3.7759661 2.535453,1.2954973 1.089064,3.7759661 z m 0,0 2.8938805,0 -1.4474915,-2.4804688 z m 1.446389,-2.4804688 -0.6636628,-1.13660589 -1.507023,0 c -0.020946,0 -0.038585,0 -0.059531,0 L 2.5354529,1.2954973 z m 0,0 2.8938805,0 -0.6636634,-1.13660589 -1.5665538,0 z m 2.8938805,0 2.8938792,0 -0.663663,-1.13660589 c -0.08819,0 -0.171979,0 -0.266788,0 l -1.2997652,0 z m 0,0 -1.446389,2.4804688 2.8938802,0 z m 1.4474912,2.4804688 2.893879,0 -1.447491,-2.4804688 z m 0,0 -1.4474912,2.4804689 2.8938792,0 z m 1.446388,2.4804689 2.170686,0 0,-1.2402343 -0.723195,-1.2402346 z m 1.447491,-2.4804689 0.723195,0 0,-0.5170399 c 0,-0.2579689 -0.0022,-0.4938891 -0.0066,-0.7121702 z M 8.3232138,6.256435 6.8768248,3.7759661 5.4293333,6.256435 z m 2.8938792,-4.9609377 2.062648,0 C 13.123196,0.51718121 12.747267,0.27133921 11.85981,0.19416891 z m -8.68164,0 L 1.885019,0.17983741 C 0.85204109,0.23826641 0.43421989,0.46095721 0.26665089,1.2954973 z M 1.089064,3.7759661 0.17514889,2.2083098 c -0.01213,0.3031684 -0.01654,0.6515363 -0.01654,1.0506164 l 0,0.5170399 z m 4.3402693,7.4414059 -1.2655903,2.170686 2.5322829,0 z m 2.8938805,0 -1.2655906,2.170686 2.5322832,0 z m -7.59133791,1.86862 -0.451996,-0.775009 c 0.08268,0.37152 0.221588,0.615157 0.451996,0.775009 z"
     style="fill:#ffffff;fill-opacity:0.05100002"
     inkscape:connector-curvature="0" />
  <path
     d="M 34.375 12 C 34.287712 11.997373 34.18431 12.015597 34.09375 12.03125 C 33.711866 12.071669 33.367412 12.231444 33.09375 12.5 L 27.65625 17.90625 L 26.46875 16.71875 L 26.40625 16.71875 L 24.71875 18.46875 L 21.5625 21.65625 L 20.34375 22.84375 L 16.71875 26.40625 L 17.90625 27.65625 L 12.46875 33.0625 C 11.823394 33.705735 11.823394 34.888015 12.46875 35.53125 C 13.114088 36.174484 14.323411 36.174484 14.96875 35.53125 L 20.34375 30.125 L 21.5625 31.28125 L 21.625 31.28125 L 26.40625 26.46875 L 26.53125 26.375 L 28.0625 24.84375 L 31.375 21.59375 L 30.125 20.375 L 35.5625 14.96875 C 36.577953 14.040371 35.684313 12.039412 34.375 12 z "
     transform="scale(0.28222223,0.28222223)"
     id="path106"
     style="fill:#f9f9f9;fill-opacity:1" />
</svg>
