<?xml version="1.0" encoding="UTF-8" standalone="no"?>
<svg
   xmlns:dc="http://purl.org/dc/elements/1.1/"
   xmlns:cc="http://creativecommons.org/ns#"
   xmlns:rdf="http://www.w3.org/1999/02/22-rdf-syntax-ns#"
   xmlns:svg="http://www.w3.org/2000/svg"
   xmlns="http://www.w3.org/2000/svg"
   xmlns:xlink="http://www.w3.org/1999/xlink"
   xmlns:sodipodi="http://sodipodi.sourceforge.net/DTD/sodipodi-0.dtd"
   xmlns:inkscape="http://www.inkscape.org/namespaces/inkscape"
   width="48"
   viewBox="0 0 13.546667 13.546667"
   height="48"
   id="svg2"
   version="1.1"
   inkscape:version="0.48.4 r9939"
   sodipodi:docname="quodlibet.svg">
  <metadata
     id="metadata36">
    <rdf:RDF>
      <cc:Work
         rdf:about="">
        <dc:format>image/svg+xml</dc:format>
        <dc:type
           rdf:resource="http://purl.org/dc/dcmitype/StillImage" />
      </cc:Work>
    </rdf:RDF>
  </metadata>
  <sodipodi:namedview
     pagecolor="#ffffff"
     bordercolor="#666666"
     borderopacity="1"
     objecttolerance="10"
     gridtolerance="10"
     guidetolerance="10"
     inkscape:pageopacity="0"
     inkscape:pageshadow="2"
     inkscape:window-width="640"
     inkscape:window-height="480"
     id="namedview34"
     showgrid="false"
     inkscape:zoom="4.9166667"
     inkscape:cx="24"
     inkscape:cy="24"
     inkscape:window-x="0"
     inkscape:window-y="0"
     inkscape:window-maximized="0"
     inkscape:current-layer="svg2" />
  <defs
     id="defs4">
    <clipPath
       id="clipPath6">
      <path
         d="M -670.14006,51.863192 L -114.61564,405.00326 L -257.11075,510.32573 L -514.2215,-71.013029 L -670.14006,51.863192 z"
         id="path8" />
    </clipPath>
    <linearGradient
       id="0">
      <stop
         stop-color="#0c0e10"
         id="stop11" />
      <stop
         offset="1"
         stop-color="#203e4e"
         id="stop13" />
    </linearGradient>
    <linearGradient
       gradientTransform="matrix(0.28222223,0,0,0.28222223,0,-283.45334)"
       xlink:href="#0"
       id="1"
       y1="1050.36"
       x2="0"
       y2="1006.36"
       gradientUnits="userSpaceOnUse" />
    <radialGradient
       r="128"
       cy="160"
       cx="148.004"
       spreadMethod="pad"
       gradientTransform="matrix(0.05167489,0,0,0.05167489,-0.87511211,-1.4947614)"
       gradientUnits="userSpaceOnUse"
       id="radialGradient3011"
       xlink:href="#linearGradient4460-7-2"
       inkscape:collect="always" />
    <linearGradient
       id="linearGradient4460-7-2">
      <stop
         offset="0"
         style="stop-color:#5b5890;stop-opacity:1;"
         id="stop8-6-7" />
      <stop
         offset="1"
         style="stop-color:#030127;stop-opacity:1;"
         id="stop10-2-5" />
    </linearGradient>
    <radialGradient
       r="128"
       cy="160"
       cx="148.004"
       spreadMethod="pad"
       gradientTransform="matrix(0.05167489,0,0,0.05167489,-0.87511211,-1.4947614)"
       gradientUnits="userSpaceOnUse"
       id="radialGradient3081"
       xlink:href="#linearGradient4460-7-2"
       inkscape:collect="always" />
  </defs>
  <path
     inkscape:connector-curvature="0"
     style="fill:url(#radialGradient3081);fill-opacity:1"
     d="m 13.387775,3.2589206 0,7.0290974 c 0,2.892778 0,3.100035 -3.100034,3.100035 l -7.0279942,0 c -3.10113791,0 -3.10113791,-0.207257 -3.10113791,-3.100035 l 0,-7.0290974 c 0,-2.89277789 0,-3.10003479 3.10113791,-3.10003479 l 7.0279942,0 c 3.100034,0 3.100034,0.2072569 3.100034,3.10003479 z"
     id="path11-4" />
  <path
     inkscape:connector-curvature="0"
     id="path15-5"
     d="m 10.799268,13.388053 c 0.717683,-0.0033 1.235826,-0.02315 1.611754,-0.124575 l -1.193933,-2.046111 -1.2655892,2.170686 0.3362412,0 c 0.180799,0 0.350572,0 0.511527,0 z M 11.217089,11.217367 9.7707008,8.7368981 8.3232098,11.217367 z m 0,0 2.159663,0 c 0.0088,-0.274505 0.01102,-0.582083 0.01102,-0.930451 l 0,-0.3097839 -0.723193,-1.240234 z M 12.664582,8.7368981 11.217089,6.2564294 9.7707008,8.7368981 z m 0,0 0.723193,0 0,-1.2402343 z m -2.8938812,0 -1.447491,-2.4804687 -1.446389,2.4804687 z m -2.89388,0 -1.447491,2.4804689 2.89388,0 z m 0,0 -1.447491,-2.4804687 -1.44639,2.4804687 z m -2.893881,0 -1.44749,2.4804689 2.89388,0 z m 0,0 -1.44749,-2.4804687 -1.44639,2.4804687 z m -2.89388,0 -0.93045091,1.5941149 c 0,0.329627 0.0033,0.623976 0.011021,0.886354 l 2.36581691,0 z m 0,0 -0.93045091,-1.5941145 0,1.5941145 z m 1.44639,2.4804689 -1.217083,2.086901 c 0.450893,0.08268 1.074869,0.08379 1.94138,0.08379 l 0.542395,0 z m 0,-4.9609376 -1.44639,-2.4804689 -0.93045091,1.5941147 0,0.8863542 z m 0,0 2.89388,0 -1.44639,-2.4804689 z m 1.44749,-2.4804689 -1.44749,-2.4804687 -1.44639,2.4804687 z m 0,0 2.893881,0 -1.447491,-2.4804687 z m 1.44639,-2.4804687 -0.663663,-1.13660599 -1.50592,0 c -0.02205,0 -0.03969,0 -0.06063,0 L 2.5354538,1.2954918 z m 0,0 2.89388,0 -0.663663,-1.13660599 -1.566555,0 z m 2.89388,0 2.8938792,0 -0.663662,-1.13660599 c -0.0882,0 -0.17198,0 -0.265686,0 l -1.3008682,0 z m 0,0 -1.446389,2.4804687 2.89388,0 z m 1.447491,2.4804687 2.8938812,0 -1.447493,-2.4804687 z m 0,0 -1.447491,2.4804689 2.8938792,0 z m 1.4463882,2.4804689 2.170686,0 0,-1.2402343 -0.723193,-1.2402346 z m 1.447493,-2.4804689 0.723193,0 0,-0.5170399 c 0,-0.2579689 -0.0022,-0.4938888 -0.0066,-0.71217 z M 8.3232098,6.2564294 6.8768208,3.7759605 5.4293298,6.2564294 z m 2.8938792,-4.9609376 2.062648,0 C 13.123192,0.51717571 12.747264,0.27133381 11.859806,0.19416361 z m -8.6816392,0 -0.650434,-1.11565979 C 0.85203709,0.23826101 0.43421609,0.46095171 0.26664689,1.2954918 z M 1.0890598,3.7759605 0.17514479,2.2083044 c -0.01213,0.3031684 -0.01653,0.6515362 -0.01653,1.0506162 l 0,0.5170399 z m 4.34027,7.4414065 -1.265591,2.170686 2.532283,0 z m 2.89388,0 -1.26559,2.170686 2.532283,0 z m -7.59133701,1.86862 -0.4519967,-0.775009 c 0.08268,0.371519 0.2215888,0.615157 0.4519967,0.775009 z"
     style="fill:#ffffff;fill-opacity:0.05100002" />
  <path
     d="m 10.16,9.5955558 c 0,0 -0.5644442,-0.8466667 -1.4111109,-0.8466667 -0.7890009,0.152067 -1.1023301,0.022664 -1.1288621,0 l 0,-3.415667 C 7.582647,4.6137701 6.9932352,3.8928621 6.1143392,3.5612841 4.9993723,3.1405708 3.8210414,3.5065441 3.4799234,4.3811391 c -0.3411198,0.874464 0.2828819,1.933007 1.3978528,2.353739 0.863029,0.325558 1.6559105,0.2448992 2.1777795,-0.2437668 l 0,3.3866667 C 8.1844446,10.628495 9.2338746,9.6070876 10.16,9.5955558 z"
     fill="#f9f9f9"
     color="#000000"
     id="path32" />
</svg>
