<?xml version="1.0" encoding="UTF-8" standalone="no"?>
<svg
   xmlns:dc="http://purl.org/dc/elements/1.1/"
   xmlns:cc="http://creativecommons.org/ns#"
   xmlns:rdf="http://www.w3.org/1999/02/22-rdf-syntax-ns#"
   xmlns:svg="http://www.w3.org/2000/svg"
   xmlns="http://www.w3.org/2000/svg"
   xmlns:xlink="http://www.w3.org/1999/xlink"
   xmlns:sodipodi="http://sodipodi.sourceforge.net/DTD/sodipodi-0.dtd"
   xmlns:inkscape="http://www.inkscape.org/namespaces/inkscape"
   width="48"
   viewBox="0 0 13.546667 13.546667"
   height="48"
   id="svg2"
   version="1.1"
   inkscape:version="0.48.4 r9939"
   sodipodi:docname="rlogo_icon.svg">
  <metadata
     id="metadata38">
    <rdf:RDF>
      <cc:Work
         rdf:about="">
        <dc:format>image/svg+xml</dc:format>
        <dc:type
           rdf:resource="http://purl.org/dc/dcmitype/StillImage" />
      </cc:Work>
    </rdf:RDF>
  </metadata>
  <sodipodi:namedview
     pagecolor="#ffffff"
     bordercolor="#666666"
     borderopacity="1"
     objecttolerance="10"
     gridtolerance="10"
     guidetolerance="10"
     inkscape:pageopacity="0"
     inkscape:pageshadow="2"
     inkscape:window-width="672"
     inkscape:window-height="480"
     id="namedview36"
     showgrid="false"
     inkscape:zoom="3.4766083"
     inkscape:cx="-12.459358"
     inkscape:cy="13.784167"
     inkscape:window-x="0"
     inkscape:window-y="0"
     inkscape:window-maximized="0"
     inkscape:current-layer="svg2" />
  <defs
     id="defs4">
    <linearGradient
       id="0">
      <stop
         stop-color="#80a1ca"
         id="stop7" />
      <stop
         offset="1"
         stop-color="#c2d2e6"
         id="stop9" />
    </linearGradient>
    <linearGradient
       gradientTransform="matrix(0.28222223,0,0,0.28222223,0,-283.45334)"
       xlink:href="#0"
       id="1"
       y1="1050.36"
       x2="0"
       y2="1006.36"
       gradientUnits="userSpaceOnUse" />
    <radialGradient
       cx="148.004"
       cy="160"
       gradientTransform="matrix(0.1831,0,0,0.1831,-3.10029,-5.29688)"
       id="radial0"
       r="128"
       gradientUnits="userSpaceOnUse">
      <stop
         offset="0"
         style="stop-color:#b3c6ed"
         id="stop7-0" />
      <stop
         offset="1"
         style="stop-color:#364e87"
         id="stop9-8" />
    </radialGradient>
    <radialGradient
       r="128"
       cy="160"
       cx="148.004"
       gradientTransform="matrix(0.05167489,0,0,0.05167489,-0.87511201,-1.4947566)"
       gradientUnits="userSpaceOnUse"
       id="radialGradient3015"
       xlink:href="#radial0"
       inkscape:collect="always" />
  </defs>
  <path
     inkscape:connector-curvature="0"
     style="fill:url(#radialGradient3015)"
     d="m 13.387776,3.2589255 0,7.0290975 c 0,2.892778 0,3.100035 -3.100035,3.100035 l -7.0279949,0 c -3.10113721,0 -3.10113721,-0.207257 -3.10113721,-3.100035 l 0,-7.0290975 c 0,-2.89277779 0,-3.10003479 3.10113721,-3.10003479 l 7.0279949,0 c 3.100035,0 3.100035,0.207257 3.100035,3.10003479 z"
     id="path11" />
  <path
     id="path15"
     d="m 10.799269,13.388058 c 0.717682,-0.0033 1.235825,-0.02315 1.611753,-0.124575 l -1.193932,-2.046111 -1.2655901,2.170686 0.3362411,0 c 0.180799,0 0.350573,0 0.511528,0 z M 11.21709,11.217372 9.7707012,8.736903 8.32321,11.217372 z m 0,0 2.159662,0 c 0.0088,-0.274505 0.01102,-0.582083 0.01102,-0.930451 l 0,-0.3097836 L 12.664581,8.736903 z M 12.664581,8.736903 11.21709,6.2564344 9.7707012,8.736903 z m 0,0 0.723195,0 0,-1.2402343 z m -2.8938798,0 L 8.32321,6.2564344 6.876821,8.736903 z m -2.8938802,0 -1.4474915,2.480469 2.8938805,0 z m 0,0 L 5.4293295,6.2564344 3.9829405,8.736903 z m -2.8938805,0 -1.4474913,2.480469 2.8938803,0 z m 0,0 L 2.5354492,6.2564344 1.0890603,8.736903 z m -2.8938802,0 -0.9304514,1.594115 c 0,0.329627 0.003307,0.623975 0.0110242,0.886354 l 2.36581614,0 z m 0,0 -0.9304514,-1.5941145 0,1.5941145 z m 1.4463889,2.480469 -1.2170833,2.086901 c 0.450894,0.08268 1.0748699,0.08378 1.9413802,0.08378 l 0.5423958,0 z m 0,-4.9609376 -1.4463889,-2.480469 -0.9304514,1.5941148 0,0.8863542 z m 0,0 2.8938803,0 -1.446389,-2.480469 z M 3.9829405,3.7759654 2.5354492,1.2954967 1.0890603,3.7759654 z m 0,0 2.8938805,0 -1.4474915,-2.4804687 z m 1.446389,-2.4804687 -0.6636631,-1.13660599 -1.5070227,0 c -0.020946,0 -0.038585,0 -0.059531,0 L 2.5354492,1.2954967 z m 0,0 2.8938805,0 -0.6636634,-1.13660599 -1.5665538,0 z m 2.8938805,0 2.89388,0 -0.663663,-1.13660599 c -0.08819,0 -0.171979,0 -0.266788,0 l -1.299766,0 z m 0,0 -1.446389,2.4804687 2.8938802,0 z m 1.4474912,2.4804687 2.8938798,0 -1.447491,-2.4804687 z m 0,0 -1.4474912,2.480469 2.89388,0 z m 1.4463888,2.480469 2.170686,0 0,-1.2402344 -0.723195,-1.2402346 z m 1.447491,-2.480469 0.723195,0 0,-0.5170399 c 0,-0.2579689 -0.0022,-0.4938889 -0.0066,-0.71217 z M 8.32321,6.2564344 6.876821,3.7759654 5.4293295,6.2564344 z m 2.89388,-4.9609377 2.062648,0 C 13.123193,0.51718058 12.747264,0.27133877 11.859807,0.19416849 z m -8.6816408,0 L 1.8850153,0.17983696 C 0.85203767,0.23826571 0.4342164,0.46095655 0.26664695,1.2954967 z M 1.0890603,3.7759654 0.17514543,2.2083092 C 0.16301862,2.5114777 0.1586089,2.8598455 0.1586089,3.2589255 l 0,0.5170399 z m 4.3402692,7.4414066 -1.2655904,2.170686 2.532283,0 z m 2.8938805,0 -1.2655906,2.170686 2.5322832,0 z m -7.5913372,1.86862 -0.4519964,-0.775009 c 0.0826821,0.371519 0.22158848,0.615156 0.4519964,0.775009 z"
     style="fill:#ffffff;fill-opacity:0.05100002"
     inkscape:connector-curvature="0" />
  <path
     d="M 24.5 17 C 18.70101 17 14 20.134007 14 24 C 14 27.865993 18.70101 31 24.5 31 C 29.671668 31 33.94304 28.500223 34.8125 25.21875 C 33.92666 27.952849 30.090867 30 25.5 30 C 20.253295 30 16 27.313709 16 24 C 16 20.686291 20.253295 18 25.5 18 C 30.090867 18 33.92666 20.047151 34.8125 22.78125 C 33.94304 19.499777 29.671668 17 24.5 17 z M 34.8125 22.78125 C 34.875774 22.976543 34.905067 23.173298 34.9375 23.375 C 34.910568 23.171795 34.864921 22.979093 34.8125 22.78125 z M 34.8125 25.21875 C 34.864921 25.020907 34.910568 24.828205 34.9375 24.625 C 34.905067 24.826702 34.875774 25.023457 34.8125 25.21875 z "
     transform="scale(0.28222223,0.28222223)"
     fill="#555753"
     id="path30"
     style="fill:#f9f9f9;fill-opacity:1" />
  <path
     d="m 6.2088891,5.3622223 0,4.2333335 0.8466667,0 0,-1.4111112 0.2822222,0 0.8466667,1.4111112 0.8466667,0 L 8.1844447,8.1844446 8.1227086,8.0874308 C 8.6521637,7.8840521 9.0311114,7.3743957 9.0311114,6.7733335 c 0,-0.7793352 -0.631776,-1.4111112 -1.4111112,-1.4111112 l -0.5644444,0 -0.8466667,0 z m 0.8466667,0.8466667 0.5644444,0 c 0.3117342,0 0.5644445,0.2527103 0.5644445,0.5644445 0,0.3117342 -0.2527103,0.5644445 -0.5644445,0.5644445 l -0.5644444,0 0,-1.128889 z"
     id="path34"
     fill="#555753"
     style="fill:#f9f9f9;fill-opacity:1" />
</svg>
