<?xml version="1.0" encoding="UTF-8" standalone="no"?>
<svg
   xmlns:dc="http://purl.org/dc/elements/1.1/"
   xmlns:cc="http://creativecommons.org/ns#"
   xmlns:rdf="http://www.w3.org/1999/02/22-rdf-syntax-ns#"
   xmlns:svg="http://www.w3.org/2000/svg"
   xmlns="http://www.w3.org/2000/svg"
   xmlns:xlink="http://www.w3.org/1999/xlink"
   xmlns:sodipodi="http://sodipodi.sourceforge.net/DTD/sodipodi-0.dtd"
   xmlns:inkscape="http://www.inkscape.org/namespaces/inkscape"
   width="48"
   viewBox="0 0 13.546667 13.546667"
   height="48"
   id="svg2"
   version="1.1"
   inkscape:version="0.48.4 r9939"
   sodipodi:docname="steam_icon_620.svg">
  <metadata
     id="metadata34">
    <rdf:RDF>
      <cc:Work
         rdf:about="">
        <dc:format>image/svg+xml</dc:format>
        <dc:type
           rdf:resource="http://purl.org/dc/dcmitype/StillImage" />
      </cc:Work>
    </rdf:RDF>
  </metadata>
  <sodipodi:namedview
     pagecolor="#ffffff"
     bordercolor="#666666"
     borderopacity="1"
     objecttolerance="10"
     gridtolerance="10"
     guidetolerance="10"
     inkscape:pageopacity="0"
     inkscape:pageshadow="2"
     inkscape:window-width="640"
     inkscape:window-height="480"
     id="namedview32"
     showgrid="false"
     inkscape:zoom="4.9166667"
     inkscape:cx="24"
     inkscape:cy="24"
     inkscape:window-x="0"
     inkscape:window-y="0"
     inkscape:window-maximized="0"
     inkscape:current-layer="svg2" />
  <defs
     id="defs4">
    <linearGradient
       id="0">
      <stop
         stop-color="#1d1d1d"
         id="stop7" />
      <stop
         offset="1"
         stop-color="#5b5b5b"
         id="stop9" />
    </linearGradient>
    <linearGradient
       gradientTransform="matrix(0.28222223,0,0,0.28222223,0,-283.45334)"
       xlink:href="#0"
       id="1"
       y1="1050.36"
       x2="0"
       y2="1006.36"
       gradientUnits="userSpaceOnUse" />
    <radialGradient
       r="128"
       cy="160"
       cx="148.004"
       gradientTransform="matrix(0.05167489,0,0,0.05167489,-0.87511191,-1.4947562)"
       gradientUnits="userSpaceOnUse"
       id="radialGradient3015"
       xlink:href="#radial0"
       inkscape:collect="always" />
    <radialGradient
       cx="148.004"
       cy="160"
       gradientTransform="matrix(0.1831,0,0,0.1831,-3.10029,-5.29688)"
       id="radial0"
       r="128"
       gradientUnits="userSpaceOnUse">
      <stop
         offset="0"
         style="stop-color:#b9c7df"
         id="stop7-0" />
      <stop
         offset="1"
         style="stop-color:#3d5a8e"
         id="stop9-5" />
    </radialGradient>
    <radialGradient
       r="128"
       cy="160"
       cx="148.004"
       gradientTransform="matrix(0.05167489,0,0,0.05167489,-0.87511151,-1.4947562)"
       gradientUnits="userSpaceOnUse"
       id="radialGradient3009"
       xlink:href="#radial0"
       inkscape:collect="always" />
  </defs>
  <path
     inkscape:connector-curvature="0"
     style="fill:url(#radialGradient3009)"
     d="m 13.387776,3.2600283 0,7.0279947 c 0,2.892778 0,3.100035 -3.100035,3.100035 l -7.0290969,0 c -3.10003481,0 -3.10003481,-0.207257 -3.10003481,-3.100035 l 0,-7.0279947 c 0,-2.89388019 0,-3.10113719 3.10113721,-3.10113719 l 7.0279945,0 c 3.100035,0 3.100035,0.207257 3.100035,3.10113719 z"
     id="path11" />
  <path
     id="path15"
     d="m 10.799269,13.388058 c 0.717682,-0.0033 1.235825,-0.02315 1.611753,-0.124574 l -1.193932,-2.046112 -1.2655898,2.170686 0.3362408,0 c 0.180799,0 0.350573,0 0.511528,0 z M 11.21709,11.217372 9.7707016,8.7369034 8.3232103,11.217372 z m 0,0 2.159662,0 c 0.0088,-0.274505 0.01102,-0.582083 0.01102,-0.930451 l 0,-0.3097833 -0.723193,-1.2402343 z M 12.664581,8.7369034 11.21709,6.2564347 9.7707016,8.7369034 z m 0,0 0.723195,0 0,-1.2402343 z m -2.8938794,0 L 8.3232103,6.2564347 6.8768214,8.7369034 z m -2.8938802,0 -1.4474916,2.4804686 2.8938805,0 z m 0,0 L 5.4293298,6.2564347 3.9829409,8.7369034 z m -2.8938805,0 -1.4474913,2.4804686 2.8938802,0 z m 0,0 L 2.5354496,6.2564347 1.0890607,8.7369034 z m -2.8938802,0 -0.93045141,1.5941146 c 0,0.329627 0.00331,0.623976 0.011024,0.886354 l 2.36581611,0 z m 0,0 -0.93045141,-1.5941145 0,1.5941145 z m 1.4463889,2.4804686 -1.2170833,2.086901 c 0.450894,0.08268 1.0748699,0.08378 1.9413802,0.08378 l 0.5423958,0 z m 0,-4.9609373 -1.4463889,-2.4804689 -0.93045141,1.5941147 0,0.8863542 z m 0,0 2.8938802,0 L 3.9829409,3.7759658 z M 3.9829409,3.7759658 2.5354496,1.2954971 1.0890607,3.7759658 z m 0,0 2.8938805,0 -1.4474916,-2.4804687 z m 1.4463889,-2.4804687 -0.663663,-1.13660599 -1.5059203,0 c -0.02205,0 -0.039687,0 -0.060634,0 L 2.5354496,1.2954971 z m 0,0 2.8938805,0 -0.6636633,-1.13660599 -1.5665538,0 z m 2.8938805,0 2.8938797,0 -0.663663,-1.13660599 c -0.08819,0 -0.171979,0 -0.266788,0 l -1.2997656,0 z m 0,0 -1.4463889,2.4804687 2.8938802,0 z m 1.4474913,2.4804687 2.8938794,0 -1.447491,-2.4804687 z m 0,0 -1.4474913,2.4804689 2.8938797,0 z m 1.4463884,2.4804689 2.170686,0 0,-1.2402343 -0.723195,-1.2402346 z m 1.447491,-2.4804689 0.723195,0 0,-0.5170399 c 0,-0.2579689 -0.0022,-0.4938889 -0.0066,-0.71217 z M 8.3232103,6.2564347 6.8768214,3.7759658 5.4293298,6.2564347 z m 2.8938797,-4.9609376 2.062648,0 C 13.123193,0.51718101 12.747264,0.27133921 11.859807,0.19416891 z m -8.6816404,0 L 1.8850157,0.17983731 C 0.85203809,0.23826631 0.43421679,0.46095691 0.26664739,1.2954971 z M 1.0890607,3.7759658 0.17514589,2.2083096 c -0.012127,0.3031685 -0.016537,0.6515363 -0.016537,1.0506163 l 0,0.5170399 z m 4.3402691,7.4414062 -1.2655903,2.170686 2.532283,0 z m 2.8938805,0 -1.2655906,2.170686 2.5322833,0 z m -7.59133711,1.86862 -0.4519964,-0.775009 c 0.082682,0.37152 0.2215885,0.615157 0.4519964,0.775009 z"
     style="fill:#ffffff;fill-opacity:0.05100002"
     inkscape:connector-curvature="0" />
  <path
     inkscape:connector-curvature="0"
     d="M 6.1045858,10.425302 C 5.7600774,10.358374 5.2952647,9.9899136 5.0146765,9.5613284 4.8620273,9.3281655 4.6783986,8.9329338 4.6198346,8.7114958 4.5246481,8.3515797 4.4853315,7.3911693 4.541345,6.7941671 4.6228801,5.9251597 4.9398512,4.971022 5.3686811,4.303749 5.5349574,4.0450173 5.7274347,3.8043435 5.7680772,3.8043435 c 0.060978,0 0.04608,0.090634 -0.039905,0.2427554 -0.051318,0.090783 -0.093303,0.1708969 -0.093303,0.1780292 0,0.00713 0.086651,-0.093737 0.1925563,-0.2241544 C 6.0377394,3.7419857 6.2101318,3.5791429 6.463205,3.4004172 6.9599122,3.049631 7.5558741,3.0071484 7.9876921,3.291745 c 0.4483521,0.2954937 0.8200388,0.9521687 0.9730094,1.7190562 0.064171,0.3217009 0.069062,0.3955074 0.07035,1.0611152 0.00158,0.790579 -0.026413,1.0186329 -0.1984375,1.6196948 -0.3737999,1.3060605 -1.2527785,2.4680238 -2.0503775,2.7104908 -0.1340753,0.04076 -0.519373,0.05395 -0.6776486,0.0232 z M 6.5571029,9.9356155 c 0.00773,-0.01296 -0.054086,-0.04933 -0.1373655,-0.08081 C 6.0601679,9.7188705 5.8143394,9.4830115 5.6233458,9.0907104 5.5124274,8.8628832 5.3851381,8.4015077 5.4045527,8.2976674 5.4253468,8.1864524 5.4802357,8.2422282 5.5930958,8.4892531 5.951899,9.2745906 6.4335705,9.6094445 6.8871894,9.3888946 7.150503,9.2608704 7.516523,8.8543764 7.8282027,8.343824 8.1474474,7.8208792 8.4120612,6.9092317 8.4617577,6.1611009 8.4810247,5.8710275 8.4540877,5.3500989 8.4217507,5.3876158 8.4108877,5.4002258 8.3879877,5.5198703 8.3708677,5.6534952 8.3059227,6.1604433 8.1259293,6.719794 8.0277493,6.719794 c -0.061128,0 -0.061128,-0.00504 -7.06e-5,-0.3374899 C 8.224995,5.3079338 8.1335468,4.4394239 7.7839065,4.0671426 7.6213095,3.8940111 7.4522669,3.8210048 7.2100525,3.8193035 7.0160622,3.8179485 6.9883604,3.8252105 6.8064939,3.9251552 6.5611632,4.0599827 6.2484471,4.3771482 6.047278,4.6951754 5.6914768,5.2576576 5.339698,6.1555643 5.1726947,6.9275287 c -0.062086,0.2869881 -0.068916,0.3723364 -0.068706,0.8585646 2.119e-4,0.4949868 0.00578,0.5612571 0.067214,0.79666 0.080081,0.306976 0.1851858,0.5548162 0.3489892,0.8229183 0.1294178,0.2118219 0.2542741,0.3225679 0.4896034,0.434274 0.2060812,0.09782 0.5139526,0.151638 0.5473147,0.09567 z"
     id="path28"
     style="fill:#f9f9f9;fill-opacity:1" />
</svg>
