<svg xmlns="http://www.w3.org/2000/svg" viewBox="0 0 48 48"><defs><radialGradient id="0" cx="24" cy="24" r="23.437" gradientUnits="userSpaceOnUse"><stop stop-color="#eee"/><stop offset="1" stop-color="#cecece"/></radialGradient></defs><path d="m 47.44 11.547 l 0 24.906 c 0 10.25 0 10.984 -10.984 10.984 l -24.902 0 c -10.988 0 -10.988 -0.734 -10.988 -10.984 l 0 -24.906 c 0 -10.25 0 -10.984 10.988 -10.984 l 24.902 0 c 10.984 0 10.984 0.734 10.984 10.984" fill="url(#0)"/><path d="m 24.16 12 c -4.938 0 -8.938 4 -8.938 8.938 c 0 1.309 0.277 2.535 0.781 3.656 l -1.125 -0.406 c -1.594 -0.578 -3.336 0.273 -3.906 1.875 l -0.063 0.125 c -0.57 1.598 0.25 3.367 1.844 3.938 l 3 1.063 l 0.875 2.688 c 0.52 1.613 2.262 2.484 3.875 1.969 l 0.125 -0.031 c 1.617 -0.516 2.516 -2.262 2 -3.875 l -0.781 -2.375 c 0.738 0.195 1.512 0.313 2.313 0.313 c 0.695 0 1.352 -0.102 2 -0.25 l -0.75 2.313 c -0.52 1.613 0.387 3.359 2 3.875 l 0.125 0.031 c 1.613 0.516 3.359 -0.352 3.875 -1.969 l 0.875 -2.688 l 2.938 -1.063 c 1.594 -0.574 2.445 -2.34 1.875 -3.938 l -0.063 -0.125 c -0.57 -1.605 -2.313 -2.453 -3.906 -1.875 l -0.781 0.281 c 0.469 -1.086 0.719 -2.273 0.719 -3.531 l 0 -0.375 c -0.195 -4.793 -4.109 -8.563 -8.906 -8.563 m -0.031 1.875 c 3.789 0 6.91 3 7.06 6.781 l 0 0.281 c 0 3.895 -3.168 7.06 -7.06 7.06 c -3.895 0 -7.03 -3.168 -7.03 -7.06 c 0 -3.895 3.133 -7.06 7.03 -7.06 m 0 0.906 c -3.398 0 -6.156 2.754 -6.156 6.156 c 0 3.391 2.758 6.156 6.156 6.156 c 3.402 0 6.156 -2.762 6.156 -6.156 l 0 -0.25 c -0.129 -3.301 -2.855 -5.906 -6.156 -5.906 m -0.094 3.844 l 0.094 0 c 0.625 0.004 1.129 0.5 1.125 1.125 l 0 2.594 c -0.004 0.625 -0.5 1.129 -1.125 1.125 l -0.125 0 c -0.625 -0.004 -1.125 -0.5 -1.125 -1.125 l 0 -2.594 c 0.004 -0.625 0.531 -1.129 1.156 -1.125 m -2.531 5.469 l 0.063 0 c 0.293 0.004 0.59 0.117 0.813 0.344 l 0.063 0.063 c 0.449 0.457 0.426 1.203 -0.031 1.656 l -0.156 0.156 c -0.793 -0.289 -1.508 -0.734 -2.094 -1.313 l 0.563 -0.563 c 0.215 -0.211 0.5 -0.332 0.781 -0.344 m 5 0 c 0.297 0 0.613 0.117 0.844 0.344 l 0.688 0.688 c -0.605 0.563 -1.348 0.992 -2.156 1.25 l -0.219 -0.219 c -0.461 -0.453 -0.48 -1.195 -0.031 -1.656 l 0.063 -0.063 c 0.223 -0.23 0.516 -0.34 0.813 -0.344 m -12.344 1.938 c 0.082 0.004 0.168 0.039 0.25 0.063 l 2.219 0.594 c 0.672 0.184 1.059 0.895 0.875 1.563 c -0.184 0.672 -0.895 1.063 -1.563 0.875 l -2.188 -0.625 c -0.672 -0.184 -1.094 -0.863 -0.906 -1.531 c 0.16 -0.59 0.73 -0.977 1.313 -0.938 m 19.75 0 c 0.582 -0.039 1.152 0.352 1.313 0.938 c 0.184 0.672 -0.203 1.348 -0.875 1.531 l -2.219 0.625 c -0.668 0.184 -1.379 -0.203 -1.563 -0.875 c -0.188 -0.668 0.203 -1.379 0.875 -1.563 l 2.219 -0.594 c 0.082 -0.023 0.168 -0.059 0.25 -0.063 m -15.16 0.375 c 0.574 0.559 1.242 1.043 1.969 1.406 l -0.094 0.094 c -0.457 0.449 -1.207 0.457 -1.656 0 l -0.063 -0.063 c -0.383 -0.391 -0.434 -0.992 -0.156 -1.438 m 10.625 0.156 c 0.188 0.422 0.125 0.926 -0.219 1.281 l -0.063 0.063 c -0.453 0.457 -1.199 0.453 -1.656 0 c 0.715 -0.34 1.371 -0.816 1.938 -1.344 m -10.313 2.719 c 0.449 0.039 0.852 0.352 1 0.813 l 0.75 2.375 c 0.195 0.609 -0.137 1.273 -0.75 1.469 l -0.25 0.063 c -0.609 0.195 -1.242 -0.141 -1.438 -0.75 l -0.781 -2.375 c -0.195 -0.613 0.137 -1.273 0.75 -1.469 l 0.25 -0.063 c 0.152 -0.047 0.32 -0.074 0.469 -0.063 m 9.875 0 c 0.148 -0.012 0.316 0.016 0.469 0.063 l 0.25 0.063 c 0.609 0.195 0.949 0.855 0.75 1.469 l -0.781 2.375 c -0.195 0.609 -0.824 0.945 -1.438 0.75 l -0.25 -0.063 c -0.609 -0.195 -0.945 -0.859 -0.75 -1.469 l 0.75 -2.375 c 0.148 -0.461 0.551 -0.773 1 -0.813 m 0 0" fill="#fff"/><path d="m 38.27 47.44 c 2.543 -0.012 4.379 -0.082 5.711 -0.441 l -4.23 -7.25 -4.484 7.691 1.191 0 c 0.641 0 1.242 0 1.813 0 z m 1.48 -7.691 -5.125 -8.789 -5.129 8.789 z m 0 0 7.652 0 c 0.031 -0.973 0.039 -2.063 0.039 -3.297 l 0 -1.098 -2.563 -4.395 z m 5.129 -8.789 -5.129 -8.789 -5.125 8.789 z m 0 0 2.563 0 0 -4.395 z m -10.254 0 -5.129 -8.789 -5.125 8.789 z m -10.254 0 -5.129 8.789 10.254 0 z m 0 0 -5.129 -8.789 -5.125 8.789 z m -10.254 0 -5.129 8.789 10.254 0 z m 0 0 -5.129 -8.789 -5.125 8.789 z m -10.254 0 -3.297 5.648 c 0 1.168 0.012 2.211 0.039 3.141 l 8.383 0 z m 0 0 -3.297 -5.648 0 5.648 z m 5.125 8.789 -4.313 7.395 c 1.598 0.293 3.809 0.297 6.879 0.297 l 1.922 0 z m 0 -17.578 -5.125 -8.789 -3.297 5.648 0 3.141 z m 0 0 10.254 0 -5.125 -8.789 z m 5.129 -8.789 -5.129 -8.789 -5.125 8.789 z m 0 0 10.254 0 -5.129 -8.789 z m 5.125 -8.789 -2.352 -4.03 -5.336 0 c -0.078 0 -0.141 0 -0.215 0 l -2.352 4.03 z m 0 0 10.254 0 -2.352 -4.03 -5.551 0 z m 10.254 0 10.254 0 l -2.352 -4.03 c -0.313 0 -0.609 0 -0.941 0 l -4.609 0 z m 0 0 -5.125 8.789 10.254 0 z m 5.129 8.789 10.254 0 -5.129 -8.789 z m 0 0 -5.129 8.789 10.254 0 z m 5.125 8.789 7.691 0 0 -4.395 -2.563 -4.395 z m 5.129 -8.789 2.563 0 0 -1.832 c 0 -0.914 -0.008 -1.75 -0.023 -2.523 z m -15.383 8.789 -5.125 -8.789 -5.129 8.789 z m 10.254 -17.578 7.309 0 c -0.555 -2.758 -1.887 -3.629 -5.03 -3.902 z m -30.762 0 l -2.305 -3.953 c -3.66 0.207 -5.141 0.996 -5.734 3.953 z m -5.125 8.789 l -3.238 -5.555 c -0.043 1.074 -0.059 2.309 -0.059 3.723 l 0 1.832 z m 15.379 26.367 -4.484 7.691 8.973 0 z m 10.254 0 -4.484 7.691 8.973 0 z m -26.898 6.621 -1.602 -2.746 c 0.293 1.316 0.785 2.18 1.602 2.746 z" fill="#fff" fill-opacity="0.14"/></svg>