<?xml version="1.0" encoding="UTF-8" standalone="no"?>
<svg
   xmlns:dc="http://purl.org/dc/elements/1.1/"
   xmlns:cc="http://creativecommons.org/ns#"
   xmlns:rdf="http://www.w3.org/1999/02/22-rdf-syntax-ns#"
   xmlns:svg="http://www.w3.org/2000/svg"
   xmlns="http://www.w3.org/2000/svg"
   xmlns:xlink="http://www.w3.org/1999/xlink"
   xmlns:sodipodi="http://sodipodi.sourceforge.net/DTD/sodipodi-0.dtd"
   xmlns:inkscape="http://www.inkscape.org/namespaces/inkscape"
   width="48"
   viewBox="0 0 13.546667 13.546667"
   height="48"
   id="svg2"
   version="1.1"
   inkscape:version="0.48.4 r9939"
   sodipodi:docname="steam_icon_41070.svg">
  <metadata
     id="metadata222">
    <rdf:RDF>
      <cc:Work
         rdf:about="">
        <dc:format>image/svg+xml</dc:format>
        <dc:type
           rdf:resource="http://purl.org/dc/dcmitype/StillImage" />
      </cc:Work>
    </rdf:RDF>
  </metadata>
  <sodipodi:namedview
     pagecolor="#ffffff"
     bordercolor="#666666"
     borderopacity="1"
     objecttolerance="10"
     gridtolerance="10"
     guidetolerance="10"
     inkscape:pageopacity="0"
     inkscape:pageshadow="2"
     inkscape:window-width="672"
     inkscape:window-height="480"
     id="namedview220"
     showgrid="false"
     inkscape:zoom="6.9532167"
     inkscape:cx="28.369888"
     inkscape:cy="25.128351"
     inkscape:window-x="0"
     inkscape:window-y="0"
     inkscape:window-maximized="0"
     inkscape:current-layer="svg2" />
  <defs
     id="defs4">
    <clipPath
       id="clipPath6">
      <rect
         width="60"
         x="306"
         y="142"
         rx="12.5"
         height="60"
         transform="matrix(0 -1 1 0 0 0)"
         fill="url(#6)"
         color="#bebebe"
         id="rect8" />
    </clipPath>
    <clipPath
       id="clipPath10">
      <rect
         width="30"
         x="433"
         y="29"
         rx="6"
         height="30"
         color="#bebebe"
         id="rect12" />
    </clipPath>
    <clipPath
       id="clipPath14">
      <rect
         width="22"
         x="433"
         y="77"
         rx="5"
         height="22"
         color="#bebebe"
         id="rect16" />
    </clipPath>
    <clipPath
       id="clipPath18">
      <rect
         width="22"
         x="433"
         y="77"
         rx="5"
         height="22"
         color="#bebebe"
         id="rect20" />
    </clipPath>
    <clipPath
       id="clipPath22">
      <rect
         width="60"
         x="306"
         y="142"
         rx="12.5"
         height="60"
         transform="matrix(0 -1 1 0 0 0)"
         fill="url(#E)"
         color="#bebebe"
         id="rect24" />
    </clipPath>
    <clipPath
       id="clipPath26">
      <rect
         width="22"
         x="433"
         y="77"
         rx="4"
         height="22"
         color="#bebebe"
         id="rect28" />
    </clipPath>
    <clipPath
       id="clipPath30">
      <rect
         width="30"
         x="433"
         y="29"
         rx="4"
         height="30"
         opacity="0.2"
         fill="#6d6d6d"
         color="#bebebe"
         id="rect32" />
    </clipPath>
    <clipPath
       id="clipPath34">
      <rect
         width="42"
         x="307"
         y="223"
         rx="9"
         height="42"
         transform="rotate(90)"
         fill="url(#B)"
         color="#bebebe"
         id="rect36" />
    </clipPath>
    <clipPath
       id="clipPath38">
      <rect
         width="20"
         x="434"
         y="78"
         rx="4"
         height="20"
         color="#bebebe"
         id="rect40" />
    </clipPath>
    <clipPath
       id="clipPath42">
      <rect
         width="30"
         x="433"
         y="29"
         rx="6"
         height="30"
         color="#bebebe"
         id="rect44" />
    </clipPath>
    <clipPath
       id="clipPath46">
      <rect
         width="22"
         x="433"
         y="77"
         rx="4"
         height="22"
         color="#bebebe"
         id="rect48" />
    </clipPath>
    <clipPath
       id="clipPath50">
      <rect
         width="22"
         x="433"
         y="77"
         rx="3"
         height="22"
         opacity="0.2"
         fill="#6d6d6d"
         color="#bebebe"
         id="rect52" />
    </clipPath>
    <clipPath
       id="clipPath54">
      <rect
         width="42"
         x="307"
         y="223"
         rx="9"
         height="42"
         transform="rotate(90)"
         fill="url(#A)"
         color="#bebebe"
         id="rect56" />
    </clipPath>
    <clipPath
       id="clipPath58">
      <rect
         width="30"
         x="433"
         y="29"
         rx="4"
         height="30"
         opacity="0.2"
         fill="#6d6d6d"
         color="#bebebe"
         id="rect60" />
    </clipPath>
    <clipPath
       id="clipPath62">
      <rect
         width="16"
         x="432"
         y="116"
         rx="2"
         height="16"
         opacity="0.2"
         fill="#6d6d6d"
         color="#bebebe"
         id="rect64" />
    </clipPath>
    <clipPath
       id="clipPath66">
      <rect
         width="90"
         x="307"
         y="31"
         rx="18.75"
         height="90"
         fill="url(#0)"
         color="#bebebe"
         id="rect68" />
    </clipPath>
    <clipPath
       id="clipPath70">
      <rect
         width="20"
         x="434"
         y="78"
         rx="4"
         height="20"
         color="#bebebe"
         id="rect72" />
    </clipPath>
    <clipPath
       id="clipPath74">
      <rect
         width="240"
         x="24"
         y="36"
         rx="50"
         height="240"
         fill="#986767"
         color="#bebebe"
         id="rect76" />
    </clipPath>
    <clipPath
       id="clipPath78">
      <rect
         width="16"
         x="432"
         y="116"
         rx="3"
         height="16"
         color="#bebebe"
         id="rect80" />
    </clipPath>
    <clipPath
       id="clipPath82">
      <rect
         width="22"
         x="433"
         y="77"
         rx="3"
         height="22"
         opacity="0.2"
         fill="#6d6d6d"
         color="#bebebe"
         id="rect84" />
    </clipPath>
    <clipPath
       id="clipPath86">
      <rect
         width="60"
         x="306"
         y="142"
         rx="12.5"
         height="60"
         transform="matrix(0 -1 1 0 0 0)"
         fill="url(#7)"
         color="#bebebe"
         id="rect88" />
    </clipPath>
    <clipPath
       id="clipPath90">
      <rect
         width="42"
         x="307"
         y="223"
         rx="9"
         height="42"
         transform="rotate(90)"
         fill="url(#8)"
         color="#bebebe"
         id="rect92" />
    </clipPath>
    <clipPath
       id="clipPath94">
      <rect
         width="240"
         x="24"
         y="36"
         rx="50"
         height="240"
         fill="#986767"
         color="#bebebe"
         id="rect96" />
    </clipPath>
    <clipPath
       id="clipPath98">
      <rect
         width="30"
         x="433"
         y="29"
         rx="4"
         height="30"
         opacity="0.2"
         fill="#6d6d6d"
         color="#bebebe"
         id="rect100" />
    </clipPath>
    <clipPath
       id="clipPath102">
      <rect
         width="22"
         x="433"
         y="77"
         rx="3"
         height="22"
         opacity="0.2"
         fill="#6d6d6d"
         color="#bebebe"
         id="rect104" />
    </clipPath>
    <clipPath
       id="clipPath106">
      <rect
         width="90"
         x="307"
         y="31"
         rx="18.75"
         height="90"
         fill="url(#D)"
         color="#bebebe"
         id="rect108" />
    </clipPath>
    <clipPath
       id="clipPath110">
      <rect
         width="16"
         x="432"
         y="116"
         rx="2"
         height="16"
         opacity="0.2"
         fill="#6d6d6d"
         color="#bebebe"
         id="rect112" />
    </clipPath>
    <clipPath
       id="clipPath114">
      <path
         d="m 104,100 0,40 -40,0 0,40 40,0 0,40 40,0 80,0 0,-120 -80,0 -40,0 z"
         id="path116" />
    </clipPath>
    <clipPath
       id="clipPath118">
      <rect
         width="16"
         x="432"
         y="116"
         rx="2"
         height="16"
         opacity="0.2"
         fill="#6d6d6d"
         color="#bebebe"
         id="rect120" />
    </clipPath>
    <clipPath
       id="clipPath122">
      <rect
         width="20"
         x="434"
         y="78"
         rx="4"
         height="20"
         color="#bebebe"
         id="rect124" />
    </clipPath>
    <clipPath
       id="clipPath126">
      <rect
         width="90"
         x="307"
         y="31"
         rx="18.75"
         height="90"
         fill="url(#5)"
         color="#bebebe"
         id="rect128" />
    </clipPath>
    <clipPath
       id="clipPath130">
      <rect
         width="16"
         x="432"
         y="116"
         rx="3"
         height="16"
         color="#bebebe"
         id="rect132" />
    </clipPath>
    <clipPath
       id="clipPath134">
      <rect
         width="240"
         x="24"
         y="36"
         rx="50"
         height="240"
         fill="#986767"
         color="#bebebe"
         id="rect136" />
    </clipPath>
    <clipPath
       id="clipPath138">
      <rect
         width="16"
         x="432"
         y="116"
         rx="3"
         height="16"
         color="#bebebe"
         id="rect140" />
    </clipPath>
    <clipPath
       id="clipPath142">
      <rect
         width="30"
         x="433"
         y="29"
         rx="6"
         height="30"
         color="#bebebe"
         id="rect144" />
    </clipPath>
    <clipPath
       id="clipPath146">
      <rect
         width="22"
         x="433"
         y="77"
         rx="5"
         height="22"
         color="#bebebe"
         id="rect148" />
    </clipPath>
    <clipPath
       id="clipPath150">
      <rect
         width="22"
         x="433"
         y="77"
         rx="4"
         height="22"
         color="#bebebe"
         id="rect152" />
    </clipPath>
    <linearGradient
       gradientTransform="matrix(.375 0 0 .375 298 16)"
       id="0"
       xlink:href="#2"
       y1="230"
       y2="90"
       x2="0"
       gradientUnits="userSpaceOnUse" />
    <linearGradient
       gradientTransform="matrix(0.3614,0,0,0.375,-170.8326,136.93135)"
       xlink:href="#3"
       id="1"
       y1="133"
       y2="43"
       gradientUnits="userSpaceOnUse"
       x2="0" />
    <linearGradient
       id="2">
      <stop
         stop-color="#b0b0b0"
         id="stop157" />
      <stop
         offset="1"
         stop-color="#dedede"
         id="stop159" />
    </linearGradient>
    <linearGradient
       id="3">
      <stop
         stop-color="#8b2b28"
         id="stop162" />
      <stop
         offset="1"
         stop-color="#cb2c31"
         id="stop164" />
    </linearGradient>
    <linearGradient
       id="4">
      <stop
         stop-color="#b2b2b2"
         id="stop167" />
      <stop
         offset="1"
         stop-color="#dedede"
         id="stop169" />
    </linearGradient>
    <linearGradient
       gradientTransform="matrix(.375 0 0 .375 298 16)"
       id="5"
       xlink:href="#9"
       y1="230"
       y2="90"
       x2="0"
       gradientUnits="userSpaceOnUse" />
    <linearGradient
       gradientTransform="matrix(.25 0 0 .25 299.99999 131.99999)"
       id="6"
       xlink:href="#2"
       y1="230"
       y2="90"
       x2="0"
       gradientUnits="userSpaceOnUse" />
    <linearGradient
       gradientTransform="matrix(.25 0 0 .25 299.99999 131.99999)"
       id="7"
       xlink:href="#9"
       y1="230"
       y2="90"
       x2="0"
       gradientUnits="userSpaceOnUse" />
    <linearGradient
       gradientTransform="matrix(.175 0 0 .175 302.79999 215.99997)"
       id="8"
       xlink:href="#9"
       y1="280"
       y2="40"
       x2="0"
       gradientUnits="userSpaceOnUse" />
    <linearGradient
       id="9">
      <stop
         stop-color="#f3f3f3"
         id="stop176" />
      <stop
         offset="1"
         stop-color="#fff"
         id="stop178" />
    </linearGradient>
    <linearGradient
       gradientTransform="matrix(.175 0 0 .175 302.79999 215.99997)"
       id="A"
       xlink:href="#2"
       y1="280"
       y2="40"
       x2="0"
       gradientUnits="userSpaceOnUse" />
    <linearGradient
       gradientTransform="matrix(.175 0 0 .175 302.79999 215.99997)"
       id="B"
       xlink:href="#C"
       y1="280"
       y2="40"
       x2="0"
       gradientUnits="userSpaceOnUse" />
    <linearGradient
       id="C">
      <stop
         stop-color="#323232"
         id="stop183" />
      <stop
         offset="1"
         stop-color="#767676"
         id="stop185" />
    </linearGradient>
    <linearGradient
       gradientTransform="matrix(.375 0 0 .375 298 16)"
       id="D"
       xlink:href="#C"
       y1="230"
       y2="90"
       x2="0"
       gradientUnits="userSpaceOnUse" />
    <linearGradient
       gradientTransform="matrix(.25 0 0 .25 299.99999 131.99999)"
       id="E"
       xlink:href="#C"
       y1="230"
       y2="90"
       x2="0"
       gradientUnits="userSpaceOnUse" />
    <linearGradient
       gradientTransform="matrix(0.28222223,0,0,0.28222223,-2.0000003e-8,-283.45334)"
       xlink:href="#4"
       id="F"
       y1="1050.36"
       x2="0"
       y2="1006.36"
       gradientUnits="userSpaceOnUse" />
    <radialGradient
       r="128"
       cy="160"
       cx="148.004"
       gradientTransform="matrix(0.1831,0,0,0.1831,-3.100773,-5.296398)"
       gradientUnits="userSpaceOnUse"
       id="radialGradient3013"
       xlink:href="#radial0"
       inkscape:collect="always" />
    <radialGradient
       cx="148.004"
       cy="160"
       gradientTransform="matrix(0.1831,0,0,0.1831,-3.10029,-5.29688)"
       id="radial0"
       r="128"
       gradientUnits="userSpaceOnUse">
      <stop
         offset="0"
         style="stop-color:#edaca8"
         id="stop7-2" />
      <stop
         offset="1"
         style="stop-color:#9e0508"
         id="stop9-9" />
    </radialGradient>
    <radialGradient
       r="128"
       cy="160"
       cx="148.004"
       gradientTransform="matrix(0.05167489,0,0,0.05167489,-0.87510711,-1.4947614)"
       gradientUnits="userSpaceOnUse"
       id="radialGradient3011"
       xlink:href="#radial0"
       inkscape:collect="always" />
    <linearGradient
       inkscape:collect="always"
       xlink:href="#3"
       id="linearGradient3220"
       gradientUnits="userSpaceOnUse"
       gradientTransform="matrix(0.3614,0,0,0.375,-170.8326,136.93135)"
       y1="133"
       x2="0"
       y2="43" />
    <linearGradient
       inkscape:collect="always"
       xlink:href="#3"
       id="linearGradient3226"
       gradientUnits="userSpaceOnUse"
       gradientTransform="matrix(0.10199431,0,0,0.1058325,-24.419903,-1.1197089)"
       y1="133"
       x2="0"
       y2="43" />
    <linearGradient
       inkscape:collect="always"
       xlink:href="#3"
       id="linearGradient3230"
       gradientUnits="userSpaceOnUse"
       gradientTransform="matrix(0.10199431,0,0,0.1058325,-26.205807,-1.2820638)"
       y1="133"
       x2="0"
       y2="43" />
  </defs>
  <path
     inkscape:connector-curvature="0"
     style="fill:url(#radialGradient3011)"
     d="m 13.387781,3.2589207 0,7.0290973 c 0,2.892778 0,3.100035 -3.100035,3.100035 l -7.0279949,0 c -3.10113711,0 -3.10113711,-0.207257 -3.10113711,-3.100035 l 0,-7.0290973 c 0,-2.89277789 0,-3.10003479 3.10113711,-3.10003479 l 7.0279949,0 c 3.100035,0 3.100035,0.2072569 3.100035,3.10003479 z"
     id="path11" />
  <path
     inkscape:connector-curvature="0"
     id="path15"
     d="m 10.799274,13.388053 c 0.717682,-0.0033 1.235825,-0.02315 1.611753,-0.124575 l -1.193932,-2.046111 -1.2655901,2.170686 0.3362411,0 c 0.180799,0 0.350573,0 0.511528,0 z M 11.217095,11.217367 9.770706,8.7368981 8.323215,11.217367 z m 0,0 2.159662,0 c 0.0088,-0.274505 0.01102,-0.582083 0.01102,-0.930451 l 0,-0.3097839 -0.723193,-1.240234 z M 12.664587,8.7368981 11.217095,6.2564295 9.770706,8.7368981 z m 0,0 0.723194,0 0,-1.2402342 z m -2.893881,0 L 8.323215,6.2564295 6.8768261,8.7368981 z m -2.8938799,0 -1.4474921,2.4804689 2.893881,0 z m 0,0 L 5.429334,6.2564295 3.9829462,8.7368981 z m -2.8938799,0 -1.4474922,2.4804689 2.89388,0 z m 0,0 L 2.535454,6.2564295 1.0890651,8.7368981 z m -2.8938811,0 -0.93045111,1.5941149 c 0,0.329627 0.0033,0.623976 0.011021,0.886354 l 2.36581511,0 z m 0,0 -0.93045111,-1.5941144 0,1.5941144 z M 2.535454,11.217367 1.318371,13.304268 c 0.450894,0.08268 1.0748701,0.08379 1.9413801,0.08379 l 0.5423959,0 z m 0,-4.9609375 -1.4463889,-2.4804689 -0.93045111,1.5941147 0,0.8863542 z m 0,0 2.89388,0 L 3.9829462,3.7759606 z M 3.9829462,3.7759606 2.535454,1.2954919 1.0890651,3.7759606 z m 0,0 2.8938799,0 L 5.429334,1.2954919 z M 5.429334,1.2954919 4.7656712,0.15888591 l -1.5070221,0 c -0.020949,0 -0.03858,0 -0.05953,0 L 2.5354552,1.2954919 z m 0,0 2.893881,0 -0.6636631,-1.13660599 -1.5665537,0 z m 2.893881,0 2.89388,0 -0.663663,-1.13660599 c -0.0882,0 -0.171979,0 -0.266788,0 l -1.2997659,0 z m 0,0 -1.4463889,2.4804687 2.8938799,0 z m 1.447491,2.4804687 2.893881,0 -1.447492,-2.4804687 z m 0,0 -1.447491,2.4804689 2.89388,0 z m 1.446389,2.4804689 2.170686,0 0,-1.2402343 -0.723194,-1.2402346 z m 1.447492,-2.4804689 0.723194,0 0,-0.5170399 c 0,-0.2579689 -0.0022,-0.4938888 -0.0066,-0.71217 z M 8.323215,6.2564295 6.8768261,3.7759606 5.429334,6.2564295 z m 2.89388,-4.9609376 2.062648,0 C 13.123198,0.51717581 12.747269,0.27133391 11.859812,0.19416371 z m -8.681641,0 L 1.8850201,0.17983211 C 0.85204189,0.23826111 0.43422089,0.46095171 0.26665199,1.2954919 z M 1.0890651,3.7759606 0.17514989,2.2083044 c -0.01213,0.3031685 -0.016541,0.6515363 -0.016541,1.0506163 l 0,0.5170399 z m 4.3402689,7.4414064 -1.2655901,2.170686 2.532283,0 z m 2.893881,0 -1.2655909,2.170686 2.5322839,0 z m -7.59133711,1.86862 -0.451997,-0.775009 c 0.08268,0.371519 0.221589,0.615157 0.451997,0.775009 z"
     style="fill:#ffffff;fill-opacity:0.05100002" />
  <path
     style="fill:#1f0000;fill-rule:evenodd"
     inkscape:connector-curvature="0"
     id="path210"
     d="m 6.1359778,5.0068693 c -0.056208,-0.0048 -0.115233,0.00226 -0.175301,0.026444 C 5.8275319,5.0870198 5.732892,5.1762803 5.6706337,5.2879717 5.6083748,5.3996659 5.5782763,5.5343074 5.5686402,5.6782312 5.5493702,5.9660758 5.6076075,6.303038 5.6674463,6.6307208 5.7272845,6.9584065 5.7869769,7.275221 5.7758137,7.5137646 5.770237,7.6330336 5.747003,7.7314889 5.7025062,7.8014964 5.6580097,7.8715011 5.5945474,7.9169949 5.4889579,7.9370918 5.4256046,7.9491426 5.3682203,7.9160946 5.3072825,7.8378745 5.2463447,7.7596601 5.1924757,7.6401343 5.1479176,7.520377 5.0588036,7.2808626 5.0108646,7.0309003 5.0108646,7.0309003 c -0.00584,-0.027714 -0.035451,-0.047402 -0.062152,-0.04134 -0.026704,0.00607 -0.045683,0.036785 -0.039842,0.064493 0,0 0.050116,0.2552171 0.1434278,0.5060119 0.046656,0.125396 0.1026545,0.2507102 0.175301,0.3439557 0.072647,0.093243 0.1700361,0.1599284 0.2804815,0.138903 C 5.6354592,8.0186816 5.7294593,7.9540137 5.7885633,7.8610251 5.8476672,7.7680392 5.871703,7.650822 5.8778071,7.520377 5.8900188,7.2594901 5.8291614,6.9379314 5.7694397,6.6108808 5.7097172,6.2838273 5.6527725,5.9516064 5.6706337,5.6848436 c 0.00894,-0.13338 0.034395,-0.251269 0.086057,-0.3439528 0.051662,-0.092684 0.1286522,-0.1625446 0.2422345,-0.2083602 0.093023,-0.037521 0.1716033,-0.024751 0.2486084,0.016538 0.077005,0.041306 0.1505432,0.115205 0.2103609,0.1951297 0.017611,0.023537 0.032475,0.04566 0.04781,0.069454 L 6.0371717,5.7675312 6.3559005,6.2239317 C 6.2451822,6.4344594 6.1837872,6.6815769 6.1837872,6.9383011 c 0,0.8182969 0.6392949,1.481655 1.427906,1.481655 0.7886107,0 1.4279053,-0.6633581 1.4279053,-1.481655 0,-0.8182941 -0.6392946,-1.481655 -1.4279053,-1.481655 -0.089663,0 -0.1762763,0.010047 -0.2613581,0.026444 L 7.0284189,5.0200744 6.5853855,5.3541071 C 6.569155,5.3290178 6.5561842,5.3029011 6.5375765,5.2780404 6.4721616,5.1906368 6.3921949,5.1084036 6.295342,5.0564525 6.2469156,5.0304883 6.1921853,5.011636 6.1359778,5.0068439 z m 0.7808863,0.9161115 c 0.00107,-3.67e-5 0.00209,-3.67e-5 0.00318,0 0.00209,-1.326e-4 0.00426,-1.326e-4 0.00637,0 0.011664,5.644e-4 0.023128,0.00522 0.031873,0.013236 l 0.4079732,0.3174947 c 0.021697,0.0173 0.026255,0.053557 0.00957,0.07607 -0.016688,0.022521 -0.051616,0.027234 -0.073311,0.00991 L 6.8945473,6.0221896 c -0.033332,-0.023283 -0.020379,-0.08825 0.019126,-0.095912 0.00104,-0.00113 0.00206,-0.00226 0.00318,-0.0033 z m 1.2271061,0 c 0.00209,-1.326e-4 0.00426,-1.326e-4 0.00637,0 0.047488,-0.00835 0.074678,0.076315 0.031873,0.099217 L 7.7742426,6.3396927 c -0.021694,0.017328 -0.056622,0.012587 -0.073311,-0.00991 -0.016688,-0.022521 -0.012136,-0.058752 0.00957,-0.07607 l 0.407973,-0.3174946 c 0.00653,-0.00511 0.014249,-0.00852 0.022312,-0.00993 0.00104,-0.00113 0.00206,-0.00226 0.00318,-0.0033 z M 7.1304124,6.3496184 c 0.1408227,0 0.2549829,0.1184562 0.2549829,0.2645784 0,0.1461251 -0.1141602,0.2645813 -0.2549829,0.2645813 -0.1408233,0 -0.2549838,-0.1184562 -0.2549838,-0.2645813 0,-0.1461222 0.1141605,-0.2645784 0.2549838,-0.2645784 z m 0.815946,0 c 0.1408233,0 0.2549832,0.1184562 0.2549832,0.2645784 0,0.1461251 -0.1141599,0.2645813 -0.2549832,0.2645813 -0.1408233,0 -0.2549832,-0.1184562 -0.2549832,-0.2645813 0,-0.1461222 0.1141599,-0.2645784 0.2549832,-0.2645784 z M 4.8164398,6.5083643 c -0.025194,0.01016 -0.038968,0.04351 -0.028686,0.069454 l 0.1019935,0.3174975 c 0.00489,0.030006 0.038593,0.051008 0.066417,0.041388 0.027824,-0.00962 0.042643,-0.04741 0.029202,-0.074461 L 4.8833728,6.5447453 c -0.00735,-0.025569 -0.035537,-0.042491 -0.060558,-0.036381 -0.00209,-1.298e-4 -0.00425,-1.298e-4 -0.00637,0 z m 0.4207223,0.039689 c -0.00328,8.467e-4 -0.00649,0.00169 -0.00955,0.0033 -0.0141,0.00452 -0.026071,0.015691 -0.031873,0.029766 l -0.143433,0.2976546 c -0.01658,0.024412 -0.00776,0.063034 0.017605,0.077139 0.025372,0.014083 0.061243,2.822e-4 0.071641,-0.027545 L 5.2881643,6.6274076 c 0.019454,-0.034081 -0.013197,-0.0849 -0.050997,-0.079374 z M 4.5168345,6.7729456 c -0.00328,8.467e-4 -0.00649,0.00169 -0.00955,0.0033 -0.040558,0.010414 -0.047328,0.080692 -0.00955,0.09922 l 0.2868461,0.1488259 c 0.023523,0.017215 0.060748,0.00804 0.074338,-0.01826 0.013592,-0.026331 3.104e-4,-0.06355 -0.026529,-0.07434 L 4.542341,6.7795608 c -0.00775,-0.00446 -0.01664,-0.00674 -0.025501,-0.0066 z m 0.9816856,0.1025249 c -0.00437,5.644e-4 -0.00866,0.00169 -0.012751,0.0033 -0.0011,0.00113 -0.00214,0.00198 -0.00318,0.0033 L 5.1766064,6.9879069 c -0.028918,0.00508 -0.049161,0.040047 -0.039887,0.068918 0.00927,0.028863 0.045693,0.044246 0.07176,0.030302 L 5.5144591,6.9812917 c 0.026701,-0.00435 0.0472,-0.033477 0.043028,-0.061183 -0.00417,-0.027714 -0.032263,-0.048976 -0.058965,-0.04465 z m -0.7139534,0.211665 c -0.00437,5.644e-4 -0.00866,0.00169 -0.012748,0.0033 -0.0011,0.00113 -0.00214,0.00198 -0.00318,0.0033 L 4.4626581,7.1995719 c -0.028918,0.00508 -0.049161,0.040047 -0.039887,0.068918 0.00927,0.028863 0.045693,0.044249 0.071759,0.030302 L 4.8005107,7.1929595 c 0.026701,-0.00435 0.047201,-0.03348 0.043028,-0.061185 -0.00417,-0.027714 -0.032263,-0.048979 -0.058965,-0.044647 z m 3.6207613,0.0033 0,0.5291625 C 8.2013416,7.6196 7.7933686,7.407935 6.6204459,7.3550187 7.7933686,7.3021025 8.2013416,7.0904375 8.405328,7.0904375 z m -3.254223,0.059531 c -0.039867,0.012023 -0.04435,0.081799 -0.00637,0.099214 l 0.2900437,0.1521363 c 0.024198,0.012107 0.056848,2.822e-4 0.06853,-0.024807 0.011684,-0.025118 3.104e-4,-0.058987 -0.02391,-0.071108 L 5.1925409,7.1565757 c -0.010428,-0.00643 -0.023117,-0.00883 -0.035061,-0.0066 -0.00209,-1.327e-4 -0.00425,-1.327e-4 -0.00637,0 z m -0.2804815,0.072759 c -0.015251,0.00364 -0.02861,0.014986 -0.03506,0.029766 L 4.6889483,7.5534561 c -0.011684,0.025118 -3.386e-4,0.058984 0.023904,0.071108 0.0242,0.012107 0.056848,2.822e-4 0.068528,-0.024807 L 4.9248086,7.3021025 c 0.018542,-0.033099 -0.011012,-0.082163 -0.047809,-0.079374 -0.00209,-1.327e-4 -0.00425,-1.327e-4 -0.00637,0 z" />
  <path
     d="m 6.1359778,5.0068693 c -0.056208,-0.0048 -0.115233,0.00226 -0.175301,0.026444 C 5.8275319,5.0870198 5.732892,5.1762803 5.6706337,5.2879717 5.6083748,5.3996659 5.5782763,5.5343074 5.5686402,5.6782312 5.5493702,5.9660758 5.6076075,6.303038 5.6674463,6.6307208 5.7272845,6.9584065 5.7869769,7.275221 5.7758137,7.5137646 5.770237,7.6330336 5.747003,7.7314889 5.7025062,7.8014964 5.6580097,7.8715011 5.5945474,7.9169949 5.4889579,7.9370918 5.4256046,7.9491426 5.3682203,7.9160946 5.3072825,7.8378745 5.2463447,7.7596601 5.1924757,7.6401343 5.1479176,7.520377 5.0588036,7.2808626 5.0108646,7.0309003 5.0108646,7.0309003 c -0.00584,-0.027714 -0.035451,-0.047402 -0.062152,-0.04134 -0.026704,0.00607 -0.045683,0.036785 -0.039842,0.064493 0,0 0.050116,0.2552171 0.1434278,0.5060119 0.046656,0.125396 0.1026545,0.2507102 0.175301,0.3439557 0.072647,0.093243 0.1700361,0.1599284 0.2804815,0.138903 C 5.6354592,8.0186816 5.7294593,7.9540137 5.7885633,7.8610251 5.8476672,7.7680392 5.871703,7.650822 5.8778071,7.520377 5.8900188,7.2594901 5.8291614,6.9379314 5.7694397,6.6108808 5.7097172,6.2838273 5.6527725,5.9516064 5.6706337,5.6848436 c 0.00894,-0.13338 0.034395,-0.251269 0.086057,-0.3439528 0.051662,-0.092684 0.1286522,-0.1625446 0.2422345,-0.2083602 0.093023,-0.037521 0.1716033,-0.024751 0.2486084,0.016538 0.077005,0.041306 0.1505432,0.115205 0.2103609,0.1951297 0.017611,0.023537 0.032475,0.04566 0.04781,0.069454 L 6.0371717,5.7675312 6.3559005,6.2239317 C 6.2451822,6.4344594 6.1837872,6.6815769 6.1837872,6.9383011 c 0,0.8182969 0.6392949,1.481655 1.427906,1.481655 0.7886107,0 1.4279053,-0.6633581 1.4279053,-1.481655 0,-0.8182941 -0.6392946,-1.481655 -1.4279053,-1.481655 -0.089663,0 -0.1762763,0.010047 -0.2613581,0.026444 L 7.0284189,5.0200744 6.5853855,5.3541071 C 6.569155,5.3290178 6.5561842,5.3029011 6.5375765,5.2780404 6.4721616,5.1906368 6.3921949,5.1084036 6.295342,5.0564525 6.2469156,5.0304883 6.1921853,5.011636 6.1359778,5.0068439 z m 0.7808863,0.9161115 c 0.00107,-3.67e-5 0.00209,-3.67e-5 0.00318,0 0.00209,-1.326e-4 0.00426,-1.326e-4 0.00637,0 0.011664,5.644e-4 0.023128,0.00522 0.031873,0.013236 l 0.4079732,0.3174947 c 0.021697,0.0173 0.026255,0.053557 0.00957,0.07607 -0.016688,0.022521 -0.051616,0.027234 -0.073311,0.00991 L 6.8945473,6.0221896 c -0.033332,-0.023283 -0.020379,-0.08825 0.019126,-0.095912 0.00104,-0.00113 0.00206,-0.00226 0.00318,-0.0033 z m 1.2271061,0 c 0.00209,-1.326e-4 0.00426,-1.326e-4 0.00637,0 0.047488,-0.00835 0.074678,0.076315 0.031873,0.099217 L 7.7742426,6.3396927 c -0.021694,0.017328 -0.056622,0.012587 -0.073311,-0.00991 -0.016688,-0.022521 -0.012136,-0.058752 0.00957,-0.07607 l 0.407973,-0.3174946 c 0.00653,-0.00511 0.014249,-0.00852 0.022312,-0.00993 0.00104,-0.00113 0.00206,-0.00226 0.00318,-0.0033 z M 7.1304124,6.3496184 c 0.1408227,0 0.2549829,0.1184562 0.2549829,0.2645784 0,0.1461251 -0.1141602,0.2645813 -0.2549829,0.2645813 -0.1408233,0 -0.2549838,-0.1184562 -0.2549838,-0.2645813 0,-0.1461222 0.1141605,-0.2645784 0.2549838,-0.2645784 z m 0.815946,0 c 0.1408233,0 0.2549832,0.1184562 0.2549832,0.2645784 0,0.1461251 -0.1141599,0.2645813 -0.2549832,0.2645813 -0.1408233,0 -0.2549832,-0.1184562 -0.2549832,-0.2645813 0,-0.1461222 0.1141599,-0.2645784 0.2549832,-0.2645784 z M 4.8164398,6.5083643 c -0.025194,0.01016 -0.038968,0.04351 -0.028686,0.069454 l 0.1019935,0.3174975 c 0.00489,0.030006 0.038593,0.051008 0.066417,0.041388 0.027824,-0.00962 0.042643,-0.04741 0.029202,-0.074461 L 4.8833728,6.5447453 c -0.00735,-0.025569 -0.035537,-0.042491 -0.060558,-0.036381 -0.00209,-1.298e-4 -0.00425,-1.298e-4 -0.00637,0 z m 0.4207223,0.039689 c -0.00328,8.467e-4 -0.00649,0.00169 -0.00955,0.0033 -0.0141,0.00452 -0.026071,0.015691 -0.031873,0.029766 l -0.143433,0.2976546 c -0.01658,0.024412 -0.00776,0.063034 0.017605,0.077139 0.025372,0.014083 0.061243,2.822e-4 0.071641,-0.027545 L 5.2881643,6.6274076 c 0.019454,-0.034081 -0.013197,-0.0849 -0.050997,-0.079374 z M 4.5168345,6.7729456 c -0.00328,8.467e-4 -0.00649,0.00169 -0.00955,0.0033 -0.040558,0.010414 -0.047328,0.080692 -0.00955,0.09922 l 0.2868461,0.1488259 c 0.023523,0.017215 0.060748,0.00804 0.074338,-0.01826 0.013592,-0.026331 3.104e-4,-0.06355 -0.026529,-0.07434 L 4.542341,6.7795608 c -0.00775,-0.00446 -0.01664,-0.00674 -0.025501,-0.0066 z m 0.9816856,0.1025249 c -0.00437,5.644e-4 -0.00866,0.00169 -0.012751,0.0033 -0.0011,0.00113 -0.00214,0.00198 -0.00318,0.0033 L 5.1766064,6.9879069 c -0.028918,0.00508 -0.049161,0.040047 -0.039887,0.068918 0.00927,0.028863 0.045693,0.044246 0.07176,0.030302 L 5.5144591,6.9812917 c 0.026701,-0.00435 0.0472,-0.033477 0.043028,-0.061183 -0.00417,-0.027714 -0.032263,-0.048976 -0.058965,-0.04465 z m -0.7139534,0.211665 c -0.00437,5.644e-4 -0.00866,0.00169 -0.012748,0.0033 -0.0011,0.00113 -0.00214,0.00198 -0.00318,0.0033 L 4.4626581,7.1995719 c -0.028918,0.00508 -0.049161,0.040047 -0.039887,0.068918 0.00927,0.028863 0.045693,0.044249 0.071759,0.030302 L 4.8005107,7.1929595 c 0.026701,-0.00435 0.047201,-0.03348 0.043028,-0.061185 -0.00417,-0.027714 -0.032263,-0.048979 -0.058965,-0.044647 z m 3.6207613,0.0033 0,0.5291625 C 8.2013416,7.6196 7.7933686,7.407935 6.6204459,7.3550187 7.7933686,7.3021025 8.2013416,7.0904375 8.405328,7.0904375 z m -3.254223,0.059531 c -0.039867,0.012023 -0.04435,0.081799 -0.00637,0.099214 l 0.2900437,0.1521363 c 0.024198,0.012107 0.056848,2.822e-4 0.06853,-0.024807 0.011684,-0.025118 3.104e-4,-0.058987 -0.02391,-0.071108 L 5.1925409,7.1565757 c -0.010428,-0.00643 -0.023117,-0.00883 -0.035061,-0.0066 -0.00209,-1.327e-4 -0.00425,-1.327e-4 -0.00637,0 z m -0.2804815,0.072759 c -0.015251,0.00364 -0.02861,0.014986 -0.03506,0.029766 L 4.6889483,7.5534561 c -0.011684,0.025118 -3.386e-4,0.058984 0.023904,0.071108 0.0242,0.012107 0.056848,2.822e-4 0.068528,-0.024807 L 4.9248086,7.3021025 c 0.018542,-0.033099 -0.011012,-0.082163 -0.047809,-0.079374 -0.00209,-1.327e-4 -0.00425,-1.327e-4 -0.00637,0 z"
     id="path216"
     inkscape:connector-curvature="0"
     style="fill:#f9f9f9;fill-rule:evenodd;fill-opacity:1" />
  <path
     d="m 6.7734357,3.1911787 -0.086057,0.138903 c 0,0 -0.106918,0.1728852 -0.2581698,0.3604937 C 6.2779564,3.878184 6.0743443,4.0747982 5.9383656,4.1205179 5.803362,4.1659158 5.5313677,4.1304802 5.3040951,4.0709121 5.0768225,4.0113439 4.8929347,3.9353138 4.8929347,3.9353138 l -0.1498024,-0.059534 0.00955,0.1653668 c 0,0 0.00999,0.2031561 -0.00637,0.4464777 C 4.729947,4.7309484 4.6771851,5.0129173 4.5933229,5.1325418 4.5097079,5.2518193 4.2690484,5.3922435 4.0514836,5.4831127 3.8339188,5.5739847 3.6435109,5.6253262 3.6435109,5.6253262 l -0.15299,0.042993 0.098806,0.1256754 c 0,0 0.1264826,0.1609754 0.2517959,0.3671089 0.125313,0.2061335 0.2422339,0.4643846 0.2422339,0.6118417 0,0.1474599 -0.1169209,0.405711 -0.2422339,0.6118445 C 3.7158095,7.5909236 3.5893269,7.751899 3.5893269,7.751899 l -0.098806,0.1256754 0.15299,0.042993 c 0,0 0.1904079,0.051342 0.4079727,0.1422135 0.2175648,0.090869 0.4582243,0.2312934 0.5418393,0.3505709 0.083862,0.1196246 0.1366249,0.4015934 0.15299,0.6449178 0.016366,0.2433216 0.00637,0.4464777 0.00637,0.4464777 l -0.00955,0.165364 0.1498024,-0.059532 c 0,0 0.1838878,-0.07603 0.4111604,-0.1355982 0.2272726,-0.059565 0.4992669,-0.095004 0.6342705,-0.049606 0.1359787,0.04572 0.3395908,0.2423338 0.490843,0.4299424 0.1512518,0.1876084 0.2581698,0.3604934 0.2581698,0.3604934 l 0.086057,0.138903 0.086057,-0.138903 c 0,0 0.1069182,-0.172885 0.25817,-0.3604934 C 7.268915,9.66771 7.4725274,9.4710958 7.6085058,9.4253762 7.7435091,9.3799782 8.015504,9.4154138 8.2427763,9.474982 8.4700489,9.5345501 8.6539367,9.6105802 8.6539367,9.6105802 l 0.1498024,0.059532 -0.00955,-0.165364 c 0,0 -0.00999,-0.2031561 0.00637,-0.4464777 C 8.8169244,8.8149456 8.8696868,8.5329768 8.9535488,8.4133522 9.0371635,8.2940747 9.277823,8.1536505 9.4953875,8.0627813 9.7129529,7.9719093 9.9033608,7.9205678 9.9033608,7.9205678 L 10.056351,7.8775744 9.9575447,7.751899 c 0,0 -0.1264828,-0.1609754 -0.2517958,-0.3671089 C 9.5804359,7.1786566 9.4635147,6.9204055 9.4635147,6.7729456 c 0,-0.1474571 0.1169212,-0.4057082 0.2422342,-0.6118417 C 9.8310619,5.9549704 9.9575447,5.793995 9.9575447,5.793995 L 10.056351,5.6683196 9.9033608,5.6253262 c 0,0 -0.1904079,-0.051342 -0.4079733,-0.1422135 C 9.277823,5.3922435 9.0371635,5.2518193 8.9535488,5.1325418 8.8696868,5.0129173 8.8169235,4.7309484 8.8005585,4.487624 8.7841925,4.2443024 8.7941859,4.0411463 8.7941859,4.0411463 l 0.00955,-0.1653668 -0.1498024,0.059534 c 0,0 -0.1838878,0.07603 -0.4111604,0.1355983 C 8.015504,4.1304774 7.7435091,4.1659158 7.6085058,4.1205179 7.4725274,4.0747982 7.268915,3.878184 7.1176628,3.6905754 6.966411,3.5029669 6.8594928,3.3300817 6.8594928,3.3300817 l -0.086057,-0.138903 z m 0,0.3704137 c 0.044294,0.067335 0.077705,0.1277102 0.18805,0.2645813 0.1602989,0.1988296 0.3590617,0.4173921 0.5832739,0.4927843 0.2232369,0.075062 0.5080705,0.02015 0.749013,-0.042996 0.1650663,-0.043264 0.2257436,-0.068385 0.2996056,-0.09591 -0.00212,0.08205 -0.00862,0.148617 0.00318,0.3241099 0.017342,0.2578842 0.052958,0.5568059 0.191237,0.754058 0.1380341,0.1968992 0.4004691,0.3237007 0.6310837,0.4200223 0.1574653,0.065769 0.2208945,0.079501 0.296418,0.1025249 -0.047954,0.063991 -0.089945,0.1169943 -0.1816755,0.2678861 -0.1328576,0.2185483 -0.274107,0.4802763 -0.274107,0.7242922 0,0.2440187 0.1412494,0.5057467 0.274107,0.7242922 0.091731,0.1508946 0.1337215,0.2038983 0.1816755,0.2678889 -0.075524,0.023029 -0.1389527,0.036759 -0.296418,0.1025249 C 9.1882678,7.9639733 8.9258328,8.0907747 8.7877987,8.287674 8.6495194,8.484926 8.6139058,8.7838449 8.5965617,9.0417319 8.5847564,9.2172276 8.5912362,9.283792 8.5933782,9.3658418 8.5195162,9.3382972 8.4588389,9.3131965 8.2937726,9.2699322 8.0528301,9.2067827 7.7679965,9.1518739 7.5447596,9.2269388 7.3205474,9.3023282 7.1217846,9.5208907 6.9614857,9.7197203 6.8511405,9.8565914 6.8177293,9.9169667 6.7734357,9.9843016 6.7291421,9.9169667 6.6957309,9.8565914 6.5853855,9.7197203 6.425087,9.5208907 6.2263246,9.3023282 6.0021115,9.2269388 c -0.2232366,-0.075065 -0.5080702,-0.02015 -0.749013,0.042993 -0.165066,0.043264 -0.2257424,0.068385 -0.2996053,0.09591 0.00212,-0.08205 0.00862,-0.1486142 -0.00318,-0.3241099 C 4.9329673,8.7838449 4.8973545,8.484926 4.7590755,8.287674 4.6210414,8.0907747 4.358607,7.9639733 4.1279918,7.8676516 3.9705266,7.8018859 3.9070982,7.7881502 3.8315744,7.7651267 3.8795284,7.7011361 3.9215188,7.6481324 4.0132493,7.4972378 4.1461072,7.2786923 4.2873566,7.0169643 4.2873566,6.7729456 4.2873566,6.5289297 4.1461072,6.2672017 4.0132493,6.0486534 3.9215188,5.8977616 3.8795284,5.8447579 3.8315744,5.7807673 3.9070982,5.7577382 3.9705266,5.744011 4.1279918,5.6782424 4.358607,5.5819208 4.6210414,5.4551193 4.7590755,5.2582201 4.8973545,5.060968 4.9329684,4.7620463 4.9503126,4.5041621 c 0.011805,-0.1754929 0.00532,-0.2420601 0.00318,-0.3241099 0.073863,0.027545 0.1345393,0.052645 0.2996053,0.09591 0.2409428,0.06315 0.5257764,0.1180583 0.749013,0.042996 C 6.2263246,4.2435658 6.425087,4.0250033 6.5853855,3.8261737 6.6957309,3.6893026 6.7291421,3.6289273 6.7734357,3.5615924 z"
     id="path218"
     inkscape:connector-curvature="0"
     style="color:#000000;fill:#f9f9f9;fill-opacity:1" />
</svg>
