<?xml version="1.0" encoding="UTF-8" standalone="no"?>
<svg
   xmlns:dc="http://purl.org/dc/elements/1.1/"
   xmlns:cc="http://creativecommons.org/ns#"
   xmlns:rdf="http://www.w3.org/1999/02/22-rdf-syntax-ns#"
   xmlns:svg="http://www.w3.org/2000/svg"
   xmlns="http://www.w3.org/2000/svg"
   xmlns:xlink="http://www.w3.org/1999/xlink"
   xmlns:sodipodi="http://sodipodi.sourceforge.net/DTD/sodipodi-0.dtd"
   xmlns:inkscape="http://www.inkscape.org/namespaces/inkscape"
   width="48"
   viewBox="0 0 13.546667 13.546667"
   height="48"
   id="svg2"
   version="1.1"
   inkscape:version="0.48.4 r9939"
   sodipodi:docname="steam_icon_550.svg">
  <metadata
     id="metadata288">
    <rdf:RDF>
      <cc:Work
         rdf:about="">
        <dc:format>image/svg+xml</dc:format>
        <dc:type
           rdf:resource="http://purl.org/dc/dcmitype/StillImage" />
      </cc:Work>
    </rdf:RDF>
  </metadata>
  <sodipodi:namedview
     pagecolor="#ffffff"
     bordercolor="#666666"
     borderopacity="1"
     objecttolerance="10"
     gridtolerance="10"
     guidetolerance="10"
     inkscape:pageopacity="0"
     inkscape:pageshadow="2"
     inkscape:window-width="672"
     inkscape:window-height="480"
     id="namedview286"
     showgrid="false"
     inkscape:zoom="9.8333333"
     inkscape:cx="22.901471"
     inkscape:cy="22.906794"
     inkscape:window-x="106"
     inkscape:window-y="134"
     inkscape:window-maximized="0"
     inkscape:current-layer="svg2" />
  <defs
     id="defs4">
    <clipPath
       id="clipPath6">
      <rect
         width="60"
         x="306"
         y="142"
         rx="12.5"
         height="60"
         transform="matrix(0 -1 1 0 0 0)"
         fill="url(#A)"
         color="#bebebe"
         id="rect8" />
    </clipPath>
    <clipPath
       id="clipPath10">
      <path
         d="m 328,238 c -7.73199,0 -14,6.26801 -14,14 0,7.73199 6.26801,14 14,14 7.73199,0 14,-6.26801 14,-14 0,-7.73199 -6.26801,-14 -14,-14 z m 0,8.75 c 2.89949,0 5.25,2.35051 5.25,5.25 0,2.89949 -2.35051,5.25 -5.25,5.25 -2.89949,0 -5.25,-2.35051 -5.25,-5.25 0,-2.89949 2.35051,-5.25 5.25,-5.25 z m 0,1.75 c -1.933,0 -3.5,1.567 -3.5,3.5 0,1.933 1.567,3.5 3.5,3.5 1.933,0 3.5,-1.567 3.5,-3.5 0,-1.933 -1.567,-3.5 -3.5,-3.5 z m 0,1.75 c 0.96649,0 1.75,0.78351 1.75,1.75 0,0.96649 -0.78351,1.75 -1.75,1.75 -0.96649,0 -1.75,-0.78351 -1.75,-1.75 0,-0.96649 0.78351,-1.75 1.75,-1.75 z"
         id="path12" />
    </clipPath>
    <clipPath
       id="clipPath14">
      <path
         d="m 328,238 c -7.73199,0 -14,6.26801 -14,14 0,7.73199 6.26801,14 14,14 7.73199,0 14,-6.26801 14,-14 0,-7.73199 -6.26801,-14 -14,-14 z m 0,9.90625 c 2.20914,0 4,1.79086 4,4 0,2.20914 -1.79086,4 -4,4 -2.20914,0 -4,-1.79086 -4,-4 0,-2.20914 1.79086,-4 4,-4 z m 0,1 c -1.65685,0 -3,1.34315 -3,3 0,1.65685 1.34315,3 3,3 1.65685,0 3,-1.34315 3,-3 0,-1.65685 -1.34315,-3 -3,-3 z m 0,1 c 1.10457,0 2,0.89543 2,2 0,1.10457 -0.89543,2 -2,2 -1.10457,0 -2,-0.89543 -2,-2 0,-1.10457 0.89543,-2 2,-2 z"
         id="path16" />
    </clipPath>
    <clipPath
       id="clipPath18">
      <rect
         width="90"
         x="307"
         y="31"
         rx="18.75"
         height="90"
         fill="url(#B)"
         color="#bebebe"
         id="rect20" />
    </clipPath>
    <clipPath
       id="clipPath22">
      <path
         d="m 328,256 15,11 0,-27 -15,0 z"
         id="path24" />
    </clipPath>
    <clipPath
       id="clipPath26">
      <rect
         width="42"
         x="307"
         y="223"
         rx="9"
         height="42"
         transform="rotate(90)"
         fill="url(#C)"
         color="#bebebe"
         id="rect28" />
    </clipPath>
    <clipPath
       id="clipPath30">
      <rect
         width="42"
         x="307"
         y="223"
         rx="9"
         height="42"
         transform="rotate(90)"
         fill="url(#0)"
         color="#bebebe"
         id="rect32" />
    </clipPath>
    <clipPath
       id="clipPath34">
      <rect
         width="30"
         x="433"
         y="29"
         rx="4"
         height="30"
         opacity="0.2"
         fill="#6d6d6d"
         color="#bebebe"
         id="rect36" />
    </clipPath>
    <clipPath
       id="clipPath38">
      <rect
         width="60"
         x="306"
         y="142"
         rx="12.5"
         height="60"
         transform="matrix(0 -1 1 0 0 0)"
         fill="url(#1)"
         color="#bebebe"
         id="rect40" />
    </clipPath>
    <clipPath
       id="clipPath42">
      <rect
         width="22"
         x="433"
         y="77"
         rx="5"
         height="22"
         color="#bebebe"
         id="rect44" />
    </clipPath>
    <clipPath
       id="clipPath46">
      <rect
         width="16"
         x="432"
         y="116"
         rx="3"
         height="16"
         color="#bebebe"
         id="rect48" />
    </clipPath>
    <clipPath
       id="clipPath50">
      <path
         d="m 328,242.09376 c -7.73199,0 -14,6.26801 -14,14 0,7.73199 6.26801,14 14,14 7.73199,0 14,-6.26801 14,-14 0,-7.73199 -6.26801,-14 -14,-14 z m 0,9.90625 c 2.20914,0 4,1.79086 4,4 0,2.20914 -1.79086,4 -4,4 -2.20914,0 -4,-1.79086 -4,-4 0,-2.20914 1.79086,-4 4,-4 z m 0,1 c -1.65685,0 -3,1.34315 -3,3 0,1.65685 1.34315,3 3,3 1.65685,0 3,-1.34315 3,-3 0,-1.65685 -1.34315,-3 -3,-3 z m 0,1 c 1.10457,0 2,0.89543 2,2 0,1.10457 -0.89543,2 -2,2 -1.10457,0 -2,-0.89543 -2,-2 0,-1.10457 0.89543,-2 2,-2 z"
         id="path52" />
    </clipPath>
    <clipPath
       id="clipPath54">
      <rect
         width="22"
         x="433"
         y="77"
         rx="3"
         height="22"
         opacity="0.2"
         fill="#6d6d6d"
         color="#bebebe"
         id="rect56" />
    </clipPath>
    <clipPath
       id="clipPath58">
      <rect
         width="16"
         x="432"
         y="116"
         rx="2"
         height="16"
         opacity="0.2"
         fill="#6d6d6d"
         color="#bebebe"
         id="rect60" />
    </clipPath>
    <clipPath
       id="clipPath62">
      <rect
         width="240"
         x="24"
         y="36"
         rx="50"
         height="240"
         fill="#986767"
         color="#bebebe"
         id="rect64" />
    </clipPath>
    <clipPath
       id="clipPath66">
      <rect
         width="22"
         x="433"
         y="77"
         rx="4"
         height="22"
         color="#bebebe"
         id="rect68" />
    </clipPath>
    <clipPath
       id="clipPath70">
      <rect
         width="30"
         x="433"
         y="29"
         rx="4"
         height="30"
         opacity="0.2"
         fill="#6d6d6d"
         color="#bebebe"
         id="rect72" />
    </clipPath>
    <clipPath
       id="clipPath74">
      <rect
         width="16"
         x="432"
         y="116"
         rx="2"
         height="16"
         opacity="0.2"
         fill="#6d6d6d"
         color="#bebebe"
         id="rect76" />
    </clipPath>
    <clipPath
       id="clipPath78">
      <path
         d="m 444,88 c -4.41828,0 -8,3.58172 -8,8 0,4.41828 3.58172,8 8,8 4.41828,0 8,-3.58172 8,-8 0,-4.41828 -3.58172,-8 -8,-8 z m 0,5 c 1.65685,0 3,1.34315 3,3 0,1.65685 -1.34315,3 -3,3 -1.65685,0 -3,-1.34315 -3,-3 0,-1.65685 1.34315,-3 3,-3 z m 0,1 c -1.10457,0 -2,0.89543 -2,2 0,1.10457 0.89543,2 2,2 1.10457,0 2,-0.89543 2,-2 0,-1.10457 -0.89543,-2 -2,-2 z m 0,1 c 0.55228,0 1,0.44772 1,1 0,0.55228 -0.44772,1 -1,1 -0.55228,0 -1,-0.44772 -1,-1 0,-0.55228 0.44772,-1 1,-1 z"
         id="path80" />
    </clipPath>
    <clipPath
       id="clipPath82">
      <rect
         width="22"
         x="433"
         y="77"
         rx="5"
         height="22"
         color="#bebebe"
         id="rect84" />
    </clipPath>
    <clipPath
       id="clipPath86">
      <rect
         width="30"
         x="433"
         y="29"
         rx="6"
         height="30"
         color="#bebebe"
         id="rect88" />
    </clipPath>
    <clipPath
       id="clipPath90">
      <path
         d="m 328,242.09375 c -7.73199,0 -14,6.26801 -14,14 0,7.73199 6.26801,14 14,14 7.73199,0 14,-6.26801 14,-14 0,-7.73199 -6.26801,-14 -14,-14 z M 328,252 c 2.20914,0 4,1.79086 4,4 0,2.20914 -1.79086,4 -4,4 -2.20914,0 -4,-1.79086 -4,-4 0,-2.20914 1.79086,-4 4,-4 z m 0,1 c -1.65685,0 -3,1.34315 -3,3 0,1.65685 1.34315,3 3,3 1.65685,0 3,-1.34315 3,-3 0,-1.65685 -1.34315,-3 -3,-3 z m 0,1 c 1.10457,0 2,0.89543 2,2 0,1.10457 -0.89543,2 -2,2 -1.10457,0 -2,-0.89543 -2,-2 0,-1.10457 0.89543,-2 2,-2 z"
         id="path92" />
    </clipPath>
    <clipPath
       id="clipPath94">
      <rect
         width="240"
         x="24"
         y="36"
         rx="50"
         height="240"
         fill="#986767"
         color="#bebebe"
         id="rect96" />
    </clipPath>
    <clipPath
       id="clipPath98">
      <rect
         width="30"
         x="433"
         y="29"
         rx="6"
         height="30"
         color="#bebebe"
         id="rect100" />
    </clipPath>
    <clipPath
       id="clipPath102">
      <rect
         width="22"
         x="433"
         y="77"
         rx="4"
         height="22"
         color="#bebebe"
         id="rect104" />
    </clipPath>
    <clipPath
       id="clipPath106">
      <path
         d="m 451.38843,127.3713 c -3.31371,0 -6,2.68629 -6,6 0,3.31371 2.68629,6 6,6 3.31371,0 6,-2.68629 6,-6 0,-3.31371 -2.68629,-6 -6,-6 z m 0,3 c 1.65685,0 3,1.34315 3,3 0,1.65685 -1.34315,3 -3,3 -1.65685,0 -3,-1.34315 -3,-3 0,-1.65685 1.34315,-3 3,-3 z m 0,1 c -1.10457,0 -2,0.89543 -2,2 0,1.10457 0.89543,2 2,2 1.10457,0 2,-0.89543 2,-2 0,-1.10457 -0.89543,-2 -2,-2 z m 0,1 c 0.55228,0 1,0.44772 1,1 0,0.55228 -0.44772,1 -1,1 -0.55228,0 -1,-0.44772 -1,-1 0,-0.55228 0.44772,-1 1,-1 z"
         id="path108" />
    </clipPath>
    <clipPath
       id="clipPath110">
      <path
         d="m 144.00001,75.999997 c -44.1828,0 -80,35.817203 -80,80.000003 0,44.1828 35.8172,80 80,80 44.1828,0 80,-35.8172 80,-80 0,-44.1828 -35.8172,-80.000003 -80,-80.000003 z m 0,56.607143 c 12.62366,0 22.85714,10.23349 22.85714,22.85714 0,12.62366 -10.23348,22.85714 -22.85714,22.85714 -12.62366,0 -22.85714,-10.23348 -22.85714,-22.85714 0,-12.62365 10.23348,-22.85714 22.85714,-22.85714 z m 0,5.71429 c -9.46771,0 -17.14286,7.67514 -17.14286,17.14285 0,9.46772 7.67515,17.14286 17.14286,17.14286 9.46771,0 17.14286,-7.67514 17.14286,-17.14286 0,-9.46771 -7.67515,-17.14285 -17.14286,-17.14285 z m 0,5.71428 c 6.31183,0 11.42857,5.11674 11.42857,11.42857 0,6.31183 -5.11674,11.42857 -11.42857,11.42857 -6.31183,0 -11.42857,-5.11674 -11.42857,-11.42857 0,-6.31183 5.11674,-11.42857 11.42857,-11.42857 z"
         id="path112" />
    </clipPath>
    <clipPath
       id="clipPath114">
      <rect
         width="20"
         x="434"
         y="78"
         rx="4"
         height="20"
         color="#bebebe"
         id="rect116" />
    </clipPath>
    <clipPath
       id="clipPath118">
      <rect
         width="16"
         x="432"
         y="116"
         rx="3"
         height="16"
         color="#bebebe"
         id="rect120" />
    </clipPath>
    <clipPath
       id="clipPath122">
      <path
         d="m 451.38843,133.3713 6.42857,4.71429 0,-11.57143 -6.42857,0 z"
         id="path124" />
    </clipPath>
    <clipPath
       id="clipPath126">
      <rect
         width="20"
         x="434"
         y="78"
         rx="4"
         height="20"
         color="#bebebe"
         id="rect128" />
    </clipPath>
    <clipPath
       id="clipPath130">
      <path
         d="m 440,126 c -3.31371,0 -6,2.68629 -6,6 0,3.31371 2.68629,6 6,6 3.31371,0 6,-2.68629 6,-6 0,-3.31371 -2.68629,-6 -6,-6 z m 0,3 c 1.65685,0 3,1.34315 3,3 0,1.65685 -1.34315,3 -3,3 -1.65685,0 -3,-1.34315 -3,-3 0,-1.65685 1.34315,-3 3,-3 z m 0,1 c -1.10457,0 -2,0.89543 -2,2 0,1.10457 0.89543,2 2,2 1.10457,0 2,-0.89543 2,-2 0,-1.10457 -0.89543,-2 -2,-2 z m 0,1 c 0.55228,0 1,0.44772 1,1 0,0.55228 -0.44772,1 -1,1 -0.55228,0 -1,-0.44772 -1,-1 0,-0.55228 0.44772,-1 1,-1 z"
         id="path132" />
    </clipPath>
    <clipPath
       id="clipPath134">
      <rect
         width="16"
         x="432"
         y="116"
         rx="2"
         height="16"
         opacity="0.2"
         fill="#6d6d6d"
         color="#bebebe"
         id="rect136" />
    </clipPath>
    <clipPath
       id="clipPath138">
      <rect
         width="90"
         x="307"
         y="31"
         rx="18.75"
         height="90"
         fill="url(#7)"
         color="#bebebe"
         id="rect140" />
    </clipPath>
    <clipPath
       id="clipPath142">
      <rect
         width="22"
         x="433"
         y="77"
         rx="3"
         height="22"
         opacity="0.2"
         fill="#6d6d6d"
         color="#bebebe"
         id="rect144" />
    </clipPath>
    <clipPath
       id="clipPath146">
      <rect
         width="20"
         x="434"
         y="78"
         rx="4"
         height="20"
         color="#bebebe"
         id="rect148" />
    </clipPath>
    <clipPath
       id="clipPath150">
      <rect
         width="240"
         x="24"
         y="36"
         rx="50"
         height="240"
         fill="#986767"
         color="#bebebe"
         id="rect152" />
    </clipPath>
    <clipPath
       id="clipPath154">
      <rect
         width="90"
         x="307"
         y="31"
         rx="18.75"
         height="90"
         fill="url(#3)"
         color="#bebebe"
         id="rect156" />
    </clipPath>
    <clipPath
       id="clipPath158">
      <rect
         width="22"
         x="433"
         y="77"
         rx="4"
         height="22"
         color="#bebebe"
         id="rect160" />
    </clipPath>
    <clipPath
       id="clipPath162">
      <rect
         width="30"
         x="433"
         y="29"
         rx="6"
         height="30"
         color="#bebebe"
         id="rect164" />
    </clipPath>
    <clipPath
       id="clipPath166">
      <rect
         width="22"
         x="433"
         y="77"
         rx="5"
         height="22"
         color="#bebebe"
         id="rect168" />
    </clipPath>
    <clipPath
       id="clipPath170">
      <rect
         width="16"
         x="432"
         y="116"
         rx="3"
         height="16"
         color="#bebebe"
         id="rect172" />
    </clipPath>
    <clipPath
       id="clipPath174">
      <rect
         width="22"
         x="433"
         y="77"
         rx="3"
         height="22"
         opacity="0.2"
         fill="#6d6d6d"
         color="#bebebe"
         id="rect176" />
    </clipPath>
    <clipPath
       id="clipPath178">
      <rect
         width="30"
         x="433"
         y="29"
         rx="4"
         height="30"
         opacity="0.2"
         fill="#6d6d6d"
         color="#bebebe"
         id="rect180" />
    </clipPath>
    <clipPath
       id="clipPath182">
      <rect
         width="60"
         x="306"
         y="142"
         rx="12.5"
         height="60"
         transform="matrix(0 -1 1 0 0 0)"
         fill="url(#9)"
         color="#bebebe"
         id="rect184" />
    </clipPath>
    <clipPath
       id="clipPath186">
      <rect
         width="42"
         x="307"
         y="223"
         rx="9"
         height="42"
         transform="rotate(90)"
         fill="url(#8)"
         color="#bebebe"
         id="rect188" />
    </clipPath>
    <linearGradient
       gradientTransform="matrix(.175 0 0 .175 302.79999 215.99997)"
       id="0"
       xlink:href="#2"
       y1="280"
       y2="40"
       x2="0"
       gradientUnits="userSpaceOnUse" />
    <linearGradient
       gradientTransform="matrix(.25 0 0 .25 299.99999 131.99999)"
       id="1"
       xlink:href="#2"
       y1="230"
       y2="90"
       x2="0"
       gradientUnits="userSpaceOnUse" />
    <linearGradient
       id="2">
      <stop
         stop-color="#f0f0f0"
         id="stop193" />
      <stop
         offset="1"
         stop-color="#f8f8f8"
         id="stop195" />
    </linearGradient>
    <linearGradient
       gradientTransform="translate(11.38843 1.3713)"
       xlink:href="#5"
       y1="140"
       y2="124"
       x2="0"
       gradientUnits="userSpaceOnUse"
       id="linearGradient197" />
    <linearGradient
       gradientTransform="translate(0 4.09376)"
       xlink:href="#5"
       y1="273"
       y2="231"
       x2="0"
       gradientUnits="userSpaceOnUse"
       id="linearGradient199" />
    <linearGradient
       gradientTransform="matrix(5.71429 0 0 5.71429 -1730.2857 -1284)"
       xlink:href="#5"
       y1="273"
       y2="231"
       gradientUnits="userSpaceOnUse"
       x2="0"
       id="linearGradient201" />
    <linearGradient
       gradientTransform="matrix(5.71429 0 0 5.71429 -1730.2857 -1284)"
       xlink:href="#5"
       y1="273"
       y2="231"
       x2="0"
       gradientUnits="userSpaceOnUse"
       id="linearGradient203" />
    <linearGradient
       gradientTransform="matrix(.375 0 0 .375 298 16)"
       xlink:href="#2"
       id="3"
       y1="230"
       y2="90"
       gradientUnits="userSpaceOnUse"
       x2="0" />
    <linearGradient
       id="4">
      <stop
         stop-color="#eaba31"
         id="stop207" />
      <stop
         offset="1"
         stop-color="#ff9200"
         id="stop209" />
    </linearGradient>
    <linearGradient
       id="5">
      <stop
         stop-color="#818181"
         id="stop212" />
      <stop
         offset="1"
         stop-color="#c5c5c5"
         id="stop214" />
    </linearGradient>
    <linearGradient
       id="6">
      <stop
         stop-color="#333"
         id="stop217" />
      <stop
         offset="1"
         stop-color="#555"
         id="stop219" />
    </linearGradient>
    <linearGradient
       xlink:href="#5"
       y1="140"
       y2="124"
       gradientUnits="userSpaceOnUse"
       x2="0"
       id="linearGradient221" />
    <linearGradient
       xlink:href="#5"
       y1="107"
       y2="85"
       gradientUnits="userSpaceOnUse"
       x2="0"
       id="linearGradient223" />
    <linearGradient
       xlink:href="#5"
       y1="107"
       y2="85"
       gradientUnits="userSpaceOnUse"
       x2="0"
       id="linearGradient225" />
    <linearGradient
       gradientTransform="matrix(.375 0 0 .375 298 16)"
       id="7"
       xlink:href="#2"
       y1="230"
       y2="90"
       x2="0"
       gradientUnits="userSpaceOnUse" />
    <linearGradient
       gradientTransform="matrix(.175 0 0 .175 302.79999 215.99997)"
       xlink:href="#2"
       id="8"
       y1="280"
       y2="40"
       gradientUnits="userSpaceOnUse"
       x2="0" />
    <linearGradient
       xlink:href="#5"
       y1="140"
       y2="124"
       gradientUnits="userSpaceOnUse"
       x2="0"
       id="linearGradient229" />
    <linearGradient
       gradientTransform="translate(11.38843 1.3713)"
       xlink:href="#5"
       y1="140"
       y2="124"
       gradientUnits="userSpaceOnUse"
       x2="0"
       id="linearGradient231" />
    <linearGradient
       gradientTransform="translate(0 4.09376)"
       xlink:href="#5"
       y1="273"
       y2="231"
       gradientUnits="userSpaceOnUse"
       x2="0"
       id="linearGradient233" />
    <linearGradient
       xlink:href="#5"
       y1="140"
       y2="124"
       gradientUnits="userSpaceOnUse"
       x2="0"
       id="linearGradient235" />
    <linearGradient
       gradientTransform="translate(11.38843 1.3713)"
       xlink:href="#5"
       y1="140"
       y2="124"
       x2="0"
       gradientUnits="userSpaceOnUse"
       id="linearGradient237" />
    <linearGradient
       gradientTransform="translate(0 4.09376)"
       xlink:href="#5"
       y1="273"
       y2="231"
       x2="0"
       gradientUnits="userSpaceOnUse"
       id="linearGradient239" />
    <linearGradient
       gradientTransform="matrix(5.71429 0 0 5.71429 -1730.2857 -1284)"
       xlink:href="#5"
       y1="273"
       y2="231"
       x2="0"
       gradientUnits="userSpaceOnUse"
       id="linearGradient241" />
    <linearGradient
       gradientTransform="matrix(.25 0 0 .25 299.99999 131.99999)"
       xlink:href="#2"
       id="9"
       y1="230"
       y2="90"
       gradientUnits="userSpaceOnUse"
       x2="0" />
    <linearGradient
       gradientTransform="matrix(.25 0 0 .25 299.99999 131.99999)"
       id="A"
       xlink:href="#2"
       y1="230"
       y2="90"
       x2="0"
       gradientUnits="userSpaceOnUse" />
    <linearGradient
       gradientTransform="matrix(.375 0 0 .375 298 16)"
       id="B"
       xlink:href="#2"
       y1="230"
       y2="90"
       x2="0"
       gradientUnits="userSpaceOnUse" />
    <linearGradient
       gradientTransform="matrix(.175 0 0 .175 302.79999 215.99997)"
       id="C"
       xlink:href="#2"
       y1="280"
       y2="40"
       x2="0"
       gradientUnits="userSpaceOnUse" />
    <linearGradient
       xlink:href="#5"
       y1="107"
       y2="85"
       gradientUnits="userSpaceOnUse"
       x2="0"
       id="linearGradient247" />
    <radialGradient
       cx="328"
       cy="255.42"
       gradientTransform="matrix(2.85714 0 0 2.85714 -609.14349 -473.66662)"
       xlink:href="#4"
       r="7"
       gradientUnits="userSpaceOnUse"
       id="radialGradient249" />
    <radialGradient
       cx="328"
       cy="255.42"
       gradientTransform="matrix(1.22449 0 0 1.22449 49.7555 -179.34296)"
       xlink:href="#4"
       r="7"
       gradientUnits="userSpaceOnUse"
       id="radialGradient251" />
    <radialGradient
       cx="328"
       cy="255.42"
       gradientTransform="matrix(2.85714 0 0 2.85714 -609.14349 -473.66662)"
       xlink:href="#4"
       r="7"
       gradientUnits="userSpaceOnUse"
       id="radialGradient253" />
    <radialGradient
       cx="328"
       cy="255.42"
       gradientTransform="matrix(2.85714 0 0 2.85714 -609.14349 -473.66662)"
       xlink:href="#4"
       r="7"
       gradientUnits="userSpaceOnUse"
       id="radialGradient255" />
    <radialGradient
       cx="328"
       cy="255.42"
       gradientTransform="matrix(1.22449 0 0 1.22449 49.7555 -179.34296)"
       xlink:href="#4"
       r="7"
       gradientUnits="userSpaceOnUse"
       id="radialGradient257" />
    <radialGradient
       cx="328"
       cy="255.42"
       gradientTransform="matrix(1.22449 0 0 1.22449 49.7555 -179.34296)"
       xlink:href="#4"
       r="7"
       gradientUnits="userSpaceOnUse"
       id="radialGradient259" />
    <linearGradient
       gradientTransform="matrix(0.28222223,0,0,0.28222223,0,-283.45334)"
       xlink:href="#6"
       id="D"
       y1="1050.36"
       x2="0"
       y2="1006.36"
       gradientUnits="userSpaceOnUse" />
    <radialGradient
       r="128"
       cy="160"
       cx="148.004"
       gradientTransform="matrix(0.05167489,0,0,0.05167489,-0.87510811,-1.4947613)"
       gradientUnits="userSpaceOnUse"
       id="radialGradient3009"
       xlink:href="#radial0"
       inkscape:collect="always" />
    <radialGradient
       cx="148.004"
       cy="160"
       gradientTransform="matrix(0.1831,0,0,0.1831,-3.10029,-5.29688)"
       id="radial0"
       r="128"
       gradientUnits="userSpaceOnUse">
      <stop
         offset="0"
         style="stop-color:#edaca8"
         id="stop7-2" />
      <stop
         offset="1"
         style="stop-color:#9e0508"
         id="stop9-9" />
    </radialGradient>
    <radialGradient
       r="128"
       cy="160"
       cx="148.004"
       gradientTransform="matrix(0.05167489,0,0,0.05167489,-0.87510811,-1.494761)"
       gradientUnits="userSpaceOnUse"
       id="radialGradient3031"
       xlink:href="#radial0"
       inkscape:collect="always" />
  </defs>
  <path
     inkscape:connector-curvature="0"
     style="fill:url(#radialGradient3031)"
     d="m 13.38778,3.2589211 0,7.0290969 c 0,2.892778 0,3.100035 -3.100035,3.100035 l -7.027995,0 c -3.10113711,0 -3.10113711,-0.207257 -3.10113711,-3.100035 l 0,-7.0290969 c 0,-2.89277789 0,-3.10003479 3.10113711,-3.10003479 l 7.027995,0 c 3.100035,0 3.100035,0.2072569 3.100035,3.10003479 z"
     id="path11" />
  <path
     inkscape:connector-curvature="0"
     id="path15"
     d="m 10.799273,13.388053 c 0.717682,-0.0033 1.235825,-0.02315 1.611753,-0.124575 l -1.193932,-2.046111 -1.2655902,2.170686 0.3362412,0 c 0.180799,0 0.350573,0 0.511528,0 z M 11.217094,11.217367 9.7707049,8.7368991 8.3232139,11.217367 z m 0,0 2.159662,0 c 0.0088,-0.274505 0.01102,-0.582083 0.01102,-0.930451 l 0,-0.3097829 -0.723193,-1.240234 z M 12.664586,8.7368991 11.217094,6.2564299 9.7707049,8.7368991 z m 0,0 0.723194,0 0,-1.2402348 z m -2.8938811,0 L 8.3232139,6.2564299 6.876825,8.7368991 z m -2.8938799,0 -1.4474922,2.4804679 2.8938811,0 z m 0,0 L 5.4293328,6.2564299 3.982945,8.7368991 z m -2.89388,0 -1.4474921,2.4804679 2.8938799,0 z m 0,0 -1.4474921,-2.4804692 -1.446389,2.4804692 z m -2.8938811,0 -0.93045101,1.5941139 c 0,0.329627 0.0033,0.623976 0.01102,0.886354 l 2.36581501,0 z m 0,0 -0.93045101,-1.594115 0,1.594115 z m 1.446389,2.4804679 -1.217083,2.086901 c 0.450894,0.08268 1.07487,0.08379 1.9413801,0.08379 l 0.5423959,0 z m 0,-4.9609371 -1.446389,-2.4804689 -0.93045101,1.5941147 0,0.8863542 z m 0,0 2.8938799,0 L 3.982945,3.775961 z M 3.982945,3.775961 2.5354529,1.2954923 1.0890639,3.775961 z m 0,0 2.89388,0 L 5.4293328,1.2954923 z M 5.4293328,1.2954923 4.76567,0.15888631 l -1.5070221,0 c -0.020949,0 -0.03858,0 -0.05953,0 L 2.5354539,1.2954923 z m 0,0 2.8938811,0 -0.6636631,-1.13660599 -1.5665538,0 z m 2.8938811,0 2.8938801,0 -0.663663,-1.13660599 c -0.0882,0 -0.171979,0 -0.266788,0 l -1.299766,0 z m 0,0 -1.4463889,2.4804687 2.8938799,0 z m 1.447491,2.4804687 2.8938811,0 -1.447492,-2.4804687 z m 0,0 -1.447491,2.4804689 2.8938801,0 z m 1.4463891,2.4804689 2.170686,0 0,-1.2402343 -0.723194,-1.2402346 z m 1.447492,-2.4804689 0.723194,0 0,-0.5170399 c 0,-0.2579689 -0.0022,-0.4938889 -0.0066,-0.71217 z M 8.3232139,6.2564299 6.876825,3.775961 5.4293328,6.2564299 z m 2.8938801,-4.9609376 2.062648,0 C 13.123197,0.51717621 12.747268,0.27133441 11.859811,0.19416411 z m -8.6816411,0 -0.650434,-1.11565979 C 0.85204089,0.23826151 0.43421989,0.46095211 0.26665089,1.2954923 z M 1.0890639,3.775961 0.17514889,2.2083048 c -0.01213,0.3031685 -0.01654,0.6515363 -0.01654,1.0506163 l 0,0.5170399 z m 4.3402689,7.441406 -1.26559,2.170686 2.532283,0 z m 2.8938811,0 -1.2655909,2.170686 2.5322838,0 z m -7.59133701,1.86862 -0.451997,-0.775009 c 0.08268,0.371519 0.221589,0.615157 0.451997,0.775009 z"
     style="fill:#ffffff;fill-opacity:0.05100002" />
  <path
     d="m 3.5312057,10.091621 c -0.04663,-0.03946 -0.081793,-0.1062293 -0.092878,-0.1763713 -0.015026,-0.095081 -0.00673,-0.1228201 0.052637,-0.1759371 0.1637954,-0.1465608 0.370432,-0.09236 0.3385224,0.088793 -0.0593,0.3366534 -0.1339262,0.4025814 -0.2982814,0.2635154 z M 5.3375477,9.0979744 C 5.2587265,9.0108381 5.1713744,8.9416822 5.1401324,8.9416822 c -0.03082,0 -0.098228,-0.050108 -0.1497947,-0.11135 C 4.9248323,8.7525351 4.8696264,8.716396 4.8071311,8.7104 4.7149177,8.7015526 4.6978339,8.6829223 4.6358656,8.5236283 4.6098485,8.4567494 4.5636047,8.4140019 4.4735837,8.3736161 4.3946061,8.3381845 4.3365267,8.2889079 4.3177406,8.2413931 4.2646128,8.1070199 4.2517138,7.9320296 4.2891553,7.8536004 4.3223641,7.7840376 4.3169966,7.7713022 4.2179628,7.6846818 4.0787469,7.5629162 4.0600093,7.5013185 4.1346396,7.4107666 4.2176677,7.3100253 4.2108825,7.2757817 4.0758117,7.1138736 3.9858757,7.0060679 3.9204538,6.9592893 3.8042615,6.9197069 3.7013744,6.8846571 3.6360133,6.8419167 3.6048942,6.7893387 3.5788987,6.7454172 3.5197,6.7010409 3.469895,6.6881413 3.3839586,6.665883 3.3814632,6.6605079 3.3898491,6.5157111 3.4043113,6.2659909 3.5220365,6.1197492 3.7085996,6.1197492 c 0.2173754,0 0.3339649,0.090502 0.474325,0.3681903 0.057912,0.1145728 0.087717,0.1382739 0.2636104,0.2096217 0.1955034,0.079303 0.1996947,0.079735 0.2955167,0.030484 0.053461,-0.027478 0.1416843,-0.058574 0.1960534,-0.069102 0.081945,-0.015868 0.1005648,-0.033451 0.1088608,-0.1027971 0.018247,-0.1525193 0.059272,-0.164769 0.1859649,-0.055528 0.1305602,0.1125759 0.1185956,0.1087194 0.2116904,0.068237 0.073048,-0.031766 0.1688975,-0.1612013 0.1688975,-0.2280808 0,-0.021093 -0.046569,-0.1043495 -0.1034853,-0.1850133 C 5.4531161,6.075096 5.4065481,5.9855764 5.4065481,5.9568265 c 0,-0.02875 0.041645,-0.089569 0.092546,-0.135155 0.0509,-0.045586 0.1190653,-0.1400269 0.1514791,-0.2098698 0.032414,-0.069842 0.077044,-0.1468144 0.099177,-0.171048 0.029857,-0.03269 0.033069,-0.067937 0.012444,-0.1365695 -0.028649,-0.095338 -0.015043,-0.1168549 0.1581456,-0.2500964 0.031006,-0.023855 0.040881,-0.061739 0.029833,-0.114458 -0.011068,-0.052819 -0.00105,-0.09105 0.030386,-0.1159504 0.055592,-0.044033 0.060886,-0.1676021 0.011603,-0.2708342 -0.032304,-0.067667 -0.027289,-0.079916 0.059134,-0.1444697 0.1110302,-0.082933 0.1160304,-0.117283 0.031926,-0.2193304 -0.077619,-0.094179 -0.060623,-0.1147862 0.049643,-0.060188 0.07717,0.038211 0.092558,0.037106 0.1744106,-0.012513 0.049376,-0.029932 0.1402042,-0.08083 0.2018418,-0.1131057 0.061638,-0.032276 0.1240756,-0.088825 0.1387507,-0.125664 0.014675,-0.036839 0.052825,-0.074899 0.084778,-0.084579 0.074082,-0.022441 0.1011992,-0.089422 0.063454,-0.1567359 -0.016204,-0.028896 -0.029461,-0.09875 -0.029461,-0.1552311 0,-0.082845 0.01,-0.1007357 0.051743,-0.09257 0.040226,0.00787 0.049784,0.033673 0.042943,0.1159288 l -0.0088,0.1058066 0.1418523,-0.00328 c 0.2096789,-0.00484 0.3316889,0.028093 0.3834694,0.1035177 0.05312,0.077376 0.089517,0.083535 0.1557214,0.026352 0.052665,-0.045488 0.2651997,-0.062254 0.4009768,-0.031629 0.074826,0.016876 0.1022864,0.00645 0.1755433,-0.06668 0.047762,-0.047678 0.1018212,-0.086686 0.1201288,-0.086686 0.082969,0 0.2599548,0.2690452 0.2870963,0.4364296 0.00495,0.030508 0.044225,0.074342 0.087286,0.097409 0.073162,0.039192 0.085945,0.036878 0.1951111,-0.035325 0.064251,-0.042497 0.1317563,-0.108553 0.1500119,-0.1467928 0.018255,-0.038239 0.053853,-0.069527 0.079105,-0.069527 0.071845,0 0.088615,0.08611 0.034347,0.1763555 -0.075455,0.1254788 -0.06219,0.1682815 0.1058027,0.3413999 0.1735915,0.178888 0.2743471,0.2082078 0.3057062,0.08896 0.013155,-0.050028 0.038613,-0.070548 0.08752,-0.070548 0.0915,0 0.1082891,0.032416 0.1185436,0.2288799 0.00732,0.1402714 0.024282,0.1841051 0.1106157,0.2858653 0.1393358,0.1642336 0.2572396,0.3853234 0.2572396,0.4823655 0,0.044237 0.02707,0.1132735 0.06015,0.1534138 0.05697,0.069133 0.05917,0.098393 0.04145,0.5547281 -0.01031,0.26496 -0.01904,0.5007934 -0.01947,0.5240744 -4.26e-4,0.023281 -0.03757,0.1248705 -0.08255,0.2257546 -0.05233,0.1173891 -0.08928,0.2632178 -0.1026238,0.4050592 -0.01884,0.2002928 -0.097268,0.4062717 -0.1585917,0.416519 -0.01059,0.00177 -0.058653,0.00756 -0.1068071,0.012877 -0.048154,0.00532 -0.144069,0.04768 -0.2131449,0.094149 -0.069076,0.04647 -0.1826878,0.099061 -0.2524707,0.1168693 -0.069783,0.017808 -0.1435097,0.045391 -0.1638372,0.061295 -0.060628,0.047434 -0.042064,0.1551723 0.036959,0.2144985 0.079404,0.059611 0.0935,0.1161617 0.041359,0.1659253 -0.023701,0.02262 -0.061023,0.012639 -0.1371786,-0.036685 -0.1298622,-0.084109 -0.138795,-0.083999 -0.3117399,0.00387 -0.1253196,0.063671 -0.1476167,0.067197 -0.200676,0.031726 -0.052428,-0.035048 -0.1110184,-0.042048 -0.06877,-0.05752 0.026456,-0.00969 0.1371493,-0.017617 0.1760989,-0.017617 0.04442,0 0.09036,-0.02853 0.1232427,-0.076538 0.044307,-0.064686 0.050946,-0.1281068 0.042876,-0.4095737 C 8.7410422,7.3372311 8.7709959,7.2754804 9.0428691,7.1522615 9.2731649,7.0478867 9.3600122,6.8992369 9.2909914,6.7275707 9.2692982,6.6736169 9.0708823,6.5712586 8.9879882,6.5712586 c -0.031726,0 -0.09213,-0.03907 -0.1342305,-0.086823 -0.062005,-0.070329 -0.076546,-0.1162489 -0.076546,-0.2417193 0,-0.085193 0.013646,-0.1792321 0.030324,-0.2089755 0.051802,-0.092381 0.073115,-0.5827929 0.028764,-0.6618847 -0.028623,-0.051044 -0.033861,-0.1487876 -0.020194,-0.3767724 0.016805,-0.2803185 0.013247,-0.3135795 -0.039787,-0.3719404 -0.032034,-0.035251 -0.058242,-0.088524 -0.058242,-0.1183839 0,-0.02986 -0.03659,-0.089061 -0.08131,-0.1315573 C 8.5638567,4.3039178 8.5199518,4.2920506 8.2117498,4.2583227 7.6533838,4.1972182 7.5140761,4.2410122 7.312616,4.5409826 7.2399976,4.6491108 7.1805815,4.7484243 7.1805815,4.7616792 c 0,0.033194 -0.3281726,0.4248494 -0.4285834,0.5114902 -0.086767,0.074868 -0.28103,0.4300582 -0.28103,0.5138343 0,0.027394 -0.064256,0.1114575 -0.1427896,0.186807 -0.1420861,0.1363246 -0.2022924,0.2539831 -0.2840564,0.5551189 -0.021071,0.077603 -0.06005,0.1902676 -0.08662,0.2503652 -0.082261,0.1860597 -0.065293,0.2823316 0.067447,0.382671 0.089153,0.067391 0.1622043,0.093605 0.3178476,0.114053 0.1111497,0.014603 0.2885743,0.040447 0.3942772,0.057431 0.1057028,0.016985 0.3432381,0.041932 0.5278564,0.05544 0.4140168,0.030292 0.465026,0.06246 0.4864601,0.3067792 0.0077,0.087764 0.033093,0.2293506 0.056429,0.3146387 0.040322,0.1473635 0.048198,0.1562513 0.1584965,0.1788538 0.063837,0.013081 0.1859188,0.030192 0.271294,0.038023 0.085375,0.00783 0.1972758,0.022587 0.1971733,0.032791 -8.88e-5,0.010205 -0.08364,0.041001 -0.1341455,0.068437 -0.06756,0.036703 -0.087778,0.06466 -0.076507,0.1057946 0.020214,0.073775 -0.021011,0.094753 -0.097996,0.049867 -0.05351,-0.0312 -0.068046,-0.028625 -0.1046877,0.018547 -0.023403,0.030127 -0.04255,0.078146 -0.04255,0.1067079 0,0.028562 -0.023284,0.058878 -0.051743,0.067368 C 7.898696,8.685187 7.840095,8.710186 7.7969314,8.73225 7.6365353,8.814237 7.5161689,8.761677 7.321315,8.5245647 7.2930158,8.4901287 7.2447459,8.4619527 7.2140486,8.4619527 c -0.030696,0 -0.1038962,-0.019174 -0.1626649,-0.042611 C 6.983167,8.3921395 6.8829709,8.3806256 6.7742758,8.3874994 6.6291221,8.3966751 6.5896055,8.3880074 6.5062493,8.3286845 6.3329936,8.2053811 6.2281474,8.2805024 6.2217843,8.5325007 c -0.00205,0.081171 -0.00764,0.084689 -0.1358979,0.085419 -0.1701249,9.679e-4 -0.3641291,0.1312097 -0.3449576,0.231581 0.010027,0.0525 0.00143,0.060487 -0.051448,0.047819 -0.084126,-0.020152 -0.2237983,0.032329 -0.2237983,0.084089 0,0.054223 0.096411,0.081933 0.2952737,0.084866 0.1333806,0.00197 0.1640992,0.011705 0.1727844,0.054773 0.015755,0.078127 -0.019098,0.094301 -0.2470741,0.1146625 L 5.4789257,9.2542669 z M 8.0971654,8.79892 c 0,-0.016436 0.013305,-0.022036 0.029567,-0.012444 0.016262,0.00959 0.029567,0.023041 0.029567,0.029885 0,0.00684 -0.013305,0.012444 -0.029567,0.012444 -0.016262,0 -0.029567,-0.013449 -0.029567,-0.029885 z M 7.2988504,6.4665807 C 7.2291338,6.4421147 7.1510142,6.3686247 7.1510142,6.3275048 c 0,-0.020609 0.048403,-0.1365957 0.1075618,-0.2577475 0.079687,-0.1631924 0.137856,-0.2410593 0.2244612,-0.3004744 0.1140441,-0.078239 0.1181714,-0.078902 0.1689717,-0.027127 0.02864,0.029189 0.082679,0.1334948 0.120087,0.23179 0.043979,0.115561 0.097762,0.1997099 0.1521914,0.2381164 0.1016809,0.07175 0.1095259,0.169734 0.018463,0.2306092 -0.04843,0.032375 -0.1359161,0.043343 -0.3326312,0.041701 -0.1468048,-0.00122 -0.2868757,-0.00923 -0.3112682,-0.017791 z"
     id="path280"
     fill="#cc2d2d"
     style="fill:#f9f9f9;fill-opacity:1" />
</svg>
