<?xml version="1.0" encoding="UTF-8" standalone="no"?>
<svg
   xmlns:dc="http://purl.org/dc/elements/1.1/"
   xmlns:cc="http://creativecommons.org/ns#"
   xmlns:rdf="http://www.w3.org/1999/02/22-rdf-syntax-ns#"
   xmlns:svg="http://www.w3.org/2000/svg"
   xmlns="http://www.w3.org/2000/svg"
   xmlns:xlink="http://www.w3.org/1999/xlink"
   xmlns:sodipodi="http://sodipodi.sourceforge.net/DTD/sodipodi-0.dtd"
   xmlns:inkscape="http://www.inkscape.org/namespaces/inkscape"
   width="48"
   viewBox="0 0 13.546667 13.546667"
   height="48"
   id="svg2"
   version="1.1"
   inkscape:version="0.48.4 r9939"
   sodipodi:docname="steam_icon_204180.svg">
  <metadata
     id="metadata43">
    <rdf:RDF>
      <cc:Work
         rdf:about="">
        <dc:format>image/svg+xml</dc:format>
        <dc:type
           rdf:resource="http://purl.org/dc/dcmitype/StillImage" />
      </cc:Work>
    </rdf:RDF>
  </metadata>
  <sodipodi:namedview
     pagecolor="#ffffff"
     bordercolor="#666666"
     borderopacity="1"
     objecttolerance="10"
     gridtolerance="10"
     guidetolerance="10"
     inkscape:pageopacity="0"
     inkscape:pageshadow="2"
     inkscape:window-width="672"
     inkscape:window-height="480"
     id="namedview41"
     showgrid="false"
     inkscape:zoom="4.9166667"
     inkscape:cx="34.304116"
     inkscape:cy="27.048277"
     inkscape:window-x="0"
     inkscape:window-y="0"
     inkscape:window-maximized="0"
     inkscape:current-layer="svg2" />
  <defs
     id="defs4">
    <linearGradient
       id="0">
      <stop
         stop-color="#263342"
         id="stop7" />
      <stop
         offset="1"
         stop-color="#48576d"
         id="stop9" />
    </linearGradient>
    <linearGradient
       xlink:href="#0"
       id="1"
       gradientUnits="userSpaceOnUse"
       gradientTransform="matrix(1.10525,0,0,1.10525,-134.27888,-295.76214)"
       y1="279.1"
       x2="0"
       y2="268.33" />
    <linearGradient
       gradientTransform="matrix(0.28222223,0,0,0.28222223,0,-283.45334)"
       xlink:href="#0"
       id="2"
       y1="1050.36"
       x2="0"
       y2="1006.36"
       gradientUnits="userSpaceOnUse" />
    <radialGradient
       cx="148.004"
       cy="160"
       gradientTransform="matrix(0.1831,0,0,0.1831,-3.10029,-5.29688)"
       id="radial0"
       r="128"
       gradientUnits="userSpaceOnUse">
      <stop
         offset="0"
         style="stop-color:#8edef5"
         id="stop7-1" />
      <stop
         offset="1"
         style="stop-color:#0a7392"
         id="stop9-7" />
    </radialGradient>
    <radialGradient
       r="128"
       cy="160"
       cx="148.004"
       gradientTransform="matrix(0.05167489,0,0,0.05167489,-0.87510911,-1.4947615)"
       gradientUnits="userSpaceOnUse"
       id="radialGradient3003"
       xlink:href="#radial0"
       inkscape:collect="always" />
  </defs>
  <path
     inkscape:connector-curvature="0"
     style="fill:url(#radialGradient3003)"
     d="m 13.387779,3.2589206 0,7.0290974 c 0,2.892778 0,3.100035 -3.100035,3.100035 l -7.0279948,0 c -3.10113731,0 -3.10113731,-0.207257 -3.10113731,-3.100035 l 0,-7.0290974 c 0,-2.89277779 0,-3.10003479 3.10113731,-3.10003479 l 7.0279948,0 c 3.100035,0 3.100035,0.207257 3.100035,3.10003479 z"
     id="path11" />
  <path
     inkscape:connector-curvature="0"
     id="path15-3"
     d="m 10.799272,13.388053 c 0.717682,-0.0033 1.235825,-0.02315 1.611753,-0.124575 l -1.193932,-2.046111 -1.2655901,2.170686 0.3362411,0 c 0.180799,0 0.350573,0 0.511528,0 z M 11.217093,11.217367 9.7707043,8.7368981 8.323213,11.217367 z m 0,0 2.159662,0 c 0.0088,-0.274505 0.01102,-0.582083 0.01102,-0.930451 l 0,-0.3097839 -0.723194,-1.240234 z M 12.664585,8.7368981 11.217093,6.2564294 9.7707043,8.7368981 z m 0,0 0.723194,0 0,-1.240234 z m -2.8938807,0 L 8.323213,6.2564294 6.8768241,8.7368981 z m -2.8938802,0 -1.4474916,2.4804689 2.8938805,0 z m 0,0 L 5.4293325,6.2564294 3.9829436,8.7368981 z m -2.8938805,0 -1.4474913,2.4804689 2.8938802,0 z m 0,0 L 2.5354523,6.2564294 1.0890634,8.7368981 z m -2.8938802,0 -0.93045151,1.5941149 c 0,0.329627 0.0033,0.623976 0.01102,0.886354 l 2.36581641,0 z m 0,0 -0.93045151,-1.594114 0,1.594114 z M 2.5354523,11.217367 1.318369,13.304268 c 0.450894,0.08268 1.0748699,0.08379 1.9413802,0.08379 l 0.5423958,0 z m 0,-4.9609376 -1.4463889,-2.4804689 -0.93045151,1.5941147 0,0.8863542 z m 0,0 2.8938802,0 L 3.9829436,3.7759605 z M 3.9829436,3.7759605 2.5354523,1.2954918 1.0890634,3.7759605 z m 0,0 2.8938805,0 -1.4474916,-2.4804687 z m 1.4463889,-2.4804687 -0.663663,-1.13660599 -1.5059203,0 c -0.02205,0 -0.039688,0 -0.060634,0 L 2.5354523,1.2954918 z m 0,0 2.8938805,0 -0.6636633,-1.13660599 -1.5665538,0 z m 2.8938805,0 2.89388,0 -0.663663,-1.13660599 c -0.0882,0 -0.171979,0 -0.265686,0 l -1.3008679,0 z m 0,0 -1.4463889,2.4804687 2.8938802,0 z m 1.4474913,2.4804687 2.8938807,0 -1.447492,-2.4804687 z m 0,0 -1.4474913,2.4804689 2.89388,0 z m 1.4463887,2.4804689 2.170686,0 0,-1.2402343 -0.723194,-1.2402346 z m 1.447492,-2.4804689 0.723194,0 0,-0.5170399 c 0,-0.2579689 -0.0022,-0.4938889 -0.0066,-0.71217 z M 8.323213,6.2564294 6.8768241,3.7759605 5.4293325,6.2564294 z m 2.89388,-4.9609376 2.062648,0 C 13.123196,0.51717571 12.747267,0.27133391 11.85981,0.19416361 z m -8.6816407,0 L 1.8850184,0.17983211 C 0.85204079,0.23826111 0.43421989,0.46095171 0.26664989,1.2954918 z M 1.0890634,3.7759605 0.17514889,2.2083043 c -0.01213,0.3031685 -0.01654,0.6515363 -0.01654,1.0506163 l 0,0.5170399 z m 4.3402691,7.4414065 -1.2655903,2.170686 2.532283,0 z m 2.8938805,0 -1.2655906,2.170686 2.5322833,0 z m -7.59133711,1.86862 -0.451996,-0.775009 c 0.08268,0.371519 0.2215881,0.615157 0.451996,0.775009 z"
     style="fill:#ffffff;fill-opacity:0.05100002" />
  <path
     d="m 2.3378925,4.7536807 c -0.3826007,0 -0.713075,0.1832119 -1.0309666,0.3439583 -0.31789157,0.1607465 -0.60629685,0.3086806 -0.94848915,0.3086806 -0.106935,0 -0.20523924,-0.018815 -0.30928995,-0.044097 -0.0092242,0.0325 -0.01202123,0.064303 -0.02061937,0.097014 0.10581992,0.023628 0.21468488,0.044097 0.32990929,0.044097 0.38260087,0 0.70276538,-0.1567536 1.02065698,-0.3175 C 1.6969851,5.0250871 1.9957003,4.877153 2.3378925,4.877153 c 0.3421919,0 0.6615265,0.1479341 0.9794181,0.3086806 0.3178917,0.1607464 0.6380566,0.3175 1.020657,0.3175 0.3826004,0 0.7130749,-0.1567536 1.0309665,-0.3175 0.317892,-0.1607466 0.6372261,-0.3086807 0.9794182,-0.3086807 0.3421925,0 0.6409075,0.1479341 0.9587989,0.3086806 0.3178917,0.1607464 0.6380566,0.3175 1.0206569,0.3175 0.3826006,0 0.7027651,-0.1567536 1.0206569,-0.3175 0.3178917,-0.1607465 0.6475354,-0.3086806 0.989729,-0.3086806 0.342191,0 0.630597,0.1479341 0.948488,0.3086806 0.317891,0.1607464 0.638057,0.3175 1.020657,0.3175 0.3826,0 0.744003,-0.1567533 1.061895,-0.3175 0.02507,-0.012677 0.0044,-0.00184 0.0291,-0.014332 0,-0.039835 0,-0.091502 0,-0.1333941 -0.04458,0.027461 -0.06279,0.040075 -0.101263,0.059531 -0.317892,0.1607468 -0.647537,0.3086806 -0.989729,0.3086806 -0.342191,0 -0.630599,-0.1479341 -0.948488,-0.3086806 C 11.040963,4.936892 10.720799,4.7536801 10.338199,4.7536801 9.9555972,4.7536801 9.6251234,4.936892 9.3072318,5.0976384 8.9893347,5.2583855 8.6700005,5.4063196 8.3278081,5.4063196 7.985616,5.4063196 7.6972106,5.2583855 7.3793189,5.097639 7.0614275,4.9368926 6.730953,4.7536807 6.3483523,4.7536807 5.9657516,4.7536807 5.6146585,4.9368926 5.2967665,5.097639 4.9788748,5.2583855 4.6801593,5.4063196 4.3379676,5.4063196 3.9957754,5.4063196 3.676441,5.2583855 3.3585494,5.097639 3.0406577,4.9368926 2.7204927,4.7536807 2.3378925,4.7536807 z"
     id="path31"
     inkscape:connector-curvature="0"
     style="color:#000000;fill:#f9f9f9;fill-opacity:1" />
  <path
     d="m 2.669976,5.5915279 c -0.3166755,0 -0.585595,0.1567536 -0.8431299,0.3175 -0.2575349,0.1607465 -0.5031918,0.3086806 -0.7736958,0.3086806 -0.27050343,0 -0.51616117,-0.1479341 -0.77369585,-0.3086806 -0.0294755,-0.018398 -0.093381,-0.050402 -0.1232183,-0.068351 0,0.037655 0,0.087788 0,0.1223698 0.0139035,0.00864 0.0398139,0.025455 0.053784,0.034174 0.25753481,0.1607464 0.52645464,0.3175 0.84313019,0.3175 0.3166757,0 0.585595,-0.1567536 0.84313,-0.3175 0.2575351,-0.1607459 0.5031921,-0.30868 0.7736957,-0.30868 0.2705039,0 0.516161,0.1479341 0.7736959,0.3086806 0.2575352,0.1607464 0.5264539,0.3175 0.8431301,0.3175 0.3166756,0 0.5855949,-0.1567536 0.84313,-0.3175 C 5.3874675,5.8364751 5.6331234,5.688541 5.9036278,5.688541 c 0.2705035,0 0.5161609,0.1479341 0.7736958,0.3086806 0.2575349,0.1607464 0.5264542,0.3175 0.8431301,0.3175 0.3166761,0 0.5855949,-0.1567536 0.84313,-0.3175 C 8.6211189,5.8364751 8.8667755,5.688541 9.1372795,5.688541 c 0.2705041,0 0.5161609,0.1479341 0.7736959,0.3086806 0.2575356,0.1607464 0.5264546,0.3175 0.8431296,0.3175 0.316676,0 0.585596,-0.1567536 0.843131,-0.3175 0.257535,-0.1607465 0.50319,-0.3086806 0.773696,-0.3086806 0.270503,0 0.516161,0.1479341 0.773696,0.3086806 0.08627,0.053844 0.163465,0.1078795 0.25371,0.1543403 0,-0.1250793 0,-0.067129 0,-0.127882 -0.0539,-0.031938 -0.129631,-0.08054 -0.184282,-0.1146529 -0.257536,-0.1607464 -0.526454,-0.3175 -0.84313,-0.3175 -0.316677,0 -0.585597,0.1567536 -0.843131,0.3175 -0.257535,0.1607465 -0.503191,0.3086806 -0.773696,0.3086806 -0.270504,0 -0.51616,-0.1479341 -0.7736962,-0.3086806 -0.2575344,-0.1607464 -0.5264541,-0.3175 -0.8431296,-0.3175 -0.3166761,0 -0.585595,0.1567536 -0.8431301,0.3175 -0.2575352,0.1607465 -0.5031914,0.3086806 -0.7736958,0.3086806 -0.2705045,0 -0.516161,-0.1479341 -0.7736958,-0.3086806 -0.2575349,-0.1607464 -0.5264548,-0.3175 -0.8431301,-0.3175 -0.3166763,0 -0.5855946,0.1567536 -0.84313,0.3175 C 4.8029562,6.0697735 4.5572997,6.2177076 4.2867956,6.2177076 4.0162908,6.2177076 3.7706349,6.0697735 3.5130998,5.909027 3.2555649,5.7482806 2.9866453,5.591527 2.6699697,5.591527 z"
     id="path33"
     inkscape:connector-curvature="0"
     style="color:#000000;fill:#f9f9f9;fill-opacity:1" />
  <path
     d="m 1.0178304,6.4029168 c -0.25922426,0 -0.45893767,0.1567536 -0.66078404,0.3175001 -0.0700047,0.05575 -0.13250753,0.099298 -0.20081021,0.1469291 7.7486e-4,0.043845 -0.001825,0.09319 0,0.1367938 C 0.24914544,6.9493268 0.33814376,6.8786447 0.4260835,6.8086113 0.62792991,6.6478649 0.81684469,6.4999307 1.0178304,6.4999307 c 0.2009854,0 0.3899005,0.1479342 0.5917468,0.3086806 0.1937724,0.1543166 0.4255152,0.3044681 0.6706465,0.3175 0.010205,5.43e-4 0.01922,0 0.029586,0 0.2451316,-0.013032 0.4768742,-0.1631834 0.6706465,-0.3175 0.2018463,-0.1607464 0.3907615,-0.3086806 0.5917469,-0.3086806 0.2009857,0 0.3899006,0.1479342 0.5917469,0.3086806 0.2018462,0.1607464 0.4015594,0.3175 0.660784,0.3175 0.2592242,0 0.4687999,-0.1567536 0.6706465,-0.3175 0.2018465,-0.1607464 0.3907612,-0.3086806 0.5917468,-0.3086806 0.2009851,0 0.3899007,0.1479342 0.591747,0.3086806 0.2018463,0.1607464 0.4410095,0.3175 0.7002338,0.3175 0.2592246,0 0.4589374,-0.1567536 0.660784,-0.3175 0.2018463,-0.1607464 0.4006237,-0.3086806 0.6016093,-0.3086806 0.2009853,0 0.3899003,0.1479342 0.5917469,0.3086806 0.2018465,0.1607464 0.40156,0.3175 0.660784,0.3175 0.2592233,0 0.4688013,-0.1567536 0.6706463,-0.3175 0.201846,-0.1607464 0.390762,-0.3086806 0.591746,-0.3086806 0.200985,0 0.389902,0.1479342 0.591748,0.3086806 0.201846,0.1607467 0.441011,0.3175 0.700235,0.3175 0.259225,0 0.458935,-0.1567536 0.660783,-0.3175 0.09874,-0.078631 0.193104,-0.1562536 0.289146,-0.2138716 -0.0012,-0.037802 0.002,-0.077035 0,-0.1146528 -0.123269,0.059303 -0.245252,0.1503939 -0.358182,0.24033 -0.201848,0.1607467 -0.390762,0.3086805 -0.591747,0.3086805 -0.200986,0 -0.429351,-0.1479341 -0.631199,-0.3086805 -0.201844,-0.1607468 -0.401559,-0.3175001 -0.660784,-0.3175001 -0.259222,0 -0.4688,0.1567536 -0.670645,0.3175001 -0.201847,0.1607464 -0.390762,0.3086805 -0.5917473,0.3086805 -0.2009853,0 -0.3899003,-0.1479341 -0.5917469,-0.3086805 C 9.1004402,6.5596704 8.9007267,6.4029168 8.6415028,6.4029168 c -0.2592243,0 -0.4688003,0.1567536 -0.6706465,0.3175001 C 7.7690097,6.8811633 7.5800954,7.0290974 7.3791094,7.0290974 7.1781237,7.0290974 6.9497589,6.8811633 6.7479127,6.7204169 6.5460664,6.5596704 6.3463526,6.4029168 6.0871287,6.4029168 c -0.2592243,0 -0.4589375,0.1567536 -0.660784,0.3175001 C 5.224498,6.8811633 5.025721,7.0290974 4.8247353,7.0290974 4.6237494,7.0290974 4.4348347,6.8811633 4.2329885,6.7204169 4.0311422,6.5596704 3.8314287,6.4029168 3.5722045,6.4029168 c -0.259224,0 -0.4589378,0.1567536 -0.660784,0.3175001 C 2.718143,6.8743392 2.5017047,7.0172915 2.309811,7.0290974 c -0.00853,0 -0.021079,5.235e-4 -0.029586,0 C 2.0883303,7.0172915 1.881754,6.8743392 1.6884769,6.7204169 1.4866305,6.5596704 1.2770544,6.4029168 1.0178304,6.4029168 z"
     id="path35"
     inkscape:connector-curvature="0"
     style="color:#000000;fill:#f9f9f9;fill-opacity:1" />
  <path
     d="m 0.73953025,7.2231252 c -0.10373341,0 -0.1966725,0.023861 -0.27753969,0.088194 -0.0808677,0.064333 -0.1349447,0.1665713 -0.20815478,0.2469445 -0.023441,0.025734 -0.0751293,0.080643 -0.0975996,0.1058333 0,0.042081 0,0.09377 0,0.135599 0.0366972,-0.039525 0.1270518,-0.1270365 0.16698452,-0.1708767 0.0732102,-0.080373 0.1771259,-0.1642596 0.2478033,-0.2204862 0.0706774,-0.056227 0.10532073,-0.097014 0.16850624,-0.097014 0.0631854,0 0.14738953,0.040787 0.21806691,0.097014 0.0706777,0.056227 0.13494444,0.1401129 0.20815474,0.2204862 0.073209,0.080373 0.1669361,0.1473335 0.2478034,0.2116666 0.080868,0.064333 0.14407,0.1322917 0.2478032,0.1322917 0.1037335,0 0.1966725,-0.067959 0.2775398,-0.1322917 0.080867,-0.064333 0.1745932,-0.1312934 0.2478032,-0.2116666 0.07321,-0.080373 0.1374774,-0.1642596 0.2081549,-0.2204862 0.070677,-0.056227 0.1449693,-0.097014 0.2081547,-0.097014 0.063186,0 0.1077412,0.040787 0.1784183,0.097014 0.070677,0.056227 0.134945,0.1401129 0.2081548,0.2204862 0.073209,0.080373 0.166936,0.1473335 0.2478033,0.2116666 0.080868,0.064333 0.1738065,0.1322917 0.2775397,0.1322917 0.1037335,0 0.2065848,-0.067959 0.2874519,-0.1322917 0.080867,-0.064333 0.1349449,-0.1312934 0.2081548,-0.2116666 0.07321,-0.080373 0.1374774,-0.1642596 0.2081547,-0.2204862 0.070677,-0.056227 0.1449697,-0.097014 0.2081549,-0.097014 0.063185,0 0.1473894,0.040787 0.2180669,0.097014 0.070677,0.056227 0.1349445,0.1401129 0.2081548,0.2204862 0.073209,0.080373 0.1272872,0.1473335 0.2081548,0.2116666 0.080868,0.064333 0.1837185,0.1322917 0.2874518,0.1322917 0.1037335,0 0.1966722,-0.067959 0.2775397,-0.1322917 0.080867,-0.064333 0.1349448,-0.1312934 0.2081547,-0.2116666 0.073209,-0.080373 0.1771259,-0.1642596 0.2478033,-0.2204862 0.070677,-0.056227 0.1152326,-0.097014 0.1784185,-0.097014 0.063185,0 0.1374773,0.040787 0.2081547,0.097014 0.070676,0.056227 0.1349449,0.1401129 0.2081548,0.2204862 0.073209,0.080373 0.1669357,0.1473335 0.2478033,0.2116666 0.080868,0.064333 0.1440697,0.1322917 0.2478033,0.1322917 0.1037334,0 0.1966722,-0.067959 0.2775397,-0.1322917 0.080868,-0.064333 0.1745934,-0.1312934 0.2478032,-0.2116666 0.07321,-0.080373 0.1374773,-0.1642596 0.2081549,-0.2204862 0.070676,-0.056227 0.1548813,-0.097014 0.2180669,-0.097014 0.063185,0 0.097829,0.040787 0.1685062,0.097014 0.070677,0.056227 0.144857,0.1401129 0.2180669,0.2204862 0.07321,0.080373 0.1570241,0.1473335 0.2378912,0.2116666 0.080868,0.064333 0.1837186,0.1322917 0.2874519,0.1322917 0.1037333,0 0.1966725,-0.067959 0.2775396,-0.1322917 0.080868,-0.064333 0.1349448,-0.1312934 0.2081548,-0.2116666 0.073209,-0.080373 0.1473894,-0.1642596 0.2180669,-0.2204862 0.070676,-0.056227 0.1449693,-0.097014 0.2081547,-0.097014 0.063186,0 0.137477,0.040787 0.208155,0.097014 0.07067,0.056227 0.134944,0.1401129 0.208155,0.2204862 0.07321,0.080373 0.137199,0.1473335 0.218067,0.2116666 0.08086,0.064333 0.173807,0.1322917 0.277539,0.1322917 0.103739,0 0.196672,-0.067959 0.277539,-0.1322917 0.08086,-0.064333 0.144859,-0.1312934 0.218068,-0.2116666 0.0732,-0.080373 0.167214,-0.1642596 0.237891,-0.2204862 0.07068,-0.056227 0.115233,-0.097014 0.178419,-0.097014 0.06318,0 0.137476,0.040787 0.208155,0.097014 0.07068,0.056227 0.144856,0.1401129 0.218066,0.2204862 0.0732,0.080373 0.157025,0.1473335 0.237892,0.2116666 0.08086,0.064333 0.144069,0.1322917 0.247802,0.1322917 0.103738,0 0.206584,-0.067959 0.287452,-0.1322917 0.08086,-0.064333 0.164682,-0.1312934 0.237891,-0.2116666 0.06323,-0.069413 0.129046,-0.1409097 0.189346,-0.1951302 0,-0.053922 0,-0.095911 0,-0.1532379 -0.103077,0.084576 -0.205457,0.1868886 -0.288462,0.2778128 -0.0732,0.080373 -0.147388,0.1642595 -0.218067,0.2204861 -0.07068,0.056227 -0.144969,0.061736 -0.208154,0.061736 -0.06318,0 -0.107736,-0.00551 -0.178419,-0.061736 -0.07068,-0.056227 -0.134944,-0.1401129 -0.208155,-0.2204861 -0.0732,-0.080373 -0.166936,-0.1826113 -0.247802,-0.2469445 -0.08086,-0.064333 -0.173807,-0.088194 -0.27754,-0.088194 -0.103738,0 -0.196672,0.023861 -0.27754,0.088194 -0.08086,0.064333 -0.144858,0.1665713 -0.218067,0.2469445 -0.0732,0.080373 -0.137477,0.1642595 -0.208154,0.2204861 -0.07068,0.056227 -0.14497,0.061736 -0.208155,0.061736 -0.06318,0 -0.137478,-0.00551 -0.208155,-0.061736 C 10.580989,7.7225231 10.50681,7.6386372 10.433601,7.558264 10.360393,7.477891 10.306313,7.3756527 10.225446,7.3113195 c -0.08087,-0.064333 -0.173807,-0.088194 -0.2775396,-0.088194 -0.1037335,0 -0.2065846,0.023861 -0.2874519,0.088194 C 9.5795865,7.3756525 9.5255097,7.4778908 9.4522998,7.558264 9.3790905,7.638637 9.3148226,7.7225235 9.244145,7.7787501 c -0.070676,0.056227 -0.1449695,0.061736 -0.2081548,0.061736 -0.063185,0 -0.1473894,-0.00551 -0.2180668,-0.061736 C 8.7472405,7.7225236 8.6829735,7.6386373 8.6097632,7.5582641 8.536553,7.4778909 8.4428273,7.3756528 8.3619599,7.3113196 8.2810925,7.2469865 8.2278019,7.2231252 8.1240688,7.2231252 c -0.1037335,0 -0.2065845,0.023861 -0.2874518,0.088194 -0.080868,0.064333 -0.1745931,0.1665713 -0.2478033,0.2469445 -0.073209,0.080373 -0.1374774,0.1642595 -0.2081548,0.2204861 -0.070677,0.056227 -0.144969,0.061736 -0.2081548,0.061736 -0.063185,0 -0.1077412,-0.00551 -0.1784184,-0.061736 C 6.9234083,7.7225236 6.8591408,7.6386373 6.785931,7.5582641 6.712721,7.4778909 6.6189948,7.3756528 6.5381276,7.3113196 6.4572604,7.2469865 6.3643211,7.2231252 6.260588,7.2231252 c -0.1037335,0 -0.2065845,0.023861 -0.2874519,0.088194 -0.080868,0.064333 -0.1349449,0.1665713 -0.2081548,0.2469445 -0.073209,0.080373 -0.1374773,0.1642595 -0.2081548,0.2204861 -0.070676,0.056227 -0.1449694,0.061736 -0.2081547,0.061736 -0.063186,0 -0.1473896,-0.00551 -0.2180669,-0.061736 C 5.0599273,7.7225236 4.9956599,7.6386373 4.9224501,7.5582641 4.8492402,7.4778909 4.7951624,7.3756528 4.7142953,7.3113196 4.6334282,7.2469865 4.5305767,7.2231252 4.4268435,7.2231252 c -0.1037334,0 -0.1966726,0.023861 -0.2775398,0.088194 -0.080868,0.064333 -0.1349449,0.1665713 -0.2081548,0.2469445 -0.07321,0.080373 -0.1771258,0.1642595 -0.2478033,0.2204861 -0.070676,0.056227 -0.1152332,0.061736 -0.1784184,0.061736 -0.063186,0 -0.1374772,-0.00551 -0.2081548,-0.061736 C 3.2360951,7.7225236 3.1718277,7.6386373 3.0986177,7.5582641 3.0254079,7.4778909 2.9316816,7.3756528 2.8508144,7.3113196 2.7699473,7.2469865 2.7067441,7.2231252 2.6030111,7.2231252 c -0.1037335,0 -0.1966725,0.023861 -0.2775398,0.088194 -0.080868,0.064333 -0.1745933,0.1665713 -0.2478032,0.2469445 -0.07321,0.080373 -0.1374774,0.1642595 -0.2081547,0.2204861 -0.070677,0.056227 -0.1449692,0.061736 -0.2081549,0.061736 -0.063186,0 -0.1077411,-0.00551 -0.1784183,-0.061736 C 1.4122627,7.7225236 1.3479955,7.6386373 1.2747854,7.5582641 1.2015753,7.4778909 1.1078493,7.3756528 1.0269821,7.3113196 0.94611489,7.2469865 0.84326357,7.2231252 0.73953025,7.2231252 z"
     id="path37"
     inkscape:connector-curvature="0"
     style="color:#000000;fill:#f9f9f9;fill-opacity:1" />
  <path
     d="m 0.51746652,8.0345141 c -0.0428047,0 -0.0859879,0.038886 -0.11336757,0.061736 -0.0273795,0.02285 -0.0503948,0.029305 -0.072143,0.061736 -0.060706,0.089805 -0.11809425,0.1815546 -0.17571977,0.2731274 0,0.086884 0,0.1487508 0,0.2570175 0.0621568,-0.062343 0.10528213,-0.1725591 0.14480125,-0.247923 0.0390571,-0.080373 0.0657103,-0.1647885 0.10306149,-0.2204862 0.018676,-0.027849 0.0676958,-0.049423 0.0824492,-0.061736 0.007374,-0.00616 0.0269488,0.00182 0.0309185,0 0.0147532,0.012313 0.053467,0.033887 0.072143,0.061736 0.0373511,0.055698 0.0743108,0.1401129 0.11336754,0.2204862 0.0390584,0.080373 0.0595638,0.1468043 0.10306161,0.2116666 0.0217478,0.032431 0.0550691,0.074164 0.0824495,0.097014 0.0273793,0.02285 0.060257,0.035278 0.10306161,0.035278 0.0428046,0 0.0859877,-0.012428 0.11336749,-0.035278 0.027379,-0.02285 0.050395,-0.064583 0.072143,-0.097014 0.043498,-0.064862 0.064004,-0.1312934 0.1030616,-0.2116666 0.039057,-0.080373 0.076016,-0.1647885 0.1133675,-0.2204862 0.018677,-0.027849 0.057389,-0.049423 0.072143,-0.061736 0.00398,0.00182 0.033847,-0.00616 0.041225,0 0.014754,0.012313 0.012242,0.033887 0.030919,0.061736 0.037351,0.055698 0.1052285,0.1401129 0.144286,0.2204862 0.039059,0.080373 0.069869,0.1468043 0.1133676,0.2116666 0.021748,0.032431 0.044763,0.074164 0.072143,0.097014 0.027379,0.02285 0.070563,0.035278 0.1133675,0.035278 0.042805,0 0.075682,-0.012428 0.1030616,-0.035278 0.027379,-0.02285 0.060701,-0.064583 0.082449,-0.097014 0.043496,-0.064862 0.064003,-0.1312934 0.1030616,-0.2116666 0.039058,-0.080373 0.076016,-0.1647885 0.1133676,-0.2204862 0.018676,-0.027849 0.057389,-0.049423 0.072143,-0.061736 0.00398,0.00182 0.023541,-0.00616 0.030919,0 0.014754,0.012313 0.022549,0.033887 0.041225,0.061736 0.037351,0.055698 0.1052285,0.1401129 0.144286,0.2204862 0.039058,0.080373 0.069869,0.1468043 0.1133675,0.2116666 0.021748,0.032431 0.044764,0.074164 0.072143,0.097014 0.027379,0.02285 0.060257,0.035278 0.1030617,0.035278 0.042805,0 0.085988,-0.012428 0.1133675,-0.035278 0.027379,-0.02285 0.050394,-0.064583 0.072143,-0.097014 0.043498,-0.064862 0.07431,-0.1312934 0.1133675,-0.2116666 0.039057,-0.080373 0.065711,-0.1647885 0.1030616,-0.2204862 0.018676,-0.027849 0.026471,-0.049423 0.041225,-0.061736 0.014754,-0.012313 0.039503,-0.035278 0.041224,-0.035278 0.00172,0 0.016166,0.022965 0.030919,0.035278 0.014754,0.012313 0.022549,0.033887 0.041224,0.061736 0.037351,0.055698 0.064004,0.1401129 0.1030616,0.2204862 0.039057,0.080373 0.1007881,0.1468043 0.144286,0.2116666 0.021748,0.032431 0.055069,0.074164 0.082449,0.097014 0.027379,0.02285 0.060257,0.035278 0.1030617,0.035278 0.042804,0 0.044764,-0.012428 0.072143,-0.035278 0.027379,-0.02285 0.050395,-0.064583 0.072143,-0.097014 0.043498,-0.064862 0.1052285,-0.1312934 0.144286,-0.2116666 0.039058,-0.080373 0.076016,-0.1647885 0.1133675,-0.2204862 0.018676,-0.027849 0.026471,-0.049423 0.041225,-0.061736 0.014754,-0.012313 0.029198,-0.035278 0.030918,-0.035278 0.00172,0 0.026472,0.022965 0.041225,0.035278 0.014754,0.012313 0.012242,0.033887 0.030918,0.061736 0.037351,0.055698 0.07431,0.1401129 0.1133676,0.2204862 0.039058,0.080373 0.1007881,0.1468043 0.1442861,0.2116666 0.021748,0.032431 0.044764,0.074164 0.072143,0.097014 0.027379,0.02285 0.029338,0.035278 0.072143,0.035278 0.042805,0 0.085988,-0.012428 0.1133675,-0.035278 0.027379,-0.02285 0.050395,-0.064583 0.072143,-0.097014 0.043498,-0.064862 0.1052286,-0.1312934 0.1442861,-0.2116666 0.039058,-0.080373 0.076016,-0.1647885 0.1133675,-0.2204862 0.018676,-0.027849 0.016165,-0.049423 0.030919,-0.061736 0.00737,-0.00616 0.037255,0.00182 0.041225,0 0.014754,0.012313 0.053467,0.033887 0.072143,0.061736 0.037351,0.055698 0.074311,0.1401129 0.1133675,0.2204862 0.039058,0.080373 0.059564,0.1468043 0.1030617,0.2116666 0.021748,0.032431 0.044764,0.074164 0.072143,0.097014 0.027379,0.02285 0.070563,0.035278 0.1133676,0.035278 0.042804,0 0.085988,-0.012428 0.1133676,-0.035278 0.027379,-0.02285 0.050395,-0.064583 0.072143,-0.097014 0.043498,-0.064862 0.064004,-0.1312934 0.1030617,-0.2116666 0.039058,-0.080373 0.1069349,-0.1647885 0.144286,-0.2204862 0.018675,-0.027849 0.026472,-0.049423 0.041225,-0.061736 0.00737,-0.00616 0.037255,0.00182 0.041225,0 0.014754,0.012313 0.053467,0.033887 0.072143,0.061736 0.037351,0.055698 0.064004,0.1401129 0.1030616,0.2204862 0.039058,0.080373 0.069869,0.1468043 0.1133676,0.2116666 0.021748,0.032431 0.044764,0.074164 0.072143,0.097014 0.027379,0.02285 0.070563,0.035278 0.1133675,0.035278 0.042805,0 0.075682,-0.012428 0.1030616,-0.035278 0.027379,-0.02285 0.050395,-0.064583 0.072143,-0.097014 0.043498,-0.064862 0.07431,-0.1312934 0.1133675,-0.2116666 0.039058,-0.080373 0.076016,-0.1647885 0.1133678,-0.2204862 0.018676,-0.027849 0.057389,-0.049423 0.072143,-0.061736 0.00737,-0.00616 0.026949,0.00182 0.030918,0 0.014754,0.012313 0.053467,0.033887 0.072143,0.061736 0.037351,0.055698 0.07431,0.1401129 0.1133675,0.2204862 0.039058,0.080373 0.069869,0.1468043 0.1133677,0.2116666 0.021748,0.032431 0.044764,0.074164 0.072143,0.097014 0.027379,0.02285 0.060257,0.035278 0.1030616,0.035278 0.042805,0 0.085988,-0.012428 0.1133676,-0.035278 0.027379,-0.02285 0.050395,-0.064583 0.072143,-0.097014 0.043498,-0.064862 0.07431,-0.1312934 0.1133675,-0.2116666 0.039057,-0.080373 0.065711,-0.1647885 0.1030616,-0.2204862 0.018676,-0.027849 0.05739,-0.049423 0.072143,-0.061736 0.00398,0.00182 0.033847,-0.00616 0.041225,0 0.014754,0.012313 0.012243,0.033887 0.030919,0.061736 0.037351,0.055698 0.115535,0.1401129 0.1545921,0.2204862 0.039058,0.080373 0.059564,0.1468043 0.1030616,0.2116666 0.021748,0.032431 0.044764,0.074164 0.072143,0.097014 0.027379,0.02285 0.070563,0.035278 0.1133676,0.035278 0.042805,0 0.085988,-0.012428 0.1133676,-0.035278 0.027379,-0.02285 0.050395,-0.064583 0.072143,-0.097014 0.043498,-0.064862 0.064004,-0.1312934 0.1030617,-0.2116666 0.039058,-0.080373 0.076016,-0.1647887 0.1133675,-0.2204862 0.018676,-0.027849 0.057389,-0.049423 0.072143,-0.061736 0.00398,0.00182 0.033847,-0.00616 0.041225,0 0.014754,0.012313 0.012242,0.033887 0.030919,0.061736 0.037351,0.055698 0.074311,0.1401129 0.1133676,0.2204862 0.039057,0.080373 0.1007881,0.1468043 0.144286,0.2116666 0.021748,0.032431 0.044764,0.074164 0.072143,0.097014 0.027379,0.02285 0.070563,0.035278 0.1133676,0.035278 0.042805,0 0.075683,-0.012428 0.1030616,-0.035278 0.027379,-0.02285 0.050393,-0.064583 0.072143,-0.097014 0.04349,-0.064862 0.07431,-0.1312934 0.113367,-0.2116666 0.03906,-0.080373 0.07601,-0.1647885 0.113368,-0.2204862 0.01867,-0.027849 0.01617,-0.049423 0.03092,-0.061736 0.01475,-0.012313 0.0395,-0.035278 0.04123,-0.035278 0.0017,0 0.01617,0.022965 0.03092,0.035278 0.01476,0.012313 0.02256,0.033887 0.04123,0.061736 0.03736,0.055698 0.064,0.1401129 0.103066,0.2204862 0.03905,0.080373 0.111097,0.1468046 0.154592,0.2116666 0.02175,0.032431 0.04477,0.074164 0.07215,0.097014 0.02738,0.02285 0.06026,0.035278 0.103066,0.035278 0.0428,0 0.04477,-0.012428 0.07215,-0.035278 0.02738,-0.02285 0.0504,-0.064583 0.07215,-0.097014 0.0435,-0.064862 0.115539,-0.131294 0.154593,-0.2116666 0.03905,-0.080374 0.06571,-0.1647885 0.103066,-0.2204862 0.01867,-0.027849 0.02648,-0.049423 0.04123,-0.061736 0.01475,-0.012313 0.0292,-0.035278 0.03092,-0.035278 0.0017,0 0.02648,0.022965 0.04123,0.035278 0.01475,0.012313 0.01224,0.033887 0.03092,0.061736 0.03734,0.055698 0.07431,0.1401129 0.113367,0.2204862 0.03905,0.080373 0.100795,0.1468046 0.144287,0.2116666 0.02175,0.032431 0.01382,0.074164 0.04123,0.097014 0.02738,0.02285 0.06026,0.035278 0.103066,0.035278 0.0428,0 0.086,-0.012428 0.113367,-0.035278 0.02739,-0.02285 0.0504,-0.064583 0.07215,-0.097014 0.0435,-0.064862 0.105231,-0.1312937 0.144285,-0.2116666 0.03905,-0.080372 0.07602,-0.1647887 0.113369,-0.2204862 0.01867,-0.027849 0.01616,-0.049423 0.03092,-0.061736 0.0073,-0.00616 0.03725,0.00182 0.04123,0 0.01475,0.012313 0.05347,0.033887 0.07215,0.061736 0.03735,0.055698 0.07431,0.1401129 0.113368,0.2204862 0.03905,0.080373 0.05957,0.1468046 0.103066,0.2116666 0.02175,0.032431 0.04477,0.074164 0.07215,0.097014 0.02739,0.02285 0.07056,0.035278 0.113368,0.035278 0.0428,0 0.08599,-0.012428 0.113367,-0.035278 0.02739,-0.02285 0.0504,-0.064583 0.07215,-0.097014 0.0435,-0.064862 0.064,-0.131294 0.103066,-0.2116666 0.03905,-0.080374 0.117244,-0.1647885 0.154593,-0.2204862 0.01867,-0.027849 0.01617,-0.049423 0.03092,-0.061736 0.0073,-0.00616 0.03725,0.00182 0.04123,0 0.01475,0.012313 0.05347,0.033887 0.07215,0.061736 0.01365,0.020359 0.04701,0.053237 0.06003,0.079375 0,-0.067903 0,-0.1146522 0,-0.1708768 -0.01503,-0.012526 -0.01159,-0.017347 -0.0291,-0.031971 -0.02738,-0.02285 -0.06026,-0.061736 -0.103066,-0.061736 -0.0428,0 -0.086,0.038886 -0.113367,0.061736 -0.02739,0.02285 -0.0504,0.029305 -0.07215,0.061736 -0.04349,0.064862 -0.10523,0.1401138 -0.144286,0.2204862 -0.03905,0.080374 -0.07602,0.1559689 -0.113367,0.2116666 -0.01867,0.027849 -0.01617,0.049423 -0.03092,0.061736 -0.0073,0.00616 -0.03725,-0.00182 -0.04123,0 -0.01475,-0.012313 -0.05347,-0.033887 -0.07215,-0.061736 -0.03735,-0.055698 -0.07431,-0.1312929 -0.113368,-0.2116666 -0.03905,-0.080373 -0.05957,-0.1556239 -0.103066,-0.2204862 -0.02175,-0.032431 -0.04477,-0.038886 -0.07215,-0.061736 -0.02738,-0.02285 -0.07056,-0.061736 -0.113367,-0.061736 -0.0428,0 -0.086,0.038886 -0.113367,0.061736 -0.02739,0.02285 -0.0504,0.029305 -0.07215,0.061736 -0.0435,0.064863 -0.064,0.1401121 -0.103066,0.2204862 -0.03905,0.080374 -0.106939,0.1559689 -0.144287,0.2116666 -0.01867,0.027849 -0.02648,0.049423 -0.04123,0.061736 -0.0073,0.00616 -0.03725,-0.00182 -0.04123,0 -0.01475,-0.012313 -0.05347,-0.033887 -0.07215,-0.061736 -0.03735,-0.055698 -0.064,-0.1312929 -0.103065,-0.2116666 -0.03905,-0.080373 -0.06987,-0.1556239 -0.113369,-0.2204862 -0.02175,-0.032431 -0.04477,-0.038886 -0.07214,-0.061736 -0.02738,-0.02285 -0.07056,-0.061736 -0.113368,-0.061736 -0.0428,0 -0.07568,0.038886 -0.103065,0.061736 -0.02738,0.02285 -0.0504,0.029305 -0.07215,0.061736 -0.0435,0.064862 -0.07431,0.1401135 -0.113367,0.2204862 -0.03905,0.080374 -0.07602,0.1559689 -0.113369,0.2116666 -0.01867,0.027849 -0.05739,0.049423 -0.07214,0.061736 -0.004,-0.00182 -0.02355,0.00616 -0.03092,0 -0.01475,-0.012313 -0.05347,-0.033887 -0.07215,-0.061736 -0.03736,-0.055698 -0.0743,-0.1312929 -0.113366,-0.2116666 -0.03906,-0.080373 -0.06987,-0.1556239 -0.113369,-0.2204862 -0.02175,-0.032431 -0.04477,-0.038886 -0.07215,-0.061736 -0.02738,-0.02285 -0.06026,-0.061736 -0.103067,-0.061736 -0.0428,0 -0.086,0.038886 -0.113367,0.061736 -0.02738,0.02285 -0.0504,0.029305 -0.07215,0.061736 -0.04349,0.064862 -0.07431,0.1401129 -0.113367,0.2204862 -0.039061,0.080373 -0.065711,0.1559689 -0.103062,0.2116666 -0.018676,0.027849 -0.057389,0.049423 -0.072143,0.061736 -0.00398,-0.00182 -0.033847,0.00616 -0.041225,0 C 9.7782428,8.6395622 9.7807535,8.617988 9.7620778,8.5901391 9.7247267,8.5344414 9.6465434,8.458846 9.6074857,8.3784725 9.5684282,8.2980992 9.5479213,8.2228486 9.5044242,8.1579863 c -0.021748,-0.032431 -0.044764,-0.038886 -0.072143,-0.061736 -0.027379,-0.02285 -0.070563,-0.061736 -0.1133676,-0.061736 -0.042805,0 -0.085988,0.038886 -0.1133675,0.061736 -0.027379,0.02285 -0.050395,0.029305 -0.072143,0.061736 -0.043498,0.064862 -0.064004,0.1401129 -0.1030616,0.2204862 -0.039058,0.080373 -0.076016,0.1559689 -0.1133675,0.2116666 -0.018676,0.027849 -0.05739,0.049423 -0.072143,0.061736 -0.00398,-0.00182 -0.033847,0.00616 -0.041225,0 C 8.7888526,8.6395622 8.7913637,8.617988 8.7726879,8.5901391 8.7353365,8.5344414 8.6983774,8.4588457 8.6593203,8.3784725 8.6202628,8.2980992 8.5585319,8.2228486 8.5150343,8.1579863 c -0.021748,-0.032431 -0.044764,-0.038886 -0.072143,-0.061736 -0.027379,-0.02285 -0.070563,-0.061736 -0.1133675,-0.061736 -0.042805,0 -0.075681,0.038886 -0.1030616,0.061736 -0.027379,0.02285 -0.019476,0.029305 -0.041225,0.061736 -0.043498,0.064862 -0.1052285,0.1401129 -0.144286,0.2204862 -0.039058,0.080373 -0.076016,0.1559689 -0.1133676,0.2116666 -0.018676,0.027849 -0.016165,0.049423 -0.030919,0.061736 -0.014754,0.012313 -0.039503,0.035278 -0.041225,0.035278 -0.00172,0 -0.016165,-0.022965 -0.030919,-0.035278 C 7.8097689,8.6395622 7.8019739,8.617988 7.7832981,8.5901391 7.7459467,8.5344414 7.7192945,8.4588457 7.6802368,8.3784725 7.6411792,8.2980992 7.5691421,8.2228486 7.5256446,8.1579863 7.5038957,8.1255553 7.480881,8.1191003 7.4535017,8.0962503 c -0.027379,-0.02285 -0.029338,-0.061736 -0.072143,-0.061736 -0.042805,0 -0.075682,0.038886 -0.1030617,0.061736 -0.027379,0.02285 -0.050395,0.029305 -0.072143,0.061736 -0.043498,0.064862 -0.1155348,0.1401129 -0.1545922,0.2204862 -0.039058,0.080373 -0.06571,0.1559689 -0.1030616,0.2116666 -0.018675,0.027849 -0.026471,0.049423 -0.041224,0.061736 -0.014754,0.012313 -0.029198,0.035278 -0.030918,0.035278 -0.00172,0 -0.026471,-0.022965 -0.041225,-0.035278 C 6.8203791,8.6395622 6.8228902,8.617988 6.8042145,8.5901391 6.7668629,8.5344414 6.7299047,8.4588457 6.6908468,8.3784725 6.6517894,8.2980992 6.6209768,8.2228486 6.5774792,8.1579863 6.5557317,8.1255553 6.5327157,8.1191003 6.5053365,8.0962503 6.4779574,8.0734003 6.4450793,8.0345143 6.402275,8.0345143 c -0.042805,0 -0.085988,0.038886 -0.1133677,0.061736 -0.027379,0.02285 -0.050395,0.029305 -0.072143,0.061736 -0.043498,0.064862 -0.1052285,0.1401129 -0.1442861,0.2204862 -0.039058,0.080373 -0.076016,0.1559689 -0.1133675,0.2116666 -0.018676,0.027849 -0.026472,0.049423 -0.041225,0.061736 -0.00737,0.00616 -0.026949,-0.00182 -0.030919,0 C 5.8722139,8.6395622 5.8335003,8.617988 5.8148246,8.5901391 5.7774732,8.5344414 5.7405141,8.4588457 5.701457,8.3784725 5.6623995,8.2980992 5.6418927,8.2228486 5.5983956,8.1579863 5.5766467,8.1255553 5.553632,8.1191003 5.5262527,8.0962503 5.4988732,8.0734003 5.455689,8.0345143 5.4128849,8.0345143 c -0.042805,0 -0.085988,0.038886 -0.1133675,0.061736 -0.027379,0.02285 -0.050395,0.029305 -0.072143,0.061736 -0.043498,0.064862 -0.064004,0.1401129 -0.1030616,0.2204862 -0.039058,0.080373 -0.1172411,0.1559689 -0.1545922,0.2116666 -0.018676,0.027849 -0.016166,0.049423 -0.030918,0.061736 -0.00737,0.00616 -0.037255,-0.00182 -0.041225,0 C 4.882824,8.6395622 4.8441106,8.617988 4.8254348,8.5901391 4.7880834,8.5344414 4.7614305,8.4588457 4.7223733,8.3784725 4.6833158,8.2980992 4.652503,8.2228486 4.6090057,8.1579863 4.5872581,8.1255553 4.5642421,8.1191003 4.536863,8.0962503 c -0.027379,-0.02285 -0.070563,-0.061736 -0.1133676,-0.061736 -0.042804,0 -0.075682,0.038886 -0.1030615,0.061736 -0.027379,0.02285 -0.060701,0.029305 -0.082449,0.061736 -0.043498,0.064862 -0.064004,0.1401129 -0.1030617,0.2204862 -0.039057,0.080373 -0.076016,0.1559689 -0.1133675,0.2116666 -0.018676,0.027849 -0.057389,0.049423 -0.072143,0.061736 -0.00398,-0.00182 -0.023541,0.00616 -0.030919,0 C 3.9037403,8.6395622 3.8650268,8.617988 3.8463511,8.5901391 3.8089996,8.5344414 3.7720407,8.4588457 3.7329835,8.3784725 3.6939261,8.2980992 3.6631135,8.2228486 3.6196159,8.1579863 3.5978671,8.1255553 3.5748524,8.1191003 3.547473,8.0962503 c -0.027379,-0.02285 -0.060257,-0.061736 -0.1030616,-0.061736 -0.042805,0 -0.085988,0.038886 -0.1133677,0.061736 -0.027379,0.02285 -0.050395,0.029305 -0.072143,0.061736 -0.043496,0.064862 -0.074309,0.1401129 -0.1133675,0.2204862 -0.039058,0.080373 -0.065711,0.1559689 -0.1030616,0.2116666 -0.018676,0.027849 -0.067696,0.049423 -0.082449,0.061736 -0.00398,-0.00182 -0.023541,0.00616 -0.030919,0 C 2.9143505,8.6395622 2.9065554,8.617988 2.8878797,8.5901391 2.8505283,8.5344414 2.7826508,8.4588457 2.7435937,8.3784725 2.7045361,8.2980992 2.6840298,8.2228486 2.6405322,8.1579863 c -0.021749,-0.032431 -0.044764,-0.038886 -0.072143,-0.061736 -0.027379,-0.02285 -0.070563,-0.061736 -0.1133677,-0.061736 -0.042805,0 -0.085988,0.038886 -0.1133675,0.061736 -0.027379,0.02285 -0.050394,0.029305 -0.072143,0.061736 -0.043498,0.064862 -0.064004,0.1401129 -0.1030616,0.2204862 -0.039059,0.080373 -0.076016,0.1559689 -0.1133678,0.2116666 -0.018676,0.027849 -0.057389,0.049423 -0.072143,0.061736 -0.00398,-0.00182 -0.033847,0.00616 -0.041225,0 C 1.9249608,8.6395622 1.9274717,8.617988 1.9087959,8.5901391 1.8714446,8.5344414 1.8344862,8.4588457 1.7954284,8.3784725 1.7563712,8.2980992 1.6946398,8.2228486 1.6511424,8.1579863 c -0.021748,-0.032431 -0.044764,-0.038886 -0.072143,-0.061736 -0.027379,-0.02285 -0.070563,-0.061736 -0.1133676,-0.061736 -0.042804,0 -0.044763,0.038886 -0.072143,0.061736 -0.027379,0.02285 -0.050395,0.029305 -0.072143,0.061736 -0.043498,0.064862 -0.1052285,0.1401129 -0.1442861,0.2204862 -0.039058,0.080373 -0.076016,0.1559689 -0.1133675,0.2116666 -0.018676,0.027849 -0.016164,0.049423 -0.030919,0.061736 -0.014753,0.012313 -0.0395031,0.035278 -0.0412242,0.035278 -0.001717,0 -0.0161653,-0.022965 -0.0309187,-0.035278 C 0.94587708,8.6395622 0.93808194,8.617988 0.91940617,8.5901391 0.88205483,8.5344414 0.84509626,8.4588457 0.80603861,8.3784725 0.76698108,8.2980992 0.70525001,8.2228486 0.66175258,8.1579863 0.64000477,8.1255553 0.61698905,8.1191003 0.58960967,8.0962503 0.5622303,8.0734003 0.56027136,8.0345143 0.51746652,8.0345141 z"
     id="path39"
     inkscape:connector-curvature="0"
     style="color:#000000;fill:#f9f9f9;fill-opacity:1" />
</svg>
