<svg xmlns="http://www.w3.org/2000/svg" viewBox="0 0 48 48"><defs><radialGradient id="0" cx="24" cy="24" r="23.437" gradientUnits="userSpaceOnUse"><stop stop-color="#eee"/><stop offset="1" stop-color="#cecece"/></radialGradient></defs><path d="m 47.44 11.547 l 0 24.906 c 0 10.25 0 10.984 -10.984 10.984 l -24.902 0 c -10.988 0 -10.988 -0.734 -10.988 -10.984 l 0 -24.906 c 0 -10.25 0 -10.984 10.988 -10.984 l 24.902 0 c 10.984 0 10.984 0.734 10.984 10.984" fill="url(#0)"/><path d="m 30.688 10.313 l -2.25 2.531 c -1.375 -0.551 -2.863 -0.844 -4.438 -0.844 c -6.629 0 -12 5.371 -12 12 c 0 1.672 0.352 3.242 0.969 4.688 l -1.969 1.313 l 3 4 l 1.5 -1.5 c 2.172 2.172 5.188 3.5 8.5 3.5 c 0.656 0 1.281 -0.086 1.906 -0.188 l 1.094 2.188 l 5 -3 l -0.906 -1.344 c 2.191 -1.609 3.797 -3.945 4.5 -6.656 l 3.406 0 l 0 -5 l -3.188 0 c -0.336 -1.988 -1.16 -3.816 -2.344 -5.344 l 2.156 -1.656 m -12.875 -1 c 4.969 0 9 4.03 9 9 c 0 3.277 -1.754 6.145 -4.375 7.719 l 0.625 1.281 l -2 1 l -0.688 -1.375 c -0.738 0.219 -1.508 0.352 -2.313 0.375 l 0 1 l -3 0 l 0 -1.438 c -3.629 -1.16 -6.25 -4.551 -6.25 -8.563 c 0 -4.969 4.03 -9 9 -9 m 0 0" fill="#fff"/><path d="m 22 25.5 c 0 0.828 -0.895 1.496 -1.996 1.496 c -1.105 0 -2 -0.672 -2 -1.496 c 0 -0.832 -0.164 -1.219 0.941 -1.219 c 1.105 0 3.059 0.387 3.059 1.219 m -0.004 0" fill="#fff"/><path d="m 27.668 24.715 c -1.105 0 -1.672 -0.387 -1.672 -1.215 c 0.383 -1.582 3.113 -2.258 4.539 -1.641 c -0.02 1.43 -1.828 2.828 -2.867 2.855 m 0 0" fill="#fff"/><path d="m 21.5 14.906 c 0.871 -0.273 1.723 0.016 2.59 0.594 c 0.344 0.563 0 0.828 -0.223 1.066 c -0.219 0.238 -0.203 0.223 -0.559 0.434 l -1.949 -0.066 c -1.156 -0.441 -0.566 -1.602 0.141 -2.027 m 0 0" fill="#fff"/><path d="m 21.04 18 l 1.531 0 c 1.754 0.055 2.996 1.523 2.156 2 c -1.23 -0.125 -2.457 -0.125 -3.688 0 c -1.57 -0.242 -1.199 -1.711 0 -2 m 0 0" fill="#fff"/><path d="m 22.508 21 l 1 0.262 c 0.824 0.355 0.5 0.734 0 0.734 l -1 -0.09 c -0.66 -0.266 -0.656 -0.77 0 -0.906 m 0 0" fill="#fff"/><path d="m 38.27 47.44 c 2.543 -0.012 4.379 -0.082 5.711 -0.441 l -4.23 -7.25 -4.484 7.691 1.191 0 c 0.641 0 1.242 0 1.813 0 z m 1.48 -7.691 -5.125 -8.789 -5.129 8.789 z m 0 0 7.652 0 c 0.031 -0.973 0.039 -2.063 0.039 -3.297 l 0 -1.098 -2.563 -4.395 z m 5.129 -8.789 -5.129 -8.789 -5.125 8.789 z m 0 0 2.563 0 0 -4.395 z m -10.254 0 -5.129 -8.789 -5.125 8.789 z m -10.254 0 -5.129 8.789 10.254 0 z m 0 0 -5.129 -8.789 -5.125 8.789 z m -10.254 0 -5.129 8.789 10.254 0 z m 0 0 -5.129 -8.789 -5.125 8.789 z m -10.254 0 -3.297 5.648 c 0 1.168 0.012 2.211 0.039 3.141 l 8.383 0 z m 0 0 -3.297 -5.648 0 5.648 z m 5.125 8.789 -4.313 7.395 c 1.598 0.293 3.809 0.297 6.879 0.297 l 1.922 0 z m 0 -17.578 -5.125 -8.789 -3.297 5.648 0 3.141 z m 0 0 10.254 0 -5.125 -8.789 z m 5.129 -8.789 -5.129 -8.789 -5.125 8.789 z m 0 0 10.254 0 -5.129 -8.789 z m 5.125 -8.789 -2.352 -4.03 -5.336 0 c -0.078 0 -0.141 0 -0.215 0 l -2.352 4.03 z m 0 0 10.254 0 -2.352 -4.03 -5.551 0 z m 10.254 0 10.254 0 l -2.352 -4.03 c -0.313 0 -0.609 0 -0.941 0 l -4.609 0 z m 0 0 -5.125 8.789 10.254 0 z m 5.129 8.789 10.254 0 -5.129 -8.789 z m 0 0 -5.129 8.789 10.254 0 z m 5.125 8.789 7.691 0 0 -4.395 -2.563 -4.395 z m 5.129 -8.789 2.563 0 0 -1.832 c 0 -0.914 -0.008 -1.75 -0.023 -2.523 z m -15.383 8.789 -5.125 -8.789 -5.129 8.789 z m 10.254 -17.578 7.309 0 c -0.555 -2.758 -1.887 -3.629 -5.03 -3.902 z m -30.762 0 l -2.305 -3.953 c -3.66 0.207 -5.141 0.996 -5.734 3.953 z m -5.125 8.789 l -3.238 -5.555 c -0.043 1.074 -0.059 2.309 -0.059 3.723 l 0 1.832 z m 15.379 26.367 -4.484 7.691 8.973 0 z m 10.254 0 -4.484 7.691 8.973 0 z m -26.898 6.621 -1.602 -2.746 c 0.293 1.316 0.785 2.18 1.602 2.746 z" fill="#fff" fill-opacity="0.14"/></svg>