<?xml version="1.0" encoding="UTF-8" standalone="no"?>
<svg
   xmlns:dc="http://purl.org/dc/elements/1.1/"
   xmlns:cc="http://creativecommons.org/ns#"
   xmlns:rdf="http://www.w3.org/1999/02/22-rdf-syntax-ns#"
   xmlns:svg="http://www.w3.org/2000/svg"
   xmlns="http://www.w3.org/2000/svg"
   xmlns:xlink="http://www.w3.org/1999/xlink"
   xmlns:sodipodi="http://sodipodi.sourceforge.net/DTD/sodipodi-0.dtd"
   xmlns:inkscape="http://www.inkscape.org/namespaces/inkscape"
   width="48"
   viewBox="0 0 13.546667 13.546667"
   height="48"
   id="svg2"
   version="1.1"
   inkscape:version="0.48.4 r9939"
   sodipodi:docname="synergy.svg">
  <metadata
     id="metadata38">
    <rdf:RDF>
      <cc:Work
         rdf:about="">
        <dc:format>image/svg+xml</dc:format>
        <dc:type
           rdf:resource="http://purl.org/dc/dcmitype/StillImage" />
      </cc:Work>
    </rdf:RDF>
  </metadata>
  <sodipodi:namedview
     pagecolor="#ffffff"
     bordercolor="#666666"
     borderopacity="1"
     objecttolerance="10"
     gridtolerance="10"
     guidetolerance="10"
     inkscape:pageopacity="0"
     inkscape:pageshadow="2"
     inkscape:window-width="672"
     inkscape:window-height="480"
     id="namedview36"
     showgrid="false"
     inkscape:zoom="4.9166667"
     inkscape:cx="57.966102"
     inkscape:cy="24"
     inkscape:window-x="0"
     inkscape:window-y="0"
     inkscape:window-maximized="0"
     inkscape:current-layer="svg2" />
  <defs
     id="defs4">
    <linearGradient
       id="0">
      <stop
         stop-color="#cacaca"
         id="stop7" />
      <stop
         offset="1"
         stop-color="#eaeaea"
         id="stop9" />
    </linearGradient>
    <linearGradient
       gradientTransform="matrix(0.28222223,0,0,0.28222223,0,-283.45334)"
       xlink:href="#0"
       id="1"
       y1="1050.36"
       x2="0"
       y2="1006.36"
       gradientUnits="userSpaceOnUse" />
    <radialGradient
       r="128"
       cy="160"
       cx="148.004"
       gradientTransform="matrix(0.05167489,0,0,0.05167489,-0.87511191,-1.4947612)"
       gradientUnits="userSpaceOnUse"
       id="radialGradient3019"
       xlink:href="#radial0"
       inkscape:collect="always" />
    <radialGradient
       cx="148.004"
       cy="160"
       gradientTransform="matrix(0.1831,0,0,0.1831,-3.10029,-5.29688)"
       id="radial0"
       r="128"
       gradientUnits="userSpaceOnUse">
      <stop
         offset="0"
         style="stop-color:#afecc0"
         id="stop7-9" />
      <stop
         offset="1"
         style="stop-color:#445d4b"
         id="stop9-7" />
    </radialGradient>
    <radialGradient
       r="128"
       cy="160"
       cx="148.004"
       gradientTransform="matrix(0.05167489,0,0,0.05167489,-0.8749703,-1.4948998)"
       gradientUnits="userSpaceOnUse"
       id="radialGradient3144"
       xlink:href="#radial0"
       inkscape:collect="always" />
  </defs>
  <path
     inkscape:connector-curvature="0"
     style="fill:url(#radialGradient3144)"
     d="m 13.387916,3.2587823 0,7.0290977 c 0,2.892778 0,3.100035 -3.100035,3.100035 l -7.0279931,0 c -3.1011374,0 -3.1011374,-0.207257 -3.1011374,-3.100035 l 0,-7.0290977 c 0,-2.8927778 0,-3.1000348 3.1011374,-3.1000348 l 7.0279941,0 c 3.100035,0 3.100035,0.207257 3.100035,3.1000348 z"
     id="path11" />
  <path
     inkscape:connector-curvature="0"
     style="fill:#ffffff;fill-opacity:0.05100002"
     d="m 10.799409,13.387915 c 0.717682,-0.0033 1.235826,-0.02315 1.611754,-0.124575 l -1.193933,-2.046111 -1.2655891,2.170686 0.3362401,0 c 0.1808,0 0.350574,0 0.511528,0 z M 11.21723,11.217229 9.7708431,8.7367598 8.323351,11.217229 z m 0,0 2.159663,0 c 0.0088,-0.274505 0.01102,-0.582083 0.01102,-0.930451 l 0,-0.3097839 -0.723194,-1.2402343 z M 12.664723,8.7367598 11.21723,6.2562911 9.7708431,8.7367598 z m 0,0 0.723193,0 0,-1.2402343 z m -2.8938799,0 L 8.323351,6.2562911 6.8769629,8.7367598 z m -2.8938802,0 -1.4474919,2.4804682 2.89388,0 z m 0,0 L 5.429471,6.2562911 3.9830821,8.7367598 z m -2.8938808,0 -1.4474911,2.4804682 2.89388,0 z m 0,0 L 2.535591,6.2562911 1.0892019,8.7367598 z m -2.8938802,0 -0.9304514,1.5941152 c 0,0.329627 0.00331,0.623976 0.011024,0.886354 l 2.3658164,0 z m 0,0 -0.9304514,-1.5941145 0,1.5941145 z M 2.535591,11.217229 1.3185075,13.30413 c 0.450894,0.08268 1.0748695,0.08379 1.9402775,0.08379 l 0.5434979,0 z m 0,-4.9609379 -1.4463891,-2.4804689 -0.9304514,1.5941147 0,0.8863542 z m 0,0 2.89388,0 L 3.9830821,3.7758222 z M 3.9830821,3.7758222 2.535591,1.2953535 1.0892019,3.7758222 z m 0,0 2.8938808,0 L 5.429471,1.2953535 z M 5.429471,1.2953535 4.765808,0.1587475 l -1.507023,0 c -0.020949,0 -0.03858,0 -0.05953,0 l -0.663663,1.136606 z m 0,0 2.89388,0 -0.6636631,-1.136606 -1.5665538,0 z m 2.89388,0 2.89388,0 -0.663663,-1.136606 c -0.0882,0 -0.17198,0 -0.266788,0 l -1.2997651,0 z m 0,0 -1.4463881,2.4804687 2.8938802,0 z m 1.4474921,2.4804687 2.8938799,0 -1.447493,-2.4804687 z m 0,0 -1.4474921,2.4804689 2.89388,0 z m 1.4463879,2.4804689 2.170686,0 0,-1.2402343 -0.723194,-1.2402346 z m 1.447492,-2.4804689 0.723194,0 0,-0.5170399 c 0,-0.2579689 -0.0022,-0.4938889 -0.0066,-0.71217 z M 8.323351,6.2562911 6.8769629,3.7758222 5.429471,6.2562911 z m 2.893879,-4.9609376 2.062648,0 C 13.123333,0.5170374 12.747405,0.2711956 11.859948,0.1940253 z m -8.681639,0 L 1.8851569,0.1796938 C 0.85217921,0.2381228 0.434358,0.46081331 0.2667885,1.2953535 z M 1.0892019,3.7758222 0.175287,2.208166 C 0.16316,2.5113345 0.158751,2.8597023 0.158751,3.2587823 l 0,0.5170399 z m 4.3402691,7.4414068 -1.26559,2.170686 2.532283,0 z m 2.89388,0 -1.2655901,2.170686 2.532283,0 z M 0.7320144,13.085849 0.280018,12.31084 c 0.082682,0.371518 0.22158851,0.615157 0.4519964,0.775009 z"
     id="path13" />
  <path
     d="M 24 9 C 15.78217 9 9 15.704468 9 24 C 9 32.295531 15.78217 39 24 39 C 32.21783 39 39 32.295531 39 24 C 39 15.704468 32.21783 9 24 9 z M 24 13.09375 C 30.167262 13.09375 35.03125 17.980312 35.03125 24 C 35.03125 30.019688 30.167262 34.90625 24 34.90625 C 17.832738 34.90625 12.96875 30.019688 12.96875 24 C 12.96875 17.980312 17.832738 13.09375 24 13.09375 z "
     transform="scale(0.28222223,0.28222223)"
     id="path28"
     style="fill:#f9f9f9;fill-opacity:1" />
</svg>
