<?xml version="1.0" encoding="UTF-8" standalone="no"?>
<svg
   xmlns:dc="http://purl.org/dc/elements/1.1/"
   xmlns:cc="http://creativecommons.org/ns#"
   xmlns:rdf="http://www.w3.org/1999/02/22-rdf-syntax-ns#"
   xmlns:svg="http://www.w3.org/2000/svg"
   xmlns="http://www.w3.org/2000/svg"
   xmlns:xlink="http://www.w3.org/1999/xlink"
   xmlns:sodipodi="http://sodipodi.sourceforge.net/DTD/sodipodi-0.dtd"
   xmlns:inkscape="http://www.inkscape.org/namespaces/inkscape"
   width="48"
   height="48"
   id="svg2"
   version="1.1"
   inkscape:version="0.48.4 r9939"
   sodipodi:docname="ubuntuone.svg">
  <metadata
     id="metadata110">
    <rdf:RDF>
      <cc:Work
         rdf:about="">
        <dc:format>image/svg+xml</dc:format>
        <dc:type
           rdf:resource="http://purl.org/dc/dcmitype/StillImage" />
      </cc:Work>
    </rdf:RDF>
  </metadata>
  <sodipodi:namedview
     pagecolor="#ffffff"
     bordercolor="#666666"
     borderopacity="1"
     objecttolerance="10"
     gridtolerance="10"
     guidetolerance="10"
     inkscape:pageopacity="0"
     inkscape:pageshadow="2"
     inkscape:window-width="640"
     inkscape:window-height="480"
     id="namedview108"
     showgrid="false"
     inkscape:zoom="4.9166667"
     inkscape:cx="24"
     inkscape:cy="48.475031"
     inkscape:window-x="0"
     inkscape:window-y="0"
     inkscape:window-maximized="0"
     inkscape:current-layer="svg2" />
  <defs
     id="defs4">
    <clipPath
       id="clipPath6">
      <rect
         width="42"
         x="307"
         y="223"
         rx="9"
         height="42"
         transform="rotate(90)"
         fill="url(#3)"
         color="#bebebe"
         id="rect8" />
    </clipPath>
    <clipPath
       id="clipPath10">
      <rect
         width="240"
         x="24"
         y="36"
         rx="50"
         height="240"
         fill="#986767"
         color="#bebebe"
         id="rect12" />
    </clipPath>
    <clipPath
       id="clipPath14">
      <rect
         width="16"
         x="432"
         y="116"
         rx="2"
         height="16"
         opacity="0.2"
         fill="#6d6d6d"
         color="#bebebe"
         id="rect16" />
    </clipPath>
    <clipPath
       id="clipPath18">
      <path
         d="m 98.03125,23.191212 c -41.492132,1.05238 -74.84375,35.06824 -74.84375,76.812498 0,42.40687 34.405632,76.8125 76.8125,76.8125 42.40687,0 76.8125,-34.40563 76.8125,-76.8125 0,-42.406866 -34.40563,-76.812498 -76.8125,-76.812498 -0.662607,0 -1.310145,-0.0167 -1.96875,0 z M 100,50.659962 c 27.24464,0 49.34375,22.099114 49.34375,49.343748 -1e-5,27.24464 -22.09911,49.34375 -49.34375,49.34375 -27.244636,-1e-5 -49.34375,-22.09911 -49.34375,-49.34375 0,-27.244634 22.099114,-49.343748 49.34375,-49.343748 z"
         id="path20" />
    </clipPath>
    <clipPath
       id="clipPath22">
      <path
         d="m 152,204 a 8,8 0 1 1 -16,0 8,8 0 1 1 16,0 z"
         id="path24" />
    </clipPath>
    <clipPath
       id="clipPath26">
      <path
         d="m 145,215 c 33.13708,0 60,-26.86292 60,-60 0,-33.13708 -26.86292,-60 -60,-60 -33.13708,0 -60,26.86292 -60,60 0,12.50698 3.8285,24.10633 10.375,33.71875 L 89,211 111.28125,204.625 C 120.89367,211.1715 132.49302,215 145,215 z"
         id="path28" />
    </clipPath>
    <clipPath
       id="clipPath30">
      <rect
         width="16"
         x="432"
         y="116"
         rx="3"
         height="16"
         color="#bebebe"
         id="rect32" />
    </clipPath>
    <clipPath
       id="clipPath34">
      <path
         d="m 144,70 c -49.705627,0 -90,40.29437 -90,90 0,49.70563 40.294373,90 90,90 49.70563,0 90,-40.29437 90,-90 0,-49.70563 -40.29437,-90 -90,-90 z m 0,32.1875 c 32.03251,0 58,25.96748 58,58 0,32.03252 -25.96749,58 -58,58 -32.03251,0 -58,-25.96748 -58,-58 0,-32.03252 25.96749,-58 58,-58 z"
         id="path36" />
    </clipPath>
    <clipPath
       id="clipPath38">
      <rect
         width="22"
         x="433"
         y="77"
         rx="3"
         height="22"
         opacity="0.2"
         fill="#6d6d6d"
         color="#bebebe"
         id="rect40" />
    </clipPath>
    <clipPath
       id="clipPath42">
      <rect
         width="30"
         x="433"
         y="29"
         rx="4"
         height="30"
         opacity="0.2"
         fill="#6d6d6d"
         color="#bebebe"
         id="rect44" />
    </clipPath>
    <clipPath
       id="clipPath46">
      <rect
         width="90"
         x="307"
         y="31"
         rx="18.75"
         height="90"
         fill="url(#1)"
         color="#bebebe"
         id="rect48" />
    </clipPath>
    <clipPath
       id="clipPath50">
      <rect
         width="60"
         x="306"
         y="142"
         rx="12.5"
         height="60"
         transform="matrix(0 -1 1 0 0 0)"
         fill="url(#0)"
         color="#bebebe"
         id="rect52" />
    </clipPath>
    <clipPath
       id="clipPath54">
      <rect
         width="30"
         x="433"
         y="29"
         rx="6"
         height="30"
         color="#bebebe"
         id="rect56" />
    </clipPath>
    <clipPath
       id="clipPath58">
      <rect
         width="22"
         x="433"
         y="77"
         rx="5"
         height="22"
         color="#bebebe"
         id="rect60" />
    </clipPath>
    <clipPath
       id="clipPath62">
      <rect
         width="22"
         x="433"
         y="77"
         rx="4"
         height="22"
         color="#bebebe"
         id="rect64" />
    </clipPath>
    <clipPath
       id="clipPath66">
      <rect
         width="20"
         x="434"
         y="78"
         rx="4"
         height="20"
         color="#bebebe"
         id="rect68" />
    </clipPath>
    <linearGradient
       gradientTransform="matrix(-1 0 0 -1 289 315)"
       xlink:href="#2"
       y1="40"
       y2="276"
       x1="265"
       x2="264"
       gradientUnits="userSpaceOnUse"
       id="linearGradient70" />
    <linearGradient
       gradientTransform="matrix(.25 0 0 .25 299.99999 131.99999)"
       id="0"
       xlink:href="#2"
       y1="230"
       y2="90"
       x2="0"
       gradientUnits="userSpaceOnUse" />
    <linearGradient
       gradientTransform="matrix(.375 0 0 .375 298 16)"
       id="1"
       xlink:href="#2"
       y1="230"
       y2="90"
       x2="0"
       gradientUnits="userSpaceOnUse" />
    <linearGradient
       id="2">
      <stop
         stop-color="#151515"
         id="stop75" />
      <stop
         offset="1"
         stop-color="#222"
         id="stop77" />
    </linearGradient>
    <linearGradient
       gradientTransform="matrix(.175 0 0 .175 302.79999 215.99997)"
       id="3"
       xlink:href="#2"
       y1="280"
       y2="40"
       x2="0"
       gradientUnits="userSpaceOnUse" />
    <linearGradient
       id="4">
      <stop
         stop-color="#dd4915"
         id="stop81" />
      <stop
         offset="1"
         stop-color="#fd7f54"
         id="stop83" />
    </linearGradient>
    <linearGradient
       xlink:href="#4"
       id="5"
       y1="1050.36"
       x2="0"
       y2="1006.36"
       gradientUnits="userSpaceOnUse" />
    <radialGradient
       r="128"
       cy="160"
       cx="148.004"
       gradientTransform="matrix(0.05167489,0,0,0.05167489,-0.87482988,-1.4947608)"
       gradientUnits="userSpaceOnUse"
       id="radialGradient3053"
       xlink:href="#radial0"
       inkscape:collect="always" />
    <radialGradient
       cx="148.004"
       cy="160"
       gradientTransform="matrix(0.1831,0,0,0.1831,-3.10029,-5.29688)"
       id="radial0"
       r="128"
       gradientUnits="userSpaceOnUse">
      <stop
         offset="0"
         style="stop-color:#ffb794;stop-opacity:1;"
         id="stop7-0" />
      <stop
         offset="1"
         style="stop-color:#fe5603;stop-opacity:1;"
         id="stop9-5" />
    </radialGradient>
    <radialGradient
       r="128"
       cy="160"
       cx="148.004"
       gradientTransform="matrix(0.1831,0,0,0.1831,-3.1007906,-5.296396)"
       gradientUnits="userSpaceOnUse"
       id="radialGradient4014"
       xlink:href="#radial0"
       inkscape:collect="always" />
  </defs>
  <path
     inkscape:connector-curvature="0"
     style="fill:url(#radialGradient4014)"
     d="m 47.436996,11.547359 0,24.906248 c 0,10.25 0,10.984375 -10.984376,10.984375 l -24.902339,0 C 0.562,47.437982 0.562,46.703607 0.562,36.453607 l 0,-24.906248 c 0,-10.249999 0,-10.984374 10.988281,-10.984374 l 24.902339,0 c 10.984376,0 10.984376,0.734375 10.984376,10.984374 z"
     id="path11" />
  <path
     inkscape:connector-curvature="0"
     id="path15"
     d="m 38.265125,47.437982 c 2.542967,-0.01169 4.378907,-0.08203 5.710935,-0.441407 l -4.230467,-7.25 -4.484374,7.691407 1.191405,0 c 0.640626,0 1.242188,0 1.812501,0 z m 1.480468,-7.691407 -5.125,-8.789062 -5.128905,8.789062 z m 0,0 7.652345,0 c 0.03118,-0.972655 0.03905,-2.062498 0.03905,-3.296873 l 0,-1.09766 -2.562494,-4.394529 z m 5.128908,-8.789062 -5.128908,-8.789061 -5.125,8.789061 z m 0,0 2.562499,0 0,-4.39453 z m -10.253908,0 -5.128905,-8.789061 -5.125,8.789061 z m -10.253905,0 -5.128907,8.789062 10.253907,0 z m 0,0 -5.128907,-8.789061 -5.125,8.789061 z m -10.253907,0 -5.1289062,8.789062 10.2539062,0 z m 0,0 -5.1289062,-8.789061 -5.1249996,8.789061 z m -10.2539058,0 L 0.562,36.605951 c 0,1.16797 0.011693,2.210939 0.039047,3.140624 l 8.382813,0 z m 0,0 L 0.562,25.309077 l 0,5.648436 z M 8.9838748,39.746575 4.671375,47.141106 C 6.2690309,47.434067 8.4799691,47.438 11.550281,47.438 l 1.921875,0 z m 0,-17.578123 L 3.8588752,13.379389 0.562,19.027827 l 0,3.140625 z m 0,0 10.2539062,0 -5.125,-8.789063 z M 14.112781,13.379389 8.9838748,4.590327 3.8588752,13.379389 z m 0,0 10.253907,0 -5.128907,-8.789062 z m 5.125,-8.789062 -2.351562,-4.027344 -5.335938,0 c -0.07813,0 -0.140627,0 -0.214845,0 L 8.9838748,4.590327 z m 0,0 10.253907,0 -2.351563,-4.027344 -5.550781,0 z m 10.253907,0 10.253905,0 -2.351562,-4.027344 c -0.31252,0 -0.609374,0 -0.941407,0 l -4.609374,0 z m 0,0 -5.125,8.789062 10.253905,0 z m 5.128905,8.789062 10.253908,0 -5.128908,-8.789062 z m 0,0 -5.128905,8.789063 10.253905,0 z m 5.125,8.789063 7.691407,0 0,-4.394531 -2.562499,-4.394532 z m 5.128908,-8.789063 2.562499,0 0,-1.832031 c 0,-0.914063 -0.0078,-1.749999 -0.02339,-2.523436 z m -15.382813,8.789063 -5.125,-8.789063 -5.128907,8.789063 z m 10.253905,-17.578125 7.308595,0 C 46.499501,1.832514 45.167469,0.961421 42.022936,0.687983 z m -30.7617182,0 -2.304687,-3.953125 C 3.0190318,0.844234 1.5385638,1.633295 0.9448118,4.590327 z M 3.8588752,13.379389 0.6205957,7.824703 c -0.04298,1.074219 -0.058571,2.308592 -0.058571,3.722655 l 0,1.832031 z m 15.3789058,26.367186 -4.484375,7.691407 8.972656,0 z m 10.253907,0 -4.484376,7.691407 8.972658,0 z M 2.5932503,46.36767 0.9916898,43.621575 c 0.2929606,1.316406 0.7851543,2.17969 1.6015605,2.746095 z"
     style="fill:#ffffff;fill-opacity:0.05100002" />
  <path
     style="fill:#f9f9f9"
     inkscape:connector-curvature="0"
     d="m 13.999,11.083959 0.09117,17.03266 c 0,0 -0.08592,7.158107 7.421871,8.666643 4.320305,0.866668 12.486971,-1.145619 12.486971,-1.145619 l -0.06509,-24.569934 -6.567702,0 0,19.11807 -6.177083,0 0,-12.656005 -2.666668,0 3.119797,-6.529773 z"
     id="path3145" />
</svg>
