<?xml version="1.0" encoding="UTF-8" standalone="no"?>
<svg
   xmlns:dc="http://purl.org/dc/elements/1.1/"
   xmlns:cc="http://creativecommons.org/ns#"
   xmlns:rdf="http://www.w3.org/1999/02/22-rdf-syntax-ns#"
   xmlns:svg="http://www.w3.org/2000/svg"
   xmlns="http://www.w3.org/2000/svg"
   xmlns:xlink="http://www.w3.org/1999/xlink"
   xmlns:sodipodi="http://sodipodi.sourceforge.net/DTD/sodipodi-0.dtd"
   xmlns:inkscape="http://www.inkscape.org/namespaces/inkscape"
   width="48"
   viewBox="0 0 13.546667 13.546667"
   height="48"
   id="svg2"
   version="1.1"
   inkscape:version="0.48.4 r9939"
   sodipodi:docname="Newsblur-newsblur.com.svg">
  <metadata
     id="metadata289">
    <rdf:RDF>
      <cc:Work
         rdf:about="">
        <dc:format>image/svg+xml</dc:format>
        <dc:type
           rdf:resource="http://purl.org/dc/dcmitype/StillImage" />
      </cc:Work>
    </rdf:RDF>
  </metadata>
  <sodipodi:namedview
     pagecolor="#ffffff"
     bordercolor="#666666"
     borderopacity="1"
     objecttolerance="10"
     gridtolerance="10"
     guidetolerance="10"
     inkscape:pageopacity="0"
     inkscape:pageshadow="2"
     inkscape:window-width="672"
     inkscape:window-height="480"
     id="namedview287"
     showgrid="false"
     inkscape:zoom="6.9532167"
     inkscape:cx="22.157236"
     inkscape:cy="27.105081"
     inkscape:window-x="528"
     inkscape:window-y="275"
     inkscape:window-maximized="0"
     inkscape:current-layer="svg2" />
  <defs
     id="defs4">
    <clipPath
       id="clipPath6">
      <path
         d="m 328,242.09375 c -7.73199,0 -14,6.26801 -14,14 0,7.73199 6.26801,14 14,14 7.73199,0 14,-6.26801 14,-14 0,-7.73199 -6.26801,-14 -14,-14 z M 328,252 c 2.20914,0 4,1.79086 4,4 0,2.20914 -1.79086,4 -4,4 -2.20914,0 -4,-1.79086 -4,-4 0,-2.20914 1.79086,-4 4,-4 z m 0,1 c -1.65685,0 -3,1.34315 -3,3 0,1.65685 1.34315,3 3,3 1.65685,0 3,-1.34315 3,-3 0,-1.65685 -1.34315,-3 -3,-3 z m 0,1 c 1.10457,0 2,0.89543 2,2 0,1.10457 -0.89543,2 -2,2 -1.10457,0 -2,-0.89543 -2,-2 0,-1.10457 0.89543,-2 2,-2 z"
         id="path8" />
    </clipPath>
    <clipPath
       id="clipPath10">
      <path
         d="m 328,256 15,11 0,-27 -15,0 z"
         id="path12" />
    </clipPath>
    <clipPath
       id="clipPath14">
      <rect
         width="22"
         x="433"
         y="77"
         rx="5"
         height="22"
         color="#bebebe"
         id="rect16" />
    </clipPath>
    <clipPath
       id="clipPath18">
      <rect
         width="16"
         x="432"
         y="116"
         rx="2"
         height="16"
         opacity="0.2"
         fill="#6d6d6d"
         color="#bebebe"
         id="rect20" />
    </clipPath>
    <clipPath
       id="clipPath22">
      <rect
         width="60"
         x="306"
         y="142"
         rx="12.5"
         height="60"
         transform="matrix(0 -1 1 0 0 0)"
         fill="url(#1)"
         color="#bebebe"
         id="rect24" />
    </clipPath>
    <clipPath
       id="clipPath26">
      <rect
         width="90"
         x="307"
         y="31"
         rx="18.75"
         height="90"
         fill="url(#5)"
         color="#bebebe"
         id="rect28" />
    </clipPath>
    <clipPath
       id="clipPath30">
      <rect
         width="22"
         x="433"
         y="77"
         rx="3"
         height="22"
         opacity="0.2"
         fill="#6d6d6d"
         color="#bebebe"
         id="rect32" />
    </clipPath>
    <clipPath
       id="clipPath34">
      <rect
         width="22"
         x="433"
         y="77"
         rx="5"
         height="22"
         color="#bebebe"
         id="rect36" />
    </clipPath>
    <clipPath
       id="clipPath38">
      <rect
         width="30"
         x="433"
         y="29"
         rx="4"
         height="30"
         opacity="0.2"
         fill="#6d6d6d"
         color="#bebebe"
         id="rect40" />
    </clipPath>
    <clipPath
       id="clipPath42">
      <rect
         width="60"
         x="306"
         y="142"
         rx="12.5"
         height="60"
         transform="matrix(0 -1 1 0 0 0)"
         fill="url(#3)"
         color="#bebebe"
         id="rect44" />
    </clipPath>
    <clipPath
       id="clipPath46">
      <rect
         width="22"
         x="433"
         y="77"
         rx="4"
         height="22"
         color="#bebebe"
         id="rect48" />
    </clipPath>
    <clipPath
       id="clipPath50">
      <rect
         width="30"
         x="433"
         y="29"
         rx="6"
         height="30"
         color="#bebebe"
         id="rect52" />
    </clipPath>
    <clipPath
       id="clipPath54">
      <rect
         width="42"
         x="307"
         y="223"
         rx="9"
         height="42"
         transform="rotate(90)"
         fill="url(#D)"
         color="#bebebe"
         id="rect56" />
    </clipPath>
    <clipPath
       id="clipPath58">
      <rect
         width="22"
         x="433"
         y="77"
         rx="3"
         height="22"
         opacity="0.2"
         fill="#6d6d6d"
         color="#bebebe"
         id="rect60" />
    </clipPath>
    <clipPath
       id="clipPath62">
      <rect
         width="16"
         x="432"
         y="116"
         rx="2"
         height="16"
         opacity="0.2"
         fill="#6d6d6d"
         color="#bebebe"
         id="rect64" />
    </clipPath>
    <clipPath
       id="clipPath66">
      <rect
         width="30"
         x="433"
         y="29"
         rx="4"
         height="30"
         opacity="0.2"
         fill="#6d6d6d"
         color="#bebebe"
         id="rect68" />
    </clipPath>
    <clipPath
       id="clipPath70">
      <rect
         width="30"
         x="433"
         y="29"
         rx="4"
         height="30"
         opacity="0.2"
         fill="#6d6d6d"
         color="#bebebe"
         id="rect72" />
    </clipPath>
    <clipPath
       id="clipPath74">
      <rect
         width="16"
         x="432"
         y="116"
         rx="3"
         height="16"
         color="#bebebe"
         id="rect76" />
    </clipPath>
    <clipPath
       id="clipPath78">
      <rect
         width="16"
         x="432"
         y="116"
         rx="3"
         height="16"
         color="#bebebe"
         id="rect80" />
    </clipPath>
    <clipPath
       id="clipPath82">
      <rect
         width="42"
         x="307"
         y="223"
         rx="9"
         height="42"
         transform="rotate(90)"
         fill="url(#9)"
         color="#bebebe"
         id="rect84" />
    </clipPath>
    <clipPath
       id="clipPath86">
      <rect
         width="240"
         x="24"
         y="36"
         rx="50"
         height="240"
         fill="#986767"
         color="#bebebe"
         id="rect88" />
    </clipPath>
    <clipPath
       id="clipPath90">
      <rect
         width="22"
         x="433"
         y="77"
         rx="4"
         height="22"
         color="#bebebe"
         id="rect92" />
    </clipPath>
    <clipPath
       id="clipPath94">
      <rect
         width="30"
         x="433"
         y="29"
         rx="6"
         height="30"
         color="#bebebe"
         id="rect96" />
    </clipPath>
    <clipPath
       id="clipPath98">
      <rect
         width="20"
         x="434"
         y="78"
         rx="4"
         height="20"
         color="#bebebe"
         id="rect100" />
    </clipPath>
    <clipPath
       id="clipPath102">
      <rect
         width="240"
         x="24"
         y="36"
         rx="50"
         height="240"
         fill="#986767"
         color="#bebebe"
         id="rect104" />
    </clipPath>
    <clipPath
       id="clipPath106">
      <path
         d="m 328,242.09376 c -7.73199,0 -14,6.26801 -14,14 0,7.73199 6.26801,14 14,14 7.73199,0 14,-6.26801 14,-14 0,-7.73199 -6.26801,-14 -14,-14 z m 0,9.90625 c 2.20914,0 4,1.79086 4,4 0,2.20914 -1.79086,4 -4,4 -2.20914,0 -4,-1.79086 -4,-4 0,-2.20914 1.79086,-4 4,-4 z m 0,1 c -1.65685,0 -3,1.34315 -3,3 0,1.65685 1.34315,3 3,3 1.65685,0 3,-1.34315 3,-3 0,-1.65685 -1.34315,-3 -3,-3 z m 0,1 c 1.10457,0 2,0.89543 2,2 0,1.10457 -0.89543,2 -2,2 -1.10457,0 -2,-0.89543 -2,-2 0,-1.10457 0.89543,-2 2,-2 z"
         id="path108" />
    </clipPath>
    <clipPath
       id="0">
      <path
         d="m 144,48 -23.59375,55.0625 -55.59375,-22.25 22.25,55.59375 L 32,160 l 55.0625,23.59375 -22.25,55.59375 55.59375,-22.25 L 144,272 l 23.59375,-55.0625 55.59375,22.25 -22.25,-55.59375 L 256,160 200.9375,136.40625 223.1875,80.8125 167.59375,103.0625 144,48 z m -23.1875,56 46.375,0 32.8125,32.8125 0,46.375 L 167.1875,216 120.8125,216 88,183.1875 88,136.8125 120.8125,104 z"
         id="path111" />
    </clipPath>
    <clipPath
       id="clipPath113">
      <path
         d="m 451.38843,133.3713 6.42857,4.71429 0,-11.57143 -6.42857,0 z"
         id="path115" />
    </clipPath>
    <clipPath
       id="clipPath117">
      <path
         d="m 328,238 c -7.73199,0 -14,6.26801 -14,14 0,7.73199 6.26801,14 14,14 7.73199,0 14,-6.26801 14,-14 0,-7.73199 -6.26801,-14 -14,-14 z m 0,8.75 c 2.89949,0 5.25,2.35051 5.25,5.25 0,2.89949 -2.35051,5.25 -5.25,5.25 -2.89949,0 -5.25,-2.35051 -5.25,-5.25 0,-2.89949 2.35051,-5.25 5.25,-5.25 z m 0,1.75 c -1.933,0 -3.5,1.567 -3.5,3.5 0,1.933 1.567,3.5 3.5,3.5 1.933,0 3.5,-1.567 3.5,-3.5 0,-1.933 -1.567,-3.5 -3.5,-3.5 z m 0,1.75 c 0.96649,0 1.75,0.78351 1.75,1.75 0,0.96649 -0.78351,1.75 -1.75,1.75 -0.96649,0 -1.75,-0.78351 -1.75,-1.75 0,-0.96649 0.78351,-1.75 1.75,-1.75 z"
         id="path119" />
    </clipPath>
    <clipPath
       id="clipPath121">
      <path
         d="m 444,88 c -4.41828,0 -8,3.58172 -8,8 0,4.41828 3.58172,8 8,8 4.41828,0 8,-3.58172 8,-8 0,-4.41828 -3.58172,-8 -8,-8 z m 0,5 c 1.65685,0 3,1.34315 3,3 0,1.65685 -1.34315,3 -3,3 -1.65685,0 -3,-1.34315 -3,-3 0,-1.65685 1.34315,-3 3,-3 z m 0,1 c -1.10457,0 -2,0.89543 -2,2 0,1.10457 0.89543,2 2,2 1.10457,0 2,-0.89543 2,-2 0,-1.10457 -0.89543,-2 -2,-2 z m 0,1 c 0.55228,0 1,0.44772 1,1 0,0.55228 -0.44772,1 -1,1 -0.55228,0 -1,-0.44772 -1,-1 0,-0.55228 0.44772,-1 1,-1 z"
         id="path123" />
    </clipPath>
    <clipPath
       id="clipPath125">
      <path
         d="m 144.00001,75.999997 c -44.1828,0 -80,35.817203 -80,80.000003 0,44.1828 35.8172,80 80,80 44.1828,0 80,-35.8172 80,-80 0,-44.1828 -35.8172,-80.000003 -80,-80.000003 z m 0,56.607143 c 12.62366,0 22.85714,10.23349 22.85714,22.85714 0,12.62366 -10.23348,22.85714 -22.85714,22.85714 -12.62366,0 -22.85714,-10.23348 -22.85714,-22.85714 0,-12.62365 10.23348,-22.85714 22.85714,-22.85714 z m 0,5.71429 c -9.46771,0 -17.14286,7.67514 -17.14286,17.14285 0,9.46772 7.67515,17.14286 17.14286,17.14286 9.46771,0 17.14286,-7.67514 17.14286,-17.14286 0,-9.46771 -7.67515,-17.14285 -17.14286,-17.14285 z m 0,5.71428 c 6.31183,0 11.42857,5.11674 11.42857,11.42857 0,6.31183 -5.11674,11.42857 -11.42857,11.42857 -6.31183,0 -11.42857,-5.11674 -11.42857,-11.42857 0,-6.31183 5.11674,-11.42857 11.42857,-11.42857 z"
         id="path127" />
    </clipPath>
    <clipPath
       id="clipPath129">
      <path
         d="m 440,126 c -3.31371,0 -6,2.68629 -6,6 0,3.31371 2.68629,6 6,6 3.31371,0 6,-2.68629 6,-6 0,-3.31371 -2.68629,-6 -6,-6 z m 0,3 c 1.65685,0 3,1.34315 3,3 0,1.65685 -1.34315,3 -3,3 -1.65685,0 -3,-1.34315 -3,-3 0,-1.65685 1.34315,-3 3,-3 z m 0,1 c -1.10457,0 -2,0.89543 -2,2 0,1.10457 0.89543,2 2,2 1.10457,0 2,-0.89543 2,-2 0,-1.10457 -0.89543,-2 -2,-2 z m 0,1 c 0.55228,0 1,0.44772 1,1 0,0.55228 -0.44772,1 -1,1 -0.55228,0 -1,-0.44772 -1,-1 0,-0.55228 0.44772,-1 1,-1 z"
         id="path131" />
    </clipPath>
    <clipPath
       id="clipPath133">
      <path
         d="m 451.38843,127.3713 c -3.31371,0 -6,2.68629 -6,6 0,3.31371 2.68629,6 6,6 3.31371,0 6,-2.68629 6,-6 0,-3.31371 -2.68629,-6 -6,-6 z m 0,3 c 1.65685,0 3,1.34315 3,3 0,1.65685 -1.34315,3 -3,3 -1.65685,0 -3,-1.34315 -3,-3 0,-1.65685 1.34315,-3 3,-3 z m 0,1 c -1.10457,0 -2,0.89543 -2,2 0,1.10457 0.89543,2 2,2 1.10457,0 2,-0.89543 2,-2 0,-1.10457 -0.89543,-2 -2,-2 z m 0,1 c 0.55228,0 1,0.44772 1,1 0,0.55228 -0.44772,1 -1,1 -0.55228,0 -1,-0.44772 -1,-1 0,-0.55228 0.44772,-1 1,-1 z"
         id="path135" />
    </clipPath>
    <clipPath
       id="clipPath137">
      <path
         d="m 328,238 c -7.73199,0 -14,6.26801 -14,14 0,7.73199 6.26801,14 14,14 7.73199,0 14,-6.26801 14,-14 0,-7.73199 -6.26801,-14 -14,-14 z m 0,9.90625 c 2.20914,0 4,1.79086 4,4 0,2.20914 -1.79086,4 -4,4 -2.20914,0 -4,-1.79086 -4,-4 0,-2.20914 1.79086,-4 4,-4 z m 0,1 c -1.65685,0 -3,1.34315 -3,3 0,1.65685 1.34315,3 3,3 1.65685,0 3,-1.34315 3,-3 0,-1.65685 -1.34315,-3 -3,-3 z m 0,1 c 1.10457,0 2,0.89543 2,2 0,1.10457 -0.89543,2 -2,2 -1.10457,0 -2,-0.89543 -2,-2 0,-1.10457 0.89543,-2 2,-2 z"
         id="path139" />
    </clipPath>
    <clipPath
       id="clipPath141">
      <rect
         width="60"
         x="306"
         y="142"
         rx="12.5"
         height="60"
         transform="matrix(0 -1 1 0 0 0)"
         fill="url(#C)"
         color="#bebebe"
         id="rect143" />
    </clipPath>
    <clipPath
       id="clipPath145">
      <rect
         width="90"
         x="307"
         y="31"
         rx="18.75"
         height="90"
         fill="url(#B)"
         color="#bebebe"
         id="rect147" />
    </clipPath>
    <clipPath
       id="clipPath149">
      <rect
         width="30"
         x="433"
         y="29"
         rx="6"
         height="30"
         color="#bebebe"
         id="rect151" />
    </clipPath>
    <clipPath
       id="clipPath153">
      <rect
         width="22"
         x="433"
         y="77"
         rx="5"
         height="22"
         color="#bebebe"
         id="rect155" />
    </clipPath>
    <clipPath
       id="clipPath157">
      <rect
         width="22"
         x="433"
         y="77"
         rx="4"
         height="22"
         color="#bebebe"
         id="rect159" />
    </clipPath>
    <clipPath
       id="clipPath161">
      <rect
         width="20"
         x="434"
         y="78"
         rx="4"
         height="20"
         color="#bebebe"
         id="rect163" />
    </clipPath>
    <clipPath
       id="clipPath165">
      <rect
         width="240"
         x="24"
         y="36"
         rx="50"
         height="240"
         fill="#986767"
         color="#bebebe"
         id="rect167" />
    </clipPath>
    <clipPath
       id="clipPath169">
      <rect
         width="90"
         x="307"
         y="31"
         rx="18.75"
         height="90"
         fill="url(#7)"
         color="#bebebe"
         id="rect171" />
    </clipPath>
    <clipPath
       id="clipPath173">
      <rect
         width="16"
         x="432"
         y="116"
         rx="2"
         height="16"
         opacity="0.2"
         fill="#6d6d6d"
         color="#bebebe"
         id="rect175" />
    </clipPath>
    <clipPath
       id="clipPath177">
      <rect
         width="22"
         x="433"
         y="77"
         rx="3"
         height="22"
         opacity="0.2"
         fill="#6d6d6d"
         color="#bebebe"
         id="rect179" />
    </clipPath>
    <clipPath
       id="clipPath181">
      <rect
         width="42"
         x="307"
         y="223"
         rx="9"
         height="42"
         transform="rotate(90)"
         fill="url(#A)"
         color="#bebebe"
         id="rect183" />
    </clipPath>
    <clipPath
       id="clipPath185">
      <rect
         width="16"
         x="432"
         y="116"
         rx="3"
         height="16"
         color="#bebebe"
         id="rect187" />
    </clipPath>
    <clipPath
       id="clipPath189">
      <rect
         width="20"
         x="434"
         y="78"
         rx="4"
         height="20"
         color="#bebebe"
         id="rect191" />
    </clipPath>
    <linearGradient
       gradientTransform="matrix(.25 0 0 .25 299.99999 131.99999)"
       id="1"
       xlink:href="#4"
       y1="230"
       y2="90"
       x2="0"
       gradientUnits="userSpaceOnUse" />
    <linearGradient
       gradientTransform="translate(11.38843 1.3713)"
       xlink:href="#2"
       y1="140"
       y2="124"
       gradientUnits="userSpaceOnUse"
       x2="0"
       id="linearGradient194" />
    <linearGradient
       xlink:href="#2"
       y1="140"
       y2="124"
       x2="0"
       gradientUnits="userSpaceOnUse"
       id="linearGradient196" />
    <linearGradient
       id="2">
      <stop
         stop-color="#818181"
         id="stop199" />
      <stop
         offset="1"
         stop-color="#c5c5c5"
         id="stop201" />
    </linearGradient>
    <linearGradient
       gradientTransform="matrix(5.71429 0 0 5.71429 -1730.2857 -1284)"
       xlink:href="#2"
       y1="273"
       y2="231"
       gradientUnits="userSpaceOnUse"
       x2="0"
       id="linearGradient203" />
    <linearGradient
       gradientTransform="matrix(.25 0 0 .25 299.99999 131.99999)"
       xlink:href="#4"
       id="3"
       y1="230"
       y2="90"
       gradientUnits="userSpaceOnUse"
       x2="0" />
    <linearGradient
       id="4">
      <stop
         stop-color="#f0f0f0"
         id="stop207" />
      <stop
         offset="1"
         stop-color="#f8f8f8"
         id="stop209" />
    </linearGradient>
    <linearGradient
       xlink:href="#2"
       y1="107"
       y2="85"
       x2="0"
       gradientUnits="userSpaceOnUse"
       id="linearGradient211" />
    <linearGradient
       gradientTransform="matrix(.375 0 0 .375 298 16)"
       id="5"
       xlink:href="#4"
       y1="230"
       y2="90"
       x2="0"
       gradientUnits="userSpaceOnUse" />
    <linearGradient
       gradientTransform="translate(0 4.09376)"
       xlink:href="#2"
       y1="273"
       y2="231"
       gradientUnits="userSpaceOnUse"
       x2="0"
       id="linearGradient214" />
    <linearGradient
       id="6">
      <stop
         stop-color="#eaba31"
         id="stop217" />
      <stop
         offset="1"
         stop-color="#ff9200"
         id="stop219" />
    </linearGradient>
    <linearGradient
       gradientTransform="translate(0 4.09376)"
       xlink:href="#2"
       y1="273"
       y2="231"
       gradientUnits="userSpaceOnUse"
       x2="0"
       id="linearGradient221" />
    <linearGradient
       gradientTransform="matrix(.375 0 0 .375 298 16)"
       xlink:href="#4"
       id="7"
       y1="230"
       y2="90"
       gradientUnits="userSpaceOnUse"
       x2="0" />
    <linearGradient
       id="8">
      <stop
         stop-color="#c45d13"
         id="stop225" />
      <stop
         offset="1"
         stop-color="#ea7a2a"
         id="stop227" />
    </linearGradient>
    <linearGradient
       gradientTransform="matrix(.175 0 0 .175 302.79999 215.99997)"
       id="9"
       xlink:href="#4"
       y1="280"
       y2="40"
       x2="0"
       gradientUnits="userSpaceOnUse" />
    <linearGradient
       xlink:href="#2"
       y1="107"
       y2="85"
       x2="0"
       gradientUnits="userSpaceOnUse"
       id="linearGradient230" />
    <linearGradient
       gradientTransform="matrix(5.71429 0 0 5.71429 -1730.2857 -1284)"
       xlink:href="#2"
       y1="273"
       y2="231"
       x2="0"
       gradientUnits="userSpaceOnUse"
       id="linearGradient232" />
    <linearGradient
       gradientTransform="translate(0 4.09376)"
       xlink:href="#2"
       y1="273"
       y2="231"
       x2="0"
       gradientUnits="userSpaceOnUse"
       id="linearGradient234" />
    <linearGradient
       gradientTransform="translate(11.38843 1.3713)"
       xlink:href="#2"
       y1="140"
       y2="124"
       x2="0"
       gradientUnits="userSpaceOnUse"
       id="linearGradient236" />
    <linearGradient
       xlink:href="#2"
       y1="140"
       y2="124"
       x2="0"
       gradientUnits="userSpaceOnUse"
       id="linearGradient238" />
    <linearGradient
       gradientTransform="matrix(.175 0 0 .175 302.79999 215.99997)"
       xlink:href="#4"
       id="A"
       y1="280"
       y2="40"
       gradientUnits="userSpaceOnUse"
       x2="0" />
    <linearGradient
       xlink:href="#2"
       y1="140"
       y2="124"
       x2="0"
       gradientUnits="userSpaceOnUse"
       id="linearGradient241" />
    <linearGradient
       gradientTransform="matrix(.375 0 0 .375 298 16)"
       xlink:href="#4"
       id="B"
       y1="230"
       y2="90"
       gradientUnits="userSpaceOnUse"
       x2="0" />
    <linearGradient
       gradientTransform="matrix(.25 0 0 .25 299.99999 131.99999)"
       xlink:href="#4"
       id="C"
       y1="230"
       y2="90"
       gradientUnits="userSpaceOnUse"
       x2="0" />
    <linearGradient
       gradientTransform="translate(11.38843 1.3713)"
       xlink:href="#2"
       y1="140"
       y2="124"
       gradientUnits="userSpaceOnUse"
       x2="0"
       id="linearGradient245" />
    <linearGradient
       gradientTransform="matrix(.175 0 0 .175 302.79999 215.99997)"
       xlink:href="#4"
       id="D"
       y1="280"
       y2="40"
       gradientUnits="userSpaceOnUse"
       x2="0" />
    <linearGradient
       gradientTransform="matrix(5.71429 0 0 5.71429 -1730.2857 -1284)"
       xlink:href="#2"
       y1="273"
       y2="231"
       gradientUnits="userSpaceOnUse"
       x2="0"
       id="linearGradient248" />
    <linearGradient
       xlink:href="#2"
       y1="107"
       y2="85"
       x2="0"
       gradientUnits="userSpaceOnUse"
       id="linearGradient250" />
    <radialGradient
       cx="328"
       cy="255.42"
       gradientTransform="matrix(1.22449 0 0 1.22449 49.7555 -179.34296)"
       r="7"
       xlink:href="#6"
       gradientUnits="userSpaceOnUse"
       id="radialGradient252" />
    <radialGradient
       cx="328"
       cy="255.42"
       gradientTransform="matrix(2.85714 0 0 2.85714 -609.14349 -473.66662)"
       r="7"
       xlink:href="#6"
       gradientUnits="userSpaceOnUse"
       id="radialGradient254" />
    <radialGradient
       cx="328"
       cy="255.42"
       gradientTransform="matrix(2.85714 0 0 2.85714 -609.14349 -473.66662)"
       r="7"
       xlink:href="#6"
       gradientUnits="userSpaceOnUse"
       id="radialGradient256" />
    <radialGradient
       cx="328"
       cy="255.42"
       gradientTransform="matrix(1.22449 0 0 1.22449 49.7555 -179.34296)"
       r="7"
       xlink:href="#6"
       gradientUnits="userSpaceOnUse"
       id="radialGradient258" />
    <radialGradient
       cx="328"
       cy="255.42"
       gradientTransform="matrix(1.22449 0 0 1.22449 49.7555 -179.34296)"
       r="7"
       xlink:href="#6"
       gradientUnits="userSpaceOnUse"
       id="radialGradient260" />
    <radialGradient
       cx="328"
       cy="255.42"
       gradientTransform="matrix(2.85714 0 0 2.85714 -609.14349 -473.66662)"
       r="7"
       xlink:href="#6"
       gradientUnits="userSpaceOnUse"
       id="radialGradient262" />
    <linearGradient
       gradientTransform="matrix(0.28222223,0,0,0.28222223,0,-283.45334)"
       xlink:href="#8"
       id="E"
       y1="1050.36"
       x2="0"
       y2="1006.36"
       gradientUnits="userSpaceOnUse" />
    <radialGradient
       cx="148.004"
       cy="160"
       gradientTransform="matrix(0.1831,0,0,0.1831,-3.10029,-5.29688)"
       id="radial0"
       r="128"
       gradientUnits="userSpaceOnUse">
      <stop
         offset="0"
         style="stop-color:#e4c2a9"
         id="stop13" />
      <stop
         offset="1"
         style="stop-color:#bb5a12"
         id="stop15" />
    </radialGradient>
    <radialGradient
       r="128"
       cy="160"
       cx="148.004"
       gradientTransform="matrix(0.05167489,0,0,0.05167489,-0.87511191,-1.4947562)"
       gradientUnits="userSpaceOnUse"
       id="radialGradient3027"
       xlink:href="#radial0"
       inkscape:collect="always" />
  </defs>
  <path
     inkscape:connector-curvature="0"
     style="fill:url(#radialGradient3027)"
     d="m 13.387775,3.2589259 0,7.0290971 c 0,2.892778 0,3.100035 -3.100035,3.100035 l -7.0279935,0 c -3.10113761,0 -3.10113761,-0.207257 -3.10113761,-3.100035 l 0,-7.0290971 c 0,-2.89277793 0,-3.10003483 3.10113761,-3.10003483 l 7.0279935,0 c 3.100035,0 3.100035,0.2072569 3.100035,3.10003483 z"
     id="path17" />
  <path
     id="path21"
     d="m 10.799269,13.388058 c 0.717682,-0.0033 1.235825,-0.02315 1.611753,-0.124574 l -1.193932,-2.046112 -1.2655901,2.170686 0.3362411,0 c 0.180799,0 0.350573,0 0.511528,0 z M 11.21709,11.217372 9.7707012,8.7369034 8.32321,11.217372 z m 0,0 2.159662,0 c 0.0088,-0.274505 0.01102,-0.582083 0.01102,-0.930451 l 0,-0.3097833 -0.723194,-1.2402343 z M 12.664581,8.7369034 11.21709,6.2564347 9.7707012,8.7369034 z m 0,0 0.723195,0 0,-1.2402343 z m -2.8938798,0 L 8.32321,6.2564347 6.876821,8.7369034 z m -2.8938802,0 -1.4474915,2.4804686 2.8938805,0 z m 0,0 -1.4474915,-2.4804687 -1.446389,2.4804687 z m -2.8938805,0 -1.4474913,2.4804686 2.8938803,0 z m 0,0 L 2.5354492,6.2564347 1.0890603,8.7369034 z m -2.8938802,0 -0.9304514,1.5941146 c 0,0.329627 0.003307,0.623976 0.0110242,0.886354 l 2.36581614,0 z m 0,0 -0.9304514,-1.5941145 0,1.5941145 z m 1.4463889,2.4804686 -1.2170833,2.086901 c 0.450894,0.08268 1.0748699,0.08378 1.9402778,0.08378 l 0.5434982,0 z m 0,-4.9609373 -1.4463889,-2.4804689 -0.9304514,1.5941147 0,0.8863542 z m 0,0 2.8938803,0 -1.446389,-2.4804689 z M 3.9829405,3.7759658 2.5354492,1.2954971 1.0890603,3.7759658 z m 0,0 2.8938805,0 -1.4474915,-2.4804687 z m 1.446389,-2.4804687 -0.6636631,-1.13660602 -1.5070227,0 c -0.020946,0 -0.038585,0 -0.059531,0 L 2.5354492,1.2954971 z m 0,0 2.8938805,0 -0.6636634,-1.13660602 -1.5665538,0 z m 2.8938805,0 2.89388,0 -0.663663,-1.13660602 c -0.08819,0 -0.171979,0 -0.266788,0 l -1.299766,0 z m 0,0 -1.446389,2.4804687 2.8938802,0 z m 1.4474912,2.4804687 2.8938798,0 -1.447491,-2.4804687 z m 0,0 -1.4474912,2.4804689 2.89388,0 z m 1.4463888,2.4804689 2.170686,0 0,-1.2402343 -0.723195,-1.2402346 z m 1.447491,-2.4804689 0.723195,0 0,-0.5170399 c 0,-0.2579689 -0.0022,-0.4938889 -0.0066,-0.71217 z M 8.32321,6.2564347 6.876821,3.7759658 5.4293295,6.2564347 z m 2.89388,-4.9609376 2.062648,0 C 13.123193,0.51718095 12.747264,0.27133914 11.859807,0.19416885 z m -8.6816408,0 L 1.8850153,0.17983733 C 0.85203767,0.23826608 0.4342164,0.46095692 0.26664695,1.2954971 z M 1.0890603,3.7759658 0.17514543,2.2083096 C 0.16301862,2.5114781 0.1586089,2.8598459 0.1586089,3.2589259 l 0,0.5170399 z m 4.3402692,7.4414062 -1.2655904,2.170686 2.532283,0 z m 2.8938805,0 -1.2655906,2.170686 2.5322832,0 z m -7.5913372,1.86862 -0.4519964,-0.775009 c 0.0826821,0.37152 0.22158848,0.615157 0.4519964,0.775009 z"
     style="fill:#ffffff;fill-opacity:0.05100002"
     inkscape:connector-curvature="0" />
  <path
     style="color:#bebebe;fill:#f9f9f9;fill-opacity:1"
     inkscape:connector-curvature="0"
     id="path283"
     d="m 8.89048,6.8115 c 0,1.1690765 -0.9477235,2.1168 -2.1168,2.1168 -1.1690765,0 -2.1168,-0.9477235 -2.1168,-2.1168 0,-1.1690765 0.9477235,-2.1168 2.1168,-2.1168 1.1690765,0 2.1168,0.9477235 2.1168,2.1168 z" />
  <path
     style="color:#bebebe;fill:#f9f9f9;fill-opacity:1"
     inkscape:connector-curvature="0"
     id="path285"
     clip-path="url(#0)"
     transform="matrix(0.0378,0,0,0.0378,1.33048,0.7257)"
     d="M 144,48 C 82.22702,48 32,98.22702 32,160 32,221.77298 82.22702,272 144,272 205.77298,272 256,221.77298 256,160 256,98.22702 205.77298,48 144,48 z m 0,14 c 54.20682,0 98,43.79318 98,98 0,54.20682 -43.79318,98 -98,98 -54.206819,0 -98,-43.79318 -98,-98 0,-54.20682 43.793181,-98 98,-98 z m 0,6 c -50.750978,0 -92,41.24902 -92,92 0,50.75098 41.249022,92 92,92 50.75098,0 92,-41.24902 92,-92 0,-50.75098 -41.24902,-92 -92,-92 z m 0,10 c 45.34658,0 82,36.65342 82,82 0,45.34658 -36.65342,82 -82,82 -45.346576,0 -82,-36.65342 -82,-82 0,-45.34658 36.653424,-82 82,-82 z m 0,9 c -40.80985,0 -74,33.19015 -74,74 0,40.80985 33.19015,74 74,74 40.80985,0 74,-33.19015 74,-74 0,-40.80985 -33.19015,-74 -74,-74 z m 0,10 c 35.40544,0 64,28.59456 64,64 0,35.40544 -28.59456,64 -64,64 -35.40544,0 -64,-28.59456 -64,-64 0,-35.40544 28.59456,-64 64,-64 z" />
</svg>
