<?xml version="1.0" encoding="UTF-8" standalone="no"?>
<svg
   xmlns:dc="http://purl.org/dc/elements/1.1/"
   xmlns:cc="http://creativecommons.org/ns#"
   xmlns:rdf="http://www.w3.org/1999/02/22-rdf-syntax-ns#"
   xmlns:svg="http://www.w3.org/2000/svg"
   xmlns="http://www.w3.org/2000/svg"
   xmlns:xlink="http://www.w3.org/1999/xlink"
   xmlns:sodipodi="http://sodipodi.sourceforge.net/DTD/sodipodi-0.dtd"
   xmlns:inkscape="http://www.inkscape.org/namespaces/inkscape"
   width="48"
   viewBox="0 0 13.546667 13.546667"
   height="48"
   id="svg2"
   version="1.1"
   inkscape:version="0.48.4 r9939"
   sodipodi:docname="Pandora-pandora.com.svg">
  <metadata
     id="metadata286">
    <rdf:RDF>
      <cc:Work
         rdf:about="">
        <dc:format>image/svg+xml</dc:format>
        <dc:type
           rdf:resource="http://purl.org/dc/dcmitype/StillImage" />
      </cc:Work>
    </rdf:RDF>
  </metadata>
  <sodipodi:namedview
     pagecolor="#ffffff"
     bordercolor="#666666"
     borderopacity="1"
     objecttolerance="10"
     gridtolerance="10"
     guidetolerance="10"
     inkscape:pageopacity="0"
     inkscape:pageshadow="2"
     inkscape:window-width="640"
     inkscape:window-height="480"
     id="namedview284"
     showgrid="false"
     inkscape:zoom="4.9166667"
     inkscape:cx="24"
     inkscape:cy="24"
     inkscape:window-x="0"
     inkscape:window-y="0"
     inkscape:window-maximized="0"
     inkscape:current-layer="svg2" />
  <defs
     id="defs4">
    <clipPath
       id="clipPath6">
      <path
         d="m 328,242.09376 c -7.73199,0 -14,6.26801 -14,14 0,7.73199 6.26801,14 14,14 7.73199,0 14,-6.26801 14,-14 0,-7.73199 -6.26801,-14 -14,-14 z m 0,9.90625 c 2.20914,0 4,1.79086 4,4 0,2.20914 -1.79086,4 -4,4 -2.20914,0 -4,-1.79086 -4,-4 0,-2.20914 1.79086,-4 4,-4 z m 0,1 c -1.65685,0 -3,1.34315 -3,3 0,1.65685 1.34315,3 3,3 1.65685,0 3,-1.34315 3,-3 0,-1.65685 -1.34315,-3 -3,-3 z m 0,1 c 1.10457,0 2,0.89543 2,2 0,1.10457 -0.89543,2 -2,2 -1.10457,0 -2,-0.89543 -2,-2 0,-1.10457 0.89543,-2 2,-2 z"
         id="path8" />
    </clipPath>
    <clipPath
       id="clipPath10">
      <rect
         width="20"
         x="434"
         y="78"
         rx="4"
         height="20"
         color="#bebebe"
         id="rect12" />
    </clipPath>
    <clipPath
       id="clipPath14">
      <path
         d="m 328,238 c -7.73199,0 -14,6.26801 -14,14 0,7.73199 6.26801,14 14,14 7.73199,0 14,-6.26801 14,-14 0,-7.73199 -6.26801,-14 -14,-14 z m 0,8.75 c 2.89949,0 5.25,2.35051 5.25,5.25 0,2.89949 -2.35051,5.25 -5.25,5.25 -2.89949,0 -5.25,-2.35051 -5.25,-5.25 0,-2.89949 2.35051,-5.25 5.25,-5.25 z m 0,1.75 c -1.933,0 -3.5,1.567 -3.5,3.5 0,1.933 1.567,3.5 3.5,3.5 1.933,0 3.5,-1.567 3.5,-3.5 0,-1.933 -1.567,-3.5 -3.5,-3.5 z m 0,1.75 c 0.96649,0 1.75,0.78351 1.75,1.75 0,0.96649 -0.78351,1.75 -1.75,1.75 -0.96649,0 -1.75,-0.78351 -1.75,-1.75 0,-0.96649 0.78351,-1.75 1.75,-1.75 z"
         id="path16" />
    </clipPath>
    <clipPath
       id="clipPath18">
      <path
         d="m 451.38843,133.3713 6.42857,4.71429 0,-11.57143 -6.42857,0 z"
         id="path20" />
    </clipPath>
    <clipPath
       id="clipPath22">
      <path
         d="m 451.38843,127.3713 c -3.31371,0 -6,2.68629 -6,6 0,3.31371 2.68629,6 6,6 3.31371,0 6,-2.68629 6,-6 0,-3.31371 -2.68629,-6 -6,-6 z m 0,3 c 1.65685,0 3,1.34315 3,3 0,1.65685 -1.34315,3 -3,3 -1.65685,0 -3,-1.34315 -3,-3 0,-1.65685 1.34315,-3 3,-3 z m 0,1 c -1.10457,0 -2,0.89543 -2,2 0,1.10457 0.89543,2 2,2 1.10457,0 2,-0.89543 2,-2 0,-1.10457 -0.89543,-2 -2,-2 z m 0,1 c 0.55228,0 1,0.44772 1,1 0,0.55228 -0.44772,1 -1,1 -0.55228,0 -1,-0.44772 -1,-1 0,-0.55228 0.44772,-1 1,-1 z"
         id="path24" />
    </clipPath>
    <clipPath
       id="clipPath26">
      <rect
         width="240"
         x="24"
         y="36"
         rx="50"
         height="240"
         fill="#986767"
         color="#bebebe"
         id="rect28" />
    </clipPath>
    <clipPath
       id="clipPath30">
      <path
         d="m 440,126 c -3.31371,0 -6,2.68629 -6,6 0,3.31371 2.68629,6 6,6 3.31371,0 6,-2.68629 6,-6 0,-3.31371 -2.68629,-6 -6,-6 z m 0,3 c 1.65685,0 3,1.34315 3,3 0,1.65685 -1.34315,3 -3,3 -1.65685,0 -3,-1.34315 -3,-3 0,-1.65685 1.34315,-3 3,-3 z m 0,1 c -1.10457,0 -2,0.89543 -2,2 0,1.10457 0.89543,2 2,2 1.10457,0 2,-0.89543 2,-2 0,-1.10457 -0.89543,-2 -2,-2 z m 0,1 c 0.55228,0 1,0.44772 1,1 0,0.55228 -0.44772,1 -1,1 -0.55228,0 -1,-0.44772 -1,-1 0,-0.55228 0.44772,-1 1,-1 z"
         id="path32" />
    </clipPath>
    <clipPath
       id="clipPath34">
      <path
         d="m 444,88 c -4.41828,0 -8,3.58172 -8,8 0,4.41828 3.58172,8 8,8 4.41828,0 8,-3.58172 8,-8 0,-4.41828 -3.58172,-8 -8,-8 z m 0,5 c 1.65685,0 3,1.34315 3,3 0,1.65685 -1.34315,3 -3,3 -1.65685,0 -3,-1.34315 -3,-3 0,-1.65685 1.34315,-3 3,-3 z m 0,1 c -1.10457,0 -2,0.89543 -2,2 0,1.10457 0.89543,2 2,2 1.10457,0 2,-0.89543 2,-2 0,-1.10457 -0.89543,-2 -2,-2 z m 0,1 c 0.55228,0 1,0.44772 1,1 0,0.55228 -0.44772,1 -1,1 -0.55228,0 -1,-0.44772 -1,-1 0,-0.55228 0.44772,-1 1,-1 z"
         id="path36" />
    </clipPath>
    <clipPath
       id="clipPath38">
      <rect
         width="90"
         x="307"
         y="31"
         rx="18.75"
         height="90"
         fill="url(#0)"
         color="#bebebe"
         id="rect40" />
    </clipPath>
    <clipPath
       id="clipPath42">
      <path
         d="m 328,238 c -7.73199,0 -14,6.26801 -14,14 0,7.73199 6.26801,14 14,14 7.73199,0 14,-6.26801 14,-14 0,-7.73199 -6.26801,-14 -14,-14 z m 0,9.90625 c 2.20914,0 4,1.79086 4,4 0,2.20914 -1.79086,4 -4,4 -2.20914,0 -4,-1.79086 -4,-4 0,-2.20914 1.79086,-4 4,-4 z m 0,1 c -1.65685,0 -3,1.34315 -3,3 0,1.65685 1.34315,3 3,3 1.65685,0 3,-1.34315 3,-3 0,-1.65685 -1.34315,-3 -3,-3 z m 0,1 c 1.10457,0 2,0.89543 2,2 0,1.10457 -0.89543,2 -2,2 -1.10457,0 -2,-0.89543 -2,-2 0,-1.10457 0.89543,-2 2,-2 z"
         id="path44" />
    </clipPath>
    <clipPath
       id="clipPath46">
      <rect
         width="60"
         x="306"
         y="142"
         rx="12.5"
         height="60"
         transform="matrix(0 -1 1 0 0 0)"
         fill="url(#2)"
         color="#bebebe"
         id="rect48" />
    </clipPath>
    <clipPath
       id="clipPath50">
      <path
         d="m 328,256 15,11 0,-27 -15,0 z"
         id="path52" />
    </clipPath>
    <clipPath
       id="clipPath54">
      <rect
         width="30"
         x="433"
         y="29"
         rx="6"
         height="30"
         color="#bebebe"
         id="rect56" />
    </clipPath>
    <clipPath
       id="clipPath58">
      <path
         d="m 144.00001,75.999997 c -44.1828,0 -80,35.817203 -80,80.000003 0,44.1828 35.8172,80 80,80 44.1828,0 80,-35.8172 80,-80 0,-44.1828 -35.8172,-80.000003 -80,-80.000003 z m 0,56.607143 c 12.62366,0 22.85714,10.23349 22.85714,22.85714 0,12.62366 -10.23348,22.85714 -22.85714,22.85714 -12.62366,0 -22.85714,-10.23348 -22.85714,-22.85714 0,-12.62365 10.23348,-22.85714 22.85714,-22.85714 z m 0,5.71429 c -9.46771,0 -17.14286,7.67514 -17.14286,17.14285 0,9.46772 7.67515,17.14286 17.14286,17.14286 9.46771,0 17.14286,-7.67514 17.14286,-17.14286 0,-9.46771 -7.67515,-17.14285 -17.14286,-17.14285 z m 0,5.71428 c 6.31183,0 11.42857,5.11674 11.42857,11.42857 0,6.31183 -5.11674,11.42857 -11.42857,11.42857 -6.31183,0 -11.42857,-5.11674 -11.42857,-11.42857 0,-6.31183 5.11674,-11.42857 11.42857,-11.42857 z"
         id="path60" />
    </clipPath>
    <clipPath
       id="clipPath62">
      <rect
         width="22"
         x="433"
         y="77"
         rx="5"
         height="22"
         color="#bebebe"
         id="rect64" />
    </clipPath>
    <clipPath
       id="clipPath66">
      <rect
         width="22"
         x="433"
         y="77"
         rx="4"
         height="22"
         color="#bebebe"
         id="rect68" />
    </clipPath>
    <clipPath
       id="clipPath70">
      <rect
         width="42"
         x="307"
         y="223"
         rx="9"
         height="42"
         transform="rotate(90)"
         fill="url(#1)"
         color="#bebebe"
         id="rect72" />
    </clipPath>
    <clipPath
       id="clipPath74">
      <path
         d="m 328,242.09375 c -7.73199,0 -14,6.26801 -14,14 0,7.73199 6.26801,14 14,14 7.73199,0 14,-6.26801 14,-14 0,-7.73199 -6.26801,-14 -14,-14 z M 328,252 c 2.20914,0 4,1.79086 4,4 0,2.20914 -1.79086,4 -4,4 -2.20914,0 -4,-1.79086 -4,-4 0,-2.20914 1.79086,-4 4,-4 z m 0,1 c -1.65685,0 -3,1.34315 -3,3 0,1.65685 1.34315,3 3,3 1.65685,0 3,-1.34315 3,-3 0,-1.65685 -1.34315,-3 -3,-3 z m 0,1 c 1.10457,0 2,0.89543 2,2 0,1.10457 -0.89543,2 -2,2 -1.10457,0 -2,-0.89543 -2,-2 0,-1.10457 0.89543,-2 2,-2 z"
         id="path76" />
    </clipPath>
    <clipPath
       id="clipPath78">
      <rect
         width="16"
         x="432"
         y="116"
         rx="3"
         height="16"
         color="#bebebe"
         id="rect80" />
    </clipPath>
    <clipPath
       id="clipPath82">
      <rect
         width="20"
         x="434"
         y="78"
         rx="4"
         height="20"
         color="#bebebe"
         id="rect84" />
    </clipPath>
    <clipPath
       id="clipPath86">
      <rect
         width="22"
         x="433"
         y="77"
         rx="3"
         height="22"
         opacity="0.2"
         fill="#6d6d6d"
         color="#bebebe"
         id="rect88" />
    </clipPath>
    <clipPath
       id="clipPath90">
      <rect
         width="16"
         x="432"
         y="116"
         rx="2"
         height="16"
         opacity="0.2"
         fill="#6d6d6d"
         color="#bebebe"
         id="rect92" />
    </clipPath>
    <clipPath
       id="clipPath94">
      <rect
         width="90"
         x="307"
         y="31"
         rx="18.75"
         height="90"
         fill="url(#C)"
         color="#bebebe"
         id="rect96" />
    </clipPath>
    <clipPath
       id="clipPath98">
      <rect
         width="60"
         x="306"
         y="142"
         rx="12.5"
         height="60"
         transform="matrix(0 -1 1 0 0 0)"
         fill="url(#A)"
         color="#bebebe"
         id="rect100" />
    </clipPath>
    <clipPath
       id="clipPath102">
      <rect
         width="22"
         x="433"
         y="77"
         rx="4"
         height="22"
         color="#bebebe"
         id="rect104" />
    </clipPath>
    <clipPath
       id="clipPath106">
      <rect
         width="30"
         x="433"
         y="29"
         rx="4"
         height="30"
         opacity="0.2"
         fill="#6d6d6d"
         color="#bebebe"
         id="rect108" />
    </clipPath>
    <clipPath
       id="clipPath110">
      <rect
         width="30"
         x="433"
         y="29"
         rx="6"
         height="30"
         color="#bebebe"
         id="rect112" />
    </clipPath>
    <clipPath
       id="clipPath114">
      <rect
         width="16"
         x="432"
         y="116"
         rx="2"
         height="16"
         opacity="0.2"
         fill="#6d6d6d"
         color="#bebebe"
         id="rect116" />
    </clipPath>
    <clipPath
       id="clipPath118">
      <rect
         width="42"
         x="307"
         y="223"
         rx="9"
         height="42"
         transform="rotate(90)"
         fill="url(#7)"
         color="#bebebe"
         id="rect120" />
    </clipPath>
    <clipPath
       id="clipPath122">
      <rect
         width="22"
         x="433"
         y="77"
         rx="3"
         height="22"
         opacity="0.2"
         fill="#6d6d6d"
         color="#bebebe"
         id="rect124" />
    </clipPath>
    <clipPath
       id="clipPath126">
      <rect
         width="30"
         x="433"
         y="29"
         rx="4"
         height="30"
         opacity="0.2"
         fill="#6d6d6d"
         color="#bebebe"
         id="rect128" />
    </clipPath>
    <clipPath
       id="clipPath130">
      <rect
         width="22"
         x="433"
         y="77"
         rx="5"
         height="22"
         color="#bebebe"
         id="rect132" />
    </clipPath>
    <clipPath
       id="clipPath134">
      <rect
         width="22"
         x="433"
         y="77"
         rx="5"
         height="22"
         color="#bebebe"
         id="rect136" />
    </clipPath>
    <clipPath
       id="clipPath138">
      <rect
         width="16"
         x="432"
         y="116"
         rx="2"
         height="16"
         opacity="0.2"
         fill="#6d6d6d"
         color="#bebebe"
         id="rect140" />
    </clipPath>
    <clipPath
       id="clipPath142">
      <rect
         width="22"
         x="433"
         y="77"
         rx="3"
         height="22"
         opacity="0.2"
         fill="#6d6d6d"
         color="#bebebe"
         id="rect144" />
    </clipPath>
    <clipPath
       id="clipPath146">
      <rect
         width="60"
         x="306"
         y="142"
         rx="12.5"
         height="60"
         transform="matrix(0 -1 1 0 0 0)"
         fill="url(#9)"
         color="#bebebe"
         id="rect148" />
    </clipPath>
    <clipPath
       id="clipPath150">
      <rect
         width="90"
         x="307"
         y="31"
         rx="18.75"
         height="90"
         fill="url(#B)"
         color="#bebebe"
         id="rect152" />
    </clipPath>
    <clipPath
       id="clipPath154">
      <path
         d="m 144,48 -23.59375,55.0625 -55.59375,-22.25 22.25,55.59375 L 32,160 l 55.0625,23.59375 -22.25,55.59375 55.59375,-22.25 L 144,272 l 23.59375,-55.0625 55.59375,22.25 -22.25,-55.59375 L 256,160 200.9375,136.40625 223.1875,80.8125 167.59375,103.0625 144,48 z m -23.1875,56 46.375,0 32.8125,32.8125 0,46.375 L 167.1875,216 120.8125,216 88,183.1875 88,136.8125 120.8125,104 z"
         id="path156" />
    </clipPath>
    <clipPath
       id="clipPath158">
      <rect
         width="30"
         x="433"
         y="29"
         rx="4"
         height="30"
         opacity="0.2"
         fill="#6d6d6d"
         color="#bebebe"
         id="rect160" />
    </clipPath>
    <clipPath
       id="clipPath162">
      <rect
         width="240"
         x="24"
         y="36"
         rx="50"
         height="240"
         fill="#986767"
         color="#bebebe"
         id="rect164" />
    </clipPath>
    <clipPath
       id="clipPath166">
      <rect
         width="42"
         x="307"
         y="223"
         rx="9"
         height="42"
         transform="rotate(90)"
         fill="url(#3)"
         color="#bebebe"
         id="rect168" />
    </clipPath>
    <clipPath
       id="clipPath170">
      <rect
         width="16"
         x="432"
         y="116"
         rx="3"
         height="16"
         color="#bebebe"
         id="rect172" />
    </clipPath>
    <clipPath
       id="clipPath174">
      <rect
         width="16"
         x="432"
         y="116"
         rx="3"
         height="16"
         color="#bebebe"
         id="rect176" />
    </clipPath>
    <clipPath
       id="clipPath178">
      <rect
         width="240"
         x="24"
         y="36"
         rx="50"
         height="240"
         fill="#986767"
         color="#bebebe"
         id="rect180" />
    </clipPath>
    <clipPath
       id="clipPath182">
      <rect
         width="22"
         x="433"
         y="77"
         rx="4"
         height="22"
         color="#bebebe"
         id="rect184" />
    </clipPath>
    <clipPath
       id="clipPath186">
      <rect
         width="20"
         x="434"
         y="78"
         rx="4"
         height="20"
         color="#bebebe"
         id="rect188" />
    </clipPath>
    <clipPath
       id="clipPath190">
      <rect
         width="30"
         x="433"
         y="29"
         rx="6"
         height="30"
         color="#bebebe"
         id="rect192" />
    </clipPath>
    <linearGradient
       xlink:href="#6"
       y1="140"
       y2="124"
       x2="0"
       gradientUnits="userSpaceOnUse"
       id="linearGradient194" />
    <linearGradient
       gradientTransform="matrix(.375 0 0 .375 298 16)"
       xlink:href="#4"
       id="0"
       y1="230"
       y2="90"
       gradientUnits="userSpaceOnUse"
       x2="0" />
    <linearGradient
       gradientTransform="matrix(.175 0 0 .175 302.79999 215.99997)"
       xlink:href="#4"
       id="1"
       y1="280"
       y2="40"
       gradientUnits="userSpaceOnUse"
       x2="0" />
    <linearGradient
       xlink:href="#6"
       y1="140"
       y2="124"
       x2="0"
       gradientUnits="userSpaceOnUse"
       id="linearGradient198" />
    <linearGradient
       gradientTransform="matrix(.25 0 0 .25 299.99999 131.99999)"
       xlink:href="#4"
       id="2"
       y1="230"
       y2="90"
       gradientUnits="userSpaceOnUse"
       x2="0" />
    <linearGradient
       xlink:href="#6"
       y1="107"
       y2="85"
       x2="0"
       gradientUnits="userSpaceOnUse"
       id="linearGradient201" />
    <linearGradient
       gradientTransform="translate(11.38843 1.3713)"
       xlink:href="#6"
       y1="140"
       y2="124"
       x2="0"
       gradientUnits="userSpaceOnUse"
       id="linearGradient203" />
    <linearGradient
       gradientTransform="translate(0 4.09376)"
       xlink:href="#6"
       y1="273"
       y2="231"
       x2="0"
       gradientUnits="userSpaceOnUse"
       id="linearGradient205" />
    <linearGradient
       gradientTransform="translate(11.38843 1.3713)"
       xlink:href="#6"
       y1="140"
       y2="124"
       gradientUnits="userSpaceOnUse"
       x2="0"
       id="linearGradient207" />
    <linearGradient
       xlink:href="#6"
       y1="107"
       y2="85"
       x2="0"
       gradientUnits="userSpaceOnUse"
       id="linearGradient209" />
    <linearGradient
       gradientTransform="matrix(.175 0 0 .175 302.79999 215.99997)"
       id="3"
       xlink:href="#4"
       y1="280"
       y2="40"
       x2="0"
       gradientUnits="userSpaceOnUse" />
    <linearGradient
       id="4">
      <stop
         stop-color="#f0f0f0"
         id="stop213" />
      <stop
         offset="1"
         stop-color="#f8f8f8"
         id="stop215" />
    </linearGradient>
    <linearGradient
       gradientTransform="matrix(5.71429 0 0 5.71429 -1730.2857 -1284)"
       xlink:href="#6"
       y1="273"
       y2="231"
       gradientUnits="userSpaceOnUse"
       x2="0"
       id="linearGradient217" />
    <linearGradient
       id="5">
      <stop
         stop-color="#eaba31"
         id="stop220" />
      <stop
         offset="1"
         stop-color="#ff9200"
         id="stop222" />
    </linearGradient>
    <linearGradient
       id="6">
      <stop
         stop-color="#818181"
         id="stop225" />
      <stop
         offset="1"
         stop-color="#c5c5c5"
         id="stop227" />
    </linearGradient>
    <linearGradient
       gradientTransform="matrix(.175 0 0 .175 302.79999 215.99997)"
       xlink:href="#4"
       id="7"
       y1="280"
       y2="40"
       gradientUnits="userSpaceOnUse"
       x2="0" />
    <linearGradient
       gradientTransform="matrix(5.71429 0 0 5.71429 -1730.2857 -1284)"
       xlink:href="#6"
       y1="273"
       y2="231"
       x2="0"
       gradientUnits="userSpaceOnUse"
       id="linearGradient230" />
    <linearGradient
       id="8">
      <stop
         stop-color="#336799"
         id="stop233" />
      <stop
         offset="1"
         stop-color="#4d8bc7"
         id="stop235" />
    </linearGradient>
    <linearGradient
       xlink:href="#6"
       y1="107"
       y2="85"
       x2="0"
       gradientUnits="userSpaceOnUse"
       id="linearGradient237" />
    <linearGradient
       gradientTransform="matrix(5.71429 0 0 5.71429 -1730.2857 -1284)"
       xlink:href="#6"
       y1="273"
       y2="231"
       gradientUnits="userSpaceOnUse"
       x2="0"
       id="linearGradient239" />
    <linearGradient
       gradientTransform="matrix(.25 0 0 .25 299.99999 131.99999)"
       id="9"
       xlink:href="#4"
       y1="230"
       y2="90"
       x2="0"
       gradientUnits="userSpaceOnUse" />
    <linearGradient
       xlink:href="#6"
       y1="140"
       y2="124"
       x2="0"
       gradientUnits="userSpaceOnUse"
       id="linearGradient242" />
    <linearGradient
       gradientTransform="translate(11.38843 1.3713)"
       xlink:href="#6"
       y1="140"
       y2="124"
       gradientUnits="userSpaceOnUse"
       x2="0"
       id="linearGradient244" />
    <linearGradient
       gradientTransform="matrix(.25 0 0 .25 299.99999 131.99999)"
       xlink:href="#4"
       id="A"
       y1="230"
       y2="90"
       gradientUnits="userSpaceOnUse"
       x2="0" />
    <linearGradient
       gradientTransform="matrix(.375 0 0 .375 298 16)"
       id="B"
       xlink:href="#4"
       y1="230"
       y2="90"
       x2="0"
       gradientUnits="userSpaceOnUse" />
    <linearGradient
       gradientTransform="matrix(.375 0 0 .375 298 16)"
       xlink:href="#4"
       id="C"
       y1="230"
       y2="90"
       gradientUnits="userSpaceOnUse"
       x2="0" />
    <linearGradient
       gradientTransform="translate(0 4.09376)"
       xlink:href="#6"
       y1="273"
       y2="231"
       gradientUnits="userSpaceOnUse"
       x2="0"
       id="linearGradient249" />
    <linearGradient
       gradientTransform="translate(0 4.09376)"
       xlink:href="#6"
       y1="273"
       y2="231"
       gradientUnits="userSpaceOnUse"
       x2="0"
       id="linearGradient251" />
    <radialGradient
       cx="328"
       cy="255.42"
       gradientTransform="matrix(1.22449 0 0 1.22449 49.7555 -179.34296)"
       r="7"
       xlink:href="#5"
       gradientUnits="userSpaceOnUse"
       id="radialGradient253" />
    <radialGradient
       cx="328"
       cy="255.42"
       gradientTransform="matrix(1.22449 0 0 1.22449 49.7555 -179.34296)"
       r="7"
       xlink:href="#5"
       gradientUnits="userSpaceOnUse"
       id="radialGradient255" />
    <radialGradient
       cx="328"
       cy="255.42"
       gradientTransform="matrix(2.85714 0 0 2.85714 -609.14349 -473.66662)"
       r="7"
       xlink:href="#5"
       gradientUnits="userSpaceOnUse"
       id="radialGradient257" />
    <radialGradient
       cx="328"
       cy="255.42"
       gradientTransform="matrix(2.85714 0 0 2.85714 -609.14349 -473.66662)"
       r="7"
       xlink:href="#5"
       gradientUnits="userSpaceOnUse"
       id="radialGradient259" />
    <radialGradient
       cx="328"
       cy="255.42"
       gradientTransform="matrix(1.22449 0 0 1.22449 49.7555 -179.34296)"
       r="7"
       xlink:href="#5"
       gradientUnits="userSpaceOnUse"
       id="radialGradient261" />
    <radialGradient
       cx="328"
       cy="255.42"
       gradientTransform="matrix(2.85714 0 0 2.85714 -609.14349 -473.66662)"
       r="7"
       xlink:href="#5"
       gradientUnits="userSpaceOnUse"
       id="radialGradient263" />
    <linearGradient
       gradientTransform="matrix(0.28222223,0,0,0.28222223,0,-283.45334)"
       xlink:href="#8"
       id="D"
       y1="1050.36"
       x2="0"
       y2="1006.36"
       gradientUnits="userSpaceOnUse" />
    <radialGradient
       cx="148.004"
       cy="160"
       gradientTransform="matrix(0.1831,0,0,0.1831,-3.10029,-5.29688)"
       id="radial0"
       r="128"
       gradientUnits="userSpaceOnUse">
      <stop
         offset="0"
         style="stop-color:#c9aafb"
         id="stop7" />
      <stop
         offset="1"
         style="stop-color:#4c0ba4"
         id="stop9" />
    </radialGradient>
    <radialGradient
       r="128"
       cy="160"
       cx="148.004"
       gradientTransform="matrix(0.05167489,0,0,0.05167489,-0.87511191,-1.4947562)"
       gradientUnits="userSpaceOnUse"
       id="radialGradient3015"
       xlink:href="#radial0"
       inkscape:collect="always" />
  </defs>
  <path
     inkscape:connector-curvature="0"
     style="fill:url(#radialGradient3015)"
     d="m 13.387776,3.2589259 0,7.0290971 c 0,2.892778 0,3.100035 -3.100035,3.100035 l -7.0279949,0 c -3.10113721,0 -3.10113721,-0.207257 -3.10113721,-3.100035 l 0,-7.0290971 c 0,-2.89277793 0,-3.10003483 3.10113721,-3.10003483 l 7.0279949,0 c 3.100035,0 3.100035,0.2072569 3.100035,3.10003483 z"
     id="path11" />
  <path
     id="path15"
     d="m 10.799269,13.388058 c 0.717682,-0.0033 1.235825,-0.02315 1.611753,-0.124574 l -1.193932,-2.046112 -1.2655901,2.170686 0.3362411,0 c 0.180799,0 0.350573,0 0.511528,0 z M 11.21709,11.217372 9.7707012,8.7369034 8.32321,11.217372 z m 0,0 2.159662,0 c 0.0088,-0.274505 0.01102,-0.582083 0.01102,-0.930451 l 0,-0.3097833 -0.723194,-1.2402343 z M 12.664581,8.7369034 11.21709,6.2564347 9.7707012,8.7369034 z m 0,0 0.723195,0 0,-1.2402343 z m -2.8938798,0 L 8.32321,6.2564347 6.876821,8.7369034 z m -2.8938802,0 -1.4474915,2.4804686 2.8938805,0 z m 0,0 -1.4474915,-2.4804687 -1.446389,2.4804687 z m -2.8938805,0 -1.4474913,2.4804686 2.8938803,0 z m 0,0 L 2.5354492,6.2564347 1.0890603,8.7369034 z m -2.8938802,0 -0.9304514,1.5941146 c 0,0.329627 0.003307,0.623976 0.0110242,0.886354 l 2.36581614,0 z m 0,0 -0.9304514,-1.5941145 0,1.5941145 z m 1.4463889,2.4804686 -1.2170833,2.086901 c 0.450894,0.08268 1.0748699,0.08378 1.9413802,0.08378 l 0.5423958,0 z m 0,-4.9609373 -1.4463889,-2.4804689 -0.9304514,1.5941147 0,0.8863542 z m 0,0 2.8938803,0 -1.446389,-2.4804689 z M 3.9829405,3.7759658 2.5354492,1.2954971 1.0890603,3.7759658 z m 0,0 2.8938805,0 -1.4474915,-2.4804687 z m 1.446389,-2.4804687 -0.6636631,-1.13660602 -1.5070227,0 c -0.020946,0 -0.038585,0 -0.059531,0 L 2.5354492,1.2954971 z m 0,0 2.8938805,0 -0.6636634,-1.13660602 -1.5665538,0 z m 2.8938805,0 2.89388,0 -0.663663,-1.13660602 c -0.08819,0 -0.171979,0 -0.266788,0 l -1.299766,0 z m 0,0 -1.446389,2.4804687 2.8938802,0 z m 1.4474912,2.4804687 2.8938798,0 -1.447491,-2.4804687 z m 0,0 -1.4474912,2.4804689 2.89388,0 z m 1.4463888,2.4804689 2.170686,0 0,-1.2402343 -0.723195,-1.2402346 z m 1.447491,-2.4804689 0.723195,0 0,-0.5170399 c 0,-0.2579689 -0.0022,-0.4938889 -0.0066,-0.71217 z M 8.32321,6.2564347 6.876821,3.7759658 5.4293295,6.2564347 z m 2.89388,-4.9609376 2.062648,0 C 13.123193,0.51718095 12.747264,0.27133914 11.859807,0.19416885 z m -8.6816408,0 L 1.8850153,0.17983733 C 0.85203767,0.23826608 0.4342164,0.46095692 0.26664695,1.2954971 z M 1.0890603,3.7759658 0.17514543,2.2083096 C 0.16301862,2.5114781 0.1586089,2.8598459 0.1586089,3.2589259 l 0,0.5170399 z m 4.3402692,7.4414062 -1.2655904,2.170686 2.532283,0 z m 2.8938805,0 -1.2655906,2.170686 2.5322832,0 z m -7.5913372,1.86862 -0.4519964,-0.775009 c 0.0826821,0.37152 0.22158848,0.615157 0.4519964,0.775009 z"
     style="fill:#ffffff;fill-opacity:0.05100002"
     inkscape:connector-curvature="0" />
  <path
     d="M 14 11 L 14 12 C 16 12 17 11.999998 17 15 L 17 33 C 17 36 16 36 14 36 L 14 37 L 25 37 L 25 36 C 23 36 21 36.000003 21 33 L 21 26 C 24.023569 25.832528 28.064786 25.698119 31 23.59375 C 31.93929 22.909714 32.66293 22.069556 33.1875 21.03125 C 33.724227 19.980761 33.999978 18.762153 34 17.40625 C 33.999978 15.464057 33.231384 13.910466 31.71875 12.75 C 30.218276 11.577368 28.259102 11.000026 25.84375 11 L 14 11 z M 21 13 L 25.40625 13 C 25.460179 12.997592 25.508097 13 25.5625 13 C 28.012196 13 30 15.462434 30 18.5 C 30 21.537566 28.012196 24 25.5625 24 C 25.508097 24 25.460179 24.002408 25.40625 24 L 21 24 L 21 13 z "
     transform="scale(0.28222223,0.28222223)"
     fill="#f9f9f9"
     id="path282" />
</svg>
