<?xml version="1.0" encoding="UTF-8" standalone="no"?>
<svg
   xmlns:dc="http://purl.org/dc/elements/1.1/"
   xmlns:cc="http://creativecommons.org/ns#"
   xmlns:rdf="http://www.w3.org/1999/02/22-rdf-syntax-ns#"
   xmlns:svg="http://www.w3.org/2000/svg"
   xmlns="http://www.w3.org/2000/svg"
   xmlns:xlink="http://www.w3.org/1999/xlink"
   xmlns:sodipodi="http://sodipodi.sourceforge.net/DTD/sodipodi-0.dtd"
   xmlns:inkscape="http://www.inkscape.org/namespaces/inkscape"
   width="48"
   viewBox="0 0 13.546667 13.546667"
   height="48"
   id="svg2"
   version="1.1"
   inkscape:version="0.48.4 r9939"
   sodipodi:docname="usb-creator-gtk.svg">
  <metadata
     id="metadata32">
    <rdf:RDF>
      <cc:Work
         rdf:about="">
        <dc:format>image/svg+xml</dc:format>
        <dc:type
           rdf:resource="http://purl.org/dc/dcmitype/StillImage" />
      </cc:Work>
    </rdf:RDF>
  </metadata>
  <sodipodi:namedview
     pagecolor="#ffffff"
     bordercolor="#666666"
     borderopacity="1"
     objecttolerance="10"
     gridtolerance="10"
     guidetolerance="10"
     inkscape:pageopacity="0"
     inkscape:pageshadow="2"
     inkscape:window-width="672"
     inkscape:window-height="480"
     id="namedview30"
     showgrid="false"
     inkscape:zoom="2.4583333"
     inkscape:cx="26.115003"
     inkscape:cy="15.463128"
     inkscape:window-x="292"
     inkscape:window-y="309"
     inkscape:window-maximized="0"
     inkscape:current-layer="svg2" />
  <defs
     id="defs4">
    <linearGradient
       id="0">
      <stop
         stop-color="#772953"
         id="stop7" />
      <stop
         offset="1"
         stop-color="#8f5b77"
         id="stop9" />
    </linearGradient>
    <linearGradient
       gradientTransform="matrix(0.28222223,0,0,0.28222223,0,-283.45334)"
       xlink:href="#0"
       id="1"
       y1="1050.36"
       x2="0"
       y2="1006.36"
       gradientUnits="userSpaceOnUse" />
    <radialGradient
       cx="148.004"
       cy="160"
       gradientTransform="matrix(0.1831,0,0,0.1831,-3.10029,-5.29688)"
       id="radial0"
       r="128"
       gradientUnits="userSpaceOnUse">
      <stop
         offset="0"
         style="stop-color:#ffd6b4"
         id="stop7-4" />
      <stop
         offset="1"
         style="stop-color:#ce5b00"
         id="stop9-4" />
    </radialGradient>
    <radialGradient
       r="128"
       cy="160"
       cx="148.004"
       gradientTransform="matrix(0.05167489,0,0,0.05167489,-0.87511191,-1.4947562)"
       gradientUnits="userSpaceOnUse"
       id="radialGradient3021"
       xlink:href="#radial0"
       inkscape:collect="always" />
  </defs>
  <path
     inkscape:connector-curvature="0"
     style="fill:url(#radialGradient3021)"
     d="m 13.387775,3.2589259 0,7.0290971 c 0,2.892778 0,3.100035 -3.100035,3.100035 l -7.0279935,0 c -3.10113761,0 -3.10113761,-0.207257 -3.10113761,-3.100035 l 0,-7.0290971 c 0,-2.89277793 0,-3.10003483 3.10113761,-3.10003483 l 7.0279935,0 c 3.100035,0 3.100035,0.2072569 3.100035,3.10003483 z"
     id="path11" />
  <path
     id="path15"
     d="m 10.799269,13.388058 c 0.717682,-0.0033 1.235825,-0.02315 1.611753,-0.124574 l -1.193932,-2.046112 -1.2655901,2.170686 0.3362411,0 c 0.180799,0 0.350573,0 0.511528,0 z M 11.21709,11.217372 9.7707012,8.7369034 8.32321,11.217372 z m 0,0 2.159662,0 c 0.0088,-0.274505 0.01102,-0.582083 0.01102,-0.930451 l 0,-0.3097833 -0.723194,-1.2402343 z M 12.664581,8.7369034 11.21709,6.2564347 9.7707012,8.7369034 z m 0,0 0.723195,0 0,-1.2402343 z m -2.8938798,0 L 8.32321,6.2564347 6.876821,8.7369034 z m -2.8938802,0 -1.4474915,2.4804686 2.8938805,0 z m 0,0 -1.4474915,-2.4804687 -1.446389,2.4804687 z m -2.8938805,0 -1.4474913,2.4804686 2.8938803,0 z m 0,0 L 2.5354492,6.2564347 1.0890603,8.7369034 z m -2.8938802,0 -0.9304514,1.5941146 c 0,0.329627 0.003307,0.623976 0.0110242,0.886354 l 2.36581614,0 z m 0,0 -0.9304514,-1.5941145 0,1.5941145 z m 1.4463889,2.4804686 -1.2170833,2.086901 c 0.450894,0.08268 1.0748699,0.08378 1.9413802,0.08378 l 0.5423958,0 z m 0,-4.9609373 -1.4463889,-2.4804689 -0.9304514,1.5941147 0,0.8863542 z m 0,0 2.8938803,0 -1.446389,-2.4804689 z M 3.9829405,3.7759658 2.5354492,1.2954971 1.0890603,3.7759658 z m 0,0 2.8938805,0 -1.4474915,-2.4804687 z m 1.446389,-2.4804687 -0.6636631,-1.13660602 -1.5070227,0 c -0.020946,0 -0.038585,0 -0.059531,0 L 2.5354492,1.2954971 z m 0,0 2.8938805,0 -0.6636634,-1.13660602 -1.5665538,0 z m 2.8938805,0 2.89388,0 -0.663663,-1.13660602 c -0.08819,0 -0.171979,0 -0.266788,0 l -1.299766,0 z m 0,0 -1.446389,2.4804687 2.8938802,0 z m 1.4474912,2.4804687 2.8938798,0 -1.447491,-2.4804687 z m 0,0 -1.4474912,2.4804689 2.89388,0 z m 1.4463888,2.4804689 2.170686,0 0,-1.2402343 -0.723195,-1.2402346 z m 1.447491,-2.4804689 0.723195,0 0,-0.5170399 c 0,-0.2579689 -0.0022,-0.4938889 -0.0066,-0.71217 z M 8.32321,6.2564347 6.876821,3.7759658 5.4293295,6.2564347 z m 2.89388,-4.9609376 2.062648,0 C 13.123193,0.51718095 12.747264,0.27133914 11.859807,0.19416885 z m -8.6816408,0 L 1.8850153,0.17983733 C 0.85203767,0.23826608 0.4342164,0.46095692 0.26664695,1.2954971 z M 1.0890603,3.7759658 0.17514543,2.2083096 C 0.16301862,2.5114781 0.1586089,2.8598459 0.1586089,3.2589259 l 0,0.5170399 z m 4.3402692,7.4414062 -1.2655904,2.170686 2.532283,0 z m 2.8938805,0 -1.2655906,2.170686 2.5322832,0 z m -7.5913372,1.86862 -0.4519964,-0.775009 c 0.0826821,0.37152 0.22158848,0.615157 0.4519964,0.775009 z"
     style="fill:#ffffff;fill-opacity:0.05100002"
     inkscape:connector-curvature="0" />
  <path
     d="m 6.773334,3.1044454 c -0.411725,0 -0.782768,0.3179256 -0.782768,0.7101076 0,0.309251 0.2109,0.6035706 0.500545,0.7010036 l 0,1.1288889 L 5.2963257,6.624656 C 5.2334787,6.668826 5.17817,6.7425801 5.178778,6.8169761 l 0,0.5208027 -0.3810001,0 0,1.128889 1.1288891,0 0,-1.128889 -0.2822224,0 0,-0.3987529 0.8466664,-0.730136 1e-6,2.8222226 -0.564445,0 L 6.773334,10.442222 7.62,9.0311125 l -0.564444,0 0,-3.5300545 0.846666,0.7078319 0,0.5015702 C 7.683604,6.8021001 7.506401,7.008327 7.506401,7.250437 c 0,0.3268181 0.278141,0.5917571 0.621244,0.5917571 0.343103,0 0.621244,-0.264939 0.621244,-0.5917571 0,-0.24211 -0.154128,-0.4483411 -0.372746,-0.5399769 l 0,-0.643535 C 8.377131,5.9967951 8.343383,5.9269279 8.286843,5.882001 L 7.05556,4.883412 l 0,-0.3678554 C 7.345205,4.4181266 7.481556,4.123804 7.481556,3.814552 c 0,-0.392181 -0.296493,-0.7101066 -0.708218,-0.7101066 z"
     fill="#ff7848"
     color="#bebebe"
     id="path28"
     style="fill:#f9f9f9;fill-opacity:1" />
</svg>
