<?xml version="1.0" encoding="UTF-8" standalone="no"?>
<svg
   xmlns:dc="http://purl.org/dc/elements/1.1/"
   xmlns:cc="http://creativecommons.org/ns#"
   xmlns:rdf="http://www.w3.org/1999/02/22-rdf-syntax-ns#"
   xmlns:svg="http://www.w3.org/2000/svg"
   xmlns="http://www.w3.org/2000/svg"
   xmlns:xlink="http://www.w3.org/1999/xlink"
   xmlns:sodipodi="http://sodipodi.sourceforge.net/DTD/sodipodi-0.dtd"
   xmlns:inkscape="http://www.inkscape.org/namespaces/inkscape"
   width="48"
   viewBox="0 0 13.546667 13.546667"
   height="48"
   id="svg2"
   version="1.1"
   inkscape:version="0.48.4 r9939"
   sodipodi:docname="uzbl.svg">
  <metadata
     id="metadata22">
    <rdf:RDF>
      <cc:Work
         rdf:about="">
        <dc:format>image/svg+xml</dc:format>
        <dc:type
           rdf:resource="http://purl.org/dc/dcmitype/StillImage" />
        <dc:title />
      </cc:Work>
    </rdf:RDF>
  </metadata>
  <sodipodi:namedview
     pagecolor="#ffffff"
     bordercolor="#666666"
     borderopacity="1"
     objecttolerance="10"
     gridtolerance="10"
     guidetolerance="10"
     inkscape:pageopacity="0"
     inkscape:pageshadow="2"
     inkscape:window-width="1280"
     inkscape:window-height="998"
     id="namedview20"
     showgrid="false"
     inkscape:zoom="10.635"
     inkscape:cx="3.6118751"
     inkscape:cy="23.298553"
     inkscape:window-x="0"
     inkscape:window-y="0"
     inkscape:window-maximized="1"
     inkscape:current-layer="svg2" />
  <defs
     id="defs4">
    <linearGradient
       id="linearGradient4460">
      <stop
         offset="0"
         style="stop-color:#497d93;stop-opacity:1;"
         id="stop7" />
      <stop
         offset="1"
         style="stop-color:#659bb2;stop-opacity:1;"
         id="stop9" />
    </linearGradient>
    <linearGradient
       gradientTransform="matrix(1.10525,0,0,1.10525,-134.25208,-295.76214)"
       xlink:href="#linearGradient4460"
       id="linearGradient3001"
       y1="279.096"
       y2="268.33"
       gradientUnits="userSpaceOnUse"
       x2="0" />
    <linearGradient
       gradientTransform="matrix(1,0,0,1.0071961,-515.1306,148.05272)"
       gradientUnits="userSpaceOnUse"
       y2="860.73596"
       x2="600.31989"
       y1="816.85565"
       x1="600.78668"
       id="linearGradient3960"
       xlink:href="#linearGradient3954"
       inkscape:collect="always" />
    <linearGradient
       y2="294.45609"
       x2="567.39661"
       y1="294.6409"
       x1="561.41663"
       gradientUnits="userSpaceOnUse"
       id="linearGradient3948"
       xlink:href="#linearGradient3938"
       inkscape:collect="always" />
    <linearGradient
       gradientUnits="userSpaceOnUse"
       y2="294.45609"
       x2="567.39661"
       y1="294.29562"
       x1="553.29352"
       id="linearGradient3944"
       xlink:href="#linearGradient3938"
       inkscape:collect="always" />
    <linearGradient
       gradientTransform="translate(-515.1306,706.26118)"
       gradientUnits="userSpaceOnUse"
       y2="278.78656"
       x2="595.68457"
       y1="278.35919"
       x1="572.69635"
       id="linearGradient3936"
       xlink:href="#linearGradient3930"
       inkscape:collect="always" />
    <linearGradient
       gradientTransform="translate(-515.1306,706.26118)"
       gradientUnits="userSpaceOnUse"
       y2="240.34744"
       x2="643.4986"
       y1="170.52426"
       x1="543.6098"
       id="linearGradient3901"
       xlink:href="#linearGradient3895"
       inkscape:collect="always" />
    <linearGradient
       gradientUnits="userSpaceOnUse"
       y2="231.37903"
       x2="584.85675"
       y1="231.37903"
       x1="527.61395"
       id="linearGradient3889"
       xlink:href="#linearGradient3865"
       inkscape:collect="always" />
    <linearGradient
       y2="184.51433"
       x2="564.44659"
       y1="184.0192"
       x1="575.46606"
       gradientTransform="matrix(-1,0,0,1,689.113,706.26118)"
       gradientUnits="userSpaceOnUse"
       id="linearGradient3849"
       xlink:href="#linearGradient3837"
       inkscape:collect="always" />
    <linearGradient
       gradientTransform="translate(-515.1306,706.26118)"
       gradientUnits="userSpaceOnUse"
       y2="193.75673"
       x2="563.12628"
       y1="178.90286"
       x1="547.24371"
       id="linearGradient3843"
       xlink:href="#linearGradient3837"
       inkscape:collect="always" />
    <linearGradient
       y2="208.17188"
       x2="577.78125"
       y1="208.17188"
       x1="563.79944"
       gradientUnits="userSpaceOnUse"
       id="linearGradient3833"
       xlink:href="#linearGradient3809"
       inkscape:collect="always" />
    <linearGradient
       gradientUnits="userSpaceOnUse"
       y2="208.17188"
       x2="577.78125"
       y1="208.17188"
       x1="563.79944"
       id="linearGradient3815"
       xlink:href="#linearGradient3809"
       inkscape:collect="always" />
    <linearGradient
       id="linearGradient3809"
       inkscape:collect="always">
      <stop
         id="stop3811"
         offset="0"
         style="stop-color:#c6d4e3;stop-opacity:1;" />
      <stop
         id="stop3813"
         offset="1"
         style="stop-color:#c6d4e3;stop-opacity:0;" />
    </linearGradient>
    <linearGradient
       id="linearGradient3837">
      <stop
         id="stop3839"
         offset="0"
         style="stop-color:#935f0d;stop-opacity:1;" />
      <stop
         id="stop3841"
         offset="1"
         style="stop-color:#b27310;stop-opacity:1;" />
    </linearGradient>
    <linearGradient
       id="linearGradient3865">
      <stop
         id="stop3867"
         offset="0"
         style="stop-color:#eacf96;stop-opacity:1;" />
      <stop
         style="stop-color:#ecd797;stop-opacity:1;"
         offset="0.5"
         id="stop3873" />
      <stop
         id="stop3869"
         offset="1"
         style="stop-color:#eacf96;stop-opacity:1;" />
    </linearGradient>
    <linearGradient
       id="linearGradient3895">
      <stop
         id="stop3897"
         offset="0"
         style="stop-color:#e9b96e;stop-opacity:1;" />
      <stop
         style="stop-color:#e4b56c;stop-opacity:1;"
         offset="0.5726977"
         id="stop3903" />
      <stop
         id="stop3899"
         offset="1"
         style="stop-color:#caa05f;stop-opacity:1;" />
    </linearGradient>
    <linearGradient
       id="linearGradient3930">
      <stop
         id="stop3932"
         offset="0"
         style="stop-color:#d7ab65;stop-opacity:1;" />
      <stop
         id="stop3934"
         offset="1"
         style="stop-color:#d5a964;stop-opacity:1;" />
    </linearGradient>
    <linearGradient
       id="linearGradient3938">
      <stop
         id="stop3940"
         offset="0"
         style="stop-color:#eddc98;stop-opacity:1;" />
      <stop
         id="stop3942"
         offset="1"
         style="stop-color:#e7c394;stop-opacity:1;" />
    </linearGradient>
    <linearGradient
       id="linearGradient3954">
      <stop
         id="stop3956"
         offset="0"
         style="stop-color:#e4b66c;stop-opacity:1;" />
      <stop
         id="stop3958"
         offset="1"
         style="stop-color:#ead192;stop-opacity:1;" />
    </linearGradient>
    <linearGradient
       inkscape:collect="always"
       xlink:href="#linearGradient3930"
       id="linearGradient3133"
       gradientUnits="userSpaceOnUse"
       gradientTransform="matrix(0.28222223,0,0,0.28222223,-138.34541,-72.937285)"
       x1="572.69635"
       y1="278.35919"
       x2="595.68457"
       y2="278.78656" />
    <linearGradient
       inkscape:collect="always"
       xlink:href="#linearGradient3837"
       id="linearGradient3145"
       gradientUnits="userSpaceOnUse"
       gradientTransform="matrix(-0.06263208,0,0,0.06451401,44.551845,-6.9382624)"
       x1="575.46606"
       y1="184.0192"
       x2="564.44659"
       y2="184.51433" />
    <linearGradient
       inkscape:collect="always"
       xlink:href="#linearGradient3837"
       id="linearGradient3148"
       gradientUnits="userSpaceOnUse"
       gradientTransform="matrix(0.06263208,0,0,0.06451401,-30.872435,-6.9382624)"
       x1="547.24371"
       y1="178.90286"
       x2="563.12628"
       y2="193.75673" />
    <linearGradient
       inkscape:collect="always"
       xlink:href="#linearGradient3954"
       id="linearGradient3166"
       gradientUnits="userSpaceOnUse"
       gradientTransform="matrix(0.28222223,0,0,0.28425313,-138.34541,-230.47612)"
       x1="600.78668"
       y1="816.85565"
       x2="600.31989"
       y2="860.73596" />
    <linearGradient
       inkscape:collect="always"
       xlink:href="#linearGradient3865"
       id="linearGradient3169"
       gradientUnits="userSpaceOnUse"
       x1="527.61395"
       y1="231.37903"
       x2="584.85675"
       y2="231.37903" />
    <linearGradient
       inkscape:collect="always"
       xlink:href="#linearGradient3809"
       id="linearGradient3171"
       gradientUnits="userSpaceOnUse"
       x1="563.79944"
       y1="208.17188"
       x2="577.78125"
       y2="208.17188" />
    <linearGradient
       inkscape:collect="always"
       xlink:href="#linearGradient3809"
       id="linearGradient3173"
       gradientUnits="userSpaceOnUse"
       x1="563.79944"
       y1="208.17188"
       x2="577.78125"
       y2="208.17188" />
    <linearGradient
       inkscape:collect="always"
       xlink:href="#linearGradient4460"
       id="linearGradient3176"
       gradientUnits="userSpaceOnUse"
       gradientTransform="matrix(1.10525,0,0,1.10525,-134.25208,-295.76214)"
       y1="279.096"
       x2="0"
       y2="268.33" />
    <linearGradient
       gradientTransform="translate(-78.066775,-887.05181)"
       xlink:href="#0"
       id="B"
       y1="1050.36"
       x2="0"
       y2="1006.36"
       gradientUnits="userSpaceOnUse" />
    <linearGradient
       id="0">
      <stop
         stop-color="#c34141"
         id="stop7-7" />
      <stop
         offset="1"
         stop-color="#d76464"
         id="stop9-7" />
    </linearGradient>
    <linearGradient
       inkscape:collect="always"
       xlink:href="#linearGradient4460"
       id="linearGradient3083"
       gradientUnits="userSpaceOnUse"
       gradientTransform="matrix(0.28222223,0,0,0.28222223,6.7059175e-7,-283.45335)"
       y1="1050.36"
       x2="0"
       y2="1006.36" />
    <radialGradient
       cx="148.004"
       cy="160"
       gradientTransform="matrix(0.1831,0,0,0.1831,-3.10029,-5.29688)"
       id="radial0"
       r="128"
       gradientUnits="userSpaceOnUse">
      <stop
         offset="0"
         style="stop-color:#ede08f"
         id="stop7-5" />
      <stop
         offset="1"
         style="stop-color:#8f7f22"
         id="stop9-6" />
    </radialGradient>
    <radialGradient
       r="128"
       cy="160"
       cx="148.004"
       gradientTransform="matrix(0.05167489,0,0,0.05167489,-0.87510811,-1.4947611)"
       gradientUnits="userSpaceOnUse"
       id="radialGradient3029"
       xlink:href="#radial0"
       inkscape:collect="always" />
  </defs>
  <path
     inkscape:connector-curvature="0"
     style="fill:url(#radialGradient3029)"
     d="m 13.38778,3.258921 0,7.029097 c 0,2.892778 0,3.100035 -3.100035,3.100035 l -7.0279951,0 c -3.10113701,0 -3.10113701,-0.207257 -3.10113701,-3.100035 l 0,-7.029097 c 0,-2.89277789 0,-3.10003479 3.10113701,-3.10003479 l 7.0279951,0 c 3.100035,0 3.100035,0.2072569 3.100035,3.10003479 z"
     id="path11" />
  <path
     inkscape:connector-curvature="0"
     style="fill:#ffffff;fill-opacity:0.05100002"
     d="m 10.799273,13.388053 c 0.717682,-0.0033 1.235825,-0.02315 1.611753,-0.124575 l -1.193932,-2.046111 -1.2655901,2.170686 0.3362411,0 c 0.180799,0 0.350573,0 0.511528,0 z M 11.217094,11.217367 9.7707049,8.7368985 8.3232139,11.217367 z m 0,0 2.159662,0 c 0.0088,-0.274505 0.01102,-0.582083 0.01102,-0.930451 l 0,-0.3097832 -0.723194,-1.2402343 z M 12.664586,8.7368985 11.217094,6.2564298 9.7707049,8.7368985 z m 0,0 0.723194,0 0,-1.2402343 z m -2.8938811,0 -1.447491,-2.4804687 -1.446389,2.4804687 z m -2.89388,0 -1.447492,2.4804685 2.893881,0 z m 0,0 -1.447492,-2.4804687 -1.446389,2.4804687 z m -2.893881,0 -1.447491,2.4804685 2.89388,0 z m 0,0 -1.447491,-2.4804687 -1.446389,2.4804687 z m -2.89388,0 -0.93045101,1.5941145 c 0,0.329627 0.0033,0.623976 0.01102,0.886354 l 2.36581601,0 z m 0,0 -0.93045101,-1.5941145 0,1.5941145 z m 1.446389,2.4804685 -1.217083,2.086901 c 0.450894,0.08268 1.07487,0.08379 1.94138,0.08379 l 0.542396,0 z m 0,-4.9609372 -1.446389,-2.4804689 -0.93045101,1.5941147 0,0.8863542 z m 0,0 2.89388,0 -1.446389,-2.4804689 z M 3.9829439,3.7759609 2.5354529,1.2954922 1.0890639,3.7759609 z m 0,0 2.893881,0 -1.447492,-2.4804687 z m 1.446389,-2.4804687 -0.663663,-1.13660599 -1.507022,0 c -0.02095,0 -0.03859,0 -0.05953,0 L 2.5354549,1.2954922 z m 0,0 2.893881,0 -0.663664,-1.13660599 -1.566553,0 z m 2.893881,0 2.8938801,0 -0.663663,-1.13660599 c -0.0882,0 -0.171979,0 -0.266788,0 l -1.2997661,0 z m 0,0 -1.446389,2.4804687 2.89388,0 z m 1.447491,2.4804687 2.8938811,0 -1.447492,-2.4804687 z m 0,0 -1.447491,2.4804689 2.8938801,0 z m 1.4463891,2.4804689 2.170686,0 0,-1.2402343 -0.723194,-1.2402346 z m 1.447492,-2.4804689 0.723194,0 0,-0.5170399 c 0,-0.2579689 -0.0022,-0.4938889 -0.0066,-0.71217 z M 8.3232139,6.2564298 6.8768249,3.7759609 5.4293329,6.2564298 z m 2.8938801,-4.9609376 2.062648,0 C 13.123197,0.51717601 12.747268,0.27133421 11.859811,0.19416401 z m -8.6816411,0 -0.650434,-1.11565979 C 0.85204189,0.23826141 0.43421989,0.46095201 0.26665089,1.2954922 z M 1.0890639,3.7759609 0.17514889,2.2083047 c -0.01213,0.3031685 -0.01654,0.6515363 -0.01654,1.0506163 l 0,0.5170399 z m 4.340269,7.4414061 -1.26559,2.170686 2.532283,0 z m 2.893881,0 -1.265591,2.170686 2.532283,0 z m -7.59133701,1.86862 -0.451997,-0.775009 c 0.08268,0.371519 0.221589,0.615157 0.451997,0.775009 z"
     id="path13" />
  <path
     style="fill:#f9f9f9;fill-opacity:1;stroke:none"
     d="M 4.2506525,7.6933454 C 3.5820305,7.1381599 3.1078555,5.7185705 3.1044445,3.9721945 c 1.610149,-0.130012 3.210064,0.6781699 3.203242,0.9065687 l 0.163744,0 0.133042,-0.5586996 0,0.4954508 0.685678,-0.8644032 -0.440062,0.8854865 0.07164,0.063249 0.194446,-0.2424549 0.05117,0.2740795 C 7.9928875,4.1162619 9.0845135,4.0178748 10.442225,3.972195 10.367175,5.2371753 10.425165,6.6813611 9.4495265,7.6406379 10.324327,9.1729035 9.0981221,9.9321748 8.1901491,10.100938 7.318577,10.189978 6.4470048,10.174078 5.5754327,10.081858 4.1998177,9.9335019 3.5565345,8.5638586 4.2506525,7.6933454 z"
     id="path3893"
     inkscape:connector-curvature="0"
     sodipodi:nodetypes="cccccccccccccccc" />
</svg>
