<?xml version="1.0" encoding="UTF-8" standalone="no"?>
<svg
   xmlns:dc="http://purl.org/dc/elements/1.1/"
   xmlns:cc="http://creativecommons.org/ns#"
   xmlns:rdf="http://www.w3.org/1999/02/22-rdf-syntax-ns#"
   xmlns:svg="http://www.w3.org/2000/svg"
   xmlns="http://www.w3.org/2000/svg"
   xmlns:xlink="http://www.w3.org/1999/xlink"
   xmlns:sodipodi="http://sodipodi.sourceforge.net/DTD/sodipodi-0.dtd"
   xmlns:inkscape="http://www.inkscape.org/namespaces/inkscape"
   width="48"
   viewBox="0 0 13.546667 13.546667"
   height="48"
   id="svg2"
   version="1.1"
   inkscape:version="0.48.4 r9939"
   sodipodi:docname="Vbox.svg">
  <metadata
     id="metadata36">
    <rdf:RDF>
      <cc:Work
         rdf:about="">
        <dc:format>image/svg+xml</dc:format>
        <dc:type
           rdf:resource="http://purl.org/dc/dcmitype/StillImage" />
      </cc:Work>
    </rdf:RDF>
  </metadata>
  <sodipodi:namedview
     pagecolor="#ffffff"
     bordercolor="#666666"
     borderopacity="1"
     objecttolerance="10"
     gridtolerance="10"
     guidetolerance="10"
     inkscape:pageopacity="0"
     inkscape:pageshadow="2"
     inkscape:window-width="640"
     inkscape:window-height="480"
     id="namedview34"
     showgrid="false"
     inkscape:zoom="4.9166667"
     inkscape:cx="24"
     inkscape:cy="24"
     inkscape:window-x="0"
     inkscape:window-y="0"
     inkscape:window-maximized="0"
     inkscape:current-layer="svg2" />
  <defs
     id="defs4">
    <linearGradient
       id="0">
      <stop
         stop-color="#04a0e2"
         id="stop7" />
      <stop
         offset="1"
         stop-color="#27bcfb"
         id="stop9" />
    </linearGradient>
    <linearGradient
       gradientTransform="matrix(0.28222223,0,0,0.28222223,0,-283.45334)"
       xlink:href="#0"
       id="1"
       y1="1050.36"
       x2="0"
       y2="1006.36"
       gradientUnits="userSpaceOnUse" />
    <radialGradient
       cx="148.004"
       cy="160"
       gradientTransform="matrix(0.1831,0,0,0.1831,-3.10029,-5.29688)"
       id="radial0"
       r="128"
       gradientUnits="userSpaceOnUse">
      <stop
         offset="0"
         style="stop-color:#a8e7f4"
         id="stop7-3" />
      <stop
         offset="1"
         style="stop-color:#148eb2"
         id="stop9-5" />
    </radialGradient>
    <radialGradient
       r="128"
       cy="160"
       cx="148.004"
       gradientTransform="matrix(0.05167489,0,0,0.05167489,-0.87510811,-1.4947607)"
       gradientUnits="userSpaceOnUse"
       id="radialGradient3015"
       xlink:href="#radial0"
       inkscape:collect="always" />
  </defs>
  <path
     inkscape:connector-curvature="0"
     style="fill:url(#radialGradient3015)"
     d="m 13.387779,3.2589214 0,7.0290966 c 0,2.892778 0,3.100035 -3.100035,3.100035 l -7.0279945,0 c -3.10113761,0 -3.10113761,-0.207257 -3.10113761,-3.100035 l 0,-7.0290966 c 0,-2.89277789 0,-3.10003479 3.10113761,-3.10003479 l 7.0279945,0 c 3.100035,0 3.100035,0.2072569 3.100035,3.10003479 z"
     id="path11" />
  <path
     inkscape:connector-curvature="0"
     style="fill:#ffffff;fill-opacity:0.05100002"
     d="m 10.799272,13.388053 c 0.717682,-0.0033 1.235825,-0.02315 1.611753,-0.124575 l -1.193932,-2.046111 -1.2655898,2.170686 0.3362408,0 c 0.180799,0 0.350573,0 0.511528,0 z M 11.217093,11.217367 9.7707046,8.7368991 8.3232133,11.217367 z m 0,0 2.159662,0 c 0.0088,-0.274505 0.01102,-0.582083 0.01102,-0.930451 l 0,-0.3097829 -0.723194,-1.240234 z M 12.664585,8.7368991 11.217093,6.2564302 9.7707046,8.7368991 z m 0,0 0.723194,0 0,-1.2402345 z m -2.8938804,0 L 8.3232133,6.2564302 6.8768244,8.7368991 z m -2.8938802,0 -1.4474916,2.4804679 2.8938805,0 z m 0,0 L 5.4293328,6.2564302 3.9829439,8.7368991 z m -2.8938805,0 -1.4474913,2.4804679 2.8938802,0 z m 0,0 L 2.5354526,6.2564302 1.0890637,8.7368991 z m -2.8938802,0 -0.93045181,1.5941139 c 0,0.329627 0.0033,0.623976 0.01103,0.886354 l 2.36581571,0 z m 0,0 -0.93045181,-1.5941147 0,1.5941147 z m 1.4463889,2.4804679 -1.2170833,2.086901 c 0.450894,0.08268 1.0748699,0.08379 1.9402778,0.08379 l 0.5434982,0 z m 0,-4.9609368 -1.4463889,-2.4804689 -0.93045181,1.5941147 0,0.8863542 z m 0,0 2.8938802,0 L 3.9829439,3.7759613 z M 3.9829439,3.7759613 2.5354526,1.2954926 1.0890637,3.7759613 z m 0,0 2.8938805,0 -1.4474916,-2.4804687 z m 1.4463889,-2.4804687 -0.663663,-1.13660599 -1.5070227,0 c -0.020946,0 -0.038585,0 -0.059531,0 L 2.5354527,1.2954926 z m 0,0 2.8938805,0 -0.6636633,-1.13660599 -1.5665538,0 z m 2.8938805,0 2.8938797,0 -0.663663,-1.13660599 c -0.0882,0 -0.171979,0 -0.266788,0 l -1.2997656,0 z m 0,0 -1.4463889,2.4804687 2.8938802,0 z m 1.4474913,2.4804687 2.8938804,0 -1.447492,-2.4804687 z m 0,0 -1.4474913,2.4804689 2.8938797,0 z m 1.4463884,2.4804689 2.170686,0 0,-1.2402343 -0.723194,-1.2402346 z m 1.447492,-2.4804689 0.723194,0 0,-0.5170399 c 0,-0.2579689 -0.0022,-0.4938889 -0.0066,-0.71217 z M 8.3232133,6.2564302 6.8768244,3.7759613 5.4293328,6.2564302 z m 2.8938797,-4.9609376 2.062648,0 C 13.123196,0.51717651 12.747267,0.27133471 11.85981,0.19416441 z m -8.6816404,0 L 1.8850187,0.17983281 C 0.85204109,0.23826181 0.43421989,0.46095241 0.26664989,1.2954926 z M 1.0890637,3.7759613 0.17514889,2.2083051 c -0.01213,0.3031685 -0.01654,0.6515363 -0.01654,1.0506163 l 0,0.5170399 z m 4.3402691,7.4414057 -1.2655903,2.170686 2.532283,0 z m 2.8938805,0 -1.2655906,2.170686 2.5322833,0 z m -7.59133741,1.86862 -0.451996,-0.775009 c 0.08268,0.371519 0.221588,0.615157 0.451996,0.775009 z"
     id="path13" />
  <path
     style="color:#000000;fill:#ffffff"
     inkscape:connector-curvature="0"
     id="path32"
     d="m 3.6688891,3.3866669 c -0.2822223,0 -0.2822223,0 -0.2822223,0.2822222 l 0,6.2088891 c 0,0.2783288 0,0.2822218 0.2822223,0.2822218 l 6.208889,0 C 10.16,10.16 10.16,10.16 10.16,9.8777782 l 0,-6.2088891 c 0,-0.2822222 0,-0.2822222 -0.2822219,-0.2822222 z m 0.2822222,0.5644444 2.8045834,-0.00882 C 6.3947085,5.3227802 6.0220371,6.7001878 5.6532641,8.0786114 c -0.5732638,-1.5875 -0.00882,-0.00834 -0.5732638,-1.5875 -0.2822222,0 -0.8466668,0 -1.1288889,0 z m 2.8575002,-0.00882 2.7869445,0.00882 0,2.2577779 -0.8466667,0 c -0.7224516,-2.1562815 0,0 -0.7231945,-2.2048612 C 7.8257347,4.7477869 7.6258629,5.4915697 7.4259725,6.2353475 7.2235794,5.47007 7.017659,4.7057699 6.8086114,3.9422919 z M 6.782153,5.6268058 C 6.9998116,6.422681 7.2139042,7.2194987 7.4259725,8.0168753 7.62499,7.2669852 7.8254976,6.5174924 8.0256948,5.7679169 c 0.4409723,1.0054167 -0.00911,-0.00538 0.4409723,1.0054167 0.461551,0 0.6673379,0 1.1288889,0 l 0,2.8222224 -3.8426226,0 C 6.0394573,8.259464 6.4290544,6.9466406 6.782153,5.6268058 z m -2.8310417,1.4287501 0.8466667,0 c 0.8466667,2.5400001 0,0 0.8466667,2.5400001 l -1.6933334,0 z" />
</svg>
