<svg xmlns="http://www.w3.org/2000/svg" viewBox="0 0 48 48"><defs><radialGradient id="0" cx="24" cy="24" r="23.437" gradientUnits="userSpaceOnUse"><stop stop-color="#eee"/><stop offset="1" stop-color="#cecece"/></radialGradient></defs><path d="m 47.44 11.547 l 0 24.906 c 0 10.25 0 10.984 -10.984 10.984 l -24.902 0 c -10.988 0 -10.988 -0.734 -10.988 -10.984 l 0 -24.906 c 0 -10.25 0 -10.984 10.988 -10.984 l 24.902 0 c 10.984 0 10.984 0.734 10.984 10.984" fill="url(#0)"/><path d="m 22.762 13.199 c 0 1.215 -0.977 2.199 -2.184 2.199 c -1.203 0 -2.18 -0.984 -2.18 -2.199 c 0 -1.215 0.973 -2.199 2.18 -2.199 c 1.207 0 2.184 0.984 2.184 2.199 m 0 0" fill="#fff"/><path d="m 26.371 19.309 c 0 1.012 -0.813 1.832 -1.816 1.832 c -1 0 -1.82 -0.82 -1.82 -1.832 c 0 -1.012 0.813 -1.832 1.82 -1.832 c 1 0 1.816 0.82 1.816 1.832 m 0 0" fill="#fff"/><path d="m 36 20.867 c 0 2.027 -1.625 3.668 -3.637 3.668 c -2.01 0 -3.637 -1.641 -3.637 -3.668 c 0 -2.023 1.625 -3.664 3.637 -3.664 c 2.01 0 3.637 1.641 3.637 3.664 m 0 0" fill="#fff"/><path d="m 25.09 26.734 c 0 3.645 -2.926 6.602 -6.547 6.602 c -3.613 0 -6.547 -2.957 -6.547 -6.602 c 0 -3.645 2.926 -6.598 6.547 -6.598 c 3.617 0 6.547 2.953 6.547 6.598 m 0 0" fill="#fff"/><path d="m 25.816 35.535 c 0 0.809 -0.648 1.465 -1.453 1.465 c -0.805 0 -1.453 -0.656 -1.453 -1.465 c 0 -0.813 0.648 -1.469 1.453 -1.469 c 0.805 0 1.453 0.656 1.453 1.469 m 0 0" fill="#fff"/><path d="m 19.703 14.234 l -1.023 7.309 l 0.727 0.094 l 1.023 -7.309 m -0.727 -0.094" fill="#fff"/><path d="m 23.418 19.836 l -1.047 2.84 l 0.723 0.246 l 1.047 -2.844 m -0.723 -0.242" fill="#fff"/><path d="m 29.941 21.621 l -6.363 5.277 l 0.484 0.57 l 6.363 -5.277 m -0.484 -0.57" fill="#fff"/><path d="m 22.934 29.25 l -0.645 0.164 l 1.289 5.113 l 0.645 -0.164 m -1.289 -5.113" fill="#fff"/><path d="m 38.27 47.44 c 2.543 -0.012 4.379 -0.082 5.711 -0.441 l -4.23 -7.25 -4.484 7.691 1.191 0 c 0.641 0 1.242 0 1.813 0 z m 1.48 -7.691 -5.125 -8.789 -5.129 8.789 z m 0 0 7.652 0 c 0.031 -0.973 0.039 -2.063 0.039 -3.297 l 0 -1.098 -2.563 -4.395 z m 5.129 -8.789 -5.129 -8.789 -5.125 8.789 z m 0 0 2.563 0 0 -4.395 z m -10.254 0 -5.129 -8.789 -5.125 8.789 z m -10.254 0 -5.129 8.789 10.254 0 z m 0 0 -5.129 -8.789 -5.125 8.789 z m -10.254 0 -5.129 8.789 10.254 0 z m 0 0 -5.129 -8.789 -5.125 8.789 z m -10.254 0 -3.297 5.648 c 0 1.168 0.012 2.211 0.039 3.141 l 8.383 0 z m 0 0 -3.297 -5.648 0 5.648 z m 5.125 8.789 -4.313 7.395 c 1.598 0.293 3.809 0.297 6.879 0.297 l 1.922 0 z m 0 -17.578 -5.125 -8.789 -3.297 5.648 0 3.141 z m 0 0 10.254 0 -5.125 -8.789 z m 5.129 -8.789 -5.129 -8.789 -5.125 8.789 z m 0 0 10.254 0 -5.129 -8.789 z m 5.125 -8.789 -2.352 -4.03 -5.336 0 c -0.078 0 -0.141 0 -0.215 0 l -2.352 4.03 z m 0 0 10.254 0 -2.352 -4.03 -5.551 0 z m 10.254 0 10.254 0 l -2.352 -4.03 c -0.313 0 -0.609 0 -0.941 0 l -4.609 0 z m 0 0 -5.125 8.789 10.254 0 z m 5.129 8.789 10.254 0 -5.129 -8.789 z m 0 0 -5.129 8.789 10.254 0 z m 5.125 8.789 7.691 0 0 -4.395 -2.563 -4.395 z m 5.129 -8.789 2.563 0 0 -1.832 c 0 -0.914 -0.008 -1.75 -0.023 -2.523 z m -15.383 8.789 -5.125 -8.789 -5.129 8.789 z m 10.254 -17.578 7.309 0 c -0.555 -2.758 -1.887 -3.629 -5.03 -3.902 z m -30.762 0 l -2.305 -3.953 c -3.66 0.207 -5.141 0.996 -5.734 3.953 z m -5.125 8.789 l -3.238 -5.555 c -0.043 1.074 -0.059 2.309 -0.059 3.723 l 0 1.832 z m 15.379 26.367 -4.484 7.691 8.973 0 z m 10.254 0 -4.484 7.691 8.973 0 z m -26.898 6.621 -1.602 -2.746 c 0.293 1.316 0.785 2.18 1.602 2.746 z" fill="#fff" fill-opacity="0.14"/></svg>