<?xml version="1.0" encoding="UTF-8" standalone="no"?>
<svg
   xmlns:dc="http://purl.org/dc/elements/1.1/"
   xmlns:cc="http://creativecommons.org/ns#"
   xmlns:rdf="http://www.w3.org/1999/02/22-rdf-syntax-ns#"
   xmlns:svg="http://www.w3.org/2000/svg"
   xmlns="http://www.w3.org/2000/svg"
   xmlns:xlink="http://www.w3.org/1999/xlink"
   xmlns:sodipodi="http://sodipodi.sourceforge.net/DTD/sodipodi-0.dtd"
   xmlns:inkscape="http://www.inkscape.org/namespaces/inkscape"
   width="48"
   viewBox="0 0 13.546667 13.546667"
   height="48"
   id="svg2"
   version="1.1"
   inkscape:version="0.48.4 r9939"
   sodipodi:docname="microscope.svg">
  <metadata
     id="metadata32">
    <rdf:RDF>
      <cc:Work
         rdf:about="">
        <dc:format>image/svg+xml</dc:format>
        <dc:type
           rdf:resource="http://purl.org/dc/dcmitype/StillImage" />
      </cc:Work>
    </rdf:RDF>
  </metadata>
  <sodipodi:namedview
     pagecolor="#ffffff"
     bordercolor="#666666"
     borderopacity="1"
     objecttolerance="10"
     gridtolerance="10"
     guidetolerance="10"
     inkscape:pageopacity="0"
     inkscape:pageshadow="2"
     inkscape:window-width="672"
     inkscape:window-height="480"
     id="namedview30"
     showgrid="false"
     inkscape:zoom="4.9166667"
     inkscape:cx="28.881356"
     inkscape:cy="28.474576"
     inkscape:window-x="0"
     inkscape:window-y="0"
     inkscape:window-maximized="0"
     inkscape:current-layer="svg2" />
  <defs
     id="defs4">
    <linearGradient
       id="0">
      <stop
         stop-color="#2992ca"
         id="stop7" />
      <stop
         offset="1"
         stop-color="#80c7e6"
         id="stop9" />
    </linearGradient>
    <linearGradient
       gradientTransform="matrix(0.28222223,0,0,0.28222223,0,-283.45334)"
       xlink:href="#0"
       id="1"
       y1="1050.36"
       x2="0"
       y2="1006.36"
       gradientUnits="userSpaceOnUse" />
    <radialGradient
       r="128"
       cy="160"
       cx="148.004"
       gradientTransform="matrix(0.05167489,0,0,0.05167489,-0.87510811,-1.4947562)"
       gradientUnits="userSpaceOnUse"
       id="radialGradient3014"
       xlink:href="#radial0"
       inkscape:collect="always" />
    <radialGradient
       cx="148.004"
       cy="160"
       gradientTransform="matrix(0.1831,0,0,0.1831,-3.10029,-5.29688)"
       id="radial0"
       r="128"
       gradientUnits="userSpaceOnUse">
      <stop
         offset="0"
         style="stop-color:#cce2ff"
         id="stop7-9" />
      <stop
         offset="1"
         style="stop-color:#3464a3"
         id="stop9-9" />
    </radialGradient>
    <radialGradient
       r="128"
       cy="160"
       cx="148.004"
       gradientTransform="matrix(0.05167489,0,0,0.05167489,-0.87510811,-1.4947562)"
       gradientUnits="userSpaceOnUse"
       id="radialGradient3021"
       xlink:href="#radial0"
       inkscape:collect="always" />
  </defs>
  <path
     inkscape:connector-curvature="0"
     style="fill:url(#radialGradient3021)"
     d="m 13.387779,3.2589259 0,7.0290971 c 0,2.892778 0,3.100035 -3.100035,3.100035 l -7.0279938,0 c -3.10113831,0 -3.10113831,-0.207257 -3.10113831,-3.100035 l 0,-7.0290971 c 0,-2.89277779 0,-3.10003479 3.10113831,-3.10003479 l 7.0279938,0 c 3.100035,0 3.100035,0.207257 3.100035,3.10003479 z"
     id="path11" />
  <path
     id="path15"
     d="m 10.799272,13.388058 c 0.717682,-0.0033 1.235825,-0.02315 1.611753,-0.124574 l -1.193932,-2.046112 -1.2655898,2.170686 0.3362408,0 c 0.180799,0 0.350573,0 0.511528,0 z M 11.217093,11.217372 9.7707042,8.7369031 8.3232132,11.217372 z m 0,0 2.159662,0 c 0.0088,-0.274505 0.01102,-0.582083 0.01102,-0.930451 l 0,-0.3097829 -0.723193,-1.240235 z M 12.664584,8.7369031 11.217093,6.2564347 9.7707042,8.7369031 z m 0,0 0.723195,0 0,-1.240234 z m -2.8938798,0 -1.447491,-2.4804684 -1.446389,2.4804684 z m -2.89388,0 -1.447491,2.4804689 2.89388,0 z m 0,0 -1.447491,-2.4804684 -1.446389,2.4804684 z m -2.89388,0 -1.447491,2.4804689 2.89388,0 z m 0,0 -1.447491,-2.4804684 -1.4463893,2.4804684 z m -2.8938803,0 -0.93045201,1.5941149 c 0,0.329627 0.0033,0.623976 0.01103,0.886354 l 2.36581631,0 z m 0,0 -0.93045201,-1.5941142 0,1.5941142 z m 1.4463893,2.4804689 -1.2170843,2.086901 c 0.450894,0.08268 1.07487,0.08378 1.9413813,0.08378 l 0.542395,0 z m 0,-4.9609373 -1.4463893,-2.4804689 -0.93045201,1.5941147 0,0.8863542 z m 0,0 2.89388,0 -1.446389,-2.4804689 z M 3.9829442,3.7759658 2.5354532,1.2954971 1.0890639,3.7759658 z m 0,0 2.89388,0 -1.447491,-2.4804687 z m 1.446389,-2.4804687 -0.663663,-1.13660599 -1.507023,0 c -0.02095,0 -0.03858,0 -0.05953,0 L 2.5354542,1.2954971 z m 0,0 2.89388,0 -0.663663,-1.13660599 -1.566554,0 z m 2.89388,0 2.8938798,0 -0.663663,-1.13660599 c -0.08819,0 -0.171979,0 -0.266788,0 l -1.2997658,0 z m 0,0 -1.446389,2.4804687 2.89388,0 z m 1.447491,2.4804687 2.8938798,0 -1.447491,-2.4804687 z m 0,0 -1.447491,2.4804689 2.8938798,0 z m 1.4463888,2.4804689 2.170686,0 0,-1.2402343 -0.723195,-1.2402346 z m 1.447491,-2.4804689 0.723195,0 0,-0.5170399 c 0,-0.2579689 -0.0022,-0.4938889 -0.0066,-0.71217 z M 8.3232132,6.2564347 6.8768242,3.7759658 5.4293332,6.2564347 z m 2.8938798,-4.9609376 2.062648,0 C 13.123196,0.51718101 12.747267,0.27133911 11.85981,0.19416881 z m -8.6816398,0 L 1.8850189,0.17983731 C 0.85204089,0.23826631 0.43421989,0.46095701 0.26665089,1.2954971 z M 1.0890639,3.7759658 0.17514889,2.2083096 c -0.01213,0.3031685 -0.01654,0.6515363 -0.01654,1.0506163 l 0,0.5170399 z m 4.3402693,7.4414062 -1.265591,2.170686 2.532283,0 z m 2.89388,0 -1.26559,2.170686 2.532283,0 z m -7.59133731,1.86862 -0.451996,-0.775009 c 0.08268,0.37152 0.221588,0.615157 0.451996,0.775009 z"
     style="fill:#ffffff;fill-opacity:0.05100002"
     inkscape:connector-curvature="0" />
  <path
     d="m 3.1044445,3.1044445 1.1895236,1.812947 C 4.3708405,4.7927135 4.4582768,4.6742612 4.566269,4.5662675 5.019833,4.1127059 5.6465507,3.9406507 6.2359014,4.0359985 l -0.6090938,-0.931554 -2.5223631,0 z m 3.1314569,0.931554 0.3081293,0.4657769 C 6.662903,4.5529883 6.7750541,4.6129955 6.8808236,4.695252 L 7.0743004,4.3871226 C 6.8220159,4.199179 6.5333453,4.0841204 6.2359014,4.0359985 z m 0.838399,0.3511241 c 0.073925,0.055072 0.1478954,0.1120662 0.2149744,0.1791449 0.6954933,0.6955113 0.745645,1.8037908 0.1504813,2.55819 L 8.442969,8.1276693 8.1276737,8.4429645 7.1244606,7.4397527 C 6.5044182,7.931324 5.6464729,7.9803641 4.9747195,7.5974004 l -1.870275,2.8448216 2.5223631,0 1.146529,-1.7484545 1.146529,1.7484545 2.5223624,0 -2.4077095,-3.6688885 2.4077095,-3.668889 -2.5223624,0 -0.8455652,1.2826781 z M 4.9747195,7.5974004 5.1753618,7.2892709 C 5.0515876,7.220374 4.9295049,7.1365696 4.8242378,7.0313022 4.3469721,6.554037 4.2529221,5.8454553 4.5232737,5.2685159 L 4.2939681,4.9173915 C 3.8372623,5.6580921 3.9246986,6.6477059 4.566269,7.2892709 4.6903964,7.4133997 4.8290987,7.5143841 4.9747195,7.5974004 z M 4.5232737,5.2685159 5.5121547,6.7733335 5.1753618,7.2892709 C 5.76806,7.619194 6.5272183,7.5353907 7.0313057,7.0313022 c 0.609352,-0.6093566 0.609352,-1.5977094 0,-2.207066 C 6.984322,4.777256 6.9319179,4.7349883 6.8808236,4.695252 L 6.7733366,4.8528994 6.5440307,4.5017754 C 5.975545,4.2568609 5.2893502,4.3591381 4.8242378,4.8242362 4.6921465,4.9563276 4.5980964,5.1088389 4.5232737,5.2685159 z M 8.5361249,8.0846747 9.5393367,9.0878865 9.0878919,9.5393315 8.0846791,8.5361195 8.5361249,8.0846747 z"
     fill="#2d2d2d"
     id="path28"
     style="fill:#f9f9f9;fill-opacity:1" />
</svg>
