<?xml version="1.0" encoding="UTF-8" standalone="no"?>
<svg
   xmlns:dc="http://purl.org/dc/elements/1.1/"
   xmlns:cc="http://creativecommons.org/ns#"
   xmlns:rdf="http://www.w3.org/1999/02/22-rdf-syntax-ns#"
   xmlns:svg="http://www.w3.org/2000/svg"
   xmlns="http://www.w3.org/2000/svg"
   xmlns:xlink="http://www.w3.org/1999/xlink"
   xmlns:sodipodi="http://sodipodi.sourceforge.net/DTD/sodipodi-0.dtd"
   xmlns:inkscape="http://www.inkscape.org/namespaces/inkscape"
   width="48"
   viewBox="0 0 13.546667 13.546667"
   height="48"
   id="svg2"
   version="1.1"
   inkscape:version="0.48.4 r9939"
   sodipodi:docname="xmind.svg">
  <metadata
     id="metadata24">
    <rdf:RDF>
      <cc:Work
         rdf:about="">
        <dc:format>image/svg+xml</dc:format>
        <dc:type
           rdf:resource="http://purl.org/dc/dcmitype/StillImage" />
        <dc:title />
      </cc:Work>
    </rdf:RDF>
  </metadata>
  <sodipodi:namedview
     pagecolor="#ffffff"
     bordercolor="#666666"
     borderopacity="1"
     objecttolerance="10"
     gridtolerance="10"
     guidetolerance="10"
     inkscape:pageopacity="0"
     inkscape:pageshadow="2"
     inkscape:window-width="1280"
     inkscape:window-height="998"
     id="namedview22"
     showgrid="false"
     inkscape:zoom="8.3970698"
     inkscape:cx="48.696543"
     inkscape:cy="37.852574"
     inkscape:window-x="0"
     inkscape:window-y="0"
     inkscape:window-maximized="1"
     inkscape:current-layer="svg2" />
  <defs
     id="defs4">
    <linearGradient
       id="linearGradient4460">
      <stop
         offset="0"
         style="stop-color:#d12a21;stop-opacity:1;"
         id="stop7" />
      <stop
         offset="1"
         style="stop-color:#df443c;stop-opacity:1;"
         id="stop9" />
    </linearGradient>
    <linearGradient
       gradientTransform="matrix(1.10525,0,0,1.10525,-134.27874,-295.76183)"
       xlink:href="#linearGradient4460"
       id="linearGradient3002"
       y1="279.096"
       y2="268.33"
       gradientUnits="userSpaceOnUse"
       x2="0" />
    <linearGradient
       inkscape:collect="always"
       xlink:href="#linearGradient4460"
       id="linearGradient2991"
       gradientUnits="userSpaceOnUse"
       gradientTransform="matrix(1.10525,0,0,1.10525,-134.27874,-295.76183)"
       y1="279.096"
       x2="0"
       y2="268.33" />
    <linearGradient
       gradientTransform="translate(-78.066775,-887.05181)"
       xlink:href="#0"
       id="B"
       y1="1050.36"
       x2="0"
       y2="1006.36"
       gradientUnits="userSpaceOnUse" />
    <linearGradient
       id="0">
      <stop
         stop-color="#c34141"
         id="stop7-6" />
      <stop
         offset="1"
         stop-color="#d76464"
         id="stop9-5" />
    </linearGradient>
    <linearGradient
       inkscape:collect="always"
       xlink:href="#linearGradient4460"
       id="linearGradient3024"
       gradientUnits="userSpaceOnUse"
       gradientTransform="matrix(0.28222223,0,0,0.28222223,6.7059175e-7,-283.45335)"
       y1="1050.36"
       x2="0"
       y2="1006.36" />
    <radialGradient
       r="128"
       cy="160"
       cx="148.004"
       gradientTransform="matrix(0.1831,0,0,0.1831,-3.10079,-5.2963804)"
       gradientUnits="userSpaceOnUse"
       id="radialGradient3190"
       xlink:href="#radial0"
       inkscape:collect="always" />
    <radialGradient
       cx="148.004"
       cy="160"
       gradientTransform="matrix(0.1831,0,0,0.1831,-3.10029,-5.29688)"
       id="radial0"
       r="128"
       gradientUnits="userSpaceOnUse">
      <stop
         offset="0"
         style="stop-color:#fdab9c"
         id="stop154" />
      <stop
         offset="1"
         style="stop-color:#c3280a"
         id="stop156" />
    </radialGradient>
    <radialGradient
       r="128"
       cy="160"
       cx="148.004"
       gradientTransform="matrix(0.05167489,0,0,0.05167489,-0.87511191,-1.4947611)"
       gradientUnits="userSpaceOnUse"
       id="radialGradient3048"
       xlink:href="#radial0"
       inkscape:collect="always" />
  </defs>
  <path
     inkscape:connector-curvature="0"
     style="fill:url(#radialGradient3048)"
     d="m 13.387776,3.2589209 0,7.0290971 c 0,2.892778 0,3.100035 -3.100035,3.100035 l -7.0279949,0 c -3.10113721,0 -3.10113721,-0.207257 -3.10113721,-3.100035 l 0,-7.0290971 c 0,-2.89277799 0,-3.10003499 3.10113721,-3.10003499 l 7.0279949,0 c 3.100035,0 3.100035,0.207257 3.100035,3.10003499 z"
     id="path158" />
  <path
     id="path162"
     d="m 10.799269,13.388053 c 0.717682,-0.0033 1.235825,-0.02315 1.611753,-0.124575 l -1.193932,-2.046111 -1.2655902,2.170686 0.3362412,0 c 0.180799,0 0.350573,0 0.511528,0 z M 11.21709,11.217367 9.7707012,8.7368984 8.3232099,11.217367 z m 0,0 2.159662,0 c 0.0088,-0.274505 0.01102,-0.582083 0.01102,-0.930451 l 0,-0.3097833 -0.723194,-1.2402343 z M 12.664582,8.7368984 11.21709,6.2564297 9.7707012,8.7368984 z m 0,0 0.723194,0 0,-1.2402343 z m -2.8938808,0 L 8.3232099,6.2564297 6.876821,8.7368984 z m -2.8938802,0 -1.4474916,2.4804686 2.8938805,0 z m 0,0 L 5.4293294,6.2564297 3.9829405,8.7368984 z m -2.8938805,0 -1.4474913,2.4804686 2.8938802,0 z m 0,0 L 2.5354492,6.2564297 1.0890603,8.7368984 z m -2.8938802,0 -0.93045141,1.5941146 c 0,0.329627 0.00331,0.623976 0.011024,0.886354 l 2.36581611,0 z m 0,0 -0.93045141,-1.5941145 0,1.5941145 z m 1.4463889,2.4804686 -1.2170833,2.086901 c 0.450894,0.08268 1.0748699,0.08379 1.9413802,0.08379 l 0.5423958,0 z m 0,-4.9609373 -1.4463889,-2.4804689 -0.93045141,1.5941147 0,0.8863542 z m 0,0 2.8938802,0 L 3.9829405,3.7759608 z M 3.9829405,3.7759608 2.5354492,1.2954921 1.0890603,3.7759608 z m 0,0 2.8938805,0 -1.4474916,-2.4804687 z m 1.4463889,-2.4804687 -0.663663,-1.13660619 -1.5059203,0 c -0.02205,0 -0.039688,0 -0.060634,0 L 2.5354492,1.2954921 z m 0,0 2.8938805,0 -0.6636633,-1.13660619 -1.5665538,0 z m 2.8938805,0 2.8938801,0 -0.663663,-1.13660619 c -0.0882,0 -0.171979,0 -0.265686,0 l -1.300868,0 z m 0,0 -1.4463889,2.4804687 2.8938802,0 z m 1.4474913,2.4804687 2.8938808,0 -1.447492,-2.4804687 z m 0,0 -1.4474913,2.4804689 2.8938801,0 z m 1.4463888,2.4804689 2.170686,0 0,-1.2402343 -0.723194,-1.2402346 z m 1.447492,-2.4804689 0.723194,0 0,-0.5170399 c 0,-0.2579689 -0.0022,-0.4938889 -0.0066,-0.71217 z M 8.3232099,6.2564297 6.876821,3.7759608 5.4293294,6.2564297 z m 2.8938801,-4.9609376 2.062648,0 C 13.123193,0.51717601 12.747264,0.27133391 11.859807,0.19416391 z m -8.6816408,0 -0.6504339,-1.11566019 c -1.03297761,0.05843 -1.45079891,0.28112 -1.61836831,1.11566019 z M 1.0890603,3.7759608 0.17514539,2.2083046 c -0.012127,0.3031685 -0.016536,0.6515364 -0.016536,1.0506163 l 0,0.5170399 z m 4.3402691,7.4414062 -1.2655903,2.170686 2.532283,0 z m 2.8938805,0 -1.2655906,2.170686 2.5322833,0 z m -7.59133711,1.86862 -0.4519964,-0.775009 c 0.082682,0.371519 0.2215885,0.615157 0.4519964,0.775009 z"
     style="fill:#ffffff;fill-opacity:0.05100002"
     inkscape:connector-curvature="0" />
  <path
     style="fill:#f9f9f9;fill-opacity:1;stroke:none"
     d="m 5.182573,4.5157466 c -0.0173,2.89e-4 -0.0368,0.0017 -0.0592,0.003 -0.0849,0.0052 -1.68702,0.292344 -1.78898,0.320671 -0.1078,0.02993 -0.19986,0.09316 -0.22232,0.153149 -0.0383,0.101945 0.0727,0.433264 0.21923,0.655719 0.25213,0.382624 0.61923,0.627076 1.39116,0.924508 0.42394,0.163346 0.51223,0.20455 0.5678,0.266915 0.073,0.08192 0.0125,0.12146 -0.54747,0.358801 -0.87519,0.370975 -1.2685,0.686504 -1.43612,1.153292 -0.0495,0.13793 -0.0725,0.502677 -0.0376,0.594461 0.0453,0.11898 0.0726,0.117922 0.91821,-0.03563 0.84945,-0.154257 0.88924,-0.163285 0.96008,-0.227533 0.0577,-0.05233 0.061,-0.06495 0.0862,-0.312545 0.0145,-0.14188 0.0445,-0.31854 0.0665,-0.391931 0.051,-0.17044 0.17928,-0.34843 0.31899,-0.442565 0.52984,-0.356968 1.52708,-0.17896 2.06673,0.368804 0.20334,0.206397 0.33103,0.425626 0.43293,0.745732 0.0588,0.184695 0.11851,0.264884 0.21124,0.282542 0.0853,0.01623 0.0874,0.0158 1.16823,-0.180652 0.60122,-0.10928 0.85143,-0.162424 0.8868,-0.188777 0.076,-0.05666 0.0763,-0.195321 6e-4,-0.424436 -0.12993,-0.393671 -0.35534,-0.680485 -0.77286,-0.983268 -0.20655,-0.149788 -0.46737,-0.291401 -0.90897,-0.493822 -0.42003,-0.192535 -0.50621,-0.244625 -0.50621,-0.304418 0,-0.04944 0.0511,-0.07147 0.38428,-0.166899 0.73006,-0.209144 1.01489,-0.502534 1.01489,-1.045776 0,-0.238395 -0.047,-0.430776 -0.12009,-0.493197 -0.0972,-0.08302 -0.20092,-0.08565 -0.60906,-0.015 -1.3083,0.226466 -1.27056,0.217637 -1.33142,0.311919 -0.0322,0.04986 -0.0308,0.06156 0.0284,0.288168 0.0339,0.129914 0.0612,0.267344 0.061,0.305044 -4.9e-4,0.08019 -0.057,0.214146 -0.11023,0.261912 -0.13025,0.11681 -0.42549,0.19628 -0.72791,0.19628 -0.36578,0 -0.64138,-0.120366 -0.91513,-0.399433 -0.19781,-0.201645 -0.29879,-0.371683 -0.43355,-0.730731 -0.11834,-0.315348 -0.13457,-0.356451 -0.25619,-0.354426 z"
     id="rect3036"
     inkscape:connector-curvature="0"
     sodipodi:nodetypes="sssssssssssssssssssscssssssssscsssss" />
</svg>
