<?xml version="1.0" encoding="UTF-8" standalone="no"?>
<svg
   xmlns:dc="http://purl.org/dc/elements/1.1/"
   xmlns:cc="http://creativecommons.org/ns#"
   xmlns:rdf="http://www.w3.org/1999/02/22-rdf-syntax-ns#"
   xmlns:svg="http://www.w3.org/2000/svg"
   xmlns="http://www.w3.org/2000/svg"
   xmlns:xlink="http://www.w3.org/1999/xlink"
   xmlns:sodipodi="http://sodipodi.sourceforge.net/DTD/sodipodi-0.dtd"
   xmlns:inkscape="http://www.inkscape.org/namespaces/inkscape"
   width="48"
   viewBox="0 0 13.546667 13.546667"
   height="48"
   id="svg2"
   version="1.1"
   inkscape:version="0.48.4 r9939"
   sodipodi:docname="amazon-store.svg">
  <metadata
     id="metadata400">
    <rdf:RDF>
      <cc:Work
         rdf:about="">
        <dc:format>image/svg+xml</dc:format>
        <dc:type
           rdf:resource="http://purl.org/dc/dcmitype/StillImage" />
        <dc:title></dc:title>
      </cc:Work>
    </rdf:RDF>
  </metadata>
  <sodipodi:namedview
     pagecolor="#ffffff"
     bordercolor="#666666"
     borderopacity="1"
     objecttolerance="10"
     gridtolerance="10"
     guidetolerance="10"
     inkscape:pageopacity="0"
     inkscape:pageshadow="2"
     inkscape:window-width="1366"
     inkscape:window-height="742"
     id="namedview398"
     showgrid="false"
     inkscape:zoom="4.9166667"
     inkscape:cx="24.40678"
     inkscape:cy="24"
     inkscape:window-x="0"
     inkscape:window-y="26"
     inkscape:window-maximized="1"
     inkscape:current-layer="svg2" />
  <defs
     id="defs4">
    <clipPath
       clipPathUnits="userSpaceOnUse"
       id="clipPath6">
      <path
         style="fill:url(#linearGradient4306);color:#bebebe"
         d="m 440,126 c -3.31371,0 -6,2.68629 -6,6 0,3.31371 2.68629,6 6,6 3.31371,0 6,-2.68629 6,-6 0,-3.31371 -2.68629,-6 -6,-6 z m 0,3 c 1.65685,0 3,1.34315 3,3 0,1.65685 -1.34315,3 -3,3 -1.65685,0 -3,-1.34315 -3,-3 0,-1.65685 1.34315,-3 3,-3 z m 0,1 c -1.10457,0 -2,0.89543 -2,2 0,1.10457 0.89543,2 2,2 1.10457,0 2,-0.89543 2,-2 0,-1.10457 -0.89543,-2 -2,-2 z m 0,1 c 0.55228,0 1,0.44772 1,1 0,0.55228 -0.44772,1 -1,1 -0.55228,0 -1,-0.44772 -1,-1 0,-0.55228 0.44772,-1 1,-1 z"
         id="path8" />
    </clipPath>
    <clipPath
       clipPathUnits="userSpaceOnUse"
       id="clipPath10">
      <path
         style="fill:url(#linearGradient4344-1);color:#bebebe"
         d="m 144.00001,75.999997 c -44.1828,0 -80,35.817203 -80,80.000003 0,44.1828 35.8172,80 80,80 44.1828,0 80,-35.8172 80,-80 0,-44.1828 -35.8172,-80.000003 -80,-80.000003 z m 0,56.607143 c 12.62366,0 22.85714,10.23349 22.85714,22.85714 0,12.62366 -10.23348,22.85714 -22.85714,22.85714 -12.62366,0 -22.85714,-10.23348 -22.85714,-22.85714 0,-12.62365 10.23348,-22.85714 22.85714,-22.85714 z m 0,5.71429 c -9.46771,0 -17.14286,7.67514 -17.14286,17.14285 0,9.46772 7.67515,17.14286 17.14286,17.14286 9.46771,0 17.14286,-7.67514 17.14286,-17.14286 0,-9.46771 -7.67515,-17.14285 -17.14286,-17.14285 z m 0,5.71428 c 6.31183,0 11.42857,5.11674 11.42857,11.42857 0,6.31183 -5.11674,11.42857 -11.42857,11.42857 -6.31183,0 -11.42857,-5.11674 -11.42857,-11.42857 0,-6.31183 5.11674,-11.42857 11.42857,-11.42857 z"
         id="path12" />
    </clipPath>
    <clipPath
       clipPathUnits="userSpaceOnUse"
       id="clipPath14">
      <path
         style="fill:url(#linearGradient4326-1);color:#bebebe"
         d="m 328,242.09376 c -7.73199,0 -14,6.26801 -14,14 0,7.73199 6.26801,14 14,14 7.73199,0 14,-6.26801 14,-14 0,-7.73199 -6.26801,-14 -14,-14 z m 0,9.90625 c 2.20914,0 4,1.79086 4,4 0,2.20914 -1.79086,4 -4,4 -2.20914,0 -4,-1.79086 -4,-4 0,-2.20914 1.79086,-4 4,-4 z m 0,1 c -1.65685,0 -3,1.34315 -3,3 0,1.65685 1.34315,3 3,3 1.65685,0 3,-1.34315 3,-3 0,-1.65685 -1.34315,-3 -3,-3 z m 0,1 c 1.10457,0 2,0.89543 2,2 0,1.10457 -0.89543,2 -2,2 -1.10457,0 -2,-0.89543 -2,-2 0,-1.10457 0.89543,-2 2,-2 z"
         id="path16" />
    </clipPath>
    <clipPath
       clipPathUnits="userSpaceOnUse"
       id="clipPath18">
      <path
         style="fill:url(#linearGradient4377);color:#bebebe"
         d="m 444,88 c -4.41828,0 -8,3.58172 -8,8 0,4.41828 3.58172,8 8,8 4.41828,0 8,-3.58172 8,-8 0,-4.41828 -3.58172,-8 -8,-8 z m 0,5 c 1.65685,0 3,1.34315 3,3 0,1.65685 -1.34315,3 -3,3 -1.65685,0 -3,-1.34315 -3,-3 0,-1.65685 1.34315,-3 3,-3 z m 0,1 c -1.10457,0 -2,0.89543 -2,2 0,1.10457 0.89543,2 2,2 1.10457,0 2,-0.89543 2,-2 0,-1.10457 -0.89543,-2 -2,-2 z m 0,1 c 0.55228,0 1,0.44772 1,1 0,0.55228 -0.44772,1 -1,1 -0.55228,0 -1,-0.44772 -1,-1 0,-0.55228 0.44772,-1 1,-1 z"
         id="path20" />
    </clipPath>
    <clipPath
       clipPathUnits="userSpaceOnUse"
       id="clipPath22">
      <rect
         width="30"
         x="433"
         y="29"
         rx="4"
         height="30"
         style="opacity:.2;fill:#6d6d6d;color:#bebebe"
         id="rect24" />
    </clipPath>
    <clipPath
       clipPathUnits="userSpaceOnUse"
       id="clipPath26">
      <path
         style="fill:url(#linearGradient4338);color:#bebebe"
         d="m 328,242.09376 c -7.73199,0 -14,6.26801 -14,14 0,7.73199 6.26801,14 14,14 7.73199,0 14,-6.26801 14,-14 0,-7.73199 -6.26801,-14 -14,-14 z m 0,9.90625 c 2.20914,0 4,1.79086 4,4 0,2.20914 -1.79086,4 -4,4 -2.20914,0 -4,-1.79086 -4,-4 0,-2.20914 1.79086,-4 4,-4 z m 0,1 c -1.65685,0 -3,1.34315 -3,3 0,1.65685 1.34315,3 3,3 1.65685,0 3,-1.34315 3,-3 0,-1.65685 -1.34315,-3 -3,-3 z m 0,1 c 1.10457,0 2,0.89543 2,2 0,1.10457 -0.89543,2 -2,2 -1.10457,0 -2,-0.89543 -2,-2 0,-1.10457 0.89543,-2 2,-2 z"
         id="path28" />
    </clipPath>
    <clipPath
       clipPathUnits="userSpaceOnUse"
       id="clipPath30">
      <path
         style="fill:url(#linearGradient4203-6);color:#bebebe"
         d="m 444,88 c -4.41828,0 -8,3.58172 -8,8 0,4.41828 3.58172,8 8,8 4.41828,0 8,-3.58172 8,-8 0,-4.41828 -3.58172,-8 -8,-8 z m 0,5 c 1.65685,0 3,1.34315 3,3 0,1.65685 -1.34315,3 -3,3 -1.65685,0 -3,-1.34315 -3,-3 0,-1.65685 1.34315,-3 3,-3 z m 0,1 c -1.10457,0 -2,0.89543 -2,2 0,1.10457 0.89543,2 2,2 1.10457,0 2,-0.89543 2,-2 0,-1.10457 -0.89543,-2 -2,-2 z m 0,1 c 0.55228,0 1,0.44772 1,1 0,0.55228 -0.44772,1 -1,1 -0.55228,0 -1,-0.44772 -1,-1 0,-0.55228 0.44772,-1 1,-1 z"
         id="path32" />
    </clipPath>
    <clipPath
       clipPathUnits="userSpaceOnUse"
       id="clipPath34">
      <path
         style="opacity:.2;color:#bebebe"
         d="m 328,238 c -7.73199,0 -14,6.26801 -14,14 0,7.73199 6.26801,14 14,14 7.73199,0 14,-6.26801 14,-14 0,-7.73199 -6.26801,-14 -14,-14 z m 0,8.75 c 2.89949,0 5.25,2.35051 5.25,5.25 0,2.89949 -2.35051,5.25 -5.25,5.25 -2.89949,0 -5.25,-2.35051 -5.25,-5.25 0,-2.89949 2.35051,-5.25 5.25,-5.25 z m 0,1.75 c -1.933,0 -3.5,1.567 -3.5,3.5 0,1.933 1.567,3.5 3.5,3.5 1.933,0 3.5,-1.567 3.5,-3.5 0,-1.933 -1.567,-3.5 -3.5,-3.5 z m 0,1.75 c 0.96649,0 1.75,0.78351 1.75,1.75 0,0.96649 -0.78351,1.75 -1.75,1.75 -0.96649,0 -1.75,-0.78351 -1.75,-1.75 0,-0.96649 0.78351,-1.75 1.75,-1.75 z"
         id="path36" />
    </clipPath>
    <clipPath
       clipPathUnits="userSpaceOnUse"
       id="clipPath38">
      <path
         style="opacity:.1;fill:#b74049;clip-path:url(#clipPath4112)"
         d="m 328,256 15,11 0,-27 -15,0 z"
         id="path40"
         clip-path="url(#clipPath4112)" />
    </clipPath>
    <clipPath
       clipPathUnits="userSpaceOnUse"
       id="clipPath42">
      <path
         style="fill:url(#radialGradient4250);clip-path:none"
         d="m 328,256 15,11 0,-27 -15,0 z"
         id="path44"
         clip-path="none" />
    </clipPath>
    <clipPath
       clipPathUnits="userSpaceOnUse"
       id="clipPath46">
      <path
         style="fill:url(#linearGradient4326-13);color:#bebebe"
         d="m 328,242.09376 c -7.73199,0 -14,6.26801 -14,14 0,7.73199 6.26801,14 14,14 7.73199,0 14,-6.26801 14,-14 0,-7.73199 -6.26801,-14 -14,-14 z m 0,9.90625 c 2.20914,0 4,1.79086 4,4 0,2.20914 -1.79086,4 -4,4 -2.20914,0 -4,-1.79086 -4,-4 0,-2.20914 1.79086,-4 4,-4 z m 0,1 c -1.65685,0 -3,1.34315 -3,3 0,1.65685 1.34315,3 3,3 1.65685,0 3,-1.34315 3,-3 0,-1.65685 -1.34315,-3 -3,-3 z m 0,1 c 1.10457,0 2,0.89543 2,2 0,1.10457 -0.89543,2 -2,2 -1.10457,0 -2,-0.89543 -2,-2 0,-1.10457 0.89543,-2 2,-2 z"
         id="path48" />
    </clipPath>
    <clipPath
       id="clipPath4112-2"
       clipPathUnits="userSpaceOnUse">
      <path
         style="opacity:.2;color:#bebebe"
         d="m 328,242.09375 c -7.73199,0 -14,6.26801 -14,14 0,7.73199 6.26801,14 14,14 7.73199,0 14,-6.26801 14,-14 0,-7.73199 -6.26801,-14 -14,-14 z M 328,252 c 2.20914,0 4,1.79086 4,4 0,2.20914 -1.79086,4 -4,4 -2.20914,0 -4,-1.79086 -4,-4 0,-2.20914 1.79086,-4 4,-4 z m 0,1 c -1.65685,0 -3,1.34315 -3,3 0,1.65685 1.34315,3 3,3 1.65685,0 3,-1.34315 3,-3 0,-1.65685 -1.34315,-3 -3,-3 z m 0,1 c 1.10457,0 2,0.89543 2,2 0,1.10457 -0.89543,2 -2,2 -1.10457,0 -2,-0.89543 -2,-2 0,-1.10457 0.89543,-2 2,-2 z"
         id="path51" />
    </clipPath>
    <clipPath
       clipPathUnits="userSpaceOnUse"
       id="clipPath53">
      <rect
         width="16"
         x="432"
         y="116"
         rx="2"
         height="16"
         style="opacity:.2;fill:#6d6d6d;color:#bebebe"
         id="rect55" />
    </clipPath>
    <clipPath
       clipPathUnits="userSpaceOnUse"
       id="clipPath57">
      <path
         style="fill:url(#linearGradient4326-13);color:#bebebe"
         d="m 328,242.09376 c -7.73199,0 -14,6.26801 -14,14 0,7.73199 6.26801,14 14,14 7.73199,0 14,-6.26801 14,-14 0,-7.73199 -6.26801,-14 -14,-14 z m 0,9.90625 c 2.20914,0 4,1.79086 4,4 0,2.20914 -1.79086,4 -4,4 -2.20914,0 -4,-1.79086 -4,-4 0,-2.20914 1.79086,-4 4,-4 z m 0,1 c -1.65685,0 -3,1.34315 -3,3 0,1.65685 1.34315,3 3,3 1.65685,0 3,-1.34315 3,-3 0,-1.65685 -1.34315,-3 -3,-3 z m 0,1 c 1.10457,0 2,0.89543 2,2 0,1.10457 -0.89543,2 -2,2 -1.10457,0 -2,-0.89543 -2,-2 0,-1.10457 0.89543,-2 2,-2 z"
         id="path59" />
    </clipPath>
    <clipPath
       clipPathUnits="userSpaceOnUse"
       id="clipPath61">
      <path
         style="fill:url(#linearGradient4296);color:#bebebe"
         d="m 451.38843,127.3713 c -3.31371,0 -6,2.68629 -6,6 0,3.31371 2.68629,6 6,6 3.31371,0 6,-2.68629 6,-6 0,-3.31371 -2.68629,-6 -6,-6 z m 0,3 c 1.65685,0 3,1.34315 3,3 0,1.65685 -1.34315,3 -3,3 -1.65685,0 -3,-1.34315 -3,-3 0,-1.65685 1.34315,-3 3,-3 z m 0,1 c -1.10457,0 -2,0.89543 -2,2 0,1.10457 0.89543,2 2,2 1.10457,0 2,-0.89543 2,-2 0,-1.10457 -0.89543,-2 -2,-2 z m 0,1 c 0.55228,0 1,0.44772 1,1 0,0.55228 -0.44772,1 -1,1 -0.55228,0 -1,-0.44772 -1,-1 0,-0.55228 0.44772,-1 1,-1 z"
         id="path63" />
    </clipPath>
    <clipPath
       clipPathUnits="userSpaceOnUse"
       id="clipPath65">
      <path
         style="opacity:.2;color:#bebebe"
         d="m 328,238 c -7.73199,0 -14,6.26801 -14,14 0,7.73199 6.26801,14 14,14 7.73199,0 14,-6.26801 14,-14 0,-7.73199 -6.26801,-14 -14,-14 z m 0,9.90625 c 2.20914,0 4,1.79086 4,4 0,2.20914 -1.79086,4 -4,4 -2.20914,0 -4,-1.79086 -4,-4 0,-2.20914 1.79086,-4 4,-4 z m 0,1 c -1.65685,0 -3,1.34315 -3,3 0,1.65685 1.34315,3 3,3 1.65685,0 3,-1.34315 3,-3 0,-1.65685 -1.34315,-3 -3,-3 z m 0,1 c 1.10457,0 2,0.89543 2,2 0,1.10457 -0.89543,2 -2,2 -1.10457,0 -2,-0.89543 -2,-2 0,-1.10457 0.89543,-2 2,-2 z"
         id="path67" />
    </clipPath>
    <clipPath
       clipPathUnits="userSpaceOnUse"
       id="clipPath69">
      <path
         style="fill:url(#radialGradient4279);clip-path:none"
         d="m 451.38843,133.3713 6.42857,4.71429 0,-11.57143 -6.42857,0 z"
         id="path71"
         clip-path="none" />
    </clipPath>
    <clipPath
       clipPathUnits="userSpaceOnUse"
       id="clipPath73">
      <path
         style="opacity:.2;color:#bebebe"
         d="m 328,238 c -7.73199,0 -14,6.26801 -14,14 0,7.73199 6.26801,14 14,14 7.73199,0 14,-6.26801 14,-14 0,-7.73199 -6.26801,-14 -14,-14 z m 0,9.90625 c 2.20914,0 4,1.79086 4,4 0,2.20914 -1.79086,4 -4,4 -2.20914,0 -4,-1.79086 -4,-4 0,-2.20914 1.79086,-4 4,-4 z m 0,1 c -1.65685,0 -3,1.34315 -3,3 0,1.65685 1.34315,3 3,3 1.65685,0 3,-1.34315 3,-3 0,-1.65685 -1.34315,-3 -3,-3 z m 0,1 c 1.10457,0 2,0.89543 2,2 0,1.10457 -0.89543,2 -2,2 -1.10457,0 -2,-0.89543 -2,-2 0,-1.10457 0.89543,-2 2,-2 z"
         id="path75" />
    </clipPath>
    <clipPath
       clipPathUnits="userSpaceOnUse"
       id="clipPath77">
      <path
         style="opacity:.2;color:#bebebe"
         d="m 328,238 c -7.73199,0 -14,6.26801 -14,14 0,7.73199 6.26801,14 14,14 7.73199,0 14,-6.26801 14,-14 0,-7.73199 -6.26801,-14 -14,-14 z m 0,8.75 c 2.89949,0 5.25,2.35051 5.25,5.25 0,2.89949 -2.35051,5.25 -5.25,5.25 -2.89949,0 -5.25,-2.35051 -5.25,-5.25 0,-2.89949 2.35051,-5.25 5.25,-5.25 z m 0,1.75 c -1.933,0 -3.5,1.567 -3.5,3.5 0,1.933 1.567,3.5 3.5,3.5 1.933,0 3.5,-1.567 3.5,-3.5 0,-1.933 -1.567,-3.5 -3.5,-3.5 z m 0,1.75 c 0.96649,0 1.75,0.78351 1.75,1.75 0,0.96649 -0.78351,1.75 -1.75,1.75 -0.96649,0 -1.75,-0.78351 -1.75,-1.75 0,-0.96649 0.78351,-1.75 1.75,-1.75 z"
         id="path79" />
    </clipPath>
    <clipPath
       clipPathUnits="userSpaceOnUse"
       id="clipPath81">
      <rect
         width="30"
         x="433"
         y="29"
         rx="6"
         height="30"
         style="color:#bebebe"
         id="rect83" />
    </clipPath>
    <clipPath
       clipPathUnits="userSpaceOnUse"
       id="clipPath85">
      <path
         style="fill:url(#linearGradient4326-13);color:#bebebe"
         d="m 328,242.09376 c -7.73199,0 -14,6.26801 -14,14 0,7.73199 6.26801,14 14,14 7.73199,0 14,-6.26801 14,-14 0,-7.73199 -6.26801,-14 -14,-14 z m 0,9.90625 c 2.20914,0 4,1.79086 4,4 0,2.20914 -1.79086,4 -4,4 -2.20914,0 -4,-1.79086 -4,-4 0,-2.20914 1.79086,-4 4,-4 z m 0,1 c -1.65685,0 -3,1.34315 -3,3 0,1.65685 1.34315,3 3,3 1.65685,0 3,-1.34315 3,-3 0,-1.65685 -1.34315,-3 -3,-3 z m 0,1 c 1.10457,0 2,0.89543 2,2 0,1.10457 -0.89543,2 -2,2 -1.10457,0 -2,-0.89543 -2,-2 0,-1.10457 0.89543,-2 2,-2 z"
         id="path87" />
    </clipPath>
    <clipPath
       clipPathUnits="userSpaceOnUse"
       id="clipPath89">
      <path
         style="fill:url(#linearGradient4338);color:#bebebe"
         d="m 328,242.09376 c -7.73199,0 -14,6.26801 -14,14 0,7.73199 6.26801,14 14,14 7.73199,0 14,-6.26801 14,-14 0,-7.73199 -6.26801,-14 -14,-14 z m 0,9.90625 c 2.20914,0 4,1.79086 4,4 0,2.20914 -1.79086,4 -4,4 -2.20914,0 -4,-1.79086 -4,-4 0,-2.20914 1.79086,-4 4,-4 z m 0,1 c -1.65685,0 -3,1.34315 -3,3 0,1.65685 1.34315,3 3,3 1.65685,0 3,-1.34315 3,-3 0,-1.65685 -1.34315,-3 -3,-3 z m 0,1 c 1.10457,0 2,0.89543 2,2 0,1.10457 -0.89543,2 -2,2 -1.10457,0 -2,-0.89543 -2,-2 0,-1.10457 0.89543,-2 2,-2 z"
         id="path91" />
    </clipPath>
    <clipPath
       clipPathUnits="userSpaceOnUse"
       id="clipPath93">
      <rect
         width="42"
         x="307"
         y="223"
         rx="9"
         height="42"
         style="fill:url(#linearGradient4895);color:#bebebe"
         transform="rotate(90)"
         id="rect95" />
    </clipPath>
    <clipPath
       clipPathUnits="userSpaceOnUse"
       id="clipPath97">
      <rect
         width="30"
         x="433"
         y="29"
         rx="4"
         height="30"
         style="opacity:.2;fill:#6d6d6d;color:#bebebe"
         id="rect99" />
    </clipPath>
    <clipPath
       clipPathUnits="userSpaceOnUse"
       id="clipPath101">
      <path
         style="fill:url(#linearGradient4227-4);color:#bebebe"
         d="m 440,126 c -3.31371,0 -6,2.68629 -6,6 0,3.31371 2.68629,6 6,6 3.31371,0 6,-2.68629 6,-6 0,-3.31371 -2.68629,-6 -6,-6 z m 0,3 c 1.65685,0 3,1.34315 3,3 0,1.65685 -1.34315,3 -3,3 -1.65685,0 -3,-1.34315 -3,-3 0,-1.65685 1.34315,-3 3,-3 z m 0,1 c -1.10457,0 -2,0.89543 -2,2 0,1.10457 0.89543,2 2,2 1.10457,0 2,-0.89543 2,-2 0,-1.10457 -0.89543,-2 -2,-2 z m 0,1 c 0.55228,0 1,0.44772 1,1 0,0.55228 -0.44772,1 -1,1 -0.55228,0 -1,-0.44772 -1,-1 0,-0.55228 0.44772,-1 1,-1 z"
         id="path103" />
    </clipPath>
    <clipPath
       clipPathUnits="userSpaceOnUse"
       id="clipPath105">
      <rect
         width="60"
         x="306"
         y="142"
         rx="12.5"
         height="60"
         style="fill:url(#linearGradient4863);color:#bebebe"
         transform="matrix(0 -1 1 0 0 0)"
         id="rect107" />
    </clipPath>
    <clipPath
       clipPathUnits="userSpaceOnUse"
       id="clipPath109">
      <rect
         width="22"
         x="433"
         y="77"
         rx="3"
         height="22"
         style="opacity:.2;fill:#6d6d6d;color:#bebebe"
         id="rect111" />
    </clipPath>
    <clipPath
       clipPathUnits="userSpaceOnUse"
       id="clipPath113">
      <path
         style="fill:url(#linearGradient4296-69);color:#bebebe"
         d="m 451.38843,127.3713 c -3.31371,0 -6,2.68629 -6,6 0,3.31371 2.68629,6 6,6 3.31371,0 6,-2.68629 6,-6 0,-3.31371 -2.68629,-6 -6,-6 z m 0,3 c 1.65685,0 3,1.34315 3,3 0,1.65685 -1.34315,3 -3,3 -1.65685,0 -3,-1.34315 -3,-3 0,-1.65685 1.34315,-3 3,-3 z m 0,1 c -1.10457,0 -2,0.89543 -2,2 0,1.10457 0.89543,2 2,2 1.10457,0 2,-0.89543 2,-2 0,-1.10457 -0.89543,-2 -2,-2 z m 0,1 c 0.55228,0 1,0.44772 1,1 0,0.55228 -0.44772,1 -1,1 -0.55228,0 -1,-0.44772 -1,-1 0,-0.55228 0.44772,-1 1,-1 z"
         id="path115" />
    </clipPath>
    <clipPath
       clipPathUnits="userSpaceOnUse"
       id="clipPath117">
      <rect
         width="240"
         x="24"
         y="36"
         rx="50"
         height="240"
         style="fill:#986767;color:#bebebe"
         id="rect119" />
    </clipPath>
    <clipPath
       clipPathUnits="userSpaceOnUse"
       id="clipPath121">
      <rect
         width="22"
         x="433"
         y="77"
         rx="5"
         height="22"
         style="color:#bebebe"
         id="rect123" />
    </clipPath>
    <clipPath
       clipPathUnits="userSpaceOnUse"
       id="clipPath125">
      <path
         style="fill:url(#linearGradient4344);color:#bebebe"
         d="m 144.00001,75.999997 c -44.1828,0 -80,35.817203 -80,80.000003 0,44.1828 35.8172,80 80,80 44.1828,0 80,-35.8172 80,-80 0,-44.1828 -35.8172,-80.000003 -80,-80.000003 z m 0,56.607143 c 12.62366,0 22.85714,10.23349 22.85714,22.85714 0,12.62366 -10.23348,22.85714 -22.85714,22.85714 -12.62366,0 -22.85714,-10.23348 -22.85714,-22.85714 0,-12.62365 10.23348,-22.85714 22.85714,-22.85714 z m 0,5.71429 c -9.46771,0 -17.14286,7.67514 -17.14286,17.14285 0,9.46772 7.67515,17.14286 17.14286,17.14286 9.46771,0 17.14286,-7.67514 17.14286,-17.14286 0,-9.46771 -7.67515,-17.14285 -17.14286,-17.14285 z m 0,5.71428 c 6.31183,0 11.42857,5.11674 11.42857,11.42857 0,6.31183 -5.11674,11.42857 -11.42857,11.42857 -6.31183,0 -11.42857,-5.11674 -11.42857,-11.42857 0,-6.31183 5.11674,-11.42857 11.42857,-11.42857 z"
         id="path127" />
    </clipPath>
    <clipPath
       id="clipPath4112"
       clipPathUnits="userSpaceOnUse">
      <path
         style="opacity:.2;color:#bebebe"
         d="m 328,242.09375 c -7.73199,0 -14,6.26801 -14,14 0,7.73199 6.26801,14 14,14 7.73199,0 14,-6.26801 14,-14 0,-7.73199 -6.26801,-14 -14,-14 z M 328,252 c 2.20914,0 4,1.79086 4,4 0,2.20914 -1.79086,4 -4,4 -2.20914,0 -4,-1.79086 -4,-4 0,-2.20914 1.79086,-4 4,-4 z m 0,1 c -1.65685,0 -3,1.34315 -3,3 0,1.65685 1.34315,3 3,3 1.65685,0 3,-1.34315 3,-3 0,-1.65685 -1.34315,-3 -3,-3 z m 0,1 c 1.10457,0 2,0.89543 2,2 0,1.10457 -0.89543,2 -2,2 -1.10457,0 -2,-0.89543 -2,-2 0,-1.10457 0.89543,-2 2,-2 z"
         id="path130" />
    </clipPath>
    <clipPath
       clipPathUnits="userSpaceOnUse"
       id="clipPath132">
      <rect
         width="22"
         x="433"
         y="77"
         rx="4"
         height="22"
         style="color:#bebebe"
         id="rect134" />
    </clipPath>
    <clipPath
       clipPathUnits="userSpaceOnUse"
       id="clipPath136">
      <rect
         width="90"
         x="307"
         y="31"
         rx="18.75"
         height="90"
         style="fill:url(#linearGradient4825);color:#bebebe"
         id="rect138" />
    </clipPath>
    <clipPath
       clipPathUnits="userSpaceOnUse"
       id="clipPath140">
      <path
         style="fill:url(#radialGradient4229-9);clip-path:none"
         d="m 451.38843,133.3713 6.42857,4.71429 0,-11.57143 -6.42857,0 z"
         id="path142"
         clip-path="none" />
    </clipPath>
    <clipPath
       clipPathUnits="userSpaceOnUse"
       id="clipPath144">
      <rect
         width="20"
         x="434"
         y="78"
         rx="4"
         height="20"
         style="color:#bebebe"
         id="rect146" />
    </clipPath>
    <clipPath
       clipPathUnits="userSpaceOnUse"
       id="clipPath148">
      <rect
         width="16"
         x="432"
         y="116"
         rx="3"
         height="16"
         style="color:#bebebe"
         id="rect150" />
    </clipPath>
    <clipPath
       clipPathUnits="userSpaceOnUse"
       id="clipPath152">
      <path
         style="fill:url(#linearGradient4338);color:#bebebe"
         d="m 328,242.09376 c -7.73199,0 -14,6.26801 -14,14 0,7.73199 6.26801,14 14,14 7.73199,0 14,-6.26801 14,-14 0,-7.73199 -6.26801,-14 -14,-14 z m 0,9.90625 c 2.20914,0 4,1.79086 4,4 0,2.20914 -1.79086,4 -4,4 -2.20914,0 -4,-1.79086 -4,-4 0,-2.20914 1.79086,-4 4,-4 z m 0,1 c -1.65685,0 -3,1.34315 -3,3 0,1.65685 1.34315,3 3,3 1.65685,0 3,-1.34315 3,-3 0,-1.65685 -1.34315,-3 -3,-3 z m 0,1 c 1.10457,0 2,0.89543 2,2 0,1.10457 -0.89543,2 -2,2 -1.10457,0 -2,-0.89543 -2,-2 0,-1.10457 0.89543,-2 2,-2 z"
         id="path154" />
    </clipPath>
    <clipPath
       clipPathUnits="userSpaceOnUse"
       id="clipPath156">
      <rect
         width="22"
         x="433"
         y="77"
         rx="3"
         height="22"
         style="opacity:.2;fill:#6d6d6d;color:#bebebe"
         id="rect158" />
    </clipPath>
    <clipPath
       clipPathUnits="userSpaceOnUse"
       id="clipPath160">
      <path
         style="opacity:.1;fill:#b74049;clip-path:url(#clipPath4112-2)"
         d="m 328,256 15,11 0,-27 -15,0 z"
         id="path162"
         clip-path="url(#clipPath4112-2)" />
    </clipPath>
    <clipPath
       clipPathUnits="userSpaceOnUse"
       id="clipPath164">
      <rect
         width="20"
         x="434"
         y="78"
         rx="4"
         height="20"
         style="color:#bebebe"
         id="rect166" />
    </clipPath>
    <clipPath
       clipPathUnits="userSpaceOnUse"
       id="clipPath168">
      <rect
         width="16"
         x="432"
         y="116"
         rx="2"
         height="16"
         style="opacity:.2;fill:#6d6d6d;color:#bebebe"
         id="rect170" />
    </clipPath>
    <clipPath
       clipPathUnits="userSpaceOnUse"
       id="clipPath172">
      <rect
         width="30"
         x="433"
         y="29"
         rx="4"
         height="30"
         style="opacity:.2;fill:#6d6d6d;color:#bebebe"
         id="rect174" />
    </clipPath>
    <clipPath
       clipPathUnits="userSpaceOnUse"
       id="clipPath176">
      <rect
         width="16"
         x="432"
         y="116"
         rx="3"
         height="16"
         style="color:#bebebe"
         id="rect178" />
    </clipPath>
    <clipPath
       clipPathUnits="userSpaceOnUse"
       id="clipPath180">
      <rect
         width="240"
         x="24"
         y="36"
         rx="50"
         height="240"
         style="fill:#986767;color:#bebebe"
         id="rect182" />
    </clipPath>
    <clipPath
       clipPathUnits="userSpaceOnUse"
       id="clipPath184">
      <rect
         width="22"
         x="433"
         y="77"
         rx="4"
         height="22"
         style="color:#bebebe"
         id="rect186" />
    </clipPath>
    <clipPath
       clipPathUnits="userSpaceOnUse"
       id="clipPath188">
      <rect
         width="30"
         x="433"
         y="29"
         rx="6"
         height="30"
         style="color:#bebebe"
         id="rect190" />
    </clipPath>
    <clipPath
       clipPathUnits="userSpaceOnUse"
       id="clipPath192">
      <rect
         width="22"
         x="433"
         y="77"
         rx="5"
         height="22"
         style="color:#bebebe"
         id="rect194" />
    </clipPath>
    <clipPath
       clipPathUnits="userSpaceOnUse"
       id="clipPath196">
      <path
         style="fill:url(#radialGradient4225-7);clip-path:none"
         d="m 328,256 15,11 0,-27 -15,0 z"
         id="path198"
         clip-path="none" />
    </clipPath>
    <clipPath
       clipPathUnits="userSpaceOnUse"
       id="clipPath200">
      <rect
         width="90"
         x="307"
         y="31"
         rx="18.75"
         height="90"
         style="fill:url(#linearGradient4825-8);color:#bebebe"
         id="rect202" />
    </clipPath>
    <clipPath
       clipPathUnits="userSpaceOnUse"
       id="clipPath204">
      <rect
         width="42"
         x="307"
         y="223"
         rx="9"
         height="42"
         style="fill:url(#linearGradient4895-2);color:#bebebe"
         transform="rotate(90)"
         id="rect206" />
    </clipPath>
    <clipPath
       clipPathUnits="userSpaceOnUse"
       id="clipPath208">
      <rect
         width="60"
         x="306"
         y="142"
         rx="12.5"
         height="60"
         style="fill:url(#linearGradient4863-9);color:#bebebe"
         transform="matrix(0 -1 1 0 0 0)"
         id="rect210" />
    </clipPath>
    <clipPath
       clipPathUnits="userSpaceOnUse"
       id="clipPath212">
      <rect
         width="42"
         x="307"
         y="223"
         rx="9"
         height="42"
         style="fill:url(#linearGradient4895-0);color:#bebebe"
         transform="rotate(90)"
         id="rect214" />
    </clipPath>
    <clipPath
       clipPathUnits="userSpaceOnUse"
       id="clipPath216">
      <rect
         width="22"
         x="433"
         y="77"
         rx="3"
         height="22"
         style="opacity:.2;fill:#6d6d6d;color:#bebebe"
         id="rect218" />
    </clipPath>
    <clipPath
       clipPathUnits="userSpaceOnUse"
       id="clipPath220">
      <rect
         width="16"
         x="432"
         y="116"
         rx="2"
         height="16"
         style="opacity:.2;fill:#6d6d6d;color:#bebebe"
         id="rect222" />
    </clipPath>
    <clipPath
       clipPathUnits="userSpaceOnUse"
       id="clipPath224">
      <rect
         width="60"
         x="306"
         y="142"
         rx="12.5"
         height="60"
         style="fill:url(#linearGradient4863-4);color:#bebebe"
         transform="matrix(0 -1 1 0 0 0)"
         id="rect226" />
    </clipPath>
    <clipPath
       clipPathUnits="userSpaceOnUse"
       id="clipPath228">
      <path
         style="fill:url(#linearGradient4227-3);color:#bebebe"
         d="m 440,126 c -3.31371,0 -6,2.68629 -6,6 0,3.31371 2.68629,6 6,6 3.31371,0 6,-2.68629 6,-6 0,-3.31371 -2.68629,-6 -6,-6 z m 0,3 c 1.65685,0 3,1.34315 3,3 0,1.65685 -1.34315,3 -3,3 -1.65685,0 -3,-1.34315 -3,-3 0,-1.65685 1.34315,-3 3,-3 z m 0,1 c -1.10457,0 -2,0.89543 -2,2 0,1.10457 0.89543,2 2,2 1.10457,0 2,-0.89543 2,-2 0,-1.10457 -0.89543,-2 -2,-2 z m 0,1 c 0.55228,0 1,0.44772 1,1 0,0.55228 -0.44772,1 -1,1 -0.55228,0 -1,-0.44772 -1,-1 0,-0.55228 0.44772,-1 1,-1 z"
         id="path230" />
    </clipPath>
    <clipPath
       clipPathUnits="userSpaceOnUse"
       id="clipPath232">
      <rect
         width="16"
         x="432"
         y="116"
         rx="3"
         height="16"
         style="color:#bebebe"
         id="rect234" />
    </clipPath>
    <clipPath
       clipPathUnits="userSpaceOnUse"
       id="clipPath236">
      <path
         style="fill:url(#radialGradient4229-8);clip-path:none"
         d="m 451.38843,133.3713 6.42857,4.71429 0,-11.57143 -6.42857,0 z"
         id="path238"
         clip-path="none" />
    </clipPath>
    <clipPath
       clipPathUnits="userSpaceOnUse"
       id="clipPath240">
      <path
         style="fill:url(#linearGradient4326-1);color:#bebebe"
         d="m 328,242.09376 c -7.73199,0 -14,6.26801 -14,14 0,7.73199 6.26801,14 14,14 7.73199,0 14,-6.26801 14,-14 0,-7.73199 -6.26801,-14 -14,-14 z m 0,9.90625 c 2.20914,0 4,1.79086 4,4 0,2.20914 -1.79086,4 -4,4 -2.20914,0 -4,-1.79086 -4,-4 0,-2.20914 1.79086,-4 4,-4 z m 0,1 c -1.65685,0 -3,1.34315 -3,3 0,1.65685 1.34315,3 3,3 1.65685,0 3,-1.34315 3,-3 0,-1.65685 -1.34315,-3 -3,-3 z m 0,1 c 1.10457,0 2,0.89543 2,2 0,1.10457 -0.89543,2 -2,2 -1.10457,0 -2,-0.89543 -2,-2 0,-1.10457 0.89543,-2 2,-2 z"
         id="path242" />
    </clipPath>
    <clipPath
       clipPathUnits="userSpaceOnUse"
       id="clipPath244">
      <path
         style="fill:url(#linearGradient4326-1);color:#bebebe"
         d="m 328,242.09376 c -7.73199,0 -14,6.26801 -14,14 0,7.73199 6.26801,14 14,14 7.73199,0 14,-6.26801 14,-14 0,-7.73199 -6.26801,-14 -14,-14 z m 0,9.90625 c 2.20914,0 4,1.79086 4,4 0,2.20914 -1.79086,4 -4,4 -2.20914,0 -4,-1.79086 -4,-4 0,-2.20914 1.79086,-4 4,-4 z m 0,1 c -1.65685,0 -3,1.34315 -3,3 0,1.65685 1.34315,3 3,3 1.65685,0 3,-1.34315 3,-3 0,-1.65685 -1.34315,-3 -3,-3 z m 0,1 c 1.10457,0 2,0.89543 2,2 0,1.10457 -0.89543,2 -2,2 -1.10457,0 -2,-0.89543 -2,-2 0,-1.10457 0.89543,-2 2,-2 z"
         id="path246" />
    </clipPath>
    <clipPath
       clipPathUnits="userSpaceOnUse"
       id="clipPath248">
      <path
         style="fill:url(#radialGradient4225-6);clip-path:none"
         d="m 328,256 15,11 0,-27 -15,0 z"
         id="path250"
         clip-path="none" />
    </clipPath>
    <clipPath
       clipPathUnits="userSpaceOnUse"
       id="clipPath252">
      <path
         style="opacity:.2;color:#bebebe"
         d="m 328,238 c -7.73199,0 -14,6.26801 -14,14 0,7.73199 6.26801,14 14,14 7.73199,0 14,-6.26801 14,-14 0,-7.73199 -6.26801,-14 -14,-14 z m 0,9.90625 c 2.20914,0 4,1.79086 4,4 0,2.20914 -1.79086,4 -4,4 -2.20914,0 -4,-1.79086 -4,-4 0,-2.20914 1.79086,-4 4,-4 z m 0,1 c -1.65685,0 -3,1.34315 -3,3 0,1.65685 1.34315,3 3,3 1.65685,0 3,-1.34315 3,-3 0,-1.65685 -1.34315,-3 -3,-3 z m 0,1 c 1.10457,0 2,0.89543 2,2 0,1.10457 -0.89543,2 -2,2 -1.10457,0 -2,-0.89543 -2,-2 0,-1.10457 0.89543,-2 2,-2 z"
         id="path254" />
    </clipPath>
    <clipPath
       clipPathUnits="userSpaceOnUse"
       id="clipPath256">
      <rect
         width="22"
         x="433"
         y="77"
         rx="5"
         height="22"
         style="color:#bebebe"
         id="rect258" />
    </clipPath>
    <clipPath
       clipPathUnits="userSpaceOnUse"
       id="clipPath260">
      <path
         style="fill:url(#linearGradient4296-6);color:#bebebe"
         d="m 451.38843,127.3713 c -3.31371,0 -6,2.68629 -6,6 0,3.31371 2.68629,6 6,6 3.31371,0 6,-2.68629 6,-6 0,-3.31371 -2.68629,-6 -6,-6 z m 0,3 c 1.65685,0 3,1.34315 3,3 0,1.65685 -1.34315,3 -3,3 -1.65685,0 -3,-1.34315 -3,-3 0,-1.65685 1.34315,-3 3,-3 z m 0,1 c -1.10457,0 -2,0.89543 -2,2 0,1.10457 0.89543,2 2,2 1.10457,0 2,-0.89543 2,-2 0,-1.10457 -0.89543,-2 -2,-2 z m 0,1 c 0.55228,0 1,0.44772 1,1 0,0.55228 -0.44772,1 -1,1 -0.55228,0 -1,-0.44772 -1,-1 0,-0.55228 0.44772,-1 1,-1 z"
         id="path262" />
    </clipPath>
    <clipPath
       clipPathUnits="userSpaceOnUse"
       id="clipPath264">
      <rect
         width="90"
         x="307"
         y="31"
         rx="18.75"
         height="90"
         style="fill:url(#linearGradient4825-6);color:#bebebe"
         id="rect266" />
    </clipPath>
    <clipPath
       id="clipPath4112-5"
       clipPathUnits="userSpaceOnUse">
      <path
         style="opacity:.2;color:#bebebe"
         d="m 328,242.09375 c -7.73199,0 -14,6.26801 -14,14 0,7.73199 6.26801,14 14,14 7.73199,0 14,-6.26801 14,-14 0,-7.73199 -6.26801,-14 -14,-14 z M 328,252 c 2.20914,0 4,1.79086 4,4 0,2.20914 -1.79086,4 -4,4 -2.20914,0 -4,-1.79086 -4,-4 0,-2.20914 1.79086,-4 4,-4 z m 0,1 c -1.65685,0 -3,1.34315 -3,3 0,1.65685 1.34315,3 3,3 1.65685,0 3,-1.34315 3,-3 0,-1.65685 -1.34315,-3 -3,-3 z m 0,1 c 1.10457,0 2,0.89543 2,2 0,1.10457 -0.89543,2 -2,2 -1.10457,0 -2,-0.89543 -2,-2 0,-1.10457 0.89543,-2 2,-2 z"
         id="path269" />
    </clipPath>
    <clipPath
       clipPathUnits="userSpaceOnUse"
       id="clipPath271">
      <path
         style="opacity:.1;fill:#b74049;clip-path:url(#clipPath4112-5)"
         d="m 328,256 15,11 0,-27 -15,0 z"
         id="path273"
         clip-path="url(#clipPath4112-5)" />
    </clipPath>
    <clipPath
       clipPathUnits="userSpaceOnUse"
       id="clipPath275">
      <path
         style="opacity:.2;color:#bebebe"
         d="m 328,238 c -7.73199,0 -14,6.26801 -14,14 0,7.73199 6.26801,14 14,14 7.73199,0 14,-6.26801 14,-14 0,-7.73199 -6.26801,-14 -14,-14 z m 0,8.75 c 2.89949,0 5.25,2.35051 5.25,5.25 0,2.89949 -2.35051,5.25 -5.25,5.25 -2.89949,0 -5.25,-2.35051 -5.25,-5.25 0,-2.89949 2.35051,-5.25 5.25,-5.25 z m 0,1.75 c -1.933,0 -3.5,1.567 -3.5,3.5 0,1.933 1.567,3.5 3.5,3.5 1.933,0 3.5,-1.567 3.5,-3.5 0,-1.933 -1.567,-3.5 -3.5,-3.5 z m 0,1.75 c 0.96649,0 1.75,0.78351 1.75,1.75 0,0.96649 -0.78351,1.75 -1.75,1.75 -0.96649,0 -1.75,-0.78351 -1.75,-1.75 0,-0.96649 0.78351,-1.75 1.75,-1.75 z"
         id="path277" />
    </clipPath>
    <clipPath
       clipPathUnits="userSpaceOnUse"
       id="clipPath279">
      <path
         style="fill:url(#linearGradient4344-8);color:#bebebe"
         d="m 144.00001,75.999997 c -44.1828,0 -80,35.817203 -80,80.000003 0,44.1828 35.8172,80 80,80 44.1828,0 80,-35.8172 80,-80 0,-44.1828 -35.8172,-80.000003 -80,-80.000003 z m 0,56.607143 c 12.62366,0 22.85714,10.23349 22.85714,22.85714 0,12.62366 -10.23348,22.85714 -22.85714,22.85714 -12.62366,0 -22.85714,-10.23348 -22.85714,-22.85714 0,-12.62365 10.23348,-22.85714 22.85714,-22.85714 z m 0,5.71429 c -9.46771,0 -17.14286,7.67514 -17.14286,17.14285 0,9.46772 7.67515,17.14286 17.14286,17.14286 9.46771,0 17.14286,-7.67514 17.14286,-17.14286 0,-9.46771 -7.67515,-17.14285 -17.14286,-17.14285 z m 0,5.71428 c 6.31183,0 11.42857,5.11674 11.42857,11.42857 0,6.31183 -5.11674,11.42857 -11.42857,11.42857 -6.31183,0 -11.42857,-5.11674 -11.42857,-11.42857 0,-6.31183 5.11674,-11.42857 11.42857,-11.42857 z"
         id="path281" />
    </clipPath>
    <clipPath
       clipPathUnits="userSpaceOnUse"
       id="clipPath283">
      <rect
         width="20"
         x="434"
         y="78"
         rx="4"
         height="20"
         style="color:#bebebe"
         id="rect285" />
    </clipPath>
    <clipPath
       clipPathUnits="userSpaceOnUse"
       id="clipPath287">
      <rect
         width="240"
         x="24"
         y="36"
         rx="50"
         height="240"
         style="fill:#986767;color:#bebebe"
         id="rect289" />
    </clipPath>
    <clipPath
       clipPathUnits="userSpaceOnUse"
       id="clipPath291">
      <rect
         width="30"
         x="433"
         y="29"
         rx="6"
         height="30"
         style="color:#bebebe"
         id="rect293" />
    </clipPath>
    <clipPath
       clipPathUnits="userSpaceOnUse"
       id="clipPath295">
      <rect
         width="22"
         x="433"
         y="77"
         rx="4"
         height="22"
         style="color:#bebebe"
         id="rect297" />
    </clipPath>
    <clipPath
       clipPathUnits="userSpaceOnUse"
       id="clipPath299">
      <path
         style="fill:url(#linearGradient4203-4);color:#bebebe"
         d="m 444,88 c -4.41828,0 -8,3.58172 -8,8 0,4.41828 3.58172,8 8,8 4.41828,0 8,-3.58172 8,-8 0,-4.41828 -3.58172,-8 -8,-8 z m 0,5 c 1.65685,0 3,1.34315 3,3 0,1.65685 -1.34315,3 -3,3 -1.65685,0 -3,-1.34315 -3,-3 0,-1.65685 1.34315,-3 3,-3 z m 0,1 c -1.10457,0 -2,0.89543 -2,2 0,1.10457 0.89543,2 2,2 1.10457,0 2,-0.89543 2,-2 0,-1.10457 -0.89543,-2 -2,-2 z m 0,1 c 0.55228,0 1,0.44772 1,1 0,0.55228 -0.44772,1 -1,1 -0.55228,0 -1,-0.44772 -1,-1 0,-0.55228 0.44772,-1 1,-1 z"
         id="path301" />
    </clipPath>
    <linearGradient
       gradientTransform="translate(11.38843 1.3713)"
       xlink:href="#linearGradient4174-3"
       id="linearGradient4296-6"
       y1="140"
       y2="124"
       gradientUnits="userSpaceOnUse"
       x2="0" />
    <linearGradient
       id="linearGradient4126-5-6">
      <stop
         offset="0"
         style="stop-color:#eaba31"
         id="stop305" />
      <stop
         offset="1"
         style="stop-color:#ff9200"
         id="stop307" />
    </linearGradient>
    <linearGradient
       gradientTransform="translate(0 4.09376)"
       xlink:href="#linearGradient4174-3"
       id="linearGradient4326-1"
       y1="273"
       y2="231"
       gradientUnits="userSpaceOnUse"
       x2="0" />
    <linearGradient
       id="linearGradient4126-5-5">
      <stop
         offset="0"
         style="stop-color:#eaba31"
         id="stop311" />
      <stop
         offset="1"
         style="stop-color:#ff9200"
         id="stop313" />
    </linearGradient>
    <linearGradient
       id="linearGradient4203-6"
       xlink:href="#linearGradient4174-6"
       y1="107"
       y2="85"
       x2="0"
       gradientUnits="userSpaceOnUse" />
    <linearGradient
       gradientTransform="translate(0 4.09376)"
       id="linearGradient4338"
       xlink:href="#linearGradient4174"
       y1="273"
       y2="231"
       x2="0"
       gradientUnits="userSpaceOnUse" />
    <linearGradient
       id="linearGradient4306"
       xlink:href="#linearGradient4174"
       y1="140"
       y2="124"
       x2="0"
       gradientUnits="userSpaceOnUse" />
    <linearGradient
       gradientTransform="matrix(.175 0 0 .175 302.79999 215.99997)"
       id="linearGradient4895"
       xlink:href="#outerBackgroundGradient"
       y1="280"
       y2="40"
       x2="0"
       gradientUnits="userSpaceOnUse" />
    <linearGradient
       id="linearGradient4174-6">
      <stop
         offset="0"
         style="stop-color:#818181"
         id="stop320" />
      <stop
         offset="1"
         style="stop-color:#c5c5c5"
         id="stop322" />
    </linearGradient>
    <linearGradient
       gradientTransform="matrix(.175 0 0 .175 302.79999 215.99997)"
       xlink:href="#outerBackgroundGradient-7"
       id="linearGradient4895-0"
       y1="280"
       y2="40"
       gradientUnits="userSpaceOnUse"
       x2="0" />
    <linearGradient
       gradientTransform="matrix(.25 0 0 .25 299.99999 131.99999)"
       xlink:href="#outerBackgroundGradient-7"
       id="linearGradient4863-9"
       y1="230"
       y2="90"
       gradientUnits="userSpaceOnUse"
       x2="0" />
    <linearGradient
       gradientTransform="matrix(.25 0 0 .25 299.99999 131.99999)"
       id="linearGradient4863"
       xlink:href="#outerBackgroundGradient"
       y1="230"
       y2="90"
       x2="0"
       gradientUnits="userSpaceOnUse" />
    <linearGradient
       gradientTransform="matrix(1.10525,0,0,1.10525,-134.27874,-295.76115)"
       xlink:href="#linearGradient4520"
       id="linearGradient5390"
       y1="279.088"
       y2="268.363"
       gradientUnits="userSpaceOnUse"
       x2="0" />
    <linearGradient
       gradientTransform="matrix(.375 0 0 .375 298 16)"
       xlink:href="#outerBackgroundGradient-7"
       id="linearGradient4825-8"
       y1="230"
       y2="90"
       gradientUnits="userSpaceOnUse"
       x2="0" />
    <linearGradient
       id="linearGradient4227-4"
       xlink:href="#linearGradient4174-6"
       y1="140"
       y2="124"
       x2="0"
       gradientUnits="userSpaceOnUse" />
    <linearGradient
       id="outerBackgroundGradient-7">
      <stop
         offset="0"
         style="stop-color:#f0f0f0"
         id="stop331" />
      <stop
         offset="1"
         style="stop-color:#f8f8f8"
         id="stop333" />
    </linearGradient>
    <linearGradient
       gradientTransform="matrix(5.71429 0 0 5.71429 -1730.2857 -1284)"
       xlink:href="#linearGradient4174-3"
       id="linearGradient4344-8"
       y1="273"
       y2="231"
       gradientUnits="userSpaceOnUse"
       x2="0" />
    <linearGradient
       gradientTransform="translate(11.38843 1.3713)"
       id="linearGradient4296"
       xlink:href="#linearGradient4174"
       y1="140"
       y2="124"
       x2="0"
       gradientUnits="userSpaceOnUse" />
    <linearGradient
       gradientTransform="matrix(.175 0 0 .175 302.79999 215.99997)"
       xlink:href="#outerBackgroundGradient-77"
       id="linearGradient4895-2"
       y1="280"
       y2="40"
       gradientUnits="userSpaceOnUse"
       x2="0" />
    <linearGradient
       gradientTransform="matrix(5.71429 0 0 5.71429 -1730.2857 -1284)"
       id="linearGradient4344"
       xlink:href="#linearGradient4174"
       y1="273"
       y2="231"
       x2="0"
       gradientUnits="userSpaceOnUse" />
    <linearGradient
       id="linearGradient4520">
      <stop
         offset="0"
         style="stop-color:#ccc"
         id="stop340" />
      <stop
         offset="1"
         style="stop-color:#eaeaea"
         id="stop342" />
    </linearGradient>
    <linearGradient
       gradientTransform="matrix(.375 0 0 .375 298 16)"
       xlink:href="#outerBackgroundGradient-77"
       id="linearGradient4825-6"
       y1="230"
       y2="90"
       gradientUnits="userSpaceOnUse"
       x2="0" />
    <linearGradient
       gradientTransform="translate(11.38843 1.3713)"
       xlink:href="#linearGradient4174-6"
       id="linearGradient4296-69"
       y1="140"
       y2="124"
       gradientUnits="userSpaceOnUse"
       x2="0" />
    <linearGradient
       gradientTransform="matrix(.25 0 0 .25 299.99999 131.99999)"
       xlink:href="#outerBackgroundGradient-77"
       id="linearGradient4863-4"
       y1="230"
       y2="90"
       gradientUnits="userSpaceOnUse"
       x2="0" />
    <linearGradient
       gradientTransform="translate(0 4.09376)"
       xlink:href="#linearGradient4174-6"
       id="linearGradient4326-13"
       y1="273"
       y2="231"
       gradientUnits="userSpaceOnUse"
       x2="0" />
    <linearGradient
       id="outerBackgroundGradient-77">
      <stop
         offset="0"
         style="stop-color:#f0f0f0"
         id="stop349" />
      <stop
         offset="1"
         style="stop-color:#f8f8f8"
         id="stop351" />
    </linearGradient>
    <linearGradient
       gradientTransform="matrix(5.71429 0 0 5.71429 -1730.2857 -1284)"
       xlink:href="#linearGradient4174-6"
       id="linearGradient4344-1"
       y1="273"
       y2="231"
       gradientUnits="userSpaceOnUse"
       x2="0" />
    <linearGradient
       id="outerBackgroundGradient">
      <stop
         offset="0"
         style="stop-color:#f0f0f0"
         id="stop355" />
      <stop
         offset="1"
         style="stop-color:#f8f8f8"
         id="stop357" />
    </linearGradient>
    <linearGradient
       gradientTransform="matrix(.375 0 0 .375 298 16)"
       id="linearGradient4825"
       xlink:href="#outerBackgroundGradient"
       y1="230"
       y2="90"
       x2="0"
       gradientUnits="userSpaceOnUse" />
    <linearGradient
       id="linearGradient4174">
      <stop
         offset="0"
         style="stop-color:#818181"
         id="stop361" />
      <stop
         offset="1"
         style="stop-color:#c5c5c5"
         id="stop363" />
    </linearGradient>
    <linearGradient
       id="linearGradient4377"
       xlink:href="#linearGradient4174"
       y1="107"
       y2="85"
       x2="0"
       gradientUnits="userSpaceOnUse" />
    <linearGradient
       id="linearGradient4174-3">
      <stop
         offset="0"
         style="stop-color:#818181"
         id="stop367" />
      <stop
         offset="1"
         style="stop-color:#c5c5c5"
         id="stop369" />
    </linearGradient>
    <linearGradient
       id="linearGradient4203-4"
       xlink:href="#linearGradient4174-3"
       y1="107"
       y2="85"
       x2="0"
       gradientUnits="userSpaceOnUse" />
    <linearGradient
       id="linearGradient4126-5">
      <stop
         offset="0"
         style="stop-color:#eaba31"
         id="stop373" />
      <stop
         offset="1"
         style="stop-color:#ff9200"
         id="stop375" />
    </linearGradient>
    <linearGradient
       id="linearGradient4227-3"
       xlink:href="#linearGradient4174-3"
       y1="140"
       y2="124"
       x2="0"
       gradientUnits="userSpaceOnUse" />
    <radialGradient
       cx="328"
       cy="255.416"
       gradientTransform="matrix(2.85714 0 0 2.85714 -609.14349 -473.66662)"
       r="7"
       id="radialGradient4250"
       xlink:href="#linearGradient4126-5"
       gradientUnits="userSpaceOnUse" />
    <radialGradient
       cx="328"
       cy="255.416"
       gradientTransform="matrix(1.22449 0 0 1.22449 49.7555 -179.34296)"
       r="7"
       id="radialGradient4279"
       xlink:href="#linearGradient4126-5"
       gradientUnits="userSpaceOnUse" />
    <radialGradient
       cx="328"
       cy="255.416"
       gradientTransform="matrix(2.85714 0 0 2.85714 -609.14349 -473.66662)"
       r="7"
       id="radialGradient4225-7"
       xlink:href="#linearGradient4126-5-5"
       gradientUnits="userSpaceOnUse" />
    <radialGradient
       cx="328"
       cy="255.416"
       gradientTransform="matrix(2.85714 0 0 2.85714 -609.14349 -473.66662)"
       r="7"
       id="radialGradient4225-6"
       xlink:href="#linearGradient4126-5-6"
       gradientUnits="userSpaceOnUse" />
    <radialGradient
       cx="328"
       cy="255.416"
       gradientTransform="matrix(1.22449 0 0 1.22449 49.7555 -179.34296)"
       r="7"
       id="radialGradient4229-8"
       xlink:href="#linearGradient4126-5-6"
       gradientUnits="userSpaceOnUse" />
    <radialGradient
       cx="328"
       cy="255.416"
       gradientTransform="matrix(1.22449 0 0 1.22449 49.7555 -179.34296)"
       r="7"
       id="radialGradient4229-9"
       xlink:href="#linearGradient4126-5-5"
       gradientUnits="userSpaceOnUse" />
    <linearGradient
       inkscape:collect="always"
       xlink:href="#linearGradient4520"
       id="linearGradient3382"
       gradientUnits="userSpaceOnUse"
       gradientTransform="matrix(1.10525,0,0,1.10525,-134.27874,-295.76115)"
       y1="279.088"
       x2="0"
       y2="268.363" />
  </defs>
  <rect
     width="12.982"
     x=".273"
     y=".293"
     rx="6.491"
     height="12.982"
     style="opacity:.5;fill:#fff;color:#bebebe;stroke-width:.184"
     id="rect384" />
  <rect
     id="rect388"
     style="color:#000000;fill:url(#linearGradient3382);fill-rule:evenodd"
     height="11.853"
     rx="5.9260001"
     y="0.85699999"
     x="0.838"
     width="11.853" />
  <path
     inkscape:connector-curvature="0"
     id="path390"
     d="m 7.2987045,6.2579988 c 0,0.3848166 0.0093,0.7057288 -0.1766867,1.0474801 -0.1501181,0.2778466 -0.3879142,0.4487219 -0.6536088,0.4487219 -0.3626729,0 -0.5738995,-0.2889609 -0.5738995,-0.7154546 0,-0.8418736 0.7213598,-0.9946888 1.404195,-0.9946888 l 0,0.2139414 m 0.952514,2.4075365 C 8.1887808,8.7238828 8.0984436,8.7280511 8.0280347,8.689153 7.7145161,8.4168638 7.6587196,8.290444 7.4860182,8.030658 6.9679143,8.5835715 6.601257,8.7488892 5.9290494,8.7488892 c -0.7944266,0 -1.4134935,-0.512626 -1.4134935,-1.5392666 0,-0.8015866 0.4158116,-1.3475544 1.0069813,-1.6142864 0.51279,-0.2361703 1.2288364,-0.2778464 1.7761673,-0.3431401 l 0,-0.1278092 c 0,-0.2347807 0.017271,-0.512627 -0.1142487,-0.7154537 C 7.068878,4.2269433 6.8483527,4.1519248 6.6543951,4.1519248 c -0.3600151,0 -0.6815059,0.1931031 -0.7598856,0.5932015 -0.015942,0.088911 -0.078381,0.1764329 -0.1634019,0.1806006 L 4.8144621,4.8229228 C 4.7374105,4.804864 4.6523883,4.7395687 4.6736439,4.6159284 4.884871,3.4545316 5.8878669,3.1044446 6.7859145,3.1044446 c 0.4596503,0 1.0601193,0.1278092 1.4227923,0.4917876 0.459652,0.4487214 0.4158115,1.0474801 0.4158115,1.6990297 l 0,1.5392676 c 0,0.4626145 0.1833299,0.6654411 0.3560317,0.9155036 0.061108,0.088911 0.074397,0.1958808 -0.00264,0.262564 C 8.785264,8.1806946 8.4425185,8.4932716 8.2538746,8.6683145 l -0.00266,-0.00279"
     style="fill:#221f1f;fill-rule:evenodd" />
  <g
     id="g392"
     transform="matrix(0.30367,0,0,0.31111,2.36639,6.27381)"
     style="fill:#309000;fill-rule:evenodd;fill-opacity:1">
    <path
       inkscape:connector-curvature="0"
       id="path394"
       d="m 24.271957,10.407792 c -2.645985,1.950302 -6.48118,2.990858 -9.783212,2.990858 -4.6299808,0 -8.7981513,-1.712458 -11.9515339,-4.5606101 C 2.2894602,8.6140713 2.5114441,8.3088425 2.8087472,8.4832586 6.2118614,10.46329 10.419675,11.65448 14.766228,11.65448 c 2.931394,0 6.156129,-0.606497 9.121219,-1.8650747 0.447935,-0.190274 0.822535,0.2933377 0.38451,0.6183867"
       style="fill:#309000;fill-opacity:1" />
    <path
       inkscape:connector-curvature="0"
       id="path396"
       d="M 25.371975,9.1492153 C 25.035032,8.717137 23.136265,8.9450683 22.284,9.0461513 22.024355,9.0778613 21.984716,8.8519142 22.21859,8.6893878 23.730866,7.6250476 26.212346,7.9322594 26.50172,8.2890215 26.791093,8.6477666 26.4264,11.135193 25.0053,12.322416 c -0.218021,0.182345 -0.426132,0.08523 -0.329013,-0.156579 0.319103,-0.796768 1.03461,-2.5825607 0.695686,-3.0166217"
       style="fill:#309000;fill-opacity:1" />
  </g>
</svg>
