<?xml version="1.0" encoding="UTF-8" standalone="no"?>
<svg
   xmlns:dc="http://purl.org/dc/elements/1.1/"
   xmlns:cc="http://creativecommons.org/ns#"
   xmlns:rdf="http://www.w3.org/1999/02/22-rdf-syntax-ns#"
   xmlns:svg="http://www.w3.org/2000/svg"
   xmlns="http://www.w3.org/2000/svg"
   xmlns:xlink="http://www.w3.org/1999/xlink"
   xmlns:sodipodi="http://sodipodi.sourceforge.net/DTD/sodipodi-0.dtd"
   xmlns:inkscape="http://www.inkscape.org/namespaces/inkscape"
   viewBox="0 0 48 48"
   id="svg2"
   version="1.1"
   inkscape:version="0.48.4 r9939"
   width="100%"
   height="100%"
   sodipodi:docname="audiobook.svg">
  <metadata
     id="metadata34">
    <rdf:RDF>
      <cc:Work
         rdf:about="">
        <dc:format>image/svg+xml</dc:format>
        <dc:type
           rdf:resource="http://purl.org/dc/dcmitype/StillImage" />
      </cc:Work>
    </rdf:RDF>
  </metadata>
  <sodipodi:namedview
     pagecolor="#ffffff"
     bordercolor="#666666"
     borderopacity="1"
     objecttolerance="10"
     gridtolerance="10"
     guidetolerance="10"
     inkscape:pageopacity="0"
     inkscape:pageshadow="2"
     inkscape:window-width="1280"
     inkscape:window-height="969"
     id="namedview32"
     showgrid="true"
     inkscape:zoom="13.906433"
     inkscape:cx="28.355686"
     inkscape:cy="26.031892"
     inkscape:window-x="0"
     inkscape:window-y="0"
     inkscape:window-maximized="1"
     inkscape:current-layer="svg2">
    <inkscape:grid
       type="xygrid"
       id="grid3011" />
  </sodipodi:namedview>
  <defs
     id="defs4">
    <linearGradient
       id="linearGradient3795">
      <stop
         offset="0"
         style="stop-color:#9f1e25"
         id="stop7" />
      <stop
         offset="1"
         style="stop-color:#e16459"
         id="stop9" />
    </linearGradient>
    <linearGradient
       xlink:href="#linearGradient3795"
       id="linearGradient3801"
       y1="1053.158"
       y2="1004.847"
       x2="0"
       gradientUnits="userSpaceOnUse" />
    <linearGradient
       inkscape:collect="always"
       xlink:href="#linearGradient3795"
       id="linearGradient3004"
       gradientUnits="userSpaceOnUse"
       y1="1053.158"
       x2="0"
       y2="1004.847" />
    <linearGradient
       gradientTransform="matrix(1.00914,0,0,1.00914,-0.06156,-286.10572)"
       xlink:href="#linearGradient3778"
       id="linearGradient3018"
       y1="284.29999"
       x1="6.9390001"
       y2="296.15302"
       gradientUnits="userSpaceOnUse"
       x2="6.9400001" />
    <linearGradient
       id="linearGradient3778">
      <stop
         offset="0"
         style="stop-color:#ff3e25"
         id="stop7-9" />
      <stop
         offset="1"
         style="stop-color:#e81b00"
         id="stop9-8" />
    </linearGradient>
    <linearGradient
       y2="296.15302"
       x2="6.9400001"
       y1="284.29999"
       x1="6.9390001"
       gradientTransform="matrix(1.00914,0,0,1.00914,-0.06156,-286.10572)"
       gradientUnits="userSpaceOnUse"
       id="linearGradient3032"
       xlink:href="#linearGradient3778"
       inkscape:collect="always" />
    <linearGradient
       inkscape:collect="always"
       xlink:href="#linearGradient3778"
       id="linearGradient3028"
       gradientUnits="userSpaceOnUse"
       gradientTransform="matrix(3.5756928,0,0,3.5756928,30.781874,-1020.7604)"
       x1="6.9390001"
       y1="284.29999"
       x2="6.9400001"
       y2="296.15302" />
  </defs>
  <rect
     id="rect14-8"
     style="opacity:0.5;fill:#ffffff;fill-rule:evenodd"
     height="46"
     rx="23"
     y="1"
     x="1"
     width="46" />
  <g
     id="g2994"
     transform="matrix(0.875,0,0,0.875,3,3.0001754)">
    <g
       id="g12"
       transform="translate(0,-1004.3622)">
      <rect
         id="rect14"
         style="fill:url(#linearGradient3004)"
         height="48"
         rx="24"
         y="1004.362"
         x="0"
         width="48" />
      <path
         id="path16"
         d="m 14.508168,1013.3646 c -1.497345,0 -1.497345,1.4973 -1.497345,1.4973 l 0,2.5737 c -7.31e-4,0.023 -7.31e-4,0.047 0,0.07 l -2.74e-4,22.8377 c 0,1.4973 2.166063,2.9946 2.754052,2.9947 l 18.102116,0.026 c 0.58799,-10e-5 1.12295,-0.535 1.123009,-1.123 l 0,-24.7359 c -5.9e-5,-0.588 -0.535019,-1.123 -1.123009,-1.123 -4.009505,-0.023 -16.875486,-0.027 -16.875486,-0.027 l -1.984114,-1.9483 c 5.61512,-0.05 12.111036,0 17.837669,0 0.748672,0 -1.093707,-1.0462 -1.842379,-1.0462 z m 2.586943,5.0837 15.889234,0 0,22.9712 -15.889234,0 z"
         style="line-height:normal;color:#000000;fill:#fffffd"
         inkscape:connector-curvature="0" />
    </g>
    <g
       id="g18"
       transform="translate(-1,-1004.3622)">
      <path
         id="path20"
         transform="translate(0,1004.3622)"
         d="m 20,24 0,4 2,0 4,4 0,-12 -4,4 z"
         style="fill:#fffffd"
         inkscape:connector-curvature="0" />
    </g>
    <g
       id="g22"
       transform="translate(-1,-1004.3622)"
       style="line-height:normal;color:#000000;fill:#ffffff">
      <path
         id="path24"
         d="m 27.164336,1026.8622 -0.244755,0.7342 c 0,0 2.080419,0.6772 2.080419,2.7658 0,2.0885 -2.080419,2.7658 -2.080419,2.7658 l 0.244755,0.7342 c 0,0 2.618881,-0.8893 2.618881,-3.5 0,-2.6108 -2.618881,-3.5 -2.618881,-3.5 z"
         inkscape:connector-curvature="0" />
      <path
         id="path26"
         d="m 27.63693,1024.3622 -0.41958,1.2587 c 0,0 3.566434,1.1607 3.566434,4.7412 0,3.5805 -3.566434,4.7414 -3.566434,4.7414 l 0.41958,1.2587 c 0,0 4.489511,-1.5246 4.489511,-6.0001 0,-4.4755 -4.489511,-5.9999 -4.489511,-5.9999 z"
         inkscape:connector-curvature="0" />
    </g>
  </g>
</svg>
