<?xml version="1.0" encoding="UTF-8" standalone="no"?>
<svg
   xmlns:dc="http://purl.org/dc/elements/1.1/"
   xmlns:cc="http://creativecommons.org/ns#"
   xmlns:rdf="http://www.w3.org/1999/02/22-rdf-syntax-ns#"
   xmlns:svg="http://www.w3.org/2000/svg"
   xmlns="http://www.w3.org/2000/svg"
   xmlns:xlink="http://www.w3.org/1999/xlink"
   xmlns:sodipodi="http://sodipodi.sourceforge.net/DTD/sodipodi-0.dtd"
   xmlns:inkscape="http://www.inkscape.org/namespaces/inkscape"
   width="48"
   viewBox="0 0 13.546667 13.546667"
   height="48"
   id="svg2"
   version="1.1"
   inkscape:version="0.48.4 r9939"
   sodipodi:docname="easylife.svg">
  <metadata
     id="metadata22">
    <rdf:RDF>
      <cc:Work
         rdf:about="">
        <dc:format>image/svg+xml</dc:format>
        <dc:type
           rdf:resource="http://purl.org/dc/dcmitype/StillImage" />
        <dc:title></dc:title>
      </cc:Work>
    </rdf:RDF>
  </metadata>
  <sodipodi:namedview
     pagecolor="#ffffff"
     bordercolor="#666666"
     borderopacity="1"
     objecttolerance="10"
     gridtolerance="10"
     guidetolerance="10"
     inkscape:pageopacity="0"
     inkscape:pageshadow="2"
     inkscape:window-width="1366"
     inkscape:window-height="742"
     id="namedview20"
     showgrid="false"
     inkscape:zoom="4.9166667"
     inkscape:cx="24.40678"
     inkscape:cy="24"
     inkscape:window-x="0"
     inkscape:window-y="26"
     inkscape:window-maximized="1"
     inkscape:current-layer="svg2" />
  <defs
     id="defs4">
    <linearGradient
       id="linearGradient4460">
      <stop
         offset="0"
         style="stop-color:#58246d;stop-opacity:1;"
         id="stop7" />
      <stop
         offset="1"
         style="stop-color:#8e6394;stop-opacity:1;"
         id="stop9" />
    </linearGradient>
    <linearGradient
       gradientTransform="matrix(1.10526,0,0,1.10526,-134.28025,-295.76491)"
       xlink:href="#linearGradient4460"
       id="linearGradient3001"
       y1="279.096"
       y2="268.33"
       gradientUnits="userSpaceOnUse"
       x2="0" />
    <linearGradient
       inkscape:collect="always"
       xlink:href="#linearGradient10924"
       id="linearGradient3000"
       gradientUnits="userSpaceOnUse"
       gradientTransform="matrix(1.10526,0,0,1.10526,-134.28025,-309.31191)"
       y1="279.09601"
       x2="0"
       y2="268.32999" />
    <linearGradient
       gradientUnits="userSpaceOnUse"
       x2="0"
       y2="1004.847"
       y1="1053.158"
       xlink:href="#linearGradient10924"
       id="linearGradient10355"
       gradientTransform="translate(-435.42857,-1440.7244)" />
    <linearGradient
       id="linearGradient10924">
      <stop
         id="stop3776"
         style="stop-color:#26c2f0"
         offset="0" />
      <stop
         id="stop3778"
         style="stop-color:#305bbd"
         offset="1" />
    </linearGradient>
    <linearGradient
       inkscape:collect="always"
       xlink:href="#linearGradient10924"
       id="linearGradient3815"
       gradientUnits="userSpaceOnUse"
       gradientTransform="translate(-435.42857,-1440.7244)"
       y1="1053.158"
       x2="0"
       y2="1004.847" />
    <linearGradient
       inkscape:collect="always"
       xlink:href="#linearGradient10924"
       id="linearGradient3818"
       gradientUnits="userSpaceOnUse"
       gradientTransform="matrix(0.28222223,0,0,0.28222223,16.990848,-297.86105)"
       y1="1053.158"
       x2="0"
       y2="1004.847" />
  </defs>
  <rect
     id="rect14"
     style="opacity:0.5;fill:#ffffff;fill-rule:evenodd"
     height="12.982"
     rx="6.4910002"
     y="0.28200001"
     x="0.28200001"
     width="12.982" />
  <rect
     id="rect16"
     style="fill:url(#linearGradient3000);fill-opacity:1;fill-rule:evenodd"
     height="11.853"
     rx="5.9260001"
     y="-12.7"
     x="0.847"
     width="11.853"
     transform="scale(1,-1)" />
  <path
     style="fill:#f9f9f9;color:#000;fill-opacity:1"
     d="M 6.0079411,3.1044446 C 5.5414075,3.2015486 5.103733,3.3835853 4.7184227,3.6362881 4.7296575,3.9167318 4.6329776,4.2036161 4.4189215,4.4174332 4.2048626,4.6312475 3.9176529,4.7278117 3.6368915,4.7165952 3.3839022,5.101469 3.2016583,5.5386496 3.1044445,6.0046536 c 0.2081311,0.1902324 0.3327792,0.4605206 0.3327792,0.764525 0,0.3040044 -0.1246481,0.5826053 -0.3327792,0.7728351 0.097214,0.4660064 0.2794577,0.8948745 0.532447,1.2797482 0.2807614,-0.011222 0.5679711,0.093658 0.78203,0.3074721 0.214057,0.213817 0.3107313,0.4923913 0.2995012,0.772835 0.3853103,0.252703 0.8229848,0.44305 1.2895184,0.540153 0.190447,-0.207894 0.461046,-0.340712 0.765392,-0.340712 0.30435,0 0.574944,0.132818 0.765392,0.340712 0.465023,-0.09679 0.905135,-0.288711 1.289519,-0.540153 -5.32e-4,-0.015025 0,-0.026539 0,-0.04155 0,-0.26627 0.09611,-0.5281259 0.299501,-0.7312847 0.214059,-0.2138144 0.50127,-0.3186886 0.782031,-0.3074721 0.2529889,-0.3848738 0.4352329,-0.8137418 0.5324459,-1.2797483 -0.20813,-0.1902297 -0.332778,-0.4688306 -0.332778,-0.772835 0,-0.3040045 0.124648,-0.5742926 0.332778,-0.764525 C 10.345009,5.5386498 10.162765,5.1014692 9.9097761,4.7165954 9.6290151,4.7278175 9.3418041,4.631248 9.1277451,4.4174333 8.9243591,4.2142745 8.8282441,3.9524187 8.8282441,3.6861486 c 0,-0.015024 -5.32e-4,-0.034844 0,-0.049861 -0.384384,-0.2514423 -0.824496,-0.4350533 -1.289519,-0.5318435 -0.190448,0.207895 -0.461042,0.3407122 -0.765392,0.3407122 -0.304346,0 -0.574945,-0.1328172 -0.765392,-0.3407122 z m 1.846924,1.1717177 c 0.118744,0 0.20623,0.012817 0.316141,0.04155 0.160295,0.041984 0.291109,0.1714132 0.291181,0.3240922 7.2e-5,0.184571 -0.132318,0.3157821 -0.332778,0.3157821 -0.0955,0 -0.134712,-0.01662 -0.274544,-0.01662 -0.412697,0 -0.748058,0.3356995 -0.748753,0.7479048 l 0,0.6481843 c 0,0.058338 0.0498,0.099721 0.108153,0.099721 l 0.49085,0 c 0.18306,0 0.332636,0.1490731 0.332779,0.3324022 0,0.1834009 -0.14979,0.3324022 -0.332779,0.3324022 l -0.599003,0 0,0.7479048 c 0,0.781778 -0.631646,1.4210193 -1.41431,1.4210193 -0.1187673,0 -0.2062301,-0.012791 -0.3161399,-0.04155 C 5.2153635,9.1869946 5.0845518,9.0491834 5.0844801,8.8965523 c 0,-0.1845231 0.1405448,-0.315782 0.3410983,-0.315782 0.095406,0 0.1264668,0.01662 0.2662237,0.01662 0.412693,0 0.748106,-0.3275332 0.748752,-0.7395948 l 0,-0.6564943 c 0,-0.058216 -0.0498,-0.099721 -0.108153,-0.099721 l -0.490848,0 c -0.1831039,0 -0.3327794,-0.1489534 -0.3327794,-0.3324021 -4.81e-5,-0.1844779 0.1560547,-0.3324022 0.3410984,-0.3324022 l 0.590682,0 0,-0.7479049 c 0,-0.7818498 0.631524,-1.4127092 1.414311,-1.4127092 z"
     id="path18" />
</svg>
