<?xml version="1.0" encoding="UTF-8" standalone="no"?>
<svg
   xmlns:dc="http://purl.org/dc/elements/1.1/"
   xmlns:cc="http://creativecommons.org/ns#"
   xmlns:rdf="http://www.w3.org/1999/02/22-rdf-syntax-ns#"
   xmlns:svg="http://www.w3.org/2000/svg"
   xmlns="http://www.w3.org/2000/svg"
   xmlns:xlink="http://www.w3.org/1999/xlink"
   xmlns:sodipodi="http://sodipodi.sourceforge.net/DTD/sodipodi-0.dtd"
   xmlns:inkscape="http://www.inkscape.org/namespaces/inkscape"
   width="48"
   viewBox="0 0 13.546667 13.546667"
   height="48"
   id="svg2"
   version="1.1"
   inkscape:version="0.48.4 r9939"
   sodipodi:docname="espeak-gui.svg">
  <metadata
     id="metadata24">
    <rdf:RDF>
      <cc:Work
         rdf:about="">
        <dc:format>image/svg+xml</dc:format>
        <dc:type
           rdf:resource="http://purl.org/dc/dcmitype/StillImage" />
        <dc:title></dc:title>
      </cc:Work>
    </rdf:RDF>
  </metadata>
  <sodipodi:namedview
     pagecolor="#333333"
     bordercolor="#666666"
     borderopacity="1"
     objecttolerance="10"
     gridtolerance="10"
     guidetolerance="10"
     inkscape:pageopacity="1"
     inkscape:pageshadow="2"
     inkscape:window-width="1366"
     inkscape:window-height="742"
     id="namedview22"
     showgrid="false"
     inkscape:zoom="7.32"
     inkscape:cx="23.996868"
     inkscape:cy="24.583767"
     inkscape:window-x="0"
     inkscape:window-y="26"
     inkscape:window-maximized="1"
     inkscape:current-layer="g12" />
  <defs
     id="defs4">
    <linearGradient
       id="linearGradient4460">
      <stop
         offset="0"
         style="stop-color:#dcdcdc;stop-opacity:1;"
         id="stop7" />
      <stop
         offset="1"
         style="stop-color:#f7f7f7;stop-opacity:1;"
         id="stop9" />
    </linearGradient>
    <linearGradient
       gradientTransform="matrix(1.10525 0 0 1.10525 -134.27874 -295.76183)"
       xlink:href="#linearGradient4460"
       id="linearGradient3002"
       y1="279.096"
       y2="268.33"
       gradientUnits="userSpaceOnUse"
       x2="0" />
  </defs>
  <g
     style="fill-rule:evenodd"
     id="g12">
    <rect
       width="12.982"
       x=".282"
       y=".282"
       rx="6.491"
       height="12.982"
       style="opacity:.5;fill:#fff"
       id="rect14" />
    <rect
       width="11.853"
       x=".847"
       y=".847"
       rx="5.926"
       height="11.853"
       style="fill:url(#linearGradient3002)"
       id="rect16" />
  </g>
  <path
     inkscape:connector-curvature="0"
     id="path3007"
     d="m 6.3098124,9.8656597 c -0.01258,-0.01234 -0.07881,-0.02744 -0.147195,-0.03356 -0.259384,-0.0232 -0.579209,-0.3243255 -1.389492,-1.308245 -0.806357,-0.9791519 -1.176613,-1.3056519 -1.651299,-1.4561531 -0.05446,-0.017266 0.0057,-0.089913 0.373428,-0.4508795 0.497716,-0.4885764 0.834034,-0.8430864 1.659131,-1.7488792 0.655118,-0.7191903 0.744717,-0.8064008 0.783938,-0.7630443 0.01517,0.016774 0.114156,0.1576411 0.219959,0.3130374 0.266812,0.3918741 0.474091,0.4972484 0.728778,0.3704881 0.215075,-0.1070454 0.682046,-0.7020821 0.812698,-1.0355786 0.04546,-0.1160432 0.07553,-0.1128774 0.154597,0.016279 0.109221,0.1784038 0.684627,0.8974305 1.061718,1.3267217 0.1966169,0.2238315 0.6205389,0.6645137 0.9420489,0.9792919 0.3215117,0.3147779 0.5843557,0.5858197 0.5841007,0.6023149 -2.4e-4,0.016496 -0.08745,0.0566 -0.193766,0.089121 -0.4642357,0.1420074 -0.8979637,0.5111377 -2.0728066,1.7640953 -0.915873,0.9767679 -1.334715,1.3111084 -1.682147,1.3427694 -0.08845,0.0081 -0.171115,0.0045 -0.183691,-0.0078 z m 0.660332,-1.8119156 c 0.226853,-0.065567 0.262473,-0.089575 0.567611,-0.3825517 0.316295,-0.3036893 0.612319,-0.6956888 0.876796,-1.1610654 0.124736,-0.2194855 0.118961,-0.2938262 -0.02542,-0.3272593 -0.05196,-0.012032 -0.26016,-0.093345 -0.462665,-0.1806958 -0.75234,-0.3245207 -0.994364,-0.3580279 -1.34734,-0.1865339 -0.260942,0.1267793 -0.871234,0.4888053 -1.068927,0.6340895 -0.08205,0.0603 -0.200227,0.1273997 -0.262612,0.1491118 -0.06238,0.021712 -0.120768,0.057889 -0.129741,0.080393 -0.02218,0.055631 0.37698,0.6891167 0.574236,0.9113411 0.190914,0.2150804 0.461433,0.417654 0.643442,0.4818322 0.188512,0.066471 0.35724,0.061509 0.63462,-0.018661 z"
     style="fill:#d30231;fill-opacity:1"
     sodipodi:nodetypes="csssssssssssscsssccssssssssssss" />
</svg>
