<?xml version="1.0" encoding="UTF-8" standalone="no"?>
<svg
   xmlns:dc="http://purl.org/dc/elements/1.1/"
   xmlns:cc="http://creativecommons.org/ns#"
   xmlns:rdf="http://www.w3.org/1999/02/22-rdf-syntax-ns#"
   xmlns:svg="http://www.w3.org/2000/svg"
   xmlns="http://www.w3.org/2000/svg"
   xmlns:xlink="http://www.w3.org/1999/xlink"
   xmlns:sodipodi="http://sodipodi.sourceforge.net/DTD/sodipodi-0.dtd"
   xmlns:inkscape="http://www.inkscape.org/namespaces/inkscape"
   width="48"
   viewBox="0 0 13.546667 13.546667"
   height="48"
   id="svg2"
   version="1.1"
   inkscape:version="0.48.4 r9939"
   sodipodi:docname="thunar-alt.svg">
  <metadata
     id="metadata52">
    <rdf:RDF>
      <cc:Work
         rdf:about="">
        <dc:format>image/svg+xml</dc:format>
        <dc:type
           rdf:resource="http://purl.org/dc/dcmitype/StillImage" />
      </cc:Work>
    </rdf:RDF>
  </metadata>
  <sodipodi:namedview
     pagecolor="#ffffff"
     bordercolor="#666666"
     borderopacity="1"
     objecttolerance="10"
     gridtolerance="10"
     guidetolerance="10"
     inkscape:pageopacity="0"
     inkscape:pageshadow="2"
     inkscape:window-width="1366"
     inkscape:window-height="704"
     id="namedview50"
     showgrid="false"
     inkscape:zoom="4.9166667"
     inkscape:cx="22.949534"
     inkscape:cy="36.390198"
     inkscape:window-x="0"
     inkscape:window-y="27"
     inkscape:window-maximized="1"
     inkscape:current-layer="svg2">
    <inkscape:grid
       type="xygrid"
       id="grid3893" />
  </sodipodi:namedview>
  <defs
     id="defs4">
    <linearGradient
       id="linearGradient3816">
      <stop
         style="stop-color:#5278a8;stop-opacity:1;"
         offset="0"
         id="stop3818" />
      <stop
         style="stop-color:#385272;stop-opacity:1;"
         offset="1"
         id="stop3820" />
    </linearGradient>
    <linearGradient
       gradientTransform="matrix(1.10525,0,0,1.10525,-134.27891,-295.762)"
       xlink:href="#linearGradient4226"
       id="linearGradient5058"
       y1="279.096"
       y2="268.33"
       gradientUnits="userSpaceOnUse"
       x2="0" />
    <linearGradient
       gradientTransform="matrix(0.15522,0,0,0.16176,2.89278,2.83812)"
       xlink:href="#linearGradient2432"
       id="linearGradient4523"
       y1="18"
       y2="11.375"
       gradientUnits="userSpaceOnUse"
       x2="0" />
    <linearGradient
       id="linearGradient4226">
      <stop
         offset="0"
         style="stop-color:#ae2434"
         id="stop9" />
      <stop
         offset="1"
         style="stop-color:#d67038"
         id="stop11" />
    </linearGradient>
    <linearGradient
       id="linearGradient2432">
      <stop
         offset="0"
         style="stop-color:#eeeeec"
         id="stop14" />
      <stop
         offset="1"
         style="stop-color:#eeeeec;stop-opacity:0"
         id="stop16" />
    </linearGradient>
    <linearGradient
       gradientTransform="matrix(1.10525,0,0,1.10525,-134.27874,-295.76183)"
       xlink:href="#linearGradient4460"
       id="linearGradient3002"
       y1="279.09601"
       y2="268.32999"
       gradientUnits="userSpaceOnUse"
       x2="0" />
    <linearGradient
       id="linearGradient4460">
      <stop
         offset="0"
         style="stop-color:#dbdbdb"
         id="stop7" />
      <stop
         offset="1"
         style="stop-color:#f9f9f9"
         id="stop9-4" />
    </linearGradient>
    <linearGradient
       y2="268.32999"
       x2="0"
       y1="279.09601"
       gradientTransform="matrix(1.10525,0,0,1.10525,-134.27891,-295.76199)"
       gradientUnits="userSpaceOnUse"
       id="linearGradient3014"
       xlink:href="#linearGradient4226"
       inkscape:collect="always" />
    <linearGradient
       inkscape:collect="always"
       xlink:href="#linearGradient2432"
       id="linearGradient3938"
       gradientUnits="userSpaceOnUse"
       gradientTransform="matrix(0.15522,0,0,0.16176,16.439447,2.2812194)"
       y1="18"
       x2="0"
       y2="11.375" />
  </defs>
  <rect
     id="rect20"
     style="opacity:0.5;fill:#ffffff;fill-rule:evenodd"
     height="12.982"
     rx="6.4910002"
     y="0.28200001"
     x="0.28200001"
     width="12.982" />
  <rect
     width="11.853"
     x="0.84683365"
     y="0.84683365"
     rx="5.9259996"
     height="11.853"
     style="fill:url(#linearGradient3014);fill-rule:evenodd;fill-opacity:1.0"
     id="rect16" />
  <g
     id="g3842"
     transform="translate(-8.524068,3.3292656)" />
  <g
     id="g24"
     style="fill:#f03c3c;fill-rule:evenodd"
     transform="translate(13.546667,-0.82072738)">
    <path
       inkscape:connector-curvature="0"
       id="path26"
       d="m 4.3977046,8.7691587 c 0,0 0.8484673,0.1394024 1.4877433,-0.048637 C 6.5247238,8.5325126 8.6334465,8.1377256 8.6334465,8.1377256 L 9.0598983,8.7426405 C 9.1908006,8.9563909 8.9891823,9.0512834 8.4496146,9.1203641 7.9100474,9.1894851 7.7549183,8.9368149 6.8562043,9.2766482 5.6734614,9.7238964 3.8682944,9.6760465 3.8682944,9.6760465 l 0.5294102,-0.906908 z" />
    <path
       inkscape:connector-curvature="0"
       id="path28"
       d="M 6.7634461,8.243385 C 7.2962343,8.0013807 8.3200112,7.5652523 8.6637144,8.1429829 c 0,0 0.19307,0.2187755 0.3850775,0.5913025 C 8.2145936,8.048605 7.4083014,8.8632541 6.6425262,9.1234619 L 6.7634461,8.2434052 z" />
  </g>
  <path
     inkscape:connector-curvature="0"
     id="path30"
     d="m 17.681223,2.6047582 c 0,0 1.241778,-0.057214 2.483556,-0.057214 1.241777,0 2.794,0.057214 2.794,0.057214 0,0 0.310444,0.9706104 0.465666,2.2647574 0,0 -0.155222,0.4853001 -0.465666,1.1323737 0,0 -1.552223,0.071543 -2.794,0.071543 -1.241778,0 -2.483556,-0.071543 -2.483556,-0.071543 -0.310444,-0.6470736 -0.465667,-1.1323737 -0.465667,-1.1323737 0.155223,-1.294147 0.465667,-2.2647574 0.465667,-2.2647574 z"
     style="fill:#bfbfbf;fill-opacity:1;fill-rule:evenodd" />
  <path
     inkscape:connector-curvature="0"
     id="path32"
     d="m 19.471129,4.8189615 c -1.424477,0.011705 -2.255573,0.050554 -2.255573,0.050554 l 0.465667,1.1323737 c 0,0 2.615908,0.1000993 5.277556,0 l 0.465666,-1.1323736 c 0,0 -0.302678,-0.01998 -1.12051,-0.035418 L 21.717001,5.4306168 22.051128,4.5766747 C 21.740683,4.7485489 21.634682,4.829042 21.634682,4.829042 21.199571,4.821982 20.909014,4.818951 20.320001,4.818951 c -0.303169,0 -0.58508,-0.00202 -0.848872,0 z"
     style="fill:#9f9f9f;fill-opacity:1;fill-rule:evenodd" />
  <path
     inkscape:connector-curvature="0"
     id="path34"
     d="m 20.83347,8.0831512 c 0,0 0.539716,-0.045105 0.966369,0.023915 0.304692,0.049243 0.758396,-0.1156389 0.758396,-0.1156389 0,0 -0.150953,-0.2963525 -0.674197,-0.2976139 -0.45935,-0.00101 -1.039461,0.3977736 -1.050568,0.3893783 z"
     style="fill-opacity:0.33300003;fill-rule:evenodd" />
  <path
     inkscape:connector-curvature="0"
     id="path36"
     d="m 19.760022,5.415726 c 0,0 0.174963,-0.3235206 0.559883,-0.3235206 0.384919,0 0.559883,0.3235206 0.559883,0.3235206 0.122474,2.2848648 0.264693,3.2352063 0.264693,3.3969673 0,0.16176 0.01525,0.8088021 -0.824576,0.8088021 -0.839824,0 -0.824577,-0.6470421 -0.824577,-0.8088021 0,-0.161761 0.14222,-1.1727626 0.264694,-3.3969673 z"
     style="fill:#8a682e;fill-opacity:1;fill-rule:evenodd" />
  <path
     inkscape:connector-curvature="0"
     id="path38"
     d="m 21.726702,5.4154808 c 0,0 0.145521,-0.4549777 0.339549,-0.8290687 0,0 0.252236,0.080927 0.223132,0.252771 l -0.562681,0.5762977 z"
     style="fill:url(#linearGradient3938);fill-rule:evenodd" />
  <path
     inkscape:connector-curvature="0"
     id="path40"
     d="M 19.516993,8.9243593 C 20.050351,8.5079175 20.888976,8.7241803 20.888976,8.7241803 20.195351,8.3450644 20.285303,7.6231989 20.285303,7.6231989 L 19.93232,8.3164675 19.859989,5.3640519 c 0,0 -0.300122,2.8328715 -0.342996,3.5603074 z"
     style="fill:#c69c55;fill-opacity:1;fill-rule:evenodd" />
  <g
     id="g42"
     style="fill:#f03c3c;fill-rule:evenodd"
     transform="translate(13.546667,-0.82072738)">
    <path
       inkscape:connector-curvature="0"
       id="path44"
       d="m 7.4236527,7.5997826 0.088002,0.5932903 C 6.4826668,7.8213129 5.8740005,9.1772149 5.8740005,9.1772149 L 5.9546555,8.1766251 C 6.4622894,7.1471358 7.4236528,7.5997826 7.4236528,7.5997826 z" />
    <path
       inkscape:connector-curvature="0"
       id="path46"
       d="m 6.0493152,6.9122656 -0.039495,0.623623 C 7.0388076,7.1641386 7.628071,8.5301412 7.628071,8.5301412 L 7.5377154,7.5295516 C 7.0300815,6.5000623 6.0493152,6.9122656 6.0493152,6.9122656 z" />
  </g>
  <path
     inkscape:connector-curvature="0"
     id="path48"
     d="M 18.282207,6.0276658 C 18.07641,5.5558165 18.117569,5.0553703 18.117569,5.0553703 c 0,0 0.470779,0.680403 0.717736,0.9806707 l -0.553098,-0.00807 z"
     style="fill:#9f9f9f;fill-opacity:1;fill-rule:evenodd" />
  <path
     style="fill:#dfdfde;fill-opacity:1;stroke:none"
     d="m 18.121085,5.0637666 0.446653,0.9722316 0.270861,0.00181 z"
     id="path3873"
     inkscape:connector-curvature="0" />
  <path
     style="font-size:medium;font-style:normal;font-variant:normal;font-weight:normal;font-stretch:normal;text-indent:0;text-align:start;text-decoration:none;line-height:normal;letter-spacing:normal;word-spacing:normal;text-transform:none;direction:ltr;block-progression:tb;writing-mode:lr-tb;text-anchor:start;baseline-shift:baseline;opacity:1;color:#000000;fill:#ebebeb;fill-opacity:1;stroke:none;stroke-width:3.20000004999999987;marker:none;visibility:visible;display:inline;overflow:visible;enable-background:accumulate;font-family:Sans;-inkscape-font-specification:Sans"
     d="m 4.645991,3.9478588 c -0.314528,0 -0.620969,0.042425 -0.912597,0.1171579 1.8e-5,-0.0042 -3.3e-5,-0.00816 0,-0.012333 -0.325966,0.084848 -0.569276,0.1940467 -0.61662,0.215817 4.14e-4,0.00609 -3.55e-4,0.012388 0,0.018498 -0.0041,0.00224 -0.0082,0.00393 -0.01233,0.00617 0.03346,0.2629106 0.08222,0.5238324 0.104825,0.641285 0.260987,1.0850946 1.00503,1.9826832 1.991684,2.4541482 -0.0044,0.073414 -0.01233,0.1474734 -0.01233,0.2219832 0,1.0012317 0.4069439,1.9083012 1.060586,2.5713059 -0.0042,0.0021 0.0042,0.004 0,0.0062 0.187493,0.176813 0.448714,0.380253 0.499462,0.419301 0.01364,0.0096 0.0294,0.01521 0.04316,0.02467 C 7.0058547,10.442853 7.2023882,10.234766 7.2542965,10.181895 7.9064111,9.5188904 8.308717,8.6118208 8.308717,7.6105892 c 0,-0.068383 -0.00863,-0.1360197 -0.012332,-0.2034846 1.0012882,-0.4615396 1.759014,-1.356623 2.02868,-2.4479821 -0.004,-0.00224 0.004,-0.004 0,-0.00617 0.0692,-0.2909825 0.1143,-0.6076462 0.117158,-0.6412848 -0.0058,-0.0028 -0.01268,-0.00344 -0.0185,-0.00617 8.67e-4,-0.014241 -0.001,0.00196 0,-0.012332 -0.137086,-0.063449 -0.4546748,-0.1715535 -0.6166201,-0.2219832 1.047e-4,0.010438 0,-0.00425 0,0.00617 -0.3026468,-0.081073 -0.6215375,-0.1294903 -0.949595,-0.1294903 -0.7849629,0 -1.5112197,0.2509414 -2.1088407,0.672116 -0.228866,0.1727497 -0.393659,0.3205566 -0.499463,0.4193017 -0.01124,0.011376 -0.01974,0.025475 -0.03083,0.036997 -0.343099,0.3564166 -0.61211,0.7812124 -0.789274,1.251739 0.191721,0.1151771 0.383912,0.207929 0.554958,0.2898114 0.144927,-0.41414 0.381773,-0.7870454 0.678283,-1.0975838 0.0051,-0.007 0.01231,-0.017365 0.0185,-0.024665 0.01492,-0.017591 0.02762,-0.036032 0.04933,-0.055495 0.0061,-0.00546 0.01244,-0.00692 0.0185,-0.012332 C 6.9600682,5.2401964 7.1282217,5.1194697 7.2542999,5.0392808 7.3165049,5.0005608 7.3805162,4.9626728 7.4454522,4.9282892 7.8675359,4.704795 8.3452166,4.5768158 8.8575123,4.5768158 c 0.3060975,0 0.6035537,0.045837 0.8817668,0.1294902 C 9.5536528,5.5970112 8.9825013,6.3378398 8.2038949,6.7534842 8.0804887,6.2390801 7.8518549,5.764445 7.5379452,5.3599227 7.2758562,5.5443446 7.0507369,5.726789 7.0323167,5.7422271 c 0.2586029,0.3280682 0.4499141,0.7105132 0.5549581,1.128415 0,0 0.012221,0.043899 0.030831,0.123324 0.00915,0.039061 0.016214,0.066395 0.030831,0.1418226 0.036728,0.1895114 0.033091,0.4099836 0.030831,0.4932962 -4.686e-4,0.017271 0,0.067828 0,0.067828 l -0.00617,0.00617 C 7.6485508,8.5257041 7.2998788,9.2623493 6.7486687,9.7934235 6.1782767,9.243745 5.8192987,8.4730771 5.8175727,7.6167543 c 0.304639,0.082342 0.625631,0.1294902 0.955761,0.1294902 0.180155,0 0.3567982,-0.016832 0.5302937,-0.043163 0.00832,-0.063895 0.014424,-0.1345632 0.018498,-0.2404819 0.00731,-0.190128 -0.018748,-0.3214052 -0.036997,-0.394637 -0.1665306,0.027768 -0.3374616,0.043163 -0.5117946,0.043163 -0.308331,0 -0.607602,-0.044661 -0.887933,-0.1294902 -0.220141,-0.04634 -0.430437,-0.1545731 -0.585789,-0.2466481 -0.08732,-0.051754 -0.143239,-0.090329 -0.172655,-0.1109916 -0.67175,-0.4323772 -1.164637,-1.1144578 -1.331899,-1.9238548 0.269998,-0.078139 0.555474,-0.1233241 0.850937,-0.1233241 0.431363,0 0.838831,0.090435 1.208575,0.2528143 C 6.0372888,4.6569124 6.2553888,4.4864247 6.3786968,4.3918312 5.8627658,4.1115904 5.2735208,3.9478646 4.6459948,3.9478646 z"
     id="path4079"
     inkscape:connector-curvature="0" />
</svg>
