<?xml version="1.0" encoding="UTF-8" standalone="no"?>
<svg
   xmlns:dc="http://purl.org/dc/elements/1.1/"
   xmlns:cc="http://creativecommons.org/ns#"
   xmlns:rdf="http://www.w3.org/1999/02/22-rdf-syntax-ns#"
   xmlns:svg="http://www.w3.org/2000/svg"
   xmlns="http://www.w3.org/2000/svg"
   xmlns:sodipodi="http://sodipodi.sourceforge.net/DTD/sodipodi-0.dtd"
   xmlns:inkscape="http://www.inkscape.org/namespaces/inkscape"
   width="48"
   viewBox="0 0 13.546667 13.546667"
   height="48"
   id="svg2"
   version="1.1"
   inkscape:version="0.48.4 r9939"
   sodipodi:docname="unity-webapps-facebook.svg">
  <metadata
     id="metadata20">
    <rdf:RDF>
      <cc:Work
         rdf:about="">
        <dc:format>image/svg+xml</dc:format>
        <dc:type
           rdf:resource="http://purl.org/dc/dcmitype/StillImage" />
      </cc:Work>
    </rdf:RDF>
  </metadata>
  <sodipodi:namedview
     pagecolor="#ffffff"
     bordercolor="#666666"
     borderopacity="1"
     objecttolerance="10"
     gridtolerance="10"
     guidetolerance="10"
     inkscape:pageopacity="0"
     inkscape:pageshadow="2"
     inkscape:window-width="1366"
     inkscape:window-height="742"
     id="namedview18"
     showgrid="true"
     inkscape:zoom="27.831723"
     inkscape:cx="24.408951"
     inkscape:cy="24.002136"
     inkscape:window-x="0"
     inkscape:window-y="26"
     inkscape:window-maximized="1"
     inkscape:current-layer="svg2">
    <inkscape:grid
       type="xygrid"
       id="grid2997" />
  </sodipodi:namedview>
  <defs
     id="defs4" />
  <g
     style="fill-rule:evenodd"
     id="g6">
    <rect
       width="12.982"
       x=".282"
       y=".282"
       rx="6.491"
       height="12.982"
       style="opacity:.5;fill:#fff"
       id="rect8" />
    <rect
       width="11.853"
       x=".847"
       y=".847"
       rx="5.926"
       height="11.853"
       style="fill:#3b579d"
       id="rect10" />
  </g>
  <g
     transform="scale(1.05744 .94568)"
     style="font-size:5.32893991px;text-align:start;line-height:125%;letter-spacing:0;word-spacing:0;fill:#f9f9f9;font-family:Sans"
     id="text12">
    <path
       d="m 4.5371632,5.6702292 0.8006759,0 0,-0.5968662 c 0,-0.464888 0.059459,-0.7862041 0.156602,-1.0151887 C 5.5950514,3.8292036 5.7771927,3.6435929 6.0408656,3.5013417 6.3080046,3.3556362 6.6445323,3.2827796 7.0504499,3.2827719 7.4667703,3.2827796 7.903439,3.4026941 8.2736506,3.5811974 L 8.0067587,4.4764967 C 7.774308,4.4209935 7.6194221,4.4068518 7.4043248,4.4068451 7.192691,4.4068518 7.0400392,4.4571575 6.9463691,4.5577624 6.8561632,4.6549109 6.6722989,4.7923508 6.6722989,5.073363 l 0,0.5968662 1.3344598,0 0,0.8952994 -1.3344598,0 0,4.4764964 -1.323571,-2.5e-5 -0.010889,-4.4764714 -0.8006759,0"
       style="font-size:10.65787983px;font-weight:bold;font-family:Arial"
       id="path3000"
       inkscape:connector-curvature="0"
       sodipodi:nodetypes="ccscccccccscccccccc" />
  </g>
</svg>
