<svg xmlns="http://www.w3.org/2000/svg" xmlns:xlink="http://www.w3.org/1999/xlink" width="48" viewBox="0 0 13.546667 13.546667" height="48">
 <defs>
  <linearGradient id="0">
   <stop stop-color="#352c6b"/>
   <stop offset="1" stop-color="#4f4277"/>
  </linearGradient>
  <linearGradient xlink:href="#0" id="1" gradientUnits="userSpaceOnUse" gradientTransform="matrix(1.10525,0,0,1.10525,-134.27874,-295.76183)" y1="279.1" x2="0" y2="268.33"/>
 </defs>
 <rect height="12.982" rx="6.491" y="0.282" x="0.282" width="12.982" opacity="0.5" fill="#ffffff" fill-rule="evenodd"/>
 <rect height="11.853" rx="5.926" y="0.847" x="0.847" width="11.853" fill="url(#1)" fill-rule="evenodd"/>
 <path d="M 3.03125 23.40625 C 3.0258871 23.602384 3 23.802524 3 24 C 3 35.632691 12.367309 45 24 45 C 33.08804 45 40.783163 39.29761 43.71875 31.25 C 29.305108 35.941024 16.240579 25.938696 3.03125 23.40625 z " transform="scale(0.28222223,0.28222223)" fill="#2d2d2d"/>
 <path d="M 9.1034938,2.9890991 C 8.9258431,2.9092902 8.742213,2.8536474 8.5588746,2.8222216 9.3473268,3.4522273 9.6431842,4.5603655 9.2135642,5.5278162 8.7839436,6.4952668 7.7659955,7.0131837 6.7733335,6.843032 6.9189557,6.9593901 7.0827033,7.059805 7.2603542,7.139614 8.3998723,7.6515374 9.7362354,7.137414 10.245204,5.9912763 10.754174,4.8451436 10.243004,3.5010234 9.1034938,2.9891001 z" fill="#f9f9f9"/>
 <path d="m 6.7733462,3.1044899 c -0.00168,0 -0.00288,4.35e-4 -0.00456,8.72e-4 -0.0052,4.349e-4 -0.01016,0.00217 -0.015095,0.00476 0,0 -4.168e-4,4.35e-4 -6.599e-4,8.72e-4 -0.013447,0.0055 -0.021671,0.014159 -0.028126,0.022256 -0.00946,0.011518 -0.017927,0.024812 -0.026447,0.039837 -0.017559,0.030441 -0.035494,0.068978 -0.053749,0.1075153 -0.018343,0.038971 -0.036598,0.078071 -0.051237,0.1079479 -0.00744,0.015025 -0.014271,0.027453 -0.019615,0.036113 -0.0012,0.0026 -0.00288,0.00373 -0.004,0.00546 -0.00208,8.719e-4 -0.00368,0.0013 -0.00656,0.00217 -0.0093,0.00217 -0.022743,0.00563 -0.038654,0.00823 -0.03179,0.0055 -0.072788,0.010262 -0.1135034,0.016628 -0.041126,0.0065 -0.081016,0.013683 -0.1139155,0.021477 -0.016287,0.0039 -0.030966,0.00723 -0.044006,0.012859 -0.00696,0.00303 -0.013407,0.00594 -0.020399,0.011128 -0.00688,0.00519 -0.016199,0.012383 -0.021135,0.028708 -0.0052,0.016757 -0.00208,0.028708 8e-4,0.037238 0.00288,0.00866 0.00616,0.015025 0.00975,0.021521 0.00744,0.012385 0.017151,0.024811 0.028087,0.038104 0.022375,0.026543 0.051693,0.056983 0.081015,0.087034 0.029774,0.03031 0.059381,0.059451 0.08225,0.083397 0.011391,0.012123 0.021135,0.023252 0.02731,0.030917 0.00192,0.00217 0.00232,0.00346 0.00352,0.00563 0,0.00217 0,0.0039 0,0.00632 -7.999e-4,0.00996 -0.00208,0.024119 -0.00432,0.040703 -0.00496,0.033514 -0.012623,0.076382 -0.019615,0.1192495 -0.00688,0.042434 -0.013447,0.085129 -0.016735,0.1203754 -0.00168,0.01758 -0.00272,0.032475 -0.00168,0.047458 4.168e-4,0.00736 0.00168,0.015457 0.00456,0.024119 0.00248,0.00853 0.00616,0.019615 0.019207,0.029877 0.013447,0.00996 0.025207,0.010393 0.033726,0.00996 0.0081,0 0.015095,-8.64e-4 0.021919,-0.0026 0.013855,-0.0039 0.027718,-0.00983 0.043182,-0.016758 0.031006,-0.014116 0.068428,-0.032909 0.1050319,-0.053087 0.036598,-0.020221 0.07238,-0.041135 0.1012897,-0.056594 0.014271,-0.00766 0.027262,-0.013726 0.03619,-0.017623 0.00248,-0.00113 0.00408,-0.00113 0.00616,-0.00156 0.00208,4.35e-4 0.00368,4.35e-4 0.00608,0.00156 0.00905,0.0039 0.022039,0.00996 0.03631,0.017623 0.02879,0.015458 0.064684,0.036372 0.1012897,0.056594 0.036598,0.020178 0.074024,0.038971 0.1050319,0.053087 0.015463,0.00693 0.029322,0.012861 0.043181,0.016758 0.00682,0.00174 0.013694,0.0026 0.02192,0.0026 0.00851,4.333e-4 0.020274,0 0.033722,-0.00996 0.013036,-0.010263 0.016737,-0.021347 0.019205,-0.029877 0.00288,-0.00866 0.00394,-0.016757 0.00436,-0.024119 0.00123,-0.014979 0,-0.029878 -0.00148,-0.047458 -0.00329,-0.035247 -0.00987,-0.077941 -0.016738,-0.1203753 -0.00699,-0.042867 -0.014681,-0.085735 -0.019617,-0.1192495 -0.0023,-0.016585 -0.00354,-0.030743 -0.00436,-0.040703 0,-0.00242 0,-0.00416 0,-0.00632 0.00123,-0.00217 0.00165,-0.00346 0.00354,-0.00563 0.00617,-0.00766 0.015915,-0.018793 0.027307,-0.030917 0.022865,-0.023945 0.052475,-0.053087 0.082249,-0.083397 0.029322,-0.03005 0.05852,-0.06049 0.081015,-0.087034 0.010939,-0.013294 0.020685,-0.025721 0.028088,-0.038104 0.00358,-0.0065 0.00686,-0.01286 0.00974,-0.021521 0.00288,-0.00853 0.00601,-0.020481 8.16e-4,-0.037239 -0.00494,-0.016325 -0.01427,-0.023512 -0.021261,-0.028708 -0.00686,-0.0052 -0.01345,-0.0081 -0.020274,-0.011128 -0.013028,-0.00563 -0.02771,-0.00896 -0.043995,-0.012859 -0.0329,-0.00779 -0.07279,-0.014982 -0.113915,-0.021477 -0.040713,-0.00637 -0.081838,-0.011128 -0.1135036,-0.016628 -0.015915,-0.0026 -0.029363,-0.00606 -0.038657,-0.00823 -0.00246,-8.719e-4 -0.00453,-0.0013 -0.00658,-0.00217 -0.00123,-0.00174 -0.00275,-0.00286 -0.00399,-0.00546 C 6.967476,3.4160022 6.960603,3.4035742 6.9532,3.3885492 6.938569,3.3586732 6.920306,3.3195732 6.901963,3.2806025 6.88358,3.2420645 6.865773,3.2035275 6.848214,3.1730874 6.839704,3.1580624 6.831063,3.1447694 6.821768,3.1332514 6.812838,3.1216894 6.805857,3.1045004 6.773363,3.1045004 z" fill="#f9f9f9"/>
 <path d="m 5.3622351,4.7978233 c -0.00168,0 -0.00288,4.35e-4 -0.00456,8.72e-4 -0.0052,4.349e-4 -0.01016,0.00217 -0.015095,0.00476 0,0 -4.168e-4,4.35e-4 -6.599e-4,8.72e-4 -0.013447,0.0055 -0.021671,0.014159 -0.028126,0.022256 -0.00946,0.011518 -0.017927,0.024812 -0.026447,0.039837 -0.017559,0.030441 -0.035494,0.068978 -0.053749,0.1075153 -0.018343,0.038971 -0.036598,0.078071 -0.051237,0.1079479 -0.00744,0.015025 -0.014271,0.027453 -0.019615,0.036113 -0.0012,0.0026 -0.00288,0.00373 -0.004,0.00546 -0.00208,8.719e-4 -0.00368,0.0013 -0.00656,0.00217 -0.0093,0.00217 -0.022743,0.00563 -0.038654,0.00823 -0.03179,0.0055 -0.072788,0.010262 -0.1135034,0.016628 -0.041126,0.0065 -0.081016,0.013683 -0.1139155,0.021477 -0.016287,0.0039 -0.030966,0.00723 -0.044006,0.012859 -0.00696,0.00303 -0.013407,0.00594 -0.020399,0.011128 -0.00688,0.00519 -0.016199,0.012383 -0.021135,0.028708 -0.0052,0.016757 -0.00208,0.028708 8e-4,0.037238 0.00288,0.00866 0.00616,0.015025 0.00975,0.021521 0.00744,0.012385 0.017151,0.024811 0.028087,0.038104 0.022375,0.026543 0.051693,0.056983 0.081015,0.087034 0.029774,0.03031 0.059381,0.059451 0.08225,0.083397 0.011391,0.012123 0.021135,0.023252 0.02731,0.030917 0.00192,0.00217 0.00232,0.00346 0.00352,0.00563 0,0.00217 0,0.0039 0,0.00632 -7.999e-4,0.00996 -0.00208,0.024119 -0.00432,0.040703 -0.00496,0.033514 -0.012623,0.076382 -0.019615,0.1192495 -0.00688,0.042434 -0.013447,0.085129 -0.016735,0.1203754 -0.00168,0.01758 -0.00272,0.032475 -0.00168,0.047458 4.168e-4,0.00736 0.00168,0.015457 0.00456,0.024119 0.00248,0.00853 0.00616,0.019615 0.019207,0.029877 0.013447,0.00996 0.025207,0.010393 0.033726,0.00996 0.0081,0 0.015095,-8.64e-4 0.021919,-0.0026 0.013855,-0.0039 0.027718,-0.00983 0.043182,-0.016758 0.031006,-0.014116 0.068428,-0.032909 0.1050319,-0.053087 0.036598,-0.020221 0.07238,-0.041135 0.1012897,-0.056594 0.014271,-0.00766 0.027262,-0.013726 0.03619,-0.017623 0.00248,-0.00113 0.00408,-0.00113 0.00616,-0.00156 0.00208,4.35e-4 0.00368,4.35e-4 0.00608,0.00156 0.00905,0.0039 0.022039,0.00996 0.03631,0.017623 0.02879,0.015458 0.064684,0.036372 0.1012897,0.056594 0.036598,0.020178 0.074024,0.038971 0.1050319,0.053087 0.015463,0.00693 0.029322,0.012861 0.043181,0.016758 0.00682,0.00174 0.013694,0.0026 0.02192,0.0026 0.00851,4.333e-4 0.020274,0 0.033722,-0.00996 0.013036,-0.010263 0.016737,-0.021347 0.019205,-0.029877 0.00288,-0.00866 0.00394,-0.016757 0.00436,-0.024119 0.00123,-0.014979 0,-0.029878 -0.00148,-0.047458 -0.00329,-0.035247 -0.00987,-0.077941 -0.016738,-0.1203753 -0.00699,-0.042867 -0.014681,-0.085735 -0.019617,-0.1192495 -0.0023,-0.016585 -0.00354,-0.030743 -0.00436,-0.040703 0,-0.00242 0,-0.00416 0,-0.00632 0.00123,-0.00217 0.00165,-0.00346 0.00354,-0.00563 0.00617,-0.00766 0.015915,-0.018793 0.027307,-0.030917 0.022865,-0.023945 0.052475,-0.053087 0.082249,-0.083397 0.029322,-0.03005 0.05852,-0.06049 0.081015,-0.087034 0.010939,-0.013294 0.020685,-0.025721 0.028088,-0.038104 0.00358,-0.0065 0.00686,-0.01286 0.00974,-0.021521 0.00288,-0.00853 0.00601,-0.020481 8.16e-4,-0.037239 -0.00494,-0.016325 -0.01427,-0.023512 -0.021261,-0.028708 -0.00686,-0.0052 -0.01345,-0.0081 -0.020274,-0.011128 -0.013028,-0.00563 -0.02771,-0.00896 -0.043995,-0.012859 -0.0329,-0.00779 -0.07279,-0.014982 -0.113915,-0.021477 -0.040713,-0.00637 -0.081838,-0.011128 -0.1135036,-0.016628 -0.015915,-0.0026 -0.029363,-0.00606 -0.038657,-0.00823 -0.00246,-8.719e-4 -0.00453,-0.0013 -0.00658,-0.00217 -0.00123,-0.00174 -0.00275,-0.00286 -0.00399,-0.00546 -0.00534,-0.00866 -0.012213,-0.021088 -0.019616,-0.036113 -0.014631,-0.029876 -0.032894,-0.068976 -0.051237,-0.1079467 -0.018383,-0.038538 -0.03619,-0.077075 -0.053749,-0.1075151 -0.00851,-0.015025 -0.017151,-0.028318 -0.026446,-0.039836 -0.00893,-0.011562 -0.015911,-0.028751 -0.048405,-0.028751 z" fill="#f9f9f9"/>
 <path d="m 3.6689017,3.3867121 c -0.00168,0 -0.00288,4.35e-4 -0.00456,8.72e-4 -0.0052,4.349e-4 -0.01016,0.00217 -0.015095,0.00476 0,0 -4.168e-4,4.35e-4 -6.599e-4,8.72e-4 -0.013447,0.0055 -0.021671,0.014159 -0.028126,0.022256 -0.00946,0.011518 -0.017927,0.024812 -0.026447,0.039837 -0.017559,0.030441 -0.035494,0.068978 -0.053749,0.1075153 -0.018343,0.038971 -0.036598,0.078071 -0.051237,0.1079479 -0.00744,0.015025 -0.014271,0.027453 -0.019615,0.036113 -0.0012,0.0026 -0.00288,0.00373 -0.004,0.00546 -0.00208,8.719e-4 -0.00368,0.0013 -0.00656,0.00217 -0.0093,0.00217 -0.022743,0.00563 -0.038654,0.00823 -0.03179,0.0055 -0.072788,0.010262 -0.1135034,0.016628 -0.041126,0.0065 -0.081016,0.013683 -0.1139155,0.021477 -0.016287,0.0039 -0.030966,0.00723 -0.044006,0.012859 -0.00696,0.00303 -0.013407,0.00594 -0.020399,0.011128 -0.00688,0.00519 -0.016199,0.012383 -0.021135,0.028708 -0.0052,0.016757 -0.00208,0.028708 8e-4,0.037238 0.00288,0.00866 0.00616,0.015025 0.00975,0.021521 0.00744,0.012385 0.017151,0.024811 0.028087,0.038104 0.022375,0.026543 0.051693,0.056983 0.081015,0.087034 0.029774,0.03031 0.059381,0.059451 0.08225,0.083397 0.011391,0.012123 0.021135,0.023252 0.02731,0.030917 0.00192,0.00217 0.00232,0.00346 0.00352,0.00563 0,0.00217 0,0.0039 0,0.00632 -7.999e-4,0.00996 -0.00208,0.024119 -0.00432,0.040703 -0.00496,0.033514 -0.012623,0.076382 -0.019615,0.1192495 -0.00688,0.042434 -0.013447,0.085129 -0.016735,0.1203754 -0.00168,0.01758 -0.00272,0.032475 -0.00168,0.047458 4.168e-4,0.00736 0.00168,0.015457 0.00456,0.024119 0.00248,0.00853 0.00616,0.019615 0.019207,0.029877 0.013447,0.00996 0.025207,0.010393 0.033726,0.00996 0.0081,0 0.015095,-8.64e-4 0.021919,-0.0026 0.013855,-0.0039 0.027718,-0.00983 0.043182,-0.016758 0.031006,-0.014116 0.068428,-0.032909 0.1050319,-0.053087 0.036598,-0.020221 0.07238,-0.041135 0.1012897,-0.056594 0.014271,-0.00766 0.027262,-0.013726 0.03619,-0.017623 0.00248,-0.00113 0.00408,-0.00113 0.00616,-0.00156 0.00208,4.35e-4 0.00368,4.35e-4 0.00608,0.00156 0.00905,0.0039 0.022039,0.00996 0.03631,0.017623 0.02879,0.015458 0.064684,0.036372 0.1012897,0.056594 0.036598,0.020178 0.074024,0.038971 0.1050319,0.053087 0.015463,0.00693 0.029322,0.012861 0.043181,0.016758 0.00682,0.00174 0.013694,0.0026 0.02192,0.0026 0.00851,4.333e-4 0.020274,0 0.033722,-0.00996 0.013036,-0.010263 0.016737,-0.021347 0.019205,-0.029877 0.00288,-0.00866 0.00394,-0.016757 0.00436,-0.024119 0.00123,-0.014979 0,-0.029878 -0.00148,-0.047458 -0.00329,-0.035247 -0.00987,-0.077941 -0.016738,-0.1203753 -0.00699,-0.042867 -0.014681,-0.085735 -0.019617,-0.1192495 -0.0023,-0.016585 -0.00354,-0.030743 -0.00436,-0.040703 0,-0.00242 0,-0.00416 0,-0.00632 0.00123,-0.00217 0.00165,-0.00346 0.00354,-0.00563 0.00617,-0.00766 0.015915,-0.018793 0.027307,-0.030917 0.022865,-0.023945 0.052475,-0.053087 0.082249,-0.083397 0.029322,-0.03005 0.05852,-0.06049 0.081015,-0.087034 0.010939,-0.013294 0.020685,-0.025721 0.028088,-0.038104 0.00358,-0.0065 0.00686,-0.01286 0.00974,-0.021521 0.00288,-0.00853 0.00601,-0.020481 8.16e-4,-0.037239 -0.00494,-0.016325 -0.01427,-0.023512 -0.021261,-0.028708 -0.00686,-0.0052 -0.01345,-0.0081 -0.020274,-0.011128 -0.013028,-0.00563 -0.02771,-0.00896 -0.043995,-0.012859 -0.0329,-0.00779 -0.07279,-0.014982 -0.113915,-0.021477 -0.040713,-0.00637 -0.081838,-0.011128 -0.1135036,-0.016628 -0.015915,-0.0026 -0.029363,-0.00606 -0.038657,-0.00823 -0.00246,-8.719e-4 -0.00453,-0.0013 -0.00658,-0.00217 -0.00123,-0.00174 -0.00275,-0.00286 -0.00399,-0.00546 -0.00534,-0.00866 -0.012213,-0.021088 -0.019616,-0.036113 -0.014631,-0.029876 -0.032894,-0.068976 -0.051237,-0.1079467 -0.018383,-0.038538 -0.03619,-0.077075 -0.053749,-0.1075151 -0.00851,-0.015025 -0.017151,-0.028318 -0.026446,-0.039836 -0.00893,-0.011562 -0.015911,-0.028751 -0.048405,-0.028751 z" fill="#f9f9f9"/>
</svg>
