<svg xmlns="http://www.w3.org/2000/svg" xmlns:xlink="http://www.w3.org/1999/xlink" width="48" viewBox="0 0 13.546667 13.546667" height="48">
 <defs>
  <linearGradient id="0">
   <stop stop-color="#1e94d3"/>
   <stop offset="1" stop-color="#37aee2"/>
  </linearGradient>
  <linearGradient xlink:href="#0" id="1" gradientUnits="userSpaceOnUse" gradientTransform="matrix(1.10525,0,0,1.10525,-134.27874,-295.76183)" y1="279.1" x2="0" y2="268.33"/>
 </defs>
 <rect height="12.982" rx="6.491" y="0.282" x="0.282" width="12.982" opacity="0.5" fill="#ffffff" fill-rule="evenodd"/>
 <rect height="11.853" rx="5.926" y="0.847" x="0.847" width="11.853" fill="url(#1)" fill-rule="evenodd"/>
 <path d="M 30.875 12 C 30.239543 12.038835 29.354819 12.259332 27.71875 12.65625 C 23.449618 13.691955 22.124659 13.710578 18.53125 12.84375 C 15.906014 12.210458 15.775678 12.218827 14.96875 12.90625 C 13.925292 13.795167 13.921515 15.303831 14.90625 17.65625 C 15.320108 18.64495 16.04941 20.964695 16.53125 22.84375 C 17.578946 26.929463 18.929399 29.280357 20.75 30.125 C 24.010844 32.001975 25.913902 30.013608 26.9375 29.125 C 28.189825 27.88485 28.947856 26.577822 29.96875 23.84375 C 31.392079 20.031928 31.957456 18.814059 33.40625 16.5 C 34.47674 14.790188 34.09051 13.281396 32.375 12.375 C 31.871099 12.108756 31.51046 11.961197 30.875 12 z M 27.28125 17.8125 C 28.068534 17.774516 28.767291 18.456787 29.03125 19.78125 C 29.391792 21.590353 28.628746 23.09375 27.375 23.09375 C 26.809024 23.09375 26.010842 22.734543 25.5625 22.3125 C 24.564209 21.37278 24.5281 20.667909 25.4375 19.21875 C 26.008203 18.309304 26.668931 17.842037 27.28125 17.8125 z M 19.3125 18.53125 C 20.313754 18.583868 21.272579 20.326753 20.84375 21.46875 C 20.332724 22.829639 19.606775 22.922361 18.8125 21.78125 C 17.98726 20.595667 18.14977 18.730917 19.09375 18.5625 C 19.160577 18.550807 19.245744 18.527352 19.3125 18.53125 z M 14 25 L 14 36 L 32 36 L 32 27 C 25 35 19 35 14 25 z M 23.28125 25 C 24.661961 25 25.75 26.119289 25.75 27.5 C 25.75 28.880711 24.661961 30 23.28125 30 C 21.900539 30 20.4375 27.943211 20.4375 26.5625 C 20.4375 25.181789 21.900539 25 23.28125 25 z " transform="scale(0.28222223,0.28222223)" fill="#f9f9f9"/>
</svg>
