<svg xmlns="http://www.w3.org/2000/svg" xmlns:xlink="http://www.w3.org/1999/xlink" width="48" viewBox="0 0 13.546667 13.546667" height="48">
 <defs>
  <linearGradient id="0">
   <stop stop-color="#7f5d84"/>
   <stop offset="1" stop-color="#9d7aa2"/>
  </linearGradient>
  <linearGradient gradientTransform="matrix(1.10528 0 0 1.10528 -134.28255 -295.76983)" xlink:href="#0" id="1" y1="279.1" y2="268.33" gradientUnits="userSpaceOnUse" x2="0"/>
 </defs>
 <g fill-rule="evenodd">
  <rect width="12.982" x="0.282" y="0.282" rx="6.491" height="12.982" opacity="0.5" fill="#fff"/>
  <rect width="11.853" x="0.847" y="0.847" rx="5.926" height="11.853" opacity="0.94" fill="url(#1)"/>
 </g>
 <path d="M 7.0432833,10.159997 C 6.0739086,10.159997 5.3151802,9.8604359 4.767095,9.2613143 4.2231022,8.6581726 3.9511112,7.8781095 3.9511112,6.9211204 l 0,-0.241257 c 0,-0.9569815 0.271991,-1.7450869 0.8159838,-2.3643194 0.5480887,-0.6232405 1.2536438,-0.9328534 2.1166791,-0.9288388 0.8916563,6e-6 1.5665339,0.2714204 2.0246294,0.8142418 0.4581026,0.5388133 0.6871523,1.2605733 0.6871523,2.1652827 l 0,0.9715483 -4.2333334,0 0,0 c 0.016328,0.5347882 0.2760814,0.8177809 0.5460401,1.1515199 0.2699517,0.3337391 0.6769205,0.5006069 1.2209132,0.5006069 0.4049293,0 0.7546357,-0.048246 1.0491397,-0.1447529 0.298581,-0.096503 0.5746648,-0.2352243 0.8282598,-0.4161705 L 9.4912625,9.3879801 C 9.2376675,9.6051128 8.9022751,9.7880639 8.4850884,9.9368368 8.0678881,10.085612 7.5872968,10.16 7.043304,10.16 M 6.9268424,4.5155557 c -1.0001756,0 -1.56462,0.8466667 -1.56462,1.6933333 0.8466666,0 1.9682298,0 2.8222222,0 0,-0.8466666 -0.4760408,-1.6933333 -1.2660326,-1.6933333" fill="#f9f9f9"/>
</svg>
