<svg xmlns="http://www.w3.org/2000/svg" xmlns:xlink="http://www.w3.org/1999/xlink" width="48" viewBox="0 0 13.546667 13.546667" height="48">
 <defs>
  <linearGradient id="0">
   <stop stop-color="#ff7100"/>
   <stop offset="1" stop-color="#e58b43"/>
  </linearGradient>
  <linearGradient xlink:href="#0" id="1" gradientUnits="userSpaceOnUse" gradientTransform="matrix(1.10525,0,0,1.10525,-134.27874,-295.76183)" y1="279.1" x2="0" y2="268.33"/>
  <radialGradient gradientUnits="userSpaceOnUse" xlink:href="#2" r="7" gradientTransform="matrix(2.85714 0 0 2.85714 -609.14349 -473.66662)" cy="255.42" cx="328"/>
  <radialGradient gradientUnits="userSpaceOnUse" xlink:href="#2" r="7" gradientTransform="matrix(1.22449 0 0 1.22449 49.7555 -179.34296)" cy="255.42" cx="328"/>
  <radialGradient gradientUnits="userSpaceOnUse" xlink:href="#2" r="7" gradientTransform="matrix(2.85714 0 0 2.85714 -609.14349 -473.66662)" cy="255.42" cx="328"/>
  <radialGradient gradientUnits="userSpaceOnUse" xlink:href="#2" r="7" gradientTransform="matrix(2.85714 0 0 2.85714 -609.14349 -473.66662)" cy="255.42" cx="328"/>
  <radialGradient gradientUnits="userSpaceOnUse" xlink:href="#2" r="7" gradientTransform="matrix(1.22449 0 0 1.22449 49.7555 -179.34296)" cy="255.42" cx="328"/>
  <radialGradient gradientUnits="userSpaceOnUse" xlink:href="#2" r="7" gradientTransform="matrix(1.22449 0 0 1.22449 49.7555 -179.34296)" cy="255.42" cx="328"/>
  <linearGradient x2="0" gradientUnits="userSpaceOnUse" y2="231" y1="273" xlink:href="#5" gradientTransform="translate(0 4.09376)"/>
  <linearGradient id="2">
   <stop stop-color="#eaba31"/>
   <stop offset="1" stop-color="#ff9200"/>
  </linearGradient>
  <linearGradient id="3">
   <stop stop-color="#f0f0f0"/>
   <stop offset="1" stop-color="#f8f8f8"/>
  </linearGradient>
  <linearGradient x2="0" gradientUnits="userSpaceOnUse" y2="231" y1="273" xlink:href="#5" gradientTransform="translate(0 4.09376)"/>
  <linearGradient x2="0" gradientUnits="userSpaceOnUse" y2="90" y1="230" id="4" xlink:href="#3" gradientTransform="matrix(.375 0 0 .375 298 16)"/>
  <linearGradient id="5">
   <stop stop-color="#818181"/>
   <stop offset="1" stop-color="#c5c5c5"/>
  </linearGradient>
  <linearGradient gradientUnits="userSpaceOnUse" x2="0" y2="90" y1="230" xlink:href="#3" id="6" gradientTransform="matrix(.375 0 0 .375 298 16)"/>
  <linearGradient x2="0" gradientUnits="userSpaceOnUse" y2="90" y1="230" id="7" xlink:href="#3" gradientTransform="matrix(.25 0 0 .25 299.99999 131.99999)"/>
  <linearGradient x2="0" gradientUnits="userSpaceOnUse" y2="124" y1="140" xlink:href="#5" gradientTransform="translate(11.38843 1.3713)"/>
  <linearGradient gradientUnits="userSpaceOnUse" x2="0" y2="124" y1="140" xlink:href="#5"/>
  <linearGradient gradientUnits="userSpaceOnUse" x2="0" y2="90" y1="230" xlink:href="#3" id="8" gradientTransform="matrix(.25 0 0 .25 299.99999 131.99999)"/>
  <linearGradient x2="0" gradientUnits="userSpaceOnUse" y2="231" y1="273" xlink:href="#5" gradientTransform="matrix(5.71429 0 0 5.71429 -1730.2857 -1284)"/>
  <linearGradient gradientUnits="userSpaceOnUse" x2="0" y2="85" y1="107" xlink:href="#5"/>
  <linearGradient gradientUnits="userSpaceOnUse" x2="0" y2="231" y1="273" xlink:href="#5" gradientTransform="matrix(5.71429 0 0 5.71429 -1730.2857 -1284)"/>
  <linearGradient x2="0" gradientUnits="userSpaceOnUse" y2="40" y1="280" id="9" xlink:href="#3" gradientTransform="matrix(.175 0 0 .175 302.79999 215.99997)"/>
  <linearGradient x2="0" gradientUnits="userSpaceOnUse" y2="231" y1="273" xlink:href="#5" gradientTransform="matrix(5.71429 0 0 5.71429 -1730.2857 -1284)"/>
  <linearGradient gradientUnits="userSpaceOnUse" x2="0" y2="40" y1="280" xlink:href="#3" id="A" gradientTransform="matrix(.175 0 0 .175 302.79999 215.99997)"/>
  <linearGradient gradientUnits="userSpaceOnUse" x2="0" y2="85" y1="107" xlink:href="#5"/>
  <linearGradient x2="0" gradientUnits="userSpaceOnUse" y2="124" y1="140" xlink:href="#5" gradientTransform="translate(11.38843 1.3713)"/>
  <linearGradient gradientUnits="userSpaceOnUse" x2="0" y2="231" y1="273" xlink:href="#5" gradientTransform="translate(0 4.09376)"/>
  <linearGradient gradientUnits="userSpaceOnUse" x2="0" y2="124" y1="140" xlink:href="#5" gradientTransform="translate(11.38843 1.3713)"/>
  <linearGradient gradientUnits="userSpaceOnUse" x2="0" y2="85" y1="107" xlink:href="#5"/>
  <linearGradient x2="0" gradientUnits="userSpaceOnUse" y2="90" y1="230" id="B" xlink:href="#3" gradientTransform="matrix(.25 0 0 .25 299.99999 131.99999)"/>
  <linearGradient gradientUnits="userSpaceOnUse" x2="0" y2="124" y1="140" xlink:href="#5"/>
  <linearGradient x2="0" gradientUnits="userSpaceOnUse" y2="40" y1="280" id="C" xlink:href="#3" gradientTransform="matrix(.175 0 0 .175 302.79999 215.99997)"/>
  <linearGradient x2="0" gradientUnits="userSpaceOnUse" y2="90" y1="230" id="D" xlink:href="#3" gradientTransform="matrix(.375 0 0 .375 298 16)"/>
  <linearGradient gradientUnits="userSpaceOnUse" x2="0" y2="124" y1="140" xlink:href="#5"/>
  <clipPath>
   <rect height="30" rx="6" y="29" x="433" width="30" color="#bebebe"/>
  </clipPath>
  <clipPath>
   <rect height="20" rx="4" y="78" x="434" width="20" color="#bebebe"/>
  </clipPath>
  <clipPath>
   <rect height="22" rx="4" y="77" x="433" width="22" color="#bebebe"/>
  </clipPath>
  <clipPath>
   <rect height="240" rx="50" y="36" x="24" width="240" fill="#986767" color="#bebebe"/>
  </clipPath>
  <clipPath>
   <path d="m 328,242.09376 c -7.73199,0 -14,6.26801 -14,14 0,7.73199 6.26801,14 14,14 7.73199,0 14,-6.26801 14,-14 0,-7.73199 -6.26801,-14 -14,-14 z m 0,9.90625 c 2.20914,0 4,1.79086 4,4 0,2.20914 -1.79086,4 -4,4 -2.20914,0 -4,-1.79086 -4,-4 0,-2.20914 1.79086,-4 4,-4 z m 0,1 c -1.65685,0 -3,1.34315 -3,3 0,1.65685 1.34315,3 3,3 1.65685,0 3,-1.34315 3,-3 0,-1.65685 -1.34315,-3 -3,-3 z m 0,1 c 1.10457,0 2,0.89543 2,2 0,1.10457 -0.89543,2 -2,2 -1.10457,0 -2,-0.89543 -2,-2 0,-1.10457 0.89543,-2 2,-2 z"/>
  </clipPath>
  <clipPath>
   <rect height="16" rx="3" y="116" x="432" width="16" color="#bebebe"/>
  </clipPath>
  <clipPath>
   <rect height="16" rx="3" y="116" x="432" width="16" color="#bebebe"/>
  </clipPath>
  <clipPath>
   <rect transform="rotate(90)" height="42" rx="9" y="223" x="307" width="42" fill="url(#A)" color="#bebebe"/>
  </clipPath>
  <clipPath>
   <rect height="240" rx="50" y="36" x="24" width="240" fill="#986767" color="#bebebe"/>
  </clipPath>
  <clipPath>
   <rect height="30" rx="4" y="29" x="433" width="30" opacity="0.2" fill="#6d6d6d" color="#bebebe"/>
  </clipPath>
  <clipPath>
   <path d="m 451.38843,127.3713 c -3.31371,0 -6,2.68629 -6,6 0,3.31371 2.68629,6 6,6 3.31371,0 6,-2.68629 6,-6 0,-3.31371 -2.68629,-6 -6,-6 z m 0,3 c 1.65685,0 3,1.34315 3,3 0,1.65685 -1.34315,3 -3,3 -1.65685,0 -3,-1.34315 -3,-3 0,-1.65685 1.34315,-3 3,-3 z m 0,1 c -1.10457,0 -2,0.89543 -2,2 0,1.10457 0.89543,2 2,2 1.10457,0 2,-0.89543 2,-2 0,-1.10457 -0.89543,-2 -2,-2 z m 0,1 c 0.55228,0 1,0.44772 1,1 0,0.55228 -0.44772,1 -1,1 -0.55228,0 -1,-0.44772 -1,-1 0,-0.55228 0.44772,-1 1,-1 z"/>
  </clipPath>
  <clipPath>
   <path d="m 440,126 c -3.31371,0 -6,2.68629 -6,6 0,3.31371 2.68629,6 6,6 3.31371,0 6,-2.68629 6,-6 0,-3.31371 -2.68629,-6 -6,-6 z m 0,3 c 1.65685,0 3,1.34315 3,3 0,1.65685 -1.34315,3 -3,3 -1.65685,0 -3,-1.34315 -3,-3 0,-1.65685 1.34315,-3 3,-3 z m 0,1 c -1.10457,0 -2,0.89543 -2,2 0,1.10457 0.89543,2 2,2 1.10457,0 2,-0.89543 2,-2 0,-1.10457 -0.89543,-2 -2,-2 z m 0,1 c 0.55228,0 1,0.44772 1,1 0,0.55228 -0.44772,1 -1,1 -0.55228,0 -1,-0.44772 -1,-1 0,-0.55228 0.44772,-1 1,-1 z"/>
  </clipPath>
  <clipPath>
   <path d="m 144.00001,75.999997 c -44.1828,0 -80,35.817203 -80,80.000003 0,44.1828 35.8172,80 80,80 44.1828,0 80,-35.8172 80,-80 0,-44.1828 -35.8172,-80.000003 -80,-80.000003 z m 0,56.607143 c 12.62366,0 22.85714,10.23349 22.85714,22.85714 0,12.62366 -10.23348,22.85714 -22.85714,22.85714 -12.62366,0 -22.85714,-10.23348 -22.85714,-22.85714 0,-12.62365 10.23348,-22.85714 22.85714,-22.85714 z m 0,5.71429 c -9.46771,0 -17.14286,7.67514 -17.14286,17.14285 0,9.46772 7.67515,17.14286 17.14286,17.14286 9.46771,0 17.14286,-7.67514 17.14286,-17.14286 0,-9.46771 -7.67515,-17.14285 -17.14286,-17.14285 z m 0,5.71428 c 6.31183,0 11.42857,5.11674 11.42857,11.42857 0,6.31183 -5.11674,11.42857 -11.42857,11.42857 -6.31183,0 -11.42857,-5.11674 -11.42857,-11.42857 0,-6.31183 5.11674,-11.42857 11.42857,-11.42857 z"/>
  </clipPath>
  <clipPath>
   <path d="m 444,88 c -4.41828,0 -8,3.58172 -8,8 0,4.41828 3.58172,8 8,8 4.41828,0 8,-3.58172 8,-8 0,-4.41828 -3.58172,-8 -8,-8 z m 0,5 c 1.65685,0 3,1.34315 3,3 0,1.65685 -1.34315,3 -3,3 -1.65685,0 -3,-1.34315 -3,-3 0,-1.65685 1.34315,-3 3,-3 z m 0,1 c -1.10457,0 -2,0.89543 -2,2 0,1.10457 0.89543,2 2,2 1.10457,0 2,-0.89543 2,-2 0,-1.10457 -0.89543,-2 -2,-2 z m 0,1 c 0.55228,0 1,0.44772 1,1 0,0.55228 -0.44772,1 -1,1 -0.55228,0 -1,-0.44772 -1,-1 0,-0.55228 0.44772,-1 1,-1 z"/>
  </clipPath>
  <clipPath>
   <path d="m 451.38843,133.3713 6.42857,4.71429 0,-11.57143 -6.42857,0 z"/>
  </clipPath>
  <clipPath>
   <path d="m 144,48 -23.59375,55.0625 -55.59375,-22.25 22.25,55.59375 L 32,160 l 55.0625,23.59375 -22.25,55.59375 55.59375,-22.25 L 144,272 l 23.59375,-55.0625 55.59375,22.25 -22.25,-55.59375 L 256,160 200.9375,136.40625 223.1875,80.8125 167.59375,103.0625 144,48 z m -23.1875,56 46.375,0 32.8125,32.8125 0,46.375 L 167.1875,216 120.8125,216 88,183.1875 88,136.8125 120.8125,104 z"/>
  </clipPath>
  <clipPath>
   <path d="m 328,238 c -7.73199,0 -14,6.26801 -14,14 0,7.73199 6.26801,14 14,14 7.73199,0 14,-6.26801 14,-14 0,-7.73199 -6.26801,-14 -14,-14 z m 0,8.75 c 2.89949,0 5.25,2.35051 5.25,5.25 0,2.89949 -2.35051,5.25 -5.25,5.25 -2.89949,0 -5.25,-2.35051 -5.25,-5.25 0,-2.89949 2.35051,-5.25 5.25,-5.25 z m 0,1.75 c -1.933,0 -3.5,1.567 -3.5,3.5 0,1.933 1.567,3.5 3.5,3.5 1.933,0 3.5,-1.567 3.5,-3.5 0,-1.933 -1.567,-3.5 -3.5,-3.5 z m 0,1.75 c 0.96649,0 1.75,0.78351 1.75,1.75 0,0.96649 -0.78351,1.75 -1.75,1.75 -0.96649,0 -1.75,-0.78351 -1.75,-1.75 0,-0.96649 0.78351,-1.75 1.75,-1.75 z"/>
  </clipPath>
  <clipPath>
   <path d="m 328,238 c -7.73199,0 -14,6.26801 -14,14 0,7.73199 6.26801,14 14,14 7.73199,0 14,-6.26801 14,-14 0,-7.73199 -6.26801,-14 -14,-14 z m 0,9.90625 c 2.20914,0 4,1.79086 4,4 0,2.20914 -1.79086,4 -4,4 -2.20914,0 -4,-1.79086 -4,-4 0,-2.20914 1.79086,-4 4,-4 z m 0,1 c -1.65685,0 -3,1.34315 -3,3 0,1.65685 1.34315,3 3,3 1.65685,0 3,-1.34315 3,-3 0,-1.65685 -1.34315,-3 -3,-3 z m 0,1 c 1.10457,0 2,0.89543 2,2 0,1.10457 -0.89543,2 -2,2 -1.10457,0 -2,-0.89543 -2,-2 0,-1.10457 0.89543,-2 2,-2 z"/>
  </clipPath>
  <clipPath>
   <rect height="90" rx="18.75" y="31" x="307" width="90" fill="url(#6)" color="#bebebe"/>
  </clipPath>
  <clipPath>
   <rect transform="matrix(0 -1 1 0 0 0)" height="60" rx="12.5" y="142" x="306" width="60" fill="url(#8)" color="#bebebe"/>
  </clipPath>
  <clipPath>
   <rect height="22" rx="3" y="77" x="433" width="22" opacity="0.2" fill="#6d6d6d" color="#bebebe"/>
  </clipPath>
  <clipPath>
   <rect height="16" rx="2" y="116" x="432" width="16" opacity="0.2" fill="#6d6d6d" color="#bebebe"/>
  </clipPath>
  <clipPath>
   <path d="m 328,256 15,11 0,-27 -15,0 z"/>
  </clipPath>
  <clipPath>
   <path d="m 328,242.09375 c -7.73199,0 -14,6.26801 -14,14 0,7.73199 6.26801,14 14,14 7.73199,0 14,-6.26801 14,-14 0,-7.73199 -6.26801,-14 -14,-14 z M 328,252 c 2.20914,0 4,1.79086 4,4 0,2.20914 -1.79086,4 -4,4 -2.20914,0 -4,-1.79086 -4,-4 0,-2.20914 1.79086,-4 4,-4 z m 0,1 c -1.65685,0 -3,1.34315 -3,3 0,1.65685 1.34315,3 3,3 1.65685,0 3,-1.34315 3,-3 0,-1.65685 -1.34315,-3 -3,-3 z m 0,1 c 1.10457,0 2,0.89543 2,2 0,1.10457 -0.89543,2 -2,2 -1.10457,0 -2,-0.89543 -2,-2 0,-1.10457 0.89543,-2 2,-2 z"/>
  </clipPath>
  <clipPath>
   <rect height="22" rx="5" y="77" x="433" width="22" color="#bebebe"/>
  </clipPath>
  <clipPath>
   <rect height="22" rx="5" y="77" x="433" width="22" color="#bebebe"/>
  </clipPath>
  <clipPath>
   <rect height="30" rx="4" y="29" x="433" width="30" opacity="0.2" fill="#6d6d6d" color="#bebebe"/>
  </clipPath>
  <clipPath>
   <rect height="22" rx="3" y="77" x="433" width="22" opacity="0.2" fill="#6d6d6d" color="#bebebe"/>
  </clipPath>
  <clipPath>
   <rect transform="rotate(90)" height="42" rx="9" y="223" x="307" width="42" fill="url(#9)" color="#bebebe"/>
  </clipPath>
  <clipPath>
   <rect height="16" rx="2" y="116" x="432" width="16" opacity="0.2" fill="#6d6d6d" color="#bebebe"/>
  </clipPath>
  <clipPath>
   <rect height="30" rx="6" y="29" x="433" width="30" color="#bebebe"/>
  </clipPath>
  <clipPath>
   <rect height="30" rx="4" y="29" x="433" width="30" opacity="0.2" fill="#6d6d6d" color="#bebebe"/>
  </clipPath>
  <clipPath>
   <rect height="22" rx="4" y="77" x="433" width="22" color="#bebebe"/>
  </clipPath>
  <clipPath>
   <rect transform="matrix(0 -1 1 0 0 0)" height="60" rx="12.5" y="142" x="306" width="60" fill="url(#7)" color="#bebebe"/>
  </clipPath>
  <clipPath>
   <rect height="90" rx="18.75" y="31" x="307" width="90" fill="url(#4)" color="#bebebe"/>
  </clipPath>
  <clipPath>
   <rect height="16" rx="2" y="116" x="432" width="16" opacity="0.2" fill="#6d6d6d" color="#bebebe"/>
  </clipPath>
  <clipPath>
   <rect height="22" rx="3" y="77" x="433" width="22" opacity="0.2" fill="#6d6d6d" color="#bebebe"/>
  </clipPath>
  <clipPath>
   <rect height="20" rx="4" y="78" x="434" width="20" color="#bebebe"/>
  </clipPath>
  <clipPath>
   <rect height="16" rx="3" y="116" x="432" width="16" color="#bebebe"/>
  </clipPath>
  <clipPath>
   <rect transform="rotate(90)" height="42" rx="9" y="223" x="307" width="42" fill="url(#C)" color="#bebebe"/>
  </clipPath>
  <clipPath>
   <rect height="22" rx="4" y="77" x="433" width="22" color="#bebebe"/>
  </clipPath>
  <clipPath>
   <rect height="22" rx="5" y="77" x="433" width="22" color="#bebebe"/>
  </clipPath>
  <clipPath>
   <rect height="30" rx="6" y="29" x="433" width="30" color="#bebebe"/>
  </clipPath>
  <clipPath>
   <rect transform="matrix(0 -1 1 0 0 0)" height="60" rx="12.5" y="142" x="306" width="60" fill="url(#B)" color="#bebebe"/>
  </clipPath>
  <clipPath>
   <rect height="90" rx="18.75" y="31" x="307" width="90" fill="url(#D)" color="#bebebe"/>
  </clipPath>
  <clipPath>
   <rect height="240" rx="50" y="36" x="24" width="240" fill="#986767" color="#bebebe"/>
  </clipPath>
  <clipPath>
   <rect height="20" rx="4" y="78" x="434" width="20" color="#bebebe"/>
  </clipPath>
 </defs>
 <rect height="12.982" rx="6.491" y="0.283" x="0.282" width="12.982" opacity="0.5" fill="#ffffff" fill-rule="evenodd"/>
 <rect height="11.853" rx="5.926" y="0.847" x="0.847" width="11.853" fill="url(#1)" fill-rule="evenodd"/>
 <path d="m 3.4039177,5.8910458 c -0.142534,-1.1043644 0.619066,-2.5042123 1.825247,-2.5042126 3.51647,-10e-8 0.404515,4.2463741 0.696048,4.5486587 0.282042,0.284291 0.785836,-0.175958 1.11941,-0.6894856 0.290801,-0.447679 0.525678,-0.9252571 1.052301,-0.6655658 0.588783,0.2903434 0.591881,0.8471933 0.883175,1.4517174 0.291294,0.604524 0.587877,0.935591 0.883174,1.161374 1.0099113,1.0990821 -0.835596,1.3005801 -1.389463,0.399394 -0.574302,-0.80456 -0.29226,-1.373143 -1.383095,-0.121633 -1.729586,2.1599841 -3.421839,-1.25151 -3.686797,-3.5802471 z" fill="#f9f9f9"/>
</svg>
