<svg xmlns="http://www.w3.org/2000/svg" xmlns:xlink="http://www.w3.org/1999/xlink" width="48" viewBox="0 0 13.546667 13.546667" height="48">
 <defs>
  <linearGradient id="0">
   <stop stop-color="#008098"/>
   <stop offset="1" stop-color="#27b6cf"/>
  </linearGradient>
  <linearGradient xlink:href="#0" id="1" gradientUnits="userSpaceOnUse" gradientTransform="matrix(1.10525,0,0,1.10525,-134.27874,-295.76183)" y1="279.1" x2="0" y2="268.33"/>
 </defs>
 <rect height="12.982" rx="6.491" y="0.283" x="0.282" width="12.982" opacity="0.5" fill="#ffffff" fill-rule="evenodd"/>
 <rect height="11.853" rx="5.927" y="0.847" x="0.847" width="11.853" fill="url(#1)" fill-rule="evenodd"/>
 <path d="m 3.668889,3.9488266 c 0,-0.7394416 0.5654265,-0.7595836 0.5654265,0 l -9.82e-4,5.364507 c 0,0.1751965 0.063344,0.2822222 0.2822222,0.2822222 L 6.7787345,9.5953481 C 7.541362,9.5955558 7.506688,10.16 6.7787345,10.16 l -2.8276232,0 C 3.7634344,10.16 3.668889,10.021774 3.668889,9.877778 z" fill="#f9f9f9"/>
 <path d="m 9.8777777,9.5978405 c 0,0.7394415 -0.5654275,0.7595835 -0.5654275,0 l 9.82e-4,-5.3645074 c 0,-0.1751965 -0.06334,-0.2822222 -0.2822217,-0.2822222 l -2.2631784,2.077e-4 c -0.762627,-2.077e-4 -0.727953,-0.5646517 0,-0.5646517 l 2.8276231,0 c 0.1876775,0 0.2822225,0.138226 0.2822225,0.2822218 z" fill="#f9f9f9"/>
</svg>
