<svg xmlns="http://www.w3.org/2000/svg" xmlns:xlink="http://www.w3.org/1999/xlink" width="48" viewBox="0 0 13.546667 13.546667" height="48">
 <defs>
  <linearGradient xlink:href="#1" id="0" gradientUnits="userSpaceOnUse" gradientTransform="matrix(1.10525,0,0,1.10525,-147.82574,-309.30883)" y1="279.1" x2="0" y2="268.33"/>
  <linearGradient id="1">
   <stop stop-color="#579292"/>
   <stop offset="1" stop-color="#086162"/>
  </linearGradient>
 </defs>
 <rect height="12.982" rx="6.491" y="0.283" x="0.282" width="12.982" opacity="0.5" fill="#ffffff" fill-rule="evenodd"/>
 <rect height="11.853" rx="5.927" y="-12.7" x="-12.7" width="11.853" transform="scale(-1,-1)" fill="url(#0)" fill-rule="evenodd"/>
 <path d="M 23.96875 14.3125 C 19.763478 14.3125 16.375 17.54554 16.375 21.53125 C 16.375 25.517165 19.763478 28.78125 23.96875 28.78125 C 28.174022 28.78125 31.59375 25.517165 31.59375 21.53125 C 31.59375 17.54554 28.174022 14.3125 23.96875 14.3125 z M 24 17 C 24.359788 17 25 17.319965 25 17.65625 L 25 20.875 C 25.013441 21.199414 24.408557 21.503329 24.0625 21.53125 C 24.041701 21.531849 24.020799 21.531849 24 21.53125 C 23.632687 21.533025 22.987138 21.218113 23 20.875 L 23 17.65625 C 23 17.319962 23.640214 17 24 17 z M 21.5 17.75 C 21.89149 17.75 22.057001 18.106737 22 18.46875 L 22 20.75 C 22.014253 21.068539 22 21.489926 21.5 21.40625 C 21.112547 21.441418 21.015801 21.113563 21.03125 20.75 L 21.03125 18.46875 C 20.974224 18.106738 21.108507 17.75 21.5 17.75 z M 26.5 18.5 C 26.859586 18.5 26.999744 18.82015 27 19.15625 L 27 20.75 C 27 21.003677 27.103854 21.369127 26.5 21.40625 C 26.103854 21.412161 26 21.003676 26 20.75 L 26 19.15625 C 26.000314 18.82015 26.140414 18.5 26.5 18.5 z M 20.96875 22.09375 C 21.220991 22.081139 21.460269 22.131384 21.65625 22.28125 L 24 24.5 L 26.21875 22.375 C 26.504083 22.093523 26.992993 22.005032 27.375 22.15625 C 27.757006 22.307475 28.017717 22.706349 28 23.09375 C 27.992371 23.340844 27.877613 23.578157 27.6875 23.75 L 24.6875 26.71875 C 24.515558 26.876657 24.302931 26.983807 24.0625 27 C 23.766848 27.024743 23.461323 26.913593 23.25 26.71875 L 20.21875 23.65625 C 19.892469 23.294244 19.925734 22.712107 20.28125 22.375 C 20.459006 22.206447 20.716509 22.106361 20.96875 22.09375 z " transform="scale(0.28222223,0.28222223)" fill="#f9f9f9"/>
 <rect height="6.773" rx="0.373" y="3.387" x="3.951" width="5.644" fill="none" stroke="#f9f9f9" stroke-width="0.564"/>
 <path d="m 7.4968808,8.373807 0.9652189,1.1435678 0.4826097,0 0,-0.4574214 z" fill="#f9f9f9"/>
</svg>
