<svg xmlns="http://www.w3.org/2000/svg" xmlns:xlink="http://www.w3.org/1999/xlink" width="48" viewBox="0 0 13.546667 13.546667" height="48">
 <defs>
  <linearGradient id="0">
   <stop stop-color="#333"/>
   <stop offset="1" stop-color="#555"/>
  </linearGradient>
  <linearGradient gradientTransform="matrix(1.10525 0 0 1.10525 -134.27874 -295.76183)" xlink:href="#0" id="1" y1="279.1" y2="268.33" gradientUnits="userSpaceOnUse" x2="0"/>
 </defs>
 <g fill-rule="evenodd">
  <rect width="12.982" x="0.282" y="0.283" rx="6.491" height="12.982" opacity="0.5" fill="#fff"/>
  <rect width="11.853" x="0.847" y="0.847" rx="5.926" height="11.853" fill="url(#1)"/>
 </g>
 <rect width="6.773" x="3.387" y="3.387" rx="1" height="6.773" fill="#f9f9f9"/>
 <path d="m -1.9882615,-9.1363467 -0.9965972,0 0,5.6444446 1.6933333,0 0,-3.9511112 3.3866668,0 0,3.9511112 1.6933331,0 0,-4.6478475 c 0,-0.5539998 -0.442597,-0.9965971 -0.9965969,-0.9965971 z" fill="#f9f9f9"/>
 <path d="m 18,19 0,10 3,0 0,-7 1,0 0,7 4,0 0,-7 1,0 0,7 3,0 0,-8.25 C 30,19.768504 29.231496,19 28.25,19 l -8.5,0 z" transform="scale(0.28222223,0.28222223)" fill="#ca241b"/>
</svg>
