<svg xmlns="http://www.w3.org/2000/svg" xmlns:xlink="http://www.w3.org/1999/xlink" width="48" viewBox="0 0 13.546667 13.546667" height="48">
 <defs>
  <linearGradient id="0">
   <stop stop-color="#2e8935"/>
   <stop offset="1" stop-color="#42ae4b"/>
  </linearGradient>
  <linearGradient xlink:href="#0" id="1" gradientUnits="userSpaceOnUse" gradientTransform="matrix(1.10525,0,0,1.10525,-134.27874,-295.76183)" y1="279.1" x2="0" y2="268.33"/>
 </defs>
 <rect height="12.982" rx="6.491" y="0.282" x="0.282" width="12.982" opacity="0.5" fill="#ffffff" fill-rule="evenodd"/>
 <rect height="11.853" rx="5.926" y="0.847" x="0.847" width="11.853" fill="url(#1)" fill-rule="evenodd"/>
 <path d="M 24 9 C 15.716694 9 9 15.716694 9 24 C 9 32.283306 15.716694 39 24 39 C 32.283306 39 39 32.283306 39 24 C 39 15.716694 32.283306 9 24 9 z M 24 11 L 28 16 L 26 16 L 26 18 L 30 21 L 29 22 L 26 19.75 L 26 28 L 22 28 L 22 19.75 L 19 22 L 18 21 L 22 18 L 22 16 L 20 16 L 24 11 z M 14 21 C 15.656854 21 17 22.343145 17 24 C 17 25.656854 15.656854 27 14 27 C 12.343146 27 11 25.656854 11 24 C 11 22.343145 12.343146 21 14 21 z M 34 21 C 35.656855 21 37 22.343145 37 24 C 37 25.656854 35.656855 27 34 27 C 32.343146 27 31 25.656854 31 24 C 31 22.343145 32.343146 21 34 21 z M 24 31 C 25.656854 31 27 32.343145 27 34 C 27 35.656855 25.656854 37 24 37 C 22.343146 37 21 35.656855 21 34 C 21 32.343145 22.343146 31 24 31 z " transform="scale(0.28222223,0.28222223)" fill="#f2f2f2"/>
</svg>
