<svg xmlns="http://www.w3.org/2000/svg" xmlns:xlink="http://www.w3.org/1999/xlink" width="48" viewBox="0 0 13.546667 13.546667" height="48">
 <defs>
  <linearGradient xlink:href="#1" id="0" gradientUnits="userSpaceOnUse" gradientTransform="matrix(1.10525,0,0,1.10525,-134.27852,-295.7614)" y1="279.1" x2="0" y2="268.33"/>
  <linearGradient id="1">
   <stop stop-color="#214387"/>
   <stop offset="1" stop-color="#4b68a2"/>
  </linearGradient>
 </defs>
 <rect height="12.982" rx="6.491" y="0.282" x="0.282" width="12.982" opacity="0.5" fill="#ffffff" fill-rule="evenodd"/>
 <rect height="11.853" rx="5.926" y="0.847" x="0.847" width="11.853" fill="url(#0)" fill-rule="evenodd"/>
 <path d="m 6.7735559,2.5404405 c -2.0245065,0 -3.6688892,1.8943077 -3.6688892,4.2299368 0,2.3356565 1.6443858,4.2367297 3.6688892,4.2367297 2.0245025,0 3.6688881,-1.9010732 3.6688881,-4.2367297 0,-2.3356291 -1.6443856,-4.2299368 -3.6688881,-4.2299368 z m 0,0.541866 c 1.6771699,0 1.8380264,1.6507435 1.8380264,3.6880708 3.1e-6,2.0373549 -0.22294,3.6914857 -1.8380264,3.6914857 -1.6435785,0 -1.8380293,-1.6541308 -1.8380293,-3.6914857 0,-2.0373273 0.1892653,-3.6880708 1.8380293,-3.6880708 z" fill="#85cbeb"/>
</svg>
