<svg xmlns="http://www.w3.org/2000/svg" xmlns:xlink="http://www.w3.org/1999/xlink" width="48" viewBox="0 0 13.546667 13.546667" height="48">
 <defs>
  <linearGradient id="0">
   <stop stop-color="#cecece"/>
   <stop offset="1" stop-color="#eeeeee"/>
  </linearGradient>
  <linearGradient xlink:href="#0" id="1" gradientUnits="userSpaceOnUse" gradientTransform="matrix(1.10525,0,0,1.10525,-134.22541,-295.81514)" y1="279.1" x2="0" y2="268.33"/>
 </defs>
 <rect height="12.982" rx="6.491" y="0.282" x="0.282" width="12.982" opacity="0.5" fill="#ffffff" fill-rule="evenodd"/>
 <rect height="11.853" rx="5.926" y="0.794" x="0.9" width="11.853" fill="url(#1)" fill-rule="evenodd"/>
 <path d="M 10.365362,6.5627689 C 10.288514,6.4637854 10.203944,6.3704701 10.119273,6.279022 9.6621365,5.7849428 9.1368528,5.3444724 8.5621682,5.0249046 8.1950201,4.8209009 7.8020463,4.6559629 7.3948413,4.576955 7.187706,4.5365882 6.9847126,4.5159331 6.7717873,4.5155558 6.564738,4.5159424 6.3574881,4.5366825 6.1503528,4.576955 5.7431621,4.655991 5.3510053,4.8209009 4.9838572,5.0249046 4.4091295,5.3444535 3.8842759,5.7849618 3.4271251,6.279022 3.3424397,6.3704134 3.2580977,6.4637947 3.1812657,6.5627689 c -0.1024283,0.1323244 -0.1024283,0.2887742 0,0.4211076 0.2342364,0.3018367 0.5127003,0.5704369 0.7960083,0.816024 0.6100982,0.5289474 1.3077627,0.9713137 2.0779883,1.1496256 0.2382064,0.054987 0.4772295,0.081771 0.7165537,0.081583 0.2422621,2.83e-4 0.4799381,-0.026503 0.7181157,-0.081583 0.77024,-0.1783119 1.469481,-0.6206782 2.0795787,-1.1496256 0.2833085,-0.2455683 0.5617146,-0.514206 0.7959516,-0.816024 0.102414,-0.1323051 0.102314,-0.2887551 -1e-4,-0.4211076 z" fill="#515151"/>
 <path d="M 6.6741126,5.0947418 C 6.3790375,5.1856867 6.6378781,5.6065132 6.2151065,5.8123793 5.7328043,6.0480089 5.4929482,5.4535604 5.2030494,5.8776942 4.9131502,6.3026545 5.6025222,6.2365128 5.5835416,6.7367091 5.5636925,7.2360789 4.8812269,7.1302522 5.1374766,7.5709212 5.3937268,8.01159 5.6784486,7.4328505 6.1417685,7.6974172 6.6050897,7.961157 6.1616176,8.4497788 6.7077617,8.4663138 7.2539095,8.4820238 6.8483966,7.9694248 7.3315614,7.733795 7.8138631,7.4981652 8.0537202,8.0926136 8.3436179,7.6684801 8.6335172,7.2435196 7.9441457,7.3096614 7.9631269,6.8102917 7.9829705,6.3100953 8.6654405,6.4167486 8.4091908,5.975253 8.1529407,5.5345842 7.8682195,6.1133237 7.4048988,5.8495838 6.9415789,5.5850171 7.3850552,5.0963955 6.8389057,5.0806867 c -0.068159,-0.00248 -0.122516,0.00165 -0.1647931,0.014055 z m 0.00518,1.2724006 C 6.923465,6.3191899 7.1624596,6.4622212 7.2142264,6.6871028 7.2659794,6.9111579 7.1106752,7.1319055 6.867367,7.1790316 6.6232081,7.2269841 6.3842144,7.0839529 6.3324464,6.8590712 6.2806774,6.6350162 6.4359823,6.4150952 6.6792895,6.3671424 z" fill="#84e85d"/>
</svg>
