<svg xmlns="http://www.w3.org/2000/svg" xmlns:xlink="http://www.w3.org/1999/xlink" width="48" viewBox="0 0 13.546667 13.546667" height="48">
 <defs>
  <linearGradient id="0">
   <stop stop-color="#6f5182"/>
   <stop offset="1" stop-color="#a780bd"/>
  </linearGradient>
  <linearGradient xlink:href="#0" id="1" gradientUnits="userSpaceOnUse" gradientTransform="matrix(1.10528,0,0,1.10528,-134.28288,-295.77052)" y1="279.1" x2="0" y2="268.33"/>
 </defs>
 <rect height="12.982" rx="6.491" y="0.282" x="0.282" width="12.982" opacity="0.5" fill="#ffffff" fill-rule="evenodd"/>
 <rect height="11.853" rx="5.926" y="0.847" x="0.847" width="11.853" fill="url(#1)" fill-rule="evenodd"/>
 <path d="M 16.5 11.5 L 19.09375 25.40625 C 19.395411 27.03198 20.258197 28.510713 22.28125 28.65625 C 22.87506 29.923877 21.416023 32.262321 22.65625 33.15625 C 21.095374 33.860322 19.478251 33.193203 19.8125 34.65625 C 18.014878 34.575473 17.651122 35.477639 17.46875 36.5 L 30.5 36.5 C 30.317626 35.477639 29.985123 34.575473 28.1875 34.65625 C 28.521749 33.193203 26.904625 33.860322 25.34375 33.15625 C 26.583975 32.262321 25.124942 29.923877 25.71875 28.65625 C 27.741804 28.510713 28.604588 27.03198 28.90625 25.40625 L 31.5 11.5 L 16.5 11.5 z M 29 14 C 29 14 28.092604 16.15955 26.75 16.25 C 25.481328 16.336478 25.093717 16.516749 25.0625 16.5625 L 26.40625 21.75 C 26.415533 21.784501 26.429988 21.839744 26.4375 21.875 C 26.679737 23.002343 25.986013 24.379236 24.78125 25.25 C 23.252926 26.354767 21.322577 26.244319 20.4375 25.03125 C 19.552494 23.818406 20.065424 21.948517 21.59375 20.84375 C 22.776771 19.988737 24.218159 19.86353 25.21875 20.40625 L 23.8125 15.1875 L 23.78125 15.15625 C 23.78125 15.15625 24.532614 14.375929 25.40625 14.15625 C 25.697176 14.082234 26.015404 14.051549 26.3125 14.15625 C 27.500898 14.575208 29 14 29 14 z " transform="scale(0.28222223,0.28222223)" fill="#f9f9f9"/>
 <path d="M 4.5155557,3.1044445 4.5444874,3.28125 5.25,7.1875 C 5.2956324,7.4333698 5.3965121,7.6827619 5.5625,7.875 5.6993762,8.0335225 5.9150301,8.1065169 6.15625,8.15625 6.2070607,8.2646927 6.1647644,8.5014486 6.125,8.75 6.105118,8.8742757 6.108605,8.9967554 6.125,9.125 6.13085,9.170743 6.16977,9.205017 6.1875,9.25 6.045313,9.2867134 5.8821384,9.318618 5.75,9.34375 5.6604025,9.3607909 5.5718249,9.3819935 5.5,9.46875 5.4605552,9.516395 5.4744405,9.5925946 5.46875,9.65625 5.2731587,9.6719967 5.1015695,9.7089847 5,9.8125 4.8313495,10.014817 4.8164341,10.204024 4.7977779,10.442222 l 0.1397221,0 3.6875,0 0.1238891,0 -0.029776,-0.160972 C 8.6918412,10.128405 8.6905097,9.9429621 8.5625,9.8125 8.4597399,9.7077712 8.2615075,9.6710381 8.0625,9.65625 8.0567128,9.5933914 8.0701441,9.5160216 8.03125,9.46875 7.9597535,9.3818537 7.870602,9.360809 7.78125,9.34375 7.6519524,9.3190646 7.5143825,9.2849882 7.375,9.25 7.3927298,9.2050166 7.4316523,9.1707433 7.4375,9.125 7.4538945,8.9967555 7.4261322,8.8742757 7.40625,8.75 7.3685727,8.5144941 7.3355232,8.3024888 7.375,8.1875 7.37719,8.18113 7.37233,8.161942 7.375,8.15625 7.6310261,8.1106509 7.8572503,8.0403247 8,7.875 8.165988,7.6827619 8.2668673,7.4333697 8.3125,7.1875 L 9.0025689,3.28125 9.0311109,3.1044445 z M 4.8125,3.375 l 3.90625,0 -0.6875,3.78125 C 7.9917358,7.3691537 7.9024107,7.5471784 7.78125,7.6875 7.6600893,7.8278216 7.5030244,7.9193017 7.25,7.9375 l -0.09375,0 L 7.125,8.03125 c -0.1167975,0.2492754 -0.037273,0.5170211 0,0.75 0.018637,0.1164894 0.041128,0.2352289 0.03125,0.3125 C 7.1463718,9.1710211 7.1157341,9.2116387 7.0625,9.25 L 6.875,9.375 7.09375,9.5 c 0.2518352,0.1135709 0.4914501,0.099503 0.625,0.125 0.066775,0.012749 0.093377,0.030796 0.09375,0.03125 3.733e-4,4.537e-4 0.018657,0.012106 0,0.09375 L 7.78125,9.9375 7.96875,9.90625 c 0.229758,-0.010322 0.312965,0.061777 0.375,0.125 0.02814,0.02868 0.044114,0.08041 0.0625,0.125 l -3.28125,0 c 0.018386,-0.04459 0.03436,-0.09632 0.0625,-0.125 0.062035,-0.063223 0.1764921,-0.135322 0.40625,-0.125 L 5.78125,9.9375 5.71875,9.75 C 5.700122,9.668482 5.7182586,9.656844 5.71875,9.65625 5.7192414,9.6556565 5.7453753,9.6377667 5.8125,9.625 5.9467495,9.5994665 6.1855778,9.61361 6.4375,9.5 L 6.6875,9.375 6.46875,9.25 C 6.415516,9.211639 6.416128,9.171021 6.40625,9.09375 c -0.00988,-0.077271 -0.018637,-0.1960106 0,-0.3125 0.037273,-0.2329789 0.1167977,-0.5007246 0,-0.75 L 6.375,7.9375 l -0.0625,0 C 6.0594756,7.9193017 5.8711606,7.8278215 5.75,7.6875 5.6288394,7.5471785 5.5707641,7.3691536 5.53125,7.15625 z" color="#000000" fill="#f9f9f9"/>
</svg>
