<svg xmlns="http://www.w3.org/2000/svg" xmlns:xlink="http://www.w3.org/1999/xlink" width="48" viewBox="0 0 13.546667 13.546667" height="48">
 <defs>
  <clipPath>
   <rect width="16" x="432" y="116" rx="3" height="16" color="#bebebe"/>
  </clipPath>
  <clipPath>
   <rect width="22" x="433" y="77" rx="5" height="22" color="#bebebe"/>
  </clipPath>
  <clipPath>
   <rect width="20" x="434" y="78" rx="4" height="20" color="#bebebe"/>
  </clipPath>
  <clipPath>
   <rect width="60" x="306" y="142" rx="12.5" height="60" transform="matrix(0 -1 1 0 0 0)" fill="url(#3)" color="#bebebe"/>
  </clipPath>
  <clipPath>
   <rect width="22" x="433" y="77" rx="4" height="22" color="#bebebe"/>
  </clipPath>
  <clipPath>
   <rect width="30" x="433" y="29" rx="6" height="30" color="#bebebe"/>
  </clipPath>
  <clipPath>
   <rect width="42" x="307" y="223" rx="9" height="42" transform="rotate(90)" fill="url(#6)" color="#bebebe"/>
  </clipPath>
  <clipPath>
   <rect width="22" x="433" y="77" rx="5" height="22" color="#bebebe"/>
  </clipPath>
  <clipPath>
   <rect width="90" x="307" y="31" rx="18.75" height="90" fill="url(#0)" color="#bebebe"/>
  </clipPath>
  <clipPath>
   <rect width="22" x="433" y="77" rx="3" height="22" opacity="0.2" fill="#6d6d6d" color="#bebebe"/>
  </clipPath>
  <clipPath>
   <rect width="16" x="432" y="116" rx="2" height="16" opacity="0.2" fill="#6d6d6d" color="#bebebe"/>
  </clipPath>
  <clipPath>
   <rect width="30" x="433" y="29" rx="4" height="30" opacity="0.2" fill="#6d6d6d" color="#bebebe"/>
  </clipPath>
  <clipPath>
   <rect width="30" x="433" y="29" rx="6" height="30" color="#bebebe"/>
  </clipPath>
  <clipPath>
   <rect width="16" x="432" y="116" rx="2" height="16" opacity="0.2" fill="#6d6d6d" color="#bebebe"/>
  </clipPath>
  <clipPath>
   <rect width="90" x="307" y="31" rx="18.75" height="90" fill="url(#5)" color="#bebebe"/>
  </clipPath>
  <clipPath>
   <path d="m 104,100 0,40 -40,0 0,40 40,0 0,40 40,0 80,0 0,-120 -80,0 -40,0 z"/>
  </clipPath>
  <clipPath>
   <rect width="240" x="24" y="36" rx="50" height="240" fill="#986767" color="#bebebe"/>
  </clipPath>
  <clipPath>
   <rect width="240" x="24" y="36" rx="50" height="240" fill="#986767" color="#bebebe"/>
  </clipPath>
  <clipPath>
   <rect width="22" x="433" y="77" rx="3" height="22" opacity="0.2" fill="#6d6d6d" color="#bebebe"/>
  </clipPath>
  <clipPath>
   <rect width="22" x="433" y="77" rx="4" height="22" color="#bebebe"/>
  </clipPath>
  <clipPath>
   <rect width="30" x="433" y="29" rx="4" height="30" opacity="0.2" fill="#6d6d6d" color="#bebebe"/>
  </clipPath>
  <clipPath>
   <rect width="60" x="306" y="142" rx="12.5" height="60" transform="matrix(0 -1 1 0 0 0)" fill="url(#4)" color="#bebebe"/>
  </clipPath>
  <clipPath>
   <rect width="16" x="432" y="116" rx="3" height="16" color="#bebebe"/>
  </clipPath>
  <clipPath>
   <rect width="20" x="434" y="78" rx="4" height="20" color="#bebebe"/>
  </clipPath>
  <clipPath>
   <rect width="42" x="307" y="223" rx="9" height="42" transform="rotate(90)" fill="url(#2)" color="#bebebe"/>
  </clipPath>
  <linearGradient gradientTransform="matrix(.375 0 0 .375 298 16)" id="0" xlink:href="#7" y1="230" y2="90" x2="0" gradientUnits="userSpaceOnUse"/>
  <linearGradient id="1">
   <stop stop-color="#e0491e"/>
   <stop offset="1" stop-color="#f77737"/>
  </linearGradient>
  <linearGradient gradientTransform="matrix(.175 0 0 .175 302.79999 215.99997)" id="2" xlink:href="#8" y1="280" y2="40" x2="0" gradientUnits="userSpaceOnUse"/>
  <linearGradient gradientTransform="matrix(.25 0 0 .25 299.99999 131.99999)" id="3" xlink:href="#7" y1="230" y2="90" x2="0" gradientUnits="userSpaceOnUse"/>
  <linearGradient gradientTransform="matrix(.25 0 0 .25 299.99999 131.99999)" id="4" xlink:href="#8" y1="230" y2="90" x2="0" gradientUnits="userSpaceOnUse"/>
  <linearGradient gradientTransform="matrix(.375 0 0 .375 298 16)" id="5" xlink:href="#8" y1="230" y2="90" x2="0" gradientUnits="userSpaceOnUse"/>
  <linearGradient gradientTransform="matrix(.175 0 0 .175 302.79999 215.99997)" id="6" xlink:href="#7" y1="280" y2="40" x2="0" gradientUnits="userSpaceOnUse"/>
  <linearGradient id="7">
   <stop stop-color="#323232"/>
   <stop offset="1" stop-color="#767676"/>
  </linearGradient>
  <linearGradient id="8">
   <stop stop-color="#f3f3f3"/>
   <stop offset="1" stop-color="#fff"/>
  </linearGradient>
  <linearGradient xlink:href="#1" id="9" gradientUnits="userSpaceOnUse" gradientTransform="matrix(1.10525,0,0,1.10525,-134.27851,-295.76238)" y1="279.1" x2="0" y2="268.33"/>
 </defs>
 <path d="m 15.562298,3.6688882 0,1.9755556 1.975555,0 0,-1.9755556 -1.975555,0 z m 0.282222,0.2822222 1.411111,0 0,1.4111112 -1.411111,0 0,-1.4111112 z"/>
 <path d="m 20.642298,3.6688883 0,1.9755555 1.975555,0 0,-1.9755555 -1.975555,0 z m 0.282222,0.2822223 1.411111,0 0,1.411111 -1.411111,0 0,-1.4111111 z"/>
 <path d="m 15.562298,8.7488887 0,1.9755553 1.975555,0 0,-1.9755553 -1.975555,0 z m 0.282222,0.2822222 1.411111,0 0,1.4111111 -1.411111,0 0,-1.4111111 z"/>
 <rect height="12.982" rx="6.491" y="0.282" x="0.282" width="12.982" opacity="0.5" fill="#ffffff" fill-rule="evenodd"/>
 <rect height="11.853" rx="5.926" y="0.846" x="0.847" width="11.853" fill="url(#9)" fill-rule="evenodd"/>
 <rect width="7.338" x="3.104" y="3.104" rx="1.083" height="7.338" fill="#f9f9f9"/>
 <g>
  <rect y="3.669" x="3.669" height="1.976" width="0.282" opacity="0.85" fill="#c7c7c7"/>
  <rect y="3.669" x="3.951" height="0.282" width="1.693" opacity="0.85" fill="#c7c7c7"/>
  <rect y="3.951" x="5.362" height="1.693" width="0.282" opacity="0.85" fill="#c7c7c7"/>
  <rect y="5.362" x="3.951" height="0.282" width="1.411" opacity="0.85" fill="#c7c7c7"/>
  <rect y="5.927" x="3.669" height="0.282" width="0.282" opacity="0.85" fill="#c7c7c7"/>
  <rect y="5.927" x="4.233" height="0.282" width="0.282" opacity="0.85" fill="#c7c7c7"/>
  <rect y="6.209" x="3.951" height="0.282" width="0.282" opacity="0.85" fill="#c7c7c7"/>
  <rect y="6.491" x="3.669" height="0.282" width="0.282" opacity="0.85" fill="#c7c7c7"/>
  <rect y="4.233" x="7.06" height="1.693" width="0.282" opacity="0.85" fill="#c7c7c7"/>
  <rect y="4.798" x="6.773" height="0.564" width="0.282" opacity="0.85" fill="#c7c7c7"/>
  <rect y="5.362" x="6.491" height="0.282" width="0.282" opacity="0.85" fill="#c7c7c7"/>
  <rect y="5.08" x="5.927" height="0.564" width="0.282" opacity="0.85" fill="#c7c7c7"/>
  <rect y="4.516" x="6.209" height="0.564" width="0.282" opacity="0.85" fill="#c7c7c7"/>
  <rect y="4.233" x="6.491" height="0.282" width="0.564" opacity="0.85" fill="#c7c7c7"/>
  <rect y="3.669" x="6.209" height="0.564" width="0.282" opacity="0.85" fill="#c7c7c7"/>
  <rect y="3.669" x="5.927" height="0.282" width="0.282" opacity="0.85" fill="#c7c7c7"/>
  <rect y="4.233" x="5.927" height="0.282" width="0.282" opacity="0.85" fill="#c7c7c7"/>
  <rect y="3.951" x="6.773" height="0.282" width="0.282" opacity="0.85" fill="#c7c7c7"/>
  <rect y="3.669" x="7.06" height="0.282" width="0.282" opacity="0.85" fill="#c7c7c7"/>
  <rect y="6.491" x="5.08" height="0.282" width="0.847" opacity="0.85" fill="#c7c7c7"/>
  <rect y="5.927" x="5.362" height="0.282" width="0.564" opacity="0.85" fill="#c7c7c7"/>
  <rect y="6.209" x="4.798" height="0.282" width="0.282" opacity="0.85" fill="#c7c7c7"/>
  <rect y="6.491" x="4.516" height="0.282" width="0.282" opacity="0.85" fill="#c7c7c7"/>
  <rect y="6.773" x="4.233" height="0.564" width="0.282" opacity="0.85" fill="#c7c7c7"/>
  <rect y="6.773" x="4.798" height="0.564" width="0.282" opacity="0.85" fill="#c7c7c7"/>
  <rect y="7.06" x="5.362" height="0.282" width="0.282" opacity="0.85" fill="#c7c7c7"/>
  <rect y="6.773" x="5.08" height="0.282" width="0.282" opacity="0.85" fill="#c7c7c7"/>
  <rect y="6.209" x="5.927" height="0.282" width="0.564" opacity="0.85" fill="#c7c7c7"/>
  <rect y="5.927" x="6.209" height="0.282" width="0.282" opacity="0.85" fill="#c7c7c7"/>
  <rect y="4.233" x="4.233" height="0.847" width="0.847" opacity="0.85" fill="#c7c7c7"/>
  <rect y="4.233" x="8.184" height="0.847" width="0.847" opacity="0.85" fill="#c7c7c7"/>
  <rect y="3.669" x="7.62" height="0.282" width="1.976" opacity="0.85" fill="#c7c7c7"/>
  <rect y="3.951" x="9.313" height="1.693" width="0.282" opacity="0.85" fill="#c7c7c7"/>
  <rect y="3.951" x="7.62" height="1.693" width="0.282" opacity="0.85" fill="#c7c7c7"/>
  <rect y="5.362" x="7.902" height="0.282" width="1.411" opacity="0.85" fill="#c7c7c7"/>
  <rect y="5.927" x="9.313" height="0.847" width="0.282" opacity="0.85" fill="#c7c7c7"/>
  <rect y="7.62" x="3.669" height="0.282" width="1.976" opacity="0.85" fill="#c7c7c7"/>
  <rect y="7.902" x="3.669" height="1.693" width="0.282" opacity="0.85" fill="#c7c7c7"/>
  <rect y="9.313" x="3.951" height="0.282" width="1.693" opacity="0.85" fill="#c7c7c7"/>
  <rect y="7.902" x="5.362" height="1.411" width="0.282" opacity="0.85" fill="#c7c7c7"/>
  <rect y="8.184" x="4.233" height="0.847" width="0.847" opacity="0.85" fill="#c7c7c7"/>
  <rect y="6.209" x="8.184" height="0.847" width="0.564" opacity="0.85" fill="#c7c7c7"/>
  <rect y="7.06" x="9.313" height="1.129" width="0.282" opacity="0.85" fill="#c7c7c7"/>
  <rect y="8.184" x="8.184" height="1.411" width="0.564" opacity="0.85" fill="#c7c7c7"/>
  <rect y="8.749" x="5.927" height="0.282" width="1.693" opacity="0.85" fill="#c7c7c7"/>
  <rect y="9.03" x="7.338" height="0.564" width="0.282" opacity="0.85" fill="#c7c7c7"/>
  <rect y="7.338" x="8.184" height="0.564" width="0.564" opacity="0.85" fill="#c7c7c7"/>
  <rect y="7.902" x="9.03" height="0.564" width="0.282" opacity="0.85" fill="#c7c7c7"/>
  <rect y="8.467" x="8.749" height="0.282" width="0.282" opacity="0.85" fill="#c7c7c7"/>
  <rect y="8.749" x="9.03" height="0.282" width="0.564" opacity="0.85" fill="#c7c7c7"/>
  <rect y="9.313" x="9.313" height="0.282" width="0.282" opacity="0.85" fill="#c7c7c7"/>
  <rect y="7.62" x="8.749" height="0.282" width="0.282" opacity="0.85" fill="#c7c7c7"/>
  <rect y="5.927" x="8.749" height="0.282" width="0.282" opacity="0.85" fill="#c7c7c7"/>
  <rect y="6.209" x="7.338" height="0.282" width="0.564" opacity="0.85" fill="#c7c7c7"/>
  <rect y="5.927" x="7.902" height="0.282" width="0.282" opacity="0.85" fill="#c7c7c7"/>
  <rect y="6.209" x="6.773" height="1.129" width="0.282" opacity="0.85" fill="#c7c7c7"/>
  <rect y="6.491" x="7.62" height="0.282" width="0.564" opacity="0.85" fill="#c7c7c7"/>
  <rect y="6.773" x="7.902" height="0.282" width="0.282" opacity="0.85" fill="#c7c7c7"/>
  <rect y="6.773" x="7.338" height="0.282" width="0.282" opacity="0.85" fill="#c7c7c7"/>
  <rect y="6.491" x="7.06" height="0.282" width="0.282" opacity="0.85" fill="#c7c7c7"/>
  <rect y="6.491" x="6.491" height="0.282" width="0.282" opacity="0.85" fill="#c7c7c7"/>
  <rect y="7.06" x="5.927" height="0.847" width="0.282" opacity="0.85" fill="#c7c7c7"/>
  <rect y="7.338" x="6.209" height="0.847" width="0.282" opacity="0.85" fill="#c7c7c7"/>
  <rect y="7.06" x="6.491" height="0.564" width="0.282" opacity="0.85" fill="#c7c7c7"/>
  <rect y="7.06" x="7.06" height="0.282" width="0.282" opacity="0.85" fill="#c7c7c7"/>
  <rect y="9.03" x="6.209" height="0.282" width="0.847" opacity="0.85" fill="#c7c7c7"/>
  <rect y="9.313" x="5.927" height="0.282" width="0.282" opacity="0.85" fill="#c7c7c7"/>
  <rect y="9.313" x="6.491" height="0.282" width="0.282" opacity="0.85" fill="#c7c7c7"/>
  <rect y="9.313" x="7.06" height="0.282" width="0.282" opacity="0.85" fill="#c7c7c7"/>
  <rect y="9.313" x="7.902" height="0.282" width="0.282" opacity="0.85" fill="#c7c7c7"/>
  <rect y="7.62" x="7.902" height="0.847" width="0.282" opacity="0.85" fill="#c7c7c7"/>
  <rect y="8.467" x="7.62" height="0.282" width="0.282" opacity="0.85" fill="#c7c7c7"/>
  <rect y="7.902" x="6.491" height="0.282" width="0.282" opacity="0.85" fill="#c7c7c7"/>
  <rect y="7.902" x="7.06" height="0.282" width="0.282" opacity="0.85" fill="#c7c7c7"/>
  <rect y="7.62" x="7.338" height="0.282" width="0.282" opacity="0.85" fill="#c7c7c7"/>
  <rect y="7.902" x="7.338" height="0.282" width="0.282" opacity="0.85" fill="#c7c7c7"/>
  <rect y="7.338" x="7.62" height="0.564" width="0.282" opacity="0.85" fill="#c7c7c7"/>
 </g>
 <rect width="0.282" height="1.976" x="3.951" y="3.951" opacity="0.85" fill="#2d2d2d"/>
 <rect width="1.693" height="0.282" x="4.233" y="3.951" opacity="0.85" fill="#2d2d2d"/>
 <rect width="0.282" height="1.693" x="5.644" y="4.233" opacity="0.85" fill="#2d2d2d"/>
 <rect width="1.411" height="0.282" x="4.233" y="5.644" opacity="0.85" fill="#2d2d2d"/>
 <rect width="0.282" height="0.282" x="3.951" y="6.209" opacity="0.85" fill="#2d2d2d"/>
 <rect width="0.282" height="0.282" x="4.516" y="6.209" opacity="0.85" fill="#2d2d2d"/>
 <rect width="0.282" height="0.282" x="4.233" y="6.491" opacity="0.85" fill="#2d2d2d"/>
 <rect width="0.282" height="0.282" x="3.951" y="6.773" opacity="0.85" fill="#2d2d2d"/>
 <rect width="0.282" height="1.693" x="7.338" y="4.516" opacity="0.85" fill="#2d2d2d"/>
 <rect width="0.282" height="0.564" x="7.06" y="5.08" opacity="0.85" fill="#2d2d2d"/>
 <rect width="0.282" height="0.282" x="6.773" y="5.644" opacity="0.85" fill="#2d2d2d"/>
 <rect width="0.282" height="0.564" x="6.209" y="5.362" opacity="0.85" fill="#2d2d2d"/>
 <rect width="0.282" height="0.564" x="6.491" y="4.798" opacity="0.85" fill="#2d2d2d"/>
 <rect width="0.564" height="0.282" x="6.773" y="4.516" opacity="0.85" fill="#2d2d2d"/>
 <rect width="0.282" height="0.564" x="6.491" y="3.951" opacity="0.85" fill="#2d2d2d"/>
 <rect width="0.282" height="0.282" x="6.209" y="3.951" opacity="0.85" fill="#2d2d2d"/>
 <rect width="0.282" height="0.282" x="6.209" y="4.516" opacity="0.85" fill="#2d2d2d"/>
 <rect width="0.282" height="0.282" x="7.06" y="4.233" opacity="0.85" fill="#2d2d2d"/>
 <rect width="0.282" height="0.282" x="7.338" y="3.951" opacity="0.85" fill="#2d2d2d"/>
 <rect width="0.847" height="0.282" x="5.362" y="6.773" opacity="0.85" fill="#2d2d2d"/>
 <rect width="0.564" height="0.282" x="5.644" y="6.209" opacity="0.85" fill="#2d2d2d"/>
 <rect width="0.282" height="0.282" x="5.08" y="6.491" opacity="0.85" fill="#2d2d2d"/>
 <rect width="0.282" height="0.282" x="4.798" y="6.773" opacity="0.85" fill="#2d2d2d"/>
 <rect width="0.282" height="0.564" x="4.516" y="7.06" opacity="0.85" fill="#2d2d2d"/>
 <rect width="0.282" height="0.564" x="5.08" y="7.06" opacity="0.85" fill="#2d2d2d"/>
 <rect width="0.282" height="0.282" x="5.644" y="7.338" opacity="0.85" fill="#2d2d2d"/>
 <rect width="0.282" height="0.282" x="5.362" y="7.06" opacity="0.85" fill="#2d2d2d"/>
 <rect width="0.564" height="0.282" x="6.209" y="6.491" opacity="0.85" fill="#2d2d2d"/>
 <rect width="0.282" height="0.282" x="6.491" y="6.209" opacity="0.85" fill="#2d2d2d"/>
 <rect width="0.847" height="0.847" x="4.516" y="4.516" opacity="0.85" fill="#2d2d2d"/>
 <rect width="0.847" height="0.847" x="8.467" y="4.516" opacity="0.85" fill="#2d2d2d"/>
 <rect width="1.976" height="0.282" x="7.902" y="3.951" opacity="0.85" fill="#2d2d2d"/>
 <rect width="0.282" height="1.693" x="9.596" y="4.233" opacity="0.85" fill="#2d2d2d"/>
 <rect width="0.282" height="1.693" x="7.902" y="4.233" opacity="0.85" fill="#2d2d2d"/>
 <rect width="1.411" height="0.282" x="8.184" y="5.644" opacity="0.85" fill="#2d2d2d"/>
 <rect width="0.282" height="0.847" x="9.596" y="6.209" opacity="0.85" fill="#2d2d2d"/>
 <rect width="1.976" height="0.282" x="3.951" y="7.902" opacity="0.85" fill="#2d2d2d"/>
 <rect width="0.282" height="1.693" x="3.951" y="8.184" opacity="0.85" fill="#2d2d2d"/>
 <rect width="1.693" height="0.282" x="4.233" y="9.596" opacity="0.85" fill="#2d2d2d"/>
 <rect width="0.282" height="1.411" x="5.644" y="8.184" opacity="0.85" fill="#2d2d2d"/>
 <rect width="0.847" height="0.847" x="4.516" y="8.467" opacity="0.85" fill="#2d2d2d"/>
 <rect width="0.564" height="0.847" x="8.467" y="6.491" opacity="0.85" fill="#2d2d2d"/>
 <rect width="0.282" height="1.129" x="9.596" y="7.338" opacity="0.85" fill="#2d2d2d"/>
 <rect width="0.564" height="1.411" x="8.467" y="8.467" opacity="0.85" fill="#2d2d2d"/>
 <rect width="1.693" height="0.282" x="6.209" y="9.03" opacity="0.85" fill="#2d2d2d"/>
 <rect width="0.282" height="0.564" x="7.62" y="9.313" opacity="0.85" fill="#2d2d2d"/>
 <rect width="0.564" height="0.564" x="8.467" y="7.62" opacity="0.85" fill="#2d2d2d"/>
 <rect width="0.282" height="0.564" x="9.313" y="8.184" opacity="0.85" fill="#2d2d2d"/>
 <rect width="0.282" height="0.282" x="9.03" y="8.749" opacity="0.85" fill="#2d2d2d"/>
 <rect width="0.564" height="0.282" x="9.313" y="9.03" opacity="0.85" fill="#2d2d2d"/>
 <rect width="0.282" height="0.282" x="9.596" y="9.596" opacity="0.85" fill="#2d2d2d"/>
 <rect width="0.282" height="0.282" x="9.03" y="7.902" opacity="0.85" fill="#2d2d2d"/>
 <rect width="0.282" height="0.282" x="9.03" y="6.209" opacity="0.85" fill="#2d2d2d"/>
 <rect width="0.564" height="0.282" x="7.62" y="6.491" opacity="0.85" fill="#2d2d2d"/>
 <rect width="0.282" height="0.282" x="8.184" y="6.209" opacity="0.85" fill="#2d2d2d"/>
 <rect width="0.282" height="1.129" x="7.06" y="6.491" opacity="0.85" fill="#2d2d2d"/>
 <rect width="0.564" height="0.282" x="7.902" y="6.773" opacity="0.85" fill="#2d2d2d"/>
 <rect width="0.282" height="0.282" x="8.184" y="7.06" opacity="0.85" fill="#2d2d2d"/>
 <rect width="0.282" height="0.282" x="7.62" y="7.06" opacity="0.85" fill="#2d2d2d"/>
 <rect width="0.282" height="0.282" x="7.338" y="6.773" opacity="0.85" fill="#2d2d2d"/>
 <rect width="0.282" height="0.282" x="6.773" y="6.773" opacity="0.85" fill="#2d2d2d"/>
 <rect width="0.282" height="0.847" x="6.209" y="7.338" opacity="0.85" fill="#2d2d2d"/>
 <rect width="0.282" height="0.847" x="6.491" y="7.62" opacity="0.85" fill="#2d2d2d"/>
 <rect width="0.282" height="0.564" x="6.773" y="7.338" opacity="0.85" fill="#2d2d2d"/>
 <rect width="0.282" height="0.282" x="7.338" y="7.338" opacity="0.85" fill="#2d2d2d"/>
 <rect width="0.847" height="0.282" x="6.491" y="9.313" opacity="0.85" fill="#2d2d2d"/>
 <rect width="0.282" height="0.282" x="6.209" y="9.596" opacity="0.85" fill="#2d2d2d"/>
 <rect width="0.282" height="0.282" x="6.773" y="9.596" opacity="0.85" fill="#2d2d2d"/>
 <rect width="0.282" height="0.282" x="7.338" y="9.596" opacity="0.85" fill="#2d2d2d"/>
 <rect width="0.282" height="0.282" x="8.184" y="9.596" opacity="0.85" fill="#2d2d2d"/>
 <rect width="0.282" height="0.847" x="8.184" y="7.902" opacity="0.85" fill="#2d2d2d"/>
 <rect width="0.282" height="0.282" x="7.902" y="8.749" opacity="0.85" fill="#2d2d2d"/>
 <rect width="0.282" height="0.282" x="6.773" y="8.184" opacity="0.85" fill="#2d2d2d"/>
 <rect width="0.282" height="0.282" x="7.338" y="8.184" opacity="0.85" fill="#2d2d2d"/>
 <rect width="0.282" height="0.282" x="7.62" y="7.902" opacity="0.85" fill="#2d2d2d"/>
 <rect width="0.282" height="0.282" x="7.62" y="8.184" opacity="0.85" fill="#2d2d2d"/>
 <rect width="0.282" height="0.564" x="7.902" y="7.62" opacity="0.85" fill="#2d2d2d"/>
 <text xml:space="preserve" x="15.804" y="3.387" font-family="Sans" word-spacing="0" line-height="125%" letter-spacing="0" font-size="1.129"><tspan x="15.804" y="3.387"><tspan font-size="0.847">Do not remove </tspan>
  </tspan>
 </text>
</svg>
