<svg xmlns="http://www.w3.org/2000/svg" xmlns:xlink="http://www.w3.org/1999/xlink" width="48" viewBox="0 0 13.546667 13.546667" height="48">
 <defs>
  <linearGradient id="0">
   <stop stop-color="#e6deba"/>
   <stop offset="1" stop-color="#fcf8d1"/>
  </linearGradient>
  <clipPath>
   <rect width="16.187" height="14.408" x="14.695" y="0.23" rx="0.423" ry="0.552" fill="#1194f0" stroke="#f9f9f9" stroke-width="0.282"/>
  </clipPath>
  <clipPath>
   <path d="m 100.0678,28.881355 a 19.525423,19.525423 0 1 1 -39.050849,0 19.525423,19.525423 0 1 1 39.050849,0 z" transform="matrix(0.28222223,0,0,0.28222223,-0.02870054,-0.05740113)"/>
  </clipPath>
  <linearGradient xlink:href="#0" id="1" gradientUnits="userSpaceOnUse" gradientTransform="matrix(1.10525,0,0,1.10525,-134.27865,-295.7627)" y1="279.1" x2="0" y2="268.33"/>
 </defs>
 <rect height="12.982" rx="6.491" y="0.282" x="0.282" width="12.982" opacity="0.5" fill="#ffffff" fill-rule="evenodd"/>
 <rect height="11.853" rx="5.926" y="0.846" x="0.847" width="11.853" fill="url(#1)" fill-rule="evenodd"/>
 <path d="m 11,21 26,0 0,-2 -26,0 z" transform="scale(0.28222223,0.28222223)" fill="#2d2d2d"/>
 <path d="M 24 9 C 15.715729 9 9 15.715729 9 24 C 9 32.284271 15.715729 39 24 39 C 32.284271 39 39 32.284271 39 24 C 39 15.715729 32.284271 9 24 9 z M 24 11 C 31.179702 11 37 16.820298 37 24 C 37 31.179702 31.179702 37 24 37 C 16.820298 37 11 31.179702 11 24 C 11 16.820298 16.820298 11 24 11 z " transform="scale(0.28222223,0.28222223)" fill="#2d2d2d"/>
 <path d="M 23.84375 22.5 C 20.941915 22.5 18.59375 25.313089 18.59375 28.78125 C 18.59375 32.249411 20.941915 35.0625 23.84375 35.0625 C 26.745585 35.0625 29.09375 32.249411 29.09375 28.78125 C 29.09375 25.313089 26.745585 22.5 23.84375 22.5 z M 23.84375 23.9375 C 26.07161 23.9375 27.875 26.118597 27.875 28.78125 C 27.875 31.443903 26.07161 33.59375 23.84375 33.59375 C 21.61589 33.59375 19.8125 31.443903 19.8125 28.78125 C 19.8125 26.118597 21.61589 23.9375 23.84375 23.9375 z " transform="scale(0.28222223,0.28222223)" fill="#2d2d2d"/>
 <path d="m 20.084746,32.237288 7.423729,-7.220339" transform="scale(0.28222223,0.28222223)" fill="#2d2d2d" stroke="#2d2d2d" stroke-width="1.5"/>
 <text x="5.02" y="5.431" transform="scale(1.0689981,0.93545536)" fill="#2d2d2d" font-family="Sans" word-spacing="0" line-height="125%" letter-spacing="0" font-size="2.054"><tspan x="5.02" y="5.431" font-family="gargi" font-weight="bold">KY</tspan>
 </text>
</svg>
