<svg xmlns="http://www.w3.org/2000/svg" xmlns:xlink="http://www.w3.org/1999/xlink" width="48" viewBox="0 0 13.546667 13.546667" height="48">
 <defs>
  <linearGradient id="0">
   <stop stop-color="#494949"/>
   <stop offset="1" stop-color="#1e1e1e"/>
  </linearGradient>
  <linearGradient xlink:href="#0" id="1" gradientUnits="userSpaceOnUse" gradientTransform="matrix(1.00003,0,0,1.00003,-3.6e-4,-3.6e-4)" y1="6.773" x2="0" y2="12.7"/>
 </defs>
 <path d="m 9.485771,6.6525245 c 0,-1.803225 -1.499238,-3.2658668 -3.347581,-3.2658668 -1.8483429,0 -3.0337453,1.4626418 -3.0337453,3.2658668 0,-1.2883845 0.7566729,-2.332762 2.0772936,-2.332762 1.3206207,0 2.3911293,1.0443775 2.3911293,2.332762 l 0,0.4665524 -0.9564517,0 1.9129034,1.8662096 1.9129037,-1.8662096 -0.956452,0 z" fill="#ea4cc5"/>
 <rect height="12.982" rx="6.491" y="0.282" x="0.282" width="12.982" opacity="0.5" fill="#ffffff" fill-rule="evenodd"/>
 <rect height="11.853" rx="5.926" y="0.847" x="0.847" width="11.853" fill="url(#1)" fill-rule="evenodd"/>
 <path d="M 22 9.125 C 15.316901 10.016196 10.016196 15.316901 9.125 22 L 20.5625 22 C 20.913069 21.395297 21.395297 20.913069 22 20.5625 L 22 9.125 z M 26 9.125 L 26 20.5625 C 26.604703 20.913069 27.086931 21.395297 27.4375 22 L 28 22 L 38.875 22 C 37.983804 15.316901 32.683099 10.016196 26 9.125 z M 9.125 26 C 10.016196 32.683099 15.316901 37.983804 22 38.875 L 22 27.4375 C 21.395297 27.086931 20.913069 26.604703 20.5625 26 L 9.125 26 z M 27.4375 26 C 27.086931 26.604703 26.604703 27.086931 26 27.4375 L 26 38.875 C 32.683099 37.983804 37.983804 32.683099 38.875 26 L 28 26 L 27.4375 26 z " transform="scale(0.28222223,0.28222223)" fill="#eb861b"/>
</svg>
