<svg width="48" xmlns="http://www.w3.org/2000/svg" viewBox="0 0 13.546667 13.546667" height="48" xmlns:xlink="http://www.w3.org/1999/xlink">
<defs>
<linearGradient id="linearGradient4460">
<stop offset="0" style="stop-color:#383838"/>
<stop offset="1" style="stop-color:#707070"/>
</linearGradient>
<linearGradient gradientTransform="matrix(1.10525 0 0 1.10525 -134.44109 -295.92418)" xlink:href="#linearGradient4460" id="linearGradient4451" y1="279.096" y2="268.33" gradientUnits="userSpaceOnUse" x2="0"/>
</defs>
<g style="fill-rule:evenodd">
<rect width="12.982" x=".12" y=".12" rx="6.491" height="12.982" style="opacity:.5;fill:#fff"/>
<rect width="11.853" x=".685" y=".685" rx="5.926" height="11.853" style="fill:url(#linearGradient4451)"/>
</g>
<path style="fill:#3ccd6b" d="M 4.3152,5.99624 A 0.58161039,0.59340663 0.02728205 1 1 3.4354343,6.7726743 0.58161039,0.59340663 0.02728205 1 1 4.3152,5.99624 z"/>
<path style="fill:#fc47ad" d="M 9.80849,4.98396 A 0.58161039,0.59340663 0.02728205 1 1 8.9287243,5.7603943 0.58161039,0.59340663 0.02728205 1 1 9.80849,4.98396 z"/>
<path style="fill:#ff4e55" d="M 8.82199,3.82045 A 0.58161039,0.59340663 0.02728205 1 1 7.9422243,4.5968843 0.58161039,0.59340663 0.02728205 1 1 8.82199,3.82045 z"/>
<path style="fill:#ffa21f" d="M 7.39213,3.30977 A 0.58161039,0.59340663 0.02728205 1 1 6.5123643,4.0862043 0.58161039,0.59340663 0.02728205 1 1 7.39213,3.30977 z"/>
<path style="fill:#ffd62a" d="M 5.93767,3.57632 A 0.58161039,0.59340663 0.02728205 1 1 5.0579043,4.3527543 0.58161039,0.59340663 0.02728205 1 1 5.93767,3.57632 z"/>
<path style="fill:#a5dc3c" d="M 4.79725,4.58279 A 0.58161039,0.59340663 0.02728205 1 1 3.9174843,5.3592243 0.58161039,0.59340663 0.02728205 1 1 4.79725,4.58279 z"/>
<path style="fill:#34b8ca" d="M 4.59056,7.49677 A 0.58161039,0.59340663 0.02728205 1 1 3.7107943,8.2732043 0.58161039,0.59340663 0.02728205 1 1 4.59056,7.49677 z"/>
<path style="fill:#be74e2" d="M 5.53037,8.67242 A 0.58161039,0.59340663 0.02728205 1 1 4.6506043,9.4488543 0.58161039,0.59340663 0.02728205 1 1 5.53037,8.67242 z"/>
<path style="fill:#f9f9f9;display:block;color:#000" d="m 8.1594121,6.5278283 c -0.093681,0 -0.1690988,0.076945 -0.1690988,0.1725232 l 0,0.2372194 C 7.9045245,6.9644471 7.82007,6.9980358 7.7419495,7.0400066 L 7.5781351,6.8728747 c -0.066242,-0.067584 -0.1768372,-0.067584 -0.2430795,0 L 6.9757208,7.2394866 c -0.066242,0.067584 -0.066242,0.1804184 0,0.2480021 L 7.1395352,7.6546206 C 7.0983975,7.734323 7.0654755,7.8204878 7.0391328,7.908014 l -0.2325108,0 c -0.093681,0 -0.1690988,0.076945 -0.1690988,0.1725233 l 0,0.5175696 c 0,0.095578 0.075418,0.1725233 0.1690988,0.1725233 l 0.2325108,0 c 0.026343,0.087526 0.059265,0.173691 0.1004024,0.2533934 L 6.9757208,9.1911555 c -0.066242,0.067584 -0.066242,0.1804184 0,0.2480021 l 0.3593348,0.3666119 c 0.066242,0.067584 0.1768372,0.067584 0.2430795,0 L 7.7419495,9.6386376 c 0.078121,0.041971 0.162575,0.07556 0.2483638,0.1024357 l 0,0.2372194 c 0,0.095578 0.075418,0.1725233 0.1690988,0.1725233 l 0.5072963,0 c 0.093681,0 0.1690987,-0.07695 0.1690987,-0.1725233 l 0,-0.2372194 c 0.085789,-0.026876 0.1702434,-0.060465 0.2483638,-0.1024357 l 0.1638144,0.1671319 c 0.066242,0.067584 0.1768373,0.067584 0.2430795,0 L 9.8503997,9.4391576 c 0.066242,-0.067584 0.066242,-0.1804184 0,-0.2480021 L 9.6865853,9.0240236 c 0.041138,-0.079702 0.07406,-0.1658674 0.1004023,-0.2533934 l 0.2325104,0 c 0.09368,0 0.169099,-0.076945 0.169099,-0.1725233 l 0,-0.5175696 c 0,-0.095578 -0.07542,-0.1725233 -0.169099,-0.1725233 l -0.2325104,0 C 9.7606449,7.8204878 9.7277229,7.734323 9.6865853,7.6546206 L 9.8503997,7.4874887 c 0.066242,-0.067584 0.066242,-0.1804184 0,-0.2480021 L 9.4910648,6.8728747 c -0.066242,-0.067584 -0.1768372,-0.067584 -0.2430795,0 L 9.0841709,7.0400066 C 9.0060505,6.9980358 8.9215958,6.9644471 8.8358071,6.9375709 l 0,-0.2372194 c 0,-0.095578 -0.075418,-0.1725232 -0.1690987,-0.1725232 l -0.5072963,0 z M 8.4130602,7.908014 c 0.2334767,0 0.4227469,0.1931032 0.4227469,0.4313081 0,0.2382049 -0.1892702,0.4313081 -0.4227469,0.4313081 -0.2334767,0 -0.4227469,-0.1931032 -0.4227469,-0.4313081 0,-0.2382049 0.1892702,-0.4313081 0.4227469,-0.4313081 z"/>
<path style="fill:#ffa21f" d="m 6.4656257,3.9753568 a 1.8945634,2.5977393 81.735783 0 1 0.9508027,-0.00179 L 6.7164567,5.8533011 z"/>
<path style="fill:#ff4e55" d="M 7.8206015,4.2026016 A 2.6049258,1.8892891 24.151367 0 1 8.6399877,4.6946333 L 7.0999556,5.9494938 z"/>
<path style="fill:#fc47ad" d="M 8.9168246,5.0701796 A 2.631143,1.8704684 54.971565 0 1 9.3784807,5.9182128 L 7.4274334,6.2028647 z"/>
<path style="fill:#ffd62a" d="M 5.186176,4.3773624 A 1.8802097,2.6174031 50.098227 0 1 6.0054302,3.8850869 L 6.3336103,5.867787 z"/>
<path style="fill:#a5dc3c" d="M 4.3740586,5.5581144 A 1.8609077,2.6446343 16.693598 0 1 4.7807907,4.6813091 l 1.3632704,1.4521195 z"/>
<path style="fill:#3ccd6b" d="M 4.2003828,6.8796284 A 2.6472108,1.8590821 78.969033 0 1 4.1332885,5.9120053 l 1.8861356,0.5832974 z"/>
<path style="fill:#34b8ca" d="M 4.6730636,8.1316549 A 2.626038,1.8741109 49.367911 0 1 4.1313068,7.334494 L 6.0451185,6.85392 z"/>
<path style="fill:#be74e2" d="m 5.6800114,9.0094834 a 2.600945,1.8921987 17.058383 0 1 -0.870503,-0.390166 l 1.3844717,-1.43113 z"/>  >>>>>>> 00eadd1dc56406a6f6f4af04d503dfe99ce73353 </svg>
