<svg xmlns="http://www.w3.org/2000/svg" xmlns:xlink="http://www.w3.org/1999/xlink" width="48" viewBox="0 0 13.546667 13.546667" height="48">
 <defs>
  <linearGradient id="0">
   <stop stop-color="#3b5892"/>
   <stop offset="1" stop-color="#458de1"/>
  </linearGradient>
  <linearGradient xlink:href="#0" id="1" gradientUnits="userSpaceOnUse" gradientTransform="matrix(1.10525,0,0,1.10525,-134.27874,-295.76183)" y1="279.1" x2="0" y2="268.33"/>
 </defs>
 <rect height="12.982" rx="6.491" y="0.283" x="0.282" width="12.982" opacity="0.5" fill="#ffffff" fill-rule="evenodd"/>
 <rect height="11.853" rx="5.927" y="0.847" x="0.847" width="11.853" fill="url(#1)" fill-rule="evenodd"/>
 <path d="m 6.7733335,3.1044445 c -0.4117246,0 -0.7827678,0.3179256 -0.7827678,0.7101076 0,0.309251 0.2109007,0.6035706 0.5005456,0.7010036 l 0,1.1288889 -1.1947856,0.9802105 c -0.062847,0.04417 -0.1181557,0.117924 -0.1175478,0.19232 l 0,0.5208029 -0.381,0 0,1.1288889 1.1288889,0 0,-1.1288889 -0.2822222,0 0,-0.3987529 0.8466667,-0.7301361 2e-7,2.8222223 -0.5644447,0 0.8466667,1.4111107 0.8466667,-1.4111107 -0.5644445,0 0,-3.5300542 0.8466667,0.7078319 0,0.5015701 c -0.2186182,0.09164 -0.3958212,0.297867 -0.3958212,0.539977 0,0.326818 0.2781409,0.591757 0.621244,0.591757 0.3431031,0 0.6212439,-0.264939 0.6212439,-0.591757 0,-0.24211 -0.1541281,-0.448341 -0.3727464,-0.539977 l 0,-0.643535 c 9.887e-4,-0.07013 -0.032763,-0.139997 -0.089304,-0.184924 l -1.231283,-0.998589 0,-0.3678554 c 0.2896448,-0.09743 0.4259958,-0.3917526 0.4259958,-0.7010046 0,-0.392181 -0.2964928,-0.7101066 -0.708218,-0.7101066 z" fill="#f9f9f9" color="#bebebe"/>
</svg>
