<svg xmlns="http://www.w3.org/2000/svg" xmlns:xlink="http://www.w3.org/1999/xlink" width="48" viewBox="0 0 13.546667 13.546667" height="48">
 <defs>
  <linearGradient id="0">
   <stop stop-color="#d6d126"/>
   <stop offset="1" stop-color="#e9df4b"/>
  </linearGradient>
  <linearGradient xlink:href="#0" id="1" gradientUnits="userSpaceOnUse" gradientTransform="matrix(1.10525,0,0,1.10525,-134.27874,-295.76183)" y1="279.1" x2="0" y2="268.33"/>
  <path id="2" d="m -34,25 c 0,0.552285 -0.447715,1 -1,1 -0.552285,0 -1,-0.447715 -1,-1 0,-0.552285 0.447715,-1 1,-1 0.552285,0 1,0.447715 1,1 z" fill="#f9f9f9"/>
 </defs>
 <rect height="12.982" rx="6.491" y="0.282" x="0.282" width="12.982" opacity="0.5" fill="#ffffff" fill-rule="evenodd"/>
 <rect height="11.853" rx="5.926" y="0.847" x="0.847" width="11.853" fill="url(#1)" fill-rule="evenodd"/>
 <g transform="translate(13.546833,0.56461079)">
  <path transform="scale(0.28222223,0.28222223)" d="m -38,12 c -1.662001,0 -3,1.337999 -3,3 l 0,14 c 0,1.662001 1.337999,3 3,3 l 5.40625,0 c 2.612659,1.25154 5.503371,2 8.59375,2 3.090379,0 5.981091,-0.74846 8.59375,-2 L -10,32 c 1.6620012,0 3,-1.337999 3,-3 l 1e-7,-14 c 0,-1.662001 -1.3379988,-3 -3.0000001,-3 l -4,0 -2,-2 -16,0 -2,2 z" fill="#7644a8"/>
  <path transform="scale(0.28222223,0.28222223)" d="m -29,11 10,0 0,1 -10,0 z" fill="#333333"/>
  <path transform="scale(0.28222223,0.28222223)" d="m -31,13 c -0.554,0 -1.04475,0.23225 -1.40625,0.59375 C -32.76775,13.95525 -33,14.446 -33,15 l 0,13 c 0,1 1.606879,1.601241 2.59375,2 1.698517,0.614147 4.495856,1 6.40625,1 1.910394,0 4.707733,-0.385853 6.40625,-1 C -16.256094,29.56636 -15,29 -15,28 l 0,-13 c 0,-0.554 -0.23225,-1.04475 -0.59375,-1.40625 C -15.95525,13.23225 -16.446,13 -17,13 z" fill="#333333"/>
  <rect rx="0.282" y="3.951" x="-9.03" height="3.387" width="4.516" fill="#49bcbc"/>
  <path d="m -8.7488891,7.6200002 3.9511112,0 0,0.2822222 -3.9511112,0 z" fill="#f9f9f9"/>
  <path transform="scale(0.28222223,0.28222223)" d="m -38,14 2,0 0,2 2,0 0,2 -2,0 0,2 -2,0 0,-2 -2,0 0,-2 2,0 z" fill="#f9f9f9"/>
  <use transform="matrix(0.28222223,0,0,0.28222223,2.9166666e-8,0.56444444)" xlink:href="#2"/>
  <use transform="matrix(0.28222223,0,0,0.28222223,2.9166666e-8,-0.28222225)" xlink:href="#2"/>
  <use transform="matrix(0.42333337,0,0,0.42333337,11.28889,-5.0800008)" xlink:href="#2"/>
  <use transform="matrix(0.42333337,0,0,0.42333337,12.135557,-5.6444453)" xlink:href="#2"/>
  <path d="m -3.9511112,7.6200002 1.1288889,0 0,0.2822222 -1.1288889,0 z" fill="#333333"/>
  <path d="m -3.9511112,7.0555557 1.4111111,0 0,0.2822222 -1.4111111,0 z" fill="#333333"/>
  <path d="m -3.9511112,6.4911113 1.6933334,0 0,0.2822222 -1.6933334,0 z" fill="#333333"/>
 </g>
</svg>
