<svg xmlns="http://www.w3.org/2000/svg" width="22" viewBox="0 0 6.208889 6.208889" height="22">
 <path d="m 0.846664,3.3921809 c 0,1.2437461 1.0101456,2.2522636 2.2559,2.2522636 1.2457535,0 2.2558995,-1.0085175 2.2558995,-2.2522636 0,-1.2437457 -1.010146,-2.2522631 -2.2558995,-2.2522631 -1.2457544,0 -2.2559,1.0085174 -2.2559,2.2522631 z" opacity="0.3"/>
 <path d="m 0.846664,3.1099624 c 0,1.2437461 1.0101456,2.2522636 2.2559,2.2522636 1.2457535,0 2.2558995,-1.0085175 2.2558995,-2.2522636 0,-1.2437457 -1.010146,-2.25226319 -2.2558995,-2.25226319 -1.2457544,0 -2.2559,1.00851749 -2.2559,2.25226319 z" fill="#888888"/>
 <path d="M 11.03125 4 C 8.7281848 4 6.6462235 4.9748237 5.1875 6.53125 C 5.9509183 6.6890724 5.9886713 8.1290121 5.4375 8.40625 C 4.7592473 8.7473642 4.78125 10.4375 4.78125 10.4375 C 4.78125 10.4375 5.4467019 10.091142 6.125 9.75 C 6.8032591 9.4088858 7.8345793 9.7525504 7.15625 10.09375 C 6.4779554 10.4349 6.15625 11.4375 6.15625 11.4375 C 6.15625 11.4375 6.8216335 11.09122 7.5 10.75 C 7.7619921 10.618239 8.058253 10.613087 8.34375 10.625 C 8.5116815 11.773981 6.6354979 12.861172 7.5 12.46875 C 7.6526705 12.39197 8.4398003 12.276986 8.71875 12.25 C 8.7110256 12.173688 8.71875 12.109603 8.71875 12.03125 C 8.71875 10.771178 9.7378935 9.75 11 9.75 C 12.262107 9.75 13.28125 10.771178 13.28125 12.03125 C 13.28125 13.291322 12.262107 14.3125 11 14.3125 C 9.8379861 14.3125 8.8637485 13.433583 8.71875 12.3125 C 8.0367336 13.281762 8.0572945 14.34845 8.1875 15.5 C 8.1875 15.5 8.8289518 14.677441 9.34375 14.15625 C 9.7286254 15.039271 9.8587387 15.038129 9.53125 16.53125 C 9.1946323 17.549632 8.53125 17.875 8.53125 17.875 C 8.53125 17.875 10.227955 17.872413 10.90625 17.53125 C 11.584532 17.190161 11.915453 16.184896 12.59375 15.84375 C 13.272048 15.502604 14.3125 15.84375 14.3125 15.84375 L 13.625 16.1875 C 12.94671 16.528646 12.9375 18.21875 12.9375 18.21875 C 12.9375 18.21875 14.645448 16.505117 16.34375 16.5 C 16.578247 16.499293 16.623059 16.495879 16.78125 16.5 C 18.076151 15.140003 18.890301 13.348812 18.96875 11.34375 C 18.649184 7.2321499 15.232998 4 11.03125 4 z M 11 10.875 C 10.368947 10.875 9.84375 11.401214 9.84375 12.03125 C 9.84375 12.661286 10.368947 13.15625 11 13.15625 C 11.631053 13.15625 12.125 12.661286 12.125 12.03125 C 12.125 11.401214 11.631053 10.875 11 10.875 z " transform="scale(0.28222223,0.28222223)" opacity="0.3"/>
 <path d="M 11.03125 3 C 8.7281848 3 6.6462235 3.9748237 5.1875 5.53125 C 5.9509183 5.6890724 5.9886727 7.1290121 5.4375 7.40625 C 4.7592473 7.7473642 4.78125 9.4375 4.78125 9.4375 C 4.78125 9.4375 5.4467019 9.0911411 6.125 8.75 C 6.8032591 8.4088858 7.8345793 8.7525508 7.15625 9.09375 C 6.4779554 9.4348996 6.15625 10.4375 6.15625 10.4375 C 6.15625 10.4375 6.8216335 10.091219 7.5 9.75 C 7.7619921 9.6182386 8.058253 9.6130874 8.34375 9.625 C 8.5116815 10.773981 6.6354979 11.861172 7.5 11.46875 C 7.6526705 11.39197 8.4398003 11.276986 8.71875 11.25 C 8.7110366 11.173689 8.71875 11.109605 8.71875 11.03125 C 8.71875 9.7711781 9.7378935 8.75 11 8.75 C 12.262107 8.75 13.28125 9.7711781 13.28125 11.03125 C 13.28125 12.291322 12.262107 13.3125 11 13.3125 C 9.8163748 13.3125 8.8350804 12.400895 8.71875 11.25 C 8.7217172 11.262012 8.7157828 11.300612 8.71875 11.3125 C 8.0367336 12.281762 8.0572945 13.34845 8.1875 14.5 C 8.1875 14.5 8.8289518 13.677441 9.34375 13.15625 C 9.7286254 14.039271 9.8587402 14.038129 9.53125 15.53125 C 9.1946323 16.549632 8.53125 16.875 8.53125 16.875 C 8.53125 16.875 10.227955 16.872413 10.90625 16.53125 C 11.584532 16.190161 11.915453 15.184896 12.59375 14.84375 C 13.272048 14.502604 14.3125 14.84375 14.3125 14.84375 L 13.625 15.1875 C 12.94671 15.528646 12.9375 17.21875 12.9375 17.21875 C 12.9375 17.21875 14.645448 15.505117 16.34375 15.5 C 17.014159 15.49798 17.3086 15.523738 17.59375 15.53125 C 18.485687 14.243662 19 12.652537 19 10.96875 C 19 6.561814 15.445306 3 11.03125 3 z M 11 9.875 C 10.368947 9.875 9.84375 10.401214 9.84375 11.03125 C 9.84375 11.661286 10.368947 12.15625 11 12.15625 C 11.631053 12.15625 12.125 11.661286 12.125 11.03125 C 12.125 10.401214 11.631053 9.875 11 9.875 z " transform="scale(0.28222223,0.28222223)" fill="#dcdcdc"/>
</svg>
