<svg xmlns="http://www.w3.org/2000/svg" xmlns:xlink="http://www.w3.org/1999/xlink" width="22" viewBox="0 0 22 22" height="22">
 <defs>
  <linearGradient id="1">
   <stop stop-color="#2f7474"/>
   <stop offset="1" stop-color="#75b4b4"/>
  </linearGradient>
  <clipPath>
   <rect y="223" x="307" height="42" width="42" transform="matrix(0,1,-1,0,0,0)" fill="url(#2)" color="#bebebe" rx="9"/>
  </clipPath>
  <linearGradient xlink:href="#1" id="2" gradientUnits="userSpaceOnUse" gradientTransform="matrix(0.175,0,0,0.175,302.79999,215.99997)" y1="280" x2="0" y2="40"/>
  <clipPath>
   <rect y="85" x="433" height="22" width="22" fill="url(#3)" color="#bebebe" rx="4"/>
  </clipPath>
  <linearGradient xlink:href="#1" id="3" gradientUnits="userSpaceOnUse" gradientTransform="matrix(0.0875,0,0,0.0875,430.9,81.499996)" y1="291.43" x2="0" y2="40"/>
  <clipPath>
   <rect width="30" height="30" x="433" y="37" fill="url(#4)" color="#bebebe" rx="6"/>
  </clipPath>
  <linearGradient xlink:href="#1" id="4" gradientUnits="userSpaceOnUse" gradientTransform="matrix(0.11931818,0,0,0.11931818,430.13636,32.227267)" y1="291.43" x2="0" y2="40"/>
  <clipPath>
   <rect width="16" height="16" x="304" y="212" transform="matrix(0,1,-1,0,0,0)" fill="url(#5)" color="#bebebe" rx="3"/>
  </clipPath>
  <linearGradient xlink:href="#1" id="5" gradientUnits="userSpaceOnUse" gradientTransform="matrix(0.06666667,0,0,0.06666667,302.4,209.33333)" y1="280" x2="0" y2="40"/>
  <clipPath>
   <rect y="46" x="34" height="220" width="220" fill="url(#6)" color="#bebebe" rx="50"/>
  </clipPath>
  <linearGradient xlink:href="#1" id="6" gradientUnits="userSpaceOnUse" gradientTransform="translate(0,-4)" y1="280" x2="0" y2="40"/>
  <clipPath>
   <rect y="142" x="290" height="60" width="60" fill="url(#7)" color="#bebebe" rx="12.5"/>
  </clipPath>
  <linearGradient xlink:href="#1" id="7" gradientUnits="userSpaceOnUse" y1="204" x2="0" y2="140"/>
  <clipPath>
   <rect width="88" height="88" x="292" y="32" fill="url(#8)" color="#bebebe" rx="18"/>
  </clipPath>
  <linearGradient xlink:href="#1" id="8" gradientUnits="userSpaceOnUse" y1="124" x2="0" y2="28"/>
  <clipPath>
   <rect y="101" x="417" height="22" width="22" fill="url(#9)" color="#bebebe" rx="5"/>
  </clipPath>
  <linearGradient xlink:href="#1" id="9" gradientUnits="userSpaceOnUse" gradientTransform="matrix(0.0875,0,0,0.0875,414.9,97.5)" y1="302.86" x2="0" y2="28.571"/>
  <clipPath>
   <rect width="30" height="30" x="417" y="53" fill="url(#A)" color="#bebebe" rx="7"/>
  </clipPath>
  <linearGradient xlink:href="#1" id="A" gradientUnits="userSpaceOnUse" gradientTransform="matrix(0.11931818,0,0,0.11931818,414.13636,48.22727)" y1="299.81" x2="0" y2="31.619"/>
  <path id="B" d="m 18.617491,16.540194 a 0.67358655,0.62941694 0 1 1 -1.347173,0 0.67358655,0.62941694 0 1 1 1.347173,0 z"/>
 </defs>
 <rect width="16" x="3" y="4" rx="7.999" height="16" opacity="0.3" fill-rule="evenodd"/>
 <rect height="16" rx="7.999" y="3" x="3" width="16" fill="#dcdcdc" fill-rule="evenodd"/>
 <path d="m -40.474576,16.474577 a 3.6610169,10.169492 0 1 1 -7.322034,0 3.6610169,10.169492 0 1 1 7.322034,0 z" transform="matrix(0.33050925,-0.12608792,0.05500698,0.16230546,21.442595,-0.09632735)" fill="#999999" id="0"/>
 <path d="m 6.5002387,8.4166446 c 0.01566,0.06293 0.03005,0.124678 0.05135,0.187517 0.308944,0.911581 1.101128,1.4438944 1.769393,1.188954 0.668264,-0.25494 0.95955,-1.200592 0.650606,-2.112174 -0.0213,-0.06284 -0.04727,-0.120172 -0.07296,-0.179274 0.211586,0.849908 -0.07976,1.68729 -0.701958,1.924657 -0.622198,0.237365 -1.349442,-0.211429 -1.696435,-1.00968 z" fill="#2d2d2d"/>
 <use transform="matrix(1.0644278,-0.38273973,0.40959866,1.1391245,-17.922554,-3.6406684)" fill="#f9f9f9" xlink:href="#B"/>
 <use transform="matrix(0.53221392,-0.19136987,0.20479934,0.56956225,-4.9851373,2.3460786)" fill="#2d2d2d" xlink:href="#B"/>
 <use transform="matrix(0.26610695,-0.09568494,0.10239966,0.28478112,1.6440037,5.4216006)" fill="#dcdcdc" xlink:href="#B"/>
 <use transform="matrix(0.8441 -0.05191 0.0497 0.78319 7.092 2.168)" xlink:href="#0"/>
 <path d="m 12.918007,7.7020636 c -0.0375,0.269764 0.0029,0.57716 0.13087,0.869072 0.306085,0.697903 1.007123,1.067713 1.558531,0.833357 0.422784,-0.179689 0.631484,-0.670784 0.571065,-1.202415 -0.05216,0.37519 -0.250294,0.685119 -0.571065,0.821452 -0.551408,0.234356 -1.252446,-0.135454 -1.558532,-0.833357 -0.0714,-0.162797 -0.112487,-0.32637 -0.130869,-0.488109 z" fill="#2d2d2d"/>
 <use transform="matrix(0.84779766,0,0,0.90789528,-1.1645603,-7.0646933)" fill="#f9f9f9" xlink:href="#B"/>
 <use transform="matrix(0.42389883,0,0,0.45394764,6.4418397,0.44368865)" fill="#2d2d2d" xlink:href="#B"/>
 <use transform="matrix(0.21194942,0,0,0.22697382,10.337359,4.2965696)" fill="#dcdcdc" xlink:href="#B"/>
 <g transform="matrix(0.38096311,0,0,0.38096311,13.326952,-72.988769)" fill="#2d2d2d">
  <path d="m -1.9149243,222.66303 c -0.94645,3.50487 -1.65315,4.80069 -4.19376,4.80069 -2.7008198,0 -3.9544497,-1.46917 -4.1940897,-4.80081 3.0075197,-0.87465 5.3182197,-0.90935 8.3878497,1.2e-4 z"/>
  <path d="m -11.108664,222.4518 c 0,0 0.11567,-1.64438 2.0673999,-3.41378 1.9517298,-1.7694 2.7598198,-1.59066 3.1000598,-1.54598 0.0228,2.01728 -0.13483,7.86834 -0.16748,9.97168 -1.60681,-0.8358 -3.2385898,-4.12418 -4.9999797,-5.01192 z"/>
  <path d="m -5.9252543,217.46411 c 0.46231,0.0138 1.28475,0.24801 2.74854,1.57505 1.95173,1.76939 2.06805,3.41264 2.06805,3.41264 -1.63368,0.82018 -3.3932,4.17612 -5.00002,5.01192 -0.0435,-2.11839 -0.0451,-7.86413 -0.0451,-9.98287 0.0654,-0.007 0.13766,-0.0195 0.2286,-0.0167 z"/>
 </g>
</svg>
