<svg xmlns="http://www.w3.org/2000/svg" viewBox="0 0 48 48"><defs><radialGradient id="thisWeirdIdNameFixesABug0" cx="24" cy="24" r="23.437" gradientUnits="userSpaceOnUse"><stop stop-color="#9c9c37"/><stop offset="1" stop-color="#7c7c17"/></radialGradient><mask id="thisWeirdIdNameFixesABug1"><path d="m 337.38 491.21 c -60.912 -4.157 -114.37 -52.39 -129.46 -110.78 c -13.935 -60.46 13.722 -128.63 67.7 -160.24 c 34.685 -20.786 78.22 -23.415 116.62 -12.564 c 47.43 14.642 83.58 57.04 96.24 104.3 c 11.41 43.59 3.195 93.08 -27.08 127.44 c -27.444 34.27 -71.23 54.01 -115.1 52.27 c -2.951 -0.031 -5.963 -0.183 -8.915 -0.428 m 36.27 -6.847 c 10.953 -0.948 9.01 -4.31 -0.913 -5.197 c -17.768 -3.424 -36.937 -3.515 -54.07 2.537 c 15.09 7.306 35.14 5.38 52.03 3.21 m -50.811 -10.21 c 7.789 -7.978 -0.365 -27.05 -7.15 -34.603 c -15.274 -7.856 -27.05 -20.572 -41.01 -30.2 c -10.497 -3.852 -20.72 3.424 -30.851 5.93 c -0.03 10.03 -0.7 21.428 8.124 28.429 c 14.513 14.367 32.04 26.992 51.815 32.739 c 6.359 0.275 13.02 -0.122 19.08 -2.293 m 83.46 0.428 c 25.314 -10.943 48.985 -28.52 63.25 -52.42 c 5.142 -6.878 8.915 -18.952 -4.473 -14.948 c -16.856 10.638 -32.07 23.782 -49.29 33.809 c -10.466 8.345 -18.01 19.778 -25.466 30.691 c 2.586 6.05 11.04 4.585 15.973 2.873 m 17.16 -43.957 c 12.718 -10.454 31.06 -17.18 37.758 -33.04 c 3.01 -12.502 3.256 -25.402 4.503 -38.12 c -12.657 -11.28 -28.17 -18.922 -43.39 -26.14 c -15.03 1.162 -27.17 14.581 -39.07 23.262 c -6.328 3.485 -4.686 11.371 -6.42 17.424 c -2.282 14.12 -4.959 28.18 -6.511 42.46 c 11.836 8.743 25.01 16.813 39.4 20.21 c 5.203 0.031 9.493 -3.485 13.722 -6.05 m -90.64 2.17 c 11.531 -4.371 26.744 -7.703 32.16 -19.931 c 4.02 -17.12 6.237 -34.664 8.367 -52.12 c -11.47 -10.943 -23.671 -22.437 -38.64 -28.09 c -12.931 -0.214 -23.884 8.957 -35.38 13.97 c -15.456 4.218 -20.872 18.341 -21.511 32.922 c -4.564 14.428 0.639 29.28 13.691 37.23 c 11.41 8.406 26.04 21.856 41.32 16.05 m -96.3 -20.21 c -9.31 -17.332 -15.73 -36.28 -18.316 -55.787 c -9.249 1.865 -0.852 24.608 1.704 33.839 c 4.351 12.533 10.984 24.06 17.921 35.31 c 1.247 -4.616 2.01 -9.201 -1.308 -13.358 m -3.986 -77.09 c 4.077 -5.839 10.527 -10.424 13.02 -17.12 c 4.29 -20.14 11.318 -39.647 21.389 -57.713 c -0.396 -11.677 -13.418 -18.769 -19.868 -5.9 c -18.407 23.782 -32.86 52.761 -33.529 83.39 c -2.434 10.485 6.694 18.1 11.957 5.686 c 2.312 -2.751 4.686 -5.533 7.03 -8.345 m 237.29 14.489 c 7.789 -10.271 18.59 -22.468 15.821 -36.407 c -4.899 -26.411 -18.407 -51.48 -39.16 -68.66 c -6.207 -2.659 -17.464 -12.288 -21.754 -3.179 c -6.359 12.258 -22.18 23.843 -16.491 39.1 c 4.868 15.04 8.458 30.752 15.578 44.935 c 13.11 10.24 28.23 18.219 43.508 24.944 m -171.72 -7.581 c 12.08 -6.144 23.854 -12.9 35.628 -19.564 c 3.955 -13.939 8.976 -27.542 13.631 -41.21 c 0.639 -14.826 -12.566 -25.463 -21.328 -35.857 c -8.671 -13.909 -23.336 -3.24 -34.02 1.834 c -23.488 12.625 -28.904 40.32 -36.937 63.46 c 1.156 8.681 9.07 15.896 14.848 22.376 c 7.941 8.04 16.917 18.738 28.17 8.957 m 86.71 -74.831 c 6.268 -0.886 13.266 -0.245 19.05 -2.048 c 8.702 -9.354 16.369 -20.328 19.959 -32.647 c -4.381 -12.411 -18.833 -18.07 -30.456 -22.315 c -14.787 -4.402 -30.669 -6.572 -46.03 -4.83 c -11.04 5.655 -30.943 22.13 -19.716 34.94 c 8.215 9.812 16.947 19.14 25.892 28.337 c 10.466 0.122 20.872 -0.703 31.31 -1.437 m 0 0" transform="matrix(0.128387,0,0,0.127787,-21.038512,-20.53585)" fill="#fff" stroke="#fff" stroke-width="1.449"/></mask></defs><g mask="url(#thisWeirdIdNameFixesABug1)"><path d="m 47.44 11.547 l 0 24.906 c 0 10.25 0 10.984 -10.984 10.984 l -24.902 0 c -10.988 0 -10.988 -0.734 -10.988 -10.984 l 0 -24.906 c 0 -10.25 0 -10.984 10.988 -10.984 l 24.902 0 c 10.984 0 10.984 0.734 10.984 10.984" fill="url(#thisWeirdIdNameFixesABug0)"/><path d="m 38.27 47.44 c 2.543 -0.012 4.379 -0.082 5.711 -0.441 l -4.23 -7.25 -4.484 7.691 1.191 0 c 0.641 0 1.242 0 1.813 0 z m 1.48 -7.691 -5.125 -8.789 -5.129 8.789 z m 0 0 7.652 0 c 0.031 -0.973 0.039 -2.063 0.039 -3.297 l 0 -1.098 -2.563 -4.395 z m 5.129 -8.789 -5.129 -8.789 -5.125 8.789 z m 0 0 2.563 0 0 -4.395 z m -10.254 0 -5.129 -8.789 -5.125 8.789 z m -10.254 0 -5.129 8.789 10.254 0 z m 0 0 -5.129 -8.789 -5.125 8.789 z m -10.254 0 -5.129 8.789 10.254 0 z m 0 0 -5.129 -8.789 -5.125 8.789 z m -10.254 0 -3.297 5.648 c 0 1.168 0.012 2.211 0.039 3.141 l 8.383 0 z m 0 0 -3.297 -5.648 0 5.648 z m 5.125 8.789 -4.313 7.395 c 1.598 0.293 3.809 0.297 6.879 0.297 l 1.922 0 z m 0 -17.578 -5.125 -8.789 -3.297 5.648 0 3.141 z m 0 0 10.254 0 -5.125 -8.789 z m 5.129 -8.789 -5.129 -8.789 -5.125 8.789 z m 0 0 10.254 0 -5.129 -8.789 z m 5.125 -8.789 -2.352 -4.03 -5.336 0 c -0.078 0 -0.141 0 -0.215 0 l -2.352 4.03 z m 0 0 10.254 0 -2.352 -4.03 -5.551 0 z m 10.254 0 10.254 0 l -2.352 -4.03 c -0.313 0 -0.609 0 -0.941 0 l -4.609 0 z m 0 0 -5.125 8.789 10.254 0 z m 5.129 8.789 10.254 0 -5.129 -8.789 z m 0 0 -5.129 8.789 10.254 0 z m 5.125 8.789 7.691 0 0 -4.395 -2.563 -4.395 z m 5.129 -8.789 2.563 0 0 -1.832 c 0 -0.914 -0.008 -1.75 -0.023 -2.523 z m -15.383 8.789 -5.125 -8.789 -5.129 8.789 z m 10.254 -17.578 7.309 0 c -0.555 -2.758 -1.887 -3.629 -5.03 -3.902 z m -30.762 0 l -2.305 -3.953 c -3.66 0.207 -5.141 0.996 -5.734 3.953 z m -5.125 8.789 l -3.238 -5.555 c -0.043 1.074 -0.059 2.309 -0.059 3.723 l 0 1.832 z m 15.379 26.367 -4.484 7.691 8.973 0 z m 10.254 0 -4.484 7.691 8.973 0 z m -26.898 6.621 -1.602 -2.746 c 0.293 1.316 0.785 2.18 1.602 2.746 z" fill="#fff" fill-opacity="0.06427015250544663"/></g></svg>