<svg width="48" xmlns="http://www.w3.org/2000/svg" height="48" viewBox="0 0 48 48" xmlns:xlink="http://www.w3.org/1999/xlink">
<defs>
<radialGradient cx="148.004" cy="160" gradientTransform="matrix(.1831 0 0 .1831 -3.10029 -5.29688)" id="radial0" r="128" gradientUnits="userSpaceOnUse">
<stop offset="0" style="stop-color:#f5c8ba"/>
<stop offset="1" style="stop-color:#d43c10"/>
</radialGradient>
</defs>
<path style="fill:url(#radial0)" d="M 47.4375 11.546875 L 47.4375 36.453125 C 47.4375 46.703125 47.4375 47.4375 36.453125 47.4375 L 11.550781 47.4375 C 0.5625 47.4375 0.5625 46.703125 0.5625 36.453125 L 0.5625 11.546875 C 0.5625 1.296875 0.5625 0.5625 11.550781 0.5625 L 36.453125 0.5625 C 47.4375 0.5625 47.4375 1.296875 47.4375 11.546875 Z "/>
<path style="fill:#fff;fill-opacity:.051" d="M 38.265625 47.4375 C 40.808594 47.425781 42.644531 47.355469 43.976562 46.996094 L 39.746094 39.746094 L 35.261719 47.4375 L 36.453125 47.4375 C 37.09375 47.4375 37.695312 47.4375 38.265625 47.4375 Z M 39.746094 39.746094 L 34.621094 30.957031 L 29.492188 39.746094 Z M 39.746094 39.746094 L 47.398438 39.746094 C 47.429688 38.773438 47.4375 37.683594 47.4375 36.449219 L 47.4375 35.351562 L 44.875 30.957031 Z M 44.875 30.957031 L 39.746094 22.167969 L 34.621094 30.957031 Z M 44.875 30.957031 L 47.4375 30.957031 L 47.4375 26.5625 Z M 34.621094 30.957031 L 29.492188 22.167969 L 24.367188 30.957031 Z M 24.367188 30.957031 L 19.238281 39.746094 L 29.492188 39.746094 Z M 24.367188 30.957031 L 19.238281 22.167969 L 14.113281 30.957031 Z M 14.113281 30.957031 L 8.984375 39.746094 L 19.238281 39.746094 Z M 14.113281 30.957031 L 8.984375 22.167969 L 3.859375 30.957031 Z M 3.859375 30.957031 L 0.5625 36.605469 C 0.5625 37.773438 0.574219 38.816406 0.601562 39.746094 L 8.984375 39.746094 Z M 3.859375 30.957031 L 0.5625 25.308594 L 0.5625 30.957031 Z M 8.984375 39.746094 L 4.671875 47.140625 C 6.269531 47.433594 8.480469 47.4375 11.550781 47.4375 L 13.472656 47.4375 Z M 8.984375 22.167969 L 3.859375 13.378906 L 0.5625 19.027344 L 0.5625 22.167969 Z M 8.984375 22.167969 L 19.238281 22.167969 L 14.113281 13.378906 Z M 14.113281 13.378906 L 8.984375 4.589844 L 3.859375 13.378906 Z M 14.113281 13.378906 L 24.367188 13.378906 L 19.238281 4.589844 Z M 19.238281 4.589844 L 16.886719 0.5625 L 11.546875 0.5625 C 11.472656 0.5625 11.410156 0.5625 11.335938 0.5625 L 8.984375 4.589844 Z M 19.238281 4.589844 L 29.492188 4.589844 L 27.140625 0.5625 L 21.589844 0.5625 Z M 29.492188 4.589844 L 39.746094 4.589844 L 37.394531 0.5625 C 37.082031 0.5625 36.785156 0.5625 36.449219 0.5625 L 31.84375 0.5625 Z M 29.492188 4.589844 L 24.367188 13.378906 L 34.621094 13.378906 Z M 34.621094 13.378906 L 44.875 13.378906 L 39.746094 4.589844 Z M 34.621094 13.378906 L 29.492188 22.167969 L 39.746094 22.167969 Z M 39.746094 22.167969 L 47.4375 22.167969 L 47.4375 17.773438 L 44.875 13.378906 Z M 44.875 13.378906 L 47.4375 13.378906 L 47.4375 11.546875 C 47.4375 10.632812 47.429688 9.796875 47.414062 9.023438 Z M 29.492188 22.167969 L 24.367188 13.378906 L 19.238281 22.167969 Z M 39.746094 4.589844 L 47.054688 4.589844 C 46.5 1.832031 45.167969 0.960938 42.023438 0.6875 Z M 8.984375 4.589844 L 6.679688 0.636719 C 3.019531 0.84375 1.539062 1.632812 0.945312 4.589844 Z M 3.859375 13.378906 L 0.621094 7.824219 C 0.578125 8.898438 0.5625 10.132812 0.5625 11.546875 L 0.5625 13.378906 Z M 19.238281 39.746094 L 14.753906 47.4375 L 23.726562 47.4375 Z M 29.492188 39.746094 L 25.007812 47.4375 L 33.980469 47.4375 Z M 2.59375 46.367188 L 0.992188 43.621094 C 1.285156 44.9375 1.777344 45.800781 2.59375 46.367188 Z "/>
<path style="fill:#ffcca3;stroke:#000;fill-opacity:.749;stroke-width:.457" d="M 29.958333 -175.9375 L 31.854167 15.5 " transform="matrix(.1875 0 0 .1875 0 39)"/>
<g style="stroke:#fff">
<g style="fill:none">
<g style="stroke-width:2.986">
<path d="M 29.5 -175.5 L 31.854167 16.354167 L 99.5625 9.0625 L 162.5625 18.5 L 223.6875 14.208333 L 226.5 -172.916667 L 166.3125 -178.083333 L 98.604167 -168.208333 Z " transform="matrix(.1875 0 0 .1875 0 39)"/>
<path style="stroke-opacity:.941" d="M 98.604167 -168.208333 L 98.604167 9.5 " transform="matrix(.1875 0 0 .1875 0 39)"/>
<path d="M 164.333333 -178.5 L 164.333333 17.645833 " transform="matrix(.1875 0 0 .1875 0 39)"/>
</g>
<g>
<path style="stroke-width:4.113" d="M 204.416667 10.354167 L 164.4375 -23.125 L 140 -34.708333 L 125.875 -64.333333 L 101.895833 -86.229167 L 101.4375 -99.104167 L 109.416667 -130 " transform="matrix(.1875 0 0 .1875 0 39)"/>
</g>
<g style="stroke-width:3.656">
<path d="M 162.5625 -24.854167 L 200.166667 -43.291667 " transform="matrix(.1875 0 0 .1875 0 39)"/>
<path d="M 155.979167 -28.270833 L 186.541667 -54.041667 " transform="matrix(.1875 0 0 .1875 0 39)"/>
</g>
<g>
<path style="stroke-width:2.285" d="M 147.520833 -31.708333 L 121.1875 -13.25 " transform="matrix(.1875 0 0 .1875 0 39)"/>
<path style="stroke-width:3.463" d="M 138.4375 -39.791667 L 109.583333 -26.6875 L 92.270833 -41.020833 L 46.083333 -38.166667 " transform="matrix(.1875 0 0 .1875 0 39)"/>
<path style="stroke-width:3.656" d="M 124.9375 -66.041667 L 146.5625 -91.8125 L 188.416667 -119.708333 L 203 -121.854167 L 203.458333 -121.854167 " transform="matrix(.1875 0 0 .1875 0 39)"/>
<path style="stroke-width:3.199" d="M 136.229167 -80.208333 L 131.520833 -98.25 L 152.208333 -109.395833 " transform="matrix(.1875 0 0 .1875 0 39)"/>
</g>
<g style="stroke-width:2.285">
<path d="M 143.291667 -104.25 L 142.8125 -123.145833 L 155.979167 -122.270833 L 193.583333 -154.479167 " transform="matrix(.1875 0 0 .1875 0 39)"/>
<path d="M 101.4375 -97.375 L 124 -117.979167 " transform="matrix(.1875 0 0 .1875 0 39)"/>
</g>
<g>
<path style="stroke-width:3.199" d="M 100.958333 -93.520833 L 80.75 -85.791667 L 57.229167 -104.25 L 48.770833 -105.541667 " transform="matrix(.1875 0 0 .1875 0 39)"/>
<path style="stroke-width:2.285" d="M 102.375 -102.958333 L 69.9375 -120.125 L 50.1875 -119.270833 L 53.479167 -133.875 " transform="matrix(.1875 0 0 .1875 0 39)"/>
</g>
</g>
<g style="fill:#fff">
<g>
<path d="M 17097.214665 140.567413 C 17097.214665 146.006922 17093.033275 150.396702 17087.89365 150.396702 C 17082.710469 150.396702 17078.529079 146.006922 17078.529079 140.567413 C 17078.529079 135.127904 17082.710469 130.738124 17087.89365 130.738124 C 17093.033275 130.738124 17097.214665 135.127904 17097.214665 140.567413 Z " transform="matrix(.08968 0 0 .08187 -1493.05777 4.24227)"/>
<path d="M 17064.791195 167.612659 C 17064.791195 172.241014 17061.698709 175.962783 17057.909325 175.962783 C 17054.11994 175.962783 17051.027454 172.241014 17051.027454 167.612659 C 17051.027454 162.984305 17054.11994 159.262535 17057.909325 159.262535 C 17061.698709 159.262535 17064.791195 162.984305 17064.791195 167.612659 Z " transform="matrix(.08968 0 0 .08187 -1491.29447 4.00083)"/>
<path d="M 17046.094108 147.469789 C 17046.137664 151.334704 17043.872745 154.913328 17040.214029 156.869643 C 17036.555313 158.825958 17032.06903 158.825958 17028.410314 156.869643 C 17024.751598 154.913328 17022.486678 151.334704 17022.530234 147.469789 C 17022.486678 143.604875 17024.751598 139.978535 17028.410314 138.069935 C 17032.06903 136.113621 17036.555313 136.113621 17040.214029 138.069935 C 17043.872745 139.978535 17046.137664 143.604875 17046.094108 147.469789 Z " transform="matrix(.08968 0 0 .08187 -1490.94187 2.55219)"/>
<path d="M 17067.752456 110.108949 C 17067.752456 114.975878 17064.659969 118.936223 17060.870585 118.936223 C 17057.037644 118.936223 17053.988714 114.975878 17053.988714 110.108949 C 17053.988714 105.194305 17057.037644 101.23396 17060.870585 101.23396 C 17064.659969 101.23396 17067.752456 105.194305 17067.752456 110.108949 Z " transform="matrix(.08968 0 0 .08187 -1493.76317 2.55219)"/>
<path d="M 17030.382187 110.1109 C 17030.382187 113.64181 17028.422161 116.886429 17025.242562 118.651884 C 17022.019408 120.417339 17018.099355 120.417339 17014.8762 118.651884 C 17011.696602 116.886429 17009.736575 113.64181 17009.736575 110.1109 C 17009.736575 106.579991 17011.696602 103.335371 17014.8762 101.569916 C 17018.099355 99.804462 17022.019408 99.804462 17025.242562 101.569916 C 17028.422161 103.335371 17030.382187 106.579991 17030.382187 110.1109 Z " transform="matrix(.08968 0 0 .08187 -1492.52887 1.345)"/>
</g>
<g style="fill-opacity:.941">
<path d="M 17026.450772 256.554635 C 17026.450772 259.27439 17024.011628 261.46928 17021.04981 261.46928 C 17018.044436 261.46928 17015.648849 259.27439 17015.648849 256.554635 C 17015.648849 253.882596 17018.044436 251.639991 17021.04981 251.639991 C 17024.011628 251.639991 17026.450772 253.882596 17026.450772 256.554635 Z " transform="matrix(.08968 0 0 .08187 -1491.55911 9.07104)"/>
<path d="M 17037.252696 282.643041 C 17037.252696 285.983091 17035.292669 289.084565 17032.113071 290.75459 C 17028.889916 292.424615 17024.969863 292.424615 17021.746709 290.75459 C 17018.56711 289.084565 17016.607084 285.983091 17016.607084 282.643041 C 17016.607084 279.302992 17018.56711 276.201517 17021.746709 274.531492 C 17024.969863 272.861467 17028.889916 272.861467 17032.113071 274.531492 C 17035.292669 276.201517 17037.252696 279.302992 17037.252696 282.643041 Z " transform="matrix(.08968 0 0 .08187 -1491.55911 4.56419)"/>
<path d="M 17051.002639 307.180329 C 17051.046195 310.902099 17049.173281 314.289863 17046.124351 316.150748 C 17043.075421 318.011633 17039.329592 318.011633 17036.280662 316.150748 C 17033.231732 314.289863 17031.358818 310.902099 17031.358818 307.180329 C 17031.358818 303.506275 17033.231732 300.11851 17036.280662 298.257626 C 17039.329592 296.396741 17043.075421 296.396741 17046.124351 298.257626 C 17049.173281 300.11851 17051.046195 303.506275 17051.002639 307.180329 Z " transform="matrix(.08968 0 0 .08187 -1494.90943 3.19603)"/>
<path d="M 17088.398971 335.712583 C 17088.398971 338.718627 17086.134051 341.486097 17082.475335 342.965262 C 17078.816619 344.492141 17074.330336 344.492141 17070.67162 342.965262 C 17067.012904 341.486097 17064.747985 338.718627 17064.791541 335.712583 C 17064.747985 332.706538 17067.012904 329.939068 17070.67162 328.459904 C 17074.330336 326.933024 17078.816619 326.933024 17082.475335 328.459904 C 17086.134051 329.939068 17088.398971 332.706538 17088.398971 335.712583 Z " transform="matrix(.08968 0 0 .08187 -1492.52887 4.00083)"/>
</g>
<g>
<path d="M 17035.304034 360.795856 C 17035.304034 362.94303 17032.86489 364.708485 17029.903073 364.708485 C 17026.897699 364.708485 17024.458555 362.94303 17024.458555 360.795856 C 17024.458555 358.600966 17026.897699 356.835511 17029.903073 356.835511 C 17032.86489 356.835511 17035.304034 358.600966 17035.304034 360.795856 Z " transform="matrix(.08968 0 0 .08187 -1498.25934 -10.24405)"/>
<path style="fill-opacity:.941" d="M 17051.002427 354.875773 C 17051.002427 358.692973 17047.300155 361.746732 17042.683203 361.746732 C 17038.066252 361.746732 17034.320424 358.692973 17034.320424 354.875773 C 17034.320424 351.058574 17038.066252 348.004814 17042.683203 348.004814 C 17047.300155 348.004814 17051.002427 351.058574 17051.002427 354.875773 Z " transform="matrix(.08968 0 0 .08187 -1491.20629 3.51795)"/>
<path d="M 16905.515365 414.350832 C 16905.515365 419.504051 16901.333975 423.702971 16896.19435 423.702971 C 16891.011169 423.702971 16886.873335 419.504051 16886.873335 414.350832 C 16886.873335 409.197612 16891.011169 404.998693 16896.19435 404.998693 C 16901.333975 404.998693 16905.515365 409.197612 16905.515365 414.350832 Z " transform="matrix(.08968 0 0 .08187 -1493.4984 1.58644)"/>
<path d="M 16959.595166 339.148627 C 16959.595166 342.679537 16958.593375 345.971871 16956.894685 347.737326 C 16955.239552 349.550496 16953.148857 349.550496 16951.450167 347.737326 C 16949.795034 345.971871 16948.749686 342.679537 16948.793243 339.148627 C 16948.749686 335.617718 16949.795034 332.325383 16951.450167 330.559928 C 16953.148857 328.794473 16955.239552 328.794473 16956.894685 330.559928 C 16958.593375 332.325383 16959.595166 335.617718 16959.595166 339.148627 Z " transform="matrix(.08968 0 0 .08187 -1496.67266 9.47344)"/>
<path d="M 16923.205919 338.669917 C 16923.205919 342.725691 16919.024529 346.018026 16913.884904 346.018026 C 16908.745279 346.018026 16904.563889 342.725691 16904.563889 338.669917 C 16904.563889 334.566427 16908.745279 331.274093 16913.884904 331.274093 C 16919.024529 331.274093 16923.205919 334.566427 16923.205919 338.669917 Z " transform="matrix(.08968 0 0 .08187 -1480.97948 -18.6944)"/>
<path d="M 16962.52401 287.549352 C 16962.567566 290.889401 16960.999545 294.038591 16958.386176 295.708616 C 16955.816363 297.378641 16952.593209 297.378641 16949.97984 295.708616 C 16947.410028 294.038591 16945.79845 290.889401 16945.842006 287.549352 C 16945.79845 284.161587 16947.410028 281.060113 16949.97984 279.390088 C 16952.593209 277.672348 16955.816363 277.672348 16958.386176 279.390088 C 16960.999545 281.060113 16962.567566 284.161587 16962.52401 287.549352 Z " transform="matrix(.08968 0 0 .08187 -1496.40799 -7.82966)"/>
<path d="M 16931.076761 260.021004 C 16931.076761 265.174223 16927.766494 269.373143 16923.715773 269.373143 C 16919.665051 269.373143 16916.354784 265.174223 16916.354784 260.021004 C 16916.354784 254.867784 16919.665051 250.668865 16923.715773 250.668865 C 16927.766494 250.668865 16931.076761 254.867784 16931.076761 260.021004 Z " transform="matrix(.08968 0 0 .08187 -1489.44317 -3.96665)"/>
<path d="M 16927.171479 211.335339 C 16927.171479 215.677403 16923.20787 219.208313 16918.329582 219.208313 C 16913.407738 219.208313 16909.444129 215.677403 16909.444129 211.335339 C 16909.444129 206.993274 16913.407738 203.51008 16918.329582 203.51008 C 16923.20787 203.51008 16927.171479 206.993274 16927.171479 211.335339 Z " transform="matrix(.08968 0 0 .08187 -1493.05777 .21829)"/>
<path d="M 16904.594419 131.723478 C 16904.594419 135.262302 16902.155223 138.522793 16898.147973 140.272324 C 16894.227837 142.061617 16889.349446 142.061617 16885.342195 140.272324 C 16881.422059 138.522793 16878.982864 135.262302 16878.982864 131.723478 C 16878.982864 128.224415 16881.422059 124.924163 16885.342195 123.174632 C 16889.349446 121.425101 16894.227837 121.425101 16898.147973 123.174632 C 16902.155223 124.924163 16904.594419 128.224415 16904.594419 131.723478 Z " transform="matrix(.04484 0 0 .09824 -737.50434 .39534)"/>
<path d="M 16769.877287 129.279282 C 16769.877287 134.003067 16768.004373 138.392846 16764.955443 140.778596 C 16761.906513 143.164345 16758.160685 143.164345 16755.111755 140.778596 C 16752.062825 138.392846 16750.18991 134.003067 16750.18991 129.279282 C 16750.18991 124.507783 16752.062825 120.118003 16755.111755 117.779969 C 16758.160685 115.394219 16761.906513 115.394219 16764.955443 117.779969 C 16768.004373 120.118003 16769.877287 124.507783 16769.877287 129.279282 Z " transform="matrix(.08968 0 0 .08187 -1494.55661 3.51795)"/>
<path d="M 16819.983004 191.180962 C 16819.983004 197.965364 16813.399245 203.48235 16805.257496 203.48235 C 16797.115748 203.48235 16790.481731 197.965364 16790.481731 191.180962 C 16790.481731 184.39656 16797.115748 178.879573 16805.257496 178.879573 C 16813.399245 178.879573 16819.983004 184.39656 16819.983004 191.180962 Z " transform="matrix(.07772 0 0 .05239 -1296.07309 8.14714)"/>
<path d="M 16774.77508 220.683538 C 16774.818636 224.405308 16772.466605 227.840787 16768.67722 229.653957 C 16764.844279 231.514842 16760.140216 231.514842 16756.350831 229.653957 C 16752.517891 227.840787 16750.209415 224.405308 16750.209415 220.683538 C 16750.209415 217.009484 16752.517891 213.574004 16756.350831 211.713119 C 16760.140216 209.852235 16764.844279 209.852235 16768.67722 211.713119 C 16772.466605 213.574004 16774.818636 217.009484 16774.77508 220.683538 Z " transform="matrix(.08968 0 0 .08187 -1493.85133 2.63267)"/>
<path d="M 16826.899176 308.676085 C 16826.899176 312.493285 16822.935567 315.547044 16818.057279 315.547044 C 16813.135435 315.547044 16809.171826 312.493285 16809.171826 308.676085 C 16809.171826 304.858886 16813.135435 301.805126 16818.057279 301.805126 C 16822.935567 301.805126 16826.899176 304.858886 16826.899176 308.676085 Z " transform="matrix(.08968 0 0 .08187 -1498.61192 -12.73892)"/>
<path d="M 16837.687229 331.27591 C 16837.687229 336.715419 16834.856079 341.105198 16831.328032 341.105198 C 16827.799984 341.105198 16824.925279 336.715419 16824.925279 331.27591 C 16824.925279 325.8364 16827.799984 321.446621 16831.328032 321.446621 C 16834.856079 321.446621 16837.687229 325.8364 16837.687229 331.27591 Z " transform="matrix(.08968 0 0 .08187 -1501.34505 -8.15158)"/>
<path d="M 16817.066981 382.8925 C 16817.066981 386.423409 16814.192275 389.286309 16810.664228 389.286309 C 16807.13618 389.286309 16804.261475 386.423409 16804.261475 382.8925 C 16804.261475 379.36159 16807.13618 376.498691 16810.664228 376.498691 C 16814.192275 376.498691 16817.066981 379.36159 16817.066981 382.8925 Z " transform="matrix(.08968 0 0 .08187 -1478.06998 -13.06084)"/>
<path d="M 16835.733678 393.701383 C 16835.733678 398.329737 16831.770069 402.051507 16826.891781 402.051507 C 16822.013493 402.051507 16818.049883 398.329737 16818.049883 393.701383 C 16818.049883 389.073028 16822.013493 385.351259 16826.891781 385.351259 C 16831.770069 385.351259 16835.733678 389.073028 16835.733678 393.701383 Z " transform="matrix(.08968 0 0 .08187 -1501.52141 .62069)"/>
<path d="M 16793.444944 385.330502 C 16793.534132 389.553282 16789.431499 393.489771 16782.9208 395.636947 C 16776.410101 397.712551 16768.294024 397.712551 16761.783325 395.636947 C 16755.183438 393.489771 16751.169994 389.553282 16751.169994 385.330502 C 16751.169994 381.107723 16755.183438 377.242806 16761.783325 375.09563 C 16768.294024 373.020027 16776.410101 373.020027 16782.9208 375.09563 C 16789.431499 377.242806 16793.534132 381.107723 16793.444944 385.330502 Z " transform="matrix(.0438 0 0 .05458 -724.70848 12.10244)"/>
<path d="M 16796.412178 348.980652 C 16796.412178 351.795837 16794.539264 354.372446 16791.490334 355.803896 C 16788.441404 357.187631 16784.695575 357.187631 16781.646645 355.803896 C 16778.597715 354.372446 16776.724801 351.795837 16776.768357 348.980652 C 16776.724801 346.165467 16778.597715 343.588858 16781.646645 342.157408 C 16784.695575 340.773673 16788.441404 340.773673 16791.490334 342.157408 C 16794.539264 343.588858 16796.412178 346.165467 16796.412178 348.980652 Z " transform="matrix(.08968 0 0 .08187 -1496.76056 1.98884)"/>
<path d="M 16805.242155 333.726457 C 16805.242155 337.829947 16802.411006 341.122281 16798.882958 341.122281 C 16795.354911 341.122281 16792.480205 337.829947 16792.480205 333.726457 C 16792.480205 329.670683 16795.354911 326.378348 16798.882958 326.378348 C 16802.411006 326.378348 16805.242155 329.670683 16805.242155 333.726457 Z " transform="matrix(.08968 0 0 .08187 -1484.94699 -12.73892)"/>
<path d="M 16774.769803 341.138238 C 16774.769803 343.957045 16772.826111 346.540952 16769.624735 347.950355 C 16766.42336 349.359759 16762.497863 349.359759 16759.296488 347.950355 C 16756.095112 346.540952 16754.113308 343.957045 16754.15142 341.138238 C 16754.113308 338.319431 16756.095112 335.676799 16759.296488 334.267396 C 16762.497863 332.857992 16766.42336 332.857992 16769.624735 334.267396 C 16772.826111 335.676799 16774.769803 338.319431 16774.769803 341.138238 Z " transform="matrix(.1025 0 0 .06652 -1696.42378 -9.55494)"/>
<path d="M 16895.69384 284.103392 C 16895.69384 288.445456 16892.601354 291.976366 16888.81197 291.976366 C 16885.022585 291.976366 16881.930099 288.445456 16881.930099 284.103392 C 16881.930099 279.761327 16885.022585 276.230418 16888.81197 276.230418 C 16892.601354 276.230418 16895.69384 279.761327 16895.69384 284.103392 Z " transform="matrix(.08968 0 0 .08187 -1492.17617 -7.26631)"/>
<path style="fill-opacity:.941" d="M 17088.370331 290.008773 C 17088.413887 295.305138 17086.23608 300.172067 17082.751589 302.796392 C 17079.223541 305.468431 17074.911483 305.468431 17071.426991 302.796392 C 17067.898944 300.172067 17065.764693 295.305138 17065.764693 290.008773 C 17065.764693 284.712409 17067.898944 279.84548 17071.426991 277.17344 C 17074.911483 274.549115 17079.223541 274.549115 17082.751589 277.17344 C 17086.23608 279.84548 17088.413887 284.712409 17088.370331 290.008773 Z " transform="matrix(.08968 0 0 .08187 -1493.67474 5.44946)"/>
<path d="M 16837.709739 146.984773 C 16837.709739 149.609097 16835.488375 152.042562 16831.829659 153.378582 C 16828.170943 154.714602 16823.641104 154.714602 16819.982388 153.378582 C 16816.323672 152.042562 16814.102309 149.609097 16814.102309 146.984773 C 16814.102309 144.312733 16816.323672 141.879268 16819.982388 140.543249 C 16823.641104 139.207229 16828.170943 139.207229 16831.829659 140.543249 C 16835.488375 141.879268 16837.709739 144.312733 16837.709739 146.984773 Z " transform="matrix(.08968 0 0 .08187 -1497.5541 1.50596)"/>
<path d="M 16945.834343 414.347482 C 16945.834343 417.878391 16942.306296 420.741291 16937.950681 420.741291 C 16933.638623 420.741291 16930.110575 417.878391 16930.110575 414.347482 C 16930.110575 410.816572 16933.638623 407.953673 16937.950681 407.953673 C 16942.306296 407.953673 16945.834343 410.816572 16945.834343 414.347482 Z " transform="matrix(.08968 0 0 .08187 -1496.84871 3.59844)"/>
</g>
</g>
</g>
</svg>
