<svg width="48" xmlns="http://www.w3.org/2000/svg" height="48" viewBox="0 0 48 48" xmlns:xlink="http://www.w3.org/1999/xlink">
<defs>
<radialGradient cx="148.004" cy="160" gradientTransform="matrix(.1831 0 0 .1831 -3.10029 -5.29688)" id="radial0" r="128" gradientUnits="userSpaceOnUse">
<stop offset="0" style="stop-color:#ceebff"/>
<stop offset="1" style="stop-color:#116cac"/>
</radialGradient>
</defs>
<path style="fill:url(#radial0)" d="M 47.4375 11.546875 L 47.4375 36.453125 C 47.4375 46.703125 47.4375 47.4375 36.453125 47.4375 L 11.550781 47.4375 C 0.5625 47.4375 0.5625 46.703125 0.5625 36.453125 L 0.5625 11.546875 C 0.5625 1.296875 0.5625 0.5625 11.550781 0.5625 L 36.453125 0.5625 C 47.4375 0.5625 47.4375 1.296875 47.4375 11.546875 Z "/>
<g style="fill:#fff">
<path style="fill-opacity:.051" d="M 38.265625 47.4375 C 40.808594 47.425781 42.644531 47.355469 43.976562 46.996094 L 39.746094 39.746094 L 35.261719 47.4375 L 36.453125 47.4375 C 37.09375 47.4375 37.695312 47.4375 38.265625 47.4375 Z M 39.746094 39.746094 L 34.621094 30.957031 L 29.492188 39.746094 Z M 39.746094 39.746094 L 47.398438 39.746094 C 47.429688 38.773438 47.4375 37.683594 47.4375 36.449219 L 47.4375 35.351562 L 44.875 30.957031 Z M 44.875 30.957031 L 39.746094 22.167969 L 34.621094 30.957031 Z M 44.875 30.957031 L 47.4375 30.957031 L 47.4375 26.5625 Z M 34.621094 30.957031 L 29.492188 22.167969 L 24.367188 30.957031 Z M 24.367188 30.957031 L 19.238281 39.746094 L 29.492188 39.746094 Z M 24.367188 30.957031 L 19.238281 22.167969 L 14.113281 30.957031 Z M 14.113281 30.957031 L 8.984375 39.746094 L 19.238281 39.746094 Z M 14.113281 30.957031 L 8.984375 22.167969 L 3.859375 30.957031 Z M 3.859375 30.957031 L 0.5625 36.605469 C 0.5625 37.773438 0.574219 38.816406 0.601562 39.746094 L 8.984375 39.746094 Z M 3.859375 30.957031 L 0.5625 25.308594 L 0.5625 30.957031 Z M 8.984375 39.746094 L 4.671875 47.140625 C 6.269531 47.433594 8.480469 47.4375 11.550781 47.4375 L 13.472656 47.4375 Z M 8.984375 22.167969 L 3.859375 13.378906 L 0.5625 19.027344 L 0.5625 22.167969 Z M 8.984375 22.167969 L 19.238281 22.167969 L 14.113281 13.378906 Z M 14.113281 13.378906 L 8.984375 4.589844 L 3.859375 13.378906 Z M 14.113281 13.378906 L 24.367188 13.378906 L 19.238281 4.589844 Z M 19.238281 4.589844 L 16.886719 0.5625 L 11.546875 0.5625 C 11.472656 0.5625 11.410156 0.5625 11.335938 0.5625 L 8.984375 4.589844 Z M 19.238281 4.589844 L 29.492188 4.589844 L 27.140625 0.5625 L 21.589844 0.5625 Z M 29.492188 4.589844 L 39.746094 4.589844 L 37.394531 0.5625 C 37.082031 0.5625 36.785156 0.5625 36.449219 0.5625 L 31.84375 0.5625 Z M 29.492188 4.589844 L 24.367188 13.378906 L 34.621094 13.378906 Z M 34.621094 13.378906 L 44.875 13.378906 L 39.746094 4.589844 Z M 34.621094 13.378906 L 29.492188 22.167969 L 39.746094 22.167969 Z M 39.746094 22.167969 L 47.4375 22.167969 L 47.4375 17.773438 L 44.875 13.378906 Z M 44.875 13.378906 L 47.4375 13.378906 L 47.4375 11.546875 C 47.4375 10.632812 47.429688 9.796875 47.414062 9.023438 Z M 29.492188 22.167969 L 24.367188 13.378906 L 19.238281 22.167969 Z M 39.746094 4.589844 L 47.054688 4.589844 C 46.5 1.832031 45.167969 0.960938 42.023438 0.6875 Z M 8.984375 4.589844 L 6.679688 0.636719 C 3.019531 0.84375 1.539062 1.632812 0.945312 4.589844 Z M 3.859375 13.378906 L 0.621094 7.824219 C 0.578125 8.898438 0.5625 10.132812 0.5625 11.546875 L 0.5625 13.378906 Z M 19.238281 39.746094 L 14.753906 47.4375 L 23.726562 47.4375 Z M 29.492188 39.746094 L 25.007812 47.4375 L 33.980469 47.4375 Z M 2.59375 46.367188 L 0.992188 43.621094 C 1.285156 44.9375 1.777344 45.800781 2.59375 46.367188 Z "/>
<path d="M 24.019531 9.351562 C 23.988281 9.339844 22.425781 10.648438 20.546875 12.28125 C 17.824219 14.648438 17.078125 15.253906 16.90625 15.253906 C 16.785156 15.253906 14.855469 15.074219 12.59375 14.835938 C 10.335938 14.597656 8.46875 14.421875 8.453125 14.4375 C 8.417969 14.472656 5.292969 24.800781 5.25 25.027344 C 5.230469 25.125 6.480469 26.234375 9.539062 28.835938 L 13.851562 32.496094 L 15.398438 32.496094 C 16.246094 32.496094 17.097656 32.464844 17.304688 32.433594 L 17.679688 32.394531 L 13.140625 28.628906 C 10.640625 26.5625 8.601562 24.820312 8.597656 24.757812 C 8.597656 24.691406 9.019531 23.355469 9.539062 21.765625 C 10.058594 20.175781 10.578125 18.527344 10.710938 18.101562 C 10.957031 17.335938 10.960938 17.324219 11.214844 17.328125 C 11.355469 17.328125 13.007812 17.515625 14.875 17.746094 L 18.265625 18.164062 L 20.925781 15.882812 C 22.386719 14.621094 23.675781 13.5 23.789062 13.394531 L 24 13.207031 L 26.09375 15.003906 C 27.242188 15.996094 28.523438 17.121094 28.960938 17.496094 L 29.753906 18.164062 L 33.375 17.726562 C 35.367188 17.480469 37.003906 17.28125 37.015625 17.304688 C 37.058594 17.382812 39.445312 24.726562 39.445312 24.777344 C 39.445312 24.804688 37.390625 26.527344 34.882812 28.605469 L 30.320312 32.394531 L 30.71875 32.433594 C 30.929688 32.464844 31.785156 32.496094 32.621094 32.496094 L 34.148438 32.515625 L 38.4375 28.855469 C 40.800781 26.847656 42.738281 25.179688 42.75 25.128906 C 42.769531 25.054688 39.625 14.472656 39.570312 14.417969 C 39.558594 14.402344 37.6875 14.59375 35.40625 14.835938 C 33.121094 15.074219 31.167969 15.265625 31.050781 15.253906 C 30.902344 15.238281 29.828125 14.363281 27.453125 12.300781 C 25.597656 10.691406 24.054688 9.363281 24.019531 9.351562 Z M 23.980469 15.734375 L 22.054688 17.683594 L 20.148438 19.648438 L 20.148438 21.34375 C 20.144531 24.007812 20.449219 26.265625 21.070312 28.1875 C 21.640625 29.953125 22.304688 31.136719 23.308594 32.140625 C 23.644531 32.480469 23.941406 32.75 23.980469 32.75 C 24.132812 32.75 24.941406 31.953125 25.359375 31.386719 C 25.984375 30.546875 26.507812 29.511719 26.910156 28.292969 C 27.558594 26.308594 27.8125 24.582031 27.871094 21.71875 L 27.914062 19.648438 L 25.945312 17.683594 Z M 35.78125 19.710938 C 35.761719 19.691406 34.644531 19.808594 33.292969 19.960938 C 31.9375 20.117188 30.785156 20.253906 30.738281 20.253906 C 30.683594 20.253906 30.65625 20.621094 30.65625 21.28125 C 30.65625 24.765625 29.402344 28.96875 27.535156 31.746094 C 27.105469 32.386719 27.0625 32.507812 27.242188 32.394531 C 28.449219 31.617188 37.050781 24.339844 37.015625 24.128906 C 36.976562 23.890625 35.820312 19.75 35.78125 19.710938 Z M 12.21875 19.753906 C 12.1875 19.785156 11.902344 20.816406 11.570312 22.035156 L 10.964844 24.230469 L 11.171875 24.441406 C 13.191406 26.207031 18.734375 30.851562 20.046875 31.867188 C 20.5 32.222656 20.890625 32.488281 20.902344 32.476562 C 20.914062 32.460938 20.707031 32.113281 20.421875 31.679688 C 18.597656 28.90625 17.5 25.265625 17.324219 21.386719 C 17.296875 20.753906 17.246094 20.253906 17.21875 20.253906 C 17.195312 20.253906 16.074219 20.117188 14.730469 19.960938 C 13.382812 19.808594 12.25 19.71875 12.21875 19.753906 Z M 19.480469 34.023438 L 14.917969 34.042969 L 19.460938 36.367188 C 21.949219 37.636719 23.996094 38.65625 24.019531 38.648438 C 24.042969 38.632812 26.097656 37.609375 28.582031 36.347656 L 33.101562 34.042969 L 28.5625 34.023438 C 26.0625 34.011719 21.980469 34.011719 19.480469 34.023438 Z "/>
</g>
</svg>
