<svg width="48" xmlns="http://www.w3.org/2000/svg" height="48" viewBox="0 0 48 48" xmlns:xlink="http://www.w3.org/1999/xlink">
<defs>
<radialGradient cx="148.004" cy="160" gradientTransform="matrix(.1831 0 0 .1831 -3.10029 -5.29688)" id="radial0" r="128" gradientUnits="userSpaceOnUse">
<stop offset="0" style="stop-color:#e5a4b3"/>
<stop offset="1" style="stop-color:#ab3752"/>
</radialGradient>
</defs>
<path style="fill:url(#radial0)" d="M 47.4375 11.546875 L 47.4375 36.453125 C 47.4375 46.703125 47.4375 47.4375 36.453125 47.4375 L 11.550781 47.4375 C 0.5625 47.4375 0.5625 46.703125 0.5625 36.453125 L 0.5625 11.546875 C 0.5625 1.296875 0.5625 0.5625 11.550781 0.5625 L 36.453125 0.5625 C 47.4375 0.5625 47.4375 1.296875 47.4375 11.546875 Z "/>
<g style="fill:#fff">
<g>
<path style="fill-opacity:.051" d="M 38.265625 47.4375 C 40.808594 47.425781 42.644531 47.355469 43.976562 46.996094 L 39.746094 39.746094 L 35.261719 47.4375 L 36.453125 47.4375 C 37.09375 47.4375 37.695312 47.4375 38.265625 47.4375 Z M 39.746094 39.746094 L 34.621094 30.957031 L 29.492188 39.746094 Z M 39.746094 39.746094 L 47.398438 39.746094 C 47.429688 38.773438 47.4375 37.683594 47.4375 36.449219 L 47.4375 35.351562 L 44.875 30.957031 Z M 44.875 30.957031 L 39.746094 22.167969 L 34.621094 30.957031 Z M 44.875 30.957031 L 47.4375 30.957031 L 47.4375 26.5625 Z M 34.621094 30.957031 L 29.492188 22.167969 L 24.367188 30.957031 Z M 24.367188 30.957031 L 19.238281 39.746094 L 29.492188 39.746094 Z M 24.367188 30.957031 L 19.238281 22.167969 L 14.113281 30.957031 Z M 14.113281 30.957031 L 8.984375 39.746094 L 19.238281 39.746094 Z M 14.113281 30.957031 L 8.984375 22.167969 L 3.859375 30.957031 Z M 3.859375 30.957031 L 0.5625 36.605469 C 0.5625 37.773438 0.574219 38.816406 0.601562 39.746094 L 8.984375 39.746094 Z M 3.859375 30.957031 L 0.5625 25.308594 L 0.5625 30.957031 Z M 8.984375 39.746094 L 4.671875 47.140625 C 6.269531 47.433594 8.480469 47.4375 11.546875 47.4375 L 13.472656 47.4375 Z M 8.984375 22.167969 L 3.859375 13.378906 L 0.5625 19.027344 L 0.5625 22.167969 Z M 8.984375 22.167969 L 19.238281 22.167969 L 14.113281 13.378906 Z M 14.113281 13.378906 L 8.984375 4.589844 L 3.859375 13.378906 Z M 14.113281 13.378906 L 24.367188 13.378906 L 19.238281 4.589844 Z M 19.238281 4.589844 L 16.886719 0.5625 L 11.546875 0.5625 C 11.472656 0.5625 11.410156 0.5625 11.335938 0.5625 L 8.984375 4.589844 Z M 19.238281 4.589844 L 29.492188 4.589844 L 27.140625 0.5625 L 21.589844 0.5625 Z M 29.492188 4.589844 L 39.746094 4.589844 L 37.394531 0.5625 C 37.082031 0.5625 36.785156 0.5625 36.449219 0.5625 L 31.84375 0.5625 Z M 29.492188 4.589844 L 24.367188 13.378906 L 34.621094 13.378906 Z M 34.621094 13.378906 L 44.875 13.378906 L 39.746094 4.589844 Z M 34.621094 13.378906 L 29.492188 22.167969 L 39.746094 22.167969 Z M 39.746094 22.167969 L 47.4375 22.167969 L 47.4375 17.773438 L 44.875 13.378906 Z M 44.875 13.378906 L 47.4375 13.378906 L 47.4375 11.546875 C 47.4375 10.632812 47.429688 9.796875 47.414062 9.023438 Z M 29.492188 22.167969 L 24.367188 13.378906 L 19.238281 22.167969 Z M 39.746094 4.589844 L 47.054688 4.589844 C 46.5 1.832031 45.167969 0.960938 42.023438 0.6875 Z M 8.984375 4.589844 L 6.679688 0.636719 C 3.019531 0.84375 1.539062 1.632812 0.945312 4.589844 Z M 3.859375 13.378906 L 0.621094 7.824219 C 0.578125 8.898438 0.5625 10.132812 0.5625 11.546875 L 0.5625 13.378906 Z M 19.238281 39.746094 L 14.753906 47.4375 L 23.726562 47.4375 Z M 29.492188 39.746094 L 25.007812 47.4375 L 33.980469 47.4375 Z M 2.59375 46.367188 L 0.992188 43.621094 C 1.285156 44.9375 1.777344 45.800781 2.59375 46.367188 Z "/>
</g>
<g style="stroke:#fff;stroke-width:4.45">
<path d="M 181.6875 -71.270833 C 181.6875 -54.916667 168.291667 -41.604167 151.8125 -41.604167 C 146.541667 -41.604167 104.083333 -41.604167 104.083333 -41.604167 C 104.083333 -41.604167 104.083333 -60.4375 104.083333 -67.6875 C 98.145833 -63.625 92.583333 -59.625 87.541667 -55.8125 C 61.354167 -35.958333 57.0625 -26.75 56.4375 -24.958333 C 57.0625 -23.166667 61.354167 -13.979167 87.541667 5.895833 C 92.583333 9.708333 98.145833 13.708333 104.083333 17.770833 C 104.083333 10.520833 104.083333 -8.3125 104.083333 -8.3125 C 104.083333 -8.3125 146.541667 -8.3125 151.8125 -8.3125 C 186.8125 -8.3125 215.1875 -36.5 215.1875 -71.291667 L 181.6875 -71.291667 Z " transform="matrix(.1875 0 0 .1875 0 39)"/>
<path d="M 74.3125 -88.729167 C 74.3125 -105.083333 87.708333 -118.395833 104.1875 -118.395833 C 109.458333 -118.395833 151.916667 -118.395833 151.916667 -118.395833 C 151.916667 -118.395833 151.916667 -99.5625 151.916667 -92.3125 C 157.854167 -96.375 163.416667 -100.375 168.458333 -104.1875 C 194.645833 -124.041667 198.9375 -133.25 199.5625 -135.041667 C 198.9375 -136.833333 194.645833 -146.020833 168.458333 -165.895833 C 163.416667 -169.708333 157.854167 -173.708333 151.916667 -177.770833 C 151.916667 -170.520833 151.916667 -151.6875 151.916667 -151.6875 C 151.916667 -151.6875 109.458333 -151.6875 104.1875 -151.6875 C 69.1875 -151.6875 40.8125 -123.5 40.8125 -88.729167 Z " transform="matrix(.1875 0 0 .1875 0 39)"/>
</g>
</g>
</svg>
