<svg width="48" xmlns="http://www.w3.org/2000/svg" height="48" viewBox="0 0 48 48" xmlns:xlink="http://www.w3.org/1999/xlink">
<defs>
<radialGradient cx="148.004" cy="160" gradientTransform="matrix(.1831 0 0 .1831 -3.10029 -5.29688)" id="radial0" r="128" gradientUnits="userSpaceOnUse">
<stop offset="0" style="stop-color:#9dd6ec"/>
<stop offset="1" style="stop-color:#004bb2"/>
</radialGradient>
</defs>
<path style="fill:url(#radial0)" d="M 47.4375 11.546875 L 47.4375 36.453125 C 47.4375 46.703125 47.4375 47.4375 36.453125 47.4375 L 11.550781 47.4375 C 0.5625 47.4375 0.5625 46.703125 0.5625 36.453125 L 0.5625 11.546875 C 0.5625 1.296875 0.5625 0.5625 11.550781 0.5625 L 36.453125 0.5625 C 47.4375 0.5625 47.4375 1.296875 47.4375 11.546875 Z "/>
<g style="fill:#fff">
<path style="fill-opacity:.051" d="M 38.265625 47.4375 C 40.808594 47.425781 42.644531 47.355469 43.976562 46.996094 L 39.746094 39.746094 L 35.261719 47.4375 L 36.453125 47.4375 C 37.09375 47.4375 37.695312 47.4375 38.265625 47.4375 Z M 39.746094 39.746094 L 34.621094 30.957031 L 29.492188 39.746094 Z M 39.746094 39.746094 L 47.398438 39.746094 C 47.429688 38.773438 47.4375 37.683594 47.4375 36.449219 L 47.4375 35.351562 L 44.875 30.957031 Z M 44.875 30.957031 L 39.746094 22.167969 L 34.621094 30.957031 Z M 44.875 30.957031 L 47.4375 30.957031 L 47.4375 26.5625 Z M 34.621094 30.957031 L 29.492188 22.167969 L 24.367188 30.957031 Z M 24.367188 30.957031 L 19.238281 39.746094 L 29.492188 39.746094 Z M 24.367188 30.957031 L 19.238281 22.167969 L 14.113281 30.957031 Z M 14.113281 30.957031 L 8.984375 39.746094 L 19.238281 39.746094 Z M 14.113281 30.957031 L 8.984375 22.167969 L 3.859375 30.957031 Z M 3.859375 30.957031 L 0.5625 36.605469 C 0.5625 37.773438 0.574219 38.816406 0.601562 39.746094 L 8.984375 39.746094 Z M 3.859375 30.957031 L 0.5625 25.308594 L 0.5625 30.957031 Z M 8.984375 39.746094 L 4.671875 47.140625 C 6.269531 47.433594 8.480469 47.4375 11.546875 47.4375 L 13.472656 47.4375 Z M 8.984375 22.167969 L 3.859375 13.378906 L 0.5625 19.027344 L 0.5625 22.167969 Z M 8.984375 22.167969 L 19.238281 22.167969 L 14.113281 13.378906 Z M 14.113281 13.378906 L 8.984375 4.589844 L 3.859375 13.378906 Z M 14.113281 13.378906 L 24.367188 13.378906 L 19.238281 4.589844 Z M 19.238281 4.589844 L 16.886719 0.5625 L 11.546875 0.5625 C 11.472656 0.5625 11.410156 0.5625 11.335938 0.5625 L 8.984375 4.589844 Z M 19.238281 4.589844 L 29.492188 4.589844 L 27.140625 0.5625 L 21.589844 0.5625 Z M 29.492188 4.589844 L 39.746094 4.589844 L 37.394531 0.5625 C 37.082031 0.5625 36.785156 0.5625 36.449219 0.5625 L 31.84375 0.5625 Z M 29.492188 4.589844 L 24.367188 13.378906 L 34.621094 13.378906 Z M 34.621094 13.378906 L 44.875 13.378906 L 39.746094 4.589844 Z M 34.621094 13.378906 L 29.492188 22.167969 L 39.746094 22.167969 Z M 39.746094 22.167969 L 47.4375 22.167969 L 47.4375 17.773438 L 44.875 13.378906 Z M 44.875 13.378906 L 47.4375 13.378906 L 47.4375 11.546875 C 47.4375 10.632812 47.429688 9.796875 47.414062 9.023438 Z M 29.492188 22.167969 L 24.367188 13.378906 L 19.238281 22.167969 Z M 39.746094 4.589844 L 47.054688 4.589844 C 46.5 1.832031 45.167969 0.960938 42.023438 0.6875 Z M 8.984375 4.589844 L 6.679688 0.636719 C 3.019531 0.84375 1.539062 1.632812 0.945312 4.589844 Z M 3.859375 13.378906 L 0.621094 7.824219 C 0.578125 8.898438 0.5625 10.132812 0.5625 11.546875 L 0.5625 13.378906 Z M 19.238281 39.746094 L 14.753906 47.4375 L 23.726562 47.4375 Z M 29.492188 39.746094 L 25.007812 47.4375 L 33.980469 47.4375 Z M 2.59375 46.367188 L 0.992188 43.621094 C 1.285156 44.9375 1.777344 45.800781 2.59375 46.367188 Z "/>
<path d="M 6.511719 7.125 C 5.824219 7.199219 5.246094 7.839844 5.25 8.53125 L 5.25 33.527344 C 5.25 34.265625 5.921875 34.933594 6.65625 34.933594 L 19.3125 34.933594 L 19.3125 37.4375 L 28.6875 37.4375 L 28.6875 34.933594 L 41.34375 34.933594 C 42.078125 34.933594 42.75 34.265625 42.75 33.527344 L 42.75 8.53125 C 42.75 7.792969 42.078125 7.125 41.34375 7.125 Z M 8.363281 9.316406 C 8.421875 9.304688 8.480469 9.304688 8.539062 9.316406 L 39.578125 9.316406 C 40.066406 9.316406 40.515625 9.761719 40.515625 10.253906 L 40.515625 31.808594 C 40.515625 32.296875 40.066406 32.746094 39.578125 32.746094 L 8.539062 32.746094 C 8.050781 32.746094 7.601562 32.296875 7.601562 31.808594 L 7.601562 10.253906 C 7.59375 9.816406 7.933594 9.398438 8.363281 9.316406 Z M 12.4375 38.582031 L 12.4375 40.875 L 35.875 40.875 L 35.875 38.582031 Z "/>
<path d="M 19.277344 19.351562 C 18.933594 19.378906 18.644531 19.636719 18.644531 19.914062 L 18.644531 30.039062 C 18.644531 30.332031 18.980469 30.601562 19.347656 30.601562 L 36.691406 30.601562 C 37.0625 30.601562 37.394531 30.332031 37.394531 30.039062 L 37.394531 19.914062 C 37.394531 19.621094 37.0625 19.351562 36.691406 19.351562 Z M 20.207031 20.300781 C 20.234375 20.296875 20.265625 20.296875 20.292969 20.300781 L 35.746094 20.300781 C 35.992188 20.300781 36.214844 20.480469 36.214844 20.675781 L 36.214844 29.304688 C 36.214844 29.5 35.992188 29.679688 35.746094 29.679688 L 20.292969 29.679688 C 20.046875 29.679688 19.824219 29.5 19.824219 29.304688 L 19.824219 20.675781 C 19.820312 20.5 19.992188 20.332031 20.207031 20.300781 Z "/>
<path d="M 23.917969 26.574219 L 23.917969 27.578125 L 31.535156 27.578125 L 31.535156 26.574219 Z "/>
<path d="M 23.332031 26.574219 L 23.332031 27.578125 L 22.160156 27.578125 L 22.160156 26.574219 Z "/>
<path d="M 21.574219 26.574219 L 21.574219 27.578125 L 20.402344 27.578125 L 20.402344 26.574219 Z "/>
<path d="M 34.464844 26.574219 L 34.464844 27.578125 L 33.878906 27.578125 L 33.878906 26.574219 Z "/>
<path d="M 33.292969 26.574219 L 33.292969 27.578125 L 32.121094 27.578125 L 32.121094 26.574219 Z "/>
<path d="M 35.636719 26.574219 L 35.636719 27.578125 L 35.050781 27.578125 L 35.050781 26.574219 Z "/>
<path d="M 33.292969 22.566406 L 34.464844 22.566406 L 34.464844 25.574219 L 33.292969 25.574219 Z "/>
<path d="M 32.707031 24.570312 L 32.707031 25.574219 L 31.535156 25.574219 L 31.535156 24.570312 Z "/>
<path d="M 30.949219 24.570312 L 30.949219 25.574219 L 29.777344 25.574219 L 29.777344 24.570312 Z "/>
<path d="M 29.191406 24.570312 L 29.191406 25.574219 L 28.019531 25.574219 L 28.019531 24.570312 Z "/>
<path d="M 27.433594 24.570312 L 27.433594 25.574219 L 26.261719 25.574219 L 26.261719 24.570312 Z "/>
<path d="M 25.675781 24.570312 L 25.675781 25.574219 L 24.503906 25.574219 L 24.503906 24.570312 Z "/>
<path d="M 23.917969 24.570312 L 23.917969 25.574219 L 22.746094 25.574219 L 22.746094 24.570312 Z "/>
<path d="M 22.160156 24.570312 L 22.160156 25.574219 L 20.402344 25.574219 L 20.402344 24.570312 Z "/>
<path d="M 35.636719 24.570312 L 35.636719 25.574219 L 35.050781 25.574219 L 35.050781 24.570312 Z "/>
<path d="M 35.636719 22.566406 L 35.636719 23.566406 L 35.050781 23.566406 L 35.050781 22.566406 Z "/>
<path d="M 32.121094 22.566406 L 32.121094 23.566406 L 30.949219 23.566406 L 30.949219 22.566406 Z "/>
<path d="M 30.363281 22.566406 L 30.363281 23.566406 L 29.191406 23.566406 L 29.191406 22.566406 Z "/>
<path d="M 28.605469 22.566406 L 28.605469 23.566406 L 27.433594 23.566406 L 27.433594 22.566406 Z "/>
<path d="M 26.847656 22.566406 L 26.847656 23.566406 L 25.675781 23.566406 L 25.675781 22.566406 Z "/>
<path d="M 25.089844 22.566406 L 25.089844 23.566406 L 23.917969 23.566406 L 23.917969 22.566406 Z "/>
<path d="M 23.332031 22.566406 L 23.332031 23.566406 L 22.160156 23.566406 L 22.160156 22.566406 Z "/>
<path d="M 21.574219 22.566406 L 21.574219 23.566406 L 20.402344 23.566406 L 20.402344 22.566406 Z "/>
<path d="M 33.292969 22.566406 L 33.292969 23.566406 L 32.707031 23.566406 L 32.707031 22.566406 Z "/>
</g>
<path style="fill:none;stroke:#fff;stroke-width:2.542" d="M 23.019289 1017.744805 C 17.06092 1018.057671 12.310808 1023.363868 12.310808 1029.833925 C 12.310808 1036.504216 17.368907 1041.923045 23.599726 1041.923045 C 29.830546 1041.923045 34.888645 1036.504216 34.888645 1029.833925 C 34.888645 1023.15112 29.830546 1017.744805 23.599726 1017.744805 C 23.410196 1017.744805 23.20882 1017.732291 23.019289 1017.744805 Z " transform="matrix(.32976 0 0 .31213 6.28021 -306.25581)"/>
<g style="fill:#fff">
<path d="M 13.535156 10.5 L 14.589844 10.5 C 14.652344 10.5 14.699219 10.589844 14.699219 10.699219 L 14.699219 11.304688 C 14.699219 11.414062 14.652344 11.503906 14.589844 11.503906 L 13.535156 11.503906 C 13.472656 11.503906 13.425781 11.414062 13.425781 11.304688 L 13.425781 10.699219 C 13.425781 10.589844 13.472656 10.5 13.535156 10.5 Z "/>
<path d="M 13.535156 18.875 L 14.589844 18.875 C 14.652344 18.875 14.699219 18.960938 14.699219 19.070312 L 14.699219 19.675781 C 14.699219 19.785156 14.652344 19.875 14.589844 19.875 L 13.535156 19.875 C 13.472656 19.875 13.425781 19.785156 13.425781 19.675781 L 13.425781 19.070312 C 13.425781 18.960938 13.472656 18.875 13.535156 18.875 Z "/>
<path d="M 14.933594 15.1875 C 14.933594 15.644531 14.542969 16.011719 14.0625 16.011719 C 13.582031 16.011719 13.191406 15.644531 13.191406 15.1875 C 13.191406 14.734375 13.582031 14.367188 14.0625 14.367188 C 14.542969 14.367188 14.933594 14.734375 14.933594 15.1875 Z "/>
<path d="M 18.75 14.667969 L 18.75 15.710938 C 18.75 15.769531 18.65625 15.816406 18.539062 15.816406 L 17.902344 15.816406 C 17.785156 15.816406 17.691406 15.769531 17.691406 15.710938 L 17.691406 14.667969 C 17.691406 14.609375 17.785156 14.5625 17.902344 14.5625 L 18.539062 14.5625 C 18.65625 14.5625 18.75 14.609375 18.75 14.667969 Z "/>
<path d="M 10.433594 14.667969 L 10.433594 15.710938 C 10.433594 15.769531 10.339844 15.816406 10.222656 15.816406 L 9.585938 15.816406 C 9.46875 15.816406 9.375 15.769531 9.375 15.710938 L 9.375 14.667969 C 9.375 14.609375 9.46875 14.5625 9.585938 14.5625 L 10.222656 14.5625 C 10.339844 14.5625 10.433594 14.609375 10.433594 14.667969 Z "/>
<path d="M 17.191406 11.519531 L 17.9375 12.226562 C 17.980469 12.269531 17.949219 12.363281 17.867188 12.441406 L 17.414062 12.867188 C 17.332031 12.945312 17.230469 12.976562 17.1875 12.9375 L 16.441406 12.226562 C 16.398438 12.1875 16.429688 12.09375 16.511719 12.015625 L 16.964844 11.589844 C 17.046875 11.511719 17.148438 11.480469 17.191406 11.519531 Z "/>
<path d="M 10.9375 17.441406 L 11.683594 18.148438 C 11.726562 18.1875 11.695312 18.28125 11.613281 18.359375 L 11.160156 18.789062 C 11.078125 18.867188 10.976562 18.894531 10.933594 18.855469 L 10.1875 18.148438 C 10.144531 18.109375 10.175781 18.011719 10.257812 17.9375 L 10.710938 17.507812 C 10.792969 17.429688 10.894531 17.398438 10.9375 17.441406 Z "/>
<path d="M 17.9375 18.148438 L 17.191406 18.855469 C 17.148438 18.894531 17.046875 18.867188 16.964844 18.789062 L 16.511719 18.359375 C 16.429688 18.28125 16.398438 18.1875 16.441406 18.148438 L 17.1875 17.441406 C 17.230469 17.398438 17.332031 17.429688 17.414062 17.507812 L 17.867188 17.9375 C 17.949219 18.011719 17.980469 18.109375 17.9375 18.148438 Z "/>
<path d="M 11.683594 12.226562 L 10.9375 12.9375 C 10.894531 12.976562 10.792969 12.945312 10.710938 12.867188 L 10.257812 12.441406 C 10.175781 12.363281 10.144531 12.269531 10.1875 12.226562 L 10.933594 11.519531 C 10.976562 11.480469 11.078125 11.511719 11.160156 11.589844 L 11.613281 12.015625 C 11.695312 12.09375 11.726562 12.1875 11.683594 12.226562 Z "/>
</g>
</svg>
