<svg width="48" xmlns="http://www.w3.org/2000/svg" height="48" viewBox="0 0 48 48" xmlns:xlink="http://www.w3.org/1999/xlink">
<g style="fill:none;stroke:#909ea9;stroke-width:14.293">
<path d="M 128.395833 -171.083333 L 128.395833 -80.958333 " transform="matrix(.1875 0 0 .1875 0 39)"/>
<path d="M 71.625 -79.520833 L 181.916667 -79.520833 " transform="matrix(.1875 0 0 .1875 0 39)"/>
<path d="M 127.541667 -172.854167 L 128.458333 -172.854167 C 160.166667 -172.854167 185.854167 -147.166667 185.854167 -115.458333 L 185.854167 -44.541667 C 185.854167 -12.833333 160.166667 12.854167 128.458333 12.854167 L 127.541667 12.854167 C 95.833333 12.854167 70.145833 -12.833333 70.145833 -44.541667 L 70.145833 -115.458333 C 70.145833 -147.166667 95.833333 -172.854167 127.541667 -172.854167 Z " transform="matrix(.1875 0 0 .1875 0 39)"/>
</g>
</svg>
