<svg width="48" xmlns="http://www.w3.org/2000/svg" height="48" viewBox="0 0 48 48" xmlns:xlink="http://www.w3.org/1999/xlink">
<defs>
<radialGradient cx="148.004" cy="160" gradientTransform="matrix(.1831 0 0 .1831 -3.10029 -5.29688)" id="radial0" r="128" gradientUnits="userSpaceOnUse">
<stop offset="0" style="stop-color:#bae4c8"/>
<stop offset="1" style="stop-color:#028e2e"/>
</radialGradient>
</defs>
<path style="fill:url(#radial0)" d="M 47.4375 11.546875 L 47.4375 36.453125 C 47.4375 46.703125 47.4375 47.4375 36.453125 47.4375 L 11.550781 47.4375 C 0.5625 47.4375 0.5625 46.703125 0.5625 36.453125 L 0.5625 11.546875 C 0.5625 1.296875 0.5625 0.5625 11.550781 0.5625 L 36.453125 0.5625 C 47.4375 0.5625 47.4375 1.296875 47.4375 11.546875 Z "/>
<g style="fill:#fff">
<path style="fill-opacity:.051" d="M 38.265625 47.4375 C 40.808594 47.425781 42.644531 47.355469 43.976562 46.996094 L 39.746094 39.746094 L 35.261719 47.4375 L 36.453125 47.4375 C 37.09375 47.4375 37.695312 47.4375 38.265625 47.4375 Z M 39.746094 39.746094 L 34.621094 30.957031 L 29.492188 39.746094 Z M 39.746094 39.746094 L 47.398438 39.746094 C 47.429688 38.773438 47.4375 37.683594 47.4375 36.449219 L 47.4375 35.351562 L 44.875 30.957031 Z M 44.875 30.957031 L 39.746094 22.167969 L 34.621094 30.957031 Z M 44.875 30.957031 L 47.4375 30.957031 L 47.4375 26.5625 Z M 34.621094 30.957031 L 29.492188 22.167969 L 24.367188 30.957031 Z M 24.367188 30.957031 L 19.238281 39.746094 L 29.492188 39.746094 Z M 24.367188 30.957031 L 19.238281 22.167969 L 14.113281 30.957031 Z M 14.113281 30.957031 L 8.984375 39.746094 L 19.238281 39.746094 Z M 14.113281 30.957031 L 8.984375 22.167969 L 3.859375 30.957031 Z M 3.859375 30.957031 L 0.5625 36.605469 C 0.5625 37.773438 0.574219 38.816406 0.601562 39.746094 L 8.984375 39.746094 Z M 3.859375 30.957031 L 0.5625 25.308594 L 0.5625 30.957031 Z M 8.984375 39.746094 L 4.671875 47.140625 C 6.269531 47.433594 8.480469 47.4375 11.546875 47.4375 L 13.472656 47.4375 Z M 8.984375 22.167969 L 3.859375 13.378906 L 0.5625 19.027344 L 0.5625 22.167969 Z M 8.984375 22.167969 L 19.238281 22.167969 L 14.113281 13.378906 Z M 14.113281 13.378906 L 8.984375 4.589844 L 3.859375 13.378906 Z M 14.113281 13.378906 L 24.367188 13.378906 L 19.238281 4.589844 Z M 19.238281 4.589844 L 16.886719 0.5625 L 11.546875 0.5625 C 11.472656 0.5625 11.410156 0.5625 11.335938 0.5625 L 8.984375 4.589844 Z M 19.238281 4.589844 L 29.492188 4.589844 L 27.140625 0.5625 L 21.589844 0.5625 Z M 29.492188 4.589844 L 39.746094 4.589844 L 37.394531 0.5625 C 37.082031 0.5625 36.785156 0.5625 36.453125 0.5625 L 31.84375 0.5625 Z M 29.492188 4.589844 L 24.367188 13.378906 L 34.621094 13.378906 Z M 34.621094 13.378906 L 44.875 13.378906 L 39.746094 4.589844 Z M 34.621094 13.378906 L 29.492188 22.167969 L 39.746094 22.167969 Z M 39.746094 22.167969 L 47.4375 22.167969 L 47.4375 17.773438 L 44.875 13.378906 Z M 44.875 13.378906 L 47.4375 13.378906 L 47.4375 11.546875 C 47.4375 10.632812 47.429688 9.796875 47.414062 9.023438 Z M 29.492188 22.167969 L 24.367188 13.378906 L 19.238281 22.167969 Z M 39.746094 4.589844 L 47.054688 4.589844 C 46.5 1.832031 45.167969 0.960938 42.023438 0.6875 Z M 8.984375 4.589844 L 6.679688 0.636719 C 3.019531 0.84375 1.539062 1.632812 0.945312 4.589844 Z M 3.859375 13.378906 L 0.621094 7.824219 C 0.578125 8.898438 0.5625 10.132812 0.5625 11.546875 L 0.5625 13.378906 Z M 19.238281 39.746094 L 14.753906 47.4375 L 23.726562 47.4375 Z M 29.492188 39.746094 L 25.007812 47.4375 L 33.980469 47.4375 Z M 2.59375 46.367188 L 0.992188 43.621094 C 1.285156 44.9375 1.777344 45.800781 2.59375 46.367188 Z "/>
<path d="M 24.726562 42.285156 C 24.53125 41.78125 24.035156 39.796875 23.863281 38.816406 C 23.652344 37.628906 23.625 35.523438 23.8125 34.765625 C 24.074219 33.695312 24.609375 32.746094 25.386719 31.976562 C 26.371094 30.996094 26.964844 30.632812 30.417969 28.890625 C 34.613281 26.777344 36.296875 25.730469 38.535156 23.847656 C 39.46875 23.0625 40.929688 21.621094 41.722656 20.6875 C 42.171875 20.164062 42.179688 20.125 41.480469 22.140625 C 41.195312 22.96875 40.976562 23.691406 40.996094 23.75 C 41.015625 23.804688 41.417969 23.441406 41.890625 22.941406 L 42.75 22.027344 L 41.710938 25.183594 C 41.140625 26.914062 40.417969 29.15625 40.101562 30.15625 C 38.578125 35.015625 37.578125 37.089844 35.902344 38.847656 C 34.699219 40.109375 33.398438 40.898438 31.257812 41.65625 C 29.695312 42.207031 27.496094 42.5625 25.636719 42.5625 C 24.855469 42.5625 24.832031 42.554688 24.726562 42.285156 Z M 27.988281 42.152344 C 31.804688 41.691406 34.6875 39.859375 36.296875 36.875 C 36.714844 36.101562 37.667969 33.929688 37.980469 32.960938 C 38.136719 32.546875 38.226562 32.304688 38.316406 32.003906 C 38.367188 31.824219 38.738281 30.492188 39.140625 29.042969 C 39.925781 26.222656 40.835938 23.140625 41.171875 22.167969 C 41.285156 21.835938 41.375 21.554688 41.375 21.535156 C 41.375 21.519531 40.933594 21.949219 40.386719 22.496094 C 38.71875 24.167969 36.789062 25.671875 34.710938 26.925781 C 34.109375 27.289062 32.4375 28.175781 31 28.902344 C 27.027344 30.894531 26.175781 31.441406 25.25 32.570312 C 24.207031 33.839844 23.972656 34.675781 24.058594 36.832031 C 24.128906 38.609375 24.535156 41.210938 24.828125 41.730469 C 24.878906 41.820312 25.230469 41.460938 25.957031 40.566406 C 27.417969 38.769531 32.171875 33.003906 32.242188 32.941406 C 32.273438 32.914062 32.570312 32.574219 32.90625 32.183594 C 33.238281 31.796875 33.632812 31.339844 33.78125 31.171875 C 33.925781 31.003906 35.082031 29.667969 36.347656 28.207031 C 37.613281 26.746094 38.675781 25.550781 38.707031 25.550781 C 38.738281 25.550781 38.605469 25.742188 38.414062 25.980469 C 38.222656 26.214844 37.363281 27.320312 36.503906 28.4375 C 33.78125 31.972656 28.972656 37.984375 26.105469 41.441406 L 25.429688 42.257812 L 26.277344 42.257812 C 26.746094 42.257812 27.511719 42.210938 27.988281 42.152344 Z M 6.292969 35.496094 L 5.25 34.511719 L 5.277344 21.449219 L 5.308594 8.382812 L 5.550781 7.777344 C 5.882812 6.960938 6.726562 6.113281 7.496094 5.828125 C 8.039062 5.625 8.441406 5.570312 10.289062 5.445312 C 11.023438 5.394531 12.136719 5.554688 20.4375 6.910156 C 25.5625 7.75 30.066406 8.488281 30.445312 8.550781 L 31.128906 8.671875 L 31.125 18.300781 L 31.117188 27.929688 L 29.121094 28.910156 C 25.613281 30.628906 24.503906 31.539062 23.515625 33.492188 L 23.367188 33.789062 L 15.65625 35.082031 C 11.414062 35.792969 7.808594 36.398438 7.640625 36.425781 C 7.367188 36.472656 7.226562 36.375 6.292969 35.496094 Z M 20.003906 31.964844 L 20.476562 31.902344 L 20.476562 30.03125 L 19.980469 29.964844 C 19.339844 29.882812 19.011719 29.617188 18.8125 29.027344 C 18.722656 28.765625 18.648438 28.519531 18.648438 28.480469 C 18.648438 28.441406 18.898438 28.285156 19.199219 28.128906 C 20.609375 27.421875 21.496094 26.003906 22.003906 23.65625 C 22.167969 22.882812 22.230469 22.167969 22.269531 20.433594 C 22.320312 18.457031 22.300781 18.0625 22.101562 16.890625 C 21.738281 14.726562 21.242188 13.589844 20.222656 12.574219 C 18.4375 10.796875 15.0625 10.753906 13.371094 12.488281 C 12.429688 13.453125 11.792969 15.171875 11.539062 17.449219 C 11.386719 18.78125 11.472656 21.910156 11.695312 23.210938 C 12.179688 26.0625 13.359375 27.808594 15.230469 28.445312 C 15.679688 28.597656 15.699219 28.621094 15.820312 29.164062 C 16.003906 29.980469 16.605469 31.101562 17.046875 31.457031 C 17.664062 31.949219 18.753906 32.136719 20.003906 31.964844 Z M 16.28125 26.03125 C 15.738281 25.503906 15.449219 24.78125 15.246094 23.4375 C 14.929688 21.324219 14.960938 17.242188 15.3125 15.511719 C 15.46875 14.726562 15.882812 14.015625 16.382812 13.667969 C 16.757812 13.40625 16.859375 13.378906 17.277344 13.441406 C 18.234375 13.585938 18.8125 14.425781 19.105469 16.09375 C 19.472656 18.160156 19.390625 22.78125 18.957031 24.46875 C 18.625 25.773438 17.980469 26.460938 17.089844 26.460938 C 16.796875 26.460938 16.636719 26.375 16.28125 26.03125 Z M 27.601562 27.203125 L 28.390625 26.957031 L 28.390625 25.253906 L 27.957031 25.40625 C 27.277344 25.648438 26.777344 25.632812 26.558594 25.367188 C 26.285156 25.027344 26.246094 24.40625 26.28125 20.6875 L 26.308594 17.296875 L 27.25 17.332031 L 28.1875 17.371094 L 28.1875 15.550781 L 27.25 15.460938 L 26.308594 15.371094 L 26.253906 12.402344 L 25.488281 12.328125 C 25.066406 12.289062 24.6875 12.296875 24.644531 12.347656 C 24.601562 12.394531 24.441406 13.003906 24.285156 13.703125 C 24.128906 14.398438 23.964844 15.039062 23.917969 15.125 C 23.851562 15.253906 23.734375 15.273438 23.324219 15.222656 L 22.808594 15.15625 L 22.808594 17.144531 L 23.722656 17.144531 L 23.722656 21.242188 C 23.722656 23.78125 23.765625 25.53125 23.832031 25.84375 C 24.171875 27.429688 25.417969 27.878906 27.601562 27.203125 Z "/>
</g>
</svg>
