<svg width="48" xmlns="http://www.w3.org/2000/svg" height="48" viewBox="0 0 48 48" xmlns:xlink="http://www.w3.org/1999/xlink">
<defs>
<radialGradient cx="148.004" cy="160" gradientTransform="matrix(.1831 0 0 .1831 -3.10029 -5.29688)" id="radial0" r="128" gradientUnits="userSpaceOnUse">
<stop offset="0" style="stop-color:#95fbe2"/>
<stop offset="1" style="stop-color:#008766"/>
</radialGradient>
</defs>
<path style="fill:url(#radial0)" d="M 47.4375 11.546875 L 47.4375 36.453125 C 47.4375 46.703125 47.4375 47.4375 36.453125 47.4375 L 11.550781 47.4375 C 0.5625 47.4375 0.5625 46.703125 0.5625 36.453125 L 0.5625 11.546875 C 0.5625 1.296875 0.5625 0.5625 11.550781 0.5625 L 36.453125 0.5625 C 47.4375 0.5625 47.4375 1.296875 47.4375 11.546875 Z "/>
<g style="fill:#fff">
<g>
<path style="fill-opacity:.051" d="M 38.265625 47.4375 C 40.808594 47.425781 42.644531 47.355469 43.976562 46.996094 L 39.746094 39.746094 L 35.261719 47.4375 L 36.453125 47.4375 C 37.09375 47.4375 37.695312 47.4375 38.265625 47.4375 Z M 39.746094 39.746094 L 34.621094 30.957031 L 29.492188 39.746094 Z M 39.746094 39.746094 L 47.398438 39.746094 C 47.429688 38.773438 47.4375 37.683594 47.4375 36.449219 L 47.4375 35.351562 L 44.875 30.957031 Z M 44.875 30.957031 L 39.746094 22.167969 L 34.621094 30.957031 Z M 44.875 30.957031 L 47.4375 30.957031 L 47.4375 26.5625 Z M 34.621094 30.957031 L 29.492188 22.167969 L 24.367188 30.957031 Z M 24.367188 30.957031 L 19.238281 39.746094 L 29.492188 39.746094 Z M 24.367188 30.957031 L 19.238281 22.167969 L 14.113281 30.957031 Z M 14.113281 30.957031 L 8.984375 39.746094 L 19.238281 39.746094 Z M 14.113281 30.957031 L 8.984375 22.167969 L 3.859375 30.957031 Z M 3.859375 30.957031 L 0.5625 36.605469 C 0.5625 37.773438 0.574219 38.816406 0.601562 39.746094 L 8.984375 39.746094 Z M 3.859375 30.957031 L 0.5625 25.308594 L 0.5625 30.957031 Z M 8.984375 39.746094 L 4.671875 47.140625 C 6.269531 47.433594 8.480469 47.4375 11.550781 47.4375 L 13.472656 47.4375 Z M 8.984375 22.167969 L 3.859375 13.378906 L 0.5625 19.027344 L 0.5625 22.167969 Z M 8.984375 22.167969 L 19.238281 22.167969 L 14.113281 13.378906 Z M 14.113281 13.378906 L 8.984375 4.589844 L 3.859375 13.378906 Z M 14.113281 13.378906 L 24.367188 13.378906 L 19.238281 4.589844 Z M 19.238281 4.589844 L 16.886719 0.5625 L 11.550781 0.5625 C 11.472656 0.5625 11.410156 0.5625 11.335938 0.5625 L 8.984375 4.589844 Z M 19.238281 4.589844 L 29.492188 4.589844 L 27.140625 0.5625 L 21.589844 0.5625 Z M 29.492188 4.589844 L 39.746094 4.589844 L 37.394531 0.5625 C 37.082031 0.5625 36.785156 0.5625 36.453125 0.5625 L 31.84375 0.5625 Z M 29.492188 4.589844 L 24.367188 13.378906 L 34.621094 13.378906 Z M 34.621094 13.378906 L 44.875 13.378906 L 39.746094 4.589844 Z M 34.621094 13.378906 L 29.492188 22.167969 L 39.746094 22.167969 Z M 39.746094 22.167969 L 47.4375 22.167969 L 47.4375 17.773438 L 44.875 13.378906 Z M 44.875 13.378906 L 47.4375 13.378906 L 47.4375 11.546875 C 47.4375 10.632812 47.429688 9.796875 47.414062 9.023438 Z M 29.492188 22.167969 L 24.367188 13.378906 L 19.238281 22.167969 Z M 39.746094 4.589844 L 47.054688 4.589844 C 46.5 1.832031 45.167969 0.960938 42.023438 0.6875 Z M 8.984375 4.589844 L 6.679688 0.636719 C 3.019531 0.84375 1.539062 1.632812 0.945312 4.589844 Z M 3.859375 13.378906 L 0.621094 7.824219 C 0.578125 8.898438 0.5625 10.132812 0.5625 11.546875 L 0.5625 13.378906 Z M 19.238281 39.746094 L 14.753906 47.4375 L 23.726562 47.4375 Z M 29.492188 39.746094 L 25.007812 47.4375 L 33.980469 47.4375 Z M 2.59375 46.367188 L 0.992188 43.621094 C 1.285156 44.9375 1.777344 45.800781 2.59375 46.367188 Z "/>
</g>
<g style="fill-opacity:.6">
<path d="M 42.355469 23.011719 C 41.964844 22.546875 41.53125 22.109375 41.097656 21.679688 C 38.761719 19.359375 36.078125 17.289062 33.140625 15.789062 C 31.265625 14.832031 29.257812 14.058594 27.175781 13.6875 C 26.117188 13.496094 25.082031 13.398438 23.992188 13.398438 C 22.933594 13.398438 21.875 13.496094 20.816406 13.6875 C 18.734375 14.058594 16.730469 14.832031 14.855469 15.789062 C 11.917969 17.289062 9.234375 19.359375 6.898438 21.679688 C 6.464844 22.109375 6.035156 22.546875 5.644531 23.011719 C 5.117188 23.632812 5.117188 24.367188 5.644531 24.988281 C 6.839844 26.40625 8.261719 27.667969 9.710938 28.820312 C 12.828125 31.304688 16.394531 33.382812 20.332031 34.21875 C 21.546875 34.476562 22.769531 34.605469 23.992188 34.601562 C 25.230469 34.605469 26.445312 34.476562 27.664062 34.21875 C 31.597656 33.382812 35.171875 31.304688 38.289062 28.820312 C 39.738281 27.667969 41.160156 26.40625 42.359375 24.988281 C 42.882812 24.367188 42.878906 23.632812 42.355469 23.011719 Z M 23.992188 31.21875 C 20.011719 31.210938 16.789062 27.984375 16.789062 24 C 16.789062 20.019531 20.011719 16.789062 23.992188 16.78125 C 28.007812 16.789062 31.195312 20.019531 31.195312 24 C 31.195312 27.984375 28.007812 31.210938 23.992188 31.21875 Z "/>
<path d="M 23.988281 21.207031 C 22.445312 21.207031 21.199219 22.457031 21.199219 24 C 21.199219 25.542969 22.449219 26.792969 23.988281 26.792969 C 25.53125 26.792969 26.78125 25.542969 26.78125 24 C 26.78125 22.457031 25.53125 21.207031 23.988281 21.207031 Z "/>
</g>
<g>
<path d="M 24.007812 17.558594 C 20.4375 17.558594 17.523438 20.46875 17.523438 24.035156 C 17.523438 27.597656 20.4375 30.511719 24.007812 30.511719 C 27.578125 30.511719 30.492188 27.597656 30.492188 24.035156 C 30.492188 20.46875 27.574219 17.558594 24.007812 17.558594 Z M 24.007812 19.550781 C 26.496094 19.550781 28.492188 21.546875 28.492188 24.035156 C 28.492188 26.519531 26.496094 28.515625 24.007812 28.515625 C 21.515625 28.515625 19.519531 26.519531 19.519531 24.035156 C 19.519531 21.546875 21.515625 19.550781 24.007812 19.550781 Z "/>
<path d="M 26.933594 23.472656 C 26.660156 23.507812 26.464844 23.757812 26.496094 24.035156 C 26.53125 24.308594 26.785156 24.503906 27.058594 24.46875 L 30.984375 24.46875 C 31.164062 24.472656 31.332031 24.378906 31.421875 24.222656 C 31.515625 24.066406 31.515625 23.875 31.421875 23.71875 C 31.332031 23.5625 31.164062 23.46875 30.984375 23.472656 L 27.058594 23.472656 C 27.015625 23.464844 26.976562 23.464844 26.933594 23.472656 Z "/>
<path d="M 16.964844 23.5 C 16.785156 23.519531 16.628906 23.628906 16.554688 23.792969 C 16.480469 23.953125 16.496094 24.144531 16.601562 24.292969 C 16.703125 24.4375 16.878906 24.519531 17.058594 24.5 L 21.015625 24.5 C 21.195312 24.503906 21.363281 24.410156 21.453125 24.253906 C 21.542969 24.097656 21.542969 23.90625 21.453125 23.75 C 21.363281 23.59375 21.195312 23.5 21.015625 23.5 L 17.058594 23.5 C 17.027344 23.5 16.996094 23.5 16.964844 23.5 Z "/>
<path d="M 23.917969 16.507812 C 23.679688 16.554688 23.507812 16.765625 23.511719 17.007812 L 23.511719 21.035156 C 23.507812 21.214844 23.605469 21.382812 23.757812 21.472656 C 23.914062 21.566406 24.105469 21.566406 24.261719 21.472656 C 24.417969 21.382812 24.511719 21.214844 24.507812 21.035156 L 24.507812 17.007812 C 24.511719 16.859375 24.445312 16.714844 24.332031 16.617188 C 24.21875 16.519531 24.066406 16.480469 23.917969 16.507812 Z "/>
<path d="M 23.945312 26.527344 C 23.683594 26.5625 23.492188 26.792969 23.511719 27.058594 L 23.511719 30.992188 C 23.507812 31.171875 23.601562 31.339844 23.757812 31.429688 C 23.914062 31.523438 24.105469 31.523438 24.261719 31.429688 C 24.417969 31.339844 24.511719 31.171875 24.507812 30.992188 L 24.507812 27.058594 C 24.519531 26.910156 24.460938 26.761719 24.351562 26.660156 C 24.246094 26.558594 24.09375 26.507812 23.945312 26.527344 Z "/>
<path d="M 25.503906 24 C 25.503906 24.828125 24.832031 25.5 24.007812 25.5 C 23.179688 25.5 22.511719 24.828125 22.511719 24 C 22.511719 23.171875 23.179688 22.5 24.007812 22.5 C 24.832031 22.5 25.503906 23.171875 25.503906 24 Z "/>
</g>
</g>
</svg>
