<?xml version="1.0" encoding="UTF-8" standalone="no"?>
<svg
   xmlns:dc="http://purl.org/dc/elements/1.1/"
   xmlns:cc="http://creativecommons.org/ns#"
   xmlns:rdf="http://www.w3.org/1999/02/22-rdf-syntax-ns#"
   xmlns:svg="http://www.w3.org/2000/svg"
   xmlns="http://www.w3.org/2000/svg"
   xmlns:xlink="http://www.w3.org/1999/xlink"
   xmlns:sodipodi="http://sodipodi.sourceforge.net/DTD/sodipodi-0.dtd"
   xmlns:inkscape="http://www.inkscape.org/namespaces/inkscape"
   width="48"
   height="48"
   id="svg2"
   version="1.1"
   inkscape:version="0.48.4 r9939"
   sodipodi:docname="ceco_kitkat_gravitybox.svg">
  <metadata
     id="metadata34">
    <rdf:RDF>
      <cc:Work
         rdf:about="">
        <dc:format>image/svg+xml</dc:format>
        <dc:type
           rdf:resource="http://purl.org/dc/dcmitype/StillImage" />
        <dc:title />
      </cc:Work>
    </rdf:RDF>
  </metadata>
  <sodipodi:namedview
     pagecolor="#ffffff"
     bordercolor="#666666"
     borderopacity="1"
     objecttolerance="10"
     gridtolerance="10"
     guidetolerance="10"
     inkscape:pageopacity="0"
     inkscape:pageshadow="2"
     inkscape:window-width="1280"
     inkscape:window-height="960"
     id="namedview32"
     showgrid="true"
     inkscape:zoom="10.562661"
     inkscape:cx="23.196447"
     inkscape:cy="22.318863"
     inkscape:window-x="0"
     inkscape:window-y="0"
     inkscape:window-maximized="1"
     inkscape:current-layer="layer3">
    <inkscape:grid
       type="xygrid"
       id="grid3806" />
  </sodipodi:namedview>
  <defs
     id="defs4">
    <linearGradient
       id="linearGradient3798">
      <stop
         style="stop-color:#52525d;stop-opacity:1;"
         offset="0"
         id="stop3800" />
      <stop
         style="stop-color:#5c5c68;stop-opacity:1;"
         offset="1"
         id="stop3802" />
    </linearGradient>
    <linearGradient
       xlink:href="#1"
       id="0"
       y1="1050.36"
       x2="0"
       y2="1006.36"
       gradientUnits="userSpaceOnUse" />
    <linearGradient
       id="1">
      <stop
         stop-color="#c22219"
         id="stop8" />
      <stop
         offset="1"
         stop-color="#e12a20"
         id="stop10" />
    </linearGradient>
    <linearGradient
       inkscape:collect="always"
       xlink:href="#linearGradient3979"
       id="linearGradient3804"
       x1="24"
       y1="47"
       x2="24"
       y2="1"
       gradientUnits="userSpaceOnUse" />
    <linearGradient
       inkscape:collect="always"
       xlink:href="#linearGradient3798"
       id="linearGradient3816"
       gradientUnits="userSpaceOnUse"
       x1="24"
       y1="47"
       x2="24"
       y2="1"
       gradientTransform="translate(0,-4)" />
    <linearGradient
       inkscape:collect="always"
       xlink:href="#linearGradient3798"
       id="linearGradient3818"
       gradientUnits="userSpaceOnUse"
       x1="24"
       y1="47"
       x2="24"
       y2="1" />
    <linearGradient
       xlink:href="#0-2"
       id="1-6"
       y1="6.7729998"
       y2="12.7"
       x2="0"
       gradientUnits="userSpaceOnUse" />
    <linearGradient
       id="0-2">
      <stop
         stop-color="#52525d"
         id="stop7" />
      <stop
         offset="1"
         stop-color="#36363e"
         id="stop9" />
    </linearGradient>
    <linearGradient
       y2="12.7"
       x2="0"
       y1="6.7729998"
       gradientUnits="userSpaceOnUse"
       id="linearGradient3026"
       xlink:href="#0-2"
       inkscape:collect="always" />
    <linearGradient
       inkscape:collect="always"
       xlink:href="#linearGradient4006"
       id="linearGradient4012"
       x1="-27"
       y1="13"
       x2="-24"
       y2="13"
       gradientUnits="userSpaceOnUse" />
    <linearGradient
       id="linearGradient4006">
      <stop
         style="stop-color:#d70909;stop-opacity:1;"
         offset="0"
         id="stop4008" />
      <stop
         style="stop-color:#ea0a0a;stop-opacity:1;"
         offset="1"
         id="stop4010" />
    </linearGradient>
    <linearGradient
       y2="13"
       x2="-24"
       y1="13"
       x1="-27"
       gradientUnits="userSpaceOnUse"
       id="linearGradient3236"
       xlink:href="#linearGradient4006"
       inkscape:collect="always" />
    <linearGradient
       inkscape:collect="always"
       xlink:href="#linearGradient4011"
       id="linearGradient4017"
       x1="-27"
       y1="13"
       x2="-24"
       y2="13"
       gradientUnits="userSpaceOnUse" />
    <linearGradient
       id="linearGradient4011">
      <stop
         style="stop-color:#4f4f4f;stop-opacity:1;"
         offset="0"
         id="stop4013" />
      <stop
         style="stop-color:#595959;stop-opacity:1;"
         offset="1"
         id="stop4015" />
    </linearGradient>
    <linearGradient
       y2="13"
       x2="-24"
       y1="13"
       x1="-27"
       gradientUnits="userSpaceOnUse"
       id="linearGradient3252"
       xlink:href="#linearGradient4011"
       inkscape:collect="always" />
    <linearGradient
       inkscape:collect="always"
       xlink:href="#linearGradient3979"
       id="linearGradient4017-0"
       x1="-27"
       y1="13"
       x2="-24"
       y2="13"
       gradientUnits="userSpaceOnUse" />
    <linearGradient
       id="linearGradient3979">
      <stop
         style="stop-color:#00b6c0;stop-opacity:1;"
         offset="0"
         id="stop3981" />
      <stop
         style="stop-color:#00c9d4;stop-opacity:1;"
         offset="1"
         id="stop3983" />
    </linearGradient>
    <linearGradient
       y2="13"
       x2="-24"
       y1="13"
       x1="-27"
       gradientUnits="userSpaceOnUse"
       id="linearGradient3240"
       xlink:href="#linearGradient3979"
       inkscape:collect="always" />
  </defs>
  <g
     id="g14"
     transform="translate(0,-1004.3622)" />
  <g
     inkscape:groupmode="layer"
     id="layer2"
     inkscape:label="Shadow"
     sodipodi:insensitive="true">
    <path
       style="opacity:0.02000002;fill:#000000;fill-opacity:1"
       d="M 5,2 C 2.784,2 1,3.784 1,6 l 0,37.25 c 0,2.216 1.784,4 4,4 l 38,0 c 2.216,0 4,-1.784 4,-4 L 47,6 C 47,3.784 45.216,2 43,2 L 5,2 z M 1,43.5 1,44 c 0,2.216 1.784,4 4,4 l 38,0 c 2.216,0 4,-1.784 4,-4 l 0,-0.5 c 0,2.216 -1.784,4 -4,4 l -38,0 c -2.216,0 -4,-1.784 -4,-4 z"
       id="rect3790"
       inkscape:connector-curvature="0" />
    <path
       style="opacity:0.05;fill:#000000;fill-opacity:1"
       d="m 1,43.25 0,0.25 c 0,2.216 1.784,4 4,4 l 38,0 c 2.216,0 4,-1.784 4,-4 l 0,-0.25 c 0,2.216 -1.784,4 -4,4 l -38,0 c -2.216,0 -4,-1.784 -4,-4 z"
       id="rect3788"
       inkscape:connector-curvature="0" />
    <rect
       ry="4"
       width="46"
       height="46"
       x="1"
       y="1.25"
       rx="4"
       id="rect3768"
       style="opacity:0.1;fill:#000000;fill-opacity:1" />
  </g>
  <g
     inkscape:groupmode="layer"
     id="layer1"
     inkscape:label="Base">
    <rect
       style="fill:url(#linearGradient3804);fill-opacity:1.0"
       id="rect28"
       rx="4"
       y="1"
       x="1"
       height="46"
       width="46"
       ry="4" />
    <path
       style="fill:#000000;fill-opacity:1;opacity:0.1"
       d="M 1 39 L 1 43 C 1 45.216 2.784 47 5 47 L 43 47 C 45.216 47 47 45.216 47 43 L 47 39 C 47 41.216 45.216 43 43 43 L 5 43 C 2.784 43 1 41.216 1 39 z "
       id="rect3812" />
  </g>
  <g
     inkscape:groupmode="layer"
     id="layer3"
     inkscape:label="Symbol">
    <path
       style="fill:#000000;fill-opacity:0.10196078;stroke:#000000;stroke-width:2.00178671;stroke-opacity:0.10196078"
       inkscape:connector-curvature="0"
       d="m 38.000894,24.004397 a 14.000001,14.000001 0 0 1 -28,0 14.000001,14.000001 0 1 1 28,0 z"
       id="path4013" />
    <g
       transform="matrix(3.543307,0,0,3.543307,8.9229761e-4,-0.99560225)"
       id="g76">
      <path
         style="fill:#f9f9f9"
         inkscape:connector-curvature="0"
         d="m 7.9962973,6.7733329 c 0,-0.3375888 -0.11943,-0.6258132 -0.35829,-0.8646732 -0.23886,-0.23886 -0.5270844,-0.35829 -0.8646732,-0.35829 -0.3375888,0 -0.6258132,0.11943 -0.8646732,0.35829 -0.23886,0.23886 -0.35829,0.5270844 -0.35829,0.8646732 0,0.3375888 0.11943,0.6258132 0.35829,0.8646732 0.23886,0.23886 0.5270844,0.35829 0.8646732,0.35829 0.3375888,0 0.6258132,-0.11943 0.8646732,-0.35829 0.23886,-0.23886 0.35829,-0.5270844 0.35829,-0.8646732 z m 2.4459267,-0.5207148 0,1.0605384 c 0,0.038217 -0.01274,0.074842 -0.03822,0.1098756 -0.02548,0.035033 -0.05733,0.055734 -0.09554,0.062104 L 9.4246801,7.6188973 c -0.060511,0.1719792 -0.1226149,0.3168876 -0.1863108,0.4347252 0.111468,0.15924 0.2818548,0.3789912 0.5111604,0.6592536 0.031848,0.038217 0.047772,0.078027 0.047772,0.11943 0,0.041403 -0.014332,0.078028 -0.042995,0.1098756 -0.08599,0.1178376 -0.2436372,0.2898168 -0.4729428,0.5159376 -0.2293056,0.2261208 -0.3789912,0.3391812 -0.4490568,0.3391812 -0.038217,0 -0.07962,-0.014332 -0.1242072,-0.042995 L 8.0488465,9.2383681 c -0.1401312,0.07325 -0.2850396,0.1337616 -0.4347252,0.1815336 -0.050957,0.4331329 -0.097136,0.7293193 -0.1385388,0.8885593 -0.022294,0.08918 -0.07962,0.133762 -0.1719792,0.133762 l -1.0605384,0 c -0.044587,0 -0.083601,-0.01354 -0.1170414,-0.04061 -0.033441,-0.02707 -0.051753,-0.06131 -0.054938,-0.102709 L 5.9373241,9.4199017 C 5.7812689,9.3689449 5.6379529,9.3100261 5.5073761,9.2431453 L 4.8337909,9.7543057 c -0.031848,0.028663 -0.071658,0.042995 -0.11943,0.042995 -0.044587,0 -0.084397,-0.017516 -0.11943,-0.052549 C 4.1364712,9.5955558 3.7757111,9.3133336 3.8066929,8.9421821 c -0.022293,-0.031848 -0.03344,-0.068473 -0.03344,-0.1098756 0,-0.038217 0.012739,-0.074842 0.038218,-0.1098756 C 3.8592424,8.6555498 3.9404545,8.5496551 4.0551073,8.4047467 4.1697601,8.2598383 4.2557497,8.1475741 4.3130761,8.0679541 4.2270865,7.9087141 4.1617981,7.7510665 4.1172109,7.5950113 L 3.2429833,7.4660269 c -0.041402,-0.00637 -0.074843,-0.026275 -0.1003212,-0.059715 -0.025478,-0.03344 -0.038218,-0.070862 -0.038218,-0.1122642 l 0,-1.0605384 c 0,-0.038217 0.012739,-0.074842 0.038218,-0.1098756 0.025479,-0.035033 0.055734,-0.055734 0.090767,-0.062104 L 4.1219881,5.9277685 C 4.1665753,5.7812677 4.2286789,5.6347669 4.3082989,5.4882661 4.1809069,5.3067325 4.0105201,5.0869813 3.7971385,4.8290125 3.7652905,4.7907949 3.7493665,4.7525773 3.7493665,4.7143597 c 0,-0.031848 0.014332,-0.068473 0.042995,-0.1098756 0.082805,-0.1146528 0.2396562,-0.2858358 0.4705542,-0.513549 0.230898,-0.2277132 0.3813798,-0.3415698 0.4514454,-0.3415698 0.041403,0 0.082805,0.015924 0.1242072,0.047772 L 5.4978217,4.3082977 C 5.6379529,4.2350473 5.7828613,4.1745361 5.9325469,4.1267641 5.9835037,3.6936313 6.0296833,3.3974449 6.0710857,3.2382049 6.0933793,3.1490305 6.1507057,3.1044433 6.2430649,3.1044433 l 1.0605384,0 c 0.044587,0 0.083601,0.013535 0.1170414,0.040606 0.033441,0.027071 0.051753,0.061307 0.054938,0.1027098 l 0.1337616,0.8790048 c 0.1560552,0.050957 0.2993712,0.1098755 0.429948,0.1767564 L 8.7176545,3.7923601 c 0.028663,-0.028663 0.066881,-0.042995 0.1146528,-0.042995 0.041403,0 0.081213,0.015924 0.11943,0.047772 0.4925176,0.2646414 0.8042707,0.6006921 0.788238,0.812124 0.022293,0.025479 0.03344,0.060511 0.03344,0.1050984 0,0.038217 -0.012739,0.074843 -0.038218,0.1098756 -0.047772,0.066881 -0.1289844,0.1727754 -0.2436372,0.3176838 -0.1146528,0.1449084 -0.2006424,0.2571726 -0.2579688,0.3367926 0.082805,0.15924 0.1480932,0.3152952 0.1958652,0.4681656 l 0.8742275,0.1337616 c 0.0414,0.00637 0.07484,0.026272 0.100321,0.059715 0.02548,0.033441 0.03822,0.070862 0.03822,0.1122644 z"
         id="path78" />
      <path
         style="fill:none;stroke:#f9f9f9;stroke-width:0.53500003"
         inkscape:connector-curvature="0"
         d="m -5,19.5 a 4,3.5 0 1 1 -8,0 4,3.5 0 1 1 8,0 z"
         transform="matrix(0.9877778,0,0,1.1288889,15.663334,-15.24)"
         id="path80" />
    </g>
  </g>
</svg>
