<svg viewBox="0 0 48 48" xmlns:xlink="http://www.w3.org/1999/xlink">
 <defs>
  <linearGradient id="0">
   <stop stop-opacity="0"/>
   <stop offset="1"/>
  </linearGradient>
  <linearGradient xlink:href="#0" id="1" gradientUnits="userSpaceOnUse" gradientTransform="translate(4e-7,-48)" y1="47" x2="0" y2="1"/>
  <clipPath id="2">
   <g transform="translate(0,-1004.3622)">
    <rect rx="4" y="1005.36" x="1" height="46" width="46" fill="#1890d0"/>
   </g>
  </clipPath>
  <clipPath id="3">
   <g transform="translate(0,-1004.3622)">
    <rect rx="4" y="1005.36" x="1" height="46" width="46" fill="#1890d0"/>
   </g>
  </clipPath>
 </defs>
 <g>
  <g transform="translate(0,-1004.3622)">
   <path d="m 5,1006.3622 c -2.216,0 -4,1.784 -4,4 l 0,37.25 c 0,2.216 1.784,4 4,4 l 38,0 c 2.216,0 4,-1.784 4,-4 l 0,-37.25 c 0,-2.216 -1.784,-4 -4,-4 l -38,0 z m -4,41.5 0,0.5 c 0,2.216 1.784,4 4,4 l 38,0 c 2.216,0 4,-1.784 4,-4 l 0,-0.5 c 0,2.216 -1.784,4 -4,4 l -38,0 c -2.216,0 -4,-1.784 -4,-4 z" opacity="0.02"/>
   <path d="m 1,1047.6122 0,0.25 c 0,2.216 1.784,4 4,4 l 38,0 c 2.216,0 4,-1.784 4,-4 l 0,-0.25 c 0,2.216 -1.784,4 -4,4 l -38,0 c -2.216,0 -4,-1.784 -4,-4 z" opacity="0.05"/>
   <rect width="46" height="46" x="1" y="1005.61" rx="4" opacity="0.1"/>
  </g>
 </g>
 <g>
  <g transform="translate(0,-1004.3622)">
   <rect rx="4" y="1005.36" x="1" height="46" width="46" fill="#129ae6"/>
  </g>
 </g>
 <g>
  <rect transform="scale(1,-1)" width="46" height="46" x="1" y="-46.998" rx="4" opacity="0.1" fill="url(#1)"/>
 </g>
 <g>
  <g clip-path="url(#2)">
   <g opacity="0.1">
    <g>
     <path d="M 17.976562 14.226562 C 11.28125 17.707031 9.9375 26.753906 15.347656 31.910156 C 18.457031 34.875 22.636719 35.753906 26.980469 34.34375 C 31.140625 32.996094 34 28.796875 34 24.492188 C 34 22.839844 34.183594 22.359375 35.648438 21.902344 C 37 21.484375 38 20.007812 38 19 C 35.480469 19.113281 31 17 29 14.5 L 29 19.5 C 29 24.847656 28.089844 26.03125 25.972656 27.527344 C 24.265625 28.734375 21.160156 28.949219 19.628906 27.96875 C 17.285156 26.472656 17.308594 23.613281 19.683594 21.191406 C 21.9375 19.402344 23.578125 19.285156 26 19.449219 L 26 13.414062 C 23.390625 12.644531 20.320312 13.054688 17.976562 14.226562 Z M 17.976562 14.226562 "/>
    </g>
   </g>
  </g>
 </g>
 <g>
  <g clip-path="url(#3)">
   <g transform="translate(0,-1)">
    <g>
     <path d="M 17.976562 14.226562 C 11.28125 17.707031 9.9375 26.753906 15.347656 31.910156 C 18.457031 34.875 22.636719 35.753906 26.980469 34.34375 C 31.140625 32.996094 34 28.796875 34 24.492188 C 34 22.839844 34.183594 22.359375 35.648438 21.902344 C 37 21.484375 38 20.007812 38 19 C 35.480469 19.113281 31 17 29 14.5 L 29 19.5 C 29 24.847656 28.089844 26.03125 25.972656 27.527344 C 24.265625 28.734375 21.160156 28.949219 19.628906 27.96875 C 17.285156 26.472656 17.308594 23.613281 19.683594 21.191406 C 21.9375 19.402344 23.578125 19.285156 26 19.449219 L 26 13.414062 C 23.390625 12.644531 20.320312 13.054688 17.976562 14.226562 Z M 17.976562 14.226562 " fill="#f9f9f9"/>
    </g>
   </g>
  </g>
 </g>
 <g>
  <g transform="translate(0,-1004.3622)">
   <path d="m 1,1043.3622 0,4 c 0,2.216 1.784,4 4,4 l 38,0 c 2.216,0 4,-1.784 4,-4 l 0,-4 c 0,2.216 -1.784,4 -4,4 l -38,0 c -2.216,0 -4,-1.784 -4,-4 z" opacity="0.1"/>
  </g>
 </g>
</svg>
