<svg viewBox="0 0 48 48" xmlns:xlink="http://www.w3.org/1999/xlink">
 <defs>
  <linearGradient id="0">
   <stop stop-opacity="0"/>
   <stop offset="1"/>
  </linearGradient>
  <linearGradient xlink:href="#0" id="1" gradientUnits="userSpaceOnUse" gradientTransform="translate(4e-7,-48)" y1="47" x2="0" y2="1"/>
  <clipPath id="2">
   <g transform="translate(0,-1004.3622)">
    <rect rx="4" y="1005.36" x="1" height="46" width="46" fill="#1890d0"/>
   </g>
  </clipPath>
  <clipPath id="3">
   <g transform="translate(0,-1004.3622)">
    <rect rx="4" y="1005.36" x="1" height="46" width="46" fill="#1890d0"/>
   </g>
  </clipPath>
 </defs>
 <g>
  <g transform="translate(0,-1004.3622)">
   <path d="m 5,1006.3622 c -2.216,0 -4,1.784 -4,4 l 0,37.25 c 0,2.216 1.784,4 4,4 l 38,0 c 2.216,0 4,-1.784 4,-4 l 0,-37.25 c 0,-2.216 -1.784,-4 -4,-4 l -38,0 z m -4,41.5 0,0.5 c 0,2.216 1.784,4 4,4 l 38,0 c 2.216,0 4,-1.784 4,-4 l 0,-0.5 c 0,2.216 -1.784,4 -4,4 l -38,0 c -2.216,0 -4,-1.784 -4,-4 z" opacity="0.02"/>
   <path d="m 1,1047.6122 0,0.25 c 0,2.216 1.784,4 4,4 l 38,0 c 2.216,0 4,-1.784 4,-4 l 0,-0.25 c 0,2.216 -1.784,4 -4,4 l -38,0 c -2.216,0 -4,-1.784 -4,-4 z" opacity="0.05"/>
   <rect width="46" height="46" x="1" y="1005.61" rx="4" opacity="0.1"/>
  </g>
 </g>
 <g>
  <g transform="translate(0,-1004.3622)">
   <rect rx="4" y="1005.36" x="1" height="46" width="46" fill="#3993b1"/>
  </g>
 </g>
 <g>
  <rect transform="scale(1,-1)" width="46" height="46" x="1" y="-46.998" rx="4" opacity="0.1" fill="url(#1)"/>
 </g>
 <g>
  <g clip-path="url(#2)">
   <g opacity="0.1">
    <g>
     <path d="M 27 12 C 23.941406 12 21.324219 13.84375 20.15625 16.46875 C 19.695312 16.179688 19.179688 16 18.59375 16 C 16.9375 16 15.59375 17.34375 15.59375 19 C 15.59375 19.5 15.71875 19.960938 15.9375 20.375 C 13.640625 21.214844 12 23.410156 12 26 C 12 29.3125 14.6875 32 18 32 L 19 32 L 19 36 L 23 32 L 31 32 C 33.761719 32 36 29.761719 36 27 C 36 25.25 35.082031 23.707031 33.71875 22.8125 C 34.214844 21.808594 34.5 20.695312 34.5 19.5 C 34.5 15.359375 31.140625 12 27 12 Z M 20.15625 20 C 20.332031 20 20.609375 19.988281 21 20 L 21.875 20 L 24 24.59375 L 26.09375 20 L 27.78125 20 C 28.121094 20 28.367188 20.0625 28.5 20.15625 C 28.707031 20.332031 28.8125 20.535156 28.8125 20.78125 C 28.8125 21.242188 28.535156 21.511719 28 21.5625 L 28 27.46875 C 28.625 27.46875 28.9375 27.703125 28.9375 28.21875 C 28.9375 28.496094 28.808594 28.742188 28.5625 28.90625 C 28.4375 28.976562 28.246094 29 27.9375 29 L 25.9375 29 C 25.257812 29 24.90625 28.734375 24.90625 28.21875 C 24.90625 27.921875 25.035156 27.707031 25.28125 27.5625 C 25.394531 27.492188 25.617188 27.46875 25.9375 27.46875 L 26.46875 27.46875 L 26.46875 23 L 24.75 26.875 L 23.34375 26.875 L 21.53125 23 L 21.53125 27.46875 L 22.0625 27.46875 C 22.390625 27.46875 22.636719 27.5 22.78125 27.59375 C 22.988281 27.746094 23.09375 27.953125 23.09375 28.21875 C 23.09375 28.496094 22.964844 28.742188 22.71875 28.90625 C 22.59375 28.976562 22.371094 29 22.0625 29 L 20.09375 29 C 19.753906 29 19.507812 28.945312 19.375 28.84375 C 19.160156 28.691406 19.0625 28.476562 19.0625 28.21875 C 19.0625 27.703125 19.375 27.46875 20 27.46875 L 20 21.5625 C 19.464844 21.511719 19.1875 21.253906 19.1875 20.78125 C 19.1875 20.503906 19.316406 20.257812 19.5625 20.09375 C 19.6875 20.023438 19.890625 20 20.15625 20 Z M 20.15625 20 "/>
    </g>
   </g>
  </g>
 </g>
 <g>
  <g clip-path="url(#3)">
   <g transform="translate(0,-1)">
    <g>
     <path d="M 27 12 C 23.941406 12 21.324219 13.84375 20.15625 16.46875 C 19.695312 16.179688 19.179688 16 18.59375 16 C 16.9375 16 15.59375 17.34375 15.59375 19 C 15.59375 19.5 15.71875 19.960938 15.9375 20.375 C 13.640625 21.214844 12 23.410156 12 26 C 12 29.3125 14.6875 32 18 32 L 19 32 L 19 36 L 23 32 L 31 32 C 33.761719 32 36 29.761719 36 27 C 36 25.25 35.082031 23.707031 33.71875 22.8125 C 34.214844 21.808594 34.5 20.695312 34.5 19.5 C 34.5 15.359375 31.140625 12 27 12 Z M 20.15625 20 C 20.332031 20 20.609375 19.988281 21 20 L 21.875 20 L 24 24.59375 L 26.09375 20 L 27.78125 20 C 28.121094 20 28.367188 20.0625 28.5 20.15625 C 28.707031 20.332031 28.8125 20.535156 28.8125 20.78125 C 28.8125 21.242188 28.535156 21.511719 28 21.5625 L 28 27.46875 C 28.625 27.46875 28.9375 27.703125 28.9375 28.21875 C 28.9375 28.496094 28.808594 28.742188 28.5625 28.90625 C 28.4375 28.976562 28.246094 29 27.9375 29 L 25.9375 29 C 25.257812 29 24.90625 28.734375 24.90625 28.21875 C 24.90625 27.921875 25.035156 27.707031 25.28125 27.5625 C 25.394531 27.492188 25.617188 27.46875 25.9375 27.46875 L 26.46875 27.46875 L 26.46875 23 L 24.75 26.875 L 23.34375 26.875 L 21.53125 23 L 21.53125 27.46875 L 22.0625 27.46875 C 22.390625 27.46875 22.636719 27.5 22.78125 27.59375 C 22.988281 27.746094 23.09375 27.953125 23.09375 28.21875 C 23.09375 28.496094 22.964844 28.742188 22.71875 28.90625 C 22.59375 28.976562 22.371094 29 22.0625 29 L 20.09375 29 C 19.753906 29 19.507812 28.945312 19.375 28.84375 C 19.160156 28.691406 19.0625 28.476562 19.0625 28.21875 C 19.0625 27.703125 19.375 27.46875 20 27.46875 L 20 21.5625 C 19.464844 21.511719 19.1875 21.253906 19.1875 20.78125 C 19.1875 20.503906 19.316406 20.257812 19.5625 20.09375 C 19.6875 20.023438 19.890625 20 20.15625 20 Z M 20.15625 20 " fill="#f9f9f9"/>
    </g>
   </g>
  </g>
 </g>
 <g>
  <g transform="translate(0,-1004.3622)">
   <path d="m 1,1043.3622 0,4 c 0,2.216 1.784,4 4,4 l 38,0 c 2.216,0 4,-1.784 4,-4 l 0,-4 c 0,2.216 -1.784,4 -4,4 l -38,0 c -2.216,0 -4,-1.784 -4,-4 z" opacity="0.1"/>
  </g>
 </g>
</svg>
