<?xml version="1.0" encoding="UTF-8" standalone="no"?>
<svg
   xmlns:dc="http://purl.org/dc/elements/1.1/"
   xmlns:cc="http://creativecommons.org/ns#"
   xmlns:rdf="http://www.w3.org/1999/02/22-rdf-syntax-ns#"
   xmlns:svg="http://www.w3.org/2000/svg"
   xmlns="http://www.w3.org/2000/svg"
   xmlns:xlink="http://www.w3.org/1999/xlink"
   xmlns:sodipodi="http://sodipodi.sourceforge.net/DTD/sodipodi-0.dtd"
   xmlns:inkscape="http://www.inkscape.org/namespaces/inkscape"
   width="48"
   viewBox="0 0 13.546667 13.546667"
   height="48"
   id="svg2"
   version="1.1"
   inkscape:version="0.48.4 r9939"
   sodipodi:docname="com_rovio_angrybirds.svg">
  <metadata
     id="metadata331">
    <rdf:RDF>
      <cc:Work
         rdf:about="">
        <dc:format>image/svg+xml</dc:format>
        <dc:type
           rdf:resource="http://purl.org/dc/dcmitype/StillImage" />
        <dc:title />
      </cc:Work>
    </rdf:RDF>
  </metadata>
  <sodipodi:namedview
     pagecolor="#ffffff"
     bordercolor="#666666"
     borderopacity="1"
     objecttolerance="10"
     gridtolerance="10"
     guidetolerance="10"
     inkscape:pageopacity="0"
     inkscape:pageshadow="2"
     inkscape:window-width="1280"
     inkscape:window-height="960"
     id="namedview329"
     showgrid="false"
     inkscape:zoom="11.313709"
     inkscape:cx="20.824625"
     inkscape:cy="16.966463"
     inkscape:window-x="0"
     inkscape:window-y="0"
     inkscape:window-maximized="1"
     inkscape:current-layer="layer2">
    <inkscape:grid
       type="xygrid"
       id="grid3308" />
  </sodipodi:namedview>
  <defs
     id="defs4">
    <linearGradient
       id="linearGradient4138">
      <stop
         style="stop-color:#3e9ade;stop-opacity:1;"
         offset="0"
         id="stop4140" />
      <stop
         style="stop-color:#2d91db;stop-opacity:1;"
         offset="1"
         id="stop4142" />
    </linearGradient>
    <linearGradient
       id="linearGradient4054">
      <stop
         style="stop-color:#108ed5;stop-opacity:1;"
         offset="0"
         id="stop4056" />
      <stop
         style="stop-color:#129ae6;stop-opacity:1;"
         offset="1"
         id="stop4058" />
    </linearGradient>
    <linearGradient
       id="linearGradient4043">
      <stop
         style="stop-color:#324f6d;stop-opacity:1;"
         offset="0"
         id="stop4045" />
      <stop
         style="stop-color:#38597c;stop-opacity:1;"
         offset="1"
         id="stop4047" />
    </linearGradient>
    <linearGradient
       id="linearGradient4027">
      <stop
         style="stop-color:#4079b0;stop-opacity:1;"
         offset="0"
         id="stop4031" />
      <stop
         style="stop-color:#4883bc;stop-opacity:1;"
         offset="1"
         id="stop4033" />
    </linearGradient>
    <linearGradient
       id="linearGradient4019">
      <stop
         style="stop-color:#dddddd;stop-opacity:1;"
         offset="0"
         id="stop4021" />
      <stop
         style="stop-color:#e7e7e7;stop-opacity:1;"
         offset="1"
         id="stop4024" />
    </linearGradient>
    <linearGradient
       id="linearGradient3999">
      <stop
         style="stop-color:#7283a0;stop-opacity:1;"
         offset="0"
         id="stop4001" />
      <stop
         style="stop-color:#7e8da8;stop-opacity:1;"
         offset="1"
         id="stop4003" />
    </linearGradient>
    <linearGradient
       id="linearGradient4026">
      <stop
         style="stop-color:#7f92b2;stop-opacity:1;"
         offset="0"
         id="stop4028" />
      <stop
         style="stop-color:#8b9cb9;stop-opacity:1;"
         offset="1"
         id="stop4030" />
    </linearGradient>
    <linearGradient
       id="linearGradient4021">
      <stop
         style="stop-color:#d66b1e;stop-opacity:1;"
         offset="0"
         id="stop4023" />
      <stop
         style="stop-color:#e17527;stop-opacity:1;"
         offset="1"
         id="stop4025" />
    </linearGradient>
    <linearGradient
       id="linearGradient4025">
      <stop
         style="stop-color:#c70103;stop-opacity:1;"
         offset="0"
         id="stop4027" />
      <stop
         style="stop-color:#db0103;stop-opacity:1;"
         offset="1"
         id="stop4029" />
    </linearGradient>
    <linearGradient
       id="linearGradient3969">
      <stop
         style="stop-color:#ab002d;stop-opacity:1;"
         offset="0"
         id="stop3971" />
      <stop
         style="stop-color:#c00033;stop-opacity:1;"
         offset="1"
         id="stop3973" />
    </linearGradient>
    <linearGradient
       id="linearGradient3944">
      <stop
         style="stop-color:#ea635d;stop-opacity:1;"
         offset="0"
         id="stop3946" />
      <stop
         style="stop-color:#f96963;stop-opacity:1;"
         offset="1"
         id="stop3948" />
    </linearGradient>
    <linearGradient
       id="0">
      <stop
         stop-color="#198ba6"
         id="stop7" />
      <stop
         offset="1"
         stop-color="#42c9e7"
         id="stop9" />
    </linearGradient>
    <clipPath
       id="clipPath11">
      <path
         d="m 489.217,197.275 c -2.603,0 -3.953,-1.367 -3.953,-3.971 l 0,0 0,-1.034 c 0,-2.604 1.35,-3.971 3.953,-3.971 l 0,0 1.035,0 c 2.62,0 3.97,1.367 3.97,3.971 l 0,0 0,1.034 c 0,2.604 -1.35,3.971 -3.97,3.971 l 0,0 -1.035,0 z"
         id="path13" />
    </clipPath>
    <linearGradient
       id="1">
      <stop
         stop-color="#620000"
         id="stop16"
         offset="0"
         style="stop-color:#f96963;stop-opacity:1;" />
      <stop
         offset="1"
         stop-color="#dd0f0f"
         id="stop18"
         style="stop-color:#f96963;stop-opacity:1;" />
    </linearGradient>
    <clipPath
       id="clipPath20">
      <rect
         y="223"
         x="307"
         height="42"
         width="42"
         transform="matrix(0,1,-1,0,0,0)"
         fill="url(#2)"
         color="#bebebe"
         rx="9"
         id="rect22" />
    </clipPath>
    <linearGradient
       xlink:href="#1"
       id="2"
       gradientUnits="userSpaceOnUse"
       gradientTransform="matrix(0.175,0,0,0.175,302.79999,215.99997)"
       y1="280"
       x2="0"
       y2="40" />
    <clipPath
       id="clipPath25">
      <rect
         y="85"
         x="433"
         height="22"
         width="22"
         fill="url(#3)"
         color="#bebebe"
         rx="4"
         id="rect27" />
    </clipPath>
    <linearGradient
       xlink:href="#1"
       id="3"
       gradientUnits="userSpaceOnUse"
       gradientTransform="matrix(0.0875,0,0,0.0875,430.9,81.499996)"
       y1="291.43"
       x2="0"
       y2="40" />
    <clipPath
       id="clipPath30">
      <rect
         width="30"
         height="30"
         x="433"
         y="37"
         fill="url(#4)"
         color="#bebebe"
         rx="6"
         id="rect32" />
    </clipPath>
    <linearGradient
       xlink:href="#1"
       id="4"
       gradientUnits="userSpaceOnUse"
       gradientTransform="matrix(0.11931818,0,0,0.11931818,430.13636,32.227267)"
       y1="291.43"
       x2="0"
       y2="40" />
    <clipPath
       id="clipPath35">
      <rect
         width="16"
         height="16"
         x="304"
         y="212"
         transform="matrix(0,1,-1,0,0,0)"
         fill="url(#5)"
         color="#bebebe"
         rx="3"
         id="rect37" />
    </clipPath>
    <linearGradient
       xlink:href="#1"
       id="5"
       gradientUnits="userSpaceOnUse"
       gradientTransform="matrix(0.06666667,0,0,0.06666667,302.4,209.33333)"
       y1="280"
       x2="0"
       y2="40" />
    <clipPath
       id="clipPath40">
      <rect
         y="46"
         x="34"
         height="220"
         width="220"
         fill="url(#6)"
         color="#bebebe"
         rx="50"
         id="rect42" />
    </clipPath>
    <linearGradient
       xlink:href="#1"
       id="6"
       gradientUnits="userSpaceOnUse"
       gradientTransform="translate(0,-4)"
       y1="280"
       x2="0"
       y2="40" />
    <clipPath
       id="clipPath45">
      <rect
         y="142"
         x="290"
         height="60"
         width="60"
         fill="url(#7)"
         color="#bebebe"
         rx="12.5"
         id="rect47" />
    </clipPath>
    <linearGradient
       xlink:href="#1"
       id="7"
       gradientUnits="userSpaceOnUse"
       y1="204"
       x2="0"
       y2="140" />
    <clipPath
       id="clipPath50">
      <rect
         width="88"
         height="88"
         x="292"
         y="32"
         fill="url(#8)"
         color="#bebebe"
         rx="18"
         id="rect52" />
    </clipPath>
    <linearGradient
       xlink:href="#1"
       id="8"
       gradientUnits="userSpaceOnUse"
       y1="124"
       x2="0"
       y2="28" />
    <clipPath
       id="clipPath55">
      <rect
         y="101"
         x="417"
         height="22"
         width="22"
         fill="url(#9)"
         color="#bebebe"
         rx="5"
         id="rect57" />
    </clipPath>
    <linearGradient
       xlink:href="#1"
       id="9"
       gradientUnits="userSpaceOnUse"
       gradientTransform="matrix(0.0875,0,0,0.0875,414.9,97.5)"
       y1="302.86"
       x2="0"
       y2="28.571" />
    <clipPath
       id="clipPath60">
      <rect
         width="30"
         height="30"
         x="417"
         y="53"
         fill="url(#A)"
         color="#bebebe"
         rx="7"
         id="rect62" />
    </clipPath>
    <linearGradient
       xlink:href="#1"
       id="A"
       gradientUnits="userSpaceOnUse"
       gradientTransform="matrix(0.11931818,0,0,0.11931818,414.13636,48.22727)"
       y1="299.81"
       x2="0"
       y2="31.619" />
    <use
       id="B"
       opacity="0.2"
       fill="#ffffff"
       xlink:href="#U" />
    <clipPath
       id="clipPath66">
      <use
         xlink:href="#B"
         transform="matrix(8,0,0,8,-2141.5757,-54.424243)"
         id="use68" />
    </clipPath>
    <clipPath
       id="clipPath70">
      <use
         xlink:href="#B"
         id="use72" />
    </clipPath>
    <use
       id="C"
       fill="none"
       xlink:href="#U" />
    <clipPath
       id="clipPath75">
      <use
         xlink:href="#C"
         id="use77" />
    </clipPath>
    <clipPath
       id="clipPath79">
      <use
         transform="matrix(8,0,0,8,-2141.5757,-54.424243)"
         xlink:href="#C"
         id="use81" />
    </clipPath>
    <use
       id="D"
       fill="none"
       xlink:href="#U" />
    <clipPath
       id="clipPath84">
      <use
         xlink:href="#D"
         id="use86" />
    </clipPath>
    <clipPath
       id="clipPath88">
      <use
         transform="matrix(8,0,0,8,-2141.5757,-54.424243)"
         xlink:href="#D"
         id="use90" />
    </clipPath>
    <use
       id="E"
       fill="none"
       xlink:href="#U" />
    <clipPath
       id="clipPath93">
      <use
         xlink:href="#E"
         id="use95" />
    </clipPath>
    <clipPath
       id="clipPath97">
      <use
         transform="matrix(8,0,0,8,-2141.5757,-54.424243)"
         xlink:href="#E"
         id="use99" />
    </clipPath>
    <use
       id="F"
       fill="none"
       xlink:href="#U" />
    <clipPath
       id="clipPath102">
      <use
         xlink:href="#F"
         id="use104" />
    </clipPath>
    <clipPath
       id="clipPath106">
      <use
         transform="matrix(8,0,0,8,-2141.5757,-54.424243)"
         xlink:href="#F"
         id="use108" />
    </clipPath>
    <use
       id="G"
       fill="none"
       xlink:href="#U" />
    <clipPath
       id="clipPath111">
      <use
         xlink:href="#G"
         id="use113" />
    </clipPath>
    <clipPath
       id="clipPath115">
      <use
         transform="matrix(8,0,0,8,-2141.5757,-54.424243)"
         xlink:href="#G"
         id="use117" />
    </clipPath>
    <use
       id="H"
       fill="none"
       xlink:href="#U" />
    <clipPath
       id="clipPath120">
      <use
         xlink:href="#H"
         id="use122" />
    </clipPath>
    <clipPath
       id="clipPath124">
      <use
         transform="matrix(8,0,0,8,-2141.5757,-54.424243)"
         xlink:href="#H"
         id="use126" />
    </clipPath>
    <use
       id="I"
       fill="none"
       xlink:href="#U" />
    <clipPath
       id="clipPath129">
      <use
         xlink:href="#I"
         id="use131" />
    </clipPath>
    <clipPath
       id="clipPath133">
      <rect
         y="223"
         x="307"
         height="42"
         width="42"
         transform="matrix(0,1,-1,0,0,0)"
         fill="url(#2)"
         color="#bebebe"
         rx="9"
         id="rect135" />
    </clipPath>
    <clipPath
       id="clipPath137">
      <rect
         y="85"
         x="433"
         height="22"
         width="22"
         fill="url(#3)"
         color="#bebebe"
         rx="4"
         id="rect139" />
    </clipPath>
    <clipPath
       id="clipPath141">
      <rect
         width="30"
         height="30"
         x="433"
         y="37"
         fill="url(#4)"
         color="#bebebe"
         rx="6"
         id="rect143" />
    </clipPath>
    <clipPath
       id="clipPath145">
      <rect
         width="16"
         height="16"
         x="304"
         y="212"
         transform="matrix(0,1,-1,0,0,0)"
         fill="url(#5)"
         color="#bebebe"
         rx="3"
         id="rect147" />
    </clipPath>
    <clipPath
       id="clipPath149">
      <rect
         y="46"
         x="34"
         height="220"
         width="220"
         fill="url(#6)"
         color="#bebebe"
         rx="50"
         id="rect151" />
    </clipPath>
    <clipPath
       id="clipPath153">
      <rect
         y="142"
         x="290"
         height="60"
         width="60"
         fill="url(#7)"
         color="#bebebe"
         rx="12.5"
         id="rect155" />
    </clipPath>
    <clipPath
       id="clipPath157">
      <rect
         width="88"
         height="88"
         x="292"
         y="32"
         fill="url(#8)"
         color="#bebebe"
         rx="18"
         id="rect159" />
    </clipPath>
    <clipPath
       id="clipPath161">
      <rect
         y="101"
         x="417"
         height="22"
         width="22"
         fill="url(#9)"
         color="#bebebe"
         rx="5"
         id="rect163" />
    </clipPath>
    <clipPath
       id="clipPath165">
      <rect
         width="30"
         height="30"
         x="417"
         y="53"
         fill="url(#A)"
         color="#bebebe"
         rx="7"
         id="rect167" />
    </clipPath>
    <clipPath
       id="clipPath169">
      <use
         transform="matrix(8,0,0,8,-2141.5757,-54.424243)"
         xlink:href="#I"
         id="use171" />
    </clipPath>
    <use
       id="J"
       fill="none"
       xlink:href="#U" />
    <clipPath
       id="clipPath174">
      <use
         xlink:href="#J"
         id="use176" />
    </clipPath>
    <clipPath
       id="clipPath178">
      <use
         transform="matrix(8,0,0,8,-2141.5757,-54.424243)"
         xlink:href="#J"
         id="use180" />
    </clipPath>
    <use
       id="K"
       fill="none"
       xlink:href="#U" />
    <clipPath
       id="clipPath183">
      <use
         xlink:href="#K"
         id="use185" />
    </clipPath>
    <clipPath
       id="clipPath187">
      <use
         transform="matrix(8,0,0,8,-2141.5757,-54.424243)"
         xlink:href="#K"
         id="use189" />
    </clipPath>
    <use
       id="L"
       fill="none"
       xlink:href="#U" />
    <clipPath
       id="clipPath192">
      <use
         xlink:href="#L"
         id="use194" />
    </clipPath>
    <clipPath
       id="clipPath196">
      <use
         transform="matrix(8,0,0,8,-2141.5757,-54.424243)"
         xlink:href="#L"
         id="use198" />
    </clipPath>
    <use
       id="M"
       fill="none"
       xlink:href="#U" />
    <clipPath
       id="clipPath201">
      <use
         xlink:href="#M"
         id="use203" />
    </clipPath>
    <clipPath
       id="clipPath205">
      <use
         transform="matrix(8,0,0,8,-2141.5757,-54.424243)"
         xlink:href="#M"
         id="use207" />
    </clipPath>
    <use
       id="N"
       fill="none"
       xlink:href="#U" />
    <clipPath
       id="clipPath210">
      <use
         xlink:href="#N"
         id="use212" />
    </clipPath>
    <clipPath
       id="clipPath214">
      <use
         transform="matrix(8,0,0,8,-2141.5757,-54.424243)"
         xlink:href="#N"
         id="use216" />
    </clipPath>
    <use
       id="O"
       fill="none"
       xlink:href="#U" />
    <clipPath
       id="clipPath219">
      <use
         xlink:href="#O"
         id="use221" />
    </clipPath>
    <clipPath
       id="clipPath223">
      <use
         transform="matrix(8,0,0,8,-2141.5757,-54.424243)"
         xlink:href="#O"
         id="use225" />
    </clipPath>
    <clipPath
       id="clipPath227">
      <path
         d="m 296,26 a 10,10 0 1 1 -20,0 10,10 0 1 1 20,0 z"
         id="path229" />
    </clipPath>
    <linearGradient
       gradientUnits="userSpaceOnUse"
       x2="0"
       y2="40"
       y1="280"
       xlink:href="#Q"
       id="P"
       gradientTransform="matrix(.175 0 0 .175 302.79999 215.99997)" />
    <linearGradient
       id="Q">
      <stop
         stop-color="#151515"
         id="stop233" />
      <stop
         offset="1"
         stop-color="#222"
         id="stop235" />
    </linearGradient>
    <linearGradient
       gradientUnits="userSpaceOnUse"
       x2="0"
       y2="90"
       y1="230"
       xlink:href="#Q"
       id="R"
       gradientTransform="matrix(.375 0 0 .375 298 16)" />
    <linearGradient
       gradientUnits="userSpaceOnUse"
       x2="0"
       y2="90"
       y1="230"
       xlink:href="#Q"
       id="S"
       gradientTransform="matrix(.25 0 0 .25 299.99999 131.99999)" />
    <clipPath
       id="clipPath239">
      <rect
         height="20"
         rx="4"
         y="78"
         x="434"
         width="20"
         color="#bebebe"
         id="rect241" />
    </clipPath>
    <clipPath
       id="clipPath243">
      <rect
         height="22"
         rx="4"
         y="77"
         x="433"
         width="22"
         color="#bebebe"
         id="rect245" />
    </clipPath>
    <clipPath
       id="clipPath247">
      <rect
         height="22"
         rx="5"
         y="77"
         x="433"
         width="22"
         color="#bebebe"
         id="rect249" />
    </clipPath>
    <clipPath
       id="clipPath251">
      <rect
         height="30"
         rx="6"
         y="29"
         x="433"
         width="30"
         color="#bebebe"
         id="rect253" />
    </clipPath>
    <clipPath
       id="clipPath255">
      <rect
         transform="matrix(0 -1 1 0 0 0)"
         height="60"
         rx="12.5"
         y="142"
         x="306"
         width="60"
         fill="url(#S)"
         color="#bebebe"
         id="rect257" />
    </clipPath>
    <clipPath
       id="clipPath259">
      <rect
         height="90"
         rx="18.75"
         y="31"
         x="307"
         width="90"
         fill="url(#R)"
         color="#bebebe"
         id="rect261" />
    </clipPath>
    <clipPath
       id="clipPath263">
      <rect
         height="30"
         rx="4"
         y="29"
         x="433"
         width="30"
         opacity="0.2"
         fill="#6d6d6d"
         color="#bebebe"
         id="rect265" />
    </clipPath>
    <clipPath
       id="clipPath267">
      <rect
         height="22"
         rx="3"
         y="77"
         x="433"
         width="22"
         opacity="0.2"
         fill="#6d6d6d"
         color="#bebebe"
         id="rect269" />
    </clipPath>
    <clipPath
       id="clipPath271">
      <path
         d="m 144,70 c -49.705627,0 -90,40.29437 -90,90 0,49.70563 40.294373,90 90,90 49.70563,0 90,-40.29437 90,-90 0,-49.70563 -40.29437,-90 -90,-90 z m 0,32.1875 c 32.03251,0 58,25.96748 58,58 0,32.03252 -25.96749,58 -58,58 -32.03251,0 -58,-25.96748 -58,-58 0,-32.03252 25.96749,-58 58,-58 z"
         id="path273" />
    </clipPath>
    <clipPath
       id="clipPath275">
      <path
         d="m 152,204 a 8,8 0 1 1 -16,0 8,8 0 1 1 16,0 z"
         id="path277" />
    </clipPath>
    <clipPath
       id="clipPath279">
      <rect
         height="16"
         rx="3"
         y="116"
         x="432"
         width="16"
         color="#bebebe"
         id="rect281" />
    </clipPath>
    <clipPath
       id="clipPath283">
      <path
         d="m 145,215 c 33.13708,0 60,-26.86292 60,-60 0,-33.13708 -26.86292,-60 -60,-60 -33.13708,0 -60,26.86292 -60,60 0,12.50698 3.8285,24.10633 10.375,33.71875 L 89,211 111.28125,204.625 C 120.89367,211.1715 132.49302,215 145,215 z"
         id="path285" />
    </clipPath>
    <clipPath
       id="clipPath287">
      <path
         d="m 98.03125,23.191212 c -41.492132,1.05238 -74.84375,35.06824 -74.84375,76.812498 0,42.40687 34.405632,76.8125 76.8125,76.8125 42.40687,0 76.8125,-34.40563 76.8125,-76.8125 0,-42.406866 -34.40563,-76.812498 -76.8125,-76.812498 -0.662607,0 -1.310145,-0.0167 -1.96875,0 z M 100,50.659962 c 27.24464,0 49.34375,22.099114 49.34375,49.343748 -1e-5,27.24464 -22.09911,49.34375 -49.34375,49.34375 -27.244636,-1e-5 -49.34375,-22.09911 -49.34375,-49.34375 0,-27.244634 22.099114,-49.343748 49.34375,-49.343748 z"
         id="path289" />
    </clipPath>
    <clipPath
       id="clipPath291">
      <rect
         height="16"
         rx="2"
         y="116"
         x="432"
         width="16"
         opacity="0.2"
         fill="#6d6d6d"
         color="#bebebe"
         id="rect293" />
    </clipPath>
    <clipPath
       id="clipPath295">
      <rect
         height="240"
         rx="50"
         y="36"
         x="24"
         width="240"
         fill="#986767"
         color="#bebebe"
         id="rect297" />
    </clipPath>
    <clipPath
       id="clipPath299">
      <rect
         transform="rotate(90)"
         height="42"
         rx="9"
         y="223"
         x="307"
         width="42"
         fill="url(#P)"
         color="#bebebe"
         id="rect301" />
    </clipPath>
    <linearGradient
       xlink:href="#0"
       id="T"
       gradientUnits="userSpaceOnUse"
       gradientTransform="matrix(1.210546,0,0,1.212299,-131.34805,-325.07347)"
       y1="279.1"
       x2="0"
       y2="268.33" />
    <path
       id="U"
       d="m 296,26 a 10,10 0 1 1 -20,0 10,10 0 1 1 20,0 z"
       color="#000000" />
    <linearGradient
       xlink:href="#W"
       id="V"
       y1="46.752"
       x2="0"
       y2="-24.433"
       gradientUnits="userSpaceOnUse" />
    <linearGradient
       id="W">
      <stop
         stop-color="#c7c7c7"
         id="stop307" />
      <stop
         offset="1"
         stop-color="#dedede"
         id="stop309" />
    </linearGradient>
    <linearGradient
       inkscape:collect="always"
       xlink:href="#W"
       id="linearGradient3312"
       gradientUnits="userSpaceOnUse"
       y1="46.752"
       x2="0"
       y2="-24.433"
       gradientTransform="matrix(0.23630483,0,0,0.18633729,-11.350379,4.8349746)" />
    <linearGradient
       inkscape:collect="always"
       xlink:href="#W-1"
       id="linearGradient3312-3"
       gradientUnits="userSpaceOnUse"
       y1="46.751999"
       x2="0"
       y2="-24.433001"
       gradientTransform="matrix(0.23630483,0,0,0.18633729,-11.350379,4.8349746)" />
    <linearGradient
       id="W-1">
      <stop
         stop-color="#c7c7c7"
         id="stop307-9" />
      <stop
         offset="1"
         stop-color="#dedede"
         id="stop309-6" />
    </linearGradient>
    <linearGradient
       inkscape:collect="always"
       xlink:href="#1"
       id="linearGradient3938"
       x1="7.0555558"
       y1="13.264444"
       x2="6.7733335"
       y2="0.28222224"
       gradientUnits="userSpaceOnUse" />
    <linearGradient
       inkscape:collect="always"
       xlink:href="#linearGradient3944"
       id="linearGradient3990"
       gradientUnits="userSpaceOnUse"
       x1="-25.499998"
       y1="15"
       x2="-25.499998"
       y2="11" />
    <linearGradient
       inkscape:collect="always"
       xlink:href="#linearGradient3944"
       id="linearGradient3992"
       gradientUnits="userSpaceOnUse"
       x1="-25.499998"
       y1="15"
       x2="-25.499998"
       y2="11"
       gradientTransform="matrix(15.333333,0,0,11.5,414.99998,-125.5)" />
    <linearGradient
       inkscape:collect="always"
       xlink:href="#linearGradient3944"
       id="linearGradient4001"
       gradientUnits="userSpaceOnUse"
       x1="-25.499998"
       y1="15"
       x2="-25.499998"
       y2="11" />
    <linearGradient
       inkscape:collect="always"
       xlink:href="#linearGradient3944"
       id="linearGradient4008"
       gradientUnits="userSpaceOnUse"
       x1="-25.499998"
       y1="15"
       x2="-25.499998"
       y2="11" />
    <linearGradient
       inkscape:collect="always"
       xlink:href="#linearGradient3944"
       id="linearGradient4013"
       gradientUnits="userSpaceOnUse"
       x1="-25.499998"
       y1="15"
       x2="-25.499998"
       y2="11" />
    <linearGradient
       inkscape:collect="always"
       xlink:href="#linearGradient3944"
       id="linearGradient4015"
       gradientUnits="userSpaceOnUse"
       x1="-25.499998"
       y1="15"
       x2="-25.499998"
       y2="11"
       gradientTransform="matrix(15.333333,0,0,11.5,414.99998,-125.5)" />
    <linearGradient
       inkscape:collect="always"
       xlink:href="#linearGradient3944"
       id="linearGradient4022"
       gradientUnits="userSpaceOnUse"
       x1="-25.499998"
       y1="15"
       x2="-25.499998"
       y2="11" />
    <linearGradient
       inkscape:collect="always"
       xlink:href="#linearGradient3944"
       id="linearGradient4024"
       gradientUnits="userSpaceOnUse"
       x1="-25.499998"
       y1="15"
       x2="-25.499998"
       y2="11"
       gradientTransform="matrix(15.333333,0,0,11.5,414.99998,-125.5)" />
    <linearGradient
       inkscape:collect="always"
       xlink:href="#linearGradient3944"
       id="linearGradient4031"
       gradientUnits="userSpaceOnUse"
       x1="-25.499998"
       y1="15"
       x2="-25.499998"
       y2="11" />
    <linearGradient
       inkscape:collect="always"
       xlink:href="#linearGradient3944"
       id="linearGradient4036"
       gradientUnits="userSpaceOnUse"
       x1="-25.499998"
       y1="15"
       x2="-25.499998"
       y2="11" />
    <linearGradient
       inkscape:collect="always"
       xlink:href="#linearGradient3798"
       id="linearGradient3804"
       x1="24"
       y1="47"
       x2="24"
       y2="1"
       gradientUnits="userSpaceOnUse" />
    <linearGradient
       id="linearGradient3798">
      <stop
         style="stop-color:#4c8ef2;stop-opacity:1;"
         offset="0"
         id="stop3800" />
      <stop
         style="stop-color:#5f9af3;stop-opacity:1;"
         offset="1"
         id="stop3802" />
    </linearGradient>
    <linearGradient
       gradientTransform="matrix(0.28222223,0,0,0.28222223,-17.273782,1.5813356)"
       y2="1"
       x2="24"
       y1="47"
       x1="24"
       gradientUnits="userSpaceOnUse"
       id="linearGradient3258"
       xlink:href="#linearGradient3798"
       inkscape:collect="always" />
    <linearGradient
       inkscape:collect="always"
       xlink:href="#1-4"
       id="linearGradient3017"
       gradientUnits="userSpaceOnUse"
       gradientTransform="matrix(1.10525,0,0,1.10525,-134.27875,-295.76183)"
       y1="279.10001"
       x2="0"
       y2="268.32999" />
    <linearGradient
       id="1-4">
      <stop
         stop-color="#3c8610"
         id="stop8" />
      <stop
         offset="1"
         stop-color="#54bc16"
         id="stop10" />
    </linearGradient>
    <linearGradient
       y2="268.32999"
       x2="0"
       y1="279.10001"
       gradientTransform="matrix(1.10525,0,0,1.10525,-150.51013,-295.46474)"
       gradientUnits="userSpaceOnUse"
       id="linearGradient3035"
       xlink:href="#1-4"
       inkscape:collect="always" />
    <linearGradient
       xlink:href="#0-5"
       id="1-6"
       gradientUnits="userSpaceOnUse"
       gradientTransform="matrix(1.10525,0,0,1.10525,-151.46219,-297.81828)"
       y1="279.10001"
       x2="0"
       y2="268.32999" />
    <linearGradient
       id="0-5">
      <stop
         stop-color="#6b0118"
         id="stop7-3" />
      <stop
         offset="1"
         stop-color="#ab002d"
         id="stop9-1" />
    </linearGradient>
    <linearGradient
       xlink:href="#1-9"
       id="0-3"
       gradientUnits="userSpaceOnUse"
       y1="24"
       x2="0"
       y2="48"
       gradientTransform="matrix(0.28222223,0,0,0.28222223,6.7399158e-7,-6.3183333e-6)" />
    <linearGradient
       id="1-9">
      <stop
         stop-color="#ffffff"
         id="stop56" />
      <stop
         offset="1"
         stop-color="#ffffff"
         stop-opacity="0"
         id="stop58" />
    </linearGradient>
    <linearGradient
       xlink:href="#3-4"
       id="2-1"
       y1="24"
       x2="0"
       y2="48"
       gradientUnits="userSpaceOnUse"
       gradientTransform="matrix(-0.28222223,0,0,-0.28222223,13.546659,13.546666)" />
    <linearGradient
       id="3-4">
      <stop
         id="stop62" />
      <stop
         offset="1"
         stop-opacity="0"
         id="stop64" />
    </linearGradient>
    <linearGradient
       inkscape:collect="always"
       xlink:href="#3-4"
       id="linearGradient3242"
       gradientUnits="userSpaceOnUse"
       gradientTransform="matrix(-0.28222223,0,0,-0.28222223,0.693593,13.353818)"
       y1="24"
       x2="0"
       y2="48" />
    <linearGradient
       inkscape:collect="always"
       xlink:href="#1-9"
       id="linearGradient3245"
       gradientUnits="userSpaceOnUse"
       gradientTransform="matrix(0.28222223,0,0,0.28222223,-9.4752505,5.2815347)"
       y1="24"
       x2="0"
       y2="48" />
    <linearGradient
       xlink:href="#0-2"
       id="1-0"
       gradientUnits="userSpaceOnUse"
       gradientTransform="matrix(1.10525,0,0,1.10525,-122.33478,-295.99743)"
       y1="279.10001"
       x2="0"
       y2="268.32999" />
    <linearGradient
       id="0-2">
      <stop
         stop-color="#ba080a"
         id="stop7-7" />
      <stop
         offset="1"
         stop-color="#c70103"
         id="stop9-4" />
    </linearGradient>
    <linearGradient
       gradientTransform="matrix(1.10525,0,0,1.10525,-156.12912,-300.93649)"
       xlink:href="#linearGradient6881"
       id="linearGradient5390-7-4"
       y1="279.08801"
       y2="268.36301"
       gradientUnits="userSpaceOnUse"
       x2="0" />
    <linearGradient
       id="linearGradient6881">
      <stop
         offset="0"
         style="stop-color:#c45d13"
         id="stop347" />
      <stop
         offset="1"
         style="stop-color:#ea7a2a"
         id="stop349" />
    </linearGradient>
    <clipPath
       id="clipPath4199"
       clipPathUnits="userSpaceOnUse">
      <path
         inkscape:connector-curvature="0"
         style="opacity:0.5;fill:#ffffff"
         d="m 144,48 -23.59375,55.0625 -55.59375,-22.25 22.25,55.59375 L 32,160 l 55.0625,23.59375 -22.25,55.59375 55.59375,-22.25 L 144,272 l 23.59375,-55.0625 55.59375,22.25 -22.25,-55.59375 L 256,160 200.9375,136.40625 223.1875,80.8125 167.59375,103.0625 144,48 z m -23.1875,56 46.375,0 32.8125,32.8125 0,46.375 L 167.1875,216 120.8125,216 88,183.1875 88,136.8125 120.8125,104 z"
         id="path121" />
    </clipPath>
    <linearGradient
       inkscape:collect="always"
       xlink:href="#linearGradient4460"
       id="linearGradient3000"
       gradientUnits="userSpaceOnUse"
       gradientTransform="matrix(1.10525,0,0,1.10525,-134.27874,-295.76183)"
       y1="279.09601"
       x2="0"
       y2="268.32999" />
    <linearGradient
       id="linearGradient4460">
      <stop
         offset="0"
         style="stop-color:#dbdbdb"
         id="stop7-38" />
      <stop
         offset="1"
         style="stop-color:#f9f9f9"
         id="stop9-17" />
    </linearGradient>
    <linearGradient
       y2="268.32999"
       x2="0"
       y1="279.09601"
       gradientTransform="matrix(1.10525,0,0,1.10525,-152.79388,-297.27727)"
       gradientUnits="userSpaceOnUse"
       id="linearGradient3019"
       xlink:href="#linearGradient4460"
       inkscape:collect="always" />
    <linearGradient
       gradientTransform="matrix(1.10528,0,0,1.10528,-148.29471,-295.92534)"
       xlink:href="#9-1"
       id="3-9"
       y1="279.09"
       y2="268.35999"
       gradientUnits="userSpaceOnUse"
       x2="0" />
    <linearGradient
       id="9-1">
      <stop
         stop-color="#336799"
         id="stop234" />
      <stop
         offset="1"
         stop-color="#4d8bc7"
         id="stop236" />
    </linearGradient>
    <linearGradient
       xlink:href="#4-9"
       id="5-8"
       gradientUnits="userSpaceOnUse"
       gradientTransform="matrix(3.9162401,0,0,3.9162401,-475.79001,-43.611173)"
       y1="279.10001"
       x2="0"
       y2="268.32999" />
    <linearGradient
       id="4-9">
      <stop
         stop-color="#294059"
         id="stop81" />
      <stop
         offset="1"
         stop-color="#3c5e82"
         id="stop83" />
    </linearGradient>
    <linearGradient
       inkscape:collect="always"
       xlink:href="#4-9"
       id="linearGradient3268"
       gradientUnits="userSpaceOnUse"
       gradientTransform="matrix(1.10525,0,0,1.10525,-117.21327,-295.52986)"
       y1="279.10001"
       x2="0"
       y2="268.32999" />
    <linearGradient
       xlink:href="#0-57"
       id="1-5"
       gradientUnits="userSpaceOnUse"
       gradientTransform="matrix(1.10525,0,0,1.10525,-134.27852,-295.76139)"
       y1="279.10001"
       x2="0"
       y2="268.32999" />
    <linearGradient
       id="0-57">
      <stop
         stop-color="#1584d4"
         id="stop7-9" />
      <stop
         offset="1"
         stop-color="#0a99d6"
         id="stop9-8" />
    </linearGradient>
    <linearGradient
       inkscape:collect="always"
       xlink:href="#0-57"
       id="linearGradient3279"
       gradientUnits="userSpaceOnUse"
       gradientTransform="matrix(1.10525,0,0,1.10525,-134.27852,-295.76139)"
       y1="279.10001"
       x2="0"
       y2="268.32999" />
    <linearGradient
       inkscape:collect="always"
       xlink:href="#0-57"
       id="linearGradient3283"
       gradientUnits="userSpaceOnUse"
       gradientTransform="matrix(1.10525,0,0,1.10525,-118.06983,-294.54244)"
       y1="279.10001"
       x2="0"
       y2="268.32999" />
    <linearGradient
       gradientTransform="matrix(1.10525,0,0,1.10525,-134.27874,-295.76183)"
       xlink:href="#3-8"
       id="0-1"
       y1="279.10001"
       y2="268.32999"
       gradientUnits="userSpaceOnUse"
       x2="0" />
    <linearGradient
       id="3-8">
      <stop
         stop-color="#10a7ce"
         id="stop74" />
      <stop
         offset="1"
         stop-color="#1ac8ef"
         id="stop76" />
    </linearGradient>
    <linearGradient
       y2="268.32999"
       x2="0"
       y1="279.10001"
       gradientTransform="matrix(1.10525,0,0,1.10525,-134.27874,-295.76183)"
       gradientUnits="userSpaceOnUse"
       id="linearGradient3164"
       xlink:href="#3-8"
       inkscape:collect="always" />
    <linearGradient
       inkscape:collect="always"
       xlink:href="#3-8"
       id="linearGradient3340"
       gradientUnits="userSpaceOnUse"
       gradientTransform="matrix(1.10525,0,0,1.10525,-131.55297,-293.03584)"
       y1="279.10001"
       x2="0"
       y2="268.32999" />
    <linearGradient
       inkscape:collect="always"
       xlink:href="#linearGradient4138"
       id="linearGradient4144"
       x1="-27"
       y1="13"
       x2="-24"
       y2="13"
       gradientUnits="userSpaceOnUse" />
  </defs>
  <g
     inkscape:groupmode="layer"
     id="layer1"
     inkscape:label="Shadow"
     sodipodi:insensitive="true">
    <path
       style="opacity:0.05;fill:#000000;fill-opacity:1;stroke:none"
       d="M 25,2 C 12.297451,2 2,12.297451 2,25 2,31.367153 4.6007106,37.116628 8.78125,41.28125 12.865755,44.99361 18.29568,47.25 24.25,47.25 c 12.702549,0 23,-10.297451 23,-23 0,-5.95432 -2.25639,-11.384245 -5.96875,-15.46875 C 37.116628,4.6007105 31.367153,2 25,2 z M 41.28125,8.78125 C 45.135604,12.894061 47.5,18.418655 47.5,24.5 c 0,12.702549 -10.297451,23 -23,23 C 18.418655,47.5 12.894061,45.135604 8.78125,41.28125 12.940939,45.4251 18.664604,48 25,48 37.702549,48 48,37.702549 48,25 48,18.664604 45.4251,12.940939 41.28125,8.78125 z"
       transform="scale(0.28222223,0.28222223)"
       id="path3978"
       inkscape:connector-curvature="0" />
    <path
       style="opacity:0.1;fill:#000000;fill-opacity:1;stroke:none"
       d="M 41.28125,8.78125 C 44.99361,12.865755 47.25,18.29568 47.25,24.25 c 0,12.702549 -10.297451,23 -23,23 -5.95432,0 -11.384245,-2.25639 -15.46875,-5.96875 C 12.894061,45.135604 18.418655,47.5 24.5,47.5 c 12.702549,0 23,-10.297451 23,-23 0,-6.081345 -2.364396,-11.605939 -6.21875,-15.71875 z"
       transform="scale(0.28222223,0.28222223)"
       id="path3976"
       inkscape:connector-curvature="0" />
    <path
       transform="matrix(4.3274074,0,0,3.2455556,117.19278,-35.348334)"
       d="m -24,13 a 1.5,2 0 1 1 -3,0 1.5,2 0 1 1 3,0 z"
       sodipodi:ry="2"
       sodipodi:rx="1.5"
       sodipodi:cy="13"
       sodipodi:cx="-25.5"
       id="path3952"
       style="opacity:0.2;fill:#000000;fill-opacity:1;stroke:none"
       sodipodi:type="arc" />
  </g>
  <g
     inkscape:groupmode="layer"
     id="layer2"
     inkscape:label="Base">
    <path
       style="fill:#000000;fill-opacity:0.10196079"
       inkscape:connector-curvature="0"
       d="M 5.5567502,9.9046152 C 6.2670803,8.9322537 7.4113575,8.9633693 7.6412465,8.9244749 l 0.070255,0.076609 0.146719,0.3356717 0.480441,0.3189345 0.3719546,0.4122809 0.6741677,-0.4200598 0.1084869,0.3656078 C 7.8080769,10.733561 6.7021848,10.370074 5.5567502,9.9046152 z"
       id="use4246" />
    <path
       style="color:#000000;fill:#000000;fill-opacity:0.10196079"
       inkscape:connector-curvature="0"
       d="M 7.1548822,3.4296695 C 6.9134527,3.4589823 6.5616864,3.5650186 6.599647,3.9078189 6.604067,3.9625999 6.635665,4.0129644 6.656693,4.0601814 6.5534001,4.0417594 6.4225116,4.0276844 6.282828,4.0308294 6.1408565,4.0340294 5.9898831,4.0538994 5.8498141,4.1150774 5.6732431,4.2328628 5.5057788,4.3824083 5.4560889,4.5677672 5.4642189,4.6740694 5.7047039,4.8421667 5.7873168,4.880699 5.8996431,4.931507 5.988331,4.938783 6.0569219,4.951503 5.9387405,4.9952609 5.6052462,5.2939157 5.4018442,5.5172598 4.935792,6.0290047 4.5893015,6.6931573 4.4362676,7.3171539 l -0.00179,0.00695 -0.00112,0.00717 C 4.3626857,7.7942212 4.3025543,8.2433155 4.4110453,8.6850554 4.6059564,9.4109298 5.0391461,9.7790425 5.4647485,10.066458 L 5.5920138,9.8779624 C 6.0645333,9.1665351 7.0328289,8.9951369 7.651509,8.9395904 l 0.9872275,1.0833426 0.093745,0.103068 0.1151729,-0.07842 0.4738598,-0.3228736 c 0.036462,0.080371 0.071823,0.1587881 0.1075868,0.2377268 l 0.095552,0.2115148 C 9.915832,9.9624647 10.221548,9.6458364 10.421683,9.2429711 l 0.01004,-0.013892 0.0067,-0.015684 C 11.205908,7.4245924 10.379427,5.7017492 8.8143972,4.9075858 8.6703581,4.4725503 8.3252646,4.0393545 7.9432356,3.7487345 7.7423233,3.5958953 7.5306747,3.481988 7.3169271,3.442217 7.2634905,3.4322743 7.2090546,3.4279148 7.1548822,3.4296695 z m 0.00848,0.3195132 c 0.028808,3.322e-4 0.060245,0.00382 0.095084,0.010307 0.1393613,0.02593 0.3168547,0.1140712 0.4906007,0.2462447 0.3474928,0.2643469 0.6773294,0.703482 0.7771936,1.0573509 l 0.019195,0.068115 0.062943,0.031817 c 1.0601918,0.5383662 1.3983975,1.0872664 1.7650895,2.1075319 0.05468,0.6270429 0.133166,0.962271 -0.223872,1.7994459 C 10.004965,9.2721481 9.8325686,9.4769437 9.6375697,9.6431467 9.6025259,9.5659875 9.5658883,9.4858277 9.5353436,9.4177398 L 9.456776,9.242747 9.2985246,9.3505211 8.7822559,9.7020751 7.8347587,8.6624251 7.7816365,8.6041689 7.7032922,8.6104426 C 7.1018591,8.6582007 6.0359628,8.7928797 5.4221559,9.5658451 4.9950227,9.2510446 4.8048114,8.9405203 4.7230841,8.6077539 4.634165,8.2457083 4.6809876,7.8416395 4.7503142,7.3866133 4.8898672,6.8238496 5.2153769,6.1998552 5.6388865,5.7348245 6.0294177,5.3060051 6.4948572,5.0192868 6.9678377,4.9965386 c 0.045624,-7.39e-5 0.09138,1.613e-4 0.1368235,-2.237e-4 l 0.00737,-0.322426 c -0.00337,-1.814e-4 -0.00668,-6.45e-5 -0.010044,-2.237e-4 -0.00105,-5.02e-5 -0.00208,5.02e-5 -0.00312,0 -0.047716,-0.00217 -0.095077,-0.00184 -0.1421811,2.237e-4 -0.2701069,1.886e-4 -0.5370421,-0.00649 -0.8008529,-0.036522 -0.092277,-0.019 -0.1882456,-0.031885 -0.2499869,-0.056464 -0.045993,-0.018309 -0.063537,-0.024708 -0.071649,-0.047053 0.029147,-0.054972 0.073904,-0.092283 0.1437433,-0.1227863 0.083188,-0.036333 0.197495,-0.055224 0.3122615,-0.057808 0.1147658,-0.00258 0.2298525,0.00994 0.3147161,0.025319 0.042432,0.00769 0.077624,0.01623 0.099102,0.02263 0.00357,0.00106 0.00353,0.00111 0.00625,0.00202 -0.00223,-0.00166 -0.00422,-0.00314 -0.00737,-0.00605 l 0.014062,0.00829 c 0.0014,5.112e-4 0.00564,0.00195 0.0058,0.00202 1.148e-4,5.02e-5 -1.72e-4,6.446e-4 -6.747e-4,0.00112 0.4243223,0.2515988 0.6842572,0.4522778 1.316675,0.5393185 0.00353,4.854e-4 0.00672,0.00109 0.010267,0.00157 l 0.052897,-0.317952 C 7.9887437,4.6086986 7.6671717,4.4820805 7.4010693,4.3223349 7.2680185,4.2424621 7.1451497,4.1535424 7.0606845,4.0704886 6.9920363,4.0029877 6.9562853,3.9419277 6.943503,3.9046824 6.951563,3.8859704 6.962667,3.8580674 6.97609,3.8215554 7.028252,3.7710784 7.0862418,3.7482934 7.1633577,3.7491834 z"
       id="use4248" />
    <path
       inkscape:connector-curvature="0"
       d="M 4.5557567,7.0250444 4.272853,6.4436164 C 4.139266,6.548484 4.0156023,6.6467113 3.9316264,6.7582192 c 0.014905,0.022742 0.012395,0.045483 0.015327,0.068225 0.1539417,0.1378395 0.2715022,0.2590783 0.4320592,0.3935976 L 3.5808803,6.8255935 C 3.4835145,6.9836102 3.3897492,7.1857549 3.3900542,7.3658355 3.6918491,7.4538499 3.9948168,7.4810091 4.3031843,7.5169097 4.1287795,7.5727311 3.9345306,7.6053116 3.7799704,7.684374 L 3.9543746,8.0269143 4.3790127,7.722434 z"
       id="use4250"
       style="fill:#000000;fill-opacity:0.10196079" />
    <path
       style="fill:#000000;fill-opacity:0.10196079"
       inkscape:connector-curvature="0"
       d="M 7.1033351,4.8349664 C 5.9386493,4.7721949 4.8838368,6.1669387 4.5923034,7.3556662 4.4517361,8.276371 4.3770992,9.0658691 5.4583197,9.78839 6.0002111,8.9725167 7.0925623,8.8207671 7.7160717,8.771256 L 8.7573079,9.9141011 9.3888256,9.4839217 C 9.444894,9.6089024 9.5131905,9.758433 9.5753733,9.8956886 9.8627952,9.6960406 10.101306,9.4166055 10.290904,9.1494453 11.064166,7.4308031 10.289016,6.0735271 8.6809408,5.0191586 8.4520036,4.2079197 7.2982974,3.2138728 6.8373763,3.7331036 6.7941031,3.8586427 6.7755217,3.8765451 6.7769983,3.8948507 6.8075804,4.2739028 7.7595387,4.7269593 8.0703386,4.7896844 7.4550119,4.7067813 7.2380199,4.5270208 6.8026132,4.268941 6.763015,4.2238142 5.8443403,4.0285464 5.6673859,4.5104452 c 0.018018,0.2396082 0.3046424,0.2524728 0.4661202,0.2867862 0.3232763,0.037091 0.6465527,0.040477 0.969829,0.037735 z"
       id="use4252" />
    <path
       style="fill:#000000;fill-opacity:0.10196079"
       inkscape:connector-curvature="0"
       d="M 7.6188637,7.2331345 C 7.5111506,7.2646194 6.8017611,8.1235287 7.2434215,8.8242714 7.461832,8.8135469 7.525508,8.7847095 7.7385048,8.7939091 L 8.8981445,7.9103248 10.006119,8.6988973 C 10.155054,8.5879345 10.730496,8.0622011 9.9064604,7.2688739 9.1303064,7.3796873 8.3868257,7.300512 7.6188637,7.2331345 z"
       id="use4254" />
    <path
       inkscape:connector-curvature="0"
       d="M 8.8134546,7.6605203 C 8.2574556,7.4314828 7.5875501,7.3123244 7.1454575,6.9734079 7.238493,6.773278 7.3049474,6.5464643 7.5641177,6.3730184 7.9783483,6.8422116 8.513666,7.0521264 8.8946691,7.2945059 L 10.115954,6.5197803 c 0.04388,-0.027833 0.259172,0.5803765 0.259172,0.5803765 l -0.09968,0.080052 C 10.2136,7.2298753 9.2867574,7.5187951 8.9131365,7.6759354 z"
       id="use4256"
       style="fill:#000000;fill-opacity:0.10196079" />
    <path
       style="fill:#000000;fill-opacity:0.10196079"
       inkscape:connector-curvature="0"
       d="M 8.8024182,7.9033202 C 8.7140067,7.9400043 8.632676,7.9846856 8.5371845,8.0559733 8.2566257,8.0003556 7.7957068,8.0583401 7.6530697,8.0808238 7.3666169,7.6678321 7.6034452,7.3071756 7.6848981,7.2572072 c 0.3678295,0.132536 0.7707381,0.2556815 1.1175201,0.397608 0.025965,0.020991 0.029779,0.054434 0.035365,0.081652 z"
       id="use4258" />
    <path
       inkscape:connector-curvature="0"
       d="m 8.4131036,7.7414639 c 0,0.086182 -0.08148,0.1560461 -0.1819885,0.1560461 -0.1005089,0 -0.1819876,-0.069864 -0.1819876,-0.1560461 0,-0.086182 0.081479,-0.1560462 0.1819876,-0.1560462 0.1005089,0 0.1819885,0.069864 0.1819885,0.1560462 z"
       id="use4260"
       style="fill:#000000;fill-opacity:0.10196079" />
    <path
       style="fill:#000000;fill-opacity:0.10196079"
       inkscape:connector-curvature="0"
       d="m 8.9085124,7.6796657 c -0.00472,0.075735 0.018861,0.1514698 0.028291,0.2272046 0.081339,0.013017 0.1273126,0.050884 0.1909693,0.081652 C 9.3859338,7.8145684 9.6511683,7.8145685 9.9022564,7.8074683 9.904833,7.6987828 9.9163467,7.5265719 9.7820173,7.3743595 9.4908486,7.4548278 9.192607,7.5530465 8.9085124,7.6796657 z"
       id="use4262" />
    <path
       inkscape:connector-curvature="0"
       d="m 9.2471629,7.7452841 c 0,0.071468 -0.050925,0.1294043 -0.1137428,0.1294043 -0.062818,0 -0.1137423,-0.057936 -0.1137423,-0.1294043 0,-0.071468 0.050924,-0.1294045 0.1137423,-0.1294045 0.062818,0 0.1137428,0.057936 0.1137428,0.1294045 z"
       id="use4264"
       style="fill:#000000;fill-opacity:0.10196079" />
    <path
       inkscape:connector-curvature="0"
       d="m 8.8085929,7.6548402 0.026993,0.076925 -0.03659,0.1665864 c -0.093526,0.040861 -0.1870517,0.095211 -0.2633026,0.157268 l 0.044073,0.06717 C 8.6679393,8.0743916 8.7637892,8.0182855 8.8615592,7.9641066 L 9.1050376,8.07957 9.1356746,7.987034 8.9500975,7.898352 8.9096675,7.6599133 z"
       id="use4266"
       style="fill:#000000;fill-opacity:0.10196079" />
    <path
       inkscape:connector-curvature="0"
       d="m 10.078791,7.9079045 -0.07591,-0.091406 C 10.011506,7.6553423 9.979989,7.4790775 9.9233872,7.3128854 L 9.7647883,7.3604428 C 9.8583314,7.4955563 9.9184272,7.6357063 9.8949065,7.8060745 9.7088929,7.821192 9.4476227,7.7708365 9.1345105,7.9857303 l -0.031925,0.091557 0.048599,0.023954 0.1118726,-0.083163 C 9.4747632,7.8588019 9.8236027,7.9043381 10.078791,7.9079045 z"
       id="use4268"
       style="fill:#000000;fill-opacity:0.10196079" />
    <path
       inkscape:connector-curvature="0"
       d="M 7.5313446,8.2469284 7.5395046,8.138884 C 7.3656685,7.8070304 7.4201496,7.5971255 7.5392491,7.2968924 l 0.093195,-0.076013 0.058248,0.023389 C 7.4083355,7.6013333 7.527194,7.7885965 7.6526559,8.0809057 c 0.3100446,-0.058778 0.6049307,-0.066833 0.8859217,-0.0267 l 0.045334,0.067911 -0.1369871,0.077563 -0.038526,-0.09764 C 8.0238309,8.0780549 7.7706393,8.1605894 7.5313428,8.2469284 z"
       id="use4270"
       style="fill:#000000;fill-opacity:0.10196079" />
    <path
       inkscape:connector-curvature="0"
       d="M 8.4446544,9.0990082 7.8165353,8.9452185 7.8778157,8.8029632 c 0.1844737,0.1494897 0.3593518,0.1525657 0.5591787,0.1883922 0.4980145,0.031304 1.0228959,0.1338879 1.3328379,0.2268397 L 10.127933,9.4315657 10.021912,9.4845294 9.6740824,9.2758662 C 9.3778969,9.2066361 9.0913062,9.1508915 8.7855238,9.1163383 8.6833903,9.1118074 8.5735809,9.1111295 8.4791246,9.1528345 z"
       id="use4272"
       style="fill:#000000;fill-opacity:0.10196079" />
    <path
       inkscape:connector-curvature="0"
       d="M 7.9586964,9.2893867 C 8.1041519,9.2214745 8.4526425,9.0870163 8.4526425,9.0870163 L 8.4886515,9.1477583 8.0681564,9.36024 z"
       id="use4274"
       style="fill:#000000;fill-opacity:0.10196079" />
    <path
       inkscape:connector-curvature="0"
       d="M 8.7990312,9.8037529 C 8.5194745,9.6403893 8.2596323,9.4675432 7.9802228,9.3039262 L 7.8260691,9.0400839 8.4907245,8.1574944 8.4123645,8.1067508 c -0.1621504,0.094738 -0.4345891,0.3303826 -0.6594026,0.6238995 -0.1188578,0.3028428 -0.021529,0.5537026 0.1693116,0.674643 0.1469989,0.093157 0.2151734,0.1555429 0.3559145,0.251439 0.140741,0.095896 0.359061,0.2026566 0.5055654,0.2889466 z"
       id="use4276"
       style="fill:#000000;fill-opacity:0.10196079" />
    <path
       style="fill:#000000;fill-opacity:0.10196079"
       inkscape:connector-curvature="0"
       d="M 8.4381639,9.0961445 C 8.2483734,9.025143 8.0302917,8.9896423 7.8263563,8.9363913 c -0.012967,0.3431736 0.058941,0.3064895 0.130849,0.3550072 z"
       id="use4278" />
    <path
       inkscape:connector-curvature="0"
       d="M 8.7884191,9.7890945 9.6149463,9.2448358 9.694565,9.2790899 C 9.3895183,9.4990417 9.097005,9.7617688 8.7794252,9.9389454 z"
       id="use4280"
       style="fill:#000000;fill-opacity:0.10196079" />
    <path
       style="fill:#000000;fill-opacity:0.10196079"
       inkscape:connector-curvature="0"
       d="M 8.0558785,9.3482819 C 8.2751764,9.2148619 8.5235515,9.0879998 8.7802278,9.114797 9.0571196,9.1437046 9.3539476,9.1859543 9.6109038,9.2615589 9.3251517,9.4550177 9.0859161,9.6151216 8.7935184,9.8019094 8.503336,9.7062919 8.2463804,9.5573064 8.0558785,9.3482819 z"
       id="use4282" />
    <path
       inkscape:connector-curvature="0"
       d="m 9.1378817,8.1075343 0.1123974,-0.0896 C 9.578779,8.2146449 9.7990238,8.4132626 9.9907806,8.6252259 10.110119,8.8022145 10.264519,9.075382 10.279402,9.2638097 L 10.12252,9.4468107 10.060202,8.9703536 9.6403645,8.4161581 z"
       id="use4284"
       style="fill:#000000;fill-opacity:0.10196079" />
    <path
       style="fill:#000000;fill-opacity:0.10196079"
       inkscape:connector-curvature="0"
       d="M 7.8764524,8.8079313 C 8.1046107,8.2987121 8.5387775,8.1630685 8.8599727,7.960715 9.7903292,8.3765403 9.8634292,8.6189198 10.076082,8.9680351 10.111524,9.121468 10.153612,9.2749009 10.1226,9.4283338 9.9874767,9.3727421 9.8855801,9.2571116 9.7172306,9.2015199 9.2941396,9.0858893 8.8843391,9.0369688 8.4280212,8.9947191 8.2109375,8.9524695 8.0470181,8.9369038 7.8764524,8.8079313 z"
       id="use4286" />
    <g
       transform="matrix(0.00717,0,0,0.00717,3.3867665,3.1837408)"
       style="fill:#000000;fill-opacity:0.10196079"
       id="use4288">
      <path
         inkscape:connector-curvature="0"
         d="m 1541.6666,673.16669 c 0,43.72254 -17.9086,79.16666 -40,79.16666 -22.0914,0 -40,-35.44412 -40,-79.16666 0,-43.72254 17.9086,-79.16667 40,-79.16667 22.0914,0 40,35.44413 40,79.16667 z"
         transform="matrix(1.16219,0,0,1.05263,-1296.6189,-19.56764)"
         id="path4338"
         style="fill:#000000;fill-opacity:0.10196079" />
      <path
         inkscape:connector-curvature="0"
         d="m 1433.3333,721.5 c 0,27.154 -19.401,49.16667 -43.3333,49.16667 -23.9323,0 -43.3333,-22.01267 -43.3333,-49.16667 0,-27.154 19.401,-49.16667 43.3333,-49.16667 23.9323,0 43.3333,22.01267 43.3333,49.16667 z"
         transform="matrix(0.99616,0,0,1,-1048.9613,16.69552)"
         id="path4340"
         style="fill:#000000;fill-opacity:0.10196079" />
    </g>
    <path
       inkscape:connector-curvature="0"
       d="m 5.5876582,9.8626605 c 0.9766427,0.5936035 2.8079181,0.7798085 3.8719284,0.088842 l 0.1064403,0.2005847 c -1.0951065,0.716751 -2.9752518,0.62403 -4.1208764,-0.09656 z"
       id="use4290"
       style="fill:#000000;fill-opacity:0.10196079" />
    <path
       style="fill:#000000;fill-opacity:0.10196079"
       inkscape:connector-curvature="0"
       d="M 5.6859818,5.4565389 C 5.1584757,5.9593133 4.7556017,6.6897759 4.5922863,7.3556926 4.4517198,8.2763974 4.3770941,9.0658183 5.4583147,9.7883392 5.6309838,9.528368 5.8594895,9.3358463 6.1109602,9.192557 5.1609647,8.4735506 5.3143402,6.7290842 5.6859818,5.4565389 z"
       id="use4292" />
    <path
       sodipodi:type="arc"
       style="fill:url(#linearGradient4144);fill-opacity:1;stroke:none"
       id="path3942"
       sodipodi:cx="-25.5"
       sodipodi:cy="13"
       sodipodi:rx="1.5"
       sodipodi:ry="2"
       d="m -24,13 a 1.5,2 0 1 1 -3,0 1.5,2 0 1 1 3,0 z"
       transform="matrix(0,-4.3274075,3.2455556,0,-35.429918,-103.60974)" />
    <path
       style="color:#000000;fill:#000000;fill-opacity:0.10196079"
       inkscape:connector-curvature="0"
       d="M 7.1550802,3.4298337 C 6.9136507,3.4591465 6.5618844,3.5651828 6.599845,3.9079831 6.604265,3.9627641 6.635863,4.0131286 6.656891,4.0603456 6.5535981,4.0419236 6.4227096,4.0278486 6.283026,4.0309936 c -0.1419715,0.0032 -0.2929449,0.02307 -0.4330139,0.084248 -0.176571,0.1177854 -0.3440353,0.2673309 -0.3937252,0.4526898 0.00813,0.1063022 0.248615,0.2743995 0.3312279,0.3129318 0.1123263,0.050808 0.2010142,0.058084 0.2696051,0.070804 C 5.9389385,4.9954251 5.6054442,5.2940799 5.4020422,5.517424 4.93599,6.0291689 4.5894995,6.6933215 4.4364656,7.3173181 l -0.00179,0.00695 -0.00112,0.00717 C 4.3628837,7.7943854 4.3027523,8.2434797 4.4112433,8.6852196 4.6061544,9.411094 5.0393441,9.7792067 5.4649465,10.066622 L 5.5922118,9.8781266 C 6.0647313,9.1666993 7.0330269,8.9953011 7.651707,8.9397546 l 0.9872275,1.0833424 0.093745,0.103069 0.1151729,-0.07842 0.4738598,-0.3228744 c 0.036462,0.080371 0.071823,0.1587881 0.1075868,0.2377268 l 0.095552,0.2115146 C 9.91603,9.9626289 10.221746,9.6460006 10.421881,9.2431353 l 0.01004,-0.013892 0.0067,-0.015684 C 11.206106,7.4247566 10.379625,5.7019134 8.8145952,4.90775 8.6705561,4.4727145 8.3254626,4.0395187 7.9434336,3.7488987 7.7425213,3.5960595 7.5308727,3.4821522 7.3171251,3.4423812 7.2636885,3.4324385 7.2092526,3.428079 7.1550802,3.4298337 z m 0.00848,0.3195132 c 0.028808,3.322e-4 0.060245,0.00382 0.095084,0.010307 0.1393613,0.02593 0.3168547,0.1140712 0.4906007,0.2462447 0.3474928,0.2643469 0.6773294,0.703482 0.7771936,1.0573509 l 0.019195,0.068115 0.062943,0.031817 c 1.0601918,0.5383662 1.3983975,1.0872664 1.7650895,2.1075319 0.05468,0.6270429 0.133166,0.962271 -0.223872,1.7994459 C 10.005163,9.2723123 9.8327666,9.4771079 9.6377677,9.6433109 9.6027239,9.5661517 9.5660863,9.4859919 9.5355416,9.417904 L 9.456974,9.2429112 9.2987226,9.3506853 8.7824539,9.7022393 7.8349567,8.6625893 7.7818345,8.6043331 7.7034902,8.6106068 C 7.1020571,8.6583649 6.0361608,8.7930439 5.4223539,9.5660093 4.9952207,9.2512088 4.8050094,8.9406845 4.7232821,8.6079181 4.634363,8.2458725 4.6811856,7.8418037 4.7505122,7.3867775 4.8900652,6.8240138 5.2155749,6.2000194 5.6390845,5.7349887 6.0296157,5.3061693 6.4950552,5.019451 6.9680357,4.9967028 c 0.045624,-7.39e-5 0.09138,1.613e-4 0.1368235,-2.237e-4 l 0.00737,-0.322426 c -0.00337,-1.814e-4 -0.00668,-6.45e-5 -0.010044,-2.237e-4 -0.00105,-5.02e-5 -0.00208,5.02e-5 -0.00312,0 -0.047716,-0.00217 -0.095077,-0.00184 -0.1421811,2.237e-4 -0.2701069,1.886e-4 -0.5370421,-0.00649 -0.8008529,-0.036522 -0.092277,-0.019 -0.1882456,-0.031885 -0.2499869,-0.056464 -0.045993,-0.018309 -0.063537,-0.024708 -0.071649,-0.047053 0.029147,-0.054972 0.073904,-0.092283 0.1437433,-0.1227863 0.083188,-0.036333 0.197495,-0.055224 0.3122615,-0.057808 0.1147658,-0.00258 0.2298525,0.00994 0.3147161,0.025319 0.042432,0.00769 0.077624,0.01623 0.099102,0.02263 0.00357,0.00106 0.00353,0.00111 0.00625,0.00202 -0.00223,-0.00166 -0.00422,-0.00314 -0.00737,-0.00605 l 0.014062,0.00829 c 0.0014,5.112e-4 0.00564,0.00195 0.0058,0.00202 1.148e-4,5.02e-5 -1.72e-4,6.446e-4 -6.747e-4,0.00112 0.4243223,0.2515988 0.6842572,0.4522778 1.316675,0.5393185 0.00353,4.854e-4 0.00672,0.00109 0.010267,0.00157 l 0.052897,-0.317952 C 7.9889417,4.6088628 7.6673697,4.4822447 7.4012673,4.3224991 7.2682165,4.2426263 7.1453477,4.1537066 7.0608825,4.0706528 6.9922343,4.0031519 6.9564833,3.9420919 6.943701,3.9048466 6.951761,3.8861346 6.962865,3.8582316 6.976288,3.8217196 7.02845,3.7712426 7.0864398,3.7484576 7.1635557,3.7493476 z"
       id="use4346" />
    <path
       style="opacity:0.1;fill:#000000;fill-opacity:1;stroke:none"
       d="M 40.03125 7.53125 C 43.74361 11.615755 46 17.04568 46 23 C 46 35.702549 35.702549 46 23 46 C 17.04568 46 11.615755 43.74361 7.53125 40.03125 C 11.709416 44.322508 17.537578 47 24 47 C 36.702549 47 47 36.702549 47 24 C 47 17.537578 44.322508 11.709416 40.03125 7.53125 z "
       transform="scale(0.28222223,0.28222223)"
       id="path4027" />
    <path
       id="path89"
       d="M 5.2746459,9.6225289 C 5.984976,8.6501674 7.1292532,8.681283 7.3591422,8.6423886 l 0.070255,0.076609 0.146719,0.3356717 0.480441,0.3189345 0.3719546,0.4122812 0.6741677,-0.4200601 0.1084869,0.3656079 C 7.5259726,10.451475 6.4200805,10.087988 5.2746459,9.6225289 z"
       inkscape:connector-curvature="0"
       style="fill:#e5a467" />
    <path
       id="path91"
       d="M 6.8727779,3.1475832 C 6.6313484,3.176896 6.2795821,3.2829323 6.3175427,3.6257326 c 0.00442,0.054781 0.036018,0.1051455 0.057046,0.1523625 -0.1032929,-0.018422 -0.2341814,-0.032497 -0.373865,-0.029352 -0.1419715,0.0032 -0.2929449,0.02307 -0.4330139,0.084248 -0.176571,0.1177854 -0.3440353,0.2673309 -0.3937252,0.4526898 0.00813,0.1063022 0.248615,0.2743995 0.3312279,0.3129318 0.1123263,0.050808 0.2010142,0.058084 0.2696051,0.070804 C 5.6566362,4.7131746 5.3231419,5.0118294 5.1197399,5.2351735 4.6536877,5.7469184 4.3071972,6.411071 4.1541633,7.0350676 l -0.00179,0.00695 -0.00112,0.00717 C 4.0805814,7.5121349 4.02045,7.9612292 4.128941,8.4029691 4.3238521,9.1288435 4.7570418,9.4969562 5.1826442,9.7843713 L 5.3099095,9.5958761 C 5.782429,8.8844488 6.7507246,8.7130506 7.3694047,8.6575041 L 8.3566322,9.7408463 8.450377,9.8439151 8.5655499,9.7654932 9.0394097,9.4426191 c 0.036462,0.080371 0.071823,0.1587881 0.1075868,0.2377268 l 0.095552,0.211515 C 9.6337277,9.6803784 9.9394433,9.3637501 10.139579,8.9608848 l 0.01004,-0.013892 0.0067,-0.015684 C 10.923804,7.1425061 10.097323,5.4196629 8.5322929,4.6254995 8.3882538,4.190464 8.0431603,3.7572682 7.6611313,3.4666482 7.460219,3.313809 7.2485704,3.1999017 7.0348228,3.1601307 6.9813862,3.150188 6.9269503,3.1458285 6.8727779,3.1475832 z m 0.00848,0.3195132 c 0.028808,3.322e-4 0.060245,0.00382 0.095084,0.010307 0.1393613,0.02593 0.3168547,0.1140712 0.4906007,0.2462447 0.3474928,0.2643469 0.6773294,0.703482 0.7771936,1.0573509 l 0.019195,0.068115 0.062943,0.031817 c 1.0601918,0.5383662 1.3983971,1.0872664 1.7650897,2.1075319 0.05468,0.6270429 0.133166,0.962271 -0.2238718,1.7994459 C 9.7228606,8.9900618 9.5504643,9.1948574 9.3554654,9.3610604 9.3204216,9.2839012 9.283784,9.2037414 9.2532393,9.1356535 L 9.1746717,8.9606607 9.0164203,9.0684348 8.5001516,9.4199888 7.5526544,8.3803388 7.4995322,8.3220826 7.4211879,8.3283563 C 6.8197548,8.3761144 5.7538585,8.5107934 5.1400516,9.2837588 4.7129184,8.9689583 4.5227071,8.658434 4.4409798,8.3256676 4.3520607,7.963622 4.3988833,7.5595532 4.4682099,7.104527 4.6077629,6.5417633 4.9332726,5.9177689 5.3567822,5.4527382 5.7473134,5.0239188 6.2127529,4.7372005 6.6857334,4.7144523 c 0.045624,-7.39e-5 0.09138,1.613e-4 0.1368235,-2.237e-4 l 0.00737,-0.322426 c -0.00337,-1.814e-4 -0.00668,-6.45e-5 -0.010044,-2.237e-4 -0.00105,-5.02e-5 -0.00208,5.02e-5 -0.00312,0 -0.047716,-0.00217 -0.095077,-0.00184 -0.1421811,2.237e-4 -0.2701069,1.886e-4 -0.5370421,-0.00649 -0.8008529,-0.036522 -0.092277,-0.019 -0.1882456,-0.031885 -0.2499869,-0.056464 -0.045993,-0.018309 -0.063537,-0.024708 -0.071649,-0.047053 0.029147,-0.054972 0.073904,-0.092283 0.1437433,-0.1227863 0.083188,-0.036333 0.197495,-0.055224 0.3122615,-0.057808 0.1147658,-0.00258 0.2298525,0.00994 0.3147161,0.025319 0.042432,0.00769 0.077624,0.01623 0.099102,0.02263 0.00357,0.00106 0.00353,0.00111 0.00625,0.00202 -0.00223,-0.00166 -0.00422,-0.00314 -0.00737,-0.00605 l 0.014062,0.00829 c 0.0014,5.112e-4 0.00564,0.00195 0.0058,0.00202 1.148e-4,5.02e-5 -1.72e-4,6.446e-4 -6.747e-4,0.00112 0.4243223,0.2515988 0.6842572,0.4522778 1.316675,0.5393185 0.00353,4.854e-4 0.00672,0.00109 0.010267,0.00157 L 7.8198223,4.3494548 C 7.7066394,4.3266123 7.3850674,4.1999942 7.118965,4.0402486 6.9859142,3.9603758 6.8630454,3.8714561 6.7785802,3.7884023 6.709932,3.7209014 6.674181,3.6598414 6.6613987,3.6225961 c 0.00806,-0.018712 0.019164,-0.046615 0.032587,-0.083127 0.052162,-0.050477 0.1101518,-0.073262 0.1872677,-0.072372 z"
       inkscape:connector-curvature="0"
       style="color:#000000" />
    <path
       id="path106"
       d="M 4.2736524,6.7429581 3.9907487,6.1615301 C 3.8571617,6.2663977 3.733498,6.364625 3.6495221,6.4761329 c 0.014905,0.022742 0.012395,0.045483 0.015327,0.068225 0.1539417,0.1378395 0.2715022,0.2590783 0.4320592,0.3935976 L 3.298776,6.5435072 C 3.2014102,6.7015239 3.1076449,6.9036686 3.1079499,7.0837492 3.4097448,7.1717636 3.7127125,7.1989228 4.02108,7.2348234 3.8466752,7.2906448 3.6524263,7.3232253 3.4978661,7.4022877 L 3.6722703,7.744828 4.0969084,7.4403477 z"
       inkscape:connector-curvature="0" />
    <path
       inkscape:connector-curvature="0"
       d="M 4.5557567,7.0250947 4.272853,6.4436667 C 4.139266,6.5485343 4.0156023,6.6467616 3.9316264,6.7582695 c 0.014905,0.022742 0.012395,0.045483 0.015327,0.068225 0.1539417,0.1378395 0.2715022,0.2590783 0.4320592,0.3935976 L 3.5808803,6.8256438 C 3.4835145,6.9836605 3.3897492,7.1858052 3.3900542,7.3658858 3.6918491,7.4539002 3.9948168,7.4810594 4.3031843,7.51696 4.1287795,7.5727814 3.9345306,7.6053619 3.7799704,7.6844243 L 3.9543746,8.0269646 4.3790127,7.7224843 z"
       id="use4354"
       style="fill:#000000;fill-opacity:0.10196079" />
    <path
       id="path93"
       d="M 6.8212308,4.5528801 C 5.656545,4.4901086 4.6017325,5.8848524 4.3101991,7.0735799 4.1696318,7.9942847 4.0949949,8.7837828 5.1762154,9.5063037 5.7181068,8.6904304 6.810458,8.5386808 7.4339674,8.4891697 L 8.4752036,9.6320148 9.1067213,9.2018354 C 9.1627897,9.3268161 9.2310862,9.4763467 9.293269,9.6136023 9.5806909,9.4139543 9.8192014,9.1345192 10.0088,8.867359 10.782062,7.1487168 10.006912,5.7914408 8.3988365,4.7370723 8.1698993,3.9258334 7.0161931,2.9317865 6.555272,3.4510173 6.5119988,3.5765564 6.4934174,3.5944588 6.494894,3.6127644 6.5254761,3.9918165 7.4774344,4.444873 7.7882343,4.5075981 7.1729076,4.424695 6.9559156,4.2449345 6.5205089,3.9868547 6.4809107,3.9417279 5.562236,3.7464601 5.3852816,4.2283589 c 0.018018,0.2396082 0.3046424,0.2524728 0.4661202,0.2867862 0.3232763,0.037091 0.6465527,0.040477 0.969829,0.037735 z"
       inkscape:connector-curvature="0"
       style="fill:#d60631" />
    <path
       id="path95"
       d="M 7.3367594,6.9510482 C 7.2290463,6.9825331 6.5196568,7.8414424 6.9613172,8.5421851 7.1797277,8.5314606 7.2434037,8.5026232 7.4564005,8.5118228 L 8.6160402,7.6282385 9.7240143,8.416811 C 9.8729495,8.3058482 10.448392,7.7801148 9.6243561,6.9867876 8.8482021,7.097601 8.1047214,7.0184257 7.3367594,6.9510482 z"
       inkscape:connector-curvature="0"
       style="fill:#b1001a" />
    <path
       id="path97"
       d="M 8.5313503,7.378434 C 7.9753513,7.1493965 7.3054458,7.0302381 6.8633532,6.6913216 6.9563887,6.4911917 7.0228431,6.264378 7.2820134,6.0909321 7.696244,6.5601253 8.2315617,6.7700401 8.6125648,7.0124196 L 9.8338502,6.237694 c 0.043876,-0.027833 0.2591718,0.5803765 0.2591718,0.5803765 l -0.099682,0.080052 C 9.9314955,6.947789 9.0046531,7.2367088 8.6310322,7.3938491 z"
       inkscape:connector-curvature="0" />
    <path
       id="path99"
       d="M 8.5203139,7.6212339 C 8.4319024,7.657918 8.3505717,7.7025993 8.2550802,7.773887 7.9745214,7.7182693 7.5136025,7.7762538 7.3709654,7.7987375 7.0845126,7.3857458 7.3213409,7.0250893 7.4027938,6.9751209 c 0.3678295,0.132536 0.7707381,0.2556815 1.1175201,0.397608 0.025965,0.020991 0.029779,0.054434 0.035365,0.081652 z"
       inkscape:connector-curvature="0"
       style="fill:#f9f9ff" />
    <path
       id="5-2"
       d="m 8.1309993,7.4593776 c 0,0.086182 -0.08148,0.1560461 -0.1819885,0.1560461 -0.1005089,0 -0.1819876,-0.069864 -0.1819876,-0.1560461 0,-0.086182 0.081479,-0.1560462 0.1819876,-0.1560462 0.1005089,0 0.1819885,0.069864 0.1819885,0.1560462 z"
       inkscape:connector-curvature="0" />
    <path
       id="path102"
       d="m 8.6264081,7.3975794 c -0.00472,0.075735 0.018861,0.1514698 0.028291,0.2272046 0.081339,0.013017 0.1273126,0.050884 0.1909693,0.081652 C 9.1038295,7.5324821 9.369064,7.5324822 9.6201521,7.525382 9.6227287,7.4166965 9.6342424,7.2444856 9.499913,7.0922732 9.2087443,7.1727415 8.9105027,7.2709602 8.6264081,7.3975794 z"
       inkscape:connector-curvature="0"
       style="fill:#f9f9f9" />
    <use
       id="use104-9"
       xlink:href="#5-2"
       transform="matrix(0.625,0,0,0.82927,3.883184,1.2773597)"
       x="0"
       y="0"
       width="744.09448"
       height="1052.3622" />
    <path
       id="path108"
       d="m 8.5264886,7.3727539 0.026993,0.076925 -0.03659,0.1665864 c -0.093526,0.040861 -0.1870517,0.095211 -0.2633026,0.157268 l 0.044073,0.06717 c 0.088173,-0.048398 0.1840229,-0.1045041 0.2817929,-0.158683 l 0.2434784,0.1154634 0.030637,-0.092536 -0.1855771,-0.088682 -0.04043,-0.2384387 z"
       inkscape:connector-curvature="0" />
    <path
       id="path110"
       d="M 9.7966864,7.6258182 9.7207816,7.5344118 C 9.7294015,7.373256 9.6978847,7.1969912 9.6412829,7.0307991 L 9.482684,7.0783565 C 9.5762271,7.21347 9.6363229,7.35362 9.6128022,7.5239882 9.4267886,7.5391057 9.1655184,7.4887502 8.8524062,7.703644 l -0.031925,0.091557 0.048599,0.023954 0.1118726,-0.083163 C 9.1926589,7.5767156 9.5414984,7.6222518 9.7966864,7.6258182 z"
       inkscape:connector-curvature="0" />
    <path
       id="path112"
       d="m 7.2492403,7.9648421 0.00816,-0.1080444 C 7.0835642,7.5249441 7.1380453,7.3150392 7.2571448,7.0148061 l 0.093195,-0.076013 0.058248,0.023389 C 7.1262312,7.319247 7.2450897,7.5065102 7.3705516,7.7988194 c 0.3100446,-0.058778 0.6049307,-0.066833 0.8859217,-0.0267 l 0.045334,0.067911 -0.1369871,0.077563 -0.038526,-0.09764 C 7.7417266,7.7959686 7.488535,7.8785031 7.2492385,7.9648421 z"
       inkscape:connector-curvature="0" />
    <path
       id="path114"
       d="M 8.1625501,8.8169219 7.534431,8.6631322 7.5957114,8.5208769 C 7.7801851,8.6703666 7.9550632,8.6734426 8.1548901,8.7092691 8.6529046,8.7405729 9.177786,8.843157 9.487728,8.9361088 L 9.8458285,9.1494794 9.7398082,9.2024431 9.3919781,8.9937799 C 9.0957926,8.9245498 8.8092019,8.8688052 8.5034195,8.834252 8.401286,8.8297211 8.2914766,8.8290432 8.1970203,8.8707482 z"
       inkscape:connector-curvature="0" />
    <path
       id="path116"
       d="M 7.6765921,9.0073004 C 7.8220476,8.9393882 8.1705382,8.80493 8.1705382,8.80493 L 8.206547,8.865672 7.7860519,9.0781537 z"
       inkscape:connector-curvature="0" />
    <path
       id="path118"
       d="M 8.5169269,9.5216666 C 8.2373702,9.358303 7.977528,9.1854569 7.6981185,9.0218399 L 7.5439648,8.7579976 8.2086202,7.8754081 8.1302602,7.8246645 C 7.9681098,7.9194025 7.6956711,8.1550471 7.4708576,8.448564 7.3519998,8.7514068 7.4493284,9.0022666 7.6401692,9.123207 c 0.1469989,0.093157 0.2151734,0.1555429 0.3559145,0.251439 0.140741,0.095896 0.359061,0.2026566 0.5055654,0.2889466 z"
       inkscape:connector-curvature="0" />
    <path
       id="path120"
       d="M 8.1560596,8.8140582 C 7.9662691,8.7430567 7.7481874,8.707556 7.544252,8.654305 7.5312845,8.9974786 7.6031928,8.9607945 7.675101,9.0093122 z"
       inkscape:connector-curvature="0"
       style="fill:#f9f9f9" />
    <path
       id="path122"
       d="M 8.5063148,9.5070082 9.332842,8.9627495 9.4124607,8.9970036 C 9.107414,9.2169554 8.8149007,9.4796825 8.4973209,9.6568591 z"
       inkscape:connector-curvature="0" />
    <path
       id="path124"
       d="M 7.7737742,9.0661956 C 7.9930721,8.9327756 8.2414472,8.8059135 8.4981235,8.8327107 8.7750153,8.8616183 9.0718433,8.903868 9.3287995,8.9794726 9.0430474,9.1729314 8.8038118,9.3330353 8.5114141,9.5198231 8.2212317,9.4242056 7.9642761,9.2752201 7.7737742,9.0661956 z"
       inkscape:connector-curvature="0"
       style="fill:#d15903" />
    <path
       id="path126"
       d="m 8.8557774,7.825448 0.1123974,-0.0896 C 9.2966747,7.9325586 9.5169195,8.1311763 9.7086763,8.3431396 9.8280151,8.5201282 9.982415,8.7932957 9.9972979,8.9817234 L 9.8404155,9.1647244 9.7780978,8.6882673 9.3582602,8.1340718 z"
       inkscape:connector-curvature="0" />
    <path
       id="path128"
       d="M 7.5943481,8.525845 C 7.8225064,8.0166258 8.2566732,7.8809822 8.5778684,7.6786287 9.5082249,8.094454 9.5813249,8.3368335 9.7939778,8.6859488 9.82942,8.8393817 9.8715079,8.9928146 9.8404959,9.1462475 9.7053724,9.0906558 9.6034758,8.9750253 9.4351263,8.9194336 9.0120353,8.803803 8.6022348,8.7548825 8.1459169,8.7126328 7.9288332,8.6703832 7.7649138,8.6548175 7.5943481,8.525845 z"
       inkscape:connector-curvature="0"
       style="fill:#fbba1e" />
    <g
       id="g130"
       style="fill:#b1001a"
       transform="matrix(0.00717,0,0,0.00717,3.1046622,2.9016545)">
      <path
         id="path132"
         transform="matrix(1.16219,0,0,1.05263,-1296.6189,-19.56764)"
         d="m 1541.6666,673.16669 c 0,43.72254 -17.9086,79.16666 -40,79.16666 -22.0914,0 -40,-35.44412 -40,-79.16666 0,-43.72254 17.9086,-79.16667 40,-79.16667 22.0914,0 40,35.44413 40,79.16667 z"
         inkscape:connector-curvature="0" />
      <path
         id="path134"
         transform="matrix(0.99616,0,0,1,-1048.9613,16.69552)"
         d="m 1433.3333,721.5 c 0,27.154 -19.401,49.16667 -43.3333,49.16667 -23.9323,0 -43.3333,-22.01267 -43.3333,-49.16667 0,-27.154 19.401,-49.16667 43.3333,-49.16667 23.9323,0 43.3333,22.01267 43.3333,49.16667 z"
         inkscape:connector-curvature="0" />
    </g>
    <path
       inkscape:connector-curvature="0"
       d="m 5.5877034,9.8626605 c 0.9766427,0.5936035 2.8079181,0.7798085 3.8719284,0.088842 l 0.1064403,0.2005847 c -1.0951065,0.716751 -2.9752518,0.62403 -4.1208764,-0.09656 z"
       id="use4350"
       style="fill:#3489c6;fill-opacity:1" />
    <path
       id="path136"
       d="M 5.3055539,9.5805742 C 6.2821966,10.174178 8.113472,10.360383 9.1774823,9.669416 L 9.2839226,9.8700011 C 8.1888161,10.586752 6.3086708,10.494031 5.1630462,9.7734384 z"
       inkscape:connector-curvature="0" />
    <path
       id="path138"
       d="M 5.4038775,5.1744526 C 4.8763714,5.677227 4.4734974,6.4076896 4.310182,7.0736063 4.1696155,7.9943111 4.0949898,8.783732 5.1762104,9.5062529 5.3488795,9.2462817 5.5773852,9.05376 5.8288559,8.9104707 4.8788604,8.1914643 5.0322359,6.4469979 5.4038775,5.1744526 z"
       inkscape:connector-curvature="0"
       style="fill:#b1001a" />
  </g>
  <g
     inkscape:groupmode="layer"
     id="layer3"
     inkscape:label="Symbol" />
</svg>
