<svg viewBox="0 0 48 48" xmlns:xlink="http://www.w3.org/1999/xlink">
 <defs>
  <linearGradient id="0">
   <stop stop-opacity="0"/>
   <stop offset="1"/>
  </linearGradient>
  <linearGradient xlink:href="#7" id="1" gradientUnits="userSpaceOnUse" gradientTransform="translate(4e-7,-48)" y1="47" x2="0" y2="1"/>
  <clipPath id="2">
   <g transform="translate(0,-1004.3622)">
    <rect rx="4" y="1005.36" x="1" height="46" width="46" fill="#1890d0"/>
   </g>
  </clipPath>
  <clipPath id="3">
   <g transform="translate(0,-1004.3622)">
    <rect rx="4" y="1005.36" x="1" height="46" width="46" fill="#1890d0"/>
   </g>
  </clipPath>
  <linearGradient id="4" gradientUnits="userSpaceOnUse" x1="0" x2="1" gradientTransform="matrix(-0.263,-1.239134,1.058319,-0.334853,16.784115,36.873003)">
   <stop stop-color="#e21f28"/>
   <stop offset="0.52" stop-color="#e52f26"/>
   <stop offset="1" stop-color="#f1781a"/>
  </linearGradient>
  <linearGradient id="5" gradientUnits="userSpaceOnUse" x1="0" x2="1" gradientTransform="matrix(-0.082066,0.668374,-0.668374,-0.082066,12.45261,40.83263)">
   <stop stop-color="#f8cf10"/>
   <stop offset="1" stop-color="#f4a818"/>
  </linearGradient>
  <linearGradient id="6" gradientUnits="userSpaceOnUse" x1="0" x2="1" gradientTransform="matrix(-1.528229,-0.248392,0.248392,-1.528229,9.334996,39.754533)">
   <stop stop-color="#2853a3"/>
   <stop offset="0.46" stop-color="#2860af"/>
   <stop offset="1" stop-color="#2879c2"/>
  </linearGradient>
  <linearGradient id="7" gradientUnits="userSpaceOnUse" x1="0" x2="1" gradientTransform="matrix(-0.263,-1.239134,1.058319,-0.334853,16.784115,36.873003)">
   <stop stop-color="#e21f28"/>
   <stop offset="0.52" stop-color="#e52f26"/>
   <stop offset="1" stop-color="#f1781a"/>
  </linearGradient>
  <linearGradient id="8" gradientUnits="userSpaceOnUse" x1="0" x2="1" gradientTransform="matrix(-0.082066,0.668374,-0.668374,-0.082066,12.45261,40.83263)">
   <stop stop-color="#f8cf10"/>
   <stop offset="1" stop-color="#f4a818"/>
  </linearGradient>
  <linearGradient id="9" gradientUnits="userSpaceOnUse" x1="0" x2="1" gradientTransform="matrix(-1.528229,-0.248392,0.248392,-1.528229,9.334996,39.754533)">
   <stop stop-color="#2853a3"/>
   <stop offset="0.46" stop-color="#2860af"/>
   <stop offset="1" stop-color="#2879c2"/>
  </linearGradient>
 </defs>
 <g>
  <g transform="translate(0,-1004.3622)">
   <path d="m 5,1006.3622 c -2.216,0 -4,1.784 -4,4 l 0,37.25 c 0,2.216 1.784,4 4,4 l 38,0 c 2.216,0 4,-1.784 4,-4 l 0,-37.25 c 0,-2.216 -1.784,-4 -4,-4 l -38,0 z m -4,41.5 0,0.5 c 0,2.216 1.784,4 4,4 l 38,0 c 2.216,0 4,-1.784 4,-4 l 0,-0.5 c 0,2.216 -1.784,4 -4,4 l -38,0 c -2.216,0 -4,-1.784 -4,-4 z" opacity="0.02"/>
   <path d="m 1,1047.6122 0,0.25 c 0,2.216 1.784,4 4,4 l 38,0 c 2.216,0 4,-1.784 4,-4 l 0,-0.25 c 0,2.216 -1.784,4 -4,4 l -38,0 c -2.216,0 -4,-1.784 -4,-4 z" opacity="0.05"/>
   <rect width="46" height="46" x="1" y="1005.61" rx="4" opacity="0.1"/>
  </g>
 </g>
 <g>
  <g transform="translate(0,-1004.3622)">
   <rect rx="4" y="1005.36" x="1" height="46" width="46" fill="#25d7b1"/>
  </g>
 </g>
 <g>
  <rect transform="scale(1,-1)" width="46" height="46" x="1" y="-46.998" rx="4" opacity="0.1" fill="url(#8)"/>
 </g>
 <g>
  <g clip-path="url(#2)">
   <g opacity="0.1">
    <g>
     <path d="M 25.996094 24.628906 C 25.613281 24.742188 23.101562 27.785156 24.664062 30.265625 C 25.4375 30.230469 25.664062 30.125 26.417969 30.160156 L 30.527344 27.027344 L 34.453125 29.824219 C 34.980469 29.429688 37.019531 27.566406 34.101562 24.753906 C 31.351562 25.148438 28.714844 24.867188 25.996094 24.628906 Z M 25.996094 24.628906 " fill-opacity="0.102" id="A"/>
     <path d="M 30.226562 26.144531 C 28.257812 25.332031 25.882812 24.910156 24.316406 23.707031 C 24.648438 23 24.882812 22.195312 25.800781 21.582031 C 27.269531 23.242188 29.167969 23.988281 30.515625 24.847656 L 34.84375 22.101562 C 35 22.003906 35.761719 24.15625 35.761719 24.15625 L 35.410156 24.441406 C 35.191406 24.617188 31.90625 25.640625 30.582031 26.199219 Z M 30.226562 26.144531 " fill-opacity="0.102" id="B"/>
     <path d="M 30.1875 27.003906 C 29.875 27.132812 29.585938 27.292969 29.25 27.542969 C 28.253906 27.347656 26.621094 27.554688 26.117188 27.632812 C 25.101562 26.167969 25.941406 24.890625 26.230469 24.714844 C 27.53125 25.183594 28.960938 25.621094 30.1875 26.125 C 30.28125 26.199219 30.292969 26.316406 30.316406 26.414062 Z M 30.1875 27.003906 " fill-opacity="0.102" id="C"/>
     <path d="M 28.808594 26.429688 C 28.808594 26.734375 28.519531 26.984375 28.164062 26.984375 C 27.808594 26.984375 27.519531 26.734375 27.519531 26.429688 C 27.519531 26.125 27.808594 25.878906 28.164062 25.878906 C 28.519531 25.878906 28.808594 26.125 28.808594 26.429688 Z M 28.808594 26.429688 " fill-opacity="0.102" id="D"/>
     <path d="M 30.566406 26.210938 C 30.546875 26.480469 30.632812 26.75 30.664062 27.015625 C 30.953125 27.0625 31.117188 27.195312 31.34375 27.304688 C 32.257812 26.6875 33.195312 26.6875 34.085938 26.664062 C 34.09375 26.277344 34.136719 25.667969 33.660156 25.128906 C 32.628906 25.414062 31.570312 25.761719 30.566406 26.210938 Z M 30.566406 26.210938 " fill-opacity="0.102" id="E"/>
     <path d="M 31.765625 26.445312 C 31.765625 26.695312 31.585938 26.902344 31.363281 26.902344 C 31.140625 26.902344 30.960938 26.695312 30.960938 26.445312 C 30.960938 26.191406 31.140625 25.984375 31.363281 25.984375 C 31.585938 25.984375 31.765625 26.191406 31.765625 26.445312 Z M 31.765625 26.445312 " fill-opacity="0.102" id="F"/>
     <path d="M 30.210938 26.125 L 30.308594 26.394531 L 30.175781 26.984375 C 29.847656 27.132812 29.515625 27.324219 29.246094 27.542969 L 29.398438 27.78125 C 29.710938 27.609375 30.050781 27.410156 30.398438 27.21875 L 31.261719 27.628906 L 31.371094 27.300781 L 30.710938 26.984375 L 30.570312 26.140625 Z M 30.210938 26.125 " fill-opacity="0.102" id="G"/>
     <path d="M 34.710938 27.019531 L 34.441406 26.695312 C 34.472656 26.125 34.363281 25.5 34.160156 24.910156 L 33.597656 25.082031 C 33.929688 25.558594 34.144531 26.054688 34.058594 26.660156 C 33.402344 26.710938 32.476562 26.535156 31.367188 27.296875 L 31.253906 27.621094 L 31.425781 27.707031 L 31.820312 27.410156 C 32.570312 26.847656 33.808594 27.007812 34.710938 27.019531 Z M 34.710938 27.019531 " fill-opacity="0.102" id="H"/>
     <path d="M 25.683594 28.222656 L 25.714844 27.839844 C 25.097656 26.664062 25.292969 25.917969 25.714844 24.855469 L 26.042969 24.585938 L 26.25 24.667969 C 25.25 25.933594 25.671875 26.597656 26.117188 27.632812 C 27.214844 27.425781 28.257812 27.394531 29.253906 27.539062 L 29.414062 27.777344 L 28.929688 28.054688 L 28.792969 27.707031 C 27.429688 27.621094 26.535156 27.914062 25.683594 28.222656 Z M 25.683594 28.222656 " fill-opacity="0.102" id="I"/>
     <path d="M 28.921875 31.242188 L 26.695312 30.695312 L 26.914062 30.191406 C 27.566406 30.722656 28.1875 30.730469 28.894531 30.859375 C 30.660156 30.96875 32.519531 31.332031 33.617188 31.664062 L 34.886719 32.417969 L 34.511719 32.605469 L 33.277344 31.867188 C 32.226562 31.621094 31.210938 31.425781 30.128906 31.300781 C 29.765625 31.285156 29.378906 31.285156 29.042969 31.429688 Z M 28.921875 31.242188 " fill-opacity="0.102" id="J"/>
     <path d="M 27.199219 31.914062 C 27.714844 31.675781 28.949219 31.199219 28.949219 31.199219 L 29.078125 31.414062 L 27.585938 32.167969 Z M 27.199219 31.914062 " fill-opacity="0.102" id="K"/>
     <path d="M 30.175781 33.738281 C 29.1875 33.160156 28.265625 32.546875 27.277344 31.964844 L 26.730469 31.03125 L 29.085938 27.90625 L 28.808594 27.726562 C 28.234375 28.058594 27.265625 28.894531 26.472656 29.933594 C 26.050781 31.007812 26.394531 31.898438 27.070312 32.324219 C 27.589844 32.65625 27.832031 32.878906 28.332031 33.214844 C 28.832031 33.554688 29.605469 33.933594 30.125 34.242188 Z M 30.175781 33.738281 " fill-opacity="0.102" id="L"/>
     <path d="M 28.898438 31.230469 C 28.226562 30.980469 27.453125 30.851562 26.730469 30.664062 C 26.683594 31.878906 26.941406 31.75 27.195312 31.921875 Z M 28.898438 31.230469 " fill-opacity="0.102" id="M"/>
     <path d="M 30.140625 33.6875 L 33.066406 31.757812 L 33.351562 31.878906 C 32.269531 32.65625 31.234375 33.589844 30.109375 34.214844 Z M 30.140625 33.6875 " fill-opacity="0.102" id="N"/>
     <path d="M 27.542969 32.125 C 28.320312 31.652344 29.199219 31.203125 30.109375 31.296875 C 31.089844 31.398438 32.144531 31.546875 33.054688 31.816406 C 32.042969 32.503906 31.195312 33.070312 30.15625 33.730469 C 29.128906 33.390625 28.21875 32.863281 27.542969 32.125 Z M 27.542969 32.125 " fill-opacity="0.102" id="O"/>
     <path d="M 31.378906 27.726562 L 31.777344 27.410156 C 32.941406 28.105469 33.71875 28.8125 34.398438 29.5625 C 34.824219 30.1875 35.371094 31.15625 35.421875 31.824219 L 34.867188 32.472656 L 34.644531 30.785156 L 33.160156 28.820312 Z M 31.378906 27.726562 " fill-opacity="0.102" id="P"/>
     <path d="M 26.910156 30.210938 C 27.714844 28.40625 29.253906 27.925781 30.394531 27.207031 C 33.691406 28.679688 33.949219 29.539062 34.703125 30.777344 C 34.828125 31.320312 34.976562 31.863281 34.867188 32.40625 C 34.386719 32.210938 34.027344 31.800781 33.429688 31.605469 C 31.929688 31.195312 30.480469 31.019531 28.863281 30.871094 C 28.09375 30.722656 27.511719 30.667969 26.910156 30.210938 Z M 26.910156 30.210938 " fill-opacity="0.102" id="Q"/>
     <path d="M 23.578125 27.785156 C 23.578125 28.957031 23.050781 29.902344 22.398438 29.902344 C 21.746094 29.902344 21.214844 28.957031 21.214844 27.785156 C 21.214844 26.617188 21.746094 25.667969 22.398438 25.667969 C 23.050781 25.667969 23.578125 26.617188 23.578125 27.785156 Z M 23.578125 27.785156 " fill-opacity="0.102" id="R"/>
     <path d="M 20.625 29.035156 C 20.625 29.726562 20.132812 30.285156 19.527344 30.285156 C 18.921875 30.285156 18.433594 29.726562 18.433594 29.035156 C 18.433594 28.34375 18.921875 27.785156 19.527344 27.785156 C 20.132812 27.785156 20.625 28.34375 20.625 29.035156 Z M 20.625 29.035156 " fill-opacity="0.102" id="S"/>
     <path d="M 19.148438 18.335938 C 17.277344 20.117188 15.851562 22.703125 15.269531 25.0625 C 14.773438 28.324219 14.507812 31.121094 18.339844 33.683594 C 18.953125 32.761719 19.761719 32.078125 20.652344 31.570312 C 17.285156 29.023438 17.828125 22.84375 19.148438 18.335938 Z M 19.148438 18.335938 " fill-opacity="0.102" id="T"/>
     <path d="M 31.953125 39.984375 C 29.71875 39.460938 28.253906 37.007812 28.675781 34.449219 C 29.097656 31.894531 31.25 30.183594 33.507812 30.585938 L 33 33.652344 C 32.300781 33.507812 31.609375 34.121094 31.460938 35.023438 C 31.3125 35.925781 31.757812 36.773438 32.460938 36.917969 Z M 33.605469 30.605469 C 35.898438 31.078125 37.410156 33.566406 36.984375 36.160156 C 36.554688 38.753906 34.347656 40.476562 32.054688 40.003906 C 32.019531 39.996094 31.988281 39.988281 31.953125 39.984375 L 32.460938 36.917969 C 33.164062 37.0625 33.851562 36.449219 34 35.546875 C 34.152344 34.644531 33.703125 33.796875 33 33.652344 L 33.507812 30.585938 C 33.539062 30.59375 33.574219 30.601562 33.605469 30.605469 " fill-rule="evenodd"/>
     <path d="M 22.59375 34.175781 L 26.058594 34.175781 L 25.953125 39.984375 L 22.804688 39.984375 L 22.59375 34.175781 " fill-rule="evenodd"/>
     <path d="M 10.5 32.558594 C 10.445312 35.140625 10.316406 37.207031 10.304688 39.960938 C 11.890625 39.964844 12.714844 39.96875 14.304688 39.976562 C 14.3125 38.921875 14.316406 36.976562 14.316406 36.976562 C 15.3125 37.542969 15.953125 38.453125 15.953125 39.984375 C 17.40625 39.980469 18.859375 40 20.304688 39.972656 C 20.332031 39.945312 20.359375 39.914062 20.382812 39.882812 C 20.066406 39.484375 19.769531 39.128906 19.539062 38.707031 C 18.917969 37.351562 18.601562 36.578125 17.703125 36.175781 C 17.277344 35.964844 15.304688 35.773438 14.117188 35.644531 C 14.101562 34.921875 14.171875 34.492188 14.15625 33.769531 C 15.191406 33.78125 16.445312 33.792969 15.121094 35.234375 C 16.707031 35.691406 20.320312 33.847656 18.660156 31.695312 C 17.566406 30.296875 14.59375 30.617188 11.230469 30.761719 C 10.648438 30.652344 10.441406 30.261719 10.273438 29.808594 C 10.207031 29.789062 10.171875 29.785156 10.089844 29.765625 C 9.585938 30.25 9.394531 30.746094 9.871094 31.265625 C 9.097656 31.410156 8.394531 30.703125 8.09375 29.964844 C 8 29.976562 7.976562 29.976562 7.871094 29.992188 C 7.441406 31.066406 8.710938 31.917969 9.644531 31.960938 C 9.398438 32.273438 8.828125 32.667969 8.292969 32.640625 C 8.703125 33.289062 9.457031 32.820312 10.5 32.558594 " fill-rule="evenodd"/>
     <path d="M 17.6875 33.09375 C 20.207031 29.648438 24.261719 29.761719 25.074219 29.621094 L 25.324219 29.894531 L 25.84375 31.082031 L 27.546875 32.214844 L 28.863281 33.675781 L 31.253906 32.1875 L 31.636719 33.480469 C 25.667969 36.03125 21.746094 34.746094 17.6875 33.09375 Z M 17.6875 33.09375 "/>
     <path d="M 23.351562 10.152344 C 22.496094 10.257812 21.25 10.632812 21.382812 11.847656 C 21.398438 12.042969 21.511719 12.21875 21.585938 12.386719 C 21.222656 12.320312 20.757812 12.273438 20.261719 12.28125 C 19.757812 12.292969 19.222656 12.363281 18.726562 12.582031 C 18.101562 13 17.507812 13.527344 17.332031 14.183594 C 17.363281 14.5625 18.214844 15.15625 18.507812 15.292969 C 18.902344 15.472656 19.21875 15.5 19.460938 15.546875 C 19.042969 15.699219 17.859375 16.757812 17.140625 17.550781 C 15.488281 19.363281 14.261719 21.714844 13.71875 23.925781 L 13.710938 23.953125 L 13.707031 23.976562 C 13.457031 25.617188 13.246094 27.210938 13.628906 28.773438 C 14.320312 31.347656 15.855469 32.652344 17.363281 33.667969 L 17.8125 33 C 19.488281 30.480469 22.917969 29.871094 25.113281 29.675781 L 28.609375 33.515625 L 28.941406 33.878906 L 29.351562 33.601562 L 31.027344 32.457031 C 31.15625 32.742188 31.285156 33.019531 31.410156 33.300781 L 31.75 34.050781 C 33.136719 33.300781 34.21875 32.179688 34.925781 30.75 L 34.960938 30.703125 L 34.988281 30.644531 C 37.707031 24.308594 34.777344 18.203125 29.230469 15.390625 C 28.722656 13.847656 27.5 12.3125 26.144531 11.285156 C 25.433594 10.742188 24.683594 10.339844 23.925781 10.199219 C 23.738281 10.160156 23.542969 10.148438 23.351562 10.152344 Z M 23.382812 11.285156 C 23.484375 11.285156 23.59375 11.296875 23.71875 11.320312 C 24.210938 11.414062 24.839844 11.726562 25.457031 12.195312 C 26.6875 13.128906 27.855469 14.6875 28.210938 15.941406 L 28.277344 16.183594 L 28.503906 16.292969 C 32.257812 18.203125 33.457031 20.148438 34.757812 23.761719 C 34.949219 25.984375 35.226562 27.171875 33.964844 30.136719 C 33.449219 30.855469 32.839844 31.582031 32.148438 32.167969 C 32.023438 31.894531 31.894531 31.613281 31.785156 31.371094 L 31.507812 30.75 L 30.949219 31.132812 L 29.117188 32.378906 L 25.761719 28.695312 L 25.574219 28.488281 L 25.296875 28.511719 C 23.164062 28.679688 19.386719 29.15625 17.210938 31.894531 C 15.699219 30.78125 15.023438 29.679688 14.734375 28.5 C 14.421875 27.21875 14.585938 25.785156 14.832031 24.171875 C 15.328125 22.179688 16.480469 19.96875 17.980469 18.320312 C 19.363281 16.800781 21.011719 15.785156 22.6875 15.703125 C 22.851562 15.703125 23.011719 15.707031 23.175781 15.703125 L 23.199219 14.5625 C 23.1875 14.5625 23.175781 14.5625 23.164062 14.5625 C 23.160156 14.558594 23.15625 14.5625 23.152344 14.5625 C 22.984375 14.554688 22.816406 14.554688 22.648438 14.5625 C 21.691406 14.5625 20.746094 14.539062 19.8125 14.433594 C 19.484375 14.363281 19.144531 14.320312 18.925781 14.230469 C 18.761719 14.167969 18.699219 14.144531 18.671875 14.066406 C 18.777344 13.871094 18.933594 13.738281 19.183594 13.628906 C 19.476562 13.5 19.882812 13.433594 20.289062 13.425781 C 20.695312 13.417969 21.101562 13.460938 21.402344 13.515625 C 21.554688 13.542969 21.679688 13.574219 21.753906 13.59375 C 21.765625 13.597656 21.765625 13.597656 21.777344 13.601562 C 21.769531 13.597656 21.761719 13.589844 21.75 13.582031 L 21.800781 13.609375 C 21.804688 13.613281 21.820312 13.617188 21.820312 13.617188 C 21.820312 13.617188 21.820312 13.621094 21.820312 13.621094 C 23.320312 14.511719 24.242188 15.222656 26.484375 15.53125 C 26.496094 15.535156 26.507812 15.535156 26.519531 15.539062 L 26.707031 14.410156 C 26.304688 14.332031 25.167969 13.882812 24.222656 13.316406 C 23.753906 13.03125 23.316406 12.71875 23.019531 12.421875 C 22.773438 12.183594 22.648438 11.96875 22.601562 11.835938 C 22.632812 11.769531 22.671875 11.671875 22.71875 11.542969 C 22.902344 11.363281 23.109375 11.28125 23.382812 11.285156 Z M 23.382812 11.285156 " id="U"/>
     <path d="M 14.140625 22.890625 L 13.140625 20.832031 C 12.667969 21.203125 12.226562 21.550781 11.929688 21.945312 C 11.984375 22.027344 11.976562 22.109375 11.984375 22.1875 C 12.53125 22.675781 12.949219 23.105469 13.515625 23.582031 L 10.6875 22.1875 C 10.34375 22.746094 10.011719 23.460938 10.011719 24.101562 C 11.082031 24.410156 12.15625 24.507812 13.246094 24.636719 C 12.628906 24.832031 11.941406 24.949219 11.394531 25.230469 L 12.011719 26.441406 L 13.515625 25.363281 Z M 14.140625 22.890625 " id="V"/>
     <path d="M 23.167969 15.132812 C 19.042969 14.910156 15.304688 19.851562 14.273438 24.0625 C 13.773438 27.328125 13.507812 30.125 17.339844 32.683594 C 19.261719 29.792969 23.132812 29.253906 25.339844 29.078125 L 29.03125 33.128906 L 31.265625 31.605469 C 31.464844 32.046875 31.707031 32.578125 31.929688 33.0625 C 32.945312 32.355469 33.792969 31.367188 34.464844 30.417969 C 37.203125 24.332031 34.457031 19.519531 28.757812 15.785156 C 27.949219 12.910156 23.859375 9.386719 22.226562 11.226562 C 22.074219 11.671875 22.007812 11.734375 22.011719 11.800781 C 22.121094 13.144531 25.496094 14.75 26.59375 14.972656 C 24.414062 14.679688 23.648438 14.042969 22.105469 13.125 C 21.964844 12.964844 18.707031 12.273438 18.082031 13.980469 C 18.144531 14.832031 19.160156 14.878906 19.734375 15 C 20.878906 15.128906 22.023438 15.140625 23.167969 15.132812 Z M 23.167969 15.132812 "/>
     <path d="M 24.996094 23.628906 C 24.613281 23.742188 22.101562 26.785156 23.664062 29.269531 C 24.441406 29.230469 24.664062 29.128906 25.417969 29.160156 L 29.527344 26.027344 L 33.453125 28.824219 C 33.984375 28.429688 36.019531 26.566406 33.101562 23.757812 C 30.351562 24.148438 27.71875 23.867188 24.996094 23.628906 Z M 24.996094 23.628906 "/>
     <path d="M 29.230469 25.144531 C 27.257812 24.332031 24.886719 23.910156 23.320312 22.710938 C 23.648438 22 23.882812 21.195312 24.800781 20.582031 C 26.269531 22.246094 28.167969 22.988281 29.515625 23.847656 L 33.84375 21.101562 C 34 21.003906 34.761719 23.160156 34.761719 23.160156 L 34.410156 23.441406 C 34.191406 23.617188 30.90625 24.640625 29.582031 25.199219 Z M 29.230469 25.144531 " id="W"/>
     <path d="M 29.191406 26.003906 C 28.875 26.132812 28.589844 26.292969 28.25 26.546875 C 27.253906 26.347656 25.621094 26.554688 25.117188 26.632812 C 24.101562 25.171875 24.941406 23.890625 25.230469 23.714844 C 26.535156 24.183594 27.960938 24.621094 29.191406 25.125 C 29.28125 25.199219 29.296875 25.316406 29.316406 25.414062 Z M 29.191406 26.003906 "/>
     <path d="M 27.808594 25.429688 C 27.808594 25.734375 27.523438 25.984375 27.164062 25.984375 C 26.808594 25.984375 26.519531 25.734375 26.519531 25.429688 C 26.519531 25.125 26.808594 24.878906 27.164062 24.878906 C 27.523438 24.878906 27.808594 25.125 27.808594 25.429688 Z M 27.808594 25.429688 " id="X"/>
     <path d="M 29.566406 25.210938 C 29.550781 25.480469 29.632812 25.75 29.664062 26.015625 C 29.953125 26.0625 30.117188 26.195312 30.34375 26.304688 C 31.257812 25.691406 32.195312 25.691406 33.085938 25.664062 C 33.097656 25.28125 33.136719 24.667969 32.660156 24.128906 C 31.628906 24.414062 30.570312 24.761719 29.566406 25.210938 Z M 29.566406 25.210938 "/>
     <path d="M 30.765625 25.445312 C 30.765625 25.699219 30.585938 25.902344 30.363281 25.902344 C 30.140625 25.902344 29.960938 25.699219 29.960938 25.445312 C 29.960938 25.191406 30.140625 24.984375 30.363281 24.984375 C 30.585938 24.984375 30.765625 25.191406 30.765625 25.445312 Z M 30.765625 25.445312 " id="Y"/>
     <path d="M 29.210938 25.125 L 29.308594 25.398438 L 29.175781 25.988281 C 28.847656 26.132812 28.515625 26.324219 28.246094 26.542969 L 28.402344 26.78125 C 28.714844 26.609375 29.054688 26.410156 29.398438 26.21875 L 30.261719 26.628906 L 30.371094 26.300781 L 29.714844 25.988281 L 29.570312 25.140625 Z M 29.210938 25.125 " id="Z"/>
     <path d="M 33.710938 26.019531 L 33.441406 25.695312 C 33.472656 25.125 33.363281 24.5 33.160156 23.914062 L 32.601562 24.082031 C 32.929688 24.558594 33.144531 25.054688 33.0625 25.660156 C 32.402344 25.714844 31.476562 25.535156 30.367188 26.296875 L 30.253906 26.621094 L 30.425781 26.707031 L 30.820312 26.410156 C 31.570312 25.847656 32.808594 26.007812 33.710938 26.019531 Z M 33.710938 26.019531 " id="a"/>
     <path d="M 24.6875 27.222656 L 24.714844 26.839844 C 24.097656 25.664062 24.292969 24.917969 24.714844 23.855469 L 25.042969 23.585938 L 25.25 23.667969 C 24.25 24.933594 24.671875 25.597656 25.117188 26.632812 C 26.214844 26.425781 27.257812 26.398438 28.253906 26.539062 L 28.414062 26.78125 L 27.929688 27.054688 L 27.792969 26.707031 C 26.429688 26.625 25.535156 26.914062 24.6875 27.222656 Z M 24.6875 27.222656 " id="b"/>
     <path d="M 27.921875 30.242188 L 25.695312 29.695312 L 25.914062 29.191406 C 26.566406 29.722656 27.1875 29.734375 27.894531 29.859375 C 29.660156 29.96875 31.519531 30.335938 32.617188 30.664062 L 33.886719 31.417969 L 33.511719 31.605469 L 32.277344 30.867188 C 31.230469 30.621094 30.214844 30.425781 29.128906 30.300781 C 28.769531 30.285156 28.378906 30.285156 28.042969 30.433594 Z M 27.921875 30.242188 " id="c"/>
     <path d="M 26.199219 30.914062 C 26.714844 30.675781 27.949219 30.199219 27.949219 30.199219 L 28.078125 30.414062 L 26.589844 31.167969 Z M 26.199219 30.914062 " id="d"/>
     <path d="M 29.175781 32.738281 C 28.1875 32.160156 27.265625 31.546875 26.277344 30.96875 L 25.730469 30.03125 L 28.085938 26.90625 L 27.808594 26.726562 C 27.234375 27.0625 26.269531 27.894531 25.472656 28.9375 C 25.050781 30.007812 25.394531 30.898438 26.070312 31.328125 C 26.59375 31.65625 26.832031 31.878906 27.332031 32.21875 C 27.832031 32.558594 28.605469 32.933594 29.125 33.242188 Z M 29.175781 32.738281 " id="e"/>
     <path d="M 27.898438 30.230469 C 27.226562 29.980469 26.453125 29.855469 25.730469 29.664062 C 25.683594 30.878906 25.941406 30.75 26.195312 30.921875 Z M 27.898438 30.230469 "/>
     <path d="M 29.140625 32.6875 L 32.070312 30.757812 L 32.351562 30.878906 C 31.269531 31.660156 30.234375 32.589844 29.109375 33.21875 Z M 29.140625 32.6875 " id="f"/>
     <path d="M 26.542969 31.125 C 27.320312 30.652344 28.203125 30.203125 29.109375 30.296875 C 30.09375 30.398438 31.144531 30.550781 32.054688 30.816406 C 31.042969 31.503906 30.195312 32.070312 29.15625 32.730469 C 28.128906 32.394531 27.21875 31.863281 26.542969 31.125 Z M 26.542969 31.125 "/>
     <path d="M 30.378906 26.726562 L 30.777344 26.410156 C 31.941406 27.109375 32.722656 27.8125 33.402344 28.5625 C 33.824219 29.1875 34.371094 30.15625 34.421875 30.824219 L 33.867188 31.472656 L 33.644531 29.785156 L 32.160156 27.820312 Z M 30.378906 26.726562 " id="g"/>
     <path d="M 25.910156 29.210938 C 26.71875 27.40625 28.253906 26.925781 29.394531 26.207031 C 32.691406 27.679688 32.949219 28.539062 33.703125 29.777344 C 33.828125 30.320312 33.976562 30.863281 33.867188 31.40625 C 33.390625 31.210938 33.027344 30.800781 32.429688 30.605469 C 30.933594 30.195312 29.480469 30.019531 27.863281 29.871094 C 27.09375 29.722656 26.511719 29.667969 25.910156 29.210938 Z M 25.910156 29.210938 "/>
     <path d="M 22.578125 26.785156 C 22.578125 27.957031 22.050781 28.902344 21.398438 28.902344 C 20.746094 28.902344 20.214844 27.957031 20.214844 26.785156 C 20.214844 25.617188 20.746094 24.667969 21.398438 24.667969 C 22.050781 24.667969 22.578125 25.617188 22.578125 26.785156 Z M 22.578125 26.785156 "/>
     <path d="M 19.625 28.035156 C 19.625 28.726562 19.132812 29.285156 18.527344 29.285156 C 17.921875 29.285156 17.433594 28.726562 17.433594 28.035156 C 17.433594 27.347656 17.921875 26.785156 18.527344 26.785156 C 19.132812 26.785156 19.625 27.347656 19.625 28.035156 Z M 19.625 28.035156 "/>
     <path d="M 17.796875 32.945312 C 21.257812 35.050781 27.75 35.710938 31.519531 33.261719 L 31.894531 33.972656 C 28.015625 36.511719 21.351562 36.183594 17.292969 33.628906 Z M 17.796875 32.945312 " id="h"/>
     <path d="M 18.148438 17.335938 C 16.277344 19.117188 14.851562 21.703125 14.273438 24.0625 C 13.773438 27.328125 13.507812 30.125 17.339844 32.683594 C 17.953125 31.761719 18.761719 31.082031 19.652344 30.574219 C 16.285156 28.023438 16.832031 21.84375 18.148438 17.335938 Z M 18.148438 17.335938 "/>
    </g>
   </g>
  </g>
 </g>
 <g>
  <g clip-path="url(#3)">
   <g transform="translate(0,-1)">
    <g>
     <use xlink:href="#A"/>
     <use xlink:href="#B"/>
     <use xlink:href="#C"/>
     <use xlink:href="#D"/>
     <use xlink:href="#E"/>
     <use xlink:href="#F"/>
     <use xlink:href="#G"/>
     <use xlink:href="#H"/>
     <use xlink:href="#I"/>
     <use xlink:href="#J"/>
     <use xlink:href="#K"/>
     <use xlink:href="#L"/>
     <use xlink:href="#M"/>
     <use xlink:href="#N"/>
     <use xlink:href="#O"/>
     <use xlink:href="#P"/>
     <use xlink:href="#Q"/>
     <use xlink:href="#R"/>
     <use xlink:href="#S"/>
     <use xlink:href="#T"/>
     <path d="M 31.953125 39.984375 C 29.71875 39.460938 28.253906 37.007812 28.675781 34.449219 C 29.097656 31.894531 31.25 30.183594 33.507812 30.585938 L 33 33.652344 C 32.300781 33.507812 31.609375 34.121094 31.460938 35.023438 C 31.3125 35.925781 31.757812 36.773438 32.460938 36.917969 Z M 33.605469 30.605469 C 35.898438 31.078125 37.410156 33.566406 36.984375 36.160156 C 36.554688 38.753906 34.347656 40.476562 32.054688 40.003906 C 32.019531 39.996094 31.988281 39.988281 31.953125 39.984375 L 32.460938 36.917969 C 33.164062 37.0625 33.851562 36.449219 34 35.546875 C 34.152344 34.644531 33.703125 33.796875 33 33.652344 L 33.507812 30.585938 C 33.539062 30.59375 33.574219 30.601562 33.605469 30.605469 " fill="url(#7)" fill-rule="evenodd"/>
     <path d="M 22.59375 34.175781 L 26.058594 34.175781 L 25.953125 39.984375 L 22.804688 39.984375 L 22.59375 34.175781 " fill="url(#8)" fill-rule="evenodd"/>
     <path d="M 10.5 32.558594 C 10.445312 35.140625 10.316406 37.207031 10.304688 39.960938 C 11.890625 39.964844 12.714844 39.96875 14.304688 39.976562 C 14.3125 38.921875 14.316406 36.976562 14.316406 36.976562 C 15.3125 37.542969 15.953125 38.453125 15.953125 39.984375 C 17.40625 39.980469 18.859375 40 20.304688 39.972656 C 20.332031 39.945312 20.359375 39.914062 20.382812 39.882812 C 20.066406 39.484375 19.769531 39.128906 19.539062 38.707031 C 18.917969 37.351562 18.601562 36.578125 17.703125 36.175781 C 17.277344 35.964844 15.304688 35.773438 14.117188 35.644531 C 14.101562 34.921875 14.171875 34.492188 14.15625 33.769531 C 15.191406 33.78125 16.445312 33.792969 15.121094 35.234375 C 16.707031 35.691406 20.320312 33.847656 18.660156 31.695312 C 17.566406 30.296875 14.59375 30.617188 11.230469 30.761719 C 10.648438 30.652344 10.441406 30.261719 10.273438 29.808594 C 10.207031 29.789062 10.171875 29.785156 10.089844 29.765625 C 9.585938 30.25 9.394531 30.746094 9.871094 31.265625 C 9.097656 31.410156 8.394531 30.703125 8.09375 29.964844 C 8 29.976562 7.976562 29.976562 7.871094 29.992188 C 7.441406 31.066406 8.710938 31.917969 9.644531 31.960938 C 9.398438 32.273438 8.828125 32.667969 8.292969 32.640625 C 8.703125 33.289062 9.457031 32.820312 10.5 32.558594 " fill="url(#9)" fill-rule="evenodd"/>
     <path d="M 17.6875 33.09375 C 20.207031 29.648438 24.261719 29.761719 25.074219 29.621094 L 25.324219 29.894531 L 25.84375 31.082031 L 27.546875 32.214844 L 28.863281 33.675781 L 31.253906 32.1875 L 31.636719 33.480469 C 25.667969 36.03125 21.746094 34.746094 17.6875 33.09375 Z M 17.6875 33.09375 " fill="#e5a367"/>
     <use xlink:href="#U"/>
     <use xlink:href="#V"/>
     <path d="M 23.167969 15.132812 C 19.042969 14.910156 15.304688 19.851562 14.273438 24.0625 C 13.773438 27.328125 13.507812 30.125 17.339844 32.683594 C 19.261719 29.792969 23.132812 29.253906 25.339844 29.078125 L 29.03125 33.128906 L 31.265625 31.605469 C 31.464844 32.046875 31.707031 32.578125 31.929688 33.0625 C 32.945312 32.355469 33.792969 31.367188 34.464844 30.417969 C 37.203125 24.332031 34.457031 19.519531 28.757812 15.785156 C 27.949219 12.910156 23.859375 9.386719 22.226562 11.226562 C 22.074219 11.671875 22.007812 11.734375 22.011719 11.800781 C 22.121094 13.144531 25.496094 14.75 26.59375 14.972656 C 24.414062 14.679688 23.648438 14.042969 22.105469 13.125 C 21.964844 12.964844 18.707031 12.273438 18.082031 13.980469 C 18.144531 14.832031 19.160156 14.878906 19.734375 15 C 20.878906 15.128906 22.023438 15.140625 23.167969 15.132812 Z M 23.167969 15.132812 " fill="#d6042f"/>
     <path d="M 24.996094 23.628906 C 24.613281 23.742188 22.101562 26.785156 23.664062 29.269531 C 24.441406 29.230469 24.664062 29.128906 25.417969 29.160156 L 29.527344 26.027344 L 33.453125 28.824219 C 33.984375 28.429688 36.019531 26.566406 33.101562 23.757812 C 30.351562 24.148438 27.71875 23.867188 24.996094 23.628906 Z M 24.996094 23.628906 " fill="#b10019"/>
     <use xlink:href="#W"/>
     <path d="M 29.191406 26.003906 C 28.875 26.132812 28.589844 26.292969 28.25 26.546875 C 27.253906 26.347656 25.621094 26.554688 25.117188 26.632812 C 24.101562 25.171875 24.941406 23.890625 25.230469 23.714844 C 26.535156 24.183594 27.960938 24.621094 29.191406 25.125 C 29.28125 25.199219 29.296875 25.316406 29.316406 25.414062 Z M 29.191406 26.003906 " fill="#f9f9ff"/>
     <use xlink:href="#X"/>
     <path d="M 29.566406 25.210938 C 29.550781 25.480469 29.632812 25.75 29.664062 26.015625 C 29.953125 26.0625 30.117188 26.195312 30.34375 26.304688 C 31.257812 25.691406 32.195312 25.691406 33.085938 25.664062 C 33.097656 25.28125 33.136719 24.667969 32.660156 24.128906 C 31.628906 24.414062 30.570312 24.761719 29.566406 25.210938 Z M 29.566406 25.210938 " fill="#f9f9f9"/>
     <use xlink:href="#Y"/>
     <use xlink:href="#Z"/>
     <use xlink:href="#a"/>
     <use xlink:href="#b"/>
     <use xlink:href="#c"/>
     <use xlink:href="#d"/>
     <use xlink:href="#e"/>
     <path d="M 27.898438 30.230469 C 27.226562 29.980469 26.453125 29.855469 25.730469 29.664062 C 25.683594 30.878906 25.941406 30.75 26.195312 30.921875 Z M 27.898438 30.230469 " fill="#f9f9f9"/>
     <use xlink:href="#f"/>
     <path d="M 26.542969 31.125 C 27.320312 30.652344 28.203125 30.203125 29.109375 30.296875 C 30.09375 30.398438 31.144531 30.550781 32.054688 30.816406 C 31.042969 31.503906 30.195312 32.070312 29.15625 32.730469 C 28.128906 32.394531 27.21875 31.863281 26.542969 31.125 Z M 26.542969 31.125 " fill="#cf5903"/>
     <use xlink:href="#g"/>
     <path d="M 25.910156 29.210938 C 26.71875 27.40625 28.253906 26.925781 29.394531 26.207031 C 32.691406 27.679688 32.949219 28.539062 33.703125 29.777344 C 33.828125 30.320312 33.976562 30.863281 33.867188 31.40625 C 33.390625 31.210938 33.027344 30.800781 32.429688 30.605469 C 30.933594 30.195312 29.480469 30.019531 27.863281 29.871094 C 27.09375 29.722656 26.511719 29.667969 25.910156 29.210938 Z M 25.910156 29.210938 " fill="#fbb91e"/>
     <path d="M 22.578125 26.785156 C 22.578125 27.957031 22.050781 28.902344 21.398438 28.902344 C 20.746094 28.902344 20.214844 27.957031 20.214844 26.785156 C 20.214844 25.617188 20.746094 24.667969 21.398438 24.667969 C 22.050781 24.667969 22.578125 25.617188 22.578125 26.785156 Z M 22.578125 26.785156 " fill="#b10019"/>
     <path d="M 19.625 28.035156 C 19.625 28.726562 19.132812 29.285156 18.527344 29.285156 C 17.921875 29.285156 17.433594 28.726562 17.433594 28.035156 C 17.433594 27.347656 17.921875 26.785156 18.527344 26.785156 C 19.132812 26.785156 19.625 27.347656 19.625 28.035156 Z M 19.625 28.035156 " fill="#b10019"/>
     <use xlink:href="#h"/>
     <path d="M 18.148438 17.335938 C 16.277344 19.117188 14.851562 21.703125 14.273438 24.0625 C 13.773438 27.328125 13.507812 30.125 17.339844 32.683594 C 17.953125 31.761719 18.761719 31.082031 19.652344 30.574219 C 16.285156 28.023438 16.832031 21.84375 18.148438 17.335938 Z M 18.148438 17.335938 " fill="#b10019"/>
    </g>
   </g>
  </g>
 </g>
 <g>
  <g transform="translate(0,-1004.3622)">
   <path d="m 1,1043.3622 0,4 c 0,2.216 1.784,4 4,4 l 38,0 c 2.216,0 4,-1.784 4,-4 l 0,-4 c 0,2.216 -1.784,4 -4,4 l -38,0 c -2.216,0 -4,-1.784 -4,-4 z" opacity="0.1"/>
  </g>
 </g>
</svg>
