<svg viewBox="0 0 48 48" xmlns:xlink="http://www.w3.org/1999/xlink">
 <defs>
  <linearGradient id="0">
   <stop stop-opacity="0"/>
   <stop offset="1"/>
  </linearGradient>
  <linearGradient xlink:href="#0" id="1" gradientUnits="userSpaceOnUse" gradientTransform="translate(4e-7,-48)" y1="47" x2="0" y2="1"/>
  <clipPath id="2">
   <g transform="translate(0,-1004.3622)">
    <rect rx="4" y="1005.36" x="1" height="46" width="46" fill="#1890d0"/>
   </g>
  </clipPath>
  <clipPath id="3">
   <g transform="translate(0,-1004.3622)">
    <rect rx="4" y="1005.36" x="1" height="46" width="46" fill="#1890d0"/>
   </g>
  </clipPath>
 </defs>
 <g>
  <g transform="translate(0,-1004.3622)">
   <path d="m 5,1006.3622 c -2.216,0 -4,1.784 -4,4 l 0,37.25 c 0,2.216 1.784,4 4,4 l 38,0 c 2.216,0 4,-1.784 4,-4 l 0,-37.25 c 0,-2.216 -1.784,-4 -4,-4 l -38,0 z m -4,41.5 0,0.5 c 0,2.216 1.784,4 4,4 l 38,0 c 2.216,0 4,-1.784 4,-4 l 0,-0.5 c 0,2.216 -1.784,4 -4,4 l -38,0 c -2.216,0 -4,-1.784 -4,-4 z" opacity="0.02"/>
   <path d="m 1,1047.6122 0,0.25 c 0,2.216 1.784,4 4,4 l 38,0 c 2.216,0 4,-1.784 4,-4 l 0,-0.25 c 0,2.216 -1.784,4 -4,4 l -38,0 c -2.216,0 -4,-1.784 -4,-4 z" opacity="0.05"/>
   <rect width="46" height="46" x="1" y="1005.61" rx="4" opacity="0.1"/>
  </g>
 </g>
 <g>
  <g transform="translate(0,-1004.3622)">
   <rect rx="4" y="1005.36" x="1" height="46" width="46" fill="#00c6f8"/>
  </g>
 </g>
 <g>
  <rect transform="scale(1,-1)" width="46" height="46" x="1" y="-46.998" rx="4" opacity="0.1" fill="url(#1)"/>
 </g>
 <g>
  <g clip-path="url(#2)">
   <g opacity="0.1">
    <g>
     <path d="M 17 24 C 17 25.65625 15.65625 27 14 27 C 12.34375 27 11 25.65625 11 24 C 11 22.34375 12.34375 21 14 21 C 15.65625 21 17 22.34375 17 24 Z M 17 24 "/>
     <path d="M 27 24 C 27 25.65625 25.65625 27 24 27 C 22.34375 27 21 25.65625 21 24 C 21 22.34375 22.34375 21 24 21 C 25.65625 21 27 22.34375 27 24 Z M 27 24 "/>
     <path d="M 37 24 C 37 25.65625 35.65625 27 34 27 C 32.34375 27 31 25.65625 31 24 C 31 22.34375 32.34375 21 34 21 C 35.65625 21 37 22.34375 37 24 Z M 37 24 "/>
    </g>
   </g>
  </g>
 </g>
 <g>
  <g clip-path="url(#3)">
   <g transform="translate(0,-1)">
    <g>
     <path d="M 17 24 C 17 25.65625 15.65625 27 14 27 C 12.34375 27 11 25.65625 11 24 C 11 22.34375 12.34375 21 14 21 C 15.65625 21 17 22.34375 17 24 Z M 17 24 " fill="#ffffff"/>
     <path d="M 27 24 C 27 25.65625 25.65625 27 24 27 C 22.34375 27 21 25.65625 21 24 C 21 22.34375 22.34375 21 24 21 C 25.65625 21 27 22.34375 27 24 Z M 27 24 " fill="#ffffff"/>
     <path d="M 37 24 C 37 25.65625 35.65625 27 34 27 C 32.34375 27 31 25.65625 31 24 C 31 22.34375 32.34375 21 34 21 C 35.65625 21 37 22.34375 37 24 Z M 37 24 " fill="#ffffff"/>
    </g>
   </g>
  </g>
 </g>
 <g>
  <g transform="translate(0,-1004.3622)">
   <path d="m 1,1043.3622 0,4 c 0,2.216 1.784,4 4,4 l 38,0 c 2.216,0 4,-1.784 4,-4 l 0,-4 c 0,2.216 -1.784,4 -4,4 l -38,0 c -2.216,0 -4,-1.784 -4,-4 z" opacity="0.1"/>
  </g>
 </g>
</svg>
