<svg viewBox="0 0 48 48" xmlns:xlink="http://www.w3.org/1999/xlink">
 <defs>
  <linearGradient id="0">
   <stop stop-opacity="0"/>
   <stop offset="1"/>
  </linearGradient>
  <linearGradient xlink:href="#0" id="1" gradientUnits="userSpaceOnUse" gradientTransform="translate(4e-7,-48)" y1="47" x2="0" y2="1"/>
  <clipPath id="2">
   <g transform="translate(0,-1004.3622)">
    <rect rx="4" y="1005.36" x="1" height="46" width="46" fill="#1890d0"/>
   </g>
  </clipPath>
  <clipPath id="3">
   <g transform="translate(0,-1004.3622)">
    <rect rx="4" y="1005.36" x="1" height="46" width="46" fill="#1890d0"/>
   </g>
  </clipPath>
 </defs>
 <g>
  <g transform="translate(0,-1004.3622)">
   <path d="m 5,1006.3622 c -2.216,0 -4,1.784 -4,4 l 0,37.25 c 0,2.216 1.784,4 4,4 l 38,0 c 2.216,0 4,-1.784 4,-4 l 0,-37.25 c 0,-2.216 -1.784,-4 -4,-4 l -38,0 z m -4,41.5 0,0.5 c 0,2.216 1.784,4 4,4 l 38,0 c 2.216,0 4,-1.784 4,-4 l 0,-0.5 c 0,2.216 -1.784,4 -4,4 l -38,0 c -2.216,0 -4,-1.784 -4,-4 z" opacity="0.02"/>
   <path d="m 1,1047.6122 0,0.25 c 0,2.216 1.784,4 4,4 l 38,0 c 2.216,0 4,-1.784 4,-4 l 0,-0.25 c 0,2.216 -1.784,4 -4,4 l -38,0 c -2.216,0 -4,-1.784 -4,-4 z" opacity="0.05"/>
   <rect width="46" height="46" x="1" y="1005.61" rx="4" opacity="0.1"/>
  </g>
 </g>
 <g>
  <g transform="translate(0,-1004.3622)">
   <rect rx="4" y="1005.36" x="1" height="46" width="46" fill="#007ed0"/>
  </g>
 </g>
 <g>
  <rect transform="scale(1,-1)" width="46" height="46" x="1" y="-46.998" rx="4" opacity="0.1" fill="url(#1)"/>
 </g>
 <g>
  <g clip-path="url(#2)">
   <g opacity="0.1">
    <g>
     <path d="M 17.535156 11.726562 C 17.027344 11.722656 17.070312 12.234375 17.703125 12.769531 C 17.984375 13.007812 19.125 14.523438 20.238281 16.136719 L 22.265625 19.066406 L 22.265625 19.804688 C 22.265625 20.214844 22.199219 20.695312 22.117188 20.871094 C 22.003906 21.121094 22.019531 21.472656 22.191406 22.421875 C 22.394531 23.558594 22.398438 23.769531 22.210938 25.222656 C 22.097656 26.085938 22.003906 26.824219 22.003906 26.859375 C 22.003906 26.894531 21.695312 27.09375 21.320312 27.300781 C 19.957031 28.058594 17.5 29.601562 16.960938 30.039062 C 16.320312 30.558594 14.566406 31.34375 12.625 31.976562 C 11.875 32.21875 10.964844 32.5625 10.605469 32.734375 C 10.25 32.910156 9.734375 33.144531 9.460938 33.253906 C 8.6875 33.5625 8.90625 33.78125 9.988281 33.78125 C 10.496094 33.78125 10.957031 33.824219 11.011719 33.878906 C 11.269531 34.136719 11.824219 33.964844 12.160156 33.523438 C 12.613281 32.929688 13.035156 32.722656 13.992188 32.613281 C 15.015625 32.5 17.402344 31.917969 17.902344 31.660156 C 18.117188 31.550781 18.625 31.238281 19.03125 30.960938 C 19.4375 30.6875 20.316406 30.222656 20.984375 29.929688 C 21.652344 29.632812 22.613281 29.136719 23.121094 28.820312 C 24.042969 28.246094 24.046875 28.246094 25.269531 28.246094 C 26.371094 28.246094 26.652344 28.300781 27.992188 28.773438 C 31.183594 29.894531 32.933594 30.480469 34.246094 30.871094 C 34.996094 31.097656 35.875 31.441406 36.199219 31.636719 C 36.902344 32.0625 38.847656 32.3125 38.96875 31.992188 C 39.121094 31.601562 38.695312 31.320312 37.828125 31.230469 C 37.324219 31.179688 36.734375 31.011719 36.367188 30.820312 C 36.023438 30.640625 35.1875 30.199219 34.507812 29.839844 C 33.824219 29.476562 32.917969 29.078125 32.488281 28.957031 C 31.21875 28.589844 30.707031 28.320312 29.496094 27.394531 C 28.863281 26.914062 27.992188 26.339844 27.5625 26.113281 C 26.972656 25.808594 26.75 25.609375 26.65625 25.316406 C 26.585938 25.101562 26.398438 24.75 26.238281 24.535156 C 25.488281 23.523438 25.480469 23.441406 25.96875 22.128906 C 26.636719 20.324219 26.832031 20.128906 28.421875 19.640625 C 29.152344 19.414062 30.117188 19.066406 30.558594 18.867188 C 31 18.664062 31.558594 18.460938 31.796875 18.410156 C 32.035156 18.359375 32.511719 18.171875 32.855469 18 C 33.316406 17.765625 33.589844 17.707031 33.914062 17.765625 C 34.277344 17.835938 34.378906 17.804688 34.5 17.574219 C 34.710938 17.179688 34.566406 17.042969 33.945312 17.046875 C 33.128906 17.050781 31.90625 17.375 30.5625 17.941406 C 29.609375 18.34375 29.125 18.464844 28.195312 18.539062 C 27.472656 18.597656 26.808594 18.734375 26.472656 18.894531 C 25.890625 19.167969 25.457031 19.167969 25.792969 18.898438 C 26.976562 17.941406 27.082031 17.804688 27.082031 17.234375 C 27.082031 16.78125 27.015625 16.621094 26.742188 16.402344 C 26.28125 16.042969 25.78125 16.0625 24.960938 16.472656 C 23.9375 16.988281 23.949219 16.976562 24.191406 17.640625 C 24.402344 18.203125 24.398438 18.222656 24.121094 18.503906 C 23.890625 18.734375 23.773438 18.765625 23.515625 18.667969 C 23.023438 18.472656 18.738281 13.238281 18.324219 12.324219 C 18.183594 12.015625 17.988281 11.8125 17.78125 11.757812 C 17.6875 11.734375 17.605469 11.726562 17.535156 11.726562 Z M 17.535156 11.726562 " fill-opacity="0.941"/>
    </g>
   </g>
  </g>
 </g>
 <g>
  <g clip-path="url(#3)">
   <g transform="translate(0,-1)">
    <g>
     <path d="M 17.535156 11.726562 C 17.027344 11.722656 17.070312 12.234375 17.703125 12.769531 C 17.984375 13.007812 19.125 14.523438 20.238281 16.136719 L 22.265625 19.066406 L 22.265625 19.804688 C 22.265625 20.214844 22.199219 20.695312 22.117188 20.871094 C 22.003906 21.121094 22.019531 21.472656 22.191406 22.421875 C 22.394531 23.558594 22.398438 23.769531 22.210938 25.222656 C 22.097656 26.085938 22.003906 26.824219 22.003906 26.859375 C 22.003906 26.894531 21.695312 27.09375 21.320312 27.300781 C 19.957031 28.058594 17.5 29.601562 16.960938 30.039062 C 16.320312 30.558594 14.566406 31.34375 12.625 31.976562 C 11.875 32.21875 10.964844 32.5625 10.605469 32.734375 C 10.25 32.910156 9.734375 33.144531 9.460938 33.253906 C 8.6875 33.5625 8.90625 33.78125 9.988281 33.78125 C 10.496094 33.78125 10.957031 33.824219 11.011719 33.878906 C 11.269531 34.136719 11.824219 33.964844 12.160156 33.523438 C 12.613281 32.929688 13.035156 32.722656 13.992188 32.613281 C 15.015625 32.5 17.402344 31.917969 17.902344 31.660156 C 18.117188 31.550781 18.625 31.238281 19.03125 30.960938 C 19.4375 30.6875 20.316406 30.222656 20.984375 29.929688 C 21.652344 29.632812 22.613281 29.136719 23.121094 28.820312 C 24.042969 28.246094 24.046875 28.246094 25.269531 28.246094 C 26.371094 28.246094 26.652344 28.300781 27.992188 28.773438 C 31.183594 29.894531 32.933594 30.480469 34.246094 30.871094 C 34.996094 31.097656 35.875 31.441406 36.199219 31.636719 C 36.902344 32.0625 38.847656 32.3125 38.96875 31.992188 C 39.121094 31.601562 38.695312 31.320312 37.828125 31.230469 C 37.324219 31.179688 36.734375 31.011719 36.367188 30.820312 C 36.023438 30.640625 35.1875 30.199219 34.507812 29.839844 C 33.824219 29.476562 32.917969 29.078125 32.488281 28.957031 C 31.21875 28.589844 30.707031 28.320312 29.496094 27.394531 C 28.863281 26.914062 27.992188 26.339844 27.5625 26.113281 C 26.972656 25.808594 26.75 25.609375 26.65625 25.316406 C 26.585938 25.101562 26.398438 24.75 26.238281 24.535156 C 25.488281 23.523438 25.480469 23.441406 25.96875 22.128906 C 26.636719 20.324219 26.832031 20.128906 28.421875 19.640625 C 29.152344 19.414062 30.117188 19.066406 30.558594 18.867188 C 31 18.664062 31.558594 18.460938 31.796875 18.410156 C 32.035156 18.359375 32.511719 18.171875 32.855469 18 C 33.316406 17.765625 33.589844 17.707031 33.914062 17.765625 C 34.277344 17.835938 34.378906 17.804688 34.5 17.574219 C 34.710938 17.179688 34.566406 17.042969 33.945312 17.046875 C 33.128906 17.050781 31.90625 17.375 30.5625 17.941406 C 29.609375 18.34375 29.125 18.464844 28.195312 18.539062 C 27.472656 18.597656 26.808594 18.734375 26.472656 18.894531 C 25.890625 19.167969 25.457031 19.167969 25.792969 18.898438 C 26.976562 17.941406 27.082031 17.804688 27.082031 17.234375 C 27.082031 16.78125 27.015625 16.621094 26.742188 16.402344 C 26.28125 16.042969 25.78125 16.0625 24.960938 16.472656 C 23.9375 16.988281 23.949219 16.976562 24.191406 17.640625 C 24.402344 18.203125 24.398438 18.222656 24.121094 18.503906 C 23.890625 18.734375 23.773438 18.765625 23.515625 18.667969 C 23.023438 18.472656 18.738281 13.238281 18.324219 12.324219 C 18.183594 12.015625 17.988281 11.8125 17.78125 11.757812 C 17.6875 11.734375 17.605469 11.726562 17.535156 11.726562 Z M 17.535156 11.726562 " fill="#f9f9f9" fill-opacity="0.941"/>
    </g>
   </g>
  </g>
 </g>
 <g>
  <g transform="translate(0,-1004.3622)">
   <path d="m 1,1043.3622 0,4 c 0,2.216 1.784,4 4,4 l 38,0 c 2.216,0 4,-1.784 4,-4 l 0,-4 c 0,2.216 -1.784,4 -4,4 l -38,0 c -2.216,0 -4,-1.784 -4,-4 z" opacity="0.1"/>
  </g>
 </g>
</svg>
