<svg viewBox="0 0 48 48" xmlns:xlink="http://www.w3.org/1999/xlink">
 <defs>
  <linearGradient id="0">
   <stop stop-opacity="0"/>
   <stop offset="1"/>
  </linearGradient>
  <linearGradient xlink:href="#0" id="1" gradientUnits="userSpaceOnUse" gradientTransform="translate(4e-7,-48)" y1="47" x2="0" y2="1"/>
  <clipPath id="2">
   <g transform="translate(0,-1004.3622)">
    <rect rx="4" y="1005.36" x="1" height="46" width="46" fill="#1890d0"/>
   </g>
  </clipPath>
  <clipPath id="3">
   <g transform="translate(0,-1004.3622)">
    <rect rx="4" y="1005.36" x="1" height="46" width="46" fill="#1890d0"/>
   </g>
  </clipPath>
  <path id="4" d="M 23.867188 12.5 C 21.269531 12.539062 18.988281 13.808594 17.898438 15.945312 L 17.457031 16.824219 L 17.445312 19.441406 C 17.4375 21.355469 17.386719 22.117188 17.265625 22.261719 C 16.988281 22.582031 16.253906 22.644531 15.523438 22.414062 C 14.703125 22.15625 14.390625 22.148438 14.175781 22.398438 C 13.953125 22.660156 14.152344 22.878906 14.878906 23.175781 C 16.421875 23.804688 16.863281 24.054688 17.054688 24.410156 C 17.363281 24.988281 17.292969 25.527344 16.789062 26.460938 C 15.699219 28.460938 13.957031 29.957031 12.070312 30.5 C 11.757812 30.59375 11.5 30.710938 11.5 30.769531 C 11.5 30.957031 12.210938 31.234375 13.421875 31.503906 C 14.074219 31.652344 14.640625 31.808594 14.679688 31.847656 C 14.71875 31.882812 14.859375 32.222656 14.992188 32.597656 L 15.230469 33.277344 L 15.875 33.214844 C 16.796875 33.121094 18.042969 33.140625 18.621094 33.253906 C 18.890625 33.308594 19.65625 33.699219 20.316406 34.121094 C 21.773438 35.046875 22.179688 35.25 22.839844 35.410156 C 23.597656 35.597656 25.175781 35.476562 25.863281 35.179688 C 26.195312 35.039062 26.925781 34.625 27.492188 34.253906 C 28.058594 33.882812 28.714844 33.503906 28.953125 33.410156 C 29.597656 33.148438 30.875 33.050781 31.777344 33.195312 C 32.710938 33.34375 32.773438 33.304688 33.050781 32.464844 C 33.269531 31.796875 33.191406 31.84375 35.015625 31.390625 C 35.621094 31.242188 36.21875 31.042969 36.351562 30.945312 C 36.574219 30.789062 36.5625 30.765625 36.191406 30.613281 C 34.078125 29.769531 33.183594 29.164062 32.1875 27.914062 C 30.757812 26.113281 30.410156 24.867188 31.144531 24.160156 C 31.347656 23.964844 31.949219 23.644531 32.480469 23.445312 C 33.015625 23.25 33.585938 22.984375 33.75 22.855469 C 34.003906 22.65625 34.019531 22.59375 33.867188 22.414062 C 33.644531 22.152344 33.175781 22.152344 32.316406 22.40625 C 31.605469 22.617188 31.113281 22.566406 30.753906 22.253906 C 30.5625 22.085938 30.546875 21.792969 30.609375 19.898438 C 30.691406 17.242188 30.53125 16.480469 29.621094 15.179688 C 28.703125 13.871094 27.363281 13.015625 25.707031 12.675781 C 25.082031 12.546875 24.46875 12.492188 23.867188 12.5 Z M 23.867188 12.5 "/>
 </defs>
 <g>
  <g transform="translate(0,-1004.3622)">
   <path d="m 5,1006.3622 c -2.216,0 -4,1.784 -4,4 l 0,37.25 c 0,2.216 1.784,4 4,4 l 38,0 c 2.216,0 4,-1.784 4,-4 l 0,-37.25 c 0,-2.216 -1.784,-4 -4,-4 l -38,0 z m -4,41.5 0,0.5 c 0,2.216 1.784,4 4,4 l 38,0 c 2.216,0 4,-1.784 4,-4 l 0,-0.5 c 0,2.216 -1.784,4 -4,4 l -38,0 c -2.216,0 -4,-1.784 -4,-4 z" opacity="0.02"/>
   <path d="m 1,1047.6122 0,0.25 c 0,2.216 1.784,4 4,4 l 38,0 c 2.216,0 4,-1.784 4,-4 l 0,-0.25 c 0,2.216 -1.784,4 -4,4 l -38,0 c -2.216,0 -4,-1.784 -4,-4 z" opacity="0.05"/>
   <rect width="46" height="46" x="1" y="1005.61" rx="4" opacity="0.1"/>
  </g>
 </g>
 <g>
  <g transform="translate(0,-1004.3622)">
   <rect rx="4" y="1005.36" x="1" height="46" width="46" fill="#f4ee48"/>
  </g>
 </g>
 <g>
  <rect transform="scale(1,-1)" width="46" height="46" x="1" y="-46.998" rx="4" opacity="0.1" fill="url(#1)"/>
 </g>
 <g>
  <g clip-path="url(#2)">
   <g opacity="0.1">
    <g>
     <use stroke="#2d2d2d" stroke-width="0.999" xlink:href="#4"/>
     <use xlink:href="#4"/>
    </g>
   </g>
  </g>
 </g>
 <g>
  <g clip-path="url(#3)">
   <g transform="translate(0,-1)">
    <g>
     <use fill="none" stroke="#2d2d2d" stroke-width="0.999" xlink:href="#4"/>
     <use fill="#f9f9f9" xlink:href="#4"/>
    </g>
   </g>
  </g>
 </g>
 <g>
  <g transform="translate(0,-1004.3622)">
   <path d="m 1,1043.3622 0,4 c 0,2.216 1.784,4 4,4 l 38,0 c 2.216,0 4,-1.784 4,-4 l 0,-4 c 0,2.216 -1.784,4 -4,4 l -38,0 c -2.216,0 -4,-1.784 -4,-4 z" opacity="0.1"/>
  </g>
 </g>
</svg>
