<svg viewBox="0 0 48 48" xmlns:xlink="http://www.w3.org/1999/xlink">
 <defs>
  <linearGradient id="0">
   <stop stop-opacity="0"/>
   <stop offset="1"/>
  </linearGradient>
  <linearGradient xlink:href="#0" id="1" gradientUnits="userSpaceOnUse" gradientTransform="translate(4e-7,-48)" y1="47" x2="0" y2="1"/>
  <clipPath id="2">
   <g transform="translate(0,-1004.3622)">
    <rect rx="4" y="1005.36" x="1" height="46" width="46" fill="#1890d0"/>
   </g>
  </clipPath>
  <clipPath id="3">
   <g transform="translate(0,-1004.3622)">
    <rect rx="4" y="1005.36" x="1" height="46" width="46" fill="#1890d0"/>
   </g>
  </clipPath>
 </defs>
 <g>
  <g transform="translate(0,-1004.3622)">
   <path d="m 5,1006.3622 c -2.216,0 -4,1.784 -4,4 l 0,37.25 c 0,2.216 1.784,4 4,4 l 38,0 c 2.216,0 4,-1.784 4,-4 l 0,-37.25 c 0,-2.216 -1.784,-4 -4,-4 l -38,0 z m -4,41.5 0,0.5 c 0,2.216 1.784,4 4,4 l 38,0 c 2.216,0 4,-1.784 4,-4 l 0,-0.5 c 0,2.216 -1.784,4 -4,4 l -38,0 c -2.216,0 -4,-1.784 -4,-4 z" opacity="0.02"/>
   <path d="m 1,1047.6122 0,0.25 c 0,2.216 1.784,4 4,4 l 38,0 c 2.216,0 4,-1.784 4,-4 l 0,-0.25 c 0,2.216 -1.784,4 -4,4 l -38,0 c -2.216,0 -4,-1.784 -4,-4 z" opacity="0.05"/>
   <rect width="46" height="46" x="1" y="1005.61" rx="4" opacity="0.1"/>
  </g>
 </g>
 <g>
  <g transform="translate(0,-1004.3622)">
   <rect rx="4" y="1005.36" x="1" height="46" width="46" fill="#3f97b5"/>
  </g>
 </g>
 <g>
  <rect transform="scale(1,-1)" width="46" height="46" x="1" y="-46.998" rx="4" opacity="0.1" fill="url(#1)"/>
 </g>
 <g>
  <g clip-path="url(#2)">
   <g opacity="0.1">
    <g>
     <path d="M 39,0 31.953125,9.027344 C 29.726562,11.898438 27.875,14.203125 27.84375,14.171875 27.796875,14.125 26.636719,5.226562 26.636719,4.886719 c 0,-0.089844 -0.410157,-0.101563 -1,-0.035157 -2.507813,0.269532 -10.984375,1.25 -11.015625,1.277344 -0.01953,0.015625 0.804687,3.652344 1.832031,8.042969 l 1.863281,7.976563 -1.417968,1.484374 C 16.117188,24.441406 13,27.578125 9.996094,30.609375 6.988281,33.640625 0.035157,39.902344 0,40 c 0,1 0,7 0,8 2,0 5,0 7,0 0.179688,-0.164062 6.457031,-7.242188 9.140625,-10.417969 4.539063,-5.371093 5.035156,-5.914062 5.144531,-5.558593 0.06641,0.214843 0.503906,2.460937 0.96875,4.972656 0.460938,2.511718 0.84375,4.605468 0.863282,4.625 0.01562,0.02344 1.167968,-0.195313 2.554687,-0.449219 1.382813,-0.25 3.933594,-0.695313 5.660156,-1 2.296875,-0.40625 3.144531,-0.628906 3.144531,-0.792969 0,-0.125 -0.699218,-3.820312 -1.554687,-8.21875 C 32.0625,26.761719 31.375,23.058594 31.402344,22.941406 31.429688,22.824219 34.195312,19.996094 37.546875,16.625 L 48,5.6840572 C 48,4 48,2 48,0 46,0 41,0 39,0 z" fill-opacity="0.78"/>
    </g>
   </g>
  </g>
 </g>
 <g>
  <g clip-path="url(#3)">
   <g transform="translate(0,-1)">
    <g>
     <path d="M 39,0 31.953125,9.027344 C 29.726562,11.898438 27.875,14.203125 27.84375,14.171875 27.796875,14.125 26.636719,5.226562 26.636719,4.886719 c 0,-0.089844 -0.410157,-0.101563 -1,-0.035157 -2.507813,0.269532 -10.984375,1.25 -11.015625,1.277344 -0.01953,0.015625 0.804687,3.652344 1.832031,8.042969 l 1.863281,7.976563 -1.417968,1.484374 C 16.117188,24.441406 13,27.578125 9.996094,30.609375 6.988281,33.640625 0.035157,39.902344 0,40 c 0,1 0,7 0,8 2,0 5,0 7,0 0.179688,-0.164062 6.457031,-7.242188 9.140625,-10.417969 4.539063,-5.371093 5.035156,-5.914062 5.144531,-5.558593 0.06641,0.214843 0.503906,2.460937 0.96875,4.972656 0.460938,2.511718 0.84375,4.605468 0.863282,4.625 0.01562,0.02344 1.167968,-0.195313 2.554687,-0.449219 1.382813,-0.25 3.933594,-0.695313 5.660156,-1 2.296875,-0.40625 3.144531,-0.628906 3.144531,-0.792969 0,-0.125 -0.699218,-3.820312 -1.554687,-8.21875 C 32.0625,26.761719 31.375,23.058594 31.402344,22.941406 31.429688,22.824219 34.195312,19.996094 37.546875,16.625 L 48,5.6840572 C 48,4 48,2 48,0 46,0 41,0 39,0 z" fill="#ffffff" fill-opacity="0.78"/>
    </g>
   </g>
  </g>
 </g>
 <g>
  <g transform="translate(0,-1004.3622)">
   <path d="m 1,1043.3622 0,4 c 0,2.216 1.784,4 4,4 l 38,0 c 2.216,0 4,-1.784 4,-4 l 0,-4 c 0,2.216 -1.784,4 -4,4 l -38,0 c -2.216,0 -4,-1.784 -4,-4 z" opacity="0.1"/>
  </g>
 </g>
</svg>
