<svg viewBox="0 0 48 48" xmlns:xlink="http://www.w3.org/1999/xlink">
 <defs>
  <linearGradient id="0">
   <stop stop-opacity="0"/>
   <stop offset="1"/>
  </linearGradient>
  <linearGradient xlink:href="#0" id="1" gradientUnits="userSpaceOnUse" gradientTransform="translate(4e-7,-48)" y1="47" x2="0" y2="1"/>
  <clipPath id="2">
   <g transform="translate(0,-1004.3622)">
    <rect rx="4" y="1005.36" x="1" height="46" width="46" fill="#1890d0"/>
   </g>
  </clipPath>
  <clipPath id="3">
   <g transform="translate(0,-1004.3622)">
    <rect rx="4" y="1005.36" x="1" height="46" width="46" fill="#1890d0"/>
   </g>
  </clipPath>
 </defs>
 <g>
  <g transform="translate(0,-1004.3622)">
   <path d="m 5,1006.3622 c -2.216,0 -4,1.784 -4,4 l 0,37.25 c 0,2.216 1.784,4 4,4 l 38,0 c 2.216,0 4,-1.784 4,-4 l 0,-37.25 c 0,-2.216 -1.784,-4 -4,-4 l -38,0 z m -4,41.5 0,0.5 c 0,2.216 1.784,4 4,4 l 38,0 c 2.216,0 4,-1.784 4,-4 l 0,-0.5 c 0,2.216 -1.784,4 -4,4 l -38,0 c -2.216,0 -4,-1.784 -4,-4 z" opacity="0.02"/>
   <path d="m 1,1047.6122 0,0.25 c 0,2.216 1.784,4 4,4 l 38,0 c 2.216,0 4,-1.784 4,-4 l 0,-0.25 c 0,2.216 -1.784,4 -4,4 l -38,0 c -2.216,0 -4,-1.784 -4,-4 z" opacity="0.05"/>
   <rect width="46" height="46" x="1" y="1005.61" rx="4" opacity="0.1"/>
  </g>
 </g>
 <g>
  <g transform="translate(0,-1004.3622)">
   <rect rx="4" y="1005.36" x="1" height="46" width="46" fill="#eeeeee"/>
  </g>
 </g>
 <g>
  <rect transform="scale(1,-1)" width="46" height="46" x="1" y="-46.998" rx="4" opacity="0.1" fill="url(#1)"/>
 </g>
 <g>
  <g clip-path="url(#2)">
   <g opacity="0.1">
    <g>
     <path d="M 28.710938 24.96875 L 32.695312 20.894531 C 32.695312 20.894531 17.886719 12.699219 17 12.210938 C 16.660156 12.019531 16.289062 11.957031 15.957031 12.03125 Z M 28.710938 24.96875 " fill-opacity="0.102" id="4"/>
     <path d="M 31.699219 28.015625 C 34.734375 26.332031 37.050781 25.042969 37.261719 24.925781 C 37.890625 24.578125 38.546875 23.6875 37.261719 22.976562 C 36.847656 22.746094 34.59375 21.5 31.695312 19.894531 L 27.710938 23.96875 Z M 31.699219 28.015625 "/>
     <path d="M 27.710938 23.96875 L 14.96875 36.992188 C 15.253906 37.027344 15.601562 36.949219 16 36.730469 C 16.824219 36.273438 25.675781 31.359375 31.699219 28.015625 Z M 27.710938 23.96875 "/>
     <path d="M 27.710938 23.96875 L 31.695312 19.894531 C 31.695312 19.894531 16.886719 11.699219 16 11.210938 C 15.660156 11.019531 15.289062 10.957031 14.957031 11.03125 Z M 27.710938 23.96875 "/>
     <path d="M 27.710938 23.96875 L 14.957031 11.03125 C 14.433594 11.148438 14 11.613281 14 12.542969 C 14 14.050781 14 34.171875 14 35.4375 C 14 36.3125 14.339844 36.929688 14.96875 36.992188 Z M 27.710938 23.96875 "/>
    </g>
   </g>
  </g>
 </g>
 <g>
  <g clip-path="url(#3)">
   <g transform="translate(0,-1)">
    <g>
     <use xlink:href="#4"/>
     <path d="M 31.699219 28.015625 C 34.734375 26.332031 37.050781 25.042969 37.261719 24.925781 C 37.890625 24.578125 38.546875 23.6875 37.261719 22.976562 C 36.847656 22.746094 34.59375 21.5 31.695312 19.894531 L 27.710938 23.96875 Z M 31.699219 28.015625 " fill="#f9ab7d"/>
     <path d="M 27.710938 23.96875 L 14.96875 36.992188 C 15.253906 37.027344 15.601562 36.949219 16 36.730469 C 16.824219 36.273438 25.675781 31.359375 31.699219 28.015625 Z M 27.710938 23.96875 " fill="#b25367"/>
     <path d="M 27.710938 23.96875 L 31.695312 19.894531 C 31.695312 19.894531 16.886719 11.699219 16 11.210938 C 15.660156 11.019531 15.289062 10.957031 14.957031 11.03125 Z M 27.710938 23.96875 " fill="#95deb2"/>
     <path d="M 27.710938 23.96875 L 14.957031 11.03125 C 14.433594 11.148438 14 11.613281 14 12.542969 C 14 14.050781 14 34.171875 14 35.4375 C 14 36.3125 14.339844 36.929688 14.96875 36.992188 Z M 27.710938 23.96875 " fill="#43a2ac"/>
    </g>
   </g>
  </g>
 </g>
 <g>
  <g transform="translate(0,-1004.3622)">
   <path d="m 1,1043.3622 0,4 c 0,2.216 1.784,4 4,4 l 38,0 c 2.216,0 4,-1.784 4,-4 l 0,-4 c 0,2.216 -1.784,4 -4,4 l -38,0 c -2.216,0 -4,-1.784 -4,-4 z" opacity="0.1"/>
  </g>
 </g>
</svg>
