<svg width="48" xmlns="http://www.w3.org/2000/svg" height="48" viewBox="0 0 48 48" xmlns:xlink="http://www.w3.org/1999/xlink">
<defs>
<radialGradient cx="148.004" cy="160" gradientTransform="matrix(.1831 0 0 .1831 -3.10029 -5.29688)" id="radial0" r="128" gradientUnits="userSpaceOnUse">
<stop offset="0" style="stop-color:#93d1e7"/>
<stop offset="1" style="stop-color:#037386"/>
</radialGradient>
</defs>
<path style="fill:url(#radial0)" d="M 47.4375 11.546875 L 47.4375 36.453125 C 47.4375 46.703125 47.4375 47.4375 36.453125 47.4375 L 11.550781 47.4375 C 0.5625 47.4375 0.5625 46.703125 0.5625 36.453125 L 0.5625 11.546875 C 0.5625 1.296875 0.5625 0.5625 11.550781 0.5625 L 36.453125 0.5625 C 47.4375 0.5625 47.4375 1.296875 47.4375 11.546875 Z "/>
<g style="fill:#fff">
<path style="fill-opacity:.051" d="M 38.265625 47.4375 C 40.808594 47.425781 42.644531 47.355469 43.976562 46.996094 L 39.746094 39.746094 L 35.261719 47.4375 L 36.453125 47.4375 C 37.09375 47.4375 37.695312 47.4375 38.265625 47.4375 Z M 39.746094 39.746094 L 34.621094 30.957031 L 29.492188 39.746094 Z M 39.746094 39.746094 L 47.398438 39.746094 C 47.429688 38.773438 47.4375 37.683594 47.4375 36.449219 L 47.4375 35.351562 L 44.875 30.957031 Z M 44.875 30.957031 L 39.746094 22.167969 L 34.621094 30.957031 Z M 44.875 30.957031 L 47.4375 30.957031 L 47.4375 26.5625 Z M 34.621094 30.957031 L 29.492188 22.167969 L 24.367188 30.957031 Z M 24.367188 30.957031 L 19.238281 39.746094 L 29.492188 39.746094 Z M 24.367188 30.957031 L 19.238281 22.167969 L 14.113281 30.957031 Z M 14.113281 30.957031 L 8.984375 39.746094 L 19.238281 39.746094 Z M 14.113281 30.957031 L 8.984375 22.167969 L 3.859375 30.957031 Z M 3.859375 30.957031 L 0.5625 36.605469 C 0.5625 37.773438 0.574219 38.816406 0.601562 39.746094 L 8.984375 39.746094 Z M 3.859375 30.957031 L 0.5625 25.308594 L 0.5625 30.957031 Z M 8.984375 39.746094 L 4.671875 47.140625 C 6.269531 47.433594 8.480469 47.4375 11.550781 47.4375 L 13.472656 47.4375 Z M 8.984375 22.167969 L 3.859375 13.378906 L 0.5625 19.027344 L 0.5625 22.167969 Z M 8.984375 22.167969 L 19.238281 22.167969 L 14.113281 13.378906 Z M 14.113281 13.378906 L 8.984375 4.589844 L 3.859375 13.378906 Z M 14.113281 13.378906 L 24.367188 13.378906 L 19.238281 4.589844 Z M 19.238281 4.589844 L 16.886719 0.5625 L 11.546875 0.5625 C 11.472656 0.5625 11.410156 0.5625 11.335938 0.5625 L 8.984375 4.589844 Z M 19.238281 4.589844 L 29.492188 4.589844 L 27.140625 0.5625 L 21.589844 0.5625 Z M 29.492188 4.589844 L 39.746094 4.589844 L 37.394531 0.5625 C 37.082031 0.5625 36.785156 0.5625 36.449219 0.5625 L 31.84375 0.5625 Z M 29.492188 4.589844 L 24.367188 13.378906 L 34.621094 13.378906 Z M 34.621094 13.378906 L 44.875 13.378906 L 39.746094 4.589844 Z M 34.621094 13.378906 L 29.492188 22.167969 L 39.746094 22.167969 Z M 39.746094 22.167969 L 47.4375 22.167969 L 47.4375 17.773438 L 44.875 13.378906 Z M 44.875 13.378906 L 47.4375 13.378906 L 47.4375 11.546875 C 47.4375 10.632812 47.429688 9.796875 47.414062 9.023438 Z M 29.492188 22.167969 L 24.367188 13.378906 L 19.238281 22.167969 Z M 39.746094 4.589844 L 47.054688 4.589844 C 46.5 1.832031 45.167969 0.960938 42.023438 0.6875 Z M 8.984375 4.589844 L 6.679688 0.636719 C 3.019531 0.84375 1.539062 1.632812 0.945312 4.589844 Z M 3.859375 13.378906 L 0.621094 7.824219 C 0.578125 8.898438 0.5625 10.132812 0.5625 11.546875 L 0.5625 13.378906 Z M 19.238281 39.746094 L 14.753906 47.4375 L 23.726562 47.4375 Z M 29.492188 39.746094 L 25.007812 47.4375 L 33.980469 47.4375 Z M 2.59375 46.367188 L 0.992188 43.621094 C 1.285156 44.9375 1.777344 45.800781 2.59375 46.367188 Z "/>
<path d="M 24 5.25 C 13.644531 5.25 5.25 13.644531 5.25 24 C 5.25 34.355469 13.644531 42.75 24 42.75 C 34.355469 42.75 42.75 34.355469 42.75 24 C 42.75 13.644531 34.355469 5.25 24 5.25 Z M 24 7.59375 C 33.0625 7.59375 40.40625 14.9375 40.40625 24 C 40.40625 31.75 35.035156 38.25 27.808594 39.964844 C 27.734375 39.820312 27.648438 39.664062 27.660156 39.4375 C 27.703125 38.789062 27.726562 37.945312 27.808594 37.210938 C 27.890625 36.480469 28.1875 30.34375 29.246094 28.714844 C 30.300781 27.089844 33.3125 25.140625 34.371094 24.9375 C 35.429688 24.734375 35.25 24.308594 35.25 23.941406 C 35.25 23.574219 35.066406 22.773438 34.78125 22.652344 C 34.496094 22.53125 33.390625 23.246094 33.023438 23.324219 C 32.65625 23.40625 30.894531 23.558594 30.652344 23.148438 C 30.40625 22.742188 32.621094 18.597656 32.90625 18.109375 C 33.191406 17.625 33.316406 16.957031 32.789062 16.265625 C 32.261719 15.574219 31.910156 14.886719 31.703125 14.886719 C 31.035156 14.886719 29.730469 16.433594 29.246094 16.675781 C 28.757812 16.917969 24.894531 19.675781 24.527344 20.164062 C 24.160156 20.648438 23.679688 20.847656 23.148438 20.804688 C 22.621094 20.765625 20.9375 20.746094 20.367188 21.070312 C 19.796875 21.394531 17.179688 24.054688 16.53125 24.382812 C 15.878906 24.707031 15.03125 24.898438 14.625 24.9375 C 14.21875 24.976562 12.882812 26.46875 12.515625 26.753906 C 12.148438 27.039062 9.261719 28.296875 8.855469 28.539062 C 8.445312 28.785156 11.824219 32.210938 12.3125 32.292969 C 12.773438 32.367188 12.042969 34.023438 11.167969 34.195312 C 8.9375 31.394531 7.59375 27.859375 7.59375 24 C 7.59375 14.9375 14.9375 7.59375 24 7.59375 Z M 22.652344 22.535156 C 23.171875 22.480469 23.589844 22.5625 23.589844 22.5625 C 23.777344 23 22.902344 24.339844 22.09375 24.527344 C 21.289062 24.714844 19.433594 27.460938 19.371094 26.839844 C 19.308594 26.222656 20.113281 24.167969 21.042969 23.238281 C 21.503906 22.773438 22.132812 22.589844 22.652344 22.535156 Z "/>
</g>
</svg>
