<svg width="48" xmlns="http://www.w3.org/2000/svg" height="48" viewBox="0 0 48 48" xmlns:xlink="http://www.w3.org/1999/xlink">
<defs>
<radialGradient cx="148.004" cy="160" gradientTransform="matrix(.1831 0 0 .1831 -3.10029 -5.29688)" id="radial0" r="128" gradientUnits="userSpaceOnUse">
<stop offset="0" style="stop-color:#abe8be"/>
<stop offset="1" style="stop-color:#007121"/>
</radialGradient>
</defs>
<path style="fill:url(#radial0)" d="M 47.4375 11.546875 L 47.4375 36.453125 C 47.4375 46.703125 47.4375 47.4375 36.453125 47.4375 L 11.550781 47.4375 C 0.5625 47.4375 0.5625 46.703125 0.5625 36.453125 L 0.5625 11.546875 C 0.5625 1.296875 0.5625 0.5625 11.550781 0.5625 L 36.453125 0.5625 C 47.4375 0.5625 47.4375 1.296875 47.4375 11.546875 Z "/>
<g style="fill:#fff">
<path style="fill-opacity:.051" d="M 38.265625 47.4375 C 40.808594 47.425781 42.644531 47.355469 43.976562 46.996094 L 39.746094 39.746094 L 35.261719 47.4375 L 36.453125 47.4375 C 37.09375 47.4375 37.695312 47.4375 38.265625 47.4375 Z M 39.746094 39.746094 L 34.621094 30.957031 L 29.492188 39.746094 Z M 39.746094 39.746094 L 47.398438 39.746094 C 47.429688 38.773438 47.4375 37.683594 47.4375 36.449219 L 47.4375 35.351562 L 44.875 30.957031 Z M 44.875 30.957031 L 39.746094 22.167969 L 34.621094 30.957031 Z M 44.875 30.957031 L 47.4375 30.957031 L 47.4375 26.5625 Z M 34.621094 30.957031 L 29.492188 22.167969 L 24.367188 30.957031 Z M 24.367188 30.957031 L 19.238281 39.746094 L 29.492188 39.746094 Z M 24.367188 30.957031 L 19.238281 22.167969 L 14.113281 30.957031 Z M 14.113281 30.957031 L 8.984375 39.746094 L 19.238281 39.746094 Z M 14.113281 30.957031 L 8.984375 22.167969 L 3.859375 30.957031 Z M 3.859375 30.957031 L 0.5625 36.605469 C 0.5625 37.773438 0.574219 38.816406 0.601562 39.746094 L 8.984375 39.746094 Z M 3.859375 30.957031 L 0.5625 25.308594 L 0.5625 30.957031 Z M 8.984375 39.746094 L 4.671875 47.140625 C 6.269531 47.433594 8.480469 47.4375 11.550781 47.4375 L 13.472656 47.4375 Z M 8.984375 22.167969 L 3.859375 13.378906 L 0.5625 19.027344 L 0.5625 22.167969 Z M 8.984375 22.167969 L 19.238281 22.167969 L 14.113281 13.378906 Z M 14.113281 13.378906 L 8.984375 4.589844 L 3.859375 13.378906 Z M 14.113281 13.378906 L 24.367188 13.378906 L 19.238281 4.589844 Z M 19.238281 4.589844 L 16.886719 0.5625 L 11.546875 0.5625 C 11.472656 0.5625 11.410156 0.5625 11.335938 0.5625 L 8.984375 4.589844 Z M 19.238281 4.589844 L 29.492188 4.589844 L 27.140625 0.5625 L 21.589844 0.5625 Z M 29.492188 4.589844 L 39.746094 4.589844 L 37.394531 0.5625 C 37.082031 0.5625 36.785156 0.5625 36.449219 0.5625 L 31.84375 0.5625 Z M 29.492188 4.589844 L 24.367188 13.378906 L 34.621094 13.378906 Z M 34.621094 13.378906 L 44.875 13.378906 L 39.746094 4.589844 Z M 34.621094 13.378906 L 29.492188 22.167969 L 39.746094 22.167969 Z M 39.746094 22.167969 L 47.4375 22.167969 L 47.4375 17.773438 L 44.875 13.378906 Z M 44.875 13.378906 L 47.4375 13.378906 L 47.4375 11.546875 C 47.4375 10.632812 47.429688 9.796875 47.414062 9.023438 Z M 29.492188 22.167969 L 24.367188 13.378906 L 19.238281 22.167969 Z M 39.746094 4.589844 L 47.054688 4.589844 C 46.5 1.832031 45.167969 0.960938 42.023438 0.6875 Z M 8.984375 4.589844 L 6.679688 0.636719 C 3.019531 0.84375 1.539062 1.632812 0.945312 4.589844 Z M 3.859375 13.378906 L 0.621094 7.824219 C 0.578125 8.898438 0.5625 10.132812 0.5625 11.546875 L 0.5625 13.378906 Z M 19.238281 39.746094 L 14.753906 47.4375 L 23.726562 47.4375 Z M 29.492188 39.746094 L 25.007812 47.4375 L 33.980469 47.4375 Z M 2.59375 46.367188 L 0.992188 43.621094 C 1.285156 44.9375 1.777344 45.800781 2.59375 46.367188 Z "/>
<path style="stroke:#fff;stroke-linejoin:round;stroke-linecap:round;stroke-width:8.107" d="M 128.020833 -168.9375 C 127.1875 -168.9375 126.333333 -168.666667 125.708333 -168.020833 L 33 -75 C 31.729167 -73.729167 31.729167 -71.6875 33 -70.395833 L 112.083333 8.9375 L 143.916667 8.9375 L 223 -70.395833 C 224.270833 -71.6875 224.270833 -73.729167 223 -75 L 130.291667 -168.020833 C 129.666667 -168.666667 128.833333 -168.9375 128.020833 -168.9375 Z M 127.4375 -153.729167 C 129.541667 -153.791667 131.645833 -153.0625 133.291667 -151.604167 L 143.1875 -142.770833 C 146.479167 -139.854167 146.604167 -135.020833 143.479167 -131.895833 L 75.5625 -64.416667 L 56.458333 -63.875 L 50.395833 -69.270833 C 47.104167 -72.1875 46.979167 -77.0625 50.104167 -80.166667 L 121.729167 -151.270833 C 123.291667 -152.833333 125.354167 -153.666667 127.4375 -153.729167 Z M 132.291667 -99.770833 C 134.375 -99.833333 136.479167 -99.125 138.125 -97.645833 L 148.020833 -88.833333 C 151.3125 -85.895833 151.4375 -81.041667 148.291667 -77.958333 L 106.520833 -36.916667 L 87.395833 -36.4375 L 81.3125 -41.833333 C 78.020833 -44.770833 77.916667 -49.625 81.0625 -52.708333 L 126.5 -97.354167 C 128.0625 -98.916667 130.1875 -99.729167 132.291667 -99.770833 Z M 127.708333 -37.583333 C 129.729167 -37.5625 131.770833 -36.75 133.291667 -35.166667 L 142.520833 -25.708333 C 145.604167 -22.583333 145.541667 -17.583333 142.375 -14.5 L 136.520833 -8.8125 L 118 -8.979167 L 112.375 -14.75 C 109.291667 -17.895833 109.354167 -22.916667 112.520833 -26 L 122.041667 -35.270833 C 123.625 -36.8125 125.666667 -37.604167 127.708333 -37.583333 Z " transform="matrix(.1875 0 0 .1875 0 39)"/>
</g>
</svg>
