<svg width="48" xmlns="http://www.w3.org/2000/svg" height="48" viewBox="0 0 48 48" xmlns:xlink="http://www.w3.org/1999/xlink">
<defs>
<radialGradient cx="148.004" cy="160" gradientTransform="matrix(.1831 0 0 .1831 -3.10029 -5.29688)" id="radial0" r="128" gradientUnits="userSpaceOnUse">
<stop offset="0" style="stop-color:#fbe5b4"/>
<stop offset="1" style="stop-color:#d98f0a"/>
</radialGradient>
</defs>
<path style="fill:url(#radial0)" d="M 47.4375 11.546875 L 47.4375 36.453125 C 47.4375 46.703125 47.4375 47.4375 36.453125 47.4375 L 11.550781 47.4375 C 0.5625 47.4375 0.5625 46.703125 0.5625 36.453125 L 0.5625 11.546875 C 0.5625 1.296875 0.5625 0.5625 11.550781 0.5625 L 36.453125 0.5625 C 47.4375 0.5625 47.4375 1.296875 47.4375 11.546875 Z "/>
<g style="fill:#fff">
<path style="fill-opacity:.051" d="M 38.265625 47.4375 C 40.808594 47.425781 42.644531 47.355469 43.976562 46.996094 L 39.746094 39.746094 L 35.261719 47.4375 L 36.453125 47.4375 C 37.09375 47.4375 37.695312 47.4375 38.265625 47.4375 Z M 39.746094 39.746094 L 34.621094 30.957031 L 29.492188 39.746094 Z M 39.746094 39.746094 L 47.398438 39.746094 C 47.429688 38.773438 47.4375 37.683594 47.4375 36.449219 L 47.4375 35.351562 L 44.875 30.957031 Z M 44.875 30.957031 L 39.746094 22.167969 L 34.621094 30.957031 Z M 44.875 30.957031 L 47.4375 30.957031 L 47.4375 26.5625 Z M 34.621094 30.957031 L 29.492188 22.167969 L 24.367188 30.957031 Z M 24.367188 30.957031 L 19.238281 39.746094 L 29.492188 39.746094 Z M 24.367188 30.957031 L 19.238281 22.167969 L 14.113281 30.957031 Z M 14.113281 30.957031 L 8.984375 39.746094 L 19.238281 39.746094 Z M 14.113281 30.957031 L 8.984375 22.167969 L 3.859375 30.957031 Z M 3.859375 30.957031 L 0.5625 36.605469 C 0.5625 37.773438 0.574219 38.816406 0.601562 39.746094 L 8.984375 39.746094 Z M 3.859375 30.957031 L 0.5625 25.308594 L 0.5625 30.957031 Z M 8.984375 39.746094 L 4.671875 47.140625 C 6.269531 47.433594 8.480469 47.4375 11.550781 47.4375 L 13.472656 47.4375 Z M 8.984375 22.167969 L 3.859375 13.378906 L 0.5625 19.027344 L 0.5625 22.167969 Z M 8.984375 22.167969 L 19.238281 22.167969 L 14.113281 13.378906 Z M 14.113281 13.378906 L 8.984375 4.589844 L 3.859375 13.378906 Z M 14.113281 13.378906 L 24.367188 13.378906 L 19.238281 4.589844 Z M 19.238281 4.589844 L 16.886719 0.5625 L 11.546875 0.5625 C 11.472656 0.5625 11.410156 0.5625 11.335938 0.5625 L 8.984375 4.589844 Z M 19.238281 4.589844 L 29.492188 4.589844 L 27.140625 0.5625 L 21.589844 0.5625 Z M 29.492188 4.589844 L 39.746094 4.589844 L 37.394531 0.5625 C 37.082031 0.5625 36.785156 0.5625 36.449219 0.5625 L 31.84375 0.5625 Z M 29.492188 4.589844 L 24.367188 13.378906 L 34.621094 13.378906 Z M 34.621094 13.378906 L 44.875 13.378906 L 39.746094 4.589844 Z M 34.621094 13.378906 L 29.492188 22.167969 L 39.746094 22.167969 Z M 39.746094 22.167969 L 47.4375 22.167969 L 47.4375 17.773438 L 44.875 13.378906 Z M 44.875 13.378906 L 47.4375 13.378906 L 47.4375 11.546875 C 47.4375 10.632812 47.429688 9.796875 47.414062 9.023438 Z M 29.492188 22.167969 L 24.367188 13.378906 L 19.238281 22.167969 Z M 39.746094 4.589844 L 47.054688 4.589844 C 46.5 1.832031 45.167969 0.960938 42.023438 0.6875 Z M 8.984375 4.589844 L 6.679688 0.636719 C 3.019531 0.84375 1.539062 1.632812 0.945312 4.589844 Z M 3.859375 13.378906 L 0.621094 7.824219 C 0.578125 8.898438 0.5625 10.132812 0.5625 11.546875 L 0.5625 13.378906 Z M 19.238281 39.746094 L 14.753906 47.4375 L 23.726562 47.4375 Z M 29.492188 39.746094 L 25.007812 47.4375 L 33.980469 47.4375 Z M 2.59375 46.367188 L 0.992188 43.621094 C 1.285156 44.9375 1.777344 45.800781 2.59375 46.367188 Z "/>
<path d="M 18.644531 5.25 C 16.753906 5.25 15.199219 6.804688 15.199219 8.699219 L 15.199219 28.769531 C 15.199219 30.664062 16.753906 32.257812 18.644531 32.257812 L 29.355469 32.257812 C 31.246094 32.257812 32.800781 30.664062 32.800781 28.769531 L 32.800781 8.699219 C 32.800781 6.804688 31.246094 5.25 29.355469 5.25 Z M 18.644531 7.597656 L 29.355469 7.597656 C 29.988281 7.597656 30.453125 8.0625 30.453125 8.699219 L 30.453125 28.769531 C 30.453125 29.40625 29.988281 29.90625 29.355469 29.90625 L 18.644531 29.90625 C 18.011719 29.90625 17.546875 29.40625 17.546875 28.769531 L 17.546875 8.699219 C 17.546875 8.0625 18.011719 7.597656 18.644531 7.597656 Z "/>
<path d="M 9.257812 15.742188 C 7.367188 15.742188 5.8125 17.296875 5.8125 19.191406 L 5.8125 39.265625 C 5.8125 41.160156 7.367188 42.75 9.257812 42.75 L 19.964844 42.75 C 21.859375 42.75 23.414062 41.160156 23.414062 39.265625 L 23.414062 32.183594 L 21.066406 32.183594 L 21.066406 39.265625 C 21.066406 39.898438 20.601562 40.402344 19.964844 40.402344 L 9.257812 40.402344 C 8.625 40.402344 8.160156 39.898438 8.160156 39.265625 L 8.160156 19.191406 C 8.160156 18.558594 8.625 18.09375 9.257812 18.09375 L 15.199219 18.09375 L 15.199219 15.742188 Z "/>
<path d="M 32.800781 15.742188 L 32.800781 18.09375 L 38.742188 18.09375 C 39.375 18.09375 39.839844 18.558594 39.839844 19.191406 L 39.839844 39.265625 C 39.839844 39.898438 39.375 40.402344 38.742188 40.402344 L 28.035156 40.402344 C 27.398438 40.402344 26.933594 39.898438 26.933594 39.265625 L 26.933594 32.257812 L 24.585938 32.257812 L 24.585938 39.265625 C 24.585938 41.160156 26.140625 42.75 28.035156 42.75 L 38.742188 42.75 C 40.632812 42.75 42.1875 41.160156 42.1875 39.265625 L 42.1875 19.191406 C 42.1875 17.296875 40.632812 15.742188 38.742188 15.742188 Z "/>
<path d="M 14.027344 26.898438 C 14.027344 27.871094 13.238281 28.660156 12.265625 28.660156 C 11.292969 28.660156 10.507812 27.871094 10.507812 26.898438 C 10.507812 25.925781 11.292969 25.136719 12.265625 25.136719 C 13.238281 25.136719 14.027344 25.925781 14.027344 26.898438 Z "/>
<path d="M 14.027344 31.59375 C 14.027344 32.566406 13.238281 33.355469 12.265625 33.355469 C 11.292969 33.355469 10.507812 32.566406 10.507812 31.59375 C 10.507812 30.621094 11.292969 29.835938 12.265625 29.835938 C 13.238281 29.835938 14.027344 30.621094 14.027344 31.59375 Z "/>
<path d="M 18.71875 31.59375 C 18.71875 32.566406 17.933594 33.355469 16.960938 33.355469 C 15.988281 33.355469 15.199219 32.566406 15.199219 31.59375 C 15.199219 30.621094 15.988281 29.835938 16.960938 29.835938 C 17.933594 29.835938 18.71875 30.621094 18.71875 31.59375 Z "/>
<path d="M 35.148438 26.898438 C 35.148438 27.871094 34.359375 28.660156 33.386719 28.660156 C 32.414062 28.660156 31.628906 27.871094 31.628906 26.898438 C 31.628906 25.925781 32.414062 25.136719 33.386719 25.136719 C 34.359375 25.136719 35.148438 25.925781 35.148438 26.898438 Z "/>
<path d="M 35.148438 31.59375 C 35.148438 32.566406 34.359375 33.355469 33.386719 33.355469 C 32.414062 33.355469 31.628906 32.566406 31.628906 31.59375 C 31.628906 30.621094 32.414062 29.835938 33.386719 29.835938 C 34.359375 29.835938 35.148438 30.621094 35.148438 31.59375 Z "/>
<path d="M 28.785156 16.386719 C 28.097656 17.074219 26.984375 17.074219 26.296875 16.386719 C 25.609375 15.699219 25.609375 14.582031 26.296875 13.894531 C 26.984375 13.207031 28.097656 13.207031 28.785156 13.894531 C 29.472656 14.582031 29.472656 15.699219 28.785156 16.386719 Z "/>
<path d="M 25.246094 19.925781 C 24.558594 20.613281 23.445312 20.613281 22.757812 19.925781 C 22.070312 19.238281 22.070312 18.125 22.757812 17.4375 C 23.445312 16.75 24.558594 16.75 25.246094 17.4375 C 25.933594 18.125 25.933594 19.238281 25.246094 19.925781 Z "/>
<path d="M 21.707031 23.46875 C 21.019531 24.15625 19.90625 24.15625 19.21875 23.46875 C 18.53125 22.78125 18.53125 21.664062 19.21875 20.976562 C 19.90625 20.289062 21.019531 20.289062 21.707031 20.976562 C 22.394531 21.664062 22.394531 22.78125 21.707031 23.46875 Z "/>
</g>
</svg>
