<svg width="48" xmlns="http://www.w3.org/2000/svg" height="48" viewBox="0 0 48 48" xmlns:xlink="http://www.w3.org/1999/xlink">
<defs>
<radialGradient cx="148.004" cy="160" gradientTransform="matrix(.1831 0 0 .1831 -3.10029 -5.29688)" id="radial0" r="128" gradientUnits="userSpaceOnUse">
<stop offset="0" style="stop-color:#d9a89a"/>
<stop offset="1" style="stop-color:#803825"/>
</radialGradient>
</defs>
<path style="fill:url(#radial0)" d="M 47.4375 11.546875 L 47.4375 36.453125 C 47.4375 46.703125 47.4375 47.4375 36.453125 47.4375 L 11.550781 47.4375 C 0.5625 47.4375 0.5625 46.703125 0.5625 36.453125 L 0.5625 11.546875 C 0.5625 1.296875 0.5625 0.5625 11.550781 0.5625 L 36.453125 0.5625 C 47.4375 0.5625 47.4375 1.296875 47.4375 11.546875 Z "/>
<path style="fill:#fff;fill-opacity:.051" d="M 38.265625 47.4375 C 40.808594 47.425781 42.644531 47.355469 43.976562 46.996094 L 39.746094 39.746094 L 35.261719 47.4375 L 36.453125 47.4375 C 37.09375 47.4375 37.695312 47.4375 38.265625 47.4375 Z M 39.746094 39.746094 L 34.621094 30.957031 L 29.492188 39.746094 Z M 39.746094 39.746094 L 47.398438 39.746094 C 47.429688 38.773438 47.4375 37.683594 47.4375 36.449219 L 47.4375 35.351562 L 44.875 30.957031 Z M 44.875 30.957031 L 39.746094 22.167969 L 34.621094 30.957031 Z M 44.875 30.957031 L 47.4375 30.957031 L 47.4375 26.5625 Z M 34.621094 30.957031 L 29.492188 22.167969 L 24.367188 30.957031 Z M 24.367188 30.957031 L 19.238281 39.746094 L 29.492188 39.746094 Z M 24.367188 30.957031 L 19.238281 22.167969 L 14.113281 30.957031 Z M 14.113281 30.957031 L 8.984375 39.746094 L 19.238281 39.746094 Z M 14.113281 30.957031 L 8.984375 22.167969 L 3.859375 30.957031 Z M 3.859375 30.957031 L 0.5625 36.605469 C 0.5625 37.773438 0.574219 38.816406 0.601562 39.746094 L 8.984375 39.746094 Z M 3.859375 30.957031 L 0.5625 25.308594 L 0.5625 30.957031 Z M 8.984375 39.746094 L 4.671875 47.140625 C 6.269531 47.433594 8.480469 47.4375 11.550781 47.4375 L 13.472656 47.4375 Z M 8.984375 22.167969 L 3.859375 13.378906 L 0.5625 19.027344 L 0.5625 22.167969 Z M 8.984375 22.167969 L 19.238281 22.167969 L 14.113281 13.378906 Z M 14.113281 13.378906 L 8.984375 4.589844 L 3.859375 13.378906 Z M 14.113281 13.378906 L 24.367188 13.378906 L 19.238281 4.589844 Z M 19.238281 4.589844 L 16.886719 0.5625 L 11.550781 0.5625 C 11.472656 0.5625 11.410156 0.5625 11.335938 0.5625 L 8.984375 4.589844 Z M 19.238281 4.589844 L 29.492188 4.589844 L 27.140625 0.5625 L 21.589844 0.5625 Z M 29.492188 4.589844 L 39.746094 4.589844 L 37.394531 0.5625 C 37.082031 0.5625 36.785156 0.5625 36.453125 0.5625 L 31.84375 0.5625 Z M 29.492188 4.589844 L 24.367188 13.378906 L 34.621094 13.378906 Z M 34.621094 13.378906 L 44.875 13.378906 L 39.746094 4.589844 Z M 34.621094 13.378906 L 29.492188 22.167969 L 39.746094 22.167969 Z M 39.746094 22.167969 L 47.4375 22.167969 L 47.4375 17.773438 L 44.875 13.378906 Z M 44.875 13.378906 L 47.4375 13.378906 L 47.4375 11.546875 C 47.4375 10.632812 47.429688 9.796875 47.414062 9.023438 Z M 29.492188 22.167969 L 24.367188 13.378906 L 19.238281 22.167969 Z M 39.746094 4.589844 L 47.054688 4.589844 C 46.5 1.832031 45.167969 0.960938 42.023438 0.6875 Z M 8.984375 4.589844 L 6.679688 0.636719 C 3.019531 0.84375 1.539062 1.632812 0.945312 4.589844 Z M 3.859375 13.378906 L 0.621094 7.824219 C 0.578125 8.898438 0.5625 10.132812 0.5625 11.546875 L 0.5625 13.378906 Z M 19.238281 39.746094 L 14.753906 47.4375 L 23.726562 47.4375 Z M 29.492188 39.746094 L 25.007812 47.4375 L 33.980469 47.4375 Z M 2.59375 46.367188 L 0.992188 43.621094 C 1.285156 44.9375 1.777344 45.800781 2.59375 46.367188 Z "/>
<path style="fill:#fffffc" d="M 12.640625 8.96875 C 12.019531 9.035156 11.496094 9.613281 11.5 10.234375 L 11.5 41.484375 C 11.5 42.144531 12.105469 42.75 12.773438 42.75 L 35.5625 42.75 C 36.230469 42.75 36.835938 42.144531 36.835938 41.484375 L 36.835938 12.359375 C 35.992188 11.5 32.578125 9.808594 31.769531 8.964844 L 12.773438 8.964844 C 12.730469 8.964844 12.6875 8.964844 12.640625 8.964844 Z M 13.609375 11.078125 L 29.445312 11.078125 L 29.445312 14.246094 L 34.726562 14.246094 L 34.726562 40.636719 L 13.609375 40.636719 Z "/>
<g style="fill:#fff">
<path d="M 23.34375 8.085938 C 23.34375 8.085938 24.308594 17.054688 17.503906 28.890625 C 10.703125 40.730469 8.707031 39.140625 7.992188 38.730469 C 7.277344 38.320312 6.355469 36.988281 9.375 34.324219 C 12.390625 31.660156 13.566406 31.710938 13.566406 31.710938 C 13.566406 31.710938 10.804688 33.402344 9.730469 35.042969 C 8.65625 36.679688 7.789062 37.707031 8.042969 38.167969 C 8.300781 38.628906 11.382812 36.277344 12.660156 34.277344 C 14.691406 31.101562 18.527344 25.203125 20.320312 19.566406 C 22.109375 13.925781 23.34375 8.085938 23.34375 8.085938 Z "/>
<path d="M 40.113281 28.839844 C 40.113281 28.839844 39.960938 29.25 38.167969 29.097656 C 36.378906 28.941406 29.421875 26.738281 25.6875 22.230469 C 21.957031 17.71875 21.648438 11.519531 21.394531 8.289062 C 21.136719 5.0625 22.550781 5.960938 22.753906 6.371094 C 23.074219 6.640625 23.234375 7.523438 23.234375 7.523438 C 23.234375 7.523438 23.121094 6.199219 22.558594 5.636719 C 21.996094 5.074219 21.496094 5.0625 20.933594 6.035156 C 20.371094 7.007812 20.113281 9.726562 20.574219 12.339844 C 21.035156 14.953125 22.925781 20.949219 25.28125 23.714844 C 27.632812 26.484375 32.339844 28.890625 35.816406 29.609375 C 39.292969 30.328125 40.113281 28.839844 40.113281 28.839844 Z "/>
<path d="M 17.453125 30.019531 C 17.453125 30.019531 24.207031 27.816406 30.601562 27.199219 C 36.992188 26.585938 39.191406 27.253906 39.753906 27.714844 C 40.316406 28.175781 40.316406 28.6875 40.316406 28.6875 C 40.316406 28.6875 41.03125 27.972656 40.5625 27.242188 C 40.164062 26.488281 39.550781 25.867188 34.488281 26.023438 C 29.421875 26.175781 29.066406 26.378906 24.410156 27.25 C 19.757812 28.125 17.453125 30.019531 17.453125 30.019531 Z "/>
</g>
</svg>
