<svg width="48" xmlns="http://www.w3.org/2000/svg" height="48" viewBox="0 0 48 48" xmlns:xlink="http://www.w3.org/1999/xlink">
<defs>
<radialGradient cx="148.004" cy="160" gradientTransform="matrix(.1831 0 0 .1831 -3.10029 -5.29688)" id="radial0" r="128" gradientUnits="userSpaceOnUse">
<stop offset="0" style="stop-color:#c1cede"/>
<stop offset="1" style="stop-color:#1e4479"/>
</radialGradient>
</defs>
<path style="fill:url(#radial0)" d="M 47.4375 11.546875 L 47.4375 36.453125 C 47.4375 46.703125 47.4375 47.4375 36.453125 47.4375 L 11.550781 47.4375 C 0.5625 47.4375 0.5625 46.703125 0.5625 36.453125 L 0.5625 11.546875 C 0.5625 1.296875 0.5625 0.5625 11.550781 0.5625 L 36.453125 0.5625 C 47.4375 0.5625 47.4375 1.296875 47.4375 11.546875 Z "/>
<g style="fill:#fff">
<path style="fill-opacity:.051" d="M 38.128906 47.433594 C 40.671875 47.421875 42.507812 47.351562 43.839844 46.992188 L 39.613281 39.742188 L 35.125 47.433594 L 36.316406 47.433594 C 36.957031 47.433594 37.5625 47.4375 38.128906 47.433594 Z M 39.613281 39.742188 L 34.484375 30.953125 L 29.359375 39.742188 Z M 39.613281 39.742188 L 47.261719 39.742188 C 47.292969 38.773438 47.300781 37.679688 47.300781 36.449219 L 47.300781 35.347656 L 44.738281 30.953125 Z M 44.738281 30.953125 L 39.613281 22.164062 L 34.484375 30.953125 Z M 44.738281 30.953125 L 47.300781 30.953125 L 47.300781 26.558594 Z M 34.484375 30.953125 L 29.359375 22.164062 L 24.230469 30.953125 Z M 24.230469 30.953125 L 19.105469 39.742188 L 29.359375 39.742188 Z M 24.230469 30.953125 L 19.105469 22.164062 L 13.976562 30.953125 Z M 13.976562 30.953125 L 8.851562 39.742188 L 19.105469 39.742188 Z M 13.976562 30.953125 L 8.851562 22.164062 L 3.722656 30.953125 Z M 3.722656 30.953125 L 0.425781 36.601562 C 0.425781 37.769531 0.4375 38.8125 0.46875 39.742188 L 8.851562 39.742188 Z M 3.722656 30.953125 L 0.425781 25.308594 L 0.425781 30.953125 Z M 8.851562 39.742188 L 4.535156 47.136719 C 6.132812 47.429688 8.34375 47.433594 11.414062 47.433594 L 13.335938 47.433594 Z M 8.851562 22.164062 L 3.722656 13.378906 L 0.425781 19.023438 L 0.425781 22.164062 Z M 8.851562 22.164062 L 19.105469 22.164062 L 13.976562 13.378906 Z M 13.976562 13.378906 L 8.851562 4.589844 L 3.722656 13.378906 Z M 13.976562 13.378906 L 24.230469 13.378906 L 19.105469 4.589844 Z M 19.105469 4.589844 L 16.753906 0.558594 L 11.414062 0.558594 C 11.339844 0.558594 11.277344 0.558594 11.203125 0.558594 L 8.851562 4.589844 Z M 19.105469 4.589844 L 29.359375 4.589844 L 27.007812 0.558594 L 21.457031 0.558594 Z M 29.359375 4.589844 L 39.613281 4.589844 L 37.261719 0.558594 C 36.945312 0.558594 36.648438 0.558594 36.316406 0.558594 L 31.710938 0.558594 Z M 29.359375 4.589844 L 24.230469 13.378906 L 34.484375 13.378906 Z M 34.484375 13.378906 L 44.738281 13.378906 L 39.613281 4.589844 Z M 34.484375 13.378906 L 29.359375 22.164062 L 39.613281 22.164062 Z M 39.613281 22.164062 L 47.300781 22.164062 L 47.300781 17.773438 L 44.738281 13.378906 Z M 44.738281 13.378906 L 47.300781 13.378906 L 47.300781 11.546875 C 47.300781 10.628906 47.292969 9.792969 47.277344 9.023438 Z M 29.359375 22.164062 L 24.230469 13.378906 L 19.105469 22.164062 Z M 39.613281 4.589844 L 46.917969 4.589844 C 46.367188 1.828125 45.035156 0.960938 41.890625 0.6875 Z M 8.851562 4.589844 L 6.542969 0.632812 C 2.886719 0.84375 1.402344 1.628906 0.808594 4.589844 Z M 3.722656 13.378906 L 0.484375 7.820312 C 0.441406 8.894531 0.425781 10.128906 0.425781 11.546875 L 0.425781 13.378906 Z M 19.105469 39.742188 L 14.617188 47.433594 L 23.589844 47.433594 Z M 29.359375 39.742188 L 24.871094 47.433594 L 33.84375 47.433594 Z M 2.457031 46.363281 L 0.855469 43.617188 C 1.152344 44.933594 1.640625 45.800781 2.457031 46.363281 Z "/>
<path d="M 22.289062 34.867188 L 20.53125 31.976562 L 22.195312 29.152344 C 23.109375 27.597656 23.90625 26.238281 23.964844 26.136719 C 24.035156 26.011719 24.664062 26.957031 25.824219 28.929688 C 26.792969 30.570312 27.582031 31.945312 27.582031 31.980469 C 27.582031 32.058594 24.269531 37.519531 24.136719 37.660156 C 24.085938 37.710938 23.253906 36.457031 22.289062 34.867188 Z M 13.121094 36.378906 L 10.941406 35.277344 L 11.851562 33.53125 C 12.355469 32.570312 12.710938 31.738281 12.644531 31.683594 C 12.578125 31.628906 12.039062 31.222656 11.449219 30.777344 C 5 25.945312 5.480469 18.070312 12.5 13.519531 C 18.328125 9.746094 27.4375 9.332031 33.898438 12.550781 C 37.082031 14.140625 39.21875 16.1875 40.40625 18.785156 C 41.011719 20.109375 41.230469 21.074219 41.238281 22.4375 C 41.261719 25.917969 39.3125 29.160156 35.769531 31.550781 L 35.425781 31.78125 L 36.257812 33.410156 C 36.714844 34.304688 37.109375 35.085938 37.132812 35.148438 C 37.175781 35.253906 32.851562 37.492188 32.601562 37.492188 C 32.535156 37.492188 30.617188 33.871094 28.332031 29.445312 C 26.050781 25.019531 24.144531 21.398438 24.097656 21.398438 C 24.046875 21.398438 22.140625 25.003906 19.859375 29.410156 C 17.4375 34.089844 15.628906 37.433594 15.507812 37.449219 C 15.390625 37.46875 14.316406 36.984375 13.121094 36.378906 Z M 18.980469 20.066406 C 21.109375 16.035156 22.828125 12.714844 22.796875 12.683594 C 22.769531 12.65625 22.164062 12.707031 21.449219 12.796875 C 12.09375 13.988281 7.390625 20.265625 12.097656 25.265625 C 13.027344 26.253906 14.886719 27.613281 15.066406 27.4375 C 15.089844 27.414062 16.851562 24.09375 18.980469 20.066406 Z M 34.914062 26.3125 C 36.480469 25.15625 37.578125 23.503906 37.824219 21.925781 C 38.484375 17.695312 33.914062 13.832031 27.085938 12.847656 C 26.207031 12.722656 25.460938 12.652344 25.421875 12.691406 C 25.363281 12.75 31.019531 23.625 32.675781 26.644531 L 33.15625 27.515625 L 33.597656 27.238281 C 33.839844 27.085938 34.429688 26.671875 34.914062 26.3125 Z "/>
</g>
</svg>
