<svg width="48" xmlns="http://www.w3.org/2000/svg" height="48" viewBox="0 0 48 48" xmlns:xlink="http://www.w3.org/1999/xlink">
<defs>
<radialGradient cx="148.004" cy="160" gradientTransform="matrix(.1831 0 0 .1831 -3.10029 -5.29688)" id="radial0" r="128" gradientUnits="userSpaceOnUse">
<stop offset="0" style="stop-color:#add2ec"/>
<stop offset="1" style="stop-color:#13669f"/>
</radialGradient>
</defs>
<path style="fill:url(#radial0)" d="M 47.4375 11.546875 L 47.4375 36.453125 C 47.4375 46.703125 47.4375 47.4375 36.453125 47.4375 L 11.550781 47.4375 C 0.5625 47.4375 0.5625 46.703125 0.5625 36.453125 L 0.5625 11.546875 C 0.5625 1.296875 0.5625 0.5625 11.550781 0.5625 L 36.453125 0.5625 C 47.4375 0.5625 47.4375 1.296875 47.4375 11.546875 Z "/>
<g style="fill:#fff">
<path style="fill-opacity:.051" d="M 38.265625 47.4375 C 40.808594 47.425781 42.644531 47.355469 43.976562 46.996094 L 39.746094 39.746094 L 35.261719 47.4375 L 36.453125 47.4375 C 37.09375 47.4375 37.695312 47.4375 38.265625 47.4375 Z M 39.746094 39.746094 L 34.621094 30.957031 L 29.492188 39.746094 Z M 39.746094 39.746094 L 47.398438 39.746094 C 47.429688 38.773438 47.4375 37.683594 47.4375 36.449219 L 47.4375 35.351562 L 44.875 30.957031 Z M 44.875 30.957031 L 39.746094 22.167969 L 34.621094 30.957031 Z M 44.875 30.957031 L 47.4375 30.957031 L 47.4375 26.5625 Z M 34.621094 30.957031 L 29.492188 22.167969 L 24.367188 30.957031 Z M 24.367188 30.957031 L 19.238281 39.746094 L 29.492188 39.746094 Z M 24.367188 30.957031 L 19.238281 22.167969 L 14.113281 30.957031 Z M 14.113281 30.957031 L 8.984375 39.746094 L 19.238281 39.746094 Z M 14.113281 30.957031 L 8.984375 22.167969 L 3.859375 30.957031 Z M 3.859375 30.957031 L 0.5625 36.605469 C 0.5625 37.773438 0.574219 38.816406 0.601562 39.746094 L 8.984375 39.746094 Z M 3.859375 30.957031 L 0.5625 25.308594 L 0.5625 30.957031 Z M 8.984375 39.746094 L 4.671875 47.140625 C 6.269531 47.433594 8.480469 47.4375 11.550781 47.4375 L 13.472656 47.4375 Z M 8.984375 22.167969 L 3.859375 13.378906 L 0.5625 19.027344 L 0.5625 22.167969 Z M 8.984375 22.167969 L 19.238281 22.167969 L 14.113281 13.378906 Z M 14.113281 13.378906 L 8.984375 4.589844 L 3.859375 13.378906 Z M 14.113281 13.378906 L 24.367188 13.378906 L 19.238281 4.589844 Z M 19.238281 4.589844 L 16.886719 0.5625 L 11.546875 0.5625 C 11.472656 0.5625 11.410156 0.5625 11.335938 0.5625 L 8.984375 4.589844 Z M 19.238281 4.589844 L 29.492188 4.589844 L 27.140625 0.5625 L 21.589844 0.5625 Z M 29.492188 4.589844 L 39.746094 4.589844 L 37.394531 0.5625 C 37.082031 0.5625 36.785156 0.5625 36.449219 0.5625 L 31.84375 0.5625 Z M 29.492188 4.589844 L 24.367188 13.378906 L 34.621094 13.378906 Z M 34.621094 13.378906 L 44.875 13.378906 L 39.746094 4.589844 Z M 34.621094 13.378906 L 29.492188 22.167969 L 39.746094 22.167969 Z M 39.746094 22.167969 L 47.4375 22.167969 L 47.4375 17.773438 L 44.875 13.378906 Z M 44.875 13.378906 L 47.4375 13.378906 L 47.4375 11.546875 C 47.4375 10.632812 47.429688 9.796875 47.414062 9.023438 Z M 29.492188 22.167969 L 24.367188 13.378906 L 19.238281 22.167969 Z M 39.746094 4.589844 L 47.054688 4.589844 C 46.5 1.832031 45.167969 0.960938 42.023438 0.6875 Z M 8.984375 4.589844 L 6.679688 0.636719 C 3.019531 0.84375 1.539062 1.632812 0.945312 4.589844 Z M 3.859375 13.378906 L 0.621094 7.824219 C 0.578125 8.898438 0.5625 10.132812 0.5625 11.546875 L 0.5625 13.378906 Z M 19.238281 39.746094 L 14.753906 47.4375 L 23.726562 47.4375 Z M 29.492188 39.746094 L 25.007812 47.4375 L 33.980469 47.4375 Z M 2.59375 46.367188 L 0.992188 43.621094 C 1.285156 44.9375 1.777344 45.800781 2.59375 46.367188 Z "/>
<path d="M 8.199219 24.09375 C 8.199219 26.273438 8.628906 27.980469 9.496094 29.21875 C 10.371094 30.460938 11.566406 31.078125 13.089844 31.078125 C 14.609375 31.078125 15.808594 30.460938 16.683594 29.21875 C 17.558594 27.980469 17.996094 26.273438 17.996094 24.09375 C 17.996094 21.90625 17.558594 20.195312 16.683594 18.953125 C 15.808594 17.714844 14.609375 17.09375 13.089844 17.09375 C 11.566406 17.09375 10.371094 17.714844 9.496094 18.953125 C 8.628906 20.195312 8.199219 21.90625 8.199219 24.09375 Z M 17.996094 30.390625 C 17.390625 31.464844 16.625 32.261719 15.699219 32.78125 C 14.78125 33.300781 13.675781 33.5625 12.386719 33.5625 C 10.269531 33.5625 8.546875 32.695312 7.214844 30.953125 C 5.890625 29.214844 5.230469 26.929688 5.230469 24.09375 C 5.230469 21.25 5.890625 18.960938 7.214844 17.21875 C 8.546875 15.480469 10.269531 14.609375 12.386719 14.609375 C 13.675781 14.609375 14.78125 14.871094 15.699219 15.390625 C 16.625 15.914062 17.390625 16.710938 17.996094 17.78125 L 17.996094 15.046875 L 20.871094 15.046875 L 20.871094 39.953125 L 17.996094 39.953125 Z "/>
<path d="M 39.289062 24.09375 C 39.289062 21.90625 38.851562 20.195312 37.976562 18.953125 C 37.109375 17.714844 35.917969 17.09375 34.398438 17.09375 C 32.875 17.09375 31.679688 17.714844 30.804688 18.953125 C 29.9375 20.195312 29.507812 21.90625 29.507812 24.09375 C 29.507812 26.273438 29.9375 27.980469 30.804688 29.21875 C 31.679688 30.460938 32.875 31.078125 34.398438 31.078125 C 35.917969 31.078125 37.109375 30.460938 37.976562 29.21875 C 38.851562 27.980469 39.289062 26.273438 39.289062 24.09375 Z M 29.507812 17.78125 C 30.109375 16.710938 30.871094 15.914062 31.789062 15.390625 C 32.714844 14.871094 33.820312 14.609375 35.101562 14.609375 C 37.226562 14.609375 38.949219 15.480469 40.273438 17.21875 C 41.605469 18.960938 42.273438 21.25 42.273438 24.09375 C 42.273438 26.929688 41.605469 29.214844 40.273438 30.953125 C 38.949219 32.695312 37.226562 33.5625 35.101562 33.5625 C 33.820312 33.5625 32.714844 33.300781 31.789062 32.78125 C 30.871094 32.261719 30.109375 31.464844 29.507812 30.390625 L 29.507812 33.09375 L 26.617188 33.09375 L 26.617188 8.015625 L 29.507812 8.015625 Z "/>
</g>
</svg>
