<svg width="48" xmlns="http://www.w3.org/2000/svg" height="48" viewBox="0 0 48 48" xmlns:xlink="http://www.w3.org/1999/xlink">
<defs>
<radialGradient cx="148.004" cy="160" gradientTransform="matrix(.1831 0 0 .1831 -3.10029 -5.29688)" id="radial0" r="128" gradientUnits="userSpaceOnUse">
<stop offset="0" style="stop-color:#dda3a8"/>
<stop offset="1" style="stop-color:#932f38"/>
</radialGradient>
</defs>
<path style="fill:url(#radial0)" d="M 47.4375 11.546875 L 47.4375 36.453125 C 47.4375 46.703125 47.4375 47.4375 36.453125 47.4375 L 11.550781 47.4375 C 0.5625 47.4375 0.5625 46.703125 0.5625 36.453125 L 0.5625 11.546875 C 0.5625 1.296875 0.5625 0.5625 11.550781 0.5625 L 36.453125 0.5625 C 47.4375 0.5625 47.4375 1.296875 47.4375 11.546875 Z "/>
<g style="fill:#fff">
<path style="fill-opacity:.051" d="M 38.265625 47.4375 C 40.808594 47.425781 42.644531 47.355469 43.976562 46.996094 L 39.746094 39.746094 L 35.261719 47.4375 L 36.453125 47.4375 C 37.09375 47.4375 37.695312 47.4375 38.265625 47.4375 Z M 39.746094 39.746094 L 34.621094 30.957031 L 29.492188 39.746094 Z M 39.746094 39.746094 L 47.398438 39.746094 C 47.429688 38.773438 47.4375 37.683594 47.4375 36.449219 L 47.4375 35.351562 L 44.875 30.957031 Z M 44.875 30.957031 L 39.746094 22.167969 L 34.621094 30.957031 Z M 44.875 30.957031 L 47.4375 30.957031 L 47.4375 26.5625 Z M 34.621094 30.957031 L 29.492188 22.167969 L 24.367188 30.957031 Z M 24.367188 30.957031 L 19.238281 39.746094 L 29.492188 39.746094 Z M 24.367188 30.957031 L 19.238281 22.167969 L 14.113281 30.957031 Z M 14.113281 30.957031 L 8.984375 39.746094 L 19.238281 39.746094 Z M 14.113281 30.957031 L 8.984375 22.167969 L 3.859375 30.957031 Z M 3.859375 30.957031 L 0.5625 36.605469 C 0.5625 37.773438 0.574219 38.816406 0.601562 39.746094 L 8.984375 39.746094 Z M 3.859375 30.957031 L 0.5625 25.308594 L 0.5625 30.957031 Z M 8.984375 39.746094 L 4.671875 47.140625 C 6.269531 47.433594 8.480469 47.4375 11.550781 47.4375 L 13.472656 47.4375 Z M 8.984375 22.167969 L 3.859375 13.378906 L 0.5625 19.027344 L 0.5625 22.167969 Z M 8.984375 22.167969 L 19.238281 22.167969 L 14.113281 13.378906 Z M 14.113281 13.378906 L 8.984375 4.589844 L 3.859375 13.378906 Z M 14.113281 13.378906 L 24.367188 13.378906 L 19.238281 4.589844 Z M 19.238281 4.589844 L 16.886719 0.5625 L 11.546875 0.5625 C 11.472656 0.5625 11.410156 0.5625 11.335938 0.5625 L 8.984375 4.589844 Z M 19.238281 4.589844 L 29.492188 4.589844 L 27.140625 0.5625 L 21.589844 0.5625 Z M 29.492188 4.589844 L 39.746094 4.589844 L 37.394531 0.5625 C 37.082031 0.5625 36.785156 0.5625 36.449219 0.5625 L 31.84375 0.5625 Z M 29.492188 4.589844 L 24.367188 13.378906 L 34.621094 13.378906 Z M 34.621094 13.378906 L 44.875 13.378906 L 39.746094 4.589844 Z M 34.621094 13.378906 L 29.492188 22.167969 L 39.746094 22.167969 Z M 39.746094 22.167969 L 47.4375 22.167969 L 47.4375 17.773438 L 44.875 13.378906 Z M 44.875 13.378906 L 47.4375 13.378906 L 47.4375 11.546875 C 47.4375 10.632812 47.429688 9.796875 47.414062 9.023438 Z M 29.492188 22.167969 L 24.367188 13.378906 L 19.238281 22.167969 Z M 39.746094 4.589844 L 47.054688 4.589844 C 46.5 1.832031 45.167969 0.960938 42.023438 0.6875 Z M 8.984375 4.589844 L 6.679688 0.636719 C 3.019531 0.84375 1.539062 1.632812 0.945312 4.589844 Z M 3.859375 13.378906 L 0.621094 7.824219 C 0.578125 8.898438 0.5625 10.132812 0.5625 11.546875 L 0.5625 13.378906 Z M 19.238281 39.746094 L 14.753906 47.4375 L 23.726562 47.4375 Z M 29.492188 39.746094 L 25.007812 47.4375 L 33.980469 47.4375 Z M 2.59375 46.367188 L 0.992188 43.621094 C 1.285156 44.9375 1.777344 45.800781 2.59375 46.367188 Z "/>
<path d="M 29.46875 16.1875 C 29.46875 16.398438 29.390625 16.582031 29.238281 16.738281 C 29.082031 16.890625 28.898438 16.96875 28.6875 16.96875 C 28.476562 16.96875 28.292969 16.890625 28.136719 16.738281 C 27.984375 16.582031 27.90625 16.398438 27.90625 16.1875 C 27.90625 15.4375 27.46875 14.859375 26.589844 14.453125 C 25.710938 14.046875 24.847656 13.84375 24 13.84375 C 23.789062 13.84375 23.605469 13.765625 23.449219 13.613281 C 23.296875 13.457031 23.21875 13.273438 23.21875 13.0625 C 23.21875 12.851562 23.296875 12.667969 23.449219 12.511719 C 23.605469 12.359375 23.789062 12.28125 24 12.28125 C 24.8125 12.28125 25.625 12.410156 26.429688 12.671875 C 27.234375 12.933594 27.941406 13.371094 28.554688 13.988281 C 29.164062 14.609375 29.46875 15.339844 29.46875 16.1875 Z M 33.375 16.1875 C 33.375 15.015625 33.09375 13.925781 32.53125 12.914062 C 31.972656 11.90625 31.238281 11.082031 30.335938 10.4375 C 29.433594 9.792969 28.429688 9.289062 27.332031 8.925781 C 26.234375 8.558594 25.125 8.375 24 8.375 C 22.878906 8.375 21.765625 8.558594 20.667969 8.925781 C 19.570312 9.289062 18.566406 9.792969 17.664062 10.4375 C 16.761719 11.082031 16.027344 11.90625 15.46875 12.914062 C 14.90625 13.925781 14.625 15.015625 14.625 16.1875 C 14.625 17.832031 15.179688 19.296875 16.285156 20.582031 C 16.449219 20.761719 16.695312 21.03125 17.03125 21.386719 C 17.363281 21.746094 17.613281 22.015625 17.773438 22.191406 C 19.859375 24.683594 21.003906 27.109375 21.21875 29.46875 L 26.785156 29.46875 C 26.996094 27.109375 28.140625 24.683594 30.226562 22.191406 C 30.386719 22.015625 30.636719 21.746094 30.96875 21.386719 C 31.304688 21.03125 31.550781 20.761719 31.714844 20.582031 C 32.820312 19.296875 33.375 17.832031 33.375 16.1875 Z M 36.5 16.1875 C 36.5 18.710938 35.660156 20.890625 33.984375 22.730469 C 33.253906 23.527344 32.648438 24.234375 32.167969 24.855469 C 31.6875 25.472656 31.203125 26.25 30.714844 27.1875 C 30.226562 28.121094 29.949219 28.996094 29.882812 29.808594 C 30.648438 30.265625 31.03125 30.933594 31.03125 31.8125 C 31.03125 32.414062 30.828125 32.933594 30.421875 33.375 C 30.828125 33.8125 31.03125 34.335938 31.03125 34.9375 C 31.03125 35.785156 30.664062 36.441406 29.933594 36.914062 C 30.144531 37.289062 30.25 37.671875 30.25 38.0625 C 30.25 38.8125 29.992188 39.390625 29.480469 39.796875 C 28.96875 40.203125 28.335938 40.40625 27.589844 40.40625 C 27.261719 41.121094 26.773438 41.691406 26.125 42.117188 C 25.472656 42.539062 24.765625 42.75 24 42.75 C 23.234375 42.75 22.527344 42.539062 21.875 42.117188 C 21.226562 41.691406 20.738281 41.121094 20.410156 40.40625 C 19.664062 40.40625 19.03125 40.203125 18.519531 39.796875 C 18.007812 39.390625 17.75 38.8125 17.75 38.0625 C 17.75 37.671875 17.855469 37.289062 18.066406 36.914062 C 17.335938 36.441406 16.96875 35.785156 16.96875 34.9375 C 16.96875 34.335938 17.171875 33.8125 17.578125 33.375 C 17.171875 32.933594 16.96875 32.414062 16.96875 31.8125 C 16.96875 30.933594 17.351562 30.265625 18.117188 29.808594 C 18.050781 28.996094 17.773438 28.121094 17.285156 27.1875 C 16.796875 26.25 16.3125 25.472656 15.832031 24.855469 C 15.351562 24.234375 14.746094 23.527344 14.015625 22.730469 C 12.339844 20.890625 11.5 18.710938 11.5 16.1875 C 11.5 14.574219 11.863281 13.074219 12.585938 11.683594 C 13.3125 10.292969 14.261719 9.136719 15.441406 8.214844 C 16.621094 7.296875 17.957031 6.570312 19.445312 6.042969 C 20.9375 5.515625 22.453125 5.25 24 5.25 C 25.546875 5.25 27.0625 5.515625 28.554688 6.042969 C 30.042969 6.570312 31.378906 7.296875 32.558594 8.214844 C 33.738281 9.136719 34.691406 10.292969 35.414062 11.683594 C 36.136719 13.074219 36.5 14.574219 36.5 16.1875 Z "/>
</g>
</svg>
