<svg width="48" xmlns="http://www.w3.org/2000/svg" height="48" viewBox="0 0 48 48" xmlns:xlink="http://www.w3.org/1999/xlink">
<defs>
<radialGradient cx="148.004" cy="160" gradientTransform="matrix(.1831 0 0 .1831 -3.10029 -5.29688)" id="radial0" r="128" gradientUnits="userSpaceOnUse">
<stop offset="0" style="stop-color:#d4fbf2"/>
<stop offset="1" style="stop-color:#008766"/>
</radialGradient>
</defs>
<path style="fill:url(#radial0)" d="M 47.4375 11.546875 L 47.4375 36.453125 C 47.4375 46.703125 47.4375 47.4375 36.453125 47.4375 L 11.550781 47.4375 C 0.5625 47.4375 0.5625 46.703125 0.5625 36.453125 L 0.5625 11.546875 C 0.5625 1.296875 0.5625 0.5625 11.550781 0.5625 L 36.453125 0.5625 C 47.4375 0.5625 47.4375 1.296875 47.4375 11.546875 Z "/>
<g style="fill:#fff">
<path style="fill-opacity:.051" d="M 38.265625 47.4375 C 40.808594 47.425781 42.644531 47.355469 43.976562 46.996094 L 39.746094 39.746094 L 35.261719 47.4375 L 36.453125 47.4375 C 37.09375 47.4375 37.695312 47.4375 38.265625 47.4375 Z M 39.746094 39.746094 L 34.621094 30.957031 L 29.492188 39.746094 Z M 39.746094 39.746094 L 47.398438 39.746094 C 47.429688 38.773438 47.4375 37.683594 47.4375 36.449219 L 47.4375 35.351562 L 44.875 30.957031 Z M 44.875 30.957031 L 39.746094 22.167969 L 34.621094 30.957031 Z M 44.875 30.957031 L 47.4375 30.957031 L 47.4375 26.5625 Z M 34.621094 30.957031 L 29.492188 22.167969 L 24.367188 30.957031 Z M 24.367188 30.957031 L 19.238281 39.746094 L 29.492188 39.746094 Z M 24.367188 30.957031 L 19.238281 22.167969 L 14.113281 30.957031 Z M 14.113281 30.957031 L 8.984375 39.746094 L 19.238281 39.746094 Z M 14.113281 30.957031 L 8.984375 22.167969 L 3.859375 30.957031 Z M 3.859375 30.957031 L 0.5625 36.605469 C 0.5625 37.773438 0.574219 38.816406 0.601562 39.746094 L 8.984375 39.746094 Z M 3.859375 30.957031 L 0.5625 25.308594 L 0.5625 30.957031 Z M 8.984375 39.746094 L 4.671875 47.140625 C 6.269531 47.433594 8.480469 47.4375 11.550781 47.4375 L 13.472656 47.4375 Z M 8.984375 22.167969 L 3.859375 13.378906 L 0.5625 19.027344 L 0.5625 22.167969 Z M 8.984375 22.167969 L 19.238281 22.167969 L 14.113281 13.378906 Z M 14.113281 13.378906 L 8.984375 4.589844 L 3.859375 13.378906 Z M 14.113281 13.378906 L 24.367188 13.378906 L 19.238281 4.589844 Z M 19.238281 4.589844 L 16.886719 0.5625 L 11.550781 0.5625 C 11.472656 0.5625 11.410156 0.5625 11.335938 0.5625 L 8.984375 4.589844 Z M 19.238281 4.589844 L 29.492188 4.589844 L 27.140625 0.5625 L 21.589844 0.5625 Z M 29.492188 4.589844 L 39.746094 4.589844 L 37.394531 0.5625 C 37.082031 0.5625 36.785156 0.5625 36.453125 0.5625 L 31.84375 0.5625 Z M 29.492188 4.589844 L 24.367188 13.378906 L 34.621094 13.378906 Z M 34.621094 13.378906 L 44.875 13.378906 L 39.746094 4.589844 Z M 34.621094 13.378906 L 29.492188 22.167969 L 39.746094 22.167969 Z M 39.746094 22.167969 L 47.4375 22.167969 L 47.4375 17.773438 L 44.875 13.378906 Z M 44.875 13.378906 L 47.4375 13.378906 L 47.4375 11.546875 C 47.4375 10.632812 47.429688 9.796875 47.414062 9.023438 Z M 29.492188 22.167969 L 24.367188 13.378906 L 19.238281 22.167969 Z M 39.746094 4.589844 L 47.054688 4.589844 C 46.5 1.832031 45.167969 0.960938 42.023438 0.6875 Z M 8.984375 4.589844 L 6.679688 0.636719 C 3.019531 0.84375 1.539062 1.632812 0.945312 4.589844 Z M 3.859375 13.378906 L 0.621094 7.824219 C 0.578125 8.898438 0.5625 10.132812 0.5625 11.546875 L 0.5625 13.378906 Z M 19.238281 39.746094 L 14.753906 47.4375 L 23.726562 47.4375 Z M 29.492188 39.746094 L 25.007812 47.4375 L 33.980469 47.4375 Z M 2.59375 46.367188 L 0.992188 43.621094 C 1.285156 44.9375 1.777344 45.800781 2.59375 46.367188 Z "/>
<path d="M 28.507812 8.8125 L 28.027344 9.246094 L 28.027344 10.835938 L 28.449219 11.214844 L 30.664062 11.214844 L 30.664062 12.753906 L 16.011719 26.195312 L 16.011719 11.234375 L 18.445312 11.234375 L 18.945312 10.78125 L 18.945312 9.171875 L 18.484375 8.851562 L 5.667969 8.851562 L 5.25 9.230469 L 5.25 10.875 L 5.675781 11.257812 L 7.90625 11.257812 L 7.90625 38.808594 L 8.324219 39.1875 L 10.855469 39.1875 L 41.5625 10.511719 L 41.5625 9.246094 L 41.082031 8.8125 Z "/>
<path d="M 25.246094 26.066406 C 25.222656 26.070312 25.203125 26.078125 25.183594 26.09375 L 24.589844 26.554688 C 24.574219 26.570312 24.558594 26.585938 24.550781 26.609375 L 23.957031 28.113281 C 23.941406 28.160156 23.953125 28.210938 23.988281 28.242188 L 24.445312 28.652344 C 24.46875 28.675781 24.503906 28.691406 24.542969 28.6875 L 26.375 28.6875 C 26.414062 28.691406 26.449219 28.675781 26.472656 28.652344 L 26.953125 28.21875 C 26.96875 28.203125 26.980469 28.183594 26.988281 28.164062 L 27.496094 26.578125 C 27.511719 26.535156 27.496094 26.488281 27.460938 26.457031 L 27.066406 26.097656 C 27.042969 26.078125 27.007812 26.0625 26.96875 26.066406 L 25.273438 26.066406 C 25.265625 26.0625 25.257812 26.0625 25.246094 26.066406 Z M 21.886719 30.308594 C 21.835938 30.316406 21.792969 30.355469 21.78125 30.398438 L 21.554688 31.214844 C 21.542969 31.253906 21.554688 31.292969 21.578125 31.320312 C 21.605469 31.351562 21.644531 31.371094 21.6875 31.371094 L 22.765625 31.371094 L 20.089844 38.285156 C 20.078125 38.324219 20.082031 38.367188 20.109375 38.398438 C 20.132812 38.429688 20.175781 38.449219 20.21875 38.449219 L 24.117188 38.449219 C 24.175781 38.449219 24.230469 38.417969 24.25 38.363281 L 24.503906 37.621094 C 24.515625 37.582031 24.507812 37.542969 24.480469 37.511719 C 24.457031 37.480469 24.414062 37.460938 24.371094 37.460938 L 23.488281 37.460938 L 26.136719 30.472656 C 26.152344 30.433594 26.144531 30.394531 26.121094 30.359375 C 26.09375 30.328125 26.054688 30.308594 26.007812 30.308594 L 21.914062 30.308594 C 21.90625 30.308594 21.894531 30.308594 21.886719 30.308594 Z M 34.28125 30.332031 C 34.25 30.339844 34.226562 30.351562 34.203125 30.375 L 33.394531 31.203125 L 32.105469 31.203125 L 31.246094 30.398438 C 31.21875 30.371094 31.183594 30.359375 31.148438 30.359375 L 28.070312 30.359375 C 28.011719 30.359375 27.960938 30.390625 27.941406 30.441406 L 27.65625 31.207031 C 27.644531 31.242188 27.652344 31.285156 27.675781 31.316406 C 27.703125 31.351562 27.742188 31.371094 27.789062 31.371094 L 28.613281 31.371094 L 26.046875 38.210938 C 26.035156 38.246094 26.039062 38.289062 26.066406 38.320312 C 26.089844 38.355469 26.132812 38.375 26.175781 38.375 L 29.453125 38.375 C 29.511719 38.375 29.5625 38.339844 29.582031 38.292969 L 29.835938 37.625 C 29.847656 37.585938 29.839844 37.546875 29.816406 37.511719 C 29.789062 37.480469 29.75 37.460938 29.707031 37.460938 L 29.132812 37.460938 L 30.765625 32.804688 L 33.726562 32.804688 L 31.859375 38.214844 C 31.847656 38.25 31.855469 38.292969 31.882812 38.324219 C 31.910156 38.355469 31.949219 38.375 31.992188 38.375 L 35.15625 38.375 C 35.210938 38.375 35.257812 38.34375 35.28125 38.296875 L 35.5625 37.683594 C 35.582031 37.648438 35.574219 37.605469 35.550781 37.570312 C 35.527344 37.535156 35.484375 37.515625 35.4375 37.515625 L 34.863281 37.515625 L 36.527344 32.777344 L 39.34375 32.777344 L 37.449219 38.214844 C 37.4375 38.25 37.445312 38.292969 37.472656 38.324219 C 37.496094 38.355469 37.539062 38.375 37.582031 38.375 L 41.054688 38.375 C 41.113281 38.375 41.164062 38.34375 41.183594 38.296875 L 41.46875 37.628906 C 41.484375 37.589844 41.476562 37.546875 41.453125 37.515625 C 41.425781 37.480469 41.382812 37.460938 41.339844 37.460938 L 40.652344 37.460938 L 42.742188 31.308594 C 42.757812 31.273438 42.75 31.230469 42.722656 31.195312 L 42.074219 30.40625 C 42.046875 30.375 42.003906 30.359375 41.960938 30.359375 L 39.476562 30.359375 C 39.4375 30.359375 39.402344 30.371094 39.375 30.398438 L 38.59375 31.175781 L 37.222656 31.175781 L 36.414062 30.371094 C 36.386719 30.347656 36.351562 30.332031 36.3125 30.332031 L 34.308594 30.332031 C 34.300781 30.332031 34.292969 30.332031 34.28125 30.332031 Z "/>
<path d="M 25.273438 26.1875 L 24.679688 26.648438 L 24.085938 28.15625 L 24.542969 28.566406 L 26.375 28.566406 L 26.855469 28.128906 L 27.363281 26.546875 L 26.96875 26.1875 Z M 21.914062 30.429688 L 21.6875 31.246094 L 22.960938 31.246094 L 20.21875 38.328125 L 24.117188 38.328125 L 24.371094 37.582031 L 23.296875 37.582031 L 26.007812 30.429688 Z M 34.308594 30.457031 L 33.460938 31.328125 L 32.050781 31.328125 L 31.148438 30.480469 L 28.070312 30.480469 L 27.789062 31.246094 L 28.804688 31.246094 L 26.175781 38.25 L 29.453125 38.25 L 29.707031 37.582031 L 28.945312 37.582031 L 30.664062 32.679688 L 33.914062 32.679688 L 31.992188 38.25 L 35.15625 38.25 L 35.4375 37.636719 L 34.675781 37.636719 L 36.425781 32.65625 L 39.53125 32.65625 L 37.582031 38.25 L 41.054688 38.25 L 41.339844 37.582031 L 40.460938 37.582031 L 42.609375 31.273438 L 41.960938 30.480469 L 39.476562 30.480469 L 38.65625 31.296875 L 37.160156 31.296875 L 36.3125 30.457031 Z "/>
</g>
</svg>
