<?xml version="1.0" encoding="UTF-8" standalone="no"?>
<!-- Created with Inkscape (http://www.inkscape.org/) -->

<svg
   xmlns:dc="http://purl.org/dc/elements/1.1/"
   xmlns:cc="http://creativecommons.org/ns#"
   xmlns:rdf="http://www.w3.org/1999/02/22-rdf-syntax-ns#"
   xmlns:svg="http://www.w3.org/2000/svg"
   xmlns="http://www.w3.org/2000/svg"
   xmlns:xlink="http://www.w3.org/1999/xlink"
   xmlns:sodipodi="http://sodipodi.sourceforge.net/DTD/sodipodi-0.dtd"
   xmlns:inkscape="http://www.inkscape.org/namespaces/inkscape"
   width="48"
   height="48"
   id="svg2"
   version="1.1"
   inkscape:version="0.48.4 r9939"
   viewBox="0 0 13.546667 13.546667"
   sodipodi:docname="deadbeef.svg"
   inkscape:export-filename="/home/uri/Descargas/numix-round.png"
   inkscape:export-xdpi="90"
   inkscape:export-ydpi="90">
  <defs
     id="defs4">
    <linearGradient
       id="linearGradient4460">
      <stop
         style="stop-color:#ac9d8a;stop-opacity:1;"
         offset="0"
         id="stop4462" />
      <stop
         style="stop-color:#ebe2d0;stop-opacity:1;"
         offset="1"
         id="stop4464" />
    </linearGradient>
    <linearGradient
       inkscape:collect="always"
       xlink:href="#linearGradient4460"
       id="linearGradient4500"
       gradientUnits="userSpaceOnUse"
       gradientTransform="matrix(1.0952381,0,0,1.0952381,-133.00183,-9.5686658)"
       x1="128.26065"
       y1="279.09631"
       x2="128.26065"
       y2="268.33041" />
    <linearGradient
       x2="0"
       gradientUnits="userSpaceOnUse"
       y2="1004.847"
       y1="1053.158"
       id="linearGradient3787"
       xlink:href="#linearGradient3896" />
    <linearGradient
       id="linearGradient3896">
      <stop
         id="stop3015"
         style="stop-color:#262626"
         offset="0" />
      <stop
         id="stop3017"
         style="stop-color:#7b7b7b"
         offset="1" />
    </linearGradient>
    <radialGradient
       gradientUnits="userSpaceOnUse"
       xlink:href="#linearGradient3895-9-0-3-2-4-0"
       id="radialGradient4432"
       r="128"
       gradientTransform="matrix(0.97656,0,0,0.97656,-16.5349,-236.25)"
       cy="160"
       cx="148.004" />
    <linearGradient
       id="linearGradient3895-9-0-3-2-4-0">
      <stop
         id="stop3015-0"
         style="stop-color:#d698b7"
         offset="0" />
      <stop
         id="stop3017-0"
         style="stop-color:#601e3f"
         offset="1" />
    </linearGradient>
  </defs>
  <sodipodi:namedview
     id="base"
     pagecolor="#333333"
     bordercolor="#666666"
     borderopacity="1.0"
     inkscape:pageopacity="1"
     inkscape:pageshadow="2"
     inkscape:zoom="9.2560278"
     inkscape:cx="21.229257"
     inkscape:cy="14.312561"
     inkscape:document-units="px"
     inkscape:current-layer="layer1"
     showgrid="false"
     inkscape:showpageshadow="false"
     units="px"
     borderlayer="true"
     fit-margin-top="0"
     fit-margin-left="0"
     fit-margin-right="0"
     fit-margin-bottom="0"
     inkscape:window-width="1366"
     inkscape:window-height="742"
     inkscape:window-x="0"
     inkscape:window-y="26"
     inkscape:window-maximized="1">
    <sodipodi:guide
       position="8.999997,38.999851"
       orientation="30.000028,0"
       id="guide3310" />
    <sodipodi:guide
       position="8.999997,8.9998225"
       orientation="0,30.000001"
       id="guide3312" />
    <sodipodi:guide
       position="38.999997,8.9998225"
       orientation="-30.000028,0"
       id="guide3314" />
    <sodipodi:guide
       position="38.999997,38.999851"
       orientation="0,-30.000001"
       id="guide3316" />
    <sodipodi:guide
       position="2.999997,44.999943"
       orientation="41.999996,0"
       id="guide4157" />
    <sodipodi:guide
       position="2.999997,2.9999465"
       orientation="0,42.000001"
       id="guide4159" />
    <sodipodi:guide
       position="44.999997,2.9999465"
       orientation="-41.999996,0"
       id="guide4161" />
    <sodipodi:guide
       position="44.999997,44.999943"
       orientation="0,-42.000001"
       id="guide4163" />
    <sodipodi:guide
       position="4.999997,42.999912"
       orientation="38.000043,0"
       id="guide4165" />
    <sodipodi:guide
       position="4.999997,4.9998685"
       orientation="0,37.999997"
       id="guide4167" />
    <sodipodi:guide
       position="42.999997,4.9998685"
       orientation="-38.000043,0"
       id="guide4169" />
    <sodipodi:guide
       position="42.999997,42.999912"
       orientation="0,-37.999997"
       id="guide4171" />
    <sodipodi:guide
       position="12.999997,34.999898"
       orientation="22.000013,0"
       id="guide4175" />
    <sodipodi:guide
       position="12.999997,12.999884"
       orientation="0,22"
       id="guide4177" />
    <sodipodi:guide
       position="34.999997,12.999884"
       orientation="-22.000013,0"
       id="guide4179" />
    <sodipodi:guide
       position="34.999997,34.999898"
       orientation="0,-22"
       id="guide4181" />
  </sodipodi:namedview>
  <metadata
     id="metadata7">
    <rdf:RDF>
      <cc:Work
         rdf:about="">
        <dc:format>image/svg+xml</dc:format>
        <dc:type
           rdf:resource="http://purl.org/dc/dcmitype/StillImage" />
        <dc:title></dc:title>
      </cc:Work>
    </rdf:RDF>
  </metadata>
  <g
     inkscape:label="Capa 1"
     inkscape:groupmode="layer"
     id="layer1"
     transform="translate(-1.8188194e-7,-283.45331)">
    <rect
       style="opacity:0.5;fill:#ffffff;fill-opacity:1;fill-rule:evenodd;stroke:none"
       id="rect3330"
       width="12.982223"
       height="12.982223"
       x="0.28222242"
       y="283.73553"
       ry="6.4911113" />
    <rect
       ry="5.87291"
       y="284.35376"
       x="0.90042347"
       height="11.74582"
       width="11.74582"
       id="rect4498"
       style="fill:url(#linearGradient4500);fill-opacity:1;fill-rule:evenodd;stroke:none" />
    <g
       id="g3829"
       transform="matrix(0.71820507,0,0,0.71820115,-6.3402043,81.19)">
      <path
         inkscape:connector-curvature="0"
         d="m 18.12861,288.53541 c -2.578246,0.11409 -5.086366,1.37166 -4.021334,3.91674 1.553603,-0.58424 3.716903,0.28732 2.818371,0.71916 1.770154,1.4568 6.140839,-0.89679 5.705481,-2.89882 -0.45119,-1.21964 -2.497216,-1.82575 -4.502518,-1.73708 z m -0.06874,0.71919 c 0.537829,0 0.973827,0.14366 0.973827,0.32085 0,0.17722 -0.435998,0.32085 -0.973827,0.32085 -0.53783,0 -0.973827,-0.14363 -0.973827,-0.32085 0,-0.17719 0.435997,-0.32085 0.973827,-0.32085 z m 2.405925,0.53106 c 0.53783,0 0.973828,0.1437 0.973828,0.32089 0,0.17719 -0.435998,0.32085 -0.973828,0.32085 -0.537829,0 -0.973827,-0.14366 -0.973827,-0.32085 0,-0.17719 0.435998,-0.32089 0.973827,-0.32089 z m -4.42232,0.48683 c 0.53783,0 0.973827,0.14366 0.973827,0.32089 0,0.17719 -0.435997,0.32082 -0.973827,0.32082 -0.53783,0 -0.973827,-0.14363 -0.973827,-0.32082 0,-0.17723 0.435997,-0.32089 0.973827,-0.32089 z m 4.399407,0.84088 c 0.537829,0 0.973827,0.14366 0.973827,0.32088 0,0.17719 -0.435998,0.32086 -0.973827,0.32086 -0.53783,0 -0.973827,-0.14367 -0.973827,-0.32086 0,-0.17722 0.435997,-0.32088 0.973827,-0.32088 z m -1.695605,1.21706 c 0.537829,0 0.973827,0.1437 0.973827,0.32089 0,0.17719 -0.435998,0.32085 -0.973827,0.32085 -0.537829,0 -0.973827,-0.14366 -0.973827,-0.32085 0,-0.17719 0.435998,-0.32089 0.973827,-0.32089 z"
         id="path3028"
         style="fill:#d16052;fill-opacity:1" />
      <path
         inkscape:connector-curvature="0"
         d="m 21.801854,286.09396 -4.779277,7.99425 c -0.372927,-0.007 -0.719418,-0.1842 -0.970309,-0.54102 l 5.12068,-7.80392 c 0.344165,-0.0814 0.5538,0.0357 0.628906,0.35069 z"
         id="path3030"
         style="fill:#655e4e;fill-opacity:1" />
      <path
         inkscape:connector-curvature="0"
         d="m 16.024774,295.47925 c 0.535774,-0.0719 1.365741,-0.75563 0.978177,-1.74542 -0.929163,-0.26585 -0.718153,-0.40041 -0.718153,-0.40041 -1.276328,0.30579 -2.2463,1.76507 -1.979209,2.69274 0.16934,0.58816 0.140986,0.52764 0.140986,0.52764 0.353991,-1.13666 0.360394,-0.92849 1.578199,-1.07455 z"
         id="path3032"
         style="fill:#655e4e;fill-opacity:1" />
    </g>
  </g>
</svg>
