<svg xmlns="http://www.w3.org/2000/svg" viewBox="0 0 256 256" xmlns:xlink="http://www.w3.org/1999/xlink">
<defs>
<linearGradient id="linearGradient3895-9-0-3-2-4-0">
<stop offset="0" style="stop-color:#0ff"/>
<stop offset="1" style="stop-color:#007ab2"/>
</linearGradient>
<radialGradient cx="148.004" cy="160" gradientTransform="matrix(.97656 0 0 .97656 -16.5349 -236.25)" r="128" id="radialGradient4432" xlink:href="#linearGradient3895-9-0-3-2-4-0" gradientUnits="userSpaceOnUse"/>
</defs>
<g transform="translate(0 208)">
<path style="fill:url(#radialGradient4432);color:#bebebe" d="m 253,-146.40625 0,132.8125 C 253,41.09375 253,45 194.40625,45 L 61.59375,45 C 3,45 3,41.09375 3,-13.59375 l 0,-132.8125 C 3,-201.09375 3,-205 61.59375,-205 l 132.8125,0 C 253,-205 253,-201.09375 253,-146.40625 z"/>
</g>
<g style="fill:#fff" transform="translate(0 208)">
<path style="opacity:.05" d="m 204.08032,44.993662 c 13.55517,-0.06396 23.34858,-0.435144 30.45654,-2.349786 l -22.55248,-38.664633 -23.92579,41.014419 6.34766,0 c 3.41797,0 6.64139,0.01426 9.67407,0 z m 7.90406,-41.01442 -27.34375,-46.873624 -27.34375,46.873624 54.6875,0 z m 0,0 40.802,0 C 252.95094,-1.20375 253,-7.022538 253,-13.598368 l 0,-5.859203 -13.67187,-23.436811 -27.34375,46.873624 z m 27.34375,-46.873624 -27.34375,-46.873621 -27.34375,46.873621 54.6875,0 z m 0,0 13.67187,0 0,-23.43681 -13.67187,23.43681 z m -54.6875,0 -27.34375,-46.873621 -27.34376,46.873621 54.68751,0 z m -54.68751,0 -27.34374,46.873624 54.6875,0 -27.34376,-46.873624 z m 0,0 -27.34374,-46.873621 -27.34375,46.873621 54.68749,0 z m -54.68749,0 -27.34375,46.873624 54.6875,0 -27.34375,-46.873624 z m 0,0 -27.34375,-46.873621 -27.34376,46.873621 54.68751,0 z m -54.68751,0 L 3,-12.774415 c 0.003,6.226079 0.0559,11.79834402 0.21361,16.753658 l 44.70827,0 -27.34375,-46.873625 z m 0,0 L 3,-73.014348 l 0,30.119966 17.57813,0 z M 47.92188,3.979243 24.91161,43.406793 c 8.52703,1.571634 20.31178,1.586869 36.68214,1.586869 l 10.2539,0 L 47.92188,3.979243 z m 0,-93.747246 L 20.57813,-136.64161 3,-106.52166 l 0,16.753657 44.92188,0 z m 0,0 54.6875,0 -27.34375,-46.873607 -27.34375,46.873607 z m 27.34375,-46.873607 -27.34375,-46.87364 -27.34376,46.87364 54.68751,0 z m 0,0 54.68749,0 -27.34374,-46.87364 -27.34375,46.87364 z m 27.34375,-46.87364 -12.54273,-21.48374 -28.4729,0 c -0.39895,0 -0.7356,-1e-5 -1.12916,0 l -12.54271,21.48374 54.6875,0 z m 0,0 54.6875,0 -12.54273,-21.48374 -29.60205,0 -12.54272,21.48374 z m 54.6875,0 54.6875,0 -12.54273,-21.48374 c -1.67321,-0.002 -3.25633,0 -5.0354,0 l -24.56665,0 -12.54272,21.48374 z m 0,0 -27.34376,46.87364 54.68751,0 -27.34375,-46.87364 z m 27.34375,46.87364 54.6875,0 -27.34375,-46.87364 -27.34375,46.87364 z m 0,0 -27.34375,46.873607 54.6875,0 -27.34375,-46.873607 z m 27.34375,46.873607 41.01562,0 0,-23.436807 -13.67187,-23.4368 -27.34375,46.873607 z m 27.34375,-46.873607 13.67187,0 0,-9.76535 c 0,-4.89463 -0.0402,-9.34683 -0.12207,-13.45786 l -13.5498,23.22321 z m -82.03125,46.873607 -27.34376,-46.873607 -27.34374,46.873607 54.6875,0 z m 54.6875,-93.747247 38.97094,0 c -2.94957,-14.71522 -10.05142,-19.35598 -26.82494,-20.81237 l -12.146,20.81237 z m -164.0625,0 -12.2986,-21.08702 c -19.50933,1.10943 -27.41641,5.311 -30.57861,21.08702 l 42.87721,0 z M 20.57813,-136.64161 3.30517,-166.27332 C 3.07456,-160.53933 3,-153.96515 3,-146.40696 l 0,9.76535 17.57813,0 z m 82.03125,140.620853 -23.92579,41.014419 47.85157,0 -23.92578,-41.01442 z m 54.6875,0 -23.92579,41.014419 47.85157,0 L 157.29688,3.979243 z M 13.83374,39.287042 5.28882,24.639036 c 1.57234,7.028886 4.1916,11.640722 8.54492,14.648006 z"/>
<path d="m 172.64466,-49.120383 c 23.76663,-12.955973 41.9177,-22.852191 43.56878,-23.7534 4.92529,-2.685027 10.08532,-9.536972 0,-15.013881 -3.24154,-1.7637 -20.90444,-11.356423 -43.59677,-23.686826 l -31.21052,31.323835 31.23851,31.130272 z"/>
<path d="M 141.40459,-80.250655 41.580697,19.931709 c 2.254308,0.284917 4.965698,-0.309692 8.084416,-2.009903 6.456652,-3.519652 75.796077,-41.322241 122.979547,-67.045286 l -31.24007,-31.127175 z"/>
<path d="m 141.40459,-80.250655 31.21052,-31.323835 c 0,0 -116.00517,-63.0363 -122.949997,-66.8099 -2.669412,-1.4509 -5.579802,-1.95725 -8.155933,-1.38587 l 99.89541,99.519605 z"/>
<path d="M 141.40459,-80.250655 41.507626,-179.76871 C 37.381463,-178.85202 34,-175.2952 34,-168.14596 c 0,11.61347 0,166.3868213 0,176.137483 0,6.732711 2.660085,11.467906 7.579142,11.940186 L 141.40459,-80.250655 z"/>
</g>
</svg>
