<svg xmlns="http://www.w3.org/2000/svg" viewBox="0 0 256 256" xmlns:xlink="http://www.w3.org/1999/xlink">
<defs>
<linearGradient id="linearGradient3895-9-0-3-2-4-0">
<stop offset="0" style="stop-color:#e2c7e7"/>
<stop offset="1" style="stop-color:#70417a"/>
</linearGradient>
<radialGradient cx="148.004" cy="160" gradientTransform="matrix(.97656 0 0 .97656 -16.5349 -236.25)" r="128" id="radialGradient4432" xlink:href="#linearGradient3895-9-0-3-2-4-0" gradientUnits="userSpaceOnUse"/>
</defs>
<g transform="translate(0 208)">
<path style="fill:url(#radialGradient4432);color:#bebebe" d="m 253,-146.40625 0,132.8125 C 253,41.09375 253,45 194.40625,45 L 61.59375,45 C 3,45 3,41.09375 3,-13.59375 l 0,-132.8125 C 3,-201.09375 3,-205 61.59375,-205 l 132.8125,0 C 253,-205 253,-201.09375 253,-146.40625 z"/>
</g>
<g style="fill:#fff;color:#000">
<g transform="translate(0 208)">
<path style="opacity:.05" d="m 204.08032,44.993662 c 13.55517,-0.06396 23.34858,-0.435144 30.45654,-2.349786 l -22.55248,-38.664633 -23.92579,41.014419 6.34766,0 c 3.41797,0 6.64139,0.01426 9.67407,0 z m 7.90406,-41.01442 -27.34375,-46.873624 -27.34375,46.873624 54.6875,0 z m 0,0 40.802,0 C 252.95094,-1.20375 253,-7.022538 253,-13.598368 l 0,-5.859203 -13.67187,-23.436811 -27.34375,46.873624 z m 27.34375,-46.873624 -27.34375,-46.873621 -27.34375,46.873621 54.6875,0 z m 0,0 13.67187,0 0,-23.43681 -13.67187,23.43681 z m -54.6875,0 -27.34375,-46.873621 -27.34376,46.873621 54.68751,0 z m -54.68751,0 -27.34374,46.873624 54.6875,0 -27.34376,-46.873624 z m 0,0 -27.34374,-46.873621 -27.34375,46.873621 54.68749,0 z m -54.68749,0 -27.34375,46.873624 54.6875,0 -27.34375,-46.873624 z m 0,0 -27.34375,-46.873621 -27.343755,46.873621 54.687505,0 z m -54.687505,0 L 3,-12.774415 c 0.0034,6.226079 0.05591,11.79834402 0.213614,16.753658 l 44.708266,0 -27.343755,-46.873625 z m 0,0 L 3,-73.014348 l 0,30.119966 17.578125,0 z M 47.92188,3.979243 24.911614,43.406793 c 8.527026,1.571634 20.311776,1.586869 36.682136,1.586869 l 10.2539,0 L 47.92188,3.979243 z m 0,-93.747246 L 20.578125,-136.64161 3,-106.52166 l 0,16.753657 44.92188,0 z m 0,0 54.6875,0 -27.34375,-46.873607 -27.34375,46.873607 z m 27.34375,-46.873607 -27.34375,-46.87364 -27.343755,46.87364 54.687505,0 z m 0,0 54.68749,0 -27.34374,-46.87364 -27.34375,46.87364 z m 27.34375,-46.87364 -12.54273,-21.48374 -28.4729,0 c -0.39895,0 -0.7356,-1e-5 -1.12916,0 l -12.54271,21.48374 54.6875,0 z m 0,0 54.6875,0 -12.54273,-21.48374 -29.60205,0 -12.54272,21.48374 z m 54.6875,0 54.6875,0 -12.54273,-21.48374 c -1.67321,-0.002 -3.25633,0 -5.0354,0 l -24.56665,0 -12.54272,21.48374 z m 0,0 -27.34376,46.87364 54.68751,0 -27.34375,-46.87364 z m 27.34375,46.87364 54.6875,0 -27.34375,-46.87364 -27.34375,46.87364 z m 0,0 -27.34375,46.873607 54.6875,0 -27.34375,-46.873607 z m 27.34375,46.873607 41.01562,0 0,-23.436807 -13.67187,-23.4368 -27.34375,46.873607 z m 27.34375,-46.873607 13.67187,0 0,-9.76535 c 0,-4.89463 -0.0402,-9.34683 -0.12207,-13.45786 l -13.5498,23.22321 z m -82.03125,46.873607 -27.34376,-46.873607 -27.34374,46.873607 54.6875,0 z m 54.6875,-93.747247 38.97094,0 c -2.94957,-14.71522 -10.05142,-19.35598 -26.82494,-20.81237 l -12.146,20.81237 z m -164.0625,0 -12.2986,-21.08702 c -19.509325,1.10943 -27.416405,5.311 -30.57861,21.08702 l 42.87721,0 z M 20.578125,-136.64161 3.30517,-166.27332 C 3.074557,-160.53933 3,-153.96515 3,-146.40696 l 0,9.76535 17.578125,0 z M 102.60938,3.979243 78.68359,44.993662 l 47.85157,0 -23.92578,-41.01442 z m 54.6875,0 -23.92579,41.014419 47.85157,0 L 157.29688,3.979243 z M 13.833739,39.287042 5.288818,24.639036 c 1.572341,7.028886 4.191602,11.640722 8.544921,14.648006 z"/>
<path style="line-height:normal" d="m 115.74799,-150.55474 24.50407,0 c 36.75612,0 35.99051,37.30876 35.99051,37.30876 l 0,31.979044 c 0,12.182409 -21.44114,37.308866 -21.44114,37.308866 l 0,15.989515 48.24257,26.6491989 0,21.3193561 -80.40428,0 -69.68372,0 0,-21.3193561 48.24257,-26.6491989 0,-15.989515 c 0,0 -21.521813,-25.126405 -21.44114,-37.308866 l 0,-31.979044 c 0,0 -0.765718,-37.30838 35.99051,-37.30838 z"/>
</g>
<g transform="matrix(.46061 0 0 .51527 59.2977 -208.59879)">
<rect width="42" x="48" y="562.862" rx="12.956" height="125"/>
<path d="m 72,622.36218 c 0,29.82338 -10.521308,54 -23.5,54 -12.978692,0 -23.5,-24.17662 -23.5,-54 0,-29.82337 10.521308,-54 23.5,-54 12.978692,0 23.5,24.17663 23.5,54 z" transform="matrix(1 0 0 .94444 0 37.57568)"/>
</g>
<g transform="matrix(.46061 0 0 .51527 -139.61568 -282.90131)">
<path d="m 461,759.86218 c 0,5.24671 -4.25329,9.5 -9.5,9.5 -5.24671,0 -9.5,-4.25329 -9.5,-9.5 0,-5.2467 4.25329,-9.5 9.5,-9.5 5.24671,0 9.5,4.2533 9.5,9.5 z" transform="matrix(1.11842 0 0 1 -52.5921 7)"/>
<path d="m 581,603.375 c -77.87215,0 -141,63.12785 -141,141 0,7.83306 0.64678,15.51456 1.875,23 l 21.34375,0 C 461.77385,759.9312 461,752.24121 461,744.375 c 0,-66.27417 53.72583,-120 120,-120 66.27417,0 120,53.72583 120,120 0,7.86621 -0.77385,15.5562 -2.21875,23 l 21.34375,0 c 1.22822,-7.48544 1.875,-15.16694 1.875,-23 0,-77.87215 -63.12785,-141 -141,-141 z"/>
<path d="m 461,759.86218 c 0,5.24671 -4.25329,9.5 -9.5,9.5 -5.24671,0 -9.5,-4.25329 -9.5,-9.5 0,-5.2467 4.25329,-9.5 9.5,-9.5 5.24671,0 9.5,4.2533 9.5,9.5 z" transform="matrix(1.10526 0 0 1 210.72369 6)"/>
</g>
<g transform="matrix(-.46061 0 0 .51527 196.63122 -208.59879)">
<rect width="42" x="48" y="562.862" rx="12.956" height="125"/>
<path d="m 72,622.36218 c 0,29.82338 -10.521308,54 -23.5,54 -12.978692,0 -23.5,-24.17662 -23.5,-54 0,-29.82337 10.521308,-54 23.5,-54 12.978692,0 23.5,24.17663 23.5,54 z" transform="matrix(1 0 0 .94444 0 37.57568)"/>
</g>
</g>
</svg>
