<?xml version="1.0" encoding="UTF-8" standalone="no"?>
<svg
   xmlns:dc="http://purl.org/dc/elements/1.1/"
   xmlns:cc="http://creativecommons.org/ns#"
   xmlns:rdf="http://www.w3.org/1999/02/22-rdf-syntax-ns#"
   xmlns:svg="http://www.w3.org/2000/svg"
   xmlns="http://www.w3.org/2000/svg"
   xmlns:xlink="http://www.w3.org/1999/xlink"
   xmlns:sodipodi="http://sodipodi.sourceforge.net/DTD/sodipodi-0.dtd"
   xmlns:inkscape="http://www.inkscape.org/namespaces/inkscape"
   width="48"
   viewBox="0 0 13.546667 13.546667"
   height="48"
   id="svg2"
   version="1.1"
   inkscape:version="0.48.4 r9939"
   sodipodi:docname="0ad.svg">
  <metadata
     id="metadata30">
    <rdf:RDF>
      <cc:Work
         rdf:about="">
        <dc:format>image/svg+xml</dc:format>
        <dc:type
           rdf:resource="http://purl.org/dc/dcmitype/StillImage" />
      </cc:Work>
    </rdf:RDF>
  </metadata>
  <sodipodi:namedview
     pagecolor="#ffffff"
     bordercolor="#666666"
     borderopacity="1"
     objecttolerance="10"
     gridtolerance="10"
     guidetolerance="10"
     inkscape:pageopacity="0"
     inkscape:pageshadow="2"
     inkscape:window-width="1366"
     inkscape:window-height="742"
     id="namedview28"
     showgrid="false"
     inkscape:zoom="4.9166667"
     inkscape:cx="24.40678"
     inkscape:cy="24"
     inkscape:window-x="0"
     inkscape:window-y="26"
     inkscape:window-maximized="1"
     inkscape:current-layer="svg2" />
  <defs
     id="defs4">
    <linearGradient
       id="linearGradient4460">
      <stop
         offset="0"
         style="stop-color:#d1c797"
         id="stop7" />
      <stop
         offset="1"
         style="stop-color:#e6dfbe"
         id="stop9" />
    </linearGradient>
    <linearGradient
       gradientTransform="matrix(1.10528 0 0 1.10528 -134.28288 -295.77052)"
       xlink:href="#linearGradient4460"
       id="linearGradient2996"
       y1="279.096"
       y2="268.33"
       gradientUnits="userSpaceOnUse"
       x2="0" />
  </defs>
  <g
     style="fill-rule:evenodd"
     id="g12">
    <rect
       width="12.982"
       x=".282"
       y=".282"
       rx="6.491"
       height="12.982"
       style="opacity:.5;fill:#fff"
       id="rect14" />
    <rect
       width="11.853"
       x=".847"
       y=".847"
       rx="5.926"
       height="11.853"
       style="fill:url(#linearGradient2996)"
       id="rect16" />
  </g>
  <path
     style="fill:#d5bb89;stroke:#d5bb89;stroke-width:2.446"
     d="m -4.4117641,22.943439 a 17.024887,16.572399 0 1 1 -34.0497739,0 17.024887,16.572399 0 1 1 34.0497739,0 z"
     transform="matrix(.32448 0 0 .33334 13.72927 -.87452)"
     id="path18" />
  <path
     style="fill:#b2883e"
     inkscape:connector-curvature="0"
     id="path22"
     d="m 6.5394922,0.84694966 0.4676827,0 c 0.1831541,0 0.330603,0.0798709 0.330603,0.17908414 l 0,11.4948832 c 0,0.09922 -0.147448,0.179084 -0.330603,0.179084 l -0.4676827,0 c -0.183154,0 -0.3306032,-0.07987 -0.3306032,-0.179084 l 0,-11.4948832 c 0,-0.0992128 0.147448,-0.17908414 0.3306032,-0.17908414 z" />
  <path
     style="fill:#b2883e"
     inkscape:connector-curvature="0"
     id="path24"
     d="m 12.7,6.539492 0,0.467682 c 0,0.183155 -0.07988,0.330604 -0.179085,0.330604 l -11.4948816,0 c -0.0992128,0 -0.17908414,-0.14745 -0.17908414,-0.330604 l 0,-0.467682 c 0,-0.183154 0.0798723,-0.330603 0.17908414,-0.330603 l 11.4948816,0 c 0.0992,0 0.179085,0.14745 0.179085,0.330603 z" />
  <path
     style="fill:none;stroke:#b2883e;stroke-width:2.446"
     d="m -4.4117641,22.943439 a 17.024887,16.572399 0 1 1 -34.0497739,0 17.024887,16.572399 0 1 1 34.0497739,0 z"
     transform="matrix(.32448 0 0 .33334 13.72927 -.87452)"
     id="path26" />
</svg>
