<svg width="48" xmlns="http://www.w3.org/2000/svg" viewBox="0 0 13.546667 13.546667" height="48" xmlns:xlink="http://www.w3.org/1999/xlink">
<defs>
<linearGradient id="linearGradient4460">
<stop offset="0" style="stop-color:#d1c797"/>
<stop offset="1" style="stop-color:#e6dfbe"/>
</linearGradient>
<linearGradient gradientTransform="matrix(1.10525 0 0 1.10525 -134.27873 -295.76183)" xlink:href="#linearGradient4460" id="linearGradient3026" y1="279.096" y2="268.33" gradientUnits="userSpaceOnUse" x2="0"/>
</defs>
<g style="fill-rule:evenodd">
<rect width="12.982" x=".282" y=".282" rx="6.491" height="12.982" style="opacity:.5;fill:#fff"/>
<rect width="11.853" x=".847" y=".847" rx="5.926" height="11.853" style="fill:url(#linearGradient3026)"/>
</g>
<g style="fill:#b2a070" transform="matrix(1.00765 0 0 1.00765 -.10966 .00602)">
<path style="line-height:normal;color:#000" d="m 6.8448805,2.5147376 c -2.211627,0 -4.2161527,1.9754092 -4.2153404,4.1870495 -8.123e-4,2.2116404 2.0037134,4.2153399 4.2153404,4.2153399 2.2116269,0 4.1878615,-2.0036995 4.1870485,-4.2153399 C 11.032742,4.4901468 9.0565074,2.5147376 6.8448805,2.5147376 z m 0,0.3394904 c 2.0079472,0 3.8482955,1.839595 3.8475585,3.8475591 7.37e-4,2.0079641 -1.8396113,3.8758499 -3.8475585,3.8758499 -2.0079472,0 -3.8765873,-1.8678858 -3.87585,-3.8758499 C 2.9682932,4.693823 4.8369333,2.854228 6.8448805,2.854228 z"/>
<rect width=".42" x="6.564" y="2.703" rx=".123" height="8.141"/>
<rect width=".42" x="6.564" y="-10.844" rx=".123" height="8.141" transform="rotate(90)"/>
</g>
</svg>
