<svg width="48" xmlns="http://www.w3.org/2000/svg" viewBox="0 0 13.546667 13.546667" height="48" xmlns:xlink="http://www.w3.org/1999/xlink">
<defs>
<linearGradient id="linearGradient3789">
<stop offset="0" style="stop-color:#74c0fe"/>
<stop offset="1" style="stop-color:#38a5fe"/>
</linearGradient>
<linearGradient id="linearGradient4460">
<stop offset="0" style="stop-color:#cd9a66"/>
<stop offset="1" style="stop-color:#dcb894"/>
</linearGradient>
<linearGradient gradientTransform="matrix(1.10518 0 0 1.10525 -134.26986 -295.7618)" xlink:href="#linearGradient4460" id="linearGradient3000" y1="279.096" y2="268.33" gradientUnits="userSpaceOnUse" x2="0"/>
<linearGradient xlink:href="#linearGradient3789" id="linearGradient3795" y1="4.276" x1="12.69" y2="6.773" x2="12.7" gradientUnits="userSpaceOnUse"/>
</defs>
<g style="fill-rule:evenodd">
<rect width="12.982" x=".282" y=".282" rx="6.491" height="12.982" style="opacity:.5;fill:#fff"/>
<rect width="11.853" x=".847" y=".847" rx="5.926" height="11.853" style="fill:url(#linearGradient3000)"/>
<path style="fill:url(#linearGradient3795)" d="m 9.9056426,1.7446378 0,10.0567882 C 11.584032,10.757245 12.7,8.9034374 12.7,6.7730317 12.7,4.642626 11.584032,2.7888184 9.9056426,1.7446378 z"/>
<path style="fill:#78c666" d="m 9.9056426,2.54 0,2.5400001 2.5400004,0 C 12.147221,4.1005733 11.60408,3.2286311 10.877081,2.54 l -0.9714384,0 z"/>
<path style="fill:#2d2d2d;fill-opacity:.4" d="m 9.9056426,2.5400001 0,0.2822222 1.2458474,0 C 11.062183,2.7254502 10.971214,2.6306814 10.875623,2.5400001 l -0.9699804,0 z m 0,2.5399999 0,0.2822222 2.6073794,0 C 12.488972,5.2674472 12.470122,5.1729957 12.441832,5.08 l -2.5361894,0 z m 0,2.8222221 0,0.2822223 2.6073794,0 c 0.02343,-0.094288 0.05237,-0.1861581 0.07119,-0.2822223 l -2.6785714,0 z m 0,3.1044449 0,0.282222 0.6407214,0 c 0.111844,-0.09212 0.224631,-0.182767 0.329259,-0.282222 l -0.9699804,0 z"/>
</g>
<path style="fill:#2e2e2e;line-height:normal;fill-opacity:.4;color:#000" d="m 6.491112,4.5155385 0.5644451,0 c 0.8466658,0 0.8466658,0.9675 0.8466658,0.9675 l 0,0.95741 c 0,0.32251 -0.5644439,0.97758 -0.5644439,0.97758 l 0,0.3225 1.1288879,0.63492 0,0.64498 -1.8344433,0.0107 -1.5522235,0 0,-0.64499 1.1288901,-0.645 0,-0.32249 c 0,0 -0.5663038,-0.65508 -0.5644438,-0.97757 l 0,-0.95743 c 0,0 -4.8e-6,-0.96749 0.8466656,-0.96749 z"/>
</svg>
