<svg width="48" xmlns="http://www.w3.org/2000/svg" viewBox="0 0 13.546667 13.546667" height="48" xmlns:xlink="http://www.w3.org/1999/xlink">
<defs>
<linearGradient id="linearGradient4460">
<stop offset="0" style="stop-color:#c0c3d4"/>
<stop offset="1" style="stop-color:#e5ecee"/>
</linearGradient>
<linearGradient gradientTransform="matrix(1.09524 0 0 1.09524 -133.00183 -9.56867)" xlink:href="#linearGradient4460" id="linearGradient4500" y1="279.096" y2="268.33" gradientUnits="userSpaceOnUse" x2="0"/>
</defs>
<g style="fill-rule:evenodd" transform="translate(0 -283.45331)">
<rect width="12.982" x=".282" y="283.736" rx="6.491" height="12.982" style="opacity:.5;fill:#fff"/>
<rect width="11.746" x=".9" y="284.354" rx="5.873" height="11.746" style="fill:url(#linearGradient4500)"/>
</g>
<g transform="translate(0 -283.45331)">
<path style="fill:#3d68a8" d="m 6.7731927,285.59027 c -2.560661,0 -4.636488,2.07585 -4.636488,4.63648 0,2.56068 2.075827,4.63652 4.636488,4.63652 2.56066,0 4.6364883,-2.07584 4.6364883,-4.63652 0,-2.56063 -2.0758283,-4.63648 -4.6364883,-4.63648 z m 0,0.57959 c 2.240579,0 4.0569253,1.81635 4.0569253,4.05689 0,1.91672 -1.3282733,3.52393 -3.1151393,3.94829 -0.0182,-0.0364 -0.03968,-0.0753 -0.03622,-0.1304 0.01003,-0.16091 0.01611,-0.36961 0.03622,-0.55058 0.02014,-0.18103 0.0935,-1.69868 0.354982,-2.10092 0.261449,-0.40221 1.006314,-0.88424 1.267789,-0.93454 0.261484,-0.0503 0.217334,-0.15585 0.217334,-0.24629 0,-0.0905 -0.0455,-0.28862 -0.115913,-0.31878 -0.07039,-0.03 -0.344164,0.14654 -0.434669,0.16662 -0.09051,0.02 -0.526451,0.0571 -0.586803,-0.0435 -0.06033,-0.10064 0.487429,-1.12537 0.557825,-1.24606 0.07041,-0.12069 0.101765,-0.28546 -0.02898,-0.45637 -0.130685,-0.17101 -0.217767,-0.34055 -0.268047,-0.34055 -0.165839,0 -0.487862,0.38161 -0.608537,0.44194 -0.120677,0.0604 -1.075863,0.7414 -1.166367,0.86213 -0.0905,0.12066 -0.209773,0.16937 -0.340493,0.15935 -0.13072,-0.0102 -0.547443,-0.0153 -0.688228,0.0652 -0.140807,0.0805 -0.788126,0.73816 -0.94903,0.81866 -0.160893,0.0804 -0.370324,0.12759 -0.470895,0.13762 -0.100548,0.0101 -0.431098,0.37875 -0.521603,0.44916 -0.09051,0.0704 -0.805006,0.38161 -0.905563,0.44189 -0.100572,0.0603 0.734175,0.90725 0.854851,0.92735 0.114466,0.0191 -0.06582,0.42865 -0.282536,0.47084 -0.551251,-0.69272 -0.88383,-1.56696 -0.88383,-2.52109 0,-2.24054 1.816348,-4.05689 4.056925,-4.05689 z m -0.333249,3.69469 c 0.128338,-0.0136 0.231825,0.007 0.231825,0.007 0.046,0.10725 -0.17022,0.4394 -0.369471,0.48538 -0.199201,0.046 -0.658435,0.72558 -0.673739,0.57232 -0.01536,-0.15324 0.183047,-0.66116 0.412938,-0.89105 0.11494,-0.11498 0.270112,-0.16045 0.398447,-0.17389 z"/>
</g>
</svg>
