<?xml version="1.0" encoding="UTF-8" standalone="no"?>
<svg
   xmlns:dc="http://purl.org/dc/elements/1.1/"
   xmlns:cc="http://creativecommons.org/ns#"
   xmlns:rdf="http://www.w3.org/1999/02/22-rdf-syntax-ns#"
   xmlns:svg="http://www.w3.org/2000/svg"
   xmlns="http://www.w3.org/2000/svg"
   xmlns:xlink="http://www.w3.org/1999/xlink"
   xmlns:sodipodi="http://sodipodi.sourceforge.net/DTD/sodipodi-0.dtd"
   xmlns:inkscape="http://www.inkscape.org/namespaces/inkscape"
   width="48"
   viewBox="0 0 13.546667 13.546667"
   height="48"
   id="svg2"
   version="1.1"
   inkscape:version="0.48.4 r9939"
   sodipodi:docname="boinc.svg">
  <metadata
     id="metadata22">
    <rdf:RDF>
      <cc:Work
         rdf:about="">
        <dc:format>image/svg+xml</dc:format>
        <dc:type
           rdf:resource="http://purl.org/dc/dcmitype/StillImage" />
        <dc:title />
      </cc:Work>
    </rdf:RDF>
  </metadata>
  <sodipodi:namedview
     pagecolor="#333333"
     bordercolor="#666666"
     borderopacity="1"
     objecttolerance="10"
     gridtolerance="10"
     guidetolerance="10"
     inkscape:pageopacity="1"
     inkscape:pageshadow="2"
     inkscape:window-width="1366"
     inkscape:window-height="742"
     id="namedview20"
     showgrid="false"
     showguides="true"
     inkscape:guide-bbox="true"
     inkscape:zoom="9.8526216"
     inkscape:cx="27.031872"
     inkscape:cy="16.64599"
     inkscape:window-x="0"
     inkscape:window-y="26"
     inkscape:window-maximized="1"
     inkscape:current-layer="svg2">
    <sodipodi:guide
       orientation="0,1"
       position="14.440678,84.610169"
       id="guide3010" />
  </sodipodi:namedview>
  <defs
     id="defs4">
    <linearGradient
       id="linearGradient4460">
      <stop
         offset="0"
         style="stop-color:#89abc0;stop-opacity:1;"
         id="stop7" />
      <stop
         offset="1"
         style="stop-color:#c2e2e6;stop-opacity:1;"
         id="stop9" />
    </linearGradient>
    <linearGradient
       gradientTransform="matrix(1.10526,0,0,1.10526,-134.28026,-295.76492)"
       xlink:href="#linearGradient4460"
       id="linearGradient3001"
       y1="279.096"
       y2="268.33"
       gradientUnits="userSpaceOnUse"
       x2="0" />
    <linearGradient
       inkscape:collect="always"
       xlink:href="#linearGradient4460"
       id="linearGradient3040"
       gradientUnits="userSpaceOnUse"
       gradientTransform="matrix(1.10526,0,0,1.10526,-134.28026,-295.76492)"
       y1="279.096"
       x2="0"
       y2="268.33" />
  </defs>
  <rect
     id="rect14"
     style="opacity:0.5;fill:#ffffff;fill-rule:evenodd"
     height="12.982"
     rx="6.4910002"
     y="0.28200001"
     x="0.28200001"
     width="12.982" />
  <rect
     id="rect16"
     style="fill:url(#linearGradient3040);fill-rule:evenodd"
     height="11.853"
     rx="5.9260001"
     y="0.847"
     x="0.847"
     width="11.853" />
  <path
     sodipodi:type="arc"
     style="fill:#fac63b;fill-opacity:1;stroke:none"
     id="path3811"
     sodipodi:cx="23.719082"
     sodipodi:cy="24.634275"
     sodipodi:rx="4.4611306"
     sodipodi:ry="3.8427563"
     d="m 28.180212,24.634275 a 4.4611306,3.8427563 0 1 1 -8.922261,0 4.4611306,3.8427563 0 1 1 8.922261,0 z"
     transform="matrix(0.31751757,0,0,0.37875439,-0.7439137,-2.732789)" />
  <path
     sodipodi:nodetypes="ccccccc"
     style="fill:#174775;fill-opacity:1"
     d="M 3.1044445,3.6775611 3.7627165,3.1044445 5.2074127,4.3334818 C 5.9333844,3.8897539 6.9818426,3.7819232 7.9077612,4.0575106 L 7.4037515,4.7467414 C 6.1908312,4.7138181 5.79186,4.8315248 5.083778,5.5875106 z"
     id="path3833"
     inkscape:connector-curvature="0" />
  <path
     inkscape:connector-curvature="0"
     id="path3835"
     d="M 3.75792,10.442222 3.20015,9.7658381 4.3962769,8.2813922 C 3.9644307,7.535446 3.8594875,6.4581404 4.1276955,5.5067459 l 0.670775,0.5178771 c -0.032042,1.2462929 0.082513,1.6562413 0.8182556,2.3838057 z"
     style="fill:#174775;fill-opacity:1"
     sodipodi:nodetypes="ccccccc" />
  <path
     sodipodi:nodetypes="ccccccc"
     style="fill:#174775;fill-opacity:1"
     d="M 10.442222,9.711404 9.7839497,10.284519 8.3392526,9.0554832 C 7.6132816,9.4992112 6.5648234,9.6070419 5.6389046,9.3314544 L 6.1429144,8.6422236 C 7.3558348,8.6751468 7.7548056,8.5574402 8.462888,7.801455 z"
     id="path3837"
     inkscape:connector-curvature="0" />
  <path
     inkscape:connector-curvature="0"
     id="path3839"
     d="M 9.8695386,3.1089656 10.427306,3.7853519 9.2311788,5.269799 C 9.6630279,6.0157409 9.7679712,7.0930467 9.4997634,8.0444412 L 8.8289883,7.5265641 C 8.8610299,6.2802712 8.7464752,5.8703232 8.0107334,5.1427587 z"
     style="fill:#174775;fill-opacity:1"
     sodipodi:nodetypes="ccccccc" />
</svg>
