<svg xmlns="http://www.w3.org/2000/svg" viewBox="0 0 256 256" xmlns:xlink="http://www.w3.org/1999/xlink">
<defs>
<linearGradient id="linearGradient3895-9-0-3-2-4-0">
<stop offset="0" style="stop-color:#eeb2a4"/>
<stop offset="1" style="stop-color:#cc2908"/>
</linearGradient>
<radialGradient cx="148.004" cy="160" gradientTransform="matrix(.97656 0 0 .97656 -16.5349 -236.25)" r="128" id="radialGradient4432" xlink:href="#linearGradient3895-9-0-3-2-4-0" gradientUnits="userSpaceOnUse"/>
</defs>
<g transform="translate(0 208)">
<path style="fill:url(#radialGradient4432);color:#bebebe" d="m 253,-146.40625 0,132.8125 C 253,41.09375 253,45 194.40625,45 L 61.59375,45 C 3,45 3,41.09375 3,-13.59375 l 0,-132.8125 C 3,-201.09375 3,-205 61.59375,-205 l 132.8125,0 C 253,-205 253,-201.09375 253,-146.40625 z"/>
</g>
<g style="fill:#fff" transform="translate(0 208)">
<path style="opacity:.05" d="m 204.08032,44.993662 c 13.55517,-0.06396 23.34858,-0.435144 30.45654,-2.349786 l -22.55248,-38.664633 -23.92579,41.014419 6.34766,0 c 3.41797,0 6.64139,0.01426 9.67407,0 z m 7.90406,-41.01442 -27.34375,-46.873624 -27.34375,46.873624 54.6875,0 z m 0,0 40.802,0 C 252.95094,-1.20375 253,-7.022538 253,-13.598368 l 0,-5.859203 -13.67187,-23.436811 -27.34375,46.873624 z m 27.34375,-46.873624 -27.34375,-46.873621 -27.34375,46.873621 54.6875,0 z m 0,0 13.67187,0 0,-23.43681 -13.67187,23.43681 z m -54.6875,0 -27.34375,-46.873621 -27.34376,46.873621 54.68751,0 z m -54.68751,0 -27.34374,46.873624 54.6875,0 -27.34376,-46.873624 z m 0,0 -27.34374,-46.873621 -27.34375,46.873621 54.68749,0 z m -54.68749,0 -27.34375,46.873624 54.6875,0 -27.34375,-46.873624 z m 0,0 -27.34375,-46.873621 -27.343755,46.873621 54.687505,0 z m -54.687505,0 L 3,-12.774415 c 0.0034,6.226079 0.05591,11.79834402 0.213614,16.753658 l 44.708266,0 -27.343755,-46.873625 z m 0,0 L 3,-73.014348 l 0,30.119966 17.578125,0 z M 47.92188,3.979243 24.911614,43.406793 c 8.527026,1.571634 20.311776,1.586869 36.682136,1.586869 l 10.2539,0 L 47.92188,3.979243 z m 0,-93.747246 L 20.578125,-136.64161 3,-106.52166 l 0,16.753657 44.92188,0 z m 0,0 54.6875,0 -27.34375,-46.873607 -27.34375,46.873607 z m 27.34375,-46.873607 -27.34375,-46.87364 -27.343755,46.87364 54.687505,0 z m 0,0 54.68749,0 -27.34374,-46.87364 -27.34375,46.87364 z m 27.34375,-46.87364 -12.54273,-21.48374 -28.4729,0 c -0.39895,0 -0.7356,-1e-5 -1.12916,0 l -12.54271,21.48374 54.6875,0 z m 0,0 54.6875,0 -12.54273,-21.48374 -29.60205,0 -12.54272,21.48374 z m 54.6875,0 54.6875,0 -12.54273,-21.48374 c -1.67321,-0.002 -3.25633,0 -5.0354,0 l -24.56665,0 -12.54272,21.48374 z m 0,0 -27.34376,46.87364 54.68751,0 -27.34375,-46.87364 z m 27.34375,46.87364 54.6875,0 -27.34375,-46.87364 -27.34375,46.87364 z m 0,0 -27.34375,46.873607 54.6875,0 -27.34375,-46.873607 z m 27.34375,46.873607 41.01562,0 0,-23.436807 -13.67187,-23.4368 -27.34375,46.873607 z m 27.34375,-46.873607 13.67187,0 0,-9.76535 c 0,-4.89463 -0.0402,-9.34683 -0.12207,-13.45786 l -13.5498,23.22321 z m -82.03125,46.873607 -27.34376,-46.873607 -27.34374,46.873607 54.6875,0 z m 54.6875,-93.747247 38.97094,0 c -2.94957,-14.71522 -10.05142,-19.35598 -26.82494,-20.81237 l -12.146,20.81237 z m -164.0625,0 -12.2986,-21.08702 c -19.509325,1.10943 -27.416405,5.311 -30.57861,21.08702 l 42.87721,0 z M 20.578125,-136.64161 3.30517,-166.27332 C 3.074557,-160.53933 3,-153.96515 3,-146.40696 l 0,9.76535 17.578125,0 z M 102.60938,3.979243 78.68359,44.993662 l 47.85157,0 -23.92578,-41.01442 z m 54.6875,0 -23.92579,41.014419 47.85157,0 L 157.29688,3.979243 z M 13.833739,39.287042 5.288818,24.639036 c 1.572341,7.028886 4.191602,11.640722 8.544921,14.648006 z"/>
<path style="line-height:normal;color:#000" d="M 127.99999,-180 C 72.808489,-180 28,-135.19125 28,-80.000001 28,-24.808125 72.808559,20 127.99999,20 c 55.19144,0 100,-44.808125 100,-100.000001 0,-55.191249 -44.8085,-99.999999 -100,-99.999999 z m 0,18.67 c 43.75,0 81.25,37.5 81.25,81.249999 0,43.75 -37.5,81.250001 -81.25,81.250001 -43.750001,0 -81.249991,-37.500001 -81.249991,-81.250001 0,-43.749999 37.49999,-81.249999 81.249991,-81.249999 z m 0,65.704999 c -8.608,0 -15.625,7.01688 -15.625,15.625 0,8.60875 7.01719,15.625 15.625,15.625 8.60782,0 15.625,-7.01625 15.625,-15.625 0,-8.60812 -7.017,-15.625 -15.625,-15.625 z m 0,6.25 c 5.2835,0 9.375,4.09188 9.375,9.375 0,5.28375 -4.09137,9.375 -9.375,9.375 -5.28362,0 -9.375,-4.09125 -9.375,-9.375 0,-5.28312 4.0915,-9.375 9.375,-9.375 z"/>
<path d="m 34.249999,-55.080001 c 0,0 -8.416936,-2.8375 6.56163,-17.90687 14.9785,-15.06875 14.88818,-45.116879 14.88818,-45.116879 0,0 15.06881,14.97875 12.09118,24.001879 -2.97762,9.02375 -2.97762,9.02375 -2.97762,9.02375 0,0 12.00087,-6.04563 14.97856,-15.068749 2.97763,-9.02313 -3.068,-21.025 -0.09,-30.0475 2.97763,-9.02313 17.95613,-24.0925 17.95613,-24.0925 0,0 -2.97763,9.02312 3.068001,21.02437 6.04556,12.00063 15.06881,14.97813 9.11356,33.02563 -5.95531,18.045619 -5.95531,18.045619 -5.95531,18.045619 0,0 14.97856,-15.06812 17.95618,-24.091869 2.97763,-9.02313 -0.09,-30.04688 -0.09,-30.04688 0,0 24.09207,17.95563 21.11444,26.97875 -2.97762,9.02375 -2.97762,9.02375 -2.97762,9.02375 0,0 12.00087,-6.04625 14.9785,-15.06875 2.97768,-9.02312 6.04562,12.00063 3.068,21.023749 -2.97763,9.02375 0,0 0,0 l -2.97763,9.02375 c 0,0 12.00088,-6.04625 14.9785,-15.068749 2.97763,-9.02437 5.95531,-18.04687 5.95531,-18.04687 0,0 6.04557,12.00062 3.06794,21.023749 -2.97762,9.02375 9.02325,2.9775 12.00088,-6.044999 2.97768,-9.02313 5.95531,-18.04688 5.95531,-18.04688 0,0 15.06881,14.97875 12.09119,24.001249 -2.97763,9.02438 6.78987,22.99813 12.74518,4.95125 0,-18.749999 -21.32362,-67.511869 -56.25,-74.999999 -6.25,0 -55.06437,-32.70687 -100.000001,12.5 -44.935614,45.20625 -30.73386,70.092499 -30.73386,70.092499 z"/>
</g>
</svg>
