<?xml version="1.0" encoding="UTF-8" standalone="no"?>
<svg
   xmlns:dc="http://purl.org/dc/elements/1.1/"
   xmlns:cc="http://creativecommons.org/ns#"
   xmlns:rdf="http://www.w3.org/1999/02/22-rdf-syntax-ns#"
   xmlns:svg="http://www.w3.org/2000/svg"
   xmlns="http://www.w3.org/2000/svg"
   xmlns:xlink="http://www.w3.org/1999/xlink"
   xmlns:sodipodi="http://sodipodi.sourceforge.net/DTD/sodipodi-0.dtd"
   xmlns:inkscape="http://www.inkscape.org/namespaces/inkscape"
   width="48"
   viewBox="0 0 13.546667 13.546667"
   height="48"
   id="svg2"
   version="1.1"
   inkscape:version="0.48.4 r9939"
   sodipodi:docname="access.svg">
  <metadata
     id="metadata24">
    <rdf:RDF>
      <cc:Work
         rdf:about="">
        <dc:format>image/svg+xml</dc:format>
        <dc:type
           rdf:resource="http://purl.org/dc/dcmitype/StillImage" />
        <dc:title></dc:title>
      </cc:Work>
    </rdf:RDF>
  </metadata>
  <sodipodi:namedview
     pagecolor="#ffffff"
     bordercolor="#666666"
     borderopacity="1"
     objecttolerance="10"
     gridtolerance="10"
     guidetolerance="10"
     inkscape:pageopacity="0"
     inkscape:pageshadow="2"
     inkscape:window-width="1366"
     inkscape:window-height="742"
     id="namedview22"
     showgrid="false"
     inkscape:zoom="4.9166667"
     inkscape:cx="24.40678"
     inkscape:cy="24"
     inkscape:window-x="0"
     inkscape:window-y="26"
     inkscape:window-maximized="1"
     inkscape:current-layer="svg2" />
  <defs
     id="defs4">
    <linearGradient
       id="linearGradient4460">
      <stop
         offset="0"
         style="stop-color:#aeaeae;stop-opacity:1;"
         id="stop7" />
      <stop
         offset="1"
         style="stop-color:#dedede;stop-opacity:1;"
         id="stop9" />
    </linearGradient>
    <linearGradient
       gradientTransform="matrix(1.10525 0 0 1.10525 -134.27874 -295.76183)"
       xlink:href="#linearGradient4460"
       id="linearGradient3002"
       y1="279.096"
       y2="268.33"
       gradientUnits="userSpaceOnUse"
       x2="0" />
  </defs>
  <g
     style="fill-rule:evenodd"
     id="g12">
    <rect
       width="12.982"
       x=".282"
       y=".282"
       rx="6.491"
       height="12.982"
       style="opacity:.5;fill:#fff"
       id="rect14" />
    <rect
       width="11.853"
       x=".847"
       y=".847"
       rx="5.926"
       height="11.853"
       style="fill:url(#linearGradient3002)"
       id="rect16" />
  </g>
  <path
     inkscape:connector-curvature="0"
     id="path20-7"
     d="m 3.3264804,3.3248927 c -0.1917453,0.190709 -0.3184709,0.377391 -0.1272667,0.568648 l 6.4349131,6.4378073 c 0.1912041,0.191303 0.4280672,0.114855 0.6198152,-0.07588 0.191745,-0.190708 0.269065,-0.4268013 0.07786,-0.6180813 L 3.8968896,3.1995617 c -0.1912042,-0.191304 -0.3786617,-0.0654 -0.5704092,0.125331 z m 1.226081,1.226623 c 0.098134,-0.09761 0.1900669,-0.157837 0.2879481,-0.05991 l 5.3168695,5.319292 c 0.09785,0.09786 0.02077,0.17298 -0.07735,0.2705873 -0.098134,0.09763 -0.1744167,0.173484 -0.2714794,0.0764 L 4.4916761,4.8385697 c -0.097849,-0.09786 -0.037251,-0.18945 0.060885,-0.287057 z"
     style="line-height:normal;color:#000000;fill:#2d2d2d;fill-opacity:1" />
  <path
     style="fill:#0099ff;fill-opacity:1"
     inkscape:connector-curvature="0"
     id="path22"
     d="m 4.9388886,7.0020847 -0.2293057,0.686248 -0.6879166,0.228749 0.6879166,0.228749 0.2293057,0.686248 0.2293055,-0.686248 0.6879167,-0.228749 -0.6879167,-0.228749 z" />
  <path
     style="fill:#d42193;fill-opacity:1"
     inkscape:connector-curvature="0"
     id="path24"
     d="m 8.9517363,3.2277197 -0.3439584,1.029372 -1.031875,0.343125 1.031875,0.343123 0.3439584,1.029373 0.3439583,-1.029373 1.0318744,-0.343123 -1.0318744,-0.343125 z" />
  <path
     style="fill:#ff5c00;fill-opacity:1"
     inkscape:connector-curvature="0"
     id="path26"
     d="m 6.0854164,3.1133457 -0.2293056,0.686248 -0.6879167,0.228749 0.6879167,0.228749 0.2293056,0.686248 0.2293055,-0.686248 0.6879168,-0.228749 -0.6879168,-0.228749 z" />
</svg>
