<svg xmlns="http://www.w3.org/2000/svg" viewBox="0 0 256 256" xmlns:xlink="http://www.w3.org/1999/xlink">
<defs>
<linearGradient id="linearGradient3895-9-0-3-2-4-0">
<stop offset="0" style="stop-color:#ccf6c7"/>
<stop offset="1" style="stop-color:#007222"/>
</linearGradient>
<radialGradient cx="148.004" cy="160" gradientTransform="matrix(.97656 0 0 .97656 -16.5349 -236.25)" r="128" id="radialGradient4432" xlink:href="#linearGradient3895-9-0-3-2-4-0" gradientUnits="userSpaceOnUse"/>
</defs>
<g transform="translate(0 208)">
<path style="fill:url(#radialGradient4432);color:#bebebe" d="m 253,-146.40625 0,132.8125 C 253,41.09375 253,45 194.40625,45 L 61.59375,45 C 3,45 3,41.09375 3,-13.59375 l 0,-132.8125 C 3,-201.09375 3,-205 61.59375,-205 l 132.8125,0 C 253,-205 253,-201.09375 253,-146.40625 z"/>
</g>
<g style="fill:#fff" transform="translate(0 208)">
<path style="opacity:.05" d="m 204.08032,44.993662 c 13.55517,-0.06396 23.34858,-0.435144 30.45654,-2.349786 l -22.55248,-38.664633 -23.92579,41.014419 6.34766,0 c 3.41797,0 6.64139,0.01426 9.67407,0 z m 7.90406,-41.01442 -27.34375,-46.873624 -27.34375,46.873624 54.6875,0 z m 0,0 40.802,0 C 252.95094,-1.20375 253,-7.022538 253,-13.598368 l 0,-5.859203 -13.67187,-23.436811 -27.34375,46.873624 z m 27.34375,-46.873624 -27.34375,-46.873621 -27.34375,46.873621 54.6875,0 z m 0,0 13.67187,0 0,-23.43681 -13.67187,23.43681 z m -54.6875,0 -27.34375,-46.873621 -27.34376,46.873621 54.68751,0 z m -54.68751,0 -27.34374,46.873624 54.6875,0 -27.34376,-46.873624 z m 0,0 -27.34374,-46.873621 -27.34375,46.873621 54.68749,0 z m -54.68749,0 -27.34375,46.873624 54.6875,0 -27.34375,-46.873624 z m 0,0 -27.34375,-46.873621 -27.343755,46.873621 54.687505,0 z m -54.687505,0 L 3,-12.774415 c 0.0034,6.226079 0.05591,11.79834402 0.213614,16.753658 l 44.708266,0 -27.343755,-46.873625 z m 0,0 L 3,-73.014348 l 0,30.119966 17.578125,0 z M 47.92188,3.979243 24.911614,43.406793 c 8.527026,1.571634 20.311776,1.586869 36.682136,1.586869 l 10.2539,0 L 47.92188,3.979243 z m 0,-93.747246 L 20.578125,-136.64161 3,-106.52166 l 0,16.753657 44.92188,0 z m 0,0 54.6875,0 -27.34375,-46.873607 -27.34375,46.873607 z m 27.34375,-46.873607 -27.34375,-46.87364 -27.343755,46.87364 54.687505,0 z m 0,0 54.68749,0 -27.34374,-46.87364 -27.34375,46.87364 z m 27.34375,-46.87364 -12.54273,-21.48374 -28.4729,0 c -0.39895,0 -0.7356,-1e-5 -1.12916,0 l -12.54271,21.48374 54.6875,0 z m 0,0 54.6875,0 -12.54273,-21.48374 -29.60205,0 -12.54272,21.48374 z m 54.6875,0 54.6875,0 -12.54273,-21.48374 c -1.67321,-0.002 -3.25633,0 -5.0354,0 l -24.56665,0 -12.54272,21.48374 z m 0,0 -27.34376,46.87364 54.68751,0 -27.34375,-46.87364 z m 27.34375,46.87364 54.6875,0 -27.34375,-46.87364 -27.34375,46.87364 z m 0,0 -27.34375,46.873607 54.6875,0 -27.34375,-46.873607 z m 27.34375,46.873607 41.01562,0 0,-23.436807 -13.67187,-23.4368 -27.34375,46.873607 z m 27.34375,-46.873607 13.67187,0 0,-9.76535 c 0,-4.89463 -0.0402,-9.34683 -0.12207,-13.45786 l -13.5498,23.22321 z m -82.03125,46.873607 -27.34376,-46.873607 -27.34374,46.873607 54.6875,0 z m 54.6875,-93.747247 38.97094,0 c -2.94957,-14.71522 -10.05142,-19.35598 -26.82494,-20.81237 l -12.146,20.81237 z m -164.0625,0 -12.2986,-21.08702 c -19.509325,1.10943 -27.416405,5.311 -30.57861,21.08702 l 42.87721,0 z M 20.578125,-136.64161 3.30517,-166.27332 C 3.074557,-160.53933 3,-153.96515 3,-146.40696 l 0,9.76535 17.578125,0 z M 102.60938,3.979243 78.68359,44.993662 l 47.85157,0 -23.92578,-41.01442 z m 54.6875,0 -23.92579,41.014419 47.85157,0 L 157.29688,3.979243 z M 13.833739,39.287042 5.288818,24.639036 c 1.572341,7.028886 4.191602,11.640722 8.544921,14.648006 z"/>
<path style="fill-rule:evenodd" d="m 68.625002,-95.859497 43.880908,43.30125 74.86909,-62.051243 c -0.15675,-0.425 -24.73145,-25.57063 -25,-25 l -50,43.749993 -18.749998,-18.749993 z"/>
<path style="line-height:normal;color:#000" d="m 34.718844,-170 c -3.659606,0.38583 -6.738431,3.80411 -6.71875,7.46759 l 0,134.416591 c 3.94e-4,3.909905 3.573112,7.466967 7.5,7.467589 l 67.499966,0 -6e-5,11.9792571 50,0 4e-5,-11.9792571 67.49996,0 c 3.92689,-6.22e-4 7.49961,-3.557684 7.5,-7.467589 l 0,-134.416591 c -3.9e-4,-3.90991 -3.57311,-7.46697 -7.5,-7.46759 l -184.999906,0 z m 10.312494,12.21261 c 0.311625,-0.0622 0.625918,-0.0622 0.9375,0 l 164.296802,0 c 2.61791,6.3e-4 4.99973,2.37159 4.99999,4.9784 l 0,114.191872 c -2.6e-4,2.606816 -2.38208,4.977775 -4.99999,4.978393 l -164.296802,0 c -2.617919,-6.18e-4 -4.999738,-2.371577 -5,-4.978393 l 0,-114.191872 c -0.04125,-2.32304 1.770487,-4.54528 4.0625,-4.9784 z M 71.750002,-2.4459821 71.750002,10 184.25,10 l 0,-12.4459821 z"/>
</g>
</svg>
