<svg width="48" xmlns="http://www.w3.org/2000/svg" viewBox="0 0 13.546667 13.546667" height="48" xmlns:xlink="http://www.w3.org/1999/xlink">
<defs>
<linearGradient id="linearGradient4460">
<stop offset="0" style="stop-color:#feb88a"/>
<stop offset="1" style="stop-color:#21b8e7"/>
</linearGradient>
<linearGradient gradientTransform="matrix(1.09524 0 0 1.09524 -133.00183 -9.56867)" xlink:href="#linearGradient4460" id="linearGradient4500" y1="279.096" y2="268.33" gradientUnits="userSpaceOnUse" x2="0"/>
</defs>
<g style="fill-rule:evenodd" transform="translate(0 -283.45331)">
<rect width="12.982" x=".282" y="283.736" rx="6.491" height="12.982" style="opacity:.5;fill:#fff"/>
<rect width="11.746" x=".9" y="284.354" rx="5.873" height="11.746" style="fill:url(#linearGradient4500)"/>
</g>
<g transform="translate(0 -283.45331)">
<path style="fill:#001c37" d="m 7.2989911,294.19791 -0.00133,-0.33009 c -7.356e-4,-0.18201 0.014242,-0.55719 0.00293,-0.83476 -0.028993,-0.71104 -0.033054,-0.76121 -0.060187,-0.74445 -0.013297,0.009 -0.025725,-0.0398 -0.027633,-0.10662 -0.00198,-0.0669 -0.036444,-0.17295 -0.076761,-0.23577 -0.2200227,-0.34277 -0.3267958,-0.48855 -0.5036163,-0.68757 -0.1075117,-0.12101 -0.1954772,-0.23697 -0.1954772,-0.25768 0,-0.0207 -0.032941,-0.0671 -0.073191,-0.10298 -0.1839828,-0.16414 -0.5501687,-0.81681 -0.5952895,-1.06102 -0.013694,-0.0741 -0.024214,-0.30042 -0.023374,-0.50294 0.00133,-0.31833 0.023091,-0.43316 0.160802,-0.84783 0.087603,-0.26381 0.1720531,-0.57573 0.1876697,-0.69317 0.027407,-0.20612 0.023619,-0.21799 -0.1094393,-0.34317 -0.075808,-0.0714 -0.2349082,-0.18232 -0.3535573,-0.24669 l -0.2157251,-0.11701 -0.4074497,0.046 c -1.0678613,0.12043 -1.703218,0.43603 -2.3175875,1.15119 -0.1597062,0.18591 -0.2080302,0.16594 -0.1122745,-0.0463 0.087282,-0.19356 0.5202689,-0.65427 0.6149038,-0.65427 0.014543,0 0.1191727,-0.0602 0.2324981,-0.13357 0.3956466,-0.25649 0.7843768,-0.38715 1.5787468,-0.53065 0.4689707,-0.0847 0.5755438,-0.11709 0.6257917,-0.19018 0.138812,-0.20191 0.368647,-0.3945 0.5002645,-0.4192 0.1993653,-0.0375 0.5546518,0.0478 0.6785235,0.1626 0.170847,0.15842 0.2079158,0.33963 0.181294,0.88621 -0.013051,0.26797 -0.050799,0.57277 -0.083873,0.67734 -0.063181,0.21692 -0.072936,0.42276 -0.085194,0.64556 l 0.2826142,0.0753 c 0.1554393,0.0415 0.3643722,0.0941 0.4642961,0.11685 0.3100653,0.0707 0.5006348,0.1351 0.6056042,0.20463 0.055511,0.0367 0.1554383,0.0939 0.2220545,0.12685 0.3654898,0.18116 0.5917838,0.30918 0.8222591,0.46514 0.1413657,0.0957 0.274296,0.17395 0.2954016,0.17395 0.045322,0 0.2695187,0.16193 0.5010636,0.36193 0.0909,0.0786 0.306479,0.24267 0.479057,0.36481 0.490847,0.34735 0.833145,0.6245 0.789344,0.63909 -0.02201,0.008 -0.08806,-0.0244 -0.146781,-0.0707 -0.05873,-0.0462 -0.131928,-0.0839 -0.162683,-0.0839 -0.03075,0 -0.123688,-0.0428 -0.206516,-0.0951 -0.187617,-0.1184 -0.30885,-0.15739 -0.30885,-0.10172 0,0.0229 0.04924,0.0518 0.138064,0.0756 0.09491,0.0255 0.161494,0.0678 0.161494,0.1025 0,0.0338 0.03866,0.0595 0.09084,0.0602 0.04996,7.2e-4 0.125331,0.0274 0.167485,0.0593 0.06116,0.0462 0.06687,0.0698 0.02832,0.11624 -0.03272,0.0395 -0.03473,0.0668 -0.0062,0.0842 0.02316,0.0143 0.06081,0.0608 0.08363,0.10359 0.03571,0.0668 0.02141,0.0861 -0.102417,0.13771 -0.160776,0.0671 -0.383124,0.0435 -0.436498,-0.0465 -0.01845,-0.0311 -0.08202,-0.0758 -0.141307,-0.0995 -0.06425,-0.0256 -0.08677,-0.0507 -0.05578,-0.0623 0.0286,-0.0105 0.115716,0.0109 0.193594,0.0479 0.07789,0.0369 0.161124,0.0606 0.184989,0.0527 0.07444,-0.0248 -0.219988,-0.21764 -0.401496,-0.26295 -0.190592,-0.0476 -0.997474,-0.0338 -1.2201027,0.021 -0.1339364,0.0328 -0.136307,0.0364 -0.045425,0.0664 0.065428,0.0216 0.1069046,0.0143 0.1305957,-0.0231 0.025575,-0.0404 0.034877,-0.0317 0.035331,0.0327 5.817e-4,0.0788 -0.026775,0.0902 -0.2719053,0.11328 -0.1498861,0.014 -0.4224067,0.0706 -0.6056013,0.12564 -0.3275537,0.0983 -0.3330824,0.10216 -0.3330824,0.23003 0,0.0715 0.034349,0.25016 0.076336,0.39695 0.056579,0.19785 0.067931,0.31272 0.043876,0.44399 -0.017848,0.0974 -0.025102,0.18447 -0.016121,0.19353 0.00897,0.01 -1.757e-4,0.0364 -0.020286,0.0606 -0.031288,0.0377 -0.089662,0.81284 -0.1006101,1.336 -0.00416,0.19905 -0.062785,0.25993 -0.1792263,0.18615 -0.045661,-0.0289 -0.044784,-0.0506 0.00528,-0.13059 0.035841,-0.0573 0.062926,-0.21029 0.067242,-0.37977 0.00397,-0.15613 0.022014,-0.42865 0.04008,-0.60561 0.028199,-0.27615 0.031043,-0.75627 0.0084,-1.41738 l -0.00576,-0.16703 -0.2725215,-0.0182 c -0.1498871,-0.01 -0.2997746,-0.0256 -0.3330826,-0.0348 -0.097042,-0.0265 -0.078319,0.3059 0.034291,0.60919 0.094364,0.25412 0.069962,0.67477 0.068799,0.96116 -3.059e-4,0.0711 -0.039438,0.43157 -0.025158,0.53527 l 0.0795,0.57753 c -0.2252725,0.21764 -0.2005197,0.0394 -0.2239588,-0.14201 z m -0.232936,-2.4549 c -3.8423938,2.82134 -1.9211969,1.41068 0,0 z m 1.8815957,-0.43322 c -0.4812641,-0.063 0.094896,-0.71484 0,0 z m -3.0515686,-1.69755 c 1.9605817,-0.24452 1.8564785,1.31364 0,0 z"/>
</g>
</svg>
