<?xml version="1.0" encoding="UTF-8" standalone="no"?>
<svg
   xmlns:dc="http://purl.org/dc/elements/1.1/"
   xmlns:cc="http://creativecommons.org/ns#"
   xmlns:rdf="http://www.w3.org/1999/02/22-rdf-syntax-ns#"
   xmlns:svg="http://www.w3.org/2000/svg"
   xmlns="http://www.w3.org/2000/svg"
   xmlns:xlink="http://www.w3.org/1999/xlink"
   xmlns:sodipodi="http://sodipodi.sourceforge.net/DTD/sodipodi-0.dtd"
   xmlns:inkscape="http://www.inkscape.org/namespaces/inkscape"
   width="48"
   viewBox="0 0 13.546667 13.546667"
   height="48"
   id="svg2"
   version="1.1"
   inkscape:version="0.48.3.1 r9886"
   sodipodi:docname="diodon.svg">
  <metadata
     id="metadata24">
    <rdf:RDF>
      <cc:Work
         rdf:about="">
        <dc:format>image/svg+xml</dc:format>
        <dc:type
           rdf:resource="http://purl.org/dc/dcmitype/StillImage" />
        <dc:title />
      </cc:Work>
    </rdf:RDF>
  </metadata>
  <sodipodi:namedview
     pagecolor="#ffffff"
     bordercolor="#666666"
     borderopacity="1"
     objecttolerance="10"
     gridtolerance="10"
     guidetolerance="10"
     inkscape:pageopacity="0"
     inkscape:pageshadow="2"
     inkscape:window-width="1366"
     inkscape:window-height="722"
     id="namedview22"
     showgrid="false"
     inkscape:zoom="8.58"
     inkscape:cx="0.30508475"
     inkscape:cy="24"
     inkscape:window-x="0"
     inkscape:window-y="24"
     inkscape:window-maximized="1"
     inkscape:current-layer="g12" />
  <defs
     id="defs4">
    <linearGradient
       id="linearGradient4460">
      <stop
         offset="0"
         style="stop-color:#e54e35"
         id="stop7" />
      <stop
         offset="1"
         style="stop-color:#e5ca35"
         id="stop9" />
    </linearGradient>
    <linearGradient
       gradientTransform="matrix(1.10525,0,0,1.10525,-134.22094,-295.762)"
       xlink:href="#linearGradient4460"
       id="linearGradient3851"
       y1="279.096"
       y2="268.33"
       gradientUnits="userSpaceOnUse"
       x2="0" />
    <radialGradient
       id="radialGradient3305"
       gradientUnits="userSpaceOnUse"
       cy="274.87"
       cx="163.49001"
       gradientTransform="matrix(1,0,0,-1,24.945,588.36)"
       r="2.8801">
      <stop
         id="stop190"
         style="stop-color:#FAF0BB"
         offset=".0112" />
      <stop
         id="stop192"
         style="stop-color:#FAF0BD"
         offset=".4917" />
      <stop
         id="stop194"
         style="stop-color:#FBF2C5"
         offset=".6648" />
      <stop
         id="stop196"
         style="stop-color:#FCF6D0"
         offset=".7882" />
      <stop
         id="stop198"
         style="stop-color:#FCF8E1"
         offset=".8879" />
      <stop
         id="stop200"
         style="stop-color:#FFFDF7"
         offset=".9723" />
      <stop
         id="stop202"
         style="stop-color:#fff"
         offset="1" />
    </radialGradient>
    <radialGradient
       id="radialGradient3307"
       gradientUnits="userSpaceOnUse"
       cy="310.67999"
       cx="155.32001"
       gradientTransform="matrix(1,0,0,-1,24.945,588.36)"
       r="4.4867001">
      <stop
         id="stop207"
         style="stop-color:#FAF0BB"
         offset=".0112" />
      <stop
         id="stop209"
         style="stop-color:#FAF0BD"
         offset=".4917" />
      <stop
         id="stop211"
         style="stop-color:#FBF2C5"
         offset=".6648" />
      <stop
         id="stop213"
         style="stop-color:#FCF6D0"
         offset=".7882" />
      <stop
         id="stop215"
         style="stop-color:#FCF8E1"
         offset=".8879" />
      <stop
         id="stop217"
         style="stop-color:#FFFDF7"
         offset=".9723" />
      <stop
         id="stop219"
         style="stop-color:#fff"
         offset="1" />
    </radialGradient>
    <radialGradient
       id="radialGradient3310"
       gradientUnits="userSpaceOnUse"
       cy="302.01001"
       cx="170.31"
       gradientTransform="matrix(1,0,0,-1,24.945,588.36)"
       r="5.0811">
      <stop
         id="stop224"
         style="stop-color:#FAF0BB"
         offset=".0112" />
      <stop
         id="stop226"
         style="stop-color:#FAF0BD"
         offset=".4917" />
      <stop
         id="stop228"
         style="stop-color:#FBF2C5"
         offset=".6648" />
      <stop
         id="stop230"
         style="stop-color:#FCF6D0"
         offset=".7882" />
      <stop
         id="stop232"
         style="stop-color:#FCF8E1"
         offset=".8879" />
      <stop
         id="stop234"
         style="stop-color:#FFFDF7"
         offset=".9723" />
      <stop
         id="stop236"
         style="stop-color:#fff"
         offset="1" />
    </radialGradient>
    <radialGradient
       id="radialGradient3312"
       gradientUnits="userSpaceOnUse"
       cy="283.67999"
       cx="173.28"
       gradientTransform="matrix(1,0,0,-1,24.945,588.36)"
       r="2.8803999">
      <stop
         id="stop241"
         style="stop-color:#FAF0BB"
         offset=".0112" />
      <stop
         id="stop243"
         style="stop-color:#FAF0BD"
         offset=".4917" />
      <stop
         id="stop245"
         style="stop-color:#FBF2C5"
         offset=".6648" />
      <stop
         id="stop247"
         style="stop-color:#FCF6D0"
         offset=".7882" />
      <stop
         id="stop249"
         style="stop-color:#FCF8E1"
         offset=".8879" />
      <stop
         id="stop251"
         style="stop-color:#FFFDF7"
         offset=".9723" />
      <stop
         id="stop253"
         style="stop-color:#fff"
         offset="1" />
    </radialGradient>
    <radialGradient
       id="radialGradient3314"
       gradientUnits="userSpaceOnUse"
       cy="270.04001"
       cx="148.95"
       gradientTransform="matrix(1,0,0,-1,24.945,588.36)"
       r="2.8799">
      <stop
         id="stop258"
         style="stop-color:#FAF0BB"
         offset=".0112" />
      <stop
         id="stop260"
         style="stop-color:#FAF0BD"
         offset=".4917" />
      <stop
         id="stop262"
         style="stop-color:#FBF2C5"
         offset=".6648" />
      <stop
         id="stop264"
         style="stop-color:#FCF6D0"
         offset=".7882" />
      <stop
         id="stop266"
         style="stop-color:#FCF8E1"
         offset=".8879" />
      <stop
         id="stop268"
         style="stop-color:#FFFDF7"
         offset=".9723" />
      <stop
         id="stop270"
         style="stop-color:#fff"
         offset="1" />
    </radialGradient>
    <radialGradient
       id="radialGradient3316"
       gradientUnits="userSpaceOnUse"
       cy="319.09"
       cx="148.07001"
       gradientTransform="matrix(1,0,0,-1,24.945,588.36)"
       r="3.9265001">
      <stop
         id="stop275"
         style="stop-color:#FAF0BB"
         offset=".0112" />
      <stop
         id="stop277"
         style="stop-color:#FAF0BD"
         offset=".4917" />
      <stop
         id="stop279"
         style="stop-color:#FBF2C5"
         offset=".6648" />
      <stop
         id="stop281"
         style="stop-color:#FCF6D0"
         offset=".7882" />
      <stop
         id="stop283"
         style="stop-color:#FCF8E1"
         offset=".8879" />
      <stop
         id="stop285"
         style="stop-color:#FFFDF7"
         offset=".9723" />
      <stop
         id="stop287"
         style="stop-color:#fff"
         offset="1" />
    </radialGradient>
    <radialGradient
       id="radialGradient3318"
       gradientUnits="userSpaceOnUse"
       cy="315.56"
       cx="112.96"
       gradientTransform="matrix(1,0,0,-1,24.945,588.36)"
       r="3.0683999">
      <stop
         id="stop292"
         style="stop-color:#FAF0BB"
         offset=".0112" />
      <stop
         id="stop294"
         style="stop-color:#FAF0BD"
         offset=".4917" />
      <stop
         id="stop296"
         style="stop-color:#FBF2C5"
         offset=".6648" />
      <stop
         id="stop298"
         style="stop-color:#FCF6D0"
         offset=".7882" />
      <stop
         id="stop300"
         style="stop-color:#FCF8E1"
         offset=".8879" />
      <stop
         id="stop302"
         style="stop-color:#FFFDF7"
         offset=".9723" />
      <stop
         id="stop304"
         style="stop-color:#fff"
         offset="1" />
    </radialGradient>
    <radialGradient
       id="radialGradient3320"
       gradientUnits="userSpaceOnUse"
       cy="320.10999"
       cx="132.09"
       gradientTransform="matrix(1,0,0,-1,24.945,588.36)"
       r="4.1712999">
      <stop
         id="stop309"
         style="stop-color:#FAF0BB"
         offset=".0112" />
      <stop
         id="stop311"
         style="stop-color:#FAF0BD"
         offset=".4917" />
      <stop
         id="stop313"
         style="stop-color:#FBF2C5"
         offset=".6648" />
      <stop
         id="stop315"
         style="stop-color:#FCF6D0"
         offset=".7882" />
      <stop
         id="stop317"
         style="stop-color:#FCF8E1"
         offset=".8879" />
      <stop
         id="stop319"
         style="stop-color:#FFFDF7"
         offset=".9723" />
      <stop
         id="stop321"
         style="stop-color:#fff"
         offset="1" />
    </radialGradient>
    <radialGradient
       id="radialGradient3322"
       gradientUnits="userSpaceOnUse"
       cy="301.20999"
       cx="147.44"
       gradientTransform="matrix(1,0,0,-1,24.945,588.36)"
       r="2.5313001">
      <stop
         id="stop326"
         style="stop-color:#FAF0BB"
         offset=".0112" />
      <stop
         id="stop328"
         style="stop-color:#FAF0BD"
         offset=".4917" />
      <stop
         id="stop330"
         style="stop-color:#FBF2C5"
         offset=".6648" />
      <stop
         id="stop332"
         style="stop-color:#FCF6D0"
         offset=".7882" />
      <stop
         id="stop334"
         style="stop-color:#FCF8E1"
         offset=".8879" />
      <stop
         id="stop336"
         style="stop-color:#FFFDF7"
         offset=".9723" />
      <stop
         id="stop338"
         style="stop-color:#fff"
         offset="1" />
    </radialGradient>
  </defs>
  <g
     style="fill-rule:evenodd"
     id="g12">
    <rect
       width="12.982"
       x=".282"
       y=".282"
       rx="6.491"
       height="12.982"
       style="opacity:.5;fill:#fff"
       id="rect14" />
    <rect
       width="11.853"
       x="0.90480709"
       y="0.84683365"
       rx="5.9260001"
       height="11.853"
       style="fill:url(#linearGradient3851)"
       id="rect16" />
    <g
       id="layer1"
       transform="matrix(0.18405927,0,0,0.18405927,0.60465526,6.4519562)"
       style="fill:#ffffff">
      <g
         id="g3183"
         transform="matrix(0.97649,0,0,0.80896,0.24705,-24.412)"
         style="fill:#ffffff">
        <path
           inkscape:connector-curvature="0"
           id="path5"
           d="m 57.813633,28.509082 c -0.30488,-0.66978 -0.93996,-2.526 -1.2643,-3.18 -0.49996,-1.0059 -2.4099,-0.34074 -2.8503,-1.4021 -0.61524,-1.4819 0.40284,-3.0758 -0.26687,-4.517 -0.51052,-1.0985 -2.3208,-1.75 -2.8309,-2.8485 -0.37413,-0.80454 0.05785,-5.08 -0.91589,-3.7039 -1.6439,2.3236 -3.1336,4.93 -4.5186,7.7698 -0.22718,-0.29954 -0.46027,-0.59044 -0.69969,-0.87269 l 1.274,-2.3958 -1.9488,1.6416 c -0.208,-0.223 -0.422,-0.439 -0.64,-0.648 l 0.93658,-2.1629 -1.5641,1.5852 c -0.535,-0.471 -1.093,-0.908 -1.672,-1.308 l 1.1688,-5.789 -2.8731,4.753 c -0.286,-0.151 -0.575,-0.295 -0.868,-0.429 l 0.28376,-3.5401 -1.3601,3.0931 c -1.214,-0.454 -2.482,-0.759 -3.787,-0.9 l -0.34964,-4.8063997 -1.2263,4.7163997 h -0.01056 c -1.4222,-0.0066 -2.8182,0.18512 -4.1644,0.55382 l -1.1908,-2.8561 0.19635,3.1638 c -0.40326,0.13935 -0.80104,0.29446 -1.1933,0.46533 l -0.67647,-1.1931 0.24365,1.3889 c -0.48223,0.22631 -0.95432,0.47703 -1.4163,0.75013 l -2.6493,-2.6766 1.4881,3.4252 c -0.73389,0.51517 -1.4349,1.0883 -2.0965,1.7159 -0.09374,0.089 -0.18706,0.18003 -0.27954,0.27106 l -2.6176,-1.7759 1.7558,2.6852 c -0.26434,0.297 -0.5215,0.60519 -0.7719,0.92253 l -2.0729,-1.396 1.4581,2.2158 c -0.34077,0.47906 -0.66507,0.97847 -0.97163,1.4957 -1.2706,0.25123 -2.4082,1.1575 -3.0906,2.497 0.0025,-0.005 0.0051,-0.01071 0.008,-0.01578 -0.50798,0.01071 -0.90745,0.31124 -1.1177,1.0461 -0.73474,2.5687 -0.5367,4.3752 0.16891,5.4086 -0.11992,0.09664 -0.23731,0.20241 -0.35175,0.31785 -1.9015,1.9259 -2.2055,5.7884 -0.679,8.6252 0.84706,1.574 2.0797,2.5016 3.3342,2.6867 0.64522,1.7194 1.4881,3.3372 2.5116,4.81 3.3334,4.7998 8.4204,7.8491 14.241,7.7225 5.7664,-0.12612 10.742,-3.3529 13.963,-8.1955 2.2688,-3.4104 3.604,-7.5364 3.8038,-11.872 l 2.182,-0.578 -2.157,-0.459 c 0.003,-0.73436 -0.02618,-1.4738 -0.08952,-2.2158 l 3.3321,-2.1126 -3.5377,0.40075 c -0.062,-0.407 -0.136,-0.81 -0.219,-1.207 l 0.95981,-0.62858 -1.0675,0.13782 c -0.02618,-0.11391 -0.05278,-0.22682 -0.08023,-0.33972 2.7565,-0.43482 5.4734,-0.39312 8.2253,0.32802 0.69969,0.18359 0.89351,0.07272 0.60257,-0.56806 z m -44.493,-2.071 c -0.01731,0.06662 -0.03378,0.13426 -0.04856,0.20292 -0.0114,0.05139 -0.02238,0.10273 -0.03251,0.1546 0.01013,-0.05188 0.02069,-0.10325 0.03251,-0.1546 0.01478,-0.06866 0.03125,-0.13629 0.04856,-0.20292 z m 0.40495,-1.1112 c -0.01013,0.02085 -0.02027,0.04223 -0.0304,0.06306 0.01013,-0.02085 0.02027,-0.04222 0.0304,-0.06306 z m -0.07981,0.1724 c -0.01056,0.02339 -0.02069,0.0473 -0.03083,0.07119 0.01013,-0.02389 0.02027,-0.04782 0.03083,-0.07119 z m -0.07516,0.17749 c -0.01056,0.02644 -0.02111,0.0529 -0.03125,0.07984 0.01013,-0.02694 0.02069,-0.0534 0.03125,-0.07984 z m -0.0701,0.18257 c -0.01098,0.03002 -0.02154,0.06 -0.03209,0.09001 0.01056,-0.03002 0.02111,-0.06002 0.03209,-0.09001 z m -0.06545,0.18766 c -0.01098,0.03407 -0.02154,0.06866 -0.03252,0.10324 0.01098,-0.03458 0.02111,-0.06866 0.03252,-0.10324 z m -0.05996,0.19325 c -0.01182,0.04119 -0.02323,0.08289 -0.03463,0.1246 0.0114,-0.04172 0.02238,-0.08342 0.03463,-0.1246 z m -0.25589,1.7037 c -8.45e-4,0.05034 -8.45e-4,0.1007 -4.22e-4,0.15054 -4.22e-4,-0.05034 -4.22e-4,-0.1007 4.22e-4,-0.15054 z m 0.11063,-1.0975 c -0.0063,0.03458 -0.01267,0.06866 -0.01858,0.10324 0.0059,-0.03407 0.01225,-0.06866 0.01858,-0.10324 z m -0.02871,0.16478 c -0.0051,0.03153 -0.01013,0.06256 -0.01478,0.09357 0.0046,-0.03101 0.0097,-0.06204 0.01478,-0.09357 z m -0.02365,0.15867 c -0.0042,0.03053 -0.008,0.06053 -0.01182,0.09052 0.0038,-0.03052 0.0076,-0.06054 0.01182,-0.09052 z m -0.01942,0.15613 c -0.0034,0.03002 -0.0063,0.05949 -0.0093,0.0895 0.003,-0.03002 0.0059,-0.05951 0.0093,-0.0895 z m -0.01562,0.15562 c -0.0025,0.03002 -0.0046,0.06001 -0.0072,0.09001 0.0025,-0.03002 0.0051,-0.06001 0.0072,-0.09001 z m -0.0114,0.1546 c -0.0017,0.03154 -0.0034,0.06256 -0.0051,0.09408 0.0017,-0.03153 0.0034,-0.06256 0.0051,-0.09408 z m -0.0076,0.1541 c -0.0013,0.03662 -0.0021,0.07322 -0.003,0.10933 4.22e-4,-0.03662 0.0013,-0.07272 0.003,-0.10933 z m 0.16342,1.7052 c -0.0076,-0.03203 -0.01478,-0.06407 -0.02154,-0.09611 0.0072,0.03205 0.01393,0.06407 0.02154,0.09611 z m -0.03716,-0.16833 c -0.008,-0.03865 -0.01562,-0.07728 -0.02323,-0.11594 0.0076,0.03865 0.01562,0.07729 0.02323,0.11594 z m -0.03379,-0.17698 c -0.0051,-0.02847 -0.01013,-0.05696 -0.01478,-0.08543 0.0046,0.02795 0.01013,0.05696 0.01478,0.08543 z m -0.02449,-0.15206 c -0.0042,-0.02694 -0.0084,-0.05392 -0.01225,-0.08138 0.0038,0.02694 0.0076,0.05442 0.01225,0.08138 z m -0.02111,-0.15002 c -0.0034,-0.02694 -0.0068,-0.0534 -0.0097,-0.08086 0.003,0.02747 0.0063,0.05442 0.0097,0.08086 z m -0.01731,-0.14952 c -0.003,-0.02694 -0.0055,-0.05392 -0.008,-0.08137 0.0025,0.02747 0.0051,0.05441 0.008,0.08137 z m -0.01393,-0.15002 c -0.0021,-0.02795 -0.0042,-0.05546 -0.0059,-0.08341 0.0017,0.02747 0.0038,0.05544 0.0059,0.08341 z m -0.01013,-0.15054 c -0.0017,-0.0295 -0.003,-0.059 -0.0042,-0.0885 0.0013,0.0295 0.0025,0.05898 0.0042,0.0885 z m -0.0068,-0.15206 c -0.0013,-0.03356 -0.0017,-0.06765 -0.0021,-0.10172 0,0.03407 8.45e-4,0.06814 0.0021,0.10172 z m 0.18031,1.3136 c 0.0063,0.02644 0.01267,0.0529 0.01942,0.07882 -0.0063,-0.02644 -0.01267,-0.05239 -0.01942,-0.07882 z m 0.18115,1.6793 c -0.0021,9.74e-4 -0.0042,0.0021 -0.0063,0.003 h 4.23e-4 c 0.01562,-0.01072 0.03125,-0.02137 0.04687,-0.03205 -0.01351,0.0097 -0.02702,0.01933 -0.04096,0.02896 z m -0.1435,-1.534 c 0.0068,0.02492 0.01351,0.04984 0.02069,0.07476 -0.0072,-0.02492 -0.01393,-0.04984 -0.02069,-0.07476 z m 0.04054,0.14189 c 0.0072,0.0244 0.01436,0.04883 0.02196,0.07272 -0.0072,-0.0244 -0.01478,-0.04832 -0.02196,-0.07272 z m 0.04307,0.13935 c 0.008,0.02389 0.01562,0.04782 0.02365,0.0717 -0.0076,-0.02389 -0.01562,-0.04728 -0.02365,-0.0717 z m 0.04645,0.13782 c 0.0084,0.02389 0.01689,0.04782 0.02576,0.07171 -0.0084,-0.02389 -0.01731,-0.0473 -0.02576,-0.07171 z m 0.04941,0.13579 c 0.0093,0.0244 0.019,0.04883 0.02829,0.07322 -0.0093,-0.02441 -0.019,-0.04831 -0.02829,-0.07322 z m 0.05236,0.13426 c 0.01098,0.02747 0.0228,0.05442 0.0342,0.08188 -0.0114,-0.02747 -0.02323,-0.05442 -0.0342,-0.08188 z m 0.05532,0.13223 c 0.01816,0.04223 0.03716,0.08491 0.05658,0.12663 -0.019,-0.04223 -0.038,-0.0844 -0.05658,-0.12663 z m 0.0815,0.1785 c 0.01225,0.02543 0.02449,0.05086 0.03674,0.07627 -0.01267,-0.02543 -0.02449,-0.05086 -0.03674,-0.07627 z m 0.06503,0.13273 c 0.01182,0.02339 0.02365,0.04678 0.03589,0.07019 -0.01225,-0.02339 -0.02407,-0.04678 -0.03589,-0.07019 z m 0.0663,0.12714 c 0.008,0.01423 0.01562,0.029 0.02365,0.04272 -0.01267,0.0066 -0.02534,0.01272 -0.03758,0.01933 0.01225,-0.0066 0.02449,-0.01373 0.03674,-0.01983 -0.008,-0.01373 -0.0152,-0.02797 -0.0228,-0.04223 z"
           style="fill:#ffffff" />
      </g>
    </g>
  </g>
</svg>
