<svg width="48" xmlns="http://www.w3.org/2000/svg" viewBox="0 0 13.546667 13.546667" height="48" xmlns:xlink="http://www.w3.org/1999/xlink">
<defs>
<linearGradient id="linearGradient4460">
<stop offset="0" style="stop-color:#22aee6"/>
<stop offset="1" style="stop-color:#58c2ec"/>
</linearGradient>
<linearGradient gradientTransform="matrix(1.10528 0 0 1.10528 -134.28288 -295.77052)" xlink:href="#linearGradient4460" id="linearGradient3831" y1="279.096" y2="268.33" gradientUnits="userSpaceOnUse" x2="0"/>
</defs>
<g style="fill-rule:evenodd">
<rect width="12.982" x=".282" y=".282" rx="6.491" height="12.982" style="opacity:.5;fill:#fff"/>
<rect width="11.853" x=".847" y=".847" rx="5.926" height="11.853" style="fill:url(#linearGradient3831)"/>
</g>
<path style="fill:#f9f9f9" d="m 6.77334,3.3866666 c -1.8704094,0 -3.3866731,1.4639614 -3.3866731,3.2698279 0,1.0888648 0.5545617,2.0478554 1.4022938,2.6421591 C 4.7579477,9.423812 4.7187457,9.5558097 4.6566647,9.6928473 4.4450021,10.16 4.2333287,10.16 4.2333287,10.16 c 0,0 0.6349986,0 1.0583344,-0.2335153 0.089435,-0.0492 0.1675894,-0.129837 0.2381217,-0.2263172 0.3855964,0.1473585 0.803658,0.2263172 1.2435442,0.2263172 1.8704044,0 3.386671,-1.4639436 3.386671,-3.2698582 0,-1.8058666 -1.5162668,-3.2698279 -3.3866708,-3.2698279 z"/>
<g style="fill:#888;word-spacing:0;line-height:125%;letter-spacing:0" transform="scale(1.00973 .99036)">
<path d="m 5.3105277,6.5553497 c -3e-7,-0.093938 0.021031,-0.1647421 0.063093,-0.2124127 0.043464,-0.049072 0.1051543,-0.073608 0.1850724,-0.073608 0.081319,5e-7 0.1444119,0.024537 0.1892786,0.073608 0.046267,0.047671 0.069401,0.1184747 0.069402,0.2124127 -8e-7,0.091134 -0.023135,0.1612374 -0.069402,0.2103096 -0.046269,0.049072 -0.1093616,0.073608 -0.1892786,0.073608 -0.071506,-10e-8 -0.1310934,-0.021732 -0.1787631,-0.065196 -0.046268,-0.044866 -0.069402,-0.1177733 -0.069402,-0.218722"/>
<path d="m 6.4546119,6.5553497 c -3e-7,-0.093938 0.021031,-0.1647421 0.063093,-0.2124127 0.043464,-0.049072 0.1051543,-0.073608 0.1850724,-0.073608 0.081319,5e-7 0.1444119,0.024537 0.1892787,0.073608 0.046267,0.047671 0.069401,0.1184747 0.069402,0.2124127 -8e-7,0.091134 -0.023135,0.1612374 -0.069402,0.2103096 -0.046269,0.049072 -0.1093617,0.073608 -0.1892787,0.073608 -0.071506,-10e-8 -0.1310934,-0.021732 -0.1787631,-0.065196 -0.046268,-0.044866 -0.069402,-0.1177733 -0.069402,-0.218722"/>
<path d="m 7.5986961,6.5553497 c -3e-7,-0.093938 0.021031,-0.1647421 0.063093,-0.2124127 0.043464,-0.049072 0.1051543,-0.073608 0.1850724,-0.073608 0.081319,5e-7 0.1444119,0.024537 0.1892787,0.073608 0.046267,0.047671 0.069401,0.1184747 0.069402,0.2124127 -8e-7,0.091134 -0.023135,0.1612374 -0.069402,0.2103096 -0.046269,0.049072 -0.1093617,0.073608 -0.1892787,0.073608 -0.071506,-10e-8 -0.1310934,-0.021732 -0.1787631,-0.065196 -0.046268,-0.044866 -0.069402,-0.1177733 -0.069402,-0.218722"/>
</g>
</svg>
