<svg width="48" xmlns="http://www.w3.org/2000/svg" viewBox="0 0 13.546667 13.546667" height="48" xmlns:xlink="http://www.w3.org/1999/xlink">
<defs>
<linearGradient id="linearGradient4460">
<stop offset="0" style="stop-color:#ebebeb"/>
<stop offset="1" style="stop-color:#fbfbfb"/>
</linearGradient>
<linearGradient gradientTransform="matrix(1.09524 0 0 1.09524 -133.00183 -9.56867)" xlink:href="#linearGradient4460" id="linearGradient4500" y1="279.096" y2="268.33" gradientUnits="userSpaceOnUse" x2="0"/>
</defs>
<g style="fill-rule:evenodd" transform="translate(0 -283.45331)">
<rect width="12.982" x=".282" y="283.736" rx="6.491" height="12.982" style="opacity:.5;fill:#fff"/>
<rect width="11.746" x=".9" y="284.354" rx="5.873" height="11.746" style="fill:url(#linearGradient4500)"/>
</g>
<g transform="translate(0 -283.45331)">
<rect width="7.127" x="3.216" y="287.612" height="5.215" style="fill:none;stroke:#da1a1a;stroke-width:.282"/>
<polygon points="27.375,22.033 15.552,11.768 5.875,11.768 27.377,31.034 48.875,11.768 39.199,11.768 " style="fill:#da1a1a" transform="matrix(.16574 0 0 .16574 2.24197 285.66153)"/>
<polyline points="5.875,40.663 27.399,25.871 48.875,40.663  " style="fill:none;stroke:#da1a1a;stroke-width:1.703" transform="matrix(.16574 0 0 .16574 2.24197 285.66153)"/>
</g>
<g style="fill:#da1a1a" transform="translate(0 -283.45331)">
<rect width=".945" x="3.216" y="287.612" height="5.215"/>
<rect width=".945" x="9.398" y="287.612" height="5.215"/>
</g>
</svg>
