<svg width="48" xmlns="http://www.w3.org/2000/svg" viewBox="0 0 13.546667 13.546667" height="48" xmlns:xlink="http://www.w3.org/1999/xlink">
<defs>
<linearGradient id="linearGradient4460">
<stop offset="0" style="stop-color:#2d2d2d"/>
<stop offset="1" style="stop-color:#4d4d4d"/>
</linearGradient>
<linearGradient gradientTransform="matrix(1.09524 0 0 1.09524 -133.00183 -293.02198)" xlink:href="#linearGradient4460" id="linearGradient3002" y1="279.096" y2="268.33" gradientUnits="userSpaceOnUse" x2="0"/>
</defs>
<g style="fill-rule:evenodd">
<rect width="12.982" x=".282" y=".283" rx="6.491" height="12.982" style="opacity:.5;fill:#fff"/>
<rect width="11.746" x=".9" y=".901" rx="5.873" height="11.746" style="fill:url(#linearGradient3002)"/>
</g>
<g style="fill:#f9f9f9" transform="translate(0 -283.45331)">
<path d="m 3.6078015,286.90825 c -0.1877184,0.0502 -0.3015251,0.247 -0.2512248,0.43428 l 1.9043305,7.09338 c 0.050296,0.18739 0.2474161,0.30097 0.435137,0.25079 l 4.2730948,-1.1428 c 0.187718,-0.0502 0.301515,-0.2469 0.251216,-0.43427 l -1.9043318,-7.09335 c -0.050297,-0.1874 -0.2474051,-0.30093 -0.4351236,-0.25075 l -4.2730981,1.14272 z m 2.6971653,1.51692 c 0,0 1.3757027,0.48778 1.7966655,1.03527 0.2976851,0.38722 0.6241752,0.9916 0.3796781,1.41427 -0.068758,0.11885 -0.1900187,0.19492 -0.3267482,0.24134 -0.2278247,0.0776 -0.508733,0.0727 -0.7359895,0.0429 l 0.1127162,0.41987 0.3542487,-0.0947 0.094919,0.35354 -1.4169852,0.37894 -0.094919,-0.35361 0.3542447,-0.0947 -0.1127162,-0.41981 c -0.2909549,0.22283 -0.7451326,0.4672 -1.0627376,0.28419 -0.4234776,-0.24397 -0.4435032,-0.93038 -0.3796819,-1.41425 0.090279,-0.68423 1.0373054,-1.79315 1.0373054,-1.79315 z"/>
</g>
</svg>
