<?xml version="1.0" encoding="UTF-8" standalone="no"?>
<svg
   xmlns:dc="http://purl.org/dc/elements/1.1/"
   xmlns:cc="http://creativecommons.org/ns#"
   xmlns:rdf="http://www.w3.org/1999/02/22-rdf-syntax-ns#"
   xmlns:svg="http://www.w3.org/2000/svg"
   xmlns="http://www.w3.org/2000/svg"
   xmlns:xlink="http://www.w3.org/1999/xlink"
   xmlns:sodipodi="http://sodipodi.sourceforge.net/DTD/sodipodi-0.dtd"
   xmlns:inkscape="http://www.inkscape.org/namespaces/inkscape"
   width="48"
   viewBox="0 0 13.546667 13.546667"
   height="48"
   id="svg2"
   version="1.1"
   inkscape:version="0.48.4 r9939"
   sodipodi:docname="google-musicmanager.svg">
  <metadata
     id="metadata24">
    <rdf:RDF>
      <cc:Work
         rdf:about="">
        <dc:format>image/svg+xml</dc:format>
        <dc:type
           rdf:resource="http://purl.org/dc/dcmitype/StillImage" />
        <dc:title></dc:title>
      </cc:Work>
    </rdf:RDF>
  </metadata>
  <sodipodi:namedview
     pagecolor="#333333"
     bordercolor="#666666"
     borderopacity="1"
     objecttolerance="10"
     gridtolerance="10"
     guidetolerance="10"
     inkscape:pageopacity="1"
     inkscape:pageshadow="2"
     inkscape:window-width="1366"
     inkscape:window-height="713"
     id="namedview22"
     showgrid="true"
     inkscape:zoom="11.313709"
     inkscape:cx="8.592164"
     inkscape:cy="26.484225"
     inkscape:window-x="0"
     inkscape:window-y="29"
     inkscape:window-maximized="1"
     inkscape:current-layer="svg2">
    <inkscape:grid
       type="xygrid"
       id="grid2992" />
  </sodipodi:namedview>
  <defs
     id="defs4">
    <linearGradient
       id="linearGradient3772">
      <stop
         style="stop-color:#f7b547;stop-opacity:1;"
         offset="0"
         id="stop3774" />
      <stop
         style="stop-color:#f49e0e;stop-opacity:1;"
         offset="1"
         id="stop3776" />
    </linearGradient>
    <linearGradient
       id="linearGradient4460">
      <stop
         offset="0"
         style="stop-color:#ff7b03"
         id="stop7" />
      <stop
         offset="1"
         style="stop-color:#ffa705"
         id="stop9" />
    </linearGradient>
    <linearGradient
       gradientTransform="matrix(1.09524,0,0,1.09524,-133.00183,-9.56867)"
       xlink:href="#linearGradient4460"
       id="linearGradient4500"
       y1="279.096"
       y2="268.33"
       gradientUnits="userSpaceOnUse"
       x2="0" />
    <linearGradient
       inkscape:collect="always"
       xlink:href="#linearGradient3772"
       id="linearGradient3778"
       x1="0.84666669"
       y1="6.7733335"
       x2="12.7"
       y2="6.7733335"
       gradientUnits="userSpaceOnUse"
       gradientTransform="translate(1.098999e-6,-13.546667)" />
  </defs>
  <rect
     id="rect14"
     style="opacity:0.5;fill:#ffffff;fill-rule:evenodd"
     height="12.982"
     rx="6.4910002"
     y="0.28268242"
     x="0.28200001"
     width="12.982" />
  <rect
     id="rect16"
     style="fill:url(#linearGradient3778);fill-opacity:1;fill-rule:evenodd"
     height="11.853333"
     rx="5.9266667"
     y="-12.7"
     x="0.84666729"
     width="11.853333"
     transform="matrix(0,1,-1,0,0,0)" />
  <path
     style="fill:#f9f9f9;fill-opacity:1"
     d="m 6.543077,2.8222225 c -2.0682317,0 -3.7759556,1.6709956 -3.9877093,3.8305948 -6.105e-4,0.00623 5.876e-4,0.01291 0,0.019152 -1.816e-4,0.00216 1.787e-4,0.00422 0,0.00639 -5.895e-4,0.00637 5.63e-4,0.012784 0,0.019152 -0.023146,0.3108643 -0.017651,0.5661758 0,0.8554996 0.8083521,3.5099211 3.2270136,3.2368481 3.2270136,2.2153567 L 4.6888813,7.884992 C 4.4511639,7.7253839 4.2070331,7.9985255 3.9816721,8.1467493 3.6904683,8.338279 3.666764,8.367595 3.5002944,7.9296823 3.3036633,7.412429 3.2046907,6.5752756 3.5002944,5.8866984 4.1131857,4.459033 5.2628715,3.6619147 6.543077,3.6394161 c 0.063391,0 0.1267826,0 0.1901739,0 1.2753998,0.027241 2.4199159,0.8240672 3.0308968,2.2472823 0.2956023,0.6885772 0.1966305,1.5257306 0,2.0429839 C 9.5976777,8.367595 9.5739732,8.338279 9.28277,8.1467493 9.0574094,7.9985255 8.8132776,7.7253839 8.5755606,7.884992 l -1.0935,1.8833756 c 0,1.0214914 2.4186626,1.2945644 3.2270134,-2.2153605 0.01765,-0.2893238 0.02315,-0.5446352 0,-0.8554995 -5.7e-4,-0.00637 5.89e-4,-0.012789 0,-0.019152 -1.78e-4,-0.00216 1.82e-4,-0.00422 0,-0.00639 -5.9e-4,-0.00624 6.09e-4,-0.01292 0,-0.019152 C 10.49732,4.4932181 8.8014826,2.8222225 6.7332509,2.8222225 c -0.1901739,0 0,0 -0.1901739,0 z"
     id="path3923"
     inkscape:connector-curvature="0"
     sodipodi:nodetypes="ccccccccsssccsssccccccccc" />
  <g
     transform="matrix(0.28222223,0,0,0.28222223,7.0555557,-285.71112)"
     id="g3992"
     style="fill:#ff4747;fill-opacity:1">
    <path
       style="fill:#ff4747;fill-opacity:1"
       d="m 9.2022843,1036.5424 c -1.1648291,0.2929 -2.1430427,1.3626 -2.1430427,1.3626 l 0.029831,0.034 1.8658283,6.9321 c -1.3341199,-0.7236 -3.2394269,-0.5419 -4.8167636,0.5981 -2.0377369,1.473 -2.7469842,3.9837 -1.566995,5.6008 1.1800836,1.6174 3.7833323,1.7312 5.8210647,0.2582 1.6063259,-1.161 2.500751,-2.991 2.177773,-4.4941 -0.01001,-0.047 -0.02452,-0.091 -0.03688,-0.137 l -1.7905338,-6.9305 c 0.041606,-0.061 0.5641537,-0.3008 2.2556898,-0.4161 1.790111,-0.1206 3.001746,-2.9883 3.001746,-2.9883 0,0 -2.012721,0.7708 -3.597226,0.2122 -0.396122,-0.1396 -0.8132901,-0.1327 -1.2011851,-0.034 z"
       id="path3994"
       inkscape:connector-curvature="0" />
  </g>
  <path
     inkscape:connector-curvature="0"
     id="path20"
     d="M 6.7733335,4.7977779 C 5.9266668,5.6444446 5.9266668,5.6444446 5.1088351,6.3386217 c -0.027351,0.02474 -0.036645,0.063918 -0.021801,0.096074 0.014846,0.032151 0.052963,0.05541 0.09187,0.055701 l 0.7477627,0 0,1.8518825 c 5e-6,0.046659 0.052916,0.1243867 0.1023717,0.1243877 l 1.4974154,0 c 0.052173,-4.9e-6 0.093536,-0.060089 0.093546,-0.1067492 l -10e-8,-1.8783408 0.7477683,0.00882 c 0.03891,-2.659e-4 0.077024,-0.023541 0.091871,-0.055701 0.014844,-0.032154 0.00552,-0.071331 -0.021798,-0.096074 C 7.6200002,5.6444446 7.6200002,5.6444446 6.7733335,4.7977779 z"
     style="line-height:normal;color:#bebebe;fill:#000000;fill-opacity:0.2"
     sodipodi:nodetypes="cccccccccccscc" />
</svg>
