<svg xmlns:xlink="http://www.w3.org/1999/xlink" viewBox="0 0 13.546667 13.546667" width="48" xmlns="http://www.w3.org/2000/svg" height="48">
<defs>
<linearGradient id="linearGradient4460">
<stop offset="0" style="stop-color:#ad3323"/>
<stop offset="1" style="stop-color:#db6151"/>
</linearGradient>
<linearGradient gradientTransform="matrix(1.10525 0 0 1.10525 -134.44109 -295.92418)" xlink:href="#linearGradient4460" id="linearGradient4451" y1="279.096" y2="268.33" gradientUnits="userSpaceOnUse" x2="0"/>
</defs>
<g style="fill-rule:evenodd">
<rect width="12.982" x=".12" y=".12" rx="6.491" height="12.982" style="opacity:.5;fill:#fff"/>
<rect width="11.853" x=".685" y=".685" rx="5.926" height="11.853" style="fill:url(#linearGradient4451)"/>
</g>
<g style="fill:#f9f9f9">
<path d="m -2.0000002,34 a 3.7142856,3.7142856 0 1 1 -7.4285713,0 3.7142856,3.7142856 0 1 1 7.4285713,0 z" transform="matrix(.11843 -.10452 .10244 .12083 1.0691 1.67898)"/>
<path d="m -2.0000002,34 a 3.7142856,3.7142856 0 1 1 -7.4285713,0 3.7142856,3.7142856 0 1 1 7.4285713,0 z" transform="matrix(.11843 -.10452 .10244 .12083 6.56239 .6667)"/>
<path d="m -2.0000002,34 a 3.7142856,3.7142856 0 1 1 -7.4285713,0 3.7142856,3.7142856 0 1 1 7.4285713,0 z" transform="matrix(.11843 -.10452 .10244 .12083 5.57589 -.49681)"/>
<path d="m -2.0000002,34 a 3.7142856,3.7142856 0 1 1 -7.4285713,0 3.7142856,3.7142856 0 1 1 7.4285713,0 z" transform="matrix(.11843 -.10452 .10244 .12083 4.14603 -1.00749)"/>
<path d="m -2.0000002,34 a 3.7142856,3.7142856 0 1 1 -7.4285713,0 3.7142856,3.7142856 0 1 1 7.4285713,0 z" transform="matrix(.11843 -.10452 .10244 .12083 2.69157 -.74094)"/>
<path d="m -2.0000002,34 a 3.7142856,3.7142856 0 1 1 -7.4285713,0 3.7142856,3.7142856 0 1 1 7.4285713,0 z" transform="matrix(.11843 -.10452 .10244 .12083 1.55115 .26553)"/>
<path d="m -2.0000002,34 a 3.7142856,3.7142856 0 1 1 -7.4285713,0 3.7142856,3.7142856 0 1 1 7.4285713,0 z" transform="matrix(.11843 -.10452 .10244 .12083 1.34446 3.17951)"/>
<path d="m -2.0000002,34 a 3.7142856,3.7142856 0 1 1 -7.4285713,0 3.7142856,3.7142856 0 1 1 7.4285713,0 z" transform="matrix(.11843 -.10452 .10244 .12083 2.28427 4.35516)"/>
</g>
<path style="fill:#dedede;display:block;color:#000" d="m 8.1594121,6.5278283 c -0.093681,0 -0.1690988,0.076945 -0.1690988,0.1725232 l 0,0.2372194 C 7.9045245,6.9644471 7.82007,6.9980358 7.7419495,7.0400066 L 7.5781351,6.8728747 c -0.066242,-0.067584 -0.1768372,-0.067584 -0.2430795,0 L 6.9757208,7.2394866 c -0.066242,0.067584 -0.066242,0.1804184 0,0.2480021 L 7.1395352,7.6546206 C 7.0983975,7.734323 7.0654755,7.8204878 7.0391328,7.908014 l -0.2325108,0 c -0.093681,0 -0.1690988,0.076945 -0.1690988,0.1725233 l 0,0.5175696 c 0,0.095578 0.075418,0.1725233 0.1690988,0.1725233 l 0.2325108,0 c 0.026343,0.087526 0.059265,0.173691 0.1004024,0.2533934 L 6.9757208,9.1911555 c -0.066242,0.067584 -0.066242,0.1804184 0,0.2480021 l 0.3593348,0.3666119 c 0.066242,0.067584 0.1768372,0.067584 0.2430795,0 L 7.7419495,9.6386376 c 0.078121,0.041971 0.162575,0.07556 0.2483638,0.1024357 l 0,0.2372194 c 0,0.095578 0.075418,0.1725233 0.1690988,0.1725233 l 0.5072963,0 c 0.093681,0 0.1690987,-0.07695 0.1690987,-0.1725233 l 0,-0.2372194 c 0.085789,-0.026876 0.1702434,-0.060465 0.2483638,-0.1024357 l 0.1638144,0.1671319 c 0.066242,0.067584 0.1768373,0.067584 0.2430795,0 L 9.8503997,9.4391576 c 0.066242,-0.067584 0.066242,-0.1804184 0,-0.2480021 L 9.6865853,9.0240236 c 0.041138,-0.079702 0.07406,-0.1658674 0.1004023,-0.2533934 l 0.2325104,0 c 0.09368,0 0.169099,-0.076945 0.169099,-0.1725233 l 0,-0.5175696 c 0,-0.095578 -0.07542,-0.1725233 -0.169099,-0.1725233 l -0.2325104,0 C 9.7606449,7.8204878 9.7277229,7.734323 9.6865853,7.6546206 L 9.8503997,7.4874887 c 0.066242,-0.067584 0.066242,-0.1804184 0,-0.2480021 L 9.4910648,6.8728747 c -0.066242,-0.067584 -0.1768372,-0.067584 -0.2430795,0 L 9.0841709,7.0400066 C 9.0060505,6.9980358 8.9215958,6.9644471 8.8358071,6.9375709 l 0,-0.2372194 c 0,-0.095578 -0.075418,-0.1725232 -0.1690987,-0.1725232 l -0.5072963,0 z M 8.4130602,7.908014 c 0.2334767,0 0.4227469,0.1931032 0.4227469,0.4313081 0,0.2382049 -0.1892702,0.4313081 -0.4227469,0.4313081 -0.2334767,0 -0.4227469,-0.1931032 -0.4227469,-0.4313081 0,-0.2382049 0.1892702,-0.4313081 0.4227469,-0.4313081 z"/>
<g style="fill:#f9f9f9">
<path d="m 21.819295,-7.7604203 a 9.3944187,13.131983 0 0 1 -0.640408,4.7654971 l -8.754011,-4.7654971 z" transform="matrix(-.0267 -.1999 .19593 -.02724 8.5687 8.12564)"/>
<path d="m 21.819295,-7.7604203 a 9.3944187,13.131983 0 0 1 -0.640408,4.7654971 l -8.754011,-4.7654971 z" transform="matrix(.07671 -.18595 .18225 .07826 7.56118 8.86723)"/>
<path d="m 21.819295,-7.7604203 a 9.3944187,13.131983 0 0 1 -0.640408,4.7654971 l -8.754011,-4.7654971 z" transform="matrix(.15854 -.12057 .11818 .16175 6.37472 8.95618)"/>
<path d="m 21.819295,-7.7604203 a 9.3944187,13.131983 0 0 1 -0.640408,4.7654971 l -8.754011,-4.7654971 z" transform="matrix(-.12214 -.15865 .1555 -.12462 9.05793 6.87189)"/>
<path d="m 21.819295,-7.7604203 a 9.3944187,13.131983 0 0 1 -0.640408,4.7654971 l -8.754011,-4.7654971 z" transform="matrix(-.18841 -.06124 .06003 -.19222 8.95089 5.40262)"/>
<path d="m 21.819295,-7.7604203 a 9.3944187,13.131983 0 0 1 -0.640408,4.7654971 l -8.754011,-4.7654971 z" transform="matrix(-.19363 .04091 -.0401 -.19755 8.11406 4.45393)"/>
<path d="m 21.819295,-7.7604203 a 9.3944187,13.131983 0 0 1 -0.640408,4.7654971 l -8.754011,-4.7654971 z" transform="matrix(-.14605 .13601 -.13331 -.149 6.82523 4.00771)"/>
<path d="m 21.819295,-7.7604203 a 9.3944187,13.131983 0 0 1 -0.640408,4.7654971 l -8.754011,-4.7654971 z" transform="matrix(-.05471 .19387 -.19002 -.05582 5.39911 4.34619)"/>
</g>
</svg>
