<svg width="48" xmlns="http://www.w3.org/2000/svg" viewBox="0 0 13.546667 13.546667" height="48" xmlns:xlink="http://www.w3.org/1999/xlink">
<defs>
<linearGradient id="linearGradient4460">
<stop offset="0" style="stop-color:#3566a5"/>
<stop offset="1" style="stop-color:#9ebad9"/>
</linearGradient>
<linearGradient gradientTransform="matrix(1.09524 0 0 1.09524 -133.00183 -9.56867)" xlink:href="#linearGradient4460" id="linearGradient4500" y1="279.096" y2="268.33" gradientUnits="userSpaceOnUse" x2="0"/>
</defs>
<g style="fill-rule:evenodd">
<g transform="translate(0 -283.45331)">
<rect width="12.982" x=".282" y="283.736" rx="6.491" height="12.982" style="opacity:.5;fill:#fff"/>
<rect width="11.746" x=".9" y="284.354" rx="5.873" height="11.746" style="fill:url(#linearGradient4500)"/>
</g>
<g style="fill:#f9ae56;stroke:#f9ae56;color:#000;stroke-width:4.763" transform="matrix(.03291 0 0 .03291 2.54711 9.42001)">
<path d="m 151.48823,-149.03654 c -18.55072,0.27241 -36.99205,7.84484 -51.801913,26.34195 -15.150648,18.92268 -4.356748,45.508635 8.908683,53.127727 10.72617,4.969461 20.13439,-3.256218 21.5275,-8.525108 -3.84678,1.765133 -16.2537,1.901403 -18.5199,-5.618449 -2.37907,-17.47223 9.14835,-29.91261 25.44658,-31.69177 27.52457,-3.00466 49.00552,24.280028 51.20649,50.005021 3.10412,36.280922 -25.07912,72.5145924 -58.35157,82.895236 l 95.71446,0.120489 0,-130.937196 c -6.08414,-6.90141 -13.07048,-13.23434 -21.13757,-18.60306 -15.69577,-10.44568 -34.44211,-17.38735 -52.99276,-17.11484 z"/>
<path d="m 104.51178,-10.963497 c 18.5507,-0.272504 36.99203,-7.844839 51.8019,-26.341939 15.15065,-18.922678 4.3567,-45.508637 -8.90868,-53.127719 -10.72616,-4.969471 -20.1344,3.256218 -21.5275,8.525108 3.84673,-1.765133 16.30076,-2.60773 18.56696,4.912112 2.37912,17.472234 -9.19541,30.618944 -25.49365,32.398107 -27.524547,3.004649 -49.005512,-24.280028 -51.206483,-50.005021 -3.104115,-36.280931 25.079075,-72.514611 58.351573,-82.895221 l -95.714456,-0.12048 0,130.93717 c 6.084151,6.901394 13.070475,13.23433 21.137568,18.60306 15.695768,10.44569 34.442105,17.387321 52.992768,17.114813 z"/>
</g>
</g>
</svg>
