<svg width="48" xmlns="http://www.w3.org/2000/svg" viewBox="0 0 13.546667 13.546667" height="48" xmlns:xlink="http://www.w3.org/1999/xlink">
<defs>
<linearGradient id="linearGradient4460">
<stop offset="0" style="stop-color:#668cbd"/>
<stop offset="1" style="stop-color:#b5cbe9"/>
</linearGradient>
<linearGradient gradientTransform="matrix(1.09524 0 0 1.09524 -133.00183 -9.56867)" xlink:href="#linearGradient4460" id="linearGradient4500" y1="279.096" y2="268.33" gradientUnits="userSpaceOnUse" x2="0"/>
</defs>
<g style="fill-rule:evenodd" transform="translate(0 -283.45331)">
<rect width="12.982" x=".282" y="283.736" rx="6.491" height="12.982" style="opacity:.5;fill:#fff"/>
<rect width="11.746" x=".9" y="284.354" rx="5.873" height="11.746" style="fill:url(#linearGradient4500)"/>
</g>
<g style="stroke:#6e8db4;stroke-width:.353" transform="matrix(.79171 0 0 .79171 -9.72141 -222.96799)">
<path style="fill:#fff" d="m 16.889886,294.20323 c -0.521974,-1.26354 -1.213972,-2.37707 -1.229354,-4.44065 -0.01589,-2.13202 1.812966,-3.51235 3.258412,-3.51252 1.750024,-2.2e-4 3.289765,1.47766 3.370953,2.70178 0.07327,1.1047 -0.319832,2.71133 -2.348884,2.69939 -0.96883,-0.006 -1.975532,-0.84845 -1.980832,-2.1024 -0.0057,-1.35312 1.689346,-1.48513 2.116803,-1.14065 0.166033,0.13381 0.160961,0.3986 0.01407,0.3508 -0.912682,-0.29717 -1.476527,0.28851 -1.434651,0.87118 0.05684,0.7906 0.525882,1.26097 1.366674,1.30097 1.212839,0.0576 1.552373,-1.12194 1.521362,-1.60068 -0.03768,-0.58206 -0.545167,-1.77921 -2.12382,-1.99792 -0.745397,-0.10316 -1.363168,0.1201 -1.814413,0.55761 -0.45124,0.43753 -0.704931,0.88997 -0.742,1.63215 -0.03833,0.76765 0.129268,1.21808 0.588397,2.22525 0.163996,0.3597 0.622084,1.08542 0.976839,1.81212 l -1.539546,0.64357 z"/>
<path style="fill:#a9c4e3" d="m 24.879006,286.25006 c 0.521975,1.26363 1.213971,2.37712 1.229355,4.44074 0.01589,2.13202 -1.812972,3.51235 -3.258412,3.51243 -1.750029,3.3e-4 -3.28976,-1.47762 -3.370953,-2.70161 -0.07327,-1.10483 0.319831,-2.7115 2.348884,-2.69948 0.96883,0.006 1.975532,0.84846 1.980837,2.10236 0.0057,1.35309 -1.689351,1.48517 -2.116803,1.14065 -0.166038,-0.1338 -0.160972,-0.39855 -0.01407,-0.35079 0.912676,0.2972 1.476516,-0.28855 1.43464,-0.87119 -0.05684,-0.79059 -0.525876,-1.26088 -1.366669,-1.30088 -1.212838,-0.0576 -1.552377,1.12198 -1.521372,1.60063 0.03768,0.58206 0.545172,1.7793 2.123831,1.99785 0.745397,0.1032 1.363168,-0.12007 1.814402,-0.55757 0.451251,-0.43758 0.704947,-0.89002 0.742011,-1.63207 0.03833,-0.76769 -0.129268,-1.21808 -0.588397,-2.22525 -0.164001,-0.35982 -0.62209,-1.08538 -0.976834,-1.81217 l 1.539541,-0.64365 z"/>
</g>
</svg>
