<svg width="48" xmlns="http://www.w3.org/2000/svg" viewBox="0 0 13.546667 13.546667" height="48" xmlns:xlink="http://www.w3.org/1999/xlink">
<defs>
<linearGradient id="linearGradient4460">
<stop offset="0" style="stop-color:#a64235"/>
<stop offset="1" style="stop-color:#e66554"/>
</linearGradient>
<linearGradient gradientTransform="matrix(1.09524 0 0 1.09524 -133.00183 -9.56867)" xlink:href="#linearGradient4460" id="linearGradient4500" y1="279.096" y2="268.33" gradientUnits="userSpaceOnUse" x2="0"/>
</defs>
<g style="fill-rule:evenodd" transform="translate(0 -283.45331)">
<rect width="12.982" x=".282" y="283.736" rx="6.491" height="12.982" style="opacity:.5;fill:#fff"/>
<rect width="11.746" x=".9" y="284.354" rx="5.873" height="11.746" style="fill:url(#linearGradient4500)"/>
</g>
<g style="fill:#efebd0" transform="matrix(.21201 0 0 .21072 1.59362 -210.32992)">
<rect width="28.001" x="10.43" y="1027.421" rx="0" height="19.799"/>
<rect width="8.91" x="-617.143" y="828.104" rx="0" height="1.945" transform="matrix(.79989 -.60015 .60015 .79989 0 0)"/>
<rect width="8.91" x="647.335" y="-800.711" rx="0" height="1.945" transform="matrix(.79989 .60015 .60015 -.79989 0 0)"/>
</g>
<g style="fill:#f3cbd0" transform="matrix(.00701 .00145 -.00146 .00697 3.85647 5.39492)">
<path d="m 101.84635,-142 c -2.814596,0 -5.554936,0.41584 -8.197406,0.97009 -8.72361,1.30211 -19.26813,4.36006 -30.25235,11.63719 -27.20617,18.0237 -38.778287,101.579419 -34.54624,109.389687 4.23205,7.810269 42.31008,-7.781718 62.2613,-37.821214 1.48446,-2.234956 2.97873,-4.525779 4.29388,-6.982318 2.07842,0.335157 4.26328,0.391014 6.440816,0.391014 l 55.03978,0 c 1.40096,0 2.5416,-0.06211 3.90353,-0.192406 1.26749,2.348539 2.67538,4.644331 4.0987,6.788062 19.95122,30.039488 58.02924,45.631475 62.26129,37.821206 4.23205,-7.810268 -7.34007,-91.365991 -34.54623,-109.389681 -7.803,-5.1694 -15.37279,-8.2317 -22.25012,-10.08558 -0.61582,-0.16757 -1.15257,-0.24205 -1.75659,-0.39101 -3.72078,-1.16495 -7.59239,-2.13379 -11.71058,-2.13379 l -6.83118,0 -48.2086,0 z m 68.8973,18.61952 c 0.74711,-0.13033 1.58734,-0.0931 2.34212,0 1.00643,0.12413 1.99411,0.43446 2.92765,0.97009 3.73408,2.14186 4.88834,6.95625 2.73247,10.66712 -2.15587,3.71086 -6.80544,5.05147 -10.53953,2.90961 -3.73408,-2.14249 -5.08352,-6.95688 -2.92765,-10.66775 1.21266,-2.08725 3.22357,-3.4924 5.46494,-3.87907 z m -91.147416,2.52171 7.22153,0 0,15.70991 15.614116,0 0,6.982316 -15.614116,0 0,15.71053 -7.22153,0 0,-15.71053 -15.61411,0 0,-6.982316 15.61411,0 0,-15.70991 z m 111.640946,7.95177 c 1.00643,0.12413 1.99411,0.43446 2.92765,0.97009 3.73409,2.14186 5.08352,6.95625 2.92765,10.66712 -2.15587,3.710866 -7.00062,5.051476 -10.73471,2.909606 -3.73408,-2.142486 -4.88834,-6.956876 -2.73247,-10.667746 1.61687,-2.783 4.59261,-4.25146 7.61188,-3.87907 z m -30.83788,7.37024 c 0.74711,-0.13034 1.58733,-0.0931 2.34212,0 1.00642,0.12412 1.99411,0.43445 2.92765,0.97007 3.73408,2.14186 4.88834,6.956256 2.73247,10.667126 -2.15588,3.71087 -6.80545,5.05147 -10.53953,2.90961 -3.73409,-2.14249 -5.08352,-6.95688 -2.92765,-10.667746 1.21266,-2.08725 3.22357,-3.4924 5.46494,-3.87906 z m 18.34659,10.473476 c 0.7288,-0.13034 1.39215,-0.0931 2.14694,0 1.00642,0.12413 1.99411,0.43446 2.92765,0.97008 3.73408,2.14186 5.08352,6.95625 2.92765,10.66712 -2.15588,3.71087 -7.00063,5.05147 -10.73471,2.90961 -3.73409,-2.14249 -4.88834,-6.95688 -2.73247,-10.66775 1.21265,-2.08724 3.27846,-3.49239 5.46494,-3.87906 z"/>
</g>
<g style="fill:#cce0e7;line-height:normal;color:#000" transform="matrix(.04475 0 0 .04448 1.04781 9.83399)">
<path d="m 87.719055,-148.36184 1.308521,2.47637 35.195954,-17.91344 -1.30852,-2.47637 z"/>
<path d="m 90.067714,-140.13015 1.270288,2.49582 38.061408,-19.37185 -1.27029,-2.49582 -38.061406,19.37185 z"/>
<path d="m 95.438471,-133.43661 1.270288,2.49583 34.941621,-17.784 -1.27029,-2.49582 z"/>
<path d="m 98.80478,-166.95371 19.38339,38.08392 2.49583,-1.27028 -19.38339,-38.08393 -2.49583,1.27029 z"/>
</g>
<g style="fill:none;stroke:#cce0e7">
<g style="stroke-width:2.8" transform="matrix(.04475 0 0 .04448 1.04781 9.83399)">
<path d="m 111.01433,-127.1651 c -9.90174,-8.16047 -16.246159,-21.48924 -17.862854,-35.09641"/>
<path d="m 126.28409,-134.93684 c -0.77046,-12.80796 -7.81297,-25.78143 -17.86285,-35.09641"/>
</g>
<g transform="matrix(.04475 0 0 .04448 1.04781 9.83399)">
<path style="stroke-linecap:round;stroke-width:1.214" d="m 33.05724,27.317127 a 9.1039991,9.1039991 0 1 1 -18.207998,0 9.1039991,9.1039991 0 1 1 18.207998,0 z" transform="matrix(2.0561 -1.04648 1.04648 2.0561 31.89646 -179.66821)"/>
</g>
</g>
<g style="fill:#eccce0" transform="matrix(.04475 0 0 .04448 1.04781 9.83399)">
<path style="line-height:normal;color:#000" d="m 179.54004,-157.02656 c 0.8631,0.14623 1.72135,0.51668 2.38145,1.15297 2.64041,2.54524 5.7102,2.27902 5.7102,2.27902 0,0 -3.81205,4.36424 -7.48097,2.97958 -3.46808,-1.30576 -4.31221,-0.52422 -4.45026,-0.44173 l -2.79577,15.39017 c -0.0183,0.10477 -0.0281,0.20169 -0.0514,0.3036 -0.72952,3.2745 -4.15133,6.09976 -8.40423,6.94535 -5.39529,1.07311 -10.46671,-1.5144 -11.3369,-5.7929 -0.87033,-4.27774 2.78942,-8.65736 8.18476,-9.73058 4.17609,-0.83018 8.14725,0.57128 10.13928,3.21675 l 2.61259,-15.42122 -0.0405,-0.13272 c 0,0 2.94882,-1.22488 5.53191,-0.74927 z"/>
</g>
<g style="fill:none;stroke:#def5d6;stroke-linecap:round">
<g transform="matrix(.05373 .02513 -.02529 .0534 32.10142 -50.43137)">
<path style="stroke-width:3.487" d="m 28.158002,27.544411 c 0,9.832843 -7.971095,17.803938 -17.803938,17.803938 -9.83284341,0 -17.8039379,-7.971095 -17.8039379,-17.803938 0,-9.832844 7.97109449,-17.8039382 17.8039379,-17.8039382 9.832843,0 17.803938,7.9710942 17.803938,17.8039382 z" transform="matrix(.63925 0 0 .63925 17.38113 1010.7543)"/>
<path style="stroke-width:2.782" d="m 23.915619,1022.3599 0,5.7179 5.201165,5.2013"/>
</g>
<g style="stroke-width:.485" transform="matrix(.05373 .02513 -.02529 .0534 32.10142 -50.43137)">
<path d="m 23.996301,1018.5477 0,1.5165"/>
<path d="m 23.996301,1036.7257 0,1.5166"/>
<path d="m 14.212613,1028.5665 1.516534,0"/>
<path d="m 32.175259,1028.5665 1.516534,0"/>
</g>
</g>
</svg>
