<svg width="48" xmlns="http://www.w3.org/2000/svg" viewBox="0 0 13.546667 13.546667" height="48" xmlns:xlink="http://www.w3.org/1999/xlink">
<defs>
<linearGradient gradientTransform="matrix(1.09524 0 0 1.09524 -133.00183 -9.56867)" xlink:href="#linearGradient4460" id="linearGradient4500" y1="279.096" y2="268.33" gradientUnits="userSpaceOnUse" x2="0"/>
<linearGradient id="linearGradient4460">
<stop offset="0" style="stop-color:#ebebeb"/>
<stop offset="1" style="stop-color:#fbfbfb"/>
</linearGradient>
</defs>
<g style="fill-rule:evenodd" transform="translate(0 -283.45331)">
<rect width="12.982" x=".282" y="283.736" rx="6.491" height="12.982" style="opacity:.5;fill:#fff"/>
<rect width="11.746" x=".9" y="284.354" rx="5.873" height="11.746" style="fill:url(#linearGradient4500)"/>
</g>
<g transform="translate(0 -283.45331)">
<rect width=".115" x="21.829" y="294.858" rx=".04" height=".079" style="fill:#fff"/>
</g>
<g style="stroke:#6072a9;fill:#6072a9">
<g style="stroke-linecap:round;stroke-width:3.323" transform="matrix(.03821 0 0 .03821 1.72496 9.83269)">
<path d="m 198.51993,-178.3358 c -11.48313,0.24534 -74.94527,36.95371 -87.93348,92.656221 -3.697,4.684198 1.75213,-18.817641 -2.98457,-10.760282 -3.16286,5.380205 -5.56559,19.791132 -8.773002,25.113647 -3.207405,5.322512 2.472952,-25.860032 -4.513808,-5.254522 -1.887495,5.56665 -4.14081,15.426499 -6.32962,20.175971 -2.188811,4.749473 0.440073,-26.10068 -6.671001,8.018023 -0.871965,4.18367 -2.575374,7.57129 -3.216583,10.536367 -0.641212,2.96508 -0.829398,5.332639 -0.498431,6.951265 0.33096,1.618628 1.181081,2.488314 2.616474,2.457647 1.43539,-0.03066 3.456063,-0.96169 5.951025,-2.64069 2.494966,-1.679001 15.741866,-6.689498 8.245582,-6.054583 -6.777395,0.57403 8.566504,-6.978999 12.961904,-10.551663 7.94712,-6.459583 -8.520115,1.386707 -4.17821,-3.408762 4.34191,-4.795473 24.28745,-18.458573 29.65984,-22.795425 15.08245,-12.175217 -17.98538,6.55231 -12.52067,2.230952 8.18973,-6.476244 35.55496,-30.681726 39.74613,-35.850876 4.19117,-5.16915 8.50399,-11.20531 12.20098,-15.88951 29.57601,-37.47358 37.72061,-55.17911 26.23744,-54.93378 z"/>
<path d="m 171.3046,-146.05415 c -6.98727,4.02379 -27.52462,27.0001 -57.10063,64.473683 C 84.627962,-44.106885 63.04888,-12.953825 53.000571,3.840185 68.033558,-7.383706 106.19194,-61.732602 135.76797,-99.20619 c 29.576,-37.47359 32.55644,-40.83736 35.53663,-46.84796 z"/>
</g>
<g transform="matrix(.03821 0 0 .03821 1.72496 9.83269)">
<path style="stroke-width:.909" d="m 52.058365,3.0713996 c -1.945488,4.2265237 0.193614,8.2932264 1.584435,8.7385974 l 2.121156,-0.960896 C 54.219009,8.2643349 53.749093,5.3830036 54.687842,0.87058722 z"/>
</g>
</g>
<g transform="matrix(.82415 0 0 .82415 1.06613 -232.12817)">
<path style="fill:#5f5f5f" d="m 3.1757215,293.9683 c 0.1512865,-0.23111 0.639222,-0.49205 0.855003,-0.58502 0.5551565,-0.18089 0.8833475,0.0919 1.152063,0.37049 0.275438,0.31811 0.204466,0.38008 0.3180095,0.31101 0.411695,-0.28112 0.7276795,-0.67282 1.0650595,-1.03832 0.5528235,-0.5832 0.860037,-0.18791 0.877171,0.2309 0.01104,0.21216 0.0018,0.54796 0.175604,0.6473 0.1389975,0.0949 -0.360036,0.10599 0.05427,-0.17266 0.1548315,-0.10414 0.3125895,-0.19696 0.4703495,-0.28976 0.6592665,-0.37739 1.3496195,-0.72696 1.8146855,-0.42638 0.080227,0.0818 0.045699,0.0385 0.1052615,0.12844 0.01386,0.37549 -0.3320125,0.48591 -0.5832175,0.21767 -0.01647,-0.0306 -0.046121,-0.0928 -0.061981,-0.11708 -0.07755,-0.18014 -0.7659905,0.35754 -0.9295415,0.45225 -0.5229615,0.31706 -0.991715,0.76935 -1.4070535,0.49305 -0.200794,-0.19737 -0.229744,-0.51417 -0.252289,-0.83211 -0.03435,-0.51826 0.3777125,-0.31925 0.236655,-0.18253 -0.393366,0.39922 -0.7397285,0.82203 -1.197344,1.14729 -0.7267935,0.45077 -0.9303975,0.0162 -1.217555,-0.31053 -0.07904,-0.0795 -0.3183555,-0.29603 -0.3814235,-0.29625 -0.159161,0.0494 -0.4834615,0.30556 -0.473315,0.3014 -0.2434825,0.26805 -0.587939,0.25354 -0.62041,-0.0492 z"/>
</g>
</svg>
