<svg width="48" xmlns="http://www.w3.org/2000/svg" viewBox="0 0 13.546667 13.546667" height="48" xmlns:xlink="http://www.w3.org/1999/xlink">
<defs>
<linearGradient id="linearGradient4460">
<stop offset="0" style="stop-color:#630000"/>
<stop offset="1" style="stop-color:#db0f0f"/>
</linearGradient>
<linearGradient gradientTransform="matrix(1.09524 0 0 1.09524 -133.00183 -9.56867)" xlink:href="#linearGradient4460" id="linearGradient4500" y1="279.096" y2="268.33" gradientUnits="userSpaceOnUse" x2="0"/>
</defs>
<g style="fill-rule:evenodd" transform="translate(0 -283.45331)">
<rect width="12.982" x=".282" y="283.736" rx="6.491" height="12.982" style="opacity:.5;fill:#fff"/>
<rect width="11.746" x=".9" y="284.354" rx="5.873" height="11.746" style="fill:url(#linearGradient4500)"/>
</g>
<g style="stroke:#fff">
<g style="stroke-linejoin:round;stroke-linecap:round;fill:#fff">
<g transform="matrix(.18165 -.04867 .03677 .13722 -35.21575 -133.17339)">
<rect width="4.416" x="20.773" y="1017.184" rx="1.945" height="22.274" style="stroke-width:.189"/>
</g>
<g style="stroke-width:.3" transform="matrix(.18165 -.04867 .03677 .13722 -35.21575 -133.17339)">
<path d="m 20.270117,30.957182 -12.6095189,0 6.3047599,-10.920164 z" transform="translate(9.01561 988.18713)"/>
<path d="m 20.270117,30.957182 -12.6095189,0 6.3047599,-10.920164 z" transform="matrix(1 0 0 -1 9.01561 1068.1889)"/>
</g>
</g>
<g style="fill:none" transform="translate(0 -283.45331)">
<rect width="5.157" x="-250.563" y="148.405" rx=".457" height="5.157" style="opacity:.75;stroke-width:.235" transform="matrix(.5 -.86603 .86603 .5 0 0)"/>
<rect width="6.69" x="-251.33" y="147.639" rx=".594" height="6.69" style="opacity:.5;stroke-width:.305" transform="matrix(.5 -.86603 .86603 .5 0 0)"/>
</g>
</g>
</svg>
