<svg width="48" xmlns="http://www.w3.org/2000/svg" viewBox="0 0 13.546667 13.546667" height="48" xmlns:xlink="http://www.w3.org/1999/xlink">
<defs>
<linearGradient id="linearGradient4460">
<stop offset="0" style="stop-color:#2d2d2d"/>
<stop offset="1" style="stop-color:#4b4b4b"/>
</linearGradient>
<linearGradient gradientTransform="matrix(1.09524 0 0 1.09524 -133.0015 -293.02234)" xlink:href="#linearGradient4460" id="linearGradient4956" y1="279.096" y2="268.33" gradientUnits="userSpaceOnUse" x2="0"/>
</defs>
<g style="fill-rule:evenodd">
<rect width="12.982" x=".282" y=".282" rx="6.491" height="12.982" style="opacity:.5;fill:#fff"/>
<rect width="11.746" x=".9" y=".9" rx="5.873" height="11.746" style="fill:url(#linearGradient4956)"/>
<rect width="8.467" x="2.54" y="2.54" rx="4.233" height="8.467" style="fill:#37dd3c;fill-opacity:.392"/>
</g>
<path style="fill:#37dd3c;line-height:normal;color:#000" d="m 6.3828721,4.5163753 a 0.14979478,0.15032401 0 0 0 -0.031236,0.031347 0.14979478,0.15032401 0 0 0 -0.031236,0.031347 0.14979478,0.15032401 0 0 0 -0.031236,0.062693 l 0,0.031347 -0.5934895,2.3196518 -2.9986836,0 a 0.14979478,0.15032401 0 0 0 -0.031236,0 0.14979478,0.15032401 0 0 0 -0.031236,0 0.14979478,0.15032401 0 0 0 -0.031236,0.031347 0.14979478,0.15032401 0 0 0 -0.031236,0.031347 0.14979478,0.15032401 0 0 0 -0.031236,0.062693 0.14979478,0.15032401 0 0 0 0,0.031347 0.14979478,0.15032401 0 0 0 0.031236,0.062693 0.14979478,0.15032401 0 0 0 0.031236,0.031347 0.14979478,0.15032401 0 0 0 0.031236,0.031347 0.14979478,0.15032401 0 0 0 0.031236,0 0.14979478,0.15032401 0 0 0 0.031236,0 l 3.0923924,0 a 0.14979478,0.15032401 0 0 0 0.031236,0 0.14979478,0.15032401 0 0 0 0.031236,0 0.14979478,0.15032401 0 0 0 0.031236,-0.031348 0.14979478,0.15032401 0 0 0 0.031236,-0.031347 0.14979478,0.15032401 0 0 0 0.031236,-0.031347 l 0.3435992,-1.2852125 0,2.9465847 0,0.062693 a 0.14979478,0.15032401 0 0 0 0,0.031347 0.14979478,0.15032401 0 0 0 0.031236,0.031347 0.14979478,0.15032401 0 0 0 0.031236,0.031347 0.14979478,0.15032401 0 0 0 0.031236,0.031347 0.14979478,0.15032401 0 0 0 0.031236,0 0.14979478,0.15032401 0 0 0 0.031236,0 0.14979478,0.15032401 0 0 0 0.031236,0 0.14979478,0.15032401 0 0 0 0.031236,0 0.14979478,0.15032401 0 0 0 0.031236,-0.031348 0.14979478,0.15032401 0 0 0 0.031236,-0.031347 0.14979478,0.15032401 0 0 0 0.031236,-0.031347 l 0,-0.031347 0.7184381,-2.7271571 0.2498903,1.0030927 a 0.14979478,0.15032401 0 0 0 0,0.031347 0.14979478,0.15032401 0 0 0 0.031236,0.031347 0.14979478,0.15032401 0 0 0 0.031236,0.031347 0.14979478,0.15032401 0 0 0 0.031236,0 0.14979478,0.15032401 0 0 0 0.031236,0.031347 0.14979478,0.15032401 0 0 0 0.031236,0 l 3.1548649,0 a 0.14979478,0.15032401 0 0 0 0.03124,-0.031348 0.14979478,0.15032401 0 0 0 0.03124,0 0.14979478,0.15032401 0 0 0 0.03124,-0.031347 0.14979478,0.15032401 0 0 0 0.03124,-0.031347 0.14979478,0.15032401 0 0 0 0,-0.031347 0.14979478,0.15032401 0 0 0 0,-0.031347 0.14979478,0.15032401 0 0 0 0,-0.031347 0.14979478,0.15032401 0 0 0 0,-0.031347 0.14979478,0.15032401 0 0 0 -0.03124,-0.062693 0.14979478,0.15032401 0 0 0 -0.03124,0 0.14979478,0.15032401 0 0 0 -0.03124,-0.031347 0.14979478,0.15032401 0 0 0 -0.03124,0 l -3.061156,0 -0.3748355,-1.4419457 a 0.14979478,0.15032401 0 0 0 0,-0.031347 0.14979478,0.15032401 0 0 0 -0.031236,-0.031344 0.14979478,0.15032401 0 0 0 -0.031236,-0.031347 0.14979478,0.15032401 0 0 0 -0.031236,0 0.14979478,0.15032401 0 0 0 -0.031236,0 0.14979478,0.15032401 0 0 0 -0.031236,0 0.14979478,0.15032401 0 0 0 -0.031236,0 0.14979478,0.15032401 0 0 0 -0.031236,0 0.14979478,0.15032401 0 0 0 -0.031236,0.031347 0.14979478,0.15032401 0 0 0 -0.031236,0.062693 l -0.5622531,2.1002252 0,-2.9465847 0,-0.031347 a 0.14979478,0.15032401 0 0 0 0,-0.031347 0.14979478,0.15032401 0 0 0 -0.031236,-0.062693 0.14979478,0.15032401 0 0 0 -0.031236,-0.031347 0.14979478,0.15032401 0 0 0 -0.031236,-0.031347 0.14979478,0.15032401 0 0 0 -0.031236,0 0.14979478,0.15032401 0 0 0 -0.031236,0 0.14979478,0.15032401 0 0 0 -0.031236,0 0.14979478,0.15032401 0 0 0 -0.031236,0 z"/>
</svg>
