<svg width="48" xmlns="http://www.w3.org/2000/svg" viewBox="0 0 13.546667 13.546667" height="48" xmlns:xlink="http://www.w3.org/1999/xlink">
<defs>
<linearGradient id="linearGradient4460">
<stop offset="0" style="stop-color:#eb3850"/>
<stop offset="1" style="stop-color:#ca77d4"/>
</linearGradient>
<linearGradient gradientTransform="matrix(1.09524 0 0 1.09524 -133.00183 -9.56867)" xlink:href="#linearGradient4460" id="linearGradient4500" y1="279.096" y2="268.33" gradientUnits="userSpaceOnUse" x2="0"/>
</defs>
<g transform="translate(0 -283.45331)">
<rect width="12.982" x=".282" y="283.736" rx="6.491" height="12.982" style="opacity:.5;fill:#fff;fill-rule:evenodd"/>
<rect width="11.746" x=".9" y="284.354" rx="5.873" height="11.746" style="fill:url(#linearGradient4500);fill-rule:evenodd"/>
<rect width="9.273" x="2.137" y="285.59" rx="4.636" height="9.273" style="opacity:.35;fill:#fff;fill-rule:evenodd"/>
</g>
<g style="stroke-opacity:.133;stroke:#000" transform="matrix(.02079 0 0 .02079 1.36828 -9.63624)">
<path style="fill:none;stroke-linecap:round;stroke-width:53.333" d="m 137.33333,872.36218 c 0,0 -13.90617,0 16,0 53.33334,0 53.33334,-80 106.66667,-80 53.33333,0 53.33333,80 106.66667,80 28.10078,0 16,0 16,0"/>
<path style="fill:none;stroke-linecap:round;stroke-width:53.333" d="m 137.33333,712.36218 c 0,0 -13.90617,0 16,0 53.33334,0 53.33334,80 106.66667,80 40.03041,0 50.01519,-45.06848 75.05706,-67.55131 8.32192,-7.47146 18.30669,-12.44869 31.60961,-12.44869 28.10078,0 16,0 16,0"/>
</g>
<g style="fill:none;stroke:#fff" transform="matrix(.02079 0 0 .02079 1.36828 -9.76096)">
<path style="stroke-linecap:round;stroke-width:53.333" d="m 137.33333,872.36218 c 0,0 -13.90617,0 16,0 53.33334,0 53.33334,-80 106.66667,-80 53.33333,0 53.33333,80 106.66667,80 28.10078,0 16,0 16,0"/>
<path style="stroke-linecap:round;stroke-width:53.333" d="m 137.33333,712.36218 c 0,0 -13.90617,0 16,0 53.33334,0 53.33334,80 106.66667,80 40.03041,0 50.01519,-45.06848 75.05706,-67.55131 8.32192,-7.47146 18.30669,-12.44869 31.60961,-12.44869 28.10078,0 16,0 16,0"/>
</g>
</svg>
