<svg xmlns="http://www.w3.org/2000/svg" xmlns:xlink="http://www.w3.org/1999/xlink" width="48" viewBox="0 0 13.546667 13.546667" height="48">
 <defs>
  <clipPath id="0">
   <path d="M 48,18 C -24.284979,32.500656 62.821302,114.55011 81,45 81,30.088312 66.225397,18 48,18 z"/>
  </clipPath>
  <linearGradient id="1">
   <stop stop-color="#2c6ba8"/>
   <stop offset="1" stop-color="#3e90e0"/>
  </linearGradient>
  <linearGradient gradientTransform="matrix(0.28222223,0,0,0.28222223,0,-283.45334)" xlink:href="#1" id="2" y1="1050.36" x2="0" y2="1006.36" gradientUnits="userSpaceOnUse"/>
 </defs>
 <g transform="matrix(0.28222223,0,0,0.28222223,0,-283.45334)">
  <path transform="translate(0,1004.3622)" d="M 5.1875,1 C 2.8707723,1 1,2.8707723 1,5.1875 l 0,37.625 C 1,45.129228 2.8707723,47 5.1875,47 l 37.625,0 C 45.129228,47 47,45.129228 47,42.8125 L 47,5.1875 C 47,2.8707723 45.129228,1 42.8125,1 L 5.1875,1 z m 0.1875,0.25 37.25,0 c 2.291546,0 4.125,1.8334541 4.125,4.125 l 0,37.25 c 0,2.291546 -1.833454,4.125 -4.125,4.125 l -37.25,0 C 3.0834541,46.75 1.25,44.916546 1.25,42.625 l 0,-37.25 C 1.25,3.0834541 3.0834541,1.25 5.375,1.25 z" opacity="0.05"/>
  <path transform="translate(0,1004.3622)" d="M 5.375,1.25 C 3.0834541,1.25 1.25,3.0834541 1.25,5.375 l 0,37.25 c 0,2.291546 1.8334541,4.125 4.125,4.125 l 37.25,0 c 2.291546,0 4.125,-1.833454 4.125,-4.125 l 0,-37.25 C 46.75,3.0834541 44.916546,1.25 42.625,1.25 l -37.25,0 z m 0.21875,0.25 36.8125,0 C 44.672614,1.5 46.5,3.3273859 46.5,5.59375 l 0,36.8125 C 46.5,44.672614 44.672614,46.5 42.40625,46.5 l -36.8125,0 C 3.3273859,46.5 1.5,44.672614 1.5,42.40625 l 0,-36.8125 C 1.5,3.3273859 3.3273859,1.5 5.59375,1.5 z" opacity="0.1"/>
  <path transform="translate(0,1004.3622)" d="M 5.59375,1.5 C 3.3273859,1.5 1.5,3.3273859 1.5,5.59375 l 0,36.8125 C 1.5,44.672614 3.3273859,46.5 5.59375,46.5 l 36.8125,0 C 44.672614,46.5 46.5,44.672614 46.5,42.40625 l 0,-36.8125 C 46.5,3.3273859 44.672614,1.5 42.40625,1.5 l -36.8125,0 z m 0.09375,0.125 36.625,0 c 2.253773,0 4.0625,1.8087269 4.0625,4.0625 l 0,36.625 c 0,2.253773 -1.808727,4.0625 -4.0625,4.0625 l -36.625,0 c -2.2537731,0 -4.0625,-1.808727 -4.0625,-4.0625 l 0,-36.625 C 1.625,3.4337269 3.4337269,1.625 5.6875,1.625 z" opacity="0.2"/>
  <path transform="translate(0,1004.3622)" d="M 5.6875,1.625 C 3.4337269,1.625 1.625,3.4337269 1.625,5.6875 l 0,36.625 c 0,2.253773 1.8087269,4.0625 4.0625,4.0625 l 36.625,0 c 2.253773,0 4.0625,-1.808727 4.0625,-4.0625 l 0,-36.625 c 0,-2.2537731 -1.808727,-4.0625 -4.0625,-4.0625 l -36.625,0 z m 0.09375,0.125 36.4375,0 c 2.241182,0 4.03125,1.7900679 4.03125,4.03125 l 0,36.4375 c 0,2.241182 -1.790068,4.03125 -4.03125,4.03125 l -36.4375,0 C 3.5400679,46.25 1.75,44.459932 1.75,42.21875 l 0,-36.4375 C 1.75,3.5400679 3.5400679,1.75 5.78125,1.75 z" opacity="0.3"/>
  <path transform="translate(0,1004.3622)" d="M 5.78125,1.75 C 3.5400679,1.75 1.75,3.5400679 1.75,5.78125 l 0,36.4375 c 0,2.241182 1.7900679,4.03125 4.03125,4.03125 l 36.4375,0 c 2.241182,0 4.03125,-1.790068 4.03125,-4.03125 l 0,-36.4375 C 46.25,3.5400679 44.459932,1.75 42.21875,1.75 l -36.4375,0 z m 0.125,0.125 36.1875,0 c 2.228591,0 4.03125,1.802659 4.03125,4.03125 l 0,36.1875 c 0,2.228591 -1.802659,4.03125 -4.03125,4.03125 l -36.1875,0 C 3.677659,46.125 1.875,44.322341 1.875,42.09375 l 0,-36.1875 C 1.875,3.677659 3.677659,1.875 5.90625,1.875 z" opacity="0.4"/>
  <rect width="44.25" height="44.25" x="1.875" y="1006.24" rx="4.02" opacity="0.5"/>
 </g>
 <rect width="12.418" height="12.418" x="0.564" y="0.564" rx="1.129" fill="url(#2)"/>
 <g transform="matrix(0.24242,0,0,0.24561,-0.84732,-246.08611)" fill="#f9f9f9" stroke="#f9f9f9" stroke-width="1.735">
  <rect transform="matrix(0.96593,-0.25882,0.25882,0.96593,0,0)" height="21.263" rx="10.632" y="989.55" x="-249.84" width="28.767" stroke-linejoin="round" stroke-linecap="round"/>
 </g>
 <path d="M 4.0224346,10.442221 4.4720817,8.7362177 6.4106489,9.1196615 z" fill="#f9f9f9"/>
 <path d="m 35.863818,42.646123 -0.02311,-0.170305 z m -2.517373,1.273433 -0.04289,-0.113166 0.04296,0.113141 m -0.173409,-0.0068 -0.136684,-0.130349 z m -0.426865,-0.180229 0.01731,-1.65e-4 z M 32.199499,39.80804 32.086244,39.74825 z m -0.129796,0.340337 0.0333,-0.03694 z m -0.243332,0.206681 0.214458,-0.113457 -0.2145,0.113495 m 4.117408,3.917538 0.0835,-0.07689 z m -0.126211,-2.563949 -0.04022,-0.05315 z m -0.02039,0.220183 -0.0098,-0.06697 z m -0.26979,2.784134 c 0.117767,-0.603504 0.684362,0.0095 1.4e-5,-6e-6 m -3.758029,-5.054864 -0.06669,-0.0733 z m -0.0733,-0.570164 0.01138,0.03352 -0.01138,-0.03379 m -0.0028,0.750666 c 0.261233,0.01936 0.11299,-0.519209 0,-2.7e-5 m -0.120435,-0.573446 -0.0333,-0.0098 z m -0.166445,-0.01348 0.06463,0.26353 -0.06463,-0.26353 m -0.02675,-0.179951 -0.03934,-0.218822 z m -0.06669,0.286324 -0.03338,-0.0132 z m -0.153218,-0.10969 0.08654,0.0835 z m -0.08681,-0.693346 c 0.245917,-0.024 0.04924,0.522686 -1.4e-5,-1.4e-5 m -0.183519,-0.186823 -0.02093,-0.402534 0.02099,0.402596 m -0.149968,0.356533 0.07661,-0.02647 z m -0.143572,0.507055 -0.02004,-0.205437 0.02017,0.20543 m -0.07313,-0.170024 0.03304,-0.02311 z m -0.02339,-0.423554 c 0.444233,0.345574 -0.381541,0.395256 -2e-5,-3.4e-5 m -0.07659,-0.516673 c -0.08353,-0.320155 0.929747,0.06827 2.1e-5,-2.1e-5 m -0.376734,3.297557 c 1.072506,-0.356842 0.554206,0.570998 0,-5.6e-5 m 5.458041,0.470186 -0.0069,-0.03666 z m -0.02039,-0.05014 -0.06669,-0.06307 z m -2.860469,-1.780489 -0.0333,-0.0333 z m -0.06005,-0.03304 -0.03338,-0.02039 z m -0.07331,-0.03358 -0.01683,-0.03666 z m -0.139713,0.03358 0.03044,-0.0379 -0.03044,0.03804 m 2.993891,1.433676 0.06642,-0.04351 z m -0.363756,-0.213844 -0.0333,-0.0132 z m -0.225971,0.153499 -0.03338,-0.01319 z m -0.03358,0.25325 0.109678,-0.03304 z m -2.627611,-0.930062 0.01176,-0.0062 -0.01176,0.0062 m -0.09013,0.523313 -0.134482,-0.103063 z m -0.296796,0.256836 -0.03667,-0.0098 z m -2.65379,-0.510086 0.08572,6.85e-4 -0.0856,-6.85e-4 m 6.578134,-5.18164 0.03722,-0.02011 z m 0.01984,8.115687 0.03004,-0.09315 z m -1.129855,-2.437191 0.06669,-0.02675 z m -0.153771,0.05014 c -1.197821,0.272041 0.334191,-0.58327 -1.4e-5,-3.23e-4 m -4.837711,-2.724011 -0.0333,0.01656 z m -0.163415,0.0069 0.02011,0.0333 z m 0.573475,-1.240364 0.03004,0.240297 z m -0.03666,-0.193179 0.0062,-0.06123 -0.0062,0.06123 m -0.0062,-1.050494 -0.03666,0.07 z m -0.09674,2.250349 -0.123455,0.136685 z m -0.483361,-0.489974 0.07,-0.06341 z m -0.05664,0.02025 -0.0098,-0.07027 z m -0.02703,-0.0068 0.0333,0.02647 z m -0.0062,-0.113533 -0.0068,0.03332 z m 6.735053,5.244746 0,-0.130076 z m -0.726966,1.293825 0.04351,0.06971 z m -0.442867,-0.150261 c -0.326148,-0.06122 0.390693,-0.216566 0,0 z m -4.314683,-4.427931 -0.06669,-0.05321 z m -0.04323,-0.07661 -0.03666,-0.07993 z m -0.04685,-0.06669 -0.08322,-0.06005 z m -0.129796,-0.06005 c -0.246382,-0.05335 0.191674,-0.02463 -3.4e-5,0 m -0.07328,0.763617 -0.03667,-0.03365 z m -0.520284,-0.980223 0,-2.74e-4 m -0.246637,-0.05979 0.03666,-0.02311 z m -0.766926,0.670197 c -0.313029,-0.256266 0.456731,-0.129192 0,-2e-5 m 7.23853,4.934467 0.03331,-0.02675 z m -0.0069,0.01984 -0.08654,0.06697 z m -0.0068,-0.01574 0.01028,-0.03358 z m -0.02675,0.196208 0.03693,-0.01294 z m -0.07299,0.04657 0.01772,-0.04521 -0.01772,0.04521 m -0.0098,-0.07661 0.09314,-0.04986 z m -0.03358,0.08681 -0.100035,-0.02675 z m 0.130076,-1.863989 0.01028,-0.103345 z m -2.403843,-1.993792 -0.06669,-0.02311 z m 2.9842,2.023547 -0.03667,-0.09975 z m -9.282741,-2.886923 0.109955,-0.133654 z m -0.196482,0.193178 0.01682,-0.04022 z m 9.052357,2.153898 -0.09574,-0.163909 0.09577,0.163873 m -0.08987,-0.589972 0.01682,-0.04323 z m -0.08654,-0.16369 c 0.0054,-0.279325 0.268449,0.20203 1.4e-5,-2.1e-5 m -1.4e-5,0.0069 -0.08295,0.0813 z m -0.487219,-0.720077 0.04323,0.01028 z m -3.7853,-0.664137 c -1.115566,1.811148 3.675308,-0.02538 0,0 z m -3.094426,-1.304298 c -1.96119,0.270325 5.628332,2.227725 1.092761,0.185188 L 28.9479,39.530358 z m 1.70608,1.070612 -0.256519,0.0014 z M 13.572884,25.521522 c -1.595074,0.343486 -0.885778,0.931684 0.09705,0.134674 z m 20.717732,-5.478705 c -0.829921,-0.12922 -2.377297,0.995718 -0.687873,0.342696 z m 0.06999,0.322422 -0.143709,0.03754 z m -6.184451,-0.439542 c -2.368636,1.103155 1.311775,1.005754 0.945281,1.942079 2.369198,0.60886 -3.28105,-0.61353 -4.615233,-0.485592 -3.684994,0.341389 -7.839496,-1.432131 -10.92442,1.402326 -0.865248,0.760027 0.86995,0.484035 -1.405151,1.176948 -2.6369765,1.256214 1.568082,1.942002 -1.927413,2.450997 -3.4315717,1.629295 3.572353,-1.406137 4.856944,-1.288501 5.08204,-1.141774 3.404703,5.56008 1.45679,8.097838 0.07471,1.779567 3.226176,9.144454 1.759578,3.827076 0.654047,-1.04498 1.921448,6.240738 5.223067,5.594207 2.273475,0.245966 6.738125,5.643538 3.989951,1.399906 0.905019,-1.956477 -3.039524,-1.363857 -0.901744,-3.720126 -3.693694,3.389866 -4.83227,-3.213723 -0.660368,-3.431792 1.918221,-1.201749 2.447246,0.461735 3.497466,1.630967 0.637316,-3.585385 4.003337,-6.929394 7.595508,-7.572221 3.467491,-0.594467 -3.507364,-2.093225 1.088472,-2.262126 3.006019,-1.802506 -0.340131,2.671203 2.762729,0.914439 -0.697319,-1.488354 -0.57381,-4.927665 -2.798908,-4.77718 -2.636526,-3.479376 -4.290502,6.646965 -6.073235,1.639931 -3.650949,-2.935995 3.852343,-2.296497 3.880765,-3.984912 1.774224,-1.27182 2.303392,-0.900266 2.862038,-0.222369 -2.902698,0.898413 -0.717649,1.380032 0.962614,2.178788 -1.302588,-1.894073 3.637544,-1.074674 0.870737,-3.183655 -2.334934,-2.115441 -4.806456,-0.933758 -5.667199,1.016098 -0.12008,-1.866798 1.398511,-3.106223 -1.235839,-1.184132 -1.870378,1.210789 -4.370527,1.260936 -1.52585,-0.197843 -0.0249,-0.834061 -3.163889,-0.650079 -4.01658,-0.961151 z m 9.012677,0.411709 c -0.721595,0.636435 0.20398,0.384149 0,0 z m 1.299339,0.07468 0.262328,0.08715 z m -1.729508,0.261796 -0.06711,0.117451 z m 2.767326,0.06062 -0.106276,0.03156 z m 0.677914,0.373954 c -0.235055,0.302035 -0.173656,-0.176783 0,0 z m 0.486117,0.196487 c 0.09734,0.362328 -0.698982,0.04757 0,0 z m -4.660531,0.01873 -0.08505,-0.0015 z m 4.454669,0.0372 -0.155555,0.02505 z m -15.767019,0.05622 -0.08506,-0.0015 z m 12.167735,0.01846 c -0.09749,0.21543 -0.248961,-0.208716 0,0 z m 0.691971,-0.01378 -0.161637,-0.0012 z m -13.219884,0.06062 -0.137656,0.03405 z m 10.190491,0 -0.08925,-1.79e-4 z m -0.794487,0.102793 c -0.935487,1.234522 -1.06347,0.06574 0,0 z m -10.424172,0.0609 c -0.575621,0.227933 0.148615,-0.247545 0,0 z m 17.529602,-0.03279 -0.324808,-0.01851 z m -6.151666,0.159007 c -0.310232,0.657526 -0.02901,-0.372142 0,0 z m 3.650818,-0.0093 c -0.145487,0.202094 -0.07397,-0.191975 0,0 z m -1.425823,0.04684 -0.06424,-0.0019 z m 1.715458,-0.01873 -0.08507,-0.0015 z m -3.2347,0.294315 -0.08278,0.02771 z m -2.921652,0.02343 -0.138489,0.02704 z m 6.254457,0.01406 -0.161637,-0.0012 z m -9.246098,0.229279 -0.159744,-0.02359 z m 3.258127,0.04658 -0.08507,-0.0015 z m -6.506878,0.06532 c -0.49178,1.098862 -1.680723,0.210257 -0.732799,0.11371 z m 13.018437,-0.0044 c 0.750605,0.267636 -0.736173,0.267605 0,0 z m 2.403015,0.04656 -0.09179,-0.02698 z m -26.444174,0.07965 -0.08507,-0.0015 z m 20.007019,0.168101 c -0.221024,0.351747 -0.270857,-0.557333 0,0 z m -1.131237,0.159007 c -0.06109,0.223835 -0.326292,-0.27197 0,0 z m -19.867024,0.299274 -0.08375,0.03617 z m 23.443161,0.05126 c -0.09841,0.184776 -0.176735,-0.225531 0,0 z m 0.584221,0.36927 -0.111978,-0.0022 z m -12.116481,0.556386 c 1.626129,0.136102 -3.249257,0.569711 0,0 z m 13.575096,0.173062 -0.08505,-0.0015 z m -24.106747,0.186877 -0.138661,-0.02728 z m -0.388006,0.04684 -0.08507,-0.0015 z m -0.196488,0.06532 c -0.490351,0.555117 -0.0981,-0.202287 0,0 z m -1.505185,0.453322 -0.137718,-0.0017 z m 0.266479,-0.01378 -0.155249,0.02535 z m 4.758627,0.378639 -0.04241,-0.07645 z m 0.07965,0.116845 c -0.07286,0.192086 -0.146308,-0.201362 0,0 z m -0.233686,0.09343 c 0.210141,0.386768 -0.263252,0.01827 0,0 z m -6.006986,0.04684 -0.0643,0.0015 z m 6.40409,0.210264 -0.211006,0.01478 z m -0.06533,0.172786 c -0.260664,0.355836 -0.203985,-0.200387 0,0 z m -0.308369,0.149636 -0.09122,0.06975 z m 0.186838,0.1918 c -0.0472,0.249738 -0.106492,-0.256008 0,0 z m 0.313055,-0.04217 -0.08506,-0.0015 z m -0.55612,0.360189 c -0.163327,0.403833 0.0014,-0.419436 0,0 z m 9.807165,0.551426 c 0.266725,1.68774 -0.972555,-0.09111 0,0 z m 11.705048,-0.03279 -0.210335,0.05346 z m -21.409423,0.168376 -0.06424,0.0019 z m 9.58285,0.817906 -0.234084,0.194465 z m -9.087362,0.565757 c 0.747576,0.63225 -0.115429,0.409968 0,0 z m 11.578836,0.420802 c 0.276051,1.53618 -3.688386,0.242336 0,0 z m -11.443252,0.163415 c -0.309247,0.249879 -0.189861,-0.221103 0,0 z m 17.950405,0.135585 c -0.187657,0.18035 -0.101008,-0.241009 0,0 z m 0.490796,0.635751 -0.160037,-0.02338 z m -6.146975,0.08873 -0.396398,-0.01377 z m -0.864756,0.05154 c -1.257696,2.911234 -2.602467,0.785845 0,0 z m 0.794485,0.140266 c 0.970374,1.196054 -2.11282,0.215298 -6e-5,7e-6 z m 0.112155,-0.06559 -0.10835,-0.0044 z m 1.523934,0.724762 c -1.27158,0.786697 -1.399856,-0.225513 0,0 z m -1.075022,0.458005 c -1.792953,0.836923 -1.511411,0.160731 0,0 z m -1.192136,0.257112 -0.209206,-0.0014 z m 1.308984,1.687621 -0.08273,-0.02749 z m 0,0.790074 -0.07333,-0.03226 z m -5.515912,2.33715 -0.08946,-1.73e-4 z m 0.528001,7.591535 c -0.346101,0.362094 -0.222682,-0.69881 0,0 z m 3.982898,-25.266132 c -4.678938,0.81806 5.606311,0.936888 0.486212,0.103874 0.490754,-0.150986 -0.450403,-0.06454 -0.486212,-0.103874 z m -0.09838,0.430172 c 0.39248,0.336704 -1.344101,-0.291285 0,0 z m 0.168376,-0.09838 c -0.295394,0.227721 -0.173561,-0.21069 0,0 z M 31.018438,19.753 30.863141,19.7475 z m 1.953838,-1.103126 c -1.611786,0.601866 1.324764,0.08568 0,0 z m 1.949417,-0.21054 c -1.09601,0.990264 2.062244,-0.04474 0,0 z m 15.846669,-1.065648 c -4.273893,0.802634 -9.989651,-0.825225 -13.288329,1.168667 2.713835,1.229055 -7.289559,0.636938 -1.636815,1.181727 0.528268,0.06828 5.003274,0.1599 1.48225,-0.336452 1.842771,0.573238 10.051599,-2.682627 5.112802,-0.672743 -1.657166,0.311167 4.056048,1.546767 2.082819,2.748383 -1.956813,1.589303 0.934371,5.419614 2.57074,1.794945 3.802622,-0.594476 6.837796,-3.725678 8.237338,-5.452378 -1.549456,-0.05973 -2.955175,-0.702503 -4.560805,-0.432149 z m -1.836984,0.345846 c -0.241908,0.229305 -0.01163,-0.255757 0,0 z m 4.501515,0.02343 c -0.23507,0.302017 -0.173643,-0.176777 0,0 z m -14.131211,0.07468 -0.08506,-0.0015 z m 0.233686,0.336752 c -0.261692,0.465037 -0.601822,-0.278599 0,0 z m 0.738546,-0.03748 c -0.0028,0.359913 -0.345636,-0.138331 0,0 z m -0.771339,0.313329 c -0.175004,0.158064 -0.09325,-0.271985 0,0 z m -0.09343,0.07937 -0.09157,0.03055 z m -0.888179,0.191798 -0.105941,0.06218 z m 4.54837,0.289631 -0.114101,-0.0022 z m -0.701067,0.04684 -0.114051,-0.0022 z m -7.703694,0.298999 -0.08273,-0.02749 z m -0.738547,0.07027 -0.08505,-0.0015 z m 18.501833,0.813222 -0.06424,0.0019 z m -0.102793,0.140268 c 0.136466,0.673669 -0.55088,-0.26411 0,0 z m 0.420806,-0.01406 -0.137717,-0.0017 z m 0.01846,0.08901 -0.08506,-0.0015 z m -8.797459,2.954163 -0.07614,-0.04247 z m -18.332358,25.73182 0.07661,-0.110512 z m -0.320218,0.156248 0.02675,-0.03304 z m 0.03667,-0.229276 -0.0132,-0.110512 z m -0.05321,-0.41722 -0.01984,-0.03358 z m -0.04323,0.256561 -0.06314,-0.08322 z m -0.353565,-0.15267 c 0.034,0.58665 0.578045,0.300915 1.4e-5,0 m 0.03667,0.199239 0.0062,-0.08845 z m 6.749047,-5.041975 c -3.382986,0.882728 -1.541016,3.448926 -3.319329,5.708609 0.359262,4.753279 6.235159,7.714379 4.5186,13.311984 5.006734,15.178233 2.700253,5.283008 5.453485,0.626029 -0.607205,-0.668685 2.533502,-2.150484 2.245544,-4.117851 3.965618,-1.982732 5.814006,-10.194746 -0.469672,-10.145146 -1.779319,-3.088994 -5.234471,-4.574876 -8.428642,-5.384227 z m 0.196482,1.10313 c -0.447011,0.752392 -0.08077,-1.018597 0,0 z m 0.874128,10.251663 c 0.335157,0.494457 -0.554486,-0.226333 0,0 z m 9.035826,3.024162 -0.06423,0.0021 z m -1.743565,3.047863 -0.0093,-0.08398 z m -3.374961,4.852047 -0.161049,0.0021 z m -2.528954,0.771612 c -0.16087,0.204943 0.01087,-0.236697 0,0 z m -0.08873,0.168095 c 0.05924,0.387705 -0.202344,-0.360172 0,0 z m 0.210259,0.154325 -0.138435,0.02715 z m 23.769171,-34.008331 0.03358,-0.02013 z m -8.761902,0.683426 -0.04385,-0.03334 z m -0.103067,-0.310298 c -0.395255,-0.151092 0.397152,-0.07107 0,0 z m -0.504024,-0.366517 -0.03994,-0.07 z m -0.226525,0.03335 -0.136958,-0.0733 z m -0.02675,-0.18684 -0.0035,-0.03334 z m -0.127045,0.253529 c -0.330478,-0.07404 0.251157,-0.01488 0,6e-6 m -0.119866,-0.05347 -0.03502,-0.0474 z m -0.793385,-0.336201 0.01594,-0.05404 z m 17.96529,1.490033 c 0.372567,0.814019 1.662898,-0.193694 0,0 z m -4.772958,-2.921646 c -0.918003,1.454679 0.535565,2.433669 0,0 z m -5.155741,-4.833623 c -3.157083,2.48948 2.844458,0.668532 0,0 z m 1.533025,-1.472673 c -1.740848,0.464459 -0.274544,3.112726 -0.320409,3.424567 2.676029,-0.188985 0.404108,-2.170104 0.320409,-3.424567 z m -0.892864,0.640711 -0.06424,-0.0019 z m -0.107463,-1.790419 c -0.142347,0.704383 0.532556,-0.05061 0,0 z m -4.024774,-1.453932 c -1.045021,2.403632 4.846034,-0.68231 0.56595,0.197712 l -0.304415,-0.038 z m 12.75719,-1.612666 c -2.01893,0.254601 -5.386273,2.414565 -4.900293,4.222105 1.884593,0.288072 1.781947,1.235082 0.427557,1.002111 -0.212353,2.377659 -4.676285,2.565015 -3.9163,4.618343 -4.385016,1.181057 0.306317,5.626797 1.642088,1.563945 1.436118,-3.040794 5.672574,0.844331 4.408409,1.266175 3.167479,-0.491198 -2.713711,-4.269964 0.650654,-2.225506 1.077642,1.840343 2.819265,3.706071 2.506114,0.995217 1.89594,0.126492 1.381258,-3.56934 3.836951,-1.558988 2.027392,0.08282 4.977227,2.95583 3.842569,-0.992563 6.526291,-10.122137 -2.39216,-7.510568 -8.497749,-8.890839 z m 0.209991,0.08873 -0.06416,-0.0021 z m 0.514497,-0.02811 -0.159989,0.02358 z m -2.150312,0.448912 -0.138983,-0.02691 z m -0.467648,0.09343 -0.0902,0.02392 z m -0.495207,0.308645 -0.0563,-0.0022 z m 0.369269,-0.04217 -0.114114,-0.0022 z m 2.084721,1.023761 c -3.155373,2.382347 3.577505,1.921625 -0.424511,2.561608 1.613118,1.440006 -5.488379,2.557661 -1.30971,0.240991 -0.12247,-1.192674 0.257013,-2.792577 1.734221,-2.802599 z m -3.641448,0.448913 c -0.266493,0.833089 -0.447661,-0.108276 0,0 z m -0.855659,0.532685 -0.08506,-0.0015 z m 0.995654,2.916962 c -0.173334,0.219032 -0.201326,-0.282448 0,0 z m 2.814449,0.0093 c -0.192857,0.06101 0.191045,-0.212051 0,0 z m -3.048136,0.07937 c 0.121534,0.377156 -0.471294,-0.192456 0,0 z m -1.612669,0.841606 -0.07636,0.03306 z m 10.40103,2.243732 c -0.606123,1.363897 -1.782527,-0.186913 0,0 z m -5.282222,3.431184 c -0.03906,0.491478 -0.372985,-0.348416 0,0 z m 0.888178,-0.107476 -0.09916,0.01693 z m -0.294587,0.1681 -0.08507,-0.0015 z m 0.09343,0.168376 -0.0095,-0.08398 z M 62.501489,18.200935 c -4.011895,0.814148 2.902176,1.051435 1.653318,0.04171 l -0.880503,-0.07515 z m 0.411432,0.233688 c -0.202289,0.210744 -0.203008,-0.285971 0,0 z m -0.925383,0.313329 -0.171686,-0.04119 z m -0.327379,0.116845 -0.08979,1.77e-4 z m -53.3168765,33.820504 0.04507,-0.05657 z m -0.233686,-0.36293 0.03332,-0.02346 z m -0.149914,0.199787 -0.02311,-0.03332 z m -0.05014,-0.197037 c 0.187111,-0.02428 -0.174887,-0.138297 2.1e-5,1.4e-5 M 68.877815,34.501202 c -1.842443,0.0022 0.464418,0.683442 0,0 z m 6.664441,-6.198052 c -4.948988,-1.298016 2.383179,8.805046 -2.117309,4.218912 -2.739123,-2.598063 -3.291453,0.497814 -6.793448,-0.221717 -2.151195,2.899523 4.892494,0.440383 2.243861,4.145504 1.809,1.910154 3.086381,9.98474 7.221689,5.76223 3.204118,-0.756911 1.491553,-4.922851 -0.881318,-3.317496 -3.554309,-4.273338 3.091956,1.040959 5.237733,-0.112686 C 136.70589,35.132413 67.090764,4.8815501 75.542256,28.30315 z m 1.483377,1.902133 -0.08507,-0.0015 z m -0.360179,0.205855 c 0.898741,0.403167 -0.643486,1.315199 0,0 z m -0.163415,0.233688 c 0.04856,0.483793 -0.293855,-0.357013 0,0 z m -0.14027,0.364586 -0.110613,-0.306653 z M 75.0809,32.05632 c 0.988234,0.8819 -0.954927,-0.05818 0,0 z m -5.801131,5.343124 c -0.106405,0.25701 -0.04728,-0.250176 0,0 z m 2.823266,4.828897 -0.08047,0.0028 z m 4.138331,1.574834 c 0.864176,-0.03735 -0.464891,-0.313693 -1.4e-5,-4.2e-5 m -0.493264,0.06669 -0.06642,-0.02011 z m -26.397331,-1.780489 0.0069,-0.103344 z m 0.03338,0.243332 -0.03338,-0.103344 z m -0.270065,0.433754 -0.06033,-0.166719 z m -0.253261,-0.633825 c 0.337053,0.02928 -0.167855,-0.190791 -2.7e-5,2.1e-5 m -0.05315,0.670177 0.02093,-0.08406 z m -0.273921,-0.84384 0.09534,-0.08873 z m 4.221811,-4.777642 0.08383,-0.105768 -0.08387,0.105757 m -0.2072,0.316638 c -0.08409,-0.570309 0.44452,-0.104254 -2.8e-5,-4e-6 m -0.43621,0.126493 c -0.275228,-0.29148 0.291612,-0.107293 0,0 z m -0.367067,-0.09975 c -0.344596,-0.393318 0.806731,-0.215121 0,0 z m -0.190421,-0.0098 0.01656,-0.0733 z m -0.173061,-0.210264 -0.04084,-0.09236 0.04111,0.09238 m -0.09343,0.356868 0.03994,-0.07 z m 0.499892,-2.004258 c -0.289237,-0.0325 0.183875,-0.149743 -6e-6,0 m 8.647244,-1.791831 c -4.817668,-0.356095 -8.914957,3.389048 -9.093005,8.242708 -0.81498,4.896455 5.177838,5.037291 8.368508,4.813256 2.47882,3.556881 1.848311,8.062696 2.476036,12.192997 0.295374,4.313957 4.663923,4.84292 6.494183,0.957649 1.325783,-3.318248 3.42093,-5.879769 2.873236,-9.971934 1.786009,-1.469869 6.178275,-6.6319 1.216708,-5.727264 -2.854091,-2.572239 -3.634041,-11.006652 -8.873676,-7.745453 -2.125796,-0.666522 -2.646272,-1.626749 -3.46199,-2.761959 z m 8.918984,15.094068 c -0.135185,2.300978 -1.85472,-0.424 0,0 z m -1.617353,1.7951 c 1.027755,2.032049 -0.07739,1.601477 0,0 z m 1.682665,2.141215 c 0.552016,1.508263 -0.139565,2.521852 0,0 z" transform="matrix(0.11519392,0,0,0.11671215,1.2062579,1.1713273)" clip-path="url(#0)" fill="#339a1f"/>
</svg>
