<svg xmlns="http://www.w3.org/2000/svg" xmlns:xlink="http://www.w3.org/1999/xlink" width="48" viewBox="0 0 13.546667 13.546667" height="48">
 <defs>
  <clipPath>
   <rect height="208.57" y="1580.93" x="-830" width="477.14" fill="#ff0"/>
  </clipPath>
  <clipPath>
   <rect height="208.57" y="1580.93" x="-830" width="477.14" fill="#ff0"/>
  </clipPath>
  <clipPath>
   <rect height="208.57" y="1580.93" x="-830" width="477.14" fill="#ff0"/>
  </clipPath>
  <clipPath>
   <rect height="208.57" y="1580.93" x="-830" width="477.14" fill="#ff0"/>
  </clipPath>
  <clipPath>
   <rect transform="matrix(.99975 -.02255 .02255 .99975 0 0)" height="240.87" y="780.64" x="294.93" width="357.87" fill="#f00"/>
  </clipPath>
  <clipPath>
   <rect height="195" y="857.54" width="301.43" fill="#fff"/>
  </clipPath>
  <clipPath>
   <rect height="208.57" y="1580.93" x="-830" width="477.14" fill="#ff0"/>
  </clipPath>
  <clipPath>
   <rect height="30.01" y="977.09" x="276.37" width="79.48" fill="#e20a17"/>
  </clipPath>
  <clipPath>
   <rect transform="rotate(20.37582)" height="37.48" y="0.064" x="8.208" width="506.46" fill="#162d50"/>
  </clipPath>
  <clipPath>
   <rect transform="rotate(.22918)" height="318.4" y="758.67" x="218.9" width="357.38" fill="#fff"/>
  </clipPath>
  <clipPath>
   <rect transform="rotate(.22918)" height="318.4" y="758.67" x="218.9" width="357.38" fill="#fff"/>
  </clipPath>
  <clipPath>
   <rect transform="rotate(20.37582)" height="37.48" y="0.064" x="8.208" width="506.46" fill="#162d50"/>
  </clipPath>
  <clipPath>
   <rect height="208.57" y="1580.93" x="-830" width="477.14" fill="#ff0"/>
  </clipPath>
  <clipPath>
   <rect transform="rotate(.6171)" height="235.88" y="804.24" x="221.39" width="350.46"/>
  </clipPath>
  <clipPath>
   <rect transform="rotate(.16206)" height="279.03" y="793.52" x="257.32" width="287.43" fill="#fff"/>
  </clipPath>
  <clipPath>
   <rect height="195" y="0.06" width="301.43" fill="#fff"/>
  </clipPath>
  <clipPath>
   <rect height="195" y="857.54" width="301.43" fill="#fff"/>
  </clipPath>
  <path clip-path="url(#2)" id="0" d="m 699.2857,672.93231 a 40.714287,40.714287 0 1 1 -81.42858,0 40.714287,40.714287 0 1 1 81.42858,0 z" fill="#4a0"/>
  <clipPath>
   <use xlink:href="#0" transform="matrix(4.3233 0 0 4.3233 -2450.68 -2667.55)"/>
  </clipPath>
  <clipPath>
   <rect transform="rotate(27.44968)" height="41.39" y="815.74" x="448.12" width="63.987" fill="#fff"/>
  </clipPath>
  <clipPath>
   <rect height="195" y="857.54" width="301.43" fill="#fff"/>
  </clipPath>
  <clipPath>
   <rect height="208.57" y="1580.93" x="-830" width="477.14" fill="#ff0"/>
  </clipPath>
  <clipPath>
   <rect height="208.57" y="1580.93" x="-830" width="477.14" fill="#ff0"/>
  </clipPath>
  <clipPath>
   <rect height="208.57" y="1580.93" x="-830" width="477.14" fill="#ff0"/>
  </clipPath>
  <clipPath>
   <rect height="208.57" y="1580.93" x="-830" width="477.14" fill="#ff0"/>
  </clipPath>
  <clipPath>
   <rect height="208.57" y="1580.93" x="-830" width="477.14" fill="#ff0"/>
  </clipPath>
  <clipPath>
   <use xlink:href="#0"/>
  </clipPath>
  <clipPath>
   <rect height="208.57" y="1580.93" x="-830" width="477.14" fill="#ff0"/>
  </clipPath>
  <path id="1" d="m 699.2857,672.93231 a 40.714287,40.714287 0 1 1 -81.42858,0 40.714287,40.714287 0 1 1 81.42858,0 z" fill="#4a0"/>
  <clipPath id="2">
   <use xlink:href="#1"/>
  </clipPath>
  <clipPath>
   <use transform="matrix(4.3233 0 0 4.3233 -2450.68 -2667.55)" xlink:href="#1"/>
  </clipPath>
  <linearGradient id="3">
   <stop/>
   <stop offset="1" stop-color="#1b1b1b"/>
  </linearGradient>
  <linearGradient gradientTransform="matrix(2.6666671,0,0,2.6666671,-752.66687,-47.08337)" y2="28" x2="0" y1="124" gradientUnits="userSpaceOnUse" id="4" xlink:href="#F"/>
  <clipPath>
   <rect y="38.25" x="26" height="234.67" width="234.67" fill="url(#4)" color="#bebebe" rx="48"/>
  </clipPath>
  <linearGradient y2="32" x2="0" y1="288" gradientTransform="translate(-3.25e-5,-6)" gradientUnits="userSpaceOnUse" id="5" xlink:href="#F"/>
  <clipPath>
   <rect width="220" height="220" x="34" y="44" fill="url(#5)" color="#bebebe" rx="50"/>
  </clipPath>
  <linearGradient y2="31.619" x2="0" y1="299.81" gradientTransform="matrix(0.11931818,0,0,0.11931818,414.13636,48.22727)" gradientUnits="userSpaceOnUse" id="6" xlink:href="#F"/>
  <clipPath>
   <rect y="53" x="417" height="30" width="30" fill="url(#6)" color="#bebebe" rx="7"/>
  </clipPath>
  <linearGradient y2="28.571" x2="0" y1="302.86" gradientTransform="matrix(0.0875,0,0,0.0875,414.9,97.5)" gradientUnits="userSpaceOnUse" id="7" xlink:href="#F"/>
  <clipPath>
   <rect width="22" height="22" x="417" y="101" fill="url(#7)" color="#bebebe" rx="5"/>
  </clipPath>
  <linearGradient y2="28" x2="0" y1="124" gradientUnits="userSpaceOnUse" id="8" xlink:href="#F"/>
  <clipPath>
   <rect y="32" x="292" height="88" width="88" fill="url(#8)" color="#bebebe" rx="18"/>
  </clipPath>
  <linearGradient y2="140" x2="0" y1="204" gradientUnits="userSpaceOnUse" id="9" xlink:href="#F"/>
  <clipPath>
   <rect width="60" height="60" x="290" y="142" fill="url(#9)" color="#bebebe" rx="12.5"/>
  </clipPath>
  <linearGradient y2="40" x2="0" y1="280" gradientTransform="translate(0,-4)" gradientUnits="userSpaceOnUse" id="A" xlink:href="#F"/>
  <clipPath>
   <rect width="220" height="220" x="34" y="46" fill="url(#A)" color="#bebebe" rx="50"/>
  </clipPath>
  <linearGradient y2="40" x2="0" y1="280" gradientTransform="matrix(0.06666667,0,0,0.06666667,302.4,209.33333)" gradientUnits="userSpaceOnUse" id="B" xlink:href="#F"/>
  <clipPath>
   <rect transform="matrix(0,1,-1,0,0,0)" y="212" x="304" height="16" width="16" fill="url(#B)" color="#bebebe" rx="3"/>
  </clipPath>
  <linearGradient y2="40" x2="0" y1="291.43" gradientTransform="matrix(0.11931818,0,0,0.11931818,430.13636,32.227267)" gradientUnits="userSpaceOnUse" id="C" xlink:href="#F"/>
  <clipPath>
   <rect y="37" x="433" height="30" width="30" fill="url(#C)" color="#bebebe" rx="6"/>
  </clipPath>
  <linearGradient y2="40" x2="0" y1="291.43" gradientTransform="matrix(0.0875,0,0,0.0875,430.9,81.499996)" gradientUnits="userSpaceOnUse" id="D" xlink:href="#F"/>
  <clipPath>
   <rect width="22" height="22" x="433" y="85" fill="url(#D)" color="#bebebe" rx="4"/>
  </clipPath>
  <linearGradient y2="40" x2="0" y1="280" gradientTransform="matrix(0.175,0,0,0.175,302.79999,215.99997)" gradientUnits="userSpaceOnUse" id="E" xlink:href="#F"/>
  <clipPath>
   <rect transform="matrix(0,1,-1,0,0,0)" width="42" height="42" x="307" y="223" fill="url(#E)" color="#bebebe" rx="9"/>
  </clipPath>
  <linearGradient id="F">
   <stop stop-color="#7cab4d"/>
   <stop offset="1" stop-color="#aedc88"/>
  </linearGradient>
  <linearGradient xlink:href="#3" id="G" gradientUnits="userSpaceOnUse" gradientTransform="matrix(0.62028533,0,0,0.6,-106.57307,133.1925)" y1="81.38" x2="0" y2="21.384"/>
  <linearGradient gradientTransform="matrix(0.28222223,0,0,0.28222223,0,-283.45334)" xlink:href="#F" id="H" y1="1050.36" x2="0" y2="1006.36" gradientUnits="userSpaceOnUse"/>
 </defs>
 <g transform="matrix(0.28222223,0,0,0.28222223,0,-283.45334)">
  <path transform="translate(0,1004.3622)" d="M 5.1875,1 C 2.8707723,1 1,2.8707723 1,5.1875 l 0,37.625 C 1,45.129228 2.8707723,47 5.1875,47 l 37.625,0 C 45.129228,47 47,45.129228 47,42.8125 L 47,5.1875 C 47,2.8707723 45.129228,1 42.8125,1 L 5.1875,1 z m 0.1875,0.25 37.25,0 c 2.291546,0 4.125,1.8334541 4.125,4.125 l 0,37.25 c 0,2.291546 -1.833454,4.125 -4.125,4.125 l -37.25,0 C 3.0834541,46.75 1.25,44.916546 1.25,42.625 l 0,-37.25 C 1.25,3.0834541 3.0834541,1.25 5.375,1.25 z" opacity="0.05"/>
  <path transform="translate(0,1004.3622)" d="M 5.375,1.25 C 3.0834541,1.25 1.25,3.0834541 1.25,5.375 l 0,37.25 c 0,2.291546 1.8334541,4.125 4.125,4.125 l 37.25,0 c 2.291546,0 4.125,-1.833454 4.125,-4.125 l 0,-37.25 C 46.75,3.0834541 44.916546,1.25 42.625,1.25 l -37.25,0 z m 0.21875,0.25 36.8125,0 C 44.672614,1.5 46.5,3.3273859 46.5,5.59375 l 0,36.8125 C 46.5,44.672614 44.672614,46.5 42.40625,46.5 l -36.8125,0 C 3.3273859,46.5 1.5,44.672614 1.5,42.40625 l 0,-36.8125 C 1.5,3.3273859 3.3273859,1.5 5.59375,1.5 z" opacity="0.1"/>
  <path transform="translate(0,1004.3622)" d="M 5.59375,1.5 C 3.3273859,1.5 1.5,3.3273859 1.5,5.59375 l 0,36.8125 C 1.5,44.672614 3.3273859,46.5 5.59375,46.5 l 36.8125,0 C 44.672614,46.5 46.5,44.672614 46.5,42.40625 l 0,-36.8125 C 46.5,3.3273859 44.672614,1.5 42.40625,1.5 l -36.8125,0 z m 0.09375,0.125 36.625,0 c 2.253773,0 4.0625,1.8087269 4.0625,4.0625 l 0,36.625 c 0,2.253773 -1.808727,4.0625 -4.0625,4.0625 l -36.625,0 c -2.2537731,0 -4.0625,-1.808727 -4.0625,-4.0625 l 0,-36.625 C 1.625,3.4337269 3.4337269,1.625 5.6875,1.625 z" opacity="0.2"/>
  <path transform="translate(0,1004.3622)" d="M 5.6875,1.625 C 3.4337269,1.625 1.625,3.4337269 1.625,5.6875 l 0,36.625 c 0,2.253773 1.8087269,4.0625 4.0625,4.0625 l 36.625,0 c 2.253773,0 4.0625,-1.808727 4.0625,-4.0625 l 0,-36.625 c 0,-2.2537731 -1.808727,-4.0625 -4.0625,-4.0625 l -36.625,0 z m 0.09375,0.125 36.4375,0 c 2.241182,0 4.03125,1.7900679 4.03125,4.03125 l 0,36.4375 c 0,2.241182 -1.790068,4.03125 -4.03125,4.03125 l -36.4375,0 C 3.5400679,46.25 1.75,44.459932 1.75,42.21875 l 0,-36.4375 C 1.75,3.5400679 3.5400679,1.75 5.78125,1.75 z" opacity="0.3"/>
  <path transform="translate(0,1004.3622)" d="M 5.78125,1.75 C 3.5400679,1.75 1.75,3.5400679 1.75,5.78125 l 0,36.4375 c 0,2.241182 1.7900679,4.03125 4.03125,4.03125 l 36.4375,0 c 2.241182,0 4.03125,-1.790068 4.03125,-4.03125 l 0,-36.4375 C 46.25,3.5400679 44.459932,1.75 42.21875,1.75 l -36.4375,0 z m 0.125,0.125 36.1875,0 c 2.228591,0 4.03125,1.802659 4.03125,4.03125 l 0,36.1875 c 0,2.228591 -1.802659,4.03125 -4.03125,4.03125 l -36.1875,0 C 3.677659,46.125 1.875,44.322341 1.875,42.09375 l 0,-36.1875 C 1.875,3.677659 3.677659,1.875 5.90625,1.875 z" opacity="0.4"/>
  <rect width="44.25" height="44.25" x="1.875" y="1006.24" rx="4.02" opacity="0.5"/>
 </g>
 <rect width="12.418" height="12.418" x="0.564" y="0.564" rx="1.129" fill="url(#H)"/>
 <g transform="matrix(0.28222223,0,0,0.28222223,28.339652,-39.621884)">
  <path d="m -68.416087,175.12773 c -1.394473,0.44187 -1.205142,0.50895 -2.707748,0.81128 -1.502641,0.30233 -3.119468,0.45349 -4.850489,0.45349 -1.911356,0 -3.63637,-0.25001 -5.17505,-0.75 -1.526673,-0.51162 -2.830955,-1.26162 -3.912848,-2.25 -1.081902,-1 -1.911348,-2.23254 -2.488363,-3.69767 -0.576999,-1.46512 -0.865502,-3.15697 -0.865502,-5.07559 0,-4.093 1.057835,-7.15115 3.173548,-9.17441 2.127721,-2.03487 5.241163,-3.0523 9.340336,-3.05233 1.562721,3e-5 3.04733,0.0931 4.453791,0.27906 1.418469,0.18608 2.764824,0.44189 4.039076,0.76745 l -0.0068,4.95349 -1,0 -0.688204,-2.82558 c -0.829482,-0.56976 -1.827228,-1.00579 -2.993249,-1.30813 -1.154033,-0.31393 -2.374161,-0.47092 -3.660402,-0.47094 -1.406479,2e-5 -2.662672,0.19188 -3.768596,0.57559 -1.093927,0.37211 -2.019535,0.98256 -2.77685,1.83139 -0.757342,0.84885 -1.340356,1.96513 -1.749062,3.34884 -0.396699,1.37211 -0.59505,3.05233 -0.59505,5.04069 0,2.01164 0.234424,3.69188 0.703236,5.04069 0.46882,1.33722 1.099917,2.40699 1.893324,3.20931 0.805405,0.80233 1.731012,1.37209 2.776858,1.70931 1.057834,0.3372 2.169775,0.50581 3.335841,0.50581 0.589014,0 1.172029,-0.0349 1.749054,-0.10465 0.589014,-0.0814 1.135973,-0.18024 1.640876,-0.29652 0.516875,-0.11627 0.97368,-0.24418 1.370396,-0.38371 0.396673,-0.13955 0.533412,-0.27325 0.761828,-0.40116 l 0,-6.47094 -3,-1 -2e-6,-1 9,0 2e-6,1 -3.000002,1 0,7.33637" fill="url(#G)"/>
 </g>
</svg>
