<svg xmlns="http://www.w3.org/2000/svg" xmlns:xlink="http://www.w3.org/1999/xlink" width="48" viewBox="0 0 13.546667 13.546667" height="48">
 <defs>
  <linearGradient id="0">
   <stop stop-color="#cecece"/>
   <stop offset="1" stop-color="#eaeaea"/>
  </linearGradient>
  <linearGradient gradientTransform="matrix(0.28222223,0,0,0.28222223,0,-283.45334)" xlink:href="#0" id="1" y1="1050.36" x2="0" y2="1006.36" gradientUnits="userSpaceOnUse"/>
 </defs>
 <g transform="matrix(0.28222223,0,0,0.28222223,0,-283.45334)">
  <path transform="translate(0,1004.3622)" d="M 5.1875,1 C 2.8707723,1 1,2.8707723 1,5.1875 l 0,37.625 C 1,45.129228 2.8707723,47 5.1875,47 l 37.625,0 C 45.129228,47 47,45.129228 47,42.8125 L 47,5.1875 C 47,2.8707723 45.129228,1 42.8125,1 L 5.1875,1 z m 0.1875,0.25 37.25,0 c 2.291546,0 4.125,1.8334541 4.125,4.125 l 0,37.25 c 0,2.291546 -1.833454,4.125 -4.125,4.125 l -37.25,0 C 3.0834541,46.75 1.25,44.916546 1.25,42.625 l 0,-37.25 C 1.25,3.0834541 3.0834541,1.25 5.375,1.25 z" opacity="0.05"/>
  <path transform="translate(0,1004.3622)" d="M 5.375,1.25 C 3.0834541,1.25 1.25,3.0834541 1.25,5.375 l 0,37.25 c 0,2.291546 1.8334541,4.125 4.125,4.125 l 37.25,0 c 2.291546,0 4.125,-1.833454 4.125,-4.125 l 0,-37.25 C 46.75,3.0834541 44.916546,1.25 42.625,1.25 l -37.25,0 z m 0.21875,0.25 36.8125,0 C 44.672614,1.5 46.5,3.3273859 46.5,5.59375 l 0,36.8125 C 46.5,44.672614 44.672614,46.5 42.40625,46.5 l -36.8125,0 C 3.3273859,46.5 1.5,44.672614 1.5,42.40625 l 0,-36.8125 C 1.5,3.3273859 3.3273859,1.5 5.59375,1.5 z" opacity="0.1"/>
  <path transform="translate(0,1004.3622)" d="M 5.59375,1.5 C 3.3273859,1.5 1.5,3.3273859 1.5,5.59375 l 0,36.8125 C 1.5,44.672614 3.3273859,46.5 5.59375,46.5 l 36.8125,0 C 44.672614,46.5 46.5,44.672614 46.5,42.40625 l 0,-36.8125 C 46.5,3.3273859 44.672614,1.5 42.40625,1.5 l -36.8125,0 z m 0.09375,0.125 36.625,0 c 2.253773,0 4.0625,1.8087269 4.0625,4.0625 l 0,36.625 c 0,2.253773 -1.808727,4.0625 -4.0625,4.0625 l -36.625,0 c -2.2537731,0 -4.0625,-1.808727 -4.0625,-4.0625 l 0,-36.625 C 1.625,3.4337269 3.4337269,1.625 5.6875,1.625 z" opacity="0.2"/>
  <path transform="translate(0,1004.3622)" d="M 5.6875,1.625 C 3.4337269,1.625 1.625,3.4337269 1.625,5.6875 l 0,36.625 c 0,2.253773 1.8087269,4.0625 4.0625,4.0625 l 36.625,0 c 2.253773,0 4.0625,-1.808727 4.0625,-4.0625 l 0,-36.625 c 0,-2.2537731 -1.808727,-4.0625 -4.0625,-4.0625 l -36.625,0 z m 0.09375,0.125 36.4375,0 c 2.241182,0 4.03125,1.7900679 4.03125,4.03125 l 0,36.4375 c 0,2.241182 -1.790068,4.03125 -4.03125,4.03125 l -36.4375,0 C 3.5400679,46.25 1.75,44.459932 1.75,42.21875 l 0,-36.4375 C 1.75,3.5400679 3.5400679,1.75 5.78125,1.75 z" opacity="0.3"/>
  <path transform="translate(0,1004.3622)" d="M 5.78125,1.75 C 3.5400679,1.75 1.75,3.5400679 1.75,5.78125 l 0,36.4375 c 0,2.241182 1.7900679,4.03125 4.03125,4.03125 l 36.4375,0 c 2.241182,0 4.03125,-1.790068 4.03125,-4.03125 l 0,-36.4375 C 46.25,3.5400679 44.459932,1.75 42.21875,1.75 l -36.4375,0 z m 0.125,0.125 36.1875,0 c 2.228591,0 4.03125,1.802659 4.03125,4.03125 l 0,36.1875 c 0,2.228591 -1.802659,4.03125 -4.03125,4.03125 l -36.1875,0 C 3.677659,46.125 1.875,44.322341 1.875,42.09375 l 0,-36.1875 C 1.875,3.677659 3.677659,1.875 5.90625,1.875 z" opacity="0.4"/>
  <rect width="44.25" height="44.25" x="1.875" y="1006.24" rx="4.02" opacity="0.5"/>
 </g>
 <rect width="12.418" height="12.418" x="0.564" y="0.564" rx="1.129" fill="url(#1)"/>
 <g>
  <path d="m 3.350951,3.3866663 c -0.134267,0.01459 -0.247225,0.143747 -0.246503,0.282179 l 0,5.016845 c 1.3e-5,0.147744 0.131092,0.282155 0.275167,0.282179 l 2.476498,0 0,0.5020169 1.834445,0 0,-0.5020169 2.4765,0 c 0.144071,-2.4e-5 0.275151,-0.134435 0.275164,-0.282179 l 0,-5.016845 c -1.3e-5,-0.147744 -0.131093,-0.282155 -0.275164,-0.282179 l -6.787443,0 z m 0.363002,0.439659 c 0.01144,-0.0024 0.02297,-0.0024 0.0344,0 l 6.072901,0 c 0.09605,2.29e-5 0.183436,0.08961 0.183445,0.1881169 l 0,4.325673 c -9e-6,0.0985 -0.0874,0.188096 -0.183445,0.18812 l -6.072901,0 c -0.09605,-2.4e-5 -0.183431,-0.08961 -0.183443,-0.18812 l 0,-4.325673 c -0.0016,-0.08779 0.06496,-0.171751 0.149047,-0.188117 z m 0.797245,5.873231 0,0.4604437 4.586113,0 0,-0.4604437 z" fill="#2d2d2d" color="#000"/>
  <path d="M 14 18 L 14 19.40625 L 15.53125 19.40625 L 15.53125 18 L 14 18 z M 16.3125 18 L 16.3125 19.40625 L 16.6875 19.40625 C 16.779609 19.149148 16.963843 18.929071 17.1875 18.75 C 17.365361 18.607597 17.599732 18.524422 17.84375 18.4375 L 17.84375 18 L 16.3125 18 z M 20.9375 18 L 20.9375 18.59375 C 21.027457 18.641872 21.113391 18.690665 21.1875 18.75 C 21.41116 18.929072 21.595392 19.149148 21.6875 19.40625 L 22.46875 19.40625 L 22.46875 18 L 20.9375 18 z M 25.53125 18 L 25.53125 19.40625 L 26.3125 19.40625 C 26.404609 19.149148 26.588843 18.929071 26.8125 18.75 C 26.886609 18.690666 26.972543 18.641872 27.0625 18.59375 L 27.0625 18 L 25.53125 18 z M 30.15625 18 L 30.15625 18.4375 C 30.400268 18.524422 30.634639 18.607596 30.8125 18.75 C 31.146265 19.01723 31.375 19.381232 31.375 19.8125 C 31.375 20.182159 31.195699 20.497763 30.9375 20.75 L 30.9375 22.1875 L 32.46875 22.1875 L 32.46875 18 L 30.9375 18 L 30.15625 18 z M 33.21875 18 L 33.21875 19.40625 L 34 19.40625 L 34 18 L 33.21875 18 z M 14 20.8125 L 14 22.1875 L 16.3125 22.1875 L 16.3125 20.8125 L 14 20.8125 z M 17.0625 20.8125 L 17.0625 22.1875 L 18.15625 22.1875 L 18.15625 21.3125 C 17.80554 21.208755 17.441031 21.077989 17.1875 20.875 C 17.163659 20.855912 17.147724 20.832565 17.125 20.8125 L 17.0625 20.8125 z M 21.6875 20.8125 L 21.6875 22.1875 L 22.96875 22.1875 L 22.96875 20.8125 L 21.6875 20.8125 z M 25.03125 20.8125 L 25.03125 22.1875 L 25.53125 22.1875 L 25.53125 20.8125 L 25.03125 20.8125 z M 26.3125 20.8125 L 26.3125 22.1875 L 27.78125 22.1875 L 27.78125 21.3125 C 27.43054 21.208755 27.066031 21.077989 26.8125 20.875 C 26.78866 20.855912 26.772724 20.832565 26.75 20.8125 L 26.3125 20.8125 z M 33.21875 20.8125 L 33.21875 22.1875 L 34 22.1875 L 34 20.8125 L 33.21875 20.8125 z M 20.9375 21.03125 C 20.719708 21.147756 20.466944 21.239081 20.21875 21.3125 L 20.21875 22.1875 L 20.9375 22.1875 L 20.9375 21.03125 z M 30.15625 21.1875 C 30.052435 21.22448 29.948423 21.281536 29.84375 21.3125 L 29.84375 22.1875 L 30.15625 22.1875 L 30.15625 21.1875 z M 14 23.59375 L 14 25 L 15.53125 25 L 15.53125 23.59375 L 14 23.59375 z M 16.3125 23.59375 L 16.3125 25 L 17.84375 25 L 17.84375 23.59375 L 16.3125 23.59375 z M 20.21875 23.59375 L 20.21875 25 L 21.875 25 C 21.918033 24.95796 21.952319 24.913176 22 24.875 C 22.25353 24.672014 22.618041 24.541248 22.96875 24.4375 L 22.96875 23.59375 L 20.21875 23.59375 z M 25.03125 23.59375 L 25.03125 24.4375 C 25.38196 24.541246 25.74647 24.672012 26 24.875 C 26.047681 24.913176 26.081967 24.95796 26.125 25 L 27.78125 25 L 27.78125 23.59375 L 25.03125 23.59375 z M 29.84375 23.59375 L 29.84375 25 L 30.9375 25 L 30.9375 23.59375 L 29.84375 23.59375 z M 31.6875 23.59375 L 31.6875 25 L 32.46875 25 L 32.46875 23.59375 L 31.6875 23.59375 z M 33.21875 23.59375 L 33.21875 25 L 34 25 L 34 23.59375 L 33.21875 23.59375 z " transform="scale(.28222)" fill="#d34836"/>
 </g>
 <path d="M 23.34375 15 L 23.34375 24.6875 C 22.461252 24.856527 21.8125 25.351945 21.8125 25.9375 C 21.8125 26.523056 22.461252 27.018473 23.34375 27.1875 L 23.34375 29 L 24.65625 29 L 24.65625 27.1875 C 25.538748 27.018473 26.1875 26.523056 26.1875 25.9375 C 26.1875 25.351945 25.538748 24.856527 24.65625 24.6875 L 24.65625 15 L 23.34375 15 z M 18.53125 15.875 L 18.53125 18.5625 C 17.648752 18.731527 17 19.226945 17 19.8125 C 17 20.398056 17.648752 20.893473 18.53125 21.0625 L 18.53125 28.125 L 19.84375 28.125 L 19.84375 21.0625 C 20.726248 20.893473 21.375 20.398056 21.375 19.8125 C 21.375 19.226945 20.726248 18.731527 19.84375 18.5625 L 19.84375 15.875 L 18.53125 15.875 z M 28.15625 15.875 L 28.15625 18.5625 C 27.273752 18.731527 26.625 19.226945 26.625 19.8125 C 26.625 20.398056 27.273752 20.893473 28.15625 21.0625 L 28.15625 28.125 L 29.46875 28.125 L 29.46875 21.0625 C 30.351248 20.893473 31 20.398056 31 19.8125 C 31 19.226945 30.351248 18.731527 29.46875 18.5625 L 29.46875 15.875 L 28.15625 15.875 z " transform="scale(.28222)" fill="#2d2d2d"/>
</svg>
