<svg xmlns="http://www.w3.org/2000/svg" xmlns:xlink="http://www.w3.org/1999/xlink" width="48" viewBox="0 0 13.546667 13.546667" height="48">
 <defs>
  <linearGradient id="0">
   <stop stop-color="#d1d1d1"/>
   <stop offset="1" stop-color="#f9f9f9"/>
  </linearGradient>
  <linearGradient gradientTransform="matrix(0.28222223,0,0,0.28222223,0,-283.45334)" xlink:href="#0" id="1" y1="1050.36" x2="0" y2="1006.36" gradientUnits="userSpaceOnUse"/>
 </defs>
 <g transform="matrix(0.28222223,0,0,0.28222223,0,-283.45334)">
  <path transform="translate(0,1004.3622)" d="M 5.1875,1 C 2.8707723,1 1,2.8707723 1,5.1875 l 0,37.625 C 1,45.129228 2.8707723,47 5.1875,47 l 37.625,0 C 45.129228,47 47,45.129228 47,42.8125 L 47,5.1875 C 47,2.8707723 45.129228,1 42.8125,1 L 5.1875,1 z m 0.1875,0.25 37.25,0 c 2.291546,0 4.125,1.8334541 4.125,4.125 l 0,37.25 c 0,2.291546 -1.833454,4.125 -4.125,4.125 l -37.25,0 C 3.0834541,46.75 1.25,44.916546 1.25,42.625 l 0,-37.25 C 1.25,3.0834541 3.0834541,1.25 5.375,1.25 z" opacity="0.05"/>
  <path transform="translate(0,1004.3622)" d="M 5.375,1.25 C 3.0834541,1.25 1.25,3.0834541 1.25,5.375 l 0,37.25 c 0,2.291546 1.8334541,4.125 4.125,4.125 l 37.25,0 c 2.291546,0 4.125,-1.833454 4.125,-4.125 l 0,-37.25 C 46.75,3.0834541 44.916546,1.25 42.625,1.25 l -37.25,0 z m 0.21875,0.25 36.8125,0 C 44.672614,1.5 46.5,3.3273859 46.5,5.59375 l 0,36.8125 C 46.5,44.672614 44.672614,46.5 42.40625,46.5 l -36.8125,0 C 3.3273859,46.5 1.5,44.672614 1.5,42.40625 l 0,-36.8125 C 1.5,3.3273859 3.3273859,1.5 5.59375,1.5 z" opacity="0.1"/>
  <path transform="translate(0,1004.3622)" d="M 5.59375,1.5 C 3.3273859,1.5 1.5,3.3273859 1.5,5.59375 l 0,36.8125 C 1.5,44.672614 3.3273859,46.5 5.59375,46.5 l 36.8125,0 C 44.672614,46.5 46.5,44.672614 46.5,42.40625 l 0,-36.8125 C 46.5,3.3273859 44.672614,1.5 42.40625,1.5 l -36.8125,0 z m 0.09375,0.125 36.625,0 c 2.253773,0 4.0625,1.8087269 4.0625,4.0625 l 0,36.625 c 0,2.253773 -1.808727,4.0625 -4.0625,4.0625 l -36.625,0 c -2.2537731,0 -4.0625,-1.808727 -4.0625,-4.0625 l 0,-36.625 C 1.625,3.4337269 3.4337269,1.625 5.6875,1.625 z" opacity="0.2"/>
  <path transform="translate(0,1004.3622)" d="M 5.6875,1.625 C 3.4337269,1.625 1.625,3.4337269 1.625,5.6875 l 0,36.625 c 0,2.253773 1.8087269,4.0625 4.0625,4.0625 l 36.625,0 c 2.253773,0 4.0625,-1.808727 4.0625,-4.0625 l 0,-36.625 c 0,-2.2537731 -1.808727,-4.0625 -4.0625,-4.0625 l -36.625,0 z m 0.09375,0.125 36.4375,0 c 2.241182,0 4.03125,1.7900679 4.03125,4.03125 l 0,36.4375 c 0,2.241182 -1.790068,4.03125 -4.03125,4.03125 l -36.4375,0 C 3.5400679,46.25 1.75,44.459932 1.75,42.21875 l 0,-36.4375 C 1.75,3.5400679 3.5400679,1.75 5.78125,1.75 z" opacity="0.3"/>
  <path transform="translate(0,1004.3622)" d="M 5.78125,1.75 C 3.5400679,1.75 1.75,3.5400679 1.75,5.78125 l 0,36.4375 c 0,2.241182 1.7900679,4.03125 4.03125,4.03125 l 36.4375,0 c 2.241182,0 4.03125,-1.790068 4.03125,-4.03125 l 0,-36.4375 C 46.25,3.5400679 44.459932,1.75 42.21875,1.75 l -36.4375,0 z m 0.125,0.125 36.1875,0 c 2.228591,0 4.03125,1.802659 4.03125,4.03125 l 0,36.1875 c 0,2.228591 -1.802659,4.03125 -4.03125,4.03125 l -36.1875,0 C 3.677659,46.125 1.875,44.322341 1.875,42.09375 l 0,-36.1875 C 1.875,3.677659 3.677659,1.875 5.90625,1.875 z" opacity="0.4"/>
  <rect width="44.25" height="44.25" x="1.875" y="1006.24" rx="4.02" opacity="0.5"/>
 </g>
 <rect width="12.418" height="12.418" x="0.564" y="0.564" rx="1.129" fill="url(#1)"/>
 <g transform="translate(-14.11111)" fill="#dd4814">
  <path d="m 5.700372,4.3950841 0,-0.7819061 2.096508,0 0,0.7819061 0.5381092,0.00831 0,-0.6494828 c 0,0 0,-0.6494644 -0.6748082,-0.6494644 -0.6543596,0 -1.7994895,0 -1.7994895,0 0,0 -0.674808,0 -0.674808,0.6494644 0,0.6297841 0,0.6494828 0,0.6494828 z"/>
  <path d="m 12,15.59375 c -0.549436,0 -1,0.467726 -1,1.03125 L 11,34 c 0,0.563524 0.450564,1 1,1 l 24,0 c 0.549439,0 1,-0.436476 1,-1 l 0,-17.375 c 0,-0.563524 -0.450561,-1.03125 -1,-1.03125 l -24,0 z M 24,18.5 c 3.866008,0 7,3.133893 7,7 0,3.865809 -3.133993,7 -7,7 -3.866007,0 -7,-3.134141 -7,-7 0,-3.866107 3.133993,-7 7,-7 z m 2.21875,1.96875 c -0.266916,0.03816 -0.511065,0.186052 -0.65625,0.4375 -0.258005,0.44682 -0.10312,1.023291 0.34375,1.28125 0.446969,0.258154 1.023291,0.134322 1.28125,-0.3125 0.258104,-0.447019 0.103269,-1.054395 -0.34375,-1.3125 C 26.732018,20.498 26.620444,20.4837 26.5,20.46875 c -0.09033,-0.01121 -0.192278,-0.01272 -0.28125,0 z M 24,21.4375 c -0.646302,0 -1.270112,0.168823 -1.8125,0.4375 l 0.65625,1.15625 C 23.193275,22.868612 23.589036,22.75 24,22.75 c 1.426201,0 2.596117,1.105654 2.71875,2.5 l 1.34375,0 c -0.06554,-1.029449 -0.527652,-1.976808 -1.21875,-2.65625 -0.355303,0.134242 -0.77024,0.142363 -1.125,-0.0625 -0.355204,-0.205062 -0.563956,-0.562095 -0.625,-0.9375 C 24.748424,21.498183 24.3758,21.4375 24,21.4375 z m -2.25,0.6875 c -0.817879,0.546437 -1.434778,1.396609 -1.6875,2.375 0.295198,0.240621 0.5,0.589233 0.5,1 0,0.410668 -0.204753,0.790678 -0.5,1.03125 0.252673,0.978491 0.869621,1.797361 1.6875,2.34375 l 0.6875,-1.125 c -0.701865,-0.493888 -1.15625,-1.326232 -1.15625,-2.25 0,-0.92362 0.454385,-1.724763 1.15625,-2.21875 L 21.75,22.125 z m -2.5,2.4375 c -0.516262,0 -0.9375,0.421238 -0.9375,0.9375 0,0.516064 0.421238,0.9375 0.9375,0.9375 0.516064,0 0.90625,-0.421436 0.90625,-0.9375 0,-0.51631 -0.390138,-0.9375 -0.90625,-0.9375 z m 7.46875,1.1875 c -0.122534,1.394553 -1.292549,2.5 -2.71875,2.5 -0.411014,0 -0.806678,-0.08736 -1.15625,-0.25 l -0.65625,1.125 c 0.542437,0.268577 1.166198,0.4375 1.8125,0.4375 0.3758,0 0.748373,-0.06068 1.09375,-0.15625 0.06104,-0.375405 0.269748,-0.732291 0.625,-0.9375 0.35476,-0.204766 0.769697,-0.196787 1.125,-0.0625 0.691048,-0.67949 1.15331,-1.595549 1.21875,-2.625 L 26.71875,25.75 z m -0.4375,2.9375 c -0.120441,0.01494 -0.263283,0.0605 -0.375,0.125 -0.447017,0.258059 -0.601709,0.83443 -0.34375,1.28125 0.258105,0.447017 0.834232,0.601805 1.28125,0.34375 0.446871,-0.258008 0.601805,-0.834282 0.34375,-1.28125 -0.193506,-0.335114 -0.544933,-0.513576 -0.90625,-0.46875 z" transform="scale(.28222)"/>
 </g>
 <path d="M 11 18 L 11 36 L 37 36 L 37 18 L 11 18 z M 24 21 C 27.313676 21 30 23.686239 30 27 C 30 30.313509 27.313676 33 24 33 C 20.686321 33 18 30.313552 18 27 C 18 23.686239 20.686321 21 24 21 z M 26.0625 22.65625 C 25.778504 22.64888 25.495829 22.799091 25.34375 23.0625 C 25.122602 23.445485 25.241972 23.935148 25.625 24.15625 C 26.008109 24.377537 26.497648 24.257982 26.71875 23.875 C 26.939983 23.491844 26.820656 23.002494 26.4375 22.78125 C 26.317804 22.712156 26.191583 22.659598 26.0625 22.65625 z M 24 23.53125 C 23.446032 23.53125 22.93365 23.64472 22.46875 23.875 L 23 24.875 C 23.29959 24.735606 23.64776 24.65625 24 24.65625 C 25.222441 24.65625 26.238656 25.586114 26.34375 26.78125 L 27.46875 26.78125 C 27.412574 25.898867 27.029859 25.113621 26.4375 24.53125 C 26.132956 24.646301 25.772837 24.613106 25.46875 24.4375 C 25.164281 24.261734 24.989835 23.978018 24.9375 23.65625 C 24.64151 23.574329 24.322122 23.53125 24 23.53125 z M 22.0625 24.09375 C 21.361467 24.562118 20.841602 25.286388 20.625 26.125 C 20.878024 26.331245 21.03125 26.647937 21.03125 27 C 21.03125 27.351999 20.878063 27.668815 20.625 27.875 C 20.841574 28.713694 21.361467 29.437924 22.0625 29.90625 L 22.65625 28.90625 C 22.05466 28.482924 21.65625 27.791791 21.65625 27 C 21.65625 26.208337 22.05466 25.517165 22.65625 25.09375 L 22.0625 24.09375 z M 19.90625 26.1875 C 19.463748 26.1875 19.125 26.557498 19.125 27 C 19.125 27.442336 19.463748 27.8125 19.90625 27.8125 C 20.348586 27.8125 20.71875 27.442336 20.71875 27 C 20.71875 26.557455 20.348628 26.1875 19.90625 26.1875 z M 26.34375 27.21875 C 26.238723 28.414056 25.222441 29.34375 24 29.34375 C 23.647707 29.34375 23.299622 29.264394 23 29.125 L 22.46875 30.125 C 22.933692 30.355212 23.446032 30.46875 24 30.46875 C 24.322108 30.46875 24.641457 30.425671 24.9375 30.34375 C 24.989824 30.021979 25.164238 29.73839 25.46875 29.5625 C 25.772826 29.387 26.132953 29.353663 26.4375 29.46875 C 27.029817 28.886337 27.412659 28.101133 27.46875 27.21875 L 26.34375 27.21875 z M 26.03125 29.71875 C 25.902174 29.722081 25.744693 29.774656 25.625 29.84375 C 25.241862 30.064937 25.122648 30.554515 25.34375 30.9375 C 25.56498 31.320638 26.054348 31.439923 26.4375 31.21875 C 26.820531 30.997602 26.939923 30.508113 26.71875 30.125 C 26.56671 29.861715 26.315246 29.711309 26.03125 29.71875 z " transform="scale(.28222)" fill="#dd4814"/>
 <g fill="#772953">
  <g transform="matrix(0 .05879 -.07691 0 6.94584 4.62125)">
   <path d="m -12.088306,-9.466013 c -3.138034,2.6e-5 -5.618501,1.0482021 -7.441407,3.1445313 -1.809902,2.0833541 -2.714849,4.9414242 -2.714843,8.5742187 -6e-6,3.7369898 0.872389,6.6276119 2.617187,8.671875 1.757802,2.031254 4.2578,3.046878 7.5,3.046875 1.992169,3e-6 4.2643026,-0.35807 6.8164063,-1.074219 l 0,2.910157 c -1.9791876,0.742187 -4.4205914,1.11328 -7.3242183,1.113281 -4.205741,-10e-7 -7.454436,-1.276041 -9.746094,-3.828125 -2.27865,-2.552078 -3.417971,-6.178376 -3.417969,-10.8789065 -2e-6,-2.94269103 0.546872,-5.5208135 1.640625,-7.734375 1.106766,-2.2135174 2.695306,-3.9192448 4.765625,-5.1171875 2.083322,-1.197888 4.531237,-1.796846 7.34375,-1.796875 2.9947726,2.9e-5 5.6119574,0.546903 7.8515626,1.640625 l -1.40625,2.8515625 C -7.7654102,-8.958175 -9.9268664,-9.465987 -12.088306,-9.466013" id="2"/>
  </g>
  <rect width="7.338" x="3.104" y="3.951" height="1.129"/>
 </g>
 <g fill="#dd4814">
  <g transform="matrix(0 .05879 -.07691 0 6.94584 5.75014)">
   <use xlink:href="#2"/>
  </g>
  <path d="m 3.1044445,3.9511167 0.846667,0.564445 -0.846667,0.564444 z"/>
  <path d="m 10.442223,3.9511167 -0.8466675,0.564445 0.8466675,0.564444 z"/>
 </g>
</svg>
