<svg xmlns="http://www.w3.org/2000/svg" xmlns:xlink="http://www.w3.org/1999/xlink" width="48" viewBox="0 0 13.546667 13.546667" height="48">
 <defs>
  <linearGradient id="0">
   <stop stop-color="#f7931a"/>
   <stop offset="1" stop-color="#e9af4b"/>
  </linearGradient>
  <linearGradient xlink:href="#0" id="1" gradientUnits="userSpaceOnUse" gradientTransform="matrix(1.10525,0,0,1.10525,-134.27874,-295.76183)" y1="279.1" x2="0" y2="268.33"/>
 </defs>
 <rect height="12.982" rx="6.491" y="0.282" x="0.282" width="12.982" opacity="0.5" fill="#ffffff" fill-rule="evenodd"/>
 <rect height="11.853" rx="5.926" y="0.847" x="0.847" width="11.853" fill="url(#1)" fill-rule="evenodd"/>
 <path d="m -5,12 a 9.5,11 0 1 1 -19,0 9.5,11 0 1 1 19,0 z" transform="matrix(0.29707603,0,0,0.25656566,11.081102,3.6947118)" fill="#f9f9f9"/>
 <g transform="translate(1.66065e-4,0.03989037)">
  <path d="m 4.5324409,7.6418998 0.6378812,0 0,-1.8241422 -0.6547664,0.1361017 0,-0.4952594 0.6510142,-0.1361017 0.6866603,0 0,2.3194016 0.6378811,0 0,0.5028207 -1.9586704,0 0,-0.5028207"/>
  <path d="m 8.4902481,6.6252024 c 0.1767738,0.047372 0.3108187,0.1299682 0.4021353,0.2477871 0.092483,0.1166068 0.1387257,0.2654004 0.1387279,0.4463812 -2.2e-6,0.2696512 -0.099512,0.4749256 -0.2985284,0.6158239 C 8.5335622,8.0748786 8.243229,8.1447204 7.8615824,8.1447205 7.726951,8.1447204 7.5917354,8.1331813 7.455935,8.1101032 7.321304,8.0882396 7.1878444,8.0548369 7.0555557,8.0098951 l 0,-0.5411233 c 0.1264352,0.065591 0.2516999,0.1153916 0.3757945,0.149401 0.1252642,0.032795 0.2481875,0.049193 0.3687705,0.049193 0.1791158,5e-7 0.3160875,-0.032187 0.4109155,-0.096565 C 8.3070321,7.5064263 8.3550307,7.4141136 8.3550323,7.2938632 8.3550307,7.1699706 8.3058614,7.0764432 8.2075242,7.0132808 8.1103547,6.9489058 7.9663588,6.9167179 7.7755359,6.9167167 l -0.2704316,0 0,-0.451847 0.2844801,0 c 0.1697503,1.5e-6 0.2961856,-0.027328 0.3793065,-0.081989 0.083118,-0.055871 0.1246782,-0.1402894 0.1246796,-0.253253 -1.4e-6,-0.104457 -0.04039,-0.1852307 -0.1211674,-0.2423211 -0.08078,-0.057086 -0.1949226,-0.08563 -0.3424296,-0.085632 -0.108876,2.3e-6 -0.2189216,0.012756 -0.3301373,0.038261 -0.111217,0.02551 -0.2218481,0.063163 -0.3318934,0.1129618 l 0,-0.5137938 C 7.3014021,5.4002376 7.433691,5.3710856 7.56481,5.3516496 c 0.1311175,-0.019432 0.2598943,-0.029149 0.3863309,-0.029151 0.3406722,2.9e-6 0.595299,0.058305 0.7638815,0.1749087 0.1697494,0.1153935 0.254625,0.2896945 0.2546271,0.5229037 -2.1e-6,0.15912 -0.040391,0.2896941 -0.1211674,0.3917222 C 8.7677011,6.51285 8.6482907,6.5839067 8.4902481,6.625203"/>
 </g>
 <path d="M 41.21875,12 C 40.511713,10.986719 39.745877,9.9958773 38.875,9.125 37.926169,8.1761692 36.86673,7.3157082 35.75,6.5625 34.63327,5.8092918 33.444405,5.1861123 32.1875,4.65625 30.930595,4.1263877 29.619358,3.7162929 28.25,3.4375 26.880642,3.1587071 25.454086,3 24,3 22.545914,3 21.119358,3.1587071 19.75,3.4375 18.380642,3.7162929 17.069405,4.1263877 15.8125,4.65625 14.555595,5.1861123 13.36673,5.8092918 12.25,6.5625 11.13327,7.3157082 10.073831,8.1761692 9.125,9.125 8.2541227,9.9958773 7.4882874,10.986719 6.78125,12 l 34.4375,0 z" transform="scale(0.28222223,0.28222223)" fill="#f9f9f9"/>
 <path d="m 1.9139856,10.16 c 0.1995416,0.28597 0.4156775,0.565608 0.6614583,0.811389 0.2677812,0.267781 0.5667785,0.510622 0.8819445,0.723194 0.315166,0.212572 0.6506902,0.388447 1.0054167,0.537986 0.3547265,0.149539 0.7247868,0.265277 1.11125,0.343958 C 5.9605184,12.655209 6.3631242,12.7 6.7734996,12.7 c 0.4103754,0 0.8129812,-0.04479 1.1994445,-0.123473 0.3864633,-0.07868 0.7565235,-0.194419 1.11125,-0.343958 0.3547266,-0.149539 0.6902507,-0.325414 1.0054169,-0.537986 0.315166,-0.212572 0.614163,-0.455413 0.881944,-0.723194 0.245781,-0.245781 0.461917,-0.525419 0.661459,-0.811389 l -9.7190284,0 z" fill="#f9f9f9"/>
</svg>
