<svg xmlns="http://www.w3.org/2000/svg" xmlns:xlink="http://www.w3.org/1999/xlink" width="48" viewBox="0 0 13.546667 13.546667" height="48">
 <defs>
  <clipPath>
   <rect width="60" x="306" y="142" rx="12.5" height="60" transform="matrix(0 -1 1 0 0 0)" fill="url(#9)" color="#bebebe"/>
  </clipPath>
  <clipPath>
   <path d="m 328,238 c -7.73199,0 -14,6.26801 -14,14 0,7.73199 6.26801,14 14,14 7.73199,0 14,-6.26801 14,-14 0,-7.73199 -6.26801,-14 -14,-14 z m 0,8.75 c 2.89949,0 5.25,2.35051 5.25,5.25 0,2.89949 -2.35051,5.25 -5.25,5.25 -2.89949,0 -5.25,-2.35051 -5.25,-5.25 0,-2.89949 2.35051,-5.25 5.25,-5.25 z m 0,1.75 c -1.933,0 -3.5,1.567 -3.5,3.5 0,1.933 1.567,3.5 3.5,3.5 1.933,0 3.5,-1.567 3.5,-3.5 0,-1.933 -1.567,-3.5 -3.5,-3.5 z m 0,1.75 c 0.96649,0 1.75,0.78351 1.75,1.75 0,0.96649 -0.78351,1.75 -1.75,1.75 -0.96649,0 -1.75,-0.78351 -1.75,-1.75 0,-0.96649 0.78351,-1.75 1.75,-1.75 z"/>
  </clipPath>
  <clipPath>
   <path d="m 328,238 c -7.73199,0 -14,6.26801 -14,14 0,7.73199 6.26801,14 14,14 7.73199,0 14,-6.26801 14,-14 0,-7.73199 -6.26801,-14 -14,-14 z m 0,9.90625 c 2.20914,0 4,1.79086 4,4 0,2.20914 -1.79086,4 -4,4 -2.20914,0 -4,-1.79086 -4,-4 0,-2.20914 1.79086,-4 4,-4 z m 0,1 c -1.65685,0 -3,1.34315 -3,3 0,1.65685 1.34315,3 3,3 1.65685,0 3,-1.34315 3,-3 0,-1.65685 -1.34315,-3 -3,-3 z m 0,1 c 1.10457,0 2,0.89543 2,2 0,1.10457 -0.89543,2 -2,2 -1.10457,0 -2,-0.89543 -2,-2 0,-1.10457 0.89543,-2 2,-2 z"/>
  </clipPath>
  <clipPath>
   <rect width="90" x="307" y="31" rx="18.75" height="90" fill="url(#A)" color="#bebebe"/>
  </clipPath>
  <clipPath>
   <path d="m 328,256 15,11 0,-27 -15,0 z"/>
  </clipPath>
  <clipPath>
   <rect width="42" x="307" y="223" rx="9" height="42" transform="rotate(90)" fill="url(#B)" color="#bebebe"/>
  </clipPath>
  <clipPath>
   <rect width="42" x="307" y="223" rx="9" height="42" transform="rotate(90)" fill="url(#0)" color="#bebebe"/>
  </clipPath>
  <clipPath>
   <rect width="30" x="433" y="29" rx="4" height="30" opacity="0.2" fill="#6d6d6d" color="#bebebe"/>
  </clipPath>
  <clipPath>
   <rect width="60" x="306" y="142" rx="12.5" height="60" transform="matrix(0 -1 1 0 0 0)" fill="url(#1)" color="#bebebe"/>
  </clipPath>
  <clipPath>
   <rect width="22" x="433" y="77" rx="5" height="22" color="#bebebe"/>
  </clipPath>
  <clipPath>
   <rect width="16" x="432" y="116" rx="3" height="16" color="#bebebe"/>
  </clipPath>
  <clipPath>
   <path d="m 328,242.09376 c -7.73199,0 -14,6.26801 -14,14 0,7.73199 6.26801,14 14,14 7.73199,0 14,-6.26801 14,-14 0,-7.73199 -6.26801,-14 -14,-14 z m 0,9.90625 c 2.20914,0 4,1.79086 4,4 0,2.20914 -1.79086,4 -4,4 -2.20914,0 -4,-1.79086 -4,-4 0,-2.20914 1.79086,-4 4,-4 z m 0,1 c -1.65685,0 -3,1.34315 -3,3 0,1.65685 1.34315,3 3,3 1.65685,0 3,-1.34315 3,-3 0,-1.65685 -1.34315,-3 -3,-3 z m 0,1 c 1.10457,0 2,0.89543 2,2 0,1.10457 -0.89543,2 -2,2 -1.10457,0 -2,-0.89543 -2,-2 0,-1.10457 0.89543,-2 2,-2 z"/>
  </clipPath>
  <clipPath>
   <rect width="22" x="433" y="77" rx="3" height="22" opacity="0.2" fill="#6d6d6d" color="#bebebe"/>
  </clipPath>
  <clipPath>
   <rect width="16" x="432" y="116" rx="2" height="16" opacity="0.2" fill="#6d6d6d" color="#bebebe"/>
  </clipPath>
  <clipPath>
   <rect width="240" x="24" y="36" rx="50" height="240" fill="#986767" color="#bebebe"/>
  </clipPath>
  <clipPath>
   <rect width="22" x="433" y="77" rx="4" height="22" color="#bebebe"/>
  </clipPath>
  <clipPath>
   <rect width="30" x="433" y="29" rx="4" height="30" opacity="0.2" fill="#6d6d6d" color="#bebebe"/>
  </clipPath>
  <clipPath>
   <rect width="16" x="432" y="116" rx="2" height="16" opacity="0.2" fill="#6d6d6d" color="#bebebe"/>
  </clipPath>
  <clipPath>
   <path d="m 444,88 c -4.41828,0 -8,3.58172 -8,8 0,4.41828 3.58172,8 8,8 4.41828,0 8,-3.58172 8,-8 0,-4.41828 -3.58172,-8 -8,-8 z m 0,5 c 1.65685,0 3,1.34315 3,3 0,1.65685 -1.34315,3 -3,3 -1.65685,0 -3,-1.34315 -3,-3 0,-1.65685 1.34315,-3 3,-3 z m 0,1 c -1.10457,0 -2,0.89543 -2,2 0,1.10457 0.89543,2 2,2 1.10457,0 2,-0.89543 2,-2 0,-1.10457 -0.89543,-2 -2,-2 z m 0,1 c 0.55228,0 1,0.44772 1,1 0,0.55228 -0.44772,1 -1,1 -0.55228,0 -1,-0.44772 -1,-1 0,-0.55228 0.44772,-1 1,-1 z"/>
  </clipPath>
  <clipPath>
   <rect width="22" x="433" y="77" rx="5" height="22" color="#bebebe"/>
  </clipPath>
  <clipPath>
   <rect width="30" x="433" y="29" rx="6" height="30" color="#bebebe"/>
  </clipPath>
  <clipPath>
   <path d="m 328,242.09375 c -7.73199,0 -14,6.26801 -14,14 0,7.73199 6.26801,14 14,14 7.73199,0 14,-6.26801 14,-14 0,-7.73199 -6.26801,-14 -14,-14 z M 328,252 c 2.20914,0 4,1.79086 4,4 0,2.20914 -1.79086,4 -4,4 -2.20914,0 -4,-1.79086 -4,-4 0,-2.20914 1.79086,-4 4,-4 z m 0,1 c -1.65685,0 -3,1.34315 -3,3 0,1.65685 1.34315,3 3,3 1.65685,0 3,-1.34315 3,-3 0,-1.65685 -1.34315,-3 -3,-3 z m 0,1 c 1.10457,0 2,0.89543 2,2 0,1.10457 -0.89543,2 -2,2 -1.10457,0 -2,-0.89543 -2,-2 0,-1.10457 0.89543,-2 2,-2 z"/>
  </clipPath>
  <clipPath>
   <rect width="240" x="24" y="36" rx="50" height="240" fill="#986767" color="#bebebe"/>
  </clipPath>
  <clipPath>
   <rect width="30" x="433" y="29" rx="6" height="30" color="#bebebe"/>
  </clipPath>
  <clipPath>
   <rect width="22" x="433" y="77" rx="4" height="22" color="#bebebe"/>
  </clipPath>
  <clipPath>
   <path d="m 451.38843,127.3713 c -3.31371,0 -6,2.68629 -6,6 0,3.31371 2.68629,6 6,6 3.31371,0 6,-2.68629 6,-6 0,-3.31371 -2.68629,-6 -6,-6 z m 0,3 c 1.65685,0 3,1.34315 3,3 0,1.65685 -1.34315,3 -3,3 -1.65685,0 -3,-1.34315 -3,-3 0,-1.65685 1.34315,-3 3,-3 z m 0,1 c -1.10457,0 -2,0.89543 -2,2 0,1.10457 0.89543,2 2,2 1.10457,0 2,-0.89543 2,-2 0,-1.10457 -0.89543,-2 -2,-2 z m 0,1 c 0.55228,0 1,0.44772 1,1 0,0.55228 -0.44772,1 -1,1 -0.55228,0 -1,-0.44772 -1,-1 0,-0.55228 0.44772,-1 1,-1 z"/>
  </clipPath>
  <clipPath>
   <path d="m 144.00001,75.999997 c -44.1828,0 -80,35.817203 -80,80.000003 0,44.1828 35.8172,80 80,80 44.1828,0 80,-35.8172 80,-80 0,-44.1828 -35.8172,-80.000003 -80,-80.000003 z m 0,56.607143 c 12.62366,0 22.85714,10.23349 22.85714,22.85714 0,12.62366 -10.23348,22.85714 -22.85714,22.85714 -12.62366,0 -22.85714,-10.23348 -22.85714,-22.85714 0,-12.62365 10.23348,-22.85714 22.85714,-22.85714 z m 0,5.71429 c -9.46771,0 -17.14286,7.67514 -17.14286,17.14285 0,9.46772 7.67515,17.14286 17.14286,17.14286 9.46771,0 17.14286,-7.67514 17.14286,-17.14286 0,-9.46771 -7.67515,-17.14285 -17.14286,-17.14285 z m 0,5.71428 c 6.31183,0 11.42857,5.11674 11.42857,11.42857 0,6.31183 -5.11674,11.42857 -11.42857,11.42857 -6.31183,0 -11.42857,-5.11674 -11.42857,-11.42857 0,-6.31183 5.11674,-11.42857 11.42857,-11.42857 z"/>
  </clipPath>
  <clipPath>
   <rect width="20" x="434" y="78" rx="4" height="20" color="#bebebe"/>
  </clipPath>
  <clipPath>
   <rect width="16" x="432" y="116" rx="3" height="16" color="#bebebe"/>
  </clipPath>
  <clipPath>
   <path d="m 451.38843,133.3713 6.42857,4.71429 0,-11.57143 -6.42857,0 z"/>
  </clipPath>
  <clipPath>
   <rect width="20" x="434" y="78" rx="4" height="20" color="#bebebe"/>
  </clipPath>
  <clipPath>
   <path d="m 440,126 c -3.31371,0 -6,2.68629 -6,6 0,3.31371 2.68629,6 6,6 3.31371,0 6,-2.68629 6,-6 0,-3.31371 -2.68629,-6 -6,-6 z m 0,3 c 1.65685,0 3,1.34315 3,3 0,1.65685 -1.34315,3 -3,3 -1.65685,0 -3,-1.34315 -3,-3 0,-1.65685 1.34315,-3 3,-3 z m 0,1 c -1.10457,0 -2,0.89543 -2,2 0,1.10457 0.89543,2 2,2 1.10457,0 2,-0.89543 2,-2 0,-1.10457 -0.89543,-2 -2,-2 z m 0,1 c 0.55228,0 1,0.44772 1,1 0,0.55228 -0.44772,1 -1,1 -0.55228,0 -1,-0.44772 -1,-1 0,-0.55228 0.44772,-1 1,-1 z"/>
  </clipPath>
  <clipPath>
   <rect width="16" x="432" y="116" rx="2" height="16" opacity="0.2" fill="#6d6d6d" color="#bebebe"/>
  </clipPath>
  <clipPath>
   <rect width="90" x="307" y="31" rx="18.75" height="90" fill="url(#6)" color="#bebebe"/>
  </clipPath>
  <clipPath>
   <rect width="22" x="433" y="77" rx="3" height="22" opacity="0.2" fill="#6d6d6d" color="#bebebe"/>
  </clipPath>
  <clipPath>
   <rect width="20" x="434" y="78" rx="4" height="20" color="#bebebe"/>
  </clipPath>
  <clipPath>
   <rect width="240" x="24" y="36" rx="50" height="240" fill="#986767" color="#bebebe"/>
  </clipPath>
  <clipPath>
   <rect width="90" x="307" y="31" rx="18.75" height="90" fill="url(#3)" color="#bebebe"/>
  </clipPath>
  <clipPath>
   <rect width="22" x="433" y="77" rx="4" height="22" color="#bebebe"/>
  </clipPath>
  <clipPath>
   <rect width="30" x="433" y="29" rx="6" height="30" color="#bebebe"/>
  </clipPath>
  <clipPath>
   <rect width="22" x="433" y="77" rx="5" height="22" color="#bebebe"/>
  </clipPath>
  <clipPath>
   <rect width="16" x="432" y="116" rx="3" height="16" color="#bebebe"/>
  </clipPath>
  <clipPath>
   <rect width="22" x="433" y="77" rx="3" height="22" opacity="0.2" fill="#6d6d6d" color="#bebebe"/>
  </clipPath>
  <clipPath>
   <rect width="30" x="433" y="29" rx="4" height="30" opacity="0.2" fill="#6d6d6d" color="#bebebe"/>
  </clipPath>
  <clipPath>
   <rect width="60" x="306" y="142" rx="12.5" height="60" transform="matrix(0 -1 1 0 0 0)" fill="url(#8)" color="#bebebe"/>
  </clipPath>
  <clipPath>
   <rect width="42" x="307" y="223" rx="9" height="42" transform="rotate(90)" fill="url(#7)" color="#bebebe"/>
  </clipPath>
  <linearGradient gradientTransform="matrix(.175 0 0 .175 302.79999 215.99997)" id="0" xlink:href="#2" y1="280" y2="40" x2="0" gradientUnits="userSpaceOnUse"/>
  <linearGradient gradientTransform="matrix(.25 0 0 .25 299.99999 131.99999)" id="1" xlink:href="#2" y1="230" y2="90" x2="0" gradientUnits="userSpaceOnUse"/>
  <linearGradient id="2">
   <stop stop-color="#f0f0f0"/>
   <stop offset="1" stop-color="#f8f8f8"/>
  </linearGradient>
  <linearGradient gradientTransform="translate(11.38843 1.3713)" xlink:href="#5" y1="140" y2="124" x2="0" gradientUnits="userSpaceOnUse"/>
  <linearGradient gradientTransform="translate(0 4.09376)" xlink:href="#5" y1="273" y2="231" x2="0" gradientUnits="userSpaceOnUse"/>
  <linearGradient gradientTransform="matrix(5.71429 0 0 5.71429 -1730.2857 -1284)" xlink:href="#5" y1="273" y2="231" gradientUnits="userSpaceOnUse" x2="0"/>
  <linearGradient gradientTransform="matrix(5.71429 0 0 5.71429 -1730.2857 -1284)" xlink:href="#5" y1="273" y2="231" x2="0" gradientUnits="userSpaceOnUse"/>
  <linearGradient gradientTransform="matrix(.375 0 0 .375 298 16)" xlink:href="#2" id="3" y1="230" y2="90" gradientUnits="userSpaceOnUse" x2="0"/>
  <linearGradient id="4">
   <stop stop-color="#eaba31"/>
   <stop offset="1" stop-color="#ff9200"/>
  </linearGradient>
  <linearGradient id="5">
   <stop stop-color="#818181"/>
   <stop offset="1" stop-color="#c5c5c5"/>
  </linearGradient>
  <linearGradient xlink:href="#5" y1="140" y2="124" gradientUnits="userSpaceOnUse" x2="0"/>
  <linearGradient xlink:href="#5" y1="107" y2="85" gradientUnits="userSpaceOnUse" x2="0"/>
  <linearGradient xlink:href="#5" y1="107" y2="85" gradientUnits="userSpaceOnUse" x2="0"/>
  <linearGradient gradientTransform="matrix(.375 0 0 .375 298 16)" id="6" xlink:href="#2" y1="230" y2="90" x2="0" gradientUnits="userSpaceOnUse"/>
  <linearGradient gradientTransform="matrix(.175 0 0 .175 302.79999 215.99997)" xlink:href="#2" id="7" y1="280" y2="40" gradientUnits="userSpaceOnUse" x2="0"/>
  <linearGradient xlink:href="#5" y1="140" y2="124" gradientUnits="userSpaceOnUse" x2="0"/>
  <linearGradient gradientTransform="translate(11.38843 1.3713)" xlink:href="#5" y1="140" y2="124" gradientUnits="userSpaceOnUse" x2="0"/>
  <linearGradient gradientTransform="translate(0 4.09376)" xlink:href="#5" y1="273" y2="231" gradientUnits="userSpaceOnUse" x2="0"/>
  <linearGradient xlink:href="#5" y1="140" y2="124" gradientUnits="userSpaceOnUse" x2="0"/>
  <linearGradient gradientTransform="translate(11.38843 1.3713)" xlink:href="#5" y1="140" y2="124" x2="0" gradientUnits="userSpaceOnUse"/>
  <linearGradient gradientTransform="translate(0 4.09376)" xlink:href="#5" y1="273" y2="231" x2="0" gradientUnits="userSpaceOnUse"/>
  <linearGradient gradientTransform="matrix(5.71429 0 0 5.71429 -1730.2857 -1284)" xlink:href="#5" y1="273" y2="231" x2="0" gradientUnits="userSpaceOnUse"/>
  <linearGradient gradientTransform="matrix(.25 0 0 .25 299.99999 131.99999)" xlink:href="#2" id="8" y1="230" y2="90" gradientUnits="userSpaceOnUse" x2="0"/>
  <linearGradient gradientTransform="matrix(.25 0 0 .25 299.99999 131.99999)" id="9" xlink:href="#2" y1="230" y2="90" x2="0" gradientUnits="userSpaceOnUse"/>
  <linearGradient gradientTransform="matrix(.375 0 0 .375 298 16)" id="A" xlink:href="#2" y1="230" y2="90" x2="0" gradientUnits="userSpaceOnUse"/>
  <linearGradient gradientTransform="matrix(.175 0 0 .175 302.79999 215.99997)" id="B" xlink:href="#2" y1="280" y2="40" x2="0" gradientUnits="userSpaceOnUse"/>
  <linearGradient xlink:href="#5" y1="107" y2="85" gradientUnits="userSpaceOnUse" x2="0"/>
  <radialGradient cx="328" cy="255.42" gradientTransform="matrix(2.85714 0 0 2.85714 -609.14349 -473.66662)" xlink:href="#4" r="7" gradientUnits="userSpaceOnUse"/>
  <radialGradient cx="328" cy="255.42" gradientTransform="matrix(1.22449 0 0 1.22449 49.7555 -179.34296)" xlink:href="#4" r="7" gradientUnits="userSpaceOnUse"/>
  <radialGradient cx="328" cy="255.42" gradientTransform="matrix(2.85714 0 0 2.85714 -609.14349 -473.66662)" xlink:href="#4" r="7" gradientUnits="userSpaceOnUse"/>
  <radialGradient cx="328" cy="255.42" gradientTransform="matrix(2.85714 0 0 2.85714 -609.14349 -473.66662)" xlink:href="#4" r="7" gradientUnits="userSpaceOnUse"/>
  <radialGradient cx="328" cy="255.42" gradientTransform="matrix(1.22449 0 0 1.22449 49.7555 -179.34296)" xlink:href="#4" r="7" gradientUnits="userSpaceOnUse"/>
  <radialGradient cx="328" cy="255.42" gradientTransform="matrix(1.22449 0 0 1.22449 49.7555 -179.34296)" xlink:href="#4" r="7" gradientUnits="userSpaceOnUse"/>
  <linearGradient xlink:href="#D" id="C" gradientUnits="userSpaceOnUse" gradientTransform="translate(-13.53783,-0.01017)" x1="0.838" x2="12.691"/>
  <linearGradient id="D">
   <stop stop-color="#2a2a2a"/>
   <stop offset="1" stop-color="#3e3e3e"/>
  </linearGradient>
 </defs>
 <rect height="12.982" rx="6.491" y="0.282" x="0.282" width="12.982" opacity="0.5" fill="#ffffff" color="#bebebe" stroke-width="0.184"/>
 <rect transform="matrix(0,-1,1,0,0,0)" height="11.853" rx="5.926" y="0.847" x="-12.7" width="11.853" fill="url(#C)" color="#bebebe" stroke-width="0.184"/>
 <path d="m 13,12 c -0.333333,0 -1,0.564283 -1,1 l 0,13 c 0,0.463662 0.330345,0.995378 1,1 l 2.03125,0 0,1.53125 0.380117,1.46875 1.403417,1.281798 1.494061,1.404971 1.23273,0.166301 1.53125,0 -0.04158,-1.00932 c 1.64e-4,0.449473 0.0011,0.891489 0.03125,1 0.123821,0.445753 0.654796,0.996665 1.09375,1.125 0.09885,0.02888 2.756021,0.03657 6.4375,0.03125 l 6.28125,0 0.21875,-0.125 c 0.293799,-0.156855 -1.375612,1.512511 -1.21875,1.21875 L 34,34.875 34,28.5 34,22.15625 33.875,21.9375 c -0.156876,-0.29376 1.512547,1.375605 1.21875,1.21875 l -0.21875,-0.125 -3.9375,0 L 27.03125,23 27,13 c 0,-0.387826 -0.06284,-1 -1,-1 z m 4.775859,15 1.755391,0 1.5,0 0,1.5 L 21,30.255391 l -1.5,0 L 17.775859,30 l 0,-1.5 z" transform="scale(0.28222223,0.28222223)" fill="#f1efe5"/>
 <path d="M 4.3069763,6.6427495 C 4.2501679,6.5772289 4.2029534,6.5191103 4.2020552,6.513597 4.201157,6.5080838 4.2548752,6.4812554 4.3214288,6.4539782 4.5811959,6.3475123 4.8360746,6.1971919 5.1373559,5.9727668 5.2079673,5.9201681 5.2659773,5.8698121 5.2662668,5.8608644 5.2665557,5.8519168 5.2490409,5.8280967 5.2273435,5.8079309 5.1508706,5.7368559 4.9577672,5.4975674 4.8772559,5.3741116 4.7988159,5.2538319 4.6768858,5.0132851 4.6768858,4.9788163 c 0,-0.011314 0.064442,-0.016671 0.2004173,-0.01666 l 0.2004172,1.51e-5 0.052636,0.1170521 c 0.063365,0.1409101 0.1938212,0.3412647 0.3028939,0.4651832 0.043929,0.049909 0.084981,0.09277 0.091225,0.095246 0.013355,0.0053 0.1571299,-0.1549366 0.251169,-0.2799211 0.1453475,-0.1931759 0.277692,-0.5243695 0.277692,-0.6949263 l 0,-0.1492496 -1.8200028,-4e-7 0,-0.2822265 0.4889298,0.00286 0.6399592,-0.00286 0,-0.2822237 0.2822222,0 0,0.2822283 1.1288889,0.00286 0,0.1814862 0,0.097879 -0.3548006,0 -0.00985,0.1705694 C 6.3693969,5.0330241 6.1565786,5.4258203 5.8159435,5.780144 l -0.066693,0.069374 0.06507,0.053002 c 0.035788,0.029151 0.1042076,0.078864 0.152043,0.110473 0.047836,0.031609 0.086974,0.060365 0.086974,0.063901 0,0.00354 -0.016883,0.028562 -0.037518,0.055612 -0.042382,0.055559 -0.083489,0.1615975 -0.083489,0.2153688 0,0.019749 -0.00412,0.035908 -0.00916,0.035908 -0.00504,0 -0.087453,-0.05955 -0.1831402,-0.1323337 C 5.6443389,6.1786647 5.5531698,6.1097772 5.537428,6.0983651 5.5043578,6.0743904 5.5309537,6.0587259 5.27784,6.2512583 5.1822921,6.3239373 5.0270532,6.431239 4.9328645,6.4897066 4.7656136,6.5935276 4.4507238,6.7618781 4.4237836,6.7618781 c -0.00744,0 -0.059999,-0.053608 -0.1168073,-0.1191286 z" fill="#565652"/>
 <path d="m 5.8728785,6.352178 -0.036762,-0.030598 0.069956,-0.069947 0.069956,-0.069947 -0.021185,0.059457 c -0.011652,0.032701 -0.021484,0.078173 -0.021849,0.1010477 -7.866e-4,0.049227 -0.010941,0.050914 -0.060115,0.00999 z" fill="#54534f"/>
 <path d="M 6.208889,10.16 C 6.0850064,10.123781 5.9616118,10.003579 5.9266668,9.877778 5.91816,9.8471539 5.9324604,9.6752988 5.9324141,9.5484475 l -8.44e-5,-0.2306387 -0.4198413,0 -0.4198413,0 -0.4272052,-0.4273466 -0.4272052,-0.4273465 0,-0.4195891 0,-0.419589 -0.1550007,0 -0.1550008,0 0.3667624,-0.3667143 0.3667624,-0.3667145 0.3667623,0.3667145 0.3667625,0.3667143 -0.1550008,0 -0.1550008,0 0,0.4234678 0,0.4234678 0.4235233,0 0.4178603,0 0,-2.0868307 0,-0.1751535 c 0,-0.1915576 0.096802,-0.2822222 0.2822222,-0.2822222 l 3.668889,4e-7 c 0.178209,0 0.282222,0.1333823 0.282222,0.2822222 l 0,3.668889 C 10.16,10.013723 10.037852,10.16 9.877778,10.16 z m 1.3405556,-1.6933331 0.9877778,0 0.2116667,0.5644445 0.2822222,0 -0.8466667,-2.2577779 -0.2822222,0 -0.8466667,2.2577779 0.2822223,-3e-7 z m 0.070556,-0.2822222 0.434073,-1.1288889 0.4125937,1.1288889 z" fill="#367ff3"/>
</svg>
