<svg width="48" xmlns="http://www.w3.org/2000/svg" viewBox="0 0 13.546667 13.546667" height="48" xmlns:xlink="http://www.w3.org/1999/xlink">
<defs>
<clipPath clipPathUnits="userSpaceOnUse">
<rect width="96" x="-100" y="-0" height="96" style="fill:#fff"/>
</clipPath>
<clipPath clipPathUnits="userSpaceOnUse">
<rect width="20" x="1" y="1" rx="2" height="20" style="fill:#fff;fill-rule:evenodd"/>
</clipPath>
<clipPath clipPathUnits="userSpaceOnUse">
<path d="M 95.311,352.545 L 476.403,352.545 L 476.403,71.4229 L 95.311,71.4229 L 95.311,352.545 z"/>
</clipPath>
<clipPath clipPathUnits="userSpaceOnUse">
<path d="M 92.311,355.545 L 479.511,355.545 L 479.511,68.1846 L 92.311,68.1846 L 92.311,355.545 z"/>
</clipPath>
<clipPath clipPathUnits="userSpaceOnUse">
<path d="M 93.311,69.185 L 478.511,69.185 L 478.511,354.545 L 93.311,354.545 L 93.311,69.185 z"/>
</clipPath>
<clipPath clipPathUnits="userSpaceOnUse">
<rect width="84" x="6" y="6" rx="6" height="84" style="fill:#fff"/>
</clipPath>
<clipPath clipPathUnits="userSpaceOnUse">
<path d="M 54.1,12.5 12.9,54.7 C -2.7,70.3 23,69 32.3,74.9 36.6,77.7 18.5,81.3 22.2,85 c 3.6,3.7 21.7,7.1 25.3,10.7 3.6,3.7 -7.3,7.6 -3.7,11.3 3.5,3.7 11.9,0.2 13.4,8.6 1.1,6.2 15.4,3.1 21.8,-2.2 4,-3.4 -6.9,-3.4 -3.3,-7.1 9,-9.1 17,-4.1 20.3,-12.5 1.8,-4.5 -13.6,-7.7 -9.5,-10.6 9.8,-6.9 45.8,-10.4 29.2,-27 L 73,12.5 c -5.3,-5 -14,-5 -18.9,0 z m -9.9,64.7 c 0.9,0 30.8,4 19.3,7.1 -4.4,1.2 -24.6,-7.1 -19.3,-7.1 z m 57.2,16.6 c 0,2.1 16.3,3.3 15.4,-0.5 -1.3,-6.4 -13.6,-5.9 -15.4,0.5 z m -69.5,11.1 c 3.7,3.2 9.3,-0.7 11.1,-5.2 -3.6,-4.7 -16.9,0.3 -11.1,5.2 z m 67.5,-6.7 c -4.6,4.2 0.8,8.6 5.3,5.7 1.2,-0.8 -0.1,-4.7 -5.3,-5.7 z"/>
</clipPath>
<clipPath clipPathUnits="userSpaceOnUse">
<path d="M 93.311,354.545 L 478.511,354.545 L 478.511,69.1846 L 93.311,69.1846 L 93.311,354.545 z"/>
</clipPath>
<linearGradient id="linearGradient3801">
<stop offset="0" style="stop-color:#dedede"/>
<stop offset=".5" style="stop-color:#f9f9f9"/>
<stop offset="1" style="stop-color:#dedede"/>
</linearGradient>
<linearGradient id="linearGradient3904">
<stop offset="0" style="stop-color:#ffb00a"/>
<stop offset="1" style="stop-color:#ff8e02"/>
</linearGradient>
<linearGradient xlink:href="#linearGradient3801" id="linearGradient3807" x1="7.781" x2="43.438" gradientUnits="userSpaceOnUse"/>
<linearGradient gradientTransform="matrix(1.00917 0 0 1.00917 -.06192 -.06293)" xlink:href="#linearGradient3904" id="linearGradient2992" y1="2.579" y2="11.249" x1="10.968" gradientUnits="userSpaceOnUse" x2="2.858"/>
</defs>
<g style="fill-rule:evenodd">
<rect width="12.982" x=".282" y=".282" rx="6.491" height="12.982" style="opacity:.5;fill:#fff"/>
<rect width="11.853" x=".847" y=".847" rx="5.926" height="11.853" style="fill:url(#linearGradient2992)"/>
<path style="fill:url(#linearGradient3807)" d="M 25,3.02 C 18.36231,2.5155467 10.915244,6.0546207 7.78125,10.62 11.698258,25.53529 19.267007,36.868348 30.03125,44.125 37.564154,42.072639 43.29837,36.218132 44.609752,28 35.546574,20.080878 30.171391,13.745816 25,3.02 z" transform="scale(.28222)"/>
</g>
<path style="fill:#2d2d2d" d="m 6.208889,4.7977778 0,3.668889 2.8222223,-1.8344445 z"/>
</svg>
