<svg xmlns="http://www.w3.org/2000/svg" viewBox="0 0 48 48">
 <defs>
  <linearGradient id="linearGradient4847" y1="47" x2="0" y2="1" gradientUnits="userSpaceOnUse">
   <stop style="stop-color:#f3d011;stop-opacity:1"/>
   <stop offset="1" style="stop-color:#f4d424;stop-opacity:1"/>
  </linearGradient>
 </defs>
 <path d="m 24 1 c 12.702 0 22.998 10.296 22.998 22.998 0 12.702 -10.296 22.998 -22.998 22.998 -12.702 0 -22.998 -10.296 -22.998 -22.998 0 -12.702 10.296 -22.998 22.998 -22.998" style="fill:url(#linearGradient4847);fill-opacity:1"/>
 <g>
  <path d="m 36.31 5 c 5.859 4.062 9.688 10.831 9.688 18.5 c 0 12.426 -10.07 22.5 -22.5 22.5 c -7.669 0 -14.438 -3.828 -18.5 -9.688 c 1.037 1.822 2.306 3.499 3.781 4.969 c 4.085 3.712 9.514 5.969 15.469 5.969 c 12.703 0 23 -10.298 23 -23 c 0 -5.954 -2.256 -11.384 -5.969 -15.469 c -1.469 -1.475 -3.147 -2.744 -4.969 -3.781 z m 4.969 3.781 c 3.854 4.113 6.219 9.637 6.219 15.719 c 0 12.703 -10.297 23 -23 23 c -6.081 0 -11.606 -2.364 -15.719 -6.219 c 4.16 4.144 9.883 6.719 16.219 6.719 c 12.703 0 23 -10.298 23 -23 c 0 -6.335 -2.575 -12.06 -6.719 -16.219 z" style="opacity:0.05"/>
  <path d="m 41.28 8.781 c 3.712 4.085 5.969 9.514 5.969 15.469 c 0 12.703 -10.297 23 -23 23 c -5.954 0 -11.384 -2.256 -15.469 -5.969 c 4.113 3.854 9.637 6.219 15.719 6.219 c 12.703 0 23 -10.298 23 -23 c 0 -6.081 -2.364 -11.606 -6.219 -15.719 z" style="opacity:0.1"/>
  <path d="m 31.25 2.375 c 8.615 3.154 14.75 11.417 14.75 21.13 c 0 12.426 -10.07 22.5 -22.5 22.5 c -9.708 0 -17.971 -6.135 -21.12 -14.75 a 23 23 0 0 0 44.875 -7 a 23 23 0 0 0 -16 -21.875 z" style="opacity:0.2"/>
 </g>
 <path d="m 24.652 2 c -4.429 0.063 -8.886 1.405 -12.795 4.127 -10.423 7.259 -12.988 21.591 -5.729 32.01 0.637 0.915 1.332 1.766 2.07 2.559 4.121 3.9 9.679 6.297 15.801 6.297 12.702 0 22.998 -10.296 22.998 -22.998 c 0 -6.096 -2.376 -11.633 -6.246 -15.748 -4.418 -4.164 -10.23 -6.333 -16.1 -6.25 z m 0.045 3 c 6.419 -0.091 12.768 2.904 16.713 8.568 4.244 6.094 4.61 13.719 1.65 19.984 c -1.596 -2.48 -14.373 -22.317 -17.06 -25.555 c -0.952 -1.147 -3.373 -1.493 -5 -1 -1.354 0.41 -2.654 1.55 -3 3 -1.022 4.278 -3.874 30.829 -3.969 31.711 c -2.075 -1.361 -3.936 -3.12 -5.441 -5.281 -6.312 -9.06 -4.083 -21.528 4.98 -27.84 3.399 -2.367 7.276 -3.533 11.127 -3.588 m -2.219 4.938 c 1.049 0.038 1.646 1.311 2.521 3.061 4.22 8.441 12.551 23.548 14.04 26.24 -0.795 0.782 -1.661 1.511 -2.607 2.17 -4.971 3.462 -10.962 4.339 -16.402 2.943 0.052 -1.099 0.973 -20.593 0.973 -30.354 0 -2 -0.325 -3.633 1 -4 0.17 -0.047 0.329 -0.066 0.479 -0.061 z" style="fill:#000;fill-opacity:0.098;stroke:none"/>
 <path d="m 43 34 c 0 0 -15.14 -23.559 -18 -27 -0.952 -1.147 -3.373 -1.493 -5 -1 -1.354 0.41 -2.654 1.55 -3 3 -1.039 4.35 -4 32 -4 32 l 6 3 c 0 0 1 -20.963 1 -31 0 -2 -0.324 -3.633 1 -4 1.363 -0.378 2 1 3 3 4.604 9.209 15 28 15 28" style="fill:#2a68da;fill-opacity:1;stroke:none"/>
 <path d="m 10.857 5.128 c -10.423 7.259 -12.988 21.592 -5.728 32.02 7.259 10.423 21.592 12.988 32.02 5.728 10.423 -7.259 12.988 -21.592 5.728 -32.02 -7.259 -10.423 -21.592 -12.988 -32.02 -5.728 m 1.714 2.462 c 9.06 -6.312 21.527 -4.082 27.839 4.981 6.312 9.06 4.082 21.527 -4.981 27.839 c -9.06 6.312 -21.527 4.082 -27.839 -4.981 -6.312 -9.06 -4.082 -21.527 4.981 -27.839" style="fill:#2a68da;fill-opacity:1"/>
 <g>
  <path d="m 40.03 7.531 c 3.712 4.084 5.969 9.514 5.969 15.469 0 12.703 -10.297 23 -23 23 c -5.954 0 -11.384 -2.256 -15.469 -5.969 4.178 4.291 10.01 6.969 16.469 6.969 c 12.703 0 23 -10.298 23 -23 0 -6.462 -2.677 -12.291 -6.969 -16.469 z" style="opacity:0.1"/>
 </g>
</svg>
