<?xml version="1.0" encoding="UTF-8" standalone="no"?>
<svg
   xmlns:dc="http://purl.org/dc/elements/1.1/"
   xmlns:cc="http://creativecommons.org/ns#"
   xmlns:rdf="http://www.w3.org/1999/02/22-rdf-syntax-ns#"
   xmlns:svg="http://www.w3.org/2000/svg"
   xmlns="http://www.w3.org/2000/svg"
   xmlns:xlink="http://www.w3.org/1999/xlink"
   xmlns:sodipodi="http://sodipodi.sourceforge.net/DTD/sodipodi-0.dtd"
   xmlns:inkscape="http://www.inkscape.org/namespaces/inkscape"
   width="48"
   viewBox="0 0 13.546667 13.546667"
   height="48"
   id="svg2"
   version="1.1"
   inkscape:version="0.48.4 r9939"
   sodipodi:docname="Acetino2.svg"
   inkscape:export-filename="/home/nathanel/GitHub/Acetino2.png"
   inkscape:export-xdpi="391.31"
   inkscape:export-ydpi="391.31">
  <metadata
     id="metadata30">
    <rdf:RDF>
      <cc:Work
         rdf:about="">
        <dc:format>image/svg+xml</dc:format>
        <dc:type
           rdf:resource="http://purl.org/dc/dcmitype/StillImage" />
        <dc:title />
      </cc:Work>
    </rdf:RDF>
  </metadata>
  <sodipodi:namedview
     pagecolor="#ffffff"
     bordercolor="#666666"
     borderopacity="1"
     objecttolerance="10"
     gridtolerance="10"
     guidetolerance="10"
     inkscape:pageopacity="0"
     inkscape:pageshadow="2"
     inkscape:window-width="1280"
     inkscape:window-height="998"
     id="namedview28"
     showgrid="true"
     inkscape:object-paths="true"
     inkscape:snap-intersection-paths="true"
     inkscape:object-nodes="true"
     inkscape:snap-smooth-nodes="true"
     inkscape:snap-midpoints="true"
     inkscape:snap-object-midpoints="true"
     inkscape:snap-center="true"
     inkscape:zoom="9.6740785"
     inkscape:cx="41.152327"
     inkscape:cy="3.8977959"
     inkscape:window-x="0"
     inkscape:window-y="0"
     inkscape:window-maximized="1"
     inkscape:current-layer="svg2">
    <inkscape:grid
       type="xygrid"
       id="grid3007" />
  </sodipodi:namedview>
  <defs
     id="defs4">
    <linearGradient
       id="linearGradient3844">
      <stop
         offset="0"
         style="stop-color:#bebebe"
         id="stop7" />
      <stop
         offset="1"
         style="stop-color:#8a8a8a"
         id="stop9" />
    </linearGradient>
    <linearGradient
       xlink:href="#linearGradient3844"
       id="linearGradient3850"
       y1="6.773"
       y2="12.7"
       x2="0"
       gradientUnits="userSpaceOnUse" />
    <linearGradient
       y2="1006.36"
       x2="0"
       y1="1050.36"
       gradientTransform="translate(2.7659509e-6,-1.515752e-4)"
       gradientUnits="userSpaceOnUse"
       id="1"
       xlink:href="#0" />
    <linearGradient
       id="0">
      <stop
         stop-color="#cd9a66"
         id="stop7-3" />
      <stop
         offset="1"
         stop-color="#dcb894"
         id="stop9-3" />
    </linearGradient>
    <clipPath
       id="2">
      <rect
         style="fill:url(#3)"
         width="44"
         height="61.619999"
         x="35"
         y="999.75"
         rx="4"
         ry="5.6020002"
         id="rect13" />
    </clipPath>
    <linearGradient
       inkscape:collect="always"
       xlink:href="#linearGradient3844"
       id="linearGradient3041"
       gradientUnits="userSpaceOnUse"
       y1="6.773"
       x2="0"
       y2="12.7" />
    <linearGradient
       inkscape:collect="always"
       xlink:href="#linearGradient3844"
       id="linearGradient3049"
       gradientUnits="userSpaceOnUse"
       gradientTransform="matrix(0.28222223,0,0,0.28222223,-13.546666,-296.99879)"
       y1="1050.36"
       x2="0"
       y2="1006.36" />
  </defs>
  <g
     id="g18"
     transform="matrix(0.28222223,0,0,0.28222223,0,-283.45334)">
    <path
       id="path20"
       d="M 5.1875,1 C 2.8707723,1 1,2.8707723 1,5.1875 l 0,37.625 C 1,45.129228 2.8707723,47 5.1875,47 l 37.625,0 C 45.129228,47 47,45.129228 47,42.8125 L 47,5.1875 C 47,2.8707723 45.129228,1 42.8125,1 L 5.1875,1 z m 0.1875,0.25 37.25,0 c 2.291546,0 4.125,1.8334541 4.125,4.125 l 0,37.25 c 0,2.291546 -1.833454,4.125 -4.125,4.125 l -37.25,0 C 3.0834541,46.75 1.25,44.916546 1.25,42.625 l 0,-37.25 C 1.25,3.0834541 3.0834541,1.25 5.375,1.25 z"
       transform="translate(0,1004.3622)"
       inkscape:connector-curvature="0"
       style="opacity:0.05" />
    <path
       id="path22"
       d="M 5.375,1.25 C 3.0834541,1.25 1.25,3.0834541 1.25,5.375 l 0,37.25 c 0,2.291546 1.8334541,4.125 4.125,4.125 l 37.25,0 c 2.291546,0 4.125,-1.833454 4.125,-4.125 l 0,-37.25 C 46.75,3.0834541 44.916546,1.25 42.625,1.25 l -37.25,0 z m 0.21875,0.25 36.8125,0 C 44.672614,1.5 46.5,3.3273859 46.5,5.59375 l 0,36.8125 C 46.5,44.672614 44.672614,46.5 42.40625,46.5 l -36.8125,0 C 3.3273859,46.5 1.5,44.672614 1.5,42.40625 l 0,-36.8125 C 1.5,3.3273859 3.3273859,1.5 5.59375,1.5 z"
       transform="translate(0,1004.3622)"
       inkscape:connector-curvature="0"
       style="opacity:0.1" />
    <path
       id="path24"
       d="M 5.59375,1.5 C 3.3273859,1.5 1.5,3.3273859 1.5,5.59375 l 0,36.8125 C 1.5,44.672614 3.3273859,46.5 5.59375,46.5 l 36.8125,0 C 44.672614,46.5 46.5,44.672614 46.5,42.40625 l 0,-36.8125 C 46.5,3.3273859 44.672614,1.5 42.40625,1.5 l -36.8125,0 z m 0.09375,0.125 36.625,0 c 2.253773,0 4.0625,1.8087269 4.0625,4.0625 l 0,36.625 c 0,2.253773 -1.808727,4.0625 -4.0625,4.0625 l -36.625,0 c -2.2537731,0 -4.0625,-1.808727 -4.0625,-4.0625 l 0,-36.625 C 1.625,3.4337269 3.4337269,1.625 5.6875,1.625 z"
       transform="translate(0,1004.3622)"
       inkscape:connector-curvature="0"
       style="opacity:0.2" />
    <path
       id="path26"
       d="M 5.6875,1.625 C 3.4337269,1.625 1.625,3.4337269 1.625,5.6875 l 0,36.625 c 0,2.253773 1.8087269,4.0625 4.0625,4.0625 l 36.625,0 c 2.253773,0 4.0625,-1.808727 4.0625,-4.0625 l 0,-36.625 c 0,-2.2537731 -1.808727,-4.0625 -4.0625,-4.0625 l -36.625,0 z m 0.09375,0.125 36.4375,0 c 2.241182,0 4.03125,1.7900679 4.03125,4.03125 l 0,36.4375 c 0,2.241182 -1.790068,4.03125 -4.03125,4.03125 l -36.4375,0 C 3.5400679,46.25 1.75,44.459932 1.75,42.21875 l 0,-36.4375 C 1.75,3.5400679 3.5400679,1.75 5.78125,1.75 z"
       transform="translate(0,1004.3622)"
       inkscape:connector-curvature="0"
       style="opacity:0.3" />
    <path
       id="path28"
       d="M 5.78125,1.75 C 3.5400679,1.75 1.75,3.5400679 1.75,5.78125 l 0,36.4375 c 0,2.241182 1.7900679,4.03125 4.03125,4.03125 l 36.4375,0 c 2.241182,0 4.03125,-1.790068 4.03125,-4.03125 l 0,-36.4375 C 46.25,3.5400679 44.459932,1.75 42.21875,1.75 l -36.4375,0 z m 0.125,0.125 36.1875,0 c 2.228591,0 4.03125,1.802659 4.03125,4.03125 l 0,36.1875 c 0,2.228591 -1.802659,4.03125 -4.03125,4.03125 l -36.1875,0 C 3.677659,46.125 1.875,44.322341 1.875,42.09375 l 0,-36.1875 C 1.875,3.677659 3.677659,1.875 5.90625,1.875 z"
       transform="translate(0,1004.3622)"
       inkscape:connector-curvature="0"
       style="opacity:0.4" />
    <rect
       id="rect30"
       rx="4.02"
       y="1006.24"
       x="1.875"
       height="44.25"
       width="44.25"
       style="opacity:0.5" />
  </g>
  <rect
     id="rect32"
     rx="1.128889"
     y="-12.981597"
     x="-12.982223"
     height="12.417778"
     width="12.417778"
     style="fill:url(#linearGradient3049);fill-opacity:1"
     transform="scale(-1,-1)" />
  <path
     sodipodi:type="arc"
     style="fill:#cccccc;stroke:none"
     id="path3790"
     sodipodi:cx="-20"
     sodipodi:cy="19.5"
     sodipodi:rx="5"
     sodipodi:ry="4.5"
     d="m -15,19.5 a 5,4.5 0 1 1 -10,0 5,4.5 0 1 1 10,0 z"
     transform="matrix(0.22577778,0,0,0.2508642,9.8774446,4.1387595)" />
  <path
     transform="matrix(0.33866667,0,0,0.37629631,12.135223,0.28172219)"
     d="m -15,19.5 a 5,4.5 0 1 1 -10,0 5,4.5 0 1 1 10,0 z"
     sodipodi:ry="4.5"
     sodipodi:rx="5"
     sodipodi:cy="19.5"
     sodipodi:cx="-20"
     id="path3013"
     style="fill:#333333;stroke:none"
     sodipodi:type="arc" />
  <path
     transform="matrix(-0.22577778,0,0,0.2508642,3.6685557,4.1387595)"
     d="m -15,19.5 a 5,4.5 0 1 1 -10,0 5,4.5 0 1 1 10,0 z"
     sodipodi:ry="4.5"
     sodipodi:rx="5"
     sodipodi:cy="19.5"
     sodipodi:cx="-20"
     id="path3792"
     style="fill:#cccccc;stroke:none"
     sodipodi:type="arc" />
  <path
     sodipodi:type="arc"
     style="fill:#333333;stroke:none"
     id="path3015"
     sodipodi:cx="-20"
     sodipodi:cy="19.5"
     sodipodi:rx="5"
     sodipodi:ry="4.5"
     d="m -15,19.5 a 5,4.5 0 1 1 -10,0 5,4.5 0 1 1 10,0 z"
     transform="matrix(0.33866667,0,0,0.37629631,14.957445,0.28172219)" />
  <path
     sodipodi:type="arc"
     style="fill:#4d4d4d;stroke:none"
     id="path3011"
     sodipodi:cx="-20"
     sodipodi:cy="19.5"
     sodipodi:rx="5"
     sodipodi:ry="4.5"
     d="m -15,19.5 a 5,4.5 0 1 1 -10,0 5,4.5 0 1 1 10,0 z"
     transform="matrix(0.33866667,0,0,0.37629631,13.546667,-1.4112779)" />
  <path
     transform="matrix(0.22577778,0,0,0.2508642,8.7485557,2.7276483)"
     d="m -15,19.5 a 5,4.5 0 1 1 -10,0 5,4.5 0 1 1 10,0 z"
     sodipodi:ry="4.5"
     sodipodi:rx="5"
     sodipodi:cy="19.5"
     sodipodi:cx="-20"
     id="path3020"
     style="fill:#e6e6e6;stroke:none"
     sodipodi:type="arc" />
  <path
     sodipodi:type="arc"
     style="fill:#e6e6e6;stroke:none"
     id="path3794"
     sodipodi:cx="-20"
     sodipodi:cy="19.5"
     sodipodi:rx="5"
     sodipodi:ry="4.5"
     d="m -15,19.5 a 5,4.5 0 1 1 -10,0 5,4.5 0 1 1 10,0 z"
     transform="matrix(-0.22577778,0,0,0.2508642,4.7974447,2.7276483)" />
  <path
     transform="matrix(0.28222223,0,0,0.31358025,12.417778,-1.3172036)"
     d="m -15,19.5 a 5,4.5 0 1 1 -10,0 5,4.5 0 1 1 10,0 z"
     sodipodi:ry="4.5"
     sodipodi:rx="5"
     sodipodi:cy="19.5"
     sodipodi:cx="-20"
     id="path3017"
     style="fill:#690082;fill-opacity:1;stroke:none"
     sodipodi:type="arc" />
</svg>
