<svg viewBox="0 0 48 48" xmlns:xlink="http://www.w3.org/1999/xlink"><defs><linearGradient id="linearGradient3764" x1="1" x2="47" gradientUnits="userSpaceOnUse" gradientTransform="translate(-47.997785,0.00221467)"><stop stop-color="#e4e4e4" stop-opacity="1"/><stop offset="1" stop-color="#eee" stop-opacity="1"/></linearGradient><clipPath id="clipPath-270922976"><g transform="translate(0,-1004.3622)"><rect rx="4" y="1005.36" x="1" height="46" width="46" fill="#1890d0"/></g></clipPath><clipPath id="clipPath-289692303"><g transform="translate(0,-1004.3622)"><rect rx="4" y="1005.36" x="1" height="46" width="46" fill="#1890d0"/></g></clipPath><path id="SVGCleanerId_1" d="m 12 14 l 4 0 l 0 2 l -4 0 m 0 -2" stroke="none" fill-rule="nonzero" fill-opacity="1"/></defs><g><g transform="translate(0,-1004.3622)"><path d="m 5 1006.36 c -2.216 0 -4 1.784 -4 4 l 0 37.25 c 0 2.216 1.784 4 4 4 l 38 0 c 2.216 0 4 -1.784 4 -4 l 0 -37.25 c 0 -2.216 -1.784 -4 -4 -4 l -38 0 z m -4 41.5 0 0.5 c 0 2.216 1.784 4 4 4 l 38 0 c 2.216 0 4 -1.784 4 -4 l 0 -0.5 c 0 2.216 -1.784 4 -4 4 l -38 0 c -2.216 0 -4 -1.784 -4 -4 z" opacity="0.02"/><path d="m 1 1047.61 0 0.25 c 0 2.216 1.784 4 4 4 l 38 0 c 2.216 0 4 -1.784 4 -4 l 0 -0.25 c 0 2.216 -1.784 4 -4 4 l -38 0 c -2.216 0 -4 -1.784 -4 -4 z" opacity="0.05"/><rect width="46" height="46" x="1" y="1005.61" rx="4" opacity="0.1"/></g></g><g><rect width="46" height="46" x="-46.998" y="1" rx="4" transform="matrix(0,-1,1,0,0,0)" fill="url(#linearGradient3764)" fill-opacity="1"/></g><g/><g><g clip-path="url(#clipPath-270922976)"><g opacity="0.1"><!-- color: #eeeeee --><g><path d="m 14 12 l 22 0 l 0 24 l -22 0 m 0 -24" fill="#000" stroke="none" fill-rule="nonzero" fill-opacity="1"/><path d="m 33.813 23.441 c -0.191 -0.266 -0.398 -0.512 -0.605 -0.754 c -1.121 -1.316 -2.41 -2.484 -3.82 -3.336 c -0.902 -0.539 -1.863 -0.98 -2.863 -1.188 c -0.508 -0.109 -1.012 -0.164 -1.527 -0.164 c -0.508 0 -1.016 0.055 -1.52 0.164 c -1 0.207 -1.961 0.648 -2.863 1.188 c -1.41 0.852 -2.691 2.02 -3.816 3.336 c -0.207 0.242 -0.414 0.488 -0.605 0.754 c -0.25 0.352 -0.25 0.766 0 1.117 c 0.574 0.801 1.258 1.516 1.953 2.168 c 1.496 1.406 3.207 2.582 5.098 3.055 c 0.582 0.148 1.172 0.219 1.762 0.219 c 0.594 0 1.176 -0.07 1.762 -0.219 c 1.891 -0.473 3.602 -1.648 5.102 -3.055 c 0.695 -0.652 1.379 -1.363 1.953 -2.168 c 0.25 -0.352 0.25 -0.766 0 -1.117 m 0 0" fill="#000" stroke="none" fill-rule="nonzero" fill-opacity="1"/><path d="m 29.5 24 c 0 2.488 -2.02 4.5 -4.5 4.5 c -2.484 0 -4.5 -2.01 -4.5 -4.5 c 0 -2.484 2.02 -4.496 4.5 -4.496 c 2.484 0 4.5 2.01 4.5 4.496 m 0 0" fill="#000" stroke="none" fill-rule="nonzero" fill-opacity="1"/><path d="m 27.5 24 c 0 1.383 -1.121 2.5 -2.5 2.5 c -1.379 0 -2.5 -1.117 -2.5 -2.5 c 0 -1.379 1.121 -2.5 2.5 -2.5 c 1.379 0 2.5 1.121 2.5 2.5 m 0 0" fill="#000" stroke="none" fill-rule="nonzero" fill-opacity="1" id="SVGCleanerId_0"/><path d="m 27 23 c 0 0.551 -0.449 1 -1 1 c -0.551 0 -1 -0.449 -1 -1 c 0 -0.551 0.449 -1 1 -1 c 0.551 0 1 0.449 1 1 m 0 0" fill="#000" stroke="none" fill-rule="nonzero" fill-opacity="1"/><path d="m 28.492 18.859 l -8.125 9.637 c 0.371 0.238 0.746 0.453 1.137 0.645 l 8.121 -9.637 c -0.359 -0.254 -0.781 -0.465 -1.133 -0.645 m 0 0" fill="#000" stroke="none" fill-rule="nonzero" fill-opacity="1"/><use fill="#000" xlink:href="#SVGCleanerId_1"/><use fill="#000" xlink:href="#SVGCleanerId_1"/><path d="m 12 19 l 4 0 l 0 2 l -4 0 m 0 -2" fill="#000" stroke="none" fill-rule="nonzero" fill-opacity="1"/><path d="m 12 27 l 4 0 l 0 2 l -4 0 m 0 -2" fill="#000" stroke="none" fill-rule="nonzero" fill-opacity="1"/><path d="m 12 32 l 4 0 l 0 2 l -4 0 m 0 -2" fill="#000" stroke="none" fill-rule="nonzero" fill-opacity="1"/></g></g></g></g><g><g clip-path="url(#clipPath-289692303)"><g transform="translate(0,-1)"><!-- color: #eeeeee --><g><path d="m 14 12 l 22 0 l 0 24 l -22 0 m 0 -24" fill="#7f5aab" stroke="none" fill-rule="nonzero" fill-opacity="1"/><path d="m 33.813 23.441 c -0.191 -0.266 -0.398 -0.512 -0.605 -0.754 c -1.121 -1.316 -2.41 -2.484 -3.82 -3.336 c -0.902 -0.539 -1.863 -0.98 -2.863 -1.188 c -0.508 -0.109 -1.012 -0.164 -1.527 -0.164 c -0.508 0 -1.016 0.055 -1.52 0.164 c -1 0.207 -1.961 0.648 -2.863 1.188 c -1.41 0.852 -2.691 2.02 -3.816 3.336 c -0.207 0.242 -0.414 0.488 -0.605 0.754 c -0.25 0.352 -0.25 0.766 0 1.117 c 0.574 0.801 1.258 1.516 1.953 2.168 c 1.496 1.406 3.207 2.582 5.098 3.055 c 0.582 0.148 1.172 0.219 1.762 0.219 c 0.594 0 1.176 -0.07 1.762 -0.219 c 1.891 -0.473 3.602 -1.648 5.102 -3.055 c 0.695 -0.652 1.379 -1.363 1.953 -2.168 c 0.25 -0.352 0.25 -0.766 0 -1.117 m 0 0" fill="#ececeb" stroke="none" fill-rule="nonzero" fill-opacity="1"/><path d="m 29.5 24 c 0 2.488 -2.02 4.5 -4.5 4.5 c -2.484 0 -4.5 -2.01 -4.5 -4.5 c 0 -2.484 2.02 -4.496 4.5 -4.496 c 2.484 0 4.5 2.01 4.5 4.496 m 0 0" fill="#4586f9" stroke="none" fill-rule="nonzero" fill-opacity="1"/><use xlink:href="#SVGCleanerId_0"/><path d="m 27 23 c 0 0.551 -0.449 1 -1 1 c -0.551 0 -1 -0.449 -1 -1 c 0 -0.551 0.449 -1 1 -1 c 0.551 0 1 0.449 1 1 m 0 0" fill="#fff" stroke="none" fill-rule="nonzero" fill-opacity="1"/><path d="m 28.492 18.859 l -8.125 9.637 c 0.371 0.238 0.746 0.453 1.137 0.645 l 8.121 -9.637 c -0.359 -0.254 -0.781 -0.465 -1.133 -0.645 m 0 0" fill="#e54444" stroke="none" fill-rule="nonzero" fill-opacity="1"/><use fill="#e54444" xlink:href="#SVGCleanerId_1"/><use fill="#fc0" xlink:href="#SVGCleanerId_1"/><path d="m 12 19 l 4 0 l 0 2 l -4 0 m 0 -2" fill="#fc0" stroke="none" fill-rule="nonzero" fill-opacity="1"/><path d="m 12 27 l 4 0 l 0 2 l -4 0 m 0 -2" fill="#fc0" stroke="none" fill-rule="nonzero" fill-opacity="1"/><path d="m 12 32 l 4 0 l 0 2 l -4 0 m 0 -2" fill="#fc0" stroke="none" fill-rule="nonzero" fill-opacity="1"/></g></g></g></g><g><g transform="translate(0,-1004.3622)"><path d="m 1 1043.36 0 4 c 0 2.216 1.784 4 4 4 l 38 0 c 2.216 0 4 -1.784 4 -4 l 0 -4 c 0 2.216 -1.784 4 -4 4 l -38 0 c -2.216 0 -4 -1.784 -4 -4 z" opacity="0.1"/></g></g></svg>