<svg viewBox="0 0 48 48"><defs><linearGradient id="linearGradient3764" x1="1" x2="47" gradientUnits="userSpaceOnUse" gradientTransform="translate(-47.997785,0.00221467)"><stop stop-color="#423c7c" stop-opacity="1"/><stop offset="1" stop-color="#48428a" stop-opacity="1"/></linearGradient><clipPath id="clipPath-696159755"><g transform="translate(0,-1004.3622)"><rect rx="4" y="1005.36" x="1" height="46" width="46" fill="#1890d0"/></g></clipPath><clipPath id="clipPath-711338615"><g transform="translate(0,-1004.3622)"><rect rx="4" y="1005.36" x="1" height="46" width="46" fill="#1890d0"/></g></clipPath><clipPath id="clip1"><path d="m 26 20 l 10 0 l 0 12 l -10 0 m 0 -12"/></clipPath><clipPath id="clip2"><path d="m 26.13 25.824 c 0 3.266 1.988 5.41 5.367 5.41 c 1.5 0 2.738 -0.309 3.637 -0.68 l -0.383 -1.859 c -0.793 0.305 -1.668 0.48 -2.887 0.48 c -1.672 0 -3.148 -0.832 -3.211 -2.758 l 6.977 0 c 0.043 -0.242 0.082 -0.637 0.082 -1.141 c 0 -2.344 -1.09 -5.188 -4.492 -5.188 c -3.336 0 -5.09 2.773 -5.09 5.727 m 4.941 -3.895 c 1.754 0 2.184 1.617 2.16 2.605 l -4.578 0 c 0.105 -1.098 0.793 -2.605 2.418 -2.605"/></clipPath><clipPath id="clip1"><path d="m 26 20 l 10 0 l 0 12 l -10 0 m 0 -12"/></clipPath><clipPath id="clip2"><path d="m 26.13 25.824 c 0 3.266 1.988 5.41 5.367 5.41 c 1.5 0 2.738 -0.309 3.637 -0.68 l -0.383 -1.859 c -0.793 0.305 -1.668 0.48 -2.887 0.48 c -1.672 0 -3.148 -0.832 -3.211 -2.758 l 6.977 0 c 0.043 -0.242 0.082 -0.637 0.082 -1.141 c 0 -2.344 -1.09 -5.188 -4.492 -5.188 c -3.336 0 -5.09 2.773 -5.09 5.727 m 4.941 -3.895 c 1.754 0 2.184 1.617 2.16 2.605 l -4.578 0 c 0.105 -1.098 0.793 -2.605 2.418 -2.605"/></clipPath></defs><g><g transform="translate(0,-1004.3622)"><path d="m 5 1006.36 c -2.216 0 -4 1.784 -4 4 l 0 37.25 c 0 2.216 1.784 4 4 4 l 38 0 c 2.216 0 4 -1.784 4 -4 l 0 -37.25 c 0 -2.216 -1.784 -4 -4 -4 l -38 0 z m -4 41.5 0 0.5 c 0 2.216 1.784 4 4 4 l 38 0 c 2.216 0 4 -1.784 4 -4 l 0 -0.5 c 0 2.216 -1.784 4 -4 4 l -38 0 c -2.216 0 -4 -1.784 -4 -4 z" opacity="0.02"/><path d="m 1 1047.61 0 0.25 c 0 2.216 1.784 4 4 4 l 38 0 c 2.216 0 4 -1.784 4 -4 l 0 -0.25 c 0 2.216 -1.784 4 -4 4 l -38 0 c -2.216 0 -4 -1.784 -4 -4 z" opacity="0.05"/><rect width="46" height="46" x="1" y="1005.61" rx="4" opacity="0.1"/></g></g><g><rect width="46" height="46" x="-46.998" y="1" rx="4" transform="matrix(0,-1,1,0,0,0)" fill="url(#linearGradient3764)" fill-opacity="1"/></g><g/><g><g clip-path="url(#clipPath-696159755)"><g opacity="0.1"><!-- color: #48428a --><g><path d="m 17.12 16.234 l -4.621 14.758 l 2.719 0 l 1.238 -4.18 l 4.578 0 l 1.305 4.18 l 2.824 0 l -4.684 -14.758 m -2.48 4.906 c 0.254 -0.875 0.473 -1.906 0.684 -2.762 l 0.043 0 c 0.211 0.855 0.449 1.859 0.727 2.762 l 1.133 3.633 l -3.699 0 m 1.113 -3.633" stroke="none" fill-rule="nonzero" fill-opacity="1" fill="#000"/><g clip-path="url(#clip1)"><g clip-path="url(#clip2)"><path d="m 26.13 25.824 c 0 3.266 1.988 5.41 5.367 5.41 c 1.5 0 2.738 -0.309 3.637 -0.68 l -0.383 -1.859 c -0.793 0.305 -1.668 0.48 -2.887 0.48 c -1.672 0 -3.148 -0.832 -3.211 -2.758 l 6.977 0 c 0.043 -0.242 0.082 -0.637 0.082 -1.141 c 0 -2.344 -1.09 -5.188 -4.492 -5.188 c -3.336 0 -5.09 2.773 -5.09 5.727 m 4.941 -3.895 c 1.754 0 2.184 1.617 2.16 2.605 l -4.578 0 c 0.105 -1.098 0.793 -2.605 2.418 -2.605" stroke="none" fill-rule="nonzero" fill-opacity="1" fill="#000"/></g></g></g></g></g></g><g><g clip-path="url(#clipPath-711338615)"><g transform="translate(0,-1)"><!-- color: #48428a --><g><path d="m 17.12 16.234 l -4.621 14.758 l 2.719 0 l 1.238 -4.18 l 4.578 0 l 1.305 4.18 l 2.824 0 l -4.684 -14.758 m -2.48 4.906 c 0.254 -0.875 0.473 -1.906 0.684 -2.762 l 0.043 0 c 0.211 0.855 0.449 1.859 0.727 2.762 l 1.133 3.633 l -3.699 0 m 1.113 -3.633" fill="#c887fb" stroke="none" fill-rule="nonzero" fill-opacity="1"/><g clip-path="url(#clip1)"><g clip-path="url(#clip2)"><path d="m 26.13 25.824 c 0 3.266 1.988 5.41 5.367 5.41 c 1.5 0 2.738 -0.309 3.637 -0.68 l -0.383 -1.859 c -0.793 0.305 -1.668 0.48 -2.887 0.48 c -1.672 0 -3.148 -0.832 -3.211 -2.758 l 6.977 0 c 0.043 -0.242 0.082 -0.637 0.082 -1.141 c 0 -2.344 -1.09 -5.188 -4.492 -5.188 c -3.336 0 -5.09 2.773 -5.09 5.727 m 4.941 -3.895 c 1.754 0 2.184 1.617 2.16 2.605 l -4.578 0 c 0.105 -1.098 0.793 -2.605 2.418 -2.605" fill="#c887fb" stroke="none" fill-rule="nonzero" fill-opacity="1"/></g></g></g></g></g></g><g><g transform="translate(0,-1004.3622)"><path d="m 1 1043.36 0 4 c 0 2.216 1.784 4 4 4 l 38 0 c 2.216 0 4 -1.784 4 -4 l 0 -4 c 0 2.216 -1.784 4 -4 4 l -38 0 c -2.216 0 -4 -1.784 -4 -4 z" opacity="0.1"/></g></g></svg>