<svg viewBox="0 0 48 48"><defs><linearGradient id="linearGradient3764" x1="1" x2="47" gradientUnits="userSpaceOnUse" gradientTransform="translate(-48.000001,0.00221467)"><stop stop-color="#ffb109" stop-opacity="1"/><stop offset="1" stop-color="#ffb61d" stop-opacity="1"/></linearGradient><clipPath id="clipPath-178657650"><g transform="translate(0,-1004.3622)"><rect rx="4" y="1005.36" x="1" height="46" width="46" fill="#1890d0"/></g></clipPath><clipPath id="clipPath-217278315"><g transform="translate(0,-1004.3622)"><rect rx="4" y="1005.36" x="1" height="46" width="46" fill="#1890d0"/></g></clipPath></defs><g><path d="m 1 43 l 0 0.25 c 0 2.216 1.784 4 4 4 l 38 0 c 2.216 0 4 -1.784 4 -4 l 0 -0.25 c 0 2.216 -1.784 4 -4 4 l -38 0 c -2.216 0 -4 -1.784 -4 -4 z m 0 0.5 l 0 0.5 c 0 2.216 1.784 4 4 4 l 38 0 c 2.216 0 4 -1.784 4 -4 l 0 -0.5 c 0 2.216 -1.784 4 -4 4 l -38 0 c -2.216 0 -4 -1.784 -4 -4 z" opacity="0.02"/><path d="m 1 43.25 l 0 0.25 c 0 2.216 1.784 4 4 4 l 38 0 c 2.216 0 4 -1.784 4 -4 l 0 -0.25 c 0 2.216 -1.784 4 -4 4 l -38 0 c -2.216 0 -4 -1.784 -4 -4 z" opacity="0.05"/><path d="m 1 43 l 0 0.25 c 0 2.216 1.784 4 4 4 l 38 0 c 2.216 0 4 -1.784 4 -4 l 0 -0.25 c 0 2.216 -1.784 4 -4 4 l -38 0 c -2.216 0 -4 -1.784 -4 -4 z" opacity="0.1"/></g><g><rect width="46" height="46" x="-47" y="1" rx="4" transform="matrix(0,-1,1,0,0,0)" fill="url(#linearGradient3764)" fill-opacity="1"/></g><g><g clip-path="url(#clipPath-178657650)"><g opacity="0.1"><!-- color: #ffb61d --><g><path d="m 31.29 12.01 c -0.414 -0.031 -0.844 0.02 -1.266 0.164 c -0.504 0.168 -0.852 0.387 -1.242 0.77 c -0.504 0.504 -0.77 1.039 -0.891 1.758 c -0.066 0.398 -0.117 0.551 -0.234 0.801 c -0.449 0.949 -1.434 1.613 -2.414 1.613 c -0.082 0 -0.34 -0.016 -0.586 -0.047 c -0.984 -0.129 -1.434 -0.145 -2.461 -0.047 c -0.277 0.027 -0.613 0.047 -0.727 0.047 c -0.488 0 -0.785 -0.184 -0.984 -0.586 c -0.125 -0.25 -0.168 -0.375 -0.164 -0.82 c 0.004 -0.367 0.012 -0.41 -0.047 -0.586 c -0.098 -0.27 -0.188 -0.395 -0.398 -0.605 c -0.309 -0.309 -0.633 -0.445 -1.055 -0.445 c -0.277 0 -0.473 0.043 -0.703 0.164 c -0.488 0.254 -0.793 0.727 -0.82 1.266 c -0.02 0.375 0.055 0.602 0.258 0.914 c 0.148 0.227 0.328 0.391 0.656 0.563 c 0.355 0.184 0.543 0.359 0.703 0.68 c 0.102 0.203 0.094 0.223 0.094 0.445 c 0 0.211 0 0.234 -0.07 0.375 c -0.043 0.086 -0.164 0.246 -0.258 0.352 c -0.879 0.977 -1.414 2.031 -1.641 3.164 c -0.109 0.535 -0.141 0.824 -0.117 1.406 c 0.012 0.277 0.023 0.586 0.023 0.68 c -0.008 0.531 -0.387 0.895 -1.195 1.172 c -0.195 0.066 -0.285 0.082 -0.539 0.094 c -0.199 0.008 -0.355 0 -0.469 -0.023 c -0.102 -0.02 -0.309 -0.02 -0.516 -0.02 c -0.395 0 -0.582 0.043 -0.891 0.188 c -1.148 0.531 -1.656 1.867 -1.125 3 c 0.68 1.445 2.602 1.758 3.703 0.609 c 0.164 -0.172 0.246 -0.301 0.422 -0.609 c 0.055 -0.102 0.172 -0.227 0.258 -0.328 c 0.391 -0.395 0.926 -0.602 1.547 -0.602 c 0.445 0 0.707 0.094 1.055 0.375 c 0.578 0.465 1.379 0.871 2.086 1.078 c 0.781 0.227 1.223 0.262 2.531 0.227 c 0.383 -0.012 0.504 0.023 0.68 0.043 c 0.492 0.105 0.969 0.289 1.383 0.566 c 0.305 0.203 0.805 0.703 1.012 1.012 c 0.273 0.41 0.473 0.926 0.539 1.336 c 0.109 0.691 0.242 1.105 0.469 1.547 c 0.617 1.215 1.727 2.027 3.094 2.273 c 0.375 0.066 1.191 0.055 1.57 -0.023 c 1.301 -0.266 2.383 -1.086 2.977 -2.25 c 0.32 -0.633 0.48 -1.211 0.48 -1.938 c 0.004 -1.723 -0.996 -3.234 -2.578 -3.914 c -0.363 -0.152 -0.629 -0.227 -1.125 -0.313 c -0.492 -0.082 -0.82 -0.188 -1.172 -0.375 c -0.824 -0.426 -1.488 -1.215 -1.781 -2.082 c -0.16 -0.477 -0.227 -0.957 -0.188 -1.52 c 0.02 -0.359 0.016 -1.566 -0.023 -2.395 c -0.02 -0.531 0.055 -0.855 0.281 -1.313 c 0.258 -0.52 0.688 -0.949 1.219 -1.219 c 0.273 -0.141 0.48 -0.191 0.867 -0.258 c 0.414 -0.07 0.711 -0.164 1.02 -0.328 c 0.742 -0.383 1.316 -1.031 1.57 -1.828 c 0.113 -0.34 0.141 -0.617 0.141 -1.012 c 0 -0.391 -0.051 -0.664 -0.145 -1.012 c -0.441 -1.258 -1.563 -2.086 -2.789 -2.18 m -8.625 6.891 c 1.441 -0.098 2.898 0.594 3.727 1.828 c 0.316 0.445 0.535 1.039 0.648 1.57 c 0.066 0.367 0.051 1.199 -0.023 1.547 c -0.215 1 -0.727 1.848 -1.52 2.457 c -0.648 0.508 -1.375 0.777 -2.23 0.844 c -0.172 0.016 -0.348 0.027 -0.375 0.023 c -0.309 -0.023 -0.543 -0.066 -0.75 -0.105 c -1.715 -0.348 -2.977 -1.688 -3.258 -3.438 c -0.039 -0.25 -0.039 -0.988 0 -1.23 c 0.164 -0.938 0.508 -1.645 1.148 -2.27 c 0.371 -0.371 0.68 -0.586 1.102 -0.797 c 0.355 -0.191 0.574 -0.273 0.941 -0.355 c 0.207 -0.047 0.398 -0.082 0.605 -0.094 m 0.445 1.563 c -1.215 -0.066 -2.324 0.699 -2.645 1.93 c -0.063 0.215 -0.07 0.266 -0.07 0.633 c 0 0.355 0.012 0.438 0.07 0.648 c 0.133 0.496 0.445 0.996 0.816 1.316 c 0.285 0.238 0.633 0.438 0.895 0.477 c 0.699 0.125 1.395 -0.352 1.5 -1.063 l 0 -0.094 l -0.445 0 c -0.32 0 -0.488 -0.023 -0.586 -0.023 c -0.57 -0.145 -0.961 -0.668 -0.961 -1.227 c 0 -0.355 0.121 -0.66 0.375 -0.914 c 0.242 -0.242 0.563 -0.375 0.891 -0.375 c 0.578 0 1.148 0.438 1.27 1.012 c 0.023 0.125 0.02 0.406 0.02 1.316 l 0 1.145 l 0.148 0 c 0.293 -0.031 0.602 -0.176 0.797 -0.375 c 0.105 -0.113 0.227 -0.363 0.281 -0.535 c 0.043 -0.141 0.047 -0.227 0.047 -0.859 c 0 -0.93 -0.031 -1.145 -0.281 -1.617 c -0.316 -0.605 -0.941 -1.105 -1.594 -1.273 c -0.184 -0.047 -0.352 -0.086 -0.523 -0.094 m 0 0" stroke="none" fill-rule="nonzero" fill-opacity="1" fill="#000"/></g></g></g></g><g><g clip-path="url(#clipPath-217278315)"><g transform="translate(0,-1)"><!-- color: #ffb61d --><g><path d="m 31.29 12.01 c -0.414 -0.031 -0.844 0.02 -1.266 0.164 c -0.504 0.168 -0.852 0.387 -1.242 0.77 c -0.504 0.504 -0.77 1.039 -0.891 1.758 c -0.066 0.398 -0.117 0.551 -0.234 0.801 c -0.449 0.949 -1.434 1.613 -2.414 1.613 c -0.082 0 -0.34 -0.016 -0.586 -0.047 c -0.984 -0.129 -1.434 -0.145 -2.461 -0.047 c -0.277 0.027 -0.613 0.047 -0.727 0.047 c -0.488 0 -0.785 -0.184 -0.984 -0.586 c -0.125 -0.25 -0.168 -0.375 -0.164 -0.82 c 0.004 -0.367 0.012 -0.41 -0.047 -0.586 c -0.098 -0.27 -0.188 -0.395 -0.398 -0.605 c -0.309 -0.309 -0.633 -0.445 -1.055 -0.445 c -0.277 0 -0.473 0.043 -0.703 0.164 c -0.488 0.254 -0.793 0.727 -0.82 1.266 c -0.02 0.375 0.055 0.602 0.258 0.914 c 0.148 0.227 0.328 0.391 0.656 0.563 c 0.355 0.184 0.543 0.359 0.703 0.68 c 0.102 0.203 0.094 0.223 0.094 0.445 c 0 0.211 0 0.234 -0.07 0.375 c -0.043 0.086 -0.164 0.246 -0.258 0.352 c -0.879 0.977 -1.414 2.031 -1.641 3.164 c -0.109 0.535 -0.141 0.824 -0.117 1.406 c 0.012 0.277 0.023 0.586 0.023 0.68 c -0.008 0.531 -0.387 0.895 -1.195 1.172 c -0.195 0.066 -0.285 0.082 -0.539 0.094 c -0.199 0.008 -0.355 0 -0.469 -0.023 c -0.102 -0.02 -0.309 -0.02 -0.516 -0.02 c -0.395 0 -0.582 0.043 -0.891 0.188 c -1.148 0.531 -1.656 1.867 -1.125 3 c 0.68 1.445 2.602 1.758 3.703 0.609 c 0.164 -0.172 0.246 -0.301 0.422 -0.609 c 0.055 -0.102 0.172 -0.227 0.258 -0.328 c 0.391 -0.395 0.926 -0.602 1.547 -0.602 c 0.445 0 0.707 0.094 1.055 0.375 c 0.578 0.465 1.379 0.871 2.086 1.078 c 0.781 0.227 1.223 0.262 2.531 0.227 c 0.383 -0.012 0.504 0.023 0.68 0.043 c 0.492 0.105 0.969 0.289 1.383 0.566 c 0.305 0.203 0.805 0.703 1.012 1.012 c 0.273 0.41 0.473 0.926 0.539 1.336 c 0.109 0.691 0.242 1.105 0.469 1.547 c 0.617 1.215 1.727 2.027 3.094 2.273 c 0.375 0.066 1.191 0.055 1.57 -0.023 c 1.301 -0.266 2.383 -1.086 2.977 -2.25 c 0.32 -0.633 0.48 -1.211 0.48 -1.938 c 0.004 -1.723 -0.996 -3.234 -2.578 -3.914 c -0.363 -0.152 -0.629 -0.227 -1.125 -0.313 c -0.492 -0.082 -0.82 -0.188 -1.172 -0.375 c -0.824 -0.426 -1.488 -1.215 -1.781 -2.082 c -0.16 -0.477 -0.227 -0.957 -0.188 -1.52 c 0.02 -0.359 0.016 -1.566 -0.023 -2.395 c -0.02 -0.531 0.055 -0.855 0.281 -1.313 c 0.258 -0.52 0.688 -0.949 1.219 -1.219 c 0.273 -0.141 0.48 -0.191 0.867 -0.258 c 0.414 -0.07 0.711 -0.164 1.02 -0.328 c 0.742 -0.383 1.316 -1.031 1.57 -1.828 c 0.113 -0.34 0.141 -0.617 0.141 -1.012 c 0 -0.391 -0.051 -0.664 -0.145 -1.012 c -0.441 -1.258 -1.563 -2.086 -2.789 -2.18 m -8.625 6.891 c 1.441 -0.098 2.898 0.594 3.727 1.828 c 0.316 0.445 0.535 1.039 0.648 1.57 c 0.066 0.367 0.051 1.199 -0.023 1.547 c -0.215 1 -0.727 1.848 -1.52 2.457 c -0.648 0.508 -1.375 0.777 -2.23 0.844 c -0.172 0.016 -0.348 0.027 -0.375 0.023 c -0.309 -0.023 -0.543 -0.066 -0.75 -0.105 c -1.715 -0.348 -2.977 -1.688 -3.258 -3.438 c -0.039 -0.25 -0.039 -0.988 0 -1.23 c 0.164 -0.938 0.508 -1.645 1.148 -2.27 c 0.371 -0.371 0.68 -0.586 1.102 -0.797 c 0.355 -0.191 0.574 -0.273 0.941 -0.355 c 0.207 -0.047 0.398 -0.082 0.605 -0.094 m 0.445 1.563 c -1.215 -0.066 -2.324 0.699 -2.645 1.93 c -0.063 0.215 -0.07 0.266 -0.07 0.633 c 0 0.355 0.012 0.438 0.07 0.648 c 0.133 0.496 0.445 0.996 0.816 1.316 c 0.285 0.238 0.633 0.438 0.895 0.477 c 0.699 0.125 1.395 -0.352 1.5 -1.063 l 0 -0.094 l -0.445 0 c -0.32 0 -0.488 -0.023 -0.586 -0.023 c -0.57 -0.145 -0.961 -0.668 -0.961 -1.227 c 0 -0.355 0.121 -0.66 0.375 -0.914 c 0.242 -0.242 0.563 -0.375 0.891 -0.375 c 0.578 0 1.148 0.438 1.27 1.012 c 0.023 0.125 0.02 0.406 0.02 1.316 l 0 1.145 l 0.148 0 c 0.293 -0.031 0.602 -0.176 0.797 -0.375 c 0.105 -0.113 0.227 -0.363 0.281 -0.535 c 0.043 -0.141 0.047 -0.227 0.047 -0.859 c 0 -0.93 -0.031 -1.145 -0.281 -1.617 c -0.316 -0.605 -0.941 -1.105 -1.594 -1.273 c -0.184 -0.047 -0.352 -0.086 -0.523 -0.094 m 0 0" fill="#f9f9f9" stroke="none" fill-rule="nonzero" fill-opacity="1"/></g></g></g></g><g><g transform="translate(0,-1004.3622)"><path d="m 1 1043.36 0 4 c 0 2.216 1.784 4 4 4 l 38 0 c 2.216 0 4 -1.784 4 -4 l 0 -4 c 0 2.216 -1.784 4 -4 4 l -38 0 c -2.216 0 -4 -1.784 -4 -4 z" opacity="0.1"/></g></g></svg>