<svg xmlns="http://www.w3.org/2000/svg" xmlns:xlink="http://www.w3.org/1999/xlink" width="48" viewBox="0 0 13.546667 13.546667" height="48">
 <defs>
  <linearGradient id="0">
   <stop stop-color="#f7931a"/>
   <stop offset="1" stop-color="#e9af4b"/>
  </linearGradient>
  <linearGradient xlink:href="#0" id="1" gradientUnits="userSpaceOnUse" gradientTransform="matrix(0.78948649,0,0,0.78946431,-93.981104,-209.32321)" y1="279.1" x2="0" y2="268.33"/>
  <linearGradient id="2">
   <stop stop-color="#2d2d2d"/>
   <stop offset="1" stop-color="#4b4b4b"/>
  </linearGradient>
  <linearGradient xlink:href="#2" id="3" gradientUnits="userSpaceOnUse" y1="1050.36" x2="0" y2="1006.36" gradientTransform="matrix(0.28222223,0,0,0.28222223,0,-283.45334)"/>
 </defs>
 <g transform="matrix(0.28222223,0,0,0.28222223,0,-283.45334)">
  <path d="M 5.1875,1 C 2.8707723,1 1,2.8707723 1,5.1875 l 0,37.625 C 1,45.129228 2.8707723,47 5.1875,47 l 37.625,0 C 45.129228,47 47,45.129228 47,42.8125 L 47,5.1875 C 47,2.8707723 45.129228,1 42.8125,1 L 5.1875,1 z m 0.1875,0.25 37.25,0 c 2.291546,0 4.125,1.8334541 4.125,4.125 l 0,37.25 c 0,2.291546 -1.833454,4.125 -4.125,4.125 l -37.25,0 C 3.0834541,46.75 1.25,44.916546 1.25,42.625 l 0,-37.25 C 1.25,3.0834541 3.0834541,1.25 5.375,1.25 z" transform="translate(0,1004.3622)" opacity="0.05"/>
  <path d="M 5.375,1.25 C 3.0834541,1.25 1.25,3.0834541 1.25,5.375 l 0,37.25 c 0,2.291546 1.8334541,4.125 4.125,4.125 l 37.25,0 c 2.291546,0 4.125,-1.833454 4.125,-4.125 l 0,-37.25 C 46.75,3.0834541 44.916546,1.25 42.625,1.25 l -37.25,0 z m 0.21875,0.25 36.8125,0 C 44.672614,1.5 46.5,3.3273859 46.5,5.59375 l 0,36.8125 C 46.5,44.672614 44.672614,46.5 42.40625,46.5 l -36.8125,0 C 3.3273859,46.5 1.5,44.672614 1.5,42.40625 l 0,-36.8125 C 1.5,3.3273859 3.3273859,1.5 5.59375,1.5 z" transform="translate(0,1004.3622)" opacity="0.1"/>
  <path d="M 5.59375,1.5 C 3.3273859,1.5 1.5,3.3273859 1.5,5.59375 l 0,36.8125 C 1.5,44.672614 3.3273859,46.5 5.59375,46.5 l 36.8125,0 C 44.672614,46.5 46.5,44.672614 46.5,42.40625 l 0,-36.8125 C 46.5,3.3273859 44.672614,1.5 42.40625,1.5 l -36.8125,0 z m 0.09375,0.125 36.625,0 c 2.253773,0 4.0625,1.8087269 4.0625,4.0625 l 0,36.625 c 0,2.253773 -1.808727,4.0625 -4.0625,4.0625 l -36.625,0 c -2.2537731,0 -4.0625,-1.808727 -4.0625,-4.0625 l 0,-36.625 C 1.625,3.4337269 3.4337269,1.625 5.6875,1.625 z" transform="translate(0,1004.3622)" opacity="0.2"/>
  <path d="M 5.6875,1.625 C 3.4337269,1.625 1.625,3.4337269 1.625,5.6875 l 0,36.625 c 0,2.253773 1.8087269,4.0625 4.0625,4.0625 l 36.625,0 c 2.253773,0 4.0625,-1.808727 4.0625,-4.0625 l 0,-36.625 c 0,-2.2537731 -1.808727,-4.0625 -4.0625,-4.0625 l -36.625,0 z m 0.09375,0.125 36.4375,0 c 2.241182,0 4.03125,1.7900679 4.03125,4.03125 l 0,36.4375 c 0,2.241182 -1.790068,4.03125 -4.03125,4.03125 l -36.4375,0 C 3.5400679,46.25 1.75,44.459932 1.75,42.21875 l 0,-36.4375 C 1.75,3.5400679 3.5400679,1.75 5.78125,1.75 z" transform="translate(0,1004.3622)" opacity="0.3"/>
  <path d="M 5.78125,1.75 C 3.5400679,1.75 1.75,3.5400679 1.75,5.78125 l 0,36.4375 c 0,2.241182 1.7900679,4.03125 4.03125,4.03125 l 36.4375,0 c 2.241182,0 4.03125,-1.790068 4.03125,-4.03125 l 0,-36.4375 C 46.25,3.5400679 44.459932,1.75 42.21875,1.75 l -36.4375,0 z m 0.125,0.125 36.1875,0 c 2.228591,0 4.03125,1.802659 4.03125,4.03125 l 0,36.1875 c 0,2.228591 -1.802659,4.03125 -4.03125,4.03125 l -36.1875,0 C 3.677659,46.125 1.875,44.322341 1.875,42.09375 l 0,-36.1875 C 1.875,3.677659 3.677659,1.875 5.90625,1.875 z" transform="translate(0,1004.3622)" opacity="0.4"/>
  <rect rx="4.02" y="1006.24" x="1.875" height="44.25" width="44.25" opacity="0.5"/>
 </g>
 <rect rx="1.129" y="0.564" x="0.564" height="12.418" width="12.418" fill="url(#3)"/>
 <rect height="8.466" rx="4.233" y="2.54" x="2.54" width="8.467" fill="url(#1)" fill-rule="evenodd"/>
 <path d="m -5,12 a 9.5,11 0 1 1 -19,0 9.5,11 0 1 1 19,0 z" transform="matrix(0.2122031,0,0,0.18326119,9.850279,4.5743182)" fill="#f9f9f9"/>
 <g transform="matrix(0.71430579,0,0,0.71428573,1.9351016,1.9637314)">
  <path d="m 4.5324409,7.6418998 0.6378812,0 0,-1.8241422 -0.6547664,0.1361017 0,-0.4952594 0.6510142,-0.1361017 0.6866603,0 0,2.3194016 0.6378811,0 0,0.5028207 -1.9586704,0 0,-0.5028207"/>
  <path d="m 8.4902481,6.6252024 c 0.1767738,0.047372 0.3108187,0.1299682 0.4021353,0.2477871 0.092483,0.1166068 0.1387257,0.2654004 0.1387279,0.4463812 -2.2e-6,0.2696512 -0.099512,0.4749256 -0.2985284,0.6158239 C 8.5335622,8.0748786 8.243229,8.1447204 7.8615824,8.1447205 7.726951,8.1447204 7.5917354,8.1331813 7.455935,8.1101032 7.321304,8.0882396 7.1878444,8.0548369 7.0555557,8.0098951 l 0,-0.5411233 c 0.1264352,0.065591 0.2516999,0.1153916 0.3757945,0.149401 0.1252642,0.032795 0.2481875,0.049193 0.3687705,0.049193 0.1791158,5e-7 0.3160875,-0.032187 0.4109155,-0.096565 C 8.3070321,7.5064263 8.3550307,7.4141136 8.3550323,7.2938632 8.3550307,7.1699706 8.3058614,7.0764432 8.2075242,7.0132808 8.1103547,6.9489058 7.9663588,6.9167179 7.7755359,6.9167167 l -0.2704316,0 0,-0.451847 0.2844801,0 c 0.1697503,1.5e-6 0.2961856,-0.027328 0.3793065,-0.081989 0.083118,-0.055871 0.1246782,-0.1402894 0.1246796,-0.253253 -1.4e-6,-0.104457 -0.04039,-0.1852307 -0.1211674,-0.2423211 -0.08078,-0.057086 -0.1949226,-0.08563 -0.3424296,-0.085632 -0.108876,2.3e-6 -0.2189216,0.012756 -0.3301373,0.038261 -0.111217,0.02551 -0.2218481,0.063163 -0.3318934,0.1129618 l 0,-0.5137938 C 7.3014021,5.4002376 7.433691,5.3710856 7.56481,5.3516496 c 0.1311175,-0.019432 0.2598943,-0.029149 0.3863309,-0.029151 0.3406722,2.9e-6 0.595299,0.058305 0.7638815,0.1749087 0.1697494,0.1153935 0.254625,0.2896945 0.2546271,0.5229037 -2.1e-6,0.15912 -0.040391,0.2896941 -0.1211674,0.3917222 C 8.7677011,6.51285 8.6482907,6.5839067 8.4902481,6.625203"/>
 </g>
 <path d="M 10.244394,4.3542861 C 10.10186,4.1500214 9.947473,3.9502803 9.77191,3.7747225 9.580633,3.5834503 9.367057,3.4099923 9.141932,3.258155 8.916807,3.1063178 8.67714,2.9806927 8.423757,2.8738792 8.170374,2.7670657 7.906038,2.6843958 7.629985,2.6281947 c -0.27605,-0.056201 -0.56364,-0.088194 -0.85677,-0.088194 -0.29313,0 -0.58072,0.031993 -0.85677,0.088194 -0.2760499,0.056201 -0.5403899,0.138871 -0.7937699,0.2456845 -0.25338,0.1068135 -0.49305,0.2324386 -0.71817,0.3842758 -0.22512,0.1518373 -0.4387,0.3252953 -0.629978,0.5165675 -0.175563,0.1755578 -0.32995,0.3752989 -0.472484,0.5795636 l 6.9423589,0 z" fill="#f9f9f9"/>
 <path d="m 3.3021542,9.1923811 c 0.142534,0.204265 0.296921,0.404006 0.472484,0.579564 0.191278,0.191272 0.404853,0.3647299 0.629978,0.5165669 0.22512,0.151837 0.46479,0.277462 0.71817,0.384276 0.25338,0.106813 0.51772,0.189483 0.7937699,0.245684 0.27606,0.0562 0.56364,0.08819 0.85678,0.08819 0.29313,0 0.58072,-0.03199 0.85677,-0.08819 0.27605,-0.0562 0.54039,-0.138871 0.79377,-0.245684 0.25338,-0.106814 0.49305,-0.232439 0.71817,-0.384276 0.22512,-0.151837 0.4387,-0.3252949 0.62998,-0.5165669 0.17556,-0.175558 0.3299499,-0.375299 0.4724799,-0.579564 l -6.9423587,0 z" fill="#f9f9f9"/>
</svg>
