<svg viewBox="0 0 48 48"><defs><linearGradient id="linearGradient3764" x1="1" x2="47" gradientUnits="userSpaceOnUse" gradientTransform="translate(-48.000001,0.00221467)"><stop stop-color="#a2c7d4" stop-opacity="1"/><stop offset="1" stop-color="#b0d0da" stop-opacity="1"/></linearGradient><clipPath id="clipPath-387576456"><g transform="translate(0,-1004.3622)"><rect rx="4" y="1005.36" x="1" height="46" width="46" fill="#1890d0"/></g></clipPath><clipPath id="clipPath-410749470"><g transform="translate(0,-1004.3622)"><rect rx="4" y="1005.36" x="1" height="46" width="46" fill="#1890d0"/></g></clipPath></defs><g><path d="m 1 43 l 0 0.25 c 0 2.216 1.784 4 4 4 l 38 0 c 2.216 0 4 -1.784 4 -4 l 0 -0.25 c 0 2.216 -1.784 4 -4 4 l -38 0 c -2.216 0 -4 -1.784 -4 -4 z m 0 0.5 l 0 0.5 c 0 2.216 1.784 4 4 4 l 38 0 c 2.216 0 4 -1.784 4 -4 l 0 -0.5 c 0 2.216 -1.784 4 -4 4 l -38 0 c -2.216 0 -4 -1.784 -4 -4 z" opacity="0.02"/><path d="m 1 43.25 l 0 0.25 c 0 2.216 1.784 4 4 4 l 38 0 c 2.216 0 4 -1.784 4 -4 l 0 -0.25 c 0 2.216 -1.784 4 -4 4 l -38 0 c -2.216 0 -4 -1.784 -4 -4 z" opacity="0.05"/><path d="m 1 43 l 0 0.25 c 0 2.216 1.784 4 4 4 l 38 0 c 2.216 0 4 -1.784 4 -4 l 0 -0.25 c 0 2.216 -1.784 4 -4 4 l -38 0 c -2.216 0 -4 -1.784 -4 -4 z" opacity="0.1"/></g><g><rect width="46" height="46" x="-47" y="1" rx="4" transform="matrix(0,-1,1,0,0,0)" fill="url(#linearGradient3764)" fill-opacity="1"/></g><g><g clip-path="url(#clipPath-387576456)"><g opacity="0.1"><!-- color: #b0d0da --><g><path d="m 28.57 24 c 0 2.523 -2.047 4.57 -4.57 4.57 c -2.523 0 -4.57 -2.047 -4.57 -4.57 c 0 -2.523 2.047 -4.57 4.57 -4.57 c 2.523 0 4.57 2.047 4.57 4.57 m 0 0" stroke="none" fill-rule="nonzero" fill-opacity="1" fill="#000"/><path d="m 12.617 11 l -1.617 1.617 l 5.785 5.789 l 0 0.023 l 1.621 1.617 c 1.242 -1.754 3.281 -2.906 5.594 -2.906 c 0.895 0 1.742 0.191 2.523 0.5 l 1.715 -1.711 c -1.27 -0.676 -2.699 -1.074 -4.238 -1.074 c -2.109 0 -4.047 0.73 -5.594 1.93 m 16.977 -5.785 l -5.789 5.785 c -0.008 -0.008 -0.012 -0.016 -0.023 -0.023 l -1.617 1.617 c 1.762 1.242 2.902 3.305 2.902 5.621 c 0 0.902 -0.184 1.758 -0.5 2.547 l 1.715 1.715 c 0.68 -1.273 1.074 -2.719 1.074 -4.262 c 0 -2.109 -0.73 -4.047 -1.93 -5.594 l 5.785 -5.785 l -1.621 -1.621 m -19.449 8.738 c -0.684 1.273 -1.074 2.715 -1.074 4.262 c 0 2.109 0.73 4.047 1.93 5.594 l -5.785 5.785 l 1.617 1.621 l 1.715 -1.715 l -0.023 -0.023 l 5.691 -5.691 c -1.73 -1.246 -2.859 -3.277 -2.859 -5.574 c 0 -0.898 0.188 -1.758 0.5 -2.547 l -1.711 -1.715 m 13.664 8.219 c -1.242 1.754 -3.281 2.902 -5.594 2.902 c -0.922 0 -1.793 -0.195 -2.594 -0.523 l -1.715 1.715 c 1.285 0.695 2.746 1.094 4.309 1.094 c 2.109 0 4.047 -0.727 5.594 -1.926 l 5.785 5.785 l 1.621 -1.621 l -3.406 -3.43 l -2.379 -2.355 c 0.004 -0.004 -0.004 -0.02 0 -0.023 l -1.621 -1.621 m 0 0.004" stroke="none" fill-rule="nonzero" fill-opacity="1" fill="#000"/></g></g></g></g><g><g clip-path="url(#clipPath-410749470)"><g transform="translate(0,-1)"><!-- color: #b0d0da --><g><path d="m 28.57 24 c 0 2.523 -2.047 4.57 -4.57 4.57 c -2.523 0 -4.57 -2.047 -4.57 -4.57 c 0 -2.523 2.047 -4.57 4.57 -4.57 c 2.523 0 4.57 2.047 4.57 4.57 m 0 0" fill="#f9b918" stroke="none" fill-rule="nonzero" fill-opacity="1"/><path d="m 12.617 11 l -1.617 1.617 l 5.785 5.789 l 0 0.023 l 1.621 1.617 c 1.242 -1.754 3.281 -2.906 5.594 -2.906 c 0.895 0 1.742 0.191 2.523 0.5 l 1.715 -1.711 c -1.27 -0.676 -2.699 -1.074 -4.238 -1.074 c -2.109 0 -4.047 0.73 -5.594 1.93 m 16.977 -5.785 l -5.789 5.785 c -0.008 -0.008 -0.012 -0.016 -0.023 -0.023 l -1.617 1.617 c 1.762 1.242 2.902 3.305 2.902 5.621 c 0 0.902 -0.184 1.758 -0.5 2.547 l 1.715 1.715 c 0.68 -1.273 1.074 -2.719 1.074 -4.262 c 0 -2.109 -0.73 -4.047 -1.93 -5.594 l 5.785 -5.785 l -1.621 -1.621 m -19.449 8.738 c -0.684 1.273 -1.074 2.715 -1.074 4.262 c 0 2.109 0.73 4.047 1.93 5.594 l -5.785 5.785 l 1.617 1.621 l 1.715 -1.715 l -0.023 -0.023 l 5.691 -5.691 c -1.73 -1.246 -2.859 -3.277 -2.859 -5.574 c 0 -0.898 0.188 -1.758 0.5 -2.547 l -1.711 -1.715 m 13.664 8.219 c -1.242 1.754 -3.281 2.902 -5.594 2.902 c -0.922 0 -1.793 -0.195 -2.594 -0.523 l -1.715 1.715 c 1.285 0.695 2.746 1.094 4.309 1.094 c 2.109 0 4.047 -0.727 5.594 -1.926 l 5.785 5.785 l 1.621 -1.621 l -3.406 -3.43 l -2.379 -2.355 c 0.004 -0.004 -0.004 -0.02 0 -0.023 l -1.621 -1.621 m 0 0.004" fill="#174575" stroke="none" fill-rule="nonzero" fill-opacity="1"/></g></g></g></g><g><g transform="translate(0,-1004.3622)"><path d="m 1 1043.36 0 4 c 0 2.216 1.784 4 4 4 l 38 0 c 2.216 0 4 -1.784 4 -4 l 0 -4 c 0 2.216 -1.784 4 -4 4 l -38 0 c -2.216 0 -4 -1.784 -4 -4 z" opacity="0.1"/></g></g></svg>