<svg xmlns="http://www.w3.org/2000/svg" xmlns:xlink="http://www.w3.org/1999/xlink" width="48" viewBox="0 0 13.546667 13.546667" height="48">
 <defs>
  <linearGradient id="1">
   <stop stop-color="#dedede"/>
   <stop offset="1" stop-color="#f9f9f9"/>
  </linearGradient>
  <radialGradient gradientUnits="userSpaceOnUse" xlink:href="#8" r="7" gradientTransform="matrix(1.22449 0 0 1.22449 49.7555 -179.34296)" cy="255.42" cx="328"/>
  <radialGradient gradientUnits="userSpaceOnUse" xlink:href="#8" r="7" gradientTransform="matrix(2.85714 0 0 2.85714 -609.14349 -473.66662)" cy="255.42" cx="328"/>
  <radialGradient gradientUnits="userSpaceOnUse" xlink:href="#8" r="7" gradientTransform="matrix(1.22449 0 0 1.22449 49.7555 -179.34296)" cy="255.42" cx="328"/>
  <radialGradient gradientUnits="userSpaceOnUse" xlink:href="#8" r="7" gradientTransform="matrix(2.85714 0 0 2.85714 -609.14349 -473.66662)" cy="255.42" cx="328"/>
  <radialGradient gradientUnits="userSpaceOnUse" xlink:href="#8" r="7" gradientTransform="matrix(2.85714 0 0 2.85714 -609.14349 -473.66662)" cy="255.42" cx="328"/>
  <radialGradient gradientUnits="userSpaceOnUse" xlink:href="#8" r="7" gradientTransform="matrix(1.22449 0 0 1.22449 49.7555 -179.34296)" cy="255.42" cx="328"/>
  <linearGradient gradientUnits="userSpaceOnUse" x2="0" y2="90" y1="230" xlink:href="#5" id="2" gradientTransform="matrix(.25 0 0 .25 299.99999 131.99999)"/>
  <linearGradient x2="0" gradientUnits="userSpaceOnUse" y2="90" y1="230" id="3" xlink:href="#5" gradientTransform="matrix(.25 0 0 .25 299.99999 131.99999)"/>
  <linearGradient x2="0" gradientUnits="userSpaceOnUse" y2="40" y1="280" id="4" xlink:href="#5" gradientTransform="matrix(.175 0 0 .175 302.79999 215.99997)"/>
  <linearGradient id="5">
   <stop stop-color="#f0f0f0"/>
   <stop offset="1" stop-color="#f8f8f8"/>
  </linearGradient>
  <linearGradient x2="0" gradientUnits="userSpaceOnUse" y2="90" y1="230" id="6" xlink:href="#5" gradientTransform="matrix(.375 0 0 .375 298 16)"/>
  <linearGradient gradientUnits="userSpaceOnUse" x2="0" y2="124" y1="140" xlink:href="#7"/>
  <linearGradient id="7">
   <stop stop-color="#818181"/>
   <stop offset="1" stop-color="#c5c5c5"/>
  </linearGradient>
  <linearGradient gradientUnits="userSpaceOnUse" x2="0" y2="231" y1="273" xlink:href="#7" gradientTransform="translate(0 4.09376)"/>
  <linearGradient id="8">
   <stop stop-color="#eaba31"/>
   <stop offset="1" stop-color="#ff9200"/>
  </linearGradient>
  <linearGradient x2="0" gradientUnits="userSpaceOnUse" y2="231" y1="273" xlink:href="#7" gradientTransform="translate(0 4.09376)"/>
  <linearGradient x2="0" gradientUnits="userSpaceOnUse" y2="124" y1="140" xlink:href="#7" gradientTransform="translate(11.38843 1.3713)"/>
  <linearGradient gradientUnits="userSpaceOnUse" x2="0" y2="85" y1="107" xlink:href="#7"/>
  <linearGradient gradientUnits="userSpaceOnUse" x2="0" y2="40" y1="280" xlink:href="#5" id="9" gradientTransform="matrix(.175 0 0 .175 302.79999 215.99997)"/>
  <linearGradient x2="0" gradientUnits="userSpaceOnUse" y2="231" y1="273" xlink:href="#7" gradientTransform="matrix(5.71429 0 0 5.71429 -1730.2857 -1284)"/>
  <linearGradient gradientUnits="userSpaceOnUse" x2="0" y2="124" y1="140" xlink:href="#7"/>
  <linearGradient gradientUnits="userSpaceOnUse" x2="0" y2="231" y1="273" xlink:href="#7" gradientTransform="matrix(5.71429 0 0 5.71429 -1730.2857 -1284)"/>
  <linearGradient gradientUnits="userSpaceOnUse" x2="0" y2="85" y1="107" xlink:href="#7"/>
  <linearGradient gradientUnits="userSpaceOnUse" x2="0" y2="90" y1="230" xlink:href="#5" id="A" gradientTransform="matrix(.375 0 0 .375 298 16)"/>
  <linearGradient gradientUnits="userSpaceOnUse" x2="0" y2="85" y1="107" xlink:href="#7"/>
  <linearGradient gradientUnits="userSpaceOnUse" x2="0" y2="124" y1="140" xlink:href="#7" gradientTransform="translate(11.38843 1.3713)"/>
  <linearGradient gradientUnits="userSpaceOnUse" x2="0" y2="124" y1="140" xlink:href="#7"/>
  <linearGradient x2="0" gradientUnits="userSpaceOnUse" y2="90" y1="230" id="B" xlink:href="#5" gradientTransform="matrix(.375 0 0 .375 298 16)"/>
  <linearGradient x2="0" gradientUnits="userSpaceOnUse" y2="40" y1="280" id="C" xlink:href="#5" gradientTransform="matrix(.175 0 0 .175 302.79999 215.99997)"/>
  <linearGradient x2="0" gradientUnits="userSpaceOnUse" y2="231" y1="273" xlink:href="#7" gradientTransform="matrix(5.71429 0 0 5.71429 -1730.2857 -1284)"/>
  <linearGradient x2="0" gradientUnits="userSpaceOnUse" y2="124" y1="140" xlink:href="#7" gradientTransform="translate(11.38843 1.3713)"/>
  <linearGradient x2="0" gradientUnits="userSpaceOnUse" y2="90" y1="230" id="D" xlink:href="#5" gradientTransform="matrix(.25 0 0 .25 299.99999 131.99999)"/>
  <linearGradient x2="0" gradientUnits="userSpaceOnUse" y2="231" y1="273" xlink:href="#7" gradientTransform="translate(0 4.09376)"/>
  <clipPath>
   <rect height="30" rx="4" y="29" x="433" width="30" opacity="0.2" fill="#6d6d6d" color="#bebebe"/>
  </clipPath>
  <clipPath>
   <path d="m 440,126 c -3.31371,0 -6,2.68629 -6,6 0,3.31371 2.68629,6 6,6 3.31371,0 6,-2.68629 6,-6 0,-3.31371 -2.68629,-6 -6,-6 z m 0,3 c 1.65685,0 3,1.34315 3,3 0,1.65685 -1.34315,3 -3,3 -1.65685,0 -3,-1.34315 -3,-3 0,-1.65685 1.34315,-3 3,-3 z m 0,1 c -1.10457,0 -2,0.89543 -2,2 0,1.10457 0.89543,2 2,2 1.10457,0 2,-0.89543 2,-2 0,-1.10457 -0.89543,-2 -2,-2 z m 0,1 c 0.55228,0 1,0.44772 1,1 0,0.55228 -0.44772,1 -1,1 -0.55228,0 -1,-0.44772 -1,-1 0,-0.55228 0.44772,-1 1,-1 z"/>
  </clipPath>
  <clipPath>
   <rect transform="rotate(90)" height="42" rx="9" y="223" x="307" width="42" fill="url(#9)" color="#bebebe"/>
  </clipPath>
  <clipPath>
   <rect transform="matrix(0 -1 1 0 0 0)" height="60" rx="12.5" y="142" x="306" width="60" fill="url(#2)" color="#bebebe"/>
  </clipPath>
  <clipPath>
   <rect height="22" rx="3" y="77" x="433" width="22" opacity="0.2" fill="#6d6d6d" color="#bebebe"/>
  </clipPath>
  <clipPath>
   <path d="m 328,242.09376 c -7.73199,0 -14,6.26801 -14,14 0,7.73199 6.26801,14 14,14 7.73199,0 14,-6.26801 14,-14 0,-7.73199 -6.26801,-14 -14,-14 z m 0,9.90625 c 2.20914,0 4,1.79086 4,4 0,2.20914 -1.79086,4 -4,4 -2.20914,0 -4,-1.79086 -4,-4 0,-2.20914 1.79086,-4 4,-4 z m 0,1 c -1.65685,0 -3,1.34315 -3,3 0,1.65685 1.34315,3 3,3 1.65685,0 3,-1.34315 3,-3 0,-1.65685 -1.34315,-3 -3,-3 z m 0,1 c 1.10457,0 2,0.89543 2,2 0,1.10457 -0.89543,2 -2,2 -1.10457,0 -2,-0.89543 -2,-2 0,-1.10457 0.89543,-2 2,-2 z"/>
  </clipPath>
  <clipPath>
   <rect height="30" rx="6" y="29" x="433" width="30" color="#bebebe"/>
  </clipPath>
  <clipPath>
   <path d="m 328,238 c -7.73199,0 -14,6.26801 -14,14 0,7.73199 6.26801,14 14,14 7.73199,0 14,-6.26801 14,-14 0,-7.73199 -6.26801,-14 -14,-14 z m 0,8.75 c 2.89949,0 5.25,2.35051 5.25,5.25 0,2.89949 -2.35051,5.25 -5.25,5.25 -2.89949,0 -5.25,-2.35051 -5.25,-5.25 0,-2.89949 2.35051,-5.25 5.25,-5.25 z m 0,1.75 c -1.933,0 -3.5,1.567 -3.5,3.5 0,1.933 1.567,3.5 3.5,3.5 1.933,0 3.5,-1.567 3.5,-3.5 0,-1.933 -1.567,-3.5 -3.5,-3.5 z m 0,1.75 c 0.96649,0 1.75,0.78351 1.75,1.75 0,0.96649 -0.78351,1.75 -1.75,1.75 -0.96649,0 -1.75,-0.78351 -1.75,-1.75 0,-0.96649 0.78351,-1.75 1.75,-1.75 z"/>
  </clipPath>
  <clipPath>
   <path d="m 451.38843,133.3713 6.42857,4.71429 0,-11.57143 -6.42857,0 z"/>
  </clipPath>
  <clipPath>
   <rect height="90" rx="18.75" y="31" x="307" width="90" fill="url(#A)" color="#bebebe"/>
  </clipPath>
  <clipPath>
   <rect height="20" rx="4" y="78" x="434" width="20" color="#bebebe"/>
  </clipPath>
  <clipPath>
   <rect height="22" rx="4" y="77" x="433" width="22" color="#bebebe"/>
  </clipPath>
  <clipPath>
   <path d="m 328,242.09375 c -7.73199,0 -14,6.26801 -14,14 0,7.73199 6.26801,14 14,14 7.73199,0 14,-6.26801 14,-14 0,-7.73199 -6.26801,-14 -14,-14 z M 328,252 c 2.20914,0 4,1.79086 4,4 0,2.20914 -1.79086,4 -4,4 -2.20914,0 -4,-1.79086 -4,-4 0,-2.20914 1.79086,-4 4,-4 z m 0,1 c -1.65685,0 -3,1.34315 -3,3 0,1.65685 1.34315,3 3,3 1.65685,0 3,-1.34315 3,-3 0,-1.65685 -1.34315,-3 -3,-3 z m 0,1 c 1.10457,0 2,0.89543 2,2 0,1.10457 -0.89543,2 -2,2 -1.10457,0 -2,-0.89543 -2,-2 0,-1.10457 0.89543,-2 2,-2 z"/>
  </clipPath>
  <clipPath>
   <rect height="22" rx="5" y="77" x="433" width="22" color="#bebebe"/>
  </clipPath>
  <clipPath>
   <rect height="240" rx="50" y="36" x="24" width="240" fill="#986767" color="#bebebe"/>
  </clipPath>
  <clipPath>
   <path d="m 144.00001,75.999997 c -44.1828,0 -80,35.817203 -80,80.000003 0,44.1828 35.8172,80 80,80 44.1828,0 80,-35.8172 80,-80 0,-44.1828 -35.8172,-80.000003 -80,-80.000003 z m 0,56.607143 c 12.62366,0 22.85714,10.23349 22.85714,22.85714 0,12.62366 -10.23348,22.85714 -22.85714,22.85714 -12.62366,0 -22.85714,-10.23348 -22.85714,-22.85714 0,-12.62365 10.23348,-22.85714 22.85714,-22.85714 z m 0,5.71429 c -9.46771,0 -17.14286,7.67514 -17.14286,17.14285 0,9.46772 7.67515,17.14286 17.14286,17.14286 9.46771,0 17.14286,-7.67514 17.14286,-17.14286 0,-9.46771 -7.67515,-17.14285 -17.14286,-17.14285 z m 0,5.71428 c 6.31183,0 11.42857,5.11674 11.42857,11.42857 0,6.31183 -5.11674,11.42857 -11.42857,11.42857 -6.31183,0 -11.42857,-5.11674 -11.42857,-11.42857 0,-6.31183 5.11674,-11.42857 11.42857,-11.42857 z"/>
  </clipPath>
  <clipPath>
   <path d="m 451.38843,127.3713 c -3.31371,0 -6,2.68629 -6,6 0,3.31371 2.68629,6 6,6 3.31371,0 6,-2.68629 6,-6 0,-3.31371 -2.68629,-6 -6,-6 z m 0,3 c 1.65685,0 3,1.34315 3,3 0,1.65685 -1.34315,3 -3,3 -1.65685,0 -3,-1.34315 -3,-3 0,-1.65685 1.34315,-3 3,-3 z m 0,1 c -1.10457,0 -2,0.89543 -2,2 0,1.10457 0.89543,2 2,2 1.10457,0 2,-0.89543 2,-2 0,-1.10457 -0.89543,-2 -2,-2 z m 0,1 c 0.55228,0 1,0.44772 1,1 0,0.55228 -0.44772,1 -1,1 -0.55228,0 -1,-0.44772 -1,-1 0,-0.55228 0.44772,-1 1,-1 z"/>
  </clipPath>
  <clipPath>
   <rect height="16" rx="3" y="116" x="432" width="16" color="#bebebe"/>
  </clipPath>
  <clipPath>
   <path d="m 444,88 c -4.41828,0 -8,3.58172 -8,8 0,4.41828 3.58172,8 8,8 4.41828,0 8,-3.58172 8,-8 0,-4.41828 -3.58172,-8 -8,-8 z m 0,5 c 1.65685,0 3,1.34315 3,3 0,1.65685 -1.34315,3 -3,3 -1.65685,0 -3,-1.34315 -3,-3 0,-1.65685 1.34315,-3 3,-3 z m 0,1 c -1.10457,0 -2,0.89543 -2,2 0,1.10457 0.89543,2 2,2 1.10457,0 2,-0.89543 2,-2 0,-1.10457 -0.89543,-2 -2,-2 z m 0,1 c 0.55228,0 1,0.44772 1,1 0,0.55228 -0.44772,1 -1,1 -0.55228,0 -1,-0.44772 -1,-1 0,-0.55228 0.44772,-1 1,-1 z"/>
  </clipPath>
  <clipPath>
   <rect height="30" rx="4" y="29" x="433" width="30" opacity="0.2" fill="#6d6d6d" color="#bebebe"/>
  </clipPath>
  <clipPath>
   <path d="m 328,256 15,11 0,-27 -15,0 z"/>
  </clipPath>
  <clipPath>
   <path d="m 328,238 c -7.73199,0 -14,6.26801 -14,14 0,7.73199 6.26801,14 14,14 7.73199,0 14,-6.26801 14,-14 0,-7.73199 -6.26801,-14 -14,-14 z m 0,9.90625 c 2.20914,0 4,1.79086 4,4 0,2.20914 -1.79086,4 -4,4 -2.20914,0 -4,-1.79086 -4,-4 0,-2.20914 1.79086,-4 4,-4 z m 0,1 c -1.65685,0 -3,1.34315 -3,3 0,1.65685 1.34315,3 3,3 1.65685,0 3,-1.34315 3,-3 0,-1.65685 -1.34315,-3 -3,-3 z m 0,1 c 1.10457,0 2,0.89543 2,2 0,1.10457 -0.89543,2 -2,2 -1.10457,0 -2,-0.89543 -2,-2 0,-1.10457 0.89543,-2 2,-2 z"/>
  </clipPath>
  <clipPath>
   <rect height="16" rx="2" y="116" x="432" width="16" opacity="0.2" fill="#6d6d6d" color="#bebebe"/>
  </clipPath>
  <clipPath>
   <rect height="22" rx="5" y="77" x="433" width="22" color="#bebebe"/>
  </clipPath>
  <clipPath>
   <rect height="90" rx="18.75" y="31" x="307" width="90" fill="url(#B)" color="#bebebe"/>
  </clipPath>
  <clipPath>
   <rect height="16" rx="3" y="116" x="432" width="16" color="#bebebe"/>
  </clipPath>
  <clipPath>
   <rect height="22" rx="4" y="77" x="433" width="22" color="#bebebe"/>
  </clipPath>
  <clipPath>
   <rect height="30" rx="6" y="29" x="433" width="30" color="#bebebe"/>
  </clipPath>
  <clipPath>
   <rect height="240" rx="50" y="36" x="24" width="240" fill="#986767" color="#bebebe"/>
  </clipPath>
  <clipPath>
   <rect height="20" rx="4" y="78" x="434" width="20" color="#bebebe"/>
  </clipPath>
  <clipPath>
   <rect transform="matrix(0 -1 1 0 0 0)" height="60" rx="12.5" y="142" x="306" width="60" fill="url(#D)" color="#bebebe"/>
  </clipPath>
  <clipPath>
   <rect height="240" rx="50" y="36" x="24" width="240" fill="#986767" color="#bebebe"/>
  </clipPath>
  <clipPath>
   <rect height="16" rx="3" y="116" x="432" width="16" color="#bebebe"/>
  </clipPath>
  <clipPath>
   <rect height="22" rx="4" y="77" x="433" width="22" color="#bebebe"/>
  </clipPath>
  <clipPath>
   <rect height="30" rx="4" y="29" x="433" width="30" opacity="0.2" fill="#6d6d6d" color="#bebebe"/>
  </clipPath>
  <clipPath>
   <rect height="16" rx="2" y="116" x="432" width="16" opacity="0.2" fill="#6d6d6d" color="#bebebe"/>
  </clipPath>
  <clipPath>
   <rect height="22" rx="3" y="77" x="433" width="22" opacity="0.2" fill="#6d6d6d" color="#bebebe"/>
  </clipPath>
  <clipPath>
   <rect height="20" rx="4" y="78" x="434" width="20" color="#bebebe"/>
  </clipPath>
  <clipPath>
   <rect height="30" rx="6" y="29" x="433" width="30" color="#bebebe"/>
  </clipPath>
  <clipPath>
   <rect height="22" rx="5" y="77" x="433" width="22" color="#bebebe"/>
  </clipPath>
  <clipPath>
   <rect height="22" rx="3" y="77" x="433" width="22" opacity="0.2" fill="#6d6d6d" color="#bebebe"/>
  </clipPath>
  <clipPath>
   <rect transform="rotate(90)" height="42" rx="9" y="223" x="307" width="42" fill="url(#4)" color="#bebebe"/>
  </clipPath>
  <clipPath>
   <rect height="16" rx="2" y="116" x="432" width="16" opacity="0.2" fill="#6d6d6d" color="#bebebe"/>
  </clipPath>
  <clipPath>
   <rect transform="matrix(0 -1 1 0 0 0)" height="60" rx="12.5" y="142" x="306" width="60" fill="url(#3)" color="#bebebe"/>
  </clipPath>
  <clipPath>
   <rect transform="rotate(90)" height="42" rx="9" y="223" x="307" width="42" fill="url(#C)" color="#bebebe"/>
  </clipPath>
  <clipPath>
   <rect height="90" rx="18.75" y="31" x="307" width="90" fill="url(#6)" color="#bebebe"/>
  </clipPath>
  <linearGradient gradientTransform="matrix(0.28222223,0,0,0.28222223,0,-283.45334)" xlink:href="#1" id="E" y1="1050.36" x2="0" y2="1006.36" gradientUnits="userSpaceOnUse"/>
 </defs>
 <g transform="matrix(0.28222223,0,0,0.28222223,0,-283.45334)">
  <path transform="translate(0,1004.3622)" d="M 5.1875,1 C 2.8707723,1 1,2.8707723 1,5.1875 l 0,37.625 C 1,45.129228 2.8707723,47 5.1875,47 l 37.625,0 C 45.129228,47 47,45.129228 47,42.8125 L 47,5.1875 C 47,2.8707723 45.129228,1 42.8125,1 L 5.1875,1 z m 0.1875,0.25 37.25,0 c 2.291546,0 4.125,1.8334541 4.125,4.125 l 0,37.25 c 0,2.291546 -1.833454,4.125 -4.125,4.125 l -37.25,0 C 3.0834541,46.75 1.25,44.916546 1.25,42.625 l 0,-37.25 C 1.25,3.0834541 3.0834541,1.25 5.375,1.25 z" opacity="0.05"/>
  <path transform="translate(0,1004.3622)" d="M 5.375,1.25 C 3.0834541,1.25 1.25,3.0834541 1.25,5.375 l 0,37.25 c 0,2.291546 1.8334541,4.125 4.125,4.125 l 37.25,0 c 2.291546,0 4.125,-1.833454 4.125,-4.125 l 0,-37.25 C 46.75,3.0834541 44.916546,1.25 42.625,1.25 l -37.25,0 z m 0.21875,0.25 36.8125,0 C 44.672614,1.5 46.5,3.3273859 46.5,5.59375 l 0,36.8125 C 46.5,44.672614 44.672614,46.5 42.40625,46.5 l -36.8125,0 C 3.3273859,46.5 1.5,44.672614 1.5,42.40625 l 0,-36.8125 C 1.5,3.3273859 3.3273859,1.5 5.59375,1.5 z" opacity="0.1"/>
  <path transform="translate(0,1004.3622)" d="M 5.59375,1.5 C 3.3273859,1.5 1.5,3.3273859 1.5,5.59375 l 0,36.8125 C 1.5,44.672614 3.3273859,46.5 5.59375,46.5 l 36.8125,0 C 44.672614,46.5 46.5,44.672614 46.5,42.40625 l 0,-36.8125 C 46.5,3.3273859 44.672614,1.5 42.40625,1.5 l -36.8125,0 z m 0.09375,0.125 36.625,0 c 2.253773,0 4.0625,1.8087269 4.0625,4.0625 l 0,36.625 c 0,2.253773 -1.808727,4.0625 -4.0625,4.0625 l -36.625,0 c -2.2537731,0 -4.0625,-1.808727 -4.0625,-4.0625 l 0,-36.625 C 1.625,3.4337269 3.4337269,1.625 5.6875,1.625 z" opacity="0.2"/>
  <path transform="translate(0,1004.3622)" d="M 5.6875,1.625 C 3.4337269,1.625 1.625,3.4337269 1.625,5.6875 l 0,36.625 c 0,2.253773 1.8087269,4.0625 4.0625,4.0625 l 36.625,0 c 2.253773,0 4.0625,-1.808727 4.0625,-4.0625 l 0,-36.625 c 0,-2.2537731 -1.808727,-4.0625 -4.0625,-4.0625 l -36.625,0 z m 0.09375,0.125 36.4375,0 c 2.241182,0 4.03125,1.7900679 4.03125,4.03125 l 0,36.4375 c 0,2.241182 -1.790068,4.03125 -4.03125,4.03125 l -36.4375,0 C 3.5400679,46.25 1.75,44.459932 1.75,42.21875 l 0,-36.4375 C 1.75,3.5400679 3.5400679,1.75 5.78125,1.75 z" opacity="0.3"/>
  <path transform="translate(0,1004.3622)" d="M 5.78125,1.75 C 3.5400679,1.75 1.75,3.5400679 1.75,5.78125 l 0,36.4375 c 0,2.241182 1.7900679,4.03125 4.03125,4.03125 l 36.4375,0 c 2.241182,0 4.03125,-1.790068 4.03125,-4.03125 l 0,-36.4375 C 46.25,3.5400679 44.459932,1.75 42.21875,1.75 l -36.4375,0 z m 0.125,0.125 36.1875,0 c 2.228591,0 4.03125,1.802659 4.03125,4.03125 l 0,36.1875 c 0,2.228591 -1.802659,4.03125 -4.03125,4.03125 l -36.1875,0 C 3.677659,46.125 1.875,44.322341 1.875,42.09375 l 0,-36.1875 C 1.875,3.677659 3.677659,1.875 5.90625,1.875 z" opacity="0.4"/>
  <rect width="44.25" height="44.25" x="1.875" y="1006.24" rx="4.02" opacity="0.5"/>
 </g>
 <rect width="12.418" height="12.418" x="0.564" y="0.564" rx="1.129" fill="url(#E)"/>
 <path d="m 3.3866668,3.8805557 c 2.2577778,-1.4111112 4.5155556,-1.4111112 6.7733342,-10e-8 L 9.5955558,4.4450001 c -1.9755556,-1.1288889 -3.668889,-1.1288889 -5.6444446,0 z" fill="#00355f"/>
 <path transform="matrix(0.17177733,0,0,0.14241368,4.536829,-0.06930997)" d="m 9.6544714,30.799797 a 2.4644308,2.9725609 0 1 1 -4.9288616,0 2.4644308,2.9725609 0 1 1 4.9288616,0 z" fill="#f9f9f9" id="0"/>
 <path d="M 6.7330052,3.386722 C 6.4537107,3.387992 6.1869927,3.411564 5.9523072,3.452636 5.2609537,3.573441 5.1354307,3.8262968 5.1354307,4.2926058 l 0,0.6158553 1.6337525,0 0,0.2052811 -1.6337525,0 -0.6131335,0 c -0.4748129,0 -0.8905739,0.282272 -1.0206179,0.819256 -0.150005,0.6154998 -0.156659,0.9995867 0,1.6422728 0.116132,0.4783865 0.393473,0.81925 0.8682869,0.81925 l 0.481469,0 0,-0.8176469 c 0,-0.533356 0.4665695,-1.0038174 1.02062,-1.0038174 l 1.7121005,0 c 0.4542485,0 0.883753,-0.3699302 0.883753,-0.8211364 l 0,-1.4593145 c 0,-0.4379173 -0.4403915,-0.7668841 -0.883753,-0.8399698 C 7.3035017,3.406429 7.0122982,3.385438 6.7330052,3.386722 z m -0.883522,0.4953155 c 0.168755,0 0.3065675,0.1385355 0.3065675,0.3088678 -1e-6,0.1697357 -0.1378125,0.3069875 -0.3065675,0.3069875 -0.16936,0 -0.306566,-0.1372518 -0.306566,-0.3069875 0,-0.1703323 0.137206,-0.3088678 0.306566,-0.3088678 z" fill="#95a1aa"/>
 <use transform="matrix(1 0 0 1 1.976 5.08)" xlink:href="#0"/>
 <path d="m 8.6984017,5.1137421 0,0.7175557 c 0,0.5563055 -0.4768515,0.9583942 -1.020619,0.9583942 l -1.7923525,0 c -0.4469905,0 -0.8168755,0.4445286 -0.8168755,0.8872793 l 0,1.538686 c 0,0.4379233 0.385006,0.695498 0.8168755,0.8211357 0.5171545,0.150402 1.079955,0.177589 1.6987255,0 0.4113035,-0.1177849 0.816877,-0.3548267 0.816876,-0.8211357 l 0,-0.6158493 -1.6318485,0 0,-0.2052871 1.6318485,0 0.8168765,0 c 0.4748145,0 0.6517495,-0.3275746 0.8168758,-0.81925 0.17057,-0.5061756 0.163313,-0.9929452 0,-1.6422728 C 9.9174417,5.4654777 9.6933267,5.1137421 9.2179082,5.1137421 z m -1.011423,3.8966341 c 0.1693605,0 0.3065675,0.1372518 0.3065675,0.3069815 -1e-6,0.1703383 -0.137207,0.3088678 -0.3065675,0.3088678 -0.168755,0 -0.306566,-0.1385295 -0.306566,-0.3088678 0,-0.1697297 0.13781,-0.3069815 0.306566,-0.3069815 z" fill="#95a1aa"/>
</svg>
