<svg xmlns="http://www.w3.org/2000/svg" width="48" height="48">
 <g transform="translate(0,-1004.3622)">
  <g>
   <path transform="translate(0,1004.3622)" d="M 5.1875 1 C 2.8707723 1 1 2.8707723 1 5.1875 L 1 42.8125 C 1 45.129228 2.8707723 47 5.1875 47 L 42.8125 47 C 45.129228 47 47 45.129228 47 42.8125 L 47 5.1875 C 47 2.8707723 45.129228 1 42.8125 1 L 5.1875 1 z M 5.375 1.25 L 42.625 1.25 C 44.916546 1.25 46.75 3.0834541 46.75 5.375 L 46.75 42.625 C 46.75 44.916546 44.916546 46.75 42.625 46.75 L 5.375 46.75 C 3.0834541 46.75 1.25 44.916546 1.25 42.625 L 1.25 5.375 C 1.25 3.0834541 3.0834541 1.25 5.375 1.25 z " opacity="0.05"/>
   <path transform="translate(0,1004.3622)" d="M 5.375 1.25 C 3.0834541 1.25 1.25 3.0834541 1.25 5.375 L 1.25 42.625 C 1.25 44.916546 3.0834541 46.75 5.375 46.75 L 42.625 46.75 C 44.916546 46.75 46.75 44.916546 46.75 42.625 L 46.75 5.375 C 46.75 3.0834541 44.916546 1.25 42.625 1.25 L 5.375 1.25 z M 5.59375 1.5 L 42.40625 1.5 C 44.672614 1.5 46.5 3.3273859 46.5 5.59375 L 46.5 42.40625 C 46.5 44.672614 44.672614 46.5 42.40625 46.5 L 5.59375 46.5 C 3.3273859 46.5 1.5 44.672614 1.5 42.40625 L 1.5 5.59375 C 1.5 3.3273859 3.3273859 1.5 5.59375 1.5 z " opacity="0.1"/>
   <path transform="translate(0,1004.3622)" d="M 5.59375 1.5 C 3.3273859 1.5 1.5 3.3273859 1.5 5.59375 L 1.5 42.40625 C 1.5 44.672614 3.3273859 46.5 5.59375 46.5 L 42.40625 46.5 C 44.672614 46.5 46.5 44.672614 46.5 42.40625 L 46.5 5.59375 C 46.5 3.3273859 44.672614 1.5 42.40625 1.5 L 5.59375 1.5 z M 5.6875 1.625 L 42.3125 1.625 C 44.566273 1.625 46.375 3.4337269 46.375 5.6875 L 46.375 42.3125 C 46.375 44.566273 44.566273 46.375 42.3125 46.375 L 5.6875 46.375 C 3.4337269 46.375 1.625 44.566273 1.625 42.3125 L 1.625 5.6875 C 1.625 3.4337269 3.4337269 1.625 5.6875 1.625 z " opacity="0.2"/>
   <path transform="translate(0,1004.3622)" d="M 5.6875 1.625 C 3.4337269 1.625 1.625 3.4337269 1.625 5.6875 L 1.625 42.3125 C 1.625 44.566273 3.4337269 46.375 5.6875 46.375 L 42.3125 46.375 C 44.566273 46.375 46.375 44.566273 46.375 42.3125 L 46.375 5.6875 C 46.375 3.4337269 44.566273 1.625 42.3125 1.625 L 5.6875 1.625 z M 5.78125 1.75 L 42.21875 1.75 C 44.459932 1.75 46.25 3.5400679 46.25 5.78125 L 46.25 42.21875 C 46.25 44.459932 44.459932 46.25 42.21875 46.25 L 5.78125 46.25 C 3.5400679 46.25 1.75 44.459932 1.75 42.21875 L 1.75 5.78125 C 1.75 3.5400679 3.5400679 1.75 5.78125 1.75 z " opacity="0.3"/>
   <path transform="translate(0,1004.3622)" d="M 5.78125 1.75 C 3.5400679 1.75 1.75 3.5400679 1.75 5.78125 L 1.75 42.21875 C 1.75 44.459932 3.5400679 46.25 5.78125 46.25 L 42.21875 46.25 C 44.459932 46.25 46.25 44.459932 46.25 42.21875 L 46.25 5.78125 C 46.25 3.5400679 44.459932 1.75 42.21875 1.75 L 5.78125 1.75 z M 5.90625 1.875 L 42.09375 1.875 C 44.322341 1.875 46.125 3.677659 46.125 5.90625 L 46.125 42.09375 C 46.125 44.322341 44.322341 46.125 42.09375 46.125 L 5.90625 46.125 C 3.677659 46.125 1.875 44.322341 1.875 42.09375 L 1.875 5.90625 C 1.875 3.677659 3.677659 1.875 5.90625 1.875 z " opacity="0.4"/>
   <rect width="44.25" height="44.25" x="1.875" y="1006.24" rx="4.02" opacity="0.5"/>
  </g>
  <rect width="44" height="44" x="2" y="1006.36" rx="4" fill="#f4b400"/>
  <path d="m 24.011692,1016.3622 c -2.893365,0 -5.736398,1.2975 -7.47292,3.6905 -2.712472,3.7378 -1.739675,8.7971 2.136948,11.4405 l 0,7.869 1.32428,0 0,1 8,0 0,-1 1.322078,0 0,-7.869 c 0.832504,-0.5696 1.557478,-1.2611 2.136947,-2.0596 2.778435,-3.8288 1.696971,-9.0461 -2.418463,-11.631 -1.543287,-0.9693 -3.292848,-1.4417 -5.02887,-1.4404 z m -0.01276,1.5238 c 1.417195,4e-4 2.852178,0.382 4.120345,1.1785 3.381793,2.1241 4.266532,6.3657 1.983398,9.512 -0.525763,0.7244 -1.192844,1.3547 -1.970614,1.8452 l -0.132066,1.9405 -8,0 -0.121188,-1.9405 c -3.381793,-2.1241 -4.266535,-6.3657 -1.983398,-9.5119 1.42696,-1.9664 3.741753,-3.0247 6.103739,-3.0238 z m -3.998936,15.4762 8,0 0,2 -8,0 z m 0,3 8,0 0,1.7143 -8,0 z" fill="#f9f9f9" color="#000000"/>
 </g>
</svg>
