<svg viewBox="0 0 48 48"><defs><linearGradient id="linearGradient3764" x1="1" x2="47" gradientUnits="userSpaceOnUse" gradientTransform="translate(-47.997785,0.00221467)"><stop stop-color="#e4e4e4" stop-opacity="1"/><stop offset="1" stop-color="#eee" stop-opacity="1"/></linearGradient><clipPath id="clipPath-941742049"><g transform="translate(0,-1004.3622)"><rect rx="4" y="1005.36" x="1" height="46" width="46" fill="#1890d0"/></g></clipPath><clipPath id="clipPath-953781884"><g transform="translate(0,-1004.3622)"><rect rx="4" y="1005.36" x="1" height="46" width="46" fill="#1890d0"/></g></clipPath><linearGradient id="linear0" gradientUnits="userSpaceOnUse" y1="3" x2="0" y2="45"><stop stop-color="#fb753d" stop-opacity="1"/><stop offset="1" stop-color="#ff4c69" stop-opacity="1"/></linearGradient><linearGradient id="linear0" gradientUnits="userSpaceOnUse" y1="3" x2="0" y2="45"><stop stop-color="#fb753d" stop-opacity="1"/><stop offset="1" stop-color="#ff4c69" stop-opacity="1"/></linearGradient></defs><g><g transform="translate(0,-1004.3622)"><path d="m 5 1006.36 c -2.216 0 -4 1.784 -4 4 l 0 37.25 c 0 2.216 1.784 4 4 4 l 38 0 c 2.216 0 4 -1.784 4 -4 l 0 -37.25 c 0 -2.216 -1.784 -4 -4 -4 l -38 0 z m -4 41.5 0 0.5 c 0 2.216 1.784 4 4 4 l 38 0 c 2.216 0 4 -1.784 4 -4 l 0 -0.5 c 0 2.216 -1.784 4 -4 4 l -38 0 c -2.216 0 -4 -1.784 -4 -4 z" opacity="0.02"/><path d="m 1 1047.61 0 0.25 c 0 2.216 1.784 4 4 4 l 38 0 c 2.216 0 4 -1.784 4 -4 l 0 -0.25 c 0 2.216 -1.784 4 -4 4 l -38 0 c -2.216 0 -4 -1.784 -4 -4 z" opacity="0.05"/><rect width="46" height="46" x="1" y="1005.61" rx="4" opacity="0.1"/></g></g><g><rect width="46" height="46" x="-46.998" y="1" rx="4" transform="matrix(0,-1,1,0,0,0)" fill="url(#linearGradient3764)" fill-opacity="1"/></g><g/><g><g clip-path="url(#clipPath-941742049)"><g opacity="0.1"><!-- color: #eeeeee --><g><path d="m 24 1 c 12.699 0 23 10.297 23 23 c 0 12.699 -10.301 23 -23 23 c -12.703 0 -23 -10.301 -23 -23 c 0 -12.703 10.297 -23 23 -23 m 0 0" fill="#000" stroke="none" fill-rule="evenodd" fill-opacity="0.502"/><path d="m 48 0 c -3.191 0 -44 0 -48 0 c 0 3 0 15.559 0 24 l 48 0 c 0 -11.633 0 -18 0 -24 m -48 27 c 0 1 0 3 0 4 l 48 0 c 0 -1 0 -3 0 -4 m -48 7 c 0 1 0 3 0 4 l 48 0 c 0 -2 0 -2 0 -4 m -48 7 c 0 3 0 4 0 7 c 1.66 0 42 0 48 0 c 0 -2 0 -5 0 -7 m -48 0" fill="#000" stroke="none" fill-rule="evenodd"/></g></g></g></g><g><g clip-path="url(#clipPath-953781884)"><g transform="translate(0,-1)"><!-- color: #eeeeee --><g><path d="m 24 1 c 12.699 0 23 10.297 23 23 c 0 12.699 -10.301 23 -23 23 c -12.703 0 -23 -10.301 -23 -23 c 0 -12.703 10.297 -23 23 -23 m 0 0" fill="#fff" stroke="none" fill-rule="evenodd" fill-opacity="0.502"/><path d="m 48 0 c -3.191 0 -44 0 -48 0 c 0 3 0 15.559 0 24 l 48 0 c 0 -11.633 0 -18 0 -24 m -48 27 c 0 1 0 3 0 4 l 48 0 c 0 -1 0 -3 0 -4 m -48 7 c 0 1 0 3 0 4 l 48 0 c 0 -2 0 -2 0 -4 m -48 7 c 0 3 0 4 0 7 c 1.66 0 42 0 48 0 c 0 -2 0 -5 0 -7 m -48 0" fill="url(#linear0)" stroke="none" fill-rule="evenodd"/></g></g></g></g><g><g transform="translate(0,-1004.3622)"><path d="m 1 1043.36 0 4 c 0 2.216 1.784 4 4 4 l 38 0 c 2.216 0 4 -1.784 4 -4 l 0 -4 c 0 2.216 -1.784 4 -4 4 l -38 0 c -2.216 0 -4 -1.784 -4 -4 z" opacity="0.1"/></g></g></svg>