<svg xmlns="http://www.w3.org/2000/svg" xmlns:xlink="http://www.w3.org/1999/xlink" width="48" viewBox="0 0 13.546667 13.546667" height="48">
 <defs>
  <linearGradient id="0">
   <stop stop-color="#d05a60"/>
   <stop offset="1" stop-color="#ab1a22"/>
  </linearGradient>
  <linearGradient gradientTransform="matrix(0.28222223,0,0,0.28222223,-13.546667,-296.99999)" xlink:href="#0" id="1" y1="1050.36" x2="0" y2="1006.36" gradientUnits="userSpaceOnUse"/>
 </defs>
 <g transform="matrix(0.28222223,0,0,0.28222223,-2.0000005e-8,-283.45334)">
  <path transform="translate(0,1004.3622)" d="M 5.1875,1 C 2.8707723,1 1,2.8707723 1,5.1875 l 0,37.625 C 1,45.129228 2.8707723,47 5.1875,47 l 37.625,0 C 45.129228,47 47,45.129228 47,42.8125 L 47,5.1875 C 47,2.8707723 45.129228,1 42.8125,1 L 5.1875,1 z m 0.1875,0.25 37.25,0 c 2.291546,0 4.125,1.8334541 4.125,4.125 l 0,37.25 c 0,2.291546 -1.833454,4.125 -4.125,4.125 l -37.25,0 C 3.0834541,46.75 1.25,44.916546 1.25,42.625 l 0,-37.25 C 1.25,3.0834541 3.0834541,1.25 5.375,1.25 z" opacity="0.05"/>
  <path transform="translate(0,1004.3622)" d="M 5.375,1.25 C 3.0834541,1.25 1.25,3.0834541 1.25,5.375 l 0,37.25 c 0,2.291546 1.8334541,4.125 4.125,4.125 l 37.25,0 c 2.291546,0 4.125,-1.833454 4.125,-4.125 l 0,-37.25 C 46.75,3.0834541 44.916546,1.25 42.625,1.25 l -37.25,0 z m 0.21875,0.25 36.8125,0 C 44.672614,1.5 46.5,3.3273859 46.5,5.59375 l 0,36.8125 C 46.5,44.672614 44.672614,46.5 42.40625,46.5 l -36.8125,0 C 3.3273859,46.5 1.5,44.672614 1.5,42.40625 l 0,-36.8125 C 1.5,3.3273859 3.3273859,1.5 5.59375,1.5 z" opacity="0.1"/>
  <path transform="translate(0,1004.3622)" d="M 5.59375,1.5 C 3.3273859,1.5 1.5,3.3273859 1.5,5.59375 l 0,36.8125 C 1.5,44.672614 3.3273859,46.5 5.59375,46.5 l 36.8125,0 C 44.672614,46.5 46.5,44.672614 46.5,42.40625 l 0,-36.8125 C 46.5,3.3273859 44.672614,1.5 42.40625,1.5 l -36.8125,0 z m 0.09375,0.125 36.625,0 c 2.253773,0 4.0625,1.8087269 4.0625,4.0625 l 0,36.625 c 0,2.253773 -1.808727,4.0625 -4.0625,4.0625 l -36.625,0 c -2.2537731,0 -4.0625,-1.808727 -4.0625,-4.0625 l 0,-36.625 C 1.625,3.4337269 3.4337269,1.625 5.6875,1.625 z" opacity="0.2"/>
  <path transform="translate(0,1004.3622)" d="M 5.6875,1.625 C 3.4337269,1.625 1.625,3.4337269 1.625,5.6875 l 0,36.625 c 0,2.253773 1.8087269,4.0625 4.0625,4.0625 l 36.625,0 c 2.253773,0 4.0625,-1.808727 4.0625,-4.0625 l 0,-36.625 c 0,-2.2537731 -1.808727,-4.0625 -4.0625,-4.0625 l -36.625,0 z m 0.09375,0.125 36.4375,0 c 2.241182,0 4.03125,1.7900679 4.03125,4.03125 l 0,36.4375 c 0,2.241182 -1.790068,4.03125 -4.03125,4.03125 l -36.4375,0 C 3.5400679,46.25 1.75,44.459932 1.75,42.21875 l 0,-36.4375 C 1.75,3.5400679 3.5400679,1.75 5.78125,1.75 z" opacity="0.3"/>
  <path transform="translate(0,1004.3622)" d="M 5.78125,1.75 C 3.5400679,1.75 1.75,3.5400679 1.75,5.78125 l 0,36.4375 c 0,2.241182 1.7900679,4.03125 4.03125,4.03125 l 36.4375,0 c 2.241182,0 4.03125,-1.790068 4.03125,-4.03125 l 0,-36.4375 C 46.25,3.5400679 44.459932,1.75 42.21875,1.75 l -36.4375,0 z m 0.125,0.125 36.1875,0 c 2.228591,0 4.03125,1.802659 4.03125,4.03125 l 0,36.1875 c 0,2.228591 -1.802659,4.03125 -4.03125,4.03125 l -36.1875,0 C 3.677659,46.125 1.875,44.322341 1.875,42.09375 l 0,-36.1875 C 1.875,3.677659 3.677659,1.875 5.90625,1.875 z" opacity="0.4"/>
  <rect width="44.25" height="44.25" x="1.875" y="1006.24" rx="4.02" opacity="0.5"/>
 </g>
 <rect width="12.418" height="12.418" x="-12.982" y="-12.982" rx="1.129" transform="scale(-1,-1)" fill="url(#1)"/>
 <path d="M 4.8487551,9.0208574 C 4.6909215,8.8547489 4.2692703,7.8348368 3.91175,6.7543857 3.3586191,5.0827883 3.2943854,4.7492942 3.4808789,4.5173354 3.7539874,4.177644 4.2124421,4.166113 4.4747237,4.4923384 4.5842108,4.628518 4.796175,5.1654915 4.9457526,5.6856127 5.0953321,6.2057338 5.2895449,6.6332008 5.3773379,6.6355398 5.4651299,6.6379398 5.691063,6.1633678 5.8794102,5.5810726 6.4687427,3.759086 7.0926227,3.7845234 7.737832,5.6568466 c 0.2135952,0.619828 0.4424669,1.1269611 0.5086023,1.1269611 0.066134,0 0.2493024,-0.4921431 0.4070352,-1.093652 C 8.9566941,4.5338207 9.2074576,4.1810424 9.6607648,4.2730794 10.330284,4.4090157 10.327678,4.8449362 9.6451648,6.8813727 8.9304678,9.0138555 8.6530049,9.4211465 8.0256881,9.2586225 7.6567668,9.1630424 7.3613757,8.6040698 7.0085824,7.3339398 6.8810877,6.8749327 6.6224128,7.1664287 6.3737785,8.0492858 6.0330524,9.2591495 5.4363654,9.6392915 4.8487503,9.0208574 z" fill="none" stroke="#f9f9f9" stroke-width="0.564"/>
 <path d="M 4.8487551,9.0208574 C 4.6909215,8.8547489 4.2692703,7.8348368 3.91175,6.7543857 3.3586191,5.0827883 3.2943854,4.7492942 3.4808789,4.5173354 3.7539874,4.177644 4.2124421,4.166113 4.4747237,4.4923384 4.5842108,4.628518 4.796175,5.1654915 4.9457526,5.6856127 5.0953321,6.2057338 5.2895449,6.6332008 5.3773379,6.6355398 5.4651299,6.6379398 5.691063,6.1633678 5.8794102,5.5810726 6.4687427,3.759086 7.0926227,3.7845234 7.737832,5.6568466 c 0.2135952,0.619828 0.4424669,1.1269611 0.5086023,1.1269611 0.066134,0 0.2493024,-0.4921431 0.4070352,-1.093652 C 8.9566941,4.5338207 9.2074576,4.1810424 9.6607648,4.2730794 10.330284,4.4090157 10.327678,4.8449362 9.6451648,6.8813727 8.9304678,9.0138555 8.6530049,9.4211465 8.0256881,9.2586225 7.6567668,9.1630424 7.3613757,8.6040698 7.0085824,7.3339398 6.8810877,6.8749327 6.6224128,7.1664287 6.3737785,8.0492858 6.0330524,9.2591495 5.4363654,9.6392915 4.8487503,9.0208574 z" fill="#f90"/>
</svg>
