<svg viewBox="0 0 48 48"><defs><linearGradient id="linearGradient3764" x1="1" x2="47" gradientUnits="userSpaceOnUse" gradientTransform="translate(-47.997785,0.00221467)"><stop stop-color="#24a3de" stop-opacity="1"/><stop offset="1" stop-color="#35ace1" stop-opacity="1"/></linearGradient><clipPath id="clipPath-370045248"><g transform="translate(0,-1004.3622)"><rect rx="4" y="1005.36" x="1" height="46" width="46" fill="#1890d0"/></g></clipPath><clipPath id="clipPath-386634453"><g transform="translate(0,-1004.3622)"><rect rx="4" y="1005.36" x="1" height="46" width="46" fill="#1890d0"/></g></clipPath></defs><g><g transform="translate(0,-1004.3622)"><path d="m 5 1006.36 c -2.216 0 -4 1.784 -4 4 l 0 37.25 c 0 2.216 1.784 4 4 4 l 38 0 c 2.216 0 4 -1.784 4 -4 l 0 -37.25 c 0 -2.216 -1.784 -4 -4 -4 l -38 0 z m -4 41.5 0 0.5 c 0 2.216 1.784 4 4 4 l 38 0 c 2.216 0 4 -1.784 4 -4 l 0 -0.5 c 0 2.216 -1.784 4 -4 4 l -38 0 c -2.216 0 -4 -1.784 -4 -4 z" opacity="0.02"/><path d="m 1 1047.61 0 0.25 c 0 2.216 1.784 4 4 4 l 38 0 c 2.216 0 4 -1.784 4 -4 l 0 -0.25 c 0 2.216 -1.784 4 -4 4 l -38 0 c -2.216 0 -4 -1.784 -4 -4 z" opacity="0.05"/><rect width="46" height="46" x="1" y="1005.61" rx="4" opacity="0.1"/></g></g><g><rect width="46" height="46" x="-46.998" y="1" rx="4" transform="matrix(0,-1,1,0,0,0)" fill="url(#linearGradient3764)" fill-opacity="1"/></g><g/><g><g clip-path="url(#clipPath-370045248)"><g opacity="0.1"><!-- color: #35ace1 --><g><path d="m 30.875 12 c -0.637 0.039 -1.52 0.258 -3.156 0.656 c -4.27 1.035 -5.594 1.055 -9.188 0.188 c -2.625 -0.633 -2.758 -0.625 -3.563 0.063 c -1.043 0.891 -1.047 2.398 -0.063 4.75 c 0.414 0.988 1.141 3.309 1.625 5.188 c 1.047 4.086 2.398 6.438 4.219 7.281 c 3.262 1.879 5.164 -0.109 6.188 -1 c 1.25 -1.238 2.01 -2.547 3.03 -5.281 c 1.422 -3.813 1.98 -5.03 3.438 -7.344 c 1.07 -1.711 0.684 -3.219 -1.031 -4.125 c -0.504 -0.266 -0.867 -0.414 -1.5 -0.375 m -3.594 5.813 c 0.785 -0.039 1.484 0.648 1.75 1.969 c 0.359 1.816 -0.402 3.316 -1.656 3.316 c -0.566 0 -1.363 -0.359 -1.813 -0.781 c -1 -0.938 -1.035 -1.645 -0.125 -3.094 c 0.57 -0.906 1.227 -1.375 1.844 -1.406 m -7.969 0.719 c 1 0.059 1.961 1.801 1.531 2.941 c -0.52 1.363 -1.238 1.457 -2.031 0.313 c -0.824 -1.184 -0.664 -3.047 0.281 -3.219 c 0.063 -0.012 0.145 -0.035 0.219 -0.031 m -5.316 6.469 l 0 11 l 18 0 l 0 -9 c -7 8 -13 8 -18 -2 m 9.281 0 c 1.379 0 2.469 1.121 2.469 2.5 c 0 1.383 -1.09 2.5 -2.469 2.5 c -1.383 0 -2.844 -2.055 -2.844 -3.438 c 0 -1.379 1.461 -1.563 2.844 -1.563 m 0 0" fill="#000" stroke="none" fill-rule="nonzero" fill-opacity="1"/></g></g></g></g><g><g clip-path="url(#clipPath-386634453)"><g transform="translate(0,-1)"><!-- color: #35ace1 --><g><path d="m 30.875 12 c -0.637 0.039 -1.52 0.258 -3.156 0.656 c -4.27 1.035 -5.594 1.055 -9.188 0.188 c -2.625 -0.633 -2.758 -0.625 -3.563 0.063 c -1.043 0.891 -1.047 2.398 -0.063 4.75 c 0.414 0.988 1.141 3.309 1.625 5.188 c 1.047 4.086 2.398 6.438 4.219 7.281 c 3.262 1.879 5.164 -0.109 6.188 -1 c 1.25 -1.238 2.01 -2.547 3.03 -5.281 c 1.422 -3.813 1.98 -5.03 3.438 -7.344 c 1.07 -1.711 0.684 -3.219 -1.031 -4.125 c -0.504 -0.266 -0.867 -0.414 -1.5 -0.375 m -3.594 5.813 c 0.785 -0.039 1.484 0.648 1.75 1.969 c 0.359 1.816 -0.402 3.316 -1.656 3.316 c -0.566 0 -1.363 -0.359 -1.813 -0.781 c -1 -0.938 -1.035 -1.645 -0.125 -3.094 c 0.57 -0.906 1.227 -1.375 1.844 -1.406 m -7.969 0.719 c 1 0.059 1.961 1.801 1.531 2.941 c -0.52 1.363 -1.238 1.457 -2.031 0.313 c -0.824 -1.184 -0.664 -3.047 0.281 -3.219 c 0.063 -0.012 0.145 -0.035 0.219 -0.031 m -5.316 6.469 l 0 11 l 18 0 l 0 -9 c -7 8 -13 8 -18 -2 m 9.281 0 c 1.379 0 2.469 1.121 2.469 2.5 c 0 1.383 -1.09 2.5 -2.469 2.5 c -1.383 0 -2.844 -2.055 -2.844 -3.438 c 0 -1.379 1.461 -1.563 2.844 -1.563 m 0 0" fill="#f9f9f9" stroke="none" fill-rule="nonzero" fill-opacity="1"/></g></g></g></g><g><g transform="translate(0,-1004.3622)"><path d="m 1 1043.36 0 4 c 0 2.216 1.784 4 4 4 l 38 0 c 2.216 0 4 -1.784 4 -4 l 0 -4 c 0 2.216 -1.784 4 -4 4 l -38 0 c -2.216 0 -4 -1.784 -4 -4 z" opacity="0.1"/></g></g></svg>