<svg xmlns="http://www.w3.org/2000/svg" xmlns:xlink="http://www.w3.org/1999/xlink" width="48" height="48">
 <defs>
  <linearGradient xlink:href="#1" id="0" y1="1050.36" x2="0" y2="1006.36" gradientUnits="userSpaceOnUse" gradientTransform="translate(-47.999983,-2056.7244)"/>
  <linearGradient id="1">
   <stop stop-color="#f7b547"/>
   <stop offset="1" stop-color="#f0a62c"/>
  </linearGradient>
 </defs>
 <g transform="translate(0,-1004.3622)">
  <g>
   <path transform="translate(0,1004.3622)" d="M 5.1875 1 C 2.8707723 1 1 2.8707723 1 5.1875 L 1 42.8125 C 1 45.129228 2.8707723 47 5.1875 47 L 42.8125 47 C 45.129228 47 47 45.129228 47 42.8125 L 47 5.1875 C 47 2.8707723 45.129228 1 42.8125 1 L 5.1875 1 z M 5.375 1.25 L 42.625 1.25 C 44.916546 1.25 46.75 3.0834541 46.75 5.375 L 46.75 42.625 C 46.75 44.916546 44.916546 46.75 42.625 46.75 L 5.375 46.75 C 3.0834541 46.75 1.25 44.916546 1.25 42.625 L 1.25 5.375 C 1.25 3.0834541 3.0834541 1.25 5.375 1.25 z " opacity="0.05"/>
   <path transform="translate(0,1004.3622)" d="M 5.375 1.25 C 3.0834541 1.25 1.25 3.0834541 1.25 5.375 L 1.25 42.625 C 1.25 44.916546 3.0834541 46.75 5.375 46.75 L 42.625 46.75 C 44.916546 46.75 46.75 44.916546 46.75 42.625 L 46.75 5.375 C 46.75 3.0834541 44.916546 1.25 42.625 1.25 L 5.375 1.25 z M 5.59375 1.5 L 42.40625 1.5 C 44.672614 1.5 46.5 3.3273859 46.5 5.59375 L 46.5 42.40625 C 46.5 44.672614 44.672614 46.5 42.40625 46.5 L 5.59375 46.5 C 3.3273859 46.5 1.5 44.672614 1.5 42.40625 L 1.5 5.59375 C 1.5 3.3273859 3.3273859 1.5 5.59375 1.5 z " opacity="0.1"/>
   <path transform="translate(0,1004.3622)" d="M 5.59375 1.5 C 3.3273859 1.5 1.5 3.3273859 1.5 5.59375 L 1.5 42.40625 C 1.5 44.672614 3.3273859 46.5 5.59375 46.5 L 42.40625 46.5 C 44.672614 46.5 46.5 44.672614 46.5 42.40625 L 46.5 5.59375 C 46.5 3.3273859 44.672614 1.5 42.40625 1.5 L 5.59375 1.5 z M 5.6875 1.625 L 42.3125 1.625 C 44.566273 1.625 46.375 3.4337269 46.375 5.6875 L 46.375 42.3125 C 46.375 44.566273 44.566273 46.375 42.3125 46.375 L 5.6875 46.375 C 3.4337269 46.375 1.625 44.566273 1.625 42.3125 L 1.625 5.6875 C 1.625 3.4337269 3.4337269 1.625 5.6875 1.625 z " opacity="0.2"/>
   <path transform="translate(0,1004.3622)" d="M 5.6875 1.625 C 3.4337269 1.625 1.625 3.4337269 1.625 5.6875 L 1.625 42.3125 C 1.625 44.566273 3.4337269 46.375 5.6875 46.375 L 42.3125 46.375 C 44.566273 46.375 46.375 44.566273 46.375 42.3125 L 46.375 5.6875 C 46.375 3.4337269 44.566273 1.625 42.3125 1.625 L 5.6875 1.625 z M 5.78125 1.75 L 42.21875 1.75 C 44.459932 1.75 46.25 3.5400679 46.25 5.78125 L 46.25 42.21875 C 46.25 44.459932 44.459932 46.25 42.21875 46.25 L 5.78125 46.25 C 3.5400679 46.25 1.75 44.459932 1.75 42.21875 L 1.75 5.78125 C 1.75 3.5400679 3.5400679 1.75 5.78125 1.75 z " opacity="0.3"/>
   <path transform="translate(0,1004.3622)" d="M 5.78125 1.75 C 3.5400679 1.75 1.75 3.5400679 1.75 5.78125 L 1.75 42.21875 C 1.75 44.459932 3.5400679 46.25 5.78125 46.25 L 42.21875 46.25 C 44.459932 46.25 46.25 44.459932 46.25 42.21875 L 46.25 5.78125 C 46.25 3.5400679 44.459932 1.75 42.21875 1.75 L 5.78125 1.75 z M 5.90625 1.875 L 42.09375 1.875 C 44.322341 1.875 46.125 3.677659 46.125 5.90625 L 46.125 42.09375 C 46.125 44.322341 44.322341 46.125 42.09375 46.125 L 5.90625 46.125 C 3.677659 46.125 1.875 44.322341 1.875 42.09375 L 1.875 5.90625 C 1.875 3.677659 3.677659 1.875 5.90625 1.875 z " opacity="0.4"/>
   <rect width="44.25" height="44.25" x="1.875" y="1006.24" rx="4.02" opacity="0.5"/>
  </g>
  <rect width="44" height="44" x="-46" y="-1050.36" rx="4" transform="scale(-1,-1)" fill="url(#0)"/>
  <path d="m 23.673242,1013.3622 c -7.581084,0 -13.8407315,6.1402 -14.6169125,14.0757 -0.0022,0.023 0.0022,0.048 0,0.07 -6.66e-4,0.01 6.55e-4,0.015 0,0.024 -0.0022,0.023 0.0021,0.047 0,0.07 -0.08484,1.1422 -0.0647,2.0804 0,3.1435 2.9630075,12.8974 11.8285895,11.894 11.8285895,8.1404 l -4.008214,-6.9205 c -0.871351,-0.5865 -1.76621,0.4172 -2.592269,0.9618 -1.067405,0.7038 -1.154293,0.8115 -1.764486,-0.7976 -0.720749,-1.9007 -1.083532,-4.9768 0,-7.507 2.246548,-5.246 6.46071,-8.1751 11.153292,-8.2578 0.23236,0 0.464721,0 0.697081,0 4.674966,0.1001 8.870179,3.0281 11.109725,8.2578 1.083525,2.5302 0.720747,5.6063 0,7.507 -0.610195,1.6091 -0.697084,1.5014 -1.764486,0.7976 -0.826058,-0.5446 -1.72092,-1.5483 -2.59227,-0.9618 l -4.008214,6.9205 c 0,3.7535 8.865586,4.757 11.828588,-8.1404 0.0647,-1.0631 0.08486,-2.0013 0,-3.1436 -0.0021,-0.023 0.0022,-0.047 0,-0.07 -6.52e-4,-0.01 6.66e-4,-0.016 0,-0.024 -0.0022,-0.023 0.0022,-0.047 0,-0.07 -0.776183,-7.9355 -6.992259,-14.0757 -14.573343,-14.0757 -0.697081,0 0,0 -0.697081,0 z" fill="#eaeaea"/>
  <g transform="matrix(0.9999921,0,0,0.9999921,25.000015,-7.9916821)" fill="#ff4747">
   <path d="m 9.2022843,1036.5424 c -1.1648291,0.2929 -2.1430427,1.3626 -2.1430427,1.3626 l 0.029831,0.034 1.8658283,6.9321 c -1.3341199,-0.7236 -3.2394269,-0.5419 -4.8167636,0.5981 -2.0377369,1.473 -2.7469842,3.9837 -1.566995,5.6008 1.1800836,1.6174 3.7833323,1.7312 5.8210647,0.2582 1.6063259,-1.161 2.500751,-2.991 2.177773,-4.4941 -0.01001,-0.047 -0.02452,-0.091 -0.03688,-0.137 l -1.7905338,-6.9305 c 0.041606,-0.061 0.5641537,-0.3008 2.2556898,-0.4161 1.790111,-0.1206 3.001746,-2.9883 3.001746,-2.9883 0,0 -2.012721,0.7708 -3.597226,0.2122 -0.396122,-0.1396 -0.8132901,-0.1327 -1.2011851,-0.034 z"/>
  </g>
 </g>
</svg>
