<svg viewBox="0 0 48 48"><defs><linearGradient id="linearGradient3764" x1="1" x2="47" gradientUnits="userSpaceOnUse" gradientTransform="translate(-47.997785,0.00221467)"><stop stop-color="#e4e4e4" stop-opacity="1"/><stop offset="1" stop-color="#eee" stop-opacity="1"/></linearGradient><clipPath id="clipPath-994860263"><g transform="translate(0,-1004.3622)"><rect rx="4" y="1005.36" x="1" height="46" width="46" fill="#1890d0"/></g></clipPath><clipPath id="clipPath-003430624"><g transform="translate(0,-1004.3622)"><rect rx="4" y="1005.36" x="1" height="46" width="46" fill="#1890d0"/></g></clipPath></defs><g><g transform="translate(0,-1004.3622)"><path d="m 5 1006.36 c -2.216 0 -4 1.784 -4 4 l 0 37.25 c 0 2.216 1.784 4 4 4 l 38 0 c 2.216 0 4 -1.784 4 -4 l 0 -37.25 c 0 -2.216 -1.784 -4 -4 -4 l -38 0 z m -4 41.5 0 0.5 c 0 2.216 1.784 4 4 4 l 38 0 c 2.216 0 4 -1.784 4 -4 l 0 -0.5 c 0 2.216 -1.784 4 -4 4 l -38 0 c -2.216 0 -4 -1.784 -4 -4 z" opacity="0.02"/><path d="m 1 1047.61 0 0.25 c 0 2.216 1.784 4 4 4 l 38 0 c 2.216 0 4 -1.784 4 -4 l 0 -0.25 c 0 2.216 -1.784 4 -4 4 l -38 0 c -2.216 0 -4 -1.784 -4 -4 z" opacity="0.05"/><rect width="46" height="46" x="1" y="1005.61" rx="4" opacity="0.1"/></g></g><g><rect width="46" height="46" x="-46.998" y="1" rx="4" transform="matrix(0,-1,1,0,0,0)" fill="url(#linearGradient3764)" fill-opacity="1"/></g><g/><g><g clip-path="url(#clipPath-994860263)"><g opacity="0.1"><!-- color: #eeeeee --><g><path d="m 31.996 19.734 c -0.16 1.754 -0.891 3.352 -2 4.598 c 0.977 0.492 1.645 1.504 1.645 2.672 c 0 1.652 -1.34 2.988 -2.996 2.988 c -0.605 0 -1.168 -0.18 -1.641 -0.488 c -0.543 1.645 -1.602 3.051 -2.988 4.03 c 1.309 0.922 2.906 1.465 4.629 1.465 c 4.43 0 8.02 -3.578 8.02 -8 c 0 -3.223 -1.91 -6 -4.664 -7.266 m 0 0" fill="#000" stroke="none" fill-rule="nonzero" fill-opacity="1"/><path d="m 24 11 c -4.43 0 -8.02 3.578 -8.02 8 c 0 0.246 0.012 0.488 0.035 0.734 c 1.02 -0.473 2.156 -0.734 3.355 -0.734 c 0.559 0 1.109 0.055 1.637 0.164 c -0.004 -0.055 -0.008 -0.109 -0.008 -0.164 c 0 -1.652 1.344 -2.992 3 -2.992 c 1.652 0 2.996 1.34 2.996 2.992 c 0 0.055 -0.004 0.113 -0.008 0.164 c 0.527 -0.109 1.078 -0.164 1.637 -0.164 c 1.199 0 2.336 0.262 3.355 0.734 c 0.023 -0.242 0.035 -0.488 0.035 -0.734 c 0 -4.418 -3.586 -8 -8.02 -8 m 0 0" fill="#000" stroke="none" fill-rule="nonzero" fill-opacity="1"/><path d="m 16.01 19.734 c -2.754 1.266 -4.664 4.04 -4.664 7.266 c 0 4.418 3.59 8 8.02 8 c 1.727 0 3.32 -0.543 4.629 -1.465 c -1.387 -0.98 -2.445 -2.391 -2.988 -4.03 c -0.473 0.309 -1.035 0.488 -1.641 0.488 c -1.652 0 -2.996 -1.336 -2.996 -2.988 c 0 -1.168 0.668 -2.18 1.648 -2.672 c -1.117 -1.242 -1.848 -2.84 -2.01 -4.598 m 0 0" fill="#000" stroke="none" fill-rule="nonzero" fill-opacity="1"/><path d="m 31.21 27 c 0 1.422 -1.156 2.574 -2.582 2.574 c -1.426 0 -2.582 -1.152 -2.582 -2.574 c 0 -1.422 1.156 -2.574 2.582 -2.574 c 1.426 0 2.582 1.152 2.582 2.574 m 0 0" fill="#000" stroke="none" fill-rule="nonzero" fill-opacity="1"/><path d="m 26.582 19 c 0 1.422 -1.156 2.574 -2.582 2.574 c -1.426 0 -2.582 -1.152 -2.582 -2.574 c 0 -1.422 1.156 -2.574 2.582 -2.574 c 1.426 0 2.582 1.152 2.582 2.574 m 0 0" fill="#000" stroke="none" fill-rule="nonzero" fill-opacity="1"/><path d="m 21.953 27 c 0 1.422 -1.156 2.574 -2.582 2.574 c -1.426 0 -2.582 -1.152 -2.582 -2.574 c 0 -1.422 1.156 -2.574 2.582 -2.574 c 1.426 0 2.582 1.152 2.582 2.574 m 0 0" fill="#000" stroke="none" fill-rule="nonzero" fill-opacity="1"/></g></g></g></g><g><g clip-path="url(#clipPath-003430624)"><g transform="translate(0,-1)"><!-- color: #eeeeee --><g><path d="m 31.996 19.734 c -0.16 1.754 -0.891 3.352 -2 4.598 c 0.977 0.492 1.645 1.504 1.645 2.672 c 0 1.652 -1.34 2.988 -2.996 2.988 c -0.605 0 -1.168 -0.18 -1.641 -0.488 c -0.543 1.645 -1.602 3.051 -2.988 4.03 c 1.309 0.922 2.906 1.465 4.629 1.465 c 4.43 0 8.02 -3.578 8.02 -8 c 0 -3.223 -1.91 -6 -4.664 -7.266 m 0 0" fill="#2d2d2d" stroke="none" fill-rule="nonzero" fill-opacity="1"/><path d="m 24 11 c -4.43 0 -8.02 3.578 -8.02 8 c 0 0.246 0.012 0.488 0.035 0.734 c 1.02 -0.473 2.156 -0.734 3.355 -0.734 c 0.559 0 1.109 0.055 1.637 0.164 c -0.004 -0.055 -0.008 -0.109 -0.008 -0.164 c 0 -1.652 1.344 -2.992 3 -2.992 c 1.652 0 2.996 1.34 2.996 2.992 c 0 0.055 -0.004 0.113 -0.008 0.164 c 0.527 -0.109 1.078 -0.164 1.637 -0.164 c 1.199 0 2.336 0.262 3.355 0.734 c 0.023 -0.242 0.035 -0.488 0.035 -0.734 c 0 -4.418 -3.586 -8 -8.02 -8 m 0 0" fill="#a1a1a1" stroke="none" fill-rule="nonzero" fill-opacity="1"/><path d="m 16.01 19.734 c -2.754 1.266 -4.664 4.04 -4.664 7.266 c 0 4.418 3.59 8 8.02 8 c 1.727 0 3.32 -0.543 4.629 -1.465 c -1.387 -0.98 -2.445 -2.391 -2.988 -4.03 c -0.473 0.309 -1.035 0.488 -1.641 0.488 c -1.652 0 -2.996 -1.336 -2.996 -2.988 c 0 -1.168 0.668 -2.18 1.648 -2.672 c -1.117 -1.242 -1.848 -2.84 -2.01 -4.598 m 0 0" fill="#5a5a5a" stroke="none" fill-rule="nonzero" fill-opacity="1"/><path d="m 31.21 27 c 0 1.422 -1.156 2.574 -2.582 2.574 c -1.426 0 -2.582 -1.152 -2.582 -2.574 c 0 -1.422 1.156 -2.574 2.582 -2.574 c 1.426 0 2.582 1.152 2.582 2.574 m 0 0" fill="#2d2d2d" stroke="none" fill-rule="nonzero" fill-opacity="1"/><path d="m 26.582 19 c 0 1.422 -1.156 2.574 -2.582 2.574 c -1.426 0 -2.582 -1.152 -2.582 -2.574 c 0 -1.422 1.156 -2.574 2.582 -2.574 c 1.426 0 2.582 1.152 2.582 2.574 m 0 0" fill="#a1a1a1" stroke="none" fill-rule="nonzero" fill-opacity="1"/><path d="m 21.953 27 c 0 1.422 -1.156 2.574 -2.582 2.574 c -1.426 0 -2.582 -1.152 -2.582 -2.574 c 0 -1.422 1.156 -2.574 2.582 -2.574 c 1.426 0 2.582 1.152 2.582 2.574 m 0 0" fill="#5a5a5a" stroke="none" fill-rule="nonzero" fill-opacity="1"/></g></g></g></g><g><g transform="translate(0,-1004.3622)"><path d="m 1 1043.36 0 4 c 0 2.216 1.784 4 4 4 l 38 0 c 2.216 0 4 -1.784 4 -4 l 0 -4 c 0 2.216 -1.784 4 -4 4 l -38 0 c -2.216 0 -4 -1.784 -4 -4 z" opacity="0.1"/></g></g></svg>