<svg viewBox="0 0 48 48"><defs><linearGradient id="linearGradient3764" x1="1" x2="47" gradientUnits="userSpaceOnUse" gradientTransform="translate(-47.997785,0.00221467)"><stop stop-color="#685b9f" stop-opacity="1"/><stop offset="1" stop-color="#7366a8" stop-opacity="1"/></linearGradient><clipPath id="clipPath-906979862"><g transform="translate(0,-1004.3622)"><rect rx="4" y="1005.36" x="1" height="46" width="46" fill="#1890d0"/></g></clipPath><clipPath id="clipPath-916619687"><g transform="translate(0,-1004.3622)"><rect rx="4" y="1005.36" x="1" height="46" width="46" fill="#1890d0"/></g></clipPath></defs><g><g transform="translate(0,-1004.3622)"><path d="m 5 1006.36 c -2.216 0 -4 1.784 -4 4 l 0 37.25 c 0 2.216 1.784 4 4 4 l 38 0 c 2.216 0 4 -1.784 4 -4 l 0 -37.25 c 0 -2.216 -1.784 -4 -4 -4 l -38 0 z m -4 41.5 0 0.5 c 0 2.216 1.784 4 4 4 l 38 0 c 2.216 0 4 -1.784 4 -4 l 0 -0.5 c 0 2.216 -1.784 4 -4 4 l -38 0 c -2.216 0 -4 -1.784 -4 -4 z" opacity="0.02"/><path d="m 1 1047.61 0 0.25 c 0 2.216 1.784 4 4 4 l 38 0 c 2.216 0 4 -1.784 4 -4 l 0 -0.25 c 0 2.216 -1.784 4 -4 4 l -38 0 c -2.216 0 -4 -1.784 -4 -4 z" opacity="0.05"/><rect width="46" height="46" x="1" y="1005.61" rx="4" opacity="0.1"/></g></g><g><rect width="46" height="46" x="-46.998" y="1" rx="4" transform="matrix(0,-1,1,0,0,0)" fill="url(#linearGradient3764)" fill-opacity="1"/></g><g/><g><g clip-path="url(#clipPath-906979862)"><g opacity="0.1"><!-- color: #7366a8 --><g><path d="m 14 12 l 0 24 c 0.246 0 0.484 -0.004 0.734 -0.023 c 3.563 -0.297 6.57 -2.637 8.234 -5.977 l 0 -11.973 c -1.805 -3.633 -5.176 -6.03 -8.969 -6.03 m 2.07 3.25 c 3.277 0.414 5.941 3.789 6.184 8.125 c 0.27 4.762 -2.488 8.902 -6.184 9.375 l 0 -7.375 c -0.383 -0.254 -0.656 -0.699 -0.691 -1.25 c -0.039 -0.629 0.25 -1.203 0.691 -1.5 m 0 -7.375" stroke="none" fill-rule="nonzero" fill-opacity="1" fill="#000"/><path d="m 23.656 12 l 0 24 l 12.34 0 m -8.57 -7.305 c 0.238 0 0.5 0.031 0.754 0.074 c 0.254 0.043 0.504 0.109 0.777 0.203 l 0 1.148 c -0.242 -0.133 -0.465 -0.23 -0.691 -0.301 c -0.227 -0.066 -0.445 -0.098 -0.648 -0.098 c -0.266 0 -0.473 0.035 -0.602 0.125 c -0.129 0.09 -0.195 0.227 -0.195 0.426 c 0 0.145 0.047 0.27 0.133 0.348 c 0.086 0.078 0.246 0.141 0.473 0.203 l 0.473 0.121 c 0.488 0.125 0.828 0.305 1.035 0.551 c 0.203 0.246 0.32 0.598 0.32 1.051 c 0 0.594 -0.141 1.035 -0.43 1.324 c -0.285 0.289 -0.727 0.426 -1.313 0.426 c -0.277 0 -0.563 -0.012 -0.84 -0.074 c -0.281 -0.066 -0.563 -0.176 -0.844 -0.301 l 0 -1.176 c 0.281 0.184 0.563 0.328 0.82 0.422 c 0.262 0.094 0.512 0.125 0.754 0.125 c 0.246 0 0.43 -0.047 0.563 -0.148 c 0.129 -0.102 0.191 -0.238 0.191 -0.426 c 0 -0.172 -0.039 -0.309 -0.129 -0.398 c -0.09 -0.094 -0.273 -0.18 -0.539 -0.25 l -0.43 -0.125 c -0.438 -0.117 -0.746 -0.297 -0.949 -0.551 c -0.199 -0.25 -0.301 -0.594 -0.301 -1.027 c 0 -0.535 0.133 -0.934 0.414 -1.223 c 0.277 -0.289 0.676 -0.449 1.207 -0.449 m -0.004 0" stroke="none" fill-rule="nonzero" fill-opacity="1" fill="#000"/></g></g></g></g><g><g clip-path="url(#clipPath-916619687)"><g transform="translate(0,-1)"><!-- color: #7366a8 --><g><path d="m 14 12 l 0 24 c 0.246 0 0.484 -0.004 0.734 -0.023 c 3.563 -0.297 6.57 -2.637 8.234 -5.977 l 0 -11.973 c -1.805 -3.633 -5.176 -6.03 -8.969 -6.03 m 2.07 3.25 c 3.277 0.414 5.941 3.789 6.184 8.125 c 0.27 4.762 -2.488 8.902 -6.184 9.375 l 0 -7.375 c -0.383 -0.254 -0.656 -0.699 -0.691 -1.25 c -0.039 -0.629 0.25 -1.203 0.691 -1.5 m 0 -7.375" fill="#f9f9f9" stroke="none" fill-rule="nonzero" fill-opacity="1"/><path d="m 23.656 12 l 0 24 l 12.34 0 m -8.57 -7.305 c 0.238 0 0.5 0.031 0.754 0.074 c 0.254 0.043 0.504 0.109 0.777 0.203 l 0 1.148 c -0.242 -0.133 -0.465 -0.23 -0.691 -0.301 c -0.227 -0.066 -0.445 -0.098 -0.648 -0.098 c -0.266 0 -0.473 0.035 -0.602 0.125 c -0.129 0.09 -0.195 0.227 -0.195 0.426 c 0 0.145 0.047 0.27 0.133 0.348 c 0.086 0.078 0.246 0.141 0.473 0.203 l 0.473 0.121 c 0.488 0.125 0.828 0.305 1.035 0.551 c 0.203 0.246 0.32 0.598 0.32 1.051 c 0 0.594 -0.141 1.035 -0.43 1.324 c -0.285 0.289 -0.727 0.426 -1.313 0.426 c -0.277 0 -0.563 -0.012 -0.84 -0.074 c -0.281 -0.066 -0.563 -0.176 -0.844 -0.301 l 0 -1.176 c 0.281 0.184 0.563 0.328 0.82 0.422 c 0.262 0.094 0.512 0.125 0.754 0.125 c 0.246 0 0.43 -0.047 0.563 -0.148 c 0.129 -0.102 0.191 -0.238 0.191 -0.426 c 0 -0.172 -0.039 -0.309 -0.129 -0.398 c -0.09 -0.094 -0.273 -0.18 -0.539 -0.25 l -0.43 -0.125 c -0.438 -0.117 -0.746 -0.297 -0.949 -0.551 c -0.199 -0.25 -0.301 -0.594 -0.301 -1.027 c 0 -0.535 0.133 -0.934 0.414 -1.223 c 0.277 -0.289 0.676 -0.449 1.207 -0.449 m -0.004 0" fill="#f9f9f9" stroke="none" fill-rule="nonzero" fill-opacity="1"/></g></g></g></g><g><g transform="translate(0,-1004.3622)"><path d="m 1 1043.36 0 4 c 0 2.216 1.784 4 4 4 l 38 0 c 2.216 0 4 -1.784 4 -4 l 0 -4 c 0 2.216 -1.784 4 -4 4 l -38 0 c -2.216 0 -4 -1.784 -4 -4 z" opacity="0.1"/></g></g></svg>