<svg viewBox="0 0 48 48"><defs><linearGradient id="linearGradient3764" x1="1" x2="47" gradientUnits="userSpaceOnUse" gradientTransform="translate(-47.997785,0.00221467)"><stop stop-color="#333" stop-opacity="1"/><stop offset="1" stop-color="#3d3d3d" stop-opacity="1"/></linearGradient><clipPath id="clipPath-213806932"><g transform="translate(0,-1004.3622)"><rect rx="4" y="1005.36" x="1" height="46" width="46" fill="#1890d0"/></g></clipPath><clipPath id="clipPath-226422540"><g transform="translate(0,-1004.3622)"><rect rx="4" y="1005.36" x="1" height="46" width="46" fill="#1890d0"/></g></clipPath></defs><g><g transform="translate(0,-1004.3622)"><path d="m 5 1006.36 c -2.216 0 -4 1.784 -4 4 l 0 37.25 c 0 2.216 1.784 4 4 4 l 38 0 c 2.216 0 4 -1.784 4 -4 l 0 -37.25 c 0 -2.216 -1.784 -4 -4 -4 l -38 0 z m -4 41.5 0 0.5 c 0 2.216 1.784 4 4 4 l 38 0 c 2.216 0 4 -1.784 4 -4 l 0 -0.5 c 0 2.216 -1.784 4 -4 4 l -38 0 c -2.216 0 -4 -1.784 -4 -4 z" opacity="0.02"/><path d="m 1 1047.61 0 0.25 c 0 2.216 1.784 4 4 4 l 38 0 c 2.216 0 4 -1.784 4 -4 l 0 -0.25 c 0 2.216 -1.784 4 -4 4 l -38 0 c -2.216 0 -4 -1.784 -4 -4 z" opacity="0.05"/><rect width="46" height="46" x="1" y="1005.61" rx="4" opacity="0.1"/></g></g><g><rect width="46" height="46" x="-46.998" y="1" rx="4" transform="matrix(0,-1,1,0,0,0)" fill="url(#linearGradient3764)" fill-opacity="1"/></g><g/><g><g clip-path="url(#clipPath-213806932)"><g opacity="0.1"><!-- color: #3d3d3d --><g><path d="m 23.324 36.926 c -2.953 -0.73 -9.777 -7.242 -11.828 -11.281 c -0.66 -1.305 -0.66 -2.051 0 -3.355 c 0.914 -1.801 2.777 -4.109 5.281 -6.539 c 3.23 -3.137 5.688 -4.75 7.223 -4.75 c 1.59 0 4.266 1.801 7.672 5.168 c 2.801 2.77 4.684 5.32 5.188 7.02 c 0.234 0.793 0.184 1.289 -0.238 2.254 c -1.43 3.25 -7.684 9.566 -11.01 11.121 c -0.906 0.422 -1.605 0.535 -2.285 0.367 m 3.02 -8.801 c 3.258 -2.164 5.977 -3.984 6.04 -4.047 c 0.078 -0.074 0.008 -0.203 -0.188 -0.34 c -0.469 -0.34 -2.953 -2.035 -5.828 -3.984 c -1.41 -0.957 -2.723 -1.855 -2.922 -2 l -0.359 -0.27 c -0.648 -0.375 -1.793 -1.238 -2.27 -1.465 c -0.207 -0.148 -0.41 -0.27 -0.453 -0.27 c -0.043 0 -0.078 0.438 -0.078 0.973 c 0 1.773 0 2.875 0 4.219 c 0 1.59 0.035 2.895 0.082 2.895 c 0.105 0 0.691 -0.359 2.414 -1.473 c 2.379 -1.543 2.059 -1.406 2.602 -1.078 c 1.012 0.609 3.18 2.074 3.457 2.328 c 0.535 0.5 0.875 0.211 -4.492 3.809 l -4.07 2.73 l 0.031 0.949 c 0.02 0.523 0.051 0.953 0.074 0.953 c 0.027 0 2.707 -1.77 5.965 -3.93 m -0.008 0.004" fill="#000" stroke="none" fill-rule="nonzero" fill-opacity="1"/></g></g></g></g><g><g clip-path="url(#clipPath-226422540)"><g transform="translate(0,-1)"><!-- color: #3d3d3d --><g><path d="m 23.324 36.926 c -2.953 -0.73 -9.777 -7.242 -11.828 -11.281 c -0.66 -1.305 -0.66 -2.051 0 -3.355 c 0.914 -1.801 2.777 -4.109 5.281 -6.539 c 3.23 -3.137 5.688 -4.75 7.223 -4.75 c 1.59 0 4.266 1.801 7.672 5.168 c 2.801 2.77 4.684 5.32 5.188 7.02 c 0.234 0.793 0.184 1.289 -0.238 2.254 c -1.43 3.25 -7.684 9.566 -11.01 11.121 c -0.906 0.422 -1.605 0.535 -2.285 0.367 m 3.02 -8.801 c 3.258 -2.164 5.977 -3.984 6.04 -4.047 c 0.078 -0.074 0.008 -0.203 -0.188 -0.34 c -0.469 -0.34 -2.953 -2.035 -5.828 -3.984 c -1.41 -0.957 -2.723 -1.855 -2.922 -2 l -0.359 -0.27 c -0.648 -0.375 -1.793 -1.238 -2.27 -1.465 c -0.207 -0.148 -0.41 -0.27 -0.453 -0.27 c -0.043 0 -0.078 0.438 -0.078 0.973 c 0 1.773 0 2.875 0 4.219 c 0 1.59 0.035 2.895 0.082 2.895 c 0.105 0 0.691 -0.359 2.414 -1.473 c 2.379 -1.543 2.059 -1.406 2.602 -1.078 c 1.012 0.609 3.18 2.074 3.457 2.328 c 0.535 0.5 0.875 0.211 -4.492 3.809 l -4.07 2.73 l 0.031 0.949 c 0.02 0.523 0.051 0.953 0.074 0.953 c 0.027 0 2.707 -1.77 5.965 -3.93 m -0.008 0.004" fill="#69cf4c" stroke="none" fill-rule="nonzero" fill-opacity="1"/></g></g></g></g><g><g transform="translate(0,-1004.3622)"><path d="m 1 1043.36 0 4 c 0 2.216 1.784 4 4 4 l 38 0 c 2.216 0 4 -1.784 4 -4 l 0 -4 c 0 2.216 -1.784 4 -4 4 l -38 0 c -2.216 0 -4 -1.784 -4 -4 z" opacity="0.1"/></g></g></svg>