<svg xmlns="http://www.w3.org/2000/svg" xmlns:xlink="http://www.w3.org/1999/xlink" width="48" viewBox="0 0 13.546667 13.546667" height="48">
 <defs>
  <linearGradient id="0">
   <stop stop-color="#d1d1d1"/>
   <stop offset="1" stop-color="#f9f9f9"/>
  </linearGradient>
  <linearGradient gradientTransform="matrix(0.28222223,0,0,0.28222223,0,-283.45334)" xlink:href="#0" id="1" y1="1050.36" x2="0" y2="1006.36" gradientUnits="userSpaceOnUse"/>
 </defs>
 <g transform="matrix(0.28222223,0,0,0.28222223,0,-283.45334)">
  <path transform="translate(0,1004.3622)" d="M 5.1875,1 C 2.8707723,1 1,2.8707723 1,5.1875 l 0,37.625 C 1,45.129228 2.8707723,47 5.1875,47 l 37.625,0 C 45.129228,47 47,45.129228 47,42.8125 L 47,5.1875 C 47,2.8707723 45.129228,1 42.8125,1 L 5.1875,1 z m 0.1875,0.25 37.25,0 c 2.291546,0 4.125,1.8334541 4.125,4.125 l 0,37.25 c 0,2.291546 -1.833454,4.125 -4.125,4.125 l -37.25,0 C 3.0834541,46.75 1.25,44.916546 1.25,42.625 l 0,-37.25 C 1.25,3.0834541 3.0834541,1.25 5.375,1.25 z" opacity="0.05"/>
  <path transform="translate(0,1004.3622)" d="M 5.375,1.25 C 3.0834541,1.25 1.25,3.0834541 1.25,5.375 l 0,37.25 c 0,2.291546 1.8334541,4.125 4.125,4.125 l 37.25,0 c 2.291546,0 4.125,-1.833454 4.125,-4.125 l 0,-37.25 C 46.75,3.0834541 44.916546,1.25 42.625,1.25 l -37.25,0 z m 0.21875,0.25 36.8125,0 C 44.672614,1.5 46.5,3.3273859 46.5,5.59375 l 0,36.8125 C 46.5,44.672614 44.672614,46.5 42.40625,46.5 l -36.8125,0 C 3.3273859,46.5 1.5,44.672614 1.5,42.40625 l 0,-36.8125 C 1.5,3.3273859 3.3273859,1.5 5.59375,1.5 z" opacity="0.1"/>
  <path transform="translate(0,1004.3622)" d="M 5.59375,1.5 C 3.3273859,1.5 1.5,3.3273859 1.5,5.59375 l 0,36.8125 C 1.5,44.672614 3.3273859,46.5 5.59375,46.5 l 36.8125,0 C 44.672614,46.5 46.5,44.672614 46.5,42.40625 l 0,-36.8125 C 46.5,3.3273859 44.672614,1.5 42.40625,1.5 l -36.8125,0 z m 0.09375,0.125 36.625,0 c 2.253773,0 4.0625,1.8087269 4.0625,4.0625 l 0,36.625 c 0,2.253773 -1.808727,4.0625 -4.0625,4.0625 l -36.625,0 c -2.2537731,0 -4.0625,-1.808727 -4.0625,-4.0625 l 0,-36.625 C 1.625,3.4337269 3.4337269,1.625 5.6875,1.625 z" opacity="0.2"/>
  <path transform="translate(0,1004.3622)" d="M 5.6875,1.625 C 3.4337269,1.625 1.625,3.4337269 1.625,5.6875 l 0,36.625 c 0,2.253773 1.8087269,4.0625 4.0625,4.0625 l 36.625,0 c 2.253773,0 4.0625,-1.808727 4.0625,-4.0625 l 0,-36.625 c 0,-2.2537731 -1.808727,-4.0625 -4.0625,-4.0625 l -36.625,0 z m 0.09375,0.125 36.4375,0 c 2.241182,0 4.03125,1.7900679 4.03125,4.03125 l 0,36.4375 c 0,2.241182 -1.790068,4.03125 -4.03125,4.03125 l -36.4375,0 C 3.5400679,46.25 1.75,44.459932 1.75,42.21875 l 0,-36.4375 C 1.75,3.5400679 3.5400679,1.75 5.78125,1.75 z" opacity="0.3"/>
  <path transform="translate(0,1004.3622)" d="M 5.78125,1.75 C 3.5400679,1.75 1.75,3.5400679 1.75,5.78125 l 0,36.4375 c 0,2.241182 1.7900679,4.03125 4.03125,4.03125 l 36.4375,0 c 2.241182,0 4.03125,-1.790068 4.03125,-4.03125 l 0,-36.4375 C 46.25,3.5400679 44.459932,1.75 42.21875,1.75 l -36.4375,0 z m 0.125,0.125 36.1875,0 c 2.228591,0 4.03125,1.802659 4.03125,4.03125 l 0,36.1875 c 0,2.228591 -1.802659,4.03125 -4.03125,4.03125 l -36.1875,0 C 3.677659,46.125 1.875,44.322341 1.875,42.09375 l 0,-36.1875 C 1.875,3.677659 3.677659,1.875 5.90625,1.875 z" opacity="0.4"/>
  <rect width="44.25" height="44.25" x="1.875" y="1006.24" rx="4.02" opacity="0.5"/>
 </g>
 <rect width="12.418" height="12.418" x="0.564" y="0.564" rx="1.129" fill="url(#1)"/>
 <path d="M 11 18 L 11 36 L 37 36 L 37 18 L 11 18 z M 23.5 20 C 23.784117 19.992843 24.188581 20 24.71875 20 C 26.20042 20 26.53125 20.025531 26.53125 20.09375 C 26.53125 20.139558 26.142096 20.43717 25.6875 20.78125 C 24.212602 21.897586 23.45576 22.723278 22.875 23.875 C 22.679666 24.26237 22.473144 24.964311 22.46875 25.1875 C 22.466291 25.312224 22.639711 25.200231 22.8125 24.96875 C 23.049165 24.651696 23.139507 24.393148 23.28125 23.8125 C 23.384071 23.391295 23.42792 23.356196 23.75 23.09375 C 24.110225 22.800223 24.496101 22.583127 25.15625 22.3125 C 25.868105 22.02066 26.478939 21.90652 27.6875 21.84375 C 28.380405 21.807764 29.181512 21.72412 29.75 21.625 C 30.262595 21.535602 30.732898 21.481433 30.78125 21.5 C 30.991375 21.580655 31 22.009736 31 27 C 31 31.749956 30.994711 31.924809 30.875 32.3125 C 30.666187 32.988765 30.226293 33.479188 29.53125 33.8125 L 29.1875 33.96875 L 25.15625 34 C 22.942518 34.009599 21.117419 33.992313 21.09375 33.96875 C 21.003316 33.878293 21.071153 33.809996 21.4375 33.625 C 22.48822 33.094433 24.318729 31.881925 25.375 31 C 27.762571 29.006516 28.313725 27.009773 27.15625 24.5625 C 26.971832 24.172582 26.166285 23.208693 26.09375 23.28125 C 26.080221 23.294782 26.193834 23.485095 26.3125 23.71875 C 26.635937 24.355602 26.751081 25.003313 26.75 25.8125 C 26.748375 27.033033 26.460051 27.817383 25.6875 28.59375 C 25.139125 29.144833 24.478068 29.46229 23.59375 29.65625 C 23.050584 29.775486 22.787232 29.811224 21.375 29.8125 C 19.961814 29.813783 19.722887 29.777679 19.125 29.65625 C 18.340002 29.496818 17.377083 29.20723 17.15625 29.0625 L 17 28.96875 L 17 25.5 C 17 22.205637 17.007889 22.027657 17.125 21.65625 C 17.308379 21.074696 17.881421 20.358627 18.03125 20.53125 C 18.0576 20.561608 18.115231 20.873691 18.15625 21.21875 C 18.368189 23.001604 19.199293 25.240921 20.03125 26.34375 C 20.617328 27.120645 21.640403 27.910791 22.46875 28.1875 C 22.789427 28.294622 22.955652 28.301306 23.375 28.28125 C 23.997771 28.251467 24.452434 28.077132 24.875 27.6875 C 25.194198 27.393182 25.590292 26.643543 25.75 26.03125 C 25.943998 25.287508 25.86948 23.790361 25.59375 23.15625 C 25.522444 22.992237 25.502943 23.105755 25.46875 24.0625 C 25.414664 25.57633 25.184933 26.271865 24.5625 26.9375 C 23.866449 27.681863 23.048819 27.762468 22.375 27.125 C 21.816389 26.596526 21.526572 25.893421 21.4375 24.8125 C 21.354239 23.802082 21.762867 22.089679 22.34375 20.90625 C 22.703495 20.173351 22.647649 20.021437 23.5 20 z M 24.71875 22.9375 C 24.539253 22.9375 24.179033 23.158127 24.15625 23.28125 C 23.949178 24.400405 23.544618 25.377654 23.15625 25.71875 C 22.924428 25.922356 22.845509 25.945067 22.65625 25.84375 C 22.561364 25.792921 22.53125 25.794801 22.53125 25.875 C 22.53125 26.036804 22.704583 26.371242 22.84375 26.46875 C 23.093287 26.643587 23.433551 26.553752 23.75 26.21875 C 24.19735 25.745174 24.550966 24.957121 24.6875 23.96875 C 24.816657 23.033637 24.813101 22.9375 24.71875 22.9375 z " transform="scale(0.28222223,0.28222223)" fill="#235fa2"/>
 <g fill="#13a1dd">
  <g transform="matrix(0 .05879 -.07691 0 6.94584 4.62125)">
   <path d="m -12.088306,-9.466013 c -3.138034,2.6e-5 -5.618501,1.0482021 -7.441407,3.1445313 -1.809902,2.0833541 -2.714849,4.9414242 -2.714843,8.5742187 -6e-6,3.7369898 0.872389,6.6276119 2.617187,8.671875 1.757802,2.031254 4.2578,3.046878 7.5,3.046875 1.992169,3e-6 4.2643026,-0.35807 6.8164063,-1.074219 l 0,2.910157 c -1.9791876,0.742187 -4.4205914,1.11328 -7.3242183,1.113281 -4.205741,-10e-7 -7.454436,-1.276041 -9.746094,-3.828125 -2.27865,-2.552078 -3.417971,-6.178376 -3.417969,-10.8789065 -2e-6,-2.94269103 0.546872,-5.5208135 1.640625,-7.734375 1.106766,-2.2135174 2.695306,-3.9192448 4.765625,-5.1171875 2.083322,-1.197888 4.531237,-1.796846 7.34375,-1.796875 2.9947726,2.9e-5 5.6119574,0.546903 7.8515626,1.640625 l -1.40625,2.8515625 C -7.7654102,-8.958175 -9.9268664,-9.465987 -12.088306,-9.466013" id="2"/>
  </g>
  <rect width="7.338" x="3.104" y="3.951" height="1.129"/>
 </g>
 <g fill="#235fa2">
  <g transform="matrix(0 .05879 -.07691 0 6.94584 5.75014)">
   <use xlink:href="#2"/>
  </g>
  <path d="m 3.1044445,3.9511167 0.846667,0.564445 -0.846667,0.564444 z"/>
  <path d="m 10.442223,3.9511167 -0.8466675,0.564445 0.8466675,0.564444 z"/>
 </g>
</svg>
