<svg xmlns="http://www.w3.org/2000/svg" xmlns:xlink="http://www.w3.org/1999/xlink" width="48" viewBox="0 0 13.546667 13.546667" height="48">
 <defs>
  <linearGradient id="0">
   <stop stop-color="#2d2d2d"/>
   <stop offset="1" stop-color="#4a4a4e" stop-opacity="0.941"/>
  </linearGradient>
  <linearGradient gradientTransform="matrix(0.28222223,0,0,0.28222223,0,-283.45334)" xlink:href="#0" id="1" y1="1050.36" x2="0" y2="1006.36" gradientUnits="userSpaceOnUse"/>
 </defs>
 <g transform="matrix(0.28222223,0,0,0.28222223,0,-283.45334)">
  <path transform="translate(0,1004.3622)" d="M 5.1875,1 C 2.8707723,1 1,2.8707723 1,5.1875 l 0,37.625 C 1,45.129228 2.8707723,47 5.1875,47 l 37.625,0 C 45.129228,47 47,45.129228 47,42.8125 L 47,5.1875 C 47,2.8707723 45.129228,1 42.8125,1 L 5.1875,1 z m 0.1875,0.25 37.25,0 c 2.291546,0 4.125,1.8334541 4.125,4.125 l 0,37.25 c 0,2.291546 -1.833454,4.125 -4.125,4.125 l -37.25,0 C 3.0834541,46.75 1.25,44.916546 1.25,42.625 l 0,-37.25 C 1.25,3.0834541 3.0834541,1.25 5.375,1.25 z" opacity="0.05"/>
  <path transform="translate(0,1004.3622)" d="M 5.375,1.25 C 3.0834541,1.25 1.25,3.0834541 1.25,5.375 l 0,37.25 c 0,2.291546 1.8334541,4.125 4.125,4.125 l 37.25,0 c 2.291546,0 4.125,-1.833454 4.125,-4.125 l 0,-37.25 C 46.75,3.0834541 44.916546,1.25 42.625,1.25 l -37.25,0 z m 0.21875,0.25 36.8125,0 C 44.672614,1.5 46.5,3.3273859 46.5,5.59375 l 0,36.8125 C 46.5,44.672614 44.672614,46.5 42.40625,46.5 l -36.8125,0 C 3.3273859,46.5 1.5,44.672614 1.5,42.40625 l 0,-36.8125 C 1.5,3.3273859 3.3273859,1.5 5.59375,1.5 z" opacity="0.1"/>
  <path transform="translate(0,1004.3622)" d="M 5.59375,1.5 C 3.3273859,1.5 1.5,3.3273859 1.5,5.59375 l 0,36.8125 C 1.5,44.672614 3.3273859,46.5 5.59375,46.5 l 36.8125,0 C 44.672614,46.5 46.5,44.672614 46.5,42.40625 l 0,-36.8125 C 46.5,3.3273859 44.672614,1.5 42.40625,1.5 l -36.8125,0 z m 0.09375,0.125 36.625,0 c 2.253773,0 4.0625,1.8087269 4.0625,4.0625 l 0,36.625 c 0,2.253773 -1.808727,4.0625 -4.0625,4.0625 l -36.625,0 c -2.2537731,0 -4.0625,-1.808727 -4.0625,-4.0625 l 0,-36.625 C 1.625,3.4337269 3.4337269,1.625 5.6875,1.625 z" opacity="0.2"/>
  <path transform="translate(0,1004.3622)" d="M 5.6875,1.625 C 3.4337269,1.625 1.625,3.4337269 1.625,5.6875 l 0,36.625 c 0,2.253773 1.8087269,4.0625 4.0625,4.0625 l 36.625,0 c 2.253773,0 4.0625,-1.808727 4.0625,-4.0625 l 0,-36.625 c 0,-2.2537731 -1.808727,-4.0625 -4.0625,-4.0625 l -36.625,0 z m 0.09375,0.125 36.4375,0 c 2.241182,0 4.03125,1.7900679 4.03125,4.03125 l 0,36.4375 c 0,2.241182 -1.790068,4.03125 -4.03125,4.03125 l -36.4375,0 C 3.5400679,46.25 1.75,44.459932 1.75,42.21875 l 0,-36.4375 C 1.75,3.5400679 3.5400679,1.75 5.78125,1.75 z" opacity="0.3"/>
  <path transform="translate(0,1004.3622)" d="M 5.78125,1.75 C 3.5400679,1.75 1.75,3.5400679 1.75,5.78125 l 0,36.4375 c 0,2.241182 1.7900679,4.03125 4.03125,4.03125 l 36.4375,0 c 2.241182,0 4.03125,-1.790068 4.03125,-4.03125 l 0,-36.4375 C 46.25,3.5400679 44.459932,1.75 42.21875,1.75 l -36.4375,0 z m 0.125,0.125 36.1875,0 c 2.228591,0 4.03125,1.802659 4.03125,4.03125 l 0,36.1875 c 0,2.228591 -1.802659,4.03125 -4.03125,4.03125 l -36.1875,0 C 3.677659,46.125 1.875,44.322341 1.875,42.09375 l 0,-36.1875 C 1.875,3.677659 3.677659,1.875 5.90625,1.875 z" opacity="0.4"/>
  <rect width="44.25" height="44.25" x="1.875" y="1006.24" rx="4.02" opacity="0.5"/>
 </g>
 <rect width="12.418" height="12.418" x="0.564" y="0.564" rx="1.129" fill="url(#1)"/>
 <g transform="translate(-1.128889,0.97581947)">
  <path d="m 7.2538697,6.5704931 -1.446258,1.9283445 c 0.578356,0.4482736 1.306201,0.7148172 2.094581,0.7148172 0.767136,0 1.474253,-0.2549509 2.04471,-0.6815698 L 8.5006447,6.5704931 c -0.28997,0.3390987 -0.918105,0.3039789 -1.246775,0 z" fill="#f84545"/>
  <path d="m 8.5916977,5.745284 c 0,0.3855401 -0.312542,0.6980821 -0.698082,0.6980821 -0.38554,0 -0.698082,-0.312542 -0.698082,-0.6980821 0,-0.38554 0.312542,-0.698082 0.698082,-0.698082 0.38554,0 0.698082,0.312542 0.698082,0.698082 z" fill="#ffc900"/>
  <path d="m 8.8996127,2.5309437 -0.640011,2.2109468 c 0.398755,0.06945 0.738941,0.635585 0.664946,1.0472905 l 2.3938073,0.00831 c 0,-1.5399507 -1.018945,-2.8384838 -2.4187423,-3.2665492 z" fill="#f84545"/>
  <path d="m 6.9130847,2.5226319 c -1.39205,0.4211345 -2.408697,1.7081539 -2.427054,3.2333018 l 2.335624,0.00831 C 6.7451857,5.3443266 7.1462817,4.8637485 7.5530957,4.7418905 L 6.9130847,2.5226319 z" fill="#f84545"/>
  <path d="m 11.853324,5.7975146 c 0,2.1821325 -1.768969,3.9511002 -3.9511013,3.9511002 -2.182133,0 -3.951101,-1.7689677 -3.951101,-3.9511002 0,-2.1821329 1.768968,-3.951101 3.951101,-3.951101 2.1821323,0 3.9511013,1.7689681 3.9511013,3.951101 z" fill="none" stroke="#ffc900" stroke-width="0.564"/>
 </g>
</svg>
