<svg viewBox="0 0 48 48"><defs><linearGradient id="linearGradient3764" x1="1" x2="47" gradientUnits="userSpaceOnUse" gradientTransform="translate(-47.997785,0.00221467)"><stop stop-color="#b64b32" stop-opacity="1"/><stop offset="1" stop-color="#c55036" stop-opacity="1"/></linearGradient><clipPath id="clipPath-286511084"><g transform="translate(0,-1004.3622)"><rect rx="4" y="1005.36" x="1" height="46" width="46" fill="#1890d0"/></g></clipPath><clipPath id="clipPath-302408822"><g transform="translate(0,-1004.3622)"><rect rx="4" y="1005.36" x="1" height="46" width="46" fill="#1890d0"/></g></clipPath></defs><g><g transform="translate(0,-1004.3622)"><path d="m 5 1006.36 c -2.216 0 -4 1.784 -4 4 l 0 37.25 c 0 2.216 1.784 4 4 4 l 38 0 c 2.216 0 4 -1.784 4 -4 l 0 -37.25 c 0 -2.216 -1.784 -4 -4 -4 l -38 0 z m -4 41.5 0 0.5 c 0 2.216 1.784 4 4 4 l 38 0 c 2.216 0 4 -1.784 4 -4 l 0 -0.5 c 0 2.216 -1.784 4 -4 4 l -38 0 c -2.216 0 -4 -1.784 -4 -4 z" opacity="0.02"/><path d="m 1 1047.61 0 0.25 c 0 2.216 1.784 4 4 4 l 38 0 c 2.216 0 4 -1.784 4 -4 l 0 -0.25 c 0 2.216 -1.784 4 -4 4 l -38 0 c -2.216 0 -4 -1.784 -4 -4 z" opacity="0.05"/><rect width="46" height="46" x="1" y="1005.61" rx="4" opacity="0.1"/></g></g><g><rect width="46" height="46" x="-46.998" y="1" rx="4" transform="matrix(0,-1,1,0,0,0)" fill="url(#linearGradient3764)" fill-opacity="1"/></g><g/><g><g clip-path="url(#clipPath-286511084)"><g opacity="0.1"><!-- color: #c55036 --><g><path d="m 10 12 c -4.184 0 -7.852 2.133 -10 5.375 l 0 13.25 c 2.148 3.242 5.816 5.375 10 5.375 c 6.629 0 12 -5.371 12 -12 c 0 -6.629 -5.371 -12 -12 -12 m 0.063 2.906 c 5 0 9.03 4.03 9.03 9.03 c 0 4.996 -4.03 9.06 -9.03 9.06 c -5 0 -9.06 -4.063 -9.06 -9.06 c 0 -5 4.063 -9.03 9.06 -9.03 m 0 0" fill="#000" stroke="none" fill-rule="nonzero" fill-opacity="1"/><path d="m 38 12 c -6.629 0 -12 5.371 -12 12 c 0 6.629 5.371 12 12 12 c 4.184 0 7.852 -2.133 10 -5.375 l 0 -13.25 c -2.148 -3.242 -5.816 -5.375 -10 -5.375 m 0 3 c 4.973 0 9 4.03 9 9 c 0 4.973 -4.03 9 -9 9 c -4.973 0 -9 -4.03 -9 -9 c 0 -4.973 4.03 -9 9 -9 m 0 0" fill="#000" stroke="none" fill-rule="nonzero" fill-opacity="1"/></g></g></g></g><g><g clip-path="url(#clipPath-302408822)"><g transform="translate(0,-1)"><!-- color: #c55036 --><g><path d="m 10 12 c -4.184 0 -7.852 2.133 -10 5.375 l 0 13.25 c 2.148 3.242 5.816 5.375 10 5.375 c 6.629 0 12 -5.371 12 -12 c 0 -6.629 -5.371 -12 -12 -12 m 0.063 2.906 c 5 0 9.03 4.03 9.03 9.03 c 0 4.996 -4.03 9.06 -9.03 9.06 c -5 0 -9.06 -4.063 -9.06 -9.06 c 0 -5 4.063 -9.03 9.06 -9.03 m 0 0" fill="#ecedf1" stroke="none" fill-rule="nonzero" fill-opacity="1"/><path d="m 38 12 c -6.629 0 -12 5.371 -12 12 c 0 6.629 5.371 12 12 12 c 4.184 0 7.852 -2.133 10 -5.375 l 0 -13.25 c -2.148 -3.242 -5.816 -5.375 -10 -5.375 m 0 3 c 4.973 0 9 4.03 9 9 c 0 4.973 -4.03 9 -9 9 c -4.973 0 -9 -4.03 -9 -9 c 0 -4.973 4.03 -9 9 -9 m 0 0" fill="#ecedf1" stroke="none" fill-rule="nonzero" fill-opacity="1"/></g></g></g></g><g><g transform="translate(0,-1004.3622)"><path d="m 1 1043.36 0 4 c 0 2.216 1.784 4 4 4 l 38 0 c 2.216 0 4 -1.784 4 -4 l 0 -4 c 0 2.216 -1.784 4 -4 4 l -38 0 c -2.216 0 -4 -1.784 -4 -4 z" opacity="0.1"/></g></g></svg>