<svg xmlns="http://www.w3.org/2000/svg" xmlns:xlink="http://www.w3.org/1999/xlink" width="48" viewBox="0 0 13.546667 13.546667" height="48">
 <defs>
  <linearGradient id="0">
   <stop stop-color="#62b937"/>
   <stop offset="1" stop-color="#6cce3d"/>
  </linearGradient>
  <linearGradient gradientTransform="matrix(0.28222223,0,0,0.28222223,0,-283.45334)" xlink:href="#0" id="1" y1="1050.36" x2="0" y2="1006.36" gradientUnits="userSpaceOnUse"/>
 </defs>
 <g transform="matrix(0.28222223,0,0,0.28222223,0,-283.45334)">
  <path transform="translate(0,1004.3622)" d="M 5.1875,1 C 2.8707723,1 1,2.8707723 1,5.1875 l 0,37.625 C 1,45.129228 2.8707723,47 5.1875,47 l 37.625,0 C 45.129228,47 47,45.129228 47,42.8125 L 47,5.1875 C 47,2.8707723 45.129228,1 42.8125,1 L 5.1875,1 z m 0.1875,0.25 37.25,0 c 2.291546,0 4.125,1.8334541 4.125,4.125 l 0,37.25 c 0,2.291546 -1.833454,4.125 -4.125,4.125 l -37.25,0 C 3.0834541,46.75 1.25,44.916546 1.25,42.625 l 0,-37.25 C 1.25,3.0834541 3.0834541,1.25 5.375,1.25 z" opacity="0.05"/>
  <path transform="translate(0,1004.3622)" d="M 5.375,1.25 C 3.0834541,1.25 1.25,3.0834541 1.25,5.375 l 0,37.25 c 0,2.291546 1.8334541,4.125 4.125,4.125 l 37.25,0 c 2.291546,0 4.125,-1.833454 4.125,-4.125 l 0,-37.25 C 46.75,3.0834541 44.916546,1.25 42.625,1.25 l -37.25,0 z m 0.21875,0.25 36.8125,0 C 44.672614,1.5 46.5,3.3273859 46.5,5.59375 l 0,36.8125 C 46.5,44.672614 44.672614,46.5 42.40625,46.5 l -36.8125,0 C 3.3273859,46.5 1.5,44.672614 1.5,42.40625 l 0,-36.8125 C 1.5,3.3273859 3.3273859,1.5 5.59375,1.5 z" opacity="0.1"/>
  <path transform="translate(0,1004.3622)" d="M 5.59375,1.5 C 3.3273859,1.5 1.5,3.3273859 1.5,5.59375 l 0,36.8125 C 1.5,44.672614 3.3273859,46.5 5.59375,46.5 l 36.8125,0 C 44.672614,46.5 46.5,44.672614 46.5,42.40625 l 0,-36.8125 C 46.5,3.3273859 44.672614,1.5 42.40625,1.5 l -36.8125,0 z m 0.09375,0.125 36.625,0 c 2.253773,0 4.0625,1.8087269 4.0625,4.0625 l 0,36.625 c 0,2.253773 -1.808727,4.0625 -4.0625,4.0625 l -36.625,0 c -2.2537731,0 -4.0625,-1.808727 -4.0625,-4.0625 l 0,-36.625 C 1.625,3.4337269 3.4337269,1.625 5.6875,1.625 z" opacity="0.2"/>
  <path transform="translate(0,1004.3622)" d="M 5.6875,1.625 C 3.4337269,1.625 1.625,3.4337269 1.625,5.6875 l 0,36.625 c 0,2.253773 1.8087269,4.0625 4.0625,4.0625 l 36.625,0 c 2.253773,0 4.0625,-1.808727 4.0625,-4.0625 l 0,-36.625 c 0,-2.2537731 -1.808727,-4.0625 -4.0625,-4.0625 l -36.625,0 z m 0.09375,0.125 36.4375,0 c 2.241182,0 4.03125,1.7900679 4.03125,4.03125 l 0,36.4375 c 0,2.241182 -1.790068,4.03125 -4.03125,4.03125 l -36.4375,0 C 3.5400679,46.25 1.75,44.459932 1.75,42.21875 l 0,-36.4375 C 1.75,3.5400679 3.5400679,1.75 5.78125,1.75 z" opacity="0.3"/>
  <path transform="translate(0,1004.3622)" d="M 5.78125,1.75 C 3.5400679,1.75 1.75,3.5400679 1.75,5.78125 l 0,36.4375 c 0,2.241182 1.7900679,4.03125 4.03125,4.03125 l 36.4375,0 c 2.241182,0 4.03125,-1.790068 4.03125,-4.03125 l 0,-36.4375 C 46.25,3.5400679 44.459932,1.75 42.21875,1.75 l -36.4375,0 z m 0.125,0.125 36.1875,0 c 2.228591,0 4.03125,1.802659 4.03125,4.03125 l 0,36.1875 c 0,2.228591 -1.802659,4.03125 -4.03125,4.03125 l -36.1875,0 C 3.677659,46.125 1.875,44.322341 1.875,42.09375 l 0,-36.1875 C 1.875,3.677659 3.677659,1.875 5.90625,1.875 z" opacity="0.4"/>
  <rect width="44.25" height="44.25" x="1.875" y="1006.24" rx="4.02" opacity="0.5"/>
 </g>
 <rect width="12.418" height="12.418" x="0.564" y="0.564" rx="1.129" fill="url(#1)"/>
 <path d="m 4.2890264,4.5256599 c 0,0 0,0 4.605e-4,0 h 0.6964739 c 0.039912,0 0.072005,-0.032138 0.072081,-0.071297 0,-2.568e-4 -0.00845,-0.5904724 -0.00845,-0.7546057 v -0.00195 c 0,-0.1348023 0.028617,-0.2523279 0.078452,-0.3508177 l 0.02382,-0.04423 c -0.00263,4.44e-4 -0.00534,0.00173 -0.00798,0.00437 L 3.7906139,4.6340031 c -0.00263,0.00215 -0.00427,0.00495 -0.00506,0.00782 0.027992,-0.013698 0.066259,-0.032417 0.071672,-0.034769 0.1178502,-0.052578 0.2607472,-0.08139 0.4318118,-0.08139 z M 9.7084939,4.3811817 C 9.6531693,4.0883551 9.4770901,3.9440412 9.3178959,3.8873022 9.146141,3.8259213 8.797872,3.7623398 8.3602912,3.711343 8.0082488,3.6703509 7.5944729,3.673614 7.3445344,3.6812534 7.3145377,3.4781011 7.1704258,3.2925041 7.0091719,3.2282523 6.5795352,3.0572638 5.9157311,3.0985722 5.7452934,3.1457999 5.6098671,3.1832258 5.4599599,3.259923 5.3765318,3.3781188 c -0.055954,0.078949 -0.092151,0.1800947 -0.092433,0.3213983 0,0.079973 0.00228,0.2683657 0.00434,0.4357492 0.00206,0.1679026 0.00427,0.3180725 0.00427,0.3190968 -6.14e-5,0.1494871 -0.122608,0.2711481 -0.2744596,0.2713379 H 4.3216606 c -0.1485891,0 -0.2621165,0.024689 -0.3488447,0.063645 C 3.8859589,4.82834 3.8244438,4.880905 3.777703,4.9430952 3.684668,5.0665904 3.6685121,5.2189862 3.6688956,5.3745059 c 0,0 0.00135,0.1270874 0.032339,0.3730659 0.025749,0.1903273 0.2344983,1.5199117 0.4327711,1.9242809 0.076878,0.1573289 0.1280844,0.2228578 0.2791168,0.2922072 0.3365132,0.1424545 1.1051584,0.300934 1.4654131,0.3463153 0.3596029,0.045495 0.585301,0.1411263 0.7198064,-0.1377243 4.469e-4,-6.971e-4 0.026938,-0.069375 0.063384,-0.1701286 0.1167755,-0.3498817 0.1330214,-0.660327 0.1330214,-0.8849812 0,-0.022842 0.033899,-0.023892 0.033899,0 0,0.1586061 -0.030639,0.7198614 0.3981562,0.8704363 0.169274,0.059357 0.5204339,0.1122761 0.8772348,0.1536226 0.3226215,0.036654 0.5567496,0.1621854 0.5567496,0.9805875 0,0.497914 -0.1057755,0.566188 -0.6587126,0.566188 -0.4482242,0 -0.6190582,0.01147 -0.6190582,-0.340624 0,-0.284567 0.2846425,-0.254743 0.4956049,-0.254743 0.094224,0 0.025842,-0.0693 0.025842,-0.244865 0,-0.174644 0.1104698,-0.275601 0.00597,-0.278155 -0.7294896,-0.01985 -1.1587172,-8.2e-4 -1.1587172,0.901246 0,0.8189195 0.3169535,0.9709875 1.352295,0.9709875 0.8117663,0 1.0979182,-0.02628 1.4331012,-1.0546035 0.066352,-0.203 0.2267472,-0.822513 0.3238243,-1.862685 C 9.9223281,6.8672497 9.8030972,4.8821947 9.7085174,4.3811816 z M 8.2934286,6.5752954 c -0.1002875,-0.00346 -0.1967505,0.0028 -0.2867021,0.017088 0.025315,-0.2021536 0.1097019,-0.4502061 0.408646,-0.4398223 0.3309234,0.011257 0.3772934,0.3205133 0.3784706,0.52999 C 8.6543103,6.6210307 8.4815697,6.5818345 8.2934286,6.5752954 z" fill="#2d2d2d"/>
</svg>
