<svg xmlns="http://www.w3.org/2000/svg" xmlns:xlink="http://www.w3.org/1999/xlink" width="48" viewBox="0 0 13.546667 13.546667" height="48">
 <defs>
  <linearGradient id="0">
   <stop stop-color="#0a0a0a"/>
   <stop offset="1" stop-color="#224354"/>
  </linearGradient>
  <linearGradient gradientTransform="matrix(0.28222223,0,0,0.28222223,0,-283.45334)" xlink:href="#0" id="1" y1="1050.36" x2="0" y2="1006.36" gradientUnits="userSpaceOnUse"/>
 </defs>
 <g transform="matrix(0.28222223,0,0,0.28222223,0,-283.45334)">
  <path transform="translate(0,1004.3622)" d="M 5.1875,1 C 2.8707723,1 1,2.8707723 1,5.1875 l 0,37.625 C 1,45.129228 2.8707723,47 5.1875,47 l 37.625,0 C 45.129228,47 47,45.129228 47,42.8125 L 47,5.1875 C 47,2.8707723 45.129228,1 42.8125,1 L 5.1875,1 z m 0.1875,0.25 37.25,0 c 2.291546,0 4.125,1.8334541 4.125,4.125 l 0,37.25 c 0,2.291546 -1.833454,4.125 -4.125,4.125 l -37.25,0 C 3.0834541,46.75 1.25,44.916546 1.25,42.625 l 0,-37.25 C 1.25,3.0834541 3.0834541,1.25 5.375,1.25 z" opacity="0.05"/>
  <path transform="translate(0,1004.3622)" d="M 5.375,1.25 C 3.0834541,1.25 1.25,3.0834541 1.25,5.375 l 0,37.25 c 0,2.291546 1.8334541,4.125 4.125,4.125 l 37.25,0 c 2.291546,0 4.125,-1.833454 4.125,-4.125 l 0,-37.25 C 46.75,3.0834541 44.916546,1.25 42.625,1.25 l -37.25,0 z m 0.21875,0.25 36.8125,0 C 44.672614,1.5 46.5,3.3273859 46.5,5.59375 l 0,36.8125 C 46.5,44.672614 44.672614,46.5 42.40625,46.5 l -36.8125,0 C 3.3273859,46.5 1.5,44.672614 1.5,42.40625 l 0,-36.8125 C 1.5,3.3273859 3.3273859,1.5 5.59375,1.5 z" opacity="0.1"/>
  <path transform="translate(0,1004.3622)" d="M 5.59375,1.5 C 3.3273859,1.5 1.5,3.3273859 1.5,5.59375 l 0,36.8125 C 1.5,44.672614 3.3273859,46.5 5.59375,46.5 l 36.8125,0 C 44.672614,46.5 46.5,44.672614 46.5,42.40625 l 0,-36.8125 C 46.5,3.3273859 44.672614,1.5 42.40625,1.5 l -36.8125,0 z m 0.09375,0.125 36.625,0 c 2.253773,0 4.0625,1.8087269 4.0625,4.0625 l 0,36.625 c 0,2.253773 -1.808727,4.0625 -4.0625,4.0625 l -36.625,0 c -2.2537731,0 -4.0625,-1.808727 -4.0625,-4.0625 l 0,-36.625 C 1.625,3.4337269 3.4337269,1.625 5.6875,1.625 z" opacity="0.2"/>
  <path transform="translate(0,1004.3622)" d="M 5.6875,1.625 C 3.4337269,1.625 1.625,3.4337269 1.625,5.6875 l 0,36.625 c 0,2.253773 1.8087269,4.0625 4.0625,4.0625 l 36.625,0 c 2.253773,0 4.0625,-1.808727 4.0625,-4.0625 l 0,-36.625 c 0,-2.2537731 -1.808727,-4.0625 -4.0625,-4.0625 l -36.625,0 z m 0.09375,0.125 36.4375,0 c 2.241182,0 4.03125,1.7900679 4.03125,4.03125 l 0,36.4375 c 0,2.241182 -1.790068,4.03125 -4.03125,4.03125 l -36.4375,0 C 3.5400679,46.25 1.75,44.459932 1.75,42.21875 l 0,-36.4375 C 1.75,3.5400679 3.5400679,1.75 5.78125,1.75 z" opacity="0.3"/>
  <path transform="translate(0,1004.3622)" d="M 5.78125,1.75 C 3.5400679,1.75 1.75,3.5400679 1.75,5.78125 l 0,36.4375 c 0,2.241182 1.7900679,4.03125 4.03125,4.03125 l 36.4375,0 c 2.241182,0 4.03125,-1.790068 4.03125,-4.03125 l 0,-36.4375 C 46.25,3.5400679 44.459932,1.75 42.21875,1.75 l -36.4375,0 z m 0.125,0.125 36.1875,0 c 2.228591,0 4.03125,1.802659 4.03125,4.03125 l 0,36.1875 c 0,2.228591 -1.802659,4.03125 -4.03125,4.03125 l -36.1875,0 C 3.677659,46.125 1.875,44.322341 1.875,42.09375 l 0,-36.1875 C 1.875,3.677659 3.677659,1.875 5.90625,1.875 z" opacity="0.4"/>
  <rect width="44.25" height="44.25" x="1.875" y="1006.24" rx="4.02" opacity="0.5"/>
 </g>
 <rect width="12.418" height="12.418" x="0.564" y="0.564" rx="1.129" fill="url(#1)"/>
 <path d="m 3.1044445,3.1044448 c 0.901215,0.949224 0.510142,1.556458 1.004618,2.6744541 0.458874,1.0375014 1.457753,0.2609256 2.1416,0.9944362 -0.683844,0.7335044 -1.686125,-0.046461 -2.144996,0.9910404 -0.494473,1.117999 -0.10001,1.728623 -1.001222,2.6778465 0.949224,-0.9012145 1.559848,-0.5067485 2.677847,-1.0012215 1.0375047,-0.458874 0.260926,-1.457753 0.9944395,-2.141599 0.7282877,0.683923 -0.0452,1.686679 0.9910405,2.144991 1.118245,0.494586 1.7250192,0.09642 2.6744515,0.9978295 C 9.5408118,9.4927905 9.938976,8.8860135 9.4443932,7.7677715 8.9860803,6.7315306 7.9867177,7.5016255 7.3027942,6.7733351 7.9867177,6.0450416 8.9860803,6.8151371 9.4443932,5.7788989 9.9389789,4.6606536 9.5408088,4.0538763 10.442223,3.1044448 9.4927878,4.0058553 8.8860136,3.607691 7.7677715,4.1022741 6.7315306,4.5605868 7.5050187,5.5633456 6.776731,6.2472692 6.0432205,5.5634197 6.8197962,4.5645405 5.7822915,4.1056669 4.6642925,3.6111938 4.0536685,4.0056596 3.1044445,3.1044448 z" fill="#f9f9f9" fill-rule="evenodd"/>
 <path d="m -24.702736,1.5295803 c 1.496465,1.5761847 0.84709,2.5844956 1.668166,4.4409257 0.761959,1.7227692 2.420596,0.4332667 3.556122,1.65126 -1.135521,1.2179831 -2.799807,-0.077149 -3.56176,1.64562 -0.821072,1.856436 -0.166067,2.870376 -1.662528,4.44656 1.576185,-1.496465 2.590124,-0.841455 4.44656,-1.662527 1.722774,-0.761959 0.433267,-2.4205959 1.651264,-3.5561216 1.20932,1.1356538 -0.07506,2.8007276 1.645621,3.5617556 1.856844,0.821259 2.864391,0.160098 4.440921,1.656893 -1.496791,-1.576529 -0.83564,-2.584081 -1.656894,-4.4409206 -0.761028,-1.7206756 -2.420467,-0.4419343 -3.556121,-1.6512594 1.135654,-1.2093302 2.795093,0.069411 3.556121,-1.65126 0.821259,-1.8568439 0.160098,-2.8643964 1.656894,-4.4409257 -1.576535,1.4967908 -2.584082,0.8356397 -4.440921,1.6568937 -1.720676,0.7610275 -0.436301,2.4261062 -1.645621,3.56176 -1.217993,-1.1355304 0.07151,-2.7941674 -1.651264,-3.556126 -1.856436,-0.8210719 -2.870375,-0.1660621 -4.44656,-1.6625277 z" fill="#ffffff" fill-rule="evenodd" stroke="#ffffff" stroke-width="0.138"/>
</svg>
