<svg xmlns="http://www.w3.org/2000/svg" xmlns:xlink="http://www.w3.org/1999/xlink" width="48" viewBox="0 0 13.546667 13.546667" height="48">
 <defs>
  <linearGradient id="0">
   <stop stop-color="#246abc"/>
   <stop offset="1" stop-color="#1a4d8a"/>
  </linearGradient>
  <linearGradient gradientTransform="matrix(0.28222223,0,0,0.28222223,0,-283.45334)" xlink:href="#2" id="1" y1="1050.36" x2="0" y2="1006.36" gradientUnits="userSpaceOnUse"/>
  <linearGradient id="2">
   <stop stop-color="#dddddd"/>
   <stop offset="1" stop-color="#fafafa"/>
  </linearGradient>
  <linearGradient xlink:href="#0" id="3" x1="2.578" x2="11.01" gradientUnits="userSpaceOnUse"/>
 </defs>
 <g transform="matrix(0.28222223,0,0,0.28222223,0,-283.45334)">
  <path transform="translate(0,1004.3622)" d="M 5.1875,1 C 2.8707723,1 1,2.8707723 1,5.1875 l 0,37.625 C 1,45.129228 2.8707723,47 5.1875,47 l 37.625,0 C 45.129228,47 47,45.129228 47,42.8125 L 47,5.1875 C 47,2.8707723 45.129228,1 42.8125,1 L 5.1875,1 z m 0.1875,0.25 37.25,0 c 2.291546,0 4.125,1.8334541 4.125,4.125 l 0,37.25 c 0,2.291546 -1.833454,4.125 -4.125,4.125 l -37.25,0 C 3.0834541,46.75 1.25,44.916546 1.25,42.625 l 0,-37.25 C 1.25,3.0834541 3.0834541,1.25 5.375,1.25 z" opacity="0.05"/>
  <path transform="translate(0,1004.3622)" d="M 5.375,1.25 C 3.0834541,1.25 1.25,3.0834541 1.25,5.375 l 0,37.25 c 0,2.291546 1.8334541,4.125 4.125,4.125 l 37.25,0 c 2.291546,0 4.125,-1.833454 4.125,-4.125 l 0,-37.25 C 46.75,3.0834541 44.916546,1.25 42.625,1.25 l -37.25,0 z m 0.21875,0.25 36.8125,0 C 44.672614,1.5 46.5,3.3273859 46.5,5.59375 l 0,36.8125 C 46.5,44.672614 44.672614,46.5 42.40625,46.5 l -36.8125,0 C 3.3273859,46.5 1.5,44.672614 1.5,42.40625 l 0,-36.8125 C 1.5,3.3273859 3.3273859,1.5 5.59375,1.5 z" opacity="0.1"/>
  <path transform="translate(0,1004.3622)" d="M 5.59375,1.5 C 3.3273859,1.5 1.5,3.3273859 1.5,5.59375 l 0,36.8125 C 1.5,44.672614 3.3273859,46.5 5.59375,46.5 l 36.8125,0 C 44.672614,46.5 46.5,44.672614 46.5,42.40625 l 0,-36.8125 C 46.5,3.3273859 44.672614,1.5 42.40625,1.5 l -36.8125,0 z m 0.09375,0.125 36.625,0 c 2.253773,0 4.0625,1.8087269 4.0625,4.0625 l 0,36.625 c 0,2.253773 -1.808727,4.0625 -4.0625,4.0625 l -36.625,0 c -2.2537731,0 -4.0625,-1.808727 -4.0625,-4.0625 l 0,-36.625 C 1.625,3.4337269 3.4337269,1.625 5.6875,1.625 z" opacity="0.2"/>
  <path transform="translate(0,1004.3622)" d="M 5.6875,1.625 C 3.4337269,1.625 1.625,3.4337269 1.625,5.6875 l 0,36.625 c 0,2.253773 1.8087269,4.0625 4.0625,4.0625 l 36.625,0 c 2.253773,0 4.0625,-1.808727 4.0625,-4.0625 l 0,-36.625 c 0,-2.2537731 -1.808727,-4.0625 -4.0625,-4.0625 l -36.625,0 z m 0.09375,0.125 36.4375,0 c 2.241182,0 4.03125,1.7900679 4.03125,4.03125 l 0,36.4375 c 0,2.241182 -1.790068,4.03125 -4.03125,4.03125 l -36.4375,0 C 3.5400679,46.25 1.75,44.459932 1.75,42.21875 l 0,-36.4375 C 1.75,3.5400679 3.5400679,1.75 5.78125,1.75 z" opacity="0.3"/>
  <path transform="translate(0,1004.3622)" d="M 5.78125,1.75 C 3.5400679,1.75 1.75,3.5400679 1.75,5.78125 l 0,36.4375 c 0,2.241182 1.7900679,4.03125 4.03125,4.03125 l 36.4375,0 c 2.241182,0 4.03125,-1.790068 4.03125,-4.03125 l 0,-36.4375 C 46.25,3.5400679 44.459932,1.75 42.21875,1.75 l -36.4375,0 z m 0.125,0.125 36.1875,0 c 2.228591,0 4.03125,1.802659 4.03125,4.03125 l 0,36.1875 c 0,2.228591 -1.802659,4.03125 -4.03125,4.03125 l -36.1875,0 C 3.677659,46.125 1.875,44.322341 1.875,42.09375 l 0,-36.1875 C 1.875,3.677659 3.677659,1.875 5.90625,1.875 z" opacity="0.4"/>
  <rect width="44.25" height="44.25" x="1.875" y="1006.24" rx="4.02" opacity="0.5"/>
 </g>
 <rect width="12.418" height="12.418" x="0.564" y="0.564" rx="1.129" fill="url(#1)"/>
 <rect height="8.467" rx="4.214" y="2.258" x="2.578" width="8.429" fill="url(#3)" fill-rule="evenodd"/>
 <path d="M 2.7813634,6.7203154 2.8260815,6.4954972 3.3158912,6.700955 3.6537027,7.0149837 3.944036,7.0575147 c -0.10368,0.235204 -0.3135884,0.6142566 -0.2753755,0.8767798 0.022211,0.1527104 0.1781556,0.370332 0.2672588,0.4945944 0.1244713,0.173623 0.3588625,0.2761261 0.4215356,0.4946226 l 0.01047,0.3597204 0.068239,0.2697763 c -0.013631,0.1143 -0.1204242,0.3125611 -0.050013,0.4186484 0.077425,0.1167274 0.363872,0.2634544 0.4968636,0.3001994 0.1269774,0.03497 0.1408401,-0.09793 0.089546,-0.179267 L 5.1384204,9.8636784 5.3483288,9.7079764 5.4961427,9.1946424 5.8140886,8.9879711 C 5.9443539,8.7923346 5.8499337,8.6298875 5.8986791,8.428917 L 6.1128801,7.8219135 C 5.8705726,7.730925 5.5236057,7.6192497 5.3526694,7.4172632 L 5.3079513,7.4395588 5.2632332,7.2372337 4.9949243,7.1023315 4.9502062,7.1472895 4.8831248,6.8325552 4.5253799,6.8040508 4.2570713,6.6565614 C 4.1413404,6.6401926 3.9875998,6.830495 3.9440445,6.9224712 l -0.1565148,-0.022295 0.044718,-0.04493 -0.1341544,-0.089973 0.022352,0.089973 C 3.6240101,6.7550006 3.6075312,6.6287061 3.6310092,6.4955254 l -0.156512,-0.067479 -0.022352,0.067479 C 3.424177,6.3842734 3.4356917,6.2405094 3.5192266,6.1582981 3.3966801,6.0742521 3.3139297,6.1532181 3.2285575,6.2482141 L 3.0496862,5.8884936 c -0.049262,0.1103489 -0.031451,0.220472 -0.022352,0.3372274 l -0.044718,0 C 2.9727383,6.0999063 2.9418322,5.9624641 3.0052785,5.8438743 3.1238119,5.6222734 3.4795151,5.5284345 3.698116,5.5737594 l -0.022352,0.04493 0.2012329,0.1799167 c 8.467e-4,-0.3438034 0.1352494,-0.3801254 0.3242282,-0.6304 L 4.3335253,4.9268215 C 4.4801792,4.7646284 4.7078394,4.6541948 4.9046217,4.5812686 L 5.1514647,4.4271753 C 5.071638,4.2882655 4.8613542,4.3282564 4.7266439,4.3372593 4.9688809,4.1986599 5.2985646,4.2735053 5.4644915,4.0224968 5.2834741,3.8900499 5.2834064,3.5444688 4.9949526,3.6852977 L 5.0396707,3.5504237 4.7937196,3.4379864 4.6143336,3.8139628 4.3688962,4.112441 4.3465442,3.9550457 C 4.2519659,3.9108779 3.9914155,3.8336055 3.9863411,3.7076779 3.9808096,3.5708566 4.4012812,3.363649 4.503059,3.280591 L 4.458341,3.3930001 4.6316254,3.3769135 c 0.036734,-0.023142 0.3856707,-0.5175392 0.4304114,-0.2085905 0.2424403,0.0924 0.2697622,0.197866 0.5142598,0.044986 L 5.4197818,3.1458299 C 5.3951156,2.9238057 5.2001932,2.9211246 5.0173187,2.9210117 L 5.5986543,2.6512354 c 0.064728,0.1596249 0.2677752,0.1923063 0.3334653,0.3393441 0.046665,0.1044504 -0.09203,0.1674424 -0.088516,0.2676595 0.00432,0.1235851 0.1237573,0.2749691 0.1798772,0.3822136 L 6.3598302,3.2707979 c 0.1856035,-0.099511 0.4840083,-0.1102924 0.6318222,-0.2710462 0.1711367,-0.186182 0.07705,-0.4822614 0.3957348,-0.483362 -0.064663,-0.027093 -0.1688112,-0.048147 -0.2235905,0 l -0.067073,-0.067508 0.089436,0 C 7.1394097,2.3844508 7.1078317,2.3497374 7.0296452,2.336473 6.9398052,2.2247977 6.7330522,2.2774603 6.6048217,2.2652401 6.1582445,2.2226528 5.67589,2.3670377 5.2632755,2.5087697 3.855548,2.9923575 2.5952774,4.5487848 2.540244,6.0909599 2.533979,6.2660223 2.6820268,6.3438028 2.7553821,6.4778583 L 2.781403,6.7204848 M 8.7065645,2.9433637 C 8.6279684,3.008049 8.4941076,3.0402223 8.3935377,3.0557728 L 8.2113745,3.3084464 7.9981613,3.4870648 c -0.034282,0.081901 0.020715,0.2057118 0.037626,0.2881207 L 8.2593777,3.6627764 c 0.032156,0.1117035 0.1191317,0.1404055 0.2012329,0.2023251 0.1325457,-0.2528994 0.018429,-0.494538 0.3353873,-0.6294967 l -0.2012329,0.2473113 0.067081,-0.04493 0.02238,0.134874 0.02238,-0.1798603 C 8.765658,3.5958047 8.703786,3.8748379 8.4830126,3.9513765 l -0.2235905,-0.018627 0,-0.1348741 c -0.1271807,0.026529 -0.122953,0.090368 -0.089436,0.2022969 -0.086309,-0.024553 -0.13762,-0.02032 -0.2012329,0.045014 C 7.9004503,3.9745755 7.8447284,3.920417 7.8345994,3.8203128 7.7911767,3.7768506 7.7719969,3.7472455 7.7675265,3.685467 L 7.6110117,3.6631715 7.6780931,4.0228919 C 7.6184426,3.9103417 7.5565512,3.8833613 7.4321449,3.9104828 L 7.4992259,4.180259 7.5886619,4.157964 7.5215889,4.135668 7.6110249,3.9782727 7.6557429,4.225584 7.856973,4.180626 C 7.800608,4.234756 7.7558443,4.247936 7.6781005,4.248049 l 0.022352,0.067479 -0.1117967,0 0.1565148,0.2698044 C 7.378818,4.5884324 7.3744802,4.776792 7.3874257,5.0799268 7.4589297,5.0850068 7.49399,5.0957308 7.5439377,5.1473498 7.8397951,4.9906037 7.9081917,4.6992093 8.2594313,4.6077975 8.3164261,4.7859926 8.4923917,4.7749577 8.4383038,4.9899828 8.6108714,4.954564 8.6591681,4.8085986 8.5501005,4.6752204 8.6971326,4.763302 8.7395026,4.9441782 8.8407668,5.079927 8.9120505,4.985806 8.8842318,4.8782228 8.9972816,4.8101226 l 0,0.067451 C 9.1866894,5.0465684 9.3173103,5.084499 9.5562622,5.169843 9.4741384,5.2870499 9.3751066,5.4020554 9.220875,5.3924599 9.0320711,5.3808887 8.7911521,5.1945092 8.6618944,5.4170132 L 8.3021372,5.1303318 c -0.1995565,-0.08461 -0.3960029,-0.00508 -0.6016837,-0.02794 l -0.089436,0.044958 0.044718,0.022296 C 7.2460955,5.3549807 7.0190167,5.8430276 6.9764011,6.2487785 l -0.07819,0.2697763 c 0.043558,0.2634544 0.2653341,0.5364198 0.4517645,0.7156591 0.13127,0.126238 0.2256253,-0.120904 0.3504804,0.00395 0.1652553,-0.062879 0.4146946,-0.172212 0.5662648,0.00339 0.099565,0.1153442 -0.00406,0.2104531 0.0305,0.3339253 0.059763,0.2135011 0.2021727,0.4636347 0.2018369,0.6969196 L 8.443,8.8344139 C 8.4919825,9.1768342 8.6813028,9.464842 8.6842548,9.8236311 8.9583998,9.7952395 9.2664652,9.6565555 9.4187071,9.4189808 L 9.4840895,9.2186595 9.597049,9.0797215 9.5545012,8.858939 C 9.6184951,8.704507 9.8771884,8.6880817 9.9161605,8.5193975 9.969238,8.2896404 9.8305484,8.0170984 9.9132536,7.7778021 10.04079,7.4087966 10.396142,7.138851 10.405912,6.7211339 l -0.268309,0.022296 c 0.241323,-0.2977726 0.752811,-0.4475762 0.491902,-0.8993011 l -0.111796,0.1349022 -0.04472,0 C 10.386656,5.7969125 10.249555,5.7780601 10.249375,5.5518872 10.458679,5.7329892 10.675561,5.7387748 10.875431,5.9565374 11.091955,5.8386814 10.87402,5.325037 10.815704,5.1471805 10.622187,4.5561508 10.30491,3.9958833 9.8691987,3.5510164 9.7134233,3.3919559 9.5889718,3.1993392 9.3550067,3.1687746 l 0.022352,-0.067395 C 9.1956246,3.077391 8.8915612,3.0756977 8.7512995,2.9439846 l -0.044715,0 z" fill="#1ca1de"/>
 <path d="m 7.7637989,3.0962435 c 0.222881,0.043547 0.4145283,0.093416 0.5673169,0.1619391 C 8.5668775,3.3598672 8.7177148,3.494967 8.7900678,3.650669 8.5711921,3.611045 8.3778111,3.6215437 8.2036312,3.6879788 9.4524279,4.1694499 10.043715,4.7451833 9.975697,5.4072201 9.8843605,5.2681692 9.7610162,5.178733 9.6059833,5.1331258 9.797205,5.8595094 9.8183874,6.4538694 9.6633577,6.9270997 9.5572159,6.6116317 9.4573055,6.4266632 9.3701381,6.3602563 9.4914042,7.333669 9.3273682,8.0527713 8.8793141,8.5217964 8.9642128,8.2353973 9.0006003,8.0026768 8.9812994,7.8178777 8.4547737,8.587921 7.8550264,8.9825806 7.1837354,9.0076419 6.918385,9.0045375 6.6672399,8.9703322 6.4315635,8.8954586 6.0858765,8.7822593 5.7732474,8.5845344 5.4945354,8.3099321 5.9292054,8.3449841 6.3246298,8.2706468 6.6737886,8.0981526 L 7.2474815,7.7369081 C 7.319856,7.6844712 7.3897932,7.6895795 7.4578316,7.7216681 7.5979154,7.7027592 7.6341189,7.6617806 7.5942036,7.5334823 7.5050937,7.4579032 7.4263415,7.3577143 7.2946166,7.2850986 7.0078709,7.1397259 6.7099204,7.1293966 6.3996918,7.3516466 6.1023227,7.5157588 5.8173802,7.5073203 5.5391576,7.3330199 5.3564582,7.210733 5.1800044,7.0463103 5.0100884,6.840909 l -0.063744,-0.093387 0,-0.00706 C 4.9547966,6.5370968 5.0356761,6.4290057 5.2013195,6.4040854 5.3882062,6.4204543 5.6030894,6.4601348 5.8451263,6.5286583 5.8855007,6.302429 5.832257,6.0675919 5.6857675,5.8247679 l 0.00503,-0.026811 C 5.9180436,5.5924708 6.1059015,5.4686317 6.277897,5.3731842 6.340095,5.2911422 6.366104,5.2615935 6.4111976,5.1883286 c -0.00998,-0.021731 0.010135,-0.032907 0.022902,-0.022295 0.013487,-0.061722 0.014139,-0.054046 -0.04209,-0.1336322 C 6.2254744,5.0723353 6.0367549,5.0244986 5.9093327,4.9919584 5.8434643,4.9733317 5.7539696,4.9326353 5.651994,4.8372442 l -0.2613448,-0.2491458 -0.068261,-0.08605 0.00635,-0.031185 C 5.3581648,4.2748882 5.4547387,4.115743 5.5327116,3.9662499 5.617711,3.8293157 5.7771344,3.6817135 6.0171596,3.5240077 5.5711204,3.578025 5.1712736,3.7732664 4.8124118,4.1095342 4.5150512,4.0036444 4.1599467,4.0267019 3.754272,4.1779448 l -0.1112133,0.018344 c -0.00624,0.0031 0.053632,0.02286 0.047478,0.025964 l 0.063744,-0.04366 C 3.5020195,4.0625724 3.5135548,3.9036813 3.4312362,3.3736397 1.9343458,4.9929462 1.9188925,7.4238955 3.1041537,9.1824786 4.0025189,10.317802 5.1297226,10.920544 6.4889271,11.001344 9.649859,11.144177 11.720475,8.388531 11.212294,5.594531 11.200415,5.3727607 10.930127,4.4149833 10.434247,3.7652795 c 0.08757,0.3362678 0.09335,0.7040033 0.09586,0.8949267 C 10.344689,4.0240773 9.83016,3.4985513 9.0831491,3.2773455 8.713604,3.1695648 8.2712452,3.1113423 7.7637103,3.0967515 z" fill="#95c9d6"/>
 <path d="m 7.2365767,7.7423832 c 0.070546,-0.039906 0.1595591,-0.01778 0.2267475,0 0.066673,-0.00593 0.1963033,-0.042446 0.1446183,-0.2114409 C 7.5227721,7.4292295 7.3931127,7.3079868 7.1383789,7.2181837 z" fill="#fef7ce"/>
 <path d="m 5.9157281,4.9806695 0.370176,0.3922888 c 0.051735,-0.03508 0.1152211,-0.064206 0.1400945,-0.1850531 0.00521,-0.00847 0.012093,-0.013547 0.023176,-0.01524 C 6.4939556,5.0827492 6.4497673,5.0522975 6.3946456,5.009936 6.2380442,5.013036 6.1243755,5.004576 5.9157295,4.980585 z" fill="#2d2d2d"/>
 <path d="M 5.6855454,5.8276183 C 5.6395344,5.7180596 5.5552225,5.5681714 5.4534052,5.4857907 L 6.0911882,5.164763 6.2884237,5.3705876 C 6.0637218,5.5085096 5.860388,5.6488587 5.6855454,5.8276183 z" fill="#fef7ce"/>
 <path d="M 5.3247745,4.5010046 C 5.2107985,4.8617128 5.2816033,5.1871714 5.4523666,5.486073 L 6.0920072,5.1650452 C 6.0067781,5.0722506 5.919086,4.9816291 5.919086,4.9816291 5.8532182,4.9632846 5.7692339,4.9089004 5.6672591,4.8135093 l -0.2619,-0.2513754 z" fill="#55abcd"/>
</svg>
