<svg viewBox="0 0 48 48"><defs><linearGradient id="linearGradient3764" x1="1" x2="47" gradientUnits="userSpaceOnUse" gradientTransform="translate(-48.000001,0.00221467)"><stop stop-color="#133b57" stop-opacity="1"/><stop offset="1" stop-color="#174767" stop-opacity="1"/></linearGradient><clipPath id="clipPath-637755997"><g transform="translate(0,-1004.3622)"><rect rx="4" y="1005.36" x="1" height="46" width="46" fill="#1890d0"/></g></clipPath><clipPath id="clipPath-666960762"><g transform="translate(0,-1004.3622)"><rect rx="4" y="1005.36" x="1" height="46" width="46" fill="#1890d0"/></g></clipPath></defs><g><path d="m 1 43 l 0 0.25 c 0 2.216 1.784 4 4 4 l 38 0 c 2.216 0 4 -1.784 4 -4 l 0 -0.25 c 0 2.216 -1.784 4 -4 4 l -38 0 c -2.216 0 -4 -1.784 -4 -4 z m 0 0.5 l 0 0.5 c 0 2.216 1.784 4 4 4 l 38 0 c 2.216 0 4 -1.784 4 -4 l 0 -0.5 c 0 2.216 -1.784 4 -4 4 l -38 0 c -2.216 0 -4 -1.784 -4 -4 z" opacity="0.02"/><path d="m 1 43.25 l 0 0.25 c 0 2.216 1.784 4 4 4 l 38 0 c 2.216 0 4 -1.784 4 -4 l 0 -0.25 c 0 2.216 -1.784 4 -4 4 l -38 0 c -2.216 0 -4 -1.784 -4 -4 z" opacity="0.05"/><path d="m 1 43 l 0 0.25 c 0 2.216 1.784 4 4 4 l 38 0 c 2.216 0 4 -1.784 4 -4 l 0 -0.25 c 0 2.216 -1.784 4 -4 4 l -38 0 c -2.216 0 -4 -1.784 -4 -4 z" opacity="0.1"/></g><g><rect width="46" height="46" x="-47" y="1" rx="4" transform="matrix(0,-1,1,0,0,0)" fill="url(#linearGradient3764)" fill-opacity="1"/></g><g/><g><g clip-path="url(#clipPath-637755997)"><g opacity="0.1"><!-- color: #174767 --><g><path d="m 36 14.332 c 0 1.262 -1.02 2.281 -2.281 2.281 c -1.258 0 -2.281 -1.02 -2.281 -2.281 c 0 -1.262 1.023 -2.281 2.281 -2.281 c 1.262 0 2.281 1.02 2.281 2.281 m 0 0" stroke="none" fill-rule="nonzero" fill-opacity="1" fill="#000"/><path d="m 31.22 15.773 c 0 1.262 -1.02 2.281 -2.281 2.281 c -1.258 0 -2.281 -1.02 -2.281 -2.281 c 0 -1.262 1.023 -2.281 2.281 -2.281 c 1.262 0 2.281 1.02 2.281 2.281 m 0 0" stroke="none" fill-rule="nonzero" fill-opacity="1" fill="#000"/><path d="m 27.371 19.14 c 0 1.262 -1.02 2.281 -2.281 2.281 c -1.258 0 -2.281 -1.02 -2.281 -2.281 c 0 -1.262 1.023 -2.281 2.281 -2.281 c 1.262 0 2.281 1.02 2.281 2.281 m 0 0" stroke="none" fill-rule="nonzero" fill-opacity="1" fill="#000"/><path d="m 25.863 24.25 c 0 1.258 -1.023 2.281 -2.281 2.281 c -1.262 0 -2.281 -1.023 -2.281 -2.281 c 0 -1.262 1.02 -2.285 2.281 -2.285 c 1.258 0 2.281 1.023 2.281 2.285 m 0 0" stroke="none" fill-rule="nonzero" fill-opacity="1" fill="#000"/><path d="m 25 29.551 c 0 1.262 -1.023 2.285 -2.281 2.285 c -1.262 0 -2.281 -1.023 -2.281 -2.285 c 0 -1.258 1.02 -2.281 2.281 -2.281 c 1.258 0 2.281 1.023 2.281 2.281 m 0 0" stroke="none" fill-rule="nonzero" fill-opacity="1" fill="#000"/><path d="m 21.758 33.703 c 0 1.262 -1.023 2.281 -2.281 2.281 c -1.258 0 -2.281 -1.02 -2.281 -2.281 c 0 -1.262 1.023 -2.281 2.281 -2.281 c 1.258 0 2.281 1.02 2.281 2.281 m 0 0" stroke="none" fill-rule="nonzero" fill-opacity="1" fill="#000"/><path d="m 16.563 34.668 c 0 1.262 -1.023 2.281 -2.281 2.281 c -1.262 0 -2.281 -1.02 -2.281 -2.281 c 0 -1.262 1.02 -2.281 2.281 -2.281 c 1.258 0 2.281 1.02 2.281 2.281 m 0 0" stroke="none" fill-rule="nonzero" fill-opacity="1" fill="#000"/><path d="m 20.734 23.555 c 0 1.262 -1.02 2.285 -2.277 2.285 c -1.262 0 -2.281 -1.023 -2.281 -2.285 c 0 -1.258 1.02 -2.281 2.281 -2.281 c 1.258 0 2.277 1.023 2.277 2.281 m 0 0" stroke="none" fill-rule="nonzero" fill-opacity="1" fill="#000"/><path d="m 31.28 24.824 c 0 1.262 -1.023 2.281 -2.281 2.281 c -1.258 0 -2.281 -1.02 -2.281 -2.281 c 0 -1.262 1.023 -2.281 2.281 -2.281 c 1.258 0 2.281 1.02 2.281 2.281 m 0 0" stroke="none" fill-rule="nonzero" fill-opacity="1" fill="#000"/></g></g></g></g><g><g clip-path="url(#clipPath-666960762)"><g transform="translate(0,-1)"><!-- color: #174767 --><g><path d="m 36 14.332 c 0 1.262 -1.02 2.281 -2.281 2.281 c -1.258 0 -2.281 -1.02 -2.281 -2.281 c 0 -1.262 1.023 -2.281 2.281 -2.281 c 1.262 0 2.281 1.02 2.281 2.281 m 0 0" fill="#fa8410" stroke="none" fill-rule="nonzero" fill-opacity="1"/><path d="m 31.22 15.773 c 0 1.262 -1.02 2.281 -2.281 2.281 c -1.258 0 -2.281 -1.02 -2.281 -2.281 c 0 -1.262 1.023 -2.281 2.281 -2.281 c 1.262 0 2.281 1.02 2.281 2.281 m 0 0" fill="#fa8410" stroke="none" fill-rule="nonzero" fill-opacity="1"/><path d="m 27.371 19.14 c 0 1.262 -1.02 2.281 -2.281 2.281 c -1.258 0 -2.281 -1.02 -2.281 -2.281 c 0 -1.262 1.023 -2.281 2.281 -2.281 c 1.262 0 2.281 1.02 2.281 2.281 m 0 0" fill="#fa8410" stroke="none" fill-rule="nonzero" fill-opacity="1"/><path d="m 25.863 24.25 c 0 1.258 -1.023 2.281 -2.281 2.281 c -1.262 0 -2.281 -1.023 -2.281 -2.281 c 0 -1.262 1.02 -2.285 2.281 -2.285 c 1.258 0 2.281 1.023 2.281 2.285 m 0 0" fill="#fa8410" stroke="none" fill-rule="nonzero" fill-opacity="1"/><path d="m 25 29.551 c 0 1.262 -1.023 2.285 -2.281 2.285 c -1.262 0 -2.281 -1.023 -2.281 -2.285 c 0 -1.258 1.02 -2.281 2.281 -2.281 c 1.258 0 2.281 1.023 2.281 2.281 m 0 0" fill="#fa8410" stroke="none" fill-rule="nonzero" fill-opacity="1"/><path d="m 21.758 33.703 c 0 1.262 -1.023 2.281 -2.281 2.281 c -1.258 0 -2.281 -1.02 -2.281 -2.281 c 0 -1.262 1.023 -2.281 2.281 -2.281 c 1.258 0 2.281 1.02 2.281 2.281 m 0 0" fill="#fa8410" stroke="none" fill-rule="nonzero" fill-opacity="1"/><path d="m 16.563 34.668 c 0 1.262 -1.023 2.281 -2.281 2.281 c -1.262 0 -2.281 -1.02 -2.281 -2.281 c 0 -1.262 1.02 -2.281 2.281 -2.281 c 1.258 0 2.281 1.02 2.281 2.281 m 0 0" fill="#fa8410" stroke="none" fill-rule="nonzero" fill-opacity="1"/><path d="m 20.734 23.555 c 0 1.262 -1.02 2.285 -2.277 2.285 c -1.262 0 -2.281 -1.023 -2.281 -2.285 c 0 -1.258 1.02 -2.281 2.281 -2.281 c 1.258 0 2.277 1.023 2.277 2.281 m 0 0" fill="#fa8410" stroke="none" fill-rule="nonzero" fill-opacity="1"/><path d="m 31.28 24.824 c 0 1.262 -1.023 2.281 -2.281 2.281 c -1.258 0 -2.281 -1.02 -2.281 -2.281 c 0 -1.262 1.023 -2.281 2.281 -2.281 c 1.258 0 2.281 1.02 2.281 2.281 m 0 0" fill="#fa8410" stroke="none" fill-rule="nonzero" fill-opacity="1"/></g></g></g></g><g><g transform="translate(0,-1004.3622)"><path d="m 1 1043.36 0 4 c 0 2.216 1.784 4 4 4 l 38 0 c 2.216 0 4 -1.784 4 -4 l 0 -4 c 0 2.216 -1.784 4 -4 4 l -38 0 c -2.216 0 -4 -1.784 -4 -4 z" opacity="0.1"/></g></g></svg>