<svg viewBox="0 0 48 48"><defs><linearGradient id="linearGradient3764" x1="1" x2="47" gradientUnits="userSpaceOnUse" gradientTransform="translate(-48.000001,0.00221467)"><stop stop-color="#3d3d3d" stop-opacity="1"/><stop offset="1" stop-color="#474747" stop-opacity="1"/></linearGradient><clipPath id="clipPath-693643423"><g transform="translate(0,-1004.3622)"><rect rx="4" y="1005.36" x="1" height="46" width="46" fill="#1890d0"/></g></clipPath><clipPath id="clipPath-709061699"><g transform="translate(0,-1004.3622)"><rect rx="4" y="1005.36" x="1" height="46" width="46" fill="#1890d0"/></g></clipPath><clipPath id="clip1"><path d="m 13 24 l 22 0 l 0 11 l -22 0 m 0 -11"/></clipPath><clipPath id="clip2"><path d="m 34.652 27.648 c 0 3.777 -4.738 6.844 -10.586 6.844 c -5.844 0 -10.582 -3.066 -10.582 -6.844 c 0 -3.781 4.738 -6.844 10.582 -6.844 c 5.848 0 10.586 3.063 10.586 6.844 m 0 0"/></clipPath><clipPath id="clip1"><path d="m 13 24 l 22 0 l 0 11 l -22 0 m 0 -11"/></clipPath><clipPath id="clip2"><path d="m 34.652 27.648 c 0 3.777 -4.738 6.844 -10.586 6.844 c -5.844 0 -10.582 -3.066 -10.582 -6.844 c 0 -3.781 4.738 -6.844 10.582 -6.844 c 5.848 0 10.586 3.063 10.586 6.844 m 0 0"/></clipPath></defs><g><path d="m 1 43 l 0 0.25 c 0 2.216 1.784 4 4 4 l 38 0 c 2.216 0 4 -1.784 4 -4 l 0 -0.25 c 0 2.216 -1.784 4 -4 4 l -38 0 c -2.216 0 -4 -1.784 -4 -4 z m 0 0.5 l 0 0.5 c 0 2.216 1.784 4 4 4 l 38 0 c 2.216 0 4 -1.784 4 -4 l 0 -0.5 c 0 2.216 -1.784 4 -4 4 l -38 0 c -2.216 0 -4 -1.784 -4 -4 z" opacity="0.02"/><path d="m 1 43.25 l 0 0.25 c 0 2.216 1.784 4 4 4 l 38 0 c 2.216 0 4 -1.784 4 -4 l 0 -0.25 c 0 2.216 -1.784 4 -4 4 l -38 0 c -2.216 0 -4 -1.784 -4 -4 z" opacity="0.05"/><path d="m 1 43 l 0 0.25 c 0 2.216 1.784 4 4 4 l 38 0 c 2.216 0 4 -1.784 4 -4 l 0 -0.25 c 0 2.216 -1.784 4 -4 4 l -38 0 c -2.216 0 -4 -1.784 -4 -4 z" opacity="0.1"/></g><g><rect width="46" height="46" x="-47" y="1" rx="4" transform="matrix(0,-1,1,0,0,0)" fill="url(#linearGradient3764)" fill-opacity="1"/></g><g><g clip-path="url(#clipPath-693643423)"><g opacity="0.1"><!-- color: #474747 --><g><path d="m 4.468 9.273 c 0.219 0.132 0.448 0.252 0.681 0.359 c 0.137 0.063 0.277 0.122 0.42 0.169 c 0.732 0.246 1.545 0.182 2.293 -0.021 c 0.15 -0.04 0.298 -0.086 0.441 -0.137 c 0.463 -0.163 0.912 -0.398 1.227 -0.765 c 0.161 -0.184 0.29 -0.399 0.355 -0.634 c 0.065 -0.234 0.075 -0.488 0.011 -0.723 c -0.043 -0.157 -0.119 -0.304 -0.205 -0.443 c -0.14 -0.222 -0.301 -0.428 -0.506 -0.591 c -0.204 -0.163 -0.441 -0.282 -0.699 -0.325 c -0.108 -0.02 -0.215 -0.021 -0.312 -0.054 c -0.054 -0.01 -0.097 -0.032 -0.14 -0.064 c -0.043 -0.033 -0.079 -0.076 -0.101 -0.119 c -0.033 -0.075 -0.03 -0.161 -0.012 -0.236 c 0.019 -0.076 0.052 -0.151 0.08 -0.226 c 0.137 -0.377 0.129 -0.797 0 -1.174 c -0.047 -0.139 -0.109 -0.269 -0.197 -0.376 c -0.088 -0.119 -0.203 -0.205 -0.336 -0.259 c -0.165 -0.064 -0.357 -0.064 -0.527 0 c -0.17 0.054 -0.319 0.162 -0.439 0.302 c -0.047 0.054 -0.089 0.107 -0.139 0.161 c -0.051 0.054 -0.11 0.097 -0.18 0.108 c -0.065 0.011 -0.122 0.011 -0.183 -0.011 c -0.129 -0.032 -0.237 -0.108 -0.345 -0.183 c -0.108 -0.075 -0.219 -0.151 -0.345 -0.194 c -0.164 -0.053 -0.346 -0.032 -0.505 0.043 c -0.161 0.076 -0.291 0.194 -0.387 0.334 c -0.198 0.28 -0.269 0.635 -0.313 0.969 c -0.043 0.312 -0.075 0.635 0.011 0.936 c 0.022 0.086 0.054 0.172 0.076 0.248 c 0.021 0.086 0.043 0.172 0.043 0.258 c -0.011 0.161 -0.101 0.312 -0.205 0.441 c -0.099 0.129 -0.215 0.259 -0.29 0.398 c -0.111 0.226 -0.11 0.506 -0.033 0.754 c 0.105 0.323 0.331 0.581 0.557 0.839 c 0.089 0.097 0.181 0.194 0.272 0.291" transform="matrix(3.543307,0,0,3.543307,0,0)" stroke-opacity="1" fill-rule="nonzero" stroke="#452f58" stroke-linejoin="miter" fill-opacity="1" stroke-linecap="butt" stroke-width="0.409" stroke-miterlimit="4" fill="#000"/><path d="m 28.02 21.297 c -0.656 1.426 -1.723 2.367 -2.941 2.367 c -1.078 0 -2.027 -0.754 -2.695 -1.91 c -0.605 2.41 -2.109 4.113 -3.883 4.113 c -1.23 0 -2.328 -0.828 -3.09 -2.137 c -1.199 1.109 -1.926 2.473 -1.926 3.93 c 0 3.781 4.734 6.828 10.582 6.828 c 5.848 0 10.582 -3.047 10.582 -6.828 c 0 -2.879 -2.738 -5.355 -6.625 -6.367 m -0.004 0.004" stroke="none" fill-rule="nonzero" fill-opacity="1" fill="#000"/><path d="m 20.313 14.344 c 0.129 0.113 0.258 0.242 0.375 0.375 c -0.121 -0.133 -0.242 -0.262 -0.375 -0.375 m 2.688 0.125 c -0.121 0.172 -0.238 0.363 -0.344 0.563 c 0.105 -0.203 0.223 -0.387 0.344 -0.563 m -1.531 1.469 c 0.105 0.215 0.199 0.449 0.281 0.688 c -0.086 -0.238 -0.176 -0.469 -0.281 -0.688 m -6.25 0.75 c -0.105 0.309 -0.172 0.633 -0.25 0.969 c 0.07 -0.34 0.148 -0.66 0.25 -0.969 m -0.25 0.969 c -0.121 0.551 -0.219 1.137 -0.219 1.75 c 0 3.203 1.684 5.781 3.75 5.781 c 1.965 0 3.563 -2.336 3.719 -5.313 c 0.477 1.727 1.59 2.938 2.875 2.938 c 1.555 0 2.809 -1.754 3.03 -4.063 l -13.06 0 c -0.082 0 -0.172 -0.027 -0.25 -0.031 c 0.027 -0.359 0.086 -0.723 0.156 -1.063 m 6.813 -0.906 c 0.078 0.238 0.164 0.496 0.223 0.75 c -0.063 -0.262 -0.141 -0.508 -0.223 -0.75 m 0 0" stroke="none" fill-rule="nonzero" fill-opacity="1" fill="#000"/><path d="m 25.418 20.13 c 0 0.746 -0.484 1.348 -1.082 1.348 c -0.598 0 -1.082 -0.602 -1.082 -1.348 c 0 -0.746 0.484 -1.352 1.082 -1.352 c 0.598 0 1.082 0.605 1.082 1.352 m 0 0" stroke="none" fill-rule="nonzero" fill-opacity="1" fill="#000"/><path d="m 25.09 13.215 c -1.598 0 -2.902 1.891 -3.063 4.301 c -0.508 -2.273 -1.875 -3.91 -3.512 -3.91 c -1.914 0 -3.465 2.23 -3.688 5.102 c 0.082 0.004 0.168 0.023 0.25 0.023 l 13.08 0 c 0.02 -0.234 0.047 -0.469 0.047 -0.711 c 0 -2.652 -1.402 -4.805 -3.113 -4.805 m -0.004 0" stroke="none" fill-rule="nonzero" fill-opacity="1" fill="#000"/><path d="m 21.797 20.523 c 0 0.746 -0.484 1.352 -1.082 1.352 c -0.598 0 -1.082 -0.605 -1.082 -1.352 c 0 -0.746 0.484 -1.348 1.082 -1.348 c 0.598 0 1.082 0.602 1.082 1.348 m 0 0" stroke="none" fill-rule="nonzero" fill-opacity="1" fill="#000"/><g clip-path="url(#clip1)"><g clip-path="url(#clip2)"><path d="m 42.86 13.195 l 2.947 -2.586 l 3.234 3.521 l 3.525 -3.165 l 3.238 3.887 l 4.315 -3.887 l 3.164 2.374 l 2.301 -2.299 l 2.73 1.981" transform="matrix(0.791266,0,0,0.735645,-19.855015,20.551191)" stroke-opacity="1" stroke="#452f58" stroke-linejoin="miter" stroke-linecap="butt" stroke-width="1" stroke-miterlimit="4" fill="#000"/></g></g></g></g></g></g><g><g clip-path="url(#clipPath-709061699)"><g transform="translate(0,-1)"><!-- color: #474747 --><g><path d="m 4.468 9.273 c 0.219 0.132 0.448 0.252 0.681 0.359 c 0.137 0.063 0.277 0.122 0.42 0.169 c 0.732 0.246 1.545 0.182 2.293 -0.021 c 0.15 -0.04 0.298 -0.086 0.441 -0.137 c 0.463 -0.163 0.912 -0.398 1.227 -0.765 c 0.161 -0.184 0.29 -0.399 0.355 -0.634 c 0.065 -0.234 0.075 -0.488 0.011 -0.723 c -0.043 -0.157 -0.119 -0.304 -0.205 -0.443 c -0.14 -0.222 -0.301 -0.428 -0.506 -0.591 c -0.204 -0.163 -0.441 -0.282 -0.699 -0.325 c -0.108 -0.02 -0.215 -0.021 -0.312 -0.054 c -0.054 -0.01 -0.097 -0.032 -0.14 -0.064 c -0.043 -0.033 -0.079 -0.076 -0.101 -0.119 c -0.033 -0.075 -0.03 -0.161 -0.012 -0.236 c 0.019 -0.076 0.052 -0.151 0.08 -0.226 c 0.137 -0.377 0.129 -0.797 0 -1.174 c -0.047 -0.139 -0.109 -0.269 -0.197 -0.376 c -0.088 -0.119 -0.203 -0.205 -0.336 -0.259 c -0.165 -0.064 -0.357 -0.064 -0.527 0 c -0.17 0.054 -0.319 0.162 -0.439 0.302 c -0.047 0.054 -0.089 0.107 -0.139 0.161 c -0.051 0.054 -0.11 0.097 -0.18 0.108 c -0.065 0.011 -0.122 0.011 -0.183 -0.011 c -0.129 -0.032 -0.237 -0.108 -0.345 -0.183 c -0.108 -0.075 -0.219 -0.151 -0.345 -0.194 c -0.164 -0.053 -0.346 -0.032 -0.505 0.043 c -0.161 0.076 -0.291 0.194 -0.387 0.334 c -0.198 0.28 -0.269 0.635 -0.313 0.969 c -0.043 0.312 -0.075 0.635 0.011 0.936 c 0.022 0.086 0.054 0.172 0.076 0.248 c 0.021 0.086 0.043 0.172 0.043 0.258 c -0.011 0.161 -0.101 0.312 -0.205 0.441 c -0.099 0.129 -0.215 0.259 -0.29 0.398 c -0.111 0.226 -0.11 0.506 -0.033 0.754 c 0.105 0.323 0.331 0.581 0.557 0.839 c 0.089 0.097 0.181 0.194 0.272 0.291" transform="matrix(3.543307,0,0,3.543307,0,0)" stroke-opacity="1" fill="#090" fill-rule="nonzero" stroke="#452f58" stroke-linejoin="miter" fill-opacity="1" stroke-linecap="butt" stroke-width="0.409" stroke-miterlimit="4"/><path d="m 28.02 21.297 c -0.656 1.426 -1.723 2.367 -2.941 2.367 c -1.078 0 -2.027 -0.754 -2.695 -1.91 c -0.605 2.41 -2.109 4.113 -3.883 4.113 c -1.23 0 -2.328 -0.828 -3.09 -2.137 c -1.199 1.109 -1.926 2.473 -1.926 3.93 c 0 3.781 4.734 6.828 10.582 6.828 c 5.848 0 10.582 -3.047 10.582 -6.828 c 0 -2.879 -2.738 -5.355 -6.625 -6.367 m -0.004 0.004" fill="#6c3" stroke="none" fill-rule="nonzero" fill-opacity="1"/><path d="m 20.313 14.344 c 0.129 0.113 0.258 0.242 0.375 0.375 c -0.121 -0.133 -0.242 -0.262 -0.375 -0.375 m 2.688 0.125 c -0.121 0.172 -0.238 0.363 -0.344 0.563 c 0.105 -0.203 0.223 -0.387 0.344 -0.563 m -1.531 1.469 c 0.105 0.215 0.199 0.449 0.281 0.688 c -0.086 -0.238 -0.176 -0.469 -0.281 -0.688 m -6.25 0.75 c -0.105 0.309 -0.172 0.633 -0.25 0.969 c 0.07 -0.34 0.148 -0.66 0.25 -0.969 m -0.25 0.969 c -0.121 0.551 -0.219 1.137 -0.219 1.75 c 0 3.203 1.684 5.781 3.75 5.781 c 1.965 0 3.563 -2.336 3.719 -5.313 c 0.477 1.727 1.59 2.938 2.875 2.938 c 1.555 0 2.809 -1.754 3.03 -4.063 l -13.06 0 c -0.082 0 -0.172 -0.027 -0.25 -0.031 c 0.027 -0.359 0.086 -0.723 0.156 -1.063 m 6.813 -0.906 c 0.078 0.238 0.164 0.496 0.223 0.75 c -0.063 -0.262 -0.141 -0.508 -0.223 -0.75 m 0 0" fill="#f9f9f9" stroke="none" fill-rule="nonzero" fill-opacity="1"/><path d="m 25.418 20.13 c 0 0.746 -0.484 1.348 -1.082 1.348 c -0.598 0 -1.082 -0.602 -1.082 -1.348 c 0 -0.746 0.484 -1.352 1.082 -1.352 c 0.598 0 1.082 0.605 1.082 1.352 m 0 0" fill="#705ba1" stroke="none" fill-rule="nonzero" fill-opacity="1"/><path d="m 25.09 13.215 c -1.598 0 -2.902 1.891 -3.063 4.301 c -0.508 -2.273 -1.875 -3.91 -3.512 -3.91 c -1.914 0 -3.465 2.23 -3.688 5.102 c 0.082 0.004 0.168 0.023 0.25 0.023 l 13.08 0 c 0.02 -0.234 0.047 -0.469 0.047 -0.711 c 0 -2.652 -1.402 -4.805 -3.113 -4.805 m -0.004 0" fill="#6c3" stroke="none" fill-rule="nonzero" fill-opacity="1"/><path d="m 21.797 20.523 c 0 0.746 -0.484 1.352 -1.082 1.352 c -0.598 0 -1.082 -0.605 -1.082 -1.352 c 0 -0.746 0.484 -1.348 1.082 -1.348 c 0.598 0 1.082 0.602 1.082 1.348 m 0 0" fill="#705ba1" stroke="none" fill-rule="nonzero" fill-opacity="1"/><g clip-path="url(#clip1)"><g clip-path="url(#clip2)"><path d="m 42.86 13.195 l 2.947 -2.586 l 3.234 3.521 l 3.525 -3.165 l 3.238 3.887 l 4.315 -3.887 l 3.164 2.374 l 2.301 -2.299 l 2.73 1.981" transform="matrix(0.791266,0,0,0.735645,-19.855015,20.551191)" stroke-opacity="1" fill="none" stroke="#452f58" stroke-linejoin="miter" stroke-linecap="butt" stroke-width="1" stroke-miterlimit="4"/></g></g></g></g></g></g><g><g transform="translate(0,-1004.3622)"><path d="m 1 1043.36 0 4 c 0 2.216 1.784 4 4 4 l 38 0 c 2.216 0 4 -1.784 4 -4 l 0 -4 c 0 2.216 -1.784 4 -4 4 l -38 0 c -2.216 0 -4 -1.784 -4 -4 z" opacity="0.1"/></g></g></svg>