<?xml version="1.0" encoding="UTF-8" standalone="no"?>
<svg
   xmlns:dc="http://purl.org/dc/elements/1.1/"
   xmlns:cc="http://creativecommons.org/ns#"
   xmlns:rdf="http://www.w3.org/1999/02/22-rdf-syntax-ns#"
   xmlns:svg="http://www.w3.org/2000/svg"
   xmlns="http://www.w3.org/2000/svg"
   xmlns:xlink="http://www.w3.org/1999/xlink"
   xmlns:sodipodi="http://sodipodi.sourceforge.net/DTD/sodipodi-0.dtd"
   xmlns:inkscape="http://www.inkscape.org/namespaces/inkscape"
   width="48"
   viewBox="0 0 13.546667 13.546667"
   height="48"
   id="svg2"
   version="1.1"
   inkscape:version="0.48.4 r9939"
   sodipodi:docname="gbrainy.svg">
  <metadata
     id="metadata34">
    <rdf:RDF>
      <cc:Work
         rdf:about="">
        <dc:format>image/svg+xml</dc:format>
        <dc:type
           rdf:resource="http://purl.org/dc/dcmitype/StillImage" />
        <dc:title></dc:title>
      </cc:Work>
    </rdf:RDF>
  </metadata>
  <sodipodi:namedview
     pagecolor="#ffffff"
     bordercolor="#666666"
     borderopacity="1"
     objecttolerance="10"
     gridtolerance="10"
     guidetolerance="10"
     inkscape:pageopacity="0"
     inkscape:pageshadow="2"
     inkscape:window-width="692"
     inkscape:window-height="480"
     id="namedview32"
     showgrid="false"
     inkscape:zoom="4.9166667"
     inkscape:cx="29.288136"
     inkscape:cy="20.745763"
     inkscape:window-x="407"
     inkscape:window-y="267"
     inkscape:window-maximized="0"
     inkscape:current-layer="svg2" />
  <defs
     id="defs4">
    <clipPath
       id="clipPath6">
      <path
         d="M -670.14006,51.863192 L -114.61564,405.00326 L -257.11075,510.32573 L -514.2215,-71.013029 L -670.14006,51.863192 z"
         id="path8" />
    </clipPath>
    <linearGradient
       id="0">
      <stop
         stop-color="#3280a1"
         id="stop11" />
      <stop
         offset="1"
         stop-color="#55a7cb"
         id="stop13" />
    </linearGradient>
    <linearGradient
       xlink:href="#0"
       id="1"
       gradientUnits="userSpaceOnUse"
       gradientTransform="matrix(1.1053111,0,0,1.1053111,-134.28703,-295.72625)"
       y1="279.09"
       x2="0"
       y2="267.6" />
    <linearGradient
       xlink:href="#0"
       id="5"
       gradientUnits="userSpaceOnUse"
       gradientTransform="matrix(0.28222223,0,0,0.28222223,5.9916667e-7,-283.45334)"
       y1="1050.36"
       x2="0"
       y2="1006.36" />
    <linearGradient
       id="0-6"
       gradientUnits="userSpaceOnUse"
       x2="0"
       gradientTransform="matrix(1.10525,0,0,1.10525,-134.27874,-295.76183)"
       y1="279.10001"
       y2="268.32999">
      <stop
         stop-color="#cecece"
         id="stop7" />
      <stop
         stop-color="#e9e9e9"
         offset="1"
         id="stop9" />
    </linearGradient>
  </defs>
  <g
     transform="matrix(0.28222223,0,0,0.28222223,0,-283.45334)"
     id="g86">
    <path
       style="opacity:0.05"
       inkscape:connector-curvature="0"
       d="M 5.1875,1 C 2.8707723,1 1,2.8707723 1,5.1875 l 0,37.625 C 1,45.129228 2.8707723,47 5.1875,47 l 37.625,0 C 45.129228,47 47,45.129228 47,42.8125 L 47,5.1875 C 47,2.8707723 45.129228,1 42.8125,1 L 5.1875,1 z m 0.1875,0.25 37.25,0 c 2.291546,0 4.125,1.8334541 4.125,4.125 l 0,37.25 c 0,2.291546 -1.833454,4.125 -4.125,4.125 l -37.25,0 C 3.0834541,46.75 1.25,44.916546 1.25,42.625 l 0,-37.25 C 1.25,3.0834541 3.0834541,1.25 5.375,1.25 z"
       transform="translate(0,1004.3622)"
       id="path88" />
    <path
       style="opacity:0.1"
       inkscape:connector-curvature="0"
       d="M 5.375,1.25 C 3.0834541,1.25 1.25,3.0834541 1.25,5.375 l 0,37.25 c 0,2.291546 1.8334541,4.125 4.125,4.125 l 37.25,0 c 2.291546,0 4.125,-1.833454 4.125,-4.125 l 0,-37.25 C 46.75,3.0834541 44.916546,1.25 42.625,1.25 l -37.25,0 z m 0.21875,0.25 36.8125,0 C 44.672614,1.5 46.5,3.3273859 46.5,5.59375 l 0,36.8125 C 46.5,44.672614 44.672614,46.5 42.40625,46.5 l -36.8125,0 C 3.3273859,46.5 1.5,44.672614 1.5,42.40625 l 0,-36.8125 C 1.5,3.3273859 3.3273859,1.5 5.59375,1.5 z"
       transform="translate(0,1004.3622)"
       id="path90" />
    <path
       style="opacity:0.2"
       inkscape:connector-curvature="0"
       d="M 5.59375,1.5 C 3.3273859,1.5 1.5,3.3273859 1.5,5.59375 l 0,36.8125 C 1.5,44.672614 3.3273859,46.5 5.59375,46.5 l 36.8125,0 C 44.672614,46.5 46.5,44.672614 46.5,42.40625 l 0,-36.8125 C 46.5,3.3273859 44.672614,1.5 42.40625,1.5 l -36.8125,0 z m 0.09375,0.125 36.625,0 c 2.253773,0 4.0625,1.8087269 4.0625,4.0625 l 0,36.625 c 0,2.253773 -1.808727,4.0625 -4.0625,4.0625 l -36.625,0 c -2.2537731,0 -4.0625,-1.808727 -4.0625,-4.0625 l 0,-36.625 C 1.625,3.4337269 3.4337269,1.625 5.6875,1.625 z"
       transform="translate(0,1004.3622)"
       id="path92" />
    <path
       style="opacity:0.3"
       inkscape:connector-curvature="0"
       d="M 5.6875,1.625 C 3.4337269,1.625 1.625,3.4337269 1.625,5.6875 l 0,36.625 c 0,2.253773 1.8087269,4.0625 4.0625,4.0625 l 36.625,0 c 2.253773,0 4.0625,-1.808727 4.0625,-4.0625 l 0,-36.625 c 0,-2.2537731 -1.808727,-4.0625 -4.0625,-4.0625 l -36.625,0 z m 0.09375,0.125 36.4375,0 c 2.241182,0 4.03125,1.7900679 4.03125,4.03125 l 0,36.4375 c 0,2.241182 -1.790068,4.03125 -4.03125,4.03125 l -36.4375,0 C 3.5400679,46.25 1.75,44.459932 1.75,42.21875 l 0,-36.4375 C 1.75,3.5400679 3.5400679,1.75 5.78125,1.75 z"
       transform="translate(0,1004.3622)"
       id="path94" />
    <path
       style="opacity:0.4"
       inkscape:connector-curvature="0"
       d="M 5.78125,1.75 C 3.5400679,1.75 1.75,3.5400679 1.75,5.78125 l 0,36.4375 c 0,2.241182 1.7900679,4.03125 4.03125,4.03125 l 36.4375,0 c 2.241182,0 4.03125,-1.790068 4.03125,-4.03125 l 0,-36.4375 C 46.25,3.5400679 44.459932,1.75 42.21875,1.75 l -36.4375,0 z m 0.125,0.125 36.1875,0 c 2.228591,0 4.03125,1.802659 4.03125,4.03125 l 0,36.1875 c 0,2.228591 -1.802659,4.03125 -4.03125,4.03125 l -36.1875,0 C 3.677659,46.125 1.875,44.322341 1.875,42.09375 l 0,-36.1875 C 1.875,3.677659 3.677659,1.875 5.90625,1.875 z"
       transform="translate(0,1004.3622)"
       id="path96" />
    <rect
       style="opacity:0.5"
       rx="4.02"
       y="1006.24"
       x="1.875"
       height="44.25"
       width="44.25"
       id="rect98" />
  </g>
  <rect
     style="fill:url(#5);fill-opacity:1.0"
     rx="1.1289999"
     y="0.56399703"
     x="0.56399959"
     height="12.418"
     width="12.418"
     id="rect100" />
  <path
     d="M 3.5066667,6.5365406 4.0000001,7.2751689 4.8400002,7.2333599 5.9532976,6.2616289 5.9466668,5.1568385 6.7200003,4.4600192 6.7333335,3.9861821 6.0400001,3.6098997 5.1333333,3.7074545 4.1733332,4.4321465 3.3866667,5.4773752 z"
     fill="#f9f9f9"
     id="path20" />
  <path
     d="m 5.2000001,7.9441154 1.12,0.3902188 0.8266667,-0.1951095 1.24,-0.613201 L 8.7066669,6.9267594 8.4400002,6.2020672 7.706667,5.7700393 6.3866668,6.341431 5.2400001,7.0382504 z"
     fill="#f9f9f9"
     id="path22" />
  <path
     d="M 10.16,7.1358049 8.9333338,7.2054871 8.8133336,6.1323855 8.1866669,5.6028027 9.506667,5.5609937 9.9733338,5.7979122 z"
     fill="#f9f9f9"
     id="path24" />
  <path
     d="M 6.1865235,6.1979031 6.1470246,5.2097691 7.0675265,4.4732809 6.9866671,3.944373 c 0,0 -0.6463444,-0.3525739 -0.5930111,-0.3386375 0.053333,0.013937 1.4996774,0.2271464 1.4996774,0.2271464 l 1.266667,0.6410736 0.6266665,0.7665013 -0.32,0.097555 -1.1333334,-0.111491 -1.3199999,0.5435188 z"
     fill="#f9f9f9"
     id="path26" />
  <path
     d="M 7.5273474,8.2268911 8.6400003,7.5260237 9.9320443,7.4053192 c 0,0 -0.2581732,0.8076356 -0.2715062,0.8912538 -0.013333,0.083618 -0.320215,0.3087407 -0.320215,0.3087407 L 8.693119,8.8527952 8.0670972,8.887298 z"
     fill="#f9f9f9"
     id="path28" />
  <path
     d="M 6.6,8.613062 7.6933337,10.16 8.3200002,9.7140362 7.3333336,8.4736979 z"
     fill="#f9f9f9"
     id="path30" />
</svg>
