<svg viewBox="0 0 48 48"><defs><linearGradient id="linearGradient3764" x1="1" x2="47" gradientUnits="userSpaceOnUse" gradientTransform="translate(-47.997785,0.00221467)"><stop stop-color="#f5995b" stop-opacity="1"/><stop offset="1" stop-color="#f6a56f" stop-opacity="1"/></linearGradient><clipPath id="clipPath-077070991"><g transform="translate(0,-1004.3622)"><rect rx="4" y="1005.36" x="1" height="46" width="46" fill="#1890d0"/></g></clipPath><clipPath id="clipPath-095879610"><g transform="translate(0,-1004.3622)"><rect rx="4" y="1005.36" x="1" height="46" width="46" fill="#1890d0"/></g></clipPath></defs><g><g transform="translate(0,-1004.3622)"><path d="m 5 1006.36 c -2.216 0 -4 1.784 -4 4 l 0 37.25 c 0 2.216 1.784 4 4 4 l 38 0 c 2.216 0 4 -1.784 4 -4 l 0 -37.25 c 0 -2.216 -1.784 -4 -4 -4 l -38 0 z m -4 41.5 0 0.5 c 0 2.216 1.784 4 4 4 l 38 0 c 2.216 0 4 -1.784 4 -4 l 0 -0.5 c 0 2.216 -1.784 4 -4 4 l -38 0 c -2.216 0 -4 -1.784 -4 -4 z" opacity="0.02"/><path d="m 1 1047.61 0 0.25 c 0 2.216 1.784 4 4 4 l 38 0 c 2.216 0 4 -1.784 4 -4 l 0 -0.25 c 0 2.216 -1.784 4 -4 4 l -38 0 c -2.216 0 -4 -1.784 -4 -4 z" opacity="0.05"/><rect width="46" height="46" x="1" y="1005.61" rx="4" opacity="0.1"/></g></g><g><rect width="46" height="46" x="-46.998" y="1" rx="4" transform="matrix(0,-1,1,0,0,0)" fill="url(#linearGradient3764)" fill-opacity="1"/></g><g/><g><g clip-path="url(#clipPath-077070991)"><g opacity="0.1"><!-- color: #f6a56f --><g><path d="m 16.969 25.406 c -0.195 -0.551 -0.098 -0.988 0.125 -1.375 c 1.078 -0.527 2.01 -0.371 2.969 -0.344 l 1.563 -5.156 c 0.348 -1.078 1.188 -2.129 3.03 -3.125 c 1.238 -0.633 3.715 -0.316 5 0.188 c 2.371 1.582 2.32 3.145 2.328 4.758 c -0.09 3.148 -2.066 4.902 -3.172 5.398 c -0.641 0.262 -2.461 0.227 -3.469 -0.688 l -1.063 0.125 l 0.688 0.969 c 0.27 0.383 0.523 0.895 0.656 1.344 c -0.32 0.59 -0.734 0.629 -1.219 0.219 c 0 0 -0.344 -1.469 -0.563 -1.313 c -0.52 1.988 -1.328 3.82 -2.191 5.688 c -1.656 2.906 -3.656 0.906 -2.5 -0.156 c 0.281 -0.281 0.844 -1.188 0.656 -1.25 c -0.191 -0.063 -1.531 -0.906 -1.531 -0.906 c 0 0 -0.969 0.938 -1.094 1.063 c -1.191 1.156 -2.125 0.215 -1.469 -0.938 l 1.969 -1.594 l 1.313 -1.375 c 0.598 -0.871 0.684 -1.367 0.551 -2.031 c -0.191 0.094 -1.926 0.563 -1.926 0.563 c -0.348 0.242 -0.484 0.055 -0.652 -0.063 m 0 0" stroke="none" fill-rule="nonzero" fill-opacity="0.776" fill="#000"/><path d="m 28 16.719 c -1.313 0.195 -2.488 1.711 -2.781 3.688 c -0.332 2.258 0.637 4.246 2.156 4.469 c 1.52 0.227 3.01 -1.398 3.344 -3.656 c 0.332 -2.258 -0.633 -4.273 -2.156 -4.5 c -0.191 -0.027 -0.375 -0.027 -0.563 0 m -0.094 2.625 c 0.074 -0.023 0.156 -0.027 0.219 0 c 0.254 0.109 0.281 0.586 0.063 1.094 c -0.219 0.508 -0.621 0.828 -0.875 0.719 c -0.254 -0.102 -0.281 -0.586 -0.063 -1.094 c 0.164 -0.379 0.43 -0.652 0.656 -0.719 m 1.969 0.375 c 0.262 0.086 0.355 0.598 0.188 1.125 c -0.168 0.527 -0.551 0.867 -0.813 0.781 c -0.262 -0.086 -0.324 -0.566 -0.156 -1.094 c 0.172 -0.527 0.52 -0.898 0.781 -0.813 m 0 0" stroke="none" fill-rule="nonzero" fill-opacity="1" fill="#000"/></g></g></g></g><g><g clip-path="url(#clipPath-095879610)"><g transform="translate(0,-1)"><!-- color: #f6a56f --><g><path d="m 16.969 25.406 c -0.195 -0.551 -0.098 -0.988 0.125 -1.375 c 1.078 -0.527 2.01 -0.371 2.969 -0.344 l 1.563 -5.156 c 0.348 -1.078 1.188 -2.129 3.03 -3.125 c 1.238 -0.633 3.715 -0.316 5 0.188 c 2.371 1.582 2.32 3.145 2.328 4.758 c -0.09 3.148 -2.066 4.902 -3.172 5.398 c -0.641 0.262 -2.461 0.227 -3.469 -0.688 l -1.063 0.125 l 0.688 0.969 c 0.27 0.383 0.523 0.895 0.656 1.344 c -0.32 0.59 -0.734 0.629 -1.219 0.219 c 0 0 -0.344 -1.469 -0.563 -1.313 c -0.52 1.988 -1.328 3.82 -2.191 5.688 c -1.656 2.906 -3.656 0.906 -2.5 -0.156 c 0.281 -0.281 0.844 -1.188 0.656 -1.25 c -0.191 -0.063 -1.531 -0.906 -1.531 -0.906 c 0 0 -0.969 0.938 -1.094 1.063 c -1.191 1.156 -2.125 0.215 -1.469 -0.938 l 1.969 -1.594 l 1.313 -1.375 c 0.598 -0.871 0.684 -1.367 0.551 -2.031 c -0.191 0.094 -1.926 0.563 -1.926 0.563 c -0.348 0.242 -0.484 0.055 -0.652 -0.063 m 0 0" fill="#1986ec" stroke="none" fill-rule="nonzero" fill-opacity="0.776"/><path d="m 28 16.719 c -1.313 0.195 -2.488 1.711 -2.781 3.688 c -0.332 2.258 0.637 4.246 2.156 4.469 c 1.52 0.227 3.01 -1.398 3.344 -3.656 c 0.332 -2.258 -0.633 -4.273 -2.156 -4.5 c -0.191 -0.027 -0.375 -0.027 -0.563 0 m -0.094 2.625 c 0.074 -0.023 0.156 -0.027 0.219 0 c 0.254 0.109 0.281 0.586 0.063 1.094 c -0.219 0.508 -0.621 0.828 -0.875 0.719 c -0.254 -0.102 -0.281 -0.586 -0.063 -1.094 c 0.164 -0.379 0.43 -0.652 0.656 -0.719 m 1.969 0.375 c 0.262 0.086 0.355 0.598 0.188 1.125 c -0.168 0.527 -0.551 0.867 -0.813 0.781 c -0.262 -0.086 -0.324 -0.566 -0.156 -1.094 c 0.172 -0.527 0.52 -0.898 0.781 -0.813 m 0 0" fill="#fbdd4c" stroke="none" fill-rule="nonzero" fill-opacity="1"/></g></g></g></g><g><g transform="translate(0,-1004.3622)"><path d="m 1 1043.36 0 4 c 0 2.216 1.784 4 4 4 l 38 0 c 2.216 0 4 -1.784 4 -4 l 0 -4 c 0 2.216 -1.784 4 -4 4 l -38 0 c -2.216 0 -4 -1.784 -4 -4 z" opacity="0.1"/></g></g></svg>