<?xml version="1.0" encoding="UTF-8" standalone="no"?>
<svg
   xmlns:dc="http://purl.org/dc/elements/1.1/"
   xmlns:cc="http://creativecommons.org/ns#"
   xmlns:rdf="http://www.w3.org/1999/02/22-rdf-syntax-ns#"
   xmlns:svg="http://www.w3.org/2000/svg"
   xmlns="http://www.w3.org/2000/svg"
   xmlns:xlink="http://www.w3.org/1999/xlink"
   xmlns:sodipodi="http://sodipodi.sourceforge.net/DTD/sodipodi-0.dtd"
   xmlns:inkscape="http://www.inkscape.org/namespaces/inkscape"
   width="48"
   viewBox="0 0 13.546667 13.546667"
   height="48"
   id="svg2"
   version="1.1"
   inkscape:version="0.48.4 r9939"
   sodipodi:docname="software.svg">
  <metadata
     id="metadata49">
    <rdf:RDF>
      <cc:Work
         rdf:about="">
        <dc:format>image/svg+xml</dc:format>
        <dc:type
           rdf:resource="http://purl.org/dc/dcmitype/StillImage" />
      </cc:Work>
    </rdf:RDF>
  </metadata>
  <sodipodi:namedview
     pagecolor="#ffffff"
     bordercolor="#666666"
     borderopacity="1"
     objecttolerance="10"
     gridtolerance="10"
     guidetolerance="10"
     inkscape:pageopacity="0"
     inkscape:pageshadow="2"
     inkscape:window-width="640"
     inkscape:window-height="480"
     id="namedview47"
     showgrid="false"
     inkscape:zoom="4.9166667"
     inkscape:cx="24"
     inkscape:cy="24"
     inkscape:window-x="177"
     inkscape:window-y="341"
     inkscape:window-maximized="0"
     inkscape:current-layer="svg2" />
  <defs
     id="defs4">
    <linearGradient
       id="0">
      <stop
         stop-color="#d1d1d1"
         id="stop7" />
      <stop
         offset="1"
         stop-color="#f9f9f9"
         id="stop9" />
    </linearGradient>
    <linearGradient
       gradientTransform="matrix(0.28222223,0,0,0.28222223,0,-283.45334)"
       xlink:href="#0"
       id="1"
       y1="1050.36"
       x2="0"
       y2="1006.36"
       gradientUnits="userSpaceOnUse" />
    <linearGradient
       inkscape:collect="always"
       xlink:href="#linearGradient3801-3"
       id="linearGradient3895"
       gradientUnits="userSpaceOnUse"
       gradientTransform="matrix(0.28222223,0,0,0.3078788,9.9916667e-7,-0.87232225)"
       x1="25"
       y1="34"
       x2="25"
       y2="19" />
    <linearGradient
       id="linearGradient3801-3">
      <stop
         style="stop-color:#000000;stop-opacity:1;"
         offset="0"
         id="stop3803-9" />
      <stop
         style="stop-color:#000000;stop-opacity:0;"
         offset="1"
         id="stop3805-6" />
    </linearGradient>
    <linearGradient
       inkscape:collect="always"
       xlink:href="#linearGradient3846"
       id="linearGradient3893"
       gradientUnits="userSpaceOnUse"
       gradientTransform="matrix(0.28222223,0,0,0.3078788,1.9991667e-6,-0.87232205)"
       x1="25"
       y1="34"
       x2="25"
       y2="50" />
    <linearGradient
       inkscape:collect="always"
       id="linearGradient3846">
      <stop
         style="stop-color:#ffffff;stop-opacity:1;"
         offset="0"
         id="stop3848" />
      <stop
         style="stop-color:#ffffff;stop-opacity:0;"
         offset="1"
         id="stop3850" />
    </linearGradient>
  </defs>
  <g
     transform="matrix(0.28222223,0,0,0.28222223,0,-283.45334)"
     id="g12">
    <path
       style="opacity:0.05"
       inkscape:connector-curvature="0"
       transform="translate(0,1004.3622)"
       d="M 5.1875,1 C 2.8707723,1 1,2.8707723 1,5.1875 l 0,37.625 C 1,45.129228 2.8707723,47 5.1875,47 l 37.625,0 C 45.129228,47 47,45.129228 47,42.8125 L 47,5.1875 C 47,2.8707723 45.129228,1 42.8125,1 L 5.1875,1 z m 0.1875,0.25 37.25,0 c 2.291546,0 4.125,1.8334541 4.125,4.125 l 0,37.25 c 0,2.291546 -1.833454,4.125 -4.125,4.125 l -37.25,0 C 3.0834541,46.75 1.25,44.916546 1.25,42.625 l 0,-37.25 C 1.25,3.0834541 3.0834541,1.25 5.375,1.25 z"
       id="path14" />
    <path
       style="opacity:0.1"
       inkscape:connector-curvature="0"
       transform="translate(0,1004.3622)"
       d="M 5.375,1.25 C 3.0834541,1.25 1.25,3.0834541 1.25,5.375 l 0,37.25 c 0,2.291546 1.8334541,4.125 4.125,4.125 l 37.25,0 c 2.291546,0 4.125,-1.833454 4.125,-4.125 l 0,-37.25 C 46.75,3.0834541 44.916546,1.25 42.625,1.25 l -37.25,0 z m 0.21875,0.25 36.8125,0 C 44.672614,1.5 46.5,3.3273859 46.5,5.59375 l 0,36.8125 C 46.5,44.672614 44.672614,46.5 42.40625,46.5 l -36.8125,0 C 3.3273859,46.5 1.5,44.672614 1.5,42.40625 l 0,-36.8125 C 1.5,3.3273859 3.3273859,1.5 5.59375,1.5 z"
       id="path16" />
    <path
       style="opacity:0.2"
       inkscape:connector-curvature="0"
       transform="translate(0,1004.3622)"
       d="M 5.59375,1.5 C 3.3273859,1.5 1.5,3.3273859 1.5,5.59375 l 0,36.8125 C 1.5,44.672614 3.3273859,46.5 5.59375,46.5 l 36.8125,0 C 44.672614,46.5 46.5,44.672614 46.5,42.40625 l 0,-36.8125 C 46.5,3.3273859 44.672614,1.5 42.40625,1.5 l -36.8125,0 z m 0.09375,0.125 36.625,0 c 2.253773,0 4.0625,1.8087269 4.0625,4.0625 l 0,36.625 c 0,2.253773 -1.808727,4.0625 -4.0625,4.0625 l -36.625,0 c -2.2537731,0 -4.0625,-1.808727 -4.0625,-4.0625 l 0,-36.625 C 1.625,3.4337269 3.4337269,1.625 5.6875,1.625 z"
       id="path18" />
    <path
       style="opacity:0.3"
       inkscape:connector-curvature="0"
       transform="translate(0,1004.3622)"
       d="M 5.6875,1.625 C 3.4337269,1.625 1.625,3.4337269 1.625,5.6875 l 0,36.625 c 0,2.253773 1.8087269,4.0625 4.0625,4.0625 l 36.625,0 c 2.253773,0 4.0625,-1.808727 4.0625,-4.0625 l 0,-36.625 c 0,-2.2537731 -1.808727,-4.0625 -4.0625,-4.0625 l -36.625,0 z m 0.09375,0.125 36.4375,0 c 2.241182,0 4.03125,1.7900679 4.03125,4.03125 l 0,36.4375 c 0,2.241182 -1.790068,4.03125 -4.03125,4.03125 l -36.4375,0 C 3.5400679,46.25 1.75,44.459932 1.75,42.21875 l 0,-36.4375 C 1.75,3.5400679 3.5400679,1.75 5.78125,1.75 z"
       id="path20" />
    <path
       style="opacity:0.4"
       inkscape:connector-curvature="0"
       transform="translate(0,1004.3622)"
       d="M 5.78125,1.75 C 3.5400679,1.75 1.75,3.5400679 1.75,5.78125 l 0,36.4375 c 0,2.241182 1.7900679,4.03125 4.03125,4.03125 l 36.4375,0 c 2.241182,0 4.03125,-1.790068 4.03125,-4.03125 l 0,-36.4375 C 46.25,3.5400679 44.459932,1.75 42.21875,1.75 l -36.4375,0 z m 0.125,0.125 36.1875,0 c 2.228591,0 4.03125,1.802659 4.03125,4.03125 l 0,36.1875 c 0,2.228591 -1.802659,4.03125 -4.03125,4.03125 l -36.1875,0 C 3.677659,46.125 1.875,44.322341 1.875,42.09375 l 0,-36.1875 C 1.875,3.677659 3.677659,1.875 5.90625,1.875 z"
       id="path22" />
    <rect
       style="opacity:0.5"
       width="44.25"
       height="44.25"
       x="1.875"
       y="1006.24"
       rx="4.02"
       id="rect24" />
  </g>
  <rect
     width="12.418"
     height="12.418"
     x="0.56400013"
     y="0.56400102"
     rx="1.1289999"
     id="rect26"
     style="fill:#eaebe1;fill-opacity:1" />
  <rect
     style="fill:#a17c5b;fill-opacity:1;stroke:none"
     id="rect3813"
     width="8.4666662"
     height="2.8222222"
     x="2.54"
     y="4.233335" />
  <path
     style="fill:#5281b4;fill-opacity:1"
     d="m 6.7733333,2.2577754 c -1.5586766,0 -2.8222221,1.263507 -2.8222221,2.822223 0,1.558618 1.2635455,2.822224 2.8222221,2.822224 1.5586772,0 2.8222225,-1.263626 2.8222225,-2.822224 0,-1.558716 -1.2635453,-2.822223 -2.8222225,-2.822223 z"
     id="path3854"
     inkscape:connector-curvature="0"
     sodipodi:nodetypes="sssss" />
  <path
     style="fill:#c49a6c;fill-opacity:1;stroke:none"
     d="m 2.5399996,4.2333347 0.846666,0.8466667 -0.188148,0.8466664 -0.658518,0.2822225 z"
     id="path3825"
     inkscape:connector-curvature="0"
     sodipodi:nodetypes="ccccc" />
  <path
     style="fill:#d3b092;fill-opacity:1;stroke:none"
     d="m 2.2577776,6.4911121 1.128888,0 0,-0.201587 c 0,-0.335979 0,-1.8320938 0,-1.2095237 l -1.128888,1.1288889 z"
     id="path3815"
     inkscape:connector-curvature="0"
     sodipodi:nodetypes="cccccc" />
  <path
     sodipodi:nodetypes="ccccc"
     inkscape:connector-curvature="0"
     id="path3827"
     d="M 11.006667,4.2333347 10.16,5.0800014 l 0.188148,0.8466664 0.658519,0.2822225 z"
     style="fill:#c49a6c;fill-opacity:1;stroke:none" />
  <path
     sodipodi:nodetypes="cccccc"
     inkscape:connector-curvature="0"
     id="path3829"
     d="m 11.288888,6.4911121 -1.128888,0 0,-0.201587 c 0,-0.335979 0,-1.8320935 0,-1.2095237 l 1.128889,1.1087298 z"
     style="fill:#d3b092;fill-opacity:1;stroke:none" />
  <path
     style="fill:#eaebe1;fill-opacity:1;stroke:none"
     d="m 8.3312987,3.3866654 c -1.0118231,0 -1.199874,1.340556 -0.6306676,1.340556 0.5691225,0 1.6425305,-1.340556 0.6306676,-1.340556 z m -1.6075846,0.16463 c -0.5694115,0.06861 -0.377385,0.994114 -0.0742,1.011296 0.3030765,0.01719 0.6438124,-1.079911 0.0742,-1.011296 z m -0.9521855,0.364537 c -0.02498,0.0024 -0.057961,0.01253 -0.086571,0.02352 -0.457668,0.175336 -0.0709,0.895312 0.1854915,0.846667 0.240564,-0.04553 0.275624,-0.907092 -0.09894,-0.870186 z m -0.717231,0.564444 c -0.03979,-0.0012 -0.07784,0.01767 -0.123662,0.04704 -0.3663645,0.235016 0.118333,0.793607 0.3338835,0.705556 0.188606,-0.07708 0.06832,-0.743887 -0.2102225,-0.752593 z m 2.0898609,0.435093 c -0.7854354,-0.0124 -1.8142384,0.358971 -1.9909329,1.093611 -0.191367,0.795009 0.783833,1.893242 1.8054429,1.893242 0.5025797,0 1.078687,-0.41878 1.1871402,-0.9525 0.08283,-0.406994 -0.9654501,-0.245787 -0.9274542,0.02352 0.04552,0.3228 -0.2620798,0.478561 -0.5564714,0.270464 -0.937176,-0.66244 1.5490554,-0.988231 1.3849965,-1.893245 -0.05106,-0.281704 -0.4314576,-0.427692 -0.9027211,-0.435092 z"
     id="rect3105"
     inkscape:connector-curvature="0"
     sodipodi:nodetypes="ssscccccccsccsscscccss" />
  <path
     style="fill:#c49a6c;fill-opacity:1;stroke:none"
     d="m 2.2577776,6.2088906 0,6.7733334 4.515555,0 4.5155564,0 0,-6.7733334 z"
     id="rect3036"
     inkscape:connector-curvature="0"
     sodipodi:nodetypes="cccccc" />
  <path
     sodipodi:type="arc"
     style="opacity:0.25;fill:#000000;fill-opacity:1;stroke:none"
     id="path3809"
     sodipodi:cx="-46.067875"
     sodipodi:cy="21.734539"
     sodipodi:rx="3.9321249"
     sodipodi:ry="3.734539"
     d="m -42.13575,21.734539 a 3.9321249,3.734539 0 1 1 -7.86425,0 3.9321249,3.734539 0 1 1 7.86425,0 z"
     transform="matrix(0.1076602,0,0,0.11335625,9.3341206,5.5795886)" />
  <path
     transform="matrix(0.1076602,0,0,0.11335625,14.414117,5.5795886)"
     d="m -42.13575,21.734539 a 3.9321249,3.734539 0 1 1 -7.86425,0 3.9321249,3.734539 0 1 1 7.86425,0 z"
     sodipodi:ry="3.734539"
     sodipodi:rx="3.9321249"
     sodipodi:cy="21.734539"
     sodipodi:cx="-46.067875"
     id="path3811"
     style="opacity:0.25;fill:#000000;fill-opacity:1;stroke:none"
     sodipodi:type="arc" />
  <path
     style="fill:#ffffff;fill-opacity:1;stroke:none"
     d="m 4.2333325,8.1844461 c 0.8466673,4.5155549 4.5155563,4.5155549 5.362223,0 0.05931,-0.378602 -0.2006699,-0.386016 -0.2822231,0 -0.5644436,4.1149129 -4.2333326,4.0933819 -4.7977779,0 -0.0519,-0.371189 -0.334119,-0.356361 -0.282222,0 z"
     id="path3831"
     inkscape:connector-curvature="0"
     sodipodi:nodetypes="ccccc" />
  <path
     inkscape:connector-curvature="0"
     style="opacity:0.06000001;fill:url(#linearGradient3893);fill-opacity:1;stroke:none"
     d="m 2.2577776,9.5955571 0,3.3866669 4.5155539,0 4.5155575,0 0,-3.3866669 z"
     id="rect3836"
     sodipodi:nodetypes="cccccc" />
  <path
     style="opacity:0.06000001;fill:url(#linearGradient3895);fill-opacity:1;stroke:none"
     d="m 2.2577776,6.2088897 0,3.3866674 9.0311124,0 0,-3.3866674 -9.0311124,0 z"
     id="rect3840"
     inkscape:connector-curvature="0" />
</svg>
