<?xml version="1.0" encoding="UTF-8" standalone="no"?>
<svg
   xmlns:dc="http://purl.org/dc/elements/1.1/"
   xmlns:cc="http://creativecommons.org/ns#"
   xmlns:rdf="http://www.w3.org/1999/02/22-rdf-syntax-ns#"
   xmlns:svg="http://www.w3.org/2000/svg"
   xmlns="http://www.w3.org/2000/svg"
   xmlns:sodipodi="http://sodipodi.sourceforge.net/DTD/sodipodi-0.dtd"
   xmlns:inkscape="http://www.inkscape.org/namespaces/inkscape"
   viewBox="0 0 48 48"
   id="svg2"
   version="1.1"
   inkscape:version="0.48.4 r9939"
   width="100%"
   height="100%"
   sodipodi:docname="gnome-power-manager.svg">
  <metadata
     id="metadata73">
    <rdf:RDF>
      <cc:Work
         rdf:about="">
        <dc:format>image/svg+xml</dc:format>
        <dc:type
           rdf:resource="http://purl.org/dc/dcmitype/StillImage" />
      </cc:Work>
    </rdf:RDF>
  </metadata>
  <sodipodi:namedview
     pagecolor="#ffffff"
     bordercolor="#666666"
     borderopacity="1"
     objecttolerance="10"
     gridtolerance="10"
     guidetolerance="10"
     inkscape:pageopacity="0"
     inkscape:pageshadow="2"
     inkscape:window-width="1920"
     inkscape:window-height="1023"
     id="namedview71"
     showgrid="false"
     inkscape:zoom="16.420898"
     inkscape:cx="13.647339"
     inkscape:cy="24"
     inkscape:window-x="0"
     inkscape:window-y="28"
     inkscape:window-maximized="1"
     inkscape:current-layer="svg2" />
  <defs
     id="defs4">
    <linearGradient
       id="linearGradient3764"
       x1="1"
       x2="47"
       gradientUnits="userSpaceOnUse"
       gradientTransform="translate(-47.997785,0.00221467)">
      <stop
         stop-color="#40ac9b"
         stop-opacity="1"
         id="stop7" />
      <stop
         offset="1"
         stop-color="#46baa7"
         stop-opacity="1"
         id="stop9" />
    </linearGradient>
    <clipPath
       id="clipPath-793015759">
      <g
         transform="translate(0,-1004.3622)"
         id="g12">
        <rect
           rx="4"
           y="1005.36"
           x="1"
           height="46"
           width="46"
           fill="#1890d0"
           id="rect14" />
      </g>
    </clipPath>
    <clipPath
       id="clipPath-815054487">
      <g
         transform="translate(0,-1004.3622)"
         id="g17">
        <rect
           rx="4"
           y="1005.36"
           x="1"
           height="46"
           width="46"
           fill="#1890d0"
           id="rect19" />
      </g>
    </clipPath>
  </defs>
  <g
     id="g21">
    <g
       transform="translate(0,-1004.3622)"
       id="g23">
      <path
         d="m 5 1006.36 c -2.216 0 -4 1.784 -4 4 l 0 37.25 c 0 2.216 1.784 4 4 4 l 38 0 c 2.216 0 4 -1.784 4 -4 l 0 -37.25 c 0 -2.216 -1.784 -4 -4 -4 l -38 0 z m -4 41.5 0 0.5 c 0 2.216 1.784 4 4 4 l 38 0 c 2.216 0 4 -1.784 4 -4 l 0 -0.5 c 0 2.216 -1.784 4 -4 4 l -38 0 c -2.216 0 -4 -1.784 -4 -4 z"
         opacity="0.02"
         id="path25" />
      <path
         d="m 1 1047.61 0 0.25 c 0 2.216 1.784 4 4 4 l 38 0 c 2.216 0 4 -1.784 4 -4 l 0 -0.25 c 0 2.216 -1.784 4 -4 4 l -38 0 c -2.216 0 -4 -1.784 -4 -4 z"
         opacity="0.05"
         id="path27" />
      <rect
         width="46"
         height="46"
         x="1"
         y="1005.61"
         rx="4"
         opacity="0.1"
         id="rect29" />
    </g>
  </g>
  <g
     id="g31">
    <rect
       width="46"
       height="46"
       x="-46.998"
       y="1"
       rx="4"
       transform="matrix(0,-1,1,0,0,0)"
       fill="url(#linearGradient3764)"
       fill-opacity="1"
       id="rect33" />
  </g>
  <path
     style="fill:none;stroke:#000000;stroke-width:2;stroke-linecap:butt;stroke-linejoin:miter;stroke-miterlimit:4;stroke-opacity:1;opacity:0.1"
     inkscape:connector-curvature="0"
     id="path3866"
     stroke-miterlimit="4"
     d="m 16.801,10.996 14.398,0 c 0.996,0 1.801,0.844 1.801,1.887 l 0,24.23 c 0,1.043 -0.805,1.883 -1.801,1.883 l -14.398,0 C 15.805,38.996 15,38.156 15,37.113 l 0,-24.23 c 0,-1.043 0.805,-1.887 1.801,-1.887 m 0,0" />
  <g
     id="g35" />
  <path
     d="m 20,6.996 8,0 c 0.551,0 1,0.449 1,1 l 0,1.715 c 0,0.551 -0.449,1 -1,1 l -8,0 c -0.551,0 -1,-0.449 -1,-1 l 0,-1.715 c 0,-0.551 0.449,-1 1,-1 m 0,0"
     id="path47"
     inkscape:connector-curvature="0"
     style="opacity:0.1;fill:#000000;fill-opacity:1;fill-rule:nonzero;stroke:none" />
  <path
     d="m 17,37 14,0 0,-17 -14,10 m 0,7"
     id="path49"
     inkscape:connector-curvature="0"
     style="opacity:0.1;fill:#000000;fill-opacity:1;fill-rule:nonzero;stroke:none" />
  <path
     d="m 16.801,9.996 14.398,0 c 0.996,0 1.801,0.844 1.801,1.887 l 0,24.23 c 0,1.043 -0.805,1.883 -1.801,1.883 l -14.398,0 C 15.805,37.996 15,37.156 15,36.113 l 0,-24.23 c 0,-1.043 0.805,-1.887 1.801,-1.887 m 0,0"
     stroke-miterlimit="4"
     id="path59"
     inkscape:connector-curvature="0"
     style="fill:none;stroke:#f9f9f9;stroke-width:2;stroke-linecap:butt;stroke-linejoin:miter;stroke-miterlimit:4;stroke-opacity:1" />
  <path
     d="m 20,5.996 8,0 c 0.551,0 1,0.449 1,1 l 0,1.715 c 0,0.551 -0.449,1 -1,1 l -8,0 c -0.551,0 -1,-0.449 -1,-1 l 0,-1.715 c 0,-0.551 0.449,-1 1,-1 m 0,0"
     id="path61"
     inkscape:connector-curvature="0"
     style="fill:#f9f9f9;fill-opacity:1;fill-rule:nonzero;stroke:none" />
  <path
     d="m 17,36 14,0 0,-17 -14,10 m 0,7"
     id="path63"
     inkscape:connector-curvature="0"
     style="fill:#e3e3d6;fill-opacity:1;fill-rule:nonzero;stroke:none" />
  <g
     id="g65">
    <g
       transform="translate(0,-1004.3622)"
       id="g67">
      <path
         d="m 1 1043.36 0 4 c 0 2.216 1.784 4 4 4 l 38 0 c 2.216 0 4 -1.784 4 -4 l 0 -4 c 0 2.216 -1.784 4 -4 4 l -38 0 c -2.216 0 -4 -1.784 -4 -4 z"
         opacity="0.1"
         id="path69" />
    </g>
  </g>
</svg>
