<svg viewBox="0 0 48 48"><defs><linearGradient id="linearGradient3764" x1="1" x2="47" gradientUnits="userSpaceOnUse" gradientTransform="translate(-48.000001,0.00221467)"><stop stop-color="#e6a712" stop-opacity="1"/><stop offset="1" stop-color="#edb020" stop-opacity="1"/></linearGradient><clipPath id="clipPath-131157676"><g transform="translate(0,-1004.3622)"><rect rx="4" y="1005.36" x="1" height="46" width="46" fill="#1890d0"/></g></clipPath><clipPath id="clipPath-143957561"><g transform="translate(0,-1004.3622)"><rect rx="4" y="1005.36" x="1" height="46" width="46" fill="#1890d0"/></g></clipPath></defs><g><path d="m 1 43 l 0 0.25 c 0 2.216 1.784 4 4 4 l 38 0 c 2.216 0 4 -1.784 4 -4 l 0 -0.25 c 0 2.216 -1.784 4 -4 4 l -38 0 c -2.216 0 -4 -1.784 -4 -4 z m 0 0.5 l 0 0.5 c 0 2.216 1.784 4 4 4 l 38 0 c 2.216 0 4 -1.784 4 -4 l 0 -0.5 c 0 2.216 -1.784 4 -4 4 l -38 0 c -2.216 0 -4 -1.784 -4 -4 z" opacity="0.02"/><path d="m 1 43.25 l 0 0.25 c 0 2.216 1.784 4 4 4 l 38 0 c 2.216 0 4 -1.784 4 -4 l 0 -0.25 c 0 2.216 -1.784 4 -4 4 l -38 0 c -2.216 0 -4 -1.784 -4 -4 z" opacity="0.05"/><path d="m 1 43 l 0 0.25 c 0 2.216 1.784 4 4 4 l 38 0 c 2.216 0 4 -1.784 4 -4 l 0 -0.25 c 0 2.216 -1.784 4 -4 4 l -38 0 c -2.216 0 -4 -1.784 -4 -4 z" opacity="0.1"/></g><g><rect width="46" height="46" x="-47" y="1" rx="4" transform="matrix(0,-1,1,0,0,0)" fill="url(#linearGradient3764)" fill-opacity="1"/></g><g><g clip-path="url(#clipPath-131157676)"><g opacity="0.1"><!-- color: #edb020 --><g><path d="m 23.398 13.01 c -2.883 0.02 -5.66 0.203 -6.203 0.504 c -1.086 0.602 -6.207 9.352 -6.195 10.555 c 0.012 1.195 5.32 9.688 6.418 10.277 c 1.098 0.586 11.531 0.488 12.617 -0.121 c 1.086 -0.605 6.313 -9.199 6.301 -10.398 c -0.012 -1.188 -5.453 -9.938 -6.551 -10.52 c -0.551 -0.293 -3.508 -0.328 -6.387 -0.301 m 0.078 2.508 c 2.25 -0.023 4.441 0.137 4.871 0.371 c 0.859 0.473 4.906 7.05 4.918 8.01 c 0.008 0.961 -4 7.758 -4.852 8.246 c -0.848 0.488 -8.73 0.324 -9.59 -0.148 c -0.859 -0.473 -5.05 -6.957 -5.05 -7.918 c -0.012 -0.961 4.391 -7.656 5.242 -8.145 c 0.422 -0.246 2.211 -0.391 4.465 -0.414 m 0 0" stroke="none" fill-rule="nonzero" fill-opacity="1" fill="#000"/><path d="m 26.844 32.512 c -0.461 -0.949 -0.969 -1.91 -1.523 -2.875 c -0.543 -0.984 -1.168 -1.98 -1.883 -2.996 c -0.223 0.293 -0.508 0.703 -0.859 1.227 c -0.332 0.523 -0.672 1.082 -1.023 1.672 c -0.332 0.59 -0.648 1.152 -0.953 1.695 c -0.301 0.539 -0.523 0.965 -0.664 1.277 l -4.242 0 c 0.699 -1.328 1.508 -2.719 2.441 -4.176 c 0.938 -1.457 1.977 -3.01 3.109 -4.645 l -5.313 -8.203 l 4.504 0 l 3.215 5.305 l 3.148 -5.305 l 4.234 0 l -5.234 8.254 c 1.332 1.785 2.453 3.438 3.352 4.961 c 0.906 1.508 1.621 2.777 2.148 3.809 l -4.453 0" stroke="none" fill-rule="nonzero" fill-opacity="1" fill="#000"/></g></g></g></g><g><g clip-path="url(#clipPath-143957561)"><g transform="translate(0,-1)"><!-- color: #edb020 --><g><path d="m 23.398 13.01 c -2.883 0.02 -5.66 0.203 -6.203 0.504 c -1.086 0.602 -6.207 9.352 -6.195 10.555 c 0.012 1.195 5.32 9.688 6.418 10.277 c 1.098 0.586 11.531 0.488 12.617 -0.121 c 1.086 -0.605 6.313 -9.199 6.301 -10.398 c -0.012 -1.188 -5.453 -9.938 -6.551 -10.52 c -0.551 -0.293 -3.508 -0.328 -6.387 -0.301 m 0.078 2.508 c 2.25 -0.023 4.441 0.137 4.871 0.371 c 0.859 0.473 4.906 7.05 4.918 8.01 c 0.008 0.961 -4 7.758 -4.852 8.246 c -0.848 0.488 -8.73 0.324 -9.59 -0.148 c -0.859 -0.473 -5.05 -6.957 -5.05 -7.918 c -0.012 -0.961 4.391 -7.656 5.242 -8.145 c 0.422 -0.246 2.211 -0.391 4.465 -0.414 m 0 0" fill="#fff" stroke="none" fill-rule="nonzero" fill-opacity="1"/><path d="m 26.844 32.512 c -0.461 -0.949 -0.969 -1.91 -1.523 -2.875 c -0.543 -0.984 -1.168 -1.98 -1.883 -2.996 c -0.223 0.293 -0.508 0.703 -0.859 1.227 c -0.332 0.523 -0.672 1.082 -1.023 1.672 c -0.332 0.59 -0.648 1.152 -0.953 1.695 c -0.301 0.539 -0.523 0.965 -0.664 1.277 l -4.242 0 c 0.699 -1.328 1.508 -2.719 2.441 -4.176 c 0.938 -1.457 1.977 -3.01 3.109 -4.645 l -5.313 -8.203 l 4.504 0 l 3.215 5.305 l 3.148 -5.305 l 4.234 0 l -5.234 8.254 c 1.332 1.785 2.453 3.438 3.352 4.961 c 0.906 1.508 1.621 2.777 2.148 3.809 l -4.453 0" fill="#fff" stroke="none" fill-rule="nonzero" fill-opacity="1"/></g></g></g></g><g><g transform="translate(0,-1004.3622)"><path d="m 1 1043.36 0 4 c 0 2.216 1.784 4 4 4 l 38 0 c 2.216 0 4 -1.784 4 -4 l 0 -4 c 0 2.216 -1.784 4 -4 4 l -38 0 c -2.216 0 -4 -1.784 -4 -4 z" opacity="0.1"/></g></g></svg>