<svg xmlns="http://www.w3.org/2000/svg" xmlns:xlink="http://www.w3.org/1999/xlink" width="48" viewBox="0 0 13.546667 13.546667" height="48">
 <defs>
  <linearGradient id="0">
   <stop stop-color="#222222"/>
   <stop offset="1" stop-color="#4e4e4e"/>
  </linearGradient>
  <linearGradient gradientUnits="userSpaceOnUse" x2="0" y2="40" y1="280" xlink:href="#2" id="1" gradientTransform="matrix(.175 0 0 .175 302.79999 215.99997)"/>
  <linearGradient id="2">
   <stop stop-color="#151515"/>
   <stop offset="1" stop-color="#222"/>
  </linearGradient>
  <linearGradient gradientUnits="userSpaceOnUse" x2="0" y2="90" y1="230" xlink:href="#2" id="3" gradientTransform="matrix(.375 0 0 .375 298 16)"/>
  <linearGradient gradientUnits="userSpaceOnUse" x2="0" y2="90" y1="230" xlink:href="#2" id="4" gradientTransform="matrix(.25 0 0 .25 299.99999 131.99999)"/>
  <linearGradient gradientUnits="userSpaceOnUse" x2="264" x1="265" y2="276" y1="40" xlink:href="#2" gradientTransform="matrix(-1 0 0 -1 289 315)"/>
  <clipPath>
   <rect height="20" rx="4" y="78" x="434" width="20" color="#bebebe"/>
  </clipPath>
  <clipPath>
   <rect height="22" rx="4" y="77" x="433" width="22" color="#bebebe"/>
  </clipPath>
  <clipPath>
   <rect height="22" rx="5" y="77" x="433" width="22" color="#bebebe"/>
  </clipPath>
  <clipPath>
   <rect height="30" rx="6" y="29" x="433" width="30" color="#bebebe"/>
  </clipPath>
  <clipPath>
   <rect transform="matrix(0 -1 1 0 0 0)" height="60" rx="12.5" y="142" x="306" width="60" fill="url(#4)" color="#bebebe"/>
  </clipPath>
  <clipPath>
   <rect height="90" rx="18.75" y="31" x="307" width="90" fill="url(#3)" color="#bebebe"/>
  </clipPath>
  <clipPath>
   <rect height="30" rx="4" y="29" x="433" width="30" opacity="0.2" fill="#6d6d6d" color="#bebebe"/>
  </clipPath>
  <clipPath>
   <rect height="22" rx="3" y="77" x="433" width="22" opacity="0.2" fill="#6d6d6d" color="#bebebe"/>
  </clipPath>
  <clipPath>
   <path d="m 144,70 c -49.705627,0 -90,40.29437 -90,90 0,49.70563 40.294373,90 90,90 49.70563,0 90,-40.29437 90,-90 0,-49.70563 -40.29437,-90 -90,-90 z m 0,32.1875 c 32.03251,0 58,25.96748 58,58 0,32.03252 -25.96749,58 -58,58 -32.03251,0 -58,-25.96748 -58,-58 0,-32.03252 25.96749,-58 58,-58 z"/>
  </clipPath>
  <clipPath>
   <path d="m 152,204 a 8,8 0 1 1 -16,0 8,8 0 1 1 16,0 z"/>
  </clipPath>
  <clipPath>
   <rect height="16" rx="3" y="116" x="432" width="16" color="#bebebe"/>
  </clipPath>
  <clipPath>
   <path d="m 145,215 c 33.13708,0 60,-26.86292 60,-60 0,-33.13708 -26.86292,-60 -60,-60 -33.13708,0 -60,26.86292 -60,60 0,12.50698 3.8285,24.10633 10.375,33.71875 L 89,211 111.28125,204.625 C 120.89367,211.1715 132.49302,215 145,215 z"/>
  </clipPath>
  <clipPath>
   <path d="m 98.03125,23.191212 c -41.492132,1.05238 -74.84375,35.06824 -74.84375,76.812498 0,42.40687 34.405632,76.8125 76.8125,76.8125 42.40687,0 76.8125,-34.40563 76.8125,-76.8125 0,-42.406866 -34.40563,-76.812498 -76.8125,-76.812498 -0.662607,0 -1.310145,-0.0167 -1.96875,0 z M 100,50.659962 c 27.24464,0 49.34375,22.099114 49.34375,49.343748 -1e-5,27.24464 -22.09911,49.34375 -49.34375,49.34375 -27.244636,-1e-5 -49.34375,-22.09911 -49.34375,-49.34375 0,-27.244634 22.099114,-49.343748 49.34375,-49.343748 z"/>
  </clipPath>
  <clipPath>
   <rect height="16" rx="2" y="116" x="432" width="16" opacity="0.2" fill="#6d6d6d" color="#bebebe"/>
  </clipPath>
  <clipPath>
   <rect height="240" rx="50" y="36" x="24" width="240" fill="#986767" color="#bebebe"/>
  </clipPath>
  <clipPath>
   <rect transform="rotate(90)" height="42" rx="9" y="223" x="307" width="42" fill="url(#1)" color="#bebebe"/>
  </clipPath>
  <linearGradient xlink:href="#0" id="5" gradientUnits="userSpaceOnUse" gradientTransform="matrix(0.28222223,0,0,0.28222223,6.7059175e-7,-283.45335)" y1="1050.36" x2="0" y2="1006.36"/>
 </defs>
 <g transform="matrix(0.28222223,0,0,0.28222223,1.0614729e-7,-283.45334)">
  <path d="M 5.1875,1 C 2.8707723,1 1,2.8707723 1,5.1875 l 0,37.625 C 1,45.129228 2.8707723,47 5.1875,47 l 37.625,0 C 45.129228,47 47,45.129228 47,42.8125 L 47,5.1875 C 47,2.8707723 45.129228,1 42.8125,1 L 5.1875,1 z m 0.1875,0.25 37.25,0 c 2.291546,0 4.125,1.8334541 4.125,4.125 l 0,37.25 c 0,2.291546 -1.833454,4.125 -4.125,4.125 l -37.25,0 C 3.0834541,46.75 1.25,44.916546 1.25,42.625 l 0,-37.25 C 1.25,3.0834541 3.0834541,1.25 5.375,1.25 z" transform="translate(0,1004.3622)" opacity="0.05"/>
  <path d="M 5.375,1.25 C 3.0834541,1.25 1.25,3.0834541 1.25,5.375 l 0,37.25 c 0,2.291546 1.8334541,4.125 4.125,4.125 l 37.25,0 c 2.291546,0 4.125,-1.833454 4.125,-4.125 l 0,-37.25 C 46.75,3.0834541 44.916546,1.25 42.625,1.25 l -37.25,0 z m 0.21875,0.25 36.8125,0 C 44.672614,1.5 46.5,3.3273859 46.5,5.59375 l 0,36.8125 C 46.5,44.672614 44.672614,46.5 42.40625,46.5 l -36.8125,0 C 3.3273859,46.5 1.5,44.672614 1.5,42.40625 l 0,-36.8125 C 1.5,3.3273859 3.3273859,1.5 5.59375,1.5 z" transform="translate(0,1004.3622)" opacity="0.1"/>
  <path d="M 5.59375,1.5 C 3.3273859,1.5 1.5,3.3273859 1.5,5.59375 l 0,36.8125 C 1.5,44.672614 3.3273859,46.5 5.59375,46.5 l 36.8125,0 C 44.672614,46.5 46.5,44.672614 46.5,42.40625 l 0,-36.8125 C 46.5,3.3273859 44.672614,1.5 42.40625,1.5 l -36.8125,0 z m 0.09375,0.125 36.625,0 c 2.253773,0 4.0625,1.8087269 4.0625,4.0625 l 0,36.625 c 0,2.253773 -1.808727,4.0625 -4.0625,4.0625 l -36.625,0 c -2.2537731,0 -4.0625,-1.808727 -4.0625,-4.0625 l 0,-36.625 C 1.625,3.4337269 3.4337269,1.625 5.6875,1.625 z" transform="translate(0,1004.3622)" opacity="0.2"/>
  <path d="M 5.6875,1.625 C 3.4337269,1.625 1.625,3.4337269 1.625,5.6875 l 0,36.625 c 0,2.253773 1.8087269,4.0625 4.0625,4.0625 l 36.625,0 c 2.253773,0 4.0625,-1.808727 4.0625,-4.0625 l 0,-36.625 c 0,-2.2537731 -1.808727,-4.0625 -4.0625,-4.0625 l -36.625,0 z m 0.09375,0.125 36.4375,0 c 2.241182,0 4.03125,1.7900679 4.03125,4.03125 l 0,36.4375 c 0,2.241182 -1.790068,4.03125 -4.03125,4.03125 l -36.4375,0 C 3.5400679,46.25 1.75,44.459932 1.75,42.21875 l 0,-36.4375 C 1.75,3.5400679 3.5400679,1.75 5.78125,1.75 z" transform="translate(0,1004.3622)" opacity="0.3"/>
  <path d="M 5.78125,1.75 C 3.5400679,1.75 1.75,3.5400679 1.75,5.78125 l 0,36.4375 c 0,2.241182 1.7900679,4.03125 4.03125,4.03125 l 36.4375,0 c 2.241182,0 4.03125,-1.790068 4.03125,-4.03125 l 0,-36.4375 C 46.25,3.5400679 44.459932,1.75 42.21875,1.75 l -36.4375,0 z m 0.125,0.125 36.1875,0 c 2.228591,0 4.03125,1.802659 4.03125,4.03125 l 0,36.1875 c 0,2.228591 -1.802659,4.03125 -4.03125,4.03125 l -36.1875,0 C 3.677659,46.125 1.875,44.322341 1.875,42.09375 l 0,-36.1875 C 1.875,3.677659 3.677659,1.875 5.90625,1.875 z" transform="translate(0,1004.3622)" opacity="0.4"/>
  <rect rx="4.02" y="1006.24" x="1.875" height="44.25" width="44.25" opacity="0.5"/>
 </g>
 <rect rx="1.129" y="0.564" x="0.564" height="12.418" width="12.418" fill="url(#5)"/>
 <g transform="matrix(1,0,0,1.0000788,1.4107557,0.2817145)" fill="#e4cb32">
  <rect ry="0.001" height="0.564" rx="0.006" y="8.749" x="4.798" width="1.129"/>
  <rect height="0.564" ry="0.001" rx="0.006" y="7.898" x="4.798" width="1.129" opacity="0.9"/>
  <rect ry="0.001" height="0.557" rx="0.006" y="7.06" x="4.798" width="1.129" opacity="0.8"/>
  <rect height="0.553" ry="0.001" rx="0.006" y="6.209" x="4.798" width="1.129" opacity="0.7"/>
  <rect ry="0.001" height="0.55" rx="0.006" y="5.362" x="4.798" width="1.129" opacity="0.6"/>
 </g>
 <rect width="0.564" height="4.892" x="6.491" y="4.139" rx="0.253" fill="#f9f9f9"/>
 <g transform="matrix(1,0,0,1.0000788,1.4107557,0.2817145)" fill="#418df0">
  <rect ry="0.001" height="0.561" rx="0.006" y="8.752" x="7.62" width="1.129"/>
  <rect height="0.557" ry="0.001" rx="0.006" y="7.909" x="7.62" width="1.129" opacity="0.9"/>
  <rect ry="0.001" height="0.554" rx="0.006" y="7.07" x="7.62" width="1.129" opacity="0.8"/>
  <rect height="0.55" ry="0.001" rx="0.006" y="6.223" x="7.62" width="1.129" opacity="0.7"/>
  <rect ry="0.001" height="0.546" rx="0.006" y="5.38" x="7.62" width="1.129" opacity="0.6"/>
  <rect height="0.564" ry="0.001" rx="0.006" y="4.516" x="7.62" width="1.129" opacity="0.5"/>
 </g>
 <rect rx="0.136" y="4.233" x="-6.491" height="5.08" width="0.282" transform="matrix(0,-1,1,0,0,0)" fill="#f9f9f9"/>
 <g transform="matrix(1,0,0,1.0000788,1.4107557,0.2817145)" fill="#db50db">
  <rect id="6" height="0.564" ry="0.001" rx="0.006" y="8.749" x="9.03" width="1.129"/>
  <rect id="7" ry="0.001" height="0.561" rx="0.006" y="7.902" x="9.03" width="1.129" opacity="0.9"/>
  <rect id="8" height="0.557" ry="0.001" rx="0.006" y="7.06" x="9.03" width="1.129" opacity="0.8"/>
  <rect id="9" ry="0.001" height="0.553" rx="0.006" y="6.209" x="9.03" width="1.129" opacity="0.7"/>
  <rect id="A" height="0.55" ry="0.001" rx="0.006" y="5.362" x="9.03" width="1.129" opacity="0.6"/>
 </g>
 <rect rx="0.127" y="4.516" x="9.03" height="1.881" width="0.282" fill="#f9f9f9"/>
 <g transform="matrix(1,0,0,1.0000788,1.4107557,0.2817145)" fill="#80d15e">
  <rect height="0.564" ry="0.001" rx="0.006" y="8.749" x="6.209" width="1.129"/>
  <rect ry="0.001" height="0.561" rx="0.006" y="7.902" x="6.209" width="1.129" opacity="0.9"/>
  <rect height="0.557" ry="0.001" rx="0.006" y="7.06" x="6.209" width="1.129" opacity="0.8"/>
 </g>
 <g transform="matrix(1,0,0,1.0000788,-3.333125e-4,0.4228257)" fill="#c53030">
  <rect ry="0.001" height="0.564" rx="0.006" y="8.608" x="3.387" width="1.129"/>
  <rect height="0.557" ry="0.001" rx="0.006" y="7.768" x="3.387" width="1.129" opacity="0.9"/>
  <rect ry="0.001" height="0.554" rx="0.006" y="6.925" x="3.387" width="1.129" opacity="0.8"/>
  <rect height="0.55" ry="0.001" rx="0.006" y="6.082" x="3.387" width="1.129" opacity="0.7"/>
  <rect ry="0.001" height="0.546" rx="0.006" y="5.239" x="3.387" width="1.129" opacity="0.6"/>
  <rect height="0.564" ry="0.001" rx="0.006" y="4.374" x="3.387" width="1.129" opacity="0.5"/>
  <rect ry="0.001" height="0.564" rx="0.006" y="3.528" x="3.387" width="1.129" opacity="0.4"/>
 </g>
 <rect width="0.282" height="1.881" x="4.233" y="4.516" rx="0.127" fill="#f9f9f9"/>
 <path d="m 6.7118752,3.3877874 c -0.016361,0.00142 -0.029938,0.011228 -0.046095,0.014445 -0.04218,0.0084 -0.083883,0.0077 -0.1229164,0.028895 -0.078017,0.04235 -0.1329023,0.1145552 -0.1690101,0.187802 -0.013859,0.028121 -0.038874,0.055995 -0.046095,0.086678 L 5.7131797,4.687957 C 5.5769883,4.90975 5.6508921,5.1919303 5.8668253,5.3091489 6.0827585,5.4263674 6.3605801,5.3431411 6.4967707,5.1213469 L 6.773333,4.6735106 7.049895,5.1213469 C 7.1860864,5.3431399 7.4639082,5.4263674 7.6798417,5.3091489 7.8957745,5.1919303 7.9696787,4.90975 7.8334869,4.687957 L 7.2189051,3.7056066 C 7.2140923,3.6851485 7.195951,3.6672195 7.1881767,3.6478218 L 7.1728088,3.6189273 C 7.1367032,3.5456804 7.081817,3.4734761 7.0038006,3.4311253 6.9647636,3.4099315 6.9230636,3.4106364 6.8808842,3.4022308 6.843691,3.3948197 6.8111124,3.3858045 6.7733323,3.3877859 c -0.021374,-0.0011 -0.040157,-0.00184 -0.06146,0 z" fill="#f9f9f9"/>
 <g transform="matrix(0.28222223,0,0,0.28224447,0.41981269,0.82868938)">
  <rect width="4" x="15.512" y="29.06" rx="0.021" height="1.998" ry="0.004" fill="#ef8e19"/>
  <rect width="4" x="15.512" y="26.05" rx="0.021" ry="0.004" height="1.998" opacity="0.9" fill="#ef8e19"/>
  <rect width="4" x="15.512" y="23.06" rx="0.021" height="1.974" ry="0.004" opacity="0.8" fill="#ef8e19"/>
  <rect width="4" x="15.512" y="20.06" rx="0.021" ry="0.004" height="1.959" opacity="0.7" fill="#ef8e19"/>
 </g>
 <path d="m 4.3360334,3.9517504 c -0.010224,8.08e-4 -0.018714,0.00642 -0.028808,0.00825 -0.026363,0.0048 -0.052427,0.0044 -0.076823,0.016511 -0.048761,0.024199 -0.083064,0.06546 -0.1056313,0.1073152 -0.00866,0.016069 -0.024297,0.031998 -0.028808,0.04953 L 3.7118485,4.6947053 c -0.08512,0.1267391 -0.038929,0.2879851 0.096029,0.3549672 0.1349579,0.066982 0.308597,0.019424 0.3937163,-0.1073155 L 4.3744448,4.6864502 4.547296,4.942357 c 0.08512,0.1267391 0.2587583,0.1742976 0.3937165,0.1073155 0.1349579,-0.066982 0.181148,-0.2282281 0.096028,-0.3549672 L 4.6529271,4.1333615 c -0.00301,-0.01169 -0.014343,-0.021935 -0.019207,-0.03302 l -0.0096,-0.016511 C 4.6015513,4.041975 4.5672481,4.0007153 4.5184878,3.9765148 c -0.024395,-0.01211 -0.050461,-0.011708 -0.076822,-0.016511 -0.023246,-0.00424 -0.043607,-0.00939 -0.067219,-0.00825 -0.013357,-6.294e-4 -0.025097,-0.00105 -0.038412,0 z" fill="#f9f9f9"/>
 <g transform="matrix(1,0,0,1.0000788,-7.0554448,0.2817145)" fill="#db50db">
  <use height="48" width="48" xlink:href="#6"/>
  <use height="48" width="48" xlink:href="#7"/>
  <use height="48" width="48" xlink:href="#8"/>
  <use height="48" width="48" xlink:href="#9"/>
  <use height="48" width="48" xlink:href="#A"/>
 </g>
 <path d="M 6.72724,9.0303337 C 6.714972,9.0292743 6.704786,9.0223086 6.692671,9.0200146 6.661035,9.0140052 6.629759,9.0145114 6.600484,8.9993773 6.5419708,8.9691265 6.5008067,8.9175506 6.473726,8.8652303 6.4633332,8.845143 6.4445711,8.8252335 6.4391567,8.8033161 L 5.9782182,8.1016245 C 5.8760747,7.9431977 5.9315023,7.7416374 6.0934523,7.657908 6.2554024,7.5741795 6.4637688,7.6336266 6.5659115,7.7920544 L 6.7733339,8.1119433 6.9807553,7.7920544 C 7.0828985,7.6336279 7.2912648,7.574179 7.4532147,7.657908 7.6151643,7.7416374 7.6705921,7.9431977 7.568449,8.1016245 L 7.1075123,8.8033157 c -0.0036,0.014612 -0.017212,0.027418 -0.023047,0.041276 l -0.011523,0.020637 c -0.027081,0.05232 -0.068245,0.1038963 -0.1267574,0.1341468 -0.029278,0.015138 -0.060553,0.014636 -0.092187,0.020637 -0.027893,0.00529 -0.052328,0.01173 -0.080664,0.010319 -0.016028,7.76e-4 -0.030121,0.00127 -0.046095,0 z" fill="#f9f9f9"/>
 <path d="m 0.56444446,4.7977779 0,0.5644445 1.12006924,3e-7 0.0088,0 0,-0.5644444 -0.0088,0 z" opacity="0.5" fill="#418df0"/>
 <path d="m 9.1338113,3.9517504 c -0.010224,8.08e-4 -0.018714,0.00642 -0.028808,0.00825 -0.026363,0.0048 -0.052427,0.0044 -0.076823,0.016511 -0.048761,0.024199 -0.083064,0.06546 -0.1056313,0.1073152 -0.00866,0.016069 -0.024297,0.031998 -0.028808,0.04953 L 8.5096263,4.6947053 c -0.08512,0.1267391 -0.038929,0.2879851 0.096029,0.3549672 0.134958,0.066982 0.3085971,0.019424 0.3937164,-0.1073155 L 9.1722227,4.6864502 9.3450739,4.942357 c 0.08512,0.1267391 0.2587583,0.1742976 0.3937165,0.1073155 0.134958,-0.066982 0.181148,-0.2282281 0.09603,-0.3549672 L 9.450705,4.1333615 c -0.00301,-0.01169 -0.014343,-0.021935 -0.019207,-0.03302 l -0.0096,-0.016511 C 9.3993292,4.041975 9.365026,4.0007153 9.3162657,3.9765148 c -0.024395,-0.01211 -0.050461,-0.011708 -0.076822,-0.016511 -0.023246,-0.00424 -0.043607,-0.00939 -0.067219,-0.00825 -0.013357,-6.294e-4 -0.025097,-0.00105 -0.038412,0 z" fill="#f9f9f9"/>
 <path d="m 0.56444446,5.6444446 0,0.5644444 1.12006924,4e-7 0.0088,0 1.97e-5,-0.5644448 c -0.5644445,0 -0.5644445,0 -1.12888894,0 z" opacity="0.6" fill="#418df0"/>
 <path d="m 0.56444446,6.4911113 0,0.5644444 1.12006924,3e-7 0.0088,0 c 1.97e-5,-0.2822225 1.97e-5,-0.2822225 1.97e-5,-0.5644447 z" opacity="0.7" fill="#418df0"/>
 <path d="m 0.56444446,7.337778 0,0.5644444 1.12006924,3e-7 0.0088,0 1.97e-5,-0.5644447 c -0.5644445,0 -0.5644445,0 -1.12888894,0 z" opacity="0.8" fill="#418df0"/>
 <path d="m 0.56444446,8.1844446 0,0.5644445 1.12006924,3e-7 0.0088,0 1.97e-5,-0.5644448 c -0.4568056,0 -0.5644445,0 -1.12888894,0 z" opacity="0.9" fill="#418df0"/>
 <path d="m 11.853334,3.9511116 0,0.5644444 0.0088,0 1.120089,-3e-7 0,-0.5644445 c -0.395233,0 -0.38799,10e-8 -1.120089,4e-7 z" opacity="0.4" fill="#c53030"/>
 <path d="m 11.853334,4.7977783 0,0.5644444 0.0088,0 1.120089,-3e-7 0,-0.5644445 -1.120089,4e-7 z" opacity="0.5" fill="#c53030"/>
 <path d="m 11.853334,5.6444449 0,0.5644445 0.0088,0 1.120089,-4e-7 0,-0.5644444 -1.120089,3e-7 z" opacity="0.6" fill="#c53030"/>
 <path d="m 11.853334,6.4911116 0,0.5644444 0.0088,0 1.120089,-3e-7 0,-0.5644444 -1.120089,3e-7 z" opacity="0.7" fill="#c53030"/>
 <path d="m 11.853334,7.3377783 0,0.5644444 0.0088,0 1.120089,-3e-7 0,-0.5644444 -1.120089,3e-7 z" opacity="0.8" fill="#c53030"/>
 <path d="m 11.853334,8.184445 0,0.5644444 0.0088,0 1.120089,-3e-7 0,-0.5644445 -1.120089,4e-7 z" opacity="0.9" fill="#c53030"/>
 <path d="m 11.853334,9.0311116 0,0.5644442 0.0088,0 1.120089,0 0,-0.5644445 -1.120089,3e-7 z" opacity="0.9" fill="#c53030"/>
 <path d="m 0.56444446,9.0311113 0,0.5644445 1.12006924,0 0.0088,0 1.97e-5,-0.5644445 c -0.5644445,0 -0.74378011,0 -1.12888894,0 z" opacity="0.9" fill="#418df0"/>
</svg>
