<svg viewBox="0 0 48 48"><defs><linearGradient id="linearGradient3764" x1="1" x2="47" gradientUnits="userSpaceOnUse" gradientTransform="translate(-48.000001,0.00221467)"><stop stop-color="#3fc58b" stop-opacity="1"/><stop offset="1" stop-color="#4eca95" stop-opacity="1"/></linearGradient><clipPath id="clipPath-901009372"><g transform="translate(0,-1004.3622)"><rect rx="4" y="1005.36" x="1" height="46" width="46" fill="#1890d0"/></g></clipPath><clipPath id="clipPath-929315776"><g transform="translate(0,-1004.3622)"><rect rx="4" y="1005.36" x="1" height="46" width="46" fill="#1890d0"/></g></clipPath></defs><g><path d="m 1 43 l 0 0.25 c 0 2.216 1.784 4 4 4 l 38 0 c 2.216 0 4 -1.784 4 -4 l 0 -0.25 c 0 2.216 -1.784 4 -4 4 l -38 0 c -2.216 0 -4 -1.784 -4 -4 z m 0 0.5 l 0 0.5 c 0 2.216 1.784 4 4 4 l 38 0 c 2.216 0 4 -1.784 4 -4 l 0 -0.5 c 0 2.216 -1.784 4 -4 4 l -38 0 c -2.216 0 -4 -1.784 -4 -4 z" opacity="0.02"/><path d="m 1 43.25 l 0 0.25 c 0 2.216 1.784 4 4 4 l 38 0 c 2.216 0 4 -1.784 4 -4 l 0 -0.25 c 0 2.216 -1.784 4 -4 4 l -38 0 c -2.216 0 -4 -1.784 -4 -4 z" opacity="0.05"/><path d="m 1 43 l 0 0.25 c 0 2.216 1.784 4 4 4 l 38 0 c 2.216 0 4 -1.784 4 -4 l 0 -0.25 c 0 2.216 -1.784 4 -4 4 l -38 0 c -2.216 0 -4 -1.784 -4 -4 z" opacity="0.1"/></g><g><rect width="46" height="46" x="-47" y="1" rx="4" transform="matrix(0,-1,1,0,0,0)" fill="url(#linearGradient3764)" fill-opacity="1"/></g><g/><g><g clip-path="url(#clipPath-901009372)"><g opacity="0.1"><!-- color: #4eca95 --><g><path d="m 24 12 l 0 10 l -8 0 l 0 -3 c 0 -3 4 -7 8 -7" stroke="none" fill-rule="nonzero" fill-opacity="1" fill="#000"/><path d="m 16 23 l 0 6 c 0 4 3 7 8 7 c 5 0 8 -3 8 -7 l 0 -6 m -16 0" stroke="none" fill-rule="nonzero" fill-opacity="1" fill="#000"/><path d="m 16 22 l 16 0 l 0 1 l -16 0 m 0 -1" stroke="none" fill-rule="nonzero" fill-opacity="1" fill="#000"/><path d="m 24 12 l 0 10 l 8 0 l 0 -3 c 0 -3 -4 -7 -8 -7 m 0 0" stroke="none" fill-rule="nonzero" fill-opacity="1" fill="#000"/><path d="m 24 19 c 0.551 0 1 0.672 1 1.5 l 0 4 c 0 0.828 -0.449 1.5 -1 1.5 c -0.551 0 -1 -0.672 -1 -1.5 l 0 -4 c 0 -0.828 0.449 -1.5 1 -1.5 m 0 0" stroke="none" fill-rule="nonzero" fill-opacity="1" fill="#000"/></g></g></g></g><g><g clip-path="url(#clipPath-929315776)"><g transform="translate(0,-1)"><!-- color: #4eca95 --><g><path d="m 24 12 l 0 10 l -8 0 l 0 -3 c 0 -3 4 -7 8 -7" fill="#eede4a" stroke="none" fill-rule="nonzero" fill-opacity="1"/><path d="m 16 23 l 0 6 c 0 4 3 7 8 7 c 5 0 8 -3 8 -7 l 0 -6 m -16 0" fill="#eaeced" stroke="none" fill-rule="nonzero" fill-opacity="1"/><path d="m 16 22 l 16 0 l 0 1 l -16 0 m 0 -1" fill="#9cbbc9" stroke="none" fill-rule="nonzero" fill-opacity="1"/><path d="m 24 12 l 0 10 l 8 0 l 0 -3 c 0 -3 -4 -7 -8 -7 m 0 0" fill="#eec74a" stroke="none" fill-rule="nonzero" fill-opacity="1"/><path d="m 24 19 c 0.551 0 1 0.672 1 1.5 l 0 4 c 0 0.828 -0.449 1.5 -1 1.5 c -0.551 0 -1 -0.672 -1 -1.5 l 0 -4 c 0 -0.828 0.449 -1.5 1 -1.5 m 0 0" fill="#315d78" stroke="none" fill-rule="nonzero" fill-opacity="1"/></g></g></g></g><g><g transform="translate(0,-1004.3622)"><path d="m 1 1043.36 0 4 c 0 2.216 1.784 4 4 4 l 38 0 c 2.216 0 4 -1.784 4 -4 l 0 -4 c 0 2.216 -1.784 4 -4 4 l -38 0 c -2.216 0 -4 -1.784 -4 -4 z" opacity="0.1"/></g></g></svg>