<svg viewBox="0 0 48 48"><defs><linearGradient id="linearGradient3764" x1="1" x2="47" gradientUnits="userSpaceOnUse" gradientTransform="translate(-47.997785,0.00221467)"><stop stop-color="#984799" stop-opacity="1"/><stop offset="1" stop-color="#a74ea7" stop-opacity="1"/></linearGradient><clipPath id="clipPath-029892907"><g transform="translate(0,-1004.3622)"><rect rx="4" y="1005.36" x="1" height="46" width="46" fill="#1890d0"/></g></clipPath><clipPath id="clipPath-048353007"><g transform="translate(0,-1004.3622)"><rect rx="4" y="1005.36" x="1" height="46" width="46" fill="#1890d0"/></g></clipPath></defs><g><g transform="translate(0,-1004.3622)"><path d="m 5 1006.36 c -2.216 0 -4 1.784 -4 4 l 0 37.25 c 0 2.216 1.784 4 4 4 l 38 0 c 2.216 0 4 -1.784 4 -4 l 0 -37.25 c 0 -2.216 -1.784 -4 -4 -4 l -38 0 z m -4 41.5 0 0.5 c 0 2.216 1.784 4 4 4 l 38 0 c 2.216 0 4 -1.784 4 -4 l 0 -0.5 c 0 2.216 -1.784 4 -4 4 l -38 0 c -2.216 0 -4 -1.784 -4 -4 z" opacity="0.02"/><path d="m 1 1047.61 0 0.25 c 0 2.216 1.784 4 4 4 l 38 0 c 2.216 0 4 -1.784 4 -4 l 0 -0.25 c 0 2.216 -1.784 4 -4 4 l -38 0 c -2.216 0 -4 -1.784 -4 -4 z" opacity="0.05"/><rect width="46" height="46" x="1" y="1005.61" rx="4" opacity="0.1"/></g></g><g><rect width="46" height="46" x="-46.998" y="1" rx="4" transform="matrix(0,-1,1,0,0,0)" fill="url(#linearGradient3764)" fill-opacity="1"/></g><g/><g><g clip-path="url(#clipPath-029892907)"><g opacity="0.1"><!-- color: #a74ea7 --><g><path d="m 11.891 14 c -0.484 0 -0.891 0.395 -0.891 0.875 c 0 6.207 0 12.695 0 18.281 c 0 0.477 0.406 0.844 0.891 0.844 l 24.22 0 c 0.484 0 0.898 -0.367 0.898 -0.844 c 0 -6.223 0 -12.688 0 -18.281 c 0 -0.48 -0.406 -0.875 -0.898 -0.875 m -24.22 0" fill="#000" stroke="none" fill-rule="nonzero" fill-opacity="0.392"/><path d="m 11.891 14 c -0.484 0 -0.891 0.395 -0.891 0.875 c 0 6.207 0 12.695 0 18.281 c 0 0.477 0.406 0.844 0.891 0.844 l 24.22 0 c 0.484 0 0.898 -0.367 0.898 -0.844 c 0 -6.199 0 -12.637 0 -18.281 c 0 -0.48 -0.406 -0.875 -0.898 -0.875 m -23.11 1 l 2 0 l 0 2 l -2 0 m 4 -2 l 2 0 l 0 2 l -2 0 m 4 -2 l 2 0 l 0 2 l -2 0 m 4 -2 l 2 0 l 0 2 l -2 0 m 4 -2 l 1.996 0 l 0 2 l -1.996 0 m 4 -2 l 2 0 l 0 2 l -2 0 m -20 1 l 22 0 l 0 12 l -22 0 m 0 1 l 1.996 0 l 0 2 l -1.996 0 m 4 -2 l 2 0 l 0 2 l -2 0 m 4 -2 l 2 0 l 0 2 l -2 0 m 4 -2 l 2 0 l 0 2 l -2 0 m 4 -2 l 2 0 l 0 2 l -2 0 m 4 -2 l 2 0 l 0 2 l -2 0 m 0 -2" fill="#000" stroke="none" fill-rule="nonzero" fill-opacity="1"/><path d="m 28.488 24 c 0 2.484 -2.02 4.5 -4.5 4.5 c -2.484 0 -4.5 -2.02 -4.5 -4.5 c 0 -2.488 2.02 -4.5 4.5 -4.5 c 2.484 0 4.5 2.01 4.5 4.5 m 0 0" fill="#000" stroke="none" fill-rule="nonzero" fill-opacity="0.392"/><path d="m 26 24 c 0 1.102 -0.895 2 -2 2 c -1.105 0 -2 -0.898 -2 -2 c 0 -1.105 0.895 -2 2 -2 c 1.105 0 2 0.895 2 2 m 0 0" fill="#000" stroke="none" fill-rule="nonzero" fill-opacity="1"/></g></g></g></g><g><g clip-path="url(#clipPath-048353007)"><g transform="translate(0,-1)"><!-- color: #a74ea7 --><g><path d="m 11.891 14 c -0.484 0 -0.891 0.395 -0.891 0.875 c 0 6.207 0 12.695 0 18.281 c 0 0.477 0.406 0.844 0.891 0.844 l 24.22 0 c 0.484 0 0.898 -0.367 0.898 -0.844 c 0 -6.223 0 -12.688 0 -18.281 c 0 -0.48 -0.406 -0.875 -0.898 -0.875 m -24.22 0" fill="#f9f9f9" stroke="none" fill-rule="nonzero" fill-opacity="0.392"/><path d="m 11.891 14 c -0.484 0 -0.891 0.395 -0.891 0.875 c 0 6.207 0 12.695 0 18.281 c 0 0.477 0.406 0.844 0.891 0.844 l 24.22 0 c 0.484 0 0.898 -0.367 0.898 -0.844 c 0 -6.199 0 -12.637 0 -18.281 c 0 -0.48 -0.406 -0.875 -0.898 -0.875 m -23.11 1 l 2 0 l 0 2 l -2 0 m 4 -2 l 2 0 l 0 2 l -2 0 m 4 -2 l 2 0 l 0 2 l -2 0 m 4 -2 l 2 0 l 0 2 l -2 0 m 4 -2 l 1.996 0 l 0 2 l -1.996 0 m 4 -2 l 2 0 l 0 2 l -2 0 m -20 1 l 22 0 l 0 12 l -22 0 m 0 1 l 1.996 0 l 0 2 l -1.996 0 m 4 -2 l 2 0 l 0 2 l -2 0 m 4 -2 l 2 0 l 0 2 l -2 0 m 4 -2 l 2 0 l 0 2 l -2 0 m 4 -2 l 2 0 l 0 2 l -2 0 m 4 -2 l 2 0 l 0 2 l -2 0 m 0 -2" fill="#f9f9f9" stroke="none" fill-rule="nonzero" fill-opacity="1"/><path d="m 28.488 24 c 0 2.484 -2.02 4.5 -4.5 4.5 c -2.484 0 -4.5 -2.02 -4.5 -4.5 c 0 -2.488 2.02 -4.5 4.5 -4.5 c 2.484 0 4.5 2.01 4.5 4.5 m 0 0" fill="#f9f9f9" stroke="none" fill-rule="nonzero" fill-opacity="0.392"/><path d="m 26 24 c 0 1.102 -0.895 2 -2 2 c -1.105 0 -2 -0.898 -2 -2 c 0 -1.105 0.895 -2 2 -2 c 1.105 0 2 0.895 2 2 m 0 0" fill="#f9f9f9" stroke="none" fill-rule="nonzero" fill-opacity="1"/></g></g></g></g><g><g transform="translate(0,-1004.3622)"><path d="m 1 1043.36 0 4 c 0 2.216 1.784 4 4 4 l 38 0 c 2.216 0 4 -1.784 4 -4 l 0 -4 c 0 2.216 -1.784 4 -4 4 l -38 0 c -2.216 0 -4 -1.784 -4 -4 z" opacity="0.1"/></g></g></svg>