<svg viewBox="0 0 48 48"><defs><linearGradient id="linearGradient3764" x1="1" x2="47" gradientUnits="userSpaceOnUse" gradientTransform="translate(-47.997785,0.00221467)"><stop stop-color="#7bd359" stop-opacity="1"/><stop offset="1" stop-color="#87d768" stop-opacity="1"/></linearGradient><clipPath id="clipPath-154072003"><g transform="translate(0,-1004.3622)"><rect rx="4" y="1005.36" x="1" height="46" width="46" fill="#1890d0"/></g></clipPath><clipPath id="clipPath-169539429"><g transform="translate(0,-1004.3622)"><rect rx="4" y="1005.36" x="1" height="46" width="46" fill="#1890d0"/></g></clipPath></defs><g><g transform="translate(0,-1004.3622)"><path d="m 5 1006.36 c -2.216 0 -4 1.784 -4 4 l 0 37.25 c 0 2.216 1.784 4 4 4 l 38 0 c 2.216 0 4 -1.784 4 -4 l 0 -37.25 c 0 -2.216 -1.784 -4 -4 -4 l -38 0 z m -4 41.5 0 0.5 c 0 2.216 1.784 4 4 4 l 38 0 c 2.216 0 4 -1.784 4 -4 l 0 -0.5 c 0 2.216 -1.784 4 -4 4 l -38 0 c -2.216 0 -4 -1.784 -4 -4 z" opacity="0.02"/><path d="m 1 1047.61 0 0.25 c 0 2.216 1.784 4 4 4 l 38 0 c 2.216 0 4 -1.784 4 -4 l 0 -0.25 c 0 2.216 -1.784 4 -4 4 l -38 0 c -2.216 0 -4 -1.784 -4 -4 z" opacity="0.05"/><rect width="46" height="46" x="1" y="1005.61" rx="4" opacity="0.1"/></g></g><g><rect width="46" height="46" x="-46.998" y="1" rx="4" transform="matrix(0,-1,1,0,0,0)" fill="url(#linearGradient3764)" fill-opacity="1"/></g><g/><g><g clip-path="url(#clipPath-154072003)"><g opacity="0.1"><!-- color: #87d768 --><g><path d="m 36 13.977 c 0 0 -2 3.01 -5 3.01 c -2.797 -0.539 -3.906 -0.082 -4 0 l 0 12.11 c -0.133 2.551 -2.223 5.109 -5.336 6.285 c -3.949 1.492 -8.125 0.195 -9.332 -2.91 c -1.211 -3.098 1 -6.855 4.953 -8.348 c 3.059 -1.152 5.867 -0.867 7.715 0.867 l 0 -12.01 c 4 -2.664 7.719 0.957 11 1 m 0 -0.004" fill="#000" stroke="none" fill-rule="nonzero" fill-opacity="1"/></g></g></g></g><g><g clip-path="url(#clipPath-169539429)"><g transform="translate(0,-1)"><!-- color: #87d768 --><g><path d="m 36 13.977 c 0 0 -2 3.01 -5 3.01 c -2.797 -0.539 -3.906 -0.082 -4 0 l 0 12.11 c -0.133 2.551 -2.223 5.109 -5.336 6.285 c -3.949 1.492 -8.125 0.195 -9.332 -2.91 c -1.211 -3.098 1 -6.855 4.953 -8.348 c 3.059 -1.152 5.867 -0.867 7.715 0.867 l 0 -12.01 c 4 -2.664 7.719 0.957 11 1 m 0 -0.004" fill="#f9f9f9" stroke="none" fill-rule="nonzero" fill-opacity="1"/></g></g></g></g><g><g transform="translate(0,-1004.3622)"><path d="m 1 1043.36 0 4 c 0 2.216 1.784 4 4 4 l 38 0 c 2.216 0 4 -1.784 4 -4 l 0 -4 c 0 2.216 -1.784 4 -4 4 l -38 0 c -2.216 0 -4 -1.784 -4 -4 z" opacity="0.1"/></g></g></svg>