<?xml version="1.0" encoding="UTF-8" standalone="no"?>
<svg
   xmlns:dc="http://purl.org/dc/elements/1.1/"
   xmlns:cc="http://creativecommons.org/ns#"
   xmlns:rdf="http://www.w3.org/1999/02/22-rdf-syntax-ns#"
   xmlns:svg="http://www.w3.org/2000/svg"
   xmlns="http://www.w3.org/2000/svg"
   xmlns:xlink="http://www.w3.org/1999/xlink"
   xmlns:sodipodi="http://sodipodi.sourceforge.net/DTD/sodipodi-0.dtd"
   xmlns:inkscape="http://www.inkscape.org/namespaces/inkscape"
   width="48"
   viewBox="0 0 13.546667 13.546667"
   height="48"
   id="svg2"
   version="1.1"
   inkscape:version="0.48.4 r9939"
   sodipodi:docname="juk.svg">
  <metadata
     id="metadata94">
    <rdf:RDF>
      <cc:Work
         rdf:about="">
        <dc:format>image/svg+xml</dc:format>
        <dc:type
           rdf:resource="http://purl.org/dc/dcmitype/StillImage" />
      </cc:Work>
    </rdf:RDF>
  </metadata>
  <sodipodi:namedview
     pagecolor="#ffffff"
     bordercolor="#666666"
     borderopacity="1"
     objecttolerance="10"
     gridtolerance="10"
     guidetolerance="10"
     inkscape:pageopacity="0"
     inkscape:pageshadow="2"
     inkscape:window-width="692"
     inkscape:window-height="480"
     id="namedview92"
     showgrid="false"
     inkscape:zoom="4.9166667"
     inkscape:cx="57.966102"
     inkscape:cy="22.372881"
     inkscape:window-x="0"
     inkscape:window-y="0"
     inkscape:window-maximized="0"
     inkscape:current-layer="svg2" />
  <defs
     id="defs4">
    <clipPath
       id="clipPath6">
      <path
         d="m 207,155.25 a 63.25,63.25 0 1 1 -126.5,0 A 63.25,63.25 0 1 1 207,155.25 Z"
         transform="matrix(.69565 0 0 .69565 44.00002 32.00003)"
         id="path8" />
    </clipPath>
    <clipPath
       id="clipPath10">
      <g
         enable-background="new"
         id="g12">
        <path
           d="m 144,-116.99998 c -25.92184,0 -46.99999,21.078141 -46.99999,46.999986 0,25.921845 21.07815,46.99999 46.99999,46.99999 25.92184,0 46.99999,-21.078145 46.99999,-46.99999 0,-25.921845 -21.07815,-46.999986 -46.99999,-46.999986 z m 0,6 c 22.6792,0 40.99999,18.320784 40.99999,40.999986 0,22.679202 -18.32079,40.999991 -40.99999,40.999991 -22.6792,0 -40.99999,-18.320789 -40.99999,-40.999991 0,-22.679202 18.32079,-40.999986 40.99999,-40.999986 z"
           fill="#2e3436"
           color="#000"
           id="path14" />
        <path
           d="m 144,-116.99998 c -25.92184,0 -46.99999,21.078141 -46.99999,46.999986 0,25.921845 21.07815,46.99999 46.99999,46.99999 25.92184,0 46.99999,-21.078145 46.99999,-46.99999 0,-25.921845 -21.07815,-46.999986 -46.99999,-46.999986 z m 0,6 c 22.6792,0 40.99999,18.320784 40.99999,40.999986 0,22.679202 -18.32079,40.999991 -40.99999,40.999991 -22.6792,0 -40.99999,-18.320789 -40.99999,-40.999991 0,-22.679202 18.32079,-40.999986 40.99999,-40.999986 z"
           fill="none"
           stroke="#000"
           color="#000"
           id="path16" />
      </g>
    </clipPath>
    <clipPath
       id="clipPath18">
      <path
         d="m 207,155.25 a 63.25,63.25 0 1 1 -126.5,0 63.25,63.25 0 1 1 126.5,0 z"
         transform="matrix(.69565 0 0 .69565 44.00002 32.00003)"
         id="path20" />
    </clipPath>
    <linearGradient
       id="0">
      <stop
         stop-color="#6c3c3c"
         id="stop23" />
      <stop
         offset="1"
         stop-color="#9a5757"
         id="stop25" />
    </linearGradient>
    <clipPath
       id="clipPath27">
      <rect
         y="223"
         x="307"
         height="42"
         width="42"
         transform="matrix(0,1,-1,0,0,0)"
         fill="url(#1)"
         color="#bebebe"
         rx="9"
         id="rect29" />
    </clipPath>
    <linearGradient
       xlink:href="#0"
       id="1"
       gradientUnits="userSpaceOnUse"
       gradientTransform="matrix(0.175,0,0,0.175,302.79999,215.99997)"
       y1="280"
       x2="0"
       y2="40" />
    <clipPath
       id="clipPath32">
      <rect
         y="85"
         x="433"
         height="22"
         width="22"
         fill="url(#2)"
         color="#bebebe"
         rx="4"
         id="rect34" />
    </clipPath>
    <linearGradient
       xlink:href="#0"
       id="2"
       gradientUnits="userSpaceOnUse"
       gradientTransform="matrix(0.0875,0,0,0.0875,430.9,81.499996)"
       y1="291.43"
       x2="0"
       y2="40" />
    <clipPath
       id="clipPath37">
      <rect
         width="30"
         height="30"
         x="433"
         y="37"
         fill="url(#3)"
         color="#bebebe"
         rx="6"
         id="rect39" />
    </clipPath>
    <linearGradient
       xlink:href="#0"
       id="3"
       gradientUnits="userSpaceOnUse"
       gradientTransform="matrix(0.11931818,0,0,0.11931818,430.13636,32.227267)"
       y1="291.43"
       x2="0"
       y2="40" />
    <clipPath
       id="clipPath42">
      <rect
         width="16"
         height="16"
         x="304"
         y="212"
         transform="matrix(0,1,-1,0,0,0)"
         fill="url(#4)"
         color="#bebebe"
         rx="3"
         id="rect44" />
    </clipPath>
    <linearGradient
       xlink:href="#0"
       id="4"
       gradientUnits="userSpaceOnUse"
       gradientTransform="matrix(0.06666667,0,0,0.06666667,302.4,209.33333)"
       y1="280"
       x2="0"
       y2="40" />
    <clipPath
       id="clipPath47">
      <rect
         y="46"
         x="34"
         height="220"
         width="220"
         fill="url(#5)"
         color="#bebebe"
         rx="50"
         id="rect49" />
    </clipPath>
    <linearGradient
       xlink:href="#0"
       id="5"
       gradientUnits="userSpaceOnUse"
       gradientTransform="translate(0,-4)"
       y1="280"
       x2="0"
       y2="40" />
    <clipPath
       id="clipPath52">
      <rect
         y="142"
         x="290"
         height="60"
         width="60"
         fill="url(#6)"
         color="#bebebe"
         rx="12.5"
         id="rect54" />
    </clipPath>
    <linearGradient
       xlink:href="#0"
       id="6"
       gradientUnits="userSpaceOnUse"
       y1="204"
       x2="0"
       y2="140" />
    <clipPath
       id="clipPath57">
      <rect
         width="88"
         height="88"
         x="292"
         y="32"
         fill="url(#7)"
         color="#bebebe"
         rx="18"
         id="rect59" />
    </clipPath>
    <linearGradient
       xlink:href="#0"
       id="7"
       gradientUnits="userSpaceOnUse"
       y1="124"
       x2="0"
       y2="28" />
    <clipPath
       id="clipPath62">
      <rect
         y="101"
         x="417"
         height="22"
         width="22"
         fill="url(#8)"
         color="#bebebe"
         rx="5"
         id="rect64" />
    </clipPath>
    <linearGradient
       xlink:href="#0"
       id="8"
       gradientUnits="userSpaceOnUse"
       gradientTransform="matrix(0.0875,0,0,0.0875,414.9,97.5)"
       y1="302.86"
       x2="0"
       y2="28.571" />
    <clipPath
       id="clipPath67">
      <rect
         width="30"
         height="30"
         x="417"
         y="53"
         fill="url(#9)"
         color="#bebebe"
         rx="7"
         id="rect69" />
    </clipPath>
    <linearGradient
       xlink:href="#0"
       id="9"
       gradientUnits="userSpaceOnUse"
       gradientTransform="matrix(0.11931818,0,0,0.11931818,414.13636,48.22727)"
       y1="299.81"
       x2="0"
       y2="31.619" />
    <clipPath
       id="clipPath72">
      <path
         d="m 354.86109,118 c -1.8996,-12.45313 -13.15124,-10.92696 -20.45752,-20.554999 -4.49745,-5.081917 -6.90039,-18.152021 2.43544,-27.37416 -1.1041,9.579323 0.17861,13.6059 5.45531,17.924775 -2.35422,-4.952062 -3.08439,-11.995623 -0.82801,-16.853182 2.76375,-5.949983 10.39112,-12.87528 10.52102,-19.142434 4.36202,2.178866 7.92821,8.352919 5.94243,14.368984 -3.85543,11.680556 0.10189,12.135543 1.94832,13.248716 -0.37991,-7.072519 1.0237,-8.206151 2.38673,-10.423628 1.02898,7.51113 12.13245,12.469545 11.25168,21.870132 -0.54446,5.811093 -5.52033,11.186756 -9.69301,14.563846 0.37909,-7.615119 0.0767,-8.633953 -7.11146,-14.612521 -2.75975,-2.295398 -3.9291,-3.912975 -5.30916,-6.867919 -0.85908,2.610094 -2.43714,6.487429 3.26799,14.45466 5.21391,7.28145 0.61392,16.7798 0.19057,19.39773 z"
         id="path74" />
    </clipPath>
    <clipPath
       id="clipPath76">
      <path
         d="M -670.14006,51.863192 L -114.61564,405.00326 L -257.11075,510.32573 L -514.2215,-71.013029 L -670.14006,51.863192 z"
         id="path78" />
    </clipPath>
    <linearGradient
       id="A">
      <stop
         stop-color="#70c570"
         id="stop81" />
      <stop
         offset="1"
         stop-color="#91de64"
         id="stop83" />
    </linearGradient>
    <linearGradient
       y2="268.33"
       x2="0"
       y1="279.1"
       gradientTransform="matrix(1.10525,0,0,1.10525,-134.27905,-295.7621)"
       gradientUnits="userSpaceOnUse"
       id="B"
       xlink:href="#A" />
    <linearGradient
       xlink:href="#A"
       id="5-3"
       gradientUnits="userSpaceOnUse"
       gradientTransform="matrix(0.28222223,0,0,0.28222223,5.6916667e-7,-283.45334)"
       y1="1050.36"
       x2="0"
       y2="1006.36" />
    <linearGradient
       id="0-6"
       gradientUnits="userSpaceOnUse"
       x2="0"
       gradientTransform="matrix(1.10525,0,0,1.10525,-134.27874,-295.76183)"
       y1="279.10001"
       y2="268.32999">
      <stop
         stop-color="#cecece"
         id="stop7" />
      <stop
         stop-color="#e9e9e9"
         offset="1"
         id="stop9" />
    </linearGradient>
  </defs>
  <g
     transform="matrix(0.28222223,0,0,0.28222223,0,-283.45334)"
     id="g86">
    <path
       style="opacity:0.05"
       inkscape:connector-curvature="0"
       d="M 5.1875,1 C 2.8707723,1 1,2.8707723 1,5.1875 l 0,37.625 C 1,45.129228 2.8707723,47 5.1875,47 l 37.625,0 C 45.129228,47 47,45.129228 47,42.8125 L 47,5.1875 C 47,2.8707723 45.129228,1 42.8125,1 L 5.1875,1 z m 0.1875,0.25 37.25,0 c 2.291546,0 4.125,1.8334541 4.125,4.125 l 0,37.25 c 0,2.291546 -1.833454,4.125 -4.125,4.125 l -37.25,0 C 3.0834541,46.75 1.25,44.916546 1.25,42.625 l 0,-37.25 C 1.25,3.0834541 3.0834541,1.25 5.375,1.25 z"
       transform="translate(0,1004.3622)"
       id="path88" />
    <path
       style="opacity:0.1"
       inkscape:connector-curvature="0"
       d="M 5.375,1.25 C 3.0834541,1.25 1.25,3.0834541 1.25,5.375 l 0,37.25 c 0,2.291546 1.8334541,4.125 4.125,4.125 l 37.25,0 c 2.291546,0 4.125,-1.833454 4.125,-4.125 l 0,-37.25 C 46.75,3.0834541 44.916546,1.25 42.625,1.25 l -37.25,0 z m 0.21875,0.25 36.8125,0 C 44.672614,1.5 46.5,3.3273859 46.5,5.59375 l 0,36.8125 C 46.5,44.672614 44.672614,46.5 42.40625,46.5 l -36.8125,0 C 3.3273859,46.5 1.5,44.672614 1.5,42.40625 l 0,-36.8125 C 1.5,3.3273859 3.3273859,1.5 5.59375,1.5 z"
       transform="translate(0,1004.3622)"
       id="path90-4" />
    <path
       style="opacity:0.2"
       inkscape:connector-curvature="0"
       d="M 5.59375,1.5 C 3.3273859,1.5 1.5,3.3273859 1.5,5.59375 l 0,36.8125 C 1.5,44.672614 3.3273859,46.5 5.59375,46.5 l 36.8125,0 C 44.672614,46.5 46.5,44.672614 46.5,42.40625 l 0,-36.8125 C 46.5,3.3273859 44.672614,1.5 42.40625,1.5 l -36.8125,0 z m 0.09375,0.125 36.625,0 c 2.253773,0 4.0625,1.8087269 4.0625,4.0625 l 0,36.625 c 0,2.253773 -1.808727,4.0625 -4.0625,4.0625 l -36.625,0 c -2.2537731,0 -4.0625,-1.808727 -4.0625,-4.0625 l 0,-36.625 C 1.625,3.4337269 3.4337269,1.625 5.6875,1.625 z"
       transform="translate(0,1004.3622)"
       id="path92" />
    <path
       style="opacity:0.3"
       inkscape:connector-curvature="0"
       d="M 5.6875,1.625 C 3.4337269,1.625 1.625,3.4337269 1.625,5.6875 l 0,36.625 c 0,2.253773 1.8087269,4.0625 4.0625,4.0625 l 36.625,0 c 2.253773,0 4.0625,-1.808727 4.0625,-4.0625 l 0,-36.625 c 0,-2.2537731 -1.808727,-4.0625 -4.0625,-4.0625 l -36.625,0 z m 0.09375,0.125 36.4375,0 c 2.241182,0 4.03125,1.7900679 4.03125,4.03125 l 0,36.4375 c 0,2.241182 -1.790068,4.03125 -4.03125,4.03125 l -36.4375,0 C 3.5400679,46.25 1.75,44.459932 1.75,42.21875 l 0,-36.4375 C 1.75,3.5400679 3.5400679,1.75 5.78125,1.75 z"
       transform="translate(0,1004.3622)"
       id="path94" />
    <path
       style="opacity:0.4"
       inkscape:connector-curvature="0"
       d="M 5.78125,1.75 C 3.5400679,1.75 1.75,3.5400679 1.75,5.78125 l 0,36.4375 c 0,2.241182 1.7900679,4.03125 4.03125,4.03125 l 36.4375,0 c 2.241182,0 4.03125,-1.790068 4.03125,-4.03125 l 0,-36.4375 C 46.25,3.5400679 44.459932,1.75 42.21875,1.75 l -36.4375,0 z m 0.125,0.125 36.1875,0 c 2.228591,0 4.03125,1.802659 4.03125,4.03125 l 0,36.1875 c 0,2.228591 -1.802659,4.03125 -4.03125,4.03125 l -36.1875,0 C 3.677659,46.125 1.875,44.322341 1.875,42.09375 l 0,-36.1875 C 1.875,3.677659 3.677659,1.875 5.90625,1.875 z"
       transform="translate(0,1004.3622)"
       id="path96" />
    <rect
       style="opacity:0.5"
       rx="4.02"
       y="1006.24"
       x="1.875"
       height="44.25"
       width="44.25"
       id="rect98" />
  </g>
  <rect
     style="fill:url(#5-3);fill-opacity:1.0"
     rx="1.1289999"
     y="0.56399524"
     x="0.56399995"
     height="12.418"
     width="12.418"
     id="rect100" />
  <path
     d="m 10.159974,3.9447573 c 0,0 -0.5644441,0.8475528 -1.4111111,0.8475528 -0.789001,-0.1522266 -1.10233,-0.022684 -1.128862,0 l 0,3.4192387 C 7.5826209,8.9317532 6.9932089,9.6534151 6.1143129,9.9853399 4.9993459,10.406494 3.8210149,10.040138 3.479896,9.1646275 3.138777,8.289249 3.7627789,7.229599 4.8777499,6.808427 c 0.863029,-0.3258984 1.655911,-0.2451553 2.17778,0.2440217 l 0,-3.3902087 c 1.128889,-0.7515027 2.178319,0.2709733 3.1044441,0.2825173 z"
     fill="#f9f9f9"
     color="#000000"
     id="path90" />
</svg>
