<svg xmlns="http://www.w3.org/2000/svg" xmlns:xlink="http://www.w3.org/1999/xlink" width="48" viewBox="0 0 13.546667 13.546667" height="48">
 <defs>
  <clipPath>
   <path d="M -670.14006,51.863192 L -114.61564,405.00326 L -257.11075,510.32573 L -514.2215,-71.013029 L -670.14006,51.863192 z"/>
  </clipPath>
  <linearGradient id="0">
   <stop stop-color="#c8c8c8"/>
   <stop offset="1" stop-color="#e8e8e8"/>
  </linearGradient>
  <linearGradient gradientTransform="matrix(0.28222223,0,0,0.28222223,0,-283.45334)" xlink:href="#0" id="1" y1="1050.36" x2="0" y2="1006.36" gradientUnits="userSpaceOnUse"/>
 </defs>
 <g transform="matrix(0.28222223,0,0,0.28222223,0,-283.45334)">
  <path transform="translate(0,1004.3622)" d="M 5.1875,1 C 2.8707723,1 1,2.8707723 1,5.1875 l 0,37.625 C 1,45.129228 2.8707723,47 5.1875,47 l 37.625,0 C 45.129228,47 47,45.129228 47,42.8125 L 47,5.1875 C 47,2.8707723 45.129228,1 42.8125,1 L 5.1875,1 z m 0.1875,0.25 37.25,0 c 2.291546,0 4.125,1.8334541 4.125,4.125 l 0,37.25 c 0,2.291546 -1.833454,4.125 -4.125,4.125 l -37.25,0 C 3.0834541,46.75 1.25,44.916546 1.25,42.625 l 0,-37.25 C 1.25,3.0834541 3.0834541,1.25 5.375,1.25 z" opacity="0.05"/>
  <path transform="translate(0,1004.3622)" d="M 5.375,1.25 C 3.0834541,1.25 1.25,3.0834541 1.25,5.375 l 0,37.25 c 0,2.291546 1.8334541,4.125 4.125,4.125 l 37.25,0 c 2.291546,0 4.125,-1.833454 4.125,-4.125 l 0,-37.25 C 46.75,3.0834541 44.916546,1.25 42.625,1.25 l -37.25,0 z m 0.21875,0.25 36.8125,0 C 44.672614,1.5 46.5,3.3273859 46.5,5.59375 l 0,36.8125 C 46.5,44.672614 44.672614,46.5 42.40625,46.5 l -36.8125,0 C 3.3273859,46.5 1.5,44.672614 1.5,42.40625 l 0,-36.8125 C 1.5,3.3273859 3.3273859,1.5 5.59375,1.5 z" opacity="0.1"/>
  <path transform="translate(0,1004.3622)" d="M 5.59375,1.5 C 3.3273859,1.5 1.5,3.3273859 1.5,5.59375 l 0,36.8125 C 1.5,44.672614 3.3273859,46.5 5.59375,46.5 l 36.8125,0 C 44.672614,46.5 46.5,44.672614 46.5,42.40625 l 0,-36.8125 C 46.5,3.3273859 44.672614,1.5 42.40625,1.5 l -36.8125,0 z m 0.09375,0.125 36.625,0 c 2.253773,0 4.0625,1.8087269 4.0625,4.0625 l 0,36.625 c 0,2.253773 -1.808727,4.0625 -4.0625,4.0625 l -36.625,0 c -2.2537731,0 -4.0625,-1.808727 -4.0625,-4.0625 l 0,-36.625 C 1.625,3.4337269 3.4337269,1.625 5.6875,1.625 z" opacity="0.2"/>
  <path transform="translate(0,1004.3622)" d="M 5.6875,1.625 C 3.4337269,1.625 1.625,3.4337269 1.625,5.6875 l 0,36.625 c 0,2.253773 1.8087269,4.0625 4.0625,4.0625 l 36.625,0 c 2.253773,0 4.0625,-1.808727 4.0625,-4.0625 l 0,-36.625 c 0,-2.2537731 -1.808727,-4.0625 -4.0625,-4.0625 l -36.625,0 z m 0.09375,0.125 36.4375,0 c 2.241182,0 4.03125,1.7900679 4.03125,4.03125 l 0,36.4375 c 0,2.241182 -1.790068,4.03125 -4.03125,4.03125 l -36.4375,0 C 3.5400679,46.25 1.75,44.459932 1.75,42.21875 l 0,-36.4375 C 1.75,3.5400679 3.5400679,1.75 5.78125,1.75 z" opacity="0.3"/>
  <path transform="translate(0,1004.3622)" d="M 5.78125,1.75 C 3.5400679,1.75 1.75,3.5400679 1.75,5.78125 l 0,36.4375 c 0,2.241182 1.7900679,4.03125 4.03125,4.03125 l 36.4375,0 c 2.241182,0 4.03125,-1.790068 4.03125,-4.03125 l 0,-36.4375 C 46.25,3.5400679 44.459932,1.75 42.21875,1.75 l -36.4375,0 z m 0.125,0.125 36.1875,0 c 2.228591,0 4.03125,1.802659 4.03125,4.03125 l 0,36.1875 c 0,2.228591 -1.802659,4.03125 -4.03125,4.03125 l -36.1875,0 C 3.677659,46.125 1.875,44.322341 1.875,42.09375 l 0,-36.1875 C 1.875,3.677659 3.677659,1.875 5.90625,1.875 z" opacity="0.4"/>
  <rect width="44.25" height="44.25" x="1.875" y="1006.24" rx="4.02" opacity="0.5"/>
 </g>
 <rect width="12.418" height="12.418" x="0.564" y="0.564" rx="1.129" fill="url(#1)"/>
 <g color="#000">
  <path d="m 9.4340446,3.3869957 c 0.189883,0 0.386851,0.04762 0.551076,0.158687 0.6568994,0.444172 1.3037644,0.2775818 1.3037644,0.2775818 0,0 -0.65713,1.0608512 -1.4919374,0.8992882 -0.789,-0.152067 -0.941211,0.04355 -0.967742,0.06621 l -0.0403,3.358707 c -1.36e-4,0.02275 0.0012,0.04355 0,0.06611 -0.03738,0.719456 -0.666809,1.440364 -1.545704,1.771942 -1.114967,0.4207133 -2.293298,0.05474 -2.634416,-0.819855 -0.34112,-0.874464 0.282882,-1.933007 1.397852,-2.353739 0.863029,-0.325558 1.763086,-0.17129 2.284954,0.317376 l 0,-3.358717 c 0.341914,-0.187807 0.783408,-0.3804662 1.142446,-0.383781 z" fill="#41ae4a"/>
  <g fill="#333">
   <g transform="matrix(.02602 0 0 .02961 2.89389 -10.21009)">
    <rect width="42" x="48" y="562.86" rx="12.956" height="125" id="2"/>
    <path d="m 72,622.36218 c 0,29.82338 -10.521308,54 -23.5,54 -12.978692,0 -23.5,-24.17662 -23.5,-54 0,-29.82337 10.521308,-54 23.5,-54 12.978692,0 23.5,24.17663 23.5,54 z" transform="matrix(1 0 0 .94444 0 37.57568)" id="3"/>
   </g>
   <g transform="matrix(.02602 0 0 .02961 -8.34457 -14.48146)">
    <path d="m 461,759.86218 c 0,5.24671 -4.25329,9.5 -9.5,9.5 -5.24671,0 -9.5,-4.25329 -9.5,-9.5 0,-5.2467 4.25329,-9.5 9.5,-9.5 5.24671,0 9.5,4.2533 9.5,9.5 z" transform="matrix(1.11842 0 0 1 -52.5921 7)" id="4"/>
    <path d="m 581,603.375 c -77.87215,0 -141,63.12785 -141,141 0,7.83306 0.64678,15.51456 1.875,23 l 21.34375,0 C 461.77385,759.9312 461,752.24121 461,744.375 c 0,-66.27417 53.72583,-120 120,-120 66.27417,0 120,53.72583 120,120 0,7.86621 -0.77385,15.5562 -2.21875,23 l 21.34375,0 c 1.22822,-7.48544 1.875,-15.16694 1.875,-23 0,-77.87215 -63.12785,-141 -141,-141 z"/>
    <use transform="matrix(0.98823 0 0 1 262.7 -1)" xlink:href="#4"/>
   </g>
   <g transform="matrix(-.02602 0 0 .02961 10.65314 -10.21009)">
    <use xlink:href="#2"/>
    <use xlink:href="#3"/>
   </g>
  </g>
 </g>
</svg>
