<svg xmlns="http://www.w3.org/2000/svg" xmlns:xlink="http://www.w3.org/1999/xlink" width="48" viewBox="0 0 13.546667 13.546667" height="48">
 <defs>
  <linearGradient id="0">
   <stop stop-color="#527bae"/>
   <stop offset="1" stop-color="#7b9ac1"/>
  </linearGradient>
  <linearGradient xlink:href="#0" id="1" gradientUnits="userSpaceOnUse" gradientTransform="matrix(0.28222223,0,0,0.28222223,5.9916667e-7,-283.45334)" y1="1050.36" x2="0" y2="1006.36"/>
 </defs>
 <g transform="matrix(0.28222223,0,0,0.28222223,0,-283.45334)">
  <path d="M 5.1875,1 C 2.8707723,1 1,2.8707723 1,5.1875 l 0,37.625 C 1,45.129228 2.8707723,47 5.1875,47 l 37.625,0 C 45.129228,47 47,45.129228 47,42.8125 L 47,5.1875 C 47,2.8707723 45.129228,1 42.8125,1 L 5.1875,1 z m 0.1875,0.25 37.25,0 c 2.291546,0 4.125,1.8334541 4.125,4.125 l 0,37.25 c 0,2.291546 -1.833454,4.125 -4.125,4.125 l -37.25,0 C 3.0834541,46.75 1.25,44.916546 1.25,42.625 l 0,-37.25 C 1.25,3.0834541 3.0834541,1.25 5.375,1.25 z" transform="translate(0,1004.3622)" opacity="0.05"/>
  <path d="M 5.375,1.25 C 3.0834541,1.25 1.25,3.0834541 1.25,5.375 l 0,37.25 c 0,2.291546 1.8334541,4.125 4.125,4.125 l 37.25,0 c 2.291546,0 4.125,-1.833454 4.125,-4.125 l 0,-37.25 C 46.75,3.0834541 44.916546,1.25 42.625,1.25 l -37.25,0 z m 0.21875,0.25 36.8125,0 C 44.672614,1.5 46.5,3.3273859 46.5,5.59375 l 0,36.8125 C 46.5,44.672614 44.672614,46.5 42.40625,46.5 l -36.8125,0 C 3.3273859,46.5 1.5,44.672614 1.5,42.40625 l 0,-36.8125 C 1.5,3.3273859 3.3273859,1.5 5.59375,1.5 z" transform="translate(0,1004.3622)" opacity="0.1"/>
  <path d="M 5.59375,1.5 C 3.3273859,1.5 1.5,3.3273859 1.5,5.59375 l 0,36.8125 C 1.5,44.672614 3.3273859,46.5 5.59375,46.5 l 36.8125,0 C 44.672614,46.5 46.5,44.672614 46.5,42.40625 l 0,-36.8125 C 46.5,3.3273859 44.672614,1.5 42.40625,1.5 l -36.8125,0 z m 0.09375,0.125 36.625,0 c 2.253773,0 4.0625,1.8087269 4.0625,4.0625 l 0,36.625 c 0,2.253773 -1.808727,4.0625 -4.0625,4.0625 l -36.625,0 c -2.2537731,0 -4.0625,-1.808727 -4.0625,-4.0625 l 0,-36.625 C 1.625,3.4337269 3.4337269,1.625 5.6875,1.625 z" transform="translate(0,1004.3622)" opacity="0.2"/>
  <path d="M 5.6875,1.625 C 3.4337269,1.625 1.625,3.4337269 1.625,5.6875 l 0,36.625 c 0,2.253773 1.8087269,4.0625 4.0625,4.0625 l 36.625,0 c 2.253773,0 4.0625,-1.808727 4.0625,-4.0625 l 0,-36.625 c 0,-2.2537731 -1.808727,-4.0625 -4.0625,-4.0625 l -36.625,0 z m 0.09375,0.125 36.4375,0 c 2.241182,0 4.03125,1.7900679 4.03125,4.03125 l 0,36.4375 c 0,2.241182 -1.790068,4.03125 -4.03125,4.03125 l -36.4375,0 C 3.5400679,46.25 1.75,44.459932 1.75,42.21875 l 0,-36.4375 C 1.75,3.5400679 3.5400679,1.75 5.78125,1.75 z" transform="translate(0,1004.3622)" opacity="0.3"/>
  <path d="M 5.78125,1.75 C 3.5400679,1.75 1.75,3.5400679 1.75,5.78125 l 0,36.4375 c 0,2.241182 1.7900679,4.03125 4.03125,4.03125 l 36.4375,0 c 2.241182,0 4.03125,-1.790068 4.03125,-4.03125 l 0,-36.4375 C 46.25,3.5400679 44.459932,1.75 42.21875,1.75 l -36.4375,0 z m 0.125,0.125 36.1875,0 c 2.228591,0 4.03125,1.802659 4.03125,4.03125 l 0,36.1875 c 0,2.228591 -1.802659,4.03125 -4.03125,4.03125 l -36.1875,0 C 3.677659,46.125 1.875,44.322341 1.875,42.09375 l 0,-36.1875 C 1.875,3.677659 3.677659,1.875 5.90625,1.875 z" transform="translate(0,1004.3622)" opacity="0.4"/>
  <rect rx="4.02" y="1006.24" x="1.875" height="44.25" width="44.25" opacity="0.5"/>
 </g>
 <rect rx="1.129" y="0.564" x="0.564" height="12.418" width="12.418" fill="url(#1)"/>
 <path d="m 3.9606291,10.139276 c 0,-0.04227 1.4143112,-1.7415658 1.4441284,-1.735119 0.017031,0.00368 0.6487212,0.272002 1.4037498,0.5962602 1.2894934,0.5537921 1.3750285,0.5865461 1.4098968,0.5398291 0.05273,-0.07065 0.2343549,-0.4504865 0.3304226,-0.6910338 L 8.6303318,8.6451347 8.4930216,8.5700597 C 8.298431,8.4636654 8.0130292,8.2267299 7.8343075,8.0232036 7.6712224,7.8374815 7.3770661,7.3893587 7.3770661,7.3266329 c 0,-0.020756 0.09347,0.073635 0.2077116,0.2097721 C 7.9056695,7.9187905 8.645117,8.517136 8.6915579,8.4319833 8.7466638,8.3309373 8.7822867,8.0326307 8.7805207,7.6869735 8.7783437,7.2649956 8.7230394,6.9364897 8.577761,6.4830448 L 8.4963551,6.2289607 8.0938666,6.1024641 C 7.8724994,6.0328899 7.6505806,5.9631465 7.6007192,5.9474736 7.4268283,5.8928177 7.5356202,5.8957617 7.7901986,5.952602 8.0945899,6.0205601 8.403783,6.0779592 8.5952362,6.1020504 8.7638101,6.1232655 8.8009037,6.0901971 8.8189281,5.9026269 8.841909,5.6634755 8.6875568,5.0030066 8.5318257,4.6741643 8.4696753,4.5429191 8.4416169,4.5146187 8.3171786,4.4576623 7.9029552,4.2680577 6.6064031,4.0904806 6.0558205,4.1479401 5.817815,4.1727761 5.5733315,4.2306011 5.4971338,4.2800755 c -0.021481,0.013958 0.1320317,0.053483 0.396308,0.102074 0.2372482,0.04362 0.4101376,0.083455 0.3841982,0.088522 -0.02594,0.00506 -0.3987439,-0.035893 -0.8284565,-0.091023 C 4.6947934,4.2828671 4.6660164,4.2811109 4.6134722,4.3286525 4.5039207,4.4277801 4.3462979,4.6987298 4.3138464,4.8437054 4.2824279,4.984068 4.2846384,5.0003337 4.3545376,5.1431781 4.4736805,5.3866476 4.695222,5.5638062 5.1993517,5.8187371 5.4377368,5.9392852 5.6269983,6.0436936 5.6199348,6.0507572 5.6128719,6.0578201 5.4094316,5.9818799 5.1678532,5.8819975 L 4.728619,5.7003948 4.0840901,5.8807273 c -0.3544923,0.099183 -0.6564307,0.1803348 -0.6709763,0.1803348 -0.016619,0 -0.026447,-0.428173 -0.026447,-1.1527442 0,-1.1100553 0.00218,-1.1570694 0.056603,-1.269642 0.033225,-0.068624 0.098129,-0.1427211 0.1571559,-0.179418 l 0.1005526,-0.062516 2.9518031,-0.00823 c 1.6234913,-0.00453 3.0174686,-4.838e-4 3.0977272,0.0091 0.1808649,0.021457 0.3440834,0.1538656 0.3872484,0.3141369 0.0186,0.069092 0.0256,1.1198743 0.02075,3.1190924 l -0.0073,3.0149001 -0.06253,0.100535 C 10.051977,10.005286 9.9778633,10.070181 9.9092276,10.1034 9.7932072,10.15956 9.7697429,10.16 6.8764613,10.16 5.2727481,10.16 3.9606198,10.1507 3.9606198,10.13927 z" fill="#ffffff"/>
</svg>
