<?xml version="1.0" encoding="UTF-8" standalone="no"?>
<svg
   xmlns:dc="http://purl.org/dc/elements/1.1/"
   xmlns:cc="http://creativecommons.org/ns#"
   xmlns:rdf="http://www.w3.org/1999/02/22-rdf-syntax-ns#"
   xmlns:svg="http://www.w3.org/2000/svg"
   xmlns="http://www.w3.org/2000/svg"
   xmlns:xlink="http://www.w3.org/1999/xlink"
   xmlns:sodipodi="http://sodipodi.sourceforge.net/DTD/sodipodi-0.dtd"
   xmlns:inkscape="http://www.inkscape.org/namespaces/inkscape"
   width="48"
   viewBox="0 0 13.546667 13.546667"
   height="48"
   id="svg3279"
   version="1.1"
   inkscape:version="0.48.4 r9939"
   sodipodi:docname="ms-word.svg">
  <metadata
     id="metadata3371">
    <rdf:RDF>
      <cc:Work
         rdf:about="">
        <dc:format>image/svg+xml</dc:format>
        <dc:type
           rdf:resource="http://purl.org/dc/dcmitype/StillImage" />
      </cc:Work>
    </rdf:RDF>
  </metadata>
  <sodipodi:namedview
     pagecolor="#ffffff"
     bordercolor="#666666"
     borderopacity="1"
     objecttolerance="10"
     gridtolerance="10"
     guidetolerance="10"
     inkscape:pageopacity="0"
     inkscape:pageshadow="2"
     inkscape:window-width="692"
     inkscape:window-height="480"
     id="namedview3369"
     showgrid="false"
     inkscape:zoom="4.9166667"
     inkscape:cx="57.966102"
     inkscape:cy="22.372881"
     inkscape:window-x="394"
     inkscape:window-y="343"
     inkscape:window-maximized="0"
     inkscape:current-layer="svg3279" />
  <defs
     id="defs3281">
    <linearGradient
       id="0">
      <stop
         stop-color="#103fa8"
         id="stop3284" />
      <stop
         offset="1"
         stop-color="#0d88dc"
         id="stop3286" />
    </linearGradient>
    <linearGradient
       gradientUnits="userSpaceOnUse"
       x2="0"
       y2="40"
       y1="280"
       xlink:href="#2"
       id="1"
       gradientTransform="matrix(.175 0 0 .175 302.79999 215.99997)" />
    <linearGradient
       id="2">
      <stop
         stop-color="#151515"
         id="stop3290" />
      <stop
         offset="1"
         stop-color="#222"
         id="stop3292" />
    </linearGradient>
    <linearGradient
       gradientUnits="userSpaceOnUse"
       x2="0"
       y2="90"
       y1="230"
       xlink:href="#2"
       id="3"
       gradientTransform="matrix(.375 0 0 .375 298 16)" />
    <linearGradient
       gradientUnits="userSpaceOnUse"
       x2="0"
       y2="90"
       y1="230"
       xlink:href="#2"
       id="4"
       gradientTransform="matrix(.25 0 0 .25 299.99999 131.99999)" />
    <linearGradient
       gradientUnits="userSpaceOnUse"
       x2="264"
       x1="265"
       y2="276"
       y1="40"
       xlink:href="#2"
       gradientTransform="matrix(-1 0 0 -1 289 315)"
       id="linearGradient3296" />
    <clipPath
       id="clipPath3298">
      <rect
         height="20"
         rx="4"
         y="78"
         x="434"
         width="20"
         color="#bebebe"
         id="rect3300" />
    </clipPath>
    <clipPath
       id="clipPath3302">
      <rect
         height="22"
         rx="4"
         y="77"
         x="433"
         width="22"
         color="#bebebe"
         id="rect3304" />
    </clipPath>
    <clipPath
       id="clipPath3306">
      <rect
         height="22"
         rx="5"
         y="77"
         x="433"
         width="22"
         color="#bebebe"
         id="rect3308" />
    </clipPath>
    <clipPath
       id="clipPath3310">
      <rect
         height="30"
         rx="6"
         y="29"
         x="433"
         width="30"
         color="#bebebe"
         id="rect3312" />
    </clipPath>
    <clipPath
       id="clipPath3314">
      <rect
         transform="matrix(0 -1 1 0 0 0)"
         height="60"
         rx="12.5"
         y="142"
         x="306"
         width="60"
         fill="url(#4)"
         color="#bebebe"
         id="rect3316" />
    </clipPath>
    <clipPath
       id="clipPath3318">
      <rect
         height="90"
         rx="18.75"
         y="31"
         x="307"
         width="90"
         fill="url(#3)"
         color="#bebebe"
         id="rect3320" />
    </clipPath>
    <clipPath
       id="clipPath3322">
      <rect
         height="30"
         rx="4"
         y="29"
         x="433"
         width="30"
         opacity="0.2"
         fill="#6d6d6d"
         color="#bebebe"
         id="rect3324" />
    </clipPath>
    <clipPath
       id="clipPath3326">
      <rect
         height="22"
         rx="3"
         y="77"
         x="433"
         width="22"
         opacity="0.2"
         fill="#6d6d6d"
         color="#bebebe"
         id="rect3328" />
    </clipPath>
    <clipPath
       id="clipPath3330">
      <path
         d="m 144,70 c -49.705627,0 -90,40.29437 -90,90 0,49.70563 40.294373,90 90,90 49.70563,0 90,-40.29437 90,-90 0,-49.70563 -40.29437,-90 -90,-90 z m 0,32.1875 c 32.03251,0 58,25.96748 58,58 0,32.03252 -25.96749,58 -58,58 -32.03251,0 -58,-25.96748 -58,-58 0,-32.03252 25.96749,-58 58,-58 z"
         id="path3332" />
    </clipPath>
    <clipPath
       id="clipPath3334">
      <path
         d="m 152,204 a 8,8 0 1 1 -16,0 8,8 0 1 1 16,0 z"
         id="path3336" />
    </clipPath>
    <clipPath
       id="clipPath3338">
      <rect
         height="16"
         rx="3"
         y="116"
         x="432"
         width="16"
         color="#bebebe"
         id="rect3340" />
    </clipPath>
    <clipPath
       id="clipPath3342">
      <path
         d="m 145,215 c 33.13708,0 60,-26.86292 60,-60 0,-33.13708 -26.86292,-60 -60,-60 -33.13708,0 -60,26.86292 -60,60 0,12.50698 3.8285,24.10633 10.375,33.71875 L 89,211 111.28125,204.625 C 120.89367,211.1715 132.49302,215 145,215 z"
         id="path3344" />
    </clipPath>
    <clipPath
       id="clipPath3346">
      <path
         d="m 98.03125,23.191212 c -41.492132,1.05238 -74.84375,35.06824 -74.84375,76.812498 0,42.40687 34.405632,76.8125 76.8125,76.8125 42.40687,0 76.8125,-34.40563 76.8125,-76.8125 0,-42.406866 -34.40563,-76.812498 -76.8125,-76.812498 -0.662607,0 -1.310145,-0.0167 -1.96875,0 z M 100,50.659962 c 27.24464,0 49.34375,22.099114 49.34375,49.343748 -1e-5,27.24464 -22.09911,49.34375 -49.34375,49.34375 -27.244636,-1e-5 -49.34375,-22.09911 -49.34375,-49.34375 0,-27.244634 22.099114,-49.343748 49.34375,-49.343748 z"
         id="path3348" />
    </clipPath>
    <clipPath
       id="clipPath3350">
      <rect
         height="16"
         rx="2"
         y="116"
         x="432"
         width="16"
         opacity="0.2"
         fill="#6d6d6d"
         color="#bebebe"
         id="rect3352" />
    </clipPath>
    <clipPath
       id="clipPath3354">
      <rect
         height="240"
         rx="50"
         y="36"
         x="24"
         width="240"
         fill="#986767"
         color="#bebebe"
         id="rect3356" />
    </clipPath>
    <clipPath
       id="clipPath3358">
      <rect
         transform="rotate(90)"
         height="42"
         rx="9"
         y="223"
         x="307"
         width="42"
         fill="url(#1)"
         color="#bebebe"
         id="rect3360" />
    </clipPath>
    <linearGradient
       xlink:href="#0"
       id="5"
       gradientUnits="userSpaceOnUse"
       y1="0.899"
       x2="0"
       y2="12.7"
       gradientTransform="translate(0,-13.547)"
       x1="-0.034" />
    <linearGradient
       xlink:href="#0"
       id="1-7"
       gradientUnits="userSpaceOnUse"
       y1="1050.36"
       x2="0"
       y2="1006.36"
       gradientTransform="matrix(0.28222223,0,0,0.28222223,0,-283.45334)" />
    <linearGradient
       id="0-8">
      <stop
         stop-color="#2d2d2d"
         id="stop7" />
      <stop
         offset="1"
         stop-color="#4b4b4b"
         id="stop9" />
    </linearGradient>
  </defs>
  <g
     transform="matrix(0.28222223,0,0,0.28222223,0,-283.45334)"
     id="g12">
    <path
       style="opacity:0.05"
       inkscape:connector-curvature="0"
       d="M 5.1875,1 C 2.8707723,1 1,2.8707723 1,5.1875 l 0,37.625 C 1,45.129228 2.8707723,47 5.1875,47 l 37.625,0 C 45.129228,47 47,45.129228 47,42.8125 L 47,5.1875 C 47,2.8707723 45.129228,1 42.8125,1 L 5.1875,1 z m 0.1875,0.25 37.25,0 c 2.291546,0 4.125,1.8334541 4.125,4.125 l 0,37.25 c 0,2.291546 -1.833454,4.125 -4.125,4.125 l -37.25,0 C 3.0834541,46.75 1.25,44.916546 1.25,42.625 l 0,-37.25 C 1.25,3.0834541 3.0834541,1.25 5.375,1.25 z"
       transform="translate(0,1004.3622)"
       id="path14" />
    <path
       style="opacity:0.1"
       inkscape:connector-curvature="0"
       d="M 5.375,1.25 C 3.0834541,1.25 1.25,3.0834541 1.25,5.375 l 0,37.25 c 0,2.291546 1.8334541,4.125 4.125,4.125 l 37.25,0 c 2.291546,0 4.125,-1.833454 4.125,-4.125 l 0,-37.25 C 46.75,3.0834541 44.916546,1.25 42.625,1.25 l -37.25,0 z m 0.21875,0.25 36.8125,0 C 44.672614,1.5 46.5,3.3273859 46.5,5.59375 l 0,36.8125 C 46.5,44.672614 44.672614,46.5 42.40625,46.5 l -36.8125,0 C 3.3273859,46.5 1.5,44.672614 1.5,42.40625 l 0,-36.8125 C 1.5,3.3273859 3.3273859,1.5 5.59375,1.5 z"
       transform="translate(0,1004.3622)"
       id="path16" />
    <path
       style="opacity:0.2"
       inkscape:connector-curvature="0"
       d="M 5.59375,1.5 C 3.3273859,1.5 1.5,3.3273859 1.5,5.59375 l 0,36.8125 C 1.5,44.672614 3.3273859,46.5 5.59375,46.5 l 36.8125,0 C 44.672614,46.5 46.5,44.672614 46.5,42.40625 l 0,-36.8125 C 46.5,3.3273859 44.672614,1.5 42.40625,1.5 l -36.8125,0 z m 0.09375,0.125 36.625,0 c 2.253773,0 4.0625,1.8087269 4.0625,4.0625 l 0,36.625 c 0,2.253773 -1.808727,4.0625 -4.0625,4.0625 l -36.625,0 c -2.2537731,0 -4.0625,-1.808727 -4.0625,-4.0625 l 0,-36.625 C 1.625,3.4337269 3.4337269,1.625 5.6875,1.625 z"
       transform="translate(0,1004.3622)"
       id="path18" />
    <path
       style="opacity:0.3"
       inkscape:connector-curvature="0"
       d="M 5.6875,1.625 C 3.4337269,1.625 1.625,3.4337269 1.625,5.6875 l 0,36.625 c 0,2.253773 1.8087269,4.0625 4.0625,4.0625 l 36.625,0 c 2.253773,0 4.0625,-1.808727 4.0625,-4.0625 l 0,-36.625 c 0,-2.2537731 -1.808727,-4.0625 -4.0625,-4.0625 l -36.625,0 z m 0.09375,0.125 36.4375,0 c 2.241182,0 4.03125,1.7900679 4.03125,4.03125 l 0,36.4375 c 0,2.241182 -1.790068,4.03125 -4.03125,4.03125 l -36.4375,0 C 3.5400679,46.25 1.75,44.459932 1.75,42.21875 l 0,-36.4375 C 1.75,3.5400679 3.5400679,1.75 5.78125,1.75 z"
       transform="translate(0,1004.3622)"
       id="path20" />
    <path
       style="opacity:0.4"
       inkscape:connector-curvature="0"
       d="M 5.78125,1.75 C 3.5400679,1.75 1.75,3.5400679 1.75,5.78125 l 0,36.4375 c 0,2.241182 1.7900679,4.03125 4.03125,4.03125 l 36.4375,0 c 2.241182,0 4.03125,-1.790068 4.03125,-4.03125 l 0,-36.4375 C 46.25,3.5400679 44.459932,1.75 42.21875,1.75 l -36.4375,0 z m 0.125,0.125 36.1875,0 c 2.228591,0 4.03125,1.802659 4.03125,4.03125 l 0,36.1875 c 0,2.228591 -1.802659,4.03125 -4.03125,4.03125 l -36.1875,0 C 3.677659,46.125 1.875,44.322341 1.875,42.09375 l 0,-36.1875 C 1.875,3.677659 3.677659,1.875 5.90625,1.875 z"
       transform="translate(0,1004.3622)"
       id="path22" />
    <rect
       style="opacity:0.5"
       rx="4.02"
       y="1006.24"
       x="1.875"
       height="44.25"
       width="44.25"
       id="rect24" />
  </g>
  <rect
     style="fill:url(#1-7);fill-opacity:1.0"
     rx="1.1289999"
     y="0.56399572"
     x="0.56400007"
     height="12.418"
     width="12.418"
     id="rect26" />
  <path
     d="m 4.2333334,10.16 -1.4111111,-6.7733333 1.4111111,0 0.7661457,3.668889 0.9271877,-3.668889 1.4111112,0 0.9898209,3.9511113 0.7035124,-2.8222223 -0.5644444,0 0,-1.1288891 2.2577781,-7.9e-6 L 9.0311113,10.16 7.6200002,10.16 6.6322224,6.208889 5.6444446,10.16 z"
     fill="#f9f9f9"
     id="path3367" />
</svg>
