<svg xmlns="http://www.w3.org/2000/svg" xmlns:xlink="http://www.w3.org/1999/xlink" width="48" viewBox="0 0 13.546667 13.546667" height="48">
 <defs>
  <linearGradient id="0">
   <stop stop-color="#e7e7e7"/>
   <stop offset="1" stop-color="#f9f9f9"/>
  </linearGradient>
  <linearGradient gradientTransform="matrix(0.28222223,0,0,0.28222223,-2.0000005e-8,-283.45334)" xlink:href="#0" id="1" y1="1050.36" x2="0" y2="1006.36" gradientUnits="userSpaceOnUse"/>
 </defs>
 <path d="m 1.4640278,0.28222223 c -0.65383204,0 -1.18180557,0.52797353 -1.18180557,1.18180557 l 0,10.6186112 c 0,0.653832 0.52797353,1.181806 1.18180557,1.181806 l 10.6186112,0 c 0.653832,0 1.181806,-0.527974 1.181806,-1.181806 l 0,-10.6186112 c 0,-0.65383204 -0.527974,-1.18180557 -1.181806,-1.18180557 l -10.6186112,0 z m 0.052917,0.0705556 10.5127785,0 c 0.646725,0 1.164166,0.5174415 1.164166,1.16416671 l 0,10.5127785 c 0,0.646725 -0.517441,1.164166 -1.164166,1.164166 l -10.5127785,0 c -0.64672521,0 -1.16416671,-0.517441 -1.16416671,-1.164166 l 0,-10.5127785 c 0,-0.64672521 0.5174415,-1.16416671 1.16416671,-1.16416671 z" opacity="0.05"/>
 <path d="m 1.5169445,0.35277779 c -0.64672521,0 -1.16416671,0.5174415 -1.16416671,1.16416671 l 0,10.5127785 c 0,0.646725 0.5174415,1.164166 1.16416671,1.164166 l 10.5127785,0 c 0.646725,0 1.164166,-0.517441 1.164166,-1.164166 l 0,-10.5127785 c 0,-0.64672521 -0.517441,-1.16416671 -1.164166,-1.16416671 l -10.5127785,0 z m 0.061736,0.0705556 10.3893054,0 c 0.639619,0 1.155348,0.51572892 1.155348,1.15534725 l 0,10.3893054 c 0,0.639619 -0.515729,1.155348 -1.155348,1.155348 l -10.3893054,0 c -0.63961833,0 -1.15534725,-0.515729 -1.15534725,-1.155348 l 0,-10.3893054 c 0,-0.63961833 0.51572892,-1.15534725 1.15534725,-1.15534725 z" opacity="0.1"/>
 <path d="m 1.5786806,0.42333335 c -0.63961833,0 -1.15534725,0.51572892 -1.15534725,1.15534725 l 0,10.3893054 c 0,0.639619 0.51572892,1.155348 1.15534725,1.155348 l 10.3893054,0 c 0.639619,0 1.155348,-0.515729 1.155348,-1.155348 l 0,-10.3893054 c 0,-0.63961833 -0.515729,-1.15534725 -1.155348,-1.15534725 l -10.3893054,0 z m 0.026458,0.0352778 10.3363891,0 c 0.636065,0 1.146528,0.51046294 1.146528,1.14652778 l 0,10.3363891 c 0,0.636065 -0.510463,1.146528 -1.146528,1.146528 l -10.3363891,0 c -0.63606484,0 -1.14652778,-0.510463 -1.14652778,-1.146528 l 0,-10.3363891 c 0,-0.63606484 0.51046294,-1.14652778 1.14652778,-1.14652778 z" opacity="0.2"/>
 <path d="m 1.6051389,0.45861112 c -0.63606484,0 -1.14652778,0.51046294 -1.14652778,1.14652778 l 0,10.3363891 c 0,0.636065 0.51046294,1.146528 1.14652778,1.146528 l 10.3363891,0 c 0.636065,0 1.146528,-0.510463 1.146528,-1.146528 l 0,-10.3363891 c 0,-0.63606484 -0.510463,-1.14652778 -1.146528,-1.14652778 l -10.3363891,0 z m 0.026458,0.0352778 10.2834727,0 c 0.632511,0 1.137708,0.50519696 1.137708,1.1377084 l 0,10.2834727 c 0,0.632511 -0.505197,1.137708 -1.137708,1.137708 l -10.2834727,0 c -0.63251144,0 -1.1377084,-0.505197 -1.1377084,-1.137708 l 0,-10.2834727 c 0,-0.63251144 0.50519696,-1.1377084 1.1377084,-1.1377084 z" opacity="0.3"/>
 <path d="m 1.6315973,0.4938889 c -0.63251144,0 -1.1377084,0.50519696 -1.1377084,1.1377084 l 0,10.2834727 c 0,0.632511 0.50519696,1.137708 1.1377084,1.137708 l 10.2834727,0 c 0.632511,0 1.137708,-0.505197 1.137708,-1.137708 l 0,-10.2834727 c 0,-0.63251144 -0.505197,-1.1377084 -1.137708,-1.1377084 l -10.2834727,0 z m 0.035278,0.0352778 10.212917,0 c 0.628958,0 1.137708,0.50875042 1.137708,1.13770832 l 0,10.212917 c 0,0.628958 -0.50875,1.137708 -1.137708,1.137708 l -10.212917,0 c -0.6289579,0 -1.13770832,-0.50875 -1.13770832,-1.137708 l 0,-10.212917 c 0,-0.6289579 0.50875042,-1.13770832 1.13770832,-1.13770832 z" opacity="0.4"/>
 <rect rx="1.135" y="0.53" x="0.529" height="12.488" width="12.488" opacity="0.5"/>
 <rect width="12.418" height="12.418" x="0.564" y="0.564" rx="1.129" fill="url(#1)"/>
 <path d="M 10.210283,4.5158325 C 9.7637257,4.5091046 9.3394903,4.6255602 8.9742647,4.8353123 8.6883478,4.6744684 8.3635549,4.5702221 8.0151846,4.5375168 c -0.4803215,-0.045013 -0.9402832,0.053526 -1.3380475,0.26021 -0.00393,0.00205 -0.00789,0.00397 -0.01166,0.00581 -0.00965,0.0075 -0.016031,0.020155 -0.016031,0.03325 0,0.022804 0.01763,0.040481 0.040808,0.040481 0.00214,0 0.00507,4.589e-4 0.0073,0 9.996e-4,-9.28e-5 0.002,-0.00127 0.00292,-0.00142 0.2138541,-0.039227 0.4372702,-0.05024 0.6646507,-0.028916 0.6381588,0.059814 1.1942153,0.2563362 1.5843773,0.6953395 0.020337,0.021047 0.037688,0.019425 0.058302,-0.00142 0.4908624,-0.5643672 1.2433399,-0.7870603 2.0522569,-0.7112414 0.04515,0.00432 0.08979,0.00929 0.134096,0.015899 0.01539,0.00234 0.04007,0.00574 0.05394,0.00723 0.02668,0.0029 0.0408,-0.017669 0.0408,-0.040481 -9.3e-5,-0.015496 -0.0066,-0.028688 -0.02186,-0.036139 -0.01558,-0.008 -0.03111,-0.015588 -0.04664,-0.02313 C 10.970532,4.6333582 10.695098,4.5549024 10.402699,4.5274704 10.338089,4.5213804 10.274093,4.5168614 10.2103,4.5159054 z" fill="#2d2d2d"/>
 <path d="m 8.7308507,6.4457241 c -0.8998675,0 -1.7327103,0.2837215 -2.4137331,0.764728 C 5.7971974,6.979432 5.2209796,6.8504952 4.6146778,6.8504952 c -0.8621804,0 -1.6618145,0.2603949 -2.326279,0.7054581 -0.00221,0.00135 -0.00478,0.00255 -0.0073,0.00432 -0.014181,0.010821 -0.023321,0.027861 -0.023321,0.047704 0,0.033724 0.027119,0.062159 0.061216,0.062159 0.004,0 0.0077,-6.097e-4 0.011661,-0.00142 0.00264,-6.883e-4 0.00478,-0.00198 0.0073,-0.0029 0.3808796,-0.1136129 0.7857575,-0.1749182 1.2039511,-0.1749182 1.1117632,0 2.101953,0.2609266 2.8480886,0.9569948 0.00179,0.00135 0.004,0.00262 0.00586,0.00432 0.010868,0.00953 0.025278,0.014454 0.040815,0.014454 0.019265,0 0.03531,-0.00794 0.046642,-0.021685 2.791e-4,1.805e-4 0.024406,-0.032917 0.036438,-0.049149 0.7577953,-1.027702 2.006955,-1.5352392 3.3975922,-1.5352392 0.09926,0 0.1983583,0.0034 0.2958863,0.01012 0.02807,0.0022 0.08757,0.00723 0.08891,0.00723 0.03385,0 0.06121,-0.02825 0.06121,-0.062159 4.7e-5,-0.02415 -0.01445,-0.043865 -0.03498,-0.05349 -0.0025,-0.00135 -0.0051,-0.00191 -0.0072,-0.0029 C 9.8305897,6.5582081 9.2940298,6.4456936 8.7308721,6.4456936 z" fill="#2d2d2d"/>
</svg>
