<?xml version="1.0" encoding="UTF-8" standalone="no"?>
<svg
   xmlns:dc="http://purl.org/dc/elements/1.1/"
   xmlns:cc="http://creativecommons.org/ns#"
   xmlns:rdf="http://www.w3.org/1999/02/22-rdf-syntax-ns#"
   xmlns:svg="http://www.w3.org/2000/svg"
   xmlns="http://www.w3.org/2000/svg"
   xmlns:xlink="http://www.w3.org/1999/xlink"
   xmlns:sodipodi="http://sodipodi.sourceforge.net/DTD/sodipodi-0.dtd"
   xmlns:inkscape="http://www.inkscape.org/namespaces/inkscape"
   width="48"
   viewBox="0 0 13.546667 13.546667"
   height="48"
   enable-background="new"
   id="svg2"
   version="1.1"
   inkscape:version="0.48.4 r9939"
   sodipodi:docname="openbravo-erp.svg">
  <metadata
     id="metadata85">
    <rdf:RDF>
      <cc:Work
         rdf:about="">
        <dc:format>image/svg+xml</dc:format>
        <dc:type
           rdf:resource="http://purl.org/dc/dcmitype/StillImage" />
      </cc:Work>
    </rdf:RDF>
  </metadata>
  <sodipodi:namedview
     pagecolor="#ffffff"
     bordercolor="#666666"
     borderopacity="1"
     objecttolerance="10"
     gridtolerance="10"
     guidetolerance="10"
     inkscape:pageopacity="0"
     inkscape:pageshadow="2"
     inkscape:window-width="692"
     inkscape:window-height="480"
     id="namedview83"
     showgrid="false"
     inkscape:zoom="6.9532167"
     inkscape:cx="19.611454"
     inkscape:cy="26.235905"
     inkscape:window-x="0"
     inkscape:window-y="0"
     inkscape:window-maximized="0"
     inkscape:current-layer="svg2">
    <inkscape:grid
       type="xygrid"
       id="grid3859" />
  </sodipodi:namedview>
  <defs
     id="defs4">
    <linearGradient
       id="0">
      <stop
         stop-color="#34870c"
         id="stop7" />
      <stop
         offset="1"
         stop-color="#8ec361"
         id="stop9" />
    </linearGradient>
    <linearGradient
       y2="31.619"
       x2="0"
       y1="299.81"
       gradientTransform="matrix(0.11931818,0,0,0.11931818,414.13636,48.22727)"
       gradientUnits="userSpaceOnUse"
       id="1"
       xlink:href="#A" />
    <clipPath
       id="clipPath12">
      <rect
         y="53"
         x="417"
         height="30"
         width="30"
         fill="url(#1)"
         color="#bebebe"
         rx="7"
         id="rect14" />
    </clipPath>
    <linearGradient
       y2="28.571"
       x2="0"
       y1="302.86"
       gradientTransform="matrix(0.0875,0,0,0.0875,414.9,97.5)"
       gradientUnits="userSpaceOnUse"
       id="2"
       xlink:href="#A" />
    <clipPath
       id="clipPath17">
      <rect
         width="22"
         height="22"
         x="417"
         y="101"
         fill="url(#2)"
         color="#bebebe"
         rx="5"
         id="rect19" />
    </clipPath>
    <linearGradient
       y2="28"
       x2="0"
       y1="124"
       gradientUnits="userSpaceOnUse"
       id="3"
       xlink:href="#A" />
    <clipPath
       id="clipPath22">
      <rect
         y="32"
         x="292"
         height="88"
         width="88"
         fill="url(#3)"
         color="#bebebe"
         rx="18"
         id="rect24" />
    </clipPath>
    <linearGradient
       y2="140"
       x2="0"
       y1="204"
       gradientUnits="userSpaceOnUse"
       id="4"
       xlink:href="#A" />
    <clipPath
       id="clipPath27">
      <rect
         width="60"
         height="60"
         x="290"
         y="142"
         fill="url(#4)"
         color="#bebebe"
         rx="12.5"
         id="rect29" />
    </clipPath>
    <linearGradient
       y2="40"
       x2="0"
       y1="280"
       gradientTransform="translate(0,-4)"
       gradientUnits="userSpaceOnUse"
       id="5"
       xlink:href="#A" />
    <clipPath
       id="clipPath32">
      <rect
         width="220"
         height="220"
         x="34"
         y="46"
         fill="url(#5)"
         color="#bebebe"
         rx="50"
         id="rect34" />
    </clipPath>
    <linearGradient
       y2="40"
       x2="0"
       y1="280"
       gradientTransform="matrix(0.06666667,0,0,0.06666667,302.4,209.33333)"
       gradientUnits="userSpaceOnUse"
       id="6"
       xlink:href="#A" />
    <clipPath
       id="clipPath37">
      <rect
         transform="matrix(0,1,-1,0,0,0)"
         y="212"
         x="304"
         height="16"
         width="16"
         fill="url(#6)"
         color="#bebebe"
         rx="3"
         id="rect39" />
    </clipPath>
    <linearGradient
       y2="40"
       x2="0"
       y1="291.43"
       gradientTransform="matrix(0.11931818,0,0,0.11931818,430.13636,32.227267)"
       gradientUnits="userSpaceOnUse"
       id="7"
       xlink:href="#A" />
    <clipPath
       id="clipPath42">
      <rect
         y="37"
         x="433"
         height="30"
         width="30"
         fill="url(#7)"
         color="#bebebe"
         rx="6"
         id="rect44" />
    </clipPath>
    <linearGradient
       y2="40"
       x2="0"
       y1="291.43"
       gradientTransform="matrix(0.0875,0,0,0.0875,430.9,81.499996)"
       gradientUnits="userSpaceOnUse"
       id="8"
       xlink:href="#A" />
    <clipPath
       id="clipPath47">
      <rect
         width="22"
         height="22"
         x="433"
         y="85"
         fill="url(#8)"
         color="#bebebe"
         rx="4"
         id="rect49" />
    </clipPath>
    <linearGradient
       y2="40"
       x2="0"
       y1="280"
       gradientTransform="matrix(0.175,0,0,0.175,302.79999,215.99997)"
       gradientUnits="userSpaceOnUse"
       id="9"
       xlink:href="#A" />
    <clipPath
       id="clipPath52">
      <rect
         transform="matrix(0,1,-1,0,0,0)"
         width="42"
         height="42"
         x="307"
         y="223"
         fill="url(#9)"
         color="#bebebe"
         rx="9"
         id="rect54" />
    </clipPath>
    <linearGradient
       id="A">
      <stop
         stop-color="#b94642"
         id="stop57" />
      <stop
         offset="1"
         stop-color="#c66a58"
         id="stop59" />
    </linearGradient>
    <linearGradient
       xlink:href="#0"
       id="B"
       gradientUnits="userSpaceOnUse"
       gradientTransform="matrix(1.10525,0,0,1.10525,-134.27874,-295.76183)"
       y1="279.1"
       x2="0"
       y2="268.33" />
    <linearGradient
       xlink:href="#0"
       id="5-2"
       gradientUnits="userSpaceOnUse"
       gradientTransform="matrix(0.28222223,0,0,0.28222223,5.9916667e-7,-283.45334)"
       y1="1050.36"
       x2="0"
       y2="1006.36" />
    <linearGradient
       id="0-8"
       gradientUnits="userSpaceOnUse"
       x2="0"
       gradientTransform="matrix(1.10525,0,0,1.10525,-134.27874,-295.76183)"
       y1="279.10001"
       y2="268.32999">
      <stop
         stop-color="#cecece"
         id="stop7-7" />
      <stop
         stop-color="#e9e9e9"
         offset="1"
         id="stop9-5" />
    </linearGradient>
    <linearGradient
       inkscape:collect="always"
       xlink:href="#0"
       id="linearGradient3865"
       gradientUnits="userSpaceOnUse"
       gradientTransform="matrix(0.28222223,0,0,0.28222223,5.9916667e-7,-283.45334)"
       y1="1050.36"
       x2="0"
       y2="1006.36" />
  </defs>
  <path
     id="path88"
     d="m 1.4640278,0.28222223 c -0.65383204,0 -1.18180557,0.52797353 -1.18180557,1.18180557 l 0,10.6186112 c 0,0.653832 0.52797353,1.181806 1.18180557,1.181806 l 10.6186112,0 c 0.653832,0 1.181806,-0.527974 1.181806,-1.181806 l 0,-10.6186112 c 0,-0.65383204 -0.527974,-1.18180557 -1.181806,-1.18180557 l -10.6186112,0 z m 0.052917,0.0705556 10.5127785,0 c 0.646725,0 1.164166,0.5174415 1.164166,1.16416671 l 0,10.5127785 c 0,0.646725 -0.517441,1.164166 -1.164166,1.164166 l -10.5127785,0 c -0.64672521,0 -1.16416671,-0.517441 -1.16416671,-1.164166 l 0,-10.5127785 c 0,-0.64672521 0.5174415,-1.16416671 1.16416671,-1.16416671 z"
     inkscape:connector-curvature="0"
     style="opacity:0.05" />
  <path
     id="path90"
     d="m 1.5169445,0.35277779 c -0.64672521,0 -1.16416671,0.5174415 -1.16416671,1.16416671 l 0,10.5127785 c 0,0.646725 0.5174415,1.164166 1.16416671,1.164166 l 10.5127785,0 c 0.646725,0 1.164166,-0.517441 1.164166,-1.164166 l 0,-10.5127785 c 0,-0.64672521 -0.517441,-1.16416671 -1.164166,-1.16416671 l -10.5127785,0 z m 0.061736,0.0705556 10.3893054,0 c 0.639619,0 1.155348,0.51572892 1.155348,1.15534725 l 0,10.3893054 c 0,0.639619 -0.515729,1.155348 -1.155348,1.155348 l -10.3893054,0 c -0.63961833,0 -1.15534725,-0.515729 -1.15534725,-1.155348 l 0,-10.3893054 c 0,-0.63961833 0.51572892,-1.15534725 1.15534725,-1.15534725 z"
     inkscape:connector-curvature="0"
     style="opacity:0.1" />
  <path
     id="path92"
     d="m 1.5786806,0.42333335 c -0.63961833,0 -1.15534725,0.51572892 -1.15534725,1.15534725 l 0,10.3893054 c 0,0.639619 0.51572892,1.155348 1.15534725,1.155348 l 10.3893054,0 c 0.639619,0 1.155348,-0.515729 1.155348,-1.155348 l 0,-10.3893054 c 0,-0.63961833 -0.515729,-1.15534725 -1.155348,-1.15534725 l -10.3893054,0 z m 0.026458,0.0352778 10.3363891,0 c 0.636065,0 1.146528,0.51046294 1.146528,1.14652778 l 0,10.3363891 c 0,0.636065 -0.510463,1.146528 -1.146528,1.146528 l -10.3363891,0 c -0.63606484,0 -1.14652778,-0.510463 -1.14652778,-1.146528 l 0,-10.3363891 c 0,-0.63606484 0.51046294,-1.14652778 1.14652778,-1.14652778 z"
     inkscape:connector-curvature="0"
     style="opacity:0.2" />
  <path
     id="path94"
     d="m 1.6051389,0.45861112 c -0.63606484,0 -1.14652778,0.51046294 -1.14652778,1.14652778 l 0,10.3363891 c 0,0.636065 0.51046294,1.146528 1.14652778,1.146528 l 10.3363891,0 c 0.636065,0 1.146528,-0.510463 1.146528,-1.146528 l 0,-10.3363891 c 0,-0.63606484 -0.510463,-1.14652778 -1.146528,-1.14652778 l -10.3363891,0 z m 0.026458,0.0352778 10.2834727,0 c 0.632511,0 1.137708,0.50519696 1.137708,1.1377084 l 0,10.2834727 c 0,0.632511 -0.505197,1.137708 -1.137708,1.137708 l -10.2834727,0 c -0.63251144,0 -1.1377084,-0.505197 -1.1377084,-1.137708 l 0,-10.2834727 c 0,-0.63251144 0.50519696,-1.1377084 1.1377084,-1.1377084 z"
     inkscape:connector-curvature="0"
     style="opacity:0.3" />
  <path
     id="path96"
     d="m 1.6315973,0.4938889 c -0.63251144,0 -1.1377084,0.50519696 -1.1377084,1.1377084 l 0,10.2834727 c 0,0.632511 0.50519696,1.137708 1.1377084,1.137708 l 10.2834727,0 c 0.632511,0 1.137708,-0.505197 1.137708,-1.137708 l 0,-10.2834727 c 0,-0.63251144 -0.505197,-1.1377084 -1.137708,-1.1377084 l -10.2834727,0 z m 0.035278,0.0352778 10.212917,0 c 0.628958,0 1.137708,0.50875042 1.137708,1.13770832 l 0,10.212917 c 0,0.628958 -0.50875,1.137708 -1.137708,1.137708 l -10.212917,0 c -0.6289579,0 -1.13770832,-0.50875 -1.13770832,-1.137708 l 0,-10.212917 c 0,-0.6289579 0.50875042,-1.13770832 1.13770832,-1.13770832 z"
     inkscape:connector-curvature="0"
     style="opacity:0.4" />
  <rect
     id="rect98"
     width="12.488334"
     height="12.488334"
     x="0.5291667"
     y="0.52995396"
     rx="1.1345334"
     style="opacity:0.5" />
  <rect
     style="fill:url(#5-2);fill-opacity:1.0"
     rx="1.1289999"
     y="0.56399995"
     x="0.56399977"
     height="12.418"
     width="12.418"
     id="rect100" />
  <path
     style="fill:#dff5e4"
     d="m 3.668889,2.822223 0,4.5155557 c 0,1.8704044 1.5162623,3.3866663 3.3866667,3.3866663 1.8704044,0 3.3866663,-1.5162619 3.3866663,-3.3866663 0,-1.8704044 -1.5162619,-3.3866667 -3.3866663,-3.3866667 l 0,1.4111111 c 1.0910692,0 1.9755556,0.8844865 1.9755556,1.9755556 0,1.0910692 -0.8844864,1.9755556 -1.9755556,1.9755556 -1.0910691,0 -1.9755556,-0.8844864 -1.9755556,-1.9755556 l 0,-4.5155557 z"
     id="path68"
     inkscape:connector-curvature="0"
     sodipodi:nodetypes="csssccssscc" />
  <path
     style="fill:none;stroke:#ffffff;stroke-width:0.59263468"
     inkscape:connector-curvature="0"
     id="path72"
     d="m -14.016697,29.573585 c 1.338003,1.338002 1.338003,3.507333 0,4.845335 -1.338002,1.338002 -3.507332,1.338002 -4.845334,0 -1.338003,-1.338002 -1.338003,-3.507333 0,-4.845335 1.338002,-1.338002 3.507332,-1.338002 4.845334,0 z" />
  <path
     style="fill:none;stroke:#ffffff;stroke-width:1.22450972"
     inkscape:connector-curvature="0"
     id="C"
     d="m 12.552632,25.269058 c -2.9510564,0.151764 -5.2995822,2.634498 -5.2995822,5.666169 0,3.129442 2.502172,5.666169 5.5867972,5.666169 3.084625,0 5.586797,-2.536727 5.586797,-5.666169 0,-3.129441 -2.502172,-5.666169 -5.586797,-5.666169 -0.09639,0 -0.19202,-0.0047 -0.287215,0 z" />
  <use
     height="13.546667"
     width="13.546667"
     y="0"
     x="0"
     id="use81"
     xlink:href="#C"
     transform="matrix(0.1571696,0,0,0.14879183,-20.729272,-145.9518)" />
</svg>
