<svg viewBox="0 0 48 48"><defs><linearGradient id="linearGradient3764" x1="1" x2="47" gradientUnits="userSpaceOnUse" gradientTransform="translate(-47.997785,0.00221467)"><stop stop-color="#58689e" stop-opacity="1"/><stop offset="1" stop-color="#6273a8" stop-opacity="1"/></linearGradient><clipPath id="clipPath-105434775"><g transform="translate(0,-1004.3622)"><rect rx="4" y="1005.36" x="1" height="46" width="46" fill="#1890d0"/></g></clipPath><clipPath id="clipPath-113615094"><g transform="translate(0,-1004.3622)"><rect rx="4" y="1005.36" x="1" height="46" width="46" fill="#1890d0"/></g></clipPath></defs><g><g transform="translate(0,-1004.3622)"><path d="m 5 1006.36 c -2.216 0 -4 1.784 -4 4 l 0 37.25 c 0 2.216 1.784 4 4 4 l 38 0 c 2.216 0 4 -1.784 4 -4 l 0 -37.25 c 0 -2.216 -1.784 -4 -4 -4 l -38 0 z m -4 41.5 0 0.5 c 0 2.216 1.784 4 4 4 l 38 0 c 2.216 0 4 -1.784 4 -4 l 0 -0.5 c 0 2.216 -1.784 4 -4 4 l -38 0 c -2.216 0 -4 -1.784 -4 -4 z" opacity="0.02"/><path d="m 1 1047.61 0 0.25 c 0 2.216 1.784 4 4 4 l 38 0 c 2.216 0 4 -1.784 4 -4 l 0 -0.25 c 0 2.216 -1.784 4 -4 4 l -38 0 c -2.216 0 -4 -1.784 -4 -4 z" opacity="0.05"/><rect width="46" height="46" x="1" y="1005.61" rx="4" opacity="0.1"/></g></g><g><rect width="46" height="46" x="-46.998" y="1" rx="4" transform="matrix(0,-1,1,0,0,0)" fill="url(#linearGradient3764)" fill-opacity="1"/></g><g/><g><g clip-path="url(#clipPath-105434775)"><g opacity="0.1"><!-- color: #6273a8 --><g><path d="m 22.785 25.05 l 2.449 2.285 c 4.336 -4.25 10.719 -14.43 10.719 -14.43 c 0.258 -0.734 -0.652 -1.199 -1.113 -0.703 c 0 0 -8.25 8.484 -12.05 12.848 m 0 0" fill="#000" stroke="none" fill-rule="nonzero" fill-opacity="1"/><path d="m 18.199 31.21 l 1.355 1.164 l 5.117 -4.434 l 0.168 -0.426 l 0.66 -0.012 c -0.266 -0.941 -1.773 -2.645 -2.902 -2.645 l 0.047 0.656 l -0.402 0.23 l -4.04 5.457 m -0.004 0" fill="#000" stroke="none" fill-rule="nonzero" fill-opacity="1"/><path d="m 12 35.969 c 3.98 0 7 0.477 7.574 -2.418 c 0.461 -2.332 -2.746 -3.449 -4.34 -1.367 c -1.531 2 -3.234 3.781 -3.234 3.781 m 0 0.004" fill="#000" stroke="none" fill-rule="nonzero" fill-opacity="1"/></g></g></g></g><g><g clip-path="url(#clipPath-113615094)"><g transform="translate(0,-1)"><!-- color: #6273a8 --><g><path d="m 22.785 25.05 l 2.449 2.285 c 4.336 -4.25 10.719 -14.43 10.719 -14.43 c 0.258 -0.734 -0.652 -1.199 -1.113 -0.703 c 0 0 -8.25 8.484 -12.05 12.848 m 0 0" fill="#f39c2d" stroke="none" fill-rule="nonzero" fill-opacity="1"/><path d="m 18.199 31.21 l 1.355 1.164 l 5.117 -4.434 l 0.168 -0.426 l 0.66 -0.012 c -0.266 -0.941 -1.773 -2.645 -2.902 -2.645 l 0.047 0.656 l -0.402 0.23 l -4.04 5.457 m -0.004 0" fill="#dedede" stroke="none" fill-rule="nonzero" fill-opacity="1"/><path d="m 12 35.969 c 3.98 0 7 0.477 7.574 -2.418 c 0.461 -2.332 -2.746 -3.449 -4.34 -1.367 c -1.531 2 -3.234 3.781 -3.234 3.781 m 0 0.004" fill="#d04536" stroke="none" fill-rule="nonzero" fill-opacity="1"/></g></g></g></g><g><g transform="translate(0,-1004.3622)"><path d="m 1 1043.36 0 4 c 0 2.216 1.784 4 4 4 l 38 0 c 2.216 0 4 -1.784 4 -4 l 0 -4 c 0 2.216 -1.784 4 -4 4 l -38 0 c -2.216 0 -4 -1.784 -4 -4 z" opacity="0.1"/></g></g></svg>