<svg viewBox="0 0 48 48"><defs><linearGradient id="linearGradient3764" x1="1" x2="47" gradientUnits="userSpaceOnUse" gradientTransform="translate(-47.997785,0.00221467)"><stop stop-color="#efefef" stop-opacity="1"/><stop offset="1" stop-color="#f9f9f9" stop-opacity="1"/></linearGradient><clipPath id="clipPath-094747722"><g transform="translate(0,-1004.3622)"><rect rx="4" y="1005.36" x="1" height="46" width="46" fill="#1890d0"/></g></clipPath><clipPath id="clipPath-103458621"><g transform="translate(0,-1004.3622)"><rect rx="4" y="1005.36" x="1" height="46" width="46" fill="#1890d0"/></g></clipPath></defs><g><g transform="translate(0,-1004.3622)"><path d="m 5 1006.36 c -2.216 0 -4 1.784 -4 4 l 0 37.25 c 0 2.216 1.784 4 4 4 l 38 0 c 2.216 0 4 -1.784 4 -4 l 0 -37.25 c 0 -2.216 -1.784 -4 -4 -4 l -38 0 z m -4 41.5 0 0.5 c 0 2.216 1.784 4 4 4 l 38 0 c 2.216 0 4 -1.784 4 -4 l 0 -0.5 c 0 2.216 -1.784 4 -4 4 l -38 0 c -2.216 0 -4 -1.784 -4 -4 z" opacity="0.02"/><path d="m 1 1047.61 0 0.25 c 0 2.216 1.784 4 4 4 l 38 0 c 2.216 0 4 -1.784 4 -4 l 0 -0.25 c 0 2.216 -1.784 4 -4 4 l -38 0 c -2.216 0 -4 -1.784 -4 -4 z" opacity="0.05"/><rect width="46" height="46" x="1" y="1005.61" rx="4" opacity="0.1"/></g></g><g><rect width="46" height="46" x="-46.998" y="1" rx="4" transform="matrix(0,-1,1,0,0,0)" fill="url(#linearGradient3764)" fill-opacity="1"/></g><g/><g><g clip-path="url(#clipPath-094747722)"><g opacity="0.1"><!-- color: #f9f9f9 --><g><path d="m 12.805 12 c -0.438 0.047 -0.809 0.461 -0.805 0.902 l 0 15.1 c 0 0.473 0.527 1 1 1 l 9 0 l 0 6 l 4 0 l 0 -6 l 9 0 c 0.473 0 1 -0.527 1 -1 l 0 -15.1 c 0 -0.473 -0.43 -0.902 -0.898 -0.902 m -20.1 2 l 18 0 c 0.469 0 1 0.586 1 1 l 0 11 c 0 0.469 -0.566 1 -1 1 l -18 0 c -0.527 0 -1 -0.48 -1 -1 l 0 -11 c 0 -0.406 0.512 -1 1 -1 m 0 19 l 0 3 l 18 0 l 0 -3 m -18 0" stroke="none" fill-rule="nonzero" fill-opacity="1" fill="#000"/><path d="m 13.5 12.5 l 0 16 l 21 0 l 0 -16 m -8.5 1.5 l 8 8 l -8 0 m 0 -8" stroke="none" fill-rule="nonzero" fill-opacity="1" fill="#000"/></g></g></g></g><g><g clip-path="url(#clipPath-103458621)"><g transform="translate(0,-1)"><!-- color: #f9f9f9 --><g><path d="m 12.805 12 c -0.438 0.047 -0.809 0.461 -0.805 0.902 l 0 15.1 c 0 0.473 0.527 1 1 1 l 9 0 l 0 6 l 4 0 l 0 -6 l 9 0 c 0.473 0 1 -0.527 1 -1 l 0 -15.1 c 0 -0.473 -0.43 -0.902 -0.898 -0.902 m -20.1 2 l 18 0 c 0.469 0 1 0.586 1 1 l 0 11 c 0 0.469 -0.566 1 -1 1 l -18 0 c -0.527 0 -1 -0.48 -1 -1 l 0 -11 c 0 -0.406 0.512 -1 1 -1 m 0 19 l 0 3 l 18 0 l 0 -3 m -18 0" fill="#ec5370" stroke="none" fill-rule="nonzero" fill-opacity="1"/><path d="m 13.5 12.5 l 0 16 l 21 0 l 0 -16 m -8.5 1.5 l 8 8 l -8 0 m 0 -8" fill="#ec5370" stroke="none" fill-rule="nonzero" fill-opacity="1"/></g></g></g></g><g><g transform="translate(0,-1004.3622)"><path d="m 1 1043.36 0 4 c 0 2.216 1.784 4 4 4 l 38 0 c 2.216 0 4 -1.784 4 -4 l 0 -4 c 0 2.216 -1.784 4 -4 4 l -38 0 c -2.216 0 -4 -1.784 -4 -4 z" opacity="0.1"/></g></g></svg>