<svg viewBox="0 0 48 48"><defs><linearGradient id="linearGradient3764" x1="1" x2="47" gradientUnits="userSpaceOnUse" gradientTransform="translate(-47.997785,0.00221467)"><stop stop-color="#3d3d3d" stop-opacity="1"/><stop offset="1" stop-color="#474747" stop-opacity="1"/></linearGradient><clipPath id="clipPath-796036218"><g transform="translate(0,-1004.3622)"><rect rx="4" y="1005.36" x="1" height="46" width="46" fill="#1890d0"/></g></clipPath><clipPath id="clipPath-804601006"><g transform="translate(0,-1004.3622)"><rect rx="4" y="1005.36" x="1" height="46" width="46" fill="#1890d0"/></g></clipPath></defs><g><g transform="translate(0,-1004.3622)"><path d="m 5 1006.36 c -2.216 0 -4 1.784 -4 4 l 0 37.25 c 0 2.216 1.784 4 4 4 l 38 0 c 2.216 0 4 -1.784 4 -4 l 0 -37.25 c 0 -2.216 -1.784 -4 -4 -4 l -38 0 z m -4 41.5 0 0.5 c 0 2.216 1.784 4 4 4 l 38 0 c 2.216 0 4 -1.784 4 -4 l 0 -0.5 c 0 2.216 -1.784 4 -4 4 l -38 0 c -2.216 0 -4 -1.784 -4 -4 z" opacity="0.02"/><path d="m 1 1047.61 0 0.25 c 0 2.216 1.784 4 4 4 l 38 0 c 2.216 0 4 -1.784 4 -4 l 0 -0.25 c 0 2.216 -1.784 4 -4 4 l -38 0 c -2.216 0 -4 -1.784 -4 -4 z" opacity="0.05"/><rect width="46" height="46" x="1" y="1005.61" rx="4" opacity="0.1"/></g></g><g><rect width="46" height="46" x="-46.998" y="1" rx="4" transform="matrix(0,-1,1,0,0,0)" fill="url(#linearGradient3764)" fill-opacity="1"/></g><g/><g><g clip-path="url(#clipPath-796036218)"><g opacity="0.1"><!-- color: #474747 --><g><path d="m 16.313 26 l 15.371 0 c 2.938 0 5.316 2.238 5.316 5 c 0 2.762 -2.379 5 -5.316 5 l -15.371 0 c -2.934 0 -5.313 -2.238 -5.313 -5 c 0 -2.762 2.379 -5 5.313 -5 m 0 0" fill="#000" stroke="none" fill-rule="nonzero" fill-opacity="1"/><path d="m 16.313 12 l 15.371 0 c 2.938 0 5.316 2.238 5.316 5 c 0 2.762 -2.379 5 -5.316 5 l -15.371 0 c -2.934 0 -5.313 -2.238 -5.313 -5 c 0 -2.762 2.379 -5 5.313 -5 m 0 0" fill="#000" stroke="none" fill-rule="nonzero" fill-opacity="1"/><path d="m 27.25 27 l 4.496 0 c 2.352 0 4.254 1.793 4.254 4 c 0 2.211 -1.902 4 -4.254 4 l -4.496 0 c -2.348 0 -4.25 -1.789 -4.25 -4 c 0 -2.207 1.902 -4 4.25 -4 m 0 0" fill="#000" stroke="none" fill-rule="nonzero" fill-opacity="1"/><path d="m 16.254 13 l 4.496 0 c 2.348 0 4.25 1.793 4.25 4 c 0 2.211 -1.902 4 -4.25 4 l -4.496 0 c -2.348 0 -4.254 -1.789 -4.254 -4 c 0 -2.207 1.906 -4 4.254 -4 m 0 0" fill="#000" stroke="none" fill-rule="nonzero" fill-opacity="1"/></g></g></g></g><g><g clip-path="url(#clipPath-804601006)"><g transform="translate(0,-1)"><!-- color: #474747 --><g><path d="m 16.313 26 l 15.371 0 c 2.938 0 5.316 2.238 5.316 5 c 0 2.762 -2.379 5 -5.316 5 l -15.371 0 c -2.934 0 -5.313 -2.238 -5.313 -5 c 0 -2.762 2.379 -5 5.313 -5 m 0 0" fill="#f9f9f9" stroke="none" fill-rule="nonzero" fill-opacity="1"/><path d="m 16.313 12 l 15.371 0 c 2.938 0 5.316 2.238 5.316 5 c 0 2.762 -2.379 5 -5.316 5 l -15.371 0 c -2.934 0 -5.313 -2.238 -5.313 -5 c 0 -2.762 2.379 -5 5.313 -5 m 0 0" fill="#f9f9f9" stroke="none" fill-rule="nonzero" fill-opacity="1"/><path d="m 27.25 27 l 4.496 0 c 2.352 0 4.254 1.793 4.254 4 c 0 2.211 -1.902 4 -4.254 4 l -4.496 0 c -2.348 0 -4.25 -1.789 -4.25 -4 c 0 -2.207 1.902 -4 4.25 -4 m 0 0" fill="#999" stroke="none" fill-rule="nonzero" fill-opacity="1"/><path d="m 16.254 13 l 4.496 0 c 2.348 0 4.25 1.793 4.25 4 c 0 2.211 -1.902 4 -4.25 4 l -4.496 0 c -2.348 0 -4.254 -1.789 -4.254 -4 c 0 -2.207 1.906 -4 4.254 -4 m 0 0" fill="#d04536" stroke="none" fill-rule="nonzero" fill-opacity="1"/></g></g></g></g><g><g transform="translate(0,-1004.3622)"><path d="m 1 1043.36 0 4 c 0 2.216 1.784 4 4 4 l 38 0 c 2.216 0 4 -1.784 4 -4 l 0 -4 c 0 2.216 -1.784 4 -4 4 l -38 0 c -2.216 0 -4 -1.784 -4 -4 z" opacity="0.1"/></g></g></svg>