<svg xmlns="http://www.w3.org/2000/svg" xmlns:xlink="http://www.w3.org/1999/xlink" width="48" viewBox="0 0 13.546667 13.546667" height="48">
 <defs>
  <linearGradient id="0">
   <stop stop-color="#6dc843"/>
   <stop offset="1" stop-color="#d2d2d2"/>
  </linearGradient>
  <linearGradient id="1">
   <stop stop-color="#868bec"/>
   <stop offset="1" stop-color="#cfcfcf"/>
  </linearGradient>
  <linearGradient xlink:href="#1" id="2" x1="5.644" x2="8.184" gradientUnits="userSpaceOnUse"/>
  <linearGradient xlink:href="#0" id="3" x1="5.472" y1="6.716" x2="8.935" y2="6.744" gradientUnits="userSpaceOnUse"/>
 </defs>
 <rect width="3.887" x="5.629" y="5.579" height="1.129" fill="#ff6f05"/>
 <path d="m 9.3070859,5.5794679 0,1.1286574 0.687911,0 c 0,0 0.1589791,-0.091697 0.1587491,-0.5643287 7e-6,-0.4552976 -0.1763881,-0.5643287 -0.1763881,-0.5643287 l -0.670272,0 z" fill="#ff2d5e"/>
 <path d="m 5.6382259,5.5795803 -1.12888,0.5643331 1.12888,0.5643332 0,-1.1286663 z" fill="#ffc13e"/>
 <path d="m 5.0737859,5.8569644 -0.56444,0.286949 0.56444,0.2869492 0,-0.5738982 z" fill="#2d2d2d"/>
 <g transform="matrix(0.28222223,0,0,0.28222223,0,-283.45334)">
  <path transform="translate(0,1004.3622)" d="M 5.1875,1 C 2.8707723,1 1,2.8707723 1,5.1875 l 0,37.625 C 1,45.129228 2.8707723,47 5.1875,47 l 37.625,0 C 45.129228,47 47,45.129228 47,42.8125 L 47,5.1875 C 47,2.8707723 45.129228,1 42.8125,1 L 5.1875,1 z m 0.1875,0.25 37.25,0 c 2.291546,0 4.125,1.8334541 4.125,4.125 l 0,37.25 c 0,2.291546 -1.833454,4.125 -4.125,4.125 l -37.25,0 C 3.0834541,46.75 1.25,44.916546 1.25,42.625 l 0,-37.25 C 1.25,3.0834541 3.0834541,1.25 5.375,1.25 z" opacity="0.05"/>
  <path transform="translate(0,1004.3622)" d="M 5.375,1.25 C 3.0834541,1.25 1.25,3.0834541 1.25,5.375 l 0,37.25 c 0,2.291546 1.8334541,4.125 4.125,4.125 l 37.25,0 c 2.291546,0 4.125,-1.833454 4.125,-4.125 l 0,-37.25 C 46.75,3.0834541 44.916546,1.25 42.625,1.25 l -37.25,0 z m 0.21875,0.25 36.8125,0 C 44.672614,1.5 46.5,3.3273859 46.5,5.59375 l 0,36.8125 C 46.5,44.672614 44.672614,46.5 42.40625,46.5 l -36.8125,0 C 3.3273859,46.5 1.5,44.672614 1.5,42.40625 l 0,-36.8125 C 1.5,3.3273859 3.3273859,1.5 5.59375,1.5 z" opacity="0.1"/>
  <path transform="translate(0,1004.3622)" d="M 5.59375,1.5 C 3.3273859,1.5 1.5,3.3273859 1.5,5.59375 l 0,36.8125 C 1.5,44.672614 3.3273859,46.5 5.59375,46.5 l 36.8125,0 C 44.672614,46.5 46.5,44.672614 46.5,42.40625 l 0,-36.8125 C 46.5,3.3273859 44.672614,1.5 42.40625,1.5 l -36.8125,0 z m 0.09375,0.125 36.625,0 c 2.253773,0 4.0625,1.8087269 4.0625,4.0625 l 0,36.625 c 0,2.253773 -1.808727,4.0625 -4.0625,4.0625 l -36.625,0 c -2.2537731,0 -4.0625,-1.808727 -4.0625,-4.0625 l 0,-36.625 C 1.625,3.4337269 3.4337269,1.625 5.6875,1.625 z" opacity="0.2"/>
  <path transform="translate(0,1004.3622)" d="M 5.6875,1.625 C 3.4337269,1.625 1.625,3.4337269 1.625,5.6875 l 0,36.625 c 0,2.253773 1.8087269,4.0625 4.0625,4.0625 l 36.625,0 c 2.253773,0 4.0625,-1.808727 4.0625,-4.0625 l 0,-36.625 c 0,-2.2537731 -1.808727,-4.0625 -4.0625,-4.0625 l -36.625,0 z m 0.09375,0.125 36.4375,0 c 2.241182,0 4.03125,1.7900679 4.03125,4.03125 l 0,36.4375 c 0,2.241182 -1.790068,4.03125 -4.03125,4.03125 l -36.4375,0 C 3.5400679,46.25 1.75,44.459932 1.75,42.21875 l 0,-36.4375 C 1.75,3.5400679 3.5400679,1.75 5.78125,1.75 z" opacity="0.3"/>
  <path transform="translate(0,1004.3622)" d="M 5.78125,1.75 C 3.5400679,1.75 1.75,3.5400679 1.75,5.78125 l 0,36.4375 c 0,2.241182 1.7900679,4.03125 4.03125,4.03125 l 36.4375,0 c 2.241182,0 4.03125,-1.790068 4.03125,-4.03125 l 0,-36.4375 C 46.25,3.5400679 44.459932,1.75 42.21875,1.75 l -36.4375,0 z m 0.125,0.125 36.1875,0 c 2.228591,0 4.03125,1.802659 4.03125,4.03125 l 0,36.1875 c 0,2.228591 -1.802659,4.03125 -4.03125,4.03125 l -36.1875,0 C 3.677659,46.125 1.875,44.322341 1.875,42.09375 l 0,-36.1875 C 1.875,3.677659 3.677659,1.875 5.90625,1.875 z" opacity="0.4"/>
  <rect width="44.25" height="44.25" x="1.875" y="1006.24" rx="4.02" opacity="0.5"/>
 </g>
 <rect width="12.418" height="12.418" x="0.564" y="0.564" rx="1.129" fill="url(#3)"/>
 <path d="M 7.170208,7.9551361 1.014236,12.752914 c 0.188675,0.141749 0.423893,0.229305 0.679097,0.229305 l 9.745486,0 -4.268611,-5.0270829 z" fill="url(#2)"/>
 <path d="m 12.982222,2.9456913 -6.19125,4.8595138 4.674306,5.1770139 0.388055,0 c 0.625405,0 1.128889,-0.503484 1.128889,-1.128889 l 0,-8.9076387 z" fill="#c2c2c2"/>
 <path d="M 12.982222,1.9931913 0.599722,12.126733 c 0.121337,0.492853 0.562268,0.855486 1.093611,0.855486 l 0.3175,0 4.841875,-3.9952079 3.439584,3.9952079 1.561041,0 c 0.07224,0 0.143268,-0.01361 0.211667,-0.02646 l -4.162778,-4.8330539 5.08,-4.1804166 0,-1.9490972 z" fill="#ffe991"/>
 <rect width="3.887" x="4.788" y="5.927" height="1.129" fill="#ff6f05"/>
 <path d="m 8.466629,5.9267768 0,1.1286575 0.687911,0 c 0,0 0.158979,-0.091697 0.158749,-0.5643287 7e-6,-0.4552976 -0.176388,-0.5643288 -0.176388,-0.5643288 l -0.670272,0 z" fill="#ff2d5e"/>
 <path d="m 4.797769,5.9268894 -1.12888,0.564333 1.12888,0.5643333 0,-1.1286663 z" fill="#ffc13e"/>
 <path d="m 4.233329,6.2042735 -0.56444,0.2869489 0.56444,0.2869492 0,-0.5738981 z" fill="#2d2d2d"/>
</svg>
