<svg xmlns="http://www.w3.org/2000/svg" xmlns:xlink="http://www.w3.org/1999/xlink" width="48" viewBox="0 0 13.546667 13.546667" height="48">
 <defs>
  <linearGradient id="0">
   <stop stop-color="#dedede"/>
   <stop offset="1" stop-color="#f9f9f9"/>
  </linearGradient>
  <linearGradient xlink:href="#0" id="1" gradientUnits="userSpaceOnUse" gradientTransform="matrix(0.28222223,0,0,0.28222223,5.6916667e-7,-283.45334)" y1="1050.36" x2="0" y2="1006.36"/>
 </defs>
 <g transform="matrix(0.28222223,0,0,0.28222223,0,-283.45334)">
  <path d="M 5.1875,1 C 2.8707723,1 1,2.8707723 1,5.1875 l 0,37.625 C 1,45.129228 2.8707723,47 5.1875,47 l 37.625,0 C 45.129228,47 47,45.129228 47,42.8125 L 47,5.1875 C 47,2.8707723 45.129228,1 42.8125,1 L 5.1875,1 z m 0.1875,0.25 37.25,0 c 2.291546,0 4.125,1.8334541 4.125,4.125 l 0,37.25 c 0,2.291546 -1.833454,4.125 -4.125,4.125 l -37.25,0 C 3.0834541,46.75 1.25,44.916546 1.25,42.625 l 0,-37.25 C 1.25,3.0834541 3.0834541,1.25 5.375,1.25 z" transform="translate(0,1004.3622)" opacity="0.05"/>
  <path d="M 5.375,1.25 C 3.0834541,1.25 1.25,3.0834541 1.25,5.375 l 0,37.25 c 0,2.291546 1.8334541,4.125 4.125,4.125 l 37.25,0 c 2.291546,0 4.125,-1.833454 4.125,-4.125 l 0,-37.25 C 46.75,3.0834541 44.916546,1.25 42.625,1.25 l -37.25,0 z m 0.21875,0.25 36.8125,0 C 44.672614,1.5 46.5,3.3273859 46.5,5.59375 l 0,36.8125 C 46.5,44.672614 44.672614,46.5 42.40625,46.5 l -36.8125,0 C 3.3273859,46.5 1.5,44.672614 1.5,42.40625 l 0,-36.8125 C 1.5,3.3273859 3.3273859,1.5 5.59375,1.5 z" transform="translate(0,1004.3622)" opacity="0.1"/>
  <path d="M 5.59375,1.5 C 3.3273859,1.5 1.5,3.3273859 1.5,5.59375 l 0,36.8125 C 1.5,44.672614 3.3273859,46.5 5.59375,46.5 l 36.8125,0 C 44.672614,46.5 46.5,44.672614 46.5,42.40625 l 0,-36.8125 C 46.5,3.3273859 44.672614,1.5 42.40625,1.5 l -36.8125,0 z m 0.09375,0.125 36.625,0 c 2.253773,0 4.0625,1.8087269 4.0625,4.0625 l 0,36.625 c 0,2.253773 -1.808727,4.0625 -4.0625,4.0625 l -36.625,0 c -2.2537731,0 -4.0625,-1.808727 -4.0625,-4.0625 l 0,-36.625 C 1.625,3.4337269 3.4337269,1.625 5.6875,1.625 z" transform="translate(0,1004.3622)" opacity="0.2"/>
  <path d="M 5.6875,1.625 C 3.4337269,1.625 1.625,3.4337269 1.625,5.6875 l 0,36.625 c 0,2.253773 1.8087269,4.0625 4.0625,4.0625 l 36.625,0 c 2.253773,0 4.0625,-1.808727 4.0625,-4.0625 l 0,-36.625 c 0,-2.2537731 -1.808727,-4.0625 -4.0625,-4.0625 l -36.625,0 z m 0.09375,0.125 36.4375,0 c 2.241182,0 4.03125,1.7900679 4.03125,4.03125 l 0,36.4375 c 0,2.241182 -1.790068,4.03125 -4.03125,4.03125 l -36.4375,0 C 3.5400679,46.25 1.75,44.459932 1.75,42.21875 l 0,-36.4375 C 1.75,3.5400679 3.5400679,1.75 5.78125,1.75 z" transform="translate(0,1004.3622)" opacity="0.3"/>
  <path d="M 5.78125,1.75 C 3.5400679,1.75 1.75,3.5400679 1.75,5.78125 l 0,36.4375 c 0,2.241182 1.7900679,4.03125 4.03125,4.03125 l 36.4375,0 c 2.241182,0 4.03125,-1.790068 4.03125,-4.03125 l 0,-36.4375 C 46.25,3.5400679 44.459932,1.75 42.21875,1.75 l -36.4375,0 z m 0.125,0.125 36.1875,0 c 2.228591,0 4.03125,1.802659 4.03125,4.03125 l 0,36.1875 c 0,2.228591 -1.802659,4.03125 -4.03125,4.03125 l -36.1875,0 C 3.677659,46.125 1.875,44.322341 1.875,42.09375 l 0,-36.1875 C 1.875,3.677659 3.677659,1.875 5.90625,1.875 z" transform="translate(0,1004.3622)" opacity="0.4"/>
  <rect rx="4.02" y="1006.24" x="1.875" height="44.25" width="44.25" opacity="0.5"/>
 </g>
 <rect rx="1.129" y="0.564" x="0.564" height="12.418" width="12.418" fill="url(#1)"/>
 <g color="#000">
  <path d="m 3.2543773,3.6688892 c -0.08263,0.0088 -0.1503746,0.084436 -0.1499306,0.1675695 l 0,3.0515278 c 9e-6,0.08873 0.078905,0.1675554 0.1675694,0.1675695 l 1.525764,0 0,0.5644444 -1.1288889,0 0,0.5644445 2.0549306,0 0,-1.6933334 -1.9314584,0 C 3.7332533,6.4910974 3.6777165,6.4356139 3.6777106,6.3764587 l 0,-2.0284722 c -9.313e-4,-0.05272 0.036444,-0.1048239 0.088194,-0.1146528 0.007,-0.00141 0.019417,-0.00141 0.026458,0 l 3.1397223,0 c 0.05911,1.41e-5 0.1146477,0.055498 0.1146528,0.1146528 l 0,0.8113889 0.5732639,0 0,-1.3229167 c -9.1e-6,-0.08871 -0.078906,-0.1675415 -0.1675695,-0.1675695 l -4.1804168,0 z" fill="#c0274b"/>
  <path d="m 6.0783661,5.3622228 c -0.08263,0.0088 -0.152139,0.08633 -0.151695,0.169463 l 0,3.0503497 c 9e-6,0.08873 0.08067,0.169449 0.169334,0.169463 l 1.523999,0 -1e-6,0.8438408 1.128889,0 0,-0.8438408 1.5239999,0 c 0.08866,-1.4e-5 0.169323,-0.08074 0.169332,-0.169463 l 0,-3.0503497 c -9e-6,-0.08871 -0.08067,-0.169435 -0.169332,-0.169463 l -4.1768869,0 z m 0.511698,0.5648766 c 0.007,-0.0014 0.01413,-0.0014 0.02117,0 l 3.146056,0 c 0.05911,1.4e-5 0.112883,0.05382 0.112888,0.112975 l 0,2.033387 c -5e-6,0.05916 -0.05378,0.112961 -0.112888,0.1129751 l -3.146056,0 c -0.05911,-1.41e-5 -0.112883,-0.05382 -0.112889,-0.1129751 l 0,-2.033387 c -9.31e-4,-0.05272 0.03997,-0.103146 0.09172,-0.112975 z m -0.09895,3.385802 0,0.5648766 3.386667,0 0,-0.5648766 z" fill="#283a51"/>
 </g>
</svg>
