<svg viewBox="0 0 48 48"><defs><linearGradient id="linearGradient3764" x1="1" x2="47" gradientUnits="userSpaceOnUse" gradientTransform="translate(-47.997785,0.00221467)"><stop stop-color="#58b1b6" stop-opacity="1"/><stop offset="1" stop-color="#66b6bc" stop-opacity="1"/></linearGradient><clipPath id="clipPath-657317992"><g transform="translate(0,-1004.3622)"><rect rx="4" y="1005.36" x="1" height="46" width="46" fill="#1890d0"/></g></clipPath><clipPath id="clipPath-675626104"><g transform="translate(0,-1004.3622)"><rect rx="4" y="1005.36" x="1" height="46" width="46" fill="#1890d0"/></g></clipPath></defs><g><g transform="translate(0,-1004.3622)"><path d="m 5 1006.36 c -2.216 0 -4 1.784 -4 4 l 0 37.25 c 0 2.216 1.784 4 4 4 l 38 0 c 2.216 0 4 -1.784 4 -4 l 0 -37.25 c 0 -2.216 -1.784 -4 -4 -4 l -38 0 z m -4 41.5 0 0.5 c 0 2.216 1.784 4 4 4 l 38 0 c 2.216 0 4 -1.784 4 -4 l 0 -0.5 c 0 2.216 -1.784 4 -4 4 l -38 0 c -2.216 0 -4 -1.784 -4 -4 z" opacity="0.02"/><path d="m 1 1047.61 0 0.25 c 0 2.216 1.784 4 4 4 l 38 0 c 2.216 0 4 -1.784 4 -4 l 0 -0.25 c 0 2.216 -1.784 4 -4 4 l -38 0 c -2.216 0 -4 -1.784 -4 -4 z" opacity="0.05"/><rect width="46" height="46" x="1" y="1005.61" rx="4" opacity="0.1"/></g></g><g><rect width="46" height="46" x="-46.998" y="1" rx="4" transform="matrix(0,-1,1,0,0,0)" fill="url(#linearGradient3764)" fill-opacity="1"/></g><g/><g><g clip-path="url(#clipPath-657317992)"><g opacity="0.1"><!-- color: #66b6bc --><g><path d="m 31 17.5 c 0 1.379 -1.121 2.5 -2.5 2.5 c -1.383 0 -2.5 -1.121 -2.5 -2.5 c 0 -1.379 1.117 -2.5 2.5 -2.5 c 1.379 0 2.5 1.121 2.5 2.5 m 0 0" fill="#000" stroke="none" fill-rule="nonzero" fill-opacity="1"/><path d="m 24 27.5 l 4 -5.5 l 5.102 9 l -6.102 1 m -3 -4.5" fill="#000" stroke="none" fill-rule="nonzero" fill-opacity="1"/><path d="m 15 31 l 6 -11 l 6 11 l -6 1 m -6 -1" fill="#000" stroke="none" fill-rule="nonzero" fill-opacity="1"/><path d="m 15 12 c -0.344 0 -1 0.586 -1 1 l 0 22 c 0 0.414 0.656 1 1 1 l 18 0 c 0.344 0 0.996 -0.586 0.996 -1 l 0 -22 c 0 -0.414 -0.652 -1 -0.996 -1 m -18 1 l 18 0 l 0 18 l -18 0 m 0 -18" fill="#000" stroke="none" fill-rule="nonzero" fill-opacity="1"/></g></g></g></g><g><g clip-path="url(#clipPath-675626104)"><g transform="translate(0,-1)"><!-- color: #66b6bc --><g><path d="m 31 17.5 c 0 1.379 -1.121 2.5 -2.5 2.5 c -1.383 0 -2.5 -1.121 -2.5 -2.5 c 0 -1.379 1.117 -2.5 2.5 -2.5 c 1.379 0 2.5 1.121 2.5 2.5 m 0 0" fill="#edb14c" stroke="none" fill-rule="nonzero" fill-opacity="1"/><path d="m 24 27.5 l 4 -5.5 l 5.102 9 l -6.102 1 m -3 -4.5" fill="#212c3c" stroke="none" fill-rule="nonzero" fill-opacity="1"/><path d="m 15 31 l 6 -11 l 6 11 l -6 1 m -6 -1" fill="#3c424c" stroke="none" fill-rule="nonzero" fill-opacity="1"/><path d="m 15 12 c -0.344 0 -1 0.586 -1 1 l 0 22 c 0 0.414 0.656 1 1 1 l 18 0 c 0.344 0 0.996 -0.586 0.996 -1 l 0 -22 c 0 -0.414 -0.652 -1 -0.996 -1 m -18 1 l 18 0 l 0 18 l -18 0 m 0 -18" fill="#f9f9f9" stroke="none" fill-rule="nonzero" fill-opacity="1"/></g></g></g></g><g><g transform="translate(0,-1004.3622)"><path d="m 1 1043.36 0 4 c 0 2.216 1.784 4 4 4 l 38 0 c 2.216 0 4 -1.784 4 -4 l 0 -4 c 0 2.216 -1.784 4 -4 4 l -38 0 c -2.216 0 -4 -1.784 -4 -4 z" opacity="0.1"/></g></g></svg>