<?xml version="1.0" encoding="UTF-8" standalone="no"?>
<svg
   xmlns:dc="http://purl.org/dc/elements/1.1/"
   xmlns:cc="http://creativecommons.org/ns#"
   xmlns:rdf="http://www.w3.org/1999/02/22-rdf-syntax-ns#"
   xmlns:svg="http://www.w3.org/2000/svg"
   xmlns="http://www.w3.org/2000/svg"
   xmlns:xlink="http://www.w3.org/1999/xlink"
   xmlns:sodipodi="http://sodipodi.sourceforge.net/DTD/sodipodi-0.dtd"
   xmlns:inkscape="http://www.inkscape.org/namespaces/inkscape"
   width="48"
   viewBox="0 0 13.546667 13.546667"
   height="48"
   id="svg2"
   version="1.1"
   inkscape:version="0.48.4 r9939"
   sodipodi:docname="skype-call-recorder.svg">
  <metadata
     id="metadata22">
    <rdf:RDF>
      <cc:Work
         rdf:about="">
        <dc:format>image/svg+xml</dc:format>
        <dc:type
           rdf:resource="http://purl.org/dc/dcmitype/StillImage" />
        <dc:title />
      </cc:Work>
    </rdf:RDF>
  </metadata>
  <sodipodi:namedview
     pagecolor="#ffffff"
     bordercolor="#666666"
     borderopacity="1"
     objecttolerance="10"
     gridtolerance="10"
     guidetolerance="10"
     inkscape:pageopacity="0"
     inkscape:pageshadow="2"
     inkscape:window-width="1280"
     inkscape:window-height="998"
     id="namedview20"
     showgrid="false"
     inkscape:zoom="8.3986678"
     inkscape:cx="23.859275"
     inkscape:cy="36.421347"
     inkscape:window-x="0"
     inkscape:window-y="0"
     inkscape:window-maximized="1"
     inkscape:current-layer="svg2" />
  <defs
     id="defs4">
    <linearGradient
       id="linearGradient4460">
      <stop
         offset="0"
         style="stop-color:#01aaea"
         id="stop7" />
      <stop
         offset="1"
         style="stop-color:#2ac4fe"
         id="stop9" />
    </linearGradient>
    <linearGradient
       gradientTransform="matrix(1.10525,0,0,1.10525,-134.27874,-295.76183)"
       xlink:href="#linearGradient4460"
       id="linearGradient3140"
       y1="279.096"
       y2="268.33"
       gradientUnits="userSpaceOnUse"
       x2="0" />
    <linearGradient
       x2="0"
       gradientUnits="userSpaceOnUse"
       y2="268.33"
       y1="279.096"
       id="linearGradient3015"
       xlink:href="#linearGradient4460-9"
       gradientTransform="matrix(1.10525,0,0,1.10525,-134.27874,-295.76183)" />
    <linearGradient
       id="linearGradient4460-9">
      <stop
         id="stop7-3"
         style="stop-color:#2d2d2d"
         offset="0" />
      <stop
         id="stop9-9"
         style="stop-color:#4b4b4b"
         offset="1" />
    </linearGradient>
    <linearGradient
       inkscape:collect="always"
       xlink:href="#linearGradient4460-9"
       id="linearGradient3800"
       gradientUnits="userSpaceOnUse"
       gradientTransform="matrix(1.10525,0,0,1.10525,-134.27874,-295.76183)"
       y1="279.096"
       x2="0"
       y2="268.33" />
    <linearGradient
       inkscape:collect="always"
       xlink:href="#linearGradient4460-9"
       id="linearGradient3804"
       gradientUnits="userSpaceOnUse"
       gradientTransform="matrix(1.10525,0,0,1.10525,-118.91422,-295.84106)"
       y1="279.096"
       x2="0"
       y2="268.33" />
    <linearGradient
       inkscape:collect="always"
       xlink:href="#linearGradient4460-9"
       id="linearGradient3808"
       gradientUnits="userSpaceOnUse"
       gradientTransform="matrix(1.10525,0,0,1.10525,-134.27874,-295.76183)"
       y1="279.09601"
       x2="0"
       y2="268.32999" />
    <linearGradient
       inkscape:collect="always"
       xlink:href="#linearGradient4460-9"
       id="linearGradient3092"
       gradientUnits="userSpaceOnUse"
       gradientTransform="matrix(0.28222223,0,0,0.28222223,9.9916667e-7,-283.45334)"
       y1="1050.36"
       x2="0"
       y2="1006.36" />
    <linearGradient
       id="linearGradient4460-3">
      <stop
         offset="0"
         style="stop-color:#cecece;stop-opacity:1;"
         id="stop7-5" />
      <stop
         offset="1"
         style="stop-color:#e9e9e9;stop-opacity:1;"
         id="stop9-3" />
    </linearGradient>
  </defs>
  <g
     id="g64"
     transform="matrix(0.28222223,0,0,0.28222223,0,-283.45334)">
    <path
       id="path66"
       d="M 5.1875,1 C 2.8707723,1 1,2.8707723 1,5.1875 l 0,37.625 C 1,45.129228 2.8707723,47 5.1875,47 l 37.625,0 C 45.129228,47 47,45.129228 47,42.8125 L 47,5.1875 C 47,2.8707723 45.129228,1 42.8125,1 L 5.1875,1 z m 0.1875,0.25 37.25,0 c 2.291546,0 4.125,1.8334541 4.125,4.125 l 0,37.25 c 0,2.291546 -1.833454,4.125 -4.125,4.125 l -37.25,0 C 3.0834541,46.75 1.25,44.916546 1.25,42.625 l 0,-37.25 C 1.25,3.0834541 3.0834541,1.25 5.375,1.25 z"
       transform="translate(0,1004.3622)"
       inkscape:connector-curvature="0"
       style="opacity:0.05" />
    <path
       id="path68"
       d="M 5.375,1.25 C 3.0834541,1.25 1.25,3.0834541 1.25,5.375 l 0,37.25 c 0,2.291546 1.8334541,4.125 4.125,4.125 l 37.25,0 c 2.291546,0 4.125,-1.833454 4.125,-4.125 l 0,-37.25 C 46.75,3.0834541 44.916546,1.25 42.625,1.25 l -37.25,0 z m 0.21875,0.25 36.8125,0 C 44.672614,1.5 46.5,3.3273859 46.5,5.59375 l 0,36.8125 C 46.5,44.672614 44.672614,46.5 42.40625,46.5 l -36.8125,0 C 3.3273859,46.5 1.5,44.672614 1.5,42.40625 l 0,-36.8125 C 1.5,3.3273859 3.3273859,1.5 5.59375,1.5 z"
       transform="translate(0,1004.3622)"
       inkscape:connector-curvature="0"
       style="opacity:0.1" />
    <path
       id="path70"
       d="M 5.59375,1.5 C 3.3273859,1.5 1.5,3.3273859 1.5,5.59375 l 0,36.8125 C 1.5,44.672614 3.3273859,46.5 5.59375,46.5 l 36.8125,0 C 44.672614,46.5 46.5,44.672614 46.5,42.40625 l 0,-36.8125 C 46.5,3.3273859 44.672614,1.5 42.40625,1.5 l -36.8125,0 z m 0.09375,0.125 36.625,0 c 2.253773,0 4.0625,1.8087269 4.0625,4.0625 l 0,36.625 c 0,2.253773 -1.808727,4.0625 -4.0625,4.0625 l -36.625,0 c -2.2537731,0 -4.0625,-1.808727 -4.0625,-4.0625 l 0,-36.625 C 1.625,3.4337269 3.4337269,1.625 5.6875,1.625 z"
       transform="translate(0,1004.3622)"
       inkscape:connector-curvature="0"
       style="opacity:0.2" />
    <path
       id="path72"
       d="M 5.6875,1.625 C 3.4337269,1.625 1.625,3.4337269 1.625,5.6875 l 0,36.625 c 0,2.253773 1.8087269,4.0625 4.0625,4.0625 l 36.625,0 c 2.253773,0 4.0625,-1.808727 4.0625,-4.0625 l 0,-36.625 c 0,-2.2537731 -1.808727,-4.0625 -4.0625,-4.0625 l -36.625,0 z m 0.09375,0.125 36.4375,0 c 2.241182,0 4.03125,1.7900679 4.03125,4.03125 l 0,36.4375 c 0,2.241182 -1.790068,4.03125 -4.03125,4.03125 l -36.4375,0 C 3.5400679,46.25 1.75,44.459932 1.75,42.21875 l 0,-36.4375 C 1.75,3.5400679 3.5400679,1.75 5.78125,1.75 z"
       transform="translate(0,1004.3622)"
       inkscape:connector-curvature="0"
       style="opacity:0.3" />
    <path
       id="path74"
       d="M 5.78125,1.75 C 3.5400679,1.75 1.75,3.5400679 1.75,5.78125 l 0,36.4375 c 0,2.241182 1.7900679,4.03125 4.03125,4.03125 l 36.4375,0 c 2.241182,0 4.03125,-1.790068 4.03125,-4.03125 l 0,-36.4375 C 46.25,3.5400679 44.459932,1.75 42.21875,1.75 l -36.4375,0 z m 0.125,0.125 36.1875,0 c 2.228591,0 4.03125,1.802659 4.03125,4.03125 l 0,36.1875 c 0,2.228591 -1.802659,4.03125 -4.03125,4.03125 l -36.1875,0 C 3.677659,46.125 1.875,44.322341 1.875,42.09375 l 0,-36.1875 C 1.875,3.677659 3.677659,1.875 5.90625,1.875 z"
       transform="translate(0,1004.3622)"
       inkscape:connector-curvature="0"
       style="opacity:0.4" />
    <rect
       id="rect76"
       rx="4.02"
       y="1006.24"
       x="1.875"
       height="44.25"
       width="44.25"
       style="opacity:0.5" />
  </g>
  <rect
     id="rect78"
     rx="1.128889"
     y="0.56432837"
     x="0.56353587"
     height="12.417778"
     width="12.417778"
     style="fill:url(#linearGradient3092);fill-opacity:1.0" />
  <path
     style="fill:#e33f3f;fill-opacity:1"
     d="m 5.0956418,3.1044692 c -1.1003058,0 -1.9911976,0.8908727 -1.9911976,1.9911983 0,0.3398066 0.087066,0.6688579 0.2372495,0.9489971 -0.050137,0.2359789 -0.076257,0.4777826 -0.076257,0.7286666 0,1.9365839 1.5713573,3.5079178 3.507898,3.5079178 0.2508962,0 0.4926707,-0.02616 0.7286942,-0.07631 0.281053,0.151507 0.6075129,0.237259 0.9489979,0.237259 1.1003062,0 1.9911962,-0.8908922 1.9911962,-1.9912271 0,-0.3414629 -0.08573,-0.6679077 -0.237249,-0.9489784 0.05015,-0.2360543 0.07625,-0.4777638 0.07625,-0.7287043 0,-1.9364991 -1.5713548,-3.5078792 -3.5078962,-3.5078792 -0.2509571,0 -0.4926201,0.026159 -0.7286945,0.076313 C 5.7645149,3.1915004 5.4355286,3.1044786 5.0956334,3.1044786 z m 1.6099058,1.4573709 c 1.0963198,0 1.6607444,0.5762561 1.6607444,0.9150936 0,0.3388657 -0.1630342,0.3897822 -0.432133,0.3897822 -0.5223303,0 -0.3076783,-0.6270315 -1.2879234,-0.6270315 -0.3246627,0 -0.7286936,0.1471317 -0.7286936,0.5253492 0,0.303466 0.3576049,0.4138429 0.9913608,0.5676932 0.9527873,0.2553161 1.6692189,0.5090137 1.6692189,1.3811515 0,0.8471455 -0.6915203,1.2709817 -1.7878426,1.2709817 -1.096318,0 -1.7963155,-0.6525225 -1.7963155,-0.9913789 0,-0.3388657 0.1291454,-0.4236574 0.3982396,-0.4236574 0.5223319,0 0.4517243,0.7117761 1.4319708,0.7117761 0.3246629,0 0.8049519,-0.1471034 0.8049519,-0.5253679 0,-0.3034284 -0.025465,-0.4069739 -0.7202231,-0.5931185 C 6.1666516,7.061911 4.9685466,6.8220834 4.9685466,5.90061 c 0,-0.8471925 0.6406802,-1.3387699 1.737001,-1.3387699 z"
     id="path18" />
</svg>
