<svg viewBox="0 0 48 48"><defs><linearGradient id="linearGradient3764" x1="1" x2="47" gradientUnits="userSpaceOnUse" gradientTransform="translate(-48.000001,0.00221467)"><stop stop-color="#3d3d3d" stop-opacity="1"/><stop offset="1" stop-color="#474747" stop-opacity="1"/></linearGradient><clipPath id="clipPath-168481713"><g transform="translate(0,-1004.3622)"><rect rx="4" y="1005.36" x="1" height="46" width="46" fill="#1890d0"/></g></clipPath><clipPath id="clipPath-181500401"><g transform="translate(0,-1004.3622)"><rect rx="4" y="1005.36" x="1" height="46" width="46" fill="#1890d0"/></g></clipPath></defs><g><path d="m 1 43 l 0 0.25 c 0 2.216 1.784 4 4 4 l 38 0 c 2.216 0 4 -1.784 4 -4 l 0 -0.25 c 0 2.216 -1.784 4 -4 4 l -38 0 c -2.216 0 -4 -1.784 -4 -4 z m 0 0.5 l 0 0.5 c 0 2.216 1.784 4 4 4 l 38 0 c 2.216 0 4 -1.784 4 -4 l 0 -0.5 c 0 2.216 -1.784 4 -4 4 l -38 0 c -2.216 0 -4 -1.784 -4 -4 z" opacity="0.02"/><path d="m 1 43.25 l 0 0.25 c 0 2.216 1.784 4 4 4 l 38 0 c 2.216 0 4 -1.784 4 -4 l 0 -0.25 c 0 2.216 -1.784 4 -4 4 l -38 0 c -2.216 0 -4 -1.784 -4 -4 z" opacity="0.05"/><path d="m 1 43 l 0 0.25 c 0 2.216 1.784 4 4 4 l 38 0 c 2.216 0 4 -1.784 4 -4 l 0 -0.25 c 0 2.216 -1.784 4 -4 4 l -38 0 c -2.216 0 -4 -1.784 -4 -4 z" opacity="0.1"/></g><g><rect width="46" height="46" x="-47" y="1" rx="4" transform="matrix(0,-1,1,0,0,0)" fill="url(#linearGradient3764)" fill-opacity="1"/></g><g><g clip-path="url(#clipPath-168481713)"><g opacity="0.1"><!-- color: #474747 --><g><path d="m 23.355 12.11 c -1.918 0.645 -0.234 3.625 -2.984 5.082 c -3.133 1.672 -4.691 -2.543 -6.574 0.465 c -1.879 3.01 2.594 2.543 2.473 6.086 c -0.125 3.543 -4.563 2.789 -2.898 5.914 c 1.668 3.121 3.516 -0.98 6.523 0.895 c 3.01 1.867 0.129 5.332 3.68 5.449 c 3.543 0.109 0.914 -3.523 4.055 -5.191 c 3.129 -1.668 4.691 2.543 6.57 -0.465 c 1.883 -3.01 -2.594 -2.543 -2.473 -6.078 c 0.129 -3.543 4.563 -2.789 2.898 -5.918 c -1.664 -3.121 -3.516 0.977 -6.523 -0.891 c -3.01 -1.875 -0.129 -5.336 -3.676 -5.449 c -0.445 -0.016 -0.801 0.012 -1.07 0.102 m 0.031 9.02 c 1.586 -0.355 3.137 0.672 3.477 2.27 c 0.336 1.586 -0.676 3.152 -2.254 3.484 c -1.59 0.34 -3.141 -0.672 -3.477 -2.273 c -0.336 -1.59 0.672 -3.145 2.254 -3.48 m 0 0" stroke="none" fill-rule="nonzero" fill-opacity="1" fill="#000"/></g></g></g></g><g><g clip-path="url(#clipPath-181500401)"><g transform="translate(0,-1)"><!-- color: #474747 --><g><path d="m 23.355 12.11 c -1.918 0.645 -0.234 3.625 -2.984 5.082 c -3.133 1.672 -4.691 -2.543 -6.574 0.465 c -1.879 3.01 2.594 2.543 2.473 6.086 c -0.125 3.543 -4.563 2.789 -2.898 5.914 c 1.668 3.121 3.516 -0.98 6.523 0.895 c 3.01 1.867 0.129 5.332 3.68 5.449 c 3.543 0.109 0.914 -3.523 4.055 -5.191 c 3.129 -1.668 4.691 2.543 6.57 -0.465 c 1.883 -3.01 -2.594 -2.543 -2.473 -6.078 c 0.129 -3.543 4.563 -2.789 2.898 -5.918 c -1.664 -3.121 -3.516 0.977 -6.523 -0.891 c -3.01 -1.875 -0.129 -5.336 -3.676 -5.449 c -0.445 -0.016 -0.801 0.012 -1.07 0.102 m 0.031 9.02 c 1.586 -0.355 3.137 0.672 3.477 2.27 c 0.336 1.586 -0.676 3.152 -2.254 3.484 c -1.59 0.34 -3.141 -0.672 -3.477 -2.273 c -0.336 -1.59 0.672 -3.145 2.254 -3.48 m 0 0" fill="#3dcfff" stroke="none" fill-rule="nonzero" fill-opacity="1"/></g></g></g></g><g><g transform="translate(0,-1004.3622)"><path d="m 1 1043.36 0 4 c 0 2.216 1.784 4 4 4 l 38 0 c 2.216 0 4 -1.784 4 -4 l 0 -4 c 0 2.216 -1.784 4 -4 4 l -38 0 c -2.216 0 -4 -1.784 -4 -4 z" opacity="0.1"/></g></g></svg>