<svg xmlns="http://www.w3.org/2000/svg" width="48" viewBox="0 0 13.546667 13.546667" height="48">
 <g transform="matrix(0.28222223,0,0,0.28222223,0,-283.45334)">
  <path transform="translate(0,1004.3622)" d="M 5.1875,1 C 2.8707723,1 1,2.8707723 1,5.1875 l 0,37.625 C 1,45.129228 2.8707723,47 5.1875,47 l 37.625,0 C 45.129228,47 47,45.129228 47,42.8125 L 47,5.1875 C 47,2.8707723 45.129228,1 42.8125,1 L 5.1875,1 z m 0.1875,0.25 37.25,0 c 2.291546,0 4.125,1.8334541 4.125,4.125 l 0,37.25 c 0,2.291546 -1.833454,4.125 -4.125,4.125 l -37.25,0 C 3.0834541,46.75 1.25,44.916546 1.25,42.625 l 0,-37.25 C 1.25,3.0834541 3.0834541,1.25 5.375,1.25 z" opacity="0.05"/>
  <path transform="translate(0,1004.3622)" d="M 5.375,1.25 C 3.0834541,1.25 1.25,3.0834541 1.25,5.375 l 0,37.25 c 0,2.291546 1.8334541,4.125 4.125,4.125 l 37.25,0 c 2.291546,0 4.125,-1.833454 4.125,-4.125 l 0,-37.25 C 46.75,3.0834541 44.916546,1.25 42.625,1.25 l -37.25,0 z m 0.21875,0.25 36.8125,0 C 44.672614,1.5 46.5,3.3273859 46.5,5.59375 l 0,36.8125 C 46.5,44.672614 44.672614,46.5 42.40625,46.5 l -36.8125,0 C 3.3273859,46.5 1.5,44.672614 1.5,42.40625 l 0,-36.8125 C 1.5,3.3273859 3.3273859,1.5 5.59375,1.5 z" opacity="0.1"/>
  <path transform="translate(0,1004.3622)" d="M 5.59375,1.5 C 3.3273859,1.5 1.5,3.3273859 1.5,5.59375 l 0,36.8125 C 1.5,44.672614 3.3273859,46.5 5.59375,46.5 l 36.8125,0 C 44.672614,46.5 46.5,44.672614 46.5,42.40625 l 0,-36.8125 C 46.5,3.3273859 44.672614,1.5 42.40625,1.5 l -36.8125,0 z m 0.09375,0.125 36.625,0 c 2.253773,0 4.0625,1.8087269 4.0625,4.0625 l 0,36.625 c 0,2.253773 -1.808727,4.0625 -4.0625,4.0625 l -36.625,0 c -2.2537731,0 -4.0625,-1.808727 -4.0625,-4.0625 l 0,-36.625 C 1.625,3.4337269 3.4337269,1.625 5.6875,1.625 z" opacity="0.2"/>
  <path transform="translate(0,1004.3622)" d="M 5.6875,1.625 C 3.4337269,1.625 1.625,3.4337269 1.625,5.6875 l 0,36.625 c 0,2.253773 1.8087269,4.0625 4.0625,4.0625 l 36.625,0 c 2.253773,0 4.0625,-1.808727 4.0625,-4.0625 l 0,-36.625 c 0,-2.2537731 -1.808727,-4.0625 -4.0625,-4.0625 l -36.625,0 z m 0.09375,0.125 36.4375,0 c 2.241182,0 4.03125,1.7900679 4.03125,4.03125 l 0,36.4375 c 0,2.241182 -1.790068,4.03125 -4.03125,4.03125 l -36.4375,0 C 3.5400679,46.25 1.75,44.459932 1.75,42.21875 l 0,-36.4375 C 1.75,3.5400679 3.5400679,1.75 5.78125,1.75 z" opacity="0.3"/>
  <path transform="translate(0,1004.3622)" d="M 5.78125,1.75 C 3.5400679,1.75 1.75,3.5400679 1.75,5.78125 l 0,36.4375 c 0,2.241182 1.7900679,4.03125 4.03125,4.03125 l 36.4375,0 c 2.241182,0 4.03125,-1.790068 4.03125,-4.03125 l 0,-36.4375 C 46.25,3.5400679 44.459932,1.75 42.21875,1.75 l -36.4375,0 z m 0.125,0.125 36.1875,0 c 2.228591,0 4.03125,1.802659 4.03125,4.03125 l 0,36.1875 c 0,2.228591 -1.802659,4.03125 -4.03125,4.03125 l -36.1875,0 C 3.677659,46.125 1.875,44.322341 1.875,42.09375 l 0,-36.1875 C 1.875,3.677659 3.677659,1.875 5.90625,1.875 z" opacity="0.4"/>
  <rect width="44.25" height="44.25" x="1.875" y="1006.24" rx="4.02" opacity="0.5"/>
 </g>
 <g>
  <path d="m 6.7733335,0.56444356 0,12.41777944 5.0800005,0 c 0.625404,0 1.128889,-0.503485 1.128889,-1.128889 l 0,-10.1600015 c 0,-0.6254045 -0.503485,-1.12888894 -1.128889,-1.12888894 l -5.0800005,0 z" fill="#c2151c"/>
  <path d="m 6.7733329,12.982223 0,-12.41777818 -5.0800006,0 c -0.625404,0 -1.12888784,0.50348398 -1.12888784,1.12888898 l 0,10.1600002 c 0,0.625404 0.50348384,1.128889 1.12888784,1.128889 l 5.0800006,0 z" fill="#4b7941"/>
 </g>
 <path d="m 6.7733335,0.84659922 0,11.85333378 c 0.017382,1.51e-4 0.035031,0 0.052449,0 3.2539505,0 5.8742175,-2.643663 5.8742175,-5.9266669 0,-3.283004 -2.620267,-5.92666688 -5.8742175,-5.92666688 -0.017418,0 -0.035067,-1.5116e-4 -0.052449,0 z" fill="#c2151c" fill-rule="evenodd"/>
 <path d="m 6.7733335,3.3866668 0,6.7733332 1.1288889,0 -0.5644444,-3.1044443 0,-0.5644444 0.5644444,-3.1044446 z" fill="#2d2d2d"/>
 <path d="m 6.7733335,6.4911113 4.5155555,-0.5644445 0,1.6933334 -4.5155555,-0.5644445 z" fill="#2d2d2d"/>
 <path d="M 6 2 C 3.7839999 2 2 3.7839999 2 6 L 2 19.1875 C 21.360478 12.065219 26.534541 22.624006 46 25.28125 L 46 6 C 46 3.7839999 44.216 2 42 2 L 6 2 z " transform="scale(0.28222223,0.28222223)" opacity="0.2" fill="#ffffff"/>
 <path d="M 6.7733335,3.668889 5.6444446,5.9266668 2.8222223,5.6444446 5.0800001,7.9022224 4.2333334,10.442222 6.7733335,9.0311113 z" fill="#f9f9f9"/>
</svg>
