<?xml version="1.0" encoding="UTF-8" standalone="no"?>
<svg
   xmlns:dc="http://purl.org/dc/elements/1.1/"
   xmlns:cc="http://creativecommons.org/ns#"
   xmlns:rdf="http://www.w3.org/1999/02/22-rdf-syntax-ns#"
   xmlns:svg="http://www.w3.org/2000/svg"
   xmlns="http://www.w3.org/2000/svg"
   xmlns:xlink="http://www.w3.org/1999/xlink"
   xmlns:sodipodi="http://sodipodi.sourceforge.net/DTD/sodipodi-0.dtd"
   xmlns:inkscape="http://www.inkscape.org/namespaces/inkscape"
   width="48"
   viewBox="0 0 13.546667 13.546667"
   height="48"
   id="svg2"
   version="1.1"
   inkscape:version="0.48.4 r9939"
   sodipodi:docname="steam_icon_4920.svg">
  <metadata
     id="metadata28">
    <rdf:RDF>
      <cc:Work
         rdf:about="">
        <dc:format>image/svg+xml</dc:format>
        <dc:type
           rdf:resource="http://purl.org/dc/dcmitype/StillImage" />
        <dc:title />
      </cc:Work>
    </rdf:RDF>
  </metadata>
  <sodipodi:namedview
     pagecolor="#333333"
     bordercolor="#666666"
     borderopacity="1"
     objecttolerance="10"
     gridtolerance="10"
     guidetolerance="10"
     inkscape:pageopacity="1"
     inkscape:pageshadow="2"
     inkscape:window-width="1024"
     inkscape:window-height="742"
     id="namedview26"
     showgrid="true"
     inkscape:zoom="8"
     inkscape:cx="17.194918"
     inkscape:cy="20.858856"
     inkscape:window-x="0"
     inkscape:window-y="0"
     inkscape:window-maximized="1"
     inkscape:current-layer="svg2">
    <inkscape:grid
       type="xygrid"
       id="grid3005"
       empspacing="5"
       visible="true"
       enabled="true"
       snapvisiblegridlinesonly="true" />
  </sodipodi:namedview>
  <defs
     id="defs4">
    <linearGradient
       id="linearGradient3757">
      <stop
         offset="0"
         style="stop-color:#4b4b4b"
         id="stop7" />
      <stop
         offset="1"
         style="stop-color:#2d2d2d"
         id="stop9" />
    </linearGradient>
    <linearGradient
       gradientTransform="matrix(1.00003,0,0,1.00003,-3.6e-4,-3.6e-4)"
       xlink:href="#linearGradient3757"
       id="linearGradient3004"
       y1="6.773"
       y2="12.7"
       gradientUnits="userSpaceOnUse"
       x2="0" />
    <linearGradient
       x2="0"
       gradientUnits="userSpaceOnUse"
       y2="268.33"
       y1="279.096"
       id="linearGradient3004-7"
       xlink:href="#linearGradient4460"
       gradientTransform="matrix(1.10525,0,0,1.10525,-134.22538,-295.81512)" />
    <linearGradient
       id="linearGradient4460">
      <stop
         id="stop3788"
         style="stop-color:#711212;stop-opacity:1;"
         offset="0" />
      <stop
         id="stop3790"
         style="stop-color:#c21e1e;stop-opacity:1;"
         offset="1" />
    </linearGradient>
    <linearGradient
       inkscape:collect="always"
       xlink:href="#linearGradient4460"
       id="linearGradient3827"
       gradientUnits="userSpaceOnUse"
       gradientTransform="matrix(1.10525,0,0,1.10525,-134.22538,-295.81512)"
       y1="279.096"
       x2="0"
       y2="268.33" />
    <linearGradient
       inkscape:collect="always"
       xlink:href="#linearGradient4460"
       id="linearGradient3830"
       gradientUnits="userSpaceOnUse"
       gradientTransform="matrix(1.10525,0,0,1.10525,-118.6442,-295.76451)"
       y1="279.096"
       x2="0"
       y2="268.33" />
    <linearGradient
       inkscape:collect="always"
       xlink:href="#linearGradient4460"
       id="linearGradient3834"
       gradientUnits="userSpaceOnUse"
       gradientTransform="matrix(1.00003,0,0,1.00003,-13.54736,-13.54736)"
       y1="6.7729998"
       x2="0"
       y2="12.7" />
    <inkscape:perspective
       id="perspective9"
       inkscape:persp3d-origin="372.04724 : 350.78739 : 1"
       inkscape:vp_z="744.09448 : 526.18109 : 1"
       inkscape:vp_y="0 : 1000 : 0"
       inkscape:vp_x="0 : 526.18109 : 1"
       sodipodi:type="inkscape:persp3d" />
    <linearGradient
       gradientTransform="matrix(0.28222223,0,0,0.28222223,0,-283.45334)"
       xlink:href="#linearGradient4460"
       id="1"
       y1="1050.36"
       x2="0"
       y2="1006.36"
       gradientUnits="userSpaceOnUse" />
    <linearGradient
       id="0">
      <stop
         stop-color="#1c2026"
         id="stop7-3" />
      <stop
         offset="1"
         stop-color="#363c48"
         id="stop9-2" />
    </linearGradient>
  </defs>
  <g
     transform="matrix(0.28222223,0,0,0.28222223,0,-283.45334)"
     id="g12">
    <path
       style="opacity:0.05"
       inkscape:connector-curvature="0"
       transform="translate(0,1004.3622)"
       d="M 5.1875,1 C 2.8707723,1 1,2.8707723 1,5.1875 l 0,37.625 C 1,45.129228 2.8707723,47 5.1875,47 l 37.625,0 C 45.129228,47 47,45.129228 47,42.8125 L 47,5.1875 C 47,2.8707723 45.129228,1 42.8125,1 L 5.1875,1 z m 0.1875,0.25 37.25,0 c 2.291546,0 4.125,1.8334541 4.125,4.125 l 0,37.25 c 0,2.291546 -1.833454,4.125 -4.125,4.125 l -37.25,0 C 3.0834541,46.75 1.25,44.916546 1.25,42.625 l 0,-37.25 C 1.25,3.0834541 3.0834541,1.25 5.375,1.25 z"
       id="path14" />
    <path
       style="opacity:0.1"
       inkscape:connector-curvature="0"
       transform="translate(0,1004.3622)"
       d="M 5.375,1.25 C 3.0834541,1.25 1.25,3.0834541 1.25,5.375 l 0,37.25 c 0,2.291546 1.8334541,4.125 4.125,4.125 l 37.25,0 c 2.291546,0 4.125,-1.833454 4.125,-4.125 l 0,-37.25 C 46.75,3.0834541 44.916546,1.25 42.625,1.25 l -37.25,0 z m 0.21875,0.25 36.8125,0 C 44.672614,1.5 46.5,3.3273859 46.5,5.59375 l 0,36.8125 C 46.5,44.672614 44.672614,46.5 42.40625,46.5 l -36.8125,0 C 3.3273859,46.5 1.5,44.672614 1.5,42.40625 l 0,-36.8125 C 1.5,3.3273859 3.3273859,1.5 5.59375,1.5 z"
       id="path16" />
    <path
       style="opacity:0.2"
       inkscape:connector-curvature="0"
       transform="translate(0,1004.3622)"
       d="M 5.59375,1.5 C 3.3273859,1.5 1.5,3.3273859 1.5,5.59375 l 0,36.8125 C 1.5,44.672614 3.3273859,46.5 5.59375,46.5 l 36.8125,0 C 44.672614,46.5 46.5,44.672614 46.5,42.40625 l 0,-36.8125 C 46.5,3.3273859 44.672614,1.5 42.40625,1.5 l -36.8125,0 z m 0.09375,0.125 36.625,0 c 2.253773,0 4.0625,1.8087269 4.0625,4.0625 l 0,36.625 c 0,2.253773 -1.808727,4.0625 -4.0625,4.0625 l -36.625,0 c -2.2537731,0 -4.0625,-1.808727 -4.0625,-4.0625 l 0,-36.625 C 1.625,3.4337269 3.4337269,1.625 5.6875,1.625 z"
       id="path18" />
    <path
       style="opacity:0.3"
       inkscape:connector-curvature="0"
       transform="translate(0,1004.3622)"
       d="M 5.6875,1.625 C 3.4337269,1.625 1.625,3.4337269 1.625,5.6875 l 0,36.625 c 0,2.253773 1.8087269,4.0625 4.0625,4.0625 l 36.625,0 c 2.253773,0 4.0625,-1.808727 4.0625,-4.0625 l 0,-36.625 c 0,-2.2537731 -1.808727,-4.0625 -4.0625,-4.0625 l -36.625,0 z m 0.09375,0.125 36.4375,0 c 2.241182,0 4.03125,1.7900679 4.03125,4.03125 l 0,36.4375 c 0,2.241182 -1.790068,4.03125 -4.03125,4.03125 l -36.4375,0 C 3.5400679,46.25 1.75,44.459932 1.75,42.21875 l 0,-36.4375 C 1.75,3.5400679 3.5400679,1.75 5.78125,1.75 z"
       id="path20" />
    <path
       style="opacity:0.4"
       inkscape:connector-curvature="0"
       transform="translate(0,1004.3622)"
       d="M 5.78125,1.75 C 3.5400679,1.75 1.75,3.5400679 1.75,5.78125 l 0,36.4375 c 0,2.241182 1.7900679,4.03125 4.03125,4.03125 l 36.4375,0 c 2.241182,0 4.03125,-1.790068 4.03125,-4.03125 l 0,-36.4375 C 46.25,3.5400679 44.459932,1.75 42.21875,1.75 l -36.4375,0 z m 0.125,0.125 36.1875,0 c 2.228591,0 4.03125,1.802659 4.03125,4.03125 l 0,36.1875 c 0,2.228591 -1.802659,4.03125 -4.03125,4.03125 l -36.1875,0 C 3.677659,46.125 1.875,44.322341 1.875,42.09375 l 0,-36.1875 C 1.875,3.677659 3.677659,1.875 5.90625,1.875 z"
       id="path22" />
    <rect
       style="opacity:0.5"
       width="44.25"
       height="44.25"
       x="1.875"
       y="1006.24"
       rx="4.02"
       id="rect24" />
  </g>
  <rect
     style="fill:url(#1);fill-opacity:1.0"
     width="12.418"
     height="12.418"
     x="0.56400007"
     y="0.56399667"
     rx="1.1289999"
     id="rect26" />
  <path
     id="path2384"
     d="m 4.1799285,4.5155503 -0.12933,0.135603 c -0.0907,0.09508 -0.194531,0.102016 -0.326727,0.05425 -0.06493,-0.02347 -0.13797,-0.09121 -0.197399,-0.03391 -0.05661,0.0546 0.02411,0.09868 0.08168,0.122042 0.236126,0.09579 0.369436,0.23401 0.313114,0.522068 -0.05632,0.288059 -0.251747,0.255494 -0.422024,0.284765 -0.127891,0.02198 -0.249336,0.02141 -0.313114,0.08136 -0.126726,0.119097 -0.0086,0.251853 0.08168,0.244084 0.413852,-0.03564 0.759709,0.279737 0.571774,0.69157 l -0.204205,0.447488 0.217818,0.01357 -0.748751,1.708587 1.865072,0.244084 0.571774,-2.034032 c 0.03904,-0.138877 0.222936,-0.223875 0.367568,-0.230524 l 0.884888,-0.04068 c 0.183408,-0.0085 0.390566,-0.172388 0.422024,-0.352566 l 0.05446,-0.311884 c 0.0226,-0.129451 0.067547,-0.1347585 0.3497697,-0.1347585 l 1.27,0 0.1411111,-0.2822222 1.2613507,0 c 0.06304,-6.47e-4 0.06969,-0.040933 0.0953,-0.098316 l 0.05446,-0.122042 0,-0.759372 -0.122524,-0.149162 -3.0630748,0 -0.059957,0.2822256 -0.8466666,0 -0.073564,-0.2822256 -2.096504,0 z m 2.113521,1.362802 0.432234,0 c 0.490212,0 0.499384,0.786492 0,0.786492 l -0.432234,0 c -0.455384,0 -0.522822,-0.786492 0,-0.786492 z m 0.1129951,0.02373 c -0.497365,-0.0016 -0.413185,0.748617 0,0.739032 -0.185565,-0.25138 -0.194525,-0.499613 0,-0.739032 z"
     style="fill:#f9f9f9;fill-opacity:1;fill-rule:evenodd;stroke:none;stroke-width:2;marker:none;visibility:visible;display:inline;overflow:visible;enable-background:accumulate"
     inkscape:connector-curvature="0"
     sodipodi:nodetypes="cccccscccsccccsscccccccccccccccccsssssccc" />
  <text
     xml:space="preserve"
     style="font-size:4px;font-style:normal;font-weight:normal;line-height:6.9999963%;letter-spacing:0px;word-spacing:0px;fill:#000000;fill-opacity:1;stroke:none;font-family:Sans"
     x="35.011719"
     y="16.464844"
     id="text3795"
     sodipodi:linespacing="6.9999963%"
     transform="scale(0.28222223,0.28222223)"><tspan
       sodipodi:role="line"
       id="tspan3797"
       x="35.011719"
       y="16.464844"
       style="font-size:4px;font-weight:normal;line-height:6.9999963%;-inkscape-font-specification:Sans" /></text>
  <text
     xml:space="preserve"
     style="font-size:1.12888896px;font-style:normal;font-weight:normal;line-height:125%;letter-spacing:0px;word-spacing:0px;fill:#a81a1a;fill-opacity:1;stroke:none;font-family:Sans"
     x="10.060173"
     y="4.5442538"
     id="text3799"
     sodipodi:linespacing="125%"><tspan
       sodipodi:role="line"
       id="tspan3801"
       x="10.060173"
       y="4.5442538"
       style="font-size:0.02822222px;fill:#a81a1a;fill-opacity:1">make love not war</tspan></text>
</svg>
