<?xml version="1.0" encoding="UTF-8" standalone="no"?>
<svg
   xmlns:dc="http://purl.org/dc/elements/1.1/"
   xmlns:cc="http://creativecommons.org/ns#"
   xmlns:rdf="http://www.w3.org/1999/02/22-rdf-syntax-ns#"
   xmlns:svg="http://www.w3.org/2000/svg"
   xmlns="http://www.w3.org/2000/svg"
   xmlns:xlink="http://www.w3.org/1999/xlink"
   xmlns:sodipodi="http://sodipodi.sourceforge.net/DTD/sodipodi-0.dtd"
   xmlns:inkscape="http://www.inkscape.org/namespaces/inkscape"
   width="48"
   viewBox="0 0 13.546667 13.546667"
   height="48"
   id="svg2"
   version="1.1"
   inkscape:version="0.48.4 r9939"
   sodipodi:docname="steam_icon_60.svg">
  <metadata
     id="metadata22">
    <rdf:RDF>
      <cc:Work
         rdf:about="">
        <dc:format>image/svg+xml</dc:format>
        <dc:type
           rdf:resource="http://purl.org/dc/dcmitype/StillImage" />
      </cc:Work>
    </rdf:RDF>
  </metadata>
  <sodipodi:namedview
     pagecolor="#ffffff"
     bordercolor="#666666"
     borderopacity="1"
     objecttolerance="10"
     gridtolerance="10"
     guidetolerance="10"
     inkscape:pageopacity="0"
     inkscape:pageshadow="2"
     inkscape:window-width="1280"
     inkscape:window-height="998"
     id="namedview20"
     showgrid="false"
     inkscape:zoom="8"
     inkscape:cx="23.259055"
     inkscape:cy="39.206851"
     inkscape:window-x="0"
     inkscape:window-y="0"
     inkscape:window-maximized="1"
     inkscape:current-layer="svg2"
     showguides="true"
     inkscape:guide-bbox="true">
    <inkscape:grid
       type="xygrid"
       id="grid3803" />
  </sodipodi:namedview>
  <defs
     id="defs4">
    <linearGradient
       id="0">
      <stop
         stop-color="#2a3236"
         id="stop7"
         offset="0"
         style="stop-color:#303030;stop-opacity:1;" />
      <stop
         offset="1"
         stop-color="#4d575b"
         id="stop9"
         style="stop-color:#545454;stop-opacity:1;" />
    </linearGradient>
    <linearGradient
       xlink:href="#0"
       id="1"
       gradientUnits="userSpaceOnUse"
       gradientTransform="matrix(1.10528,0,0,1.10528,-134.28288,-295.77052)"
       y1="279.1"
       x2="0"
       y2="268.33" />
    <linearGradient
       inkscape:collect="always"
       xlink:href="#0"
       id="linearGradient3774"
       x1="35.379311"
       y1="19.811607"
       x2="95.495369"
       y2="19.811607"
       gradientUnits="userSpaceOnUse" />
    <linearGradient
       gradientTransform="matrix(0.28222223,0,0,0.28222223,0,-283.45334)"
       xlink:href="#0"
       id="9"
       y1="1050.36"
       x2="0"
       y2="1006.36"
       gradientUnits="userSpaceOnUse" />
    <linearGradient
       id="1-3">
      <stop
         stop-color="#333"
         id="stop108" />
      <stop
         offset="1"
         stop-color="#666666"
         id="stop110" />
    </linearGradient>
  </defs>
  <g
     transform="matrix(0.28222223,0,0,0.28222223,0,-283.45334)"
     id="g128">
    <path
       style="opacity:0.05"
       inkscape:connector-curvature="0"
       transform="translate(0,1004.3622)"
       d="M 5.1875,1 C 2.8707723,1 1,2.8707723 1,5.1875 l 0,37.625 C 1,45.129228 2.8707723,47 5.1875,47 l 37.625,0 C 45.129228,47 47,45.129228 47,42.8125 L 47,5.1875 C 47,2.8707723 45.129228,1 42.8125,1 L 5.1875,1 z m 0.1875,0.25 37.25,0 c 2.291546,0 4.125,1.8334541 4.125,4.125 l 0,37.25 c 0,2.291546 -1.833454,4.125 -4.125,4.125 l -37.25,0 C 3.0834541,46.75 1.25,44.916546 1.25,42.625 l 0,-37.25 C 1.25,3.0834541 3.0834541,1.25 5.375,1.25 z"
       id="path130" />
    <path
       style="opacity:0.1"
       inkscape:connector-curvature="0"
       transform="translate(0,1004.3622)"
       d="M 5.375,1.25 C 3.0834541,1.25 1.25,3.0834541 1.25,5.375 l 0,37.25 c 0,2.291546 1.8334541,4.125 4.125,4.125 l 37.25,0 c 2.291546,0 4.125,-1.833454 4.125,-4.125 l 0,-37.25 C 46.75,3.0834541 44.916546,1.25 42.625,1.25 l -37.25,0 z m 0.21875,0.25 36.8125,0 C 44.672614,1.5 46.5,3.3273859 46.5,5.59375 l 0,36.8125 C 46.5,44.672614 44.672614,46.5 42.40625,46.5 l -36.8125,0 C 3.3273859,46.5 1.5,44.672614 1.5,42.40625 l 0,-36.8125 C 1.5,3.3273859 3.3273859,1.5 5.59375,1.5 z"
       id="path132" />
    <path
       style="opacity:0.2"
       inkscape:connector-curvature="0"
       transform="translate(0,1004.3622)"
       d="M 5.59375,1.5 C 3.3273859,1.5 1.5,3.3273859 1.5,5.59375 l 0,36.8125 C 1.5,44.672614 3.3273859,46.5 5.59375,46.5 l 36.8125,0 C 44.672614,46.5 46.5,44.672614 46.5,42.40625 l 0,-36.8125 C 46.5,3.3273859 44.672614,1.5 42.40625,1.5 l -36.8125,0 z m 0.09375,0.125 36.625,0 c 2.253773,0 4.0625,1.8087269 4.0625,4.0625 l 0,36.625 c 0,2.253773 -1.808727,4.0625 -4.0625,4.0625 l -36.625,0 c -2.2537731,0 -4.0625,-1.808727 -4.0625,-4.0625 l 0,-36.625 C 1.625,3.4337269 3.4337269,1.625 5.6875,1.625 z"
       id="path134" />
    <path
       style="opacity:0.3"
       inkscape:connector-curvature="0"
       transform="translate(0,1004.3622)"
       d="M 5.6875,1.625 C 3.4337269,1.625 1.625,3.4337269 1.625,5.6875 l 0,36.625 c 0,2.253773 1.8087269,4.0625 4.0625,4.0625 l 36.625,0 c 2.253773,0 4.0625,-1.808727 4.0625,-4.0625 l 0,-36.625 c 0,-2.2537731 -1.808727,-4.0625 -4.0625,-4.0625 l -36.625,0 z m 0.09375,0.125 36.4375,0 c 2.241182,0 4.03125,1.7900679 4.03125,4.03125 l 0,36.4375 c 0,2.241182 -1.790068,4.03125 -4.03125,4.03125 l -36.4375,0 C 3.5400679,46.25 1.75,44.459932 1.75,42.21875 l 0,-36.4375 C 1.75,3.5400679 3.5400679,1.75 5.78125,1.75 z"
       id="path136" />
    <path
       style="opacity:0.4"
       inkscape:connector-curvature="0"
       transform="translate(0,1004.3622)"
       d="M 5.78125,1.75 C 3.5400679,1.75 1.75,3.5400679 1.75,5.78125 l 0,36.4375 c 0,2.241182 1.7900679,4.03125 4.03125,4.03125 l 36.4375,0 c 2.241182,0 4.03125,-1.790068 4.03125,-4.03125 l 0,-36.4375 C 46.25,3.5400679 44.459932,1.75 42.21875,1.75 l -36.4375,0 z m 0.125,0.125 36.1875,0 c 2.228591,0 4.03125,1.802659 4.03125,4.03125 l 0,36.1875 c 0,2.228591 -1.802659,4.03125 -4.03125,4.03125 l -36.1875,0 C 3.677659,46.125 1.875,44.322341 1.875,42.09375 l 0,-36.1875 C 1.875,3.677659 3.677659,1.875 5.90625,1.875 z"
       id="path138" />
    <rect
       style="opacity:0.5"
       width="44.25"
       height="44.25"
       x="1.875"
       y="1006.24"
       rx="4.02"
       id="rect140" />
  </g>
  <rect
     style="fill:url(#9);fill-opacity:1.0"
     width="12.418"
     height="12.418"
     x="0.56399947"
     y="0.56399691"
     rx="1.1289999"
     id="rect142" />
  <path
     style="opacity:1;fill:#d64937;fill-opacity:1;stroke:none"
     d="M 24.1875 9 L 24.1875 12.625 C 26.250946 12.658759 28.191991 13.224641 29.84375 14.21875 L 31.65625 11.125 C 29.461806 9.8162197 26.919797 9.0338461 24.1875 9 z M 33.4375 12.375 C 33.718417 12.603137 33.986519 12.846302 34.25 13.09375 C 33.984648 12.844456 33.720451 12.604652 33.4375 12.375 z M 35.3125 14.1875 C 35.452872 14.349042 35.585299 14.519979 35.71875 14.6875 C 35.584464 14.518931 35.453781 14.350042 35.3125 14.1875 z M 37.46875 17.4375 L 35.40625 18 C 36.873259 20.430456 36.754061 21.568601 37 23 C 37.238567 25.953167 36.625306 27.486621 36 29 L 34.21875 29 C 33.348638 30.77805 32.031452 32.299545 30.40625 33.40625 L 32.625 36.25 C 36.470826 33.534219 39 29.066085 39 24 C 39 21.642543 38.438065 19.422438 37.46875 17.4375 z M 35.1875 18.0625 L 33.90625 18.4375 C 33.917644 18.457757 33.926226 18.479667 33.9375 18.5 L 35.1875 18.0625 z "
     transform="scale(0.28222223,0.28222223)"
     id="path3787" />
  <path
     style="opacity:1;fill:#d64937;fill-opacity:1;stroke:none"
     d="M 18.125 15.40625 C 16.927652 16.229405 15.92239 17.291619 15.15625 18.53125 L 16.40625 19.15625 C 15.516887 20.555554 15 22.219051 15 24 C 15 25.380288 15.322187 26.675955 15.875 27.84375 L 14.59375 28.46875 C 14.678344 28.64705 14.780528 28.827613 14.875 29 L 14.8125 29 C 15.071184 29.467218 15.394179 29.892455 15.71875 30.3125 C 16.458668 31.270067 17.350267 32.097008 18.375 32.75 C 20.001367 33.786372 21.917094 34.40625 24 34.40625 C 24.263352 34.40625 24.52288 34.393907 24.78125 34.375 C 25.035246 34.356413 25.282705 34.317466 25.53125 34.28125 C 25.681096 34.258738 25.821167 34.247694 25.96875 34.21875 C 26.064211 34.200732 26.155488 34.176819 26.25 34.15625 C 26.469002 34.106707 26.692817 34.063245 26.90625 34 C 26.9285 33.993626 26.946562 33.975266 26.96875 33.96875 C 27.880166 33.7011 28.741954 33.300353 29.53125 32.8125 L 28.125 30.8125 L 28.03125 30.6875 C 26.853928 31.398759 25.474956 31.8125 24 31.8125 L 24 33 C 22.271323 33 20.65598 32.500146 19.28125 31.65625 L 20.03125 30.71875 C 20.011195 30.70719 19.988433 30.699383 19.96875 30.6875 C 19.852276 30.616858 19.737394 30.545218 19.625 30.46875 C 19.368469 30.295482 19.139837 30.107967 18.90625 29.90625 C 18.632791 29.668481 18.36328 29.398104 18.125 29.125 C 17.91177 28.880607 17.713335 28.6446 17.53125 28.375 C 17.518595 28.356264 17.512496 28.331352 17.5 28.3125 C 17.479065 28.280902 17.457989 28.250665 17.4375 28.21875 C 17.260894 27.943654 17.110597 27.64075 16.96875 27.34375 C 16.962687 27.331055 16.943497 27.325232 16.9375 27.3125 C 16.462858 26.303879 16.1875 25.189108 16.1875 24 C 16.1875 22.416123 16.658242 20.943032 17.46875 19.71875 C 17.489639 19.686921 17.509929 19.656494 17.53125 19.625 C 17.648488 19.453439 17.77596 19.286428 17.90625 19.125 C 18.188224 18.772708 18.505509 18.454394 18.84375 18.15625 C 18.877143 18.126846 18.903604 18.09135 18.9375 18.0625 C 19.126455 17.90171 19.3266 17.736416 19.53125 17.59375 C 19.538102 17.588975 19.555632 17.598505 19.5625 17.59375 L 18.90625 16.5625 C 18.894135 16.570829 18.887072 16.585363 18.875 16.59375 L 18.125 15.40625 z M 34.40625 25.1875 C 34.359793 25.590968 34.278966 25.987418 34.1875 26.375 C 34.279319 25.986238 34.359693 25.591836 34.40625 25.1875 z M 34.1875 26.375 C 34.111496 26.69706 34.042877 27.003029 33.9375 27.3125 C 34.03919 27.011117 34.113562 26.688057 34.1875 26.375 z M 32.8125 29.59375 C 32.602184 29.918294 32.369539 30.232846 32.125 30.53125 C 32.371423 30.229849 32.6008 29.921715 32.8125 29.59375 z M 32.125 30.53125 C 31.758372 30.978636 31.373481 31.39982 30.9375 31.78125 C 31.370747 31.400767 31.760282 30.977338 32.125 30.53125 z "
     transform="scale(0.28222223,0.28222223)"
     id="use3797" />
  <path
     style="opacity:1;fill:#3e9ade;fill-opacity:1;stroke:none"
     d="M 31.65625 11.125 L 29.84375 14.21875 C 31.539306 15.239218 32.93363 16.708283 33.90625 18.4375 L 35.1875 18.0625 L 35.40625 18 L 37.46875 17.4375 C 36.184587 14.807824 34.157295 12.616639 31.65625 11.125 z "
     id="use3890"
     transform="scale(0.28222223,0.28222223)" />
  <path
     style="opacity:1;fill:#3e9ade;fill-opacity:1;stroke:none"
     d="M 23.8125 9 C 18.181399 9.0690945 13.287412 12.23086 10.78125 16.875 L 12.3125 17.6875 C 13.304722 15.848826 14.730261 14.279281 16.4375 13.09375 L 17.71875 14.53125 C 19.472132 13.367486 21.554592 12.66184 23.8125 12.625 L 23.8125 9 z "
     id="use3897"
     transform="scale(0.28222223,0.28222223)" />
  <path
     style="opacity:1;fill:#3e9ade;fill-opacity:1;stroke:none"
     d="M 9.03125 23 C 9.0092461 23.33243 9 23.661998 9 24 C 9 26.220369 9.5092415 28.322839 10.375 30.21875 L 12 29.46875 C 14.70742 34.62893 18 36.677196 24 37.25 L 24 39 C 27.065861 39 29.90594 38.078692 32.28125 36.5 L 30.0625 33.625 C 28.309404 34.728718 26.22644 35.375 24 35.375 C 17.713582 35.375 12.625 30.286418 12.625 24 C 12.625 23.660041 12.658307 23.332389 12.6875 23 L 9.03125 23 z "
     id="use3904"
     transform="scale(0.28222223,0.28222223)" />
  <path
     style="opacity:1;fill:#3e9ade;fill-opacity:1;stroke:none"
     d="M 24 13.59375 L 24 15 L 24 16 L 24 16.1875 C 24.331526 16.1875 24.648361 16.209787 24.96875 16.25 C 24.989337 16.2526 25.010709 16.2473 25.03125 16.25 C 25.064663 16.254394 25.0917 16.276431 25.125 16.28125 C 25.431255 16.326161 25.737696 16.389252 26.03125 16.46875 C 26.261406 16.53108 26.497501 16.605129 26.71875 16.6875 C 26.809661 16.721339 26.910709 16.744141 27 16.78125 C 27.246589 16.884009 27.485735 16.998461 27.71875 17.125 C 27.77258 17.154232 27.821928 17.18832 27.875 17.21875 C 28.822513 17.761708 29.636764 18.499792 30.28125 19.375 C 30.492711 19.66205 30.702774 19.966339 30.875 20.28125 C 30.89711 20.321661 30.916088 20.36542 30.9375 20.40625 C 31.03234 20.588642 31.106971 20.778276 31.1875 20.96875 C 31.266969 21.154302 31.341021 21.338698 31.40625 21.53125 C 31.423931 21.584098 31.452171 21.634152 31.46875 21.6875 C 31.51392 21.83088 31.5568 21.978211 31.59375 22.125 C 31.619297 22.228156 31.634831 22.332767 31.65625 22.4375 C 31.676305 22.534399 31.702369 22.620576 31.71875 22.71875 C 31.745219 22.878925 31.764678 23.024183 31.78125 23.1875 C 31.808533 23.450371 31.8125 23.729998 31.8125 24 C 31.8125 25.465678 31.390506 26.827557 30.6875 28 L 32.0625 28 C 31.319678 29.496109 30.157706 30.743904 28.75 31.625 L 28.125 30.8125 L 29.53125 32.8125 C 32.179495 31.175656 34.034594 28.415247 34.40625 25.1875 C 34.378116 25.202984 34.34085 25.20362 34.3125 25.21875 C 34.357241 24.820708 34.40625 24.409517 34.40625 24 C 34.40625 22.069499 33.880853 20.26661 32.96875 18.71875 L 31.53125 19.0625 C 30.784052 17.925167 29.764897 16.979678 28.59375 16.28125 L 29.4375 15.15625 C 27.852202 14.180429 26.002249 13.59375 24 13.59375 z "
     id="use3911"
     transform="scale(0.28222223,0.28222223)" />
</svg>
