<svg viewBox="0 0 48 48"><defs><linearGradient id="linearGradient3764" x1="1" x2="47" gradientUnits="userSpaceOnUse" gradientTransform="translate(-47.997785,0.00221467)"><stop stop-color="#e4e4e4" stop-opacity="1"/><stop offset="1" stop-color="#eee" stop-opacity="1"/></linearGradient><clipPath id="clipPath-023391321"><g transform="translate(0,-1004.3622)"><rect rx="4" y="1005.36" x="1" height="46" width="46" fill="#1890d0"/></g></clipPath><clipPath id="clipPath-031969964"><g transform="translate(0,-1004.3622)"><rect rx="4" y="1005.36" x="1" height="46" width="46" fill="#1890d0"/></g></clipPath></defs><g><g transform="translate(0,-1004.3622)"><path d="m 5 1006.36 c -2.216 0 -4 1.784 -4 4 l 0 37.25 c 0 2.216 1.784 4 4 4 l 38 0 c 2.216 0 4 -1.784 4 -4 l 0 -37.25 c 0 -2.216 -1.784 -4 -4 -4 l -38 0 z m -4 41.5 0 0.5 c 0 2.216 1.784 4 4 4 l 38 0 c 2.216 0 4 -1.784 4 -4 l 0 -0.5 c 0 2.216 -1.784 4 -4 4 l -38 0 c -2.216 0 -4 -1.784 -4 -4 z" opacity="0.02"/><path d="m 1 1047.61 0 0.25 c 0 2.216 1.784 4 4 4 l 38 0 c 2.216 0 4 -1.784 4 -4 l 0 -0.25 c 0 2.216 -1.784 4 -4 4 l -38 0 c -2.216 0 -4 -1.784 -4 -4 z" opacity="0.05"/><rect width="46" height="46" x="1" y="1005.61" rx="4" opacity="0.1"/></g></g><g><rect width="46" height="46" x="-46.998" y="1" rx="4" transform="matrix(0,-1,1,0,0,0)" fill="url(#linearGradient3764)" fill-opacity="1"/></g><g/><g><g clip-path="url(#clipPath-023391321)"><g opacity="0.1"><!-- color: #eeeeee --><g><path d="m 22.17 16.473 c -0.02 2.785 -2.324 5.03 -5.18 5.03 c -2.848 -0.008 -5.145 -2.262 -5.145 -5.05 c 0 -2.781 2.305 -5.04 5.145 -5.04 c 2.855 -0.008 5.16 2.242 5.18 5.02" fill="#000" stroke="none" fill-rule="nonzero" fill-opacity="1"/><path d="m 35.11 17.04 c -0.012 3.098 -2.539 5.598 -5.645 5.594 c -3.109 -0.008 -5.625 -2.52 -5.625 -5.613 c 0 -3.098 2.516 -5.609 5.625 -5.613 c 3.105 -0.008 5.633 2.492 5.645 5.59" fill="#000" stroke="none" fill-rule="nonzero" fill-opacity="1"/><path d="m 24.01 11 c -1.691 0 -3.297 0.328 -4.773 0.914 c -0.773 -0.445 -1.668 -0.715 -2.621 -0.715 c -2.91 0 -5.285 2.375 -5.285 5.289 c 0 0.922 0.242 1.785 0.66 2.539 c -0.641 1.539 -0.992 3.215 -0.992 4.98 c 0 7.172 5.836 12.988 13.01 12.988 c 7.172 0 12.988 -5.816 12.988 -12.988 c 0 -2.141 -0.559 -4.141 -1.473 -5.918 c 0.039 -0.285 0.074 -0.57 0.074 -0.867 c 0 -3.398 -2.773 -6.176 -6.176 -6.176 c -0.742 0 -1.445 0.164 -2.105 0.41 c -0.008 -0.004 -0.02 0.004 -0.027 0 c -0.027 -0.02 -0.043 -0.043 -0.078 -0.051 c -1.02 -0.258 -2.09 -0.406 -3.203 -0.406 m 5.418 0.863 c 2.965 0 5.363 2.402 5.363 5.359 c 0 0.328 -0.023 0.656 -0.078 0.969 c -0.59 2.27 -2.629 3.965 -5.086 3.965 c -2.914 0 -5.285 -2.371 -5.285 -5.285 c 0 -1.23 0.434 -2.34 1.145 -3.23 c 0.066 -0.066 0.117 -0.141 0.176 -0.199 c 0.973 -0.973 2.281 -1.578 3.77 -1.578 m -12.813 0.152 c 0.789 0 1.523 0.23 2.164 0.586 c 0.027 0.066 0.082 0.117 0.152 0.152 c 0.336 0.191 0.641 0.418 0.914 0.688 c 0.207 0.203 0.391 0.441 0.559 0.688 c 0.438 0.688 0.691 1.488 0.691 2.363 c 0 2.473 -2 4.469 -4.477 4.469 c -1.082 0 -2.07 -0.379 -2.844 -1.016 c -0.094 -0.074 -0.191 -0.145 -0.281 -0.23 c -0.008 -0.008 -0.016 -0.02 -0.02 -0.023 c -0.008 -0.008 -0.023 -0.02 -0.027 -0.027 c -0.25 -0.27 -0.457 -0.566 -0.633 -0.887 c -0.02 -0.039 -0.043 -0.074 -0.078 -0.105 c -0.02 -0.012 -0.027 -0.039 -0.051 -0.047 c -0.344 -0.637 -0.535 -1.363 -0.535 -2.137 c 0 -2.473 2 -4.473 4.473 -4.473 m -0.004 0" fill="#000" stroke="none" fill-rule="nonzero" fill-opacity="1"/><path d="m 19 16 c 0 1.105 -0.898 2 -2 2 c -1.105 0 -1.996 -0.895 -1.996 -2 c 0 -1.105 0.895 -1.996 1.996 -1.996 c 1.105 0 2 0.895 2 1.996 m 0 0" fill="#000" stroke="none" fill-rule="nonzero" fill-opacity="1"/><path d="m 33 15.5 c 0 1.379 -1.121 2.5 -2.504 2.5 c -1.379 0 -2.5 -1.121 -2.5 -2.5 c 0 -1.383 1.121 -2.504 2.5 -2.504 c 1.383 0 2.504 1.121 2.504 2.504 m 0 0" fill="#000" stroke="none" fill-rule="nonzero" fill-opacity="1"/></g></g></g></g><g><g clip-path="url(#clipPath-031969964)"><g transform="translate(0,-1)"><!-- color: #eeeeee --><g><path d="m 22.17 16.473 c -0.02 2.785 -2.324 5.03 -5.18 5.03 c -2.848 -0.008 -5.145 -2.262 -5.145 -5.05 c 0 -2.781 2.305 -5.04 5.145 -5.04 c 2.855 -0.008 5.16 2.242 5.18 5.02" fill="#f9f9f9" stroke="none" fill-rule="nonzero" fill-opacity="1"/><path d="m 35.11 17.04 c -0.012 3.098 -2.539 5.598 -5.645 5.594 c -3.109 -0.008 -5.625 -2.52 -5.625 -5.613 c 0 -3.098 2.516 -5.609 5.625 -5.613 c 3.105 -0.008 5.633 2.492 5.645 5.59" fill="#f9f9f9" stroke="none" fill-rule="nonzero" fill-opacity="1"/><path d="m 24.01 11 c -1.691 0 -3.297 0.328 -4.773 0.914 c -0.773 -0.445 -1.668 -0.715 -2.621 -0.715 c -2.91 0 -5.285 2.375 -5.285 5.289 c 0 0.922 0.242 1.785 0.66 2.539 c -0.641 1.539 -0.992 3.215 -0.992 4.98 c 0 7.172 5.836 12.988 13.01 12.988 c 7.172 0 12.988 -5.816 12.988 -12.988 c 0 -2.141 -0.559 -4.141 -1.473 -5.918 c 0.039 -0.285 0.074 -0.57 0.074 -0.867 c 0 -3.398 -2.773 -6.176 -6.176 -6.176 c -0.742 0 -1.445 0.164 -2.105 0.41 c -0.008 -0.004 -0.02 0.004 -0.027 0 c -0.027 -0.02 -0.043 -0.043 -0.078 -0.051 c -1.02 -0.258 -2.09 -0.406 -3.203 -0.406 m 5.418 0.863 c 2.965 0 5.363 2.402 5.363 5.359 c 0 0.328 -0.023 0.656 -0.078 0.969 c -0.59 2.27 -2.629 3.965 -5.086 3.965 c -2.914 0 -5.285 -2.371 -5.285 -5.285 c 0 -1.23 0.434 -2.34 1.145 -3.23 c 0.066 -0.066 0.117 -0.141 0.176 -0.199 c 0.973 -0.973 2.281 -1.578 3.77 -1.578 m -12.813 0.152 c 0.789 0 1.523 0.23 2.164 0.586 c 0.027 0.066 0.082 0.117 0.152 0.152 c 0.336 0.191 0.641 0.418 0.914 0.688 c 0.207 0.203 0.391 0.441 0.559 0.688 c 0.438 0.688 0.691 1.488 0.691 2.363 c 0 2.473 -2 4.469 -4.477 4.469 c -1.082 0 -2.07 -0.379 -2.844 -1.016 c -0.094 -0.074 -0.191 -0.145 -0.281 -0.23 c -0.008 -0.008 -0.016 -0.02 -0.02 -0.023 c -0.008 -0.008 -0.023 -0.02 -0.027 -0.027 c -0.25 -0.27 -0.457 -0.566 -0.633 -0.887 c -0.02 -0.039 -0.043 -0.074 -0.078 -0.105 c -0.02 -0.012 -0.027 -0.039 -0.051 -0.047 c -0.344 -0.637 -0.535 -1.363 -0.535 -2.137 c 0 -2.473 2 -4.473 4.473 -4.473 m -0.004 0" fill="#2d2d2d" stroke="none" fill-rule="nonzero" fill-opacity="1"/><path d="m 19 16 c 0 1.105 -0.898 2 -2 2 c -1.105 0 -1.996 -0.895 -1.996 -2 c 0 -1.105 0.895 -1.996 1.996 -1.996 c 1.105 0 2 0.895 2 1.996 m 0 0" fill="#02abc8" stroke="none" fill-rule="nonzero" fill-opacity="1"/><path d="m 33 15.5 c 0 1.379 -1.121 2.5 -2.504 2.5 c -1.379 0 -2.5 -1.121 -2.5 -2.5 c 0 -1.383 1.121 -2.504 2.5 -2.504 c 1.383 0 2.504 1.121 2.504 2.504 m 0 0" fill="#02abc8" stroke="none" fill-rule="nonzero" fill-opacity="1"/></g></g></g></g><g><g transform="translate(0,-1004.3622)"><path d="m 1 1043.36 0 4 c 0 2.216 1.784 4 4 4 l 38 0 c 2.216 0 4 -1.784 4 -4 l 0 -4 c 0 2.216 -1.784 4 -4 4 l -38 0 c -2.216 0 -4 -1.784 -4 -4 z" opacity="0.1"/></g></g></svg>