<?xml version="1.0" encoding="UTF-8" standalone="no"?>
<svg
   xmlns:dc="http://purl.org/dc/elements/1.1/"
   xmlns:cc="http://creativecommons.org/ns#"
   xmlns:rdf="http://www.w3.org/1999/02/22-rdf-syntax-ns#"
   xmlns:svg="http://www.w3.org/2000/svg"
   xmlns="http://www.w3.org/2000/svg"
   xmlns:xlink="http://www.w3.org/1999/xlink"
   xmlns:sodipodi="http://sodipodi.sourceforge.net/DTD/sodipodi-0.dtd"
   xmlns:inkscape="http://www.inkscape.org/namespaces/inkscape"
   width="48"
   viewBox="0 0 13.546667 13.546667"
   height="48"
   id="svg2"
   version="1.1"
   inkscape:version="0.48.4 r9939"
   sodipodi:docname="steam_icon_49600.svg">
  <metadata
     id="metadata20">
    <rdf:RDF>
      <cc:Work
         rdf:about="">
        <dc:format>image/svg+xml</dc:format>
        <dc:type
           rdf:resource="http://purl.org/dc/dcmitype/StillImage" />
      </cc:Work>
    </rdf:RDF>
  </metadata>
  <sodipodi:namedview
     pagecolor="#ffffff"
     bordercolor="#666666"
     borderopacity="1"
     objecttolerance="10"
     gridtolerance="10"
     guidetolerance="10"
     inkscape:pageopacity="0"
     inkscape:pageshadow="2"
     inkscape:window-width="1280"
     inkscape:window-height="998"
     id="namedview18"
     showgrid="false"
     inkscape:zoom="9.8333332"
     inkscape:cx="50.19619"
     inkscape:cy="23.139525"
     inkscape:window-x="0"
     inkscape:window-y="0"
     inkscape:window-maximized="1"
     inkscape:current-layer="svg2" />
  <defs
     id="defs4">
    <inkscape:path-effect
       effect="spiro"
       id="path-effect3791"
       is_visible="true" />
    <linearGradient
       id="0">
      <stop
         stop-color="#dcb239"
         id="stop7" />
      <stop
         offset="1"
         stop-color="#ffd848"
         id="stop9" />
    </linearGradient>
    <linearGradient
       xlink:href="#0"
       id="1"
       gradientUnits="userSpaceOnUse"
       gradientTransform="matrix(1.10528,0,0,1.10528,-134.28288,-295.77052)"
       y1="279.1"
       x2="0"
       y2="268.33" />
    <linearGradient
       gradientTransform="matrix(0.28222223,0,0,0.28222223,0,-283.45334)"
       xlink:href="#0"
       id="F"
       y1="1050.36"
       x2="0"
       y2="1006.36"
       gradientUnits="userSpaceOnUse" />
    <linearGradient
       id="4">
      <stop
         stop-color="#b2b2b2"
         id="stop167" />
      <stop
         offset="1"
         stop-color="#dedede"
         id="stop169" />
    </linearGradient>
  </defs>
  <g
     transform="matrix(0.28222223,0,0,0.28222223,0,-283.45334)"
     id="g190">
    <path
       style="opacity:0.05"
       inkscape:connector-curvature="0"
       transform="translate(0,1004.3622)"
       d="M 5.1875,1 C 2.8707723,1 1,2.8707723 1,5.1875 l 0,37.625 C 1,45.129228 2.8707723,47 5.1875,47 l 37.625,0 C 45.129228,47 47,45.129228 47,42.8125 L 47,5.1875 C 47,2.8707723 45.129228,1 42.8125,1 L 5.1875,1 z m 0.1875,0.25 37.25,0 c 2.291546,0 4.125,1.8334541 4.125,4.125 l 0,37.25 c 0,2.291546 -1.833454,4.125 -4.125,4.125 l -37.25,0 C 3.0834541,46.75 1.25,44.916546 1.25,42.625 l 0,-37.25 C 1.25,3.0834541 3.0834541,1.25 5.375,1.25 z"
       id="path192" />
    <path
       style="opacity:0.1"
       inkscape:connector-curvature="0"
       transform="translate(0,1004.3622)"
       d="M 5.375,1.25 C 3.0834541,1.25 1.25,3.0834541 1.25,5.375 l 0,37.25 c 0,2.291546 1.8334541,4.125 4.125,4.125 l 37.25,0 c 2.291546,0 4.125,-1.833454 4.125,-4.125 l 0,-37.25 C 46.75,3.0834541 44.916546,1.25 42.625,1.25 l -37.25,0 z m 0.21875,0.25 36.8125,0 C 44.672614,1.5 46.5,3.3273859 46.5,5.59375 l 0,36.8125 C 46.5,44.672614 44.672614,46.5 42.40625,46.5 l -36.8125,0 C 3.3273859,46.5 1.5,44.672614 1.5,42.40625 l 0,-36.8125 C 1.5,3.3273859 3.3273859,1.5 5.59375,1.5 z"
       id="path194" />
    <path
       style="opacity:0.2"
       inkscape:connector-curvature="0"
       transform="translate(0,1004.3622)"
       d="M 5.59375,1.5 C 3.3273859,1.5 1.5,3.3273859 1.5,5.59375 l 0,36.8125 C 1.5,44.672614 3.3273859,46.5 5.59375,46.5 l 36.8125,0 C 44.672614,46.5 46.5,44.672614 46.5,42.40625 l 0,-36.8125 C 46.5,3.3273859 44.672614,1.5 42.40625,1.5 l -36.8125,0 z m 0.09375,0.125 36.625,0 c 2.253773,0 4.0625,1.8087269 4.0625,4.0625 l 0,36.625 c 0,2.253773 -1.808727,4.0625 -4.0625,4.0625 l -36.625,0 c -2.2537731,0 -4.0625,-1.808727 -4.0625,-4.0625 l 0,-36.625 C 1.625,3.4337269 3.4337269,1.625 5.6875,1.625 z"
       id="path196" />
    <path
       style="opacity:0.3"
       inkscape:connector-curvature="0"
       transform="translate(0,1004.3622)"
       d="M 5.6875,1.625 C 3.4337269,1.625 1.625,3.4337269 1.625,5.6875 l 0,36.625 c 0,2.253773 1.8087269,4.0625 4.0625,4.0625 l 36.625,0 c 2.253773,0 4.0625,-1.808727 4.0625,-4.0625 l 0,-36.625 c 0,-2.2537731 -1.808727,-4.0625 -4.0625,-4.0625 l -36.625,0 z m 0.09375,0.125 36.4375,0 c 2.241182,0 4.03125,1.7900679 4.03125,4.03125 l 0,36.4375 c 0,2.241182 -1.790068,4.03125 -4.03125,4.03125 l -36.4375,0 C 3.5400679,46.25 1.75,44.459932 1.75,42.21875 l 0,-36.4375 C 1.75,3.5400679 3.5400679,1.75 5.78125,1.75 z"
       id="path198" />
    <path
       style="opacity:0.4"
       inkscape:connector-curvature="0"
       transform="translate(0,1004.3622)"
       d="M 5.78125,1.75 C 3.5400679,1.75 1.75,3.5400679 1.75,5.78125 l 0,36.4375 c 0,2.241182 1.7900679,4.03125 4.03125,4.03125 l 36.4375,0 c 2.241182,0 4.03125,-1.790068 4.03125,-4.03125 l 0,-36.4375 C 46.25,3.5400679 44.459932,1.75 42.21875,1.75 l -36.4375,0 z m 0.125,0.125 36.1875,0 c 2.228591,0 4.03125,1.802659 4.03125,4.03125 l 0,36.1875 c 0,2.228591 -1.802659,4.03125 -4.03125,4.03125 l -36.1875,0 C 3.677659,46.125 1.875,44.322341 1.875,42.09375 l 0,-36.1875 C 1.875,3.677659 3.677659,1.875 5.90625,1.875 z"
       id="path200" />
    <rect
       style="opacity:0.5"
       width="44.25"
       height="44.25"
       x="1.875"
       y="1006.24"
       rx="4.02"
       id="rect202" />
  </g>
  <rect
     style="fill:url(#F);fill-opacity:1.0"
     width="12.418"
     height="12.418"
     x="0.5640012"
     y="0.56400061"
     rx="1.1289999"
     id="rect204" />
  <path
     style="opacity:1;fill:#2d2d2d;fill-opacity:1;stroke:none"
     d="M 24 9 C 15.715728 9 9 15.715728 9 24 C 9 32.284272 15.715728 39 24 39 C 32.284272 39 39 32.284272 39 24 C 39 15.715728 32.284272 9 24 9 z M 24 10.5 C 31.45027 10.5 37.5 16.54973 37.5 24 C 37.5 31.45027 31.45027 37.5 24 37.5 C 16.54973 37.5 10.5 31.45027 10.5 24 C 10.5 16.54973 16.54973 10.5 24 10.5 z "
     transform="scale(0.28222223,0.28222223)"
     id="path3008" />
  <path
     style="fill:none;stroke:#2d2d2d;stroke-width:1px;stroke-linecap:butt;stroke-linejoin:miter;stroke-opacity:1;opacity:1;fill-opacity:1"
     d="m 24.736753,33.33053 c 1.333739,0.389777 3.997796,-0.797036 5.393187,-2.588729 l 0,0"
     id="path3795"
     inkscape:connector-curvature="0"
     transform="scale(0.28222223,0.28222223)"
     sodipodi:nodetypes="ccc" />
  <path
     style="fill:#2d2d2d;fill-opacity:1;stroke:none"
     d="M 3.209601,5.8130958 C 3.6118295,5.6281164 4.1924809,5.5012462 4.7786443,5.4818081 c 0.6457112,0.016417 1.4429574,0.00704 1.7722596,0.2511301 l 0.6457629,-0.00717 C 7.3732067,5.4413524 7.9249667,5.3734136 8.5958193,5.3741821 L 8.4953674,5.6683629 8.7321471,5.689888 8.12226,6.6154813 8.1294341,6.7805096 9.1339539,6.0845208 8.9976262,5.8477411 C 9.34613,5.4972575 9.3217547,5.494595 9.4998861,5.2880801 c 0.2422787,0.020094 0.4772812,0.054741 0.6816379,0.1506778 -0.0048,0.511823 0.05628,1.0314004 -0.2583046,1.5067797 C 9.4883669,7.2455164 8.9178758,7.4570349 7.6128241,7.1894925 7.4657547,7.1490475 7.2629732,6.6796544 7.1536146,6.375114 7.0992654,6.1560664 6.5761829,6.1630996 6.5293777,6.393052 6.3918458,6.6799899 6.276247,7.1423958 6.1132193,7.2253686 5.3661226,7.6226274 4.0349196,7.5819507 3.709547,7.3903969 3.3434043,7.2193917 3.1886116,6.2638425 3.209601,5.8130961 z"
     id="path3797"
     inkscape:connector-curvature="0"
     sodipodi:nodetypes="cccccccccccccccccccc" />
</svg>
