<svg viewBox="0 0 48 48"><defs><linearGradient id="linearGradient3764" x1="1" x2="47" gradientUnits="userSpaceOnUse" gradientTransform="translate(-47.997785,0.00221467)"><stop stop-color="#ed4141" stop-opacity="1"/><stop offset="1" stop-color="#ef5353" stop-opacity="1"/></linearGradient><clipPath id="clipPath-645057399"><g transform="translate(0,-1004.3622)"><rect rx="4" y="1005.36" x="1" height="46" width="46" fill="#1890d0"/></g></clipPath><clipPath id="clipPath-661430625"><g transform="translate(0,-1004.3622)"><rect rx="4" y="1005.36" x="1" height="46" width="46" fill="#1890d0"/></g></clipPath></defs><g><g transform="translate(0,-1004.3622)"><path d="m 5 1006.36 c -2.216 0 -4 1.784 -4 4 l 0 37.25 c 0 2.216 1.784 4 4 4 l 38 0 c 2.216 0 4 -1.784 4 -4 l 0 -37.25 c 0 -2.216 -1.784 -4 -4 -4 l -38 0 z m -4 41.5 0 0.5 c 0 2.216 1.784 4 4 4 l 38 0 c 2.216 0 4 -1.784 4 -4 l 0 -0.5 c 0 2.216 -1.784 4 -4 4 l -38 0 c -2.216 0 -4 -1.784 -4 -4 z" opacity="0.02"/><path d="m 1 1047.61 0 0.25 c 0 2.216 1.784 4 4 4 l 38 0 c 2.216 0 4 -1.784 4 -4 l 0 -0.25 c 0 2.216 -1.784 4 -4 4 l -38 0 c -2.216 0 -4 -1.784 -4 -4 z" opacity="0.05"/><rect width="46" height="46" x="1" y="1005.61" rx="4" opacity="0.1"/></g></g><g><rect width="46" height="46" x="-46.998" y="1" rx="4" transform="matrix(0,-1,1,0,0,0)" fill="url(#linearGradient3764)" fill-opacity="1"/></g><g/><g><g clip-path="url(#clipPath-645057399)"><g opacity="0.1"><!-- color: #ef5353 --><g><path d="m 23.988 9 c -8.262 0 -14.988 6.699 -14.988 14.984 c 0 8.289 6.727 15.01 14.988 15.01 c 8.262 0 15.01 -6.723 15.01 -15.01 c 0 -8.289 -6.75 -14.984 -15.01 -14.984 m 0 2 c 7.211 0 13.02 5.809 13.02 12.984 c 0 7.176 -5.813 13.02 -13.02 13.02 c -7.211 0 -12.996 -5.84 -12.996 -13.02 c 0 -7.176 5.781 -12.984 12.996 -12.984 m 0 0" fill="#000" stroke="none" fill-rule="nonzero" fill-opacity="0.502"/><path d="m 23.988 9 c -8.262 0 -14.988 6.699 -14.988 14.984 l 1.992 0 c 0 -7.176 5.781 -12.984 12.996 -12.984 c 7.211 0 13.02 5.809 13.02 12.984 l 0 0.137 c -0.078 7.125 -5.859 12.879 -13.02 12.879 l 0 1.996 c 8.262 0 15.01 -6.723 15.01 -15.01 c 0 -8.289 -6.75 -14.977 -15.01 -14.977 m 0 0" fill="#000" stroke="none" fill-rule="nonzero" fill-opacity="1"/><path d="m 9.563 20 c -0.352 1.273 -0.563 2.617 -0.563 4 c 0 1.727 0.305 3.395 0.844 4.938 l 0.156 0.063 l 6 -9 m -6.438 0" fill="#000" stroke="none" fill-rule="nonzero" fill-opacity="1"/></g></g></g></g><g><g clip-path="url(#clipPath-661430625)"><g transform="translate(0,-1)"><!-- color: #ef5353 --><g><path d="m 23.988 9 c -8.262 0 -14.988 6.699 -14.988 14.984 c 0 8.289 6.727 15.01 14.988 15.01 c 8.262 0 15.01 -6.723 15.01 -15.01 c 0 -8.289 -6.75 -14.984 -15.01 -14.984 m 0 2 c 7.211 0 13.02 5.809 13.02 12.984 c 0 7.176 -5.813 13.02 -13.02 13.02 c -7.211 0 -12.996 -5.84 -12.996 -13.02 c 0 -7.176 5.781 -12.984 12.996 -12.984 m 0 0" fill="#2d2d2d" stroke="none" fill-rule="nonzero" fill-opacity="0.502"/><path d="m 23.988 9 c -8.262 0 -14.988 6.699 -14.988 14.984 l 1.992 0 c 0 -7.176 5.781 -12.984 12.996 -12.984 c 7.211 0 13.02 5.809 13.02 12.984 l 0 0.137 c -0.078 7.125 -5.859 12.879 -13.02 12.879 l 0 1.996 c 8.262 0 15.01 -6.723 15.01 -15.01 c 0 -8.289 -6.75 -14.977 -15.01 -14.977 m 0 0" fill="#2d2d2d" stroke="none" fill-rule="nonzero" fill-opacity="1"/><path d="m 9.563 20 c -0.352 1.273 -0.563 2.617 -0.563 4 c 0 1.727 0.305 3.395 0.844 4.938 l 0.156 0.063 l 6 -9 m -6.438 0" fill="#2d2d2d" stroke="none" fill-rule="nonzero" fill-opacity="1"/></g></g></g></g><g><g transform="translate(0,-1004.3622)"><path d="m 1 1043.36 0 4 c 0 2.216 1.784 4 4 4 l 38 0 c 2.216 0 4 -1.784 4 -4 l 0 -4 c 0 2.216 -1.784 4 -4 4 l -38 0 c -2.216 0 -4 -1.784 -4 -4 z" opacity="0.1"/></g></g></svg>