<svg viewBox="0 0 48 48"><defs><linearGradient id="linearGradient3764" x1="1" x2="47" gradientUnits="userSpaceOnUse" gradientTransform="translate(-48.000001,0.00221467)"><stop stop-color="#f2cc1a" stop-opacity="1"/><stop offset="1" stop-color="#f3ce2d" stop-opacity="1"/></linearGradient><clipPath id="clipPath-807163007"><g transform="translate(0,-1004.3622)"><rect rx="4" y="1005.36" x="1" height="46" width="46" fill="#1890d0"/></g></clipPath><clipPath id="clipPath-821383453"><g transform="translate(0,-1004.3622)"><rect rx="4" y="1005.36" x="1" height="46" width="46" fill="#1890d0"/></g></clipPath></defs><g><path d="m 1 43 l 0 0.25 c 0 2.216 1.784 4 4 4 l 38 0 c 2.216 0 4 -1.784 4 -4 l 0 -0.25 c 0 2.216 -1.784 4 -4 4 l -38 0 c -2.216 0 -4 -1.784 -4 -4 z m 0 0.5 l 0 0.5 c 0 2.216 1.784 4 4 4 l 38 0 c 2.216 0 4 -1.784 4 -4 l 0 -0.5 c 0 2.216 -1.784 4 -4 4 l -38 0 c -2.216 0 -4 -1.784 -4 -4 z" opacity="0.02"/><path d="m 1 43.25 l 0 0.25 c 0 2.216 1.784 4 4 4 l 38 0 c 2.216 0 4 -1.784 4 -4 l 0 -0.25 c 0 2.216 -1.784 4 -4 4 l -38 0 c -2.216 0 -4 -1.784 -4 -4 z" opacity="0.05"/><path d="m 1 43 l 0 0.25 c 0 2.216 1.784 4 4 4 l 38 0 c 2.216 0 4 -1.784 4 -4 l 0 -0.25 c 0 2.216 -1.784 4 -4 4 l -38 0 c -2.216 0 -4 -1.784 -4 -4 z" opacity="0.1"/></g><g><rect width="46" height="46" x="-47" y="1" rx="4" transform="matrix(0,-1,1,0,0,0)" fill="url(#linearGradient3764)" fill-opacity="1"/></g><g><g clip-path="url(#clipPath-807163007)"><g opacity="0.1"><!-- color: #f3ce2d --><g><path d="m 11 12 l 10.527 26 l 4.941 0 c -0.953 -1.379 -0.301 -2.805 0.965 -3.656 c -0.707 -0.434 -1.152 -1.035 -1.152 -1.719 c 0 -0.805 0.617 -1.531 1.559 -1.969 c -0.195 -0.473 -0.223 -0.934 -0.035 -1.375 c 0.34 -0.789 1.27 -1.27 2.402 -1.313 c -0.551 -1.172 0.148 -2.039 1 -1.66 l 5.789 -14.316 l -4.504 0 c -3.449 8.855 -5.672 14.609 -6.668 17.25 c -0.98 2.625 -1.574 4.348 -1.762 5.188 l -0.203 0 c -0.234 -1.078 -1.016 -3.426 -2.371 -7.03 l -5.988 -15.406 m -4.5 0.004" stroke="none" fill-rule="nonzero" fill-opacity="1" fill="#000"/></g></g></g></g><g><g clip-path="url(#clipPath-821383453)"><g transform="translate(0,-1)"><!-- color: #f3ce2d --><g><path d="m 11 12 l 10.527 26 l 4.941 0 c -0.953 -1.379 -0.301 -2.805 0.965 -3.656 c -0.707 -0.434 -1.152 -1.035 -1.152 -1.719 c 0 -0.805 0.617 -1.531 1.559 -1.969 c -0.195 -0.473 -0.223 -0.934 -0.035 -1.375 c 0.34 -0.789 1.27 -1.27 2.402 -1.313 c -0.551 -1.172 0.148 -2.039 1 -1.66 l 5.789 -14.316 l -4.504 0 c -3.449 8.855 -5.672 14.609 -6.668 17.25 c -0.98 2.625 -1.574 4.348 -1.762 5.188 l -0.203 0 c -0.234 -1.078 -1.016 -3.426 -2.371 -7.03 l -5.988 -15.406 m -4.5 0.004" fill="#db3d2f" stroke="none" fill-rule="nonzero" fill-opacity="1"/></g></g></g></g><g><g transform="translate(0,-1004.3622)"><path d="m 1 1043.36 0 4 c 0 2.216 1.784 4 4 4 l 38 0 c 2.216 0 4 -1.784 4 -4 l 0 -4 c 0 2.216 -1.784 4 -4 4 l -38 0 c -2.216 0 -4 -1.784 -4 -4 z" opacity="0.1"/></g></g></svg>