<svg viewBox="0 0 48 48"><defs><linearGradient id="linearGradient3764" x1="1" x2="47" gradientUnits="userSpaceOnUse" gradientTransform="translate(-47.997785,0.00221467)"><stop stop-color="#e4e4e4" stop-opacity="1"/><stop offset="1" stop-color="#eee" stop-opacity="1"/></linearGradient><clipPath id="clipPath-404267727"><g transform="translate(0,-1004.3622)"><rect rx="4" y="1005.36" x="1" height="46" width="46" fill="#1890d0"/></g></clipPath><clipPath id="clipPath-421898919"><g transform="translate(0,-1004.3622)"><rect rx="4" y="1005.36" x="1" height="46" width="46" fill="#1890d0"/></g></clipPath></defs><g><g transform="translate(0,-1004.3622)"><path d="m 5 1006.36 c -2.216 0 -4 1.784 -4 4 l 0 37.25 c 0 2.216 1.784 4 4 4 l 38 0 c 2.216 0 4 -1.784 4 -4 l 0 -37.25 c 0 -2.216 -1.784 -4 -4 -4 l -38 0 z m -4 41.5 0 0.5 c 0 2.216 1.784 4 4 4 l 38 0 c 2.216 0 4 -1.784 4 -4 l 0 -0.5 c 0 2.216 -1.784 4 -4 4 l -38 0 c -2.216 0 -4 -1.784 -4 -4 z" opacity="0.02"/><path d="m 1 1047.61 0 0.25 c 0 2.216 1.784 4 4 4 l 38 0 c 2.216 0 4 -1.784 4 -4 l 0 -0.25 c 0 2.216 -1.784 4 -4 4 l -38 0 c -2.216 0 -4 -1.784 -4 -4 z" opacity="0.05"/><rect width="46" height="46" x="1" y="1005.61" rx="4" opacity="0.1"/></g></g><g><rect width="46" height="46" x="-46.998" y="1" rx="4" transform="matrix(0,-1,1,0,0,0)" fill="url(#linearGradient3764)" fill-opacity="1"/></g><g/><g><g clip-path="url(#clipPath-404267727)"><g opacity="0.1"><!-- color: #eeeeee --><g><path d="m 24 24 l -10 -6 l 10 -6 m 0 12" fill="#000" stroke="none" fill-rule="nonzero" fill-opacity="1"/><path d="m 24 12 l 0 12 l 10 -6 m -10 -6" fill="#000" stroke="none" fill-rule="nonzero" fill-opacity="1"/><path d="m 24 24 l 10 -6 l 0 12 m -10 -6" fill="#000" stroke="none" fill-rule="nonzero" fill-opacity="1"/><path d="m 24 36 l 0 -12 l 10 6 m -10 6" fill="#000" stroke="none" fill-rule="nonzero" fill-opacity="1"/><path d="m 24 36 l -10 -6 l 10 -6 m 0 12" fill="#000" stroke="none" fill-rule="nonzero" fill-opacity="1"/></g></g></g></g><g><g clip-path="url(#clipPath-421898919)"><g transform="translate(0,-1)"><!-- color: #eeeeee --><g><path d="m 24 24 l -10 -6 l 10 -6 m 0 12" fill="#f4b235" stroke="none" fill-rule="nonzero" fill-opacity="1"/><path d="m 24 12 l 0 12 l 10 -6 m -10 -6" fill="#f37d3b" stroke="none" fill-rule="nonzero" fill-opacity="1"/><path d="m 24 24 l 10 -6 l 0 12 m -10 -6" fill="#de2851" stroke="none" fill-rule="nonzero" fill-opacity="1"/><path d="m 24 36 l 0 -12 l 10 6 m -10 6" fill="#862058" stroke="none" fill-rule="nonzero" fill-opacity="1"/><path d="m 24 36 l -10 -6 l 10 -6 m 0 12" fill="#2c61a9" stroke="none" fill-rule="nonzero" fill-opacity="1"/></g></g></g></g><g><g transform="translate(0,-1004.3622)"><path d="m 1 1043.36 0 4 c 0 2.216 1.784 4 4 4 l 38 0 c 2.216 0 4 -1.784 4 -4 l 0 -4 c 0 2.216 -1.784 4 -4 4 l -38 0 c -2.216 0 -4 -1.784 -4 -4 z" opacity="0.1"/></g></g></svg>