<svg viewBox="0 0 48 48"><defs><linearGradient id="linearGradient3764" x1="1" x2="47" gradientUnits="userSpaceOnUse" gradientTransform="translate(-47.997785,0.00221467)"><stop stop-color="#e9e9e9" stop-opacity="1"/><stop offset="1" stop-color="#f3f3f3" stop-opacity="1"/></linearGradient><clipPath id="clipPath-248390863"><g transform="translate(0,-1004.3622)"><rect rx="4" y="1005.36" x="1" height="46" width="46" fill="#1890d0"/></g></clipPath><clipPath id="clipPath-257948953"><g transform="translate(0,-1004.3622)"><rect rx="4" y="1005.36" x="1" height="46" width="46" fill="#1890d0"/></g></clipPath></defs><g><g transform="translate(0,-1004.3622)"><path d="m 5 1006.36 c -2.216 0 -4 1.784 -4 4 l 0 37.25 c 0 2.216 1.784 4 4 4 l 38 0 c 2.216 0 4 -1.784 4 -4 l 0 -37.25 c 0 -2.216 -1.784 -4 -4 -4 l -38 0 z m -4 41.5 0 0.5 c 0 2.216 1.784 4 4 4 l 38 0 c 2.216 0 4 -1.784 4 -4 l 0 -0.5 c 0 2.216 -1.784 4 -4 4 l -38 0 c -2.216 0 -4 -1.784 -4 -4 z" opacity="0.02"/><path d="m 1 1047.61 0 0.25 c 0 2.216 1.784 4 4 4 l 38 0 c 2.216 0 4 -1.784 4 -4 l 0 -0.25 c 0 2.216 -1.784 4 -4 4 l -38 0 c -2.216 0 -4 -1.784 -4 -4 z" opacity="0.05"/><rect width="46" height="46" x="1" y="1005.61" rx="4" opacity="0.1"/></g></g><g><rect width="46" height="46" x="-46.998" y="1" rx="4" transform="matrix(0,-1,1,0,0,0)" fill="url(#linearGradient3764)" fill-opacity="1"/></g><g/><g><g clip-path="url(#clipPath-248390863)"><g opacity="0.1"><!-- color: #f3f3f3 --><g><path d="m 31.31 13.637 c 1.914 1.484 2.957 3.445 2.633 4.734 l -7.801 -6.05 c -0.027 -0.02 -0.051 -0.035 -0.074 -0.055 c 1.168 -0.637 3.324 -0.113 5.238 1.371 m 0.004 0" stroke="none" fill-rule="evenodd" fill-opacity="1" fill="#000"/><path d="m 32.73 18.07 l -0.496 -0.387 c -0.539 -0.418 -1.313 -0.32 -1.73 0.219 l -8.188 10.551 c -0.414 0.539 -0.316 1.316 0.219 1.73 l 0.496 0.387 c 0.539 0.418 1.313 0.32 1.73 -0.219 l 8.188 -10.551 c 0.414 -0.539 0.316 -1.316 -0.219 -1.73 m 0 0" stroke="none" fill-rule="evenodd" fill-opacity="1" fill="#000"/><path d="m 29.957 15.918 l -0.496 -0.383 c -0.539 -0.418 -1.313 -0.32 -1.73 0.219 l -8.184 10.551 c -0.418 0.539 -0.32 1.313 0.219 1.73 l 0.496 0.383 c 0.535 0.418 1.313 0.32 1.73 -0.219 l 8.184 -10.551 c 0.418 -0.539 0.32 -1.313 -0.219 -1.73 m 0 0" stroke="none" fill-rule="evenodd" fill-opacity="1" fill="#000"/><path d="m 27.16 13.746 l -0.496 -0.383 c -0.535 -0.418 -1.313 -0.32 -1.727 0.219 l -8.188 10.551 c -0.418 0.539 -0.32 1.313 0.219 1.73 l 0.496 0.383 c 0.539 0.418 1.313 0.32 1.73 -0.219 l 8.184 -10.551 c 0.418 -0.539 0.32 -1.313 -0.219 -1.73 m 0 0" stroke="none" fill-rule="evenodd" fill-opacity="1" fill="#000"/><path d="m 23.633 31.801 c 0.031 -0.207 -7.758 -6.254 -7.949 -6.168 c -0.191 0.086 -1.828 10.238 -1.668 10.363 c 0.156 0.125 9.586 -3.984 9.621 -4.195 m -0.004 0" stroke="none" fill-rule="evenodd" fill-opacity="1" fill="#000"/><path d="m 14.375 33.03 c -0.238 1.59 -0.43 2.926 -0.375 2.969 c 0.055 0.043 1.418 -0.516 3 -1.188 m -2.625 -1.781" stroke="none" fill-rule="nonzero" fill-opacity="1" fill="#000"/></g></g></g></g><g><g clip-path="url(#clipPath-257948953)"><g transform="translate(0,-1)"><!-- color: #f3f3f3 --><g><path d="m 31.31 13.637 c 1.914 1.484 2.957 3.445 2.633 4.734 l -7.801 -6.05 c -0.027 -0.02 -0.051 -0.035 -0.074 -0.055 c 1.168 -0.637 3.324 -0.113 5.238 1.371 m 0.004 0" fill="#cc3d3d" stroke="none" fill-rule="evenodd" fill-opacity="1"/><path d="m 32.73 18.07 l -0.496 -0.387 c -0.539 -0.418 -1.313 -0.32 -1.73 0.219 l -8.188 10.551 c -0.414 0.539 -0.316 1.316 0.219 1.73 l 0.496 0.387 c 0.539 0.418 1.313 0.32 1.73 -0.219 l 8.188 -10.551 c 0.414 -0.539 0.316 -1.316 -0.219 -1.73 m 0 0" fill="#0078c1" stroke="none" fill-rule="evenodd" fill-opacity="1"/><path d="m 29.957 15.918 l -0.496 -0.383 c -0.539 -0.418 -1.313 -0.32 -1.73 0.219 l -8.184 10.551 c -0.418 0.539 -0.32 1.313 0.219 1.73 l 0.496 0.383 c 0.535 0.418 1.313 0.32 1.73 -0.219 l 8.184 -10.551 c 0.418 -0.539 0.32 -1.313 -0.219 -1.73 m 0 0" fill="#0078c1" stroke="none" fill-rule="evenodd" fill-opacity="1"/><path d="m 27.16 13.746 l -0.496 -0.383 c -0.535 -0.418 -1.313 -0.32 -1.727 0.219 l -8.188 10.551 c -0.418 0.539 -0.32 1.313 0.219 1.73 l 0.496 0.383 c 0.539 0.418 1.313 0.32 1.73 -0.219 l 8.184 -10.551 c 0.418 -0.539 0.32 -1.313 -0.219 -1.73 m 0 0" fill="#0078c1" stroke="none" fill-rule="evenodd" fill-opacity="1"/><path d="m 23.633 31.801 c 0.031 -0.207 -7.758 -6.254 -7.949 -6.168 c -0.191 0.086 -1.828 10.238 -1.668 10.363 c 0.156 0.125 9.586 -3.984 9.621 -4.195 m -0.004 0" fill="#d6aa37" stroke="none" fill-rule="evenodd" fill-opacity="1"/><path d="m 14.375 33.03 c -0.238 1.59 -0.43 2.926 -0.375 2.969 c 0.055 0.043 1.418 -0.516 3 -1.188 m -2.625 -1.781" fill="#2d2d2d" stroke="none" fill-rule="nonzero" fill-opacity="1"/></g></g></g></g><g><g transform="translate(0,-1004.3622)"><path d="m 1 1043.36 0 4 c 0 2.216 1.784 4 4 4 l 38 0 c 2.216 0 4 -1.784 4 -4 l 0 -4 c 0 2.216 -1.784 4 -4 4 l -38 0 c -2.216 0 -4 -1.784 -4 -4 z" opacity="0.1"/></g></g></svg>