<?xml version="1.0" encoding="UTF-8" standalone="no"?>
<svg
   xmlns:dc="http://purl.org/dc/elements/1.1/"
   xmlns:cc="http://creativecommons.org/ns#"
   xmlns:rdf="http://www.w3.org/1999/02/22-rdf-syntax-ns#"
   xmlns:svg="http://www.w3.org/2000/svg"
   xmlns="http://www.w3.org/2000/svg"
   xmlns:xlink="http://www.w3.org/1999/xlink"
   xmlns:sodipodi="http://sodipodi.sourceforge.net/DTD/sodipodi-0.dtd"
   xmlns:inkscape="http://www.inkscape.org/namespaces/inkscape"
   width="48"
   viewBox="0 0 13.546667 13.546667"
   height="48"
   id="svg2"
   version="1.1"
   inkscape:version="0.48.4 r9939"
   sodipodi:docname="workrave.svg">
  <metadata
     id="metadata32">
    <rdf:RDF>
      <cc:Work
         rdf:about="">
        <dc:format>image/svg+xml</dc:format>
        <dc:type
           rdf:resource="http://purl.org/dc/dcmitype/StillImage" />
      </cc:Work>
    </rdf:RDF>
  </metadata>
  <sodipodi:namedview
     pagecolor="#ffffff"
     bordercolor="#666666"
     borderopacity="1"
     objecttolerance="10"
     gridtolerance="10"
     guidetolerance="10"
     inkscape:pageopacity="0"
     inkscape:pageshadow="2"
     inkscape:window-width="1280"
     inkscape:window-height="998"
     id="namedview30"
     showgrid="false"
     inkscape:zoom="2.4583333"
     inkscape:cx="-29.372777"
     inkscape:cy="-33.816254"
     inkscape:window-x="0"
     inkscape:window-y="0"
     inkscape:window-maximized="1"
     inkscape:current-layer="svg2" />
  <defs
     id="defs4">
    <linearGradient
       id="linearGradient3772">
      <stop
         style="stop-color:#54bdd7;stop-opacity:1;"
         offset="0"
         id="stop3774" />
      <stop
         style="stop-color:#79cbe0;stop-opacity:1;"
         offset="1"
         id="stop3776" />
    </linearGradient>
    <linearGradient
       id="0">
      <stop
         stop-color="#dedede"
         id="stop7" />
      <stop
         offset="1"
         stop-color="#f9f9f9"
         id="stop9" />
    </linearGradient>
    <linearGradient
       gradientTransform="matrix(0.28222223,0,0,0.28222223,0,-283.45334)"
       xlink:href="#0"
       id="1"
       y1="1050.36"
       x2="0"
       y2="1006.36"
       gradientUnits="userSpaceOnUse" />
    <linearGradient
       inkscape:collect="always"
       xlink:href="#linearGradient3772"
       id="linearGradient3778"
       x1="0.56400001"
       y1="6.7730001"
       x2="12.982"
       y2="6.7730001"
       gradientUnits="userSpaceOnUse" />
    <linearGradient
       inkscape:collect="always"
       xlink:href="#linearGradient3772"
       id="linearGradient3780"
       gradientUnits="userSpaceOnUse"
       x1="6.5711322"
       y1="12.922193"
       x2="6.4675093"
       y2="0.54263014" />
  </defs>
  <g
     transform="matrix(0.28222223,0,0,0.28222223,0,-283.45334)"
     id="g12">
    <path
       transform="translate(0,1004.3622)"
       d="M 5.1875,1 C 2.8707723,1 1,2.8707723 1,5.1875 l 0,37.625 C 1,45.129228 2.8707723,47 5.1875,47 l 37.625,0 C 45.129228,47 47,45.129228 47,42.8125 L 47,5.1875 C 47,2.8707723 45.129228,1 42.8125,1 L 5.1875,1 z m 0.1875,0.25 37.25,0 c 2.291546,0 4.125,1.8334541 4.125,4.125 l 0,37.25 c 0,2.291546 -1.833454,4.125 -4.125,4.125 l -37.25,0 C 3.0834541,46.75 1.25,44.916546 1.25,42.625 l 0,-37.25 C 1.25,3.0834541 3.0834541,1.25 5.375,1.25 z"
       opacity="0.05"
       id="path14" />
    <path
       transform="translate(0,1004.3622)"
       d="M 5.375,1.25 C 3.0834541,1.25 1.25,3.0834541 1.25,5.375 l 0,37.25 c 0,2.291546 1.8334541,4.125 4.125,4.125 l 37.25,0 c 2.291546,0 4.125,-1.833454 4.125,-4.125 l 0,-37.25 C 46.75,3.0834541 44.916546,1.25 42.625,1.25 l -37.25,0 z m 0.21875,0.25 36.8125,0 C 44.672614,1.5 46.5,3.3273859 46.5,5.59375 l 0,36.8125 C 46.5,44.672614 44.672614,46.5 42.40625,46.5 l -36.8125,0 C 3.3273859,46.5 1.5,44.672614 1.5,42.40625 l 0,-36.8125 C 1.5,3.3273859 3.3273859,1.5 5.59375,1.5 z"
       opacity="0.1"
       id="path16" />
    <path
       transform="translate(0,1004.3622)"
       d="M 5.59375,1.5 C 3.3273859,1.5 1.5,3.3273859 1.5,5.59375 l 0,36.8125 C 1.5,44.672614 3.3273859,46.5 5.59375,46.5 l 36.8125,0 C 44.672614,46.5 46.5,44.672614 46.5,42.40625 l 0,-36.8125 C 46.5,3.3273859 44.672614,1.5 42.40625,1.5 l -36.8125,0 z m 0.09375,0.125 36.625,0 c 2.253773,0 4.0625,1.8087269 4.0625,4.0625 l 0,36.625 c 0,2.253773 -1.808727,4.0625 -4.0625,4.0625 l -36.625,0 c -2.2537731,0 -4.0625,-1.808727 -4.0625,-4.0625 l 0,-36.625 C 1.625,3.4337269 3.4337269,1.625 5.6875,1.625 z"
       opacity="0.2"
       id="path18" />
    <path
       transform="translate(0,1004.3622)"
       d="M 5.6875,1.625 C 3.4337269,1.625 1.625,3.4337269 1.625,5.6875 l 0,36.625 c 0,2.253773 1.8087269,4.0625 4.0625,4.0625 l 36.625,0 c 2.253773,0 4.0625,-1.808727 4.0625,-4.0625 l 0,-36.625 c 0,-2.2537731 -1.808727,-4.0625 -4.0625,-4.0625 l -36.625,0 z m 0.09375,0.125 36.4375,0 c 2.241182,0 4.03125,1.7900679 4.03125,4.03125 l 0,36.4375 c 0,2.241182 -1.790068,4.03125 -4.03125,4.03125 l -36.4375,0 C 3.5400679,46.25 1.75,44.459932 1.75,42.21875 l 0,-36.4375 C 1.75,3.5400679 3.5400679,1.75 5.78125,1.75 z"
       opacity="0.3"
       id="path20" />
    <path
       transform="translate(0,1004.3622)"
       d="M 5.78125,1.75 C 3.5400679,1.75 1.75,3.5400679 1.75,5.78125 l 0,36.4375 c 0,2.241182 1.7900679,4.03125 4.03125,4.03125 l 36.4375,0 c 2.241182,0 4.03125,-1.790068 4.03125,-4.03125 l 0,-36.4375 C 46.25,3.5400679 44.459932,1.75 42.21875,1.75 l -36.4375,0 z m 0.125,0.125 36.1875,0 c 2.228591,0 4.03125,1.802659 4.03125,4.03125 l 0,36.1875 c 0,2.228591 -1.802659,4.03125 -4.03125,4.03125 l -36.1875,0 C 3.677659,46.125 1.875,44.322341 1.875,42.09375 l 0,-36.1875 C 1.875,3.677659 3.677659,1.875 5.90625,1.875 z"
       opacity="0.4"
       id="path22" />
    <rect
       width="44.25"
       height="44.25"
       x="1.875"
       y="1006.24"
       rx="4.02"
       opacity="0.5"
       id="rect24" />
  </g>
  <rect
     width="12.418"
     height="12.418"
     x="0.564"
     y="0.564"
     rx="1.129"
     fill="url(#1)"
     id="rect26"
     style="fill:url(#linearGradient3780);fill-opacity:1" />
  <path
     inkscape:connector-curvature="0"
     d="m 5.3278971,3.8899892 c -0.503526,-0.05983 -0.847207,0.282743 -1.068026,0.720551 -0.305196,-0.429468 -0.670565,-0.664645 -1.1907128,-0.745287 -0.1729758,-0.02682 -0.4018987,-0.03926 -0.5162368,0.125132 -0.126388,0.181711 0.04431,0.589234 0.1621491,0.742214 0.08176,0.106263 0.1805179,0.232209 0.3032388,0.290341 0.1765728,0.08365 0.3710957,0.04979 0.5294387,0.173017 -0.06223,-0.01855 -0.114199,-0.03944 -0.179961,-0.03993 -0.3620847,-0.0026 -0.3257638,0.35017 -0.5010456,0.580364 -0.275126,0.361264 -0.6332641,0.674222 -0.6076651,1.170869 0.02857,0.554849 0.5470392,1.053227 1.0661397,1.153906 0.242403,0.04711 0.510475,0.01696 0.75658,0.01696 l 0,0.04502 c -0.296674,0.01502 -0.637037,0.01043 -0.817347,0.133367 -0.1057819,0.204928 0.0017,0.336317 0.04142,0.497071 -0.07142,0.03287 -0.1719268,0.05587 -0.2141848,0.137784 -0.0937,0.156266 -0.05651,0.3026741 -0.0047,0.4882725 0.0403,0.1571148 0.130369,0.2815755 0.2374099,0.3976949 0.121882,0.1028702 0.339105,0.060045 0.534921,0.031347 0.1779,-0.023956 0.488159,-0.1023767 0.664067,-0.1413541 0.365614,-0.088307 0.510162,-0.1238942 0.893585,-0.1092659 0.233149,0.0088 0.362226,0.2089565 0.534048,0.3426443 0.224488,0.1745381 0.513759,0.2861341 0.801073,0.2536911 0.169832,-0.01919 0.317104,-0.116795 0.437345,-0.2343948 0.065,-0.063581 0.124746,-0.1652094 0.215303,-0.1945387 0.122057,-0.039406 0.335858,0.074492 0.45994,0.099966 0.389187,0.079835 0.88028,0.00144 1.068167,-0.3963153 l 0.93462,0.047282 0.4449908,0.1040679 c 0.341236,0.054601 0.849896,0.1544291 0.967867,0.056582 0.126248,-0.064459 0.33083,-0.5243549 0.283997,-0.8712369 -0.0462,-0.122448 -0.142732,-0.148917 -0.272752,-0.192312 0.04456,-0.197047 0.122476,-0.439293 0.02748,-0.534494 -0.171544,-0.144923 -0.784066,-0.142979 -1.229092,-0.186057 0.238316,-0.282955 0.480508,-0.606266 0.335193,-0.990784 -0.06583,-0.174077 -0.219982,-0.318435 -0.267232,-0.495304 -0.06453,-0.241291 0.04921,-0.508661 -0.02539,-0.765607 -0.0357,-0.123049 -0.08179,-0.252247 -0.160402,-0.354445 C 9.905733,5.1606172 9.78888,5.1046402 9.742816,5.0041382 9.662876,4.8297432 9.807666,4.6214222 9.733316,4.4304192 9.549689,3.9583322 8.78361,3.7259112 8.354193,3.9350092 8.19833,3.3879332 7.102329,3.2465802 6.991273,3.5273092 6.833978,3.3953202 6.710035,3.3854252 6.574008,3.4044012 6.435607,3.4236912 6.213739,3.5099932 6.112356,3.6363632 5.935923,3.4983312 5.445984,3.4744782 5.327873,3.8899872 l 0,0 z"
     id="path34"
     style="fill:#2d2d2d;fill-opacity:1;fill-rule:evenodd;stroke:none" />
  <path
     inkscape:connector-curvature="0"
     d="m 6.0400191,3.9800672 c -0.016,-0.03852 -0.02776,-0.09495 -0.05895,-0.127996 -0.172067,-0.182805 -0.378394,-0.03915 -0.490045,0.129728 -0.04274,0.06478 -0.08472,0.176868 -0.169692,0.196128 -0.07885,0.01795 -0.126214,-0.06089 -0.171404,-0.107817 -0.25777,0.05446 -0.543373,0.305889 -0.623069,0.585487 0.38304,0.01834 0.660088,-0.313523 1.068097,-0.224117 0.245023,0.05357 0.680413,0.240302 0.693544,0.539477 0.01121,0.255709 -0.275021,0.479154 -0.470977,0.592343 -0.242822,0.140223 -0.502547,0.02728 -0.756615,0.08301 0.08853,0.19998 0.298594,0.46297 0.315952,0.67553 0.03076,0.375542 -0.20231,0.636587 -0.346475,0.945622 -0.07589,0.162698 -0.02151,0.338471 -0.08042,0.502159 -0.09035,0.251398 -0.414821,0.28815 -0.645594,0.308505 0.03443,0.173476 0.13924,0.288679 0.200076,0.450352 0.03855,0.102164 0.03688,0.213622 0.07931,0.31522 0.162778,0.3895003 0.466681,0.4306704 0.833203,0.4503151 0.05658,-0.072759 0.13627,-0.1998011 0.24799,-0.1387007 0.102186,0.05587 0.117377,0.2271533 0.178703,0.3181537 0.165781,0.2462717 0.561882,0.4758312 0.8639,0.427663 0.165327,-0.026396 0.344763,-0.125448 0.402736,-0.293663 0.0367,-0.1063694 -0.04687,-0.3365613 0.09565,-0.3827493 0.134629,-0.043608 0.258329,0.1847477 0.351852,0.2508692 0.203604,0.143895 0.468114,0.1696596 0.707444,0.128773 0.135991,-0.02329 0.379128,-0.076793 0.430396,-0.2299154 0.03803,-0.1135406 -0.155759,-0.3531346 0.02612,-0.4068496 0.138331,-0.04085 0.250261,0.137396 0.348571,0.2038321 0.209575,0.1416365 0.581438,0.1346019 0.776241,-0.035656 0.2499469,-0.218286 0.3718989,-0.678745 0.1675629,-0.962902 -0.07463,-0.103895 -0.3120059,-0.211076 -0.2904929,-0.360417 0.01561,-0.107994 0.15733,-0.151637 0.230879,-0.209203 0.1544659,-0.120646 0.2777769,-0.311085 0.2574879,-0.515906 -0.0199,-0.201712 -0.169517,-0.383069 -0.3129829,-0.513609 -0.0704,-0.06418 -0.173569,-0.118773 -0.213137,-0.210689 -0.06897,-0.160188 0.115039,-0.20376 0.226025,-0.221395 0.0446,-0.305288 -0.02165,-0.66203 -0.315673,-0.824587 -0.158377,-0.08753 -0.359676,-0.103188 -0.529962,-0.16609 0.107494,-0.137785 0.306627,-0.212173 0.385799,-0.366248 0.214395,-0.417454 -0.538937,-0.685637 -0.83837,-0.65878 -0.111022,0.01 -0.227632,0.105485 -0.338408,0.08368 -0.136516,-0.02675 -0.18932,-0.249772 -0.28707,-0.337092 -0.168576,-0.150613 -0.594851,-0.357166 -0.810642,-0.199628 -0.08993,0.06566 -0.121219,0.207896 -0.158482,0.307162 -0.06154,-0.09365 -0.118984,-0.214823 -0.20514,-0.288114 -0.283368,-0.240903 -0.577248,0.128066 -0.773938,0.288114 l 0,0 z"
     id="path36"
     style="fill:#ffffff;fill-opacity:1;fill-rule:evenodd;stroke:none" />
  <path
     inkscape:connector-curvature="0"
     d="m 4.0817961,4.9257592 c -0.0975,-0.37116 -0.480371,-0.690655 -0.8455999,-0.779743 -0.1231749,-0.03004 -0.3904087,-0.08347 -0.4540726,0.07354 -0.0592,0.146159 0.07662,0.325997 0.1656408,0.42816 0.1827539,0.209664 0.3552757,0.194609 0.5999837,0.251716 0.215967,0.05036 0.314694,0.104779 0.534048,0.02633 l 0,0 z"
     id="path38"
     style="fill:#e4bab7;fill-opacity:1;fill-rule:evenodd;stroke:none" />
  <path
     inkscape:connector-curvature="0"
     d="m 4.6603721,4.9257592 c 0.07009,0.155878 0.176747,0.347625 0.323041,0.444098 0.31438,0.207048 0.922152,0.180333 1.02556,-0.264049 0.104351,-0.448444 -0.630471,-0.537709 -0.903537,-0.435369 -0.160299,0.06008 -0.299853,0.166586 -0.445064,0.25532 l 0,0 z"
     id="path40"
     style="fill:#e4bab7;fill-opacity:1;fill-rule:evenodd;stroke:none" />
  <path
     inkscape:connector-curvature="0"
     d="m 4.2963651,5.0019842 7e-5,0.02513 c 0,0.02385 0.187399,0.26313 0.116295,0.709277 -0.06129,0.219028 -0.180764,0.418443 -0.30027,0.627576 -0.06171,0.067 -0.113746,0.11432 -0.243347,0.112623 -0.19379,-0.06258 -0.174268,-0.213478 -0.232345,-0.334937 -0.112245,0.07092 -0.25323,0.309176 -0.3954719,0.286877 -0.1609279,-0.0253 -0.1991689,-0.364268 -0.3939007,-0.278925 -0.1121399,0.04915 -0.250959,0.243446 -0.303415,0.346599 -0.2836471,0.557888 0.1074951,1.165108 0.6688527,1.335193 0.3492679,0.105767 0.7742519,0.137324 1.1261399,0.05933 0.12272,-0.02725 0.271807,-0.02421 0.382689,-0.126476 0.153105,-0.125098 0.117588,-0.451237 0.198155,-0.61609 0.11881,-0.243129 0.275267,-0.402824 0.28969,-0.691256 0.009,-0.179695 -0.133861,-0.302957 -0.212823,-0.450317 -0.185478,-0.345964 -0.365823,-0.763346 -0.700319,-1.004602 l 0,0 z"
     id="path42"
     style="fill:#e4bab7;fill-opacity:1;fill-rule:evenodd;stroke:none" />
  <path
     inkscape:connector-curvature="0"
     d="m 3.7702801,6.0516072 0.04453,0 c 0.118182,-0.08149 0.164315,-0.05068 0.26699,0.04506 0.158657,-0.173124 0.204547,-0.420281 0.153384,-0.610578 -0.226583,-0.343808 -0.424564,0.01862 -0.461792,0.205245 -0.02493,0.124639 -0.02473,0.237015 -0.0031,0.360276 l 0,0 z"
     id="path44"
     style="fill:#ffffff;fill-opacity:1;fill-rule:evenodd;stroke:none" />
  <path
     inkscape:connector-curvature="0"
     d="m 3.1026843,6.0065862 0.04453,0 c 0.1182149,-0.08149 0.1643139,-0.05068 0.2670239,0.04502 0.06949,-0.146053 0.293391,-0.748221 -0.04435,-0.728078 -0.2622039,0.01562 -0.2656619,0.499332 -0.2671989,0.683057 l 0,0 z"
     id="path46"
     style="fill:#ffffff;fill-opacity:1;fill-rule:evenodd;stroke:none" />
  <path
     inkscape:connector-curvature="0"
     d="m 10.117253,8.0048332 c 0.09852,0.110681 0.124432,0.215706 0.16159,0.360241 l 0.885587,0.162274 c 0.02919,-0.06997 0.124921,-0.285075 0.038,-0.38162 -0.158971,-0.109125 -0.753229,-0.105202 -1.085173,-0.140895 l 0,0 z"
     id="path48"
     style="fill:#e4bab7;fill-opacity:1;fill-rule:evenodd;stroke:none" />
  <path
     inkscape:connector-curvature="0"
     d="m 3.3552161,8.3474402 c -0.06992,0.132096 0.02651,0.199521 0.0748,0.35137 0.359605,-0.04142 0.682926,-0.114885 0.918799,-0.12531 l -0.145421,-0.345539 c -0.326359,0.02997 -0.739992,-0.01361 -0.848184,0.119479 l 0,0 z"
     id="path50"
     style="fill:#e4bab7;fill-opacity:1;fill-rule:evenodd;stroke:none" />
  <path
     inkscape:connector-curvature="0"
     d="m 10.295537,8.5058272 c 0.0543,0.25327 -0.136829,0.563012 -0.3950519,0.7992863 0.3967619,0.1212445 1.1061959,0.2819675 1.2686249,0.2280713 0.159738,-0.069686 0.352867,-0.5799366 0.26692,-0.7343316 -0.13079,-0.135346 -0.769574,-0.21984 -1.140493,-0.293026 l 0,0 z"
     id="path52"
     style="fill:#e4bab7;fill-opacity:1;fill-rule:evenodd;stroke:none" />
  <path
     inkscape:connector-curvature="0"
     d="m 3.1762682,8.9632122 c -0.07345,0.166763 0.01712,0.6061986 0.2390159,0.7330984 0.463259,0.048872 0.993744,-0.1459855 1.457038,-0.2671938 -0.257141,-0.1875432 -0.456728,-0.3875236 -0.479009,-0.7058166 -0.415378,0.07506 -0.976144,0.06184 -1.2170449,0.239912 l 0,0 z"
     id="path54"
     style="fill:#e4bab7;fill-opacity:1;fill-rule:evenodd;stroke:none" />
</svg>
