<svg viewBox="0 0 48 48"><defs><linearGradient id="linearGradient3764" x1="1" x2="47" gradientUnits="userSpaceOnUse" gradientTransform="translate(-47.997785,0.00221467)"><stop stop-color="#245d8e" stop-opacity="1"/><stop offset="1" stop-color="#28699e" stop-opacity="1"/></linearGradient><clipPath id="clipPath-370548136"><g transform="translate(0,-1004.3622)"><rect rx="4" y="1005.36" x="1" height="46" width="46" fill="#1890d0"/></g></clipPath><clipPath id="clipPath-386540633"><g transform="translate(0,-1004.3622)"><rect rx="4" y="1005.36" x="1" height="46" width="46" fill="#1890d0"/></g></clipPath></defs><g><g transform="translate(0,-1004.3622)"><path d="m 5 1006.36 c -2.216 0 -4 1.784 -4 4 l 0 37.25 c 0 2.216 1.784 4 4 4 l 38 0 c 2.216 0 4 -1.784 4 -4 l 0 -37.25 c 0 -2.216 -1.784 -4 -4 -4 l -38 0 z m -4 41.5 0 0.5 c 0 2.216 1.784 4 4 4 l 38 0 c 2.216 0 4 -1.784 4 -4 l 0 -0.5 c 0 2.216 -1.784 4 -4 4 l -38 0 c -2.216 0 -4 -1.784 -4 -4 z" opacity="0.02"/><path d="m 1 1047.61 0 0.25 c 0 2.216 1.784 4 4 4 l 38 0 c 2.216 0 4 -1.784 4 -4 l 0 -0.25 c 0 2.216 -1.784 4 -4 4 l -38 0 c -2.216 0 -4 -1.784 -4 -4 z" opacity="0.05"/><rect width="46" height="46" x="1" y="1005.61" rx="4" opacity="0.1"/></g></g><g><rect width="46" height="46" x="-46.998" y="1" rx="4" transform="matrix(0,-1,1,0,0,0)" fill="url(#linearGradient3764)" fill-opacity="1"/></g><g/><g><g clip-path="url(#clipPath-370548136)"><g opacity="0.1"><!-- color: #28699e --><g><path d="m 14 24 l 5 0 l 0 -13 l 9 0 l 0 13 l 5.996 0 l -10.496 13 m -9.5 -13" stroke="none" fill-rule="nonzero" fill-opacity="0.302" fill="#000"/><path d="m 36 34 l 0 -4 l -12 0 l 0 4 m 12 0" stroke="none" fill-rule="nonzero" fill-opacity="1" fill="#000"/><path d="m 14.742 30 l -2.742 -2.906 l 6.172 -5.094 l -6.172 -5.09 l 2.742 -2.91 l 9.262 8 m -9.262 8" stroke="none" fill-rule="nonzero" fill-opacity="1" fill="#000"/></g></g></g></g><g><g clip-path="url(#clipPath-386540633)"><g transform="translate(0,-1)"><!-- color: #28699e --><g><path d="m 14 24 l 5 0 l 0 -13 l 9 0 l 0 13 l 5.996 0 l -10.496 13 m -9.5 -13" fill="#fff" stroke="none" fill-rule="nonzero" fill-opacity="0.302"/><path d="m 36 34 l 0 -4 l -12 0 l 0 4 m 12 0" fill="#f9f9f9" stroke="none" fill-rule="nonzero" fill-opacity="1"/><path d="m 14.742 30 l -2.742 -2.906 l 6.172 -5.094 l -6.172 -5.09 l 2.742 -2.91 l 9.262 8 m -9.262 8" fill="#f9f9f9" stroke="none" fill-rule="nonzero" fill-opacity="1"/></g></g></g></g><g><g transform="translate(0,-1004.3622)"><path d="m 1 1043.36 0 4 c 0 2.216 1.784 4 4 4 l 38 0 c 2.216 0 4 -1.784 4 -4 l 0 -4 c 0 2.216 -1.784 4 -4 4 l -38 0 c -2.216 0 -4 -1.784 -4 -4 z" opacity="0.1"/></g></g></svg>