<?xml version="1.0" encoding="UTF-8" standalone="no"?>
<!-- Created with Inkscape (http://www.inkscape.org/) -->

<svg
   xmlns:dc="http://purl.org/dc/elements/1.1/"
   xmlns:cc="http://creativecommons.org/ns#"
   xmlns:rdf="http://www.w3.org/1999/02/22-rdf-syntax-ns#"
   xmlns:svg="http://www.w3.org/2000/svg"
   xmlns="http://www.w3.org/2000/svg"
   xmlns:xlink="http://www.w3.org/1999/xlink"
   xmlns:sodipodi="http://sodipodi.sourceforge.net/DTD/sodipodi-0.dtd"
   xmlns:inkscape="http://www.inkscape.org/namespaces/inkscape"
   width="48px"
   height="48px"
   id="svg3017"
   version="1.1"
   inkscape:version="0.48.4 r9939"
   sodipodi:docname="yed.svg">
  <defs
     id="defs3019">
    <linearGradient
       id="linearGradient3924">
      <stop
         style="stop-color:#5e90c9;stop-opacity:1;"
         offset="0"
         id="stop3926" />
      <stop
         style="stop-color:#afc5e8;stop-opacity:1;"
         offset="1"
         id="stop3928" />
    </linearGradient>
    <linearGradient
       xlink:href="#0"
       id="1"
       gradientUnits="userSpaceOnUse"
       gradientTransform="matrix(0.875,0,0,0.875,3,-923.81708)"
       y1="1053.16"
       x2="0"
       y2="1004.85" />
    <linearGradient
       id="0">
      <stop
         stop-color="#49bcd8"
         id="stop7"
         offset="0"
         style="stop-color:#bbcdec;stop-opacity:1;" />
      <stop
         offset="1"
         stop-color="#2c8dc1"
         id="stop9"
         style="stop-color:#5a8ec8;stop-opacity:1;" />
    </linearGradient>
    <linearGradient
       y2="1004.85"
       x2="0"
       y1="1053.16"
       gradientTransform="matrix(0.875,0,0,0.875,62.142858,-923.81708)"
       gradientUnits="userSpaceOnUse"
       id="linearGradient3097"
       xlink:href="#0"
       inkscape:collect="always" />
    <linearGradient
       inkscape:collect="always"
       xlink:href="#linearGradient3924"
       id="linearGradient3930"
       x1="-22.132168"
       y1="48.374634"
       x2="-22"
       y2="2.375607"
       gradientUnits="userSpaceOnUse" />
    <linearGradient
       inkscape:collect="always"
       xlink:href="#linearGradient3924"
       id="linearGradient3030"
       gradientUnits="userSpaceOnUse"
       y1="1050.36"
       x2="0"
       y2="1006.36"
       gradientTransform="translate(0,-1004.3622)" />
    <linearGradient
       id="1-4">
      <stop
         stop-color="#c22219"
         id="stop3000" />
      <stop
         offset="1"
         stop-color="#e12a20"
         id="stop3002" />
    </linearGradient>
  </defs>
  <sodipodi:namedview
     id="base"
     pagecolor="#ffffff"
     bordercolor="#666666"
     borderopacity="1.0"
     inkscape:pageopacity="0.0"
     inkscape:pageshadow="2"
     inkscape:zoom="7"
     inkscape:cx="35.571428"
     inkscape:cy="34.714286"
     inkscape:current-layer="layer1"
     showgrid="true"
     inkscape:grid-bbox="true"
     inkscape:document-units="px"
     inkscape:window-width="1280"
     inkscape:window-height="998"
     inkscape:window-x="0"
     inkscape:window-y="0"
     inkscape:window-maximized="1" />
  <metadata
     id="metadata3022">
    <rdf:RDF>
      <cc:Work
         rdf:about="">
        <dc:format>image/svg+xml</dc:format>
        <dc:type
           rdf:resource="http://purl.org/dc/dcmitype/StillImage" />
        <dc:title />
      </cc:Work>
    </rdf:RDF>
  </metadata>
  <g
     id="layer1"
     inkscape:label="Layer 1"
     inkscape:groupmode="layer">
    <g
       id="g3006"
       transform="translate(0,-1004.3622)">
      <path
         style="opacity:0.05"
         inkscape:connector-curvature="0"
         id="path3008"
         d="M 5.1875,1 C 2.8707723,1 1,2.8707723 1,5.1875 l 0,37.625 C 1,45.129228 2.8707723,47 5.1875,47 l 37.625,0 C 45.129228,47 47,45.129228 47,42.8125 L 47,5.1875 C 47,2.8707723 45.129228,1 42.8125,1 L 5.1875,1 z m 0.1875,0.25 37.25,0 c 2.291546,0 4.125,1.8334541 4.125,4.125 l 0,37.25 c 0,2.291546 -1.833454,4.125 -4.125,4.125 l -37.25,0 C 3.0834541,46.75 1.25,44.916546 1.25,42.625 l 0,-37.25 C 1.25,3.0834541 3.0834541,1.25 5.375,1.25 z"
         transform="translate(0,1004.3622)" />
      <path
         style="opacity:0.1"
         inkscape:connector-curvature="0"
         id="path3010"
         d="M 5.375,1.25 C 3.0834541,1.25 1.25,3.0834541 1.25,5.375 l 0,37.25 c 0,2.291546 1.8334541,4.125 4.125,4.125 l 37.25,0 c 2.291546,0 4.125,-1.833454 4.125,-4.125 l 0,-37.25 C 46.75,3.0834541 44.916546,1.25 42.625,1.25 l -37.25,0 z m 0.21875,0.25 36.8125,0 C 44.672614,1.5 46.5,3.3273859 46.5,5.59375 l 0,36.8125 C 46.5,44.672614 44.672614,46.5 42.40625,46.5 l -36.8125,0 C 3.3273859,46.5 1.5,44.672614 1.5,42.40625 l 0,-36.8125 C 1.5,3.3273859 3.3273859,1.5 5.59375,1.5 z"
         transform="translate(0,1004.3622)" />
      <path
         style="opacity:0.2"
         inkscape:connector-curvature="0"
         id="path3012"
         d="M 5.59375,1.5 C 3.3273859,1.5 1.5,3.3273859 1.5,5.59375 l 0,36.8125 C 1.5,44.672614 3.3273859,46.5 5.59375,46.5 l 36.8125,0 C 44.672614,46.5 46.5,44.672614 46.5,42.40625 l 0,-36.8125 C 46.5,3.3273859 44.672614,1.5 42.40625,1.5 l -36.8125,0 z m 0.09375,0.125 36.625,0 c 2.253773,0 4.0625,1.8087269 4.0625,4.0625 l 0,36.625 c 0,2.253773 -1.808727,4.0625 -4.0625,4.0625 l -36.625,0 c -2.2537731,0 -4.0625,-1.808727 -4.0625,-4.0625 l 0,-36.625 C 1.625,3.4337269 3.4337269,1.625 5.6875,1.625 z"
         transform="translate(0,1004.3622)" />
      <path
         style="opacity:0.3"
         inkscape:connector-curvature="0"
         id="path3014"
         d="M 5.6875,1.625 C 3.4337269,1.625 1.625,3.4337269 1.625,5.6875 l 0,36.625 c 0,2.253773 1.8087269,4.0625 4.0625,4.0625 l 36.625,0 c 2.253773,0 4.0625,-1.808727 4.0625,-4.0625 l 0,-36.625 c 0,-2.2537731 -1.808727,-4.0625 -4.0625,-4.0625 l -36.625,0 z m 0.09375,0.125 36.4375,0 c 2.241182,0 4.03125,1.7900679 4.03125,4.03125 l 0,36.4375 c 0,2.241182 -1.790068,4.03125 -4.03125,4.03125 l -36.4375,0 C 3.5400679,46.25 1.75,44.459932 1.75,42.21875 l 0,-36.4375 C 1.75,3.5400679 3.5400679,1.75 5.78125,1.75 z"
         transform="translate(0,1004.3622)" />
      <path
         style="opacity:0.4"
         inkscape:connector-curvature="0"
         id="path3016"
         d="M 5.78125,1.75 C 3.5400679,1.75 1.75,3.5400679 1.75,5.78125 l 0,36.4375 c 0,2.241182 1.7900679,4.03125 4.03125,4.03125 l 36.4375,0 c 2.241182,0 4.03125,-1.790068 4.03125,-4.03125 l 0,-36.4375 C 46.25,3.5400679 44.459932,1.75 42.21875,1.75 l -36.4375,0 z m 0.125,0.125 36.1875,0 c 2.228591,0 4.03125,1.802659 4.03125,4.03125 l 0,36.1875 c 0,2.228591 -1.802659,4.03125 -4.03125,4.03125 l -36.1875,0 C 3.677659,46.125 1.875,44.322341 1.875,42.09375 l 0,-36.1875 C 1.875,3.677659 3.677659,1.875 5.90625,1.875 z"
         transform="translate(0,1004.3622)" />
      <rect
         style="opacity:0.5"
         id="rect3018"
         rx="4.02"
         y="1006.24"
         x="1.875"
         height="44.25"
         width="44.25" />
    </g>
    <rect
       style="fill:url(#linearGradient3030);fill-opacity:1.0"
       id="rect3020"
       rx="4"
       y="1.997829"
       x="2.0000012"
       height="44"
       width="44" />
    <path
       style="fill:#2d2d2d;fill-opacity:1;stroke:none"
       inkscape:connector-curvature="0"
       id="path8"
       d="m 21.522054,13.359485 c -0.716829,0.798561 -1.032584,1.868572 -1.18619,2.317762 -0.460818,1.247752 0.768032,1.147932 1.587265,-0.14973 1.280052,-1.946493 1.792072,-0.24955 1.843274,5.889387 0.0512,5.190647 -0.102404,6.188848 -1.177647,8.285071 -1.48486,2.994603 -3.174528,4.192445 -4.864196,3.443794 -0.921638,-0.399281 -1.433658,-0.349371 -2.099285,0.09982 -0.768031,0.549011 -0.819233,0.74865 -0.204809,1.696942 1.843274,2.844873 6.297854,-0.14973 11.520466,-7.785969 3.353201,-4.840547 4.486523,-11.138569 4.777505,-12.080414 0.256012,-1.00942 0.547509,-2.992426 -0.169319,-2.992426 -2.45107,1.61348 -4.208803,12.876133 -5.385527,13.014596 -0.124803,-4.986364 -0.06681,-17.1517643 -4.641537,-11.738834 z"
       sodipodi:nodetypes="cccccccsccccc" />
  </g>
</svg>
