<svg viewBox="0 0 48 48"><defs><linearGradient id="linearGradient3764" x1="1" x2="47" gradientUnits="userSpaceOnUse" gradientTransform="translate(-47.997785,0.00221467)"><stop stop-color="#e1281f" stop-opacity="1"/><stop offset="1" stop-color="#e33a31" stop-opacity="1"/></linearGradient><clipPath id="clipPath-850054167"><g transform="translate(0,-1004.3622)"><rect rx="4" y="1005.36" x="1" height="46" width="46" fill="#1890d0"/></g></clipPath><clipPath id="clipPath-862361353"><g transform="translate(0,-1004.3622)"><rect rx="4" y="1005.36" x="1" height="46" width="46" fill="#1890d0"/></g></clipPath></defs><g><g transform="translate(0,-1004.3622)"><path d="m 5 1006.36 c -2.216 0 -4 1.784 -4 4 l 0 37.25 c 0 2.216 1.784 4 4 4 l 38 0 c 2.216 0 4 -1.784 4 -4 l 0 -37.25 c 0 -2.216 -1.784 -4 -4 -4 l -38 0 z m -4 41.5 0 0.5 c 0 2.216 1.784 4 4 4 l 38 0 c 2.216 0 4 -1.784 4 -4 l 0 -0.5 c 0 2.216 -1.784 4 -4 4 l -38 0 c -2.216 0 -4 -1.784 -4 -4 z" opacity="0.02"/><path d="m 1 1047.61 0 0.25 c 0 2.216 1.784 4 4 4 l 38 0 c 2.216 0 4 -1.784 4 -4 l 0 -0.25 c 0 2.216 -1.784 4 -4 4 l -38 0 c -2.216 0 -4 -1.784 -4 -4 z" opacity="0.05"/><rect width="46" height="46" x="1" y="1005.61" rx="4" opacity="0.1"/></g></g><g><rect width="46" height="46" x="-46.998" y="1" rx="4" transform="matrix(0,-1,1,0,0,0)" fill="url(#linearGradient3764)" fill-opacity="1"/></g><g/><g><g clip-path="url(#clipPath-850054167)"><g opacity="0.1"><!-- color: #e33a31 --><g><path d="m 24.16 15 c -3.039 0 -7.5 0.176 -8.844 0.219 c -1.461 0.129 -2.01 0.203 -2.813 0.875 c -1.219 1.066 -1.5 3.172 -1.5 6.375 l 0 3.063 c 0 3.66 0.5 5.508 1.313 6.188 c 0.938 0.793 1.563 0.844 2.188 0.938 c 0.242 0.035 1.949 0.355 9.563 0.355 c 4.746 0 8.828 -0.23 9.25 -0.281 c 0.68 -0.086 1.641 -0.195 2.375 -1 c 1.09 -1.219 1.313 -3.258 1.313 -6.191 l 0 -3.527 c 0 -1.898 -0.113 -4.598 -1.313 -5.723 c -0.906 -0.754 -1.246 -0.969 -3.125 -1.063 c -0.531 -0.023 -5.168 -0.219 -8.406 -0.219 m 3.469 2 c 1.688 -0.066 3.25 1.137 4.688 1.148 c 0 0 -1.152 1.75 -2.906 1.75 c -1.633 -0.313 -2.352 0.047 -2.398 0.102 l 0 7 c -0.074 1.48 -1.211 2.938 -3.03 3.625 c -2.309 0.863 -4.766 0.113 -5.469 -1.691 c -0.707 -1.809 0.598 -4 2.902 -4.875 c 1.789 -0.676 3.516 -0.473 4.598 0.535 l 0 -7.04 c 0.582 -0.387 1.063 -0.543 1.625 -0.563 m -0.004 0.004" stroke="none" fill-rule="nonzero" fill-opacity="1" fill="#000"/></g></g></g></g><g><g clip-path="url(#clipPath-862361353)"><g transform="translate(0,-1)"><!-- color: #e33a31 --><g><path d="m 24.16 15 c -3.039 0 -7.5 0.176 -8.844 0.219 c -1.461 0.129 -2.01 0.203 -2.813 0.875 c -1.219 1.066 -1.5 3.172 -1.5 6.375 l 0 3.063 c 0 3.66 0.5 5.508 1.313 6.188 c 0.938 0.793 1.563 0.844 2.188 0.938 c 0.242 0.035 1.949 0.355 9.563 0.355 c 4.746 0 8.828 -0.23 9.25 -0.281 c 0.68 -0.086 1.641 -0.195 2.375 -1 c 1.09 -1.219 1.313 -3.258 1.313 -6.191 l 0 -3.527 c 0 -1.898 -0.113 -4.598 -1.313 -5.723 c -0.906 -0.754 -1.246 -0.969 -3.125 -1.063 c -0.531 -0.023 -5.168 -0.219 -8.406 -0.219 m 3.469 2 c 1.688 -0.066 3.25 1.137 4.688 1.148 c 0 0 -1.152 1.75 -2.906 1.75 c -1.633 -0.313 -2.352 0.047 -2.398 0.102 l 0 7 c -0.074 1.48 -1.211 2.938 -3.03 3.625 c -2.309 0.863 -4.766 0.113 -5.469 -1.691 c -0.707 -1.809 0.598 -4 2.902 -4.875 c 1.789 -0.676 3.516 -0.473 4.598 0.535 l 0 -7.04 c 0.582 -0.387 1.063 -0.543 1.625 -0.563 m -0.004 0.004" fill="#f9f9f9" stroke="none" fill-rule="nonzero" fill-opacity="1"/></g></g></g></g><g><g transform="translate(0,-1004.3622)"><path d="m 1 1043.36 0 4 c 0 2.216 1.784 4 4 4 l 38 0 c 2.216 0 4 -1.784 4 -4 l 0 -4 c 0 2.216 -1.784 4 -4 4 l -38 0 c -2.216 0 -4 -1.784 -4 -4 z" opacity="0.1"/></g></g></svg>