<svg version="1.1" viewBox="0 0 48 48" xmlns="http://www.w3.org/2000/svg">
 <defs>
  <linearGradient id="bg" x2="0" y1="1" y2="47" gradientUnits="userSpaceOnUse">
   <stop style="stop-color:#eee" offset="0"/>
   <stop style="stop-color:#e4e4e4" offset="1"/>
  </linearGradient>
 </defs>
 <path d="m1 43v0.25c0 2.216 1.784 4 4 4h38c2.216 0 4-1.784 4-4v-0.25c0 2.216-1.784 4-4 4h-38c-2.216 0-4-1.784-4-4zm0 0.5v0.5c0 2.216 1.784 4 4 4h38c2.216 0 4-1.784 4-4v-0.5c0 2.216-1.784 4-4 4h-38c-2.216 0-4-1.784-4-4z" style="opacity:.02"/>
 <path d="m1 43.25v0.25c0 2.216 1.784 4 4 4h38c2.216 0 4-1.784 4-4v-0.25c0 2.216-1.784 4-4 4h-38c-2.216 0-4-1.784-4-4z" style="opacity:.05"/>
 <path d="m1 43v0.25c0 2.216 1.784 4 4 4h38c2.216 0 4-1.784 4-4v-0.25c0 2.216-1.784 4-4 4h-38c-2.216 0-4-1.784-4-4z" style="opacity:.1"/>
 <rect x="1" y="1" width="46" height="46" rx="4" style="fill:url(#bg)"/>
 <path d="m1 39v4c0 2.216 1.784 4 4 4h38c2.216 0 4-1.784 4-4v-4c0 2.216-1.784 4-4 4h-38c-2.216 0-4-1.784-4-4z" style="opacity:.1"/>
 <path d="m28.91 10.908a2.0002 2.0002 0 0 0-1.6992 1.1289l-3.2754 6.5508-1.0293-3.2578a2.0002 2.0002 0 0 0-1.957-1.4258 2.0002 2.0002 0 0 0-1.8555 2.6289l2.2715 7.1953-3.1543 6.3086a2.0002 2.0002 0 0 0 3.5781 1.7891l1.3086-2.6152 1.9961 6.3223a2.0002 2.0002 0 1 0 3.8125-1.2031l-3.2402-10.26 5.123-10.244a2.0002 2.0002 0 0 0-1.8789-2.918z" style="opacity:.1"/>
 <path d="m20.949 12.904a2.0002 2.0002 0 0 0-1.8555 2.6289l6 19a2.0002 2.0002 0 1 0 3.8125-1.2031l-6-19a2.0002 2.0002 0 0 0-1.957-1.4258z" style="fill:#d30c65"/>
 <path d="m28.91 9.9078a2.0002 2.0002 0 0 0-1.6992 1.1289l-9 18a2.0002 2.0002 0 1 0 3.5781 1.7891l9-18a2.0002 2.0002 0 0 0-1.8789-2.918z" style="fill:#91c645"/>
 <path d="m23.936 17.588-2.5703 5.1406 1.7324 5.4824 2.5684-5.1406z" style="fill:#37a40d"/>
</svg>
