<svg version="1.1" viewBox="0 0 48 48" xmlns="http://www.w3.org/2000/svg">
 <defs>
  <linearGradient id="bg" x2="0" y1="1" y2="47" gradientUnits="userSpaceOnUse">
   <stop style="stop-color:#505050" offset="0"/>
   <stop style="stop-color:#464646" offset="1"/>
  </linearGradient>
 </defs>
 <path d="m1 43v0.25c0 2.216 1.784 4 4 4h38c2.216 0 4-1.784 4-4v-0.25c0 2.216-1.784 4-4 4h-38c-2.216 0-4-1.784-4-4zm0 0.5v0.5c0 2.216 1.784 4 4 4h38c2.216 0 4-1.784 4-4v-0.5c0 2.216-1.784 4-4 4h-38c-2.216 0-4-1.784-4-4z" style="opacity:.02"/>
 <path d="m1 43.25v0.25c0 2.216 1.784 4 4 4h38c2.216 0 4-1.784 4-4v-0.25c0 2.216-1.784 4-4 4h-38c-2.216 0-4-1.784-4-4z" style="opacity:.05"/>
 <path d="m1 43v0.25c0 2.216 1.784 4 4 4h38c2.216 0 4-1.784 4-4v-0.25c0 2.216-1.784 4-4 4h-38c-2.216 0-4-1.784-4-4z" style="opacity:.1"/>
 <rect x="1" y="1" width="46" height="46" rx="4" style="fill:url(#bg)"/>
 <path d="m1 39v4c0 2.216 1.784 4 4 4h38c2.216 0 4-1.784 4-4v-4c0 2.216-1.784 4-4 4h-38c-2.216 0-4-1.784-4-4z" style="opacity:.1"/>
 <path d="m14 12 2 4h10l-0.55078 2 0.05078 1 0.5-0.54297v0.54297l0.41602-1h1.584l-1.3301 5-0.38086 3-1.2891 2-1-2-1 2 1-6-2 6 4e-5 3-1-1v2h1l-1 3 2-3-2 6 4-6-4e-5 -2 2-2 2-4 1-3-1-1 2-1 3-7zm12 7-1 2 1-1zm1 1-3 3 2-1zm-2 3v2l1-1zm-1 2 1 2v-1zm6 0-1 2 1-1zm-2 3-2 4 2-2z" style="opacity:.1"/>
 <path d="m14 11 2 4h10l-0.55078 2 0.05078 1 0.5-0.54297v0.54297l0.41602-1h1.584l-1.3301 5-0.38086 3-1.2891 2-1-2-1 2 1-6-2 6 4e-5 3-1-1v2h1l-1 3 2-3-2 6 4-6-4e-5 -2 2-2 2-4 1-3-1-1 2-1 3-7zm12 7-1 2 1-1zm1 1-3 3 2-1zm-2 3v2l1-1zm-1 2 1 2v-1zm6 0-1 2 1-1zm-2 3-2 4 2-2z" style="fill:#ec2615"/>
</svg>
