<svg version="1.1" viewBox="0 0 48 48" xmlns="http://www.w3.org/2000/svg">
 <defs>
  <linearGradient id="bg" x2="0" y1="1" y2="47" gradientUnits="userSpaceOnUse">
   <stop style="stop-color:#75dd75" offset="0"/>
   <stop style="stop-color:#65d965" offset="1"/>
  </linearGradient>
 </defs>
 <path d="m1 43v0.25c0 2.216 1.784 4 4 4h38c2.216 0 4-1.784 4-4v-0.25c0 2.216-1.784 4-4 4h-38c-2.216 0-4-1.784-4-4zm0 0.5v0.5c0 2.216 1.784 4 4 4h38c2.216 0 4-1.784 4-4v-0.5c0 2.216-1.784 4-4 4h-38c-2.216 0-4-1.784-4-4z" style="opacity:.02"/>
 <path d="m1 43.25v0.25c0 2.216 1.784 4 4 4h38c2.216 0 4-1.784 4-4v-0.25c0 2.216-1.784 4-4 4h-38c-2.216 0-4-1.784-4-4z" style="opacity:.05"/>
 <path d="m1 43v0.25c0 2.216 1.784 4 4 4h38c2.216 0 4-1.784 4-4v-0.25c0 2.216-1.784 4-4 4h-38c-2.216 0-4-1.784-4-4z" style="opacity:.1"/>
 <rect x="1" y="1" width="46" height="46" rx="4" style="fill:url(#bg)"/>
 <path d="m1 39v4c0 2.216 1.784 4 4 4h38c2.216 0 4-1.784 4-4v-4c0 2.216-1.784 4-4 4h-38c-2.216 0-4-1.784-4-4z" style="opacity:.1"/>
 <path d="m24 11.996c-6.633 0-12 5.363-12 11.984s5.367 12.02 12 12.02 12-5.395 12-12.02c0-6.621-5.367-11.984-12-11.984m6.543 4.973c2.879 0.871 3.633 4.992 1.402 6.598l1.809 6.84-2.508 0.617-1.789-6.789c-3.184-0.785-3.914-3.563-2.01-6.406l2.043 3.793 1.188-0.352m-6.68 0.512c1.23 0 2.203 0.98 2.203 2.199s-0.977 2.23-2.203 2.23c-1.223 0-2.195-1.012-2.195-2.23 0-1.219 0.977-2.199 2.195-2.199" style="opacity:.1"/>
 <path d="m24 10.996c-6.633 0-12 5.363-12 11.984s5.367 12.02 12 12.02 12-5.395 12-12.02c0-6.621-5.367-11.984-12-11.984m6.543 4.973c2.879 0.871 3.633 4.992 1.402 6.598l1.809 6.84-2.508 0.617-1.789-6.789c-3.184-0.785-3.914-3.563-2.01-6.406l2.043 3.793 1.188-0.352m-6.68 0.512c1.23 0 2.203 0.98 2.203 2.199s-0.977 2.23-2.203 2.23c-1.223 0-2.195-1.012-2.195-2.23 0-1.219 0.977-2.199 2.195-2.199" style="fill:#fff"/>
</svg>
