<svg width="48" height="48" viewBox="0 0 48 48.000001" xmlns="http://www.w3.org/2000/svg" xmlns:xlink="http://www.w3.org/1999/xlink">
  <defs>
    <linearGradient id="b" x1="1" x2="47" gradientTransform="translate(-48 .002)" gradientUnits="userSpaceOnUse">
      <stop offset="0" stop-color="gray"/>
      <stop offset="1" stop-color="#8a8a8a"/>
    </linearGradient>
    <linearGradient id="c" x2="0" y1="47" y2="1" gradientUnits="userSpaceOnUse">
      <stop offset="0" stop-color="#666"/>
      <stop offset="1" stop-color="#707070"/>
    </linearGradient>
    <linearGradient id="d" x2="0" y1="47" y2="1" gradientUnits="userSpaceOnUse">
      <stop offset="0" stop-color="#5c5c5c"/>
      <stop offset="1" stop-color="#666"/>
    </linearGradient>
    <radialGradient id="f" cx="6" cy="17.292" r="1" gradientTransform="translate(20.163 14.222) scale(.63945)" gradientUnits="userSpaceOnUse" xlink:href="#a"/>
    <radialGradient id="a" cx="6.773" cy="5.927" r=".564" gradientTransform="scale(3.5433)" gradientUnits="userSpaceOnUse">
      <stop offset="0" stop-color="#8eb0c7"/>
      <stop offset="1" stop-color="#8eb0c7" stop-opacity="0"/>
    </radialGradient>
    <radialGradient id="e" cx="6.773" cy="5.927" r=".564" gradientTransform="translate(8.653 8.654) scale(2.2658)" gradientUnits="userSpaceOnUse" xlink:href="#a"/>
  </defs>
  <path d="M1 43v.25c0 2.216 1.784 4 4 4h38c2.216 0 4-1.784 4-4V43c0 2.216-1.784 4-4 4H5c-2.216 0-4-1.784-4-4zm0 .5v.5c0 2.216 1.784 4 4 4h38c2.216 0 4-1.784 4-4v-.5c0 2.216-1.784 4-4 4H5c-2.216 0-4-1.784-4-4z" opacity=".02"/>
  <path d="M1 43.25v.25c0 2.216 1.784 4 4 4h38c2.216 0 4-1.784 4-4v-.25c0 2.216-1.784 4-4 4H5c-2.216 0-4-1.784-4-4z" opacity=".05"/>
  <path d="M1 43v.25c0 2.216 1.784 4 4 4h38c2.216 0 4-1.784 4-4V43c0 2.216-1.784 4-4 4H5c-2.216 0-4-1.784-4-4z" opacity=".1"/>
  <rect transform="rotate(-90)" x="-47" y="1" width="46" height="46" rx="4" fill="url(#b)"/>
  <path d="M5 2C2.784 2 1 3.784 1 6v37c0 2.216 1.784 4 4 4h38c2.216 0 4-1.784 4-4V6c0-2.215-1.784-4-4-4H23.363l.01.016c-.093-.003-.192-.011-.285-.015H5zm12.65 12h12.672l6.379 11 .389-.563L30.35 36H18.253l-6.955-11-.01.006L17.65 14zM4.384 36.953l-.01.041c-.01.008-.017.016-.027.023l.037-.064z" opacity=".1"/>
  <path d="M5 1C2.784 1 1 2.784 1 5v8.17c4.572.772 11.926 1.628 16.65-.17h12.7c-1.596-4.266-3.205-8.527-6.916-11.98-.106.002-.233-.015-.346-.02H5z" fill="url(#c)"/>
  <path d="M23.363 1l13.338 23C38.598 21.244 44.01 13.626 47 7.549V5c0-2.216-1.784-4-4-4H23.363z" fill="url(#d)"/>
  <path d="M47 6.432L30.35 35.004c3.604.588 11.026 1.722 16.65.777V6.43z" fill="url(#c)"/>
  <path d="M17.65 35c.1 3.494 3.112 8.193 6.084 12H43c2.216 0 4-1.784 4-4v-8H17.65z" fill="url(#d)"/>
  <path d="M11.299 24c-5.656 3.321-5.892 7.708-6.924 11.994A55.786 55.786 0 0 0 1 38.875V43c0 2.216 1.784 4 4 4h20.84L11.299 24z" fill="url(#c)"/>
  <path d="M1 13v28.809L17.65 13H1z" fill="url(#d)"/>
  <path d="M33 25c0 4.969-4.03 9-9 9-4.969 0-9-4.03-9-9 0-4.969 4.03-9 9-9 4.969 0 9 4.03 9 9" opacity=".1"/>
  <path d="M33 24c0 4.969-4.03 9-9 9-4.969 0-9-4.03-9-9 0-4.969 4.03-9 9-9 4.969 0 9 4.03 9 9" fill="#f9f9f9"/>
  <path d="M32 24c0 4.417-3.583 8-8 8s-8-3.583-8-8 3.583-8 8-8 8 3.583 8 8" fill="#355362"/>
  <path d="M30 24a6 6 0 1 1-12 0 6 6 0 0 1 12 0" fill="#53697f"/>
  <path d="M28 24a4 4 0 1 1-8.002-.002A4 4 0 0 1 28 24" fill="#355362"/>
  <path d="M25.279 22.08a1.278 1.278 0 1 1-2.556.002 1.278 1.278 0 0 1 2.556-.002" fill="url(#e)"/>
  <path d="M24.639 25.279a.64.64 0 0 1-1.278 0 .64.64 0 0 1 1.278 0" fill="url(#f)"/>
  <path d="M1 39v4c0 2.216 1.784 4 4 4h38c2.216 0 4-1.784 4-4v-4c0 2.216-1.784 4-4 4H5c-2.216 0-4-1.784-4-4z" opacity=".1"/>
</svg>
