<svg version="1.1" viewBox="0 0 48 48" xmlns="http://www.w3.org/2000/svg">
 <defs>
  <linearGradient id="bg" x1="1" x2="47" gradientTransform="translate(-48 .00221)" gradientUnits="userSpaceOnUse">
   <stop style="stop-color:#cfbcad" offset="0"/>
   <stop style="stop-color:#d6c6b9" offset="1"/>
  </linearGradient>
 </defs>
 <path d="m1 43v0.25c0 2.216 1.784 4 4 4h38c2.216 0 4-1.784 4-4v-0.25c0 2.216-1.784 4-4 4h-38c-2.216 0-4-1.784-4-4zm0 0.5v0.5c0 2.216 1.784 4 4 4h38c2.216 0 4-1.784 4-4v-0.5c0 2.216-1.784 4-4 4h-38c-2.216 0-4-1.784-4-4z" style="opacity:.02"/>
 <path d="m1 43.25v0.25c0 2.216 1.784 4 4 4h38c2.216 0 4-1.784 4-4v-0.25c0 2.216-1.784 4-4 4h-38c-2.216 0-4-1.784-4-4z" style="opacity:.05"/>
 <path d="m1 43v0.25c0 2.216 1.784 4 4 4h38c2.216 0 4-1.784 4-4v-0.25c0 2.216-1.784 4-4 4h-38c-2.216 0-4-1.784-4-4z" style="opacity:.1"/>
 <rect transform="rotate(-90)" x="-47" y="1" width="46" height="46" rx="4" style="fill:url(#bg)"/>
 <g transform="translate(55.501,3.5)">
  <g transform="translate(1,1)"></g>
 </g>
 <g transform="translate(116.65 -2.5339)">
  <g transform="translate(1,1)"></g>
  <g transform="translate(1,1)"></g>
 </g>
 <g transform="translate(0,-1004.4)">
  <path d="m1 1043.4v4c0 2.216 1.784 4 4 4h38c2.216 0 4-1.784 4-4v-4c0 2.216-1.784 4-4 4h-38c-2.216 0-4-1.784-4-4z" style="opacity:.1"/>
 </g>
 <path d="m11 23v2c0 0.554 0.446 1 1 1h1v4c0 0.554 0.446 1 1 1s1-0.446 1-1v2.5c0 0.831 0.669 1.5 1.5 1.5h1c0.831 0 1.5-0.669 1.5-1.5v-6.5h10v6.5c0 0.831 0.669 1.5 1.5 1.5h1c0.831 0 1.5-0.669 1.5-1.5v-2.5c0 0.554 0.446 1 1 1s1-0.446 1-1v-4h1c0.554 0 1-0.446 1-1v-2z" style="opacity:.1"/>
 <rect x="11" y="21" width="26" height="4" rx="1" style="fill:#517cb3"/>
 <path d="m14 16c-0.554 0-1 0.446-1 1v12c0 0.554 0.446 1 1 1s1-0.446 1-1l1-6-1-6c0-0.554-0.446-1-1-1zm20 0c-0.554 0-1 0.446-1 1l-1 6 1 6c0 0.554 0.446 1 1 1s1-0.446 1-1v-12c0-0.554-0.446-1-1-1z" style="fill:#e04c4c"/>
 <rect x="15" y="13" width="4" height="20" rx="1.5" style="fill:#e25454"/>
 <rect transform="scale(-1,1)" x="-33" y="13" width="4" height="20" rx="1.5" style="fill:#e25454"/>
</svg>
