<?xml version="1.0" encoding="UTF-8"?>
<svg width="48" height="48" version="1.1" viewBox="0 0 48 48.000001" xmlns="http://www.w3.org/2000/svg" xmlns:cc="http://creativecommons.org/ns#" xmlns:dc="http://purl.org/dc/elements/1.1/" xmlns:rdf="http://www.w3.org/1999/02/22-rdf-syntax-ns#">
 <defs>
  <linearGradient id="linearGradient4217" x1="1" x2="47" gradientTransform="translate(-48 .00221)" gradientUnits="userSpaceOnUse">
   <stop stop-color="#c8dae4" offset="0"/>
   <stop stop-color="#d6e4eb" offset="1"/>
  </linearGradient>
 </defs>
 <metadata>
  <rdf:RDF>
   <cc:Work rdf:about="">
    <dc:format>image/svg+xml</dc:format>
    <dc:type rdf:resource="http://purl.org/dc/dcmitype/StillImage"/>
    <dc:title/>
   </cc:Work>
  </rdf:RDF>
 </metadata>
 <path d="m1 43v0.25c0 2.216 1.784 4 4 4h38c2.216 0 4-1.784 4-4v-0.25c0 2.216-1.784 4-4 4h-38c-2.216 0-4-1.784-4-4zm0 0.5v0.5c0 2.216 1.784 4 4 4h38c2.216 0 4-1.784 4-4v-0.5c0 2.216-1.784 4-4 4h-38c-2.216 0-4-1.784-4-4z" opacity=".02"/>
 <path d="m1 43.25v0.25c0 2.216 1.784 4 4 4h38c2.216 0 4-1.784 4-4v-0.25c0 2.216-1.784 4-4 4h-38c-2.216 0-4-1.784-4-4z" opacity=".05"/>
 <path d="m1 43v0.25c0 2.216 1.784 4 4 4h38c2.216 0 4-1.784 4-4v-0.25c0 2.216-1.784 4-4 4h-38c-2.216 0-4-1.784-4-4z" opacity=".1"/>
 <rect transform="rotate(-90)" x="-47" y="1" width="46" height="46" rx="4" fill="url(#linearGradient4217)"/>
 <g transform="translate(55.501,3.5)">
  <g transform="translate(1,1)">
   <g opacity=".1"><!-- color: #3a569c --></g>
  </g>
 </g>
 <g transform="translate(116.65 -2.5339)">
  <g transform="translate(1,1)">
   <g opacity=".1"><!-- color: #20a0db --></g>
  </g>
 </g>
 <g transform="translate(116.65 -2.5339)">
  <g transform="translate(1,1)">
   <g opacity=".1"><!-- color: #d93f3f --></g>
  </g>
 </g>
 <g transform="translate(0,-1004.4)">
  <path d="m1 1043.4v4c0 2.216 1.784 4 4 4h38c2.216 0 4-1.784 4-4v-4c0 2.216-1.784 4-4 4h-38c-2.216 0-4-1.784-4-4z" opacity=".1"/>
 </g>
 <g transform="translate(-1,-1)">
  <g transform="translate(1,1)">
   <g opacity=".1"><!-- color: #d6e4eb -->
    <path d="m38 16.664c-3.43 3.051-13.684 14.555-15.422 14.555-1.141 0-2.102-0.797-2.422-2.02-0.184-0.75 0.098 0.199-10.156 4.797 1.027-0.656 8.219-6.18 9.156-6.852 0.934-0.668 5.547-3.906 6.895-4.938 2.469-1.922 3.43-3.473 3.43-5.582 0-1.645-1.01-2.629-2.605-2.629-1 0-1.738 0.234-2.789 0.844-1.734 1.035-3.289 2.301-4.25 3.426-1.734 2.16-3.289 7.32-3.289 11.12 0 2.77 1.418 4.504 3.746 4.504 2.695 0 12.176-9.227 15.785-12.934l1.922-4.297m-17.934 8.227c0.777-5.02 2.879-8.918 4.844-8.918 0.777 0 1.281 0.801 1.281 1.926 0 2.348-1.234 3.754-6.125 6.992"/>
   </g>
  </g>
 </g>
 <g transform="translate(0,-1)"><!-- color: #d6e4eb -->
  <path d="m38 16.664c-3.43 3.051-13.684 14.555-15.422 14.555-1.141 0-2.102-0.797-2.422-2.02-0.184-0.75 0.098 0.199-10.156 4.797 1.027-0.656 8.219-6.18 9.156-6.852 0.934-0.668 5.547-3.906 6.895-4.938 2.469-1.922 3.43-3.473 3.43-5.582 0-1.645-1.01-2.629-2.605-2.629-1 0-1.738 0.234-2.789 0.844-1.734 1.035-3.289 2.301-4.25 3.426-1.734 2.16-3.289 7.32-3.289 11.12 0 2.77 1.418 4.504 3.746 4.504 2.695 0 12.176-9.227 15.785-12.934l1.922-4.297m-17.934 8.227c0.777-5.02 2.879-8.918 4.844-8.918 0.777 0 1.281 0.801 1.281 1.926 0 2.348-1.234 3.754-6.125 6.992" fill="#ea2626"/>
 </g>
</svg>
