<?xml version="1.0" encoding="UTF-8"?>
<svg width="48" height="48" version="1.1" viewBox="0 0 48 48.000001" xmlns="http://www.w3.org/2000/svg" xmlns:cc="http://creativecommons.org/ns#" xmlns:dc="http://purl.org/dc/elements/1.1/" xmlns:rdf="http://www.w3.org/1999/02/22-rdf-syntax-ns#">
 <defs>
  <linearGradient id="linearGradient4219" x1="1" x2="47" gradientTransform="translate(-48 .00221)" gradientUnits="userSpaceOnUse">
   <stop stop-color="#dbe6be" offset="0"/>
   <stop stop-color="#e3eccc" offset="1"/>
  </linearGradient>
 </defs>
 <metadata>
  <rdf:RDF>
   <cc:Work rdf:about="">
    <dc:format>image/svg+xml</dc:format>
    <dc:type rdf:resource="http://purl.org/dc/dcmitype/StillImage"/>
    <dc:title/>
   </cc:Work>
  </rdf:RDF>
 </metadata>
 <path d="m1 43v0.25c0 2.216 1.784 4 4 4h38c2.216 0 4-1.784 4-4v-0.25c0 2.216-1.784 4-4 4h-38c-2.216 0-4-1.784-4-4zm0 0.5v0.5c0 2.216 1.784 4 4 4h38c2.216 0 4-1.784 4-4v-0.5c0 2.216-1.784 4-4 4h-38c-2.216 0-4-1.784-4-4z" opacity=".02"/>
 <path d="m1 43.25v0.25c0 2.216 1.784 4 4 4h38c2.216 0 4-1.784 4-4v-0.25c0 2.216-1.784 4-4 4h-38c-2.216 0-4-1.784-4-4z" opacity=".05"/>
 <path d="m1 43v0.25c0 2.216 1.784 4 4 4h38c2.216 0 4-1.784 4-4v-0.25c0 2.216-1.784 4-4 4h-38c-2.216 0-4-1.784-4-4z" opacity=".1"/>
 <rect transform="rotate(-90)" x="-47" y="1" width="46" height="46" rx="4" fill="url(#linearGradient4219)"/>
 <g transform="translate(0,-1004.4)">
  <path d="m1 1043.4v4c0 2.216 1.784 4 4 4h38c2.216 0 4-1.784 4-4v-4c0 2.216-1.784 4-4 4h-38c-2.216 0-4-1.784-4-4z" opacity=".1"/>
 </g>
 <path d="m12 12v2h-2v10h2v9h2v1h1v2h18v-2h1v-1h2v-9h2v-10h-2v-2h-24z" opacity=".1"/>
 <path d="m12 11v2h-2v10h28v-10h-2v-2h-24z" fill="#789911"/>
 <path d="m12 13v10h24v-10h-24z" fill="#9ac011"/>
 <path d="m14 23v10h20v-10h-20z" fill="#ecc593"/>
 <path d="m15 33v2h18v-2h-18z" fill="#cbaf75"/>
 <rect x="12" y="23" width="2" height="9" fill="#cbaf75"/>
 <rect x="16" y="23" width="4" height="4" fill="#353535"/>
 <path d="m22 23v3h4v-3h-4z" fill="#e3a258"/>
 <path d="m21 29v2h4v-2z" fill="#717169"/>
 <rect transform="scale(-1,1)" x="-36" y="23" width="2" height="9" fill="#cbaf75"/>
 <rect transform="scale(-1,1)" x="-32" y="23" width="4" height="4" fill="#353535"/>
 <path d="m26 28-1 1v2h2l1-1h-2v-2z" fill="#554025"/>
 <rect x="26" y="28" width="2" height="2" fill="#e6dc35"/>
</svg>
