<svg xmlns="http://www.w3.org/2000/svg" height="48" viewBox="0 0 48 48.000001" width="48">
  <defs>
    <linearGradient id="a" gradientUnits="userSpaceOnUse" gradientTransform="translate(-48 .002)" x2="47" x1="1">
      <stop offset="0" stop-color="#b4b4b4"/>
      <stop offset="1" stop-color="#bebebe"/>
    </linearGradient>
  </defs>
  <path d="M1 43v.25c0 2.216 1.784 4 4 4h38c2.216 0 4-1.784 4-4V43c0 2.216-1.784 4-4 4H5c-2.216 0-4-1.784-4-4zm0 .5v.5c0 2.216 1.784 4 4 4h38c2.216 0 4-1.784 4-4v-.5c0 2.216-1.784 4-4 4H5c-2.216 0-4-1.784-4-4z" opacity=".02"/>
  <path d="M1 43.25v.25c0 2.216 1.784 4 4 4h38c2.216 0 4-1.784 4-4v-.25c0 2.216-1.784 4-4 4H5c-2.216 0-4-1.784-4-4z" opacity=".05"/>
  <path d="M1 43v.25c0 2.216 1.784 4 4 4h38c2.216 0 4-1.784 4-4V43c0 2.216-1.784 4-4 4H5c-2.216 0-4-1.784-4-4z" opacity=".1"/>
  <rect rx="4" transform="rotate(-90)" height="46" width="46" y="1" x="-47" fill="url(#a)"/>
  <path d="M1 39v4c0 2.216 1.784 4 4 4h38c2.216 0 4-1.784 4-4v-4c0 2.216-1.784 4-4 4H5c-2.216 0-4-1.784-4-4z" opacity=".1"/>
  <g>
    <path d="M24 12a5 5 0 0 0-5 5c0 .211.018.419.043.623A5.967 5.967 0 0 0 18 21c0 .03.003.06.004.09a5.982 5.982 0 0 0-3.518 1.963C12.521 23.307 11 24.965 11 27c0 2.032 1.522 3.693 3.488 3.947.175.2.363.387.563.563-.02.163-.051.322-.051.49a4 4 0 0 0 8 0c0-.169-.031-.329-.051-.492.4-.351.755-.751 1.051-1.195.296.445.65.846 1.051 1.197-.02.163-.051.322-.051.49a4 4 0 0 0 8 0c0-.169-.031-.329-.051-.492.199-.175.386-.361.561-.561C35.474 30.693 37 29.032 37 27c0-2.035-1.525-3.693-3.488-3.947a5.982 5.982 0 0 0-3.516-1.963c0-.03.004-.06.004-.09a5.97 5.97 0 0 0-1.043-3.377c.025-.204.043-.412.043-.623a5 5 0 0 0-5-5z" opacity=".1"/>
  </g>
  <g>
    <path d="M23 31a4 4 0 1 1-8 0 4 4 0 0 1 8 0" fill="#ccc"/>
    <path d="M25 26a6 6 0 1 1-12 0c0-3.316 2.684-6 6-6 3.313 0 6 2.684 6 6" fill="#333"/>
    <path d="M25 31a4 4 0 1 0 8 0 4 4 0 0 0-8 0" fill="#ccc"/>
    <path d="M35 26a6 6 0 1 1-12 0c0-3.316 2.684-6 6-6 3.313 0 6 2.684 6 6" fill="#333"/>
    <path d="M30 20c0 3.313-2.688 6-6 6-3.313 0-6-2.688-6-6 0-3.313 2.688-6 6-6 3.313 0 6 2.688 6 6" fill="#4c4c4c"/>
    <path d="M19 26a4 4 0 1 1-8 0 4 4 0 0 1 8 0M29 26a4 4 0 1 0 8 0 4 4 0 0 0-8 0" fill="#e5e5e5"/>
    <path d="M29 16c0 2.762-2.238 5-5 5s-5-2.238-5-5 2.238-5 5-5 5 2.238 5 5" fill="#69007f"/>
  </g>
</svg>
