<svg width="48" height="48" version="1.1" viewBox="0 0 48 48" xmlns="http://www.w3.org/2000/svg">
 <defs>
  <linearGradient id="linearGradient4219" x1="1" x2="47" gradientTransform="translate(-48 .00221)" gradientUnits="userSpaceOnUse">
   <stop style="stop-color:#c8dae4" offset="0"/>
   <stop style="stop-color:#d6e4eb" offset="1"/>
  </linearGradient>
 </defs>
 <path d="m1 43v0.25c0 2.216 1.784 4 4 4h38c2.216 0 4-1.784 4-4v-0.25c0 2.216-1.784 4-4 4h-38c-2.216 0-4-1.784-4-4zm0 0.5v0.5c0 2.216 1.784 4 4 4h38c2.216 0 4-1.784 4-4v-0.5c0 2.216-1.784 4-4 4h-38c-2.216 0-4-1.784-4-4z" style="opacity:.02"/>
 <path d="m1 43.25v0.25c0 2.216 1.784 4 4 4h38c2.216 0 4-1.784 4-4v-0.25c0 2.216-1.784 4-4 4h-38c-2.216 0-4-1.784-4-4z" style="opacity:.05"/>
 <path d="m1 43v0.25c0 2.216 1.784 4 4 4h38c2.216 0 4-1.784 4-4v-0.25c0 2.216-1.784 4-4 4h-38c-2.216 0-4-1.784-4-4z" style="opacity:.1"/>
 <rect transform="rotate(-90)" x="-47" y="1" width="46" height="46" rx="4" style="fill:url(#linearGradient4219)"/>
 <g transform="translate(0,-1004.4)">
  <path d="m1 1043.4v4c0 2.216 1.784 4 4 4h38c2.216 0 4-1.784 4-4v-4c0 2.216-1.784 4-4 4h-38c-2.216 0-4-1.784-4-4z" style="opacity:.1"/>
 </g>
 <path d="m16 11c-2.2159 0-3.9995 1.7842-3.9995 4.0002v12c0 2.1179 1.6349 3.8217 3.7127 3.9703l-2.7134 6.0293h4.5002l2.5486-6.0003h7.9026l2.5486 6.0003h4.5002l-2.7134-6.0293c2.0789-0.1486 3.7127-1.8534 3.7127-3.9703v-12c0-2.216-1.7836-4.0002-3.9995-4.0002h-3.0001v4.0002h1.9997c0.55423 0 1.0004 0.44582 1.0004 1v9.9995c0 0.55423-0.44617 1-1.0004 1h-0.49967l-4.5002-9.9995h-3.9995l-4.5002 9.9995h-0.49967c-0.55423 0-1.0004-0.44582-1.0004-1v-9.9995c0-0.55423 0.44617-1 1.0004-1h1.9997v-4.0002h-3.0001zm8 10.7 2.2522 5.3012h-4.5034l2.2522-5.3012z" style="fill-rule:evenodd;opacity:.1"/>
 <path d="m16 10c-2.216 0-4 1.784-4 4v12c0 2.216 1.784 4 4 4h16c2.216 0 4-1.784 4-4v-12c0-2.216-1.784-4-4-4h-3v4h2c0.554 0 1 0.446 1 1v10c0 0.554-0.446 1-1 1h-14c-0.554 0-1-0.446-1-1v-10c0-0.554 0.446-1 1-1h2v-4z" style="fill-rule:evenodd;fill:#209dbe"/>
 <path d="m13 36h4.5002l6.4999-15.3 6.4999 15.3h4.5002l-9.0004-20h-3.9995z" style="fill:#209dbe"/>
</svg>
