<svg width="48" height="48" version="1.1" viewBox="0 0 48 48" xmlns="http://www.w3.org/2000/svg">
 <defs>
  <linearGradient id="linearGradient4220" x1="1" x2="47" gradientTransform="translate(-48 .00221)" gradientUnits="userSpaceOnUse">
   <stop style="stop-color:#53532d" offset="0"/>
   <stop style="stop-color:#606034" offset="1"/>
  </linearGradient>
 </defs>
 <path d="m1 43v0.25c0 2.216 1.784 4 4 4h38c2.216 0 4-1.784 4-4v-0.25c0 2.216-1.784 4-4 4h-38c-2.216 0-4-1.784-4-4zm0 0.5v0.5c0 2.216 1.784 4 4 4h38c2.216 0 4-1.784 4-4v-0.5c0 2.216-1.784 4-4 4h-38c-2.216 0-4-1.784-4-4z" style="opacity:.02"/>
 <path d="m1 43.25v0.25c0 2.216 1.784 4 4 4h38c2.216 0 4-1.784 4-4v-0.25c0 2.216-1.784 4-4 4h-38c-2.216 0-4-1.784-4-4z" style="opacity:.05"/>
 <path d="m1 43v0.25c0 2.216 1.784 4 4 4h38c2.216 0 4-1.784 4-4v-0.25c0 2.216-1.784 4-4 4h-38c-2.216 0-4-1.784-4-4z" style="opacity:.1"/>
 <rect transform="rotate(-90)" x="-47" y="1" width="46" height="46" rx="4" style="fill:url(#linearGradient4220)"/>
 <g transform="translate(0,-1004.4)">
  <path d="m1 1043.4v4c0 2.216 1.784 4 4 4h38c2.216 0 4-1.784 4-4v-4c0 2.216-1.784 4-4 4h-38c-2.216 0-4-1.784-4-4z" style="opacity:.1"/>
 </g>
 <g transform="translate(-1,-1)">
  <g transform="translate(1,1)">
   <g style="opacity:.1">
    <path d="m13 16v15h2.738v-6.363h5.52v-2.25h-5.52v-4.137h5.922v-2.25m-8.66 0"/>
    <path d="m34.383 20.16-1.113 4.805c-0.266 1.27-0.492 2.449-0.656 3.629h-0.043c-0.227-1.18-0.492-2.359-0.805-3.629l-1.254-4.805h-2.063l-1.297 4.941c-0.289 1.113-0.621 2.313-0.828 3.492h-0.039c-0.188-1.18-0.414-2.359-0.641-3.516l-1.051-4.918h-2.594l2.965 10.836h2.371l1.277-4.406c0.289-1.066 0.555-2.137 0.762-3.473h0.043c0.227 1.313 0.453 2.336 0.762 3.473l1.195 4.406h2.348l3.156-10.836m-2.496 0"/>
   </g>
  </g>
 </g>
 <g transform="translate(0,-1)">
  <path d="m13 16v15h2.738v-6.363h5.52v-2.25h-5.52v-4.137h5.922v-2.25m-8.66 0" style="fill:#e5d703"/>
  <path d="m34.383 20.16-1.113 4.805c-0.266 1.27-0.492 2.449-0.656 3.629h-0.043c-0.227-1.18-0.492-2.359-0.805-3.629l-1.254-4.805h-2.063l-1.297 4.941c-0.289 1.113-0.621 2.313-0.828 3.492h-0.039c-0.188-1.18-0.414-2.359-0.641-3.516l-1.051-4.918h-2.594l2.965 10.836h2.371l1.277-4.406c0.289-1.066 0.555-2.137 0.762-3.473h0.043c0.227 1.313 0.453 2.336 0.762 3.473l1.195 4.406h2.348l3.156-10.836m-2.496 0" style="fill:#e5d703"/>
 </g>
</svg>
