<svg width="48" height="48" version="1.1" viewBox="0 0 48 48" xmlns="http://www.w3.org/2000/svg">
 <defs>
  <linearGradient id="linearGradient4220" x1="1" x2="47" gradientTransform="translate(-48 .00221)" gradientUnits="userSpaceOnUse">
   <stop style="stop-color:#5a6339" offset="0"/>
   <stop style="stop-color:#657040" offset="1"/>
  </linearGradient>
 </defs>
 <path d="m1 43v0.25c0 2.216 1.784 4 4 4h38c2.216 0 4-1.784 4-4v-0.25c0 2.216-1.784 4-4 4h-38c-2.216 0-4-1.784-4-4zm0 0.5v0.5c0 2.216 1.784 4 4 4h38c2.216 0 4-1.784 4-4v-0.5c0 2.216-1.784 4-4 4h-38c-2.216 0-4-1.784-4-4z" style="opacity:.02"/>
 <path d="m1 43.25v0.25c0 2.216 1.784 4 4 4h38c2.216 0 4-1.784 4-4v-0.25c0 2.216-1.784 4-4 4h-38c-2.216 0-4-1.784-4-4z" style="opacity:.05"/>
 <path d="m1 43v0.25c0 2.216 1.784 4 4 4h38c2.216 0 4-1.784 4-4v-0.25c0 2.216-1.784 4-4 4h-38c-2.216 0-4-1.784-4-4z" style="opacity:.1"/>
 <rect transform="rotate(-90)" x="-47" y="1" width="46" height="46" rx="4" style="fill:url(#linearGradient4220)"/>
 <g transform="translate(0,-1004.4)">
  <path d="m1 1043.4v4c0 2.216 1.784 4 4 4h38c2.216 0 4-1.784 4-4v-4c0 2.216-1.784 4-4 4h-38c-2.216 0-4-1.784-4-4z" style="opacity:.1"/>
 </g>
 <path d="m13.934 17.328-1.9336 13.652h2.3203l1.6523-9.2895 2.0273 9.309h2l1.8203-9.309 1.6094 9.2895h2.418l-1.7617-13.652h-3.2031l-1.8984 8.7419-1.8633-8.7419zm13.033 3.1719v6.1641c0 3.426 1.7461 4.5703 3.6641 4.5703 1.875 0 2.9083-1.078 3.3613-1.832h0.04297l0.12891 1.5938h2.3281c-0.043-0.863-0.08594-1.8984-0.08594-3.1484v-7.3477h-2.6523v6.3359c0 0.301-0.06634 0.58231-0.15234 0.82031-0.277 0.668-0.96944 1.4219-2.0234 1.4219-1.402 0-1.9609-1.1212-1.9609-2.8672v-5.7109z" style="opacity:.1"/>
 <path d="m13.934 16.328-1.9336 13.652h2.3203l1.6523-9.2895 2.0273 9.309h2l1.8203-9.309 1.6094 9.2895h2.418l-1.7617-13.652h-3.2031l-1.8984 8.7419-1.8633-8.7419zm13.033 3.1719v6.1641c0 3.426 1.7461 4.5703 3.6641 4.5703 1.875 0 2.9083-1.078 3.3613-1.832h0.04297l0.12891 1.5938h2.3281c-0.043-0.863-0.08594-1.8984-0.08594-3.1484v-7.3477h-2.6523v6.3359c0 0.301-0.06634 0.58231-0.15234 0.82031-0.277 0.668-0.96944 1.4219-2.0234 1.4219-1.402 0-1.9609-1.1212-1.9609-2.8672v-5.7109z" style="fill:#c0e603"/>
</svg>
