<svg version="1.1" viewBox="0 0 48 48" xmlns="http://www.w3.org/2000/svg">
 <defs>
  <linearGradient id="bg" x2="0" y1="1" y2="47" gradientUnits="userSpaceOnUse">
   <stop style="stop-color:#873d83" offset="0"/>
   <stop style="stop-color:#793776" offset="1"/>
  </linearGradient>
 </defs>
 <path d="m1 43v0.25c0 2.216 1.784 4 4 4h38c2.216 0 4-1.784 4-4v-0.25c0 2.216-1.784 4-4 4h-38c-2.216 0-4-1.784-4-4zm0 0.5v0.5c0 2.216 1.784 4 4 4h38c2.216 0 4-1.784 4-4v-0.5c0 2.216-1.784 4-4 4h-38c-2.216 0-4-1.784-4-4z" style="opacity:.02"/>
 <path d="m1 43.25v0.25c0 2.216 1.784 4 4 4h38c2.216 0 4-1.784 4-4v-0.25c0 2.216-1.784 4-4 4h-38c-2.216 0-4-1.784-4-4z" style="opacity:.05"/>
 <path d="m1 43v0.25c0 2.216 1.784 4 4 4h38c2.216 0 4-1.784 4-4v-0.25c0 2.216-1.784 4-4 4h-38c-2.216 0-4-1.784-4-4z" style="opacity:.1"/>
 <rect x="1" y="1" width="46" height="46" rx="4" style="fill:url(#bg)"/>
 <path d="m1 39v4c0 2.216 1.784 4 4 4h38c2.216 0 4-1.784 4-4v-4c0 2.216-1.784 4-4 4h-38c-2.216 0-4-1.784-4-4z" style="opacity:.1"/>
 <path d="m18.438 16.98v14.02h2.5625v-14.02h-2.5625zm8.6406 3.5098c-1 0-3.5 1.5-3.5 5.5s2.5 5 3.5 5c2 0 3-0.5 3-0.5v-2s-1 0.5-2 0.5c-1.4966 0-2.5-1-2.5-3s0.5-3.5 2.5-3.5c1 0 2 0.5 2 0.5v-2s-1-0.5-3-0.5z" style="opacity:.1"/>
 <path d="m18.437 30.02h2.563v-14.02h-2.563" style="fill:#e65ae0"/>
 <path d="m23.578 25.01c0-4 2.5-5.5 3.5-5.5 2 0 3 0.5 3 0.5v2s-1-0.5-2-0.5c-2 0-2.5 1.5-2.5 3.5s1.0034 3 2.5 3c1 0 2-0.5 2-0.5v2s-1 0.5-3 0.5c-1 0-3.5-1-3.5-5z" style="fill:#e65ae0"/>
</svg>
