<svg version="1.1" viewBox="0 0 48 48" xmlns="http://www.w3.org/2000/svg">
 <defs>
  <linearGradient id="bg" x2="0" y1="1" y2="47" gradientUnits="userSpaceOnUse">
   <stop style="stop-color:#eff4e8" offset="0"/>
   <stop style="stop-color:#e6eeda" offset="1"/>
  </linearGradient>
 </defs>
 <path d="m1 43v0.25c0 2.216 1.784 4 4 4h38c2.216 0 4-1.784 4-4v-0.25c0 2.216-1.784 4-4 4h-38c-2.216 0-4-1.784-4-4zm0 0.5v0.5c0 2.216 1.784 4 4 4h38c2.216 0 4-1.784 4-4v-0.5c0 2.216-1.784 4-4 4h-38c-2.216 0-4-1.784-4-4z" style="opacity:.02"/>
 <path d="m1 43.25v0.25c0 2.216 1.784 4 4 4h38c2.216 0 4-1.784 4-4v-0.25c0 2.216-1.784 4-4 4h-38c-2.216 0-4-1.784-4-4z" style="opacity:.05"/>
 <path d="m1 43v0.25c0 2.216 1.784 4 4 4h38c2.216 0 4-1.784 4-4v-0.25c0 2.216-1.784 4-4 4h-38c-2.216 0-4-1.784-4-4z" style="opacity:.1"/>
 <rect x="1" y="1" width="46" height="46" rx="4" style="fill:url(#bg)"/>
 <path d="m1 39v4c0 2.216 1.784 4 4 4h38c2.216 0 4-1.784 4-4v-4c0 2.216-1.784 4-4 4h-38c-2.216 0-4-1.784-4-4z" style="opacity:.1"/>
 <path d="m21.296 12.009a12.441 8.3803 69.088 0 0-1.6504 0.33594 12.441 8.3803 69.088 0 0-3.5234 14.518 12.441 8.3803 69.088 0 0 2.043 3.9199l-3.166 2.2168 3.5059-1.7539a12.441 8.3803 69.088 0 0 9.8477 4.4082 12.441 8.3803 69.088 0 0 3.5996-14.289l2.0469-1.3652-2-2-1.1836 0.82812a12.441 8.3803 69.088 0 0-9.5195-6.8184z" style="opacity:.1"/>
 <ellipse transform="matrix(.93984 -.3416 .34999 .93675 0 0)" cx="14.433" cy="29.816" rx="8.3809" ry="12.44" style="fill:#464649"/>
 <path d="m23 15c-1.856 0.0013-3.6355 0.73971-4.9473 2.0527l0.70703 0.70703c1.1242-1.1255 2.6494-1.7585 4.2402-1.7598 1.5908 0.0013 3.116 0.63423 4.2402 1.7598l0.70703-0.70703c-1.3117-1.3131-3.0913-2.0514-4.9473-2.0527zm0 2c-1.3256 0.0012-2.5965 0.52883-3.5332 1.4668l0.70703 0.70703c0.74922-0.75042 1.7658-1.1726 2.8262-1.1738 1.0604 0.0012 2.0769 0.42344 2.8262 1.1738l0.70703-0.70703c-0.93673-0.93797-2.2076-1.4656-3.5332-1.4668zm8.1934 1.5645-9.1934 6.4355 3 1-6.3457 4.4414a12.44 8.3802 69.088 0 0 0.41406 0.52344l11.932-5.9648-3-1 4.2266-2.8184a12.44 8.3802 69.088 0 0-0.34961-1.0449 12.44 8.3802 69.088 0 0-0.68359-1.5723zm-8.1934 0.43555c-0.79521 0.0012-1.5574 0.31798-2.1191 0.88086l0.70508 0.70508c0.37501-0.37509 0.88362-0.58586 1.4141-0.58594 0.5304 8e-5 1.0391 0.21085 1.4141 0.58594l0.70508-0.70508c-0.56172-0.56288-1.3239-0.8797-2.1191-0.88086zm0 2a1 1 0 0 0-1 1 1 1 0 0 0 1 1 1 1 0 0 0 1-1 1 1 0 0 0-1-1z" style="opacity:.1"/>
 <path d="m15 32 16-8-3-1 6-4-2-2-10 7 3 1z" style="fill:#0391c2"/>
 <path d="m23 14c-1.856 0.0013-3.6355 0.73968-4.9473 2.0527l0.70703 0.70703c1.1242-1.1255 2.6494-1.7585 4.2402-1.7598 1.5908 0.0013 3.116 0.63426 4.2402 1.7598l0.70703-0.70703c-1.3117-1.3131-3.0913-2.0514-4.9473-2.0527zm0 2c-1.3256 0.0012-2.5965 0.52883-3.5332 1.4668l0.70703 0.70703c0.74922-0.75042 1.7658-1.1726 2.8262-1.1738 1.0604 0.0012 2.0769 0.42341 2.8262 1.1738l0.70703-0.70703c-0.93673-0.93797-2.2076-1.4656-3.5332-1.4668zm0 2c-0.79521 0.0012-1.5574 0.31798-2.1191 0.88086l0.70508 0.70508c0.37501-0.37509 0.88366-0.58586 1.4141-0.58594 0.5304 8e-5 1.0391 0.21085 1.4141 0.58594l0.70508-0.70508c-0.56172-0.56288-1.3239-0.8797-2.1191-0.88086zm0 2a1 1 0 0 0-1 1 1 1 0 0 0 1 1 1 1 0 0 0 1-1 1 1 0 0 0-1-1z" style="fill:#f9f9f9"/>
</svg>
