<?xml version="1.0" encoding="UTF-8"?>
<svg width="48" height="48" version="1.1" viewBox="0 0 48 48.000001" xmlns="http://www.w3.org/2000/svg" xmlns:cc="http://creativecommons.org/ns#" xmlns:dc="http://purl.org/dc/elements/1.1/" xmlns:rdf="http://www.w3.org/1999/02/22-rdf-syntax-ns#">
 <defs>
  <linearGradient id="linearGradient4220" x1="1" x2="47" gradientTransform="translate(-48 .00221)" gradientUnits="userSpaceOnUse">
   <stop stop-color="#2290ee" offset="0"/>
   <stop stop-color="#359bef" offset="1"/>
  </linearGradient>
 </defs>
 <metadata>
  <rdf:RDF>
   <cc:Work rdf:about="">
    <dc:format>image/svg+xml</dc:format>
    <dc:type rdf:resource="http://purl.org/dc/dcmitype/StillImage"/>
    <dc:title/>
   </cc:Work>
  </rdf:RDF>
 </metadata>
 <path d="m1 43v0.25c0 2.216 1.784 4 4 4h38c2.216 0 4-1.784 4-4v-0.25c0 2.216-1.784 4-4 4h-38c-2.216 0-4-1.784-4-4zm0 0.5v0.5c0 2.216 1.784 4 4 4h38c2.216 0 4-1.784 4-4v-0.5c0 2.216-1.784 4-4 4h-38c-2.216 0-4-1.784-4-4z" opacity=".02"/>
 <path d="m1 43.25v0.25c0 2.216 1.784 4 4 4h38c2.216 0 4-1.784 4-4v-0.25c0 2.216-1.784 4-4 4h-38c-2.216 0-4-1.784-4-4z" opacity=".05"/>
 <path d="m1 43v0.25c0 2.216 1.784 4 4 4h38c2.216 0 4-1.784 4-4v-0.25c0 2.216-1.784 4-4 4h-38c-2.216 0-4-1.784-4-4z" opacity=".1"/>
 <rect transform="rotate(-90)" x="-47" y="1" width="46" height="46" rx="4" fill="url(#linearGradient4220)"/>
 <g transform="translate(0,-1004.4)">
  <path d="m1 1043.4v4c0 2.216 1.784 4 4 4h38c2.216 0 4-1.784 4-4v-4c0 2.216-1.784 4-4 4h-38c-2.216 0-4-1.784-4-4z" opacity=".1"/>
 </g>
 <g transform="translate(-1,-1)">
  <g transform="translate(1,1)">
   <g opacity=".1"><!-- color: #359bef -->
    <path d="m24 14c-5.52 0-10.668 1.883-15 5.152l0.289 0.473 2.813 3.941c3.492-2.484 7.57-3.941 11.934-3.941 4.355 0 8.406 1.461 11.898 3.941l2.773-3.941 0.289-0.473c-4.336-3.27-9.48-5.152-14.996-5.152m0.035 7.445c-3.996 0-7.73 1.285-10.949 3.508l2.664 3.766c2.469-1.559 5.305-2.465 8.285-2.465s5.785 0.906 8.246 2.465l2.668-3.766c-3.207-2.219-6.918-3.508-10.914-3.508m0 6.621c-2.621 0-5.109 0.766-7.301 2.078l2.738 3.852c1.406-0.684 2.926-1.082 4.527-1.082 1.609 0 3.156 0.391 4.563 1.082l2.699-3.852c-2.176-1.301-4.617-2.078-7.223-2.078m-4e-3 0"/>
   </g>
  </g>
 </g>
 <g transform="translate(0,-1)"><!-- color: #359bef -->
  <path d="m24 14c-5.52 0-10.668 1.883-15 5.152l0.289 0.473 2.813 3.941c3.492-2.484 7.57-3.941 11.934-3.941 4.355 0 8.406 1.461 11.898 3.941l2.773-3.941 0.289-0.473c-4.336-3.27-9.48-5.152-14.996-5.152m0.035 7.445c-3.996 0-7.73 1.285-10.949 3.508l2.664 3.766c2.469-1.559 5.305-2.465 8.285-2.465s5.785 0.906 8.246 2.465l2.668-3.766c-3.207-2.219-6.918-3.508-10.914-3.508m0 6.621c-2.621 0-5.109 0.766-7.301 2.078l2.738 3.852c1.406-0.684 2.926-1.082 4.527-1.082 1.609 0 3.156 0.391 4.563 1.082l2.699-3.852c-2.176-1.301-4.617-2.078-7.223-2.078m-4e-3 0" fill="#f9f9f9"/>
 </g>
</svg>
