<svg version="1.1" viewBox="0 0 48 48" xmlns="http://www.w3.org/2000/svg">
 <defs>
  <linearGradient id="bg" x2="0" y1="1" y2="47" gradientUnits="userSpaceOnUse">
   <stop style="stop-color:#2c70d3" offset="0"/>
   <stop style="stop-color:#2968c3" offset="1"/>
  </linearGradient>
 </defs>
 <path d="m1 43v0.25c0 2.216 1.784 4 4 4h38c2.216 0 4-1.784 4-4v-0.25c0 2.216-1.784 4-4 4h-38c-2.216 0-4-1.784-4-4zm0 0.5v0.5c0 2.216 1.784 4 4 4h38c2.216 0 4-1.784 4-4v-0.5c0 2.216-1.784 4-4 4h-38c-2.216 0-4-1.784-4-4z" style="opacity:.02"/>
 <path d="m1 43.25v0.25c0 2.216 1.784 4 4 4h38c2.216 0 4-1.784 4-4v-0.25c0 2.216-1.784 4-4 4h-38c-2.216 0-4-1.784-4-4z" style="opacity:.05"/>
 <path d="m1 43v0.25c0 2.216 1.784 4 4 4h38c2.216 0 4-1.784 4-4v-0.25c0 2.216-1.784 4-4 4h-38c-2.216 0-4-1.784-4-4z" style="opacity:.1"/>
 <rect x="1" y="1" width="46" height="46" rx="4" style="fill:url(#bg)"/>
 <path d="m1 39v4c0 2.216 1.784 4 4 4h38c2.216 0 4-1.784 4-4v-4c0 2.216-1.784 4-4 4h-38c-2.216 0-4-1.784-4-4z" style="opacity:.1"/>
 <path d="m17 30s-5-1-5-4c0-4 4-3 4-3s0-2 1-3 3 0 3 0 3-3 7-3 2 4 2 4 1 0 2 1 1 2 1 2 4 0 4 4c0 2-2 3-4 3-1.4907 0-4-2-4-2s0 2-2 2c-1 0-2-1-2-1s-1 1-3 1c-1 0-3-1-3-3 0-3 3-4 5-4s4 1 4 1-2-2-4-2c-4 0-7 2-7 5 0 1 1 2 1 2z" style="opacity:.1"/>
 <path d="m17 29s-5-1-5-4c0-4 4-3 4-3s0-2 1-3 3 0 3 0 3-3 7-3 2 4 2 4 1 0 2 1 1 2 1 2 4 0 4 4c0 2-2 3-4 3-1.4907 0-4-2-4-2s0 2-2 2c-1 0-2-1-2-1s-1 1-3 1c-1 0-3-1-3-3 0-3 3-4 5-4s4 1 4 1-2-2-4-2c-4 0-7 2-7 5 0 1 1 2 1 2z" style="fill:#8beeb9"/>
</svg>
