<svg version="1.1" viewBox="0 0 48 48" xmlns="http://www.w3.org/2000/svg">
 <defs>
  <linearGradient id="bg" x2="0" y1="1" y2="47" gradientUnits="userSpaceOnUse">
   <stop style="stop-color:#545454" offset="0"/>
   <stop style="stop-color:#4a4a4a" offset="1"/>
  </linearGradient>
 </defs>
 <path d="m1 43v0.25c0 2.216 1.784 4 4 4h38c2.216 0 4-1.784 4-4v-0.25c0 2.216-1.784 4-4 4h-38c-2.216 0-4-1.784-4-4zm0 0.5v0.5c0 2.216 1.784 4 4 4h38c2.216 0 4-1.784 4-4v-0.5c0 2.216-1.784 4-4 4h-38c-2.216 0-4-1.784-4-4z" style="opacity:.02"/>
 <path d="m1 43.25v0.25c0 2.216 1.784 4 4 4h38c2.216 0 4-1.784 4-4v-0.25c0 2.216-1.784 4-4 4h-38c-2.216 0-4-1.784-4-4z" style="opacity:.05"/>
 <path d="m1 43v0.25c0 2.216 1.784 4 4 4h38c2.216 0 4-1.784 4-4v-0.25c0 2.216-1.784 4-4 4h-38c-2.216 0-4-1.784-4-4z" style="opacity:.1"/>
 <rect x="1" y="1" width="46" height="46" rx="4" style="fill:url(#bg)"/>
 <path d="m1 39v4c0 2.216 1.784 4 4 4h38c2.216 0 4-1.784 4-4v-4c0 2.216-1.784 4-4 4h-38c-2.216 0-4-1.784-4-4z" style="opacity:.1"/>
 <path d="m23 10-5.0762 12-5.9238 14 12-8 12 8-4.8984-12.734 1.8984-1.2656h-2.3848l-4.6152-12z" style="opacity:.1;paint-order:normal"/>
 <path d="m23 9 2.9995-5e-7 10 26-12-8-6.0762-6z" style="fill:#f9c35b;paint-order:normal"/>
 <path d="M 23,9 22.771484,9.5410156 24.5,13 26.216797,9.5644531 26,9 Z m 1,18 0.75,0.5 6.658203,-4.439453 L 31,22 Z" style="opacity:.1;paint-order:normal"/>
 <path d="m23 9 1.5 3 1.5-3zm-5.0762 12-5.9238 14 21-14z" style="fill:#fbe087;paint-order:normal"/>
</svg>
