<svg version="1.1" viewBox="0 0 48 48" xmlns="http://www.w3.org/2000/svg">
 <defs>
  <linearGradient id="bg" x2="0" y1="1" y2="47" gradientUnits="userSpaceOnUse">
   <stop style="stop-color:#de1a18" offset="0"/>
   <stop style="stop-color:#cc1816" offset="1"/>
  </linearGradient>
 </defs>
 <path d="m1 43v0.25c0 2.216 1.784 4 4 4h38c2.216 0 4-1.784 4-4v-0.25c0 2.216-1.784 4-4 4h-38c-2.216 0-4-1.784-4-4zm0 0.5v0.5c0 2.216 1.784 4 4 4h38c2.216 0 4-1.784 4-4v-0.5c0 2.216-1.784 4-4 4h-38c-2.216 0-4-1.784-4-4z" style="opacity:.02"/>
 <path d="m1 43.25v0.25c0 2.216 1.784 4 4 4h38c2.216 0 4-1.784 4-4v-0.25c0 2.216-1.784 4-4 4h-38c-2.216 0-4-1.784-4-4z" style="opacity:.05"/>
 <path d="m1 43v0.25c0 2.216 1.784 4 4 4h38c2.216 0 4-1.784 4-4v-0.25c0 2.216-1.784 4-4 4h-38c-2.216 0-4-1.784-4-4z" style="opacity:.1"/>
 <rect x="1" y="1" width="46" height="46" rx="4" style="fill:url(#bg)"/>
 <path d="m1 39v4c0 2.216 1.784 4 4 4h38c2.216 0 4-1.784 4-4v-4c0 2.216-1.784 4-4 4h-38c-2.216 0-4-1.784-4-4z" style="opacity:.1"/>
 <path d="m34 12a2 2 0 0 0-2 2l-4 4-1-1v-2l-4 4h2l-11 11-2 6 6-2 11-11v2l4-4h-2l-1-1 4-4a2 2 0 0 0 2-2 2 2 0 0 0-2-2z" style="opacity:.1"/>
 <path d="m12 35 2-6 12-12 3 3-11 12z" style="fill:#d8d2c4"/>
 <path d="m12 35 16-16 2 2-12 12z" style="fill:#b5a98f"/>
 <path d="m27 18 5-5h2v2l-5 5z" style="fill:#da6540"/>
 <path d="m26 17-2 2h2l1 2 2 1 1-1-4-4z" style="opacity:.1"/>
 <path d="m34 11a2 2 0 0 0-2 2 2 2 0 0 0 2 2 2 2 0 0 0 2-2 2 2 0 0 0-2-2zm-7 3-4 4h3l1 2 2 1v3l4-4h-2l-4-4z" style="fill:#fec021"/>
</svg>
