<?xml version="1.0" encoding="UTF-8"?>
<svg width="48" height="48" version="1.1" viewBox="0 0 48 48.000001" xmlns="http://www.w3.org/2000/svg" xmlns:cc="http://creativecommons.org/ns#" xmlns:dc="http://purl.org/dc/elements/1.1/" xmlns:rdf="http://www.w3.org/1999/02/22-rdf-syntax-ns#">
 <defs>
  <linearGradient id="linearGradient4220" x1="1" x2="47" gradientTransform="translate(-48 .00221)" gradientUnits="userSpaceOnUse">
   <stop stop-color="#e4e4e4" offset="0"/>
   <stop stop-color="#eee" offset="1"/>
  </linearGradient>
 </defs>
 <metadata>
  <rdf:RDF>
   <cc:Work rdf:about="">
    <dc:format>image/svg+xml</dc:format>
    <dc:type rdf:resource="http://purl.org/dc/dcmitype/StillImage"/>
    <dc:title/>
   </cc:Work>
  </rdf:RDF>
 </metadata>
 <path d="m1 43v0.25c0 2.216 1.784 4 4 4h38c2.216 0 4-1.784 4-4v-0.25c0 2.216-1.784 4-4 4h-38c-2.216 0-4-1.784-4-4zm0 0.5v0.5c0 2.216 1.784 4 4 4h38c2.216 0 4-1.784 4-4v-0.5c0 2.216-1.784 4-4 4h-38c-2.216 0-4-1.784-4-4z" opacity=".02"/>
 <path d="m1 43.25v0.25c0 2.216 1.784 4 4 4h38c2.216 0 4-1.784 4-4v-0.25c0 2.216-1.784 4-4 4h-38c-2.216 0-4-1.784-4-4z" opacity=".05"/>
 <path d="m1 43v0.25c0 2.216 1.784 4 4 4h38c2.216 0 4-1.784 4-4v-0.25c0 2.216-1.784 4-4 4h-38c-2.216 0-4-1.784-4-4z" opacity=".1"/>
 <rect transform="rotate(-90)" x="-47" y="1" width="46" height="46" rx="4" fill="url(#linearGradient4220)"/>
 <g transform="translate(0,-1004.4)">
  <path d="m1 1043.4v4c0 2.216 1.784 4 4 4h38c2.216 0 4-1.784 4-4v-4c0 2.216-1.784 4-4 4h-38c-2.216 0-4-1.784-4-4z" opacity=".1"/>
 </g>
 <g transform="translate(-1,-1)">
  <g transform="translate(1,1)">
   <g opacity=".1"><!-- color: #eeeeee -->
    <path transform="translate(-1,-1)" d="m19 13v2h2v-2zm2 2v1h0.996v-1zm7-1v2h2v-2zm0 2h-1v0.996h1zm-5-1v1h-1v0.996h1v3h-9v14.996h22v-14.996h-9l0.02-3h-1v1h-2.02v-3z"/>
   </g>
  </g>
 </g>
 <g transform="translate(0,-1)"><!-- color: #eeeeee -->
  <path d="m13 19h22v14.996h-22m0-14.996" fill="#2d2d2d"/>
  <path d="m15 21h18v11h-18m0-11" fill="#868686"/>
  <g fill="#2d2d2d">
   <path d="m22 17h4v4h-4m0-4"/>
   <path d="m22 15h1v1.996h-1m0-1.996"/>
   <path d="m22 14h1v1h-1m0-1"/>
   <path d="m21 15h1v0.996h-1m0-0.996"/>
   <path d="m20 14h0.996v1h-0.996m0-1"/>
   <path d="m18 12h2v2h-2m0-2"/>
   <path d="m25.02 16h1v1h-1m0-1"/>
   <path d="m26 15h1v0.996h-1m0-0.996"/>
   <path d="m27 13h2v2h-2m0-2"/>
   <path d="m16 30h4v1h-4m0-1"/>
   <path d="m25.02 30h3v1h-3m0-1"/>
   <path d="m21 30h3v1h-3m0-1"/>
   <path d="m29 30h3v1h-3m0-1"/>
   <path d="m16 22h1v4h-1m0-4"/>
   <path d="m17 22h2v1h-2m0-1"/>
   <path d="m18 23h1v3h-1m0-3"/>
   <path d="m17 24h1v1h-1m0-1"/>
   <path d="m20 22h1v4h-1m0-4"/>
   <path d="m22 22h1v4h-1m0-4"/>
   <path d="m23 25h2v1h-2m0-1"/>
   <path d="m23 22h2v2h-2m0-2"/>
   <path d="m26 22h1v2h-1m0-2"/>
   <path d="m27 25h1v1h-1m0-1"/>
   <path d="m28 22h1v3h-1m0-3"/>
   <path d="m26 24h1v1h-1m0-1"/>
   <path d="m30 22h1v4h-1m0-4"/>
   <path d="m31 23h1v1h-1m0-1"/>
  </g>
 </g>
</svg>
