<svg version="1.1" viewBox="0 0 48 48" xmlns="http://www.w3.org/2000/svg">
 <defs>
  <linearGradient id="bg" x2="0" y1="1" y2="47" gradientUnits="userSpaceOnUse">
   <stop style="stop-color:#7d4545" offset="0"/>
   <stop style="stop-color:#6f3e3e" offset="1"/>
  </linearGradient>
 </defs>
 <path d="m1 43v0.25c0 2.216 1.784 4 4 4h38c2.216 0 4-1.784 4-4v-0.25c0 2.216-1.784 4-4 4h-38c-2.216 0-4-1.784-4-4zm0 0.5v0.5c0 2.216 1.784 4 4 4h38c2.216 0 4-1.784 4-4v-0.5c0 2.216-1.784 4-4 4h-38c-2.216 0-4-1.784-4-4z" style="opacity:.02"/>
 <path d="m1 43.25v0.25c0 2.216 1.784 4 4 4h38c2.216 0 4-1.784 4-4v-0.25c0 2.216-1.784 4-4 4h-38c-2.216 0-4-1.784-4-4z" style="opacity:.05"/>
 <path d="m1 43v0.25c0 2.216 1.784 4 4 4h38c2.216 0 4-1.784 4-4v-0.25c0 2.216-1.784 4-4 4h-38c-2.216 0-4-1.784-4-4z" style="opacity:.1"/>
 <rect x="1" y="1" width="46" height="46" rx="4" style="fill:url(#bg)"/>
 <path d="m1 39v4c0 2.216 1.784 4 4 4h38c2.216 0 4-1.784 4-4v-4c0 2.216-1.784 4-4 4h-38c-2.216 0-4-1.784-4-4z" style="opacity:.1"/>
 <path d="m12 35v1h24v-1z" style="opacity:.1;stroke-width:.20412"/>
 <path d="m12 11v24h24v-24" style="fill:#f25252"/>
 <path d="m13 30v4h22v-4" style="fill:#f9f9f9"/>
 <path d="m12 11v18h24v-18" style="fill:#e92f2f"/>
 <path d="m13 30.996v1h22v-1zm0 2.0039v1h22v-1z" style="fill:#e5e5e5"/>
 <rect x="28" y="15" width="8" height="10" style="fill:#d2be47"/>
 <path d="m32 17a2 2 0 0 0-2 2 2 2 0 0 0 1 1.7305v2.2695h2v-2.2715a2 2 0 0 0 1-1.7285 2 2 0 0 0-2-2z" style="fill:#4a4a4a"/>
 <path d="m32 17a2 2 0 0 0-2 2 2 2 0 0 0 0.066406 0.49805 2 2 0 0 1 1.9336-1.498 2 2 0 0 1 1.9355 1.5 2 2 0 0 0 0.064453-0.5 2 2 0 0 0-2-2z" style="opacity:.1"/>
</svg>
