<svg version="1.1" viewBox="0 0 48 48" xmlns="http://www.w3.org/2000/svg">
 <defs>
  <linearGradient id="bg" x2="0" y1="1" y2="47" gradientUnits="userSpaceOnUse">
   <stop style="stop-color:#875454" offset="0"/>
   <stop style="stop-color:#7b4c4c" offset="1"/>
  </linearGradient>
 </defs>
 <path d="m1 43v0.25c0 2.22 1.78 4 4 4h38c2.22 0 4-1.78 4-4v-0.25c0 2.22-1.78 4-4 4h-38c-2.22 0-4-1.78-4-4zm0 0.5v0.5c0 2.22 1.78 4 4 4h38c2.22 0 4-1.78 4-4v-0.5c0 2.22-1.78 4-4 4h-38c-2.22 0-4-1.78-4-4z" style="opacity:.02"/>
 <path d="m1 43.2v0.25c0 2.22 1.78 4 4 4h38c2.22 0 4-1.78 4-4v-0.25c0 2.22-1.78 4-4 4h-38c-2.22 0-4-1.78-4-4z" style="opacity:.05"/>
 <path d="m1 43v0.25c0 2.22 1.78 4 4 4h38c2.22 0 4-1.78 4-4v-0.25c0 2.22-1.78 4-4 4h-38c-2.22 0-4-1.78-4-4z" style="opacity:.1"/>
 <rect x="1" y="1" width="46" height="46" rx="4" style="fill:url(#bg)"/>
 <path d="m1 39v4c0 2.22 1.78 4 4 4h38c2.22 0 4-1.78 4-4v-4c0 2.22-1.78 4-4 4h-38c-2.22 0-4-1.78-4-4z" style="opacity:.1"/>
 <path d="m12 15.5v17c0 1.94 1.56 3.5 3.5 3.5h18.5c1.11 0 2-0.892 2-2v-20z" style="opacity:.1"/>
 <path d="m15.5 11c-1.93 0-3.5 1.57-3.5 3.5v17c0 1.94 1.56 3.5 3.5 3.5h0.5l4-14-4-10z" style="fill:#a57164"/>
 <path d="m16 11v24h18c1.1 0 2-0.895 2-2v-1l-2-3c1.1-2e-4 2-0.895 2-2v-14c0-1.11-0.892-2-2-2z" style="fill:#ef7171"/>
 <path d="m36 26c0 1.1-0.895 2-2 2h-18.5c-1.94 0-3.5 1.56-3.5 3.5s1.56 3.5 3.5 3.5h18.5c1.11 0 2-0.892 2-2z" style="opacity:.15"/>
 <path d="m36 27c0 1.1-0.895 2-2 2h-18.5c-1.38 0-2.5 1.12-2.5 2.5s1.12 2.5 2.5 2.5h18.5c1.11 0 2-0.892 2-2z" style="fill:#ddd"/>
 <path d="m36 28c-0.0186 1.09-0.904 1.96-2 1.96l-20.5 0.0039c-0.215 0.289-0.369 0.626-0.443 0.992l21 0.0039c1.1 2e-4 1.94-0.895 1.94-2zm0 1.98c-0.0077 1.1-0.897 1.99-2 1.99l-21-0.0039c0.0741 0.371 0.229 0.712 0.447 1h20.5c1.1 0 2.05-0.895 2.05-2z" style="opacity:.15"/>
 <path d="m30 15a2 2 0 0 0-2 2v6a2 2 0 0 0 2 2h6v-10z" style="fill:#d1c57a"/>
 <path d="m32 17a2 2 0 0 0-2 2 2 2 0 0 0 1 1.73v2.27h2v-2.27a2 2 0 0 0 1-1.73 2 2 0 0 0-2-2z" style="fill:#4a4a4a"/>
 <path d="m32 17a2 2 0 0 0-2 2 2 2 0 0 0 0.0664 0.498 2 2 0 0 1 1.93-1.5 2 2 0 0 1 1.94 1.5 2 2 0 0 0 0.0645-0.5 2 2 0 0 0-2-2z" style="opacity:.1"/>
</svg>
