<svg width="48" height="48" version="1.1" viewBox="0 0 48 48" xmlns="http://www.w3.org/2000/svg">
 <defs>
  <linearGradient id="bg" x1="1" x2="47" gradientTransform="translate(-48 .00221)" gradientUnits="userSpaceOnUse">
   <stop style="stop-color:#3d3d3d" offset="0"/>
   <stop style="stop-color:#474747" offset="1"/>
  </linearGradient>
 </defs>
 <path d="m1 43v0.25c0 2.22 1.78 4 4 4h38c2.22 0 4-1.78 4-4v-0.25c0 2.22-1.78 4-4 4h-38c-2.22 0-4-1.78-4-4zm0 0.5v0.5c0 2.22 1.78 4 4 4h38c2.22 0 4-1.78 4-4v-0.5c0 2.22-1.78 4-4 4h-38c-2.22 0-4-1.78-4-4z" style="opacity:.02"/>
 <path d="m1 43.2v0.25c0 2.22 1.78 4 4 4h38c2.22 0 4-1.78 4-4v-0.25c0 2.22-1.78 4-4 4h-38c-2.22 0-4-1.78-4-4z" style="opacity:.05"/>
 <path d="m1 43v0.25c0 2.22 1.78 4 4 4h38c2.22 0 4-1.78 4-4v-0.25c0 2.22-1.78 4-4 4h-38c-2.22 0-4-1.78-4-4z" style="opacity:.1"/>
 <rect transform="rotate(-90)" x="-47" y="1" width="46" height="46" rx="4" style="fill:url(#bg)"/>
 <path d="m1 39v4c0 2.22 1.78 4 4 4h38c2.22 0 4-1.78 4-4v-4c0 2.22-1.78 4-4 4h-38c-2.22 0-4-1.78-4-4z" style="opacity:.1"/>
 <path d="m20.5 12c-0.796 0-1.46 0.428-1.87 1s-0.627 1.29-0.627 2c0 1.53 0.241 3.41 0.682 4.95-1.52 1.46-2.68 3.12-2.68 4.1 0 0.486 1.32 0.72 3 0.836v10.1c0 0.5 2 1 5 1s5-0.5 5-1v-10.1c1.68-0.122 3-0.369 3-0.881 0-0.957-1.16-2.6-2.68-4.05 0.44-1.55 0.682-3.41 0.682-4.95 0-0.711-0.211-1.43-0.627-2s-1.08-1-1.87-1c-1.64 0-2.92 0.865-3.5 1.34-0.583-0.474-1.86-1.34-3.5-1.34zm0 1c1.75 0 3.5 1.5 3.5 1.5s1.75-1.5 3.5-1.5c0.454 0 0.793 0.214 1.06 0.588 0.271 0.373 0.436 0.907 0.436 1.41 0 1.28-0.198 2.86-0.529 4.21l-8.94 2e-3c-0.333-1.35-0.531-2.93-0.531-4.21 0-0.505 0.164-1.04 0.436-1.41 0.271-0.373 0.611-0.588 1.06-0.588z" style="opacity:.1"/>
 <path d="m21.8 23.2c-1.54 0-2.78 0.218-2.78 0.484v10.3c0 0.5 2 1 5 1s5-0.5 5-1v-10.3c0-0.265-1.25-0.484-2.78-0.484z" style="fill:#947957"/>
 <path d="m19 23.7v1.2c1.6 0.11 3.54 0.113 5 0.113s3.4-0.0029 5-0.119v-1.2z" style="opacity:.1"/>
 <path d="m24 16c-3 0-8 5-8 7.05 0 0.949 5 0.949 8 0.949s8 0 8-1c0-2-5-7-8-7z" style="fill:#786245"/>
 <path d="m28 21.5c0 0.552-0.446 0.997-1 0.997s-1-0.445-1-0.997 0.446-1 1-1 1 0.452 1 1" style="fill:#383838"/>
 <path d="m20.5 11c-0.796 0-1.46 0.428-1.87 1s-0.627 1.29-0.627 2c0 1.53 0.241 3.41 0.682 4.95 0.272-0.261 0.557-0.502 0.85-0.746-0.333-1.35-0.531-2.93-0.531-4.21 0-0.505 0.164-1.04 0.436-1.41 0.271-0.373 0.611-0.588 1.06-0.588 1.75 0 3.5 1.5 3.5 1.5s1.75-1.5 3.5-1.5c0.454 0 0.793 0.214 1.06 0.588 0.271 0.373 0.436 0.907 0.436 1.41 0 1.45-0.241 3.3-0.658 4.74-0.208 0.721-0.463 1.34-0.725 1.74-0.261 0.4-0.481 0.523-0.617 0.523-0.276 0-0.5 0.224-0.5 0.5s0.224 0.5 0.5 0.5c0.637 0 1.13-0.569 1.45-0.977 0.4-0.501 0.624-1.23 0.85-2.01 0.451-1.56 0.697-3.46 0.697-5.01 0-0.711-0.211-1.43-0.627-2s-1.08-1-1.87-1c-1.64 0-2.92 0.865-3.5 1.34-0.583-0.474-1.86-1.34-3.5-1.34z" style="fill:#8e7153"/>
 <path d="m23.5 25c-1.9 0-3.5 0.234-3.5 0.5v8.01c0 0.262 1.6 0.486 3.5 0.486h1c1.9 0 3.5-0.216 3.5-0.486l-2e-3 -8.01c-6.5e-5 -0.265-1.6-0.5-3.5-0.5z" style="fill:#6a563e"/>
 <path d="m28 33.6c0 0.328-1.79 0.598-4 0.598-2.21 0-4-0.27-4-0.598 0-0.332 1.79-0.602 4-0.602 2.21 0 4 0.27 4 0.602" style="fill-opacity:.557;fill:#9a795b"/>
 <path d="m24 28.7c0.551 0 0.996 0.133 0.996 0.301v4.43c0 0.168-0.445 0.301-0.996 0.301-0.555 0-1-0.133-1-0.301v-4.43c0-0.168 0.445-0.301 1-0.301" style="fill:#d6cabd"/>
 <path d="m24.7 28.1c0 0.777-0.32 1.41-0.715 1.41s-0.715-0.629-0.715-1.41 0.32-1.41 0.715-1.41 0.715 0.629 0.715 1.41" style="fill:#b09e68"/>
 <path d="m24.5 28.1c0 0.57-0.234 1.04-0.523 1.04-0.293 0-0.527-0.465-0.527-1.04s0.234-1.04 0.527-1.04c0.289 0 0.523 0.465 0.523 1.04" style="fill:#cfbb76"/>
 <path d="m24.3 28.1c-0.02 0.324-0.16 0.57-0.324 0.57-0.168 0-0.309-0.246-0.324-0.57-0.016-0.242 0.043-0.48 0.148-0.609s0.242-0.129 0.348 0c0.105 0.129 0.164 0.367 0.152 0.609" style="fill:#e2cf90"/>
</svg>
