<svg width="48" height="48" version="1.1" viewBox="0 0 48 48" xmlns="http://www.w3.org/2000/svg">
 <defs>
  <linearGradient id="bg" x1="1" x2="47" gradientTransform="translate(-48 .00221)" gradientUnits="userSpaceOnUse">
   <stop style="stop-color:#7ca339" offset="0"/>
   <stop style="stop-color:#87b23e" offset="1"/>
  </linearGradient>
 </defs>
 <path d="m1 43v0.25c0 2.216 1.784 4 4 4h38c2.216 0 4-1.784 4-4v-0.25c0 2.216-1.784 4-4 4h-38c-2.216 0-4-1.784-4-4zm0 0.5v0.5c0 2.216 1.784 4 4 4h38c2.216 0 4-1.784 4-4v-0.5c0 2.216-1.784 4-4 4h-38c-2.216 0-4-1.784-4-4z" style="opacity:.02"/>
 <path d="m1 43.25v0.25c0 2.216 1.784 4 4 4h38c2.216 0 4-1.784 4-4v-0.25c0 2.216-1.784 4-4 4h-38c-2.216 0-4-1.784-4-4z" style="opacity:.05"/>
 <path d="m1 43v0.25c0 2.216 1.784 4 4 4h38c2.216 0 4-1.784 4-4v-0.25c0 2.216-1.784 4-4 4h-38c-2.216 0-4-1.784-4-4z" style="opacity:.1"/>
 <rect transform="rotate(-90)" x="-47" y="1" width="46" height="46" rx="4" style="fill:url(#bg)"/>
 <g transform="translate(0,-1004.4)">
  <path d="m1 1043.4v4c0 2.216 1.784 4 4 4h38c2.216 0 4-1.784 4-4v-4c0 2.216-1.784 4-4 4h-38c-2.216 0-4-1.784-4-4z" style="opacity:.1"/>
 </g>
 <path d="m19.289 11v2e-3l0.0039 2e-3c-0.229 0.01-0.36409 0.26103-0.24609 0.45703l0.94531 1.6289c-1.873 1.1219-2.9922 2.9521-2.9922 4.9101v12c0 1.108 0.892 2 2 2h1v3.5c0 0.831 0.669 1.5 1.5 1.5s1.5-0.669 1.5-1.5v-3.5h2v3.5c0 0.831 0.669 1.5 1.5 1.5s1.5-0.669 1.5-1.5v-3.5h1c1.108 0 2-0.892 2-2v-12c0-1.957-1.1172-3.7862-2.9902-4.9062l0.95117-1.6328c0.119-0.2-0.02481-0.45403-0.25781-0.45703-0.111-2e-3 -0.21258 0.05634-0.26758 0.15234l-0.95898 1.6465c-1.057-0.522-2.2566-0.80173-3.4766-0.80273s-2.4186 0.27783-3.4766 0.79883l-0.95703-1.6445c-0.056-0.1-0.16334-0.1593-0.27734-0.1543zm4.7148 9c1.596-2e-3 0.50081 1.3347 1.8828 2.0527s2.1161-0.80655 2.9141 0.43945c0.798 1.246-1.0312 1.062-1.0312 2.502s1.8283 1.249 1.0293 2.498c-0.798 1.249-1.5321-0.27278-2.9141 0.44922s-0.28877 2.0556-1.8848 2.0586c-1.596 2e-3 -0.50081-1.3347-1.8828-2.0527s-2.1161 0.80655-2.9141-0.43945c-0.798-1.246 1.0312-1.062 1.0312-2.502s-1.8283-1.249-1.0293-2.498c0.798-1.249 1.5321 0.27278 2.9141-0.44922s0.28876-2.0556 1.8848-2.0586zm-11.004 0.5v7c0 0.831 0.669 1.5 1.5 1.5s1.5-0.669 1.5-1.5v-7zm19 0v7c0 0.831 0.669 1.5 1.5 1.5s1.5-0.669 1.5-1.5v-7zm-7.998 3.5c-0.55228 0-1 0.44772-1 1s0.44772 1 1 1 1-0.44772 1-1-0.44772-1-1-1z" style="opacity:.1"/>
 <path d="m19.289 9.999 2e-3 2e-3c-0.229 0.01-0.364 0.261-0.246 0.457l0.947 1.629c-1.873 1.122-2.989 2.956-2.99 4.914h14c-4e-3 -1.957-1.121-3.79-2.994-4.91l0.951-1.633c0.119-0.2-0.023-0.454-0.256-0.457-0.111-2e-3 -0.213 0.058-0.268 0.154l-0.959 1.646c-1.057-0.522-2.257-0.802-3.477-0.803s-2.419 0.278-3.477 0.799l-0.957-1.645c-0.056-0.1-0.163-0.159-0.277-0.154zm1.211 4c0.276 0 0.5 0.224 0.5 0.5s-0.224 0.5-0.5 0.5-0.5-0.224-0.5-0.5 0.224-0.5 0.5-0.5zm7 0c0.276 0 0.5 0.224 0.5 0.5s-0.224 0.5-0.5 0.5-0.5-0.224-0.5-0.5 0.224-0.5 0.5-0.5zm-13 4c-0.831 0-1.5 0.669-1.5 1.5v7c0 0.831 0.669 1.5 1.5 1.5s1.5-0.669 1.5-1.5v-7c0-0.831-0.669-1.5-1.5-1.5zm2.5 0v11c0 1.108 0.892 2 2 2h1v3.5c0 0.831 0.669 1.5 1.5 1.5s1.5-0.669 1.5-1.5v-3.5h2v3.5c0 0.831 0.669 1.5 1.5 1.5s1.5-0.669 1.5-1.5v-3.5h1c1.108 0 2-0.892 2-2v-11h-14zm16.5 0c-0.831 0-1.5 0.669-1.5 1.5v7c0 0.831 0.669 1.5 1.5 1.5s1.5-0.669 1.5-1.5v-7c0-0.831-0.669-1.5-1.5-1.5zm-9.496 1c1.596-2e-3 0.501 1.335 1.883 2.053s2.116-0.807 2.914 0.439-1.031 1.062-1.031 2.502 1.828 1.249 1.029 2.498c-0.798 1.249-1.532-0.273-2.914 0.449s-0.289 2.056-1.885 2.059c-1.596 2e-3 -0.501-1.335-1.883-2.053s-2.116 0.807-2.914-0.439 1.031-1.062 1.031-2.502-1.828-1.249-1.029-2.498c0.798-1.249 1.532 0.273 2.914-0.449s0.289-2.056 1.885-2.059zm-2e-3 4a1 1 0 0 0-1 1 1 1 0 0 0 1 1 1 1 0 0 0 1-1 1 1 0 0 0-1-1z" style="fill:#f9f9f9"/>
</svg>
