<svg width="48" height="48" version="1.1" viewBox="0 0 48 48" xmlns="http://www.w3.org/2000/svg">
 <defs>
  <linearGradient id="bg" x1="-47" x2="-1" y1="2.8779e-15" y2="6.1232e-17" gradientUnits="userSpaceOnUse">
   <stop style="stop-color:#29639b" offset="0"/>
   <stop style="stop-color:#2d6dab" offset="1"/>
  </linearGradient>
 </defs>
 <g transform="translate(0 3.949e-5)">
  <path d="m1 43v0.25c0 2.216 1.784 4 4 4h38c2.216 0 4-1.784 4-4v-0.25c0 2.216-1.784 4-4 4h-38c-2.216 0-4-1.784-4-4zm0 0.5v0.5c0 2.216 1.784 4 4 4h38c2.216 0 4-1.784 4-4v-0.5c0 2.216-1.784 4-4 4h-38c-2.216 0-4-1.784-4-4z" style="opacity:.02"/>
  <path d="m1 43.25v0.25c0 2.216 1.784 4 4 4h38c2.216 0 4-1.784 4-4v-0.25c0 2.216-1.784 4-4 4h-38c-2.216 0-4-1.784-4-4z" style="opacity:.05"/>
  <path d="m1 43v0.25c0 2.216 1.784 4 4 4h38c2.216 0 4-1.784 4-4v-0.25c0 2.216-1.784 4-4 4h-38c-2.216 0-4-1.784-4-4z" style="opacity:.1"/>
 </g>
 <rect transform="rotate(-90)" x="-47" y="1" width="46" height="46" rx="4" style="fill:url(#bg)"/>
 <g transform="translate(0 3.949e-5)">
  <g transform="translate(0 -1004.4)">
   <path d="m1 1043.4v4c0 2.216 1.784 4 4 4h38c2.216 0 4-1.784 4-4v-4c0 2.216-1.784 4-4 4h-38c-2.216 0-4-1.784-4-4z" style="opacity:.1"/>
  </g>
 </g>
 <path d="m20.5 11c-3.155 0.947-3.319 6.366-0.5 7.791v1.439l3 3.32v2.074l-6.107-4.582c0.758-2.789-2.871-6.138-5.547-4.697-1.478 2.745 2.083 6.486 4.91 5.473l3.854 2.889-2.273 0.568c-1.806-2.517-6.745-1.026-6.836 2.221 1.518 2.609 6.04 1.568 6.861-1.197l3.26-0.814-6e-3 -0.021 1.885 1.412v8.125l-3 2h8l-3-2v-8.125l1.885-1.412-6e-3 0.021 3.26 0.814c0.82 2.766 5.343 3.807 6.861 1.197-0.091-3.247-5.03-4.738-6.836-2.221l-2.273-0.568 3.854-2.889c2.828 1.014 6.388-2.728 4.91-5.473-2.676-1.441-6.305 1.908-5.547 4.697l-6.107 4.582v-2.074l3-3.32v-1.439c2.819-1.425 2.655-6.844-0.5-7.791-3.155 0.947-3.319 6.366-0.5 7.791v0.979l-3.002 3.23-2.998-3.23v-0.979c2.819-1.425 2.655-6.844-0.5-7.791z" style="opacity:.1"/>
 <path d="m20.5 10c3.333 1 3.333 7 0 8-3.333-1-3.333-7 0-8z" style="fill:#f0f0f0"/>
 <path d="m20 16v3.2305l3 3.3203v2.0723l-6.6992-5.0234-0.60156 0.80078 4.4102 3.3066-3.2305 0.80859 0.24219 0.96875 4-1-0.0059-0.01953 1.8848 1.4121v8.123l-3 2h8l-3-2v-8.123l1.8848-1.4121-0.0059 0.01953 4 1 0.24219-0.96875-3.2305-0.80859 4.4102-3.3066-0.60152-0.80078-6.6992 5.0234v-2.0723l3-3.3203v-3.2305h-1v2.7695l-3 3.2305-3-3.2305v-2.7695z" style="fill:#f0f0f0"/>
 <path d="m27.5 10c3.333 1 3.333 7 0 8-3.333-1-3.333-7 0-8z" style="fill:#f0f0f0"/>
 <path d="m36.654 15.346c1.548 2.875-2.433 6.856-5.308 5.308-1.548-2.875 2.433-6.856 5.308-5.308z" style="fill:#f0f0f0"/>
 <path d="m11.346 15.346c-1.548 2.875 2.433 6.856 5.308 5.308 1.548-2.875-2.433-6.856-5.308-5.308z" style="fill:#f0f0f0"/>
 <path d="m11 26.496c0.093-3.346 5.343-4.839 7-1.991-0.093 3.346-5.343 4.839-7 1.991z" style="fill:#f0f0f0"/>
 <path d="m37 26.496c-0.093-3.346-5.343-4.839-7-1.991 0.093 3.346 5.343 4.839 7 1.991z" style="fill:#f0f0f0"/>
</svg>
