<svg width="48" height="48" version="1.1" viewBox="0 0 48 48" xmlns="http://www.w3.org/2000/svg">
 <defs>
  <linearGradient id="lG6688" x1="-47" x2="-1" y1="24" y2="24" gradientTransform="matrix(0 -1 1 0 0 48)" gradientUnits="userSpaceOnUse">
   <stop style="stop-color:#ed6d17" offset="0"/>
   <stop style="stop-color:#ef772a" offset="1"/>
  </linearGradient>
 </defs>
 <path d="m1 43v0.25c0 2.22 1.78 4 4 4h38c2.22 0 4-1.78 4-4v-0.25c0 2.22-1.78 4-4 4h-38c-2.22 0-4-1.78-4-4zm0 0.5v0.5c0 2.22 1.78 4 4 4h38c2.22 0 4-1.78 4-4v-0.5c0 2.22-1.78 4-4 4h-38c-2.22 0-4-1.78-4-4z" style="opacity:.02"/>
 <path d="m1 43.2v0.25c0 2.22 1.78 4 4 4h38c2.22 0 4-1.78 4-4v-0.25c0 2.22-1.78 4-4 4h-38c-2.22 0-4-1.78-4-4z" style="opacity:.05"/>
 <path d="m1 43v0.25c0 2.22 1.78 4 4 4h38c2.22 0 4-1.78 4-4v-0.25c0 2.22-1.78 4-4 4h-38c-2.22 0-4-1.78-4-4z" style="opacity:.1"/>
 <rect transform="rotate(-90)" x="-47" y="1" width="46" height="46" rx="4" style="fill:url(#lG6688)"/>
 <path d="m1 39v4c0 2.22 1.78 4 4 4h38c2.22 0 4-1.78 4-4v-4c0 2.22-1.78 4-4 4h-38c-2.22 0-4-1.78-4-4z" style="opacity:.1"/>
 <path d="m20 11a9 9 0 0 0-9 9 9 9 0 0 0 9 9 9 9 0 0 0 5.56-1.94l4.69 4.69-0.246 0.246 5 5 2-2-5-5-0.25 0.25-4.68-4.68a9 9 0 0 0 1.93-5.57 9 9 0 0 0-9-9zm0 2a7 7 0 0 1 7 7 7 7 0 0 1-7 7 7 7 0 0 1-7-7 7 7 0 0 1 7-7zm-1 1-3.69 10h1.4l1.14-3h4.1l1.05 3h1.4l-3.4-10h-0.5zm0.98 1.37 1.62 4.63h-3.37z" style="opacity:.1"/>
 <path d="m20 10a9 9 0 0 0-9 9 9 9 0 0 0 9 9 9 9 0 0 0 5.56-1.94l4.69 4.69-0.246 0.246 5 5 2-2-5-5-0.25 0.25-4.68-4.68a9 9 0 0 0 1.93-5.57 9 9 0 0 0-9-9zm0 2a7 7 0 0 1 7 7 7 7 0 0 1-7 7 7 7 0 0 1-7-7 7 7 0 0 1 7-7zm-1 1-3.69 10h1.4l1.14-3h4.1l1.05 3h1.4l-3.4-10h-0.5zm0.98 1.37 1.62 4.63h-3.37z" style="fill:#f9f9f9"/>
</svg>
