<svg version="1.1" viewBox="0 0 48 48" xmlns="http://www.w3.org/2000/svg">
 <defs>
  <linearGradient id="bg" x2="0" y1="1" y2="47" gradientUnits="userSpaceOnUse">
   <stop style="stop-color:#c4e8f3" offset="0"/>
   <stop style="stop-color:#b3e1ef" offset="1"/>
  </linearGradient>
 </defs>
 <path d="m1 43v0.25c0 2.216 1.784 4 4 4h38c2.216 0 4-1.784 4-4v-0.25c0 2.216-1.784 4-4 4h-38c-2.216 0-4-1.784-4-4zm0 0.5v0.5c0 2.216 1.784 4 4 4h38c2.216 0 4-1.784 4-4v-0.5c0 2.216-1.784 4-4 4h-38c-2.216 0-4-1.784-4-4z" style="opacity:.02"/>
 <path d="m1 43.25v0.25c0 2.216 1.784 4 4 4h38c2.216 0 4-1.784 4-4v-0.25c0 2.216-1.784 4-4 4h-38c-2.216 0-4-1.784-4-4z" style="opacity:.05"/>
 <path d="m1 43v0.25c0 2.216 1.784 4 4 4h38c2.216 0 4-1.784 4-4v-0.25c0 2.216-1.784 4-4 4h-38c-2.216 0-4-1.784-4-4z" style="opacity:.1"/>
 <rect x="1" y="1" width="46" height="46" rx="4" style="fill:url(#bg)"/>
 <path d="m1 39v4c0 2.216 1.784 4 4 4h38c2.216 0 4-1.784 4-4v-4c0 2.216-1.784 4-4 4h-38c-2.216 0-4-1.784-4-4z" style="opacity:.1"/>
 <path d="m13.125 14.834-2.5 4.332c-0.1385 0.23989-0.05629 0.54314 0.18359 0.68164l2.4258 2.0254c-0.14706 0.69968-0.22556 1.412-0.23438 2.127 0.0083 0.72086 0.08747 1.4392 0.23633 2.1445l-2.4238 2.0234c-0.23989 0.1385-0.32212 0.44368-0.18359 0.68359l2.5 4.3301c0.1385 0.23989 0.42352 0.27894 0.68359 0.18359l2.9551-1.082c1.0818 0.93579 2.3356 1.6516 3.6914 2.1074l0.54102 3.1094c0.04746 0.2729 0.223 0.5 0.5 0.5h5c0.277 0 0.5-0.223 0.5-0.5l0.54102-3.1094c1.3617-0.45828 2.6204-1.1789 3.7051-2.1211l2.9453 1.0781c0.23989 0.1385 0.54509 0.0583 0.68359-0.18164l2.5-4.332c0.1385-0.23989 0.02902-0.50408-0.18359-0.68164l-2.4238-2.0254c0.14641-0.69975 0.22425-1.4121 0.23242-2.127 3.12e-4 -0.71468-0.06903-1.4277-0.20703-2.1289l2.4023-2.0059c0.21257-0.17758 0.32212-0.44368 0.18359-0.68359l-2.5-4.3301z" style="opacity:.1"/>
 <path d="m21.5 9c-0.277 0-0.45254 0.2271-0.5 0.5l-0.54102 3.1094c-1.3625 0.45863-2.622 1.1799-3.707 2.123l-2.9434-1.0801c-0.26007-0.0953-0.54509-0.0583-0.68359 0.18164l-2.5 4.332c-0.1385 0.23989-0.05629 0.54314 0.18359 0.68164l2.4258 2.0254c-0.14706 0.69968-0.22556 1.412-0.23438 2.127 0.0083 0.72086 0.08747 1.4392 0.23633 2.1445l-2.4238 2.0234c-0.23989 0.1385-0.32212 0.44368-0.18359 0.68359l2.5 4.3301c0.1385 0.23989 0.42352 0.27894 0.68359 0.18359l2.9551-1.082c1.0818 0.93579 2.3356 1.6516 3.6914 2.1074l0.54102 3.1094c0.04746 0.2729 0.223 0.5 0.5 0.5h5c0.277 0 0.5-0.223 0.5-0.5l0.54102-3.1094c1.3617-0.45828 2.6204-1.1789 3.7051-2.1211l2.9453 1.0781c0.23989 0.1385 0.54509 0.0583 0.68359-0.18164l2.5-4.332c0.1385-0.23989 0.02902-0.50408-0.18359-0.68164l-2.4238-2.0254c0.14641-0.69975 0.22425-1.4121 0.23242-2.127 3.12e-4 -0.71468-0.06903-1.4277-0.20703-2.1289l2.4023-2.0059c0.21257-0.17758 0.32212-0.44368 0.18359-0.68359l-2.5-4.3301c-0.1385-0.23989-0.4437-0.32209-0.68359-0.18359l-2.9316 1.0742c-1.0882-0.95651-2.3546-1.6886-3.7266-2.1543l-0.53711-3.0879c0-0.277-0.223-0.5-0.5-0.5z" style="fill:#1fa5cd"/>
 <path d="m19 26 5 6 5-6z" style="opacity:.1"/>
 <path d="m22.5 16c-0.277 0-0.5 0.223-0.5 0.5v8.5h-3l5 6 5-6h-3v-8.5c0-0.277-0.223-0.5-0.5-0.5z" style="fill:#f9f9f9"/>
</svg>
