<svg width="48" height="48" version="1.1" viewBox="0 0 48 48" xmlns="http://www.w3.org/2000/svg">
 <defs>
  <linearGradient id="linearGradient6688" x1="-47" x2="-1" y1="24" y2="24" gradientTransform="matrix(0 -1 1 0 -1.5e-6 48)" gradientUnits="userSpaceOnUse">
   <stop style="stop-color:#527fb2" offset="0"/>
   <stop style="stop-color:#5f88b8" offset="1"/>
  </linearGradient>
 </defs>
 <path d="m1 43v0.25c0 2.216 1.784 4 4 4h38c2.216 0 4-1.784 4-4v-0.25c0 2.216-1.784 4-4 4h-38c-2.216 0-4-1.784-4-4zm0 0.5v0.5c0 2.216 1.784 4 4 4h38c2.216 0 4-1.784 4-4v-0.5c0 2.216-1.784 4-4 4h-38c-2.216 0-4-1.784-4-4z" style="opacity:.02"/>
 <path d="m1 43.25v0.25c0 2.216 1.784 4 4 4h38c2.216 0 4-1.784 4-4v-0.25c0 2.216-1.784 4-4 4h-38c-2.216 0-4-1.784-4-4z" style="opacity:.05"/>
 <path d="m1 43v0.25c0 2.216 1.784 4 4 4h38c2.216 0 4-1.784 4-4v-0.25c0 2.216-1.784 4-4 4h-38c-2.216 0-4-1.784-4-4z" style="opacity:.1"/>
 <rect transform="rotate(-90)" x="-47" y="1" width="46" height="46" rx="4" style="fill:url(#linearGradient6688)"/>
 <g transform="translate(0,-1004.4)">
  <path d="m1 1043.4v4c0 2.216 1.784 4 4 4h38c2.216 0 4-1.784 4-4v-4c0 2.216-1.784 4-4 4h-38c-2.216 0-4-1.784-4-4z" style="opacity:.1"/>
 </g>
 <g transform="translate(-1,-1)">
  <g transform="translate(1,1)">
   <g style="opacity:.1">
    <path d="m10 29.801 2.207-10.785h5.105c2.207 0.137 3.309 1.199 3.309 3.063 0 3.195-2.621 5.05-4.965 4.926h-2.484l-0.555 2.797h-2.621m3.727-4.793 0.691-3.992h1.793c0.969 0 1.656 0.398 1.656 1.199-0.141 2.262-1.242 2.66-2.484 2.793m-1.656 0" style="fill-rule:evenodd"/>
    <path d="m19.797 27 2.207-10.781h2.621l-0.551 2.793h2.484c2.207 0.137 3.035 1.199 2.758 2.531l-0.965 5.457h-2.762l0.969-4.926c0.137-0.664 0.137-1.066-0.832-1.066h-2.066l-1.242 5.988h-2.621m0 4e-3"/>
    <path d="m28.13 29.801 2.211-10.785h5.105c2.207 0.137 3.309 1.199 3.309 3.063 0 3.195-2.621 5.05-4.969 4.926h-2.484l-0.551 2.797m1.105-4.793 0.691-3.992h1.793c0.965 0 1.652 0.398 1.652 1.199-0.137 2.262-1.238 2.66-2.484 2.793m-1.652 0" style="fill-rule:evenodd"/>
   </g>
  </g>
 </g>
 <g transform="translate(0,-1)">
  <path d="m10 29.801 2.207-10.785h5.105c2.207 0.137 3.309 1.199 3.309 3.063 0 3.195-2.621 5.05-4.965 4.926h-2.484l-0.555 2.797h-2.621m3.727-4.793 0.691-3.992h1.793c0.969 0 1.656 0.398 1.656 1.199-0.141 2.262-1.242 2.66-2.484 2.793m-1.656 0" style="fill-rule:evenodd;fill:#fff"/>
  <path d="m19.797 27 2.207-10.781h2.621l-0.551 2.793h2.484c2.207 0.137 3.035 1.199 2.758 2.531l-0.965 5.457h-2.762l0.969-4.926c0.137-0.664 0.137-1.066-0.832-1.066h-2.066l-1.242 5.988h-2.621m0 4e-3" style="fill:#fff"/>
  <path d="m28.13 29.801 2.211-10.785h5.105c2.207 0.137 3.309 1.199 3.309 3.063 0 3.195-2.621 5.05-4.969 4.926h-2.484l-0.551 2.797m1.105-4.793 0.691-3.992h1.793c0.965 0 1.652 0.398 1.652 1.199-0.137 2.262-1.238 2.66-2.484 2.793m-1.652 0" style="fill-rule:evenodd;fill:#fff"/>
 </g>
</svg>
