<svg xmlns="http://www.w3.org/2000/svg" height="48" viewBox="0 0 48 48.000001" width="48">
  <defs>
    <linearGradient id="a" y2="24" gradientUnits="userSpaceOnUse" x2="-1" gradientTransform="rotate(-90 24 24)" y1="24" x1="-47">
      <stop offset="0" stop-color="#3d4663"/>
      <stop offset="1" stop-color="#454f6f"/>
    </linearGradient>
  </defs>
  <path d="M1 43v.25c0 2.216 1.784 4 4 4h38c2.216 0 4-1.784 4-4V43c0 2.216-1.784 4-4 4H5c-2.216 0-4-1.784-4-4zm0 .5v.5c0 2.216 1.784 4 4 4h38c2.216 0 4-1.784 4-4v-.5c0 2.216-1.784 4-4 4H5c-2.216 0-4-1.784-4-4z" opacity=".02"/>
  <path d="M1 43.25v.25c0 2.216 1.784 4 4 4h38c2.216 0 4-1.784 4-4v-.25c0 2.216-1.784 4-4 4H5c-2.216 0-4-1.784-4-4z" opacity=".05"/>
  <path d="M1 43v.25c0 2.216 1.784 4 4 4h38c2.216 0 4-1.784 4-4V43c0 2.216-1.784 4-4 4H5c-2.216 0-4-1.784-4-4z" opacity=".1"/>
  <rect rx="4" transform="rotate(-90)" height="46" width="46" y="1" x="-47" fill="url(#a)"/>
  <path d="M1 39v4c0 2.216 1.784 4 4 4h38c2.216 0 4-1.784 4-4v-4c0 2.216-1.784 4-4 4H5c-2.216 0-4-1.784-4-4zM20 11a6 6 0 0 0-6 6 6 6 0 0 0 6 6 6 6 0 0 0 6-6 6 6 0 0 0-6-6zm12 7a6 6 0 0 0-6 6 6 6 0 0 0 6 6 6 6 0 0 0 6-6 6 6 0 0 0-6-6zm-12 7a6 6 0 0 0-6 6 6 6 0 0 0 6 6 6 6 0 0 0 6-6 6 6 0 0 0-6-6z" opacity=".1"/>
  <circle cy="16" cx="20" r="6" fill="#e1d393"/>
  <circle cx="20" cy="30" r="6" fill="#cd6975"/>
  <circle cy="23" cx="32" r="6" fill="#967c8e"/>
</svg>
