<svg xmlns="http://www.w3.org/2000/svg" height="48" viewBox="0 0 48 48.000001" width="48">
  <defs>
    <linearGradient id="a" y2="24" gradientUnits="userSpaceOnUse" x2="-1" gradientTransform="rotate(-90 24 24)" y1="24" x1="-47">
      <stop offset="0" stop-color="#008bb8"/>
      <stop offset="1" stop-color="#009acd"/>
    </linearGradient>
  </defs>
  <path d="M1 43v.25c0 2.216 1.784 4 4 4h38c2.216 0 4-1.784 4-4V43c0 2.216-1.784 4-4 4H5c-2.216 0-4-1.784-4-4zm0 .5v.5c0 2.216 1.784 4 4 4h38c2.216 0 4-1.784 4-4v-.5c0 2.216-1.784 4-4 4H5c-2.216 0-4-1.784-4-4z" opacity=".02"/>
  <path d="M1 43.25v.25c0 2.216 1.784 4 4 4h38c2.216 0 4-1.784 4-4v-.25c0 2.216-1.784 4-4 4H5c-2.216 0-4-1.784-4-4z" opacity=".05"/>
  <path d="M1 43v.25c0 2.216 1.784 4 4 4h38c2.216 0 4-1.784 4-4V43c0 2.216-1.784 4-4 4H5c-2.216 0-4-1.784-4-4z" opacity=".1"/>
  <rect rx="4" transform="rotate(-90)" height="46" width="46" y="1" x="-47" fill="url(#a)"/>
  <path d="M1 39v4c0 2.216 1.784 4 4 4h38c2.216 0 4-1.784 4-4v-4c0 2.216-1.784 4-4 4H5c-2.216 0-4-1.784-4-4zM11.961 20.004c-.57.027-.961.156-.961.766v12.773c0 .809.695 1.457 1.57 1.457h22.828c.879 0 1.602-.648 1.602-1.457V20.77c0-.805-.723-.766-1.602-.766H12.57c-.219 0-.418-.008-.609 0m3.085-6.598l-3.25 4.598h11.199v-7h-5.512c-.809 0-2.438 2.402-2.438 2.402m9.941-2.402v7H36.17l-3.25-4.598s-1.625-2.402-2.441-2.402m-5.492 0" opacity=".1"/>
  <path d="M11.961 19.004c-.57.027-.961.156-.961.766v12.773c0 .809.695 1.457 1.57 1.457h22.828c.879 0 1.602-.648 1.602-1.457V19.77c0-.805-.723-.766-1.602-.766H12.57c-.219 0-.418-.008-.609 0m3.085-6.598l-3.25 4.598h11.199v-7h-5.512c-.809 0-2.438 2.402-2.438 2.402m9.941-2.402v7H36.17l-3.25-4.598s-1.625-2.402-2.441-2.402m-5.492 0" fill="#f9f9f9"/>
</svg>
