<svg version="1.1" viewBox="0 0 48 48" xmlns="http://www.w3.org/2000/svg">
 <defs>
  <linearGradient id="bg" x2="0" y1="1" y2="47" gradientUnits="userSpaceOnUse">
   <stop style="stop-color:#358cc3" offset="0"/>
   <stop style="stop-color:#3181b4" offset="1"/>
  </linearGradient>
 </defs>
 <path d="m1 43v0.25c0 2.216 1.784 4 4 4h38c2.216 0 4-1.784 4-4v-0.25c0 2.216-1.784 4-4 4h-38c-2.216 0-4-1.784-4-4zm0 0.5v0.5c0 2.216 1.784 4 4 4h38c2.216 0 4-1.784 4-4v-0.5c0 2.216-1.784 4-4 4h-38c-2.216 0-4-1.784-4-4z" style="opacity:.02"/>
 <path d="m1 43.25v0.25c0 2.216 1.784 4 4 4h38c2.216 0 4-1.784 4-4v-0.25c0 2.216-1.784 4-4 4h-38c-2.216 0-4-1.784-4-4z" style="opacity:.05"/>
 <path d="m1 43v0.25c0 2.216 1.784 4 4 4h38c2.216 0 4-1.784 4-4v-0.25c0 2.216-1.784 4-4 4h-38c-2.216 0-4-1.784-4-4z" style="opacity:.1"/>
 <rect x="1" y="1" width="46" height="46" rx="4" style="fill:url(#bg)"/>
 <path d="m1 39v4c0 2.216 1.784 4 4 4h38c2.216 0 4-1.784 4-4v-4c0 2.216-1.784 4-4 4h-38c-2.216 0-4-1.784-4-4z" style="opacity:.1"/>
 <path d="m21 13-11 20h28l-7-14-3.1211 5.4629z" style="opacity:.1;paint-order:normal"/>
 <path d="m32.822 21.645-4.2402 0.58594-5.582 9.7695h15z" style="fill:#484848;paint-order:normal"/>
 <path d="m16.387 20.387-6.3867 11.613h23l-6.5996-11z" style="fill:#525252;paint-order:normal"/>
 <path d="m31 18-2.418 4.2305 1.918 1.7695 2.3223-2.3555z" style="fill:#f0f0f0;paint-order:normal"/>
 <path d="m21 12-4.6133 8.3867 3.6133 3.6133 3-3h3.4004z" style="fill:#f9f9f9;paint-order:normal"/>
</svg>
