<svg version="1.1" viewBox="0 0 48 48" xmlns="http://www.w3.org/2000/svg">
 <defs>
  <linearGradient id="bg" x1="-47" x2="-1" gradientTransform="translate(0)" gradientUnits="userSpaceOnUse">
   <stop style="stop-color:#489ff6" offset="0"/>
   <stop style="stop-color:#5aa8f7" offset="1"/>
  </linearGradient>
 </defs>
 <path d="m1 43v0.25c0 2.22 1.78 4 4 4h38c2.22 0 4-1.78 4-4v-0.25c0 2.22-1.78 4-4 4h-38c-2.22 0-4-1.78-4-4zm0 0.5v0.5c0 2.22 1.78 4 4 4h38c2.22 0 4-1.78 4-4v-0.5c0 2.22-1.78 4-4 4h-38c-2.22 0-4-1.78-4-4z" style="opacity:.02"/>
 <path d="m1 43.2v0.25c0 2.22 1.78 4 4 4h38c2.22 0 4-1.78 4-4v-0.25c0 2.22-1.78 4-4 4h-38c-2.22 0-4-1.78-4-4z" style="opacity:.05"/>
 <path d="m1 43v0.25c0 2.22 1.78 4 4 4h38c2.22 0 4-1.78 4-4v-0.25c0 2.22-1.78 4-4 4h-38c-2.22 0-4-1.78-4-4z" style="opacity:.1"/>
 <rect transform="rotate(-90)" x="-47" y="1" width="46" height="46" rx="4" style="fill:url(#bg)"/>
 <path d="m1 39v4c0 2.22 1.78 4 4 4h38c2.22 0 4-1.78 4-4v-4c0 2.22-1.78 4-4 4h-38c-2.22 0-4-1.78-4-4z" style="opacity:.1"/>
 <path d="m17 17c-4 0-7 3.5-7 7s3 7 7 7c3.5 0 5.57-2.29 7-5.19 1.43 2.9 3.5 5.19 7 5.19 4 0 7-3.5 7-7s-3-7-7-7c-3.5 0-5.57 2.29-7 5.19-1.43-2.9-3.5-5.19-7-5.19zm0 2c3 0 4.52 2.65 5.81 5-1.29 2.35-2.81 5-5.81 5s-5-2.5-5-5 2-5 5-5zm14 0c3 0 5 2.5 5 5s-2 5-5 5-4.52-2.65-5.81-5c1.29-2.35 2.81-5 5.81-5zm-3 4v2h2v2h2v-2h2v-2zm-14 0v2h6v-2z" style="opacity:.1"/>
 <path d="m17 16c-4 0-7 3.5-7 7s3 7 7 7c3.5 0 5.57-2.29 7-5.19 1.43 2.9 3.5 5.19 7 5.19 4 0 7-3.5 7-7s-3-7-7-7c-3.5 0-5.57 2.29-7 5.19-1.43-2.9-3.5-5.19-7-5.19zm0 2c3 0 4.52 2.65 5.81 5-1.29 2.35-2.81 5-5.81 5s-5-2.5-5-5 2-5 5-5zm14 0c3 0 5 2.5 5 5s-2 5-5 5-4.52-2.65-5.81-5c1.29-2.35 2.81-5 5.81-5zm-1 2v2h-2v2h2v2h2v-2h2v-2h-2v-2zm-16 2v2h6v-2z" style="fill:#f9f9f9"/>
</svg>
