<?xml version="1.0" encoding="UTF-8" standalone="no"?>
<!-- Created with Inkscape (http://www.inkscape.org/) -->
<svg id="svg4340" xmlns:rdf="http://www.w3.org/1999/02/22-rdf-syntax-ns#" xmlns="http://www.w3.org/2000/svg" height="48" viewBox="0 0 48 48.000001" width="48" version="1.1" xmlns:cc="http://creativecommons.org/ns#" xmlns:xlink="http://www.w3.org/1999/xlink" xmlns:dc="http://purl.org/dc/elements/1.1/">
 <defs id="defs4342">
  <linearGradient id="linearGradient4217" y2="24" gradientUnits="userSpaceOnUse" x2="-1" gradientTransform="translate(-.071909 -.071909)" y1="24" x1="-47">
   <stop id="stop7-7" style="stop-color:#3d3d3d" offset="0"/>
   <stop id="stop9-5" style="stop-color:#474747" offset="1"/>
  </linearGradient>
 </defs>
 <metadata id="metadata4345">
  <rdf:RDF>
   <cc:Work rdf:about="">
    <dc:format>image/svg+xml</dc:format>
    <dc:type rdf:resource="http://purl.org/dc/dcmitype/StillImage"/>
    <dc:title/>
   </cc:Work>
  </rdf:RDF>
 </metadata>
 <g id="g21">
  <path id="path23" style="opacity:.02" d="m1 43v0.25c0 2.216 1.784 4 4 4h38c2.216 0 4-1.784 4-4v-0.25c0 2.216-1.784 4-4 4h-38c-2.216 0-4-1.784-4-4zm0 0.5v0.5c0 2.216 1.784 4 4 4h38c2.216 0 4-1.784 4-4v-0.5c0 2.216-1.784 4-4 4h-38c-2.216 0-4-1.784-4-4z"/>
  <path id="path25" style="opacity:.05" d="m1 43.25v0.25c0 2.216 1.784 4 4 4h38c2.216 0 4-1.784 4-4v-0.25c0 2.216-1.784 4-4 4h-38c-2.216 0-4-1.784-4-4z"/>
  <path id="path27" style="opacity:.1" d="m1 43v0.25c0 2.216 1.784 4 4 4h38c2.216 0 4-1.784 4-4v-0.25c0 2.216-1.784 4-4 4h-38c-2.216 0-4-1.784-4-4z"/>
 </g>
 <rect id="rect4215" style="fill:url(#linearGradient4217)" rx="4" transform="rotate(-90)" height="46" width="46" y=".92809" x="-47.072"/>
 <g id="g57">
  <g id="g59" transform="translate(0,-1004.4)">
   <path id="path61" style="opacity:.1" d="m1 1043.4v4c0 2.216 1.784 4 4 4h38c2.216 0 4-1.784 4-4v-4c0 2.216-1.784 4-4 4h-38c-2.216 0-4-1.784-4-4z"/>
  </g>
 </g>
 <path id="path27-3" style="opacity:.1" d="m25.001 13c5 0 12 1.433 12 7v13h-10v-5.5s-2.689 0.765-4.05 1.5c-1.95 1.054-2.681 2-0.531 4h-9.07c-1.18 0-2.35-1.166-2.35-3 0-4.507 3.747-5.595 7.3-6.3 2.864-0.569 7.05-0.992 7.85-1.45 1.795-1.025 0.663-3.25-1.15-3.25-3 0-4 0.63-4 3h-9c0-6.656 7-9 13-9z"/>
 <path id="path29" style="fill:#f05d30" d="m25.001 12c5 0 12 1.433 12 7v13h-10v-5.5s-2.689 0.765-4.05 1.5c-1.95 1.054-2.681 2-0.531 4h-9.07c-1.18 0-2.35-1.166-2.35-3 0-4.507 3.747-5.595 7.3-6.3 2.864-0.569 7.05-0.992 7.85-1.45 1.795-1.025 0.663-3.25-1.15-3.25-3 0-4 0.63-4 3h-9c0-6.656 7-9 13-9z"/>
</svg>
