<?xml version="1.0" encoding="UTF-8"?>
<svg version="1.1" viewBox="0 0 48 48" xmlns="http://www.w3.org/2000/svg">
 <defs>
  <linearGradient id="bg" x2="0" y1="1" y2="47" gradientUnits="userSpaceOnUse">
   <stop style="stop-color:#28a5d7" offset="0"/>
   <stop style="stop-color:#2599c7" offset="1"/>
  </linearGradient>
 </defs>
 <path d="m1 43v0.25c0 2.22 1.78 4 4 4h38c2.22 0 4-1.78 4-4v-0.25c0 2.22-1.78 4-4 4h-38c-2.22 0-4-1.78-4-4zm0 0.5v0.5c0 2.22 1.78 4 4 4h38c2.22 0 4-1.78 4-4v-0.5c0 2.22-1.78 4-4 4h-38c-2.22 0-4-1.78-4-4z" style="opacity:.02"/>
 <path d="m1 43.2v0.25c0 2.22 1.78 4 4 4h38c2.22 0 4-1.78 4-4v-0.25c0 2.22-1.78 4-4 4h-38c-2.22 0-4-1.78-4-4z" style="opacity:.05"/>
 <path d="m1 43v0.25c0 2.22 1.78 4 4 4h38c2.22 0 4-1.78 4-4v-0.25c0 2.22-1.78 4-4 4h-38c-2.22 0-4-1.78-4-4z" style="opacity:.1"/>
 <rect x="1" y="1" width="46" height="46" rx="4" style="fill:url(#bg)"/>
 <path d="m1 39v4c0 2.22 1.78 4 4 4h38c2.22 0 4-1.78 4-4v-4c0 2.22-1.78 4-4 4h-38c-2.22 0-4-1.78-4-4z" style="opacity:.1"/>
 <path d="m24 12a11 11 0 0 0-11 11 11 11 0 0 0 11 11h1a3 3 0 0 0 3-3 3 3 0 0 0-3-3h-1a5 5 0 0 1-5-5 5 5 0 0 1 5-5 5 5 0 0 1 5 5v10a3 3 0 0 0 3 3 3 3 0 0 0 3-3v-10a11 11 0 0 0-11-11z" style="opacity:.1"/>
 <path d="m24 11a11 11 0 0 0-11 11 11 11 0 0 0 11 11h1a3 3 0 0 0 3-3 3 3 0 0 0-3-3h-1a5 5 0 0 1-5-5 5 5 0 0 1 5-5 5 5 0 0 1 5 5v10a3 3 0 0 0 3 3 3 3 0 0 0 3-3v-10a11 11 0 0 0-11-11z" style="fill:#f9f9f9"/>
</svg>
