<?xml version="1.0" encoding="UTF-8"?>
<svg width="48" height="48" version="1.1" viewBox="0 0 48 48.000001" xmlns="http://www.w3.org/2000/svg" xmlns:cc="http://creativecommons.org/ns#" xmlns:dc="http://purl.org/dc/elements/1.1/" xmlns:rdf="http://www.w3.org/1999/02/22-rdf-syntax-ns#">
 <defs>
  <linearGradient id="linearGradient4217" x1="-47" x2="-1" y1="24" y2="24" gradientTransform="translate(-.071909 -.071909)" gradientUnits="userSpaceOnUse">
   <stop stop-color="#1093e6" offset="0"/>
   <stop stop-color="#1b9def" offset="1"/>
  </linearGradient>
 </defs>
 <metadata>
  <rdf:RDF>
   <cc:Work rdf:about="">
    <dc:format>image/svg+xml</dc:format>
    <dc:type rdf:resource="http://purl.org/dc/dcmitype/StillImage"/>
    <dc:title/>
   </cc:Work>
  </rdf:RDF>
 </metadata>
 <path d="m1 43v0.25c0 2.216 1.784 4 4 4h38c2.216 0 4-1.784 4-4v-0.25c0 2.216-1.784 4-4 4h-38c-2.216 0-4-1.784-4-4zm0 0.5v0.5c0 2.216 1.784 4 4 4h38c2.216 0 4-1.784 4-4v-0.5c0 2.216-1.784 4-4 4h-38c-2.216 0-4-1.784-4-4z" opacity=".02"/>
 <path d="m1 43.25v0.25c0 2.216 1.784 4 4 4h38c2.216 0 4-1.784 4-4v-0.25c0 2.216-1.784 4-4 4h-38c-2.216 0-4-1.784-4-4z" opacity=".05"/>
 <path d="m1 43v0.25c0 2.216 1.784 4 4 4h38c2.216 0 4-1.784 4-4v-0.25c0 2.216-1.784 4-4 4h-38c-2.216 0-4-1.784-4-4z" opacity=".1"/>
 <rect transform="rotate(-90)" x="-47.072" y=".92809" width="46" height="46" rx="4" fill="url(#linearGradient4217)"/>
 <g transform="translate(0,-1004.4)">
  <path d="m1 1043.4v4c0 2.216 1.784 4 4 4h38c2.216 0 4-1.784 4-4v-4c0 2.216-1.784 4-4 4h-38c-2.216 0-4-1.784-4-4z" opacity=".1"/>
 </g>
 <path d="m11 18v12h1v-5h2v5h1v-12zm6 0v6h3v5h-3v1h4v-7h-3v-4h3v-1zm6 0v12h4v-1h-3v-10h3v-1zm6 0v1h1v10h-1v1h3v-1h-1v-10h1v-1zm5 0v1h1v10h-1v1h3v-1h-1v-10h1v-1zm-22 1h2v5h-2z" fill-rule="evenodd" opacity=".1"/>
 <path d="m11 17v12h1v-5h2v5h1v-12zm6 0v6h3v5h-3v1h4v-7h-3v-4h3v-1zm6 0v12h4v-1h-3v-10h3v-1zm6 0v1h1v10h-1v1h3v-1h-1v-10h1v-1zm5 0v1h1v10h-1v1h3v-1h-1v-10h1v-1zm-22 1h2v5h-2z" fill="#f9f9f9" fill-rule="evenodd"/>
</svg>
