<?xml version="1.0" encoding="UTF-8" standalone="no"?>
<!-- Created with Inkscape (http://www.inkscape.org/) -->
<svg id="svg4340" xmlns:rdf="http://www.w3.org/1999/02/22-rdf-syntax-ns#" xmlns="http://www.w3.org/2000/svg" height="48" viewBox="0 0 48 48.000001" width="48" version="1.1" xmlns:cc="http://creativecommons.org/ns#" xmlns:xlink="http://www.w3.org/1999/xlink" xmlns:dc="http://purl.org/dc/elements/1.1/">
 <defs id="defs4342">
  <linearGradient id="linearGradient4231" y2="1" gradientUnits="userSpaceOnUse" y1="47" gradientTransform="translate(-48 .00221)" x2="47" x1="1">
   <stop id="stop7-56" style="stop-color:#c7cfc1" offset="0"/>
   <stop id="stop9-2" style="stop-color:#d1d8cc" offset="1"/>
  </linearGradient>
 </defs>
 <metadata id="metadata4345">
  <rdf:RDF>
   <cc:Work rdf:about="">
    <dc:format>image/svg+xml</dc:format>
    <dc:type rdf:resource="http://purl.org/dc/dcmitype/StillImage"/>
    <dc:title/>
   </cc:Work>
  </rdf:RDF>
 </metadata>
 <g id="g21">
  <path id="path23" style="opacity:0.02" d="m1 43v0.25c0 2.216 1.784 4 4 4h38c2.216 0 4-1.784 4-4v-0.25c0 2.216-1.784 4-4 4h-38c-2.216 0-4-1.784-4-4zm0 0.5v0.5c0 2.216 1.784 4 4 4h38c2.216 0 4-1.784 4-4v-0.5c0 2.216-1.784 4-4 4h-38c-2.216 0-4-1.784-4-4z"/>
  <path id="path25" style="opacity:.05" d="m1 43.25v0.25c0 2.216 1.784 4 4 4h38c2.216 0 4-1.784 4-4v-0.25c0 2.216-1.784 4-4 4h-38c-2.216 0-4-1.784-4-4z"/>
  <path id="path27" style="opacity:.1" d="m1 43v0.25c0 2.216 1.784 4 4 4h38c2.216 0 4-1.784 4-4v-0.25c0 2.216-1.784 4-4 4h-38c-2.216 0-4-1.784-4-4z"/>
 </g>
 <rect id="rect4229" style="fill:url(#linearGradient4231)" rx="4" transform="rotate(-90)" height="46" width="46" y="1" x="-47"/>
 <g id="g57">
  <g id="g59" transform="translate(0,-1004.4)">
   <path id="path61" style="opacity:.1" d="m1 1043.4v4c0 2.216 1.784 4 4 4h38c2.216 0 4-1.784 4-4v-4c0 2.216-1.784 4-4 4h-38c-2.216 0-4-1.784-4-4z"/>
  </g>
 </g>
 <g id="g27" style="opacity:.1" transform="translate(1.8811 -1.8811)">
  <path id="path29" d="m28.28 12.881s-3.732 0.648-5.467 1.367c-3.682 1.525-10.251 6.151-10.251 6.151s-3.112 1.835-3.417 3.417c-0.328 1.704 2.05 4.784 2.05 4.784l4.784-2.05 0.683 0.683s-0.966 3.134 0 4.1 4.1 0 4.1 0l0.683 0.683-2.05 4.784s3.08 2.378 4.784 2.05c1.582-0.305 3.417-3.417 3.417-3.417s4.626-6.569 6.151-10.251c0.719-1.735 1.367-5.467 1.367-5.467s-8.03 10.934-10.934 10.934c-2.899 0-1.367-1.367-1.367-1.367s1.133-1.742 1.367-2.734c0.209-0.887 0.509-2.224 0-2.734-0.509-0.509-1.847-0.209-2.734 0-0.991 0.234-2.734 1.367-2.734 1.367s-1.367 1.533-1.367-1.367c0-2.899 10.934-10.934 10.934-10.934z"/>
 </g>
 <g id="g31" transform="translate(1.8811 -2.8811)">
  <path id="path33" style="fill:#535d6c" d="m28.28 12.881s-3.732 0.648-5.467 1.367c-3.682 1.525-10.251 6.151-10.251 6.151s-3.112 1.835-3.417 3.417c-0.328 1.704 2.05 4.784 2.05 4.784l4.784-2.05 0.683 0.683s-0.966 3.134 0 4.1 4.1 0 4.1 0l0.683 0.683-2.05 4.784s3.08 2.378 4.784 2.05c1.582-0.305 3.417-3.417 3.417-3.417s4.626-6.569 6.151-10.251c0.719-1.735 1.367-5.467 1.367-5.467s-8.03 10.934-10.934 10.934c-2.899 0-1.367-1.367-1.367-1.367s1.133-1.742 1.367-2.734c0.209-0.887 0.509-2.224 0-2.734-0.509-0.509-1.847-0.209-2.734 0-0.991 0.234-2.734 1.367-2.734 1.367s-1.367 1.533-1.367-1.367c0-2.899 10.934-10.934 10.934-10.934z"/>
  <path id="path35" style="fill:#acf" d="m20.08 25.18c-1.233 0.411-0.644 2.089 0 2.734 0.644 0.644 2.317 1.251 2.734 0l0.683-2.05s0.322-1.045 0-1.367-1.367 0-1.367 0z"/>
 </g>
</svg>
