<svg version="1.1" viewBox="0 0 48 48" xmlns="http://www.w3.org/2000/svg">
 <defs>
  <linearGradient id="bg" x2="0" y1="1" y2="47" gradientUnits="userSpaceOnUse">
   <stop style="stop-color:#606060" offset="0"/>
   <stop style="stop-color:#565656" offset="1"/>
  </linearGradient>
 </defs>
 <path d="m1 43v0.25c0 2.216 1.784 4 4 4h38c2.216 0 4-1.784 4-4v-0.25c0 2.216-1.784 4-4 4h-38c-2.216 0-4-1.784-4-4zm0 0.5v0.5c0 2.216 1.784 4 4 4h38c2.216 0 4-1.784 4-4v-0.5c0 2.216-1.784 4-4 4h-38c-2.216 0-4-1.784-4-4z" style="opacity:.02"/>
 <path d="m1 43.25v0.25c0 2.216 1.784 4 4 4h38c2.216 0 4-1.784 4-4v-0.25c0 2.216-1.784 4-4 4h-38c-2.216 0-4-1.784-4-4z" style="opacity:.05"/>
 <path d="m1 43v0.25c0 2.216 1.784 4 4 4h38c2.216 0 4-1.784 4-4v-0.25c0 2.216-1.784 4-4 4h-38c-2.216 0-4-1.784-4-4z" style="opacity:.1"/>
 <rect x="1" y="1" width="46" height="46" rx="4" style="fill:url(#bg)"/>
 <path d="m1 39v4c0 2.216 1.784 4 4 4h38c2.216 0 4-1.784 4-4v-4c0 2.216-1.784 4-4 4h-38c-2.216 0-4-1.784-4-4z" style="opacity:.1"/>
 <path d="m24 10-3 2.5 1 9.5c0.05799 0.5509 0.446 1 1 1h2c0.554 0 0.94201-0.4491 1-1l1-9.5zm-3.459 7.6914c-1.9883 0.891-3.3102 2.6503-3.541 5.3086 0-9e-4 -2.0053 10.961-2 11l6 2 1-7-4-2 1-2.5 4 2v4.5l1 1 1-1v-4.5l4-2 1 2.5-4 2 1 7 6-2c0.0053-0.039-2-11.001-2-11-0.2308-2.6583-1.5527-4.4176-3.541-5.3086l-0.46484 4.4121c-0.10068 0.9565-0.89971 1.8965-1.9941 1.8965h-2c-1.0944 0-1.8935-0.93998-1.9941-1.8965z" style="opacity:.1;paint-order:normal"/>
 <path d="m20.541 16.691c-1.9883 0.891-3.3102 2.6503-3.541 5.3086 0-9e-4 -2.0053 10.961-2 11l6 2 1-7-4-2 1-2.5 4 2v4.5l1 1 1-1v-4.5l4-2 1 2.5-4 2 1 7 6-2c0.0053-0.039-2-11.001-2-11-0.2308-2.6583-1.5527-4.4176-3.541-5.3086l-0.46484 4.4121c-0.10068 0.9565-0.89971 1.8965-1.9941 1.8965h-2c-1.0944 0-1.8935-0.94-1.9941-1.8965z" style="fill:#f6d75e;paint-order:normal"/>
 <path d="m24 8.9991 3 2.5-1 9.5c-0.05799 0.5509-0.446 1-1 1h-2c-0.554 0-0.94201-0.4491-1-1l-1-9.5z" style="fill:#f75d5d;paint-order:normal"/>
</svg>
