<svg width="48" height="48" version="1.1" viewBox="0 0 48 48" xmlns="http://www.w3.org/2000/svg">
 <defs>
  <linearGradient id="bg" x1="1" x2="47" y1="-.00221" y2="-.00221" gradientTransform="translate(-48 .00221)" gradientUnits="userSpaceOnUse">
   <stop style="stop-color:#404338" offset="0"/>
   <stop style="stop-color:#4a4e41" offset="1"/>
  </linearGradient>
 </defs>
 <path d="m1 43v0.25c0 2.216 1.784 4 4 4h38c2.216 0 4-1.784 4-4v-0.25c0 2.216-1.784 4-4 4h-38c-2.216 0-4-1.784-4-4zm0 0.5v0.5c0 2.216 1.784 4 4 4h38c2.216 0 4-1.784 4-4v-0.5c0 2.216-1.784 4-4 4h-38c-2.216 0-4-1.784-4-4z" style="opacity:.02"/>
 <path d="m1 43.25v0.25c0 2.216 1.784 4 4 4h38c2.216 0 4-1.784 4-4v-0.25c0 2.216-1.784 4-4 4h-38c-2.216 0-4-1.784-4-4z" style="opacity:.05"/>
 <path d="m1 43v0.25c0 2.216 1.784 4 4 4h38c2.216 0 4-1.784 4-4v-0.25c0 2.216-1.784 4-4 4h-38c-2.216 0-4-1.784-4-4z" style="opacity:.1"/>
 <rect transform="rotate(-90)" x="-47" y="1" width="46" height="46" rx="4" style="fill:url(#bg)"/>
 <g transform="translate(0,-1004.4)">
  <path d="m1 1043.4v4c0 2.216 1.784 4 4 4h38c2.216 0 4-1.784 4-4v-4c0 2.216-1.784 4-4 4h-38c-2.216 0-4-1.784-4-4z" style="opacity:.1"/>
 </g>
 <g transform="matrix(.99923 0 0 1.0001 .019193 -.0039763)" style="fill-opacity:.118">
  <path d="m37.601 29.396c0.013-0.238 0.011-0.475-2e-3 -0.711-0.017-0.314-0.044-0.631-0.094-0.938-0.2-1.222-0.752-2.485-1.563-3.75-0.012-0.019-0.019-0.043-0.031-0.063 0.783-1.245 1.274-2.486 1.469-3.689 0.198-1.222 0.218-2.552-0.469-3.75s-1.819-1.841-2.969-2.279c-1.142-0.435-2.492-0.629-3.969-0.564-0.69-1.334-1.541-2.435-2.5-3.219s-2.087-1.438-3.471-1.438-2.51 0.654-3.469 1.438-1.81 1.885-2.5 3.219h-0.031c-1.501-0.069-2.842 0.125-4 0.564-1.158 0.438-2.308 1.081-3 2.279s-0.7 2.528-0.5 3.75 0.753 2.485 1.564 3.75c0.012 0.019 0.019 0.044 0.031 0.064-0.783 1.245-1.276 2.485-1.471 3.688-0.198 1.222-0.216 2.552 0.471 3.75s1.819 1.843 2.969 2.281c1.142 0.435 2.492 0.627 3.969 0.563 0.69 1.334 1.541 2.435 2.5 3.219s2.085 1.439 3.469 1.439 2.51-0.655 3.469-1.439 1.81-1.885 2.5-3.219h0.031c1.501 0.069 2.842-0.123 4-0.563 1.158-0.438 2.308-1.083 3-2.281 0.389-0.674 0.557-1.388 0.596-2.102zm-1.156-0.211h-2e-3c-0.017 0.701-0.242 1.272-0.5 1.719-0.344 0.596-0.896 1.214-1.906 1.596-0.995 0.376-2.081 0.618-3.5 0.563 0.546-1.387 0.95-2.97 1.189-4.687 1.333-1.059 2.473-2.157 3.375-3.314 0.784 1.223 1.107 2.309 1.281 3.375 0.044 0.266 0.067 0.516 0.063 0.75zm-0.096-10.374v2e-3c6e-3 0.233 0.012 0.483-0.031 0.748-0.167 1.03-0.526 2.077-1.25 3.25-0.907-1.129-2.023-2.216-3.344-3.25-0.239-1.694-0.648-3.254-1.188-4.624 1.391-0.051 2.457 0.19 3.438 0.564 1 0.382 1.565 0.998 1.906 1.594 0.256 0.447 0.45 1.017 0.469 1.717zm-2.063 5.124c-0.667 0.868-1.45 1.733-2.375 2.564 0.06-0.815 0.094-1.646 0.094-2.5 0-0.876-0.031-1.729-0.094-2.564 0.915 0.81 1.706 1.652 2.375 2.5zm-3.594 0.064c0 1.277-0.07 2.511-0.219 3.688-0.963 0.743-2.02 1.465-3.156 2.125-1.112 0.647-2.215 1.193-3.314 1.656-1.11-0.464-2.22-1.01-3.344-1.656-1.125-0.65-2.168-1.364-3.125-2.094-0.151-1.185-0.219-2.43-0.219-3.719 0-1.277 0.07-2.513 0.219-3.689 0.963-0.743 2.02-1.465 3.156-2.125 1.112-0.647 2.214-1.193 3.313-1.656 1.11 0.464 2.222 1.01 3.346 1.656 1.125 0.65 2.168 1.364 3.125 2.094 0.151 1.185 0.219 2.432 0.219 3.721zm-0.531-5.595c-0.681-0.463-1.41-0.913-2.156-1.344-0.751-0.433-1.504-0.828-2.25-1.188 1.182-0.395 2.321-0.663 3.406-0.813 0.41 1.012 0.75 2.129 1 3.344zm0 11.124c-0.251 1.237-0.583 2.378-1 3.406-1.085-0.153-2.226-0.419-3.406-0.813 0.741-0.36 1.473-0.754 2.219-1.188 0.765-0.445 1.491-0.927 2.188-1.406zm-1.531 4.655c-0.664 1.275-1.451 2.071-2.281 2.75-0.836 0.684-1.656 0.875-2.344 0.875s-1.508-0.191-2.344-0.875c-0.827-0.676-1.588-1.483-2.25-2.75 1.457-0.216 3.01-0.666 4.594-1.313 1.601 0.645 3.157 1.096 4.625 1.313zm-0.031-20.372c-1.457 0.216-3.01 0.668-4.594 1.314-1.601-0.645-3.157-1.098-4.625-1.314 0.664-1.275 1.451-2.071 2.281-2.75 0.836-0.684 1.656-0.875 2.344-0.875s1.508 0.191 2.344 0.875c0.827 0.676 1.588 1.483 2.25 2.75zm-0.594 10.187a4 3.999 0 0 0-4-3.999 4 3.999 0 0 0-4 3.999 4 3.999 0 0 0 4 3.999 4 3.999 0 0 0 4-3.999zm-5.75 8.126c-1.182 0.395-2.321 0.663-3.406 0.813-0.41-1.012-0.75-2.129-1-3.344 0.681 0.463 1.41 0.913 2.156 1.344 0.751 0.433 1.504 0.828 2.25 1.188zm-2e-3 -16.248c-0.74 0.36-1.471 0.754-2.217 1.188-0.765 0.445-1.491 0.927-2.188 1.406 0.251-1.237 0.583-2.378 1-3.406 1.085 0.153 2.224 0.418 3.404 0.813zm-4.779-0.939c-0.546 1.387-0.949 2.971-1.188 4.688-1.333 1.059-2.473 2.156-3.375 3.313-0.784-1.223-1.107-2.309-1.281-3.375s0.093-1.873 0.438-2.469c0.344-0.596 0.896-1.212 1.906-1.594 0.995-0.376 2.081-0.62 3.5-0.564zm0 18.13v2e-3c-1.391 0.051-2.458-0.188-3.438-0.563-1-0.382-1.565-1-1.906-1.596s-0.609-1.403-0.438-2.469c0.167-1.03 0.526-2.077 1.25-3.25 0.907 1.129 2.023 2.216 3.344 3.25 0.239 1.694 0.648 3.254 1.188 4.624zm-1.375-11.56c-0.06 0.815-0.094 1.646-0.094 2.5 0 0.876 0.031 1.727 0.094 2.563-0.915-0.81-1.706-1.652-2.375-2.5 0.667-0.868 1.45-1.732 2.375-2.563z" style="color:#000000"/>
 </g>
 <path d="m31.999 22.999c0-4.03-0.65996-7.684-2.0399-10.352-0.68996-1.334-1.5189-2.423-2.4779-3.207-0.95894-0.784-2.0989-1.441-3.4818-1.441s-2.5228 0.657-3.4818 1.441c-0.95894 0.784-1.7879 1.873-2.4779 3.207-1.3799 2.668-2.0399 6.322-2.0399 10.352s0.65996 7.684 2.0399 10.352c0.68996 1.334 1.5189 2.423 2.4779 3.207 0.95894 0.784 2.0989 1.441 3.4818 1.441s2.5228-0.657 3.4818-1.441c0.95894-0.784 1.7879-1.873 2.4779-3.207 1.3799-2.668 2.0399-6.322 2.0399-10.352zm-1.2999 0c0 3.978-0.74496 7.564-2.0789 10.143-0.66696 1.29-1.4409 2.123-2.2769 2.807-0.83595 0.684-1.6559 0.85-2.3439 0.85s-1.5079-0.166-2.3439-0.85c-0.83595-0.684-1.6099-1.517-2.2769-2.807-1.3339-2.58-2.0789-6.165-2.0789-10.143s0.74496-7.563 2.0789-10.143c0.66696-1.29 1.4409-2.124 2.2769-2.807 0.83595-0.684 1.6559-0.85 2.3439-0.85s1.5079 0.166 2.3439 0.85c0.83595 0.684 1.6099 1.517 2.2769 2.807 1.3339 2.58 2.0789 6.165 2.0789 10.143z" style="fill:#ccf24e"/>
 <path d="m27.999 29.928c3.4898-2.02 6.3236-4.414 7.9435-6.943 0.80995-1.265 1.3389-2.527 1.5379-3.75s0.19799-2.539-0.49297-3.736c-0.69096-1.198-1.8299-1.857-2.9888-2.295-1.1579-0.439-2.5158-0.612-4.0198-0.543-2.9998 0.139-6.4936 1.394-9.9834 3.409-3.4898 2.02-6.3236 4.414-7.9435 6.943-0.80995 1.265-1.3389 2.527-1.5379 3.75s-0.19799 2.539 0.49297 3.736c0.69096 1.198 1.8299 1.857 2.9888 2.295 1.1579 0.439 2.5158 0.612 4.0198 0.543 2.9998-0.139 6.4936-1.394 9.9834-3.409m-0.64996-1.126c-3.4448 1.989-6.9216 3.137-9.8214 3.271-1.4509 0.067-2.5588-0.187-3.5688-0.569-1.0099-0.382-1.5639-1.01-1.9079-1.605-0.34398-0.596-0.60996-1.389-0.43597-2.455s0.50897-2.153 1.2919-3.376c1.5669-2.445 4.2987-4.883 7.7425-6.872 3.4448-1.989 6.9206-3.136 9.8214-3.271 1.4509-0.067 2.5598 0.186 3.5688 0.569 1.0099 0.382 1.5639 1.01 1.9079 1.605 0.34398 0.596 0.60996 1.389 0.43597 2.455s-0.50897 2.153-1.2919 3.376c-1.5669 2.445-4.2987 4.883-7.7425 6.872z" style="fill:#ccf24e"/>
 <path d="m20 29.928c3.4898 2.01 6.9836 3.27 9.9834 3.409 1.4999 0.069 2.8578-0.104 4.0198-0.543 1.1579-0.439 2.2969-1.098 2.9888-2.295 0.69196-1.198 0.69296-2.514 0.49297-3.736-0.19899-1.223-0.72796-2.485-1.5379-3.75-1.6199-2.529-4.4537-4.928-7.9435-6.943-3.4898-2.02-6.9836-3.27-9.9834-3.409-1.4999-0.069-2.8578 0.104-4.0198 0.543-1.1579 0.439-2.2969 1.098-2.9888 2.295-0.69096 1.198-0.69296 2.514-0.49297 3.736 0.19899 1.223 0.72796 2.485 1.5379 3.75 1.6199 2.529 4.4537 4.928 7.9435 6.943m0.64996-1.126c-3.4448-1.989-6.1766-4.427-7.7425-6.872-0.78395-1.223-1.1179-2.31-1.2919-3.376-0.17399-1.066 0.092-1.859 0.43597-2.455 0.34398-0.596 0.89795-1.223 1.9079-1.605 1.0099-0.382 2.1189-0.636 3.5688-0.569 2.9008 0.135 6.3776 1.282 9.8214 3.271 3.4448 1.989 6.1756 4.427 7.7425 6.872 0.78395 1.223 1.1189 2.31 1.2919 3.376 0.17399 1.066-0.09199 1.859-0.43597 2.455s-0.89795 1.223-1.9079 1.605c-1.0099 0.382-2.1189 0.636-3.5688 0.569-2.9008-0.135-6.3776-1.282-9.8214-3.271z" style="fill:#ccf24e"/>
 <circle cx="24" cy="22.999" r="4" style="fill:#d2ef71"/>
</svg>
