<svg version="1.1" viewBox="0 0 48 48" xmlns="http://www.w3.org/2000/svg">
 <defs>
  <linearGradient id="bg" x1="1" x2="47" y1="0" y2="0" gradientTransform="translate(-48)" gradientUnits="userSpaceOnUse">
   <stop style="stop-color:#ec9dcf" offset="0"/>
   <stop style="stop-color:#efaed7" offset="1"/>
  </linearGradient>
 </defs>
 <path d="m1 43v0.25c0 2.22 1.78 4 4 4h38c2.22 0 4-1.78 4-4v-0.25c0 2.22-1.78 4-4 4h-38c-2.22 0-4-1.78-4-4zm0 0.5v0.5c0 2.22 1.78 4 4 4h38c2.22 0 4-1.78 4-4v-0.5c0 2.22-1.78 4-4 4h-38c-2.22 0-4-1.78-4-4z" style="opacity:.02"/>
 <path d="m1 43.2v0.25c0 2.22 1.78 4 4 4h38c2.22 0 4-1.78 4-4v-0.25c0 2.22-1.78 4-4 4h-38c-2.22 0-4-1.78-4-4z" style="opacity:.05"/>
 <path d="m1 43v0.25c0 2.22 1.78 4 4 4h38c2.22 0 4-1.78 4-4v-0.25c0 2.22-1.78 4-4 4h-38c-2.22 0-4-1.78-4-4z" style="opacity:.1"/>
 <rect transform="rotate(-90)" x="-47" y="1" width="46" height="46" rx="4" style="fill:url(#bg)"/>
 <path d="m1 39v4c0 2.22 1.78 4 4 4h38c2.22 0 4-1.78 4-4v-4c0 2.22-1.78 4-4 4h-38c-2.22 0-4-1.78-4-4z" style="opacity:.1"/>
 <path d="m24 11c-4.99 0-9 4.01-9 9v0.303c-2.96 0.883-5 3.61-5 6.7 0 3.87 3.13 7 7 7v-4.31l0.875 3.84 0.875-1.73 0.875 3.47 1.38-4.27 1 6 2-4 1 2 1-5 1 5 1.38-4.93 1.62 4.93 1-5v4c3.87 0 7-3.13 7-7-5.19e-4 -3.1-2.03-5.82-5-6.71v-0.293c0-4.99-4.01-9-9-9zm0 2c3.88 0 7 3.12 7 7v6l-14-1v-5c0-3.88 3.12-7 7-7z" style="opacity:.1"/>
 <path d="m16.5 26.5 1.38 6.03 0.875-1.73 0.875 3.47 1.38-4.27 1 6 2-4 1 2 1-5 1 5 1.38-4.93 1.62 4.93 1.5-7.5-1.5-5.5-0.5 3-1.5-6-0.5 3-1.75-4.07-0.75 6.07-2-7-1 6-1-5-1 7-2-5z" style="fill:#f1e955"/>
 <path d="m16.8 26.5 1.25 2.53 0.75-2.53 1.25 4.53 1-4.5 1.5 6 1.5-4.3 0.5 2.8 1.5-5 1.5 4.8 0.6-4.3 2.02 4.3 1.12-4.3-1.25-2-0.5 2-1.5-5.5-0.5 3.5-1.5-4.5-1 6-2-6-1 5-1-5-1 6-1.75-4" style="fill:#ea5a39"/>
 <path d="m24 10c-4.99 0-9 4.01-9 9v0.303c-2.96 0.883-5 3.61-5 6.7 0 3.87 3.13 7 7 7v-14c0-3.88 3.12-7 7-7s7 3.12 7 7v14c3.87 0 7-3.13 7-7-5.19e-4 -3.1-2.03-5.82-5-6.71v-0.293c0-4.99-4.01-9-9-9z" style="fill:#3d3d8f"/>
</svg>
