<?xml version="1.0" encoding="UTF-8"?>
<svg width="48" height="48" version="1.1" viewBox="0 0 48 48.000001" xmlns="http://www.w3.org/2000/svg" xmlns:cc="http://creativecommons.org/ns#" xmlns:dc="http://purl.org/dc/elements/1.1/" xmlns:rdf="http://www.w3.org/1999/02/22-rdf-syntax-ns#">
 <defs>
  <linearGradient id="linearGradient4231" x1="1" x2="47" gradientTransform="translate(-48 .00221)" gradientUnits="userSpaceOnUse">
   <stop stop-color="#e4e4e4" offset="0"/>
   <stop stop-color="#eee" offset="1"/>
  </linearGradient>
 </defs>
 <metadata>
  <rdf:RDF>
   <cc:Work rdf:about="">
    <dc:format>image/svg+xml</dc:format>
    <dc:type rdf:resource="http://purl.org/dc/dcmitype/StillImage"/>
    <dc:title/>
   </cc:Work>
  </rdf:RDF>
 </metadata>
 <path d="m1 43v0.25c0 2.216 1.784 4 4 4h38c2.216 0 4-1.784 4-4v-0.25c0 2.216-1.784 4-4 4h-38c-2.216 0-4-1.784-4-4zm0 0.5v0.5c0 2.216 1.784 4 4 4h38c2.216 0 4-1.784 4-4v-0.5c0 2.216-1.784 4-4 4h-38c-2.216 0-4-1.784-4-4z" opacity=".02"/>
 <path d="m1 43.25v0.25c0 2.216 1.784 4 4 4h38c2.216 0 4-1.784 4-4v-0.25c0 2.216-1.784 4-4 4h-38c-2.216 0-4-1.784-4-4z" opacity=".05"/>
 <path d="m1 43v0.25c0 2.216 1.784 4 4 4h38c2.216 0 4-1.784 4-4v-0.25c0 2.216-1.784 4-4 4h-38c-2.216 0-4-1.784-4-4z" opacity=".1"/>
 <rect transform="rotate(-90)" x="-47" y="1" width="46" height="46" rx="4" fill="url(#linearGradient4231)"/>
 <g transform="translate(0,-1004.4)">
  <path d="m1 1043.4v4c0 2.216 1.784 4 4 4h38c2.216 0 4-1.784 4-4v-4c0 2.216-1.784 4-4 4h-38c-2.216 0-4-1.784-4-4z" opacity=".1"/>
 </g>
 <g transform="translate(-.99988 -.99995)">
  <g transform="translate(1,1)">
   <g opacity=".1"><!-- color: #eeeeee -->
    <path transform="translate(-1,-1)" d="m28.945 13c-0.962 0.034-1.945 0.306-2.945 0.971v9.03h-7l-4 2 1.736 0.867c-2.952 1.778-4.446 4.919-3.404 7.584 1.207 3.101 5.383 4.398 9.332 2.906 3.113-1.176 5.203-3.73 5.336-6.281v-3.076h6.438s0.564-0.324 0.564-1.996c0-1.613-0.621-2-0.621-2-2.158-2e-3 -6.381-4e-3 -6.381-4e-3v-5.02c0.094-0.082 1.203-0.539 4 0 3 0 5-3 5-3-3.1 0.209-5.604-1.926-8.05-1.973z"/>
   </g>
  </g>
 </g>
 <g transform="translate(.00038962 -.99995)"><!-- color: #eeeeee -->
  <path d="m36 13.977s-2 3-5 3c-2.797-0.539-3.906-0.082-4 0v12.1c-0.133 2.551-2.223 5.105-5.336 6.281-3.949 1.492-8.125 0.195-9.332-2.906-1.211-3.098 1-6.848 4.953-8.34 3.059-1.156 5.867-0.871 7.715 0.863v-12c4-2.66 7.719 0.961 11 1" fill="#2d4c78"/>
  <path d="m17.969 22h13.773v4h-13.773m0-4" fill="#ff6f03"/>
  <path d="m31 22v4h2.438s0.563-0.324 0.563-1.996c0-1.613-0.621-2-0.621-2h-2.375m-4e-3 -4e-3" fill="#ff2d5b"/>
  <path d="m18 22-4 2 4 1.996v-4m0 4e-3" fill="#ffc13d"/>
  <path d="m16 22.98-1.996 1.02 1.996 1.016m0-2.035" fill="#2d2d2d"/>
 </g>
</svg>
