<?xml version="1.0" encoding="UTF-8"?>
<svg width="48" height="48" version="1.1" viewBox="0 0 48 48.000001" xmlns="http://www.w3.org/2000/svg" xmlns:cc="http://creativecommons.org/ns#" xmlns:dc="http://purl.org/dc/elements/1.1/" xmlns:rdf="http://www.w3.org/1999/02/22-rdf-syntax-ns#">
 <defs>
  <linearGradient id="linearGradient4231" x1="1" x2="47" gradientTransform="translate(-48 .00221)" gradientUnits="userSpaceOnUse">
   <stop stop-color="#bd3c39" offset="0"/>
   <stop stop-color="#c64844" offset="1"/>
  </linearGradient>
 </defs>
 <metadata>
  <rdf:RDF>
   <cc:Work rdf:about="">
    <dc:format>image/svg+xml</dc:format>
    <dc:type rdf:resource="http://purl.org/dc/dcmitype/StillImage"/>
    <dc:title/>
   </cc:Work>
  </rdf:RDF>
 </metadata>
 <path d="m1 43v0.25c0 2.216 1.784 4 4 4h38c2.216 0 4-1.784 4-4v-0.25c0 2.216-1.784 4-4 4h-38c-2.216 0-4-1.784-4-4zm0 0.5v0.5c0 2.216 1.784 4 4 4h38c2.216 0 4-1.784 4-4v-0.5c0 2.216-1.784 4-4 4h-38c-2.216 0-4-1.784-4-4z" opacity=".02"/>
 <path d="m1 43.25v0.25c0 2.216 1.784 4 4 4h38c2.216 0 4-1.784 4-4v-0.25c0 2.216-1.784 4-4 4h-38c-2.216 0-4-1.784-4-4z" opacity=".05"/>
 <path d="m1 43v0.25c0 2.216 1.784 4 4 4h38c2.216 0 4-1.784 4-4v-0.25c0 2.216-1.784 4-4 4h-38c-2.216 0-4-1.784-4-4z" opacity=".1"/>
 <rect transform="rotate(-90)" x="-47" y="1" width="46" height="46" rx="4" fill="url(#linearGradient4231)"/>
 <g transform="translate(0,-1004.4)">
  <path d="m1 1043.4v4c0 2.216 1.784 4 4 4h38c2.216 0 4-1.784 4-4v-4c0 2.216-1.784 4-4 4h-38c-2.216 0-4-1.784-4-4z" opacity=".1"/>
 </g>
 <g transform="translate(-1,-1)">
  <g transform="translate(1,1)">
   <g opacity=".1"><!-- color: #c64844 -->
    <path transform="translate(-1,-1)" d="m17 12c-1 0-2 0.261-2 1v23c0 1.309 2 2 3 2l15.816-2e-3c0.901 0 1.184-0.314 1.184-1v-21.5c0-0.82-0.537-1.494-1.367-1.494h-14.633l-2-1.01 16 6e-3c0.656 0-0.77-1-1.426-1l-14.574-6e-3zm2 4h14v20h-14v-20zm7 4.998-3.625 4h-1.375v4h1.375l3.625 4v-12zm1.309 0.5-0.367 1.102s3.059 1.016 3.059 4.148c0 3.133-3.059 4.148-3.059 4.148l0.367 1.102s3.691-1.336 3.691-5.25c0-3.918-3.691-5.25-3.691-5.25zm-0.418 2.188-0.215 0.641s1.574 0.596 1.574 2.424c0 1.824-1.574 2.418-1.574 2.418l0.215 0.645s2.109-0.781 2.109-3.063c0-2.285-2.109-3.064-2.109-3.064z"/>
   </g>
  </g>
 </g>
 <g transform="translate(0,-1)"><!-- color: #c64844 -->
  <path d="m16 11c-1 0-2 0.261-2 1v23c0 1.309 2 2 3 2l15.816-2e-3c0.901 0 1.184-0.314 1.184-1v-21.5c0-0.82-0.537-1.494-1.367-1.494h-14.633l-2-1.01 16 6e-3c0.656 0-0.77-1-1.426-1zm2 4h14v20h-14z" fill="#fffffb"/>
  <path d="m20 24v4h1.375l3.625 4v-12l-3.625 4m-1.375 0" fill="#fffffb"/>
  <path d="m25.891 22.688-0.215 0.641s1.574 0.594 1.574 2.422c0 1.824-1.574 2.418-1.574 2.418l0.215 0.645s2.109-0.781 2.109-3.063c0-2.285-2.109-3.063-2.109-3.063" fill="#fff"/>
  <path d="m26.309 20.5-0.367 1.102s3.058 1.016 3.058 4.148c0 3.133-3.058 4.148-3.058 4.148l0.367 1.102s3.691-1.336 3.691-5.25c0-3.918-3.691-5.25-3.691-5.25" fill="#fff"/>
 </g>
</svg>
