<svg version="1.1" viewBox="0 0 48 48" xmlns="http://www.w3.org/2000/svg">
 <defs>
  <linearGradient id="lG4231" x1="1" x2="47" gradientTransform="translate(-48)" gradientUnits="userSpaceOnUse">
   <stop style="stop-color:#bd3c39" offset="0"/>
   <stop style="stop-color:#c64844" offset="1"/>
  </linearGradient>
 </defs>
 <path d="m1 43v0.25c0 2.22 1.78 4 4 4h38c2.22 0 4-1.78 4-4v-0.25c0 2.22-1.78 4-4 4h-38c-2.22 0-4-1.78-4-4zm0 0.5v0.5c0 2.22 1.78 4 4 4h38c2.22 0 4-1.78 4-4v-0.5c0 2.22-1.78 4-4 4h-38c-2.22 0-4-1.78-4-4z" style="opacity:.02"/>
 <path d="m1 43.2v0.25c0 2.22 1.78 4 4 4h38c2.22 0 4-1.78 4-4v-0.25c0 2.22-1.78 4-4 4h-38c-2.22 0-4-1.78-4-4z" style="opacity:.05"/>
 <path d="m1 43v0.25c0 2.22 1.78 4 4 4h38c2.22 0 4-1.78 4-4v-0.25c0 2.22-1.78 4-4 4h-38c-2.22 0-4-1.78-4-4z" style="opacity:.1"/>
 <rect transform="rotate(-90)" x="-47" y="1" width="46" height="46" rx="4" style="fill:url(#lG4231)"/>
 <path d="m1 39v4c0 2.22 1.78 4 4 4h38c2.22 0 4-1.78 4-4v-4c0 2.22-1.78 4-4 4h-38c-2.22 0-4-1.78-4-4z" style="opacity:.1"/>
 <path d="m16 11c-1 0-2 0.261-2 1v23c0 1.31 2 2 3 2l15.8-2e-3c0.901 0 1.18-0.314 1.18-1v-21.5c0-0.82-0.537-1.49-1.37-1.49h-14.6l-2-1.01 16 6e-3c0.656 0-0.77-1-1.43-1l-14.6-6e-3zm2 4h14v20h-14zm7 5-3.62 4h-1.38v4h1.38l3.62 4zm1.31 0.5-0.367 1.1s3.06 1.02 3.06 4.15c0 3.13-3.06 4.15-3.06 4.15l0.367 1.1s3.69-1.34 3.69-5.25c0-3.92-3.69-5.25-3.69-5.25zm-0.418 2.19-0.215 0.641s1.57 0.596 1.57 2.42c0 1.82-1.57 2.42-1.57 2.42l0.215 0.645s2.11-0.781 2.11-3.06c0-2.28-2.11-3.06-2.11-3.06z" style="opacity:.1"/>
 <path d="m16 10c-1 0-2 0.261-2 1v23c0 1.31 2 2 3 2l15.8-0.00195c0.901 0 1.18-0.314 1.18-1v-21.5c0-0.82-0.537-1.49-1.37-1.49h-14.6l-2-1.01 16 0.00586c0.656 0-0.77-1-1.43-1h-14.6zm2 4h14v20h-14v-20zm7 5-3.62 4h-1.38v4h1.38l3.62 4v-12zm1.31 0.5-0.367 1.1s3.06 1.02 3.06 4.15c0 3.13-3.06 4.15-3.06 4.15l0.367 1.1s3.69-1.34 3.69-5.25c0-3.92-3.69-5.25-3.69-5.25zm-0.418 2.19-0.215 0.641s1.57 0.596 1.57 2.42c0 1.82-1.57 2.42-1.57 2.42l0.215 0.645s2.11-0.78 2.11-3.06c0-2.28-2.11-3.06-2.11-3.06z" style="fill:#f9f9f9"/>
</svg>
