<svg viewBox="0 0 48 48"><defs><linearGradient id="linearGradient3764" x1="1" x2="47" gradientUnits="userSpaceOnUse" gradientTransform="translate(-48.000001,0.00221467)"><stop stop-color="#2d88dd" stop-opacity="1"/><stop offset="1" stop-color="#3e90e0" stop-opacity="1"/></linearGradient><clipPath id="clipPath-095395302"><g transform="translate(0,-1004.3622)"><rect rx="4" y="1005.36" x="1" height="46" width="46" fill="#1890d0"/></g></clipPath><clipPath id="clipPath-109063726"><g transform="translate(0,-1004.3622)"><rect rx="4" y="1005.36" x="1" height="46" width="46" fill="#1890d0"/></g></clipPath></defs><g><path d="m 1 43 l 0 0.25 c 0 2.216 1.784 4 4 4 l 38 0 c 2.216 0 4 -1.784 4 -4 l 0 -0.25 c 0 2.216 -1.784 4 -4 4 l -38 0 c -2.216 0 -4 -1.784 -4 -4 z m 0 0.5 l 0 0.5 c 0 2.216 1.784 4 4 4 l 38 0 c 2.216 0 4 -1.784 4 -4 l 0 -0.5 c 0 2.216 -1.784 4 -4 4 l -38 0 c -2.216 0 -4 -1.784 -4 -4 z" opacity="0.02"/><path d="m 1 43.25 l 0 0.25 c 0 2.216 1.784 4 4 4 l 38 0 c 2.216 0 4 -1.784 4 -4 l 0 -0.25 c 0 2.216 -1.784 4 -4 4 l -38 0 c -2.216 0 -4 -1.784 -4 -4 z" opacity="0.05"/><path d="m 1 43 l 0 0.25 c 0 2.216 1.784 4 4 4 l 38 0 c 2.216 0 4 -1.784 4 -4 l 0 -0.25 c 0 2.216 -1.784 4 -4 4 l -38 0 c -2.216 0 -4 -1.784 -4 -4 z" opacity="0.1"/></g><g><rect width="46" height="46" x="-47" y="1" rx="4" transform="matrix(0,-1,1,0,0,0)" fill="url(#linearGradient3764)" fill-opacity="1"/></g><g><g clip-path="url(#clipPath-095395302)"><g opacity="0.1"><!-- color: #3e90e0 --><g><path d="m 33 36 l -4.977 0 l -1.02 -5.801 l -9.02 0 l -2.77 5.801 l -4.207 0 l 11.918 -24 l 5.52 0 l 4.563 24 m -6.422 -9.141 l -1.949 -10.668 l -5.121 10.668 l 7.07 0 m -0.008 0" stroke="none" fill-rule="evenodd" fill-opacity="1" fill="#000"/></g></g></g></g><g><g clip-path="url(#clipPath-109063726)"><g transform="translate(0,-1)"><!-- color: #3e90e0 --><g><path d="m 33 36 l -4.977 0 l -1.02 -5.801 l -9.02 0 l -2.77 5.801 l -4.207 0 l 11.918 -24 l 5.52 0 l 4.563 24 m -6.422 -9.141 l -1.949 -10.668 l -5.121 10.668 l 7.07 0 m -0.008 0" fill="#fff" stroke="none" fill-rule="evenodd" fill-opacity="1"/></g></g></g></g><g><g transform="translate(0,-1004.3622)"><path d="m 1 1043.36 0 4 c 0 2.216 1.784 4 4 4 l 38 0 c 2.216 0 4 -1.784 4 -4 l 0 -4 c 0 2.216 -1.784 4 -4 4 l -38 0 c -2.216 0 -4 -1.784 -4 -4 z" opacity="0.1"/></g></g></svg>