<svg version="1.1" viewBox="0 0 48 48" xmlns="http://www.w3.org/2000/svg">
 <defs>
  <linearGradient id="bg" x1="1" x2="47" gradientTransform="translate(-48)" gradientUnits="userSpaceOnUse">
   <stop style="stop-color:#e4e4e4" offset="0"/>
   <stop style="stop-color:#eee" offset="1"/>
  </linearGradient>
 </defs>
 <path d="m1 43v0.25c0 2.22 1.78 4 4 4h38c2.22 0 4-1.78 4-4v-0.25c0 2.22-1.78 4-4 4h-38c-2.22 0-4-1.78-4-4zm0 0.5v0.5c0 2.22 1.78 4 4 4h38c2.22 0 4-1.78 4-4v-0.5c0 2.22-1.78 4-4 4h-38c-2.22 0-4-1.78-4-4z" style="opacity:.02"/>
 <path d="m1 43.2v0.25c0 2.22 1.78 4 4 4h38c2.22 0 4-1.78 4-4v-0.25c0 2.22-1.78 4-4 4h-38c-2.22 0-4-1.78-4-4z" style="opacity:.05"/>
 <path d="m1 43v0.25c0 2.22 1.78 4 4 4h38c2.22 0 4-1.78 4-4v-0.25c0 2.22-1.78 4-4 4h-38c-2.22 0-4-1.78-4-4z" style="opacity:.1"/>
 <rect transform="rotate(-90)" x="-47" y="1" width="46" height="46" rx="4" style="fill:url(#bg)"/>
 <path d="m1 39v4c0 2.22 1.78 4 4 4h38c2.22 0 4-1.78 4-4v-4c0 2.22-1.78 4-4 4h-38c-2.22 0-4-1.78-4-4z" style="opacity:.1"/>
 <path d="m12 19.5v4c0 0.277 0.238 0.5 0.533 0.5h6.64c-0.442 0.759-0.676 1.62-0.678 2.5 0 2.76 2.24 5 5 5 2.57-2e-3 4.71-1.95 4.97-4.5h3.53l6 4.5v-2l-7-5.5h-1c1.06 0 1.92-0.772 1.99-1.75 0.399-0.0197 0.712-0.349 0.713-0.748-5.79e-4 -0.399-0.314-0.728-0.713-0.748m-12 3.83v1.42h-0.465c0.0647-0.498 0.222-0.979 0.465-1.42m-0.463 2.42h2.76l-1.95 1.95c-0.438-0.567-0.716-1.24-0.805-1.95m5.17 0h2.76c-0.0904 0.71-0.37 1.38-0.809 1.95l-1.95-1.95m-1.71 0.707v2.76c-0.71-0.0904-1.38-0.37-1.95-0.809l1.95-1.95m1 0 1.95 1.95c-0.567 0.438-1.24 0.716-1.95 0.805z" style="opacity:.1"/>
 <path d="m12.5 18c-0.295 0-0.533 0.223-0.533 0.5v4c0 0.277 0.238 0.5 0.533 0.5h7.47v3h12l6 4.5v-2l-7-5.5h-1c1.06 0 1.92-0.772 1.99-1.75 0.399-0.0198 0.712-0.349 0.713-0.748-5.51e-4 -0.399-0.314-0.728-0.713-0.748-0.068-0.98-0.923-1.75-1.99-1.75z" style="fill:#575757"/>
 <path d="m24.5 21.5a5 5 0 0 0-4.5 2.83v1.67h0.535a4 4 0 0 1 0.809-1.95l1.95 1.95h2.41l1.95-1.95a4 4 0 0 1 0.805 1.95h1.01a5 5 0 0 0-4.98-4.5m0.5 1.04a4 4 0 0 1 1.95 0.809l-1.95 1.95v-2.76m-1 2e-3v2.76l-1.95-1.95a4 4 0 0 1 1.95-0.805" style="opacity:.1"/>
 <path d="m23.5 20.5a5 5 0 0 0-5 5 5 5 0 0 0 5 5 5 5 0 0 0 5-5 5 5 0 0 0-5-5zm0.5 1.04a4 4 0 0 1 1.95 0.809l-1.95 1.95v-2.76m-1 2e-3v2.76l-1.95-1.95a4 4 0 0 1 1.95-0.805m3.66 1.51a4 4 0 0 1 0.805 1.95h-2.76l1.95-1.95zm-6.31 2e-3 1.95 1.95h-2.76a4 4 0 0 1 0.809-1.95m-0.807 2.95h2.76l-1.95 1.95a4 4 0 0 1-0.805-1.95m5.17 0h2.76a4 4 0 0 1-0.809 1.95l-1.95-1.95m-1.71 0.707v2.76a4 4 0 0 1-1.95-0.809l1.95-1.95m1 0 1.95 1.95a4 4 0 0 1-1.95 0.805v-2.76z" style="fill:#808080"/>
 <circle cx="23.5" cy="25.5" r="1" style="fill:#575757"/>
</svg>
