<?xml version="1.0" encoding="UTF-8" standalone="no"?>
<!-- Created with Inkscape (http://www.inkscape.org/) -->
<svg id="svg4340" xmlns:rdf="http://www.w3.org/1999/02/22-rdf-syntax-ns#" xmlns="http://www.w3.org/2000/svg" height="48" viewBox="0 0 48 48.000001" width="48" version="1.1" xmlns:cc="http://creativecommons.org/ns#" xmlns:xlink="http://www.w3.org/1999/xlink" xmlns:dc="http://purl.org/dc/elements/1.1/">
 <defs id="defs4342">
  <linearGradient id="linearGradient4231" gradientUnits="userSpaceOnUse" gradientTransform="translate(-48 .00221)" x2="47" x1="1">
   <stop id="stop7-50" style="stop-color:#e4e4e4" offset="0"/>
   <stop id="stop9-96" style="stop-color:#eee" offset="1"/>
  </linearGradient>
 </defs>
 <metadata id="metadata4345">
  <rdf:RDF>
   <cc:Work rdf:about="">
    <dc:format>image/svg+xml</dc:format>
    <dc:type rdf:resource="http://purl.org/dc/dcmitype/StillImage"/>
    <dc:title/>
   </cc:Work>
  </rdf:RDF>
 </metadata>
 <g id="g21">
  <path id="path23" style="opacity:0.02" d="m1 43v0.25c0 2.216 1.784 4 4 4h38c2.216 0 4-1.784 4-4v-0.25c0 2.216-1.784 4-4 4h-38c-2.216 0-4-1.784-4-4zm0 0.5v0.5c0 2.216 1.784 4 4 4h38c2.216 0 4-1.784 4-4v-0.5c0 2.216-1.784 4-4 4h-38c-2.216 0-4-1.784-4-4z"/>
  <path id="path25" style="opacity:.05" d="m1 43.25v0.25c0 2.216 1.784 4 4 4h38c2.216 0 4-1.784 4-4v-0.25c0 2.216-1.784 4-4 4h-38c-2.216 0-4-1.784-4-4z"/>
  <path id="path27" style="opacity:.1" d="m1 43v0.25c0 2.216 1.784 4 4 4h38c2.216 0 4-1.784 4-4v-0.25c0 2.216-1.784 4-4 4h-38c-2.216 0-4-1.784-4-4z"/>
 </g>
 <rect id="rect4229" style="fill:url(#linearGradient4231)" rx="4" transform="rotate(-90)" height="46" width="46" y="1" x="-47"/>
 <g id="g57">
  <g id="g59" transform="translate(0,-1004.4)">
   <path id="path61" style="opacity:.1" d="m1 1043.4v4c0 2.216 1.784 4 4 4h38c2.216 0 4-1.784 4-4v-4c0 2.216-1.784 4-4 4h-38c-2.216 0-4-1.784-4-4z"/>
  </g>
 </g>
 <path id="path37" style="fill-opacity:0.098;fill-rule:evenodd" d="m39 24.205a14 14 0 0 0 -4.1 -10.11l-9.9 9.898 13.156 4.789a14 14 0 0 0 0.842 -4.584zm-1.781 6.24-12.217-4.445v13a13 13 0 0 0 12.215 -8.559m-4.316-17.346a14 14 0 0 0 -16.9 -2.225 14 14 0 0 0 -6.523 15.748 14 14 0 0 0 13.523 10.377v-14l9.9-9.9z"/>
 <path id="path39" style="fill:#e38c53;fill-rule:evenodd" d="m23 35.995a14 14 0 0 1 -13.523 -10.377 14 14 0 0 1 6.523 -15.747 14 14 0 0 1 16.9 2.224l-9.9 9.9"/>
 <path id="path41" style="fill:#59a3c8;fill-rule:evenodd" d="m34.9 13.095a14 14 0 0 1 3.255 14.689l-13.155-4.789"/>
 <path id="path43" style="fill:#a8cf36;fill-rule:evenodd" d="m37.215 29.441a13 13 0 0 1 -12.215 8.554v-13z"/>
</svg>
