<svg version="1.1" viewBox="0 0 48 48" xmlns="http://www.w3.org/2000/svg">
 <defs>
  <linearGradient id="bg" x2="0" y1="1" y2="47" gradientUnits="userSpaceOnUse">
   <stop style="stop-color:#601a1a" offset="0"/>
   <stop style="stop-color:#501616" offset="1"/>
  </linearGradient>
 </defs>
 <path d="m1 43v0.25c0 2.216 1.784 4 4 4h38c2.216 0 4-1.784 4-4v-0.25c0 2.216-1.784 4-4 4h-38c-2.216 0-4-1.784-4-4zm0 0.5v0.5c0 2.216 1.784 4 4 4h38c2.216 0 4-1.784 4-4v-0.5c0 2.216-1.784 4-4 4h-38c-2.216 0-4-1.784-4-4z" style="opacity:.02"/>
 <path d="m1 43.25v0.25c0 2.216 1.784 4 4 4h38c2.216 0 4-1.784 4-4v-0.25c0 2.216-1.784 4-4 4h-38c-2.216 0-4-1.784-4-4z" style="opacity:.05"/>
 <path d="m1 43v0.25c0 2.216 1.784 4 4 4h38c2.216 0 4-1.784 4-4v-0.25c0 2.216-1.784 4-4 4h-38c-2.216 0-4-1.784-4-4z" style="opacity:.1"/>
 <rect x="1" y="1" width="46" height="46" rx="4" style="fill:url(#bg)"/>
 <path d="m1 39v4c0 2.216 1.784 4 4 4h38c2.216 0 4-1.784 4-4v-4c0 2.216-1.784 4-4 4h-38c-2.216 0-4-1.784-4-4z" style="opacity:.1"/>
 <path opacity=".1" d="m13 13c5 2 8 1 11-2 3 3 7 4 11 2v15c0 3-4 7-11 10-7-3-11-7-11-10z"/>
 <path fill="#b84014" d="m13 12c5 2 8 1 11-2 3 3 7 4 11 2v15c0 3-4 7-11 10-7-3-11-7-11-10z"/>
 <path opacity=".1" d="m18 17v11l3 3v-14z"/>
 <path fill="#bbb" d="m18 16v11l3 3v-14z"/>
 <path opacity=".1" d="m24 16c-3 0-9 0-9 1.5 0 0.5 0 1.5 1 1.5s0-1 2-1c0.53255 0 1 0 2 0.5v13.5l2 2v-15.5c1-0.5 2.0199-0.5 3-0.5 2 0 5 1 5 2.5 0 1.0416-1 2.1-3 2.5 3.74e-4 0.001878-3.7e-4 0.00398 0 0.005859 0.031488 0.16008 0.048828 0.32483 0.048828 0.49414s-0.01734 0.33406-0.048828 0.49414v0.005859c1.5 0.5 3 2 3 3.5 0 2.0095-1 4.5-7 4.5 0.5 0.5 1.5 1 3 1 3 0 6-2 6-5 0-1.8844-1.2486-3.2735-3.2363-4.2695 1.9877-0.60002 3.2363-2.1575 3.2363-3.7305 0-2.5-4-4-8-4z"/>
 <circle opacity=".1" r="1.5" cy="23.5" cx="24.5" />
 <path d="m24 15c-3 0-9 0-9 1.5 0 0.5 0 1.5 1 1.5s0-1 2-1c0.53255 0 1 0 2 0.5v13.5l2 2v-15.5c1-0.5 2.0199-0.5 3-0.5 2 0 5 1 5 2.5 0 1.0416-1 2.1-3 2.5 3.74e-4 0.001878-3.7e-4 0.00398 0 0.005859 0.031488 0.16008 0.048828 0.32483 0.048828 0.49414s-0.01734 0.33406-0.048828 0.49414v0.005859c1.5 0.5 3 2 3 3.5 0 2.0095-1 4.5-7 4.5 0.5 0.5 1.5 1 3 1 3 0 6-2 6-5 0-1.8844-1.2486-3.2735-3.2363-4.2695 1.9877-0.60002 3.2363-2.1575 3.2363-3.7305 0-2.5-4-4-8-4z" fill="#ddd"/>
 <circle fill="#ddd" r="1.5" cy="22.5" cx="24.5" />
</svg>
