<?xml version="1.0" encoding="UTF-8" standalone="no"?>
<!-- Created with Inkscape (http://www.inkscape.org/) -->
<svg id="svg4340" xmlns:rdf="http://www.w3.org/1999/02/22-rdf-syntax-ns#" xmlns="http://www.w3.org/2000/svg" height="48" viewBox="0 0 48 48.000001" width="48" version="1.1" xmlns:cc="http://creativecommons.org/ns#" xmlns:xlink="http://www.w3.org/1999/xlink" xmlns:dc="http://purl.org/dc/elements/1.1/">
 <defs id="defs4342">
  <linearGradient id="linearGradient4231" gradientUnits="userSpaceOnUse" gradientTransform="translate(-48 .00221)" x2="47" x1="1">
   <stop id="stop7-596" style="stop-color:#b5d9f3" offset="0"/>
   <stop id="stop9-21" style="stop-color:#c6e2f6" offset="1"/>
  </linearGradient>
 </defs>
 <metadata id="metadata4345">
  <rdf:RDF>
   <cc:Work rdf:about="">
    <dc:format>image/svg+xml</dc:format>
    <dc:type rdf:resource="http://purl.org/dc/dcmitype/StillImage"/>
    <dc:title/>
   </cc:Work>
  </rdf:RDF>
 </metadata>
 <g id="g21">
  <path id="path23" style="opacity:0.02" d="m1 43v0.25c0 2.216 1.784 4 4 4h38c2.216 0 4-1.784 4-4v-0.25c0 2.216-1.784 4-4 4h-38c-2.216 0-4-1.784-4-4zm0 0.5v0.5c0 2.216 1.784 4 4 4h38c2.216 0 4-1.784 4-4v-0.5c0 2.216-1.784 4-4 4h-38c-2.216 0-4-1.784-4-4z"/>
  <path id="path25" style="opacity:.05" d="m1 43.25v0.25c0 2.216 1.784 4 4 4h38c2.216 0 4-1.784 4-4v-0.25c0 2.216-1.784 4-4 4h-38c-2.216 0-4-1.784-4-4z"/>
  <path id="path27" style="opacity:.1" d="m1 43v0.25c0 2.216 1.784 4 4 4h38c2.216 0 4-1.784 4-4v-0.25c0 2.216-1.784 4-4 4h-38c-2.216 0-4-1.784-4-4z"/>
 </g>
 <rect id="rect4229" style="fill:url(#linearGradient4231)" rx="4" transform="rotate(-90)" height="46" width="46" y="1" x="-47"/>
 <g id="g57">
  <g id="g59" transform="translate(0,-1004.4)">
   <path id="path61" style="opacity:.1" d="m1 1043.4v4c0 2.216 1.784 4 4 4h38c2.216 0 4-1.784 4-4v-4c0 2.216-1.784 4-4 4h-38c-2.216 0-4-1.784-4-4z"/>
  </g>
 </g>
 <path id="path27-3" style="opacity:.1" d="m12 12h24v18c0 4-10 8-12 8s-12-4-12-8z"/>
 <path id="path29" style="fill:#1470aa" d="m12 11h24v18c0 4-10 8-12 8s-12-4-12-8z"/>
 <path id="path31" style="opacity:.1" d="m18 16v14h9.6c1.33 0 2.4-1.115 2.4-2.5v-5c0-1.385-1.071-2.5-2.4-2.5h-7.6v-4m0 6h7c0.554 0 1 0.446 1 1v4c0 0.554-0.446 1-1 1h-7z"/>
 <path id="path33" style="fill:#f9f9f9" d="m18 15v14h9.6c1.33 0 2.4-1.115 2.4-2.5v-5c0-1.385-1.071-2.5-2.4-2.5h-7.6v-4m0 6h7c0.554 0 1 0.446 1 1v4c0 0.554-0.446 1-1 1h-7z"/>
</svg>
