<svg version="1.1" viewBox="0 0 48 48" xmlns="http://www.w3.org/2000/svg">
 <defs>
  <linearGradient id="bg" x2="0" y1="1" y2="47" gradientUnits="userSpaceOnUse">
   <stop style="stop-color:#825a12" offset="0"/>
   <stop style="stop-color:#704d10" offset="1"/>
  </linearGradient>
 </defs>
 <path d="m1 43v0.25c0 2.216 1.784 4 4 4h38c2.216 0 4-1.784 4-4v-0.25c0 2.216-1.784 4-4 4h-38c-2.216 0-4-1.784-4-4zm0 0.5v0.5c0 2.216 1.784 4 4 4h38c2.216 0 4-1.784 4-4v-0.5c0 2.216-1.784 4-4 4h-38c-2.216 0-4-1.784-4-4z" style="opacity:.02"/>
 <path d="m1 43.25v0.25c0 2.216 1.784 4 4 4h38c2.216 0 4-1.784 4-4v-0.25c0 2.216-1.784 4-4 4h-38c-2.216 0-4-1.784-4-4z" style="opacity:.05"/>
 <path d="m1 43v0.25c0 2.216 1.784 4 4 4h38c2.216 0 4-1.784 4-4v-0.25c0 2.216-1.784 4-4 4h-38c-2.216 0-4-1.784-4-4z" style="opacity:.1"/>
 <rect x="1" y="1" width="46" height="46" rx="4" style="fill:url(#bg)"/>
 <path d="m1 39v4c0 2.216 1.784 4 4 4h38c2.216 0 4-1.784 4-4v-4c0 2.216-1.784 4-4 4h-38c-2.216 0-4-1.784-4-4z" style="opacity:.1"/>
 <path d="m10 14v20c0 1.108 0.892 2 2 2h2v1h4v-1h12v1h4v-1h2c1.108 0 2-0.892 2-2v-20z" style="opacity:.1"/>
 <rect x="12" y="11" width="24" height="24" style="fill:#ff9c9c;opacity:.4"/>
 <path d="m14 34v2h4v-2zm16 0v2h4v-2z" style="fill:#a96c1e"/>
 <rect x="10" y="11" width="28" height="24" ry="2" style="fill:#d09325"/>
 <path d="m14 13c-1.108 0-2 0.892-2 2v14l20 4h2c1.108 0 2-0.892 2-2v-16c0-1.108-0.892-2-2-2h-20z" style="fill:#5c5c5c"/>
 <path d="m25.5 14a7.5 8 0 0 0-7.5 8c-5 3-6 7-6 7v2c0 1.108 0.892 2 2 2h18s-0.98384-2.9366-2.9453-3.9648a7.5 8 0 0 0 3.9453-7.0352l1 1-1-3 1 1-1-3 1 1s-1-5-8-5c-0.06753 0-0.12117 0.0097-0.17578 0.01758a7.5 8 0 0 0-0.32422-0.01758z" style="fill:#383838"/>
 <path d="m24.5 21c-1.0562 0-1.5 1-1.5 1l4 1s-1-2-2.5-2zm6.5 2c-1 0-2 0.5-2 0.5l3 0.5s0-1-1-1z" style="fill:#f9f9f9"/>
</svg>
