<svg xmlns="http://www.w3.org/2000/svg" height="48" viewBox="0 0 48 48.000001" width="48">
  <defs>
    <linearGradient id="b" y2="3.621" gradientUnits="userSpaceOnUse" x2="23.668" y1="36.865" x1="23.295">
      <stop offset="0" stop-color="#db3434"/>
      <stop offset="1" stop-color="#fb5b5b"/>
    </linearGradient>
    <linearGradient id="a" y2="24" gradientUnits="userSpaceOnUse" x2="-1" gradientTransform="rotate(-90 24 24)" y1="24" x1="-47">
      <stop offset="0" stop-color="#4467b8"/>
      <stop offset="1" stop-color="#5173bf"/>
    </linearGradient>
  </defs>
  <path d="M1 43v.25c0 2.216 1.784 4 4 4h38c2.216 0 4-1.784 4-4V43c0 2.216-1.784 4-4 4H5c-2.216 0-4-1.784-4-4zm0 .5v.5c0 2.216 1.784 4 4 4h38c2.216 0 4-1.784 4-4v-.5c0 2.216-1.784 4-4 4H5c-2.216 0-4-1.784-4-4z" opacity=".02"/>
  <path d="M1 43.25v.25c0 2.216 1.784 4 4 4h38c2.216 0 4-1.784 4-4v-.25c0 2.216-1.784 4-4 4H5c-2.216 0-4-1.784-4-4z" opacity=".05"/>
  <path d="M1 43v.25c0 2.216 1.784 4 4 4h38c2.216 0 4-1.784 4-4V43c0 2.216-1.784 4-4 4H5c-2.216 0-4-1.784-4-4z" opacity=".1"/>
  <rect rx="4" transform="rotate(-90)" height="46" width="46" y="1" x="-47" fill="url(#a)"/>
  <path d="M1 39v4c0 2.216 1.784 4 4 4h38c2.216 0 4-1.784 4-4v-4c0 2.216-1.784 4-4 4H5c-2.216 0-4-1.784-4-4z" opacity=".1"/>
  <g>
    <path d="M23.781 11.156l-4.402 2.816-8.098 19.871 21.344-1.281 2.844-3.5-.625-7.438-6.781-8.125" opacity=".1"/>
  </g>
  <g>
    <path d="M11.676 33.578l7.848-19.395 4.277-2.742 4.086 2.23 6.699 7.977.703 7.277-2.68 3.379m-20.934 1.273" fill="url(#b)" transform="translate(0 -1)"/>
    <path d="M23.781 10.156l-.121.066-4.281 2.75-.063.031-.035.09-7.844 19.41-.156.34h.406l20.938-1.281.094-.031.094-.063 2.656-3.406.063-.063v-.094l-.688-7.281-.031-.094-.031-.031-6.719-8-.063-.063-4.094-2.219m-.09.504l3.875 2.125 6.656 7.906.688 7.113-2.563 3.191-20.402 1.25 7.656-18.941 4.09-2.648m0 .004" fill="#b12f0b"/>
    <path d="M19.281 13.625l-.063 7.629-7.469 11.06.406.281 7.504-11.09.063-.063v-.094l.063-7.719m-.504 0" fill="#b12f0b"/>
    <path d="M25.688 13l-.344 4.75-5.875 3.723-.25.121.188.223 5.281 6.781-12.594 3.406.125.465 13-3.469.344-.09-.223-.313-5.375-6.875 5.754-3.594.09-.063.031-.156.344-4.875-.5-.031m.004-.004" fill="#b12f0b"/>
    <path d="M27.969 12.594l-8.566.563.031.5L28 13.091m-.031-.496M25.75 17.844l-.438.25 3.219 5.469-3.344 5.188.406.25 3.469-5.277.063-.125-.063-.125-3.313-5.625m0-.004M34.16 20.473l-1.996 10.734.5.094 1.996-10.734m-.5-.094" fill="#b12f0b"/>
    <path d="M29.06 23.406l-.188.469 4.5 1.594.188-.469m-4.5-1.594M25.355 28.566l-.332.441 2.438 1.883 1.219.887.332-.445-1.328-.887-2.324-1.879m-.004 0" fill="#b12f0b"/>
  </g>
</svg>
