<svg version="1.1" viewBox="0 0 48 48" xmlns="http://www.w3.org/2000/svg">
 <defs>
  <linearGradient id="bg" x2="0" y1="1" y2="47" gradientUnits="userSpaceOnUse">
   <stop style="stop-color:#3d3d3d" offset="0"/>
   <stop style="stop-color:#333" offset="1"/>
  </linearGradient>
 </defs>
 <path d="m1 43v0.25c0 2.216 1.784 4 4 4h38c2.216 0 4-1.784 4-4v-0.25c0 2.216-1.784 4-4 4h-38c-2.216 0-4-1.784-4-4zm0 0.5v0.5c0 2.216 1.784 4 4 4h38c2.216 0 4-1.784 4-4v-0.5c0 2.216-1.784 4-4 4h-38c-2.216 0-4-1.784-4-4z" style="opacity:.02"/>
 <path d="m1 43.25v0.25c0 2.216 1.784 4 4 4h38c2.216 0 4-1.784 4-4v-0.25c0 2.216-1.784 4-4 4h-38c-2.216 0-4-1.784-4-4z" style="opacity:.05"/>
 <path d="m1 43v0.25c0 2.216 1.784 4 4 4h38c2.216 0 4-1.784 4-4v-0.25c0 2.216-1.784 4-4 4h-38c-2.216 0-4-1.784-4-4z" style="opacity:.1"/>
 <rect x="1" y="1" width="46" height="46" rx="4" style="fill:url(#bg)"/>
 <path d="m1 39v4c0 2.216 1.784 4 4 4h38c2.216 0 4-1.784 4-4v-4c0 2.216-1.784 4-4 4h-38c-2.216 0-4-1.784-4-4z" style="opacity:.1"/>
 <rect x="15" y="14" width="18" height="1" style="fill:#747474;paint-order:stroke fill markers"/>
 <path d="m17 13v19l7 4 7-4v-19h-2v3h-2v-3h-2v3h-2v-3h-2v3h-2v-3z" style="fill:#e02222;paint-order:stroke fill markers"/>
 <path d="m20 18v3h8v-3h-1v1h-2v-1h-2v1h-2v-1zm1 4v1h6v-1zm0 2v7h2v-2c0-0.554 0.446-1 1-1s1 0.446 1 1v2h2v-7zm2.4707 1h1.0586c0.26057 0 0.4707 0.21014 0.4707 0.4707v1.0586c0 0.26057-0.21014 0.4707-0.4707 0.4707h-1.0586c-0.26057 0-0.4707-0.21014-0.4707-0.4707v-1.0586c0-0.26057 0.21014-0.4707 0.4707-0.4707z" style="fill:#f9f9f9;paint-order:stroke fill markers"/>
 <path d="m15 12-3 2.5 3 2.5 1-1v-3zm18 0-1 1v3l1 1 3-2.5z" style="fill:#999"/>
 <path d="m15 13-3 2.5 3 2.5 1-1v-1h1v17l7 4 7-4v-17h1v1l1 1 3-2.5-3-2.5-1 1v1h-1v-1h-2v1h-2v-1h-2v1h-2v-1h-2v1h-2v-1h-2v1h-1v-1zm4 3h2v1h-2zm4 0h2v1h-2zm4 0h2v1h-2z" style="opacity:.1;paint-order:stroke fill markers"/>
 <rect x="15" y="14" width="18" height="1" style="fill:#747474;paint-order:stroke fill markers"/>
 <path d="m17 13v19l7 4 7-4v-19h-2v3h-2v-3h-2v3h-2v-3h-2v3h-2v-3z" style="fill:#e02222;paint-order:stroke fill markers"/>
 <path d="m20 18v3h8v-3h-1v1h-2v-1h-2v1h-2v-1zm1 4v1h6v-1zm0 2v7h2v-2c0-0.554 0.446-1 1-1s1 0.446 1 1v2h2v-7zm2.4707 1h1.0586c0.26057 0 0.4707 0.21014 0.4707 0.4707v1.0586c0 0.26057-0.21014 0.4707-0.4707 0.4707h-1.0586c-0.26057 0-0.4707-0.21014-0.4707-0.4707v-1.0586c0-0.26057 0.21014-0.4707 0.4707-0.4707z" style="fill:#f9f9f9;paint-order:stroke fill markers"/>
 <path d="m15 12-3 2.5 3 2.5 1-1v-3zm18 0-1 1v3l1 1 3-2.5z" style="fill:#999"/>
</svg>
