<?xml version="1.0" encoding="UTF-8" standalone="no"?>
<!-- Created with Inkscape (http://www.inkscape.org/) -->
<svg id="svg4340" xmlns:rdf="http://www.w3.org/1999/02/22-rdf-syntax-ns#" xmlns="http://www.w3.org/2000/svg" height="48" viewBox="0 0 48 48.000001" width="48" version="1.1" xmlns:cc="http://creativecommons.org/ns#" xmlns:xlink="http://www.w3.org/1999/xlink" xmlns:dc="http://purl.org/dc/elements/1.1/">
 <defs id="defs4342">
  <linearGradient id="linearGradient4225" y2="24" gradientUnits="userSpaceOnUse" x2="-1" gradientTransform="matrix(0,-1,1,0,25,49.901)" y1="24" x1="-47">
   <stop id="stop7-3" style="stop-color:#783193" offset="0"/>
   <stop id="stop9-5" style="stop-color:#8436a2" offset="1"/>
  </linearGradient>
 </defs>
 <metadata id="metadata4345">
  <rdf:RDF>
   <cc:Work rdf:about="">
    <dc:format>image/svg+xml</dc:format>
    <dc:type rdf:resource="http://purl.org/dc/dcmitype/StillImage"/>
    <dc:title/>
   </cc:Work>
  </rdf:RDF>
 </metadata>
 <g id="g21">
  <path id="path23" style="opacity:.02" d="m1 43v0.25c0 2.216 1.784 4 4 4h38c2.216 0 4-1.784 4-4v-0.25c0 2.216-1.784 4-4 4h-38c-2.216 0-4-1.784-4-4zm0 0.5v0.5c0 2.216 1.784 4 4 4h38c2.216 0 4-1.784 4-4v-0.5c0 2.216-1.784 4-4 4h-38c-2.216 0-4-1.784-4-4z"/>
  <path id="path25" style="opacity:.05" d="m1 43.25v0.25c0 2.216 1.784 4 4 4h38c2.216 0 4-1.784 4-4v-0.25c0 2.216-1.784 4-4 4h-38c-2.216 0-4-1.784-4-4z"/>
  <path id="path27" style="opacity:.1" d="m1 43v0.25c0 2.216 1.784 4 4 4h38c2.216 0 4-1.784 4-4v-0.25c0 2.216-1.784 4-4 4h-38c-2.216 0-4-1.784-4-4z"/>
 </g>
 <rect id="rect4223" style="fill:url(#linearGradient4225)" rx="4" transform="rotate(-90)" height="46" width="46" y="1" x="-47"/>
 <path id="path4447" style="opacity:.1" d="m24.717 8.748l0.002 0.002c-6.658 0.185-16.505 6.05-17.344 16.844-0.91 10.618 6.607 18.429 15.406 21.375 0.031 0.011 0.063 0.02 0.094 0.031h20.125c1.483 0 2.758-0.807 3.449-2h-13.449c-15 0-22.111-7.374-22.471-18.5 1.324-13.847 15.13-14.542 15.5-14.438v-3.2495c-0.412-0.038-0.868-0.0765-1.312-0.0645zm1.599 4.281l-0.004 0.002c-0.358-0.004-0.733 0.009-1.093 0.031-0.961 0.066-1.922 0.211-2.875 0.469-3.746 1.01-6.823 3.375-8.688 6.625-3.9138 6.832-1.841 15.188 4.938 19.844 3.621 2.01 12.841 3.789 20.406 4h7.861c0.083-0.321 0.139-0.653 0.139-1v-2h-7c-11.01 0.029-15.126-0.639-19.527-3.656-5.352-3.672-7.05-10.234-4-15.563 1.434-2.492 3.848-4.315 6.75-5.093 2.977-0.806 6.04-0.384 8.656 1.124l1.625-2.814c-2.215-1.273-4.676-1.949-7.188-1.969zm-0.316 4.409c-1.648 0.054-3.313 0.499-4.781 1.343-3.25 1.875-5.03 5.273-5.03 8.781 0 1.626 0.363 3.293 1.188 4.813 0.065 0.112 0.097 0.157 0.156 0.252 0.516 0.875 2.502 3.861 6.815 5.437 4.125 1.104 9.736 1.936 14.652 1.936h8v-3h-8c-5.135 0-10.484-0.491-13.59-1.998-3.395-1.234-4.8-3.504-5.062-3.969-0.621-1.082-0.907-2.305-0.907-3.469 0-2.379 1.227-4.69 3.438-5.968 1.594-0.914 3.438-1.162 5.219-0.69 1.77 0.48 3.264 1.627 4.187 3.221l2.813-1.596c-1.355-2.344-3.508-4.04-6.125-4.75-0.98-0.262-1.98-0.375-2.969-0.343h-0.004z"/>
 <path id="path33" style="fill:#f9f9f9" d="m24.717 7.748l0.002 0.002c-6.658 0.185-16.505 6.05-17.344 16.844-0.91 10.618 6.607 18.429 15.406 21.375 1.066 0.39 2.18 0.728 3.326 1.031h16.893c1.869 0 3.418-1.274 3.861-3h-13.861c-15 0-22.111-7.374-22.471-18.5 1.324-13.847 15.13-14.542 15.5-14.438v-3.2495c-0.412-0.038-0.868-0.0765-1.312-0.0645zm1.599 4.281l-0.004 0.002c-0.358-0.004-0.733 0.009-1.093 0.031-0.961 0.066-1.922 0.211-2.875 0.469-3.746 1.01-6.823 3.375-8.688 6.625-3.9138 6.832-1.841 15.188 4.938 19.844 3.621 2.01 12.841 3.789 20.406 4h8v-3h-7c-11.01 0.029-15.126-0.639-19.527-3.656-5.352-3.672-7.05-10.234-4-15.563 1.434-2.492 3.848-4.315 6.75-5.093 2.977-0.806 6.04-0.384 8.656 1.124l1.625-2.814c-2.215-1.273-4.676-1.949-7.188-1.969zm-0.316 4.409c-1.648 0.054-3.313 0.499-4.781 1.343-3.25 1.875-5.03 5.273-5.03 8.781 0 1.626 0.363 3.293 1.188 4.813 0.065 0.112 0.097 0.157 0.156 0.252 0.516 0.875 2.502 3.861 6.815 5.437 4.125 1.104 9.736 1.936 14.652 1.936h8v-3h-8c-5.135 0-10.484-0.491-13.59-1.998-3.395-1.234-4.8-3.504-5.062-3.969-0.621-1.082-0.907-2.305-0.907-3.469 0-2.379 1.227-4.69 3.438-5.968 1.594-0.914 3.438-1.162 5.219-0.69 1.77 0.48 3.264 1.627 4.187 3.221l2.813-1.596c-1.355-2.344-3.508-4.04-6.125-4.75-0.98-0.262-1.98-0.375-2.969-0.343h-0.004z"/>
 <g id="g57">
  <g id="g59" transform="translate(0,-1004.4)">
   <path id="path61" style="opacity:.1" d="m1 1043.4v4c0 2.216 1.784 4 4 4h38c2.216 0 4-1.784 4-4v-4c0 2.216-1.784 4-4 4h-38c-2.216 0-4-1.784-4-4z"/>
  </g>
 </g>
</svg>
