<?xml version="1.0" encoding="UTF-8"?>
<svg version="1.1" viewBox="0 0 48 48" xmlns="http://www.w3.org/2000/svg">
 <defs>
  <linearGradient id="lG4225" x1="49.9" x2="49.9" y1="-72" y2="-26" gradientTransform="rotate(180 25 -12.5)" gradientUnits="userSpaceOnUse">
   <stop style="stop-color:#8336a0" offset="0"/>
   <stop style="stop-color:#8f3bb0" offset="1"/>
  </linearGradient>
 </defs>
 <path d="m1 43v0.25c0 2.22 1.78 4 4 4h38c2.22 0 4-1.78 4-4v-0.25c0 2.22-1.78 4-4 4h-38c-2.22 0-4-1.78-4-4zm0 0.5v0.5c0 2.22 1.78 4 4 4h38c2.22 0 4-1.78 4-4v-0.5c0 2.22-1.78 4-4 4h-38c-2.22 0-4-1.78-4-4z" style="opacity:.02"/>
 <path d="m1 43.2v0.25c0 2.22 1.78 4 4 4h38c2.22 0 4-1.78 4-4v-0.25c0 2.22-1.78 4-4 4h-38c-2.22 0-4-1.78-4-4z" style="opacity:.05"/>
 <path d="m1 43v0.25c0 2.22 1.78 4 4 4h38c2.22 0 4-1.78 4-4v-0.25c0 2.22-1.78 4-4 4h-38c-2.22 0-4-1.78-4-4z" style="opacity:.1"/>
 <path d="m5 1c-2.22 0-4 1.78-4 4v38c0 2.22 1.78 4 4 4h38c2.22 0 4-1.78 4-4v-5l-1-2 1-1v-1l-1-2 1-1v-1l-1-2 1-1v-22c0-2.22-1.78-4-4-4h-38z" style="fill:url(#lG4225)"/>
 <path d="m1 39v4c0 2.22 1.78 4 4 4h38c2.22 0 4-1.78 4-4v-4c0 2.22-1.78 4-4 4h-38c-2.22 0-4-1.78-4-4z" style="opacity:.1"/>
 <path d="m24 9c-8.28 0-15 6.72-15 15s6.72 15 15 15h23v-11h-23c-2.21 0-4-1.79-4-4s1.79-4 4-4c1.43 1.7e-4 2.75 0.763 3.46 2l2.6-1.5c-1.25-2.17-3.56-3.5-6.06-3.5-3.87 7e-5 -7 3.13-7 7s3.13 7 7 7v1c-4.42 0-8-3.58-8-8s3.58-8 8-8c1.4 1.78e-4 2.78 0.371 4 1.07l1.5-2.6c-1.67-0.966-3.57-1.47-5.5-1.47-6.08-2.05e-4 -11 4.92-11 11s4.92 11 11 11v1c-6.63 0-12-5.37-12-12s5.37-12 12-12z" style="opacity:.1"/>
 <path d="m24 8a15 15 0 0 0-15 15 15 15 0 0 0 15 15h23v-3h-23a12 12 0 0 1-12-12 12 12 0 0 1 12-12v-3zm0 4c-6.08-2.05e-4 -11 4.92-11 11s4.92 11 11 11h23v-3h-23c-4.42 0-8-3.58-8-8s3.58-8 8-8c1.4 1.78e-4 2.78 0.371 4 1.07l1.5-2.6c-1.67-0.966-3.57-1.47-5.5-1.47zm0 4c-3.87 7e-5 -7 3.13-7 7s3.13 7 7 7h23v-3h-23c-2.21 0-4-1.79-4-4s1.79-4 4-4c1.43 1.7e-4 2.75 0.763 3.46 2l2.6-1.5c-1.25-2.17-3.56-3.5-6.06-3.5z" style="fill:#f9f9f9"/>
</svg>
