<?xml version="1.0" encoding="UTF-8" standalone="no"?>
<!-- Created with Inkscape (http://www.inkscape.org/) -->
<svg id="svg4340" xmlns:rdf="http://www.w3.org/1999/02/22-rdf-syntax-ns#" xmlns="http://www.w3.org/2000/svg" height="48" viewBox="0 0 48 48.000001" width="48" version="1.1" xmlns:cc="http://creativecommons.org/ns#" xmlns:xlink="http://www.w3.org/1999/xlink" xmlns:dc="http://purl.org/dc/elements/1.1/">
 <defs id="defs4342">
  <linearGradient id="linearGradient4225" y2="24" gradientUnits="userSpaceOnUse" x2="-1" gradientTransform="matrix(0,-1,1,0,25,49.901)" y1="24" x1="-47">
   <stop id="stop7-12" style="stop-color:#7252a2" offset="0"/>
   <stop id="stop9-93" style="stop-color:#7c5bac" offset="1"/>
  </linearGradient>
 </defs>
 <metadata id="metadata4345">
  <rdf:RDF>
   <cc:Work rdf:about="">
    <dc:format>image/svg+xml</dc:format>
    <dc:type rdf:resource="http://purl.org/dc/dcmitype/StillImage"/>
    <dc:title/>
   </cc:Work>
  </rdf:RDF>
 </metadata>
 <g id="g21">
  <path id="path23" style="opacity:.02" d="m1 43v0.25c0 2.216 1.784 4 4 4h38c2.216 0 4-1.784 4-4v-0.25c0 2.216-1.784 4-4 4h-38c-2.216 0-4-1.784-4-4zm0 0.5v0.5c0 2.216 1.784 4 4 4h38c2.216 0 4-1.784 4-4v-0.5c0 2.216-1.784 4-4 4h-38c-2.216 0-4-1.784-4-4z"/>
  <path id="path25" style="opacity:.05" d="m1 43.25v0.25c0 2.216 1.784 4 4 4h38c2.216 0 4-1.784 4-4v-0.25c0 2.216-1.784 4-4 4h-38c-2.216 0-4-1.784-4-4z"/>
  <path id="path27" style="opacity:.1" d="m1 43v0.25c0 2.216 1.784 4 4 4h38c2.216 0 4-1.784 4-4v-0.25c0 2.216-1.784 4-4 4h-38c-2.216 0-4-1.784-4-4z"/>
 </g>
 <rect id="rect4223" style="fill:url(#linearGradient4225)" rx="4" transform="rotate(-90)" height="46" width="46" y="1" x="-47"/>
 <g id="g57">
  <g id="g59" transform="translate(0,-1004.4)">
   <path id="path61" style="opacity:.1" d="m1 1043.4v4c0 2.216 1.784 4 4 4h38c2.216 0 4-1.784 4-4v-4c0 2.216-1.784 4-4 4h-38c-2.216 0-4-1.784-4-4z"/>
  </g>
 </g>
 <path id="path37" style="opacity:.1" d="m31.08 12c-0.109-0.011-0.216 0.001-0.32 0.041-1.409 0.542-0.21 2.061 0.213 3.135 0.55 1.47 0.335 3.099-0.035 4.594-0.416-1.041 0.123-2.334-0.707-3.207-0.306-0.322-0.583-0.302-1.408-0.121l0.391 1.605c-0.547-0.713-1.387-2.244-2.709-1.664l1.234 4.701-0.301 2.977s-3.459-0.001-4.357 0.793c-1.776 1.416-2.655 3.03-3.02 5.184-0.419 2.492-0.111 6.01 3.234 5.809l-0.486-1.576c1.458 2.153 2.386 1.776 2.93 1.545l-1.02-1.658c1.593 1.303 3.288 1.89 4.656 0.559l-2.918-1.236c1.827 0.129 4.394 0.649 6.04-0.451 0.992-0.471 0.226-0.653-0.406-0.52-0.568 0.002-1.137 0.008-1.705 0.012 0.109-0.013 0.217-0.041 0.316-0.102 1.868-0.104 3.997-0.722 4.953-2.457-0.031-1.152-1.7 0.2-2.434 0.182-1.178 0.349-2.426 0.614-3.656 0.414 2.24-1.017 5.02-0.674 6.969-2.34 0.595-0.522 1.051-1.806 0.975-2.768-1.441 1.135-3.1 1.734-3.1 1.734 0.654-0.751 1.629-1.29 2.266-2.096 1.148-1.453 1.726-3.362 1.031-5.07-1.021 1.407-1.953 2.874-2.971 4.283 1.442-3 3.807-5.233 1.555-7.748-1.227 3.513-2.951 6.291-4.453 8.746 0.99-3 3.618-5.608 3.736-8.688 0.048-1.243-0.284-3.553-1.639-3.641-1.099-0.071-0.32 1.32-0.402 3.217-0.084 1.929-0.64 3.793-1.293 5.594 0.427-2.515 1.626-5.138 0.732-7.668-0.284-0.805-1.125-2.034-1.889-2.113zm-6.426 5.465c-0.828 0.009-1.68 0.323-2.029 0.912-0.184 0.31-0.085 0.485-0.006 0.752l-2.814 0.328 0.281 0.994c-0.504-0.387-1.263-0.612-1.705-0.18-0.545 0.502-0.536 1.374-0.248 2.01 0.488 0.045 0.518-0.539 1.148-0.623 0.849-0.113 1.783 0.142 2.342 0.791 0.277 0.325 0.394 0.87 0.037 1.188-0.461 0.436-1.533 0.88-1.709 1.166 0 0 0.595-0.03 0.789-0.053 0.806-0.096 1.644-0.294 2.26-0.893 0.259-0.252 0.414-0.793 0.414-0.793 0.686 0.538 1.333 0.41 1.779 0.145 0.265-0.158 0.801-0.617 0.801-0.617 0.159 0.335 0.41 0.996 0.41 0.996l0.906-0.121c-0.115-0.876-0.836-1.369-1.426-1.582-0.502-0.182-1.043-0.37-1.389-0.801 0.675-0.204 1.263-0.704 1.479-1.383 0.264-0.672 0.539-2.148 0.539-2.148l-2.531 1.215 1.041-0.922c0.113-0.393-0.036-0.382-0.369-0.379zm-2.9 2.695c0.222 0.046 0.403 0.178 0.58 0.324-0.368 0.297-1 0.369-1.404-0.121 0.338-0.209 0.602-0.249 0.824-0.203zm-0.391 2.518c-1.759 0.318-3.47 0.656-4.227 1.867l4.207-1.172 0.02-0.695zm-7.17 0.385c-1.292 0-1.648 0.724-1.742 1.512-0.098 0.814-0.042 1.63-0.094 2.443-0.564-0.545-0.622-1.55-1.424-1.844-0.625-0.229-1.053 0.604-0.896 1.148 0.163 0.567 0.977 0.473 0.977 0.473 0.162 0.494 0.59 1.188 0.852 1.633 0.33 0.561 0.488 1.192 0.637 1.818 0.129 0.543 0.419 1.128 0.23 1.67-0.182 0.522-0.284 1.163 0.125 1.588 0.23 0.309 0.733 0.889 1.051 0.543 0.342-0.372 0.245-0.98 0.158-1.475l-0.324-1.855 2.844 2.391c0.446 0.376 1.385 0.377 1.16-0.398-0.275-0.948-1.126-1.55-1.932-2.039-0.686-0.441-1.462-0.866-1.863-1.604-0.248-0.49-0.124-1.167 0.396-1.428 0.629-0.417 1.554-0.367 2.02-1.01 0.319-0.445-0.259-0.944-0.703-0.984l-0.889-0.08-1.326 1.238 0.748-3.74zm14.375 9.04c0.471-0.04 1.126 0.41 1.697 0.412-0.725 0.004-1.451 0.004-2.176-0.021 0.112-0.269 0.28-0.374 0.479-0.391z"/>
 <path id="path39" style="fill:#f9f9f9" d="m31.08 11c-0.109-0.011-0.216 0.001-0.32 0.041-1.409 0.542-0.21 2.061 0.213 3.135 0.55 1.47 0.335 3.099-0.035 4.594-0.416-1.041 0.123-2.334-0.707-3.207-0.306-0.322-0.583-0.302-1.408-0.121l0.391 1.605c-0.547-0.713-1.387-2.244-2.709-1.664l1.234 4.701-0.301 2.977s-3.459-0.001-4.357 0.793c-1.776 1.416-2.655 3.03-3.02 5.184-0.419 2.492-0.111 6.01 3.234 5.809l-0.486-1.576c1.458 2.153 2.386 1.776 2.93 1.545l-1.02-1.658c1.593 1.303 3.288 1.89 4.656 0.559l-2.918-1.236c1.827 0.129 4.394 0.649 6.04-0.451 0.992-0.471 0.226-0.653-0.406-0.52-0.568 0.002-1.137 0.008-1.705 0.012 0.109-0.013 0.217-0.041 0.316-0.102 1.868-0.104 3.997-0.722 4.953-2.457-0.031-1.152-1.7 0.2-2.434 0.182-1.178 0.349-2.426 0.614-3.656 0.414 2.24-1.017 5.02-0.674 6.969-2.34 0.595-0.522 1.051-1.806 0.975-2.768-1.441 1.135-3.1 1.734-3.1 1.734 0.654-0.751 1.629-1.29 2.266-2.096 1.148-1.453 1.726-3.362 1.031-5.07-1.021 1.407-1.953 2.874-2.971 4.283 1.442-3 3.807-5.233 1.555-7.748-1.227 3.513-2.951 6.291-4.453 8.746 0.99-3 3.618-5.608 3.736-8.688 0.048-1.243-0.284-3.553-1.639-3.641-1.099-0.071-0.32 1.32-0.402 3.217-0.084 1.929-0.64 3.793-1.293 5.594 0.427-2.515 1.626-5.138 0.732-7.668-0.284-0.805-1.125-2.034-1.889-2.113zm-6.426 5.465c-0.828 0.009-1.68 0.323-2.029 0.912-0.184 0.31-0.085 0.485-0.006 0.752l-2.814 0.328 0.281 0.994c-0.504-0.387-1.263-0.612-1.705-0.18-0.545 0.502-0.536 1.374-0.248 2.01 0.488 0.045 0.518-0.539 1.148-0.623 0.849-0.113 1.783 0.142 2.342 0.791 0.277 0.325 0.394 0.87 0.037 1.188-0.461 0.436-1.533 0.88-1.709 1.166 0 0 0.595-0.03 0.789-0.053 0.806-0.096 1.644-0.294 2.26-0.893 0.259-0.252 0.414-0.793 0.414-0.793 0.686 0.538 1.333 0.41 1.779 0.145 0.265-0.158 0.801-0.617 0.801-0.617 0.159 0.335 0.41 0.996 0.41 0.996l0.906-0.121c-0.115-0.876-0.836-1.369-1.426-1.582-0.502-0.182-1.043-0.37-1.389-0.801 0.675-0.204 1.263-0.704 1.479-1.383 0.264-0.672 0.539-2.148 0.539-2.148l-2.531 1.215 1.041-0.922c0.113-0.393-0.036-0.382-0.369-0.379zm-2.9 2.695c0.222 0.046 0.403 0.178 0.58 0.324-0.368 0.297-1 0.369-1.404-0.121 0.338-0.209 0.602-0.249 0.824-0.203zm-0.391 2.518c-1.759 0.318-3.47 0.656-4.227 1.867l4.207-1.172 0.02-0.695zm-7.17 0.385c-1.292 0-1.648 0.724-1.742 1.512-0.098 0.814-0.042 1.63-0.094 2.443-0.564-0.545-0.622-1.55-1.424-1.844-0.625-0.229-1.053 0.604-0.896 1.148 0.163 0.567 0.977 0.473 0.977 0.473 0.162 0.494 0.59 1.188 0.852 1.633 0.33 0.561 0.488 1.192 0.637 1.818 0.129 0.543 0.419 1.128 0.23 1.67-0.182 0.522-0.284 1.163 0.125 1.588 0.23 0.309 0.733 0.889 1.051 0.543 0.342-0.372 0.245-0.98 0.158-1.475l-0.324-1.855 2.844 2.391c0.446 0.376 1.385 0.377 1.16-0.398-0.275-0.948-1.126-1.55-1.932-2.039-0.686-0.441-1.462-0.866-1.863-1.604-0.248-0.49-0.124-1.167 0.396-1.428 0.629-0.417 1.554-0.367 2.02-1.01 0.319-0.445-0.259-0.944-0.703-0.984l-0.889-0.08-1.326 1.238 0.748-3.74zm14.375 9.04c0.471-0.04 1.126 0.41 1.697 0.412-0.725 0.004-1.451 0.004-2.176-0.021 0.112-0.269 0.28-0.374 0.479-0.391z"/>
</svg>
