<svg xmlns="http://www.w3.org/2000/svg" height="48" viewBox="0 0 48 48.000001" width="48">
  <defs>
    <linearGradient id="a" y2="24" gradientUnits="userSpaceOnUse" x2="-1" gradientTransform="rotate(-90 37.45 12.45)" y1="24" x1="-47">
      <stop offset="0" stop-color="#99cbff"/>
      <stop offset="1" stop-color="#acd5ff"/>
    </linearGradient>
  </defs>
  <path d="M1 43v.25c0 2.216 1.784 4 4 4h38c2.216 0 4-1.784 4-4V43c0 2.216-1.784 4-4 4H5c-2.216 0-4-1.784-4-4zm0 .5v.5c0 2.216 1.784 4 4 4h38c2.216 0 4-1.784 4-4v-.5c0 2.216-1.784 4-4 4H5c-2.216 0-4-1.784-4-4z" opacity=".02"/>
  <path d="M1 43.25v.25c0 2.216 1.784 4 4 4h38c2.216 0 4-1.784 4-4v-.25c0 2.216-1.784 4-4 4H5c-2.216 0-4-1.784-4-4z" opacity=".05"/>
  <path d="M1 43v.25c0 2.216 1.784 4 4 4h38c2.216 0 4-1.784 4-4V43c0 2.216-1.784 4-4 4H5c-2.216 0-4-1.784-4-4z" opacity=".1"/>
  <rect rx="4" transform="rotate(-90)" height="46" width="46" y="1" x="-47" fill="url(#a)"/>
  <path d="M1 39v4c0 2.216 1.784 4 4 4h38c2.216 0 4-1.784 4-4v-4c0 2.216-1.784 4-4 4H5c-2.216 0-4-1.784-4-4z" opacity=".1"/>
  <g>
    <path d="M36.641 12.5s-5.34.944-5.318 5.756c-2.252-2.607-6.05-3.791-9.107-3.791a9.82 9.82 0 0 0-3 .629c-7.223-2.617-10.95 4.481-5.824 8.381-.082.541-.138 1.01-.164 1.256 0 1.418.262 2.802.72 4.03-.657.336-1.31 1.139-.165 1.939-.082.035-.146.066-.189.125-.57.73.72 1.301 1.293 1.742.31.238 1.174.617 2.365.738a8.164 8.164 0 0 0 4.975 1.688c3.415 0 7.612-3.702 9.768-7 .636 1.476 2.495 2.48 5.02 2.094-1.02-1.504-3.645-3.906-1.75-8.52 1.366-2.393-.798-7.492 1.385-9.07z" opacity=".1"/>
  </g>
  <g>
    <path d="M36.64 11.5s-6.753 1.176-5.062 7.699c.145.566.387 7.75.387 7.75.617 1.5 2.492 2.527 5.04 2.137-1.02-1.504-3.645-3.906-1.75-8.52 1.367-2.395-.801-7.5 1.39-9.07m0 .004" fill="#70a3d7"/>
    <path d="M13.867 29.945l2.207-.207 3.789-.188-.152-1.25 5.14-2.172.122 1.438-3.246 3.918s-1.04-.699-1.23-.699c-.188 0-6.03.137-6.03.137m-.605-.977" fill="#5b87c0"/>
    <path d="M12.426 19.301l1.27 2.688.734-.746 3.01-6.363-3.38.008-1.718 1.98m.082 2.434" fill="#f9f9f9"/>
    <path d="M15.41 17.809a.764.764 0 0 1-1.156.688.78.78 0 0 1-.375-.688.78.78 0 0 1 .375-.688.774.774 0 0 1 .78 0 .763.763 0 0 1 .376.688" fill="#2d2d2d"/>
    <path d="M24.21 13.996s-3.25 1.695-3.387 2.113c-.141.418-.445 8.348-.445 8.348l4.582 1.973 4.805-1.781-.36-4.699-2.636-4.762m-2.56-1.191" fill="#f9f9f9"/>
    <path d="M21.14 22.578c.25 5.652 9.328 4.191 8.09-1.477-1.223 1.938-3.72 5.121-8.09 1.477M20.906 17.918c1.707-1.301 5.504-1.406 7.84.953-1.512-5.973-6.914-6.121-7.84-.953" fill="#6fa2d6"/>
    <path d="M26.457 19.934c.016.422-.2.816-.563 1.027a1.145 1.145 0 0 1-1.172 0 1.153 1.153 0 0 1-.563-1.027 1.16 1.16 0 0 1 .563-1.031 1.148 1.148 0 0 1 1.735 1.031" fill="#2d2d2d"/>
    <path d="M17.656 15.293l1.594-1.188c-7.34-2.691-11.11 4.648-5.684 8.52l.316-.965c-2.926-4.801-.215-6.895 3.773-6.367" fill="#6fa3d6"/>
    <path d="M31.746 17.789c-2.172-2.98-6.277-4.324-9.531-4.324-8.176.465-8.832 8.727-8.992 10.266 0 1.418.262 2.801.719 4.03-.656.336-1.31 1.141-.164 1.941-.082.035-.148.066-.191.125-.57.73.719 1.301 1.293 1.742.309.238 1.176.617 2.367.738a8.158 8.158 0 0 0 4.973 1.688c3.664 0 8.262-4.27 10.234-7.723 1.813-2.75 1.496-6.09-.703-8.488m-7.355-3.469c2.777-.223 8.648 9.363 1.332 11.637-5.418 1.262-7.086-10.34-1.332-11.637m.05 12.207c.04.016.09.047.122.105.25.406-.164 1.234-1.172 2.379-1.012 1.141-1.82 1.793-1.82 1.793s1.273-1.316.816-1.48c-.453-.148-1.11.957-3.801 1.129-1.684.109-4.426-.438-4.426-.438s2.633.387 4.52.098c2.07-.313 4.293-1.551 3.184-1.5-1.102.055-1.75.027-1.75.027s1.523-.41 2.688-.98c.87-.43 1.27-1.012 1.523-1.102.043-.023.082-.039.12-.027m-.003 0" fill="#2e69b0"/>
  </g>
</svg>
