<svg version="1.1" viewBox="0 0 48 48" xmlns="http://www.w3.org/2000/svg">
 <defs>
  <linearGradient id="bg" x2="0" y1="1" y2="47" gradientUnits="userSpaceOnUse">
   <stop style="stop-color:#1280b0" offset="0"/>
   <stop style="stop-color:#10729d" offset="1"/>
  </linearGradient>
 </defs>
 <path d="m1 43v0.25c0 2.22 1.78 4 4 4h38c2.22 0 4-1.78 4-4v-0.25c0 2.22-1.78 4-4 4h-38c-2.22 0-4-1.78-4-4zm0 0.5v0.5c0 2.22 1.78 4 4 4h38c2.22 0 4-1.78 4-4v-0.5c0 2.22-1.78 4-4 4h-38c-2.22 0-4-1.78-4-4z" style="opacity:.02"/>
 <path d="m1 43.2v0.25c0 2.22 1.78 4 4 4h38c2.22 0 4-1.78 4-4v-0.25c0 2.22-1.78 4-4 4h-38c-2.22 0-4-1.78-4-4z" style="opacity:.05"/>
 <path d="m1 43v0.25c0 2.22 1.78 4 4 4h38c2.22 0 4-1.78 4-4v-0.25c0 2.22-1.78 4-4 4h-38c-2.22 0-4-1.78-4-4z" style="opacity:.1"/>
 <rect x="1" y="1" width="46" height="46" rx="4" style="fill:url(#bg)"/>
 <path d="m1 39v4c0 2.22 1.78 4 4 4h38c2.22 0 4-1.78 4-4v-4c0 2.22-1.78 4-4 4h-38c-2.22 0-4-1.78-4-4z" style="opacity:.1"/>
 <path d="m12 14v20c0 1.11 0.892 2 2 2h20c1.11 0 2-0.892 2-2v-20z" style="opacity:.1"/>
 <path d="m14 11c-1.11 0-2 0.892-2 2v3l12 1 12-1v-3c0-1.11-0.892-2-2-2z" style="fill:#52b1e0"/>
 <path d="m12 16v17c0 1.11 0.892 2 2 2h20c1.11 0 2-0.892 2-2v-17z" style="fill:#f9f9f9"/>
 <path d="m15 21c-0.554 0-1 0.446-1 1s0.446 1 1 1h5v-2zm8 0v2h10c0.554 0 1-0.446 1-1s-0.446-1-1-1z" style="fill:#88c7e7"/>
 <path d="m20 21h3c0.554 0 1 0.446 1 1s-0.446 1-1 1h-3c-0.554 0-1-0.446-1-1s0.446-1 1-1z" style="fill:#1198d4"/>
 <path d="m15 18c-0.554 0-1 0.446-1 1s0.446 1 1 1h18c0.554 0 1-0.446 1-1s-0.446-1-1-1zm0 6c-0.554 0-1 0.446-1 1s0.446 1 1 1h18c0.554 0 1-0.446 1-1s-0.446-1-1-1zm0 3c-0.554 0-1 0.446-1 1s0.446 1 1 1h18c0.554 0 1-0.446 1-1s-0.446-1-1-1zm0 3c-0.554 0-1 0.446-1 1s0.446 1 1 1h18c0.554 0 1-0.446 1-1s-0.446-1-1-1z" style="opacity:.15"/>
</svg>
