<svg version="1.1" viewBox="0 0 48 48" xmlns="http://www.w3.org/2000/svg">
 <defs>
  <linearGradient id="bg" x2="0" y1="1" y2="47" gradientUnits="userSpaceOnUse">
   <stop style="stop-color:#1a466b" offset="0"/>
   <stop style="stop-color:#163b5a" offset="1"/>
  </linearGradient>
 </defs>
 <path d="m1 43v.25c0 2.22 1.78 4 4 4h38c2.22 0 4-1.78 4-4v-.25c0 2.22-1.78 4-4 4h-38c-2.22 0-4-1.78-4-4zm0 .5v.5c0 2.22 1.78 4 4 4h38c2.22 0 4-1.78 4-4v-.5c0 2.22-1.78 4-4 4h-38c-2.22 0-4-1.78-4-4z" style="opacity:.02"/>
 <path d="m1 43.2v.25c0 2.22 1.78 4 4 4h38c2.22 0 4-1.78 4-4v-.25c0 2.22-1.78 4-4 4h-38c-2.22 0-4-1.78-4-4z" style="opacity:.05"/>
 <path d="m1 43v.25c0 2.22 1.78 4 4 4h38c2.22 0 4-1.78 4-4v-.25c0 2.22-1.78 4-4 4h-38c-2.22 0-4-1.78-4-4z" style="opacity:.1"/>
 <rect x="1" y="1" width="46" height="46" rx="4" style="fill:url(#bg)"/>
 <path d="m1 39v4c0 2.22 1.78 4 4 4h38c2.22 0 4-1.78 4-4v-4c0 2.22-1.78 4-4 4h-38c-2.22 0-4-1.78-4-4z" style="opacity:.1"/>
 <path d="m27 10c.441 1.67-6.28 2.22-3 5-1.76-2.22 5.79-3 3-5zm-3 5a11 3 0 00-11 3 11 3 0 001.01 1.25 13 9 0 00-3.01 5.75 13 9 0 002.75 5.52c-.424 1.02-.75 2.19-.75 3.48 1.31 0 3-.579 4.49-1.22a13 9 0 006.51 1.22 13 9 0 006.52-1.22c1.49.645 3.17 1.22 4.48 1.22 0-1.29-.325-2.46-.748-3.47a13 9 0 002.75-5.53 13 9 0 00-3.01-5.75 11 3 0 001.01-1.25 11 3 0 00-6.48-2.73c2.59-1.54 6.27-2.86 3.5-5.27.605 1.97-4.68 3.08-6.44 5.03a11 3 0 00-1.57-.033m0 1a9 2 0 011.03.014c-.153.821.352 1.79 1.99 2.99-1.07-1.16-.692-2.06.238-2.86a9 2 0 015.74 1.86 9 2 0 01-9 2 9 2 0 01-9-2 9 2 0 019-2z" style="opacity:.1"/>
 <path d="m24 14a11 3 0 00-11 3 11 3 0 001.01 1.25 13 9 0 00-3.01 5.75 13 9 0 002.75 5.52c-.424 1.02-.75 2.19-.75 3.48 1.31 0 3-.579 4.49-1.22a13 9 0 006.51 1.22 13 9 0 006.52-1.22c1.49.645 3.17 1.22 4.48 1.22 0-1.29-.325-2.46-.75-3.47a13 9 0 002.75-5.53 13 9 0 00-3.01-5.75 11 3 0 001.01-1.25 11 3 0 00-11-3m0 1a9 2 0 019 2 9 2 0 01-9 2 9 2 0 01-9-2 9 2 0 019-2z" style="fill:#f4ab69"/>
 <path d="m23.8 14a11 3 0 00-.623.0098c.124.297.374.622.807.988-.293-.369-.315-.696-.184-.998zm2.91.0938c-.461.292-.853.603-1.15.936a9 2 0 012.94.24c.453-.27.92-.538 1.4-.801a11 3 0 00-3.18-.375zm.201 4.79a9 2 0 01-.0488.0039c.0485.0365.0881.0705.139.107-.0349-.0379-.058-.074-.0898-.111z" style="opacity:.1"/>
 <path d="m27 9c.441 1.67-6.28 2.22-3 5-1.76-2.22 5.79-3 3-5zm5.01 0c.921 3-11.8 4-4.99 9-3.68-4 9.6-5 4.99-9z" style="fill:#fbecda"/>
</svg>
