<?xml version="1.0" encoding="UTF-8" standalone="no"?>
<!-- Created with Inkscape (http://www.inkscape.org/) -->
<svg id="svg4340" xmlns:rdf="http://www.w3.org/1999/02/22-rdf-syntax-ns#" xmlns="http://www.w3.org/2000/svg" height="48" viewBox="0 0 48 48.000001" width="48" version="1.1" xmlns:cc="http://creativecommons.org/ns#" xmlns:dc="http://purl.org/dc/elements/1.1/">
 <defs id="defs4342">
  <linearGradient id="linearGradient4192" x1="-47" gradientUnits="userSpaceOnUse" y1="24" gradientTransform="matrix(0,-1,1,0,25,49.901)" x2="-1" y2="24">
   <stop id="stop7-47" style="stop-color:#555" offset="0"/>
   <stop id="stop9-6" style="stop-color:#5f5f5f" offset="1"/>
  </linearGradient>
 </defs>
 <metadata id="metadata4345">
  <rdf:RDF>
   <cc:Work rdf:about="">
    <dc:format>image/svg+xml</dc:format>
    <dc:type rdf:resource="http://purl.org/dc/dcmitype/StillImage"/>
    <dc:title/>
   </cc:Work>
  </rdf:RDF>
 </metadata>
 <g id="g21">
  <path id="path23" style="opacity:.02" d="m1 43v0.25c0 2.216 1.784 4 4 4h38c2.216 0 4-1.784 4-4v-0.25c0 2.216-1.784 4-4 4h-38c-2.216 0-4-1.784-4-4zm0 0.5v0.5c0 2.216 1.784 4 4 4h38c2.216 0 4-1.784 4-4v-0.5c0 2.216-1.784 4-4 4h-38c-2.216 0-4-1.784-4-4z"/>
  <path id="path25" style="opacity:.05" d="m1 43.25v0.25c0 2.216 1.784 4 4 4h38c2.216 0 4-1.784 4-4v-0.25c0 2.216-1.784 4-4 4h-38c-2.216 0-4-1.784-4-4z"/>
  <path id="path27" style="opacity:.1" d="m1 43v0.25c0 2.216 1.784 4 4 4h38c2.216 0 4-1.784 4-4v-0.25c0 2.216-1.784 4-4 4h-38c-2.216 0-4-1.784-4-4z"/>
 </g>
 <rect id="rect4190" style="fill:url(#linearGradient4192)" rx="4" transform="rotate(-90)" height="46" width="46" y="1" x="-47"/>
 <g id="g57">
  <g id="g59" transform="translate(0,-1004.4)">
   <path id="path61" style="opacity:.1" d="m1 1043.4v4c0 2.216 1.784 4 4 4h38c2.216 0 4-1.784 4-4v-4c0 2.216-1.784 4-4 4h-38c-2.216 0-4-1.784-4-4z"/>
  </g>
 </g>
 <g id="g23" transform="matrix(-1 0 0 1 49.021 -1.0004)">
  <g id="g25">
   <g id="g27" transform="translate(1,1)">
    <g id="g29" style="opacity:.1"><!-- color: #0084c8 -->
     <g id="g31">
      <path id="path33" d="m12.04 16.297c0.367 0.168 0.754 0.605 0.754 0.605l6.871 1.32s0.121-0.203 0.25-0.379l0.23-0.32h4.281l0.066-0.293 0.066-0.289h4.379l0.07 0.324 0.066 0.332 1.406 0.016 1.406 0.023 0.02 1.605 0.02 1.609h-1.949l0.074 0.313 0.078 0.313h6.01l0.582 2.68 0.754 0.043c1.031 0.133 1.648 0.492 2.234 1.313 0.066 0.094 0.301 0.734 0.301 1.203-0.039 0.684-0.242 1.238-0.605 1.805-0.188 0.297-0.438 0.629-0.867 0.91-0.211 0.145-0.523 0.398-0.719 0.574-0.57 0.523-1.227 0.953-1.84 1.41-0.352 0.262-0.805 0.434-1.293 0.539-0.168 0.035-4.926 0.063-10.582 0.055-9.418-0.012-10.313-0.027-10.699-0.145-0.637-0.195-1.301-0.578-1.516-0.789-0.898-0.738-2.234-1.813-2.754-2.145-0.523-0.328-0.672-0.691-0.855-1.02-0.082-0.141-0.168-0.426-0.199-0.625-0.07-0.461-0.098-0.848-0.027-1.281 0.063-0.434 0.395-1.129 0.645-1.328 0.563-0.449 1.324-0.629 2.742-0.629l0.852-0.004-0.113-0.57 2.813-1.895 4.113-0.211-0.953-1.195 0.707-0.953-6.152-1.57s-0.488 0.168-0.883 0.133c-0.391-0.035-1.355-0.371-1.355-0.371l0.211-1.402s0.93 0.145 1.375 0.289m24.563 13.645c-0.324 0-0.453 0.027-0.453 0.102 0 0.059-0.082 0.266-0.18 0.465-0.105 0.199-0.176 0.363-0.172 0.359 0.004 0 0.098-0.074 0.199-0.152 0.102-0.086 0.215-0.152 0.242-0.152 0.066-0.004 0.813-0.547 0.813-0.594 0-0.016-0.203-0.031-0.453-0.031m-24.672 0.004h-0.121c-0.199 0-0.363 0.012-0.363 0.027 0 0.016 0.195 0.184 0.438 0.375 0.234 0.191 0.52 0.395 0.621 0.449l0.188 0.102-0.164-0.168c-0.094-0.09-0.211-0.305-0.262-0.473-0.078-0.27-0.09-0.305-0.336-0.313m16.14 0.852c-0.016 0-0.027 0.031-0.051 0.078-0.027 0.066-0.184 0.25-0.348 0.41l-0.309 0.289 0.75-0.004 0.746-0.004-0.188-0.156c-0.398-0.32-0.504-0.43-0.559-0.539-0.02-0.051-0.031-0.074-0.051-0.074m-3.852 0.004c-0.016 0-0.027 0.023-0.047 0.074-0.066 0.141-0.313 0.387-0.563 0.563-0.184 0.125-0.168 0.129 0.563 0.133l0.754 0.004-0.309-0.289c-0.168-0.16-0.328-0.344-0.352-0.41-0.023-0.047-0.035-0.066-0.051-0.066m7.781 0.004c-0.012 0-0.027 0.02-0.047 0.063-0.043 0.105-0.145 0.195-0.555 0.543l-0.188 0.156 0.746 0.004 0.754 0.004-0.305-0.289c-0.168-0.156-0.328-0.344-0.352-0.406-0.023-0.043-0.035-0.07-0.055-0.074m-15.566 0.004c-0.016-0.004-0.027 0.016-0.043 0.055-0.098 0.203-0.426 0.559-0.527 0.559-0.055 0-0.121 0.035-0.148 0.078-0.027 0.051 0.23 0.074 0.734 0.074 0.637-0.004 0.75-0.02 0.629-0.094-0.203-0.129-0.535-0.457-0.594-0.598-0.016-0.047-0.035-0.066-0.051-0.07m3.813 0.055c-0.012 0-0.02 0.008-0.023 0.02-0.02 0.059-0.168 0.238-0.328 0.398l-0.297 0.289h1.457l-0.398-0.395c-0.219-0.215-0.355-0.32-0.41-0.316"/>
      <path id="path35" d="m18 26c0 1-0.258 0.938-1 1h-2v1h3v2l-4.996-0.004-0.004-2.996c0-1 0.492-1 1-1h1.301c0.379 0 0.57-0.027 0.57-0.207v-0.48c0-0.164-0.191-0.313-0.57-0.313h-2.301l0.02-1c1.309 0 2.73 0 3.977 0.004 1 0 1 0.75 1 1v1"/>
      <path id="path37" d="m23 30h-2v-5h-2v-1h3.996v6"/>
      <path id="path39" d="m28.973 29.22c0.027 0.777-0.57 0.777-0.926 0.766h-3c-0.961 0-1.047-0.258-1.047-0.77v-4.438c0-0.781 0.707-0.781 1.047-0.781l2.953 0.012c1 0 1 0.48 0.973 0.793v4.43m-1.977-0.516v-3.398c0-0.184-0.109-0.313-0.496-0.313-0.379 0-0.5 0.133-0.5 0.313v3.398c0 0.148 0.121 0.281 0.5 0.281 0.387 0 0.496-0.133 0.496-0.281"/>
      <path id="path41" d="m35 29.01c0 0.215 0 1-1 1h-3c-1 0-1-0.617-1-1v-4.23c0-0.773 0.613-0.773 1-0.773h3c0.188 0 1 0 1 0.895m-2 0.422c0-0.188-0.109-0.313-0.496-0.313-0.379 0-0.5 0.188-0.5 0.371v3.313c0 0.16 0.121 0.316 0.5 0.316 0.387 0 0.496-0.109 0.496-0.273"/>
     </g>
    </g>
   </g>
  </g>
 </g>
 <path id="path43" style="fill:#cecece" d="m35.981 15.297c-0.367 0.168-0.754 0.605-0.754 0.605l-6.871 1.32s-0.121-0.203-0.25-0.379l-0.23-0.32h-4.281l-0.066-0.293-0.066-0.289h-4.379l-0.07 0.324-0.066 0.332-1.406 0.016-1.406 0.023-0.02 1.605-0.02 1.609h1.949l-0.074 0.313-0.078 0.313h-6.01l-0.582 2.68-0.754 0.043c-1.031 0.133-1.648 0.492-2.234 1.313-0.066 0.094-0.301 0.734-0.301 1.203 0.039 0.684 0.242 1.238 0.605 1.805 0.188 0.297 0.438 0.629 0.867 0.91 0.211 0.145 0.523 0.398 0.719 0.574 0.57 0.523 1.227 0.953 1.84 1.41 0.352 0.262 0.805 0.434 1.293 0.539 0.168 0.035 4.926 0.063 10.582 0.055 9.418-0.012 10.313-0.027 10.699-0.145 0.637-0.195 1.301-0.578 1.516-0.789 0.898-0.738 2.234-1.813 2.754-2.145 0.523-0.328 0.672-0.691 0.855-1.02 0.082-0.141 0.168-0.426 0.199-0.625 0.07-0.461 0.098-0.848 0.027-1.281-0.063-0.434-0.395-1.129-0.645-1.328-0.563-0.449-1.324-0.629-2.742-0.629l-0.852-0.004 0.113-0.57-2.813-1.895-4.113-0.211 0.953-1.195-0.707-0.953 6.152-1.57s0.488 0.168 0.883 0.133c0.391-0.035 1.355-0.371 1.355-0.371l-0.211-1.402s-0.93 0.145-1.375 0.289m-24.563 13.645c0.324 0 0.453 0.027 0.453 0.102 0 0.059 0.082 0.266 0.18 0.465 0.105 0.199 0.176 0.363 0.172 0.359-0.004 0-0.098-0.074-0.199-0.152-0.102-0.086-0.215-0.152-0.242-0.152-0.066-0.004-0.813-0.547-0.813-0.594 0-0.016 0.203-0.031 0.453-0.031m24.672 0.004h0.121c0.199 0 0.363 0.012 0.363 0.027 0 0.016-0.195 0.184-0.438 0.375-0.234 0.191-0.52 0.395-0.621 0.449l-0.188 0.102 0.164-0.168c0.094-0.09 0.211-0.305 0.262-0.473 0.078-0.27 0.09-0.305 0.336-0.313m-16.14 0.852c0.016 0 0.027 0.031 0.051 0.078 0.027 0.066 0.184 0.25 0.348 0.41l0.309 0.289-0.75-0.004-0.746-0.004 0.188-0.156c0.398-0.32 0.504-0.43 0.559-0.539 0.02-0.051 0.031-0.074 0.051-0.074m3.852 0.004c0.016 0 0.027 0.023 0.047 0.074 0.066 0.141 0.313 0.387 0.563 0.563 0.184 0.125 0.168 0.129-0.563 0.133l-0.754 0.004 0.309-0.289c0.168-0.16 0.328-0.344 0.352-0.41 0.023-0.047 0.035-0.066 0.051-0.066m-7.781 0.004c0.012 0 0.027 0.02 0.047 0.063 0.043 0.105 0.145 0.195 0.555 0.543l0.188 0.156-0.746 0.004-0.754 0.004 0.305-0.289c0.168-0.156 0.328-0.344 0.352-0.406 0.023-0.043 0.035-0.07 0.055-0.074m15.566 0.004c0.016-0.004 0.027 0.016 0.043 0.055 0.098 0.203 0.426 0.559 0.527 0.559 0.055 0 0.121 0.035 0.148 0.078 0.027 0.051-0.23 0.074-0.734 0.074-0.637-0.004-0.75-0.02-0.629-0.094 0.203-0.129 0.535-0.457 0.594-0.598 0.016-0.047 0.035-0.066 0.051-0.07m-3.813 0.055c0.012 0 0.02 0.008 0.023 0.02 0.02 0.059 0.168 0.238 0.328 0.398l0.297 0.289h-1.457l0.398-0.395c0.219-0.215 0.355-0.32 0.41-0.316"/>
</svg>
