<svg width="48" height="48" version="1.1" viewBox="0 0 48 48" xmlns="http://www.w3.org/2000/svg">
 <defs>
  <linearGradient id="linearGradient4217" x1="1" x2="47" gradientTransform="translate(-48 .00221)" gradientUnits="userSpaceOnUse">
   <stop style="stop-color:#ebe931" offset="0"/>
   <stop style="stop-color:#edeb43" offset="1"/>
  </linearGradient>
 </defs>
 <path d="m1 43v0.25c0 2.216 1.784 4 4 4h38c2.216 0 4-1.784 4-4v-0.25c0 2.216-1.784 4-4 4h-38c-2.216 0-4-1.784-4-4zm0 0.5v0.5c0 2.216 1.784 4 4 4h38c2.216 0 4-1.784 4-4v-0.5c0 2.216-1.784 4-4 4h-38c-2.216 0-4-1.784-4-4z" style="opacity:.02"/>
 <path d="m1 43.25v0.25c0 2.216 1.784 4 4 4h38c2.216 0 4-1.784 4-4v-0.25c0 2.216-1.784 4-4 4h-38c-2.216 0-4-1.784-4-4z" style="opacity:.05"/>
 <path d="m1 43v0.25c0 2.216 1.784 4 4 4h38c2.216 0 4-1.784 4-4v-0.25c0 2.216-1.784 4-4 4h-38c-2.216 0-4-1.784-4-4z" style="opacity:.1"/>
 <rect transform="rotate(-90)" x="-47" y="1" width="46" height="46" rx="4" style="fill:url(#linearGradient4217)"/>
 <g transform="translate(0,-1004.4)">
  <path d="m1 1043.4v4c0 2.216 1.784 4 4 4h38c2.216 0 4-1.784 4-4v-4c0 2.216-1.784 4-4 4h-38c-2.216 0-4-1.784-4-4z" style="opacity:.1"/>
 </g>
 <path d="m14.124 32.568s-0.20694 0.57606-0.08594 0.82227c0.58108 1.0302 6.3328 2.9962 6.8828 2.543 0.50663-0.1141 0.74414-1.0527 0.74414-1.0527l3.3633-8.9609 3.4922 9.3418s0.2082 0.57635 0.45703 0.68359l2e-3 2e-3c1.1066 0.4148 6.7759-1.7648 6.9023-2.4648 0.3166-0.4148-0.10742-1.2891-0.10742-1.2891l-8.8495-18.186 0.26562-0.99805c0.73968 4e-3 0.52887-0.98405 0.51367-1.291 0.56641-0.32716 0.15477-0.52773 0.08789-0.63477-0.86682-0.39038-1.4797-0.60405-2.2598-0.8438z" style="opacity:.1;stroke-width:1.0115"/>
 <path d="m28.98 34.948c1.1066 0.4148 6.7761-1.7664 6.9026-2.4665 0.3166-0.4148-0.10621-1.2879-0.10621-1.2879l-4.1563-11.749c-0.52486-1.4836-2.4898-1.735-2.9121-2.6355l-2.7897-5.9478c0.56948-0.47449-0.22557-1.0947-0.43495-1.3203 0.22152-0.61612-0.22557-0.5018-0.34391-0.54126-1.2128 0.33993-1.758 0.5534-3.0184 1.1149 0 0-0.37527 0.50585 0.19724 0.56554 0.17398 0.12242-0.46631 1.3395 0.50171 1.3203l1.6751 6.4222c0.28548 1.0945-1.0659 2.2159-0.55734 3.5763l4.5832 12.262s0.20938 0.57667 0.45821 0.68391" style="fill:#634520;stroke-width:1.0116"/>
 <path d="m25.918 10.861c7.97e-4 -4e-5 -1.9805 11.137-1.9805 11.137l1.2793 3.4219 0.82226-2.1914c0.55192-1.4705-0.79496-2.9212-0.53906-3.8809l1.5957-5.9785-1.1777-2.5078z" style="opacity:.1;stroke-width:1.0115"/>
 <path d="m14.038 32.389c0.57756 1.0299 6.3329 2.9979 6.8831 2.5446 0.50663-0.1141 0.74374-1.0532 0.74374-1.0532l4.3732-11.651c0.55192-1.4705-0.79394-2.9218-0.53804-3.8815l1.6901-6.3382c0.73968 4e-3 0.52994-0.98248 0.51474-1.2894 0.56641-0.32716 0.15402-0.5281 0.08714-0.63513-1.148-0.51699-1.7063-0.70177-3.0357-1.0845 0 0-0.60998 0.14944-0.20975 0.56041 0.05168 0.20498-1.219 0.72601-0.46711 1.3329l-2.8463 5.9837c-0.48521 1.0201-2.2438 1.008-2.7307 2.3779l-4.3773 12.314s-0.20974 0.57556-0.08714 0.82092" style="fill:#369c20;stroke-width:1.0115"/>
</svg>
