<svg xmlns="http://www.w3.org/2000/svg" height="48" viewBox="0 0 48 48.000001" width="48">
  <defs>
    <linearGradient id="a" y2="24" gradientUnits="userSpaceOnUse" x2="-1" gradientTransform="rotate(-90 37.45 12.45)" y1="24" x1="-47">
      <stop offset="0" stop-color="#d1662b"/>
      <stop offset="1" stop-color="#d66f39"/>
    </linearGradient>
  </defs>
  <path d="M1 43v.25c0 2.216 1.784 4 4 4h38c2.216 0 4-1.784 4-4V43c0 2.216-1.784 4-4 4H5c-2.216 0-4-1.784-4-4zm0 .5v.5c0 2.216 1.784 4 4 4h38c2.216 0 4-1.784 4-4v-.5c0 2.216-1.784 4-4 4H5c-2.216 0-4-1.784-4-4z" opacity=".02"/>
  <path d="M1 43.25v.25c0 2.216 1.784 4 4 4h38c2.216 0 4-1.784 4-4v-.25c0 2.216-1.784 4-4 4H5c-2.216 0-4-1.784-4-4z" opacity=".05"/>
  <path d="M1 43v.25c0 2.216 1.784 4 4 4h38c2.216 0 4-1.784 4-4V43c0 2.216-1.784 4-4 4H5c-2.216 0-4-1.784-4-4z" opacity=".1"/>
  <rect rx="4" transform="rotate(-90)" height="46" width="46" y="1" x="-47" fill="url(#a)"/>
  <path d="M1 39v4c0 2.216 1.784 4 4 4h38c2.216 0 4-1.784 4-4v-4c0 2.216-1.784 4-4 4H5c-2.216 0-4-1.784-4-4zM9.959 21.479c-.424.051-.83.257-1.102.615a1.505 1.505 0 0 0-.256.629l-.006.029v.027c-.014.198-.009.451.109.699.067.146.138.235.16.275.033.061.028.077.027.057-.009.015-.012.027-.035.049l-.014.014-.014.014c-.083.091-.207.198-.346.346l-.006.006c-.234.261-.352.528-.455.762L1 25v4l4.997.001v3L1 32v3.615l4.997-.614v-2H47v-1h-.468l.468-.137v-.852c-.758.48-3.003.994-3.003.988v-3H47v-4H12.059a4.41 4.41 0 0 0-.582-1.197v-.006a2.358 2.358 0 0 1-.139-.209c-.004-.012-.005-.018-.006-.014.006-.009.019-.037.068-.096.069-.082.113-.153.152-.223v-.006l.008-.008a.777.777 0 0 0 .104-.311l.008-.021v-.021a1.074 1.074 0 0 0-.076-.484l-.008-.006a1.52 1.52 0 0 0-.664-.734l-.014-.006-.008-.008a1.644 1.644 0 0 0-.941-.172h-.006zM7 29l4 3H7zm1 0h4v3zm5 0h4l-4 3zm5 0v3h-4zm1 0l5 3h-5zm1 0h5v3zm6 0h5l-5 3zm6 0v3h-5zm1 0l4 3h-4zm1 0h4v3zm5 0h3l-3 3z" opacity=".1"/>
  <path d="M9.959 20.479c-.424.051-.83.257-1.102.615a1.505 1.505 0 0 0-.256.629l-.006.029v.027c-.014.198-.009.451.109.699.067.146.138.235.16.275.033.061.028.077.027.057-.009.015-.012.027-.035.049l-.014.014-.014.014c-.083.091-.207.198-.346.346l-.006.006c-.234.261-.352.528-.455.762L1 24v4l4.997.001v3L1 31v3.615l4.997-.614v-2H47v-1h-.468l.468-.137v-.852c-.758.48-3.003.994-3.003.988v-3H47v-4H12.059a4.41 4.41 0 0 0-.582-1.197v-.006a2.358 2.358 0 0 1-.139-.209c-.004-.012-.005-.018-.006-.014.006-.009.019-.037.068-.096.069-.082.113-.153.152-.223v-.006l.008-.008a.777.777 0 0 0 .104-.311l.008-.021v-.021a1.074 1.074 0 0 0-.076-.484l-.008-.006a1.52 1.52 0 0 0-.664-.734l-.014-.006-.008-.008a1.644 1.644 0 0 0-.941-.172h-.006zM7 28l4 3H7zm1 0h4v3zm5 0h4l-4 3zm5 0v3h-4zm1 0l5 3h-5zm1 0h5v3zm6 0h5l-5 3zm6 0v3h-5zm1 0l4 3h-4zm1 0h4v3zm5 0h3l-3 3z" fill="#191919"/>
</svg>
