<svg version="1.1" viewBox="0 0 48 48" xmlns="http://www.w3.org/2000/svg">
 <defs>
  <linearGradient id="bg" x2="0" y1="1" y2="47" gradientUnits="userSpaceOnUse">
   <stop style="stop-color:#ecefe6" offset="0"/>
   <stop style="stop-color:#e3e7da" offset="1"/>
  </linearGradient>
 </defs>
 <path d="m1 43v.25c0 2.22 1.78 4 4 4h38c2.22 0 4-1.78 4-4v-.25c0 2.22-1.78 4-4 4h-38c-2.22 0-4-1.78-4-4zm0 .5v.5c0 2.22 1.78 4 4 4h38c2.22 0 4-1.78 4-4v-.5c0 2.22-1.78 4-4 4h-38c-2.22 0-4-1.78-4-4z" style="opacity:.02"/>
 <path d="m1 43.2v.25c0 2.22 1.78 4 4 4h38c2.22 0 4-1.78 4-4v-.25c0 2.22-1.78 4-4 4h-38c-2.22 0-4-1.78-4-4z" style="opacity:.05"/>
 <path d="m1 43v.25c0 2.22 1.78 4 4 4h38c2.22 0 4-1.78 4-4v-.25c0 2.22-1.78 4-4 4h-38c-2.22 0-4-1.78-4-4z" style="opacity:.1"/>
 <rect x="1" y="1" width="46" height="46" rx="4" style="fill:url(#bg)"/>
 <path d="m1 39v4c0 2.22 1.78 4 4 4h38c2.22 0 4-1.78 4-4v-4c0 2.22-1.78 4-4 4h-38c-2.22 0-4-1.78-4-4z" style="opacity:.1"/>
 <path d="m12 18v1c0 1.11.892 2 2 2h2v6l-4 2v1c0 1.11.892 2 2 2h2v2c0 1.11.892 2 2 2h1c1.11 0 2-.892 2-2v-2h6v2c0 1.11.892 2 2 2h1c1.11 0 2-.892 2-2v-2h2c1.11 0 2-.892 2-2v-1l-4-2v-6h2c1.11 0 2-.892 2-2v-1zm9 3h6v6h-6z" style="opacity:.1"/>
 <path d="m27 23v10c0 1.11.892 2 2 2h1c1.11 0 2-.892 2-2v-10l-3-2z" style="fill:#74a612"/>
 <rect x="12" y="26" width="24" height="5" rx="2" ry="2" style="fill:#8dc71e"/>
 <rect transform="rotate(90)" x="11" y="-21" width="24" height="5" rx="2" ry="2" style="fill:#74a612"/>
 <rect x="12" y="15" width="24" height="5" rx="2" ry="2" style="fill:#8dc71e"/>
 <path d="m29 11c-1.11 0-2 .892-2 2v10h5v-10c0-1.11-.892-2-2-2z" style="fill:#74a612"/>
 <path d="m16 20v1h5v-1zm11 11v1h5v-1z" style="opacity:.1"/>
</svg>
