<svg version="1.1" viewBox="0 0 48 48" xmlns="http://www.w3.org/2000/svg">
 <defs>
  <linearGradient id="bg" x2="0" y1="1" y2="47" gradientUnits="userSpaceOnUse">
   <stop style="stop-color:#474747" offset="0"/>
   <stop style="stop-color:#3d3d3d" offset="1"/>
  </linearGradient>
 </defs>
 <path d="m1 43v0.25c0 2.216 1.784 4 4 4h38c2.216 0 4-1.784 4-4v-0.25c0 2.216-1.784 4-4 4h-38c-2.216 0-4-1.784-4-4zm0 0.5v0.5c0 2.216 1.784 4 4 4h38c2.216 0 4-1.784 4-4v-0.5c0 2.216-1.784 4-4 4h-38c-2.216 0-4-1.784-4-4z" style="opacity:.02"/>
 <path d="m1 43.25v0.25c0 2.216 1.784 4 4 4h38c2.216 0 4-1.784 4-4v-0.25c0 2.216-1.784 4-4 4h-38c-2.216 0-4-1.784-4-4z" style="opacity:.05"/>
 <path d="m1 43v0.25c0 2.216 1.784 4 4 4h38c2.216 0 4-1.784 4-4v-0.25c0 2.216-1.784 4-4 4h-38c-2.216 0-4-1.784-4-4z" style="opacity:.1"/>
 <rect x="1" y="1" width="46" height="46" rx="4" style="fill:url(#bg)"/>
 <path d="m8.002 1v5.5l-0.00195 2e-3v0.5h-7v1.002l7-2e-3v7h-7v1h6.998v7h-6.998v1h6.998v7h-6.998v1h6.998v7l-6.998-2e-3v1.002h7v6.998h1l-0.00195-5.5645 0.00391 0.0039v-1.4375h6.9961v6.998h1.0039v-6.9961h6.9961v6.9961h1v-6.998h7v6.998h1v-6.9961l7-0.0039v0.5l2e-3 -2e-3v6.502h1v-7h6v-1h-6l-2e-3 -6.9961h6.002v-1.0039h-6.002v-6.9961h6.002v-1.0039h-6.002v-6.9961h6.002v-1.0039h-6l2e-3 -6.9961h5.998v-1h-5.998v-6.0039h-1v5.5098l-0.0059-0.0059v0.5l-6.9961-0.0039v-6h-1.0039v6.002h-6.9961v-6.002h-1v6h-7v-6h-1v6.002h-7v-1.4395l0.0019-4.5625h-0.99995zm1 7.0039h6.998v6.9961h-6.998zm8 0h6.998v6.9961h-6.998zm8 0h6.998v6.9961h-6.998zm8 0h6.998v6.9961h-6.998zm-24 8h6.998v6.9961h-6.998zm8 0h6.998v6.9961h-6.998zm8 0h6.998v6.9961h-6.998zm8 0h6.998v6.9961h-6.998zm-24 8h6.998v6.9961h-6.998zm8 0h6.998v6.9961h-6.998zm8 0h6.998v6.9961h-6.998zm8 0h6.998v6.9961h-6.998zm-24 8h6.998v6.9961h-6.998zm8 0h6.998v6.9961h-6.998zm8 0h6.998v6.9961h-6.998zm8 0h6.998v6.9961h-6.998z" style="fill:#a0a0a0;opacity:.1"/>
 <path d="m1 39v4c0 2.216 1.784 4 4 4h38c2.216 0 4-1.784 4-4v-4c0 2.216-1.784 4-4 4h-38c-2.216 0-4-1.784-4-4z" style="opacity:.1"/>
 <path d="m24 13c-6.094 0-11 1.561-11 3.5v3c0 1.939 4.906 3.5 11 3.5s11-1.561 11-3.5v-3c0-1.939-4.906-3.5-11-3.5zm-10.877 9c-0.07301 0.16349-0.12305 0.32989-0.12305 0.5v3c0 1.939 4.906 3.5 11 3.5s11-1.561 11-3.5v-3c0-0.17011-0.05004-0.33651-0.12305-0.5-0.75917 1.7001-5.3176 3-10.877 3s-10.118-1.2999-10.877-3zm0 6c-0.07301 0.16349-0.12305 0.32989-0.12305 0.5v3c0 1.939 4.906 3.5 11 3.5s11-1.561 11-3.5v-3c0-0.17011-0.05004-0.33651-0.12305-0.5-0.75917 1.7001-5.3176 3-10.877 3s-10.118-1.2999-10.877-3z" style="opacity:.1"/>
 <path d="m13.123 27c-0.07301 0.16349-0.12305 0.32989-0.12305 0.5v3c0 1.939 4.906 3.5 11 3.5s11-1.561 11-3.5v-3c0-0.17011-0.05004-0.33651-0.12305-0.5-0.75917 1.7001-5.3176 3-10.877 3s-10.118-1.2999-10.877-3z" style="fill:#88adad"/>
 <path d="m13.123 21c-0.07301 0.16349-0.12305 0.32989-0.12305 0.5v3c0 1.939 4.906 3.5 11 3.5s11-1.561 11-3.5v-3c0-0.17011-0.05004-0.33651-0.12305-0.5-0.75917 1.7001-5.3176 3-10.877 3s-10.118-1.2999-10.877-3z" style="fill:#f9f9f9"/>
 <rect x="13" y="12" width="22" height="10" rx="11" ry="3.5" style="fill:#ed5f8f"/>
</svg>
