<svg width="48" height="48" version="1.1" viewBox="0 0 48 48" xmlns="http://www.w3.org/2000/svg">
 <defs>
  <linearGradient id="linearGradient4192" x1="-47" x2="-1" y1="24" y2="24" gradientTransform="matrix(0,-1,1,0,25,49.901)" gradientUnits="userSpaceOnUse">
   <stop style="stop-color:#3d3d3d" offset="0"/>
   <stop style="stop-color:#474747" offset="1"/>
  </linearGradient>
 </defs>
 <path d="m1 43v0.25c0 2.216 1.784 4 4 4h38c2.216 0 4-1.784 4-4v-0.25c0 2.216-1.784 4-4 4h-38c-2.216 0-4-1.784-4-4zm0 0.5v0.5c0 2.216 1.784 4 4 4h38c2.216 0 4-1.784 4-4v-0.5c0 2.216-1.784 4-4 4h-38c-2.216 0-4-1.784-4-4z" style="opacity:.02"/>
 <path d="m1 43.25v0.25c0 2.216 1.784 4 4 4h38c2.216 0 4-1.784 4-4v-0.25c0 2.216-1.784 4-4 4h-38c-2.216 0-4-1.784-4-4z" style="opacity:.05"/>
 <path d="m1 43v0.25c0 2.216 1.784 4 4 4h38c2.216 0 4-1.784 4-4v-0.25c0 2.216-1.784 4-4 4h-38c-2.216 0-4-1.784-4-4z" style="opacity:.1"/>
 <rect transform="rotate(-90)" x="-47" y="1" width="46" height="46" rx="4" style="fill:url(#linearGradient4192)"/>
 <g transform="translate(0,-1004.4)">
  <path d="m1 1043.4v4c0 2.216 1.784 4 4 4h38c2.216 0 4-1.784 4-4v-4c0 2.216-1.784 4-4 4h-38c-2.216 0-4-1.784-4-4z" style="opacity:.1"/>
 </g>
 <path d="m12.801 15c-0.443 0-0.801 0.358-0.801 0.801v5.398c0 0.443 0.358 0.801 0.801 0.801h2.328l4.293 7.107c-0.248 0.136-0.422 0.39-0.422 0.693v5.398c0 0.443 0.358 0.801 0.801 0.801h8.398c0.443 0 0.801-0.358 0.801-0.801v-5.398c0-0.272-0.145-0.5-0.352-0.645l4.322-7.156h2.229c0.443 0 0.801-0.358 0.801-0.801v-5.398c0-0.443-0.358-0.801-0.801-0.801h-8.398c-0.443 0-0.801 0.358-0.801 0.801v5.398c0 0.443 0.358 0.801 0.801 0.801h2.314l-4.227 7h-1.676l-4.229-7h2.215c0.443 0 0.801-0.358 0.801-0.801v-5.398c0-0.443-0.358-0.801-0.801-0.801h-8.398z" style="color-rendering:auto;color:#000000;fill-opacity:.098;fill-rule:evenodd;image-rendering:auto;isolation:auto;mix-blend-mode:normal;shape-rendering:auto;solid-color:#000000;white-space:normal" isolation="auto" mix-blend-mode="normal" white-space="normal"/>
 <path d="m17 17.721c-0.942 0.568-1.884 1.135-2.826 1.703l7.518 12.449 2.826-1.703z" style="color-rendering:auto;color:#000000;fill-rule:evenodd;fill:#808080;image-rendering:auto;isolation:auto;mix-blend-mode:normal;shape-rendering:auto;solid-color:#000000;white-space:normal" isolation="auto" mix-blend-mode="normal" white-space="normal"/>
 <path d="m31.1 17.721c0.942 0.568 1.884 1.135 2.826 1.703l-7.518 12.449-2.826-1.703" style="color-rendering:auto;color:#000000;fill-rule:evenodd;fill:#808080;image-rendering:auto;isolation:auto;mix-blend-mode:normal;shape-rendering:auto;solid-color:#000000;white-space:normal" isolation="auto" mix-blend-mode="normal" white-space="normal"/>
 <path d="m16.834 18.406-1.969 1.188 7 11.594 1.969-1.188-7-11.594z" style="color-rendering:auto;color:#000000;fill-rule:evenodd;fill:#969696;image-rendering:auto;isolation:auto;mix-blend-mode:normal;shape-rendering:auto;solid-color:#000000;white-space:normal" isolation="auto" mix-blend-mode="normal" white-space="normal"/>
 <rect x="12" y="14" width="10" height="7" rx=".8" style="fill-rule:evenodd;fill:#c37c14"/>
 <path d="m31.27 18.406 1.969 1.188-7 11.594-1.969-1.188 7-11.594z" style="color-rendering:auto;color:#000000;fill-rule:evenodd;fill:#969696;image-rendering:auto;isolation:auto;mix-blend-mode:normal;shape-rendering:auto;solid-color:#000000;white-space:normal" isolation="auto" mix-blend-mode="normal" white-space="normal"/>
 <rect x="26" y="14" width="10" height="7" rx=".8" style="fill-rule:evenodd;fill:#5e9d23"/>
 <rect x="19" y="28" width="10" height="7" rx=".8" style="fill-rule:evenodd;fill:#3465a4"/>
 <rect x="13" y="15" width="8" height="5" rx=".2" style="fill-rule:evenodd;fill:#f3ad47"/>
 <rect x="27" y="15" width="8" height="5" rx=".2" style="fill-rule:evenodd;fill:#82d530"/>
 <rect x="20" y="29" width="8" height="5" rx=".2" style="fill-rule:evenodd;fill:#729fcf"/>
</svg>
