<?xml version="1.0" encoding="UTF-8" standalone="no"?>
<!-- Created with Inkscape (http://www.inkscape.org/) -->
<svg id="svg4340" xmlns:rdf="http://www.w3.org/1999/02/22-rdf-syntax-ns#" xmlns="http://www.w3.org/2000/svg" height="48" viewBox="0 0 48 48.000001" width="48" version="1.1" xmlns:cc="http://creativecommons.org/ns#" xmlns:xlink="http://www.w3.org/1999/xlink" xmlns:dc="http://purl.org/dc/elements/1.1/">
 <defs id="defs4342">
  <linearGradient id="linearGradient4192" y2="24" gradientUnits="userSpaceOnUse" x2="-1" gradientTransform="matrix(0,-1,1,0,25,49.901)" y1="24" x1="-47">
   <stop id="stop7-15" style="stop-color:#d1a9a1" offset="0"/>
   <stop id="stop9-98" style="stop-color:#d8b5ae" offset="1"/>
  </linearGradient>
 </defs>
 <metadata id="metadata4345">
  <rdf:RDF>
   <cc:Work rdf:about="">
    <dc:format>image/svg+xml</dc:format>
    <dc:type rdf:resource="http://purl.org/dc/dcmitype/StillImage"/>
    <dc:title/>
   </cc:Work>
  </rdf:RDF>
 </metadata>
 <g id="g21">
  <path id="path23" style="opacity:.02" d="m1 43v0.25c0 2.216 1.784 4 4 4h38c2.216 0 4-1.784 4-4v-0.25c0 2.216-1.784 4-4 4h-38c-2.216 0-4-1.784-4-4zm0 0.5v0.5c0 2.216 1.784 4 4 4h38c2.216 0 4-1.784 4-4v-0.5c0 2.216-1.784 4-4 4h-38c-2.216 0-4-1.784-4-4z"/>
  <path id="path25" style="opacity:.05" d="m1 43.25v0.25c0 2.216 1.784 4 4 4h38c2.216 0 4-1.784 4-4v-0.25c0 2.216-1.784 4-4 4h-38c-2.216 0-4-1.784-4-4z"/>
  <path id="path27" style="opacity:.1" d="m1 43v0.25c0 2.216 1.784 4 4 4h38c2.216 0 4-1.784 4-4v-0.25c0 2.216-1.784 4-4 4h-38c-2.216 0-4-1.784-4-4z"/>
 </g>
 <rect id="rect4190" style="fill:url(#linearGradient4192)" rx="4" transform="rotate(-90)" height="46" width="46" y="1" x="-47"/>
 <g id="g57">
  <g id="g59" transform="translate(0,-1004.4)">
   <path id="path61" style="opacity:.1" d="m1 1043.4v4c0 2.216 1.784 4 4 4h38c2.216 0 4-1.784 4-4v-4c0 2.216-1.784 4-4 4h-38c-2.216 0-4-1.784-4-4z"/>
  </g>
 </g>
 <path id="path29" style="color-rendering:auto;fill-opacity:0.098;color:#000000;isolation:auto;mix-blend-mode:normal;shape-rendering:auto;solid-color:#000000;image-rendering:auto;white-space:normal" d="m28.848 11.05-8.65 1.262-9.197-1.012 0.003 25.48 9.378-0.977 7.982 1.197 8.636-0.58 0.008-24.67" isolation="auto" mix-blend-mode="normal" white-space="normal"/>
 <path id="path31" style="color-rendering:auto;color:#000000;isolation:auto;mix-blend-mode:normal;shape-rendering:auto;solid-color:#000000;image-rendering:auto;white-space:normal;fill:#2d2d2d" d="m28.848 10.05-8.65 1.262-9.197-1.012 0.003 25.48 9.378-0.977 7.982 1.197 8.636-0.58 0.008-24.67z" isolation="auto" mix-blend-mode="normal" white-space="normal"/>
 <path id="path33" style="fill:#ffcca3" d="m28.877 11.06-8.68 1.285-8.191-0.926-0.006 23.254 8.402-0.875 8 1.199l7.598-0.506-0.006-22.82-7.117-0.611z"/>
 <path id="path35" style="stroke:#4c4336;stroke-width:.29996;fill:none" d="m33.695 34.465-5.0742-4.2461-3.1016-1.4726-1.7891-3.7579-3.043-2.7773-0.05862-1.6328 1.0117-3.9219"/>
 <path id="path37" style="stroke:#4c4336;stroke-width:.29996;fill:none" d="m28.383 30 4.7735-2.3437"/>
 <path id="path39" style="stroke:#4c4336;stroke-width:.29996;fill:none" d="m27.55 29.562 3.875-3.2657"/>
 <path id="path41" style="stroke:#4c4336;stroke-width:.29996;fill:none" d="m26.473 29.129-3.34 2.34"/>
 <path id="path43" style="stroke:#4c4336;stroke-width:.29996;fill:none" d="m25.324 28.101-3.6641 1.6635-2.1953-1.8203-5.8596 0.36328"/>
 <path id="path45" style="stroke:#4c4336;stroke-width:.29996;fill:none" d="m23.609 24.769 2.7461-3.2657 5.3087-3.5391 1.8515-0.27344h0.05862"/>
 <path id="path47" style="stroke:#4c4336;stroke-width:.29996;fill:none" d="m25.043 22.973-0.597-2.285 2.625-1.418"/>
 <path id="path49" style="stroke:#4c4336;stroke-width:.29996;fill:none" d="m25.938 19.922-0.05862-2.3946 1.6679 0.10938 4.7735-4.0857"/>
 <path id="path51" style="stroke:#4c4336;stroke-width:.29996;fill:none" d="m20.629 20.797 2.8633-2.6172"/>
 <path id="path53" style="stroke:#4c4336;stroke-width:.29996;fill:none" d="m20.567 21.285-2.564 0.981-2.984-2.344-1.074-0.16"/>
 <path id="path55" style="stroke:#4c4336;stroke-width:.29996;fill:none" d="m20.746 20.086-4.1172-2.1761-2.504 0.10938 0.41796-1.8555"/>
 <path id="path57" style="color-rendering:auto;color:#000000;isolation:auto;mix-blend-mode:normal;shape-rendering:auto;solid-color:#000000;image-rendering:auto;white-space:normal;fill:#2d2d2d" d="m19.77 11.808v22.547h1v-22.547h-1z" isolation="auto" mix-blend-mode="normal" white-space="normal"/>
 <path id="path59" style="color-rendering:auto;color:#000000;isolation:auto;mix-blend-mode:normal;shape-rendering:auto;solid-color:#000000;image-rendering:auto;white-space:normal;fill:#2d2d2d" d="m28 10.5v24.891h1v-24.891h-1z" isolation="auto" mix-blend-mode="normal" white-space="normal"/>
 <path id="path61-8" style="stroke:#a00;stroke-width:.15001;fill:#a00" d="m35.012 17.418c0 0.30077-0.25393 0.54686-0.56643 0.54686s-0.56643-0.24609-0.56643-0.54686 0.25393-0.54298 0.56643-0.54298 0.56643 0.24221 0.56643 0.54298"/>
 <path id="path63" style="stroke:#a00;stroke-width:.15001;fill:#a00" d="m34.239 18.754c0 0.16404-0.07811 0.32033-0.21096 0.40232-0.12891 0.08593-0.28907 0.08593-0.41798 0-0.12891-0.08205-0.21096-0.23828-0.20702-0.40232-0.0036-0.16786 0.07811-0.32421 0.20702-0.40626 0.12891-0.08593 0.28907-0.08593 0.41798 0 0.13279 0.08205 0.21096 0.23828 0.21096 0.40626"/>
 <path id="path65" style="stroke:#a00;stroke-width:.15001;fill:#a00" d="m33.34 16.656c0.0036 0.21484-0.13279 0.41407-0.35547 0.52343-0.22267 0.10936-0.49609 0.10936-0.71876 0s-0.35935-0.30858-0.35547-0.52343c-0.0036-0.21484 0.13279-0.41407 0.35547-0.52343s0.49609-0.10936 0.71876 0c0.22268 0.10936 0.35935 0.30858 0.35547 0.52343"/>
 <path id="path67" style="stroke:#a00;stroke-width:.15001;fill:#a00" d="m32.746 14.586c0 0.17579-0.07811 0.33983-0.20702 0.42969-0.13279 0.08986-0.29295 0.08986-0.42186 0s-0.21096-0.2539-0.20702-0.42969c-0.0036-0.17579 0.07811-0.33983 0.20702-0.42969s0.28907-0.08986 0.42186 0c0.12891 0.08986 0.20702 0.2539 0.20702 0.42969"/>
 <path id="path69" style="stroke:#a00;stroke-width:.15001;fill:#a00" d="m31.312 13.77c0 0.30077-0.28124 0.54298-0.62499 0.54298-0.34764 0-0.62888-0.24221-0.62888-0.54298s0.28124-0.54686 0.62888-0.54686c0.34375 0 0.62499 0.24609 0.62499 0.54686"/>
 <path id="path71" style="stroke:#a00;stroke-width:.15001;fill:#a00" d="m31.731 27.113c0 0.14842-0.14845 0.27346-0.32816 0.27346s-0.32816-0.12498-0.32816-0.27346c0-0.15235 0.14845-0.27346 0.32816-0.27346 0.1797 0 0.32816 0.12111 0.32816 0.27346"/>
 <path id="path73" style="stroke:#a00;stroke-width:.15001;fill:#a00" d="m32.387 25.508c0 0.28515-0.28124 0.51562-0.62499 0.51562-0.34764 0-0.62888-0.23047-0.62888-0.51562 0-0.28908 0.28124-0.51955 0.62888-0.51955 0.34375 0 0.62499 0.23047 0.62499 0.51955"/>
 <path id="path75" style="stroke:#a00;stroke-width:.15001;fill:#a00" d="m30.957 25.941c0 0.20703-0.11331 0.39844-0.2969 0.50027-0.18747 0.10155-0.41798 0.10155-0.60157 0-0.18747-0.10155-0.30078-0.29296-0.2969-0.50027-0.0036-0.20703 0.10936-0.39844 0.2969-0.50027 0.18389-0.10548 0.41403-0.10548 0.60157 0 0.18389 0.10155 0.2969 0.29296 0.2969 0.50027"/>
 <path id="path77" style="stroke:#a00;stroke-width:.15001;fill:#a00" d="m34.832 28.067c0.0036 0.16404-0.13279 0.32033-0.35547 0.40232-0.22267 0.08593-0.49609 0.08593-0.71876 0-0.22267-0.08205-0.35935-0.23828-0.35547-0.40232-0.0036-0.16786 0.13279-0.32033 0.35547-0.40626 0.22268-0.08205 0.49609-0.08205 0.71876 0 0.22268 0.08593 0.35935 0.23828 0.35547 0.40626"/>
 <path id="path79" style="stroke:#a00;stroke-width:.15001;fill:#a00" d="m27.734 19.812c0 0.12111-0.14845 0.21872-0.32816 0.21872-0.18389 0-0.32816-0.09767-0.32816-0.21872 0-0.11717 0.1445-0.21484 0.32816-0.21484 0.17971 0 0.32816 0.09767 0.32816 0.21484"/>
 <path id="path81" style="stroke:#a00;stroke-width:.15001;fill:#a00" d="m33.461 28.801c0 0.21091-0.22656 0.38282-0.5078 0.38282-0.27736 0-0.5078-0.17185-0.5078-0.38282 0-0.21091 0.23044-0.38282 0.5078-0.38282 0.28124 0 0.5078 0.17185 0.5078 0.38282"/>
 <path id="path83" style="stroke:#a00;stroke-width:.15001;fill:#a00" d="m23.082 30.789c0 0.28515-0.25393 0.51562-0.57031 0.51562-0.3125 0-0.56643-0.23047-0.56643-0.51562s0.25393-0.51955 0.56643-0.51955c0.31638 0 0.57031 0.2344 0.57031 0.51955"/>
 <path id="path85" style="stroke:#a00;stroke-width:.15001;fill:#a00" d="m24.215 31.961c0 0.19529-0.06251 0.37889-0.16405 0.47656s-0.23044 0.09767-0.33204 0c-0.10154-0.09767-0.16405-0.28127-0.16016-0.47656-0.0036-0.19922 0.05857-0.37889 0.16016-0.48049 0.10154-0.09767 0.23044-0.09767 0.33204 0 0.10154 0.10155 0.16405 0.28127 0.16405 0.48049"/>
 <path id="path87" style="stroke:#a00;stroke-width:.15001;fill:#a00" d="m32.625 12.871c0 0.22659-0.25393 0.40626-0.56643 0.40626s-0.56643-0.17967-0.56643-0.40626 0.25393-0.41013 0.56643-0.41013 0.56643 0.1836 0.56643 0.41013"/>
 <path id="path89" style="stroke:#a00;stroke-width:.15001;fill:#a00" d="m24.57 17.391c0.0036 0.18748-0.09377 0.35938-0.24998 0.45312-0.16016 0.09374-0.35547 0.09374-0.51174 0-0.15628-0.09374-0.25393-0.26565-0.24999-0.45312-0.0036-0.18748 0.09377-0.35939 0.24999-0.45312 0.15628-0.09374 0.35158-0.09374 0.51174 0 0.15628 0.09374 0.25393 0.26565 0.24998 0.45312"/>
 <path id="path91" style="stroke:#a00;stroke-width:.15001;fill:#a00" d="m27.375 18.48c0 0.28515-0.19925 0.51562-0.44923 0.51562-0.2461 0-0.44529-0.23047-0.44529-0.51562s0.19925-0.51562 0.44529-0.51562c0.24998 0 0.44923 0.23047 0.44923 0.51562"/>
 <path id="path93" style="stroke:#a00;stroke-width:.15001;fill:#a00" d="m24.691 18.617c0 0.15623-0.10154 0.30077-0.26953 0.37889-0.16405 0.08205-0.37106 0.08205-0.53906 0-0.16799-0.07812-0.26953-0.22271-0.26564-0.37889-0.0036-0.15623 0.09765-0.3047 0.26564-0.38282 0.16799-0.07811 0.37501-0.07811 0.53906 0 0.16799 0.07812 0.26953 0.22659 0.26953 0.38282"/>
 <path id="path95" style="stroke:#a00;stroke-width:.14997;fill:#a00" d="m21.633 15.785c0.0039 0.23435-0.07031 0.45314-0.19141 0.57028-0.12111 0.11721-0.26952 0.11721-0.39063 0-0.1211-0.11721-0.19141-0.33573-0.19141-0.57028 0-0.23435 0.07031-0.45314 0.19141-0.57028 0.12111-0.12106 0.26952-0.12106 0.39063 0 0.1211 0.11721 0.1953 0.33573 0.19141 0.57028"/>
 <path id="path97" style="stroke:#a00;stroke-width:.15001;fill:#a00" d="m14.129 16.301c0.0036 0.26565-0.10936 0.51174-0.2969 0.64453-0.18389 0.1328-0.41403 0.1328-0.59768 0-0.18747-0.1328-0.30078-0.37889-0.2969-0.64453-0.0036-0.26171 0.10936-0.5078 0.2969-0.6406 0.18389-0.1328 0.41403-0.1328 0.59768 0 0.18747 0.1328 0.30078 0.37889 0.2969 0.6406"/>
 <path id="path99" style="stroke:#a00;stroke-width:.14998;fill:#a00" d="m15.371 19.051c0 0.24217-0.34767 0.4375-0.77735 0.4375-0.42578 0-0.77345-0.1953-0.77345-0.4375 0-0.23827 0.34767-0.4336 0.77345-0.4336 0.42967 0 0.77735 0.1953 0.77735 0.4336"/>
 <path id="path101" style="stroke:#a00;stroke-width:.15001;fill:#a00" d="m14.906 20.766c0 0.31639-0.33592 0.57423-0.74607 0.57423s-0.74607-0.25784-0.74607-0.57423c0-0.31252 0.33592-0.5703 0.74607-0.5703s0.74607 0.25784 0.74607 0.5703"/>
 <path id="path103" style="stroke:#a00;stroke-width:.15001;fill:#a00" d="m14.848 15.238c0 0.13673-0.10154 0.26565-0.26953 0.33573-0.16405 0.06643-0.37106 0.06643-0.53906 0-0.16799-0.0703-0.26953-0.19922-0.26564-0.33573-0.0036-0.13673 0.09765-0.26171 0.26564-0.33202 0.16799-0.0703 0.37501-0.0703 0.53906 0 0.16799 0.0703 0.26953 0.19529 0.26953 0.33202"/>
 <path id="path105" style="stroke:#a00;stroke-width:.15001;fill:#a00" d="m13.652 19.598c0 0.30077-0.17188 0.54298-0.38672 0.54298-0.21485 0-0.38672-0.24221-0.38672-0.54298s0.17188-0.54686 0.38672-0.54686 0.38672 0.24609 0.38672 0.54686"/>
 <path id="path107" style="stroke:#a00;stroke-width:.15001;fill:#a00" d="m28.152 19.133c0 0.19529-0.17576 0.35545-0.39061 0.35545-0.21096 0-0.38672-0.16016-0.38672-0.35545s0.17576-0.35158 0.38672-0.35158c0.21484 0 0.39061 0.15623 0.39061 0.35158"/>
 <path id="path109" style="stroke:#a00;stroke-width:.15001;fill:#a00" d="m13.414 28.992c0.0036 0.16404-0.09765 0.32033-0.26564 0.40232-0.16799 0.08593-0.37501 0.08593-0.53906 0-0.16799-0.08205-0.26953-0.23828-0.26953-0.40232 0-0.16786 0.10154-0.32033 0.26953-0.40625 0.16405-0.08205 0.37106-0.08205 0.53906 0 0.16799 0.08593 0.26953 0.23828 0.26564 0.40625"/>
 <path id="path111" style="stroke:#a00;stroke-width:.14998;fill:#a00" d="m15.074 29.184c0.0078 0.15627-0.11328 0.3047-0.3086 0.38282-0.19532 0.08203-0.4375 0.08203-0.6328 0-0.19532-0.07812-0.3164-0.22655-0.3086-0.38282-0.0078-0.16014 0.11328-0.30858 0.3086-0.38674 0.19532-0.07811 0.43751-0.07811 0.6328 0 0.19532 0.07812 0.3164 0.22655 0.3086 0.38674"/>
 <path id="path113" style="stroke:#a00;stroke-width:.15001;fill:#a00" d="m14.25 27.437c0.0036 0.15623-0.10936 0.3047-0.2969 0.38282-0.18389 0.07812-0.41403 0.07812-0.60157 0-0.18389-0.07811-0.2969-0.22659-0.29296-0.38282-0.0036-0.15623 0.10936-0.30077 0.29296-0.37889 0.18747-0.07812 0.41798-0.07812 0.60157 0 0.18747 0.07812 0.30078 0.22271 0.2969 0.37889"/>
 <path id="path115" style="stroke:#a00;stroke-width:.15001;fill:#a00" d="m22.781 16.629c0 0.22659-0.17188 0.40626-0.38672 0.40626s-0.38672-0.17966-0.38672-0.40626c0-0.22659 0.17188-0.41013 0.38672-0.41013s0.38672 0.1836 0.38672 0.41013"/>
 <path id="path117" style="stroke:#a00;stroke-width:.14997;fill:#a00" d="m23.258 15.648c0 0.19532-0.32031 0.35548-0.71483 0.35548s-0.71483-0.16016-0.71483-0.35548 0.32031-0.35548 0.71483-0.35548 0.71483 0.16016 0.71483 0.35548"/>
 <path id="path119" style="stroke:#a00;stroke-width:.15001;fill:#a00" d="m23.379 17.582c0 0.15623-0.07811 0.30077-0.20702 0.38282-0.12891 0.07812-0.29295 0.07812-0.42186 0-0.12891-0.08205-0.20702-0.22659-0.20702-0.38282s0.07811-0.3047 0.20702-0.38282 0.29296-0.07812 0.42186 0c0.12891 0.07812 0.20702 0.22659 0.20702 0.38282"/>
 <path id="path121" style="stroke:#a00;stroke-width:.15001;fill:#a00" d="m34.059 26.512c0 0.45312-0.30861 0.82032-0.6875 0.82032s-0.68751-0.3672-0.68751-0.82032c0-0.44925 0.30861-0.81639 0.68751-0.81639 0.37889 0 0.6875 0.3672 0.6875 0.81639"/>
 <path id="path123" style="stroke:#a00;stroke-width:.15001;fill:#a00" d="m16.219 15.922c0 0.14454-0.13279 0.28127-0.35547 0.35545-0.22267 0.07424-0.49997 0.07424-0.72264 0-0.21873-0.07424-0.35547-0.21091-0.35547-0.35545 0-0.14842 0.13674-0.28515 0.35547-0.35938 0.22267-0.07424 0.49997-0.07424 0.72264 0 0.22268 0.07424 0.35547 0.21091 0.35547 0.35938"/>
 <path id="path125" style="stroke:#a00;stroke-width:.15001;fill:#a00" d="m23.258 32.148c0.0036 0.12892-0.08594 0.24609-0.23439 0.31252-0.14845 0.06249-0.33204 0.06249-0.48049 0-0.14845-0.06642-0.24222-0.1836-0.23827-0.31252-0.0036-0.12498 0.08982-0.24221 0.23827-0.30858 0.14845-0.06249 0.33204-0.06249 0.48049 0 0.14845 0.06643 0.23827 0.1836 0.23439 0.30858"/>
</svg>
