<svg version="1.1" viewBox="0 0 48 48" xmlns="http://www.w3.org/2000/svg">
 <defs>
  <linearGradient id="bg" x2="0" y1="1" y2="47" gradientUnits="userSpaceOnUse">
   <stop style="stop-color:#eee" offset="0"/>
   <stop style="stop-color:#e4e4e4" offset="1"/>
  </linearGradient>
 </defs>
 <path d="m1 43v0.25c0 2.216 1.784 4 4 4h38c2.216 0 4-1.784 4-4v-0.25c0 2.216-1.784 4-4 4h-38c-2.216 0-4-1.784-4-4zm0 0.5v0.5c0 2.216 1.784 4 4 4h38c2.216 0 4-1.784 4-4v-0.5c0 2.216-1.784 4-4 4h-38c-2.216 0-4-1.784-4-4z" style="opacity:.02"/>
 <path d="m1 43.25v0.25c0 2.216 1.784 4 4 4h38c2.216 0 4-1.784 4-4v-0.25c0 2.216-1.784 4-4 4h-38c-2.216 0-4-1.784-4-4z" style="opacity:.05"/>
 <path d="m1 43v0.25c0 2.216 1.784 4 4 4h38c2.216 0 4-1.784 4-4v-0.25c0 2.216-1.784 4-4 4h-38c-2.216 0-4-1.784-4-4z" style="opacity:.1"/>
 <path d="m24 13.5c-11 0-22 0.5-23 1.5v28c0 2.216 1.784 4 4 4h38c2.216 0 4-1.784 4-4v-28c-1-1-12-1.5-23-1.5z" style="fill:url(#bg)"/>
 <path d="m1 16h46v-1c-2-2-44-2-46 0z" style="opacity:.1"/>
 <path d="m5 1c-2.216 0-4 1.784-4 4v10h46v-10c0-2.216-1.784-4-4-4h-38z" style="fill:#4fc7b7"/>
 <path d="m1 39v4c0 2.216 1.784 4 4 4h38c2.216 0 4-1.784 4-4v-4c0 2.216-1.784 4-4 4h-38c-2.216 0-4-1.784-4-4z" style="opacity:.1"/>
 <circle cx="14" cy="8" r="2" style="fill:#456060"/>
 <circle cx="19" cy="8" r="2" style="fill:#456060"/>
 <rect x="13" y="7" width="7" height="2" rx="1" style="fill:#dcdcdc"/>
 <circle cx="29" cy="8" r="2" style="fill:#456060"/>
 <circle cx="34" cy="8" r="2" style="fill:#456060"/>
 <rect x="28" y="7" width="7" height="2" rx="1" style="fill:#dcdcdc"/>
 <g transform="matrix(1.0155 0 0 .98474 -1.0005 -1.0011)" style="opacity:.10">
  <path d="m23.11 38.4h-8.627v-1.476l3.311-3.604q0.709-0.766 1.268-1.4 0.558-0.634 0.946-1.239 0.397-0.605 0.605-1.211 0.208-0.615 0.208-1.334 0-0.558-0.161-0.984t-0.463-0.719q-0.293-0.303-0.7-0.454t-0.908-0.151q-0.899 0-1.627 0.369-0.719 0.359-1.372 0.927l-0.965-1.126q0.378-0.341 0.813-0.634 0.435-0.303 0.936-0.52 0.501-0.218 1.059-0.341 0.558-0.132 1.173-0.132 0.908 0 1.636 0.255 0.738 0.255 1.249 0.738 0.511 0.473 0.785 1.163 0.284 0.681 0.284 1.542 0 0.804-0.255 1.532-0.246 0.728-0.691 1.438-0.435 0.7-1.05 1.409-0.605 0.709-1.315 1.476l-2.658 2.828v0.076h6.517v1.57z"/>
  <path d="m29.405 29.915q0.936 0 1.74 0.265 0.813 0.255 1.409 0.766 0.605 0.511 0.946 1.268t0.341 1.75q0 1.078-0.322 1.939t-0.955 1.457q-0.634 0.596-1.57 0.918-0.927 0.312-2.138 0.312-0.482 0-0.955-0.047-0.463-0.047-0.899-0.142-0.426-0.085-0.813-0.227-0.388-0.142-0.7-0.331v-1.627q0.312 0.218 0.728 0.388 0.426 0.17 0.889 0.284t0.927 0.18q0.473 0.057 0.87 0.057 0.747 0 1.334-0.17 0.586-0.18 0.993-0.549t0.624-0.927q0.218-0.558 0.218-1.324 0-1.353-0.832-2.062-0.832-0.719-2.422-0.719-0.255 0-0.558 0.028-0.293 0.019-0.596 0.057-0.293 0.038-0.568 0.085-0.265 0.038-0.463 0.076l-0.851-0.539 0.52-6.508h6.527v1.57h-5.03l-0.369 3.963q0.303-0.057 0.795-0.123 0.501-0.066 1.182-0.066z"/>
 </g>
 <g transform="matrix(1.0155 0 0 .98474 -.00027084 -1.0011)" style="fill:#868686">
  <path d="m22.13 37.38h-8.627v-1.476l3.311-3.604q0.709-0.766 1.268-1.4 0.558-0.634 0.946-1.239 0.397-0.605 0.605-1.211 0.208-0.615 0.208-1.334 0-0.558-0.161-0.984t-0.463-0.719q-0.293-0.303-0.7-0.454t-0.908-0.151q-0.899 0-1.627 0.369-0.719 0.359-1.372 0.927l-0.965-1.126q0.378-0.341 0.813-0.634 0.435-0.303 0.936-0.52 0.501-0.218 1.059-0.341 0.558-0.132 1.173-0.132 0.908 0 1.636 0.255 0.738 0.255 1.249 0.738 0.511 0.473 0.785 1.163 0.284 0.681 0.284 1.542 0 0.804-0.255 1.532-0.246 0.728-0.691 1.438-0.435 0.7-1.05 1.409-0.605 0.709-1.315 1.476l-2.658 2.828v0.076h6.517v1.57z"/>
  <path d="m28.42 28.899q0.936 0 1.74 0.265 0.813 0.255 1.409 0.766 0.605 0.511 0.946 1.268t0.341 1.75q0 1.078-0.322 1.939t-0.955 1.457q-0.634 0.596-1.57 0.918-0.927 0.312-2.138 0.312-0.482 0-0.955-0.047-0.463-0.047-0.899-0.142-0.426-0.085-0.813-0.227-0.388-0.142-0.7-0.331v-1.627q0.312 0.218 0.728 0.388 0.426 0.17 0.889 0.284t0.927 0.18q0.473 0.057 0.87 0.057 0.747 0 1.334-0.17 0.586-0.18 0.993-0.549t0.624-0.927q0.218-0.558 0.218-1.324 0-1.353-0.832-2.062-0.832-0.719-2.422-0.719-0.255 0-0.558 0.028-0.293 0.019-0.596 0.057-0.293 0.038-0.568 0.085-0.265 0.038-0.463 0.076l-0.851-0.539 0.52-6.508h6.527v1.57h-5.03l-0.369 3.963q0.303-0.057 0.795-0.123 0.501-0.066 1.182-0.066z"/>
 </g>
</svg>
