<svg version="1.1" viewBox="0 0 48 48" xmlns="http://www.w3.org/2000/svg">
 <defs>
  <linearGradient id="bg" x2="0" y1="1" y2="47" gradientUnits="userSpaceOnUse">
   <stop style="stop-color:#eee" offset="0"/>
   <stop style="stop-color:#e4e4e4" offset="1"/>
  </linearGradient>
 </defs>
 <path d="m1 43v0.25c0 2.216 1.784 4 4 4h38c2.216 0 4-1.784 4-4v-0.25c0 2.216-1.784 4-4 4h-38c-2.216 0-4-1.784-4-4zm0 0.5v0.5c0 2.216 1.784 4 4 4h38c2.216 0 4-1.784 4-4v-0.5c0 2.216-1.784 4-4 4h-38c-2.216 0-4-1.784-4-4z" style="opacity:.02"/>
 <path d="m1 43.25v0.25c0 2.216 1.784 4 4 4h38c2.216 0 4-1.784 4-4v-0.25c0 2.216-1.784 4-4 4h-38c-2.216 0-4-1.784-4-4z" style="opacity:.05"/>
 <path d="m1 43v0.25c0 2.216 1.784 4 4 4h38c2.216 0 4-1.784 4-4v-0.25c0 2.216-1.784 4-4 4h-38c-2.216 0-4-1.784-4-4z" style="opacity:.1"/>
 <path d="m24 13.5c-11 0-22 0.5-23 1.5v28c0 2.216 1.784 4 4 4h38c2.216 0 4-1.784 4-4v-28c-1-1-12-1.5-23-1.5z" style="fill:url(#bg)"/>
 <path d="m1 16h46v-1c-2-2-44-2-46 0z" style="opacity:.1"/>
 <path d="m5 1c-2.216 0-4 1.784-4 4v10h46v-10c0-2.216-1.784-4-4-4h-38z" style="fill:#404040"/>
 <path d="m1 39v4c0 2.216 1.784 4 4 4h38c2.216 0 4-1.784 4-4v-4c0 2.216-1.784 4-4 4h-38c-2.216 0-4-1.784-4-4z" style="opacity:.1"/>
 <circle cx="14" cy="8" r="2" style="fill:#282828"/>
 <circle cx="19" cy="8" r="2" style="fill:#282828"/>
 <rect x="13" y="7" width="7" height="2" rx="1" style="fill:#dcdcdc"/>
 <circle cx="29" cy="8" r="2" style="fill:#282828"/>
 <circle cx="34" cy="8" r="2" style="fill:#282828"/>
 <rect x="28" y="7" width="7" height="2" rx="1" style="fill:#dcdcdc"/>
 <g transform="matrix(1.0155 0 0 .98474 -.99546 -1.0011)" style="opacity:.10">
  <path d="m23.11 38.4h-8.627v-1.476l3.311-3.604q0.709-0.766 1.268-1.4 0.558-0.634 0.946-1.239 0.397-0.605 0.605-1.211 0.208-0.615 0.208-1.334 0-0.558-0.161-0.984t-0.463-0.719q-0.293-0.303-0.7-0.454t-0.908-0.151q-0.899 0-1.627 0.369-0.719 0.359-1.372 0.927l-0.965-1.126q0.378-0.341 0.813-0.634 0.435-0.303 0.936-0.52 0.501-0.218 1.059-0.341 0.558-0.132 1.173-0.132 0.908 0 1.636 0.255 0.738 0.255 1.249 0.738 0.511 0.473 0.785 1.163 0.284 0.681 0.284 1.542 0 0.804-0.255 1.532-0.246 0.728-0.691 1.438-0.435 0.7-1.05 1.409-0.605 0.709-1.315 1.476l-2.658 2.828v0.076h6.517v1.57z"/>
  <path d="m33.34 27.806q0 0.691-0.218 1.258-0.218 0.568-0.615 0.984-0.388 0.416-0.936 0.691-0.549 0.265-1.22 0.378v0.057q1.674 0.208 2.544 1.069 0.87 0.851 0.87 2.223 0 0.908-0.312 1.665-0.303 0.757-0.927 1.305-0.624 0.549-1.58 0.851-0.955 0.303-2.261 0.303-1.031 0-1.949-0.161-0.908-0.161-1.712-0.586v-1.608q0.823 0.435 1.778 0.672 0.965 0.236 1.845 0.236 0.87 0 1.504-0.189t1.04-0.539q0.416-0.35 0.605-0.861 0.199-0.511 0.199-1.145 0-0.643-0.255-1.097-0.246-0.463-0.709-0.757-0.463-0.303-1.135-0.445-0.662-0.142-1.504-0.142h-1.258v-1.428h1.258q0.766 0 1.362-0.189t0.993-0.539q0.407-0.35 0.615-0.832t0.208-1.059q0-0.492-0.17-0.88t-0.482-0.653q-0.312-0.274-0.747-0.416t-0.965-0.142q-1.012 0-1.788 0.322-0.766 0.312-1.466 0.823l-0.87-1.182q0.359-0.293 0.795-0.549 0.445-0.255 0.965-0.445 0.52-0.199 1.107-0.312 0.596-0.114 1.258-0.114 1.022 0 1.788 0.255 0.776 0.255 1.296 0.719 0.52 0.454 0.785 1.088 0.265 0.624 0.265 1.372z"/>
 </g>
 <g transform="matrix(1.0155 0 0 .98474 .0047292 -1.0011)" style="fill:#868686">
  <path d="m22.13 37.38h-8.627v-1.476l3.311-3.604q0.709-0.766 1.268-1.4 0.558-0.634 0.946-1.239 0.397-0.605 0.605-1.211 0.208-0.615 0.208-1.334 0-0.558-0.161-0.984t-0.463-0.719q-0.293-0.303-0.7-0.454t-0.908-0.151q-0.899 0-1.627 0.369-0.719 0.359-1.372 0.927l-0.965-1.126q0.378-0.341 0.813-0.634 0.435-0.303 0.936-0.52 0.501-0.218 1.059-0.341 0.558-0.132 1.173-0.132 0.908 0 1.636 0.255 0.738 0.255 1.249 0.738 0.511 0.473 0.785 1.163 0.284 0.681 0.284 1.542 0 0.804-0.255 1.532-0.246 0.728-0.691 1.438-0.435 0.7-1.05 1.409-0.605 0.709-1.315 1.476l-2.658 2.828v0.076h6.517v1.57z"/>
  <path d="m32.355 26.79q0 0.691-0.218 1.258-0.218 0.568-0.615 0.984-0.388 0.416-0.936 0.691-0.549 0.265-1.22 0.378v0.057q1.674 0.208 2.544 1.069 0.87 0.851 0.87 2.223 0 0.908-0.312 1.665-0.303 0.757-0.927 1.305-0.624 0.549-1.58 0.851-0.955 0.303-2.261 0.303-1.031 0-1.949-0.161-0.908-0.161-1.712-0.586v-1.608q0.823 0.435 1.778 0.672 0.965 0.236 1.845 0.236 0.87 0 1.504-0.189t1.04-0.539q0.416-0.35 0.605-0.861 0.199-0.511 0.199-1.145 0-0.643-0.255-1.097-0.246-0.463-0.709-0.757-0.463-0.303-1.135-0.445-0.662-0.142-1.504-0.142h-1.258v-1.428h1.258q0.766 0 1.362-0.189t0.993-0.539q0.407-0.35 0.615-0.832t0.208-1.059q0-0.492-0.17-0.88t-0.482-0.653q-0.312-0.274-0.747-0.416t-0.965-0.142q-1.012 0-1.788 0.322-0.766 0.312-1.466 0.823l-0.87-1.182q0.359-0.293 0.795-0.549 0.445-0.255 0.965-0.445 0.52-0.199 1.107-0.312 0.596-0.114 1.258-0.114 1.022 0 1.788 0.255 0.776 0.255 1.296 0.719 0.52 0.454 0.785 1.088 0.265 0.624 0.265 1.372z"/>
 </g>
</svg>
