<svg width="48" height="48" viewBox="0 0 48 48.000001" xmlns="http://www.w3.org/2000/svg">
  <defs>
    <linearGradient id="a" x1="1" x2="47" gradientTransform="rotate(-90 24 24)" gradientUnits="userSpaceOnUse">
      <stop offset="0" stop-color="#e4e4e4"/>
      <stop offset="1" stop-color="#eee"/>
    </linearGradient>
  </defs>
  <path d="M5 1C2.784 1 1 2.784 1 5v10h46V5c0-2.216-1.784-4-4-4z" fill-rule="evenodd" fill="#6c59a6"/>
  <path d="M1 15v28c0 2.216 1.784 4 4 4h38c2.216 0 4-1.784 4-4V15z" fill="url(#a)"/>
  <path d="M1 15v1h46v-1z" fill-rule="evenodd" opacity=".1"/>
  <path d="M1 43v.25c0 2.216 1.784 4 4 4h38c2.216 0 4-1.784 4-4V43c0 2.216-1.784 4-4 4H5c-2.216 0-4-1.784-4-4zm0 .5v.5c0 2.216 1.784 4 4 4h38c2.216 0 4-1.784 4-4v-.5c0 2.216-1.784 4-4 4H5c-2.216 0-4-1.784-4-4z" opacity=".02"/>
  <path d="M1 43.25v.25c0 2.216 1.784 4 4 4h38c2.216 0 4-1.784 4-4v-.25c0 2.216-1.784 4-4 4H5c-2.216 0-4-1.784-4-4z" opacity=".05"/>
  <path d="M1 43v.25c0 2.216 1.784 4 4 4h38c2.216 0 4-1.784 4-4V43c0 2.216-1.784 4-4 4H5c-2.216 0-4-1.784-4-4z" opacity=".1"/>
  <path d="M1 39v4c0 2.216 1.784 4 4 4h38c2.216 0 4-1.784 4-4v-4c0 2.216-1.784 4-4 4H5c-2.216 0-4-1.784-4-4z" opacity=".1"/>
  <path d="M30.996 8A1.997 1.997 0 1 1 27 8c0-1.102.891-1.996 2-1.996 1.105 0 1.996.898 1.996 1.996M35.996 8c0 1.105-.895 2-2 2S32 9.105 32 8c0-1.102.891-1.996 1.996-1.996s2 .898 2 1.996" fill="#362f70"/>
  <path d="M33.996 9c1 0 1-1 1-1s0-.996-1-.996H29c-1 0-1 .996-1 .996s0 1 1 1m4.996 0" fill="#dcdcdc"/>
  <path d="M15.996 8c0 1.105-.891 2-1.996 2s-2-.895-2-2a1.998 1.998 0 0 1 3.996 0M20.996 8c0 1.105-.891 2-1.996 2s-2-.895-2-2a1.998 1.998 0 0 1 3.996 0" fill="#362f70"/>
  <path d="M13.996 9c-1 0-1-1-1-1s0-.996 1-.996h5c1 0 1 .996 1 .996s0 1-1 1m-5 0" fill="#dcdcdc"/>
  <g opacity=".12">
    <path d="M19.621 36.814h-1.69V28.31v-.857l.019-.904q.019-.456.028-.866.02-.42.029-.736-.164.167-.289.289t-.259.232l-.269.242-.346.289-1.422 1.127-.922-1.145 3.68-2.785h1.44v13.618zM34.069 33.761h-2.041v3.056h-1.691v-3.056h-6.484v-1.48l6.368-9.157h1.806v9.091h2.04v1.546zm-3.737-1.546V28.9q0-.522.009-1.09l.038-1.118.039-1.024q.028-.475.039-.792h-.087q-.067.186-.172.42-.097.223-.222.456-.116.223-.24.438-.124.214-.23.363l-3.948 5.663h4.774z"/>
  </g>
  <g fill="#868686">
    <path d="M19.621 35.81h-1.69v-8.505-.856l.019-.904q.019-.456.028-.867.02-.42.029-.735-.164.167-.289.288t-.259.232l-.269.243-.346.288-1.422 1.128-.922-1.145 3.68-2.785h1.44V35.81zM34.069 32.757h-2.041v3.056h-1.691v-3.056h-6.484v-1.481l6.368-9.156h1.806v9.09h2.04v1.547zm-3.737-1.546v-3.316q0-.522.009-1.09l.038-1.117.039-1.025q.028-.474.039-.791h-.087q-.067.186-.172.42-.097.223-.222.455-.116.224-.24.438-.124.215-.23.364l-3.948 5.663h4.774z"/>
  </g>
</svg>
