<svg width="48" height="48" viewBox="0 0 48 48.000001" xmlns="http://www.w3.org/2000/svg">
  <defs>
    <linearGradient id="a" x1="1" x2="47" gradientTransform="rotate(-90 24 24)" gradientUnits="userSpaceOnUse">
      <stop offset="0" stop-color="#e4e4e4"/>
      <stop offset="1" stop-color="#eee"/>
    </linearGradient>
  </defs>
  <path d="M5 1C2.784 1 1 2.784 1 5v10h46V5c0-2.216-1.784-4-4-4z" fill-rule="evenodd" fill="#d64936"/>
  <path d="M1 15v28c0 2.216 1.784 4 4 4h38c2.216 0 4-1.784 4-4V15z" fill="url(#a)"/>
  <path d="M1 15v1h46v-1z" fill-rule="evenodd" opacity=".1"/>
  <path d="M1 43v.25c0 2.216 1.784 4 4 4h38c2.216 0 4-1.784 4-4V43c0 2.216-1.784 4-4 4H5c-2.216 0-4-1.784-4-4zm0 .5v.5c0 2.216 1.784 4 4 4h38c2.216 0 4-1.784 4-4v-.5c0 2.216-1.784 4-4 4H5c-2.216 0-4-1.784-4-4z" opacity=".02"/>
  <path d="M1 43.25v.25c0 2.216 1.784 4 4 4h38c2.216 0 4-1.784 4-4v-.25c0 2.216-1.784 4-4 4H5c-2.216 0-4-1.784-4-4z" opacity=".05"/>
  <path d="M1 43v.25c0 2.216 1.784 4 4 4h38c2.216 0 4-1.784 4-4V43c0 2.216-1.784 4-4 4H5c-2.216 0-4-1.784-4-4z" opacity=".1"/>
  <path d="M1 39v4c0 2.216 1.784 4 4 4h38c2.216 0 4-1.784 4-4v-4c0 2.216-1.784 4-4 4H5c-2.216 0-4-1.784-4-4z" opacity=".1"/>
  <path d="M30.996 8A1.997 1.997 0 1 1 27 8c0-1.102.891-1.996 2-1.996 1.105 0 1.996.898 1.996 1.996M35.996 8c0 1.105-.895 2-2 2S32 9.105 32 8c0-1.102.891-1.996 1.996-1.996s2 .898 2 1.996" fill="#7f2c20"/>
  <path d="M33.996 9c1 0 1-1 1-1s0-.996-1-.996H29c-1 0-1 .996-1 .996s0 1 1 1m4.996 0" fill="#dcdcdc"/>
  <path d="M15.996 8c0 1.105-.891 2-1.996 2s-2-.895-2-2a1.998 1.998 0 0 1 3.996 0M20.996 8c0 1.105-.891 2-1.996 2s-2-.895-2-2a1.998 1.998 0 0 1 3.996 0" fill="#7f2c20"/>
  <path d="M13.996 9c-1 0-1-1-1-1s0-.996 1-.996h5c1 0 1 .996 1 .996s0 1-1 1m-5 0" fill="#dcdcdc"/>
  <g opacity=".12">
    <path d="M19.621 36.816h-1.69v-8.504-.857q.008-.456.019-.904.019-.456.028-.867.02-.42.029-.735-.164.167-.289.288t-.259.233l-.269.242-.346.289-1.422 1.127-.922-1.145 3.68-2.785h1.44v13.618zM29.054 22.983q.807 0 1.518.205.72.205 1.259.615.547.41.864 1.024t.317 1.434q0 .625-.192 1.128t-.528.913q-.337.4-.798.727-.46.317-.999.577.558.288 1.086.643.538.353.95.8.423.438.672.985.26.55.26 1.23 0 .857-.328 1.556-.316.69-.902 1.174-.577.484-1.394.745-.807.261-1.786.261-1.056 0-1.883-.251-.816-.251-1.383-.717-.557-.475-.855-1.155-.288-.68-.288-1.537 0-.698.211-1.258.221-.56.586-1.006t.864-.792 1.056-.605q-.47-.289-.883-.625-.413-.344-.72-.764-.298-.42-.48-.922-.173-.512-.173-1.127 0-.81.317-1.416.327-.615.874-1.024t1.258-.615q.72-.205 1.5-.205zm-2.69 10.376q0 .494.153.913.154.41.48.708.328.289.826.456.5.159 1.192.159.672 0 1.18-.159.52-.167.865-.465.346-.308.519-.736t.172-.95q0-.485-.192-.876-.182-.39-.538-.727-.346-.335-.836-.633t-1.094-.587l-.289-.13q-1.21.56-1.825 1.285-.614.717-.614 1.742zm2.67-8.96q-1.015 0-1.623.493-.595.493-.595 1.434 0 .531.163.913.173.382.47.68t.712.541q.422.233.912.456.461-.204.865-.447.413-.242.71-.55.308-.306.48-.697t.173-.895q0-.94-.605-1.434t-1.661-.494z"/>
  </g>
  <g fill="#868686">
    <path d="M19.621 35.811h-1.69v-8.504-.856l.019-.904q.019-.456.028-.867.02-.42.029-.736-.164.168-.289.289t-.259.232l-.269.243-.346.288-1.422 1.128-.922-1.146 3.68-2.784h1.44V35.81zM29.054 21.984q.807 0 1.518.205.72.204 1.259.614.547.41.864 1.024t.317 1.435q0 .624-.192 1.127t-.528.913q-.337.401-.798.727-.46.317-.999.577.558.289 1.086.643.538.354.95.8.423.439.673.986.258.549.258 1.23 0 .856-.327 1.555-.316.69-.902 1.174-.577.485-1.394.746-.807.26-1.786.26-1.056 0-1.883-.25-.816-.252-1.383-.717-.557-.475-.855-1.156-.288-.68-.288-1.537 0-.698.211-1.257.221-.56.586-1.007t.864-.791 1.056-.606q-.47-.289-.883-.624-.413-.345-.72-.764-.298-.42-.48-.922-.173-.512-.173-1.128 0-.81.317-1.416.327-.614.874-1.024t1.258-.614q.72-.205 1.5-.205zm-2.69 10.376q0 .493.153.913.154.41.48.708.328.288.826.456.5.158 1.192.158.672 0 1.18-.158.52-.168.865-.466.346-.307.519-.736t.172-.95q0-.484-.192-.875-.182-.391-.538-.727-.346-.336-.836-.633-.489-.299-1.094-.587l-.289-.13q-1.21.56-1.825 1.285-.614.717-.614 1.742zm2.67-8.961q-1.015 0-1.623.493-.595.494-.595 1.435 0 .53.164.913.172.382.47.68t.71.54q.423.233.913.457.462-.205.865-.447.413-.242.71-.55.308-.307.48-.698t.173-.894q0-.94-.605-1.435-.605-.493-1.661-.493z"/>
  </g>
</svg>
