<svg version="1.1" viewBox="0 0 48 48" xmlns="http://www.w3.org/2000/svg">
 <defs>
  <linearGradient id="bg" x2="0" y1="1" y2="47" gradientUnits="userSpaceOnUse">
   <stop style="stop-color:#eee" offset="0"/>
   <stop style="stop-color:#e4e4e4" offset="1"/>
  </linearGradient>
 </defs>
 <path d="m1 43v0.25c0 2.216 1.784 4 4 4h38c2.216 0 4-1.784 4-4v-0.25c0 2.216-1.784 4-4 4h-38c-2.216 0-4-1.784-4-4zm0 0.5v0.5c0 2.216 1.784 4 4 4h38c2.216 0 4-1.784 4-4v-0.5c0 2.216-1.784 4-4 4h-38c-2.216 0-4-1.784-4-4z" style="opacity:.02"/>
 <path d="m1 43.25v0.25c0 2.216 1.784 4 4 4h38c2.216 0 4-1.784 4-4v-0.25c0 2.216-1.784 4-4 4h-38c-2.216 0-4-1.784-4-4z" style="opacity:.05"/>
 <path d="m1 43v0.25c0 2.216 1.784 4 4 4h38c2.216 0 4-1.784 4-4v-0.25c0 2.216-1.784 4-4 4h-38c-2.216 0-4-1.784-4-4z" style="opacity:.1"/>
 <path d="m24 13.5c-11 0-22 0.5-23 1.5v28c0 2.216 1.784 4 4 4h38c2.216 0 4-1.784 4-4v-28c-1-1-12-1.5-23-1.5z" style="fill:url(#bg)"/>
 <path d="m1 16h46v-1c-2-2-44-2-46 0z" style="opacity:.1"/>
 <path d="m5 1c-2.216 0-4 1.784-4 4v10h46v-10c0-2.216-1.784-4-4-4h-38z" style="fill:#d64936"/>
 <path d="m1 39v4c0 2.216 1.784 4 4 4h38c2.216 0 4-1.784 4-4v-4c0 2.216-1.784 4-4 4h-38c-2.216 0-4-1.784-4-4z" style="opacity:.1"/>
 <circle cx="14" cy="8" r="2" style="fill:#7f2c20"/>
 <circle cx="19" cy="8" r="2" style="fill:#7f2c20"/>
 <rect x="13" y="7" width="7" height="2" rx="1" style="fill:#dcdcdc"/>
 <circle cx="29" cy="8" r="2" style="fill:#7f2c20"/>
 <circle cx="34" cy="8" r="2" style="fill:#7f2c20"/>
 <rect x="28" y="7" width="7" height="2" rx="1" style="fill:#dcdcdc"/>
 <g transform="matrix(1.0155 0 0 .98474 -1.0005 -1.0001)" style="opacity:.10">
  <path d="m23.11 38.4h-8.627v-1.476l3.311-3.604q0.709-0.766 1.268-1.4 0.558-0.634 0.946-1.239 0.397-0.605 0.605-1.211 0.208-0.615 0.208-1.334 0-0.558-0.161-0.984t-0.463-0.719q-0.293-0.303-0.7-0.454t-0.908-0.151q-0.899 0-1.627 0.369-0.719 0.359-1.372 0.927l-0.965-1.126q0.378-0.341 0.813-0.634 0.435-0.303 0.936-0.52 0.501-0.218 1.059-0.341 0.558-0.132 1.173-0.132 0.908 0 1.636 0.255 0.738 0.255 1.249 0.738 0.511 0.473 0.785 1.163 0.284 0.681 0.284 1.542 0 0.804-0.255 1.532-0.246 0.728-0.691 1.438-0.435 0.7-1.05 1.409-0.605 0.709-1.315 1.476l-2.658 2.828v0.076h6.517v1.57z"/>
  <path d="m34.01 31.466q0 1.674-0.246 2.999-0.236 1.324-0.776 2.242-0.53 0.918-1.372 1.4t-2.043 0.482q-1.116 0-1.949-0.482-0.823-0.482-1.372-1.4-0.539-0.918-0.813-2.242-0.265-1.324-0.265-2.999 0-1.674 0.236-2.999 0.246-1.324 0.766-2.232 0.53-0.918 1.362-1.4 0.842-0.482 2.034-0.482 1.126 0 1.958 0.482 0.832 0.473 1.381 1.39 0.549 0.908 0.823 2.232t0.274 3.01zm-7.085 0q0 1.419 0.142 2.478t0.454 1.769q0.312 0.7 0.813 1.059 0.511 0.35 1.239 0.35t1.239-0.35 0.832-1.05q0.331-0.7 0.473-1.759 0.151-1.069 0.151-2.497 0-1.419-0.151-2.478-0.142-1.059-0.473-1.759-0.322-0.7-0.832-1.05-0.511-0.35-1.239-0.35t-1.239 0.35q-0.501 0.35-0.813 1.05t-0.454 1.759-0.142 2.478z"/>
 </g>
 <g transform="matrix(1.0155 0 0 .98474 -.00027084 -1.0001)" style="fill:#868686">
  <path d="m22.13 37.38h-8.627v-1.476l3.311-3.604q0.709-0.766 1.268-1.4 0.558-0.634 0.946-1.239 0.397-0.605 0.605-1.211 0.208-0.615 0.208-1.334 0-0.558-0.161-0.984t-0.463-0.719q-0.293-0.303-0.7-0.454t-0.908-0.151q-0.899 0-1.627 0.369-0.719 0.359-1.372 0.927l-0.965-1.126q0.378-0.341 0.813-0.634 0.435-0.303 0.936-0.52 0.501-0.218 1.059-0.341 0.558-0.132 1.173-0.132 0.908 0 1.636 0.255 0.738 0.255 1.249 0.738 0.511 0.473 0.785 1.163 0.284 0.681 0.284 1.542 0 0.804-0.255 1.532-0.246 0.728-0.691 1.438-0.435 0.7-1.05 1.409-0.605 0.709-1.315 1.476l-2.658 2.828v0.076h6.517v1.57z"/>
  <path d="m33.03 30.451q0 1.674-0.246 2.999-0.236 1.324-0.776 2.242-0.53 0.918-1.372 1.4t-2.043 0.482q-1.116 0-1.949-0.482-0.823-0.482-1.372-1.4-0.539-0.918-0.813-2.242-0.265-1.324-0.265-2.999 0-1.674 0.236-2.999 0.246-1.324 0.766-2.232 0.53-0.918 1.362-1.4 0.842-0.482 2.034-0.482 1.126 0 1.958 0.482 0.832 0.473 1.381 1.39 0.549 0.908 0.823 2.232t0.274 3.01zm-7.085 0q0 1.419 0.142 2.478t0.454 1.769q0.312 0.7 0.813 1.059 0.511 0.35 1.239 0.35t1.239-0.35 0.832-1.05q0.331-0.7 0.473-1.759 0.151-1.069 0.151-2.497 0-1.419-0.151-2.478-0.142-1.059-0.473-1.759-0.322-0.7-0.832-1.05-0.511-0.35-1.239-0.35t-1.239 0.35q-0.501 0.35-0.813 1.05t-0.454 1.759-0.142 2.478z"/>
 </g>
</svg>
