<svg width="48" height="48" viewBox="0 0 48 48.000001" xmlns="http://www.w3.org/2000/svg">
  <defs>
    <linearGradient id="a" x1="1" x2="47" gradientTransform="rotate(-90 24 24)" gradientUnits="userSpaceOnUse">
      <stop offset="0" stop-color="#e4e4e4"/>
      <stop offset="1" stop-color="#eee"/>
    </linearGradient>
  </defs>
  <path d="M5 1C2.784 1 1 2.784 1 5v10h46V5c0-2.216-1.784-4-4-4z" fill-rule="evenodd" fill="#6c59a6"/>
  <path d="M1 15v28c0 2.216 1.784 4 4 4h38c2.216 0 4-1.784 4-4V15z" fill="url(#a)"/>
  <path d="M1 15v1h46v-1z" fill-rule="evenodd" opacity=".1"/>
  <path d="M1 43v.25c0 2.216 1.784 4 4 4h38c2.216 0 4-1.784 4-4V43c0 2.216-1.784 4-4 4H5c-2.216 0-4-1.784-4-4zm0 .5v.5c0 2.216 1.784 4 4 4h38c2.216 0 4-1.784 4-4v-.5c0 2.216-1.784 4-4 4H5c-2.216 0-4-1.784-4-4z" opacity=".02"/>
  <path d="M1 43.25v.25c0 2.216 1.784 4 4 4h38c2.216 0 4-1.784 4-4v-.25c0 2.216-1.784 4-4 4H5c-2.216 0-4-1.784-4-4z" opacity=".05"/>
  <path d="M1 43v.25c0 2.216 1.784 4 4 4h38c2.216 0 4-1.784 4-4V43c0 2.216-1.784 4-4 4H5c-2.216 0-4-1.784-4-4z" opacity=".1"/>
  <path d="M1 39v4c0 2.216 1.784 4 4 4h38c2.216 0 4-1.784 4-4v-4c0 2.216-1.784 4-4 4H5c-2.216 0-4-1.784-4-4z" opacity=".1"/>
  <path d="M30.996 8A1.997 1.997 0 1 1 27 8c0-1.102.891-1.996 2-1.996 1.105 0 1.996.898 1.996 1.996M35.996 8c0 1.105-.895 2-2 2S32 9.105 32 8c0-1.102.891-1.996 1.996-1.996s2 .898 2 1.996" fill="#362f70"/>
  <path d="M33.996 9c1 0 1-1 1-1s0-.996-1-.996H29c-1 0-1 .996-1 .996s0 1 1 1m4.996 0" fill="#dcdcdc"/>
  <path d="M15.996 8c0 1.105-.891 2-1.996 2s-2-.895-2-2a1.998 1.998 0 0 1 3.996 0M20.996 8c0 1.105-.891 2-1.996 2s-2-.895-2-2a1.998 1.998 0 0 1 3.996 0" fill="#362f70"/>
  <path d="M13.996 9c-1 0-1-1-1-1s0-.996 1-.996h5c1 0 1 .996 1 .996s0 1-1 1m-5 0" fill="#dcdcdc"/>
  <g opacity=".12">
    <path d="M22.468 36.814h-8.761v-1.453l3.362-3.55q.72-.754 1.288-1.378.567-.624.96-1.22.404-.596.615-1.193.211-.605.211-1.313 0-.55-.163-.97t-.47-.707q-.298-.299-.711-.447t-.922-.15q-.913 0-1.653.364-.73.354-1.393.913l-.98-1.109q.384-.335.826-.624.442-.298.95-.512.51-.215 1.076-.336.566-.13 1.19-.13.923 0 1.662.251.75.251 1.269.727.519.466.797 1.145.288.67.288 1.519 0 .791-.259 1.508-.25.717-.701 1.416-.442.69-1.067 1.388-.614.698-1.335 1.453l-2.7 2.785v.075h6.619v1.546zM33.307 36.814h-8.76v-1.453l3.362-3.55q.72-.754 1.287-1.378.567-.624.961-1.22.403-.596.614-1.193.212-.605.212-1.313 0-.55-.164-.97t-.47-.707q-.298-.299-.71-.447t-.923-.15q-.913 0-1.652.364-.73.354-1.393.913l-.98-1.109q.383-.335.825-.624.442-.298.95-.512.51-.215 1.076-.336.567-.13 1.191-.13.922 0 1.662.251.75.251 1.268.727.519.466.797 1.145.289.67.289 1.519 0 .791-.26 1.508-.25.717-.701 1.416-.442.69-1.066 1.388-.615.698-1.336 1.453l-2.699 2.785v.075h6.618v1.546z"/>
  </g>
  <g fill="#868686">
    <path d="M22.473 35.81h-8.761v-1.454l3.362-3.549q.72-.754 1.288-1.378.567-.625.96-1.22.404-.596.615-1.193.211-.606.211-1.314 0-.55-.163-.969t-.47-.708q-.298-.298-.711-.447t-.922-.149q-.913 0-1.653.364-.73.353-1.393.913l-.98-1.11q.384-.335.826-.623.442-.299.95-.513.51-.214 1.076-.335.566-.13 1.19-.13.923 0 1.662.25.75.252 1.269.728.519.465.797 1.145.288.67.288 1.518 0 .792-.259 1.509-.25.717-.701 1.416-.442.69-1.067 1.387-.614.699-1.335 1.454l-2.7 2.785v.075h6.619v1.546zM33.308 35.81h-8.76v-1.454l3.362-3.549q.72-.754 1.287-1.378.567-.625.961-1.22.403-.596.614-1.193.212-.606.212-1.314 0-.55-.164-.969t-.47-.708q-.298-.298-.71-.447t-.923-.149q-.913 0-1.652.364-.73.353-1.393.913l-.98-1.11q.383-.335.825-.623.442-.299.95-.513.51-.214 1.076-.335.567-.13 1.191-.13.922 0 1.662.25.75.252 1.268.728.519.465.797 1.145.289.67.289 1.518 0 .792-.26 1.509-.25.717-.701 1.416-.442.69-1.066 1.387-.615.699-1.336 1.454l-2.699 2.785v.075h6.618v1.546z"/>
  </g>
</svg>
