<svg width="48" height="48" version="1.1" xmlns="http://www.w3.org/2000/svg" xmlns:xlink="http://www.w3.org/1999/xlink">
 <defs>
  <linearGradient id="linearGradient4075" x1="24" x2="24" y1="1051.4" y2="1005.4" gradientUnits="userSpaceOnUse">
   <stop style="stop-color:#ede9ce" offset="0"/>
   <stop style="stop-color:#f5f2de" offset="1"/>
  </linearGradient>
 </defs>
 <g transform="translate(0 -1004.4)">
  <path d="m5 1006.4c-2.216 0-4 1.784-4 4v37.25c0 2.216 1.784 4 4 4h38c2.216 0 4-1.784 4-4v-37.25c0-2.216-1.784-4-4-4h-38zm-4 41.5v0.5c0 2.216 1.784 4 4 4h38c2.216 0 4-1.784 4-4v-0.5c0 2.216-1.784 4-4 4h-38c-2.216 0-4-1.784-4-4z" style="opacity:.02"/>
  <path d="m1 1047.6v0.25c0 2.216 1.784 4 4 4h38c2.216 0 4-1.784 4-4v-0.25c0 2.216-1.784 4-4 4h-38c-2.216 0-4-1.784-4-4z" style="opacity:.05"/>
  <rect x="1" y="1005.6" width="46" height="46" rx="4" style="opacity:.1"/>
 </g>
 <g transform="translate(0 -1004.4)">
  <g transform="translate(0 .0022146)" style="fill:url(#linearGradient4075)">
   <rect x="1" y="1005.4" width="46" height="46" rx="4" style="fill:url(#linearGradient4075)"/>
  </g>
  <path d="m1 1043.4v4c0 2.216 1.784 4 4 4h38c2.216 0 4-1.784 4-4v-4c0 2.216-1.784 4-4 4h-38c-2.216 0-4-1.784-4-4z" style="opacity:.1"/>
 </g>
 <path d="m25 36v-18h-4v18" style="opacity:.1"/>
 <path d="m21 18-10-6 1e-6 18 10 6" style="opacity:.1"/>
 <path d="m35 30v-18l-10 6v18" style="opacity:.1"/>
 <path d="m35 13c-4 0-8 1.02-12 4.5-4-3.395-8-4.5-12-4.5l10 6h4" style="opacity:.1"/>
 <path d="m34 14" style="opacity:.1"/>
 <path d="m25 35v-18h-4v18" style="fill:#f5a529"/>
 <path d="m21 17-10-6v18l10 6" style="fill:#e75230"/>
 <path d="m35 29v-18l-10 6v18" style="fill:#ffd146"/>
 <path d="m35 11c-4 0-8 1.02-12 4.5-4-3.395-8-4.5-12-4.5l10 6h4" style="fill:#86301b"/>
 <path d="m33 12" style="fill:#f9f9f9"/>
 <path d="m28 15v5l3-3v-4h-3z" style="fill:#86301b"/>
</svg>
