<svg height="48" viewBox="0 0 48 48.000001" xmlns="http://www.w3.org/2000/svg" width="48">
  <defs>
    <linearGradient id="a" gradientUnits="userSpaceOnUse" x1="1" gradientTransform="translate(-48 .002)" x2="47">
      <stop offset="0" stop-color="#d6ecf6"/>
      <stop offset="1" stop-color="#e6f4fa"/>
    </linearGradient>
  </defs>
  <path d="M1 43v.25c0 2.216 1.784 4 4 4h38c2.216 0 4-1.784 4-4V43c0 2.216-1.784 4-4 4H5c-2.216 0-4-1.784-4-4zm0 .5v.5c0 2.216 1.784 4 4 4h38c2.216 0 4-1.784 4-4v-.5c0 2.216-1.784 4-4 4H5c-2.216 0-4-1.784-4-4z" opacity=".02"/>
  <path d="M1 43.25v.25c0 2.216 1.784 4 4 4h38c2.216 0 4-1.784 4-4v-.25c0 2.216-1.784 4-4 4H5c-2.216 0-4-1.784-4-4z" opacity=".05"/>
  <path d="M1 43v.25c0 2.216 1.784 4 4 4h38c2.216 0 4-1.784 4-4V43c0 2.216-1.784 4-4 4H5c-2.216 0-4-1.784-4-4z" opacity=".1"/>
  <rect height="46" y="1" transform="rotate(-90)" x="-47" rx="4" width="46" fill="url(#a)"/>
  <path d="M25 8c-8.284-.005-15 6.716-15 15s6.716 15.004 15 15a14.989 14.989 0 0 0 11.982-6h-2.621A12.986 12.986 0 0 1 25 36c-7.18.004-13-5.82-13-13s5.82-13.001 13-13c3.539 0 6.924 1.446 9.375 4h2.601A14.99 14.99 0 0 0 25 8z" fill="#1a1a1a" opacity=".6"/>
  <g>
    <path d="M1 39v4c0 2.216 1.784 4 4 4h38c2.216 0 4-1.784 4-4v-4c0 2.216-1.784 4-4 4H5c-2.216 0-4-1.784-4-4z" opacity=".1"/>
  </g>
  <g transform="translate(0 -1.996)">
    <path d="M31.652 16a4.248 4.248 0 0 0-4.235 3.996h-2.413v-2.998H14.006v6h5v.998h-5v10h10.998V30.99h1.999v3.005h9v-7.002h-4v-2.512a4.248 4.248 0 0 0 3.898-4.23 4.248 4.248 0 0 0-4.25-4.253m-6.65 4.996h2.466A4.248 4.248 0 0 0 31 24.443v2.551h-4v2.998h-2v-5.996h-4.999v-.999h5v-2.005z" fill-opacity=".098"/>
    <path fill="#b3b3b3" d="M19 21.598h.999v1.601h-1zM24.616 18.997h3v.999h-3z"/>
    <path fill="#cd87de" d="M14 16h10.998v5.998H14z"/>
    <path fill="#b3b3b3" d="M31 23.298h1V26.3h-1zM24.715 28.996h2.498v1h-2.498z"/>
    <path fill="#87aade" d="M14 23h10.998v10H14z"/>
    <path fill="#5fd38d" d="M27 25.998h9V33h-9z"/>
    <circle cx="31.65" cy="19.25" r="4.25" fill="#de8787"/>
  </g>
</svg>
