<svg version="1.1" viewBox="0 0 48 48" xmlns="http://www.w3.org/2000/svg">
 <defs>
  <linearGradient id="bg" x2="0" y1="1" y2="47" gradientUnits="userSpaceOnUse">
   <stop style="stop-color:#e76a2c" offset="0"/>
   <stop style="stop-color:#e55d1a" offset="1"/>
  </linearGradient>
 </defs>
 <path d="m1 43v0.25c0 2.22 1.78 4 4 4h38c2.22 0 4-1.78 4-4v-0.25c0 2.22-1.78 4-4 4h-38c-2.22 0-4-1.78-4-4zm0 0.5v0.5c0 2.22 1.78 4 4 4h38c2.22 0 4-1.78 4-4v-0.5c0 2.22-1.78 4-4 4h-38c-2.22 0-4-1.78-4-4z" style="opacity:.02"/>
 <path d="m1 43.2v0.25c0 2.22 1.78 4 4 4h38c2.22 0 4-1.78 4-4v-0.25c0 2.22-1.78 4-4 4h-38c-2.22 0-4-1.78-4-4z" style="opacity:.05"/>
 <path d="m1 43v0.25c0 2.22 1.78 4 4 4h38c2.22 0 4-1.78 4-4v-0.25c0 2.22-1.78 4-4 4h-38c-2.22 0-4-1.78-4-4z" style="opacity:.1"/>
 <rect x="1" y="1" width="46" height="46" rx="4" style="fill:url(#bg)"/>
 <path d="m1 39v4c0 2.22 1.78 4 4 4h38c2.22 0 4-1.78 4-4v-4c0 2.22-1.78 4-4 4h-38c-2.22 0-4-1.78-4-4z" style="opacity:.1"/>
 <path d="m24 10c-2.77 0-5 2.23-5 5v10c0 2.77 2.23 5 5 5s5-2.23 5-5v-3h-3v3c0 1.11-0.892 2-2 2s-2-0.892-2-2v-10c0-1.11 0.892-2 2-2s2 0.892 2 2v2h3v-2c0-2.77-2.23-5-5-5zm-5 23v5h10v-5z" style="opacity:.1"/>
 <path d="m24 9c-2.77 0-5 2.23-5 5v10c0 2.77 2.23 5 5 5s5-2.23 5-5v-3h-3v3c0 1.11-0.892 2-2 2s-2-0.892-2-2v-10c0-1.11 0.892-2 2-2s2 0.892 2 2v2h3v-2c0-2.77-2.23-5-5-5z" style="fill:#f9f9f9"/>
 <path d="m19 32h10v5h-10z" style="fill:#4d4d4d"/>
</svg>
