<svg version="1.1" viewBox="0 0 48 48" xmlns="http://www.w3.org/2000/svg">
 <defs>
  <linearGradient id="bg" x1="-47" x2="-1" gradientUnits="userSpaceOnUse">
   <stop style="stop-color:#7d4972" offset="0"/>
   <stop style="stop-color:#8a507e" offset="1"/>
  </linearGradient>
 </defs>
 <path d="m1 43v0.25c0 2.22 1.78 4 4 4h38c2.22 0 4-1.78 4-4v-0.25c0 2.22-1.78 4-4 4h-38c-2.22 0-4-1.78-4-4zm0 0.5v0.5c0 2.22 1.78 4 4 4h38c2.22 0 4-1.78 4-4v-0.5c0 2.22-1.78 4-4 4h-38c-2.22 0-4-1.78-4-4z" style="opacity:.02"/>
 <path d="m1 43.3v0.25c0 2.22 1.78 4 4 4h38c2.22 0 4-1.78 4-4v-0.25c0 2.22-1.78 4-4 4h-38c-2.22 0-4-1.78-4-4z" style="opacity:.05"/>
 <path d="m1 43v0.25c0 2.22 1.78 4 4 4h38c2.22 0 4-1.78 4-4v-0.25c0 2.22-1.78 4-4 4h-38c-2.22 0-4-1.78-4-4z" style="opacity:.1"/>
 <rect transform="rotate(-90)" x="-47" y="1" width="46" height="46" rx="4" style="fill:url(#bg)"/>
 <path d="m1 39v4c0 2.22 1.78 4 4 4h38c2.22 0 4-1.78 4-4v-4c0 2.22-1.78 4-4 4h-38c-2.22 0-4-1.78-4-4z" style="opacity:.1"/>
 <path d="m19.1 15.3-2.86-1.91-2.83 2.83 1.91 2.86-0.926 2.24-3.37 0.674v4l3.37 0.674c0.22 0.792 0.529 1.54 0.926 2.24l-1.91 2.86 2.83 2.83 2.86-1.91c0.7 0.397 1.45 0.706 2.24 0.926l0.674 3.37h4l0.674-3.37c0.792-0.22 1.54-0.529 2.24-0.926l2.86 1.91 2.83-2.83-1.91-2.86c0.397-0.7 0.706-1.45 0.926-2.24l3.37-0.674v-4l-3.37-0.674-0.926-2.24 1.91-2.86-2.83-2.83-2.86 1.91m-4.92 5.7c1.66 0 3 1.34 3 3s-1.34 3-3 3-3-1.34-3-3 1.34-3 3-3z" style="opacity:.1"/>
 <path d="m22 10-0.674 3.37c-0.792 0.22-1.54 0.529-2.24 0.926l-2.86-1.91-2.83 2.83 1.91 2.86c-0.397 0.7-0.706 1.45-0.926 2.24l-3.37 0.674v4l3.37 0.674c0.22 0.792 0.529 1.54 0.926 2.24l-1.91 2.86 2.83 2.83 2.86-1.91c0.7 0.397 1.45 0.706 2.24 0.926l0.674 3.37h4l0.674-3.37c0.792-0.22 1.54-0.529 2.24-0.926l2.86 1.91 2.83-2.83-1.91-2.86c0.397-0.7 0.706-1.45 0.926-2.24l3.37-0.674v-4l-3.37-0.674c-0.22-0.792-0.529-1.54-0.926-2.24l1.91-2.86-2.83-2.83-2.86 1.91c-0.7-0.397-1.45-0.706-2.24-0.926l-0.674-3.37zm2 10a3 3 0 0 1 3 3 3 3 0 0 1-3 3 3 3 0 0 1-3-3 3 3 0 0 1 3-3z" style="fill:#ccc"/>
</svg>
