<svg viewBox="0 0 48 48" xmlns="http://www.w3.org/2000/svg">
 <defs>
  <linearGradient id="linearGradient3764" x1="1" x2="47" gradientTransform="translate(-48 .0022147)" gradientUnits="userSpaceOnUse">
   <stop stop-color="#e4e4e4" offset="0"/>
   <stop stop-color="#eee" offset="1"/>
  </linearGradient>
  <clipPath id="clipPath-113045419">
   <g transform="translate(0 -1004.4)">
    <rect x="1" y="1005.4" width="46" height="46" rx="4" fill="#1890d0"/>
   </g>
  </clipPath>
  <clipPath id="clipPath-126492408">
   <g transform="translate(0 -1004.4)">
    <rect x="1" y="1005.4" width="46" height="46" rx="4" fill="#1890d0"/>
   </g>
  </clipPath>
 </defs>
 <g>
  <path d="m1 43v0.25c0 2.216 1.784 4 4 4h38c2.216 0 4-1.784 4-4v-0.25c0 2.216-1.784 4-4 4h-38c-2.216 0-4-1.784-4-4zm0 0.5v0.5c0 2.216 1.784 4 4 4h38c2.216 0 4-1.784 4-4v-0.5c0 2.216-1.784 4-4 4h-38c-2.216 0-4-1.784-4-4z" opacity=".02"/>
  <path d="m1 43.25v0.25c0 2.216 1.784 4 4 4h38c2.216 0 4-1.784 4-4v-0.25c0 2.216-1.784 4-4 4h-38c-2.216 0-4-1.784-4-4z" opacity=".05"/>
  <path d="m1 43v0.25c0 2.216 1.784 4 4 4h38c2.216 0 4-1.784 4-4v-0.25c0 2.216-1.784 4-4 4h-38c-2.216 0-4-1.784-4-4z" opacity=".1"/>
 </g>
 <g>
  <rect transform="rotate(-90)" x="-47" y="1" width="46" height="46" rx="4" fill="url(#linearGradient3764)"/>
 </g>
 <g>
  <g clip-path="url(#clipPath-113045419)">
   <g opacity=".1">
    <g>
     <g>
      <path d="m21 19.941c3.77-2.699 6.711-3.348 11-2.332v10.06c-0.203 0.398-1.066 2.348 3 3.449v-19.766c-7.605-0.691-11.625-0.656-17 2.82v15.824c1.359-2.051-5.586 4.84 3 2.918m0-12.973"/>
      <path d="m21 33c0 2.211-1.793 4-4 4-2.211 0-4-1.789-4-4s1.789-4 4-4c2.207 0 4 1.789 4 4"/>
      <path d="m35 31c0 2.211-1.793 4-4 4-2.211 0-4-1.789-4-4 0-2.207 1.789-4 4-4 2.207 0 4 1.793 4 4"/>
     </g>
    </g>
   </g>
  </g>
 </g>
 <g>
  <g clip-path="url(#clipPath-126492408)">
   <g transform="translate(0,-1)">
    <g>
     <g fill="#2d4c78">
      <path d="m21 19.941c3.77-2.699 6.711-3.348 11-2.332v10.06c-0.203 0.398-1.066 2.348 3 3.449v-19.766c-7.605-0.691-11.625-0.656-17 2.82v15.824c1.359-2.051-5.586 4.84 3 2.918m0-12.973"/>
      <path d="m21 33c0 2.211-1.793 4-4 4-2.211 0-4-1.789-4-4s1.789-4 4-4c2.207 0 4 1.789 4 4"/>
      <path d="m35 31c0 2.211-1.793 4-4 4-2.211 0-4-1.789-4-4 0-2.207 1.789-4 4-4 2.207 0 4 1.793 4 4"/>
     </g>
    </g>
   </g>
  </g>
 </g>
 <g>
  <g transform="translate(0 -1004.4)">
   <path d="m1 1043.4v4c0 2.216 1.784 4 4 4h38c2.216 0 4-1.784 4-4v-4c0 2.216-1.784 4-4 4h-38c-2.216 0-4-1.784-4-4z" opacity=".1"/>
  </g>
 </g>
</svg>
