<svg version="1.1" viewBox="0 0 48 48" xmlns="http://www.w3.org/2000/svg">
 <defs>
  <linearGradient id="bg" x2="0" y1="1" y2="47" gradientUnits="userSpaceOnUse">
   <stop style="stop-color:#8b1635" offset="0"/>
   <stop style="stop-color:#79132e" offset="1"/>
  </linearGradient>
 </defs>
 <path d="m1 43v0.25c0 2.216 1.784 4 4 4h38c2.216 0 4-1.784 4-4v-0.25c0 2.216-1.784 4-4 4h-38c-2.216 0-4-1.784-4-4zm0 0.5v0.5c0 2.216 1.784 4 4 4h38c2.216 0 4-1.784 4-4v-0.5c0 2.216-1.784 4-4 4h-38c-2.216 0-4-1.784-4-4z" style="opacity:.02"/>
 <path d="m1 43.25v0.25c0 2.216 1.784 4 4 4h38c2.216 0 4-1.784 4-4v-0.25c0 2.216-1.784 4-4 4h-38c-2.216 0-4-1.784-4-4z" style="opacity:.05"/>
 <path d="m1 43v0.25c0 2.216 1.784 4 4 4h38c2.216 0 4-1.784 4-4v-0.25c0 2.216-1.784 4-4 4h-38c-2.216 0-4-1.784-4-4z" style="opacity:.1"/>
 <rect x="1" y="1" width="46" height="46" rx="4" style="fill:url(#bg)"/>
 <path d="m1 39v4c0 2.216 1.784 4 4 4h38c2.216 0 4-1.784 4-4v-4c0 2.216-1.784 4-4 4h-38c-2.216 0-4-1.784-4-4z" style="opacity:.1"/>
 <circle cx="24" cy="23" r="8" fill="#2f2f2f"/>
 <path d="m24 11a13 13 0 1 0 0 26 13 13 0 0 0 0-26zm-0.707 7.074c0.1897 0.671 0.4472 1.406 0.707 1.926 0.2598-0.5196 0.5174-1.255 0.707-1.926a6 6 0 0 1 3.059 1.287c-0.2946 0.4904-0.574 1.064-0.7656 1.639 0.5753-0.1918 1.148-0.4726 1.639-0.7676a6 6 0 0 1 1.311 3.053c-0.6779 0.1903-1.423 0.4517-1.949 0.7148 0.5263 0.2631 1.271 0.5246 1.949 0.7148a6 6 0 0 1-1.311 3.051c-0.4907-0.2949-1.063-0.5739-1.639-0.7656 0.1916 0.5747 0.471 1.146 0.7656 1.637a6 6 0 0 1-3.059 1.287c-0.1897-0.6709-0.4473-1.404-0.707-1.924-0.2598 0.5195-0.5174 1.253-0.707 1.924a6 6 0 0 1-3.061-1.287c0.2946-0.4904 0.576-1.062 0.7676-1.637-0.5753 0.1918-1.15 0.4707-1.641 0.7656a6 6 0 0 1-1.309-3.051c0.6775-0.1902 1.423-0.4519 1.949-0.7148-0.5264-0.2632-1.273-0.5246-1.951-0.7148a6 6 0 0 1 1.312-3.053c0.4904 0.2946 1.064 0.576 1.639 0.7676-0.1916-0.5748-0.4729-1.148-0.7676-1.639a6 6 0 0 1 3.061-1.287z" opacity=".1"/>
 <path d="m24 10a13 13 0 1 0 0 26 13 13 0 1 0 0-26m0 7a6 6 0 1 1 0 12 6 6 0 1 1 0-12" fill="#642640"/>
 <path d="m24 19c0.5-1 1-2.8 1-3.4 0-0.8-2-0.8-2 0 0 0.6 0.5 2.4 1 3.4zm0 8c0.5 1 1 2.8 1 3.4 0 0.8-2 0.8-2 0 0-0.6 0.5-2.4 1-3.4zm-4-4c-1 0.5-2.8 1-3.4 1-0.8 0-0.8-2 0-2 0.6 0 2.4 0.5 3.4 1zm8 0c1 0.5 2.8 1 3.4 1 0.8 0 0.8-2 0-2-0.6 0-2.4 0.5-3.4 1zm-10-5c0-0.5 0.5-1 1-1 0.4 0 1.5 1.5 2 3-1.5-0.5-3-1.6-3-2zm0 10c0 0.5 0.5 1 1 1 0.4 0 1.5-1.5 2-3-1.5 0.5-3 1.6-3 2zm12-10c0-0.5-0.5-1-1-1-0.4 0-1.5 1.5-2 3 1.5-0.5 3-1.6 3-2zm0 10c0 0.5-0.5 1-1 1-0.4 0-1.5-1.5-2-3 1.5 0.5 3 1.6 3 2z" fill="#b19b81"/>
 <path d="m24 9a15 15 0 0 0 0 30 15 15 0 0 0 0-30zm0 3a12 12 0 0 1 3.744.6113c-.4013 1.088-.7441 2.734-.7441 4.389 1.281-1.281 2.194-2.56 2.746-3.529a12 12 0 0 1 4.75 4.803c-.9657.5535-2.229 1.459-3.496 2.727 1.641 0 3.273-.3373 4.361-.7344a12 12 0 0 1 0 7.471c-1.089-.3971-2.72-.7363-4.361-.7363 1.268 1.268 2.532 2.175 3.498 2.729a12 12 0 0 1-4.752 4.803c-.5516-.9697-1.465-2.25-2.746-3.531 0 1.655.3428 3.3.7441 4.389a12 12 0 0 1-3.744.6113 12 12 0 0 1-3.744-.6113c.4013-1.088.7441-2.734.7441-4.389-1.282 1.282-2.194 2.562-2.746 3.531a12 12 0 0 1-4.754-4.803c.9661-.5534 2.232-1.46 3.5-2.729-1.642 0-3.275.339-4.363.7363a12 12 0 0 1 0-7.471c1.089.3973 2.721.7344 4.363.7344-1.268-1.268-2.532-2.175-3.498-2.729a12 12 0 0 1 4.752-4.801c.5516.9697 1.465 2.248 2.746 3.529 0-1.654-.3429-3.3-.7441-4.389a12 12 0 0 1 3.744-.6113z" opacity=".1"/>
 <path d="m20 11c.5 1 1 3 1 5-1.5-1.5-2.5-3-3-4zm-8 8c1 .5 3 1 5 1-1.5-1.5-3-2.5-4-3zm8 16c.5-1 1-3 1-5-1.5 1.5-2.5 3-3 4zm-8-8c1-.5 3-1 5-1-1.5 1.5-3 2.5-4 3zm16-16c-.5 1-1 3-1 5 1.5-1.5 2.5-3 3-4zm8 8c-1 .5-3 1-5 1 1.5-1.5 3-2.5 4-3zm-8 16c-.5-1-1-3-1-5 1.5 1.5 2.5 3 3 4zm8-8c-1-.5-3-1-5-1 1.5 1.5 3 2.5 4 3z" fill="#fee0ba"/>
 <path d="m24 8a15 15 0 1 0 0 30 15 15 0 1 0 0-30m0 3a12 12 0 1 1 0 24 12 12 0 1 1 0-24" fill="#c20a2d"/>
</svg>
