<svg version="1.1" viewBox="0 0 48 48" xmlns="http://www.w3.org/2000/svg">
 <defs>
  <linearGradient id="bg" x2="0" y1="1" y2="47" gradientUnits="userSpaceOnUse">
   <stop style="stop-color:#be666c" offset="0"/>
   <stop style="stop-color:#b8585f" offset="1"/>
  </linearGradient>
 </defs>
 <path d="m1 43v0.25c0 2.216 1.784 4 4 4h38c2.216 0 4-1.784 4-4v-0.25c0 2.216-1.784 4-4 4h-38c-2.216 0-4-1.784-4-4zm0 0.5v0.5c0 2.216 1.784 4 4 4h38c2.216 0 4-1.784 4-4v-0.5c0 2.216-1.784 4-4 4h-38c-2.216 0-4-1.784-4-4z" style="opacity:.02"/>
 <path d="m1 43.25v0.25c0 2.216 1.784 4 4 4h38c2.216 0 4-1.784 4-4v-0.25c0 2.216-1.784 4-4 4h-38c-2.216 0-4-1.784-4-4z" style="opacity:.05"/>
 <path d="m1 43v0.25c0 2.216 1.784 4 4 4h38c2.216 0 4-1.784 4-4v-0.25c0 2.216-1.784 4-4 4h-38c-2.216 0-4-1.784-4-4z" style="opacity:.1"/>
 <rect x="1" y="1" width="46" height="46" rx="4" style="fill:url(#bg)"/>
 <path d="m1 39v4c0 2.216 1.784 4 4 4h38c2.216 0 4-1.784 4-4v-4c0 2.216-1.784 4-4 4h-38c-2.216 0-4-1.784-4-4z" style="opacity:.1"/>
 <path d="m12 12v15h6v-3h0.61719l9.3828 8.4453v-2.6895l-1.9512-1.7559h-0.048828v-0.04492l-6.6172-5.9551h-1.3828v-5h0.61719l7.748 6.9727c0.23711-0.65032 0.5775-1.2519 1.0117-1.7773v-2e-3l-7.9941-7.1933h-1.3828v-3zm20 10c-2.2091 0-4 1.7909-4 4h3c0-0.55228 0.44772-1 1-1s1 0.44772 1 1c0 1-1 1.5-3 2.5v3.5h3v-2c2-1 2.9974-2.1782 3-4 0-2.2091-1.7909-4-4-4zm-0.5 11c-0.82843 0-1.5 0.67157-1.5 1.5s0.67157 1.5 1.5 1.5 1.5-0.67157 1.5-1.5-0.67157-1.5-1.5-1.5z" style="opacity:.1;paint-order:normal"/>
 <path d="m12 11v15h6v-15z" style="fill:#404040;paint-order:normal"/>
 <path d="m16 14-2 2 2 2h1v-1h1v-2h-1v-1h-1zm0 7-2 2 2 2h1v-1h1v-2h-1v-1h-1z" style="opacity:.1;paint-order:normal"/>
 <path d="m16 13-2 2 2 2h1v-1h1.6172l7.748 6.9727c0.23711-0.65032 0.5775-1.2519 1.0117-1.7773v-2e-3l-7.9941-7.1933h-2.3828v-1zm0 7-2 2 2 2h1v-1h1.6172l9.3828 8.4453v-2.6895l-1.9512-1.7559h-0.048828v-0.04492l-6.6172-5.9551h-2.3828v-1zm16 1c-2.2091 0-4 1.7909-4 4h3c0-0.55228 0.44772-1 1-1s1 0.44772 1 1c0 1-1 1.5-3 2.5v3.5h3v-2c2-1 2.9974-2.1782 3-4 0-2.2091-1.7909-4-4-4zm-0.5 11c-0.82843 0-1.5 0.67157-1.5 1.5s0.67157 1.5 1.5 1.5 1.5-0.67157 1.5-1.5-0.67157-1.5-1.5-1.5z" style="fill:#689fe6;paint-order:normal"/>
</svg>
