<svg version="1.1" viewBox="0 0 48 48" xmlns="http://www.w3.org/2000/svg">
 <defs>
  <linearGradient id="bg" x2="0" y1="1" y2="47" gradientUnits="userSpaceOnUse">
   <stop style="stop-color:#4d4d4d" offset="0"/>
   <stop style="stop-color:#424242" offset="1"/>
  </linearGradient>
 </defs>
 <path d="m1 43v0.25c0 2.22 1.78 4 4 4h38c2.22 0 4-1.78 4-4v-0.25c0 2.22-1.78 4-4 4h-38c-2.22 0-4-1.78-4-4zm0 0.5v0.5c0 2.22 1.78 4 4 4h38c2.22 0 4-1.78 4-4v-0.5c0 2.22-1.78 4-4 4h-38c-2.22 0-4-1.78-4-4z" style="opacity:.02"/>
 <path d="m1 43.2v0.25c0 2.22 1.78 4 4 4h38c2.22 0 4-1.78 4-4v-0.25c0 2.22-1.78 4-4 4h-38c-2.22 0-4-1.78-4-4z" style="opacity:.05"/>
 <path d="m1 43v0.25c0 2.22 1.78 4 4 4h38c2.22 0 4-1.78 4-4v-0.25c0 2.22-1.78 4-4 4h-38c-2.22 0-4-1.78-4-4z" style="opacity:.1"/>
 <rect x="1" y="1" width="46" height="46" rx="4" style="fill:url(#bg)"/>
 <path d="m1 39v4c0 2.22 1.78 4 4 4h38c2.22 0 4-1.78 4-4v-4c0 2.22-1.78 4-4 4h-38c-2.22 0-4-1.78-4-4z" style="opacity:.1"/>
 <path d="m26 10.3v1.09c2.4 0.847 4 3.11 4 5.65-0.0143 2.92-2.12 5.4-5 5.89v0.385c0.618 0.357 0.999 1.02 1 1.73l0.359 0.209c1.14-1.4 2.84-2.21 4.64-2.21 3.31 0 6 2.69 6 6-0.0069 0.378-0.0494 0.754-0.127 1.12l0.701 0.404c0.277-0.814 0.421-1.67 0.426-2.53-0.00129-3.77-2.63-7.02-6.31-7.82 0.203-0.71 0.307-1.44 0.309-2.18 5.8e-5 -3.65-2.47-6.83-6-7.75zm-4 0.0312c-3.52 0.909-5.99 4.08-6 7.71 0.0012 0.745 0.106 1.49 0.312 2.2-3.68 0.793-6.3 4.04-6.31 7.8 0.0052 0.86 0.149 1.71 0.426 2.53l0.701-0.404c-0.0776-0.37-0.12-0.746-0.127-1.12 0-3.31 2.69-6 6-6 1.8 8.69e-4 3.51 0.81 4.64 2.21l0.355-0.205c0.0089-0.706 0.389-1.35 1-1.71v-0.406c-2.88-0.486-4.99-2.97-5-5.89 0.0167-2.53 1.62-4.77 4-5.62zm2 6.71c-1.7 0.0075-3.36 0.559-4.73 1.57 0.218 0.647 0.563 1.24 1.01 1.74 1.06-0.843 2.37-1.31 3.72-1.31 1.35 2.9e-5 2.67 0.458 3.73 1.3 0.449-0.503 0.793-1.1 1.01-1.75-1.37-1.01-3.03-1.56-4.74-1.55zm-7.93 7.09c-0.0394 0.302-0.0616 0.606-0.0664 0.91 0.0021 3.16 1.86 6.02 4.75 7.31 0.446-0.506 0.79-1.1 1-1.76-2.26-0.913-3.75-3.1-3.76-5.54 0.0017-0.296 0.0252-0.591 0.0703-0.883zm7.93-0.0898c-0.552 0-1 0.448-1 1s0.448 1 1 1 1-0.448 1-1-0.448-1-1-1zm5.93 0.119c0.0438 0.292 0.066 0.586 0.0664 0.881-8e-3 2.44-1.49 4.63-3.76 5.54 0.212 0.658 0.559 1.25 1 1.76 2.89-1.28 4.75-4.14 4.75-7.3-9.86e-4 -0.304-0.0192-0.607-0.0547-0.908zm-6.91 2.6-0.391 0.225c0.242 0.659 0.366 1.35 0.367 2.06 0 3.31-2.69 6-6 6-1.41-0.0059-2.78-0.51-3.86-1.42l-0.531 0.309c1.47 1.35 3.39 2.11 5.39 2.12 2.3-0.0016 4.48-0.99 6-2.71 1.52 1.72 3.7 2.71 6 2.71 2-0.0082 3.92-0.763 5.39-2.12l-0.531-0.309c-1.08 0.914-2.44 1.42-3.86 1.42-3.31 0-6-2.69-6-6 0.0126-0.698 0.147-1.39 0.396-2.04l-0.42-0.242z" style="opacity:.1"/>
 <path d="m26 9.25v1.09a6 6 0 0 1 4 5.65 6 6 0 0 1-5 5.89v0.385a2 2 0 0 1 1 1.73l0.359 0.209a6 6 0 0 1 4.64-2.21 6 6 0 0 1 6 6 6 6 0 0 1-0.127 1.12l0.701 0.404a8 8 0 0 0 0.426-2.53 8 8 0 0 0-6.31-7.82 8 8 0 0 0 0.309-2.18 8 8 0 0 0-6-7.75zm-4 0.0312a8 8 0 0 0-6 7.71 8 8 0 0 0 0.312 2.2 8 8 0 0 0-6.31 7.8 8 8 0 0 0 0.426 2.53l0.701-0.404a6 6 0 0 1-0.127-1.12 6 6 0 0 1 6-6 6 6 0 0 1 4.64 2.21l0.355-0.205a2 2 0 0 1 1-1.71v-0.406a6 6 0 0 1-5-5.89 6 6 0 0 1 4-5.62zm2 6.71a8 8 0 0 0-4.73 1.57c0.218 0.647 0.563 1.24 1.01 1.74a6 6 0 0 1 3.72-1.31 6 6 0 0 1 3.73 1.3c0.449-0.503 0.793-1.1 1.01-1.75a8 8 0 0 0-4.74-1.55zm-7 7c-0.32 0-0.631 0.0332-0.934 0.0898a8 8 0 0 0-0.0664 0.91 8 8 0 0 0 4.75 7.31c0.446-0.506 0.79-1.1 1-1.76a6 6 0 0 1-3.76-5.54 6 6 0 0 1 0.0703-0.883c-0.349-0.0767-0.706-0.117-1.07-0.117zm14 0c-0.362 7.44e-4 -0.719 0.0427-1.07 0.119a6 6 0 0 1 0.0664 0.881 6 6 0 0 1-3.76 5.54c0.212 0.658 0.559 1.25 1 1.76a8 8 0 0 0 4.75-7.3 8 8 0 0 0-0.0547-0.908c-0.306-0.0581-0.621-0.0918-0.945-0.0918zm-7.98 2.72-0.391 0.225a6 6 0 0 1 0.367 2.06 6 6 0 0 1-6 6 6 6 0 0 1-3.86-1.42l-0.531 0.309a8 8 0 0 0 5.39 2.12 8 8 0 0 0 6-2.71 8 8 0 0 0 6 2.71 8 8 0 0 0 5.39-2.12l-0.531-0.309a6 6 0 0 1-3.86 1.42 6 6 0 0 1-6-6 6 6 0 0 1 0.396-2.04l-0.42-0.242a2 2 0 0 1-0.977 0.281 2 2 0 0 1-0.977-0.281z" style="fill:#63ee63"/>
 <circle cx="24" cy="24" r="1" style="fill:#f9f9f9"/>
</svg>
