<svg version="1.1" viewBox="0 0 48 48" xmlns="http://www.w3.org/2000/svg">
 <defs>
  <linearGradient id="bg" x2="0" y1="1" y2="47" gradientUnits="userSpaceOnUse">
   <stop style="stop-color:#eee" offset="0"/>
   <stop style="stop-color:#e4e4e4" offset="1"/>
  </linearGradient>
 </defs>
 <path d="m1 43v0.25c0 2.216 1.784 4 4 4h38c2.216 0 4-1.784 4-4v-0.25c0 2.216-1.784 4-4 4h-38c-2.216 0-4-1.784-4-4zm0 0.5v0.5c0 2.216 1.784 4 4 4h38c2.216 0 4-1.784 4-4v-0.5c0 2.216-1.784 4-4 4h-38c-2.216 0-4-1.784-4-4z" style="opacity:.02"/>
 <path d="m1 43.25v0.25c0 2.216 1.784 4 4 4h38c2.216 0 4-1.784 4-4v-0.25c0 2.216-1.784 4-4 4h-38c-2.216 0-4-1.784-4-4z" style="opacity:.05"/>
 <path d="m1 43v0.25c0 2.216 1.784 4 4 4h38c2.216 0 4-1.784 4-4v-0.25c0 2.216-1.784 4-4 4h-38c-2.216 0-4-1.784-4-4z" style="opacity:.1"/>
 <rect x="1" y="1" width="46" height="46" rx="4" style="fill:url(#bg)"/>
 <path d="m1 39v4c0 2.216 1.784 4 4 4h38c2.216 0 4-1.784 4-4v-4c0 2.216-1.784 4-4 4h-38c-2.216 0-4-1.784-4-4z" style="opacity:.1"/>
 <path d="m13.051 11.001c-0.42016 0.0248-0.84117 0.35797-1.2637 0.77734l-2e-3 -2e-3c-0.68 0.676-1.1252 1.3355-0.44922 2.0195l22.801 22.812c0.676 0.676 1.5163 0.40647 2.1953-0.26953 0.68-0.676 0.95334-1.5115 0.27734-2.1875l-22.802-22.812c-0.2535-0.255-0.50572-0.35277-0.75781-0.33789zm8.5117 0.02344-0.8125 2.4316-2.4375 0.8125 2.4375 0.80859 0.8125 2.4336 0.80859-2.4336 2.4395-0.80859-2.4395-0.8125zm10.156 0.4082-1.2188 3.6445-3.6562 1.2207 3.6562 1.2148 1.2188 3.6445 1.2188-3.6445 3.6562-1.2148-3.6562-1.2207zm-14.828 4.3203c0.08475 0.02372 0.17081 0.07706 0.25781 0.16406l18.84 18.844c0.348 0.348 0.07356 0.61294-0.27344 0.96094-0.344 0.348-0.61303 0.61253-0.95703 0.26953l-18.84-18.847c-0.348-0.348-0.13316-0.66763 0.21484-1.0156h-0.0039c0.261-0.261 0.50747-0.44616 0.76172-0.375zm0.60938 9.0469-0.8125 2.4297-2.4395 0.81445 2.4395 0.80859 0.8125 2.4336 0.8125-2.4336 2.4395-0.80859-2.4395-0.81445z" style="opacity:.1"/>
 <path d="m11.788 10.779c-0.68 0.676-1.128 1.333-0.452 2.017l22.801 22.813c0.676 0.676 1.516 0.406 2.195-0.27 0.68-0.676 0.953-1.512 0.277-2.188l-22.801-22.813c-0.676-0.68-1.344-0.23-2.02 0.441m4.34 4.348c0.348-0.348 0.672-0.559 1.02-0.211l18.84 18.844c0.348 0.348 0.074 0.613-0.273 0.961-0.344 0.348-0.613 0.613-0.957 0.27l-18.84-18.848c-0.348-0.348-0.138-0.668 0.21-1.016" style="fill:#383838"/>
 <path d="m17.5 23.8-0.8125 2.4297-2.4395 0.81445 2.4395 0.80859 0.8125 2.4336 0.8125-2.4336 2.4395-0.80859-2.4395-0.81445z" style="fill:#09f"/>
 <path d="m31.719 10.433-1.219 3.644-3.656 1.221 3.656 1.215 1.2188 3.6445 1.2188-3.6445 3.6562-1.2148-3.6562-1.2207z" style="fill:#d42093"/>
 <path d="m21.562 10.024-0.8125 2.4316-2.4375 0.8125 2.4375 0.80859 0.8125 2.4336 0.80859-2.4336 2.4395-0.80859-2.4395-0.8125z" style="fill:#ff5b00"/>
</svg>
