<?xml version="1.0" encoding="UTF-8" standalone="no"?>
<svg
   xmlns:dc="http://purl.org/dc/elements/1.1/"
   xmlns:cc="http://creativecommons.org/ns#"
   xmlns:rdf="http://www.w3.org/1999/02/22-rdf-syntax-ns#"
   xmlns:svg="http://www.w3.org/2000/svg"
   xmlns="http://www.w3.org/2000/svg"
   xmlns:sodipodi="http://sodipodi.sourceforge.net/DTD/sodipodi-0.dtd"
   xmlns:inkscape="http://www.inkscape.org/namespaces/inkscape"
   viewBox="0 0 48 48"
   id="svg2"
   version="1.1"
   inkscape:version="0.91 r13725"
   sodipodi:docname="checkbox-touch.svg">
  <metadata
     id="metadata29">
    <rdf:RDF>
      <cc:Work
         rdf:about="">
        <dc:format>image/svg+xml</dc:format>
        <dc:type
           rdf:resource="http://purl.org/dc/dcmitype/StillImage" />
      </cc:Work>
    </rdf:RDF>
  </metadata>
  <sodipodi:namedview
     pagecolor="#ffffff"
     bordercolor="#666666"
     borderopacity="1"
     objecttolerance="10"
     gridtolerance="10"
     guidetolerance="10"
     inkscape:pageopacity="0"
     inkscape:pageshadow="2"
     inkscape:window-width="734"
     inkscape:window-height="480"
     id="namedview27"
     showgrid="false"
     inkscape:zoom="3.4766083"
     inkscape:cx="24.666212"
     inkscape:cy="40.149138"
     inkscape:window-x="449"
     inkscape:window-y="178"
     inkscape:window-maximized="0"
     inkscape:current-layer="svg2" />
  <defs
     id="defs4">
    <linearGradient
       x2="47"
       gradientTransform="matrix(1 0 0 1 -48 0.002)"
       id="linearGradient3764"
       x1="1"
       gradientUnits="userSpaceOnUse">
      <stop
         style="stop-color:#e56925;stop-opacity:1"
         id="stop7" />
      <stop
         style="stop-color:#e77537;stop-opacity:1"
         offset="1"
         id="stop9" />
    </linearGradient>
  </defs>
  <g
     id="g11">
    <path
       style="opacity:0.02"
       d="m 1 43 l 0 0.25 c 0 2.216 1.784 4 4 4 l 38 0 c 2.216 0 4 -1.784 4 -4 l 0 -0.25 c 0 2.216 -1.784 4 -4 4 l -38 0 c -2.216 0 -4 -1.784 -4 -4 z m 0 0.5 l 0 0.5 c 0 2.216 1.784 4 4 4 l 38 0 c 2.216 0 4 -1.784 4 -4 l 0 -0.5 c 0 2.216 -1.784 4 -4 4 l -38 0 c -2.216 0 -4 -1.784 -4 -4 z"
       id="path13" />
    <path
       style="opacity:0.05"
       d="m 1 43.25 l 0 0.25 c 0 2.216 1.784 4 4 4 l 38 0 c 2.216 0 4 -1.784 4 -4 l 0 -0.25 c 0 2.216 -1.784 4 -4 4 l -38 0 c -2.216 0 -4 -1.784 -4 -4 z"
       id="path15" />
    <path
       style="opacity:0.1"
       d="m 1 43 l 0 0.25 c 0 2.216 1.784 4 4 4 l 38 0 c 2.216 0 4 -1.784 4 -4 l 0 -0.25 c 0 2.216 -1.784 4 -4 4 l -38 0 c -2.216 0 -4 -1.784 -4 -4 z"
       id="path17" />
  </g>
  <rect
     width="46"
     style="fill:url(#linearGradient3764);fill-opacity:1"
     rx="4"
     height="46"
     x="-47"
     y="1"
     transform="matrix(0 -1 1 0 0 0)"
     id="rect19" />
  <g
     id="g21">
    <g
       transform="matrix(1 0 0 1 0 -1004.36)"
       id="g23">
      <path
         style="opacity:0.1"
         d="m 1 1043.36 0 4 c 0 2.216 1.784 4 4 4 l 38 0 c 2.216 0 4 -1.784 4 -4 l 0 -4 c 0 2.216 -1.784 4 -4 4 l -38 0 c -2.216 0 -4 -1.784 -4 -4 z"
         id="path25" />
    </g>
  </g>
  <path
     inkscape:connector-curvature="0"
     d="M 21.995,11.005 21.03,13.9 c -0.974,0.263 -1.909,0.653 -2.781,1.16 l -2.738,-1.369 -2.83,2.83 1.367,2.734 c -0.503,0.873 -0.889,1.808 -1.148,2.781 l -2.9,0.969 0,4 2.895,0.965 c 0.263,0.974 0.653,1.909 1.16,2.781 l -1.369,2.738 2.83,2.83 2.734,-1.367 c 0.873,0.503 1.804,0.889 2.777,1.148 L 22,39 l 1.998,0 0,-6.996 c -3.866,0 -7,-3.134 -7,-7 0,-3.866 3.134,-7 7,-7 l 0,-7 z m 13.752,4 -9.75,10.5 -3.75,-3.75 -2.25,2.25 6,6 12,-12.75 z"
     style="opacity:0.1;fill:#000000;fill-opacity:1;stroke:none"
     id="path31" />
  <path
     inkscape:connector-curvature="0"
     d="M 21.995,10.005 21.03,12.9 c -0.974,0.263 -1.909,0.653 -2.781,1.16 l -2.738,-1.369 -2.83,2.83 1.367,2.734 c -0.503,0.873 -0.889,1.808 -1.148,2.781 l -2.9,0.969 0,4 2.895,0.965 c 0.263,0.974 0.653,1.909 1.16,2.781 l -1.369,2.738 2.83,2.83 2.734,-1.367 c 0.873,0.503 1.804,0.889 2.777,1.148 L 22,38 l 1.998,0 0,-6.996 c -3.866,0 -7,-3.134 -7,-7 0,-3.866 3.134,-7 7,-7 l 0,-7 z m 13.752,4 -9.75,10.5 -3.75,-3.75 -2.25,2.25 6,6 12,-12.75 z"
     style="opacity:1;fill:#f9f9f9;fill-opacity:0.98299997;stroke:none"
     id="path33" />
</svg>
