<svg version="1.1" viewBox="0 0 48 48" xmlns="http://www.w3.org/2000/svg">
 <defs>
  <linearGradient id="bg" x2="0" y1="1" y2="47" gradientUnits="userSpaceOnUse">
   <stop style="stop-color:#ededed" offset="0"/>
   <stop style="stop-color:#e3e3e3" offset="1"/>
  </linearGradient>
 </defs>
 <path d="m1 43v0.25c0 2.22 1.78 4 4 4h38c2.22 0 4-1.78 4-4v-0.25c0 2.22-1.78 4-4 4h-38c-2.22 0-4-1.78-4-4zm0 0.5v0.5c0 2.22 1.78 4 4 4h38c2.22 0 4-1.78 4-4v-0.5c0 2.22-1.78 4-4 4h-38c-2.22 0-4-1.78-4-4z" style="opacity:.02"/>
 <path d="m1 43.2v0.25c0 2.22 1.78 4 4 4h38c2.22 0 4-1.78 4-4v-0.25c0 2.22-1.78 4-4 4h-38c-2.22 0-4-1.78-4-4z" style="opacity:.05"/>
 <path d="m1 43v0.25c0 2.22 1.78 4 4 4h38c2.22 0 4-1.78 4-4v-0.25c0 2.22-1.78 4-4 4h-38c-2.22 0-4-1.78-4-4z" style="opacity:.1"/>
 <rect x="1" y="1" width="46" height="46" rx="4" style="fill:url(#bg)"/>
 <path d="m1 39v4c0 2.22 1.78 4 4 4h38c2.22 0 4-1.78 4-4v-4c0 2.22-1.78 4-4 4h-38c-2.22 0-4-1.78-4-4z" style="opacity:.1"/>
 <path d="m24 10c-2.21 0-4 1.79-4 4 3e-3 0.708 0.194 1.4 0.553 2.01-1.6 1.03-2.55 2.7-2.55 4.49 0.0019 1.29 0.502 2.55 1.41 3.54l-5.41 8.96v2c0 0.554 0.446 1 1 1h18c0.554 0 1-0.446 1-1v-2l-5.41-8.96c0.91-0.99 1.41-2.24 1.41-3.54-0.0011-1.79-0.952-3.47-2.55-4.5 0.356-0.608 0.546-1.3 0.549-2 0-2.21-1.79-4-4-4z" style="opacity:.1;paint-order:stroke fill markers;stroke-linejoin:round;stroke-width:2"/>
 <path d="m24 9a4 4 0 0 0-4 4 4 4 0 0 0 0.553 2.01 6 5.5 0 0 0-2.55 4.49 6 5.5 0 0 0 1.41 3.54c-2.48 1.06-5.41 5.01-5.41 8.96v2c0 0.554 0.446 1 1 1h18c0.554 0 1-0.446 1-1v-2c0-3.95-2.93-7.91-5.41-8.96a6 5.5 0 0 0 1.41-3.54 6 5.5 0 0 0-2.55-4.5 4 4 0 0 0 0.549-2 4 4 0 0 0-4-4z" style="fill:#474747;paint-order:stroke fill markers;stroke-linejoin:round;stroke-width:2"/>
</svg>
