<svg xmlns="http://www.w3.org/2000/svg" height="48" width="48" version="1.1" xmlns:xlink="http://www.w3.org/1999/xlink">
 <defs>
  <linearGradient id="linearGradient4075" y2="1005.4" gradientUnits="userSpaceOnUse" x2="24" y1="1051.4" x1="24">
   <stop style="stop-color:#588db2" offset="0"/>
   <stop style="stop-color:#6596b9" offset="1"/>
  </linearGradient>
 </defs>
 <g transform="translate(0 -1004.4)">
  <path style="opacity:0.02" d="m5 1006.4c-2.216 0-4 1.784-4 4v37.25c0 2.216 1.784 4 4 4h38c2.216 0 4-1.784 4-4v-37.25c0-2.216-1.784-4-4-4h-38zm-4 41.5v0.5c0 2.216 1.784 4 4 4h38c2.216 0 4-1.784 4-4v-0.5c0 2.216-1.784 4-4 4h-38c-2.216 0-4-1.784-4-4z"/>
  <path style="opacity:.05" d="m1 1047.6v0.25c0 2.216 1.784 4 4 4h38c2.216 0 4-1.784 4-4v-0.25c0 2.216-1.784 4-4 4h-38c-2.216 0-4-1.784-4-4z"/>
  <rect style="opacity:.1" rx="4" height="46" width="46" y="1005.6" x="1"/>
 </g>
 <g transform="translate(0 -1004.4)">
  <g style="fill:url(#linearGradient4075)" transform="translate(0 .0022146)">
   <rect style="fill:url(#linearGradient4075)" rx="4" height="46" width="46" y="1005.4" x="1"/>
  </g>
  <path style="opacity:.1" d="m1 1043.4v4c0 2.216 1.784 4 4 4h38c2.216 0 4-1.784 4-4v-4c0 2.216-1.784 4-4 4h-38c-2.216 0-4-1.784-4-4z"/>
 </g>
 <g style="opacity:.1" transform="scale(3.5433)">
  <path d="m15 12a4 4 0 0 0 -4 4 4 4 0 0 0 4 4 4 4 0 0 0 3.459 -2h16.77c0.981 0 1.771-0.79 1.771-1.771v-0.458c0-0.981-0.79-1.771-1.771-1.771h-16.77a4 4 0 0 0 -3.459 -2zm8 8a4 4 0 0 0 -4 4 4 4 0 0 0 4 4 4 4 0 0 0 3.459 -2h8.77c0.981 0 1.771-0.79 1.771-1.771v-0.458c0-0.981-0.79-1.771-1.771-1.771h-8.77a4 4 0 0 0 -3.459 -2zm-8 8a4 4 0 0 0 -4 4 4 4 0 0 0 4 4 4 4 0 0 0 3.459 -2h16.77c0.981 0 1.771-0.79 1.771-1.771v-0.458c0-0.981-0.79-1.771-1.771-1.771h-16.77a4 4 0 0 0 -3.459 -2z" transform="scale(.28222)"/>
 </g>
 <rect style="fill:#c5d7e4" rx="1.7717" ry="1.7717" height="4" width="22" y="13" x="15"/>
 <path style="fill:#f9f9f9" d="m-46 14a4.5 6 0 1 1 -9 0 4.5 6 0 1 1 9 0z" transform="matrix(.88889 0 0 .66667 59.889 5.6667)"/>
 <rect style="fill:#c5d7e4" rx="1.7717" ry="1.7717" height="4" width="22" y="29" x="15"/>
 <path style="fill:#f9f9f9" d="m-46 14a4.5 6 0 1 1 -9 0 4.5 6 0 1 1 9 0z" transform="matrix(.88889 0 0 .66667 59.889 21.667)"/>
 <rect style="fill:#c5d7e4" rx="1.7717" ry="1.7717" height="4" width="14" y="21" x="23"/>
 <path style="fill:#f9f9f9" d="m-46 14a4.5 6 0 1 1 -9 0 4.5 6 0 1 1 9 0z" transform="matrix(.88889 0 0 .66667 67.889 13.667)"/>
</svg>
