<?xml version="1.0" encoding="UTF-8" standalone="no"?>
<svg
   xmlns:dc="http://purl.org/dc/elements/1.1/"
   xmlns:cc="http://creativecommons.org/ns#"
   xmlns:rdf="http://www.w3.org/1999/02/22-rdf-syntax-ns#"
   xmlns:svg="http://www.w3.org/2000/svg"
   xmlns="http://www.w3.org/2000/svg"
   xmlns:sodipodi="http://sodipodi.sourceforge.net/DTD/sodipodi-0.dtd"
   xmlns:inkscape="http://www.inkscape.org/namespaces/inkscape"
   viewBox="0 0 48 48"
   id="svg2"
   version="1.1"
   inkscape:version="0.91 r13725"
   sodipodi:docname="chrome-gebjgjhbjedcomcajgpodjgfjgkepgpl-Default.svg">
  <metadata
     id="metadata29">
    <rdf:RDF>
      <cc:Work
         rdf:about="">
        <dc:format>image/svg+xml</dc:format>
        <dc:type
           rdf:resource="http://purl.org/dc/dcmitype/StillImage" />
      </cc:Work>
    </rdf:RDF>
  </metadata>
  <sodipodi:namedview
     pagecolor="#ffffff"
     bordercolor="#666666"
     borderopacity="1"
     objecttolerance="10"
     gridtolerance="10"
     guidetolerance="10"
     inkscape:pageopacity="0"
     inkscape:pageshadow="2"
     inkscape:window-width="734"
     inkscape:window-height="480"
     id="namedview27"
     showgrid="false"
     inkscape:zoom="4.9166667"
     inkscape:cx="15.061017"
     inkscape:cy="10.21824"
     inkscape:window-x="137"
     inkscape:window-y="214"
     inkscape:window-maximized="0"
     inkscape:current-layer="svg2" />
  <defs
     id="defs4">
    <linearGradient
       x2="47"
       gradientTransform="matrix(1 0 0 1 -48 0.002)"
       id="linearGradient3764"
       x1="1"
       gradientUnits="userSpaceOnUse">
      <stop
         style="stop-color:#e3120c;stop-opacity:1"
         id="stop7" />
      <stop
         style="stop-color:#f21812;stop-opacity:1"
         offset="1"
         id="stop9" />
    </linearGradient>
  </defs>
  <g
     id="g11">
    <path
       style="opacity:0.02"
       d="m 1 43 l 0 0.25 c 0 2.216 1.784 4 4 4 l 38 0 c 2.216 0 4 -1.784 4 -4 l 0 -0.25 c 0 2.216 -1.784 4 -4 4 l -38 0 c -2.216 0 -4 -1.784 -4 -4 z m 0 0.5 l 0 0.5 c 0 2.216 1.784 4 4 4 l 38 0 c 2.216 0 4 -1.784 4 -4 l 0 -0.5 c 0 2.216 -1.784 4 -4 4 l -38 0 c -2.216 0 -4 -1.784 -4 -4 z"
       id="path13" />
    <path
       style="opacity:0.05"
       d="m 1 43.25 l 0 0.25 c 0 2.216 1.784 4 4 4 l 38 0 c 2.216 0 4 -1.784 4 -4 l 0 -0.25 c 0 2.216 -1.784 4 -4 4 l -38 0 c -2.216 0 -4 -1.784 -4 -4 z"
       id="path15" />
    <path
       style="opacity:0.1"
       d="m 1 43 l 0 0.25 c 0 2.216 1.784 4 4 4 l 38 0 c 2.216 0 4 -1.784 4 -4 l 0 -0.25 c 0 2.216 -1.784 4 -4 4 l -38 0 c -2.216 0 -4 -1.784 -4 -4 z"
       id="path17" />
  </g>
  <rect
     width="46"
     style="fill:url(#linearGradient3764);fill-opacity:1"
     rx="4"
     height="46"
     x="-47"
     y="1"
     transform="matrix(0 -1 1 0 0 0)"
     id="rect19" />
  <g
     id="g21">
    <g
       transform="matrix(1 0 0 1 0 -1004.36)"
       id="g23">
      <path
         style="opacity:0.1"
         d="m 1 1043.36 0 4 c 0 2.216 1.784 4 4 4 l 38 0 c 2.216 0 4 -1.784 4 -4 l 0 -4 c 0 2.216 -1.784 4 -4 4 l -38 0 c -2.216 0 -4 -1.784 -4 -4 z"
         id="path25" />
    </g>
  </g>
  <path
     inkscape:connector-curvature="0"
     d="m 13,37 0,-1 c 2,0 4,-0.503 4,-2 l 0,-18 c 0,-1.54 -2,-2 -4,-2 l 0,-1 19.695,0 0.305,6 -1,0 c 0,-1 -0.544,-4 -3,-4 l 0,0 -8,0 0,9 7,0 c 1.557,0 2,-1 2,-3 l 1,0 0,8 -1,0 c 0,-2 -0.547,-3 -2,-3 l -7,0 0,7 c 0,1 1,2 2,2 l 6,0 c 2,0 3.912,-0.877 4.458,-4 l 1.119,0 -0.576,6 z"
     style="opacity:0.1;fill:#000000;fill-opacity:1;stroke:none"
     id="path27" />
  <path
     inkscape:connector-curvature="0"
     d="m 13,36 0,-1 c 2,0 4,-0.503 4,-2 l 0,-18 c 0,-1.54 -2,-2 -4,-2 l 0,-1 19.695,0 0.305,6 -1,0 c 0,-1 -0.544,-4 -3,-4 l 0,0 -8,0 0,9 7,0 c 1.557,0 2,-1 2,-3 l 1,0 0,8 -1,0 c 0,-2 -0.547,-3 -2,-3 l -7,0 0,7 c 0,1 1,2 2,2 l 6,0 c 2,0 3.912,-0.877 4.458,-4 l 1.119,0 -0.576,6 z"
     style="opacity:1;fill:#eeeae6;fill-opacity:1;stroke:none"
     id="path29" />
</svg>
