<svg viewBox="0 0 48 48" xmlns="http://www.w3.org/2000/svg">
 <defs>
  <linearGradient x2="47" gradientTransform="matrix(1 0 0 1 -48 0.002)" id="linearGradient3764" x1="1" gradientUnits="userSpaceOnUse">
   <stop style="stop-color:#83c87e;stop-opacity:1"/>
   <stop offset="1" style="stop-color:#91ce8c;stop-opacity:1"/>
  </linearGradient>
 </defs>
 <g>
  <path d="m 1 43 l 0 0.25 c 0 2.216 1.784 4 4 4 l 38 0 c 2.216 0 4 -1.784 4 -4 l 0 -0.25 c 0 2.216 -1.784 4 -4 4 l -38 0 c -2.216 0 -4 -1.784 -4 -4 z m 0 0.5 l 0 0.5 c 0 2.216 1.784 4 4 4 l 38 0 c 2.216 0 4 -1.784 4 -4 l 0 -0.5 c 0 2.216 -1.784 4 -4 4 l -38 0 c -2.216 0 -4 -1.784 -4 -4 z" style="opacity:0.02"/>
  <path d="m 1 43.25 l 0 0.25 c 0 2.216 1.784 4 4 4 l 38 0 c 2.216 0 4 -1.784 4 -4 l 0 -0.25 c 0 2.216 -1.784 4 -4 4 l -38 0 c -2.216 0 -4 -1.784 -4 -4 z" style="opacity:0.05"/>
  <path d="m 1 43 l 0 0.25 c 0 2.216 1.784 4 4 4 l 38 0 c 2.216 0 4 -1.784 4 -4 l 0 -0.25 c 0 2.216 -1.784 4 -4 4 l -38 0 c -2.216 0 -4 -1.784 -4 -4 z" style="opacity:0.1"/>
 </g>
 <rect transform="matrix(0 -1 1 0 0 0)" y="1" x="-47" rx="4" width="46" style="fill:url(#linearGradient3764);fill-opacity:1" height="46"/>
 <g>
  <g transform="matrix(1 0 0 1 0 -1004.36)">
   <path d="m 1 1043.36 0 4 c 0 2.216 1.784 4 4 4 l 38 0 c 2.216 0 4 -1.784 4 -4 l 0 -4 c 0 2.216 -1.784 4 -4 4 l -38 0 c -2.216 0 -4 -1.784 -4 -4 z" style="opacity:0.1"/>
  </g>
 </g>
 <g transform="matrix(1 0 0 1 -1 0)">
  <g>
   <g transform="matrix(1 0 0 1 1 1)">
    <g style="opacity:0.1">
     <!-- color: #91ce8c -->
     <g>
      <path d="M 21,30 30,18 18,27.5 11,22.285 C 11.102,22.187 34.98,11.953 35,12 L 29.5,36 M 17,35 l 0,-5 5,3 c 0.059,0.035 -4.926,2 -5,2 m 0,0" style="fill:#000"/>
     </g>
    </g>
   </g>
  </g>
 </g>
 <g>
  <g>
   <!-- color: #91ce8c -->
   <g>
    <path d="M 21,30 30,18 18,27.5 11,22.285 C 11.102,22.187 34.98,11.953 35,12 L 29.5,36 M 17,35 l 0,-5 5,3 c 0.059,0.035 -4.926,2 -5,2 m 0,0" style="fill:#fff"/>
   </g>
  </g>
 </g>
</svg>
