<svg xmlns="http://www.w3.org/2000/svg" viewBox="0 0 48 48">
 <defs>
  <linearGradient id="linearGradient3764" x1="1" gradientUnits="userSpaceOnUse" x2="47" gradientTransform="matrix(1 0 0 1 -48 0.002)">
   <stop style="stop-color:#e3120c;stop-opacity:1"/>
   <stop offset="1" style="stop-color:#f21812;stop-opacity:1"/>
  </linearGradient>
 </defs>
 <g>
  <path d="m 1 43 l 0 0.25 c 0 2.216 1.784 4 4 4 l 38 0 c 2.216 0 4 -1.784 4 -4 l 0 -0.25 c 0 2.216 -1.784 4 -4 4 l -38 0 c -2.216 0 -4 -1.784 -4 -4 z m 0 0.5 l 0 0.5 c 0 2.216 1.784 4 4 4 l 38 0 c 2.216 0 4 -1.784 4 -4 l 0 -0.5 c 0 2.216 -1.784 4 -4 4 l -38 0 c -2.216 0 -4 -1.784 -4 -4 z" style="opacity:0.02"/>
  <path d="m 1 43.25 l 0 0.25 c 0 2.216 1.784 4 4 4 l 38 0 c 2.216 0 4 -1.784 4 -4 l 0 -0.25 c 0 2.216 -1.784 4 -4 4 l -38 0 c -2.216 0 -4 -1.784 -4 -4 z" style="opacity:0.05"/>
  <path d="m 1 43 l 0 0.25 c 0 2.216 1.784 4 4 4 l 38 0 c 2.216 0 4 -1.784 4 -4 l 0 -0.25 c 0 2.216 -1.784 4 -4 4 l -38 0 c -2.216 0 -4 -1.784 -4 -4 z" style="opacity:0.1"/>
 </g>
 <rect height="46" width="46" rx="4" y="1" x="-47" transform="matrix(0 -1 1 0 0 0)" style="fill:url(#linearGradient3764);fill-opacity:1"/>
 <g>
  <g transform="matrix(1 0 0 1 0 -1004.36)">
   <path d="m 1 1043.36 0 4 c 0 2.216 1.784 4 4 4 l 38 0 c 2.216 0 4 -1.784 4 -4 l 0 -4 c 0 2.216 -1.784 4 -4 4 l -38 0 c -2.216 0 -4 -1.784 -4 -4 z" style="opacity:0.1"/>
  </g>
 </g>
 <path d="m 13 37 0 -1 c 2 0 4 -0.503 4 -2 l 0 -18 c 0 -1.54 -2 -2 -4 -2 l 0 -1 19.695 0 0.305 6 -1 0 c 0 -1 -0.544 -4 -3 -4 l 0 0 -8 0 0 9 7 0 c 1.557 0 2 -1 2 -3 l 1 0 0 8 -1 0 c 0 -2 -0.547 -3 -2 -3 l -7 0 0 7 c 0 1 1 2 2 2 l 6 0 c 2 0 3.912 -0.877 4.458 -4 l 1.119 0 -0.576 6 z" style="fill:#000;opacity:0.1;fill-opacity:1;stroke:none"/>
 <path d="m 13 36 0 -1 c 2 0 4 -0.503 4 -2 l 0 -18 c 0 -1.54 -2 -2 -4 -2 l 0 -1 19.695 0 0.305 6 -1 0 c 0 -1 -0.544 -4 -3 -4 l 0 0 -8 0 0 9 7 0 c 1.557 0 2 -1 2 -3 l 1 0 0 8 -1 0 c 0 -2 -0.547 -3 -2 -3 l -7 0 0 7 c 0 1 1 2 2 2 l 6 0 c 2 0 3.912 -0.877 4.458 -4 l 1.119 0 -0.576 6 z" style="fill:#eeeae6;opacity:1;fill-opacity:1;stroke:none"/>
</svg>
