<svg viewBox="0 0 48 48" xmlns:xlink="http://www.w3.org/1999/xlink">
  <defs>
    <linearGradient id="a" x1="1" x2="47" gradientUnits="userSpaceOnUse" gradientTransform="translate(-48 .002)">
      <stop stop-color="#f2a95a"/>
      <stop offset="1" stop-color="#f4b46d"/>
    </linearGradient>
    <clipPath id="b"/>
    <clipPath id="c"/>
  </defs>
  <path d="M1 43v.25c0 2.216 1.784 4 4 4h38c2.216 0 4-1.784 4-4V43c0 2.216-1.784 4-4 4H5c-2.216 0-4-1.784-4-4zm0 .5v.5c0 2.216 1.784 4 4 4h38c2.216 0 4-1.784 4-4v-.5c0 2.216-1.784 4-4 4H5c-2.216 0-4-1.784-4-4z" opacity=".02"/>
  <path d="M1 43.25v.25c0 2.216 1.784 4 4 4h38c2.216 0 4-1.784 4-4v-.25c0 2.216-1.784 4-4 4H5c-2.216 0-4-1.784-4-4z" opacity=".05"/>
  <path d="M1 43v.25c0 2.216 1.784 4 4 4h38c2.216 0 4-1.784 4-4V43c0 2.216-1.784 4-4 4H5c-2.216 0-4-1.784-4-4z" opacity=".1"/>
  <rect width="46" height="46" x="-47" y="1" rx="4" transform="rotate(-90)" fill="url(#a)"/>
  <g opacity=".1" clip-path="url(#b)">
    <path d="M13.773 18h20.453c.98 0 1.773.793 1.773 1.773v14.453c0 .98-.793 1.773-1.773 1.773H13.773c-.98 0-1.773-.793-1.773-1.773V19.773c0-.98.793-1.773 1.773-1.773m0 0"/>
    <path d="M18 20v-8h12v8h-1.996v-6h-8v6m-2 0M14 18h1.996v2H14m0-2M31.996 18h2v2h-2m0-2M14 20h2v16h-2m0-16M31.996 20h2v16h-2m0-16"/>
    <path d="M36 20L14 36h20.22c.98 0 1.781-.801 1.781-1.781m0-14.219" fill-opacity=".102" id="d"/>
  </g>
  <g>
    <g clip-path="url(#c)">
      <g transform="translate(0 -1)">
        <path d="M13.773 18h20.453c.98 0 1.773.793 1.773 1.773v14.453c0 .98-.793 1.773-1.773 1.773H13.773c-.98 0-1.773-.793-1.773-1.773V19.773c0-.98.793-1.773 1.773-1.773m0 0" fill="#a97f53"/>
        <path d="M18 20v-8h12v8h-1.996v-6h-8v6m-2 0" fill="#a97f53"/>
        <path d="M14 18h1.996v2H14m0-2M31.996 18h2v2h-2m0-2" fill="#ffe453"/>
        <path d="M14 20h2v16h-2m0-16M31.996 20h2v16h-2m0-16" fill="#78512f"/>
        <use xlink:href="#d"/>
      </g>
    </g>
  </g>
  <g>
    <path d="M1 38.998v4c0 2.216 1.784 4 4 4h38c2.216 0 4-1.784 4-4v-4c0 2.216-1.784 4-4 4H5c-2.216 0-4-1.784-4-4z" opacity=".1"/>
  </g>
</svg>
