<svg version="1.1" viewBox="0 0 48 48" xmlns="http://www.w3.org/2000/svg">
 <defs>
  <linearGradient id="bg" x2="0" y1="1" y2="47" gradientUnits="userSpaceOnUse">
   <stop style="stop-color:#b3dae0" offset="0"/>
   <stop style="stop-color:#a6d3da" offset="1"/>
  </linearGradient>
 </defs>
 <path d="m1 43v0.25c0 2.216 1.784 4 4 4h38c2.216 0 4-1.784 4-4v-0.25c0 2.216-1.784 4-4 4h-38c-2.216 0-4-1.784-4-4zm0 0.5v0.5c0 2.216 1.784 4 4 4h38c2.216 0 4-1.784 4-4v-0.5c0 2.216-1.784 4-4 4h-38c-2.216 0-4-1.784-4-4z" style="opacity:.02"/>
 <path d="m1 43.25v0.25c0 2.216 1.784 4 4 4h38c2.216 0 4-1.784 4-4v-0.25c0 2.216-1.784 4-4 4h-38c-2.216 0-4-1.784-4-4z" style="opacity:.05"/>
 <path d="m1 43v0.25c0 2.216 1.784 4 4 4h38c2.216 0 4-1.784 4-4v-0.25c0 2.216-1.784 4-4 4h-38c-2.216 0-4-1.784-4-4z" style="opacity:.1"/>
 <rect x="1" y="1" width="46" height="46" rx="4" style="fill:url(#bg)"/>
 <path d="m1 39v4c0 2.216 1.784 4 4 4h38c2.216 0 4-1.784 4-4v-4c0 2.216-1.784 4-4 4h-38c-2.216 0-4-1.784-4-4z" style="opacity:.1"/>
 <path d="m14.999 14.972c-0.55152 0.0086-0.99193 0.46214-0.98438 1.0137-1 5-2 8-6 9h-3c-1.3523-0.01912-1.3523 2.0191 0 2h9v5c-0.01913 1.3523 2.0191 1.3523 2 0v-5h16v5c-0.01912 1.3523 2.0191 1.3523 2 0v-5h9c1.3523 0.01912 1.3523-2.0191 0-2h-3c-4-1-5-4-6-9 0.0077-0.56377-0.45187-1.0225-1.0156-1.0137-0.55152 0.0086-0.99193 0.46214-0.98438 1.0137-1 5-2 8-6 9h-4c-4-1-5-4-6-9 0.0077-0.56377-0.45187-1.0225-1.0156-1.0137z" style="color-rendering:auto;color:#000000;dominant-baseline:auto;font-feature-settings:normal;font-variant-alternates:normal;font-variant-caps:normal;font-variant-ligatures:normal;font-variant-numeric:normal;font-variant-position:normal;image-rendering:auto;isolation:auto;mix-blend-mode:normal;opacity:.1;shape-padding:0;shape-rendering:auto;solid-color:#000000;text-decoration-color:#000000;text-decoration-line:none;text-decoration-style:solid;text-indent:0;text-orientation:mixed;text-transform:none;white-space:normal"/>
 <path d="m14.999 13.972c-0.55152 0.0086-0.99193 0.46214-0.98438 1.0137-1 5-2 8-6 9h-3c-1.3523-0.01912-1.3523 2.0191 0 2h9v5c-0.01913 1.3523 2.0191 1.3523 2 0v-5h16v5c-0.01912 1.3523 2.0191 1.3523 2 0v-5h9c1.3523 0.01912 1.3523-2.0191 0-2h-3c-4-1-5-4-6-9 0.0077-0.56377-0.45187-1.0225-1.0156-1.0137-0.55152 0.0086-0.99193 0.46214-0.98438 1.0137-1 5-2 8-6 9h-4c-4-1-5-4-6-9 0.0077-0.56377-0.45187-1.0225-1.0156-1.0137z" style="color-rendering:auto;color:#000000;dominant-baseline:auto;fill:#e85e58;font-feature-settings:normal;font-variant-alternates:normal;font-variant-caps:normal;font-variant-ligatures:normal;font-variant-numeric:normal;font-variant-position:normal;image-rendering:auto;isolation:auto;mix-blend-mode:normal;shape-padding:0;shape-rendering:auto;solid-color:#000000;text-decoration-color:#000000;text-decoration-line:none;text-decoration-style:solid;text-indent:0;text-orientation:mixed;text-transform:none;white-space:normal"/>
</svg>
