<svg width="48" height="48" version="1.1" viewBox="0 0 48 48" xmlns="http://www.w3.org/2000/svg">
 <defs>
  <linearGradient id="a" x1="24" x2="24" y1="2" y2="46" gradientUnits="userSpaceOnUse">
   <stop style="stop-color:#55dbb7" offset="0"/>
   <stop style="stop-color:#25b9d7" offset="1"/>
  </linearGradient>
 </defs>
 <path d="m1 43v0.25c0 2.216 1.784 4 4 4h38c2.216 0 4-1.784 4-4v-0.25c0 2.216-1.784 4-4 4h-38c-2.216 0-4-1.784-4-4zm0 0.5v0.5c0 2.216 1.784 4 4 4h38c2.216 0 4-1.784 4-4v-0.5c0 2.216-1.784 4-4 4h-38c-2.216 0-4-1.784-4-4z" style="opacity:.02"/>
 <path d="m1 43.25v0.25c0 2.216 1.784 4 4 4h38c2.216 0 4-1.784 4-4v-0.25c0 2.216-1.784 4-4 4h-38c-2.216 0-4-1.784-4-4z" style="opacity:.05"/>
 <path d="m1 43v0.25c0 2.216 1.784 4 4 4h38c2.216 0 4-1.784 4-4v-0.25c0 2.216-1.784 4-4 4h-38c-2.216 0-4-1.784-4-4z" style="opacity:.1"/>
 <rect transform="rotate(-90)" x="-47" y="1" width="46" height="46" rx="4" style="fill:url(#a)"/>
 <g transform="translate(0,-1)">
  <path d="m11 12h26v26h-26z" style="fill-opacity:.1"/>
  <path d="m11 11h26v26h-26z" style="fill:#303030"/>
  <path d="m19 13.998c-3.3102 0-5 2.372-5 5.4414 0 3.0694 1.8102 5.6188 5 5.5586 2.0463 0 3.2878-0.80411 4.3711-2.0078l-1.3711-1.3965c-0.84259 0.78241-1.7963 1.4043-3 1.4043-1.8552 0-2.9853-1.734-2.998-3.5879 0.0127-1.8526 1.2022-3.4121 2.998-3.4121 1.0833 0 2.0012 0.40314 2.8438 1.1855l1.3066-1.5664c-1.0231-1.0231-2.1041-1.6191-4.1504-1.6191zm6 2e-3v11h7v-2h-5v-9h-2z" style="fill:#f9f9f9"/>
  <path d="m13 32h10v2h-10z" style="fill:#f9f9f9"/>
 </g>
 <g transform="translate(0,-1004.4)">
  <path d="m1 1043.4v4c0 2.216 1.784 4 4 4h38c2.216 0 4-1.784 4-4v-4c0 2.216-1.784 4-4 4h-38c-2.216 0-4-1.784-4-4z" style="opacity:.1"/>
 </g>
</svg>
