<?xml version="1.0" encoding="UTF-8" standalone="no"?>
<!-- Created with Inkscape (http://www.inkscape.org/) -->

<svg
   xmlns:dc="http://purl.org/dc/elements/1.1/"
   xmlns:cc="http://creativecommons.org/ns#"
   xmlns:rdf="http://www.w3.org/1999/02/22-rdf-syntax-ns#"
   xmlns:svg="http://www.w3.org/2000/svg"
   xmlns="http://www.w3.org/2000/svg"
   xmlns:sodipodi="http://sodipodi.sourceforge.net/DTD/sodipodi-0.dtd"
   xmlns:inkscape="http://www.inkscape.org/namespaces/inkscape"
   id="svg4340"
   height="48"
   viewBox="0 0 48 48.000001"
   width="48"
   version="1.1"
   sodipodi:docname="code.svg"
   inkscape:version="0.92.3 (unknown)">
  <sodipodi:namedview
     pagecolor="#ffffff"
     bordercolor="#666666"
     borderopacity="1"
     objecttolerance="10"
     gridtolerance="10"
     guidetolerance="10"
     inkscape:pageopacity="0"
     inkscape:pageshadow="2"
     inkscape:window-width="1920"
     inkscape:window-height="1059"
     id="namedview28"
     showgrid="false"
     inkscape:zoom="2.4583333"
     inkscape:cx="138.08357"
     inkscape:cy="20.501636"
     inkscape:window-x="0"
     inkscape:window-y="21"
     inkscape:window-maximized="1"
     inkscape:current-layer="svg4340" />
  <defs
     id="defs4342">
    <linearGradient
       id="linearGradient4192"
       y2="24"
       gradientUnits="userSpaceOnUse"
       x2="-1"
       gradientTransform="matrix(0,-1,1,0,25,49.901)"
       y1="24"
       x1="-47">
      <stop
         id="stop7-7"
         style="stop-color:#0783d8;stop-opacity:1"
         offset="0" />
      <stop
         id="stop9-86"
         style="stop-color:#0179cb;stop-opacity:1"
         offset="1" />
    </linearGradient>
  </defs>
  <metadata
     id="metadata4345">
    <rdf:RDF>
      <cc:Work
         rdf:about="">
        <dc:format>image/svg+xml</dc:format>
        <dc:type
           rdf:resource="http://purl.org/dc/dcmitype/StillImage" />
        <dc:title />
      </cc:Work>
    </rdf:RDF>
  </metadata>
  <g
     id="g21">
    <path
       id="path23"
       style="opacity:.02"
       d="m1 43v0.25c0 2.216 1.784 4 4 4h38c2.216 0 4-1.784 4-4v-0.25c0 2.216-1.784 4-4 4h-38c-2.216 0-4-1.784-4-4zm0 0.5v0.5c0 2.216 1.784 4 4 4h38c2.216 0 4-1.784 4-4v-0.5c0 2.216-1.784 4-4 4h-38c-2.216 0-4-1.784-4-4z" />
    <path
       id="path25"
       style="opacity:.05"
       d="m1 43.25v0.25c0 2.216 1.784 4 4 4h38c2.216 0 4-1.784 4-4v-0.25c0 2.216-1.784 4-4 4h-38c-2.216 0-4-1.784-4-4z" />
    <path
       id="path27"
       style="opacity:.1"
       d="m1 43v0.25c0 2.216 1.784 4 4 4h38c2.216 0 4-1.784 4-4v-0.25c0 2.216-1.784 4-4 4h-38c-2.216 0-4-1.784-4-4z" />
  </g>
  <rect
     id="rect4190"
     style="fill:url(#linearGradient4192)"
     rx="4"
     transform="rotate(-90)"
     height="46"
     width="46"
     y="1"
     x="-47" />
  <g
     id="g57">
    <g
       id="g59"
       transform="translate(0,-1004.4)">
      <path
         id="path61"
         style="opacity:.1"
         d="m1 1043.4v4c0 2.216 1.784 4 4 4h38c2.216 0 4-1.784 4-4v-4c0 2.216-1.784 4-4 4h-38c-2.216 0-4-1.784-4-4z" />
    </g>
  </g>
  <g
     id="g1719">
    <path
       style="opacity:0.1;fill:#000000;fill-opacity:1;stroke-width:0.12820512"
       inkscape:connector-curvature="0"
       class="st0"
       d="M 20.179486,27.897386 12.74359,33.666616 9.5,32.076871 V 16.961486 L 12.73077,15.33328 20.115385,21.140975 31.807693,9.435844 39.5,12.512768 v 23.948721 l -7.653845,3.102563 z m 11.410258,2.025639 V 19.089692 l -7.012821,5.423077 7.000002,5.410256 z m -18.589743,-1.948716 3.679486,-3.333336 -3.679486,-3.679485 v 7 z"
       id="path1115" />
    <path
       id="path4"
       d="M 19.179486,26.89749 11.74359,32.66672 8.5,31.076975 V 15.96159 l 3.23077,-1.628206 7.384615,5.807695 L 30.807693,8.435948 38.5,11.512872 v 23.948721 l -7.653845,3.102563 z m 11.410258,2.025639 V 18.089796 l -7.012821,5.423077 7.000002,5.410256 z m -18.589743,-1.948716 3.679486,-3.333336 -3.679486,-3.679485 v 7 z"
       class="st0"
       inkscape:connector-curvature="0"
       style="fill:#f9f9f9;fill-opacity:1;stroke-width:0.12820512" />
  </g>
</svg>
