<svg viewBox="0 0 48 48">
  <defs>
    <linearGradient id="a" x1="1" x2="47" gradientUnits="userSpaceOnUse" gradientTransform="translate(-48 .002)">
      <stop stop-color="#49b7d3"/>
      <stop offset="1" stop-color="#59bed7"/>
    </linearGradient>
    <clipPath id="b"/>
    <clipPath id="c"/>
  </defs>
  <path d="M1 43v.25c0 2.216 1.784 4 4 4h38c2.216 0 4-1.784 4-4V43c0 2.216-1.784 4-4 4H5c-2.216 0-4-1.784-4-4zm0 .5v.5c0 2.216 1.784 4 4 4h38c2.216 0 4-1.784 4-4v-.5c0 2.216-1.784 4-4 4H5c-2.216 0-4-1.784-4-4z" opacity=".02"/>
  <path d="M1 43.25v.25c0 2.216 1.784 4 4 4h38c2.216 0 4-1.784 4-4v-.25c0 2.216-1.784 4-4 4H5c-2.216 0-4-1.784-4-4z" opacity=".05"/>
  <path d="M1 43v.25c0 2.216 1.784 4 4 4h38c2.216 0 4-1.784 4-4V43c0 2.216-1.784 4-4 4H5c-2.216 0-4-1.784-4-4z" opacity=".1"/>
  <rect width="46" height="46" x="-47" y="1" rx="4" transform="rotate(-90)" fill="url(#a)"/>
  <g opacity=".1" clip-path="url(#b)">
    <path d="M29.594 12a6.456 6.456 0 0 0-5.156 2.563 6.905 6.905 0 0 1 1.313 4.063c0 .809-.148 1.563-.406 2.281 1.504 1.16 2.828 2.648 4.156 4.094 3.414-.141 6.5-3.203 6.5-6.625 0-3.512-2.863-6.375-6.406-6.375m.188 3.875a2.466 2.466 0 0 1 2.48 2.469c0 1.375-1.105 2.5-2.48 2.5a2.51 2.51 0 0 1-2.5-2.5c0-1.371 1.129-2.469 2.5-2.469m0 0M23.535 29.06l-4.082 6.941c-1.215-1.949-3.164-8.242 1.75-10.988m2.332 4.047M29.367 36l-8.746-14.457 2.332-2.313c2.363 2.672 4.73 4.133 7.086 7.859 1.852 2.41.32 8.477-.672 8.91m0 0"/>
    <path d="M18.414 12.09c-3.543 0-6.414 2.848-6.414 6.359 0 3.516 2.871 6.363 6.414 6.363 3.543 0 6.414-2.848 6.414-6.363 0-3.512-2.871-6.359-6.414-6.359m.129 3.922a2.481 2.481 0 0 1 2.496 2.477 2.482 2.482 0 0 1-2.496 2.477c-1.383 0-2.516-1.105-2.516-2.477 0-1.371 1.133-2.477 2.516-2.477m0 0"/>
  </g>
  <g>
    <g fill="#2d2d2d" clip-path="url(#c)">
      <path d="M29.594 11a6.456 6.456 0 0 0-5.156 2.563 6.905 6.905 0 0 1 1.313 4.063c0 .809-.148 1.563-.406 2.281 1.504 1.16 2.828 2.648 4.156 4.094 3.414-.141 6.5-3.203 6.5-6.625 0-3.512-2.863-6.375-6.406-6.375m.188 3.875a2.466 2.466 0 0 1 2.48 2.469c0 1.375-1.105 2.5-2.48 2.5a2.51 2.51 0 0 1-2.5-2.5c0-1.371 1.129-2.469 2.5-2.469m0 0M23.535 28.06l-4.082 6.941c-1.215-1.949-3.164-8.242 1.75-10.988m2.332 4.047M29.367 35l-8.746-14.457 2.332-2.313c2.363 2.672 4.73 4.133 7.086 7.859 1.852 2.41.32 8.477-.672 8.91m0 0"/>
      <path d="M18.414 11.09c-3.543 0-6.414 2.848-6.414 6.359 0 3.516 2.871 6.363 6.414 6.363 3.543 0 6.414-2.848 6.414-6.363 0-3.512-2.871-6.359-6.414-6.359m.129 3.922a2.481 2.481 0 0 1 2.496 2.477 2.482 2.482 0 0 1-2.496 2.477c-1.383 0-2.516-1.105-2.516-2.477 0-1.371 1.133-2.477 2.516-2.477m0 0"/>
    </g>
  </g>
  <g>
    <path d="M1 38.998v4c0 2.216 1.784 4 4 4h38c2.216 0 4-1.784 4-4v-4c0 2.216-1.784 4-4 4H5c-2.216 0-4-1.784-4-4z" opacity=".1"/>
  </g>
</svg>
