<svg version="1.1" viewBox="0 0 48 48" xmlns="http://www.w3.org/2000/svg">
 <defs>
  <linearGradient id="bg" x2="0" y1="1" y2="47" gradientUnits="userSpaceOnUse">
   <stop style="stop-color:#a1a0e0" offset="0"/>
   <stop style="stop-color:#9291db" offset="1"/>
  </linearGradient>
 </defs>
 <path d="m1 43v0.25c0 2.216 1.784 4 4 4h38c2.216 0 4-1.784 4-4v-0.25c0 2.216-1.784 4-4 4h-38c-2.216 0-4-1.784-4-4zm0 0.5v0.5c0 2.216 1.784 4 4 4h38c2.216 0 4-1.784 4-4v-0.5c0 2.216-1.784 4-4 4h-38c-2.216 0-4-1.784-4-4z" style="opacity:.02"/>
 <path d="m1 43.25v0.25c0 2.216 1.784 4 4 4h38c2.216 0 4-1.784 4-4v-0.25c0 2.216-1.784 4-4 4h-38c-2.216 0-4-1.784-4-4z" style="opacity:.05"/>
 <path d="m1 43v0.25c0 2.216 1.784 4 4 4h38c2.216 0 4-1.784 4-4v-0.25c0 2.216-1.784 4-4 4h-38c-2.216 0-4-1.784-4-4z" style="opacity:.1"/>
 <rect x="1" y="1" width="46" height="46" rx="4" style="fill:url(#bg)"/>
 <path d="m1 39v4c0 2.216 1.784 4 4 4h38c2.216 0 4-1.784 4-4v-4c0 2.216-1.784 4-4 4h-38c-2.216 0-4-1.784-4-4z" style="opacity:.1"/>
 <path d="m13 11 0.0039 2e-3c-8e-3 1.827 0.3811 3.865 1.2461 5.998h5.2559c-4.13e-4 8.26e-4 -0.0015 0.0011-2e-3 2e-3 0 0.354-1.9164 1-4.7754 1 0.458 0.96 1.0118 2.016 1.6738 2.998h6.6035l-2e-3 2e-3c0 0.594-2.6661 1-5.8691 1 0.711 0.945 1.6494 2.043 2.5664 3h6.6016c0 0.386-2.2998 1-5.9668 1 2.4069 2.7559 5.0526 4.378 9.1309 4.9961 1.0223 0.15484 3.1693 0.62586 5.0333 6.0019h0.49609c-1.336-6-4.4369-11-7.9863-16-1.093-1.442-2.2466-2.786-3.4316-4-3.508-3.598-7.2981-6-10.578-6z" style="opacity:.1"/>
 <path d="m27.01 20c3.5494 5 6.6503 10 7.9863 16h-0.49609c-1.864-5.376-4.011-5.847-5.0332-6.002-4.0782-0.61812-6.724-2.2402-9.1309-4.9961 3.667 0 5.9668-0.614 5.9668-1h-6.6016c-0.917-0.957-1.8554-2.055-2.5664-3 3.203 0 5.8691-0.406 5.8691-1 1.2872-1.1155 2.7872-0.33685 4.0059-2e-3z" style="fill:#ece5c4"/>
 <path d="m13.582 14c0.18149 0.65632 0.39248 1.3207 0.66797 2h5.2559l-2e-3 2e-3c0 0.354-1.9164 1-4.7754 1 0.458 0.96 1.0118 2.016 1.6738 2.998h10.607c-1.5684-1.9254-3.4776-4.1354-5.5918-6-2.625-0.54574-5.2515-1.1558-7.8359 0z" style="fill:#423c54"/>
 <path d="m13 10 0.0039 2e-3c-0.0054 1.2451 0.18977 2.5936 0.57813 3.998h7.8359c-2.5602-2.2579-5.426-4-8.418-4z" style="fill:#7f4b2d"/>
</svg>
