<svg version="1.1" viewBox="0 0 48 48" xmlns="http://www.w3.org/2000/svg">
 <defs>
  <linearGradient id="bg" x2="0" y1="1" y2="47" gradientUnits="userSpaceOnUse">
   <stop style="stop-color:#e6d6dc" offset="0"/>
   <stop style="stop-color:#dfc9d1" offset="1"/>
  </linearGradient>
 </defs>
 <path d="m1 43v0.25c0 2.22 1.78 4 4 4h38c2.22 0 4-1.78 4-4v-0.25c0 2.22-1.78 4-4 4h-38c-2.22 0-4-1.78-4-4zm0 0.5v0.5c0 2.22 1.78 4 4 4h38c2.22 0 4-1.78 4-4v-0.5c0 2.22-1.78 4-4 4h-38c-2.22 0-4-1.78-4-4z" style="opacity:.02"/>
 <path d="m1 43.2v0.25c0 2.22 1.78 4 4 4h38c2.22 0 4-1.78 4-4v-0.25c0 2.22-1.78 4-4 4h-38c-2.22 0-4-1.78-4-4z" style="opacity:.05"/>
 <path d="m1 43v0.25c0 2.22 1.78 4 4 4h38c2.22 0 4-1.78 4-4v-0.25c0 2.22-1.78 4-4 4h-38c-2.22 0-4-1.78-4-4z" style="opacity:.1"/>
 <rect x="1" y="1" width="46" height="46" rx="4" style="fill:url(#bg)"/>
 <path d="m1 39v4c0 2.22 1.78 4 4 4h38c2.22 0 4-1.78 4-4v-4c0 2.22-1.78 4-4 4h-38c-2.22 0-4-1.78-4-4z" style="opacity:.1"/>
 <path d="m14 36c6.42 0 14.8-9.16 19.2-18.6 1.28-2.72 2.37-5.66 2.78-7.43h-0.5c-1.86 5.38-4.01 5.83-5.03 6-3.65 0.606-6.44 1.78-9.13 5 3.67 0 5.97 0.614 5.97 1h-6.6c-0.917 0.957-1.86 2.06-2.57 3 3.2 0 5.87 0.406 5.87 1h-6.6c-0.663 0.983-1.22 2.04-1.68 3 2.86 0 4.78 0.646 4.78 1h-5.25c-0.866 2.13-1.26 4.17-1.25 6z" style="opacity:.1"/>
 <path d="m24.6 29c1.18-1.21 2.34-2.56 3.43-4-1.01-1-3.01-1-4.01 0h-6.6c-0.662 0.982-1.22 2.04-1.67 3 2.86 0 4.78 0.646 4.78 1 0.794 0.521 2.42 0.278 4.07 2e-3z" style="fill:#199f1b"/>
 <path d="m14 35c3.28 0 7.07-2.4 10.6-6h-9.33c-0.865 2.13-1.25 4.17-1.25 6zm14-10c3.44-5.16 6.53-9.92 8-16h-0.5c-1.86 5.38-4.01 5.83-5.03 6-2.16 0.36-4.02 0.928-5.74 2h0.0215c-0.0059 7.24e-4 -0.0116 0.0012-0.0176 2e-3 -1.18 0.732-2.29 1.69-3.39 3 3.67 0 5.97 0.614 5.97 1h-6.6c-0.917 0.957-1.86 2.06-2.57 3 3.2 0 5.87 0.408 5.87 1z" style="fill:#474747"/>
</svg>
