<svg version="1.1" viewBox="0 0 48 48" xmlns="http://www.w3.org/2000/svg">
 <defs>
  <linearGradient id="bg" x1="1" x2="47" gradientTransform="translate(-48 .00222)" gradientUnits="userSpaceOnUse">
   <stop style="stop-color:#cb514a" offset="0"/>
   <stop style="stop-color:#cf5f59" offset="1"/>
  </linearGradient>
 </defs>
 <path d="m1 43v0.25c0 2.22 1.78 4 4 4h38c2.22 0 4-1.78 4-4v-0.25c0 2.22-1.78 4-4 4h-38c-2.22 0-4-1.78-4-4zm0 0.5v0.5c0 2.22 1.78 4 4 4h38c2.22 0 4-1.78 4-4v-0.5c0 2.22-1.78 4-4 4h-38c-2.22 0-4-1.78-4-4z" style="opacity:.02"/>
 <path d="m1 43.2v0.25c0 2.22 1.78 4 4 4h38c2.22 0 4-1.78 4-4v-0.25c0 2.22-1.78 4-4 4h-38c-2.22 0-4-1.78-4-4z" style="opacity:.05"/>
 <path d="m1 43v0.25c0 2.22 1.78 4 4 4h38c2.22 0 4-1.78 4-4v-0.25c0 2.22-1.78 4-4 4h-38c-2.22 0-4-1.78-4-4z" style="opacity:.1"/>
 <rect transform="rotate(-90)" x="-47" y="1" width="46" height="46" rx="4" style="fill:url(#bg)"/>
 <path d="m1 39v4c0 2.22 1.78 4 4 4h38c2.22 0 4-1.78 4-4v-4c0 2.22-1.78 4-4 4h-38c-2.22 0-4-1.78-4-4z" style="opacity:.1"/>
 <path d="m20.5 13.5-0.625 1.87-1.87 0.625 1.87 0.625 0.625 1.88 0.625-1.88 1.87-0.625-1.87-0.625zm-7.9 1.1c-0.52 0.52-0.867 1.03-0.348 1.55l11.1 11.2-0.402 0.867v7.66c0 0.647 0.521 1.17 1.17 1.17h11.7c0.647 0 1.17-0.521 1.17-1.17v-7.66l-2-1.17c0-2.76-2.24-5-5-5-2.14 0.0028-4.03 1.36-4.72 3.38 0.0488 0.196-12.7-10.8-12.7-10.8zm16.9-0.102-0.875 2.62-2.62 0.879 2.62 0.875 0.875 2.62 0.875-2.62 2.62-0.875-2.62-0.879zm0.5 8.5c1.93 0 3.5 1.57 3.5 3.5-0.12 0.0914-7 0-7 0 0-1.93 1.57-3.5 3.5-3.5zm-13.5 1.5-0.625 1.88-1.88 0.625 1.88 0.621 0.625 1.88 0.625-1.88 1.87-0.621-1.87-0.625z" style="opacity:.1"/>
 <path d="m16.7 15.8-1.7 0.197-0.153 1.74 14.9 15c0.523 0.523 1.17 0.318 1.69-0.205 0.52-0.52 0.734-1.16 0.211-1.68z" style="fill:#424242"/>
 <path d="m13.6 13c-0.323 0.0185-0.645 0.275-0.973 0.6-0.52 0.52-0.867 1.03-0.348 1.55l2.59 2.59 1.85-1.94-2.54-2.54c-0.195-0.196-0.388-0.271-0.582-0.26zm16.2 19.7c0.196 0.196 0.409 0.29 0.627 0.303-0.218-0.013-0.431-0.107-0.627-0.303z" style="fill:#f9f9f9"/>
 <path d="m30 21a5 5 0 0 0-5 5h-0.834c-0.647 0-1.17 0.521-1.17 1.17v7.66c0 0.647 0.52 1.17 1.17 1.17h11.7c0.647 0 1.17-0.521 1.17-1.17v-7.66c0-0.647-0.521-1.17-1.17-1.17h-0.832a5 5 0 0 0-5-5zm0 1a3.5 3.5 0 0 1 3.5 3.5 3.5 3.5 0 0 1-0.043 0.5h-6.91a3.5 3.5 0 0 1-0.043-0.5 3.5 3.5 0 0 1 3.5-3.5z" style="fill:#b3b3b3"/>
 <circle cx="30" cy="31" r="4" style="fill:#808080"/>
 <path d="m30 28a2 2 0 0 0-2 2 2 2 0 0 0 1 1.73v2.27h2v-2.27a2 2 0 0 0 1-1.73 2 2 0 0 0-2-2z" style="fill:#424242"/>
 <path d="m16.5 23.5-0.625 1.88-1.88 0.625 1.88 0.621 0.625 1.88 0.625-1.88 1.87-0.621-1.87-0.625" style="fill:#f9f9f9"/>
 <path d="m29.5 13.5-0.875 2.62-2.62 0.879 2.62 0.875 0.875 2.62 0.875-2.62 2.62-0.875-2.62-0.879" style="fill:#f9f9f9"/>
 <path d="m20.5 12.5-0.625 1.87-1.87 0.625 1.87 0.625 0.625 1.88 0.625-1.88 1.87-0.625-1.87-0.625" style="fill:#f9f9f9"/>
</svg>
