<svg version="1.1" viewBox="0 0 48 48" xmlns="http://www.w3.org/2000/svg">
 <defs>
  <linearGradient id="bg" x1="1" x2="47" style="" gradientTransform="translate(-48 .002215)" gradientUnits="userSpaceOnUse">
   <stop style="stop-color:#c4cad2" offset="0"/>
   <stop style="stop-color:#d0d5db" offset="1"/>
  </linearGradient>
 </defs>
 <path d="m1 43v0.25c0 2.216 1.784 4 4 4h38c2.216 0 4-1.784 4-4v-0.25c0 2.216-1.784 4-4 4h-38c-2.216 0-4-1.784-4-4zm0 0.5v0.5c0 2.216 1.784 4 4 4h38c2.216 0 4-1.784 4-4v-0.5c0 2.216-1.784 4-4 4h-38c-2.216 0-4-1.784-4-4z" style="opacity:.02"/>
 <path d="m1 43.25v0.25c0 2.216 1.784 4 4 4h38c2.216 0 4-1.784 4-4v-0.25c0 2.216-1.784 4-4 4h-38c-2.216 0-4-1.784-4-4z" style="opacity:.05"/>
 <path d="m1 43v0.25c0 2.216 1.784 4 4 4h38c2.216 0 4-1.784 4-4v-0.25c0 2.216-1.784 4-4 4h-38c-2.216 0-4-1.784-4-4z" style="opacity:.1"/>
 <rect transform="rotate(-90)" x="-47" y="1" width="46" height="46" rx="4" style="fill:url(#bg)"/>
 <path d="m1 39v4c0 2.216 1.784 4 4 4h38c2.216 0 4-1.784 4-4v-4c0 2.216-1.784 4-4 4h-38c-2.216 0-4-1.784-4-4z" style="opacity:.1"/>
 <path d="m35 18.285v4.238c0 1.43-3 4.336-3 4.336v1.426l5 2.715v2.999l-16 1e-3v-3l5.89-2.715v-1.426s-2.902-2.902-2.891-4.336v-4.238m-2.999 4.242c0 1.43 3.003 4.336 3.003 4.336l-6.003 2.855v2.282h-7v-1l5.776-2.712 0.224-1.426s-3.011-2.898-3-4.332v-1.387" style="opacity:.1"/>
 <path d="m28.5 13h1.9995c4.336 0 4.5 4.285 4.5 4.285v4.238c0 1.43-3 4.336-3 4.336v1.426l5 2.715v2.999l-16 1e-3v-3l5.89-2.715v-1.426s-2.902-2.902-2.891-4.336v-4.238s0.1685-4.285 4.5005-4.285m-10.278 2.9985h2.779v5.5285c0 1.43 3.003 4.336 3.003 4.336l-6.003 2.855v2.282h-7v-1l6-2.712v-1.426s-3.011-2.898-3-4.332v-1.387c0-4.281 4.221-4.1415 4.221-4.1415" style="fill:#2b4178"/>
</svg>
