<svg id="svg2233" version="1.1" viewBox="0 0 48 48" xmlns="http://www.w3.org/2000/svg">
 <defs id="defs2185">
  <linearGradient id="linearGradient3764" x1="1" x2="47" gradientTransform="translate(-48 .0022147)" gradientUnits="userSpaceOnUse">
   <stop id="stop2170" stop-color="#005088" offset="0"/>
   <stop id="stop2172" stop-color="#005e9d" offset="1"/>
  </linearGradient>
  <clipPath id="clipPath-309758311">
   <g id="g2177" transform="translate(0 -1004.4)">
    <rect id="rect2175" x="1" y="1005.4" width="46" height="46" rx="4" fill="#1890d0"/>
   </g>
  </clipPath>
  <clipPath id="clipPath-323521500">
   <g id="g2182" transform="translate(0 -1004.4)">
    <rect id="rect2180" x="1" y="1005.4" width="46" height="46" rx="4" fill="#1890d0"/>
   </g>
  </clipPath>
 </defs>
 <g id="g2193">
  <path id="path2187" d="m1 43v0.25c0 2.216 1.784 4 4 4h38c2.216 0 4-1.784 4-4v-0.25c0 2.216-1.784 4-4 4h-38c-2.216 0-4-1.784-4-4zm0 0.5v0.5c0 2.216 1.784 4 4 4h38c2.216 0 4-1.784 4-4v-0.5c0 2.216-1.784 4-4 4h-38c-2.216 0-4-1.784-4-4z" opacity=".02"/>
  <path id="path2189" d="m1 43.25v0.25c0 2.216 1.784 4 4 4h38c2.216 0 4-1.784 4-4v-0.25c0 2.216-1.784 4-4 4h-38c-2.216 0-4-1.784-4-4z" opacity=".05"/>
  <path id="path2191" d="m1 43v0.25c0 2.216 1.784 4 4 4h38c2.216 0 4-1.784 4-4v-0.25c0 2.216-1.784 4-4 4h-38c-2.216 0-4-1.784-4-4z" opacity=".1"/>
 </g>
 <g id="g2197">
  <rect id="rect2195" transform="rotate(-90)" x="-47" y="1" width="46" height="46" rx="4" fill="url(#linearGradient3764)"/>
 </g>
 <g id="g2211">
  <g id="g2209" clip-path="url(#clipPath-309758311)">
   <g id="g2207" opacity=".1">
    <g id="g2205">
     <path id="path2199" d="m25.438 7.508c18.09 21.992 13.09 30.652-15 25.98 18.859-0.66 23.859-9.32 15-25.98"/>
     <path id="path2201" d="m24.19 13.281c-13.355 0.227-15.766 6.746-7.316 19.563 0.801-0.141 1.563-0.285 2.281-0.469-3.227-11.359 2.906-17.332 18.406-17.875-5.266-0.875-9.73-1.281-13.375-1.219m-6.215 21.19c1.313 1.883 2.836 3.895 4.594 6.03-1.109-2.082-2.01-4.04-2.691-5.875-0.613-0.035-1.254-0.098-1.902-0.156"/>
     <path id="path2203" d="m23.441 14.09c-1.652 0.535-0.199 3.02-2.57 4.234-2.707 1.395-4.055-2.117-5.68 0.387-1.629 2.512 2.242 2.121 2.137 5.07-0.109 2.953-3.941 2.324-2.504 4.93 1.441 2.605 3.035-0.816 5.637 0.746 2.594 1.559 0.113 4.441 3.176 4.539 3.066 0.098 0.789-2.93 3.496-4.32 2.707-1.395 4.055 2.117 5.684-0.387 1.625-2.508-2.246-2.117-2.137-5.07s3.938-2.324 2.5-4.93c-1.438-2.605-3.035 0.816-5.633-0.742-2.598-1.559-0.113-4.445-3.18-4.543-0.383-0.012-0.688 0.012-0.926 0.086m0.031 7.512c1.371-0.281 2.711 0.563 3 1.887s-0.582 2.625-1.949 2.91c-1.367 0.277-2.711-0.563-3-1.891-0.293-1.324 0.578-2.625 1.945-2.906"/>
    </g>
   </g>
  </g>
 </g>
 <g id="g2225">
  <g id="g2223" clip-path="url(#clipPath-323521500)">
   <g id="g2221" transform="translate(0,-1)">
    <g id="g2219">
     <path id="path2213" d="m25.438 7.508c18.09 21.992 13.09 30.652-15 25.98 18.859-0.66 23.859-9.32 15-25.98" fill="#ffb911"/>
     <path id="path2215" d="m24.19 13.281c-13.355 0.227-15.766 6.746-7.316 19.563 0.801-0.141 1.563-0.285 2.281-0.469-3.227-11.359 2.906-17.332 18.406-17.875-5.266-0.875-9.73-1.281-13.375-1.219m-6.215 21.19c1.313 1.883 2.836 3.895 4.594 6.03-1.109-2.082-2.01-4.04-2.691-5.875-0.613-0.035-1.254-0.098-1.902-0.156" fill="#0ad"/>
     <path id="path2217" d="m23.441 14.09c-1.652 0.535-0.199 3.02-2.57 4.234-2.707 1.395-4.055-2.117-5.68 0.387-1.629 2.512 2.242 2.121 2.137 5.07-0.109 2.953-3.941 2.324-2.504 4.93 1.441 2.605 3.035-0.816 5.637 0.746 2.594 1.559 0.113 4.441 3.176 4.539 3.066 0.098 0.789-2.93 3.496-4.32 2.707-1.395 4.055 2.117 5.684-0.387 1.625-2.508-2.246-2.117-2.137-5.07s3.938-2.324 2.5-4.93c-1.438-2.605-3.035 0.816-5.633-0.742-2.598-1.559-0.113-4.445-3.18-4.543-0.383-0.012-0.688 0.012-0.926 0.086m0.031 7.512c1.371-0.281 2.711 0.563 3 1.887s-0.582 2.625-1.949 2.91c-1.367 0.277-2.711-0.563-3-1.891-0.293-1.324 0.578-2.625 1.945-2.906" fill="#f9f9f9"/>
    </g>
   </g>
  </g>
 </g>
 <g id="g2231">
  <g id="g2229" transform="translate(0 -1004.4)">
   <path id="path2227" d="m1 1043.4v4c0 2.216 1.784 4 4 4h38c2.216 0 4-1.784 4-4v-4c0 2.216-1.784 4-4 4h-38c-2.216 0-4-1.784-4-4z" opacity=".1"/>
  </g>
 </g>
</svg>
