<svg version="1.1" viewBox="0 0 48 48" xmlns="http://www.w3.org/2000/svg">
 <defs>
  <linearGradient id="bg" x1="-47" x2="-1" gradientUnits="userSpaceOnUse">
   <stop style="stop-color:#e8f24e" offset="0"/>
   <stop style="stop-color:#eaf361" offset="1"/>
  </linearGradient>
 </defs>
 <path d="m1 43v0.25c0 2.22 1.78 4 4 4h38c2.22 0 4-1.78 4-4v-0.25c0 2.22-1.78 4-4 4h-38c-2.22 0-4-1.78-4-4zm0 0.5v0.5c0 2.22 1.78 4 4 4h38c2.22 0 4-1.78 4-4v-0.5c0 2.22-1.78 4-4 4h-38c-2.22 0-4-1.78-4-4z" style="opacity:.02"/>
 <path d="m1 43.3v0.25c0 2.22 1.78 4 4 4h38c2.22 0 4-1.78 4-4v-0.25c0 2.22-1.78 4-4 4h-38c-2.22 0-4-1.78-4-4z" style="opacity:.05"/>
 <path d="m1 43v0.25c0 2.22 1.78 4 4 4h38c2.22 0 4-1.78 4-4v-0.25c0 2.22-1.78 4-4 4h-38c-2.22 0-4-1.78-4-4z" style="opacity:.1"/>
 <rect transform="rotate(-90)" x="-47" y="1" width="46" height="46" rx="4" style="fill:url(#bg)"/>
 <path d="m1 39v4c0 2.22 1.78 4 4 4h38c2.22 0 4-1.78 4-4v-4c0 2.22-1.78 4-4 4h-38c-2.22 0-4-1.78-4-4z" style="opacity:.1"/>
 <path d="m28 13 2 2c0 1.1 0.895 2 2 2s2-0.895 2-2-0.895-2-2-2zm-9 3v1.7c0 0.303 0.156 0.598 0.424 0.787l4.94 3.5-1.33 4.96c-0.143 0.535 0.172 1.08 0.707 1.22 0.535 0.143 1.08-0.172 1.22-0.707l1.63-6.09c0.14-0.524-0.0585-0.911-0.424-1.17l-3.11-2.2h3.94v2c0 0.554 0.446 1 1 1h4c0.554 0 1-0.446 1-1s-0.446-1-1-1h-3v-3zm-2.5 6c-3.04 0-5.5 2.46-5.5 5.5s2.46 5.5 5.5 5.5 5.5-2.46 5.5-5.5-2.46-5.5-5.5-5.5zm15 0c-3.04 0-5.5 2.46-5.5 5.5s2.46 5.5 5.5 5.5 5.5-2.46 5.5-5.5-2.46-5.5-5.5-5.5zm-15 2c1.93 0 3.5 1.57 3.5 3.5s-1.57 3.5-3.5 3.5-3.5-1.57-3.5-3.5 1.57-3.5 3.5-3.5zm15 0c1.93 0 3.5 1.57 3.5 3.5s-1.57 3.5-3.5 3.5-3.5-1.57-3.5-3.5 1.57-3.5 3.5-3.5z" style="opacity:.1"/>
 <path d="m28 12 2 2a2 2 0 0 0 2 2 2 2 0 0 0 2-2 2 2 0 0 0-2-2zm-8 2c-0.554 0-1 0.446-1 1v1c0 0.554 0.446 1 1 1h7v2c0 0.554 0.446 1 1 1h4c0.554 0 1-0.446 1-1s-0.446-1-1-1h-3v-3c0-0.554-0.446-1-1-1z" style="fill:#555"/>
 <rect transform="matrix(.816 .578 -.578 .816 0 0)" x="25" y=".546" width="8.5" height="2.5" rx="1" style="fill:#555"/>
 <rect transform="rotate(15)" x="29" y="11.8" width="2" height="8.3" rx="1" style="fill:#555"/>
 <rect x="19" y="15.2" width="1" height="1.5" rx="0" style="fill:#555"/>
 <path d="m16.5 21a5.5 5.5 0 0 0-5.5 5.5 5.5 5.5 0 0 0 5.5 5.5 5.5 5.5 0 0 0 5.5-5.5 5.5 5.5 0 0 0-5.5-5.5zm15 0a5.5 5.5 0 0 0-5.5 5.5 5.5 5.5 0 0 0 5.5 5.5 5.5 5.5 0 0 0 5.5-5.5 5.5 5.5 0 0 0-5.5-5.5zm-15 2a3.5 3.5 0 0 1 3.5 3.5 3.5 3.5 0 0 1-3.5 3.5 3.5 3.5 0 0 1-3.5-3.5 3.5 3.5 0 0 1 3.5-3.5zm15 0a3.5 3.5 0 0 1 3.5 3.5 3.5 3.5 0 0 1-3.5 3.5 3.5 3.5 0 0 1-3.5-3.5 3.5 3.5 0 0 1 3.5-3.5z" style="fill:#555"/>
</svg>
