<svg width="48" height="48" viewBox="0 0 48 48.000001" xmlns="http://www.w3.org/2000/svg">
  <defs>
    <linearGradient id="a" x1="-47" x2="-1" gradientUnits="userSpaceOnUse">
      <stop offset="0" stop-color="#e8f24e"/>
      <stop offset="1" stop-color="#eaf361"/>
    </linearGradient>
  </defs>
  <path d="M1 43v.25c0 2.216 1.784 4 4 4h38c2.216 0 4-1.784 4-4V43c0 2.216-1.784 4-4 4H5c-2.216 0-4-1.784-4-4zm0 .5v.5c0 2.216 1.784 4 4 4h38c2.216 0 4-1.784 4-4v-.5c0 2.216-1.784 4-4 4H5c-2.216 0-4-1.784-4-4z" opacity=".02"/>
  <path d="M1 43.25v.25c0 2.216 1.784 4 4 4h38c2.216 0 4-1.784 4-4v-.25c0 2.216-1.784 4-4 4H5c-2.216 0-4-1.784-4-4z" opacity=".05"/>
  <path d="M1 43v.25c0 2.216 1.784 4 4 4h38c2.216 0 4-1.784 4-4V43c0 2.216-1.784 4-4 4H5c-2.216 0-4-1.784-4-4z" opacity=".1"/>
  <rect transform="rotate(-90)" x="-47" y="1" width="46" height="46" rx="4" fill="url(#a)"/>
  <path d="M28 14l2.002 2.002a2 2 0 0 0-.002.064 2 2 0 0 0 2 1.932 2 2 0 0 0 .045.002A2 2 0 0 0 34 15.975l-.004-.082A2 2 0 0 0 32 14.002V14zm-9 2c-.554 0-1 .446-1 1v1.7h.018a.977.977 0 0 0 .404.786l4.94 3.498-1.329 4.957a.998.998 0 0 0 .707 1.225 1 1 0 0 0 1.227-.707l1.629-6.086a.974.974 0 0 0-.016-.518c-.003-.017-.013-.033-.017-.05-.024-.072-.041-.145-.08-.21a.976.976 0 0 0-.311-.394L22.062 19H27v2c0 .554.446 1 1 1h4c.554 0 1-.446 1-1s-.446-1-1-1h-3v-3c0-.554-.446-1-1-1zm-2.662 6.5a5.25 5.25 0 0 0-.318.004A5.25 5.25 0 0 0 11 27.922a5.25 5.25 0 0 0 5.37 5.074 5.25 5.25 0 0 0 5.128-5.314l-.008-.215a5.25 5.25 0 0 0-5.152-4.967zm15.502 0a5.25 5.25 0 0 0-.318.004 5.25 5.25 0 0 0-5.02 5.418 5.25 5.25 0 0 0 5.37 5.074A5.25 5.25 0 0 0 37 27.682l-.008-.215A5.25 5.25 0 0 0 31.84 22.5zm-15.766 1.252a4 4 0 0 1 4.168 3.781l.006.164a4 4 0 0 1-3.906 4.05 4 4 0 0 1-4.092-3.866 4 4 0 0 1 3.824-4.129zm15.502 0a4 4 0 0 1 4.168 3.781l.006.164a4 4 0 0 1-3.906 4.05 4 4 0 0 1-4.092-3.866 4 4 0 0 1 3.824-4.129zM1 39v4c0 2.216 1.784 4 4 4h38c2.216 0 4-1.784 4-4v-4c0 2.216-1.784 4-4 4H5c-2.216 0-4-1.784-4-4z" opacity=".1"/>
  <g transform="translate(0 -1)" fill="#333">
    <rect x="27" y="20" width="6" height="2" rx="1" ry="1"/>
    <rect x="27" y="17" width="2" height="5" rx="1" ry="1"/>
    <rect x="18" y="16" width="11" height="3" rx="1" ry="1"/>
    <rect transform="matrix(.81609 .57793 -.57779 .81619 0 0)" x="25.296" y="2.756" width="8.499" height="2.5" rx="1" ry="1"/>
    <rect transform="rotate(15)" x="28.515" y="13.986" width="2" height="8.3" rx="1" ry="1"/>
    <path d="M34 15.975A2 2 0 0 1 32.046 18a2 2 0 0 1-2.045-1.933 2 2 0 0 1 1.912-2.064 2 2 0 0 1 2.084 1.891M16.02 22.505A5.25 5.25 0 0 0 11 27.923a5.25 5.25 0 0 0 5.369 5.074 5.25 5.25 0 0 0 5.129-5.314l-.008-.215a5.25 5.25 0 0 0-5.471-4.963zm.055 1.248a4 4 0 0 1 4.168 3.781l.006.164a4 4 0 0 1-3.908 4.049 4 4 0 0 1-4.09-3.865 4 4 0 0 1 3.824-4.129zm15.447-1.248a5.25 5.25 0 0 0-5.02 5.418 5.25 5.25 0 0 0 5.369 5.074A5.25 5.25 0 0 0 37 27.683l-.008-.215a5.25 5.25 0 0 0-5.471-4.963zm.055 1.248a4 4 0 0 1 4.168 3.781l.006.164a4 4 0 0 1-3.908 4.049 4 4 0 0 1-4.09-3.865 4 4 0 0 1 3.824-4.129z"/>
    <path d="M28 14h4v4z"/>
    <rect x="18" y="17.2" width="1" height="1.5" rx="0"/>
  </g>
</svg>
