<svg version="1.1" viewBox="0 0 48 48" xmlns="http://www.w3.org/2000/svg">
 <defs>
  <linearGradient id="bg" x2="0" y1="1" y2="47" gradientUnits="userSpaceOnUse">
   <stop style="stop-color:#4b5158" offset="0"/>
   <stop style="stop-color:#43474c" offset="1"/>
  </linearGradient>
 </defs>
 <path d="m1 43v0.25c0 2.22 1.78 4 4 4h38c2.22 0 4-1.78 4-4v-0.25c0 2.22-1.78 4-4 4h-38c-2.22 0-4-1.78-4-4zm0 0.5v0.5c0 2.22 1.78 4 4 4h38c2.22 0 4-1.78 4-4v-0.5c0 2.22-1.78 4-4 4h-38c-2.22 0-4-1.78-4-4z" style="opacity:.02"/>
 <path d="m1 43.2v0.25c0 2.22 1.78 4 4 4h38c2.22 0 4-1.78 4-4v-0.25c0 2.22-1.78 4-4 4h-38c-2.22 0-4-1.78-4-4z" style="opacity:.05"/>
 <path d="m1 43v0.25c0 2.22 1.78 4 4 4h38c2.22 0 4-1.78 4-4v-0.25c0 2.22-1.78 4-4 4h-38c-2.22 0-4-1.78-4-4z" style="opacity:.1"/>
 <rect x="1" y="1" width="46" height="46" rx="4" style="fill:url(#bg)"/>
 <path d="m1 39v4c0 2.22 1.78 4 4 4h38c2.22 0 4-1.78 4-4v-4c0 2.22-1.78 4-4 4h-38c-2.22 0-4-1.78-4-4z" style="opacity:.1"/>
 <path d="m12 20c-0.554 0-1 0.446-1 1s0.446 1 1 1h3v6h-2v8h22v-8h-2v-6h3c0.554 0 1-0.446 1-1s-0.446-1-1-1z" style="opacity:.1"/>
 <path d="m13 27h22v1l-11 5.5-11-5.5z" style="fill:#725136"/>
 <path d="m15 20h18v3l-1 0.5 1 0.5v10h-18v-10l1-0.5-1-0.5z" style="fill:#e4bc71"/>
 <path d="m19 9c-0.552 0-0.732 0.517-1 1l-5 9 11 1 11-1-5-9c-0.268-0.483-0.448-1-1-1-0.276 0-0.526 0.112-0.707 0.293l-3.59 3.41c-0.181 0.181-0.431 0.293-0.707 0.293s-0.526-0.112-0.707-0.293l-3.59-3.41c-0.181-0.181-0.431-0.293-0.707-0.293z" style="fill:#a6744a"/>
 <rect x="11" y="19" width="26" height="2" ry="1" style="fill:#bb8e67"/>
 <path d="m15 21v1h18v-1zm0 3v1h2a3 3 0 0 0 3 3 3 3 0 0 0 3-3h2a3 3 0 0 0 3 3 3 3 0 0 0 3-3h2v-1z" style="opacity:.1"/>
 <path d="m15 23v1h2a3 3 0 0 0 3 3 3 3 0 0 0 3-3h2a3 3 0 0 0 3 3 3 3 0 0 0 3-3h2v-1z" style="fill:#464450"/>
 <path d="m35 28-10 3-1 2v1l1 1h10z" style="fill:#ac784e"/>
 <path d="m13 28 10 3 2 4h-12z" style="fill:#bb8d68"/>
</svg>
