<svg version="1.1" viewBox="0 0 48 48" xmlns="http://www.w3.org/2000/svg">
 <defs>
  <linearGradient id="bg" x2="0" y1="1" y2="47" gradientUnits="userSpaceOnUse">
   <stop style="stop-color:#374345" offset="0"/>
   <stop style="stop-color:#2e383a" offset="1"/>
  </linearGradient>
 </defs>
 <path d="m1 43v0.25c0 2.216 1.784 4 4 4h38c2.216 0 4-1.784 4-4v-0.25c0 2.216-1.784 4-4 4h-38c-2.216 0-4-1.784-4-4zm0 0.5v0.5c0 2.216 1.784 4 4 4h38c2.216 0 4-1.784 4-4v-0.5c0 2.216-1.784 4-4 4h-38c-2.216 0-4-1.784-4-4z" style="opacity:.02"/>
 <path d="m1 43.25v0.25c0 2.216 1.784 4 4 4h38c2.216 0 4-1.784 4-4v-0.25c0 2.216-1.784 4-4 4h-38c-2.216 0-4-1.784-4-4z" style="opacity:.05"/>
 <path d="m1 43v0.25c0 2.216 1.784 4 4 4h38c2.216 0 4-1.784 4-4v-0.25c0 2.216-1.784 4-4 4h-38c-2.216 0-4-1.784-4-4z" style="opacity:.1"/>
 <rect x="1" y="1" width="46" height="46" rx="4" style="fill:url(#bg)"/>
 <path d="m1 39v4c0 2.216 1.784 4 4 4h38c2.216 0 4-1.784 4-4v-4c0 2.216-1.784 4-4 4h-38c-2.216 0-4-1.784-4-4z" style="opacity:.1"/>
 <path d="m11 17v14h3v-2h-1v-10h1v-2zm5 0v2h1v10h-1v2h3v-14zm4 0v14h3v-2h-1v-10h1v-2zm5 0v2h1v10h-1v2h3v-14zm4 0v14h3v-2h-1v-10h1v-2zm5 0v2h1v10h-1v2h3v-14zm-20 6v2h2v-2zm9 0v2h2v-2zm9 0v2h2v-2z" style="opacity:.1;paint-order:normal"/>
 <path d="m11 16v14h3v-2h-1v-10h1v-2zm5 0v2h1v10h-1v2h3v-14zm-2 6v2h2v-2z" style="fill:#ec9191;paint-order:normal"/>
 <path d="m20 16v14h3v-2h-1v-10h1v-2zm5 0v2h1v10h-1v2h3v-14zm-2 6v2h2v-2z" style="fill:#8eda8e;paint-order:normal"/>
 <path d="m29 16v14h3v-2h-1v-10h1v-2zm5 0v2h1v10h-1v2h3v-14zm-2 6v2h2v-2z" style="fill:#79b6ea;paint-order:normal"/>
</svg>
