<svg id="svg2403" version="1.1" viewBox="0 0 48 48" xmlns="http://www.w3.org/2000/svg">
 <defs id="defs2339">
  <linearGradient id="linearGradient3764" x1="1" x2="47" gradientTransform="translate(-48 .0022147)" gradientUnits="userSpaceOnUse">
   <stop id="stop2324" stop-color="#333" offset="0"/>
   <stop id="stop2326" stop-color="#3d3d3d" offset="1"/>
  </linearGradient>
  <clipPath id="clipPath-947353381">
   <g id="g2331" transform="translate(0 -1004.4)">
    <rect id="rect2329" x="1" y="1005.4" width="46" height="46" rx="4" fill="#1890d0"/>
   </g>
  </clipPath>
  <clipPath id="clipPath-960266584">
   <g id="g2336" transform="translate(0 -1004.4)">
    <rect id="rect2334" x="1" y="1005.4" width="46" height="46" rx="4" fill="#1890d0"/>
   </g>
  </clipPath>
 </defs>
 <g id="g2347">
  <path id="path2341" d="m1 43v0.25c0 2.216 1.784 4 4 4h38c2.216 0 4-1.784 4-4v-0.25c0 2.216-1.784 4-4 4h-38c-2.216 0-4-1.784-4-4zm0 0.5v0.5c0 2.216 1.784 4 4 4h38c2.216 0 4-1.784 4-4v-0.5c0 2.216-1.784 4-4 4h-38c-2.216 0-4-1.784-4-4z" opacity=".02"/>
  <path id="path2343" d="m1 43.25v0.25c0 2.216 1.784 4 4 4h38c2.216 0 4-1.784 4-4v-0.25c0 2.216-1.784 4-4 4h-38c-2.216 0-4-1.784-4-4z" opacity=".05"/>
  <path id="path2345" d="m1 43v0.25c0 2.216 1.784 4 4 4h38c2.216 0 4-1.784 4-4v-0.25c0 2.216-1.784 4-4 4h-38c-2.216 0-4-1.784-4-4z" opacity=".1"/>
 </g>
 <g id="g2351">
  <rect id="rect2349" transform="rotate(-90)" x="-47" y="1" width="46" height="46" rx="4" fill="url(#linearGradient3764)"/>
 </g>
 <g id="g2373">
  <g id="g2371" clip-path="url(#clipPath-947353381)">
   <g id="g2369" opacity=".1">
    <g id="g2367">
     <path id="path2353" d="m27.08 9.641-3.602 10.152 14.227-2.363c-2.102-3.992-5.977-6.93-10.625-7.789"/>
     <path id="path2355" d="m38.15 19.449-10.738 1.988 9.199 10.98c2.457-3.797 3.09-8.586 1.527-12.969"/>
     <path id="path2357" d="m35.07 33.809-7.121-8.164-5.05 13.344c4.566 0.195 9.09-1.656 12.156-5.18"/>
     <path id="path2359" d="m20.922 38.36 3.617-10.152-14.242 2.363c2.109 3.996 5.996 6.934 10.625 7.789"/>
     <path id="path2361" d="m9.852 28.559 10.734-1.988-9.199-10.98c-2.453 3.801-3.09 8.586-1.527 12.969"/>
     <path id="path2363" d="m12.926 14.207 7.121 8.164 5.05-13.344c-4.563-0.195-9.09 1.656-12.152 5.18"/>
     <path id="path2365" d="m26.09 24c0 1.137-0.934 2.059-2.086 2.059s-2.09-0.922-2.09-2.059 0.938-2.059 2.09-2.059 2.086 0.922 2.086 2.059"/>
    </g>
   </g>
  </g>
 </g>
 <g id="g2395">
  <g id="g2393" clip-path="url(#clipPath-960266584)">
   <g id="g2391" transform="translate(0,-1)">
    <g id="g2389">
     <path id="path2375" d="m27.08 9.641-3.602 10.152 14.227-2.363c-2.102-3.992-5.977-6.93-10.625-7.789" fill="#d67019"/>
     <path id="path2377" d="m38.15 19.449-10.738 1.988 9.199 10.98c2.457-3.797 3.09-8.586 1.527-12.969" fill="#f1e527"/>
     <path id="path2379" d="m35.07 33.809-7.121-8.164-5.05 13.344c4.566 0.195 9.09-1.656 12.156-5.18" fill="#25a334"/>
     <path id="path2381" d="m20.922 38.36 3.617-10.152-14.242 2.363c2.109 3.996 5.996 6.934 10.625 7.789" fill="#287dd6"/>
     <path id="path2383" d="m9.852 28.559 10.734-1.988-9.199-10.98c-2.453 3.801-3.09 8.586-1.527 12.969" fill="#b920c1"/>
     <path id="path2385" d="m12.926 14.207 7.121 8.164 5.05-13.344c-4.563-0.195-9.09 1.656-12.152 5.18" fill="#b21628"/>
     <path id="path2387" d="m26.09 24c0 1.137-0.934 2.059-2.086 2.059s-2.09-0.922-2.09-2.059 0.938-2.059 2.09-2.059 2.086 0.922 2.086 2.059" fill="#f9f9f9"/>
    </g>
   </g>
  </g>
 </g>
 <g id="g2401">
  <g id="g2399" transform="translate(0 -1004.4)">
   <path id="path2397" d="m1 1043.4v4c0 2.216 1.784 4 4 4h38c2.216 0 4-1.784 4-4v-4c0 2.216-1.784 4-4 4h-38c-2.216 0-4-1.784-4-4z" opacity=".1"/>
  </g>
 </g>
</svg>
