<svg id="svg2476" version="1.1" viewBox="0 0 48 48" xmlns="http://www.w3.org/2000/svg">
 <defs id="defs2424">
  <linearGradient id="linearGradient3764" x1="1" x2="47" gradientTransform="translate(-48 .0022147)" gradientUnits="userSpaceOnUse">
   <stop id="stop2409" stop-color="#e4e4e4" offset="0"/>
   <stop id="stop2411" stop-color="#eee" offset="1"/>
  </linearGradient>
  <clipPath id="clipPath-487120601">
   <g id="g2416" transform="translate(0 -1004.4)">
    <rect id="rect2414" x="1" y="1005.4" width="46" height="46" rx="4" fill="#1890d0"/>
   </g>
  </clipPath>
  <clipPath id="clipPath-500127928">
   <g id="g2421" transform="translate(0 -1004.4)">
    <rect id="rect2419" x="1" y="1005.4" width="46" height="46" rx="4" fill="#1890d0"/>
   </g>
  </clipPath>
 </defs>
 <g id="g2432">
  <path id="path2426" d="m1 43v0.25c0 2.216 1.784 4 4 4h38c2.216 0 4-1.784 4-4v-0.25c0 2.216-1.784 4-4 4h-38c-2.216 0-4-1.784-4-4zm0 0.5v0.5c0 2.216 1.784 4 4 4h38c2.216 0 4-1.784 4-4v-0.5c0 2.216-1.784 4-4 4h-38c-2.216 0-4-1.784-4-4z" opacity=".02"/>
  <path id="path2428" d="m1 43.25v0.25c0 2.216 1.784 4 4 4h38c2.216 0 4-1.784 4-4v-0.25c0 2.216-1.784 4-4 4h-38c-2.216 0-4-1.784-4-4z" opacity=".05"/>
  <path id="path2430" d="m1 43v0.25c0 2.216 1.784 4 4 4h38c2.216 0 4-1.784 4-4v-0.25c0 2.216-1.784 4-4 4h-38c-2.216 0-4-1.784-4-4z" opacity=".1"/>
 </g>
 <g id="g2436">
  <rect id="rect2434" transform="rotate(-90)" x="-47" y="1" width="46" height="46" rx="4" fill="url(#linearGradient3764)"/>
 </g>
 <g id="g2452">
  <g id="g2450" clip-path="url(#clipPath-487120601)">
   <g id="g2448" opacity=".1">
    <g id="g2446">
     <path id="path2438" d="m32.414 29.605-0.988-1.469-1.41-4.738c-1.09-3.668-1.508-6.02-0.484-6.25 0 0 1.113 0.438 1.117 0.438l0.863 0.395 2.203 2.184 2.285 2.184v9.125l-1.609 0.477c-0.844 0.25-1.641 0.855-1.656 0.789l-0.078-0.313"/>
     <path id="path2440" d="m20.227 33.797-2.176-2.199-0.93-2.059c1.566-1.434 4.703-0.609 5.52-0.199l5.891 3.094 2.426 0.863c-4.746-1.684 1.539-0.691 1.645-0.773l0.188-0.145-0.055 0.359-1.215 3.258-4.559 4e-3h-4.559"/>
     <path id="path2442" d="m24.836 24.852-7.715-7.707 1.637 6.727-1.637 5.668-1.566-0.59-1.609-1.582-1.609-1.578-0.336-1.117 2.539-3.809 2.582-3.715 6.07-0.676 6.164 0.512 0.176 0.164c0.063 0.059 1.082 2.891 2.27 6.238l2.16 6.09-1.227 3.262c-1.289 0.445-4.09-3.508-7.898-7.887"/>
     <path id="path2444" d="m24.863 12c-0.199 0-6.01 3.793-7.32 4.746-0.023 0-0.426 0.398-0.426 0.398h12.215 0.199l-0.277-0.898-0.238-0.738-1.438-1.461-1.438-1.473-0.551-0.289c-0.305-0.156-0.629-0.289-0.727-0.289m-7.746 5.148v12.395c0.105 0.031 3.03 1.117 6.27 2.262 3.242 1.145 5.949 2.078 6.02 2.086 0.168 0.02 3.328-1.148 3.328-1.148-5.371-5.477-9.777-9.762-15.617-15.594"/>
    </g>
   </g>
  </g>
 </g>
 <g id="g2468">
  <g id="g2466" clip-path="url(#clipPath-500127928)">
   <g id="g2464" transform="translate(0,-1)">
    <g id="g2462">
     <path id="path2454" d="m32.414 29.605-0.988-1.469-1.41-4.738c-1.09-3.668-1.508-6.02-0.484-6.25 0 0 1.113 0.438 1.117 0.438l0.863 0.395 2.203 2.184 2.285 2.184v9.125l-1.609 0.477c-0.844 0.25-1.641 0.855-1.656 0.789l-0.078-0.313" fill="#00a3de"/>
     <path id="path2456" d="m20.227 33.797-2.176-2.199-0.93-2.059c1.566-1.434 4.703-0.609 5.52-0.199l5.891 3.094 2.426 0.863c-4.746-1.684 1.539-0.691 1.645-0.773l0.188-0.145-0.055 0.359-1.215 3.258-4.559 4e-3h-4.559" fill="#45c0b9"/>
     <path id="path2458" d="m24.836 24.852-7.715-7.707 1.637 6.727-1.637 5.668-1.566-0.59-1.609-1.582-1.609-1.578-0.336-1.117 2.539-3.809 2.582-3.715 6.07-0.676 6.164 0.512 0.176 0.164c0.063 0.059 1.082 2.891 2.27 6.238l2.16 6.09-1.227 3.262c-1.289 0.445-4.09-3.508-7.898-7.887" fill="#0070b9"/>
     <path id="path2460" d="m24.863 12c-0.199 0-6.01 3.793-7.32 4.746-0.023 0-0.426 0.398-0.426 0.398h12.215 0.199l-0.277-0.898-0.238-0.738-1.438-1.461-1.438-1.473-0.551-0.289c-0.305-0.156-0.629-0.289-0.727-0.289m-7.746 5.148v12.395c0.105 0.031 3.03 1.117 6.27 2.262 3.242 1.145 5.949 2.078 6.02 2.086 0.168 0.02 3.328-1.148 3.328-1.148-5.371-5.477-9.777-9.762-15.617-15.594" fill="#01b1a9"/>
    </g>
   </g>
  </g>
 </g>
 <g id="g2474">
  <g id="g2472" transform="translate(0 -1004.4)">
   <path id="path2470" d="m1 1043.4v4c0 2.216 1.784 4 4 4h38c2.216 0 4-1.784 4-4v-4c0 2.216-1.784 4-4 4h-38c-2.216 0-4-1.784-4-4z" opacity=".1"/>
  </g>
 </g>
</svg>
