<svg version="1.1" viewBox="0 0 48 48" xmlns="http://www.w3.org/2000/svg">
 <defs>
  <linearGradient id="bg" x2="0" y1="1" y2="47" gradientUnits="userSpaceOnUse">
   <stop style="stop-color:#87b7f7" offset="0"/>
   <stop style="stop-color:#74acf6" offset="1"/>
  </linearGradient>
 </defs>
 <path d="m1 43v0.25c0 2.216 1.784 4 4 4h38c2.216 0 4-1.784 4-4v-0.25c0 2.216-1.784 4-4 4h-38c-2.216 0-4-1.784-4-4zm0 0.5v0.5c0 2.216 1.784 4 4 4h38c2.216 0 4-1.784 4-4v-0.5c0 2.216-1.784 4-4 4h-38c-2.216 0-4-1.784-4-4z" style="opacity:.02"/>
 <path d="m1 43.25v0.25c0 2.216 1.784 4 4 4h38c2.216 0 4-1.784 4-4v-0.25c0 2.216-1.784 4-4 4h-38c-2.216 0-4-1.784-4-4z" style="opacity:.05"/>
 <path d="m1 43v0.25c0 2.216 1.784 4 4 4h38c2.216 0 4-1.784 4-4v-0.25c0 2.216-1.784 4-4 4h-38c-2.216 0-4-1.784-4-4z" style="opacity:.1"/>
 <rect x="1" y="1" width="46" height="46" rx="4" style="fill:url(#bg)"/>
 <path d="m24 10c-1.1253 0-2.1957 1.3572-3.1855 3.3984-0.46972 0.28069-0.81445 0.60156-0.81445 0.60156v1s0.0625-0.0625 0.17188-0.15625c-0.64681 1.5869-1.2523 3.4217-1.8027 5.3711-1.1647 0.46242-3.6153 1.7696-4.3691 4.7852-0.25566 1.0226-0.58114 4.5811 1 3l1.918-1.918c-0.8374 3.7506-1.2941 6.2555-1.5723 7.918h-0.3457c-1.108 0-2 0.892-2 2s0.892 2 2 2h18c1.108 0 2-0.892 2-2s-0.892-2-2-2h-0.3457c-0.35672-2.1317-1.0686-6.1755-2.3086-11.113 0.93317-0.87784 2.0983-2.2186 2.6543-3.8867 0.33333-1 0.58114-4.5811-1-3l-2.7891 2.7891c-0.43349-1.4248-0.89634-2.7518-1.3828-3.9453 0.10938 0.09375 0.17188 0.15625 0.17188 0.15625v-1s-0.34473-0.32088-0.81445-0.60156c-0.98981-2.0412-2.0602-3.3984-3.1855-3.3984z" style="opacity:.1"/>
 <path d="m1 39v4c0 2.216 1.784 4 4 4h38c2.216 0 4-1.784 4-4v-4c0 2.216-1.784 4-4 4h-38c-2.216 0-4-1.784-4-4z" style="opacity:.1"/>
 <path d="m29 23s3-2 4-5c0.33333-1 0.58114-4.5811-1-3l-3 3z" style="fill:#9e1ba9"/>
 <path d="m19 19s-4 1-5 5c-0.25566 1.0226-0.58114 4.5811 1 3l3-3z" style="fill:#9e1ba9"/>
 <path d="m15 35s4-26 9-26 9 26 9 26z" style="fill:#b51fc1"/>
 <rect x="13" y="33" width="22" height="4" ry="2" style="fill:#02d141;paint-order:stroke fill markers"/>
 <path d="m22.51 13.4a3 3 0 0 0-1.5098 2.5996 3 3 0 0 0 3 3 3 3 0 0 0 3-3 3 3 0 0 0-1.5078-2.5996l-1.4922 1.1758zm1.4902 6.5996a3 3 0 0 0-3 3 3 3 0 0 0 3 3 3 3 0 0 0 3-3 3 3 0 0 0-3-3zm0 7a3 3 0 0 0-3 3 3 3 0 0 0 3 3 3 3 0 0 0 3-3 3 3 0 0 0-3-3z" style="opacity:.1;paint-order:stroke fill markers"/>
 <path d="m22.51 12.4a3 3 0 0 0-1.5098 2.5996 3 3 0 0 0 3 3 3 3 0 0 0 3-3 3 3 0 0 0-1.5078-2.5996l-1.4922 1.1758-1.4902-1.1758z" style="fill:#02d141;paint-order:stroke fill markers"/>
 <circle cx="24" cy="15" r="2" style="fill:#069500;paint-order:stroke fill markers"/>
 <circle cx="24" cy="22" r="3" style="fill:#02d141;paint-order:stroke fill markers"/>
 <circle cx="24" cy="29" r="3" style="fill:#02d141;paint-order:stroke fill markers"/>
 <circle cx="24" cy="22" r="2" style="fill:#069500;paint-order:stroke fill markers"/>
 <circle cx="24" cy="29" r="2" style="fill:#069500;paint-order:stroke fill markers"/>
 <path d="m24 14c1 0 1-1 2-1s2 1 2 1v-1s-1-1-2-1-1 1-2 1-1-1-2-1-2 1-2 1v1s1-1 2-1 1 1 2 1z" style="fill:#2d2d2d"/>
</svg>
