<svg width="48" height="48" viewBox="0 0 48 48.000001" xmlns="http://www.w3.org/2000/svg">
  <defs>
    <linearGradient id="a" x1="-47" x2="-1" gradientUnits="userSpaceOnUse">
      <stop offset="0" stop-color="#4c5968"/>
      <stop offset="1" stop-color="#546374"/>
    </linearGradient>
  </defs>
  <path d="M1 43v.25c0 2.216 1.784 4 4 4h38c2.216 0 4-1.784 4-4V43c0 2.216-1.784 4-4 4H5c-2.216 0-4-1.784-4-4zm0 .5v.5c0 2.216 1.784 4 4 4h38c2.216 0 4-1.784 4-4v-.5c0 2.216-1.784 4-4 4H5c-2.216 0-4-1.784-4-4z" opacity=".02"/>
  <path d="M1 43.25v.25c0 2.216 1.784 4 4 4h38c2.216 0 4-1.784 4-4v-.25c0 2.216-1.784 4-4 4H5c-2.216 0-4-1.784-4-4z" opacity=".05"/>
  <path d="M1 43v.25c0 2.216 1.784 4 4 4h38c2.216 0 4-1.784 4-4V43c0 2.216-1.784 4-4 4H5c-2.216 0-4-1.784-4-4z" opacity=".1"/>
  <rect transform="rotate(-90)" x="-47" y="1" width="46" height="46" rx="4" fill="url(#a)"/>
  <path d="M1 39v4c0 2.216 1.784 4 4 4h38c2.216 0 4-1.784 4-4v-4c0 2.216-1.784 4-4 4H5c-2.216 0-4-1.784-4-4zM12 12v4h4v-4zm5 0v4h4v-4zm5 0v4h4v-4zm5 0v4h4v-4zm5 0v4h4v-4zm-20 5v4h4v-4zm5 0v4h4v-4zm5 0v4h4v-4zm5 0v4h4v-4zm5 0v4h4v-4zm-20 5v4h4v-4zm5 0v4h4v-4zm5 0v4h4v-4zm5 0v4h4v-4zm5 0v4h4v-4zm-20 5v4h4v-4zm5 0v4h4v-4zm5 0v4h4v-4zm5 0v4h4v-4zm5 0v4h4v-4zm-20 5v4h4v-4zm5 0v4h4v-4zm5 0v4h4v-4zm5 0v4h4v-4zm5 0v4h4v-4z" opacity=".1"/>
  <path d="M12 11v4h4v-4zm5 0v4h4v-4zm5 0v4h4v-4zm5 0v4h4v-4zm5 0v4h4v-4zm-20 5v4h4v-4zm0 5v4h4v-4zm5 0v4h4v-4zm10 0v4h4v-4zm5 0v4h4v-4zm-20 5v4h4v-4zm5 0v4h4v-4zm5 0v4h4v-4zm5 0v4h4v-4zm5 0v4h4v-4zm-20 5v4h4v-4zm10 0v4h4v-4zm10 0v4h4v-4z" fill="#5fe16f"/>
  <path fill="#6d6dfb" d="M17 31h4v4h-4z"/>
  <path d="M17 16v4h4v-4zm5 0v4h4v-4zm5 0v4h4v-4zm5 0v4h4v-4zm-10 5v4h4v-4zm5 10v4h4v-4z" fill="#f76c67"/>
</svg>
