<svg viewBox="0 0 48 48" xmlns:xlink="http://www.w3.org/1999/xlink">
  <defs>
    <linearGradient id="b" x1="1" x2="47" gradientUnits="userSpaceOnUse" gradientTransform="translate(-48 .002)">
      <stop stop-color="#e4e4e4"/>
      <stop offset="1" stop-color="#eee"/>
    </linearGradient>
    <clipPath id="c"/>
    <clipPath id="d"/>
    <linearGradient id="a" gradientUnits="userSpaceOnUse" x2="13.547" gradientTransform="matrix(0 -3.5433 3.5433 0 0 48)">
      <stop stop-color="#008ef3"/>
      <stop offset="1" stop-color="#00d4ff"/>
    </linearGradient>
    <linearGradient id="e" gradientUnits="userSpaceOnUse" x1="6.803" y1="12.76" x2="6.795" y2=".766" gradientTransform="scale(3.5433)" xlink:href="#a"/>
  </defs>
  <path d="M1 43v.25c0 2.216 1.784 4 4 4h38c2.216 0 4-1.784 4-4V43c0 2.216-1.784 4-4 4H5c-2.216 0-4-1.784-4-4zm0 .5v.5c0 2.216 1.784 4 4 4h38c2.216 0 4-1.784 4-4v-.5c0 2.216-1.784 4-4 4H5c-2.216 0-4-1.784-4-4z" opacity=".02"/>
  <path d="M1 43.25v.25c0 2.216 1.784 4 4 4h38c2.216 0 4-1.784 4-4v-.25c0 2.216-1.784 4-4 4H5c-2.216 0-4-1.784-4-4z" opacity=".05"/>
  <path d="M1 43v.25c0 2.216 1.784 4 4 4h38c2.216 0 4-1.784 4-4V43c0 2.216-1.784 4-4 4H5c-2.216 0-4-1.784-4-4z" opacity=".1"/>
  <rect width="46" height="46" x="-47" y="1" rx="4" transform="rotate(-90)" fill="url(#b)"/>
  <g opacity=".1" clip-path="url(#c)">
    <path d="M0 0h48v48H0z"/>
    <path d="M24 9h.004C32.285 9 39 15.715 39 24v.004C39 32.285 32.285 39 24.004 39H24c-8.285 0-15-6.715-15-14.996V24c0-8.285 6.715-15 15-15m0 0" fill-rule="evenodd"/>
    <path d="M19 14v20l15-10m-10-4c2.43.012 3.996 2.172 4 4 0 3-3 4-4 4v-2c3.355-.336 2.258-4.871-1-4v6h-2v-6.438c0-.547 1-1.563 3-1.563m0 0"/>
  </g>
  <g>
    <g clip-path="url(#d)">
      <path fill="url(#a)" d="M0 0h48v48H0z" transform="translate(0 -1)"/>
      <path d="M24 8h.004C32.285 8 39 14.715 39 23v.004C39 31.285 32.285 38 24.004 38H24c-8.285 0-15-6.715-15-14.996V23c0-8.285 6.715-15 15-15m0 0" fill="#ececec" fill-rule="evenodd"/>
      <path d="M19 14v20l15-10m-10-4c2.43.012 3.996 2.172 4 4 0 3-3 4-4 4v-2c3.355-.336 2.258-4.871-1-4v6h-2v-6.438c0-.547 1-1.563 3-1.563m0 0" fill="url(#e)" transform="translate(0 -1)"/>
    </g>
  </g>
  <g>
    <path d="M1 38.998v4c0 2.216 1.784 4 4 4h38c2.216 0 4-1.784 4-4v-4c0 2.216-1.784 4-4 4H5c-2.216 0-4-1.784-4-4z" opacity=".1"/>
  </g>
</svg>
