<svg version="1.1" viewBox="0 0 48 48" xmlns="http://www.w3.org/2000/svg">
 <defs>
  <linearGradient id="lG4501" x1="-47" x2="-1" y1="2.88e-15" y2="6.12e-17" gradientUnits="userSpaceOnUse">
   <stop style="stop-color:#67acd9" offset="0"/>
   <stop style="stop-color:#77b5dd" offset="1"/>
  </linearGradient>
 </defs>
 <path d="m1 43v0.25c0 2.22 1.78 4 4 4h38c2.22 0 4-1.78 4-4v-0.25c0 2.22-1.78 4-4 4h-38c-2.22 0-4-1.78-4-4zm0 0.5v0.5c0 2.22 1.78 4 4 4h38c2.22 0 4-1.78 4-4v-0.5c0 2.22-1.78 4-4 4h-38c-2.22 0-4-1.78-4-4z" style="opacity:.02"/>
 <path d="m1 43.3v0.25c0 2.22 1.78 4 4 4h38c2.22 0 4-1.78 4-4v-0.25c0 2.22-1.78 4-4 4h-38c-2.22 0-4-1.78-4-4z" style="opacity:.05"/>
 <path d="m1 43v0.25c0 2.22 1.78 4 4 4h38c2.22 0 4-1.78 4-4v-0.25c0 2.22-1.78 4-4 4h-38c-2.22 0-4-1.78-4-4z" style="opacity:.1"/>
 <rect transform="rotate(-90)" x="-47" y="1" width="46" height="46" rx="4" style="fill:url(#lG4501)"/>
 <path d="m1 39v4c0 2.22 1.78 4 4 4h38c2.22 0 4-1.78 4-4v-4c0 2.22-1.78 4-4 4h-38c-2.22 0-4-1.78-4-4z" style="opacity:.1"/>
 <path d="m1 16v1h46v-1h-46zm0 3v1h46v-1h-46zm0 3v1h46v-1h-46zm0 3v1.02l46-0.0137v-1h-46zm46 2.98-46 0.0156v1l46 0.00977v-1.03z" style="fill:#5083b6"/>
 <path d="m13 12v1.98s-4.34e-4 0.0176 1 0.0176c0.634 0 1 0.5 1 1v18l-2 1v2h10c9-2e-6 14-2 14-12s-5-12-14-12zm6 2h4c7 0 9 4 9 10s-2 10-9 10h-4zm6.5 4c-1.93 0-3.5 1.12-3.5 2.5l-2e-3 12.5h1c1-4 5-4.5 5-6.5 0-1.25-1-2.2-3-2.5 0.824 0.575 1 1.1 1 1.9 0 2-2.29 3.36-3 4.1v-7.75c0.657 0.481 1.56 0.753 2.5 0.754 1.93 0 3.5-1.12 3.5-2.5s-1.57-2.5-3.5-2.5z" style="opacity:.1"/>
 <path d="m13 11v1.98s-4.34e-4 0.0176 1 0.0176c0.634 0 1 0.5 1 1v18c0 0.598-0.37 1-1 1h-1v2h10c9-2e-6 14-2 14-12s-5-12-14-12zm6 2h4c7 0 9 4 9 10s-2 10-9 10h-4zm6.5 4c-1.93 0-3.5 1.12-3.5 2.5l-2e-3 12.5h1c1-4 5-4.5 5-6.5 0-1.25-1-2.2-3-2.5 0.824 0.575 1 1.1 1 1.9 0 2-2.29 3.36-3 4.1v-7.75c0.657 0.481 1.56 0.753 2.5 0.754 1.93 0 3.5-1.12 3.5-2.5s-1.57-2.5-3.5-2.5z" style="fill:#2d5f76"/>
</svg>
