<svg version="1.1" viewBox="0 0 48 48" xmlns="http://www.w3.org/2000/svg">
 <defs>
  <linearGradient id="bg" x1="-47" x2="-1" y1="0" y2="0" gradientUnits="userSpaceOnUse">
   <stop style="stop-color:#ff6905" offset="0"/>
   <stop style="stop-color:#ff7519" offset="1"/>
  </linearGradient>
 </defs>
 <g transform="translate(0 3.949e-5)">
  <path d="m1 43v0.25c0 2.216 1.784 4 4 4h38c2.216 0 4-1.784 4-4v-0.25c0 2.216-1.784 4-4 4h-38c-2.216 0-4-1.784-4-4zm0 0.5v0.5c0 2.216 1.784 4 4 4h38c2.216 0 4-1.784 4-4v-0.5c0 2.216-1.784 4-4 4h-38c-2.216 0-4-1.784-4-4z" style="opacity:.02"/>
  <path d="m1 43.25v0.25c0 2.216 1.784 4 4 4h38c2.216 0 4-1.784 4-4v-0.25c0 2.216-1.784 4-4 4h-38c-2.216 0-4-1.784-4-4z" style="opacity:.05"/>
  <path d="m1 43v0.25c0 2.216 1.784 4 4 4h38c2.216 0 4-1.784 4-4v-0.25c0 2.216-1.784 4-4 4h-38c-2.216 0-4-1.784-4-4z" style="opacity:.1"/>
 </g>
 <rect transform="rotate(-90)" x="-47" y="1" width="46" height="46" rx="4" style="fill:url(#bg)"/>
 <path d="m24 11c-6 0-10 5-10 8 0 2 1.5 6 1.5 6l-1 5 1.539 0.4394-1.039 1.56 3-0.75v0.75l-0.5 1h2.5v-1.266c1.472 1.741 4.699 3.266 4.699 3.266h0.9805c0.09025 0.1406 0.1238 0.2715 0.1172 0.3711-0.01048 0.1572-0.0967 0.2518-0.2773 0.2715l0.02344 0.2188c0.2653-0.02888 0.4561-0.2283 0.4727-0.4766 0.0081-0.1217-0.01949-0.2523-0.08398-0.3848h0.6875c0.1107 0.2916 0.1661 0.5977 0.1641 0.8672-0.0017 0.2339-0.04455 0.4393-0.1113 0.5762s-0.1415 0.1946-0.2266 0.207l0.05078 0.3477c0.2238-0.0326 0.3911-0.1973 0.4902-0.4004 0.09912-0.2031 0.1464-0.4549 0.1484-0.7285 0.0021-0.2749-0.04295-0.5758-0.1387-0.8691h0.5234c0.05858 0.1832 0.08267 0.3556 0.07617 0.502-0.0067 0.1512-0.0443 0.2722-0.09766 0.3535-0.05335 0.08136-0.1158 0.1232-0.1992 0.1367l0.04883 0.3008c0.1699-0.02747 0.3125-0.1296 0.4043-0.2695 0.09178-0.14 0.1398-0.3161 0.1484-0.5098 0.0071-0.1596-0.01431-0.3339-0.0625-0.5137h0.1621c1.124-2.029 1.539-3.785 2.254-5.904 0.3161-0.9365 0.2854-1.496 0.0957-2.723v-0.0039c-0.2146-1.388-0.311-2.334-0.3398-3.369h0.3086l-0.1016-0.6367c0.9739 0.1613 2.087 0.1948 2.783 0.6367 1.747 1.111 3 5 3 5s1-3 1-5c0-1-1-3.801-1-3.801l1 0.8008s-0.9898-2.285-2-3z" style="opacity:.1"/>
 <path d="m30.35 25.38c0.1897 1.226 0.2201 1.786-0.096 2.722-0.7152 2.119-1.129 3.875-2.253 5.904h-3.3s-4.189-1.977-5.2-4l-2.5-9 11-9 2 9c-0.01177 1.494 0.06842 2.553 0.3493 4.37z" style="fill:#f0ca9e"/>
 <path d="m24 10c-6 0-10 5-10 8 0 2 1.5 6 1.5 6l-1 5 3.5 1 1-13 13-2c0-3-2-5-8-5z" style="fill:#6c5353"/>
 <path d="m23.25 21a1.75 2 0 0 0-1.75 2 1.75 2 0 0 0 1.75 2 1.75 2 0 0 0 1.75-2 1.75 2 0 0 0-1.75-2zm5.75 0.5a1 1.5 0 0 0-1 1.5 1 1.5 0 0 0 1 1.5 1 1.5 0 0 0 1-1.5 1 1.5 0 0 0-1-1.5z" style="fill:#f9f9f9"/>
 <path d="m23.5 23a0.5 0.5 0 0 0-0.5 0.5 0.5 0.5 0 0 0 0.5 0.5 0.5 0.5 0 0 0 0.5-0.5 0.5 0.5 0 0 0-0.5-0.5zm5.875 0a0.375 0.375 0 0 0-0.375 0.375 0.375 0.375 0 0 0 0.375 0.375 0.375 0.375 0 0 0 0.375-0.375 0.375 0.375 0 0 0-0.375-0.375z" style="fill:#424242"/>
 <path d="m22.06 20.32c-0.07584 0.0027-0.147 0.01443-0.209 0.03516-0.6937 0.2316-1.451 1.644-1.451 1.644h2e-3s1.209-0.2562 1.818-0.2188c0.8008 0.04955 1.535 0.5305 2.336 0.5801 0.3044 0.0182 0.9102-0.1094 0.9102-0.1094l1.121-1.012s-1.373-0.04897-2.041-0.1875c-0.3994-0.08292-1.16-0.3809-1.16-0.3809s-0.7953-0.3701-1.326-0.3516zm7.916 0.2891-1.98 0.3929v1h2.318l-0.3178-2zm-3.428 12.57-0.2715 0.2227c0.3455 0.4209 0.5054 0.999 0.502 1.467-0.0017 0.2339-0.04455 0.4393-0.1113 0.5762s-0.1415 0.1946-0.2266 0.207l0.05078 0.3477c0.2238-0.0326 0.3911-0.1973 0.4902-0.4004 0.09912-0.2031 0.1464-0.4549 0.1484-0.7285 0.0041-0.5472-0.1722-1.192-0.582-1.691zm0.8984 0.03516-0.2461 0.1797c0.2911 0.3962 0.404 0.8071 0.3906 1.109-0.0067 0.1512-0.0443 0.2722-0.09766 0.3535-0.05335 0.08136-0.1158 0.1232-0.1992 0.1367l0.04883 0.3008c0.1699-0.02747 0.3125-0.1296 0.4043-0.2695 0.09178-0.14 0.1398-0.3161 0.1484-0.5098 0.01719-0.3873-0.1215-0.8547-0.4492-1.301zm-1.842 0.375-0.1465 0.1621c0.2559 0.2322 0.3445 0.4639 0.334 0.6211-0.01048 0.1572-0.0967 0.2518-0.2773 0.2715l0.02344 0.2188c0.2653-0.02888 0.4561-0.2283 0.4727-0.4766s-0.1161-0.5336-0.4062-0.7969z" style="fill:#5a3721"/>
 <path d="m27 21-1 7 1-1zm3.135 3.305-1.402 0.8359c0.8575 0.2518 1.308-0.2919 1.402-0.8359zm-9.111 0.1406c-0.2053 0.5895 0.6164 1.179 1.781 0.9336zm4.977 5.555c-1 0-2 1-2 1h4s-1-1-2-1z" style="opacity:.5"/>
 <path d="m19 23.5-4.5 5.5 2.5-1-2 3 4-1z" style="fill:#4c3424"/>
 <path d="m19 22.88s-1.569-2.117-2.401-1.859c-0.7445 0.2313-0.5847 2.362-0.5847 2.362s0.4089 1.738 1.086 2.099c0.3758 0.1998 1.9 0.9179 1.9 0.9179z" style="fill:#f0ca9e"/>
 <path d="m18 16v15l1 0.3008 1-0.3008v-15z" style="fill:#6c5353"/>
 <path d="m18 31h2v1h-2.5z" style="fill:#fc0"/>
 <path d="m27.84 10.46s1.454 0.6977 1.854 1.349c0.4621 0.7513 0.3095 3.19 0.3095 3.19h-4c0-2 0-3 0.3193-4.115 0.3377-0.4014 1.517-0.4237 1.517-0.4237z" style="fill:#fc0"/>
 <path d="m25.81 13.79-5.814 4.756v3.037c0.6405-1.095 1.32-2.224 2-3.584 0.7716 1.346 1.63 2.294 3 3v-3s2.474 3.145 4 4c0.2883 0.1614 0.6433 0.2595 1.025 0.332-0.01828-0.4248-0.02913-0.8556-0.02539-1.33l-1.418-6.379c-0.9334-0.2453-1.864-0.5038-2.768-0.832z" style="opacity:.1"/>
 <path d="m24 12c-3 1-7 4-7 12v4c1-5 3-7 5-11 0.7716 1.346 1.63 2.294 3 3v-3s2.474 3.145 4 4c1.055 0.5905 2.979 0.3518 4 1 1.747 1.111 3 5 3 5s1-3 1-5c0-1-1-3.801-1-3.801l1 0.8008s-0.9898-2.285-2-3c-3.191-2.136-7.497-2.144-11-4z" style="fill:#613b24"/>
 <path d="m21 11s-3 0.5-3 2c0 2 1 3 3.332 3.017 0 0 2.49-1.591 2.527-2.864 0.02427-0.8201-1.517-1.936-1.517-1.936z" style="fill:#fc0"/>
 <g transform="translate(0 3.949e-5)">
  <g transform="translate(0 -1004)">
   <path d="m1 1043v4c0 2.216 1.784 4 4 4h38c2.216 0 4-1.784 4-4v-4c0 2.216-1.784 4-4 4h-38c-2.216 0-4-1.784-4-4z" style="opacity:.1"/>
  </g>
 </g>
</svg>
