<svg style="" viewBox="0 0 48 48" xmlns="http://www.w3.org/2000/svg" xmlns:xlink="http://www.w3.org/1999/xlink">
 <defs style="">
  <linearGradient id="linearGradient3764" gradientTransform="translate(-48 .002215)" gradientUnits="userSpaceOnUse" style="" x1="1" x2="47">
   <stop offset="0" style="stop-color:#a3ce30"/>
   <stop offset="1" style="stop-color:#abd240"/>
  </linearGradient>
 </defs>
 <path d="m 1 43 v .25 c 0 2.216 1.784 4 4 4 h 38 c 2.216 0 4 -1.784 4 -4 v -.25 c 0 2.216 -1.784 4 -4 4 h -38 c -2.216 0 -4 -1.784 -4 -4 z m 0 .5 v .5 c 0 2.216 1.784 4 4 4 h 38 c 2.216 0 4 -1.784 4 -4 v -.5 c 0 2.216 -1.784 4 -4 4 h -38 c -2.216 0 -4 -1.784 -4 -4 z" style="opacity:.02"/>
 <path d="m 1 43.25 v .25 c 0 2.216 1.784 4 4 4 h 38 c 2.216 0 4 -1.784 4 -4 v -.25 c 0 2.216 -1.784 4 -4 4 h -38 c -2.216 0 -4 -1.784 -4 -4 z" style="opacity:.05"/>
 <path d="m 1 43 v .25 c 0 2.216 1.784 4 4 4 h 38 c 2.216 0 4 -1.784 4 -4 v -.25 c 0 2.216 -1.784 4 -4 4 h -38 c -2.216 0 -4 -1.784 -4 -4 z" style="opacity:.1"/>
 <rect height="46" rx="4" style="fill:url(#linearGradient3764)" transform="rotate(-90)" width="46" x="-47" y="1"/>
 <path d="m 24.05 12 c -3.809 0 -7.188 1.805 -9.371 4.594 l 1.496 .953 c 1.867 -2.293 4.719 -3.754 7.898 -3.754 5.621 0 10.184 4.574 10.184 10.211 0 5.633 -4.563 10.207 -10.184 10.207 -3.168 0 -6.01 -1.453 -7.879 -3.734 l -1.496 .953 c 2.191 2.781 5.559 4.574 9.371 4.574 6.598 0 11.949 -5.375 11.949 -12 0 -6.621 -5.355 -11.996 -11.949 -11.996 m -12.07 4.992 v 14 l 12.141 -7.07 m -.09 -7.242 c -2.148 0 -4.078 .934 -5.418 2.414 l 1.551 .969 c .996 -.988 2.363 -1.594 3.871 -1.594 3.051 0 5.527 2.5 5.527 5.578 0 3.082 -2.473 5.582 -5.527 5.582 -1.535 0 -2.922 -.629 -3.922 -1.648 l -1.496 .953 c 1.34 1.48 3.266 2.414 5.418 2.414 4.04 0 7.316 -3.289 7.316 -7.336 0 -4.051 -3.277 -7.336 -7.316 -7.336" style="fill-rule:evenodd;opacity:.1"/>
 <path d="m 24.05 11 c -3.809 0 -7.188 1.805 -9.371 4.594 l 1.496 .953 c 1.867 -2.293 4.719 -3.754 7.898 -3.754 5.621 0 10.184 4.574 10.184 10.211 0 5.633 -4.563 10.207 -10.184 10.207 -3.168 0 -6.01 -1.453 -7.879 -3.734 l -1.496 .953 c 2.191 2.781 5.559 4.574 9.371 4.574 6.598 0 11.949 -5.375 11.949 -12 0 -6.621 -5.355 -11.996 -11.949 -11.996 m -12.07 4.992 v 14 l 12.141 -7.07 m -.09 -7.242 c -2.148 0 -4.078 .934 -5.418 2.414 l 1.551 .969 c .996 -.988 2.363 -1.594 3.871 -1.594 3.051 0 5.527 2.5 5.527 5.578 0 3.082 -2.473 5.582 -5.527 5.582 -1.535 0 -2.922 -.629 -3.922 -1.648 l -1.496 .953 c 1.34 1.48 3.266 2.414 5.418 2.414 4.04 0 7.316 -3.289 7.316 -7.336 0 -4.051 -3.277 -7.336 -7.316 -7.336" style="fill:#fff;fill-rule:evenodd"/>
 <path d="m 1 39 v 4 c 0 2.216 1.784 4 4 4 h 38 c 2.216 0 4 -1.784 4 -4 v -4 c 0 2.216 -1.784 4 -4 4 h -38 c -2.216 0 -4 -1.784 -4 -4 z" style="opacity:.1"/>
</svg>
