<svg style="" version="1.1" viewBox="0 0 48 48" xmlns="http://www.w3.org/2000/svg">
 <defs style="">
  <linearGradient id="bg" x1="1" x2="47" style="" gradientTransform="translate(-48 .002215)" gradientUnits="userSpaceOnUse">
   <stop style="stop-color:#32a2f8" offset="0"/>
   <stop style="stop-color:#45a9f9" offset="1"/>
  </linearGradient>
 </defs>
 <path d="m1 43v0.25c0 2.216 1.784 4 4 4h38c2.216 0 4-1.784 4-4v-0.25c0 2.216-1.784 4-4 4h-38c-2.216 0-4-1.784-4-4zm0 0.5v0.5c0 2.216 1.784 4 4 4h38c2.216 0 4-1.784 4-4v-0.5c0 2.216-1.784 4-4 4h-38c-2.216 0-4-1.784-4-4z" style="opacity:.02"/>
 <path d="m1 43.25v0.25c0 2.216 1.784 4 4 4h38c2.216 0 4-1.784 4-4v-0.25c0 2.216-1.784 4-4 4h-38c-2.216 0-4-1.784-4-4z" style="opacity:.05"/>
 <path d="m1 43v0.25c0 2.216 1.784 4 4 4h38c2.216 0 4-1.784 4-4v-0.25c0 2.216-1.784 4-4 4h-38c-2.216 0-4-1.784-4-4z" style="opacity:.1"/>
 <rect transform="rotate(-90)" x="-47" y="1" width="46" height="46" rx="4" style="fill:url(#bg)"/>
 <path d="m1 39v4c0 2.216 1.784 4 4 4h38c2.216 0 4-1.784 4-4v-4c0 2.216-1.784 4-4 4h-38c-2.216 0-4-1.784-4-4z" style="opacity:.1"/>
 <path d="m22 11.5v16.5l3.9998-0.49999v-6.5l4.9999 7 3.9998-0.99998-5.4999-7.5 5.4999-7.5-3.9998-0.99998-4.9999 7zm-5.7774 3.3067-1.416 1.416 1.6875 2.8105c-0.63764 0.96313-1.0839 2.04-1.3144 3.1718l-3.1796 0.79494v2l3.1796 0.79494c0.23138 1.1313 0.67831 2.2075 1.3164 3.1699l-1.6894 2.8125 1.416 1.416 2.8105-1.6875c0.96328 0.63692 2.0401 1.0825 3.1719 1.3125l0.7949 3.1816h2l0.7949-3.1796c1.1313-0.2313 2.2075-0.67831 3.1699-1.3164l2.8125 1.6894 1.416-1.416-1.6386-2.8847-0.97265 0.24227-6.5819 1.8652c-3.866 0-7-3.134-7-7 1.29e-4 -2.7036 1.5572-5.1654 3.9998-6.3242v-2.1621c-0.6932 0.24529-1.3537 0.57452-1.9668 0.98044z" style="opacity:.1"/>
 <path d="m26 10-3.9998 0.49999v16.5l3.9998-0.49999v-6.5l4.9999 7 3.9998-0.99998-5.4999-7.5 5.4999-7.5-3.9998-0.99998-4.9999 7zm-9.7772 3.8067-1.416 1.416 1.6875 2.8105c-0.63764 0.96313-1.0839 2.04-1.3144 3.1718l-3.1796 0.79494v2l3.1796 0.79494c0.23138 1.1313 0.67831 2.2075 1.3164 3.1699l-1.6894 2.8125 1.416 1.416 2.8105-1.6875c0.96328 0.63692 2.0401 1.0825 3.1719 1.3125l0.7949 3.1816h2l0.7949-3.1796c1.1313-0.2313 2.2075-0.67831 3.1699-1.3164l2.8125 1.6894 1.416-1.416-1.6386-2.8847-0.97265 0.24227-0.82423-1.1543c-1.3071 1.8908-3.4591 3.0194-5.7577 3.0195-3.866 0-7-3.134-7-7 1.29e-4 -2.7036 1.5572-5.1654 3.9998-6.3242v-2.1621c-0.6932 0.24529-1.3537 0.57452-1.9668 0.98044z" style="fill:#f9f9f9"/>
</svg>
