<svg viewBox="0 0 48 48" xmlns="http://www.w3.org/2000/svg">
 <defs>
  <linearGradient id="linearGradient3764" x1="1" x2="47" gradientTransform="translate(-48 .0022147)" gradientUnits="userSpaceOnUse">
   <stop stop-color="#204b86" offset="0"/>
   <stop stop-color="#245395" offset="1"/>
  </linearGradient>
  <clipPath id="clipPath-821316214">
   <g transform="translate(0 -1004.4)">
    <rect x="1" y="1005.4" width="46" height="46" rx="4" fill="#1890d0"/>
   </g>
  </clipPath>
  <clipPath id="clipPath-834305836">
   <g transform="translate(0 -1004.4)">
    <rect x="1" y="1005.4" width="46" height="46" rx="4" fill="#1890d0"/>
   </g>
  </clipPath>
 </defs>
 <g>
  <path d="m1 43v0.25c0 2.216 1.784 4 4 4h38c2.216 0 4-1.784 4-4v-0.25c0 2.216-1.784 4-4 4h-38c-2.216 0-4-1.784-4-4zm0 0.5v0.5c0 2.216 1.784 4 4 4h38c2.216 0 4-1.784 4-4v-0.5c0 2.216-1.784 4-4 4h-38c-2.216 0-4-1.784-4-4z" opacity=".02"/>
  <path d="m1 43.25v0.25c0 2.216 1.784 4 4 4h38c2.216 0 4-1.784 4-4v-0.25c0 2.216-1.784 4-4 4h-38c-2.216 0-4-1.784-4-4z" opacity=".05"/>
  <path d="m1 43v0.25c0 2.216 1.784 4 4 4h38c2.216 0 4-1.784 4-4v-0.25c0 2.216-1.784 4-4 4h-38c-2.216 0-4-1.784-4-4z" opacity=".1"/>
 </g>
 <g>
  <rect transform="rotate(-90)" x="-47" y="1" width="46" height="46" rx="4" fill="url(#linearGradient3764)"/>
 </g>
 <g>
  <g clip-path="url(#clipPath-821316214)">
   <g opacity=".1">
    <g>
     <path d="m29.984 21.262c-1.473-1.711-2.797-2.816-4.758 0.063-1.172 1.711-8.176 11.527-9.461 13.09-0.375 0.453-0.594 0.766-0.879 0.953 0-0.621 4.84-8.512 6.191-10.797 1.629-2.746 1.578-2.586 1.383-2.586-0.277 0-0.836 0.418-1.691 1.355-1.555 1.707-6.164 8.07-6.484 7.973 0.109-0.461 3.719-6.156 5.355-8.512 1.41-2.031 0.871-2.188 0.063-1.988-3.445 0.848-7.57 2.891-7.703 2.816 0.051-0.105 13.887-10.117 15.738-10.309 0.215-0.023 0.668-0.418 1.477-0.75 0.879-0.355 1.469-0.648 1.617-0.555-0.645 0.926-0.98 1.113-0.988 1.41-8e-3 0.488-0.176 1.277-0.363 1.531 3.578 2.453 4.973 10.809 5.992 17.535 0.242 1.594 0.469 2.797 0.527 3.508-0.301-0.801-3.16-11.422-6.02-14.738"/>
    </g>
   </g>
  </g>
 </g>
 <g>
  <g clip-path="url(#clipPath-834305836)">
   <g transform="translate(0,-1)">
    <g>
     <path d="m29.984 21.262c-1.473-1.711-2.797-2.816-4.758 0.063-1.172 1.711-8.176 11.527-9.461 13.09-0.375 0.453-0.594 0.766-0.879 0.953 0-0.621 4.84-8.512 6.191-10.797 1.629-2.746 1.578-2.586 1.383-2.586-0.277 0-0.836 0.418-1.691 1.355-1.555 1.707-6.164 8.07-6.484 7.973 0.109-0.461 3.719-6.156 5.355-8.512 1.41-2.031 0.871-2.188 0.063-1.988-3.445 0.848-7.57 2.891-7.703 2.816 0.051-0.105 13.887-10.117 15.738-10.309 0.215-0.023 0.668-0.418 1.477-0.75 0.879-0.355 1.469-0.648 1.617-0.555-0.645 0.926-0.98 1.113-0.988 1.41-8e-3 0.488-0.176 1.277-0.363 1.531 3.578 2.453 4.973 10.809 5.992 17.535 0.242 1.594 0.469 2.797 0.527 3.508-0.301-0.801-3.16-11.422-6.02-14.738" fill="#fff"/>
    </g>
   </g>
  </g>
 </g>
 <g>
  <g transform="translate(0 -1004.4)">
   <path d="m1 1043.4v4c0 2.216 1.784 4 4 4h38c2.216 0 4-1.784 4-4v-4c0 2.216-1.784 4-4 4h-38c-2.216 0-4-1.784-4-4z" opacity=".1"/>
  </g>
 </g>
</svg>
