<svg version="1.1" viewBox="0 0 48 48" xmlns="http://www.w3.org/2000/svg">
 <defs>
  <linearGradient id="bg" x2="0" y1="1" y2="47" gradientUnits="userSpaceOnUse">
   <stop style="stop-color:#d6d3ae" offset="0"/>
   <stop style="stop-color:#cfcca0" offset="1"/>
  </linearGradient>
 </defs>
 <path d="m1 43v0.25c0 2.22 1.78 4 4 4h38c2.22 0 4-1.78 4-4v-0.25c0 2.22-1.78 4-4 4h-38c-2.22 0-4-1.78-4-4zm0 0.5v0.5c0 2.22 1.78 4 4 4h38c2.22 0 4-1.78 4-4v-0.5c0 2.22-1.78 4-4 4h-38c-2.22 0-4-1.78-4-4z" style="opacity:.02"/>
 <path d="m1 43.2v0.25c0 2.22 1.78 4 4 4h38c2.22 0 4-1.78 4-4v-0.25c0 2.22-1.78 4-4 4h-38c-2.22 0-4-1.78-4-4z" style="opacity:.05"/>
 <path d="m1 43v0.25c0 2.22 1.78 4 4 4h38c2.22 0 4-1.78 4-4v-0.25c0 2.22-1.78 4-4 4h-38c-2.22 0-4-1.78-4-4z" style="opacity:.1"/>
 <rect x="1" y="1" width="46" height="46" rx="4" style="fill:url(#bg)"/>
 <path d="m1 39v4c0 2.22 1.78 4 4 4h38c2.22 0 4-1.78 4-4v-4c0 2.22-1.78 4-4 4h-38c-2.22 0-4-1.78-4-4z" style="opacity:.1"/>
 <path d="m14 36 20-3v2c0 1.11-0.892 2-2 2h-18z" style="opacity:.1"/>
 <path d="m34 27.1-20 2.86v6h18c1.11 0 2-0.892 2-2v-1h-1c0.64-0.863 1-1 1-2z" style="fill:#a93c44"/>
 <rect x="14" y="30" width="4" height="6" style="fill:#3d3d3d;stroke-width:1.22"/>
 <path d="m34 29c0 1.11-0.892 2-2 2h-17v4h17c1.11 0 2-0.892 2-2z" style="fill:#f3f3f2"/>
 <path d="m18 10h14c1.11 0 2 0.892 2 2v4l-1 3 1 6v3c0 1.11-0.892 2-2 2h-14l-1-9z" style="fill:#e03845"/>
 <path d="m14 10h4l-1e-6 20h-4v-5l1-3-1-6z" style="fill:#474747"/>
 <rect x="14" y="16" width="20" height="9" style="fill:#f6796a;paint-order:stroke fill markers"/>
</svg>
