<svg viewBox="0 0 48 48" xmlns:xlink="http://www.w3.org/1999/xlink">
  <defs>
    <linearGradient id="a" x1="1" x2="47" gradientUnits="userSpaceOnUse" gradientTransform="translate(-48 .002)">
      <stop stop-color="#455a85"/>
      <stop offset="1" stop-color="#4c6392"/>
    </linearGradient>
    <clipPath id="b"/>
    <clipPath id="d"/>
    <path id="c" d="M-49.633 28.07c0 7.415-4.409 13.436-9.858 13.436-5.449 0-9.858-6.02-9.858-13.436 0-7.415 4.409-13.415 9.858-13.415 5.449 0 9.858 6 9.858 13.415m0 0" stroke="#f4f4ff" stroke-width="4.803"/>
  </defs>
  <path d="M1 43v.25c0 2.216 1.784 4 4 4h38c2.216 0 4-1.784 4-4V43c0 2.216-1.784 4-4 4H5c-2.216 0-4-1.784-4-4zm0 .5v.5c0 2.216 1.784 4 4 4h38c2.216 0 4-1.784 4-4v-.5c0 2.216-1.784 4-4 4H5c-2.216 0-4-1.784-4-4z" opacity=".02"/>
  <path d="M1 43.25v.25c0 2.216 1.784 4 4 4h38c2.216 0 4-1.784 4-4v-.25c0 2.216-1.784 4-4 4H5c-2.216 0-4-1.784-4-4z" opacity=".05"/>
  <path d="M1 43v.25c0 2.216 1.784 4 4 4h38c2.216 0 4-1.784 4-4V43c0 2.216-1.784 4-4 4H5c-2.216 0-4-1.784-4-4z" opacity=".1"/>
  <rect width="46" height="46" x="-47" y="1" rx="4" transform="rotate(-90)" fill="url(#a)"/>
  <g opacity=".1" clip-path="url(#b)">
    <use transform="matrix(.25161 0 0 .1849 29.969 27.81)" xlink:href="#c"/>
    <use transform="matrix(.25161 0 0 .1849 29.969 9.81)" xlink:href="#c"/>
    <use transform="matrix(.25161 0 0 .1849 47.969 27.81)" xlink:href="#c"/>
    <path d="M14 17.434v13.254l2-.027V17.38m-2 .055M20 17h10.996c.578 0 1 .453 1 1v12.688l2-.027V15.997a.991.991 0 0 0-1-.996h-13m.004 2"/>
    <path d="M21 13l-4 3 4 3m0-6"/>
  </g>
  <g>
    <g clip-path="url(#d)">
      <g transform="translate(0 -1)">
        <use transform="matrix(.25161 0 0 .1849 29.969 27.81)" xlink:href="#c"/>
        <use transform="matrix(.25161 0 0 .1849 29.969 9.81)" xlink:href="#c"/>
        <use transform="matrix(.25161 0 0 .1849 47.969 27.81)" xlink:href="#c"/>
        <path d="M14 17.434v13.254l2-.027V17.38m-2 .055M20 17h10.996c.578 0 1 .453 1 1v12.688l2-.027V15.997a.991.991 0 0 0-1-.996h-13m.004 2" fill="#f4f4ff"/>
        <path d="M21 13l-4 3 4 3m0-6" fill="#f4f4ff"/>
      </g>
    </g>
  </g>
  <g>
    <path d="M1 38.998v4c0 2.216 1.784 4 4 4h38c2.216 0 4-1.784 4-4v-4c0 2.216-1.784 4-4 4H5c-2.216 0-4-1.784-4-4z" opacity=".1"/>
  </g>
</svg>
