<svg width="48" height="48" viewBox="0 0 48 48.000001" xmlns="http://www.w3.org/2000/svg">
  <defs>
    <linearGradient id="a" x1="-47" x2="-1" gradientUnits="userSpaceOnUse">
      <stop offset="0" stop-color="#5c6149"/>
      <stop offset="1" stop-color="#676c52"/>
    </linearGradient>
  </defs>
  <path d="M1 43v.25c0 2.216 1.784 4 4 4h38c2.216 0 4-1.784 4-4V43c0 2.216-1.784 4-4 4H5c-2.216 0-4-1.784-4-4zm0 .5v.5c0 2.216 1.784 4 4 4h38c2.216 0 4-1.784 4-4v-.5c0 2.216-1.784 4-4 4H5c-2.216 0-4-1.784-4-4z" opacity=".02"/>
  <path d="M1 43.25v.25c0 2.216 1.784 4 4 4h38c2.216 0 4-1.784 4-4v-.25c0 2.216-1.784 4-4 4H5c-2.216 0-4-1.784-4-4z" opacity=".05"/>
  <path d="M1 43v.25c0 2.216 1.784 4 4 4h38c2.216 0 4-1.784 4-4V43c0 2.216-1.784 4-4 4H5c-2.216 0-4-1.784-4-4z" opacity=".1"/>
  <rect transform="rotate(-90)" x="-47" y="1" width="46" height="46" rx="4" fill="url(#a)"/>
  <path d="M1 39v4c0 2.216 1.784 4 4 4h38c2.216 0 4-1.784 4-4v-4c0 2.216-1.784 4-4 4H5c-2.216 0-4-1.784-4-4z" opacity=".1"/>
  <path d="M23 11l-3 3v1l3 3h1l3-3v-1l-3-3zm.5 2.5l1 1-1 1-1-1zM17 17v5h-3l-3 3v7h9V17zm16 2.979L27 20v12h3v-9.02l2 .021 2 2v7h3v-8.02l-4-4zM22 20v12h3V20zm-7 5h2v4h-3v-3z" style="isolation:auto;mix-blend-mode:normal" color="#000" fill-rule="evenodd" opacity=".1" white-space="normal"/>
  <path d="M23 10l-3 3v1l3 3h1l3-3v-1l-3-3zm.5 2.5l1 1-1 1-1-1zM17 16v5h-3l-3 3v7h9V16zm16 2.979L27 19v12h3v-9.02l2 .021 2 2v7h3v-8.02l-4-4zM22 19v12h3V19zm-7 5h2v4h-3v-3z" style="isolation:auto;mix-blend-mode:normal" color="#000" fill-rule="evenodd" fill="#f4f8cd" white-space="normal"/>
</svg>
