<svg version="1.1" viewBox="0 0 48 48" xmlns="http://www.w3.org/2000/svg">
 <defs>
  <linearGradient id="linearGradient001" x2="0" y1="47" y2="1" gradientUnits="userSpaceOnUse">
   <stop style="stop-color:#e2315b" offset="0"/>
   <stop style="stop-color:#e5436a" offset="1"/>
  </linearGradient>
 </defs>
 <path d="m1 43v0.25c0 2.22 1.78 4 4 4h38c2.22 0 4-1.78 4-4v-0.25c0 2.22-1.78 4-4 4h-38c-2.22 0-4-1.78-4-4zm0 0.5v0.5c0 2.22 1.78 4 4 4h38c2.22 0 4-1.78 4-4v-0.5c0 2.22-1.78 4-4 4h-38c-2.22 0-4-1.78-4-4z" style="opacity:.02"/>
 <path d="m1 43.2v0.25c0 2.22 1.78 4 4 4h38c2.22 0 4-1.78 4-4v-0.25c0 2.22-1.78 4-4 4h-38c-2.22 0-4-1.78-4-4z" style="opacity:.05"/>
 <path d="m1 43v0.25c0 2.22 1.78 4 4 4h38c2.22 0 4-1.78 4-4v-0.25c0 2.22-1.78 4-4 4h-38c-2.22 0-4-1.78-4-4z" style="opacity:.1"/>
 <rect x="1" y="1" width="46" height="46" rx="4" style="fill:url(#linearGradient001)"/>
 <path d="m15.9 12.6c-0.849-0.1-1.12 0.499-0.812 1.06-0.173 0.268-0.353 0.535 0.0527 1.05-0.143 0.285-0.0547 0.595 0.283 0.969-0.0892 0.401 0.086 0.682 0.4 0.902-0.0588 0.548 0.502 0.867 0.67 0.98 0.0644 0.319 0.198 0.622 0.84 0.789 0.106 0.476 0.492 0.558 0.865 0.658-1.23 0.717-2.29 1.66-2.29 3.98l-0.18 0.322c-1.41 0.86-2.69 3.63-0.697 5.87 0.13 0.704 0.347 1.21 0.541 1.77 0.29 2.25 2.19 3.31 2.69 3.44 0.732 0.558 1.51 1.09 2.57 1.46 0.995 1.03 2.07 1.42 3.16 1.42 0.0159-1e-5 0.031 1.78e-4 0.0469 0 1.08 6.75e-4 2.16-0.392 3.16-1.42 1.06-0.371 1.84-0.899 2.57-1.46 0.5-0.125 2.4-1.18 2.69-3.44 0.194-0.559 0.411-1.06 0.541-1.77 1.99-2.25 0.718-5.01-0.697-5.87l-0.18-0.324c0.0072-2.32-1.05-3.26-2.29-3.97 0.373-0.0999 0.759-0.184 0.865-0.66 0.641-0.167 0.775-0.468 0.84-0.787 0.168-0.114 0.729-0.432 0.67-0.98 0.314-0.22 0.49-0.504 0.4-0.904 0.338-0.374 0.427-0.682 0.283-0.967 0.406-0.512 0.226-0.778 0.0527-1.05 0.304-0.559 0.0349-1.16-0.814-1.06l-8.12 2.12zm8.11 6.28c1.19-0.0131 2.66 0.887 2.65 1.73-0.0052 0.748-1.03 1.35-2.64 1.34-1.58-0.0188-2.64-0.761-2.64-1.49 0.0031-0.597 1.29-1.62 2.63-1.59zm-4.04 0.504c0.266-5e-3 0.54 0.0171 0.82 0.0644 0.826 0.139-3.96 4.32-4.04 3.38-0.0659-2.13 1.36-3.41 3.21-3.45zm7.84 0.0723c1.86 0.0346 3.28 1.32 3.21 3.45-0.0738 0.933-4.86-3.25-4.03-3.39 0.28-0.0474 0.555-0.0674 0.82-0.0625zm-0.791 2.6c2.77 0.121 4.21 4.04 2.02 5.5-2.94 2.24-6.62-3.33-3.39-5.13 0.397-0.26 0.871-0.387 1.37-0.369zm-5.87 0.143c0.456 0.0047 0.885 0.132 1.25 0.371 3.23 1.8-0.449 7.37-3.39 5.13-2.19-1.46-0.74-5.39 2.03-5.5 0.0378-0.0015 0.0754-0.0022 0.113-2e-3zm10.3 1.59c2.16 1.23 1.78 3.97 0.619 4.91-1.06 0.47-1.92-5.26-0.619-4.91zm-15 0.0723c1.3-0.348 0.44 5.38-0.617 4.91-1.16-0.936-1.54-3.68 0.617-4.91zm7.77 3.67c1.58 0.0351 2.85 1.23 2.84 2.69 0.241 3.78-6.05 3.78-5.81 0-0.0064-1.51 1.34-2.72 2.97-2.69zm6.35 1.01c0.227-0.0059 0.439 0.0588 0.631 0.207 0.516 0.514 0.817 2.45-0.0859 3.61-1.24 1.73-2.93 1.79-3.55 1.31-0.656-0.619-0.155-2.54 0.744-3.59 0.772-0.871 1.58-1.52 2.27-1.54zm-13 0.412c0.732 0.0314 1.61 0.609 2.32 1.44 0.831 1 1.21 2.76 0.518 3.28-0.656 0.396-2.25 0.233-3.38-1.39-0.764-1.37-0.665-2.75-0.129-3.16 0.2-0.122 0.428-0.173 0.672-0.162zm6.63 4.8c1.17-0.051 2.73 0.375 2.74 0.941 0.0194 0.55-1.42 1.79-2.81 1.77-1.44 0.0623-2.86-1.18-2.84-1.61-0.0216-0.632 1.76-1.13 2.92-1.1z" style="opacity:.1;stroke-width:.489"/>
 <path d="m1 39v4c0 2.22 1.78 4 4 4h38c2.22 0 4-1.78 4-4v-4c0 2.22-1.78 4-4 4h-38c-2.22 0-4-1.78-4-4z" style="opacity:.1"/>
 <path d="m19.4 10.7c-0.129 4e-3 -0.268 0.0512-0.426 0.176-0.387-0.149-0.762-0.2-1.1 0.104-0.518-0.0672-0.685 0.0706-0.812 0.232-0.114-0.0024-0.852-0.117-1.19 0.387-0.849-0.1-1.12 0.499-0.812 1.06-0.173 0.268-0.353 0.535 0.0527 1.05-0.143 0.285-0.0547 0.595 0.283 0.969-0.0892 0.401 0.086 0.682 0.4 0.902-0.0588 0.548 0.502 0.867 0.67 0.98 0.0644 0.319 0.198 0.622 0.84 0.789 0.106 0.476 0.492 0.558 0.865 0.658-1.23 0.717-2.29 1.66-2.29 3.98l-0.18 0.322c-1.41 0.86-2.69 3.63-0.697 5.87 0.13 0.704 0.347 1.21 0.541 1.77 0.29 2.25 2.19 3.31 2.69 3.44 0.732 0.558 1.51 1.09 2.57 1.46 0.995 1.03 2.07 1.42 3.16 1.42 0.0159-1e-5 0.031 1.78e-4 0.0469 0 1.08 6.75e-4 2.16-0.392 3.16-1.42 1.06-0.371 1.84-0.899 2.57-1.46 0.5-0.125 2.4-1.18 2.69-3.44 0.194-0.559 0.411-1.06 0.541-1.77 1.99-2.25 0.718-5.01-0.697-5.87l-0.18-0.324c0.0072-2.32-1.05-3.26-2.29-3.97 0.373-0.0999 0.759-0.184 0.865-0.66 0.641-0.167 0.775-0.468 0.84-0.787 0.168-0.114 0.729-0.432 0.67-0.98 0.314-0.22 0.49-0.504 0.4-0.904 0.338-0.374 0.427-0.682 0.283-0.967 0.406-0.512 0.226-0.778 0.0527-1.05 0.304-0.559 0.0349-1.16-0.814-1.06-0.338-0.504-1.07-0.389-1.19-0.387-0.127-0.162-0.295-0.3-0.812-0.232-0.335-0.304-0.711-0.253-1.1-0.104-0.459-0.362-0.762-0.0708-1.11 0.0391-0.556-0.182-0.684 0.0667-0.957 0.168-0.606-0.128-0.789 0.151-1.08 0.445l-0.338-0.0078c-0.914 0.539-1.37 1.64-1.53 2.2-0.161-0.564-0.615-1.66-1.53-2.2l-0.338 0.0078c-0.291-0.294-0.476-0.573-1.08-0.445-0.273-0.101-0.399-0.35-0.955-0.168-0.228-0.0721-0.437-0.222-0.684-0.215zm4.58 7.18c1.19-0.0131 2.66 0.887 2.65 1.73-0.0052 0.748-1.03 1.35-2.64 1.34-1.58-0.0188-2.64-0.761-2.64-1.49 0.0031-0.597 1.29-1.62 2.63-1.59zm-4.04 0.504c0.266-5e-3 0.54 0.0171 0.82 0.0644 0.826 0.139-3.96 4.32-4.04 3.38-0.0659-2.13 1.36-3.41 3.21-3.45zm7.84 0.0723c1.86 0.0346 3.28 1.32 3.21 3.45-0.0738 0.933-4.86-3.25-4.03-3.39 0.28-0.0474 0.555-0.0674 0.82-0.0625zm-0.791 2.6a3.08 2.61 56 0 1 2.02 5.5 3.08 2.61 56 1 1-3.39-5.13 3.08 2.61 56 0 1 1.37-0.369zm-5.87 0.143a2.61 3.08 34 0 1 1.25 0.371 2.61 3.08 34 1 1-3.39 5.13 2.61 3.08 34 0 1 2.03-5.5 2.61 3.08 34 0 1 0.113-2e-3zm10.3 1.59c2.16 1.23 1.78 3.97 0.619 4.91-1.06 0.47-1.92-5.26-0.619-4.91zm-15 0.0723c1.3-0.348 0.44 5.38-0.617 4.91-1.16-0.936-1.54-3.68 0.617-4.91zm7.77 3.67a2.91 2.68 0 0 1 2.84 2.69 2.91 2.68 0 1 1-5.81 0 2.91 2.68 0 0 1 2.97-2.69zm6.35 1.01c0.227-0.0059 0.439 0.0588 0.631 0.207 0.516 0.514 0.817 2.45-0.0859 3.61-1.24 1.73-2.93 1.79-3.55 1.31-0.656-0.619-0.155-2.54 0.744-3.59 0.772-0.871 1.58-1.52 2.27-1.54zm-13 0.412c0.732 0.0314 1.61 0.609 2.32 1.44 0.831 1 1.21 2.76 0.518 3.28-0.656 0.396-2.25 0.233-3.38-1.39-0.764-1.37-0.665-2.75-0.129-3.16 0.2-0.122 0.428-0.173 0.672-0.162zm6.63 4.8c1.17-0.051 2.73 0.375 2.74 0.941 0.0194 0.55-1.42 1.79-2.81 1.77-1.44 0.0623-2.86-1.18-2.84-1.61-0.0216-0.632 1.76-1.13 2.92-1.1z" style="fill:#404040;stroke-width:.489"/>
 <path d="m19.4 11.3c0.127 0.157 0.305 0.312 0.117 0.492-0.259-0.164-0.521-0.328-1.14-0.445 0.139 0.157 0.426 0.314 0.252 0.471-0.326-0.126-0.685-0.218-1.08-0.271 0.191 0.159 0.35 0.316 0.193 0.439-0.348-0.109-0.828-0.255-1.3-0.129l0.297 0.303c0.033 0.0406-0.696 0.032-1.18 0.0391 0.175 0.247 0.355 0.486 0.459 0.91-0.0476 0.049-0.285 0.0218-0.51 0 0.23 0.492 0.629 0.616 0.723 0.826-0.141 0.108-0.336 0.0793-0.549 0.0059 0.166 0.346 0.513 0.584 0.787 0.865-0.0694 0.05-0.19 0.0796-0.477 0.0449 0.254 0.274 0.559 0.523 0.922 0.748-0.0643 0.0755-0.285 0.0731-0.49 0.0781 0.329 0.327 0.752 0.497 1.15 0.711-0.198 0.137-0.339 0.103-0.49 0.102 0.281 0.234 0.758 0.357 1.2 0.498-0.0842 0.133-0.17 0.17-0.35 0.207 0.469 0.263 1.14 0.143 1.33 0.277-0.0457 0.132-0.174 0.217-0.328 0.289 0.755 0.0445 2.82-0.0275 3.21-1.61-0.772-0.861-2.18-1.87-4.6-3.12 1.88 0.641 3.59 1.5 5.01 2.67 1.68-0.792 0.521-2.79-0.297-3.58-0.0414 0.209-0.089 0.342-0.143 0.381-0.266-0.29-0.484-0.587-0.826-0.865-0.0011 0.164 0.0809 0.341-0.123 0.471-0.184-0.251-0.432-0.474-0.762-0.664 0.159 0.278 0.0268 0.361-0.0586 0.477-0.252-0.219-0.491-0.441-0.955-0.613zm9.17 0c-0.464 0.172-0.703 0.394-0.955 0.613-0.0854-0.115-0.217-0.199-0.0586-0.477-0.33 0.19-0.578 0.413-0.762 0.664-0.204-0.13-0.122-0.307-0.123-0.471-0.343 0.279-0.56 0.576-0.826 0.865-0.0536-0.039-0.101-0.171-0.143-0.381-0.817 0.793-1.97 2.79-0.297 3.58 1.43-1.18 3.13-2.03 5.02-2.67-2.43 1.25-3.83 2.26-4.61 3.12 0.396 1.59 2.46 1.66 3.21 1.61-0.155-0.0719-0.282-0.157-0.328-0.289 0.189-0.135 0.861-0.014 1.33-0.277-0.18-0.0373-0.265-0.0741-0.35-0.207 0.443-0.141 0.921-0.264 1.2-0.498-0.151 0.0019-0.292 0.0356-0.49-0.102 0.397-0.214 0.82-0.384 1.15-0.711-0.205-5e-3 -0.426-0.0027-0.49-0.0781 0.363-0.225 0.668-0.474 0.922-0.748-0.287 0.0346-0.407 0.0051-0.477-0.0449 0.274-0.281 0.621-0.519 0.787-0.865-0.213 0.0735-0.408 0.102-0.549-0.0059 0.0933-0.21 0.493-0.334 0.723-0.826-0.224 0.0218-0.462 0.049-0.51 0 0.104-0.424 0.284-0.663 0.459-0.91-0.48-0.0071-1.21 0.0016-1.18-0.0391l0.297-0.303c-0.469-0.126-0.948 0.0201-1.3 0.129-0.156-0.123 0.0025-0.28 0.193-0.439-0.399 0.0532-0.758 0.145-1.08 0.271-0.174-0.157 0.113-0.316 0.252-0.473-0.616 0.117-0.877 0.281-1.14 0.445-0.188-0.18-0.0098-0.333 0.117-0.49z" style="fill:#8ccf44;stroke-width:.489"/>
</svg>
