<svg version="1.1" viewBox="0 0 48 48" xmlns="http://www.w3.org/2000/svg">
 <defs>
  <linearGradient id="bg" x2="0" y1="1" y2="47" gradientUnits="userSpaceOnUse">
   <stop style="stop-color:#ededed" offset="0"/>
   <stop style="stop-color:#e3e3e3" offset="1"/>
  </linearGradient>
 </defs>
 <path d="m1 43v0.25c0 2.216 1.784 4 4 4h38c2.216 0 4-1.784 4-4v-0.25c0 2.216-1.784 4-4 4h-38c-2.216 0-4-1.784-4-4zm0 0.5v0.5c0 2.216 1.784 4 4 4h38c2.216 0 4-1.784 4-4v-0.5c0 2.216-1.784 4-4 4h-38c-2.216 0-4-1.784-4-4z" style="opacity:.02"/>
 <path d="m1 43.25v0.25c0 2.216 1.784 4 4 4h38c2.216 0 4-1.784 4-4v-0.25c0 2.216-1.784 4-4 4h-38c-2.216 0-4-1.784-4-4z" style="opacity:.05"/>
 <path d="m1 43v0.25c0 2.216 1.784 4 4 4h38c2.216 0 4-1.784 4-4v-0.25c0 2.216-1.784 4-4 4h-38c-2.216 0-4-1.784-4-4z" style="opacity:.1"/>
 <rect x="1" y="1" width="46" height="46" rx="4" style="fill:url(#bg)"/>
 <path d="m1 39v4c0 2.216 1.784 4 4 4h38c2.216 0 4-1.784 4-4v-4c0 2.216-1.784 4-4 4h-38c-2.216 0-4-1.784-4-4z" style="opacity:.1"/>
 <path d="m21.941 9.1582c-7.4118 1.0269-12.933 7.3592-12.941 14.842 0.0064 3.6891 1.3721 7.2465 3.8359 9.9922zm4.1172 0 9.1055 24.836c2.4643-2.7462 3.83-6.3044 3.8359-9.9941-0.008117-7.4826-5.5296-13.815-12.941-14.842zm-2.0586 4.8418-4 15h8zm-4 19c-1.994 0-3.739 1.4908-4.9883 2.9863 2.5915 1.9498 5.7452 3.0072 8.9883 3.0137 3.2435-0.0055 6.3979-1.0622 8.9902-3.0117-1.2494-1.4962-2.9953-2.9883-4.9902-2.9883z" style="opacity:.1"/>
 <path d="m21.941 8.1582c-7.4118 1.0269-12.933 7.3592-12.941 14.842 0.0064 3.6891 1.3721 7.2465 3.8359 9.9922z" style="fill:#4194e7"/>
 <path d="m24 13-4 15h8zm-4 19c-1.994 0-3.739 1.4908-4.9883 2.9863 2.5915 1.9498 5.7452 3.0072 8.9883 3.0137 3.2435-0.0055 6.3979-1.0622 8.9902-3.0117-1.2494-1.4962-2.9953-2.9883-4.9902-2.9883z" style="fill:#eecb44"/>
 <path d="m26.059 8.1582 9.1055 24.836c2.4643-2.7462 3.83-6.3044 3.8359-9.9941-0.0081-7.4826-5.5296-13.815-12.941-14.842z" style="fill:#e54d4d"/>
</svg>
