<svg version="1.1" viewBox="0 0 48 48" xmlns="http://www.w3.org/2000/svg">
 <defs>
  <linearGradient id="bg" x1="-47" x2="-1" y1="0" y2="0" gradientUnits="userSpaceOnUse">
   <stop style="stop-color:#3d3d3d" offset="0"/>
   <stop style="stop-color:#474747" offset="1"/>
  </linearGradient>
 </defs>
 <path d="m1 43v0.25c0 2.22 1.78 4 4 4h38c2.22 0 4-1.78 4-4v-0.25c0 2.22-1.78 4-4 4h-38c-2.22 0-4-1.78-4-4zm0 0.5v0.5c0 2.22 1.78 4 4 4h38c2.22 0 4-1.78 4-4v-0.5c0 2.22-1.78 4-4 4h-38c-2.22 0-4-1.78-4-4z" style="opacity:.02"/>
 <path d="m1 43.3v0.25c0 2.22 1.78 4 4 4h38c2.22 0 4-1.78 4-4v-0.25c0 2.22-1.78 4-4 4h-38c-2.22 0-4-1.78-4-4z" style="opacity:.05"/>
 <path d="m1 43v0.25c0 2.22 1.78 4 4 4h38c2.22 0 4-1.78 4-4v-0.25c0 2.22-1.78 4-4 4h-38c-2.22 0-4-1.78-4-4z" style="opacity:.1"/>
 <rect transform="rotate(-90)" x="-47" y="1" width="46" height="46" rx="4" style="fill:url(#bg)"/>
 <path d="m12 14v20h4c1.65 0 2.94-0.354 3.98-0.912 1.23 0.658 2.62 0.912 4.02 0.912 1.16 0 2.32-0.178 3.39-0.615 0.106 0.0514 0.205 0.113 0.314 0.158 2.24 0.929 4.82 0.415 6.54-1.3s2.23-4.3 1.3-6.54c-0.673-1.62-2.01-2.83-3.62-3.38-0.13-1.62-0.449-2.95-0.914-4.03 0.597 0.357 0.986 0.989 0.986 1.7h4c0-2.43-1.46-4.61-3.7-5.54-1.61-0.668-3.4-0.579-4.91 0.156-1.06-0.435-2.22-0.613-3.38-0.613-1.4 0-2.79 0.254-4.02 0.912-1.04-0.558-2.33-0.912-3.98-0.912zm4 4c0.393 0 0.737 0.0476 1.06 0.119-0.664 1.45-1.06 3.37-1.06 5.88s0.392 4.43 1.06 5.88c-0.32 0.0716-0.664 0.119-1.06 0.119v-6zm8 0c0.113 0 0.225 0.0165 0.338 0.0234-0.475 1.36-0.456 2.88 0.119 4.27 0.65 1.57 1.92 2.74 3.46 3.31-0.109 0.998-0.322 1.78-0.611 2.39h-3.3c0 0.687 0.129 1.35 0.348 1.97-0.116 0.00738-0.231 0.0254-0.348 0.0254-0.359 0-0.713-0.0492-1.06-0.131 1.05-2.28 1.06-4.85 1.06-5.87s-0.00571-3.59-1.06-5.87c0.347-0.0816 0.702-0.131 1.06-0.131zm7.75 9.08c0.0283 0.0538 0.0702 0.0973 0.0938 0.154 0.31 0.747 0.138 1.61-0.434 2.18-0.122 0.122-0.262 0.218-0.406 0.303 0.326-0.751 0.577-1.63 0.746-2.64z" style="opacity:.1"/>
 <path d="m1 39v4c0 2.22 1.78 4 4 4h38c2.22 0 4-1.78 4-4v-4c0 2.22-1.78 4-4 4h-38c-2.22 0-4-1.78-4-4z" style="opacity:.1"/>
 <path d="m24 27c0 2.43 1.46 4.61 3.7 5.54 2.24 0.929 4.82 0.415 6.54-1.3 1.72-1.72 2.23-4.3 1.3-6.54-0.929-2.24-3.12-3.7-5.54-3.7-0.809 0-1.54-0.487-1.85-1.23-0.31-0.747-0.138-1.61 0.434-2.18 0.572-0.572 1.43-0.743 2.18-0.434 0.747 0.31 1.23 1.04 1.23 1.85h4c0-2.43-1.46-4.61-3.7-5.54-2.24-0.929-4.82-0.415-6.54 1.3-1.72 1.72-2.23 4.3-1.3 6.54 0.929 2.24 3.12 3.7 5.54 3.7 0.809 0 1.54 0.487 1.85 1.23 0.31 0.747 0.138 1.61-0.434 2.18-0.572 0.572-1.43 0.743-2.18 0.434-0.747-0.31-1.23-1.04-1.23-1.85z" style="fill:#f8c95e"/>
 <path d="m30.1 21-0.338 3.97c0.0817 0.00365 0.16 0.0234 0.242 0.0234 0.809 0 1.54 0.487 1.85 1.23 0.00889 0.0215 0.00752 0.0448 0.0156 0.0664 0.0827-0.709 0.137-1.47 0.137-2.3 0-0.995-0.0617-1.9-0.178-2.71-0.55-0.175-1.13-0.269-1.73-0.279z" style="opacity:.1"/>
 <path d="m24 13c-4 0-8 2-8 10s4 10 8 10c4 0 8-2 8-10s-4-10-8-10zm0 4c2 0 4 1 4 6s-2 6-4 6-4-1-4-6 2-6 4-6z" style="fill:#c26ce0"/>
 <path d="m28.5 14.2c-1.02 0.262-1.97 0.777-2.75 1.55-0.393 0.393-0.715 0.834-0.979 1.3 1.22 0.194 2.33 0.949 2.87 2.94h0.35s0.0194 0.00582 0.0195 0.00586c-0.00118-0.522 0.183-1.04 0.566-1.42 0.572-0.572 1.43-0.743 2.18-0.434 0.29 0.12 0.524 0.318 0.723 0.545-0.593-2.2-1.66-3.62-2.98-4.49zm-1.88 13.8c-0.712 0.744-1.62 0.98-2.54 0.994 0.251 1.49 1.06 2.82 2.24 3.74 1.55-0.38 2.97-1.22 4-2.77-0.362 0.0602-0.74 0.0292-1.09-0.117-0.747-0.31-1.23-1.04-1.23-1.85h-1.37z" style="opacity:.1"/>
 <path d="m20 23.5c0.00143 0.159 0.0156 0.359 0.0156 0.5 0 1.7-0.00971 4.85-2.48 5.75 0.873 1.42 2.06 2.28 3.38 2.75 1.22-0.951 1.97-2.23 2.41-3.54-1.67-0.23-3.16-1.45-3.29-5.44l-0.0254-0.00781-0.0137-0.00195z" style="opacity:.1"/>
 <path d="m12 13v20h4c8 0 8-8 8-10s0-10-8-10zm4 4c4 0 4 4 4 6s0 6-4 6z" style="fill:#ec2c42"/>
 <path d="m20.9 14.5c-1.32 0.475-2.5 1.33-3.38 2.75 2.47 0.899 2.48 4.04 2.48 5.75 0 0.142-0.0142 0.342-0.0156 0.502h0.0234l0.0156 0.00977c0.119-4.01 1.61-5.23 3.29-5.46-0.447-1.31-1.2-2.59-2.41-3.54z" style="opacity:.1"/>
 <path d="m20 13.9c-1.19 0.637-2.24 1.64-2.95 3.22 2.92 0.663 2.95 4.06 2.95 5.86 0-4.1 1.35-5.49 2.94-5.87-0.0507-1.56-0.0486-3.22-2.94-3.21z" style="fill:#c26ce0"/>
 <path d="m27.4 13.6c-0.579 0.285-1.12 0.66-1.59 1.13-0.653 0.653-1.13 1.43-1.42 2.27 1.38 0.512 2.37 2.28 3.66 5.98l0.0102-4.26c0.0102-0.26 0.194-0.772 0.576-1.15 0.572-0.572 1.43-0.743 2.18-0.434 0.0917 0.038 0.167 0.0984 0.25 0.148-0.0828-2.26-0.467-3.77-3.66-3.68z" style="fill:#f8c95e"/>
 <path d="m27.3 27c-1.77 0.354-2.1 1.6-2.95 1.97 0.513 1.47 1.58 2.69 3.01 3.4 2.04 0.0044 3.81-0.582 3.65-3.66-0.532 0.312-1.19 0.376-1.77 0.133-0.747-0.31-1.23-1.04-1.23-1.85z" style="fill:#f8c95e"/>
</svg>
