<svg width="48" height="48" viewBox="0 0 48 48.000001" xmlns="http://www.w3.org/2000/svg">
  <defs>
    <linearGradient id="a" x1="-47" x2="-1" gradientUnits="userSpaceOnUse">
      <stop offset="0" stop-color="#87a556"/>
      <stop offset="1" stop-color="#91ad63"/>
    </linearGradient>
  </defs>
  <path d="M1 43v.25c0 2.216 1.784 4 4 4h38c2.216 0 4-1.784 4-4V43c0 2.216-1.784 4-4 4H5c-2.216 0-4-1.784-4-4zm0 .5v.5c0 2.216 1.784 4 4 4h38c2.216 0 4-1.784 4-4v-.5c0 2.216-1.784 4-4 4H5c-2.216 0-4-1.784-4-4z" opacity=".02"/>
  <path d="M1 43.25v.25c0 2.216 1.784 4 4 4h38c2.216 0 4-1.784 4-4v-.25c0 2.216-1.784 4-4 4H5c-2.216 0-4-1.784-4-4z" opacity=".05"/>
  <path d="M1 43v.25c0 2.216 1.784 4 4 4h38c2.216 0 4-1.784 4-4V43c0 2.216-1.784 4-4 4H5c-2.216 0-4-1.784-4-4z" opacity=".1"/>
  <rect transform="rotate(-90)" x="-47" y="1" width="46" height="46" rx="4" fill="url(#a)"/>
  <path d="M1 39v4c0 2.216 1.784 4 4 4h38c2.216 0 4-1.784 4-4v-4c0 2.216-1.784 4-4 4H5c-2.216 0-4-1.784-4-4z" opacity=".1"/>
  <path d="M28 8v10l9-5zm-4 2a14 14 0 0 0-12.842 8.467l1.748.971A12 12 0 0 1 23.996 12a12 12 0 0 1 2 .182v-2.023a14 14 0 0 0-2-.158m0 5a9 9 0 0 0-8.445 5.908l1.771.984A7 7 0 0 1 23.996 17a7 7 0 0 1 2 .295v-2.059a9 9 0 0 0-2-.236m11.553 1.092l-1.77.984A12 12 0 0 1 35.996 24a12 12 0 0 1-2.211 6.928l1.752.973a14 14 0 0 0 2.459-7.9 14 14 0 0 0-2.447-7.908m-4.41 2.451l-1.77.982a7 7 0 0 1 1.627 4.475 7 7 0 0 1-1.623 4.479l1.77.982a9 9 0 0 0 1.854-5.461 9 9 0 0 0-1.857-5.457M8 19.001v10l9-5-9-5m9.332 7.104l-1.773.984A9 9 0 0 0 24 33.001a9 9 0 0 0 2-.234v-2.064a7 7 0 0 1-2 .299 7 7 0 0 1-6.668-4.896m-4.422 2.457l-1.762.979A14 14 0 0 0 24 38.003a14 14 0 0 0 2-.162v-2.01a12 12 0 0 1-2 .17 12 12 0 0 1-11.09-7.439M28 30.001v10l9-5z" opacity=".1"/>
  <path d="M28 7v10l9-5zm-4 2a14 14 0 0 0-12.842 8.467l1.748.971A12 12 0 0 1 23.996 11a12 12 0 0 1 2 .182V9.159a14 14 0 0 0-2-.158zm0 5a9 9 0 0 0-8.445 5.908l1.771.984A7 7 0 0 1 24 15.999a7 7 0 0 1 2 .295v-2.059a9 9 0 0 0-2-.236zm11.553 1.092l-1.77.984A12 12 0 0 1 36 23a12 12 0 0 1-2.211 6.928l1.752.973a14 14 0 0 0 2.459-7.9 14 14 0 0 0-2.447-7.908zm-4.41 2.451l-1.77.982A7 7 0 0 1 31 23a7 7 0 0 1-1.623 4.479l1.77.982A9 9 0 0 0 33.001 23a9 9 0 0 0-1.857-5.457zM8.003 18v10l9-5zm9.332 7.104l-1.773.984A9 9 0 0 0 24.003 32a9 9 0 0 0 2-.234v-2.064a7 7 0 0 1-2 .299 7 7 0 0 1-6.668-4.896zm-4.422 2.457l-1.762.979a14 14 0 0 0 12.852 8.461 14 14 0 0 0 2-.162v-2.01a12 12 0 0 1-2 .17 12 12 0 0 1-11.09-7.439zM28.003 29v10l9-5z" fill="#f9f9f9"/>
</svg>
