<svg width="48" height="48" version="1.1" viewBox="0 0 48 48.000001" xmlns="http://www.w3.org/2000/svg">
 <defs>
  <linearGradient id="linearGradient4501" x1="-47" x2="-1" y1="2.8779e-15" y2="6.1232e-17" gradientUnits="userSpaceOnUse">
   <stop style="stop-color:#e4e4e4" offset="0"/>
   <stop style="stop-color:#eee" offset="1"/>
  </linearGradient>
 </defs>
 <g transform="translate(0 3.949e-5)">
  <path d="m1 43v0.25c0 2.216 1.784 4 4 4h38c2.216 0 4-1.784 4-4v-0.25c0 2.216-1.784 4-4 4h-38c-2.216 0-4-1.784-4-4zm0 0.5v0.5c0 2.216 1.784 4 4 4h38c2.216 0 4-1.784 4-4v-0.5c0 2.216-1.784 4-4 4h-38c-2.216 0-4-1.784-4-4z" style="opacity:.02"/>
  <path d="m1 43.25v0.25c0 2.216 1.784 4 4 4h38c2.216 0 4-1.784 4-4v-0.25c0 2.216-1.784 4-4 4h-38c-2.216 0-4-1.784-4-4z" style="opacity:.05"/>
  <path d="m1 43v0.25c0 2.216 1.784 4 4 4h38c2.216 0 4-1.784 4-4v-0.25c0 2.216-1.784 4-4 4h-38c-2.216 0-4-1.784-4-4z" style="opacity:.1"/>
 </g>
 <rect transform="rotate(-90)" x="-47" y="1" width="46" height="46" rx="4" style="fill:url(#linearGradient4501)"/>
 <g transform="translate(0 3.949e-5)">
  <g transform="translate(0 -1004.4)">
   <path d="m1 1043.4v4c0 2.216 1.784 4 4 4h38c2.216 0 4-1.784 4-4v-4c0 2.216-1.784 4-4 4h-38c-2.216 0-4-1.784-4-4z" style="opacity:.1"/>
  </g>
 </g>
 <path d="m31.428 13c-4.643 0-9.286 3-13 3-1.763 0-3.175-0.498-4.428-1l3 6c0.834 0.189 1.843 0.357 3.285 0.357 4.643 0 9.215-5.782 15.715-4.357-1.857-1.437-6.344-2.048-11 0 2.584-1.662 7.563-3.58 12-3-1.714-1-3.114-1-5.572-1zm-19.521 2e-3c-0.122 6e-3 -0.243 0.034-0.359 0.09l-0.023 0.012c-0.466 0.222-0.656 0.772-0.426 1.234l12.03 24.14c0.23 0.462 0.792 0.656 1.258 0.434l0.023-0.012c0.466-0.222 0.654-0.774 0.424-1.236l-12.03-24.13c-0.173-0.347-0.531-0.541-0.896-0.523z" style="opacity:.1"/>
 <rect transform="matrix(.90248 -.43073 .44608 .89499 0 0)" x="3.983" y="15.888" width="1.889" height="28.832" rx=".932" ry=".932" style="fill:#777"/>
 <path d="m31.429 12c-4.643 0-9.286 3-13 3-1.763 0-3.176-0.498-4.429-1l3 6c0.834 0.189 1.844 0.357 3.286 0.357 4.643 0 9.214-5.782 15.714-4.357-1.857-1.437-6.344-2.048-11 0 2.584-1.662 7.563-3.58 12-3-1.714-1-3.113-1-5.571-1z" style="fill:#f26711"/>
</svg>
