<svg width="48" height="48" viewBox="0 0 48 48.000001" xmlns="http://www.w3.org/2000/svg">
  <defs>
    <linearGradient id="a" x1="-47" x2="-1" gradientUnits="userSpaceOnUse">
      <stop offset="0" stop-color="#e4c6ac"/>
      <stop offset="1" stop-color="#e9d0bb"/>
    </linearGradient>
  </defs>
  <path d="M1 43v.25c0 2.216 1.784 4 4 4h38c2.216 0 4-1.784 4-4V43c0 2.216-1.784 4-4 4H5c-2.216 0-4-1.784-4-4zm0 .5v.5c0 2.216 1.784 4 4 4h38c2.216 0 4-1.784 4-4v-.5c0 2.216-1.784 4-4 4H5c-2.216 0-4-1.784-4-4z" opacity=".02"/>
  <path d="M1 43.25v.25c0 2.216 1.784 4 4 4h38c2.216 0 4-1.784 4-4v-.25c0 2.216-1.784 4-4 4H5c-2.216 0-4-1.784-4-4z" opacity=".05"/>
  <path d="M1 43v.25c0 2.216 1.784 4 4 4h38c2.216 0 4-1.784 4-4V43c0 2.216-1.784 4-4 4H5c-2.216 0-4-1.784-4-4z" opacity=".1"/>
  <rect transform="rotate(-90)" x="-47" y="1" width="46" height="46" rx="4" fill="url(#a)"/>
  <path d="M1 39v4c0 2.216 1.784 4 4 4h38c2.216 0 4-1.784 4-4v-4c0 2.216-1.784 4-4 4H5c-2.216 0-4-1.784-4-4z" opacity=".1"/>
  <path d="M30.13 12c-2.503.038-5 1.973-5.103 4.625-.084 2.232 1.721 4.667 4.09 4.325 1.884-.272 3.534-2.426 2.601-4.241-.922-1.794-1.303.545-1.406 1.602-.152 1.552-2.913 1.15-3.296-.325-.513-1.974 1.354-3.913 3.35-3.688 1.569.177 2.953 1.473 2.812 3.128-.273 3.203-4.1 5.666-7.05 4.263-1.281-.61-1.911-1.908-2.603-3.065-2.157-3.608-7.512-4.984-11.01-2.5-2.331 1.656-3.164 5.126-1.998 7.691 1.313 2.886 5.668 3.738 7.983 1.42 1.487-1.488 1.715-4.259-.143-5.548-1.458-1.012-3.927-.815-4.52.989-.502 1.527 1.307.632 2.046.108 1.242-.88 2.836 1.389 2.02 2.603-1.211 1.793-4.393 1.306-5.163-.726-.709-1.87.249-4.338 2.368-4.678 3.082-.495 6.3 2.392 5.699 5.551-.485 2.548-2.029 4.887-1.746 7.58.355 3.373 2.949 6.694 6.469 6.879 2.803.147 5.644-1.982 5.923-4.9.251-2.631-1.601-5.524-4.372-5.637-2.175-.089-4.209 2.062-3.575 4.265.404 1.406 2.218 3.12 3.408 2.035 1.291-1.178-1.968-1.077-1.822-2.774.156-1.818 2.236-2.439 3.342-1.087 1.204 1.472.978 3.737-.532 4.885-1.393 1.06-3.385.579-4.397-.754-1.679-2.209-1.497-5.694.761-7.47 1.158-.912 2.6-.622 3.923-.757 3.525-.359 7.096-2.894 7.72-6.56.5-2.935-1.124-6.319-4.143-7.06a6.47 6.47 0 0 0-1.635-.178z" style="isolation:auto;mix-blend-mode:normal" color="#000" opacity=".1" white-space="normal"/>
  <path d="M30.13 11c-2.503.038-5 1.973-5.103 4.625-.084 2.232 1.721 4.667 4.09 4.325 1.884-.272 3.534-2.426 2.601-4.241-.922-1.794-1.303.545-1.406 1.602-.152 1.552-2.913 1.15-3.296-.325-.513-1.974 1.354-3.913 3.35-3.688 1.569.177 2.953 1.473 2.812 3.128-.273 3.203-4.1 5.666-7.05 4.263-1.281-.61-1.911-1.908-2.603-3.065-2.157-3.608-7.512-4.984-11.01-2.5-2.331 1.656-3.164 5.126-1.998 7.691 1.313 2.886 5.668 3.738 7.983 1.42 1.487-1.488 1.715-4.259-.143-5.548-1.458-1.012-3.927-.815-4.52.989-.502 1.527 1.307.632 2.046.108 1.242-.88 2.836 1.389 2.02 2.603-1.211 1.793-4.393 1.306-5.163-.726-.709-1.87.249-4.338 2.368-4.678 3.082-.495 6.3 2.392 5.699 5.551-.485 2.548-2.029 4.887-1.746 7.58.355 3.373 2.949 6.694 6.469 6.879 2.803.147 5.644-1.982 5.923-4.9.251-2.631-1.601-5.524-4.372-5.637-2.175-.089-4.209 2.062-3.575 4.265.404 1.406 2.218 3.12 3.408 2.035 1.291-1.178-1.968-1.077-1.822-2.774.156-1.818 2.236-2.439 3.342-1.087 1.204 1.472.978 3.737-.532 4.885-1.393 1.06-3.385.579-4.397-.754-1.679-2.209-1.497-5.694.761-7.47 1.158-.912 2.6-.622 3.923-.757 3.525-.359 7.096-2.894 7.72-6.56.5-2.935-1.124-6.319-4.143-7.06a6.47 6.47 0 0 0-1.635-.178z" style="isolation:auto;mix-blend-mode:normal" color="#000" fill="#267bda" white-space="normal"/>
</svg>
