<svg width="48" height="48" version="1.1" viewBox="0 0 48 48" xmlns="http://www.w3.org/2000/svg">
 <defs>
  <linearGradient id="linearGradient4501" x1="-47" x2="-1" y1="2.8779e-15" y2="6.1232e-17" gradientUnits="userSpaceOnUse">
   <stop style="stop-color:#223644" offset="0"/>
   <stop style="stop-color:#2a4051" offset="1"/>
  </linearGradient>
 </defs>
 <g transform="translate(0 3.949e-5)">
  <path d="m1 43v0.25c0 2.216 1.784 4 4 4h38c2.216 0 4-1.784 4-4v-0.25c0 2.216-1.784 4-4 4h-38c-2.216 0-4-1.784-4-4zm0 0.5v0.5c0 2.216 1.784 4 4 4h38c2.216 0 4-1.784 4-4v-0.5c0 2.216-1.784 4-4 4h-38c-2.216 0-4-1.784-4-4z" style="opacity:.02"/>
  <path d="m1 43.25v0.25c0 2.216 1.784 4 4 4h38c2.216 0 4-1.784 4-4v-0.25c0 2.216-1.784 4-4 4h-38c-2.216 0-4-1.784-4-4z" style="opacity:.05"/>
  <path d="m1 43v0.25c0 2.216 1.784 4 4 4h38c2.216 0 4-1.784 4-4v-0.25c0 2.216-1.784 4-4 4h-38c-2.216 0-4-1.784-4-4z" style="opacity:.1"/>
 </g>
 <rect transform="rotate(-90)" x="-47" y="1" width="46" height="46" rx="4" style="fill:url(#linearGradient4501)"/>
 <g transform="translate(0 3.949e-5)">
  <g transform="translate(0 -1004.4)">
   <path d="m1 1043.4v4c0 2.216 1.784 4 4 4h38c2.216 0 4-1.784 4-4v-4c0 2.216-1.784 4-4 4h-38c-2.216 0-4-1.784-4-4z" style="opacity:.1"/>
  </g>
 </g>
 <path d="m20 11c-1.4909 0.48044-3 2-3 4 0 1.5835 0.76255 2.7082 3 4 0.0026 0 0.0052-0.0019 0.0078-2e-3 -0.0062 0.34034-0.0078 0.67868-0.0078 1.002 0 1 2 3 2 4s-1 1-1 4c0 4-3 4.5036-5 5s-5 0-5 2c0 1 1 2 3 2h4l-3-2-1 1c-1 0-2 0-2-1 0-0.75978 1.4902-0.6391 3.0156-0.80859s4.9844-0.19141 6.9844-3.1914c0 1-1 3-1 3v1c4.6328 1.2999 8.3285 1.9298 10 0 0.79211 0.19158 1.9013 0.35234 3-0.3125v-0.6875c-0.11412-0.64645-3-1-3-1h-3c-1 0 0-2 0-2l-0.01758-0.0078c0.6273-0.41267 1.0176-1.0559 1.0176-1.9922 0-3-2-4-2-5s0.27155-0.71878 3-2c2-1 1-3 0-4 0-0.67458-0.12932-1.4604-0.43359-2.209 1.4285-2.4019-0.90536-3.832-2.5664-4.791 0.82874 0.82874 0.95888 1.5796 0.3457 2.4492-0.63492-0.27989-1.4049-0.44922-2.3457-0.44922-2.0576 0-3.2601 0.68309-3.9727 1.6895-1.3277-0.4322-2.0273-0.77226-2.0273-1.6895 0-1.1257 1-2 1-2z" style="opacity:.1"/>
 <g transform="rotate(-90,23.5,23.5)" style="fill:#501616">
  <path d="m37 27c-1.1094 1.9215-2.8457 4.7521-5.9923 1.6056 0-0.60562 2.3803-2.3342 2.9889-1.7256 1.12 1.12 2.0034 1.12 3.0034 0.12z" style="fill:#bd281b"/>
  <path d="m14 21h-1c-1.2999 4.6328-1.9298 8.3285 0 10-0.19158 0.79211-0.35234 1.9013 0.3125 3h0.6875c0.64645-0.11412 1-3 1-3v-1l-0.40487-3z" style="fill:#e1d7c6"/>
  <path d="m17 22c-1 0-3-1-3-1-1.1837 3.3399-1 5-1 5 1 0 2.261 2.368 1 4 1 0 1 1 1 1v-3c0-1 2 0 2 0l1.2522-2.8425z" style="fill:#0d8f31"/>
  <path d="m13 11c2 0 1.5036 3 2 5s1 5 5 5c3 0 3 1 4 1s3-2 4-2c3 0 7 0 7 5 0 4-3 5-5 5-1 1-3 2-4 0-1.2812-2.7284-1-3-2-3s-2 2-5 2-3-4-2-7c-3-2-3.0225-5.459-3.192-6.9844s-0.048245-3.0156-0.80802-3.0156c-1 0-1 1-1 2l1 1-2 3v-4c0-2 1-3 2-3z" style="fill:#df3021"/>
  <path d="m33 22c0.62964-2 0.87429-3 2-3 1.1257 0 2 1 2 1-0.48044-1.4909-2-3-4-3-1.5835 0-2.7082 0.76255-4 3 0 1 3 2.6328 4 2z" style="fill:#bd281b"/>
 </g>
</svg>
