<svg width="48" height="48" version="1.1" viewBox="0 0 48 48.000001" xmlns="http://www.w3.org/2000/svg">
 <defs>
  <linearGradient id="linearGradient4501" x1="-47" x2="-1" y1="2.8779e-15" y2="6.1232e-17" gradientUnits="userSpaceOnUse">
   <stop style="stop-color:#e4e4e4" offset="0"/>
   <stop style="stop-color:#eee" offset="1"/>
  </linearGradient>
 </defs>
 <g transform="translate(0 3.949e-5)">
  <path d="m1 43v0.25c0 2.216 1.784 4 4 4h38c2.216 0 4-1.784 4-4v-0.25c0 2.216-1.784 4-4 4h-38c-2.216 0-4-1.784-4-4zm0 0.5v0.5c0 2.216 1.784 4 4 4h38c2.216 0 4-1.784 4-4v-0.5c0 2.216-1.784 4-4 4h-38c-2.216 0-4-1.784-4-4z" style="opacity:.02"/>
  <path d="m1 43.25v0.25c0 2.216 1.784 4 4 4h38c2.216 0 4-1.784 4-4v-0.25c0 2.216-1.784 4-4 4h-38c-2.216 0-4-1.784-4-4z" style="opacity:.05"/>
  <path d="m1 43v0.25c0 2.216 1.784 4 4 4h38c2.216 0 4-1.784 4-4v-0.25c0 2.216-1.784 4-4 4h-38c-2.216 0-4-1.784-4-4z" style="opacity:.1"/>
 </g>
 <rect transform="rotate(-90)" x="-47" y="1" width="46" height="46" rx="4" style="fill:url(#linearGradient4501)"/>
 <g transform="translate(0 3.949e-5)">
  <g transform="translate(0 -1004.4)">
   <path d="m1 1043.4v4c0 2.216 1.784 4 4 4h38c2.216 0 4-1.784 4-4v-4c0 2.216-1.784 4-4 4h-38c-2.216 0-4-1.784-4-4z" style="opacity:.1"/>
  </g>
 </g>
 <g transform="rotate(45 25.208 23.5)">
  <path d="m13.707 13.707v5.03l1.808-1.808 5.778 5.778h1.414v-1.414l-5.778-5.778 1.808-1.808zm-4.556 11 3.556 3.556v-2.555l8.172-1e-3 1-1-1-1-8.172-1e-3v-2.555zm4.556-4.556v2.555l6.172 1e-3 -4.364-4.364zm4.636-4.636 4.364 4.364-1e-3 -6.172h-2.555zm2.808-2.808h2.555l1e-3 8.172 1 1 1-1 1e-3 -8.172h2.555l-3.556-3.556zm-7.444 14v2.555l1.808 1.808 4.364-4.364zm13-13-1e-3 6.172 4.364-4.364-1.808-1.808zm-13 16.971v5.03h5.03l-1.808-1.808 5.778-5.778v-1.414h-1.414l-5.778 5.778zm16.971-16.971 1.808 1.808-5.778 5.778v1.414h1.414l5.778-5.778 1.808 1.808v-5.03zm-12.334 20.19 1.808 1.808h2.555l1e-3 -6.172zm5.364-5.364-1e-3 8.172h-2.555l3.556 3.556 3.556-3.556h-2.555l-1e-3 -8.172-1-1zm3.828-3.828 1 1 8.172 1e-3v2.555l3.556-3.556-3.556-3.556v2.555l-8.172 1e-3zm2-2 6.172-1e-3v-2.555l-1.808-1.808zm-2.828 4v1.414l5.778 5.778-1.808 1.808h5.03v-5.03l-1.808 1.808-5.778-5.778zm0 2.828 1e-3 6.172h2.555l1.808-1.808zm2.828-2.828 4.364 4.364 1.808-1.808v-2.555z" style="opacity:.1"/>
  <path transform="rotate(-45,24,24)" d="m24 8.443-3.557 3.557h2.557v8.172l1 1 1-1v-8.172h2.557z" style="fill:#efa724"/>
  <path transform="rotate(-45,24,24)" d="m36 20.443v2.557h-8.172l-1 1 1 1h8.172v2.557l3.557-3.557" style="fill:#262577"/>
  <path transform="rotate(-45,24,24)" d="m24 26.828-1 1v8.172h-2.557l3.557 3.557 3.557-3.557h-2.557v-8.172" style="fill:#9ccd2a"/>
  <path transform="rotate(-45,24,24)" d="M 12,20.443 8.443,24 12,27.557 V 25 h 8.172 l 1,-1 -1,-1 H 12" style="fill:#932279"/>
 </g>
 <path d="m26 25v1.414l5.777 5.779-1.807 1.807h5.03v-5.03l-1.807 1.807-5.779-5.777zm2.828 0 4.365 4.363 1.807-1.807v-2.557h-6.172zm-2.828 2.828v6.172h2.557l1.807-1.807-4.363-4.365z" style="fill:#efa724"/>
 <path d="m13 25v2.557l1.807 1.807 4.365-4.363h-6.172zm7.586 0-5.779 5.777-1.807-1.807v5.03h5.03l-1.807-1.807 5.777-5.779v-1.414zm1.414 2.828-4.363 4.365 1.807 1.807h2.557v-6.172z" style="fill:#262577"/>
 <path d="m26 12v6.172l4.363-4.365-1.807-1.807h-2.557zm3.971 0 1.807 1.807-5.777 5.779v1.414h1.414l5.779-5.777 1.807 1.807v-5.03zm3.223 4.637-4.365 4.363h6.172v-2.557l-1.807-1.807z" style="fill:#932279"/>
 <path d="m13 12v5.03l1.807-1.807 5.779 5.777h1.414v-1.414l-5.777-5.779 1.807-1.807zm6.443 0-1.807 1.807 4.363 4.365v-6.172h-2.557zm-4.637 4.637-1.807 1.807v2.557h6.172l-4.365-4.363z" style="fill:#9ccd2a"/>
</svg>
