<svg version="1.1" viewBox="0 0 48 48" xmlns="http://www.w3.org/2000/svg">
 <defs>
  <linearGradient id="bg" x2="0" y1="1" y2="47" gradientUnits="userSpaceOnUse">
   <stop style="stop-color:#29526d" offset="0"/>
   <stop style="stop-color:#24475e" offset="1"/>
  </linearGradient>
 </defs>
 <path d="m1 43v0.25c0 2.216 1.784 4 4 4h38c2.216 0 4-1.784 4-4v-0.25c0 2.216-1.784 4-4 4h-38c-2.216 0-4-1.784-4-4zm0 0.5v0.5c0 2.216 1.784 4 4 4h38c2.216 0 4-1.784 4-4v-0.5c0 2.216-1.784 4-4 4h-38c-2.216 0-4-1.784-4-4z" style="opacity:.02"/>
 <path d="m1 43.25v0.25c0 2.216 1.784 4 4 4h38c2.216 0 4-1.784 4-4v-0.25c0 2.216-1.784 4-4 4h-38c-2.216 0-4-1.784-4-4z" style="opacity:.05"/>
 <path d="m1 43v0.25c0 2.216 1.784 4 4 4h38c2.216 0 4-1.784 4-4v-0.25c0 2.216-1.784 4-4 4h-38c-2.216 0-4-1.784-4-4z" style="opacity:.1"/>
 <rect x="1" y="1" width="46" height="46" rx="4" style="fill:url(#bg)"/>
 <path d="m1 39v4c0 2.216 1.784 4 4 4h38c2.216 0 4-1.784 4-4v-4c0 2.216-1.784 4-4 4h-38c-2.216 0-4-1.784-4-4z" style="opacity:.1"/>
 <path d="m22 14c-1.108 0-2 0.892-2 2v2h-3c-1-0.65996-3-2-5-2-0.60382 0-1 0.49195-1 1 0 2 1 3.5784 2 5v8c0 2.216 1.784 4 4 4h14c2.216 0 4-1.784 4-4v-8c1-1.4216 2-3 2-5 0-0.50805-0.39618-1-1-1-2 0-4 1.34-5 2h-3v-2c0-1.108-0.892-2-2-2zm1 2h2c0.554 0 1 0.446 1 1v1h-4v-1c0-0.554 0.446-1 1-1z" style="opacity:.1"/>
 <path d="m22 13c-1.108 0-2 0.892-2 2v2h-3c-1-0.65996-3-2-5-2-0.60382 0-1 0.49195-1 1 0 2 1 3.5784 2 5v8c0 2.216 1.784 4 4 4h14c2.216 0 4-1.784 4-4v-8c1-1.4216 2-3 2-5 0-0.50805-0.39618-1-1-1-2 0-4 1.34-5 2h-3v-2c0-1.108-0.892-2-2-2zm1 2h2c0.554 0 1 0.446 1 1v1h-4v-1c0-0.554 0.446-1 1-1z" style="fill:#247acc"/>
 <path d="m18 17v16h1v-16zm11 0v16h1v-16z" style="fill:#24517c"/>
</svg>
