<svg version="1.1" viewBox="0 0 48 48" xmlns="http://www.w3.org/2000/svg">
 <defs>
  <linearGradient id="bg" x2="0" y1="1" y2="47" gradientUnits="userSpaceOnUse">
   <stop style="stop-color:#eec614" offset="0"/>
   <stop style="stop-color:#deb810" offset="1"/>
  </linearGradient>
 </defs>
 <path d="m1 43v0.25c0 2.216 1.784 4 4 4h38c2.216 0 4-1.784 4-4v-0.25c0 2.216-1.784 4-4 4h-38c-2.216 0-4-1.784-4-4zm0 0.5v0.5c0 2.216 1.784 4 4 4h38c2.216 0 4-1.784 4-4v-0.5c0 2.216-1.784 4-4 4h-38c-2.216 0-4-1.784-4-4z" style="opacity:.02"/>
 <path d="m1 43.25v0.25c0 2.216 1.784 4 4 4h38c2.216 0 4-1.784 4-4v-0.25c0 2.216-1.784 4-4 4h-38c-2.216 0-4-1.784-4-4z" style="opacity:.05"/>
 <path d="m1 43v0.25c0 2.216 1.784 4 4 4h38c2.216 0 4-1.784 4-4v-0.25c0 2.216-1.784 4-4 4h-38c-2.216 0-4-1.784-4-4z" style="opacity:.1"/>
 <rect x="1" y="1" width="46" height="46" rx="4" style="fill:url(#bg)"/>
 <path d="m31 11c-1 0-2 1-2 1l-4 1 4 1-3.4844 5.2266c-1.258-0.5632-3.2084-1.2266-5.5156-1.2266-2.6034 0-5 3-5 6v11l-2 2h9v-3l0.14258-1h1.8574v2l-1 2h3s0.57688-0.58074 0.85352-1.2988c0.033505 0.066689 0.14648 0.29883 0.14648 0.29883l-1 1h9s-2-1-2-3c0-4 2-5 2-8 0-4-2-8-2-10v-3c0-1-1.0572-2-2-2zm-7 15 0.0332 0.09961c-0.016939 0.30476-0.0332 0.60984-0.0332 0.90039 0 0.88136 0.2439 1.9713 0.58008 3.084-0.57122 0.23454-0.58008 0.91602-0.58008 0.91602l-1.834 1.834 0.83398-5.834z" style="opacity:.1"/>
 <path d="m1 39v4c0 2.216 1.784 4 4 4h38c2.216 0 4-1.784 4-4v-4c0 2.216-1.784 4-4 4h-38c-2.216 0-4-1.784-4-4z" style="opacity:.1"/>
 <path d="m25 12h4v5l-2 9 1 7 1 3h6s-2-1-2-3c0-4 2-5 2-8 0-4-2-8-2-10v-3c0-1-1.0572-2-2-2-1 0-2 1-2 1z" style="fill:#3d3d3d"/>
 <path d="m25 12 4 1 1-1zm4 1v5s3.1181-2.3375 3-4c-0.03342-0.47022-0.5286-1-1-1s-0.5286 1-1 1-1-1-1-1z" style="fill:#eb7918"/>
 <path d="m29 36s2-4 2-7c0-1-1-1-1-1s0 1-1 1-1-2-1-3c0-2 2-4.5733 2-7 0-3-1-6-1-6l-4 6s-1 4-1 7c0 3.1623 3 9 3 9l-1 1z" style="fill:#f9f9f9"/>
 <path d="m25 19s-1 4-1 7l1 3 1-3s2-1 2-2c0-3-1-4-1-4s-0.75-0.5-2-1zm0 11c-0.046579 0-0.080706 0.011488-0.12305 0.015625 0.88577 2.5667 2.123 4.9844 2.123 4.9844 0-1-1-3-1-3v-1s0-1-1-1zm2 5-1 1h0.70117c0.16169-0.30943 0.29883-0.64633 0.29883-1z" style="opacity:.1"/>
 <path d="m13 36 2-2v-11c0-3 2.3966-6 5-6 4 0 7 2 7 2s1 1 1 4c0 1-2 2-2 2l-1 3v-3h-2l-3 7-2 4z" style="fill:#3d3d3d"/>
 <path d="m26 20c-0.74536 0-1.2746 0.82875-2 1-0.97325 0.22975-3 0-3 0l3 2s0.56448-0.8196 1-1c0.30796-0.12756 0.66667 0 1 0 1 0 1-2 0-2zm-1 4-1 1 1 3z" style="fill:#eb7918"/>
 <path d="m18 36v-5s0 1 1 1 1-3.3003 1-5c0-3 1-6 1-6s3 0 3 1v3l-1 1-1 7v3z" style="fill:#f9f9f9"/>
 <path d="m25 29c-1 0-1 1.0004-1 1.0004l-2 2h2l1 1-1 1-1 2h3s1-1 1-2-1-3-1-3v-1s0-1.0004-1-1.0004z" style="fill:#3d3d3d"/>
 <path d="m24 32 1-1h-1v-1h2l-1 2 1 3h-1l-1-1z" style="fill:#f9f9f9"/>
</svg>
