<?xml version="1.0" encoding="UTF-8"?>
<svg version="1.1" viewBox="0 0 48 48" xmlns="http://www.w3.org/2000/svg">
 <defs>
  <linearGradient id="bg" x1="-47" x2="-1" y1="0" y2="0" gradientUnits="userSpaceOnUse">
   <stop style="stop-color:#e1e1e1" offset="0"/>
   <stop style="stop-color:#ebebeb" offset="1"/>
  </linearGradient>
 </defs>
 <path d="m1 43v0.25c0 2.22 1.78 4 4 4h38c2.22 0 4-1.78 4-4v-0.25c0 2.22-1.78 4-4 4h-38c-2.22 0-4-1.78-4-4zm0 0.5v0.5c0 2.22 1.78 4 4 4h38c2.22 0 4-1.78 4-4v-0.5c0 2.22-1.78 4-4 4h-38c-2.22 0-4-1.78-4-4z" style="opacity:.02"/>
 <path d="m1 43.3v0.25c0 2.22 1.78 4 4 4h38c2.22 0 4-1.78 4-4v-0.25c0 2.22-1.78 4-4 4h-38c-2.22 0-4-1.78-4-4z" style="opacity:.05"/>
 <path d="m1 43v0.25c0 2.22 1.78 4 4 4h38c2.22 0 4-1.78 4-4v-0.25c0 2.22-1.78 4-4 4h-38c-2.22 0-4-1.78-4-4z" style="opacity:.1"/>
 <rect transform="rotate(-90)" x="-47" y="1" width="46" height="46" rx="4" style="fill:url(#bg)"/>
 <path d="m24 9c-8.28 0-15 6.72-15 15s6.72 15 15 15 15-6.72 15-15-6.72-15-15-15zm0 1.25c6.3 0 11.6 4.24 13.2 10-1.4 2.89-3.4 5.5-5.83 7.6-1.17 1.01-2.44 1.91-3.85 2.55-1.41 0.635-2.96 0.995-4.5 0.906-1.16-0.0664-2.3-0.389-3.32-0.952 2.69-1.46 5.11-3.4 7.1-5.72 1.3-1.53 2.44-3.26 2.88-5.22 0.22-0.979 0.257-2 0.0516-2.99-0.205-0.982-0.659-1.92-1.35-2.65-0.672-0.714-1.55-1.22-2.5-1.48-0.945-0.261-1.95-0.281-2.92-0.105-1.93 0.352-3.65 1.47-5.03 2.87-2.43 2.45-3.94 5.92-3.66 9.36 0.138 1.72 0.715 3.42 1.7 4.83 0.221 0.316 0.464 0.618 0.723 0.903-1.44 0.504-2.93 0.863-4.45 1.07-1.3-2.1-2.05-4.57-2.05-7.22 0-7.59 6.16-13.8 13.8-13.8zm0.0875 2.78c0.967 0.0013 1.94 0.294 2.71 0.877 0.695 0.525 1.21 1.27 1.5 2.09 0.292 0.82 0.367 1.71 0.267 2.58-0.199 1.73-1.07 3.32-2.13 4.7-1.87 2.45-4.35 4.42-7.11 5.79-0.283 0.141-0.57 0.275-0.858 0.403-0.6-0.526-1.12-1.15-1.51-1.84-0.82-1.45-1.09-3.18-0.931-4.84s0.729-3.26 1.49-4.74c0.887-1.72 2.1-3.34 3.79-4.28 0.846-0.467 1.8-0.748 2.77-0.747zm13.5 9.13c0.0806 0.602 0.123 1.22 0.123 1.84 0 7.59-6.16 13.8-13.8 13.8-4.26 0-8.08-1.94-10.6-4.99 1.56-0.354 3.08-0.861 4.54-1.51 0.638 0.486 1.34 0.885 2.09 1.17 2.16 0.827 4.61 0.708 6.79-0.0484 2.18-0.756 4.12-2.11 5.81-3.69 2.01-1.88 3.71-4.1 5-6.53z" style="opacity:.1"/>
 <path d="m1 39v4c0 2.22 1.78 4 4 4h38c2.22 0 4-1.78 4-4v-4c0 2.22-1.78 4-4 4h-38c-2.22 0-4-1.78-4-4z" style="opacity:.1"/>
 <path d="m24 8c-8.28 0-15 6.72-15 15s6.72 15 15 15 15-6.72 15-15-6.72-15-15-15zm0 1.25c6.3 0 11.6 4.24 13.2 10-1.4 2.89-3.4 5.5-5.83 7.6-1.17 1.01-2.44 1.91-3.85 2.55-1.41 0.635-2.96 0.995-4.5 0.906-1.16-0.0664-2.3-0.389-3.32-0.952 2.69-1.46 5.11-3.4 7.1-5.72 1.3-1.53 2.44-3.26 2.88-5.22 0.22-0.979 0.257-2 0.0516-2.99-0.205-0.982-0.659-1.92-1.35-2.65-0.672-0.714-1.55-1.22-2.5-1.48-0.945-0.261-1.95-0.281-2.92-0.105-1.93 0.352-3.65 1.47-5.03 2.87-2.43 2.45-3.94 5.92-3.66 9.36 0.138 1.72 0.715 3.42 1.7 4.83 0.221 0.316 0.464 0.618 0.723 0.903-1.44 0.504-2.93 0.863-4.45 1.07-1.3-2.1-2.05-4.57-2.05-7.22 0-7.59 6.16-13.8 13.8-13.8zm0.0875 2.78c0.967 0.0013 1.94 0.294 2.71 0.877 0.695 0.525 1.21 1.27 1.5 2.09 0.292 0.82 0.367 1.71 0.267 2.58-0.199 1.73-1.07 3.32-2.13 4.7-1.87 2.45-4.35 4.42-7.11 5.79-0.283 0.141-0.57 0.275-0.858 0.403-0.6-0.526-1.12-1.15-1.51-1.84-0.82-1.45-1.09-3.18-0.931-4.84s0.729-3.26 1.49-4.74c0.887-1.72 2.1-3.34 3.79-4.28 0.846-0.467 1.8-0.748 2.77-0.747zm13.5 9.13c0.0806 0.602 0.123 1.22 0.123 1.84 0 7.59-6.16 13.8-13.8 13.8-4.26 0-8.08-1.94-10.6-4.99 1.56-0.354 3.08-0.861 4.54-1.51 0.638 0.486 1.34 0.885 2.09 1.17 2.16 0.827 4.61 0.708 6.79-0.0484 2.18-0.756 4.12-2.11 5.81-3.69 2.01-1.88 3.71-4.1 5-6.53z" style="fill:#4d4d4d"/>
</svg>
