<svg version="1.1" viewBox="0 0 48 48" xmlns="http://www.w3.org/2000/svg">
 <defs>
  <linearGradient id="bg" x2="0" y1="1" y2="47" gradientUnits="userSpaceOnUse">
   <stop style="stop-color:#3b365e" offset="0"/>
   <stop style="stop-color:#322e51" offset="1"/>
  </linearGradient>
 </defs>
 <path d="m1 43v0.25c0 2.22 1.78 4 4 4h38c2.22 0 4-1.78 4-4v-0.25c0 2.22-1.78 4-4 4h-38c-2.22 0-4-1.78-4-4zm0 0.5v0.5c0 2.22 1.78 4 4 4h38c2.22 0 4-1.78 4-4v-0.5c0 2.22-1.78 4-4 4h-38c-2.22 0-4-1.78-4-4z" style="opacity:.02"/>
 <path d="m1 43.2v0.25c0 2.22 1.78 4 4 4h38c2.22 0 4-1.78 4-4v-0.25c0 2.22-1.78 4-4 4h-38c-2.22 0-4-1.78-4-4z" style="opacity:.05"/>
 <path d="m1 43v0.25c0 2.22 1.78 4 4 4h38c2.22 0 4-1.78 4-4v-0.25c0 2.22-1.78 4-4 4h-38c-2.22 0-4-1.78-4-4z" style="opacity:.1"/>
 <rect x="1" y="1" width="46" height="46" rx="4" style="fill:url(#bg)"/>
 <path d="m1 39v4c0 2.22 1.78 4 4 4h38c2.22 0 4-1.78 4-4v-4c0 2.22-1.78 4-4 4h-38c-2.22 0-4-1.78-4-4z" style="opacity:.1"/>
 <path d="m24 12c-5.52 0-10 4.48-10 10 4.77e-4 1.16 0.209 2.32 0.609 3.41-0.0699-0.468-0.109-0.941-0.109-1.41-0.0027-5.52 4.48-10 10-10 4.28 0 7.7 2.48 8.8 5 0.223 0.51 0.235 1 0.199 1.5 0 0 0.5-0.5 0.5-1.5 0-3.53-5.84-7-10-7zm9.5 8.5s-0.814 8e-3 -2-0.5c-0.834-0.358-1.5-1-4-1-5.52 0-8.5 5.35-8.5 10 0 6 3 8 5 9-2-2-3-4.49-3-8 0-4.65 3-10 7-10 2 0 3 1 4 1s1.5-0.5 1.5-0.5zc-0.888-3.08-5.06-4.5-7.5-4.5-6 0-10 4.48-10 10 0 2.47 0.482 5 2 6-0.442-1-1-2-1-5 0-4 3.34-9 9-9 4 0 6.3 1 7.5 2.5z" style="opacity:.1"/>
 <path d="m24 11c-5.52 0-10 4.48-10 10 4.77e-4 1.16 0.209 2.32 0.609 3.41-0.0699-0.468-0.109-0.941-0.109-1.41-0.0027-5.52 4.48-10 10-10 4.28 0 7.7 2.48 8.8 5 0.223 0.51 0.235 1 0.199 1.5 0 0 0.5-0.5 0.5-1.5 0-3.53-5.84-7-10-7zm9.5 8.5s-0.814 8e-3 -2-0.5c-0.834-0.358-1.5-1-4-1-5.52 0-8.5 5.35-8.5 10 0 6 3 8 5 9-2-2-3-4.49-3-8 0-4.65 3-10 7-10 2 0 3 1 4 1s1.5-0.5 1.5-0.5zc-0.888-3.08-5.06-4.5-7.5-4.5-6 0-10 4.48-10 10 0 2.47 0.482 5 2 6-0.442-1-1-2-1-5 0-4 3.34-9 9-9 4 0 6.3 1 7.5 2.5z" style="fill:#8379f6"/>
</svg>
