<svg version="1.1" viewBox="0 0 48 48" xmlns="http://www.w3.org/2000/svg">
 <defs>
  <linearGradient id="bg" x2="0" y1="1" y2="47" gradientUnits="userSpaceOnUse">
   <stop style="stop-color:#6f99a9" offset="0"/>
   <stop style="stop-color:#6290a2" offset="1"/>
  </linearGradient>
 </defs>
 <path d="m1 43v0.25c0 2.216 1.784 4 4 4h38c2.216 0 4-1.784 4-4v-0.25c0 2.216-1.784 4-4 4h-38c-2.216 0-4-1.784-4-4zm0 0.5v0.5c0 2.216 1.784 4 4 4h38c2.216 0 4-1.784 4-4v-0.5c0 2.216-1.784 4-4 4h-38c-2.216 0-4-1.784-4-4z" style="opacity:.02"/>
 <path d="m1 43.25v0.25c0 2.216 1.784 4 4 4h38c2.216 0 4-1.784 4-4v-0.25c0 2.216-1.784 4-4 4h-38c-2.216 0-4-1.784-4-4z" style="opacity:.05"/>
 <path d="m1 43v0.25c0 2.216 1.784 4 4 4h38c2.216 0 4-1.784 4-4v-0.25c0 2.216-1.784 4-4 4h-38c-2.216 0-4-1.784-4-4z" style="opacity:.1"/>
 <rect x="1" y="1" width="46" height="46" rx="4" style="fill:url(#bg)"/>
 <path d="m1 39v4c0 2.216 1.784 4 4 4h38c2.216 0 4-1.784 4-4v-4c0 2.216-1.784 4-4 4h-38c-2.216 0-4-1.784-4-4z" style="opacity:.1"/>
 <path d="m26 10-6 3-2 11 3 3-3-1 2 7h3l-2 2 4-2-1 3 1.7246-2.5879 3.875 4.5879 0.40039-0.40039-3.6777-4.5195 3.6777 0.91992-3-2 3-1h-4l3-2-3-2 4-12z" style="opacity:.1;paint-order:normal"/>
 <path d="m20 12 6-3 4 5-4 12 3 2-3 2h4l-3 1 3 2-4-1-2 3 1-3-4 2 2-2h-3l-2-7 3 1-3-3z" style="fill:#ffe083;paint-order:normal"/>
 <path d="m25 12-2 16 7 8.6-0.4 0.4-7.6-9 2.5-16z" style="fill:#f9f9f9;paint-order:normal"/>
</svg>
