<svg version="1.1" viewBox="0 0 48 48" xmlns="http://www.w3.org/2000/svg">
 <defs>
  <linearGradient id="linearGradient4501" x1="-47" x2="-1" y1="2.8779e-15" y2="6.1232e-17" gradientUnits="userSpaceOnUse">
   <stop style="stop-color:#33bd86" offset="0"/>
   <stop style="stop-color:#3aca91" offset="1"/>
  </linearGradient>
 </defs>
 <g transform="translate(0 3.949e-5)">
  <path d="m1 43v0.25c0 2.216 1.784 4 4 4h38c2.216 0 4-1.784 4-4v-0.25c0 2.216-1.784 4-4 4h-38c-2.216 0-4-1.784-4-4zm0 0.5v0.5c0 2.216 1.784 4 4 4h38c2.216 0 4-1.784 4-4v-0.5c0 2.216-1.784 4-4 4h-38c-2.216 0-4-1.784-4-4z" style="opacity:.02"/>
  <path d="m1 43.25v0.25c0 2.216 1.784 4 4 4h38c2.216 0 4-1.784 4-4v-0.25c0 2.216-1.784 4-4 4h-38c-2.216 0-4-1.784-4-4z" style="opacity:.05"/>
  <path d="m1 43v0.25c0 2.216 1.784 4 4 4h38c2.216 0 4-1.784 4-4v-0.25c0 2.216-1.784 4-4 4h-38c-2.216 0-4-1.784-4-4z" style="opacity:.1"/>
 </g>
 <rect transform="rotate(-90)" x="-47" y="1" width="46" height="46" rx="4" style="fill:url(#linearGradient4501)"/>
 <g transform="translate(0 3.949e-5)">
  <g transform="translate(0 -1004.4)">
   <path d="m1 1043.4v4c0 2.216 1.784 4 4 4h38c2.216 0 4-1.784 4-4v-4c0 2.216-1.784 4-4 4h-38c-2.216 0-4-1.784-4-4z" style="opacity:.1"/>
  </g>
 </g>
 <path d="m23.5 9c-0.695 0-1.299 0.478-1.459 1.154-2.689 0.379-5.211 1.533-7.256 3.32-0.212-0.11-0.447-0.168-0.686-0.168-0.828-1e-3 -1.5 0.672-1.5 1.5 0 0.277 0.077 0.549 0.223 0.785-1.637 2.171-2.606 4.772-2.789 7.484-0.616 0.202-1.033 0.776-1.033 1.424 0 0.695 0.478 1.299 1.154 1.459 0.379 2.689 1.533 5.211 3.32 7.256-0.109 0.212-0.166 0.447-0.166 0.686 0 0.828 0.672 1.5 1.5 1.5 0.277 0 0.548-0.078 0.783-0.223 2.171 1.637 4.772 2.606 7.484 2.789 0.202 0.616 0.776 1.033 1.424 1.033 0.695 0 1.299-0.478 1.459-1.154 2.689-0.379 5.211-1.533 7.256-3.32 0.212 0.109 0.447 0.166 0.686 0.166 0.828 0 1.5-0.672 1.5-1.5 0-0.277-0.078-0.548-0.223-0.783 1.637-2.171 2.606-4.772 2.789-7.484 0.616-0.202 1.033-0.776 1.033-1.424 0-0.695-0.478-1.299-1.154-1.459-0.379-2.689-1.533-5.211-3.32-7.256 0.11-0.212 0.168-0.447 0.168-0.686 1e-3 -0.828-0.672-1.5-1.5-1.5-0.277 0-0.549 0.077-0.785 0.223-2.171-1.637-4.772-2.606-7.484-2.789-0.202-0.616-0.776-1.033-1.424-1.033m0 1c0.276 0 0.5 0.224 0.5 0.5s-0.224 0.5-0.5 0.5-0.5-0.224-0.5-0.5 0.224-0.5 0.5-0.5m1.396 1.045c2.492 0.174 4.882 1.062 6.883 2.559-0.056 0.159-0.086 0.327-0.086 0.496 0 0.828 0.672 1.501 1.5 1.5 0.206 0 0.409-0.044 0.598-0.127 1.641 1.885 2.705 4.202 3.063 6.676-0.521 0.249-0.853 0.774-0.854 1.352 0 0.618 0.38 1.172 0.955 1.396-0.174 2.493-1.063 4.882-2.561 6.883-0.159-0.057-0.326-0.088-0.494-0.088-0.828-1e-3 -1.5 0.672-1.5 1.5 0 0.206 0.044 0.411 0.127 0.6-1.885 1.641-4.202 2.705-6.676 3.063-0.249-0.521-0.774-0.853-1.352-0.854-0.618 0-1.172 0.38-1.396 0.955-2.493-0.174-4.882-1.063-6.883-2.561 0.057-0.159 0.088-0.326 0.088-0.494 1e-3 -0.828-0.672-1.5-1.5-1.5-0.206 0-0.411 0.044-0.6 0.127-1.641-1.885-2.705-4.202-3.063-6.676 0.521-0.249 0.853-0.774 0.854-1.352 0-0.618-0.38-1.172-0.955-1.396 0.174-2.492 1.062-4.882 2.559-6.883 0.159 0.056 0.327 0.086 0.496 0.086 0.828 0 1.501-0.672 1.5-1.5 0-0.206-0.044-0.409-0.127-0.598 1.885-1.641 4.202-2.705 6.676-3.063 0.249 0.521 0.774 0.853 1.352 0.854 0.618 0 1.172-0.38 1.396-0.955zm-1.396 1.955c-0.712 0-1.325 0.5-1.469 1.197-4.67 0.938-8.03 5.04-8.03 9.803 2e-3 5.159 3.934 9.468 9.07 9.947 0.195 0.626 0.746 1.052 1.43 1.053 0.683 0 1.325-0.5 1.469-1.197 4.67-0.938 8.03-5.04 8.03-9.803-2e-3 -5.159-3.934-9.468-9.07-9.947-0.195-0.626-0.774-1.052-1.43-1.053m9.693 0.6c0.276 0 0.5 0.224 0.5 0.5s-0.224 0.5-0.5 0.5-0.5-0.224-0.5-0.5 0.224-0.5 0.5-0.5zm-9.693 0.4c0.276 0 0.5 0.224 0.5 0.5s-0.224 0.5-0.5 0.5-0.5-0.224-0.5-0.5 0.224-0.5 0.5-0.5m-9.4 0.307c0.276 0 0.5 0.224 0.5 0.5s-0.224 0.5-0.5 0.5-0.5-0.224-0.5-0.5 0.224-0.5 0.5-0.5zm10.797 0.738c4.6 0.461 8.106 4.332 8.104 8.955-2e-3 4.263-3 7.938-7.174 8.803-0.259-0.493-0.739-0.803-1.326-0.803s-1.172 0.38-1.396 0.955c-4.6-0.461-8.106-4.332-8.104-8.955 2e-3 -4.263 3-7.938 7.174-8.803 0.259 0.493 0.769 0.803 1.326 0.803 0.618 0 1.172-0.38 1.396-0.955zm-0.896 4.955c-2.209 0-4 1.791-4 4s1.791 4 4 4 4-1.791 4-4-1.791-4-4-4zm13.5 3c0.276 0 0.5 0.224 0.5 0.5s-0.224 0.5-0.5 0.5-0.5-0.224-0.5-0.5 0.224-0.5 0.5-0.5m-27 1c0.276 0 0.5 0.224 0.5 0.5s-0.224 0.5-0.5 0.5-0.5-0.224-0.5-0.5 0.224-0.5 0.5-0.5m23.4 8.691c0.276 0 0.5 0.224 0.5 0.5s-0.224 0.5-0.5 0.5-0.5-0.224-0.5-0.5 0.224-0.5 0.5-0.5zm-9.4 0.309c0.276 0 0.5 0.224 0.5 0.5s-0.224 0.5-0.5 0.5-0.5-0.224-0.5-0.5 0.224-0.5 0.5-0.5m-9.729 0.4h0.037c0.276 0 0.5 0.224 0.5 0.5s-0.224 0.5-0.5 0.5-0.5-0.224-0.5-0.5c-1e-3 -0.262 0.201-0.481 0.463-0.5zm9.729 3.6c0.276 0 0.5 0.224 0.5 0.5s-0.224 0.5-0.5 0.5-0.5-0.224-0.5-0.5 0.224-0.5 0.5-0.5" style="opacity:.1"/>
 <path d="m23.5 8c-0.695 0-1.299 0.478-1.459 1.154-2.689 0.379-5.211 1.533-7.256 3.32-0.212-0.11-0.447-0.168-0.686-0.168-0.828-1e-3 -1.5 0.672-1.5 1.5 0 0.277 0.077 0.549 0.223 0.785-1.637 2.171-2.606 4.772-2.789 7.484-0.616 0.202-1.033 0.776-1.033 1.424 0 0.695 0.478 1.299 1.154 1.459 0.379 2.689 1.533 5.211 3.32 7.256-0.109 0.212-0.166 0.447-0.166 0.686 0 0.828 0.672 1.5 1.5 1.5 0.277 0 0.548-0.078 0.783-0.223 2.171 1.637 4.772 2.606 7.484 2.789 0.202 0.616 0.776 1.033 1.424 1.033 0.695 0 1.299-0.478 1.459-1.154 2.689-0.379 5.211-1.533 7.256-3.32 0.212 0.109 0.447 0.166 0.686 0.166 0.828 0 1.5-0.672 1.5-1.5 0-0.277-0.078-0.548-0.223-0.783 1.637-2.171 2.606-4.772 2.789-7.484 0.616-0.202 1.033-0.776 1.033-1.424 0-0.695-0.478-1.299-1.154-1.459-0.379-2.689-1.533-5.211-3.32-7.256 0.11-0.212 0.168-0.447 0.168-0.686 1e-3 -0.828-0.672-1.5-1.5-1.5-0.277 0-0.549 0.077-0.785 0.223-2.171-1.637-4.772-2.606-7.484-2.789-0.202-0.616-0.776-1.033-1.424-1.033m0 1c0.276 0 0.5 0.224 0.5 0.5s-0.224 0.5-0.5 0.5-0.5-0.224-0.5-0.5 0.224-0.5 0.5-0.5zm1.396 1.045c2.492 0.174 4.882 1.062 6.883 2.559-0.056 0.159-0.086 0.327-0.086 0.496 0 0.828 0.672 1.501 1.5 1.5 0.206 0 0.409-0.044 0.598-0.127 1.641 1.885 2.705 4.202 3.063 6.676-0.521 0.249-0.853 0.774-0.854 1.352 0 0.618 0.38 1.172 0.955 1.396-0.174 2.493-1.063 4.882-2.561 6.883-0.159-0.057-0.326-0.088-0.494-0.088-0.828-1e-3 -1.5 0.672-1.5 1.5 0 0.206 0.044 0.411 0.127 0.6-1.885 1.641-4.202 2.705-6.676 3.063-0.249-0.521-0.774-0.853-1.352-0.854-0.618 0-1.172 0.38-1.396 0.955-2.493-0.174-4.882-1.063-6.883-2.561 0.057-0.159 0.088-0.326 0.088-0.494 1e-3 -0.828-0.672-1.5-1.5-1.5-0.206 0-0.411 0.044-0.6 0.127-1.641-1.885-2.705-4.202-3.063-6.676 0.521-0.249 0.853-0.774 0.854-1.352 0-0.618-0.38-1.172-0.955-1.396 0.174-2.492 1.062-4.882 2.559-6.883 0.159 0.056 0.327 0.086 0.496 0.086 0.828 0 1.501-0.672 1.5-1.5 0-0.206-0.044-0.409-0.127-0.598 1.885-1.641 4.202-2.705 6.676-3.063 0.249 0.521 0.774 0.853 1.352 0.854 0.618 0 1.172-0.38 1.396-0.955zm-1.396 1.955c-0.712 0-1.325 0.5-1.469 1.197-4.67 0.938-8.03 5.04-8.03 9.803 2e-3 5.159 3.934 9.468 9.07 9.947 0.195 0.626 0.746 1.052 1.43 1.053 0.683 0 1.325-0.5 1.469-1.197 4.67-0.938 8.03-5.04 8.03-9.803-2e-3 -5.159-3.934-9.468-9.07-9.947-0.195-0.626-0.774-1.052-1.43-1.053m9.693 0.6c0.276 0 0.5 0.224 0.5 0.5s-0.224 0.5-0.5 0.5-0.5-0.224-0.5-0.5 0.224-0.5 0.5-0.5zm-9.693 0.4c0.276 0 0.5 0.224 0.5 0.5s-0.224 0.5-0.5 0.5-0.5-0.224-0.5-0.5 0.224-0.5 0.5-0.5m-9.4 0.307c0.276 0 0.5 0.224 0.5 0.5s-0.224 0.5-0.5 0.5-0.5-0.224-0.5-0.5 0.224-0.5 0.5-0.5zm10.797 0.738c4.6 0.461 8.106 4.332 8.104 8.955-2e-3 4.263-3 7.938-7.174 8.803-0.259-0.493-0.739-0.803-1.326-0.803s-1.172 0.38-1.396 0.955c-4.6-0.461-8.106-4.332-8.104-8.955 2e-3 -4.263 3-7.938 7.174-8.803 0.259 0.493 0.769 0.803 1.326 0.803 0.618 0 1.172-0.38 1.396-0.955zm-0.896 4.955c-2.209 0-4 1.791-4 4s1.791 4 4 4 4-1.791 4-4-1.791-4-4-4zm13.5 3c0.276 0 0.5 0.224 0.5 0.5s-0.224 0.5-0.5 0.5-0.5-0.224-0.5-0.5 0.224-0.5 0.5-0.5m-27 1c0.276 0 0.5 0.224 0.5 0.5s-0.224 0.5-0.5 0.5-0.5-0.224-0.5-0.5 0.224-0.5 0.5-0.5m23.4 8.691c0.276 0 0.5 0.224 0.5 0.5s-0.224 0.5-0.5 0.5-0.5-0.224-0.5-0.5 0.224-0.5 0.5-0.5zm-9.4 0.309c0.276 0 0.5 0.224 0.5 0.5s-0.224 0.5-0.5 0.5-0.5-0.224-0.5-0.5 0.224-0.5 0.5-0.5m-9.729 0.4h0.037c0.276 0 0.5 0.224 0.5 0.5s-0.224 0.5-0.5 0.5-0.5-0.224-0.5-0.5c-1e-3 -0.262 0.201-0.481 0.463-0.5zm9.729 3.6c0.276 0 0.5 0.224 0.5 0.5s-0.224 0.5-0.5 0.5-0.5-0.224-0.5-0.5 0.224-0.5 0.5-0.5" style="fill:#f9f9f9"/>
</svg>
