<svg version="1.1" viewBox="0 0 48 48" xmlns="http://www.w3.org/2000/svg">
 <defs>
  <linearGradient id="bg" x1="-47" x2="-1" y1="0" y2="0" gradientUnits="userSpaceOnUse">
   <stop style="stop-color:#3d3d3d" offset="0"/>
   <stop style="stop-color:#474747" offset="1"/>
  </linearGradient>
 </defs>
 <path d="m1 43v0.25c0 2.22 1.78 4 4 4h38c2.22 0 4-1.78 4-4v-0.25c0 2.22-1.78 4-4 4h-38c-2.22 0-4-1.78-4-4zm0 0.5v0.5c0 2.22 1.78 4 4 4h38c2.22 0 4-1.78 4-4v-0.5c0 2.22-1.78 4-4 4h-38c-2.22 0-4-1.78-4-4z" style="opacity:.02"/>
 <path d="m1 43.3v0.25c0 2.22 1.78 4 4 4h38c2.22 0 4-1.78 4-4v-0.25c0 2.22-1.78 4-4 4h-38c-2.22 0-4-1.78-4-4z" style="opacity:.05"/>
 <path d="m1 43v0.25c0 2.22 1.78 4 4 4h38c2.22 0 4-1.78 4-4v-0.25c0 2.22-1.78 4-4 4h-38c-2.22 0-4-1.78-4-4z" style="opacity:.1"/>
 <rect transform="rotate(-90)" x="-47" y="1" width="46" height="46" rx="4" style="fill:url(#bg)"/>
 <path d="m1 39v4c0 2.22 1.78 4 4 4h38c2.22 0 4-1.78 4-4v-4c0 2.22-1.78 4-4 4h-38c-2.22 0-4-1.78-4-4z" style="opacity:.1"/>
 <path d="m30 10.1c-4.34 0.71-8.08 3.46-11.1 6.6-2 2.18-3.94 4.69-4.51 7.71-0.272 1.48 0.2 3.46 1.83 3.82 1.78 0.24 3.33-0.958 4.73-1.93 0.697-0.456 2.04-1.69 2.2-1.7-1.35 1.71-2.7 3.42-4.07 5.12-1.63 1.21-3.27 2.47-4.57 4.06-0.62 0.616-0.655 1.98 0.345 2.18 1.29 0.338 2.24-0.905 3.03-1.74 0.924-0.989 1.7-2.13 2.6-3.12 2.65-1.98 5.41-3.83 8.31-5.4 0.772-0.538 0.235-1.92-0.684-1.76-1.27 0.468-2.31 1.42-3.46 2.14-1.01 0.749 0.515-0.825 0.706-1.17 1.72-2.18 3.48-4.33 5.17-6.53 0.511-0.589-0.462-1.3-0.403-1.47 1.57-0.916 3.25-2.08 3.86-3.92 0.38-1.34-0.665-2.72-1.97-2.88-0.656-0.136-1.33-0.105-1.99-0.01zm0.267 1.94c0.723-0.227 2.61-0.012 1.49 1.05-1.16 1.32-2.66 2.4-4.35 2.87-0.536-0.757-1.83-0.206-1.69 0.719 0.076 1.25 1.54 1.63 2.45 1.06 0.8-0.358-0.847 0.709-1.12 1-2.93 2.31-5.61 5-8.79 6.96-0.71 0.563-2.27 1.03-2.04-0.447 0.166-2.4 1.68-4.4 3.12-6.19 2.61-3 5.86-5.57 9.64-6.75 0.42-0.121 0.847-0.217 1.28-0.28z" style="opacity:.1"/>
 <path d="m30 9.08c-4.34 0.71-8.08 3.46-11.1 6.6-2 2.18-3.94 4.69-4.51 7.71-0.272 1.48 0.2 3.46 1.83 3.82 1.78 0.24 3.33-0.958 4.73-1.93 0.697-0.456 2.04-1.69 2.2-1.7-1.35 1.71-2.7 3.42-4.07 5.12-1.63 1.21-3.27 2.47-4.57 4.06-0.62 0.616-0.655 1.98 0.345 2.18 1.29 0.338 2.24-0.905 3.03-1.74 0.924-0.989 1.7-2.13 2.6-3.12 2.65-1.98 5.41-3.83 8.31-5.4 0.772-0.538 0.235-1.92-0.684-1.76-1.27 0.468-2.31 1.42-3.46 2.14-1.01 0.749 0.515-0.825 0.706-1.17 1.72-2.18 3.48-4.33 5.17-6.53 0.511-0.589-0.462-1.3-0.403-1.47 1.57-0.916 3.25-2.08 3.86-3.92 0.38-1.34-0.665-2.72-1.97-2.88-0.656-0.136-1.33-0.105-1.99-0.01zm0.267 1.94c0.723-0.227 2.61-0.012 1.49 1.05-1.16 1.32-2.66 2.4-4.35 2.87-0.536-0.757-1.83-0.206-1.69 0.719 0.076 1.25 1.54 1.63 2.45 1.06 0.8-0.358-0.847 0.709-1.12 1-2.93 2.31-5.61 5-8.79 6.96-0.71 0.563-2.27 1.03-2.04-0.447 0.166-2.4 1.68-4.4 3.12-6.19 2.61-3 5.86-5.57 9.64-6.75 0.42-0.121 0.847-0.217 1.28-0.28z" style="fill:#2cc9d8"/>
</svg>
