<svg style="" viewBox="0 0 48 48" xmlns="http://www.w3.org/2000/svg" xmlns:xlink="http://www.w3.org/1999/xlink">
 <defs style="">
  <linearGradient id="linearGradient3764" gradientTransform="translate(-48 .002215)" gradientUnits="userSpaceOnUse" style="" x1="1" x2="47">
   <stop offset="0" style="stop-color:#c40649"/>
   <stop offset="1" style="stop-color:#d70751"/>
  </linearGradient>
 </defs>
 <path d="m 1 43 v .25 c 0 2.216 1.784 4 4 4 h 38 c 2.216 0 4 -1.784 4 -4 v -.25 c 0 2.216 -1.784 4 -4 4 h -38 c -2.216 0 -4 -1.784 -4 -4 z m 0 .5 v .5 c 0 2.216 1.784 4 4 4 h 38 c 2.216 0 4 -1.784 4 -4 v -.5 c 0 2.216 -1.784 4 -4 4 h -38 c -2.216 0 -4 -1.784 -4 -4 z" style="opacity:.02"/>
 <path d="m 1 43.25 v .25 c 0 2.216 1.784 4 4 4 h 38 c 2.216 0 4 -1.784 4 -4 v -.25 c 0 2.216 -1.784 4 -4 4 h -38 c -2.216 0 -4 -1.784 -4 -4 z" style="opacity:.05"/>
 <path d="m 1 43 v .25 c 0 2.216 1.784 4 4 4 h 38 c 2.216 0 4 -1.784 4 -4 v -.25 c 0 2.216 -1.784 4 -4 4 h -38 c -2.216 0 -4 -1.784 -4 -4 z" style="opacity:.1"/>
 <rect height="46" rx="4" style="fill:url(#linearGradient3764)" transform="rotate(-90)" width="46" x="-47" y="1"/>
 <g style="opacity:.1">
  <path d="m 25.953 24.68 c -.414 .004 .078 .203 .617 .285 .148 -.113 .281 -.227 .402 -.336 -.336 .078 -.676 .082 -1.02 .051" style=""/>
  <path d="m 28.17 24.15 c .227 -.328 .422 -.684 .477 -1.055 -.055 .262 -.203 .492 -.344 .73 -.773 .469 -.074 -.277 0 -.559 -.832 1 -.117 .602 -.148 .883" style=""/>
  <path d="m 28.984 22.1 c .047 -.715 -.148 -.488 -.215 -.215 .078 .035 .141 .504 .215 .215" style=""/>
  <path d="m 24.387 12.309 c .223 .039 .477 .066 .441 .117 .242 -.051 .297 -.098 -.441 -.117" style=""/>
  <path d="m 24.828 12.426 -.156 .035 .145 -.016 .012 -.02" style=""/>
  <path d="m 31.691 22.367 c .027 .645 -.195 .957 -.391 1.508 l -.355 .172 c -.293 .547 .027 .348 -.184 .781 -.453 .391 -1.379 1.223 -1.676 1.297 -.219 -.004 .145 -.246 .191 -.34 -.609 .402 -.488 .605 -1.422 .852 l -.027 -.059 c -2.297 1.043 -5.492 -1.023 -5.449 -3.844 -.027 .18 -.07 .133 -.121 .207 -.121 -1.453 .695 -2.91 2.066 -3.504 1.344 -.641 2.918 -.379 3.879 .484 -.527 -.664 -1.578 -1.371 -2.824 -1.305 -1.223 .016 -2.363 .766 -2.746 1.574 -.625 .379 -.695 1.465 -.969 1.66 -.367 2.598 .688 3.723 2.477 5.04 .281 .18 .078 .207 .117 .348 -.594 -.27 -1.141 -.672 -1.586 -1.168 .238 .336 .492 .66 .824 .918 -.559 -.184 -1.309 -1.309 -1.527 -1.355 .965 1.668 3.914 2.922 5.461 2.297 -.715 .027 -1.625 .016 -2.426 -.27 -.34 -.168 -.797 -.516 -.715 -.578 2.105 .758 4.285 .574 6.109 -.836 .461 -.348 .969 -.941 1.117 -.949 -.23 .32 .035 .152 -.133 .438 .461 -.719 -.199 -.293 .477 -1.242 l .254 .332 c -.094 -.598 .766 -1.32 .68 -2.266 .199 -.289 .219 .313 .012 .977 .289 -.738 .074 -.855 .148 -1.465 .082 .207 .188 .422 .242 .637 -.188 -.711 .195 -1.199 .289 -1.609 -.094 -.043 -.293 .313 -.336 -.527 .004 -.367 .105 -.188 .141 -.281 -.074 -.043 -.27 -.313 -.387 -.852 .086 -.125 .23 .328 .348 .348 -.074 -.426 -.207 -.754 -.211 -1.082 -.344 -.688 -.121 .105 -.398 -.293 -.363 -1.098 .301 -.254 .348 -.754 .551 .773 .867 1.965 1.012 2.461 -.109 -.602 -.289 -1.188 -.508 -1.754 .168 .07 -.27 -1.227 .219 -.371 -.52 -1.852 -2.23 -3.578 -3.801 -4.387 .191 .168 .434 .383 .348 .414 -.781 -.445 -.645 -.48 -.758 -.672 -.637 -.25 -.68 .02 -1.102 0 -1.199 -.613 -1.43 -.547 -2.535 -.941 l .051 .23 c -.797 -.254 -.926 .098 -1.789 0 -.051 -.039 .277 -.145 .547 -.184 -.77 .102 -.734 -.145 -1.484 .027 .184 -.125 .379 -.207 .578 -.316 -.629 .039 -1.496 .355 -1.227 .066 -1.023 .441 -2.84 1.059 -3.859 1.98 l -.035 -.207 c -.465 .539 -2.035 1.613 -2.16 2.316 l -.125 .027 c -.242 .395 -.402 .844 -.594 1.254 -.316 .523 -.465 .199 -.422 .281 -.625 1.223 -.934 2.25 -1.203 3.094 .191 .273 .004 1.66 .078 2.766 -.316 5.469 3.98 10.773 8.672 12 .691 .238 1.711 .23 2.582 .254 -1.023 -.285 -1.16 -.152 -2.16 -.488 -.719 -.328 -.879 -.699 -1.391 -1.129 l .203 .344 c -1 -.34 -.582 -.422 -1.398 -.672 l .219 -.27 c -.324 -.023 -.863 -.527 -1.01 -.809 l -.355 .016 c -.426 -.512 -.656 -.875 -.637 -1.16 l -.117 .199 c -.129 -.219 -1.57 -1.906 -.82 -1.512 -.141 -.125 -.324 -.199 -.527 -.551 l .152 -.168 c -.359 -.445 -.66 -1.02 -.637 -1.207 .191 .25 .324 .293 .457 .336 -.91 -2.172 -.961 -.117 -1.648 -2.211 l .145 -.012 c -.109 -.16 -.176 -.336 -.27 -.508 l .066 -.609 c -.656 -.73 -.184 -3.102 -.09 -4.398 .066 -.531 .547 -1.094 .91 -1.977 l -.223 -.035 c .426 -.715 2.43 -2.875 3.352 -2.766 .449 -.543 -.09 0 -.176 -.137 .984 -.988 1.297 -.699 1.965 -.875 .727 -.41 -.617 .16 -.27 -.156 1.227 -.305 .879 -.695 2.5 -.852 .172 .094 -.398 .145 -.539 .266 1.035 -.488 3.27 -.375 4.727 .273 1.691 .762 3.586 3.01 3.66 5.125 l .086 .02 c -.043 .848 .133 1.816 -.172 2.707 l .207 -.422" style=""/>
  <path d="m 21.449 25.23 -.059 .277 c .27 .355 .484 .742 .832 1.02 -.25 -.469 -.434 -.664 -.773 -1.297" style=""/>
  <path d="m 22.09 25.2 c -.141 -.152 -.227 -.336 -.324 -.52 .094 .32 .277 .598 .453 .879 z" style=""/>
  <path d="m 33.434 22.824 -.063 .145 c -.113 .762 -.352 1.516 -.719 2.215 .406 -.738 .668 -1.543 .777 -2.363" style=""/>
  <path d="m 24.469 12.12 c .281 -.098 .688 -.051 .984 -.117 -.387 .031 -.77 .051 -1.148 .098 l .164 .02" style=""/>
  <path d="m 14.68 17.14 c .063 .574 -.449 .797 .109 .418 .301 -.652 -.117 -.18 -.109 -.418" style=""/>
  <path d="m 14.02 19.793 c .133 -.383 .156 -.613 .203 -.832 -.355 .438 -.164 .531 -.203 .832" style=""/>
 </g>
 <g style="fill:#f9f9f9">
  <path d="m 25.953 23.68 c -.414 .004 .078 .203 .617 .285 .148 -.113 .281 -.227 .402 -.336 -.336 .078 -.676 .082 -1.02 .051" style=""/>
  <path d="m 28.17 23.15 c .227 -.328 .422 -.684 .477 -1.055 -.055 .262 -.203 .492 -.344 .73 -.773 .469 -.074 -.277 0 -.559 -.832 1 -.117 .602 -.148 .883" style=""/>
  <path d="m 28.984 21.1 c .047 -.715 -.148 -.488 -.215 -.215 .078 .035 .141 .504 .215 .215" style=""/>
  <path d="m 24.387 11.309 c .223 .039 .477 .066 .441 .117 .242 -.051 .297 -.098 -.441 -.117" style=""/>
  <path d="m 24.828 11.426 -.156 .035 .145 -.016 .012 -.02" style=""/>
  <path d="m 31.691 21.367 c .027 .645 -.195 .957 -.391 1.508 l -.355 .172 c -.293 .547 .027 .348 -.184 .781 -.453 .391 -1.379 1.223 -1.676 1.297 -.219 -.004 .145 -.246 .191 -.34 -.609 .402 -.488 .605 -1.422 .852 l -.027 -.059 c -2.297 1.043 -5.492 -1.023 -5.449 -3.844 -.027 .18 -.07 .133 -.121 .207 -.121 -1.453 .695 -2.91 2.066 -3.504 1.344 -.641 2.918 -.379 3.879 .484 -.527 -.664 -1.578 -1.371 -2.824 -1.305 -1.223 .016 -2.363 .766 -2.746 1.574 -.625 .379 -.695 1.465 -.969 1.66 -.367 2.598 .688 3.723 2.477 5.04 .281 .18 .078 .207 .117 .348 -.594 -.27 -1.141 -.672 -1.586 -1.168 .238 .336 .492 .66 .824 .918 -.559 -.184 -1.309 -1.309 -1.527 -1.355 .965 1.668 3.914 2.922 5.461 2.297 -.715 .027 -1.625 .016 -2.426 -.27 -.34 -.168 -.797 -.516 -.715 -.578 2.105 .758 4.285 .574 6.109 -.836 .461 -.348 .969 -.941 1.117 -.949 -.23 .32 .035 .152 -.133 .438 .461 -.719 -.199 -.293 .477 -1.242 l .254 .332 c -.094 -.598 .766 -1.32 .68 -2.266 .199 -.289 .219 .313 .012 .977 .289 -.738 .074 -.855 .148 -1.465 .082 .207 .188 .422 .242 .637 -.188 -.711 .195 -1.199 .289 -1.609 -.094 -.043 -.293 .313 -.336 -.527 .004 -.367 .105 -.188 .141 -.281 -.074 -.043 -.27 -.313 -.387 -.852 .086 -.125 .23 .328 .348 .348 -.074 -.426 -.207 -.754 -.211 -1.082 -.344 -.688 -.121 .105 -.398 -.293 -.363 -1.098 .301 -.254 .348 -.754 .551 .773 .867 1.965 1.012 2.461 -.109 -.602 -.289 -1.188 -.508 -1.754 .168 .07 -.27 -1.227 .219 -.371 -.52 -1.852 -2.23 -3.578 -3.801 -4.387 .191 .168 .434 .383 .348 .414 -.781 -.445 -.645 -.48 -.758 -.672 -.637 -.25 -.68 .02 -1.102 0 -1.199 -.613 -1.43 -.547 -2.535 -.941 l .051 .23 c -.797 -.254 -.926 .098 -1.789 0 -.051 -.039 .277 -.145 .547 -.184 -.77 .102 -.734 -.145 -1.484 .027 .184 -.125 .379 -.207 .578 -.316 -.629 .039 -1.496 .355 -1.227 .066 -1.023 .441 -2.84 1.059 -3.859 1.98 l -.035 -.207 c -.465 .539 -2.035 1.613 -2.16 2.316 l -.125 .027 c -.242 .395 -.402 .844 -.594 1.254 -.316 .523 -.465 .199 -.422 .281 -.625 1.223 -.934 2.25 -1.203 3.094 .191 .273 .004 1.66 .078 2.766 -.316 5.469 3.98 10.773 8.672 12 .691 .238 1.711 .23 2.582 .254 -1.023 -.285 -1.16 -.152 -2.16 -.488 -.719 -.328 -.879 -.699 -1.391 -1.129 l .203 .344 c -1 -.34 -.582 -.422 -1.398 -.672 l .219 -.27 c -.324 -.023 -.863 -.527 -1.01 -.809 l -.355 .016 c -.426 -.512 -.656 -.875 -.637 -1.16 l -.117 .199 c -.129 -.219 -1.57 -1.906 -.82 -1.512 -.141 -.125 -.324 -.199 -.527 -.551 l .152 -.168 c -.359 -.445 -.66 -1.02 -.637 -1.207 .191 .25 .324 .293 .457 .336 -.91 -2.172 -.961 -.117 -1.648 -2.211 l .145 -.012 c -.109 -.16 -.176 -.336 -.27 -.508 l .066 -.609 c -.656 -.73 -.184 -3.102 -.09 -4.398 .066 -.531 .547 -1.094 .91 -1.977 l -.223 -.035 c .426 -.715 2.43 -2.875 3.352 -2.766 .449 -.543 -.09 0 -.176 -.137 .984 -.988 1.297 -.699 1.965 -.875 .727 -.41 -.617 .16 -.27 -.156 1.227 -.305 .879 -.695 2.5 -.852 .172 .094 -.398 .145 -.539 .266 1.035 -.488 3.27 -.375 4.727 .273 1.691 .762 3.586 3.01 3.66 5.125 l .086 .02 c -.043 .848 .133 1.816 -.172 2.707 l .207 -.422" style=""/>
  <path d="m 21.449 24.23 -.059 .277 c .27 .355 .484 .742 .832 1.02 -.25 -.469 -.434 -.664 -.773 -1.297" style=""/>
  <path d="m 22.09 24.2 c -.141 -.152 -.227 -.336 -.324 -.52 .094 .32 .277 .598 .453 .879 z" style=""/>
  <path d="m 33.434 21.824 -.063 .145 c -.113 .762 -.352 1.516 -.719 2.215 .406 -.738 .668 -1.543 .777 -2.363" style=""/>
  <path d="m 24.469 11.12 c .281 -.098 .688 -.051 .984 -.117 -.387 .031 -.77 .051 -1.148 .098 l .164 .02" style=""/>
  <path d="m 14.68 16.14 c .063 .574 -.449 .797 .109 .418 .301 -.652 -.117 -.18 -.109 -.418" style=""/>
  <path d="m 14.02 18.793 c .133 -.383 .156 -.613 .203 -.832 -.355 .438 -.164 .531 -.203 .832" style=""/>
 </g>
 <path d="m 1 39 v 4 c 0 2.216 1.784 4 4 4 h 38 c 2.216 0 4 -1.784 4 -4 v -4 c 0 2.216 -1.784 4 -4 4 h -38 c -2.216 0 -4 -1.784 -4 -4 z" style="opacity:.1"/>
</svg>
