<svg version="1.1" viewBox="0 0 48 48" xmlns="http://www.w3.org/2000/svg">
 <defs>
  <linearGradient id="bg" x1="-47" x2="-1" y1="2.8779e-15" y2="6.1232e-17" gradientUnits="userSpaceOnUse">
   <stop style="stop-color:#dfdf79" offset="0"/>
   <stop style="stop-color:#e2e288" offset="1"/>
  </linearGradient>
 </defs>
 <g transform="translate(0 3.949e-5)">
  <path d="m1 43v0.25c0 2.216 1.784 4 4 4h38c2.216 0 4-1.784 4-4v-0.25c0 2.216-1.784 4-4 4h-38c-2.216 0-4-1.784-4-4zm0 0.5v0.5c0 2.216 1.784 4 4 4h38c2.216 0 4-1.784 4-4v-0.5c0 2.216-1.784 4-4 4h-38c-2.216 0-4-1.784-4-4z" style="opacity:.02"/>
  <path d="m1 43.25v0.25c0 2.216 1.784 4 4 4h38c2.216 0 4-1.784 4-4v-0.25c0 2.216-1.784 4-4 4h-38c-2.216 0-4-1.784-4-4z" style="opacity:.05"/>
  <path d="m1 43v0.25c0 2.216 1.784 4 4 4h38c2.216 0 4-1.784 4-4v-0.25c0 2.216-1.784 4-4 4h-38c-2.216 0-4-1.784-4-4z" style="opacity:.1"/>
 </g>
 <rect transform="rotate(-90)" x="-47" y="1" width="46" height="46" rx="4" style="fill:url(#bg)"/>
 <g transform="translate(0 3.949e-5)">
  <g transform="translate(0 -1004.4)">
   <path d="m1 1043.4v4c0 2.216 1.784 4 4 4h38c2.216 0 4-1.784 4-4v-4c0 2.216-1.784 4-4 4h-38c-2.216 0-4-1.784-4-4z" style="opacity:.1"/>
  </g>
 </g>
 <circle cx="24" cy="24" r="15" style="opacity:.1"/>
 <circle cx="24" cy="23" r="15" style="fill:#f0b029"/>
 <path d="m17 14a6 6 0 0 0-6 6 6 6 0 0 0 6 6 6 6 0 0 0 6-6 6 6 0 0 0-0.57227-2.5566c0.45665-0.28043 0.9949-0.44336 1.5723-0.44336 0.57893 0 1.1187 0.16348 1.5762 0.44531a6 6 0 0 0-0.57617 2.5547 6 6 0 0 0 6 6 6 6 0 0 0 6-6 6 6 0 0 0-6-6 6 6 0 0 0-4.916 2.582c-0.60604-0.36895-1.3197-0.58203-2.084-0.58203-0.7602 0-1.4703 0.21086-2.0742 0.57617a6 6 0 0 0-4.9258-2.5762zm-1 14s4 4 7.5 4 7.5-4 7.5-4-4 2-7.5 2-7.5-2-7.5-2z" style="opacity:.1"/>
 <path d="m17 13a6 6 0 0 0-6 6 6 6 0 0 0 6 6 6 6 0 0 0 6-6 6 6 0 0 0-0.57227-2.5566c0.45665-0.28043 0.9949-0.44336 1.5723-0.44336 0.57893 0 1.1187 0.16348 1.5762 0.44531a6 6 0 0 0-0.57617 2.5547 6 6 0 0 0 6 6 6 6 0 0 0 6-6 6 6 0 0 0-6-6 6 6 0 0 0-4.916 2.582c-0.60604-0.36895-1.3197-0.58203-2.084-0.58203-0.7602 0-1.4703 0.21086-2.0742 0.57617a6 6 0 0 0-4.9258-2.5762z" style="fill:#4d4d4d"/>
 <path d="m17 14a5 5 0 0 0-5 5 5 5 0 0 0 5 5 5 5 0 0 0 5-5 5 5 0 0 0-5-5zm14 0a5 5 0 0 0-5 5 5 5 0 0 0 5 5 5 5 0 0 0 5-5 5 5 0 0 0-5-5z" style="fill:#c5ba99"/>
 <path d="m17 14a5 5 0 0 0-5 5 5 5 0 0 0 0.048828 0.5 5 5 0 0 1 4.9512-4.5 5 5 0 0 1 4.9609 4.3965 5 5 0 0 0 0.039062-0.39648 5 5 0 0 0-4.043-4.9082 6 6 0 0 0-0.95703-0.091797zm14 0a5 5 0 0 0-0.97461 0.095703 6 6 0 0 0-0.001953 0 5 5 0 0 0-4.0234 4.9043 5 5 0 0 0 0.048828 0.5 5 5 0 0 1 4.9512-4.5 5 5 0 0 1 4.9609 4.3965 5 5 0 0 0 0.039062-0.39648 5 5 0 0 0-4.668-4.9902 6 6 0 0 0-0.005859 0 5 5 0 0 0-0.32617-0.009766zm-12.5 6a1.5 1.5 0 0 0-1.5 1.5 1.5 1.5 0 0 0 1.5 1.5 1.5 1.5 0 0 0 1.5-1.5 1.5 1.5 0 0 0-1.5-1.5zm11 0a1.5 1.5 0 0 0-1.5 1.5 1.5 1.5 0 0 0 1.5 1.5 1.5 1.5 0 0 0 1.5-1.5 1.5 1.5 0 0 0-1.5-1.5z" style="opacity:.08"/>
 <path d="m18.5 19a1.5 1.5 0 0 0-1.5 1.5 1.5 1.5 0 0 0 1.5 1.5 1.5 1.5 0 0 0 1.5-1.5 1.5 1.5 0 0 0-1.5-1.5zm11 0a1.5 1.5 0 0 0-1.5 1.5 1.5 1.5 0 0 0 1.5 1.5 1.5 1.5 0 0 0 1.5-1.5 1.5 1.5 0 0 0-1.5-1.5z" style="fill:#526b7f"/>
 <path d="m16 27s4 2 7.5 2 7.5-2 7.5-2-4 4-7.5 4-7.5-4-7.5-4z" style="fill:#b17930"/>
</svg>
