<?xml version="1.0" encoding="UTF-8" standalone="no"?>
<svg
   xmlns:dc="http://purl.org/dc/elements/1.1/"
   xmlns:cc="http://creativecommons.org/ns#"
   xmlns:rdf="http://www.w3.org/1999/02/22-rdf-syntax-ns#"
   xmlns:svg="http://www.w3.org/2000/svg"
   xmlns="http://www.w3.org/2000/svg"
   xmlns:sodipodi="http://sodipodi.sourceforge.net/DTD/sodipodi-0.dtd"
   xmlns:inkscape="http://www.inkscape.org/namespaces/inkscape"
   viewBox="0 0 48 48"
   version="1.1"
   id="svg4296"
   sodipodi:docname="dockremoteclient.svg">
  <metadata
     id="metadata4300">
    <rdf:RDF>
      <cc:Work
         rdf:about="">
        <dc:format>image/svg+xml</dc:format>
        <dc:type
           rdf:resource="http://purl.org/dc/dcmitype/StillImage" />
      </cc:Work>
    </rdf:RDF>
  </metadata>
  <sodipodi:namedview
     pagecolor="#ffffff"
     bordercolor="#666666"
     borderopacity="1"
     objecttolerance="10"
     gridtolerance="10"
     guidetolerance="10"
     inkscape:pageopacity="0"
     inkscape:pageshadow="2"
     inkscape:window-width="640"
     inkscape:window-height="480"
     id="namedview4298" />
  <defs
     id="defs4248">
    <linearGradient
       id="linearGradient3764"
       x1="1"
       x2="47"
       gradientUnits="userSpaceOnUse"
       gradientTransform="translate(-48.000001,0.00221467)">
      <stop
         stop-color="#773f97"
         stop-opacity="1"
         id="stop4233" />
      <stop
         offset="1"
         stop-color="#8345a5"
         stop-opacity="1"
         id="stop4235" />
    </linearGradient>
    <clipPath
       id="clipPath-316700882">
      <g
         transform="translate(0,-1004.3622)"
         id="g4240">
        <rect
           rx="4"
           y="1005.36"
           x="1"
           height="46"
           width="46"
           fill="#1890d0"
           id="rect4238" />
      </g>
    </clipPath>
    <clipPath
       id="clipPath-329746422">
      <g
         transform="translate(0,-1004.3622)"
         id="g4245">
        <rect
           rx="4"
           y="1005.36"
           x="1"
           height="46"
           width="46"
           fill="#1890d0"
           id="rect4243" />
      </g>
    </clipPath>
  </defs>
  <g
     id="g4256">
    <path
       d="m 1 43 l 0 0.25 c 0 2.216 1.784 4 4 4 l 38 0 c 2.216 0 4 -1.784 4 -4 l 0 -0.25 c 0 2.216 -1.784 4 -4 4 l -38 0 c -2.216 0 -4 -1.784 -4 -4 z m 0 0.5 l 0 0.5 c 0 2.216 1.784 4 4 4 l 38 0 c 2.216 0 4 -1.784 4 -4 l 0 -0.5 c 0 2.216 -1.784 4 -4 4 l -38 0 c -2.216 0 -4 -1.784 -4 -4 z"
       opacity="0.02"
       id="path4250" />
    <path
       d="m 1 43.25 l 0 0.25 c 0 2.216 1.784 4 4 4 l 38 0 c 2.216 0 4 -1.784 4 -4 l 0 -0.25 c 0 2.216 -1.784 4 -4 4 l -38 0 c -2.216 0 -4 -1.784 -4 -4 z"
       opacity="0.05"
       id="path4252" />
    <path
       d="m 1 43 l 0 0.25 c 0 2.216 1.784 4 4 4 l 38 0 c 2.216 0 4 -1.784 4 -4 l 0 -0.25 c 0 2.216 -1.784 4 -4 4 l -38 0 c -2.216 0 -4 -1.784 -4 -4 z"
       opacity="0.1"
       id="path4254" />
  </g>
  <g
     id="g4260">
    <rect
       width="46"
       height="46"
       x="-47"
       y="1"
       rx="4"
       transform="matrix(0,-1,1,0,0,0)"
       fill="url(#linearGradient3764)"
       fill-opacity="1"
       id="rect4258" />
  </g>
  <g
     id="g4274">
    <g
       clip-path="url(#clipPath-316700882)"
       id="g4272">
      <g
         opacity="0.1"
         id="g4270">
        <!-- color: #8345a5 -->
        <g
           id="g4268">
          <path
             d="m 17.543 12 l 12.91 0 c 1.957 0 3.543 1.586 3.543 3.543 l 0 16.914 c 0 1.957 -1.586 3.543 -3.543 3.543 l -12.91 0 c -1.957 0 -3.543 -1.586 -3.543 -3.543 l 0 -16.914 c 0 -1.957 1.586 -3.543 3.543 -3.543 m 0 0"
             stroke="none"
             fill-rule="nonzero"
             fill-opacity="1"
             fill="#000"
             id="path4262" />
          <path
             d="m 29 29 c 0 2.762 -2.238 5 -5 5 c -2.762 0 -5 -2.238 -5 -5 c 0 -2.762 2.238 -5 5 -5 c 2.762 0 5 2.238 5 5 m 0 0"
             stroke="none"
             fill-rule="nonzero"
             fill-opacity="1"
             fill="#000"
             id="path4264" />
          <path
             d="m 27 18 c 0 1.656 -1.344 3 -3 3 c -1.656 0 -3 -1.344 -3 -3 c 0 -1.656 1.344 -3 3 -3 c 1.656 0 3 1.344 3 3 m 0 0"
             stroke="none"
             fill-rule="nonzero"
             fill-opacity="1"
             fill="#000"
             id="path4266" />
        </g>
      </g>
    </g>
  </g>
  <g
     id="g4288">
    <g
       clip-path="url(#clipPath-329746422)"
       id="g4286">
      <g
         transform="translate(0,-1)"
         id="g4284">
        <!-- color: #8345a5 -->
        <g
           id="g4282">
          <path
             d="m 17.543 12 l 12.91 0 c 1.957 0 3.543 1.586 3.543 3.543 l 0 16.914 c 0 1.957 -1.586 3.543 -3.543 3.543 l -12.91 0 c -1.957 0 -3.543 -1.586 -3.543 -3.543 l 0 -16.914 c 0 -1.957 1.586 -3.543 3.543 -3.543 m 0 0"
             fill="#ff6636"
             stroke="none"
             fill-rule="nonzero"
             fill-opacity="1"
             id="path4276" />
          <path
             d="m 29 29 c 0 2.762 -2.238 5 -5 5 c -2.762 0 -5 -2.238 -5 -5 c 0 -2.762 2.238 -5 5 -5 c 2.762 0 5 2.238 5 5 m 0 0"
             fill="#f9f9f9"
             stroke="none"
             fill-rule="nonzero"
             fill-opacity="1"
             id="path4278" />
          <path
             d="m 27 18 c 0 1.656 -1.344 3 -3 3 c -1.656 0 -3 -1.344 -3 -3 c 0 -1.656 1.344 -3 3 -3 c 1.656 0 3 1.344 3 3 m 0 0"
             fill="#f9f9f9"
             stroke="none"
             fill-rule="nonzero"
             fill-opacity="1"
             id="path4280" />
        </g>
      </g>
    </g>
  </g>
  <g
     id="g4294">
    <g
       transform="translate(0,-1004.3622)"
       id="g4292">
      <path
         d="m 1 1043.36 0 4 c 0 2.216 1.784 4 4 4 l 38 0 c 2.216 0 4 -1.784 4 -4 l 0 -4 c 0 2.216 -1.784 4 -4 4 l -38 0 c -2.216 0 -4 -1.784 -4 -4 z"
         opacity="0.1"
         id="path4290" />
    </g>
  </g>
</svg>
