<svg style="" viewBox="0 0 48 48" xmlns="http://www.w3.org/2000/svg" xmlns:xlink="http://www.w3.org/1999/xlink">
 <defs style="">
  <linearGradient id="linearGradient3764" gradientTransform="translate(-48 .002215)" gradientUnits="userSpaceOnUse" style="" x1="1" x2="47">
   <stop offset="0" style="stop-color:#773f97"/>
   <stop offset="1" style="stop-color:#8345a5"/>
  </linearGradient>
 </defs>
 <path d="m 1 43 v .25 c 0 2.216 1.784 4 4 4 h 38 c 2.216 0 4 -1.784 4 -4 v -.25 c 0 2.216 -1.784 4 -4 4 h -38 c -2.216 0 -4 -1.784 -4 -4 z m 0 .5 v .5 c 0 2.216 1.784 4 4 4 h 38 c 2.216 0 4 -1.784 4 -4 v -.5 c 0 2.216 -1.784 4 -4 4 h -38 c -2.216 0 -4 -1.784 -4 -4 z" style="opacity:.02"/>
 <path d="m 1 43.25 v .25 c 0 2.216 1.784 4 4 4 h 38 c 2.216 0 4 -1.784 4 -4 v -.25 c 0 2.216 -1.784 4 -4 4 h -38 c -2.216 0 -4 -1.784 -4 -4 z" style="opacity:.05"/>
 <path d="m 1 43 v .25 c 0 2.216 1.784 4 4 4 h 38 c 2.216 0 4 -1.784 4 -4 v -.25 c 0 2.216 -1.784 4 -4 4 h -38 c -2.216 0 -4 -1.784 -4 -4 z" style="opacity:.1"/>
 <rect height="46" rx="4" style="fill:url(#linearGradient3764)" transform="rotate(-90)" width="46" x="-47" y="1"/>
 <g style="opacity:.1">
  <path d="m 17.543 12 h 12.91 c 1.957 0 3.543 1.586 3.543 3.543 v 16.914 c 0 1.957 -1.586 3.543 -3.543 3.543 h -12.91 c -1.957 0 -3.543 -1.586 -3.543 -3.543 v -16.914 c 0 -1.957 1.586 -3.543 3.543 -3.543" style=""/>
  <path d="m 29 29 c 0 2.762 -2.238 5 -5 5 s -5 -2.238 -5 -5 2.238 -5 5 -5 5 2.238 5 5" style=""/>
  <path d="m 27 18 c 0 1.656 -1.344 3 -3 3 s -3 -1.344 -3 -3 1.344 -3 3 -3 3 1.344 3 3" style=""/>
 </g>
 <path d="m 17.543 11 h 12.91 c 1.957 0 3.543 1.586 3.543 3.543 v 16.914 c 0 1.957 -1.586 3.543 -3.543 3.543 h -12.91 c -1.957 0 -3.543 -1.586 -3.543 -3.543 v -16.914 c 0 -1.957 1.586 -3.543 3.543 -3.543" style="fill:#ff6636"/>
 <path d="m 29 28 c 0 2.762 -2.238 5 -5 5 s -5 -2.238 -5 -5 2.238 -5 5 -5 5 2.238 5 5" style="fill:#f9f9f9"/>
 <path d="m 27 17 c 0 1.656 -1.344 3 -3 3 s -3 -1.344 -3 -3 1.344 -3 3 -3 3 1.344 3 3" style="fill:#f9f9f9"/>
 <path d="m 1 39 v 4 c 0 2.216 1.784 4 4 4 h 38 c 2.216 0 4 -1.784 4 -4 v -4 c 0 2.216 -1.784 4 -4 4 h -38 c -2.216 0 -4 -1.784 -4 -4 z" style="opacity:.1"/>
</svg>
