<svg style="" viewBox="0 0 48 48" xmlns="http://www.w3.org/2000/svg" xmlns:xlink="http://www.w3.org/1999/xlink">
 <defs style="">
  <linearGradient id="linearGradient3764" gradientTransform="translate(-48 .002215)" gradientUnits="userSpaceOnUse" style="" x1="1" x2="47">
   <stop offset="0" style="stop-color:#595959"/>
   <stop offset="1" style="stop-color:#636363"/>
  </linearGradient>
 </defs>
 <path d="m 1 43 v .25 c 0 2.216 1.784 4 4 4 h 38 c 2.216 0 4 -1.784 4 -4 v -.25 c 0 2.216 -1.784 4 -4 4 h -38 c -2.216 0 -4 -1.784 -4 -4 z m 0 .5 v .5 c 0 2.216 1.784 4 4 4 h 38 c 2.216 0 4 -1.784 4 -4 v -.5 c 0 2.216 -1.784 4 -4 4 h -38 c -2.216 0 -4 -1.784 -4 -4 z" style="opacity:.02"/>
 <path d="m 1 43.25 v .25 c 0 2.216 1.784 4 4 4 h 38 c 2.216 0 4 -1.784 4 -4 v -.25 c 0 2.216 -1.784 4 -4 4 h -38 c -2.216 0 -4 -1.784 -4 -4 z" style="opacity:.05"/>
 <path d="m 1 43 v .25 c 0 2.216 1.784 4 4 4 h 38 c 2.216 0 4 -1.784 4 -4 v -.25 c 0 2.216 -1.784 4 -4 4 h -38 c -2.216 0 -4 -1.784 -4 -4 z" style="opacity:.1"/>
 <rect height="46" rx="4" style="fill:url(#linearGradient3764)" transform="rotate(-90)" width="46" x="-47" y="1"/>
 <g style="opacity:.1">
  <path d="m 32.35 19 c .867 -2 .867 -4 0 -7 -1.742 0 -3.48 2 -4.348 4" style=""/>
  <path d="m 23.887 11 h .227 c .488 0 .883 .395 .883 .883 v 4.23 c 0 .488 -.395 .883 -.883 .883 h -.227 c -.492 0 -.887 -.395 -.887 -.883 v -4.23 c 0 -.488 .395 -.883 .887 -.883" style=""/>
  <path d="m 15.652 19 c -.871 -2 -.871 -4 0 -7 1.738 0 3.477 2 4.348 4" style=""/>
  <path d="m 22 14.188 c -5.121 .941 -9 5.422 -9 10.813 0 6.074 4.926 11 11 11 s 11 -4.926 11 -11 c 0 -5.391 -3.879 -9.871 -9 -10.813 v 3.03 c 0 .98 -.801 1.781 -1.781 1.781 h -.438 c -.98 0 -1.781 -.801 -1.781 -1.781 m -1 1.781 c .551 0 1 .449 1 1 0 .555 -.449 1 -1 1 s -1 -.445 -1 -1 c 0 -.551 .449 -1 1 -1 m 6 0 c .551 0 1 .449 1 1 0 .555 -.449 1 -1 1 s -1 -.445 -1 -1 c 0 -.551 .449 -1 1 -1 m -3 6 c .75 -.004 1.5 .281 2 1 -.445 1.738 -1.086 2.809 -1.75 3 v 2.563 c 1.168 -.023 2.352 -.207 3.75 -.563 v .375 c -3 .863 -5 .793 -8 0 v -.375 c 1.398 .355 2.582 .539 3.75 .563 v -2.563 c -.664 -.191 -1.305 -1.262 -1.75 -3 .5 -.695 1.25 -.992 2 -1" style=""/>
 </g>
 <path d="m 32.35 18 c .867 -2 .867 -4 0 -7 -1.742 0 -3.48 2 -4.348 4" style="fill:#f9f9f9"/>
 <path d="m 23.887 10 h .227 c .488 0 .883 .395 .883 .883 v 4.23 c 0 .488 -.395 .883 -.883 .883 h -.227 c -.492 0 -.887 -.395 -.887 -.883 v -4.23 c 0 -.488 .395 -.883 .887 -.883" style="fill:#e5c836"/>
 <path d="m 15.652 18 c -.871 -2 -.871 -4 0 -7 1.738 0 3.477 2 4.348 4" style="fill:#f9f9f9"/>
 <path d="m 22 13.188 c -5.121 .941 -9 5.422 -9 10.813 0 6.074 4.926 11 11 11 s 11 -4.926 11 -11 c 0 -5.391 -3.879 -9.871 -9 -10.813 v 3.03 c 0 .98 -.801 1.781 -1.781 1.781 h -.438 c -.98 0 -1.781 -.801 -1.781 -1.781 m -1 1.781 c .551 0 1 .449 1 1 0 .555 -.449 1 -1 1 s -1 -.445 -1 -1 c 0 -.551 .449 -1 1 -1 m 6 0 c .551 0 1 .449 1 1 0 .555 -.449 1 -1 1 s -1 -.445 -1 -1 c 0 -.551 .449 -1 1 -1 m -3 6 c .75 -.004 1.5 .281 2 1 -.445 1.738 -1.086 2.809 -1.75 3 v 2.563 c 1.168 -.023 2.352 -.207 3.75 -.563 v .375 c -3 .863 -5 .793 -8 0 v -.375 c 1.398 .355 2.582 .539 3.75 .563 v -2.563 c -.664 -.191 -1.305 -1.262 -1.75 -3 .5 -.695 1.25 -.992 2 -1" style="fill:#f9f9f9"/>
 <path d="m 1 39 v 4 c 0 2.216 1.784 4 4 4 h 38 c 2.216 0 4 -1.784 4 -4 v -4 c 0 2.216 -1.784 4 -4 4 h -38 c -2.216 0 -4 -1.784 -4 -4 z" style="opacity:.1"/>
</svg>
