<svg id="svg4430" version="1.1" viewBox="0 0 48 48" xmlns="http://www.w3.org/2000/svg">
 <defs id="defs4390">
  <linearGradient id="linearGradient3764" x1="1" x2="47" gradientTransform="translate(-48 .0022147)" gradientUnits="userSpaceOnUse">
   <stop id="stop4375" stop-color="#01a7dd" offset="0"/>
   <stop id="stop4377" stop-color="#01b3f1" offset="1"/>
  </linearGradient>
  <clipPath id="clipPath-068848447">
   <g id="g4382" transform="translate(0 -1004.4)">
    <rect id="rect4380" x="1" y="1005.4" width="46" height="46" rx="4" fill="#1890d0"/>
   </g>
  </clipPath>
  <clipPath id="clipPath-081798140">
   <g id="g4387" transform="translate(0 -1004.4)">
    <rect id="rect4385" x="1" y="1005.4" width="46" height="46" rx="4" fill="#1890d0"/>
   </g>
  </clipPath>
 </defs>
 <g id="g4398">
  <path id="path4392" d="m1 43v0.25c0 2.216 1.784 4 4 4h38c2.216 0 4-1.784 4-4v-0.25c0 2.216-1.784 4-4 4h-38c-2.216 0-4-1.784-4-4zm0 0.5v0.5c0 2.216 1.784 4 4 4h38c2.216 0 4-1.784 4-4v-0.5c0 2.216-1.784 4-4 4h-38c-2.216 0-4-1.784-4-4z" opacity=".02"/>
  <path id="path4394" d="m1 43.25v0.25c0 2.216 1.784 4 4 4h38c2.216 0 4-1.784 4-4v-0.25c0 2.216-1.784 4-4 4h-38c-2.216 0-4-1.784-4-4z" opacity=".05"/>
  <path id="path4396" d="m1 43v0.25c0 2.216 1.784 4 4 4h38c2.216 0 4-1.784 4-4v-0.25c0 2.216-1.784 4-4 4h-38c-2.216 0-4-1.784-4-4z" opacity=".1"/>
 </g>
 <g id="g4402">
  <rect id="rect4400" transform="rotate(-90)" x="-47" y="1" width="46" height="46" rx="4" fill="url(#linearGradient3764)"/>
 </g>
 <g id="g4412">
  <g id="g4410" clip-path="url(#clipPath-068848447)">
   <g id="g4408" opacity=".1">
    <g id="g4406">
     <path id="path4404" d="m20.383 14c0.078-4e-3 0.133 0.023 0.176 0.09 0.215 0.379-0.215 1.613 0.109 2.254 0.324 0.645 0.324 0.805 2.906 0.484 2.582-0.324 6.457 0.801 7.859 2.195 1.398 1.395 3.82 4.938 4.305 6.973 0.484 2.039 0.273 2.145-0.375 1.824-0.645-0.32-1.184-3.16-5.01-5.04-3.824-1.879-5.602-0.379-5.602-0.379s3.285-0.43 5.707 1.555c2.426 1.984 3.93 3.539 3.879 4.129-0.055 0.59-0.273 0.484-0.648 0-0.379-0.48-2.637-3.434-5.328-4.395-2.688-0.965-3.82-0.91-4.84-0.375-1.023 0.535-1.242 1.07 0.211 1.449 1.453 0.375 2.047 0.215 2.047 0.215s-1.238 1.121-3.01 1.121c-1.777 0-2.852-0.105-2.852-0.105s-4.414 4.559-5.547 5.473c-1.129 0.91-2.367 0.484-2.367-0.055 0-0.535 0.539-2.035 0.539-2.035s-1.125-2.523 0.164-5.367c1.293-2.84 4.844-5.789 4.844-5.789s0.375-1.609 1.18-2.68c0.656-0.871 1.316-1.527 1.652-1.543"/>
    </g>
   </g>
  </g>
 </g>
 <g id="g4422">
  <g id="g4420" clip-path="url(#clipPath-081798140)">
   <g id="g4418" transform="translate(0,-1)">
    <g id="g4416">
     <path id="path4414" d="m20.383 14c0.078-4e-3 0.133 0.023 0.176 0.09 0.215 0.379-0.215 1.613 0.109 2.254 0.324 0.645 0.324 0.805 2.906 0.484 2.582-0.324 6.457 0.801 7.859 2.195 1.398 1.395 3.82 4.938 4.305 6.973 0.484 2.039 0.273 2.145-0.375 1.824-0.645-0.32-1.184-3.16-5.01-5.04-3.824-1.879-5.602-0.379-5.602-0.379s3.285-0.43 5.707 1.555c2.426 1.984 3.93 3.539 3.879 4.129-0.055 0.59-0.273 0.484-0.648 0-0.379-0.48-2.637-3.434-5.328-4.395-2.688-0.965-3.82-0.91-4.84-0.375-1.023 0.535-1.242 1.07 0.211 1.449 1.453 0.375 2.047 0.215 2.047 0.215s-1.238 1.121-3.01 1.121c-1.777 0-2.852-0.105-2.852-0.105s-4.414 4.559-5.547 5.473c-1.129 0.91-2.367 0.484-2.367-0.055 0-0.535 0.539-2.035 0.539-2.035s-1.125-2.523 0.164-5.367c1.293-2.84 4.844-5.789 4.844-5.789s0.375-1.609 1.18-2.68c0.656-0.871 1.316-1.527 1.652-1.543" fill="#f9f9f9"/>
    </g>
   </g>
  </g>
 </g>
 <g id="g4428">
  <g id="g4426" transform="translate(0 -1004.4)">
   <path id="path4424" d="m1 1043.4v4c0 2.216 1.784 4 4 4h38c2.216 0 4-1.784 4-4v-4c0 2.216-1.784 4-4 4h-38c-2.216 0-4-1.784-4-4z" opacity=".1"/>
  </g>
 </g>
</svg>
