<svg version="1.1" viewBox="0 0 48 48" xmlns="http://www.w3.org/2000/svg">
 <defs>
  <linearGradient id="bg" x2="0" y1="1" y2="47" gradientUnits="userSpaceOnUse">
   <stop style="stop-color:#378edd" offset="0"/>
   <stop style="stop-color:#2684da" offset="1"/>
  </linearGradient>
 </defs>
 <path d="m1 43v0.25c0 2.216 1.784 4 4 4h38c2.216 0 4-1.784 4-4v-0.25c0 2.216-1.784 4-4 4h-38c-2.216 0-4-1.784-4-4zm0 0.5v0.5c0 2.216 1.784 4 4 4h38c2.216 0 4-1.784 4-4v-0.5c0 2.216-1.784 4-4 4h-38c-2.216 0-4-1.784-4-4z" style="opacity:.02"/>
 <path d="m1 43.25v0.25c0 2.216 1.784 4 4 4h38c2.216 0 4-1.784 4-4v-0.25c0 2.216-1.784 4-4 4h-38c-2.216 0-4-1.784-4-4z" style="opacity:.05"/>
 <path d="m1 43v0.25c0 2.216 1.784 4 4 4h38c2.216 0 4-1.784 4-4v-0.25c0 2.216-1.784 4-4 4h-38c-2.216 0-4-1.784-4-4z" style="opacity:.1"/>
 <rect x="1" y="1" width="46" height="46" rx="4" style="fill:url(#bg)"/>
 <path d="m1 39v4c0 2.216 1.784 4 4 4h38c2.216 0 4-1.784 4-4v-4c0 2.216-1.784 4-4 4h-38c-2.216 0-4-1.784-4-4z" style="opacity:.1"/>
 <path d="m12 31v2h24v-2z" style="opacity:.1"/>
 <path d="m12 15.002v3.0012l13 1.9972 3.93e-4 -3.9992-0.99921-1.9984h-10.998c-0.49961 0-0.99921 0.49961-0.99921 0.99921z" style="fill:#ff8f00"/>
 <rect x="13.998" y="17" width="10.998" height="4.0004" style="fill:#fffdf0"/>
 <path d="m35.999 17.067v14.935h-23.999v-14h12.001l0.99921-1.9984h9.9992c0.49961 0 0.99921 0.53504 0.99921 1.0665z" style="fill:#ffca28"/>
 <path d="m26.184 19.743c-0.04606 0-0.07795 0.01063-0.10276 0.04961-0.12402 0.21968 0.12047 0.92835-0.06732 1.3004-0.18425 0.37205-0.18425 0.46417-1.6689 0.27992-1.4846-0.18425-3.7081 0.46594-4.5106 1.265-0.80966 0.8061-2.1933 2.8453-2.4803 4.0217-0.27284 1.1764-0.14882 1.2366 0.22323 1.0559 0.3685-0.1878 0.68032-1.8283 2.8665-2.9055 2.1968-1.0807 3.2209-0.21968 3.2209-0.21968s-1.8886-0.25158-3.2776 0.89646c-1.389 1.148-2.2571 2.0374-2.2252 2.3917 0.03189 0.34016 0.15236 0.26929 0.37559 0 0.21614-0.27992 1.513-1.9807 3.0579-2.5406 1.5449-0.56338 2.1933-0.52441 2.7815-0.21614 0.58819 0.30827 0.71575 0.60945-0.11693 0.82559-0.83976 0.22323-1.1799 0.12402-1.1799 0.12402s0.7122 0.64842 1.7256 0.64842c1.024 0 1.6441-0.06378 1.6441-0.06378s2.5299 2.6291 3.1819 3.1571c0.64488 0.52441 1.3642 0.27638 1.3642-0.0035 0-0.30827-0.31181-1.1764-0.31181-1.1764s0.64842-1.4563-0.09921-3.0933c-0.74055-1.6406-2.7815-3.3343-2.7815-3.3343s-0.21614-0.92835-0.67677-1.5484c-0.37559-0.49961-0.75472-0.87874-0.94961-0.88583m-10.527 7.4906c-0.08858 0-0.18425 0.02835-0.26929 0.07795-0.7122 0.40039-0.34016 1.1161 0.27992 1.1161 0.61654 0 1.2968-0.25158 1.2968-0.25158s-0.6626-0.96732-1.3075-0.94252m1.3677 1.1906s-1.3854 0.2126-1.5413 0.86457c-0.1559 0.64842 0.5811 0.83622 1.0453 0.49606 0.46417-0.34016 0.49606-1.3606 0.49606-1.3606" style="fill:#6a6034;opacity:.6"/>
</svg>
