<?xml version="1.0" encoding="UTF-8"?>
<svg version="1.1" viewBox="0 0 48 48" xmlns="http://www.w3.org/2000/svg">
 <defs>
  <linearGradient id="bg" x2="0" y1="1" y2="47" gradientUnits="userSpaceOnUse">
   <stop style="stop-color:#bcc8f6" offset="0"/>
   <stop style="stop-color:#a9b8f3" offset="1"/>
  </linearGradient>
 </defs>
 <path d="m1 43v0.25c0 2.22 1.78 4 4 4h38c2.22 0 4-1.78 4-4v-0.25c0 2.22-1.78 4-4 4h-38c-2.22 0-4-1.78-4-4zm0 0.5v0.5c0 2.22 1.78 4 4 4h38c2.22 0 4-1.78 4-4v-0.5c0 2.22-1.78 4-4 4h-38c-2.22 0-4-1.78-4-4z" style="opacity:.02"/>
 <path d="m1 43.2v0.25c0 2.22 1.78 4 4 4h38c2.22 0 4-1.78 4-4v-0.25c0 2.22-1.78 4-4 4h-38c-2.22 0-4-1.78-4-4z" style="opacity:.05"/>
 <path d="m1 43v0.25c0 2.22 1.78 4 4 4h38c2.22 0 4-1.78 4-4v-0.25c0 2.22-1.78 4-4 4h-38c-2.22 0-4-1.78-4-4z" style="opacity:.1"/>
 <rect x="1" y="1" width="46" height="46" rx="4" style="fill:url(#bg)"/>
 <path d="m1 39v4c0 2.22 1.78 4 4 4h38c2.22 0 4-1.78 4-4v-4c0 2.22-1.78 4-4 4h-38c-2.22 0-4-1.78-4-4z" style="opacity:.1"/>
 <path d="m11 18v12h5c4.43 0 8-2.68 8-6s-3.57-6-8-6zm20 3c-3.31 0-6 2.01-6 4.5s2.69 4.5 6 4.5 6-2.01 6-4.5-2.69-4.5-6-4.5zm-15 1c1.66 0 3 0.6 3 2s-1.34 2-3 2zm15 2c0.777 0 1 0.669 1 1.5l-1 1.5-1-1.5c0-0.831 0.223-1.5 1-1.5z" style="opacity:.1"/>
 <path d="m11 17v12h5c4.43 0 8-2.68 8-6s-3.57-6-8-6zm20 3c-3.31 0-6 2.01-6 4.5s2.69 4.5 6 4.5 6-2.01 6-4.5-2.69-4.5-6-4.5zm-15 1c1.66 0 3 0.6 3 2s-1.34 2-3 2zm15 2c0.777 0 1 0.669 1 1.5s-0.223 1.5-1 1.5-1-0.669-1-1.5 0.223-1.5 1-1.5z" style="fill:#f9f9f9"/>
</svg>
