<svg id="svg4556" version="1.1" viewBox="0 0 48 48" xmlns="http://www.w3.org/2000/svg">
 <defs id="defs4516">
  <linearGradient id="linearGradient3764" x1="1" x2="47" gradientTransform="translate(-48 .0022147)" gradientUnits="userSpaceOnUse">
   <stop id="stop4501" stop-color="#646354" offset="0"/>
   <stop id="stop4503" stop-color="#6f6e5e" offset="1"/>
  </linearGradient>
  <clipPath id="clipPath-270381619">
   <g id="g4508" transform="translate(0 -1004.4)">
    <rect id="rect4506" x="1" y="1005.4" width="46" height="46" rx="4" fill="#1890d0"/>
   </g>
  </clipPath>
  <clipPath id="clipPath-282980396">
   <g id="g4513" transform="translate(0 -1004.4)">
    <rect id="rect4511" x="1" y="1005.4" width="46" height="46" rx="4" fill="#1890d0"/>
   </g>
  </clipPath>
 </defs>
 <g id="g4524">
  <path id="path4518" d="m1 43v0.25c0 2.216 1.784 4 4 4h38c2.216 0 4-1.784 4-4v-0.25c0 2.216-1.784 4-4 4h-38c-2.216 0-4-1.784-4-4zm0 0.5v0.5c0 2.216 1.784 4 4 4h38c2.216 0 4-1.784 4-4v-0.5c0 2.216-1.784 4-4 4h-38c-2.216 0-4-1.784-4-4z" opacity=".02"/>
  <path id="path4520" d="m1 43.25v0.25c0 2.216 1.784 4 4 4h38c2.216 0 4-1.784 4-4v-0.25c0 2.216-1.784 4-4 4h-38c-2.216 0-4-1.784-4-4z" opacity=".05"/>
  <path id="path4522" d="m1 43v0.25c0 2.216 1.784 4 4 4h38c2.216 0 4-1.784 4-4v-0.25c0 2.216-1.784 4-4 4h-38c-2.216 0-4-1.784-4-4z" opacity=".1"/>
 </g>
 <g id="g4528">
  <rect id="rect4526" transform="rotate(-90)" x="-47" y="1" width="46" height="46" rx="4" fill="url(#linearGradient3764)"/>
 </g>
 <g id="g4538">
  <g id="g4536" clip-path="url(#clipPath-270381619)">
   <g id="g4534" opacity=".1">
    <g id="g4532">
     <path id="path4530" d="m15.09 12c0.766 0.035 1.531 0.387 2.063 0.938l6.844 6.844 6.938-6.844c0.801-0.691 1.34-0.906 2.063-0.938m-21 3v18c0-0.797 0.277-1.594 0.855-2.156l6.844-6.75-6.844-6.844c-0.629-0.57-0.91-1.41-0.855-2.25m24 0c0 0.859-0.102 1.652-0.75 2.25l-6.844 6.844 6.75 6.75c0.566 0.57 0.844 1.348 0.844 2.156m-12-4.688-6.844 6.844c-0.563 0.57-1.363 0.844-2.156 0.844h18c-0.797 0-1.594-0.277-2.145-0.844"/>
    </g>
   </g>
  </g>
 </g>
 <g id="g4548">
  <g id="g4546" clip-path="url(#clipPath-282980396)">
   <g id="g4544" transform="translate(0,-1)">
    <g id="g4542">
     <path id="path4540" d="m15.09 12c0.766 0.035 1.531 0.387 2.063 0.938l6.844 6.844 6.938-6.844c0.801-0.691 1.34-0.906 2.063-0.938m-21 3v18c0-0.797 0.277-1.594 0.855-2.156l6.844-6.75-6.844-6.844c-0.629-0.57-0.91-1.41-0.855-2.25m24 0c0 0.859-0.102 1.652-0.75 2.25l-6.844 6.844 6.75 6.75c0.566 0.57 0.844 1.348 0.844 2.156m-12-4.688-6.844 6.844c-0.563 0.57-1.363 0.844-2.156 0.844h18c-0.797 0-1.594-0.277-2.145-0.844" fill="#dcb200"/>
    </g>
   </g>
  </g>
 </g>
 <g id="g4554">
  <g id="g4552" transform="translate(0 -1004.4)">
   <path id="path4550" d="m1 1043.4v4c0 2.216 1.784 4 4 4h38c2.216 0 4-1.784 4-4v-4c0 2.216-1.784 4-4 4h-38c-2.216 0-4-1.784-4-4z" opacity=".1"/>
  </g>
 </g>
</svg>
