<svg version="1.1" viewBox="0 0 48 48" xmlns="http://www.w3.org/2000/svg">
 <defs>
  <linearGradient id="bg" x1="1" x2="47" style="" gradientTransform="translate(-48)" gradientUnits="userSpaceOnUse">
   <stop style="stop-color:#3d3d3d" offset="0"/>
   <stop style="stop-color:#474747" offset="1"/>
  </linearGradient>
 </defs>
 <path d="m1 43v0.25c0 2.22 1.78 4 4 4h38c2.22 0 4-1.78 4-4v-0.25c0 2.22-1.78 4-4 4h-38c-2.22 0-4-1.78-4-4zm0 0.5v0.5c0 2.22 1.78 4 4 4h38c2.22 0 4-1.78 4-4v-0.5c0 2.22-1.78 4-4 4h-38c-2.22 0-4-1.78-4-4z" style="opacity:.02"/>
 <path d="m1 43.2v0.25c0 2.22 1.78 4 4 4h38c2.22 0 4-1.78 4-4v-0.25c0 2.22-1.78 4-4 4h-38c-2.22 0-4-1.78-4-4z" style="opacity:.05"/>
 <path d="m1 43v0.25c0 2.22 1.78 4 4 4h38c2.22 0 4-1.78 4-4v-0.25c0 2.22-1.78 4-4 4h-38c-2.22 0-4-1.78-4-4z" style="opacity:.1"/>
 <rect transform="rotate(-90)" x="-47" y="1" width="46" height="46" rx="4" style="fill:url(#bg)"/>
 <path d="m12.3 12.4c0.168 1.69 0.227 3.37-0.247 5.12 0.51 1.97 0.216 4.11 1.14 5.84 0.27 0.964-1.48 0.842-0.766 2.16-0.0359 1.57 0.976 2.57 0.322 4.21-0.665 1.2-0.288 2.93-0.491 4.37 0.0947 1.64 2.8 0.651 4.03 0.834 1.63 0.0295 3.11 0.0765 4.71 0.0855 0.935-0.685 1.21 1.74 1.53 0.468 1.29-0.103 2.26 0.816 3.43-0.114 1.77 0.0265 3.57-0.186 5.17-0.0431 0.819-0.0391 2.65 0.373 2.47-0.466 1.12-0.229 2.95 1.14 2.42-0.818-7e-3 -2.8-0.0159-5.61-0.0201-8.41-1.69 0.52 0.394-1.46-0.361-2.34-0.275-0.976-0.893-1.92-0.371-2.65 1.1-1.45 0.573-3.79 0.681-5.65-0.598-0.739 0.632-2.11-0.613-2.31m-18.3 3.25 16.2 11c-0.428 1.54-0.857 3.07-1.28 4.6-1.31-0.148-3.03 0.687-3.82-0.712-4.47-4.78-8.94-9.55-13.4-14.3m15.2-0.398c0.594 0.314 1.19 0.627 1.78 0.941-0.165 1.16-0.331 2.31-0.496 3.46-0.839 0.108-1.44-0.892-2.17-1.28l-2.92-2.23m-9.52 9.06c1.61 1.62 3.22 3.23 4.84 4.85-1.55 0.444-3.61 1.81-5.03 0.438-0.429-0.362-0.859-0.725-1.29-1.09" style="opacity:.1"/>
 <path d="m25.9 11c-1.47 0.195-3.17-0.291-4.49 0.343-0.732 0.8-1.97 0.32-2.96 0.491-0.0317-0.546-1.74-0.204-2.51-0.335-1.22-0.0277-2.44-0.0554-3.66-0.0832-0.321 1.23 0.597 2.28 0.0471 3.54-0.411 0.939-0.264 1.92-0.105 2.89-0.0484 1.05 0.686 2 0.346 3.04 0.0077 0.853 1.47 2.14-0.102 2.39-0.238 0.858 0.0557 1.91 0.0205 2.84 1.07 0.547 0.239 2.18 0.0586 2.93-0.358 1.18-0.144 2.57-0.294 3.83-0.225 0.851 0.0994 0.999 0.882 1.06 1.06 0.352 2.15-0.13 3.29-0.0191 1.21 0.0045 2.32 0.202 3.49 0.019 0.63 0.411 1.68-0.384 2.02 0.48 0.359 0.486 0.334 0.698 0.584 0.0763 0.781-0.145 1.34 0.309 2.03 0.263 0.698 0.229 1.52-0.755 2.43-0.419 0.888-0.095 1.77 0.115 2.66 0.036 1.1-0.526 2.45 0.363 3.7-0.0379 0.573-0.0929-0.287-0.606 0.55-0.478 0.983-0.1 2.56 1.03 2.11-0.654-7e-3 -2.85-0.0162-5.71-0.0205-8.56-0.644 0.274-1.09-0.0513-0.416-0.571 0.516-1.34-0.412-2.62-0.564-3.81 0.626-0.251-0.107-0.999 0.735-1.15 0.26-1.67 0.213-3.36 0.21-5.04-0.518-0.88 0.613-2.5-1.01-2.45-0.782-0.0182-1.81-0.663-2.32 0.0045-0.385-0.864-1.66-0.272-2.46-0.466-0.728 0.198-2.22-0.511-2.31 0.443-0.422 0.913-1.24 0.124-1.72-0.111-0.192-0.0285-0.385-0.0569-0.577-0.0854m-8.52 3.54 16.2 11c-0.428 1.54-0.857 3.07-1.28 4.6-1.04-0.0748-2.27 0.285-3.2-0.0506-4.67-5-9.35-9.99-14-15m15.2-0.398c0.594 0.314 1.19 0.627 1.78 0.941-0.165 1.16-0.331 2.31-0.496 3.46-0.658 0.216-1.1-0.6-1.64-0.886-1.15-0.875-2.3-1.75-3.44-2.63m-9.52 9.06c1.61 1.62 3.22 3.23 4.84 4.85-1.19 0.307-2.31 1.09-3.55 0.994-0.691 0.121-1.21-0.264-1.66-0.714-0.367-0.31-0.734-0.62-1.1-0.93" style="fill:#e0573e"/>
 <path d="m1 39v4c0 2.22 1.78 4 4 4h38c2.22 0 4-1.78 4-4v-4c0 2.22-1.78 4-4 4h-38c-2.22 0-4-1.78-4-4z" style="opacity:.1"/>
</svg>
