<svg version="1.1" viewBox="0 0 48 48" xmlns="http://www.w3.org/2000/svg">
 <defs>
  <linearGradient id="bg" x2="0" y1="1" y2="47" gradientUnits="userSpaceOnUse">
   <stop style="stop-color:#2d52a5" offset="0"/>
   <stop style="stop-color:#294a95" offset="1"/>
  </linearGradient>
 </defs>
 <path d="m1 43v0.25c0 2.216 1.784 4 4 4h38c2.216 0 4-1.784 4-4v-0.25c0 2.216-1.784 4-4 4h-38c-2.216 0-4-1.784-4-4zm0 0.5v0.5c0 2.216 1.784 4 4 4h38c2.216 0 4-1.784 4-4v-0.5c0 2.216-1.784 4-4 4h-38c-2.216 0-4-1.784-4-4z" style="opacity:.02"/>
 <path d="m1 43.25v0.25c0 2.216 1.784 4 4 4h38c2.216 0 4-1.784 4-4v-0.25c0 2.216-1.784 4-4 4h-38c-2.216 0-4-1.784-4-4z" style="opacity:.05"/>
 <path d="m1 43v0.25c0 2.216 1.784 4 4 4h38c2.216 0 4-1.784 4-4v-0.25c0 2.216-1.784 4-4 4h-38c-2.216 0-4-1.784-4-4z" style="opacity:.1"/>
 <rect x="1" y="1" width="46" height="46" rx="4" style="fill:url(#bg)"/>
 <path d="m1 39v4c0 2.216 1.784 4 4 4h38c2.216 0 4-1.784 4-4v-4c0 2.216-1.784 4-4 4h-38c-2.216 0-4-1.784-4-4z" style="opacity:.1"/>
 <path d="m29 11c0 2.6987-8e-3 5.2749-0.35352 7.5156-1.9789-2.0131-4.3612-3.5156-7.6465-3.5156-2 0-9 1-9 9 0 5 3.5 8 7.5 8 2.5781 0 4.6629-0.30433 6.3535-0.85352l-3.8535 3.8535h14v-15l-3 4c-0.33288-0.44384-0.68256-0.91278-1.0195-1.373 0.0077-0.20827 0.01953-0.41353 0.01953-0.62695 0-7-3-11-3-11zm-9.5 11c1.3576 0 2.8533 1.4923 4.1055 3.4805-1.0083 0.32599-2.1831 0.51953-3.6055 0.51953-4 0-4-2-4-3 1-1 2.5204-1 3.5-1z" style="opacity:.1"/>
 <path d="m21 14c-2 0-9 1-9 9 0 5 3.5 8 7.5 8 9.5 0 12.5-4 12.5-10 0-7-3-11-3-11 0 8 0 15-9 15-4 0-4-2-4-3z" style="fill:#31bd65"/>
 <path d="m28.637 17.572c-0.50912 3.2382-1.7583 5.7456-4.7812 6.8301 1.1546 1.5167 2.1678 3.5235 2.8008 5.4648 3.8399-1.5525 5.2667-4.611 5.334-8.5742-1.0173-1.3431-2.0971-2.6464-3.3535-3.7207z" style="opacity:.1"/>
 <path d="m28.5 18.369c-0.63948 3.121-2.1044 5.4519-5.4492 6.2891 1.1368 1.5708 2.1126 3.5983 2.7012 5.5234 4.0613-1.2816 5.805-4.0065 6.166-7.6406-1.0586-1.4452-2.1473-2.9087-3.418-4.1719z" style="opacity:.1"/>
 <path d="m36 34v-15l-3 4c-3-4-6-9-12-9-3 0-5 4-5 8 1-1 2.5204-1 3.5-1 2.5 0 5.5 5 6.5 9l-4 4z" style="fill:#f3ad2b"/>
</svg>
