<svg id="svg4812" version="1.1" viewBox="0 0 48 48" xmlns="http://www.w3.org/2000/svg">
 <defs id="defs4772">
  <linearGradient id="linearGradient3764" x1="1" x2="47" gradientTransform="translate(-48 .0022147)" gradientUnits="userSpaceOnUse">
   <stop id="stop4757" stop-color="#ec9a52" offset="0"/>
   <stop id="stop4759" stop-color="#eea664" offset="1"/>
  </linearGradient>
  <clipPath id="clipPath-915548870">
   <g id="g4764" transform="translate(0 -1004.4)">
    <rect id="rect4762" x="1" y="1005.4" width="46" height="46" rx="4" fill="#1890d0"/>
   </g>
  </clipPath>
  <clipPath id="clipPath-928317489">
   <g id="g4769" transform="translate(0 -1004.4)">
    <rect id="rect4767" x="1" y="1005.4" width="46" height="46" rx="4" fill="#1890d0"/>
   </g>
  </clipPath>
 </defs>
 <g id="g4780">
  <path id="path4774" d="m1 43v0.25c0 2.216 1.784 4 4 4h38c2.216 0 4-1.784 4-4v-0.25c0 2.216-1.784 4-4 4h-38c-2.216 0-4-1.784-4-4zm0 0.5v0.5c0 2.216 1.784 4 4 4h38c2.216 0 4-1.784 4-4v-0.5c0 2.216-1.784 4-4 4h-38c-2.216 0-4-1.784-4-4z" opacity=".02"/>
  <path id="path4776" d="m1 43.25v0.25c0 2.216 1.784 4 4 4h38c2.216 0 4-1.784 4-4v-0.25c0 2.216-1.784 4-4 4h-38c-2.216 0-4-1.784-4-4z" opacity=".05"/>
  <path id="path4778" d="m1 43v0.25c0 2.216 1.784 4 4 4h38c2.216 0 4-1.784 4-4v-0.25c0 2.216-1.784 4-4 4h-38c-2.216 0-4-1.784-4-4z" opacity=".1"/>
 </g>
 <g id="g4784">
  <rect id="rect4782" transform="rotate(-90)" x="-47" y="1" width="46" height="46" rx="4" fill="url(#linearGradient3764)"/>
 </g>
 <g id="g4794">
  <g id="g4792" clip-path="url(#clipPath-915548870)">
   <g id="g4790" opacity=".1">
    <g id="g4788">
     <path id="path4786" d="m14 24h5v-11h10v11h5l-10 11"/>
    </g>
   </g>
  </g>
 </g>
 <g id="g4804">
  <g id="g4802" clip-path="url(#clipPath-928317489)">
   <g id="g4800" transform="translate(0,-1)">
    <g id="g4798">
     <path id="path4796" d="m14 24h5v-11h10v11h5l-10 11" fill="#f9f9f9"/>
    </g>
   </g>
  </g>
 </g>
 <g id="g4810">
  <g id="g4808" transform="translate(0 -1004.4)">
   <path id="path4806" d="m1 1043.4v4c0 2.216 1.784 4 4 4h38c2.216 0 4-1.784 4-4v-4c0 2.216-1.784 4-4 4h-38c-2.216 0-4-1.784-4-4z" opacity=".1"/>
  </g>
 </g>
</svg>
