<svg version="1.1" viewBox="0 0 48 48" xmlns="http://www.w3.org/2000/svg">
 <defs>
  <linearGradient id="bg" x2="0" y1="1" y2="47" gradientUnits="userSpaceOnUse">
   <stop style="stop-color:#d63f30" offset="0"/>
   <stop style="stop-color:#ca3728" offset="1"/>
  </linearGradient>
 </defs>
 <path d="m1 43v0.25c0 2.216 1.784 4 4 4h38c2.216 0 4-1.784 4-4v-0.25c0 2.216-1.784 4-4 4h-38c-2.216 0-4-1.784-4-4zm0 0.5v0.5c0 2.216 1.784 4 4 4h38c2.216 0 4-1.784 4-4v-0.5c0 2.216-1.784 4-4 4h-38c-2.216 0-4-1.784-4-4z" style="opacity:.02"/>
 <path d="m1 43.25v0.25c0 2.216 1.784 4 4 4h38c2.216 0 4-1.784 4-4v-0.25c0 2.216-1.784 4-4 4h-38c-2.216 0-4-1.784-4-4z" style="opacity:.05"/>
 <path d="m1 43v0.25c0 2.216 1.784 4 4 4h38c2.216 0 4-1.784 4-4v-0.25c0 2.216-1.784 4-4 4h-38c-2.216 0-4-1.784-4-4z" style="opacity:.1"/>
 <rect x="1" y="1" width="46" height="46" rx="4" style="fill:url(#bg)"/>
 <path d="m1 39v4c0 2.216 1.784 4 4 4h38c2.216 0 4-1.784 4-4v-4c0 2.216-1.784 4-4 4h-38c-2.216 0-4-1.784-4-4z" style="opacity:.1"/>
 <path d="m18 10-2 2v5h3v1h-2l-3 3v3h1v2h-1v3h4v2h-1l-2 2v3h5v-1h2v3h5v-3h1v3h5v-5h-4v-1h2v-3h1v-1l2-2v-7l-2-2v-4h-2v4h-2v-5l-2-2z" style="fill:#271b17;opacity:.1"/>
 <path d="m30 12v4h-11v3h-4v9h3v3h2v3h9v-3h2v-4h1l2-2v-7l-2-2v-4z" style="fill:#261a16"/>
 <rect x="18" y="27" width="13" height="4" style="fill:#31211c;paint-order:stroke fill markers"/>
 <rect x="30" y="12" width="2" height="1" style="fill:#f9f9f9;paint-order:stroke fill markers"/>
 <path d="m15 35h5v-5h-3l-2 2z" style="fill:#483129"/>
 <rect x="22" y="32" width="5" height="5" style="fill:#483129;paint-order:stroke fill markers;stroke-width:.91287"/>
 <rect x="28" y="32" width="5" height="5" style="fill:#483129;paint-order:stroke fill markers;stroke-width:.91287"/>
 <path d="m17 18-2 2v3h2v-2l1-1h4v-2zm7 0v2h4l1 1v2h2v-3l-2-2zm-8 7v2h6v-2zm8 0v2h6v-2z" style="fill:#808080"/>
 <path d="m18 9-2 2v5h12v-5l-2-2zm-1 8-3 3v3h2v-2l2-2h4v-2zm7 0v2h4l2 2v2h2v-3l-3-3zm-10 8v3h8v-2h-6v-1zm16 0v1h-6v2h8v-3z" style="fill:#614237"/>
 <path d="m19 22h8l-2 2h-4z" style="fill:#ea4d0e"/>
 <path d="m18 10v2h2v-2zm3 0v2h2v-2zm3 0v2h2v-2zm-6 3v2h2v-2zm3 0v2h2v-2zm3 0v2h2v-2z" style="fill:#2d2d2d;paint-order:stroke fill markers"/>
</svg>
