<svg width="48" height="48" viewBox="0 0 48 48.000001" xmlns="http://www.w3.org/2000/svg">
  <defs>
    <linearGradient id="a" x1="-47" x2="-1" gradientUnits="userSpaceOnUse">
      <stop offset="0" stop-color="#e1e1e1"/>
      <stop offset="1" stop-color="#ebebeb"/>
    </linearGradient>
  </defs>
  <path d="M1 43v.25c0 2.216 1.784 4 4 4h38c2.216 0 4-1.784 4-4V43c0 2.216-1.784 4-4 4H5c-2.216 0-4-1.784-4-4zm0 .5v.5c0 2.216 1.784 4 4 4h38c2.216 0 4-1.784 4-4v-.5c0 2.216-1.784 4-4 4H5c-2.216 0-4-1.784-4-4z" opacity=".02"/>
  <path d="M1 43.25v.25c0 2.216 1.784 4 4 4h38c2.216 0 4-1.784 4-4v-.25c0 2.216-1.784 4-4 4H5c-2.216 0-4-1.784-4-4z" opacity=".05"/>
  <path d="M1 43v.25c0 2.216 1.784 4 4 4h38c2.216 0 4-1.784 4-4V43c0 2.216-1.784 4-4 4H5c-2.216 0-4-1.784-4-4z" opacity=".1"/>
  <rect transform="rotate(-90)" x="-47" y="1" width="46" height="46" rx="4" fill="url(#a)"/>
  <path d="M1 39v4c0 2.216 1.784 4 4 4h38c2.216 0 4-1.784 4-4v-4c0 2.216-1.784 4-4 4H5c-2.216 0-4-1.784-4-4zM15 12c-.554 0-1 .446-1 1v7h-3l8 7 3.883-3.398c-.855-.64-1.974-1.734-2.758-2.986C18.878 18.624 18 17.101 18 13.001c0-.554-.446-1-1-1h-2zm6 0c-.554 0-1 .446-1 1v2.6c0 3.753 1.796 6.257 3.463 7.494L27 20h-3v-7c0-.554-.446-1-1-1zm8 9l-3.883 3.398c.855.64 1.974 1.734 2.758 2.986C29.122 29.376 30 30.899 30 34.999c0 .554.446 1 1 1h2c.554 0 1-.446 1-1v-7h3l-8-7zm-4.463 3.906L21 28h3v7c0 .554.446 1 1 1h2c.554 0 1-.446 1-1v-2.6c0-3.753-1.796-6.257-3.463-7.494z" opacity=".1"/>
  <path d="M15 11c-.554 0-1 .446-1 1v7h-3l8 7 3.883-3.398c-.855-.64-1.974-1.734-2.758-2.986C18.878 17.624 18 16.101 18 12.001c0-.554-.446-1-1-1" fill="#d89f54"/>
  <path d="M21 11c-.554 0-1 .446-1 1v2.6c0 3.753 1.796 6.257 3.463 7.494L27 19h-3v-7c0-.554-.446-1-1-1z" fill="#646464"/>
  <path d="M15 12v8h-1.34L19 24.672l2.465-2.156c-.755-.682-1.553-1.356-2.188-2.369C18.02 18.137 17 16.245 17 12.002z" fill="#c3822d"/>
  <path d="M21 12v2.6c0 3.01 1.282 4.913 2.553 6.088l.785-.688H23v-8z" fill="#464646"/>
  <path d="M33 35c.554 0 1-.446 1-1v-7h3l-8-7-3.883 3.398c.855.64 1.974 1.734 2.758 2.986C29.122 28.376 30 29.899 30 33.999c0 .554.446 1 1 1" fill="#646464"/>
  <path d="M27 35c.554 0 1-.446 1-1v-2.6c0-3.753-1.796-6.257-3.463-7.494L21 27h3v7c0 .554.446 1 1 1z" fill="#d89f54"/>
  <path d="M33 34v-8h1.34L29 21.328l-2.465 2.156c.755.682 1.553 1.356 2.188 2.369C29.98 27.863 31 29.755 31 33.998L33 34" fill="#464646"/>
  <path d="M27 34v-2.6c0-3.01-1.282-4.913-2.553-6.088l-.785.688H25v8z" fill="#c3822d"/>
</svg>
