<svg version="1.1" viewBox="0 0 48 48" xmlns="http://www.w3.org/2000/svg">
 <defs>
  <linearGradient id="bg" x2="0" y1="1" y2="47" gradientUnits="userSpaceOnUse">
   <stop style="stop-color:#7b848e" offset="0"/>
   <stop style="stop-color:#717a84" offset="1"/>
  </linearGradient>
 </defs>
 <path d="m1 43v0.25c0 2.22 1.78 4 4 4h38c2.22 0 4-1.78 4-4v-0.25c0 2.22-1.78 4-4 4h-38c-2.22 0-4-1.78-4-4zm0 0.5v0.5c0 2.22 1.78 4 4 4h38c2.22 0 4-1.78 4-4v-0.5c0 2.22-1.78 4-4 4h-38c-2.22 0-4-1.78-4-4z" style="opacity:.02"/>
 <path d="m1 43.2v0.25c0 2.22 1.78 4 4 4h38c2.22 0 4-1.78 4-4v-0.25c0 2.22-1.78 4-4 4h-38c-2.22 0-4-1.78-4-4z" style="opacity:.05"/>
 <path d="m1 43v0.25c0 2.22 1.78 4 4 4h38c2.22 0 4-1.78 4-4v-0.25c0 2.22-1.78 4-4 4h-38c-2.22 0-4-1.78-4-4z" style="opacity:.1"/>
 <rect x="1" y="1" width="46" height="46" rx="4" style="fill:url(#bg)"/>
 <path d="m1 39v4c0 2.22 1.78 4 4 4h38c2.22 0 4-1.78 4-4v-4c0 2.22-1.78 4-4 4h-38c-2.22 0-4-1.78-4-4z" style="opacity:.1"/>
 <path d="m16 10c-1.1 0-2 0.895-2 2-1.33e-4 0.715 0.381 1.38 1 1.73v2.27l-3 1v4c0 0.554 0.446 1 1 1h2v4l-3 1v4c0 0.554 0.446 1 1 1h2v2h-1c-0.554 0-1 0.446-1 1s0.446 1 1 1h4c0.554 0 1-0.446 1-1s-0.446-1-1-1h-1v-2h14v2h-1c-0.554 0-1 0.446-1 1s0.446 1 1 1h4c0.554 0 1-0.446 1-1s-0.446-1-1-1h-1v-2h2c0.554 0 1-0.446 1-1v-4l-3-1v-4h2c0.554 0 1-0.446 1-1v-4l-3-1v-2.27c0.619-0.357 1-1.02 1-1.73 0-1.1-0.895-2-2-2s-2 0.895-2 2c-1.33e-4 0.715 0.381 1.38 1 1.73v2.27h-14v-2.27c0.619-0.357 1-1.02 1-1.73 0-1.1-0.895-2-2-2zm1 12h14v4h-14z" style="opacity:.1"/>
 <path d="m15 10v23h-1c-0.554 0-1 0.446-1 1s0.446 1 1 1h4c0.554 0 1-0.446 1-1s-0.446-1-1-1h-1v-23zm16 0v23h-1c-0.554 0-1 0.446-1 1s0.446 1 1 1h4c0.554 0 1-0.446 1-1s-0.446-1-1-1h-1v-23z" style="fill:#4d4d4d"/>
 <path d="m15 10v3.73c0.304 0.175 0.649 0.268 1 0.268 0.351 1.13e-4 0.696-0.0922 1-0.268v-3.73zm16 0v3.73c0.304 0.175 0.649 0.268 1 0.268 0.351 1.13e-4 0.696-0.0922 1-0.268v-3.73zm-16 10v2h2v-2zm16 0v2h2v-2zm-16 10v2h2v-2zm16 0v2h2v-2z" style="opacity:.1"/>
 <path d="m16 15-2.88 2.82-0.881 2.82c0.183 0.217 0.454 0.357 0.762 0.357h3l3-3 1-3zm8 0-3 3-1 3h4l3-3 1-3zm8 0-3 3-1 3h4l2.88-2.82 0.881-2.82c-0.183-0.217-0.454-0.357-0.762-0.357zm-16 10-2.88 2.82-0.881 2.82c0.183 0.217 0.454 0.357 0.762 0.357h3l3-3 1-3zm8 0-3 3-1 3h4l3-3 1-3zm8 0-3 3-1 3h4l2.88-2.82 0.881-2.82c-0.183-0.217-0.454-0.357-0.762-0.357z" style="fill:#e96d58"/>
 <path d="m13 15c-0.554 0-1 0.446-1 1v4c0 0.246 0.0916 0.469 0.238 0.643l3.76-5.64zm7 0-4 6h4l4-6zm8 0-4 6h4l4-6zm7.76 0.357s-3.76 5.64-3.76 5.64h3c0.554 0 1-0.446 1-1v-4c0-0.246-0.0916-0.469-0.238-0.643zm-22.8 9.64c-0.554 0-1 0.446-1 1v4c0 0.246 0.0916 0.469 0.238 0.643l3.76-5.64zm7 0-4 6h4l4-6zm8 0-4 6h4l4-6zm7.76 0.357s-3.76 5.64-3.76 5.64h3c0.554 0 1-0.446 1-1v-4c0-0.246-0.0916-0.469-0.238-0.643z" style="fill:#f9f9f9"/>
 <path d="m16 9a2 2 0 0 0-2 2 2 2 0 0 0 2 2 2 2 0 0 0 2-2 2 2 0 0 0-2-2zm16 0a2 2 0 0 0-2 2 2 2 0 0 0 2 2 2 2 0 0 0 2-2 2 2 0 0 0-2-2z" style="fill:#ecec68"/>
</svg>
