<?xml version="1.0" encoding="UTF-8" standalone="no"?>
<svg
   xmlns:dc="http://purl.org/dc/elements/1.1/"
   xmlns:cc="http://creativecommons.org/ns#"
   xmlns:rdf="http://www.w3.org/1999/02/22-rdf-syntax-ns#"
   xmlns:svg="http://www.w3.org/2000/svg"
   xmlns="http://www.w3.org/2000/svg"
   xmlns:sodipodi="http://sodipodi.sourceforge.net/DTD/sodipodi-0.dtd"
   xmlns:inkscape="http://www.inkscape.org/namespaces/inkscape"
   viewBox="0 0 48 48"
   version="1.1"
   id="svg5172"
   sodipodi:docname="dvdstyler.svg">
  <metadata
     id="metadata5176">
    <rdf:RDF>
      <cc:Work
         rdf:about="">
        <dc:format>image/svg+xml</dc:format>
        <dc:type
           rdf:resource="http://purl.org/dc/dcmitype/StillImage" />
      </cc:Work>
    </rdf:RDF>
  </metadata>
  <sodipodi:namedview
     pagecolor="#ffffff"
     bordercolor="#666666"
     borderopacity="1"
     objecttolerance="10"
     gridtolerance="10"
     guidetolerance="10"
     inkscape:pageopacity="0"
     inkscape:pageshadow="2"
     inkscape:window-width="640"
     inkscape:window-height="480"
     id="namedview5174" />
  <defs
     id="defs5132">
    <linearGradient
       id="linearGradient3764"
       x1="1"
       x2="47"
       gradientUnits="userSpaceOnUse"
       gradientTransform="translate(-48.000001,0.00221467)">
      <stop
         stop-color="#333"
         stop-opacity="1"
         id="stop5117" />
      <stop
         offset="1"
         stop-color="#3d3d3d"
         stop-opacity="1"
         id="stop5119" />
    </linearGradient>
    <clipPath
       id="clipPath-032019043">
      <g
         transform="translate(0,-1004.3622)"
         id="g5124">
        <rect
           rx="4"
           y="1005.36"
           x="1"
           height="46"
           width="46"
           fill="#1890d0"
           id="rect5122" />
      </g>
    </clipPath>
    <clipPath
       id="clipPath-045032304">
      <g
         transform="translate(0,-1004.3622)"
         id="g5129">
        <rect
           rx="4"
           y="1005.36"
           x="1"
           height="46"
           width="46"
           fill="#1890d0"
           id="rect5127" />
      </g>
    </clipPath>
  </defs>
  <g
     id="g5140">
    <path
       d="m 1 43 l 0 0.25 c 0 2.216 1.784 4 4 4 l 38 0 c 2.216 0 4 -1.784 4 -4 l 0 -0.25 c 0 2.216 -1.784 4 -4 4 l -38 0 c -2.216 0 -4 -1.784 -4 -4 z m 0 0.5 l 0 0.5 c 0 2.216 1.784 4 4 4 l 38 0 c 2.216 0 4 -1.784 4 -4 l 0 -0.5 c 0 2.216 -1.784 4 -4 4 l -38 0 c -2.216 0 -4 -1.784 -4 -4 z"
       opacity="0.02"
       id="path5134" />
    <path
       d="m 1 43.25 l 0 0.25 c 0 2.216 1.784 4 4 4 l 38 0 c 2.216 0 4 -1.784 4 -4 l 0 -0.25 c 0 2.216 -1.784 4 -4 4 l -38 0 c -2.216 0 -4 -1.784 -4 -4 z"
       opacity="0.05"
       id="path5136" />
    <path
       d="m 1 43 l 0 0.25 c 0 2.216 1.784 4 4 4 l 38 0 c 2.216 0 4 -1.784 4 -4 l 0 -0.25 c 0 2.216 -1.784 4 -4 4 l -38 0 c -2.216 0 -4 -1.784 -4 -4 z"
       opacity="0.1"
       id="path5138" />
  </g>
  <g
     id="g5144">
    <rect
       width="46"
       height="46"
       x="-47"
       y="1"
       rx="4"
       transform="matrix(0,-1,1,0,0,0)"
       fill="url(#linearGradient3764)"
       fill-opacity="1"
       id="rect5142" />
  </g>
  <g
     id="g5154">
    <g
       clip-path="url(#clipPath-032019043)"
       id="g5152">
      <g
         opacity="0.1"
         id="g5150">
        <!-- color: #3d3d3d -->
        <g
           id="g5148">
          <path
             d="m 24 11 c -7.176 0 -13 5.824 -13 13 c 0 7.176 5.824 13 13 13 c 7.176 0 13 -5.824 13 -13 c 0 -1.348 -0.188 -2.652 -0.566 -3.875 c -0.629 1.289 -1.27 2.5 -1.883 3.445 c 0.055 0.074 0.141 0.145 0.176 0.211 l -0.531 0.109 l -0.035 0.352 l -3.336 4.441 l -0.035 0 c 0.168 0.246 0.273 0.559 0.281 0.926 c 0.043 2.402 -2.477 2.547 -5.648 3.23 c 0 0 1.078 -1.727 1.953 -3.586 c 0.453 -0.965 1.359 -1.363 2.164 -1.281 l 2.313 -5.04 l 0.281 -0.25 l -0.176 -0.531 c 0.078 -0.016 0.164 -0.004 0.25 0 c 0.758 -1.371 1.805 -3.117 2.875 -4.898 c -2.281 -3.742 -6.383 -6.25 -11.08 -6.25 m 0 8.945 c 2.238 0 4.047 1.809 4.047 4.051 c 0 2.238 -1.809 4.086 -4.047 4.086 c -2.242 0 -4.086 -1.848 -4.086 -4.086 c 0 -2.242 1.844 -4.051 4.086 -4.051 m 0 0.816 c -1.801 0 -3.27 1.438 -3.27 3.227 c 0 1.805 1.473 3.273 3.27 3.273 c 1.797 0 3.23 -1.469 3.23 -3.273 c 0 -1.801 -1.434 -3.227 -3.23 -3.227 m 0 1.211 c 1.117 0 2.023 0.902 2.023 2.02 c 0 1.117 -0.906 2.023 -2.023 2.023 c -1.121 0 -2.023 -0.906 -2.023 -2.023 c 0 -1.117 0.902 -2.02 2.023 -2.02 m 0 0"
             stroke="none"
             fill-rule="nonzero"
             fill-opacity="1"
             fill="#000"
             id="path5146" />
        </g>
      </g>
    </g>
  </g>
  <g
     id="g5164">
    <g
       clip-path="url(#clipPath-045032304)"
       id="g5162">
      <g
         transform="translate(0,-1)"
         id="g5160">
        <!-- color: #3d3d3d -->
        <g
           id="g5158">
          <path
             d="m 24 11 c -7.176 0 -13 5.824 -13 13 c 0 7.176 5.824 13 13 13 c 7.176 0 13 -5.824 13 -13 c 0 -1.348 -0.188 -2.652 -0.566 -3.875 c -0.629 1.289 -1.27 2.5 -1.883 3.445 c 0.055 0.074 0.141 0.145 0.176 0.211 l -0.531 0.109 l -0.035 0.352 l -3.336 4.441 l -0.035 0 c 0.168 0.246 0.273 0.559 0.281 0.926 c 0.043 2.402 -2.477 2.547 -5.648 3.23 c 0 0 1.078 -1.727 1.953 -3.586 c 0.453 -0.965 1.359 -1.363 2.164 -1.281 l 2.313 -5.04 l 0.281 -0.25 l -0.176 -0.531 c 0.078 -0.016 0.164 -0.004 0.25 0 c 0.758 -1.371 1.805 -3.117 2.875 -4.898 c -2.281 -3.742 -6.383 -6.25 -11.08 -6.25 m 0 8.945 c 2.238 0 4.047 1.809 4.047 4.051 c 0 2.238 -1.809 4.086 -4.047 4.086 c -2.242 0 -4.086 -1.848 -4.086 -4.086 c 0 -2.242 1.844 -4.051 4.086 -4.051 m 0 0.816 c -1.801 0 -3.27 1.438 -3.27 3.227 c 0 1.805 1.473 3.273 3.27 3.273 c 1.797 0 3.23 -1.469 3.23 -3.273 c 0 -1.801 -1.434 -3.227 -3.23 -3.227 m 0 1.211 c 1.117 0 2.023 0.902 2.023 2.02 c 0 1.117 -0.906 2.023 -2.023 2.023 c -1.121 0 -2.023 -0.906 -2.023 -2.023 c 0 -1.117 0.902 -2.02 2.023 -2.02 m 0 0"
             fill="#f462c7"
             stroke="none"
             fill-rule="nonzero"
             fill-opacity="1"
             id="path5156" />
        </g>
      </g>
    </g>
  </g>
  <g
     id="g5170">
    <g
       transform="translate(0,-1004.3622)"
       id="g5168">
      <path
         d="m 1 1043.36 0 4 c 0 2.216 1.784 4 4 4 l 38 0 c 2.216 0 4 -1.784 4 -4 l 0 -4 c 0 2.216 -1.784 4 -4 4 l -38 0 c -2.216 0 -4 -1.784 -4 -4 z"
         opacity="0.1"
         id="path5166" />
    </g>
  </g>
</svg>
