<svg version="1.1" viewBox="0 0 48 48" xmlns="http://www.w3.org/2000/svg">
 <defs>
  <linearGradient id="bg" x1="1" x2="47" style="" gradientTransform="translate(-48)" gradientUnits="userSpaceOnUse">
   <stop style="stop-color:#8daedb" offset="0"/>
   <stop style="stop-color:#9bb8e0" offset="1"/>
  </linearGradient>
 </defs>
 <path d="m1 43v0.25c0 2.22 1.78 4 4 4h38c2.22 0 4-1.78 4-4v-0.25c0 2.22-1.78 4-4 4h-38c-2.22 0-4-1.78-4-4zm0 0.5v0.5c0 2.22 1.78 4 4 4h38c2.22 0 4-1.78 4-4v-0.5c0 2.22-1.78 4-4 4h-38c-2.22 0-4-1.78-4-4z" style="opacity:.02"/>
 <path d="m1 43.2v0.25c0 2.22 1.78 4 4 4h38c2.22 0 4-1.78 4-4v-0.25c0 2.22-1.78 4-4 4h-38c-2.22 0-4-1.78-4-4z" style="opacity:.05"/>
 <path d="m1 43v0.25c0 2.22 1.78 4 4 4h38c2.22 0 4-1.78 4-4v-0.25c0 2.22-1.78 4-4 4h-38c-2.22 0-4-1.78-4-4z" style="opacity:.1"/>
 <rect transform="rotate(-90)" x="-47" y="1" width="46" height="46" rx="4" style="fill:url(#bg)"/>
 <path d="m18.6 12.2c-1.09 0.456-1.3 1.6-0.545 2.47 0.737 0.418 1.16 1.25 2.11 0.843-0.415 0.525-0.799 1.16-0.489 1.91 0.487 0.697-0.223 1.21-0.0361 1.91 0.476 0.865-1.41 0.29-1.76 0.117-0.129-0.657-1.72-0.995-1.11-0.127-0.304-0.186-0.91-1.08-0.767-0.184 0.252 1.2 1.53 1.19 2.44 1.6 0.79 0.0573 2.09 0.909 2.62 0.0271 0.319-0.623 0.907-2.35 1.43-0.856 0.503 0.758 0.934 1.75 0.496 2.63-0.931 2.89-1.89 5.77-2.8 8.66-0.145 0.933-0.43 1.96-0.092 2.83-0.642 0.374-2.28 1.02-1.19 1.87 0.52 0.257 1.04-0.155 1.56-0.254 0.738-0.274 1.4-0.692 2.09-1.07-0.027-0.322-0.141-0.593 0.369-0.83-0.0503-0.521-1.06 0.463-0.797-0.468 0.556-0.777 0.521-1.81 0.61-2.72 0.539-0.796 0.396-1.69 0.538-2.59-0.129-0.404 0.0463-0.697 0.37-0.935 0.867-1.16 1.31 0.798 1.92 1.26 0.734 1 1.9 0.0347 2.71-0.3 0.956-0.309 2.14-0.418 2.37-1.59 1.35-0.408 0.413 2.31 1.83 1.93 0.956-0.495 0.315-1.77 0.272-2.6-0.268-0.458 3.54e-4 -1.87-0.783-1.53-1.6 0.376-3.21 0.752-4.81 1.13-0.671-1.01 0.0401-2.12 0.165-3.16 0.201-0.787-0.468-1.12-0.662-1.76-0.604-1.45-1.21-2.91-1.81-4.36-0.105-0.847 1.09-0.831 1.57-1.31 0.449 0.969 1.74 1.28 1.99 2.36-0.243 1.14 0.868 1.68 1.61 1.83 0.31-0.987-0.541-1.86-0.926-2.71-0.635-0.811-0.87-1.85-1.61-2.56-0.641-0.849-1.75-0.626-2.64-0.423-0.991 0.225-2.03 0.241-3 0.556" style="opacity:.1"/>
 <path d="m1 39v4c0 2.22 1.78 4 4 4h38c2.22 0 4-1.78 4-4v-4c0 2.22-1.78 4-4 4h-38c-2.22 0-4-1.78-4-4z" style="opacity:.1"/>
 <path d="m19.7 11c-0.371-4e-3 -0.793 0.059-1.08 0.184-0.938 0.727-1.29 0.883-0.914 1.72 0.047 0.055 0.293 0.773 0.422 0.797 0.168 0.027 0.395 0.199 0.703 0.523 0.422 0.453 0.461 0.469 0.664 0.379 0.113-0.059 0.316-0.098 0.453-0.098h0.242l-0.184 0.32c-0.559 0.188-0.453 1.38-0.18 1.98l0.066 0.496c-0.145 0.02-0.297 0.438-0.285 0.707 0.02 0.516 0.277 0.664 0.184 0.707-0.297 0.137-0.969-0.02-1.78-0.137-0.344-0.359-0.496-0.633-0.715-0.738-0.309-0.152-0.477-0.066-0.688 0.055-0.117 0.063 0.27 0.379 0.176 0.426-0.129 0.063-0.656-0.738-0.711-0.641-0.078 0.133-0.277 0.273 0.355 1.24 0.168 0.16 0.477 0.336 0.598 0.371 0.129 0.031 0.402 0.016 0.445 0.047 0.25 0.184 1.45 0.621 2.77 0.793 0.688 0.094 0.633-8e-3 0.934-0.547 0.137-0.238 0.313-0.566 0.336-0.648 0.039-0.117 0.254-0.676 0.449-0.703 0.242-0.031 0.441 0.559 0.613 0.773 0.43 0.68 0.668 1.43 0.629 1.93 0.051 0.223-8e-3 0.348-0.566 1.17-0.895 0.98-1.27 2.12-1.6 2.32-0.551 1.2-0.18 1.74-0.438 2.51-0.145 0.41-0.168 0.609-0.113 0.668 0.129 0.133 0.113 0.355-0.074 1.09-0.086 0.344-0.176 1-0.199 1.44-0.12 0.826-0.267 1.62-0.246 2.4 0.0032 0.119 0.152 0.238 0.188 0.395-0.02 0.051-0.027 0.078-0.047 0.109-0.141 0.207-0.73 0.379-0.832 0.457-0.406 0.23-0.863 0.547-0.73 0.953 0.148 0.281 0.305 0.566 0.801 0.566l1.12-0.359 0.453-0.191c0.25-0.102 0.602-0.273 0.773-0.395 0.078-0.051 0.18-0.109 0.277-0.164h8e-3c0.031-0.02 0.063-0.035 0.09-0.051 0.098-0.059 0.191-0.105 0.27-0.141 0.172-0.082 0.309-0.188 0.293-0.23l-4e-3 -4e-3h8e-3s-4e-3 0-8e-3 -4e-3c-0.016-0.039-0.086-0.133-0.184-0.234-0.016-0.023-0.023-0.039-0.031-0.066l0.512-0.422c-0.098 0.066-0.051-0.27-0.141-0.211-0.355 0.25-0.531 0.188-0.57 0.188-0.141 0-0.129-0.441-0.027-0.621 0.051-0.098 0.273-0.328 0.293-0.434 0.016-0.09 0.082-0.496 0.145-0.887 0.066-0.387 0.105-0.809 0.082-0.934-0.023-0.129-8e-3 -0.254 0.031-0.289 0.133-0.082 0.43-0.801 0.43-1.03 0-0.117-0.031-0.23-0.082-0.258-0.047-0.023-8e-3 -0.172 0.09-0.355 0.141-0.254 0.156-0.395 0.105-0.891l-0.047-0.578 0.426-0.43c0.238-0.242 0.496-0.434 0.578-0.434 0.086 0 0.313 0.258 0.602 0.723 0.258 0.402 0.613 0.883 0.801 1.07 0.313 0.328 0.355 0.355 0.766 0.355 0.352 0 0.543-0.066 1.12-0.391 0.453-0.258 0.984-0.465 1.59-0.621 0.488-0.129 0.949-0.297 1.02-0.379 0.074-0.074 0.195-0.305 0.27-0.512 0.078-0.207 0.184-0.398 0.234-0.43 0.176-0.117 0.516-0.066 0.656 0.09 0.16 0.18 0.172 0.805 0.219 0.938 0.113 0.461 0.297 0.988 0.719 0.961 0.301-0.07 0.609-0.156 0.738-0.648l-0.051-1.2-0.063-0.496c-0.031-0.27-0.113-0.66-0.184-0.867-0.063-0.207-0.137-0.527-0.168-0.727-0.027-0.191-0.098-0.348-0.145-0.348-0.059 0-0.316 0.133-0.582 0.297-0.793 0.488-0.875 0.523-1.66 0.613-0.93 0.105-1.89 0.297-2.1 0.414-0.234 0.133-0.719 0.156-0.719 0.031 0-0.051-0.066-0.113-0.148-0.133-0.113-0.031-0.168-0.18-0.234-0.625-0.098-0.645-0.055-0.977 0.227-1.69 0.324-0.82 0.172-2.05-0.266-2.05-0.145 0-0.156-0.031-0.113-0.273 0.039-0.223 0.016-0.32-0.145-0.496-0.133-0.148-0.18-0.273-0.156-0.422 0.031-0.141 8e-3 -0.215-0.055-0.215-0.059 0-0.082-0.059-0.051-0.133 0.059-0.156-0.242-0.691-0.391-0.691-0.121 0-0.289-0.348-0.289-0.59 0-0.082-0.074-0.223-0.164-0.297-0.086-0.082-0.16-0.176-0.16-0.215 0-0.043-0.105-0.32-0.234-0.621-0.129-0.305-0.25-0.727-0.277-0.934-0.055-0.445 8e-3 -0.527 0.594-0.777 0.199-0.09 0.5-0.238 0.664-0.348l0.301-0.188 0.227 0.352c0.129 0.191 0.461 0.504 0.742 0.711 0.277 0.195 0.633 0.527 0.777 0.742 0.242 0.34 0.27 0.422 0.227 0.77-0.039 0.344-0.016 0.441 0.219 0.813 0.246 0.391 0.406 0.52 0.406 0.332 0-0.039 0.195 0.063 0.43 0.25 0.23 0.18 0.453 0.316 0.492 0.305 0.051-0.016 0.113-0.133 0.156-0.258 0.055-0.172 0.031-0.363-0.105-0.777-0.098-0.305-0.227-0.609-0.277-0.676-0.063-0.066-0.266-0.422-0.453-0.785-0.191-0.363-0.535-0.953-0.777-1.3-0.238-0.355-0.406-0.695-0.383-0.762 0.059-0.148-0.777-1.03-1.22-1.28-0.324-0.191-0.742-0.191-1.67-8e-3 -0.566 0.117-1.75 0.305-2.51 0.414-0.387 0.055-0.773 0.156-0.867 0.215-0.148 0.09-0.191 0.098-0.191 0.016 0-0.059-0.113-0.184-0.242-0.273-0.137-0.09-0.371-0.414-0.527-0.727-0.156-0.309-0.387-0.621-0.496-0.695-0.129-0.086-0.383-0.129-0.668-0.133" style="fill:#415662"/>
</svg>
