<svg width="48" height="48" version="1.1" viewBox="0 0 48 48.000001" xmlns="http://www.w3.org/2000/svg">
 <defs>
  <linearGradient id="linearGradient4501" x1="-47" x2="-1" y1="2.8779e-15" y2="6.1232e-17" gradientUnits="userSpaceOnUse">
   <stop style="stop-color:#d0ecd7" offset="0"/>
   <stop style="stop-color:#def2e3" offset="1"/>
  </linearGradient>
 </defs>
 <g transform="translate(0 3.949e-5)">
  <path d="m1 43v0.25c0 2.216 1.784 4 4 4h38c2.216 0 4-1.784 4-4v-0.25c0 2.216-1.784 4-4 4h-38c-2.216 0-4-1.784-4-4zm0 0.5v0.5c0 2.216 1.784 4 4 4h38c2.216 0 4-1.784 4-4v-0.5c0 2.216-1.784 4-4 4h-38c-2.216 0-4-1.784-4-4z" style="opacity:.02"/>
  <path d="m1 43.25v0.25c0 2.216 1.784 4 4 4h38c2.216 0 4-1.784 4-4v-0.25c0 2.216-1.784 4-4 4h-38c-2.216 0-4-1.784-4-4z" style="opacity:.05"/>
  <path d="m1 43v0.25c0 2.216 1.784 4 4 4h38c2.216 0 4-1.784 4-4v-0.25c0 2.216-1.784 4-4 4h-38c-2.216 0-4-1.784-4-4z" style="opacity:.1"/>
 </g>
 <rect transform="rotate(-90)" x="-47" y="1" width="46" height="46" rx="4" style="fill:url(#linearGradient4501)"/>
 <g transform="translate(0 3.949e-5)">
  <g transform="translate(0 -1004.4)">
   <path d="m1 1043.4v4c0 2.216 1.784 4 4 4h38c2.216 0 4-1.784 4-4v-4c0 2.216-1.784 4-4 4h-38c-2.216 0-4-1.784-4-4z" style="opacity:.1"/>
  </g>
 </g>
 <path d="m27 10c0.441 1.667-6.279 2.222-3 5-1.765-2.222 5.787-3 3-5zm-3 5a11 3 0 0 0 -11 3 11 3 0 0 0 1.01 1.246 13 9 0 0 0 -3.01 5.754 13 9 0 0 0 2.75 5.52c-0.424 1.017-0.75 2.187-0.75 3.48 1.312 0 2.995-0.579 4.486-1.225a13 9 0 0 0 6.514 1.225 13 9 0 0 0 6.518 -1.223c1.491 0.645 3.171 1.223 4.482 1.223 0-1.29-0.325-2.458-0.748-3.473a13 9 0 0 0 2.748 -5.527 13 9 0 0 0 -3.01 -5.75 11 3 0 0 0 1.014 -1.25 11 3 0 0 0 -6.484 -2.732c2.587-1.54 6.266-2.863 3.498-5.268 0.605 1.972-4.678 3.085-6.439 5.03a11 3 0 0 0 -1.574 -0.033m0 1a9 2 0 0 1 1.029 0.014c-0.153 0.821 0.352 1.788 1.992 2.986-1.066-1.158-0.692-2.061 0.238-2.861a9 2 0 0 1 5.74 1.861 9 2 0 0 1 -9 2 9 2 0 0 1 -9 -2 9 2 0 0 1 9 -2z" style="opacity:.1"/>
 <path d="M 24,14 A 11,3 0 0 0 13,17 11,3 0 0 0 14.01,18.246 13,9 0 0 0 11,24 13,9 0 0 0 13.75,29.52 C 13.326,30.536 13,31.707 13,33 c 1.312,0 2.995,-0.579 4.486,-1.225 A 13,9 0 0 0 24,33 13,9 0 0 0 30.518,31.777 C 32.01,32.422 33.689,33 35,33 35,31.71 34.675,30.542 34.25,29.527 A 13,9 0 0 0 37,24 13,9 0 0 0 33.986,18.25 11,3 0 0 0 35,17 11,3 0 0 0 24,14 m 0,1 a 9,2 0 0 1 9,2 9,2 0 0 1 -9,2 9,2 0 0 1 -9,-2 9,2 0 0 1 9,-2 z" style="fill:#f06a62"/>
 <path d="m23.816 14.002a11 3 0 0 0 -0.62305 0.009766c0.12396 0.29673 0.37412 0.62185 0.80664 0.98828-0.29323-0.36915-0.31455-0.69638-0.18359-0.99805zm2.9102 0.09375c-0.46127 0.29239-0.85274 0.60259-1.1543 0.93555a9 2 0 0 1 2.9355 0.24023c0.45284-0.26959 0.92006-0.53768 1.4004-0.80078a11 3 0 0 0 -3.1816 -0.375zm0.20117 4.793a9 2 0 0 1 -0.048828 0.003906c0.048455 0.036525 0.088089 0.070463 0.13867 0.10742-0.034879-0.037871-0.057976-0.07399-0.089844-0.11133z" style="opacity:.1"/>
 <path d="m27 9c0.441 1.667-6.279 2.222-3 5-1.765-2.222 5.787-3 3-5zm5.01 0c0.921 3-11.835 4-4.992 9-3.684-4 9.597-5 4.992-9z" style="fill:#9fbfaa"/>
</svg>
