<svg xmlns="http://www.w3.org/2000/svg" version="1.1" viewBox="0 0 48 48">
 <defs>
  <linearGradient id="bg" x2="0" y1="1" y2="47" gradientUnits="userSpaceOnUse">
   <stop style="stop-color:#ee7b2e" offset="0"/>
   <stop style="stop-color:#ec6f1c" offset="1"/>
  </linearGradient>
 </defs>
 <path style="opacity:.02" d="m1 43v0.25c0 2.216 1.784 4 4 4h38c2.216 0 4-1.784 4-4v-0.25c0 2.216-1.784 4-4 4h-38c-2.216 0-4-1.784-4-4zm0 0.5v0.5c0 2.216 1.784 4 4 4h38c2.216 0 4-1.784 4-4v-0.5c0 2.216-1.784 4-4 4h-38c-2.216 0-4-1.784-4-4z"/>
 <path style="opacity:.05" d="m1 43.25v0.25c0 2.216 1.784 4 4 4h38c2.216 0 4-1.784 4-4v-0.25c0 2.216-1.784 4-4 4h-38c-2.216 0-4-1.784-4-4z"/>
 <path style="opacity:.1" d="m1 43v0.25c0 2.216 1.784 4 4 4h38c2.216 0 4-1.784 4-4v-0.25c0 2.216-1.784 4-4 4h-38c-2.216 0-4-1.784-4-4z"/>
 <rect style="fill:url(#bg)" rx="4" height="46" width="46" y="1" x="1"/>
 <path style="opacity:.1" d="m1 39v4c0 2.216 1.784 4 4 4h38c2.216 0 4-1.784 4-4v-4c0 2.216-1.784 4-4 4h-38c-2.216 0-4-1.784-4-4z"/>
 <path style="opacity:.1" d="m23 12c-2.215 0-4 1.781-4 4v6.9961h-3.041c-0.20528 0.000791-0.39035 0.12707-0.46484 0.31836l-1.2246 3.0879-0.78906-7.9531c-0.026-0.261-0.249-0.457-0.511-0.449-0.2002 0.0064-0.37664 0.13167-0.44922 0.31836l-1.862 4.678-9.658 0.004v1.004l9.996-0.004c0.20528-0.000791 0.39036-0.12707 0.46484-0.31836l1.2246-3.0859 0.78906 7.9512c0.0483 0.52334 0.76705 0.62716 0.96094 0.13867l1.861-4.686h2.703v8c0 2.215 1.785 4 4 4h2v-8h-1c-0.555 0-1-0.449-1-1v-3l24 0.0039v-1.004l-24-0.004v-1.996c0-0.555 0.445-1 1-1h1v-8zm3 0v8h3c0.555 0 1-0.449 1-1v-6c0-0.555-0.445-1-1-1zm0.0039 16v7.9961h2.996c0.555 0 1-0.445 1-1v-6c0-0.551-0.445-0.996-1-0.996z"/>
 <path style="fill:#f9f9f9" d="m23 11c-2.215 0-4 1.781-4 4v16c0 2.215 1.785 4 4 4h2v-8h-1c-0.555 0-1-0.449-1-1v-6c0-0.555 0.445-1 1-1h1v-8zm3 0v8h3c0.555 0 1-0.449 1-1v-6c0-0.555-0.445-1-1-1zm0.0039 16v7.9961h2.996c0.555 0 1-0.445 1-1v-6c0-0.551-0.445-0.996-1-0.996z"/>
 <path style="color-rendering:auto;text-decoration-color:#000000;color:#000000;font-variant-numeric:normal;shape-rendering:auto;solid-color:#000000;text-decoration-line:none;fill:#f9f9f9;font-variant-position:normal;mix-blend-mode:normal;font-feature-settings:normal;shape-padding:0;font-variant-alternates:normal;text-indent:0;font-variant-ligatures:normal;dominant-baseline:auto;font-variant-caps:normal;image-rendering:auto;white-space:normal;text-decoration-style:solid;text-orientation:mixed;isolation:auto;text-transform:none" d="m12.969 17c-0.2002 0.0064-0.37725 0.13166-0.44983 0.31834l-1.861 4.679-9.658 0.003v1l9.9967 0.000369c0.20528-0.000791 0.38919-0.12706 0.46368-0.31834l1.2249-3.0866 0.78894 7.9517c0.0483 0.52334 0.76806 0.6269 0.96195 0.13841l1.861-4.685 30.702 0.003v-1.0035l-31.041-0.0031c-0.20528 0.000791-0.38918 0.12706-0.46367 0.31834l-1.2249 3.0866-0.78894-7.9517c-0.02605-0.26118-0.24976-0.45768-0.51212-0.44983z"/>
</svg>
