<svg version="1.1" viewBox="0 0 48 48" xmlns="http://www.w3.org/2000/svg">
 <defs>
  <linearGradient id="bg" x2="0" y1="1" y2="47" gradientUnits="userSpaceOnUse">
   <stop style="stop-color:#89c66c" offset="0"/>
   <stop style="stop-color:#7ec15e" offset="1"/>
  </linearGradient>
 </defs>
 <path d="m1 43v0.25c0 2.216 1.784 4 4 4h38c2.216 0 4-1.784 4-4v-0.25c0 2.216-1.784 4-4 4h-38c-2.216 0-4-1.784-4-4zm0 0.5v0.5c0 2.216 1.784 4 4 4h38c2.216 0 4-1.784 4-4v-0.5c0 2.216-1.784 4-4 4h-38c-2.216 0-4-1.784-4-4z" style="opacity:.02"/>
 <path d="m1 43.25v0.25c0 2.216 1.784 4 4 4h38c2.216 0 4-1.784 4-4v-0.25c0 2.216-1.784 4-4 4h-38c-2.216 0-4-1.784-4-4z" style="opacity:.05"/>
 <path d="m1 43v0.25c0 2.216 1.784 4 4 4h38c2.216 0 4-1.784 4-4v-0.25c0 2.216-1.784 4-4 4h-38c-2.216 0-4-1.784-4-4z" style="opacity:.1"/>
 <rect x="1" y="1" width="46" height="46" rx="4" style="fill:url(#bg)"/>
 <path d="m1 39v4c0 2.216 1.784 4 4 4h38c2.216 0 4-1.784 4-4v-4c0 2.216-1.784 4-4 4h-38c-2.216 0-4-1.784-4-4z" style="opacity:.1"/>
 <path d="m16.482 11c-0.26704 0-0.48242 0.21538-0.48242 0.48242v0.03516c0 0.26704 0.21538 0.48242 0.48242 0.48242h15.035c0.26704 0 0.48242-0.21538 0.48242-0.48242v-0.03516c0-0.26704-0.21538-0.48242-0.48242-0.48242zm2 2c-0.26704 0-0.48242 0.21538-0.48242 0.48242v0.03516c0 0.26704 0.21538 0.48242 0.48242 0.48242h11.035c0.26704 0 0.48242-0.21538 0.48242-0.48242v-0.03516c0-0.26704-0.21538-0.48242-0.48242-0.48242zm2.0176 2c-0.277 0-0.5 0.223-0.5 0.5s0.223 0.5 0.5 0.5h7c0.277 0 0.5-0.223 0.5-0.5s-0.223-0.5-0.5-0.5zm-4.5 4 4e-4 3h5l-4e-4 -3zm11 0 4e-4 3h5l-4e-4 -3zm-11 4-4e-4 6c-2.95e-4 4.4183 3.5817 8 8 8s8-3.5817 8-8l4e-4 -6h-5l-4e-4 6c-1.1e-4 1.6569-1.3431 3-3 3s-3-1.3431-3-3l4e-4 -6z" style="opacity:.1"/>
 <path d="m16.483 10c-0.26704 0-0.48242 0.21538-0.48242 0.48242v0.03516c0 0.26704 0.21538 0.48242 0.48242 0.48242h15.035c0.26704 0 0.48242-0.21538 0.48242-0.48242v-0.03516c0-0.26704-0.21538-0.48242-0.48242-0.48242zm2 2c-0.26704 0-0.48242 0.21538-0.48242 0.48242v0.03516c0 0.26704 0.21538 0.48242 0.48242 0.48242h11.035c0.26704 0 0.48242-0.21538 0.48242-0.48242v-0.03516c0-0.26704-0.21538-0.48242-0.48242-0.48242zm2.0176 2c-0.277 0-0.5 0.223-0.5 0.5s0.223 0.5 0.5 0.5h7c0.277 0 0.5-0.223 0.5-0.5s-0.223-0.5-0.5-0.5zm-4.5 8v6c0 4.4183 3.5817 8 8 8s8-3.5817 8-8v-6h-5v6c0 1.6569-1.3431 3-3 3s-3-1.3431-3-3v-6z" style="fill:#7a7a7a"/>
 <path d="m27 18 4e-4 3h5l-4e-4 -3z" style="fill:#ed5454"/>
 <path d="m16 18 4e-4 3h5l-4e-4 -3z" style="fill:#6a78be"/>
</svg>
