<svg version="1.1" viewBox="0 0 48 48" xmlns="http://www.w3.org/2000/svg">
 <defs>
  <linearGradient id="bg" x1="-47" x2="-1" y1="0" y2="0" gradientUnits="userSpaceOnUse">
   <stop style="stop-color:#424242" offset="0"/>
   <stop style="stop-color:#4c4c4c" offset="1"/>
  </linearGradient>
 </defs>
 <path d="m1 43v0.25c0 2.22 1.78 4 4 4h38c2.22 0 4-1.78 4-4v-0.25c0 2.22-1.78 4-4 4h-38c-2.22 0-4-1.78-4-4zm0 0.5v0.5c0 2.22 1.78 4 4 4h38c2.22 0 4-1.78 4-4v-0.5c0 2.22-1.78 4-4 4h-38c-2.22 0-4-1.78-4-4z" style="opacity:.02"/>
 <path d="m1 43.3v0.25c0 2.22 1.78 4 4 4h38c2.22 0 4-1.78 4-4v-0.25c0 2.22-1.78 4-4 4h-38c-2.22 0-4-1.78-4-4z" style="opacity:.05"/>
 <path d="m1 43v0.25c0 2.22 1.78 4 4 4h38c2.22 0 4-1.78 4-4v-0.25c0 2.22-1.78 4-4 4h-38c-2.22 0-4-1.78-4-4z" style="opacity:.1"/>
 <rect transform="rotate(-90)" x="-47" y="1" width="46" height="46" rx="4" style="fill:url(#bg)"/>
 <path d="m1 39v4c0 2.22 1.78 4 4 4h38c2.22 0 4-1.78 4-4v-4c0 2.22-1.78 4-4 4h-38c-2.22 0-4-1.78-4-4z" style="opacity:.1"/>
 <path d="m29.4 10.4c-0.238-0.0128-0.475-0.0108-0.711 2e-3 -0.314 0.017-0.632 0.0438-0.938 0.0938-1.22 0.2-2.48 0.752-3.75 1.56-0.019 0.012-0.0425 0.0192-0.0625 0.0312-1.24-0.783-2.49-1.27-3.69-1.47-1.22-0.198-2.55-0.218-3.75 0.469s-1.84 1.82-2.28 2.97c-0.435 1.14-0.629 2.49-0.564 3.97-1.33 0.69-2.43 1.54-3.22 2.5-0.784 0.959-1.44 2.08-1.44 3.47s0.654 2.51 1.44 3.47c0.784 0.959 1.88 1.81 3.22 2.5v0.0312c-0.069 1.5 0.125 2.84 0.564 4 0.438 1.16 1.08 2.31 2.28 3s2.53 0.7 3.75 0.5 2.48-0.752 3.75-1.56c0.019-0.012 0.0444-0.0192 0.0644-0.0312 1.24 0.783 2.48 1.27 3.69 1.47 1.22 0.198 2.55 0.218 3.75-0.469s1.84-1.82 2.28-2.97c0.435-1.14 0.628-2.49 0.562-3.97 1.33-0.69 2.43-1.54 3.22-2.5s1.44-2.08 1.44-3.47-0.655-2.51-1.44-3.47-1.88-1.81-3.22-2.5v-0.0312c0.069-1.5-0.124-2.84-0.562-4-0.438-1.16-1.08-2.31-2.28-3-0.674-0.389-1.39-0.557-2.1-0.596zm-0.211 1.16c0.701 0.017 1.27 0.242 1.72 0.5 0.596 0.344 1.21 0.896 1.6 1.91 0.376 0.995 0.618 2.08 0.562 3.5-1.39-0.546-2.97-0.949-4.69-1.19-1.06-1.33-2.16-2.47-3.31-3.38 1.22-0.784 2.31-1.11 3.38-1.28 0.266-0.044 0.516-0.0675 0.75-0.0625zm-10.4 0.0957h2e-3c0.233-6e-3 0.483-0.0136 0.748 0.0293 1.03 0.167 2.08 0.526 3.25 1.25-1.13 0.907-2.22 2.02-3.25 3.35-1.69 0.239-3.25 0.649-4.62 1.19-0.051-1.39 0.19-2.46 0.564-3.44 0.382-1 0.998-1.57 1.59-1.91 0.447-0.256 1.02-0.45 1.72-0.469zm5.12 2.06c0.868 0.667 1.73 1.45 2.56 2.38-0.815-0.06-1.65-0.0938-2.5-0.0938-0.876 0-1.73 0.0308-2.56 0.0938 0.81-0.915 1.65-1.71 2.5-2.38zm0.0644 3.59c1.28 0 2.51 0.0698 3.69 0.219 0.743 0.963 1.46 2.02 2.12 3.16 0.647 1.11 1.19 2.21 1.66 3.31-0.464 1.11-1.01 2.22-1.66 3.34-0.65 1.12-1.36 2.17-2.09 3.12-1.18 0.151-2.43 0.219-3.72 0.219-1.28 0-2.51-0.0698-3.69-0.219-0.743-0.963-1.46-2.02-2.12-3.16-0.647-1.11-1.19-2.21-1.66-3.31 0.464-1.11 1.01-2.22 1.66-3.34 0.65-1.12 1.36-2.17 2.09-3.12 1.18-0.151 2.43-0.219 3.72-0.219zm-5.6 0.531c-0.463 0.681-0.913 1.41-1.34 2.16-0.433 0.751-0.828 1.5-1.19 2.25-0.395-1.18-0.662-2.32-0.812-3.41 1.01-0.41 2.13-0.75 3.34-1zm11.1 0c1.24 0.251 2.38 0.583 3.4 1-0.153 1.08-0.418 2.23-0.812 3.41-0.36-0.741-0.754-1.47-1.19-2.22-0.445-0.764-0.926-1.49-1.4-2.19zm-7.53 0.154v2h-2v1c0.811 0 1 0.21 1 1v4.46c0 0.396-0.197 0.539-0.557 0.539l-0.443 1h2v2h1v-2h1v2h1v-2c1 0 3-0.419 3-2.17 0-1.43-0.658-2.05-1.45-2.33 0.479-0.319 0.956-0.502 0.947-1.5-7e-3 -1.39-1.5-2-2.5-2v-2h-1v2h-1v-2h-1zm12.2 1.38c1.28 0.664 2.07 1.45 2.75 2.28 0.684 0.836 0.875 1.66 0.875 2.35s-0.191 1.51-0.875 2.34c-0.676 0.827-1.48 1.59-2.75 2.25-0.216-1.46-0.666-3.01-1.31-4.59 0.645-1.6 1.1-3.16 1.31-4.62zm-20.4 0.0293c0.216 1.46 0.668 3.01 1.31 4.6-0.645 1.6-1.1 3.16-1.31 4.62-1.28-0.664-2.07-1.45-2.75-2.28-0.684-0.836-0.875-1.66-0.875-2.34s0.191-1.51 0.875-2.35c0.676-0.827 1.48-1.59 2.75-2.25zm9.19 1.59c1.41 0 2.6-1e-4 2.6 1s-1.32 1-2.6 1zm0 3c1 0 3-1.5e-4 3 1.5s-1.5 1.5-3 1.5zm-7.12 1.75c0.36 0.741 0.754 1.47 1.19 2.22 0.445 0.765 0.927 1.49 1.41 2.19-1.24-0.251-2.38-0.583-3.41-1 0.153-1.08 0.418-2.23 0.812-3.41zm16.2 0c0.395 1.18 0.662 2.32 0.812 3.4-1.01 0.41-2.13 0.75-3.34 1 0.463-0.681 0.913-1.41 1.34-2.16 0.433-0.751 0.828-1.5 1.19-2.25zm-17.2 4.78c1.39 0.546 2.97 0.95 4.69 1.19 1.06 1.33 2.16 2.47 3.31 3.37-1.22 0.784-2.31 1.11-3.38 1.28s-1.87-0.0935-2.47-0.438-1.21-0.896-1.59-1.91c-0.376-0.995-0.62-2.08-0.564-3.5zm18.1 0h2e-3c0.051 1.39-0.188 2.46-0.562 3.44-0.382 1-1 1.56-1.6 1.9s-1.4 0.611-2.47 0.439c-1.03-0.167-2.08-0.526-3.25-1.25 1.13-0.907 2.22-2.02 3.25-3.34 1.69-0.239 3.25-0.65 4.62-1.19zm-11.6 1.38c0.815 0.06 1.65 0.0938 2.5 0.0938 0.876 0 1.73-0.0308 2.56-0.0938-0.81 0.915-1.65 1.71-2.5 2.38-0.868-0.667-1.73-1.45-2.56-2.38z" style="opacity:.1"/>
 <path d="m24 15c-4.03 0-7.68 0.66-10.4 2.04-1.33 0.69-2.42 1.52-3.21 2.48s-1.44 2.1-1.44 3.48 0.657 2.52 1.44 3.48 1.87 1.79 3.21 2.48c2.67 1.38 6.32 2.04 10.4 2.04s7.68-0.66 10.4-2.04c1.33-0.69 2.42-1.52 3.21-2.48s1.44-2.1 1.44-3.48-0.657-2.52-1.44-3.48-1.87-1.79-3.21-2.48c-2.67-1.38-6.32-2.04-10.4-2.04zm0 1.3c3.98 0 7.56 0.745 10.1 2.08 1.29 0.667 2.12 1.44 2.81 2.28 0.684 0.836 0.85 1.66 0.85 2.34s-0.166 1.51-0.85 2.34c-0.684 0.836-1.52 1.61-2.81 2.28-2.58 1.33-6.16 2.08-10.1 2.08s-7.56-0.745-10.1-2.08c-1.29-0.667-2.12-1.44-2.81-2.28-0.684-0.836-0.85-1.66-0.85-2.34s0.166-1.51 0.85-2.34c0.684-0.836 1.52-1.61 2.81-2.28 2.58-1.33 6.16-2.08 10.1-2.08z" style="fill:#3966e5"/>
 <path d="m17.1 19c-2.02 3.49-3.27 6.98-3.41 9.99-0.069 1.5 0.104 2.86 0.542 4.02 0.438 1.16 1.1 2.3 2.3 2.99 1.2 0.692 2.51 0.693 3.74 0.493s2.48-0.728 3.75-1.54c2.53-1.62 4.93-4.46 6.94-7.95 2.02-3.49 3.27-6.98 3.41-9.99 0.069-1.5-0.104-2.86-0.542-4.02-0.438-1.16-1.1-2.3-2.3-2.99-1.2-0.692-2.51-0.693-3.74-0.493s-2.48 0.728-3.75 1.54c-2.53 1.62-4.93 4.46-6.94 7.95zm1.13 0.65c1.99-3.45 4.43-6.18 6.87-7.74 1.22-0.783 2.31-1.12 3.38-1.29 1.07-0.174 1.86 0.092 2.46 0.436s1.22 0.898 1.6 1.91 0.635 2.12 0.568 3.57c-0.134 2.9-1.28 6.38-3.27 9.82s-4.43 6.18-6.87 7.74c-1.22 0.783-2.31 1.12-3.38 1.29-1.07 0.174-1.86-0.092-2.46-0.436s-1.22-0.898-1.6-1.91-0.635-2.12-0.568-3.57c0.134-2.9 1.28-6.38 3.27-9.82z" style="fill:#3966e5"/>
 <path d="m30.9 19c2.02 3.47 3.27 6.93 3.41 9.91 0.069 1.49-0.104 2.84-0.542 3.99s-1.1 2.28-2.3 2.97c-1.2 0.687-2.51 0.688-3.74 0.489-1.22-0.198-2.48-0.723-3.75-1.53-2.53-1.61-4.93-4.42-6.94-7.89-2.02-3.47-3.27-6.93-3.41-9.91-0.069-1.49 0.104-2.84 0.542-3.99s1.1-2.28 2.3-2.97c1.2-0.687 2.51-0.688 3.74-0.489 1.22 0.198 2.48 0.723 3.75 1.53 2.53 1.61 4.93 4.42 6.94 7.89zm-1.13 0.645c-1.99-3.42-4.43-6.13-6.87-7.69-1.22-0.778-2.31-1.11-3.38-1.28-1.07-0.173-1.86 0.091-2.46 0.433-0.596 0.341-1.22 0.892-1.6 1.89-0.382 1-0.635 2.1-0.568 3.54 0.134 2.88 1.28 6.33 3.27 9.75s4.43 6.13 6.87 7.69c1.22 0.778 2.31 1.11 3.38 1.28 1.07 0.173 1.86-0.091 2.46-0.433 0.596-0.341 1.22-0.892 1.6-1.89 0.382-1 0.635-2.1 0.568-3.54-0.134-2.88-1.28-6.33-3.27-9.75z" style="fill:#3966e5"/>
 <path d="m26.6 22.5c0.48-0.32 0.959-0.5 0.95-1.5-7e-3 -1.39-1.5-2-2.5-2v-2h-1v2h-1v-2h-1v2h-2v1c0.811 0 1 0.21 1 1v4.46c0 0.396-0.196 0.539-0.556 0.539l-0.444 1h2v2h1v-2h1v2h1v-2c1 0 3-0.419 3-2.17 0-1.43-0.66-2.06-1.45-2.33m-3.55-2.5c1.41 0 2.6 0 2.6 1s-1.32 1-2.6 1m0 1c1 0 3 0 3 1.5s-1.5 1.5-3 1.5" style="fill:#47abeb"/>
</svg>
