<svg viewBox="0 0 48 48">
  <defs>
    <linearGradient id="a" x1="1" x2="47" gradientUnits="userSpaceOnUse" gradientTransform="translate(-48 .002)">
      <stop stop-color="#23bd88"/>
      <stop offset="1" stop-color="#26cd93"/>
    </linearGradient>
    <clipPath id="b"/>
    <clipPath id="c"/>
  </defs>
  <path d="M1 43v.25c0 2.216 1.784 4 4 4h38c2.216 0 4-1.784 4-4V43c0 2.216-1.784 4-4 4H5c-2.216 0-4-1.784-4-4zm0 .5v.5c0 2.216 1.784 4 4 4h38c2.216 0 4-1.784 4-4v-.5c0 2.216-1.784 4-4 4H5c-2.216 0-4-1.784-4-4z" opacity=".02"/>
  <path d="M1 43.25v.25c0 2.216 1.784 4 4 4h38c2.216 0 4-1.784 4-4v-.25c0 2.216-1.784 4-4 4H5c-2.216 0-4-1.784-4-4z" opacity=".05"/>
  <path d="M1 43v.25c0 2.216 1.784 4 4 4h38c2.216 0 4-1.784 4-4V43c0 2.216-1.784 4-4 4H5c-2.216 0-4-1.784-4-4z" opacity=".1"/>
  <rect width="46" height="46" x="-47" y="1" rx="4" transform="rotate(-90)" fill="url(#a)"/>
  <g opacity=".1" clip-path="url(#b)">
    <path d="M13.773 13C17 12 20 11.5 24 11.5s7 .5 10.227 1.5c.938.289 1.441.848 1.773 1.773 1 2.789 1.5 5.227 1.5 7.727S37 27 36 30.23c-.289.938-.816 1.543-1.773 1.77C30 33 28 33.5 24 33.5S18 33 13.773 32c-.957-.227-1.484-.832-1.773-1.77C11 27 10.5 25 10.5 22.5c0-3.5.5-5.5 1.5-7.727.402-.898.836-1.484 1.773-1.773m0 0"/>
    <path d="M23 32.898c0 2-4 4.254-8 4.102 2-.848 3-3 3-5m5 .898M20 22a2 2 0 1 1-3.999.001A2 2 0 0 1 20 22m0 0M26 22a2 2 0 1 1-3.999.001A2 2 0 0 1 26 22m0 0M32 22a2 2 0 1 1-3.999.001A2 2 0 0 1 32 22m0 0"/>
  </g>
  <g>
    <g clip-path="url(#c)">
      <path d="M13.773 12C17 11 20 10.5 24 10.5s7 .5 10.227 1.5c.938.289 1.441.848 1.773 1.773 1 2.789 1.5 5.227 1.5 7.727S37 26 36 29.23c-.289.938-.816 1.543-1.773 1.77C30 32 28 32.5 24 32.5S18 32 13.773 31c-.957-.227-1.484-.832-1.773-1.77C11 26 10.5 24 10.5 21.5c0-3.5.5-5.5 1.5-7.727.402-.898.836-1.484 1.773-1.773m0 0" fill="#ebeef2"/>
      <path d="M23 31.898c0 2-4 4.254-8 4.102 2-.848 3-3 3-5m5 .898" fill="#ebeef2"/>
      <path d="M20 21a2 2 0 1 1-3.999.001A2 2 0 0 1 20 21m0 0M26 21a2 2 0 1 1-3.999.001A2 2 0 0 1 26 21m0 0M32 21a2 2 0 1 1-3.999.001A2 2 0 0 1 32 21m0 0" fill="#437fa2"/>
    </g>
  </g>
  <g>
    <path d="M1 38.998v4c0 2.216 1.784 4 4 4h38c2.216 0 4-1.784 4-4v-4c0 2.216-1.784 4-4 4H5c-2.216 0-4-1.784-4-4z" opacity=".1"/>
  </g>
</svg>
