<svg version="1.1" viewBox="0 0 48 48" xmlns="http://www.w3.org/2000/svg" xmlns:xlink="http://www.w3.org/1999/xlink">
 <defs>
  <linearGradient id="linearGradient3764" x1="1" x2="47" gradientTransform="translate(-48 .0022147)" gradientUnits="userSpaceOnUse">
   <stop stop-color="#e4e4e4" offset="0"/>
   <stop stop-color="#eee" offset="1"/>
  </linearGradient>
  <linearGradient id="linearGradient4172" x1="33.003" x2="33.003" y1="13.181" y2="40.986" gradientUnits="userSpaceOnUse">
   <stop style="stop-color:#0f0" offset="0"/>
   <stop style="stop-color:#0ff" offset="1"/>
  </linearGradient>
 </defs>
 <path d="m1 43v0.25c0 2.216 1.784 4 4 4h38c2.216 0 4-1.784 4-4v-0.25c0 2.216-1.784 4-4 4h-38c-2.216 0-4-1.784-4-4zm0 0.5v0.5c0 2.216 1.784 4 4 4h38c2.216 0 4-1.784 4-4v-0.5c0 2.216-1.784 4-4 4h-38c-2.216 0-4-1.784-4-4z" opacity=".02"/>
 <path d="m1 43.25v0.25c0 2.216 1.784 4 4 4h38c2.216 0 4-1.784 4-4v-0.25c0 2.216-1.784 4-4 4h-38c-2.216 0-4-1.784-4-4z" opacity=".05"/>
 <path d="m1 43v0.25c0 2.216 1.784 4 4 4h38c2.216 0 4-1.784 4-4v-0.25c0 2.216-1.784 4-4 4h-38c-2.216 0-4-1.784-4-4z" opacity=".1"/>
 <rect transform="rotate(-90)" x="-47" y="1" width="46" height="46" rx="4" fill="url(#linearGradient3764)"/>
 <g transform="translate(0 -1004.4)">
  <path d="m1 1043.4v4c0 2.216 1.784 4 4 4h38c2.216 0 4-1.784 4-4v-4c0 2.216-1.784 4-4 4h-38c-2.216 0-4-1.784-4-4z" opacity=".1"/>
 </g>
 <g transform="matrix(.54561 0 0 .54562 6.5404 7.0403)" style="opacity:.25">
  <path d="m53.766 21.155h4.905c0.453 0 0.821-0.367 0.821-0.82s-0.368-0.821-0.821-0.821h-4.905c-0.451 0-0.819 0.368-0.819 0.821-1e-3 0.453 0.367 0.82 0.819 0.82z"/>
  <path d="m58.671 23.982h-4.905c-0.451 0-0.819 0.367-0.819 0.821 0 0.451 0.368 0.819 0.819 0.819h4.905c0.453 0 0.821-0.368 0.821-0.819 0-0.454-0.368-0.821-0.821-0.821z"/>
  <path d="m58.671 28.534h-4.905c-0.451 0-0.819 0.369-0.819 0.82 0 0.453 0.368 0.823 0.819 0.823h4.905c0.453 0 0.821-0.37 0.821-0.823 0-0.451-0.368-0.82-0.821-0.82z"/>
  <path d="m58.671 33.001h-4.905c-0.451 0-0.819 0.368-0.819 0.822 0 0.451 0.368 0.819 0.819 0.819h4.905c0.453 0 0.821-0.368 0.821-0.819 0-0.454-0.368-0.822-0.821-0.822z"/>
  <path d="m58.671 37.123h-4.905c-0.451 0-0.819 0.368-0.819 0.82 0 0.451 0.368 0.819 0.819 0.819h4.905c0.453 0 0.821-0.368 0.821-0.819 0-0.452-0.368-0.82-0.821-0.82z"/>
  <path d="m58.671 41.59h-4.905c-0.451 0-0.819 0.368-0.819 0.822 0 0.451 0.368 0.816 0.819 0.816h4.905c0.453 0 0.821-0.365 0.821-0.816 0-0.454-0.368-0.822-0.821-0.822z"/>
  <path d="m10.233 19.514h-4.905c-0.452 0-0.82 0.368-0.82 0.821s0.368 0.82 0.82 0.82h4.905c0.451 0 0.819-0.367 0.819-0.82s-0.368-0.821-0.819-0.821z"/>
  <path d="m10.233 23.982h-4.905c-0.452 0-0.82 0.367-0.82 0.821 0 0.451 0.368 0.819 0.82 0.819h4.905c0.451 0 0.819-0.368 0.819-0.819 0-0.454-0.368-0.821-0.819-0.821z"/>
  <path d="m10.233 28.534h-4.905c-0.452 0-0.82 0.369-0.82 0.82 0 0.453 0.368 0.823 0.82 0.823h4.905c0.451 0 0.819-0.37 0.819-0.823 0-0.451-0.368-0.82-0.819-0.82z"/>
  <path d="m10.233 33.001h-4.905c-0.452 0-0.82 0.368-0.82 0.822 0 0.451 0.368 0.819 0.82 0.819h4.905c0.451 0 0.819-0.368 0.819-0.819 0-0.454-0.368-0.822-0.819-0.822z"/>
  <path d="m10.233 37.123h-4.905c-0.452 0-0.82 0.368-0.82 0.82 0 0.451 0.368 0.819 0.82 0.819h4.905c0.451 0 0.819-0.368 0.819-0.819 0-0.452-0.368-0.82-0.819-0.82z"/>
  <path d="m10.233 41.59h-4.905c-0.452 0-0.82 0.368-0.82 0.822 0 0.451 0.368 0.816 0.82 0.816h4.905c0.451 0 0.819-0.365 0.819-0.816 0-0.454-0.368-0.822-0.819-0.822z"/>
  <path d="m43.582 52.947c-0.451 0-0.819 0.369-0.819 0.82v4.905c0 0.451 0.368 0.819 0.819 0.819 0.453 0 0.821-0.368 0.821-0.819v-4.905c0-0.451-0.368-0.82-0.821-0.82z"/>
  <path d="m39.114 52.947c-0.45 0-0.818 0.369-0.818 0.82v4.905c0 0.451 0.368 0.819 0.818 0.819 0.452 0 0.821-0.368 0.821-0.819v-4.905c1e-3 -0.451-0.369-0.82-0.821-0.82z"/>
  <path d="m34.564 52.947c-0.454 0-0.821 0.369-0.821 0.82v4.905c0 0.451 0.367 0.819 0.821 0.819 0.45 0 0.818-0.368 0.818-0.819v-4.905c1e-3 -0.451-0.367-0.82-0.818-0.82z"/>
  <path d="m30.097 52.947c-0.453 0-0.821 0.369-0.821 0.82v4.905c0 0.451 0.368 0.819 0.821 0.819 0.451 0 0.818-0.368 0.818-0.819v-4.905c0-0.451-0.367-0.82-0.818-0.82z"/>
  <path d="m25.974 52.947c-0.453 0-0.821 0.369-0.821 0.82v4.905c0 0.451 0.369 0.819 0.821 0.819 0.451 0 0.818-0.368 0.818-0.819v-4.905c0-0.451-0.367-0.82-0.818-0.82z"/>
  <path d="m21.508 52.947c-0.454 0-0.821 0.369-0.821 0.82v4.905c0 0.451 0.367 0.819 0.821 0.819 0.451 0 0.818-0.368 0.818-0.819v-4.905c0-0.451-0.367-0.82-0.818-0.82z"/>
  <path d="m43.582 11.051c0.453 0 0.821-0.367 0.821-0.816v-4.907c0-0.453-0.368-0.82-0.821-0.82-0.451 0-0.819 0.367-0.819 0.82v4.907c0 0.449 0.368 0.816 0.819 0.816z"/>
  <path d="m39.114 11.051c0.452 0 0.821-0.367 0.821-0.816v-4.907c0-0.453-0.369-0.82-0.821-0.82-0.45 0-0.818 0.367-0.818 0.82v4.907c0 0.449 0.368 0.816 0.818 0.816z"/>
  <path d="m34.564 11.051c0.45 0 0.818-0.367 0.818-0.816v-4.907c0-0.453-0.368-0.82-0.818-0.82-0.454 0-0.821 0.367-0.821 0.82v4.907c0 0.449 0.367 0.816 0.821 0.816z"/>
  <path d="m30.097 11.051c0.451 0 0.818-0.367 0.818-0.816v-4.907c0-0.453-0.367-0.82-0.818-0.82-0.453 0-0.821 0.367-0.821 0.82v4.907c0 0.449 0.368 0.816 0.821 0.816z"/>
  <path d="m25.974 11.051c0.451 0 0.818-0.367 0.818-0.816v-4.907c0-0.453-0.367-0.82-0.818-0.82-0.453 0-0.821 0.367-0.821 0.82v4.907c0 0.449 0.368 0.816 0.821 0.816z"/>
  <path d="m21.508 11.051c0.451 0 0.818-0.367 0.818-0.816v-4.907c0-0.453-0.367-0.82-0.818-0.82-0.454 0-0.821 0.367-0.821 0.82v4.907c0 0.449 0.367 0.816 0.821 0.816z"/>
  <rect x="14.924" y="13.97" width="35.239" height="35.241" rx="6.5051" style="fill-rule:evenodd;opacity:1;stroke-width:1.539;stroke:#000"/>
 </g>
 <g transform="matrix(.54561 0 0 .54562 6.5404 6.5403)">
  <path d="m53.766 21.155h4.905c0.453 0 0.821-0.367 0.821-0.82s-0.368-0.821-0.821-0.821h-4.905c-0.451 0-0.819 0.368-0.819 0.821-1e-3 0.453 0.367 0.82 0.819 0.82z"/>
  <path d="m58.671 23.982h-4.905c-0.451 0-0.819 0.367-0.819 0.821 0 0.451 0.368 0.819 0.819 0.819h4.905c0.453 0 0.821-0.368 0.821-0.819 0-0.454-0.368-0.821-0.821-0.821z"/>
  <path d="m58.671 28.534h-4.905c-0.451 0-0.819 0.369-0.819 0.82 0 0.453 0.368 0.823 0.819 0.823h4.905c0.453 0 0.821-0.37 0.821-0.823 0-0.451-0.368-0.82-0.821-0.82z"/>
  <path d="m58.671 33.001h-4.905c-0.451 0-0.819 0.368-0.819 0.822 0 0.451 0.368 0.819 0.819 0.819h4.905c0.453 0 0.821-0.368 0.821-0.819 0-0.454-0.368-0.822-0.821-0.822z"/>
  <path d="m58.671 37.123h-4.905c-0.451 0-0.819 0.368-0.819 0.82 0 0.451 0.368 0.819 0.819 0.819h4.905c0.453 0 0.821-0.368 0.821-0.819 0-0.452-0.368-0.82-0.821-0.82z"/>
  <path d="m58.671 41.59h-4.905c-0.451 0-0.819 0.368-0.819 0.822 0 0.451 0.368 0.816 0.819 0.816h4.905c0.453 0 0.821-0.365 0.821-0.816 0-0.454-0.368-0.822-0.821-0.822z"/>
  <path d="m10.233 19.514h-4.905c-0.452 0-0.82 0.368-0.82 0.821s0.368 0.82 0.82 0.82h4.905c0.451 0 0.819-0.367 0.819-0.82s-0.368-0.821-0.819-0.821z"/>
  <path d="m10.233 23.982h-4.905c-0.452 0-0.82 0.367-0.82 0.821 0 0.451 0.368 0.819 0.82 0.819h4.905c0.451 0 0.819-0.368 0.819-0.819 0-0.454-0.368-0.821-0.819-0.821z"/>
  <path d="m10.233 28.534h-4.905c-0.452 0-0.82 0.369-0.82 0.82 0 0.453 0.368 0.823 0.82 0.823h4.905c0.451 0 0.819-0.37 0.819-0.823 0-0.451-0.368-0.82-0.819-0.82z"/>
  <path d="m10.233 33.001h-4.905c-0.452 0-0.82 0.368-0.82 0.822 0 0.451 0.368 0.819 0.82 0.819h4.905c0.451 0 0.819-0.368 0.819-0.819 0-0.454-0.368-0.822-0.819-0.822z"/>
  <path d="m10.233 37.123h-4.905c-0.452 0-0.82 0.368-0.82 0.82 0 0.451 0.368 0.819 0.82 0.819h4.905c0.451 0 0.819-0.368 0.819-0.819 0-0.452-0.368-0.82-0.819-0.82z"/>
  <path d="m10.233 41.59h-4.905c-0.452 0-0.82 0.368-0.82 0.822 0 0.451 0.368 0.816 0.82 0.816h4.905c0.451 0 0.819-0.365 0.819-0.816 0-0.454-0.368-0.822-0.819-0.822z"/>
  <path d="m43.582 52.947c-0.451 0-0.819 0.369-0.819 0.82v4.905c0 0.451 0.368 0.819 0.819 0.819 0.453 0 0.821-0.368 0.821-0.819v-4.905c0-0.451-0.368-0.82-0.821-0.82z"/>
  <path d="m39.114 52.947c-0.45 0-0.818 0.369-0.818 0.82v4.905c0 0.451 0.368 0.819 0.818 0.819 0.452 0 0.821-0.368 0.821-0.819v-4.905c1e-3 -0.451-0.369-0.82-0.821-0.82z"/>
  <path d="m34.564 52.947c-0.454 0-0.821 0.369-0.821 0.82v4.905c0 0.451 0.367 0.819 0.821 0.819 0.45 0 0.818-0.368 0.818-0.819v-4.905c1e-3 -0.451-0.367-0.82-0.818-0.82z"/>
  <path d="m30.097 52.947c-0.453 0-0.821 0.369-0.821 0.82v4.905c0 0.451 0.368 0.819 0.821 0.819 0.451 0 0.818-0.368 0.818-0.819v-4.905c0-0.451-0.367-0.82-0.818-0.82z"/>
  <path d="m25.974 52.947c-0.453 0-0.821 0.369-0.821 0.82v4.905c0 0.451 0.369 0.819 0.821 0.819 0.451 0 0.818-0.368 0.818-0.819v-4.905c0-0.451-0.367-0.82-0.818-0.82z"/>
  <path d="m21.508 52.947c-0.454 0-0.821 0.369-0.821 0.82v4.905c0 0.451 0.367 0.819 0.821 0.819 0.451 0 0.818-0.368 0.818-0.819v-4.905c0-0.451-0.367-0.82-0.818-0.82z"/>
  <path d="m43.582 11.051c0.453 0 0.821-0.367 0.821-0.816v-4.907c0-0.453-0.368-0.82-0.821-0.82-0.451 0-0.819 0.367-0.819 0.82v4.907c0 0.449 0.368 0.816 0.819 0.816z"/>
  <path d="m39.114 11.051c0.452 0 0.821-0.367 0.821-0.816v-4.907c0-0.453-0.369-0.82-0.821-0.82-0.45 0-0.818 0.367-0.818 0.82v4.907c0 0.449 0.368 0.816 0.818 0.816z"/>
  <path d="m34.564 11.051c0.45 0 0.818-0.367 0.818-0.816v-4.907c0-0.453-0.368-0.82-0.818-0.82-0.454 0-0.821 0.367-0.821 0.82v4.907c0 0.449 0.367 0.816 0.821 0.816z"/>
  <path d="m30.097 11.051c0.451 0 0.818-0.367 0.818-0.816v-4.907c0-0.453-0.367-0.82-0.818-0.82-0.453 0-0.821 0.367-0.821 0.82v4.907c0 0.449 0.368 0.816 0.821 0.816z"/>
  <path d="m25.974 11.051c0.451 0 0.818-0.367 0.818-0.816v-4.907c0-0.453-0.367-0.82-0.818-0.82-0.453 0-0.821 0.367-0.821 0.82v4.907c0 0.449 0.368 0.816 0.821 0.816z"/>
  <path d="m21.508 11.051c0.451 0 0.818-0.367 0.818-0.816v-4.907c0-0.453-0.367-0.82-0.818-0.82-0.454 0-0.821 0.367-0.821 0.82v4.907c0 0.449 0.367 0.816 0.821 0.816z"/>
  <rect x="14.924" y="13.97" width="35.239" height="35.241" rx="6.5051" style="fill-rule:evenodd;fill:url(#linearGradient4172);stroke-width:1.539;stroke:#000"/>
 </g>
</svg>
