<svg version="1.1" viewBox="0 0 48 48" xmlns="http://www.w3.org/2000/svg">
 <defs>
  <linearGradient id="bg" x2="0" y1="1" y2="47" gradientUnits="userSpaceOnUse">
   <stop style="stop-color:#455463" offset="0"/>
   <stop style="stop-color:#3a4854" offset="1"/>
  </linearGradient>
 </defs>
 <path d="m1 43v0.25c0 2.22 1.78 4 4 4h38c2.22 0 4-1.78 4-4v-0.25c0 2.22-1.78 4-4 4h-38c-2.22 0-4-1.78-4-4zm0 0.5v0.5c0 2.22 1.78 4 4 4h38c2.22 0 4-1.78 4-4v-0.5c0 2.22-1.78 4-4 4h-38c-2.22 0-4-1.78-4-4z" style="opacity:.02"/>
 <path d="m1 43.2v0.25c0 2.22 1.78 4 4 4h38c2.22 0 4-1.78 4-4v-0.25c0 2.22-1.78 4-4 4h-38c-2.22 0-4-1.78-4-4z" style="opacity:.05"/>
 <path d="m1 43v0.25c0 2.22 1.78 4 4 4h38c2.22 0 4-1.78 4-4v-0.25c0 2.22-1.78 4-4 4h-38c-2.22 0-4-1.78-4-4z" style="opacity:.1"/>
 <rect x="1" y="1" width="46" height="46" rx="4" style="fill:url(#bg)"/>
 <path d="m1 39v4c0 2.22 1.78 4 4 4h38c2.22 0 4-1.78 4-4v-4c0 2.22-1.78 4-4 4h-38c-2.22 0-4-1.78-4-4z" style="opacity:.1"/>
 <path d="m23 12a2 2 0 0 0-2 2 2 2 0 0 0 2 2 2 2 0 0 0 2-2 2 2 0 0 0-2-2zm0 1a1 1 0 0 1 1 1 1 1 0 0 1-1 1 1 1 0 0 1-1-1 1 1 0 0 1 1-1zm2.97 0.637c0.0158 0.12 0.0243 0.242 0.0254 0.363-7.02e-4 0.562-0.159 1.11-0.457 1.59l3.48 0.775c-0.0158-0.12-0.0243-0.242-0.0254-0.363 9.22e-4 -0.562 0.16-1.11 0.459-1.59zm6.03 0.363a2 2 0 0 0-2 2 2 2 0 0 0 2 2 2 2 0 0 0 2-2 2 2 0 0 0-2-2zm-12 0.496-4.06 2.26c0.515 0.454 0.858 1.07 0.973 1.75l4.06-2.26c-0.514-0.455-0.857-1.07-0.971-1.75zm12 0.504a1 1 0 0 1 1 1 1 1 0 0 1-1 1 1 1 0 0 1-1-1 1 1 0 0 1 1-1zm-18 2a2 2 0 0 0-2 2 2 2 0 0 0 2 2 2 2 0 0 0 2-2 2 2 0 0 0-2-2zm15.2 0.107-3.75 3.28c0.599 0.336 1.06 0.867 1.32 1.5l3.75-3.28c-0.598-0.336-1.06-0.867-1.32-1.5zm-15.2 0.893a1 1 0 0 1 1 1 1 1 0 0 1-1 1 1 1 0 0 1-1-1 1 1 0 0 1 1-1zm3 1.12c-0.0291 0.685-0.292 1.34-0.744 1.85l4.75 1.9c0.0291-0.685 0.292-1.34 0.744-1.85zm7 1.88a2 2 0 0 0-2 2 2 2 0 0 0 2 2 2 2 0 0 0 2-2 2 2 0 0 0-2-2zm-9 0.824c-0.321 0.115-0.659 0.174-1 0.176-0.341-7.24e-4 -0.679-0.0595-1-0.174v4.35c0.321-0.115 0.659-0.174 1-0.176 0.341 7.24e-4 0.679 0.0595 1 0.174zm9 0.176a1 1 0 0 1 1 1 1 1 0 0 1-1 1 1 1 0 0 1-1-1 1 1 0 0 1 1-1zm10 0a2 2 0 0 0-2 2 2 2 0 0 0 2 2 2 2 0 0 0 2-2 2 2 0 0 0-2-2zm-7.09 0.287c0.0584 0.233 0.0886 0.473 0.0898 0.713-7.84e-4 0.441-0.0988 0.877-0.287 1.28l4.38 0.439c-0.0592-0.234-0.09-0.474-0.0918-0.715 7.84e-4 -0.441 0.0988-0.877 0.287-1.28zm7.09 0.713a1 1 0 0 1 1 1 1 1 0 0 1-1 1 1 1 0 0 1-1-1 1 1 0 0 1 1-1zm-12.9 0.6-5.15 3.09c0.529 0.437 0.892 1.04 1.03 1.71l5.15-3.09c-0.528-0.436-0.892-1.04-1.03-1.71zm4.19 2.12c-0.392 0.182-0.82 0.276-1.25 0.277-0.25-9.62e-4 -0.498-0.0331-0.74-0.0957l0.49 5.4c0.426-0.202 0.894-0.307 1.37-0.309 0.208 9.34e-4 0.415 0.0219 0.619 0.0625zm7.47 0.99-0.438 4.38c0.233-0.0584 0.473-0.0886 0.713-0.0898 0.441 7.84e-4 0.877 0.0988 1.28 0.287l0.438-4.38c-0.233 0.0584-0.473 0.0886-0.713 0.0898-0.441-7.84e-4 -0.877-0.0988-1.28-0.287zm-18.7 0.287a2 2 0 0 0-2 2 2 2 0 0 0 2 2 2 2 0 0 0 2-2 2 2 0 0 0-2-2zm0 1a1 1 0 0 1 1 1 1 1 0 0 1-1 1 1 1 0 0 1-1-1 1 1 0 0 1 1-1zm2.99 1.26c-0.0592 0.683-0.351 1.33-0.826 1.82l5.85 2.66c0.0611-0.678 0.36-1.32 0.848-1.81zm8.01 2.74a2 2 0 0 0-2 2 2 2 0 0 0 2 2 2 2 0 0 0 2-2 2 2 0 0 0-2-2zm8 0a2 2 0 0 0-2 2 2 2 0 0 0 2 2 2 2 0 0 0 2-2 2 2 0 0 0-2-2zm-8 1a1 1 0 0 1 1 1 1 1 0 0 1-1 1 1 1 0 0 1-1-1 1 1 0 0 1 1-1zm8 0a1 1 0 0 1 1 1 1 1 0 0 1-1 1 1 1 0 0 1-1-1 1 1 0 0 1 1-1z" style="opacity:.1"/>
 <path d="m14 15a2 2 0 0 0-2 2 2 2 0 0 0 2 2 2 2 0 0 0 2-2 2 2 0 0 0-2-2zm0 1a1 1 0 0 1 1 1 1 1 0 0 1-1 1 1 1 0 0 1-1-1 1 1 0 0 1 1-1z" style="fill:#ebe89c"/>
 <path d="m14 25a2 2 0 0 0-2 2 2 2 0 0 0 2 2 2 2 0 0 0 2-2 2 2 0 0 0-2-2zm0 1a1 1 0 0 1 1 1 1 1 0 0 1-1 1 1 1 0 0 1-1-1 1 1 0 0 1 1-1z" style="fill:#ea9fd6"/>
 <path d="m25 30a2 2 0 0 0-2 2 2 2 0 0 0 2 2 2 2 0 0 0 2-2 2 2 0 0 0-2-2zm0 1a1 1 0 0 1 1 1 1 1 0 0 1-1 1 1 1 0 0 1-1-1 1 1 0 0 1 1-1z" style="fill:#9beab5"/>
 <path d="m23 10a2 2 0 0 0-2 2 2 2 0 0 0 2 2 2 2 0 0 0 2-2 2 2 0 0 0-2-2zm0 1a1 1 0 0 1 1 1 1 1 0 0 1-1 1 1 1 0 0 1-1-1 1 1 0 0 1 1-1z" style="fill:#ada4ec"/>
 <path d="m34 20a2 2 0 0 0-2 2 2 2 0 0 0 2 2 2 2 0 0 0 2-2 2 2 0 0 0-2-2zm0 1a1 1 0 0 1 1 1 1 1 0 0 1-1 1 1 1 0 0 1-1-1 1 1 0 0 1 1-1z" style="fill:#9ac6f1"/>
 <path d="m24 19a2 2 0 0 0-2 2 2 2 0 0 0 2 2 2 2 0 0 0 2-2 2 2 0 0 0-2-2zm0 1a1 1 0 0 1 1 1 1 1 0 0 1-1 1 1 1 0 0 1-1-1 1 1 0 0 1 1-1z" style="fill:#f1afaf"/>
 <path d="m32 12a2 2 0 0 0-2 2 2 2 0 0 0 2 2 2 2 0 0 0 2-2 2 2 0 0 0-2-2zm0 1a1 1 0 0 1 1 1 1 1 0 0 1-1 1 1 1 0 0 1-1-1 1 1 0 0 1 1-1z" style="fill:#f1d2af"/>
 <path d="m26 11.6c0.0158 0.12 0.0243 0.242 0.0254 0.363-7.02e-4 0.562-0.159 1.11-0.457 1.59l3.48 0.775c-0.0158-0.12-0.0243-0.242-0.0254-0.363 9.22e-4 -0.562 0.16-1.11 0.459-1.59zm-5.93 0.859-4.06 2.26c0.515 0.454 0.858 1.07 0.973 1.75l4.06-2.26c-0.514-0.455-0.857-1.07-0.971-1.75zm9.17 2.61-3.75 3.28c0.599 0.336 1.06 0.867 1.32 1.5l3.75-3.28c-0.598-0.336-1.06-0.867-1.32-1.5zm-12.2 2.02c-0.0291 0.685-0.292 1.34-0.744 1.85l4.75 1.9c0.0291-0.685 0.292-1.34 0.744-1.85zm-2 2.7c-0.321 0.115-0.659 0.174-1 0.176-0.341-7.24e-4 -0.679-0.0595-1-0.174v4.35c0.321-0.115 0.659-0.174 1-0.176 0.341 7.24e-4 0.679 0.0595 1 0.174zm11.9 0.463c0.0584 0.233 0.0886 0.473 0.0898 0.713-7.84e-4 0.441-0.0988 0.877-0.287 1.28l4.38 0.439c-0.0592-0.234-0.09-0.474-0.0918-0.715 7.84e-4 -0.441 0.0988-0.877 0.287-1.28zm-5.85 1.31-5.15 3.09c0.529 0.437 0.892 1.04 1.03 1.71l5.15-3.09c-0.528-0.436-0.892-1.04-1.03-1.71zm4.19 2.12c-0.392 0.182-0.82 0.276-1.25 0.277-0.25-9.62e-4 -0.498-0.0331-0.74-0.0957l0.49 5.4c0.426-0.202 0.894-0.307 1.37-0.309 0.208 9.34e-4 0.415 0.0219 0.619 0.0625zm7.47 0.99-0.438 4.38c0.233-0.0584 0.473-0.0886 0.713-0.0898 0.441 7.84e-4 0.877 0.0988 1.28 0.287l0.438-4.38c-0.233 0.0584-0.473 0.0886-0.713 0.0898-0.441-7.84e-4 -0.877-0.0988-1.28-0.287zm-15.7 2.55c-0.0592 0.683-0.351 1.33-0.826 1.82l5.85 2.66c0.0611-0.678 0.36-1.32 0.848-1.81z" style="fill:#7c8892"/>
 <path d="m33 30a2 2 0 0 0-2 2 2 2 0 0 0 2 2 2 2 0 0 0 2-2 2 2 0 0 0-2-2zm0 1a1 1 0 0 1 1 1 1 1 0 0 1-1 1 1 1 0 0 1-1-1 1 1 0 0 1 1-1z" style="fill:#9be2ea"/>
</svg>
