<svg width="48" height="48" version="1.1" viewBox="0 0 48 48" xmlns="http://www.w3.org/2000/svg">
 <defs>
  <linearGradient id="linearGradient4501" x1="-47" x2="-1" y1="2.8779e-15" y2="6.1232e-17" gradientUnits="userSpaceOnUse">
   <stop style="stop-color:#e7d0d2" offset="0"/>
   <stop style="stop-color:#eedddf" offset="1"/>
  </linearGradient>
 </defs>
 <g transform="translate(0 3.949e-5)">
  <path d="m1 43v0.25c0 2.216 1.784 4 4 4h38c2.216 0 4-1.784 4-4v-0.25c0 2.216-1.784 4-4 4h-38c-2.216 0-4-1.784-4-4zm0 0.5v0.5c0 2.216 1.784 4 4 4h38c2.216 0 4-1.784 4-4v-0.5c0 2.216-1.784 4-4 4h-38c-2.216 0-4-1.784-4-4z" style="opacity:.02"/>
  <path d="m1 43.25v0.25c0 2.216 1.784 4 4 4h38c2.216 0 4-1.784 4-4v-0.25c0 2.216-1.784 4-4 4h-38c-2.216 0-4-1.784-4-4z" style="opacity:.05"/>
  <path d="m1 43v0.25c0 2.216 1.784 4 4 4h38c2.216 0 4-1.784 4-4v-0.25c0 2.216-1.784 4-4 4h-38c-2.216 0-4-1.784-4-4z" style="opacity:.1"/>
 </g>
 <rect transform="rotate(-90)" x="-47" y="1" width="46" height="46" rx="4" style="fill:url(#linearGradient4501)"/>
 <g transform="translate(0 3.949e-5)">
  <g transform="translate(0 -1004.4)">
   <path d="m1 1043.4v4c0 2.216 1.784 4 4 4h38c2.216 0 4-1.784 4-4v-4c0 2.216-1.784 4-4 4h-38c-2.216 0-4-1.784-4-4z" style="opacity:.1"/>
  </g>
 </g>
 <path d="m12 24v12h24v-12zm18-10c-2.2091 0-4 1.7909-4 4s1.7909 4 4 4 4-1.7909 4-4-1.7909-4-4-4z" style="opacity:.1"/>
 <circle cx="30" cy="17" r="4" style="fill:#4c5561"/>
 <path d="m24 11-6 1-6-1 1 6-1 6 6 1 6-1zm12 12-6 1-6-1-1 6 1 6 6-1 6 1z" style="fill:#8686b6"/>
 <path d="m12 11v12l7-5zm12 12v12l7-5z" style="fill:#909bcb"/>
 <path d="m18 17-6 6h12zm12 12-6 6h12z" style="fill:#7b7bb2"/>
 <path d="m12 35 1-6-1-6 6 1 6-1v12l-6-1z" style="fill:#cc7077"/>
 <path d="m19 30-7-7v12z" style="fill:#d2898e"/>
 <path d="m18 29-6 6h12z" style="fill:#cb6269"/>
 <path d="m18 29-6-6h12z" style="fill:#d69fa4"/>
 <path d="m12 11 6 6 6-6zm12 12 6 6 6-6z" style="fill:#a4add0"/>
</svg>
