<?xml version="1.0" encoding="UTF-8"?>
<svg version="1.1" viewBox="0 0 48 48" xmlns="http://www.w3.org/2000/svg">
 <defs>
  <linearGradient id="bg" x2="0" y1="1" y2="47" gradientUnits="userSpaceOnUse">
   <stop style="stop-color:#39d82c" offset="0"/>
   <stop style="stop-color:#32cb25" offset="1"/>
  </linearGradient>
 </defs>
 <path d="m1 43v0.25c0 2.22 1.78 4 4 4h38c2.22 0 4-1.78 4-4v-0.25c0 2.22-1.78 4-4 4h-38c-2.22 0-4-1.78-4-4zm0 0.5v0.5c0 2.22 1.78 4 4 4h38c2.22 0 4-1.78 4-4v-0.5c0 2.22-1.78 4-4 4h-38c-2.22 0-4-1.78-4-4z" style="opacity:.02"/>
 <path d="m1 43.2v0.25c0 2.22 1.78 4 4 4h38c2.22 0 4-1.78 4-4v-0.25c0 2.22-1.78 4-4 4h-38c-2.22 0-4-1.78-4-4z" style="opacity:.05"/>
 <path d="m1 43v0.25c0 2.22 1.78 4 4 4h38c2.22 0 4-1.78 4-4v-0.25c0 2.22-1.78 4-4 4h-38c-2.22 0-4-1.78-4-4z" style="opacity:.1"/>
 <rect x="1" y="1" width="46" height="46" rx="4" style="fill:url(#bg)"/>
 <path d="m1 39v4c0 2.22 1.78 4 4 4h38c2.22 0 4-1.78 4-4v-4c0 2.22-1.78 4-4 4h-38c-2.22 0-4-1.78-4-4z" style="opacity:.1"/>
 <path d="m24 9c-8.28 0-15 6.72-15 15s6.72 15 15 15c6 0 10-2 13-5l-4.5-5c-2 2-4.5 3-8.5 3-3.31 0-6.08-2.23-6.81-6h21.7c0.0921-0.663 0.14-1.33 0.143-2 0-8.28-6.72-15-15-15zm0 7c3.05 0 5.63 1.51 6.59 5h-13.2c0.962-3.49 3.55-5 6.59-5z" style="opacity:.1"/>
 <path d="m24 8c-8.28 0-15 6.72-15 15s6.72 15 15 15c6 0 10-2 13-5l-4.5-5c-2 2-4.5 3-8.5 3-3.31 0-6.08-2.23-6.81-6h21.7c0.0921-0.663 0.14-1.33 0.143-2 0-8.28-6.72-15-15-15zm0 7c3.05 0 5.63 1.51 6.59 5h-13.2c0.962-3.49 3.55-5 6.59-5z" style="fill:#e3f1e2"/>
</svg>
