<svg id="svg5995" version="1.1" viewBox="0 0 48 48" xmlns="http://www.w3.org/2000/svg">
 <defs id="defs5855">
  <linearGradient id="linearGradient3764" x1="1" x2="47" gradientTransform="translate(-48 .0022147)" gradientUnits="userSpaceOnUse">
   <stop id="stop5840" stop-color="#333" offset="0"/>
   <stop id="stop5842" stop-color="#3d3d3d" offset="1"/>
  </linearGradient>
  <clipPath id="clipPath-257904929">
   <g id="g5847" transform="translate(0 -1004.4)">
    <rect id="rect5845" x="1" y="1005.4" width="46" height="46" rx="4" fill="#1890d0"/>
   </g>
  </clipPath>
  <clipPath id="clipPath-273177090">
   <g id="g5852" transform="translate(0 -1004.4)">
    <rect id="rect5850" x="1" y="1005.4" width="46" height="46" rx="4" fill="#1890d0"/>
   </g>
  </clipPath>
 </defs>
 <g id="g5863">
  <path id="path5857" d="m1 43v0.25c0 2.216 1.784 4 4 4h38c2.216 0 4-1.784 4-4v-0.25c0 2.216-1.784 4-4 4h-38c-2.216 0-4-1.784-4-4zm0 0.5v0.5c0 2.216 1.784 4 4 4h38c2.216 0 4-1.784 4-4v-0.5c0 2.216-1.784 4-4 4h-38c-2.216 0-4-1.784-4-4z" opacity=".02"/>
  <path id="path5859" d="m1 43.25v0.25c0 2.216 1.784 4 4 4h38c2.216 0 4-1.784 4-4v-0.25c0 2.216-1.784 4-4 4h-38c-2.216 0-4-1.784-4-4z" opacity=".05"/>
  <path id="path5861" d="m1 43v0.25c0 2.216 1.784 4 4 4h38c2.216 0 4-1.784 4-4v-0.25c0 2.216-1.784 4-4 4h-38c-2.216 0-4-1.784-4-4z" opacity=".1"/>
 </g>
 <g id="g5867">
  <rect id="rect5865" transform="rotate(-90)" x="-47" y="1" width="46" height="46" rx="4" fill="url(#linearGradient3764)"/>
 </g>
 <g id="g5927">
  <g id="g5925" clip-path="url(#clipPath-257904929)">
   <g id="g5923" opacity=".1">
    <g id="g5921">
     <path id="path5869" d="m17.02 32h3.957c0.012 0 0.02 4e-3 0.02 4e-3v1.992s-8e-3 4e-3 -0.02 4e-3h-3.957c-0.012 0-0.023-4e-3 -0.023-4e-3v-1.992s0.012-4e-3 0.023-4e-3"/>
     <path id="path5871" d="m17.02 28.984h3.957c0.012 0 0.02 4e-3 0.02 4e-3v1.992s-8e-3 4e-3 -0.02 4e-3h-3.957c-0.012 0-0.023-4e-3 -0.023-4e-3v-1.992s0.012-4e-3 0.023-4e-3" fill-opacity=".902"/>
     <path id="path5873" d="m17.02 26.02h3.957c0.012 0 0.02 0 0.02 4e-3v1.965c0 4e-3 -8e-3 4e-3 -0.02 4e-3h-3.957c-0.012 0-0.023 0-0.023-4e-3v-1.965c0-4e-3 0.012-4e-3 0.023-4e-3" fill-opacity=".8"/>
     <path id="path5875" d="m17.02 23h3.957c0.012 0 0.02 4e-3 0.02 4e-3v1.953s-8e-3 4e-3 -0.02 4e-3h-3.957c-0.012 0-0.023-4e-3 -0.023-4e-3v-1.953s0.012-4e-3 0.023-4e-3" fill-opacity=".702"/>
     <path id="path5877" d="m17.02 20h3.957c0.012 0 0.02 0 0.02 4e-3v1.941s-8e-3 4e-3 -0.02 4e-3h-3.957c-0.012 0-0.023-4e-3 -0.023-4e-3v-1.941c0-4e-3 0.012-4e-3 0.023-4e-3" fill-opacity=".6"/>
     <path id="path5879" d="m27.02 32.01h3.961c0.012 0 0.02 0 0.02 4e-3v1.977s-8e-3 4e-3 -0.02 4e-3h-3.961c-0.012 0-0.02-4e-3 -0.02-4e-3v-1.977c0-4e-3 8e-3 -4e-3 0.02-4e-3"/>
     <path id="path5881" d="m27.02 29.02h3.961c0.012 0 0.02 4e-3 0.02 4e-3v1.965c0 4e-3 -8e-3 4e-3 -0.02 4e-3h-3.961c-0.012 0-0.02 0-0.02-4e-3v-1.965s8e-3 -4e-3 0.02-4e-3" fill-opacity=".902"/>
     <path id="path5883" d="m27.02 26.05h3.961c0.012 0 0.02 4e-3 0.02 4e-3v1.957s-8e-3 4e-3 -0.02 4e-3h-3.961c-0.012 0-0.02-4e-3 -0.02-4e-3v-1.957s8e-3 -4e-3 0.02-4e-3" fill-opacity=".8"/>
     <path id="path5885" d="m27.02 23.05h3.961c0.012 0 0.02 0 0.02 4e-3v1.941s-8e-3 4e-3 -0.02 4e-3h-3.961c-0.012 0-0.02-4e-3 -0.02-4e-3v-1.941c0-4e-3 8e-3 -4e-3 0.02-4e-3" fill-opacity=".702"/>
     <path id="path5887" d="m27.02 20.06h3.961c0.012 0 0.02 4e-3 0.02 4e-3v1.926c0 4e-3 -8e-3 4e-3 -0.02 4e-3h-3.961c-0.012 0-0.02 0-0.02-4e-3v-1.926s8e-3 -4e-3 0.02-4e-3" fill-opacity=".6"/>
     <path id="path5889" d="m27.02 17h3.961c0.012 0 0.02 4e-3 0.02 4e-3v1.992c0 4e-3 -8e-3 4e-3 -0.02 4e-3h-3.961c-0.012 0-0.02 0-0.02-4e-3v-1.992s8e-3 -4e-3 0.02-4e-3" fill-opacity=".502"/>
     <path id="path5891" d="m32.02 32h3.961c0.012 0 0.02 4e-3 0.02 4e-3v1.992s-8e-3 4e-3 -0.02 4e-3h-3.961c-0.012 0-0.02-4e-3 -0.02-4e-3v-1.992s8e-3 -4e-3 0.02-4e-3"/>
     <path id="path5893" d="m32.02 29h3.961c0.012 0 0.02 0 0.02 4e-3v1.98s-8e-3 4e-3 -0.02 4e-3h-3.961c-0.012 0-0.02-4e-3 -0.02-4e-3v-1.98c0-4e-3 8e-3 -4e-3 0.02-4e-3" fill-opacity=".902"/>
     <path id="path5895" d="m32.02 26.02h3.961c0.012 0 0.02 0 0.02 4e-3v1.965c0 4e-3 -8e-3 4e-3 -0.02 4e-3h-3.961c-0.012 0-0.02 0-0.02-4e-3v-1.965c0-4e-3 8e-3 -4e-3 0.02-4e-3" fill-opacity=".8"/>
     <path id="path5897" d="m32.02 23h3.961c0.012 0 0.02 4e-3 0.02 4e-3v1.953s-8e-3 4e-3 -0.02 4e-3h-3.961c-0.012 0-0.02-4e-3 -0.02-4e-3v-1.953s8e-3 -4e-3 0.02-4e-3" fill-opacity=".702"/>
     <path id="path5899" d="m32.02 20h3.961c0.012 0 0.02 0 0.02 4e-3v1.941s-8e-3 4e-3 -0.02 4e-3h-3.961c-0.012 0-0.02-4e-3 -0.02-4e-3v-1.941c0-4e-3 8e-3 -4e-3 0.02-4e-3" fill-opacity=".6"/>
     <path id="path5901" d="m22.02 32h3.957c0.012 0 0.02 4e-3 0.02 4e-3v1.992s-8e-3 4e-3 -0.02 4e-3h-3.957c-0.012 0-0.023-4e-3 -0.023-4e-3v-1.992s0.012-4e-3 0.023-4e-3"/>
     <path id="path5903" d="m22.02 29h3.957c0.012 0 0.02 0 0.02 4e-3v1.98s-8e-3 4e-3 -0.02 4e-3h-3.957c-0.012 0-0.023-4e-3 -0.023-4e-3v-1.98c0-4e-3 0.012-4e-3 0.023-4e-3" fill-opacity=".902"/>
     <path id="path5905" d="m22.02 26.02h3.957c0.012 0 0.02 0 0.02 4e-3v1.965c0 4e-3 -8e-3 4e-3 -0.02 4e-3h-3.957c-0.012 0-0.023 0-0.023-4e-3v-1.965c0-4e-3 0.012-4e-3 0.023-4e-3" fill-opacity=".8"/>
     <path id="path5907" d="m12.02 32h3.957c0.012 0 0.02 4e-3 0.02 4e-3v1.992s-8e-3 4e-3 -0.02 4e-3h-3.957c-0.012 0-0.023-4e-3 -0.023-4e-3v-1.992s0.012-4e-3 0.023-4e-3"/>
     <path id="path5909" d="m12.02 29.02h3.957c0.012 0 0.02 4e-3 0.02 4e-3v1.969h-0.02-3.957-0.023v-1.969s0.012-4e-3 0.023-4e-3" fill-opacity=".902"/>
     <path id="path5911" d="m12.02 26.04h3.957 0.02v1.957c0 4e-3 -8e-3 4e-3 -0.02 4e-3h-3.957c-0.012 0-0.023 0-0.023-4e-3v-1.957h0.023" fill-opacity=".8"/>
     <path id="path5913" d="m12.02 23.05h3.957c0.012 0 0.02 0 0.02 4e-3v1.941s-8e-3 4e-3 -0.02 4e-3h-3.957c-0.012 0-0.023-4e-3 -0.023-4e-3v-1.941c0-4e-3 0.012-4e-3 0.023-4e-3" fill-opacity=".702"/>
     <path id="path5915" d="m12.02 20.06h3.957c0.012 0 0.02 4e-3 0.02 4e-3v1.93h-0.02-3.957-0.023v-1.93s0.012-4e-3 0.023-4e-3" fill-opacity=".6"/>
     <path id="path5917" d="m12.02 17h3.957c0.012 0 0.02 0 0.02 4e-3v1.988c0 4e-3 -8e-3 4e-3 -0.02 4e-3h-3.957c-0.012 0-0.023 0-0.023-4e-3v-1.988c0-4e-3 0.012-4e-3 0.023-4e-3" fill-opacity=".502"/>
     <path id="path5919" d="m12.02 14h3.957c0.012 0 0.02 4e-3 0.02 4e-3v1.992s-8e-3 4e-3 -0.02 4e-3h-3.957c-0.012 0-0.023-4e-3 -0.023-4e-3v-1.992s0.012-4e-3 0.023-4e-3" fill-opacity=".4"/>
    </g>
   </g>
  </g>
 </g>
 <g id="g5987">
  <g id="g5985" clip-path="url(#clipPath-273177090)">
   <g id="g5983" transform="translate(0,-1)">
    <g id="g5981">
     <path id="path5929" d="m17.02 32h3.957c0.012 0 0.02 4e-3 0.02 4e-3v1.992s-8e-3 4e-3 -0.02 4e-3h-3.957c-0.012 0-0.023-4e-3 -0.023-4e-3v-1.992s0.012-4e-3 0.023-4e-3" fill="#e4c82f"/>
     <path id="path5931" d="m17.02 28.984h3.957c0.012 0 0.02 4e-3 0.02 4e-3v1.992s-8e-3 4e-3 -0.02 4e-3h-3.957c-0.012 0-0.023-4e-3 -0.023-4e-3v-1.992s0.012-4e-3 0.023-4e-3" fill="#e4c82f" fill-opacity=".902"/>
     <path id="path5933" d="m17.02 26.02h3.957c0.012 0 0.02 0 0.02 4e-3v1.965c0 4e-3 -8e-3 4e-3 -0.02 4e-3h-3.957c-0.012 0-0.023 0-0.023-4e-3v-1.965c0-4e-3 0.012-4e-3 0.023-4e-3" fill="#e4c82f" fill-opacity=".8"/>
     <path id="path5935" d="m17.02 23h3.957c0.012 0 0.02 4e-3 0.02 4e-3v1.953s-8e-3 4e-3 -0.02 4e-3h-3.957c-0.012 0-0.023-4e-3 -0.023-4e-3v-1.953s0.012-4e-3 0.023-4e-3" fill="#e4c82f" fill-opacity=".702"/>
     <path id="path5937" d="m17.02 20h3.957c0.012 0 0.02 0 0.02 4e-3v1.941s-8e-3 4e-3 -0.02 4e-3h-3.957c-0.012 0-0.023-4e-3 -0.023-4e-3v-1.941c0-4e-3 0.012-4e-3 0.023-4e-3" fill="#e4c82f" fill-opacity=".6"/>
     <path id="path5939" d="m27.02 32.01h3.961c0.012 0 0.02 0 0.02 4e-3v1.977s-8e-3 4e-3 -0.02 4e-3h-3.961c-0.012 0-0.02-4e-3 -0.02-4e-3v-1.977c0-4e-3 8e-3 -4e-3 0.02-4e-3" fill="#3d8dec"/>
     <path id="path5941" d="m27.02 29.02h3.961c0.012 0 0.02 4e-3 0.02 4e-3v1.965c0 4e-3 -8e-3 4e-3 -0.02 4e-3h-3.961c-0.012 0-0.02 0-0.02-4e-3v-1.965s8e-3 -4e-3 0.02-4e-3" fill="#3d8dec" fill-opacity=".902"/>
     <path id="path5943" d="m27.02 26.05h3.961c0.012 0 0.02 4e-3 0.02 4e-3v1.957s-8e-3 4e-3 -0.02 4e-3h-3.961c-0.012 0-0.02-4e-3 -0.02-4e-3v-1.957s8e-3 -4e-3 0.02-4e-3" fill="#3d8dec" fill-opacity=".8"/>
     <path id="path5945" d="m27.02 23.05h3.961c0.012 0 0.02 0 0.02 4e-3v1.941s-8e-3 4e-3 -0.02 4e-3h-3.961c-0.012 0-0.02-4e-3 -0.02-4e-3v-1.941c0-4e-3 8e-3 -4e-3 0.02-4e-3" fill="#3d8dec" fill-opacity=".702"/>
     <path id="path5947" d="m27.02 20.06h3.961c0.012 0 0.02 4e-3 0.02 4e-3v1.926c0 4e-3 -8e-3 4e-3 -0.02 4e-3h-3.961c-0.012 0-0.02 0-0.02-4e-3v-1.926s8e-3 -4e-3 0.02-4e-3" fill="#3d8dec" fill-opacity=".6"/>
     <path id="path5949" d="m27.02 17h3.961c0.012 0 0.02 4e-3 0.02 4e-3v1.992c0 4e-3 -8e-3 4e-3 -0.02 4e-3h-3.961c-0.012 0-0.02 0-0.02-4e-3v-1.992s8e-3 -4e-3 0.02-4e-3" fill="#3d8dec" fill-opacity=".502"/>
     <path id="path5951" d="m32.02 32h3.961c0.012 0 0.02 4e-3 0.02 4e-3v1.992s-8e-3 4e-3 -0.02 4e-3h-3.961c-0.012 0-0.02-4e-3 -0.02-4e-3v-1.992s8e-3 -4e-3 0.02-4e-3" fill="#db4cdb"/>
     <path id="path5953" d="m32.02 29h3.961c0.012 0 0.02 0 0.02 4e-3v1.98s-8e-3 4e-3 -0.02 4e-3h-3.961c-0.012 0-0.02-4e-3 -0.02-4e-3v-1.98c0-4e-3 8e-3 -4e-3 0.02-4e-3" fill="#db4cdb" fill-opacity=".902"/>
     <path id="path5955" d="m32.02 26.02h3.961c0.012 0 0.02 0 0.02 4e-3v1.965c0 4e-3 -8e-3 4e-3 -0.02 4e-3h-3.961c-0.012 0-0.02 0-0.02-4e-3v-1.965c0-4e-3 8e-3 -4e-3 0.02-4e-3" fill="#db4cdb" fill-opacity=".8"/>
     <path id="path5957" d="m32.02 23h3.961c0.012 0 0.02 4e-3 0.02 4e-3v1.953s-8e-3 4e-3 -0.02 4e-3h-3.961c-0.012 0-0.02-4e-3 -0.02-4e-3v-1.953s8e-3 -4e-3 0.02-4e-3" fill="#db4cdb" fill-opacity=".702"/>
     <path id="path5959" d="m32.02 20h3.961c0.012 0 0.02 0 0.02 4e-3v1.941s-8e-3 4e-3 -0.02 4e-3h-3.961c-0.012 0-0.02-4e-3 -0.02-4e-3v-1.941c0-4e-3 8e-3 -4e-3 0.02-4e-3" fill="#db4cdb" fill-opacity=".6"/>
     <path id="path5961" d="m22.02 32h3.957c0.012 0 0.02 4e-3 0.02 4e-3v1.992s-8e-3 4e-3 -0.02 4e-3h-3.957c-0.012 0-0.023-4e-3 -0.023-4e-3v-1.992s0.012-4e-3 0.023-4e-3" fill="#7fcf5b"/>
     <path id="path5963" d="m22.02 29h3.957c0.012 0 0.02 0 0.02 4e-3v1.98s-8e-3 4e-3 -0.02 4e-3h-3.957c-0.012 0-0.023-4e-3 -0.023-4e-3v-1.98c0-4e-3 0.012-4e-3 0.023-4e-3" fill="#7fcf5b" fill-opacity=".902"/>
     <path id="path5965" d="m22.02 26.02h3.957c0.012 0 0.02 0 0.02 4e-3v1.965c0 4e-3 -8e-3 4e-3 -0.02 4e-3h-3.957c-0.012 0-0.023 0-0.023-4e-3v-1.965c0-4e-3 0.012-4e-3 0.023-4e-3" fill="#7fcf5b" fill-opacity=".8"/>
     <path id="path5967" d="m12.02 32h3.957c0.012 0 0.02 4e-3 0.02 4e-3v1.992s-8e-3 4e-3 -0.02 4e-3h-3.957c-0.012 0-0.023-4e-3 -0.023-4e-3v-1.992s0.012-4e-3 0.023-4e-3" fill="#c52f2f"/>
     <path id="path5969" d="m12.02 29.02h3.957c0.012 0 0.02 4e-3 0.02 4e-3v1.969h-0.02-3.957-0.023v-1.969s0.012-4e-3 0.023-4e-3" fill="#c52f2f" fill-opacity=".902"/>
     <path id="path5971" d="m12.02 26.04h3.957 0.02v1.957c0 4e-3 -8e-3 4e-3 -0.02 4e-3h-3.957c-0.012 0-0.023 0-0.023-4e-3v-1.957h0.023" fill="#c52f2f" fill-opacity=".8"/>
     <path id="path5973" d="m12.02 23.05h3.957c0.012 0 0.02 0 0.02 4e-3v1.941s-8e-3 4e-3 -0.02 4e-3h-3.957c-0.012 0-0.023-4e-3 -0.023-4e-3v-1.941c0-4e-3 0.012-4e-3 0.023-4e-3" fill="#c52f2f" fill-opacity=".702"/>
     <path id="path5975" d="m12.02 20.06h3.957c0.012 0 0.02 4e-3 0.02 4e-3v1.93h-0.02-3.957-0.023v-1.93s0.012-4e-3 0.023-4e-3" fill="#c52f2f" fill-opacity=".6"/>
     <path id="path5977" d="m12.02 17h3.957c0.012 0 0.02 0 0.02 4e-3v1.988c0 4e-3 -8e-3 4e-3 -0.02 4e-3h-3.957c-0.012 0-0.023 0-0.023-4e-3v-1.988c0-4e-3 0.012-4e-3 0.023-4e-3" fill="#c52f2f" fill-opacity=".502"/>
     <path id="path5979" d="m12.02 14h3.957c0.012 0 0.02 4e-3 0.02 4e-3v1.992s-8e-3 4e-3 -0.02 4e-3h-3.957c-0.012 0-0.023-4e-3 -0.023-4e-3v-1.992s0.012-4e-3 0.023-4e-3" fill="#c52f2f" fill-opacity=".4"/>
    </g>
   </g>
  </g>
 </g>
 <g id="g5993">
  <g id="g5991" transform="translate(0 -1004.4)">
   <path id="path5989" d="m1 1043.4v4c0 2.216 1.784 4 4 4h38c2.216 0 4-1.784 4-4v-4c0 2.216-1.784 4-4 4h-38c-2.216 0-4-1.784-4-4z" opacity=".1"/>
  </g>
 </g>
</svg>
