<svg width="48" height="48" version="1.1" viewBox="0 0 48 48" xmlns="http://www.w3.org/2000/svg">
 <defs>
  <linearGradient id="bg" x1="-47" x2="-1" y1="2.8779e-15" y2="6.1232e-17" gradientUnits="userSpaceOnUse">
   <stop style="stop-color:#66c6da" offset="0"/>
   <stop style="stop-color:#76ccde" offset="1"/>
  </linearGradient>
 </defs>
 <g transform="translate(0 3.949e-5)">
  <path d="m1 43v0.25c0 2.216 1.784 4 4 4h38c2.216 0 4-1.784 4-4v-0.25c0 2.216-1.784 4-4 4h-38c-2.216 0-4-1.784-4-4zm0 0.5v0.5c0 2.216 1.784 4 4 4h38c2.216 0 4-1.784 4-4v-0.5c0 2.216-1.784 4-4 4h-38c-2.216 0-4-1.784-4-4z" style="opacity:.02"/>
  <path d="m1 43.25v0.25c0 2.216 1.784 4 4 4h38c2.216 0 4-1.784 4-4v-0.25c0 2.216-1.784 4-4 4h-38c-2.216 0-4-1.784-4-4z" style="opacity:.05"/>
  <path d="m1 43v0.25c0 2.216 1.784 4 4 4h38c2.216 0 4-1.784 4-4v-0.25c0 2.216-1.784 4-4 4h-38c-2.216 0-4-1.784-4-4z" style="opacity:.1"/>
 </g>
 <rect transform="rotate(-90)" x="-47" y="1" width="46" height="46" rx="4" style="fill:url(#bg)"/>
 <path d="m15.93 2-0.76758 0.22852-0.9707 0.066406-0.5957 0.43359-0.7793-0.03125 0.06445 0.5 1.125-0.029297 0.40625 1.0938 0.1543 0.59766-0.625 0.34375-0.25 0.46484 0.18945 1.0625 0.75 0.125 0.71875-0.6875 0.625-0.65625 0.9668-0.25 1.2207-0.59375 0.7207-0.875 1.0293-1.2539 0.7207-0.1875-0.03125-0.27734h-1.125l-2.7461-0.074219h-0.80078zm-2.1426 0.042969-0.8125 0.035156-1.4082 0.375-0.81055 0.25-0.9375-0.375-0.125 0.5625 1.1191 0.65625s2.0491-1.1289 2.1621-1.1289l0.8125-0.375zm12.184 0.41797c-0.055 0.02-1.5312 0.021484-1.5312 0.021484l-0.37695 0.097656 0.5 0.59961 0.5332-0.5 0.34375 0.21875 0.5-0.25s0.09025-0.2105 0.03125-0.1875zm6.0039 0.46094-0.37891 0.00391-0.46484 0.0625-0.41016 0.25-0.46484 0.34766-0.28125 0.5 0.4375 0.4375 0.375 0.03125 0.1543-0.25391-0.375-0.3125 0.2207-0.1875 0.0293-0.15234 0.4707-0.3125h0.65234l0.19141-0.19141zm-26.25 0.1875-0.09375 0.31641 0.46875 0.1543 0.53125-0.25-0.90625-0.2207zm23.705 2.2695 0.01758-0.013672-0.0293 0.015625-0.0625 0.00977-0.09961 0.076172-1.0352 0.55078-0.31641-0.22266-0.14648-0.25 0.0625-0.25391 0.69141 0.035156 0.3125-0.125-0.625-0.31641-0.875-0.3125-0.875-0.15625-0.9375 0.19141-0.97461 0.77734-0.4375 0.43945-0.65234 0.7207-0.25781 0.029297-0.08984 0.3457 0.11719 0.34375 0.15625 0.15625 0.25391-0.125 0.15234-0.15625 0.25-0.064453 0.1875 0.375 0.22461 0.31445 0.09961 0.25 0.375-0.25 0.02539-0.41016 0.27539-0.18945 0.06641-0.1543-0.19141-0.2207-0.15039-0.064453 0.06836-0.31445s0.12109-0.064516 0.12109-0.10352c0-0.035 0.18555-0.18945 0.18555-0.18945l0.23242-0.27539 0.15234-0.19141 0.22266-0.15234 0.25 0.1875v0.125l-0.22266 0.25-0.0625 0.25v0.35547l0.1875 0.14453 0.34766-0.019531 0.3125-0.066406 0.27344 0.15625-1.1289 0.72656v0.31445l-0.01758 0.097656-2.0918 0.43555 0.0332-0.22656 0.15625-0.25-0.28125-0.22266-0.19141 0.28125 0.125 0.28125-0.84375 0.125-0.46289 1.0625-1.0391 0.69532 0.1875 0.30859 0.15625 0.22266 0.09375 0.21875-0.1875 0.25h-0.09766l-0.65625 0.125-0.12109-0.2793-0.43945 0.4375-0.1875 0.71875v0.32617c-1.3288 0.46248-2.0156 1.212-2.0156 2.2207v2.25h0.29688l-0.02148 1h-2.5254c-1.8629 0-3.5906 1.8663-3.7246 5.5586l-0.86524-0.49414-0.26758-0.64648s-0.48236-0.81641-0.56836-0.81641c-0.09 0-0.65039 0.03125-0.65039 0.03125l-0.52344-0.53125-0.35156-0.64648-1.3477-0.2793-0.43359-0.2207h-0.875l-0.037109 0.04297-0.81641 0.43945-0.097656 0.89844-0.1875 1-0.56641 0.75 0.023438 1.1074 0.47656 1.1562 0.5 1.4062 1.3164 1.3125 0.0625 0.75 0.09375 3.3926 0.47461 1.8945s0.28866 1.1054 0.22266 1.1914 0.37891 0.89648 0.37891 0.89648l0.875 1.375 1.2305 0.53125-0.5-0.59766-0.25391-0.69141 0.25391-0.71875-0.65625-0.35547s0.438-0.273 0.5-0.375c0.063-0.09-0.09375-0.47266-0.09375-0.47266l-0.19141-0.46875 0.5-0.64844 0.78125-0.1875 0.12109-0.60547-0.46484-0.22266 0.18555-0.5 0.75-0.08984 0.6582-1.6016 0.4668-1.0977 0.98242-0.4707s0.06148-0.19607 0.11914-0.37695c0.68419 0.91149 1.5744 1.3809 2.5 1.3809h1.25v-3.5c0-0.35943 0.0726-0.69871 0.1875-1.0176l1.1094 0.51562h0.11328c-0.25687 0.44264-0.41406 0.9513-0.41406 1.502v5.75c0 1.75 2 2.75 6 2.75s6-1 6-2.75v-2.25h-1.8496l0.23242-0.36133 0.0625-0.59375 0.04492-0.04492h2.7578l0.01367 0.0039 2e-3 -0.0039h0.98633c1.939 0 3.7539-2 3.7539-6 0-3.2494-1.2025-5.1559-2.6914-5.7656l0.39648-0.22852 0.34961-0.59375 0.03516-0.5-0.28125-0.31641-0.375-0.4375-0.25391 0.15625-0.15234 0.25391-0.41016-0.1875-0.125-0.31641-0.26953-0.40625-0.44141-0.40625v-0.81641l0.28125 0.53125 0.34375 0.53516 0.59375 0.34375 0.41016-0.09375 0.25 0.28125 1.7793-0.03516-0.0293 0.03516 0.56641 0.5 0.41016 0.5625 0.11133 0.27734h0.28125l0.09375-0.3125 0.09961 0.46875 0.14648 0.84375 0.35352 0.8125 0.1875 0.69141 0.2793 0.65625 0.2207 0.27344 0.31641-0.18945 0.08789-0.31445 0.125-0.77148-0.0293-0.68945 0.25-0.31641s0.27341-0.355 0.31641-0.375c0.051-0.012 0.625-0.64844 0.625-0.64844l0.28125-0.35156 0.3125-0.1875 0.38281-0.2207h0.14844l0.0625 0.3457 0.15625 0.4043 0.5 0.64648v0.25l0.08984 0.28125 0.35547-0.15625-0.0332-0.375 0.31836 0.06445 0.0625 0.3457-0.01953 0.5293 0.0957 0.375 0.27539 0.06445 0.09766-0.31445 0.34766 0.2207 0.06641 0.3125 0.3125 0.47266 0.31641 0.34375 0.21875 0.19141 0.53125-0.47266 0.21875-0.43945-0.0918-0.5-0.0918-0.6543-0.59961-0.56641-0.09961-0.5625 0.25586-0.39844s0.15241-0.31634 0.31641-0.15234c0.145 0.168 0.22734 0.188 0.15234 0.375-0.063 0.184-0.1875 0.59766-0.1875 0.59766l0.375 0.15625 0.15625-0.53125-0.15625-0.37891 0.37695-0.15625 0.69336-0.34375 0.43164-0.53125 0.3457-0.80859-0.02734-0.60156-0.34766-0.77344-0.6875-0.81641-0.44141-0.39844-0.21875-0.625 0.40625-0.10156s0.2295-0.3945 0.4375-0.1875c0.203 0.219 0.5 0.52734 0.5 0.52734s0.35525 0.566 0.40625 0.625c0.01579 0.02073 0.08696 0.09086 0.14648 0.14844v-4.7695c-0.18621-0.081656-0.67969-0.44336-0.67969-0.44336l0.06641-0.5 0.25391-0.44141 0.35938-0.044922v-0.99805l-0.15039-1.0215-0.47656-0.61914zm0.01765-0.013632 0.8086-0.28515-0.81641 0.26953-0.02344 0.00781 0.0078 0.011719 0.02344-0.00391zm-25.08-1.8223-0.5 0.55859 0.44141 0.22656 0.5625-0.25781 0.023437 0.625 0.47656 0.31641 0.5-0.47461 0.69141 0.125 0.27734-0.65039-1.125-0.099609-1.3477-0.36914zm3.123 0.09375-0.019531 0.00391 0.023438 0.00391zm0.00391 0.00781 0.4375 1.0938-0.52734 0.0625-0.40039 0.5-0.91016-0.27734-0.81445 0.31641-0.77539-0.19141-0.90625-0.5625-1.25 0.027344-1.1035 0.47266-0.11328-0.054688c-0.0773 0.3114-0.12891 0.63285-0.12891 0.96875v12.766l0.43359-0.05469 0.72656 0.34375 1.1035 0.59766 0.14648 0.73047 0.875 0.83984 0.5-0.375 0.39844 0.31641-0.066406-0.73047-0.77148 0.19141-0.25-0.90625-0.10352-0.41016-0.6875-0.62109v-0.4375l0.52734-0.56641-0.35156-0.39453-0.5625 0.08984-0.84961 0.84375-0.68359-0.08984s-0.316-0.53125-0.375-0.65625c-0.06603-0.125 0.1875-0.5625 0.1875-0.5625l-0.0625-1.2852 0.71875-0.5 0.55859-0.19141h0.81641l1.1172-0.25 0.41016 0.53125-0.066406 0.625 0.46875 0.40625 0.066406-0.44141s-0.026656-0.71925-0.097656-0.90625c-0.066-0.188 0.5625-0.625 0.5625-0.625l0.5-0.60156 0.59375-0.73047 0.28125-0.5625 0.93945-0.49609 0.61914-0.69141s0.938-0.14531 1.125-0.25391c0.188-0.09 0.063-0.434-0.125-0.75-0.191-0.313 0.099609-0.625 0.099609-0.625l0.7207-0.43359 0.62109 0.12109 0.06836 0.75391s0.58358 0.56284 0.76758 0.46484c0.191-0.09 0.2832-0.40625 0.2832-0.40625l-0.31641-0.8125 0.19141-0.81641-0.84766 0.12109v-1.375l-0.25 0.25391-0.65234 0.03125-0.09766-0.69141-0.43945-0.51953s-0.43366 0.24953-0.84766 0.39453c-0.41 0.156-0.31641 0.48047-0.31641 0.48047l-0.021484 0.84375-0.69141 0.56641-0.43945 0.64453s-0.27148-0.1875-0.27148-0.3125-0.066406-0.48047-0.066406-0.48047l-0.71875-0.55859s-0.56275-0.40625-0.59375-0.53125 0.34375-0.6875 0.34375-0.6875 0.816-0.50025 1-0.65625c0.191-0.156 1.2148 0.34391 1.3398 0.25391 0.129-0.094 0.625-0.875 0.625-0.875l0.44141-0.59766-0.44141 0.5-0.75-0.72656 0.125-0.71875-0.99609-0.15234zm2.4883 0.03125-0.039062 0.00391 0.027344 0.027344 0.011719-0.03125zm-0.011719 0.03125-0.24609 0.59375 0.14453 0.34375 0.56641-0.064453 0.25 0.4707-0.5 0.5293-0.56641 0.064453 0.5 0.22852 0.5293 0.4668 0.5293 0.125 0.18555-0.7207 0.0332-0.43945 0.625 0.09375s-0.18756 0.31641-0.10156 0.31641c0.102 0 0.47656-0.40625 0.47656-0.40625l-1.0645-1.0977s-0.43945-0.352-0.56445-0.25c-0.133 0.09-0.48047 0.0625-0.48047 0.0625l-0.31641-0.31641zm8.6641 1.7656-0.125 0.40625c0.438 0.348 0.625 0.34375 0.625 0.34375l0.51758-0.125 0.35742-0.34375-0.23242-0.28125h-1.1426zm2.7676 1.7812-0.25 0.21875-0.14258 0.62109 0.4707 0.22266 0.06836 0.27734-0.27344 0.25391-0.2168 0.375 0.15625 0.15625 0.56055-0.095703 0.5-0.22656-0.26758-0.375-0.10742-0.64844-0.34961-0.375-0.14844-0.4043zm-0.79492 1.1758-0.26953 0.46875 0.375 0.15625 0.14453-0.28125zm-15.449 1.0898 0.011719 0.015625 0.64648 0.26953 0.44141 0.56641 0.26953 0.43359s-0.2455 0.844-0.3125 1c-0.066 0.156-0.27344-0.3125-0.27344-0.3125l-0.14648-0.81641-0.52539 0.23047-0.40039 0.96484 0.095703-0.81641 0.125-0.5625-0.64844-0.25 0.56641-0.53125 0.15039-0.19141zm26.504 0.76953c0.124 0.0319 0.26172 0.14844 0.26172 0.14844l-0.25977 0.23047 0.09961 0.3125 0.27539 0.75 0.27344 0.48047 0.37695 0.59766-0.39258 0.19141-0.53125-0.34766-0.21875-0.65234s-0.31641-0.40166-0.44141-0.47266c-0.133-0.063-0.25-0.27734-0.25-0.27734l0.125-0.52734s0.44141-0.35234 0.56641-0.40234l2e-3 -0.02734c0.033-0.0158 0.07228-0.0146 0.11328-0.0039zm-4.0391 0.07031 0.56445 0.09375 0.09375 0.3125 0.21875 0.15625 0.25-0.21875-0.14453-0.34375h0.64453l-0.21875 0.375 0.44141 0.375 0.375 0.1875 0.2168 0.4375-0.5 0.12109-0.7168-0.14453h-0.625l-0.59961 0.3125-0.125 0.19141-0.36719 0.07813c-0.22458-0.04878-0.45197-0.09447-0.70312-0.13086l0.03906-0.14648 0.1875-0.21875 0.43945 0.15625 0.1543 0.0625-0.0293-0.5 0.25-0.46875 0.1543-0.6875zm-3.0664 0.28125 0.75 0.75 0.37891 0.44141v0.24609c-0.13752-0.01224-0.26994-0.0261-0.41406-0.03516l-0.08789-0.18359-1.0664-1 0.0957-0.1875 0.34375-0.03125zm-0.87891 0.28516 0.93359 1.0938c-0.20554-0.0059-0.39398-0.01953-0.61133-0.01953-0.05973 0-0.10914 0.0054-0.16797 0.0059l0.0039-0.0332-0.18945-0.46094-0.26562 0.50976c-0.5567 0.0161-1.0711 0.05129-1.541 0.10938l0.11719-0.20898 0.53125-0.65234 0.96875-0.15625 0.2207-0.1875zm-19.264 5.9707 0.011719 0.01758-0.31641 0.14844 0.52344 0.27734 0.60156 0.10352 0.35547 0.48047 0.39453-0.25-0.0625-0.27734-0.69141-0.5h-0.81641zm38.16 3.5547c0.113 0.129 0.81616 2.2207 0.91016 2.2207 0.086 0 0.62109 0.0625 0.62109 0.0625l-0.28125-0.84375-1.25-1.4395zm-3.5898 0.06445-0.3125 0.40625 0.14453 0.59766 0.35547-0.375-0.06641-0.47266zm8.0156 0.76172-1.3945 0.77344c0 0.09-0.71875 0.6875-0.71875 0.6875l0.1875 0.625 0.40625 0.46875 0.28125 0.6875 1.2383-0.80664v-2.4355zm-4.5156 0.39453-0.4375 0.0625 2 3 0.51953 0.60547 1.3164 0.0625 0.8125 0.27344-0.875-0.625-1.25-0.35547-0.3125-1.1445-0.69141-0.56641-1.0918-1.2695 0.0098-0.04297zm4.5156 6.7832c-0.308 0.055-0.62853 0.12283-0.64453 0.17383-0.02 0.098-0.5625 0.375-0.5625 0.375-0.113 0-0.48047 0.6543-0.48047 0.6543l-0.06445 2.0645-0.125 0.75 0.31641 0.39648 1.5254-0.52148 0.03516-0.03906v-3.8535zm-35.531 7.5976-0.2207 0.14844-0.09766 0.02734 0.5 0.25zm-0.87305 0.17578 0.0078 0.01172 0.0039-0.01172zm0.0078 0.01172-0.21875 0.48828 0.4375-0.10156z" style="opacity:.1"/>
 <path d="m15.929 1-0.768 0.2285-0.969 0.0664-0.597 0.4336-0.778-0.0312 0.063 0.5 1.125-0.0293 0.406 1.0937 0.156 0.5977-0.625 0.3437-0.25 0.4649 0.188 1.0625 0.75 0.125 0.719-0.6875 0.625-0.6563 0.968-0.25 1.219-0.5937 0.721-0.875 1.029-1.2539 0.721-0.1875-0.031-0.2774h-1.125l-2.746-0.0742zm-2.143 0.043-0.812 0.0351-1.407 0.375-0.812 0.25-0.9376-0.375-0.125 0.5625 1.1206 0.6563s2.048-1.1289 2.161-1.1289zm21.059 0.2226-0.19 0.3164 1.157 0.1485 0.062-0.2696zm-8.875 0.1953c-0.055 0.02-1.531 0.0215-1.531 0.0215l-0.376 0.0977 0.5 0.5996 0.532-0.5 0.344 0.2187 0.5-0.25s0.09-0.2105 0.031-0.1875zm6.004 0.461-0.379 0.0039-0.465 0.0625-0.41 0.25-0.465 0.3476-0.281 0.5 0.437 0.4375 0.375 0.0313 0.156-0.2539-0.375-0.3125 0.219-0.1875 0.031-0.1524 0.469-0.3125s0.609 8e-3 0.653 0c0.046-0.012 0.191-0.1914 0.191-0.1914zm-26.25 0.1875-0.0938 0.3164 0.4688 0.1543 0.5312-0.25zm31.879 0.0625-0.098 0.0332-2.131 0.0957-0.562 0.375-0.622 0.375-0.531 0.4375 0.065 0.1875-0.282 0.0312v0.0039l-4.013 0.668 0.017-0.0137-0.029 0.0157-0.061 0.0097-0.101 0.0762-1.035 0.5508-0.317-0.2227-0.146-0.25 0.062-0.2539 0.692 0.0352 0.312-0.125-0.625-0.3164-0.875-0.3125-0.875-0.1563-0.937 0.1914-0.975 0.7774-0.437 0.4394-0.653 0.7207-0.257 0.0293-0.09 0.3457 0.117 0.3438s0.141 0.1562 0.156 0.1562c0.023 0 0.254-0.125 0.254-0.125s0.023-0.1172 0.152-0.1562c0.133-0.039 0.25-0.0645 0.25-0.0645l0.188 0.375 0.226 0.3145 0.098 0.25s0.359-0.223 0.375-0.25c0.016-0.031 0.027-0.4102 0.027-0.4102l0.274-0.1894s0.074-0.1313 0.066-0.1543c-0.012-0.023-0.191-0.2207-0.191-0.2207l-0.149-0.0645 0.067-0.3144s0.121-0.0646 0.121-0.1036c0-0.035 0.187-0.1894 0.187-0.1894l0.231-0.2754 0.152-0.1914 0.223-0.1524 0.25 0.1875v0.125l-0.223 0.25-0.062 0.25v0.3555l0.187 0.1445 0.348-0.0195 0.312-0.0664 0.274 0.1563-0.067 0.2187s-0.187 0.1907-0.265 0.2227c-0.059 0.027-0.396-0.0643-0.485-0.0293-0.102 0.031-0.312 0.3144-0.312 0.3144s-0.023 0.2515 0 0.3145c6e-3 0.0174-7e-3 0.0579-0.018 0.0976l-0.084 0.0625-0.375 0.2813h-0.031l-0.254-0.0938s-0.152 0.0084-0.219 0.0664c-0.063 0.051-0.12 0.1002-0.312 0.1192-0.191 0.02-0.565 0-0.596 0h-0.219l0.032-0.2266 0.156-0.25-0.281-0.2226s-0.192 0.2302-0.192 0.2812c-8e-3 0.055 0.125 0.2813 0.125 0.2813s-0.062 0.1797-0.093 0.2187-0.317 0.125-0.317 0.125l-0.433-0.2187s-0.181-0.0395-0.157 0.0625c0.023 0.102 0.225 0.1952 0.225 0.2812 0 0.082-0.125 0.2774-0.125 0.2774l-0.152 0.1875-0.254 0.2539-0.344 0.0898s-0.246 0.0698-0.316 0.0938c-0.063 0.023-0.25 0.0664-0.25 0.0664l-0.254 0.0312-0.153 0.2227 0.278 0.1914 0.187 0.3086s0.125 0.2226 0.156 0.2226 0.094 0.2188 0.094 0.2188l-0.187 0.2498h-0.098l-0.656 0.125-0.121-0.279-0.44 0.437-0.187 0.719v0.598l0.75 0.406 0.597-0.219 0.594-1.066 0.531-0.652 0.969-0.157 0.221-0.1872 1.094 1.2812 0.125 0.438 0.316-0.157-0.1-0.375h0.192l-0.121-0.254-1.067-0.9996 0.096-0.1875 0.344-0.0313 0.75 0.7504 0.379 0.441v0.688l0.187 0.125 0.375 0.375 0.277-0.094-0.152-0.567 0.094-0.343 0.187-0.219 0.44 0.156 0.154 0.063-0.029-0.5 0.25-0.469 0.154-0.6876 0.565 0.0937 0.093 0.3125 0.219 0.1563 0.25-0.2188-0.144-0.3437h0.644l-0.219 0.375 0.442 0.3746 0.375 0.188 0.218 0.437-0.5 0.121-0.718-0.144h-0.625l-0.6 0.312-0.125 0.192-0.434 0.094 0.192 0.468 0.344 0.407 0.621-0.219 0.152 0.269 0.281-0.218 0.375 0.066 0.032 0.402-0.125 0.778-0.344-0.032-4.627-0.433v-0.942l-0.567 0.032-0.031 0.312-1.375-0.062-0.433 0.4-0.844 0.024-2.41 3.009-0.032 1.625-0.187 0.5 6.354 10.09 0.189 0.19 0.279 1.093 0.032 0.473 0.564 0.75 0.064 0.594 0.09 0.687 0.346-0.343 0.875-0.09h0.533l0.967-1.5 0.064-0.594 0.657-0.656 2.539-7.348-8e-3 -1.816-0.563-0.157-0.343-0.562-0.282-0.567-0.656-0.5-0.156-0.812 0.473-0.16 0.406 0.75 0.437 0.722 0.594 0.598 0.531-0.5 0.606-0.156 0.433-0.531 0.594-0.344 0.35-0.594 0.035-0.5-0.281-0.316-0.375-0.438-0.254 0.156-0.153 0.254-0.41-0.187-0.125-0.317-0.269-0.406-0.442-0.406v-0.816l0.282 0.531 0.343 0.535 0.594 0.344 0.41-0.094 0.25 0.281 1.781-0.035-0.031 0.035 0.567 0.5 0.41 0.563 0.111 0.277h0.281l0.094-0.312 0.1 0.468 0.146 0.844 0.354 0.813 0.187 0.691 0.281 0.656 0.219 0.274 0.317-0.19 0.089-0.314 0.125-0.772-0.031-0.689 0.25-0.317s0.274-0.355 0.317-0.375c0.051-0.012 0.625-0.648 0.625-0.648l0.281-0.352 0.312-0.187 0.383-0.221h0.149l0.062 0.346 0.156 0.404 0.5 0.647v0.25l0.09 0.281 0.356-0.156-0.032-0.375 0.317 0.064 0.062 0.346-0.019 0.529 0.097 0.375 0.274 0.065 0.098-0.315 0.347 0.221 0.067 0.312 0.312 0.473 0.317 0.344 0.218 0.191 0.532-0.473 0.218-0.439-0.09-0.5-0.093-0.654-0.6-0.567-0.098-0.562 0.254-0.399s0.153-0.316 0.317-0.152c0.145 0.168 0.227 0.188 0.152 0.375-0.063 0.184-0.187 0.598-0.187 0.598l0.375 0.156 0.156-0.531-0.156-0.379 0.378-0.156 0.692-0.344 0.433-0.531 0.344-0.809-0.027-0.602-0.348-0.773-0.687-0.816-0.442-0.399-0.218-0.625 0.406-0.101s0.229-0.395 0.437-0.188c0.203 0.219 0.5 0.527 0.5 0.527s0.356 0.566 0.407 0.625c0.016 0.021 0.088 0.093 0.148 0.151v-4.7698c-0.185-0.0803-0.682-0.4453-0.682-0.4453l0.067-0.5 0.254-0.4414 0.361-0.0449v-0.9746c0-0.364-0.062-0.7102-0.152-1.0449l-0.477-0.6192-1.644-0.1914-1.286-0.3144s-0.386 0.2984-0.593 0.3144c-0.203 0.023-0.907 0.125-0.907 0.125l-0.718-0.4394-1.5-0.125-0.067-0.0293-1.285-0.0645zm-8.157 2.1933 4.067-0.6894-0.028-0.1563-0.314-0.4394-0.647-0.0625s0.147 0.664 0.147 0.75c0 0.082-0.44 0.0273-0.44 0.0273l-0.75 0.0352s-1.085 0.25-1.226 0.25c-0.133 0-0.766 0.2615-0.816 0.2695l-0.024 0.0078 8e-3 0.0117zm-25.08-1.8222-0.5 0.5586 0.4414 0.2265 0.5625-0.2578 0.0235 0.625 0.4765 0.3164 0.5-0.4746 0.6914 0.125 0.2774-0.6504-1.125-0.0996zm3.1231 0.0937-0.0195 0.0039 0.0234 0.0039zm0.0039 0.0078 0.4375 1.0938-0.5274 0.0625-0.4003 0.5-0.9102-0.2774-0.8145 0.3164-0.7753-0.1914-0.9063-0.5625-1.25 0.0274-1.1035 0.4726-0.1133-0.0547c-0.0773 0.3114-0.1289 0.6329-0.1289 0.9688v12.766l0.4336-0.055 0.7266 0.344 1.1035 0.597 0.1465 0.731 0.875 0.84 0.5-0.375 0.3984 0.316-0.0664-0.73-0.7715 0.191-0.25-0.906-0.1035-0.41-0.6875-0.621v-0.438l0.5273-0.566-0.3515-0.395-0.5625 0.09-0.8496 0.844-0.6836-0.09s-0.316-0.531-0.375-0.656c-0.06603-0.125 0.1875-0.563 0.1875-0.563l-0.0625-1.285 0.7187-0.5 0.5586-0.191h0.8164l1.1172-0.25 0.4102 0.531-0.0664 0.625 0.4687 0.406 0.0664-0.441s-0.0266-0.72-0.0976-0.907c-0.066-0.188 0.5625-0.625 0.5625-0.625l0.5-0.601 0.5937-0.731 0.2813-0.562 0.9394-0.496 0.6191-0.692s0.938-0.145 1.125-0.2536c0.188-0.09 0.063-0.434-0.125-0.75-0.191-0.313 0.0997-0.625 0.0997-0.625l0.7223-0.4336 0.621 0.1211 0.067 0.7539s0.585 0.5629 0.769 0.4649c0.191-0.09 0.282-0.4063 0.282-0.4063l-0.317-0.8125 0.192-0.8164-0.848 0.1211v-1.375l-0.25 0.2539-0.652 0.0313-0.098-0.6915-0.4395-0.5195s-0.4337 0.2495-0.8477 0.3945c-0.41 0.156-0.3164 0.4805-0.3164 0.4805l-0.0215 0.8438-0.6914 0.5664-0.4394 0.6445s-0.2715-0.1875-0.2715-0.3125-0.0664-0.4805-0.0664-0.4805l-0.7188-0.5586s-0.5627-0.4062-0.5937-0.5312 0.3437-0.6875 0.3437-0.6875 0.816-0.5003 1-0.6563c0.191-0.156 1.2149 0.3439 1.3399 0.2539 0.129-0.094 0.625-0.875 0.625-0.875l0.4414-0.5976-0.4414 0.5-0.75-0.7266 0.125-0.7187zm2.4883 0.0313-0.0391 0.0039 0.0274 0.0273zm-0.0117 0.0312-0.2461 0.5938 0.1445 0.3437 0.5668-0.0644 0.25 0.4707-0.5 0.5293-0.5668 0.0644 0.4998 0.2285 0.531 0.4668 0.528 0.125 0.187-0.7207 0.032-0.4394 0.625 0.0937s-0.188 0.3164-0.102 0.3164c0.102 0 0.477-0.4062 0.477-0.4062l-1.065-1.0977s-0.439-0.352-0.564-0.25c-0.133 0.09-0.481 0.0625-0.481 0.0625zm8.6642 1.7657-0.125 0.4062c0.438 0.348 0.625 0.3438 0.625 0.3438l0.519-0.125 0.356-0.3438-0.231-0.2812zm2.769 1.7812-0.25 0.2188c-0.063 0.305-0.144 0.6211-0.144 0.6211l0.472 0.2226 0.067 0.2774-0.272 0.2539-0.218 0.375 0.156 0.1562 0.562-0.0957 0.5-0.2266-0.269-0.375-0.106-0.6484-0.351-0.375zm-0.795 1.1758-0.271 0.4687 0.375 0.1563 0.146-0.2813zm-15.449 1.0898 0.0117 0.0157 0.6446 0.2695 0.4414 0.5664 0.2695 0.4336s-0.2455 0.8443-0.3125 1.0003c-0.066 0.156-0.2734-0.313-0.2734-0.313l-0.1446-0.8162-0.5273 0.2304-0.3985 0.9648 0.0957-0.816 0.125-0.5628-0.6484-0.25 0.5664-0.5313zm26.502 0.7696c0.124 0.0319 0.262 0.1484 0.262 0.1484l-0.26 0.2305 0.1 0.3125 0.275 0.7495 0.274 0.481 0.378 0.598-0.394 0.191-0.531-0.348-0.219-0.652s-0.316-0.402-0.441-0.473c-0.133-0.063-0.25-0.277-0.25-0.277l0.125-0.5273s0.441-0.3524 0.566-0.4024l2e-3 -0.0273c0.033-0.0158 0.072-0.0146 0.113-0.0039zm-8.014 1.2229-0.375 0.718 0.278 0.282 0.254-0.223 0.031-0.316zm-1.253 0.738v0.188l0.156-0.02zm2.156 0.48-0.192 0.067 0.317 0.519 0.269-0.218zm-20.137 4.166 0.0117 0.018-0.3164 0.148 0.5235 0.278 0.6015 0.103 0.3555 0.481 0.3945-0.25-0.0625-0.278-0.6914-0.5zm1.7285 3.059-0.0371 0.043-0.8164 0.44-0.0976 0.898-0.1875 1-0.5665 0.75 0.0235 1.107 0.4765 1.157 0.5 1.406 1.3165 1.312 0.0625 0.75 0.0937 3.393 0.4746 1.894s0.2887 1.106 0.2227 1.192 0.3789 0.896 0.3789 0.896l0.875 1.375 1.2306 0.532-0.5002-0.598-0.2539-0.691 0.2539-0.719-0.6562-0.356s0.438-0.273 0.5-0.375c0.063-0.09-0.0938-0.472-0.0938-0.472l-0.1914-0.469 0.5-0.649 0.7816-0.187 0.121-0.605-0.465-0.223 0.187-0.5 0.75-0.09 0.657-1.602 0.468-1.097 0.981-0.471 0.312-1.064-0.925-4.094-1.356-0.774-0.269-0.646s-0.481-0.816-0.567-0.816c-0.09 0-0.6521 0.031-0.6521 0.031l-0.5235-0.531-0.3515-0.647-1.3477-0.279-0.4336-0.221zm36.433 0.496c0.113 0.129 0.816 2.221 0.91 2.221 0.086 0 0.621 0.062 0.621 0.062l-0.281-0.843zm-3.59 0.065-0.312 0.406 0.144 0.598 0.356-0.375-0.067-0.473zm8.016 0.761-1.395 0.774c0 0.09-0.718 0.687-0.718 0.687l0.187 0.625 0.406 0.469 0.282 0.688 1.238-0.807zm-4.516 0.395-0.437 0.062 2 3 0.519 0.606 1.317 0.062 0.812 0.274-0.875-0.625-1.25-0.356-0.312-1.144-0.692-0.567-1.093-1.269zm4.516 6.783c-0.308 0.055-0.629 0.123-0.645 0.174-0.02 0.098-0.562 0.375-0.562 0.375-0.113 0-0.481 0.654-0.481 0.654l-0.064 2.065-0.125 0.75 0.315 0.396 1.527-0.521 0.035-0.039zm-35.531 7.598-0.221 0.148-0.098 0.028 0.5 0.25zm-0.873 0.176 6e-3 0.011 5e-3 -0.011zm6e-3 0.011-0.217 0.489 0.437-0.102zm1.498 4.114-0.055 0.031s0.02 0.018 0.021 0.019zm-0.034 0.05-0.439 0.672-0.875 0.403 0.5 0.625-0.773 0.375-2.477-0.125-0.75-0.75-0.6485-0.125 0.6485 1.375-1.1485-0.227-3.9765 0.125-0.8555 1.102-0.2715-0.028v0.174c0 2.216 1.784 4 4 4h38c2.216 0 4-1.784 4-4v-0.979l-0.168-0.039-1.219 0.157-0.879 0.773-1.478 0.602 0.625-0.758 1.353-0.774 1.766-0.412v-0.963h-0.369s-1.35-0.667-1.35-0.843c0-0.188-1.5-0.125-1.5-0.125l-1.719 0.191-1.656-0.098-3.312 0.125-3.067 0.622s-1.475 0.792-1.646 0.753c-0.188-0.043 0.625-1.023 0.625-1.023l-1.44 0.102-0.906-0.75-0.9 0.613s-1.221 0.101-1.522 0.101c-0.316 0-0.728 0.567-0.728 0.567l-2.475-0.094-4.25 0.188-1.121 0.964-0.271 0.036-3.229-0.227-2.219 0.227-0.775-0.379 0.029-0.063s-0.654-1.316-0.654-1.5c0-0.172-0.44-0.556-0.479-0.59zm0.319 3.168 1.344 0.442h-1.647l-0.646-0.356z" style="fill:#d1e9f3"/>
 <path d="m23.965 12.002c-0.20561 3.23e-4 -0.38511 0.01393-0.58008 0.019531l-0.017578 0.17774-1.375-0.0625-0.43359 0.40039-0.84375 0.023438-0.56836 0.5-0.3418 0.97656-0.875 0.68945-0.625 0.84375-0.029297 1.4297h5.7246v1h-5.9473l-0.033203 0.30078 0.37695 0.64453 0.2207 0.625 0.75 0.90625 0.44141 0.375 0.43359 0.09375 0.095703-0.375h1.5605l0.4082-0.1875 0.5 0.0625 0.15625 0.31641 0.5293 0.03125 0.3457 0.25v0.52148l-0.125 0.44141-0.12109 0.34375 0.30664 0.56641 0.41211 0.46875 0.1875 1.1914 0.03125 0.77344-0.28125 0.65625-0.027344 0.625 0.21875 1.1543 0.18945 0.18945 0.2793 1.0938 0.03125 0.47266 0.3457 0.45898h2.8613l0.23242-0.36133 0.0625-0.59375 0.6582-0.65625 0.023438-0.75 0.35156-0.75391 0.8125-0.77734v-0.875l-0.1875-0.8125-0.125-1.125 0.59766-0.94141 0.28711-0.35352h-1.2734c0.25634-0.44231 0.41406-0.94996 0.41406-1.5v-2.8984l-0.21289-0.16211-0.15625-0.8125-0.28125-0.47266-0.30859-0.59375-0.41016-0.71875-0.089843-0.4707 0.43359-0.064453 0.25391 0.53125 0.5 0.9375 0.27148 0.5v-1.5254c0-0.71614-0.35359-1.2983-1.0234-1.7461l-0.041015 0.25781-0.34375-0.03125-0.40625-0.0625-0.18945 0.46484-1.375-0.25-0.25-0.31641-0.3125 0.28125-0.34375 0.46875-0.875-0.5-0.875-0.51953v-0.79492zm0.52734 0.013672 0.18359 0.30078 0.26758-0.21875-0.074218-0.068359c-0.12369-0.005128-0.24878-0.010756-0.37695-0.013672zm6.5156 5.9844 0.5332 0.53711 0.53125-0.5 0.14453-0.037109h-1.209zm0.90039 0.94336-0.27734 0.28125-0.56445-0.15625-0.070312-0.11523v2.5469c0 0.13005-0.020629 0.25422-0.039063 0.37891l0.68164-0.83789 0.39453-0.40625 0.15625-0.53125 0.25-0.46875 0.066406-0.69141h-0.59766zm-19.826 3.6465c-0.053627 0.43866-0.082031 0.90861-0.082031 1.4102 0 1.7604 0.3638 3.1101 0.92188 4.0957l0.20898-0.099609s0.31055-0.93945 0.31055-1.0645c0-0.137 0.09375-1.5234 0.09375-1.5234l0.75-1.0273 0.10742-0.69141-0.56836-0.35156-0.46484-0.56641-0.8418 0.066407-0.43555-0.24805zm19.896 2.9805v0.44141c-0.023 0.066-0.4082 0.375-0.4082 0.375l-0.4668 0.22656-0.3457 0.27344 0.25 0.35156 0.14453 0.14844-0.39453 0.35156v0.56641l0.14453 0.60352 0.35547 0.095703 0.39453-0.625 0.25391-0.39844-0.0625-0.5 0.375-0.60156 0.125-0.27344v-0.5625l-0.10547-0.44141-0.25976-0.03125zm-6.3965 5.4297 0.076172 0.57227 0.3457-0.34375 0.875-0.089844h0.5332l0.089844-0.13867h-1.9199z" style="opacity:.1"/>
 <g transform="translate(0 3.949e-5)">
  <g transform="translate(0 -1004.4)">
   <path d="m1 1043.4v4c0 2.216 1.784 4 4 4h38c2.216 0 4-1.784 4-4v-4c0 2.216-1.784 4-4 4h-38c-2.216 0-4-1.784-4-4z" style="opacity:.1"/>
  </g>
 </g>
 <path d="m24 11c-4 0-6 1-6 2.75v2.25h6v1h-8.25c-1.939 0-3.75 2-3.75 6s1.811 6 3.75 6h1.25v-3.5c0-1.662 1.338-3 3-3h7c1.662 0 3-1.338 3-3v-5.75c0-1.75-2-2.75-6-2.75z" style="fill:#7bb54b"/>
 <path d="m23.997 35c4 0 6-1 6-2.75v-2.25h-6v-1h8.25c1.939 0 3.753-2 3.753-6s-1.814-6-3.753-6h-1.25v3.5c0 1.662-1.338 3-3 3h-7c-1.662 0-3 1.338-3 3v5.75c0 1.75 2 2.75 6 2.75z" style="fill:#7bb54b"/>
 <path d="m18.297 22-4.2969 2 3.0098 1.4004c0.053469-1.6144 1.3624-2.9004 2.9902-2.9004h7c0.61449 0 1.1835-0.18544 1.6582-0.5h-10.361zm12.285 0c-0.51822 0.89418-1.474 1.5-2.5859 1.5h-7c-1.4514 0-2.6556 1.0212-2.9375 2.3867l0.23828 0.11133h15.141s0.56055-0.32405 0.56055-1.998c0-1.615-0.63281-2-0.63281-2h-2.7832z" style="opacity:.1"/>
 <circle cx="21" cy="14" r="1" style="fill:#4f5838"/>
 <circle cx="27" cy="32" r="1" style="fill:#4f5838"/>
 <path d="m18.297 21-4.297 2 4.297 1.998h15.14s0.562-0.324 0.562-1.998c0-1.615-0.633-2-0.633-2h-15.07z" style="fill:#e56767"/>
</svg>
