<?xml version="1.0" encoding="UTF-8" standalone="no"?>
<svg
   xmlns:dc="http://purl.org/dc/elements/1.1/"
   xmlns:cc="http://creativecommons.org/ns#"
   xmlns:rdf="http://www.w3.org/1999/02/22-rdf-syntax-ns#"
   xmlns:svg="http://www.w3.org/2000/svg"
   xmlns="http://www.w3.org/2000/svg"
   xmlns:sodipodi="http://sodipodi.sourceforge.net/DTD/sodipodi-0.dtd"
   xmlns:inkscape="http://www.inkscape.org/namespaces/inkscape"
   viewBox="0 0 48 48"
   version="1.1"
   id="svg6056"
   sodipodi:docname="espeak-gui.svg">
  <metadata
     id="metadata6060">
    <rdf:RDF>
      <cc:Work
         rdf:about="">
        <dc:format>image/svg+xml</dc:format>
        <dc:type
           rdf:resource="http://purl.org/dc/dcmitype/StillImage" />
      </cc:Work>
    </rdf:RDF>
  </metadata>
  <sodipodi:namedview
     pagecolor="#ffffff"
     bordercolor="#666666"
     borderopacity="1"
     objecttolerance="10"
     gridtolerance="10"
     guidetolerance="10"
     inkscape:pageopacity="0"
     inkscape:pageshadow="2"
     inkscape:window-width="640"
     inkscape:window-height="480"
     id="namedview6058" />
  <defs
     id="defs6016">
    <linearGradient
       id="linearGradient3764"
       x1="1"
       x2="47"
       gradientUnits="userSpaceOnUse"
       gradientTransform="translate(-48.000001,0.00221467)">
      <stop
         stop-color="#e4e4e4"
         stop-opacity="1"
         id="stop6001" />
      <stop
         offset="1"
         stop-color="#eee"
         stop-opacity="1"
         id="stop6003" />
    </linearGradient>
    <clipPath
       id="clipPath-616681889">
      <g
         transform="translate(0,-1004.3622)"
         id="g6008">
        <rect
           rx="4"
           y="1005.36"
           x="1"
           height="46"
           width="46"
           fill="#1890d0"
           id="rect6006" />
      </g>
    </clipPath>
    <clipPath
       id="clipPath-630773960">
      <g
         transform="translate(0,-1004.3622)"
         id="g6013">
        <rect
           rx="4"
           y="1005.36"
           x="1"
           height="46"
           width="46"
           fill="#1890d0"
           id="rect6011" />
      </g>
    </clipPath>
  </defs>
  <g
     id="g6024">
    <path
       d="m 1 43 l 0 0.25 c 0 2.216 1.784 4 4 4 l 38 0 c 2.216 0 4 -1.784 4 -4 l 0 -0.25 c 0 2.216 -1.784 4 -4 4 l -38 0 c -2.216 0 -4 -1.784 -4 -4 z m 0 0.5 l 0 0.5 c 0 2.216 1.784 4 4 4 l 38 0 c 2.216 0 4 -1.784 4 -4 l 0 -0.5 c 0 2.216 -1.784 4 -4 4 l -38 0 c -2.216 0 -4 -1.784 -4 -4 z"
       opacity="0.02"
       id="path6018" />
    <path
       d="m 1 43.25 l 0 0.25 c 0 2.216 1.784 4 4 4 l 38 0 c 2.216 0 4 -1.784 4 -4 l 0 -0.25 c 0 2.216 -1.784 4 -4 4 l -38 0 c -2.216 0 -4 -1.784 -4 -4 z"
       opacity="0.05"
       id="path6020" />
    <path
       d="m 1 43 l 0 0.25 c 0 2.216 1.784 4 4 4 l 38 0 c 2.216 0 4 -1.784 4 -4 l 0 -0.25 c 0 2.216 -1.784 4 -4 4 l -38 0 c -2.216 0 -4 -1.784 -4 -4 z"
       opacity="0.1"
       id="path6022" />
  </g>
  <g
     id="g6028">
    <rect
       width="46"
       height="46"
       x="-47"
       y="1"
       rx="4"
       transform="matrix(0,-1,1,0,0,0)"
       fill="url(#linearGradient3764)"
       fill-opacity="1"
       id="rect6026" />
  </g>
  <g
     id="g6038">
    <g
       clip-path="url(#clipPath-616681889)"
       id="g6036">
      <g
         opacity="0.1"
         id="g6034">
        <!-- color: #eeeeee -->
        <g
           id="g6032">
          <path
             d="m 22.359 34.957 c -0.047 -0.043 -0.281 -0.094 -0.523 -0.121 c -0.918 -0.078 -2.051 -1.145 -4.922 -4.633 c -2.855 -3.469 -4.168 -4.629 -5.848 -5.16 c -0.191 -0.059 0.02 -0.316 1.32 -1.598 c 1.766 -1.73 2.957 -2.984 5.879 -6.195 c 2.32 -2.547 2.641 -2.855 2.777 -2.703 c 0.055 0.059 0.406 0.559 0.781 1.109 c 0.945 1.387 1.68 1.758 2.582 1.309 c 0.762 -0.379 2.418 -2.488 2.879 -3.672 c 0.16 -0.41 0.27 -0.398 0.551 0.059 c 0.387 0.629 2.426 3.18 3.762 4.703 c 0.699 0.793 2.203 2.355 3.34 3.469 c 1.141 1.113 2.07 2.074 2.07 2.133 c 0 0.055 -0.309 0.199 -0.688 0.313 c -1.645 0.504 -3.184 1.813 -7.348 6.254 c -3.246 3.461 -4.73 4.645 -5.957 4.758 c -0.316 0.027 -0.609 0.016 -0.652 -0.027 m 2.332 -6.414 c 0.805 -0.227 0.93 -0.313 2.02 -1.352 c 1.117 -1.074 2.168 -2.465 3.105 -4.113 c 0.445 -0.77 0.422 -1.043 -0.09 -1.145 c -0.184 -0.043 -0.918 -0.332 -1.641 -0.648 c -2.664 -1.145 -3.523 -1.266 -4.773 -0.66 c -0.926 0.449 -3.086 1.73 -3.789 2.246 c -0.289 0.211 -0.707 0.449 -0.934 0.527 c -0.23 0.078 -0.441 0.207 -0.461 0.27 c -0.074 0.195 1.336 2.441 2.02 3.23 c 0.691 0.762 1.648 1.477 2.277 1.707 c 0.672 0.234 1.27 0.219 2.25 -0.066 m 0 0.023"
             stroke="none"
             fill-rule="nonzero"
             fill-opacity="1"
             fill="#000"
             id="path6030" />
        </g>
      </g>
    </g>
  </g>
  <g
     id="g6048">
    <g
       clip-path="url(#clipPath-630773960)"
       id="g6046">
      <g
         transform="translate(0,-1)"
         id="g6044">
        <!-- color: #eeeeee -->
        <g
           id="g6042">
          <path
             d="m 22.359 34.957 c -0.047 -0.043 -0.281 -0.094 -0.523 -0.121 c -0.918 -0.078 -2.051 -1.145 -4.922 -4.633 c -2.855 -3.469 -4.168 -4.629 -5.848 -5.16 c -0.191 -0.059 0.02 -0.316 1.32 -1.598 c 1.766 -1.73 2.957 -2.984 5.879 -6.195 c 2.32 -2.547 2.641 -2.855 2.777 -2.703 c 0.055 0.059 0.406 0.559 0.781 1.109 c 0.945 1.387 1.68 1.758 2.582 1.309 c 0.762 -0.379 2.418 -2.488 2.879 -3.672 c 0.16 -0.41 0.27 -0.398 0.551 0.059 c 0.387 0.629 2.426 3.18 3.762 4.703 c 0.699 0.793 2.203 2.355 3.34 3.469 c 1.141 1.113 2.07 2.074 2.07 2.133 c 0 0.055 -0.309 0.199 -0.688 0.313 c -1.645 0.504 -3.184 1.813 -7.348 6.254 c -3.246 3.461 -4.73 4.645 -5.957 4.758 c -0.316 0.027 -0.609 0.016 -0.652 -0.027 m 2.332 -6.414 c 0.805 -0.227 0.93 -0.313 2.02 -1.352 c 1.117 -1.074 2.168 -2.465 3.105 -4.113 c 0.445 -0.77 0.422 -1.043 -0.09 -1.145 c -0.184 -0.043 -0.918 -0.332 -1.641 -0.648 c -2.664 -1.145 -3.523 -1.266 -4.773 -0.66 c -0.926 0.449 -3.086 1.73 -3.789 2.246 c -0.289 0.211 -0.707 0.449 -0.934 0.527 c -0.23 0.078 -0.441 0.207 -0.461 0.27 c -0.074 0.195 1.336 2.441 2.02 3.23 c 0.691 0.762 1.648 1.477 2.277 1.707 c 0.672 0.234 1.27 0.219 2.25 -0.066 m 0 0.023"
             fill="#cf022f"
             stroke="none"
             fill-rule="nonzero"
             fill-opacity="1"
             id="path6040" />
        </g>
      </g>
    </g>
  </g>
  <g
     id="g6054">
    <g
       transform="translate(0,-1004.3622)"
       id="g6052">
      <path
         d="m 1 1043.36 0 4 c 0 2.216 1.784 4 4 4 l 38 0 c 2.216 0 4 -1.784 4 -4 l 0 -4 c 0 2.216 -1.784 4 -4 4 l -38 0 c -2.216 0 -4 -1.784 -4 -4 z"
         opacity="0.1"
         id="path6050" />
    </g>
  </g>
</svg>
