<svg version="1.1" viewBox="0 0 48 48" xmlns="http://www.w3.org/2000/svg">
 <defs>
  <linearGradient id="lG3764" x1="1" x2="47" gradientTransform="translate(-48)" gradientUnits="userSpaceOnUse">
   <stop style="stop-color:#87668c" offset="0"/>
   <stop style="stop-color:#917096" offset="1"/>
  </linearGradient>
 </defs>
 <path d="m1 43v0.25c0 2.22 1.78 4 4 4h38c2.22 0 4-1.78 4-4v-0.25c0 2.22-1.78 4-4 4h-38c-2.22 0-4-1.78-4-4zm0 0.5v0.5c0 2.22 1.78 4 4 4h38c2.22 0 4-1.78 4-4v-0.5c0 2.22-1.78 4-4 4h-38c-2.22 0-4-1.78-4-4z" style="opacity:.02"/>
 <path d="m1 43.2v0.25c0 2.22 1.78 4 4 4h38c2.22 0 4-1.78 4-4v-0.25c0 2.22-1.78 4-4 4h-38c-2.22 0-4-1.78-4-4z" style="opacity:.05"/>
 <path d="m1 43v0.25c0 2.22 1.78 4 4 4h38c2.22 0 4-1.78 4-4v-0.25c0 2.22-1.78 4-4 4h-38c-2.22 0-4-1.78-4-4z" style="opacity:.1"/>
 <rect transform="rotate(-90)" x="-47" y="1" width="46" height="46" rx="4" style="fill:url(#lG3764)"/>
 <path d="m24.9 36c-7.59 0-11-5.4-11-11.5v-0.855c0-6.77 4.19-11.7 10.4-11.7 7.8 0 9.61 6.04 9.61 10.6v3.44h-15c0.0363 1.25 1.3 5.86 6.26 5.86 1.28 0 3.97-0.0682 6.65-1.99l1.72 3.4c-0.934 0.8-3.71 2.73-8.68 2.73m-0.41-20c-3.54 0-5.55 3-5.55 6h10c0-3-1.69-6-4.48-6" style="opacity:.1"/>
 <path d="m24.9 35c-7.59 0-11-5.4-11-11.5v-0.855c0-6.77 4.19-11.7 10.4-11.7 7.8 0 9.61 6.04 9.61 10.6v3.44h-15c0.0363 1.25 1.3 5.86 6.26 5.86 1.28 0 3.97-0.0682 6.65-1.99l1.72 3.4c-0.934 0.8-3.71 2.73-8.68 2.73m-0.41-20c-3.54 0-5.55 3-5.55 6h10c0-3-1.69-6-4.48-6" style="fill:#f9f9f9"/>
 <path d="m1 39v4c0 2.22 1.78 4 4 4h38c2.22 0 4-1.78 4-4v-4c0 2.22-1.78 4-4 4h-38c-2.22 0-4-1.78-4-4z" style="opacity:.1"/>
</svg>
