<svg viewBox="0 0 48 48">
  <defs>
    <linearGradient id="a" x1="1" x2="47" gradientUnits="userSpaceOnUse" gradientTransform="translate(-48 .002)">
      <stop stop-color="#87668c"/>
      <stop offset="1" stop-color="#917096"/>
    </linearGradient>
    <clipPath id="b"/>
    <clipPath id="c"/>
  </defs>
  <path d="M1 43v.25c0 2.216 1.784 4 4 4h38c2.216 0 4-1.784 4-4V43c0 2.216-1.784 4-4 4H5c-2.216 0-4-1.784-4-4zm0 .5v.5c0 2.216 1.784 4 4 4h38c2.216 0 4-1.784 4-4v-.5c0 2.216-1.784 4-4 4H5c-2.216 0-4-1.784-4-4z" opacity=".02"/>
  <path d="M1 43.25v.25c0 2.216 1.784 4 4 4h38c2.216 0 4-1.784 4-4v-.25c0 2.216-1.784 4-4 4H5c-2.216 0-4-1.784-4-4z" opacity=".05"/>
  <path d="M1 43v.25c0 2.216 1.784 4 4 4h38c2.216 0 4-1.784 4-4V43c0 2.216-1.784 4-4 4H5c-2.216 0-4-1.784-4-4z" opacity=".1"/>
  <rect width="46" height="46" x="-47" y="1" rx="4" transform="rotate(-90)" fill="url(#a)"/>
  <g clip-path="url(#b)">
    <path d="M24.945 36c-3.434 0-6.125-1.063-8.07-3.184-1.926-2.137-2.891-4.902-2.891-8.293v-.855c0-3.391.965-6.184 2.891-8.375 1.941-2.207 4.445-3.305 7.504-3.293 3.16 0 5.551.961 7.176 2.887 1.621 1.91 2.434 4.469 2.434 7.672V26h-15c.055 1.895.977 2.898 1.934 4.082.957 1.184 2.398 1.777 4.328 1.777 1.434 0 2.676-.172 3.715-.516A10.606 10.606 0 0 0 31.9 29.87l1.719 3.398c-.895.766-2.086 1.414-3.578 1.945-1.477.52-3.18.789-5.102.789m-.41-20c-3.543 0-5.547 3-5.547 6h10c0-3-1.691-6-4.484-6" opacity=".1"/>
  </g>
  <g>
    <g clip-path="url(#c)">
      <path d="M24.945 35c-3.434 0-6.125-1.063-8.07-3.184-1.926-2.137-2.891-4.902-2.891-8.293v-.855c0-3.391.965-6.184 2.891-8.375 1.941-2.207 4.445-3.305 7.504-3.293 3.16 0 5.551.961 7.176 2.887 1.621 1.91 2.434 4.469 2.434 7.672V25h-15c.055 1.895.977 2.898 1.934 4.082.957 1.184 2.398 1.777 4.328 1.777 1.434 0 2.676-.172 3.715-.516A10.606 10.606 0 0 0 31.9 28.87l1.719 3.398c-.895.766-2.086 1.414-3.578 1.945-1.477.52-3.18.789-5.102.789m-.41-20c-3.543 0-5.547 3-5.547 6h10c0-3-1.691-6-4.484-6" fill="#f9f9f9"/>
    </g>
  </g>
  <g>
    <path d="M1 38.998v4c0 2.216 1.784 4 4 4h38c2.216 0 4-1.784 4-4v-4c0 2.216-1.784 4-4 4H5c-2.216 0-4-1.784-4-4z" opacity=".1"/>
  </g>
</svg>
