<svg version="1.1" viewBox="0 0 48 48" xmlns="http://www.w3.org/2000/svg">
 <defs>
  <linearGradient id="bg" x2="0" y1="1" y2="47" gradientUnits="userSpaceOnUse">
   <stop style="stop-color:#50b634" offset="0"/>
   <stop style="stop-color:#49a630" offset="1"/>
  </linearGradient>
 </defs>
 <path d="m1 43v0.25c0 2.216 1.784 4 4 4h38c2.216 0 4-1.784 4-4v-0.25c0 2.216-1.784 4-4 4h-38c-2.216 0-4-1.784-4-4zm0 0.5v0.5c0 2.216 1.784 4 4 4h38c2.216 0 4-1.784 4-4v-0.5c0 2.216-1.784 4-4 4h-38c-2.216 0-4-1.784-4-4z" style="opacity:.02"/>
 <path d="m1 43.25v0.25c0 2.216 1.784 4 4 4h38c2.216 0 4-1.784 4-4v-0.25c0 2.216-1.784 4-4 4h-38c-2.216 0-4-1.784-4-4z" style="opacity:.05"/>
 <path d="m1 43v0.25c0 2.216 1.784 4 4 4h38c2.216 0 4-1.784 4-4v-0.25c0 2.216-1.784 4-4 4h-38c-2.216 0-4-1.784-4-4z" style="opacity:.1"/>
 <rect x="1" y="1" width="46" height="46" rx="4" style="fill:url(#bg)"/>
 <path d="m1 39v4c0 2.216 1.784 4 4 4h38c2.216 0 4-1.784 4-4v-4c0 2.216-1.784 4-4 4h-38c-2.216 0-4-1.784-4-4z" style="opacity:.1"/>
 <path d="m24 12a6 6 0 0 0-5.9258 5.1016 6 6 0 0 0-1.0742-0.10156 6 6 0 0 0-6 6 6 6 0 0 0 4.0176 5.6543 4 4 0 0 0-0.017578 0.3457 4 4 0 0 0 4 4c0 1 1 2 1 2-3 0-3 2-3 2h6s-1-2-1-3c0-1.4092 0.22107-2.3639 0.45508-2.9941a4 4 0 0 0 0.10352-0.18945 6 6 0 0 0 1.4414 0.18359 6 6 0 0 0 1.4375-0.18164 4 4 0 0 0 0.10547 0.18359c0.23453 0.63016 0.45703 1.586 0.45703 2.998 0 1-1 3-1 3h6s0-2-3-2c0 0 1-1 1-2a4 4 0 0 0 4-4 4 4 0 0 0-0.01758-0.34375 6 6 0 0 0 4.0176-5.6562 6 6 0 0 0-6-6 6 6 0 0 0-1.0742 0.099609 6 6 0 0 0-5.9258-5.0996z" style="opacity:.1"/>
 <path d="m20 29s-1 1-1 3c0 1 1 2 1 2-3 0-3 2-3 2h6s-1-2-1-3c0-3 1-4 1-4z" style="fill:#f0d448"/>
 <circle cx="24" cy="17" r="6" style="fill:#ec651d;paint-order:stroke fill markers"/>
 <circle cx="17" cy="22" r="6" style="fill:#ec651d;paint-order:stroke fill markers"/>
 <circle cx="31" cy="22" r="6" style="fill:#ec651d;paint-order:stroke fill markers"/>
 <path d="m28 29s1 1 1 3c0 1-1 2-1 2 3 0 3 2 3 2h-6s1-2 1-3c0-3-1-4-1-4z" style="fill:#f0d448"/>
 <path d="m20 29s-1 1-1 3c0 0.34825 0.13293 0.68031 0.29102 0.98633a4 4 0 0 0 2.8125-1.4727c0.25006-1.8381 0.89648-2.5137 0.89648-2.5137h-3zm5 0s0.64937 0.6779 0.89844 2.5234a4 4 0 0 0 2.8105 1.4629c0.15809-0.30602 0.29102-0.63808 0.29102-0.98633 0-2-1-3-1-3h-3z" style="opacity:.1;paint-order:stroke fill markers"/>
 <circle cx="19" cy="28" r="4" style="fill:#ec651d;paint-order:stroke fill markers"/>
 <circle cx="29" cy="28" r="4" style="fill:#ec651d;paint-order:stroke fill markers"/>
 <circle cx="24" cy="24" r="6" style="fill:#ec651d;paint-order:stroke fill markers"/>
 <ellipse cx="20.5" cy="23" rx="3.5" ry="4" style="fill:#f9f9f9;paint-order:stroke fill markers"/>
 <ellipse cx="27.5" cy="23" rx="3.5" ry="4" style="fill:#f9f9f9;paint-order:stroke fill markers"/>
 <ellipse cx="27" cy="23.5" rx="1" ry="1.5" style="fill:#124f95;paint-order:stroke fill markers"/>
 <ellipse cx="21" cy="23.5" rx="1" ry="1.5" style="fill:#124f95;paint-order:stroke fill markers"/>
</svg>
