<svg style="" viewBox="0 0 48 48" xmlns="http://www.w3.org/2000/svg" xmlns:xlink="http://www.w3.org/1999/xlink">
 <defs style="">
  <linearGradient id="linearGradient3764" gradientTransform="translate(-48 .002215)" gradientUnits="userSpaceOnUse" style="" x1="1" x2="47">
   <stop offset="0" style="stop-color:#1b3745"/>
   <stop offset="1" style="stop-color:#214152"/>
  </linearGradient>
 </defs>
 <path d="m 1 43 v .25 c 0 2.216 1.784 4 4 4 h 38 c 2.216 0 4 -1.784 4 -4 v -.25 c 0 2.216 -1.784 4 -4 4 h -38 c -2.216 0 -4 -1.784 -4 -4 z m 0 .5 v .5 c 0 2.216 1.784 4 4 4 h 38 c 2.216 0 4 -1.784 4 -4 v -.5 c 0 2.216 -1.784 4 -4 4 h -38 c -2.216 0 -4 -1.784 -4 -4 z" style="opacity:.02"/>
 <path d="m 1 43.25 v .25 c 0 2.216 1.784 4 4 4 h 38 c 2.216 0 4 -1.784 4 -4 v -.25 c 0 2.216 -1.784 4 -4 4 h -38 c -2.216 0 -4 -1.784 -4 -4 z" style="opacity:.05"/>
 <path d="m 1 43 v .25 c 0 2.216 1.784 4 4 4 h 38 c 2.216 0 4 -1.784 4 -4 v -.25 c 0 2.216 -1.784 4 -4 4 h -38 c -2.216 0 -4 -1.784 -4 -4 z" style="opacity:.1"/>
 <rect height="46" rx="4" style="fill:url(#linearGradient3764)" transform="rotate(-90)" width="46" x="-47" y="1"/>
 <path d="m 11 11 c 3.191 3.359 1.805 5.512 3.543 9.473 1.625 3.68 5.164 .926 7.59 3.523 -2.426 2.602 -5.977 -.164 -7.602 3.512 -1.75 3.961 -.355 6.125 -3.543 9.488 3.363 -3.191 5.527 -1.797 9.488 -3.543 3.68 -1.629 .926 -5.168 3.523 -7.59 2.578 2.422 -.16 5.977 3.512 7.602 3.961 1.754 6.109 .34 9.473 3.535 -3.191 -3.363 -1.781 -5.516 -3.535 -9.477 -1.625 -3.668 -5.168 -.941 -7.59 -3.52 2.422 -2.582 5.965 .148 7.59 -3.523 1.754 -3.961 .34 -6.113 3.535 -9.477 -3.363 3.195 -5.512 1.785 -9.473 3.539 -3.672 1.621 -.934 5.176 -3.512 7.598 -2.602 -2.422 .152 -5.961 -3.523 -7.59 -3.961 -1.75 -6.125 -.352 -9.488 -3.543" style="fill-rule:evenodd;opacity:.1"/>
 <path d="m 11 10 c 3.191 3.359 1.805 5.512 3.543 9.473 1.625 3.68 5.164 .926 7.59 3.523 -2.426 2.602 -5.977 -.164 -7.602 3.512 -1.75 3.961 -.355 6.125 -3.543 9.488 3.363 -3.191 5.527 -1.797 9.488 -3.543 3.68 -1.629 .926 -5.168 3.523 -7.59 2.578 2.422 -.16 5.977 3.512 7.602 3.961 1.754 6.109 .34 9.473 3.535 -3.191 -3.363 -1.781 -5.516 -3.535 -9.477 -1.625 -3.668 -5.168 -.941 -7.59 -3.52 2.422 -2.582 5.965 .148 7.59 -3.523 1.754 -3.961 .34 -6.113 3.535 -9.477 -3.363 3.195 -5.512 1.785 -9.473 3.539 -3.672 1.621 -.934 5.176 -3.512 7.598 -2.602 -2.422 .152 -5.961 -3.523 -7.59 -3.961 -1.75 -6.125 -.352 -9.488 -3.543" style="fill:#f9f9f9;fill-rule:evenodd"/>
 <path d="m 1 39 v 4 c 0 2.216 1.784 4 4 4 h 38 c 2.216 0 4 -1.784 4 -4 v -4 c 0 2.216 -1.784 4 -4 4 h -38 c -2.216 0 -4 -1.784 -4 -4 z" style="opacity:.1"/>
</svg>
