<svg version="1.1" viewBox="0 0 48 48" xmlns="http://www.w3.org/2000/svg">
 <defs>
  <linearGradient id="bg" x2="0" y1="1" y2="47" gradientUnits="userSpaceOnUse">
   <stop style="stop-color:#478fe6" offset="0"/>
   <stop style="stop-color:#3584e4" offset="1"/>
  </linearGradient>
 </defs>
 <path d="m1 43v0.25c0 2.216 1.784 4 4 4h38c2.216 0 4-1.784 4-4v-0.25c0 2.216-1.784 4-4 4h-38c-2.216 0-4-1.784-4-4zm0 0.5v0.5c0 2.216 1.784 4 4 4h38c2.216 0 4-1.784 4-4v-0.5c0 2.216-1.784 4-4 4h-38c-2.216 0-4-1.784-4-4z" style="opacity:.02"/>
 <path d="m1 43.25v0.25c0 2.216 1.784 4 4 4h38c2.216 0 4-1.784 4-4v-0.25c0 2.216-1.784 4-4 4h-38c-2.216 0-4-1.784-4-4z" style="opacity:.05"/>
 <path d="m1 43v0.25c0 2.216 1.784 4 4 4h38c2.216 0 4-1.784 4-4v-0.25c0 2.216-1.784 4-4 4h-38c-2.216 0-4-1.784-4-4z" style="opacity:.1"/>
 <rect x="1" y="1" width="46" height="46" rx="4" style="fill:url(#bg)"/>
 <path d="m1 39v4c0 2.216 1.784 4 4 4h38c2.216 0 4-1.784 4-4v-4c0 2.216-1.784 4-4 4h-38c-2.216 0-4-1.784-4-4z" style="opacity:.1"/>
 <path d="m14 18v4h3c1.662 0 3 1.338 3 3s-1.338 3-3 3h-3v4c0 1.108 0.892 2 2 2h4v-3c0-1.662 1.338-3 3-3s3 1.338 3 3v3h4c1.108 0 2-0.892 2-2v-4h3c1.662 0 3-1.338 3-3s-1.338-3-3-3h-3v-4z" style="opacity:.1"/>
 <path d="m23 9c-1.662 0-3 1.338-3 3v3h-4c-1.108 0-2 0.892-2 2v4h3c1.662 0 3 1.338 3 3s-1.338 3-3 3h-3v4c0 1.108 0.892 2 2 2h4v-3c0-1.662 1.338-3 3-3s3 1.338 3 3v3h4c1.108 0 2-0.892 2-2v-4h3c1.662 0 3-1.338 3-3s-1.338-3-3-3h-3v-4c0-1.108-0.892-2-2-2h-4v-3c0-1.662-1.338-3-3-3z" style="fill:#f9f9f9"/>
</svg>
