<svg viewBox="0 0 48 48" xmlns="http://www.w3.org/2000/svg">
 <defs>
  <linearGradient id="linearGradient3764" x1="1" x2="47" gradientTransform="translate(-48 .0022147)" gradientUnits="userSpaceOnUse">
   <stop stop-color="#3d3d3d" offset="0"/>
   <stop stop-color="#474747" offset="1"/>
  </linearGradient>
  <clipPath id="clipPath-982883964">
   <g transform="translate(0 -1004.4)">
    <rect x="1" y="1005.4" width="46" height="46" rx="4" fill="#1890d0"/>
   </g>
  </clipPath>
  <clipPath id="clipPath-010647336">
   <g transform="translate(0 -1004.4)">
    <rect x="1" y="1005.4" width="46" height="46" rx="4" fill="#1890d0"/>
   </g>
  </clipPath>
 </defs>
 <g>
  <path d="m1 43v0.25c0 2.216 1.784 4 4 4h38c2.216 0 4-1.784 4-4v-0.25c0 2.216-1.784 4-4 4h-38c-2.216 0-4-1.784-4-4zm0 0.5v0.5c0 2.216 1.784 4 4 4h38c2.216 0 4-1.784 4-4v-0.5c0 2.216-1.784 4-4 4h-38c-2.216 0-4-1.784-4-4z" opacity=".02"/>
  <path d="m1 43.25v0.25c0 2.216 1.784 4 4 4h38c2.216 0 4-1.784 4-4v-0.25c0 2.216-1.784 4-4 4h-38c-2.216 0-4-1.784-4-4z" opacity=".05"/>
  <path d="m1 43v0.25c0 2.216 1.784 4 4 4h38c2.216 0 4-1.784 4-4v-0.25c0 2.216-1.784 4-4 4h-38c-2.216 0-4-1.784-4-4z" opacity=".1"/>
 </g>
 <g>
  <rect transform="rotate(-90)" x="-47" y="1" width="46" height="46" rx="4" fill="url(#linearGradient3764)"/>
 </g>
 <g>
  <g clip-path="url(#clipPath-982883964)">
   <g opacity=".1">
    <g>
     <g>
      <path d="m14 33h12v-2h-12m0 2"/>
      <path d="m14 29h19.996v-1.996h-19.996m0 1.996"/>
      <path d="m14 25h19.996v-1.996h-19.996m0 1.996"/>
      <path d="m14 21h19.996v-1.996h-19.996m0 1.996"/>
      <path d="m14 17h19.996v-2h-19.996m0 2"/>
     </g>
    </g>
   </g>
  </g>
 </g>
 <g>
  <g clip-path="url(#clipPath-010647336)">
   <g transform="translate(0,-1)">
    <g>
     <g fill="#ff5858">
      <path d="m14 33h12v-2h-12m0 2"/>
      <path d="m14 29h19.996v-1.996h-19.996m0 1.996"/>
      <path d="m14 25h19.996v-1.996h-19.996m0 1.996"/>
      <path d="m14 21h19.996v-1.996h-19.996m0 1.996"/>
      <path d="m14 17h19.996v-2h-19.996m0 2"/>
     </g>
    </g>
   </g>
  </g>
 </g>
 <g>
  <g transform="translate(0 -1004.4)">
   <path d="m1 1043.4v4c0 2.216 1.784 4 4 4h38c2.216 0 4-1.784 4-4v-4c0 2.216-1.784 4-4 4h-38c-2.216 0-4-1.784-4-4z" opacity=".1"/>
  </g>
 </g>
</svg>
