<svg version="1.1" viewBox="0 0 48 48" xmlns="http://www.w3.org/2000/svg">
 <defs>
  <linearGradient id="bg" x2="0" y1="1" y2="47" gradientUnits="userSpaceOnUse">
   <stop style="stop-color:#3085e8" offset="0"/>
   <stop style="stop-color:#1e7ae6" offset="1"/>
  </linearGradient>
 </defs>
 <path d="m1 43v0.25c0 2.216 1.784 4 4 4h38c2.216 0 4-1.784 4-4v-0.25c0 2.216-1.784 4-4 4h-38c-2.216 0-4-1.784-4-4zm0 0.5v0.5c0 2.216 1.784 4 4 4h38c2.216 0 4-1.784 4-4v-0.5c0 2.216-1.784 4-4 4h-38c-2.216 0-4-1.784-4-4z" style="opacity:.02"/>
 <path d="m1 43.25v0.25c0 2.216 1.784 4 4 4h38c2.216 0 4-1.784 4-4v-0.25c0 2.216-1.784 4-4 4h-38c-2.216 0-4-1.784-4-4z" style="opacity:.05"/>
 <path d="m1 43v0.25c0 2.216 1.784 4 4 4h38c2.216 0 4-1.784 4-4v-0.25c0 2.216-1.784 4-4 4h-38c-2.216 0-4-1.784-4-4z" style="opacity:.1"/>
 <rect x="1" y="1" width="46" height="46" rx="4" style="fill:url(#bg)"/>
 <path d="m1 39v4c0 2.216 1.784 4 4 4h38c2.216 0 4-1.784 4-4v-4c0 2.216-1.784 4-4 4h-38c-2.216 0-4-1.784-4-4z" style="opacity:.1"/>
 <path d="m22 9-0.89844 2.7891c-1.3217 0.31261-2.564 0.83131-3.6875 1.5254l-2.4141-1.3145-3 3 1.3145 2.4141c-0.69408 1.1235-1.2131 2.3655-1.5254 3.6875l-2.7891 0.89844v4l2.7891 0.89844c0.31261 1.322 0.83158 2.564 1.5254 3.6875l-1.3145 2.4141 3 3 2.4141-1.3145c1.1235 0.69408 2.3658 1.2128 3.6875 1.5254l0.89844 2.7891h4l0.89844-2.7891c1.3217-0.31261 2.5642-0.83158 3.6875-1.5254l2.4141 1.3145 3-3-1.3145-2.4141c0.69381-1.1235 1.2125-2.3655 1.5254-3.6875l2.7891-0.89844v-4l-2.7891-0.89844c-0.31288-1.322-0.83158-2.564-1.5254-3.6875l1.3145-2.4141-3-3-2.4141 1.3145c-1.1233-0.69408-2.3658-1.2128-3.6875-1.5254l-0.89844-2.7891zm2 5c5.6286 0 10 4.3712 10 10 0 5.6288-4.3714 10-10 10s-10-4.3712-10-10c0-5.6288 4.3714-10 10-10zm-5 4-1 4h1v8h2v-12zm4 0-1 4h1v8h2v-12zm4 0-1 4h1v8h2v-12z" style="opacity:.096"/>
 <path d="m22 8-0.89844 2.7891c-1.3217 0.31261-2.564 0.83131-3.6875 1.5254l-2.4141-1.3145-3 3 1.3145 2.4141c-0.69408 1.1235-1.2131 2.3655-1.5254 3.6875l-2.7891 0.89844v4l2.7891 0.89844c0.31261 1.322 0.83158 2.564 1.5254 3.6875l-1.3145 2.4141 3 3 2.4141-1.3145c1.1235 0.69408 2.3658 1.2128 3.6875 1.5254l0.89844 2.7891h4l0.89844-2.7891c1.3217-0.31261 2.5642-0.83158 3.6875-1.5254l2.4141 1.3145 3-3-1.3145-2.4141c0.69381-1.1235 1.2125-2.3655 1.5254-3.6875l2.7891-0.89844v-4l-2.7891-0.89844c-0.31288-1.322-0.83158-2.564-1.5254-3.6875l1.3145-2.4141-3-3-2.4141 1.3145c-1.1233-0.69408-2.3658-1.2128-3.6875-1.5254l-0.89844-2.7891zm2 5c5.6286 0 10 4.3712 10 10 0 5.6288-4.3714 10-10 10s-10-4.3712-10-10c0-5.6288 4.3714-10 10-10zm-5 4-1 4h1v8h2v-12zm4 0-1 4h1v8h2v-12zm4 0-1 4h1v8h2v-12z" style="fill:#faef71"/>
</svg>
