<svg version="1.1" viewBox="0 0 48 48" xmlns="http://www.w3.org/2000/svg">
 <defs>
  <linearGradient id="bg" x2="0" y1="1" y2="47" gradientUnits="userSpaceOnUse">
   <stop style="stop-color:#2d6676" offset="0"/>
   <stop style="stop-color:#275967" offset="1"/>
  </linearGradient>
 </defs>
 <path d="m1 43v0.25c0 2.216 1.784 4 4 4h38c2.216 0 4-1.784 4-4v-0.25c0 2.216-1.784 4-4 4h-38c-2.216 0-4-1.784-4-4zm0 0.5v0.5c0 2.216 1.784 4 4 4h38c2.216 0 4-1.784 4-4v-0.5c0 2.216-1.784 4-4 4h-38c-2.216 0-4-1.784-4-4z" style="opacity:.02"/>
 <path d="m1 43.25v0.25c0 2.216 1.784 4 4 4h38c2.216 0 4-1.784 4-4v-0.25c0 2.216-1.784 4-4 4h-38c-2.216 0-4-1.784-4-4z" style="opacity:.05"/>
 <path d="m1 43v0.25c0 2.216 1.784 4 4 4h38c2.216 0 4-1.784 4-4v-0.25c0 2.216-1.784 4-4 4h-38c-2.216 0-4-1.784-4-4z" style="opacity:.1"/>
 <rect x="1" y="1" width="46" height="46" rx="4" style="fill:url(#bg)"/>
 <path d="m1 39v4c0 2.216 1.784 4 4 4h38c2.216 0 4-1.784 4-4v-4c0 2.216-1.784 4-4 4h-38c-2.216 0-4-1.784-4-4z" style="opacity:.1"/>
 <path d="m32 11c-0.71257 2e-3 -1.3703 0.38289-1.7266 1h-6.2734c-2.77 0-5 2.23-5 5v3h-6c-0.554 0-1 0.446-1 1v6c0 0.554 0.446 1 1 1h1.2734c0.35628 0.61711 1.014 0.99804 1.7266 1 1.1046 0 2-0.89543 2-2s-0.89543-2-2-2c-0.71257 2e-3 -1.3703 0.38289-1.7266 1h-0.27344v-4h5v13c0 0.554 0.446 1 1 1h4.2734c0.35628 0.61711 1.014 0.99804 1.7266 1 1.1046 0 2-0.89543 2-2-5.64e-4 -0.71397-0.38169-1.3735-1-1.7305v-5.2695h6c0.554 0 1-0.446 1-1v-6c0-0.554-0.446-1-1-1h-4.2695c-0.35698-0.61831-1.0165-0.99944-1.7305-1-0.71257 2e-3 -1.3703 0.38289-1.7266 1h-4.2734v-3c0-1.662 1.338-3 3-3h6.2734c0.35628 0.61711 1.014 0.99804 1.7266 1 1.1046 0 2-0.89543 2-2s-0.89543-2-2-2zm-11 11h4.2734c0.35628 0.61711 1.014 0.99804 1.7266 1 0.71257-2e-3 1.3703-0.38289 1.7266-1h3.2734v4h-6a1 1 0 0 0-1 1v6.2734c-0.30133 0.17478-0.55178 0.42523-0.72656 0.72656h-3.2734z" style="opacity:.1"/>
 <path d="m32 10c-0.71257 0.0020004-1.3703 0.38289-1.7266 1h-6.2734c-2.77 0-5 2.23-5 5v3h-6c-0.554 0-1 0.446-1 1v6c0 0.554 0.446 1 1 1h1.2734c0.35628 0.61711 1.014 0.99804 1.7266 1 1.1046 0 2-0.89543 2-2s-0.89543-2-2-2c-0.71257 2e-3 -1.3703 0.38289-1.7266 1h-0.27344v-4h5v13c0 0.554 0.446 1 1 1h4.2734c0.35628 0.61711 1.014 0.99804 1.7266 1 1.1046 0 2-0.89543 2-2-5.64e-4 -0.71397-0.38169-1.3735-1-1.7305v-5.2695h6c0.554 0 1-0.446 1-1v-6c0-0.554-0.446-1-1-1h-4.2695c-0.35698-0.61831-1.0165-0.99944-1.7305-1-0.71257 2e-3 -1.3703 0.38289-1.7266 1h-4.2734v-3c0-1.662 1.338-3 3-3h6.2734c0.35628 0.61711 1.014 0.99804 1.7266 1 1.1046 0 2-0.89543 2-2s-0.89543-2-2-2zm-11 11h4.2734c0.35628 0.61711 1.014 0.99804 1.7266 1 0.71257-2e-3 1.3703-0.38289 1.7266-1h3.2734v4h-6a1 1 0 0 0-1 1v6.2734c-0.30133 0.17478-0.55178 0.42523-0.72656 0.72656h-3.2734z" style="fill:#f67d5b"/>
</svg>
