<svg version="1.1" viewBox="0 0 48 48" xmlns="http://www.w3.org/2000/svg">
 <defs>
  <linearGradient id="bg" x2="0" y1="1" y2="47" gradientUnits="userSpaceOnUse">
   <stop style="stop-color:#575757" offset="0"/>
   <stop style="stop-color:#4d4d4d" offset="1"/>
  </linearGradient>
 </defs>
 <path d="m1 43v0.25c0 2.22 1.78 4 4 4h38c2.22 0 4-1.78 4-4v-0.25c0 2.22-1.78 4-4 4h-38c-2.22 0-4-1.78-4-4zm0 0.5v0.5c0 2.22 1.78 4 4 4h38c2.22 0 4-1.78 4-4v-0.5c0 2.22-1.78 4-4 4h-38c-2.22 0-4-1.78-4-4z" style="opacity:.02"/>
 <path d="m1 43.2v0.25c0 2.22 1.78 4 4 4h38c2.22 0 4-1.78 4-4v-0.25c0 2.22-1.78 4-4 4h-38c-2.22 0-4-1.78-4-4z" style="opacity:.05"/>
 <path d="m1 43v0.25c0 2.22 1.78 4 4 4h38c2.22 0 4-1.78 4-4v-0.25c0 2.22-1.78 4-4 4h-38c-2.22 0-4-1.78-4-4z" style="opacity:.1"/>
 <rect x="1" y="1" width="46" height="46" rx="4" style="fill:url(#bg)"/>
 <path d="m24 9a3 3 0 0 0-3 3 3 3 0 0 0 0.178 1.02l-6.62 5.42a3 3 0 0 0-1.56-0.436 3 3 0 0 0-3 3 3 3 0 0 0 2.88 3l2.34 7.59a3 3 0 0 0-1.21 2.41 3 3 0 0 0 3 3 3 3 0 0 0 2.83-2h8.34a3 3 0 0 0 2.83 2 3 3 0 0 0 3-3 3 3 0 0 0-1.21-2.41l2.34-7.59a3 3 0 0 0 2.88-3 3 3 0 0 0-3-3 3 3 0 0 0-1.56 0.436l-6.62-5.42a3 3 0 0 0 0.178-1.02 3 3 0 0 0-3-3zm-1.97 5.91-1.62 5.09h-4.58a3 3 0 0 0-0.0059-0.0195zm3.95 0 6.2 5.07a3 3 0 0 0-0.00586 0.0195h-4.58zm-1.97 0.393 1.5 4.7h-2.99zm-7.91 6.7h3.68l-0.688 2.16zm5.77 0h4.27l1.08 3.39-3.21 2.32-3.21-2.32zm6.36 0h3.68l-2.99 2.16zm-13.4 1.56 3.61 2.61-1.43 4.49zm18.3 0-2.18 7.1-1.43-4.49zm-13 3.84 2.14 1.55-3.42 2.47zm7.7 2e-3 1.28 4.02-3.42-2.47zm-3.85 2.78 3.91 2.82h-7.81z" style="opacity:.1"/>
 <path d="m1 39v4c0 2.22 1.78 4 4 4h38c2.22 0 4-1.78 4-4v-4c0 2.22-1.78 4-4 4h-38c-2.22 0-4-1.78-4-4z" style="opacity:.1"/>
 <path d="m17 32v2h14v-2z" style="fill:#8057bd"/>
 <path d="m34 19.7-4 13 1.91 0.59 4-13z" style="fill:#2ec2b7"/>
 <path d="m14 19.7-1.91 0.59 4 13 1.91-0.59z" style="fill:#d477b1"/>
 <path d="m23.4 10.2-11 9 1.27 1.55 11-9z" style="fill:#f1923c"/>
 <path d="m24.6 10.2-1.27 1.55 11 9 1.27-1.55z" style="fill:#f7ea5d"/>
 <path d="m13 19v2h22v-2z" style="fill:#d6f47b"/>
 <path d="m13.6 19.2-1.17 1.62 18 13 1.17-1.62z" style="fill:#dd8cde"/>
 <path d="m23 10.7-7 22 1.91 0.605 7-22z" style="fill:#f67565"/>
 <path d="m25 10.7-1.91 0.605 7 22 1.91-0.605z" style="fill:#9bf1ad"/>
 <path d="m34.4 19.2-18 13 1.17 1.62 18-13z" style="fill:#99c1f1"/>
 <path d="m23.4 10.2-2.36 1.93c0.038 0.714 0.33 1.39 0.822 1.91l0.199-0.162-0.0879 0.273c0.502 0.475 1.15 0.762 1.84 0.812l0.221-0.693 0.221 0.693c0.689-0.0506 1.34-0.338 1.84-0.812l-0.0879-0.273 0.199 0.162c0.493-0.518 0.784-1.19 0.822-1.91l-2.36-1.93zm-9.62 7.87-1.71 2.2 1.14 3.7c0.688-0.0423 1.34-0.32 1.85-0.787l-0.199-0.65 0.484 0.35c0.442-0.537 0.684-1.21 0.684-1.91-2.01e-4 -1.37-0.926-2.56-2.25-2.9zm20.5 0c-1.32 0.342-2.25 1.54-2.25 2.9 2.9e-5 0.695 0.242 1.37 0.684 1.91l0.484-0.35-0.199 0.65c0.507 0.467 1.16 0.745 1.85 0.787l1.14-3.7z" style="opacity:.1"/>
 <path d="m27 11a3 3 0 0 1-3 3 3 3 0 0 1-3-3 3 3 0 0 1 3-3 3 3 0 0 1 3 3z" style="fill:#f4d43e"/>
 <path d="m16 20a3 3 0 0 1-3 3 3 3 0 0 1-3-3 3 3 0 0 1 3-3 3 3 0 0 1 3 3z" style="fill:#f05b63"/>
 <path d="m38 20a3 3 0 0 1-3 3 3 3 0 0 1-3-3 3 3 0 0 1 3-3 3 3 0 0 1 3 3z" style="fill:#33d17a"/>
 <path d="m34 33a3 3 0 0 1-3 3 3 3 0 0 1-3-3 3 3 0 0 1 3-3 3 3 0 0 1 3 3z" style="fill:#4d96e5;paint-order:stroke fill markers;stroke-dashoffset:2;stroke-opacity:.712;stroke-width:2.4"/>
 <path d="m20 33a3 3 0 0 1-3 3 3 3 0 0 1-3-3 3 3 0 0 1 3-3 3 3 0 0 1 3 3z" style="fill:#a95dc1"/>
</svg>
