<svg viewBox="0 0 48 48">
  <defs>
    <linearGradient id="a" x1="1" x2="47" gradientUnits="userSpaceOnUse" gradientTransform="translate(-48 .002)">
      <stop stop-color="#243964"/>
      <stop offset="1" stop-color="#294172"/>
    </linearGradient>
    <clipPath id="b"/>
    <clipPath id="c"/>
  </defs>
  <path d="M1 43v.25c0 2.216 1.784 4 4 4h38c2.216 0 4-1.784 4-4V43c0 2.216-1.784 4-4 4H5c-2.216 0-4-1.784-4-4zm0 .5v.5c0 2.216 1.784 4 4 4h38c2.216 0 4-1.784 4-4v-.5c0 2.216-1.784 4-4 4H5c-2.216 0-4-1.784-4-4z" opacity=".02"/>
  <path d="M1 43.25v.25c0 2.216 1.784 4 4 4h38c2.216 0 4-1.784 4-4v-.25c0 2.216-1.784 4-4 4H5c-2.216 0-4-1.784-4-4z" opacity=".05"/>
  <path d="M1 43v.25c0 2.216 1.784 4 4 4h38c2.216 0 4-1.784 4-4V43c0 2.216-1.784 4-4 4H5c-2.216 0-4-1.784-4-4z" opacity=".1"/>
  <rect width="46" height="46" x="-47" y="1" rx="4" transform="rotate(-90)" fill="url(#a)"/>
  <g opacity=".1" clip-path="url(#b)">
    <path d="M12 28.348s0 5.453 6 5.453h12c6 0 6-5.453 6-5.453v-10.91c0-5.453-6-5.453-6-5.453H18c-6 0-6 5.453-6 5.453m0 10.91"/>
    <path d="M30 36c6 0 6-7.637 6-7.637s0 5.453-6 5.453H18c-6 0-6-5.453-6-5.453S12 36 18 36m12 0"/>
    <path d="M24.984 22.08v3.957c0 2.191-1.879 3.98-4.195 3.98-.352 0-.602-.035-.926-.117-.473-.117-.859-.484-.859-.914 0-.52.398-.895.988-.895.285 0 .387.059.801.059 1.223 0 2.215-.938 2.215-2.098v-1.816c0-.164-.141-.293-.313-.293h-1.457c-.539 0-.98-.41-.98-.922 0-.523.441-.941.992-.941"/>
    <path d="M23.02 23.91v-3.961c0-2.191 1.875-3.965 4.191-3.965.355 0 .602.039.93.117.473.117.859.488.859.914 0 .516-.398.895-.992.895-.281 0-.383-.051-.801-.051-1.219 0-2.211.938-2.211 2.09v1.816c0 .164.141.297.313.297h1.457c.539 0 .98.41.98.922 0 .516-.441.926-.992.926"/>
  </g>
  <g>
    <g clip-path="url(#c)">
      <path d="M12 27.348s0 5.453 6 5.453h12c6 0 6-5.453 6-5.453v-10.91c0-5.453-6-5.453-6-5.453H18c-6 0-6 5.453-6 5.453m0 10.91" fill="#f9f9f9"/>
      <path d="M30 35c6 0 6-7.637 6-7.637s0 5.453-6 5.453H18c-6 0-6-5.453-6-5.453S12 35 18 35m12 0" fill="#dcdcdc"/>
      <path d="M24.984 21.08v3.957c0 2.191-1.879 3.98-4.195 3.98-.352 0-.602-.035-.926-.117-.473-.117-.859-.484-.859-.914 0-.52.398-.895.988-.895.285 0 .387.059.801.059 1.223 0 2.215-.938 2.215-2.098v-1.816c0-.164-.141-.293-.313-.293h-1.457c-.539 0-.98-.41-.98-.922 0-.523.441-.941.992-.941" fill="#868686"/>
      <path d="M23.02 22.91v-3.961c0-2.191 1.875-3.965 4.191-3.965.355 0 .602.039.93.117.473.117.859.488.859.914 0 .516-.398.895-.992.895-.281 0-.383-.051-.801-.051-1.219 0-2.211.938-2.211 2.09v1.816c0 .164.141.297.313.297h1.457c.539 0 .98.41.98.922 0 .516-.441.926-.992.926" fill="#868686"/>
    </g>
  </g>
  <g>
    <path d="M1 38.998v4c0 2.216 1.784 4 4 4h38c2.216 0 4-1.784 4-4v-4c0 2.216-1.784 4-4 4H5c-2.216 0-4-1.784-4-4z" opacity=".1"/>
  </g>
</svg>
