<svg version="1.1" viewBox="0 0 48 48" xmlns="http://www.w3.org/2000/svg">
 <defs>
  <linearGradient id="bg" x1="-47" x2="-1" gradientUnits="userSpaceOnUse">
   <stop style="stop-color:#e4e4e4" offset="0"/>
   <stop style="stop-color:#eee" offset="1"/>
  </linearGradient>
 </defs>
 <path d="m1 43v0.25c0 2.22 1.78 4 4 4h38c2.22 0 4-1.78 4-4v-0.25c0 2.22-1.78 4-4 4h-38c-2.22 0-4-1.78-4-4zm0 0.5v0.5c0 2.22 1.78 4 4 4h38c2.22 0 4-1.78 4-4v-0.5c0 2.22-1.78 4-4 4h-38c-2.22 0-4-1.78-4-4z" style="opacity:.02"/>
 <path d="m1 43.3v0.25c0 2.22 1.78 4 4 4h38c2.22 0 4-1.78 4-4v-0.25c0 2.22-1.78 4-4 4h-38c-2.22 0-4-1.78-4-4z" style="opacity:.05"/>
 <path d="m1 43v0.25c0 2.22 1.78 4 4 4h38c2.22 0 4-1.78 4-4v-0.25c0 2.22-1.78 4-4 4h-38c-2.22 0-4-1.78-4-4z" style="opacity:.1"/>
 <rect transform="rotate(-90)" x="-47" y="1" width="46" height="46" rx="4" style="fill:url(#bg)"/>
 <path d="m1 39v4c0 2.22 1.78 4 4 4h38c2.22 0 4-1.78 4-4v-4c0 2.22-1.78 4-4 4h-38c-2.22 0-4-1.78-4-4z" style="opacity:.1"/>
 <path d="m24 9c-8.28 0-15 6.72-15 15s6.72 15 15 15 15-6.72 15-15-6.72-15-15-15zm0 2c7.18 0 13 5.82 13 13s-5.82 13-13 13-13-5.82-13-13 5.82-13 13-13zm8.3 7.29c-1.36 1.36-3.08 2.93-4.84 4.4-1.65-1.34-3.23-2.61-4.96-3.48l-5.22-0.867c-1.57 0.666-3.28 2.52-3.28 5.63 0 3.11 1.71 4.97 3.28 5.64 0.812 0.346 1.69 0.377 2.55 0.193s1.71-0.556 2.67-1.04c1.73-0.864 3.31-2.13 4.96-3.47 1.76 1.48 3.48 3.05 4.84 4.41 0.628 0.626 1.7 0.182 1.7-0.705v-10l-1.7-0.709zm-13.6 1.74v0.00195c0.214-0.012 0.45 0.0142 0.732 0.0762 0.566 0.125 1.3 0.426 2.2 0.883 1.32 0.666 2.73 1.84 4.16 3-1.43 1.15-2.84 2.32-4.16 2.98-0.907 0.453-1.64 0.753-2.2 0.875s-0.936 0.0939-1.34-0.0801c-0.869-0.37-2.06-1.39-2.06-3.8 0-2.41 1.19-3.43 2.06-3.79 0.203-0.086 0.397-0.135 0.611-0.146zm13.3 1.22v5.49c-0.964-0.914-1.92-1.82-3.02-2.75 1.1-0.928 2.06-1.83 3.02-2.74zm-13 0.252c-0.552 0-1 0.448-1 1s0.448 1 1 1 1-0.448 1-1-0.448-1-1-1z" style="opacity:.1"/>
 <path d="m24 8a15 15 0 0 0-15 15 15 15 0 0 0 15 15 15 15 0 0 0 15-15 15 15 0 0 0-15-15zm0 2a13 13 0 0 1 13 13 13 13 0 0 1-13 13 13 13 0 0 1-13-13 13 13 0 0 1 13-13zm8.97 7a0.997 0.997 0 0 0-0.674 0.295c-1.36 1.36-3.08 2.93-4.84 4.4-1.65-1.35-3.23-2.61-4.96-3.48-0.968-0.487-1.82-0.861-2.67-1.05-0.852-0.186-1.73-0.16-2.55 0.184-1.57 0.666-3.28 2.52-3.28 5.63 0 3.11 1.71 4.97 3.28 5.64 0.815 0.346 1.69 0.377 2.55 0.193s1.71-0.553 2.67-1.04c1.73-0.864 3.31-2.13 4.96-3.47 1.76 1.48 3.48 3.05 4.85 4.41a0.997 0.997 0 0 0 1.7-0.705v-10a0.997 0.997 0 0 0-1.03-1zm-14.3 2.03v0.00195c0.215-0.01 0.446 0.0201 0.732 0.0801 0.566 0.124 1.3 0.427 2.2 0.883 1.32 0.666 2.73 1.84 4.16 3-1.43 1.16-2.83 2.32-4.16 2.98-0.907 0.452-1.64 0.753-2.2 0.875-0.565 0.121-0.936 0.0939-1.34-0.0801-0.871-0.37-2.07-1.39-2.07-3.8-1e-3 -2.41 1.2-3.43 2.06-3.79 0.206-0.09 0.399-0.14 0.613-0.15zm13.3 1.22v5.49c-0.97-0.914-1.92-1.82-3.02-2.75 1.09-0.926 2.05-1.83 3.02-2.74zm-13 0.248a1 1 0 0 0-1 1 1 1 0 0 0 1 1 1 1 0 0 0 1-1 1 1 0 0 0-1-1z" style="fill:#efb811"/>
</svg>
