<svg id="svg6755" version="1.1" viewBox="0 0 48 48" xmlns="http://www.w3.org/2000/svg">
 <defs id="defs6711">
  <linearGradient id="linearGradient3764" x1="1" x2="47" gradientTransform="translate(-48 .0022147)" gradientUnits="userSpaceOnUse">
   <stop id="stop6696" stop-color="#575757" offset="0"/>
   <stop id="stop6698" stop-color="#616161" offset="1"/>
  </linearGradient>
  <clipPath id="clipPath-024944377">
   <g id="g6703" transform="translate(0 -1004.4)">
    <rect id="rect6701" x="1" y="1005.4" width="46" height="46" rx="4" fill="#1890d0"/>
   </g>
  </clipPath>
  <clipPath id="clipPath-037972410">
   <g id="g6708" transform="translate(0 -1004.4)">
    <rect id="rect6706" x="1" y="1005.4" width="46" height="46" rx="4" fill="#1890d0"/>
   </g>
  </clipPath>
 </defs>
 <g id="g6719">
  <path id="path6713" d="m1 43v0.25c0 2.216 1.784 4 4 4h38c2.216 0 4-1.784 4-4v-0.25c0 2.216-1.784 4-4 4h-38c-2.216 0-4-1.784-4-4zm0 0.5v0.5c0 2.216 1.784 4 4 4h38c2.216 0 4-1.784 4-4v-0.5c0 2.216-1.784 4-4 4h-38c-2.216 0-4-1.784-4-4z" opacity=".02"/>
  <path id="path6715" d="m1 43.25v0.25c0 2.216 1.784 4 4 4h38c2.216 0 4-1.784 4-4v-0.25c0 2.216-1.784 4-4 4h-38c-2.216 0-4-1.784-4-4z" opacity=".05"/>
  <path id="path6717" d="m1 43v0.25c0 2.216 1.784 4 4 4h38c2.216 0 4-1.784 4-4v-0.25c0 2.216-1.784 4-4 4h-38c-2.216 0-4-1.784-4-4z" opacity=".1"/>
 </g>
 <g id="g6723">
  <rect id="rect6721" transform="rotate(-90)" x="-47" y="1" width="46" height="46" rx="4" fill="url(#linearGradient3764)"/>
 </g>
 <g id="g6735">
  <g id="g6733" clip-path="url(#clipPath-024944377)">
   <g id="g6731" opacity=".1">
    <g id="g6729">
     <path id="path6725" d="m36 34v-4h-12v4"/>
     <path id="path6727" d="m14.742 30-2.742-2.906 6.172-5.094-6.172-5.09 2.742-2.91 9.262 8"/>
    </g>
   </g>
  </g>
 </g>
 <g id="g6747">
  <g id="g6745" clip-path="url(#clipPath-037972410)">
   <g id="g6743" transform="translate(0,-1)">
    <g id="g6741">
     <path id="path6737" d="m36 34v-4h-12v4" fill="#cfde8e"/>
     <path id="path6739" d="m14.742 30-2.742-2.906 6.172-5.094-6.172-5.09 2.742-2.91 9.262 8" fill="#fba262"/>
    </g>
   </g>
  </g>
 </g>
 <g id="g6753">
  <g id="g6751" transform="translate(0 -1004.4)">
   <path id="path6749" d="m1 1043.4v4c0 2.216 1.784 4 4 4h38c2.216 0 4-1.784 4-4v-4c0 2.216-1.784 4-4 4h-38c-2.216 0-4-1.784-4-4z" opacity=".1"/>
  </g>
 </g>
</svg>
