<svg width="48" height="48" viewBox="0 0 48 48.000001" xmlns="http://www.w3.org/2000/svg">
  <defs>
    <linearGradient id="a" x1="1" x2="47" gradientTransform="translate(-48 .002)" gradientUnits="userSpaceOnUse">
      <stop offset="0" stop-color="#d4112f"/>
      <stop offset="1" stop-color="#e61233"/>
    </linearGradient>
  </defs>
  <path d="M1 43v.25c0 2.216 1.784 4 4 4h38c2.216 0 4-1.784 4-4V43c0 2.216-1.784 4-4 4H5c-2.216 0-4-1.784-4-4zm0 .5v.5c0 2.216 1.784 4 4 4h38c2.216 0 4-1.784 4-4v-.5c0 2.216-1.784 4-4 4H5c-2.216 0-4-1.784-4-4z" opacity=".02"/>
  <path d="M1 43.25v.25c0 2.216 1.784 4 4 4h38c2.216 0 4-1.784 4-4v-.25c0 2.216-1.784 4-4 4H5c-2.216 0-4-1.784-4-4z" opacity=".05"/>
  <path d="M1 43v.25c0 2.216 1.784 4 4 4h38c2.216 0 4-1.784 4-4V43c0 2.216-1.784 4-4 4H5c-2.216 0-4-1.784-4-4z" opacity=".1"/>
  <rect transform="rotate(-90)" x="-47" y="1" width="46" height="46" rx="4" fill="url(#a)"/>
  <path d="M8 1v6H1v1h7v7H1v1h7v8H1v1h7v6H1v1h7v7H1v1h7v7h1v-7h7v7h1v-7h7v7h1v-7h7v7h1v-7h7v7h1v-7h6v-1h-6v-7h6v-1h-6v-6h6v-1h-6v-8h6v-1h-6V8h6V7h-6V1h-1v6h-7V1h-1v6h-7V1h-1v6h-7V1h-1v6H9V1zm1 7h7v7H9zm8 0h7v7h-7zm8 0h7v7h-7zm8 0h7v7h-7zM9 16h7v8H9zm8 0h7v8h-7zm8 0h7v8h-7zm8 0h7v8h-7zM9 25h7v6H9zm8 0h7v6h-7zm8 0h7v6h-7zm8 0h7v6h-7zM9 32h7v7H9zm8 0h7v7h-7zm8 0h7v7h-7zm8 0h7v7h-7z" fill-opacity=".502" fill="#fdf6b7"/>
  <path d="M1 39v4c0 2.216 1.784 4 4 4h38c2.216 0 4-1.784 4-4v-4c0 2.216-1.784 4-4 4H5c-2.216 0-4-1.784-4-4zM24 10a8 8 0 0 0-8 8v3h-1c-1.108 0-2 .892-2 2v13h22V23c0-1.108-.89-2-2-2h-1v-3a8 8 0 0 0-8-8zm0 4a4 4 0 0 1 4 4v3h-8v-3a4 4 0 0 1 4-4zm0 10a3 3 0 0 1 3 3 3 3 0 0 1-2 2.826V33h-2v-3.176A3 3 0 0 1 21 27a3 3 0 0 1 3-3z" opacity=".1"/>
  <path d="M24 9a8 8 0 0 0-8 8v3h-1c-1.108 0-2 .892-2 2v13h22V22c0-1.108-.89-2-2-2h-1v-3a8 8 0 0 0-8-8zm0 4a4 4 0 0 1 4 4v3h-8v-3a4 4 0 0 1 4-4zm0 10a3 3 0 0 1 3 3 3 3 0 0 1-2 2.826V32h-2v-3.176A3 3 0 0 1 21 26a3 3 0 0 1 3-3z" fill="#f9f9f9"/>
</svg>
