<svg viewBox="0 0 48 48" xmlns="http://www.w3.org/2000/svg">
  <rect transform="rotate(-90 0 0)" x="-47" y="1" width="46" height="46" rx="4" ry="4" fill="#205ca5"/>
  <path d="M16 1.906l-.844.25-.969.063-.593.437-.781-.031.062.5L14 3.094l.406 1.094.156.593-.624.344-.25.469.187 1.062.75.125.719-.687.625-.657.969-.25 1.218-.593.72-.875 1.03-1.25.719-.188L20.594 2h-1.125zm-2.219.063l-.812.03-1.406.376-.813.25-.938-.375-.124.562 1.124.657s2.045-1.125 2.157-1.125zm21.062.218l-.187.313 1.156.156.062-.281zm-8.875.188c-.056.022-1.531.031-1.531.031l-.375.094.5.594.531-.5.344.218.5-.25s.088-.21.031-.187zm5.625.469l-.469.062-.406.25-.469.344-.28.5.437.437.375.032.156-.25-.375-.313.219-.187.031-.157.469-.312s.608.008.656 0 .187-.188.187-.188l-.156-.218zM5.718 3.03l-.094.313.47.156.53-.25zm31.781.094l-2.125.094-.562.375-.625.375-.532.437.063.188-.281.03v.032l-4 .656L25.78 8l-.375.281h-.032l-.25-.094s-.155.008-.218.063c-.064.055-.122.102-.313.125-.191.023-.562 0-.594 0h-.218l.03-.219.157-.25-.281-.219s-.18.227-.188.282c-.008.054.125.28.125.28s-.062.18-.093.22c-.032.039-.313.125-.313.125l-.437-.219s-.18-.04-.157.062c.024.102.219.196.219.282 0 .086-.125.281-.125.281l-.156.187-.25.25-.344.094s-.249.07-.312.094c-.064.023-.25.062-.25.062l-.25.032-.157.218.282.188.187.312s.124.22.156.22.094.218.094.218l-.187.25h-.094l-.656.125-.125-.281-.438.437-.187.719v.594l.75.406.593-.219.594-1.062.531-.657.969-.156.219-.187 1.094 1.28.125.438.312-.156-.094-.375h.188l-.125-.25-1.063-1 .094-.187.344-.032.75.75.375.438v.687l.187.125.375.375.282-.093-.157-.563.094-.344.188-.218.437.156.156.062-.03-.5.25-.468.155-.688.563.094.094.312.218.157.25-.22-.156-.343h.656l-.218.375.437.375.375.188.219.437-.5.125-.719-.156h-.625l-.594.312-.125.188-.437.094.187.468.344.407.625-.22.156.282.282-.219.375.063.03.406-.124.781-.344-.03-.406-.063-.188.468-1.375-.25-.25-.312-.312.281-.344.469-.875-.5-.875-.531v-.938l-.562.031-.032.313L22 13.062l-.437.407-.844.03-.562.5-.344.97-.875.687-.625.844-.031 1.625-.188.5-.062.594.375.656.218.625.75.906.438.375.437.094.094-.375h1.563l.406-.188.5.063.156.312.531.032.344.25v.53l-.125.438-.125.344.313.563.406.468.187 1.188.032.781-.282.656-.03.625.218 1.157.187.187.282 1.094.03.469.563.75.063.593.094.688.343-.344.875-.094h.532l.968-1.5.063-.593.656-.657.031-.75.344-.75.813-.78v-.876l-.188-.812-.125-1.125.594-.938 1.062-1.312.407-.407.156-.53.25-.47.062-.687h-.593l-.282.281-.562-.156-.344-.563-.281-.562-.656-.5-.157-.813-.28-.468-.313-.594-.407-.719-.093-.469.437-.062.25.531.5.938.375.687.406.75.438.719.594.594.53-.5.595-.157.437-.53.594-.345.344-.593.03-.5-.28-.313-.375-.437-.25.156-.157.25-.406-.188-.125-.312-.281-.406-.438-.407v-.812l.282.531.343.531.594.344.406-.094.25.282 1.782-.032-.032.032.563.5.406.562.125.281h.281l.094-.312.094.469.156.843.344.813.187.687.282.657.218.28.313-.187.094-.312.125-.781-.032-.688.25-.312s.265-.364.313-.375c.048-.012.625-.657.625-.657l.281-.343.313-.188.375-.219h.156l.062.344.157.406.5.657v.25l.093.28.344-.155-.031-.375.312.062.063.344-.031.531.093.375.282.063.093-.313.344.219.063.312.312.47.313.343.218.187.532-.468.218-.438-.093-.5-.094-.656-.594-.563-.094-.562.25-.406s.16-.322.313-.157c.152.166.224.193.156.375-.068.183-.188.594-.188.594l.376.156.156-.53-.156-.376.375-.156.687-.344.438-.531.343-.813-.031-.593-.344-.782-.687-.812-.438-.406-.218-.625.406-.094s.234-.403.437-.188l.5.532s.356.558.407.625c.023.03.121.125.218.218v-4.78c-.084.016-.781-.5-.781-.5l.063-.5.25-.438.468-.063V5.22l-.718-.938-1.657-.187-1.28-.313s-.392.296-.595.313c-.203.016-.906.125-.906.125l-.719-.438-1.5-.125-.062-.031-1.281-.063zM25.78 8l3.563-2.688-1.22.657-.312-.22-.156-.249.063-.25.687.031.313-.125-.625-.312-.875-.313-.875-.156-.938.187-.969.782L24 5.78l-.656.719-.25.031-.094.344.125.344s.134.156.156.156c.023 0 .25-.125.25-.125s.027-.118.156-.156c.13-.039.25-.063.25-.063l.188.375.219.313.093.25s.364-.223.375-.25c.012-.028.032-.407.032-.407l.28-.187s.075-.134.063-.156c-.01-.022-.187-.22-.187-.22l-.156-.062.062-.312s.125-.05.125-.094.188-.187.188-.187l.218-.282.157-.187.218-.156.25.187v.125l-.218.25-.063.25v.344l.188.156.343-.031.313-.063.281.157-.062.218s-.195.188-.25.22c-.056.03-.413-.063-.5-.032-.088.031-.313.312-.313.312s-.024.25 0 .313a.278.278 0 0 1 0 .125zm3.656-2.688l4-.687-.03-.156-.313-.438-.657-.062s.157.667.157.75c0 .083-.438.03-.438.03l-.75.032s-1.083.25-1.219.25c-.13 0-.763.26-.812.281zM4.28 3.5l-.5.562.438.22.562-.25.032.624.468.313.5-.47.688.126.281-.656-1.125-.094zm3.125.094l.438 1.094-.531.062-.407.5L6 4.969l-.812.312-.782-.187L3.5 4.53l-1.25.032-1.094.468L1 4.97v12.125c.055-.125.125-.25.125-.25l-.062-1.281.718-.5.563-.188h.812l1.125-.25.407.532-.063.625.469.406.062-.438s-.03-.718-.093-.906.562-.625.562-.625l.5-.625.594-.719.281-.562.938-.5.625-.688s.933-.156 1.125-.25c.19-.093.066-.437-.125-.75-.192-.312.093-.625.093-.625l.72-.437.624.125.063.75s.59.562.78.469c.192-.094.282-.407.282-.407l-.312-.812.187-.813-.844.125V7.125l-.25.25-.656.032-.094-.688-.437-.531s-.43.25-.844.406-.312.469-.312.469l-.032.844-.687.562-.438.656s-.28-.187-.28-.312-.063-.469-.063-.469l-.72-.562s-.561-.407-.593-.532c-.032-.125.344-.687.344-.687s.809-.5 1-.656c.191-.157 1.216.343 1.344.25.127-.094.625-.875.625-.875l.437-.594-.437.5-.75-.719.125-.719zm2.5.031l-.25.625.157.344.562-.063.25.469-.5.531-.562.063.5.218.53.47.532.124.188-.719.03-.437.626.094s-.19.312-.094.312.469-.406.469-.406L11.28 4.156s-.435-.344-.562-.25c-.128.094-.469.063-.469.063zm8.688 1.781l-.125.406c.454.352.625.344.625.344l.531-.125.344-.344-.219-.28h-.719zm2.781 1.781l-.25.22c-.072.304-.156.624-.156.624l.469.219.062.281-.25.25-.219.375.157.156.562-.093.5-.22-.281-.374-.094-.656-.344-.375zm-.781 1.188l-.281.469.375.156.156-.281zM5.155 9.469l.656.28.438.563.28.438s-.248.844-.312 1c-.063.156-.25-.313-.25-.313l-.156-.812-.531.219-.406.968.093-.812.125-.563-.656-.25.563-.53zm26.375.75c.135-.045.375.156.375.156l-.25.219.094.312.28.75.282.469.375.594-.406.187-.531-.344-.22-.656s-.301-.402-.437-.469c-.135-.066-.25-.28-.25-.28l.125-.532s.428-.362.563-.406zm-7.906 1.187l-.375.719.28.281.25-.219.032-.312zm-1.25.75v.188l.156-.032zm2.156.469l-.188.062.313.532.281-.22zM4.405 16.812l-.313.157.532.28.593.126.344.469.406-.25-.062-.282-.688-.5zm-1 .407l-.563.093-.843.844-.688-.094L1 17.5v1.187l.343-.03.72.343 1.093.594.156.718.875.844.5-.375.406.313-.062-.72-.781.188-.25-.906-.094-.406-.688-.625v-.438l.532-.562zm2.687 2.687l-.812.438-.094.906-.187 1-.563.75.031 1.125.47 1.156.5 1.406L6.748 28l.062.75.094 3.375.469 1.906s.286 1.1.218 1.187c-.067.089.375.907.375.907l.875 1.375 1.22.531-.5-.594-.25-.687.25-.719-.657-.344s.432-.286.5-.375c.068-.088-.094-.469-.094-.469l-.187-.468.5-.657.78-.187.126-.594-.469-.219.188-.5.75-.093.656-1.594.469-1.094.968-.469s.313-.93.313-1.062c0-.133.094-1.531.094-1.531l.75-1.032.093-.687-.562-.344-.469-.562-.844.062-1.343-.781-.282-.656s-.472-.813-.562-.813-.656.031-.656.031l-.532-.53-.343-.657-1.344-.281-.438-.219zm36.438.5c.113.133.816 2.219.907 2.219.09 0 .625.062.625.062l-.282-.843zm-3.593.063l-.313.406.156.594.344-.375-.062-.47zm8.062.75l-1.437.78c0 .09-.72.688-.72.688l.188.625.407.47.28.687L47 23.625zm-4.562.406l-.438.062 2 3 .531.594 1.313.063.812.25-.875-.625-1.25-.344-.312-1.156-.688-.563zm-10.5 4.875v.437c-.023.067-.407.375-.407.375l-.468.22-.344.28.25.344.156.156-.406.344v.563l.156.593.344.094.406-.625.25-.406-.062-.5.375-.594.125-.281v-.563l-.094-.437zm14.969 1.875c-.279.051-.552.112-.563.156-.023.089-.562.375-.562.375-.113 0-.47.656-.47.656l-.062 2.063-.125.75.313.406 1.531-.531.031-.031v-3.844c-.044.007-.048-.008-.094 0zm-35.438 7.594l-.22.156-.093.031.5.25zm-.844.187l-.219.5.438-.094zm1.5 4.125l-.469.719-.875.406.5.625-.75.375-2.469-.125-.75-.75-.656-.125.656 1.375-1.156-.219-3.969.125-.844 1.094-.25-.031A3.963 3.963 0 0 0 5 47h38c2.216 0 4-1.784 4-4v-.063l-.094-.03-1.219.156-.875.78-1.469.594.625-.75 1.344-.78L47 42.5v-.969h-.282s-1.343-.667-1.343-.843c0-.177-1.5-.126-1.5-.126l-1.72.188-1.655-.094-3.313.125-3.062.625s-1.476.794-1.657.75c-.18-.044.625-1.03.625-1.03l-1.437.093-.906-.75-.907.625s-1.215.094-1.53.094-.72.562-.72.562l-2.468-.094-4.25.188-1.125.969-.282.03-3.218-.218-2.22.219-.78-.375.03-.063s-.655-1.323-.655-1.5c0-.176-.5-.625-.5-.625zm.344 3.188l1.343.437h-1.656l-.656-.344z" opacity=".1"/>
  <path d="M15.372 15.878c-.672 2.1-.252 3.992.75 5.73l3.765-1.867c-.499-.538-1.017-1.067-1.017-1.067-.386-.104-.88-.42-1.482-.978l-1.542-1.462z" opacity=".1"/>
  <path d="M12.969 1l-1.406.375-.813.25-.937-.375-.125.563 1.125.656s2.044-1.125 2.156-1.125l.75-.344zm2.719 0l-.531.156-.97.063-.593.437-.781-.031.062.5L14 2.094l.407 1.094.156.593-.625.344-.25.469.187 1.062.75.125.719-.687.625-.656.969-.25 1.219-.594.718-.875 1.032-1.25.718-.188L20.594 1H19.47zm19.156.188l-.188.312 1.157.156.062-.281zm-8.875.187c-.057.022-1.531.031-1.531.031l-.375.094.5.594.53-.5.345.218.5-.25s.087-.21.03-.187zm5.625.469l-.469.062-.406.25-.469.344-.281.5.437.438.375.03.157-.25-.375-.312.218-.187.032-.156.468-.313s.609.008.657 0 .187-.188.187-.188l-.156-.218zM5.719 2.03l-.094.313.469.156.531-.25zm31.78.094l-2.124.094-.563.375-.625.375-.53.437.062.188-.282.031v.031l-4 .656L25.781 7l-.375.281h-.031l-.25-.093s-.155.007-.219.062-.121.102-.312.125c-.192.023-.562 0-.594 0h-.219l.031-.219.157-.25-.282-.218s-.18.226-.187.28c-.008.055.125.282.125.282s-.062.18-.094.219c-.032.039-.312.125-.312.125l-.438-.219s-.18-.04-.156.063c.024.101.219.195.219.28 0 .087-.125.282-.125.282l-.157.188-.25.25-.343.093s-.25.07-.313.094c-.064.023-.25.063-.25.063l-.25.03-.156.22.281.187.188.313s.124.218.156.218.094.219.094.219l-.188.25h-.094l-.656.125-.125-.281-.437.437-.188.719v.594l.75.406.594-.219.594-1.062.53-.656.97-.157.218-.187 1.094 1.281.125.437.313-.156-.094-.375h.187l-.125-.25-1.062-1 .094-.187.343-.032.75.75.375.438v.687l.188.125.375.375.281-.093-.156-.563.094-.344.187-.218.438.156.156.062-.031-.5.25-.468.156-.688.562.094.094.312.219.157.25-.219-.156-.344h.656l-.219.375.438.375.375.188.218.437-.5.125-.718-.156h-.625l-.594.312-.125.188-.438.094.188.468.344.407.625-.219.156.281.281-.219.375.063.031.406-.125.781-.343-.03-.407-.063-.187.468-1.375-.25-.25-.312-.313.281-.343.469-.875-.5-.875-.531v-.938l-.563.031-.031.313L22 12.062l-.438.407-.843.031-.563.5-.344.969-.875.687-.625.844-.03 1.625-.188.5-.063.594.375.656.219.625.75.906.437.375.438.094.094-.375h1.562l.406-.188.5.063.157.312.53.032.345.25v.53l-.125.438-.125.344.312.563.406.468.188 1.188.031.781-.281.656-.031.625.218 1.157.188.187.281 1.094.031.469.563.75.062.593.094.688.344-.344.875-.094h.531l.969-1.5.062-.593.657-.657.03-.75.345-.75.812-.78v-.876l-.187-.812-.125-1.125.593-.938 1.063-1.312.406-.407.156-.53.25-.47.063-.687h-.594l-.281.281-.563-.156-.343-.563-.282-.562-.656-.5-.156-.813-.281-.468-.313-.594-.406-.719-.094-.469.438-.062.25.531.5.938.375.687.406.75.437.719.594.594.531-.5.594-.157.438-.53.593-.345.344-.593.031-.5-.28-.313-.376-.437-.25.156-.156.25-.406-.188-.125-.312-.282-.406-.437-.407v-.812l.281.531.344.531.594.344.406-.094.25.282 1.781-.032-.031.032.562.5.407.562.125.281h.28l.095-.312.093.469.157.843.343.813.188.687.281.657.219.28.312-.187.094-.312.125-.781-.031-.688.25-.312s.265-.364.312-.375c.048-.012.625-.657.625-.657l.282-.343.312-.188.375-.219h.156l.063.344.156.406.5.657v.25l.094.28.344-.155-.032-.375.313.062.062.344-.03.531.093.375.281.063.094-.313.344.219.062.312.313.47.312.343.219.187.531-.468.219-.438-.094-.5-.094-.656-.593-.563L44 16.5l.25-.406s.16-.322.312-.157c.152.166.224.193.157.375-.068.183-.188.594-.188.594l.375.156.156-.53-.156-.376.375-.156.688-.344.437-.531.344-.813-.031-.593-.344-.782-.688-.812-.437-.406-.219-.625.406-.094s.235-.403.438-.188l.5.532s.355.558.406.625c.024.03.122.125.219.218v-4.78c-.085.016-.781-.5-.781-.5l.062-.5.25-.438.469-.063V5c0-.333-.049-.66-.125-.969l-.594-.75-1.656-.187-1.281-.313s-.391.296-.594.313c-.203.016-.906.125-.906.125l-.719-.438-1.5-.125-.063-.031-1.28-.063zM25.782 7l3.562-2.688-1.219.657-.312-.219-.156-.25.062-.25.688.031.312-.125-.625-.312-.875-.313-.875-.156-.937.188-.969.78-.438.438-.656.719-.25.031-.094.344.125.344s.134.156.157.156c.022 0 .25-.125.25-.125s.026-.118.156-.156c.13-.039.25-.063.25-.063l.187.375.22.313.093.25s.364-.223.375-.25c.011-.028.031-.407.031-.407l.281-.187s.074-.134.063-.156c-.011-.022-.188-.219-.188-.219l-.156-.063.063-.312s.125-.05.125-.094.187-.187.187-.187l.219-.282.156-.187.219-.156.25.187v.125l-.219.25-.062.25v.344l.187.156.344-.031.312-.063.282.157-.063.218s-.194.188-.25.22c-.056.03-.412-.063-.5-.032-.087.031-.312.313-.312.313s-.024.25 0 .312a.278.278 0 0 1 0 .125zm3.656-2.688l4-.687-.031-.156-.313-.438-.656-.062s.156.667.156.75c0 .083-.437.031-.437.031l-.75.031s-1.084.25-1.22.25c-.13 0-.762.26-.812.282zM4.281 2.5l-.5.563.437.218.563-.25.031.625.469.313.5-.469.687.125.282-.656-1.125-.094zm3.125.094l.437 1.094-.53.062-.407.5L6 3.969l-.813.312-.781-.187L3.5 3.53l-1.25.032-1.094.468c-.078.312-.156.633-.156.97v11.093c.055-.125.125-.25.125-.25l-.063-1.281.719-.5.562-.188h.813l1.125-.25.406.532-.062.625.468.406.063-.438s-.03-.718-.094-.906.563-.625.563-.625l.5-.625.593-.719.282-.562.937-.5.625-.688s.934-.156 1.125-.25c.192-.093.067-.437-.125-.75-.191-.312.094-.625.094-.625l.719-.437.625.125.062.75s.59.562.781.469c.192-.094.282-.407.282-.407l-.313-.812.188-.813-.844.125V6.125l-.25.25-.656.032-.094-.688-.438-.531s-.429.25-.843.406-.313.469-.313.469l-.031.844-.688.562-.437.656s-.281-.187-.281-.312-.063-.469-.063-.469l-.719-.562s-.561-.407-.593-.532c-.032-.125.343-.687.343-.687s.81-.5 1-.656c.192-.157 1.217.343 1.344.25.128-.094.625-.875.625-.875l.438-.594-.438.5-.75-.719.125-.719zm2.5.031l-.25.625.156.344.563-.063.25.469-.5.531-.563.063.5.218.531.47.532.124.187-.718.031-.438.625.094s-.189.312-.093.312c.095 0 .468-.406.468-.406l-1.062-1.094s-.435-.344-.563-.25c-.127.094-.468.063-.468.063zm8.687 1.781l-.125.406c.455.352.625.344.625.344l.532-.125.343-.344-.218-.28h-.719zm2.782 1.781l-.25.22c-.072.304-.157.624-.157.624l.47.219.062.281-.25.25-.22.375.157.156.563-.093.5-.22-.282-.374-.093-.656-.344-.375zm-.782 1.188l-.28.469.374.156.156-.281zM5.155 8.469l.657.281.437.562.281.438s-.248.844-.312 1c-.064.156-.25-.313-.25-.313l-.156-.812-.532.219-.406.968.094-.812.125-.563-.656-.25.562-.53zm26.375.75c.136-.044.375.156.375.156l-.25.219.094.312.281.75.282.469.375.594-.407.187-.53-.344-.22-.656s-.302-.402-.437-.469c-.135-.066-.25-.28-.25-.28l.125-.532s.427-.362.562-.406zm-7.906 1.187l-.375.719.281.281.25-.219.032-.312zm-1.25.75v.188l.156-.032zm2.156.469l-.187.062.312.532.282-.219zM4.405 15.812l-.312.157.531.281.594.125.344.469.406-.25-.063-.282-.687-.5zm-1 .407l-.562.093-.844.844-.687-.094-.313-.562v1.187l.344-.03.719.343 1.093.594.157.718.875.844.5-.375.406.313-.063-.72-.78.188-.25-.906-.095-.406-.687-.625v-.438l.531-.562zm2.688 2.687l-.813.438-.093.906-.188 1-.562.75.03 1.125.47 1.156.5 1.406L6.749 27l.063.75.093 3.375.47 1.906s.286 1.1.218 1.188c-.068.088.375.906.375.906l.875 1.375 1.219.531-.5-.594-.25-.687.25-.719-.657-.344s.433-.286.5-.375c.068-.088-.093-.468-.093-.468l-.188-.47.5-.655.781-.188.125-.594-.468-.218.187-.5.75-.094.656-1.594.47-1.094.968-.469s.312-.93.312-1.062c0-.133.094-1.531.094-1.531l.75-1.031.094-.688-.563-.344-.468-.562-.844.062-1.344-.781-.281-.656s-.472-.813-.563-.813-.656.032-.656.032l-.531-.532-.344-.656-1.344-.281-.437-.219zm36.438.5c.113.133.816 2.219.906 2.219.09 0 .625.063.625.063l-.281-.844zm-3.594.063l-.312.406.156.594.344-.375-.063-.47zm8.063.75l-1.438.78c0 .09-.719.688-.719.688l.188.625.406.47.281.687L47 22.625zm-4.563.406l-.437.062 2 3 .53.594 1.313.063.813.25-.875-.625-1.25-.344-.313-1.156-.687-.563zm-10.5 4.875v.437c-.022.067-.406.375-.406.375l-.469.22-.344.28.25.344.157.156-.407.344v.563l.157.593.343.094.407-.625.25-.406-.063-.5.375-.594.125-.281v-.563l-.094-.437zm14.97 1.875c-.28.051-.552.112-.563.156-.023.089-.563.375-.563.375-.113 0-.469.656-.469.656l-.062 2.063-.125.75.312.406 1.532-.531.03-.031v-3.844c-.043.007-.048-.008-.093 0zm-35.439 7.594l-.219.156-.093.031.5.25zm-.844.187l-.218.5.437-.093zm1.5 4.125l-.468.719-.875.406.5.625-.75.375-2.47-.125-.75-.75-.655-.125.656 1.375-1.156-.218-3.97.124-.843 1.094-.344-.03V43c0 2.215 1.784 4 4 4h38c2.216 0 4-1.785 4-4v-1.063l-.093-.032-1.22.157-.874.78-1.469.595.625-.75 1.344-.782 1.687-.406v-.969h-.281s-1.344-.667-1.344-.843c0-.177-1.5-.125-1.5-.125l-1.719.187-1.656-.094-3.312.125-3.063.625s-1.476.794-1.656.75c-.18-.044.625-1.03.625-1.03l-1.437.093-.907-.75-.906.625s-1.216.094-1.531.094-.719.562-.719.562l-2.469-.094-4.25.188-1.125.969-.281.03-3.219-.218-2.219.219-.78-.375.03-.063s-.656-1.323-.656-1.5c0-.176-.5-.625-.5-.625zm.344 3.188l1.344.437h-1.656l-.657-.343z" fill="#f9f9f9"/>
  <path d="M30.594 6.469c1.438.276 2.668.596 3.656 1.031 1.522.652 2.505 1.507 2.969 2.5-1.413-.252-2.655-.175-3.781.25 6.69 2.55 10.438 5.505 11.279 8.848l.03-.059.034.242.094.5-.02.04c.058.459.07.924.02 1.398a4.461 4.461 0 0 0-.572-.688l-.178.157-.219-.188-.312-.344-.205-.308a4.386 4.386 0 0 0-.889-.38c.113.427.208.839.303 1.25l.445.512c.091.229.165.395.19.395.024 0 .098.011.167.018l.176.2.123.368-.373-.305-.617-.72c.095.438.173.862.246 1.285l.133.156.707 1.06.398.446.133.492 1.25.344.875.625-.812-.25-1.313-.063-.531-.593-.66-.99c.353 2.779.21 5.193-.465 7.24-.687-2.016-1.343-3.2-1.906-3.626.785 6.22-.293 10.82-3.188 13.812.549-1.827.785-3.319.657-4.5-3.4 4.921-7.257 7.436-11.594 7.594-1.715-.02-3.354-.24-4.875-.718-2.238-.722-4.265-1.965-6.063-3.72 2.806.223 5.367-.273 7.625-1.374l3.719-2.281c.47-.336.904-.302 1.344-.094.909-.124 1.163-.399.906-1.219-.578-.484-1.088-1.13-1.938-1.594-1.852-.929-3.775-.98-5.78.438-1.923 1.047-3.765.986-5.563-.125-1.181-.78-2.341-1.843-3.438-3.157l-.406-.593v-.032c.007-.16.021-.31.043-.453l-.293.141-.469 1.094L11 32.125l-.522.064.053-.252-.469-.219.188-.5.75-.093.656-1.594.469-1.094.969-.469s.312-.93.312-1.062c0-.133.094-1.531.094-1.531l.621-.856.223.137-.094.687-.75 1.031s-.073 1.107-.086 1.405c.182-.087.385-.151.617-.186 1.21.104 2.595.378 4.156.813.262-1.443-.082-2.95-1.03-4.5l.03-.188a21.229 21.229 0 0 1 2.573-1.982l-.385-.33-.75-.906-.219-.625-.375-.657.063-.593.066-.18.246.43.219.625.75.906.437.375.438.094.094-.375h1.025c.16-.198.305-.384.475-.657-.064-.138.072-.225.156-.156.089-.395.084-.335-.281-.844-1.077.257-2.3-.074-3.125-.281-.425-.119-1-.361-1.656-.969L15.25 16l-.437-.562.03-.188c.189-1.25.81-2.265 1.313-3.218.549-.875 1.6-1.836 3.156-2.844-2.885.346-5.49 1.601-7.812 3.75-1.385-.488-2.968-.54-4.725-.174l-.056.111-.594.72-.5.624s-.316.226-.475.422c-.007-.154-.033-.636-.088-.797-.063-.187.563-.625.563-.625l.17-.213c-.373.107-.751.226-1.139.37-1.63-.742-1.529-1.737-2.062-5.126-.558.597-1.1 1.184-1.594 1.813v6.031c.035-.08.055-.113.08-.16l.039.78c-.052-.095-.079-.14-.12-.214v1.188l.1-.01.213.385.688.094.123-.123 1.033.56.156.719.807.78.13.47.782-.188.043.485-.037.191-.35-.27-.5.376-.875-.844-.156-.719L2.062 19l-.718-.343-.344.03V43c0 1.014.387 1.925 1.004 2.629l.006.008c.11.125.227.242.353.353l.016.012c.059.052.12.102.181.15.112.086.222.17.342.244.081.05.167.094.252.137.021.01.041.023.063.033.104.052.205.108.314.15.06.024.125.039.188.057.079.024.156.05.236.073.097.026.19.06.289.08.244.046.497.074.756.074h38c2.216 0 4-1.784 4-4v-1.063l-.094-.03-1.219.155-.875.782-1.468.593.625-.75 1.343-.78 1.559-.376H47v-9.312l-.031.03-1.532.532-.312-.406.125-.75.002-.084.185.24 1.532-.531.03-.031v-7.594l-.884.582-.334-.238-.3-.082-.044-.106-.406-.469-.187-.625.293-.254.3.348.282.688 1.28-.844V13.28a12.667 12.667 0 0 0-1.142-1.478c-.16-.145-.31.049-.369.136l-.238-.22-.219-.625.12-.028c-1.584-1.528-3.611-2.734-6.026-3.441-2.391-.692-5.251-1.063-8.531-1.156zM4.282 13.625l.406.531-.062.625.468.406.008-.054c.033.279.055.617.055.617l-.01.063h-.486l-.035-.032.062-.625-.406-.531-1.125.25h-.812l-.563.188-.672.466-.047-.967.719-.5.562-.187h.813zm42.365.932l.072.162.032.594-.344.812-.438.531-.687.344-.375.156.156.375-.156.532-.166-.069-.053-.369-.053-.049c.036-.115.054-.183.084-.263.068-.183-.004-.21-.156-.375-.152-.166-.312.156-.312.156l-.045.074-.112-.105-.093-.563.25-.406s.16-.322.312-.157c.152.166.224.193.156.376-.067.182-.187.593-.187.593l.375.157.156-.532-.156-.375.375-.156.687-.344.438-.531zm-42.24 2.256h.813l.687.5.063.28-.407.25-.343-.468-.594-.125-.531-.281zm-1 .406l.344.406-.246.26-.285-.26v-.375zm1.059 5.746l.004.16.468 1.156.5 1.406L6.751 27l.062.75.094 3.375.469 1.906s.286 1.1.219 1.188c-.068.088.375.906.375.906l.875 1.375.482.21-.014.04.25.687.5.594-1.219-.531-.875-1.375s-.442-.818-.375-.906-.218-1.188-.218-1.188l-.469-1.906-.094-3.375-.062-.75-1.313-1.313-.5-1.406-.469-1.156L4.44 23zm41.199 1.371l.18.008.044.013-.17.112zm-35.56 8.268l-.042.115.468.219-.125.593-.78.188-.243.318c-.031-.101-.07-.193-.07-.193l-.188-.469.5-.656zm-.935 1.884l.143.356.025.07-.432-.226s.14-.111.264-.2zm.211 1.448l.182.095-.073.207zm2.088.033l.187.437-.5-.25.094-.03zm-.844.187l.219.407-.438.093zm-3.969 5.25l.526.1.13.275-.525-.1zm5.813 1.063l1.344.437h-1.657l-.656-.343z" opacity=".1"/>
  <path d="M30.594 5.469c1.438.276 2.668.596 3.656 1.03 1.522.653 2.505 1.508 2.969 2.5-1.413-.251-2.655-.174-3.781.25 8.072 3.079 11.877 6.74 11.438 10.97a4.162 4.162 0 0 0-2.375-1.75c1.235 4.639 1.373 8.445.375 11.469-.687-2.016-1.343-3.2-1.906-3.625.785 6.22-.293 10.819-3.188 13.813.548-1.828.785-3.32.656-4.5-3.399 4.92-7.256 7.436-11.594 7.594-1.714-.02-3.353-.24-4.875-.719-2.238-.721-4.264-1.965-6.062-3.719 2.806.222 5.367-.273 7.625-1.375l3.719-2.281c.469-.336.904-.301 1.343-.094.91-.123 1.164-.398.907-1.219-.578-.484-1.088-1.129-1.938-1.593-1.852-.93-3.775-.98-5.781.437-1.922 1.047-3.764.987-5.562-.125-1.181-.78-2.341-1.842-3.438-3.156l-.406-.594v-.031c.054-1.3.589-1.998 1.656-2.156 1.21.103 2.595.377 4.156.812.262-1.442-.083-2.949-1.031-4.5l.031-.187c1.467-1.31 2.67-2.106 3.781-2.72.4-.523.584-.686.875-1.155-.064-.139.073-.226.157-.157.089-.395.084-.334-.282-.843-1.077.257-2.3-.074-3.125-.282-.424-.118-.999-.36-1.656-.968L15.251 15l-.438-.563.031-.187c.188-1.25.81-2.265 1.313-3.219.548-.874 1.6-1.836 3.156-2.844-2.885.346-5.49 1.601-7.812 3.75-1.922-.676-4.22-.53-6.844.438-1.63-.741-1.53-1.736-2.063-5.125-.557.596-1.099 1.183-1.593 1.812v33.938c0 2.216 1.784 4 4 4h38c2.216 0 4-1.784 4-4V12.282c-1.685-2.587-4.385-4.634-7.875-5.656-2.392-.692-5.251-1.062-8.532-1.156z" fill="#95c8d6"/>
  <path d="M26.902 31.947l.578 3.047c.008-.005.017-.002.026-.006.373-.168.729-.126 1.087.043.91-.124 1.164-.399.907-1.219-.572-.479-1.08-1.115-1.914-1.578-.217-.098-.426-.198-.684-.287z" fill="#fcf5ce"/>
  <path d="M18.85 17.669l2.179 2.282c.306-.202.676-.37.825-1.077.03-.049.069-.079.138-.089.262-.518 0-.696-.321-.943-.924.015-1.59-.03-2.821-.173z" fill="#2d2d2d"/>
  <path d="M19.883 18.742l-3.754 1.867c.573.456 1.04 1.262 1.318 1.889 1.193-1.037 2.215-1.738 3.157-2.283.13-.082.257-.165.39-.246l.035-.045z" fill="#fcf5ce"/>
  <path d="M15.324 15.068c-.587 2.023-.174 3.855.799 5.541l3.764-1.867c-.5-.539-1.018-1.069-1.018-1.069a1.836 1.836 0 0 1-.33-.129c-.42-.123-.97-.367-1.602-.95z" fill="#53abcd"/>
  <path d="M1 43v.25c0 2.216 1.784 4 4 4h38c2.216 0 4-1.784 4-4V43c0 2.216-1.784 4-4 4H5c-2.216 0-4-1.784-4-4zm0 .5v.5c0 2.216 1.784 4 4 4h38c2.216 0 4-1.784 4-4v-.5c0 2.216-1.784 4-4 4H5c-2.216 0-4-1.784-4-4z" opacity=".02"/>
  <path d="M1 43.25v.25c0 2.216 1.784 4 4 4h38c2.216 0 4-1.784 4-4v-.25c0 2.216-1.784 4-4 4H5c-2.216 0-4-1.784-4-4z" opacity=".05"/>
  <path d="M1 43v.25c0 2.216 1.784 4 4 4h38c2.216 0 4-1.784 4-4V43c0 2.216-1.784 4-4 4H5c-2.216 0-4-1.784-4-4z" opacity=".1"/>
  <g>
    <path d="M1 39v4c0 2.216 1.784 4 4 4h38c2.216 0 4-1.784 4-4v-4c0 2.216-1.784 4-4 4H5c-2.216 0-4-1.784-4-4z" opacity=".1"/>
  </g>
</svg>
