<svg viewBox="0 0 48 48" xmlns="http://www.w3.org/2000/svg">
 <defs>
  <linearGradient id="linearGradient3764" x1="1" x2="47" gradientTransform="translate(-48 .0022147)" gradientUnits="userSpaceOnUse">
   <stop stop-color="#814949" offset="0"/>
   <stop stop-color="#8e5050" offset="1"/>
  </linearGradient>
  <clipPath id="clipPath-448128719">
   <g transform="translate(0 -1004.4)">
    <rect x="1" y="1005.4" width="46" height="46" rx="4" fill="#1890d0"/>
   </g>
  </clipPath>
  <clipPath id="clipPath-461199284">
   <g transform="translate(0 -1004.4)">
    <rect x="1" y="1005.4" width="46" height="46" rx="4" fill="#1890d0"/>
   </g>
  </clipPath>
  <linearGradient id="linear0" x2="0" y1="844.09" y2="-176.38" gradientTransform="matrix(.035539 0 0 .031358 10.316 8.5308)" gradientUnits="userSpaceOnUse">
   <stop stop-color="#ff6900" offset="0"/>
   <stop stop-color="#ffec00" offset="1"/>
  </linearGradient>
 </defs>
 <g>
  <path d="m1 43v0.25c0 2.216 1.784 4 4 4h38c2.216 0 4-1.784 4-4v-0.25c0 2.216-1.784 4-4 4h-38c-2.216 0-4-1.784-4-4zm0 0.5v0.5c0 2.216 1.784 4 4 4h38c2.216 0 4-1.784 4-4v-0.5c0 2.216-1.784 4-4 4h-38c-2.216 0-4-1.784-4-4z" opacity=".02"/>
  <path d="m1 43.25v0.25c0 2.216 1.784 4 4 4h38c2.216 0 4-1.784 4-4v-0.25c0 2.216-1.784 4-4 4h-38c-2.216 0-4-1.784-4-4z" opacity=".05"/>
  <path d="m1 43v0.25c0 2.216 1.784 4 4 4h38c2.216 0 4-1.784 4-4v-0.25c0 2.216-1.784 4-4 4h-38c-2.216 0-4-1.784-4-4z" opacity=".1"/>
 </g>
 <g>
  <rect transform="rotate(-90)" x="-47" y="1" width="46" height="46" rx="4" fill="url(#linearGradient3764)"/>
 </g>
 <g>
  <g clip-path="url(#clipPath-448128719)">
   <g opacity=".1">
    <g>
     <path d="m20 9c-0.574 0.77-1.039 3.41 0.621 4.715 1.961 1.563 2.379 3.441 2.379 6.285 0 4-3.379 7.203-1 11-6.641-5.469 0.051-13.676-5-17 2 5-5 8-4.984 12.852-0.016 5.148 3.984 8.148 8.785 8.137-3.422-1.391-4.977-5.59-4.801-7.988 2.406 5.453 6 8 12 8-2.313-3.02-2.691-3.402-2.824-5.324 0.012-1.773 0.727-2.168 1.977-4.387 3.145-4.934 1.707-9.914-2.574-12.238-0.871-0.434-1.105-0.555-2.691-1.176-0.914-0.426-1.824-1.352-1.887-2.875m10.727 8.355c3.172 4.059-0.441 7.355-2.098 9.84-1.359 1.953-0.051 5.184 1.371 7.805 0.125-2.215 1.602-3.738 2.797-4.531 3.66-2.754 3.777-6.355 1.836-9.559-1.219-1.758-2.297-2.328-3.906-3.555"/>
    </g>
   </g>
  </g>
 </g>
 <g>
  <g clip-path="url(#clipPath-461199284)">
   <g transform="translate(0,-1)">
    <g>
     <path d="m20 9c-0.574 0.77-1.039 3.41 0.621 4.715 1.961 1.563 2.379 3.441 2.379 6.285 0 4-3.379 7.203-1 11-6.641-5.469 0.051-13.676-5-17 2 5-5 8-4.984 12.852-0.016 5.148 3.984 8.148 8.785 8.137-3.422-1.391-4.977-5.59-4.801-7.988 2.406 5.453 6 8 12 8-2.313-3.02-2.691-3.402-2.824-5.324 0.012-1.773 0.727-2.168 1.977-4.387 3.145-4.934 1.707-9.914-2.574-12.238-0.871-0.434-1.105-0.555-2.691-1.176-0.914-0.426-1.824-1.352-1.887-2.875m10.727 8.355c3.172 4.059-0.441 7.355-2.098 9.84-1.359 1.953-0.051 5.184 1.371 7.805 0.125-2.215 1.602-3.738 2.797-4.531 3.66-2.754 3.777-6.355 1.836-9.559-1.219-1.758-2.297-2.328-3.906-3.555" fill="url(#linear0)"/>
    </g>
   </g>
  </g>
 </g>
 <g>
  <g transform="translate(0 -1004.4)">
   <path d="m1 1043.4v4c0 2.216 1.784 4 4 4h38c2.216 0 4-1.784 4-4v-4c0 2.216-1.784 4-4 4h-38c-2.216 0-4-1.784-4-4z" opacity=".1"/>
  </g>
 </g>
</svg>
