<svg xmlns="http://www.w3.org/2000/svg" xmlns:xlink="http://www.w3.org/1999/xlink" width="48" height="48">
  <defs>
    <linearGradient id="a">
      <stop stop-color="#151515"/>
      <stop stop-color="#222" offset="1"/>
    </linearGradient>
    <clipPath id="d"/>
    <linearGradient id="e" gradientUnits="userSpaceOnUse" y1="844.09" x2="0" y2="-176.38" gradientTransform="matrix(.03554 0 0 .03136 10.316 8.53)">
      <stop stop-color="#ff6900"/>
      <stop offset="1" stop-color="#ffec00"/>
    </linearGradient>
    <linearGradient id="b">
      <stop offset="0" stop-color="#d9d7c6"/>
      <stop offset="1" stop-color="#e1dfd0"/>
    </linearGradient>
    <linearGradient xlink:href="#b" id="c" gradientUnits="userSpaceOnUse" x1="24" y1="1051.36" x2="24" y2="1005.36"/>
  </defs>
  <g transform="translate(0 -1004.362)">
    <path d="M5 1006.362c-2.216 0-4 1.784-4 4v37.25c0 2.216 1.784 4 4 4h38c2.216 0 4-1.784 4-4v-37.25c0-2.216-1.784-4-4-4H5zm-4 41.5v.5c0 2.216 1.784 4 4 4h38c2.216 0 4-1.784 4-4v-.5c0 2.216-1.784 4-4 4H5c-2.216 0-4-1.784-4-4z" opacity=".02"/>
    <path d="M1 1047.612v.25c0 2.216 1.784 4 4 4h38c2.216 0 4-1.784 4-4v-.25c0 2.216-1.784 4-4 4H5c-2.216 0-4-1.784-4-4z" opacity=".05"/>
    <rect rx="4" y="1005.61" x="1" height="46" width="46" opacity=".1"/>
  </g>
  <rect width="46" height="46" x="1" y="1005.36" rx="4" transform="translate(0 -1004.36)" fill="url(#c)"/>
  <path d="M1 39v4c0 2.216 1.784 4 4 4h38c2.216 0 4-1.784 4-4v-4c0 2.216-1.784 4-4 4H5c-2.216 0-4-1.784-4-4z" opacity=".1"/>
  <g clip-path="url(#d)" transform="translate(-.016 -.001)" opacity=".1">
    <path d="M20 9c-.574.77-1.039 3.41.621 4.715C22.582 15.278 23 17.156 23 20c0 4-3.379 7.203-1 11-6.641-5.469.051-13.676-5-17 2 5-5 8-4.984 12.852C12 32 16 35 20.801 34.989c-3.422-1.391-4.977-5.59-4.801-7.988 2.406 5.453 6 8 12 8-2.313-3.02-2.691-3.402-2.824-5.324.012-1.773.727-2.168 1.977-4.387 3.145-4.934 1.707-9.914-2.574-12.238-.871-.434-1.105-.555-2.691-1.176-.914-.426-1.824-1.352-1.887-2.875m10.727 8.355c3.172 4.059-.441 7.355-2.098 9.84-1.359 1.953-.051 5.184 1.371 7.805.125-2.215 1.602-3.738 2.797-4.531 3.66-2.754 3.777-6.355 1.836-9.559-1.219-1.758-2.297-2.328-3.906-3.555m0 0"/>
  </g>
  <g clip-path="url(#d)" transform="translate(-.016 -1.001)">
    <path d="M20 9c-.574.77-1.039 3.41.621 4.715C22.582 15.278 23 17.156 23 20c0 4-3.379 7.203-1 11-6.641-5.469.051-13.676-5-17 2 5-5 8-4.984 12.852C12 32 16 35 20.801 34.989c-3.422-1.391-4.977-5.59-4.801-7.988 2.406 5.453 6 8 12 8-2.313-3.02-2.691-3.402-2.824-5.324.012-1.773.727-2.168 1.977-4.387 3.145-4.934 1.707-9.914-2.574-12.238-.871-.434-1.105-.555-2.691-1.176-.914-.426-1.824-1.352-1.887-2.875m10.727 8.355c3.172 4.059-.441 7.355-2.098 9.84-1.359 1.953-.051 5.184 1.371 7.805.125-2.215 1.602-3.738 2.797-4.531 3.66-2.754 3.777-6.355 1.836-9.559-1.219-1.758-2.297-2.328-3.906-3.555m0 0" fill="url(#e)"/>
  </g>
</svg>
