<svg id="svg7117" version="1.1" viewBox="0 0 48 48" xmlns="http://www.w3.org/2000/svg">
 <defs id="defs7077">
  <linearGradient id="linearGradient3764" x1="1" x2="47" gradientTransform="translate(-48 .0022147)" gradientUnits="userSpaceOnUse">
   <stop id="stop7062" stop-color="#b93b3b" offset="0"/>
   <stop id="stop7064" stop-color="#c34545" offset="1"/>
  </linearGradient>
  <clipPath id="clipPath-556220378">
   <g id="g7069" transform="translate(0 -1004.4)">
    <rect id="rect7067" x="1" y="1005.4" width="46" height="46" rx="4" fill="#1890d0"/>
   </g>
  </clipPath>
  <clipPath id="clipPath-569225273">
   <g id="g7074" transform="translate(0 -1004.4)">
    <rect id="rect7072" x="1" y="1005.4" width="46" height="46" rx="4" fill="#1890d0"/>
   </g>
  </clipPath>
 </defs>
 <g id="g7085">
  <path id="path7079" d="m1 43v0.25c0 2.216 1.784 4 4 4h38c2.216 0 4-1.784 4-4v-0.25c0 2.216-1.784 4-4 4h-38c-2.216 0-4-1.784-4-4zm0 0.5v0.5c0 2.216 1.784 4 4 4h38c2.216 0 4-1.784 4-4v-0.5c0 2.216-1.784 4-4 4h-38c-2.216 0-4-1.784-4-4z" opacity=".02"/>
  <path id="path7081" d="m1 43.25v0.25c0 2.216 1.784 4 4 4h38c2.216 0 4-1.784 4-4v-0.25c0 2.216-1.784 4-4 4h-38c-2.216 0-4-1.784-4-4z" opacity=".05"/>
  <path id="path7083" d="m1 43v0.25c0 2.216 1.784 4 4 4h38c2.216 0 4-1.784 4-4v-0.25c0 2.216-1.784 4-4 4h-38c-2.216 0-4-1.784-4-4z" opacity=".1"/>
 </g>
 <g id="g7089">
  <rect id="rect7087" transform="rotate(-90)" x="-47" y="1" width="46" height="46" rx="4" fill="url(#linearGradient3764)"/>
 </g>
 <g id="g7099">
  <g id="g7097" clip-path="url(#clipPath-556220378)">
   <g id="g7095" opacity=".1">
    <g id="g7093">
     <path id="path7091" d="m33 12.01v4.828c-4.52 0.086-5.816 5.168-5.816 5.168h3.813v4h-5.516c-3.18 10.461-10.484 9.961-10.484 9.961v-4.828s4.641 0.918 7.01-8.305c2.961-11.531 10.992-10.855 10.992-10.855"/>
    </g>
   </g>
  </g>
 </g>
 <g id="g7109">
  <g id="g7107" clip-path="url(#clipPath-569225273)">
   <g id="g7105" transform="translate(0,-1)">
    <g id="g7103">
     <path id="path7101" d="m33 12.01v4.828c-4.52 0.086-5.816 5.168-5.816 5.168h3.813v4h-5.516c-3.18 10.461-10.484 9.961-10.484 9.961v-4.828s4.641 0.918 7.01-8.305c2.961-11.531 10.992-10.855 10.992-10.855" fill="#fff"/>
    </g>
   </g>
  </g>
 </g>
 <g id="g7115">
  <g id="g7113" transform="translate(0 -1004.4)">
   <path id="path7111" d="m1 1043.4v4c0 2.216 1.784 4 4 4h38c2.216 0 4-1.784 4-4v-4c0 2.216-1.784 4-4 4h-38c-2.216 0-4-1.784-4-4z" opacity=".1"/>
  </g>
 </g>
</svg>
