<?xml version="1.0" encoding="UTF-8" standalone="no"?>
<svg
   xmlns:dc="http://purl.org/dc/elements/1.1/"
   xmlns:cc="http://creativecommons.org/ns#"
   xmlns:rdf="http://www.w3.org/1999/02/22-rdf-syntax-ns#"
   xmlns:svg="http://www.w3.org/2000/svg"
   xmlns="http://www.w3.org/2000/svg"
   xmlns:sodipodi="http://sodipodi.sourceforge.net/DTD/sodipodi-0.dtd"
   xmlns:inkscape="http://www.inkscape.org/namespaces/inkscape"
   viewBox="0 0 48 48"
   version="1.1"
   id="svg7243"
   sodipodi:docname="flipboard.svg">
  <metadata
     id="metadata7247">
    <rdf:RDF>
      <cc:Work
         rdf:about="">
        <dc:format>image/svg+xml</dc:format>
        <dc:type
           rdf:resource="http://purl.org/dc/dcmitype/StillImage" />
      </cc:Work>
    </rdf:RDF>
  </metadata>
  <sodipodi:namedview
     pagecolor="#ffffff"
     bordercolor="#666666"
     borderopacity="1"
     objecttolerance="10"
     gridtolerance="10"
     guidetolerance="10"
     inkscape:pageopacity="0"
     inkscape:pageshadow="2"
     inkscape:window-width="640"
     inkscape:window-height="480"
     id="namedview7245" />
  <defs
     id="defs7203">
    <linearGradient
       id="linearGradient3764"
       x1="1"
       x2="47"
       gradientUnits="userSpaceOnUse"
       gradientTransform="translate(-48.000001,0.00221467)">
      <stop
         stop-color="#950b0b"
         stop-opacity="1"
         id="stop7188" />
      <stop
         offset="1"
         stop-color="#a70c0c"
         stop-opacity="1"
         id="stop7190" />
    </linearGradient>
    <clipPath
       id="clipPath-682745702">
      <g
         transform="translate(0,-1004.3622)"
         id="g7195">
        <rect
           rx="4"
           y="1005.36"
           x="1"
           height="46"
           width="46"
           fill="#1890d0"
           id="rect7193" />
      </g>
    </clipPath>
    <clipPath
       id="clipPath-697989851">
      <g
         transform="translate(0,-1004.3622)"
         id="g7200">
        <rect
           rx="4"
           y="1005.36"
           x="1"
           height="46"
           width="46"
           fill="#1890d0"
           id="rect7198" />
      </g>
    </clipPath>
  </defs>
  <g
     id="g7211">
    <path
       d="m 1 43 l 0 0.25 c 0 2.216 1.784 4 4 4 l 38 0 c 2.216 0 4 -1.784 4 -4 l 0 -0.25 c 0 2.216 -1.784 4 -4 4 l -38 0 c -2.216 0 -4 -1.784 -4 -4 z m 0 0.5 l 0 0.5 c 0 2.216 1.784 4 4 4 l 38 0 c 2.216 0 4 -1.784 4 -4 l 0 -0.5 c 0 2.216 -1.784 4 -4 4 l -38 0 c -2.216 0 -4 -1.784 -4 -4 z"
       opacity="0.02"
       id="path7205" />
    <path
       d="m 1 43.25 l 0 0.25 c 0 2.216 1.784 4 4 4 l 38 0 c 2.216 0 4 -1.784 4 -4 l 0 -0.25 c 0 2.216 -1.784 4 -4 4 l -38 0 c -2.216 0 -4 -1.784 -4 -4 z"
       opacity="0.05"
       id="path7207" />
    <path
       d="m 1 43 l 0 0.25 c 0 2.216 1.784 4 4 4 l 38 0 c 2.216 0 4 -1.784 4 -4 l 0 -0.25 c 0 2.216 -1.784 4 -4 4 l -38 0 c -2.216 0 -4 -1.784 -4 -4 z"
       opacity="0.1"
       id="path7209" />
  </g>
  <g
     id="g7215">
    <rect
       width="46"
       height="46"
       x="-47"
       y="1"
       rx="4"
       transform="matrix(0,-1,1,0,0,0)"
       fill="url(#linearGradient3764)"
       fill-opacity="1"
       id="rect7213" />
  </g>
  <g
     id="g7225">
    <g
       clip-path="url(#clipPath-682745702)"
       id="g7223">
      <g
         opacity="0.1"
         id="g7221">
        <!-- color: #a70c0c -->
        <g
           id="g7219">
          <path
             d="m 13 12 l 0 24 l 8 0 l 0 -8 l 8 0 l 0 -8 l 5.996 0 l 0 -8 l -22 0 m 0 0.004"
             stroke="none"
             fill-rule="nonzero"
             fill-opacity="1"
             fill="#000"
             id="path7217" />
        </g>
      </g>
    </g>
  </g>
  <g
     id="g7235">
    <g
       clip-path="url(#clipPath-697989851)"
       id="g7233">
      <g
         transform="translate(0,-1)"
         id="g7231">
        <!-- color: #a70c0c -->
        <g
           id="g7229">
          <path
             d="m 13 12 l 0 24 l 8 0 l 0 -8 l 8 0 l 0 -8 l 5.996 0 l 0 -8 l -22 0 m 0 0.004"
             fill="#f9f9f9"
             stroke="none"
             fill-rule="nonzero"
             fill-opacity="1"
             id="path7227" />
        </g>
      </g>
    </g>
  </g>
  <g
     id="g7241">
    <g
       transform="translate(0,-1004.3622)"
       id="g7239">
      <path
         d="m 1 1043.36 0 4 c 0 2.216 1.784 4 4 4 l 38 0 c 2.216 0 4 -1.784 4 -4 l 0 -4 c 0 2.216 -1.784 4 -4 4 l -38 0 c -2.216 0 -4 -1.784 -4 -4 z"
         opacity="0.1"
         id="path7237" />
    </g>
  </g>
</svg>
