<svg version="1.1" viewBox="0 0 48 48" xmlns="http://www.w3.org/2000/svg">
 <defs>
  <linearGradient id="bg" x2="0" y1="1" y2="47" gradientUnits="userSpaceOnUse">
   <stop style="stop-color:#474747" offset="0"/>
   <stop style="stop-color:#3d3d3d" offset="1"/>
  </linearGradient>
 </defs>
 <path d="m1 43v0.25c0 2.22 1.78 4 4 4h38c2.22 0 4-1.78 4-4v-0.25c0 2.22-1.78 4-4 4h-38c-2.22 0-4-1.78-4-4zm0 0.5v0.5c0 2.22 1.78 4 4 4h38c2.22 0 4-1.78 4-4v-0.5c0 2.22-1.78 4-4 4h-38c-2.22 0-4-1.78-4-4z" style="opacity:.02"/>
 <path d="m1 43.2v0.25c0 2.22 1.78 4 4 4h38c2.22 0 4-1.78 4-4v-0.25c0 2.22-1.78 4-4 4h-38c-2.22 0-4-1.78-4-4z" style="opacity:.05"/>
 <path d="m1 43v0.25c0 2.22 1.78 4 4 4h38c2.22 0 4-1.78 4-4v-0.25c0 2.22-1.78 4-4 4h-38c-2.22 0-4-1.78-4-4z" style="opacity:.1"/>
 <rect x="1" y="1" width="46" height="46" rx="4" style="fill:url(#bg)"/>
 <path d="m1 39v4c0 2.22 1.78 4 4 4h38c2.22 0 4-1.78 4-4v-4c0 2.22-1.78 4-4 4h-38c-2.22 0-4-1.78-4-4z" style="opacity:.1"/>
 <path d="m26 11-6 8c-3 4-4 5.61-4 9 0 6 4 9 9 9 4 0 7-3 7-8 0-8-5-8.21-5-15v-2.5c0-0.277-0.223-0.5-0.5-0.5zm-1 5v1c0 1.96 0.959 3.44 1.94 5.02-0.145-0.0136-0.291-0.0234-0.438-0.0234-3.04-0.0019-5.5 2.46-5.5 5.5 0 1.38 1.12 2.5 2.5 2.5s2.5-1.12 2.5-2.5c1.16e-4 -1.19-0.834-2.21-2-2.45 0.657-0.671 1.56-1.05 2.5-1.05 0.621 9e-5 1.23 0.168 1.77 0.482 0.433 1.02 0.734 2.15 0.734 3.52 0 2-0.582 6-5 6-3.32 0-6-2.65-6-6 0-2.6 1-4 2.5-6z" style="opacity:.1"/>
 <path d="m26 10-6 8c-3 4-4 5.61-4 9 0 6 4 9 9 9 4 0 7-3 7-8 0-8-5-8.21-5-15v-2.5c0-0.277-0.223-0.5-0.5-0.5zm-1 5v1c0 1.96 0.959 3.44 1.94 5.02-0.145-0.0136-0.291-0.0234-0.438-0.0234-3.04-0.0019-5.5 2.46-5.5 5.5 0 1.38 1.12 2.5 2.5 2.5s2.5-1.12 2.5-2.5c1.16e-4 -1.19-0.834-2.21-2-2.45 0.657-0.671 1.56-1.05 2.5-1.05 0.621 9e-5 1.23 0.168 1.77 0.482 0.433 1.02 0.734 2.15 0.734 3.52 0 2-0.582 6-5 6-3.32 0-6-2.65-6-6 0-2.6 1-4 2.5-6z" style="fill:#f9f9f9"/>
</svg>
