<svg id="svg7466" version="1.1" viewBox="0 0 48 48" xmlns="http://www.w3.org/2000/svg">
 <defs id="defs7426">
  <linearGradient id="linearGradient3764" x1="1" x2="47" gradientTransform="translate(-48 .0022147)" gradientUnits="userSpaceOnUse">
   <stop id="stop7411" stop-color="#f15f1f" offset="0"/>
   <stop id="stop7413" stop-color="#f26d32" offset="1"/>
  </linearGradient>
  <clipPath id="clipPath-589864821">
   <g id="g7418" transform="translate(0 -1004.4)">
    <rect id="rect7416" x="1" y="1005.4" width="46" height="46" rx="4" fill="#1890d0"/>
   </g>
  </clipPath>
  <clipPath id="clipPath-619674586">
   <g id="g7423" transform="translate(0 -1004.4)">
    <rect id="rect7421" x="1" y="1005.4" width="46" height="46" rx="4" fill="#1890d0"/>
   </g>
  </clipPath>
 </defs>
 <g id="g7434">
  <path id="path7428" d="m1 43v0.25c0 2.216 1.784 4 4 4h38c2.216 0 4-1.784 4-4v-0.25c0 2.216-1.784 4-4 4h-38c-2.216 0-4-1.784-4-4zm0 0.5v0.5c0 2.216 1.784 4 4 4h38c2.216 0 4-1.784 4-4v-0.5c0 2.216-1.784 4-4 4h-38c-2.216 0-4-1.784-4-4z" opacity=".02"/>
  <path id="path7430" d="m1 43.25v0.25c0 2.216 1.784 4 4 4h38c2.216 0 4-1.784 4-4v-0.25c0 2.216-1.784 4-4 4h-38c-2.216 0-4-1.784-4-4z" opacity=".05"/>
  <path id="path7432" d="m1 43v0.25c0 2.216 1.784 4 4 4h38c2.216 0 4-1.784 4-4v-0.25c0 2.216-1.784 4-4 4h-38c-2.216 0-4-1.784-4-4z" opacity=".1"/>
 </g>
 <g id="g7438">
  <rect id="rect7436" transform="rotate(-90)" x="-47" y="1" width="46" height="46" rx="4" fill="url(#linearGradient3764)"/>
 </g>
 <g id="g7448">
  <g id="g7446" clip-path="url(#clipPath-589864821)">
   <g id="g7444" opacity=".1">
    <g id="g7442">
     <path id="path7440" d="m21.19 15c-0.57 0.016-1.148 0.109-1.719 0.313-2.445 0.863-4.301 3.363-4.844 6.469-1.605 0.402-2.996 1.887-3.48 4-0.672 3 0.738 6.094 3.125 6.938 0.039 0.012 0.086 0.023 0.125 0.031 0.332 0.148 0.66 0.25 1.031 0.25h17.344c0.621 0 1.172-0.234 1.656-0.625 1.938-1.16 3.01-3.91 2.406-6.594-0.441-1.98-1.691-3.434-3.156-3.938-0.023-0.066-0.023-0.121-0.031-0.188-0.672-3-3.172-4.75-5.563-3.906-0.457 0.16-0.863 0.43-1.25 0.75-1.316-2.223-3.441-3.563-5.656-3.5m2.813 4 1 2h-2m-5-1h2v1h-1v1h1v2h-1v1h1v2h-1v1h1v2h-1v1h1v1h-2m10.75-11.594v1.094c-0.129 0.09-0.219 0.238-0.219 0.406 0 0.277 0.223 0.5 0.5 0.5 0.273 0 0.5-0.223 0.5-0.5 0-0.191-0.125-0.355-0.281-0.438v-1.063c0.395 0.602 0.996 1.539 0.656 2.156-0.332 0.594-1.477 0.59-1.813 0-0.355-0.613 0.25-1.551 0.645-2.156m-5.75 1.594h2v10h-2m5-8h2v8h-2"/>
    </g>
   </g>
  </g>
 </g>
 <g id="g7458">
  <g id="g7456" clip-path="url(#clipPath-619674586)">
   <g id="g7454" transform="translate(0,-1)">
    <g id="g7452">
     <path id="path7450" d="m21.19 15c-0.57 0.016-1.148 0.109-1.719 0.313-2.445 0.863-4.301 3.363-4.844 6.469-1.605 0.402-2.996 1.887-3.48 4-0.672 3 0.738 6.094 3.125 6.938 0.039 0.012 0.086 0.023 0.125 0.031 0.332 0.148 0.66 0.25 1.031 0.25h17.344c0.621 0 1.172-0.234 1.656-0.625 1.938-1.16 3.01-3.91 2.406-6.594-0.441-1.98-1.691-3.434-3.156-3.938-0.023-0.066-0.023-0.121-0.031-0.188-0.672-3-3.172-4.75-5.563-3.906-0.457 0.16-0.863 0.43-1.25 0.75-1.316-2.223-3.441-3.563-5.656-3.5m2.813 4 1 2h-2m-5-1h2v1h-1v1h1v2h-1v1h1v2h-1v1h1v2h-1v1h1v1h-2m10.75-11.594v1.094c-0.129 0.09-0.219 0.238-0.219 0.406 0 0.277 0.223 0.5 0.5 0.5 0.273 0 0.5-0.223 0.5-0.5 0-0.191-0.125-0.355-0.281-0.438v-1.063c0.395 0.602 0.996 1.539 0.656 2.156-0.332 0.594-1.477 0.59-1.813 0-0.355-0.613 0.25-1.551 0.645-2.156m-5.75 1.594h2v10h-2m5-8h2v8h-2" fill="#f9f9f9"/>
    </g>
   </g>
  </g>
 </g>
 <g id="g7464">
  <g id="g7462" transform="translate(0 -1004.4)">
   <path id="path7460" d="m1 1043.4v4c0 2.216 1.784 4 4 4h38c2.216 0 4-1.784 4-4v-4c0 2.216-1.784 4-4 4h-38c-2.216 0-4-1.784-4-4z" opacity=".1"/>
  </g>
 </g>
</svg>
