<svg version="1.1" viewBox="0 0 48 48" xmlns="http://www.w3.org/2000/svg">
 <defs>
  <linearGradient id="bg" x1="1" x2="47" gradientTransform="translate(-48)" gradientUnits="userSpaceOnUse">
   <stop style="stop-color:#914f20" offset="0"/>
   <stop style="stop-color:#a35924" offset="1"/>
  </linearGradient>
 </defs>
 <path d="m1 43v0.25c0 2.22 1.78 4 4 4h38c2.22 0 4-1.78 4-4v-0.25c0 2.22-1.78 4-4 4h-38c-2.22 0-4-1.78-4-4zm0 0.5v0.5c0 2.22 1.78 4 4 4h38c2.22 0 4-1.78 4-4v-0.5c0 2.22-1.78 4-4 4h-38c-2.22 0-4-1.78-4-4z" style="opacity:.02"/>
 <path d="m1 43.2v0.25c0 2.22 1.78 4 4 4h38c2.22 0 4-1.78 4-4v-0.25c0 2.22-1.78 4-4 4h-38c-2.22 0-4-1.78-4-4z" style="opacity:.05"/>
 <path d="m1 43v0.25c0 2.22 1.78 4 4 4h38c2.22 0 4-1.78 4-4v-0.25c0 2.22-1.78 4-4 4h-38c-2.22 0-4-1.78-4-4z" style="opacity:.1"/>
 <rect transform="rotate(-90)" x="-47" y="1" width="46" height="46" rx="4" style="fill:url(#bg)"/>
 <path d="m1 39v4c0 2.22 1.78 4 4 4h38c2.22 0 4-1.78 4-4v-4c0 2.22-1.78 4-4 4h-38c-2.22 0-4-1.78-4-4z" style="opacity:.1"/>
 <path d="m14.5 12c-1.91 0-2.5 0.887-2.5 1.25 0 0.5 0.215 0.75 0.75 0.75 1.23 0 0.567-1.5 2.25-1.5 0.308 0 0.582 0.116 0.842 0.34l-2.84 15.2v4h10v-3.78c0.599 0.675 1.26 1.19 2 1.49v2.29h10v-2.21c0.747-0.255 1-0.698 1-1.04 0-0.55-0.465-0.75-0.75-0.75l-10.2-14.2c-0.636-0.727-1.3-1.21-2-1.48v-0.283l-7.05 0.264c-0.468-0.176-0.951-0.264-1.45-0.264zm8.5 0.994c0.642 0.681 1.22 2.08 2 4.16v0.885l-2 0.215zm0 5.76 2 0.184v10.1c-0.651-0.645-1.18-1.94-1.82-3.66l-0.176-0.467zm-10 15.2v2h10v-2zm12 0v2h10v-2z" style="opacity:.1"/>
 <path d="m16 11-3 16v4h10v-20zm9 0v20h10v-4l-3-16zm-12 22v2h10v-2zm12 0v2h10v-2z" style="fill:#ea9a5c"/>
 <path d="m21.5 12c-1.91 0-2.5 0.887-2.5 1.25 0 0.5 0.215 0.75 0.75 0.75 1.23 0 0.567-1.5 2.25-1.5 0.371 0 0.694 0.169 1 0.494v-0.711c-0.484-0.189-0.982-0.283-1.5-0.283zm-5.72 0.199-0.0977 0.516c0.874 0.583 1.55 2.36 2.64 5.29l-2.32 0.25v0.5l2.72 0.25 1.4 3.86c0.79 2.13 1.72 4.05 2.88 5.36v-3.3l-2.23-5.92 2.23-0.25v-0.5l-2.61-0.25c-1.39-3.48-2.9-5.24-4.62-5.8zm9.22 1.56v3.39c0.105 0.277 0.207 0.548 0.32 0.85l-0.32 0.0352v0.898l0.721 0.0664 1.4 3.86c1.45 3.92 3.36 7.14 6.38 7.14 0.642 0 1.13-0.0807 1.5-0.207v-1.75c-0.738 0.224-0.408 1.46-2 1.46-1.19 0-1.88-1.61-2.82-4.11l-2.4-6.39 2.23-0.25v-0.5l-2.61-0.25zm3.25 14.2c-1.08 0-0.5 1.5-2.25 1.5-0.374 0-0.701-0.16-1-0.457v0.668c0.468 0.187 0.966 0.289 1.5 0.289 1.94 0 2.5-0.734 2.5-1.25 0-0.55-0.465-0.75-0.75-0.75z" style="opacity:.1"/>
 <path d="m14.5 11c-1.91 0-2.5 0.887-2.5 1.25 0 0.5 0.215 0.75 0.75 0.75 1.23 0 0.567-1.5 2.25-1.5 1.25 0 1.96 1.87 3.32 5.5l-2.32 0.25v0.5l2.72 0.25 1.4 3.86c1.45 3.92 3.36 7.14 6.38 7.14 1.94 0 2.5-0.734 2.5-1.25 0-0.55-0.465-0.75-0.75-0.75-1.08 0-0.5 1.5-2.25 1.5-1.19 0-1.88-1.61-2.82-4.11l-2.4-6.39 2.23-0.25 2.72 0.25 1.4 3.86c1.45 3.92 3.36 7.14 6.38 7.14 1.94 0 2.5-0.734 2.5-1.25 0-0.55-0.465-0.75-0.75-0.75-1.08 0-0.5 1.5-2.25 1.5-1.19 0-1.88-1.61-2.82-4.11l-2.4-6.39 2.23-0.25v-0.5l-2.61-0.25c-1.73-4.32-3.64-6-5.89-6-1.91 0-2.5 0.887-2.5 1.25 0 0.5 0.215 0.75 0.75 0.75 1.23 0 0.567-1.5 2.25-1.5 1.25 0 1.96 1.87 3.32 5.5l-2.32 0.25-2.61-0.25c-1.73-4.32-3.64-6-5.89-6z" style="fill:#f9f9f9"/>
</svg>
