<svg viewBox="0 0 48 48" xmlns="http://www.w3.org/2000/svg">
 <defs>
  <linearGradient id="linearGradient3764" x1="1" x2="47" gradientTransform="translate(-48 .0022147)" gradientUnits="userSpaceOnUse">
   <stop stop-color="#ba4aae" offset="0"/>
   <stop stop-color="#c059b6" offset="1"/>
  </linearGradient>
  <clipPath id="clipPath-919202879">
   <g transform="translate(0 -1004.4)">
    <rect x="1" y="1005.4" width="46" height="46" rx="4" fill="#1890d0"/>
   </g>
  </clipPath>
  <clipPath id="clipPath-932083834">
   <g transform="translate(0 -1004.4)">
    <rect x="1" y="1005.4" width="46" height="46" rx="4" fill="#1890d0"/>
   </g>
  </clipPath>
 </defs>
 <g>
  <path d="m1 43v0.25c0 2.216 1.784 4 4 4h38c2.216 0 4-1.784 4-4v-0.25c0 2.216-1.784 4-4 4h-38c-2.216 0-4-1.784-4-4zm0 0.5v0.5c0 2.216 1.784 4 4 4h38c2.216 0 4-1.784 4-4v-0.5c0 2.216-1.784 4-4 4h-38c-2.216 0-4-1.784-4-4z" opacity=".02"/>
  <path d="m1 43.25v0.25c0 2.216 1.784 4 4 4h38c2.216 0 4-1.784 4-4v-0.25c0 2.216-1.784 4-4 4h-38c-2.216 0-4-1.784-4-4z" opacity=".05"/>
  <path d="m1 43v0.25c0 2.216 1.784 4 4 4h38c2.216 0 4-1.784 4-4v-0.25c0 2.216-1.784 4-4 4h-38c-2.216 0-4-1.784-4-4z" opacity=".1"/>
 </g>
 <g>
  <rect transform="rotate(-90)" x="-47" y="1" width="46" height="46" rx="4" fill="url(#linearGradient3764)"/>
 </g>
 <g>
  <g clip-path="url(#clipPath-919202879)">
   <g opacity=".1">
    <g>
     <path d="m15 11c-1 0-1 0.996-1 0.996v23c0 1 1 2 1.996 2h16.98c0.535 0 1.02-0.465 1.02-0.977v-21.02c0-0.512-0.461-1-0.996-1h-15l-2-2c5.109-0.039 11.789 0 17 0 0.105 0-0.32-0.996-1-0.996m-14 4.996h14v19h-14m0-19"/>
     <path d="m16 15v21h17v-21m-7.438 3c0.691-0.012 1.547 0.215 2.375 0.688 1.32 0.758 2.156 1.891 2.063 2.719l-5.406-3.094c-0.016-8e-3 -0.016-0.023-0.031-0.031 0.254-0.184 0.586-0.273 1-0.281m-0.844 0.813c0.102 0.012 0.219 0.074 0.313 0.125l0.344 0.191c0.375 0.215 0.496 0.691 0.281 1.063l-4.219 7.219c-0.215 0.371-0.688 0.496-1.063 0.281l-0.344-0.188c-0.375-0.219-0.496-0.691-0.281-1.066l4.219-7.219c0.164-0.277 0.449-0.445 0.75-0.406m1.625 1.125c0.191-0.051 0.406-0.012 0.594 0.094l0.344 0.191c0.375 0.215 0.496 0.691 0.281 1.063l-4.219 7.23c-0.215 0.367-0.688 0.492-1.063 0.27l-0.313-0.188c-0.375-0.211-0.527-0.691-0.313-1.066l4.219-7.219c0.105-0.184 0.277-0.324 0.469-0.375m2.219 1.094c0.102 0.023 0.219 0.039 0.313 0.105l0.344 0.188c0.375 0.215 0.5 0.695 0.281 1.066l-4.219 7.219c-0.215 0.367-0.688 0.492-1.063 0.281l-0.344-0.191c-0.371-0.211-0.496-0.688-0.281-1.063l4.219-7.23c0.164-0.27 0.449-0.41 0.75-0.375m-9.375 6.406c0.113-0.066 5.504 3.03 5.5 3.156-4e-3 0.133-5.547 3.469-5.656 3.406s0.043-6.492 0.156-6.563"/>
    </g>
   </g>
  </g>
 </g>
 <g>
  <g clip-path="url(#clipPath-932083834)">
   <g transform="translate(0,-1)">
    <g fill="#ebebeb">
     <path d="m15 11c-1 0-1 0.996-1 0.996v23c0 1 1 2 1.996 2h16.98c0.535 0 1.02-0.465 1.02-0.977v-21.02c0-0.512-0.461-1-0.996-1h-15l-2-2c5.109-0.039 11.789 0 17 0 0.105 0-0.32-0.996-1-0.996m-14 4.996h14v19h-14m0-19"/>
     <path d="m16 15v21h17v-21m-7.438 3c0.691-0.012 1.547 0.215 2.375 0.688 1.32 0.758 2.156 1.891 2.063 2.719l-5.406-3.094c-0.016-8e-3 -0.016-0.023-0.031-0.031 0.254-0.184 0.586-0.273 1-0.281m-0.844 0.813c0.102 0.012 0.219 0.074 0.313 0.125l0.344 0.191c0.375 0.215 0.496 0.691 0.281 1.063l-4.219 7.219c-0.215 0.371-0.688 0.496-1.063 0.281l-0.344-0.188c-0.375-0.219-0.496-0.691-0.281-1.066l4.219-7.219c0.164-0.277 0.449-0.445 0.75-0.406m1.625 1.125c0.191-0.051 0.406-0.012 0.594 0.094l0.344 0.191c0.375 0.215 0.496 0.691 0.281 1.063l-4.219 7.23c-0.215 0.367-0.688 0.492-1.063 0.27l-0.313-0.188c-0.375-0.211-0.527-0.691-0.313-1.066l4.219-7.219c0.105-0.184 0.277-0.324 0.469-0.375m2.219 1.094c0.102 0.023 0.219 0.039 0.313 0.105l0.344 0.188c0.375 0.215 0.5 0.695 0.281 1.066l-4.219 7.219c-0.215 0.367-0.688 0.492-1.063 0.281l-0.344-0.191c-0.371-0.211-0.496-0.688-0.281-1.063l4.219-7.23c0.164-0.27 0.449-0.41 0.75-0.375m-9.375 6.406c0.113-0.066 5.504 3.03 5.5 3.156-4e-3 0.133-5.547 3.469-5.656 3.406s0.043-6.492 0.156-6.563"/>
    </g>
   </g>
  </g>
 </g>
 <g>
  <g transform="translate(0 -1004.4)">
   <path d="m1 1043.4v4c0 2.216 1.784 4 4 4h38c2.216 0 4-1.784 4-4v-4c0 2.216-1.784 4-4 4h-38c-2.216 0-4-1.784-4-4z" opacity=".1"/>
  </g>
 </g>
</svg>
