<svg version="1.1" viewBox="0 0 48 48" xmlns="http://www.w3.org/2000/svg">
 <defs>
  <linearGradient id="bg" x1="-47" x2="-1" gradientUnits="userSpaceOnUse">
   <stop style="stop-color:#f6b22e" offset="0"/>
   <stop style="stop-color:#f7b941" offset="1"/>
  </linearGradient>
  <radialGradient id="radialGradient6422" cx="17" cy="17" r="3.5" gradientTransform="translate(-.5 -2.5)" gradientUnits="userSpaceOnUse">
   <stop style="stop-color:#cc5f50" offset="0"/>
   <stop style="stop-color:#d57a6e" offset="1"/>
  </radialGradient>
 </defs>
 <path d="m1 43v0.25c0 2.22 1.78 4 4 4h38c2.22 0 4-1.78 4-4v-0.25c0 2.22-1.78 4-4 4h-38c-2.22 0-4-1.78-4-4zm0 0.5v0.5c0 2.22 1.78 4 4 4h38c2.22 0 4-1.78 4-4v-0.5c0 2.22-1.78 4-4 4h-38c-2.22 0-4-1.78-4-4z" style="opacity:.02"/>
 <path d="m1 43.3v0.25c0 2.22 1.78 4 4 4h38c2.22 0 4-1.78 4-4v-0.25c0 2.22-1.78 4-4 4h-38c-2.22 0-4-1.78-4-4z" style="opacity:.05"/>
 <path d="m1 43v0.25c0 2.22 1.78 4 4 4h38c2.22 0 4-1.78 4-4v-0.25c0 2.22-1.78 4-4 4h-38c-2.22 0-4-1.78-4-4z" style="opacity:.1"/>
 <rect transform="rotate(-90)" x="-47" y="1" width="46" height="46" rx="4" style="fill:url(#bg)"/>
 <path d="m1 39v4c0 2.22 1.78 4 4 4h38c2.22 0 4-1.78 4-4v-4c0 2.22-1.78 4-4 4h-38c-2.22 0-4-1.78-4-4z" style="opacity:.1"/>
 <path d="m11 11v9c0 0.554 0.446 1 1 1h9c0.554 0 1-0.446 1-1v-9zm12 0v9c0 0.554 0.446 1 1 1h12c0.554 0 1-0.446 1-1v-9zm-12 12v12c0 0.554 0.446 1 1 1h10c0.554 0 1-0.446 1-1v-12zm13 0v12c0 0.554 0.446 1 1 1h11c0.554 0 1-0.446 1-1v-12z" style="opacity:.1"/>
 <rect x="11" y="21" width="12" height="14" rx="1" ry="1" style="fill:#546971"/>
 <path d="m12 22v12h10v-12" style="fill:#79a8b7"/>
 <path d="m22 22v3c-0.579 0.335-1.74 0.692-2.52 0.692-1.57 0-2.9-0.799-3.32-1.9-0.379 0.231-0.852 0.38-1.37 0.38-0.979 0-2.49-0.693-2.78-1.37v-0.805" style="fill:#f8ddeb"/>
 <path d="m15 31.2c-0.829 0.765-0.813 2.28-0.813 2.28s1.14 5e-3 2-0.438c0.25 0.478 0.563 0.844 0.563 0.844s0.781-0.638 1.09-1.41c0.136 0.718 0.156 1.53 0.156 1.53h0.906s-1e-3 -0.985-0.188-1.78c0.815 0.225 1.75 0.094 1.75 0.094s-0.161-0.96-0.719-1.59c0.126-0.037 0.261-0.064 0.375-0.125 0.907-0.484 1.28-1.81 1.28-1.81s-1.43-0.359-2.34 0.125z" style="fill:#3d903d"/>
 <path d="m16.5 25.2c-0.806 0-1.46 0.648-1.46 1.45 0.0255 0.0654-0.0275 0.0242-0.0373 0.0332-0.781-0.206-1.59 0.254-1.8 1.03-0.21 0.773 0.254 1.57 1.04 1.78 0.0138 0.0022 0.0206-0.0022 0.0324 0-0.0069 0.0121-0.0118 0.0161-0.0118 0.0322-0.405 0.693-0.153 1.59 0.548 1.99 0.701 0.401 1.59 0.15 2-0.544 0.0049-0.0131 9.82e-4 -0.0201 0.0138-0.0292 0.0118 0.0093 0.0186 0.0161 0.0324 0.0292 0.57 0.567 1.49 0.567 2.06 0 0.57-0.569 0.57-1.49 0-2.05-0.0658-0.0302 0.0098-0.0332 0.0138-0.0453 0.698-0.401 0.937-1.28 0.533-1.98-0.328-0.558-0.966-0.807-1.57-0.677-0.188-0.58-0.735-1.01-1.39-1.01" style="fill:#e4da3b;stroke-width:.994"/>
 <rect x="24" y="21" width="13" height="14" rx="1" ry="1" style="fill:#546971"/>
 <rect x="25" y="22" width="11" height="12" style="fill:#98cdf1"/>
 <path d="m25 34h11v-0.846c-0.288-1.27-1.76-2.73-3.6-3.48l-4.25 0.015c-1.41 0.62-2.86 1.98-3.15 3.47" style="fill:#1f5d8e"/>
 <path d="m30 30.5-2.09-2.52c2.07-0.011 3.07-0.011 4.91-0.196l-2.46 2.77" style="fill:#c47378"/>
 <path d="m28 28.3c-1e-3 0 4.62-0.139 4.62-0.139 0.345-0.134 0.637-0.513 0.649-1.09-0.088-5.34-5.87-5.24-6.03-0.492 0.051 0.598 0.408 1.44 0.755 1.72" style="fill:#a0534f"/>
 <path d="m29.3 25.2c-0.362-0.032-1.09 0.549-1.27 1.3v1.72c-0.00786-0.00636-0.0156-0.0204-0.0234-0.0273l0.00391 0.0215 0.717 0.727h0.0176c0.397 0.394 0.933 0.639 1.53 0.639 0.592 0 1.13-0.244 1.53-0.637h0.0117c0.209-0.205 0.685-0.602 0.848-0.916v-1.87c-0.304 0.421-1.36 0.552-1.93 0-0.37-0.532-0.802-0.901-1.42-0.957z" style="fill:#dfa470"/>
 <path d="m28.7 29 1.54 1.6-0.768 0.797-1.54-1.59" style="fill:#e6e6e6"/>
 <rect x="23" y="9" width="14" height="11" rx="1" ry="1" style="fill:#546971"/>
 <path d="m24 10h12v9h-12" style="fill:#4db0d8"/>
 <path d="m32.5 13.5-5.86 5.5h9.36v-1z" style="fill:#43a63b"/>
 <path d="m29 13c0 1.05-0.953 2-2 2s-2-0.953-2-2 0.953-2 2-2 2 0.953 2 2z" style="fill:#f1cf0f"/>
 <path d="m32.5 13.5-0.5 2.5-3 3h7v-1z" style="fill:#4ab842"/>
 <path d="m28 13-4 4.59v1.41h8.5z" style="fill:#269542"/>
 <path d="m28 13-1 3 1 3h4.5z" style="fill:#2cad4d"/>
 <rect x="11" y="9" width="11" height="11" rx="1" ry="1" style="fill:#546971"/>
 <rect x="12" y="10" width="9" height="9" style="fill:#94cadf"/>
 <path d="m15.2 16s-0.909-0.723-1.56-1.77c-0.652-1.05-0.833-1.71-0.561-1.91 0.272-0.201 1.35 0.23 2.16 0.753 0.818 0.523 0.675 0.456 0.675 0.456s2e-3 -0.371 0.197-0.447c0.228-0.089 0.41 0.308 0.41 0.308s0.262-0.563 0.989-1.29 1.53-1.22 1.86-1.11c0.334 0.108 0.566 0.995 0.582 2.07 0.015 1.08-0.706 2.16-0.706 2.16s0.46 0.751 0.37 1.26c-0.112 0.623-0.35 1.03-0.819 1.08-0.469 0.046-1.32-0.785-1.32-0.785s0.031 1.09-0.363 1.18c-0.393 0.092-1.04-0.415-1.42-0.938s-0.499-1.03-0.499-1.03" style="fill:url(#radialGradient6422)"/>
 <path d="m16.6 13.4c0.261 0.546 1.38 3.33 0.997 3.49-0.349 0.145-1.52-2.42-1.61-3.35-0.013-0.144-0.058-0.492 0.131-0.553 0.158-0.051 0.35 0.14 0.481 0.414z" style="fill:#555"/>
 <path d="m30.3 30.6 1.54-1.6 0.77 0.797-1.54 1.6" style="fill:#e6e6e6"/>
 <circle cx="16.5" cy="28.5" r="1.5" style="fill:#7a6841"/>
</svg>
