<svg version="1.1" viewBox="0 0 48 48" xmlns="http://www.w3.org/2000/svg">
 <defs>
  <linearGradient id="bg" x2="0" y1="1" y2="47" gradientUnits="userSpaceOnUse">
   <stop style="stop-color:#474747" offset="0"/>
   <stop style="stop-color:#3d3d3d" offset="1"/>
  </linearGradient>
 </defs>
 <path d="m1 43v0.25c0 2.22 1.78 4 4 4h38c2.22 0 4-1.78 4-4v-0.25c0 2.22-1.78 4-4 4h-38c-2.22 0-4-1.78-4-4zm0 0.5v0.5c0 2.22 1.78 4 4 4h38c2.22 0 4-1.78 4-4v-0.5c0 2.22-1.78 4-4 4h-38c-2.22 0-4-1.78-4-4z" style="opacity:.02"/>
 <path d="m1 43.2v0.25c0 2.22 1.78 4 4 4h38c2.22 0 4-1.78 4-4v-0.25c0 2.22-1.78 4-4 4h-38c-2.22 0-4-1.78-4-4z" style="opacity:.05"/>
 <path d="m1 43v0.25c0 2.22 1.78 4 4 4h38c2.22 0 4-1.78 4-4v-0.25c0 2.22-1.78 4-4 4h-38c-2.22 0-4-1.78-4-4z" style="opacity:.1"/>
 <rect x="1" y="1" width="46" height="46" rx="4" style="fill:url(#bg)"/>
 <path d="m1 39v4c0 2.22 1.78 4 4 4h38c2.22 0 4-1.78 4-4v-4c0 2.22-1.78 4-4 4h-38c-2.22 0-4-1.78-4-4z" style="opacity:.1"/>
 <path d="m12 24v3c2 3 7 3 7 3v-1s4 2 5 2 5-2 5-2v1s5 0 7-3v-3zm11 8s-3.37-0.265-4 1l-1 2s-1 1 6 1 6-1 6-1l-1-2c-0.632-1.26-4-1-4-1s2 0 2 1c0 1.05-2 1-3 1s-3 0-3-1 2-1 2-1z" style="opacity:.1"/>
 <path d="m24 11c-12 0-12 12-12 12v3c2 3 7 3 7 3v-1s4 2 5 2 5-2 5-2v1s5 0 7-3v-3s0-12-12-12zm0 16c1 0 1 1 1 1h-2s0-1 1-1zm-1 4s-3.37-0.265-4 1l-1 2s-1 1 6 1 6-1 6-1l-1-2c-0.632-1.26-4-1-4-1s2 0 2 1c0 1.05-2 1-3 1s-3 0-3-1 2-1 2-1z" style="fill:#f9f9f9"/>
 <path d="m19 23.5s-0.0211 3.5 0.449 3.5c0.458 0 0.551-2 0.551-2s0.0072 3 0.594 3c0.375 0 0.406-3 0.406-3s0.151 1 0.395 1c0.507 0 0.605-1 0.605-1v-1.5zm7 0v1.5s0.098 1 0.605 1c0.243 0 0.395-1 0.395-1s0.0309 3 0.406 3c0.587 0 0.594-3 0.594-3s0.0931 2 0.551 2c0.47 0 0.449-3.5 0.449-3.5z" style="fill:#e94949"/>
 <path d="m20.5 22a1.5 1.5 0 0 0-1.5 1.5 1.5 1.5 0 0 0 1.5 1.5 1.5 1.5 0 0 0 1.5-1.5 1.5 1.5 0 0 0-1.5-1.5zm7 0a1.5 1.5 0 0 0-1.5 1.5 1.5 1.5 0 0 0 1.5 1.5 1.5 1.5 0 0 0 1.5-1.5 1.5 1.5 0 0 0-1.5-1.5z" style="fill:#424242"/>
</svg>
