<svg width="48" height="48" viewBox="0 0 48 48.000001" xmlns="http://www.w3.org/2000/svg">
  <defs>
    <linearGradient id="a" x1="-47" x2="-1" gradientUnits="userSpaceOnUse">
      <stop offset="0" stop-color="#3d3d3d"/>
      <stop offset="1" stop-color="#474747"/>
    </linearGradient>
  </defs>
  <path d="M1 43v.25c0 2.216 1.784 4 4 4h38c2.216 0 4-1.784 4-4V43c0 2.216-1.784 4-4 4H5c-2.216 0-4-1.784-4-4zm0 .5v.5c0 2.216 1.784 4 4 4h38c2.216 0 4-1.784 4-4v-.5c0 2.216-1.784 4-4 4H5c-2.216 0-4-1.784-4-4z" opacity=".02"/>
  <path d="M1 43.25v.25c0 2.216 1.784 4 4 4h38c2.216 0 4-1.784 4-4v-.25c0 2.216-1.784 4-4 4H5c-2.216 0-4-1.784-4-4z" opacity=".05"/>
  <path d="M1 43v.25c0 2.216 1.784 4 4 4h38c2.216 0 4-1.784 4-4V43c0 2.216-1.784 4-4 4H5c-2.216 0-4-1.784-4-4z" opacity=".1"/>
  <rect transform="rotate(-90)" x="-47" y="1" width="46" height="46" rx="4" fill="url(#a)"/>
  <path d="M1 39v4c0 2.216 1.784 4 4 4h38c2.216 0 4-1.784 4-4v-4c0 2.216-1.784 4-4 4H5c-2.216 0-4-1.784-4-4z" opacity=".1"/>
  <path d="M26.307 14.04c-.455.078-.961.277-1.52.566-1.116.578-2.448 1.596-3.885 3.17-.295.324-.419.607-.578.729s-.368.219-1.07.012c-1.456-.428-3.115.198-4.096 1.111-.491.457-.857 1.044-.742 1.701s.708 1.156 1.635 1.445l.014.004.016.004c.631.156.945.365 1 .436.029.035.009.011 0-.006 0-.016.006.002-.037.055-.171.213-1.051.645-1.949.732-1.575.153-3.165.531-4.34 1.094-.587.281-1.076.604-1.408 1.025s-.474 1.013-.252 1.541c.178.424.563.709.971.824.408.116.849.104 1.313.031.928-.146 1.961-.559 2.885-1.057l-.008.006c3.583-1.846 7.358-.861 11.297-.232h.002c5.941.942 7.496 3.14 10.143 5.914.383.402.736.664 1.111.789.376.125.785.072 1.082-.113.593-.371.812-1.035.994-1.65.258-.871.008-1.74-.486-2.486-.495-.746-1.23-1.412-2.057-2.025-1.653-1.226-3.691-2.236-4.918-2.898-.574-.311-.815-.67-.836-1-.021-.333.169-.777.828-1.275.548-.416.855-.91.873-1.414s-.255-.933-.607-1.197c-.352-.265-.794-.403-1.25-.359s-.932.309-1.199.787h-.002c-.175.315-.377.552-.527.615-.15.064-.344.09-.838-.303-.634-.502-1.848-.876-3.908-.559-.174.027-.262.017-.391.021.19-.178.443-.389.877-.676 1.671-1.101 2.704-2.106 3.238-2.973.267-.433.418-.837.412-1.24s-.238-.805-.59-.994-.754-.231-1.209-.152zm.744 1.018c.069.037.07.023.072.145.002.121-.063.377-.268.709-.41.664-1.347 1.616-2.941 2.666h-.002c-.537.354-.913.649-1.176.92s-.493.539-.406.961a.754.754 0 0 0 .35.473c.149.086.291.119.439.139.296.039.624.016 1-.043 1.883-.29 2.823.101 3.147.357.65.516 1.316.657 1.834.438.517-.219.792-.665 1-1.041.116-.207.251-.269.436-.287s.413.049.566.164.218.241.213.377-.085.365-.482.666c-.818.619-1.265 1.364-1.217 2.121.048.758.583 1.39 1.35 1.805 1.259.68 3.253 1.674 4.801 2.822.774.574 1.43 1.187 1.822 1.779.393.592.525 1.118.363 1.664-.16.541-.42 1-.572 1.096-.076.047-.105.064-.25.016s-.394-.204-.711-.537c-2.604-2.729-4.544-5.228-10.699-6.205h-.002c-3.872-.618-7.947-1.71-11.903.328l-.004.002-.004.002c-.85.458-1.82.831-2.57.949-.375.059-.693.051-.893-.006s-.273-.117-.332-.258c-.087-.208-.064-.321.117-.551.181-.23.556-.505 1.063-.748 1.013-.485 2.531-.859 4.01-1 1.085-.106 2.085-.431 2.619-1.094a1.09 1.09 0 0 0 .254-.617 1.009 1.009 0 0 0-.238-.68c-.311-.372-.795-.58-1.523-.76l.029.008c-.748-.234-.929-.5-.959-.674-.03-.173.088-.484.443-.814.71-.661 2.183-1.169 3.147-.887.873.258 1.53.145 1.947-.174s.584-.71.709-.848c1.374-1.504 2.631-2.453 3.609-2.959.979-.507 1.672-.496 1.811-.422z" style="isolation:auto;mix-blend-mode:normal" color="#000" opacity=".1" white-space="normal"/>
  <path d="M26.307 13.04c-.455.078-.961.277-1.52.566-1.116.578-2.448 1.596-3.885 3.17-.295.324-.419.607-.578.729s-.368.219-1.07.012c-1.456-.428-3.115.198-4.096 1.111-.491.457-.857 1.044-.742 1.701s.708 1.156 1.635 1.445l.014.004.016.004c.631.156.945.365 1 .436.029.035.009.011 0-.006 0-.016.006.002-.037.055-.171.213-1.051.645-1.949.732-1.575.153-3.165.531-4.34 1.094-.587.281-1.076.604-1.408 1.025s-.474 1.013-.252 1.541c.178.424.563.709.971.824.408.116.849.104 1.313.031.928-.146 1.961-.559 2.885-1.057l-.008.006c3.583-1.846 7.358-.861 11.297-.232h.002c5.941.942 7.496 3.14 10.143 5.914.383.402.736.664 1.111.789.376.125.785.072 1.082-.113.593-.371.812-1.035.994-1.65.258-.871.008-1.74-.486-2.486-.495-.746-1.23-1.412-2.057-2.025-1.653-1.226-3.691-2.236-4.918-2.898-.574-.311-.815-.67-.836-1-.021-.333.169-.777.828-1.275.548-.416.855-.91.873-1.414s-.255-.933-.607-1.197c-.352-.265-.794-.403-1.25-.359s-.932.309-1.199.787h-.002c-.175.315-.377.552-.527.615-.15.064-.344.09-.838-.303-.634-.502-1.848-.876-3.908-.559-.174.027-.262.017-.391.021.19-.178.443-.389.877-.676 1.671-1.101 2.704-2.106 3.238-2.973.267-.433.418-.837.412-1.24s-.238-.805-.59-.994-.754-.231-1.209-.152zm.744 1.018c.069.037.07.023.072.145.002.121-.063.377-.268.709-.41.664-1.347 1.616-2.941 2.666h-.002c-.537.354-.913.649-1.176.92s-.493.539-.406.961a.754.754 0 0 0 .35.473c.149.086.291.119.439.139.296.039.624.016 1-.043 1.883-.29 2.823.101 3.147.357.65.516 1.316.657 1.834.438.517-.219.792-.665 1-1.041.116-.207.251-.269.436-.287s.413.049.566.164.218.241.213.377-.085.365-.482.666c-.818.619-1.265 1.364-1.217 2.121.048.758.583 1.39 1.35 1.805 1.259.68 3.253 1.674 4.801 2.822.774.574 1.43 1.187 1.822 1.779.393.592.525 1.118.363 1.664-.16.541-.42 1-.572 1.096-.076.047-.105.064-.25.016s-.394-.204-.711-.537c-2.604-2.729-4.544-5.228-10.699-6.205h-.002c-3.872-.618-7.947-1.71-11.903.328l-.004.002-.004.002c-.85.458-1.82.831-2.57.949-.375.059-.693.051-.893-.006s-.273-.117-.332-.258c-.087-.208-.064-.321.117-.551s.556-.505 1.063-.748c1.013-.485 2.531-.859 4.01-1 1.085-.106 2.085-.431 2.619-1.094a1.09 1.09 0 0 0 .254-.617 1.009 1.009 0 0 0-.238-.68c-.311-.372-.795-.58-1.523-.76l.029.008c-.748-.234-.929-.5-.959-.674-.03-.173.088-.484.443-.814.71-.661 2.183-1.169 3.147-.887.873.258 1.53.145 1.947-.174s.584-.71.709-.848c1.374-1.504 2.631-2.453 3.609-2.959.979-.507 1.672-.496 1.811-.422z" style="isolation:auto;mix-blend-mode:normal" color="#000" fill="#1488ff" white-space="normal"/>
</svg>
