<svg version="1.1" viewBox="0 0 48 48" xmlns="http://www.w3.org/2000/svg">
 <defs>
  <linearGradient id="bg" x2="0" y1="1" y2="47" gradientUnits="userSpaceOnUse">
   <stop style="stop-color:#eee" offset="0"/>
   <stop style="stop-color:#e4e4e4" offset="1"/>
  </linearGradient>
 </defs>
 <path d="m1 43v0.25c0 2.216 1.784 4 4 4h38c2.216 0 4-1.784 4-4v-0.25c0 2.216-1.784 4-4 4h-38c-2.216 0-4-1.784-4-4zm0 0.5v0.5c0 2.216 1.784 4 4 4h38c2.216 0 4-1.784 4-4v-0.5c0 2.216-1.784 4-4 4h-38c-2.216 0-4-1.784-4-4z" style="opacity:.02"/>
 <path d="m1 43.25v0.25c0 2.216 1.784 4 4 4h38c2.216 0 4-1.784 4-4v-0.25c0 2.216-1.784 4-4 4h-38c-2.216 0-4-1.784-4-4z" style="opacity:.05"/>
 <path d="m1 43v0.25c0 2.216 1.784 4 4 4h38c2.216 0 4-1.784 4-4v-0.25c0 2.216-1.784 4-4 4h-38c-2.216 0-4-1.784-4-4z" style="opacity:.1"/>
 <rect x="1" y="1" width="46" height="46" rx="4" style="fill:url(#bg)"/>
 <path d="m1 39v4c0 2.216 1.784 4 4 4h38c2.216 0 4-1.784 4-4v-4c0 2.216-1.784 4-4 4h-38c-2.216 0-4-1.784-4-4z" style="opacity:.1"/>
 <path d="m14 12c-1.108 0-2 0.892-2 2v19c0 1.662 1.338 3 3 3h3v-22c0-1.108-0.892-2-2-2zm8 0c-1 0-2 0.892-2 2v2c0 1.108 0.892 2 2 2h11c1.662 0 3-1.338 3-3v-3zm-0.98047 7.998c-0.55987-0.01088-1.0196 0.44002-1.0195 1v8c-5.38e-4 0.76811 0.8291 1.2501 1.4961 0.86914l7-4c0.67378-0.38356 0.67378-1.3547 0-1.7383-2.6676-1.5637-4.7182-2.5885-7.4766-4.1309z" style="opacity:.1;paint-order:stroke fill markers"/>
 <path d="m14 11c-1.108 0-2 0.892-2 2v19c0 1.662 1.338 3 3 3h3v-22c0-1.108-0.892-2-2-2zm8 0c-1 0-2 0.892-2 2v2c0 1.108 0.892 2 2 2h11c1.662 0 3-1.338 3-3v-3z" style="fill:#fe3232;paint-order:stroke fill markers"/>
 <path d="m21.02 18.998c-0.55987-0.01088-1.0196 0.44002-1.0195 1v8c-5.38e-4 0.76811 0.8291 1.2501 1.4961 0.86914l7-4c0.67378-0.38355 0.67378-1.3547 0-1.7383-3.2788-1.7794-4.5025-2.3728-7.4766-4.1309z" style="fill:#29aae0"/>
</svg>
