<svg version="1.1" viewBox="0 0 48 48" xmlns="http://www.w3.org/2000/svg">
 <defs>
  <linearGradient id="bg" x2="0" y1="1" y2="47" gradientUnits="userSpaceOnUse">
   <stop style="stop-color:#eee" offset="0"/>
   <stop style="stop-color:#e4e4e4" offset="1"/>
  </linearGradient>
 </defs>
 <path d="m1 43v0.25c0 2.216 1.784 4 4 4h38c2.216 0 4-1.784 4-4v-0.25c0 2.216-1.784 4-4 4h-38c-2.216 0-4-1.784-4-4zm0 0.5v0.5c0 2.216 1.784 4 4 4h38c2.216 0 4-1.784 4-4v-0.5c0 2.216-1.784 4-4 4h-38c-2.216 0-4-1.784-4-4z" style="opacity:.02"/>
 <path d="m1 43.25v0.25c0 2.216 1.784 4 4 4h38c2.216 0 4-1.784 4-4v-0.25c0 2.216-1.784 4-4 4h-38c-2.216 0-4-1.784-4-4z" style="opacity:.05"/>
 <path d="m1 43v0.25c0 2.216 1.784 4 4 4h38c2.216 0 4-1.784 4-4v-0.25c0 2.216-1.784 4-4 4h-38c-2.216 0-4-1.784-4-4z" style="opacity:.1"/>
 <rect x="1" y="1" width="46" height="46" rx="4" style="fill:url(#bg)"/>
 <path d="m1 39v4c0 2.216 1.784 4 4 4h38c2.216 0 4-1.784 4-4v-4c0 2.216-1.784 4-4 4h-38c-2.216 0-4-1.784-4-4z" style="opacity:.1"/>
 <path d="m14 12c-1.108 0-2 0.892-2 2v2 17c0 1.662 1.338 3 3 3h3v-3-2-16-1c0-1.108-0.892-2-2-2h-2zm8 0c-1 0-2 0.892-2 2v2c0 1.108 0.892 2 2 2h2 9c1.662 0 3-1.338 3-3v-3h-3-2-7-2zm-0.98047 7.998c-0.55987-0.01088-1.0196 0.44002-1.0195 1v8c-5.38e-4 0.76811 0.8291 1.2501 1.4961 0.86914l7-4c0.67378-0.38356 0.67378-1.3547 0-1.7383l-7-4c-0.14541-0.0828-0.30926-0.12779-0.47656-0.13086z" style="opacity:.1;paint-order:stroke fill markers"/>
 <path d="m14 11c-1.108 0-2 0.892-2 2v19c0 1.662 1.338 3 3 3h3v-22c0-1.108-0.892-2-2-2zm8 0c-1 0-2 0.892-2 2v2c0 1.108 0.892 2 2 2h11c1.662 0 3-1.338 3-3v-3h-12z" style="fill:#fe3232;paint-order:stroke fill markers"/>
 <path d="m21.02 18.998c-0.55987-0.01088-1.0196 0.44002-1.0195 1v8c-5.38e-4 0.76811 0.8291 1.2501 1.4961 0.86914l7-4c0.67378-0.38355 0.67378-1.3547 0-1.7383l-7-4c-0.14541-0.0828-0.30926-0.12779-0.47656-0.13086z" style="color-rendering:auto;color:#000000;dominant-baseline:auto;fill:#29aae0;font-feature-settings:normal;font-variant-alternates:normal;font-variant-caps:normal;font-variant-ligatures:normal;font-variant-numeric:normal;font-variant-position:normal;image-rendering:auto;isolation:auto;mix-blend-mode:normal;shape-padding:0;shape-rendering:auto;solid-color:#000000;text-decoration-color:#000000;text-decoration-line:none;text-decoration-style:solid;text-indent:0;text-orientation:mixed;text-transform:none;white-space:normal"/>
</svg>
