<svg version="1.1" viewBox="0 0 48 48" xmlns="http://www.w3.org/2000/svg">
 <defs>
  <linearGradient id="bg" x1="-47" x2="-1" y1="2.8779e-15" y2="6.1232e-17" gradientUnits="userSpaceOnUse">
   <stop style="stop-color:#8dbbeb" offset="0"/>
   <stop style="stop-color:#9ec5ee" offset="1"/>
  </linearGradient>
 </defs>
 <g transform="translate(0 3.949e-5)">
  <path d="m1 43v0.25c0 2.216 1.784 4 4 4h38c2.216 0 4-1.784 4-4v-0.25c0 2.216-1.784 4-4 4h-38c-2.216 0-4-1.784-4-4zm0 0.5v0.5c0 2.216 1.784 4 4 4h38c2.216 0 4-1.784 4-4v-0.5c0 2.216-1.784 4-4 4h-38c-2.216 0-4-1.784-4-4z" style="opacity:.02"/>
  <path d="m1 43.25v0.25c0 2.216 1.784 4 4 4h38c2.216 0 4-1.784 4-4v-0.25c0 2.216-1.784 4-4 4h-38c-2.216 0-4-1.784-4-4z" style="opacity:.05"/>
  <path d="m1 43v0.25c0 2.216 1.784 4 4 4h38c2.216 0 4-1.784 4-4v-0.25c0 2.216-1.784 4-4 4h-38c-2.216 0-4-1.784-4-4z" style="opacity:.1"/>
 </g>
 <rect transform="rotate(-90)" x="-47" y="1" width="46" height="46" rx="4" style="fill:url(#bg)"/>
 <g transform="translate(0 3.949e-5)">
  <g transform="translate(0 -1004.4)">
   <path d="m1 1043.4v4c0 2.216 1.784 4 4 4h38c2.216 0 4-1.784 4-4v-4c0 2.216-1.784 4-4 4h-38c-2.216 0-4-1.784-4-4z" style="opacity:.1"/>
  </g>
 </g>
 <path d="m12.001 17.001v14l12 7.0002 12-7.0002v-14z" style="opacity:.1"/>
 <path d="m12 16.003 12.001 20.997 11.999-20.997-11.999-7.0033" style="fill:#49883a"/>
 <path d="m24.001 26.5 5.9998-4.5002 5.9998-2.5002v10.5l-12 7.0004-1.0006-5.25z" style="fill:#654634"/>
 <path d="m24.001 26.5 12-7.0004v-3.4997l-12 6.9994-1.0006 1.7503z" style="fill:#427934"/>
 <path d="m12 19.5v10.5l12 7.0004v-10.5l-5.9998-4.5002z" style="fill:#8f6447"/>
 <path d="m12 16.003v3.4997l12 7.0033 9.78e-4 -3.5036z" style="fill:#59a849"/>
</svg>
