<svg version="1.1" viewBox="0 0 48 48" xmlns="http://www.w3.org/2000/svg">
 <defs>
  <linearGradient id="lG4501" x1="-47" x2="-1" gradientUnits="userSpaceOnUse">
   <stop style="stop-color:#e4e4e4" offset="0"/>
   <stop style="stop-color:#eee" offset="1"/>
  </linearGradient>
 </defs>
 <path d="m1 43v0.25c0 2.22 1.78 4 4 4h38c2.22 0 4-1.78 4-4v-0.25c0 2.22-1.78 4-4 4h-38c-2.22 0-4-1.78-4-4zm0 0.5v0.5c0 2.22 1.78 4 4 4h38c2.22 0 4-1.78 4-4v-0.5c0 2.22-1.78 4-4 4h-38c-2.22 0-4-1.78-4-4z" style="opacity:.02"/>
 <path d="m1 43.3v0.25c0 2.22 1.78 4 4 4h38c2.22 0 4-1.78 4-4v-0.25c0 2.22-1.78 4-4 4h-38c-2.22 0-4-1.78-4-4z" style="opacity:.05"/>
 <path d="m1 43v0.25c0 2.22 1.78 4 4 4h38c2.22 0 4-1.78 4-4v-0.25c0 2.22-1.78 4-4 4h-38c-2.22 0-4-1.78-4-4z" style="opacity:.1"/>
 <rect transform="rotate(-90)" x="-47" y="1" width="46" height="46" rx="4" style="fill:url(#lG4501)"/>
 <path d="m1 39v4c0 2.22 1.78 4 4 4h38c2.22 0 4-1.78 4-4v-4c0 2.22-1.78 4-4 4h-38c-2.22 0-4-1.78-4-4z" style="opacity:.1"/>
 <path d="m12 13v20h4v-8h3v-3h-3v-4h7v-5zm11.4 7.23-3.42-1.28-1.45 2.15c-0.062 0.092-0.0233 0.199 0.0547 0.277l2.4 2.41-0.217 1.1-3.16 1.28c-0.103 0.042-0.179 0.125-0.158 0.234l0.496 2.55c0.021 0.109 0.123 0.158 0.234 0.158h3.4c0.182 0.327 0.389 0.64 0.621 0.934l-1.33 3.14c-0.043 0.102-0.0393 0.215 0.0527 0.277l2.16 1.45c0.092 0.062 0.199 0.0233 0.277-0.0547l2.41-2.4c0.36 0.102 0.728 0.174 1.1 0.217l1.28 3.16c0.042 0.103 0.125 0.179 0.234 0.158l2.55-0.496c0.109-0.021 0.158-0.123 0.158-0.234v-3.4c0.328-0.182 0.641-0.389 0.936-0.621l3.14 1.33c0.102 0.043 0.217 0.0373 0.279-0.0547l1.45-2.15c0.062-0.092 0.0233-0.199-0.0547-0.277l-2.4-2.41c0.102-0.36 0.174-0.728 0.217-1.1l3.16-1.28c0.103-0.042 0.177-0.125 0.156-0.234l-0.494-2.55-3.64-0.156-0.621-0.936 1.33-3.14c0.043-0.102 0.0373-0.217-0.0547-0.279l-2.15-1.45-2.68 2.46zm4.13 2.51c1.5-0.0914 2.84 0.945 3.13 2.42 0.316 1.63-0.745 3.2-2.37 3.52-1.63 0.316-3.2-0.746-3.52-2.37-0.315-1.63 0.746-3.2 2.37-3.52 0.129-0.0255 0.259-0.0424 0.391-0.0508z" style="opacity:.1"/>
 <path d="m12 12v20h4v-8h3v-3h-3v-4h7v-5z" style="fill:#cd5c2a"/>
 <path d="m24.5 15c-0.109 0.021-0.158 0.123-0.158 0.234v3.4a7 7 0 0 0-0.934 0.621l-3.14-1.33c-0.102-0.043-0.216-0.038-0.278 0.054l-1.45 2.16c-0.062 0.092-0.024 0.2 0.054 0.278l2.4 2.41a7 7 0 0 0-0.216 1.1l-3.16 1.28c-0.103 0.042-0.179 0.125-0.158 0.234l0.496 2.55c0.021 0.109 0.123 0.158 0.234 0.158h3.4a7 7 0 0 0 0.621 0.934l-1.33 3.14c-0.043 0.102-0.038 0.216 0.054 0.278l2.16 1.45c0.092 0.062 0.2 0.024 0.278-0.054l2.41-2.4a7 7 0 0 0 1.1 0.216l1.28 3.16c0.042 0.103 0.125 0.179 0.234 0.158l2.55-0.496c0.109-0.021 0.158-0.123 0.158-0.234v-3.4a7 7 0 0 0 0.934-0.621l3.14 1.33c0.102 0.043 0.216 0.038 0.278-0.054l1.45-2.16c0.062-0.092 0.024-0.2-0.054-0.278l-2.4-2.41a7 7 0 0 0 0.216-1.1l3.16-1.28c0.103-0.042 0.179-0.125 0.158-0.234l-0.496-2.55c-0.021-0.109-0.123-0.158-0.234-0.158h-3.4a7 7 0 0 0-0.621-0.934l1.33-3.14c0.043-0.102 0.038-0.216-0.054-0.278l-2.16-1.45c-0.092-0.062-0.2-0.024-0.278 0.054l-2.41 2.4a7 7 0 0 0-1.1-0.216l-1.28-3.16c-0.042-0.103-0.125-0.179-0.234-0.158zm2.65 6.82a3 3 0 0 1 3.52 2.37 3 3 0 0 1-2.37 3.52 3 3 0 0 1-3.52-2.37 3 3 0 0 1 2.37-3.52z" style="fill:#3b6dbb"/>
</svg>
