<svg xmlns="http://www.w3.org/2000/svg" version="1.1" viewBox="0 0 48 48">
 <defs>
  <linearGradient id="bg" x2="0" y1="1" y2="47" gradientUnits="userSpaceOnUse">
   <stop style="stop-color:#87b0df" offset="0"/>
   <stop style="stop-color:#77a6db" offset="1"/>
  </linearGradient>
 </defs>
 <path style="opacity:.02" d="m1 43v0.25c0 2.216 1.784 4 4 4h38c2.216 0 4-1.784 4-4v-0.25c0 2.216-1.784 4-4 4h-38c-2.216 0-4-1.784-4-4zm0 0.5v0.5c0 2.216 1.784 4 4 4h38c2.216 0 4-1.784 4-4v-0.5c0 2.216-1.784 4-4 4h-38c-2.216 0-4-1.784-4-4z"/>
 <path style="opacity:.05" d="m1 43.25v0.25c0 2.216 1.784 4 4 4h38c2.216 0 4-1.784 4-4v-0.25c0 2.216-1.784 4-4 4h-38c-2.216 0-4-1.784-4-4z"/>
 <path style="opacity:.1" d="m1 43v0.25c0 2.216 1.784 4 4 4h38c2.216 0 4-1.784 4-4v-0.25c0 2.216-1.784 4-4 4h-38c-2.216 0-4-1.784-4-4z"/>
 <rect style="fill:url(#bg)" rx="4" height="46" width="46" y="1" x="1"/>
 <path style="opacity:.1" d="m1 39v4c0 2.216 1.784 4 4 4h38c2.216 0 4-1.784 4-4v-4c0 2.216-1.784 4-4 4h-38c-2.216 0-4-1.784-4-4z"/>
 <path style="opacity:.1;color-rendering:auto;color:#000000;isolation:auto;mix-blend-mode:normal;shape-rendering:auto;solid-color:#000000;image-rendering:auto;white-space:normal" d="m27.496 11.003c-0.97-0.04-1.961 0.066-2.947 0.334h-0.002c-2.125 0.599 0 0-6.504 1.828-5.072 1.558-8.09 6.893-6.707 12.12 0.684 2.589 2.321 4.664 4.422 5.955l-1.521 5.76 7.928-4.391c0.424-0.057 0.849-0.133 1.273-0.248l6.221-1.689c5.26-1.426 8.398-6.925 6.986-12.256-1.144-4.329-4.943-7.236-9.148-7.408z" isolation="auto" mix-blend-mode="normal"/>
 <path style="stroke-linejoin:round;stroke:#efefe9;stroke-linecap:round;stroke-width:1.5;fill:#efefe9" d="m18.525 12.754 6.227-1.688c4.871-1.324 9.879 1.606 11.183 6.54 1.308 4.937-1.586 10.01-6.457 11.332l-6.223 1.689c-4.875 1.324-9.883-1.606-11.188-6.543-1.305-4.934 1.586-10.01 6.457-11.332"/>
 <path style="fill:#efefe9" d="m14.247 35.996 1.598-6.05 6.871 1.359m-8.469 4.688"/>
 <path style="fill:#909090" d="m26.576 10.765c-0.606 0.037-1.215 0.137-1.824 0.303l-2.197 0.596c0.073 0.112 0.066 0.227-0.121 0.342-0.797 0.656 0.383 2.242 1.051 0.742 1.221-0.318 2.386-1.128 3.092-1.982zm-1.041 0.777c0.006-0.017 0.03-0.021 0.086 0.006 0.041 0.211-0.104 0.045-0.086-0.006zm5.129 0.271v0.006c-0.82 0.105-2.191 0.996-2 1.742 0.773 0.121 0.73 0.516 0.18 0.414-0.086 0.984-1.906 1.063-1.602 1.91-1.789 0.488 0.125 2.328 0.668 0.648 0.594-1.258 2.316 0.346 1.805 0.521 1.293-0.203-1.105-1.766 0.266-0.922 0.441 0.762 1.152 1.535 1.023 0.414 0.77 0.051 0.563-1.477 1.563-0.648 0.272 0.012 0.571 0.138 0.852 0.258-0.54-0.011-0.953 0.542-1.951 0.334-0.875 1.195 2 0.184 0.918 1.715 0.734 0.789 1.256 4.129 2.939 2.383 1.313-0.316 0.61-2.035-0.354-1.371-1.085-1.325 0.163-0.424 1.227-0.088-0.048-0.507-0.127-1.015-0.262-1.523-0.271-1.027-0.712-1.96-1.27-2.793-0.084 0.018-0.15 0.053-0.195 0.105 0.04-0.072 0.083-0.147 0.119-0.215-0.784-1.134-1.796-2.071-2.961-2.742-0.33-0.033-0.656-0.078-0.965-0.148zm-9.648 0.266-0.918 0.25c0.003 0.004 0.007 0.006 0.01 0.01-1.184 0.371-0.293 0.57 0.391 0.902-0.494-0.726 1.184-0.5 0.518-1.162zm-0.717 0.348c0.309 0.109-0.297 0.109 0 0zm5.162 0.057c-0.43 0.996 1.977-0.277 0.23 0.082l-0.125-0.016zm5.229 0.117c-1.278 0.981 1.462 0.797-0.17 1.059 0.656 0.598-2.242 1.059-0.535 0.102-0.051-0.495 0.105-1.155 0.705-1.16zm-12 0.109-0.162 0.045-0.002-0.002c-0.316 0.086-0.623 0.188-0.922 0.305 0.38-0.111 0.816-0.204 1.086-0.348zm10.52 0.082c-0.109 0.344-0.184-0.047 0 0zm-2.105 0.297c-0.055 0.293 0.219-0.023 0 0zm-7.654 0.014c-0.861-0.19-1.459 2.79-2.094 0.979-0.505-0.412-0.467-0.648-0.221-0.814-2.443 1.116-4.22 3.238-4.973 5.734 0.333 0.749 0.84 1.944 1.725 1.768 0.93 0.105 2.75 2.336 1.629 0.582 0.371-0.809-1.242-0.563-0.367-1.539-1.508 1.402-1.973-1.328-0.27-1.422 0.781-0.496 0.996 0.191 1.426 0.676 0.262-1.477 1.633-2.859 3.102-3.129 0.766-0.133 0.289-0.374-0.018-0.58-0.053 0.051-0.052-0.011-0.033-0.025-0.234-0.163-0.324-0.299 0.496-0.332 1.227-0.746-0.141 1.105 1.125 0.379-0.285-0.617-0.234-2.041-1.141-1.979-0.135-0.18-0.264-0.27-0.387-0.297zm8.06 0.458c-0.392 0.105-0.386 0.46-0.305 0.801 0.066 0.278 0.183 0.555 0.176 0.613 1.09-0.078 0.164-0.895 0.129-1.414zm-0.305 0.801c-0.012-0.07-0.103-0.139-0.32-0.191-1.047 0.834 0.373 0.496 0.32 0.191zm-11.445 0.074c0.105 0.699-0.398-0.035 0 0zm18.645 0.592c-0.281 0.76 1.283 3.057-0.17 1.555-0.117-0.112-0.219-0.185-0.318-0.25 0.285 0.049 0.426-0.099 0.215-0.84 0.107-0.168 0.186-0.314 0.273-0.465zm-17.676 0.209c0.113 0.637-1.508 0.102 0 0zm15.805 0.299c0.056-0.009 0.127-0.01 0.219 0-0.215 0.493-0.612 0.063-0.219 0zm-15.811 0.146c-0.512 1.203-1.063 0.324 0 0zm0.324 0.063c0.398 0.488-0.863 0.086 0 0zm0.668 0.27c-0.52 0.328-0.57-0.094 0 0zm11.271 0.156c-0.375 0.602 0.223 1 0 0zm-11.711 0.035c-0.73 0.344-0.617 0.063 0 0zm17.643 0.186c0.402 0.367-0.391-0.023 0 0zm-10.985 0.518c-0.002 0.002 0.01 0.005 0.043 0.012 0.076-0.003-0.038-0.016-0.043-0.012zm6.596 0.01c-0.026 0.026 0.051 0.184 0.066 0.035-0.038-0.037-0.058-0.044-0.066-0.035zm-6.189 0.08c-0.04-0.004-0.08 0.004 0 0.035 0.08-0.015 0.04-0.031 0-0.035zm4.607 0.139-0.004 0.004c-1.965-0.148-3.637 1.402-3.711 3.41-0.332 2.02 2.113 2.082 3.418 1.988 1.012 1.473 0.754 3.335 1.012 5.04 0.036 0.525 0.226 0.895 0.48 1.143 0.887-0.315 1.701-0.755 2.424-1.301 0.518-1.121 1.114-2.116 0.92-3.568 0.73-0.609 2.523-2.742 0.496-2.367-1.164-1.066-1.477-4.555-3.621-3.203-0.867-0.277-1.078-0.676-1.414-1.145zm1.985 0.241c0.152 0.336 0.68-0.082 0 0zm1.447 0.025c-0.75 0 0.191 0.281 0 0zm-6.979 0.447c-0.024 0.006-0.041 0.023 0.018 0.033 0.037-0.033 0.006-0.039-0.018-0.033zm0.334 0.685c-0.012 0.014-0.019 0.047-0.01 0.105 0.135-0.032 0.047-0.148 0.01-0.105zm-0.268 0.021c-0.059-0.009-0.141 0.014-0.07 0.096 0.164-0.045 0.129-0.086 0.07-0.096zm0.082 0.077c-0.029-0.009-0.058 0.002-0.004 0.063 0.061-0.023 0.033-0.053 0.004-0.063zm-8.821 0.231c-0.028 0.005-0.048 0.02-0.039 0.055 0.284 0.017 0.123-0.069 0.039-0.055zm0.225 0.234c0.02 0.215 0.102-0.012 0 0zm-0.232 0.035c-0.156 0.16 0.18 0.141 0 0zm-0.828 0.344c-0.225 0.032-0.124 0.117 0.07 0.207 0.026-0.003 0.058 0.006 0.061 0.021 0.525 0.222 1.601 0.436 0.314-0.15l-0.254-0.078zm1.352 0.061c-0.01 0.01-0.021 0.037-0.033 0.092 0.079 0.006 0.064-0.121 0.033-0.092zm-0.089 0.479c-0.457 0.75 1.5-0.008 0 0zm1.127 0.213c-0.095-0.008-0.354 0.171 0.012 0.086 0.034-0.061 0.02-0.083-0.012-0.086zm-1.527 0.021c-0.038-0.012-0.107-0.009-0.217 0.027 0.167 0.178 0.331 0.008 0.217-0.027zm2.16 0.298c-0.009-0.001-0.017 0.008-0.018 0.037 0.082 0.061 0.044-0.034 0.018-0.037zm16.447 0.645c-0.019 0.008-0.018 0.024 0.029 0.057 0.266-0.015 0.027-0.079-0.029-0.057zm-18.16 0.09c-1.383 0.363-0.629 1.424-1.352 2.357 0.145 1.965 2.543 3.191 1.844 5.504 0.185 0.567 0.321 0.96 0.461 1.367 0.419 0.134 0.849 0.239 1.287 0.311 0.101-0.489 0.237-1 0.479-1.414-0.25-0.277 1.035-0.891 0.918-1.703 1.617-0.82 2.371-4.219-0.195-4.195-0.905-1.176-2.207-1.904-3.442-2.227zm-1.969 0.051c0.015 0.002 0.034 0.029 0.057 0.102-0.106 0.114-0.102-0.107-0.057-0.102zm3.244 0.113c-0.037 0.008-0.076 0.031-0.01 0.043 0.08-0.045 0.046-0.051 0.01-0.043zm0.359 0.086c-0.024 0.011-0.05 0.041-0.063 0.104 0.211 0.003 0.136-0.138 0.063-0.104zm-1.591 0.071c0.016-0.005 0.031 0.026 0.039 0.131-0.138 0.235-0.087-0.116-0.039-0.131zm-2.813 1.68c0.012 0.242 0.234 0.125 0 0zm17.941 0.084c0.054-0.012 0.127-0.01 0.223 0.012-0.052 0.83-0.598 0.073-0.223-0.012zm-0.438 0.754c0.418 0.84-0.031 0.652 0 0zm0.687 0.883c0.227 0.625-0.059 1.043 0 0z"/>
</svg>
