<svg version="1.1" viewBox="0 0 48 48" xmlns="http://www.w3.org/2000/svg">
 <defs>
  <linearGradient id="bg" x2="0" y1="1" y2="47" gradientUnits="userSpaceOnUse">
   <stop style="stop-color:#3dad73" offset="0"/>
   <stop style="stop-color:#389e69" offset="1"/>
  </linearGradient>
 </defs>
 <path d="m1 43v0.25c0 2.22 1.78 4 4 4h38c2.22 0 4-1.78 4-4v-0.25c0 2.22-1.78 4-4 4h-38c-2.22 0-4-1.78-4-4zm0 0.5v0.5c0 2.22 1.78 4 4 4h38c2.22 0 4-1.78 4-4v-0.5c0 2.22-1.78 4-4 4h-38c-2.22 0-4-1.78-4-4z" style="opacity:.02"/>
 <path d="m1 43.2v0.25c0 2.22 1.78 4 4 4h38c2.22 0 4-1.78 4-4v-0.25c0 2.22-1.78 4-4 4h-38c-2.22 0-4-1.78-4-4z" style="opacity:.05"/>
 <path d="m1 43v0.25c0 2.22 1.78 4 4 4h38c2.22 0 4-1.78 4-4v-0.25c0 2.22-1.78 4-4 4h-38c-2.22 0-4-1.78-4-4z" style="opacity:.1"/>
 <rect x="1" y="1" width="46" height="46" rx="4" style="fill:url(#bg)"/>
 <path d="m1 39v4c0 2.22 1.78 4 4 4h38c2.22 0 4-1.78 4-4v-4c0 2.22-1.78 4-4 4h-38c-2.22 0-4-1.78-4-4z" style="opacity:.1"/>
 <path d="m25.5 12c-1.4 9.82e-4 -2.71 0.869-3.56 2.35-0.853-0.872-1.88-1.34-2.94-1.35-2.76-0.0022-5 3.13-5 7 2.56e-4 1.08 0.18 2.14 0.523 3.11-1.63 1.4-2.52 3.12-2.52 4.89-0.0036 4.42 5.37 8 12 8s12-3.58 12-8c-0.0021-3.01-2.54-5.76-6.55-7.12 0.363-0.883 0.553-1.87 0.553-2.88 2.1e-5 -3.31-2.01-6-4.5-6z" style="opacity:.1"/>
 <path d="m25.5 11c-1.4 9.82e-4 -2.95 0.869-3.8 2.35-0.853-0.872-1.64-1.34-2.7-1.35-2.76-0.0022-5 3.13-5 7 2.56e-4 1.08 0.18 2.14 0.523 3.11-1.63 1.4-2.52 3.12-2.52 4.89-0.0036 4.42 5.37 8 12 8s12-3.58 12-8c-0.0021-3.01-2.54-5.76-6.55-7.12 0.363-0.883 0.553-1.87 0.553-2.88 2.1e-5 -3.31-2.01-6-4.5-6z" style="fill:#5e527a"/>
 <path d="m20 13.6-3.83 8.5-0.992 0.824 0.818 3.07h14l-1-5.35-0.967-0.395-5.03-6.66c-1.3 1.69-1.9 1.31-3 0z" style="fill:#52a329"/>
 <path d="m29 20.7c-1 1.74-2.52 2.35-3.5 2.35-1.5 0-2.43-0.437-3.1-1.59-0.414 2.44-2.12 3.59-3.9 3.59-1.23 0-2.33-0.961-3.09-2.27-1.2 1.11-2.41 2.65-2.41 3.93 0 0.748-0.0245 1.81 0.678 2.61l2.74-2.42 2.56 2.59 2.8-2.34 2.56 2.86 3.35-2.8 2.49 1.74 1.82-1.69 2.37 1.95c0.498-0.774 0.631-1.66 0.631-2.48 0-2.66-3.23-5.05-6-6.01zm-12.6 7.22-2.2 1.96c1.65 2.38 4.84 4.17 9.9 4.17 4.93 0 7.93-1.71 9.93-4.2l-1.92-1.65-1.82 1.7-2.52-1.76-3.48 2.91-2.56-2.86-2.77 2.32z" style="fill:#6c3"/>
 <path d="m15 18c-0.01 0.166-0.0152 0.333-0.0156 0.5 0 3.04 1.57 5.5 3.5 5.5 2.25 0 3.5-2 3.5-4.63 0.653 1.62 1.49 2.63 3.25 2.63 1.78-0.0014 3.31-1.67 3.67-4-4.82-1.05-9.9-1.06-13.9 0z" style="fill:#f9f9f9"/>
 <path d="m26 19.8c0 0.691-0.447 1.25-1 1.25s-1-0.557-1-1.25c0-0.691 0.447-1.25 1-1.25s1 0.56 1 1.25" style="fill:#705ba1"/>
 <path d="m21 20.2c0 0.691-0.447 1.25-1 1.25s-1-0.56-1-1.25c0-0.691 0.447-1.25 1-1.25s1 0.557 1 1.25" style="fill:#705ba1"/>
 <path d="m25.2 12a3.75 5 0 0 0-3.66 3.93 3.5 5.5 0 0 0-3.09-2.93 3.5 5.5 0 0 0-3.48 5h13.9a3.75 5 0 0 0 0.0801-1 3.75 5 0 0 0-3.75-5z" style="fill:#6c3"/>
</svg>
