<svg viewBox="0 0 48 48">
  <defs>
    <linearGradient id="a" x1="1" x2="47" gradientUnits="userSpaceOnUse" gradientTransform="translate(-48 .002)">
      <stop stop-color="#2d7fcb"/>
      <stop offset="1" stop-color="#3a88d3"/>
    </linearGradient>
    <clipPath id="b"/>
    <clipPath id="c"/>
  </defs>
  <path d="M1 43v.25c0 2.216 1.784 4 4 4h38c2.216 0 4-1.784 4-4V43c0 2.216-1.784 4-4 4H5c-2.216 0-4-1.784-4-4zm0 .5v.5c0 2.216 1.784 4 4 4h38c2.216 0 4-1.784 4-4v-.5c0 2.216-1.784 4-4 4H5c-2.216 0-4-1.784-4-4z" opacity=".02"/>
  <path d="M1 43.25v.25c0 2.216 1.784 4 4 4h38c2.216 0 4-1.784 4-4v-.25c0 2.216-1.784 4-4 4H5c-2.216 0-4-1.784-4-4z" opacity=".05"/>
  <path d="M1 43v.25c0 2.216 1.784 4 4 4h38c2.216 0 4-1.784 4-4V43c0 2.216-1.784 4-4 4H5c-2.216 0-4-1.784-4-4z" opacity=".1"/>
  <rect width="46" height="46" x="-47" y="1" rx="4" transform="rotate(-90)" fill="url(#a)"/>
  <g clip-path="url(#b)">
    <path d="M18.13 15c-.363.039-.652.43-.414.887 1.035 2.168 1.648 3.707 2.727 6.086.195-.453.316-.77.598-1.449-1.102-2.266-1.266-3.219-2.293-5.145-.145-.289-.395-.402-.602-.379m11.887.078c-.227-.008-.473.137-.621.492-1.352 3.133-3.848 9.484-4.961 12.04-.633 1.328.5 1.863.941 1.129 1.434-3.07 3.594-8.961 5.164-12.715.188-.5-.145-.922-.523-.941m-6.867 4.059c-.227-.012-.438.137-.598.488-1.352 3.137-3.871 9.504-4.977 12.06-.641 1.328.484 1.715.977.859 1.441-3.074 3.543-8.715 5.125-12.48.191-.484-.145-.918-.52-.938m2.27.598c-.227-.008-.449.113-.602.48-1.355 3.137-1.844 4.68-2.953 7.227-.641 1.332.438 1.793.875.809 1.438-3.066 1.637-3.813 3.203-7.566.188-.5-.148-.922-.523-.941m11.578.383c-2.207.543-3.98 1.496-5.98 2.797-.586-.477-.969-.871-1.438-1.367-.152.289-.523 1.09-.656 1.309.492.496.699.793 1.09 1.086-.473.352-.469.461-1.594 1.488.23.461.355.902.598 1.352.566-.605.949-1.094 2.148-1.898 1.633.879 3.01 1.805 5.852 2.617v-1.66c-1.352-.438-3.313-1.043-4.52-1.926.953-.691 2.227-1.379 4.52-1.93m-26-1.449v1.578c1.355.445 3.316 1.082 4.523 1.961-.941.691-2.227 1.359-4.523 1.906v1.887c2.23-.543 4-1.512 5.992-2.816.59.48.941.895 1.422 1.391.148-.293.523-1.102.668-1.328-.477-.496-.688-.77-1.086-1.063.48-.355.48-.461 1.605-1.488-.234-.461-.359-.902-.605-1.352-.563.602-.977 1.09-2.145 1.895-1.605-.875-3.066-1.766-5.855-2.563m16.523 5.18c-.191.453-.316.75-.621 1.426 1.102 2.273 1.289 3.238 2.316 5.168.438.773 1.41.23 1.031-.512-1.039-2.164-1.645-3.707-2.727-6.082m.004 0" fill-rule="evenodd" opacity=".1"/>
  </g>
  <g>
    <g clip-path="url(#c)">
      <path d="M18.13 14c-.363.039-.652.43-.414.887 1.035 2.168 1.648 3.707 2.727 6.086.195-.453.316-.77.598-1.449-1.102-2.266-1.266-3.219-2.293-5.145-.145-.289-.395-.402-.602-.379m11.887.078c-.227-.008-.473.137-.621.492-1.352 3.133-3.848 9.484-4.961 12.04-.633 1.328.5 1.863.941 1.129 1.434-3.07 3.594-8.961 5.164-12.715.188-.5-.145-.922-.523-.941m-6.867 4.059c-.227-.012-.438.137-.598.488-1.352 3.137-3.871 9.504-4.977 12.06-.641 1.328.484 1.715.977.859 1.441-3.074 3.543-8.715 5.125-12.48.191-.484-.145-.918-.52-.938m2.27.598c-.227-.008-.449.113-.602.48-1.355 3.137-1.844 4.68-2.953 7.227-.641 1.332.438 1.793.875.809 1.438-3.066 1.637-3.813 3.203-7.566.188-.5-.148-.922-.523-.941m11.578.383c-2.207.543-3.98 1.496-5.98 2.797-.586-.477-.969-.871-1.438-1.367-.152.289-.523 1.09-.656 1.309.492.496.699.793 1.09 1.086-.473.352-.469.461-1.594 1.488.23.461.355.902.598 1.352.566-.605.949-1.094 2.148-1.898 1.633.879 3.01 1.805 5.852 2.617v-1.66c-1.352-.438-3.313-1.043-4.52-1.926.953-.691 2.227-1.379 4.52-1.93m-26-1.449v1.578c1.355.445 3.316 1.082 4.523 1.961-.941.691-2.227 1.359-4.523 1.906v1.887c2.23-.543 4-1.512 5.992-2.816.59.48.941.895 1.422 1.391.148-.293.523-1.102.668-1.328-.477-.496-.688-.77-1.086-1.063.48-.355.48-.461 1.605-1.488-.234-.461-.359-.902-.605-1.352-.563.602-.977 1.09-2.145 1.895-1.605-.875-3.066-1.766-5.855-2.563m16.523 5.18c-.191.453-.316.75-.621 1.426 1.102 2.273 1.289 3.238 2.316 5.168.438.773 1.41.23 1.031-.512-1.039-2.164-1.645-3.707-2.727-6.082m.004 0" fill="#fff" fill-rule="evenodd"/>
    </g>
  </g>
  <g>
    <path d="M1 38.998v4c0 2.216 1.784 4 4 4h38c2.216 0 4-1.784 4-4v-4c0 2.216-1.784 4-4 4H5c-2.216 0-4-1.784-4-4z" opacity=".1"/>
  </g>
</svg>
