<?xml version="1.0" encoding="UTF-8" standalone="no"?>
<svg
   xmlns:dc="http://purl.org/dc/elements/1.1/"
   xmlns:cc="http://creativecommons.org/ns#"
   xmlns:rdf="http://www.w3.org/1999/02/22-rdf-syntax-ns#"
   xmlns:svg="http://www.w3.org/2000/svg"
   xmlns="http://www.w3.org/2000/svg"
   xmlns:sodipodi="http://sodipodi.sourceforge.net/DTD/sodipodi-0.dtd"
   xmlns:inkscape="http://www.inkscape.org/namespaces/inkscape"
   viewBox="0 0 48 48"
   version="1.1"
   id="svg8147"
   sodipodi:docname="frozensynapse.svg">
  <metadata
     id="metadata8151">
    <rdf:RDF>
      <cc:Work
         rdf:about="">
        <dc:format>image/svg+xml</dc:format>
        <dc:type
           rdf:resource="http://purl.org/dc/dcmitype/StillImage" />
      </cc:Work>
    </rdf:RDF>
  </metadata>
  <sodipodi:namedview
     pagecolor="#ffffff"
     bordercolor="#666666"
     borderopacity="1"
     objecttolerance="10"
     gridtolerance="10"
     guidetolerance="10"
     inkscape:pageopacity="0"
     inkscape:pageshadow="2"
     inkscape:window-width="640"
     inkscape:window-height="480"
     id="namedview8149" />
  <defs
     id="defs8099">
    <linearGradient
       id="linearGradient3764"
       x1="1"
       x2="47"
       gradientUnits="userSpaceOnUse"
       gradientTransform="translate(-48.000001,0.00221467)">
      <stop
         stop-color="#2b3039"
         stop-opacity="1"
         id="stop8084" />
      <stop
         offset="1"
         stop-color="#343a45"
         stop-opacity="1"
         id="stop8086" />
    </linearGradient>
    <clipPath
       id="clipPath-565500287">
      <g
         transform="translate(0,-1004.3622)"
         id="g8091">
        <rect
           rx="4"
           y="1005.36"
           x="1"
           height="46"
           width="46"
           fill="#1890d0"
           id="rect8089" />
      </g>
    </clipPath>
    <clipPath
       id="clipPath-578800982">
      <g
         transform="translate(0,-1004.3622)"
         id="g8096">
        <rect
           rx="4"
           y="1005.36"
           x="1"
           height="46"
           width="46"
           fill="#1890d0"
           id="rect8094" />
      </g>
    </clipPath>
  </defs>
  <g
     id="g8107">
    <path
       d="m 1 43 l 0 0.25 c 0 2.216 1.784 4 4 4 l 38 0 c 2.216 0 4 -1.784 4 -4 l 0 -0.25 c 0 2.216 -1.784 4 -4 4 l -38 0 c -2.216 0 -4 -1.784 -4 -4 z m 0 0.5 l 0 0.5 c 0 2.216 1.784 4 4 4 l 38 0 c 2.216 0 4 -1.784 4 -4 l 0 -0.5 c 0 2.216 -1.784 4 -4 4 l -38 0 c -2.216 0 -4 -1.784 -4 -4 z"
       opacity="0.02"
       id="path8101" />
    <path
       d="m 1 43.25 l 0 0.25 c 0 2.216 1.784 4 4 4 l 38 0 c 2.216 0 4 -1.784 4 -4 l 0 -0.25 c 0 2.216 -1.784 4 -4 4 l -38 0 c -2.216 0 -4 -1.784 -4 -4 z"
       opacity="0.05"
       id="path8103" />
    <path
       d="m 1 43 l 0 0.25 c 0 2.216 1.784 4 4 4 l 38 0 c 2.216 0 4 -1.784 4 -4 l 0 -0.25 c 0 2.216 -1.784 4 -4 4 l -38 0 c -2.216 0 -4 -1.784 -4 -4 z"
       opacity="0.1"
       id="path8105" />
  </g>
  <g
     id="g8111">
    <rect
       width="46"
       height="46"
       x="-47"
       y="1"
       rx="4"
       transform="matrix(0,-1,1,0,0,0)"
       fill="url(#linearGradient3764)"
       fill-opacity="1"
       id="rect8109" />
  </g>
  <g
     id="g8125">
    <g
       clip-path="url(#clipPath-565500287)"
       id="g8123">
      <g
         opacity="0.1"
         id="g8121">
        <!-- color: #343a45 -->
        <g
           id="g8119">
          <path
             d="m 24 26 l -5 5 l 5 5 l 5 -5 m -5 -5"
             stroke="none"
             fill-rule="nonzero"
             fill-opacity="1"
             fill="#000"
             id="path8113" />
          <path
             d="m 31 19 l -5 5 l 5 5 l 5 -5 m -5 -5"
             stroke="none"
             fill-rule="nonzero"
             fill-opacity="1"
             fill="#000"
             id="path8115" />
          <path
             d="m 17 19 l -5 5 l 5 5 l 5 -5 m -5 -5"
             stroke="none"
             fill-rule="nonzero"
             fill-opacity="1"
             fill="#000"
             id="path8117" />
        </g>
      </g>
    </g>
  </g>
  <g
     id="g8139">
    <g
       clip-path="url(#clipPath-578800982)"
       id="g8137">
      <g
         transform="translate(0,-1)"
         id="g8135">
        <!-- color: #343a45 -->
        <g
           id="g8133">
          <path
             d="m 24 26 l -5 5 l 5 5 l 5 -5 m -5 -5"
             fill="#7fb8d6"
             stroke="none"
             fill-rule="nonzero"
             fill-opacity="1"
             id="path8127" />
          <path
             d="m 31 19 l -5 5 l 5 5 l 5 -5 m -5 -5"
             fill="#7fb8d6"
             stroke="none"
             fill-rule="nonzero"
             fill-opacity="1"
             id="path8129" />
          <path
             d="m 17 19 l -5 5 l 5 5 l 5 -5 m -5 -5"
             fill="#7fb8d6"
             stroke="none"
             fill-rule="nonzero"
             fill-opacity="1"
             id="path8131" />
        </g>
      </g>
    </g>
  </g>
  <g
     id="g8145">
    <g
       transform="translate(0,-1004.3622)"
       id="g8143">
      <path
         d="m 1 1043.36 0 4 c 0 2.216 1.784 4 4 4 l 38 0 c 2.216 0 4 -1.784 4 -4 l 0 -4 c 0 2.216 -1.784 4 -4 4 l -38 0 c -2.216 0 -4 -1.784 -4 -4 z"
         opacity="0.1"
         id="path8141" />
    </g>
  </g>
</svg>
