<svg version="1.1" viewBox="0 0 48 48" xmlns="http://www.w3.org/2000/svg">
 <defs>
  <linearGradient id="bg" x2="0" y1="1" y2="47" gradientUnits="userSpaceOnUse">
   <stop style="stop-color:#2f6874" offset="0"/>
   <stop style="stop-color:#295b66" offset="1"/>
  </linearGradient>
 </defs>
 <path d="m1 43v0.25c0 2.22 1.78 4 4 4h38c2.22 0 4-1.78 4-4v-0.25c0 2.22-1.78 4-4 4h-38c-2.22 0-4-1.78-4-4zm0 0.5v0.5c0 2.22 1.78 4 4 4h38c2.22 0 4-1.78 4-4v-0.5c0 2.22-1.78 4-4 4h-38c-2.22 0-4-1.78-4-4z" style="opacity:.02"/>
 <path d="m1 43.2v0.25c0 2.22 1.78 4 4 4h38c2.22 0 4-1.78 4-4v-0.25c0 2.22-1.78 4-4 4h-38c-2.22 0-4-1.78-4-4z" style="opacity:.05"/>
 <path d="m1 43v0.25c0 2.22 1.78 4 4 4h38c2.22 0 4-1.78 4-4v-0.25c0 2.22-1.78 4-4 4h-38c-2.22 0-4-1.78-4-4z" style="opacity:.1"/>
 <rect x="1" y="1" width="46" height="46" rx="4" style="fill:url(#bg)"/>
 <path d="m1 39v4c0 2.22 1.78 4 4 4h38c2.22 0 4-1.78 4-4v-4c0 2.22-1.78 4-4 4h-38c-2.22 0-4-1.78-4-4z" style="opacity:.1"/>
 <path d="m13 18v12c-8.8e-4 0.352 0.183 0.679 0.484 0.861l10 6c0.318 0.191 0.713 0.191 1.03 0l10-6c0.302-0.181 0.486-0.509 0.484-0.861v-12z" style="opacity:.1"/>
 <path d="m24 11-10 6v12l10 6 10-6v-12z" style="fill:#1b80b1"/>
 <path d="m24 11-10 6v12l10 6 10-6v-12l-10-6zm1 2.76 4.66 2.8-4.66-0.465v-2.33zm-2 0.00391v2.32l-4.64 0.465 4.64-2.78zm-0.787 4.42-4.08 7.46-2.72-6.78 6.8-0.68zm3.58 0 6.8 0.68-2.72 6.78-4.08-7.46zm-1.79 0.91 4.32 7.9h-8.62l4.3-7.9zm-9 4.1 1.73 4.32-1.73 0.863v-5.18zm18 0v5.18l-1.73-0.863 1.73-4.32zm-13 5.8h8l-4 5.34-4-5.34zm-2.3 0.27 2.44 3.24-4.06-2.44 1.62-0.801zm12.6 0 1.62 0.809-4.06 2.44 2.44-3.25z" style="opacity:.1"/>
 <path d="m24 10c-0.178 0-0.358 0.049-0.516 0.145l-10 6.08c-0.27 0.17-0.442 0.458-0.464 0.778v12c-8.8e-4 0.352 0.183 0.678 0.484 0.86l10 6c0.318 0.191 0.714 0.191 1.03 0l10-6c0.302-0.181 0.486-0.508 0.484-0.86v-12c8.81e-4 -0.352-0.183-0.678-0.484-0.86l-10-6c-0.159-0.0954-0.338-0.145-0.516-0.145zm1 2.76 4.66 2.8-4.66-0.464zm-2 4e-3v2.32l-4.64 0.464zm-0.786 4.42-4.08 7.46-2.72-6.78zm3.58 0 6.8 0.68-2.72 6.78zm-1.79 0.91 4.32 7.9h-8.62zm-9 4.1 1.73 4.32-1.73 0.864zm18 0v5.18l-1.73-0.864zm-13 5.8h8l-4 5.34zm-2.3 0.27 2.44 3.24-4.06-2.44zm12.6 0 1.62 0.808-4.06 2.44z" style="fill:#f1a241"/>
</svg>
