<?xml version="1.0" encoding="UTF-8" standalone="no"?>
<svg
   xmlns:dc="http://purl.org/dc/elements/1.1/"
   xmlns:cc="http://creativecommons.org/ns#"
   xmlns:rdf="http://www.w3.org/1999/02/22-rdf-syntax-ns#"
   xmlns:svg="http://www.w3.org/2000/svg"
   xmlns="http://www.w3.org/2000/svg"
   xmlns:sodipodi="http://sodipodi.sourceforge.net/DTD/sodipodi-0.dtd"
   xmlns:inkscape="http://www.inkscape.org/namespaces/inkscape"
   viewBox="0 0 48 48"
   version="1.1"
   id="svg8238"
   sodipodi:docname="ftl.svg">
  <metadata
     id="metadata8242">
    <rdf:RDF>
      <cc:Work
         rdf:about="">
        <dc:format>image/svg+xml</dc:format>
        <dc:type
           rdf:resource="http://purl.org/dc/dcmitype/StillImage" />
      </cc:Work>
    </rdf:RDF>
  </metadata>
  <sodipodi:namedview
     pagecolor="#ffffff"
     bordercolor="#666666"
     borderopacity="1"
     objecttolerance="10"
     gridtolerance="10"
     guidetolerance="10"
     inkscape:pageopacity="0"
     inkscape:pageshadow="2"
     inkscape:window-width="640"
     inkscape:window-height="480"
     id="namedview8240" />
  <defs
     id="defs8168">
    <linearGradient
       id="linearGradient3764"
       x1="1"
       x2="47"
       gradientUnits="userSpaceOnUse"
       gradientTransform="translate(-48.000001,0.00221467)">
      <stop
         stop-color="#575757"
         stop-opacity="1"
         id="stop8153" />
      <stop
         offset="1"
         stop-color="#616161"
         stop-opacity="1"
         id="stop8155" />
    </linearGradient>
    <clipPath
       id="clipPath-263700833">
      <g
         transform="translate(0,-1004.3622)"
         id="g8160">
        <rect
           rx="4"
           y="1005.36"
           x="1"
           height="46"
           width="46"
           fill="#1890d0"
           id="rect8158" />
      </g>
    </clipPath>
    <clipPath
       id="clipPath-291895620">
      <g
         transform="translate(0,-1004.3622)"
         id="g8165">
        <rect
           rx="4"
           y="1005.36"
           x="1"
           height="46"
           width="46"
           fill="#1890d0"
           id="rect8163" />
      </g>
    </clipPath>
  </defs>
  <g
     id="g8176">
    <path
       d="m 1 43 l 0 0.25 c 0 2.216 1.784 4 4 4 l 38 0 c 2.216 0 4 -1.784 4 -4 l 0 -0.25 c 0 2.216 -1.784 4 -4 4 l -38 0 c -2.216 0 -4 -1.784 -4 -4 z m 0 0.5 l 0 0.5 c 0 2.216 1.784 4 4 4 l 38 0 c 2.216 0 4 -1.784 4 -4 l 0 -0.5 c 0 2.216 -1.784 4 -4 4 l -38 0 c -2.216 0 -4 -1.784 -4 -4 z"
       opacity="0.02"
       id="path8170" />
    <path
       d="m 1 43.25 l 0 0.25 c 0 2.216 1.784 4 4 4 l 38 0 c 2.216 0 4 -1.784 4 -4 l 0 -0.25 c 0 2.216 -1.784 4 -4 4 l -38 0 c -2.216 0 -4 -1.784 -4 -4 z"
       opacity="0.05"
       id="path8172" />
    <path
       d="m 1 43 l 0 0.25 c 0 2.216 1.784 4 4 4 l 38 0 c 2.216 0 4 -1.784 4 -4 l 0 -0.25 c 0 2.216 -1.784 4 -4 4 l -38 0 c -2.216 0 -4 -1.784 -4 -4 z"
       opacity="0.1"
       id="path8174" />
  </g>
  <g
     id="g8180">
    <rect
       width="46"
       height="46"
       x="-47"
       y="1"
       rx="4"
       transform="matrix(0,-1,1,0,0,0)"
       fill="url(#linearGradient3764)"
       fill-opacity="1"
       id="rect8178" />
  </g>
  <g
     id="g8182" />
  <g
     id="g8206">
    <g
       clip-path="url(#clipPath-263700833)"
       id="g8204">
      <g
         opacity="0.1"
         id="g8202">
        <!-- color: #616161 -->
        <g
           id="g8200">
          <path
             d="m 14 35.414 l 0 -11.06 c 0 -1.27 4.129 -1.27 4.129 0 l -1.512 0 l 0.008 -1.977 l 0.691 -0.637 l 0.766 0 l 2.496 -3.332 l 0.945 -9.04 l 1.418 -1.344 l 1.238 -0.023 l 0 28.895 l -0.707 -0.004 l -1.074 1.105 l -0.891 -0.02 l -1.609 -1.164 l -0.691 -1.336 l -1.078 0 c 0 1.336 -4.129 1.336 -4.129 0 m 0 -0.066"
             stroke="none"
             fill-rule="nonzero"
             fill-opacity="1"
             fill="#000"
             id="path8184" />
          <path
             d="m 33.961 35.414 l 0 -11.06 c 0 -1.27 -4.129 -1.27 -4.129 0 l 1.512 0 l -0.008 -1.977 l -0.691 -0.637 l -0.766 0 l -2.496 -3.332 l -0.945 -9.04 l -1.422 -1.344 l -1.234 -0.023 l 0 28.895 l 0.703 -0.004 l 1.078 1.105 l 0.891 -0.02 l 1.609 -1.164 l 0.691 -1.336 l 1.078 0 c 0 1.336 4.129 1.336 4.129 0 m 0 -0.066"
             stroke="none"
             fill-rule="nonzero"
             fill-opacity="1"
             fill="#000"
             id="path8186" />
          <path
             d="m 23.434 36.891 l 0 -28.883 l 1.047 0 l 0 28.883 m -1.047 0"
             stroke="none"
             fill-rule="nonzero"
             fill-opacity="1"
             fill="#000"
             id="path8188" />
          <path
             d="m 32.773 35.488 l 0.211 0.145 l 0.488 0.02 l 0.016 0.156 l 0.418 0.086 l -0.184 0.145 l 0.277 0.133 l -0.355 0.109 l 0.09 0.156 l -0.461 0.051 l -0.113 0.156 l -0.492 -0.012 l -0.297 0.125 l -0.434 -0.074 l -0.434 0.074 l -0.301 -0.125 l -0.488 0.012 l -0.117 -0.152 l -0.465 -0.055 l 0.086 -0.156 l -0.355 -0.105 l 0.277 -0.133 l -0.188 -0.145 l 0.418 -0.086 l 0.012 -0.156 l 0.484 -0.023 l 0.215 -0.141 l 0.469 0.043 l 0.375 -0.102 l 0.375 0.102 m 0.473 -0.047"
             stroke="none"
             fill-rule="nonzero"
             fill-opacity="1"
             fill="#000"
             id="path8190" />
          <path
             d="m 16.938 35.477 l 0.211 0.145 l 0.488 0.02 l 0.016 0.16 l 0.418 0.082 l -0.184 0.145 l 0.277 0.133 l -0.355 0.109 l 0.09 0.156 l -0.461 0.051 l -0.117 0.156 l -0.488 -0.012 l -0.297 0.125 l -0.434 -0.074 l -0.434 0.074 l -0.301 -0.125 l -0.488 0.012 l -0.117 -0.152 l -0.465 -0.055 l 0.086 -0.152 l -0.355 -0.109 l 0.277 -0.133 l -0.188 -0.145 l 0.414 -0.086 l 0.016 -0.156 l 0.484 -0.023 l 0.215 -0.141 l 0.469 0.043 l 0.375 -0.102 l 0.375 0.102 m 0.473 -0.047"
             stroke="none"
             fill-rule="nonzero"
             fill-opacity="1"
             fill="#000"
             id="path8192" />
          <path
             d="m 31.34 22.375 l -0.691 -0.637 l -0.766 0 l -2.496 -3.332 l -0.945 -9.04 l -1.418 -1.344 l -1.238 -0.023 l 0 28.895 l 0.707 -0.004 l 1.074 1.105 l 0.891 -0.02 l 1.609 -1.16 c 0 0 3.313 -6.707 3.313 -6.715 m -0.039 -7.73"
             stroke="none"
             fill-rule="nonzero"
             fill-opacity="1"
             fill="#000"
             id="path8194" />
          <path
             d="m 16.625 22.375 l 0.691 -0.637 l 0.766 0 l 2.496 -3.336 l 0.945 -9.03 l 1.418 -1.348 l 1.238 -0.023 l 0 28.898 l -0.707 -0.004 l -1.074 1.102 l -0.891 -0.02 l -1.609 -1.16 c 0 0 -3.313 -6.707 -3.313 -6.715 m 0.039 -7.727"
             stroke="none"
             fill-rule="nonzero"
             fill-opacity="1"
             fill="#000"
             id="path8196" />
          <path
             d="m 23.434 36.879 l 0 -28.879 l 1.051 0 l 0 28.879 m -1.051 0"
             stroke="none"
             fill-rule="nonzero"
             fill-opacity="1"
             fill="#000"
             id="path8198" />
        </g>
      </g>
    </g>
  </g>
  <g
     id="g8230">
    <g
       clip-path="url(#clipPath-291895620)"
       id="g8228">
      <g
         transform="translate(0,-1)"
         id="g8226">
        <!-- color: #616161 -->
        <g
           id="g8224">
          <path
             d="m 14 35.414 l 0 -11.06 c 0 -1.27 4.129 -1.27 4.129 0 l -1.512 0 l 0.008 -1.977 l 0.691 -0.637 l 0.766 0 l 2.496 -3.332 l 0.945 -9.04 l 1.418 -1.344 l 1.238 -0.023 l 0 28.895 l -0.707 -0.004 l -1.074 1.105 l -0.891 -0.02 l -1.609 -1.164 l -0.691 -1.336 l -1.078 0 c 0 1.336 -4.129 1.336 -4.129 0 m 0 -0.066"
             fill="#999"
             stroke="none"
             fill-rule="nonzero"
             fill-opacity="1"
             id="path8208" />
          <path
             d="m 33.961 35.414 l 0 -11.06 c 0 -1.27 -4.129 -1.27 -4.129 0 l 1.512 0 l -0.008 -1.977 l -0.691 -0.637 l -0.766 0 l -2.496 -3.332 l -0.945 -9.04 l -1.422 -1.344 l -1.234 -0.023 l 0 28.895 l 0.703 -0.004 l 1.078 1.105 l 0.891 -0.02 l 1.609 -1.164 l 0.691 -1.336 l 1.078 0 c 0 1.336 4.129 1.336 4.129 0 m 0 -0.066"
             fill="#999"
             stroke="none"
             fill-rule="nonzero"
             fill-opacity="1"
             id="path8210" />
          <path
             d="m 23.434 36.891 l 0 -28.883 l 1.047 0 l 0 28.883 m -1.047 0"
             fill="#999"
             stroke="none"
             fill-rule="nonzero"
             fill-opacity="1"
             id="path8212" />
          <path
             d="m 32.773 35.488 l 0.211 0.145 l 0.488 0.02 l 0.016 0.156 l 0.418 0.086 l -0.184 0.145 l 0.277 0.133 l -0.355 0.109 l 0.09 0.156 l -0.461 0.051 l -0.113 0.156 l -0.492 -0.012 l -0.297 0.125 l -0.434 -0.074 l -0.434 0.074 l -0.301 -0.125 l -0.488 0.012 l -0.117 -0.152 l -0.465 -0.055 l 0.086 -0.156 l -0.355 -0.105 l 0.277 -0.133 l -0.188 -0.145 l 0.418 -0.086 l 0.012 -0.156 l 0.484 -0.023 l 0.215 -0.141 l 0.469 0.043 l 0.375 -0.102 l 0.375 0.102 m 0.473 -0.047"
             fill="#f60"
             stroke="none"
             fill-rule="nonzero"
             fill-opacity="1"
             id="path8214" />
          <path
             d="m 16.938 35.477 l 0.211 0.145 l 0.488 0.02 l 0.016 0.16 l 0.418 0.082 l -0.184 0.145 l 0.277 0.133 l -0.355 0.109 l 0.09 0.156 l -0.461 0.051 l -0.117 0.156 l -0.488 -0.012 l -0.297 0.125 l -0.434 -0.074 l -0.434 0.074 l -0.301 -0.125 l -0.488 0.012 l -0.117 -0.152 l -0.465 -0.055 l 0.086 -0.152 l -0.355 -0.109 l 0.277 -0.133 l -0.188 -0.145 l 0.414 -0.086 l 0.016 -0.156 l 0.484 -0.023 l 0.215 -0.141 l 0.469 0.043 l 0.375 -0.102 l 0.375 0.102 m 0.473 -0.047"
             fill="#f60"
             stroke="none"
             fill-rule="nonzero"
             fill-opacity="1"
             id="path8216" />
          <path
             d="m 31.34 22.375 l -0.691 -0.637 l -0.766 0 l -2.496 -3.332 l -0.945 -9.04 l -1.418 -1.344 l -1.238 -0.023 l 0 28.895 l 0.707 -0.004 l 1.074 1.105 l 0.891 -0.02 l 1.609 -1.16 c 0 0 3.313 -6.707 3.313 -6.715 m -0.039 -7.73"
             fill="#b2b2b2"
             stroke="none"
             fill-rule="nonzero"
             fill-opacity="1"
             id="path8218" />
          <path
             d="m 16.625 22.375 l 0.691 -0.637 l 0.766 0 l 2.496 -3.336 l 0.945 -9.03 l 1.418 -1.348 l 1.238 -0.023 l 0 28.898 l -0.707 -0.004 l -1.074 1.102 l -0.891 -0.02 l -1.609 -1.16 c 0 0 -3.313 -6.707 -3.313 -6.715 m 0.039 -7.727"
             fill="#b2b2b2"
             stroke="none"
             fill-rule="nonzero"
             fill-opacity="1"
             id="path8220" />
          <path
             d="m 23.434 36.879 l 0 -28.879 l 1.051 0 l 0 28.879 m -1.051 0"
             fill="#b2b2b2"
             stroke="none"
             fill-rule="nonzero"
             fill-opacity="1"
             id="path8222" />
        </g>
      </g>
    </g>
  </g>
  <g
     id="g8236">
    <g
       transform="translate(0,-1004.3622)"
       id="g8234">
      <path
         d="m 1 1043.36 0 4 c 0 2.216 1.784 4 4 4 l 38 0 c 2.216 0 4 -1.784 4 -4 l 0 -4 c 0 2.216 -1.784 4 -4 4 l -38 0 c -2.216 0 -4 -1.784 -4 -4 z"
         opacity="0.1"
         id="path8232" />
    </g>
  </g>
</svg>
