<svg version="1.1" viewBox="0 0 48 48" xmlns="http://www.w3.org/2000/svg">
 <defs>
  <linearGradient id="bg" x2="0" y1="1" y2="47" gradientUnits="userSpaceOnUse">
   <stop style="stop-color:#435f7a" offset="0"/>
   <stop style="stop-color:#3b546b" offset="1"/>
  </linearGradient>
 </defs>
 <path d="m1 43v0.25c0 2.22 1.78 4 4 4h38c2.22 0 4-1.78 4-4v-0.25c0 2.22-1.78 4-4 4h-38c-2.22 0-4-1.78-4-4zm0 0.5v0.5c0 2.22 1.78 4 4 4h38c2.22 0 4-1.78 4-4v-0.5c0 2.22-1.78 4-4 4h-38c-2.22 0-4-1.78-4-4z" style="opacity:.02"/>
 <path d="m1 43.2v0.25c0 2.22 1.78 4 4 4h38c2.22 0 4-1.78 4-4v-0.25c0 2.22-1.78 4-4 4h-38c-2.22 0-4-1.78-4-4z" style="opacity:.05"/>
 <path d="m1 43v0.25c0 2.22 1.78 4 4 4h38c2.22 0 4-1.78 4-4v-0.25c0 2.22-1.78 4-4 4h-38c-2.22 0-4-1.78-4-4z" style="opacity:.1"/>
 <rect x="1" y="1" width="46" height="46" rx="4" style="fill:url(#bg)"/>
 <path d="m1 39v4c0 2.22 1.78 4 4 4h38c2.22 0 4-1.78 4-4v-4c0 2.22-1.78 4-4 4h-38c-2.22 0-4-1.78-4-4z" style="opacity:.1"/>
 <path d="m24 10a15 15 0 0 0-15 15 15 15 0 0 0 4.39 10.6l3.54-3.54a10 10 0 0 1-2.93-7.07 10 10 0 0 1 10-10 10 10 0 0 1 4.62 1.13l2.45-2.45c0.52-0.52 1.06-0.797 1.55-0.963a15 15 0 0 0-8.62-2.72zm10.6 4.39s-1.41 0.0017-2.12 0.709l-7.19 7.19a3 3 0 0 0-1.29-0.293 3 3 0 0 0-3 3 3 3 0 0 0 3 3 3 3 0 0 0 3-3 3 3 0 0 0-0.293-1.29l7.19-7.19c0.707-0.707 0.707-2.12 0.707-2.12zm1.67 1.99c-0.165 0.49-0.441 1.03-0.961 1.55l-2.45 2.45a10 10 0 0 1 1.13 4.62 10 10 0 0 1-2.93 7.07l3.54 3.54a15 15 0 0 0 4.39-10.6 15 15 0 0 0-2.72-8.62z" style="opacity:.1"/>
 <path d="m24 9a15 15 0 0 0-15 15 15 15 0 0 0 4.39 10.6l3.54-3.54a10 10 0 0 1-2.93-7.07 10 10 0 0 1 10-10 10 10 0 0 1 4.62 1.13l2.45-2.45c0.52-0.52 1.06-0.797 1.55-0.963a15 15 0 0 0-8.62-2.72zm12.3 6.38c-0.165 0.49-0.441 1.03-0.961 1.55l-2.45 2.45a10 10 0 0 1 1.13 4.62 10 10 0 0 1-2.93 7.07l3.54 3.54a15 15 0 0 0 4.39-10.6 15 15 0 0 0-2.72-8.62z" style="fill:#c8cdd0"/>
 <path d="m34.6 13.4s-1.41 0.0017-2.12 0.709l-7.19 7.19a3 3 0 0 0-1.29-0.293 3 3 0 0 0-3 3 3 3 0 0 0 3 3 3 3 0 0 0 3-3 3 3 0 0 0-0.293-1.29l7.19-7.19c0.707-0.707 0.707-2.12 0.707-2.12z" style="fill:#92a3e4"/>
</svg>
