<svg version="1.1" viewBox="0 0 48 48" xmlns="http://www.w3.org/2000/svg">
 <defs>
  <linearGradient id="bg" x1="-47" x2="-1" gradientUnits="userSpaceOnUse">
   <stop style="stop-color:#eab92e" offset="0"/>
   <stop style="stop-color:#ecbf41" offset="1"/>
  </linearGradient>
 </defs>
 <path d="m1 43v0.25c0 2.22 1.78 4 4 4h38c2.22 0 4-1.78 4-4v-0.25c0 2.22-1.78 4-4 4h-38c-2.22 0-4-1.78-4-4zm0 0.5v0.5c0 2.22 1.78 4 4 4h38c2.22 0 4-1.78 4-4v-0.5c0 2.22-1.78 4-4 4h-38c-2.22 0-4-1.78-4-4z" style="opacity:.02"/>
 <path d="m1 43.3v0.25c0 2.22 1.78 4 4 4h38c2.22 0 4-1.78 4-4v-0.25c0 2.22-1.78 4-4 4h-38c-2.22 0-4-1.78-4-4z" style="opacity:.05"/>
 <path d="m1 43v0.25c0 2.22 1.78 4 4 4h38c2.22 0 4-1.78 4-4v-0.25c0 2.22-1.78 4-4 4h-38c-2.22 0-4-1.78-4-4z" style="opacity:.1"/>
 <rect transform="rotate(-90)" x="-47" y="1" width="46" height="46" rx="4" style="fill:url(#bg)"/>
 <path d="m1 39v4c0 2.22 1.78 4 4 4h38c2.22 0 4-1.78 4-4v-4c0 2.22-1.78 4-4 4h-38c-2.22 0-4-1.78-4-4z" style="opacity:.1"/>
 <path d="m36 14v20c0 1.11-0.892 2-2 2h-20c-1.11 0-2-0.892-2-2v-20z" style="opacity:.1"/>
 <path d="m14 11h20c1.11 0 2 0.892 2 2v20c0 1.11-0.892 2-2 2h-20c-1.11 0-2-0.892-2-2v-20c0-1.11 0.892-2 2-2z" style="fill:#eee"/>
 <path d="m28.5 13c-0.828 0-1.5 0.672-1.5 1.5v2c0 0.828 0.672 1.5 1.5 1.5s1.5-0.672 1.5-1.5-0.672-1.5-1.5-1.5c-0.17 3.6e-5 -0.339 0.0291-0.5 0.0859v-0.586c0-0.276 0.224-0.5 0.5-0.5s0.5 0.224 0.5 0.5 0.224 0.5 0.5 0.5 0.5-0.224 0.5-0.5c0-0.828-0.672-1.5-1.5-1.5zm3 0c-0.277 0-0.5 0.223-0.5 0.5v2c0 0.277 0.223 0.5 0.5 0.5h1c0.276 0 0.5 0.224 0.5 0.5s-0.224 0.5-0.5 0.5h-1c-0.277 0-0.5 0.223-0.5 0.5s0.223 0.5 0.5 0.5h1c0.828 0 1.5-0.672 1.5-1.5s-0.672-1.5-1.5-1.5h-0.5v-1h1c0.277 0 0.5-0.223 0.5-0.5s-0.223-0.5-0.5-0.5zm-3 3c0.276 0 0.5 0.224 0.5 0.5s-0.224 0.5-0.5 0.5-0.5-0.224-0.5-0.5 0.224-0.5 0.5-0.5zm-9.5 2c-0.554 0-1 0.446-1 1s0.446 1 1 1h1v7c0 0.554 0.446 1 1 1s1-0.446 1-1v-7h1c0.554 0 1-0.446 1-1s-0.446-1-1-1h-2zm7 1c-0.554 0-1 0.446-1 1v7c0 0.554 0.446 1 1 1 0.212 0 0.408-0.0657 0.57-0.178 0.287 0.115 0.601 0.178 0.93 0.178 1.38 0 2.5-1.12 2.5-2.5v-1c0-1.38-1.12-2.5-2.5-2.5-0.171 0-0.339 0.0161-0.5 0.0488v-2.05c0-0.554-0.446-1-1-1zm1.5 5c0.277 0 0.5 0.223 0.5 0.5v1c0 0.277-0.223 0.5-0.5 0.5s-0.5-0.223-0.5-0.5v-1c0-0.277 0.223-0.5 0.5-0.5zm-3.81 6c-0.0165 0.0015-0.207 0.0229-0.207 0.229v2.56c0 0.174 0.164 0.209 0.229 0.209 0.0858 0 0.227-0.0575 0.227-0.209v-0.0273c0.0727 0.0735 0.269 0.236 0.586 0.236 0.599 0 0.994-0.455 0.994-1.04 0-0.606-0.437-1.01-0.994-1.01-0.137 0-0.379 0.0215-0.586 0.23v-0.945c0-0.179-0.157-0.229-0.227-0.229-0.0072 0-0.0144-6.32e-4 -0.0215 0zm2.43 0c-0.0264 0.0024-0.205 0.0258-0.205 0.229v2.56c0 0.201 0.207 0.209 0.227 0.209 0.0739 0 0.227-0.0455 0.227-0.209v-2.56c-4e-6 -0.196-0.175-0.229-0.227-0.229-0.0072 0-0.0144-6.32e-4 -0.0215 0zm-6.26 0.168c-0.0976 0-0.221 0.0596-0.221 0.209v0.566c0 0.0449-0.022 0.0684-0.0664 0.0684h-0.119c-0.113 0-0.207 0.0864-0.207 0.215 0 0.116 0.0845 0.203 0.207 0.203h0.119c0.0444-1e-6 0.0664 0.0215 0.0664 0.0664v0.857c0 0.216 0.0569 0.377 0.168 0.484 0.111 0.108 0.252 0.162 0.426 0.162 0.0838 0 0.278-0.0256 0.373-0.0606 0.118-0.0432 0.141-0.137 0.141-0.203 0-0.0667-0.0398-0.201-0.193-0.201-0.0563 0-0.138 0.041-0.24 0.041-0.151 0-0.227-0.0944-0.227-0.283v-0.797c0-0.0449 0.022-0.0664 0.0664-0.0664h0.354c0.148-2e-6 0.207-0.113 0.207-0.203 0-0.132-0.1-0.215-0.199-0.215h-0.361c-0.0444 0-0.0664-0.0234-0.0664-0.0684v-0.566c0-0.125-0.102-0.209-0.227-0.209zm2.08 0.775c-0.541 0-0.994 0.391-0.994 1.01 0 0.606 0.411 1.04 0.994 1.04 0.317 0 0.513-0.163 0.586-0.236v0.0273c0 0.201 0.207 0.209 0.227 0.209 0.0739 0 0.227-0.0455 0.227-0.209v-1.58c0-0.198-0.182-0.23-0.227-0.23-0.0629 1e-6 -0.204 0.0407-0.227 0.197-0.217-0.206-0.475-0.23-0.586-0.23zm5.85 0c-0.586 0-1.01 0.388-1.01 0.984 0 0.617 0.348 1.07 1.06 1.07 0.297 0 0.536-0.0957 0.766-0.223 0.189-0.105 0.0049-0.485-0.205-0.35-0.198 0.127-0.433 0.16-0.547 0.16-0.228 0-0.502-0.0922-0.588-0.396-0.0164-0.0606 0.015-0.0744 0.0471-0.0744h1.16c0.122-2e-6 0.273-0.0679 0.273-0.297 0-0.456-0.334-0.877-0.953-0.877zm0 0.398c0.277 0 0.473 0.187 0.473 0.385 0 0.034-0.0242 0.0392-0.0391 0.0392l-0.9-0.0059c-0.0904 0.0062-0.0529-0.0511-0.0529-0.0685-1.34e-4 -0.106 0.207-0.35 0.52-0.35zm-5.81 0.0195c0.346 0 0.547 0.24 0.547 0.594 0 0.343-0.171 0.627-0.547 0.627-0.351 0-0.578-0.241-0.578-0.627 0-0.386 0.253-0.594 0.578-0.594zm2.5 0c0.325 0 0.58 0.205 0.58 0.594 0 0.388-0.229 0.627-0.58 0.627-0.375 0-0.545-0.287-0.545-0.627 0-0.351 0.199-0.594 0.545-0.594z" style="fill:#555"/>
</svg>
