<svg width="48" height="48" version="1.1" viewBox="0 0 48 48" xmlns="http://www.w3.org/2000/svg">
 <defs>
  <linearGradient id="bg" x1="-47" x2="-1" y1="2.8779e-15" y2="6.1232e-17" gradientUnits="userSpaceOnUse">
   <stop style="stop-color:#89dfce" offset="0"/>
   <stop style="stop-color:#99e3d5" offset="1"/>
  </linearGradient>
 </defs>
 <g transform="translate(0 3.949e-5)">
  <path d="m1 43v0.25c0 2.216 1.784 4 4 4h38c2.216 0 4-1.784 4-4v-0.25c0 2.216-1.784 4-4 4h-38c-2.216 0-4-1.784-4-4zm0 0.5v0.5c0 2.216 1.784 4 4 4h38c2.216 0 4-1.784 4-4v-0.5c0 2.216-1.784 4-4 4h-38c-2.216 0-4-1.784-4-4z" style="opacity:.02"/>
  <path d="m1 43.25v0.25c0 2.216 1.784 4 4 4h38c2.216 0 4-1.784 4-4v-0.25c0 2.216-1.784 4-4 4h-38c-2.216 0-4-1.784-4-4z" style="opacity:.05"/>
  <path d="m1 43v0.25c0 2.216 1.784 4 4 4h38c2.216 0 4-1.784 4-4v-0.25c0 2.216-1.784 4-4 4h-38c-2.216 0-4-1.784-4-4z" style="opacity:.1"/>
 </g>
 <rect transform="rotate(-90)" x="-47" y="1" width="46" height="46" rx="4" style="fill:url(#bg)"/>
 <g transform="translate(0 3.949e-5)">
  <g transform="translate(0 -1004.4)">
   <path d="m1 1043.4v4c0 2.216 1.784 4 4 4h38c2.216 0 4-1.784 4-4v-4c0 2.216-1.784 4-4 4h-38c-2.216 0-4-1.784-4-4z" style="opacity:.1"/>
  </g>
 </g>
 <g style="opacity:.1">
  <rect x="12" y="10" width="24" height="26"/>
 </g>
 <rect x="12" y="9" width="24" height="26" style="fill:#666"/>
 <rect x="13" y="10" width="22" height="24" style="fill:#f6ffd5"/>
 <path d="m30.137 11.031c-0.115 0-0.24091 0.015828-0.37891 0.048828-0.138 0.033-0.28631 0.080531-0.44531 0.14453v0.39844c0.156-0.087 0.30245-0.15231 0.43945-0.19531 0.138-0.043 0.26858-0.064453 0.39258-0.064453 0.175 0 0.31583 0.048485 0.42383 0.14648 0.109 0.098 0.16406 0.22391 0.16406 0.37891 0 0.095-0.025172 0.19202-0.076172 0.29102-0.05 0.096999-0.13767 0.21738-0.26367 0.35937-0.066 0.076001-0.22928 0.24386-0.48828 0.50586-0.257 0.26-0.46133 0.46805-0.61133 0.62305v0.33203h1.8516v-0.33203h-1.377c0.317-0.324 0.56428-0.57586 0.73828-0.75586 0.175-0.181 0.27755-0.29012 0.31055-0.32812 0.118-0.146 0.20014-0.27191 0.24414-0.37891 0.045-0.108 0.068359-0.2218 0.068359-0.3418 0-0.252-0.089531-0.45447-0.26953-0.60547-0.18-0.151-0.42066-0.22656-0.72266-0.22656zm2.8184 0.052734-1.2129 1.8477v0.38086h1.3164v0.6875h0.39258v-0.6875h0.41602v-0.32812h-0.41602v-1.9004h-0.49609zm0.10547 0.34375v1.5566h-0.99609l0.99609-1.5566z" style="fill:#4d4d4d"/>
 <path d="m30.136 28.961v3.0391h0.36375v-3.0391zm-4.0744 0.23047v0.62109h-0.26886v0.2793h0.26886v1.1875c0 0.273 0.05385 0.46241 0.16013 0.56641 0.10628 0.103 0.29886 0.15234 0.57923 0.15234h0.37363v-0.30078h-0.37363c-0.15182 0-0.25287-0.02517-0.30246-0.07617-0.04858-0.051-0.07315-0.16575-0.07315-0.34375v-1.1875h0.74924v-0.2793h-0.74924v-0.61914zm-7.4489 0.56641c-0.34616 0-0.61706 0.10264-0.81645 0.30664-0.19737 0.205-0.29653 0.4848-0.29653 0.8418 0 0.352 0.0982 0.63089 0.29456 0.83789 0.19636 0.207 0.46171 0.3125 0.79471 0.3125 0.12247 0 0.23765-0.01216 0.34596-0.03516 0.11033-0.023 0.21508-0.05847 0.3163-0.10547v-0.33203c-0.10324 0.056-0.20612 0.09795-0.31037 0.12695-0.10324 0.027-0.20708 0.04102-0.31235 0.04102-0.23583 0-0.419-0.0737-0.54957-0.2207-0.13057-0.148-0.19571-0.35605-0.19571-0.62305s0.06514-0.47409 0.19571-0.62109c0.13057-0.149 0.31374-0.22266 0.54957-0.22266 0.10628 0 0.20911 0.01397 0.31235 0.04297 0.10425 0.027 0.20713 0.069 0.31037 0.125v-0.33794c-0.1002-0.046-0.20409-0.07956-0.31037-0.10156-0.10628-0.023-0.21581-0.03516-0.32816-0.03516zm2.3723 2e-3c-0.1751 0-0.3243 0.03266-0.44678 0.09766-0.12247 0.064-0.22158 0.16192-0.29851 0.29492v-0.33989h-0.36572v2.1875h0.36572v-1.1523c0-0.247 0.05477-0.43636 0.16408-0.56836 0.11134-0.133 0.26898-0.19922 0.47445-0.19922 0.05769 0 0.11058 0.0075 0.15815 0.01953 0.04858 0.011 0.09394 0.02778 0.13443 0.05078v-2e-3l-2e-3 -0.36914c-0.03745-7e-3 -0.07046-0.01067-0.10082-0.01367-0.03036-4e-3 -0.05773-0.0059-0.08303-0.0059zm3.675 0c-0.27126 0-0.48087 0.05597-0.62865 0.16797-0.14778 0.112-0.22339 0.27056-0.22339 0.47656 0 0.169 0.05004 0.30239 0.15024 0.40039 0.1002 0.097 0.26258 0.16784 0.48829 0.21484l0.12652 0.0293c0.22571 0.048 0.3711 0.09644 0.43689 0.14844 0.06781 0.052 0.10082 0.12856 0.10082 0.22656 0 0.105-0.04627 0.18709-0.13838 0.24609-0.09312 0.057-0.22432 0.08594-0.39538 0.08594-0.12753 0-0.2569-0.01873-0.38747-0.05273-0.13057-0.035-0.26274-0.0853-0.39735-0.1543v0.37109c0.1417 0.046 0.27773 0.07956 0.40526 0.10156 0.12854 0.023 0.25125 0.03516 0.36968 0.03516 0.28442 0 0.50822-0.05973 0.67016-0.17774 0.16296-0.118 0.24513-0.27942 0.24513-0.48242 0-0.178-0.05477-0.31702-0.16408-0.41602-0.1083-0.1-0.29147-0.17742-0.54957-0.23242l-0.12454-0.02734c-0.19535-0.043-0.32467-0.08777-0.38945-0.13476-0.06478-0.048-0.09687-0.11427-0.09687-0.19727 0-0.109 0.04435-0.19109 0.13443-0.24609 0.09008-0.055 0.22707-0.08203 0.40724-0.08203 0.11842 0 0.23365 0.01306 0.34398 0.03906s0.21701 0.06519 0.32026 0.11719v-0.33984c-0.09974-0.03867-0.20645-0.06996-0.32421-0.08984-0.11842-0.028-0.24494-0.02734-0.37956-0.02734zm3.7759 0c-0.11842 0-0.24022 0.01306-0.36572 0.03906-0.12551 0.024-0.25386 0.06228-0.38747 0.11328v0.33203c0.11134-0.06 0.22652-0.10477 0.34596-0.13477 0.11944-0.03 0.24316-0.04492 0.36968-0.04492 0.1994 0 0.35328 0.04572 0.46259 0.13672 0.11033 0.09 0.16606 0.21781 0.16606 0.38281v0.03516h-0.51004c-0.33098 1e-3 -0.58026 0.0625-0.74726 0.1875-0.166 0.125-0.24909 0.31064-0.24909 0.55664 0 0.211 0.06606 0.37986 0.19966 0.50586 0.13462 0.125 0.31494 0.18945 0.54167 0.18945 0.17915 0 0.3312-0.03075 0.45468-0.09375 0.1245-0.064 0.22737-0.16192 0.31037-0.29492v0.33203h0.36375v-1.25c0-0.333-0.07933-0.58209-0.23723-0.74609-0.1579-0.164-0.39776-0.24609-0.71761-0.24609zm-7.1405 0.05078 0.89553 2.1523-0.06326 0.16406c-0.06781 0.174-0.13016 0.28308-0.18583 0.33008-0.05466 0.047-0.13109 0.07031-0.2313 0.07031h-0.2135v0.30078h0.28862c0.16397 0 0.29623-0.03819 0.3934-0.11719 0.09693-0.0798 0.19752-0.25085 0.30049-0.50977v-2e-3l0.97263-2.3887h-0.38549l-0.69389 1.7109-0.69191-1.7109zm7.3679 1.0898h0.36179v0.08008c0 0.234-0.06138 0.42245-0.18385 0.56445-0.12146 0.141-0.28292 0.21094-0.48434 0.21094-0.14676 0-0.2619-0.03733-0.34793-0.11133-0.08401-0.076-0.12652-0.17669-0.12652-0.30469 0-0.16 0.05665-0.27384 0.17001-0.33984 0.11336-0.067 0.31733-0.09961 0.61086-0.09961z" style="fill:#4d4d4d"/>
 <path d="m22.238 17c-1.313 0-2.3475 0.40388-3.1035 1.209-0.756 0.8012-1.1348 1.9009-1.1348 3.2949 0 1.3901 0.37877 2.4879 1.1348 3.293 0.756 0.80217 1.7905 1.2031 3.1035 1.2031 0.512 0 0.99612-0.069092 1.4531-0.20898 0.461-0.13989 0.89564-0.3501 1.3066-0.62891v-1.2246c-0.395 0.36783-0.81662 0.64226-1.2656 0.82422-0.447 0.18195-0.92178 0.27344-1.4258 0.27344-0.992 0-1.7523-0.30266-2.2793-0.90625-0.527-0.60554-0.79102-1.4834-0.79102-2.625 0-1.1455 0.26402-2.0234 0.79102-2.627 0.527-0.6075 1.2873-0.91211 2.2793-0.91211 0.504 0 0.98078 0.091481 1.4258 0.27344 0.45 0.18196 0.87062 0.45639 1.2656 0.82422v-1.2383c-0.40336-0.27413-0.83477-0.47951-1.2949-0.61524-0.455-0.13989-0.94584-0.20898-1.4648-0.20898zm8.1895 1.8848c-0.54 0-0.99895 0.097968-1.377 0.29297-0.378 0.192-0.81283 0.48677-1.0488 0.88477v-1.0195h-1v6.5625h1v-3.4004c0-0.742 0.29581-1.3042 0.63281-1.6992 0.341-0.399 0.82889-0.66016 1.4629-0.66016 0.179 0 0.34128 0.017734 0.48828 0.052735 0.15 0.031 0.28806 0.082343 0.41406 0.15234l-0.005859-1.1074c-0.114-0.02-0.21655-0.033015-0.31055-0.041015-0.094-0.012-0.17886-0.017578-0.25586-0.017578z" style="fill:#4d4d4d"/>
</svg>
