<svg width="48" height="48" viewBox="0 0 48 48.000001" xmlns="http://www.w3.org/2000/svg">
  <defs>
    <linearGradient id="a" x1="-47" x2="-1" gradientUnits="userSpaceOnUse">
      <stop offset="0" stop-color="#5dbacb"/>
      <stop offset="1" stop-color="#6cc0d0"/>
    </linearGradient>
  </defs>
  <path d="M1 43v.25c0 2.216 1.784 4 4 4h38c2.216 0 4-1.784 4-4V43c0 2.216-1.784 4-4 4H5c-2.216 0-4-1.784-4-4zm0 .5v.5c0 2.216 1.784 4 4 4h38c2.216 0 4-1.784 4-4v-.5c0 2.216-1.784 4-4 4H5c-2.216 0-4-1.784-4-4z" opacity=".02"/>
  <path d="M1 43.25v.25c0 2.216 1.784 4 4 4h38c2.216 0 4-1.784 4-4v-.25c0 2.216-1.784 4-4 4H5c-2.216 0-4-1.784-4-4z" opacity=".05"/>
  <path d="M1 43v.25c0 2.216 1.784 4 4 4h38c2.216 0 4-1.784 4-4V43c0 2.216-1.784 4-4 4H5c-2.216 0-4-1.784-4-4z" opacity=".1"/>
  <rect transform="rotate(-90)" x="-47" y="1" width="46" height="46" rx="4" fill="url(#a)"/>
  <path d="M1 39v4c0 2.216 1.784 4 4 4h38c2.216 0 4-1.784 4-4v-4c0 2.216-1.784 4-4 4H5c-2.216 0-4-1.784-4-4zM24 13c-5.523 0-11 1.398-11 3.125v2.5C13 20.352 18.477 22 24 22s11-1.648 11-3.375v-2.5C35 14.398 29.523 13 24 13zm-10.559 8.813c-.297.297-.441.608-.441.937v2.5c0 1.482 4.767 2.44 9.609 2.684.149.234.315.46.52.664a3.881 3.881 0 0 0 4.15.863l1.256 1.256A22.716 22.716 0 0 1 25 31c-4.477 0-10.285-1.296-11.56-2.562-.296.297-.44.608-.44.937v2.5C13 33.602 19.475 35 25 35c2.699 0 5.138-.336 6.937-.879l1.39 1.39c.386.41.971.575 1.512.436a1.537 1.537 0 0 0 1.11-1.11 1.547 1.547 0 0 0-.434-1.51l-.766-.764c.16-.222.25-.452.25-.688v-2.5c0-.328-.175-.64-.476-.937-.492.488-1.362.98-2.496 1.402l-2.159-2.158C32.916 27.257 35 26.422 35 25.25v-2.5c0-.328-.175-.64-.476-.937-.858.855-2.868 1.543-5.448 1.906a3.796 3.796 0 0 0-.474-.59 3.853 3.853 0 0 0-2.795-1.127L25.804 22a3.975 3.975 0 0 0-1.356.262l1.711 1.709c-.383.014-.764.029-1.16.029-4.477 0-10.285-.918-11.559-2.188zM34.414 33.88a.524.524 0 1 1 0 1.047.524.524 0 0 1 0-1.047z" opacity=".1"/>
  <path d="M24 12c-5.523 0-11 1.398-11 3.125v2.5C13 19.352 18.477 21 24 21s11-1.648 11-3.375v-2.5C35 13.398 29.523 12 24 12" fill="#f9f9f9"/>
  <path d="M25 23c-4.477 0-10.285-.918-11.559-2.188-.297.297-.441.609-.441.938v2.5C13 25.977 19.477 27 25 27s10-1.023 10-2.75v-2.5c0-.328-.176-.641-.477-.938C33.25 22.082 29.473 23 25 23M25 30c-4.477 0-10.285-1.297-11.559-2.563-.297.297-.441.609-.441.938v2.5C13 32.602 19.477 34 25 34s10-1.398 10-3.125v-2.5c0-.328-.176-.641-.477-.938C33.25 28.703 29.473 30 25 30" fill="#f9f9f9"/>
  <path d="M28.23 22.832c-.957.102-1.982.158-3.047.164l1.594 1.592c.408.385.576.963.435 1.51-.092.36-.316.657-.609.865a33.327 33.327 0 0 0 3.031-.25 3.866 3.866 0 0 0-1.033-3.58c-.115-.116-.245-.203-.371-.301zm-5.965 1.617a3.899 3.899 0 0 0-.115 2.453c.91.055 1.822.091 2.717.094a1.537 1.537 0 0 1-.276-.223l-2.326-2.324zm9.006 4.64a20.008 20.008 0 0 1-3.619.745l3.488 3.492c1.35-.33 2.445-.759 3.108-1.262L31.27 29.09z" opacity=".1"/>
  <g>
    <path d="M25.805 21a3.966 3.966 0 0 0-1.356.262l2.328 2.327a1.546 1.546 0 1 1-2.186 2.186l-2.326-2.326a3.877 3.877 0 0 0 .864 4.15 3.882 3.882 0 0 0 4.15.863l6.05 6.053a1.544 1.544 0 1 0 2.186-2.183l-6.05-6.048a3.877 3.877 0 0 0-.864-4.15 3.85 3.85 0 0 0-2.794-1.126m8.607 11.88a.524.524 0 1 1 0 1.046.524.524 0 0 1 0-1.047" fill="#2d2d2d"/>
  </g>
</svg>
