<svg xmlns="http://www.w3.org/2000/svg" xmlns:xlink="http://www.w3.org/1999/xlink" width="48" height="48">
  <defs>
    <linearGradient id="a">
      <stop stop-opacity="0"/>
      <stop offset="1"/>
    </linearGradient>
    <linearGradient gradientUnits="userSpaceOnUse" x2="0" y2="40" y1="280" xlink:href="#b" id="e" gradientTransform="matrix(.175 0 0 .175 302.8 216)"/>
    <linearGradient id="b">
      <stop stop-color="#151515"/>
      <stop stop-color="#222" offset="1"/>
    </linearGradient>
    <linearGradient gradientUnits="userSpaceOnUse" x2="0" y2="90" y1="230" xlink:href="#b" id="d" gradientTransform="matrix(.375 0 0 .375 298 16)"/>
    <linearGradient gradientUnits="userSpaceOnUse" x2="0" y2="90" y1="230" xlink:href="#b" id="c" gradientTransform="matrix(.25 0 0 .25 300 132)"/>
    <linearGradient id="f">
      <stop offset="0" stop-color="#fff" stop-opacity="0"/>
      <stop offset=".3" stop-color="#fff" stop-opacity="0"/>
      <stop offset=".5" stop-color="#fff" stop-opacity=".612"/>
      <stop offset=".753" stop-color="#fff" stop-opacity="0"/>
      <stop offset="1" stop-color="#fff" stop-opacity="0"/>
    </linearGradient>
    <linearGradient id="g">
      <stop offset="0" stop-color="gray"/>
      <stop offset="1" stop-opacity="0"/>
    </linearGradient>
    <linearGradient id="h">
      <stop offset="0" stop-color="#a77341"/>
      <stop offset="1" stop-color="#3d3024"/>
    </linearGradient>
    <linearGradient xlink:href="#i" id="j" x1="24" y1="1051.36" x2="24" y2="1005.36" gradientUnits="userSpaceOnUse"/>
    <linearGradient id="i" x1="1" x2="47" gradientUnits="userSpaceOnUse" gradientTransform="rotate(-90 24 24)">
      <stop stop-color="#f6d22a"/>
      <stop offset="1" stop-color="#f7d53d"/>
    </linearGradient>
  </defs>
  <g transform="translate(0 -1004.362)">
    <path d="M5 1006.362c-2.216 0-4 1.784-4 4v37.25c0 2.216 1.784 4 4 4h38c2.216 0 4-1.784 4-4v-37.25c0-2.216-1.784-4-4-4H5zm-4 41.5v.5c0 2.216 1.784 4 4 4h38c2.216 0 4-1.784 4-4v-.5c0 2.216-1.784 4-4 4H5c-2.216 0-4-1.784-4-4z" opacity=".02"/>
    <path d="M1 1047.612v.25c0 2.216 1.784 4 4 4h38c2.216 0 4-1.784 4-4v-.25c0 2.216-1.784 4-4 4H5c-2.216 0-4-1.784-4-4z" opacity=".05"/>
    <rect rx="4" y="1005.61" x="1" height="46" width="46" opacity=".1"/>
  </g>
  <rect width="46" height="46" x="1" y="1005.36" rx="4" transform="translate(0 -1004.36)" fill="url(#j)"/>
  <path d="M1 39v4c0 2.216 1.784 4 4 4h38c2.216 0 4-1.784 4-4v-4c0 2.216-1.784 4-4 4H5c-2.216 0-4-1.784-4-4z" opacity=".1"/>
  <g>
    <path d="M19 32c.228-.93.954-1.602 1.588-2.143.415-.268.435-.494.102-.647-1.69-.783-3.078-1.27-4.475-2.035-2.365-1.321-3.721-3.24-4.078-5.77-.072-.607-.073-1.237.032-1.68a.86.86 0 0 1 .803-.504c.23 0 .362.054 1.004.411 1.46.812 2.888 1.457 3.634 1.644.303.075.336.074.51-.023.82-.457 1.46-1.153 1.746-1.253h6.544c1 1.178 2.42 1.95 3.62 2.415 1.311.329 3.228.005 4.633-.782.737-.436 1.177-.883 1.414-1.633h1.827c0 .138-.378 1.154-.65 1.521-.872 1.175-2.232 2.125-4.294 2.998C30 26 28.008 28.027 25.454 29.21c-.495.253-.085.398.133.647.69.628 1.188 1.293 1.413 2.143zm-1.55-6.594l-.452-2.258a3.157 3.157 0 0 0-.426-.162 19.782 19.782 0 0 1-1.86-.783c-.33-.165-.51-.183-.51-.05 0 .176.41.997.715 1.431.333.474.705.856 1.212 1.247.466.36 1.084.725 1.225.725.105 0 .118-.02.096-.15zM20.197 19c.021-.038.244-.465.494-.87C21.731 16.445 22.214 16 23 16c.75-.001 1.274.474 2.264 2.05.308.49.56.933.56.95z" opacity=".1"/>
    <path d="M19 31c.228-.93.954-1.602 1.588-2.143.415-.268.435-.494.102-.647-1.69-.783-3.078-1.27-4.475-2.035-2.365-1.321-3.721-3.24-4.078-5.77-.072-.607-.073-1.237.032-1.68a.86.86 0 0 1 .803-.504c.23 0 .362.054 1.004.411 1.46.812 2.888 1.457 3.634 1.644.303.075.336.074.51-.023.82-.457 1.46-1.153 1.746-1.253h6.544c1 1.178 2.42 1.95 3.62 2.415 1.311.329 3.228.005 4.633-.782.737-.436 1.177-.883 1.414-1.633h1.827c0 .138-.378 1.154-.65 1.521-.872 1.175-2.232 2.125-4.294 2.998C30 25 28.008 27.027 25.454 28.21c-.495.253-.085.398.133.647.69.628 1.188 1.293 1.413 2.143zm-1.55-6.594l-.452-2.258a3.157 3.157 0 0 0-.426-.162 19.782 19.782 0 0 1-1.86-.783c-.33-.165-.51-.183-.51-.05 0 .176.41.997.715 1.431.333.474.705.856 1.212 1.247.466.36 1.084.725 1.225.725.105 0 .118-.02.096-.15zM20.197 18c.021-.038.244-.465.494-.87C21.731 15.445 22.214 15 23 15c.75-.001 1.274.474 2.264 2.05.308.49.56.933.56.95z" fill="#d11616"/>
  </g>
</svg>
