<svg version="1.1" viewBox="0 0 48 48" xmlns="http://www.w3.org/2000/svg">
 <defs>
  <linearGradient id="bg" x1="-47" x2="-1" gradientUnits="userSpaceOnUse">
   <stop style="stop-color:#d1bdaf" offset="0"/>
   <stop style="stop-color:#d8c8bc" offset="1"/>
  </linearGradient>
 </defs>
 <path d="m1 43v0.25c0 2.22 1.78 4 4 4h38c2.22 0 4-1.78 4-4v-0.25c0 2.22-1.78 4-4 4h-38c-2.22 0-4-1.78-4-4zm0 0.5v0.5c0 2.22 1.78 4 4 4h38c2.22 0 4-1.78 4-4v-0.5c0 2.22-1.78 4-4 4h-38c-2.22 0-4-1.78-4-4z" style="opacity:.02"/>
 <path d="m1 43.3v0.25c0 2.22 1.78 4 4 4h38c2.22 0 4-1.78 4-4v-0.25c0 2.22-1.78 4-4 4h-38c-2.22 0-4-1.78-4-4z" style="opacity:.05"/>
 <path d="m1 43v0.25c0 2.22 1.78 4 4 4h38c2.22 0 4-1.78 4-4v-0.25c0 2.22-1.78 4-4 4h-38c-2.22 0-4-1.78-4-4z" style="opacity:.1"/>
 <rect transform="rotate(-90)" x="-47" y="1" width="46" height="46" rx="4" style="fill:url(#bg)"/>
 <path d="m1 39v4c0 2.22 1.78 4 4 4h38c2.22 0 4-1.78 4-4v-4c0 2.22-1.78 4-4 4h-38c-2.22 0-4-1.78-4-4z" style="opacity:.1"/>
 <path d="m12 12v18c0 0.554 0.446 1 1 1h22c0.554 0 1-0.446 1-1v-18zm6 22-4 1.5 4 1.5 15.4-2e-3s0.562-0.241 0.562-1.49c0-1.21-0.633-1.5-0.633-1.5z" style="opacity:.1"/>
 <rect x="12" y="10" width="24" height="20" rx="1" ry="1" style="fill:#f9f9f9"/>
 <path d="m15 13v11h3v-11h-3zm4 3v2h9v-2h-9zm5 3v2h4v-2h-4zm5 3v2h4v-2h-4z" style="fill:#87deaa"/>
 <path d="m14 12v16h20v-16h-20zm1 1h3v2h-3v-2zm4 0h4v2h-4v-2zm5 0h4v2h-4v-2zm5 0h4v2h-4v-2zm-14 3h3v2h-3v-2zm4 0h4v2h-4v-2zm5 0h4v2h-4v-2zm5 0h4v2h-4v-2zm-14 3h3v2h-3v-2zm4 0h4v2h-4v-2zm5 0h4v2h-4v-2zm5 0h4v2h-4v-2zm-14 3h3v2h-3v-2zm4 0h4v2h-4v-2zm5 0h4v2h-4v-2zm5 0h4v2h-4v-2zm-14 3h3v2h-3v-2zm4 0h4v2h-4v-2zm5 0h4v2h-4v-2zm5 0h4v2h-4v-2z" style="fill:#8c8c8c"/>
 <path d="m33.4 36s0.563-0.243 0.563-1.5c0-1.21-0.633-1.5-0.633-1.5h-15.4l-3 1.5 3 1.5" style="fill:#356193"/>
 <path d="m18 33-2 0.752-1 0.75 1 0.75 2 0.747" style="fill:#e1cb91"/>
 <path d="m16 33.8-2 0.745 2 0.754" style="fill:#555"/>
</svg>
