<svg viewBox="0 0 48 48" xmlns="http://www.w3.org/2000/svg">
 <defs>
  <linearGradient id="linearGradient3764" x1="1" x2="47" gradientTransform="translate(-48 .0022147)" gradientUnits="userSpaceOnUse">
   <stop stop-color="#e4e4e4" offset="0"/>
   <stop stop-color="#eee" offset="1"/>
  </linearGradient>
  <clipPath id="clipPath-931430506">
   <g transform="translate(0 -1004.4)">
    <rect x="1" y="1005.4" width="46" height="46" rx="4" fill="#1890d0"/>
   </g>
  </clipPath>
  <clipPath id="clipPath-944217103">
   <g transform="translate(0 -1004.4)">
    <rect x="1" y="1005.4" width="46" height="46" rx="4" fill="#1890d0"/>
   </g>
  </clipPath>
 </defs>
 <g>
  <path d="m1 43v0.25c0 2.216 1.784 4 4 4h38c2.216 0 4-1.784 4-4v-0.25c0 2.216-1.784 4-4 4h-38c-2.216 0-4-1.784-4-4zm0 0.5v0.5c0 2.216 1.784 4 4 4h38c2.216 0 4-1.784 4-4v-0.5c0 2.216-1.784 4-4 4h-38c-2.216 0-4-1.784-4-4z" opacity=".02"/>
  <path d="m1 43.25v0.25c0 2.216 1.784 4 4 4h38c2.216 0 4-1.784 4-4v-0.25c0 2.216-1.784 4-4 4h-38c-2.216 0-4-1.784-4-4z" opacity=".05"/>
  <path d="m1 43v0.25c0 2.216 1.784 4 4 4h38c2.216 0 4-1.784 4-4v-0.25c0 2.216-1.784 4-4 4h-38c-2.216 0-4-1.784-4-4z" opacity=".1"/>
 </g>
 <g>
  <rect transform="rotate(-90)" x="-47" y="1" width="46" height="46" rx="4" fill="url(#linearGradient3764)"/>
 </g>
 <g>
  <g clip-path="url(#clipPath-931430506)">
   <g opacity=".1">
    <g>
     <g>
      <path d="m20.801 14.281c-6.465 2.352-10.02 8.637-7.918 14.01 2.105 5.375 9.08 7.832 15.543 5.48 6.461-2.352 10.02-8.641 7.914-14.02-2.105-5.375-9.08-7.828-15.543-5.477m0.727 1.848c5.266-1.918 10.891 0.063 12.602 4.434 1.711 4.367-1.152 9.441-6.422 11.359s-10.898-0.066-12.605-4.438c-1.711-4.367 1.156-9.438 6.426-11.355"/>
      <path d="m26 14.5c0 1.379-1.121 2.5-2.5 2.5s-2.5-1.121-2.5-2.5 1.121-2.5 2.5-2.5 2.5 1.121 2.5 2.5"/>
      <path d="m37 18.5c0 1.379-1.121 2.5-2.5 2.5s-2.5-1.121-2.5-2.5 1.121-2.5 2.5-2.5 2.5 1.121 2.5 2.5"/>
      <path d="m35 29.5c0 1.379-1.121 2.5-2.5 2.5s-2.5-1.121-2.5-2.5 1.121-2.5 2.5-2.5 2.5 1.121 2.5 2.5"/>
      <path d="m22 33.5c0 1.379-1.121 2.5-2.5 2.5s-2.5-1.121-2.5-2.5 1.121-2.5 2.5-2.5 2.5 1.121 2.5 2.5"/>
      <path d="m16 23.5c0 1.379-1.121 2.5-2.5 2.5s-2.5-1.121-2.5-2.5 1.121-2.5 2.5-2.5 2.5 1.121 2.5 2.5"/>
     </g>
    </g>
   </g>
  </g>
 </g>
 <g>
  <g clip-path="url(#clipPath-944217103)">
   <g transform="translate(0,-1)">
    <g>
     <path d="m20.801 14.281c-6.465 2.352-10.02 8.637-7.918 14.01 2.105 5.375 9.08 7.832 15.543 5.48 6.461-2.352 10.02-8.641 7.914-14.02-2.105-5.375-9.08-7.828-15.543-5.477m0.727 1.848c5.266-1.918 10.891 0.063 12.602 4.434 1.711 4.367-1.152 9.441-6.422 11.359s-10.898-0.066-12.605-4.438c-1.711-4.367 1.156-9.438 6.426-11.355" fill="#666"/>
     <g fill="#99f">
      <path d="m26 14.5c0 1.379-1.121 2.5-2.5 2.5s-2.5-1.121-2.5-2.5 1.121-2.5 2.5-2.5 2.5 1.121 2.5 2.5"/>
      <path d="m37 18.5c0 1.379-1.121 2.5-2.5 2.5s-2.5-1.121-2.5-2.5 1.121-2.5 2.5-2.5 2.5 1.121 2.5 2.5"/>
      <path d="m35 29.5c0 1.379-1.121 2.5-2.5 2.5s-2.5-1.121-2.5-2.5 1.121-2.5 2.5-2.5 2.5 1.121 2.5 2.5"/>
      <path d="m22 33.5c0 1.379-1.121 2.5-2.5 2.5s-2.5-1.121-2.5-2.5 1.121-2.5 2.5-2.5 2.5 1.121 2.5 2.5"/>
      <path d="m16 23.5c0 1.379-1.121 2.5-2.5 2.5s-2.5-1.121-2.5-2.5 1.121-2.5 2.5-2.5 2.5 1.121 2.5 2.5"/>
     </g>
    </g>
   </g>
  </g>
 </g>
 <g>
  <g transform="translate(0 -1004.4)">
   <path d="m1 1043.4v4c0 2.216 1.784 4 4 4h38c2.216 0 4-1.784 4-4v-4c0 2.216-1.784 4-4 4h-38c-2.216 0-4-1.784-4-4z" opacity=".1"/>
  </g>
 </g>
</svg>
