<svg version="1.1" viewBox="0 0 48 48" xmlns="http://www.w3.org/2000/svg">
 <defs>
  <linearGradient id="bg" x2="0" y1="1" y2="47" gradientUnits="userSpaceOnUse">
   <stop style="stop-color:#235699" offset="0"/>
   <stop style="stop-color:#1f4d89" offset="1"/>
  </linearGradient>
 </defs>
 <path d="m1 43v0.25c0 2.216 1.784 4 4 4h38c2.216 0 4-1.784 4-4v-0.25c0 2.216-1.784 4-4 4h-38c-2.216 0-4-1.784-4-4zm0 0.5v0.5c0 2.216 1.784 4 4 4h38c2.216 0 4-1.784 4-4v-0.5c0 2.216-1.784 4-4 4h-38c-2.216 0-4-1.784-4-4z" style="opacity:.02"/>
 <path d="m1 43.25v0.25c0 2.216 1.784 4 4 4h38c2.216 0 4-1.784 4-4v-0.25c0 2.216-1.784 4-4 4h-38c-2.216 0-4-1.784-4-4z" style="opacity:.05"/>
 <path d="m1 43v0.25c0 2.216 1.784 4 4 4h38c2.216 0 4-1.784 4-4v-0.25c0 2.216-1.784 4-4 4h-38c-2.216 0-4-1.784-4-4z" style="opacity:.1"/>
 <rect x="1" y="1" width="46" height="46" rx="4" style="fill:url(#bg)"/>
 <path d="m1 39v4c0 2.216 1.784 4 4 4h38c2.216 0 4-1.784 4-4v-4c0 2.216-1.784 4-4 4h-38c-2.216 0-4-1.784-4-4z" style="opacity:.1"/>
 <path d="m23 12v2.0606c-0.89802 0.10104-1.7757 0.33676-2.6035 0.69922l-1.0312-1.7852-1.7305 1 1.0332 1.7891c-0.72668 0.53567-1.3686 1.1776-1.9043 1.9043l-1.7891-1.0332-1 1.7305 1.7891 1.0332c-0.3616 0.8273-0.59665 1.7043-0.69727 2.6016h-2.0664v2h2.0605c0.10104 0.89802 0.33676 1.7757 0.69922 2.6035l-1.7852 1.0312 1 1.7305 1.7891-1.0332c0.53566 0.72668 1.1776 1.3686 1.9043 1.9043l-1.0332 1.7891 1.7305 1 0.63086-1.0938c-0.01676-1.9496-0.72378-3.3736-1.5977-4.7461-0.0014-2e-3 -0.0025-4e-3 -0.0039-6e-3 -0.87186-1.1672-1.3945-2.6107-1.3945-4.1797 0-3.866 3.134-7 7-7 2.1906 5e-3 4.2527 1.0347 5.5723 2.7832l1.6641-1.1152c-0.53566-0.72668-1.1776-1.3686-1.9043-1.9043l1.0332-1.7891-1.7305-1-1.0332 1.7891c-0.8273-0.3616-1.7043-0.59665-2.6016-0.69726v-2.0664zm1 5c-3.3137 0-6 2.6863-6 6 0.0017 1.3172 0.53054 2.5317 1.2383 3.6426 0.9257 1.453 1.7617 3.1196 1.7617 5.3574h6c0-2.2458 0.84533-3.9142 1.7715-5.373 0.32953-0.51905 0.61265-1.0627 0.82812-1.627h-1.0898c-0.16465 0.3653-0.35217 0.72973-0.58203 1.0918-0.81848 1.2892-1.5182 2.9369-1.7461 4.9082h-4.3613c-0.22606-1.9635-0.91869-3.608-1.7383-4.8945-0.65157-1.0227-1.0806-2.057-1.082-3.1074 0.0011-2.7723 2.2274-4.998 5-4.998 2.0599 0 3.8137 1.2316 4.582 3h1.0703c-0.82427-2.3293-3.0407-4-5.6523-4zm0 5v2h6.9199c-0.17052 1.1814-0.63427 2.255-1.3047 3.1602v2e-3c-0.8783 1.3834-1.5944 2.8111-1.6113 4.7695l0.63086 1.0938 1.7305-1-1.0332-1.7891c0.72668-0.53567 1.3686-1.1776 1.9043-1.9043l1.7891 1.0332 1-1.7305-1.7891-1.0332c0.3616-0.8273 0.59665-1.7043 0.69727-2.6016h2.0664v-2h-4.0781zm-3.5 11c-0.277 0-0.5 0.223-0.5 0.5s0.223 0.5 0.5 0.5h7c0.277 0 0.5-0.223 0.5-0.5s-0.223-0.5-0.5-0.5zm0 2c-0.277 0-0.5 0.223-0.5 0.5s0.223 0.5 0.5 0.5h7c0.277 0 0.5-0.223 0.5-0.5s-0.223-0.5-0.5-0.5zm2 2c-0.277 0-0.5 0.223-0.5 0.5s0.223 0.5 0.5 0.5h3c0.277 0 0.5-0.223 0.5-0.5s-0.223-0.5-0.5-0.5z" style="opacity:.1;paint-order:normal"/>
 <path d="m23 11v2.0606c-0.89802 0.10104-1.7757 0.33676-2.6035 0.69922l-1.0312-1.7852-1.7305 1 1.0332 1.7891c-0.72668 0.53567-1.3686 1.1776-1.9043 1.9043l-1.7891-1.0332-1 1.7305 1.7891 1.0332c-0.3616 0.8273-0.59665 1.7043-0.69727 2.6016h-2.0664v2h2.0605c0.10104 0.89802 0.33676 1.7757 0.69922 2.6035l-1.7852 1.0312 1 1.7305 1.7891-1.0332c0.53566 0.72668 1.1776 1.3686 1.9043 1.9043l-1.0332 1.7891 1.7305 1 0.63086-1.0938c-0.01676-1.9496-0.72378-3.3736-1.5977-4.7461-0.0014-2e-3 -0.0025-4e-3 -0.0039-6e-3 -0.87186-1.1672-1.3945-2.6107-1.3945-4.1797 0-3.866 3.134-7 7-7 2.1906 5e-3 4.2527 1.0347 5.5723 2.7832l1.6641-1.1152c-0.53566-0.72668-1.1776-1.3686-1.9043-1.9043l1.0332-1.7891-1.7305-1-1.0332 1.7891c-0.8273-0.3616-1.7043-0.59665-2.6016-0.69726v-2.0664zm1 5c-3.3137 0-6 2.6863-6 6 0.0017 1.3172 0.53054 2.5317 1.2383 3.6426 0.9257 1.453 1.7617 3.1196 1.7617 5.3574h6c0-2.2458 0.84533-3.9142 1.7715-5.373 0.32953-0.51905 0.61265-1.0627 0.82812-1.627h-1.0898c-0.16465 0.3653-0.35217 0.72973-0.58203 1.0918-0.81848 1.2892-1.5182 2.9369-1.7461 4.9082h-4.3613c-0.22606-1.9635-0.91869-3.608-1.7383-4.8945-0.65157-1.0227-1.0806-2.057-1.082-3.1074 0.0011-2.7723 2.2274-4.998 5-4.998 2.0599 0 3.8137 1.2316 4.582 3h1.0703c-0.82427-2.3293-3.0407-4-5.6523-4zm0 5v2h6.9199c-0.17052 1.1814-0.63427 2.255-1.3047 3.1602v2e-3c-0.8783 1.3834-1.5944 2.8111-1.6113 4.7695l0.63086 1.0938 1.7305-1-1.0332-1.7891c0.72668-0.53567 1.3686-1.1776 1.9043-1.9043l1.7891 1.0332 1-1.7305-1.7891-1.0332c0.3616-0.8273 0.59665-1.7043 0.69727-2.6016h2.0664v-2h-4.0781zm-3.5 11c-0.277 0-0.5 0.223-0.5 0.5s0.223 0.5 0.5 0.5h7c0.277 0 0.5-0.223 0.5-0.5s-0.223-0.5-0.5-0.5zm0 2c-0.277 0-0.5 0.223-0.5 0.5s0.223 0.5 0.5 0.5h7c0.277 0 0.5-0.223 0.5-0.5s-0.223-0.5-0.5-0.5zm2 2c-0.277 0-0.5 0.223-0.5 0.5s0.223 0.5 0.5 0.5h3c0.277 0 0.5-0.223 0.5-0.5s-0.223-0.5-0.5-0.5z" style="fill:#7aaff9;paint-order:normal"/>
</svg>
