<svg version="1.1" viewBox="0 0 48 48" xmlns="http://www.w3.org/2000/svg">
 <defs>
  <linearGradient id="bg" x2="0" y1="1" y2="47" gradientUnits="userSpaceOnUse">
   <stop style="stop-color:#71464c" offset="0"/>
   <stop style="stop-color:#643f43" offset="1"/>
  </linearGradient>
 </defs>
 <path d="m1 43v0.25c0 2.22 1.78 4 4 4h38c2.22 0 4-1.78 4-4v-0.25c0 2.22-1.78 4-4 4h-38c-2.22 0-4-1.78-4-4zm0 0.5v0.5c0 2.22 1.78 4 4 4h38c2.22 0 4-1.78 4-4v-0.5c0 2.22-1.78 4-4 4h-38c-2.22 0-4-1.78-4-4z" style="opacity:.02"/>
 <path d="m1 43.2v0.25c0 2.22 1.78 4 4 4h38c2.22 0 4-1.78 4-4v-0.25c0 2.22-1.78 4-4 4h-38c-2.22 0-4-1.78-4-4z" style="opacity:.05"/>
 <path d="m1 43v0.25c0 2.22 1.78 4 4 4h38c2.22 0 4-1.78 4-4v-0.25c0 2.22-1.78 4-4 4h-38c-2.22 0-4-1.78-4-4z" style="opacity:.1"/>
 <rect x="1" y="1" width="46" height="46" rx="4" style="fill:url(#bg)"/>
 <path d="m1 39v4c0 2.22 1.78 4 4 4h38c2.22 0 4-1.78 4-4v-4c0 2.22-1.78 4-4 4h-38c-2.22 0-4-1.78-4-4z" style="opacity:.1"/>
 <path d="m23 8c-5e-5 -3e-5 -9 6.5-9 6.5l-3 3.5v1.5c0 0.801 0.48 1.5 1 2v-1.9c0.647 1.01 1.47 1.01 2 0.4-0.598 0-1-0.334-1-1 0.641 0.5 1.3 0.576 2 0-0.69-0.337-1-0.494-1-1h1c0.655 0 0.64-0.524 1-1.5 0 1.19 1 1.5 1 2.5v3h-2c0.758 1.47 1.51 2 3 2 0.731 0 1-1 1-1l1-5c1.1 0 2-1.34 2-3h1c2.05 0 3.91 0.777 5.32 2.04 0.0028 0.0017 5e-3 0.0041 0.0078 0.0059 1.75 1.6 2.63 3.65 2.67 5.95 0.0763 5-4 9-9 9l-6.99-2.13-2e-3 -2e-3s-2.01-2.66-2.01-4.26c0-1.6 0.21-3.41 2-4.6-2 0-5 2-5 6 0 5 5 11 13 11 8.28 0 15-5.72 15-14 0-3.38-1.19-7.36-5-10 0.625 0 1.54 0.148 2.46 0.656-1-1.66-2.46-2.19-4.46-2.66 0.716 0 1.55 0.0504 2.4 0.201-1.5-1.63-3.75-1.8-5.9-2.2h3c-1.41-0.508-3.06-0.993-4.5-1-2-0.01-3.17 0.656-4 1 0.714-0.815 2.16-1.48 3.5-1.8-0.808-0.13-1.64-0.203-2.5-0.203z" style="opacity:.1"/>
 <path d="m16 11h-1c-0.554 0-1 0.446-1 1v1.5c0 2.01-3 1.5-3 3.5v1.5c0 0.801 0.48 1.5 1 2v-1.9c0.647 1.01 1.47 1.01 2 0.4-0.598 0-1-0.334-1-1 0.641 0.5 1.3 0.576 2 0-0.69-0.337-1-0.494-1-1h1c0.655 0 0.64-0.524 1-1.5 0 1.19 1 1.5 1 2.5v3h-2c0.758 1.47 1.51 2 3 2 0.731 0 1-1 1-1l1-5c1.1 0 2-1.34 2-3l0.5-1 0.5 1c4.42-8.8e-5 8 3.58 8 8 0 5-4 9-9 9-6 0-9-3-9-6.4 0-1.6 0.21-3.41 2-4.6-2 0-5 2-5 6 0 5 5 11 13 11 8.28 0 15-5.72 15-14 0-3.38-1.19-7.36-5-10l-2-2-5-2h-4l-4-0.4z" style="fill:#e85655"/>
 <path d="m16 12-1 2h1zm5 0c0.65 0.535 1 0.873 1 2h1c0-1-0.684-2-2-2zm-8 4-1 1h1z" style="fill:#853c31"/>
 <path d="m21 12.5v2c0 0.5-0.656 1.24-1 1.61 0.694-0.109 2-0.564 2-2.11 0-0.446-0.524-1.22-1-1.5zm-1 3.61c-1 2.08-1.9 5.28-2.4 5.39l-1.1 0.5h1.6c0.0993 0 0.489 0 0.7-1z" style="fill:#f7a47e"/>
 <path d="m28.3 16c1.64 1.46 2.68 3.59 2.68 5.96 0 5-4 9-9 9-3.17 0-5.5-0.844-6.99-2.14 1.83 2.06 4.52 3.14 7.99 3.14 5.56 0 9-4.59 9-9 0-3.21-1.44-5.55-3.68-6.96z" style="fill:#f8cd67"/>
 <path d="m23 7c-4 0-6.71 2-7 4 2.24-2 4.67-2 6-2 0.714-0.815 2.16-1.48 3.5-1.8-0.808-0.13-1.64-0.203-2.5-0.203zm-1 2c6 0 10 3.18 11 4 0.625 0 1.54 0.148 2.46 0.656-1-1.66-2.46-2.19-4.46-2.66 0.716 0 1.55 0.0504 2.4 0.201-1.5-1.63-3.75-1.8-5.9-2.2h3c-1.41-0.508-3.06-0.993-4.5-1-2-0.01-3.17 0.656-4 1z" style="fill:#f8cd67"/>
</svg>
