<svg width="48" height="48" viewBox="0 0 48 48.000001" xmlns="http://www.w3.org/2000/svg">
  <defs>
    <linearGradient id="a" x1="-47" x2="-1" gradientUnits="userSpaceOnUse">
      <stop offset="0" stop-color="#aa3434"/>
      <stop offset="1" stop-color="#b93939"/>
    </linearGradient>
  </defs>
  <path d="M1 43v.25c0 2.216 1.784 4 4 4h38c2.216 0 4-1.784 4-4V43c0 2.216-1.784 4-4 4H5c-2.216 0-4-1.784-4-4zm0 .5v.5c0 2.216 1.784 4 4 4h38c2.216 0 4-1.784 4-4v-.5c0 2.216-1.784 4-4 4H5c-2.216 0-4-1.784-4-4z" opacity=".02"/>
  <path d="M1 43.25v.25c0 2.216 1.784 4 4 4h38c2.216 0 4-1.784 4-4v-.25c0 2.216-1.784 4-4 4H5c-2.216 0-4-1.784-4-4z" opacity=".05"/>
  <path d="M1 43v.25c0 2.216 1.784 4 4 4h38c2.216 0 4-1.784 4-4V43c0 2.216-1.784 4-4 4H5c-2.216 0-4-1.784-4-4z" opacity=".1"/>
  <rect transform="rotate(-90)" x="-47" y="1" width="46" height="46" rx="4" fill="url(#a)"/>
  <path d="M1 39v4c0 2.216 1.784 4 4 4h38c2.216 0 4-1.784 4-4v-4c0 2.216-1.784 4-4 4H5c-2.216 0-4-1.784-4-4zM24 11a12.978 12.978 0 0 0-10.295 5.088A2.992 2.992 0 0 0 13 16a3 3 0 0 0-1.744 5.439c-.17.843-.255 1.701-.256 2.561 0 7.18 5.82 13 13 13 6 0 11.398-1 13-2-2.862-.924-1.85-4-.996-6l-.008.006a12.814 12.814 0 0 0 .732-7.567 3.002 3.002 0 0 0 1.268-2.443 3 3 0 0 0-3-3c-.235.001-.469.03-.697.086a12.988 12.988 0 0 0-10.303-5.086" opacity=".1"/>
  <g transform="translate(0 -1)">
    <circle cx="24" cy="24" r="13" fill="#e8e8e8"/>
    <circle cx="13" cy="19" r="3" fill="#e8e8e8"/>
    <circle cx="35" cy="19" r="3" fill="#e8e8e8"/>
    <ellipse transform="matrix(.95289 -.30331 .22003 .97549 0 0)" cx="22.999" cy="27.653" rx="3.01" ry="3.992" fill="#303030"/>
    <ellipse transform="matrix(-.95289 -.30331 -.22003 .97549 0 0)" cx="-24" cy="13.04" rx="3.01" ry="3.992" fill="#303030"/>
    <path d="M20.291 16a2.985 4.01 6.451 0 0-3.161 3.09 2.985 4.01 6.451 0 0 1.515 4.592 2.985 4.01 6.451 0 1-.515-3.592A2.985 4.01 6.451 0 1 21.291 17a2.985 4.01 6.451 0 1 .588.11 2.985 4.01 6.451 0 1 .475.212 2.985 4.01 6.451 0 0-1.475-1.212 2.985 4.01 6.451 0 0-.588-.11zm7.418 0a4.01 2.985 83.55 0 0-.589.11 4.01 2.985 83.55 0 0-1.99 4.802 4.01 2.985 83.55 0 0 1.704 2.656 4.01 2.985 83.55 0 1-.704-1.656 4.01 2.985 83.55 0 1 1.99-4.802 4.01 2.985 83.55 0 1 .589-.11 4.01 2.985 83.55 0 1 1.451.422A4.01 2.985 83.55 0 0 27.709 16z" fill-opacity=".595" opacity=".1"/>
    <path d="M24 37c6 0 11.398-1 13-2-2.862-.924-1.851-4-.997-6z" fill="#e8e8e8"/>
  </g>
</svg>
