<svg version="1.1" viewBox="0 0 48 48" xmlns="http://www.w3.org/2000/svg">
 <defs>
  <linearGradient id="bg" x1="-47" x2="-1" y1="0" y2="0" gradientUnits="userSpaceOnUse">
   <stop style="stop-color:#b83d3d" offset="0"/>
   <stop style="stop-color:#c24747" offset="1"/>
  </linearGradient>
 </defs>
 <path d="m1 43v0.25c0 2.22 1.78 4 4 4h38c2.22 0 4-1.78 4-4v-0.25c0 2.22-1.78 4-4 4h-38c-2.22 0-4-1.78-4-4zm0 0.5v0.5c0 2.22 1.78 4 4 4h38c2.22 0 4-1.78 4-4v-0.5c0 2.22-1.78 4-4 4h-38c-2.22 0-4-1.78-4-4z" style="opacity:.02"/>
 <path d="m1 43.3v0.25c0 2.22 1.78 4 4 4h38c2.22 0 4-1.78 4-4v-0.25c0 2.22-1.78 4-4 4h-38c-2.22 0-4-1.78-4-4z" style="opacity:.05"/>
 <path d="m1 43v0.25c0 2.22 1.78 4 4 4h38c2.22 0 4-1.78 4-4v-0.25c0 2.22-1.78 4-4 4h-38c-2.22 0-4-1.78-4-4z" style="opacity:.1"/>
 <rect transform="rotate(-90)" x="-47" y="1" width="46" height="46" rx="4" style="fill:url(#bg)"/>
 <path d="m1 39v4c0 2.22 1.78 4 4 4h38c2.22 0 4-1.78 4-4v-4c0 2.22-1.78 4-4 4h-38c-2.22 0-4-1.78-4-4z" style="opacity:.1"/>
 <path d="m13 16c-1.66 0-3 1.34-3 3 0 0.968 0.468 1.88 1.26 2.44-0.17 0.843-0.255 1.7-0.256 2.56 0 7.18 5.82 13 13 13 6 0 11.4-1 13-2-2.86-0.924-1.85-4-0.996-6l-8e-3 6e-3c0.662-1.59 1.01-3.29 1-5.01-1e-3 -0.859-0.094-1.72-0.268-2.56 0.793-0.561 1.27-1.47 1.27-2.44 0-1.66-1.34-3-3-3" style="opacity:.1"/>
 <circle cx="24" cy="23" r="13" style="fill:#f5f5f5"/>
 <circle cx="13" cy="18" r="3" style="fill:#f5f5f5"/>
 <circle cx="35" cy="18" r="3" style="fill:#f5f5f5"/>
 <path d="m20.1 15a2.98 4.01 6.45 0 0-2.97 3.08 2.98 4.01 6.45 0 0 1.99 4.81 2.98 4.01 6.45 0 0 3.75-2.98 2.98 4.01 6.45 0 0-1.99-4.81 2.98 4.01 6.45 0 0-0.773-0.104zm7.79 0a4.01 2.98 83.5 0 0-0.773 0.104 4.01 2.98 83.5 0 0-1.99 4.81 4.01 2.98 83.5 0 0 3.75 2.98 4.01 2.98 83.5 0 0 1.99-4.81 4.01 2.98 83.5 0 0-2.97-3.08z" style="fill:#4d4d4d"/>
 <path d="m20.3 15a2.98 4.01 6.45 0 0-3.16 3.09 2.98 4.01 6.45 0 0 1.52 4.59 2.98 4.01 6.45 0 1-0.515-3.59 2.98 4.01 6.45 0 1 3.16-3.09 2.98 4.01 6.45 0 1 0.588 0.11 2.98 4.01 6.45 0 1 0.475 0.212 2.98 4.01 6.45 0 0-1.48-1.21 2.98 4.01 6.45 0 0-0.588-0.11zm7.42 0a4.01 2.98 83.6 0 0-0.589 0.11 4.01 2.98 83.6 0 0-1.99 4.8 4.01 2.98 83.6 0 0 1.7 2.66 4.01 2.98 83.6 0 1-0.704-1.66 4.01 2.98 83.6 0 1 1.99-4.8 4.01 2.98 83.6 0 1 0.589-0.11 4.01 2.98 83.6 0 1 1.45 0.422 4.01 2.98 83.6 0 0-2.45-1.42z" style="opacity:.1"/>
 <path d="m24 36c6 0 11.4-1 13-2-2.86-0.924-1.85-4-0.997-6z" style="fill:#f5f5f5"/>
</svg>
