<svg version="1.1" viewBox="0 0 48 48" xmlns="http://www.w3.org/2000/svg">
 <defs>
  <linearGradient id="bg" x2="0" y1="1" y2="47" gradientUnits="userSpaceOnUse">
   <stop style="stop-color:#f45252" offset="0"/>
   <stop style="stop-color:#f33e3e" offset="1"/>
  </linearGradient>
 </defs>
 <path d="m1 43v0.25c0 2.22 1.78 4 4 4h38c2.22 0 4-1.78 4-4v-0.25c0 2.22-1.78 4-4 4h-38c-2.22 0-4-1.78-4-4zm0 0.5v0.5c0 2.22 1.78 4 4 4h38c2.22 0 4-1.78 4-4v-0.5c0 2.22-1.78 4-4 4h-38c-2.22 0-4-1.78-4-4z" style="opacity:.02"/>
 <path d="m1 43.2v0.25c0 2.22 1.78 4 4 4h38c2.22 0 4-1.78 4-4v-0.25c0 2.22-1.78 4-4 4h-38c-2.22 0-4-1.78-4-4z" style="opacity:.05"/>
 <path d="m1 43v0.25c0 2.22 1.78 4 4 4h38c2.22 0 4-1.78 4-4v-0.25c0 2.22-1.78 4-4 4h-38c-2.22 0-4-1.78-4-4z" style="opacity:.1"/>
 <rect x="1" y="1" width="46" height="46" rx="4" style="fill:url(#bg)"/>
 <path d="m1 39v4c0 2.22 1.78 4 4 4h38c2.22 0 4-1.78 4-4v-4c0 2.22-1.78 4-4 4h-38c-2.22 0-4-1.78-4-4z" style="opacity:.1"/>
 <path d="m21.7 11.2c-4.1-0.0211-7.35 6.98-5.66 11.2 4.65-4.53 9.09-3.73 8.18-9.44 0.491 0.591 1.17 1.6 1.32 2.98 0.215 2.04-0.74 4.87-5.86 8.09-0.211-0.0227-0.427-0.0352-0.645-0.0352-3.31 0-6 2.69-6 6s2.69 6 6 6c1.72 0 3.25-0.723 4.34-1.88-0.852-1.16-1.34-2.12-1.34-4.12s0.492-2.96 1.34-4.12c-0.648-0.682-1.45-1.21-2.36-1.53 4.62-3.16 5.75-6.19 5.51-8.51-0.191-1.81-0.939-2.29-1.52-2.93 1.56 0.236 2.96 0.589 3.62 1.45 0.839 1.09 1.14 2.6 1.14 4.16 2.99e-4 2.19-0.586 4.36-0.941 5.5-3.22 0.105-5.8 2.74-5.8 5.99 0 3.31 2.69 6 6 6s6-2.69 6-6c0-3.03-2.25-5.53-5.17-5.94 0.379-1.24 0.916-3.34 0.916-5.55-2.3e-4 -1.69-0.322-3.42-1.36-4.77-0.97-1.26-2.71-1.96-5.05-2.09-0.337-0.0183-0.621-0.0212-0.988-0.0293-0.572-0.281-1.14-0.419-1.69-0.422z" style="opacity:.1"/>
 <path d="m22.7 10.6 0.988 0.789s1.6 1.4 1.83 3.55-0.844 5.19-6.75 8.64l0.505 0.865c6.09-3.55 7.52-7.02 7.25-9.61-0.191-1.81-0.939-2.29-1.52-2.93 1.56 0.236 2.96 0.588 3.62 1.45 0.839 1.09 1.14 2.6 1.14 4.16 4.26e-4 3.12-1.21 6.33-1.21 6.33l0.934 0.36s1.28-3.31 1.28-6.69c-2.3e-4 -1.69-0.321-3.42-1.36-4.77-0.97-1.26-2.71-1.96-5.05-2.09-0.563-0.0306-1.65-0.0485-1.65-0.0485z" style="fill:#f9f9f9"/>
 <path d="m19 23c-3.31 0-6 2.69-6 6s2.69 6 6 6c1.72 0 3.25-0.723 4.34-1.88-0.852-1.16-1.34-2.12-1.34-4.12s0.492-2.96 1.34-4.12c-1.09-1.15-2.63-1.88-4.34-1.88" style="fill:#f9f9f9"/>
 <path d="m24 11c1.58 6.79-3.1 5.63-8 10.4-2-5 2.94-13.9 8-10.4" style="fill:#f9f9f9"/>
 <path d="m35 29c0 3.31-2.69 6-6 6s-6-2.69-6-6 2.69-6 6-6 6 2.69 6 6" style="fill:#f9f9f9"/>
</svg>
