<svg version="1.1" viewBox="0 0 48 48" xmlns="http://www.w3.org/2000/svg">
 <defs>
  <linearGradient id="bg" x2="0" y1="1" y2="47" gradientUnits="userSpaceOnUse">
   <stop style="stop-color:#bb81e7" offset="0"/>
   <stop style="stop-color:#b270e4" offset="1"/>
  </linearGradient>
 </defs>
 <path d="m1 43v0.25c0 2.216 1.784 4 4 4h38c2.216 0 4-1.784 4-4v-0.25c0 2.216-1.784 4-4 4h-38c-2.216 0-4-1.784-4-4zm0 0.5v0.5c0 2.216 1.784 4 4 4h38c2.216 0 4-1.784 4-4v-0.5c0 2.216-1.784 4-4 4h-38c-2.216 0-4-1.784-4-4z" style="opacity:.02"/>
 <path d="m1 43.25v0.25c0 2.216 1.784 4 4 4h38c2.216 0 4-1.784 4-4v-0.25c0 2.216-1.784 4-4 4h-38c-2.216 0-4-1.784-4-4z" style="opacity:.05"/>
 <path d="m1 43v0.25c0 2.216 1.784 4 4 4h38c2.216 0 4-1.784 4-4v-0.25c0 2.216-1.784 4-4 4h-38c-2.216 0-4-1.784-4-4z" style="opacity:.1"/>
 <rect x="1" y="1" width="46" height="46" rx="4" style="fill:url(#bg)"/>
 <path d="m1 39v4c0 2.216 1.784 4 4 4h38c2.216 0 4-1.784 4-4v-4c0 2.216-1.784 4-4 4h-38c-2.216 0-4-1.784-4-4z" style="opacity:.1"/>
 <path d="m13 11v2h10v2h-10v2h10v2h-10v2h10v2h-10v2h10v2h-10v2h9c-1.3864 0-2.9266 0.74695-3.9277 2h-5.0723v2h4.1074c-0.06816 0.31934-0.10742 0.65222-0.10742 1 0 0.37169 0.08688 0.69739 0.20898 1h-4.209v2h22v-2h-10.84c0.36916-0.56902 0.63323-1.24 0.75586-2h10.084v-2h-10v-2h3.3711c-0.19611 0.67682-0.37109 1.1699-0.37109 1.1699s0.51053-0.39124 1.1074-1.1699h5.8926v-2h-4.7676c0.24096-0.58584 0.45377-1.2366 0.58984-2h4.1777v-2h-4c0-0.72558-0.13748-1.3824-0.35352-2h4.3535v-2h-5.3965c-0.48215-0.69284-1.0432-1.3463-1.6035-2h7v-2h-8.6035c-0.43393-0.62354-0.79272-1.2846-1.043-2h9.6465v-2h-12zm12 7c0.53818 0.35879 0.99102 0.68248 1.4062 1h-1.4062zm0 3h3.25c0.30223 0.55492 0.50136 1.2056 0.61523 2h-3.8652zm0 4h4c0 0.68873-0.07344 1.3649-0.17578 2h-3.8242z" style="opacity:.1;paint-order:normal"/>
 <path d="m13 10v2h22v-2zm0 4v2h22v-2zm0 4v2h22v-2zm0 4v2h22v-2zm0 4v2h22v-2zm0 4v2h22v-2zm0 4v2h22v-2z" style="fill:#8c22a4;paint-order:normal"/>
 <path d="m25 18c1.1029 0.73525 1.931 1.3363 2.543 2h2.6641c-0.37657-0.70741-0.85674-1.3634-1.375-2zm3.6523 4c0.16455 0.56246 0.26953 1.2169 0.3125 2h1.9902c0.027064-0.32092 0.044922-0.65186 0.044922-1 0-0.34801-0.03381-0.67904-0.08789-1zm0.30078 4c-0.06413 0.73141-0.19708 1.3889-0.33594 2h1.1367c0.31455-0.55797 0.61416-1.2064 0.83984-2zm-9.8125 4c-0.70431 0.5057-1.3162 1.1744-1.6992 2h7.5586v-2zm8.9199 0c-0.016765 0.045197-0.060547 0.16992-0.060547 0.16992s0.13547-0.12418 0.19141-0.16992zm-11.061 4c0 0.85185 0.37377 1.511 0.90625 2h5.3555c0.6105-0.50531 1.1003-1.1755 1.3984-2z" style="opacity:.1;paint-order:normal"/>
 <path d="m23 10v18h-1c-2.281 0-5 2-5 5 0 2 2 3 3.5 3 2.5 0 4.5-2 4.5-5v-14c3 2 4 3 4 7 0 2.6127-1 5.1695-1 5.1695s3-2.1695 3-7.1695-6-7-6-12z" style="fill:#f9f9f9;paint-order:normal"/>
</svg>
