<?xml version="1.0" encoding="UTF-8" standalone="no"?>
<svg
   xmlns:dc="http://purl.org/dc/elements/1.1/"
   xmlns:cc="http://creativecommons.org/ns#"
   xmlns:rdf="http://www.w3.org/1999/02/22-rdf-syntax-ns#"
   xmlns:svg="http://www.w3.org/2000/svg"
   xmlns="http://www.w3.org/2000/svg"
   xmlns:sodipodi="http://sodipodi.sourceforge.net/DTD/sodipodi-0.dtd"
   xmlns:inkscape="http://www.inkscape.org/namespaces/inkscape"
   viewBox="0 0 48 48"
   version="1.1"
   id="svg9418"
   sodipodi:docname="glade.svg">
  <metadata
     id="metadata9422">
    <rdf:RDF>
      <cc:Work
         rdf:about="">
        <dc:format>image/svg+xml</dc:format>
        <dc:type
           rdf:resource="http://purl.org/dc/dcmitype/StillImage" />
      </cc:Work>
    </rdf:RDF>
  </metadata>
  <sodipodi:namedview
     pagecolor="#ffffff"
     bordercolor="#666666"
     borderopacity="1"
     objecttolerance="10"
     gridtolerance="10"
     guidetolerance="10"
     inkscape:pageopacity="0"
     inkscape:pageshadow="2"
     inkscape:window-width="640"
     inkscape:window-height="480"
     id="namedview9420" />
  <defs
     id="defs9378">
    <linearGradient
       id="linearGradient3764"
       x1="1"
       x2="47"
       gradientUnits="userSpaceOnUse"
       gradientTransform="translate(-48.000001,0.00221467)">
      <stop
         stop-color="#e7e7e7"
         stop-opacity="1"
         id="stop9363" />
      <stop
         offset="1"
         stop-color="#f1f1f1"
         stop-opacity="1"
         id="stop9365" />
    </linearGradient>
    <clipPath
       id="clipPath-225296199">
      <g
         transform="translate(0,-1004.3622)"
         id="g9370">
        <rect
           rx="4"
           y="1005.36"
           x="1"
           height="46"
           width="46"
           fill="#1890d0"
           id="rect9368" />
      </g>
    </clipPath>
    <clipPath
       id="clipPath-237929076">
      <g
         transform="translate(0,-1004.3622)"
         id="g9375">
        <rect
           rx="4"
           y="1005.36"
           x="1"
           height="46"
           width="46"
           fill="#1890d0"
           id="rect9373" />
      </g>
    </clipPath>
  </defs>
  <g
     id="g9386">
    <path
       d="m 1 43 l 0 0.25 c 0 2.216 1.784 4 4 4 l 38 0 c 2.216 0 4 -1.784 4 -4 l 0 -0.25 c 0 2.216 -1.784 4 -4 4 l -38 0 c -2.216 0 -4 -1.784 -4 -4 z m 0 0.5 l 0 0.5 c 0 2.216 1.784 4 4 4 l 38 0 c 2.216 0 4 -1.784 4 -4 l 0 -0.5 c 0 2.216 -1.784 4 -4 4 l -38 0 c -2.216 0 -4 -1.784 -4 -4 z"
       opacity="0.02"
       id="path9380" />
    <path
       d="m 1 43.25 l 0 0.25 c 0 2.216 1.784 4 4 4 l 38 0 c 2.216 0 4 -1.784 4 -4 l 0 -0.25 c 0 2.216 -1.784 4 -4 4 l -38 0 c -2.216 0 -4 -1.784 -4 -4 z"
       opacity="0.05"
       id="path9382" />
    <path
       d="m 1 43 l 0 0.25 c 0 2.216 1.784 4 4 4 l 38 0 c 2.216 0 4 -1.784 4 -4 l 0 -0.25 c 0 2.216 -1.784 4 -4 4 l -38 0 c -2.216 0 -4 -1.784 -4 -4 z"
       opacity="0.1"
       id="path9384" />
  </g>
  <g
     id="g9390">
    <rect
       width="46"
       height="46"
       x="-47"
       y="1"
       rx="4"
       transform="matrix(0,-1,1,0,0,0)"
       fill="url(#linearGradient3764)"
       fill-opacity="1"
       id="rect9388" />
  </g>
  <g
     id="g9400">
    <g
       clip-path="url(#clipPath-225296199)"
       id="g9398">
      <g
         opacity="0.1"
         id="g9396">
        <!-- color: #f1f1f1 -->
        <g
           id="g9394">
          <path
             d="m 37 13 l -26 22 l 26 0 m -4.066 -12.32 l 0 7.922 l -9.75 0 m 9.75 -7.922"
             stroke="none"
             fill-rule="evenodd"
             fill-opacity="1"
             fill="#000"
             id="path9392" />
        </g>
      </g>
    </g>
  </g>
  <g
     id="g9410">
    <g
       clip-path="url(#clipPath-237929076)"
       id="g9408">
      <g
         transform="translate(0,-1)"
         id="g9406">
        <!-- color: #f1f1f1 -->
        <g
           id="g9404">
          <path
             d="m 37 13 l -26 22 l 26 0 m -4.066 -12.32 l 0 7.922 l -9.75 0 m 9.75 -7.922"
             fill="#78b920"
             stroke="none"
             fill-rule="evenodd"
             fill-opacity="1"
             id="path9402" />
        </g>
      </g>
    </g>
  </g>
  <g
     id="g9416">
    <g
       transform="translate(0,-1004.3622)"
       id="g9414">
      <path
         d="m 1 1043.36 0 4 c 0 2.216 1.784 4 4 4 l 38 0 c 2.216 0 4 -1.784 4 -4 l 0 -4 c 0 2.216 -1.784 4 -4 4 l -38 0 c -2.216 0 -4 -1.784 -4 -4 z"
         opacity="0.1"
         id="path9412" />
    </g>
  </g>
</svg>
