<svg id="svg9540" version="1.1" viewBox="0 0 48 48" xmlns="http://www.w3.org/2000/svg">
 <defs id="defs9500">
  <linearGradient id="linearGradient3764" x1="1" x2="47" gradientTransform="translate(-48 .0022147)" gradientUnits="userSpaceOnUse">
   <stop id="stop9485" stop-color="#e4e4e4" offset="0"/>
   <stop id="stop9487" stop-color="#eee" offset="1"/>
  </linearGradient>
  <clipPath id="clipPath-781633788">
   <g id="g9492" transform="translate(0 -1004.4)">
    <rect id="rect9490" x="1" y="1005.4" width="46" height="46" rx="4" fill="#1890d0"/>
   </g>
  </clipPath>
  <clipPath id="clipPath-794339478">
   <g id="g9497" transform="translate(0 -1004.4)">
    <rect id="rect9495" x="1" y="1005.4" width="46" height="46" rx="4" fill="#1890d0"/>
   </g>
  </clipPath>
 </defs>
 <g id="g9508">
  <path id="path9502" d="m1 43v0.25c0 2.216 1.784 4 4 4h38c2.216 0 4-1.784 4-4v-0.25c0 2.216-1.784 4-4 4h-38c-2.216 0-4-1.784-4-4zm0 0.5v0.5c0 2.216 1.784 4 4 4h38c2.216 0 4-1.784 4-4v-0.5c0 2.216-1.784 4-4 4h-38c-2.216 0-4-1.784-4-4z" opacity=".02"/>
  <path id="path9504" d="m1 43.25v0.25c0 2.216 1.784 4 4 4h38c2.216 0 4-1.784 4-4v-0.25c0 2.216-1.784 4-4 4h-38c-2.216 0-4-1.784-4-4z" opacity=".05"/>
  <path id="path9506" d="m1 43v0.25c0 2.216 1.784 4 4 4h38c2.216 0 4-1.784 4-4v-0.25c0 2.216-1.784 4-4 4h-38c-2.216 0-4-1.784-4-4z" opacity=".1"/>
 </g>
 <g id="g9512">
  <rect id="rect9510" transform="rotate(-90)" x="-47" y="1" width="46" height="46" rx="4" fill="url(#linearGradient3764)"/>
 </g>
 <g id="g9522">
  <g id="g9520" clip-path="url(#clipPath-781633788)">
   <g id="g9518" opacity=".1">
    <g id="g9516">
     <path id="path9514" d="m36 13.977s-2 3-5 3c-2.797-0.539-3.906-0.082-4 0v12.1c-0.133 2.551-2.223 5.105-5.336 6.281-3.949 1.492-8.125 0.195-9.332-2.906-1.211-3.098 1-6.848 4.953-8.34 3.059-1.156 5.867-0.871 7.715 0.863v-12c4-2.66 7.719 0.961 11 1"/>
    </g>
   </g>
  </g>
 </g>
 <g id="g9532">
  <g id="g9530" clip-path="url(#clipPath-794339478)">
   <g id="g9528" transform="translate(0,-1)">
    <g id="g9526">
     <path id="path9524" d="m36 13.977s-2 3-5 3c-2.797-0.539-3.906-0.082-4 0v12.1c-0.133 2.551-2.223 5.105-5.336 6.281-3.949 1.492-8.125 0.195-9.332-2.906-1.211-3.098 1-6.848 4.953-8.34 3.059-1.156 5.867-0.871 7.715 0.863v-12c4-2.66 7.719 0.961 11 1" fill="#2d4c78"/>
    </g>
   </g>
  </g>
 </g>
 <g id="g9538">
  <g id="g9536" transform="translate(0 -1004.4)">
   <path id="path9534" d="m1 1043.4v4c0 2.216 1.784 4 4 4h38c2.216 0 4-1.784 4-4v-4c0 2.216-1.784 4-4 4h-38c-2.216 0-4-1.784-4-4z" opacity=".1"/>
  </g>
 </g>
</svg>
