<svg version="1.1" viewBox="0 0 48 48" xmlns="http://www.w3.org/2000/svg">
 <defs>
  <linearGradient id="bg" x2="0" y1="1" y2="47" gradientUnits="userSpaceOnUse">
   <stop style="stop-color:#474747" offset="0"/>
   <stop style="stop-color:#3d3d3d" offset="1"/>
  </linearGradient>
 </defs>
 <path d="m1 43v0.25c0 2.216 1.784 4 4 4h38c2.216 0 4-1.784 4-4v-0.25c0 2.216-1.784 4-4 4h-38c-2.216 0-4-1.784-4-4zm0 0.5v0.5c0 2.216 1.784 4 4 4h38c2.216 0 4-1.784 4-4v-0.5c0 2.216-1.784 4-4 4h-38c-2.216 0-4-1.784-4-4z" style="opacity:.02"/>
 <path d="m1 43.25v0.25c0 2.216 1.784 4 4 4h38c2.216 0 4-1.784 4-4v-0.25c0 2.216-1.784 4-4 4h-38c-2.216 0-4-1.784-4-4z" style="opacity:.05"/>
 <path d="m1 43v0.25c0 2.216 1.784 4 4 4h38c2.216 0 4-1.784 4-4v-0.25c0 2.216-1.784 4-4 4h-38c-2.216 0-4-1.784-4-4z" style="opacity:.1"/>
 <rect x="1" y="1" width="46" height="46" rx="4" style="fill:url(#bg)"/>
 <path d="m1 39v4c0 2.216 1.784 4 4 4h38c2.216 0 4-1.784 4-4v-4c0 2.216-1.784 4-4 4h-38c-2.216 0-4-1.784-4-4z" style="opacity:.1"/>
 <path d="M 12.002,15.998 12,33 H 35.998 V 18.076 Z" style="opacity:.1"/>
 <path d="m12 15v3l13 4v-6l-1-2h-11c-0.5 0-1 0.5-1 1z" style="fill:#ff8f00"/>
 <rect x="14" y="17" width="11" height="4" style="fill:#fffdf0"/>
 <path d="m36 17.07v14.93h-24v-13.997h12l1-2h10c0.5 0 1 0.533 1 1.067z" style="fill:#ffca28"/>
 <path d="m26.5 19a3.5 3.5 0 0 0-3.5 3.5 3.5 3.5 0 0 0 0.4707 1.748l-5.4668 5.4668v1.2852h1.2852l0.71094-0.75v-0.75h0.5l0.5-0.5h1v-1l0.5-0.42969h1.0781v-0.85937l1.1797-1.1797a3.5 3.5 0 0 0 1.7422 0.46875 3.5 3.5 0 0 0 3.5-3.5 3.5 3.5 0 0 0-3.5-3.5zm0.5 2a1 1 0 0 1 1 1 1 1 0 0 1-1 1 1 1 0 0 1-1-1 1 1 0 0 1 1-1z" style="fill:#403018;opacity:.4"/>
</svg>
