<svg style="" version="1.1" viewBox="0 0 48 48" xmlns="http://www.w3.org/2000/svg">
 <defs style="">
  <linearGradient id="linearGradient3764" x1="1" x2="47" style="" gradientTransform="translate(-48 .002215)" gradientUnits="userSpaceOnUse">
   <stop style="stop-color:#428ac2" offset="0"/>
   <stop style="stop-color:#5295c7" offset="1"/>
  </linearGradient>
 </defs>
 <path d="m1 43v0.25c0 2.216 1.784 4 4 4h38c2.216 0 4-1.784 4-4v-0.25c0 2.216-1.784 4-4 4h-38c-2.216 0-4-1.784-4-4zm0 0.5v0.5c0 2.216 1.784 4 4 4h38c2.216 0 4-1.784 4-4v-0.5c0 2.216-1.784 4-4 4h-38c-2.216 0-4-1.784-4-4z" style="opacity:.02"/>
 <path d="m1 43.25v0.25c0 2.216 1.784 4 4 4h38c2.216 0 4-1.784 4-4v-0.25c0 2.216-1.784 4-4 4h-38c-2.216 0-4-1.784-4-4z" style="opacity:.05"/>
 <path d="m1 43v0.25c0 2.216 1.784 4 4 4h38c2.216 0 4-1.784 4-4v-0.25c0 2.216-1.784 4-4 4h-38c-2.216 0-4-1.784-4-4z" style="opacity:.1"/>
 <rect transform="rotate(-90)" x="-47" y="1" width="46" height="46" rx="4" style="fill:url(#linearGradient3764)"/>
 <path d="m1 39v4c0 2.216 1.784 4 4 4h38c2.216 0 4-1.784 4-4v-4c0 2.216-1.784 4-4 4h-38c-2.216 0-4-1.784-4-4z" style="opacity:.1"/>
 <path d="m12 32 2e-3 1h24l-2e-3 -1z" style="opacity:.1"/>
 <path d="m12 15v3l14 3-1-5-1-2h-11c-0.5 0-1 0.5-1 1z" style="fill:#ff8f00"/>
 <rect x="14" y="17" width="11" height="4" style="fill:#fffdf0"/>
 <path d="m36 17.07v14.93h-24v-13.997h12l1-2h10c0.5 0 1 0.533 1 1.067z" style="fill:#ffca28"/>
 <path d="m30 30.98v-12h-12v10.57l1.512 1.449m9.488-1h-2v-2h-6v2h-1l-1-1v-9h1v7h8v-7h1m-5 10h-2v-1h2m3-4h-6v-1h6m0-2h-6v-1h6" style="fill:#403018;opacity:.4"/>
</svg>
