<svg version="1.1" viewBox="0 0 48 48" xmlns="http://www.w3.org/2000/svg">
 <defs>
  <linearGradient id="bg" x1="-47" x2="-1" y1="0" y2="0" gradientUnits="userSpaceOnUse">
   <stop style="stop-color:#ef2945" offset="0"/>
   <stop style="stop-color:#f13b50" offset="1"/>
  </linearGradient>
 </defs>
 <path d="m1 43v0.25c0 2.22 1.78 4 4 4h38c2.22 0 4-1.78 4-4v-0.25c0 2.22-1.78 4-4 4h-38c-2.22 0-4-1.78-4-4zm0 0.5v0.5c0 2.22 1.78 4 4 4h38c2.22 0 4-1.78 4-4v-0.5c0 2.22-1.78 4-4 4h-38c-2.22 0-4-1.78-4-4z" style="opacity:.02"/>
 <path d="m1 43.3v0.25c0 2.22 1.78 4 4 4h38c2.22 0 4-1.78 4-4v-0.25c0 2.22-1.78 4-4 4h-38c-2.22 0-4-1.78-4-4z" style="opacity:.05"/>
 <path d="m1 43v0.25c0 2.22 1.78 4 4 4h38c2.22 0 4-1.78 4-4v-0.25c0 2.22-1.78 4-4 4h-38c-2.22 0-4-1.78-4-4z" style="opacity:.1"/>
 <rect transform="rotate(-90)" x="-47" y="1" width="46" height="46" rx="4" style="fill:url(#bg)"/>
 <path d="m1 39v4c0 2.22 1.78 4 4 4h38c2.22 0 4-1.78 4-4v-4c0 2.22-1.78 4-4 4h-38c-2.22 0-4-1.78-4-4z" style="opacity:.1"/>
 <path d="m24 9c-2.76 0-5 2.24-5 5v4.36c-3.09 1.78-5 5.08-5 8.64-0.0033 5.52 4.48 10 10 10s10-4.48 10-10c-0.0014-3.57-1.91-6.87-5-8.65v-4.35c0-2.76-2.24-5-5-5zm0 2c1.66 0 3 1.34 3 3v3.46l-6 7e-3v-3.47c0-1.66 1.34-3 3-3z" style="opacity:.1"/>
 <path d="m24 8a5 5 0 0 0-5 5v8h2v-8a3 3 0 0 1 3-3 3 3 0 0 1 3 3v8h2v-8a5 5 0 0 0-5-5z" style="fill:#acacac"/>
 <circle cx="24" cy="26" r="10" style="fill:#c8c8c8"/>
 <circle cx="24" cy="26" r="9" style="fill:#b4b4b4"/>
 <path d="m23 18.1c-1.42 0.178-2.77 0.735-3.91 1.61l-1.41 1.41v2e-3c-0.878 1.13-1.44 2.48-1.62 3.9l2e-3 2c0.178 1.42 0.736 2.77 1.61 3.91v-6e-3c0 6e-3 1.42 1.41 1.42 1.41 1.13 0.878 2.48 1.44 3.9 1.62l2-2e-3c1.42-0.177 2.77-0.734 3.91-1.61-2e-3 -1e-3 -4e-3 -1e-3 -6e-3 -2e-3l1.41-1.42c0.878-1.13 1.44-2.48 1.62-3.9l-2e-3 -2c-0.178-1.42-0.735-2.77-1.61-3.9l-2e-3 4e-3 -1.41-1.41c-1.13-0.879-2.48-1.44-3.9-1.62z" style="fill:#555"/>
 <path d="m24 18c-0.335 3e-3 -0.669 0.027-1 0.072v1.93h2v-1.93c-0.332-0.044-0.666-0.068-1-0.07m-4.9 1.69c-0.266 0.203-0.518 0.423-0.756 0.658-0.234 0.239-0.454 0.492-0.656 0.758l1.36 1.36 1.41-1.41zm9.8 2e-3 -1.36 1.36 1.41 1.41 1.36-1.36c-0.203-0.266-0.423-0.518-0.658-0.756-0.239-0.234-0.492-0.454-0.758-0.656zm-12.8 5.31c-0.044 0.332-0.068 0.666-0.07 1 3e-3 0.335 0.027 0.669 0.072 1h1.93v-2zm13.9 0v2h1.93c0.044-0.332 0.068-0.666 0.07-1-3e-3 -0.335-0.027-0.669-0.072-1h-1.93m-10.9 4.54-1.36 1.36c0.203 0.266 0.423 0.518 0.658 0.756 0.239 0.234 0.492 0.454 0.758 0.656l1.36-1.36zm9.9 0-1.41 1.41 1.36 1.36c0.266-0.203 0.518-0.423 0.756-0.658 0.234-0.239 0.454-0.492 0.656-0.758zm-5.95 2.46v1.93c0.332 0.044 0.666 0.068 1 0.07 0.335-3e-3 0.669-0.027 1-0.072v-1.93z" style="fill:#f2f2f2"/>
 <path d="m24 19.5-2.31 5.09a3 3 0 0 0-0.686 1.91 3 3 0 0 0 3 3 3 3 0 0 0 3-3 3 3 0 0 0-0.684-1.9l-2.32-5.1" style="opacity:.1"/>
 <path d="m24 19 2.5 5.5h-5z" style="fill:#f6565f"/>
 <circle cx="24" cy="26" r="3" style="fill:#b4b4b4"/>
 <path d="m24 18c-0.326 0.0029-0.651 0.0277-0.973 0.0703h-0.0273c-1.42 0.178-2.77 0.735-3.91 1.61l-0.0527 0.0527c-0.243 0.19-0.478 0.391-0.697 0.607-0.225 0.23-0.435 0.474-0.631 0.729l-0.0254 0.0254v4e-3c-0.877 1.13-1.44 2.48-1.62 3.89v0.0039c-0.044 0.332-0.0664 0.666-0.0684 1 7.38e-4 0.0824 0.0144 0.164 0.0176 0.246 0.0093-0.249 0.018-0.498 0.0508-0.746v-0.0039c0.18-1.42 0.74-2.76 1.62-3.89v-4e-3l0.0254-0.0254c0.196-0.255 0.406-0.499 0.631-0.729 0.22-0.217 0.454-0.418 0.697-0.607l0.0527-0.0527c1.13-0.878 2.48-1.44 3.91-1.61h0.0273c0.322-0.0426 0.647-0.0673 0.973-0.0703 0.325 0.0019 0.65 0.0265 0.973 0.0684h0.0254c1.42 0.18 2.77 0.738 3.9 1.62l0.0273 0.0273c0.255 0.196 0.499 0.406 0.729 0.631 0.23 0.233 0.445 0.48 0.645 0.74l0.0137 0.0137 2e-3 -0.0039c0.877 1.13 1.44 2.48 1.61 3.9v2e-3c0.0339 0.25 0.0446 0.502 0.0547 0.754 0.0034-0.0848 0.0171-0.169 0.0176-0.254-3e-3 -0.335-0.0273-0.669-0.0723-1v-2e-3c-0.178-1.42-0.736-2.77-1.61-3.9l-2e-3 0.0039-0.0137-0.0137c-0.199-0.26-0.414-0.507-0.645-0.74-0.23-0.225-0.474-0.435-0.729-0.631l-0.0273-0.0273c-1.13-0.879-2.48-1.44-3.9-1.62h-0.0254c-0.323-0.0417-0.648-0.0664-0.973-0.0684z" style="opacity:.1"/>
</svg>
