<?xml version="1.0" encoding="UTF-8" standalone="no"?>
<svg
   xmlns:dc="http://purl.org/dc/elements/1.1/"
   xmlns:cc="http://creativecommons.org/ns#"
   xmlns:rdf="http://www.w3.org/1999/02/22-rdf-syntax-ns#"
   xmlns:svg="http://www.w3.org/2000/svg"
   xmlns="http://www.w3.org/2000/svg"
   xmlns:sodipodi="http://sodipodi.sourceforge.net/DTD/sodipodi-0.dtd"
   xmlns:inkscape="http://www.inkscape.org/namespaces/inkscape"
   viewBox="0 0 48 48"
   version="1.1"
   id="svg10852"
   sodipodi:docname="gnome-tetravex.svg">
  <metadata
     id="metadata10856">
    <rdf:RDF>
      <cc:Work
         rdf:about="">
        <dc:format>image/svg+xml</dc:format>
        <dc:type
           rdf:resource="http://purl.org/dc/dcmitype/StillImage" />
      </cc:Work>
    </rdf:RDF>
  </metadata>
  <sodipodi:namedview
     pagecolor="#ffffff"
     bordercolor="#666666"
     borderopacity="1"
     objecttolerance="10"
     gridtolerance="10"
     guidetolerance="10"
     inkscape:pageopacity="0"
     inkscape:pageshadow="2"
     inkscape:window-width="640"
     inkscape:window-height="480"
     id="namedview10854" />
  <defs
     id="defs10800">
    <linearGradient
       id="linearGradient3764"
       x1="1"
       x2="47"
       gradientUnits="userSpaceOnUse"
       gradientTransform="translate(-48.000001,0.00221467)">
      <stop
         stop-color="#3d3d3d"
         stop-opacity="1"
         id="stop10785" />
      <stop
         offset="1"
         stop-color="#474747"
         stop-opacity="1"
         id="stop10787" />
    </linearGradient>
    <clipPath
       id="clipPath-201046026">
      <g
         transform="translate(0,-1004.3622)"
         id="g10792">
        <rect
           rx="4"
           y="1005.36"
           x="1"
           height="46"
           width="46"
           fill="#1890d0"
           id="rect10790" />
      </g>
    </clipPath>
    <clipPath
       id="clipPath-213642016">
      <g
         transform="translate(0,-1004.3622)"
         id="g10797">
        <rect
           rx="4"
           y="1005.36"
           x="1"
           height="46"
           width="46"
           fill="#1890d0"
           id="rect10795" />
      </g>
    </clipPath>
  </defs>
  <g
     id="g10808">
    <path
       d="m 1 43 l 0 0.25 c 0 2.216 1.784 4 4 4 l 38 0 c 2.216 0 4 -1.784 4 -4 l 0 -0.25 c 0 2.216 -1.784 4 -4 4 l -38 0 c -2.216 0 -4 -1.784 -4 -4 z m 0 0.5 l 0 0.5 c 0 2.216 1.784 4 4 4 l 38 0 c 2.216 0 4 -1.784 4 -4 l 0 -0.5 c 0 2.216 -1.784 4 -4 4 l -38 0 c -2.216 0 -4 -1.784 -4 -4 z"
       opacity="0.02"
       id="path10802" />
    <path
       d="m 1 43.25 l 0 0.25 c 0 2.216 1.784 4 4 4 l 38 0 c 2.216 0 4 -1.784 4 -4 l 0 -0.25 c 0 2.216 -1.784 4 -4 4 l -38 0 c -2.216 0 -4 -1.784 -4 -4 z"
       opacity="0.05"
       id="path10804" />
    <path
       d="m 1 43 l 0 0.25 c 0 2.216 1.784 4 4 4 l 38 0 c 2.216 0 4 -1.784 4 -4 l 0 -0.25 c 0 2.216 -1.784 4 -4 4 l -38 0 c -2.216 0 -4 -1.784 -4 -4 z"
       opacity="0.1"
       id="path10806" />
  </g>
  <g
     id="g10812">
    <rect
       width="46"
       height="46"
       x="-47"
       y="1"
       rx="4"
       transform="matrix(0,-1,1,0,0,0)"
       fill="url(#linearGradient3764)"
       fill-opacity="1"
       id="rect10810" />
  </g>
  <g
     id="g10828">
    <g
       clip-path="url(#clipPath-201046026)"
       id="g10826">
      <g
         opacity="0.1"
         id="g10824">
        <!-- color: #474747 -->
        <g
           id="g10822">
          <path
             d="m 14 12 l -1 1 l 11 11 l 10.996 -11 l -1 -1 m -19.996 0"
             stroke="none"
             fill-rule="nonzero"
             fill-opacity="1"
             fill="#000"
             id="path10814" />
          <path
             d="m 33.996 36 l 1 -1 l -10.996 -10.996 l -11 10.996 l 1 1 m 19.996 0"
             stroke="none"
             fill-rule="nonzero"
             fill-opacity="1"
             fill="#000"
             id="path10816" />
          <path
             d="m 12 33.996 l 1 1 l 11 -10.996 l -11 -11 l -1 1 m 0 19.996"
             stroke="none"
             fill-rule="nonzero"
             fill-opacity="1"
             fill="#000"
             id="path10818" />
          <path
             d="m 36 14 l -1 -1 l -10.996 11 l 10.996 10.996 l 1 -1 m 0 -19.996"
             stroke="none"
             fill-rule="nonzero"
             fill-opacity="1"
             fill="#000"
             id="path10820" />
        </g>
      </g>
    </g>
  </g>
  <g
     id="g10844">
    <g
       clip-path="url(#clipPath-213642016)"
       id="g10842">
      <g
         transform="translate(0,-1)"
         id="g10840">
        <!-- color: #474747 -->
        <g
           id="g10838">
          <path
             d="m 14 12 l -1 1 l 11 11 l 10.996 -11 l -1 -1 m -19.996 0"
             fill="#268bcf"
             stroke="none"
             fill-rule="nonzero"
             fill-opacity="1"
             id="path10830" />
          <path
             d="m 33.996 36 l 1 -1 l -10.996 -10.996 l -11 10.996 l 1 1 m 19.996 0"
             fill="#6970c1"
             stroke="none"
             fill-rule="nonzero"
             fill-opacity="1"
             id="path10832" />
          <path
             d="m 12 33.996 l 1 1 l 11 -10.996 l -11 -11 l -1 1 m 0 19.996"
             fill="#dc2f2f"
             stroke="none"
             fill-rule="nonzero"
             fill-opacity="1"
             id="path10834" />
          <path
             d="m 36 14 l -1 -1 l -10.996 11 l 10.996 10.996 l 1 -1 m 0 -19.996"
             fill="#859900"
             stroke="none"
             fill-rule="nonzero"
             fill-opacity="1"
             id="path10836" />
        </g>
      </g>
    </g>
  </g>
  <g
     id="g10850">
    <g
       transform="translate(0,-1004.3622)"
       id="g10848">
      <path
         d="m 1 1043.36 0 4 c 0 2.216 1.784 4 4 4 l 38 0 c 2.216 0 4 -1.784 4 -4 l 0 -4 c 0 2.216 -1.784 4 -4 4 l -38 0 c -2.216 0 -4 -1.784 -4 -4 z"
         opacity="0.1"
         id="path10846" />
    </g>
  </g>
</svg>
