<svg version="1.1" viewBox="0 0 48 48" xmlns="http://www.w3.org/2000/svg">
 <defs>
  <linearGradient id="bg" x2="0" y1="1" y2="47" gradientUnits="userSpaceOnUse">
   <stop style="stop-color:#0a9ce6" offset="0"/>
   <stop style="stop-color:#0990d4" offset="1"/>
  </linearGradient>
 </defs>
 <path d="m1 43v0.25c0 2.216 1.784 4 4 4h38c2.216 0 4-1.784 4-4v-0.25c0 2.216-1.784 4-4 4h-38c-2.216 0-4-1.784-4-4zm0 0.5v0.5c0 2.216 1.784 4 4 4h38c2.216 0 4-1.784 4-4v-0.5c0 2.216-1.784 4-4 4h-38c-2.216 0-4-1.784-4-4z" style="opacity:.02"/>
 <path d="m1 43.25v0.25c0 2.216 1.784 4 4 4h38c2.216 0 4-1.784 4-4v-0.25c0 2.216-1.784 4-4 4h-38c-2.216 0-4-1.784-4-4z" style="opacity:.05"/>
 <path d="m1 43v0.25c0 2.216 1.784 4 4 4h38c2.216 0 4-1.784 4-4v-0.25c0 2.216-1.784 4-4 4h-38c-2.216 0-4-1.784-4-4z" style="opacity:.1"/>
 <rect x="1" y="1" width="46" height="46" rx="4" style="fill:url(#bg)"/>
 <path d="m1 39v4c0 2.216 1.784 4 4 4h38c2.216 0 4-1.784 4-4v-4c0 2.216-1.784 4-4 4h-38c-2.216 0-4-1.784-4-4z" style="opacity:.1"/>
 <path d="m31.859 11c-5.1856 0-6.1498 7-3.2305 7 2.9153 0 8.417-7 3.2305-7zm-7.959 1.0156c-2.957 0.34029-1.9613 4.899-0.38477 4.9824 1.5766 0.08716 3.3499-5.319 0.38477-4.9824zm-4.8516 1.7969c-0.13183 0.016-0.30402 0.07-0.45117 0.125-2.3668 0.934-0.36347 4.758 0.96094 4.5 1.2457-0.242 1.4268-4.82-0.50977-4.625zm-3.668 3.1875c-0.21565-0.0079-0.41938 0.09395-0.66797 0.24805-1.9674 1.2347 0.63999 4.1624 1.7969 3.7031 1.0124-0.40499 0.37005-3.9087-1.1289-3.9512zm8.6191 2.9996c-2.77 0-5 2.23-5 5v2h-2v9h14v-9h-2v-2c0-2.77-2.23-5-5-5zm0 2c1.662 0 3 1.338 3 3v2h-6v-2c0-1.662 1.338-3 3-3z" style="fill-rule:evenodd;opacity:.1"/>
 <path d="m31.859 10c-5.1856 0-6.1498 7-3.2305 7 2.9153 0 8.417-7 3.2305-7zm-7.959 1.0156c-2.957 0.34029-1.9613 4.899-0.38477 4.9824 1.5766 0.08716 3.3499-5.319 0.38477-4.9824zm-4.8516 1.7969c-0.13183 0.016-0.30402 0.07-0.45117 0.125-2.3668 0.934-0.36347 4.758 0.96094 4.5 1.2457-0.242 1.4268-4.82-0.50977-4.625zm-3.668 3.1875c-0.21565-0.0079-0.41938 0.09395-0.66797 0.24805-1.9674 1.2347 0.63999 4.1624 1.7969 3.7031 1.0124-0.40499 0.37005-3.9087-1.1289-3.9512zm8.6191 2.9996c-2.77 0-5 2.23-5 5v2h-2v9h14v-9h-2v-2c0-2.77-2.23-5-5-5zm0 2c1.662 0 3 1.338 3 3v2h-6v-2c0-1.662 1.338-3 3-3z" style="fill-rule:evenodd;fill:#ede8b9"/>
</svg>
