<svg version="1.1" viewBox="0 0 48 48" xmlns="http://www.w3.org/2000/svg">
 <defs>
  <linearGradient id="bg" x2="0" y1="1" y2="47" gradientUnits="userSpaceOnUse">
   <stop style="stop-color:#555" offset="0"/>
   <stop style="stop-color:#4b4b4b" offset="1"/>
  </linearGradient>
 </defs>
 <path d="m1 43v0.25c0 2.216 1.784 4 4 4h38c2.216 0 4-1.784 4-4v-0.25c0 2.216-1.784 4-4 4h-38c-2.216 0-4-1.784-4-4zm0 0.5v0.5c0 2.216 1.784 4 4 4h38c2.216 0 4-1.784 4-4v-0.5c0 2.216-1.784 4-4 4h-38c-2.216 0-4-1.784-4-4z" style="opacity:.02"/>
 <path d="m1 43.25v0.25c0 2.216 1.784 4 4 4h38c2.216 0 4-1.784 4-4v-0.25c0 2.216-1.784 4-4 4h-38c-2.216 0-4-1.784-4-4z" style="opacity:.05"/>
 <path d="m1 43v0.25c0 2.216 1.784 4 4 4h38c2.216 0 4-1.784 4-4v-0.25c0 2.216-1.784 4-4 4h-38c-2.216 0-4-1.784-4-4z" style="opacity:.1"/>
 <rect x="1" y="1" width="46" height="46" rx="4" style="fill:url(#bg)"/>
 <path d="m32.396 12.309-1.5098 1.4375c0.66805 0.70085 1.2519 1.457 1.7539 2.2539h-0.62109c-0.012 0-0.019531 0.003906-0.019531 0.003906v1.9922s0.007501 0.003906 0.019531 0.003906h1.6562c0.1506 0.34914 0.28728 0.70223 0.41016 1.0605h-2.0664c-0.012 0-0.019531-8.8e-5 -0.019531 0.003906v1.6777c-0.50793-1.8662-1.4585-3.6283-2.8594-5.1016l-1.5098 1.4395c2.0552 2.1625 2.9391 5.1035 2.6602 7.9395h-2.2832c0.29553-2.2098-0.3622-4.5293-1.9883-6.2363l-0.22656 0.2168h-2.793v-6.5l-7.8008 6.5h-3.1992v1c-0.554 0-1 0.446-1 1v6c0 0.554 0.446 1 1 1v2h4v-0.33398l1.5996 1.334h-0.58008c-0.012 0-0.019531-9.4e-5 -0.019531 0.003906v1.9883c0 0.003999 0.007501 0.003906 0.019531 0.003906h2.9766l3.0039 2.5039v-2.5h2.9805c0.012 0 0.021484-0.003906 0.021484-0.003906v-1.9922s-0.009504-0.003906-0.021484-0.003906h-2.9805v-1.0156h2.9805c0.012 0 0.021484 8.8e-5 0.021484-0.003906v-0.78711l0.017578 0.017579c0.62898-0.66098 1.1078-1.4164 1.4492-2.2188h2.4277c-0.10362 0.34222-0.22903 0.6771-0.36914 1.0078h-2.5078c-0.012 0-0.019531-9.4e-5 -0.019531 0.003906v1.9805s0.007501 0.003906 0.019531 0.003906h1.3809c-0.23732 0.32261-0.4886 0.63776-0.76953 0.93359l0.082032 0.078125h-0.69336c-0.012 0-0.019531 0.003906-0.019531 0.003906v1.9922s0.007501 0.003906 0.019531 0.003906h3.957c0.011002 6e-6 0.023438-0.003906 0.023438-0.003906v-1.9922s-0.011437-0.003906-0.023438-0.003906h-0.74609c0.23088-0.32851 0.44228-0.66556 0.63672-1.0117h0.10937c0.011 0 0.023438-0.003906 0.023438-0.003906v-0.23242c0.46444-0.87265 0.81515-1.791 1.0527-2.7363h2.5508c-0.068205 0.33661-0.14125 0.67216-0.23242 1.0039h-2.3516c-0.012 0-0.019531 0.003907-0.019531 0.003907v1.9688c0-2e-6 0.007501 0.003906 0.019531 0.003906h1.6426c-0.14883 0.34285-0.30681 0.68152-0.48242 1.0137h-1.1602c-0.012 0-0.019531-8.8e-5 -0.019531 0.003906v1.8672c-0.34397 0.46216-0.7083 0.91302-1.1133 1.3379l1.5098 1.4395c0.7889-0.82787 1.4739-1.7222 2.0605-2.6641h1.5195c0.011001 0 0.023438-0.003907 0.023438-0.003907v-1.9766c0-4e-3 -0.011437-0.003906-0.023438-0.003906h-0.48047c0.15071-0.33538 0.29977-0.67055 0.42773-1.0137h0.052734c0.011001 0 0.023438-0.003906 0.023438-0.003906v-0.22461c0.66735-1.8705 1.0124-3.8379 1.0098-5.8086 0.003378 9.75e-4 0.00375 0.001954 0.009765 0.001954h3.957c0.011001 0 0.023438-0.003907 0.023438-0.003907v-1.9531c-1e-6 -4e-3 -0.011436-0.003906-0.023438-0.003906h-3.957c-0.012 0-0.019531-9.4e-5 -0.019531 0.003906v1.7227c-0.028653-1.9468-0.38379-3.8858-1.0664-5.7266h0.042968c0.011002 6e-6 0.023438-0.003906 0.023438-0.003906v-1.9922s-0.011437-0.003906-0.023438-0.003906h-0.94141c-0.69774-1.3208-1.5691-2.5692-2.6387-3.6914zm-20.396 0.69141v2h4v-2h-4zm30 0v2h4v-2h-4zm-30 2.9961v2h4v-2h-4zm-10 0.003906v2h4v-2h-4zm40 0v2h4v-2h-4zm-40 3v1.9961h4v-1.9961h-4zm5.0195 0c-0.011 0-0.023437-8.8e-5 -0.023437 0.003906v1.9414c-2e-7 2e-6 0.011438 0.003907 0.023437 0.003907h3.957c0.012001 0 0.019532-0.003907 0.019532-0.003907v-1.9414c0-4e-3 -0.007502-0.003906-0.019532-0.003906h-3.957zm30 0c-0.012 0-0.019531-9.4e-5 -0.019531 0.003906v1.9414c0 2e-6 0.007501 0.003907 0.019531 0.003907h3.957c0.011001 0 0.023438-0.003907 0.023438-0.003907v-1.9414c-1e-6 -4e-3 -0.011436-0.003906-0.023438-0.003906h-3.957zm4.9805 0v1.9961h4v-1.9961h-4zm-19 1.9492h2.0859c0.21967 0.33214 0.40146 0.68414 0.54102 1.0508h-2.627v-1.0508zm9.0586 0.044922h2.5566c0.069828 0.35012 0.12101 0.70288 0.16602 1.0566h-2.5078c-0.05622-0.35495-0.12762-0.70721-0.21484-1.0566zm-30.059 1.0059v2h4v-2h-4zm5.0195 0c-0.011 0-0.023437-8.8e-5 -0.023437 0.003906v1.9531c-2e-7 0 0.011438 0.003907 0.023437 0.003907h3.957c0.012001 0 0.019532-0.003907 0.019532-0.003907v-1.9531c0-4e-3 -0.007502-0.003906-0.019532-0.003906h-3.957zm34.98 0v2h4v-2h-4zm-16.012 1.959c0.002363 0.35527-0.023739 0.71062-0.08789 1.0605h-2.2988l0.89844-1.0195-0.035156-0.039062h1.5156c0.004416 0 0.004426-0.001286 0.007812-0.001954zm6.4492 0.039063h2.4805c-3.58e-4 0.35141-0.024331 0.7021-0.048828 1.0527h-2.4805c0.02978-0.34992 0.048704-0.70171 0.048828-1.0527zm-30.438 1.0215v2h4v-2h-4zm5.0195 0c-0.011 0-0.023437-8.8e-5 -0.023437 0.003907v1.9648c-2e-7 4e-3 0.011438 0.003907 0.023437 0.003907h3.957c0.012001-2e-6 0.019532 8.6e-5 0.019532-0.003907v-1.9648c0-0.004001-0.007502-0.003907-0.019532-0.003907h-3.957zm30 0c-0.012 0-0.019531-8.8e-5 -0.019531 0.003907v1.9648c0 4e-3 0.007501 0.003907 0.019531 0.003907h3.957c0.011001-2e-6 0.023438 8.6e-5 0.023438-0.003907v-1.9648c0-0.004001-0.011437-0.003907-0.023438-0.003907h-3.957zm4.9805 0v2h4v-2h-4zm-19 1.9727h2.1211c-0.1768 0.2744-0.37864 0.53688-0.60938 0.7793l0.22266 0.21289h-1.7344v-0.99219zm-21 1.0078v1.9961h4v-1.9961h-4zm5.0195 0c-0.011 0-0.023437-8.8e-5 -0.023437 0.003906v1.9805c-2e-7 0 0.011438 0.003906 0.023437 0.003906h3.957c0.012001 0 0.019532-0.003906 0.019532-0.003906v-1.9805c0-4e-3 -0.007502-0.003906-0.019532-0.003906h-3.957zm30 0c-0.012 0-0.019531-9.4e-5 -0.019531 0.003906v1.9805s0.007501 0.003906 0.019531 0.003906h3.957c0.011001 0 0.023438-0.003906 0.023438-0.003906v-1.9805c-1e-6 -4e-3 -0.011436-0.003906-0.023438-0.003906h-3.957zm4.9805 0v1.9961h4v-1.9961h-4zm-40 3v2h4v-2h-4zm5.0195 0c-0.011 0-0.023437 0.003906-0.023437 0.003906v1.9922c-2e-7 0 0.011438 0.003906 0.023437 0.003906h3.957c0.012001 0 0.019532-0.003906 0.019532-0.003906v-1.9922s-0.007502-0.003906-0.019532-0.003906h-3.957zm4.9805 0v2h4v-2h-4zm25.02 0c-0.012 0-0.019531 0.003906-0.019531 0.003906v1.9922s0.007501 0.003906 0.019531 0.003906h3.957c0.011002 6e-6 0.023438-0.003906 0.023438-0.003906v-1.9922s-0.011437-0.003906-0.023438-0.003906h-3.957zm4.9805 0v2h4v-2h-4z" style="opacity:.1"/>
 <path d="m1 39v4c0 2.216 1.784 4 4 4h38c2.216 0 4-1.784 4-4v-4c0 2.216-1.784 4-4 4h-38c-2.216 0-4-1.784-4-4z" style="opacity:.1"/>
 <path d="m22.02 30h3.961c0.012 0 0.02 4e-3 0.02 4e-3v1.992s-8e-3 4e-3 -0.02 4e-3h-3.961c-0.012 0-0.02-4e-3 -0.02-4e-3v-1.992s8e-3 -4e-3 0.02-4e-3" style="fill:#e4c82f"/>
 <path d="m22.02 26.984h3.961c0.012 0 0.02 4e-3 0.02 4e-3v1.992c0 4e-3 -8e-3 4e-3 -0.02 4e-3h-3.961c-0.012 0-0.02 0-0.02-4e-3v-1.992s8e-3 -4e-3 0.02-4e-3" style="fill-opacity:.902;fill:#e4c82f"/>
 <path d="m22.02 24.02h3.961c0.012 0 0.02 0 0.02 4e-3v1.965c0 4e-3 -8e-3 4e-3 -0.02 4e-3h-3.961c-0.012 0-0.02 0-0.02-4e-3v-1.965c0-4e-3 8e-3 -4e-3 0.02-4e-3" style="fill-opacity:.8;fill:#e4c82f"/>
 <path d="m22.02 21h3.961c0.012 0 0.02 0 0.02 4e-3v1.953s-8e-3 4e-3 -0.02 4e-3h-3.961c-0.012 0-0.02-4e-3 -0.02-4e-3v-1.953c0-4e-3 8e-3 -4e-3 0.02-4e-3" style="fill-opacity:.702;fill:#e4c82f"/>
 <path d="m22.02 18h3.961c0.012 0 0.02 0 0.02 4e-3v1.941s-8e-3 4e-3 -0.02 4e-3h-3.961c-0.012 0-0.02-4e-3 -0.02-4e-3v-1.941c0-4e-3 8e-3 -4e-3 0.02-4e-3" style="fill-opacity:.6;fill:#e4c82f"/>
 <path d="m32.02 30.01h3.957c0.012 0 0.023 0 0.023 4e-3v1.977s-0.012 4e-3 -0.023 4e-3h-3.957c-0.012 0-0.02-4e-3 -0.02-4e-3v-1.977c0-4e-3 8e-3 -4e-3 0.02-4e-3" style="fill:#3d8dec"/>
 <path d="m32.02 27.02h3.957c0.012 0 0.023 4e-3 0.023 4e-3v1.969s-0.012 4e-3 -0.023 4e-3h-3.957c-0.012 0-0.02-4e-3 -0.02-4e-3v-1.969s8e-3 -4e-3 0.02-4e-3" style="fill-opacity:.902;fill:#3d8dec"/>
 <path d="m32.02 24.05h3.957c0.012 0 0.023 4e-3 0.023 4e-3v1.957s-0.012 4e-3 -0.023 4e-3h-3.957c-0.012 0-0.02-4e-3 -0.02-4e-3v-1.957s8e-3 -4e-3 0.02-4e-3" style="fill-opacity:.8;fill:#3d8dec"/>
 <path d="m32.02 21.05h3.957c0.012 0 0.023 0 0.023 4e-3v1.941s-0.012 4e-3 -0.023 4e-3h-3.957c-0.012 0-0.02-4e-3 -0.02-4e-3v-1.941c0-4e-3 8e-3 -4e-3 0.02-4e-3" style="fill-opacity:.702;fill:#3d8dec"/>
 <path d="m32.02 18.06h3.957c0.012 0 0.023 0 0.023 4e-3v1.926c0 4e-3 -0.012 4e-3 -0.023 4e-3h-3.957c-0.012 0-0.02 0-0.02-4e-3v-1.926c0-4e-3 8e-3 -4e-3 0.02-4e-3" style="fill-opacity:.6;fill:#3d8dec"/>
 <path d="m32.02 15h3.957c0.012 0 0.023 4e-3 0.023 4e-3v1.992s-0.012 4e-3 -0.023 4e-3h-3.957c-0.012 0-0.02-4e-3 -0.02-4e-3v-1.992s8e-3 -4e-3 0.02-4e-3" style="fill-opacity:.502;fill:#3d8dec"/>
 <path d="m37.02 30h3.957c0.012 0 0.023 4e-3 0.023 4e-3v1.992s-0.012 4e-3 -0.023 4e-3h-3.957c-0.012 0-0.02-4e-3 -0.02-4e-3v-1.992s8e-3 -4e-3 0.02-4e-3" style="fill:#db4cdb"/>
 <path d="m37.02 27h3.957c0.012 0 0.023 0 0.023 4e-3v1.98s-0.012 4e-3 -0.023 4e-3h-3.957c-0.012 0-0.02-4e-3 -0.02-4e-3v-1.98c0-4e-3 8e-3 -4e-3 0.02-4e-3" style="fill-opacity:.902;fill:#db4cdb"/>
 <path d="m37.02 24.02h3.957c0.012 0 0.023 0 0.023 4e-3v1.965c0 4e-3 -0.012 4e-3 -0.023 4e-3h-3.957c-0.012 0-0.02 0-0.02-4e-3v-1.965c0-4e-3 8e-3 -4e-3 0.02-4e-3" style="fill-opacity:.8;fill:#db4cdb"/>
 <path d="m37.02 21h3.957c0.012 0 0.023 0 0.023 4e-3v1.953s-0.012 4e-3 -0.023 4e-3h-3.957c-0.012 0-0.02-4e-3 -0.02-4e-3v-1.953c0-4e-3 8e-3 -4e-3 0.02-4e-3" style="fill-opacity:.702;fill:#db4cdb"/>
 <path d="m37.02 18h3.957c0.012 0 0.023 0 0.023 4e-3v1.941s-0.012 4e-3 -0.023 4e-3h-3.957c-0.012 0-0.02-4e-3 -0.02-4e-3v-1.941c0-4e-3 8e-3 -4e-3 0.02-4e-3" style="fill-opacity:.6;fill:#db4cdb"/>
 <path d="m27.02 30h3.957c0.012 0 0.023 4e-3 0.023 4e-3v1.992s-0.012 4e-3 -0.023 4e-3h-3.957c-0.012 0-0.02-4e-3 -0.02-4e-3v-1.992s8e-3 -4e-3 0.02-4e-3" style="fill:#7fcf5b"/>
 <path d="m27.02 27h3.957c0.012 0 0.023 0 0.023 4e-3v1.98s-0.012 4e-3 -0.023 4e-3h-3.957c-0.012 0-0.02-4e-3 -0.02-4e-3v-1.98c0-4e-3 8e-3 -4e-3 0.02-4e-3" style="fill-opacity:.902;fill:#7fcf5b"/>
 <path d="m27.02 24.02h3.957c0.012 0 0.023 0 0.023 4e-3v1.965c0 4e-3 -0.012 4e-3 -0.023 4e-3h-3.957c-0.012 0-0.02 0-0.02-4e-3v-1.965c0-4e-3 8e-3 -4e-3 0.02-4e-3" style="fill-opacity:.8;fill:#7fcf5b"/>
 <path d="m12 30h4v2h-4m0-2" style="fill:#c52f2f"/>
 <path d="m12 27h4v2h-4m0-2" style="fill-opacity:.902;fill:#c52f2f"/>
 <path d="m12 24h4v2h-4m0-2" style="fill-opacity:.8;fill:#c52f2f"/>
 <path d="m12 21h4v2h-4m0-2" style="fill-opacity:.702;fill:#c52f2f"/>
 <path d="m12 18h4v1.996h-4m0-1.996" style="fill-opacity:.6;fill:#c52f2f"/>
 <path d="m12 14.996h4v2h-4m0-2" style="fill-opacity:.502;fill:#c52f2f"/>
 <path d="m12 12h4v2h-4m0-2" style="fill-opacity:.4;fill:#c52f2f"/>
 <path d="m17.02 30h3.961c8e-3 0 0.02 0 0.02 4e-3v1.988c0 4e-3 -0.012 4e-3 -0.02 4e-3h-3.961c-0.012 0-0.02 0-0.02-4e-3v-1.988c0-4e-3 8e-3 -4e-3 0.02-4e-3" style="fill:#ec8e19"/>
 <path d="m17.02 26.988h3.961c8e-3 0 0.02 0 0.02 4e-3v1.992s-0.012 4e-3 -0.02 4e-3h-3.961c-0.012 0-0.02-4e-3 -0.02-4e-3v-1.992c0-4e-3 8e-3 -4e-3 0.02-4e-3" style="fill-opacity:.902;fill:#ec8e19"/>
 <path d="m17.02 24h3.961c8e-3 0 0.02 0 0.02 4e-3v1.965s-0.012 4e-3 -0.02 4e-3h-3.961c-0.012 0-0.02-4e-3 -0.02-4e-3v-1.965c0-4e-3 8e-3 -4e-3 0.02-4e-3" style="fill-opacity:.8;fill:#ec8e19"/>
 <path d="m17.02 20.996h3.961c8e-3 0 0.02 4e-3 0.02 4e-3v1.953c0 4e-3 -0.012 4e-3 -0.02 4e-3h-3.961c-0.012 0-0.02 0-0.02-4e-3v-1.953s8e-3 -4e-3 0.02-4e-3" style="fill-opacity:.702;fill:#ec8e19"/>
 <path d="m7.02 30h3.957c0.012 0 0.02 4e-3 0.02 4e-3v1.992s-8e-3 4e-3 -0.02 4e-3h-3.957c-0.012 0-0.023-4e-3 -0.023-4e-3v-1.992s0.012-4e-3 0.023-4e-3" style="fill:#db4cdb"/>
 <path d="m7.02 27h3.957c0.012 0 0.02 0 0.02 4e-3v1.98s-8e-3 4e-3 -0.02 4e-3h-3.957c-0.012 0-0.023-4e-3 -0.023-4e-3v-1.98c0-4e-3 0.012-4e-3 0.023-4e-3" style="fill-opacity:.902;fill:#db4cdb"/>
 <path d="m7.02 24.02h3.957c0.012 0 0.02 0 0.02 4e-3v1.965c0 4e-3 -8e-3 4e-3 -0.02 4e-3h-3.957c-0.012 0-0.023 0-0.023-4e-3v-1.965c0-4e-3 0.012-4e-3 0.023-4e-3" style="fill-opacity:.8;fill:#db4cdb"/>
 <path d="m7.02 21h3.957c0.012 0 0.02 0 0.02 4e-3v1.953s-8e-3 4e-3 -0.02 4e-3h-3.957c-0.012 0-0.023-4e-3 -0.023-4e-3v-1.953c0-4e-3 0.012-4e-3 0.023-4e-3" style="fill-opacity:.702;fill:#db4cdb"/>
 <path d="m7.02 18h3.957c0.012 0 0.02 0 0.02 4e-3v1.941s-8e-3 4e-3 -0.02 4e-3h-3.957c-0.012 0-0.023-4e-3 -0.023-4e-3v-1.941c0-4e-3 0.012-4e-3 0.023-4e-3" style="fill-opacity:.6;fill:#db4cdb"/>
 <path d="m2 15v2h4v-2m-4 0" style="fill-opacity:.502;fill:#3d8dec"/>
 <path d="m2 18v1.996h4v-1.996m-4 0" style="fill-opacity:.6;fill:#3d8dec"/>
 <path d="m2 21v2h4v-2m-4 0" style="fill-opacity:.702;fill:#3d8dec"/>
 <path d="m2 24.02v2h4v-2m-4 0" style="fill-opacity:.8;fill:#3d8dec"/>
 <path d="m2 27v1.996h4v-1.996m-4 0" style="fill-opacity:.902;fill:#3d8dec"/>
 <path d="m2 30v2h4v-2m-4 0" style="fill:#3d8dec"/>
 <path d="m42 12v2h4v-2m-4 0" style="fill-opacity:.4;fill:#c52f2f"/>
 <path d="m42 15v2h4v-2m-4 0" style="fill-opacity:.502;fill:#c52f2f"/>
 <path d="m42 18v1.996h4v-1.996m-4 0" style="fill-opacity:.6;fill:#c52f2f"/>
 <path d="m42 21v2h4v-2m-4 0" style="fill-opacity:.702;fill:#c52f2f"/>
 <path d="m42 24.02v2h4v-2m-4 0" style="fill-opacity:.8;fill:#c52f2f"/>
 <path d="m42 27v1.996h4v-1.996m-4 0" style="fill-opacity:.902;fill:#c52f2f"/>
 <path d="m42 30v2h4v-2m-4 0" style="fill:#c52f2f"/>
 <path d="m32.396 11.308-1.5098 1.4375c5.376 5.64 5.376 14.833 0 20.473l1.5098 1.4395c6.153-6.457 6.154-16.893 0-23.35zm-9.3965 0.19141-9 7.5h-2c-0.554 0-1 0.446-1 1v6c0 0.554 0.446 1 1 1h2l9 7.5v-9.7988l1.5-1.7012-1.5-1.7012zm6.1406 3.1406-1.5098 1.4395c3.619 3.808 3.62 10.03 0 13.842l1.5098 1.4316c4.395-4.628 4.396-12.09 0-16.713zm-3.1211 3.1426-1.5078 1.4395c1.974 2.072 1.975 5.4738 0 7.5488l1.5078 1.4395c2.752-2.892 2.752-7.5387 0-10.428z" style="color-rendering:auto;color:#000000;fill:#f9f9f9;image-rendering:auto;shape-rendering:auto"/>
</svg>
