<svg version="1.1" viewBox="0 0 48 48" xmlns="http://www.w3.org/2000/svg">
 <defs>
  <linearGradient id="bg" x2="0" y1="1" y2="47" gradientUnits="userSpaceOnUse">
   <stop style="stop-color:#35ca5a" offset="0"/>
   <stop style="stop-color:#31ba53" offset="1"/>
  </linearGradient>
 </defs>
 <path d="m1 43v0.25c0 2.22 1.78 4 4 4h38c2.22 0 4-1.78 4-4v-0.25c0 2.22-1.78 4-4 4h-38c-2.22 0-4-1.78-4-4zm0 0.5v0.5c0 2.22 1.78 4 4 4h38c2.22 0 4-1.78 4-4v-0.5c0 2.22-1.78 4-4 4h-38c-2.22 0-4-1.78-4-4z" style="opacity:.02"/>
 <path d="m1 43.2v0.25c0 2.22 1.78 4 4 4h38c2.22 0 4-1.78 4-4v-0.25c0 2.22-1.78 4-4 4h-38c-2.22 0-4-1.78-4-4z" style="opacity:.05"/>
 <path d="m1 43v0.25c0 2.22 1.78 4 4 4h38c2.22 0 4-1.78 4-4v-0.25c0 2.22-1.78 4-4 4h-38c-2.22 0-4-1.78-4-4z" style="opacity:.1"/>
 <rect x="1" y="1" width="46" height="46" rx="4" style="fill:url(#bg)"/>
 <path d="m1 39v4c0 2.22 1.78 4 4 4h38c2.22 0 4-1.78 4-4v-4c0 2.22-1.78 4-4 4h-38c-2.22 0-4-1.78-4-4z" style="opacity:.1"/>
 <path d="m11 13v8c0 1.11 0.892 2 2 2h8c1.11 0 2-0.892 2-2v-8zm14 0v8c0 1.11 0.892 2 2 2h8c1.11 0 2-0.892 2-2v-8zm-14 14v8c0 1.11 0.892 2 2 2h8c1.11 0 2-0.892 2-2v-8zm14 0v8c0 1.11 0.892 2 2 2h8c1.11 0 2-0.892 2-2v-8z" style="opacity:.1"/>
 <path d="m13 10c-1.11 0-2 0.892-2 2v8c0 1.11 0.892 2 2 2h8c1.11 0 2-0.892 2-2v-8c0-1.11-0.892-2-2-2zm14 0c-1.11 0-2 0.892-2 2v8c0 1.11 0.892 2 2 2h8c1.11 0 2-0.892 2-2v-8c0-1.11-0.892-2-2-2zm-14 14c-1.11 0-2 0.892-2 2v8c0 1.11 0.892 2 2 2h8c1.11 0 2-0.892 2-2v-8c0-1.11-0.892-2-2-2zm14 0c-1.11 0-2 0.892-2 2v8c0 1.11 0.892 2 2 2h8c1.11 0 2-0.892 2-2v-8c0-1.11-0.892-2-2-2z" style="fill:#f9f9f9"/>
 <path d="m14 12v5c0 0.554-0.446 1-1 1l0.469 0.939c0.879-0.211 1.53-0.994 1.53-1.94h4v1c0 0.554-0.446 1-1 1h-0.5l-0.5 1h1c1.11 0 2-0.892 2-2v-6zm1 1h4v1h-4zm0 2h4v1h-4z" style="fill:#62a0ea"/>
 <path d="m21 30-4 4-4-4 4-4z" style="fill:#f53d3d"/>
 <path d="m31.5 26c-0.271 0-0.5 0.226-0.5 0.5s0.224 0.5 0.5 0.5 0.5-0.224 0.5-0.5-0.229-0.5-0.5-0.5zm-1 1c-0.274 0-0.5 0.226-0.5 0.5s0.224 0.5 0.5 0.5 0.5-0.224 0.5-0.5-0.223-0.5-0.5-0.5zm2 0c-0.267 0-0.5 0.226-0.5 0.5s0.224 0.5 0.5 0.5 0.5-0.224 0.5-0.5-0.233-0.5-0.5-0.5zm2.5 1.5-1 0.5v2h-1v-2l-1 0.5v1.5h-2v-0.5l-1 0.5v1.5c0 0.277-0.223 0.5-0.5 0.5s-0.5-0.223-0.5-0.5v-1l-1 0.5v0.5c0 0.831 0.669 1.5 1.5 1.5s1.5-0.669 1.5-1.5v-0.5h5z" style="fill:#26a269"/>
 <circle cx="31" cy="16" r="4" style="fill:#f5c211"/>
 <path d="m29.5 14c-0.277 0-0.5 0.223-0.5 0.5v1.5h1v-1.5c0-0.277-0.223-0.5-0.5-0.5zm3 0c-0.277 0-0.5 0.223-0.5 0.5v1.5h1v-1.5c0-0.277-0.223-0.5-0.5-0.5z" style="fill:#b45600"/>
 <path d="m29.3 18c0.346 0.596 0.984 1 1.72 1s1.38-0.404 1.72-1l-1.72-0.5z" style="fill:#d51b25"/>
 <path d="m29 17c0 0.367 0.104 0.705 0.275 1h3.45c0.171-0.295 0.275-0.633 0.275-1z" style="fill:#f9f9f9"/>
</svg>
