<svg viewBox="0 0 48 48" xmlns="http://www.w3.org/2000/svg">
 <defs>
  <linearGradient id="linearGradient3764" x1="1" x2="47" gradientTransform="translate(-48 .0022147)" gradientUnits="userSpaceOnUse">
   <stop stop-color="#3d3d3d" offset="0"/>
   <stop stop-color="#474747" offset="1"/>
  </linearGradient>
  <clipPath id="clipPath-855056026">
   <g transform="translate(0 -1004.4)">
    <rect x="1" y="1005.4" width="46" height="46" rx="4" fill="#1890d0"/>
   </g>
  </clipPath>
  <clipPath id="clipPath-868444156">
   <g transform="translate(0 -1004.4)">
    <rect x="1" y="1005.4" width="46" height="46" rx="4" fill="#1890d0"/>
   </g>
  </clipPath>
 </defs>
 <g>
  <path d="m1 43v0.25c0 2.216 1.784 4 4 4h38c2.216 0 4-1.784 4-4v-0.25c0 2.216-1.784 4-4 4h-38c-2.216 0-4-1.784-4-4zm0 0.5v0.5c0 2.216 1.784 4 4 4h38c2.216 0 4-1.784 4-4v-0.5c0 2.216-1.784 4-4 4h-38c-2.216 0-4-1.784-4-4z" opacity=".02"/>
  <path d="m1 43.25v0.25c0 2.216 1.784 4 4 4h38c2.216 0 4-1.784 4-4v-0.25c0 2.216-1.784 4-4 4h-38c-2.216 0-4-1.784-4-4z" opacity=".05"/>
  <path d="m1 43v0.25c0 2.216 1.784 4 4 4h38c2.216 0 4-1.784 4-4v-0.25c0 2.216-1.784 4-4 4h-38c-2.216 0-4-1.784-4-4z" opacity=".1"/>
 </g>
 <g>
  <rect transform="rotate(-90)" x="-47" y="1" width="46" height="46" rx="4" fill="url(#linearGradient3764)"/>
 </g>
 <g>
  <g clip-path="url(#clipPath-855056026)">
   <g opacity=".1">
    <g>
     <g>
      <path d="m26.402 12h7.203c1.324 0 2.398 1.074 2.398 2.398v7.207c0 1.324-1.074 2.398-2.398 2.398h-7.203c-1.324 0-2.398-1.074-2.398-2.398v-7.207c0-1.324 1.074-2.398 2.398-2.398"/>
      <path d="m15.598 14h4.801c0.883 0 1.598 0.715 1.598 1.598v4.801c0 0.883-0.715 1.598-1.598 1.598h-4.801c-0.883 0-1.598-0.715-1.598-1.598v-4.801c0-0.883 0.715-1.598 1.598-1.598"/>
      <path d="m27.598 26h4.801c0.883 0 1.598 0.715 1.598 1.598v4.801c0 0.883-0.715 1.598-1.598 1.598h-4.801c-0.883 0-1.598-0.715-1.598-1.598v-4.801c0-0.883 0.715-1.598 1.598-1.598"/>
      <path d="m14.398 24h7.207c1.324 0 2.398 1.074 2.398 2.398v7.203c0 1.324-1.074 2.398-2.398 2.398h-7.207c-1.324 0-2.398-1.074-2.398-2.398v-7.203c0-1.324 1.074-2.398 2.398-2.398"/>
     </g>
    </g>
   </g>
  </g>
 </g>
 <g>
  <g clip-path="url(#clipPath-868444156)">
   <g transform="translate(0,-1)">
    <g>
     <g>
      <path d="m26.402 12h7.203c1.324 0 2.398 1.074 2.398 2.398v7.207c0 1.324-1.074 2.398-2.398 2.398h-7.203c-1.324 0-2.398-1.074-2.398-2.398v-7.207c0-1.324 1.074-2.398 2.398-2.398" fill="#f2f27c"/>
      <path d="m15.598 14h4.801c0.883 0 1.598 0.715 1.598 1.598v4.801c0 0.883-0.715 1.598-1.598 1.598h-4.801c-0.883 0-1.598-0.715-1.598-1.598v-4.801c0-0.883 0.715-1.598 1.598-1.598" fill="#68b0e3"/>
      <path d="m27.598 26h4.801c0.883 0 1.598 0.715 1.598 1.598v4.801c0 0.883-0.715 1.598-1.598 1.598h-4.801c-0.883 0-1.598-0.715-1.598-1.598v-4.801c0-0.883 0.715-1.598 1.598-1.598" fill="#68b0e3"/>
      <path d="m14.398 24h7.207c1.324 0 2.398 1.074 2.398 2.398v7.203c0 1.324-1.074 2.398-2.398 2.398h-7.207c-1.324 0-2.398-1.074-2.398-2.398v-7.203c0-1.324 1.074-2.398 2.398-2.398" fill="#f2f27c"/>
     </g>
    </g>
   </g>
  </g>
 </g>
 <g>
  <g transform="translate(0 -1004.4)">
   <path d="m1 1043.4v4c0 2.216 1.784 4 4 4h38c2.216 0 4-1.784 4-4v-4c0 2.216-1.784 4-4 4h-38c-2.216 0-4-1.784-4-4z" opacity=".1"/>
  </g>
 </g>
</svg>
