<svg width="48" height="48" version="1.1" viewBox="0 0 48 48.000001" xmlns="http://www.w3.org/2000/svg">
 <defs>
  <linearGradient id="linearGradient4501" x1="-47" x2="-1" y1="2.8779e-15" y2="6.1232e-17" gradientUnits="userSpaceOnUse">
   <stop style="stop-color:#3d3d3d" offset="0"/>
   <stop style="stop-color:#474747" offset="1"/>
  </linearGradient>
 </defs>
 <g transform="translate(0 3.949e-5)">
  <path d="m1 43v0.25c0 2.216 1.784 4 4 4h38c2.216 0 4-1.784 4-4v-0.25c0 2.216-1.784 4-4 4h-38c-2.216 0-4-1.784-4-4zm0 0.5v0.5c0 2.216 1.784 4 4 4h38c2.216 0 4-1.784 4-4v-0.5c0 2.216-1.784 4-4 4h-38c-2.216 0-4-1.784-4-4z" style="opacity:.02"/>
  <path d="m1 43.25v0.25c0 2.216 1.784 4 4 4h38c2.216 0 4-1.784 4-4v-0.25c0 2.216-1.784 4-4 4h-38c-2.216 0-4-1.784-4-4z" style="opacity:.05"/>
  <path d="m1 43v0.25c0 2.216 1.784 4 4 4h38c2.216 0 4-1.784 4-4v-0.25c0 2.216-1.784 4-4 4h-38c-2.216 0-4-1.784-4-4z" style="opacity:.1"/>
 </g>
 <rect transform="rotate(-90)" x="-47" y="1" width="46" height="46" rx="4" style="fill:url(#linearGradient4501)"/>
 <g transform="translate(0 3.949e-5)">
  <g transform="translate(0 -1004.4)">
   <path d="m1 1043.4v4c0 2.216 1.784 4 4 4h38c2.216 0 4-1.784 4-4v-4c0 2.216-1.784 4-4 4h-38c-2.216 0-4-1.784-4-4z" style="opacity:.1"/>
  </g>
 </g>
 <g transform="translate(-.995 -1.001)">
  <g transform="translate(1,1)">
   <g style="opacity:.1">
    <path d="m34.555 19.613c-1.828-4.03-5.922-6.617-10.531-6.617-4.715 0-9.03 2.832-10.734 7.04l3.578 1.324c1.129-2.809 4.01-4.691 7.156-4.691 3.035 0 5.715 1.68 6.961 4.305l-2.609 1 6.672 3.684 1.953-6.977m-2.445 0.934"/>
    <path d="m24.02 31.34c-3.01 0-5.75-1.734-6.977-4.344l2.57-0.949-6.598-3.605-2.02 6.793 2.461-0.914c1.793 4.01 5.98 6.68 10.563 6.68 4.734 0 8.922-2.715 10.664-6.922l-3.543-1.359c-1.168 2.809-3.965 4.621-7.121 4.621"/>
   </g>
  </g>
 </g>
 <g transform="translate(.005 -1.001)">
  <path d="m34.555 19.613c-1.828-4.03-5.922-6.617-10.531-6.617-4.715 0-9.03 2.832-10.734 7.04l3.578 1.324c1.129-2.809 4.01-4.691 7.156-4.691 3.035 0 5.715 1.68 6.961 4.305l-2.609 1 6.672 3.684 1.953-6.977m-2.445 0.934" style="fill:#f48888"/>
  <path d="m24.02 31.34c-3.01 0-5.75-1.734-6.977-4.344l2.57-0.949-6.598-3.605-2.02 6.793 2.461-0.914c1.793 4.01 5.98 6.68 10.563 6.68 4.734 0 8.922-2.715 10.664-6.922l-3.543-1.359c-1.168 2.809-3.965 4.621-7.121 4.621" style="fill:#f0f0f0"/>
 </g>
</svg>
