<svg viewBox="0 0 48 48">
  <defs>
    <linearGradient id="a" x1="1" x2="47" gradientUnits="userSpaceOnUse" gradientTransform="translate(-48 .002)">
      <stop stop-color="#3d3d3d"/>
      <stop offset="1" stop-color="#474747"/>
    </linearGradient>
    <clipPath id="b"/>
    <clipPath id="c"/>
  </defs>
  <path d="M1 43v.25c0 2.216 1.784 4 4 4h38c2.216 0 4-1.784 4-4V43c0 2.216-1.784 4-4 4H5c-2.216 0-4-1.784-4-4zm0 .5v.5c0 2.216 1.784 4 4 4h38c2.216 0 4-1.784 4-4v-.5c0 2.216-1.784 4-4 4H5c-2.216 0-4-1.784-4-4z" opacity=".02"/>
  <path d="M1 43.25v.25c0 2.216 1.784 4 4 4h38c2.216 0 4-1.784 4-4v-.25c0 2.216-1.784 4-4 4H5c-2.216 0-4-1.784-4-4z" opacity=".05"/>
  <path d="M1 43v.25c0 2.216 1.784 4 4 4h38c2.216 0 4-1.784 4-4V43c0 2.216-1.784 4-4 4H5c-2.216 0-4-1.784-4-4z" opacity=".1"/>
  <rect width="46" height="46" x="-47" y="1" rx="4" transform="rotate(-90)" fill="url(#a)"/>
  <g fill-rule="evenodd" opacity=".1" clip-path="url(#b)">
    <path d="M19.668 27.664H37l-4.332 7.332H15.332m4.336-7.332M37 27.664l-8.668-14.668h-8.664l8.664 14.668m8.668 0"/>
    <path d="M15.332 34.996L24 20.328l-4.332-7.332L11 27.664m4.332 7.332"/>
  </g>
  <g>
    <g fill-rule="evenodd" clip-path="url(#c)">
      <path d="M19.668 26.664H37l-4.332 7.332H15.332m4.336-7.332" fill="#3d86fb"/>
      <path d="M37 26.664l-8.668-14.668h-8.664l8.664 14.668m8.668 0" fill="#fbcf4b"/>
      <path d="M15.332 33.996L24 19.328l-4.332-7.332L11 26.664m4.332 7.332" fill="#0aa35f"/>
    </g>
  </g>
  <g>
    <path d="M1 38.998v4c0 2.216 1.784 4 4 4h38c2.216 0 4-1.784 4-4v-4c0 2.216-1.784 4-4 4H5c-2.216 0-4-1.784-4-4z" opacity=".1"/>
  </g>
</svg>
