<svg version="1.1" viewBox="0 0 48 48" xmlns="http://www.w3.org/2000/svg">
 <path d="m29.562 16.998-10.968 30.002h24.406c2.216 0 4-1.784 4-4v-24z" style="fill:#ddc969"/>
 <path d="m2.9199 1.5957c-1.152 0.69603-1.9199 1.9531-1.9199 3.4043v38c0 2.216 1.784 4 4 4h13.594l8.6582-14.592s-24.332-30.814-24.332-30.812z" style="fill:#8cc58c"/>
 <g transform="translate(0 3.949e-5)">
  <path d="m1 43v0.25c0 2.216 1.784 4 4 4h38c2.216 0 4-1.784 4-4v-0.25c0 2.216-1.784 4-4 4h-38c-2.216 0-4-1.784-4-4zm0 0.5v0.5c0 2.216 1.784 4 4 4h38c2.216 0 4-1.784 4-4v-0.5c0 2.216-1.784 4-4 4h-38c-2.216 0-4-1.784-4-4z" opacity=".02"/>
  <path d="m1 43.25v0.25c0 2.216 1.784 4 4 4h38c2.216 0 4-1.784 4-4v-0.25c0 2.216-1.784 4-4 4h-38c-2.216 0-4-1.784-4-4z" opacity=".05"/>
  <path d="m1 43v0.25c0 2.216 1.784 4 4 4h38c2.216 0 4-1.784 4-4v-0.25c0 2.216-1.784 4-4 4h-38c-2.216 0-4-1.784-4-4z" opacity=".1"/>
 </g>
 <path d="m5 1c-0.7656 0-1.4734 0.2236-2.0801 0.5938l12.16 21.056 16.4-3.623 15.52-0.025v-14.002c0-2.216-1.784-4-4-4h-38z" style="fill:#de9073"/>
 <g transform="translate(0 3.949e-5)">
  <g transform="translate(0 -1004.4)">
   <path d="m1 1043.4v4c0 2.216 1.784 4 4 4h38c2.216 0 4-1.784 4-4v-4c0 2.216-1.784 4-4 4h-38c-2.216 0-4-1.784-4-4z" opacity=".1"/>
  </g>
 </g>
 <path d="m33 24c0 4.973-4.03 9-9 9-4.969 0-9-4.03-9-9 0-4.969 4.03-9 9-9 4.973 0 9 4.03 9 9" style="fill:#f9f9f9"/>
 <path d="m24 15c-4.97 0-9 4.031-9 9 0 0.169 0.016391 0.333 0.025391 0.5 0.261-4.735 4.1736-8.5 8.9746-8.5 4.804 0 8.7136 3.764 8.9746 8.5 9e-3 -0.167 0.025391-0.331 0.025391-0.5 0-4.97-4.027-9-9-9zm0 3c-3.867 0-7 3.133-7 7s3.133 7 7 7 7-3.133 7-7-3.133-7-7-7z" style="opacity:.1"/>
 <path d="m24 16.998c-3.867 0-7 3.133-7 7s3.133 7 7 7 7-3.133 7-7-3.133-7-7-7z" style="fill:#72b8ba"/>
</svg>
