<svg viewBox="0 0 48 48" xmlns:xlink="http://www.w3.org/1999/xlink">
  <defs>
    <linearGradient id="a" x1="1" x2="47" gradientUnits="userSpaceOnUse" gradientTransform="translate(-48 .002)">
      <stop stop-color="#f7b747"/>
      <stop offset="1" stop-color="#f8bd5a"/>
    </linearGradient>
    <clipPath id="b"/>
    <clipPath id="c"/>
  </defs>
  <path d="M1 43v.25c0 2.216 1.784 4 4 4h38c2.216 0 4-1.784 4-4V43c0 2.216-1.784 4-4 4H5c-2.216 0-4-1.784-4-4zm0 .5v.5c0 2.216 1.784 4 4 4h38c2.216 0 4-1.784 4-4v-.5c0 2.216-1.784 4-4 4H5c-2.216 0-4-1.784-4-4z" opacity=".02"/>
  <path d="M1 43.25v.25c0 2.216 1.784 4 4 4h38c2.216 0 4-1.784 4-4v-.25c0 2.216-1.784 4-4 4H5c-2.216 0-4-1.784-4-4z" opacity=".05"/>
  <path d="M1 43v.25c0 2.216 1.784 4 4 4h38c2.216 0 4-1.784 4-4V43c0 2.216-1.784 4-4 4H5c-2.216 0-4-1.784-4-4z" opacity=".1"/>
  <rect width="46" height="46" x="-47" y="1" rx="4" transform="rotate(-90)" fill="url(#a)"/>
  <g opacity=".1" clip-path="url(#b)">
    <path d="M23.672 10c-7.582 0-13.84 6.141-14.613 14.07-.004.02 0 .047 0 .07v.023c-.004.027 0 .047 0 .07-.086 1.141-.066 2.082 0 3.145 2.961 12.898 11.824 11.895 11.824 8.141l-4.01-6.922c-.852-.59-1.762.418-2.594.961-1.063.703-1.145.813-1.762-.797-.719-1.898-1.086-4.98 0-7.508 2.246-5.25 6.457-8.176 11.152-8.262h.699c4.672.102 8.867 3.03 11.11 8.262 1.082 2.527.719 5.605 0 7.508-.609 1.609-.699 1.5-1.766.797-.824-.547-1.723-1.551-2.594-.961l-4.01 6.922c0 3.75 8.867 4.758 11.828-8.141.063-1.063.086-2 0-3.145-.004-.023.004-.043 0-.07v-.023c-.004-.023.004-.047 0-.07C38.159 16.132 31.944 10 24.362 10h-.699m.004 0"/>
    <path d="M24 17c-3 3-3 3-5.898 5.461a.304.304 0 0 0-.078.34.383.383 0 0 0 .328.199H21v6.563c0 .164.188.438.363.438h5.305c.184 0 .332-.211.332-.379V22.97l2.652.031a.37.37 0 0 0 .324-.199c.055-.113.02-.25-.078-.34C27 20.005 27 20.005 24 17.001m0 0" fill-opacity=".2" id="d"/>
  </g>
  <g>
    <g clip-path="url(#c)">
      <g transform="translate(0 -1)">
        <path d="M23.672 10c-7.582 0-13.84 6.141-14.613 14.07-.004.02 0 .047 0 .07v.023c-.004.027 0 .047 0 .07-.086 1.141-.066 2.082 0 3.145 2.961 12.898 11.824 11.895 11.824 8.141l-4.01-6.922c-.852-.59-1.762.418-2.594.961-1.063.703-1.145.813-1.762-.797-.719-1.898-1.086-4.98 0-7.508 2.246-5.25 6.457-8.176 11.152-8.262h.699c4.672.102 8.867 3.03 11.11 8.262 1.082 2.527.719 5.605 0 7.508-.609 1.609-.699 1.5-1.766.797-.824-.547-1.723-1.551-2.594-.961l-4.01 6.922c0 3.75 8.867 4.758 11.828-8.141.063-1.063.086-2 0-3.145-.004-.023.004-.043 0-.07v-.023c-.004-.023.004-.047 0-.07C38.159 16.132 31.944 10 24.362 10h-.699m.004 0" fill="#eaeaea"/>
        <use xlink:href="#d"/>
      </g>
    </g>
  </g>
  <g>
    <path d="M1 38.998v4c0 2.216 1.784 4 4 4h38c2.216 0 4-1.784 4-4v-4c0 2.216-1.784 4-4 4H5c-2.216 0-4-1.784-4-4z" opacity=".1"/>
  </g>
</svg>
