<svg viewBox="0 0 48 48" xmlns="http://www.w3.org/2000/svg">
 <defs>
  <linearGradient id="linearGradient3764" x1="1" x2="47" gradientTransform="translate(-48 .0022147)" gradientUnits="userSpaceOnUse">
   <stop stop-color="#46b0a9" offset="0"/>
   <stop stop-color="#51b9b4" offset="1"/>
  </linearGradient>
  <clipPath id="clipPath-245038273">
   <g transform="translate(0 -1004.4)">
    <rect x="1" y="1005.4" width="46" height="46" rx="4" fill="#1890d0"/>
   </g>
  </clipPath>
  <clipPath id="clipPath-259168505">
   <g transform="translate(0 -1004.4)">
    <rect x="1" y="1005.4" width="46" height="46" rx="4" fill="#1890d0"/>
   </g>
  </clipPath>
 </defs>
 <g>
  <path d="m1 43v0.25c0 2.216 1.784 4 4 4h38c2.216 0 4-1.784 4-4v-0.25c0 2.216-1.784 4-4 4h-38c-2.216 0-4-1.784-4-4zm0 0.5v0.5c0 2.216 1.784 4 4 4h38c2.216 0 4-1.784 4-4v-0.5c0 2.216-1.784 4-4 4h-38c-2.216 0-4-1.784-4-4z" opacity=".02"/>
  <path d="m1 43.25v0.25c0 2.216 1.784 4 4 4h38c2.216 0 4-1.784 4-4v-0.25c0 2.216-1.784 4-4 4h-38c-2.216 0-4-1.784-4-4z" opacity=".05"/>
  <path d="m1 43v0.25c0 2.216 1.784 4 4 4h38c2.216 0 4-1.784 4-4v-0.25c0 2.216-1.784 4-4 4h-38c-2.216 0-4-1.784-4-4z" opacity=".1"/>
 </g>
 <g>
  <rect transform="rotate(-90)" x="-47" y="1" width="46" height="46" rx="4" fill="url(#linearGradient3764)"/>
 </g>
 <g>
  <g clip-path="url(#clipPath-245038273)">
   <g opacity=".1">
    <g>
     <g>
      <path transform="scale(3.5433)" d="m7.116 4.847c0.627 0.625 0.627 1.642 0 2.269s-1.644 0.627-2.269 0c-0.627-0.627-0.627-1.644 0-2.269 0.625-0.627 1.642-0.627 2.269 0" stroke="#f9f9f9" stroke-width=".288"/>
      <path d="m28.24 29.719 1.48-1.48 3.277 3.277-1.48 1.48m-3.277-3.277"/>
      <path d="m25.09 26.13 1.043-1.043 3.277 3.277-1.043 1.043m-3.277-3.277"/>
     </g>
    </g>
   </g>
  </g>
 </g>
 <g>
  <g clip-path="url(#clipPath-259168505)">
   <g transform="translate(0,-1)">
    <g>
     <path transform="scale(3.5433)" d="m7.116 4.847c0.627 0.625 0.627 1.642 0 2.269s-1.644 0.627-2.269 0c-0.627-0.627-0.627-1.644 0-2.269 0.625-0.627 1.642-0.627 2.269 0" fill="none" stroke="#f9f9f9" stroke-width=".288"/>
     <path d="m28.24 29.719 1.48-1.48 3.277 3.277-1.48 1.48m-3.277-3.277" fill="#f9f9f9"/>
     <path d="m25.09 26.13 1.043-1.043 3.277 3.277-1.043 1.043m-3.277-3.277" fill="#f9f9f9"/>
    </g>
   </g>
  </g>
 </g>
 <g>
  <g transform="translate(0 -1004.4)">
   <path d="m1 1043.4v4c0 2.216 1.784 4 4 4h38c2.216 0 4-1.784 4-4v-4c0 2.216-1.784 4-4 4h-38c-2.216 0-4-1.784-4-4z" opacity=".1"/>
  </g>
 </g>
</svg>
