<svg version="1.1" viewBox="0 0 48 48" xmlns="http://www.w3.org/2000/svg">
 <defs>
  <linearGradient id="bg" x2="0" y1="1" y2="47" gradientUnits="userSpaceOnUse">
   <stop style="stop-color:#424242" offset="0"/>
   <stop style="stop-color:#383838" offset="1"/>
  </linearGradient>
 </defs>
 <path d="m1 43v0.25c0 2.216 1.784 4 4 4h38c2.216 0 4-1.784 4-4v-0.25c0 2.216-1.784 4-4 4h-38c-2.216 0-4-1.784-4-4zm0 0.5v0.5c0 2.216 1.784 4 4 4h38c2.216 0 4-1.784 4-4v-0.5c0 2.216-1.784 4-4 4h-38c-2.216 0-4-1.784-4-4z" style="opacity:.02"/>
 <path d="m1 43.25v0.25c0 2.216 1.784 4 4 4h38c2.216 0 4-1.784 4-4v-0.25c0 2.216-1.784 4-4 4h-38c-2.216 0-4-1.784-4-4z" style="opacity:.05"/>
 <path d="m1 43v0.25c0 2.216 1.784 4 4 4h38c2.216 0 4-1.784 4-4v-0.25c0 2.216-1.784 4-4 4h-38c-2.216 0-4-1.784-4-4z" style="opacity:.1"/>
 <rect x="1" y="1" width="46" height="46" rx="4" style="fill:url(#bg)"/>
 <path d="m1 39v4c0 2.216 1.784 4 4 4h38c2.216 0 4-1.784 4-4v-4c0 2.216-1.784 4-4 4h-38c-2.216 0-4-1.784-4-4z" style="opacity:.1"/>
 <path d="m17.742 8.8398-4 6.9277-0.86719-0.5-0.5 0.86719-0.86523-0.5-1 1.7305 0.86523 0.5-0.5 0.86719 0.86719 0.5-4 6.9277 3.4629 2 4-6.9277 1.3672-0.36719 1-1.7305-0.36719-1.3672 4-6.9277zm12.516 0-3.4629 2 4 6.9277-0.36719 1.3672 1 1.7305 1.3672 0.36719 4 6.9277 3.4629-2-4-6.9277 0.86719-0.5-0.5-0.86719 0.86523-0.5-1-1.7305-0.86523 0.5-0.5-0.86719-0.86719 0.5zm-6.2578 6.1602a9 9 0 0 0-3.2441 0.61523l-0.89062 1.5449a8 8 0 0 1 4.1348-1.1602 8 8 0 0 1 4.1367 1.1641l-0.90039-1.5605a9 9 0 0 0-3.2363-0.60352zm0 5a4 4 0 0 0-4 4 4 4 0 0 0 4 4 4 4 0 0 0 4-4 4 4 0 0 0-4-4zm-7.9922 3.8418-0.88867 1.541a9 9 0 0 0 3.2285 5.6172h1.7812a8 8 0 0 1-4.1289-7 8 8 0 0 1 0.0078-0.1582zm15.986 0.0059a8 8 0 0 1 0.0059 0.1523 8 8 0 0 1-4.1465 7h1.791a9 9 0 0 0 3.2422-5.6094zm-8.9941 8.1523-1 1h-8v4h8v1h1v1h2v-1h1v-1h8v-4h-8l-1-1z" style="opacity:.1"/>
 <circle cx="24" cy="23" r="4" style="fill:#5d68ae"/>
 <rect x="14" y="32" width="20" height="4" style="fill:#327582"/>
 <path d="m23 31-1 1v5h1v1h2v-1h1v-5l-1-1z" style="fill:#d8c584"/>
 <path d="m17 32v4h1v-4zm4 0v4h1v-4zm5 0v4h1v-4zm4 0v4h1v-4z" style="opacity:.15"/>
 <rect transform="rotate(120)" x="-2.0816" y="-23.285" width="20" height="4" style="fill:#327582"/>
 <path d="m17.572 18.134-0.36603-1.366-4.3301-2.5-0.5 0.86603-0.86602-0.5-1 1.732 0.86602 0.5-0.5 0.86603 4.3301 2.5 1.366-0.36603z" style="fill:#d8c584"/>
 <path d="m19.706 12.438-3.4641-2-0.5 0.86603 3.4641 2zm-2 3.4641-3.4641-2-0.5 0.86602 3.4641 2zm-2.5 4.3301-3.4641-2-0.5 0.86602 3.4641 2zm-2 3.4641-3.4641-2-0.5 0.86603 3.4641 2z" style="opacity:.15"/>
 <rect transform="rotate(240)" x="-41.919" y="18.285" width="20" height="4" style="fill:#327582"/>
 <path d="m31.429 19.866 1.366 0.36603 4.3301-2.5-0.5-0.86603 0.86602-0.5-1-1.732-0.86603 0.5-0.5-0.86602-4.3301 2.5-0.36602 1.366z" style="fill:#d8c584"/>
 <path d="m35.295 24.562 3.4641-2-0.5-0.86603-3.4641 2zm-2-3.4641 3.4641-2-0.5-0.86602-3.4641 2zm-2.5-4.3301 3.4641-2-0.5-0.86602-3.4641 2zm-2-3.4641 3.4641-2-0.5-0.86603-3.4641 2z" style="opacity:.15"/>
 <path d="m24 14a9 9 0 0 0-3.2441 0.61523l-0.89062 1.5449a8 8 0 0 1 4.1348-1.1602 8 8 0 0 1 4.1367 1.1641l-0.90039-1.5605a9 9 0 0 0-3.2363-0.60352zm-7.9922 8.8418-0.88867 1.541a9 9 0 0 0 3.2285 5.6172h1.7812a8 8 0 0 1-4.1289-7 8 8 0 0 1 0.0078-0.1582zm15.986 0.0059a8 8 0 0 1 0.0059 0.1523 8 8 0 0 1-4.1465 7h1.791a9 9 0 0 0 3.2422-5.6094z" style="fill:#f9f9f9;opacity:.9;stroke-width:.6"/>
</svg>
