<?xml version="1.0" encoding="UTF-8"?>
<svg id="svg4340" width="48" height="48" version="1.1" viewBox="0 0 48 48.000001" xmlns="http://www.w3.org/2000/svg" xmlns:cc="http://creativecommons.org/ns#" xmlns:dc="http://purl.org/dc/elements/1.1/" xmlns:rdf="http://www.w3.org/1999/02/22-rdf-syntax-ns#">
 <defs id="defs4342">
  <linearGradient id="linearGradient4217" x1="1" x2="47" gradientTransform="translate(-48 .00221)" gradientUnits="userSpaceOnUse">
   <stop id="stop7-93" style="stop-color:#f8f5c4" offset="0"/>
   <stop id="stop9-1" style="stop-color:#faf8d6" offset="1"/>
  </linearGradient>
 </defs>
 <metadata id="metadata4345">
  <rdf:RDF>
   <cc:Work rdf:about="">
    <dc:format>image/svg+xml</dc:format>
    <dc:type rdf:resource="http://purl.org/dc/dcmitype/StillImage"/>
    <dc:title/>
   </cc:Work>
  </rdf:RDF>
 </metadata>
 <g id="g21">
  <path id="path23" d="m1 43v0.25c0 2.216 1.784 4 4 4h38c2.216 0 4-1.784 4-4v-0.25c0 2.216-1.784 4-4 4h-38c-2.216 0-4-1.784-4-4zm0 0.5v0.5c0 2.216 1.784 4 4 4h38c2.216 0 4-1.784 4-4v-0.5c0 2.216-1.784 4-4 4h-38c-2.216 0-4-1.784-4-4z" style="opacity:.02"/>
  <path id="path25" d="m1 43.25v0.25c0 2.216 1.784 4 4 4h38c2.216 0 4-1.784 4-4v-0.25c0 2.216-1.784 4-4 4h-38c-2.216 0-4-1.784-4-4z" style="opacity:.05"/>
  <path id="path27" d="m1 43v0.25c0 2.216 1.784 4 4 4h38c2.216 0 4-1.784 4-4v-0.25c0 2.216-1.784 4-4 4h-38c-2.216 0-4-1.784-4-4z" style="opacity:.1"/>
 </g>
 <rect id="rect4215" transform="rotate(-90)" x="-47" y="1" width="46" height="46" rx="4" style="fill:url(#linearGradient4217)"/>
 <g id="g57">
  <g id="g59" transform="translate(0,-1004.4)">
   <path id="path61" d="m1 1043.4v4c0 2.216 1.784 4 4 4h38c2.216 0 4-1.784 4-4v-4c0 2.216-1.784 4-4 4h-38c-2.216 0-4-1.784-4-4z" style="opacity:.1"/>
  </g>
 </g>
 <path id="path4568" d="m24 9c-1.9542-1e-3 -3.8889 0.38913-5.6953 1.1348l2.1953 3.8652h9.5l4.3496 8h4.498c-1.0006-7.4373-7.3433-12.996-14.848-13zm-9.1602 3.1328c-3.6797 2.8377-5.8386 7.2204-5.8398 11.867-0.0022 8.2843 6.7157 15.004 15 15 7.505-4e-3 13.849-5.562 14.85-13h-4.5l-4.3496 8h-12l-5.5-10 4.5-8zm9.1602 6.8672a5 5 0 0 0 -5 5 5 5 0 0 0 5 5 5 5 0 0 0 5 -5 5 5 0 0 0 -5 -5z" style="opacity:.1"/>
 <path id="path4491" d="m14.84 11.133c-3.6797 2.8376-5.8386 7.2204-5.8398 11.867-0.0022 8.2843 6.7157 15.004 15 15 7.505-4e-3 13.849-5.562 14.85-13h-4.5l-4.3496 7.9994h-12l-5.5-10 4.5-8z" style="fill:#69b957"/>
 <circle id="path4493" cx="24" cy="22.999" r="5" style="fill:#00663f"/>
 <path id="path4509" d="m24 8c-1.9542-1e-3 -3.8889 0.38913-5.6953 1.1348l2.1953 3.8646h9.5l4.3496 8.0006h4.498c-1.0006-7.4373-7.3433-12.996-14.848-13z" style="fill:#00663f"/>
</svg>
