<svg version="1.1" viewBox="0 0 48 48" xmlns="http://www.w3.org/2000/svg">
 <defs>
  <linearGradient id="bg" x1="-47" x2="-1" y1="2.8779e-15" y2="6.1232e-17" gradientUnits="userSpaceOnUse">
   <stop style="stop-color:#87ef79" offset="0"/>
   <stop style="stop-color:#97f18b" offset="1"/>
  </linearGradient>
 </defs>
 <g transform="translate(0 3.949e-5)">
  <path d="m1 43v0.25c0 2.216 1.784 4 4 4h38c2.216 0 4-1.784 4-4v-0.25c0 2.216-1.784 4-4 4h-38c-2.216 0-4-1.784-4-4zm0 0.5v0.5c0 2.216 1.784 4 4 4h38c2.216 0 4-1.784 4-4v-0.5c0 2.216-1.784 4-4 4h-38c-2.216 0-4-1.784-4-4z" style="opacity:.02"/>
  <path d="m1 43.25v0.25c0 2.216 1.784 4 4 4h38c2.216 0 4-1.784 4-4v-0.25c0 2.216-1.784 4-4 4h-38c-2.216 0-4-1.784-4-4z" style="opacity:.05"/>
  <path d="m1 43v0.25c0 2.216 1.784 4 4 4h38c2.216 0 4-1.784 4-4v-0.25c0 2.216-1.784 4-4 4h-38c-2.216 0-4-1.784-4-4z" style="opacity:.1"/>
 </g>
 <rect transform="rotate(-90)" x="-47" y="1" width="46" height="46" rx="4" style="fill:url(#bg)"/>
 <g transform="translate(0 3.949e-5)">
  <g transform="translate(0 -1004.4)">
   <path d="m1 1043.4v4c0 2.216 1.784 4 4 4h38c2.216 0 4-1.784 4-4v-4c0 2.216-1.784 4-4 4h-38c-2.216 0-4-1.784-4-4z" style="opacity:.1"/>
  </g>
 </g>
 <path d="m17.172 11c2.2942 4.382 3.9385 8.6632 4.9297 13.053-2.7422-5.0076-6.7541-5.8729-11.102-5.9844v2e-3c6.6628 0.81881 10.448 5.7736 11.939 12.137-0.0036 0.06869-0.0083 0.13391-0.01172 0.20312-1.486-6.701-8.4017-9.2394-11.928-8.1114 6.404 1.0794 9.0314 4.3211 10.326 7.7227-0.32911-0.33217-0.66918-0.61054-1.0176-0.83984-1.8599-2.789-3.9303-3.6787-7.3711-3.1484 1.8606 0.37187 3.3436 1.1571 4.5371 2.1953-1.8613-0.15825-3.7811 0.37977-5.4746 0.7168l-0.0039 0.0039c3.6301 0.6892 6.1658 0.97007 7.8145 2.1582 1.084 1.8575 1.7407 3.9609 2.1894 5.8926h6c0-1.7276 0.06116-3.3174 0.2168-4.8027 1.6715-2.355 4.355-4.1933 8.7832-4.4258-3.2804-0.44178-5.9894-0.37128-8.2227 1.1523 0.10849-0.42489 0.23141-0.83856 0.36914-1.2441 1.6922-1.7169 3.9443-2.5967 6.8828-1.6016-1.9359-1.2787-3.892-1.6027-5.6504-1.0918 1.2083-2.0322 2.9937-3.8218 5.6172-5.4766-3.8492 0.70554-6.4666 2.8268-8.377 7.1328-1.0829 1.0526-1.9862 2.525-2.623 4.373-0.04061-0.25901-0.08159-0.50994-0.12305-0.76172 1.5875-6.2939 5.3301-12.309 11.113-13.252-4.7248 0.08932-8.5229 1.7885-11.232 9.5352 0.65206-7.1079 3.2167-10.991 7.4668-15.537-3.5683 2.3647-7.0627 5.3013-8.582 13.176-1.9666-7.8504-4.4305-10.72-6.4668-13.176zm18.814 6.002c0.0039-7.4e-5 0.0078 7.2e-5 0.01172 0v-2e-3c-0.0039 6.38e-4 -0.0078 0.0013-0.01172 2e-3z" style="opacity:.1"/>
 <path d="m11 21.298c3.526-1.128 10.441 1.411 11.927 8.112 0.632-12.737 4.909-16.504 9.294-19.41-5.272 5.639-7.954 10.255-7.604 21.276 1.719-6.695 6.632-9.356 11.413-6.198-7.06-2.391-10.173 6.03-11.02 10.922h-2.02c-1.125-4.427-0.866-12.827-11.99-14.702" style="fill:#145c14"/>
 <path d="m12 27.946c3.628-0.722 8.293-2.367 11.201 3.889-0.209-7.634-2.24-14.596-6.03-21.835 2.718 3.278 6.198 7.293 8.24 22.907 2-9.358 4.994-13.372 10.586-14.397-6.806 4.293-7.997 9.49-7.997 17.49h-5.775c-0.517-6.909-3.486-6.77-10.228-8.05" style="fill:#20b420"/>
 <path d="m11 17.07c8.902 1.094 12.669 9.571 12.689 18.926h2.39c1.117-4.2 3.701-8.845 10.921-9.224-5.413-0.729-9.274-0.073-12 6.228-2-14-7.641-15.768-14-15.931" style="fill:#479812"/>
 <path d="m35.999 16c-7.894 1.277-11.999 12-11.999 20h-2c-1.031-4.438-3.149-9.784-9.063-10.966 4.996-0.77 7.103 1.45 9.871 8.138 2.68-14.37 7.191-17.06 13.191-17.17" style="fill:#397113"/>
</svg>
