<svg version="1.1" viewBox="0 0 48 48" xmlns="http://www.w3.org/2000/svg">
 <defs>
  <linearGradient id="bg" x2="0" y1="1" y2="47" gradientUnits="userSpaceOnUse">
   <stop style="stop-color:#a9d054" offset="0"/>
   <stop style="stop-color:#a1cc44" offset="1"/>
  </linearGradient>
 </defs>
 <path d="m1 43v0.25c0 2.216 1.784 4 4 4h38c2.216 0 4-1.784 4-4v-0.25c0 2.216-1.784 4-4 4h-38c-2.216 0-4-1.784-4-4zm0 0.5v0.5c0 2.216 1.784 4 4 4h38c2.216 0 4-1.784 4-4v-0.5c0 2.216-1.784 4-4 4h-38c-2.216 0-4-1.784-4-4z" style="opacity:.02"/>
 <path d="m1 43.25v0.25c0 2.216 1.784 4 4 4h38c2.216 0 4-1.784 4-4v-0.25c0 2.216-1.784 4-4 4h-38c-2.216 0-4-1.784-4-4z" style="opacity:.05"/>
 <path d="m1 43v0.25c0 2.216 1.784 4 4 4h38c2.216 0 4-1.784 4-4v-0.25c0 2.216-1.784 4-4 4h-38c-2.216 0-4-1.784-4-4z" style="opacity:.1"/>
 <rect x="1" y="1" width="46" height="46" rx="4" style="fill:url(#bg)"/>
 <path d="m1 39v4c0 2.216 1.784 4 4 4h38c2.216 0 4-1.784 4-4v-4c0 2.216-1.784 4-4 4h-38c-2.216 0-4-1.784-4-4z" style="opacity:.1"/>
 <path d="m27.974 12c-3.5663 0-6.547 2.4437-9.0246 4.8085-3.1999 3.0542-5.9491 6.6438-5.9491 11.176 0 2.9971 0.67409 5.8252 2.9173 7.2499 1.8991 1.2061 4.3226 0.76989 6.3564 0.16703 2.1133-0.62647 4.2555-1.7712 5.3363-3.7831-0.42292 1.1513 0.71304 2.3272 1.7978 1.6489 0.91359-0.51063 0.95294-1.3209 1.0834-2.2323 0.2936-2.0513 0.73559-3.7398 0.31564-5.4015-0.37833-1.3098-1.5924-2.243-2.9488-1.8808-1.9074 0.43426-3.6037 1.467-5.4163 2.1688-1.0553 0.50301-2.469 1.0497-2.6112 2.3753-0.09186 1.2097 1.3469 1.3889 2.2467 1.0059 1.3653-0.58107 2.6699-1.2779 4.0367-1.8482-0.42257 1.1996-0.58713 2.5576-1.5781 3.4699-1.4249 1.5684-3.6291 2.1584-5.6915 2.2155-1.5783 0.04366-2.4072-1.5668-2.6575-2.8945-0.66123-3.0948 0.7125-6.1846 2.4672-8.6576 1.5015-2.1162 3.4236-3.9731 5.5864-5.3755 1.3891-0.90072 3.1128-1.7172 4.8196-1.3229 1.1327 0.26167 2.2113 1.7358 3.4209 0.86197 0.93802-0.67767 0.46216-1.8657-0.38559-2.4595-1.2204-0.85488-2.5799-1.2918-4.1216-1.2918z" style="opacity:.1"/>
 <path d="m27.974 11c-3.5663 0-6.547 2.4437-9.0246 4.8085-3.1999 3.0542-5.9491 6.6438-5.9491 11.176 0 2.9971 0.67409 5.8252 2.9173 7.2499 1.8991 1.2061 4.3226 0.76989 6.3564 0.16703 2.1133-0.62647 4.2555-1.7712 5.3363-3.7831-0.42292 1.1513 0.71304 2.3272 1.7978 1.6489 0.91359-0.51063 0.95294-1.3209 1.0834-2.2323 0.2936-2.0513 0.73559-3.7398 0.31564-5.4015-0.37833-1.3098-1.5924-2.243-2.9488-1.8808-1.9074 0.43426-3.6037 1.467-5.4163 2.1688-1.0553 0.50301-2.469 1.0497-2.6112 2.3753-0.09186 1.2097 1.3469 1.3889 2.2467 1.0059 1.3653-0.58107 2.6699-1.2779 4.0367-1.8482-0.42257 1.1996-0.58713 2.5576-1.5781 3.4699-1.4249 1.5684-3.6291 2.1584-5.6915 2.2155-1.5783 0.04366-2.4072-1.5668-2.6575-2.8945-0.66123-3.0948 0.7125-6.1846 2.4672-8.6576 1.5015-2.1162 3.4236-3.9731 5.5864-5.3755 1.3891-0.90072 3.1128-1.7172 4.8196-1.3229 1.1327 0.26167 2.2113 1.7358 3.4209 0.86197 0.93802-0.67767 0.46216-1.8657-0.38559-2.4595-1.2204-0.85488-2.5799-1.2918-4.1216-1.2918z" style="fill:#424242"/>
 <path d="m27.969 11.762c-3.2819 0.14292-6.0233 2.2542-8.325 4.4131-3.1061 2.9134-5.6848 6.7663-5.8919 11.137-0.10674 2.2532 0.46655 4.7779 2.3593 6.1838 1.5912 1.1819 3.7338 0.80481 5.5168 0.3304 2.2162-0.58968 4.6845-2.1077 5.6515-4.3279 0.42072-1.0016 1.3356-2.8868 0.63621-3.1951-0.7715-0.34008-1.3844 1.4498-1.6384 2.1406-0.78288 2.1285-2.749 3.5856-4.8773 4.1397-1.5234 0.39658-3.4811 0.75492-4.6862-0.49857-1.4447-1.5027-1.6591-3.8146-1.3595-5.7928 0.419-2.7668 1.8661-5.3128 3.665-7.4171 1.3987-1.6362 2.9842-3.1374 4.7711-4.2957 1.5363-0.99587 3.4271-1.829 5.3065-1.4492 1.4405 0.29107 2.3674 1.4794 2.9041 1.0935 0.83238-0.59856-0.29401-1.3465-0.90749-1.6946-0.95726-0.54323-2.0375-0.81462-3.1246-0.76729zm0.60352 11.695c-1.6512 0.13915-3.1096 1.0444-4.6238 1.645-1.0991 0.54716-2.5328 0.77583-3.2312 1.8235-0.81891 1.2284 1.2476 0.67989 1.8611 0.38196 1.7049-0.82791 3.3706-1.8496 5.2489-2.227 1.3038-0.12341 1.2149 1.3998 1.0068 2.3104-0.29919 1.3094-1.3482 4.1934-0.0099 4.3665 0.72699 0.09405 0.82202-1.2084 0.96609-1.8987 0.32626-1.5632 0.80682-3.1777 0.52829-4.7693-0.14454-0.82592-0.86367-1.5962-1.7462-1.6325z" style="fill:#da5a49"/>
</svg>
