<svg version="1.1" viewBox="0 0 48 48" xmlns="http://www.w3.org/2000/svg">
 <defs>
  <linearGradient id="bg" x2="0" y1="1" y2="47" gradientUnits="userSpaceOnUse">
   <stop style="stop-color:#0d9bff" offset="0"/>
   <stop style="stop-color:#0091f8" offset="1"/>
  </linearGradient>
 </defs>
 <path d="m1 43v0.25c0 2.216 1.784 4 4 4h38c2.216 0 4-1.784 4-4v-0.25c0 2.216-1.784 4-4 4h-38c-2.216 0-4-1.784-4-4zm0 0.5v0.5c0 2.216 1.784 4 4 4h38c2.216 0 4-1.784 4-4v-0.5c0 2.216-1.784 4-4 4h-38c-2.216 0-4-1.784-4-4z" style="opacity:.02"/>
 <path d="m1 43.25v0.25c0 2.216 1.784 4 4 4h38c2.216 0 4-1.784 4-4v-0.25c0 2.216-1.784 4-4 4h-38c-2.216 0-4-1.784-4-4z" style="opacity:.05"/>
 <path d="m1 43v0.25c0 2.216 1.784 4 4 4h38c2.216 0 4-1.784 4-4v-0.25c0 2.216-1.784 4-4 4h-38c-2.216 0-4-1.784-4-4z" style="opacity:.1"/>
 <rect x="1" y="1" width="46" height="46" rx="4" style="fill:url(#bg)"/>
 <path d="m13 14v3h-1l-1 3 1 3h1v5l3 8h19v-2l-2-2h-1v-4l3-3v-13h-19z" style="opacity:.1;paint-order:stroke fill markers"/>
 <path d="m1 39v4c0 2.216 1.784 4 4 4h38c2.216 0 4-1.784 4-4v-4c0 2.216-1.784 4-4 4h-38c-2.216 0-4-1.784-4-4z" style="opacity:.1"/>
 <path d="m13 13v14l3 8 9-8v-10l-9-6z" style="fill:#c63c32;paint-order:stroke fill markers"/>
 <path d="m15 24v4l2 3h15v-4h-14l-1-2v-1z" style="fill:#383838;paint-order:stroke fill markers"/>
 <path d="m16 11v13h1v1l1 2h14l3-3v-13zm1 20-1 4h19v-2l-2-2z" style="fill:#d35a52"/>
 <path d="m20.5 17a3.5 3.5 0 0 0-3.5 3.5 3.5 3.5 0 0 0 3.5 3.5 3.5 3.5 0 0 0 3.5-3.5 3.5 3.5 0 0 0-3.5-3.5zm9 0a3.5 3.5 0 0 0-3.5 3.5 3.5 3.5 0 0 0 3.5 3.5 3.5 3.5 0 0 0 3.5-3.5 3.5 3.5 0 0 0-3.5-3.5z" style="opacity:.1;paint-order:stroke fill markers"/>
 <circle cx="20.5" cy="19.5" r="3.5" style="fill:#c9bf8c;paint-order:stroke fill markers"/>
 <circle cx="29.5" cy="19.5" r="3.5" style="fill:#c9bf8c;paint-order:stroke fill markers"/>
 <circle cx="20.5" cy="19.5" r="2.5" style="fill:#f9f9f9;paint-order:stroke fill markers"/>
 <circle cx="29.5" cy="19.5" r="2.5" style="fill:#f9f9f9;paint-order:stroke fill markers"/>
 <path d="m12 16h1l1 3-1 3h-1l-1-3z" style="fill:#d35a52"/>
</svg>
