<svg viewBox="0 0 48 48" xmlns="http://www.w3.org/2000/svg">
 <defs>
  <linearGradient id="linearGradient3764" x1="1" x2="47" gradientTransform="translate(-48 .0022147)" gradientUnits="userSpaceOnUse">
   <stop stop-color="#3d5f89" offset="0"/>
   <stop stop-color="#436896" offset="1"/>
  </linearGradient>
  <clipPath id="clipPath-401719504">
   <g transform="translate(0 -1004.4)">
    <rect x="1" y="1005.4" width="46" height="46" rx="4" fill="#1890d0"/>
   </g>
  </clipPath>
  <clipPath id="clipPath-415229745">
   <g transform="translate(0 -1004.4)">
    <rect x="1" y="1005.4" width="46" height="46" rx="4" fill="#1890d0"/>
   </g>
  </clipPath>
  <linearGradient id="linear0" x1="308.56" x2="304.14" y1="189.18" y2="192.71" gradientTransform="matrix(1.3419 0 0 1.3764 -387.47 -240.73)" gradientUnits="userSpaceOnUse">
   <stop stop-color="#2eb21e" offset="0"/>
   <stop stop-color="#45b227" offset=".683"/>
   <stop stop-color="#70cf16" stop-opacity="0" offset="1"/>
  </linearGradient>
 </defs>
 <g>
  <path d="m1 43v0.25c0 2.216 1.784 4 4 4h38c2.216 0 4-1.784 4-4v-0.25c0 2.216-1.784 4-4 4h-38c-2.216 0-4-1.784-4-4zm0 0.5v0.5c0 2.216 1.784 4 4 4h38c2.216 0 4-1.784 4-4v-0.5c0 2.216-1.784 4-4 4h-38c-2.216 0-4-1.784-4-4z" opacity=".02"/>
  <path d="m1 43.25v0.25c0 2.216 1.784 4 4 4h38c2.216 0 4-1.784 4-4v-0.25c0 2.216-1.784 4-4 4h-38c-2.216 0-4-1.784-4-4z" opacity=".05"/>
  <path d="m1 43v0.25c0 2.216 1.784 4 4 4h38c2.216 0 4-1.784 4-4v-0.25c0 2.216-1.784 4-4 4h-38c-2.216 0-4-1.784-4-4z" opacity=".1"/>
 </g>
 <g>
  <rect transform="rotate(-90)" x="-47" y="1" width="46" height="46" rx="4" fill="url(#linearGradient3764)"/>
 </g>
 <g>
  <g clip-path="url(#clipPath-401719504)">
   <g opacity=".1">
    <g>
     <g>
      <g>
       <path d="m22.05 12h14.949v12h-3.25v5.977l-3.25-5.977h-8.449m0-12"/>
       <path d="m30.93 20.15h1.426v-0.574h0.586v1.422h-3.129v-0.887c0.441-0.102 0.781-0.383 1.012-0.848 0.227-0.469 0.344-1.109 0.344-1.926 0-0.906-0.141-1.594-0.426-2.07-0.289-0.473-0.703-0.715-1.25-0.715s-0.961 0.238-1.25 0.715c-0.281 0.473-0.422 1.168-0.422 2.078 0 0.801 0.117 1.438 0.348 1.914 0.23 0.469 0.566 0.75 1 0.852v0.887h-3.137v-1.422h0.582v0.574h1.43c-0.676-0.281-1.184-0.668-1.531-1.16-0.348-0.496-0.523-1.078-0.523-1.754 0-0.969 0.316-1.75 0.957-2.34 0.648-0.598 1.484-0.895 2.539-0.895s1.898 0.301 2.543 0.895c0.648 0.59 0.961 1.371 0.961 2.34 0 0.676-0.172 1.262-0.52 1.754s-0.855 0.879-1.535 1.16"/>
       <path d="m26.598 25.336c0 3.68-3.488 6.664-7.797 6.664l-5.203 4 0.648-5.332c-1.941-1.211-3.246-3.121-3.246-5.332 0-3.684 3.5-6.668 7.809-6.668 4.313 0 7.789 2.984 7.789 6.668"/>
      </g>
      <path d="m19.19 23.17 3.836-3.523-2.273-2.336h8.449v8.668l-2.273-2.336-4.09 3.941"/>
      <path d="m19.91 27.59h-2.824l-0.508 1.41h-1.578l2.676-7h1.715l2.605 7h-1.59l-0.496-1.41m-0.426-1.203-0.98-2.734-0.98 2.734h1.961"/>
     </g>
    </g>
   </g>
  </g>
 </g>
 <g>
  <g clip-path="url(#clipPath-415229745)">
   <g transform="translate(0,-1)">
    <g>
     <g>
      <path d="m22.05 12h14.949v12h-3.25v5.977l-3.25-5.977h-8.449m0-12" fill="#dedede"/>
      <path d="m30.93 20.15h1.426v-0.574h0.586v1.422h-3.129v-0.887c0.441-0.102 0.781-0.383 1.012-0.848 0.227-0.469 0.344-1.109 0.344-1.926 0-0.906-0.141-1.594-0.426-2.07-0.289-0.473-0.703-0.715-1.25-0.715s-0.961 0.238-1.25 0.715c-0.281 0.473-0.422 1.168-0.422 2.078 0 0.801 0.117 1.438 0.348 1.914 0.23 0.469 0.566 0.75 1 0.852v0.887h-3.137v-1.422h0.582v0.574h1.43c-0.676-0.281-1.184-0.668-1.531-1.16-0.348-0.496-0.523-1.078-0.523-1.754 0-0.969 0.316-1.75 0.957-2.34 0.648-0.598 1.484-0.895 2.539-0.895s1.898 0.301 2.543 0.895c0.648 0.59 0.961 1.371 0.961 2.34 0 0.676-0.172 1.262-0.52 1.754s-0.855 0.879-1.535 1.16" fill="#535353"/>
      <path d="m26.598 25.336c0 3.68-3.488 6.664-7.797 6.664l-5.203 4 0.648-5.332c-1.941-1.211-3.246-3.121-3.246-5.332 0-3.684 3.5-6.668 7.809-6.668 4.313 0 7.789 2.984 7.789 6.668" fill="#dedede"/>
     </g>
     <path d="m19.19 23.17 3.836-3.523-2.273-2.336h8.449v8.668l-2.273-2.336-4.09 3.941" fill="url(#linear0)"/>
     <path d="m19.91 27.59h-2.824l-0.508 1.41h-1.578l2.676-7h1.715l2.605 7h-1.59l-0.496-1.41m-0.426-1.203-0.98-2.734-0.98 2.734h1.961" fill="#535353"/>
    </g>
   </g>
  </g>
 </g>
 <g>
  <g transform="translate(0 -1004.4)">
   <path d="m1 1043.4v4c0 2.216 1.784 4 4 4h38c2.216 0 4-1.784 4-4v-4c0 2.216-1.784 4-4 4h-38c-2.216 0-4-1.784-4-4z" opacity=".1"/>
  </g>
 </g>
</svg>
