<svg version="1.1" viewBox="0 0 48 48" xmlns="http://www.w3.org/2000/svg">
 <defs>
  <linearGradient id="linearGradient3764" x1="1" x2="47" style="" gradientTransform="translate(-48 .002215)" gradientUnits="userSpaceOnUse">
   <stop style="stop-color:#8fc361" offset="0"/>
   <stop style="stop-color:#99c86f" offset="1"/>
  </linearGradient>
 </defs>
 <path d="m1 43v0.25c0 2.216 1.784 4 4 4h38c2.216 0 4-1.784 4-4v-0.25c0 2.216-1.784 4-4 4h-38c-2.216 0-4-1.784-4-4zm0 0.5v0.5c0 2.216 1.784 4 4 4h38c2.216 0 4-1.784 4-4v-0.5c0 2.216-1.784 4-4 4h-38c-2.216 0-4-1.784-4-4z" style="opacity:.02"/>
 <path d="m1 43.25v0.25c0 2.216 1.784 4 4 4h38c2.216 0 4-1.784 4-4v-0.25c0 2.216-1.784 4-4 4h-38c-2.216 0-4-1.784-4-4z" style="opacity:.05"/>
 <path d="m1 43v0.25c0 2.216 1.784 4 4 4h38c2.216 0 4-1.784 4-4v-0.25c0 2.216-1.784 4-4 4h-38c-2.216 0-4-1.784-4-4z" style="opacity:.1"/>
 <rect transform="rotate(-90)" x="-47" y="1" width="46" height="46" rx="4" style="fill:url(#linearGradient3764)"/>
 <path d="m1 39v4c0 2.216 1.784 4 4 4h38c2.216 0 4-1.784 4-4v-4c0 2.216-1.784 4-4 4h-38c-2.216 0-4-1.784-4-4z" style="opacity:.1"/>
 <path d="m24 12c-6 0-12 3-12 12s6 12 12 12c2.9898 0 6.1613-0.83851 9-2v-7l3-1v-1h-9v1l3 1v6.2637c-1.5517 0.475-3.2412 0.73633-5 0.73633-7 0-9-4.4772-9-10s2-10 9-10c2.1557 0 4.1816 0.29801 6 1l1 3h1v-4.5c-2.8388-0.8031-6.0101-1.5-9-1.5z" style="opacity:.1"/>
 <path d="m24 11c-6 0-12 3-12 12s6 12 12 12c2.9898 0 6.1613-0.83851 9-2v-7l3-1v-1h-9v1l3 1v6.2637c-1.5517 0.475-3.2412 0.73633-5 0.73633-7 0-9-4.4772-9-10s2-10 9-10c2.1557 0 4.1816 0.29801 6 1l1 3h1v-4.5c-2.8388-0.8031-6.0101-1.5-9-1.5z" style="fill:#3d3d3d"/>
</svg>
