<svg version="1.1" viewBox="0 0 48 48" xmlns="http://www.w3.org/2000/svg">
 <defs>
  <linearGradient id="bg" x2="0" y1="1" y2="47" gradientUnits="userSpaceOnUse">
   <stop style="stop-color:#08a9ee" offset="0"/>
   <stop style="stop-color:#079bdb" offset="1"/>
  </linearGradient>
 </defs>
 <path d="m1 43v0.25c0 2.216 1.784 4 4 4h38c2.216 0 4-1.784 4-4v-0.25c0 2.216-1.784 4-4 4h-38c-2.216 0-4-1.784-4-4zm0 0.5v0.5c0 2.216 1.784 4 4 4h38c2.216 0 4-1.784 4-4v-0.5c0 2.216-1.784 4-4 4h-38c-2.216 0-4-1.784-4-4z" style="opacity:.02"/>
 <path d="m1 43.25v0.25c0 2.216 1.784 4 4 4h38c2.216 0 4-1.784 4-4v-0.25c0 2.216-1.784 4-4 4h-38c-2.216 0-4-1.784-4-4z" style="opacity:.05"/>
 <path d="m1 43v0.25c0 2.216 1.784 4 4 4h38c2.216 0 4-1.784 4-4v-0.25c0 2.216-1.784 4-4 4h-38c-2.216 0-4-1.784-4-4z" style="opacity:.1"/>
 <rect x="1" y="1" width="46" height="46" rx="4" style="fill:url(#bg)"/>
 <path d="m1 39v4c0 2.216 1.784 4 4 4h38c2.216 0 4-1.784 4-4v-4c0 2.216-1.784 4-4 4h-38c-2.216 0-4-1.784-4-4z" style="opacity:.1"/>
 <path d="m17.5 16c-1.5 0-2.6349 1.0916-3 2.5l-3.5 13.5h6l1.5-11.5c0.11598-0.8892 0.5-1.5 1.75-1.5h7.5c1.25 0 1.634 0.6108 1.75 1.5l1.5 11.5h6l-3.5-13.5c-0.36514-1.4084-1.5-2.5-3-2.5z" style="enable-background:new;opacity:.1;stroke-width:.56539"/>
 <path d="m17.5 15c-1.5 0-2.6349 1.0916-3 2.5l-3.5 13.5h6l1.5-11.5c0.11598-0.8892 0.5-1.5 1.75-1.5h7.5c1.25 0 1.634 0.6108 1.75 1.5l1.5 11.5h6l-3.5-13.5c-0.36514-1.4084-1.5-2.5-3-2.5z" style="enable-background:new;fill:#424242;stroke-width:.56539"/>
</svg>
