<svg width="48" height="48" viewBox="0 0 48 48.000001" xmlns="http://www.w3.org/2000/svg">
  <defs>
    <linearGradient id="a" x1="-47" x2="-1" gradientUnits="userSpaceOnUse">
      <stop offset="0" stop-color="#575757"/>
      <stop offset="1" stop-color="#616161"/>
    </linearGradient>
  </defs>
  <path d="M1 43v.25c0 2.216 1.784 4 4 4h38c2.216 0 4-1.784 4-4V43c0 2.216-1.784 4-4 4H5c-2.216 0-4-1.784-4-4zm0 .5v.5c0 2.216 1.784 4 4 4h38c2.216 0 4-1.784 4-4v-.5c0 2.216-1.784 4-4 4H5c-2.216 0-4-1.784-4-4z" opacity=".02"/>
  <path d="M1 43.25v.25c0 2.216 1.784 4 4 4h38c2.216 0 4-1.784 4-4v-.25c0 2.216-1.784 4-4 4H5c-2.216 0-4-1.784-4-4z" opacity=".05"/>
  <path d="M1 43v.25c0 2.216 1.784 4 4 4h38c2.216 0 4-1.784 4-4V43c0 2.216-1.784 4-4 4H5c-2.216 0-4-1.784-4-4z" opacity=".1"/>
  <rect transform="rotate(-90)" x="-47" y="1" width="46" height="46" rx="4" fill="url(#a)"/>
  <path d="M1 39v4c0 2.216 1.784 4 4 4h38c2.216 0 4-1.784 4-4v-4c0 2.216-1.784 4-4 4H5c-2.216 0-4-1.784-4-4zM34.2 9.998l-.467.468.467.467-.467.469-.469-.47-.467.47.467.467-.467.467-.467-.467-.467.467.467.467-.467.467.232.234-8.521 8.143c-.337-.364-.719-.734-1.057-.902-3.738-1.87-3.86 3.617-5.242 3.324-1.568.194-3.359.24-4.752 1.633-2.803 2.802-1.218 6.257.65 8.126 1.869 1.87 5.324 3.454 8.127.65 1.331-1.33 1.629-2.286 1.73-4.674-.38-1.47 3.947-1.87 2.926-3.604-.192-.326-1.178.763-2.037-.316-.088-.11-.059-.504.002-.957l9.576-10.02.234.232.467-.467.467.467.467-.467-.467-.467.467-.467.467.467.469-.467-.469-.469.469-.467.467.467.467-.467-.467-.467-.701-1.168-1.168-.7-.467-.468" opacity=".1"/>
  <path d="M34.2 8.998l-.469.467.469.469-.469.467-.467-.467-.467.467.467.467-.467.467-.467-.467-.467.467.467.469-.467.467.232.232-8.523 8.145c-.337-.364-.717-.734-1.055-.902-3.738-1.87-3.86 3.615-5.242 3.322-1.568.193-3.359.24-4.752 1.632-2.803 2.803-1.218 6.258.65 8.127 1.869 1.87 5.324 3.457 8.127.653 1.331-1.331 1.629-2.288 1.73-4.676-.38-1.47 3.947-1.87 2.926-3.604-.192-.326-1.18.763-2.039-.316-.088-.111-.057-.504.004-.957l9.576-10.02.232.234.469-.47.467.47.467-.47-.467-.466.467-.467.467.467.467-.467-.467-.467.467-.468.469.467.467-.466-.467-.47-.701-1.167-1.168-.701-.467-.467" fill="#9fc175"/>
</svg>
