<svg version="1.1" viewBox="0 0 48 48" xmlns="http://www.w3.org/2000/svg">
 <defs>
  <linearGradient id="bg" x2="0" y1="1" y2="47" gradientUnits="userSpaceOnUse">
   <stop stop-color="#fe4646" offset="0"/>
   <stop stop-color="#fe3333" offset="1"/>
  </linearGradient>
 </defs>
 <rect x="1" y="1" width="46" height="46" rx="4" fill="url(#bg)"/>
 <path d="m1 43v0.25c0 2.216 1.784 4 4 4h38c2.216 0 4-1.784 4-4v-0.25c0 2.216-1.784 4-4 4h-38c-2.216 0-4-1.784-4-4zm0 0.5v0.5c0 2.216 1.784 4 4 4h38c2.216 0 4-1.784 4-4v-0.5c0 2.216-1.784 4-4 4h-38c-2.216 0-4-1.784-4-4z" opacity=".02"/>
 <path d="m1 43.25v0.25c0 2.216 1.784 4 4 4h38c2.216 0 4-1.784 4-4v-0.25c0 2.216-1.784 4-4 4h-38c-2.216 0-4-1.784-4-4z" opacity=".05"/>
 <path d="m1 43v0.25c0 2.216 1.784 4 4 4h38c2.216 0 4-1.784 4-4v-0.25c0 2.216-1.784 4-4 4h-38c-2.216 0-4-1.784-4-4z" opacity=".1"/>
 <path d="m1 39v4c0 2.216 1.784 4 4 4h38c2.216 0 4-1.784 4-4v-4c0 2.216-1.784 4-4 4h-38c-2.216 0-4-1.784-4-4z" opacity=".1"/>
 <g stroke-width=".96155">
  <path d="m25 11-12.039 13 4.2324 4.5469 0.01563 0.01563 7.791 8.4375h8.7617l-11.275-12.178-5.1914 3.6523 4.4277-4.4746 12.039-13z" color="#000000" enable-background="new" opacity=".1"/>
  <path d="m25 10h8.7611l-12.039 13-4.5136 4.5621-4.2476-4.5621z" color="#000000" enable-background="new" fill="#fff"/>
  <path d="m25 36h8.7611l-11.274-12.177-5.2938 3.7236z" color="#000000" enable-background="new" fill="#ffac82"/>
 </g>
</svg>
