<svg viewBox="0 0 48 48">
  <defs>
    <linearGradient id="a" x1="1" x2="47" gradientUnits="userSpaceOnUse" gradientTransform="translate(-48 .002)">
      <stop stop-color="#e1cd27"/>
      <stop offset="1" stop-color="#e3d238"/>
    </linearGradient>
    <clipPath id="b"/>
    <clipPath id="c"/>
  </defs>
  <path d="M1 43v.25c0 2.216 1.784 4 4 4h38c2.216 0 4-1.784 4-4V43c0 2.216-1.784 4-4 4H5c-2.216 0-4-1.784-4-4zm0 .5v.5c0 2.216 1.784 4 4 4h38c2.216 0 4-1.784 4-4v-.5c0 2.216-1.784 4-4 4H5c-2.216 0-4-1.784-4-4z" opacity=".02"/>
  <path d="M1 43.25v.25c0 2.216 1.784 4 4 4h38c2.216 0 4-1.784 4-4v-.25c0 2.216-1.784 4-4 4H5c-2.216 0-4-1.784-4-4z" opacity=".05"/>
  <path d="M1 43v.25c0 2.216 1.784 4 4 4h38c2.216 0 4-1.784 4-4V43c0 2.216-1.784 4-4 4H5c-2.216 0-4-1.784-4-4z" opacity=".1"/>
  <rect width="46" height="46" x="-47" y="1" rx="4" transform="rotate(-90)" fill="url(#a)"/>
  <g opacity=".1" clip-path="url(#b)">
    <path d="M31 15a4 4 0 1 1-8 0 4 4 0 0 1 8 0m-10 9a4 4 0 1 1-8 0 4 4 0 0 1 8 0m10 9a4 4 0 1 1-8 0 4 4 0 0 1 8 0m0 0"/>
    <path d="M17.898 21.355l6.711-6.102 1.219 1.426-6.508 6.102M19.93 24.406l6.102 6.711-1.422 1.219-6.102-6.508m1.422-1.422"/>
  </g>
  <g fill="#ec5b3c" clip-path="url(#c)">
    <path d="M31 14a4 4 0 1 1-8 0 4 4 0 0 1 8 0m-10 9a4 4 0 1 1-8 0 4 4 0 0 1 8 0m10 9a4 4 0 1 1-8 0 4 4 0 0 1 8 0m0 0"/>
    <path d="M17.898 20.355l6.711-6.102 1.219 1.426-6.508 6.102M19.93 23.406l6.102 6.711-1.422 1.219-6.102-6.508m1.422-1.422"/>
  </g>
  <path d="M1 38.998v4c0 2.216 1.784 4 4 4h38c2.216 0 4-1.784 4-4v-4c0 2.216-1.784 4-4 4H5c-2.216 0-4-1.784-4-4z" opacity=".1"/>
</svg>
