<svg viewBox="0 0 48 48" xmlns="http://www.w3.org/2000/svg">
 <defs>
  <linearGradient id="linearGradient3764" x1="1" x2="47" gradientTransform="translate(-48 .0022147)" gradientUnits="userSpaceOnUse">
   <stop stop-color="#eaa12e" offset="0"/>
   <stop stop-color="#eca940" offset="1"/>
  </linearGradient>
  <clipPath id="clipPath-107073610">
   <g transform="translate(0 -1004.4)">
    <rect x="1" y="1005.4" width="46" height="46" rx="4" fill="#1890d0"/>
   </g>
  </clipPath>
  <clipPath id="clipPath-122249491">
   <g transform="translate(0 -1004.4)">
    <rect x="1" y="1005.4" width="46" height="46" rx="4" fill="#1890d0"/>
   </g>
  </clipPath>
 </defs>
 <g>
  <path d="m1 43v0.25c0 2.216 1.784 4 4 4h38c2.216 0 4-1.784 4-4v-0.25c0 2.216-1.784 4-4 4h-38c-2.216 0-4-1.784-4-4zm0 0.5v0.5c0 2.216 1.784 4 4 4h38c2.216 0 4-1.784 4-4v-0.5c0 2.216-1.784 4-4 4h-38c-2.216 0-4-1.784-4-4z" opacity=".02"/>
  <path d="m1 43.25v0.25c0 2.216 1.784 4 4 4h38c2.216 0 4-1.784 4-4v-0.25c0 2.216-1.784 4-4 4h-38c-2.216 0-4-1.784-4-4z" opacity=".05"/>
  <path d="m1 43v0.25c0 2.216 1.784 4 4 4h38c2.216 0 4-1.784 4-4v-0.25c0 2.216-1.784 4-4 4h-38c-2.216 0-4-1.784-4-4z" opacity=".1"/>
 </g>
 <g>
  <rect transform="rotate(-90)" x="-47" y="1" width="46" height="46" rx="4" fill="url(#linearGradient3764)"/>
 </g>
 <g>
  <g clip-path="url(#clipPath-107073610)">
   <g opacity=".1">
    <g>
     <path d="m26.27 12.336c-0.438 0.465-1.199 1.715-1.445 2.348-0.152 0.387-0.246 1.02-0.336 2.203l-0.121 1.664h-0.336c-0.277 0-0.348 0.039-0.316 0.176 0.02 0.102 0.184 0.23 0.363 0.289 0.328 0.094 0.328 0.105 0.328 0.738 0 0.855-0.141 0.977-1.09 0.977-0.906 0-1.047-0.133-1.047-0.996 0-0.543 0.031-0.625 0.223-0.719 0.133-0.063 0.246-0.188 0.266-0.289 0.031-0.156-0.082-0.176-1.344-0.176s-1.379 0.02-1.379 0.188c0 0.102 0.09 0.258 0.199 0.363 0.285 0.238 0.277 0.988-8e-3 1.359-0.188 0.238-0.285 0.27-0.816 0.27-0.527 0-0.598-0.02-0.598-0.207 0-0.145-0.074-0.211-0.234-0.211-0.176 0-0.258 0.082-0.328 0.336-0.082 0.277-0.172 0.352-0.508 0.422-0.512 0.105-1.141 0.035-1.609-0.195-0.336-0.168-0.375-0.168-0.805 0.043-0.348 0.164-0.664 0.219-1.508 0.234-0.59 0.012-1.238-0.02-1.445-0.063l-0.387-0.074v0.582c0 0.57 0 0.578 0.297 0.578 0.164 0 0.352-0.074 0.43-0.164 0.211-0.27 2.137-0.156 2.461 0.133 0.121 0.113 0.305 0.238 0.406 0.27 0.195 0.074 0.691-0.082 0.793-0.246 0.035-0.066 0.348-0.137 0.684-0.168 0.488-0.055 0.652-0.02 0.781 0.113 0.094 0.094 0.234 0.168 0.305 0.168 0.082 0 0.152 0.133 0.176 0.332 0.039 0.402 0.363 0.543 0.457 0.199 0.047-0.199 0.129-0.219 0.699-0.219 0.512 0 0.664 0.039 0.734 0.176 0.051 0.102 0.121 1.164 0.152 2.348 0.031 1.195 0.082 2.195 0.113 2.227 0.113 0.113 1.027-0.758 1.273-1.227 0.305-0.551 0.508-1.559 0.516-2.535 0-0.438 0.051-0.793 0.121-0.867s0.43-0.121 0.895-0.121c1.039 0 1.121 0.09 1.121 1.203v0.832l-0.324 0.094c-0.469 0.145-0.5 0.445-0.063 0.488l0.336 0.031-8e-3 0.945c-0.012 0.813-0.051 1.023-0.316 1.559-0.406 0.844-0.746 1.34-1.344 2.02l-0.512 0.559 0.215 0.375c0.121 0.199 0.375 0.613 0.582 0.941l0.352 0.559 0.469-0.52c0.844-0.941 1.293-1.773 1.719-3.156 0.059-0.211 0.141-0.848 0.172-1.406 0.094-1.746 0.121-1.895 0.387-1.895 0.121 0 0.273-0.035 0.297-0.074 0.09-0.082-0.227-0.449-0.387-0.449-0.195 0-0.258-0.621-0.258-2.805 0-2.398 0.039-2.734 0.34-2.871 0.313-0.133 0.348-0.438 0.047-0.477-0.578-0.082-0.465-2.066 0.195-3.121 0.141-0.23 0.551-0.73 0.906-1.105 0.645-0.688 0.645-0.688 0.48-0.953-0.512-0.813-0.906-1.352-1.01-1.352-0.047 0-0.242 0.145-0.418 0.332m8e-3 0.02"/>
     <path d="m30.16 16.91c-0.316 0.113-0.664 0.352-1.625 1.109-0.387 0.313-0.715 0.492-0.996 0.523-0.52 0.074-0.598 0.289-0.184 0.457l0.313 0.113v8.348l-0.254 0.113c-0.324 0.156-0.324 0.313 0.012 0.445l0.277 0.102-0.051 1.109c-0.051 0.898-0.113 1.23-0.316 1.715-0.336 0.75-1 1.656-1.75 2.328l-0.582 0.523 0.176 0.352c0.336 0.656 1.098 1.781 1.25 1.84 0.293 0.113 1.434-1.465 2.055-2.828 0.527-1.176 0.711-2.105 0.711-3.707v-1.34l0.258-0.063c0.305-0.074 0.348-0.414 0.059-0.523-0.164-0.055-0.203-0.211-0.266-0.941-0.102-1.207-0.012-3.645 0.141-3.816 0.105-0.125 0.715-0.156 3.316-0.191 1.754-0.012 3.227-0.07 3.27-0.109 0.152-0.156-0.277-0.758-0.754-1.07-0.883-0.582-1.309-0.668-3.609-0.668-2.555 0-2.41 0.082-2.41-1.453v-1.07l0.418-0.406c0.457-0.445 0.773-0.602 1.203-0.602 0.445 0 0.621 0.289 0.621 1.012 0 0.465 0.039 0.664 0.191 0.789 0.266 0.246 0.316 0.133 0.316-0.594 0-1.309-0.688-1.891-1.77-1.492m-0.02-4e-3"/>
    </g>
   </g>
  </g>
 </g>
 <g>
  <g clip-path="url(#clipPath-122249491)">
   <g transform="translate(0,-1)">
    <g fill="#f9f9f9">
     <path d="m26.27 12.336c-0.438 0.465-1.199 1.715-1.445 2.348-0.152 0.387-0.246 1.02-0.336 2.203l-0.121 1.664h-0.336c-0.277 0-0.348 0.039-0.316 0.176 0.02 0.102 0.184 0.23 0.363 0.289 0.328 0.094 0.328 0.105 0.328 0.738 0 0.855-0.141 0.977-1.09 0.977-0.906 0-1.047-0.133-1.047-0.996 0-0.543 0.031-0.625 0.223-0.719 0.133-0.063 0.246-0.188 0.266-0.289 0.031-0.156-0.082-0.176-1.344-0.176s-1.379 0.02-1.379 0.188c0 0.102 0.09 0.258 0.199 0.363 0.285 0.238 0.277 0.988-8e-3 1.359-0.188 0.238-0.285 0.27-0.816 0.27-0.527 0-0.598-0.02-0.598-0.207 0-0.145-0.074-0.211-0.234-0.211-0.176 0-0.258 0.082-0.328 0.336-0.082 0.277-0.172 0.352-0.508 0.422-0.512 0.105-1.141 0.035-1.609-0.195-0.336-0.168-0.375-0.168-0.805 0.043-0.348 0.164-0.664 0.219-1.508 0.234-0.59 0.012-1.238-0.02-1.445-0.063l-0.387-0.074v0.582c0 0.57 0 0.578 0.297 0.578 0.164 0 0.352-0.074 0.43-0.164 0.211-0.27 2.137-0.156 2.461 0.133 0.121 0.113 0.305 0.238 0.406 0.27 0.195 0.074 0.691-0.082 0.793-0.246 0.035-0.066 0.348-0.137 0.684-0.168 0.488-0.055 0.652-0.02 0.781 0.113 0.094 0.094 0.234 0.168 0.305 0.168 0.082 0 0.152 0.133 0.176 0.332 0.039 0.402 0.363 0.543 0.457 0.199 0.047-0.199 0.129-0.219 0.699-0.219 0.512 0 0.664 0.039 0.734 0.176 0.051 0.102 0.121 1.164 0.152 2.348 0.031 1.195 0.082 2.195 0.113 2.227 0.113 0.113 1.027-0.758 1.273-1.227 0.305-0.551 0.508-1.559 0.516-2.535 0-0.438 0.051-0.793 0.121-0.867s0.43-0.121 0.895-0.121c1.039 0 1.121 0.09 1.121 1.203v0.832l-0.324 0.094c-0.469 0.145-0.5 0.445-0.063 0.488l0.336 0.031-8e-3 0.945c-0.012 0.813-0.051 1.023-0.316 1.559-0.406 0.844-0.746 1.34-1.344 2.02l-0.512 0.559 0.215 0.375c0.121 0.199 0.375 0.613 0.582 0.941l0.352 0.559 0.469-0.52c0.844-0.941 1.293-1.773 1.719-3.156 0.059-0.211 0.141-0.848 0.172-1.406 0.094-1.746 0.121-1.895 0.387-1.895 0.121 0 0.273-0.035 0.297-0.074 0.09-0.082-0.227-0.449-0.387-0.449-0.195 0-0.258-0.621-0.258-2.805 0-2.398 0.039-2.734 0.34-2.871 0.313-0.133 0.348-0.438 0.047-0.477-0.578-0.082-0.465-2.066 0.195-3.121 0.141-0.23 0.551-0.73 0.906-1.105 0.645-0.688 0.645-0.688 0.48-0.953-0.512-0.813-0.906-1.352-1.01-1.352-0.047 0-0.242 0.145-0.418 0.332m8e-3 0.02"/>
     <path d="m30.16 16.91c-0.316 0.113-0.664 0.352-1.625 1.109-0.387 0.313-0.715 0.492-0.996 0.523-0.52 0.074-0.598 0.289-0.184 0.457l0.313 0.113v8.348l-0.254 0.113c-0.324 0.156-0.324 0.313 0.012 0.445l0.277 0.102-0.051 1.109c-0.051 0.898-0.113 1.23-0.316 1.715-0.336 0.75-1 1.656-1.75 2.328l-0.582 0.523 0.176 0.352c0.336 0.656 1.098 1.781 1.25 1.84 0.293 0.113 1.434-1.465 2.055-2.828 0.527-1.176 0.711-2.105 0.711-3.707v-1.34l0.258-0.063c0.305-0.074 0.348-0.414 0.059-0.523-0.164-0.055-0.203-0.211-0.266-0.941-0.102-1.207-0.012-3.645 0.141-3.816 0.105-0.125 0.715-0.156 3.316-0.191 1.754-0.012 3.227-0.07 3.27-0.109 0.152-0.156-0.277-0.758-0.754-1.07-0.883-0.582-1.309-0.668-3.609-0.668-2.555 0-2.41 0.082-2.41-1.453v-1.07l0.418-0.406c0.457-0.445 0.773-0.602 1.203-0.602 0.445 0 0.621 0.289 0.621 1.012 0 0.465 0.039 0.664 0.191 0.789 0.266 0.246 0.316 0.133 0.316-0.594 0-1.309-0.688-1.891-1.77-1.492m-0.02-4e-3"/>
    </g>
   </g>
  </g>
 </g>
 <g>
  <g transform="translate(0 -1004.4)">
   <path d="m1 1043.4v4c0 2.216 1.784 4 4 4h38c2.216 0 4-1.784 4-4v-4c0 2.216-1.784 4-4 4h-38c-2.216 0-4-1.784-4-4z" opacity=".1"/>
  </g>
 </g>
</svg>
