<svg version="1.1" viewBox="0 0 48 48" xmlns="http://www.w3.org/2000/svg">
 <defs>
  <linearGradient id="bg" x1="-47" x2="-1" y1="2.8779e-15" y2="6.1232e-17" gradientUnits="userSpaceOnUse">
   <stop style="stop-color:#e1c255" offset="0"/>
   <stop style="stop-color:#e4c866" offset="1"/>
  </linearGradient>
 </defs>
 <g transform="translate(0 3.949e-5)">
  <path d="m1 43v0.25c0 2.216 1.784 4 4 4h38c2.216 0 4-1.784 4-4v-0.25c0 2.216-1.784 4-4 4h-38c-2.216 0-4-1.784-4-4zm0 0.5v0.5c0 2.216 1.784 4 4 4h38c2.216 0 4-1.784 4-4v-0.5c0 2.216-1.784 4-4 4h-38c-2.216 0-4-1.784-4-4z" style="opacity:.02"/>
  <path d="m1 43.25v0.25c0 2.216 1.784 4 4 4h38c2.216 0 4-1.784 4-4v-0.25c0 2.216-1.784 4-4 4h-38c-2.216 0-4-1.784-4-4z" style="opacity:.05"/>
  <path d="m1 43v0.25c0 2.216 1.784 4 4 4h38c2.216 0 4-1.784 4-4v-0.25c0 2.216-1.784 4-4 4h-38c-2.216 0-4-1.784-4-4z" style="opacity:.1"/>
 </g>
 <rect transform="rotate(-90)" x="-47" y="1" width="46" height="46" rx="4" style="fill:url(#bg)"/>
 <path d="m24 11c-7.1679 0-13 5.8321-13 13v7c-1e-6 3.3019 2.6981 6 6 6h7c7.1679 0 13-5.8321 13-13v-7c0-3.3019-2.6981-6-6-6z" style="opacity:.1"/>
 <g transform="translate(0 3.949e-5)">
  <g transform="translate(0 -1004.4)">
   <path d="m1 1043.4v4c0 2.216 1.784 4 4 4h38c2.216 0 4-1.784 4-4v-4c0 2.216-1.784 4-4 4h-38c-2.216 0-4-1.784-4-4z" style="opacity:.1"/>
  </g>
 </g>
 <path d="m24 10c-7.1679 0-13 5.8321-13 13v7c-1e-6 3.3019 2.6981 6 6 6h7c7.1679 0 13-5.8321 13-13v-7c0-3.3019-2.6981-6-6-6h-7z" style="fill:#678bbb"/>
 <path d="m24 12-2.6816 4.4707c-0.65369 0.23296-1.2713 0.54211-1.834 0.92774l2e-3 -0.0039-3.4864-1.3945 1.3945 3.4863 0.0039-2e-3c-0.38563 0.5627-0.69478 1.1803-0.92774 1.834l-4.4707 2.6817 4.4707 2.6816c0.23296 0.65369 0.54211 1.2713 0.92774 1.834l-0.0039-2e-3 -1.3945 3.4864 3.4863-1.3945-2e-3 -0.0039c0.5627 0.38563 1.1803 0.69478 1.834 0.92774l2.6817 4.4707 2.6836-4.4746a8 8 0 0 0 1.8301-0.91992l3.4863 1.3945-1.3945-3.4863-0.01172 0.0039a8 8 0 0 0 0.93555-1.834l4.4707-2.6836-4.4746-2.6836a8 8 0 0 0-0.91992-1.8301l1.3945-3.4863-3.4863 1.3945 0.0039 0.01172a8 8 0 0 0-1.834-0.93555z" style="opacity:.1"/>
 <g transform="translate(4e-6 -1)">
  <path d="m24 12-3 5h3zm-12 12 5 3v-3zm19 0v3l5-3zm-10 7 3 5v-5z" style="fill:#c19a46"/>
  <path d="m24 12v5h3zm-7 9-5 3h5zm14 0v3h5zm-7 10v5l3-5z" style="fill:#e3c763"/>
 </g>
 <path d="m19.096 17.684c-0.17874 0.14037-0.35143 0.28829-0.51758 0.44336l0.42188-0.12695zm9.8105 0.0098 0.09375 0.30661 0.41797 0.12695c-0.16444-0.15162-0.33516-0.29628-0.51172-0.43359zm-11.906 2.4355c-0.6556 1.1849-0.99968 2.5169-1 3.8711 0.0023 0.49958 0.05129 0.99785 0.14648 1.4883l0.85352 0.51172v-3zm14 0.01758v5.8535l0.85547-0.51367c0.094414-0.48985 0.1428-0.98746 0.14453-1.4863-0.003288-1.3482-0.34727-2.6738-1-3.8535zm-10 9.8535 1.0488 1.748c0.63755 0.16394 1.2929 0.24857 1.9512 0.25195 0.65746-0.0023 1.3121-0.08558 1.9492-0.24805l1.0508-1.752h-3z" style="opacity:.1"/>
 <path d="m31 23s-2.5817 8-7 8-8-3.5817-8-8c0-4.4183 3.5817-8 8-8 4.4183 0 7 8 7 8z" style="fill:#b7903d"/>
 <path d="m24 15a8 8 0 0 0-0.98438 0.07031l1.9844 1.0098v13.84l-1.9883 1.0117a8 8 0 0 0 0.98828 0.068359 8 8 0 0 0 8-8 8 8 0 0 0-8-8z" style="fill:#d2b865"/>
 <circle cx="24" cy="23" r="7" style="fill:#907e56"/>
 <path d="m23.5 23c-1.1842 0.62811-1.7353-1.6711-0.875-2.3594 2.3785-1.9028 5.094 0.53077 4.0156 2.6875-1.2915 2.583-4.1195 2.5531-6.3594 3.9219 1.4834 1.507 5.7359 0.93358 7.1406-0.90625 0.55373-0.72527 0.8389-1.6708 1.2031-2.5469 0.98689-2.3738-1.0068-4.4248-2.2656-5.3906-0.65193-0.50019-3.7707-0.522-4.875 0.59375-2.7704 2.7991-0.33705 7.481 3 5.8125 2.2508-1.1254-0.17184-4.2125-1.4844-2.8125 0.32578 0.31013 0.45592 0.69145 0.5 1z" style="fill:#91edfd"/>
 <g transform="translate(4e-6 -1)">
  <path d="m16 16 1.3945 3.4863 1.6055-0.48633zm16 0-3 3 1.6055 0.48633zm-13 13-3 3 3.4863-1.3945zm10 0-0.48633 1.6055 3.4863 1.3945z" style="fill:#c19a46"/>
  <path d="m16 16 3 3 0.48633-1.6055zm16 0-3.4863 1.3945 0.48633 1.6055zm-14.605 12.514-1.3945 3.4863 3-3zm13.211 0-1.6055 0.48633 3 3z" style="fill:#e4c764"/>
 </g>
 <path d="m24.822 18.08c-1.1699-0.030442-2.6477 0.22258-3.3379 0.91992-0.98002 0.99015-1.2999 2.2136-1.168 3.3105 0.11157-0.80212 0.47921-1.6147 1.168-2.3105 1.1043-1.1158 4.2231-1.0939 4.875-0.59375 0.92841 0.71231 2.249 2.0164 2.4863 3.6035 0.32214-2.0336-1.3692-3.7464-2.4863-4.6035-0.24448-0.18757-0.83516-0.30791-1.5371-0.32617zm-1.0059 3.5625c-0.28603-0.010487-0.5703 0.094914-0.81641 0.35742 0.23485 0.22357 0.34736 0.47708 0.41992 0.7207 0.74517-0.28927 1.6184 0.39225 1.8926 1.2344 0.37764-1.0123-0.56101-2.2782-1.4961-2.3125zm-1.5352 0.59375c-0.24982 0.92064 0.27736 2.263 1.2188 1.7637-0.039233-0.27463-0.15533-0.60416-0.4082-0.89258-0.40365-0.010749-0.68624-0.39788-0.81055-0.87109zm4.5371 0.58008c-0.039884 0.17096-0.092846 0.34194-0.17773 0.51172-0.34146 0.68292-0.79355 1.1766-1.3105 1.5684-0.11293 0.35194-0.37033 0.67833-0.8457 0.91602-0.60359 0.3018-1.1763 0.38923-1.6953 0.32422-0.84949 0.31331-1.7115 0.62665-2.5078 1.1133 0.22792 0.23156 0.52693 0.40864 0.86523 0.54492 2.0591-0.94597 4.3644-1.2073 5.4941-3.4668 0.25455-0.50911 0.29165-1.0324 0.17773-1.5117z" style="opacity:.1"/>
 <path d="m24 16a7 7 0 0 0-7 7 7 7 0 0 0 0.023438 0.54102 7 7 0 0 1 6.9766-6.541 7 7 0 0 1 6.9766 6.459 7 7 0 0 0 0.023438-0.45898 7 7 0 0 0-7-7z" style="opacity:.1"/>
</svg>
