<svg xmlns="http://www.w3.org/2000/svg" xmlns:xlink="http://www.w3.org/1999/xlink" width="48" height="48">
  <defs>
    <linearGradient id="a">
      <stop stop-opacity="0"/>
      <stop offset="1"/>
    </linearGradient>
    <linearGradient gradientUnits="userSpaceOnUse" x2="0" y2="40" y1="280" xlink:href="#b" id="e" gradientTransform="matrix(.175 0 0 .175 302.8 216)"/>
    <linearGradient id="b">
      <stop stop-color="#151515"/>
      <stop stop-color="#222" offset="1"/>
    </linearGradient>
    <linearGradient gradientUnits="userSpaceOnUse" x2="0" y2="90" y1="230" xlink:href="#b" id="d" gradientTransform="matrix(.375 0 0 .375 298 16)"/>
    <linearGradient gradientUnits="userSpaceOnUse" x2="0" y2="90" y1="230" xlink:href="#b" id="c" gradientTransform="matrix(.25 0 0 .25 300 132)"/>
    <linearGradient id="f">
      <stop offset="0" stop-color="#fff" stop-opacity="0"/>
      <stop offset=".3" stop-color="#fff" stop-opacity="0"/>
      <stop offset=".5" stop-color="#fff" stop-opacity=".612"/>
      <stop offset=".753" stop-color="#fff" stop-opacity="0"/>
      <stop offset="1" stop-color="#fff" stop-opacity="0"/>
    </linearGradient>
    <linearGradient id="g">
      <stop offset="0" stop-color="gray"/>
      <stop offset="1" stop-opacity="0"/>
    </linearGradient>
    <linearGradient id="h">
      <stop offset="0" stop-color="#a77341"/>
      <stop offset="1" stop-color="#3d3024"/>
    </linearGradient>
    <linearGradient xlink:href="#i" id="r" x1="24" y1="1051.36" x2="24" y2="1005.36" gradientUnits="userSpaceOnUse"/>
    <linearGradient id="j" x1="1" x2="47" gradientUnits="userSpaceOnUse" gradientTransform="rotate(-90 24 24)">
      <stop stop-color="#f6d22a"/>
      <stop offset="1" stop-color="#f7d53d"/>
    </linearGradient>
    <linearGradient id="k">
      <stop offset="0" stop-color="#fda168"/>
      <stop offset="1" stop-color="#f6a370"/>
    </linearGradient>
    <linearGradient id="l">
      <stop offset="0" stop-color="#599cd2"/>
      <stop offset="1" stop-color="#63a8df"/>
    </linearGradient>
    <linearGradient id="m">
      <stop offset="0" stop-color="#6bca5f"/>
      <stop offset="1" stop-color="#79d96d"/>
    </linearGradient>
    <linearGradient id="n" x1="1" x2="47" gradientUnits="userSpaceOnUse" gradientTransform="rotate(-90 24 24)">
      <stop stop-color="#e4e4e4"/>
      <stop offset="1" stop-color="#eee"/>
    </linearGradient>
    <linearGradient id="o">
      <stop offset="0" stop-color="#4283e5"/>
      <stop offset="1" stop-color="#6ca4f8"/>
    </linearGradient>
    <linearGradient id="p">
      <stop offset="0" stop-color="#aa8479"/>
      <stop offset="1" stop-color="#c19d93"/>
    </linearGradient>
    <linearGradient id="q">
      <stop offset="0" stop-color="#fd9732"/>
      <stop offset="1" stop-color="#ffaa56"/>
    </linearGradient>
    <linearGradient id="i">
      <stop offset="0" stop-color="#366fc4"/>
      <stop offset="1" stop-color="#5a8ad2"/>
    </linearGradient>
  </defs>
  <g transform="translate(0 -1004.362)">
    <path d="M5 1006.362c-2.216 0-4 1.784-4 4v37.25c0 2.216 1.784 4 4 4h38c2.216 0 4-1.784 4-4v-37.25c0-2.216-1.784-4-4-4H5zm-4 41.5v.5c0 2.216 1.784 4 4 4h38c2.216 0 4-1.784 4-4v-.5c0 2.216-1.784 4-4 4H5c-2.216 0-4-1.784-4-4z" opacity=".02"/>
    <path d="M1 1047.612v.25c0 2.216 1.784 4 4 4h38c2.216 0 4-1.784 4-4v-.25c0 2.216-1.784 4-4 4H5c-2.216 0-4-1.784-4-4z" opacity=".05"/>
    <rect rx="4" y="1005.61" x="1" height="46" width="46" opacity=".1"/>
  </g>
  <rect width="46" height="46" x="1" y="1005.36" rx="4" transform="translate(0 -1004.36)" fill="url(#r)"/>
  <path d="M1 39v4c0 2.216 1.784 4 4 4h38c2.216 0 4-1.784 4-4v-4c0 2.216-1.784 4-4 4H5c-2.216 0-4-1.784-4-4z" opacity=".1"/>
  <g>
    <g opacity=".1">
      <path d="M16.375 8l3 7.313c-.025.018-.038.043-.063.062l-9.187.469 5.031 4.906L8 23.313l6.469 2.75-5.531 3.03 6.53.813c.09.202.182.43.282.625-.949.563-1.594 1.578-1.594 2.75 0 1.778 1.48 3.219 3.281 3.219a3.3 3.3 0 0 0 2.594-1.281c.14.089.264.166.407.25a3.608 3.608 0 0 0-.157 1.062c0 1.916 1.498 3.469 3.375 3.469 1.196 0 2.238-.64 2.844-1.594.605.958 1.644 1.594 2.844 1.594 1.877 0 3.406-1.553 3.406-3.469 0-.358-.058-.706-.156-1.031a12.168 12.168 0 0 0 4.937-5.438c.112.02.227.063.344.063 1.171 0 2.125-1.04 2.125-2.313 0-.979-.582-1.823-1.375-2.156.01-.205.031-.416.031-.625 0-5.693-3.962-10.441-9.281-11.718L16.375 8zm13.844 11.938a3.2 3.2 0 0 1 2.375 1.03 2.483 2.483 0 0 1 1.218-.343c1.422 0 2.594 1.186 2.594 2.656 0 1.47-1.172 2.688-2.593 2.688-.396 0-.76-.117-1.094-.282-.61.75-1.49 1.25-2.5 1.25-1.837 0-3.313-1.565-3.313-3.5 0-1.934 1.476-3.5 3.313-3.5z"/>
      <path d="M29.764 26.842c-1.003-.132-1.98-.886-2.456-1.897-.964-2.049.282-4.56 2.436-4.907.894-.144 1.954.164 2.566.747l.251.238.438-.173c.863-.342 1.884-.112 2.576.58 1.285 1.286.88 3.499-.78 4.264-.523.24-1.286.272-1.754.073l-.315-.134-.396.37c-.72.674-1.609.964-2.566.839z"/>
      <path d="M31.824 23.203c0 .582-.435 1.054-.972 1.054-.537 0-.973-.472-.973-1.054 0-.581.436-1.053.973-1.053.537 0 .972.472.972 1.053zM34.89 23.27c0 .47-.335.85-.75.85-.414 0-.75-.38-.75-.85 0-.469.336-.85.75-.85.415 0 .75.381.75.85z"/>
    </g>
    <path d="M16.375 7l3 7.313c-.025.018-.038.043-.063.062l-9.187.469 5.031 4.906L8 22.313l6.469 2.75-5.531 3.03 6.53.813c.09.202.182.43.282.625-.949.563-1.594 1.578-1.594 2.75 0 1.778 1.48 3.219 3.281 3.219a3.3 3.3 0 0 0 2.594-1.281c.14.089.264.166.407.25a3.608 3.608 0 0 0-.157 1.062c0 1.916 1.498 3.469 3.375 3.469 1.196 0 2.238-.64 2.844-1.594.605.958 1.644 1.594 2.844 1.594 1.877 0 3.406-1.553 3.406-3.469 0-.358-.058-.706-.156-1.031a12.168 12.168 0 0 0 4.937-5.438c.112.02.227.063.344.063 1.171 0 2.125-1.04 2.125-2.313 0-.979-.582-1.823-1.375-2.156.01-.205.031-.416.031-.625 0-5.693-3.962-10.441-9.281-11.718L16.375 7zm13.844 11.938a3.2 3.2 0 0 1 2.375 1.03 2.483 2.483 0 0 1 1.218-.343c1.422 0 2.594 1.186 2.594 2.656 0 1.47-1.172 2.688-2.593 2.688-.396 0-.76-.117-1.094-.282-.61.75-1.49 1.25-2.5 1.25-1.837 0-3.313-1.565-3.313-3.5 0-1.934 1.476-3.5 3.313-3.5z" fill="#ff80e5"/>
    <path d="M29.764 25.842c-1.003-.132-1.98-.886-2.456-1.897-.964-2.049.282-4.56 2.436-4.907.894-.144 1.954.164 2.566.747l.251.238.438-.173c.863-.342 1.884-.112 2.576.58 1.285 1.286.88 3.499-.78 4.264-.523.24-1.286.272-1.754.073l-.315-.134-.396.37c-.72.674-1.609.964-2.566.839z" fill="#f9f9f9"/>
    <path d="M31.824 22.203c0 .582-.435 1.054-.972 1.054-.537 0-.973-.472-.973-1.054 0-.581.436-1.053.973-1.053.537 0 .972.472.972 1.053zM34.89 22.27c0 .47-.335.85-.75.85-.414 0-.75-.38-.75-.85 0-.469.336-.85.75-.85.415 0 .75.381.75.85z" fill="#4d4d4d"/>
  </g>
</svg>
