<svg viewBox="0 0 48 48">
  <defs>
    <linearGradient id="a" x1="1" x2="47" gradientUnits="userSpaceOnUse" gradientTransform="translate(-48 .002)">
      <stop stop-color="#7ca339"/>
      <stop offset="1" stop-color="#87b13e"/>
    </linearGradient>
    <clipPath id="b"/>
    <clipPath id="c"/>
  </defs>
  <path d="M1 43v.25c0 2.216 1.784 4 4 4h38c2.216 0 4-1.784 4-4V43c0 2.216-1.784 4-4 4H5c-2.216 0-4-1.784-4-4zm0 .5v.5c0 2.216 1.784 4 4 4h38c2.216 0 4-1.784 4-4v-.5c0 2.216-1.784 4-4 4H5c-2.216 0-4-1.784-4-4z" opacity=".02"/>
  <path d="M1 43.25v.25c0 2.216 1.784 4 4 4h38c2.216 0 4-1.784 4-4v-.25c0 2.216-1.784 4-4 4H5c-2.216 0-4-1.784-4-4z" opacity=".05"/>
  <path d="M1 43v.25c0 2.216 1.784 4 4 4h38c2.216 0 4-1.784 4-4V43c0 2.216-1.784 4-4 4H5c-2.216 0-4-1.784-4-4z" opacity=".1"/>
  <rect width="46" height="46" x="-47" y="1" rx="4" transform="rotate(-90)" fill="url(#a)"/>
  <g opacity=".1" clip-path="url(#b)">
    <path d="M33.434 19c-.863 0-1.566.758-1.566 1.691v6.617c0 .934.703 1.695 1.566 1.695.867 0 1.563-.762 1.563-1.695v-6.617c0-.934-.699-1.691-1.563-1.691m-18.871 0c-.863 0-1.566.758-1.566 1.691v6.617c0 .934.703 1.695 1.566 1.695.863 0 1.566-.762 1.566-1.695v-6.617c0-.934-.703-1.691-1.566-1.691m0 0M17 19v11.594c0 .688.539 1.25 1.219 1.25h1.406v3.531c0 .898.691 1.625 1.563 1.625.871 0 1.594-.727 1.594-1.625v-3.531h2.438v3.531c0 .898.727 1.625 1.594 1.625.871 0 1.566-.727 1.566-1.625v-3.531h1.402c.68 0 1.223-.563 1.223-1.25V19m-3.379 1c.156-.004-.055.141-.625.375-1.863.762-4.164 2.238-4.813 3.125-.551.75-.551.859 0 1.219.41.23.824.195 1.219.219.426.051.996.047 2 .063 2.027.031 2.496.113 2.594.563.152.711-1.656 2.152-4.125 3.316-2.691 1.266-4.188 1.574-1.813.375 2.328-1.18 4.293-2.789 4.156-3.441-.801-.516-2.555-.414-4-.344-.395 0-1 .012-1.625-.313-.336-.176-.594-.516-.594-.75 0-.957 4.762-3.801 7.344-4.375.137-.031.227-.031.281-.031m0 0M27.32 13.199l1.293-1.844c.078-.109.055-.25-.043-.32-.102-.07-.246-.035-.324.074l-1.34 1.914A8.036 8.036 0 0 0 24 12.488c-1.035 0-2.02.191-2.906.535l-1.344-1.914c-.078-.109-.219-.145-.32-.074-.102.066-.121.211-.043.32l1.293 1.844c-2.055.938-3.5 2.723-3.684 4.801h14c-.184-2.078-1.625-3.867-3.68-4.801m-6.27 2.902a.768.768 0 0 1-.777-.762c0-.418.348-.758.777-.758.43 0 .773.34.773.758a.77.77 0 0 1-.773.762m6 0a.768.768 0 0 1-.777-.762c0-.418.348-.758.777-.758.426 0 .773.34.773.758a.77.77 0 0 1-.773.762m0 0"/>
  </g>
  <g>
    <g fill="#f9f9f9" clip-path="url(#c)">
      <path d="M33.434 18c-.863 0-1.566.758-1.566 1.691v6.617c0 .934.703 1.695 1.566 1.695.867 0 1.563-.762 1.563-1.695v-6.617c0-.934-.699-1.691-1.563-1.691m-18.871 0c-.863 0-1.566.758-1.566 1.691v6.617c0 .934.703 1.695 1.566 1.695.863 0 1.566-.762 1.566-1.695v-6.617c0-.934-.703-1.691-1.566-1.691m0 0M17 18v11.594c0 .688.539 1.25 1.219 1.25h1.406v3.531c0 .898.691 1.625 1.563 1.625.871 0 1.594-.727 1.594-1.625v-3.531h2.438v3.531c0 .898.727 1.625 1.594 1.625.871 0 1.566-.727 1.566-1.625v-3.531h1.402c.68 0 1.223-.563 1.223-1.25V18m-3.379 1c.156-.004-.055.141-.625.375-1.863.762-4.164 2.238-4.813 3.125-.551.75-.551.859 0 1.219.41.23.824.195 1.219.219.426.051.996.047 2 .063 2.027.031 2.496.113 2.594.563.152.711-1.656 2.152-4.125 3.316-2.691 1.266-4.188 1.574-1.813.375 2.328-1.18 4.293-2.789 4.156-3.441-.801-.516-2.555-.414-4-.344-.395 0-1 .012-1.625-.313-.336-.176-.594-.516-.594-.75 0-.957 4.762-3.801 7.344-4.375.137-.031.227-.031.281-.031m0 0M27.32 12.199l1.293-1.844c.078-.109.055-.25-.043-.32-.102-.07-.246-.035-.324.074l-1.34 1.914A8.036 8.036 0 0 0 24 11.488c-1.035 0-2.02.191-2.906.535l-1.344-1.914c-.078-.109-.219-.145-.32-.074-.102.066-.121.211-.043.32l1.293 1.844c-2.055.938-3.5 2.723-3.684 4.801h14c-.184-2.078-1.625-3.867-3.68-4.801m-6.27 2.902a.768.768 0 0 1-.777-.762c0-.418.348-.758.777-.758.43 0 .773.34.773.758a.77.77 0 0 1-.773.762m6 0a.768.768 0 0 1-.777-.762c0-.418.348-.758.777-.758.426 0 .773.34.773.758a.77.77 0 0 1-.773.762m0 0"/>
    </g>
  </g>
  <g>
    <path d="M1 38.998v4c0 2.216 1.784 4 4 4h38c2.216 0 4-1.784 4-4v-4c0 2.216-1.784 4-4 4H5c-2.216 0-4-1.784-4-4z" opacity=".1"/>
  </g>
</svg>
