<svg version="1.1" viewBox="0 0 48 48" xmlns="http://www.w3.org/2000/svg">
 <defs>
  <linearGradient id="bg" x2="0" y1="1" y2="47" gradientUnits="userSpaceOnUse">
   <stop style="stop-color:#b6353f" offset="0"/>
   <stop style="stop-color:#a8303a" offset="1"/>
  </linearGradient>
 </defs>
 <path d="m1 43v0.25c0 2.216 1.784 4 4 4h38c2.216 0 4-1.784 4-4v-0.25c0 2.216-1.784 4-4 4h-38c-2.216 0-4-1.784-4-4zm0 0.5v0.5c0 2.216 1.784 4 4 4h38c2.216 0 4-1.784 4-4v-0.5c0 2.216-1.784 4-4 4h-38c-2.216 0-4-1.784-4-4z" style="opacity:.02"/>
 <path d="m1 43.25v0.25c0 2.216 1.784 4 4 4h38c2.216 0 4-1.784 4-4v-0.25c0 2.216-1.784 4-4 4h-38c-2.216 0-4-1.784-4-4z" style="opacity:.05"/>
 <path d="m1 43v0.25c0 2.216 1.784 4 4 4h38c2.216 0 4-1.784 4-4v-0.25c0 2.216-1.784 4-4 4h-38c-2.216 0-4-1.784-4-4z" style="opacity:.1"/>
 <rect x="1" y="1" width="46" height="46" rx="4" style="fill:url(#bg)"/>
 <path d="m1 39v4c0 2.216 1.784 4 4 4h38c2.216 0 4-1.784 4-4v-4c0 2.216-1.784 4-4 4h-38c-2.216 0-4-1.784-4-4z" style="opacity:.1"/>
 <path d="m14 11s1 2 1 4c0 2.357-5 1-5 5s6 8 6 8v1c0 3 4 4 4 4v3s0 1 1 1 1-1 1-1v-2l1-1v3s0 1 1 1 1-1 1-1v-3l1 1v2s0 1 1 1 1-1 1-1v-3s4-1 4-4v-1s6-4 6-8-5-2.643-5-5c0-2 1-4 1-4s-3 1-3 4c0 1.9437 3 3 3 5 0 0.94281-2 2-2 2l-2.834-2.834 0.83398-4.166-2 2h-1l-1-4-1 4h-2l-1-4-1 4h-1l-2-2 0.83398 4.166-2.834 2.834s-2-1.0572-2-2c0-2 3-3.0563 3-5 0-3-3-4-3-4z" style="opacity:.1"/>
 <path d="m16 27 1-4-1-2s-2-1.0572-2-2c0-2 3-3.0563 3-5 0-3-3-4-3-4s1 2 1 4c0 2.357-5 1-5 5s6 8 6 8z" style="fill:#a08787"/>
 <path d="m22 12-1 4h-1l-2-2 1 5 5 1 5-1 1-5-2 2h-1l-1-4-1 4h-2z" style="fill:#383838"/>
 <path d="m32 27-1-4 1-2s2-1.0572 2-2c0-2-3-3.0563-3-5 0-3 3-4 3-4s-1 2-1 4c0 2.357 5 1 5 5s-6 8-6 8z" style="fill:#a08787"/>
 <path d="m20 17-4 4v7c0 3 4 4 4 4v3s0 1 1 1 1-1 1-1v-2l1-1v3s0 1 1 1 1-1 1-1v-3l1 1v2s0 1 1 1 1-1 1-1v-3s4-1 4-4v-7l-4-4h-4z" style="fill:#f9f9f9"/>
 <path d="m20 16-1 4s0 2 5 2 5-2 5-2l-1-4z" style="fill:#d8a1a1"/>
 <path d="m18 24s0 4 2 4c3 0 3-1 3-1zm12 0-5 3s0 1 3 1c2 0 2-4 2-4zm-6 5-1 1h2z" style="fill:#383838"/>
 <path d="m24 21s2-1.626 2-3c0-0.4714-0.5286-1-1-1s-1 1-1 1-0.5286-1-1-1-1 0.5286-1 1c0 1.374 2 3 2 3z" style="fill:#ca5858"/>
</svg>
