<svg style="" version="1.1" viewBox="0 0 48 48" xmlns="http://www.w3.org/2000/svg">
 <defs style="">
  <linearGradient id="bg" x1="1" x2="47" style="" gradientTransform="translate(-48 .002215)" gradientUnits="userSpaceOnUse">
   <stop style="stop-color:#e4e4e4" offset="0"/>
   <stop style="stop-color:#eee" offset="1"/>
  </linearGradient>
 </defs>
 <path d="m1 43v0.25c0 2.216 1.784 4 4 4h38c2.216 0 4-1.784 4-4v-0.25c0 2.216-1.784 4-4 4h-38c-2.216 0-4-1.784-4-4zm0 0.5v0.5c0 2.216 1.784 4 4 4h38c2.216 0 4-1.784 4-4v-0.5c0 2.216-1.784 4-4 4h-38c-2.216 0-4-1.784-4-4z" style="opacity:.02"/>
 <path d="m1 43.25v0.25c0 2.216 1.784 4 4 4h38c2.216 0 4-1.784 4-4v-0.25c0 2.216-1.784 4-4 4h-38c-2.216 0-4-1.784-4-4z" style="opacity:.05"/>
 <path d="m1 43v0.25c0 2.216 1.784 4 4 4h38c2.216 0 4-1.784 4-4v-0.25c0 2.216-1.784 4-4 4h-38c-2.216 0-4-1.784-4-4z" style="opacity:.1"/>
 <rect transform="rotate(-90)" x="-47" y="1" width="46" height="46" rx="4" style="fill:url(#bg)"/>
 <path d="m15.273 14c-1.804 0-3.2734 1.4644-3.2734 3.2734v13.449c0 1.808 1.4684 3.2715 3.2734 3.2715h9.4688l-0.69922 2.3164v0.0039l4.1562-1.5273 0.78516-0.79297h3.7422c1.808 0 3.2715-1.4625 3.2715-3.2715v-4.1641l2.8457-3s0.14469-0.63325-1.0703-1.7812c-0.92216-0.86963-1.5437-0.93792-1.7754-0.92774v-3.5762c0-1.808-1.4625-3.2734-3.2715-3.2734z" style="opacity:.1"/>
 <path d="m15.273 13h17.453c1.809 0 3.273 1.465 3.273 3.273v13.449c0 1.809-1.465 3.273-3.273 3.273h-17.453c-1.805 0-3.273-1.465-3.273-3.273v-13.449c0-1.809 1.469-3.273 3.273-3.273" style="fill:#2d2d2d"/>
 <path d="m15.617 15c-0.894 0-1.6172 0.72619-1.6172 1.6172v12.77c0 0.894 0.72219 1.6172 1.6172 1.6172h16.766c0.89 0 1.6133-0.72219 1.6133-1.6172v-12.77c0-0.89-0.72228-1.6172-1.6133-1.6172zm12.344 0.95703h2.9961v4h-2.9961zm-11.961 0.039063h3v4h-3v-3.9961zm4 0h2.9961v4h-2.9961v-3.9961zm4 0.003906h1.9961v3h1v0.99609h-2.9961v-0.99609h0.99609v-2h-0.99609zm4.9609 0.95703v2h0.99609v-2zm-11.961 0.039063v2h1v-2zm3.9961 0v2h1v-2zm-4.9961 4h3v4h-3v-3.9961zm4 0h1.9961v3h1v1h-2.9961v-1h0.99609v-1.9961h-0.99609v-1zm4 0h2.9961v4h-2.9961v-3.9961zm4 0h2.9961v4h-2.9961v-3.9961zm-11 1v1.9961h1v-1.9961zm7.9961 0v1.9961h1v-1.9961zm4.0039 0v1.9961h0.99609v-1.9961zm-13 4h2v3h1v1h-3v-1h1v-1.9961h-1v-1zm4 0h2.9961v4h-2.9961v-3.9961zm4 0h1.9961v3h1v1h-2.9961v-1h0.99609v-1.9961h-0.99609v-1zm4 0h1.9961v3h1v1h-2.9961v-1h1v-1.9961h-1v-1zm-7.0039 1v1.9961h1v-1.9961z" style="fill:#868686"/>
 <path d="m25.313 31.06 9.453-10.02 2.906 2.746-9.453 10.02" style="fill:#ff6f03"/>
 <path d="m34.26 21.586 2.895 2.746 1.688-1.773s0.145-0.633-1.07-1.781c-1.176-1.109-1.887-0.918-1.887-0.918l-1.629 1.727" style="fill:#ff2d5b"/>
 <path d="m25.336 31.03-1.293 4.281 4.199-1.539-2.906-2.746" style="fill:#ffc13d"/>
 <path d="m24.676 33.17-0.633 2.145 2.109-0.758-1.477-1.398" style="fill:#2d2d2d"/>
 <path d="m1 39v4c0 2.216 1.784 4 4 4h38c2.216 0 4-1.784 4-4v-4c0 2.216-1.784 4-4 4h-38c-2.216 0-4-1.784-4-4z" style="opacity:.1"/>
</svg>
