<?xml version="1.0" encoding="UTF-8"?>
<svg width="48" height="48" version="1.1" xmlns="http://www.w3.org/2000/svg" xmlns:cc="http://creativecommons.org/ns#" xmlns:dc="http://purl.org/dc/elements/1.1/" xmlns:rdf="http://www.w3.org/1999/02/22-rdf-syntax-ns#" xmlns:xlink="http://www.w3.org/1999/xlink">
 <defs>
  <linearGradient id="linearGradient4075" x1="24" x2="24" y1="1051.4" y2="1005.4" gradientUnits="userSpaceOnUse">
   <stop stop-color="#00b6c0" offset="0"/>
   <stop stop-color="#00c9d4" offset="1"/>
  </linearGradient>
 </defs>
 <metadata>
  <rdf:RDF>
   <cc:Work rdf:about="">
    <dc:format>image/svg+xml</dc:format>
    <dc:type rdf:resource="http://purl.org/dc/dcmitype/StillImage"/>
    <dc:title/>
   </cc:Work>
  </rdf:RDF>
 </metadata>
 <g transform="translate(0 -1004.4)">
  <path d="m5 1006.4c-2.216 0-4 1.784-4 4v37.25c0 2.216 1.784 4 4 4h38c2.216 0 4-1.784 4-4v-37.25c0-2.216-1.784-4-4-4h-38zm-4 41.5v0.5c0 2.216 1.784 4 4 4h38c2.216 0 4-1.784 4-4v-0.5c0 2.216-1.784 4-4 4h-38c-2.216 0-4-1.784-4-4z" opacity=".02"/>
  <path d="m1 1047.6v0.25c0 2.216 1.784 4 4 4h38c2.216 0 4-1.784 4-4v-0.25c0 2.216-1.784 4-4 4h-38c-2.216 0-4-1.784-4-4z" opacity=".05"/>
  <rect x="1" y="1005.6" width="46" height="46" rx="4" opacity=".1"/>
 </g>
 <g transform="translate(0 -1004.4)">
  <g transform="translate(0 .0022146)" fill="url(#linearGradient4075)">
   <rect x="1" y="1005.4" width="46" height="46" rx="4" fill="url(#linearGradient4075)"/>
  </g>
  <path d="m1 1043.4v4c0 2.216 1.784 4 4 4h38c2.216 0 4-1.784 4-4v-4c0 2.216-1.784 4-4 4h-38c-2.216 0-4-1.784-4-4z" opacity=".1"/>
 </g>
 <g>
  <rect x="11" y="11" width="26" height="26" opacity=".1"/>
  <rect x="11" y="10" width="26" height="26" fill="#5e5e5e"/>
  <rect x="12" y="11" width="24" height="24" fill="#eee"/>
  <g fill="#5e5e5e">
   <rect x="12" y="17" width="24" height="1"/>
   <rect x="12" y="23" width="24" height="1"/>
   <rect x="12" y="29" width="24" height="1"/>
   <rect transform="matrix(0,-1,-1,0,0,0)" x="-35" y="-18" width="24" height="1"/>
   <rect transform="matrix(0,-1,-1,0,0,0)" x="-35" y="-24" width="24" height="1"/>
   <rect transform="matrix(0,-1,-1,0,0,0)" x="-35" y="-30" width="24" height="1"/>
  </g>
  <rect x="24" y="18" width="5" height="5" fill="#d71e1e"/>
  <rect x="24" y="11" width="5" height="6" fill="#fa884c"/>
  <rect x="30" y="24" width="6" height="5" fill="#7fde59"/>
  <rect x="18" y="24" width="5" height="5" fill="#b9b9b9"/>
  <rect x="12" y="11" width="5" height="6" fill="#d7d7d7"/>
 </g>
</svg>
