<svg version="1.1" viewBox="0 0 48 48" xmlns="http://www.w3.org/2000/svg">
 <defs>
  <linearGradient id="bg" x1="1" x2="47" style="" gradientTransform="translate(-48 0)" gradientUnits="userSpaceOnUse">
   <stop style="stop-color:#e4e4e4" offset="0"/>
   <stop style="stop-color:#eee" offset="1"/>
  </linearGradient>
 </defs>
 <path d="m1 43v0.25c0 2.216 1.784 4 4 4h38c2.216 0 4-1.784 4-4v-0.25c0 2.216-1.784 4-4 4h-38c-2.216 0-4-1.784-4-4zm0 0.5v0.5c0 2.216 1.784 4 4 4h38c2.216 0 4-1.784 4-4v-0.5c0 2.216-1.784 4-4 4h-38c-2.216 0-4-1.784-4-4z" style="opacity:.02"/>
 <path d="m1 43.25v0.25c0 2.216 1.784 4 4 4h38c2.216 0 4-1.784 4-4v-0.25c0 2.216-1.784 4-4 4h-38c-2.216 0-4-1.784-4-4z" style="opacity:.05"/>
 <path d="m1 43v0.25c0 2.216 1.784 4 4 4h38c2.216 0 4-1.784 4-4v-0.25c0 2.216-1.784 4-4 4h-38c-2.216 0-4-1.784-4-4z" style="opacity:.1"/>
 <rect transform="rotate(-90)" x="-47" y="1" width="46" height="46" rx="4" style="fill:url(#bg)"/>
 <path d="m12 17.439v12.564c0 0.813 0.65575 1.4688 1.4688 1.4688h3.5312v5.5273l4.4219-5.5273h13.107c0.816 0 1.4688-0.65575 1.4688-1.4688v-12.564zm8.0098 1.5605c2.762 0 5 2.238 5 5s-2.238 5-5 5c-2.77 0-5-2.238-5-5s2.23-5 5-5zm10 1c2.207 0 4 1.789 4 4 0 2.207-1.793 4-4 4-2.219 0-4-1.793-4-4 0-2.211 1.781-4 4-4z" style="opacity:.1"/>
 <path d="m18.469 10c-0.813 0-1.4688 0.65175-1.4688 1.4688v3.5h-3.5312c-0.813 0-1.4688 0.65575-1.4688 1.4688v12.564c0 0.813 0.65575 1.4688 1.4688 1.4688h3.5312v5.5273l4.4219-5.5273h13.107c0.816 0 1.4688-0.65575 1.4688-1.4688v-12.564c0-0.813-0.64475-1.4688-1.4688-1.4688h-8.5293v-3.4961c0-0.816-0.65175-1.4688-1.4688-1.4688h-0.0625v-0.003906c-0.813 0-1.4688 0.65175-1.4688 1.4688v3.5h-3v-3.498c0-0.813-0.65175-1.4688-1.4688-1.4688l-0.0625-0.001953zm1.541 7.998c2.762 0 5 2.238 5 5s-2.238 5-5 5c-2.77 0-5-2.238-5-5s2.23-5 5-5zm10 1c2.207 0 4 1.789 4 4 0 2.207-1.793 4-4 4-2.219 0-4-1.793-4-4 0-2.211 1.781-4 4-4z" style="fill:#3d458f"/>
 <path d="m1 39v4c0 2.216 1.784 4 4 4h38c2.216 0 4-1.784 4-4v-4c0 2.216-1.784 4-4 4h-38c-2.216 0-4-1.784-4-4z" style="opacity:.1"/>
</svg>
