<svg width="48" height="48" viewBox="0 0 48 48.000001" xmlns="http://www.w3.org/2000/svg">
  <defs>
    <linearGradient id="a" x1="-47" x2="-1" gradientUnits="userSpaceOnUse">
      <stop offset="0" stop-color="#c08b46"/>
      <stop offset="1" stop-color="#c59555"/>
    </linearGradient>
  </defs>
  <path d="M1 43v.25c0 2.216 1.784 4 4 4h38c2.216 0 4-1.784 4-4V43c0 2.216-1.784 4-4 4H5c-2.216 0-4-1.784-4-4zm0 .5v.5c0 2.216 1.784 4 4 4h38c2.216 0 4-1.784 4-4v-.5c0 2.216-1.784 4-4 4H5c-2.216 0-4-1.784-4-4z" opacity=".02"/>
  <path d="M1 43.25v.25c0 2.216 1.784 4 4 4h38c2.216 0 4-1.784 4-4v-.25c0 2.216-1.784 4-4 4H5c-2.216 0-4-1.784-4-4z" opacity=".05"/>
  <path d="M1 43v.25c0 2.216 1.784 4 4 4h38c2.216 0 4-1.784 4-4V43c0 2.216-1.784 4-4 4H5c-2.216 0-4-1.784-4-4z" opacity=".1"/>
  <rect transform="rotate(-90)" x="-47" y="1" width="46" height="46" rx="4" fill="url(#a)"/>
  <path d="M1 39v4c0 2.216 1.784 4 4 4h38c2.216 0 4-1.784 4-4v-4c0 2.216-1.784 4-4 4H5c-2.216 0-4-1.784-4-4z" opacity=".1"/>
  <g>
    <path d="M18 14v5l5.5 5-5.5 5v5h12v-5l-5.5-5 5.5-5v-5z" opacity=".07"/>
    <path d="M15 11c-.554 0-1 .446-1 1v1c0 .554.446 1 1 1h1v20h-1c-.554 0-1 .446-1 1v1c0 .554.446 1 1 1h18c.554 0 1-.446 1-1v-1c0-.554-.446-1-1-1h-1V14h1c.554 0 1-.446 1-1v-1c0-.554-.446-1-1-1zm2 3h14v20H17z" opacity=".1"/>
  </g>
  <g>
    <path d="M15 10c-.554 0-1 .446-1 1v1c0 .554.446 1 1 1h1v20h-1c-.554 0-1 .446-1 1v1c0 .554.446 1 1 1h18c.554 0 1-.446 1-1v-1c0-.554-.446-1-1-1h-1V13h1c.554 0 1-.446 1-1v-1c0-.554-.446-1-1-1zm2 3h14v20H17z" fill="#896650"/>
    <path d="M24 29c.728.016 4 4 4.5 4h-9c.6 0 3.772-4.02 4.5-4zM19 16v1.559l5 4.541 5-4.541V16c-3.417.625-6.75.625-10 0z" fill="#e3bc7e"/>
    <path d="M18 13v5l5.5 5-5.5 5v5h12v-5l-5.5-5 5.5-5v-5z" fill-opacity=".282" fill="#fff"/>
  </g>
</svg>
