<svg viewBox="0 0 48 48">
  <defs>
    <linearGradient id="a" x1="1" x2="47" gradientUnits="userSpaceOnUse" gradientTransform="translate(-48 .002)">
      <stop stop-color="#3d3d3d"/>
      <stop offset="1" stop-color="#474747"/>
    </linearGradient>
    <clipPath id="b"/>
    <clipPath id="c"/>
  </defs>
  <path d="M1 43v.25c0 2.216 1.784 4 4 4h38c2.216 0 4-1.784 4-4V43c0 2.216-1.784 4-4 4H5c-2.216 0-4-1.784-4-4zm0 .5v.5c0 2.216 1.784 4 4 4h38c2.216 0 4-1.784 4-4v-.5c0 2.216-1.784 4-4 4H5c-2.216 0-4-1.784-4-4z" opacity=".02"/>
  <path d="M1 43.25v.25c0 2.216 1.784 4 4 4h38c2.216 0 4-1.784 4-4v-.25c0 2.216-1.784 4-4 4H5c-2.216 0-4-1.784-4-4z" opacity=".05"/>
  <path d="M1 43v.25c0 2.216 1.784 4 4 4h38c2.216 0 4-1.784 4-4V43c0 2.216-1.784 4-4 4H5c-2.216 0-4-1.784-4-4z" opacity=".1"/>
  <rect width="46" height="46" x="-47" y="1" rx="4" transform="rotate(-90)" fill="url(#a)"/>
  <g opacity=".1" clip-path="url(#b)">
    <path d="M23.996 9c8.281 0 14.996 6.715 14.996 14.996v.012C38.992 32.289 32.277 39 23.996 39S9 32.289 9 24.008v-.012C9 15.715 15.715 9 23.996 9m0 0" fill-rule="evenodd" fill-opacity=".392"/>
    <path d="M9.429 27.556c1.608-.404 2.905.014 4.415.014 1.123 0 1.123-1.013 1.123-1.013s0 1.013 1.13 1.013c.564 0 1.12 1.014 1.12 1.014s.57-13.185 1.977-13.185 1.97 14.209 1.97 14.209.564-2.027 1.123-2.027c1.68 0 1.68-1.02 1.68-1.02s0 1.02.57 1.02.57 1.013.57 1.013 0-1.013.564-1.013h.564c.662 0 .843-2.027 1.406-2.027.564 0 .844 2.027 1.407 2.027.567 0 1.024-1.02 1.69-1.02.564 0 1.123 1.027 1.549 1.02 2.133-.067 3.543-.946 6.328-.166" stroke="#36dd3c" stroke-linejoin="bevel" stroke-width=".80078806"/>
  </g>
  <g>
    <g clip-path="url(#c)">
      <path d="M23.996 8c8.281 0 14.996 6.715 14.996 14.996v.012C38.992 31.289 32.277 38 23.996 38S9 31.289 9 23.008v-.012C9 14.715 15.715 8 23.996 8m0 0" fill="#36dd3c" fill-rule="evenodd" fill-opacity=".392"/>
      <path d="M9.429 26.556c1.608-.404 2.905.014 4.415.014 1.123 0 1.123-1.013 1.123-1.013s0 1.013 1.13 1.013c.564 0 1.12 1.014 1.12 1.014s.57-13.185 1.977-13.185 1.97 14.209 1.97 14.209.564-2.027 1.123-2.027c1.68 0 1.68-1.02 1.68-1.02s0 1.02.57 1.02.57 1.013.57 1.013 0-1.013.564-1.013h.564c.662 0 .843-2.027 1.406-2.027.564 0 .844 2.027 1.407 2.027.567 0 1.024-1.02 1.69-1.02.564 0 1.123 1.027 1.549 1.02 2.133-.067 3.543-.946 6.328-.166" fill="none" stroke="#36dd3c" stroke-linejoin="bevel" stroke-width=".80078806"/>
    </g>
  </g>
  <g>
    <path d="M1 38.998v4c0 2.216 1.784 4 4 4h38c2.216 0 4-1.784 4-4v-4c0 2.216-1.784 4-4 4H5c-2.216 0-4-1.784-4-4z" opacity=".1"/>
  </g>
</svg>
