<svg version="1.1" viewBox="0 0 48 48" xmlns="http://www.w3.org/2000/svg">
 <defs>
  <linearGradient id="bg" x1="1" x2="47" y1="0" y2="0" gradientTransform="translate(-48)" gradientUnits="userSpaceOnUse">
   <stop style="stop-color:#3d3d3d" offset="0"/>
   <stop style="stop-color:#474747" offset="1"/>
  </linearGradient>
 </defs>
 <path d="m1 43v0.25c0 2.22 1.78 4 4 4h38c2.22 0 4-1.78 4-4v-0.25c0 2.22-1.78 4-4 4h-38c-2.22 0-4-1.78-4-4zm0 0.5v0.5c0 2.22 1.78 4 4 4h38c2.22 0 4-1.78 4-4v-0.5c0 2.22-1.78 4-4 4h-38c-2.22 0-4-1.78-4-4z" style="opacity:.02"/>
 <path d="m1 43.2v0.25c0 2.22 1.78 4 4 4h38c2.22 0 4-1.78 4-4v-0.25c0 2.22-1.78 4-4 4h-38c-2.22 0-4-1.78-4-4z" style="opacity:.05"/>
 <path d="m1 43v0.25c0 2.22 1.78 4 4 4h38c2.22 0 4-1.78 4-4v-0.25c0 2.22-1.78 4-4 4h-38c-2.22 0-4-1.78-4-4z" style="opacity:.1"/>
 <rect transform="rotate(-90)" x="-47" y="1" width="46" height="46" rx="4" style="fill:url(#bg)"/>
 <path d="m1 39v4c0 2.22 1.78 4 4 4h38c2.22 0 4-1.78 4-4v-4c0 2.22-1.78 4-4 4h-38c-2.22 0-4-1.78-4-4z" style="opacity:.1"/>
 <circle cx="24" cy="24" r="15" style="opacity:.1"/>
 <circle cx="24" cy="23" r="15" style="fill:#458d47"/>
 <path d="m19.2 15c-0.244 0-0.434 0.144-0.559 0.291-0.124 0.147-0.214 0.321-0.299 0.523-0.169 0.405-0.309 0.935-0.438 1.57-0.257 1.26-0.459 2.92-0.619 4.57-0.275 2.85-0.364 4.95-0.398 5.69-0.212-0.215-0.405-0.473-0.783-0.473-0.446 0-0.555-0.147-0.641-0.301s-0.0898-0.312-0.0898-0.312h-0.801s-0.0043 0.158-0.0898 0.312-0.192 0.301-0.633 0.301c-1.38 0-2.66-0.321-4.26-0.0449a15 15 0 0 0 0.262 0.785c1.37-0.205 2.55 0.0606 4 0.0606 0.575 0 0.89-0.31 1.12-0.602 0.234 0.292 0.553 0.602 1.13 0.602 0.0416 0 0.281 0.142 0.463 0.361 0.181 0.219 0.305 0.445 0.305 0.445l0.752-0.176s0.142-3.29 0.459-6.57c0.159-1.64 0.362-3.28 0.607-4.49 0.123-0.605 0.259-1.1 0.391-1.42 0.0433-0.104 0.0774-0.149 0.113-0.207 0.0382 0.0651 0.0749 0.123 0.121 0.242 0.133 0.346 0.27 0.886 0.393 1.54 0.246 1.31 0.45 3.08 0.607 4.85 0.316 3.54 0.455 7.08 0.455 7.08l0.787 0.0918s0.135-0.489 0.334-0.967c0.0994-0.239 0.217-0.474 0.32-0.623s0.184-0.145 0.082-0.145c0.774 0 1.17-0.271 1.49-0.549 0.0388 0.0832 0.0543 0.166 0.121 0.246 0.136 0.163 0.373 0.303 0.635 0.303 0.0241 0-1.96e-4 -0.0104 0.0234 0.0176 0.0236 0.028 0.0636 0.104 0.0898 0.197 0.0524 0.186 0.0566 0.398 0.0566 0.398h0.801s0.0047-0.211 0.0566-0.398c0.026-0.0935 0.0647-0.171 0.0879-0.199s-0.0013-0.0156 0.0195-0.0156h0.562c0.37 0 0.611-0.266 0.76-0.504 0.149-0.238 0.253-0.508 0.354-0.764s0.197-0.499 0.279-0.646c0.0087-0.0156 0.0113-0.0142 0.0195-0.0273 0.0118 0.0168 0.0165 0.0178 0.0293 0.0391 0.0893 0.148 0.193 0.389 0.299 0.643s0.212 0.518 0.352 0.75c0.0696 0.116 0.147 0.225 0.258 0.322s0.274 0.188 0.465 0.188c0.524 0 0.818-0.368 1.08-0.619 0.264-0.251 0.479-0.4 0.607-0.4 0.0383 0 0.289 0.15 0.547 0.4 0.129 0.125 0.262 0.259 0.412 0.377s0.327 0.247 0.596 0.242h0.0059c1.12-0.0353 2.03-0.278 2.96-0.404 0.865-0.117 1.77-0.131 2.96 0.162a15 15 0 0 0 0.23-0.768c-1.31-0.328-2.36-0.314-3.3-0.188-0.998 0.135-1.86 0.366-2.88 0.398l0.0059-2e-3c0.0564-9.42e-4 0.0039 0.0019-0.0879-0.0703-0.0918-0.0722-0.213-0.191-0.348-0.322-0.269-0.262-0.58-0.627-1.11-0.627-0.538 0-0.885 0.362-1.16 0.621-0.255 0.242-0.435 0.356-0.496 0.373-0.0202-0.0234-0.0387-0.0431-0.0703-0.0957-0.0893-0.148-0.193-0.391-0.299-0.645s-0.212-0.518-0.352-0.75c-0.0696-0.116-0.147-0.225-0.258-0.322-0.11-0.0977-0.274-0.188-0.465-0.188-0.19 0-0.356 0.0929-0.465 0.193-0.109 0.1-0.183 0.212-0.248 0.328-0.131 0.233-0.228 0.495-0.326 0.746s-0.198 0.489-0.287 0.631-0.119 0.127-0.0801 0.127h-0.562c-0.232 0-0.425 0.131-0.564 0.27-0.141-0.14-0.336-0.27-0.57-0.27-0.0216 0 0.0042 0.0148-0.0195-0.0137-0.0237-0.0284-0.0636-0.109-0.0898-0.203-0.0524-0.189-0.0566-0.402-0.0566-0.402h-0.801s0.0079 0.102-0.119 0.256c-0.127 0.154-0.403 0.363-1.16 0.363-0.382 0-0.58 0.259-0.74 0.49-0.0376 0.0543-0.0594 0.123-0.0938 0.182-0.0537-1.15-0.107-2.69-0.348-5.38-0.159-1.78-0.362-3.57-0.617-4.92-0.128-0.679-0.265-1.25-0.432-1.68-0.0833-0.216-0.171-0.397-0.293-0.553-0.122-0.156-0.314-0.314-0.57-0.314z" style="opacity:.1"/>
 <path d="m19.2 14c-0.244 0-0.434 0.144-0.559 0.291-0.124 0.147-0.214 0.321-0.299 0.523-0.169 0.405-0.309 0.935-0.438 1.57-0.257 1.26-0.459 2.92-0.619 4.57-0.275 2.85-0.364 4.95-0.398 5.69-0.212-0.215-0.405-0.473-0.783-0.473-0.446 0-0.555-0.147-0.641-0.301s-0.0898-0.312-0.0898-0.312h-0.801s-0.0043 0.158-0.0898 0.312-0.192 0.301-0.633 0.301c-1.45 0-2.77-0.359-4.49-0.0078a15 15 0 0 0 0.176 0.783c1.52-0.307 2.75 0.0254 4.31 0.0254 0.575 0 0.89-0.31 1.12-0.602 0.234 0.292 0.553 0.602 1.13 0.602 0.0416 0 0.281 0.142 0.463 0.361 0.181 0.219 0.305 0.445 0.305 0.445l0.752-0.176s0.142-3.29 0.459-6.57c0.159-1.64 0.362-3.28 0.607-4.49 0.123-0.605 0.259-1.1 0.391-1.42 0.0433-0.104 0.0774-0.149 0.113-0.207 0.0382 0.0651 0.0749 0.123 0.121 0.242 0.133 0.346 0.27 0.886 0.393 1.54 0.246 1.31 0.45 3.08 0.607 4.85 0.316 3.54 0.455 7.08 0.455 7.08l0.787 0.0918s0.135-0.489 0.334-0.967c0.0994-0.239 0.217-0.474 0.32-0.623s0.184-0.145 0.082-0.145c0.774 0 1.17-0.271 1.49-0.549 0.0388 0.0832 0.0543 0.166 0.121 0.246 0.136 0.163 0.373 0.303 0.635 0.303 0.0241 0-1.94e-4 -0.0104 0.0234 0.0176 0.0236 0.028 0.0636 0.104 0.0898 0.197 0.0524 0.186 0.0566 0.398 0.0566 0.398h0.801s0.0047-0.211 0.0566-0.398c0.026-0.0935 0.0647-0.171 0.0879-0.199s-0.0013-0.0156 0.0195-0.0156h0.562c0.37 0 0.611-0.266 0.76-0.504 0.149-0.238 0.253-0.508 0.354-0.764s0.197-0.499 0.279-0.646c0.0087-0.0156 0.0113-0.0142 0.0195-0.0273 0.0118 0.0168 0.0165 0.0178 0.0293 0.0391 0.0893 0.148 0.193 0.389 0.299 0.643s0.212 0.518 0.352 0.75c0.0696 0.116 0.147 0.225 0.258 0.322s0.274 0.188 0.465 0.188c0.524 0 0.818-0.368 1.08-0.619 0.264-0.251 0.479-0.4 0.607-0.4 0.0383 0 0.289 0.15 0.547 0.4 0.129 0.125 0.262 0.259 0.412 0.377s0.327 0.247 0.596 0.242h0.0059c1.12-0.0353 2.03-0.278 2.96-0.404 0.933-0.126 1.9-0.149 3.23 0.223a15 15 0 0 0 0.197-0.775c-1.43-0.397-2.55-0.374-3.54-0.24-0.998 0.135-1.86 0.366-2.88 0.398l0.0059-2e-3c0.0564-9.42e-4 0.0039 0.0019-0.0879-0.0703-0.0918-0.0722-0.213-0.191-0.348-0.322-0.269-0.262-0.58-0.627-1.11-0.627-0.538 0-0.885 0.362-1.16 0.621-0.255 0.242-0.435 0.356-0.496 0.373-0.0202-0.0234-0.0387-0.0431-0.0703-0.0957-0.0893-0.148-0.193-0.391-0.299-0.645s-0.212-0.518-0.352-0.75c-0.0696-0.116-0.147-0.225-0.258-0.322-0.11-0.0977-0.274-0.188-0.465-0.188-0.19 0-0.356 0.0929-0.465 0.193-0.109 0.1-0.183 0.212-0.248 0.328-0.131 0.233-0.228 0.495-0.326 0.746s-0.198 0.489-0.287 0.631-0.119 0.127-0.0801 0.127h-0.562c-0.232 0-0.425 0.131-0.564 0.27-0.141-0.14-0.336-0.27-0.57-0.27-0.0216 0 0.0042 0.0148-0.0195-0.0137-0.0237-0.0284-0.0636-0.109-0.0898-0.203-0.0524-0.189-0.0566-0.402-0.0566-0.402h-0.801s0.0079 0.102-0.119 0.256c-0.127 0.154-0.403 0.363-1.16 0.363-0.382 0-0.58 0.259-0.74 0.49-0.0376 0.0543-0.0594 0.123-0.0938 0.182-0.0537-1.15-0.107-2.69-0.348-5.38-0.159-1.78-0.362-3.57-0.617-4.92-0.128-0.679-0.265-1.25-0.432-1.68-0.0833-0.216-0.171-0.397-0.293-0.553-0.122-0.156-0.314-0.314-0.57-0.314z" style="fill:#45e74c"/>
</svg>
