<svg version="1.1" viewBox="0 0 48 48" xmlns="http://www.w3.org/2000/svg">
 <defs>
  <linearGradient id="bg" x2="0" y1="1" y2="47" gradientUnits="userSpaceOnUse">
   <stop style="stop-color:#d4d8e4" offset="0"/>
   <stop style="stop-color:#c8cddc" offset="1"/>
  </linearGradient>
 </defs>
 <path d="m1 43v0.25c0 2.216 1.784 4 4 4h38c2.216 0 4-1.784 4-4v-0.25c0 2.216-1.784 4-4 4h-38c-2.216 0-4-1.784-4-4zm0 0.5v0.5c0 2.216 1.784 4 4 4h38c2.216 0 4-1.784 4-4v-0.5c0 2.216-1.784 4-4 4h-38c-2.216 0-4-1.784-4-4z" style="opacity:.02"/>
 <path d="m1 43.25v0.25c0 2.216 1.784 4 4 4h38c2.216 0 4-1.784 4-4v-0.25c0 2.216-1.784 4-4 4h-38c-2.216 0-4-1.784-4-4z" style="opacity:.05"/>
 <path d="m1 43v0.25c0 2.216 1.784 4 4 4h38c2.216 0 4-1.784 4-4v-0.25c0 2.216-1.784 4-4 4h-38c-2.216 0-4-1.784-4-4z" style="opacity:.1"/>
 <rect x="1" y="1" width="46" height="46" rx="4" style="fill:url(#bg)"/>
 <path d="m1 39v4c0 2.216 1.784 4 4 4h38c2.216 0 4-1.784 4-4v-4c0 2.216-1.784 4-4 4h-38c-2.216 0-4-1.784-4-4z" style="opacity:.1"/>
 <path d="m11 26v7c0 0.554 0.446 1 1 1h4c0.554 0 1-0.446 1-1v-5h4v5c0 0.554 0.446 1 1 1h14c0.554 0 1-0.446 1-1v-7z" style="opacity:.1"/>
 <path d="m12 13c-0.554 0-1 0.446-1 1v18c0 0.554 0.446 1 1 1h4c0.554 0 1-0.446 1-1v-5h4v5c0 0.554 0.446 1 1 1h14c0.554 0 1-0.446 1-1v-18c0-0.554-0.446-1-1-1h-14c-0.554 0-1 0.446-1 1v7h-4v-7c0-0.554-0.446-1-1-1z" style="fill:#374881"/>
 <path d="m24 15c-0.554 0-1 0.446-1 1v2c0 0.554 0.45157 0.92166 1 1h7v2h-7c-0.554 0-1 0.446-1 1v8c0 0.554 0.446 1 1 1h10c0.554 0 1-0.446 1-1v-2c0-0.554-0.446-1-1-1h-7v-2h7c0.554 0 1-0.446 1-1v-8c0-0.554-0.446-1-1-1z" style="fill:#f0f1f5"/>
</svg>
