<svg version="1.1" viewBox="0 0 48 48" xmlns="http://www.w3.org/2000/svg">
 <defs>
  <linearGradient id="bg" x1="-47" x2="-1" y1="0" y2="0" gradientUnits="userSpaceOnUse">
   <stop style="stop-color:#307dae" offset="0"/>
   <stop style="stop-color:#3488be" offset="1"/>
  </linearGradient>
 </defs>
 <path d="m1 43v0.25c0 2.22 1.78 4 4 4h38c2.22 0 4-1.78 4-4v-0.25c0 2.22-1.78 4-4 4h-38c-2.22 0-4-1.78-4-4zm0 0.5v0.5c0 2.22 1.78 4 4 4h38c2.22 0 4-1.78 4-4v-0.5c0 2.22-1.78 4-4 4h-38c-2.22 0-4-1.78-4-4z" style="opacity:.02"/>
 <path d="m1 43.3v0.25c0 2.22 1.78 4 4 4h38c2.22 0 4-1.78 4-4v-0.25c0 2.22-1.78 4-4 4h-38c-2.22 0-4-1.78-4-4z" style="opacity:.05"/>
 <path d="m1 43v0.25c0 2.22 1.78 4 4 4h38c2.22 0 4-1.78 4-4v-0.25c0 2.22-1.78 4-4 4h-38c-2.22 0-4-1.78-4-4z" style="opacity:.1"/>
 <rect transform="rotate(-90)" x="-47" y="1" width="46" height="46" rx="4" style="fill:url(#bg)"/>
 <path d="m1 39v4c0 2.22 1.78 4 4 4h38c2.22 0 4-1.78 4-4v-4c0 2.22-1.78 4-4 4h-38c-2.22 0-4-1.78-4-4z" style="opacity:.1"/>
 <path d="m19 10v3c0 0.554 0.446 1 1 1s1-0.446 1-1v-3zm4 0v3c0 0.554 0.446 1 1 1s1-0.446 1-1v-3zm4 0v3c0 0.554 0.446 1 1 1s1-0.446 1-1v-3zm-12 8.53v10.9c0 1.96 1.57 3.53 3.53 3.53h10.9c1.96 0 3.53-1.57 3.53-3.53v-10.9zm-5 0.469c-0.554 0-1 0.446-1 1s0.446 1 1 1h3c0.554 0 1-0.446 1-1s-0.446-1-1-1zm25 0c-0.554 0-1 0.446-1 1s0.446 1 1 1h3c0.554 0 1-0.446 1-1s-0.446-1-1-1zm-25 4c-0.554 0-1 0.446-1 1s0.446 1 1 1h3c0.554 0 1-0.446 1-1s-0.446-1-1-1zm25 0c-0.554 0-1 0.446-1 1s0.446 1 1 1h3c0.554 0 1-0.446 1-1s-0.446-1-1-1zm-25 4c-0.554 0-1 0.446-1 1s0.446 1 1 1h3c0.554 0 1-0.446 1-1s-0.446-1-1-1zm25 0c-0.554 0-1 0.446-1 1s0.446 1 1 1h3c0.554 0 1-0.446 1-1s-0.446-1-1-1zm-16 8v3c0 0.554 0.446 1 1 1s1-0.446 1-1v-3zm4 0v3c0 0.554 0.446 1 1 1s1-0.446 1-1v-3zm4 0v3c0 0.554 0.446 1 1 1s1-0.446 1-1v-3z" style="opacity:.1"/>
 <path d="m20 8c-0.554 0-1 0.446-1 1v3c0 0.554 0.446 1 1 1s1-0.446 1-1v-3c0-0.554-0.446-1-1-1zm4 0c-0.554 0-1 0.446-1 1v3c0 0.554 0.446 1 1 1s1-0.446 1-1v-3c0-0.554-0.446-1-1-1zm4 0c-0.554 0-1 0.446-1 1v3c0 0.554 0.446 1 1 1s1-0.446 1-1v-3c0-0.554-0.446-1-1-1zm-9.47 6c-1.96 0-3.53 1.57-3.53 3.53v10.9c0 1.96 1.57 3.53 3.53 3.53h10.9c1.96 0 3.53-1.57 3.53-3.53v-10.9c0-1.96-1.57-3.53-3.53-3.53zm-8.53 4c-0.554 0-1 0.446-1 1s0.446 1 1 1h3c0.554 0 1-0.446 1-1s-0.446-1-1-1zm25 0c-0.554 0-1 0.446-1 1s0.446 1 1 1h3c0.554 0 1-0.446 1-1s-0.446-1-1-1zm-25 4c-0.554 0-1 0.446-1 1s0.446 1 1 1h3c0.554 0 1-0.446 1-1s-0.446-1-1-1zm25 0c-0.554 0-1 0.446-1 1s0.446 1 1 1h3c0.554 0 1-0.446 1-1s-0.446-1-1-1zm-25 4c-0.554 0-1 0.446-1 1s0.446 1 1 1h3c0.554 0 1-0.446 1-1s-0.446-1-1-1zm25 0c-0.554 0-1 0.446-1 1s0.446 1 1 1h3c0.554 0 1-0.446 1-1s-0.446-1-1-1zm-15 7c-0.554 0-1 0.446-1 1v3c0 0.554 0.446 1 1 1s1-0.446 1-1v-3c0-0.554-0.446-1-1-1zm4 0c-0.554 0-1 0.446-1 1v3c0 0.554 0.446 1 1 1s1-0.446 1-1v-3c0-0.554-0.446-1-1-1zm4 0c-0.554 0-1 0.446-1 1v3c0 0.554 0.446 1 1 1s1-0.446 1-1v-3c0-0.554-0.446-1-1-1z" style="fill:#474747"/>
 <path d="m24 18c-0.552 0-1 0.448-1 1s0.448 1 1 1 1-0.448 1-1-0.448-1-1-1zm-1 3c-0.554 0-1 0.446-1 1s0.446 1 1 1v4h-1c-0.554 0-1 0.446-1 1s0.446 1 1 1h4c0.554 0 1-0.446 1-1s-0.446-1-1-1h-1v-4c0.554 0 1-0.446 1-1s-0.446-1-1-1z" style="opacity:.1"/>
 <path d="m24 17c-0.552 0-1 0.448-1 1s0.448 1 1 1 1-0.448 1-1-0.448-1-1-1zm-1 3c-0.554 0-1 0.446-1 1s0.446 1 1 1v4h-1c-0.554 0-1 0.446-1 1s0.446 1 1 1h4c0.554 0 1-0.446 1-1s-0.446-1-1-1h-1v-4c0.554 0 1-0.446 1-1s-0.446-1-1-1z" style="fill:#f5f5f5"/>
</svg>
