<svg version="1.1" viewBox="0 0 48 48" xmlns="http://www.w3.org/2000/svg" xmlns:xlink="http://www.w3.org/1999/xlink">
 <defs>
  <linearGradient id="bg" x2="0" y1="1" y2="47" gradientUnits="userSpaceOnUse">
   <stop style="stop-color:#98cbd4" offset="0"/>
   <stop style="stop-color:#8ac4ce" offset="1"/>
  </linearGradient>
  <linearGradient id="linear0-6" x1="6.788" x2="6.769" y1="10.14" y2="3.94" gradientTransform="matrix(3.5433 0 0 3.5433 -.001 -2.0006)" gradientUnits="userSpaceOnUse">
   <stop style="stop-color:#ece3e5" offset="0"/>
   <stop style="stop-color:#ebe5e5" offset="1"/>
  </linearGradient>
  <linearGradient id="linearGradient3645" x1="563.8" x2="577.78" gradientTransform="matrix(.21429 0 0 .21429 -94.616 -24.401)" gradientUnits="userSpaceOnUse" xlink:href="#linear1-3"/>
  <linearGradient id="linear1-3" x1="563.8" x2="577.78" gradientTransform="matrix(.21429 0 0 .21429 -94.615 -22.4)" gradientUnits="userSpaceOnUse">
   <stop style="stop-color:#c6d4e3" offset="0"/>
   <stop style="stop-color:#c6d4e3;stop-opacity:0" offset="1"/>
  </linearGradient>
  <linearGradient id="linear2-6" x1="563.8" x2="577.78" gradientTransform="matrix(.21429 0 0 .21429 -104.62 -24.4)" gradientUnits="userSpaceOnUse" xlink:href="#linear1-3"/>
  <linearGradient id="linear3-2" x1="10.27" x2="7.464" y1="4.579" y2="7.04" gradientTransform="matrix(3.5433 0 0 3.4505 -.401 -1.7567)" gradientUnits="userSpaceOnUse">
   <stop style="stop-color:#a3a3a3" offset="0"/>
   <stop style="stop-color:#b9b2b8" offset="1"/>
  </linearGradient>
 </defs>
 <path d="m1 43v0.25c0 2.216 1.784 4 4 4h38c2.216 0 4-1.784 4-4v-0.25c0 2.216-1.784 4-4 4h-38c-2.216 0-4-1.784-4-4zm0 0.5v0.5c0 2.216 1.784 4 4 4h38c2.216 0 4-1.784 4-4v-0.5c0 2.216-1.784 4-4 4h-38c-2.216 0-4-1.784-4-4z" style="opacity:.02"/>
 <path d="m1 43.25v0.25c0 2.216 1.784 4 4 4h38c2.216 0 4-1.784 4-4v-0.25c0 2.216-1.784 4-4 4h-38c-2.216 0-4-1.784-4-4z" style="opacity:.05"/>
 <path d="m1 43v0.25c0 2.216 1.784 4 4 4h38c2.216 0 4-1.784 4-4v-0.25c0 2.216-1.784 4-4 4h-38c-2.216 0-4-1.784-4-4z" style="opacity:.1"/>
 <rect x="1" y="1" width="46" height="46" rx="4" style="fill:url(#bg)"/>
 <path d="m1 39v4c0 2.216 1.784 4 4 4h38c2.216 0 4-1.784 4-4v-4c0 2.216-1.784 4-4 4h-38c-2.216 0-4-1.784-4-4z" style="opacity:.1"/>
 <g transform="translate(-.001 -1.0006)" style="opacity:.1">
  <path d="m15.06 27.26c-2.371-1.965-4.051-6.996-4.059-13.191 5.703-0.461 11.371 2.402 11.348 3.215h0.582l0.469-1.977v1.754l2.441-3.063-1.566 3.137 0.258 0.223 0.691-0.855 0.18 0.973c2.926-2.887 6.793-3.238 11.605-3.398-0.273 4.48-0.066 9.598-3.523 12.996 3.105 5.43-1.242 8.121-4.461 8.719-3.09 0.313-6.176 0.258-9.266-0.07-4.875-0.523-7.156-5.379-4.695-8.465m0 4e-3"/>
 </g>
 <path d="m15.059 25.259c-2.371-1.965-4.051-6.996-4.059-13.191 5.703-0.461 11.371 2.402 11.348 3.215h0.582l0.469-1.977v1.754l2.441-3.063-1.566 3.137 0.258 0.223 0.691-0.855 0.18 0.973c2.926-2.887 6.793-3.238 11.605-3.398-0.273 4.48-0.066 9.598-3.523 12.996 3.105 5.43-1.242 8.121-4.461 8.719-3.09 0.313-6.176 0.258-9.266-0.07-4.875-0.523-7.156-5.379-4.695-8.465m0 4e-3" style="fill:url(#linear0-6)"/>
 <path d="m21.999 20.999c0 1.656-1.344 3-3 3s-3-1.344-3-3 1.344-3 3-3 3 1.344 3 3" style="fill:#fff3f3"/>
 <path d="m20.854 21.562c0 0.945-0.77 1.715-1.715 1.715-0.949 0-1.715-0.77-1.715-1.715 0-0.949 0.766-1.715 1.715-1.715 0.945 0 1.715 0.766 1.715 1.715" style="fill-opacity:.867;fill:#353535"/>
 <path d="m18.417 21.569c-0.422 0-0.773 0.305-0.84 0.699 0.199 0.441 0.586 0.789 1.055 0.934 0.367-0.094 0.637-0.418 0.637-0.801 0-0.461-0.379-0.832-0.852-0.832" style="fill:#7c7f78"/>
 <path d="m31.999 20.999c0 1.656-1.344 3-3 3s-3-1.344-3-3 1.344-3 3-3 3 1.344 3 3" style="fill:#fff3f3"/>
 <path d="m28.999 17.999c-1.242 0-2.309 0.75-2.766 1.828 0 0 4e-3 4e-3 0 4e-3 -0.117 1.277-4e-3 2.102 1.215 2.578l0.125-0.16c-0.094-0.211-0.145-0.441-0.145-0.691 0-0.945 0.766-1.711 1.711-1.711 0.02 0 0.039-4e-3 0.055 0-0.184-0.617-0.191-1.227-0.066-1.844-0.043 0-0.086-8e-3 -0.129-8e-3m0 4e-3" style="fill:url(#linearGradient3645)"/>
 <path d="m30.854 21.562c0 0.945-0.77 1.715-1.715 1.715-0.949 0-1.715-0.77-1.715-1.715 0-0.949 0.766-1.715 1.715-1.715 0.945 0 1.715 0.766 1.715 1.715" style="fill-opacity:.867;fill:#353535"/>
 <path d="m28.417 21.569c-0.422 0-0.773 0.305-0.84 0.699 0.199 0.441 0.586 0.789 1.055 0.934 0.367-0.094 0.637-0.418 0.637-0.801 0-0.461-0.379-0.832-0.852-0.832" style="fill:#7c7f78"/>
 <path d="m18.999 17.999c-1.242 0-2.309 0.75-2.766 1.828v4e-3c-0.117 1.277-4e-3 2.102 1.215 2.578l0.125-0.16c-0.094-0.211-0.148-0.441-0.148-0.691 0-0.945 0.77-1.711 1.715-1.711 0.02 0 0.035-4e-3 0.055 0-0.184-0.617-0.191-1.227-0.066-1.844-0.043 0-0.086-8e-3 -0.129-8e-3m0 4e-3" style="fill:url(#linear2-6)"/>
 <path d="m12.954 14.005c-0.28804 0.01023-0.58302 0.03367-0.88477 0.07031-0.121 5.0287 0.96069 7.2732 2.9297 8.9238 0-4.6115 0.17141-6.7605 3.4414-7.7148-1.764-0.80181-3.4701-1.3509-5.4863-1.2793z" style="fill:#aaa9aa"/>
 <path d="m35.114 14.005c-2.0163-0.07163-3.7223 0.47749-5.4863 1.2793 3.27 0.95433 3.3711 2.9595 3.3711 7.7148 1.969-1.6506 3.119-3.8951 2.998-8.9238-0.30175-0.03664-0.59477-0.06008-0.88281-0.07031z" style="fill:url(#linear3-2)"/>
 <path d="m32.999 29.899c0 2.1519-3.807 3.9-8.5 3.9s-8.5-1.7481-8.5-3.9c0-2.1558 3.807-3.9 8.5-3.9s8.5 1.7442 8.5 3.9" style="fill:#b9b2b8"/>
 <path d="m23.029 28.44-0.023 1.746c0.094 1.18 1.969 0.984 1.996 0l-0.023-1.785-0.922-0.527m-1.027 0.566" style="fill:#c16f6f"/>
 <path d="m19.296 27.894c0.246 2.113 0.094 2.176 1.707 0.746m-1.707-0.746" style="fill:#f9f9f9"/>
 <path d="m28.784 27.999c-0.246 2.113-0.09 2.176-1.707 0.75m1.707-0.75" style="fill:#f9f9f9"/>
 <path d="m23.581 26.769v1.055c-1.863 0.684-2.664 0.531-4.109-0.543-0.316-0.148-0.836-0.07-0.414 0.66 1.953 1.359 3.543 1.195 5.05 0.027 1.422 1.23 3.445 1.266 4.512 0.18 0.516-0.445 0.422-0.684 0-0.914-1.191 1.316-2.836 1.078-3.984 0.594l-0.109-1.145m-0.945 0.086" style="fill:#4d4c4c"/>
 <path d="m25.019 25.999c0 0.551-0.445 1-1 1-0.551 0-1-0.449-1-1s0.449-1 1-1c0.555 0 1 0.449 1 1" style="fill:#4d4c4c"/>
</svg>
