<svg version="1.1" viewBox="0 0 48 48" xmlns="http://www.w3.org/2000/svg" xmlns:xlink="http://www.w3.org/1999/xlink">
 <defs>
  <linearGradient id="bg" x2="0" y1="1" y2="47" gradientUnits="userSpaceOnUse">
   <stop style="stop-color:#b5b5b5" offset="0"/>
   <stop style="stop-color:#aaa" offset="1"/>
  </linearGradient>
 </defs>
 <path d="m1 43v0.25c0 2.22 1.78 4 4 4h38c2.22 0 4-1.78 4-4v-0.25c0 2.22-1.78 4-4 4h-38c-2.22 0-4-1.78-4-4zm0 0.5v0.5c0 2.22 1.78 4 4 4h38c2.22 0 4-1.78 4-4v-0.5c0 2.22-1.78 4-4 4h-38c-2.22 0-4-1.78-4-4z" style="opacity:.02"/>
 <path d="m1 43.2v0.25c0 2.22 1.78 4 4 4h38c2.22 0 4-1.78 4-4v-0.25c0 2.22-1.78 4-4 4h-38c-2.22 0-4-1.78-4-4z" style="opacity:.05"/>
 <path d="m1 43v0.25c0 2.22 1.78 4 4 4h38c2.22 0 4-1.78 4-4v-0.25c0 2.22-1.78 4-4 4h-38c-2.22 0-4-1.78-4-4z" style="opacity:.1"/>
 <rect x="1" y="1" width="46" height="46" rx="4" style="fill:url(#bg)"/>
 <path d="m1 39v4c0 2.22 1.78 4 4 4h38c2.22 0 4-1.78 4-4v-4c0 2.22-1.78 4-4 4h-38c-2.22 0-4-1.78-4-4z" style="opacity:.1"/>
 <path d="m24 9a15 15 0 0 0-15 15 15 15 0 0 0 15 15 15 15 0 0 0 15-15 15 15 0 0 0-15-15zm0 3a12 12 0 0 1 12 12 12 12 0 0 1-12 12 12 12 0 0 1-12-12 12 12 0 0 1 12-12zm0 2a10 10 0 0 0-10 10 10 10 0 0 0 10 10 10 10 0 0 0 10-10 10 10 0 0 0-10-10z" style="opacity:.1"/>
 <path d="m34 23a10 10 0 0 1-10 10 10 10 0 0 1-10-10 10 10 0 0 1 10-10 10 10 0 0 1 10 10z" style="fill:#f65850"/>
 <path id="b" d="m26 8.13-0.957 0.869 0.566 2.11c1.04 0.136 2.06 0.408 3.03 0.809l1.41-0.914-0.26-1.86c-1.21-0.501-2.48-0.841-3.78-1.01zm7.17 2.97-1.13 0.898-0.695 1.48c0.832 0.638 1.58 1.38 2.21 2.21l1.48-0.695 0.898-1.13c-0.798-1.04-1.73-1.97-2.77-2.77zm4.73 6.16-1.86-0.26-0.914 1.41c0.401 0.969 0.672 1.99 0.809 3.03l2.11 0.566 0.869-0.957c-0.17-1.3-0.511-2.57-1.01-3.78z" style="fill:#5c5c5c"/>
 <path id="a" d="m24 8-1 2 1 1c0.524 9.27e-4 1.05 0.0362 1.57 0.105l0.391-2.97c-0.649-0.0863-1.3-0.13-1.96-0.131zm5.74 1.14-1.15 2.77c0.969 0.401 1.88 0.928 2.71 1.57l1.83-2.38c-1.04-0.798-2.18-1.46-3.39-1.96zm6.16 4.73-2.38 1.83c0.638 0.832 1.17 1.74 1.57 2.71l2.77-1.15c-0.502-1.21-1.16-2.35-1.96-3.39zm2.97 7.17-2.97 0.391c0.0693 0.519 0.105 1.04 0.105 1.57l2 1 1-1c-8.77e-4 -0.654-0.0446-1.31-0.131-1.96z" style="fill:#f6e451"/>
 <use transform="matrix(-1,0,0,1,48,0)" xlink:href="#b"/>
 <use transform="rotate(-90,24,23)" xlink:href="#a"/>
 <use transform="rotate(180,24,23)" xlink:href="#b"/>
 <use transform="matrix(0,1,1,0,1,-1)" xlink:href="#a"/>
 <use transform="matrix(1,0,0,-1,0,46)" xlink:href="#b"/>
 <use transform="rotate(90,24,23)" xlink:href="#a"/>
 <path d="m29.5 18-7.67 5h-3.29c-0.445 1.74e-4 -0.668 0.539-0.354 0.854l1.4 1.4-1.4 1.4c-0.195 0.195-0.195 0.512 0 0.707l0.195 0.672c-0.353 0.118-0.458 0.565-0.195 0.828l1 1c0.263 0.263 0.711 0.157 0.828-0.195l0.119-0.357 0.553 0.553c0.195 0.195 0.512 0.195 0.707 0l1.4-1.4 1.4 1.4c0.315 0.315 0.853 0.0918 0.854-0.354v-3.29l3.35-3.35c0.0507-0.0503 0.09-0.111 0.115-0.178l1.5-4c0.13-0.343-0.141-0.704-0.506-0.676z" style="opacity:.1"/>
 <path d="m29.5 17c-0.0475 0.0038-0.0942 0.0143-0.139 0.0312l-4 1.5c-0.0668 0.0253-0.127 0.0646-0.178 0.115l-3.35 3.35h-3.29c-0.445 1.74e-4 -0.668 0.539-0.354 0.854l1.4 1.4-1.4 1.4c-0.195 0.195-0.195 0.512 0 0.707l0.553 0.553-0.357 0.119c-0.353 0.118-0.458 0.565-0.195 0.828l1 1c0.263 0.263 0.711 0.157 0.828-0.195l0.119-0.357 0.553 0.553c0.195 0.195 0.512 0.195 0.707 0l1.4-1.4 1.4 1.4c0.315 0.315 0.853 0.0918 0.854-0.354v-3.29l3.35-3.35c0.0507-0.0503 0.09-0.111 0.115-0.178l1.5-4c0.13-0.343-0.141-0.704-0.506-0.676z" style="fill:#fafafa"/>
</svg>
