<svg version="1.1" viewBox="0 0 48 48" xmlns="http://www.w3.org/2000/svg">
 <defs>
  <linearGradient id="bg" x2="0" y1="1" y2="47" gradientUnits="userSpaceOnUse">
   <stop style="stop-color:#4a76a2" offset="0"/>
   <stop style="stop-color:#446c94" offset="1"/>
  </linearGradient>
 </defs>
 <path d="m1 43v0.25c0 2.216 1.784 4 4 4h38c2.216 0 4-1.784 4-4v-0.25c0 2.216-1.784 4-4 4h-38c-2.216 0-4-1.784-4-4zm0 0.5v0.5c0 2.216 1.784 4 4 4h38c2.216 0 4-1.784 4-4v-0.5c0 2.216-1.784 4-4 4h-38c-2.216 0-4-1.784-4-4z" style="opacity:.02"/>
 <path d="m1 43.25v0.25c0 2.216 1.784 4 4 4h38c2.216 0 4-1.784 4-4v-0.25c0 2.216-1.784 4-4 4h-38c-2.216 0-4-1.784-4-4z" style="opacity:.05"/>
 <path d="m1 43v0.25c0 2.216 1.784 4 4 4h38c2.216 0 4-1.784 4-4v-0.25c0 2.216-1.784 4-4 4h-38c-2.216 0-4-1.784-4-4z" style="opacity:.1"/>
 <rect x="1" y="1" width="46" height="46" rx="4" style="fill:url(#bg)"/>
 <path d="m1 39v4c0 2.216 1.784 4 4 4h38c2.216 0 4-1.784 4-4v-4c0 2.216-1.784 4-4 4h-38c-2.216 0-4-1.784-4-4z" style="opacity:.1"/>
 <path d="m33.996 23.997c0 5.52-4.477 9.996-9.996 9.996-5.523 0-10-4.477-10-9.996 0-5.523 4.477-10 10-10 5.52 0 9.996 4.477 9.996 10" style="fill-opacity:.392;opacity:.1"/>
 <path d="m17.91 16.997c-0.234 0-0.467 0.09-0.645 0.27-0.359 0.355-0.359 0.934 0 1.293l4.834 4.834c-0.061 0.192-0.104 0.392-0.104 0.604 0 0.501 0.192 0.955 0.498 1.307l-5.943 10.943 4e-3 4e-3c-0.129 0.239-0.051 0.543 0.172 0.68 0.227 0.14 0.516 0.058 0.645-0.18l5.914-10.891c0.221 0.085 0.46 0.137 0.711 0.137 0.74 0 1.379-0.407 1.725-1h11.34c0.515 0 0.941-0.418 0.941-0.934v-0.129c0-0.516-0.425-0.934-0.941-0.934h-11.342c-0.346-0.596-0.984-1-1.723-1-0.212 0-0.412 0.042-0.604 0.104l-4.834-4.834c-0.18-0.18-0.414-0.27-0.648-0.27z" style="opacity:.1"/>
 <path d="m33.996 22.997c0 5.52-4.477 9.996-9.996 9.996-5.523 0-10-4.477-10-9.996 0-5.523 4.477-10 10-10 5.52 0 9.996 4.477 9.996 10" style="fill-opacity:.133;fill:#f9f9f9"/>
 <path d="m22.434 22.727-5.168-5.168c-0.359-0.359-0.359-0.938 0-1.293 0.355-0.359 0.934-0.359 1.293 0l5.168 5.168c0.359 0.359 0.359 0.938 0 1.293-0.355 0.359-0.934 0.359-1.293 0" style="fill:#f9f9f9"/>
 <path d="m23.93 21.997h13.13c0.516 0 0.941 0.418 0.941 0.934v0.129c0 0.516-0.426 0.934-0.941 0.934h-13.13c-0.516 0-0.934-0.418-0.934-0.934v-0.129c0-0.516 0.418-0.934 0.934-0.934" style="fill:#f9f9f9"/>
 <path d="m16.551 35.247 7.06-13c0.133-0.238 0.418-0.32 0.648-0.18 0.227 0.137 0.301 0.441 0.172 0.684l-7.06 13c-0.129 0.238-0.418 0.32-0.645 0.18-0.223-0.137-0.301-0.441-0.172-0.68" style="fill:#e57878"/>
 <path d="m25.996 22.997c0 1.102-0.895 2-2 2-1.105 0-2-0.898-2-2 0-1.105 0.895-2 2-2 1.105 0 2 0.895 2 2" style="fill:#dedede"/>
</svg>
