<svg version="1.1" viewBox="0 0 48 48" xmlns="http://www.w3.org/2000/svg">
 <defs>
  <linearGradient id="bg" x2="0" y1="1" y2="47" gradientUnits="userSpaceOnUse">
   <stop style="stop-color:#6aaebe" offset="0"/>
   <stop style="stop-color:#5ba6b8" offset="1"/>
  </linearGradient>
 </defs>
 <path d="m1 43v0.25c0 2.216 1.784 4 4 4h38c2.216 0 4-1.784 4-4v-0.25c0 2.216-1.784 4-4 4h-38c-2.216 0-4-1.784-4-4zm0 0.5v0.5c0 2.216 1.784 4 4 4h38c2.216 0 4-1.784 4-4v-0.5c0 2.216-1.784 4-4 4h-38c-2.216 0-4-1.784-4-4z" style="opacity:.02"/>
 <path d="m1 43.25v0.25c0 2.216 1.784 4 4 4h38c2.216 0 4-1.784 4-4v-0.25c0 2.216-1.784 4-4 4h-38c-2.216 0-4-1.784-4-4z" style="opacity:.05"/>
 <path d="m1 43v0.25c0 2.216 1.784 4 4 4h38c2.216 0 4-1.784 4-4v-0.25c0 2.216-1.784 4-4 4h-38c-2.216 0-4-1.784-4-4z" style="opacity:.1"/>
 <rect x="1" y="1" width="46" height="46" rx="4" style="fill:url(#bg)"/>
 <path d="m1 39v4c0 2.216 1.784 4 4 4h38c2.216 0 4-1.784 4-4v-4c0 2.216-1.784 4-4 4h-38c-2.216 0-4-1.784-4-4z" style="opacity:.1"/>
 <rect x="12" y="12" width="24" height="24" ry="2" style="opacity:.1"/>
 <path d="m14 11c-1.108 0-2 0.892-2 2v4l7 1-1-7z" style="fill:#d5dcdc"/>
 <path d="m18 11h6l1 7-7-1z" style="fill:#bac7ca"/>
 <path d="m24 11h6l1 7-7-1z" style="fill:#eef1f1"/>
 <path d="m30 11v6l3 1 3-1v-4c0-1.108-0.892-2-2-2z" style="fill:#919ea1"/>
 <path d="m30 17h6v6l-7 1z" style="fill:#acbbbe"/>
 <path d="m24 17h6v6l-7 1z" style="fill:#6c7b7e"/>
 <path d="m18 17h6v6l-7 1z" style="fill:#d9e1e3"/>
 <path d="m12 17h6v6l-3 1-3-1z" style="fill:#919ea1"/>
 <path d="m12 23h6l1 7-7-1z" style="fill:#ced7d9"/>
 <path d="m18 23h6l1 7-7-1z" style="fill:#abb7ba"/>
 <path d="m24 23h6l1 7-7-1z" style="fill:#b1c0c3"/>
 <path d="m30 23h6v6l-3 1-3-1z" style="fill:#c9d6d9"/>
 <path d="m30 29-1 3 1 3h4c1.108 0 2-0.892 2-2v-4z" style="fill:#f4f5f5"/>
 <path d="m24 29h6v6h-6l-1-3z" style="fill:#859598"/>
 <path d="m18 29h6v6h-6l-1-3z" style="fill:#eef1f1"/>
 <path d="m12 29v4c0 1.108 0.892 2 2 2h4v-6z" style="fill:#bac7ca"/>
</svg>
