<svg viewBox="0 0 48 48">
  <defs>
    <linearGradient id="a" x1="1" x2="47" gradientUnits="userSpaceOnUse" gradientTransform="translate(-48 .002)">
      <stop stop-color="#3d3d3d"/>
      <stop offset="1" stop-color="#474747"/>
    </linearGradient>
    <clipPath id="b"/>
    <clipPath id="c"/>
  </defs>
  <path d="M1 43v.25c0 2.216 1.784 4 4 4h38c2.216 0 4-1.784 4-4V43c0 2.216-1.784 4-4 4H5c-2.216 0-4-1.784-4-4zm0 .5v.5c0 2.216 1.784 4 4 4h38c2.216 0 4-1.784 4-4v-.5c0 2.216-1.784 4-4 4H5c-2.216 0-4-1.784-4-4z" opacity=".02"/>
  <path d="M1 43.25v.25c0 2.216 1.784 4 4 4h38c2.216 0 4-1.784 4-4v-.25c0 2.216-1.784 4-4 4H5c-2.216 0-4-1.784-4-4z" opacity=".05"/>
  <path d="M1 43v.25c0 2.216 1.784 4 4 4h38c2.216 0 4-1.784 4-4V43c0 2.216-1.784 4-4 4H5c-2.216 0-4-1.784-4-4z" opacity=".1"/>
  <rect width="46" height="46" x="-47" y="1" rx="4" transform="rotate(-90)" fill="url(#a)"/>
  <g opacity=".1" clip-path="url(#b)">
    <path d="M13.02 12.5h22v16h-22m0-16"/>
    <path d="M12.805 12a.938.938 0 0 0-.809.902v15.1c0 .469.531 1 1 1h9v5.977h4v-5.977h9c.473 0 1-.531 1-1v-15.1c0-.473-.43-.902-.898-.902m-20.1 2h18c.48 0 .996.586.996 1v10.996c0 .469-.559 1-.996 1h-18c-.52 0-1-.477-1-1V15c0-.406.523-1 1-1m0 19v3h18v-3m-18 0"/>
    <path d="M22 16h4v5h2l-4 5-4-5h2m0-5"/>
  </g>
  <g>
    <g clip-path="url(#c)">
      <path d="M13.02 11.5h22v16h-22m0-16" fill="#5386c8"/>
      <path d="M12.805 11a.938.938 0 0 0-.809.902v15.1c0 .469.531 1 1 1h9v5.977h4v-5.977h9c.473 0 1-.531 1-1v-15.1c0-.473-.43-.902-.898-.902m-20.1 2h18c.48 0 .996.586.996 1v10.996c0 .469-.559 1-.996 1h-18c-.52 0-1-.477-1-1V14c0-.406.523-1 1-1m0 19v3h18v-3m-18 0" fill="#dedede"/>
      <path d="M22 15h4v5h2l-4 5-4-5h2m0-5" fill="#f9f9f9"/>
    </g>
  </g>
  <g>
    <path d="M1 38.998v4c0 2.216 1.784 4 4 4h38c2.216 0 4-1.784 4-4v-4c0 2.216-1.784 4-4 4H5c-2.216 0-4-1.784-4-4z" opacity=".1"/>
  </g>
</svg>
