<svg id="svg15770" version="1.1" viewBox="0 0 48 48" xmlns="http://www.w3.org/2000/svg">
 <defs id="defs15726">
  <linearGradient id="linearGradient3764" x1="1" x2="47" gradientTransform="translate(-48 .0022147)" gradientUnits="userSpaceOnUse">
   <stop id="stop15711" stop-color="#6e6e6e" offset="0"/>
   <stop id="stop15713" stop-color="#787878" offset="1"/>
  </linearGradient>
  <clipPath id="clipPath-313756473">
   <g id="g15718" transform="translate(0 -1004.4)">
    <rect id="rect15716" x="1" y="1005.4" width="46" height="46" rx="4" fill="#1890d0"/>
   </g>
  </clipPath>
  <clipPath id="clipPath-327804296">
   <g id="g15723" transform="translate(0 -1004.4)">
    <rect id="rect15721" x="1" y="1005.4" width="46" height="46" rx="4" fill="#1890d0"/>
   </g>
  </clipPath>
 </defs>
 <g id="g15734">
  <path id="path15728" d="m1 43v0.25c0 2.216 1.784 4 4 4h38c2.216 0 4-1.784 4-4v-0.25c0 2.216-1.784 4-4 4h-38c-2.216 0-4-1.784-4-4zm0 0.5v0.5c0 2.216 1.784 4 4 4h38c2.216 0 4-1.784 4-4v-0.5c0 2.216-1.784 4-4 4h-38c-2.216 0-4-1.784-4-4z" opacity=".02"/>
  <path id="path15730" d="m1 43.25v0.25c0 2.216 1.784 4 4 4h38c2.216 0 4-1.784 4-4v-0.25c0 2.216-1.784 4-4 4h-38c-2.216 0-4-1.784-4-4z" opacity=".05"/>
  <path id="path15732" d="m1 43v0.25c0 2.216 1.784 4 4 4h38c2.216 0 4-1.784 4-4v-0.25c0 2.216-1.784 4-4 4h-38c-2.216 0-4-1.784-4-4z" opacity=".1"/>
 </g>
 <g id="g15738">
  <rect id="rect15736" transform="rotate(-90)" x="-47" y="1" width="46" height="46" rx="4" fill="url(#linearGradient3764)"/>
 </g>
 <g id="g15750">
  <g id="g15748" clip-path="url(#clipPath-313756473)">
   <g id="g15746" opacity=".1">
    <g id="g15744">
     <path id="path15740" d="m24 12c-6.629 0-12 5.188-12 11.586 0 3.859 1.969 7.258 4.969 9.363-0.109 0.441-0.246 0.91-0.469 1.395-0.75 1.656-1.496 1.656-1.496 1.656s2.25 0 3.746-0.828c0.316-0.176 0.598-0.461 0.844-0.801 1.367 0.52 2.852 0.801 4.41 0.801 6.625 0 12-5.188 12-11.586 0-6.402-5.371-11.59-12-11.59"/>
     <path id="path15742" d="m29 27.07h-2.828l-0.789 3.934h-1.387l0.805-3.934h-2.883l-0.785 3.934h-1.391l0.816-3.934h-1.555v-1.367h1.809l0.695-3.363h-2.504v-1.367h2.77l0.805-3.973h1.363l-0.785 3.973h2.871l0.805-3.973h1.367l-0.789 3.973h1.594v1.367h-1.875l-0.668 3.363h2.543m-3.242-3.359h-2.895l-0.664 3.363h2.863"/>
    </g>
   </g>
  </g>
 </g>
 <g id="g15762">
  <g id="g15760" clip-path="url(#clipPath-327804296)">
   <g id="g15758" transform="translate(0,-1)">
    <g id="g15756">
     <path id="path15752" d="m24 12c-6.629 0-12 5.188-12 11.586 0 3.859 1.969 7.258 4.969 9.363-0.109 0.441-0.246 0.91-0.469 1.395-0.75 1.656-1.496 1.656-1.496 1.656s2.25 0 3.746-0.828c0.316-0.176 0.598-0.461 0.844-0.801 1.367 0.52 2.852 0.801 4.41 0.801 6.625 0 12-5.188 12-11.586 0-6.402-5.371-11.59-12-11.59" fill="#f9f9f9"/>
     <path id="path15754" d="m29 27.07h-2.828l-0.789 3.934h-1.387l0.805-3.934h-2.883l-0.785 3.934h-1.391l0.816-3.934h-1.555v-1.367h1.809l0.695-3.363h-2.504v-1.367h2.77l0.805-3.973h1.363l-0.785 3.973h2.871l0.805-3.973h1.367l-0.789 3.973h1.594v1.367h-1.875l-0.668 3.363h2.543m-3.242-3.359h-2.895l-0.664 3.363h2.863" fill="#868686"/>
    </g>
   </g>
  </g>
 </g>
 <g id="g15768">
  <g id="g15766" transform="translate(0 -1004.4)">
   <path id="path15764" d="m1 1043.4v4c0 2.216 1.784 4 4 4h38c2.216 0 4-1.784 4-4v-4c0 2.216-1.784 4-4 4h-38c-2.216 0-4-1.784-4-4z" opacity=".1"/>
  </g>
 </g>
</svg>
