<svg viewBox="0 0 48 48">
  <defs>
    <linearGradient id="a" x1="1" x2="47" gradientUnits="userSpaceOnUse" gradientTransform="translate(-48 .002)">
      <stop stop-color="#ca251c"/>
      <stop offset="1" stop-color="#db281f"/>
    </linearGradient>
    <clipPath id="b"/>
    <clipPath id="c"/>
  </defs>
  <path d="M1 43v.25c0 2.216 1.784 4 4 4h38c2.216 0 4-1.784 4-4V43c0 2.216-1.784 4-4 4H5c-2.216 0-4-1.784-4-4zm0 .5v.5c0 2.216 1.784 4 4 4h38c2.216 0 4-1.784 4-4v-.5c0 2.216-1.784 4-4 4H5c-2.216 0-4-1.784-4-4z" opacity=".02"/>
  <path d="M1 43.25v.25c0 2.216 1.784 4 4 4h38c2.216 0 4-1.784 4-4v-.25c0 2.216-1.784 4-4 4H5c-2.216 0-4-1.784-4-4z" opacity=".05"/>
  <path d="M1 43v.25c0 2.216 1.784 4 4 4h38c2.216 0 4-1.784 4-4V43c0 2.216-1.784 4-4 4H5c-2.216 0-4-1.784-4-4z" opacity=".1"/>
  <rect width="46" height="46" x="-47" y="1" rx="4" transform="rotate(-90)" fill="url(#a)"/>
  <g opacity=".1" clip-path="url(#b)">
    <path d="M23.805 23.574c0-.352-.063-.734-.27-1.027-.406-.59-1.281-.773-1.891-.406-.305.188-.48.516-.574.852-.191.668-.105 1.43.031 2.098.043.219.086.434.145.641.023.074.031.191.082.25.086.113.297.141.426.121.387-.066.293-.703.277-.977-.031-.629-.219-1.246-.035-1.879.074-.266.227-.566.496-.684.242-.105.488.023.582.262.156.387.121.828.219 1.23.031.133.066.27.129.398.016.035.043.109.094.109.125-.012.305-.223.398-.301.301-.25.613-.52.965-.707.164-.086.434-.227.602-.078a.55.55 0 0 1 .109.129c.199.313 0 .555-.125.844-.168.383-.34.758-.578 1.098-.207.293-.492.551-.656.871-.105.207-.168.43-.121.664.035.188.18.301.371.258.145-.035.242-.156.324-.273.145-.199.281-.41.426-.613.277-.391.609-.762.848-1.184a3.443 3.443 0 0 0 .418-1.664c0-.473-.172-1.199-.727-1.297a.979.979 0 0 0-.324.008 1.427 1.427 0 0 0-.375.125 2.606 2.606 0 0 0-.816.633c-.145.16-.273.363-.449.496"/>
    <path d="M23.285 11.848c-.434.059-.875.055-1.313.121-.84.129-1.641.391-2.426.703-.285.117-.57.242-.848.379-.102.051-.258.09-.34.168-.043.043-.039.141-.047.195-.012.16-.031.313-.047.473-.066.602-.105 1.23-.023 1.832.031.195.102.547.332.586.371.059.656-.395.836-.648.434-.582.906-1.129 1.605-1.391.813-.313 1.754-.383 2.617-.441 2.43-.168 5.078.277 6.852 2.063.27.254.488.527.695.82.805 1.16 1.227 2.477 1.43 3.859.105.652.16 1.309.023 1.957-.273 1.121-.941 2.098-1.707 2.93a13.499 13.499 0 0 1-1.75 1.551c-.355.262-.734.484-1.066.77-.383.328-.688.742-.934 1.18-.648 1.191-.816 2.605-.621 3.918.039.273.074.543.145.816.023.078.023.215.066.281.102.121.352.188.508.191.156.012.273-.105.313-.25.063-.23.02-.496-.023-.73-.074-.488-.148-.98-.125-1.477a3.75 3.75 0 0 1 1.027-2.426c.641-.672 1.512-1.059 2.234-1.621 1.48-1.137 2.805-2.672 3.313-4.492.18-.652.23-1.344.148-2.02-.102-.852-.406-1.699-.699-2.5-.898-2.438-2.43-4.754-4.855-5.867-.965-.441-1.973-.645-3.02-.793a18.61 18.61 0 0 0-1.48-.129c-.27-.012-.574-.043-.844-.008"/>
    <path d="M19.484 27.629c-.473.07-.609.449-.523.879.113.547.547.965.969 1.293a6.043 6.043 0 0 0 3.887 1.238c.539-.02 1.125-.113 1.617-.34.266-.121.543-.563.18-.75a.505.505 0 0 0-.168-.051c-.156-.027-.332.043-.48.086-.266.074-.527.152-.801.195a3.247 3.247 0 0 1-2.352-.535c-.539-.387-.98-.898-1.391-1.414-.254-.316-.484-.664-.938-.602M18.871 30.31c-.121.016-.262.008-.363.086-.215.16.023.477.137.617.328.418.758.766 1.191 1.07a7.829 7.829 0 0 0 4.03 1.441c.418.031.848 0 1.266-.07.152-.023.34-.035.484-.102.398-.184.281-.938-.074-1.105-.152-.074-.402.023-.566.043a6.726 6.726 0 0 1-1.16.051c-1.016-.023-2.094-.336-2.98-.828a5.61 5.61 0 0 1-.965-.695c-.18-.16-.367-.422-.602-.5-.109-.039-.285-.02-.398-.008M19.11 32.566a.64.64 0 0 0-.41.234c-.078.09-.152.168-.199.281-.246.605.41 1.18.867 1.469.5.32 1.055.559 1.613.758 1.266.449 2.754.738 4.066.336a2.53 2.53 0 0 0 1.059-.633c.16-.168.273-.422-.02-.527-.176-.063-.387.098-.543.16a4.502 4.502 0 0 1-1.16.313c-.527.063-1-.051-1.508-.18a11.536 11.536 0 0 1-1.293-.371 4.583 4.583 0 0 1-1.027-.512c-.094-.07-.203-.125-.281-.215-.254-.281-.441-.609-.707-.879-.117-.117-.281-.254-.461-.234"/>
  </g>
  <g>
    <g fill="#fc0" clip-path="url(#c)">
      <path d="M23.805 22.574c0-.352-.063-.734-.27-1.027-.406-.59-1.281-.773-1.891-.406-.305.188-.48.516-.574.852-.191.668-.105 1.43.031 2.098.043.219.086.434.145.641.023.074.031.191.082.25.086.113.297.141.426.121.387-.066.293-.703.277-.977-.031-.629-.219-1.246-.035-1.879.074-.266.227-.566.496-.684.242-.105.488.023.582.262.156.387.121.828.219 1.23.031.133.066.27.129.398.016.035.043.109.094.109.125-.012.305-.223.398-.301.301-.25.613-.52.965-.707.164-.086.434-.227.602-.078a.55.55 0 0 1 .109.129c.199.313 0 .555-.125.844-.168.383-.34.758-.578 1.098-.207.293-.492.551-.656.871-.105.207-.168.43-.121.664.035.188.18.301.371.258.145-.035.242-.156.324-.273.145-.199.281-.41.426-.613.277-.391.609-.762.848-1.184a3.443 3.443 0 0 0 .418-1.664c0-.473-.172-1.199-.727-1.297a.979.979 0 0 0-.324.008 1.427 1.427 0 0 0-.375.125 2.606 2.606 0 0 0-.816.633c-.145.16-.273.363-.449.496"/>
      <path d="M23.285 10.848c-.434.059-.875.055-1.313.121-.84.129-1.641.391-2.426.703-.285.117-.57.242-.848.379-.102.051-.258.09-.34.168-.043.043-.039.141-.047.195-.012.16-.031.313-.047.473-.066.602-.105 1.23-.023 1.832.031.195.102.547.332.586.371.059.656-.395.836-.648.434-.582.906-1.129 1.605-1.391.813-.313 1.754-.383 2.617-.441 2.43-.168 5.078.277 6.852 2.063.27.254.488.527.695.82.805 1.16 1.227 2.477 1.43 3.859.105.652.16 1.309.023 1.957-.273 1.121-.941 2.098-1.707 2.93a13.499 13.499 0 0 1-1.75 1.551c-.355.262-.734.484-1.066.77-.383.328-.688.742-.934 1.18-.648 1.191-.816 2.605-.621 3.918.039.273.074.543.145.816.023.078.023.215.066.281.102.121.352.188.508.191.156.012.273-.105.313-.25.063-.23.02-.496-.023-.73-.074-.488-.148-.98-.125-1.477a3.75 3.75 0 0 1 1.027-2.426c.641-.672 1.512-1.059 2.234-1.621 1.48-1.137 2.805-2.672 3.313-4.492.18-.652.23-1.344.148-2.02-.102-.852-.406-1.699-.699-2.5-.898-2.438-2.43-4.754-4.855-5.867-.965-.441-1.973-.645-3.02-.793a18.61 18.61 0 0 0-1.48-.129c-.27-.012-.574-.043-.844-.008"/>
      <path d="M19.484 26.629c-.473.07-.609.449-.523.879.113.547.547.965.969 1.293a6.043 6.043 0 0 0 3.887 1.238c.539-.02 1.125-.113 1.617-.34.266-.121.543-.563.18-.75a.505.505 0 0 0-.168-.051c-.156-.027-.332.043-.48.086-.266.074-.527.152-.801.195a3.247 3.247 0 0 1-2.352-.535c-.539-.387-.98-.898-1.391-1.414-.254-.316-.484-.664-.938-.602M18.871 29.31c-.121.016-.262.008-.363.086-.215.16.023.477.137.617.328.418.758.766 1.191 1.07a7.829 7.829 0 0 0 4.03 1.441c.418.031.848 0 1.266-.07.152-.023.34-.035.484-.102.398-.184.281-.938-.074-1.105-.152-.074-.402.023-.566.043a6.726 6.726 0 0 1-1.16.051c-1.016-.023-2.094-.336-2.98-.828a5.61 5.61 0 0 1-.965-.695c-.18-.16-.367-.422-.602-.5-.109-.039-.285-.02-.398-.008M19.11 31.566a.64.64 0 0 0-.41.234c-.078.09-.152.168-.199.281-.246.605.41 1.18.867 1.469.5.32 1.055.559 1.613.758 1.266.449 2.754.738 4.066.336a2.53 2.53 0 0 0 1.059-.633c.16-.168.273-.422-.02-.527-.176-.063-.387.098-.543.16a4.502 4.502 0 0 1-1.16.313c-.527.063-1-.051-1.508-.18a11.536 11.536 0 0 1-1.293-.371 4.583 4.583 0 0 1-1.027-.512c-.094-.07-.203-.125-.281-.215-.254-.281-.441-.609-.707-.879-.117-.117-.281-.254-.461-.234"/>
    </g>
  </g>
  <g>
    <path d="M1 38.998v4c0 2.216 1.784 4 4 4h38c2.216 0 4-1.784 4-4v-4c0 2.216-1.784 4-4 4H5c-2.216 0-4-1.784-4-4z" opacity=".1"/>
  </g>
</svg>
