<svg id="svg16042" version="1.1" viewBox="0 0 48 48" xmlns="http://www.w3.org/2000/svg">
 <defs id="defs15986">
  <linearGradient id="linearGradient3764" x1="1" x2="47" gradientTransform="translate(-48 .0022147)" gradientUnits="userSpaceOnUse">
   <stop id="stop15971" stop-color="#ca251c" offset="0"/>
   <stop id="stop15973" stop-color="#db281f" offset="1"/>
  </linearGradient>
  <clipPath id="clipPath-822945540">
   <g id="g15978" transform="translate(0 -1004.4)">
    <rect id="rect15976" x="1" y="1005.4" width="46" height="46" rx="4" fill="#1890d0"/>
   </g>
  </clipPath>
  <clipPath id="clipPath-837371136">
   <g id="g15983" transform="translate(0 -1004.4)">
    <rect id="rect15981" x="1" y="1005.4" width="46" height="46" rx="4" fill="#1890d0"/>
   </g>
  </clipPath>
 </defs>
 <g id="g15994">
  <path id="path15988" d="m1 43v0.25c0 2.216 1.784 4 4 4h38c2.216 0 4-1.784 4-4v-0.25c0 2.216-1.784 4-4 4h-38c-2.216 0-4-1.784-4-4zm0 0.5v0.5c0 2.216 1.784 4 4 4h38c2.216 0 4-1.784 4-4v-0.5c0 2.216-1.784 4-4 4h-38c-2.216 0-4-1.784-4-4z" opacity=".02"/>
  <path id="path15990" d="m1 43.25v0.25c0 2.216 1.784 4 4 4h38c2.216 0 4-1.784 4-4v-0.25c0 2.216-1.784 4-4 4h-38c-2.216 0-4-1.784-4-4z" opacity=".05"/>
  <path id="path15992" d="m1 43v0.25c0 2.216 1.784 4 4 4h38c2.216 0 4-1.784 4-4v-0.25c0 2.216-1.784 4-4 4h-38c-2.216 0-4-1.784-4-4z" opacity=".1"/>
 </g>
 <g id="g15998">
  <rect id="rect15996" transform="rotate(-90)" x="-47" y="1" width="46" height="46" rx="4" fill="url(#linearGradient3764)"/>
 </g>
 <g id="g16016">
  <g id="g16014" clip-path="url(#clipPath-822945540)">
   <g id="g16012" opacity=".1">
    <g id="g16010">
     <path id="path16000" d="m23.805 23.574c0-0.352-0.063-0.734-0.27-1.027-0.406-0.59-1.281-0.773-1.891-0.406-0.305 0.188-0.48 0.516-0.574 0.852-0.191 0.668-0.105 1.43 0.031 2.098 0.043 0.219 0.086 0.434 0.145 0.641 0.023 0.074 0.031 0.191 0.082 0.25 0.086 0.113 0.297 0.141 0.426 0.121 0.387-0.066 0.293-0.703 0.277-0.977-0.031-0.629-0.219-1.246-0.035-1.879 0.074-0.266 0.227-0.566 0.496-0.684 0.242-0.105 0.488 0.023 0.582 0.262 0.156 0.387 0.121 0.828 0.219 1.23 0.031 0.133 0.066 0.27 0.129 0.398 0.016 0.035 0.043 0.109 0.094 0.109 0.125-0.012 0.305-0.223 0.398-0.301 0.301-0.25 0.613-0.52 0.965-0.707 0.164-0.086 0.434-0.227 0.602-0.078 0.047 0.039 0.078 0.082 0.109 0.129 0.199 0.313 0 0.555-0.125 0.844-0.168 0.383-0.34 0.758-0.578 1.098-0.207 0.293-0.492 0.551-0.656 0.871-0.105 0.207-0.168 0.43-0.121 0.664 0.035 0.188 0.18 0.301 0.371 0.258 0.145-0.035 0.242-0.156 0.324-0.273 0.145-0.199 0.281-0.41 0.426-0.613 0.277-0.391 0.609-0.762 0.848-1.184 0.281-0.508 0.418-1.086 0.418-1.664 0-0.473-0.172-1.199-0.727-1.297-0.102-0.02-0.223-8e-3 -0.324 8e-3 -0.125 0.023-0.258 0.066-0.375 0.125-0.313 0.148-0.586 0.375-0.816 0.633-0.145 0.16-0.273 0.363-0.449 0.496"/>
     <path id="path16002" d="m23.285 11.848c-0.434 0.059-0.875 0.055-1.313 0.121-0.84 0.129-1.641 0.391-2.426 0.703-0.285 0.117-0.57 0.242-0.848 0.379-0.102 0.051-0.258 0.09-0.34 0.168-0.043 0.043-0.039 0.141-0.047 0.195-0.012 0.16-0.031 0.313-0.047 0.473-0.066 0.602-0.105 1.23-0.023 1.832 0.031 0.195 0.102 0.547 0.332 0.586 0.371 0.059 0.656-0.395 0.836-0.648 0.434-0.582 0.906-1.129 1.605-1.391 0.813-0.313 1.754-0.383 2.617-0.441 2.43-0.168 5.078 0.277 6.852 2.063 0.27 0.254 0.488 0.527 0.695 0.82 0.805 1.16 1.227 2.477 1.43 3.859 0.105 0.652 0.16 1.309 0.023 1.957-0.273 1.121-0.941 2.098-1.707 2.93-0.531 0.57-1.129 1.082-1.75 1.551-0.355 0.262-0.734 0.484-1.066 0.77-0.383 0.328-0.688 0.742-0.934 1.18-0.648 1.191-0.816 2.605-0.621 3.918 0.039 0.273 0.074 0.543 0.145 0.816 0.023 0.078 0.023 0.215 0.066 0.281 0.102 0.121 0.352 0.188 0.508 0.191 0.156 0.012 0.273-0.105 0.313-0.25 0.063-0.23 0.02-0.496-0.023-0.73-0.074-0.488-0.148-0.98-0.125-1.477 0.043-0.914 0.398-1.762 1.027-2.426 0.641-0.672 1.512-1.059 2.234-1.621 1.48-1.137 2.805-2.672 3.313-4.492 0.18-0.652 0.23-1.344 0.148-2.02-0.102-0.852-0.406-1.699-0.699-2.5-0.898-2.438-2.43-4.754-4.855-5.867-0.965-0.441-1.973-0.645-3.02-0.793-0.492-0.063-0.98-0.105-1.48-0.129-0.27-0.012-0.574-0.043-0.844-8e-3"/>
     <path id="path16004" d="m19.484 27.629c-0.473 0.07-0.609 0.449-0.523 0.879 0.113 0.547 0.547 0.965 0.969 1.293 1.098 0.844 2.508 1.297 3.887 1.238 0.539-0.02 1.125-0.113 1.617-0.34 0.266-0.121 0.543-0.563 0.18-0.75-0.047-0.027-0.113-0.043-0.168-0.051-0.156-0.027-0.332 0.043-0.48 0.086-0.266 0.074-0.527 0.152-0.801 0.195-0.805 0.129-1.68-0.059-2.352-0.535-0.539-0.387-0.98-0.898-1.391-1.414-0.254-0.316-0.484-0.664-0.938-0.602"/>
     <path id="path16006" d="m18.871 30.31c-0.121 0.016-0.262 8e-3 -0.363 0.086-0.215 0.16 0.023 0.477 0.137 0.617 0.328 0.418 0.758 0.766 1.191 1.07 1.203 0.852 2.566 1.34 4.03 1.441 0.418 0.031 0.848 0 1.266-0.07 0.152-0.023 0.34-0.035 0.484-0.102 0.398-0.184 0.281-0.938-0.074-1.105-0.152-0.074-0.402 0.023-0.566 0.043-0.387 0.055-0.773 0.063-1.16 0.051-1.016-0.023-2.094-0.336-2.98-0.828-0.348-0.195-0.664-0.43-0.965-0.695-0.18-0.16-0.367-0.422-0.602-0.5-0.109-0.039-0.285-0.02-0.398-8e-3"/>
     <path id="path16008" d="m19.11 32.566c-0.168 0.02-0.301 0.109-0.41 0.234-0.078 0.09-0.152 0.168-0.199 0.281-0.246 0.605 0.41 1.18 0.867 1.469 0.5 0.32 1.055 0.559 1.613 0.758 1.266 0.449 2.754 0.738 4.066 0.336 0.391-0.121 0.777-0.34 1.059-0.633 0.16-0.168 0.273-0.422-0.02-0.527-0.176-0.063-0.387 0.098-0.543 0.16-0.375 0.152-0.762 0.266-1.16 0.313-0.527 0.063-1-0.051-1.508-0.18-0.434-0.105-0.871-0.215-1.293-0.371-0.359-0.133-0.711-0.293-1.027-0.512-0.094-0.07-0.203-0.125-0.281-0.215-0.254-0.281-0.441-0.609-0.707-0.879-0.117-0.117-0.281-0.254-0.461-0.234"/>
    </g>
   </g>
  </g>
 </g>
 <g id="g16034">
  <g id="g16032" clip-path="url(#clipPath-837371136)">
   <g id="g16030" transform="translate(0,-1)">
    <g id="g16028" fill="#fc0">
     <path id="path16018" d="m23.805 23.574c0-0.352-0.063-0.734-0.27-1.027-0.406-0.59-1.281-0.773-1.891-0.406-0.305 0.188-0.48 0.516-0.574 0.852-0.191 0.668-0.105 1.43 0.031 2.098 0.043 0.219 0.086 0.434 0.145 0.641 0.023 0.074 0.031 0.191 0.082 0.25 0.086 0.113 0.297 0.141 0.426 0.121 0.387-0.066 0.293-0.703 0.277-0.977-0.031-0.629-0.219-1.246-0.035-1.879 0.074-0.266 0.227-0.566 0.496-0.684 0.242-0.105 0.488 0.023 0.582 0.262 0.156 0.387 0.121 0.828 0.219 1.23 0.031 0.133 0.066 0.27 0.129 0.398 0.016 0.035 0.043 0.109 0.094 0.109 0.125-0.012 0.305-0.223 0.398-0.301 0.301-0.25 0.613-0.52 0.965-0.707 0.164-0.086 0.434-0.227 0.602-0.078 0.047 0.039 0.078 0.082 0.109 0.129 0.199 0.313 0 0.555-0.125 0.844-0.168 0.383-0.34 0.758-0.578 1.098-0.207 0.293-0.492 0.551-0.656 0.871-0.105 0.207-0.168 0.43-0.121 0.664 0.035 0.188 0.18 0.301 0.371 0.258 0.145-0.035 0.242-0.156 0.324-0.273 0.145-0.199 0.281-0.41 0.426-0.613 0.277-0.391 0.609-0.762 0.848-1.184 0.281-0.508 0.418-1.086 0.418-1.664 0-0.473-0.172-1.199-0.727-1.297-0.102-0.02-0.223-8e-3 -0.324 8e-3 -0.125 0.023-0.258 0.066-0.375 0.125-0.313 0.148-0.586 0.375-0.816 0.633-0.145 0.16-0.273 0.363-0.449 0.496"/>
     <path id="path16020" d="m23.285 11.848c-0.434 0.059-0.875 0.055-1.313 0.121-0.84 0.129-1.641 0.391-2.426 0.703-0.285 0.117-0.57 0.242-0.848 0.379-0.102 0.051-0.258 0.09-0.34 0.168-0.043 0.043-0.039 0.141-0.047 0.195-0.012 0.16-0.031 0.313-0.047 0.473-0.066 0.602-0.105 1.23-0.023 1.832 0.031 0.195 0.102 0.547 0.332 0.586 0.371 0.059 0.656-0.395 0.836-0.648 0.434-0.582 0.906-1.129 1.605-1.391 0.813-0.313 1.754-0.383 2.617-0.441 2.43-0.168 5.078 0.277 6.852 2.063 0.27 0.254 0.488 0.527 0.695 0.82 0.805 1.16 1.227 2.477 1.43 3.859 0.105 0.652 0.16 1.309 0.023 1.957-0.273 1.121-0.941 2.098-1.707 2.93-0.531 0.57-1.129 1.082-1.75 1.551-0.355 0.262-0.734 0.484-1.066 0.77-0.383 0.328-0.688 0.742-0.934 1.18-0.648 1.191-0.816 2.605-0.621 3.918 0.039 0.273 0.074 0.543 0.145 0.816 0.023 0.078 0.023 0.215 0.066 0.281 0.102 0.121 0.352 0.188 0.508 0.191 0.156 0.012 0.273-0.105 0.313-0.25 0.063-0.23 0.02-0.496-0.023-0.73-0.074-0.488-0.148-0.98-0.125-1.477 0.043-0.914 0.398-1.762 1.027-2.426 0.641-0.672 1.512-1.059 2.234-1.621 1.48-1.137 2.805-2.672 3.313-4.492 0.18-0.652 0.23-1.344 0.148-2.02-0.102-0.852-0.406-1.699-0.699-2.5-0.898-2.438-2.43-4.754-4.855-5.867-0.965-0.441-1.973-0.645-3.02-0.793-0.492-0.063-0.98-0.105-1.48-0.129-0.27-0.012-0.574-0.043-0.844-8e-3"/>
     <path id="path16022" d="m19.484 27.629c-0.473 0.07-0.609 0.449-0.523 0.879 0.113 0.547 0.547 0.965 0.969 1.293 1.098 0.844 2.508 1.297 3.887 1.238 0.539-0.02 1.125-0.113 1.617-0.34 0.266-0.121 0.543-0.563 0.18-0.75-0.047-0.027-0.113-0.043-0.168-0.051-0.156-0.027-0.332 0.043-0.48 0.086-0.266 0.074-0.527 0.152-0.801 0.195-0.805 0.129-1.68-0.059-2.352-0.535-0.539-0.387-0.98-0.898-1.391-1.414-0.254-0.316-0.484-0.664-0.938-0.602"/>
     <path id="path16024" d="m18.871 30.31c-0.121 0.016-0.262 8e-3 -0.363 0.086-0.215 0.16 0.023 0.477 0.137 0.617 0.328 0.418 0.758 0.766 1.191 1.07 1.203 0.852 2.566 1.34 4.03 1.441 0.418 0.031 0.848 0 1.266-0.07 0.152-0.023 0.34-0.035 0.484-0.102 0.398-0.184 0.281-0.938-0.074-1.105-0.152-0.074-0.402 0.023-0.566 0.043-0.387 0.055-0.773 0.063-1.16 0.051-1.016-0.023-2.094-0.336-2.98-0.828-0.348-0.195-0.664-0.43-0.965-0.695-0.18-0.16-0.367-0.422-0.602-0.5-0.109-0.039-0.285-0.02-0.398-8e-3"/>
     <path id="path16026" d="m19.11 32.566c-0.168 0.02-0.301 0.109-0.41 0.234-0.078 0.09-0.152 0.168-0.199 0.281-0.246 0.605 0.41 1.18 0.867 1.469 0.5 0.32 1.055 0.559 1.613 0.758 1.266 0.449 2.754 0.738 4.066 0.336 0.391-0.121 0.777-0.34 1.059-0.633 0.16-0.168 0.273-0.422-0.02-0.527-0.176-0.063-0.387 0.098-0.543 0.16-0.375 0.152-0.762 0.266-1.16 0.313-0.527 0.063-1-0.051-1.508-0.18-0.434-0.105-0.871-0.215-1.293-0.371-0.359-0.133-0.711-0.293-1.027-0.512-0.094-0.07-0.203-0.125-0.281-0.215-0.254-0.281-0.441-0.609-0.707-0.879-0.117-0.117-0.281-0.254-0.461-0.234"/>
    </g>
   </g>
  </g>
 </g>
 <g id="g16040">
  <g id="g16038" transform="translate(0 -1004.4)">
   <path id="path16036" d="m1 1043.4v4c0 2.216 1.784 4 4 4h38c2.216 0 4-1.784 4-4v-4c0 2.216-1.784 4-4 4h-38c-2.216 0-4-1.784-4-4z" opacity=".1"/>
  </g>
 </g>
</svg>
