<svg width="48" height="48" viewBox="0 0 48 48.000001" xmlns="http://www.w3.org/2000/svg">
  <defs>
    <linearGradient id="a" x1="-47" x2="-1" gradientUnits="userSpaceOnUse">
      <stop offset="0" stop-color="#3d3d3d"/>
      <stop offset="1" stop-color="#474747"/>
    </linearGradient>
    <linearGradient id="b" x2="0" y1="35" y2="15" gradientTransform="translate(-1 -1)" gradientUnits="userSpaceOnUse">
      <stop offset="0"/>
      <stop offset="1" stop-opacity=".412"/>
    </linearGradient>
  </defs>
  <path d="M1 43v.25c0 2.216 1.784 4 4 4h38c2.216 0 4-1.784 4-4V43c0 2.216-1.784 4-4 4H5c-2.216 0-4-1.784-4-4zm0 .5v.5c0 2.216 1.784 4 4 4h38c2.216 0 4-1.784 4-4v-.5c0 2.216-1.784 4-4 4H5c-2.216 0-4-1.784-4-4z" opacity=".02"/>
  <path d="M1 43.25v.25c0 2.216 1.784 4 4 4h38c2.216 0 4-1.784 4-4v-.25c0 2.216-1.784 4-4 4H5c-2.216 0-4-1.784-4-4z" opacity=".05"/>
  <path d="M1 43v.25c0 2.216 1.784 4 4 4h38c2.216 0 4-1.784 4-4V43c0 2.216-1.784 4-4 4H5c-2.216 0-4-1.784-4-4z" opacity=".1"/>
  <rect transform="rotate(-90)" x="-47" y="1" width="46" height="46" rx="4" fill="url(#a)"/>
  <path d="M8.002 1v5.5L8 6.502v.5H1v1.002l7-.002v7H1v1h6.998v7H1v1h6.998v7H1v1h6.998v7L1 39v1.002h7V47h1l-.002-5.565.004.004v-1.437h6.996V47h1.004v-6.996h6.996V47h1v-6.998h7V47h1v-6.996l7-.004v.5l.002-.002V47h1v-7h6v-1h-6l-.002-6.996H47V31h-6.002v-6.996H47V23h-6.002v-6.996H47V15h-6l.002-6.996H47v-1h-5.998V1h-1v5.51l-.006-.006v.5L33 7V1h-1.004v6.002H25V1h-1v6h-7V1h-1v6.002H9v-1.44L9.002 1h-1zm1 7.004H16V15H9.002zm8 0H24V15h-6.998zm8 0H32V15h-6.998zm8 0H40V15h-6.998zm-24 8H16V23H9.002zm8 0H24V23h-6.998zm8 0H32V23h-6.998zm8 0H40V23h-6.998zm-24 8H16V31H9.002zm8 0H24V31h-6.998zm8 0H32V31h-6.998zm8 0H40V31h-6.998zm-24 8H16V39H9.002zm8 0H24V39h-6.998zm8 0H32V39h-6.998zm8 0H40V39h-6.998z" fill-opacity=".098" fill="#fff"/>
  <path d="M1 39v4c0 2.216 1.784 4 4 4h38c2.216 0 4-1.784 4-4v-4c0 2.216-1.784 4-4 4H5c-2.216 0-4-1.784-4-4z" opacity=".1"/>
  <path d="M12 14v2h4v-2zm0 3v2h4v-2zm15 0v2h4v-2zm-15 3v2h4v-2zm5 0v2h4v-2zm10 0v2h4v-2zm5 0v2h4v-2zm-20 3v2h4v-2zm5 0v2h4v-2zm10 0v2h4v-2zm5 0v2h4v-2zm-20 3v2h4v-2zm5 0v2h4v-2zm5 0v2h4v-2zm5 0v2h4v-2zm5 0v2h4v-2zm-20 3v2h4v-2zm5 0v2h4v-2zm5 0v2h4v-2zm5 0v2h4v-2zm5 0v2h4v-2zm-20 3v2h4v-2zm5 0v2h4v-2zm5 0v2h4v-2zm5 0v2h4v-2zm5 0v2h4v-2z" fill="url(#b)" opacity=".1"/>
  <path d="M12 13v2h4v-2zm0 3v2h4v-2zm15 0v2h4v-2zm-15 3v2h4v-2zm5 0v2h4v-2zm10 0v2h4v-2zm5 0v2h4v-2zm-20 3v2h4v-2zm5 0v2h4v-2zm10 0v2h4v-2zm5 0v2h4v-2zm-20 3v2h4v-2zm5 0v2h4v-2zm5 0v2h4v-2zm5 0v2h4v-2zm5 0v2h4v-2zm-20 3v2h4v-2zm5 0v2h4v-2zm5 0v2h4v-2zm5 0v2h4v-2zm5 0v2h4v-2zm-20 3v2h4v-2zm5 0v2h4v-2zm5 0v2h4v-2zm5 0v2h4v-2zm5 0v2h4v-2z" fill="#a4e260"/>
</svg>
