<svg version="1.1" viewBox="0 0 48 48" xmlns="http://www.w3.org/2000/svg">
 <defs>
  <linearGradient id="bg" x2="0" y1="1" y2="47" gradientUnits="userSpaceOnUse">
   <stop style="stop-color:#c9e4a5" offset="0"/>
   <stop style="stop-color:#c0e096" offset="1"/>
  </linearGradient>
 </defs>
 <path d="m1 43v0.25c0 2.22 1.78 4 4 4h38c2.22 0 4-1.78 4-4v-0.25c0 2.22-1.78 4-4 4h-38c-2.22 0-4-1.78-4-4zm0 0.5v0.5c0 2.22 1.78 4 4 4h38c2.22 0 4-1.78 4-4v-0.5c0 2.22-1.78 4-4 4h-38c-2.22 0-4-1.78-4-4z" style="opacity:.02"/>
 <path d="m1 43.2v0.25c0 2.22 1.78 4 4 4h38c2.22 0 4-1.78 4-4v-0.25c0 2.22-1.78 4-4 4h-38c-2.22 0-4-1.78-4-4z" style="opacity:.05"/>
 <path d="m1 43v0.25c0 2.22 1.78 4 4 4h38c2.22 0 4-1.78 4-4v-0.25c0 2.22-1.78 4-4 4h-38c-2.22 0-4-1.78-4-4z" style="opacity:.1"/>
 <rect x="1" y="1" width="46" height="46" rx="4" style="fill:url(#bg)"/>
 <path d="m1 39v4c0 2.22 1.78 4 4 4h38c2.22 0 4-1.78 4-4v-4c0 2.22-1.78 4-4 4h-38c-2.22 0-4-1.78-4-4z" style="opacity:.1"/>
 <path d="m17 12a6 6 0 0 0-6 6 6 6 0 0 0 1.6 4.07c-1.04 1.48-1.6 2.93-1.6 3.93 0 3 4 11 13 11s13-8 13-11c0-1-0.567-2.44-1.6-3.93a6 6 0 0 0 1.6-4.07 6 6 0 0 0-6-6 6 6 0 0 0-5.68 4.07c-0.432-0.0427-0.872-0.0723-1.32-0.0723-0.453 0-0.893 0.0294-1.33 0.0723a6 6 0 0 0-5.67-4.07z" style="opacity:.1"/>
 <path d="m17 11a6 6 0 0 0-6 6 6 6 0 0 0 1.6 4.07c-1.04 1.48-1.6 2.93-1.6 3.93 0 3 4 11 13 11s13-8 13-11c0-1-0.567-2.44-1.6-3.93a6 6 0 0 0 1.6-4.07 6 6 0 0 0-6-6 6 6 0 0 0-5.68 4.07c-0.432-0.0427-0.872-0.0723-1.32-0.0723-0.453 0-0.893 0.0294-1.33 0.0723a6 6 0 0 0-5.67-4.07z" style="fill:#78ad33"/>
 <path d="m13 25s4 9 11 9 11-9 11-9-4 6-11 6-11-6-11-6z" style="fill:#b2d571"/>
 <path d="m17 14a3 3 0 0 0-3 3 3 3 0 0 0 3 3 3 3 0 0 0 3-3 3 3 0 0 0-3-3zm14 0a3 3 0 0 0-3 3 3 3 0 0 0 3 3 3 3 0 0 0 3-3 3 3 0 0 0-3-3z" style="fill:#e6ecc0"/>
 <path d="m17 16a1 1 0 0 0-1 1 1 1 0 0 0 1 1 1 1 0 0 0 1-1 1 1 0 0 0-1-1zm14 0a1 1 0 0 0-1 1 1 1 0 0 0 1 1 1 1 0 0 0 1-1 1 1 0 0 0-1-1zm-11 5a1 1 0 0 0-1 1 1 1 0 0 0 1 1 1 1 0 0 0 1-1 1 1 0 0 0-1-1zm8 0a1 1 0 0 0-1 1 1 1 0 0 0 1 1 1 1 0 0 0 1-1 1 1 0 0 0-1-1zm-15 4s5 7 11 7 11-7 11-7-6 2-11 2-11-2-11-2z" style="fill:#4a5b34"/>
</svg>
