<svg width="48" height="48" version="1.1" viewBox="0 0 48 48.000001" xmlns="http://www.w3.org/2000/svg">
 <defs>
  <linearGradient id="linearGradient4501" x1="-47" x2="-1" y1="2.8779e-15" y2="6.1232e-17" gradientUnits="userSpaceOnUse">
   <stop style="stop-color:#a8e8e4" offset="0"/>
   <stop style="stop-color:#b8ece9" offset="1"/>
  </linearGradient>
 </defs>
 <g transform="translate(0 3.949e-5)">
  <path d="m1 43v0.25c0 2.216 1.784 4 4 4h38c2.216 0 4-1.784 4-4v-0.25c0 2.216-1.784 4-4 4h-38c-2.216 0-4-1.784-4-4zm0 0.5v0.5c0 2.216 1.784 4 4 4h38c2.216 0 4-1.784 4-4v-0.5c0 2.216-1.784 4-4 4h-38c-2.216 0-4-1.784-4-4z" style="opacity:.02"/>
  <path d="m1 43.25v0.25c0 2.216 1.784 4 4 4h38c2.216 0 4-1.784 4-4v-0.25c0 2.216-1.784 4-4 4h-38c-2.216 0-4-1.784-4-4z" style="opacity:.05"/>
  <path d="m1 43v0.25c0 2.216 1.784 4 4 4h38c2.216 0 4-1.784 4-4v-0.25c0 2.216-1.784 4-4 4h-38c-2.216 0-4-1.784-4-4z" style="opacity:.1"/>
 </g>
 <rect transform="rotate(-90)" x="-47" y="1" width="46" height="46" rx="4" style="fill:url(#linearGradient4501)"/>
 <g transform="translate(0 3.949e-5)">
  <g transform="translate(0 -1004.4)">
   <path d="m1 1043.4v4c0 2.216 1.784 4 4 4h38c2.216 0 4-1.784 4-4v-4c0 2.216-1.784 4-4 4h-38c-2.216 0-4-1.784-4-4z" style="opacity:.1"/>
  </g>
 </g>
 <path d="m35 11c-6.416 0-14.774 9.162-19.218 18.57-1.284 2.718-2.37 5.657-2.782 7.43l0.5-0.021c1.864-5.376 4.01-5.811 5.03-5.98 3.646-0.606 6.44-1.779 9.134-4.998-3.667 0-5.967-0.614-5.967-1h6.602c0.917-0.957 1.856-2.055 2.567-3-3.203 0-5.87-0.406-5.87-1h6.6c0.663-0.983 1.218-2.039 1.676-3-2.859 0-4.776-0.646-4.776-1h5.254c0.866-2.134 1.254-4.172 1.246-6z" style="opacity:.1"/>
 <path d="m20.99 20c-1.875 2.475-3.562 5.219-4.924 8 2.072 0.664 5.092 0.38 8.207 0 1.179-0.732 2.295-1.689 3.391-2.998-3.667 0-5.967-0.614-5.967-1h6.602c0.917-0.957 1.855-2.055 2.566-3-3.203 0-5.869-0.406-5.869-1-0.996-1-1.506-0.687-4.01-2e-3" style="fill:#dd435f"/>
 <path d="m24.422 16c-1.185 1.214-2.339 2.558-3.432 4h10.607c0.662-0.982 1.216-2.038 1.674-2.998-2.859 0-4.775-0.646-4.775-1-0.496-1-2.496-1-4.074-2e-3" style="fill:#e57a55"/>
 <path d="m35 10c-3.28 0-7.07 2.402-10.578 6h9.328c0.865-2.133 1.254-4.171 1.246-5.998z" style="fill:#f5ad45"/>
 <path d="m16.07 28c-0.093 0.19-0.195 0.38-0.285 0.57-1.284 2.718-2.369 5.657-2.781 7.43l0.5-0.021c1.864-5.376 4.01-5.811 5.03-5.98 2.164-0.36 4.02-0.93 5.744-1.998h-8.207z" style="fill:#c056ba"/>
</svg>
