<svg version="1.1" viewBox="0 0 48 48" xmlns="http://www.w3.org/2000/svg">
 <defs>
  <linearGradient id="bg" x1="-47" x2="-1" y1="2.88e-15" y2="6.12e-17" gradientUnits="userSpaceOnUse">
   <stop style="stop-color:#cfbcad" offset="0"/>
   <stop style="stop-color:#d6c6b9" offset="1"/>
  </linearGradient>
 </defs>
 <path d="m1 43v0.25c0 2.22 1.78 4 4 4h38c2.22 0 4-1.78 4-4v-0.25c0 2.22-1.78 4-4 4h-38c-2.22 0-4-1.78-4-4zm0 0.5v0.5c0 2.22 1.78 4 4 4h38c2.22 0 4-1.78 4-4v-0.5c0 2.22-1.78 4-4 4h-38c-2.22 0-4-1.78-4-4z" style="opacity:.02"/>
 <path d="m1 43.3v0.25c0 2.22 1.78 4 4 4h38c2.22 0 4-1.78 4-4v-0.25c0 2.22-1.78 4-4 4h-38c-2.22 0-4-1.78-4-4z" style="opacity:.05"/>
 <path d="m1 43v0.25c0 2.22 1.78 4 4 4h38c2.22 0 4-1.78 4-4v-0.25c0 2.22-1.78 4-4 4h-38c-2.22 0-4-1.78-4-4z" style="opacity:.1"/>
 <rect transform="rotate(-90)" x="-47" y="1" width="46" height="46" rx="4" style="fill:url(#bg)"/>
 <path d="m1 39v4c0 2.22 1.78 4 4 4h38c2.22 0 4-1.78 4-4v-4c0 2.22-1.78 4-4 4h-38c-2.22 0-4-1.78-4-4z" style="opacity:.1"/>
 <path d="m19.4 20.4s-2.14-1.35-3.41-1.35c-2.76-4.81e-4 -5 2.24-5 5 1.41e-4 1.48 0.656 2.88 1.79 3.83-0.0138-0.0059-0.0921-0.0334-0.0921-0.0334l-1 5.54 0.9 0.221c1.15 0.282 2.48 0.44 3.56 0.44 3.99 2.2e-4 6.93-1.03 8.89-2.65-0.0297 0.215-0.0453 0.431-0.0471 0.648-4.81e-4 2.76 2.24 5 5 5 2.76 4.81e-4 5-2.24 5-5-1.62e-4 -2.38-1.67-4.42-4-4.9l-3.69e-4 -5.21c2.32-0.478 3.99-2.52 3.99-4.89 4.81e-4 -2.76-2.24-5-5-5z" style="opacity:.1"/>
 <path d="m28 15.1-11.8 5.82 3.33 1.55-0.0139-0.0081 8.49-3.9z" style="fill:#555"/>
 <circle cx="16" cy="23" r="5" style="fill:#636363"/>
 <circle cx="30" cy="16" r="5" style="fill:#7177c1"/>
 <ellipse cx="29" cy="14.5" rx="2" ry="1.5" style="fill:#e5e5e5;opacity:.6"/>
 <path d="m21 10v12.2c0 2.39-0.32 5.18-5.32 5.18-0.735 0-1.68-0.113-2.28-0.295-0.247-0.076-0.7-0.25-0.7-0.25l-1 5.54 0.9 0.22c1.15 0.282 2.48 0.44 3.56 0.44 8.05 0 11.8-4.17 11.8-9v-14z" style="fill:#efedfd"/>
 <path d="m20.6 24.9c-0.359 0.91-1.06 1.68-2.38 2.1l6.4 3.66c0.879-0.65 1.59-1.41 2.12-2.25l-6.14-3.51z" style="opacity:.1"/>
 <path d="m18.1 22.7c-1.58-0.0563-2.16 2.05-0.777 2.81l11.9 6.81 1.49-2.6-11.9-6.81c-0.216-0.127-0.46-0.199-0.711-0.207" style="fill:#555"/>
 <ellipse cx="15" cy="21.5" rx="2" ry="1.5" style="fill:#e5e5e5;opacity:.6"/>
 <path d="m29.5 18.1c-0.852 0-1.48 0.55-1.48 1.55v11.4h3v-11.4c0-1.06-0.671-1.55-1.52-1.55" style="fill:#555"/>
 <circle cx="30" cy="31" r="5" style="fill:#e66666"/>
 <ellipse cx="29" cy="29.5" rx="2" ry="1.5" style="fill:#e5e5e5;opacity:.6"/>
</svg>
