<svg viewBox="0 0 48 48" xmlns="http://www.w3.org/2000/svg">
 <defs>
  <linearGradient id="linearGradient3764" x1="1" x2="47" gradientTransform="translate(-48 .0022147)" gradientUnits="userSpaceOnUse">
   <stop stop-color="#e6992a" offset="0"/>
   <stop stop-color="#e8a23b" offset="1"/>
  </linearGradient>
  <clipPath id="clipPath-332663630">
   <g transform="translate(0 -1004.4)">
    <rect x="1" y="1005.4" width="46" height="46" rx="4" fill="#1890d0"/>
   </g>
  </clipPath>
  <clipPath id="clipPath-345480473">
   <g transform="translate(0 -1004.4)">
    <rect x="1" y="1005.4" width="46" height="46" rx="4" fill="#1890d0"/>
   </g>
  </clipPath>
 </defs>
 <g>
  <path d="m1 43v0.25c0 2.216 1.784 4 4 4h38c2.216 0 4-1.784 4-4v-0.25c0 2.216-1.784 4-4 4h-38c-2.216 0-4-1.784-4-4zm0 0.5v0.5c0 2.216 1.784 4 4 4h38c2.216 0 4-1.784 4-4v-0.5c0 2.216-1.784 4-4 4h-38c-2.216 0-4-1.784-4-4z" opacity=".02"/>
  <path d="m1 43.25v0.25c0 2.216 1.784 4 4 4h38c2.216 0 4-1.784 4-4v-0.25c0 2.216-1.784 4-4 4h-38c-2.216 0-4-1.784-4-4z" opacity=".05"/>
  <path d="m1 43v0.25c0 2.216 1.784 4 4 4h38c2.216 0 4-1.784 4-4v-0.25c0 2.216-1.784 4-4 4h-38c-2.216 0-4-1.784-4-4z" opacity=".1"/>
 </g>
 <g>
  <rect transform="rotate(-90)" x="-47" y="1" width="46" height="46" rx="4" fill="url(#linearGradient3764)"/>
 </g>
 <g>
  <g clip-path="url(#clipPath-332663630)">
   <g opacity=".1">
    <g>
     <path d="m17.609 10c-0.918 0.016-1.844 0.188-2.711 0.523l4.656 4.656c0.816 0.77 1.152 1.926 0.871 3.02s-1.133 1.941-2.223 2.223c-1.09 0.281-2.246-0.051-3.02-0.871l-4.652-4.652c-1.082 2.77-0.512 6.07 1.727 8.301 2.238 2.238 5.531 2.809 8.301 1.727l12.1 12.11c0.773 0.82 1.941 1.152 3.02 0.875 1.09-0.27 1.938-1.133 2.223-2.223 0.281-1.09-0.051-2.25-0.871-3.02l-12.1-12.1c1.082-2.77 0.512-6.07-1.727-8.301-1.535-1.539-3.57-2.285-5.59-2.254m17.215 23.766c0.578 0 1.047 0.469 1.047 1.047 0 0.582-0.469 1.051-1.047 1.051s-1.051-0.469-1.051-1.051c0-0.578 0.469-1.047 1.051-1.047"/>
    </g>
   </g>
  </g>
 </g>
 <g>
  <g clip-path="url(#clipPath-345480473)">
   <g transform="translate(0,-1)">
    <g>
     <path d="m17.609 10c-0.918 0.016-1.844 0.188-2.711 0.523l4.656 4.656c0.816 0.77 1.152 1.926 0.871 3.02s-1.133 1.941-2.223 2.223c-1.09 0.281-2.246-0.051-3.02-0.871l-4.652-4.652c-1.082 2.77-0.512 6.07 1.727 8.301 2.238 2.238 5.531 2.809 8.301 1.727l12.1 12.11c0.773 0.82 1.941 1.152 3.02 0.875 1.09-0.27 1.938-1.133 2.223-2.223 0.281-1.09-0.051-2.25-0.871-3.02l-12.1-12.1c1.082-2.77 0.512-6.07-1.727-8.301-1.535-1.539-3.57-2.285-5.59-2.254m17.215 23.766c0.578 0 1.047 0.469 1.047 1.047 0 0.582-0.469 1.051-1.047 1.051s-1.051-0.469-1.051-1.051c0-0.578 0.469-1.047 1.051-1.047" fill="#2d2d2d"/>
    </g>
   </g>
  </g>
 </g>
 <g>
  <g transform="translate(0 -1004.4)">
   <path d="m1 1043.4v4c0 2.216 1.784 4 4 4h38c2.216 0 4-1.784 4-4v-4c0 2.216-1.784 4-4 4h-38c-2.216 0-4-1.784-4-4z" opacity=".1"/>
  </g>
 </g>
</svg>
