<svg viewBox="0 0 48 48" xmlns="http://www.w3.org/2000/svg" xmlns:xlink="http://www.w3.org/1999/xlink">
 <defs>
  <linearGradient id="lG3764" gradientTransform="translate(-48 .002215)" gradientUnits="userSpaceOnUse" x1="1" x2="47">
   <stop offset="0" style="stop-color:#f093f1"/>
   <stop offset="1" style="stop-color:#f2a4f3"/>
  </linearGradient>
 </defs>
 <path d="m 1 43 v .25 c 0 2.216 1.784 4 4 4 h 38 c 2.216 0 4 -1.784 4 -4 v -.25 c 0 2.216 -1.784 4 -4 4 h -38 c -2.216 0 -4 -1.784 -4 -4 z m 0 .5 v .5 c 0 2.216 1.784 4 4 4 h 38 c 2.216 0 4 -1.784 4 -4 v -.5 c 0 2.216 -1.784 4 -4 4 h -38 c -2.216 0 -4 -1.784 -4 -4 z" style="opacity:.02"/>
 <path d="m 1 43.25 v .25 c 0 2.216 1.784 4 4 4 h 38 c 2.216 0 4 -1.784 4 -4 v -.25 c 0 2.216 -1.784 4 -4 4 h -38 c -2.216 0 -4 -1.784 -4 -4 z" style="opacity:.05"/>
 <path d="m 1 43 v .25 c 0 2.216 1.784 4 4 4 h 38 c 2.216 0 4 -1.784 4 -4 v -.25 c 0 2.216 -1.784 4 -4 4 h -38 c -2.216 0 -4 -1.784 -4 -4 z" style="opacity:.1"/>
 <rect height="46" rx="4" style="fill:url(#lG3764)" transform="rotate(-90)" width="46" x="-47" y="1"/>
 <g style="opacity:.1">
  <path d="m 14 33 h 12 v -2 h -12"/>
  <path d="m 14 29 h 19.996 v -1.996 h -19.996"/>
  <path d="m 14 25 h 19.996 v -1.996 h -19.996"/>
  <path d="m 14 21 h 19.996 v -1.996 h -19.996"/>
  <path d="m 14 17 h 19.996 v -2 h -19.996"/>
 </g>
 <g style="fill:#f9f9f9">
  <path d="m 14 32 h 12 v -2 h -12"/>
  <path d="m 14 28 h 19.996 v -1.996 h -19.996"/>
  <path d="m 14 24 h 19.996 v -1.996 h -19.996"/>
  <path d="m 14 20 h 19.996 v -1.996 h -19.996"/>
  <path d="m 14 16 h 19.996 v -2 h -19.996"/>
 </g>
 <path d="m 1 39 v 4 c 0 2.216 1.784 4 4 4 h 38 c 2.216 0 4 -1.784 4 -4 v -4 c 0 2.216 -1.784 4 -4 4 h -38 c -2.216 0 -4 -1.784 -4 -4 z" style="opacity:.1"/>
</svg>
