<svg viewBox="0 0 48 48" xmlns:xlink="http://www.w3.org/1999/xlink"><defs><linearGradient id="linearGradient3764" x1="1" x2="47" gradientUnits="userSpaceOnUse" gradientTransform="translate(-48.000001,0.00221467)"><stop stop-color="#3d3d3d" stop-opacity="1"/><stop offset="1" stop-color="#474747" stop-opacity="1"/></linearGradient><clipPath id="clipPath-658540222"><g transform="translate(0,-1004.3622)"><rect rx="4" y="1005.36" x="1" height="46" width="46" fill="#1890d0"/></g></clipPath><clipPath id="clipPath-671787385"><g transform="translate(0,-1004.3622)"><rect rx="4" y="1005.36" x="1" height="46" width="46" fill="#1890d0"/></g></clipPath></defs><g><path d="m 1 43 l 0 0.25 c 0 2.216 1.784 4 4 4 l 38 0 c 2.216 0 4 -1.784 4 -4 l 0 -0.25 c 0 2.216 -1.784 4 -4 4 l -38 0 c -2.216 0 -4 -1.784 -4 -4 z m 0 0.5 l 0 0.5 c 0 2.216 1.784 4 4 4 l 38 0 c 2.216 0 4 -1.784 4 -4 l 0 -0.5 c 0 2.216 -1.784 4 -4 4 l -38 0 c -2.216 0 -4 -1.784 -4 -4 z" opacity="0.02"/><path d="m 1 43.25 l 0 0.25 c 0 2.216 1.784 4 4 4 l 38 0 c 2.216 0 4 -1.784 4 -4 l 0 -0.25 c 0 2.216 -1.784 4 -4 4 l -38 0 c -2.216 0 -4 -1.784 -4 -4 z" opacity="0.05"/><path d="m 1 43 l 0 0.25 c 0 2.216 1.784 4 4 4 l 38 0 c 2.216 0 4 -1.784 4 -4 l 0 -0.25 c 0 2.216 -1.784 4 -4 4 l -38 0 c -2.216 0 -4 -1.784 -4 -4 z" opacity="0.1"/></g><g><rect width="46" height="46" x="-47" y="1" rx="4" transform="matrix(0,-1,1,0,0,0)" fill="url(#linearGradient3764)" fill-opacity="1"/></g><g><g clip-path="url(#clipPath-658540222)"><g opacity="0.1"><!-- color: #474747 --><g><path d="m 33.613 23.574 c 0 -6.391 -5.313 -11.574 -11.863 -11.574 c -6.551 0 -10.75 5.184 -10.75 11.574 c 0 -4.563 2.68 -8.266 7.359 -8.266 c 4.68 0 8.469 3.699 8.469 8.266 l 0 1.652 l -3.387 0 l 6.781 6.613 l 6.777 -6.613 l -3.387 0 m 0 -1.652" stroke="none" fill-rule="nonzero" fill-opacity="1" id="SVGCleanerId_0" fill="#000"/><path d="m 18.813 16.09 c -3.758 0 -6.813 2.988 -6.813 6.656 c 0 3.527 2.816 6.379 6.375 6.594 c 0 -3.988 3.191 -7.242 7.156 -7.594 c -0.492 -3.199 -3.309 -5.656 -6.719 -5.656 m 0 4.563 c 1.172 0 2.125 0.949 2.125 2.094 c 0 1.145 -0.953 2.063 -2.125 2.063 c -1.172 0 -2.125 -0.918 -2.125 -2.063 c 0 -1.145 0.953 -2.094 2.125 -2.094 m 0 0.438 c -0.941 0 -1.719 0.738 -1.719 1.656 c 0 0.922 0.777 1.656 1.719 1.656 c 0.941 0 1.688 -0.734 1.688 -1.656 c 0 -0.918 -0.746 -1.656 -1.688 -1.656 m 0 0.625 c 0.586 0 1.063 0.457 1.063 1.031 c 0 0.574 -0.473 1.031 -1.063 1.031 c -0.586 0 -1.063 -0.457 -1.063 -1.031 c 0 -0.574 0.477 -1.031 1.063 -1.031 m 0 0" stroke="none" fill-rule="nonzero" fill-opacity="1" fill="#000"/><path d="m 26.22 22.711 c -3.758 0 -6.805 2.973 -6.805 6.645 c 0 3.672 3.047 6.645 6.805 6.645 c 3.762 0 6.809 -2.973 6.809 -6.645 c 0 -3.672 -3.047 -6.645 -6.809 -6.645 m 0 4.57 c 1.176 0 2.129 0.93 2.129 2.074 c 0 1.145 -0.953 2.078 -2.129 2.078 c -1.172 0 -2.125 -0.934 -2.125 -2.078 c 0 -1.145 0.953 -2.074 2.125 -2.074 m 0 0.414 c -0.941 0 -1.699 0.738 -1.699 1.66 c 0 0.922 0.758 1.664 1.699 1.664 c 0.945 0 1.703 -0.742 1.703 -1.664 c 0 -0.922 -0.758 -1.66 -1.703 -1.66 m 0 0.621 c 0.59 0 1.066 0.465 1.066 1.039 c 0 0.574 -0.477 1.039 -1.066 1.039 c -0.586 0 -1.063 -0.465 -1.063 -1.039 c 0 -0.574 0.477 -1.039 1.063 -1.039 m 0 0" stroke="none" fill-rule="nonzero" fill-opacity="1" fill="#000"/><use xlink:href="#SVGCleanerId_0"/></g></g></g></g><g><g clip-path="url(#clipPath-671787385)"><g transform="translate(0,-1)"><!-- color: #474747 --><g><path d="m 33.613 23.574 c 0 -6.391 -5.313 -11.574 -11.863 -11.574 c -6.551 0 -10.75 5.184 -10.75 11.574 c 0 -4.563 2.68 -8.266 7.359 -8.266 c 4.68 0 8.469 3.699 8.469 8.266 l 0 1.652 l -3.387 0 l 6.781 6.613 l 6.777 -6.613 l -3.387 0 m 0 -1.652" fill="#ea4cc5" stroke="none" fill-rule="nonzero" fill-opacity="1" id="SVGCleanerId_0"/><path d="m 18.813 16.09 c -3.758 0 -6.813 2.988 -6.813 6.656 c 0 3.527 2.816 6.379 6.375 6.594 c 0 -3.988 3.191 -7.242 7.156 -7.594 c -0.492 -3.199 -3.309 -5.656 -6.719 -5.656 m 0 4.563 c 1.172 0 2.125 0.949 2.125 2.094 c 0 1.145 -0.953 2.063 -2.125 2.063 c -1.172 0 -2.125 -0.918 -2.125 -2.063 c 0 -1.145 0.953 -2.094 2.125 -2.094 m 0 0.438 c -0.941 0 -1.719 0.738 -1.719 1.656 c 0 0.922 0.777 1.656 1.719 1.656 c 0.941 0 1.688 -0.734 1.688 -1.656 c 0 -0.918 -0.746 -1.656 -1.688 -1.656 m 0 0.625 c 0.586 0 1.063 0.457 1.063 1.031 c 0 0.574 -0.473 1.031 -1.063 1.031 c -0.586 0 -1.063 -0.457 -1.063 -1.031 c 0 -0.574 0.477 -1.031 1.063 -1.031 m 0 0" fill="#ff4c5b" stroke="none" fill-rule="nonzero" fill-opacity="1"/><path d="m 26.22 22.711 c -3.758 0 -6.805 2.973 -6.805 6.645 c 0 3.672 3.047 6.645 6.805 6.645 c 3.762 0 6.809 -2.973 6.809 -6.645 c 0 -3.672 -3.047 -6.645 -6.809 -6.645 m 0 4.57 c 1.176 0 2.129 0.93 2.129 2.074 c 0 1.145 -0.953 2.078 -2.129 2.078 c -1.172 0 -2.125 -0.934 -2.125 -2.078 c 0 -1.145 0.953 -2.074 2.125 -2.074 m 0 0.414 c -0.941 0 -1.699 0.738 -1.699 1.66 c 0 0.922 0.758 1.664 1.699 1.664 c 0.945 0 1.703 -0.742 1.703 -1.664 c 0 -0.922 -0.758 -1.66 -1.703 -1.66 m 0 0.621 c 0.59 0 1.066 0.465 1.066 1.039 c 0 0.574 -0.477 1.039 -1.066 1.039 c -0.586 0 -1.063 -0.465 -1.063 -1.039 c 0 -0.574 0.477 -1.039 1.063 -1.039 m 0 0" fill="#4ca3e5" stroke="none" fill-rule="nonzero" fill-opacity="1"/><use xlink:href="#SVGCleanerId_0"/></g></g></g></g><g><g transform="translate(0,-1004.3622)"><path d="m 1 1043.36 0 4 c 0 2.216 1.784 4 4 4 l 38 0 c 2.216 0 4 -1.784 4 -4 l 0 -4 c 0 2.216 -1.784 4 -4 4 l -38 0 c -2.216 0 -4 -1.784 -4 -4 z" opacity="0.1"/></g></g></svg>