<svg width="48" height="48" viewBox="0 0 48 48.000001" xmlns="http://www.w3.org/2000/svg">
  <defs>
    <linearGradient id="a" x1="-47" x2="-1" gradientUnits="userSpaceOnUse">
      <stop offset="0" stop-color="#e4e4e4"/>
      <stop offset="1" stop-color="#eee"/>
    </linearGradient>
  </defs>
  <path d="M1 43v.25c0 2.216 1.784 4 4 4h38c2.216 0 4-1.784 4-4V43c0 2.216-1.784 4-4 4H5c-2.216 0-4-1.784-4-4zm0 .5v.5c0 2.216 1.784 4 4 4h38c2.216 0 4-1.784 4-4v-.5c0 2.216-1.784 4-4 4H5c-2.216 0-4-1.784-4-4z" opacity=".02"/>
  <path d="M1 43.25v.25c0 2.216 1.784 4 4 4h38c2.216 0 4-1.784 4-4v-.25c0 2.216-1.784 4-4 4H5c-2.216 0-4-1.784-4-4z" opacity=".05"/>
  <path d="M1 43v.25c0 2.216 1.784 4 4 4h38c2.216 0 4-1.784 4-4V43c0 2.216-1.784 4-4 4H5c-2.216 0-4-1.784-4-4z" opacity=".1"/>
  <rect transform="rotate(-90)" x="-47" y="1" width="46" height="46" rx="4" fill="url(#a)"/>
  <path d="M1 39v4c0 2.216 1.784 4 4 4h38c2.216 0 4-1.784 4-4v-4c0 2.216-1.784 4-4 4H5c-2.216 0-4-1.784-4-4z" opacity=".1"/>
  <path d="M23.33 36.801c-.424-.473-.33-1.801-.33-6.11v-4.69c-2 .252-3 .525-4.253.98-.518.64-.747.738-1.211.283-.379-.399-.61-1.232-1.61-4.609-.281-.947-.736-2.219-1.012-2.826-.603-1.326-.56-1.627.212-1.484.292.054.812.213 1.155.414.431.241.719.241 1.318.191C19.347 18.577 21 18.249 23 17.8v-2.215c0-2.585-.262-2.437-.638-3.167-.731-1.418-.278-1.805 1.189-1.015 1.171.63 1.76 1.315 1.639 1.909-.05.245-.19 1.191-.19 2.274v1.865c2-.5 4-.843 5.789-1.05.735 0 2.711 1.514 2.711 2.072 0 .155-.164.498-.364.763-.337.446-1.073 2.065-1.792 3.663-.167.371-.303.936-.303 1.256 0 .455-.053.847-.245.847-1.326 0-5.379.679-5.796.76 0 7.221 0 10.24-.873 11.09a.547.547 0 0 1-.797-.051zM23 24v-4.6s-3.676.651-5.03 1c-.746.192-.624.6.266 3.873.148.542.353.712.683.627 1.082-.278 2.082-.543 4.082-.9m6.3-1c.324-.154.285-.142.75-2.266.375-1.712.534-2.319.35-2.434-.113-.224-3.4.232-5.4.7v4.7c2-.357 3.338-.518 4.3-.7z" fill-opacity=".098"/>
  <path d="M23.33 35.801c-.424-.473-.33-1.801-.33-6.11v-4.69c-2 .252-3 .525-4.253.98-.518.64-.747.738-1.211.283-.379-.399-.61-1.232-1.61-4.609-.281-.947-.736-2.219-1.012-2.826-.603-1.326-.56-1.627.212-1.484.292.054.812.213 1.155.414.431.241.719.241 1.318.191C19.347 17.577 21 17.249 23 16.8v-2.215c0-2.585-.262-2.437-.638-3.167-.731-1.418-.278-1.805 1.189-1.015 1.171.63 1.76 1.315 1.639 1.909-.05.245-.19 1.191-.19 2.274v1.865c2-.5 4-.843 5.789-1.05.735 0 2.711 1.514 2.711 2.072 0 .155-.164.498-.364.763-.337.446-1.073 2.065-1.792 3.663-.167.371-.303.936-.303 1.256 0 .455-.053.847-.245.847-1.326 0-5.379.679-5.796.76 0 7.221 0 10.24-.873 11.09a.547.547 0 0 1-.797-.051M23 23v-4.6s-3.676.651-5.03 1c-.746.192-.624.6.266 3.873.148.542.353.712.683.627 1.082-.278 2.082-.543 4.082-.9m6.3-1c.324-.154.285-.142.75-2.266.375-1.713.534-2.319.35-2.434-.113-.224-3.4.232-5.4.7v4.7c2-.357 3.338-.518 4.3-.7z" fill="#b33c29"/>
</svg>
