<!-- Created with Inkscape (http://www.inkscape.org/) -->
<svg xmlns:rdf="http://www.w3.org/1999/02/22-rdf-syntax-ns#" xmlns="http://www.w3.org/2000/svg" height="48" width="48" version="1.1" xmlns:cc="http://creativecommons.org/ns#" xmlns:dc="http://purl.org/dc/elements/1.1/" viewBox="0 0 48 48.000001">
<defs>
<linearGradient id="linearGradient3764" x2="47" gradientUnits="userSpaceOnUse" x1="1" gradientTransform="translate(-48 .0022147)">
<stop stop-color="#239523" offset="0"/>
<stop stop-color="#27a427" offset="1"/>
</linearGradient>
</defs>
<g transform="translate(0 -1004.4)">
<g transform="translate(0 1004.4)">
<path opacity="0.02" d="m1 43v0.25c0 2.216 1.784 4 4 4h38c2.216 0 4-1.784 4-4v-0.25c0 2.216-1.784 4-4 4h-38c-2.216 0-4-1.784-4-4zm0 0.5v0.5c0 2.216 1.784 4 4 4h38c2.216 0 4-1.784 4-4v-0.5c0 2.216-1.784 4-4 4h-38c-2.216 0-4-1.784-4-4z"/>
<path opacity=".05" d="m1 43.25v0.25c0 2.216 1.784 4 4 4h38c2.216 0 4-1.784 4-4v-0.25c0 2.216-1.784 4-4 4h-38c-2.216 0-4-1.784-4-4z"/>
<path opacity=".1" d="m1 43v0.25c0 2.216 1.784 4 4 4h38c2.216 0 4-1.784 4-4v-0.25c0 2.216-1.784 4-4 4h-38c-2.216 0-4-1.784-4-4z"/>
</g>
<g transform="translate(0 1004.4)">
<rect rx="4" transform="rotate(-90)" height="46" width="46" y="1" x="-47" fill="url(#linearGradient3764)"/>
</g>
<g transform="translate(0 1004.4)">
<g transform="translate(0 -1004.4)">
<path opacity=".1" d="m1 1043.4v4c0 2.216 1.784 4 4 4h38c2.216 0 4-1.784 4-4v-4c0 2.216-1.784 4-4 4h-38c-2.216 0-4-1.784-4-4z"/>
</g>
</g>
</g>
 <path opacity=".1" d="m25 7 18 18-18 18-18-18z"/>
 <path d="m24 24v-18l-18 18h18z" fill="#37c837"/>
 <path d="m24 24v18l18-18h-18z" fill="#134f13"/>
 <path d="m24 24v-18l18 18h-18z" fill="#217821"/>
 <path d="m24 24v18l-18-18h18z" fill="#217821"/>
 <g transform="matrix(.9 0 0 .9 2.4 2.4)">
  <path opacity=".1" d="m13 11v28h7l0.15039-4.1992 2.131-2.555 7.719 6.754h9l-10.842-13.801 11.842-14.199h-8l-11.408 11.408 0.408-11.408h-8z"/>
  <path d="m27.158 24.199-5.877 7.047 7.719 6.754h9l-10.842-13.801z" fill="#006680"/>
  <path d="m12 10v28h7l0.15039-4.1992 19.85-23.801h-8l-11.408 11.408 0.408-11.408h-8z" fill="#c87137"/>
 </g>
</svg>
