<svg width="48" height="48" viewBox="0 0 48 48.000001" xmlns="http://www.w3.org/2000/svg">
  <defs>
    <linearGradient id="a" x1="-47" x2="-1" gradientUnits="userSpaceOnUse">
      <stop offset="0" stop-color="#75ac40"/>
      <stop offset="1" stop-color="#7eba45"/>
    </linearGradient>
    <linearGradient id="b" x2="0" y1="279.1" y2="268.33" gradientTransform="translate(-332.97 -742.65) scale(2.7972)" gradientUnits="userSpaceOnUse">
      <stop offset="0" stop-color="#c8c8c8"/>
      <stop offset="1" stop-color="#eaeaea"/>
    </linearGradient>
  </defs>
  <path d="M1 43v.25c0 2.216 1.784 4 4 4h38c2.216 0 4-1.784 4-4V43c0 2.216-1.784 4-4 4H5c-2.216 0-4-1.784-4-4zm0 .5v.5c0 2.216 1.784 4 4 4h38c2.216 0 4-1.784 4-4v-.5c0 2.216-1.784 4-4 4H5c-2.216 0-4-1.784-4-4z" opacity=".02"/>
  <path d="M1 43.25v.25c0 2.216 1.784 4 4 4h38c2.216 0 4-1.784 4-4v-.25c0 2.216-1.784 4-4 4H5c-2.216 0-4-1.784-4-4z" opacity=".05"/>
  <path d="M1 43v.25c0 2.216 1.784 4 4 4h38c2.216 0 4-1.784 4-4V43c0 2.216-1.784 4-4 4H5c-2.216 0-4-1.784-4-4z" opacity=".1"/>
  <rect transform="rotate(-90)" x="-47" y="1" width="46" height="46" rx="4" fill="url(#a)"/>
  <path d="M1 39v4c0 2.216 1.784 4 4 4h38c2.216 0 4-1.784 4-4v-4c0 2.216-1.784 4-4 4H5c-2.216 0-4-1.784-4-4z" opacity=".1"/>
  <path d="M24 9C15.715 9 9 15.715 9 24c0 8.281 6.715 14.996 15 14.996 8.281 0 14.996-6.715 14.996-14.996 0-8.285-6.715-15-14.996-15zm0 12.859c.59 0 1.129.238 1.516.621.387.387.625.926.625 1.52 0 .59-.238 1.129-.625 1.516s-.926.625-1.516.625a2.143 2.143 0 0 1-1.52-.625A2.154 2.154 0 0 1 21.859 24c0-.594.238-1.133.621-1.52a2.157 2.157 0 0 1 1.52-.621z" fill-opacity=".098" fill-rule="evenodd"/>
  <path d="M24 8C15.715 8 9 14.715 9 23c0 8.281 6.715 14.996 15 14.996 8.281 0 14.996-6.715 14.996-14.996 0-8.285-6.715-15-14.996-15m0 12.859c.59 0 1.129.238 1.516.621.387.387.625.926.625 1.52 0 .59-.238 1.129-.625 1.516s-.926.625-1.516.625a2.143 2.143 0 0 1-1.52-.625A2.154 2.154 0 0 1 21.859 23c0-.594.238-1.133.621-1.52a2.157 2.157 0 0 1 1.52-.621z" fill-rule="evenodd" fill="url(#b)"/>
  <path d="M34.47 33.68a15.326 15.326 0 0 0 3.273-4.81c.387-.902.68-1.847.883-2.831.199-.983.309-2 .309-3.039H28.3c0 .625-.16 1.226-.39 1.766-.227.54-.616 1.026-1.03 1.435l7.594 7.478M13.496 12.289a15.06 15.06 0 0 0-1.855 2.248 15.08 15.08 0 0 0-1.402 2.578c-.387.904-.68 1.851-.879 2.834-.203.986-.309 2.01-.309 3.051h10.664c0-.629.125-1.23.359-1.77a4.5 4.5 0 0 1 .973-1.44l-7.539-7.496m-.012-.004M10.343 29.21a14.962 14.962 0 0 0 3.059 4.398l7.558-7.566a4.38 4.38 0 0 1-.88-1.273M34.602 12.398L27.04 19.96c.363.363.67.801.885 1.273l9.736-4.445a15.09 15.09 0 0 0-3.059-4.395" fill-opacity=".498" fill="#fff"/>
  <path d="M28.29 23c0 .397-.071.774-.172 1.139L38.466 27c.355-1.302.535-2.647.535-4zM9.535 19.03A15.005 15.005 0 0 0 9 23.003h10.721c0-.393.069-.767.168-1.129L9.535 19.03" fill-opacity=".498" fill="#999"/>
  <path d="M24 8v10.715h.006c.392 0 .764.069 1.125.168l2.842-10.348A15.005 15.005 0 0 0 24 8M22.871 27.11l-2.844 10.352c1.293.355 2.629.535 3.973.535V27.282c-.393 0-.768-.072-1.129-.172z" fill-opacity=".498" fill="#ff8dff"/>
  <path d="M24.01 18.715a4.284 4.284 0 1 0-.001 8.569 4.284 4.284 0 0 0 .001-8.569zm-.006 2.145c.59 0 1.129.238 1.516.621.387.387.625.926.625 1.52 0 .59-.238 1.129-.625 1.516s-.926.625-1.516.625a2.143 2.143 0 0 1-1.52-.625 2.154 2.154 0 0 1-.621-1.516c0-.594.238-1.133.621-1.52a2.157 2.157 0 0 1 1.52-.621z" fill-opacity=".498" fill="#999"/>
  <path d="M31.441 22.01c-2.054-.053-3.58.217-5.322 1.207-.051.503-.265.96-.604 1.299-.006.006-.013.01-.02.015v6.543a1.987 1.987 0 0 0-.495-.07 2 2 0 1 0 2 2c0-.015-.004-.03-.004-.045L27 26.477c1.887-1.352 3.355-1.672 5.5-1.168v4.765a1.965 1.965 0 0 0-.5-.068c-1.102 0-2 .895-2 2s.898 2 2 2a1.997 1.997 0 0 0 1.994-1.941h.002v-.02c0-.013.004-.026.004-.039s-.004-.026-.004-.039v-9.785a40.67 40.67 0 0 0-2.555-.17v-.002z" fill-rule="evenodd" opacity=".1"/>
  <path d="M27 32a2 2 0 1 1-3.999.001A2 2 0 0 1 27 32" fill="#4755d8"/>
  <path d="M27 25.473c1.887-1.352 3.355-1.672 5.5-1.168v5.03c-.105.199-.531 1.176 1.496 1.723v-9.883c-3.805-.344-5.813-.328-8.5 1.41v7.914c.684-1.023-2.789 2.422 1.5 1.457M27 25.472" fill="#4755d8"/>
  <path d="M34 31a2 2 0 1 1-3.999.001A2 2 0 0 1 34 31" fill="#4755d8"/>
</svg>
