<svg width="48" height="48" version="1.1" viewBox="0 0 48 48.000001" xmlns="http://www.w3.org/2000/svg">
 <defs>
  <linearGradient id="linearGradient4501" x1="-47" x2="-1" y1="2.8779e-15" y2="6.1232e-17" gradientUnits="userSpaceOnUse">
   <stop style="stop-color:#393939" offset="0"/>
   <stop style="stop-color:#434343" offset="1"/>
  </linearGradient>
 </defs>
 <g transform="translate(0 3.949e-5)">
  <path d="m1 43v0.25c0 2.216 1.784 4 4 4h38c2.216 0 4-1.784 4-4v-0.25c0 2.216-1.784 4-4 4h-38c-2.216 0-4-1.784-4-4zm0 0.5v0.5c0 2.216 1.784 4 4 4h38c2.216 0 4-1.784 4-4v-0.5c0 2.216-1.784 4-4 4h-38c-2.216 0-4-1.784-4-4z" style="opacity:.02"/>
  <path d="m1 43.25v0.25c0 2.216 1.784 4 4 4h38c2.216 0 4-1.784 4-4v-0.25c0 2.216-1.784 4-4 4h-38c-2.216 0-4-1.784-4-4z" style="opacity:.05"/>
  <path d="m1 43v0.25c0 2.216 1.784 4 4 4h38c2.216 0 4-1.784 4-4v-0.25c0 2.216-1.784 4-4 4h-38c-2.216 0-4-1.784-4-4z" style="opacity:.1"/>
 </g>
 <rect transform="rotate(-90)" x="-47" y="1" width="46" height="46" rx="4" style="fill:url(#linearGradient4501)"/>
 <g transform="translate(0 3.949e-5)">
  <g transform="translate(0 -1004.4)">
   <path d="m1 1043.4v4c0 2.216 1.784 4 4 4h38c2.216 0 4-1.784 4-4v-4c0 2.216-1.784 4-4 4h-38c-2.216 0-4-1.784-4-4z" style="opacity:.1"/>
  </g>
 </g>
 <g transform="translate(-4.744e-7 -1.0002)">
  <g transform="matrix(.85304 0 0 .7966 3.3128 4.3396)">
   <g transform="translate(1,1)"></g>
  </g>
  <g transform="matrix(.85305 0 0 .7966 3.1657 4.1055)">
   <path d="m11.958 11.163c-0.89 0-1.603 0.706-1.603 1.589v4.688h7.03v-4.688c0-0.883-0.712-1.589-1.603-1.589h-3.828zm13.522 3.891s-0.896 1.122-2.986 0.329l0.618 3.832c-0.17-0.305-0.485-0.52-0.859-0.52h-2.697c-0.551 0-0.996 0.449-0.996 1v20.554c0 0.555 0.445 1 0.996 1h2.697c0.551 0 0.996-0.445 0.996-1v-20.17l3.409 21.17s1.01-1.114 3.102-0.321l-4.282-25.874m-15.13 3.641v15.06h7.03v-15.06zm21.279 1.545c-0.958 0.035-3.1 0.292-4.886 1.807l6.04 19.19c3.156 0.191 5.697-1.802 5.697-1.802l-6.347-19.2s-0.189-0.012-0.508 0zm-21.279 14.775v4.69c0 0.883 0.712 1.589 1.603 1.589h3.828c0.89 0 1.603-0.706 1.603-1.589v-4.69h-7.03z" style="opacity:.1"/>
   <path d="m11.959 9.91c-0.89 0-1.603 0.706-1.603 1.589v4.688h7.03v-4.688c0-0.883-0.712-1.589-1.603-1.589zm-1.603 7.532v15.06h7.03v-15.06zm-1e-3 16.32 1e-3 4.69c0 0.883 0.712 1.589 1.603 1.589h3.829c0.89 0 1.603-0.706 1.603-1.589l-1e-3 -4.69z" style="fill:#faff59"/>
   <path d="m22.255 17.442c0.551 0 0.996 0.449 0.996 1v20.554c0 0.555-0.445 1-0.996 1h-2.697c-0.551 0-0.996-0.445-0.996-1v-20.554c0-0.551 0.445-1 0.996-1" style="fill:#ff7153"/>
   <path d="m22.496 14.13c2.09 0.793 2.984-0.328 2.984-0.328l4.281 25.873c-2.094-0.793-3.101 0.323-3.101 0.323" style="fill:#61b4ff"/>
   <path d="m26.75 20.794c2.382-2.02 5.392-1.806 5.392-1.806l6.348 19.19s-2.542 1.993-5.698 1.802" style="fill:#f9994c"/>
  </g>
 </g>
</svg>
