<svg width="48" height="48" viewBox="0 0 48 48.000001" xmlns="http://www.w3.org/2000/svg">
  <defs>
    <linearGradient id="a" x1="-47" x2="-1" gradientUnits="userSpaceOnUse">
      <stop offset="0" stop-color="#6cb85a"/>
      <stop offset="1" stop-color="#79be69"/>
    </linearGradient>
  </defs>
  <path d="M1 43v.25c0 2.216 1.784 4 4 4h38c2.216 0 4-1.784 4-4V43c0 2.216-1.784 4-4 4H5c-2.216 0-4-1.784-4-4zm0 .5v.5c0 2.216 1.784 4 4 4h38c2.216 0 4-1.784 4-4v-.5c0 2.216-1.784 4-4 4H5c-2.216 0-4-1.784-4-4z" opacity=".02"/>
  <path d="M1 43.25v.25c0 2.216 1.784 4 4 4h38c2.216 0 4-1.784 4-4v-.25c0 2.216-1.784 4-4 4H5c-2.216 0-4-1.784-4-4z" opacity=".05"/>
  <path d="M1 43v.25c0 2.216 1.784 4 4 4h38c2.216 0 4-1.784 4-4V43c0 2.216-1.784 4-4 4H5c-2.216 0-4-1.784-4-4z" opacity=".1"/>
  <rect transform="rotate(-90)" x="-47" y="1" width="46" height="46" rx="4" fill="url(#a)"/>
  <path d="M1 39v4c0 2.216 1.784 4 4 4h38c2.216 0 4-1.784 4-4v-4c0 2.216-1.784 4-4 4H5c-2.216 0-4-1.784-4-4zM13.875 11a.864.864 0 0 0-.875.875v24.25c0 .492.383.875.875.875h20.25c.492 0 .9-.384.875-.875v-19.12l-6-6H13.88z" opacity=".1"/>
  <path d="M14.874 9.998a.864.864 0 0 0-.875.876v24.25c0 .492.383.875.875.875h18.252a.864.864 0 0 0 .875-.875V15.997l-5.999-5.999" fill="#e8e8d9"/>
  <path d="M27.999 9.998v6h5.999" fill="#fff"/>
  <path d="M34.001 22v-6h-5.999" fill-opacity=".2"/>
  <circle cx="24" cy="25" r="6" fill="#909090"/>
  <path fill="#909090" d="M16 23h3v4h-3zM29 23h3v4h-3zM22 20v-3h4v3zM22 33v-3h4v3z"/>
  <g>
    <path d="M13.875 9.998a.864.864 0 0 0-.875.876v24.25c0 .492.383.875.875.875h20.25a.864.864 0 0 0 .875-.875V15.997l-5.998-5.999" fill="#e8e8d9"/>
    <path d="M28.998 9.998v6h5.999" fill="#fff"/>
    <path d="M35 22v-6h-5.998" fill-opacity=".2"/>
  </g>
  <path d="M23 17c-.554 0-1 .446-1 1v.82a6.5 6.5 0 0 0-.955.396l-.58-.58a.997.997 0 0 0-1.414 0l-1.414 1.414a.997.997 0 0 0 0 1.414l.576.576a6.5 6.5 0 0 0-.389.959H17c-.554 0-1 .446-1 1v2c0 .554.446 1 1 1h.82a6.5 6.5 0 0 0 .396.955l-.58.58a.997.997 0 0 0 0 1.414l1.414 1.414a.997.997 0 0 0 1.414 0l.576-.576a6.5 6.5 0 0 0 .959.389v.824c0 .554.446 1 1 1h2c.554 0 1-.446 1-1v-.82a6.5 6.5 0 0 0 .955-.396l.58.58a.997.997 0 0 0 1.414 0l1.414-1.414a.997.997 0 0 0 0-1.414l-.576-.576a6.5 6.5 0 0 0 .389-.959h.824c.554 0 1-.446 1-1v-2c0-.554-.446-1-1-1h-.82a6.5 6.5 0 0 0-.396-.955l.58-.58a.997.997 0 0 0 0-1.414l-1.414-1.414a.997.997 0 0 0-1.414 0l-.576.576a6.5 6.5 0 0 0-.959-.389V18c0-.554-.446-1-1-1zm1 6a2 2 0 0 1 2 2 2 2 0 0 1-2 2 2 2 0 0 1-2-2 2 2 0 0 1 2-2z" fill="#888"/>
</svg>
