<svg version="1.1" viewBox="0 0 48 48" xmlns="http://www.w3.org/2000/svg">
 <defs>
  <linearGradient id="bg" x2="0" y1="1" y2="47" gradientUnits="userSpaceOnUse">
   <stop style="stop-color:#eee" offset="0"/>
   <stop style="stop-color:#e4e4e4" offset="1"/>
  </linearGradient>
 </defs>
 <path d="m1 43v0.25c0 2.216 1.784 4 4 4h38c2.216 0 4-1.784 4-4v-0.25c0 2.216-1.784 4-4 4h-38c-2.216 0-4-1.784-4-4zm0 0.5v0.5c0 2.216 1.784 4 4 4h38c2.216 0 4-1.784 4-4v-0.5c0 2.216-1.784 4-4 4h-38c-2.216 0-4-1.784-4-4z" style="opacity:.02"/>
 <path d="m1 43.25v0.25c0 2.216 1.784 4 4 4h38c2.216 0 4-1.784 4-4v-0.25c0 2.216-1.784 4-4 4h-38c-2.216 0-4-1.784-4-4z" style="opacity:.05"/>
 <path d="m1 43v0.25c0 2.216 1.784 4 4 4h38c2.216 0 4-1.784 4-4v-0.25c0 2.216-1.784 4-4 4h-38c-2.216 0-4-1.784-4-4z" style="opacity:.1"/>
 <rect x="1" y="1" width="46" height="46" rx="4" style="fill:url(#bg)"/>
 <path d="m1 39v4c0 2.216 1.784 4 4 4h38c2.216 0 4-1.784 4-4v-4c0 2.216-1.784 4-4 4h-38c-2.216 0-4-1.784-4-4z" style="opacity:.1"/>
 <path d="m24.712 10.999-2.75 4.852-4.867-2.672c-0.121-0.066-0.272-0.022-0.338 0.1l-2.73 5c-0.066 0.122-0.021 0.272 0.1 0.338l4.709 2.586-5.836 10.172 10.15 5.625 5.768-10.264 4.979 2.734c0.121 0.066 0.272 0.022 0.338-0.1l2.729-5c0.066-0.122 0.023-0.273-0.098-0.34l-4.771-2.619 2.906-5.068m-10.11-3.773c0.414 0 0.75 0.336 0.75 0.75s-0.336 0.75-0.75 0.75-0.75-0.336-0.75-0.75 0.336-0.75 0.75-0.75zm-1.811 3.26c0.414 0 0.75 0.336 0.75 0.75 0 0.092-0.017 0.184-0.051 0.27l-1.303-0.715c0.141-0.192 0.365-0.305 0.604-0.305zm9.42 0.939c0.414 0 0.75 0.336 0.75 0.75s-0.336 0.75-0.75 0.75-0.75-0.336-0.75-0.75 0.336-0.75 0.75-0.75zm-1.83 3.311c0.414 0 0.75 0.336 0.75 0.75 0 0.067-9e-3 0.134-0.027 0.199l-1.279-0.701c0.142-0.158 0.344-0.248 0.557-0.248zm-12 3.301c0.414 0 0.75 0.336 0.75 0.75s-0.336 0.75-0.75 0.75-0.75-0.336-0.75-0.75 0.336-0.75 0.75-0.75zm-1.83 3.27c0.414 0 0.75 0.336 0.75 0.75s-0.336 0.75-0.75 0.75-0.75-0.336-0.75-0.75 0.336-0.75 0.75-0.75zm9.59 1.01c0.414 0 0.75 0.336 0.75 0.75s-0.336 0.75-0.75 0.75-0.75-0.336-0.75-0.75 0.336-0.75 0.75-0.75zm-11.59 2.391c0.414 0 0.75 0.336 0.75 0.75s-0.336 0.75-0.75 0.75-0.75-0.336-0.75-0.75 0.336-0.75 0.75-0.75zm9.801 0.949c0.414 0 0.75 0.336 0.75 0.75s-0.336 0.75-0.75 0.75c-0.36 0-0.67-0.257-0.736-0.611 0-5e-3 0-9e-3 -2e-3 -0.014-7e-3 -0.041-0.011-0.083-0.012-0.125 0-0.046 5e-3 -0.092 0.014-0.137 0-4e-3 0-8e-3 2e-3 -0.012 0.071-0.35 0.378-0.601 0.734-0.602zm-2 3.369c0.414 0 0.75 0.336 0.75 0.75s-0.336 0.75-0.75 0.75-0.75-0.336-0.75-0.75 0.336-0.75 0.75-0.75z" style="opacity:.1"/>
 <path d="m27.189 11.279c-2.599 2.495-3.1753 4.3105-3.7793 6.5605l5.0645 2.6895c1.632-1.827 3.162-3.754 3.75-6.625l-5.0352-2.625zm-4.5684 7.9199c-0.509 0.012-7.4388 12.03-7.2168 12.51l5.4395 3.0098c0.485-0.088 7.1347-12.418 6.8047-12.768l-5.0273-2.752z" style="fill:#3b669d"/>
 <path d="m24.719 9.998-3.7188 6.5645 2.4062 1.2812 3.7812-6.5645-2.4688-1.2813zm0.18164 1.5703a0.75 0.75 0 0 1 0.75 0.75 0.75 0.75 0 0 1-0.75 0.75 0.75 0.75 0 0 1-0.75-0.75 0.75 0.75 0 0 1 0.75-0.75zm7.3203 2.3359c-0.738 1.289-1.984 3.496-3.75 6.625l2.7188 1.4688 3.8164-6.6543-2.7812-1.4395h-0.003906zm-9.1309 0.92383a0.75 0.75 0 0 1 0.75 0.75 0.75 0.75 0 0 1-0.75 0.75 0.75 0.75 0 0 1-0.75-0.75 0.75 0.75 0 0 1 0.75-0.75zm9.4199 0.93945a0.75 0.75 0 0 1 0.75 0.75 0.75 0.75 0 0 1-0.75 0.75 0.75 0.75 0 0 1-0.75-0.75 0.75 0.75 0 0 1 0.75-0.75zm-12.32 2.0762 0.003906 0.001953v-0.001953h-0.003906zm0.003906 0.001953-7.1875 12.527 2.3945 1.3457 7.2305-12.531-2.4375-1.3418zm10.486 1.2324a0.75 0.75 0 0 1 0.75 0.75 0.75 0.75 0 0 1-0.75 0.75 0.75 0.75 0 0 1-0.75-0.75 0.75 0.75 0 0 1 0.75-0.75zm-10.199 0.18164a0.75 0.75 0 0 1 0.75 0.75 0.75 0.75 0 0 1-0.75 0.75 0.75 0.75 0 0 1-0.75-0.75 0.75 0.75 0 0 1 0.75-0.75zm7.1758 2.6758v0.001953l-6.8125 12.781 2.3125 1.2793 7.0938-12.625-2.5938-1.4375zm-8.9766 0.44531a0.75 0.75 0 0 1 0.75 0.75 0.75 0.75 0 0 1-0.75 0.75 0.75 0.75 0 0 1-0.75-0.75 0.75 0.75 0 0 1 0.75-0.75zm9.4902 0.91992a0.75 0.75 0 0 1 0.75 0.75 0.75 0.75 0 0 1-0.75 0.75 0.75 0.75 0 0 1-0.75-0.75 0.75 0.75 0 0 1 0.75-0.75zm-11.32 2.3496a0.75 0.75 0 0 1 0.75 0.75 0.75 0.75 0 0 1-0.75 0.75 0.75 0.75 0 0 1-0.75-0.75 0.75 0.75 0 0 1 0.75-0.75zm9.5898 1.0078a0.75 0.75 0 0 1 0.75 0.75 0.75 0.75 0 0 1-0.75 0.75 0.75 0.75 0 0 1-0.75-0.75 0.75 0.75 0 0 1 0.75-0.75zm-11.59 2.3926a0.75 0.75 0 0 1 0.75 0.75 0.75 0.75 0 0 1-0.75 0.75 0.75 0.75 0 0 1-0.75-0.75 0.75 0.75 0 0 1 0.75-0.75zm9.8008 0.94727a0.75 0.75 0 0 1 0.75 0.75 0.75 0.75 0 0 1-0.75 0.75 0.75 0.75 0 0 1-0.73633-0.60938c0-5e-3 4.7e-5 -0.010625-0.001953-0.015625a0.75 0.75 0 0 1-0.011718-0.125 0.75 0.75 0 0 1 0.013671-0.13672c0-4e-3 0.001907-0.007719 0.003907-0.011719a0.75 0.75 0 0 1 0.73242-0.60156zm-2 3.3691a0.75 0.75 0 0 1 0.75 0.75 0.75 0.75 0 0 1-0.75 0.75 0.75 0.75 0 0 1-0.75-0.75 0.75 0.75 0 0 1 0.75-0.75z" style="fill:#3d3d3d"/>
 <rect transform="matrix(.87661 .48121 -.47924 .87768 0 0)" x="20.598" y="2.4463" width="23.05" height="6.196" rx=".249" ry=".25" style="fill-opacity:.667;fill:#61171f"/>
</svg>
