<svg width="48" height="48" viewBox="0 0 48 48.000001" xmlns="http://www.w3.org/2000/svg">
  <defs>
    <linearGradient id="a" x1="-47" x2="-1" gradientUnits="userSpaceOnUse">
      <stop offset="0" stop-color="#98c15f"/>
      <stop offset="1" stop-color="#a1c76d"/>
    </linearGradient>
  </defs>
  <path d="M1 43v.25c0 2.216 1.784 4 4 4h38c2.216 0 4-1.784 4-4V43c0 2.216-1.784 4-4 4H5c-2.216 0-4-1.784-4-4zm0 .5v.5c0 2.216 1.784 4 4 4h38c2.216 0 4-1.784 4-4v-.5c0 2.216-1.784 4-4 4H5c-2.216 0-4-1.784-4-4z" opacity=".02"/>
  <path d="M1 43.25v.25c0 2.216 1.784 4 4 4h38c2.216 0 4-1.784 4-4v-.25c0 2.216-1.784 4-4 4H5c-2.216 0-4-1.784-4-4z" opacity=".05"/>
  <path d="M1 43v.25c0 2.216 1.784 4 4 4h38c2.216 0 4-1.784 4-4V43c0 2.216-1.784 4-4 4H5c-2.216 0-4-1.784-4-4z" opacity=".1"/>
  <rect transform="rotate(-90)" x="-47" y="1" width="46" height="46" rx="4" fill="url(#a)"/>
  <path d="M11 13v19h10v3h16V16H27v-3H11z" opacity=".1"/>
  <g>
    <path d="M1 39v4c0 2.216 1.784 4 4 4h38c2.216 0 4-1.784 4-4v-4c0 2.216-1.784 4-4 4H5c-2.216 0-4-1.784-4-4z" opacity=".1"/>
  </g>
  <g>
    <path fill="#e8ebe1" d="M21 15h16v19H21z"/>
    <g fill="#aaa">
      <path d="M23 17h12v1H23zM26 19h9v1h-9zM26 21h6v1h-6zM26 23h7v1h-7zM26 25h9v1h-9zM23 27h9v1h-9zM23 29h12v1H23zM23 31h12v1H23z"/>
    </g>
    <path d="M21 15v17h6V15h-6z" opacity=".1"/>
    <path fill="#f1f3ed" d="M11 12h16v19H11z"/>
    <path fill="#b4b4b4" d="M13 14h12v1H13zM13 16h9v1h-9zM16 18h9v1h-9zM16 20h9v1h-9zM13 22h9v1h-9zM13 24h9v1h-9zM13 26h12v1H13zM13 28h12v1H13z"/>
  </g>
</svg>
