<svg version="1.1" viewBox="0 0 48 48" xmlns="http://www.w3.org/2000/svg">
 <defs>
  <linearGradient id="bg" x2="0" y1="1" y2="47" gradientUnits="userSpaceOnUse">
   <stop style="stop-color:#d85430" offset="0"/>
   <stop style="stop-color:#cd4a27" offset="1"/>
  </linearGradient>
 </defs>
 <path d="m1 43v0.25c0 2.216 1.784 4 4 4h38c2.216 0 4-1.784 4-4v-0.25c0 2.216-1.784 4-4 4h-38c-2.216 0-4-1.784-4-4zm0 0.5v0.5c0 2.216 1.784 4 4 4h38c2.216 0 4-1.784 4-4v-0.5c0 2.216-1.784 4-4 4h-38c-2.216 0-4-1.784-4-4z" style="opacity:.02"/>
 <path d="m1 43.25v0.25c0 2.216 1.784 4 4 4h38c2.216 0 4-1.784 4-4v-0.25c0 2.216-1.784 4-4 4h-38c-2.216 0-4-1.784-4-4z" style="opacity:.05"/>
 <path d="m1 43v0.25c0 2.216 1.784 4 4 4h38c2.216 0 4-1.784 4-4v-0.25c0 2.216-1.784 4-4 4h-38c-2.216 0-4-1.784-4-4z" style="opacity:.1"/>
 <rect x="1" y="1" width="46" height="46" rx="4" style="fill:url(#bg)"/>
 <path d="m1 39v4c0 2.216 1.784 4 4 4h38c2.216 0 4-1.784 4-4v-4c0 2.216-1.784 4-4 4h-38c-2.216 0-4-1.784-4-4z" style="opacity:.1"/>
 <path d="m33 13c-1.5 0-2.4967 1.0673-3.082 1.9453-0.1388 0.2082-0.25832 0.4144-0.36328 0.60938l-1.5547-1.5547-1.8945 1.8945a10 10 0 0 0-4.1055-0.89453 10 10 0 0 0-10 10 10 10 0 0 0 10 10 10 10 0 0 0 10-10 10 10 0 0 0-0.89258-4.1074l1.8926-1.8926-1.9453-1.9453c0.09468-0.2346 0.24892-0.58236 0.52734-1 0.41466-0.62199 0.91794-1.0547 1.418-1.0547 0.25 0 0.30908 0.04456 0.42969 0.17188 0.12061 0.12731 0.26202 0.38777 0.35937 0.72852 0.19471 0.68148 0.21094 1.5996 0.21094 2.0996 0 1.2778-0.32188 1.6758-0.78125 2.25s-1.2188 1.4167-1.2188 2.75c0 3.4444 2.293 5.707 2.293 5.707a1.0001 1.0001 0 1 0 1.4141-1.4141s-1.707-1.7374-1.707-4.293c0-0.66667 0.24062-0.82421 0.78125-1.5s1.2188-1.7778 1.2188-3.5c0-0.5 0.01623-1.5819-0.28906-2.6504-0.15264-0.53426-0.38622-1.0863-0.82813-1.5527-0.44189-0.46644-1.1328-0.79688-1.8828-0.79688zm-11 4c4.4183 0 8 3.5817 8 8s-3.5817 8-8 8c-2.1658 0-4.126-0.86563-5.5664-2.2637-0.0288-0.02795-0.06146-0.0517-0.08984-0.08008-0.08595-0.08596-0.15982-0.17208-0.22461-0.25781a8 8 0 0 0 0.31445 0.33789 8 8 0 0 0 1.709 1.2617c1.9514-5.61e-4 3.8814-0.02206 4.8574-0.99804 1-1-1.015-2.0153 0-3l1-1-4-1 4-2s-1 0-2-1 0-1 0-1 3 0 3-1c-2-1-3-4-3-4zm6 5-3 1v1l3-1zm-3 3v1h3v-1zm0 2v1l3 1v-1z" style="opacity:.1;paint-order:stroke fill markers"/>
 <path d="m33 12c-1.5 0-2.4967 1.0673-3.082 1.9453-0.1388 0.2082-0.25832 0.4144-0.36328 0.60938l-1.5547-1.5547-1.8945 1.8945a10 10 0 0 0-4.1055-0.89453 10 10 0 0 0-10 10 10 10 0 0 0 10 10 10 10 0 0 0 10-10 10 10 0 0 0-0.89258-4.1074l1.8926-1.8926-1.9453-1.9453c0.09468-0.2346 0.24892-0.58236 0.52734-1 0.41466-0.62199 0.91797-1.0547 1.418-1.0547 0.25 0 0.30908 0.04457 0.42969 0.17188s0.26202 0.38777 0.35937 0.72852c0.19471 0.68148 0.21094 1.5996 0.21094 2.0996 0 1.2778-0.32188 1.6758-0.78125 2.25s-1.2188 1.4167-1.2188 2.75c0 3.4444 2.293 5.707 2.293 5.707a1.0001 1.0001 0 1 0 1.4141-1.4141s-1.707-1.7374-1.707-4.293c0-0.66667 0.24062-0.82421 0.78125-1.5s1.2188-1.7778 1.2188-3.5c0-0.5 0.01623-1.5819-0.28906-2.6504-0.15264-0.53426-0.38623-1.0863-0.82813-1.5527-0.44189-0.46644-1.1328-0.79688-1.8828-0.79688zm-11 4c4.4183 0 8 3.5817 8 8s-3.5817 8-8 8c-2.2091 0-4.2085-0.89604-5.6562-2.3438s0.25-2.8377 0.25-5.0469 0.89408-4.2085 2.3418-5.6562 0.85531-2.9531 3.0645-2.9531z" style="fill:#383838;paint-order:stroke fill markers"/>
 <path d="m22 16a8 8 0 0 0-8 8 8 8 0 0 0 4.1426 6.998c1.9514-5.63e-4 3.8814-0.02206 4.8574-0.99805 1-1-1.015-2.0153 0-3l1-1-4-1 4-2s-1 0-2-1 0-1 0-1 3 0 3-1c-2-1-3-4-3-4zm6 5-3 1v1l3-1zm-3 3v1h3v-1zm0 2v1l3 1v-1z" style="fill:#f9f9f9"/>
</svg>
