<svg width="48" height="48" viewBox="0 0 48 48.000001" xmlns="http://www.w3.org/2000/svg">
  <defs>
    <linearGradient id="a" x1="-47" x2="-1" gradientUnits="userSpaceOnUse">
      <stop offset="0" stop-color="#3f65d9"/>
      <stop offset="1" stop-color="#5072dc"/>
    </linearGradient>
  </defs>
  <path d="M1 43v.25c0 2.216 1.784 4 4 4h38c2.216 0 4-1.784 4-4V43c0 2.216-1.784 4-4 4H5c-2.216 0-4-1.784-4-4zm0 .5v.5c0 2.216 1.784 4 4 4h38c2.216 0 4-1.784 4-4v-.5c0 2.216-1.784 4-4 4H5c-2.216 0-4-1.784-4-4z" opacity=".02"/>
  <path d="M1 43.25v.25c0 2.216 1.784 4 4 4h38c2.216 0 4-1.784 4-4v-.25c0 2.216-1.784 4-4 4H5c-2.216 0-4-1.784-4-4z" opacity=".05"/>
  <path d="M1 43v.25c0 2.216 1.784 4 4 4h38c2.216 0 4-1.784 4-4V43c0 2.216-1.784 4-4 4H5c-2.216 0-4-1.784-4-4z" opacity=".1"/>
  <rect transform="rotate(-90)" x="-47" y="1" width="46" height="46" rx="4" fill="url(#a)"/>
  <path d="M1 39v4c0 2.216 1.784 4 4 4h38c2.216 0 4-1.784 4-4v-4c0 2.216-1.784 4-4 4H5c-2.216 0-4-1.784-4-4zM15.03 15.186a6.574 8.806 39.81 0 0-1.514 11.154 6.574 8.806 39.81 0 0 8.935-.156l8.852 9.318a1.547 1.547 0 0 0 2.271 0l.757-.797a1.75 1.75 0 0 0 0-2.39l-2.649-2.789.757-.797 1.135 1.195c.21.221.547.221.757 0l1.514-1.593a.583.583 0 0 0 0-.797L32.06 23.55a.515.515 0 0 0-.757 0l-1.514 1.593a.583.583 0 0 0 0 .797l1.135 1.195-.757.797-4.691-4.938a6.574 8.806 39.81 0 0 .149-9.404 6.574 8.806 39.81 0 0-10.597 1.593zm.757 4.382a2.944 3.099 0 0 1 2.59-.859 2.944 3.099 0 0 1 .816-2.726 2.944 3.099 0 0 1 4.163 0 2.944 3.099 0 0 1 0 4.382 2.944 3.099 0 0 1-2.59.859 2.944 3.099 0 0 1-.816 2.726 2.944 3.099 0 0 1-4.163 0 2.944 3.099 0 0 1 0-4.382z" opacity=".1"/>
  <path d="M15.03 14.186a6.574 8.806 39.81 0 0-1.514 11.154 6.574 8.806 39.81 0 0 8.935-.156l8.852 9.318a1.547 1.547 0 0 0 2.271 0l.757-.797a1.75 1.75 0 0 0 0-2.39l-2.649-2.789.757-.797 1.135 1.195c.21.221.547.221.757 0l1.514-1.593a.583.583 0 0 0 0-.797L32.06 22.55a.515.515 0 0 0-.757 0l-1.514 1.593a.583.583 0 0 0 0 .797l1.135 1.195-.757.797-4.691-4.938a6.574 8.806 39.81 0 0 .149-9.404 6.574 8.806 39.81 0 0-10.597 1.593zm.757 4.382a2.944 3.099 0 0 1 2.59-.859 2.944 3.099 0 0 1 .816-2.726 2.944 3.099 0 0 1 4.163 0 2.944 3.099 0 0 1 0 4.382 2.944 3.099 0 0 1-2.59.859 2.944 3.099 0 0 1-.816 2.726 2.944 3.099 0 0 1-4.163 0 2.944 3.099 0 0 1 0-4.382z" fill="#dae9f2"/>
</svg>
