<?xml version="1.0" encoding="UTF-8" standalone="no"?>
<svg
   xmlns:dc="http://purl.org/dc/elements/1.1/"
   xmlns:cc="http://creativecommons.org/ns#"
   xmlns:rdf="http://www.w3.org/1999/02/22-rdf-syntax-ns#"
   xmlns:svg="http://www.w3.org/2000/svg"
   xmlns="http://www.w3.org/2000/svg"
   xmlns:sodipodi="http://sodipodi.sourceforge.net/DTD/sodipodi-0.dtd"
   xmlns:inkscape="http://www.inkscape.org/namespaces/inkscape"
   viewBox="0 0 48 48"
   version="1.1"
   id="svg17246"
   sodipodi:docname="kicad.svg">
  <metadata
     id="metadata17250">
    <rdf:RDF>
      <cc:Work
         rdf:about="">
        <dc:format>image/svg+xml</dc:format>
        <dc:type
           rdf:resource="http://purl.org/dc/dcmitype/StillImage" />
      </cc:Work>
    </rdf:RDF>
  </metadata>
  <sodipodi:namedview
     pagecolor="#ffffff"
     bordercolor="#666666"
     borderopacity="1"
     objecttolerance="10"
     gridtolerance="10"
     guidetolerance="10"
     inkscape:pageopacity="0"
     inkscape:pageshadow="2"
     inkscape:window-width="640"
     inkscape:window-height="480"
     id="namedview17248" />
  <defs
     id="defs17186">
    <linearGradient
       id="linearGradient3764"
       x1="1"
       x2="47"
       gradientUnits="userSpaceOnUse"
       gradientTransform="translate(-48.000001,0.00221467)">
      <stop
         stop-color="#3d3d3d"
         stop-opacity="1"
         id="stop17171" />
      <stop
         offset="1"
         stop-color="#474747"
         stop-opacity="1"
         id="stop17173" />
    </linearGradient>
    <clipPath
       id="clipPath-105945771">
      <g
         transform="translate(0,-1004.3622)"
         id="g17178">
        <rect
           rx="4"
           y="1005.36"
           x="1"
           height="46"
           width="46"
           fill="#1890d0"
           id="rect17176" />
      </g>
    </clipPath>
    <clipPath
       id="clipPath-120399314">
      <g
         transform="translate(0,-1004.3622)"
         id="g17183">
        <rect
           rx="4"
           y="1005.36"
           x="1"
           height="46"
           width="46"
           fill="#1890d0"
           id="rect17181" />
      </g>
    </clipPath>
  </defs>
  <g
     id="g17194">
    <path
       d="m 1 43 l 0 0.25 c 0 2.216 1.784 4 4 4 l 38 0 c 2.216 0 4 -1.784 4 -4 l 0 -0.25 c 0 2.216 -1.784 4 -4 4 l -38 0 c -2.216 0 -4 -1.784 -4 -4 z m 0 0.5 l 0 0.5 c 0 2.216 1.784 4 4 4 l 38 0 c 2.216 0 4 -1.784 4 -4 l 0 -0.5 c 0 2.216 -1.784 4 -4 4 l -38 0 c -2.216 0 -4 -1.784 -4 -4 z"
       opacity="0.02"
       id="path17188" />
    <path
       d="m 1 43.25 l 0 0.25 c 0 2.216 1.784 4 4 4 l 38 0 c 2.216 0 4 -1.784 4 -4 l 0 -0.25 c 0 2.216 -1.784 4 -4 4 l -38 0 c -2.216 0 -4 -1.784 -4 -4 z"
       opacity="0.05"
       id="path17190" />
    <path
       d="m 1 43 l 0 0.25 c 0 2.216 1.784 4 4 4 l 38 0 c 2.216 0 4 -1.784 4 -4 l 0 -0.25 c 0 2.216 -1.784 4 -4 4 l -38 0 c -2.216 0 -4 -1.784 -4 -4 z"
       opacity="0.1"
       id="path17192" />
  </g>
  <g
     id="g17198">
    <rect
       width="46"
       height="46"
       x="-47"
       y="1"
       rx="4"
       transform="matrix(0,-1,1,0,0,0)"
       fill="url(#linearGradient3764)"
       fill-opacity="1"
       id="rect17196" />
  </g>
  <g
     id="g17218">
    <g
       clip-path="url(#clipPath-105945771)"
       id="g17216">
      <g
         opacity="0.1"
         id="g17214">
        <!-- color: #474747 -->
        <g
           id="g17212">
          <path
             d="m 24 11 c -7.18 0 -13 5.813 -13 12.996 c 0 7.18 5.82 13 13 13 c 7.176 0 13 -5.824 13 -13 c 0 -7.184 -5.824 -12.996 -13 -12.996 m 0 3.121 c 5.457 0 9.879 4.418 9.879 9.875 c 0 5.457 -4.422 9.891 -9.879 9.891 c -5.457 0 -9.879 -4.43 -9.879 -9.891 c 0 -5.457 4.422 -9.875 9.879 -9.875 m 0 0"
             stroke="none"
             fill-rule="nonzero"
             fill-opacity="1"
             fill="#000"
             id="path17200" />
          <path
             d="m 11.34 21 c -0.438 2 -0.469 4.125 0 6 l 5.914 0 l 0 -1 l 19.617 -0.012 c 0.176 -1.332 0.152 -2.656 0.016 -3.988 l -19.629 0 l 0 -1 m -5.918 0"
             stroke="none"
             fill-rule="nonzero"
             fill-opacity="1"
             fill="#000"
             id="path17202" />
          <path
             d="m 33.848 11 l 3.156 0 l 0 3.156 l -3.156 0 m 0 -3.156"
             stroke="none"
             fill-rule="nonzero"
             fill-opacity="1"
             fill="#000"
             id="path17204" />
          <path
             d="m 33.848 33.848 l 3.156 0 l 0 3.156 l -3.156 0 m 0 -3.156"
             stroke="none"
             fill-rule="nonzero"
             fill-opacity="1"
             fill="#000"
             id="path17206" />
          <path
             d="m 11 11 l 3.156 0 l 0 3.156 l -3.156 0 m 0 -3.156"
             stroke="none"
             fill-rule="nonzero"
             fill-opacity="1"
             fill="#000"
             id="path17208" />
          <path
             d="m 11 33.848 l 3.156 0 l 0 3.156 l -3.156 0 m 0 -3.156"
             stroke="none"
             fill-rule="nonzero"
             fill-opacity="1"
             fill="#000"
             id="path17210" />
        </g>
      </g>
    </g>
  </g>
  <g
     id="g17238">
    <g
       clip-path="url(#clipPath-120399314)"
       id="g17236">
      <g
         transform="translate(0,-1)"
         id="g17234">
        <!-- color: #474747 -->
        <g
           id="g17232">
          <path
             d="m 24 11 c -7.18 0 -13 5.813 -13 12.996 c 0 7.18 5.82 13 13 13 c 7.176 0 13 -5.824 13 -13 c 0 -7.184 -5.824 -12.996 -13 -12.996 m 0 3.121 c 5.457 0 9.879 4.418 9.879 9.875 c 0 5.457 -4.422 9.891 -9.879 9.891 c -5.457 0 -9.879 -4.43 -9.879 -9.891 c 0 -5.457 4.422 -9.875 9.879 -9.875 m 0 0"
             fill="#33a3e5"
             stroke="none"
             fill-rule="nonzero"
             fill-opacity="1"
             id="path17220" />
          <path
             d="m 11.34 21 c -0.438 2 -0.469 4.125 0 6 l 5.914 0 l 0 -1 l 19.617 -0.012 c 0.176 -1.332 0.152 -2.656 0.016 -3.988 l -19.629 0 l 0 -1 m -5.918 0"
             fill="#f9f9f9"
             stroke="none"
             fill-rule="nonzero"
             fill-opacity="1"
             id="path17222" />
          <path
             d="m 33.848 11 l 3.156 0 l 0 3.156 l -3.156 0 m 0 -3.156"
             fill="#33a3e5"
             stroke="none"
             fill-rule="nonzero"
             fill-opacity="1"
             id="path17224" />
          <path
             d="m 33.848 33.848 l 3.156 0 l 0 3.156 l -3.156 0 m 0 -3.156"
             fill="#33a3e5"
             stroke="none"
             fill-rule="nonzero"
             fill-opacity="1"
             id="path17226" />
          <path
             d="m 11 11 l 3.156 0 l 0 3.156 l -3.156 0 m 0 -3.156"
             fill="#33a3e5"
             stroke="none"
             fill-rule="nonzero"
             fill-opacity="1"
             id="path17228" />
          <path
             d="m 11 33.848 l 3.156 0 l 0 3.156 l -3.156 0 m 0 -3.156"
             fill="#33a3e5"
             stroke="none"
             fill-rule="nonzero"
             fill-opacity="1"
             id="path17230" />
        </g>
      </g>
    </g>
  </g>
  <g
     id="g17244">
    <g
       transform="translate(0,-1004.3622)"
       id="g17242">
      <path
         d="m 1 1043.36 0 4 c 0 2.216 1.784 4 4 4 l 38 0 c 2.216 0 4 -1.784 4 -4 l 0 -4 c 0 2.216 -1.784 4 -4 4 l -38 0 c -2.216 0 -4 -1.784 -4 -4 z"
         opacity="0.1"
         id="path17240" />
    </g>
  </g>
</svg>
