<svg width="48" height="48" viewBox="0 0 48 48.000001" xmlns="http://www.w3.org/2000/svg">
  <defs>
    <linearGradient id="a" x1="-47" x2="-1" gradientUnits="userSpaceOnUse">
      <stop offset="0" stop-color="#d9c3cb"/>
      <stop offset="1" stop-color="#e1d0d6"/>
    </linearGradient>
  </defs>
  <path d="M1 43v.25c0 2.216 1.784 4 4 4h38c2.216 0 4-1.784 4-4V43c0 2.216-1.784 4-4 4H5c-2.216 0-4-1.784-4-4zm0 .5v.5c0 2.216 1.784 4 4 4h38c2.216 0 4-1.784 4-4v-.5c0 2.216-1.784 4-4 4H5c-2.216 0-4-1.784-4-4z" opacity=".02"/>
  <path d="M1 43.25v.25c0 2.216 1.784 4 4 4h38c2.216 0 4-1.784 4-4v-.25c0 2.216-1.784 4-4 4H5c-2.216 0-4-1.784-4-4z" opacity=".05"/>
  <path d="M1 43v.25c0 2.216 1.784 4 4 4h38c2.216 0 4-1.784 4-4V43c0 2.216-1.784 4-4 4H5c-2.216 0-4-1.784-4-4z" opacity=".1"/>
  <rect transform="rotate(-90)" x="-47" y="1" width="46" height="46" rx="4" fill="url(#a)"/>
  <path d="M1 39v4c0 2.216 1.784 4 4 4h38c2.216 0 4-1.784 4-4v-4c0 2.216-1.784 4-4 4H5c-2.216 0-4-1.784-4-4z" opacity=".1"/>
  <g>
    <g opacity=".1">
      <path d="M24.003 12c-5.586 0-10.258 3.832-11.594 9h23.19c-1.34-5.168-6.01-9-11.594-9M12.4 27c1.336 5.168 6.01 9 11.594 9 5.594 0 10.266-3.832 11.602-9h-23.19m.004 0M13.003 21h22v6h-22m0-6"/>
      <path d="M26.003 24a2 2 0 1 1-3.999.001A2 2 0 0 1 26.003 24M19.003 24a2 2 0 1 1-3.999.001A2 2 0 0 1 19.003 24M33.003 24a2 2 0 1 1-3.999.001A2 2 0 0 1 33.003 24"/>
    </g>
  </g>
  <g>
    <path d="M24.003 11c-5.586 0-10.258 3.832-11.594 9h23.19c-1.34-5.168-6.01-9-11.594-9M12.4 26c1.336 5.168 6.01 9 11.594 9 5.594 0 10.266-3.832 11.602-9h-23.19m.004 0" fill="#e0aa4c"/>
    <path d="M13.003 20h22v6h-22m0-6" fill="#3c3c3c"/>
    <path d="M26.003 23a2 2 0 1 1-3.999.001A2 2 0 0 1 26.003 23M19.003 23a2 2 0 1 1-3.999.001A2 2 0 0 1 19.003 23M33.003 23a2 2 0 1 1-3.999.001A2 2 0 0 1 33.003 23" fill="#df4141"/>
  </g>
</svg>
