<svg width="48" height="48" version="1.1" viewBox="0 0 48 48" xmlns="http://www.w3.org/2000/svg">
 <defs>
  <linearGradient id="bg" x1="-47" x2="-1" y1="2.8779e-15" y2="6.1232e-17" gradientUnits="userSpaceOnUse">
   <stop style="stop-color:#f9f1c3" offset="0"/>
   <stop style="stop-color:#fbf5d5" offset="1"/>
  </linearGradient>
 </defs>
 <g transform="translate(0 3.949e-5)">
  <path d="m1 43v0.25c0 2.216 1.784 4 4 4h38c2.216 0 4-1.784 4-4v-0.25c0 2.216-1.784 4-4 4h-38c-2.216 0-4-1.784-4-4zm0 0.5v0.5c0 2.216 1.784 4 4 4h38c2.216 0 4-1.784 4-4v-0.5c0 2.216-1.784 4-4 4h-38c-2.216 0-4-1.784-4-4z" style="opacity:.02"/>
  <path d="m1 43.25v0.25c0 2.216 1.784 4 4 4h38c2.216 0 4-1.784 4-4v-0.25c0 2.216-1.784 4-4 4h-38c-2.216 0-4-1.784-4-4z" style="opacity:.05"/>
  <path d="m1 43v0.25c0 2.216 1.784 4 4 4h38c2.216 0 4-1.784 4-4v-0.25c0 2.216-1.784 4-4 4h-38c-2.216 0-4-1.784-4-4z" style="opacity:.1"/>
 </g>
 <rect transform="rotate(-90)" x="-47" y="1" width="46" height="46" rx="4" style="fill:url(#bg)"/>
 <path d="m8.002 1v5.5l-2e-3 0.00195v0.5h-7v1.002l7-0.00195v7h-7v1h6.998v7h-6.998v1h6.998v7h-6.998v1h6.998v7l-6.998-2e-3v1.002h7v6.998h1l-0.0019-5.5645 0.0039 0.0039v-1.4375h6.9961v6.998h1.0039v-6.9961h6.9961v6.9961h1v-6.998h7v6.998h1v-6.9961l7-0.0039v0.5l2e-3 -2e-3v6.502h1v-7h6v-1h-6l-2e-3 -6.9961h6.002v-1.0039h-6.002v-6.9961h6.002v-1.0039h-6.002v-6.9961h6.002v-1.0039h-6l2e-3 -6.9961h5.998v-1h-5.998v-6.0039h-1v5.5098l-0.0059-0.00586v0.5l-6.9961-0.00391v-6h-1.0039v6.002h-6.9961v-6.002h-1v6h-7v-6h-1v6.002h-7v-1.4395l2e-3 -4.5625h-1zm1 7.0039h6.998v6.9961h-6.998zm8 0h6.998v6.9961h-6.998zm8 0h6.998v6.9961h-6.998zm8 0h6.998v6.9961h-6.998zm-24 8h6.998v6.9961h-6.998zm8 0h6.998v6.9961h-6.998zm8 0h6.998v6.9961h-6.998zm8 0h6.998v6.9961h-6.998zm-24 8h6.998v6.9961h-6.998zm8 0h6.998v6.9961h-6.998zm8 0h6.998v6.9961h-6.998zm8 0h6.998v6.9961h-6.998zm-24 8h6.998v6.9961h-6.998zm8 0h6.998v6.9961h-6.998zm8 0h6.998v6.9961h-6.998zm8 0h6.998v6.9961h-6.998z" style="fill:#e8deae"/>
 <g transform="translate(0 3.949e-5)">
  <g transform="translate(0 -1004.4)">
   <path d="m1 1043.4v4c0 2.216 1.784 4 4 4h38c2.216 0 4-1.784 4-4v-4c0 2.216-1.784 4-4 4h-38c-2.216 0-4-1.784-4-4z" style="opacity:.1"/>
  </g>
 </g>
 <path d="m26.068 19.997h2.755c0.644 0 0.965-0.056 0.965-0.629 0-0.315-0.32238-0.35025-0.862-0.3705h-2.665l0.669-3.436c0.135-0.596 0.586-2.621 0.779-2.965 0.29-0.545 0.83-0.975 1.506-0.975 0.122 0 0.959 0 1.57 0.522-1.409 0.103-1.731 1.107-1.731 1.537 0 0.654 0.573 0.998 1.191 0.998 0.83 0 1.757-0.631 1.757-1.715 0-1.313-1.48-1.967-2.787-1.967-1.094 0-3.115 0.51-4.074 3.337-0.187 0.602-0.29 1.062-1.056 4.663h-2.208c-0.618 0-0.865 0.0555-0.865 0.5945 0 0.35 0.19067 0.43455 0.795 0.406h2.117l-2.414 10.996c-0.573 2.77-1.113 5.379-2.787 5.379-0.129 0-0.92 0-1.538-0.522 1.48-0.08 1.763-1.112 1.763-1.543 0-0.654-0.573-1-1.191-1-0.83 0-1.757 0.631-1.757 1.72 0 1.285 1.409 1.973 2.722 1.973 1.763 0 3.051-1.686 3.623-2.775 1.023-1.801 1.77-5.253 1.802-5.459z" style="opacity:.1"/>
 <path d="m26.068 18.997h2.755c0.644 0 0.965-0.056 0.965-0.629 0-0.315-0.32238-0.35025-0.862-0.3705h-2.665l0.669-3.436c0.135-0.596 0.586-2.621 0.779-2.965 0.29-0.545 0.83-0.975 1.506-0.975 0.122 0 0.959 0 1.57 0.522-1.409 0.103-1.731 1.107-1.731 1.537 0 0.654 0.573 0.998 1.191 0.998 0.83 0 1.757-0.631 1.757-1.715 0-1.313-1.48-1.967-2.787-1.967-1.094 0-3.115 0.51-4.074 3.337-0.187 0.602-0.29 1.062-1.056 4.663h-2.208c-0.618 0-0.865 0.0555-0.865 0.5945 0 0.35 0.19021 0.422 0.795 0.406h2.117l-2.414 10.996c-0.573 2.77-1.113 5.379-2.787 5.379-0.129 0-0.92 0-1.538-0.522 1.48-0.08 1.763-1.112 1.763-1.543 0-0.654-0.573-1-1.191-1-0.83 0-1.757 0.631-1.757 1.72 0 1.285 1.409 1.973 2.722 1.973 1.763 0 3.051-1.686 3.623-2.775 1.023-1.801 1.77-5.253 1.802-5.459z" style="fill:#474747"/>
</svg>
