<svg version="1.1" viewBox="0 0 48 48" xmlns="http://www.w3.org/2000/svg">
 <defs>
  <linearGradient id="bg" x1="-47" x2="-1" y1="0" y2="0" gradientUnits="userSpaceOnUse">
   <stop style="stop-color:#97b2d3" offset="0"/>
   <stop style="stop-color:#a5bcd9" offset="1"/>
  </linearGradient>
 </defs>
 <path d="m1 43v0.25c0 2.22 1.78 4 4 4h38c2.22 0 4-1.78 4-4v-0.25c0 2.22-1.78 4-4 4h-38c-2.22 0-4-1.78-4-4zm0 0.5v0.5c0 2.22 1.78 4 4 4h38c2.22 0 4-1.78 4-4v-0.5c0 2.22-1.78 4-4 4h-38c-2.22 0-4-1.78-4-4z" style="opacity:.02"/>
 <path d="m1 43.3v0.25c0 2.22 1.78 4 4 4h38c2.22 0 4-1.78 4-4v-0.25c0 2.22-1.78 4-4 4h-38c-2.22 0-4-1.78-4-4z" style="opacity:.05"/>
 <path d="m1 43v0.25c0 2.22 1.78 4 4 4h38c2.22 0 4-1.78 4-4v-0.25c0 2.22-1.78 4-4 4h-38c-2.22 0-4-1.78-4-4z" style="opacity:.1"/>
 <rect transform="rotate(-90)" x="-47" y="1" width="46" height="46" rx="4" style="fill:url(#bg)"/>
 <path d="m1 39v4c0 2.22 1.78 4 4 4h38c2.22 0 4-1.78 4-4v-4c0 2.22-1.78 4-4 4h-38c-2.22 0-4-1.78-4-4z" style="opacity:.1"/>
 <path d="m34.6 12-6.66 6.65c-2.19-1.53-5.23-1.32-7.2 0.629l7.69 8.26c0.092-0.077 0.176-0.158 0.264-0.242 1.97-1.96 2.19-5.02 0.656-7.23l6.66-6.66-1.41-1.41m-15 8.46c-0.088 0.077-0.175 0.154-0.26 0.238-1.98 1.96-2.2 5.02-0.658 7.23l-6.66 6.66 1.41 1.41 6.66-6.66c2.2 1.53 5.23 1.33 7.2-0.623l-7.69-8.26z" style="opacity:.1"/>
 <path d="m34.6 11-6.66 6.65c-2.19-1.53-5.23-1.32-7.2 0.629l7.69 8.26c0.092-0.077 0.176-0.158 0.264-0.242 1.97-1.96 2.19-5.02 0.656-7.23l6.66-6.66-1.41-1.41zm-15 8.45c-0.088 0.077-0.175 0.154-0.26 0.238-1.98 1.96-2.2 5.02-0.658 7.23l-6.66 6.66 1.41 1.41 6.66-6.66c2.2 1.53 5.23 1.33 7.2-0.623l-7.69-8.26z" style="fill:#474747"/>
</svg>
