<svg version="1.1" viewBox="0 0 48 48" xmlns="http://www.w3.org/2000/svg">
 <defs>
  <linearGradient id="bg" x1="-47" x2="-1" y1="0" y2="0" gradientUnits="userSpaceOnUse">
   <stop style="stop-color:#e4e4e4" offset="0"/>
   <stop style="stop-color:#eee" offset="1"/>
  </linearGradient>
 </defs>
 <g transform="translate(0 3.949e-5)">
  <path d="m1 43v0.25c0 2.216 1.784 4 4 4h38c2.216 0 4-1.784 4-4v-0.25c0 2.216-1.784 4-4 4h-38c-2.216 0-4-1.784-4-4zm0 0.5v0.5c0 2.216 1.784 4 4 4h38c2.216 0 4-1.784 4-4v-0.5c0 2.216-1.784 4-4 4h-38c-2.216 0-4-1.784-4-4z" style="opacity:.02"/>
  <path d="m1 43.25v0.25c0 2.216 1.784 4 4 4h38c2.216 0 4-1.784 4-4v-0.25c0 2.216-1.784 4-4 4h-38c-2.216 0-4-1.784-4-4z" style="opacity:.05"/>
  <path d="m1 43v0.25c0 2.216 1.784 4 4 4h38c2.216 0 4-1.784 4-4v-0.25c0 2.216-1.784 4-4 4h-38c-2.216 0-4-1.784-4-4z" style="opacity:.1"/>
 </g>
 <rect transform="rotate(-90)" x="-47" y="1" width="46" height="46" rx="4" style="fill:url(#bg)"/>
 <g transform="translate(0 3.949e-5)">
  <g transform="translate(0 -1004.4)">
   <path d="m1 1043.4v4c0 2.216 1.784 4 4 4h38c2.216 0 4-1.784 4-4v-4c0 2.216-1.784 4-4 4h-38c-2.216 0-4-1.784-4-4z" style="opacity:.1"/>
  </g>
 </g>
 <path d="m20 11s-1-1-3-1l1 3c-2 1-2 2.5-2 3.5 0 3-2 3.5-2 7 0 1.5 0 3.5 2 3.5l1-1.5-0.01367 1.49414c1.31 0.05637 2.01367-0.994221 2.01367-1.99414 1-2 3-4 4-4l-4 10-3.99803 0.501953-0.908977 2.29805c-0.203769 0.515163-0.093 1.2 0.907 1.2h20c1 0 1.12032-0.68545 0.915-1.2l-0.916976-2.29805-2.99803-0.501953zm-1 5c0 1.5-0.5 2-2 2 0-1.5 0.5-2 2-2z" style="opacity:.1"/>
 <path d="m20 8v2s-1-1-3-1l1 3c-2 1-2 2.5-2 3.5 0 3-2 3.5-2 7 0 1.5 0 3.5 2 3.5l1-1.5-0.01367 1.49414c1.31 0.05637 2.01367-0.994221 2.01367-1.99414 1-2 3-4 4-4 0 4-5.0078 5.998-5 10h-1.99998c-0.277 0-0.795405-0.01036-0.998046 0.501953l-0.908977 2.29805c-0.203769 0.515163-0.093 1.2 0.907 1.2h20c1 0 1.12032-0.68545 0.915-1.2l-0.916976-2.29805c-0.204184-0.511708-0.721047-0.501953-0.998047-0.501953h-1.99998c0-10-2-19-9-19 0-1-1-2-3-3zm-1 7c0 1.5-0.5 2-2 2 0-1.5 0.5-2 2-2zm-3.5 8c0.27387-0.0032 0.5 0.22386 0.5 0.5s-0.22386 0.5-0.5 0.5-0.49996-0.22611-0.5-0.5 0.22613-0.49682 0.5-0.5z" style="fill:#474747"/>
</svg>
