<svg version="1.1" viewBox="0 0 48 48" xmlns="http://www.w3.org/2000/svg">
 <defs>
  <linearGradient id="bg" x1="-47" x2="-1" gradientUnits="userSpaceOnUse">
   <stop style="stop-color:#e4e4e4" offset="0"/>
   <stop style="stop-color:#eee" offset="1"/>
  </linearGradient>
 </defs>
 <path d="m1 43v0.25c0 2.22 1.78 4 4 4h38c2.22 0 4-1.78 4-4v-0.25c0 2.22-1.78 4-4 4h-38c-2.22 0-4-1.78-4-4zm0 0.5v0.5c0 2.22 1.78 4 4 4h38c2.22 0 4-1.78 4-4v-0.5c0 2.22-1.78 4-4 4h-38c-2.22 0-4-1.78-4-4z" style="opacity:.02"/>
 <path d="m1 43.3v0.25c0 2.22 1.78 4 4 4h38c2.22 0 4-1.78 4-4v-0.25c0 2.22-1.78 4-4 4h-38c-2.22 0-4-1.78-4-4z" style="opacity:.05"/>
 <path d="m1 43v0.25c0 2.22 1.78 4 4 4h38c2.22 0 4-1.78 4-4v-0.25c0 2.22-1.78 4-4 4h-38c-2.22 0-4-1.78-4-4z" style="opacity:.1"/>
 <rect transform="rotate(-90)" x="-47" y="1" width="46" height="46" rx="4" style="fill:url(#bg)"/>
 <path d="m1 39v4c0 2.22 1.78 4 4 4h38c2.22 0 4-1.78 4-4v-4c0 2.22-1.78 4-4 4h-38c-2.22 0-4-1.78-4-4z" style="opacity:.1"/>
 <path d="m20 11s-1-1-3-1l1 3c-2 1-2 2.5-2 3.5 0 3-2 3.5-2 7 0 1.5 0 3.5 2 3.5l1-1.5-0.0137 1.49c1.31 0.0564 2.01-0.994 2.01-1.99 1-2 3-4 4-4l-4 10-4 0.502-0.909 2.3c-0.204 0.515-0.093 1.2 0.907 1.2h20c1 0 1.12-0.685 0.915-1.2l-0.917-2.3-3-0.502zm-1 5c0 1.5-0.5 2-2 2 0-1.5 0.5-2 2-2z" style="opacity:.1"/>
 <path d="m20 8v2s-1-1-3-1l1 3c-2 1-2 2.5-2 3.5 0 3-2 3.5-2 7 0 1.5 0 3.5 2 3.5l1-1.5-0.0137 1.49c1.31 0.0564 2.01-0.994 2.01-1.99 1-2 3-4 4-4 0 4-5.01 6-5 10h-2c-0.277 0-0.795-0.0104-0.998 0.502l-0.909 2.3c-0.204 0.515-0.093 1.2 0.907 1.2h20c1 0 1.12-0.685 0.915-1.2l-0.917-2.3c-0.204-0.512-0.721-0.502-0.998-0.502h-2c0-10-2-19-9-19 0-1-1-2-3-3zm-1 7c0 1.5-0.5 2-2 2 0-1.5 0.5-2 2-2zm-3.5 8c0.274-0.0032 0.5 0.224 0.5 0.5s-0.224 0.5-0.5 0.5-0.5-0.226-0.5-0.5 0.226-0.497 0.5-0.5z" style="fill:#555"/>
</svg>
