<svg version="1.1" viewBox="0 0 48 48" xmlns="http://www.w3.org/2000/svg">
 <defs>
  <linearGradient id="bg" x1="-47" x2="-1" y1="2.8779e-15" y2="6.1232e-17" gradientUnits="userSpaceOnUse">
   <stop style="stop-color:#8ed97b" offset="0"/>
   <stop style="stop-color:#9bdd8b" offset="1"/>
  </linearGradient>
 </defs>
 <g transform="translate(0 3.949e-5)">
  <path d="m1 43v0.25c0 2.216 1.784 4 4 4h38c2.216 0 4-1.784 4-4v-0.25c0 2.216-1.784 4-4 4h-38c-2.216 0-4-1.784-4-4zm0 0.5v0.5c0 2.216 1.784 4 4 4h38c2.216 0 4-1.784 4-4v-0.5c0 2.216-1.784 4-4 4h-38c-2.216 0-4-1.784-4-4z" style="opacity:.02"/>
  <path d="m1 43.25v0.25c0 2.216 1.784 4 4 4h38c2.216 0 4-1.784 4-4v-0.25c0 2.216-1.784 4-4 4h-38c-2.216 0-4-1.784-4-4z" style="opacity:.05"/>
  <path d="m1 43v0.25c0 2.216 1.784 4 4 4h38c2.216 0 4-1.784 4-4v-0.25c0 2.216-1.784 4-4 4h-38c-2.216 0-4-1.784-4-4z" style="opacity:.1"/>
 </g>
 <rect transform="rotate(-90)" x="-47" y="1" width="46" height="46" rx="4" style="fill:url(#bg)"/>
 <g transform="translate(0 3.949e-5)">
  <g transform="translate(0 -1004.4)">
   <path d="m1 1043.4v4c0 2.216 1.784 4 4 4h38c2.216 0 4-1.784 4-4v-4c0 2.216-1.784 4-4 4h-38c-2.216 0-4-1.784-4-4z" style="opacity:.1"/>
  </g>
 </g>
 <path d="m13.963 12c-0.05863 0.0039-0.11726 0.01942-0.17108 0.04856l-1.5667 0.84205c-0.21722 0.11655-0.29219 0.40208-0.16724 0.63809l5.3834 10.229c0.12399 0.23601 0.39984 0.33119 0.6161 0.21464l0.21626-0.11752c2.8037 5.4709 5.7669 11.06 6.3369 11.347 0.99191 0.50212 2.0482 1.2364 6.4291 0.45647 4.5001-0.80126 4.3992-1.3947 4.7289-2.5669 1.0246-4.0199-1.5869-4.9241-3.9244-3.3031-1.3158 0.84788-2.5874 1.8016-3.9215 2.7456-0.59111 0.20493-1.1755 0.28165-1.7041 0.14083-2.7047-3.1166-4.7673-6.1517-6.7377-9.4704l0.1384-0.07381c0.21722-0.11655 0.29027-0.40014 0.16628-0.63615l-5.3815-10.229c-0.09323-0.17676-0.27104-0.27583-0.44501-0.26514z" style="fill-opacity:.098"/>
 <path d="m12.957 12.286s10.538 21.35 11.659 21.916c0.99191 0.50212 2.0482 1.2344 6.4291 0.45453 4.5001-0.80126 4.4001-1.3947 4.7298-2.5679 1.1688-4.5871-2.3952-5.1193-4.8865-2.4688-1.2918 1.1897-3.192 2.4475-4.6625 2.0541-5.2671-6.0682-8.1025-11.814-12.524-19.986" style="fill:#858585"/>
 <path d="m31.02 29.304-2.8651 2.1882c-3.3378 2.6029 1.5198 2.6106 2.5508 2.4514 1.7673-0.29622 3.6049-0.60118 4.0554-1.8424 1.0257-4.1801-1.4397-4.8338-3.7412-2.7981z" style="fill:#a6a6a6"/>
 <rect transform="matrix(.46566 .88496 -.88091 .47329 0 0)" x="16.263" y="-7.5077" width="12.523" height="2.6676" rx=".4816" ry=".44508" style="fill:#595959"/>
</svg>
