<svg viewBox="0 0 48 48" xmlns="http://www.w3.org/2000/svg">
 <defs>
  <linearGradient id="linearGradient3764" x1="1" x2="47" gradientTransform="translate(-48 .0022147)" gradientUnits="userSpaceOnUse">
   <stop stop-color="#3f748d" offset="0"/>
   <stop stop-color="#45809b" offset="1"/>
  </linearGradient>
  <clipPath id="clipPath-944298562">
   <g transform="translate(0 -1004.4)">
    <rect x="1" y="1005.4" width="46" height="46" rx="4" fill="#1890d0"/>
   </g>
  </clipPath>
  <clipPath id="clipPath-959433036">
   <g transform="translate(0 -1004.4)">
    <rect x="1" y="1005.4" width="46" height="46" rx="4" fill="#1890d0"/>
   </g>
  </clipPath>
  <linearGradient id="linear0" x2="0" y1="124" y2="28" gradientTransform="matrix(.50437 0 0 .50279 -150.6 -14.212)" gradientUnits="userSpaceOnUse">
   <stop stop-color="#e3e3e3" offset="0"/>
   <stop stop-color="#fff" offset="1"/>
  </linearGradient>
 </defs>
 <g>
  <path d="m1 43v0.25c0 2.216 1.784 4 4 4h38c2.216 0 4-1.784 4-4v-0.25c0 2.216-1.784 4-4 4h-38c-2.216 0-4-1.784-4-4zm0 0.5v0.5c0 2.216 1.784 4 4 4h38c2.216 0 4-1.784 4-4v-0.5c0 2.216-1.784 4-4 4h-38c-2.216 0-4-1.784-4-4z" opacity=".02"/>
  <path d="m1 43.25v0.25c0 2.216 1.784 4 4 4h38c2.216 0 4-1.784 4-4v-0.25c0 2.216-1.784 4-4 4h-38c-2.216 0-4-1.784-4-4z" opacity=".05"/>
  <path d="m1 43v0.25c0 2.216 1.784 4 4 4h38c2.216 0 4-1.784 4-4v-0.25c0 2.216-1.784 4-4 4h-38c-2.216 0-4-1.784-4-4z" opacity=".1"/>
 </g>
 <g>
  <rect transform="rotate(-90)" x="-47" y="1" width="46" height="46" rx="4" fill="url(#linearGradient3764)"/>
 </g>
 <g>
  <g clip-path="url(#clipPath-944298562)">
   <g opacity=".1">
    <g>
     <path d="m9.262 15c-1.109 0.016-2.156 0.078-3.07 0.156-0.656 0.055-6.191 0.84-6.191 0.84v9s6.766-3.75 8.195-4.219c2.309-0.746 5.543-1.281 7.773-1.281h0.785l-0.719 0.813c-1.387 1.547-1.969 3.258-1.508 4.465 0.402 1.059 1.133 1.43 4.04 2 2.48 0.488 3.945 0.898 7.742 2.25 4.988 1.773 6.367 2.109 7.18 1.688 1.23-0.641 2.031-2.414 2.035-4.594 4e-3 -1.863-0.32-2.578-1.91-4.156-3.441-3.414-8.172-5.559-14.14-6.406-2.93-0.414-6.887-0.617-10.219-0.563m5.145 1c2.797-0.023 5.828 0.309 8.437 0.969 3.586 0.914 6.938 2.809 9.719 5.5 1.637 1.586 2.02 2.344 2.01 3.875-4e-3 0.77-0.098 1.332-0.285 1.816-0.305 0.777-0.281 0.785-2 0.688-4.207-0.242-8-1.027-10.816-2.25-1.195-0.523-2.863-1.523-3.512-2.129-0.621-0.574-1.109-1.668-1.188-2.656-0.063-0.734-0.02-0.945 0.25-1.375 0.574-0.926 0.781-0.996 2.445-0.719 0.797 0.133 1.82 0.387 2.289 0.563 2.059 0.785 5.328 2.5 6.836 3.578 0.32 0.23 0.215 0.094-0.285-0.375-1.781-1.66-5.203-3.66-7.711-4.5-2-0.668-2.883-0.77-5.832-0.688-2.59 0.074-4.234 0.277-8.246 1.063-0.773 0.152-1.441 0.25-1.473 0.223-0.113-0.102 0.574-1.02 1.191-1.598 0.355-0.324 0.914-0.723 1.254-0.875 1.582-0.695 4.133-1.07 6.926-1.094m8.621 5.05c-0.16-4e-3 -0.219 0.074-0.219 0.25 0 0.559 0.668 0.902 1.316 0.656 0.352-0.137 0.258-0.32-0.355-0.625-0.348-0.176-0.59-0.277-0.75-0.277m-19.625 3.809c-0.352-0.027-3.395 1.121-3.395 1.121v7.594c0.137 0.191 5.934-0.707 6.879-1.063 6.852-2.582 9.813-2.418 11.313-4.03 0.73-0.77 0.809-0.895 0.566-1-0.551-0.215-0.941-0.086-1.66 0.5-1.094 0.898-2.066 1.273-3.262 1.281-1.406 0.016-2.355-0.391-5.109-2.184-2.645-1.734-4.094-2.34-5.328-2.219"/>
    </g>
   </g>
  </g>
 </g>
 <g>
  <g clip-path="url(#clipPath-959433036)">
   <g transform="translate(0,-1)">
    <g>
     <path d="m9.262 15c-1.109 0.016-2.156 0.078-3.07 0.156-0.656 0.055-6.191 0.84-6.191 0.84v9s6.766-3.75 8.195-4.219c2.309-0.746 5.543-1.281 7.773-1.281h0.785l-0.719 0.813c-1.387 1.547-1.969 3.258-1.508 4.465 0.402 1.059 1.133 1.43 4.04 2 2.48 0.488 3.945 0.898 7.742 2.25 4.988 1.773 6.367 2.109 7.18 1.688 1.23-0.641 2.031-2.414 2.035-4.594 4e-3 -1.863-0.32-2.578-1.91-4.156-3.441-3.414-8.172-5.559-14.14-6.406-2.93-0.414-6.887-0.617-10.219-0.563m5.145 1c2.797-0.023 5.828 0.309 8.437 0.969 3.586 0.914 6.938 2.809 9.719 5.5 1.637 1.586 2.02 2.344 2.01 3.875-4e-3 0.77-0.098 1.332-0.285 1.816-0.305 0.777-0.281 0.785-2 0.688-4.207-0.242-8-1.027-10.816-2.25-1.195-0.523-2.863-1.523-3.512-2.129-0.621-0.574-1.109-1.668-1.188-2.656-0.063-0.734-0.02-0.945 0.25-1.375 0.574-0.926 0.781-0.996 2.445-0.719 0.797 0.133 1.82 0.387 2.289 0.563 2.059 0.785 5.328 2.5 6.836 3.578 0.32 0.23 0.215 0.094-0.285-0.375-1.781-1.66-5.203-3.66-7.711-4.5-2-0.668-2.883-0.77-5.832-0.688-2.59 0.074-4.234 0.277-8.246 1.063-0.773 0.152-1.441 0.25-1.473 0.223-0.113-0.102 0.574-1.02 1.191-1.598 0.355-0.324 0.914-0.723 1.254-0.875 1.582-0.695 4.133-1.07 6.926-1.094m8.621 5.05c-0.16-4e-3 -0.219 0.074-0.219 0.25 0 0.559 0.668 0.902 1.316 0.656 0.352-0.137 0.258-0.32-0.355-0.625-0.348-0.176-0.59-0.277-0.75-0.277m-19.625 3.809c-0.352-0.027-3.395 1.121-3.395 1.121v7.594c0.137 0.191 5.934-0.707 6.879-1.063 6.852-2.582 9.813-2.418 11.313-4.03 0.73-0.77 0.809-0.895 0.566-1-0.551-0.215-0.941-0.086-1.66 0.5-1.094 0.898-2.066 1.273-3.262 1.281-1.406 0.016-2.355-0.391-5.109-2.184-2.645-1.734-4.094-2.34-5.328-2.219" fill="url(#linear0)"/>
    </g>
   </g>
  </g>
 </g>
 <g>
  <g transform="translate(0 -1004.4)">
   <path d="m1 1043.4v4c0 2.216 1.784 4 4 4h38c2.216 0 4-1.784 4-4v-4c0 2.216-1.784 4-4 4h-38c-2.216 0-4-1.784-4-4z" opacity=".1"/>
  </g>
 </g>
</svg>
