<svg id="svg17798" version="1.1" viewBox="0 0 48 48" xmlns="http://www.w3.org/2000/svg">
 <defs id="defs17750">
  <linearGradient id="linearGradient3764" x1="1" x2="47" gradientTransform="translate(-48 .0022147)" gradientUnits="userSpaceOnUse">
   <stop id="stop17735" stop-color="#e4e4e4" offset="0"/>
   <stop id="stop17737" stop-color="#eee" offset="1"/>
  </linearGradient>
  <clipPath id="clipPath-618080800">
   <g id="g17742" transform="translate(0 -1004.4)">
    <rect id="rect17740" x="1" y="1005.4" width="46" height="46" rx="4" fill="#1890d0"/>
   </g>
  </clipPath>
  <clipPath id="clipPath-631876376">
   <g id="g17747" transform="translate(0 -1004.4)">
    <rect id="rect17745" x="1" y="1005.4" width="46" height="46" rx="4" fill="#1890d0"/>
   </g>
  </clipPath>
 </defs>
 <g id="g17758">
  <path id="path17752" d="m1 43v0.25c0 2.216 1.784 4 4 4h38c2.216 0 4-1.784 4-4v-0.25c0 2.216-1.784 4-4 4h-38c-2.216 0-4-1.784-4-4zm0 0.5v0.5c0 2.216 1.784 4 4 4h38c2.216 0 4-1.784 4-4v-0.5c0 2.216-1.784 4-4 4h-38c-2.216 0-4-1.784-4-4z" opacity=".02"/>
  <path id="path17754" d="m1 43.25v0.25c0 2.216 1.784 4 4 4h38c2.216 0 4-1.784 4-4v-0.25c0 2.216-1.784 4-4 4h-38c-2.216 0-4-1.784-4-4z" opacity=".05"/>
  <path id="path17756" d="m1 43v0.25c0 2.216 1.784 4 4 4h38c2.216 0 4-1.784 4-4v-0.25c0 2.216-1.784 4-4 4h-38c-2.216 0-4-1.784-4-4z" opacity=".1"/>
 </g>
 <g id="g17762">
  <rect id="rect17760" transform="rotate(-90)" x="-47" y="1" width="46" height="46" rx="4" fill="url(#linearGradient3764)"/>
 </g>
 <g id="g17776">
  <g id="g17774" clip-path="url(#clipPath-618080800)">
   <g id="g17772" opacity=".1">
    <g id="g17770">
     <path id="path17764" d="m12.07 16h23.867c1.141 0 2.066 0.883 2.066 1.973v16.06c0 1.086-0.926 1.98-2.066 1.98h-23.867c-1.141 0-2.066-0.895-2.066-1.98v-16.06c0-1.09 0.926-1.973 2.066-1.973"/>
     <path id="path17766" d="m13 12h9v7h-9"/>
     <path id="path17768" d="m26 12h9v7h-9"/>
    </g>
   </g>
  </g>
 </g>
 <g id="g17790">
  <g id="g17788" clip-path="url(#clipPath-631876376)">
   <g id="g17786" transform="translate(0,-1)">
    <g id="g17784" fill="#007fe5">
     <path id="path17778" d="m12.07 16h23.867c1.141 0 2.066 0.883 2.066 1.973v16.06c0 1.086-0.926 1.98-2.066 1.98h-23.867c-1.141 0-2.066-0.895-2.066-1.98v-16.06c0-1.09 0.926-1.973 2.066-1.973"/>
     <path id="path17780" d="m13 12h9v7h-9"/>
     <path id="path17782" d="m26 12h9v7h-9"/>
    </g>
   </g>
  </g>
 </g>
 <g id="g17796">
  <g id="g17794" transform="translate(0 -1004.4)">
   <path id="path17792" d="m1 1043.4v4c0 2.216 1.784 4 4 4h38c2.216 0 4-1.784 4-4v-4c0 2.216-1.784 4-4 4h-38c-2.216 0-4-1.784-4-4z" opacity=".1"/>
  </g>
 </g>
</svg>
