<svg version="1.1" viewBox="0 0 48 48" xmlns="http://www.w3.org/2000/svg">
 <defs>
  <linearGradient id="bg" x2="0" y1="1" y2="47" gradientUnits="userSpaceOnUse">
   <stop style="stop-color:#e0a448" offset="0"/>
   <stop style="stop-color:#dd9b36" offset="1"/>
  </linearGradient>
 </defs>
 <path d="m1 43v0.25c0 2.216 1.784 4 4 4h38c2.216 0 4-1.784 4-4v-0.25c0 2.216-1.784 4-4 4h-38c-2.216 0-4-1.784-4-4zm0 0.5v0.5c0 2.216 1.784 4 4 4h38c2.216 0 4-1.784 4-4v-0.5c0 2.216-1.784 4-4 4h-38c-2.216 0-4-1.784-4-4z" style="opacity:.02"/>
 <path d="m1 43.25v0.25c0 2.216 1.784 4 4 4h38c2.216 0 4-1.784 4-4v-0.25c0 2.216-1.784 4-4 4h-38c-2.216 0-4-1.784-4-4z" style="opacity:.05"/>
 <path d="m1 43v0.25c0 2.216 1.784 4 4 4h38c2.216 0 4-1.784 4-4v-0.25c0 2.216-1.784 4-4 4h-38c-2.216 0-4-1.784-4-4z" style="opacity:.1"/>
 <rect x="1" y="1" width="46" height="46" rx="4" style="fill:url(#bg)"/>
 <path d="m1 39v4c0 2.216 1.784 4 4 4h38c2.216 0 4-1.784 4-4v-4c0 2.216-1.784 4-4 4h-38c-2.216 0-4-1.784-4-4z" style="opacity:.1"/>
 <rect x="12" y="12" width="24" height="24" ry="6" style="opacity:.1"/>
 <path d="m18 11h7l3 2 2-2c3.324 0 6 2.676 6 6v12c0 3.324-2.676 6-6 6h-12c-3.324 0-6-2.676-6-6v-12c0-3.324 2.676-6 6-6z" style="fill:#525252"/>
 <path d="m25 12v8l2.5-2 2.5 2v-8h-5zm-7.5 5a1.5 1.5 0 0 0-1.5 1.5 1.5 1.5 0 0 0 1.5 1.5 1.5 1.5 0 0 0 1.5-1.5 1.5 1.5 0 0 0-1.5-1.5zm0 4c-0.831 0-1.5 0.669-1.5 1.5v7c0 0.831 0.669 1.5 1.5 1.5s1.5-0.669 1.5-1.5v-0.5l1.8652 1.5996c0.24069 0.21074 0.53959 0.40039 0.88477 0.40039 0.69036 0 1.25-0.55964 1.25-1.25 0-0.34518-0.11519-0.65007-0.36523-0.84961l-3.6348-2.9004 3.6348-2.9004c0.25118-0.19811 0.36523-0.50443 0.36523-0.84961 0-0.69036-0.55964-1.25-1.25-1.25-0.34518 0-0.64408 0.18965-0.88477 0.40039l-1.8652 1.5996v-0.5c0-0.831-0.669-1.5-1.5-1.5z" style="opacity:.1"/>
 <path d="m25 11v8l2.5-2 2.5 2v-8zm-7.5 5a1.5 1.5 0 0 0-1.5 1.5 1.5 1.5 0 0 0 1.5 1.5 1.5 1.5 0 0 0 1.5-1.5 1.5 1.5 0 0 0-1.5-1.5z" style="fill:#ebdac1"/>
 <path d="m17.5 20c-0.831 0-1.5 0.669-1.5 1.5v7c0 0.831 0.669 1.5 1.5 1.5s1.5-0.669 1.5-1.5v-0.5l1.8652 1.6c0.24069 0.21074 0.53959 0.4 0.88477 0.4 0.69036 0 1.25-0.55964 1.25-1.25 0-0.34518-0.11519-0.64981-0.36523-0.84935l-3.6348-2.9006 3.6348-2.9c0.25118-0.19811 0.36523-0.50482 0.36523-0.85 0-0.69036-0.55964-1.25-1.25-1.25-0.34518 0-0.64408 0.18991-0.88477 0.40065l-1.8652 1.5994v-0.5c0-0.831-0.669-1.5-1.5-1.5z" style="fill:#cfcfcf"/>
</svg>
