<svg width="48" height="48" viewBox="0 0 48 48.000001" xmlns="http://www.w3.org/2000/svg">
  <defs>
    <linearGradient id="a" x1="-47" x2="-1" gradientUnits="userSpaceOnUse">
      <stop offset="0" stop-color="#357ebd"/>
      <stop offset="1" stop-color="#428bca"/>
    </linearGradient>
  </defs>
  <path d="M1 43v.25c0 2.216 1.784 4 4 4h38c2.216 0 4-1.784 4-4V43c0 2.216-1.784 4-4 4H5c-2.216 0-4-1.784-4-4zm0 .5v.5c0 2.216 1.784 4 4 4h38c2.216 0 4-1.784 4-4v-.5c0 2.216-1.784 4-4 4H5c-2.216 0-4-1.784-4-4z" opacity=".02"/>
  <path d="M1 43.25v.25c0 2.216 1.784 4 4 4h38c2.216 0 4-1.784 4-4v-.25c0 2.216-1.784 4-4 4H5c-2.216 0-4-1.784-4-4z" opacity=".05"/>
  <path d="M1 43v.25c0 2.216 1.784 4 4 4h38c2.216 0 4-1.784 4-4V43c0 2.216-1.784 4-4 4H5c-2.216 0-4-1.784-4-4z" opacity=".1"/>
  <rect transform="rotate(-90)" x="-47" y="1" width="46" height="46" rx="4" fill="url(#a)"/>
  <path d="M1 39v4c0 2.216 1.784 4 4 4h38c2.216 0 4-1.784 4-4v-4c0 2.216-1.784 4-4 4H5c-2.216 0-4-1.784-4-4zM27.5 12a8.5 8.5 0 0 0-8.5 8.5 8.5 8.5 0 0 0 7.318 8.408c.11-.453.182-.921.182-1.408 0-.201-.026-.396-.045-.592A6.5 6.5 0 0 1 21 20.5a6.5 6.5 0 0 1 6.5-6.5H34v6.5a6.5 6.5 0 0 1-4.537 6.189c.024.268.037.541.037.811 0 .434-.036.858-.096 1.275A8.5 8.5 0 0 0 36 20.5V12zm-5.83 7.09c-.109.452-.17.92-.17 1.41 0 .2.017.397.037.592A6.5 6.5 0 0 1 27 27.5a6.5 6.5 0 0 1-6.5 6.5H14v-6.5a6.5 6.5 0 0 1 4.541-6.191 9.053 9.053 0 0 1-.041-.809c0-.433.032-.858.092-1.275A8.5 8.5 0 0 0 12 27.5V36h8.5a8.5 8.5 0 0 0 8.5-8.5 8.5 8.5 0 0 0-7.33-8.41" opacity=".1"/>
  <path d="M21.67 18.09c-.109.452-.17.923-.17 1.41 0 .2.017.397.037.592A6.5 6.5 0 0 1 27 26.5a6.5 6.5 0 0 1-6.5 6.5H14v-6.5a6.5 6.5 0 0 1 4.541-6.191 9.015 9.015 0 0 1-.041-.809c0-.433.032-.858.092-1.275A8.5 8.5 0 0 0 12 26.5V35h8.5a8.5 8.5 0 0 0 8.5-8.5 8.5 8.5 0 0 0-7.33-8.41" fill="#f9f9f9"/>
  <path d="M27.5 11a8.5 8.5 0 0 0-8.5 8.5 8.5 8.5 0 0 0 7.318 8.408c.11-.453.182-.921.182-1.408 0-.201-.026-.396-.045-.592A6.5 6.5 0 0 1 21 19.5a6.5 6.5 0 0 1 6.5-6.5H34v6.5a6.5 6.5 0 0 1-4.537 6.189c.024.268.037.541.037.811 0 .434-.036.858-.096 1.275A8.5 8.5 0 0 0 36 19.5V11z" fill="#f9f9f9"/>
</svg>
