<svg style="" version="1.1" viewBox="0 0 48 48" xmlns="http://www.w3.org/2000/svg">
 <defs style="">
  <linearGradient id="linearGradient3764" x1="1" x2="47" style="" gradientTransform="translate(-48 .002215)" gradientUnits="userSpaceOnUse">
   <stop style="stop-color:#b24432" offset="0"/>
   <stop style="stop-color:#c24a36" offset="1"/>
  </linearGradient>
 </defs>
 <path d="m1 43v0.25c0 2.216 1.784 4 4 4h38c2.216 0 4-1.784 4-4v-0.25c0 2.216-1.784 4-4 4h-38c-2.216 0-4-1.784-4-4zm0 0.5v0.5c0 2.216 1.784 4 4 4h38c2.216 0 4-1.784 4-4v-0.5c0 2.216-1.784 4-4 4h-38c-2.216 0-4-1.784-4-4z" style="opacity:.02"/>
 <path d="m1 43.25v0.25c0 2.216 1.784 4 4 4h38c2.216 0 4-1.784 4-4v-0.25c0 2.216-1.784 4-4 4h-38c-2.216 0-4-1.784-4-4z" style="opacity:.05"/>
 <path d="m1 43v0.25c0 2.216 1.784 4 4 4h38c2.216 0 4-1.784 4-4v-0.25c0 2.216-1.784 4-4 4h-38c-2.216 0-4-1.784-4-4z" style="opacity:.1"/>
 <rect transform="rotate(-90)" x="-47" y="1" width="46" height="46" rx="4" style="fill:url(#linearGradient3764)"/>
 <path d="m1 39v4c0 2.216 1.784 4 4 4h38c2.216 0 4-1.784 4-4v-4c0 2.216-1.784 4-4 4h-38c-2.216 0-4-1.784-4-4z" style="opacity:.1"/>
 <path d="m12 32 2e-3 1h24l-2e-3 -1z" style="opacity:.1"/>
 <path d="m12 15v3l14 3-1-5-1-2h-11c-0.5 0-1 0.5-1 1z" style="fill:#ff8f00"/>
 <rect x="14" y="17" width="11" height="4" style="fill:#fffdf0"/>
 <path d="m36 17.07v14.93h-24v-13.997h12l1-2h10c0.5 0 1 0.533 1 1.067z" style="fill:#ffca28"/>
 <path d="m23.48 26.8c-0.737 0.55-1.864 2.34-2.216 1.64-0.176-0.1-0.456-8.13-0.072-8.44 0.335-0.27 7.649 4.23 7.303 4.7-0.043 0.48-1.708 0.63-2.561 0.95l1.841 3.07-2.288 1.28" style="fill:#403018;opacity:.4"/>
</svg>
