<svg version="1.1" viewBox="0 0 48 48" xmlns="http://www.w3.org/2000/svg">
 <defs>
  <linearGradient id="bg" x2="0" y1="1" y2="47" gradientUnits="userSpaceOnUse">
   <stop style="stop-color:#32d26c" offset="0"/>
   <stop style="stop-color:#2bc361" offset="1"/>
  </linearGradient>
 </defs>
 <path d="m1 43v0.25c0 2.216 1.784 4 4 4h38c2.216 0 4-1.784 4-4v-0.25c0 2.216-1.784 4-4 4h-38c-2.216 0-4-1.784-4-4zm0 0.5v0.5c0 2.216 1.784 4 4 4h38c2.216 0 4-1.784 4-4v-0.5c0 2.216-1.784 4-4 4h-38c-2.216 0-4-1.784-4-4z" style="opacity:.02"/>
 <path d="m1 43.25v0.25c0 2.216 1.784 4 4 4h38c2.216 0 4-1.784 4-4v-0.25c0 2.216-1.784 4-4 4h-38c-2.216 0-4-1.784-4-4z" style="opacity:.05"/>
 <path d="m1 43v0.25c0 2.216 1.784 4 4 4h38c2.216 0 4-1.784 4-4v-0.25c0 2.216-1.784 4-4 4h-38c-2.216 0-4-1.784-4-4z" style="opacity:.1"/>
 <rect x="1" y="1" width="46" height="46" rx="4" style="fill:url(#bg)"/>
 <path d="m1 39v4c0 2.216 1.784 4 4 4h38c2.216 0 4-1.784 4-4v-4c0 2.216-1.784 4-4 4h-38c-2.216 0-4-1.784-4-4z" style="opacity:.1"/>
 <path d="m29.5 13-0.5 1.3086-5.5625 0.69531c-0.52853 0.06609-0.60116 0.80267-0.0957 0.9707l4.9453 1.6484-5.2871 0.37695c-8 0-14 9-14 11.5 0 1.5 1 2.5 3 2.5h4l1.1445-1.7168c-0.091817 0.22802-0.14081 0.47101-0.14453 0.7168 0 1.1046 0.89543 2 2 2s2-0.89543 2-2l0.5 1h3l0.5-1c0 1.1046 0.89543 2 2 2s2-0.89543 2-2c1.13e-4 -0.35104-0.09217-0.69593-0.26758-1h0.26758l1 1h7l-1-1 1.5-1.5-1.5-1.5 1.5-1.5-1.5-1.5 1.5-1.5-1.5-1.5 1.5-1.5-1.5-1.5-6.4082-0.99609-3.8418-1.2812 5.8125-0.72656c0.25-0.031519 0.43749-0.24412 0.4375-0.49609v-0.5h1v0.5c0 0.277 0.223 0.5 0.5 0.5s0.5-0.223 0.5-0.5v-1.5z" style="opacity:.1"/>
 <path d="m19 28a2 2 0 0 0-2 2 2 2 0 0 0 2 2 2 2 0 0 0 2-2 2 2 0 0 0-2-2zm8 0a2 2 0 0 0-2 2 2 2 0 0 0 2 2 2 2 0 0 0 2-2 2 2 0 0 0-2-2z" style="fill:#bfbfbf"/>
 <path d="m15 27h15v2h-4.5l-1 2h-3l-1-2h-5.5z" style="fill:#8c8c8c"/>
 <path d="m31.5 12.5c-0.27614 0-0.5 0.22386-0.5 0.5v0.05859l-7.5625 0.94531c-0.52853 0.06609-0.60115 0.80267-0.0957 0.9707l4.9453 1.6484c-0.18548 0.25489-0.28593 0.56173-0.28711 0.87696h3c-5.78e-4 -0.79236-0.61733-1.4476-1.4082-1.4961l-3.8418-1.2812 5.8125-0.72656c0.25-0.031519 0.43749-0.24412 0.4375-0.49609v-0.5c0-0.27614-0.22386-0.5-0.5-0.5z" style="fill:#858585"/>
 <path d="m23 17c-8 0-14 9-14 11.5 0 1.5 1 2.5 3 2.5h4l2-3h10l2 2h7l-1-1 1.5-1.5-0.5-0.5-2-1 2-1 0.5-0.5-0.5-0.5-3-2 3.5-3.5-1.5-1.5z" style="fill:#f2f2f2"/>
 <path d="m19 29a1 1 0 0 0-1 1 1 1 0 0 0 1 1 1 1 0 0 0 1-1 1 1 0 0 0-1-1zm8 0a1 1 0 0 0-1 1 1 1 0 0 0 1 1 1 1 0 0 0 1-1 1 1 0 0 0-1-1z" style="fill:#737373"/>
 <path d="m13 25c-0.51095 0.66974-1.0179 1.3295-1.3926 2h25.393l-1-1 1-1z" style="fill:#f0425c"/>
 <path d="m29.5 12c-0.26525 0-0.5 0.23166-0.5 0.5v1c0 0.277 0.223 0.5 0.5 0.5s0.5-0.223 0.5-0.5v-0.5h3v0.5c0 0.277 0.223 0.5 0.5 0.5s0.5-0.223 0.5-0.5v-1c0-0.277-0.223-0.5-0.5-0.5z" style="fill:#6b6b6b"/>
 <path d="m21 20c-3 0-5 2-7 4h8v-4zm3 0v4h7v-4zm8 0v4h5l-1-1 1.5-1.5-1.5-1.5z" style="fill:#737373"/>
</svg>
