<svg id="svg18220" version="1.1" viewBox="0 0 48 48" xmlns="http://www.w3.org/2000/svg">
 <defs id="defs18168">
  <linearGradient id="linearGradient3764" x1="1" x2="47" gradientTransform="translate(-48 .0022147)" gradientUnits="userSpaceOnUse">
   <stop id="stop18153" stop-color="#409626" offset="0"/>
   <stop id="stop18155" stop-color="#48a62a" offset="1"/>
  </linearGradient>
  <clipPath id="clipPath-485408991">
   <g id="g18160" transform="translate(0 -1004.4)">
    <rect id="rect18158" x="1" y="1005.4" width="46" height="46" rx="4" fill="#1890d0"/>
   </g>
  </clipPath>
  <clipPath id="clipPath-498501378">
   <g id="g18165" transform="translate(0 -1004.4)">
    <rect id="rect18163" x="1" y="1005.4" width="46" height="46" rx="4" fill="#1890d0"/>
   </g>
  </clipPath>
 </defs>
 <g id="g18176">
  <path id="path18170" d="m1 43v0.25c0 2.216 1.784 4 4 4h38c2.216 0 4-1.784 4-4v-0.25c0 2.216-1.784 4-4 4h-38c-2.216 0-4-1.784-4-4zm0 0.5v0.5c0 2.216 1.784 4 4 4h38c2.216 0 4-1.784 4-4v-0.5c0 2.216-1.784 4-4 4h-38c-2.216 0-4-1.784-4-4z" opacity=".02"/>
  <path id="path18172" d="m1 43.25v0.25c0 2.216 1.784 4 4 4h38c2.216 0 4-1.784 4-4v-0.25c0 2.216-1.784 4-4 4h-38c-2.216 0-4-1.784-4-4z" opacity=".05"/>
  <path id="path18174" d="m1 43v0.25c0 2.216 1.784 4 4 4h38c2.216 0 4-1.784 4-4v-0.25c0 2.216-1.784 4-4 4h-38c-2.216 0-4-1.784-4-4z" opacity=".1"/>
 </g>
 <g id="g18180">
  <rect id="rect18178" transform="rotate(-90)" x="-47" y="1" width="46" height="46" rx="4" fill="url(#linearGradient3764)"/>
 </g>
 <g id="g18196">
  <g id="g18194" clip-path="url(#clipPath-485408991)">
   <g id="g18192" opacity=".1">
    <g id="g18190">
     <path id="path18182" d="m19.313 16.211 3.805-3.883c0.445-0.453 1.184-0.434 1.656 0.043l6.309 6.387c0.469 0.477 0.488 1.23 0.043 1.684l-3.805 3.879c-0.445 0.457-1.184 0.438-1.656-0.039l-6.309-6.387c-0.469-0.477-0.488-1.23-0.043-1.684"/>
     <path id="path18184" d="m17.449 28.973 3.184-3.227c0.375-0.379 0.996-0.367 1.391 0.031l5.285 5.32c0.395 0.395 0.41 1.02 0.035 1.398l-3.184 3.227c-0.371 0.379-0.992 0.367-1.387-0.031l-5.289-5.316c-0.391-0.398-0.406-1.023-0.035-1.402"/>
     <path id="path18186" d="m17.359 19.16 2.484 2.508c0.293 0.293 0.285 0.785-0.02 1.098l-4.051 4.203c-0.301 0.316-0.781 0.332-1.074 0.039l-2.484-2.508c-0.293-0.293-0.285-0.785 0.02-1.098l4.051-4.207c0.301-0.313 0.781-0.328 1.074-0.035"/>
     <path id="path18188" d="m33.871 21.598 1.84 1.84c0.344 0.344 0.387 0.867 0.094 1.172l-5.805 6.01c-0.293 0.301-0.809 0.27-1.156-0.074l-1.84-1.84c-0.344-0.344-0.387-0.867-0.094-1.172l5.805-6.01c0.293-0.301 0.809-0.27 1.156 0.074"/>
    </g>
   </g>
  </g>
 </g>
 <g id="g18212">
  <g id="g18210" clip-path="url(#clipPath-498501378)">
   <g id="g18208" transform="translate(0,-1)">
    <g id="g18206" fill="#e4ebec">
     <path id="path18198" d="m19.313 16.211 3.805-3.883c0.445-0.453 1.184-0.434 1.656 0.043l6.309 6.387c0.469 0.477 0.488 1.23 0.043 1.684l-3.805 3.879c-0.445 0.457-1.184 0.438-1.656-0.039l-6.309-6.387c-0.469-0.477-0.488-1.23-0.043-1.684"/>
     <path id="path18200" d="m17.449 28.973 3.184-3.227c0.375-0.379 0.996-0.367 1.391 0.031l5.285 5.32c0.395 0.395 0.41 1.02 0.035 1.398l-3.184 3.227c-0.371 0.379-0.992 0.367-1.387-0.031l-5.289-5.316c-0.391-0.398-0.406-1.023-0.035-1.402"/>
     <path id="path18202" d="m17.359 19.16 2.484 2.508c0.293 0.293 0.285 0.785-0.02 1.098l-4.051 4.203c-0.301 0.316-0.781 0.332-1.074 0.039l-2.484-2.508c-0.293-0.293-0.285-0.785 0.02-1.098l4.051-4.207c0.301-0.313 0.781-0.328 1.074-0.035"/>
     <path id="path18204" d="m33.871 21.598 1.84 1.84c0.344 0.344 0.387 0.867 0.094 1.172l-5.805 6.01c-0.293 0.301-0.809 0.27-1.156-0.074l-1.84-1.84c-0.344-0.344-0.387-0.867-0.094-1.172l5.805-6.01c0.293-0.301 0.809-0.27 1.156 0.074"/>
    </g>
   </g>
  </g>
 </g>
 <g id="g18218">
  <g id="g18216" transform="translate(0 -1004.4)">
   <path id="path18214" d="m1 1043.4v4c0 2.216 1.784 4 4 4h38c2.216 0 4-1.784 4-4v-4c0 2.216-1.784 4-4 4h-38c-2.216 0-4-1.784-4-4z" opacity=".1"/>
  </g>
 </g>
</svg>
