<?xml version="1.0" encoding="UTF-8" standalone="no"?>
<svg
   xmlns:dc="http://purl.org/dc/elements/1.1/"
   xmlns:cc="http://creativecommons.org/ns#"
   xmlns:rdf="http://www.w3.org/1999/02/22-rdf-syntax-ns#"
   xmlns:svg="http://www.w3.org/2000/svg"
   xmlns="http://www.w3.org/2000/svg"
   xmlns:sodipodi="http://sodipodi.sourceforge.net/DTD/sodipodi-0.dtd"
   xmlns:inkscape="http://www.inkscape.org/namespaces/inkscape"
   viewBox="0 0 48 48"
   version="1.1"
   id="svg18220"
   sodipodi:docname="kuaipan4uk.svg">
  <metadata
     id="metadata18224">
    <rdf:RDF>
      <cc:Work
         rdf:about="">
        <dc:format>image/svg+xml</dc:format>
        <dc:type
           rdf:resource="http://purl.org/dc/dcmitype/StillImage" />
      </cc:Work>
    </rdf:RDF>
  </metadata>
  <sodipodi:namedview
     pagecolor="#ffffff"
     bordercolor="#666666"
     borderopacity="1"
     objecttolerance="10"
     gridtolerance="10"
     guidetolerance="10"
     inkscape:pageopacity="0"
     inkscape:pageshadow="2"
     inkscape:window-width="640"
     inkscape:window-height="480"
     id="namedview18222" />
  <defs
     id="defs18168">
    <linearGradient
       id="linearGradient3764"
       x1="1"
       x2="47"
       gradientUnits="userSpaceOnUse"
       gradientTransform="translate(-48.000001,0.00221467)">
      <stop
         stop-color="#409626"
         stop-opacity="1"
         id="stop18153" />
      <stop
         offset="1"
         stop-color="#48a62a"
         stop-opacity="1"
         id="stop18155" />
    </linearGradient>
    <clipPath
       id="clipPath-485408991">
      <g
         transform="translate(0,-1004.3622)"
         id="g18160">
        <rect
           rx="4"
           y="1005.36"
           x="1"
           height="46"
           width="46"
           fill="#1890d0"
           id="rect18158" />
      </g>
    </clipPath>
    <clipPath
       id="clipPath-498501378">
      <g
         transform="translate(0,-1004.3622)"
         id="g18165">
        <rect
           rx="4"
           y="1005.36"
           x="1"
           height="46"
           width="46"
           fill="#1890d0"
           id="rect18163" />
      </g>
    </clipPath>
  </defs>
  <g
     id="g18176">
    <path
       d="m 1 43 l 0 0.25 c 0 2.216 1.784 4 4 4 l 38 0 c 2.216 0 4 -1.784 4 -4 l 0 -0.25 c 0 2.216 -1.784 4 -4 4 l -38 0 c -2.216 0 -4 -1.784 -4 -4 z m 0 0.5 l 0 0.5 c 0 2.216 1.784 4 4 4 l 38 0 c 2.216 0 4 -1.784 4 -4 l 0 -0.5 c 0 2.216 -1.784 4 -4 4 l -38 0 c -2.216 0 -4 -1.784 -4 -4 z"
       opacity="0.02"
       id="path18170" />
    <path
       d="m 1 43.25 l 0 0.25 c 0 2.216 1.784 4 4 4 l 38 0 c 2.216 0 4 -1.784 4 -4 l 0 -0.25 c 0 2.216 -1.784 4 -4 4 l -38 0 c -2.216 0 -4 -1.784 -4 -4 z"
       opacity="0.05"
       id="path18172" />
    <path
       d="m 1 43 l 0 0.25 c 0 2.216 1.784 4 4 4 l 38 0 c 2.216 0 4 -1.784 4 -4 l 0 -0.25 c 0 2.216 -1.784 4 -4 4 l -38 0 c -2.216 0 -4 -1.784 -4 -4 z"
       opacity="0.1"
       id="path18174" />
  </g>
  <g
     id="g18180">
    <rect
       width="46"
       height="46"
       x="-47"
       y="1"
       rx="4"
       transform="matrix(0,-1,1,0,0,0)"
       fill="url(#linearGradient3764)"
       fill-opacity="1"
       id="rect18178" />
  </g>
  <g
     id="g18196">
    <g
       clip-path="url(#clipPath-485408991)"
       id="g18194">
      <g
         opacity="0.1"
         id="g18192">
        <!-- color: #48a62a -->
        <g
           id="g18190">
          <path
             d="m 19.313 16.211 l 3.805 -3.883 c 0.445 -0.453 1.184 -0.434 1.656 0.043 l 6.309 6.387 c 0.469 0.477 0.488 1.23 0.043 1.684 l -3.805 3.879 c -0.445 0.457 -1.184 0.438 -1.656 -0.039 l -6.309 -6.387 c -0.469 -0.477 -0.488 -1.23 -0.043 -1.684 m 0 0"
             stroke="none"
             fill-rule="nonzero"
             fill-opacity="1"
             fill="#000"
             id="path18182" />
          <path
             d="m 17.449 28.973 l 3.184 -3.227 c 0.375 -0.379 0.996 -0.367 1.391 0.031 l 5.285 5.32 c 0.395 0.395 0.41 1.02 0.035 1.398 l -3.184 3.227 c -0.371 0.379 -0.992 0.367 -1.387 -0.031 l -5.289 -5.316 c -0.391 -0.398 -0.406 -1.023 -0.035 -1.402 m 0 0"
             stroke="none"
             fill-rule="nonzero"
             fill-opacity="1"
             fill="#000"
             id="path18184" />
          <path
             d="m 17.359 19.16 l 2.484 2.508 c 0.293 0.293 0.285 0.785 -0.02 1.098 l -4.051 4.203 c -0.301 0.316 -0.781 0.332 -1.074 0.039 l -2.484 -2.508 c -0.293 -0.293 -0.285 -0.785 0.02 -1.098 l 4.051 -4.207 c 0.301 -0.313 0.781 -0.328 1.074 -0.035 m 0 0"
             stroke="none"
             fill-rule="nonzero"
             fill-opacity="1"
             fill="#000"
             id="path18186" />
          <path
             d="m 33.871 21.598 l 1.84 1.84 c 0.344 0.344 0.387 0.867 0.094 1.172 l -5.805 6.01 c -0.293 0.301 -0.809 0.27 -1.156 -0.074 l -1.84 -1.84 c -0.344 -0.344 -0.387 -0.867 -0.094 -1.172 l 5.805 -6.01 c 0.293 -0.301 0.809 -0.27 1.156 0.074 m 0 0"
             stroke="none"
             fill-rule="nonzero"
             fill-opacity="1"
             fill="#000"
             id="path18188" />
        </g>
      </g>
    </g>
  </g>
  <g
     id="g18212">
    <g
       clip-path="url(#clipPath-498501378)"
       id="g18210">
      <g
         transform="translate(0,-1)"
         id="g18208">
        <!-- color: #48a62a -->
        <g
           id="g18206">
          <path
             d="m 19.313 16.211 l 3.805 -3.883 c 0.445 -0.453 1.184 -0.434 1.656 0.043 l 6.309 6.387 c 0.469 0.477 0.488 1.23 0.043 1.684 l -3.805 3.879 c -0.445 0.457 -1.184 0.438 -1.656 -0.039 l -6.309 -6.387 c -0.469 -0.477 -0.488 -1.23 -0.043 -1.684 m 0 0"
             fill="#e4ebec"
             stroke="none"
             fill-rule="nonzero"
             fill-opacity="1"
             id="path18198" />
          <path
             d="m 17.449 28.973 l 3.184 -3.227 c 0.375 -0.379 0.996 -0.367 1.391 0.031 l 5.285 5.32 c 0.395 0.395 0.41 1.02 0.035 1.398 l -3.184 3.227 c -0.371 0.379 -0.992 0.367 -1.387 -0.031 l -5.289 -5.316 c -0.391 -0.398 -0.406 -1.023 -0.035 -1.402 m 0 0"
             fill="#e4ebec"
             stroke="none"
             fill-rule="nonzero"
             fill-opacity="1"
             id="path18200" />
          <path
             d="m 17.359 19.16 l 2.484 2.508 c 0.293 0.293 0.285 0.785 -0.02 1.098 l -4.051 4.203 c -0.301 0.316 -0.781 0.332 -1.074 0.039 l -2.484 -2.508 c -0.293 -0.293 -0.285 -0.785 0.02 -1.098 l 4.051 -4.207 c 0.301 -0.313 0.781 -0.328 1.074 -0.035 m 0 0"
             fill="#e4ebec"
             stroke="none"
             fill-rule="nonzero"
             fill-opacity="1"
             id="path18202" />
          <path
             d="m 33.871 21.598 l 1.84 1.84 c 0.344 0.344 0.387 0.867 0.094 1.172 l -5.805 6.01 c -0.293 0.301 -0.809 0.27 -1.156 -0.074 l -1.84 -1.84 c -0.344 -0.344 -0.387 -0.867 -0.094 -1.172 l 5.805 -6.01 c 0.293 -0.301 0.809 -0.27 1.156 0.074 m 0 0"
             fill="#e4ebec"
             stroke="none"
             fill-rule="nonzero"
             fill-opacity="1"
             id="path18204" />
        </g>
      </g>
    </g>
  </g>
  <g
     id="g18218">
    <g
       transform="translate(0,-1004.3622)"
       id="g18216">
      <path
         d="m 1 1043.36 0 4 c 0 2.216 1.784 4 4 4 l 38 0 c 2.216 0 4 -1.784 4 -4 l 0 -4 c 0 2.216 -1.784 4 -4 4 l -38 0 c -2.216 0 -4 -1.784 -4 -4 z"
         opacity="0.1"
         id="path18214" />
    </g>
  </g>
</svg>
