<svg version="1.1" viewBox="0 0 48 48" xmlns="http://www.w3.org/2000/svg">
 <defs>
  <linearGradient id="bg" x2="0" y1="1" y2="47" gradientUnits="userSpaceOnUse">
   <stop style="stop-color:#8e633e" offset="0"/>
   <stop style="stop-color:#805938" offset="1"/>
  </linearGradient>
 </defs>
 <path d="m1 43v0.25c0 2.22 1.78 4 4 4h38c2.22 0 4-1.78 4-4v-0.25c0 2.22-1.78 4-4 4h-38c-2.22 0-4-1.78-4-4zm0 0.5v0.5c0 2.22 1.78 4 4 4h38c2.22 0 4-1.78 4-4v-0.5c0 2.22-1.78 4-4 4h-38c-2.22 0-4-1.78-4-4z" style="opacity:.02"/>
 <path d="m1 43.2v0.25c0 2.22 1.78 4 4 4h38c2.22 0 4-1.78 4-4v-0.25c0 2.22-1.78 4-4 4h-38c-2.22 0-4-1.78-4-4z" style="opacity:.05"/>
 <path d="m1 43v0.25c0 2.22 1.78 4 4 4h38c2.22 0 4-1.78 4-4v-0.25c0 2.22-1.78 4-4 4h-38c-2.22 0-4-1.78-4-4z" style="opacity:.1"/>
 <rect x="1" y="1" width="46" height="46" rx="4" style="fill:url(#bg)"/>
 <path d="m1 39v4c0 2.22 1.78 4 4 4h38c2.22 0 4-1.78 4-4v-4c0 2.22-1.78 4-4 4h-38c-2.22 0-4-1.78-4-4z" style="opacity:.1"/>
 <path d="m24 13a6 8 0 0 0-6 8 6 8 0 0 0 5 7.89v2.11h-2v2h2v2h2v-2h2v-2h-2v-2.12a6 8 0 0 0 5-7.88 6 8 0 0 0-6-8m0 1a5 7 0 0 1 5 7 5 7 0 0 1-5 7 5 7 0 0 1-5-7 5 7 0 0 1 5-7z" style="opacity:.1"/>
 <path d="m24 12a6 8 0 0 0-6 8 6 8 0 0 0 5 7.87v2.13h-2v2h2v2h2v-2h2v-2h-2v-2.12a6 8 0 0 0 5-7.88 6 8 0 0 0-6-8zm0 1a5 7 0 0 1 5 7 5 7 0 0 1-5 7 5 7 0 0 1-5-7 5 7 0 0 1 5-7z" style="fill:#f9f9f9"/>
</svg>
