<svg version="1.1" viewBox="0 0 48 48" xmlns="http://www.w3.org/2000/svg">
 <defs>
  <linearGradient id="bg" x1="-47" x2="-1" gradientUnits="userSpaceOnUse">
   <stop style="stop-color:#7fe98b" offset="0"/>
   <stop style="stop-color:#90ec9a" offset="1"/>
  </linearGradient>
 </defs>
 <path d="m1 43v0.25c0 2.22 1.78 4 4 4h38c2.22 0 4-1.78 4-4v-0.25c0 2.22-1.78 4-4 4h-38c-2.22 0-4-1.78-4-4zm0 0.5v0.5c0 2.22 1.78 4 4 4h38c2.22 0 4-1.78 4-4v-0.5c0 2.22-1.78 4-4 4h-38c-2.22 0-4-1.78-4-4z" style="opacity:.02"/>
 <path d="m1 43.3v0.25c0 2.22 1.78 4 4 4h38c2.22 0 4-1.78 4-4v-0.25c0 2.22-1.78 4-4 4h-38c-2.22 0-4-1.78-4-4z" style="opacity:.05"/>
 <path d="m1 43v0.25c0 2.22 1.78 4 4 4h38c2.22 0 4-1.78 4-4v-0.25c0 2.22-1.78 4-4 4h-38c-2.22 0-4-1.78-4-4z" style="opacity:.1"/>
 <rect transform="rotate(-90)" x="-47" y="1" width="46" height="46" rx="4" style="fill:url(#bg)"/>
 <path d="m1 39v4c0 2.22 1.78 4 4 4h38c2.22 0 4-1.78 4-4v-4c0 2.22-1.78 4-4 4h-38c-2.22 0-4-1.78-4-4z" style="opacity:.1"/>
 <path d="m22 19.4-6.5 7.36-2-7.76-2.82 3.87-9.68 0.131v2h10c0.769 0 1.05-0.377 1.99-2.24 0.103 0.883 0.205 1.81 0.324 2.86 0.564 4.96 0.923 6.39 2.18 6.39 1.08 0 1.39-1.24 1.74-3.25 0.29-1.89 0.532-3.65 0.77-5.39v9.64l1.57-0.215c0.0054 0.0458 0.0082 0.0909 0.0137 0.137 0.349 2.91 0.613 4.08 1.71 4.08 1.11 0 1.35-1.12 1.7-4.65 0.154-1.77 0.284-3.45 0.414-5.12 0.427 0.659 0.861 1.3 1.31 1.94 5.1e-5 6.46e-4 -5.1e-5 0.0013 0 2e-3 0.0836 1.06 0.173 2.12 0.275 3.17 0.357 3.62 0.614 4.65 1.7 4.65 1.1 0 1.36-1.15 1.71-4.08 0.0047-0.043 7e-3 -0.0821 0.0117-0.125l3.5-0.967c-0.0021-0.0027-0.0037-0.0051-0.0059-0.0078 0.153 0.0959 0.337 0.182 0.578 0.182 0.521 0 0.838-0.327 0.99-0.535s0.227-0.394 0.301-0.594c0.147-0.4 0.253-0.862 0.355-1.4 0.206-1.09 0.378-2.47 0.535-3.85 0.123-1.08 0.229-2.04 0.334-2.94 0.911 1.91 1.18 2.33 1.98 2.33h10v-2l-9.66-0.111-2.86-3.89-2 7.76s-0.759-6.01-1.27-9.01c-0.027-0.157-0.0549-0.287-0.082-0.434 0.287-0.356 0.573-0.721 0.859-1.06l-1.16-0.309-8.84 3.44zm7.6 1.14c0.427 2.74 0.698 5.51 1.16 8.21 0.128 0.745 0.255 1.37 0.402 1.87 0.0447 0.153-1.53-1.72-2.26-2.74 0.229-2.47 0.448-4.9 0.701-7.34zm-2.21 1.94-0.264 2.71-0.723-1.2z" style="opacity:.1"/>
 <path d="m24 10c-1.08 0.0133-1.33 1.03-1.69 4.65-0.418 4.77-0.707 9.13-1.06 13.6-0.379-3.54-0.61-7.13-1.03-10.6-0.35-2.92-0.613-4.08-1.71-4.08-1.08 0-1.39 1.22-1.74 3.25-0.493 3.16-0.837 6.06-1.27 9.01-0.261-1.7-0.408-3.49-0.621-5.17-0.129-1.28-0.136-2.49-1.38-2.59-0.851-0.067-1.26 0.786-2.13 2.55-0.248 0.499-0.493 0.99-0.684 1.31-0.04 0.067-0.0529 0.0809-0.0859 0.131h-9.59v2h10c0.769 0 1.05-0.377 1.99-2.24 0.103 0.883 0.205 1.81 0.324 2.86 0.564 4.96 0.923 6.39 2.18 6.39 1.08 0 1.39-1.24 1.74-3.25 0.447-2.91 0.784-5.55 1.16-8.21 0.47 4.21 0.701 8.23 1.19 12.4 0.349 2.91 0.613 4.08 1.71 4.08 1.11 0 1.35-1.12 1.7-4.65 0.394-4.53 0.679-8.62 1-12.8 0.376 4.27 0.591 8.54 1 12.8 0.357 3.62 0.614 4.65 1.7 4.65 1.1 0 1.36-1.15 1.71-4.08 0.474-4.32 0.773-8.31 1.2-12.4 0.427 2.74 0.698 5.51 1.16 8.21 0.344 2 0.655 3.25 1.74 3.25 1.26 0 1.62-1.45 2.18-6.39 0.123-1.08 0.229-2.04 0.334-2.94 0.911 1.91 1.18 2.33 1.98 2.33h10v-2h-9.59c-0.028-0.045-0.0383-0.0543-0.0703-0.111-0.181-0.326-0.414-0.818-0.656-1.32-0.931-1.94-1.35-2.54-2.2-2.56-1.08-0.028-1.21 1.43-1.38 2.59-0.136 1.05-0.276 2.43-0.432 3.79-0.057 0.506-0.128 0.886-0.189 1.37-0.483-3.04-0.759-6.01-1.27-9.01-0.343-2-0.652-3.25-1.74-3.25-1.09 0-1.36 1.15-1.71 4.08-0.403 3.78-0.701 7.18-1.03 10.6-0.411-4.57-0.622-9.03-1.06-13.6-0.362-3.68-0.63-4.65-1.7-4.65z" style="fill:#3db134"/>
 <path d="m18.4 19.5s0.701 8.23 1.19 12.4c0.0371 0.309 0.0756 0.572 0.113 0.848l2.31-0.316v-7.45c0.455 0.743 0.892 1.45 1.33 2.13 0.191-2.43 0.375-4.81 0.553-7.15-0.658 0.934-1.29 1.87-1.88 2.81l-0.764 5.41zm9.75-4.31c-0.127 0.613-0.242 1.4-0.355 2.35-0.188 1.76-0.352 3.43-0.508 5.08 1.23-1.88 2.61-3.79 4.01-5.52-0.0213-0.13-0.0384-0.26-0.0606-0.391-0.0458-0.266-0.0922-0.499-0.139-0.734l-2.95-0.783zm-4.06 4.47c0.263 3.21 0.469 6.42 0.736 9.6 0.846 1.19 1.76 2.38 2.86 3.69l0.604-0.166c0.0407-0.294 0.0812-0.58 0.121-0.912 0.157-1.43 0.279-2.79 0.408-4.17-0.627-0.882-1.2-1.78-1.76-2.7-0.0976 1.05-0.196 2.1-0.295 3.15z" style="opacity:.1"/>
 <path d="m22 14-4 0.316v17.7l4-0.547v-7.45c1.78 2.9 3.3 5.19 5.68 8l4.24-1.17c-2.27-2.85-3.97-5.09-5.51-7.83 1.61-2.57 3.63-5.43 5.6-7.74l-4.4-1.17c-2.05 2.5-3.97 5.1-5.6 7.7" style="fill:#1e791e"/>
</svg>
