<svg version="1.1" viewBox="0 0 48 48" xmlns="http://www.w3.org/2000/svg">
 <defs>
  <linearGradient id="bg" x2="0" y1="1" y2="47" gradientUnits="userSpaceOnUse">
   <stop style="stop-color:#72a2ce" offset="0"/>
   <stop style="stop-color:#6398c9" offset="1"/>
  </linearGradient>
 </defs>
 <path d="m1 43v0.25c0 2.216 1.784 4 4 4h38c2.216 0 4-1.784 4-4v-0.25c0 2.216-1.784 4-4 4h-38c-2.216 0-4-1.784-4-4zm0 0.5v0.5c0 2.216 1.784 4 4 4h38c2.216 0 4-1.784 4-4v-0.5c0 2.216-1.784 4-4 4h-38c-2.216 0-4-1.784-4-4z" style="opacity:.02"/>
 <path d="m1 43.25v0.25c0 2.216 1.784 4 4 4h38c2.216 0 4-1.784 4-4v-0.25c0 2.216-1.784 4-4 4h-38c-2.216 0-4-1.784-4-4z" style="opacity:.05"/>
 <path d="m1 43v0.25c0 2.216 1.784 4 4 4h38c2.216 0 4-1.784 4-4v-0.25c0 2.216-1.784 4-4 4h-38c-2.216 0-4-1.784-4-4z" style="opacity:.1"/>
 <rect x="1" y="1" width="46" height="46" rx="4" style="fill:url(#bg)"/>
 <path d="m1 39v4c0 2.216 1.784 4 4 4h38c2.216 0 4-1.784 4-4v-4c0 2.216-1.784 4-4 4h-38c-2.216 0-4-1.784-4-4z" style="opacity:.1"/>
 <path d="m12.004 34.003-4e-3 1.11c-0.001773 0.492 0.395 0.887 0.887 0.887h22.23c0.492 0 0.887-0.395 0.887-0.887l-4e-3 -1.113z" style="opacity:.1"/>
 <path d="m15 11.003c-1 0-1 0.461-1.25 1l-1.75 7 12 3 12-3-1.75-7c-0.25-0.48-0.25-1-1.25-1z" style="fill:#dab78b"/>
 <path d="m36.004 19.003v15.11c0 0.492-0.395 0.887-0.887 0.887h-22.23c-0.492 0-0.887-0.395-0.887-0.887v-15.11" style="fill:#b99a75"/>
 <path d="m21.301 20.003a0.281 0.281 0 0 0-0.275 0.24l-1.187 8.01-0.75-4.4a0.281 0.281 0 0 0-0.551-0.01l-0.695 3.356-0.451-1.782a0.281 0.281 0 0 0-0.531-0.041l-0.836 1.987a0.281 0.281 0 1 0 0.517 0.219l0.512-1.215 0.545 2.153a0.281 0.281 0 0 0 0.549-0.012l0.638-3.093 0.793 4.667a0.281 0.281 0 0 0 0.555-6e-3l1.088-7.326 0.886 11a0.281 0.281 0 0 0 0.558 8e-3l1.015-9.219 0.894 6.558a0.281 0.281 0 0 0 0.555 0.014l0.957-5.238 0.625 3.431a0.281 0.281 0 0 0 0.549 0.018l0.711-2.843 0.201 1.645a0.281 0.281 0 0 0 0.541 0.064l0.633-1.67 0.275 1.311a0.281 0.281 0 0 0 0.531 0.059l0.541-1.188 0.373 0.797a0.281 0.281 0 0 0 0.474 0.057l0.531-0.668 0.402 0.662a0.281 0.281 0 1 0 0.48-0.291l-0.614-1.004a0.281 0.281 0 0 0-0.461-0.029l-0.498 0.625-0.439-0.94a0.281 0.281 0 0 0-0.51 2e-3l-0.441 0.969-0.297-1.414a0.281 0.281 0 0 0-0.537-0.041l-0.568 1.502-0.246-2.02a0.281 0.281 0 0 0-0.553-0.033l-0.762 3.054-0.668-3.665a0.281 0.281 0 0 0-0.553 0l-0.918 5.02-0.965-7.08a0.281 0.281 0 0 0-0.556 8e-3l-0.941 8.555-0.847-10.501a0.281 0.281 0 0 0-0.283-0.258z" style="fill:#5f3030"/>
 <path d="m13.25 14.003-0.5 2h22.5l-0.5-2z" style="fill:#5f3030"/>
 <rect x="12" y="27.003" width="24" height="1" style="fill:#5f3030"/>
</svg>
