<svg version="1.1" viewBox="0 0 48 48" xmlns="http://www.w3.org/2000/svg">
 <defs>
  <linearGradient id="bg" x2="0" y1="1" y2="47" gradientUnits="userSpaceOnUse">
   <stop style="stop-color:#e90c4a" offset="0"/>
   <stop style="stop-color:#d50b44" offset="1"/>
  </linearGradient>
 </defs>
 <path d="m1 43v0.25c0 2.22 1.78 4 4 4h38c2.22 0 4-1.78 4-4v-0.25c0 2.22-1.78 4-4 4h-38c-2.22 0-4-1.78-4-4zm0 0.5v0.5c0 2.22 1.78 4 4 4h38c2.22 0 4-1.78 4-4v-0.5c0 2.22-1.78 4-4 4h-38c-2.22 0-4-1.78-4-4z" style="opacity:.02"/>
 <path d="m1 43.2v0.25c0 2.22 1.78 4 4 4h38c2.22 0 4-1.78 4-4v-0.25c0 2.22-1.78 4-4 4h-38c-2.22 0-4-1.78-4-4z" style="opacity:.05"/>
 <path d="m1 43v0.25c0 2.22 1.78 4 4 4h38c2.22 0 4-1.78 4-4v-0.25c0 2.22-1.78 4-4 4h-38c-2.22 0-4-1.78-4-4z" style="opacity:.1"/>
 <rect x="1" y="1" width="46" height="46" rx="4" style="fill:url(#bg)"/>
 <path d="m1 39v4c0 2.22 1.78 4 4 4h38c2.22 0 4-1.78 4-4v-4c0 2.22-1.78 4-4 4h-38c-2.22 0-4-1.78-4-4z" style="opacity:.1"/>
 <g transform="translate(0,-1)" style="fill:#f9f9f9">
  <path d="m20.1 12.2-5.2 3 3.9 6.76h-7.8v6h7.8l-3.9 6.76 5.2 3 3.9-6.76 3.9 6.76 5.2-3-3.9-6.76h7.8v-6h-7.8l3.9-6.76-5.2-3-3.9 6.76-3.9-6.76" style="fill-opacity:.098"/>
  <rect x="11" y="21" width="26" height="6" style="fill-rule:evenodd"/>
  <rect transform="rotate(-60)" x="-21.8" y="29.8" width="26" height="6" style="fill-rule:evenodd"/>
  <rect transform="rotate(240)" x="-45.8" y="5.78" width="26" height="6" style="fill-rule:evenodd"/>
 </g>
</svg>
