<svg version="1.1" viewBox="0 0 48 48" xmlns="http://www.w3.org/2000/svg">
 <defs>
  <linearGradient id="bg" x2="0" y1="1" y2="47" gradientUnits="userSpaceOnUse">
   <stop style="stop-color:#476ecc" offset="0"/>
   <stop style="stop-color:#3761c8" offset="1"/>
  </linearGradient>
 </defs>
 <path d="m1 43v0.25c0 2.22 1.78 4 4 4h38c2.22 0 4-1.78 4-4v-0.25c0 2.22-1.78 4-4 4h-38c-2.22 0-4-1.78-4-4zm0 0.5v0.5c0 2.22 1.78 4 4 4h38c2.22 0 4-1.78 4-4v-0.5c0 2.22-1.78 4-4 4h-38c-2.22 0-4-1.78-4-4z" style="opacity:.02"/>
 <path d="m1 43.2v0.25c0 2.22 1.78 4 4 4h38c2.22 0 4-1.78 4-4v-0.25c0 2.22-1.78 4-4 4h-38c-2.22 0-4-1.78-4-4z" style="opacity:.05"/>
 <path d="m1 43v0.25c0 2.22 1.78 4 4 4h38c2.22 0 4-1.78 4-4v-0.25c0 2.22-1.78 4-4 4h-38c-2.22 0-4-1.78-4-4z" style="opacity:.1"/>
 <rect x="1" y="1" width="46" height="46" rx="4" style="fill:url(#bg)"/>
 <path d="m1 39v4c0 2.22 1.78 4 4 4h38c2.22 0 4-1.78 4-4v-4c0 2.22-1.78 4-4 4h-38c-2.22 0-4-1.78-4-4z" style="opacity:.1"/>
 <path d="m35 14v20c0 1.66-1.34 3-3 3h-16c-1.66 0-3-1.34-3-3v-20z" style="opacity:.1"/>
 <path d="m16 10h16c1.66 0 3 1.34 3 3v20c0 1.66-1.34 3-3 3h-16c-1.66 0-3-1.34-3-3v-20c0-1.66 1.34-3 3-3z" style="fill:#76aeef"/>
 <path d="m17 12h14c1.11 0 2 0.892 2 2v10c0 1.11-0.892 2-2 2h-14c-1.11 0-2-0.892-2-2v-10c0-1.11 0.892-2 2-2z" style="fill:#575757"/>
 <path d="m17 14h14v10h-14z" style="fill:#50747c"/>
 <path d="m22 16v5h-3v1h4l2e-3 -5h3v-1z" style="fill:#f9f9f9"/>
 <path d="m28 16h1v1h-1z" style="fill:#7ee2ac"/>
 <path d="m17 31c-0.554 0-1 0.446-1 1s0.446 1 1 1h1v1c0 0.554 0.446 1 1 1 0.554 0 1-0.446 1-1v-1h1c0.554 0 1-0.446 1-1s-0.446-1-1-1zm13.5-2c-0.828 0-1.5 0.672-1.5 1.5s0.672 1.5 1.5 1.5 1.5-0.672 1.5-1.5-0.672-1.5-1.5-1.5zm-3 3c-0.828 0-1.5 0.672-1.5 1.5s0.672 1.5 1.5 1.5 1.5-0.672 1.5-1.5-0.672-1.5-1.5-1.5z" style="opacity:.1"/>
 <path d="m19 28c-0.554 0-1 0.446-1 1v1h-1c-0.554 0-1 0.446-1 1s0.446 1 1 1h1v1c0 0.554 0.446 1 1 1 0.554 0 1-0.446 1-1v-1h1c0.554 0 1-0.446 1-1s-0.446-1-1-1h-1v-1c0-0.554-0.446-1-1-1zm11.5 0a1.5 1.5 0 0 0-1.5 1.5 1.5 1.5 0 0 0 1.5 1.5 1.5 1.5 0 0 0 1.5-1.5 1.5 1.5 0 0 0-1.5-1.5zm-3 3a1.5 1.5 0 0 0-1.5 1.5 1.5 1.5 0 0 0 1.5 1.5 1.5 1.5 0 0 0 1.5-1.5 1.5 1.5 0 0 0-1.5-1.5z" style="fill:#5c5166"/>
</svg>
