<svg viewBox="0 0 48 48" xmlns="http://www.w3.org/2000/svg" xmlns:xlink="http://www.w3.org/1999/xlink">
 <defs>
  <linearGradient id="linearGradient3764" x1="1" x2="47" gradientTransform="translate(-48 .0022147)" gradientUnits="userSpaceOnUse">
   <stop stop-color="#3aa0b2" offset="0"/>
   <stop stop-color="#40acc1" offset="1"/>
  </linearGradient>
  <clipPath id="clipPath-117106595">
   <g transform="translate(0 -1004.4)">
    <rect x="1" y="1005.4" width="46" height="46" rx="4" fill="#1890d0"/>
   </g>
  </clipPath>
  <clipPath id="clipPath-130313874">
   <g transform="translate(0 -1004.4)">
    <rect x="1" y="1005.4" width="46" height="46" rx="4" fill="#1890d0"/>
   </g>
  </clipPath>
 </defs>
 <g>
  <path d="m1 43v0.25c0 2.216 1.784 4 4 4h38c2.216 0 4-1.784 4-4v-0.25c0 2.216-1.784 4-4 4h-38c-2.216 0-4-1.784-4-4zm0 0.5v0.5c0 2.216 1.784 4 4 4h38c2.216 0 4-1.784 4-4v-0.5c0 2.216-1.784 4-4 4h-38c-2.216 0-4-1.784-4-4z" opacity=".02"/>
  <path d="m1 43.25v0.25c0 2.216 1.784 4 4 4h38c2.216 0 4-1.784 4-4v-0.25c0 2.216-1.784 4-4 4h-38c-2.216 0-4-1.784-4-4z" opacity=".05"/>
  <path d="m1 43v0.25c0 2.216 1.784 4 4 4h38c2.216 0 4-1.784 4-4v-0.25c0 2.216-1.784 4-4 4h-38c-2.216 0-4-1.784-4-4z" opacity=".1"/>
 </g>
 <g>
  <rect transform="rotate(-90)" x="-47" y="1" width="46" height="46" rx="4" fill="url(#linearGradient3764)"/>
 </g>
 <g>
  <g clip-path="url(#clipPath-117106595)">
   <g opacity=".1">
    <g>
     <g>
      <path d="m14.781 11c-0.98 0-1.781 0.801-1.781 1.781v22.438c0 0.98 0.801 1.781 1.781 1.781h20.438c0.984 0 1.785-0.801 1.785-1.781v-18.223l-6-5.996m-16.223 0"/>
      <path id="SVGCleanerId_0" d="m37 17h-6l6 6m0-6" fill-opacity=".2"/>
      <path d="m16.355 14h15.293c0.195 0 0.355 0.16 0.355 0.355v1.289c0 0.195-0.16 0.352-0.355 0.352h-15.293c-0.195 0-0.355-0.156-0.355-0.352v-1.289c0-0.195 0.16-0.355 0.355-0.355"/>
      <path d="m37 17h-6v-5.996m6 5.996"/>
      <path d="m16.355 20h15.293c0.195 0 0.355 0.156 0.355 0.352v1.289c0 0.199-0.16 0.355-0.355 0.355h-15.293c-0.195 0-0.355-0.156-0.355-0.355v-1.289c0-0.195 0.16-0.352 0.355-0.352"/>
      <path d="m16.355 26h15.293c0.195 0 0.355 0.16 0.355 0.355v1.289c0 0.195-0.16 0.355-0.355 0.355h-15.293c-0.195 0-0.355-0.16-0.355-0.355v-1.289c0-0.195 0.16-0.355 0.355-0.355"/>
      <path d="m16.355 31.996h15.293c0.195 0 0.355 0.16 0.355 0.355v1.289c0 0.195-0.16 0.355-0.355 0.355h-15.293c-0.195 0-0.355-0.16-0.355-0.355v-1.289c0-0.195 0.16-0.355 0.355-0.355"/>
     </g>
    </g>
   </g>
  </g>
 </g>
 <g>
  <g clip-path="url(#clipPath-130313874)">
   <g transform="translate(0,-1)">
    <g>
     <path d="m14.781 11c-0.98 0-1.781 0.801-1.781 1.781v22.438c0 0.98 0.801 1.781 1.781 1.781h20.438c0.984 0 1.785-0.801 1.785-1.781v-18.223l-6-5.996m-16.223 0" fill="#ecf2f2"/>
     <use xlink:href="#SVGCleanerId_0"/>
     <path d="m16.355 14h15.293c0.195 0 0.355 0.16 0.355 0.355v1.289c0 0.195-0.16 0.352-0.355 0.352h-15.293c-0.195 0-0.355-0.156-0.355-0.352v-1.289c0-0.195 0.16-0.355 0.355-0.355" fill="#5ba3ec"/>
     <path d="m37 17h-6v-5.996m6 5.996" fill="#fff"/>
     <g fill="#5ba3ec">
      <path d="m16.355 20h15.293c0.195 0 0.355 0.156 0.355 0.352v1.289c0 0.199-0.16 0.355-0.355 0.355h-15.293c-0.195 0-0.355-0.156-0.355-0.355v-1.289c0-0.195 0.16-0.352 0.355-0.352"/>
      <path d="m16.355 26h15.293c0.195 0 0.355 0.16 0.355 0.355v1.289c0 0.195-0.16 0.355-0.355 0.355h-15.293c-0.195 0-0.355-0.16-0.355-0.355v-1.289c0-0.195 0.16-0.355 0.355-0.355"/>
      <path d="m16.355 31.996h15.293c0.195 0 0.355 0.16 0.355 0.355v1.289c0 0.195-0.16 0.355-0.355 0.355h-15.293c-0.195 0-0.355-0.16-0.355-0.355v-1.289c0-0.195 0.16-0.355 0.355-0.355"/>
     </g>
    </g>
   </g>
  </g>
 </g>
 <g>
  <g transform="translate(0 -1004.4)">
   <path d="m1 1043.4v4c0 2.216 1.784 4 4 4h38c2.216 0 4-1.784 4-4v-4c0 2.216-1.784 4-4 4h-38c-2.216 0-4-1.784-4-4z" opacity=".1"/>
  </g>
 </g>
</svg>
