<svg viewBox="0 0 48 48" xmlns:xlink="http://www.w3.org/1999/xlink">
  <defs>
    <linearGradient id="a" x1="1" x2="47" gradientUnits="userSpaceOnUse" gradientTransform="translate(-48 .002)">
      <stop stop-color="#3aa0b2"/>
      <stop offset="1" stop-color="#40acc1"/>
    </linearGradient>
    <clipPath id="b"/>
    <clipPath id="c"/>
  </defs>
  <path d="M1 43v.25c0 2.216 1.784 4 4 4h38c2.216 0 4-1.784 4-4V43c0 2.216-1.784 4-4 4H5c-2.216 0-4-1.784-4-4zm0 .5v.5c0 2.216 1.784 4 4 4h38c2.216 0 4-1.784 4-4v-.5c0 2.216-1.784 4-4 4H5c-2.216 0-4-1.784-4-4z" opacity=".02"/>
  <path d="M1 43.25v.25c0 2.216 1.784 4 4 4h38c2.216 0 4-1.784 4-4v-.25c0 2.216-1.784 4-4 4H5c-2.216 0-4-1.784-4-4z" opacity=".05"/>
  <path d="M1 43v.25c0 2.216 1.784 4 4 4h38c2.216 0 4-1.784 4-4V43c0 2.216-1.784 4-4 4H5c-2.216 0-4-1.784-4-4z" opacity=".1"/>
  <rect width="46" height="46" x="-47" y="1" rx="4" transform="rotate(-90)" fill="url(#a)"/>
  <g opacity=".1" clip-path="url(#b)">
    <path d="M14.781 11c-.98 0-1.781.801-1.781 1.781v22.438c0 .98.801 1.781 1.781 1.781h20.438c.984 0 1.785-.801 1.785-1.781V16.996l-6-5.996m-16.223 0"/>
    <path d="M37 17h-6l6 6m0-6" fill-opacity=".2" id="d"/>
    <path d="M16.355 14h15.293c.195 0 .355.16.355.355v1.289c0 .195-.16.352-.355.352H16.355a.353.353 0 0 1-.355-.352v-1.289c0-.195.16-.355.355-.355m0 0"/>
    <path d="M37 17h-6v-5.996M16.355 20h15.293c.195 0 .355.156.355.352v1.289c0 .199-.16.355-.355.355H16.355a.354.354 0 0 1-.355-.355v-1.289c0-.195.16-.352.355-.352m0 0M16.355 26h15.293c.195 0 .355.16.355.355v1.289c0 .195-.16.355-.355.355H16.355a.356.356 0 0 1-.355-.355v-1.289c0-.195.16-.355.355-.355m0 0M16.355 31.996h15.293c.195 0 .355.16.355.355v1.289c0 .195-.16.355-.355.355H16.355A.356.356 0 0 1 16 33.64v-1.289c0-.195.16-.355.355-.355m0 0"/>
  </g>
  <g>
    <g clip-path="url(#c)">
      <g transform="translate(0 -1)">
        <path d="M14.781 11c-.98 0-1.781.801-1.781 1.781v22.438c0 .98.801 1.781 1.781 1.781h20.438c.984 0 1.785-.801 1.785-1.781V16.996l-6-5.996m-16.223 0" fill="#ecf2f2"/>
        <use xlink:href="#d"/>
        <path d="M16.355 14h15.293c.195 0 .355.16.355.355v1.289c0 .195-.16.352-.355.352H16.355a.353.353 0 0 1-.355-.352v-1.289c0-.195.16-.355.355-.355m0 0" fill="#5ba3ec"/>
        <path d="M37 17h-6v-5.996M37 17" fill="#fff"/>
        <path d="M16.355 20h15.293c.195 0 .355.156.355.352v1.289c0 .199-.16.355-.355.355H16.355a.354.354 0 0 1-.355-.355v-1.289c0-.195.16-.352.355-.352m0 0M16.355 26h15.293c.195 0 .355.16.355.355v1.289c0 .195-.16.355-.355.355H16.355a.356.356 0 0 1-.355-.355v-1.289c0-.195.16-.355.355-.355m0 0M16.355 31.996h15.293c.195 0 .355.16.355.355v1.289c0 .195-.16.355-.355.355H16.355A.356.356 0 0 1 16 33.64v-1.289c0-.195.16-.355.355-.355m0 0" fill="#5ba3ec"/>
      </g>
    </g>
  </g>
  <g>
    <path d="M1 38.998v4c0 2.216 1.784 4 4 4h38c2.216 0 4-1.784 4-4v-4c0 2.216-1.784 4-4 4H5c-2.216 0-4-1.784-4-4z" opacity=".1"/>
  </g>
</svg>
