<svg version="1.1" viewBox="0 0 48 48" xmlns="http://www.w3.org/2000/svg">
 <defs>
  <linearGradient id="bg" x2="0" y1="1" y2="47" gradientUnits="userSpaceOnUse">
   <stop style="stop-color:#26475f" offset="0"/>
   <stop style="stop-color:#203c50" offset="1"/>
  </linearGradient>
 </defs>
 <path d="m1 43v0.25c0 2.216 1.784 4 4 4h38c2.216 0 4-1.784 4-4v-0.25c0 2.216-1.784 4-4 4h-38c-2.216 0-4-1.784-4-4zm0 0.5v0.5c0 2.216 1.784 4 4 4h38c2.216 0 4-1.784 4-4v-0.5c0 2.216-1.784 4-4 4h-38c-2.216 0-4-1.784-4-4z" style="opacity:.02"/>
 <path d="m1 43.25v0.25c0 2.216 1.784 4 4 4h38c2.216 0 4-1.784 4-4v-0.25c0 2.216-1.784 4-4 4h-38c-2.216 0-4-1.784-4-4z" style="opacity:.05"/>
 <path d="m1 43v0.25c0 2.216 1.784 4 4 4h38c2.216 0 4-1.784 4-4v-0.25c0 2.216-1.784 4-4 4h-38c-2.216 0-4-1.784-4-4z" style="opacity:.1"/>
 <rect x="1" y="1" width="46" height="46" rx="4" style="fill:url(#bg)"/>
 <path d="m1 39v4c0 2.216 1.784 4 4 4h38c2.216 0 4-1.784 4-4v-4c0 2.216-1.784 4-4 4h-38c-2.216 0-4-1.784-4-4z" style="opacity:.1"/>
 <path d="m17 11a6 6 0 0 0-6 6 6 6 0 0 0 6 6 6 6 0 0 0 0.08-4e-3 7 7 0 0 1 5.918-5.918 6 6 0 0 0 2e-3 -0.078 6 6 0 0 0-6-6m14 0a6 6 0 0 0-6 6 6 6 0 0 0 4e-3 0.08 7 7 0 0 1 5.918 5.918 6 6 0 0 0 0.078 2e-3 6 6 0 0 0 6-6 6 6 0 0 0-6-6m-8 7.086a6 6 0 0 0-4.91 4.914h4.91v-4.91m2 4e-3v4.906h4.914a6 6 0 0 0-4.914-4.91m-8 6.91a6 6 0 0 0-6 6 6 6 0 0 0 6 6 6 6 0 0 0 6-6 6 6 0 0 0-4e-3 -0.08 7 7 0 0 1-5.916-5.92 6 6 0 0 0-0.08 0m1.086 0a6 6 0 0 0 4.914 4.91v-4.91h-4.91m6.91 0v4.914a6 6 0 0 0 4.91-4.914h-4.91m6 0a6 6 0 0 0-0.08 0 7 7 0 0 1-5.92 5.922 6 6 0 0 0 0 0.078 6 6 0 0 0 6 6 6 6 0 0 0 6-6 6 6 0 0 0-6-6z" style="opacity:.1"/>
 <path d="m17 10a6 6 0 0 0-6 6 6 6 0 0 0 6 6 6 6 0 0 0 0.08-4e-3 7 7 0 0 1 5.918-5.918 6 6 0 0 0 2e-3 -0.078 6 6 0 0 0-6-6m14 0a6 6 0 0 0-6 6 6 6 0 0 0 4e-3 0.08 7 7 0 0 1 5.918 5.918 6 6 0 0 0 0.078 2e-3 6 6 0 0 0 6-6 6 6 0 0 0-6-6m-8 7.086a6 6 0 0 0-4.91 4.914h4.91v-4.91m2 4e-3v4.906h4.914a6 6 0 0 0-4.914-4.91m-8 6.91a6 6 0 0 0-6 6 6 6 0 0 0 6 6 6 6 0 0 0 6-6 6 6 0 0 0-4e-3 -0.08 7 7 0 0 1-5.916-5.92 6 6 0 0 0-0.08 0m1.086 0a6 6 0 0 0 4.914 4.91v-4.91h-4.91m6.91 0v4.914a6 6 0 0 0 4.91-4.914h-4.91m6 0a6 6 0 0 0-0.08 0 7 7 0 0 1-5.92 5.922 6 6 0 0 0 0 0.078 6 6 0 0 0 6 6 6 6 0 0 0 6-6 6 6 0 0 0-6-6z" style="fill:#b5c9d3"/>
</svg>
