<svg version="1.1" viewBox="0 0 48 48" xmlns="http://www.w3.org/2000/svg">
 <defs>
  <linearGradient id="bg" x2="0" y1="1" y2="47" gradientUnits="userSpaceOnUse">
   <stop style="stop-color:#828282" offset="0"/>
   <stop style="stop-color:#787878" offset="1"/>
  </linearGradient>
 </defs>
 <path d="m1 43v0.25c0 2.216 1.784 4 4 4h38c2.216 0 4-1.784 4-4v-0.25c0 2.216-1.784 4-4 4h-38c-2.216 0-4-1.784-4-4zm0 0.5v0.5c0 2.216 1.784 4 4 4h38c2.216 0 4-1.784 4-4v-0.5c0 2.216-1.784 4-4 4h-38c-2.216 0-4-1.784-4-4z" style="opacity:.02"/>
 <path d="m1 43.25v0.25c0 2.216 1.784 4 4 4h38c2.216 0 4-1.784 4-4v-0.25c0 2.216-1.784 4-4 4h-38c-2.216 0-4-1.784-4-4z" style="opacity:.05"/>
 <path d="m1 43v0.25c0 2.216 1.784 4 4 4h38c2.216 0 4-1.784 4-4v-0.25c0 2.216-1.784 4-4 4h-38c-2.216 0-4-1.784-4-4z" style="opacity:.1"/>
 <rect x="1" y="1" width="46" height="46" rx="4" style="fill:url(#bg)"/>
 <path d="m1 39v4c0 2.216 1.784 4 4 4h38c2.216 0 4-1.784 4-4v-4c0 2.216-1.784 4-4 4h-38c-2.216 0-4-1.784-4-4z" style="opacity:.1"/>
 <path d="m25 36c-4 0-4-1-4-1s1-3 2-4c-1-1-2.6667-2-4-3-4-3-4.5395-7-4.5395-7s-0.46047 0-0.46047-0.38136c0-0.61864 1-1.0805 1-1.0805s-0.51744-5e-3 -0.50424-0.53814c0.02479-1.0011 1.2471-1.9925 2.0728-3 0.43146-0.5265 0.96002-1 1.9569-1.5085 0.15332-0.0782 0.47458 0.20339 0.47458 0.20339s0.5767-0.69492 1-0.69492h0.50848s0.49152-1 3.1525-2c0.31732-0.11925 0.33898 0.73729 0.33898 0.73729s0.99998-1.1891 3.5763-1.1949c0.42373-9.52e-4 0.42373 0.45763 0.42373 0.45763h2c1 0 1 1 1 1s0.7544-0.09156 1 0.34746c0.21867 0.39088 0 0.65254 0 0.65254s0.44057 0 0.4322 0.31356c-0.0109 0.40835-1.4322 1.1186-1.4322 1.1186s0.53664-0.15638 0.54237 0.15254c0.01607 0.86621-1.5424 2.4153-1.5424 2.4153s2 3 2 7c0 3-5 5-5 5v1c1 1 2 4 2 4s0 1-4 1z" style="opacity:.1"/>
 <path d="m25 35c-4 0-4-1-4-1s1-3 2-4c-1-1-2.6667-2-4-3-4-3-4.5395-7-4.5395-7s-0.46047 0-0.46047-0.38136c0-0.61864 1-1.0805 1-1.0805s-0.51744-5e-3 -0.50424-0.53814c0.02479-1.0011 1.2471-1.9925 2.0728-3 0.43146-0.5265 0.96002-1 1.9569-1.5085 0.15332-0.0782 0.47458 0.20339 0.47458 0.20339s0.5767-0.69492 1-0.69492h0.50848s0.49152-1 3.1525-2c0.31732-0.11925 0.33898 0.73729 0.33898 0.73729s0.99998-1.1891 3.5763-1.1949c0.42373-9.52e-4 0.42373 0.45763 0.42373 0.45763h2c1 0 1 1 1 1s0.7544-0.09156 1 0.34746c0.21867 0.39088 0 0.65254 0 0.65254s0.44057 0 0.4322 0.31356c-0.0109 0.40835-1.4322 1.1186-1.4322 1.1186s0.53664-0.15638 0.54237 0.15254c0.01607 0.86621-1.5424 2.4153-1.5424 2.4153s2 3 2 7c0 3-5 5-5 5v1c1 1 2 4 2 4s0 1-4 1z" style="fill:#383838"/>
 <path d="m30 20a1 1 0 0 0-1 1 1 1 0 0 0 1 1 1 1 0 0 0 1-1 1 1 0 0 0-1-1zm-5 1a1 1 0 0 0-1 1 1 1 0 0 0 1 1 1 1 0 0 0 1-1 1 1 0 0 0-1-1z" style="fill:#f9f9f9;paint-order:stroke fill markers"/>
</svg>
