<?xml version="1.0" encoding="UTF-8"?>
<svg version="1.1" viewBox="0 0 48 48" xmlns="http://www.w3.org/2000/svg">
 <defs>
  <linearGradient id="bg" x2="0" y1="1" y2="47" gradientUnits="userSpaceOnUse">
   <stop style="stop-color:#7f8b8b" offset="0"/>
   <stop style="stop-color:#748080" offset="1"/>
  </linearGradient>
 </defs>
 <path d="m1 43v0.25c0 2.216 1.784 4 4 4h38c2.216 0 4-1.784 4-4v-0.25c0 2.216-1.784 4-4 4h-38c-2.216 0-4-1.784-4-4zm0 0.5v0.5c0 2.216 1.784 4 4 4h38c2.216 0 4-1.784 4-4v-0.5c0 2.216-1.784 4-4 4h-38c-2.216 0-4-1.784-4-4z" style="opacity:.02"/>
 <path d="m1 43.25v0.25c0 2.216 1.784 4 4 4h38c2.216 0 4-1.784 4-4v-0.25c0 2.216-1.784 4-4 4h-38c-2.216 0-4-1.784-4-4z" style="opacity:.05"/>
 <path d="m1 43v0.25c0 2.216 1.784 4 4 4h38c2.216 0 4-1.784 4-4v-0.25c0 2.216-1.784 4-4 4h-38c-2.216 0-4-1.784-4-4z" style="opacity:.1"/>
 <rect x="1" y="1" width="46" height="46" rx="4" style="fill:url(#bg)"/>
 <path d="m1 39v4c0 2.216 1.784 4 4 4h38c2.216 0 4-1.784 4-4v-4c0 2.216-1.784 4-4 4h-38c-2.216 0-4-1.784-4-4z" style="opacity:.1"/>
 <path d="m16 19c-1.65685 0-3 1.34315-3 3s1.34315 3 3 3v2c-1.65685 0-3 1.34315-3 3s1.34315 3 3 3v1c0 1.108 0.892001 2 2 2h14c1.108 0 2-0.892001 2-2v-5c1.65685 0 3-1.34315 3-3s-1.34315-3-3-3z" style="opacity:.1"/>
 <path d="m25 13 9 2v18c0 1.108-0.892 2-2 2h-14c-1.108 0-2-0.892-2-2v-18z" style="fill:#545454"/>
 <path d="m16 19v6a3 3 0 0 0 3-3 3 3 0 0 0-3-3zm18 4a3 3 0 0 0-3 3 3 3 0 0 0 3 3v-6zm-18 4v6a3 3 0 0 0 3-3 3 3 0 0 0-3-3z" style="opacity:.1"/>
 <path d="m16 18a3 3 0 0 0-3 3 3 3 0 0 0 3 3 3 3 0 0 0 3-3 3 3 0 0 0-3-3zm0 8a3 3 0 0 0-3 3 3 3 0 0 0 3 3 3 3 0 0 0 3-3 3 3 0 0 0-3-3z" style="fill:#9562bb"/>
 <path d="m37 25a3 3 0 0 1-3 3 3 3 0 0 1-3-3 3 3 0 0 1 3-3 3 3 0 0 1 3 3z" style="fill:#2ec27e"/>
 <path d="m23 20c-0.553999 0-1 0.446-1 1v8c0 0.554 0.446001 1 1 1h5c0.553999 0 1-0.446 1-1s-0.446001-1-1-1h-4v-7c0-0.554-0.446001-1-1-1z" style="fill:#f9f9f9"/>
 <path d="m18 11c-1.108 0-2 0.892001-2 2v2h18v-2c0-1.108-0.892001-2-2-2z" style="fill:#2ec27e"/>
</svg>
