<svg version="1.1" viewBox="0 0 48 48" xmlns="http://www.w3.org/2000/svg">
 <defs>
  <linearGradient id="bg" x2="0" y1="1" y2="47" gradientUnits="userSpaceOnUse">
   <stop style="stop-color:#44ac86" offset="0"/>
   <stop style="stop-color:#3e9e7b" offset="1"/>
  </linearGradient>
 </defs>
 <path d="m1 43v0.25c0 2.216 1.784 4 4 4h38c2.216 0 4-1.784 4-4v-0.25c0 2.216-1.784 4-4 4h-38c-2.216 0-4-1.784-4-4zm0 0.5v0.5c0 2.216 1.784 4 4 4h38c2.216 0 4-1.784 4-4v-0.5c0 2.216-1.784 4-4 4h-38c-2.216 0-4-1.784-4-4z" style="opacity:.02"/>
 <path d="m1 43.25v0.25c0 2.216 1.784 4 4 4h38c2.216 0 4-1.784 4-4v-0.25c0 2.216-1.784 4-4 4h-38c-2.216 0-4-1.784-4-4z" style="opacity:.05"/>
 <path d="m1 43v0.25c0 2.216 1.784 4 4 4h38c2.216 0 4-1.784 4-4v-0.25c0 2.216-1.784 4-4 4h-38c-2.216 0-4-1.784-4-4z" style="opacity:.1"/>
 <rect x="1" y="1" width="46" height="46" rx="4" style="fill:url(#bg)"/>
 <path d="m1 39v4c0 2.216 1.784 4 4 4h38c2.216 0 4-1.784 4-4v-4c0 2.216-1.784 4-4 4h-38c-2.216 0-4-1.784-4-4z" style="opacity:.1"/>
 <path d="m12 16c-0.554 0-1 0.446-1 1v5c0 0.554 0.446 1 1 1h12v3.3984c0 0.3324 0.223 0.60156 0.5 0.60156h4.5v6.5c0 0.277 0.5 0.5 0.5 0.5h1s0.5-0.223 0.5-0.5v-7.5h-6v-2c0 0.554 0.446 1 1 1h8c0.554 0 1-0.446 1-1v-1h1c0.554 0 1-0.446 1-1v-5c0-0.554-0.446-1-1-1zm0.5 1h23c0.277 0 0.5 0.223 0.5 0.5v4c0 0.277-0.223 0.5-0.5 0.5h-0.5v-1c0-0.554-0.446-1-1-1h-8c-0.554 0-1 0.446-1 1v1h-12.5c-0.277 0-0.5-0.223-0.5-0.5v-4c0-0.277 0.223-0.5 0.5-0.5zm2 1c-0.22719 0-0.41136 0.1526-0.47266 0.35938-0.18959-0.103-0.42719-0.08062-0.58789 0.08008-0.16078 0.16077-0.18129 0.39826-0.07813 0.58789-0.20771 0.06069-0.36132 0.2448-0.36132 0.47265 0 0.22786 0.1536 0.41195 0.36133 0.47266-0.10251 0.18947-0.08237 0.4274 0.07813 0.58789 0.16078 0.16078 0.39826 0.18132 0.58789 0.07813 0.0607 0.20772 0.24479 0.36132 0.47265 0.36132s0.41195-0.15361 0.47266-0.36133c0.18963 0.10316 0.42711 0.08268 0.58789-0.07813 0.16049-0.16049 0.18063-0.39842 0.07813-0.58789 0.20771-0.06071 0.36132-0.24479 0.36132-0.47265 0-0.22785-0.1536-0.41195-0.36133-0.47266 0.10317-0.18963 0.08265-0.42712-0.07813-0.58789-0.1607-0.1607-0.3983-0.18306-0.58789-0.08008-0.06128-0.20678-0.24546-0.35937-0.47265-0.35937zm4 0c-0.22719 0-0.41136 0.1526-0.47266 0.35938-0.18959-0.103-0.42719-0.08062-0.58789 0.08008-0.16078 0.16077-0.18129 0.39826-0.07813 0.58789-0.20771 0.06067-0.36132 0.2448-0.36132 0.47265 0 0.22786 0.1536 0.41195 0.36133 0.47266-0.10251 0.18947-0.08236 0.4274 0.07813 0.58789 0.16078 0.16078 0.39826 0.18134 0.58789 0.07813 0.0607 0.20772 0.24479 0.36132 0.47265 0.36132s0.41195-0.15361 0.47266-0.36133c0.18963 0.10316 0.42711 0.08268 0.58789-0.07813 0.16049-0.16049 0.18062-0.39842 0.07813-0.58789 0.20771-0.06069 0.36132-0.24479 0.36132-0.47265 0-0.22785-0.1536-0.41195-0.36133-0.47266 0.10317-0.18963 0.08266-0.42712-0.07813-0.58789-0.1607-0.1607-0.3983-0.18304-0.58789-0.08008-0.06128-0.20676-0.24546-0.35937-0.47265-0.35937zm4 0c-0.22719 0-0.41136 0.1526-0.47266 0.35938-0.18959-0.103-0.42719-0.08062-0.58789 0.08008-0.16078 0.16077-0.18128 0.39826-0.07813 0.58789-0.20771 0.06068-0.36132 0.2448-0.36132 0.47265 0 0.22786 0.1536 0.41195 0.36133 0.47266-0.10251 0.18947-0.08237 0.4274 0.07813 0.58789 0.16078 0.16078 0.39826 0.18134 0.58789 0.07813 0.06071 0.20772 0.24479 0.36132 0.47265 0.36132s0.41195-0.15361 0.47266-0.36133c0.18963 0.10316 0.42711 0.08268 0.58789-0.07813 0.16049-0.16049 0.18062-0.39842 0.07813-0.58789 0.20771-0.06069 0.36132-0.24479 0.36132-0.47265 0-0.22785-0.1536-0.41195-0.36133-0.47266 0.10317-0.18963 0.08266-0.42712-0.07813-0.58789-0.1607-0.1607-0.3983-0.18304-0.58789-0.08008-0.06128-0.20676-0.24546-0.35937-0.47265-0.35937z" style="opacity:.1;paint-order:normal"/>
 <path d="m12 14.999c-0.554 0-1 0.446-1 1v5c0 0.554 0.446 1 1 1h24c0.554 0 1-0.446 1-1v-5c0-0.554-0.446-1-1-1zm0.5 1h23c0.277 0 0.5 0.223 0.5 0.5v4c0 0.277-0.223 0.5-0.5 0.5h-23c-0.277 0-0.5-0.223-0.5-0.5v-4c0-0.277 0.223-0.5 0.5-0.5zm2 1c-0.22719 0-0.41136 0.1526-0.47266 0.35938-0.18959-0.103-0.42719-0.0806-0.58789 0.0801-0.16078 0.16077-0.18129 0.39826-0.07813 0.58789-0.20772 0.06069-0.36132 0.24478-0.36132 0.47263 0 0.22786 0.1536 0.41195 0.36133 0.47266-0.10251 0.18947-0.08236 0.4274 0.07813 0.58789 0.16078 0.16078 0.39826 0.18129 0.58789 0.0781 0.06071 0.20772 0.2448 0.36132 0.47266 0.36132s0.41195-0.1536 0.47266-0.36132c0.18963 0.10316 0.42711 0.0827 0.58789-0.0781 0.16049-0.16049 0.18064-0.39842 0.07813-0.58789 0.20771-0.06071 0.36132-0.2448 0.36132-0.47266 0-0.22785-0.1536-0.41194-0.36133-0.47265 0.10317-0.18963 0.08265-0.42712-0.07813-0.58789-0.1607-0.1607-0.3983-0.18308-0.58789-0.0801-0.06129-0.20678-0.24546-0.35938-0.47266-0.35938zm4 0c-0.22719 0-0.41136 0.1526-0.47266 0.35938-0.18959-0.103-0.42719-0.0806-0.58789 0.0801-0.16078 0.16077-0.18129 0.39826-0.07813 0.58789-0.20772 0.06067-0.36132 0.24478-0.36132 0.47263 0 0.22786 0.1536 0.41195 0.36133 0.47266-0.10251 0.18947-0.08236 0.4274 0.07813 0.58789 0.16078 0.16078 0.39826 0.18132 0.58789 0.0781 0.06071 0.20772 0.2448 0.36132 0.47266 0.36132s0.41195-0.1536 0.47266-0.36132c0.18963 0.10316 0.42711 0.0827 0.58789-0.0781 0.16049-0.16049 0.18063-0.39842 0.07813-0.58789 0.20771-0.0607 0.36132-0.2448 0.36132-0.47266 0-0.22785-0.1536-0.41194-0.36133-0.47265 0.10317-0.18963 0.08266-0.42712-0.07813-0.58789-0.1607-0.1607-0.3983-0.18306-0.58789-0.0801-0.06129-0.20676-0.24546-0.35938-0.47266-0.35938zm4 0c-0.22719 0-0.41136 0.1526-0.47266 0.35938-0.18959-0.103-0.42719-0.0806-0.58789 0.0801-0.16078 0.16077-0.18129 0.39826-0.07813 0.58789-0.20771 0.06068-0.36132 0.24478-0.36132 0.47263 0 0.22786 0.1536 0.41195 0.36133 0.47266-0.10251 0.18947-0.08237 0.4274 0.07813 0.58789 0.16078 0.16078 0.39826 0.18132 0.58789 0.0781 0.06071 0.20772 0.2448 0.36132 0.47266 0.36132s0.41195-0.1536 0.47266-0.36132c0.18963 0.10316 0.42711 0.0827 0.58789-0.0781 0.16049-0.16049 0.18063-0.39842 0.07813-0.58789 0.20771-0.0607 0.36132-0.2448 0.36132-0.47266 0-0.22785-0.1536-0.41194-0.36133-0.47265 0.10317-0.18963 0.08266-0.42712-0.07813-0.58789-0.1607-0.1607-0.3983-0.18306-0.58789-0.0801-0.06129-0.20676-0.24546-0.35938-0.47266-0.35938z" style="fill:#464646;paint-order:normal"/>
 <path d="m34 19c0.554 0 1 0.446 1 1v3c0 0.554-0.446 1-1 1h-8c-0.554 0-1-0.446-1-1v2h6v7.5c0 0.277-0.5 0.5-0.5 0.5h-1s-0.5-0.223-0.5-0.5v-6.5h-4.5c-0.277 0-0.5-0.26916-0.5-0.60156v-3.7988c0-0.3324 0.223-0.59961 0.5-0.59961h0.5v-1c0-0.554 0.446-1 1-1z" style="fill:#323232;paint-order:normal"/>
</svg>
