<svg version="1.1" viewBox="0 0 48 48" xmlns="http://www.w3.org/2000/svg">
 <defs>
  <linearGradient id="bg" x1="1" x2="47" style="" gradientTransform="translate(-48 0)" gradientUnits="userSpaceOnUse">
   <stop style="stop-color:#e96633" offset="0"/>
   <stop style="stop-color:#eb7545" offset="1"/>
  </linearGradient>
 </defs>
 <path d="m1 43v0.25c0 2.216 1.784 4 4 4h38c2.216 0 4-1.784 4-4v-0.25c0 2.216-1.784 4-4 4h-38c-2.216 0-4-1.784-4-4zm0 0.5v0.5c0 2.216 1.784 4 4 4h38c2.216 0 4-1.784 4-4v-0.5c0 2.216-1.784 4-4 4h-38c-2.216 0-4-1.784-4-4z" style="opacity:.02"/>
 <path d="m1 43.25v0.25c0 2.216 1.784 4 4 4h38c2.216 0 4-1.784 4-4v-0.25c0 2.216-1.784 4-4 4h-38c-2.216 0-4-1.784-4-4z" style="opacity:.05"/>
 <path d="m1 43v0.25c0 2.216 1.784 4 4 4h38c2.216 0 4-1.784 4-4v-0.25c0 2.216-1.784 4-4 4h-38c-2.216 0-4-1.784-4-4z" style="opacity:.1"/>
 <rect transform="rotate(-90)" x="-47" y="1" width="46" height="46" rx="4" style="fill:url(#bg)"/>
 <path d="m24.051 9c-4.211 0-8.0504 1.8051-10.734 4.5391-2.676 2.723-4.3164 6.4526-4.3164 10.516 0 4.066 1.6374 7.7926 4.3164 10.516 2.688 2.738 6.5274 4.4316 10.734 4.4316 4.215 0 7.9489-1.7006 10.629-4.4316 2.68-2.723 4.3125-6.4486 4.3125-10.516 0-4.063-1.6405-7.7926-4.3125-10.516-2.68-2.727-6.4179-4.5391-10.629-4.5391zm0 5.5352c2.426 0 4.6245 1.0506 6.3125 2.7656 1.68 1.711 2.7656 4.0819 2.7656 6.7539 0 0.45365-0.033033 0.89914-0.09375 1.334-0.99192-1.4428-2.6538-2.3887-4.5352-2.3887-3.039 0-5.5 2.461-5.5 5.5 0 2.0602 1.1312 3.8527 2.8066 4.7949-0.56822 0.11282-1.1539 0.16992-1.7559 0.16992-2.438 0-4.6425-0.95325-6.3105-2.6562-1.664-1.691-2.7695-4.0629-2.7695-6.7539 0-2.688 1.0975-5.0499 2.7695-6.7539 1.676-1.707 3.8885-2.7656 6.3105-2.7656z" style="opacity:.1"/>
 <path d="m24.051 8c-4.211 0-8.0504 1.8051-10.734 4.5391-2.676 2.723-4.3164 6.4526-4.3164 10.516 0 4.066 1.6374 7.7926 4.3164 10.516 2.688 2.738 6.5274 4.4316 10.734 4.4316 4.215 0 7.9489-1.7006 10.629-4.4316 2.68-2.723 4.3125-6.4486 4.3125-10.516 0-4.063-1.6405-7.7926-4.3125-10.516-2.68-2.727-6.4179-4.5391-10.629-4.5391zm0 5.5352c2.426 0 4.6245 1.0506 6.3125 2.7656 1.68 1.711 2.7656 4.0819 2.7656 6.7539 0 0.45365-0.033033 0.89914-0.09375 1.334-0.99192-1.4428-2.6538-2.3887-4.5352-2.3887-3.039 0-5.5 2.461-5.5 5.5 0 2.0602 1.1312 3.8527 2.8066 4.7949-0.56822 0.11282-1.1539 0.16992-1.7559 0.16992-2.438 0-4.6425-0.95325-6.3105-2.6562-1.664-1.691-2.7695-4.0629-2.7695-6.7539 0-2.688 1.0975-5.0499 2.7695-6.7539 1.676-1.707 3.8885-2.7656 6.3105-2.7656z" style="fill:#f9f9f9"/>
 <path d="m1 39v4c0 2.216 1.784 4 4 4h38c2.216 0 4-1.784 4-4v-4c0 2.216-1.784 4-4 4h-38c-2.216 0-4-1.784-4-4z" style="opacity:.1"/>
</svg>
