<svg version="1.1" viewBox="0 0 48 48" xmlns="http://www.w3.org/2000/svg">
 <defs>
  <linearGradient id="linearGradient4501" x1="-47" x2="-1" y1="2.8779e-15" y2="6.1232e-17" gradientUnits="userSpaceOnUse">
   <stop style="stop-color:#455164" offset="0"/>
   <stop style="stop-color:#4d5a6f" offset="1"/>
  </linearGradient>
 </defs>
 <g transform="translate(0 3.949e-5)">
  <path d="m1 43v0.25c0 2.216 1.784 4 4 4h38c2.216 0 4-1.784 4-4v-0.25c0 2.216-1.784 4-4 4h-38c-2.216 0-4-1.784-4-4zm0 0.5v0.5c0 2.216 1.784 4 4 4h38c2.216 0 4-1.784 4-4v-0.5c0 2.216-1.784 4-4 4h-38c-2.216 0-4-1.784-4-4z" style="opacity:.02"/>
  <path d="m1 43.25v0.25c0 2.216 1.784 4 4 4h38c2.216 0 4-1.784 4-4v-0.25c0 2.216-1.784 4-4 4h-38c-2.216 0-4-1.784-4-4z" style="opacity:.05"/>
  <path d="m1 43v0.25c0 2.216 1.784 4 4 4h38c2.216 0 4-1.784 4-4v-0.25c0 2.216-1.784 4-4 4h-38c-2.216 0-4-1.784-4-4z" style="opacity:.1"/>
 </g>
 <rect transform="rotate(-90)" x="-47" y="1" width="46" height="46" rx="4" style="fill:url(#linearGradient4501)"/>
 <g transform="translate(0 3.949e-5)">
  <g transform="translate(0 -1004.4)">
   <path d="m1 1043.4v4c0 2.216 1.784 4 4 4h38c2.216 0 4-1.784 4-4v-4c0 2.216-1.784 4-4 4h-38c-2.216 0-4-1.784-4-4z" style="opacity:.1"/>
  </g>
 </g>
 <path d="m20.5 12c-6.2962 0-11.5 4.1992-11.5 9.5 2e-3 2.7158 1.4454 5.2551 3.8457 7.0371l-1.8828 3.2578 5.4355-1.457c0.87054 0.27624 1.7744 0.46818 2.6934 0.57226-0.20196-0.34302-0.38291-0.69529-0.53125-1.0625-0.69853-0.10762-1.3833-0.26981-2.043-0.49023l-0.14258-0.046875-3.3379 0.89453 1.1152-1.9297-0.38477-0.26172c-2.4068-1.6298-3.7657-4.0156-3.7676-6.5137 0-4.6403 4.646-8.5 10.5-8.5 4.3057 0 7.9494 2.0921 9.5801 5.043 0.4047 0.03242 0.80125 0.08672 1.1934 0.1543-1.6315-3.6383-5.8635-6.1973-10.773-6.1973zm8.5 7a10 8 0 0 0-10 8 10 8 0 0 0 10 8 10 8 0 0 0 4.6621-0.92773l3.3379 1.9277-0.90234-3.3691a10 8 0 0 0 2.9023-5.6309 10 8 0 0 0-10-8zm-6 6a2 2 0 0 1 2 2 2 2 0 0 1-2 2 2 2 0 0 1-2-2 2 2 0 0 1 2-2zm6 0a2 2 0 0 1 2 2 2 2 0 0 1-2 2 2 2 0 0 1-2-2 2 2 0 0 1 2-2zm6 0a2 2 0 0 1 2 2 2 2 0 0 1-2 2 2 2 0 0 1-2-2 2 2 0 0 1 2-2z" style="opacity:.1"/>
 <path d="m29 18c-5.5228 0-10 3.5817-10 8s4.4772 8 10 8c1.6252-0.0016 3.2254-0.32001 4.6621-0.92773l3.3379 1.9277-0.90234-3.3691c1.8577-1.4974 2.9008-3.5212 2.9023-5.6309 0-4.4183-4.4772-8-10-8zm-6 6c1.1046 0 2 0.89543 2 2s-0.89543 2-2 2-2-0.89543-2-2 0.89543-2 2-2zm6 0c1.1046 0 2 0.89543 2 2s-0.89543 2-2 2-2-0.89543-2-2 0.89543-2 2-2zm6 0c1.1046 0 2 0.89543 2 2s-0.89543 2-2 2-2-0.89543-2-2 0.89543-2 2-2z" style="fill:#eee"/>
 <path d="m20.5 11c-6.2962 0-11.5 4.1992-11.5 9.5 2e-3 2.7158 1.4454 5.2551 3.8457 7.0371l-1.8828 3.2578 5.4355-1.457c0.87054 0.27624 1.7744 0.46818 2.6934 0.57226-0.20196-0.34302-0.38291-0.69529-0.53125-1.0625-0.69853-0.10762-1.3833-0.26981-2.043-0.49023l-0.14258-0.046875-3.3379 0.89453 1.1152-1.9297-0.38477-0.26172c-2.4068-1.6298-3.7657-4.0156-3.7676-6.5137 0-4.6403 4.646-8.5 10.5-8.5 4.3057 0 7.9494 2.0921 9.5801 5.043 0.4047 0.03242 0.80125 0.08672 1.1934 0.1543-1.6315-3.6383-5.8635-6.1973-10.773-6.1973z" style="fill:#808b9d"/>
</svg>
