<svg version="1.1" viewBox="0 0 48 48" xmlns="http://www.w3.org/2000/svg">
 <defs>
  <linearGradient id="bg" x2="0" y1="1" y2="47" gradientUnits="userSpaceOnUse">
   <stop style="stop-color:#d94f78" offset="0"/>
   <stop style="stop-color:#d53f6c" offset="1"/>
  </linearGradient>
 </defs>
 <path d="m1 43v.25c0 2.22 1.78 4 4 4h38c2.22 0 4-1.78 4-4v-.25c0 2.22-1.78 4-4 4h-38c-2.22 0-4-1.78-4-4zm0 .5v.5c0 2.22 1.78 4 4 4h38c2.22 0 4-1.78 4-4v-.5c0 2.22-1.78 4-4 4h-38c-2.22 0-4-1.78-4-4z" style="opacity:.02"/>
 <path d="m1 43.2v.25c0 2.22 1.78 4 4 4h38c2.22 0 4-1.78 4-4v-.25c0 2.22-1.78 4-4 4h-38c-2.22 0-4-1.78-4-4z" style="opacity:.05"/>
 <path d="m1 43v.25c0 2.22 1.78 4 4 4h38c2.22 0 4-1.78 4-4v-.25c0 2.22-1.78 4-4 4h-38c-2.22 0-4-1.78-4-4z" style="opacity:.1"/>
 <rect x="1" y="1" width="46" height="46" rx="4" style="fill:url(#bg)"/>
 <path d="m1 39v4c0 2.22 1.78 4 4 4h38c2.22 0 4-1.78 4-4v-4c0 2.22-1.78 4-4 4h-38c-2.22 0-4-1.78-4-4z" style="opacity:.1"/>
 <circle cx="24" cy="23" r="10" style="fill:#826ac8"/>
 <path d="m24 12c-6.63 0-12 5.37-12 12s5.37 12 12 12 12-5.37 12-12v-10s-11.9-1.95-12-2zm0 3c4.97 0 9 4.03 9 9s-4.03 9-9 9-9-4.03-9-9 4.03-9 9-9z" style="opacity:.1"/>
 <path d="m24 11a12 12 0 00-12 12 12 12 0 0012 12 12 12 0 0012-12v-10c0-1.11-.892-2-2-2zm0 3a9 9 0 019 9 9 9 0 01-9 9 9 9 0 01-9-9 9 9 0 019-9z" style="fill:#b7c1c8"/>
 <circle cx="32.5" cy="14.5" r="1.5" style="opacity:.3"/>
</svg>
