<svg viewBox="0 0 48 48">
  <defs>
    <linearGradient id="a" x1="1" x2="47" gradientUnits="userSpaceOnUse" gradientTransform="translate(-48 .002)">
      <stop stop-color="#b94f33"/>
      <stop offset="1" stop-color="#c85637"/>
    </linearGradient>
    <clipPath id="b"/>
    <clipPath id="c"/>
  </defs>
  <path d="M1 43v.25c0 2.216 1.784 4 4 4h38c2.216 0 4-1.784 4-4V43c0 2.216-1.784 4-4 4H5c-2.216 0-4-1.784-4-4zm0 .5v.5c0 2.216 1.784 4 4 4h38c2.216 0 4-1.784 4-4v-.5c0 2.216-1.784 4-4 4H5c-2.216 0-4-1.784-4-4z" opacity=".02"/>
  <path d="M1 43.25v.25c0 2.216 1.784 4 4 4h38c2.216 0 4-1.784 4-4v-.25c0 2.216-1.784 4-4 4H5c-2.216 0-4-1.784-4-4z" opacity=".05"/>
  <path d="M1 43v.25c0 2.216 1.784 4 4 4h38c2.216 0 4-1.784 4-4V43c0 2.216-1.784 4-4 4H5c-2.216 0-4-1.784-4-4z" opacity=".1"/>
  <rect width="46" height="46" x="-47" y="1" rx="4" transform="rotate(-90)" fill="url(#a)"/>
  <g opacity=".1" clip-path="url(#b)">
    <path d="M14.75 13.09c-.395 0-.75.43-.75.875v5.03h3.75v-2h1.5v2h4v-3h1.5v3h4v-2h1.5v2H34v-5.03c0-.449-.355-.875-.75-.875m-18.5 0"/>
    <path d="M12.813 15c-.441.043-.816.449-.813.875v16.25c0 .449.434.875.906.875h22.19c.469 0 .906-.426.906-.875v-14.25c0-.449-.441-.844-.906-.844h-4.844v3.063c1.01.191 1.75.738 1.75 1.406 0 .668-.742 1.215-1.75 1.406V31h-1.5v-8.094c-1.023-.191-1.75-.738-1.75-1.406 0-.668.727-1.215 1.75-1.406v-3.063h-2.781v-1.156c0-.449-.441-.875-.906-.875m-1.816 1h1.5v11.09c1.012.191 1.75.738 1.75 1.406 0 .668-.742 1.215-1.75 1.406v2.094h-1.5v-2.094c-1.012-.191-1.75-.738-1.75-1.406 0-.668.742-1.215 1.75-1.406M17.749 17h1.5v3.094c1.012.191 1.75.738 1.75 1.406 0 .668-.742 1.215-1.75 1.406V31h-1.5v-8.094c-1.012-.191-1.75-.738-1.75-1.406 0-.668.742-1.215 1.75-1.406m0-3.094"/>
  </g>
  <g>
    <g clip-path="url(#c)">
      <path d="M14.75 12.09c-.395 0-.75.43-.75.875v5.03h3.75v-2h1.5v2h4v-3h1.5v3h4v-2h1.5v2H34v-5.03c0-.449-.355-.875-.75-.875m-18.5 0" fill="#b9a3a3"/>
      <path d="M12.813 14c-.441.043-.816.449-.813.875v16.25c0 .449.434.875.906.875h22.19c.469 0 .906-.426.906-.875v-14.25c0-.449-.441-.844-.906-.844h-4.844v3.063c1.01.191 1.75.738 1.75 1.406 0 .668-.742 1.215-1.75 1.406V30h-1.5v-8.094c-1.023-.191-1.75-.738-1.75-1.406 0-.668.727-1.215 1.75-1.406v-3.063h-2.781v-1.156c0-.449-.441-.875-.906-.875m-1.816 1h1.5v11.09c1.012.191 1.75.738 1.75 1.406 0 .668-.742 1.215-1.75 1.406v2.094h-1.5v-2.094c-1.012-.191-1.75-.738-1.75-1.406 0-.668.742-1.215 1.75-1.406M17.749 16h1.5v3.094c1.012.191 1.75.738 1.75 1.406 0 .668-.742 1.215-1.75 1.406V30h-1.5v-8.094c-1.012-.191-1.75-.738-1.75-1.406 0-.668.742-1.215 1.75-1.406m0-3.094" fill="#ececf1"/>
    </g>
  </g>
  <g>
    <path d="M1 38.998v4c0 2.216 1.784 4 4 4h38c2.216 0 4-1.784 4-4v-4c0 2.216-1.784 4-4 4H5c-2.216 0-4-1.784-4-4z" opacity=".1"/>
  </g>
</svg>
