<?xml version="1.0" encoding="UTF-8" standalone="no"?>
<svg
   xmlns:dc="http://purl.org/dc/elements/1.1/"
   xmlns:cc="http://creativecommons.org/ns#"
   xmlns:rdf="http://www.w3.org/1999/02/22-rdf-syntax-ns#"
   xmlns:svg="http://www.w3.org/2000/svg"
   xmlns="http://www.w3.org/2000/svg"
   xmlns:sodipodi="http://sodipodi.sourceforge.net/DTD/sodipodi-0.dtd"
   xmlns:inkscape="http://www.inkscape.org/namespaces/inkscape"
   viewBox="0 0 48 48"
   version="1.1"
   id="svg20167"
   sodipodi:docname="marlin.svg">
  <metadata
     id="metadata20171">
    <rdf:RDF>
      <cc:Work
         rdf:about="">
        <dc:format>image/svg+xml</dc:format>
        <dc:type
           rdf:resource="http://purl.org/dc/dcmitype/StillImage" />
      </cc:Work>
    </rdf:RDF>
  </metadata>
  <sodipodi:namedview
     pagecolor="#ffffff"
     bordercolor="#666666"
     borderopacity="1"
     objecttolerance="10"
     gridtolerance="10"
     guidetolerance="10"
     inkscape:pageopacity="0"
     inkscape:pageshadow="2"
     inkscape:window-width="640"
     inkscape:window-height="480"
     id="namedview20169" />
  <defs
     id="defs20119">
    <linearGradient
       id="linearGradient3764"
       x1="1"
       x2="47"
       gradientUnits="userSpaceOnUse"
       gradientTransform="translate(-48.000001,0.00221467)">
      <stop
         stop-color="#019ad3"
         stop-opacity="1"
         id="stop20104" />
      <stop
         offset="1"
         stop-color="#01ace8"
         stop-opacity="1"
         id="stop20106" />
    </linearGradient>
    <clipPath
       id="clipPath-491198876">
      <g
         transform="translate(0,-1004.3622)"
         id="g20111">
        <rect
           rx="4"
           y="1005.36"
           x="1"
           height="46"
           width="46"
           fill="#1890d0"
           id="rect20109" />
      </g>
    </clipPath>
    <clipPath
       id="clipPath-504198946">
      <g
         transform="translate(0,-1004.3622)"
         id="g20116">
        <rect
           rx="4"
           y="1005.36"
           x="1"
           height="46"
           width="46"
           fill="#1890d0"
           id="rect20114" />
      </g>
    </clipPath>
  </defs>
  <g
     id="g20127">
    <path
       d="m 1 43 l 0 0.25 c 0 2.216 1.784 4 4 4 l 38 0 c 2.216 0 4 -1.784 4 -4 l 0 -0.25 c 0 2.216 -1.784 4 -4 4 l -38 0 c -2.216 0 -4 -1.784 -4 -4 z m 0 0.5 l 0 0.5 c 0 2.216 1.784 4 4 4 l 38 0 c 2.216 0 4 -1.784 4 -4 l 0 -0.5 c 0 2.216 -1.784 4 -4 4 l -38 0 c -2.216 0 -4 -1.784 -4 -4 z"
       opacity="0.02"
       id="path20121" />
    <path
       d="m 1 43.25 l 0 0.25 c 0 2.216 1.784 4 4 4 l 38 0 c 2.216 0 4 -1.784 4 -4 l 0 -0.25 c 0 2.216 -1.784 4 -4 4 l -38 0 c -2.216 0 -4 -1.784 -4 -4 z"
       opacity="0.05"
       id="path20123" />
    <path
       d="m 1 43 l 0 0.25 c 0 2.216 1.784 4 4 4 l 38 0 c 2.216 0 4 -1.784 4 -4 l 0 -0.25 c 0 2.216 -1.784 4 -4 4 l -38 0 c -2.216 0 -4 -1.784 -4 -4 z"
       opacity="0.1"
       id="path20125" />
  </g>
  <g
     id="g20131">
    <rect
       width="46"
       height="46"
       x="-47"
       y="1"
       rx="4"
       transform="matrix(0,-1,1,0,0,0)"
       fill="url(#linearGradient3764)"
       fill-opacity="1"
       id="rect20129" />
  </g>
  <g
     id="g20145">
    <g
       clip-path="url(#clipPath-491198876)"
       id="g20143">
      <g
         opacity="0.1"
         id="g20141">
        <!-- color: #01ace8 -->
        <g
           id="g20139">
          <path
             d="m 14 19.949 l 0 -5.04 c 0 -0.445 0.359 -0.852 0.75 -0.852 l 18.5 0 c 0.395 0 0.75 0.406 0.75 0.852 l 0 5.04 m -20 0"
             stroke="none"
             fill-rule="nonzero"
             fill-opacity="1"
             fill="#000"
             id="path20133" />
          <path
             d="m 12.813 15.949 c -0.441 0.043 -0.816 0.434 -0.813 0.859 l 0 16.277 c 0 0.453 0.43 0.863 0.902 0.863 l 22.2 0 c 0.469 0 0.898 -0.41 0.898 -0.863 l 0 -14.242 c 0 -0.449 -0.43 -0.863 -0.898 -0.863 l -9.129 0 l 0 -1.156 c 0 -0.449 -0.43 -0.863 -0.898 -0.863 l -12.176 0 c -0.027 0 -0.059 0 -0.09 0 m 0.004 -0.012"
             stroke="none"
             fill-rule="nonzero"
             fill-opacity="1"
             fill="#000"
             id="path20135" />
          <path
             d="m 19.711 18.934 l 3.5 1.727 c 0 0 2.152 -0.605 2.738 0.637 c 0 0 1.141 -0.398 2.34 -0.023 c 0 0 -0.469 0.551 -0.434 1.816 c 0 0 0.297 5.227 -3.723 7.04 c 0 0 1.215 1.387 0.461 2.797 c 0 0 -0.168 -0.691 -0.785 -1.355 c 0 0 -0.93 -0.895 -0.965 -1.27 c 0 0 -1.203 0.16 -1.75 -0.59 c 0 0 -0.551 -0.441 -1.027 -0.484 c 0 0 1.703 -0.398 3.215 0.266 c 0 0 1.23 -0.777 1.402 -1.641 l -1.027 0.039 c 0 0 0.238 -0.664 1.203 -0.984 c 0 0 -0.07 -1.387 -0.414 -1.707 c 0 0 -1.398 -0.027 -2.188 0.547 c 0 0 1.039 -1.059 1.555 -1.289 c 0 0 -1.27 -0.055 -1.992 0.348 c 0 0 0.707 -1.125 1.227 -1.355 c 0 0 -0.656 -0.891 -0.656 -1.379 c 0 0 -0.723 -0.605 -0.965 -1.27 l 1.074 0.637 c 0 0 -1.336 -1.883 -2.777 -2.516 m -0.012 0.008"
             stroke="none"
             fill-rule="nonzero"
             fill-opacity="1"
             fill="#000"
             id="path20137" />
        </g>
      </g>
    </g>
  </g>
  <g
     id="g20159">
    <g
       clip-path="url(#clipPath-504198946)"
       id="g20157">
      <g
         transform="translate(0,-1)"
         id="g20155">
        <!-- color: #01ace8 -->
        <g
           id="g20153">
          <path
             d="m 14 19.949 l 0 -5.04 c 0 -0.445 0.359 -0.852 0.75 -0.852 l 18.5 0 c 0.395 0 0.75 0.406 0.75 0.852 l 0 5.04 m -20 0"
             fill="#a38c8d"
             stroke="none"
             fill-rule="nonzero"
             fill-opacity="1"
             id="path20147" />
          <path
             d="m 12.813 15.949 c -0.441 0.043 -0.816 0.434 -0.813 0.859 l 0 16.277 c 0 0.453 0.43 0.863 0.902 0.863 l 22.2 0 c 0.469 0 0.898 -0.41 0.898 -0.863 l 0 -14.242 c 0 -0.449 -0.43 -0.863 -0.898 -0.863 l -9.129 0 l 0 -1.156 c 0 -0.449 -0.43 -0.863 -0.898 -0.863 l -12.176 0 c -0.027 0 -0.059 0 -0.09 0 m 0.004 -0.012"
             fill="#ececf1"
             stroke="none"
             fill-rule="nonzero"
             fill-opacity="1"
             id="path20149" />
          <path
             d="m 19.711 18.934 l 3.5 1.727 c 0 0 2.152 -0.605 2.738 0.637 c 0 0 1.141 -0.398 2.34 -0.023 c 0 0 -0.469 0.551 -0.434 1.816 c 0 0 0.297 5.227 -3.723 7.04 c 0 0 1.215 1.387 0.461 2.797 c 0 0 -0.168 -0.691 -0.785 -1.355 c 0 0 -0.93 -0.895 -0.965 -1.27 c 0 0 -1.203 0.16 -1.75 -0.59 c 0 0 -0.551 -0.441 -1.027 -0.484 c 0 0 1.703 -0.398 3.215 0.266 c 0 0 1.23 -0.777 1.402 -1.641 l -1.027 0.039 c 0 0 0.238 -0.664 1.203 -0.984 c 0 0 -0.07 -1.387 -0.414 -1.707 c 0 0 -1.398 -0.027 -2.188 0.547 c 0 0 1.039 -1.059 1.555 -1.289 c 0 0 -1.27 -0.055 -1.992 0.348 c 0 0 0.707 -1.125 1.227 -1.355 c 0 0 -0.656 -0.891 -0.656 -1.379 c 0 0 -0.723 -0.605 -0.965 -1.27 l 1.074 0.637 c 0 0 -1.336 -1.883 -2.777 -2.516 m -0.012 0.008"
             fill="#a38c8d"
             stroke="none"
             fill-rule="nonzero"
             fill-opacity="1"
             id="path20151" />
        </g>
      </g>
    </g>
  </g>
  <g
     id="g20165">
    <g
       transform="translate(0,-1004.3622)"
       id="g20163">
      <path
         d="m 1 1043.36 0 4 c 0 2.216 1.784 4 4 4 l 38 0 c 2.216 0 4 -1.784 4 -4 l 0 -4 c 0 2.216 -1.784 4 -4 4 l -38 0 c -2.216 0 -4 -1.784 -4 -4 z"
         opacity="0.1"
         id="path20161" />
    </g>
  </g>
</svg>
