<svg version="1.1" viewBox="0 0 48 48" xmlns="http://www.w3.org/2000/svg">
 <defs>
  <linearGradient id="bg" x2="0" y1="1" y2="47" gradientUnits="userSpaceOnUse">
   <stop style="stop-color:#35558d" offset="0"/>
   <stop style="stop-color:#2f4b7d" offset="1"/>
  </linearGradient>
 </defs>
 <path d="m1 43v0.25c0 2.22 1.78 4 4 4h38c2.22 0 4-1.78 4-4v-0.25c0 2.22-1.78 4-4 4h-38c-2.22 0-4-1.78-4-4zm0 0.5v0.5c0 2.22 1.78 4 4 4h38c2.22 0 4-1.78 4-4v-0.5c0 2.22-1.78 4-4 4h-38c-2.22 0-4-1.78-4-4z" style="opacity:.02"/>
 <path d="m1 43.2v0.25c0 2.22 1.78 4 4 4h38c2.22 0 4-1.78 4-4v-0.25c0 2.22-1.78 4-4 4h-38c-2.22 0-4-1.78-4-4z" style="opacity:.05"/>
 <path d="m1 43v0.25c0 2.22 1.78 4 4 4h38c2.22 0 4-1.78 4-4v-0.25c0 2.22-1.78 4-4 4h-38c-2.22 0-4-1.78-4-4z" style="opacity:.1"/>
 <rect x="1" y="1" width="46" height="46" rx="4" style="fill:url(#bg)"/>
 <path d="m1 39v4c0 2.22 1.78 4 4 4h38c2.22 0 4-1.78 4-4v-4c0 2.22-1.78 4-4 4h-38c-2.22 0-4-1.78-4-4z" style="opacity:.1"/>
 <path d="m12 14.1v15.9c0 0.586 0.472 1.06 1.06 1.06h8.13l-1.51 2.03-0.248-0.174s-0.923 1.32-1.36 1.95c-0.199 0.284-0.131 0.673 0.152 0.871l1.03 0.717c0.284 0.199 0.67 0.13 0.869-0.154 0.416-0.594 1.36-1.95 1.36-1.95l-0.252-0.176 1.78-2.39v2.28h-0.252v2.38c0 0.346 0.279 0.625 0.625 0.625h1.25c0.346 0 0.625-0.279 0.625-0.625v-2.38h-0.248v-2.28l1.78 2.39-0.252 0.178s0.945 1.35 1.36 1.95c0.199 0.284 0.587 0.353 0.871 0.154l1.02-0.717c0.283-0.198 0.353-0.587 0.154-0.871-0.44-0.627-1.36-1.95-1.36-1.95l-0.25 0.173-1.51-2.03h8.13c0.587 0 1.06-0.472 1.06-1.06v-15.9z" style="opacity:.1"/>
 <path d="m13.1 12c-0.587 0-1.06 0.472-1.06 1.06v15.9c0 0.587 0.472 1.06 1.06 1.06h8.13l-1.51 2.03-0.25-0.176s-0.923 1.32-1.36 1.95c-0.199 0.284-0.131 0.673 0.152 0.871l1.03 0.717c0.284 0.199 0.67 0.13 0.869-0.154 0.416-0.594 1.36-1.95 1.36-1.95l-0.25-0.176 1.78-2.39v2.28h-0.252v2.38c0 0.346 0.279 0.625 0.625 0.625h1.25c0.346 0 0.625-0.279 0.625-0.625v-2.38h-0.248v-2.28l1.78 2.39-0.252 0.178s0.945 1.35 1.36 1.95c0.199 0.284 0.587 0.353 0.871 0.154l1.02-0.717c0.283-0.198 0.353-0.587 0.154-0.871-0.44-0.627-1.36-1.95-1.36-1.95l-0.246 0.172-1.51-2.03h8.12c0.587 0 1.06-0.472 1.06-1.06v-15.9c0-0.587-0.472-1.06-1.06-1.06z" style="fill:#f9f9f9"/>
 <path d="m13.5 13c-0.277 0-0.5 0.223-0.5 0.5v15c0 0.277 0.223 0.5 0.5 0.5h21c0.277 0 0.5-0.223 0.5-0.5v-15c0-0.277-0.223-0.5-0.5-0.5zm8.5 4v5.5l5-5.5v8h-2v-3l-2.5 3h-2.5v-3l-3 3h-3zm9 0h2v8l-4.5-5h2.5z" style="fill:#068ad2"/>
</svg>
