<?xml version="1.0" encoding="UTF-8"?>
<svg version="1.1" viewBox="0 0 48 48" xmlns="http://www.w3.org/2000/svg">
 <defs>
  <linearGradient id="bg" x2="0" y1="1" y2="47" gradientUnits="userSpaceOnUse">
   <stop style="stop-color:#eaecda" offset="0"/>
   <stop style="stop-color:#e3e6ce" offset="1"/>
  </linearGradient>
 </defs>
 <path d="m1 43v0.25c0 2.22 1.78 4 4 4h38c2.22 0 4-1.78 4-4v-0.25c0 2.22-1.78 4-4 4h-38c-2.22 0-4-1.78-4-4zm0 0.5v0.5c0 2.22 1.78 4 4 4h38c2.22 0 4-1.78 4-4v-0.5c0 2.22-1.78 4-4 4h-38c-2.22 0-4-1.78-4-4z" style="opacity:.02"/>
 <path d="m1 43.2v0.25c0 2.22 1.78 4 4 4h38c2.22 0 4-1.78 4-4v-0.25c0 2.22-1.78 4-4 4h-38c-2.22 0-4-1.78-4-4z" style="opacity:.05"/>
 <path d="m1 43v0.25c0 2.22 1.78 4 4 4h38c2.22 0 4-1.78 4-4v-0.25c0 2.22-1.78 4-4 4h-38c-2.22 0-4-1.78-4-4z" style="opacity:.1"/>
 <rect x="1" y="1" width="46" height="46" rx="4" style="fill:url(#bg)"/>
 <path d="m1 39v4c0 2.22 1.78 4 4 4h38c2.22 0 4-1.78 4-4v-4c0 2.22-1.78 4-4 4h-38c-2.22 0-4-1.78-4-4z" style="opacity:.1"/>
 <path d="m29 14v20c0 0.554 0.446 1 1 1s1-0.446 1-1v-20zm-12 1v18c0 0.554 0.446 1 1 1s1-0.446 1-1v-18zm9 3v12c0 0.554 0.446 1 1 1s1-0.446 1-1v-12zm-12 1v10c0 0.554 0.446 1 1 1s1-0.446 1-1v-10zm6 1v8c0 0.554 0.446 1 1 1s1-0.446 1-1v-8zm12 0v8c0 0.554 0.446 1 1 1s1-0.446 1-1v-8zm-9 2v4c0 0.554 0.446 1 1 1s1-0.446 1-1v-4zm-12 1v2c0 0.554 0.446 1 1 1s1-0.446 1-1v-2zm24 0v2c0 0.554 0.446 1 1 1s1-0.446 1-1v-2z" style="fill-opacity:.983;opacity:.1"/>
 <path d="m30 12c-0.554 0-1 0.446-1 1v20c0 0.554 0.446 1 1 1s1-0.446 1-1v-20c0-0.554-0.446-1-1-1zm-3 4c-0.554 0-1 0.446-1 1v12c0 0.554 0.446 1 1 1s1-0.446 1-1v-12c0-0.554-0.446-1-1-1zm6 2c-0.554 0-1 0.446-1 1v8c0 0.554 0.446 1 1 1s1-0.446 1-1v-8c0-0.554-0.446-1-1-1zm3 3c-0.554 0-1 0.446-1 1v2c0 0.554 0.446 1 1 1s1-0.446 1-1v-2c0-0.554-0.446-1-1-1zm-12 1-1 1v2c0 0.554 0.446 1 1 1s1-0.446 1-1v-2l-1-1z" style="fill:#e75454"/>
 <path d="m18 13c-0.554 0-1 0.446-1 1v18c0 0.554 0.446 1 1 1s1-0.446 1-1v-18c0-0.554-0.446-1-1-1zm-3 4c-0.554 0-1 0.446-1 1v10c0 0.554 0.446 1 1 1s1-0.446 1-1v-10c0-0.554-0.446-1-1-1zm6 1c-0.554 0-1 0.446-1 1v8c0 0.554 0.446 1 1 1s1-0.446 1-1v-8c0-0.554-0.446-1-1-1zm3 2c-0.554 0-1 0.446-1 1v2h2v-2c0-0.554-0.446-1-1-1zm-12 1c-0.554 0-1 0.446-1 1v2c0 0.554 0.446 1 1 1s1-0.446 1-1v-2c0-0.554-0.446-1-1-1z" style="fill:#6858cc"/>
</svg>
