<svg width="48" height="48" viewBox="0 0 48 48.000001" xmlns="http://www.w3.org/2000/svg">
  <defs>
    <linearGradient id="a" x1="-47" x2="-1" gradientUnits="userSpaceOnUse">
      <stop offset="0" stop-color="#343a44"/>
      <stop offset="1" stop-color="#3c4350"/>
    </linearGradient>
  </defs>
  <path d="M1 43v.25c0 2.216 1.784 4 4 4h38c2.216 0 4-1.784 4-4V43c0 2.216-1.784 4-4 4H5c-2.216 0-4-1.784-4-4zm0 .5v.5c0 2.216 1.784 4 4 4h38c2.216 0 4-1.784 4-4v-.5c0 2.216-1.784 4-4 4H5c-2.216 0-4-1.784-4-4z" opacity=".02"/>
  <path d="M1 43.25v.25c0 2.216 1.784 4 4 4h38c2.216 0 4-1.784 4-4v-.25c0 2.216-1.784 4-4 4H5c-2.216 0-4-1.784-4-4z" opacity=".05"/>
  <path d="M1 43v.25c0 2.216 1.784 4 4 4h38c2.216 0 4-1.784 4-4V43c0 2.216-1.784 4-4 4H5c-2.216 0-4-1.784-4-4z" opacity=".1"/>
  <rect transform="rotate(-90)" x="-47" y="1" width="46" height="46" rx="4" fill="url(#a)"/>
  <path d="M1 39v4c0 2.216 1.784 4 4 4h38c2.216 0 4-1.784 4-4v-4c0 2.216-1.784 4-4 4H5c-2.216 0-4-1.784-4-4z" opacity=".1"/>
  <g>
    <g opacity=".1">
      <path d="M11 25.02v-2l4.996-3v1l-4.5 3 4.5 3v.996m-4.996-3"/>
      <path d="M17 24a.997.997 0 0 1-1.996-.008 1 1 0 0 1 .996-1 1 1 0 0 1 1 .996" fill-opacity=".706"/>
      <path d="M32 25v-2l5-3v1l-4 3 4 3v1m-6 0v-1l4-3-4-3v-1l5 3v2m-5 3M20.03 29a11.318 11.318 0 0 1-.785-2.344 12.372 12.372 0 0 1-.188-1.262 15.747 15.747 0 0 1-.066-1.402c0-.5.023-.965.066-1.398a10.275 10.275 0 0 1 .512-2.438c.129-.387.281-.773.461-1.16h.969c-.184.402-.34.805-.473 1.199-.133.395-.242.797-.328 1.203-.082.402-.141.82-.184 1.25-.039.426-.066.875-.066 1.348a13.607 13.607 0 0 0 .25 2.601c.086.406.195.805.328 1.195.133.395.289.797.473 1.207m-.969 0M24.03 29a11 11 0 0 1-.785-2.344 12.372 12.372 0 0 1-.188-1.262 15.747 15.747 0 0 1-.066-1.402c0-.5.023-.965.066-1.398a10.275 10.275 0 0 1 .512-2.438c.129-.387.285-.773.461-1.16h.969c-.184.402-.34.805-.473 1.199-.133.395-.242.797-.328 1.203-.082.402-.141.82-.184 1.25-.039.426-.066.875-.066 1.348a13.607 13.607 0 0 0 .25 2.601c.086.406.195.805.328 1.195.133.395.289.797.473 1.207m-.969 0M28.03 29c-.176-.391-.332-.773-.461-1.16s-.238-.781-.32-1.184a10.688 10.688 0 0 1-.188-1.262 14.37 14.37 0 0 1-.066-1.402c0-.5.023-.965.066-1.398.039-.438.102-.859.188-1.258.082-.406.191-.801.32-1.18.129-.387.285-.773.461-1.16h.973c-.188.402-.344.805-.477 1.199a9.94 9.94 0 0 0-.324 1.203c-.086.402-.145.82-.188 1.25-.039.426-.066.875-.066 1.348s.023.926.066 1.355c.043.426.102.84.188 1.246.082.406.191.805.324 1.195.133.395.289.797.477 1.207m-.973 0"/>
    </g>
  </g>
  <g>
    <path d="M11 24.02v-2l4.996-3v1l-4.5 3 4.5 3v.996m-4.996-3" fill="#70c1ff"/>
    <path d="M17 23a.997.997 0 0 1-1.996-.008 1 1 0 0 1 .996-1 1 1 0 0 1 1 .996" fill-opacity=".706" fill="#5bff49"/>
    <path d="M32 24v-2l5-3v1l-4 3 4 3v1m-6 0v-1l4-3-4-3v-1l5 3v2m-5 3M20.03 28a11.318 11.318 0 0 1-.785-2.344 12.372 12.372 0 0 1-.188-1.262 15.747 15.747 0 0 1-.066-1.402c0-.5.023-.965.066-1.398a10.275 10.275 0 0 1 .512-2.438c.129-.387.281-.773.461-1.16h.969c-.184.402-.34.805-.473 1.199-.133.395-.242.797-.328 1.203-.082.402-.141.82-.184 1.25-.039.426-.066.875-.066 1.348a13.607 13.607 0 0 0 .25 2.601c.086.406.195.805.328 1.195.133.395.289.797.473 1.207m-.969 0M24.03 28a11 11 0 0 1-.785-2.344 12.372 12.372 0 0 1-.188-1.262 15.747 15.747 0 0 1-.066-1.402c0-.5.023-.965.066-1.398a10.275 10.275 0 0 1 .512-2.438c.129-.387.285-.773.461-1.16h.969c-.184.402-.34.805-.473 1.199-.133.395-.242.797-.328 1.203-.082.402-.141.82-.184 1.25-.039.426-.066.875-.066 1.348a13.607 13.607 0 0 0 .25 2.601c.086.406.195.805.328 1.195.133.395.289.797.473 1.207m-.969 0M28.03 28c-.176-.391-.332-.773-.461-1.16s-.238-.781-.32-1.184a10.688 10.688 0 0 1-.188-1.262 14.37 14.37 0 0 1-.066-1.402c0-.5.023-.965.066-1.398.039-.438.102-.859.188-1.258.082-.406.191-.801.32-1.18.129-.387.285-.773.461-1.16h.973c-.188.402-.344.805-.477 1.199a9.94 9.94 0 0 0-.324 1.203c-.086.402-.145.82-.188 1.25-.039.426-.066.875-.066 1.348s.023.926.066 1.355c.043.426.102.84.188 1.246.082.406.191.805.324 1.195.133.395.289.797.477 1.207m-.973 0" fill="#70c1ff"/>
  </g>
</svg>
