<svg viewBox="0 0 48 48">
  <defs>
    <linearGradient id="a" x1="1" x2="47" gradientUnits="userSpaceOnUse" gradientTransform="translate(-48 .002)">
      <stop stop-color="#d43662"/>
      <stop offset="1" stop-color="#d8466e"/>
    </linearGradient>
    <clipPath id="b"/>
    <clipPath id="c"/>
  </defs>
  <path d="M1 43v.25c0 2.216 1.784 4 4 4h38c2.216 0 4-1.784 4-4V43c0 2.216-1.784 4-4 4H5c-2.216 0-4-1.784-4-4zm0 .5v.5c0 2.216 1.784 4 4 4h38c2.216 0 4-1.784 4-4v-.5c0 2.216-1.784 4-4 4H5c-2.216 0-4-1.784-4-4z" opacity=".02"/>
  <path d="M1 43.25v.25c0 2.216 1.784 4 4 4h38c2.216 0 4-1.784 4-4v-.25c0 2.216-1.784 4-4 4H5c-2.216 0-4-1.784-4-4z" opacity=".05"/>
  <path d="M1 43v.25c0 2.216 1.784 4 4 4h38c2.216 0 4-1.784 4-4V43c0 2.216-1.784 4-4 4H5c-2.216 0-4-1.784-4-4z" opacity=".1"/>
  <rect width="46" height="46" x="-47" y="1" rx="4" transform="rotate(-90)" fill="url(#a)"/>
  <g clip-path="url(#b)">
    <path d="M29.23 12.06c-.426.34-1.68 2.719-2.934 5.555a69.295 69.295 0 0 1-1.59 3.363c-1.078 2.059-3.711 5.805-4.93 7l-1.137 1.125.848.926c.52.57 1.207 1.754 1.777 3.078 1.082 2.523 1.27 2.887 1.477 2.887.098 0 .652-.313 1.27-.707 1.379-.895 2.668-2.098 4.422-4.145 2.738-3.191 4.793-3.867 7.324-2.402.684.398 1.246.648 1.246.566 0-.105-.348-1.066-.766-2.148a526.72 526.72 0 0 1-2.527-6.789c-.691-1.164-2.949-9.102-4.48-8.297m-5.457 6.527c-.012 0-.027 0-.043.008-2.316 1.039-3.152 1.512-3.836 2.172-.449.441-.816.91-.816 1.047 0 .441 1.824 1.566 2.125 1.324.145-.117.715-.953 1.266-1.863.973-1.621 1.477-2.664 1.305-2.688m-6.484 4.59c-.395 0-5.992 2.168-6.258 2.426-.078.074.004.211.184.316.18.102 1.203.805 2.289 1.559 1.082.754 2.023 1.367 2.09 1.371.066 0 .563-.266 1.094-.594 1.117-.691 3.273-2.816 3.262-3.23-.008-.352-2.145-1.852-2.664-1.852m.004.004" opacity=".1"/>
  </g>
  <g>
    <g clip-path="url(#c)">
      <path d="M29.23 11.06c-.426.34-1.68 2.719-2.934 5.555a69.295 69.295 0 0 1-1.59 3.363c-1.078 2.059-3.711 5.805-4.93 7l-1.137 1.125.848.926c.52.57 1.207 1.754 1.777 3.078 1.082 2.523 1.27 2.887 1.477 2.887.098 0 .652-.313 1.27-.707 1.379-.895 2.668-2.098 4.422-4.145 2.738-3.191 4.793-3.867 7.324-2.402.684.398 1.246.648 1.246.566 0-.105-.348-1.066-.766-2.148a526.72 526.72 0 0 1-2.527-6.789c-.691-1.164-2.949-9.102-4.48-8.297m-5.457 6.527c-.012 0-.027 0-.043.008-2.316 1.039-3.152 1.512-3.836 2.172-.449.441-.816.91-.816 1.047 0 .441 1.824 1.566 2.125 1.324.145-.117.715-.953 1.266-1.863.973-1.621 1.477-2.664 1.305-2.688m-6.484 4.59c-.395 0-5.992 2.168-6.258 2.426-.078.074.004.211.184.316.18.102 1.203.805 2.289 1.559 1.082.754 2.023 1.367 2.09 1.371.066 0 .563-.266 1.094-.594 1.117-.691 3.273-2.816 3.262-3.23-.008-.352-2.145-1.852-2.664-1.852m.004.004" fill="#f9f9f9"/>
    </g>
  </g>
  <g>
    <path d="M1 38.998v4c0 2.216 1.784 4 4 4h38c2.216 0 4-1.784 4-4v-4c0 2.216-1.784 4-4 4H5c-2.216 0-4-1.784-4-4z" opacity=".1"/>
  </g>
</svg>
