<?xml version="1.0" encoding="UTF-8" standalone="no"?>
<svg
   xmlns:dc="http://purl.org/dc/elements/1.1/"
   xmlns:cc="http://creativecommons.org/ns#"
   xmlns:rdf="http://www.w3.org/1999/02/22-rdf-syntax-ns#"
   xmlns:svg="http://www.w3.org/2000/svg"
   xmlns="http://www.w3.org/2000/svg"
   xmlns:sodipodi="http://sodipodi.sourceforge.net/DTD/sodipodi-0.dtd"
   xmlns:inkscape="http://www.inkscape.org/namespaces/inkscape"
   viewBox="0 0 48 48"
   version="1.1"
   id="svg20228"
   sodipodi:docname="matlab.svg">
  <metadata
     id="metadata20232">
    <rdf:RDF>
      <cc:Work
         rdf:about="">
        <dc:format>image/svg+xml</dc:format>
        <dc:type
           rdf:resource="http://purl.org/dc/dcmitype/StillImage" />
      </cc:Work>
    </rdf:RDF>
  </metadata>
  <sodipodi:namedview
     pagecolor="#ffffff"
     bordercolor="#666666"
     borderopacity="1"
     objecttolerance="10"
     gridtolerance="10"
     guidetolerance="10"
     inkscape:pageopacity="0"
     inkscape:pageshadow="2"
     inkscape:window-width="640"
     inkscape:window-height="480"
     id="namedview20230" />
  <defs
     id="defs20188">
    <linearGradient
       id="linearGradient3764"
       x1="1"
       x2="47"
       gradientUnits="userSpaceOnUse"
       gradientTransform="translate(-48.000001,0.00221467)">
      <stop
         stop-color="#d43662"
         stop-opacity="1"
         id="stop20173" />
      <stop
         offset="1"
         stop-color="#d8466e"
         stop-opacity="1"
         id="stop20175" />
    </linearGradient>
    <clipPath
       id="clipPath-391115893">
      <g
         transform="translate(0,-1004.3622)"
         id="g20180">
        <rect
           rx="4"
           y="1005.36"
           x="1"
           height="46"
           width="46"
           fill="#1890d0"
           id="rect20178" />
      </g>
    </clipPath>
    <clipPath
       id="clipPath-404214608">
      <g
         transform="translate(0,-1004.3622)"
         id="g20185">
        <rect
           rx="4"
           y="1005.36"
           x="1"
           height="46"
           width="46"
           fill="#1890d0"
           id="rect20183" />
      </g>
    </clipPath>
  </defs>
  <g
     id="g20196">
    <path
       d="m 1 43 l 0 0.25 c 0 2.216 1.784 4 4 4 l 38 0 c 2.216 0 4 -1.784 4 -4 l 0 -0.25 c 0 2.216 -1.784 4 -4 4 l -38 0 c -2.216 0 -4 -1.784 -4 -4 z m 0 0.5 l 0 0.5 c 0 2.216 1.784 4 4 4 l 38 0 c 2.216 0 4 -1.784 4 -4 l 0 -0.5 c 0 2.216 -1.784 4 -4 4 l -38 0 c -2.216 0 -4 -1.784 -4 -4 z"
       opacity="0.02"
       id="path20190" />
    <path
       d="m 1 43.25 l 0 0.25 c 0 2.216 1.784 4 4 4 l 38 0 c 2.216 0 4 -1.784 4 -4 l 0 -0.25 c 0 2.216 -1.784 4 -4 4 l -38 0 c -2.216 0 -4 -1.784 -4 -4 z"
       opacity="0.05"
       id="path20192" />
    <path
       d="m 1 43 l 0 0.25 c 0 2.216 1.784 4 4 4 l 38 0 c 2.216 0 4 -1.784 4 -4 l 0 -0.25 c 0 2.216 -1.784 4 -4 4 l -38 0 c -2.216 0 -4 -1.784 -4 -4 z"
       opacity="0.1"
       id="path20194" />
  </g>
  <g
     id="g20200">
    <rect
       width="46"
       height="46"
       x="-47"
       y="1"
       rx="4"
       transform="matrix(0,-1,1,0,0,0)"
       fill="url(#linearGradient3764)"
       fill-opacity="1"
       id="rect20198" />
  </g>
  <g
     id="g20210">
    <g
       clip-path="url(#clipPath-391115893)"
       id="g20208">
      <g
         opacity="0.1"
         id="g20206">
        <!-- color: #d8466e -->
        <g
           id="g20204">
          <path
             d="m 29.23 12.06 c -0.426 0.34 -1.68 2.719 -2.934 5.555 c -0.508 1.156 -1.227 2.668 -1.59 3.363 c -1.078 2.059 -3.711 5.805 -4.93 7 l -1.137 1.125 l 0.848 0.926 c 0.52 0.57 1.207 1.754 1.777 3.078 c 1.082 2.523 1.27 2.887 1.477 2.887 c 0.098 0 0.652 -0.313 1.27 -0.707 c 1.379 -0.895 2.668 -2.098 4.422 -4.145 c 2.738 -3.191 4.793 -3.867 7.324 -2.402 c 0.684 0.398 1.246 0.648 1.246 0.566 c 0 -0.105 -0.348 -1.066 -0.766 -2.148 c -0.418 -1.082 -1.559 -4.137 -2.527 -6.789 c -0.691 -1.164 -2.949 -9.102 -4.48 -8.297 m -5.457 6.527 c -0.012 0 -0.027 0 -0.043 0.008 c -2.316 1.039 -3.152 1.512 -3.836 2.172 c -0.449 0.441 -0.816 0.91 -0.816 1.047 c 0 0.441 1.824 1.566 2.125 1.324 c 0.145 -0.117 0.715 -0.953 1.266 -1.863 c 0.973 -1.621 1.477 -2.664 1.305 -2.688 m -6.484 4.59 c -0.395 0 -5.992 2.168 -6.258 2.426 c -0.078 0.074 0.004 0.211 0.184 0.316 c 0.18 0.102 1.203 0.805 2.289 1.559 c 1.082 0.754 2.023 1.367 2.09 1.371 c 0.066 0 0.563 -0.266 1.094 -0.594 c 1.117 -0.691 3.273 -2.816 3.262 -3.23 c -0.008 -0.352 -2.145 -1.852 -2.664 -1.852 m 0.004 0.004"
             stroke="none"
             fill-rule="nonzero"
             fill-opacity="1"
             fill="#000"
             id="path20202" />
        </g>
      </g>
    </g>
  </g>
  <g
     id="g20220">
    <g
       clip-path="url(#clipPath-404214608)"
       id="g20218">
      <g
         transform="translate(0,-1)"
         id="g20216">
        <!-- color: #d8466e -->
        <g
           id="g20214">
          <path
             d="m 29.23 12.06 c -0.426 0.34 -1.68 2.719 -2.934 5.555 c -0.508 1.156 -1.227 2.668 -1.59 3.363 c -1.078 2.059 -3.711 5.805 -4.93 7 l -1.137 1.125 l 0.848 0.926 c 0.52 0.57 1.207 1.754 1.777 3.078 c 1.082 2.523 1.27 2.887 1.477 2.887 c 0.098 0 0.652 -0.313 1.27 -0.707 c 1.379 -0.895 2.668 -2.098 4.422 -4.145 c 2.738 -3.191 4.793 -3.867 7.324 -2.402 c 0.684 0.398 1.246 0.648 1.246 0.566 c 0 -0.105 -0.348 -1.066 -0.766 -2.148 c -0.418 -1.082 -1.559 -4.137 -2.527 -6.789 c -0.691 -1.164 -2.949 -9.102 -4.48 -8.297 m -5.457 6.527 c -0.012 0 -0.027 0 -0.043 0.008 c -2.316 1.039 -3.152 1.512 -3.836 2.172 c -0.449 0.441 -0.816 0.91 -0.816 1.047 c 0 0.441 1.824 1.566 2.125 1.324 c 0.145 -0.117 0.715 -0.953 1.266 -1.863 c 0.973 -1.621 1.477 -2.664 1.305 -2.688 m -6.484 4.59 c -0.395 0 -5.992 2.168 -6.258 2.426 c -0.078 0.074 0.004 0.211 0.184 0.316 c 0.18 0.102 1.203 0.805 2.289 1.559 c 1.082 0.754 2.023 1.367 2.09 1.371 c 0.066 0 0.563 -0.266 1.094 -0.594 c 1.117 -0.691 3.273 -2.816 3.262 -3.23 c -0.008 -0.352 -2.145 -1.852 -2.664 -1.852 m 0.004 0.004"
             fill="#f9f9f9"
             stroke="none"
             fill-rule="nonzero"
             fill-opacity="1"
             id="path20212" />
        </g>
      </g>
    </g>
  </g>
  <g
     id="g20226">
    <g
       transform="translate(0,-1004.3622)"
       id="g20224">
      <path
         d="m 1 1043.36 0 4 c 0 2.216 1.784 4 4 4 l 38 0 c 2.216 0 4 -1.784 4 -4 l 0 -4 c 0 2.216 -1.784 4 -4 4 l -38 0 c -2.216 0 -4 -1.784 -4 -4 z"
         opacity="0.1"
         id="path20222" />
    </g>
  </g>
</svg>
