<svg style="" viewBox="0 0 48 48" xmlns="http://www.w3.org/2000/svg" xmlns:xlink="http://www.w3.org/1999/xlink">
 <defs style="">
  <linearGradient id="linearGradient3764" gradientTransform="translate(-48 .002215)" gradientUnits="userSpaceOnUse" style="" x1="1" x2="47">
   <stop offset="0" style="stop-color:#53cbcd"/>
   <stop offset="1" style="stop-color:#63d1d1"/>
  </linearGradient>
 </defs>
 <path d="m 1 43 v .25 c 0 2.216 1.784 4 4 4 h 38 c 2.216 0 4 -1.784 4 -4 v -.25 c 0 2.216 -1.784 4 -4 4 h -38 c -2.216 0 -4 -1.784 -4 -4 z m 0 .5 v .5 c 0 2.216 1.784 4 4 4 h 38 c 2.216 0 4 -1.784 4 -4 v -.5 c 0 2.216 -1.784 4 -4 4 h -38 c -2.216 0 -4 -1.784 -4 -4 z" style="opacity:.02"/>
 <path d="m 1 43.25 v .25 c 0 2.216 1.784 4 4 4 h 38 c 2.216 0 4 -1.784 4 -4 v -.25 c 0 2.216 -1.784 4 -4 4 h -38 c -2.216 0 -4 -1.784 -4 -4 z" style="opacity:.05"/>
 <path d="m 1 43 v .25 c 0 2.216 1.784 4 4 4 h 38 c 2.216 0 4 -1.784 4 -4 v -.25 c 0 2.216 -1.784 4 -4 4 h -38 c -2.216 0 -4 -1.784 -4 -4 z" style="opacity:.1"/>
 <rect height="46" rx="4" style="fill:url(#linearGradient3764)" transform="rotate(-90)" width="46" x="-47" y="1"/>
 <g style="opacity:.1">
  <path d="m 31 34 h 5 v -16 l -5 6" style=""/>
  <path d="m 17 34 h -5 v -16 l 5 6" style=""/>
  <path d="m 24 33.434 -12 -15.434 12 -8 12 8" style=""/>
  <path d="m 17 20 7 -10 7 10" style=""/>
  <path d="m 17 34 v -14 h 4" style=""/>
  <path d="m 31 20 h -4 l 4 14" style=""/>
  <path d="m 21 20 3 -10 3 10" style=""/>
  <path d="m 24 33.457 -5 -6.457 2 -7 h 6 l 2 7" style=""/>
  <path d="m 19 27 -2 -2.566 v 9.566" style=""/>
  <path d="m 31 34 -2 -7 2 -2.582" style=""/>
 </g>
 <path d="m 31 33 h 5 v -16 l -5 6" style="fill:#007878"/>
 <path d="m 17 33 h -5 v -16 l 5 6" style="fill:#007878"/>
 <path d="m 24 32.434 -12 -15.434 12 -8 12 8" style="fill:#004c4c"/>
 <path d="m 17 19 7 -10 7 10" style="fill:#001919"/>
 <path d="m 17 33 v -14 h 4" style="fill:#003434"/>
 <path d="m 31 19 h -4 l 4 14" style="fill:#003434"/>
 <path d="m 21 19 3 -10 3 10" style="fill:#004c4c"/>
 <path d="m 24 32.457 -5 -6.457 2 -7 h 6 l 2 7" style="fill:#007878"/>
 <path d="m 19 26 -2 -2.566 v 9.566" style="fill:#004c4c"/>
 <path d="m 31 33 -2 -7 2 -2.582" style="fill:#004c4c"/>
 <path d="m 1 39 v 4 c 0 2.216 1.784 4 4 4 h 38 c 2.216 0 4 -1.784 4 -4 v -4 c 0 2.216 -1.784 4 -4 4 h -38 c -2.216 0 -4 -1.784 -4 -4 z" style="opacity:.1"/>
</svg>
