<svg viewBox="0 0 48 48" xmlns="http://www.w3.org/2000/svg">
 <defs>
  <linearGradient id="linearGradient3764" x1="1" x2="47" gradientTransform="translate(-48 .0022147)" gradientUnits="userSpaceOnUse">
   <stop stop-color="#53cbcd" offset="0"/>
   <stop stop-color="#63d1d1" offset="1"/>
  </linearGradient>
  <clipPath id="clipPath-320234649">
   <g transform="translate(0 -1004.4)">
    <rect x="1" y="1005.4" width="46" height="46" rx="4" fill="#1890d0"/>
   </g>
  </clipPath>
  <clipPath id="clipPath-332972052">
   <g transform="translate(0 -1004.4)">
    <rect x="1" y="1005.4" width="46" height="46" rx="4" fill="#1890d0"/>
   </g>
  </clipPath>
 </defs>
 <g>
  <path d="m1 43v0.25c0 2.216 1.784 4 4 4h38c2.216 0 4-1.784 4-4v-0.25c0 2.216-1.784 4-4 4h-38c-2.216 0-4-1.784-4-4zm0 0.5v0.5c0 2.216 1.784 4 4 4h38c2.216 0 4-1.784 4-4v-0.5c0 2.216-1.784 4-4 4h-38c-2.216 0-4-1.784-4-4z" opacity=".02"/>
  <path d="m1 43.25v0.25c0 2.216 1.784 4 4 4h38c2.216 0 4-1.784 4-4v-0.25c0 2.216-1.784 4-4 4h-38c-2.216 0-4-1.784-4-4z" opacity=".05"/>
  <path d="m1 43v0.25c0 2.216 1.784 4 4 4h38c2.216 0 4-1.784 4-4v-0.25c0 2.216-1.784 4-4 4h-38c-2.216 0-4-1.784-4-4z" opacity=".1"/>
 </g>
 <g>
  <rect transform="rotate(-90)" x="-47" y="1" width="46" height="46" rx="4" fill="url(#linearGradient3764)"/>
 </g>
 <g>
  <g clip-path="url(#clipPath-320234649)">
   <g opacity=".1">
    <g>
     <g>
      <path d="m31 34h5v-16l-5 6m0 10"/>
      <path d="m17 34h-5v-16l5 6m0 10"/>
      <path d="m24 33.434-12-15.434 12-8 12 8m-12 15.434"/>
      <path d="m17 20 7-10 7 10m-14 0"/>
      <path d="m17 34v-14h4m-4 14"/>
      <path d="m31 20h-4l4 14m0-14"/>
      <path d="m21 20 3-10 3 10m-6 0"/>
      <path d="m24 33.457-5-6.457 2-7h6l2 7m-5 6.457"/>
      <path d="m19 27-2-2.566v9.566m2-7"/>
      <path d="m31 34-2-7 2-2.582m0 9.582"/>
     </g>
    </g>
   </g>
  </g>
 </g>
 <g>
  <g clip-path="url(#clipPath-332972052)">
   <g transform="translate(0,-1)">
    <g>
     <g>
      <path d="m31 34h5v-16l-5 6m0 10" fill="#007878"/>
      <path d="m17 34h-5v-16l5 6m0 10" fill="#007878"/>
      <path d="m24 33.434-12-15.434 12-8 12 8m-12 15.434" fill="#004c4c"/>
      <path d="m17 20 7-10 7 10m-14 0" fill="#001919"/>
      <path d="m17 34v-14h4m-4 14" fill="#003434"/>
      <path d="m31 20h-4l4 14m0-14" fill="#003434"/>
      <path d="m21 20 3-10 3 10m-6 0" fill="#004c4c"/>
      <path d="m24 33.457-5-6.457 2-7h6l2 7m-5 6.457" fill="#007878"/>
      <path d="m19 27-2-2.566v9.566m2-7" fill="#004c4c"/>
      <path d="m31 34-2-7 2-2.582m0 9.582" fill="#004c4c"/>
     </g>
    </g>
   </g>
  </g>
 </g>
 <g>
  <g transform="translate(0 -1004.4)">
   <path d="m1 1043.4v4c0 2.216 1.784 4 4 4h38c2.216 0 4-1.784 4-4v-4c0 2.216-1.784 4-4 4h-38c-2.216 0-4-1.784-4-4z" opacity=".1"/>
  </g>
 </g>
</svg>
