<svg id="svg20702" version="1.1" viewBox="0 0 48 48" xmlns="http://www.w3.org/2000/svg">
 <defs id="defs20646">
  <linearGradient id="linearGradient3764" x1="1" x2="47" gradientTransform="translate(-48 .0022147)" gradientUnits="userSpaceOnUse">
   <stop id="stop20631" stop-color="#ac3c3c" offset="0"/>
   <stop id="stop20633" stop-color="#bc4142" offset="1"/>
  </linearGradient>
  <clipPath id="clipPath-812109510">
   <g id="g20638" transform="translate(0 -1004.4)">
    <rect id="rect20636" x="1" y="1005.4" width="46" height="46" rx="4" fill="#1890d0"/>
   </g>
  </clipPath>
  <clipPath id="clipPath-825730583">
   <g id="g20643" transform="translate(0 -1004.4)">
    <rect id="rect20641" x="1" y="1005.4" width="46" height="46" rx="4" fill="#1890d0"/>
   </g>
  </clipPath>
 </defs>
 <g id="g20654">
  <path id="path20648" d="m1 43v0.25c0 2.216 1.784 4 4 4h38c2.216 0 4-1.784 4-4v-0.25c0 2.216-1.784 4-4 4h-38c-2.216 0-4-1.784-4-4zm0 0.5v0.5c0 2.216 1.784 4 4 4h38c2.216 0 4-1.784 4-4v-0.5c0 2.216-1.784 4-4 4h-38c-2.216 0-4-1.784-4-4z" opacity=".02"/>
  <path id="path20650" d="m1 43.25v0.25c0 2.216 1.784 4 4 4h38c2.216 0 4-1.784 4-4v-0.25c0 2.216-1.784 4-4 4h-38c-2.216 0-4-1.784-4-4z" opacity=".05"/>
  <path id="path20652" d="m1 43v0.25c0 2.216 1.784 4 4 4h38c2.216 0 4-1.784 4-4v-0.25c0 2.216-1.784 4-4 4h-38c-2.216 0-4-1.784-4-4z" opacity=".1"/>
 </g>
 <g id="g20658">
  <rect id="rect20656" transform="rotate(-90)" x="-47" y="1" width="46" height="46" rx="4" fill="url(#linearGradient3764)"/>
 </g>
 <g id="g20676">
  <g id="g20674" clip-path="url(#clipPath-812109510)">
   <g id="g20672" opacity=".1">
    <g id="g20670" fill-rule="evenodd">
     <path id="path20660" d="m30.996 13.309c1.996 1.297 3.188 3.113 2.98 4.379l-8.145-5.301c-0.023-0.016-0.051-0.027-0.078-0.047 1.09-0.691 3.242-0.332 5.242 0.969"/>
     <path id="path20662" d="m32.77 17.5-0.52-0.336c-0.559-0.367-1.309-0.219-1.668 0.324l-7.09 10.711c-0.359 0.547-0.199 1.285 0.363 1.648l0.52 0.336c0.559 0.367 1.309 0.219 1.668-0.324l7.09-10.711c0.359-0.547 0.199-1.285-0.363-1.648"/>
     <path id="path20664" d="m29.859 15.605-0.52-0.336c-0.559-0.367-1.309-0.219-1.668 0.328l-7.09 10.707c-0.359 0.547-0.199 1.285 0.363 1.648l0.52 0.34c0.559 0.363 1.309 0.219 1.668-0.328l7.09-10.711c0.359-0.543 0.199-1.281-0.363-1.648"/>
     <path id="path20666" d="m26.949 13.715-0.52-0.34c-0.559-0.363-1.309-0.219-1.668 0.328l-7.09 10.711c-0.359 0.543-0.199 1.281 0.363 1.648l0.52 0.336c0.559 0.363 1.309 0.219 1.668-0.328l7.09-10.707c0.359-0.547 0.199-1.285-0.363-1.648"/>
     <path id="path20668" d="m25.06 31.31c0.016-0.203-8.117-5.496-8.301-5.402-0.18 0.105-0.902 9.98-0.738 10.09 0.168 0.105 9.03-4.477 9.04-4.688"/>
    </g>
   </g>
  </g>
 </g>
 <g id="g20694">
  <g id="g20692" clip-path="url(#clipPath-825730583)">
   <g id="g20690" transform="translate(0,-1)">
    <g id="g20688" fill="#f9f9f9" fill-rule="evenodd">
     <path id="path20678" d="m30.996 13.309c1.996 1.297 3.188 3.113 2.98 4.379l-8.145-5.301c-0.023-0.016-0.051-0.027-0.078-0.047 1.09-0.691 3.242-0.332 5.242 0.969"/>
     <path id="path20680" d="m32.77 17.5-0.52-0.336c-0.559-0.367-1.309-0.219-1.668 0.324l-7.09 10.711c-0.359 0.547-0.199 1.285 0.363 1.648l0.52 0.336c0.559 0.367 1.309 0.219 1.668-0.324l7.09-10.711c0.359-0.547 0.199-1.285-0.363-1.648"/>
     <path id="path20682" d="m29.859 15.605-0.52-0.336c-0.559-0.367-1.309-0.219-1.668 0.328l-7.09 10.707c-0.359 0.547-0.199 1.285 0.363 1.648l0.52 0.34c0.559 0.363 1.309 0.219 1.668-0.328l7.09-10.711c0.359-0.543 0.199-1.281-0.363-1.648"/>
     <path id="path20684" d="m26.949 13.715-0.52-0.34c-0.559-0.363-1.309-0.219-1.668 0.328l-7.09 10.711c-0.359 0.543-0.199 1.281 0.363 1.648l0.52 0.336c0.559 0.363 1.309 0.219 1.668-0.328l7.09-10.707c0.359-0.547 0.199-1.285-0.363-1.648"/>
     <path id="path20686" d="m25.06 31.31c0.016-0.203-8.117-5.496-8.301-5.402-0.18 0.105-0.902 9.98-0.738 10.09 0.168 0.105 9.03-4.477 9.04-4.688"/>
    </g>
   </g>
  </g>
 </g>
 <g id="g20700">
  <g id="g20698" transform="translate(0 -1004.4)">
   <path id="path20696" d="m1 1043.4v4c0 2.216 1.784 4 4 4h38c2.216 0 4-1.784 4-4v-4c0 2.216-1.784 4-4 4h-38c-2.216 0-4-1.784-4-4z" opacity=".1"/>
  </g>
 </g>
</svg>
