<svg xmlns="http://www.w3.org/2000/svg" version="1.1" viewBox="0 0 48 48">
 <defs>
  <linearGradient id="bg" gradientUnits="userSpaceOnUse" x2="30" x1="18">
   <stop style="stop-color:#3cb943" offset="0"/>
   <stop style="stop-color:#b4b4b4" offset="1"/>
  </linearGradient>
 </defs>
 <path style="opacity:.02" d="m1 43v0.25c0 2.216 1.784 4 4 4h38c2.216 0 4-1.784 4-4v-0.25c0 2.216-1.784 4-4 4h-38c-2.216 0-4-1.784-4-4zm0 0.5v0.5c0 2.216 1.784 4 4 4h38c2.216 0 4-1.784 4-4v-0.5c0 2.216-1.784 4-4 4h-38c-2.216 0-4-1.784-4-4z"/>
 <path style="opacity:.05" d="m1 43.25v0.25c0 2.216 1.784 4 4 4h38c2.216 0 4-1.784 4-4v-0.25c0 2.216-1.784 4-4 4h-38c-2.216 0-4-1.784-4-4z"/>
 <path style="opacity:.1" d="m1 43v0.25c0 2.216 1.784 4 4 4h38c2.216 0 4-1.784 4-4v-0.25c0 2.216-1.784 4-4 4h-38c-2.216 0-4-1.784-4-4z"/>
 <path style="fill:url(#bg)" d="m5 1c-2.216 0-4 1.784-4 4v38c0 0.36918 0.065425 0.71964 0.1582 1.0586 23.324-7.638 25.849-2.494 41.84 2.941h0.002c2.216 0 4-1.784 4-4v-38c0-2.216-1.784-4-4-4z"/>
 <path style="opacity:.1" d="m47 7.8125-20.016 19.016 1.139 1.436 18.877-15.446z"/>
 <path style="fill:#868bec" d="m25.375 28.131l-22.92 17.935c0.6924 0.575 1.571 0.934 2.545 0.934h36.25l-15.875-18.869z"/>
 <path style="fill:#ffe58e" d="m47 6.8125l-45.842 37.246c0.3884 1.419 1.5201 2.519 2.965 2.84l20.736-16.964 14.139 17.066h4l-15.355-19.344 19.357-15.838v-5.0055z"/>
 <path style="opacity:.1" d="m1 39v4c0 2.216 1.784 4 4 4h38c2.216 0 4-1.784 4-4v-4c0 2.216-1.784 4-4 4h-38c-2.216 0-4-1.784-4-4z"/>
 <path style="opacity:.1" d="m17.965 23-3.965 1.996 3.965 1.983 15.473 0.021s0.56445-0.324 0.56445-2c0-1.609-0.62109-1.9961-0.62109-1.9961z"/>
 <path style="fill:#ff6f03" d="m17.965 22h13.773v4h-13.773m0-4"/>
 <path style="fill:#ff2d5b" d="m31 22v4h2.438s0.563-0.324 0.563-2c0-1.609-0.621-1.996-0.621-1.996h-2.375m-0.004-0.004"/>
 <path style="fill:#ffc13d" d="m18 22-4 1.996 4 2v-4m0 0.004"/>
 <path style="fill:#2d2d2d" d="m16 22.98-1.996 1.016 1.996 1.02m0-2.035"/>
</svg>
