<svg version="1.1" viewBox="0 0 48 48" xmlns="http://www.w3.org/2000/svg">
 <defs>
  <linearGradient id="bg" x2="0" y1="1" y2="47" gradientUnits="userSpaceOnUse">
   <stop style="stop-color:#294f7a" offset="0"/>
   <stop style="stop-color:#24456b" offset="1"/>
  </linearGradient>
 </defs>
 <path d="m1 43v0.25c0 2.22 1.78 4 4 4h38c2.22 0 4-1.78 4-4v-0.25c0 2.22-1.78 4-4 4h-38c-2.22 0-4-1.78-4-4zm0 0.5v0.5c0 2.22 1.78 4 4 4h38c2.22 0 4-1.78 4-4v-0.5c0 2.22-1.78 4-4 4h-38c-2.22 0-4-1.78-4-4z" style="opacity:.02"/>
 <path d="m1 43.2v0.25c0 2.22 1.78 4 4 4h38c2.22 0 4-1.78 4-4v-0.25c0 2.22-1.78 4-4 4h-38c-2.22 0-4-1.78-4-4z" style="opacity:.05"/>
 <path d="m1 43v0.25c0 2.22 1.78 4 4 4h38c2.22 0 4-1.78 4-4v-0.25c0 2.22-1.78 4-4 4h-38c-2.22 0-4-1.78-4-4z" style="opacity:.1"/>
 <rect x="1" y="1" width="46" height="46" rx="4" style="fill:url(#bg)"/>
 <path d="m8 1v5.5l-0.00195 2e-3v0.5h-7v1l7-2e-3v7h-7v1h7v7h-7v1h7v7h-7v1h7v7l-7-2e-3v1h7v7h1l-0.00195-5.56 0.00391 0.0039v-1.44h7v7h1v-7h7v7h1v-7h7v7h1v-7l7-0.0039v0.5l2e-3 -2e-3v6.5h1v-7h6v-1h-6l-2e-3 -7h6v-1h-6v-7h6v-1h-6v-7h6v-1h-6l2e-3 -7h6v-1h-6v-6h-1v5.51l-0.0059-0.0059v0.5l-7-0.0039v-6h-1v6h-7v-6h-1v6h-7v-6h-1v6h-7v-1.44l0.0019-4.56h-1zm1 7h7v7h-7zm8 0h7v7h-7zm8 0h7v7h-7zm8 0h7v7h-7zm-24 8h7v7h-7zm8 0h7v7h-7zm8 0h7v7h-7zm8 0h7v7h-7zm-24 8h7v7h-7zm8 0h7v7h-7zm8 0h7v7h-7zm8 0h7v7h-7zm-24 8h7v7h-7zm8 0h7v7h-7zm8 0h7v7h-7zm8 0h7v7h-7z" style="fill:#fff;opacity:.1"/>
 <path d="m1 39v4c0 2.22 1.78 4 4 4h38c2.22 0 4-1.78 4-4v-4c0 2.22-1.78 4-4 4h-38c-2.22 0-4-1.78-4-4z" style="opacity:.1"/>
 <path d="m28 10c-3.87 0-7 3.13-7 7s3.13 7 7 7c0.831-0.0028 1.66-0.154 2.43-0.445 0.471 0.29 1.01 0.444 1.57 0.445 1.66 0 3-1.34 3-3-0.0013-0.552-0.155-1.09-0.443-1.56 0.292-0.78 0.442-1.61 0.443-2.44 0-3.87-3.13-7-7-7zm0 2c2.76 0 5 2.24 5 5-0.0019 0.38-0.0471 0.759-0.135 1.13-0.281-0.085-0.572-0.128-0.865-0.129-1.66 0-3 1.34-3 3 4.62e-4 0.293 0.0439 0.585 0.129 0.865-0.37 0.0877-0.749 0.133-1.13 0.135-2.76 0-5-2.24-5-5s2.24-5 5-5zm-15.3 7-2.67 12h8l-2.67-12zm10.3 9v10h10v-10z" style="fill-opacity:.996;opacity:.1;paint-order:normal"/>
 <path d="m28 9a7 7 0 0 0-7 7 7 7 0 0 0 7 7 7 7 0 0 0 7-7 7 7 0 0 0-7-7zm0 2a5 5 0 0 1 5 5 5 5 0 0 1-5 5 5 5 0 0 1-5-5 5 5 0 0 1 5-5z" style="fill-opacity:.996;fill:#f1f165;paint-order:normal"/>
 <rect x="23" y="27" width="10" height="10" style="fill-opacity:.996;fill:#98bebe;paint-order:normal"/>
 <circle cx="32" cy="20" r="3" style="fill-opacity:.996;fill:#4ea34d;paint-order:normal"/>
 <path d="m12.7 18h2.67l2.67 12h-8z" style="fill-opacity:.996;fill:#e980e9;paint-order:normal"/>
</svg>
