<svg width="48" height="48" version="1.1" viewBox="0 0 48 48.000001" xmlns="http://www.w3.org/2000/svg" xmlns:xlink="http://www.w3.org/1999/xlink">
 <defs>
  <linearGradient id="linearGradient4501" x1="-47" x2="-1" y1="2.8779e-15" y2="6.1232e-17" gradientUnits="userSpaceOnUse">
   <stop style="stop-color:#9bc364" offset="0"/>
   <stop style="stop-color:#a5c973" offset="1"/>
  </linearGradient>
  <linearGradient id="linearGradient4211" x2="0" y1="18" y2="20" gradientTransform="translate(-1)" gradientUnits="userSpaceOnUse" xlink:href="#linearGradient4205"/>
  <linearGradient id="linearGradient4205">
   <stop style="stop-color:#9b9b9b" offset="0"/>
   <stop style="stop-color:#b4b4b4" offset="1"/>
  </linearGradient>
  <linearGradient id="linearGradient4215" x2="0" y1="18" y2="20" gradientTransform="translate(-1 10)" gradientUnits="userSpaceOnUse" xlink:href="#linearGradient4205"/>
 </defs>
 <g transform="translate(0 3.949e-5)">
  <path d="m1 43v0.25c0 2.216 1.784 4 4 4h38c2.216 0 4-1.784 4-4v-0.25c0 2.216-1.784 4-4 4h-38c-2.216 0-4-1.784-4-4zm0 0.5v0.5c0 2.216 1.784 4 4 4h38c2.216 0 4-1.784 4-4v-0.5c0 2.216-1.784 4-4 4h-38c-2.216 0-4-1.784-4-4z" style="opacity:.02"/>
  <path d="m1 43.25v0.25c0 2.216 1.784 4 4 4h38c2.216 0 4-1.784 4-4v-0.25c0 2.216-1.784 4-4 4h-38c-2.216 0-4-1.784-4-4z" style="opacity:.05"/>
  <path d="m1 43v0.25c0 2.216 1.784 4 4 4h38c2.216 0 4-1.784 4-4v-0.25c0 2.216-1.784 4-4 4h-38c-2.216 0-4-1.784-4-4z" style="opacity:.1"/>
 </g>
 <rect transform="rotate(-90)" x="-47" y="1" width="46" height="46" rx="4" style="fill:url(#linearGradient4501)"/>
 <g transform="translate(0 3.949e-5)">
  <g transform="translate(0 -1004.4)">
   <path d="m1 1043.4v4c0 2.216 1.784 4 4 4h38c2.216 0 4-1.784 4-4v-4c0 2.216-1.784 4-4 4h-38c-2.216 0-4-1.784-4-4z" style="opacity:.1"/>
  </g>
 </g>
 <g transform="translate(0,-1)">
  <path d="m12.5 14c-0.831 0-1.5 0.669-1.5 1.5v19c0 0.831 0.669 1.5 1.5 1.5h15c0.831 0 1.5-0.669 1.5-1.5v-3.1l3 3.6 5-6h-3v-6h-4v6h-1v-8h2l-2-2.4v-3.1c0-0.831-0.669-1.5-1.5-1.5z" style="fill-opacity:.098;fill-rule:evenodd"/>
  <rect x="11" y="13" width="18" height="22" rx="1.5" ry="1.5" style="fill-rule:evenodd;fill:#ececec"/>
  <rect x="13" y="15" width="14" height="8" rx="1" ry="1.143" style="fill:#d2d2d2"/>
  <rect x="13" y="25" width="14" height="8" rx="1" ry="1.143" style="fill:#d2d2d2"/>
  <rect x="15" y="18" width="10" height="2" rx="0" style="fill:url(#linearGradient4211)"/>
  <rect x="15" y="28" width="10" height="2" rx="0" style="fill:url(#linearGradient4215)"/>
  <path transform="translate(0,1)" d="m26 14l-5 6h3v6h4v-6h1v-2.4004l-3-3.5996zm1 14l2 2.4004v-2.4004h-2z" style="opacity:.1"/>
  <path d="m26 14-5 6h3v6h4v-6h3zm4 8v6h-3l5 6 5-6h-3v-6z" style="fill:#606060"/>
 </g>
</svg>
