<svg style="" version="1.1" viewBox="0 0 48 48" xmlns="http://www.w3.org/2000/svg">
 <defs style="">
  <linearGradient id="bg" x1="1" x2="47" style="" gradientTransform="translate(-48 .00222)" gradientUnits="userSpaceOnUse">
   <stop style="stop-color:#dadee6" offset="0"/>
   <stop style="stop-color:#e7e9ee" offset="1"/>
  </linearGradient>
 </defs>
 <path d="m1 43v0.25c0 2.22 1.78 4 4 4h38c2.22 0 4-1.78 4-4v-0.25c0 2.22-1.78 4-4 4h-38c-2.22 0-4-1.78-4-4zm0 0.5v0.5c0 2.22 1.78 4 4 4h38c2.22 0 4-1.78 4-4v-0.5c0 2.22-1.78 4-4 4h-38c-2.22 0-4-1.78-4-4z" style="opacity:.02"/>
 <path d="m1 43.2v0.25c0 2.22 1.78 4 4 4h38c2.22 0 4-1.78 4-4v-0.25c0 2.22-1.78 4-4 4h-38c-2.22 0-4-1.78-4-4z" style="opacity:.05"/>
 <path d="m1 43v0.25c0 2.22 1.78 4 4 4h38c2.22 0 4-1.78 4-4v-0.25c0 2.22-1.78 4-4 4h-38c-2.22 0-4-1.78-4-4z" style="opacity:.1"/>
 <rect transform="rotate(-90)" x="-47" y="1" width="46" height="46" rx="4" style="fill:url(#bg)"/>
 <path d="m1 39v4c0 2.22 1.78 4 4 4h38c2.22 0 4-1.78 4-4v-4c0 2.22-1.78 4-4 4h-38c-2.22 0-4-1.78-4-4z" style="opacity:.1"/>
 <path d="m21 9c-4 0-6 4-6 9 0 1.13 0.123 2.35 0.35 3.6-3.92 1.82-6.35 4.03-6.35 5.9 0 2 3 2.5 6 2.5 1.04 0 2.12-0.0563 3.23-0.158 2.41 4.56 5.94 8.16 9.77 8.16 5 0 6-5 6-9 0-1.13-0.0935-2.25-0.26-3.37 3.15-1.57 5.26-3.39 5.26-5.13 0-2-3-2.5-6-2.5-0.0118 0-0.0234-9e-6 -0.0352 0a3.5 3.5 0 0 0 0.0352-0.5 3.5 3.5 0 0 0-3.5-3.5 3.5 3.5 0 0 0-0.605 0.0586c-2.36-3.08-5.23-5.06-7.89-5.06zm0 1c2.11 0 4.56 1.78 6.71 4.5a3.5 3.5 0 0 0-1.37 1.51 7.5 7.5 0 0 0-6.38 3.86c-1.3 0.39-2.52 0.826-3.63 1.29-0.208-1.09-0.322-2.15-0.322-3.17 0-4 2-8 5-8zm12 9c2 0 4 0.5 4 2 0 1.01-1.18 2.11-3.05 3.16a7.5 7.5 0 0 0 0.0469-0.662 7.5 7.5 0 0 0-1.41-4.37 3.5 3.5 0 0 0 0.0664-0.123c0.115-8.65e-4 0.228-0.0039 0.344-0.0039zm-8.5 2a4.5 4.5 0 0 1 4.5 4.5 4.5 4.5 0 0 1-0.084 0.84c-1.59 0.548-3.3 1.04-5.02 1.45a2.5 2.5 0 0 0-2.4-1.79 2.5 2.5 0 0 0-1.39 0.428 4.5 4.5 0 0 1-0.107-0.928 4.5 4.5 0 0 1 4.5-4.5zm-5.14 0.227a7.5 7.5 0 0 0-0.363 2.27 7.5 7.5 0 0 0 0.742 3.23 2.5 2.5 0 0 0-0.742 1.77 2.5 2.5 0 0 0 0.0039 0.0644c-1.04-1.96-1.89-4.09-2.41-6.19 0.842-0.404 1.77-0.79 2.77-1.15zm-3.75 1.65c0.47 2.01 1.19 4.06 2.12 5.98-0.96 0.0948-1.88 0.146-2.73 0.146-2.5 0-4-0.5-4-1.5 0-1.29 1.67-3.05 4.61-4.63zm17.3 4.47c0.0499 0.553 0.0762 1.11 0.0762 1.65 0 4-1 8-5 8-2.47 0-5.43-2.68-7.79-6.36a2.5 2.5 0 0 0 1.29 0.361 2.5 2.5 0 0 0 1.77-0.742 7.5 7.5 0 0 0 3.23 0.742 7.5 7.5 0 0 0 6.42-3.65zm-4.53 0.41a4.5 4.5 0 0 1-3.89 2.24 4.5 4.5 0 0 1-0.928-0.107 2.5 2.5 0 0 0 0.383-0.951c1.52-0.332 3.01-0.733 4.44-1.19z" style="opacity:.1"/>
 <path d="m21 8c-4 0-6 4-6 9 0 8.01 6 20 13 20 5 0 6-5 6-9 0-10-7-20-13-20zm0 1c5 0 12 10 12 19 0 4-1 8-5 8-5 0-12-11-12-19 0-4 2-8 5-8z" style="fill:#474747"/>
 <path d="m32.7 24.8c0.152 0.821 0.208 1.63 0.262 2.44 0.281-0.493 0.505-1.02 0.668-1.56 0.0701-0.0345 0.142-0.0687 0.211-0.104-0.0353-0.376-0.1-0.776-0.148-1.13zm-16.2-3.71c-0.338 0.139-0.667 0.281-0.986 0.426 0.0904 0.412 0.191 0.825 0.303 1.24 0.318-0.166 0.651-0.331 0.996-0.492-0.115-0.392-0.22-0.783-0.312-1.17zm2.59 6.68c-0.0741 0.238-0.112 0.485-0.113 0.734 0.0011 0.0678 0.0051 0.136 0.0117 0.203-0.27 0.037-0.538 0.0719-0.803 0.102 0.176 0.334 0.357 0.663 0.545 0.986 0.19-0.02 0.381-0.0414 0.572-0.0644 0.377 0.669 1.04 1.13 1.8 1.24-0.359-0.49-0.708-1.01-1.04-1.54-0.0841-0.134-0.168-0.268-0.25-0.404-0.0802-0.133-0.162-0.267-0.24-0.402-0.164-0.281-0.322-0.566-0.479-0.855z" style="opacity:.1"/>
 <path d="m33 17c-13 0-24 5.5-24 9.5l1 0.5 1-0.5c0-3 9-8.5 22-8.5 2 0 4 0.5 4 2h1l1-0.5c0-2-3-2.5-6-2.5z" style="fill:#4d4d4d"/>
 <path d="m33 17c-2.41 0.0019-4.75 0.193-6.96 0.527 0.0075 0.338 0.0641 0.674 0.168 0.996 2.1-0.329 4.37-0.52 6.77-0.523 0.0308-0.165 0.0498-0.332 0.0566-0.5-4.01e-4 -0.167-0.0128-0.334-0.0371-0.5z" style="opacity:.1"/>
 <path d="m26.5 15a7.5 7.5 0 0 0-7.5 7.5 7.5 7.5 0 0 0 7.5 7.5 7.5 7.5 0 0 0 7.5-7.5 7.5 7.5 0 0 0-7.5-7.5zm-2 5a4.5 4.5 0 0 1 4.5 4.5 4.5 4.5 0 0 1-4.5 4.5 4.5 4.5 0 0 1-4.5-4.5 4.5 4.5 0 0 1 4.5-4.5z" style="fill:#5e6cbf"/>
 <path d="m27 15a3.5 3.5 0 0 0-1.03 2.48 3.5 3.5 0 0 0 3.5 3.5 3.5 3.5 0 0 0 3.34-2.5 7.5 7.5 0 0 0-5.81-3.48zm6.74 9.24c-1.44 0.786-3.25 1.54-5.24 2.21a4.5 4.5 0 0 1-1.41 1.67c2.19-0.63 4.26-1.39 6.04-2.22a7.5 7.5 0 0 0 0.613-1.65zm-13.4 2.03a2.5 2.5 0 0 0-0.268 0.137 7.5 7.5 0 0 0 3.66 3.04 2.5 2.5 0 0 0 0.17-0.52 4.5 4.5 0 0 1-3.56-2.66z" style="opacity:.1"/>
 <circle cx="29.5" cy="16.5" r="3.5" style="fill:#f53d3d"/>
 <path d="m39 19.5-2 0.5c0 3.5-14 8-22 8-2.5 0-4-0.5-4-1.5h-2c0 2 3 2.5 6 2.5 10 0 24-5 24-9.5z" style="fill:#4d4d4d"/>
 <circle cx="21.5" cy="27.5" r="2.5" style="fill:#999"/>
</svg>
