<svg version="1.1" viewBox="0 0 48 48" xmlns="http://www.w3.org/2000/svg">
 <defs>
  <linearGradient id="bg" x2="0" y1="1" y2="47" gradientUnits="userSpaceOnUse">
   <stop style="stop-color:#bd6ae0" offset="0"/>
   <stop style="stop-color:#b65adc" offset="1"/>
  </linearGradient>
 </defs>
 <path d="m1 43v0.25c0 2.216 1.784 4 4 4h38c2.216 0 4-1.784 4-4v-0.25c0 2.216-1.784 4-4 4h-38c-2.216 0-4-1.784-4-4zm0 0.5v0.5c0 2.216 1.784 4 4 4h38c2.216 0 4-1.784 4-4v-0.5c0 2.216-1.784 4-4 4h-38c-2.216 0-4-1.784-4-4z" style="opacity:.02"/>
 <path d="m1 43.25v0.25c0 2.216 1.784 4 4 4h38c2.216 0 4-1.784 4-4v-0.25c0 2.216-1.784 4-4 4h-38c-2.216 0-4-1.784-4-4z" style="opacity:.05"/>
 <path d="m1 43v0.25c0 2.216 1.784 4 4 4h38c2.216 0 4-1.784 4-4v-0.25c0 2.216-1.784 4-4 4h-38c-2.216 0-4-1.784-4-4z" style="opacity:.1"/>
 <rect x="1" y="1" width="46" height="46" rx="4" style="fill:url(#bg)"/>
 <path d="m1 39v4c0 2.216 1.784 4 4 4h38c2.216 0 4-1.784 4-4v-4c0 2.216-1.784 4-4 4h-38c-2.216 0-4-1.784-4-4z" style="opacity:.1"/>
 <path d="m24 13c-5 0-7 2-7 2h-4c-1 0-1 1-1 1v5l-1 2h-1l-1 3 3 1.5v3.5c2 1 2 1 3 3h6v1h1v1h2v-1l3-1h6c1-2 1-2 3-3v-3.8457l1.9961-1.0762 0.0039 0.0039 2-1.082-2-1-1-3-1 0.69922v-5.6992s0-1-1-1h-4s-2-2-7-2z" style="opacity:.1"/>
 <path d="m15 33h18c1-2 1-2 3-3v-15s0-1-1-1h-4s-2-2-7-2-7 2-7 2h-4c-1 0-1 1-1 1v15c2 1 2 1 3 3z" style="fill:#cfcfcf"/>
 <path d="m12 21v6.5l1 0.5 7 3 0.37109 0.74023-0.37109 0.81055 0.31445 0.44922h7.6855v-1l-0.26172-0.39844 8.2617-4.4473v-5.4551l-9 6.3008h-0.38086l-0.70898 0.4375-0.91016-0.023438-1-1.043-2 0.62891-10-7z" style="opacity:.1"/>
 <path d="m12 20-1 2h-1l-1 3 4 2 7 3 1 2 4-4-3-1z" style="fill:#7c7c7c"/>
 <path d="m37 20 1 3 2 1-13 7-3 2v2h-2v-1h-1v-1h-1l0.31356-1-0.31356-0.44915 1-2.1864 1-0.05085 3-1.3136 1.6186-1h0.38136z" style="fill:#9f9f9f"/>
 <path d="m24 26.371-2 0.62891 0.70508 2 2.0137-0.45312 1.6543 0.45312 0.62695-1 0.68555-0.20898-0.68555-0.32422-2-0.05273z" style="fill:#7c7c7c"/>
 <path d="m12 20 1 3-1 1-1 2-2-1 1-3h1z" style="fill:#656565"/>
 <path d="m24 34 3-1v-0.31886l1-0.01798v-1.6632l-1-1.5188v1.1865l-1-1.0427-0.29247 1.375-0.70753-0.70984v1.4202l-1-1.0427v2.3323h-0.61154z" style="fill:#7c7c7c"/>
 <path d="m37 20-2 3h1v1h1l1 1.0826 2-1.0826-2-1z" style="fill:#838383"/>
 <path d="m30 19v4s1.129-1.6392 2-2c0.61592-0.25512 2 0 2 0s-0.31523-1.4126 0-2c0.76758-1.4304 2-2 2-2h-4c0 1.3777-0.82564 2-2 2z" style="fill:#afafaf;stroke-width:2"/>
 <path d="m18 19v4s-1.129-1.6392-2-2c-0.61592-0.25512-2 0-2 0s0.31523-1.4126 0-2c-0.76758-1.4304-2-2-2-2h4c0 1.3777 0.82564 2 2 2z" style="fill:#afafaf;stroke-width:2"/>
 <path d="m24 25s5-4.5 5-6.5c0-1.5-1-2.5-2.4915-2.5-2 0-2.5085 2-2.5085 2s-0.4661-2-2.4576-2c-1.5424 0-2.5424 1-2.5424 2.5 0 1.9281 5 6.5 5 6.5z" style="fill:#e42e72"/>
</svg>
