<svg width="48" height="48" version="1.1" viewBox="0 0 48 48.000001" xmlns="http://www.w3.org/2000/svg">
 <defs>
  <linearGradient id="linearGradient4501" x1="-47" x2="-1" y1="2.8779e-15" y2="6.1232e-17" gradientUnits="userSpaceOnUse">
   <stop style="stop-color:#404a73" offset="0"/>
   <stop style="stop-color:#485380" offset="1"/>
  </linearGradient>
  <radialGradient id="radialGradient4264" cx="1.147" cy="33.941" r="8.777" gradientTransform="matrix(1 0 0 1.5 2.1218 -17.678)" gradientUnits="userSpaceOnUse">
   <stop style="stop-color:#c8c8c8" offset="0"/>
   <stop style="stop-color:#d8d8d8" offset="1"/>
  </radialGradient>
 </defs>
 <g transform="translate(0 3.949e-5)">
  <path d="m1 43v0.25c0 2.216 1.784 4 4 4h38c2.216 0 4-1.784 4-4v-0.25c0 2.216-1.784 4-4 4h-38c-2.216 0-4-1.784-4-4zm0 0.5v0.5c0 2.216 1.784 4 4 4h38c2.216 0 4-1.784 4-4v-0.5c0 2.216-1.784 4-4 4h-38c-2.216 0-4-1.784-4-4z" style="opacity:.02"/>
  <path d="m1 43.25v0.25c0 2.216 1.784 4 4 4h38c2.216 0 4-1.784 4-4v-0.25c0 2.216-1.784 4-4 4h-38c-2.216 0-4-1.784-4-4z" style="opacity:.05"/>
  <path d="m1 43v0.25c0 2.216 1.784 4 4 4h38c2.216 0 4-1.784 4-4v-0.25c0 2.216-1.784 4-4 4h-38c-2.216 0-4-1.784-4-4z" style="opacity:.1"/>
 </g>
 <rect transform="rotate(-90)" x="-47" y="1" width="46" height="46" rx="4" style="fill:url(#linearGradient4501)"/>
 <g transform="translate(0 3.949e-5)">
  <g transform="translate(0 -1004.4)">
   <path d="m1 1043.4v4c0 2.216 1.784 4 4 4h38c2.216 0 4-1.784 4-4v-4c0 2.216-1.784 4-4 4h-38c-2.216 0-4-1.784-4-4z" style="opacity:.1"/>
  </g>
 </g>
 <path d="m21.627 11a13.166 8.777 45 0 0 -5.131 1.879 13.166 8.777 45 0 0 -0.438 0.496c-3.166 3.655-4.205 10.476-1.478 15.514l-1.58 7.111h8l-0.424-1.91c5.076 1.932 11.345 0.602 14.539-2.592a13.166 8.777 45 0 0 -3.105 -15.516 13.166 8.777 45 0 0 -10.383 -4.982" style="opacity:.1"/>
 <path d="m15 26h4l2 9h-8z" style="fill:#888"/>
 <path d="m15 26l-0.57422 2.5879c0.53261 1.0545 1.21 2.044 2.0762 2.9102 1.242 1.242 2.7261 2.1183 4.3164 2.6875l-1.8184-8.1855h-4z" style="opacity:.1"/>
 <path d="m16.502 11.879 18.619 18.619c-4.138 4.138-13.447 5.172-18.619 0s-4.138-14.482 0-18.619z" style="fill:#a0a0a0"/>
 <ellipse transform="rotate(-45)" cx="3.2691" cy="33.234" rx="8.777" ry="13.166" style="fill:url(#radialGradient4264)"/>
 <path d="m28.601 17.899a1.5 1.5 0 0 0 -1.412 1h-5.588c-0.277 0-0.5 0.223-0.5 0.5s0.223 0.5 0.5 0.5h5.588a1.5 1.5 0 0 0 0.059 0.141l-3.998 3.998c-0.197 0.197-0.197 0.515 0 0.713 0.197 0.197 0.515 0.197 0.713 0l3.998-3.998a1.5 1.5 0 0 0 0.141 0.059v5.588c0 0.277 0.223 0.5 0.5 0.5s0.5-0.223 0.5-0.5v-5.588a1.5 1.5 0 0 0 1 -1.412 1.5 1.5 0 0 0 -1.5 -1.5z" style="opacity:.1"/>
 <g transform="translate(-50.899 -12.101)" style="fill:#525252">
  <circle cx="79.5" cy="30.5" r="1.5"/>
  <rect x="72" y="30" width="8" height="1" rx=".5" ry=".5"/>
  <rect x="79" y="30" width="1" height="8" rx=".5" ry=".5"/>
  <rect transform="rotate(45)" x="77.28" y="-35.15" width="1.01" height="8.07" rx=".504" ry=".504"/>
 </g>
</svg>
