<svg version="1.1" viewBox="0 0 48 48" xmlns="http://www.w3.org/2000/svg">
 <defs>
  <linearGradient id="bg" x2="0" y1="1" y2="47" gradientUnits="userSpaceOnUse">
   <stop style="stop-color:#c0589f" offset="0"/>
   <stop style="stop-color:#bb4a97" offset="1"/>
  </linearGradient>
 </defs>
 <path d="m1 43v0.25c0 2.22 1.78 4 4 4h38c2.22 0 4-1.78 4-4v-0.25c0 2.22-1.78 4-4 4h-38c-2.22 0-4-1.78-4-4zm0 0.5v0.5c0 2.22 1.78 4 4 4h38c2.22 0 4-1.78 4-4v-0.5c0 2.22-1.78 4-4 4h-38c-2.22 0-4-1.78-4-4z" style="opacity:.02"/>
 <path d="m1 43.2v0.25c0 2.22 1.78 4 4 4h38c2.22 0 4-1.78 4-4v-0.25c0 2.22-1.78 4-4 4h-38c-2.22 0-4-1.78-4-4z" style="opacity:.05"/>
 <path d="m1 43v0.25c0 2.22 1.78 4 4 4h38c2.22 0 4-1.78 4-4v-0.25c0 2.22-1.78 4-4 4h-38c-2.22 0-4-1.78-4-4z" style="opacity:.1"/>
 <rect x="1" y="1" width="46" height="46" rx="4" style="fill:url(#bg)"/>
 <path d="m1 39v4c0 2.22 1.78 4 4 4h38c2.22 0 4-1.78 4-4v-4c0 2.22-1.78 4-4 4h-38c-2.22 0-4-1.78-4-4z" style="opacity:.1"/>
 <path d="m20 14c-3 0-5 1.74-5 3.4 0 2 1 2.6 2.5 2.6 0.7 0 1.46-0.418 1.9-1-0.982-0.35-1.4-1-1.4-2 0-1.2 1-2 2-2 1.2 0 2 0.8 2 2 0 2.4-2 4-4 5 2 0.6 3 2.2 3 4.6s-1.3 3.4-3 3.4l-2-2c0-1 0.5-2 2-2-0.2-1-1-2-2.25-2-1.5 0-2.75 1.5-2.75 4s2 4 5 4c4 0 7-3 7-6 0-2-1-3.6-3-4 1-0.5 4.7-4 6.7-4l-3.7 16h4l3.7-15.5c0.875 0.301 2.05 0.5 3.3 0.5 1.66 0 3-1.34 3-3-0.429 0.547-1 1-3 1l-6-1-5 1c0-2-2-3-5-3z" style="opacity:.1"/>
 <path d="m20 13c-3 0-5 1.74-5 3.4 0 2 1 2.6 2.5 2.6 0.7 0 1.46-0.418 1.9-1-0.982-0.35-1.4-1-1.4-2 0-1.2 1-2 2-2 1.2 0 2 0.8 2 2 0 2.4-2 4-4 5 2 0.6 3 2.2 3 4.6s-1.3 3.4-3 3.4c-1 0-2-0.8-2-2 0-1 0.5-2 2-2-0.2-1-1-2-2.25-2-1.5 0-2.75 1.5-2.75 4s2 4 5 4c4 0 7-3 7-6 0-2-1-3.6-3-4 1-0.5 4.7-4 6.7-4l-3.7 16h4l3.7-15.5c0.875 0.301 2.05 0.5 3.3 0.5 1.66 0 3-1.34 3-3-0.429 0.547-1 1-3 1-2.03 0-3.5-1-6-1-1.81 0-3.58 0.39-5 1 0-2-2-3-5-3z" style="fill:#f9f9f9"/>
</svg>
