<svg id="svg21574" version="1.1" viewBox="0 0 48 48" xmlns="http://www.w3.org/2000/svg">
 <defs id="defs21534">
  <linearGradient id="linearGradient3764" x1="1" x2="47" gradientTransform="translate(-48 .0022147)" gradientUnits="userSpaceOnUse">
   <stop id="stop21519" stop-color="#6aa93b" offset="0"/>
   <stop id="stop21521" stop-color="#74b841" offset="1"/>
  </linearGradient>
  <clipPath id="clipPath-994276834">
   <g id="g21526" transform="translate(0 -1004.4)">
    <rect id="rect21524" x="1" y="1005.4" width="46" height="46" rx="4" fill="#1890d0"/>
   </g>
  </clipPath>
  <clipPath id="clipPath-007083079">
   <g id="g21531" transform="translate(0 -1004.4)">
    <rect id="rect21529" x="1" y="1005.4" width="46" height="46" rx="4" fill="#1890d0"/>
   </g>
  </clipPath>
 </defs>
 <g id="g21542">
  <path id="path21536" d="m1 43v0.25c0 2.216 1.784 4 4 4h38c2.216 0 4-1.784 4-4v-0.25c0 2.216-1.784 4-4 4h-38c-2.216 0-4-1.784-4-4zm0 0.5v0.5c0 2.216 1.784 4 4 4h38c2.216 0 4-1.784 4-4v-0.5c0 2.216-1.784 4-4 4h-38c-2.216 0-4-1.784-4-4z" opacity=".02"/>
  <path id="path21538" d="m1 43.25v0.25c0 2.216 1.784 4 4 4h38c2.216 0 4-1.784 4-4v-0.25c0 2.216-1.784 4-4 4h-38c-2.216 0-4-1.784-4-4z" opacity=".05"/>
  <path id="path21540" d="m1 43v0.25c0 2.216 1.784 4 4 4h38c2.216 0 4-1.784 4-4v-0.25c0 2.216-1.784 4-4 4h-38c-2.216 0-4-1.784-4-4z" opacity=".1"/>
 </g>
 <g id="g21546">
  <rect id="rect21544" transform="rotate(-90)" x="-47" y="1" width="46" height="46" rx="4" fill="url(#linearGradient3764)"/>
 </g>
 <g id="g21556">
  <g id="g21554" clip-path="url(#clipPath-994276834)">
   <g id="g21552" opacity=".1">
    <g id="g21550">
     <path id="path21548" d="m13 36h12v-4h-4l2.777-4.355 5.227 8.355h5.996l-8.16-12.871 7.156-11.129h-5.996l-4 6.5-4-6.5h-6l6.914 11.09"/>
    </g>
   </g>
  </g>
 </g>
 <g id="g21566">
  <g id="g21564" clip-path="url(#clipPath-007083079)">
   <g id="g21562" transform="translate(0,-1)">
    <g id="g21560">
     <path id="path21558" d="m13 36h12v-4h-4l2.777-4.355 5.227 8.355h5.996l-8.16-12.871 7.156-11.129h-5.996l-4 6.5-4-6.5h-6l6.914 11.09" fill="#f9f9f9"/>
    </g>
   </g>
  </g>
 </g>
 <g id="g21572">
  <g id="g21570" transform="translate(0 -1004.4)">
   <path id="path21568" d="m1 1043.4v4c0 2.216 1.784 4 4 4h38c2.216 0 4-1.784 4-4v-4c0 2.216-1.784 4-4 4h-38c-2.216 0-4-1.784-4-4z" opacity=".1"/>
  </g>
 </g>
</svg>
