<svg version="1.1" viewBox="0 0 48 48" xmlns="http://www.w3.org/2000/svg">
 <defs>
  <linearGradient id="linearGradient938" x1="-47" x2="-1" gradientUnits="userSpaceOnUse">
   <stop style="stop-color:#cbe1e7" offset="0"/>
   <stop style="stop-color:#d9e9ed" offset="1"/>
  </linearGradient>
 </defs>
 <path d="m1 43v0.25c0 2.216 1.784 4 4 4h38c2.216 0 4-1.784 4-4v-0.25c0 2.216-1.784 4-4 4h-38c-2.216 0-4-1.784-4-4zm0 0.5v0.5c0 2.216 1.784 4 4 4h38c2.216 0 4-1.784 4-4v-0.5c0 2.216-1.784 4-4 4h-38c-2.216 0-4-1.784-4-4z" style="opacity:.02"/>
 <path d="m1 43.25v0.25c0 2.216 1.784 4 4 4h38c2.216 0 4-1.784 4-4v-0.25c0 2.216-1.784 4-4 4h-38c-2.216 0-4-1.784-4-4z" style="opacity:.05"/>
 <path d="m1 43v0.25c0 2.216 1.784 4 4 4h38c2.216 0 4-1.784 4-4v-0.25c0 2.216-1.784 4-4 4h-38c-2.216 0-4-1.784-4-4z" style="opacity:.1"/>
 <rect transform="rotate(-90)" x="-47" y="1" width="46" height="46" rx="4" style="fill:url(#linearGradient938)"/>
 <path d="m10 18v12c0 0.554 0.446 1 1 1h5v3c0 1.4046 0.77015 2 2 2h16c1.2652 0 2-0.84142 2-2v-10z" style="opacity:.1"/>
 <g transform="translate(0,-1004.4)">
  <path d="m1 1043.4v4c0 2.216 1.784 4 4 4h38c2.216 0 4-1.784 4-4v-4c0 2.216-1.784 4-4 4h-38c-2.216 0-4-1.784-4-4z" style="opacity:.1"/>
 </g>
 <path d="m33 21.285v4.7148l3-3z" style="fill:#103f91"/>
 <path d="m19 11c-0.554 0-1 0.446-1 1v1l8 1 8-1v-1c0-0.554-0.446-1-1-1z" style="fill:#0364b8"/>
 <path d="m29 13h5v5l-6 1z" style="fill:#50d9ff"/>
 <path d="m18 13v6l10 10h6v-6l-10-10z" style="fill:#0078d4"/>
 <path d="m24 13v5h5v5h5v-5h-5v-5z" style="fill:#28a8ea"/>
 <path d="m18 18v6l5 5h6v-6h-5v-5z" style="fill:#0364b8"/>
 <path d="m18 23h6v6h-6z" style="fill:#103f91"/>
 <path d="m36 23-10 5.7148 4 4.2852 5.5957 1.1973c0.25099-0.33421 0.4043-0.74527 0.4043-1.1973z" style="fill:#1490df"/>
 <path d="m16 23v10c0 1.108 0.892 2 2 2h16c0.65601 0 1.2314-0.31767 1.5957-0.80273l-19.596-11.197z" style="fill:#28a8ea"/>
 <path d="m16 23v8h6c0.554 0 1-0.446 1-1v-3l-7-4z" style="opacity:.1"/>
 <path d="m11 16h11c0.554 0 1 0.446 1 1v12c0 0.554-0.446 1-1 1h-11c-0.554 0-1-0.446-1-1v-12c0-0.554 0.446-1 1-1z" style="fill:#0582e3"/>
 <path d="m16.5 18a4.5 5 0 0 0-4.5 5 4.5 5 0 0 0 4.5 5 4.5 5 0 0 0 4.5-5 4.5 5 0 0 0-4.5-5zm0 2a2.5 3 0 0 1 2.5 3 2.5 3 0 0 1-2.5 3 2.5 3 0 0 1-2.5-3 2.5 3 0 0 1 2.5-3z" style="fill:#f3f3f9"/>
</svg>
