<?xml version="1.0" encoding="UTF-8" standalone="no"?>
<svg
   xmlns:dc="http://purl.org/dc/elements/1.1/"
   xmlns:cc="http://creativecommons.org/ns#"
   xmlns:rdf="http://www.w3.org/1999/02/22-rdf-syntax-ns#"
   xmlns:svg="http://www.w3.org/2000/svg"
   xmlns="http://www.w3.org/2000/svg"
   xmlns:sodipodi="http://sodipodi.sourceforge.net/DTD/sodipodi-0.dtd"
   xmlns:inkscape="http://www.inkscape.org/namespaces/inkscape"
   viewBox="0 0 48 48"
   version="1.1"
   id="svg21757"
   sodipodi:docname="ms-powerpoint.svg">
  <metadata
     id="metadata21761">
    <rdf:RDF>
      <cc:Work
         rdf:about="">
        <dc:format>image/svg+xml</dc:format>
        <dc:type
           rdf:resource="http://purl.org/dc/dcmitype/StillImage" />
      </cc:Work>
    </rdf:RDF>
  </metadata>
  <sodipodi:namedview
     pagecolor="#ffffff"
     bordercolor="#666666"
     borderopacity="1"
     objecttolerance="10"
     gridtolerance="10"
     guidetolerance="10"
     inkscape:pageopacity="0"
     inkscape:pageshadow="2"
     inkscape:window-width="640"
     inkscape:window-height="480"
     id="namedview21759" />
  <defs
     id="defs21717">
    <linearGradient
       id="linearGradient3764"
       x1="1"
       x2="47"
       gradientUnits="userSpaceOnUse"
       gradientTransform="translate(-48.000001,0.00221467)">
      <stop
         stop-color="#db6015"
         stop-opacity="1"
         id="stop21702" />
      <stop
         offset="1"
         stop-color="#e9671c"
         stop-opacity="1"
         id="stop21704" />
    </linearGradient>
    <clipPath
       id="clipPath-998635865">
      <g
         transform="translate(0,-1004.3622)"
         id="g21709">
        <rect
           rx="4"
           y="1005.36"
           x="1"
           height="46"
           width="46"
           fill="#1890d0"
           id="rect21707" />
      </g>
    </clipPath>
    <clipPath
       id="clipPath-011531410">
      <g
         transform="translate(0,-1004.3622)"
         id="g21714">
        <rect
           rx="4"
           y="1005.36"
           x="1"
           height="46"
           width="46"
           fill="#1890d0"
           id="rect21712" />
      </g>
    </clipPath>
  </defs>
  <g
     id="g21725">
    <path
       d="m 1 43 l 0 0.25 c 0 2.216 1.784 4 4 4 l 38 0 c 2.216 0 4 -1.784 4 -4 l 0 -0.25 c 0 2.216 -1.784 4 -4 4 l -38 0 c -2.216 0 -4 -1.784 -4 -4 z m 0 0.5 l 0 0.5 c 0 2.216 1.784 4 4 4 l 38 0 c 2.216 0 4 -1.784 4 -4 l 0 -0.5 c 0 2.216 -1.784 4 -4 4 l -38 0 c -2.216 0 -4 -1.784 -4 -4 z"
       opacity="0.02"
       id="path21719" />
    <path
       d="m 1 43.25 l 0 0.25 c 0 2.216 1.784 4 4 4 l 38 0 c 2.216 0 4 -1.784 4 -4 l 0 -0.25 c 0 2.216 -1.784 4 -4 4 l -38 0 c -2.216 0 -4 -1.784 -4 -4 z"
       opacity="0.05"
       id="path21721" />
    <path
       d="m 1 43 l 0 0.25 c 0 2.216 1.784 4 4 4 l 38 0 c 2.216 0 4 -1.784 4 -4 l 0 -0.25 c 0 2.216 -1.784 4 -4 4 l -38 0 c -2.216 0 -4 -1.784 -4 -4 z"
       opacity="0.1"
       id="path21723" />
  </g>
  <g
     id="g21729">
    <rect
       width="46"
       height="46"
       x="-47"
       y="1"
       rx="4"
       transform="matrix(0,-1,1,0,0,0)"
       fill="url(#linearGradient3764)"
       fill-opacity="1"
       id="rect21727" />
  </g>
  <g
     id="g21739">
    <g
       clip-path="url(#clipPath-998635865)"
       id="g21737">
      <g
         opacity="0.1"
         id="g21735">
        <!-- color: #e9671c -->
        <g
           id="g21733">
          <path
             d="m 15 12 l 0 4 l 3 0 l 0 20 l 5 0 l 0 -8 l 2.516 0 c 4.48 -0.207 8.02 -3.77 8 -8.05 c 0.023 -4.707 -2.109 -7.34 -7.52 -7.957 m -2.996 4 l 1 0 c 3 0 4.484 1.418 4.5 4 c 0.035 2.539 -1.5 4 -4.5 4 l -1 0 m 0 -8"
             stroke="none"
             fill-rule="nonzero"
             fill-opacity="1"
             fill="#000"
             id="path21731" />
        </g>
      </g>
    </g>
  </g>
  <g
     id="g21749">
    <g
       clip-path="url(#clipPath-011531410)"
       id="g21747">
      <g
         transform="translate(0,-1)"
         id="g21745">
        <!-- color: #e9671c -->
        <g
           id="g21743">
          <path
             d="m 15 12 l 0 4 l 3 0 l 0 20 l 5 0 l 0 -8 l 2.516 0 c 4.48 -0.207 8.02 -3.77 8 -8.05 c 0.023 -4.707 -2.109 -7.34 -7.52 -7.957 m -2.996 4 l 1 0 c 3 0 4.484 1.418 4.5 4 c 0.035 2.539 -1.5 4 -4.5 4 l -1 0 m 0 -8"
             fill="#f9f9f9"
             stroke="none"
             fill-rule="nonzero"
             fill-opacity="1"
             id="path21741" />
        </g>
      </g>
    </g>
  </g>
  <g
     id="g21755">
    <g
       transform="translate(0,-1004.3622)"
       id="g21753">
      <path
         d="m 1 1043.36 0 4 c 0 2.216 1.784 4 4 4 l 38 0 c 2.216 0 4 -1.784 4 -4 l 0 -4 c 0 2.216 -1.784 4 -4 4 l -38 0 c -2.216 0 -4 -1.784 -4 -4 z"
         opacity="0.1"
         id="path21751" />
    </g>
  </g>
</svg>
