<svg width="48" height="48" version="1.1" viewBox="0 0 48 48" xmlns="http://www.w3.org/2000/svg">
 <path d="m1 43v0.25c0 2.216 1.784 4 4 4h38c2.216 0 4-1.784 4-4v-0.25c0 2.216-1.784 4-4 4h-38c-2.216 0-4-1.784-4-4zm0 0.5v0.5c0 2.216 1.784 4 4 4h38c2.216 0 4-1.784 4-4v-0.5c0 2.216-1.784 4-4 4h-38c-2.216 0-4-1.784-4-4z" style="opacity:.02"/>
 <path d="m1 43.25v0.25c0 2.216 1.784 4 4 4h38c2.216 0 4-1.784 4-4v-0.25c0 2.216-1.784 4-4 4h-38c-2.216 0-4-1.784-4-4z" style="opacity:.05"/>
 <path d="m1 43v0.25c0 2.216 1.784 4 4 4h38c2.216 0 4-1.784 4-4v-0.25c0 2.216-1.784 4-4 4h-38c-2.216 0-4-1.784-4-4z" style="opacity:.1"/>
 <path d="m5 1c-2.216 0-4 1.784-4 4v18l26 2.5932-3-24.593z" style="fill-rule:evenodd;fill:#1793cf"/>
 <path d="m24 1v23l23-1v-18c0-2.216-1.784-4-4-4z" style="fill-rule:evenodd;fill:#a8a2f4"/>
 <path d="m23 23 1 24h19c2.216 0 4-1.784 4-4v-20z" style="fill-rule:evenodd;fill:#dd4512"/>
 <path d="m1 23v20c0 2.216 1.784 4 4 4h19v-24h-23z" style="fill-rule:evenodd;fill:#283d70"/>
 <g transform="translate(0,-1004.4)">
  <path d="m1 1043.4v4c0 2.216 1.784 4 4 4h38c2.216 0 4-1.784 4-4v-4c0 2.216-1.784 4-4 4h-38c-2.216 0-4-1.784-4-4z" style="opacity:.1"/>
 </g>
 <path d="m15 8.9941-0.01172 0.00781c0.0016 0.00365 0.0023 0.00612 0.0039 0.00977 0.0027-0.00672 0.0051-0.010836 0.0078-0.017578zm-0.0078 0.017578c-0.53011 1.3016-0.85436 2.1525-1.4453 3.4199 0.363 0.387 0.81316 0.83566 1.5352 1.3477-0.781-0.324-1.3129-0.64652-1.7109-0.97852-0.762 1.59-1.9491 3.8503-4.3711 8.1973 1.902-1.098 3.375-1.7713 4.75-2.0293-0.059-0.258-0.08984-0.53141-0.08984-0.81641v-0.0625c0.027-1.219 0.66006-2.1538 1.4141-2.0918 0.75 0.066 1.3357 1.1023 1.3047 2.3203-4e-3 0.23-0.03513 0.45325-0.07813 0.65625 1.359 0.266 2.8164 0.94544 4.6914 2.0234-0.367-0.68-0.69863-1.2929-1.0156-1.8789-0.496-0.383-1.0123-0.88278-2.0703-1.4258 0.723 0.188 1.2464 0.40644 1.6484 0.64844-3.2025-5.9645-3.4654-6.7608-4.5625-9.3301zm16.762-0.017578c-2.586 0.121-4.6128 2.4575-4.5078 3.7305 0.102 1.238 3.2459 2.3184 3.2109 2.3574-0.645 0.543-1.0665 0.90644-1.6055 1.3984-1.293 1.176-2.1845 2.0474-1.7305 3.2734 0.52 1.41 1.66 1.3518 3 1.0898 3.457-0.68 9.1562-5.0404 8.8672-6.6484-0.234-1.297-3.4178-3.871-5.3008-4.793-0.586-0.285-1.2576-0.43825-1.9336-0.40625zm0.53125 2.2305c0.324-0.031 0.70309 0.05081 1.1211 0.25781 0.918 0.441 1.867 1.6132 0 2.2812-0.508 0.18-2.1369-0.43797-2.0859-1.293 0.043-0.793 0.42584-1.1951 0.96484-1.2461zm-14.688 15.77c-1.6406 0-3.011 1.1653-3.3281 2.7129-0.04601 0.22169-0.07031 0.45087-0.07031 0.68555v1.8086h-1.4258c-0.0035 0-0.0063 0.0019-0.0098 2e-3h-0.36131c-1.867-4.7e-5 -3.4023 1.5314-3.4023 3.3984 0 1.699 1.272 3.1057 2.9102 3.3477 0.13629 0.02526 0.27687 0.0415 0.43164 0.04492 0.02062 3.73e-4 0.03984 0.0059 0.06055 0.0059 0.23338 0 0.46099-0.0248 0.68164-0.07031 1.5521-0.31425 2.7246-1.6849 2.7246-3.3281v-1.8047h1.4219c0.01037 0 0.01902-0.0055 0.0293-0.0059h0.33789c1.871 0 3.4023-1.5314 3.4023-3.3984 0-1.6876-1.2547-3.0878-2.877-3.3438-0.14039-0.02594-0.28546-0.04326-0.44336-0.04687-0.02789-6.84e-4 -0.05399-0.0078-0.08203-0.0078zm15.402 0c-3.313 0-6 2.688-6 6 0 3.313 2.688 5.9961 6 5.9961 3.313 0 5.9961-2.6841 5.9961-5.9961 0-3.313-2.6841-6-5.9961-6zm-15.398 1.6094c0.22737 0 0.31675 0.01656 0.43359 0.0293 0.79505 0.19301 1.375 0.8957 1.375 1.7559 0 1.01-0.8005 1.8125-1.8125 1.8125h-1.5586c-0.12804-0.01346-0.23047-0.1143-0.23047-0.24609v-1.5586c0-0.988 0.80097-1.793 1.793-1.793zm17.461 0.05469c0.125 4e-3 0.25791 0.03537 0.37891 0.10938 0.383 0.219 0.51197 0.71066 0.29297 1.0977-0.219 0.383-0.71075 0.50806-1.0938 0.28906s-0.51588-0.71075-0.29688-1.0938c0.152-0.262 0.43375-0.40634 0.71875-0.40234zm-2.0625 0.85547c0.32 0 0.63269 0.04691 0.92969 0.12891 0.055 0.32 0.24187 0.61297 0.54687 0.79297 0.305 0.176 0.65594 0.19512 0.96094 0.07813 0.59 0.578 0.97716 1.3748 1.0352 2.2578l-1.1406 0.01563c-0.109-1.195-1.109-2.1328-2.332-2.1328-0.352 0-0.68438 0.07775-0.98438 0.21875l-0.55859-0.99609c0.465-0.23 0.98397-0.35938 1.543-0.35938zm-1.9336 0.58594 0.58984 0.98047c-0.602 0.422-0.99609 1.121-0.99609 1.918 0 0.789 0.39809 1.4881 0.99609 1.9141l-0.58984 0.98438c-0.699-0.469-1.2225-1.1884-1.4375-2.0234 0.25-0.207 0.4082-0.52309 0.4082-0.87109 0-0.352-0.1582-0.668-0.4082-0.875 0.215-0.84 0.7375-1.5554 1.4375-2.0234zm-2.1484 2.0977c0.441 0 0.80469 0.35478 0.80469 0.80078 0 0.441-0.36269 0.80273-0.80469 0.80273-0.445 0-0.80078-0.36073-0.80078-0.80273 0-0.445 0.35478-0.80078 0.80078-0.80078zm6.4141 1 1.1406 0.02148c-0.059 0.883-0.44516 1.6718-1.0352 2.2578-0.305-0.113-0.65594-0.09788-0.96094 0.07813-0.305 0.176-0.49588 0.46897-0.54687 0.79297-0.297 0.082-0.60869 0.125-0.92969 0.125-0.555 0-1.0779-0.12938-1.5469-0.35938l0.5625-0.99609c0.301 0.148 0.62938 0.23047 0.98438 0.23047 1.223 0 2.223-0.94081 2.332-2.1328zm-22.93 0.60156h1.582c0.1227 0.0206 0.21875 0.11226 0.21875 0.23828v1.5586c0 0.988-0.80488 1.793-1.7969 1.793-0.22944 0-0.32084-0.01581-0.44141-0.02734-0.795-0.19305-1.375-0.89379-1.375-1.7539 0-1 0.8005-1.8086 1.8125-1.8086zm22.617 1.9355c0.281-8e-3 0.56284 0.14834 0.71484 0.40234 0.219 0.383 0.09003 0.87466-0.29297 1.0977-0.383 0.23-0.87066 0.08613-1.0977-0.29688-0.219-0.383-0.08613-0.87075 0.29688-1.0938 0.121-0.07 0.24591-0.10538 0.37891-0.10938z" style="fill-rule:evenodd;opacity:.1"/>
 <path d="m15 7.994c-0.535 1.313-0.859 2.164-1.453 3.438 0.363 0.387 0.813 0.836 1.535 1.348-0.781-0.324-1.313-0.648-1.711-0.98-0.762 1.59-1.949 3.852-4.371 8.199 1.902-1.098 3.375-1.773 4.75-2.031-0.059-0.258-0.09-0.531-0.09-0.816v-0.063c0.027-1.219 0.66-2.152 1.414-2.09 0.75 0.066 1.336 1.102 1.305 2.32-4e-3 0.23-0.035 0.453-0.078 0.656 1.359 0.266 2.816 0.945 4.691 2.023-0.367-0.68-0.699-1.293-1.016-1.879-0.496-0.383-1.012-0.883-2.07-1.426 0.723 0.188 1.246 0.406 1.648 0.648-3.207-5.973-3.465-6.762-4.566-9.34" style="fill-rule:evenodd;fill:#f9f9f9"/>
 <path d="m31.754 7.994c-2.586 0.121-4.613 2.457-4.508 3.73 0.102 1.238 3.246 2.32 3.211 2.359-0.645 0.543-1.066 0.906-1.605 1.398-1.293 1.176-2.184 2.047-1.73 3.273 0.52 1.41 1.66 1.352 3 1.09 3.457-0.68 9.156-5.04 8.867-6.648-0.234-1.297-3.418-3.871-5.301-4.793-0.586-0.285-1.258-0.438-1.934-0.406m0.531 2.227c0.324-0.031 0.703 0.051 1.121 0.258 0.918 0.441 1.867 1.613 0 2.281-0.508 0.18-2.137-0.438-2.086-1.293 0.043-0.793 0.426-1.195 0.965-1.246" style="fill-rule:evenodd;fill:#fff"/>
 <path d="m17.598 32.791c1.871 0 3.402-1.531 3.402-3.398s-1.531-3.398-3.402-3.398c-1.867 0-3.398 1.531-3.398 3.398v3.398m3.398-1.59h-1.809v-1.813c0-1.012 0.801-1.813 1.809-1.813 1.012 0 1.813 0.801 1.813 1.813 0 1.01-0.801 1.813-1.813 1.813" style="fill:#3c6eb2"/>
 <path d="m12.402 31.204c-1.867 0-3.402 1.531-3.402 3.398s1.531 3.398 3.402 3.398c1.867 0 3.402-1.531 3.402-3.398v-3.398m-3.402 1.594h1.809v1.809c0 1.01-0.801 1.813-1.809 1.813-1.012 0-1.813-0.801-1.813-1.813 0-1 0.801-1.809 1.813-1.809" style="fill:#3c6eb2"/>
 <path d="m17.598 25.994c-1.875 0-3.398 1.523-3.398 3.398v1.809h-1.426c-0.441 0-0.801 0.348-0.801 0.793 0 0.438 0.355 0.789 0.793 0.789h1.18c0.145 0 0.258 0.113 0.258 0.254v1.559c0 0.988-0.805 1.793-1.797 1.793-0.336 0-0.418-0.039-0.648-0.039-0.484 0-0.801 0.32-0.801 0.762 0 0.367 0.313 0.684 0.695 0.785 0.266 0.066 0.469 0.102 0.754 0.102 1.875 0 3.402-1.523 3.402-3.398v-1.805h1.422c0.445 0 0.805-0.352 0.805-0.793s-0.355-0.793-0.793-0.793h-1.18c-0.141 0-0.254-0.113-0.254-0.254v-1.559c0-0.988 0.801-1.793 1.793-1.793 0.34 0 0.418 0.043 0.648 0.043 0.484 0 0.805-0.324 0.805-0.766 0-0.367-0.313-0.684-0.695-0.785-0.266-0.066-0.469-0.098-0.754-0.098" style="fill:#f9f9f9"/>
 <path d="m33 25.994c-3.313 0-6 2.688-6 6 0 3.313 2.688 5.996 6 5.996 3.313 0 5.996-2.684 5.996-5.996 0-3.313-2.684-6-5.996-6m2.063 1.664c0.125 4e-3 0.258 0.035 0.379 0.109 0.383 0.219 0.512 0.711 0.293 1.098-0.219 0.383-0.711 0.508-1.094 0.289s-0.516-0.711-0.297-1.094c0.152-0.262 0.434-0.406 0.719-0.402m-2.063 0.855c0.32 0 0.633 0.047 0.93 0.129 0.055 0.32 0.242 0.613 0.547 0.793 0.305 0.176 0.656 0.195 0.961 0.078 0.59 0.578 0.977 1.375 1.035 2.258l-1.141 0.016c-0.109-1.195-1.109-2.133-2.332-2.133-0.352 0-0.684 0.078-0.984 0.219l-0.559-0.996c0.465-0.23 0.984-0.359 1.543-0.359m-1.934 0.582 0.59 0.98c-0.602 0.422-0.996 1.121-0.996 1.918 0 0.789 0.398 1.488 0.996 1.914l-0.59 0.984c-0.699-0.469-1.223-1.188-1.438-2.023 0.25-0.207 0.41-0.523 0.41-0.871 0-0.352-0.16-0.668-0.41-0.875 0.215-0.84 0.738-1.555 1.438-2.023m-2.148 2.094c0.441 0 0.805 0.355 0.805 0.801 0 0.441-0.363 0.801-0.805 0.801-0.445 0-0.801-0.359-0.801-0.801 0-0.445 0.355-0.801 0.801-0.801m6.414 1 1.141 0.02c-0.059 0.883-0.445 1.672-1.035 2.258-0.305-0.113-0.656-0.098-0.961 0.078s-0.496 0.469-0.547 0.793c-0.297 0.082-0.609 0.125-0.93 0.125-0.555 0-1.078-0.129-1.547-0.359l0.563-0.996c0.301 0.148 0.629 0.23 0.984 0.23 1.223 0 2.223-0.941 2.332-2.133m-0.313 2.52c0.281-8e-3 0.563 0.148 0.715 0.402 0.219 0.383 0.09 0.875-0.293 1.098-0.383 0.23-0.871 0.086-1.098-0.297-0.219-0.383-0.086-0.871 0.297-1.094 0.121-0.07 0.246-0.105 0.379-0.109" style="fill:#f9f9f9"/>
</svg>
