<svg width="48" height="48" viewBox="0 0 48 48.000001" xmlns="http://www.w3.org/2000/svg">
  <defs>
    <linearGradient id="a" x1="-47" x2="-1" gradientUnits="userSpaceOnUse">
      <stop offset="0" stop-color="#48a1e0"/>
      <stop offset="1" stop-color="#5aa9e3"/>
    </linearGradient>
  </defs>
  <path d="M1 43v.25c0 2.216 1.784 4 4 4h38c2.216 0 4-1.784 4-4V43c0 2.216-1.784 4-4 4H5c-2.216 0-4-1.784-4-4zm0 .5v.5c0 2.216 1.784 4 4 4h38c2.216 0 4-1.784 4-4v-.5c0 2.216-1.784 4-4 4H5c-2.216 0-4-1.784-4-4z" opacity=".02"/>
  <path d="M1 43.25v.25c0 2.216 1.784 4 4 4h38c2.216 0 4-1.784 4-4v-.25c0 2.216-1.784 4-4 4H5c-2.216 0-4-1.784-4-4z" opacity=".05"/>
  <path d="M1 43v.25c0 2.216 1.784 4 4 4h38c2.216 0 4-1.784 4-4V43c0 2.216-1.784 4-4 4H5c-2.216 0-4-1.784-4-4z" opacity=".1"/>
  <rect transform="rotate(-90)" x="-47" y="1" width="46" height="46" rx="4" fill="url(#a)"/>
  <path d="M1 39v4c0 2.216 1.784 4 4 4h38c2.216 0 4-1.784 4-4v-4c0 2.216-1.784 4-4 4H5c-2.216 0-4-1.784-4-4z" opacity=".1"/>
  <g>
    <g opacity=".1">
      <path d="M24 11c.734 0 1 .266 1 1v9c0 .734-.266 1-1 1H12c-.73 0-1-.266-1-1v-9c0-.734.27-1 1-1M37 24c0 .734-.266 1-1 1h-8c-.734 0-1-.266-1-1V14c0-.73.266-1 1-1h8c.734 0 1 .27 1 1M30 28c.734 0 1 .266 1 1v7c0 .734-.266 1-1 1H14c-.73 0-1-.266-1-1v-7c0-.734.27-1 1-1"/>
    </g>
  </g>
  <g>
    <path d="M24 10c.734 0 1 .266 1 1v1c-1 1-13 1-14 0v-1c0-.734.27-1 1-1M36 12c.727 0 1 .266 1 1v1c-1 1-9 1-10 0v-1c0-.734.278-1 1-1" fill="#ccc"/>
    <path d="M25 12v8c0 .734-.266 1-1 1H12c-.73 0-1-.266-1-1v-8M37 14v9c0 .734-.274 1-1 1h-8c-.727 0-1-.266-1-1v-9" fill="#f2f2f2"/>
    <path d="M30 27c.734 0 1 .266 1 1v1c-1 1-17 1-18 0v-1c0-.734.27-1 1-1" fill="#ccc"/>
    <path d="M31 29v6c0 .734-.266 1-1 1H14c-.73 0-1-.266-1-1v-6" fill="#f2f2f2"/>
  </g>
</svg>
