<svg version="1.1" viewBox="0 0 48 48" xmlns="http://www.w3.org/2000/svg">
 <defs>
  <linearGradient id="lG4501" x1="-47" x2="-1" gradientUnits="userSpaceOnUse">
   <stop style="stop-color:#f5f1af" offset="0"/>
   <stop style="stop-color:#f7f4c1" offset="1"/>
  </linearGradient>
 </defs>
 <path d="m1 43v0.25c0 2.22 1.78 4 4 4h38c2.22 0 4-1.78 4-4v-0.25c0 2.22-1.78 4-4 4h-38c-2.22 0-4-1.78-4-4zm0 0.5v0.5c0 2.22 1.78 4 4 4h38c2.22 0 4-1.78 4-4v-0.5c0 2.22-1.78 4-4 4h-38c-2.22 0-4-1.78-4-4z" style="opacity:.02"/>
 <path d="m1 43.3v0.25c0 2.22 1.78 4 4 4h38c2.22 0 4-1.78 4-4v-0.25c0 2.22-1.78 4-4 4h-38c-2.22 0-4-1.78-4-4z" style="opacity:.05"/>
 <path d="m1 43v0.25c0 2.22 1.78 4 4 4h38c2.22 0 4-1.78 4-4v-0.25c0 2.22-1.78 4-4 4h-38c-2.22 0-4-1.78-4-4z" style="opacity:.1"/>
 <rect transform="rotate(-90)" x="-47" y="1" width="46" height="46" rx="4" style="fill:url(#lG4501)"/>
 <path d="m1 39v4c0 2.22 1.78 4 4 4h38c2.22 0 4-1.78 4-4v-4c0 2.22-1.78 4-4 4h-38c-2.22 0-4-1.78-4-4z" style="opacity:.1"/>
 <path d="m14 13v2c0 0.554 0.446 1 1 1h18v9l-4 7-14 3c-0.554 0-1 0.446-1 1v1c0 0.554 0.446 1 1 1 4.22 0 9.36-0.892 13.6-3.76 4.23-2.87 7.41-7.83 7.41-15.2v-5z" style="opacity:.1"/>
 <path d="m15 14v21h1v-21zm3 0v21h1v-21zm3 0v20h1v-20zm3 0v19h1v-19zm3 0v17h1v-17zm3 0v15h1v-15z" style="fill:#9b9b9b"/>
 <path d="m15 11c-0.554 0-1 0.446-1 1v2c0 0.554 0.446 1 1 1h18v3c0 6.59-2.57 10.4-6.09 12.8-3.52 2.38-8.13 3.24-11.9 3.24-0.554 0-1 0.446-1 1v1c0 0.554 0.446 1 1 1 4.22 0 9.36-0.892 13.6-3.76 4.23-2.87 7.41-7.83 7.41-15.2v-5c0-1.11-0.892-2-2-2h-19z" style="fill:#a08e6a"/>
</svg>
