<svg style="" viewBox="0 0 48 48" xmlns="http://www.w3.org/2000/svg" xmlns:xlink="http://www.w3.org/1999/xlink">
 <defs style="">
  <linearGradient id="linearGradient3764" gradientTransform="translate(-48 .002215)" gradientUnits="userSpaceOnUse" style="" x1="1" x2="47">
   <stop offset="0" style="stop-color:#ff8e29"/>
   <stop offset="1" style="stop-color:#ff993d"/>
  </linearGradient>
 </defs>
 <path d="m 1 43 v .25 c 0 2.216 1.784 4 4 4 h 38 c 2.216 0 4 -1.784 4 -4 v -.25 c 0 2.216 -1.784 4 -4 4 h -38 c -2.216 0 -4 -1.784 -4 -4 z m 0 .5 v .5 c 0 2.216 1.784 4 4 4 h 38 c 2.216 0 4 -1.784 4 -4 v -.5 c 0 2.216 -1.784 4 -4 4 h -38 c -2.216 0 -4 -1.784 -4 -4 z" style="opacity:.02"/>
 <path d="m 1 43.25 v .25 c 0 2.216 1.784 4 4 4 h 38 c 2.216 0 4 -1.784 4 -4 v -.25 c 0 2.216 -1.784 4 -4 4 h -38 c -2.216 0 -4 -1.784 -4 -4 z" style="opacity:.05"/>
 <path d="m 1 43 v .25 c 0 2.216 1.784 4 4 4 h 38 c 2.216 0 4 -1.784 4 -4 v -.25 c 0 2.216 -1.784 4 -4 4 h -38 c -2.216 0 -4 -1.784 -4 -4 z" style="opacity:.1"/>
 <rect height="46" rx="4" style="fill:url(#linearGradient3764)" transform="rotate(-90)" width="46" x="-47" y="1"/>
 <g style="opacity:.1">
  <path id="SVGCleanerId_0" d="m 13 20.723 v 10.06 h .422 v -5.688 c 0 -.566 .074 -1.105 .23 -1.605 .168 -.508 .398 -.953 .695 -1.332 .309 -.391 .68 -.688 1.113 -.922 .438 -.227 .922 -.352 1.453 -.352 .605 0 1.094 .094 1.473 .27 .379 .191 .676 .441 .887 .746 .211 .316 .348 .68 .418 1.098 .086 .414 .129 .859 .129 1.328 v 6.461 h .422 v -6.383 c 0 -.469 .074 -.914 .23 -1.328 .152 -.434 .379 -.813 .672 -1.137 .297 -.328 .652 -.582 1.074 -.762 .422 -.199 .891 -.297 1.41 -.297 .59 0 1.074 .074 1.453 .234 .391 .156 .699 .375 .926 .664 .238 .285 .398 .633 .484 1.035 .098 .406 .148 .855 .148 1.352 l .012 3.699 c .004 0 .414 -.008 .414 -.008 l -.008 -3.691 c 0 -.547 -.055 -1.043 -.168 -1.484 -.113 -.457 -.301 -.84 -.566 -1.152 -.27 -.328 -.617 -.582 -1.055 -.766 -.434 -.188 -.98 -.273 -1.641 -.273 -.855 0 -1.57 .215 -2.191 .648 -.617 .43 -1.031 .996 -1.242 1.703 h -.043 c -.184 -.746 -.563 -1.328 -1.137 -1.746 -.566 -.434 -1.262 -.633 -2.105 -.605 -.422 0 -.816 .074 -1.195 .215 -.363 .148 -.703 .32 -1.016 .57 -.309 .246 -.563 .535 -.773 .859 -.211 .328 -.363 .684 -.461 1.078 h -.043 v -2.488 h -.426" style=""/>
  <path id="SVGCleanerId_1" d="m 34.777 30.785 v -10.06 h -.422 v 5.695 c 0 .563 -.082 1.098 -.25 1.602 -.168 .512 -.422 .961 -.758 1.355 -.324 .379 -.73 .688 -1.223 .922 -.488 .223 -1.059 .332 -1.703 .332 -.465 0 -.906 -.066 -1.328 -.191 -.406 -.133 -.77 -.313 -1.094 -.59 -.309 -.273 -.555 -.605 -.734 -1.016 -.184 -.441 -.199 -.941 -.199 -1.523 l -.414 .066 v .477 c .023 .402 .059 .773 .191 1.105 .195 .438 .461 .813 .801 1.137 .348 .297 .758 .52 1.219 .684 .477 .148 .996 .223 1.559 .223 1.066 0 1.93 -.262 2.59 -.77 .672 -.512 1.105 -1.148 1.305 -1.938 h .039 v 2.477 h .418" style=""/>
  <path id="SVGCleanerId_2" d="m 30.06 17.836 c 0 -.246 .219 -.449 .484 -.449 .266 0 .48 .203 .48 .449 0 .25 -.215 .449 -.48 .449 -.27 0 -.484 -.199 -.484 -.449" style=""/>
  <path id="SVGCleanerId_3" d="m 25.82 18.05 h .402 c 0 -2.41 2.164 -3.672 4.301 -3.672 1.086 0 2.086 .32 2.816 .902 .824 .66 1.258 1.617 1.258 2.77 h .402 c 0 -1.266 -.484 -2.32 -1.398 -3.051 -.805 -.645 -1.898 -.996 -3.078 -.996 -2.336 0 -4.703 1.391 -4.703 4.047" style=""/>
 </g>
 <g style="" transform="translate(0 -1)">
  <use style="" xlink:href="#SVGCleanerId_0"/>
  <use style="" xlink:href="#SVGCleanerId_1"/>
  <use style="" xlink:href="#SVGCleanerId_2"/>
  <use style="" xlink:href="#SVGCleanerId_3"/>
 </g>
 <path d="m 1 39 v 4 c 0 2.216 1.784 4 4 4 h 38 c 2.216 0 4 -1.784 4 -4 v -4 c 0 2.216 -1.784 4 -4 4 h -38 c -2.216 0 -4 -1.784 -4 -4 z" style="opacity:.1"/>
</svg>
