<svg version="1.1" viewBox="0 0 48 48" xmlns="http://www.w3.org/2000/svg">
 <defs>
  <linearGradient id="linearGradient4501" x1="-47" x2="-1" y1="2.8779e-15" y2="6.1232e-17" gradientUnits="userSpaceOnUse">
   <stop style="stop-color:#3d3d3d" offset="0"/>
   <stop style="stop-color:#474747" offset="1"/>
  </linearGradient>
 </defs>
 <g transform="translate(0 3.949e-5)">
  <path d="m1 43v0.25c0 2.216 1.784 4 4 4h38c2.216 0 4-1.784 4-4v-0.25c0 2.216-1.784 4-4 4h-38c-2.216 0-4-1.784-4-4zm0 0.5v0.5c0 2.216 1.784 4 4 4h38c2.216 0 4-1.784 4-4v-0.5c0 2.216-1.784 4-4 4h-38c-2.216 0-4-1.784-4-4z" style="opacity:.02"/>
  <path d="m1 43.25v0.25c0 2.216 1.784 4 4 4h38c2.216 0 4-1.784 4-4v-0.25c0 2.216-1.784 4-4 4h-38c-2.216 0-4-1.784-4-4z" style="opacity:.05"/>
  <path d="m1 43v0.25c0 2.216 1.784 4 4 4h38c2.216 0 4-1.784 4-4v-0.25c0 2.216-1.784 4-4 4h-38c-2.216 0-4-1.784-4-4z" style="opacity:.1"/>
 </g>
 <rect transform="rotate(-90)" x="-47" y="1" width="46" height="46" rx="4" style="fill:url(#linearGradient4501)"/>
 <g transform="translate(0 3.949e-5)">
  <g transform="translate(0 -1004.4)">
   <path d="m1 1043.4v4c0 2.216 1.784 4 4 4h38c2.216 0 4-1.784 4-4v-4c0 2.216-1.784 4-4 4h-38c-2.216 0-4-1.784-4-4z" style="opacity:.1"/>
  </g>
 </g>
 <path d="m15.5 12-4.5 4.5 1.5 1.5 3-3 3 3 1.5-1.5-4.5-4.5m17 0-4.5 4.5 1.5 1.5 3-3 3 3 1.5-1.5-4.5-4.5m-14.5 8a2 2 0 0 0-2 2 2 2 0 0 0 2 2 2 2 0 0 0 2-2 2 2 0 0 0-2-2zm12 0a2 2 0 0 0-2 2 2 2 0 0 0 2 2 2 2 0 0 0 2-2 2 2 0 0 0-2-2zm-12 6s-2 2-2 5 2 5 2 5h2s-2-2-2-5 2-5 2-5zm4 0v2h2v5c0 0.552-0.448 1-1 1s-1-0.448-1-1h-2c0 1.657 1.343 3 3 3s3-1.343 3-3v-5h1v-2zm6 0s2 2 2 5-2 5-2 5h2s2-2 2-5-2-5-2-5z" style="opacity:.1"/>
 <path d="m15.5 11-4.5 4.5 1.5 1.5 3-3 3 3 1.5-1.5zm17 0-4.5 4.5 1.5 1.5 3-3 3 3 1.5-1.5zm-14.5 8a2 2 0 0 0-2 2 2 2 0 0 0 2 2 2 2 0 0 0 2-2 2 2 0 0 0-2-2zm12 0a2 2 0 0 0-2 2 2 2 0 0 0 2 2 2 2 0 0 0 2-2 2 2 0 0 0-2-2zm-12 6s-2 2-2 5 2 5 2 5h2s-2-2-2-5 2-5 2-5zm4 0v2h2v5c0 0.552-0.448 1-1 1s-1-0.448-1-1h-2c0 1.657 1.343 3 3 3s3-1.343 3-3v-5h1v-2zm6 0s2 2 2 5-2 5-2 5h2s2-2 2-5-2-5-2-5z" style="fill:#e9eb89"/>
</svg>
