<svg style="" viewBox="0 0 48 48" xmlns="http://www.w3.org/2000/svg" xmlns:xlink="http://www.w3.org/1999/xlink">
 <defs style="">
  <linearGradient id="linearGradient3764" gradientTransform="translate(-48 .002215)" gradientUnits="userSpaceOnUse" style="" x1="1" x2="47">
   <stop offset="0" style="stop-color:#6bc6e1"/>
   <stop offset="1" style="stop-color:#7ccde4"/>
  </linearGradient>
 </defs>
 <path d="m 1 43 v .25 c 0 2.216 1.784 4 4 4 h 38 c 2.216 0 4 -1.784 4 -4 v -.25 c 0 2.216 -1.784 4 -4 4 h -38 c -2.216 0 -4 -1.784 -4 -4 z m 0 .5 v .5 c 0 2.216 1.784 4 4 4 h 38 c 2.216 0 4 -1.784 4 -4 v -.5 c 0 2.216 -1.784 4 -4 4 h -38 c -2.216 0 -4 -1.784 -4 -4 z" style="opacity:.02"/>
 <path d="m 1 43.25 v .25 c 0 2.216 1.784 4 4 4 h 38 c 2.216 0 4 -1.784 4 -4 v -.25 c 0 2.216 -1.784 4 -4 4 h -38 c -2.216 0 -4 -1.784 -4 -4 z" style="opacity:.05"/>
 <path d="m 1 43 v .25 c 0 2.216 1.784 4 4 4 h 38 c 2.216 0 4 -1.784 4 -4 v -.25 c 0 2.216 -1.784 4 -4 4 h -38 c -2.216 0 -4 -1.784 -4 -4 z" style="opacity:.1"/>
 <rect height="46" rx="4" style="fill:url(#linearGradient3764)" transform="rotate(-90)" width="46" x="-47" y="1"/>
 <path d="m 13 13 c -2.77 0 -5 2.23 -5 5 v 8 c 0 2.773 2.23 5 5 5 h 12 v 6 l 5 -6 h 5 c 2.773 0 5 -2.227 5 -5 v -8 c 0 -2.77 -2.227 -5 -5 -5 m -4.625 2 c .883 0 1.105 .441 1.375 2.969 .238 2.211 .652 4.68 .844 4.875 .145 .145 .23 .145 .344 0 .223 -.281 1.453 -3.418 1.938 -4.938 .5 -1.566 .996 -2.27 1.844 -2.656 .68 -.309 1.082 -.313 1.313 -.031 .242 .293 -.219 1.695 -1.25 4.03 -2.203 4.969 -4.477 7.949 -7.125 9.281 -.977 .492 -1.969 .629 -1.969 .281 0 -.441 .449 -1.445 .816 -1.816 .219 -.223 .73 -.605 1.188 -.844 .449 -.238 .859 -.488 .906 -.563 .047 -.074 -.191 -.66 -.566 -1.316 -.758 -1.328 -1.25 -2.371 -1.688 -3.781 -.34 -1.07 -.414 -3.01 -.156 -3.934 .262 -.945 1.129 -1.566 2.191 -1.566 m -10.699 .066 c .41 -.055 .766 .102 1.063 .438 .609 .684 .613 1.105 .066 2.816 -.273 .824 -.5 1.602 -.5 1.688 0 .391 .488 .031 2.125 -1.598 1.914 -1.898 2.32 -2.133 3.063 -1.75 .73 .375 .746 .867 .406 3.938 -.293 2.652 -.297 2.695 -.063 4.066 .313 1.852 .324 1.867 -.066 2.156 -.758 .551 -1.793 .426 -2.563 -.316 -.902 -.863 -.984 -1.191 -.996 -5.152 0 -.332 -.527 .105 -2.16 1.75 -1.012 1.016 -2.023 1.926 -2.219 2.027 -.574 .309 -1.113 .238 -1.598 -.188 -.629 -.566 -.676 -1.23 -.152 -2.844 .227 -.711 .41 -1.367 .375 -1.406 -.145 -.148 -.59 .27 -2.25 2.094 -1.887 2.066 -2.289 2.406 -3 2.406 -.902 0 -1.469 -1.039 -1.281 -2.375 .188 -1.398 1.676 -5.297 2.5 -6.594 .672 -1.066 2.039 -1.41 2.656 -.656 .328 .402 .215 1.059 -.406 2.844 -.586 1.699 -.457 1.855 .598 .656 .418 -.48 1.254 -1.398 1.816 -2.031 1.063 -1.207 1.902 -1.871 2.594 -1.969" style="opacity:.1"/>
 <path d="m 13 12 c -2.77 0 -5 2.23 -5 5 v 8 c 0 2.773 2.23 5 5 5 h 12 v 6 l 5 -6 h 5 c 2.773 0 5 -2.227 5 -5 v -8 c 0 -2.77 -2.227 -5 -5 -5 m -4.625 2 c .883 0 1.105 .441 1.375 2.969 .238 2.211 .652 4.68 .844 4.875 .145 .145 .23 .145 .344 0 .223 -.281 1.453 -3.418 1.938 -4.938 .5 -1.566 .996 -2.27 1.844 -2.656 .68 -.309 1.082 -.313 1.313 -.031 .242 .293 -.219 1.695 -1.25 4.03 -2.203 4.969 -4.477 7.949 -7.125 9.281 -.977 .492 -1.969 .629 -1.969 .281 0 -.441 .449 -1.445 .816 -1.816 .219 -.223 .73 -.605 1.188 -.844 .449 -.238 .859 -.488 .906 -.563 .047 -.074 -.191 -.66 -.566 -1.316 -.758 -1.328 -1.25 -2.371 -1.688 -3.781 -.34 -1.07 -.414 -3.01 -.156 -3.934 .262 -.945 1.129 -1.566 2.191 -1.566 m -10.699 .066 c .41 -.055 .766 .102 1.063 .438 .609 .684 .613 1.105 .066 2.816 -.273 .824 -.5 1.602 -.5 1.688 0 .391 .488 .031 2.125 -1.598 1.914 -1.898 2.32 -2.133 3.063 -1.75 .73 .375 .746 .867 .406 3.938 -.293 2.652 -.297 2.695 -.063 4.066 .313 1.852 .324 1.867 -.066 2.156 -.758 .551 -1.793 .426 -2.563 -.316 -.902 -.863 -.984 -1.191 -.996 -5.152 0 -.332 -.527 .105 -2.16 1.75 -1.012 1.016 -2.023 1.926 -2.219 2.027 -.574 .309 -1.113 .238 -1.598 -.188 -.629 -.566 -.676 -1.23 -.152 -2.844 .227 -.711 .41 -1.367 .375 -1.406 -.145 -.148 -.59 .27 -2.25 2.094 -1.887 2.066 -2.289 2.406 -3 2.406 -.902 0 -1.469 -1.039 -1.281 -2.375 .188 -1.398 1.676 -5.297 2.5 -6.594 .672 -1.066 2.039 -1.41 2.656 -.656 .328 .402 .215 1.059 -.406 2.844 -.586 1.699 -.457 1.855 .598 .656 .418 -.48 1.254 -1.398 1.816 -2.031 1.063 -1.207 1.902 -1.871 2.594 -1.969" style="fill:#fff"/>
 <path d="m 1 39 v 4 c 0 2.216 1.784 4 4 4 h 38 c 2.216 0 4 -1.784 4 -4 v -4 c 0 2.216 -1.784 4 -4 4 h -38 c -2.216 0 -4 -1.784 -4 -4 z" style="opacity:.1"/>
</svg>
