<svg version="1.1" viewBox="0 0 48 48" xmlns="http://www.w3.org/2000/svg">
 <defs>
  <linearGradient id="bg" x1="-47" x2="-1" gradientUnits="userSpaceOnUse">
   <stop style="stop-color:#e4e4e4" offset="0"/>
   <stop style="stop-color:#eee" offset="1"/>
  </linearGradient>
 </defs>
 <path d="m1 43v0.25c0 2.22 1.78 4 4 4h38c2.22 0 4-1.78 4-4v-0.25c0 2.22-1.78 4-4 4h-38c-2.22 0-4-1.78-4-4zm0 0.5v0.5c0 2.22 1.78 4 4 4h38c2.22 0 4-1.78 4-4v-0.5c0 2.22-1.78 4-4 4h-38c-2.22 0-4-1.78-4-4z" style="opacity:.02"/>
 <path d="m1 43.3v0.25c0 2.22 1.78 4 4 4h38c2.22 0 4-1.78 4-4v-0.25c0 2.22-1.78 4-4 4h-38c-2.22 0-4-1.78-4-4z" style="opacity:.05"/>
 <path d="m1 43v0.25c0 2.22 1.78 4 4 4h38c2.22 0 4-1.78 4-4v-0.25c0 2.22-1.78 4-4 4h-38c-2.22 0-4-1.78-4-4z" style="opacity:.1"/>
 <rect transform="rotate(-90)" x="-47" y="1" width="46" height="46" rx="4" style="fill:url(#bg)"/>
 <path d="m1 39v4c0 2.22 1.78 4 4 4h38c2.22 0 4-1.78 4-4v-4c0 2.22-1.78 4-4 4h-38c-2.22 0-4-1.78-4-4z" style="opacity:.1"/>
 <path d="m30.5 10a6.5 4.5 0 0 0-4.39 1.19 13 13 0 0 1 9.16 6.36 6.5 4.5 0 0 0 1.73-3.05 6.5 4.5 0 0 0-6.5-4.5m-6.5 2a12 12 0 0 0-12 12 12 12 0 0 0 0.599 3.72c-0.797 1.34-3.29 7.41 0.204 8.28h5.04c0.45-1.48 2.37 0 5.16 0 0.161 0 0.301-0.014 0.457-0.018a12 12 0 0 0 0.528 0.018 12 12 0 0 0 12-12 12 12 0 0 0-12-12m0 6a6 6 0 0 1 6 6 6 6 0 0 1-6 6 6 6 0 0 1-3.37-1.04c-0.021-0.015-0.043-0.032-0.064-0.047a6 6 0 0 1-2.56-4.92 6 6 0 0 1 5.99-6" style="opacity:.1"/>
 <path d="m24 11a12 12 0 0 0-12 12 12 12 0 0 0 12 12 12 12 0 0 0 12-12 12 12 0 0 0-12-12m0 6a6 6 0 0 1 6 6 6 6 0 0 1-6 6 6 6 0 0 1-6-6 6 6 0 0 1 6-6z" style="fill:#e77937"/>
 <path d="m30.5 9a6.5 4.5 0 0 0-4.39 1.19 13 13 0 0 1 9.16 6.36 6.5 4.5 0 0 0 1.73-3.05 6.5 4.5 0 0 0-6.5-4.5h-0.00195zm-17.8 17.5c-0.638 0.872-3.59 7.59 0.0762 8.5h5.04c0.45-1.48 2.37 0 5.17 0 4.66 0 7.36-1.5 7.96-2.69 0.107-0.534-0.0922-1.09-0.451-1.63-6.52-0.025-8.51-1.69-11.5-3.87-2.28 0.057-3 3.18-6.29-0.316z" style="fill:#76a0db"/>
</svg>
