<svg version="1.1" viewBox="0 0 48 48" xmlns="http://www.w3.org/2000/svg">
 <defs>
  <linearGradient id="bg" x2="0" y1="1" y2="47" gradientUnits="userSpaceOnUse">
   <stop style="stop-color:#f59a47" offset="0"/>
   <stop style="stop-color:#f48f34" offset="1"/>
  </linearGradient>
 </defs>
 <path d="m1 43v.25c0 2.22 1.78 4 4 4h38c2.22 0 4-1.78 4-4v-.25c0 2.22-1.78 4-4 4h-38c-2.22 0-4-1.78-4-4zm0 .5v.5c0 2.22 1.78 4 4 4h38c2.22 0 4-1.78 4-4v-.5c0 2.22-1.78 4-4 4h-38c-2.22 0-4-1.78-4-4z" style="opacity:.02"/>
 <path d="m1 43.2v.25c0 2.22 1.78 4 4 4h38c2.22 0 4-1.78 4-4v-.25c0 2.22-1.78 4-4 4h-38c-2.22 0-4-1.78-4-4z" style="opacity:.05"/>
 <path d="m1 43v.25c0 2.22 1.78 4 4 4h38c2.22 0 4-1.78 4-4v-.25c0 2.22-1.78 4-4 4h-38c-2.22 0-4-1.78-4-4z" style="opacity:.1"/>
 <rect x="1" y="1" width="46" height="46" rx="4" style="fill:url(#bg)"/>
 <path d="m1 39v4c0 2.22 1.78 4 4 4h38c2.22 0 4-1.78 4-4v-4c0 2.22-1.78 4-4 4h-38c-2.22 0-4-1.78-4-4z" style="opacity:.1"/>
 <path d="m24 19.2-9-4.17v12c-2.21 0-4 1.79-4 4s1.79 4 4 4 4-1.79 4-4v-11.2l3.59 3.59c.781.781 2.05.781 2.83 0l3.59-3.59v11.2c0 2.21 1.79 4 4 4s4-1.79 4-4-1.79-4-4-4v-12z" style="opacity:.1"/>
 <path d="m30.9 12c-.475.0119-.956.192-1.35.586l-5.59 5.59-5.59-5.58c-.572-.572-1.43-.743-2.18-.433-.747.31-1.23 1.04-1.23 1.84v12c-2.21 0-4 1.79-4 4s1.79 4 4 4 4-1.79 4-4v-11.2l3.59 3.59c.781.781 2.05.781 2.83 0l3.59-3.59v11.2c0 2.21 1.79 4 4 4s4-1.79 4-4-1.79-4-4-4v-12c-.000482-1.22-1.02-2.03-2.06-2z" style="fill:#f9f9f9"/>
</svg>
