<svg width="48" height="48" version="1.1" viewBox="0 0 48 48.000001" xmlns="http://www.w3.org/2000/svg">
 <defs>
  <linearGradient id="linearGradient4501" x1="-47" x2="-1" y1="2.8779e-15" y2="6.1232e-17" gradientUnits="userSpaceOnUse">
   <stop style="stop-color:#a58d6f" offset="0"/>
   <stop style="stop-color:#ad977b" offset="1"/>
  </linearGradient>
 </defs>
 <g transform="translate(0 3.949e-5)">
  <path d="m1 43v0.25c0 2.216 1.784 4 4 4h38c2.216 0 4-1.784 4-4v-0.25c0 2.216-1.784 4-4 4h-38c-2.216 0-4-1.784-4-4zm0 0.5v0.5c0 2.216 1.784 4 4 4h38c2.216 0 4-1.784 4-4v-0.5c0 2.216-1.784 4-4 4h-38c-2.216 0-4-1.784-4-4z" style="opacity:.02"/>
  <path d="m1 43.25v0.25c0 2.216 1.784 4 4 4h38c2.216 0 4-1.784 4-4v-0.25c0 2.216-1.784 4-4 4h-38c-2.216 0-4-1.784-4-4z" style="opacity:.05"/>
  <path d="m1 43v0.25c0 2.216 1.784 4 4 4h38c2.216 0 4-1.784 4-4v-0.25c0 2.216-1.784 4-4 4h-38c-2.216 0-4-1.784-4-4z" style="opacity:.1"/>
 </g>
 <rect transform="rotate(-90)" x="-47" y="1" width="46" height="46" rx="4" style="fill:url(#linearGradient4501)"/>
 <g transform="translate(0 3.949e-5)">
  <g transform="translate(0 -1004.4)">
   <path d="m1 1043.4v4c0 2.216 1.784 4 4 4h38c2.216 0 4-1.784 4-4v-4c0 2.216-1.784 4-4 4h-38c-2.216 0-4-1.784-4-4z" style="opacity:.1"/>
  </g>
 </g>
 <g style="fill-opacity:.098">
  <g transform="translate(0,1)">
   <path transform="translate(-1,-2)" d="m13 13c-0.554 0-1 0.446-1 1v21c0 0.554 0.446 1 1 1s1-0.446 1-1v-0.656c0 0.923 0.669 1.656 1.5 1.656s1.5-0.733 1.5-1.656v-0.344h4v0.344c0 0.923 0.669 1.656 1.5 1.656s1.5-0.733 1.5-1.656c0 0.923 0.669 1.656 1.5 1.656s1.5-0.733 1.5-1.656c0 0.923 0.669 1.656 1.5 1.656s1.5-0.733 1.5-1.656c0 0.923 0.669 1.656 1.5 1.656s1.5-0.733 1.5-1.656c0 0.923 0.669 1.656 1.5 1.656s1.5-0.733 1.5-1.656v0.656c0 0.554 0.446 1 1 1s1-0.446 1-1v-21c0-0.554-0.446-1-1-1s-1 0.446-1 1v0.656c0-0.923-0.669-1.656-1.5-1.656s-1.5 0.733-1.5 1.656c0-0.923-0.669-1.656-1.5-1.656s-1.5 0.733-1.5 1.656v0.344h-4v-0.344c0-0.923-0.669-1.656-1.5-1.656s-1.5 0.733-1.5 1.656c0-0.923-0.669-1.656-1.5-1.656s-1.5 0.733-1.5 1.656c0-0.923-0.669-1.656-1.5-1.656s-1.5 0.733-1.5 1.656c0-0.923-0.669-1.656-1.5-1.656s-1.5 0.733-1.5 1.656v-0.656c0-0.554-0.446-1-1-1zm13 3h4v0.344c0 0.923 0.669 1.656 1.5 1.656s1.5-0.733 1.5-1.656c0 0.923 0.669 1.656 1.5 1.656s1.5-0.733 1.5-1.656v4.313c0-0.923-0.669-1.656-1.5-1.656s-1.5 0.733-1.5 1.656c0-0.923-0.669-1.656-1.5-1.656s-1.5 0.733-1.5 1.656c0-0.923-0.669-1.656-1.5-1.656s-1.5 0.733-1.5 1.656v0.344h-4v-0.344c0-0.923-0.669-1.656-1.5-1.656s-1.5 0.733-1.5 1.656c0-0.923-0.669-1.656-1.5-1.656s-1.5 0.733-1.5 1.656c0-0.923-0.669-1.656-1.5-1.656s-1.5 0.733-1.5 1.656v-4.313c0 0.923 0.669 1.656 1.5 1.656s1.5-0.733 1.5-1.656c0 0.923 0.669 1.656 1.5 1.656s1.5-0.733 1.5-1.656c0 0.923 0.669 1.656 1.5 1.656s1.5-0.733 1.5-1.656c0 0.923 0.669 1.656 1.5 1.656s1.5-0.733 1.5-1.656zm-3 6h4v0.344c0 0.923 0.669 1.656 1.5 1.656s1.5-0.733 1.5-1.656c0 0.923 0.669 1.656 1.5 1.656s1.5-0.733 1.5-1.656c0 0.923 0.669 1.656 1.5 1.656s1.5-0.733 1.5-1.656v4.313c0-0.923-0.669-1.656-1.5-1.656s-1.5 0.733-1.5 1.656v0.344h-4v-0.344c0-0.923-0.669-1.656-1.5-1.656s-1.5 0.733-1.5 1.656c0-0.923-0.669-1.656-1.5-1.656s-1.5 0.733-1.5 1.656c0-0.923-0.669-1.656-1.5-1.656s-1.5 0.733-1.5 1.656c0-0.923-0.669-1.656-1.5-1.656s-1.5 0.733-1.5 1.656c0-0.923-0.669-1.656-1.5-1.656s-1.5 0.733-1.5 1.656v-4.313c0 0.923 0.669 1.656 1.5 1.656s1.5-0.733 1.5-1.656c0 0.923 0.669 1.656 1.5 1.656s1.5-0.733 1.5-1.656c0 0.923 0.669 1.656 1.5 1.656s1.5-0.733 1.5-1.656zm6 6h4v0.344c0 0.923 0.669 1.656 1.5 1.656s1.5-0.733 1.5-1.656v4.313c0-0.923-0.669-1.656-1.5-1.656s-1.5 0.733-1.5 1.656c0-0.923-0.669-1.656-1.5-1.656s-1.5 0.733-1.5 1.656c0-0.923-0.669-1.656-1.5-1.656s-1.5 0.733-1.5 1.656c0-0.923-0.669-1.656-1.5-1.656s-1.5 0.733-1.5 1.656c0-0.923-0.669-1.656-1.5-1.656s-1.5 0.733-1.5 1.656v0.344h-4v-0.344c0-0.923-0.669-1.656-1.5-1.656s-1.5 0.733-1.5 1.656v-4.313c0 0.923 0.669 1.656 1.5 1.656s1.5-0.733 1.5-1.656c0 0.923 0.669 1.656 1.5 1.656s1.5-0.733 1.5-1.656c0 0.923 0.669 1.656 1.5 1.656s1.5-0.733 1.5-1.656c0 0.923 0.669 1.656 1.5 1.656s1.5-0.733 1.5-1.656c0 0.923 0.669 1.656 1.5 1.656s1.5-0.733 1.5-1.656z"/>
  </g>
 </g>
 <g transform="translate(0,-1)">
  <g transform="translate(0,1)">
   <rect x="12" y="13" width="24" height="1" style="fill:#4d4d4d"/>
   <rect x="13" y="11" width="3" height="5" rx="1.5" ry="1.667" style="fill:#d0493e"/>
   <rect x="16" y="11" width="3" height="5" rx="1.5" ry="1.667" style="fill:#d0493e"/>
   <rect x="19" y="11" width="3" height="5" rx="1.5" ry="1.667" style="fill:#d0493e"/>
   <rect x="32" y="11" width="3" height="5" rx="1.5" ry="1.667" style="fill:#d0493e"/>
   <rect x="29" y="11" width="3" height="5" rx="1.5" ry="1.667" style="fill:#d0493e"/>
   <rect x="22" y="11" width="3" height="5" rx="1.5" ry="1.667" style="fill:#d0493e"/>
  </g>
  <g transform="translate(0,-2)">
   <rect x="12" y="22" width="24" height="1" style="fill:#4d4d4d"/>
   <rect x="13" y="20" width="3" height="5" rx="1.5" ry="1.667" style="fill:#d2f953"/>
   <rect x="16" y="20" width="3" height="5" rx="1.5" ry="1.667" style="fill:#d2f953"/>
   <rect x="32" y="20" width="3" height="5" rx="1.5" ry="1.667" style="fill:#d2f953"/>
   <rect x="29" y="20" width="3" height="5" rx="1.5" ry="1.667" style="fill:#d2f953"/>
   <rect x="26" y="20" width="3" height="5" rx="1.5" ry="1.667" style="fill:#d2f953"/>
   <rect x="19" y="20" width="3" height="5" rx="1.5" ry="1.667" style="fill:#d2f953"/>
  </g>
  <g transform="translate(0,-2)">
   <rect x="12" y="28" width="24" height="1" style="fill:#4d4d4d"/>
   <rect x="13" y="26" width="3" height="5" rx="1.5" ry="1.667" style="fill:#2b7493"/>
   <rect x="32" y="26" width="3" height="5" rx="1.5" ry="1.667" style="fill:#2b7493"/>
   <rect x="16" y="26" width="3" height="5" rx="1.5" ry="1.667" style="fill:#2b7493"/>
   <rect x="19" y="26" width="3" height="5" rx="1.5" ry="1.667" style="fill:#2b7493"/>
   <rect x="22" y="26" width="3" height="5" rx="1.5" ry="1.667" style="fill:#2b7493"/>
   <rect x="25" y="26" width="3" height="5" rx="1.5" ry="1.667" style="fill:#2b7493"/>
  </g>
  <g transform="translate(0,-2)">
   <rect x="12" y="34" width="24" height="1" style="fill:#4d4d4d"/>
   <rect x="13" y="32" width="3" height="5" rx="1.5" ry="1.667" style="fill:#ececec"/>
   <rect x="32" y="32" width="3" height="5" rx="1.5" ry="1.667" style="fill:#ececec"/>
   <rect x="29" y="32" width="3" height="5" rx="1.5" ry="1.667" style="fill:#ececec"/>
   <rect x="26" y="32" width="3" height="5" rx="1.5" ry="1.667" style="fill:#ececec"/>
   <rect x="23" y="32" width="3" height="5" rx="1.5" ry="1.667" style="fill:#ececec"/>
   <rect x="20" y="32" width="3" height="5" rx="1.5" ry="1.667" style="fill:#ececec"/>
  </g>
  <rect x="11" y="12" width="2" height="23" rx="1" ry="1" style="fill:#4d4d4d"/>
  <rect x="35" y="12" width="2" height="23" rx="1" ry="1" style="fill:#4d4d4d"/>
 </g>
</svg>
