<?xml version="1.0" encoding="UTF-8" standalone="no"?>
<svg
   xmlns:dc="http://purl.org/dc/elements/1.1/"
   xmlns:cc="http://creativecommons.org/ns#"
   xmlns:rdf="http://www.w3.org/1999/02/22-rdf-syntax-ns#"
   xmlns:svg="http://www.w3.org/2000/svg"
   xmlns="http://www.w3.org/2000/svg"
   xmlns:sodipodi="http://sodipodi.sourceforge.net/DTD/sodipodi-0.dtd"
   xmlns:inkscape="http://www.inkscape.org/namespaces/inkscape"
   viewBox="0 0 48 48"
   version="1.1"
   id="svg22516"
   sodipodi:docname="natural-selection-2.svg">
  <metadata
     id="metadata22520">
    <rdf:RDF>
      <cc:Work
         rdf:about="">
        <dc:format>image/svg+xml</dc:format>
        <dc:type
           rdf:resource="http://purl.org/dc/dcmitype/StillImage" />
      </cc:Work>
    </rdf:RDF>
  </metadata>
  <sodipodi:namedview
     pagecolor="#ffffff"
     bordercolor="#666666"
     borderopacity="1"
     objecttolerance="10"
     gridtolerance="10"
     guidetolerance="10"
     inkscape:pageopacity="0"
     inkscape:pageshadow="2"
     inkscape:window-width="640"
     inkscape:window-height="480"
     id="namedview22518" />
  <defs
     id="defs22476">
    <linearGradient
       id="linearGradient3764"
       x1="1"
       x2="47"
       gradientUnits="userSpaceOnUse"
       gradientTransform="translate(-48.000001,0.00221467)">
      <stop
         stop-color="#921616"
         stop-opacity="1"
         id="stop22461" />
      <stop
         offset="1"
         stop-color="#a31919"
         stop-opacity="1"
         id="stop22463" />
    </linearGradient>
    <clipPath
       id="clipPath-881576137">
      <g
         transform="translate(0,-1004.3622)"
         id="g22468">
        <rect
           rx="4"
           y="1005.36"
           x="1"
           height="46"
           width="46"
           fill="#1890d0"
           id="rect22466" />
      </g>
    </clipPath>
    <clipPath
       id="clipPath-894602996">
      <g
         transform="translate(0,-1004.3622)"
         id="g22473">
        <rect
           rx="4"
           y="1005.36"
           x="1"
           height="46"
           width="46"
           fill="#1890d0"
           id="rect22471" />
      </g>
    </clipPath>
  </defs>
  <g
     id="g22484">
    <path
       d="m 1 43 l 0 0.25 c 0 2.216 1.784 4 4 4 l 38 0 c 2.216 0 4 -1.784 4 -4 l 0 -0.25 c 0 2.216 -1.784 4 -4 4 l -38 0 c -2.216 0 -4 -1.784 -4 -4 z m 0 0.5 l 0 0.5 c 0 2.216 1.784 4 4 4 l 38 0 c 2.216 0 4 -1.784 4 -4 l 0 -0.5 c 0 2.216 -1.784 4 -4 4 l -38 0 c -2.216 0 -4 -1.784 -4 -4 z"
       opacity="0.02"
       id="path22478" />
    <path
       d="m 1 43.25 l 0 0.25 c 0 2.216 1.784 4 4 4 l 38 0 c 2.216 0 4 -1.784 4 -4 l 0 -0.25 c 0 2.216 -1.784 4 -4 4 l -38 0 c -2.216 0 -4 -1.784 -4 -4 z"
       opacity="0.05"
       id="path22480" />
    <path
       d="m 1 43 l 0 0.25 c 0 2.216 1.784 4 4 4 l 38 0 c 2.216 0 4 -1.784 4 -4 l 0 -0.25 c 0 2.216 -1.784 4 -4 4 l -38 0 c -2.216 0 -4 -1.784 -4 -4 z"
       opacity="0.1"
       id="path22482" />
  </g>
  <g
     id="g22488">
    <rect
       width="46"
       height="46"
       x="-47"
       y="1"
       rx="4"
       transform="matrix(0,-1,1,0,0,0)"
       fill="url(#linearGradient3764)"
       fill-opacity="1"
       id="rect22486" />
  </g>
  <g
     id="g22498">
    <g
       clip-path="url(#clipPath-881576137)"
       id="g22496">
      <g
         opacity="0.1"
         id="g22494">
        <!-- color: #a31919 -->
        <g
           id="g22492">
          <path
             d="m 14.813 16 l -0.457 0.484 c -0.324 0.336 -0.691 0.359 -1.16 0.191 c -0.23 -0.082 -0.488 -0.324 -0.699 -0.121 c -0.199 0.195 0.086 0.352 0.293 0.434 c 0.836 0.34 1.305 0.828 1.109 1.848 c -0.199 1.02 -0.895 0.902 -1.496 1.012 c -0.453 0.078 -0.883 0.074 -1.109 0.285 c -0.449 0.422 -0.031 0.895 0.289 0.863 c 1.469 -0.125 2.695 0.992 2.027 2.453 l -0.723 1.586 l 0.773 0.047 l -2.656 6.05 l 6.609 0.867 l 2.027 -7.207 c 0.137 -0.492 0.789 -0.793 1.305 -0.82 l 3.137 -0.145 c 0.648 -0.027 1.383 -0.609 1.492 -1.25 l 0.191 -1.105 c 0.082 -0.457 0.242 -0.48 1.242 -0.48 l 4.5 0 l 0.5 -0.996 l 4.469 0 c 0.223 -0.004 0.246 -0.148 0.336 -0.348 l 0.191 -0.434 l 0 -2.688 l -0.438 -0.531 l -10.852 0 l -0.23 1 l -3 0 l -0.262 -1 l -7.441 0 m 7.492 4.832 l 1.531 0 c 1.727 0 1.77 2.785 0 2.785 l -1.531 0 c -1.602 0 -1.852 -2.785 0 -2.785 m 0.402 0.086 c -1.773 -0.008 -1.465 2.652 0 2.617 c -0.66 -0.891 -0.691 -1.773 0 -2.617 m 0 0"
             stroke="none"
             fill-rule="evenodd"
             fill-opacity="1"
             fill="#000"
             id="path22490" />
        </g>
      </g>
    </g>
  </g>
  <g
     id="g22508">
    <g
       clip-path="url(#clipPath-894602996)"
       id="g22506">
      <g
         transform="translate(0,-1)"
         id="g22504">
        <!-- color: #a31919 -->
        <g
           id="g22502">
          <path
             d="m 14.813 16 l -0.457 0.484 c -0.324 0.336 -0.691 0.359 -1.16 0.191 c -0.23 -0.082 -0.488 -0.324 -0.699 -0.121 c -0.199 0.195 0.086 0.352 0.293 0.434 c 0.836 0.34 1.305 0.828 1.109 1.848 c -0.199 1.02 -0.895 0.902 -1.496 1.012 c -0.453 0.078 -0.883 0.074 -1.109 0.285 c -0.449 0.422 -0.031 0.895 0.289 0.863 c 1.469 -0.125 2.695 0.992 2.027 2.453 l -0.723 1.586 l 0.773 0.047 l -2.656 6.05 l 6.609 0.867 l 2.027 -7.207 c 0.137 -0.492 0.789 -0.793 1.305 -0.82 l 3.137 -0.145 c 0.648 -0.027 1.383 -0.609 1.492 -1.25 l 0.191 -1.105 c 0.082 -0.457 0.242 -0.48 1.242 -0.48 l 4.5 0 l 0.5 -0.996 l 4.469 0 c 0.223 -0.004 0.246 -0.148 0.336 -0.348 l 0.191 -0.434 l 0 -2.688 l -0.438 -0.531 l -10.852 0 l -0.23 1 l -3 0 l -0.262 -1 l -7.441 0 m 7.492 4.832 l 1.531 0 c 1.727 0 1.77 2.785 0 2.785 l -1.531 0 c -1.602 0 -1.852 -2.785 0 -2.785 m 0.402 0.086 c -1.773 -0.008 -1.465 2.652 0 2.617 c -0.66 -0.891 -0.691 -1.773 0 -2.617 m 0 0"
             fill="#f9f9f9"
             stroke="none"
             fill-rule="evenodd"
             fill-opacity="1"
             id="path22500" />
        </g>
      </g>
    </g>
  </g>
  <g
     id="g22514">
    <g
       transform="translate(0,-1004.3622)"
       id="g22512">
      <path
         d="m 1 1043.36 0 4 c 0 2.216 1.784 4 4 4 l 38 0 c 2.216 0 4 -1.784 4 -4 l 0 -4 c 0 2.216 -1.784 4 -4 4 l -38 0 c -2.216 0 -4 -1.784 -4 -4 z"
         opacity="0.1"
         id="path22510" />
    </g>
  </g>
</svg>
