<svg style="" viewBox="0 0 48 48" xmlns="http://www.w3.org/2000/svg" xmlns:xlink="http://www.w3.org/1999/xlink">
 <defs style="">
  <linearGradient id="linearGradient3764" gradientTransform="translate(-48 .002215)" gradientUnits="userSpaceOnUse" style="" x1="1" x2="47">
   <stop offset="0" style="stop-color:#921616"/>
   <stop offset="1" style="stop-color:#a31919"/>
  </linearGradient>
 </defs>
 <path d="m 1 43 v .25 c 0 2.216 1.784 4 4 4 h 38 c 2.216 0 4 -1.784 4 -4 v -.25 c 0 2.216 -1.784 4 -4 4 h -38 c -2.216 0 -4 -1.784 -4 -4 z m 0 .5 v .5 c 0 2.216 1.784 4 4 4 h 38 c 2.216 0 4 -1.784 4 -4 v -.5 c 0 2.216 -1.784 4 -4 4 h -38 c -2.216 0 -4 -1.784 -4 -4 z" style="opacity:.02"/>
 <path d="m 1 43.25 v .25 c 0 2.216 1.784 4 4 4 h 38 c 2.216 0 4 -1.784 4 -4 v -.25 c 0 2.216 -1.784 4 -4 4 h -38 c -2.216 0 -4 -1.784 -4 -4 z" style="opacity:.05"/>
 <path d="m 1 43 v .25 c 0 2.216 1.784 4 4 4 h 38 c 2.216 0 4 -1.784 4 -4 v -.25 c 0 2.216 -1.784 4 -4 4 h -38 c -2.216 0 -4 -1.784 -4 -4 z" style="opacity:.1"/>
 <rect height="46" rx="4" style="fill:url(#linearGradient3764)" transform="rotate(-90)" width="46" x="-47" y="1"/>
 <path d="m 14.813 16 -.457 .484 c -.324 .336 -.691 .359 -1.16 .191 -.23 -.082 -.488 -.324 -.699 -.121 -.199 .195 .086 .352 .293 .434 .836 .34 1.305 .828 1.109 1.848 -.199 1.02 -.895 .902 -1.496 1.012 -.453 .078 -.883 .074 -1.109 .285 -.449 .422 -.031 .895 .289 .863 1.469 -.125 2.695 .992 2.027 2.453 l -.723 1.586 .773 .047 -2.656 6.05 6.609 .867 2.027 -7.207 c .137 -.492 .789 -.793 1.305 -.82 l 3.137 -.145 c .648 -.027 1.383 -.609 1.492 -1.25 l .191 -1.105 c .082 -.457 .242 -.48 1.242 -.48 h 4.5 l .5 -.996 h 4.469 c .223 -.004 .246 -.148 .336 -.348 l .191 -.434 v -2.688 l -.438 -.531 h -10.852 l -.23 1 h -3 l -.262 -1 h -7.441 m 7.492 4.832 h 1.531 c 1.727 0 1.77 2.785 0 2.785 h -1.531 c -1.602 0 -1.852 -2.785 0 -2.785 m .402 .086 c -1.773 -.008 -1.465 2.652 0 2.617 -.66 -.891 -.691 -1.773 0 -2.617" style="fill-rule:evenodd;opacity:.1"/>
 <path d="m 14.813 15 -.457 .484 c -.324 .336 -.691 .359 -1.16 .191 -.23 -.082 -.488 -.324 -.699 -.121 -.199 .195 .086 .352 .293 .434 .836 .34 1.305 .828 1.109 1.848 -.199 1.02 -.895 .902 -1.496 1.012 -.453 .078 -.883 .074 -1.109 .285 -.449 .422 -.031 .895 .289 .863 1.469 -.125 2.695 .992 2.027 2.453 l -.723 1.586 .773 .047 -2.656 6.05 6.609 .867 2.027 -7.207 c .137 -.492 .789 -.793 1.305 -.82 l 3.137 -.145 c .648 -.027 1.383 -.609 1.492 -1.25 l .191 -1.105 c .082 -.457 .242 -.48 1.242 -.48 h 4.5 l .5 -.996 h 4.469 c .223 -.004 .246 -.148 .336 -.348 l .191 -.434 v -2.688 l -.438 -.531 h -10.852 l -.23 1 h -3 l -.262 -1 h -7.441 m 7.492 4.832 h 1.531 c 1.727 0 1.77 2.785 0 2.785 h -1.531 c -1.602 0 -1.852 -2.785 0 -2.785 m .402 .086 c -1.773 -.008 -1.465 2.652 0 2.617 -.66 -.891 -.691 -1.773 0 -2.617" style="fill:#f9f9f9;fill-rule:evenodd"/>
 <path d="m 1 39 v 4 c 0 2.216 1.784 4 4 4 h 38 c 2.216 0 4 -1.784 4 -4 v -4 c 0 2.216 -1.784 4 -4 4 h -38 c -2.216 0 -4 -1.784 -4 -4 z" style="opacity:.1"/>
</svg>
