<svg version="1.1" viewBox="0 0 48 48" xmlns="http://www.w3.org/2000/svg">
 <defs>
  <linearGradient id="bg" x2="0" y1="1" y2="47" gradientUnits="userSpaceOnUse">
   <stop style="stop-color:#fbc03c" offset="0"/>
   <stop style="stop-color:#fbba29" offset="1"/>
  </linearGradient>
 </defs>
 <path d="m1 43v0.25c0 2.216 1.784 4 4 4h38c2.216 0 4-1.784 4-4v-0.25c0 2.216-1.784 4-4 4h-38c-2.216 0-4-1.784-4-4zm0 0.5v0.5c0 2.216 1.784 4 4 4h38c2.216 0 4-1.784 4-4v-0.5c0 2.216-1.784 4-4 4h-38c-2.216 0-4-1.784-4-4z" style="opacity:.02"/>
 <path d="m1 43.25v0.25c0 2.216 1.784 4 4 4h38c2.216 0 4-1.784 4-4v-0.25c0 2.216-1.784 4-4 4h-38c-2.216 0-4-1.784-4-4z" style="opacity:.05"/>
 <path d="m1 43v0.25c0 2.216 1.784 4 4 4h38c2.216 0 4-1.784 4-4v-0.25c0 2.216-1.784 4-4 4h-38c-2.216 0-4-1.784-4-4z" style="opacity:.1"/>
 <rect x="1" y="1" width="46" height="46" rx="4" style="fill:url(#bg)"/>
 <path d="m1 39v4c0 2.216 1.784 4 4 4h38c2.216 0 4-1.784 4-4v-4c0 2.216-1.784 4-4 4h-38c-2.216 0-4-1.784-4-4z" style="opacity:.1"/>
 <path d="m20.5 12c-1.447 0-2.6625 0.83835-3.3945 1.8633-0.65474 0.91664-0.97656 2.0358-1.0469 3.2266-2.2495 0.23573-4.0586 2.1044-4.0586 4.4102 0 2.2907 1.7712 4.1931 4 4.4492v3.0508c0 2.5661 1.2916 4.6284 2.9473 5.6855 1.6556 1.0572 3.495 1.3145 5.0527 1.3145s3.3971-0.25724 5.0527-1.3145c1.6556-1.0572 2.9473-3.1194 2.9473-5.6855v-3.0508c2.2288-0.25609 4-2.1585 4-4.4492 0-2.3057-1.8091-4.1744-4.0586-4.4102-0.07029-1.1907-0.3921-2.3099-1.0469-3.2266-0.73208-1.0249-1.9476-1.8633-3.3945-1.8633s-2.6625 0.83835-3.3945 1.8633c-0.04677 0.06548-0.06163 0.14944-0.10547 0.2168-0.04384-0.06736-0.0587-0.15132-0.10547-0.2168-0.73208-1.0249-1.9476-1.8633-3.3945-1.8633z" style="opacity:.1"/>
 <path d="m20.5 11c-1.447 0-2.6625 0.83835-3.3945 1.8633-0.65474 0.91664-0.97656 2.0358-1.0469 3.2266-2.2495 0.23573-4.0586 2.1044-4.0586 4.4102 0 2.2907 1.7712 4.1931 4 4.4492v3.0508c0 2.5661 1.2916 4.6284 2.9473 5.6855 1.6556 1.0572 3.495 1.3145 5.0527 1.3145s3.3971-0.25724 5.0527-1.3145c1.6556-1.0572 2.9473-3.1194 2.9473-5.6855v-3.0508c2.2288-0.25609 4-2.1585 4-4.4492 0-2.3057-1.8091-4.1744-4.0586-4.4102-0.07029-1.1907-0.3921-2.3099-1.0469-3.2266-0.73208-1.0249-1.9476-1.8633-3.3945-1.8633s-2.6625 0.83835-3.3945 1.8633c-0.04677 0.06548-0.061629 0.14944-0.10547 0.2168-0.04384-0.06736-0.058699-0.15132-0.10547-0.2168-0.73208-1.0249-1.9476-1.8633-3.3945-1.8633z" style="fill:#5f0f12"/>
 <path d="m20.5 13a2.5 2.5 0 0 0-2.5 2.5 2.5 2.5 0 0 0 2.5 2.5 2.5 2.5 0 0 0 2.5-2.5 2.5 2.5 0 0 0-2.5-2.5zm7 0a2.5 2.5 0 0 0-2.5 2.5 2.5 2.5 0 0 0 2.5 2.5 2.5 2.5 0 0 0 2.5-2.5 2.5 2.5 0 0 0-2.5-2.5zm-11 5c-1.3807 0-2.5 1.1193-2.5 2.5s1.1193 2.5 2.5 2.5 2.5-1.1193 2.5-2.5-1.1193-2.5-2.5-2.5zm15 0c-1.3807 0-2.5 1.1193-2.5 2.5s1.1193 2.5 2.5 2.5 2.5-1.1193 2.5-2.5-1.1193-2.5-2.5-2.5zm-7.5 2c-3.3333 0-6 5-6 8 0 4 3.3966 5 6 5s6-1 6-5c0-3-2.6667-8-6-8z" style="fill:#feb0b0;paint-order:stroke fill markers"/>
</svg>
