<?xml version="1.0" encoding="UTF-8" standalone="no"?>
<svg
   xmlns:dc="http://purl.org/dc/elements/1.1/"
   xmlns:cc="http://creativecommons.org/ns#"
   xmlns:rdf="http://www.w3.org/1999/02/22-rdf-syntax-ns#"
   xmlns:svg="http://www.w3.org/2000/svg"
   xmlns="http://www.w3.org/2000/svg"
   xmlns:sodipodi="http://sodipodi.sourceforge.net/DTD/sodipodi-0.dtd"
   xmlns:inkscape="http://www.inkscape.org/namespaces/inkscape"
   viewBox="0 0 48 48"
   version="1.1"
   id="svg22812"
   sodipodi:docname="nepomuk.svg">
  <metadata
     id="metadata22816">
    <rdf:RDF>
      <cc:Work
         rdf:about="">
        <dc:format>image/svg+xml</dc:format>
        <dc:type
           rdf:resource="http://purl.org/dc/dcmitype/StillImage" />
      </cc:Work>
    </rdf:RDF>
  </metadata>
  <sodipodi:namedview
     pagecolor="#ffffff"
     bordercolor="#666666"
     borderopacity="1"
     objecttolerance="10"
     gridtolerance="10"
     guidetolerance="10"
     inkscape:pageopacity="0"
     inkscape:pageshadow="2"
     inkscape:window-width="640"
     inkscape:window-height="480"
     id="namedview22814" />
  <defs
     id="defs22732">
    <linearGradient
       id="linearGradient3764"
       x1="1"
       x2="47"
       gradientUnits="userSpaceOnUse"
       gradientTransform="translate(-48.000001,0.00221467)">
      <stop
         stop-color="#3d3d3d"
         stop-opacity="1"
         id="stop22717" />
      <stop
         offset="1"
         stop-color="#474747"
         stop-opacity="1"
         id="stop22719" />
    </linearGradient>
    <clipPath
       id="clipPath-026107198">
      <g
         transform="translate(0,-1004.3622)"
         id="g22724">
        <rect
           rx="4"
           y="1005.36"
           x="1"
           height="46"
           width="46"
           fill="#1890d0"
           id="rect22722" />
      </g>
    </clipPath>
    <clipPath
       id="clipPath-039507454">
      <g
         transform="translate(0,-1004.3622)"
         id="g22729">
        <rect
           rx="4"
           y="1005.36"
           x="1"
           height="46"
           width="46"
           fill="#1890d0"
           id="rect22727" />
      </g>
    </clipPath>
  </defs>
  <g
     id="g22740">
    <path
       d="m 1 43 l 0 0.25 c 0 2.216 1.784 4 4 4 l 38 0 c 2.216 0 4 -1.784 4 -4 l 0 -0.25 c 0 2.216 -1.784 4 -4 4 l -38 0 c -2.216 0 -4 -1.784 -4 -4 z m 0 0.5 l 0 0.5 c 0 2.216 1.784 4 4 4 l 38 0 c 2.216 0 4 -1.784 4 -4 l 0 -0.5 c 0 2.216 -1.784 4 -4 4 l -38 0 c -2.216 0 -4 -1.784 -4 -4 z"
       opacity="0.02"
       id="path22734" />
    <path
       d="m 1 43.25 l 0 0.25 c 0 2.216 1.784 4 4 4 l 38 0 c 2.216 0 4 -1.784 4 -4 l 0 -0.25 c 0 2.216 -1.784 4 -4 4 l -38 0 c -2.216 0 -4 -1.784 -4 -4 z"
       opacity="0.05"
       id="path22736" />
    <path
       d="m 1 43 l 0 0.25 c 0 2.216 1.784 4 4 4 l 38 0 c 2.216 0 4 -1.784 4 -4 l 0 -0.25 c 0 2.216 -1.784 4 -4 4 l -38 0 c -2.216 0 -4 -1.784 -4 -4 z"
       opacity="0.1"
       id="path22738" />
  </g>
  <g
     id="g22744">
    <rect
       width="46"
       height="46"
       x="-47"
       y="1"
       rx="4"
       transform="matrix(0,-1,1,0,0,0)"
       fill="url(#linearGradient3764)"
       fill-opacity="1"
       id="rect22742" />
  </g>
  <g
     id="g22774">
    <g
       clip-path="url(#clipPath-026107198)"
       id="g22772">
      <g
         opacity="0.1"
         id="g22770">
        <!-- color: #474747 -->
        <g
           id="g22768">
          <path
             d="m 35 30 c 0 3.867 -3.133 7 -7 7 c -3.867 0 -7 -3.133 -7 -7 c 0 -3.867 3.133 -7 7 -7 c 3.867 0 7 3.133 7 7 m 0 0"
             stroke="none"
             fill-rule="nonzero"
             fill-opacity="1"
             fill="#000"
             id="path22746" />
          <path
             d="m 26 14 c 0 2.762 -2.238 5 -5 5 c -2.762 0 -5 -2.238 -5 -5 c 0 -2.762 2.238 -5 5 -5 c 2.762 0 5 2.238 5 5 m 0 0"
             stroke="none"
             fill-rule="nonzero"
             fill-opacity="1"
             fill="#000"
             id="path22748" />
          <path
             d="m 37 16 c 0 1.656 -1.344 3 -3 3 c -1.656 0 -3 -1.344 -3 -3 c 0 -1.656 1.344 -3 3 -3 c 1.656 0 3 1.344 3 3 m 0 0"
             stroke="none"
             fill-rule="nonzero"
             fill-opacity="1"
             fill="#000"
             id="path22750" />
          <path
             d="m 18 28.5 c 0 1.934 -1.566 3.5 -3.5 3.5 c -1.934 0 -3.5 -1.566 -3.5 -3.5 c 0 -1.934 1.566 -3.5 3.5 -3.5 c 1.934 0 3.5 1.566 3.5 3.5 m 0 0"
             stroke="none"
             fill-rule="nonzero"
             fill-opacity="1"
             fill="#000"
             id="path22752" />
          <path
             d="m 29.21 24.645 l 4.164 -8.324 l 1.391 0.926 l -4.164 8.02 m -1.391 -0.617"
             stroke="none"
             fill-rule="nonzero"
             fill-opacity="1"
             fill="#000"
             id="path22754" />
          <path
             d="m 20.883 16.32 l 4.625 10.328 l 2.465 -1.539 l -5.238 -9.715 m -1.852 0.926"
             stroke="none"
             fill-rule="nonzero"
             fill-opacity="1"
             fill="#000"
             id="path22756" />
          <path
             d="m 22.734 28.04 l -6.938 -0.309 l 0 1.695 l 7.086 0.156 m -0.148 -1.543"
             stroke="none"
             fill-rule="nonzero"
             fill-opacity="1"
             fill="#000"
             id="path22758" />
          <path
             d="m 33 30 c 0 2.762 -2.238 5 -5 5 c -2.762 0 -5 -2.238 -5 -5 c 0 -2.762 2.238 -5 5 -5 c 2.762 0 5 2.238 5 5 m 0 0"
             stroke="none"
             fill-rule="nonzero"
             fill-opacity="1"
             fill="#000"
             id="path22760" />
          <path
             d="m 24 14 c 0 1.656 -1.344 3 -3 3 c -1.656 0 -3 -1.344 -3 -3 c 0 -1.656 1.344 -3 3 -3 c 1.656 0 3 1.344 3 3 m 0 0"
             stroke="none"
             fill-rule="nonzero"
             fill-opacity="1"
             fill="#000"
             id="path22762" />
          <path
             d="m 35.5 16 c 0 0.828 -0.672 1.5 -1.5 1.5 c -0.828 0 -1.5 -0.672 -1.5 -1.5 c 0 -0.828 0.672 -1.5 1.5 -1.5 c 0.828 0 1.5 0.672 1.5 1.5 m 0 0"
             stroke="none"
             fill-rule="nonzero"
             fill-opacity="1"
             fill="#000"
             id="path22764" />
          <path
             d="m 16.5 28.5 c 0 1.105 -0.895 2 -2 2 c -1.105 0 -2 -0.895 -2 -2 c 0 -1.105 0.895 -2 2 -2 c 1.105 0 2 0.895 2 2 m 0 0"
             stroke="none"
             fill-rule="nonzero"
             fill-opacity="1"
             fill="#000"
             id="path22766" />
        </g>
      </g>
    </g>
  </g>
  <g
     id="g22804">
    <g
       clip-path="url(#clipPath-039507454)"
       id="g22802">
      <g
         transform="translate(0,-1)"
         id="g22800">
        <!-- color: #474747 -->
        <g
           id="g22798">
          <path
             d="m 35 30 c 0 3.867 -3.133 7 -7 7 c -3.867 0 -7 -3.133 -7 -7 c 0 -3.867 3.133 -7 7 -7 c 3.867 0 7 3.133 7 7 m 0 0"
             fill="#dedede"
             stroke="none"
             fill-rule="nonzero"
             fill-opacity="1"
             id="path22776" />
          <path
             d="m 26 14 c 0 2.762 -2.238 5 -5 5 c -2.762 0 -5 -2.238 -5 -5 c 0 -2.762 2.238 -5 5 -5 c 2.762 0 5 2.238 5 5 m 0 0"
             fill="#dedede"
             stroke="none"
             fill-rule="nonzero"
             fill-opacity="1"
             id="path22778" />
          <path
             d="m 37 16 c 0 1.656 -1.344 3 -3 3 c -1.656 0 -3 -1.344 -3 -3 c 0 -1.656 1.344 -3 3 -3 c 1.656 0 3 1.344 3 3 m 0 0"
             fill="#dedede"
             stroke="none"
             fill-rule="nonzero"
             fill-opacity="1"
             id="path22780" />
          <path
             d="m 18 28.5 c 0 1.934 -1.566 3.5 -3.5 3.5 c -1.934 0 -3.5 -1.566 -3.5 -3.5 c 0 -1.934 1.566 -3.5 3.5 -3.5 c 1.934 0 3.5 1.566 3.5 3.5 m 0 0"
             fill="#dedede"
             stroke="none"
             fill-rule="nonzero"
             fill-opacity="1"
             id="path22782" />
          <path
             d="m 29.21 24.645 l 4.164 -8.324 l 1.391 0.926 l -4.164 8.02 m -1.391 -0.617"
             fill="#dedede"
             stroke="none"
             fill-rule="nonzero"
             fill-opacity="1"
             id="path22784" />
          <path
             d="m 20.883 16.32 l 4.625 10.328 l 2.465 -1.539 l -5.238 -9.715 m -1.852 0.926"
             fill="#dedede"
             stroke="none"
             fill-rule="nonzero"
             fill-opacity="1"
             id="path22786" />
          <path
             d="m 22.734 28.04 l -6.938 -0.309 l 0 1.695 l 7.086 0.156 m -0.148 -1.543"
             fill="#dedede"
             stroke="none"
             fill-rule="nonzero"
             fill-opacity="1"
             id="path22788" />
          <path
             d="m 33 30 c 0 2.762 -2.238 5 -5 5 c -2.762 0 -5 -2.238 -5 -5 c 0 -2.762 2.238 -5 5 -5 c 2.762 0 5 2.238 5 5 m 0 0"
             fill="#0395c8"
             stroke="none"
             fill-rule="nonzero"
             fill-opacity="1"
             id="path22790" />
          <path
             d="m 24 14 c 0 1.656 -1.344 3 -3 3 c -1.656 0 -3 -1.344 -3 -3 c 0 -1.656 1.344 -3 3 -3 c 1.656 0 3 1.344 3 3 m 0 0"
             fill="#de3de5"
             stroke="none"
             fill-rule="nonzero"
             fill-opacity="1"
             id="path22792" />
          <path
             d="m 35.5 16 c 0 0.828 -0.672 1.5 -1.5 1.5 c -0.828 0 -1.5 -0.672 -1.5 -1.5 c 0 -0.828 0.672 -1.5 1.5 -1.5 c 0.828 0 1.5 0.672 1.5 1.5 m 0 0"
             fill="#eb9c00"
             stroke="none"
             fill-rule="nonzero"
             fill-opacity="1"
             id="path22794" />
          <path
             d="m 16.5 28.5 c 0 1.105 -0.895 2 -2 2 c -1.105 0 -2 -0.895 -2 -2 c 0 -1.105 0.895 -2 2 -2 c 1.105 0 2 0.895 2 2 m 0 0"
             fill="#2db200"
             stroke="none"
             fill-rule="nonzero"
             fill-opacity="1"
             id="path22796" />
        </g>
      </g>
    </g>
  </g>
  <g
     id="g22810">
    <g
       transform="translate(0,-1004.3622)"
       id="g22808">
      <path
         d="m 1 1043.36 0 4 c 0 2.216 1.784 4 4 4 l 38 0 c 2.216 0 4 -1.784 4 -4 l 0 -4 c 0 2.216 -1.784 4 -4 4 l -38 0 c -2.216 0 -4 -1.784 -4 -4 z"
         opacity="0.1"
         id="path22806" />
    </g>
  </g>
</svg>
