<svg width="48" height="48" viewBox="0 0 48 48.000001" xmlns="http://www.w3.org/2000/svg">
  <defs>
    <linearGradient id="a" x1="-47" x2="-1" gradientUnits="userSpaceOnUse">
      <stop offset="0" stop-color="#373534"/>
      <stop offset="1" stop-color="#423f3e"/>
    </linearGradient>
  </defs>
  <path d="M1 43v.25c0 2.216 1.784 4 4 4h38c2.216 0 4-1.784 4-4V43c0 2.216-1.784 4-4 4H5c-2.216 0-4-1.784-4-4zm0 .5v.5c0 2.216 1.784 4 4 4h38c2.216 0 4-1.784 4-4v-.5c0 2.216-1.784 4-4 4H5c-2.216 0-4-1.784-4-4z" opacity=".02"/>
  <path d="M1 43.25v.25c0 2.216 1.784 4 4 4h38c2.216 0 4-1.784 4-4v-.25c0 2.216-1.784 4-4 4H5c-2.216 0-4-1.784-4-4z" opacity=".05"/>
  <path d="M1 43v.25c0 2.216 1.784 4 4 4h38c2.216 0 4-1.784 4-4V43c0 2.216-1.784 4-4 4H5c-2.216 0-4-1.784-4-4z" opacity=".1"/>
  <rect transform="rotate(-90)" x="-47" y="1" width="46" height="46" rx="4" fill="url(#a)"/>
  <path d="M1 39v4c0 2.216 1.784 4 4 4h38c2.216 0 4-1.784 4-4v-4c0 2.216-1.784 4-4 4H5c-2.216 0-4-1.784-4-4zM24 11l-11 6v14l11 6 11-6V17z" opacity=".1"/>
  <path d="M24 10l-11 6v14l11 6 11-6V16z" fill="#04983c"/>
  <g opacity=".1">
    <path d="M29.522 17c-.803.012-1.524.67-1.524 1.471v7.53l-8.517-8.556c-.913-.916-2.483-.266-2.483 1.026v11.056c0 1.961 3 1.961 3 0v-7.53l8.517 8.555c.913.917 2.483.267 2.483-1.025V18.47a1.46 1.46 0 0 0-1.476-1.47z" style="isolation:auto;mix-blend-mode:normal" color="#000" white-space="normal"/>
  </g>
  <g fill="#f2f2f2">
    <path d="M29.522 16c-.803.012-1.524.67-1.524 1.47V25l-8.517-8.555c-.913-.917-2.483-.266-2.483 1.025v11.056c0 1.962 3 1.962 3 0v-7.529l8.517 8.555c.913.916 2.483.266 2.483-1.026V17.47A1.46 1.46 0 0 0 29.522 16z" style="isolation:auto;mix-blend-mode:normal" color="#000" white-space="normal"/>
  </g>
</svg>
