<svg version="1.1" viewBox="0 0 48 48" xmlns="http://www.w3.org/2000/svg">
 <defs>
  <linearGradient id="bg" x2="0" y1="1" y2="47" gradientUnits="userSpaceOnUse">
   <stop style="stop-color:#78a8e3" offset="0"/>
   <stop style="stop-color:#669cdf" offset="1"/>
  </linearGradient>
 </defs>
 <path d="m1 43v0.25c0 2.22 1.78 4 4 4h38c2.22 0 4-1.78 4-4v-0.25c0 2.22-1.78 4-4 4h-38c-2.22 0-4-1.78-4-4zm0 0.5v0.5c0 2.22 1.78 4 4 4h38c2.22 0 4-1.78 4-4v-0.5c0 2.22-1.78 4-4 4h-38c-2.22 0-4-1.78-4-4z" style="opacity:.02"/>
 <path d="m1 43.2v0.25c0 2.22 1.78 4 4 4h38c2.22 0 4-1.78 4-4v-0.25c0 2.22-1.78 4-4 4h-38c-2.22 0-4-1.78-4-4z" style="opacity:.05"/>
 <path d="m1 43v0.25c0 2.22 1.78 4 4 4h38c2.22 0 4-1.78 4-4v-0.25c0 2.22-1.78 4-4 4h-38c-2.22 0-4-1.78-4-4z" style="opacity:.1"/>
 <rect x="1" y="1" width="46" height="46" rx="4" style="fill:url(#bg)"/>
 <path d="m1 39v4c0 2.22 1.78 4 4 4h38c2.22 0 4-1.78 4-4v-4c0 2.22-1.78 4-4 4h-38c-2.22 0-4-1.78-4-4z" style="opacity:.1"/>
 <path d="m13 13v22c0 1.11 0.892 2 2 2h18c1.11 0 2-0.892 2-2v-16z" style="opacity:.1"/>
 <path d="m15 10h12l3 5 5 3v16c0 1.11-0.892 2-2 2h-18c-1.11 0-2-0.892-2-2v-22c0-1.11 0.892-2 2-2z" style="fill:#545454"/>
 <path d="m27 10v6c0 1.11 0.892 2 2 2h6z" style="fill:#424242"/>
 <path d="m16 12c-0.554 0-1 0.446-1 1s0.446 1 1 1h8c0.554 0 1-0.446 1-1s-0.446-1-1-1zm0 3c-0.554 0-1 0.446-1 1s0.446 1 1 1h8c0.554 0 1-0.446 1-1s-0.446-1-1-1zm0 4c-0.554 0-1 0.446-1 1v3c0 0.554 0.446 1 1 1h3c0.554 0 1-0.446 1-1v-3c0-0.554-0.446-1-1-1zm7 0c-0.554 0-1 0.446-1 1s0.446 1 1 1h9c0.554 0 1-0.446 1-1s-0.446-1-1-1zm0 3c-0.554 0-1 0.446-1 1s0.446 1 1 1h9c0.554 0 1-0.446 1-1s-0.446-1-1-1zm-7 4c-0.554 0-1 0.446-1 1v6c0 0.554 0.446 1 1 1s1-0.446 1-1v-1c1.66 0 3-1.34 3-3s-1.34-3-3-3zm6 0c-0.554 0-1 0.446-1 1v6c0 0.554 0.446 1 1 1h1c2.22 0 4-1.78 4-4s-1.78-4-4-4zm7 0c-0.554 0-1 0.446-1 1v6c0 0.554 0.446 1 1 1s1-0.446 1-1v-2h1c0.554 0 1-0.446 1-1s-0.446-1-1-1h-1v-1h2c0.554 0 1-0.446 1-1s-0.446-1-1-1zm-12 2c0.554 0 1 0.446 1 1s-0.446 1-1 1zm6 0c1.11 0 2 0.892 2 2s-0.892 2-2 2z" style="fill:#ef7d80"/>
</svg>
