<svg style="" viewBox="0 0 48 48" xmlns="http://www.w3.org/2000/svg" xmlns:xlink="http://www.w3.org/1999/xlink">
 <defs style="">
  <linearGradient id="linearGradient3764" gradientTransform="translate(-48 .002215)" gradientUnits="userSpaceOnUse" style="" x1="1" x2="47">
   <stop offset="0" style="stop-color:#e4e4e4"/>
   <stop offset="1" style="stop-color:#eee"/>
  </linearGradient>
  <linearGradient id="linear0" gradientTransform="matrix(.15777 0 0 .15 1.2814 .45)" gradientUnits="userSpaceOnUse" style="" x2="0" y1="37" y2="272">
   <stop offset="0" style="stop-color:#1295de"/>
   <stop offset="1" style="stop-color:#4b52b9"/>
  </linearGradient>
 </defs>
 <path d="m 1 43 v .25 c 0 2.216 1.784 4 4 4 h 38 c 2.216 0 4 -1.784 4 -4 v -.25 c 0 2.216 -1.784 4 -4 4 h -38 c -2.216 0 -4 -1.784 -4 -4 z m 0 .5 v .5 c 0 2.216 1.784 4 4 4 h 38 c 2.216 0 4 -1.784 4 -4 v -.5 c 0 2.216 -1.784 4 -4 4 h -38 c -2.216 0 -4 -1.784 -4 -4 z" style="opacity:.02"/>
 <path d="m 1 43.25 v .25 c 0 2.216 1.784 4 4 4 h 38 c 2.216 0 4 -1.784 4 -4 v -.25 c 0 2.216 -1.784 4 -4 4 h -38 c -2.216 0 -4 -1.784 -4 -4 z" style="opacity:.05"/>
 <path d="m 1 43 v .25 c 0 2.216 1.784 4 4 4 h 38 c 2.216 0 4 -1.784 4 -4 v -.25 c 0 2.216 -1.784 4 -4 4 h -38 c -2.216 0 -4 -1.784 -4 -4 z" style="opacity:.1"/>
 <rect height="46" rx="4" style="fill:url(#linearGradient3764)" transform="rotate(-90)" width="46" x="-47" y="1"/>
 <path d="m 22.57 26.523 c .082 -.262 -.086 -.52 -.375 -.52 h -4.91 c -.289 0 -.352 -.238 -.164 -.449 l 10.484 -13.414 c .184 -.211 .254 -.176 .148 .082 l -2.305 9.371 c -.102 .254 .047 .41 .336 .41 h 4.922 c .289 0 .379 .23 .203 .449 l -10.512 13.406 c -.176 .223 -.254 .184 -.168 -.082" style="fill-rule:evenodd;opacity:.1"/>
 <path d="m 22.57 26.523 c .082 -.262 -.086 -.52 -.375 -.52 h -4.91 c -.289 0 -.352 -.238 -.164 -.449 l 10.484 -13.414 c .184 -.211 .254 -.176 .148 .082 l -2.305 9.371 c -.102 .254 .047 .41 .336 .41 h 4.922 c .289 0 .379 .23 .203 .449 l -10.512 13.406 c -.176 .223 -.254 .184 -.168 -.082" style="fill-rule:evenodd;fill:url(#linear0)" transform="translate(0 -1)"/>
 <path d="m 1 39 v 4 c 0 2.216 1.784 4 4 4 h 38 c 2.216 0 4 -1.784 4 -4 v -4 c 0 2.216 -1.784 4 -4 4 h -38 c -2.216 0 -4 -1.784 -4 -4 z" style="opacity:.1"/>
</svg>
