<svg version="1.1" viewBox="0 0 48 48" xmlns="http://www.w3.org/2000/svg">
 <defs>
  <linearGradient id="bg" x2="0" y1="1" y2="47" gradientUnits="userSpaceOnUse">
   <stop style="stop-color:#cd285d" offset="0"/>
   <stop style="stop-color:#bc2455" offset="1"/>
  </linearGradient>
 </defs>
 <path d="m1 43v0.25c0 2.216 1.784 4 4 4h38c2.216 0 4-1.784 4-4v-0.25c0 2.216-1.784 4-4 4h-38c-2.216 0-4-1.784-4-4zm0 0.5v0.5c0 2.216 1.784 4 4 4h38c2.216 0 4-1.784 4-4v-0.5c0 2.216-1.784 4-4 4h-38c-2.216 0-4-1.784-4-4z" style="opacity:.02"/>
 <path d="m1 43.25v0.25c0 2.216 1.784 4 4 4h38c2.216 0 4-1.784 4-4v-0.25c0 2.216-1.784 4-4 4h-38c-2.216 0-4-1.784-4-4z" style="opacity:.05"/>
 <path d="m1 43v0.25c0 2.216 1.784 4 4 4h38c2.216 0 4-1.784 4-4v-0.25c0 2.216-1.784 4-4 4h-38c-2.216 0-4-1.784-4-4z" style="opacity:.1"/>
 <rect x="1" y="1" width="46" height="46" rx="4" style="fill:url(#bg)"/>
 <path d="m1 39v4c0 2.216 1.784 4 4 4h38c2.216 0 4-1.784 4-4v-4c0 2.216-1.784 4-4 4h-38c-2.216 0-4-1.784-4-4z" style="opacity:.1"/>
 <path d="m12 15v17l4.5 5 4.5-5v-4l6.5859 8.416c0.31475 0.40222 0.86061 0.58398 1.4141 0.58398h5c1.108 0 2-0.892 2-2v-20l-9 7z" style="opacity:.1"/>
 <path d="m20 15 8 9v7l-8.2712-9z" style="fill:#f5b746"/>
 <path d="m14.699 33 1.8008 2 1.8008-2-2.3008-1z" style="fill:#424242"/>
 <path d="m15 28-1 2 1.5 3h2l1.5-3-1-2h-3z" style="fill:#f8e2c8"/>
 <path d="m12 28v2l2.6992 3h1.2012l-0.90039-3v-2h-3z" style="fill:#fdf3e3"/>
 <path d="m14 11c-1.108 0-2 0.892-2 2v17c0-0.82843 0.67157-1.5 1.5-1.5s1.5 0.67157 1.5 1.5l1-19z" style="fill:#f9cb74"/>
 <path d="m30 17.492-3 0.50781v11l-6.5-8 0.5 5 6.5859 8.416c0.36142 0.36087 0.86061 0.58398 1.4141 0.58398h2z" style="fill:#f9cb74"/>
 <path d="m18 28v2l-0.90039 3h1.2012l2.6992-3v-2h-3z" style="fill-opacity:.99608;fill:#ead1b8"/>
 <path d="m17 11 1 19c0-0.82843 0.67157-1.5 1.5-1.5s1.5 0.67157 1.5 1.5v-13l6 7.3848v-4.3848l-6.584-8.416c-0.36137-0.36087-0.86256-0.58398-1.416-0.58398h-2z" style="fill:#f8a724"/>
 <path d="m34 35h-2l1-17.525 3 0.52542v15c0 1.108-0.892 2-2 2z" style="fill:#f8a724"/>
 <path d="m15 11v19a1.5 1.5 0 0 1 1.5-1.5 1.5 1.5 0 0 1 1.5 1.5v-19z" style="fill:#f5b746"/>
 <rect x="30" y="16" width="3" height="19" style="fill:#f5b746"/>
 <path d="m29 11h5c1.108 0 2 0.892 2 2v3l-4.2712 1-4.7288-1v-3c0-1.108 0.892-2 2-2z" style="fill:#f78978"/>
 <rect x="27" y="16" width="9" height="2" style="fill:#f2f2f2"/>
</svg>
