<svg version="1.1" viewBox="0 0 48 48" xmlns="http://www.w3.org/2000/svg">
 <defs>
  <linearGradient id="bg" x2="0" y1="1" y2="47" gradientUnits="userSpaceOnUse">
   <stop style="stop-color:#455e87" offset="0"/>
   <stop style="stop-color:#3e5479" offset="1"/>
  </linearGradient>
 </defs>
 <path d="m1 43v0.25c0 2.216 1.784 4 4 4h38c2.216 0 4-1.784 4-4v-0.25c0 2.216-1.784 4-4 4h-38c-2.216 0-4-1.784-4-4zm0 0.5v0.5c0 2.216 1.784 4 4 4h38c2.216 0 4-1.784 4-4v-0.5c0 2.216-1.784 4-4 4h-38c-2.216 0-4-1.784-4-4z" style="opacity:.02"/>
 <path d="m1 43.25v0.25c0 2.216 1.784 4 4 4h38c2.216 0 4-1.784 4-4v-0.25c0 2.216-1.784 4-4 4h-38c-2.216 0-4-1.784-4-4z" style="opacity:.05"/>
 <path d="m1 43v0.25c0 2.216 1.784 4 4 4h38c2.216 0 4-1.784 4-4v-0.25c0 2.216-1.784 4-4 4h-38c-2.216 0-4-1.784-4-4z" style="opacity:.1"/>
 <rect x="1" y="1" width="46" height="46" rx="4" style="fill:url(#bg)"/>
 <path d="m1 39v4c0 2.216 1.784 4 4 4h38c2.216 0 4-1.784 4-4v-4c0 2.216-1.784 4-4 4h-38c-2.216 0-4-1.784-4-4z" style="opacity:.1"/>
 <path d="m11 15v18c0 1.108 0.892 2 2 2h4c1.108 0 2-0.892 2-2v-18zm9 0v18c0 1.108 0.892 2 2 2h4c1.108 0 2-0.892 2-2v-18zm9 0v18c0 1.108 0.892 2 2 2h4c1.108 0 2-0.892 2-2v-18z" style="opacity:.1"/>
 <path d="m13 12c-1.108 0-2 0.892-2 2v18c0 1.108 0.892 2 2 2h4c1.108 0 2-0.892 2-2v-18c0-1.108-0.892-2-2-2h-4zm9 0c-1.108 0-2 0.892-2 2v18c0 1.108 0.892 2 2 2h4c1.108 0 2-0.892 2-2v-18c0-1.108-0.892-2-2-2h-4zm9 0c-1.108 0-2 0.892-2 2v18c0 1.108 0.892 2 2 2h4c1.108 0 2-0.892 2-2v-18c0-1.108-0.892-2-2-2h-4z" style="fill:#7f96bd"/>
 <path d="m14 14c-0.554 0-1 0.446-1 1v7c0 0.554 0.446 1 1 1h2c0.554 0 1-0.446 1-1v-7c0-0.554-0.446-1-1-1h-2zm9 0c-0.554 0-1 0.446-1 1v7c0 0.554 0.446 1 1 1h2c0.554 0 1-0.446 1-1v-7c0-0.554-0.446-1-1-1h-2zm9 0c-0.554 0-1 0.446-1 1v7c0 0.554 0.446 1 1 1h2c0.554 0 1-0.446 1-1v-7c0-0.554-0.446-1-1-1h-2zm-17 12a2 2 0 0 0-2 2 2 2 0 0 0 2 2 2 2 0 0 0 2-2 2 2 0 0 0-2-2zm9 0a2 2 0 0 0-2 2 2 2 0 0 0 2 2 2 2 0 0 0 2-2 2 2 0 0 0-2-2zm9 0a2 2 0 0 0-2 2 2 2 0 0 0 2 2 2 2 0 0 0 2-2 2 2 0 0 0-2-2z" style="fill:#f9f9f9"/>
</svg>
