<svg version="1.1" viewBox="0 0 48 48" xmlns="http://www.w3.org/2000/svg">
 <defs>
  <linearGradient id="bg" x1="1" x2="47" gradientTransform="translate(-48 .00221)" gradientUnits="userSpaceOnUse">
   <stop style="stop-color:#dfe6f1" offset="0"/>
   <stop style="stop-color:#edf1f7" offset="1"/>
  </linearGradient>
 </defs>
 <path d="m1 43v0.25c0 2.216 1.784 4 4 4h38c2.216 0 4-1.784 4-4v-0.25c0 2.216-1.784 4-4 4h-38c-2.216 0-4-1.784-4-4zm0 0.5v0.5c0 2.216 1.784 4 4 4h38c2.216 0 4-1.784 4-4v-0.5c0 2.216-1.784 4-4 4h-38c-2.216 0-4-1.784-4-4z" style="opacity:.02"/>
 <path d="m1 43.25v0.25c0 2.216 1.784 4 4 4h38c2.216 0 4-1.784 4-4v-0.25c0 2.216-1.784 4-4 4h-38c-2.216 0-4-1.784-4-4z" style="opacity:.05"/>
 <path d="m1 43v0.25c0 2.216 1.784 4 4 4h38c2.216 0 4-1.784 4-4v-0.25c0 2.216-1.784 4-4 4h-38c-2.216 0-4-1.784-4-4z" style="opacity:.1"/>
 <rect transform="rotate(-90)" x="-47" y="1" width="46" height="46" rx="4" style="fill:url(#bg)"/>
 <g transform="translate(0,-1004.4)">
  <path d="m1 1043.4v4c0 2.216 1.784 4 4 4h38c2.216 0 4-1.784 4-4v-4c0 2.216-1.784 4-4 4h-38c-2.216 0-4-1.784-4-4z" style="opacity:.1"/>
 </g>
 <g transform="matrix(1.0833 0 0 1.0833 9.9167 -241.25)">
  <path d="m13 231.92-12 6.9231v14.308l3.6924 2.7692v-14.077l8.3077-4.8462 8.3077 4.8462v14.077l3.6924-2.7692v-14.308zm0 9.2308-4.6154 2.7692v4.7993l4.6154 3 4.6154-3v-4.7993z" style="opacity:.1"/>
  <path d="m1.9231 238.38 11.077-5.5385 11.077 5.5385-0.92308 15.231-1.8462 1.3846v-14.077l-8.3077-4.8462-8.3077 4.8462v14.077l-1.8462-1.3846z" style="fill:#a3b7d6"/>
  <path d="m8.3846 243 4.6154 5.3538 4.6154-5.3538-4.6154-2.7692z" style="fill:#a3b7d6"/>
  <path d="m8.3846 243v4.8l4.6154 3 4.6154-3v-4.8l-4.6154 2.7692z" style="fill:#5d779b"/>
  <path transform="matrix(.92308 0 0 .92308 -26.692 24.231)" d="m43 224-13 7.5v15.5l2 1.5v-15.5l11-6.5 11 6.5v15.5l2-1.5v-15.5z" style="fill:#5d779b"/>
 </g>
</svg>
