<svg version="1.1" viewBox="0 0 48 48" xmlns="http://www.w3.org/2000/svg">
 <defs>
  <linearGradient id="linearGradient3764" x1="1" x2="47" gradientTransform="translate(-48 .0022147)" gradientUnits="userSpaceOnUse">
   <stop stop-color="#e3252a" offset="0"/>
   <stop stop-color="#e5373b" offset="1"/>
  </linearGradient>
 </defs>
 <path d="m1 43v0.25c0 2.216 1.784 4 4 4h38c2.216 0 4-1.784 4-4v-0.25c0 2.216-1.784 4-4 4h-38c-2.216 0-4-1.784-4-4zm0 0.5v0.5c0 2.216 1.784 4 4 4h38c2.216 0 4-1.784 4-4v-0.5c0 2.216-1.784 4-4 4h-38c-2.216 0-4-1.784-4-4z" opacity=".02"/>
 <path d="m1 43.25v0.25c0 2.216 1.784 4 4 4h38c2.216 0 4-1.784 4-4v-0.25c0 2.216-1.784 4-4 4h-38c-2.216 0-4-1.784-4-4z" opacity=".05"/>
 <path d="m1 43v0.25c0 2.216 1.784 4 4 4h38c2.216 0 4-1.784 4-4v-0.25c0 2.216-1.784 4-4 4h-38c-2.216 0-4-1.784-4-4z" opacity=".1"/>
 <rect transform="rotate(-90)" x="-47" y="1" width="46" height="46" rx="4" fill="url(#linearGradient3764)"/>
 <g transform="translate(0 -1004.4)">
  <path d="m1 1043.4v4c0 2.216 1.784 4 4 4h38c2.216 0 4-1.784 4-4v-4c0 2.216-1.784 4-4 4h-38c-2.216 0-4-1.784-4-4z" opacity=".1"/>
 </g>
 <path d="m13.453 13c-0.809 0-1.4531 0.64512-1.4531 1.4531v15.844c0 0.809 0.64512 1.7461 1.4531 1.7031h4.5469v5l6-5h10.547c0.809 0 1.4531-0.89512 1.4531-1.7031v-15.844c0-0.809-0.64512-1.4531-1.4531-1.4531h-21.094zm8.5469 1.5 6.666 5-4 3 4 3-6.666 5v-5.5859l-1.293 1.293-1.4141-1.4141 2.293-2.293-2.293-2.293 1.4141-1.4141 1.293 1.293zm2 4v2l1.332-1zm0 6v2l1.332-1z" opacity=".1"/>
 <path d="m13.453 12c-0.809 0-1.4531 0.64512-1.4531 1.4531v15.844c0 0.809 0.64512 1.7461 1.4531 1.7031h4.5469v5l6-5h10.547c0.809 0 1.4531-0.89512 1.4531-1.7031v-15.844c0-0.809-0.64512-1.4531-1.4531-1.4531h-21.094zm8.5469 1.5 6.666 5-4 3 4 3-6.666 5v-5.5859l-1.293 1.293-1.4141-1.4141 2.293-2.293-2.293-2.293 1.4141-1.4141 1.293 1.293zm2 4v2l1.332-1zm0 6v2l1.332-1z" fill="#f9f9f9"/>
</svg>
