<svg version="1.1" viewBox="0 0 48 48" xmlns="http://www.w3.org/2000/svg">
 <defs>
  <linearGradient id="bg" x2="0" y1="1" y2="47" gradientUnits="userSpaceOnUse">
   <stop style="stop-color:#9dc850" offset="0"/>
   <stop style="stop-color:#94c341" offset="1"/>
  </linearGradient>
 </defs>
 <path d="m1 43v0.25c0 2.216 1.784 4 4 4h38c2.216 0 4-1.784 4-4v-0.25c0 2.216-1.784 4-4 4h-38c-2.216 0-4-1.784-4-4zm0 0.5v0.5c0 2.216 1.784 4 4 4h38c2.216 0 4-1.784 4-4v-0.5c0 2.216-1.784 4-4 4h-38c-2.216 0-4-1.784-4-4z" style="opacity:.02"/>
 <path d="m1 43.25v0.25c0 2.216 1.784 4 4 4h38c2.216 0 4-1.784 4-4v-0.25c0 2.216-1.784 4-4 4h-38c-2.216 0-4-1.784-4-4z" style="opacity:.05"/>
 <path d="m1 43v0.25c0 2.216 1.784 4 4 4h38c2.216 0 4-1.784 4-4v-0.25c0 2.216-1.784 4-4 4h-38c-2.216 0-4-1.784-4-4z" style="opacity:.1"/>
 <path d="m5 3 19-2h19c2.216 0 4 1.784 4 4v38c0 2.216-1.784 4-4 4h-19l-19-2z" style="fill:url(#bg)"/>
 <path d="m5 3v42h19v-14.186c0.336 0.031 0.68025 0.06641 1.0312 0.06641 4.102 0 11.332-2.1225 14.438-4.7285-0.457-0.461-2.6758-1.5035-3.2188-1.9375-3.266 2.82-6.6475 5.2188-11.312 5.2188-0.32732 0-0.63313-0.02661-0.9375-0.0625v-1.59c-4.313-0.77-5.5-5.25-5.5-5.25s2.0575-2.2839 5.4961-2.6562l2e-3 -0.0039v0.0039h0.0019v-1.6875c-5.105 0.391-7.6562 4.1562-7.6562 4.1562s1.9493 6.3123 7.6562 7.0293v1.438c-7.777-0.734-10.531-8.75-10.531-8.75s4.8792-4.797 10.531-5.25v-13.812zm19 13.812v1.375c0.125-8e-3 0.246-0.02725 0.375-0.03125 4.621-0.145 7.6562 3.9688 7.6562 3.9688s-3.2702 4.5312-6.7812 4.5312c-0.457 0-0.875-0.0735-1.25-0.1875v1.3125c0.367 0.059 0.74225 0.125 1.1562 0.125 5.01 0 9.8125-5.8438 9.8125-5.8438s-4.1638-5.4962-10.594-5.2812c-0.125 4e-3 -0.25 0.02325-0.375 0.03125zm-2e-3 3.0625h-2e-3l-2e-3 0.0059c0.0013-1.28e-4 0.0026 1.29e-4 0.0039 0zm0 0.0059v1.4277c1.684 0.242 2.07 1.0898 3.125 2.8438l2.406-2.021s-1.7578-2.3164-4.7188-2.3164c-0.27568 0-0.54868 0.03942-0.8125 0.06641zm-0.6543 1.4336c-1.48 0.18-2.5664 1.4688-2.5664 1.4688s0.78475 2.8714 3.2188 3.6914l-2e-3 -5.1602c-0.227-0.027-0.43939-0.023-0.65039 0z" style="opacity:.1"/>
 <path d="m5 1c-2.216 0-4 1.784-4 4v38c0 2.216 1.784 4 4 4h19v-17.186c0.336 0.031 0.68025 0.06641 1.0312 0.06641 4.102 0 11.332-2.1225 14.438-4.7285-0.457-0.461-2.6758-1.5035-3.2188-1.9375-3.266 2.82-6.6475 5.2188-11.312 5.2188-0.32732 0-0.63313-0.02661-0.9375-0.0625v-1.59c-4.313-0.77-5.5-5.25-5.5-5.25s2.0575-2.2839 5.4961-2.6562l2e-3 -0.0039v0.0039h2e-3v-1.6875c-5.105 0.391-7.6563 4.1562-7.6563 4.1562s1.9493 6.3123 7.6563 7.0293v1.438c-7.777-0.734-10.531-8.75-10.531-8.75s4.8793-4.797 10.531-5.25v-14.812zm19 14.812v1.375c0.125-8e-3 0.246-0.02725 0.375-0.03125 4.621-0.145 7.6562 3.9688 7.6562 3.9688s-3.2702 4.5312-6.7812 4.5312c-0.457 0-0.875-0.0735-1.25-0.1875v1.3125c0.367 0.059 0.74225 0.125 1.1562 0.125 5.01 0 9.8125-5.8438 9.8125-5.8438s-4.1638-5.4962-10.594-5.2812c-0.125 4e-3 -0.25 0.02325-0.375 0.03125zm-2e-3 3.0625h-2e-3l-2e-3 0.0059c0.0013-1.28e-4 0.0026 1.29e-4 0.0039 0zm0 0.0059v1.4277c1.684 0.242 2.07 1.0898 3.125 2.8438l2.406-2.021s-1.7578-2.3164-4.7188-2.3164c-0.27568 0-0.54868 0.03942-0.8125 0.06641zm-0.6543 1.4336c-1.48 0.18-2.5664 1.4688-2.5664 1.4688s0.78475 2.8714 3.2188 3.6914l-2e-3 -5.1602c-0.227-0.027-0.43939-0.023-0.65039 0z" style="fill:#3d3d3d"/>
 <path d="m1 39v4c0 2.216 1.784 4 4 4h38c2.216 0 4-1.784 4-4v-4c0 2.216-1.784 4-4 4h-38c-2.216 0-4-1.784-4-4z" style="opacity:.1"/>
</svg>
