<svg version="1.1" viewBox="0 0 48 48" xmlns="http://www.w3.org/2000/svg">
 <defs>
  <linearGradient id="bg" x2="0" y1="1" y2="47" gradientUnits="userSpaceOnUse">
   <stop style="stop-color:#e9afaf" offset="0"/>
   <stop style="stop-color:#e59e9e" offset="1"/>
  </linearGradient>
 </defs>
 <path d="m1 43v0.25c0 2.216 1.784 4 4 4h38c2.216 0 4-1.784 4-4v-0.25c0 2.216-1.784 4-4 4h-38c-2.216 0-4-1.784-4-4zm0 0.5v0.5c0 2.216 1.784 4 4 4h38c2.216 0 4-1.784 4-4v-0.5c0 2.216-1.784 4-4 4h-38c-2.216 0-4-1.784-4-4z" style="opacity:.02"/>
 <path d="m1 43.25v0.25c0 2.216 1.784 4 4 4h38c2.216 0 4-1.784 4-4v-0.25c0 2.216-1.784 4-4 4h-38c-2.216 0-4-1.784-4-4z" style="opacity:.05"/>
 <path d="m1 43v0.25c0 2.216 1.784 4 4 4h38c2.216 0 4-1.784 4-4v-0.25c0 2.216-1.784 4-4 4h-38c-2.216 0-4-1.784-4-4z" style="opacity:.1"/>
 <rect x="1" y="1" width="46" height="46" rx="4" style="fill:url(#bg)"/>
 <path d="m1 39v4c0 2.216 1.784 4 4 4h38c2.216 0 4-1.784 4-4v-4c0 2.216-1.784 4-4 4h-38c-2.216 0-4-1.784-4-4z" style="opacity:.1"/>
 <path d="m11 17v15c0 1.108 0.892 2 2 2h12v1h2v-1h7v-3h3v-14z" style="opacity:.1"/>
 <path d="m13 13h13v20h-13c-1.108 0-2-0.892-2-2v-16c0-1.108 0.892-2 2-2z" style="fill:#3e3d40"/>
 <path d="m26 13v20h8v-3h3v-14h-3v-3z" style="fill:#3e3d40"/>
 <rect x="13" y="29" width="20" height="2" style="fill:#deddda"/>
 <rect x="25" y="12" width="2" height="22" style="fill:#f9f9f9"/>
 <path d="m15.5 15c-1.3807 0-2.5 1.1193-2.5 2.5s1.1193 2.5 2.5 2.5c0.54204-7.03e-4 1.0692-0.17756 1.502-0.50391l-0.0039-3.9922c-0.43172-0.32555-0.95735-0.50236-1.4981-0.50391z" style="fill:#d34f07"/>
 <path d="m13 22v3h2v2h1v-5h-1v2h-1v-2zm4 0v5h3v-5zm4 0v1h2v1h-2v3h3v-1h-2v-1h2v-3zm-3 1h1v1h-1zm0 2h1v1h-1z" style="fill:#f9f9f9"/>
 <path d="m18.5 15c-0.54204 7.03e-4 -1.0692 0.17756-1.502 0.50391l0.0039 3.9922c0.43172 0.32555 0.95734 0.50236 1.498 0.50391 1.3807 0 2.5-1.1193 2.5-2.5s-1.1193-2.5-2.5-2.5z" style="fill:#f5c211"/>
 <path d="m16.998 15.504a2.5 2.5 0 0 0-0.99805 1.9961 2.5 2.5 0 0 0 1.002 1.9961 2.5 2.5 0 0 0 0.99805-1.9961 2.5 2.5 0 0 0-1.002-1.9961z" style="fill:#ff7800"/>
 <rect x="28" y="22" width="6" height="5" style="fill:#d3d1cd"/>
 <rect x="28" y="22" width="1" height="3" style="fill:#deddda"/>
 <rect x="28" y="25" width="2" height="2" style="fill:#9a9996"/>
 <rect x="29" y="22" width="2" height="3" style="fill:#777883"/>
 <rect x="30" y="25" width="1" height="2" style="fill:#5e5c64"/>
 <rect x="31" y="24" width="1" height="3" style="fill:#deddda"/>
 <rect x="31" y="22" width="3" height="2" style="fill:#9a9996"/>
 <rect x="32" y="24" width="2" height="2" style="fill:#e9eeff"/>
 <rect x="32" y="26" width="2" height="1" style="fill:#d3d1cd"/>
 <path d="m28 18v2h2v-2zm5 0v2h2v-2z" style="fill:#bdbab5"/>
 <rect x="28" y="18" width="1" height="1" style="fill:#5e5c64"/>
 <rect x="29" y="19" width="1" height="1" style="fill:#deddda"/>
 <rect x="29" y="18" width="1" height="1" style="fill:#777883"/>
 <rect x="28" y="19" width="1" height="1" style="fill:#d3d1cd"/>
 <rect x="31" y="18" width="1" height="2" style="fill:#bdbab5"/>
 <rect x="33" y="18" width="1" height="2" style="fill:#e9eeff"/>
 <rect x="34" y="19" width="1" height="1" style="fill:#d3d1cd"/>
 <rect x="34" y="18" width="1" height="1" style="fill:#777883"/>
 <rect x="27" y="29" width="2" height="1" style="fill:#9c9ca5"/>
 <rect x="29" y="28" width="1" height="3" style="fill:#cfcdc9"/>
 <rect x="30" y="29" width="1" height="2" style="fill:#e9eeff"/>
 <rect x="31" y="29" width="1" height="1" style="fill:#9a9996"/>
 <rect x="31" y="30" width="1" height="1" style="fill:#bdbab5"/>
 <rect x="27" y="30" width="2" height="1" style="fill:#706d77"/>
 <rect x="32" y="30" width="1" height="1" style="fill:#deddda"/>
 <rect x="32" y="29" width="1" height="1" style="fill:#8b8b95"/>
</svg>
