<svg version="1.1" viewBox="0 0 48 48" xmlns="http://www.w3.org/2000/svg">
 <defs>
  <linearGradient id="bg" x2="0" y1="1" y2="47" gradientUnits="userSpaceOnUse">
   <stop style="stop-color:#fd8d33" offset="0"/>
   <stop style="stop-color:#fd821f" offset="1"/>
  </linearGradient>
 </defs>
 <path d="m1 43v0.25c0 2.22 1.78 4 4 4h38c2.22 0 4-1.78 4-4v-0.25c0 2.22-1.78 4-4 4h-38c-2.22 0-4-1.78-4-4zm0 0.5v0.5c0 2.22 1.78 4 4 4h38c2.22 0 4-1.78 4-4v-0.5c0 2.22-1.78 4-4 4h-38c-2.22 0-4-1.78-4-4z" style="opacity:.02"/>
 <path d="m1 43.2v0.25c0 2.22 1.78 4 4 4h38c2.22 0 4-1.78 4-4v-0.25c0 2.22-1.78 4-4 4h-38c-2.22 0-4-1.78-4-4z" style="opacity:.05"/>
 <path d="m1 43v0.25c0 2.22 1.78 4 4 4h38c2.22 0 4-1.78 4-4v-0.25c0 2.22-1.78 4-4 4h-38c-2.22 0-4-1.78-4-4z" style="opacity:.1"/>
 <rect x="1" y="1" width="46" height="46" rx="4" style="fill:url(#bg)"/>
 <path d="m1 39v4c0 2.22 1.78 4 4 4h38c2.22 0 4-1.78 4-4v-4c0 2.22-1.78 4-4 4h-38c-2.22 0-4-1.78-4-4z" style="opacity:.1"/>
 <path d="m24 10c-4.97 0-9 4.03-9 9v2c0 0.554 0.446 1 1 1 0 1.1 0.842 2 1.5 2h1.05c0.592 1.9 1.45 3.5 1.45 3.5v2.5l-6 3v3h20v-3l-6-3v-2.5s0.884-1.57 1.48-3.5h1.03c0.656 0 1.5-0.9 1.5-2 0.554 0 1-0.446 1-1v-2c0-4.97-4.03-9-9-9zm0 2c3.19 0 5.96 2.03 6.79 5h-1.43c-0.753-2.13-2.31-4-5.36-4-3.01 0-4.57 1.89-5.33 4h-1.46c0.832-2.97 3.61-5 6.79-5z" style="opacity:.1"/>
 <path d="m24 12c-5 0-6 5.19-6 8s2 6.5 2 6.5v2.5l-6 3v3h20v-3l-6-3v-2.5s2-3.5 2-6.5-1-8-6-8z" style="fill:#4d4d4d"/>
 <path d="m24 9c-4.97 0-9 4.03-9 9v2c0 0.554 0.446 1 1 1 0 1.1 0.842 2 1.5 2h1.5v-7h-1.79c0.832-2.97 3.61-5 6.79-5s5.96 2.03 6.79 5h-1.79v7h1.5c0.656 0 1.5-0.9 1.5-2 0.554 0 1-0.446 1-1v-2c0-4.97-4.03-9-9-9z" style="fill:#4d4d4d"/>
</svg>
