<svg viewBox="0 0 48 48">
  <defs>
    <linearGradient id="a" x1="1" x2="47" gradientUnits="userSpaceOnUse" gradientTransform="translate(-48 .002)">
      <stop stop-color="#e4e4e4"/>
      <stop offset="1" stop-color="#eee"/>
    </linearGradient>
    <clipPath id="b"/>
    <clipPath id="c"/>
  </defs>
  <path d="M1 43v.25c0 2.216 1.784 4 4 4h38c2.216 0 4-1.784 4-4V43c0 2.216-1.784 4-4 4H5c-2.216 0-4-1.784-4-4zm0 .5v.5c0 2.216 1.784 4 4 4h38c2.216 0 4-1.784 4-4v-.5c0 2.216-1.784 4-4 4H5c-2.216 0-4-1.784-4-4z" opacity=".02"/>
  <path d="M1 43.25v.25c0 2.216 1.784 4 4 4h38c2.216 0 4-1.784 4-4v-.25c0 2.216-1.784 4-4 4H5c-2.216 0-4-1.784-4-4z" opacity=".05"/>
  <path d="M1 43v.25c0 2.216 1.784 4 4 4h38c2.216 0 4-1.784 4-4V43c0 2.216-1.784 4-4 4H5c-2.216 0-4-1.784-4-4z" opacity=".1"/>
  <rect width="46" height="46" x="-47" y="1" rx="4" transform="rotate(-90)" fill="url(#a)"/>
  <g opacity=".1" clip-path="url(#b)">
    <path d="M20.637 22.08c0 1.211.824 2.195 1.844 2.191 1.02 0 1.844-.98 1.844-2.191 0-1.211-.824-2.188-1.844-2.188s-1.844.977-1.844 2.188" fill-rule="evenodd"/>
    <path d="M24.03 12c-3.961.004-7.66 2.043-9.426 5.371-2.539 5.625-2.574 12.133-2.602 18.246 1.934.172 1.813-1.914 3.84-1.941 1.926-.027 2.203 2.258 4.164 2.297 1.754.031 2.313-1.977 4.102-2.242 1.773-.016 2.328 2.285 4.164 2.27 1.691-.012 2.363-2.289 4.047-2.309 1.691-.016 2.145 1.961 3.664 2.078.086-4.57-.172-9.793-1.055-14.434-.125-.652-.289-1.289-.441-1.914-.215-.613-.578-1.574-.969-2.266-1.871-2.945-5.527-5.16-9.488-5.156m6.73 5.03c1.563-.074 2.918 1.508 3.395 2.934.309.875.73 1.906.355 3.051-.375 1.141-.836 2.711-2.832 3.02-4.605.316-5.422-5.16-3.148-8.07.605-.754 1.488-.895 2.223-.93m-10.246.121c1.602-.063 3.266.98 3.754 3.277.313 1.902-.09 4.313-1.98 5.273-3.102 1.43-5.188-1.379-5.27-4.313-.094-2.68 1.66-4.168 3.477-4.238m.016 0"/>
    <path d="M30.945 22.14c.004 1.211.828 2.191 1.848 2.191 1.016 0 1.84-.984 1.84-2.195 0-1.211-.824-2.191-1.84-2.191-1.02 0-1.844.98-1.848 2.191" fill-rule="evenodd"/>
  </g>
  <g>
    <g clip-path="url(#c)">
      <path d="M20.637 21.08c0 1.211.824 2.195 1.844 2.191 1.02 0 1.844-.98 1.844-2.191 0-1.211-.824-2.188-1.844-2.188s-1.844.977-1.844 2.188" fill="#2d2d2d" fill-rule="evenodd"/>
      <path d="M24.03 11c-3.961.004-7.66 2.043-9.426 5.371-2.539 5.625-2.574 12.133-2.602 18.246 1.934.172 1.813-1.914 3.84-1.941 1.926-.027 2.203 2.258 4.164 2.297 1.754.031 2.313-1.977 4.102-2.242 1.773-.016 2.328 2.285 4.164 2.27 1.691-.012 2.363-2.289 4.047-2.309 1.691-.016 2.145 1.961 3.664 2.078.086-4.57-.172-9.793-1.055-14.434-.125-.652-.289-1.289-.441-1.914-.215-.613-.578-1.574-.969-2.266-1.871-2.945-5.527-5.16-9.488-5.156m6.73 5.03c1.563-.074 2.918 1.508 3.395 2.934.309.875.73 1.906.355 3.051-.375 1.141-.836 2.711-2.832 3.02-4.605.316-5.422-5.16-3.148-8.07.605-.754 1.488-.895 2.223-.93m-10.246.121c1.602-.063 3.266.98 3.754 3.277.313 1.902-.09 4.313-1.98 5.273-3.102 1.43-5.188-1.379-5.27-4.313-.094-2.68 1.66-4.168 3.477-4.238m.016 0" fill="#ecc13d"/>
      <path d="M30.945 21.14c.004 1.211.828 2.191 1.848 2.191 1.016 0 1.84-.984 1.84-2.195 0-1.211-.824-2.191-1.84-2.191-1.02 0-1.844.98-1.848 2.191" fill="#2d2d2d" fill-rule="evenodd"/>
    </g>
  </g>
  <g>
    <path d="M1 38.998v4c0 2.216 1.784 4 4 4h38c2.216 0 4-1.784 4-4v-4c0 2.216-1.784 4-4 4H5c-2.216 0-4-1.784-4-4z" opacity=".1"/>
  </g>
</svg>
