<svg viewBox="0 0 48 48">
  <defs>
    <linearGradient id="a" x1="1" x2="47" gradientUnits="userSpaceOnUse" gradientTransform="translate(-48 .002)">
      <stop stop-color="#4c433c"/>
      <stop offset="1" stop-color="#574d45"/>
    </linearGradient>
    <clipPath id="b"/>
    <clipPath id="c"/>
  </defs>
  <path d="M1 43v.25c0 2.216 1.784 4 4 4h38c2.216 0 4-1.784 4-4V43c0 2.216-1.784 4-4 4H5c-2.216 0-4-1.784-4-4zm0 .5v.5c0 2.216 1.784 4 4 4h38c2.216 0 4-1.784 4-4v-.5c0 2.216-1.784 4-4 4H5c-2.216 0-4-1.784-4-4z" opacity=".02"/>
  <path d="M1 43.25v.25c0 2.216 1.784 4 4 4h38c2.216 0 4-1.784 4-4v-.25c0 2.216-1.784 4-4 4H5c-2.216 0-4-1.784-4-4z" opacity=".05"/>
  <path d="M1 43v.25c0 2.216 1.784 4 4 4h38c2.216 0 4-1.784 4-4V43c0 2.216-1.784 4-4 4H5c-2.216 0-4-1.784-4-4z" opacity=".1"/>
  <rect width="46" height="46" x="-47" y="1" rx="4" transform="rotate(-90)" fill="url(#a)"/>
  <g opacity=".1" clip-path="url(#b)">
    <path d="M12 33h7v-1.406c-2-.594-2.406-1.363-3.902-3.035-1.496-1.672-2.242-3.785-2.242-6.332 0-2.828 1.039-5.238 3.113-7.23 2.086-1.996 4.813-2.996 8.164-2.996 3.254 0 5.91.945 7.977 2.84 2.066 1.883 3.098 4.289 3.098 7.23 0 2.391-.645 4.418-1.938 6.094-1.277 1.66-2.086 2.813-4.273 3.461v1.379h7v3h-9v-5c3-1 4.277-3.91 4.277-8.48 0-2.984-.727-5.27-2.176-6.867-1.438-1.594-3.129-2.391-5.066-2.391-2.066 0-3.777.848-5.137 2.543-1.344 1.684-2.02 3.844-2.02 6.473 0 1.902.301 3.648.91 5.207.605 1.566 1.543 2.523 3.211 3.523v5h-9"/>
    <path d="M16 16h16v3h-6v12h-4V19h-6m0-3"/>
  </g>
  <g clip-path="url(#c)">
    <path d="M12 32h7v-1.406c-2-.594-2.406-1.363-3.902-3.035-1.496-1.672-2.242-3.785-2.242-6.332 0-2.828 1.039-5.238 3.113-7.23 2.086-1.996 4.813-2.996 8.164-2.996 3.254 0 5.91.945 7.977 2.84 2.066 1.883 3.098 4.289 3.098 7.23 0 2.391-.645 4.418-1.938 6.094-1.277 1.66-2.086 2.813-4.273 3.461v1.379h7v3h-9v-5c3-1 4.277-3.91 4.277-8.48 0-2.984-.727-5.27-2.176-6.867-1.438-1.594-3.129-2.391-5.066-2.391-2.066 0-3.777.848-5.137 2.543-1.344 1.684-2.02 3.844-2.02 6.473 0 1.902.301 3.648.91 5.207.605 1.566 1.543 2.523 3.211 3.523v5h-9" fill="#de8e00"/>
    <path d="M16 15h16v3h-6v12h-4V18h-6m0-3" fill="#0094de"/>
  </g>
  <path d="M1 38.998v4c0 2.216 1.784 4 4 4h38c2.216 0 4-1.784 4-4v-4c0 2.216-1.784 4-4 4H5c-2.216 0-4-1.784-4-4z" opacity=".1"/>
</svg>
