<svg version="1.1" viewBox="0 0 48 48" xmlns="http://www.w3.org/2000/svg">
 <defs>
  <linearGradient id="bg" x1="1" x2="47" gradientTransform="translate(-48)" gradientUnits="userSpaceOnUse">
   <stop style="stop-color:#d0413a" offset="0"/>
   <stop style="stop-color:#d4504a" offset="1"/>
  </linearGradient>
 </defs>
 <path d="m1 43v0.25c0 2.22 1.78 4 4 4h38c2.22 0 4-1.78 4-4v-0.25c0 2.22-1.78 4-4 4h-38c-2.22 0-4-1.78-4-4zm0 0.5v0.5c0 2.22 1.78 4 4 4h38c2.22 0 4-1.78 4-4v-0.5c0 2.22-1.78 4-4 4h-38c-2.22 0-4-1.78-4-4z" style="opacity:.02"/>
 <path d="m1 43.2v0.25c0 2.22 1.78 4 4 4h38c2.22 0 4-1.78 4-4v-0.25c0 2.22-1.78 4-4 4h-38c-2.22 0-4-1.78-4-4z" style="opacity:.05"/>
 <path d="m1 43v0.25c0 2.22 1.78 4 4 4h38c2.22 0 4-1.78 4-4v-0.25c0 2.22-1.78 4-4 4h-38c-2.22 0-4-1.78-4-4z" style="opacity:.1"/>
 <rect transform="rotate(-90)" x="-47" y="1" width="46" height="46" rx="4" style="fill:url(#bg)"/>
 <path d="m14 17.1v2.5c0 1.72 4.48 3.12 10 3.12 5.52 0 10-1.4 10-3.12v-2.5zm1e-4 6.88-4e-3 1.25c-0.0055 1.73 4.48 3.12 10 3.12s10-1.4 10-3.12l4e-3 -1.25zm0 5.62-4e-3 1.25c-0.0055 1.73 4.48 3.12 10 3.12s10-1.4 10-3.12l4e-3 -1.25z" style="opacity:.1"/>
 <path d="m24 13c-5.52 0-10 1.4-10 3.12v2.5c0 1.72 4.48 3.12 10 3.12 5.52 0 10-1.4 10-3.12v-2.5c0-1.73-4.48-3.12-10-3.12zm-9.55 7.81c-0.297 0.297-0.445 0.612-0.445 0.938v2.5c0 1.73 4.48 3.12 10 3.12s10-1.4 10-3.12v-2.5c0-0.324-0.176-0.64-0.473-0.938-1.27 1.27-5.08 2.19-9.56 2.19s-8.25-0.918-9.52-2.19zm0 5.62c-0.297 0.297-0.445 0.612-0.445 0.938v2.5c0 1.73 4.48 3.12 10 3.12s10-1.4 10-3.12v-2.5c0-0.324-0.176-0.64-0.473-0.938-1.27 1.27-5.08 2.19-9.56 2.19s-8.25-0.918-9.52-2.19z" style="fill:#f9f9f9"/>
 <path d="m1 39v4c0 2.22 1.78 4 4 4h38c2.22 0 4-1.78 4-4v-4c0 2.22-1.78 4-4 4h-38c-2.22 0-4-1.78-4-4z" style="opacity:.1"/>
</svg>
