<svg width="48" height="48" viewBox="0 0 48 48.000001" xmlns="http://www.w3.org/2000/svg">
  <defs>
    <linearGradient id="a" x1="-47" x2="-1" gradientUnits="userSpaceOnUse">
      <stop offset="0" stop-color="#3d3d3d"/>
      <stop offset="1" stop-color="#474747"/>
    </linearGradient>
  </defs>
  <path d="M1 43v.25c0 2.216 1.784 4 4 4h38c2.216 0 4-1.784 4-4V43c0 2.216-1.784 4-4 4H5c-2.216 0-4-1.784-4-4zm0 .5v.5c0 2.216 1.784 4 4 4h38c2.216 0 4-1.784 4-4v-.5c0 2.216-1.784 4-4 4H5c-2.216 0-4-1.784-4-4z" opacity=".02"/>
  <path d="M1 43.25v.25c0 2.216 1.784 4 4 4h38c2.216 0 4-1.784 4-4v-.25c0 2.216-1.784 4-4 4H5c-2.216 0-4-1.784-4-4z" opacity=".05"/>
  <path d="M1 43v.25c0 2.216 1.784 4 4 4h38c2.216 0 4-1.784 4-4V43c0 2.216-1.784 4-4 4H5c-2.216 0-4-1.784-4-4z" opacity=".1"/>
  <rect transform="rotate(-90)" x="-47" y="1" width="46" height="46" rx="4" fill="url(#a)"/>
  <path d="M1 39v4c0 2.216 1.784 4 4 4h38c2.216 0 4-1.784 4-4v-4c0 2.216-1.784 4-4 4H5c-2.216 0-4-1.784-4-4zM27 11c-10 0-15 7-15 13s5 13 15 13c-6-3.569-9-7-9-13s3-9.431 9-13zm-2 4c.583 1.353 1.464 2.865 1.281 5.219-1.962-.79-4.912-.905-7.563 1.875 1.465.172 3.208.163 5.156 1.5-1.672 1.3-3.242 3.802-2.156 7.5.876-1.176 1.738-2.7 3.844-3.719C25.85 29.474 27.25 32.091 31 33c-.583-1.353-1.464-2.865-1.281-5.219 1.962.79 4.912.905 7.563-1.875-1.465-.172-3.208-.163-5.156-1.5 1.672-1.3 3.242-3.802 2.156-7.5-.876 1.176-1.738 2.7-3.844 3.719C30.15 18.526 28.75 15.909 25 15z" opacity=".1"/>
  <path d="M27 10c-10 0-15 7-15 13s5 13 15 13c-6-3.569-9-7-9-13s3-9.431 9-13z" fill="#352217"/>
  <path d="M27 10c-10 0-15 7-15 13s5 13 15 13c-8-2-12-7-12-13s4-11 12-13z" fill="#aba674"/>
  <path d="M21.706 30.1c-1.341-4.567 1.375-7.366 3.321-8.247L28 23.002c-4.155 2.804-5.452 4.999-6.294 7.098zM34.29 15.902c1.341 4.567-1.375 7.366-3.321 8.247L27.996 23c4.155-2.804 5.452-4.999 6.294-7.098z" fill="#352217"/>
  <path d="M25 14c4.626 1.122 5.692 4.874 5.482 7L28 23c-.35-5-1.603-7.222-3-9z" fill="#352217"/>
  <path d="M28 23v-4c0-2-.809-3.236-3-5 .61 1.414 1.566 3 1.27 5.54z" fill="#71b8d0"/>
  <path d="M28 23l3.464-2c1.732-1 2.398-2.319 2.83-5.098-.92 1.235-1.815 2.856-4.163 3.87z" fill="#aba674"/>
  <path d="M31 32c-4.626-1.122-5.692-4.874-5.482-7L28 23c.35 5 1.603 7.222 3 9z" fill="#be71d0"/>
  <path d="M28 23v4c0 2 .809 3.236 3 5-.61-1.414-1.566-3-1.27-5.54z" fill="#71b8d0"/>
  <path d="M31 32c-4.626-1.122-5.692-4.874-5.482-7L28 23c.35 5 1.603 7.222 3 9z" fill="#352217"/>
  <path d="M18.706 21.1c3.284-3.445 7.07-2.493 8.803-1.247L28 23.002c-4.506-2.197-7.06-2.222-9.294-1.902z" fill="#352217"/>
  <path d="M28 23l-3.464 2c-1.732 1-2.398 2.319-2.83 5.098.92-1.235 1.815-2.856 4.163-3.87zM28 23l-3.464-2c-1.732-1-3.207-.917-5.83.098 1.53.179 3.381.144 5.433 1.67zM28 23v-4c0-2-.809-3.236-3-5 .61 1.414 1.566 3 1.27 5.54z" fill="#aba674"/>
  <path d="M37.29 24.902c-3.284 3.445-7.07 2.493-8.803 1.247L27.996 23c4.506 2.197 7.06 2.222 9.294 1.902z" fill="#352217"/>
  <path d="M28 23l3.464 2c1.732 1 3.207.917 5.83-.098-1.53-.179-3.381-.144-5.433-1.67zM28 23v4c0 2 .809 3.236 3 5-.61-1.414-1.566-3-1.27-5.54z" fill="#aba674"/>
</svg>
