<svg width="48" height="48" version="1.1" viewBox="0 0 48 48.000001" xmlns="http://www.w3.org/2000/svg">
 <defs>
  <linearGradient id="linearGradient4501" x1="-47" x2="-1" y1="2.8779e-15" y2="6.1232e-17" gradientUnits="userSpaceOnUse">
   <stop style="stop-color:#e1e2da" offset="0"/>
   <stop style="stop-color:#eaebe5" offset="1"/>
  </linearGradient>
 </defs>
 <g transform="translate(0 3.949e-5)">
  <path d="m1 43v0.25c0 2.216 1.784 4 4 4h38c2.216 0 4-1.784 4-4v-0.25c0 2.216-1.784 4-4 4h-38c-2.216 0-4-1.784-4-4zm0 0.5v0.5c0 2.216 1.784 4 4 4h38c2.216 0 4-1.784 4-4v-0.5c0 2.216-1.784 4-4 4h-38c-2.216 0-4-1.784-4-4z" style="opacity:.02"/>
  <path d="m1 43.25v0.25c0 2.216 1.784 4 4 4h38c2.216 0 4-1.784 4-4v-0.25c0 2.216-1.784 4-4 4h-38c-2.216 0-4-1.784-4-4z" style="opacity:.05"/>
  <path d="m1 43v0.25c0 2.216 1.784 4 4 4h38c2.216 0 4-1.784 4-4v-0.25c0 2.216-1.784 4-4 4h-38c-2.216 0-4-1.784-4-4z" style="opacity:.1"/>
 </g>
 <rect transform="rotate(-90)" x="-47" y="1" width="46" height="46" rx="4" style="fill:url(#linearGradient4501)"/>
 <g transform="translate(0 3.949e-5)">
  <g transform="translate(0 -1004.4)">
   <path d="m1 1043.4v4c0 2.216 1.784 4 4 4h38c2.216 0 4-1.784 4-4v-4c0 2.216-1.784 4-4 4h-38c-2.216 0-4-1.784-4-4z" style="opacity:.1"/>
  </g>
 </g>
 <g transform="matrix(1.0664 0 0 1.0664 -1.5626 -4.5236)">
  <g transform="translate(.50285 .41679)">
   <path d="m23.416 14.14c-2.099-0.039-4.505 0.253-6.06 1.991-1.728 1.936-1.533 5.671-1.081 8.311 0.38 2.219 2.355 4.367 4.26 5.866 0.816 0.642 1.835 1.21 2.877 1.212 1.052 3e-3 2.057-0.602 2.91-1.212 1.859-1.332 3.512-3.678 4.229-5.866 0.784-2.395 0.469-6.067-1.081-8.394-1.123-1.686-3.947-1.869-6.06-1.908zm9.591 15.308c-0.127-0.025-0.253-0.025-0.366 6e-3 -0.455 0.122-0.707 1.225-0.707 1.225l-8.449 2.264-8.423-2.256s-0.252-1.101-0.707-1.223c-0.456-0.122-1.103 0.252-1.225 0.707-0.122 0.456 0.829 0.768 0.707 1.223s-1.101 0.252-1.223 0.707c-0.122 0.456 0.252 1.103 0.707 1.225 0.456 0.122 1.223-0.707 1.223-0.707l5.077 1.361-5.073 1.359s-0.77-0.829-1.225-0.707-0.829 0.77-0.707 1.225 1.103 0.252 1.225 0.707c0.122 0.456-0.831 0.77-0.709 1.225s0.77 0.829 1.225 0.707 0.707-1.225 0.707-1.225l8.421-2.256 8.447 2.264s0.252 1.103 0.707 1.225c0.456 0.122 1.103-0.252 1.225-0.707 0.122-0.456-0.829-0.77-0.707-1.225s1.103-0.252 1.225-0.707c0.122-0.456-0.252-1.103-0.707-1.225-0.456-0.122-1.225 0.707-1.225 0.707l-5.101-1.366 5.103-1.368s0.77 0.829 1.225 0.707 0.829-0.77 0.707-1.225-1.103-0.252-1.225-0.707c-0.122-0.456 0.829-0.77 0.707-1.225-0.092-0.341-0.479-0.637-0.859-0.712z" style="opacity:.1"/>
   <path d="m30.556 23.504c-0.717 2.188-2.37 4.535-4.229 5.867-0.853 0.611-1.858 1.215-2.91 1.212-1.042-3e-3 -2.062-0.57-2.879-1.212-1.905-1.499-3.881-3.648-4.26-5.867-0.452-2.64-0.646-6.374 1.082-8.31 1.552-1.738 3.958-2.031 6.06-1.992 2.112 0.039 4.934 0.223 6.06 1.909 1.549 2.326 1.867 5.998 1.082 8.393z" style="fill:#5ad2ba"/>
   <path transform="matrix(.93772 0 0 .93772 .96241 2.8875)" d="m16.02 18c-4e-3 0.163-0.017 0.325-0.016 0.488 1e-3 0.181 0.016 0.36 0.023 0.541 0.039 0.053 1.23 1.651 1.986 2.164 0.704 0.478 1.566 0.737 2.404 0.771 0.696 0.029 1.722 0.175 2.041-0.473 0.278-0.564-0.305-1.28-0.709-1.752-0.589-0.688-1.468-1.069-2.307-1.354-1.01-0.342-3.396-0.386-3.424-0.387zm15.936 2e-3c-0.085 1e-3 -2.347 0.031-3.355 0.371-0.839 0.282-1.718 0.669-2.307 1.359-0.404 0.474-0.987 1.194-0.709 1.76 0.319 0.65 1.345 0.502 2.041 0.473 0.838-0.035 1.698-0.3 2.406-0.773 0.77-0.513 1.942-2.152 1.961-2.178 2e-3 -0.335-0.012-0.671-0.037-1.012z" style="fill-rule:evenodd;fill:#008066"/>
  </g>
  <g transform="translate(.00036041 -.5434)">
   <path d="m32.435 37.3-17.387-4.659s-0.769 0.829-1.225 0.707c-0.455-0.122-0.829-0.769-0.707-1.225 0.122-0.455 1.103-0.252 1.225-0.707s-0.829-0.769-0.707-1.225c0.122-0.455 0.769-0.829 1.225-0.707 0.455 0.122 0.707 1.225 0.707 1.225l17.387 4.659s0.769-0.829 1.225-0.707c0.455 0.122 0.829 0.769 0.707 1.225-0.122 0.455-1.103 0.252-1.225 0.707s0.829 0.769 0.707 1.225c-0.122 0.455-0.769 0.829-1.225 0.707-0.455-0.122-0.707-1.225-0.707-1.225z" style="fill-rule:evenodd;fill:#5ad2ba"/>
   <path d="m15.05 35.36 17.387-4.659s0.252-1.103 0.707-1.225 1.103 0.252 1.225 0.707-0.829 0.769-0.707 1.225c0.122 0.455 1.103 0.252 1.225 0.707s-0.252 1.103-0.707 1.225-1.225-0.707-1.225-0.707l-17.387 4.659s-0.252 1.103-0.707 1.225-1.103-0.252-1.225-0.707 0.829-0.769 0.707-1.225c-0.122-0.455-1.103-0.252-1.225-0.707s0.252-1.103 0.707-1.225 1.225 0.707 1.225 0.707z" style="fill-rule:evenodd;fill:#5ad2ba"/>
  </g>
 </g>
</svg>
