<svg version="1.1" viewBox="0 0 48 48" xmlns="http://www.w3.org/2000/svg">
 <defs>
  <linearGradient id="bg" x1="-47" x2="-1" gradientUnits="userSpaceOnUse">
   <stop style="stop-color:#8caede" offset="0"/>
   <stop style="stop-color:#9ab8e4" offset="1"/>
  </linearGradient>
 </defs>
 <path d="m1 43v0.25c0 2.22 1.78 4 4 4h38c2.22 0 4-1.78 4-4v-0.25c0 2.22-1.78 4-4 4h-38c-2.22 0-4-1.78-4-4zm0 0.5v0.5c0 2.22 1.78 4 4 4h38c2.22 0 4-1.78 4-4v-0.5c0 2.22-1.78 4-4 4h-38c-2.22 0-4-1.78-4-4z" style="opacity:.02"/>
 <path d="m1 43.3v0.25c0 2.22 1.78 4 4 4h38c2.22 0 4-1.78 4-4v-0.25c0 2.22-1.78 4-4 4h-38c-2.22 0-4-1.78-4-4z" style="opacity:.05"/>
 <path d="m1 43v0.25c0 2.22 1.78 4 4 4h38c2.22 0 4-1.78 4-4v-0.25c0 2.22-1.78 4-4 4h-38c-2.22 0-4-1.78-4-4z" style="opacity:.1"/>
 <rect transform="rotate(-90)" x="-47" y="1" width="46" height="46" rx="4" style="fill:url(#bg)"/>
 <path d="m1 39v4c0 2.22 1.78 4 4 4h38c2.22 0 4-1.78 4-4v-4c0 2.22-1.78 4-4 4h-38c-2.22 0-4-1.78-4-4z" style="opacity:.1"/>
 <path d="m26.7 9-0.205 2.09 1.45 4.03 1.24 5.07-2.74 5.82c-0.166-0.027-0.336-0.045-0.51-0.057l-3.07-12.3-9.41 0.621 5.9 2.92 1.65 10.5c-0.481 0.463-0.936 0.972-1.3 1.3-0.651 0.59-1.84 1.41-2.22 2.1-0.38 0.683-0.612 0.811-0.676 1.51-0.064 0.693 0.041 1.37 0.338 2 1.19 2.51 4.99 3.19 8.5 1.52 2.89-1.37 4.67-3.9 4.55-6.15l8e-3 8e-3 3.94-8.72-1.86-8.17-5.58-4.06z" style="opacity:.1"/>
 <path d="m30.2 28.9 3.94-8.72-1.86-8.17-5.58-4.06-0.207 2.09 1.45 4.03 1.24 5.06-3.01 6.4z" style="fill:#8a6b6b"/>
 <path d="m27.4 25.4 2.59-5.7-0.827-4.86-1.14-4.55 2.79 2.07 1.86 7.55-3.62 6.83z" style="fill:#604a48"/>
 <path d="m26.2 25.7-3.24-13.1-9.41 0.62 5.9 2.92 1.94 12.4z" style="fill:#8a6b6b"/>
 <path d="m13.5 13.2 5.9 2.92 1.65 10.5 2.58-1.43-1.94-10.3z" style="opacity:.1"/>
 <path d="m24 26.9-2.26-12.1-1.88 0.042 1.27 4.61 0.808 8.42z" style="fill:#604a48"/>
 <path d="m23.6 15.5 1.03 9.54 1.48 0.557-2.51-10.1" style="opacity:.1"/>
 <path d="m29.9 27.5c1.19 2.5-0.692 5.88-4.2 7.55-3.51 1.66-7.32 0.982-8.5-1.52-0.297-0.626-0.402-1.31-0.338-2 0.064-0.695 0.297-0.823 0.677-1.51s1.57-1.51 2.22-2.1 1.59-1.78 2.47-2.19c3.51-1.66 6.48-0.732 7.67 1.77z" style="fill:#8a6b6b"/>
 <path d="m27.4 28-3.71 1.54 0.311 0.393 3.57-1.43h-0.0859v-0.5h-0.0879zm-9.46 3.7-0.428 0.264 0.625 1.01-0.162 1.7 0.654 0.512 0.0957-2.15 0.998-0.785-0.24-0.449-0.998 0.785-0.543-0.885h-0.00195z" style="fill:#604a48"/>
 <path d="m29.9 27.5-0.242 0.908-1.34 3.58-2.73 2.07-3.02 1.15-3.93-0.091c6e-3 4e-3 0.013 8e-3 0.019 0.012 7e-3 4e-3 0.013 8e-3 0.02 0.012l0.727 0.371c1.72 0.703 4.07 0.596 6.3-0.461 3.51-1.66 5.39-5.04 4.2-7.55z" style="opacity:.1"/>
 <ellipse transform="rotate(-12.1)" cx="19.3" cy="34.6" rx="1.47" ry=".834" style="fill:#544040"/>
 <circle cx="26.5" cy="29.5" r=".5" style="fill:#f9f9f9"/>
</svg>
