<svg width="48" height="48" version="1.1" viewBox="0 0 48 48" xmlns="http://www.w3.org/2000/svg">
 <defs>
  <linearGradient id="linearGradient4501" x1="-47" x2="-1" y1="2.8779e-15" y2="6.1232e-17" gradientUnits="userSpaceOnUse">
   <stop style="stop-color:#383838" offset="0"/>
   <stop style="stop-color:#424242" offset="1"/>
  </linearGradient>
 </defs>
 <g transform="translate(0 3.949e-5)">
  <path d="m1 43v0.25c0 2.216 1.784 4 4 4h38c2.216 0 4-1.784 4-4v-0.25c0 2.216-1.784 4-4 4h-38c-2.216 0-4-1.784-4-4zm0 0.5v0.5c0 2.216 1.784 4 4 4h38c2.216 0 4-1.784 4-4v-0.5c0 2.216-1.784 4-4 4h-38c-2.216 0-4-1.784-4-4z" style="opacity:.02"/>
  <path d="m1 43.25v0.25c0 2.216 1.784 4 4 4h38c2.216 0 4-1.784 4-4v-0.25c0 2.216-1.784 4-4 4h-38c-2.216 0-4-1.784-4-4z" style="opacity:.05"/>
  <path d="m1 43v0.25c0 2.216 1.784 4 4 4h38c2.216 0 4-1.784 4-4v-0.25c0 2.216-1.784 4-4 4h-38c-2.216 0-4-1.784-4-4z" style="opacity:.1"/>
 </g>
 <rect transform="rotate(-90)" x="-47" y="1" width="46" height="46" rx="4" style="fill:url(#linearGradient4501)"/>
 <g transform="translate(0 3.949e-5)">
  <g transform="translate(0 -1004.4)">
   <path d="m1 1043.4v4c0 2.216 1.784 4 4 4h38c2.216 0 4-1.784 4-4v-4c0 2.216-1.784 4-4 4h-38c-2.216 0-4-1.784-4-4z" style="opacity:.1"/>
  </g>
 </g>
 <path d="m25 11c-10 0-15 7-15 13s5 13 15 13c-6-3.569-9-7-9-13s3-9.431 9-13zm3 4-0.54297 2.1719a7 7 0 0 0-2.1953 0.9082l-1.918-1.1504-1.4141 1.4141 1.1523 1.9199a7 7 0 0 0-0.91016 2.1934l-2.1719 0.54297v2l2.1719 0.54297a7 7 0 0 0 0.91016 2.1934l-1.1523 1.9199 1.4141 1.4141 1.9199-1.1523a7 7 0 0 0 2.1934 0.91016l0.54297 2.1719h2l0.54297-2.1719a7 7 0 0 0 2.1934-0.91016l1.9199 1.1523 1.4141-1.4141-1.1523-1.9199a7 7 0 0 0 0.91016-2.1934l2.1719-0.54297v-2l-2.1719-0.54297a7 7 0 0 0-0.91016-2.1934l1.1523-1.9199-1.4141-1.4141-1.9199 1.1523a7 7 0 0 0-2.1934-0.91016l-0.54297-2.1719zm0.94727 6a3 3 0 0 1 2e-3 0 3 3 0 0 1 0.05078 0 3 3 0 0 1 3 3 3 3 0 0 1-3 3 3 3 0 0 1-3-3 3 3 0 0 1 2.9473-3zm5.0527 7.8984v0.10156h-0.10352a7 7 0 0 0 0.10352-0.10156z" style="opacity:.1"/>
 <path d="m25 10c-9 0-14 7-14 13s5 13 14 13c-6-3.569-9-7-9-13s3-9.431 9-13z" style="fill:#77755a"/>
 <path d="m25 10c-10 0-15 7-15 13s5 13 15 13c-8-2-12-7-12-13s4-11 12-13zm3 4-0.54297 2.1719a7 7 0 0 0-2.1953 0.9082l-1.918-1.1504-1.4141 1.4141 1.1523 1.9199a7 7 0 0 0-0.91016 2.1934l-2.1719 0.54297v2l2.1719 0.54297a7 7 0 0 0 0.91016 2.1934l-1.1523 1.9199 1.4141 1.4141 1.9199-1.1523a7 7 0 0 0 2.1934 0.91016l0.54297 2.1719h2l0.54297-2.1719a7 7 0 0 0 2.1934-0.91016l1.9199 1.1523 1.4141-1.4141-1.1523-1.9199a7 7 0 0 0 0.91016-2.1934l2.1719-0.54297v-2l-2.1719-0.54297a7 7 0 0 0-0.91016-2.1934l1.1523-1.9199-1.4141-1.4141-1.9199 1.1523a7 7 0 0 0-2.1934-0.91016l-0.54297-2.1719zm0.93945 5a4 4 0 0 1 0.06055 0 4 4 0 0 1 4 4 4 4 0 0 1-4 4 4 4 0 0 1-4-4 4 4 0 0 1 3.9395-4zm5.0605 8.8984v0.10156h-0.10352a7 7 0 0 0 0.10352-0.10156z" style="fill:#aba674"/>
 <path d="m29 18a5 5 0 0 0-5 5 5 5 0 0 0 5 5 5 5 0 0 0 5-5 5 5 0 0 0-5-5zm-0.05078 2a3 3 0 0 1 0.05078 0 3 3 0 0 1 3 3 3 3 0 0 1-3 3 3 3 0 0 1-3-3 3 3 0 0 1 2.9492-3z" style="fill:#77755a"/>
</svg>
