<svg version="1.1" viewBox="0 0 48 48" xmlns="http://www.w3.org/2000/svg">
 <defs>
  <linearGradient id="bg" x1="-47" x2="-1" y1="2.8779e-15" y2="6.1232e-17" gradientUnits="userSpaceOnUse">
   <stop style="stop-color:#f8bd70" offset="0"/>
   <stop style="stop-color:#f9c683" offset="1"/>
  </linearGradient>
  <radialGradient id="radialGradient4171" cx="24" cy="24" r="15" gradientTransform="translate(0,-1)" gradientUnits="userSpaceOnUse">
   <stop style="stop-color:#e28332" offset="0"/>
   <stop style="stop-color:#e07a24" offset="1"/>
  </radialGradient>
 </defs>
 <g transform="translate(0 3.949e-5)">
  <path d="m1 43v0.25c0 2.216 1.784 4 4 4h38c2.216 0 4-1.784 4-4v-0.25c0 2.216-1.784 4-4 4h-38c-2.216 0-4-1.784-4-4zm0 0.5v0.5c0 2.216 1.784 4 4 4h38c2.216 0 4-1.784 4-4v-0.5c0 2.216-1.784 4-4 4h-38c-2.216 0-4-1.784-4-4z" style="opacity:.02"/>
  <path d="m1 43.25v0.25c0 2.216 1.784 4 4 4h38c2.216 0 4-1.784 4-4v-0.25c0 2.216-1.784 4-4 4h-38c-2.216 0-4-1.784-4-4z" style="opacity:.05"/>
  <path d="m1 43v0.25c0 2.216 1.784 4 4 4h38c2.216 0 4-1.784 4-4v-0.25c0 2.216-1.784 4-4 4h-38c-2.216 0-4-1.784-4-4z" style="opacity:.1"/>
 </g>
 <rect transform="rotate(-90)" x="-47" y="1" width="46" height="46" rx="4" style="fill:url(#bg)"/>
 <g transform="translate(0 3.949e-5)">
  <g transform="translate(0 -1004.4)">
   <path d="m1 1043.4v4c0 2.216 1.784 4 4 4h38c2.216 0 4-1.784 4-4v-4c0 2.216-1.784 4-4 4h-38c-2.216 0-4-1.784-4-4z" style="opacity:.1"/>
  </g>
 </g>
 <circle cx="24" cy="24" r="15" style="opacity:.1"/>
 <circle cx="24" cy="23" r="15" style="fill:url(#radialGradient4171)"/>
 <path d="m32 27c-1 2-3 6-8 6s-7-3-8-5c3 1.79 12 1 16-1z" style="fill:#f1d24c"/>
 <path d="m18 16c-2.4186 0-4.4371 1.7179-4.9004 4h-3.7949a15 15 0 0 0 -0.25586 2h4.0508c0.4633 2.2821 2.4818 4 4.9004 4 2.761 0 5-2.239 5-5 0-0.788-0.18692-1.5636-0.54492-2.2656 0.379-0.464 0.94592-0.73538 1.5449-0.73438 0.6 0 1.1679 0.27328 1.5469 0.73828-0.358 0.7-0.54588 1.4747-0.54688 2.2617-2e-3 2.761 2.239 5 5 5 2.4186 0 4.4371-1.7179 4.9004-4h4.0645a15 15 0 0 0 -0.28516 -2h-3.7793c-0.4633-2.2821-2.4818-4-4.9004-4-1.168 0-2.2983 0.41216-3.1953 1.1602-0.746-0.74-1.7537-1.1602-2.8047-1.1602-1.05-1e-3 -2.0577 0.41825-2.8047 1.1562-0.897-0.747-2.0283-1.1562-3.1953-1.1562z" style="opacity:.1"/>
 <path d="m18 15c-2.761 0-5 2.239-5 5s2.239 5 5 5 5-2.239 5-5c0-0.788-0.187-1.564-0.545-2.266 0.379-0.464 0.946-0.735 1.545-0.734 0.6 0 1.168 0.273 1.547 0.738-0.358 0.7-0.546 1.475-0.547 2.262-2e-3 2.761 2.239 5 5 5s5-2.239 5-5-2.239-5-5-5c-1.168 0-2.298 0.412-3.195 1.16-0.746-0.74-1.754-1.16-2.805-1.16-1.05-1e-3 -2.058 0.418-2.805 1.156-0.897-0.747-2.028-1.156-3.195-1.156" style="fill:#3c3c3c"/>
 <path d="m9.559 19a15 15 0 0 0 -0.409 2h4.85v-2z" style="fill:#3c3c3c"/>
 <path d="m34 19v2h4.848a15 15 0 0 0 -0.393 -2z" style="fill:#3c3c3c"/>
 <circle cx="18" cy="20" r="3" style="fill:#96b8c4"/>
 <circle cx="30" cy="20" r="3" style="fill:#96b8c4"/>
 <path d="m32 27c-4 2-13 2.79-16 1 0.21053 0.42106 0.47904 0.88895 0.79688 1.3613 3.3483 1.221 10.58 0.57406 14.502-1.0469 0.27295-0.47893 0.51268-0.93746 0.70117-1.3145z" style="opacity:.1"/>
</svg>
