<svg version="1.1" viewBox="0 0 48 48" xmlns="http://www.w3.org/2000/svg">
 <defs>
  <linearGradient id="bg" x2="0" y1="1" y2="47" gradientUnits="userSpaceOnUse">
   <stop style="stop-color:#45439d" offset="0"/>
   <stop style="stop-color:#3f3d8f" offset="1"/>
  </linearGradient>
 </defs>
 <path d="m1 43v0.25c0 2.22 1.78 4 4 4h38c2.22 0 4-1.78 4-4v-0.25c0 2.22-1.78 4-4 4h-38c-2.22 0-4-1.78-4-4zm0 0.5v0.5c0 2.22 1.78 4 4 4h38c2.22 0 4-1.78 4-4v-0.5c0 2.22-1.78 4-4 4h-38c-2.22 0-4-1.78-4-4z" style="opacity:.02"/>
 <path d="m1 43.2v0.25c0 2.22 1.78 4 4 4h38c2.22 0 4-1.78 4-4v-0.25c0 2.22-1.78 4-4 4h-38c-2.22 0-4-1.78-4-4z" style="opacity:.05"/>
 <path d="m1 43v0.25c0 2.22 1.78 4 4 4h38c2.22 0 4-1.78 4-4v-0.25c0 2.22-1.78 4-4 4h-38c-2.22 0-4-1.78-4-4z" style="opacity:.1"/>
 <rect x="1" y="1" width="46" height="46" rx="4" style="fill:url(#bg)"/>
 <path d="m1 39v4c0 2.22 1.78 4 4 4h38c2.22 0 4-1.78 4-4v-4c0 2.22-1.78 4-4 4h-38c-2.22 0-4-1.78-4-4z" style="opacity:.1"/>
 <path d="m25.7 9c-4.05 0.0024-7.9 1.8-10.7 4.77-5.24 5.61-5.39 14.3-0.35 20.1 1.45 1.66 3.25 2.98 5.27 3.86l1.37-3.77c-2.72-1.28-4.79-3.61-5.75-6.45-1.5-4.49 0.0345-9.43 3.81-12.3l6.62 8.79c0 2e-3 9-12 9-12-2.68-2.02-6-3-9.3-3zm6.61 24c-0.514 0.356-1.06 0.668-1.62 0.932l1.38 3.78c0.894-0.39 1.75-0.866 2.55-1.42zm-3.5 1.62c-0.59 0.159-1.19 0.268-1.8 0.326v4.01c1.08-0.0736 2.14-0.263 3.17-0.564zm-5.6 0.0059-1.37 3.77c1.03 0.303 2.1 0.493 3.17 0.568v-4.01c-0.609-0.0584-1.21-0.168-1.8-0.326z" style="opacity:.1"/>
 <path d="m25.7 8c-4.05 0.0024-7.9 1.8-10.7 4.77-5.24 5.61-5.39 14.3-0.35 20.1 1.45 1.66 3.25 2.98 5.27 3.86l1.37-3.77c-2.72-1.28-4.79-3.61-5.75-6.45-1.5-4.49 0.0345-9.43 3.81-12.3l6.62 8.79c0 2e-3 9-12 9-12-2.68-2.02-6-3-9.3-3zm6.61 24c-0.514 0.356-1.06 0.668-1.62 0.932l1.38 3.78c0.894-0.39 1.75-0.866 2.55-1.42zm-3.5 1.62c-0.59 0.159-1.19 0.268-1.8 0.326v4.01c1.08-0.0736 2.14-0.263 3.17-0.564zm-5.6 0.0059-1.37 3.77c1.03 0.303 2.1 0.493 3.17 0.568v-4.01c-0.609-0.0584-1.21-0.168-1.8-0.326z" style="fill:#7cdce9"/>
</svg>
