<svg xmlns="http://www.w3.org/2000/svg" viewBox="0 0 48 48">
  <defs>
    <linearGradient id="a" x2="0" y1="1" y2="47" gradientUnits="userSpaceOnUse">
      <stop style="stop-color:#106046;stop-opacity:1" offset="0"/>
      <stop style="stop-color:#0d4f38;stop-opacity:1" offset="1"/>
    </linearGradient>
  </defs>
  <path d="M1 43v.25c0 2.216 1.784 4 4 4h38c2.216 0 4-1.784 4-4V43c0 2.216-1.784 4-4 4H5c-2.216 0-4-1.784-4-4zm0 .5v.5c0 2.216 1.784 4 4 4h38c2.216 0 4-1.784 4-4v-.5c0 2.216-1.784 4-4 4H5c-2.216 0-4-1.784-4-4z" style="opacity:.02"/>
  <path d="M1 43.25v.25c0 2.216 1.784 4 4 4h38c2.216 0 4-1.784 4-4v-.25c0 2.216-1.784 4-4 4H5c-2.216 0-4-1.784-4-4z" style="opacity:.05"/>
  <path d="M1 43v.25c0 2.216 1.784 4 4 4h38c2.216 0 4-1.784 4-4V43c0 2.216-1.784 4-4 4H5c-2.216 0-4-1.784-4-4z" style="opacity:.1"/>
  <rect x="1" y="1" width="46" height="46" rx="4" style="fill:url(#a)"/>
  <path fill="#062118" fill-opacity="0.1647" d="M1 39v4c0 2.216 1.784 4 4 4h38c2.216 0 4-1.784 4-4v-4c0 2.216-1.784 4-4 4H5c-2.216 0-4-1.784-4-4z"/>
  <path fill="#062118" fill-opacity="0.1647" d="M26 9.3v6.085a9 9 0 0 1 7 8.765 9 9 0 0 1-7 8.764v6.084A15 15 0 0 0 39 24.15 15 15 0 0 0 26 9.3Zm-4 .003A15 15 0 0 0 9 24.15 15 15 0 0 0 22 39Z"/>
  <path fill="#5bb193" d="M22 8.303A15 15 0 0 0 9 23.15 15 15 0 0 0 22 38Z"/>
  <path fill="#ecf0ef" d="M26 8.3v6.085a9 9 0 0 1 7 8.765 9 9 0 0 1-7 8.764v6.084A15 15 0 0 0 39 23.15 15 15 0 0 0 26 8.3Z"/>
</svg>
