<svg version="1.1" viewBox="0 0 48 48" xmlns="http://www.w3.org/2000/svg">
 <defs>
  <linearGradient id="bg" x2="0" y1="1" y2="47" gradientUnits="userSpaceOnUse">
   <stop stop-color="#cbbc86" offset="0"/>
   <stop stop-color="#c2b070" offset="1"/>
  </linearGradient>
 </defs>
 <path d="m1 43v0.25c0 2.216 1.784 4 4 4h38c2.216 0 4-1.784 4-4v-0.25c0 2.216-1.784 4-4 4h-38c-2.216 0-4-1.784-4-4zm0 0.5v0.5c0 2.216 1.784 4 4 4h38c2.216 0 4-1.784 4-4v-0.5c0 2.216-1.784 4-4 4h-38c-2.216 0-4-1.784-4-4z" opacity=".02"/>
 <path d="m1 43.25v0.25c0 2.216 1.784 4 4 4h38c2.216 0 4-1.784 4-4v-0.25c0 2.216-1.784 4-4 4h-38c-2.216 0-4-1.784-4-4z" opacity=".05"/>
 <path d="m1 43v0.25c0 2.216 1.784 4 4 4h38c2.216 0 4-1.784 4-4v-0.25c0 2.216-1.784 4-4 4h-38c-2.216 0-4-1.784-4-4z" opacity=".1"/>
 <rect x="1" y="1" width="46" height="46" rx="4" fill="url(#bg)"/>
 <path d="m1 39v4c0 2.216 1.784 4 4 4h38c2.216 0 4-1.784 4-4v-4c0 2.216-1.784 4-4 4h-38c-2.216 0-4-1.784-4-4z" opacity=".1"/>
 <path d="m24 28 2 5-2 3-2-3zm12-15v1l-12 12-12-12v-1l12 8zm-20.086 8.125a5 5 0 0 0-3.9141 4.875 5 5 0 0 0 5 5 5 5 0 0 0 4.875-3.9082 4.25 4.25 0 0 1-2.625 0.9082 4.25 4.25 0 0 1-4.25-4.25 4.25 4.25 0 0 1 0.91406-2.625zm16.178 0a4.25 4.25 0 0 1 0.9082 2.625 4.25 4.25 0 0 1-4.25 4.25 4.25 4.25 0 0 1-2.625-0.91406 5 5 0 0 0 4.875 3.9141 5 5 0 0 0 5-5 5 5 0 0 0-3.9082-4.875z" style="opacity:.1"/>
 <path d="m12 12v1l12 12 12-12v-1l-12 8-12-8zm3.9141 8.125a5 5 0 0 0-3.9141 4.875 5 5 0 0 0 5 5 5 5 0 0 0 4.875-3.9082 4.25 4.25 0 0 1-2.625 0.9082 4.25 4.25 0 0 1-4.25-4.25 4.25 4.25 0 0 1 0.91406-2.625zm16.178 0a4.25 4.25 0 0 1 0.9082 2.625 4.25 4.25 0 0 1-4.25 4.25 4.25 4.25 0 0 1-2.625-0.91406 5 5 0 0 0 4.875 3.9141 5 5 0 0 0 5-5 5 5 0 0 0-3.9082-4.875zm-8.0918 6.875-2 5 2 3 2-3-2-5z" style="fill:#643d16"/>
</svg>
