<svg version="1.1" viewBox="0 0 48 48" xmlns="http://www.w3.org/2000/svg">
 <defs>
  <linearGradient id="bg" x2="0" y1="1" y2="47" gradientUnits="userSpaceOnUse">
   <stop style="stop-color:#f0aaaa" offset="0"/>
   <stop style="stop-color:#ed9999" offset="1"/>
  </linearGradient>
 </defs>
 <path d="m1 43v0.25c0 2.216 1.784 4 4 4h38c2.216 0 4-1.784 4-4v-0.25c0 2.216-1.784 4-4 4h-38c-2.216 0-4-1.784-4-4zm0 0.5v0.5c0 2.216 1.784 4 4 4h38c2.216 0 4-1.784 4-4v-0.5c0 2.216-1.784 4-4 4h-38c-2.216 0-4-1.784-4-4z" style="opacity:.02"/>
 <path d="m1 43.25v0.25c0 2.216 1.784 4 4 4h38c2.216 0 4-1.784 4-4v-0.25c0 2.216-1.784 4-4 4h-38c-2.216 0-4-1.784-4-4z" style="opacity:.05"/>
 <path d="m1 43v0.25c0 2.216 1.784 4 4 4h38c2.216 0 4-1.784 4-4v-0.25c0 2.216-1.784 4-4 4h-38c-2.216 0-4-1.784-4-4z" style="opacity:.1"/>
 <rect x="1" y="1" width="46" height="46" rx="4" style="fill:url(#bg)"/>
 <path d="m1 39v4c0 2.216 1.784 4 4 4h38c2.216 0 4-1.784 4-4v-4c0 2.216-1.784 4-4 4h-38c-2.216 0-4-1.784-4-4z" style="opacity:.1"/>
 <path d="m12 11v26h24v-26z" style="opacity:.1"/>
 <path d="m12 29v7h24v-7" style="fill:#cf4a49"/>
 <path d="m13 31v4h23v-4" style="fill:#f5f3e3"/>
 <path d="m12 10v20h24v-20" style="fill:#e55d5c"/>
 <path d="m13 31.996v1h23v-1zm0 2.0039v1h23v-1z" style="opacity:.18"/>
 <path d="m16 10h-4v26h4v-1h-3v-4h3" style="fill:#414141"/>
 <path d="m16 30h-4v6h4v-1h-3v-4h3" style="fill:#383838"/>
 <path d="m24 14-5 13h2.5l1.3457-4h4.3086l1.3457 4h2.5l-5-13zm1 2.7 1.4805 4.3h-2.9609z" style="fill:#414141;paint-order:normal"/>
</svg>
