<svg xmlns="http://www.w3.org/2000/svg" version="1.1" viewBox="0 0 48 48">
 <defs>
  <linearGradient id="bg" x2="0" y1="1" y2="47" gradientUnits="userSpaceOnUse">
   <stop style="stop-color:#5a5a5a" offset="0"/>
   <stop style="stop-color:#505050" offset="1"/>
  </linearGradient>
  <linearGradient id="linearGradient4247" gradientUnits="userSpaceOnUse" x2="0" gradientTransform="matrix(.65209 0 0 .65215 8.3512 7.3485)" y1="47" y2="1">
   <stop style="stop-color:#8597bb" offset="0"/>
   <stop style="stop-color:#92a2c2" offset="1"/>
  </linearGradient>
  <linearGradient id="linearGradient4255" gradientUnits="userSpaceOnUse" x2="0" gradientTransform="matrix(.65209 0 0 .65215 8.3512 7.3485)" y1="47" y2="1">
   <stop style="stop-color:#7786a2" offset="0"/>
   <stop style="stop-color:#8290aa" offset="1"/>
  </linearGradient>
  <linearGradient id="linearGradient3764" x2="47" gradientUnits="userSpaceOnUse" x1="1" gradientTransform="matrix(0 -.65215 .65209 0 8.3512 38.651)">
   <stop style="stop-color:#3b568d" offset="0"/>
   <stop style="stop-color:#41609c" offset="1"/>
  </linearGradient>
 </defs>
 <path style="opacity:.02" d="m1 43v0.25c0 2.216 1.784 4 4 4h38c2.216 0 4-1.784 4-4v-0.25c0 2.216-1.784 4-4 4h-38c-2.216 0-4-1.784-4-4zm0 0.5v0.5c0 2.216 1.784 4 4 4h38c2.216 0 4-1.784 4-4v-0.5c0 2.216-1.784 4-4 4h-38c-2.216 0-4-1.784-4-4z"/>
 <path style="opacity:.05" d="m1 43.25v0.25c0 2.216 1.784 4 4 4h38c2.216 0 4-1.784 4-4v-0.25c0 2.216-1.784 4-4 4h-38c-2.216 0-4-1.784-4-4z"/>
 <path style="opacity:.1" d="m1 43v0.25c0 2.216 1.784 4 4 4h38c2.216 0 4-1.784 4-4v-0.25c0 2.216-1.784 4-4 4h-38c-2.216 0-4-1.784-4-4z"/>
 <rect style="fill:url(#bg)" rx="4" height="46" width="46" y="1" x="1"/>
 <path style="opacity:.1" d="m1 39v4c0 2.216 1.784 4 4 4h38c2.216 0 4-1.784 4-4v-4c0 2.216-1.784 4-4 4h-38c-2.216 0-4-1.784-4-4z"/>
 <circle r="15" style="opacity:.1" cx="24" cy="24"/>
 <path style="stroke-width:.65212;fill:url(#linearGradient3764)" d="m24.001 8.0006c-1.0838 0-2.1395 0.11804-3.1587 0.33651-3.372 8.6188-6.5959 8.7994-10.865 9.3439-0.50798 1.3389-0.82946 2.7697-0.93379 4.2605 2.3573 6.3904 8.065 10.651 11.764 15.665 0.27649 0.16369 0.80729 0.1963 1.1157 0.24586 0.64426-0.41476 0.90575-0.13956 2.0926 0.14673 8.2763-0.0085 14.983-6.7204 14.983-14.999 0-0.11478-0.0065-0.2276-0.0091-0.34107-6.739-8.118-9.5-10.932-11.597-14.27-1.09-0.2524-2.224-0.39-3.391-0.39m14.989 14.658c-0.0046-0.20412-0.01174-0.40694-0.02413-0.6091 0.01239 0.20151 0.01956 0.40498 0.02413 0.6091zm-5.533-11.299c-0.27975 1.3512 0.11672 1.3552 1.0225 0.91431-0.32735-0.31955-0.66774-0.62541-1.0225-0.91431m-21.131 2.229c-0.55754 0.69127-1.057 1.4321-1.4868 2.216 0.58232 1.0897 2.146-2.0986 1.4868-2.216m25.692 4.0824c-4.4101-0.46368-0.06195 5.5882 0.94488 4.3713-0.09651-1.5312-0.42321-2.9992-0.94488-4.3713m-23.928 16.585c0.73751 0.64954 1.5389 1.2273 2.3945 1.7236 9.1618-9.0413-3.0146-9.6185-2.3945-1.7236"/>
 <path style="opacity:.1;stroke-width:.65212" d="m20.154 8.6397c-0.23019 0.0026-0.4669 0.0313-0.70556 0.06783-0.97292 0.30977-1.9008 0.71736-2.7766 1.2091 0.07695 0.05935 0.19497 0.10173 0.35669 0.11739-1.1346 0.06457-1.6146 1.2443-2.7218 1.5286-0.30257 0.25695-0.59666 0.52302-0.87771 0.80214-0.42973 0.99322-0.25497 2.1997-1.001 3.187-0.06064 1.0447-1.3107 1.1484-1.717 0.50411-0.27453 0.52498-0.51906 1.0676-0.73099 1.6265 0.21519-0.16434 1.3479 1.4269 0.94488 2.0008 1.2057-1.7034 1.2018 1.2991 0.31235 1.5593 1.1777 1.1634 2.5484 2.2095 3.2468 3.7701 0.15911 1.556 3.147 0.13434 2.2236-0.23803-0.77403 0.42715-0.82946 0.18912-0.36452-0.37956-1.0029 0.27194-0.95335 0.28368-0.76294-0.47281-0.58753-0.80931-0.60775-1.5293-0.55754-2.3777 1.0127 0.16499 1.4268-2.0497 2.328-0.57715 0.71338-0.8217 1.8395-0.5328 1.8278-1.7732 0.36191 0.1826 2.474 0.71932 1.7652-0.77214 0.08803-0.79953 0.95596 1.3975 1.3511-0.15912 1.1086-0.86409 1.1301-2.8544-0.60514-2.0849-2.0234-0.3339-0.48124-1.9506-0.0065-2.9334 1.1346-0.18195 1.0629-1.108 0.04304-1.0382-0.72512-0.77475-0.39321-2.109 0.42255-2.514-0.48972-0.8204-1.2057-1.0597-1.996-1.0519zm8.8951 0.23282c-1.3642 0.44085-3.8095-0.27847-3.3889 2.1729-0.20345 1.6049-0.79164 0.43629-1.3603-0.02152-0.63514-0.51193-1.5402-0.88431-2.1297 0.2889 0.32604 0.40563 1.1653-0.59867 1.4431 0.60389 1.1881-0.22173 0.5921 1.5951 2.0482 1.0943 0.42777 1.3819 0.51515 2.9901 0.32735 4.0374-1.5344-1.2052-0.65861 2.2036-2.429 2.0073-1.0675-0.19369-2.9109 0.45911-1.5513 1.5006-0.60253 0.69649 0.80468 1.0108 0.13107 1.5593 0.85815 0.63258-0.72969 0.91105-1.1503 0.56802-1.0942 0.56932 0.03978 2.8486-1.3042 1.1908 0.04108 1.0545 2.0078 2.1958 2.4453 2.7018 0.64883-0.74801 2.176 0.14412 2.1343-1.5195 0.65209-2.3901 2.6866 0.90257 3.3993-1.4569 0.2817-2.2558-3.2409 0.20999-3.2735-2.349 0.56862-1.3349 1.981-1.8782 2.9494-1.0089 0.59536-1.2469 1.3316 1.2795 1.7248-0.09456-1.3172-0.85757 1.8193-0.27325 0.62927-1.6291-0.41342-0.79497 1.715-1.0995 0.1552-1.4341 1.2077-0.81062 0.58036-0.8517-0.14542-1.4569 0.68665-0.23869 3.4196-0.973 1.88 0.04956-1.0062 2.1658 2.0599 5.7976 3.5611 5.0985 2.2256-0.81518 0.59014 2.3523 2.2034 2.3295 0.67035-0.3189 1.0838 0.65867 1.638 0.44085 0.0065-0.18195 0.01369-0.36325 0.01369-0.5465 0-0.1226-0.0059-0.2439-0.0091-0.36585-0.73816-0.55693-0.90706-2.6418-0.77664-3.8072 0.0033-0.15651 0.03978-0.26477 0.09325-0.34368-0.65861-2.0875-1.76-3.9774-3.1952-5.5595-0.1265-0.0065-0.27257-0.0476-0.45581-0.15652-0.302-0.299-0.489-0.612-0.636-0.927-1.436-1.289-3.121-2.3045-4.974-2.9664zm-5.4599 4.867c-0.81642-0.0039-1.6433 0.2902-0.66709 0.67367 0.47472-0.01956 0.82359 0.98018 1.2722 0.43694 1.0179-0.80605 0.21193-1.1073-0.60514-1.1106zm-13.643 4.028c-0.54254 1.4575-0.86402 3.0227-0.92597 4.6544-0.00261 0.32086-0.00261 0.64171-0.00522 0.96322 0.11738 4.6459 2.3456 8.7642 5.7632 11.435 0.24714-0.55954 0.77273-0.93387 1.1079-0.4115-0.06586-0.86148 0.03-1.3623 0.99574-0.63062 0.66513 0.07761 2.4336 0.71084 1.6915 1.1654-0.62927-1.0206-1.6602-0.35086-0.55297 0.41933-0.14607 0.31499-0.50472 0.65867-0.75251 1.0369 1.2194 0.61432 2.5334 1.0669 3.9125 1.3297 0.13107-0.50085 1.7932-0.3965 0.4519-0.91431-1.6139-0.1813-2.6044-1.9845-0.92988-2.7273-1.0531-1.4928 1.5454-3.1668 1.1855-0.70692-0.14085 1.7217 2.045 2.5923 3.293 3.3833 0.76816-0.03456 1.5063-1.3904 1.9563-0.43042 1.3107 0.02543-0.49037-1.2704 0.98857-1.2867 1.4522-0.30846 0.37104-2.3432-0.55558-2.2662-0.81642-1.2678 0.65209-4.3622-1.7293-3.2164-0.36582-0.95083-0.30583-1.6421-1.4874-1.7158-0.71143-0.67758-2.4655-2.214-1.6491-0.11869 0.32148 1.1132 2.4864 2.6086 1.2774 3.4159-0.66774-1.1354-2.4636-1.6304-3.0772-2.2695-0.18976 1.421-1.1164-0.96192 0.06782-0.84192 0.19758-1.1947-1.1262-2.0125-1.3994-0.66388-0.57188-0.08087-2.817-0.7891-1.1548 0.28434 1.5187 1.2397-3.027-0.01565-0.98205-0.50411 0.57645-1.543-3.4645-1.3173-2.5268 0.6215-0.27453 0.88235-1.5898-1.1047-2.5092-0.65215 0.11803-0.8817 0.87576-2.3295 0.19758-2.7384-1.0564-0.22499 1.1842-0.75062-0.19889-0.86475-0.336-1.403-1.701-1.671-2.6292-0.853-1.2025-0.93 0.5742-3.062 0.2652-4.454-0.0742-0.218-0.0989-0.357-0.0937-0.444zm8.8149 11.778c0.25497 0.0065 0.46885 0.28955 0.4995 1.0421 0.02804 0.3352 0.05673 1.3173-0.51319 1.1517-1.7059-0.11674-0.69121-2.2114 0.01369-2.1932zm2.0899 5.3359c-0.03587 0.0085 0.04369 0.15065 0.31105 0.59215-1.3309 1.3395 3.1907 0.85953 1.5285 2.351-0.015 0.03326-0.02217 0.075-0.03456 0.11217 0.2804 0.02478 0.56275 0.04173 0.84706 0.05086-0.05673-0.30586 0.20345-0.83148 0.66839-1.1132-0.60253-0.68932-1.5885-1.6199-2.341-1.7106-0.41799 0.17477-0.91032-0.29868-0.97944-0.28303zm3.8499 2.9268c-0.11477 0.08348-0.20215 0.12521-0.29931 0.18195 0.13172-0.0033 0.2641-0.0033 0.39451-0.01043-0.03391-0.0587-0.04695-0.10239-0.0952-0.17217z"/>
 <path style="stroke-width:.65212;fill:url(#linearGradient4247)" d="m20.845 8.3372c-3.4156 0.73236-6.3989 2.6281-8.5163 5.2498-0.09912 0.45389-0.24388 0.90192-0.55297 1.3108-0.03586 0.61497-0.48646 0.90192-0.93379 0.90583-0.3293 0.60128-0.61622 1.228-0.86206 1.8762 0.28431 0.46433 0.50602 1.0467 0.29279 1.3499 1.2057-1.7034 1.2018 1.2991 0.31235 1.5593 1.1777 1.1634 2.5484 2.2095 3.2468 3.7701 0.15911 1.556 3.147 0.13434 2.2236-0.23803-0.77403 0.42716-0.82946 0.18912-0.36452-0.37955-1.0029 0.27194-0.95335 0.28368-0.76294-0.47281-0.58753-0.80931-0.60775-1.5293-0.55754-2.3777 1.0127 0.16499 1.4268-2.0497 2.328-0.57715 0.71339-0.8217 1.8395-0.5328 1.8278-1.7732 0.36191 0.1826 2.474 0.71932 1.7652-0.77214 0.08803-0.79953 0.95596 1.3975 1.3511-0.15912 1.1086-0.86409 1.1301-2.8544-0.60514-2.0849-2.0234-0.3339-0.48124-1.9506-0.0065-2.9334 1.1346-0.18195 1.0629-1.108 0.04304-1.0382-0.725-0.774-0.393-2.1082 0.423-2.5131-0.187-0.3137-0.408-0.5407-0.652-0.7031zm6.547 0.05348c-1.2905 0.10956-2.7166 0.08543-2.3879 2.0034-0.20345 1.6049-0.79164 0.43628-1.3603-0.02152-0.63513-0.51194-1.5402-0.88431-2.1297 0.2889 0.32604 0.40563 1.1653-0.59867 1.4431 0.60389 1.1881-0.22173 0.5921 1.5951 2.0482 1.0943 0.42777 1.3819 0.51515 2.9901 0.32735 4.0374-1.5344-1.2052-0.65861 2.2036-2.429 2.0073-1.0675-0.19369-2.9109 0.45911-1.5513 1.5006-0.60253 0.69649 0.80468 1.0108 0.13107 1.5593 0.85815 0.63258-0.72969 0.91105-1.1503 0.56802-1.0942 0.56932 0.03978 2.8486-1.3042 1.1908 0.04108 1.0545 2.0078 2.1958 2.4453 2.7018 0.64883-0.74801 2.176 0.14412 2.1343-1.5195 0.65209-2.3901 2.6866 0.90257 3.3993-1.4569 0.2817-2.2558-3.2409 0.20999-3.2735-2.349 0.56862-1.3349 1.981-1.8782 2.9494-1.0089 0.59536-1.2469 1.3316 1.2795 1.7248-0.09456-1.3172-0.85757 1.8193-0.27325 0.62927-1.6291-0.41342-0.79497 1.715-1.0995 0.1552-1.4341 1.2077-0.81062 0.58036-0.8517-0.14542-1.4569 0.68665-0.23869 3.4196-0.973 1.88 0.04956-1.0062 2.1658 2.0599 5.7976 3.5611 5.0985 2.2256-0.81518 0.59014 2.3523 2.2034 2.3295 0.81511-0.38803 1.2494 1.1432 2.0202 0.10956 0.10694 0.05283 0.19041 0.0737 0.27518 0.09521-0.0046-0.20673-0.01109-0.41216-0.02413-0.61628-0.08999 0.0085-0.18715 0.0313-0.2967 0.07891-1.0199-0.11021-1.2559-2.6216-1.1079-3.9455 0.0085-0.39259 0.2028-0.49759 0.45972-0.50411-0.78055-2.053-1.998-3.8894-3.5408-5.3965-0.13042-0.002-0.28431-0.04434-0.47733-0.15912-0.245-0.247-0.41-0.501-0.545-0.757-1.74-1.4163-3.805-2.4467-6.065-2.9697m-4.459 4.6974c-0.81642-0.0039-1.6433 0.2902-0.66709 0.67367 0.47472-0.01956 0.82359 0.98017 1.2722 0.43694 1.0179-0.80605 0.21193-1.1073-0.60514-1.1106zm-12.665 8.4662c-0.3929-0.001-0.8024 0.152-1.1499 0.46-0.0294-0.023-0.0496-0.049-0.075-0.073-0.0241 0.35-0.0411 0.703-0.0411 1.059 0 4.4848 1.9693 8.5105 5.0896 11.256 0.22823-0.60584 0.78642-1.0467 1.1385-0.49824-0.06586-0.86148 0.03-1.3623 0.99574-0.63062 0.66513 0.07761 2.4336 0.71084 1.6915 1.1654-0.62927-1.0206-1.6602-0.35086-0.55297 0.41933-0.17541 0.37759-0.65209 0.79562-0.87902 1.2671 1.3283 0.77084 2.7851 1.3447 4.3318 1.6786-0.0046-0.02021-0.0052-0.02934-0.01043-0.05086-1.2161-1.1289 1.8598-0.79106 0.17215-1.4432-1.6139-0.1813-2.6044-1.9845-0.92988-2.7273-1.0531-1.4928 1.5454-3.1668 1.1855-0.70692-0.14085 1.7217 2.045 2.5923 3.293 3.3833 0.76816-0.03456 1.5063-1.3904 1.9563-0.43042 1.3107 0.02543-0.49037-1.2704 0.98857-1.2867 1.4522-0.30846 0.37104-2.3432-0.55558-2.2662-0.81642-1.2678 0.65209-4.3622-1.7293-3.2164-0.36582-0.95083-0.30583-1.6421-1.4874-1.7158-0.71143-0.67758-2.4655-2.214-1.6491-0.11869 0.32148 1.1132 2.4864 2.6086 1.2774 3.4159-0.66774-1.1354-2.4636-1.6304-3.0772-2.2695-0.18976 1.421-1.1164-0.96191 0.06782-0.84192 0.19758-1.1947-1.1262-2.0125-1.3994-0.66388-0.57188-0.08087-2.817-0.7891-1.1548 0.28434 1.5187 1.2397-3.027-0.01565-0.98205-0.50411 0.57645-1.543-3.4645-1.3173-2.5268 0.6215-0.27453 0.88235-1.5898-1.1047-2.5092-0.65215 0.11803-0.8817 0.87576-2.3295 0.19758-2.7384-1.0564-0.22499 1.1842-0.75062-0.19889-0.86475-0.20867-0.87648-0.82098-1.3108-1.4763-1.3108zm7.8381 7.3379c0.25497 0.0065 0.46885 0.28955 0.4995 1.0421 0.02804 0.3352 0.05673 1.3173-0.51319 1.1517-1.7059-0.11674-0.69121-2.2114 0.01369-2.1932zm2.0899 5.3359c-0.03587 0.0085 0.04369 0.15065 0.31105 0.59215-1.3309 1.3395 3.1907 0.85953 1.5285 2.351-0.08412 0.19043-0.11868 0.4402-0.11086 0.68149 0.68 0.093 1.372 0.146 2.078 0.146h0.01369c0.2967-0.07891 0.44277-0.25499 0.03065-0.84453-1.5715 1.1452-1.4528-0.37368-0.53014-0.93387-0.60253-0.68932-1.5885-1.6199-2.341-1.7106-0.41799 0.17477-0.91032-0.29868-0.97944-0.28303z"/>
 <path style="stroke-width:.65212;fill:url(#linearGradient4255)" d="m26.925 8.463c-2.0463 1.1126-1.8043 2.6399-1.6113 3.5731 0.05608 0.96844 0.8275 3.3899 2.1675 2.216 0.34626-0.04957 1.6667 0.43563 2.4949 0.1989 1.0362-1.003 2.2712-0.29151 1.1731 0.98604-0.64296 0.55889 1.5715 4.4026 3.8486 4.3244 0.80794-0.62606 0.78055 0.10304 1.2429 0.44085 0.70034 0.35672 1.1907 0.0476 1.0662-0.76171 0.19367-0.70888 0.47602-2.7481-0.6723-1.5071 0.09846-0.75714 0.63579-0.74019 1.2455-0.62019-0.72643-1.7706-1.7815-3.3703-3.0896-4.7254-0.39582-0.02478-0.81576-0.14282-1.192-0.33129-0.03326-0.3502-0.33517-0.79757-0.62274-1.2749l-0.0013-0.0013c-1.012-0.75649-2.1239-1.3852-3.31-1.8697 0.19237 0.54324 0.38734 1.0897 0.27257 1.4034-0.79816-0.51324-0.82228 0.1963 0.14672 0.54911-0.20606 0.11739-0.73686 0.93518-0.06521 1.4393 0.76555 0.79953-0.0052 0.76236-0.40234 1.1693-0.97748-0.38803-0.38734-2.5981-0.62144-3.6455-0.0072-2.1866-1.6067-0.17021-2.8392-0.31303-1.0283-0.31173 1.5441-0.38803 0.76946-1.2495zm-10.869 1.8162c-0.74795 0.46824-1.4522 0.99844-2.1043 1.5873-0.30779 0.29803-0.60383 0.60584-0.7173 1.0702 0.79229-0.06 0.64622 1.4862 1.5168 0.59345 1.4522 0.96387-1.0023 1.0597-0.96444 2.0164 0.75642 0.3665 1.4802-0.6391 2.206-0.81649 1.4144-0.36781 0.62731-1.3904 0.34104-2.1821 1.567-0.20999 0.77012-1.8638-0.27909-2.2688zm3.401 1.091c-0.31366 0.08478 0.24714 1.1458-0.18063 1.6558 0.40364 0.49628 2.2191-0.85301 0.85619-1.3591-0.36843-0.24521-0.57058-0.32477-0.67491-0.29673zm6.652 4.8885c-0.5934-0.03717-1.0681 0.24977-0.90966 1.0395 0.78512-0.65867 0.41734 0.4089 0.08021 0.68149-1.5018 0.41737 0.42321 0.99452 1.1118 0.80214 0.56927 0.07696 2.4995-0.20869 1.4978-1.1667-0.05804-0.72845-1.0173-1.3108-1.7802-1.3565zm2.4049 0.66584c-0.17541-0.01369-0.28366 0.13826-0.01174 0.62932 0.78381-0.12652 0.30387-0.60715 0.01174-0.62932zm-4.6677 1.783c-0.53667-0.03717-1.2827 0.3639-1.1809 1.0115-0.51385 0.88757-1.2787 2.964 0.02804 3.4251 0.46103 0.16238 2.5034 0.28173 1.8265-0.93844-0.82685 0.4415-1.0942-0.10043-1.0799-1.02-1.5454-0.80996 0.91358-1.1934 0.83402-2.2877-0.09325-0.11674-0.2491-0.17738-0.42777-0.18978zm-14.529 5.309c-0.080859 0.01304-0.16367 0.06587-0.24975 0.16956-0.00456 0-0.00848 0.0013-0.013042 0.0013 0.030648 0.39324 0.074338 0.78258 0.13498 1.1667 0.4995-0.35346 1.1861 0.01565 0.21128 0.59345-0.037821 0.03652-0.057384 0.06587-0.088032 0.09913 0.050863 0.24586 0.10955 0.48976 0.17215 0.73106 0.68339 0.16238 1.9067 0.01956 1.0407 0.55302-0.93575 0.77801 1.089-0.05477 0.76294 0.67888-0.83728 0.1963 0.15194 1.9499-0.73751 1.4458 0.09455-0.15978-0.11412-0.45389-0.40103-0.6978 0.76425 1.8377 1.8832 3.4909 3.2735 4.8735 0.06977-0.07631 0.03782-0.24977-0.16302-0.58106 0.60449 0.4102 1.8558 0.26216 1.9693-0.84974-1.0968-0.36977 0.80598-0.95735 0.64948-0.06848-0.10759 1.2802 0.65861-0.22369 1.0101 0.3489-0.97422 1.1321 1.5168 0.04434 1.1516 1.2443 0.93379 0.63062-0.31561 0.69975-1.1222 2.214-0.04369 0.08283-0.07564 0.15717-0.10042 0.22956 1.0492 0.57389 2.1741 1.0245 3.3556 1.3362 0.12129-0.1839 0.16106-0.42585 0.0952-0.76823 0.92205-0.44346-0.66057-0.5791-1.1359-1.0128-1.9263-0.97887 1.4626-2.128 0.313-3.114-0.78512-0.22564-1.267-1.4269-1.9758-0.94235-0.87836 0.75258-0.19432-0.50737-1.1007-0.40107-1.3205-0.48128-0.28822-2.8205-1.9256-3.1016-1.4281-0.16043-0.38669 1.4634-0.33648 1.811-0.95596 0.04108-0.61166-2.2773-1.6876-2.5871-1.4581 0.11347-1.2292-1.3043-0.95922-2.3934-1.0949 0.73366-1.5781-1.0708-2.1434-0.97822zm14.045 3.267c-0.67491-0.07565-0.33583 1.9695 0.7349 1.2671-0.23345 1.2736 0.52363 2.2166 1.7078 2.6634 0.69774 1.571-1.4372-0.59345-1.7515 0.5302-1.1646 1.1373 1.5246 1.2906 0.64557 2.081-1.1633-0.84388-1.0714 1.1947-0.18845 1.4289l0.29148 0.06522 0.313-0.03717c0.78838-0.56411 3.0466-0.93452 2.3599-2.1606-1.6648-0.46954-0.1402-3.5516-2.2145-2.9451-0.74077-0.83083-0.16433-2.6008-1.5461-2.7181-0.1389-0.11152-0.25627-0.16499-0.35278-0.17608zm-4.1636 1.7014c-0.11216 0.0039-0.24062 0.08935-0.39386 0.29542 0.54384 0.6378-0.41016 1.7738 0.44929 2.3373 0.63187 0.7291 0.64426-0.07174 0.32735-0.41933 0.41147 0.01826 1.6537-0.29607 1.0877-1.0037-0.7799 0.27325-0.984-1.228-1.4711-1.2097z"/>
</svg>
