<svg viewBox="0 0 48 48">
  <defs>
    <linearGradient id="a" x1="1" x2="47" gradientUnits="userSpaceOnUse" gradientTransform="translate(-48 .002)">
      <stop stop-color="#767676"/>
      <stop offset="1" stop-color="gray"/>
    </linearGradient>
    <clipPath id="b"/>
    <clipPath id="c"/>
  </defs>
  <path d="M1 43v.25c0 2.216 1.784 4 4 4h38c2.216 0 4-1.784 4-4V43c0 2.216-1.784 4-4 4H5c-2.216 0-4-1.784-4-4zm0 .5v.5c0 2.216 1.784 4 4 4h38c2.216 0 4-1.784 4-4v-.5c0 2.216-1.784 4-4 4H5c-2.216 0-4-1.784-4-4z" opacity=".02"/>
  <path d="M1 43.25v.25c0 2.216 1.784 4 4 4h38c2.216 0 4-1.784 4-4v-.25c0 2.216-1.784 4-4 4H5c-2.216 0-4-1.784-4-4z" opacity=".05"/>
  <path d="M1 43v.25c0 2.216 1.784 4 4 4h38c2.216 0 4-1.784 4-4V43c0 2.216-1.784 4-4 4H5c-2.216 0-4-1.784-4-4z" opacity=".1"/>
  <rect width="46" height="46" x="-47" y="1" rx="4" transform="rotate(-90)" fill="url(#a)"/>
  <g opacity=".1" clip-path="url(#b)">
    <path d="M11.199 12.05a1.06 1.06 0 0 0-.922 1.027v21.945c0 .539.488 1.027 1.027 1.027h25.348c.539 0 1.031-.488 1.031-1.027V13.077c0-.539-.492-1.027-1.031-1.027H11.199m23.914 1.703c.379 0 .855.477.855.855 0 .379-.477.855-.855.855-.379 0-.855-.48-.855-.855 0-.379.477-.855.855-.855m-23.12 2.57h23.98v17.984h-23.98m0-17.984"/>
    <path d="M13.03 14c-.539 0-1.031.355-1.031.75v18.563c.051.367.527.691 1.031.688h21.938c.539 0 1.031-.355 1.031-.75v-18.5c0-.391-.492-.75-1.031-.75m-18.969 2h18v16h-18m-1-10v4l-2-2m2-2"/>
  </g>
  <g>
    <g clip-path="url(#c)">
      <path d="M11.199 11.05a1.06 1.06 0 0 0-.922 1.027v21.945c0 .539.488 1.027 1.027 1.027h25.348c.539 0 1.031-.488 1.031-1.027V12.077c0-.539-.492-1.027-1.031-1.027H11.199m23.914 1.703c.379 0 .855.477.855.855 0 .379-.477.855-.855.855-.379 0-.855-.48-.855-.855 0-.379.477-.855.855-.855m-23.12 2.57h23.98v17.984h-23.98m0-17.984" fill="#fff"/>
      <path d="M13.03 13c-.539 0-1.031.355-1.031.75v18.563c.051.367.527.691 1.031.688h21.938c.539 0 1.031-.355 1.031-.75v-18.5c0-.391-.492-.75-1.031-.75m-18.969 2h18v16h-18m-1-10v4l-2-2m2-2" fill="#dedede"/>
    </g>
  </g>
  <g>
    <path d="M1 38.998v4c0 2.216 1.784 4 4 4h38c2.216 0 4-1.784 4-4v-4c0 2.216-1.784 4-4 4H5c-2.216 0-4-1.784-4-4z" opacity=".1"/>
  </g>
</svg>
