<svg version="1.1" viewBox="0 0 48 48" xmlns="http://www.w3.org/2000/svg">
 <defs>
  <linearGradient id="bg" x2="0" y1="1" y2="47" gradientUnits="userSpaceOnUse">
   <stop style="stop-color:#7dd4d4" offset="0"/>
   <stop style="stop-color:#6dcfcf" offset="1"/>
  </linearGradient>
 </defs>
 <path d="m1 43v.25c0 2.22 1.78 4 4 4h38c2.22 0 4-1.78 4-4v-.25c0 2.22-1.78 4-4 4h-38c-2.22 0-4-1.78-4-4zm0 .5v.5c0 2.22 1.78 4 4 4h38c2.22 0 4-1.78 4-4v-.5c0 2.22-1.78 4-4 4h-38c-2.22 0-4-1.78-4-4z" style="opacity:.02"/>
 <path d="m1 43.2v.25c0 2.22 1.78 4 4 4h38c2.22 0 4-1.78 4-4v-.25c0 2.22-1.78 4-4 4h-38c-2.22 0-4-1.78-4-4z" style="opacity:.05"/>
 <path d="m1 43v.25c0 2.22 1.78 4 4 4h38c2.22 0 4-1.78 4-4v-.25c0 2.22-1.78 4-4 4h-38c-2.22 0-4-1.78-4-4z" style="opacity:.1"/>
 <rect x="1" y="1" width="46" height="46" rx="4" style="fill:url(#bg)"/>
 <path d="m1 39v4c0 2.22 1.78 4 4 4h38c2.22 0 4-1.78 4-4v-4c0 2.22-1.78 4-4 4h-38c-2.22 0-4-1.78-4-4z" style="opacity:.1"/>
 <path d="m16 18v1.5l2 1.5h-6v6l1.5 2h3l1.5-2v6h6l2-1.5v-3l-2-1.5h6l1.5 2h3l1.5-2 2-1.5v-1.5z" style="opacity:.1"/>
 <path d="m19.5 12-1.5 2-2 1.5v3l2 1.5 6-6-1.5-2zm6 6-1.5 2 3 1 3-1-1.5-2zm10.5 2-6 6 1.5 2h3l1.5-2 2-1.5v-3zm-21 5-3 1 1.5 2h3l1.5-2zm9 1-1 3 1 3 2-1.5v-3z" style="fill:#f9f9f9"/>
 <path d="m18 14v6h-6v6h6v6h6v-6h12v-6h-12v-6z" style="fill:#8484eb"/>
</svg>
