<svg version="1.1" viewBox="0 0 48 48" xmlns="http://www.w3.org/2000/svg">
 <defs>
  <linearGradient id="bg" x2="0" y1="1" y2="47" gradientUnits="userSpaceOnUse">
   <stop style="stop-color:#e54d53" offset="0"/>
   <stop style="stop-color:#e33d44" offset="1"/>
  </linearGradient>
 </defs>
 <path d="m1 43v.25c0 2.22 1.78 4 4 4h38c2.22 0 4-1.78 4-4v-.25c0 2.22-1.78 4-4 4h-38c-2.22 0-4-1.78-4-4zm0 .5v.5c0 2.22 1.78 4 4 4h38c2.22 0 4-1.78 4-4v-.5c0 2.22-1.78 4-4 4h-38c-2.22 0-4-1.78-4-4z" style="opacity:.02"/>
 <path d="m1 43.2v.25c0 2.22 1.78 4 4 4h38c2.22 0 4-1.78 4-4v-.25c0 2.22-1.78 4-4 4h-38c-2.22 0-4-1.78-4-4z" style="opacity:.05"/>
 <path d="m1 43v.25c0 2.22 1.78 4 4 4h38c2.22 0 4-1.78 4-4v-.25c0 2.22-1.78 4-4 4h-38c-2.22 0-4-1.78-4-4z" style="opacity:.1"/>
 <rect x="1" y="1" width="46" height="46" rx="4" style="fill:url(#bg)"/>
 <path d="m1 39v4c0 2.22 1.78 4 4 4h38c2.22 0 4-1.78 4-4v-4c0 2.22-1.78 4-4 4h-38c-2.22 0-4-1.78-4-4z" style="opacity:.1"/>
 <path d="m35 20.5c0 5.25-3.5 9.5-8.5 9.5-3 0-4.5-2-4.5-2 0 3-4 9-9 9 6-7 0-26 13-26 5 0 9 4.25 9 9.5z" style="opacity:.1"/>
 <path d="m35 19.5c0 5.25-3.5 9.5-8.5 9.5-3 0-4.5-2-4.5-2 0 3-4 9-9 9 6-7 0-26 13-26 5 0 9 4.25 9 9.5z" style="fill:#fae3c6"/>
</svg>
