<svg viewBox="0 0 48 48" xmlns="http://www.w3.org/2000/svg">
 <defs>
  <linearGradient id="linearGradient3764" x1="1" x2="47" gradientTransform="translate(-48 .0022147)" gradientUnits="userSpaceOnUse">
   <stop stop-color="#3d3d3d" offset="0"/>
   <stop stop-color="#474747" offset="1"/>
  </linearGradient>
  <clipPath id="clipPath-990558146">
   <g transform="translate(0 -1004.4)">
    <rect x="1" y="1005.4" width="46" height="46" rx="4" fill="#1890d0"/>
   </g>
  </clipPath>
  <clipPath id="clipPath-003606767">
   <g transform="translate(0 -1004.4)">
    <rect x="1" y="1005.4" width="46" height="46" rx="4" fill="#1890d0"/>
   </g>
  </clipPath>
 </defs>
 <g>
  <path d="m1 43v0.25c0 2.216 1.784 4 4 4h38c2.216 0 4-1.784 4-4v-0.25c0 2.216-1.784 4-4 4h-38c-2.216 0-4-1.784-4-4zm0 0.5v0.5c0 2.216 1.784 4 4 4h38c2.216 0 4-1.784 4-4v-0.5c0 2.216-1.784 4-4 4h-38c-2.216 0-4-1.784-4-4z" opacity=".02"/>
  <path d="m1 43.25v0.25c0 2.216 1.784 4 4 4h38c2.216 0 4-1.784 4-4v-0.25c0 2.216-1.784 4-4 4h-38c-2.216 0-4-1.784-4-4z" opacity=".05"/>
  <path d="m1 43v0.25c0 2.216 1.784 4 4 4h38c2.216 0 4-1.784 4-4v-0.25c0 2.216-1.784 4-4 4h-38c-2.216 0-4-1.784-4-4z" opacity=".1"/>
 </g>
 <g>
  <rect transform="rotate(-90)" x="-47" y="1" width="46" height="46" rx="4" fill="url(#linearGradient3764)"/>
 </g>
 <g>
  <g clip-path="url(#clipPath-990558146)">
   <g opacity=".1">
    <g>
     <g>
      <path d="m19 10v19.996l14.996-9.9961m-14.996-10"/>
      <path d="m0 35v13h48v-13m-48 0" fill-rule="evenodd"/>
      <path d="m16.594 37h14.813c0.879 0 1.594 0.715 1.594 1.594v0.813c0 0.879-0.715 1.594-1.594 1.594h-14.813c-0.883 0-1.594-0.715-1.594-1.594v-0.813c0-0.879 0.711-1.594 1.594-1.594"/>
      <path d="m16.594 37c-0.883 0-1.594 0.711-1.594 1.594v0.813c0 0.883 0.711 1.594 1.594 1.594h7.406v-4m-7.406 0"/>
     </g>
    </g>
   </g>
  </g>
 </g>
 <g>
  <g clip-path="url(#clipPath-003606767)">
   <g transform="translate(0,-1)">
    <g>
     <g>
      <path d="m19 10v19.996l14.996-9.9961m-14.996-10" fill="#e5265b"/>
      <path d="m0 35v13h48v-13m-48 0" fill="#e5e5e5" fill-rule="evenodd"/>
      <path d="m16.594 37h14.813c0.879 0 1.594 0.715 1.594 1.594v0.813c0 0.879-0.715 1.594-1.594 1.594h-14.813c-0.883 0-1.594-0.715-1.594-1.594v-0.813c0-0.879 0.711-1.594 1.594-1.594" fill="#9c9c9c"/>
      <path d="m16.594 37c-0.883 0-1.594 0.711-1.594 1.594v0.813c0 0.883 0.711 1.594 1.594 1.594h7.406v-4m-7.406 0" fill="#e5265b"/>
     </g>
    </g>
   </g>
  </g>
 </g>
 <g>
  <g transform="translate(0 -1004.4)">
   <path d="m1 1043.4v4c0 2.216 1.784 4 4 4h38c2.216 0 4-1.784 4-4v-4c0 2.216-1.784 4-4 4h-38c-2.216 0-4-1.784-4-4z" opacity=".1"/>
  </g>
 </g>
</svg>
