<svg version="1.1" viewBox="0 0 48 48" xmlns="http://www.w3.org/2000/svg">
 <defs>
  <linearGradient id="bg" x2="0" y1="1" y2="47" gradientUnits="userSpaceOnUse">
   <stop style="stop-color:#41534b" offset="0"/>
   <stop style="stop-color:#384740" offset="1"/>
  </linearGradient>
 </defs>
 <path d="m1 43v0.25c0 2.22 1.78 4 4 4h38c2.22 0 4-1.78 4-4v-0.25c0 2.22-1.78 4-4 4h-38c-2.22 0-4-1.78-4-4zm0 0.5v0.5c0 2.22 1.78 4 4 4h38c2.22 0 4-1.78 4-4v-0.5c0 2.22-1.78 4-4 4h-38c-2.22 0-4-1.78-4-4z" style="opacity:.02"/>
 <path d="m1 43.2v0.25c0 2.22 1.78 4 4 4h38c2.22 0 4-1.78 4-4v-0.25c0 2.22-1.78 4-4 4h-38c-2.22 0-4-1.78-4-4z" style="opacity:.05"/>
 <path d="m1 43v0.25c0 2.22 1.78 4 4 4h38c2.22 0 4-1.78 4-4v-0.25c0 2.22-1.78 4-4 4h-38c-2.22 0-4-1.78-4-4z" style="opacity:.1"/>
 <rect x="1" y="1" width="46" height="46" rx="4" style="fill:url(#bg)"/>
 <path d="m1 39v4c0 2.22 1.78 4 4 4h38c2.22 0 4-1.78 4-4v-4c0 2.22-1.78 4-4 4h-38c-2.22 0-4-1.78-4-4z" style="opacity:.1"/>
 <path d="m18 12c-3.32 0-6 2.68-6 6v12c0 2.63 1.68 4.85 4.03 5.67-0.636-0.708-1.03-1.64-1.03-2.67v-15c0-1.66 1.34-3 3-3h12c1.66 0 3 1.34 3 3v12c0 1.66-1.34 3-3 3h-9v-3h7.5c0.831 0 1.5-0.669 1.5-1.5v-9c0-0.831-0.669-1.5-1.5-1.5h-9c-0.831 0-1.5 0.669-1.5 1.5v14.5c0 1.11 0.892 2 2 2h10c3.32 0 6-2.68 6-6v-12c0-3.32-2.68-6-6-6zm3 9h6v6h-6z" style="opacity:.1"/>
 <path d="m18 11c-3.32 0-6 2.68-6 6v12c0 2.63 1.68 4.85 4.03 5.67-0.636-0.708-1.03-1.64-1.03-2.67v-15c0-1.66 1.34-3 3-3h12c1.66 0 3 1.34 3 3v12c0 1.66-1.34 3-3 3h-9v-3h7.5c0.831 0 1.5-0.669 1.5-1.5v-9c0-0.831-0.669-1.5-1.5-1.5h-9c-0.831 0-1.5 0.669-1.5 1.5v14.5c0 1.11 0.892 2 2 2h10c3.32 0 6-2.68 6-6v-12c0-3.32-2.68-6-6-6zm3 9h6v6h-6z" style="fill:#2ce992"/>
</svg>
