<svg style="" version="1.1" viewBox="0 0 48 48" xmlns="http://www.w3.org/2000/svg">
 <defs style="">
  <linearGradient id="bg" x1="1" x2="47" style="" gradientTransform="translate(-48 .002215)" gradientUnits="userSpaceOnUse">
   <stop style="stop-color:#575757" offset="0"/>
   <stop style="stop-color:#616161" offset="1"/>
  </linearGradient>
 </defs>
 <path d="m1 43v0.25c0 2.216 1.784 4 4 4h38c2.216 0 4-1.784 4-4v-0.25c0 2.216-1.784 4-4 4h-38c-2.216 0-4-1.784-4-4zm0 0.5v0.5c0 2.216 1.784 4 4 4h38c2.216 0 4-1.784 4-4v-0.5c0 2.216-1.784 4-4 4h-38c-2.216 0-4-1.784-4-4z" style="opacity:.02"/>
 <path d="m1 43.25v0.25c0 2.216 1.784 4 4 4h38c2.216 0 4-1.784 4-4v-0.25c0 2.216-1.784 4-4 4h-38c-2.216 0-4-1.784-4-4z" style="opacity:.05"/>
 <path d="m1 43v0.25c0 2.216 1.784 4 4 4h38c2.216 0 4-1.784 4-4v-0.25c0 2.216-1.784 4-4 4h-38c-2.216 0-4-1.784-4-4z" style="opacity:.1"/>
 <rect transform="rotate(-90)" x="-47" y="1" width="46" height="46" rx="4" style="fill:url(#bg)"/>
 <path d="m1 39v4c0 2.216 1.784 4 4 4h38c2.216 0 4-1.784 4-4v-4c0 2.216-1.784 4-4 4h-38c-2.216 0-4-1.784-4-4z" style="opacity:.1"/>
 <path d="m29 11c-4.4183 0-8 3.5817-8 8v2.002c-1 7.95e-4 -2 0-3-2e-3 0-0.554-0.446-1-1-1h-2.5c-0.277 4.7e-5 -0.5 0.22305-0.5 0.50005v0.5h-1c-0.554 0-1 0.446-1 1s0.446 1 1 1h1v0.5c0 0.277 0.223 0.5 0.5 0.5-0.277 0-0.5 0.223-0.5 0.5v0.5h-1c-0.554 0-1 0.446-1 1s0.446 1 1 1h1v0.5c0 0.277 0.223 0.5 0.5 0.5h2.5c0.55335 0 0.99895-0.44495 1-0.99805 1.0005 0.0021 1.9978 0 3 0 2.98e-4 1.0015-2e-3 1.9982 0 2.998-0.554 0-1 0.446-1 1v2.5c0 0.277 0.223 0.5 0.5 0.5h0.5v1c0 0.554 0.446 1 1 1s1-0.446 1-1v-1h0.5c0.277 0 0.5-0.223 0.5-0.5 0 0.277 0.223 0.5 0.5 0.5h0.5v1c0 0.554 0.446 1 1 1s1-0.446 1-1v-1h0.5c0.277 0 0.5-0.223 0.5-0.5v-2.5c0-0.55335-0.44495-0.99895-0.99805-1-0.0028-1-2e-3 -2-2e-3 -3h2c4.4183 0 8-3.5817 8-8s-3.5817-8-8-8zm-3 25c-0.55228 0-1 0.44772-1 1s0.44772 1 1 1 1-0.44772 1-1-0.44772-1-1-1zm-4 0c-0.55228 0-1 0.44772-1 1s0.44772 1 1 1 1-0.44772 1-1-0.44772-1-1-1zm-10-10c0-0.55228-0.44772-1-1-1s-1 0.44772-1 1 0.44772 1 1 1 1-0.44772 1-1zm0-4c0-0.55228-0.44772-1-1-1s-1 0.44772-1 1 0.44772 1 1 1 1-0.44772 1-1zm17-9c3.3137 0 6 2.6863 6 6s-2.6863 6-6 6h-2v-2h2c2.2091 0 4-1.7909 4-4s-1.7909-4-4-4-4 1.7909-4 4v2h-2v-2c0-3.3137 2.6863-6 6-6zm0 4c1.1046 0 2 0.89543 2 2s-0.89543 2-2 2h-2v-2c0-1.1046 0.89543-2 2-2zm-11 6c1 0.0028 2 2e-3 3 2e-3v2c-1.0024 0.0025-1.9987 2e-3 -3-2e-3 0-0.554-0.446-1-1-1 0.554 0 1-0.446 1-1zm5 0h2v2h-2zm0 4h2c-7.93e-4 1-2e-3 2 0 3-0.554 0-1 0.446-1 1 0-0.554-0.446-1-1-1-0.0021-1.0002 0-1.9991 0-3z" style="opacity:.1"/>
 <path d="m11 20c-0.55228 0-1 0.44772-1 1s0.44772 1 1 1 1-0.44772 1-1-0.44772-1-1-1zm1 1c0 0.554 0.446 1 1 1h2v-2h-2c-0.554 0-1 0.446-1 1zm-1 3c-0.55228 0-1 0.44772-1 1s0.44772 1 1 1 1-0.44772 1-1-0.44772-1-1-1zm1 1c0 0.554 0.446 1 1 1h2v-2h-2c-0.554 0-1 0.446-1 1zm9 7v2c0 0.554 0.446 1 1 1s1-0.446 1-1v-2zm1 3c-0.55228 0-1 0.44772-1 1s0.44772 1 1 1 1-0.44772 1-1-0.44772-1-1-1zm3-3v2c0 0.554 0.446 1 1 1s1-0.446 1-1v-2zm1 3c-0.55228 0-1 0.44772-1 1s0.44772 1 1 1 1-0.44772 1-1-0.44772-1-1-1z" style="fill:#bfbfbf"/>
 <path d="m21 28.001v-10l1-1 1 1v10l-1 1z" style="fill:#73cc1b"/>
 <path d="m25 28.001v-10l1-1 1 1v10l-1 1z" style="fill:#dedede"/>
 <path d="m19 24.002 10-7.82e-4 1 1-1 1-10 7.82e-4 -1-1z" style="fill:#73cc1b"/>
 <path d="m19 20.002 10-7.82e-4 1 1-1 1-10 7.82e-4 -1-1z" style="fill:#dedede"/>
 <path d="m14.5 19c-0.277 0-0.5 0.223-0.5 0.5v3c0 0.277 0.223 0.5 0.5 0.5-0.277 0-0.5 0.223-0.5 0.5v3c0 0.277 0.223 0.5 0.5 0.5h2.5c0.55335 0 0.99895-0.44495 1-0.99805l1 2e-3v-2l-1-4e-3c0-0.554-0.446-1-1-1 0.554 0 1-0.446 1-1l1 2e-3v-2l-1-2e-3c0-0.554-0.446-1-1-1zm6.498 9 2e-3 1c-0.554 0-1 0.446-1 1v2.5c0 0.277 0.223 0.5 0.5 0.5h3c0.277 0 0.5-0.223 0.5-0.5 0 0.277 0.223 0.5 0.5 0.5h3c0.27695 0 0.49995-0.223 0.49995-0.5v-2.5c0-0.55335-0.44495-0.99895-0.99805-1l-2e-3 -1h-2v1c-0.554 0-1 0.446-1 1 0-0.554-0.446-1-1-1l-2e-3 -1z" style="fill:#3d3d3d"/>
 <path d="m29 14a4 4 0 0 0-4 4h2a2 2 0 0 1 2-2 2 2 0 0 1 2 2 2 2 0 0 1-2 2v2a4 4 0 0 0 4-4 4 4 0 0 0-4-4z" style="fill:#dedede"/>
 <path d="m29 10.001a8 8 0 0 0-8 8h2a6 6 0 0 1 6-6 6 6 0 0 1 6 6 6 6 0 0 1-6 6v2a8 8 0 0 0 8-8 8 8 0 0 0-8-8z" style="fill:#73cc1b"/>
 <path d="m21 22v1h2v-1zm4 0v1h2v-1zm-4 4v1h2v-1zm4 0v1h2v-1z" style="opacity:.1"/>
</svg>
