<svg style="" version="1.1" viewBox="0 0 48 48" xmlns="http://www.w3.org/2000/svg">
 <defs style="">
  <linearGradient id="bg" x1="1" x2="47" style="" gradientTransform="translate(-48 .002215)" gradientUnits="userSpaceOnUse">
   <stop style="stop-color:#3d3d3d" offset="0"/>
   <stop style="stop-color:#474747" offset="1"/>
  </linearGradient>
 </defs>
 <path d="m1 43v0.25c0 2.216 1.784 4 4 4h38c2.216 0 4-1.784 4-4v-0.25c0 2.216-1.784 4-4 4h-38c-2.216 0-4-1.784-4-4zm0 0.5v0.5c0 2.216 1.784 4 4 4h38c2.216 0 4-1.784 4-4v-0.5c0 2.216-1.784 4-4 4h-38c-2.216 0-4-1.784-4-4z" style="opacity:.02"/>
 <path d="m1 43.25v0.25c0 2.216 1.784 4 4 4h38c2.216 0 4-1.784 4-4v-0.25c0 2.216-1.784 4-4 4h-38c-2.216 0-4-1.784-4-4z" style="opacity:.05"/>
 <path d="m1 43v0.25c0 2.216 1.784 4 4 4h38c2.216 0 4-1.784 4-4v-0.25c0 2.216-1.784 4-4 4h-38c-2.216 0-4-1.784-4-4z" style="opacity:.1"/>
 <rect transform="rotate(-90)" x="-47" y="1" width="46" height="46" rx="4" style="fill:url(#bg)"/>
 <path d="m1 39v4c0 2.216 1.784 4 4 4h38c2.216 0 4-1.784 4-4v-4c0 2.216-1.784 4-4 4h-38c-2.216 0-4-1.784-4-4z" style="opacity:.1"/>
 <path d="m28.5 13a6.5 6.5 0 0 0-6.5 6.5v3.5h-4v-1h-4v1h-3v1h3v1h-3v0.99609h3v1.0039h4v-1h4v4h-1v4h1v3h1v-3h1v3h1v-3h1v-4h-1v-4h3.5a6.5 6.5 0 0 0 6.5-6.5 6.5 6.5 0 0 0-6.5-6.5zm0 1a5.5 5.5 0 0 1 5.5 5.5 5.5 5.5 0 0 1-5.5 5.5h-3.5v-1h3.5a4.5 4.5 0 0 0 4.5-4.5 4.5 4.5 0 0 0-4.5-4.5 4.5 4.5 0 0 0-4.5 4.5v3.5h-1v-3.5a5.5 5.5 0 0 1 5.5-5.5zm0 2a3.5 3.5 0 0 1 3.5 3.5 3.5 3.5 0 0 1-3.5 3.5h-3.5v-3.5a3.5 3.5 0 0 1 3.5-3.5zm-10.5 8h4v1h-4zm5 0h1v1h-1zm0 2h1v4h-1v-2z" style="opacity:.1"/>
 <path d="m11 22v1h3v-1zm0 2v0.99609h3v-0.99609zm11 9v3h1v-3zm2 0v3h1v-3z" style="fill:#9c9c9c"/>
 <path d="m22 27v2h-1v4h5v-4h-1v-2h-1v2h-1v-2" style="fill:#121212"/>
 <path d="m12 22v1h1v-1zm0 2v0.99609h1v-0.99609zm10 10v1h1v-1zm2 0v1h1v-1z" style="fill:#868686"/>
 <path d="m14 21v5h4v-1h2v-1h-2v-1h2v-1h-2v-1" style="fill:#121212"/>
 <path d="m28.5 12a6.5 6.5 0 0 0-6.5 6.5v5.5h-2v1h2v2h1v-2h5.5a6.5 6.5 0 0 0 6.5-6.5 6.5 6.5 0 0 0-6.5-6.5zm0 1a5.5 5.5 0 0 1 5.5 5.5 5.5 5.5 0 0 1-5.5 5.5h-5.5v-5.5a5.5 5.5 0 0 1 5.5-5.5z" style="fill:#70c126"/>
 <path d="m28.5 14a4.5 4.5 0 0 0-4.5 4.5v3.5h-4v1h4v4h1v-4h3.5a4.5 4.5 0 0 0 4.5-4.5 4.5 4.5 0 0 0-4.5-4.5zm0 1a3.5 3.5 0 0 1 3.5 3.5 3.5 3.5 0 0 1-3.5 3.5h-3.5v-3.5a3.5 3.5 0 0 1 3.5-3.5z" style="fill:#f9f9f9"/>
</svg>
