<svg width="48" height="48" version="1.1" viewBox="0 0 48 48" xmlns="http://www.w3.org/2000/svg">
 <defs>
  <linearGradient id="linearGradient1509" x1="-47" x2="-1" y1="2.8779e-15" y2="6.1232e-17" gradientUnits="userSpaceOnUse">
   <stop style="stop-color:#3d3d3d" offset="0"/>
   <stop style="stop-color:#474747" offset="1"/>
  </linearGradient>
 </defs>
 <g transform="translate(0 3.949e-5)">
  <path d="m1 43v0.25c0 2.216 1.784 4 4 4h38c2.216 0 4-1.784 4-4v-0.25c0 2.216-1.784 4-4 4h-38c-2.216 0-4-1.784-4-4zm0 0.5v0.5c0 2.216 1.784 4 4 4h38c2.216 0 4-1.784 4-4v-0.5c0 2.216-1.784 4-4 4h-38c-2.216 0-4-1.784-4-4z" style="opacity:.02"/>
  <path d="m1 43.25v0.25c0 2.216 1.784 4 4 4h38c2.216 0 4-1.784 4-4v-0.25c0 2.216-1.784 4-4 4h-38c-2.216 0-4-1.784-4-4z" style="opacity:.05"/>
  <path d="m1 43v0.25c0 2.216 1.784 4 4 4h38c2.216 0 4-1.784 4-4v-0.25c0 2.216-1.784 4-4 4h-38c-2.216 0-4-1.784-4-4z" style="opacity:.1"/>
 </g>
 <rect transform="rotate(-90)" x="-47" y="1" width="46" height="46" rx="4" style="fill:url(#linearGradient1509)"/>
 <g transform="translate(0 3.949e-5)">
  <g transform="translate(0 -1004.4)">
   <path d="m1 1043.4v4c0 2.216 1.784 4 4 4h38c2.216 0 4-1.784 4-4v-4c0 2.216-1.784 4-4 4h-38c-2.216 0-4-1.784-4-4z" style="opacity:.1"/>
  </g>
 </g>
 <path d="m24 13v1.6211c-2.0032 0.2625-3.848 0.9591-5.3301 2.168-1.3358 1.0896-2.3069 2.6127-2.7988 4.4394-1.0915 0.4509-1.8711 1.5268-1.8711 2.7715 0 1.2583 0.79787 2.3414 1.9082 2.7832 0.53697 1.8393 1.5814 3.3568 2.9453 4.4316 1.5767 1.2427 3.5073 1.9371 5.5117 2.1797 0.50737 0.9469 1.4959 1.6055 2.6348 1.6055 1.0965 0 2.0547-0.61 2.5781-1.5h1.4219v-19h-1v-1.5zm0 4.6641v1.3359h4v10.188c-0.31481-0.1136-0.64847-0.1875-1-0.1875-1.0507 0-1.979 0.5573-2.5156 1.3867-1.4418-0.215-2.7685-0.7353-3.7734-1.5273-0.82938-0.6537-1.4719-1.469-1.8457-2.5352 0.68467-0.5522 1.1348-1.3864 1.1348-2.3242 0-0.9531-0.46412-1.8001-1.168-2.3516 0.34527-1.0766 0.94524-1.8914 1.7344-2.5351 0.88126-0.7188 2.0586-1.2117 3.4336-1.4492z" style="color-rendering:auto;color:#000000;image-rendering:auto;isolation:auto;mix-blend-mode:normal;opacity:.1;shape-rendering:auto;solid-color:#000000;text-decoration-color:#000000;text-decoration-line:none;text-decoration-style:solid;text-indent:0;text-transform:none;white-space:normal"/>
 <path d="m26 13.5c-2.7639-0.016-5.3654 0.6866-7.3301 2.2891-1.9444 1.586-3.1404 4.0748-3.1641 7.1113v0.2012c0.0321 3.074 1.3666 5.552 3.3476 7.1132 2.0029 1.5785 4.5744 2.2852 7.1465 2.2852h5v-19h-5.0002zm-0.01 3h2.0099v13h-2c-2.0116 0-3.9393-0.5769-5.289-1.6406-1.3498-1.0638-2.2086-2.5516-2.2109-4.8613-2e-3 -2.3474 0.78398-3.8388 2.0664-4.8848s3.181-1.6273 5.4238-1.6133z" style="color-rendering:auto;color:#000000;fill:#ccc;image-rendering:auto;isolation:auto;mix-blend-mode:normal;shape-rendering:auto;solid-color:#000000;text-decoration-color:#000000;text-decoration-line:none;text-decoration-style:solid;text-indent:0;text-transform:none;white-space:normal"/>
 <path d="m17 20c-1.6435 0-3 1.3565-3 3s1.3565 3 3 3 3-1.3565 3-3-1.3565-3-3-3z" style="color-rendering:auto;color:#000000;fill:#7ab300;image-rendering:auto;isolation:auto;mix-blend-mode:normal;shape-rendering:auto;solid-color:#000000;text-decoration-color:#000000;text-decoration-line:none;text-decoration-style:solid;text-indent:0;text-transform:none;white-space:normal"/>
 <path d="m24 12v6h6v-6z" style="fill:#7ab300"/>
 <path d="m27 28c-1.6435 0-3 1.3565-3 3s1.3565 3 3 3 3-1.3565 3-3-1.3565-3-3-3z" style="color-rendering:auto;color:#000000;fill:#7ab300;image-rendering:auto;isolation:auto;mix-blend-mode:normal;shape-rendering:auto;solid-color:#000000;text-decoration-color:#000000;text-decoration-line:none;text-decoration-style:solid;text-indent:0;text-transform:none;white-space:normal"/>
 <circle cx="27" cy="15" r="1" style="fill:#3d3d3d"/>
 <circle cx="17" cy="23" r="1" style="fill:#3d3d3d"/>
 <circle cx="27" cy="31" r="1" style="fill:#3d3d3d"/>
</svg>
