<svg version="1.1" viewBox="0 0 48 48" xmlns="http://www.w3.org/2000/svg">
 <defs>
  <linearGradient id="bg" x2="0" y1="1" y2="47" gradientUnits="userSpaceOnUse">
   <stop style="stop-color:#4d4d4d" offset="0"/>
   <stop style="stop-color:#424242" offset="1"/>
  </linearGradient>
 </defs>
 <path d="m1 43v0.25c0 2.216 1.784 4 4 4h38c2.216 0 4-1.784 4-4v-0.25c0 2.216-1.784 4-4 4h-38c-2.216 0-4-1.784-4-4zm0 0.5v0.5c0 2.216 1.784 4 4 4h38c2.216 0 4-1.784 4-4v-0.5c0 2.216-1.784 4-4 4h-38c-2.216 0-4-1.784-4-4z" style="opacity:.02"/>
 <path d="m1 43.25v0.25c0 2.216 1.784 4 4 4h38c2.216 0 4-1.784 4-4v-0.25c0 2.216-1.784 4-4 4h-38c-2.216 0-4-1.784-4-4z" style="opacity:.05"/>
 <path d="m1 43v0.25c0 2.216 1.784 4 4 4h38c2.216 0 4-1.784 4-4v-0.25c0 2.216-1.784 4-4 4h-38c-2.216 0-4-1.784-4-4z" style="opacity:.1"/>
 <rect x="1" y="1" width="46" height="46" rx="4" style="fill:url(#bg)"/>
 <path d="m1 39v4c0 2.216 1.784 4 4 4h38c2.216 0 4-1.784 4-4v-4c0 2.216-1.784 4-4 4h-38c-2.216 0-4-1.784-4-4z" style="opacity:.1"/>
 <path d="m11 30c0 1.108 0.892 2 2 2h6v4c0 1.108 0.892 2 2 2h10c1.108 0 2-0.892 2-2v-8h2c1.108 0 2-0.892 2-2v-2l-26 4z" style="opacity:.1"/>
 <rect x="23" y="9" width="14" height="18" ry="2" style="fill:#c667bb"/>
 <rect x="11" y="13" width="14" height="18" ry="2" style="fill:#5899e9"/>
 <path d="m25 11v2h6v-2zm8 0v7h2v-7zm-8 4v1h6v-1zm0 2v1h6v-1zm0 3v1h10v-1zm0 2v1h10v-1zm0 2v1h10v-1z" style="fill-opacity:.25"/>
 <path d="m13 15v1h10v-1zm0 2v1h10v-1zm0 2v5h3v-5zm4 0v1h6v-1zm0 2v1h6v-1zm0 2v1h6v-1zm-4 2v2h10v-2zm0 3v1h10v-1z" style="fill-opacity:.25"/>
 <rect x="19" y="19" width="14" height="18" ry="2" style="fill:#41d282"/>
 <path d="m21 21v4h6v-4zm0 5v2h10v-2zm0 3v2h10v-2zm5 3v3h5v-3zm-5 1v1h4v-1z" style="fill-opacity:.25"/>
</svg>
