<svg version="1.1" viewBox="0 0 48 48" xmlns="http://www.w3.org/2000/svg">
 <defs>
  <linearGradient id="bg" x2="0" y1="1" y2="47" gradientUnits="userSpaceOnUse">
   <stop style="stop-color:#474747" offset="0"/>
   <stop style="stop-color:#3d3d3d" offset="1"/>
  </linearGradient>
 </defs>
 <path d="m1 43v0.25c0 2.22 1.78 4 4 4h38c2.22 0 4-1.78 4-4v-0.25c0 2.22-1.78 4-4 4h-38c-2.22 0-4-1.78-4-4zm0 0.5v0.5c0 2.22 1.78 4 4 4h38c2.22 0 4-1.78 4-4v-0.5c0 2.22-1.78 4-4 4h-38c-2.22 0-4-1.78-4-4z" style="opacity:.02"/>
 <path d="m1 43.2v0.25c0 2.22 1.78 4 4 4h38c2.22 0 4-1.78 4-4v-0.25c0 2.22-1.78 4-4 4h-38c-2.22 0-4-1.78-4-4z" style="opacity:.05"/>
 <path d="m1 43v0.25c0 2.22 1.78 4 4 4h38c2.22 0 4-1.78 4-4v-0.25c0 2.22-1.78 4-4 4h-38c-2.22 0-4-1.78-4-4z" style="opacity:.1"/>
 <rect x="1" y="1" width="46" height="46" rx="4" style="fill:url(#bg)"/>
 <path d="m1 39v4c0 2.22 1.78 4 4 4h38c2.22 0 4-1.78 4-4v-4c0 2.22-1.78 4-4 4h-38c-2.22 0-4-1.78-4-4z" style="opacity:.1"/>
 <path d="m10.2 26.4c-0.349 0.416-0.29 1.04 0.133 1.39l3.28 2.75c-0.186 0.511 0.083 1.07 0.602 1.26l1.59 0.58 5.25 4.41c0.423 0.355 1.04 0.305 1.39-0.111l1.21-1.44 3.72 1.35c0.519 0.189 1.09-0.069 1.27-0.58l0.359-0.986h5.96c0.552 0 0.996-0.437 0.996-0.98v-20s-25.6 12.4-25.8 12.4z" style="opacity:.1"/>
 <path d="m24.5 9.91c-0.423-0.355-1.04-0.306-1.39 0.111l-12.9 15.4c-0.349 0.416-0.29 1.04 0.133 1.39l10.7 9c0.423 0.355 1.04 0.306 1.39-0.111l12.9-15.4c0.349-0.416 0.29-1.04-0.133-1.39l-10.7-9" style="fill:#f95"/>
 <path d="m21.8 10.1c-0.519-0.189-1.08 0.07-1.27 0.581l-6.85 18.8c-0.186 0.511 0.082 1.07 0.601 1.26l13.2 4.79c0.519 0.189 1.08-0.07 1.27-0.581l6.85-18.8c0.186-0.511-0.082-1.07-0.601-1.26l-13.2-4.79" style="fill:#37c871"/>
 <path d="m21 12c-0.552 0-0.996 0.437-0.996 0.98v20c0 0.544 0.444 0.98 0.996 0.98h14c0.552 0 0.996-0.437 0.996-0.98v-20c0-0.544-0.444-0.98-0.996-0.98z" style="fill:#5f8dd3"/>
 <path d="m30 17v4h4v-4zm0 4h-4v4h4zm0 4v4h4v-4zm-4 0h-4v4h4z" style="fill:#fff;opacity:.85"/>
</svg>
