<?xml version="1.0" encoding="UTF-8"?>
<svg width="48" height="48" version="1.1" viewBox="0 0 48 48.000001" xmlns="http://www.w3.org/2000/svg" xmlns:cc="http://creativecommons.org/ns#" xmlns:dc="http://purl.org/dc/elements/1.1/" xmlns:rdf="http://www.w3.org/1999/02/22-rdf-syntax-ns#">
 <metadata>
  <rdf:RDF>
   <cc:Work rdf:about="">
    <dc:format>image/svg+xml</dc:format>
    <dc:type rdf:resource="http://purl.org/dc/dcmitype/StillImage"/>
    <dc:title/>
   </cc:Work>
  </rdf:RDF>
 </metadata>
 <defs>
  <linearGradient id="linearGradient4501" x1="-47" x2="-1" y1="2.8779e-15" y2="6.1232e-17" gradientTransform="translate(.00021759)" gradientUnits="userSpaceOnUse">
   <stop style="stop-color:#edb367" offset="0"/>
   <stop style="stop-color:#efbc79" offset="1"/>
  </linearGradient>
 </defs>
 <g transform="translate(0,3.949e-5)">
  <path d="m1 43v0.25c0 2.216 1.784 4 4 4h38c2.216 0 4-1.784 4-4v-0.25c0 2.216-1.784 4-4 4h-38c-2.216 0-4-1.784-4-4zm0 0.5v0.5c0 2.216 1.784 4 4 4h38c2.216 0 4-1.784 4-4v-0.5c0 2.216-1.784 4-4 4h-38c-2.216 0-4-1.784-4-4z" style="opacity:.02"/>
  <path d="m1 43.25v0.25c0 2.216 1.784 4 4 4h38c2.216 0 4-1.784 4-4v-0.25c0 2.216-1.784 4-4 4h-38c-2.216 0-4-1.784-4-4z" style="opacity:.05"/>
  <path d="m1 43v0.25c0 2.216 1.784 4 4 4h38c2.216 0 4-1.784 4-4v-0.25c0 2.216-1.784 4-4 4h-38c-2.216 0-4-1.784-4-4z" style="opacity:.1"/>
 </g>
 <rect transform="rotate(-90)" x="-47" y="1" width="46" height="46" rx="4" style="fill:url(#linearGradient4501)"/>
 <g transform="translate(0,3.949e-5)">
  <g transform="translate(0,-1004.4)">
   <path d="m1 1043.4v4c0 2.216 1.784 4 4 4h38c2.216 0 4-1.784 4-4v-4c0 2.216-1.784 4-4 4h-38c-2.216 0-4-1.784-4-4z" style="opacity:.1"/>
  </g>
 </g>
 <g transform="translate(-.98659 -.0547)">
  <circle cx="24.987" cy="24.055" r="15" style="opacity:.1"/>
  <circle cx="25.059" cy="23.055" r="15" style="fill:#ee7907"/>
  <path d="m25.059 8.0547a15 15 0 0 0 -6.547 1.518l-4.793 23.273a15 15 0 0 0 5.1855 3.875l2.082-10.666h3.072c8-1e-5 13-5.3455 13-11 0-0.36028-0.0223-0.71048-0.05859-1.0547a15 15 0 0 0 -11.941 -5.945zm-1.342 4h2.842c2 0 4.5 0.23858 4.5 3 0 4-3.5 7-6.5 7h-2.793l1.9512-10z" style="fill:#f9f9f9"/>
 </g>
</svg>
