<svg version="1.1" viewBox="0 0 48 48" xmlns="http://www.w3.org/2000/svg">
 <defs>
  <linearGradient id="bg" x1="-47" x2="-1" y1="0" y2="0" gradientUnits="userSpaceOnUse">
   <stop style="stop-color:#616161" offset="0"/>
   <stop style="stop-color:#6b6b6b" offset="1"/>
  </linearGradient>
 </defs>
 <g transform="translate(0 3.949e-5)">
  <path d="m1 43v0.25c0 2.216 1.784 4 4 4h38c2.216 0 4-1.784 4-4v-0.25c0 2.216-1.784 4-4 4h-38c-2.216 0-4-1.784-4-4zm0 0.5v0.5c0 2.216 1.784 4 4 4h38c2.216 0 4-1.784 4-4v-0.5c0 2.216-1.784 4-4 4h-38c-2.216 0-4-1.784-4-4z" style="opacity:.02"/>
  <path d="m1 43.25v0.25c0 2.216 1.784 4 4 4h38c2.216 0 4-1.784 4-4v-0.25c0 2.216-1.784 4-4 4h-38c-2.216 0-4-1.784-4-4z" style="opacity:.05"/>
  <path d="m1 43v0.25c0 2.216 1.784 4 4 4h38c2.216 0 4-1.784 4-4v-0.25c0 2.216-1.784 4-4 4h-38c-2.216 0-4-1.784-4-4z" style="opacity:.1"/>
 </g>
 <rect transform="rotate(-90)" x="-47" y="1" width="46" height="46" rx="4" style="fill:url(#bg)"/>
 <g transform="translate(0 3.949e-5)">
  <g transform="translate(0 -1004.4)">
   <path d="m1 1043.4v4c0 2.216 1.784 4 4 4h38c2.216 0 4-1.784 4-4v-4c0 2.216-1.784 4-4 4h-38c-2.216 0-4-1.784-4-4z" style="opacity:.1"/>
  </g>
 </g>
 <rect x="12" y="12" width="24" height="24" style="opacity:.1"/>
 <path d="m12 11v6l6 6 6 2 6-2v-6l-6-6z" style="fill:#e87373"/>
 <path d="m18 23v6l6 6h12v-6l-6-6z" style="fill:#65a2e7"/>
 <path d="m12 17v18h12v-6h-6v-12z" style="fill:#e2dd5a"/>
 <path d="m36 29v-18h-12v6h6v12z" style="fill:#66e076"/>
 <path d="m12 11v6l1-1v-4h4l1-1zm6 0v6l1-1v-4h4l1-1zm6 0v6l1-1v-4h4l1-1zm6 0v6l1-1v-4h4l1-1zm0 6v6l1-1v-4h4l1-1zm0 0h-6v6l1-1v-4h4zm-6 6v6l1-1v-4h4l1-1zm0 0h-6v6l1-1v-4h4zm-6 6v6l1-1v-4h4l1-1zm0 0h-6v6l1-1v-4h4zm-6 0 1-1v-4h4l1-1h-6zm0-6 1-1v-4h4l1-1h-6zm6-6v6l1-1v-4h4l1-1zm6 12v6l1-1v-4h4l1-1zm6 0 1-1v-4h4l1-1h-6zm0 0v6l1-1v-4h4l1-1z" style="fill:#fff;opacity:.12"/>
 <path d="m36 35v-6l-1 1v4h-4l-1 1zm-6 0v-6l-1 1v4h-4l-1 1zm-6 0v-6l-1 1v4h-4l-1 1zm-6 0v-6l-1 1v4h-4l-1 1zm0-6v-6l-1 1v4h-4l-1 1zm0 0h6v-6l-1 1v4h-4zm6-6v-6l-1 1v4h-4l-1 1zm0 0h6v-6l-1 1v4h-4zm6-6v-6l-1 1v4h-4l-1 1zm0 0h6v-6l-1 1v4h-4zm6 0-1 1v4h-4l-1 1h6zm0 6-1 1v4h-4l-1 1h6zm-6 6v-6l-1 1v4h-4l-1 1zm-6-12v-6l-1 1v4h-4l-1 1zm-6 0-1 1v4h-4l-1 1h6zm0 0v-6l-1 1v4h-4l-1 1z" style="opacity:.09"/>
</svg>
