<svg version="1.1" viewBox="0 0 48 48" xmlns="http://www.w3.org/2000/svg">
 <defs>
  <linearGradient id="bg" x2="0" y1="1" y2="47" gradientUnits="userSpaceOnUse">
   <stop style="stop-color:#d8ceb1" offset="0"/>
   <stop style="stop-color:#d1c5a3" offset="1"/>
  </linearGradient>
 </defs>
 <path d="m1 43v0.25c0 2.22 1.78 4 4 4h38c2.22 0 4-1.78 4-4v-0.25c0 2.22-1.78 4-4 4h-38c-2.22 0-4-1.78-4-4zm0 0.5v0.5c0 2.22 1.78 4 4 4h38c2.22 0 4-1.78 4-4v-0.5c0 2.22-1.78 4-4 4h-38c-2.22 0-4-1.78-4-4z" style="opacity:.02"/>
 <path d="m1 43.2v0.25c0 2.22 1.78 4 4 4h38c2.22 0 4-1.78 4-4v-0.25c0 2.22-1.78 4-4 4h-38c-2.22 0-4-1.78-4-4z" style="opacity:.05"/>
 <path d="m1 43v0.25c0 2.22 1.78 4 4 4h38c2.22 0 4-1.78 4-4v-0.25c0 2.22-1.78 4-4 4h-38c-2.22 0-4-1.78-4-4z" style="opacity:.1"/>
 <rect x="1" y="1" width="46" height="46" rx="4" style="fill:url(#bg)"/>
 <path d="m1 39v4c0 2.22 1.78 4 4 4h38c2.22 0 4-1.78 4-4v-4c0 2.22-1.78 4-4 4h-38c-2.22 0-4-1.78-4-4z" style="opacity:.1"/>
 <path d="m11.1 29.8c-0.286 1.07 0.344 2.16 1.41 2.45l0.52 0.139v0.58c0 1.11 0.892 2 2 2h7.63l7.21 1.93c1.07 0.286 2.16-0.344 2.45-1.41l1.76-6.56 0.961-0.961c-0.247-3.39 1.06-6.6 1.93-9.84 0.286-1.07-0.344-2.16-1.41-2.45-0.324-0.0265-24.5 14.1-24.5 14.1z" style="opacity:.1"/>
 <rect transform="rotate(15)" x="18.2" y="5.02" width="22" height="22" ry="2" style="fill:#aaa"/>
 <path d="m13 31.4 13.4 3.58h1.64l5.67-5.67 1.33-4.96z" style="opacity:.1"/>
 <path d="m15 12h18c1.11 0 2 0.892 2 2v13l-5 2-2 5-13-1e-6c-1.11 0-2-0.892-2-2v-18c0-1.11 0.892-2 2-2z" style="fill:#f5f5f5"/>
 <path d="m30 31 2-2v-6l-8-2-8 2v7c0 0.554 0.446 1 1 1z" style="fill:#5271ad"/>
 <path d="m30 27c-1.11 0-2 0.892-2 2v5l7-7z" style="fill:#ccc"/>
 <path d="m17 15c-0.554 0-1 0.446-1 1v7h16v-7c0-0.554-0.446-1-1-1z" style="fill:#82d0ed"/>
 <circle cx="19.5" cy="18.5" r="1.5" style="fill:#eee0aa;paint-order:stroke fill markers;stroke-dashoffset:6.6;stroke-linecap:round;stroke-opacity:.653;stroke-width:18"/>
</svg>
