<svg style="" viewBox="0 0 48 48" xmlns="http://www.w3.org/2000/svg" xmlns:xlink="http://www.w3.org/1999/xlink">
 <defs style="">
  <linearGradient id="linearGradient3764" gradientTransform="translate(-48 .002215)" gradientUnits="userSpaceOnUse" style="" x1="1" x2="47">
   <stop offset="0" style="stop-color:#e4e4e4"/>
   <stop offset="1" style="stop-color:#eee"/>
  </linearGradient>
 </defs>
 <path d="m 1 43 v .25 c 0 2.216 1.784 4 4 4 h 38 c 2.216 0 4 -1.784 4 -4 v -.25 c 0 2.216 -1.784 4 -4 4 h -38 c -2.216 0 -4 -1.784 -4 -4 z m 0 .5 v .5 c 0 2.216 1.784 4 4 4 h 38 c 2.216 0 4 -1.784 4 -4 v -.5 c 0 2.216 -1.784 4 -4 4 h -38 c -2.216 0 -4 -1.784 -4 -4 z" style="opacity:.02"/>
 <path d="m 1 43.25 v .25 c 0 2.216 1.784 4 4 4 h 38 c 2.216 0 4 -1.784 4 -4 v -.25 c 0 2.216 -1.784 4 -4 4 h -38 c -2.216 0 -4 -1.784 -4 -4 z" style="opacity:.05"/>
 <path d="m 1 43 v .25 c 0 2.216 1.784 4 4 4 h 38 c 2.216 0 4 -1.784 4 -4 v -.25 c 0 2.216 -1.784 4 -4 4 h -38 c -2.216 0 -4 -1.784 -4 -4 z" style="opacity:.1"/>
 <rect height="46" rx="4" style="fill:url(#linearGradient3764)" transform="rotate(-90)" width="46" x="-47" y="1"/>
 <g style="opacity:.1">
  <path d="m 11 19.48 v 14.371 h .57 v -6.887 h .621 l .102 .652 h .039 c .195 -.262 .422 -.453 .68 -.57 .262 -.113 .563 -.172 .898 -.172 .664 0 1.18 .215 1.539 .648 .363 .434 .547 1.047 .547 1.832 s -.188 1.402 -.559 1.84 c -.367 .434 -.875 .648 -1.527 .648 -.328 0 -.625 -.066 -.898 -.172 -.27 -.113 -.496 -.293 -.68 -.535 h -.055 c .039 .27 .055 .547 .055 .797 v 1.922 h 10.758 v -6.891 h .617 l .105 .645 h .035 c .195 -.262 .422 -.453 .684 -.563 .258 -.117 .559 -.191 .895 -.191 .668 0 1.18 .23 1.543 .648 .363 .434 .543 1.047 .543 1.832 0 .77 -.188 1.395 -.555 1.84 -.367 .438 -.875 .645 -1.531 .645 -.328 0 -.625 -.055 -.895 -.168 -.27 -.117 -.5 -.297 -.684 -.535 h -.051 c .035 .277 .051 .543 .051 .793 v 1.926 h 2.91 l 1.641 -1.828 c 1.98 -2.203 2.531 -2.969 2.676 -3.703 .203 -1.023 -.137 -1.691 -1.594 -3.141 -1.59 -1.57 -2.469 -3.117 -2.613 -4.59 -.055 -.555 -.195 -.996 -.355 -1.113 h -8.422 v 1.926 c 0 .25 -.012 .453 -.035 .617 h .047 c .148 -.23 .359 -.41 .633 -.539 .277 -.141 .598 -.203 .953 -.203 .617 0 1.074 .145 1.379 .422 .309 .277 .461 .723 .461 1.324 v 3.125 h -.758 v -3.102 c 0 -.391 -.094 -.684 -.277 -.875 -.188 -.191 -.48 -.293 -.875 -.293 -.531 0 -.922 .145 -1.164 .418 s -.363 .723 -.363 1.348 v 2.504 h -.758 v -6.68 h -6.332 m 2.797 8.01 c -.512 0 -.887 .141 -1.113 .41 -.23 .27 -.348 .703 -.352 1.297 v .156 c 0 .676 .113 1.16 .352 1.453 .234 .289 .617 .43 1.137 .43 .441 0 .773 -.164 1.023 -.5 .246 -.336 .371 -.805 .371 -1.391 0 -.602 -.125 -1.055 -.371 -1.371 -.246 -.32 -.598 -.484 -1.039 -.484 m 11.52 0 c -.516 0 -.887 .141 -1.102 .41 -.23 .27 -.355 .703 -.355 1.297 v .156 c 0 .676 .117 1.16 .355 1.453 .227 .289 .602 .43 1.137 .43 .441 0 .773 -.164 1.023 -.5 s .375 -.805 .375 -1.391 c 0 -.602 -.125 -1.055 -.375 -1.371 -.242 -.32 -.598 -.484 -1.035 -.484" style=""/>
  <path d="m 28.23 33.832 c -.063 -.09 .332 -.637 .867 -1.215 2.051 -2.195 2.738 -3.324 2.738 -4.504 .004 -1.027 -.324 -1.594 -1.789 -3.078 -1.531 -1.559 -1.93 -2.137 -2.301 -3.344 -.66 -2.137 -.035 -4.555 1.766 -6.848 l .66 -.84 h 3.094 c 2.117 0 3.098 .055 3.098 .172 0 .098 -.574 .797 -1.277 1.559 -2.102 2.285 -2.656 3.52 -2.242 4.988 .148 .527 .535 1.031 1.609 2.098 1.012 1 1.574 1.719 1.957 2.492 1.109 2.543 .676 5.762 -1.645 8.281 l -.398 .41 h -3.02 c -1.91 0 -3.055 -.063 -3.125 -.168" style=""/>
 </g>
 <path d="m 11 18.48 v 14.371 h .57 v -6.887 h .621 l .102 .652 h .039 c .195 -.262 .422 -.453 .68 -.57 .262 -.113 .563 -.172 .898 -.172 .664 0 1.18 .215 1.539 .648 .363 .434 .547 1.047 .547 1.832 s -.188 1.402 -.559 1.84 c -.367 .434 -.875 .648 -1.527 .648 -.328 0 -.625 -.066 -.898 -.172 -.27 -.113 -.496 -.293 -.68 -.535 h -.055 c .039 .27 .055 .547 .055 .797 v 1.922 h 10.758 v -6.891 h .617 l .105 .645 h .035 c .195 -.262 .422 -.453 .684 -.563 .258 -.117 .559 -.191 .895 -.191 .668 0 1.18 .23 1.543 .648 .363 .434 .543 1.047 .543 1.832 0 .77 -.188 1.395 -.555 1.84 -.367 .438 -.875 .645 -1.531 .645 -.328 0 -.625 -.055 -.895 -.168 -.27 -.117 -.5 -.297 -.684 -.535 h -.051 c .035 .277 .051 .543 .051 .793 v 1.926 h 2.91 l 1.641 -1.828 c 1.98 -2.203 2.531 -2.969 2.676 -3.703 .203 -1.023 -.137 -1.691 -1.594 -3.141 -1.59 -1.57 -2.469 -3.117 -2.613 -4.59 -.055 -.555 -.195 -.996 -.355 -1.113 h -8.422 v 1.926 c 0 .25 -.012 .453 -.035 .617 h .047 c .148 -.23 .359 -.41 .633 -.539 .277 -.141 .598 -.203 .953 -.203 .617 0 1.074 .145 1.379 .422 .309 .277 .461 .723 .461 1.324 v 3.125 h -.758 v -3.102 c 0 -.391 -.094 -.684 -.277 -.875 -.188 -.191 -.48 -.293 -.875 -.293 -.531 0 -.922 .145 -1.164 .418 s -.363 .723 -.363 1.348 v 2.504 h -.758 v -6.68 h -6.332 m 2.797 8.01 c -.512 0 -.887 .141 -1.113 .41 -.23 .27 -.348 .703 -.352 1.297 v .156 c 0 .676 .113 1.16 .352 1.453 .234 .289 .617 .43 1.137 .43 .441 0 .773 -.164 1.023 -.5 .246 -.336 .371 -.805 .371 -1.391 0 -.602 -.125 -1.055 -.371 -1.371 -.246 -.32 -.598 -.484 -1.039 -.484 m 11.52 0 c -.516 0 -.887 .141 -1.102 .41 -.23 .27 -.355 .703 -.355 1.297 v .156 c 0 .676 .117 1.16 .355 1.453 .227 .289 .602 .43 1.137 .43 .441 0 .773 -.164 1.023 -.5 s .375 -.805 .375 -1.391 c 0 -.602 -.125 -1.055 -.375 -1.371 -.242 -.32 -.598 -.484 -1.035 -.484" style="fill:#5353b2"/>
 <path d="m 28.23 32.832 c -.063 -.09 .332 -.637 .867 -1.215 2.051 -2.195 2.738 -3.324 2.738 -4.504 .004 -1.027 -.324 -1.594 -1.789 -3.078 -1.531 -1.559 -1.93 -2.137 -2.301 -3.344 -.66 -2.137 -.035 -4.555 1.766 -6.848 l .66 -.84 h 3.094 c 2.117 0 3.098 .055 3.098 .172 0 .098 -.574 .797 -1.277 1.559 -2.102 2.285 -2.656 3.52 -2.242 4.988 .148 .527 .535 1.031 1.609 2.098 1.012 1 1.574 1.719 1.957 2.492 1.109 2.543 .676 5.762 -1.645 8.281 l -.398 .41 h -3.02 c -1.91 0 -3.055 -.063 -3.125 -.168" style="fill:#f38e09"/>
 <path d="m 1 39 v 4 c 0 2.216 1.784 4 4 4 h 38 c 2.216 0 4 -1.784 4 -4 v -4 c 0 2.216 -1.784 4 -4 4 h -38 c -2.216 0 -4 -1.784 -4 -4 z" style="opacity:.1"/>
</svg>
