<svg version="1.1" viewBox="0 0 48 48" xmlns="http://www.w3.org/2000/svg">
 <defs>
  <linearGradient id="bg" x1="-47" x2="-1" y1="2.8779e-15" y2="6.1232e-17" gradientUnits="userSpaceOnUse">
   <stop style="stop-color:#d7cdb9" offset="0"/>
   <stop style="stop-color:#ded6c6" offset="1"/>
  </linearGradient>
 </defs>
 <g transform="translate(0 3.949e-5)">
  <path d="m1 43v0.25c0 2.216 1.784 4 4 4h38c2.216 0 4-1.784 4-4v-0.25c0 2.216-1.784 4-4 4h-38c-2.216 0-4-1.784-4-4zm0 0.5v0.5c0 2.216 1.784 4 4 4h38c2.216 0 4-1.784 4-4v-0.5c0 2.216-1.784 4-4 4h-38c-2.216 0-4-1.784-4-4z" style="opacity:.02"/>
  <path d="m1 43.25v0.25c0 2.216 1.784 4 4 4h38c2.216 0 4-1.784 4-4v-0.25c0 2.216-1.784 4-4 4h-38c-2.216 0-4-1.784-4-4z" style="opacity:.05"/>
  <path d="m1 43v0.25c0 2.216 1.784 4 4 4h38c2.216 0 4-1.784 4-4v-0.25c0 2.216-1.784 4-4 4h-38c-2.216 0-4-1.784-4-4z" style="opacity:.1"/>
 </g>
 <rect transform="rotate(-90)" x="-47" y="1" width="46" height="46" rx="4" style="fill:url(#bg)"/>
 <g transform="translate(0 3.949e-5)">
  <g transform="translate(0 -1004.4)">
   <path d="m1 1043.4v4c0 2.216 1.784 4 4 4h38c2.216 0 4-1.784 4-4v-4c0 2.216-1.784 4-4 4h-38c-2.216 0-4-1.784-4-4z" style="opacity:.1"/>
  </g>
 </g>
 <path d="m24 12c-0.551 0-1 0.449-1 1s0.449 1 1 1c0.07054 0 0.13275-0.02507 0.19922-0.03906l0.73047 1.4629 0.96094-0.95898 0.87109 2.6133 0.47266-0.1543-1.127-3.3867-1.043 1.041-0.41602-0.83203c0.21112-0.18355 0.35156-0.44534 0.35156-0.7461 0-0.551-0.449-1-1-1zm7 0c-0.551 0-1 0.449-1 1 0 0.29978 0.13967 0.56063 0.34961 0.74414l-1.5723 3.1445 0.44531 0.22266 1.5762-3.1523c0.067165 0.0143 0.12984 0.041016 0.20117 0.041016 0.551 0 1-0.449 1-1s-0.449-1-1-1zm-18 8v8.9961c0 1.656 1.344 3 3 3h1v0.003906c0 0.554 0.446 1 1 1h2c0.554 0 1-0.446 1-1 2.089-9e-3 4.215-5e-3 6 0 0 0.554 0.446 1 1 1h2c0.554 0 1-0.446 1-1 0.324-8e-3 0.669-0.0039 1-0.0039 1.656 0 3-1.34 3-3v-8.9961z" style="opacity:.1"/>
 <path d="m16.457 20h15.09c0.805 0 1.457 0.652 1.457 1.453v8.09c0 0.805-0.652 1.457-1.457 1.457h-15.09c-0.805 0-1.457-0.652-1.457-1.457v-8.09c0-0.801 0.652-1.453 1.457-1.453" style="opacity:.1"/>
 <path d="m30 18c0 1.105-0.895 2-2 2s-2-0.895-2-2 0.895-2 2-2 2 0.895 2 2" style="opacity:.1"/>
 <path d="m22 24.5c0 1.379-0.672 2.5-1.5 2.5s-1.5-1.121-1.5-2.5 0.672-2.5 1.5-2.5 1.5 1.121 1.5 2.5" style="opacity:.1"/>
 <path d="m29 24.5c0 1.379-0.672 2.5-1.5 2.5s-1.5-1.121-1.5-2.5 0.672-2.5 1.5-2.5 1.5 1.121 1.5 2.5" style="opacity:.1"/>
 <path d="m21 25c0 0.551-0.223 1-0.5 1s-0.5-0.449-0.5-1 0.223-1 0.5-1 0.5 0.449 0.5 1" style="opacity:.1"/>
 <path d="m28 25c0 0.551-0.223 1-0.5 1s-0.5-0.449-0.5-1 0.223-1 0.5-1 0.5 0.449 0.5 1" style="opacity:.1"/>
 <path d="m20.969 28.531-0.5 0.781c1.043 0.414 2.23 0.688 3.531 0.688s2.488-0.273 3.531-0.688l-0.5-0.781c-0.922 0.297-1.941 0.469-3.03 0.469-1.09 0-2.109-0.172-3.03-0.469" style="opacity:.1"/>
 <path d="m18 30c-0.554 0-1 0.446-1 1s0.446 1 1 1h2c0.554 0 1-0.446 1-1s-0.446-1-1-1h-2zm10 0c-0.554 0-1 0.446-1 1s0.446 1 1 1h2c0.554 0 1-0.446 1-1s-0.446-1-1-1h-2z" style="fill:#48672f"/>
 <path d="m16 16h16c1.656 0 3 1.344 3 3v8.996c0 1.66-1.344 3-3 3h-16c-1.656 0-3-1.344-3-3v-8.996c0-1.656 1.344-3 3-3" style="fill:#577c38"/>
 <path d="m24 10c-0.551 0-1 0.449-1 1s0.449 1 1 1 1-0.449 1-1-0.449-1-1-1zm7 0c-0.551 0-1 0.449-1 1s0.449 1 1 1 1-0.449 1-1-0.449-1-1-1zm-3 4c-1.105 0-2 0.895-2 2s0.895 2 2 2 2-0.895 2-2-0.895-2-2-2z" style="fill:#577c38"/>
 <path d="m16.457 18h15.09c0.805 0 1.457 0.652 1.457 1.453v8.09c0 0.805-0.652 1.457-1.457 1.457h-15.09c-0.805 0-1.457-0.652-1.457-1.457v-8.09c0-0.801 0.652-1.453 1.457-1.453" style="fill:#395820"/>
 <path d="m24.221 10.889-0.44531 0.22266 1.1543 2.3125 0.96094-0.95898 0.87109 2.6133 0.47266-0.1543-1.127-3.3867-1.043 1.041-0.84375-1.6875v-0.001953zm6.5566 0-2 4 0.44531 0.22266 2-4-0.44531-0.22266z" style="fill:#577c38"/>
 <path d="m16.457 18h15.09c0.805 0 1.457 0.652 1.457 1.453v8.09c0 0.805-0.652 1.457-1.457 1.457h-15.09c-0.805 0-1.457-0.652-1.457-1.457v-8.09c0-0.801 0.652-1.453 1.457-1.453" style="fill:#e7c989"/>
 <path d="m20.5 20c-0.828 0-1.5 0.785-1.5 1.75s0.672 1.75 1.5 1.75 1.5-0.785 1.5-1.75-0.672-1.75-1.5-1.75zm7 0c-0.828 0-1.5 0.785-1.5 1.75s0.672 1.75 1.5 1.75 1.5-0.785 1.5-1.75-0.672-1.75-1.5-1.75zm-7 1c0.277 0 0.5 0.449 0.5 1s-0.223 1-0.5 1-0.5-0.449-0.5-1 0.223-1 0.5-1zm7 0c0.277 0 0.5 0.449 0.5 1s-0.223 1-0.5 1-0.5-0.449-0.5-1 0.223-1 0.5-1zm-6.5312 4.5312-0.5 0.78125c1.043 0.414 2.2302 0.6875 3.5312 0.6875s2.4882-0.2725 3.5312-0.6875l-0.5-0.78125c-0.922 0.297-1.9403 0.46875-3.0293 0.46875-1.09 0-2.1102-0.17175-3.0312-0.46875h-0.001953z" style="fill:#3c3c3c"/>
</svg>
