<svg version="1.1" viewBox="0 0 48 48" xmlns="http://www.w3.org/2000/svg">
 <defs>
  <linearGradient id="bg" x1="1" x2="47" y1="0" y2="0" gradientTransform="translate(-48 .00221)" gradientUnits="userSpaceOnUse">
   <stop style="stop-color:#57b1cf" offset="0"/>
   <stop style="stop-color:#67b8d3" offset="1"/>
  </linearGradient>
 </defs>
 <path d="m1 43v0.25c0 2.216 1.784 4 4 4h38c2.216 0 4-1.784 4-4v-0.25c0 2.216-1.784 4-4 4h-38c-2.216 0-4-1.784-4-4zm0 0.5v0.5c0 2.216 1.784 4 4 4h38c2.216 0 4-1.784 4-4v-0.5c0 2.216-1.784 4-4 4h-38c-2.216 0-4-1.784-4-4z" style="opacity:.02"/>
 <path d="m1 43.25v0.25c0 2.216 1.784 4 4 4h38c2.216 0 4-1.784 4-4v-0.25c0 2.216-1.784 4-4 4h-38c-2.216 0-4-1.784-4-4z" style="opacity:.05"/>
 <path d="m1 43v0.25c0 2.216 1.784 4 4 4h38c2.216 0 4-1.784 4-4v-0.25c0 2.216-1.784 4-4 4h-38c-2.216 0-4-1.784-4-4z" style="opacity:.1"/>
 <rect transform="rotate(-90)" x="-47" y="1" width="46" height="46" rx="4" style="fill:url(#bg)"/>
 <g transform="translate(0,-1004.4)">
  <path d="m1 1043.4v4c0 2.216 1.784 4 4 4h38c2.216 0 4-1.784 4-4v-4c0 2.216-1.784 4-4 4h-38c-2.216 0-4-1.784-4-4z" style="opacity:.1"/>
 </g>
 <path d="m20 19c0 1-6 5-6 6s2 1 5 1v3l-3 1v3c0 2.5 5 4 8 4l2-1c0.46939-0.43924 2 0 3 1 0 0 5-3 5-5s-2.0389-2.8132-3-3l-1-3s2.9983 0.05409 3-1c0.0016-0.99722-6-3.5-6-5v-2h5c0-1-1.5-3-3.5-3z" style="opacity:.1"/>
 <path d="m18.707 28.707c-0.18096 0.18096-0.43096 0.29289-0.70711 0.29289h-2v3h4z" style="fill:#383838"/>
 <path d="m24 10c-2.216 0-4 1.784-4 4v4c0 1-6 5-6 6s2 1 5 1v3c-4e-5 0.2652-0.10542 0.51953-0.29297 0.70703l-2.707 3.293c0 2.5 5 4 8 4l2-1s4-9 4-10c0 0 2.9983 0.05409 3-1 0.0016-0.99722-6-3.5-6-5v-2l1.5-3c-0.5-2-2.284-4-4.5-4z" style="fill:#424242"/>
 <path d="m28.5 14c-1.385 0-2.5 1.338-2.5 3h6c0-1-1.5-3-3.5-3z" style="fill:#fcbf2e"/>
 <path d="m31 28-1-3c-0.70711-2.1213-3-3-4-3-2 0-3 2-3 5s1 6 3 8z" style="fill:#f9f9f9"/>
 <path d="m31 28c0.96107 0.18684 3 1 3 3s-5 5-5 5c-1-1-2.5306-1.4392-3-1 1-3 2-7 5-7z" style="fill:#fcbf2e"/>
 <path d="m25 13a1 1 0 0 0-1 1 1 1 0 0 0 1 1 1 1 0 0 0 0.29297-0.04492 0.5 0.5 0 0 1-0.29297-0.45508 0.5 0.5 0 0 1 0.5-0.5 0.5 0.5 0 0 1 0.45508 0.29297 1 1 0 0 0 0.04492-0.29297 1 1 0 0 0-1-1z" style="fill:#f9f9f9"/>
</svg>
