<svg viewBox="0 0 48 48" xmlns="http://www.w3.org/2000/svg">
 <defs>
  <linearGradient id="linearGradient3764" x1="1" x2="47" gradientTransform="translate(-48 .0022147)" gradientUnits="userSpaceOnUse">
   <stop stop-color="#57b1cf" offset="0"/>
   <stop stop-color="#67b8d3" offset="1"/>
  </linearGradient>
  <clipPath id="clipPath-233042580">
   <g transform="translate(0 -1004.4)">
    <rect x="1" y="1005.4" width="46" height="46" rx="4" fill="#1890d0"/>
   </g>
  </clipPath>
  <clipPath id="clipPath-246878285">
   <g transform="translate(0 -1004.4)">
    <rect x="1" y="1005.4" width="46" height="46" rx="4" fill="#1890d0"/>
   </g>
  </clipPath>
  <linearGradient id="linear0" x1="6.905" x2="6.712" y1="10.308" y2="4.634" gradientTransform="matrix(1.0263 0 0 1.02 -.17825 -.13547)" gradientUnits="userSpaceOnUse">
   <stop stop-color="#d5ecf1" offset="0"/>
   <stop stop-color="#f9f9f9" offset="1"/>
  </linearGradient>
 </defs>
 <g>
  <path d="m1 43v0.25c0 2.216 1.784 4 4 4h38c2.216 0 4-1.784 4-4v-0.25c0 2.216-1.784 4-4 4h-38c-2.216 0-4-1.784-4-4zm0 0.5v0.5c0 2.216 1.784 4 4 4h38c2.216 0 4-1.784 4-4v-0.5c0 2.216-1.784 4-4 4h-38c-2.216 0-4-1.784-4-4z" opacity=".02"/>
  <path d="m1 43.25v0.25c0 2.216 1.784 4 4 4h38c2.216 0 4-1.784 4-4v-0.25c0 2.216-1.784 4-4 4h-38c-2.216 0-4-1.784-4-4z" opacity=".05"/>
  <path d="m1 43v0.25c0 2.216 1.784 4 4 4h38c2.216 0 4-1.784 4-4v-0.25c0 2.216-1.784 4-4 4h-38c-2.216 0-4-1.784-4-4z" opacity=".1"/>
 </g>
 <g>
  <rect transform="rotate(-90)" x="-47" y="1" width="46" height="46" rx="4" fill="url(#linearGradient3764)"/>
 </g>
 <g>
  <g clip-path="url(#clipPath-233042580)">
   <g opacity=".1">
    <g>
     <g>
      <g stroke="#2d2d2d" stroke-width=".141">
       <path transform="scale(3.5433)" d="m4.437 8.43c1.184 0.039 0.794-0.119 0.842-1.121 0.977-0.742 0.775-0.911-0.076-0.053-0.71-0.034-1.539 0.154-1.033-0.407l1.636-1.51c-0.635-2.139 1.281-3 2.292-1.15 0.743 0.223 0.98 0.324 0.915 0.815-1.151 0.36-1.496-0.082-1.453 0.743 0.086 0.531 2.799 1.428 0.98 1.414l0.183 1.031c1.657 0.691 0.323 1.529-0.657 2.059-0.538-0.409-0.71-0.215-1.313 0.118-1.604-0.086-2.518-0.602-2.335-1.937m0-2e-3"/>
       <path transform="scale(3.5433)" d="m5.24 8.389c-0.095 0.019-0.18 0.028-0.262 0.032h-0.043-0.075-0.108-0.084-0.228c-0.054 0.42-0.011 0.754 0.131 1.023l0.032-0.011c0.387-0.161 0.551-0.603 0.636-1.055m1e-3 0"/>
       <path transform="scale(3.5433)" d="m7.463 6.617c-0.842-0.028-1.521 1.508-0.107 3.355 0.204-0.492 0.44-1.603 1.334-1.808-0.29-1.087-0.796-1.528-1.237-1.547"/>
       <path transform="scale(3.5433)" d="m8.089 4.154-0.022 0.026c-0.57 0.082-1.216 0.926-0.387 1.034l0.118-0.011c0.215-0.054 0.603-0.01 1.227-0.204 0.065-0.485-0.172-0.592-0.915-0.818-9e-3 -0.011-0.011-0.022-0.021-0.032"/>
      </g>
      <path d="m26 15c8e-3 0.363-0.184 0.699-0.496 0.883-0.313 0.184-0.699 0.184-1.012 0s-0.5-0.52-0.492-0.883c-8e-3 -0.363 0.18-0.699 0.492-0.883 0.313-0.184 0.699-0.184 1.012 0s0.504 0.52 0.496 0.883"/>
     </g>
    </g>
   </g>
  </g>
 </g>
 <g>
  <g clip-path="url(#clipPath-246878285)">
   <g transform="translate(0,-1)">
    <g>
     <path transform="scale(3.5433)" d="m4.437 8.43c1.184 0.039 0.794-0.119 0.842-1.121 0.977-0.742 0.775-0.911-0.076-0.053-0.71-0.034-1.539 0.154-1.033-0.407l1.636-1.51c-0.635-2.139 1.281-3 2.292-1.15 0.743 0.223 0.98 0.324 0.915 0.815-1.151 0.36-1.496-0.082-1.453 0.743 0.086 0.531 2.799 1.428 0.98 1.414l0.183 1.031c1.657 0.691 0.323 1.529-0.657 2.059-0.538-0.409-0.71-0.215-1.313 0.118-1.604-0.086-2.518-0.602-2.335-1.937m0-2e-3" fill="url(#linear0)" stroke="#2d2d2d" stroke-width=".141"/>
     <g fill="none" stroke="#2d2d2d" stroke-width=".141">
      <path transform="scale(3.5433)" d="m5.24 8.389c-0.095 0.019-0.18 0.028-0.262 0.032h-0.043-0.075-0.108-0.084-0.228c-0.054 0.42-0.011 0.754 0.131 1.023l0.032-0.011c0.387-0.161 0.551-0.603 0.636-1.055m1e-3 0"/>
      <path transform="scale(3.5433)" d="m7.463 6.617c-0.842-0.028-1.521 1.508-0.107 3.355 0.204-0.492 0.44-1.603 1.334-1.808-0.29-1.087-0.796-1.528-1.237-1.547"/>
      <path transform="scale(3.5433)" d="m8.089 4.154-0.022 0.026c-0.57 0.082-1.216 0.926-0.387 1.034l0.118-0.011c0.215-0.054 0.603-0.01 1.227-0.204 0.065-0.485-0.172-0.592-0.915-0.818-9e-3 -0.011-0.011-0.022-0.021-0.032"/>
     </g>
     <path d="m26 15c8e-3 0.363-0.184 0.699-0.496 0.883-0.313 0.184-0.699 0.184-1.012 0s-0.5-0.52-0.492-0.883c-8e-3 -0.363 0.18-0.699 0.492-0.883 0.313-0.184 0.699-0.184 1.012 0s0.504 0.52 0.496 0.883" fill="#2d2d2d"/>
    </g>
   </g>
  </g>
 </g>
 <g>
  <g transform="translate(0 -1004.4)">
   <path d="m1 1043.4v4c0 2.216 1.784 4 4 4h38c2.216 0 4-1.784 4-4v-4c0 2.216-1.784 4-4 4h-38c-2.216 0-4-1.784-4-4z" opacity=".1"/>
  </g>
 </g>
</svg>
