<svg viewBox="0 0 48 48">
  <defs>
    <linearGradient id="a" x1="1" x2="47" gradientUnits="userSpaceOnUse" gradientTransform="translate(-48 .002)">
      <stop stop-color="#57b1cf"/>
      <stop offset="1" stop-color="#67b8d3"/>
    </linearGradient>
    <clipPath id="b"/>
    <clipPath id="c"/>
    <linearGradient id="d" gradientUnits="userSpaceOnUse" x1="6.905" y1="10.308" x2="6.712" y2="4.634" gradientTransform="matrix(1.02632 0 0 1.02 -.178 -.135)">
      <stop stop-color="#d5ecf1"/>
      <stop offset="1" stop-color="#f9f9f9"/>
    </linearGradient>
  </defs>
  <path d="M1 43v.25c0 2.216 1.784 4 4 4h38c2.216 0 4-1.784 4-4V43c0 2.216-1.784 4-4 4H5c-2.216 0-4-1.784-4-4zm0 .5v.5c0 2.216 1.784 4 4 4h38c2.216 0 4-1.784 4-4v-.5c0 2.216-1.784 4-4 4H5c-2.216 0-4-1.784-4-4z" opacity=".02"/>
  <path d="M1 43.25v.25c0 2.216 1.784 4 4 4h38c2.216 0 4-1.784 4-4v-.25c0 2.216-1.784 4-4 4H5c-2.216 0-4-1.784-4-4z" opacity=".05"/>
  <path d="M1 43v.25c0 2.216 1.784 4 4 4h38c2.216 0 4-1.784 4-4V43c0 2.216-1.784 4-4 4H5c-2.216 0-4-1.784-4-4z" opacity=".1"/>
  <rect width="46" height="46" x="-47" y="1" rx="4" transform="rotate(-90)" fill="url(#a)"/>
  <g opacity=".1" clip-path="url(#b)">
    <path d="M15.722 29.87c4.195.138 2.813-.422 2.983-3.972 3.462-2.63 2.746-3.228-.27-.188-2.515-.12-5.452.546-3.66-1.442l5.797-5.35c-2.25-7.58 4.54-10.63 8.122-4.075 2.632.79 3.472 1.148 3.242 2.888-4.079 1.275-5.301-.29-5.149 2.632.305 1.882 9.918 5.06 3.473 5.01l.648 3.654c5.872 2.448 1.145 5.417-2.328 7.295-1.906-1.449-2.515-.761-4.652.419-5.684-.305-8.922-2.134-8.274-6.864m0-.007" stroke="#2d2d2d" stroke-width=".5"/>
    <path d="M18.567 29.725a6.205 6.205 0 0 1-.928.113h-1.907c-.191 1.488-.039 2.672.464 3.625l.114-.039c1.371-.57 1.952-2.137 2.253-3.738M26.444 23.446c-2.984-.1-5.39 5.343-.38 11.888.723-1.743 1.56-5.68 4.727-6.406-1.027-3.852-2.82-5.415-4.383-5.482m2.254-8.727l-.078.092c-2.02.29-4.309 3.281-1.371 3.664l.418-.04c.762-.19 2.136-.035 4.347-.722.23-1.719-.61-2.098-3.242-2.898-.032-.04-.039-.078-.074-.114m0 0" stroke="#2d2d2d" stroke-width=".5"/>
    <path d="M26 15a1.001 1.001 0 1 1-2 0 .998.998 0 0 1 1.504-.883A1 1 0 0 1 26 15m0 0"/>
  </g>
  <g clip-path="url(#c)">
    <path d="M4.437 8.43c1.184.039.794-.119.842-1.121.977-.742.775-.911-.076-.053-.71-.034-1.539.154-1.033-.407l1.636-1.51c-.635-2.139 1.281-3 2.292-1.15.743.223.98.324.915.815-1.151.36-1.496-.082-1.453.743.086.531 2.799 1.428.98 1.414l.183 1.031c1.657.691.323 1.529-.657 2.059-.538-.409-.71-.215-1.313.118-1.604-.086-2.518-.602-2.335-1.937m0-.002" transform="translate(0 -1) scale(3.5433)" fill="url(#d)" stroke="#2d2d2d" stroke-width=".141"/>
    <path d="M18.567 28.725a6.205 6.205 0 0 1-.928.113h-1.907c-.191 1.488-.039 2.672.464 3.625l.114-.039c1.371-.57 1.952-2.137 2.253-3.738M26.444 22.446c-2.984-.1-5.39 5.343-.38 11.888.723-1.743 1.56-5.68 4.727-6.406-1.027-3.852-2.82-5.415-4.383-5.482m2.254-8.727l-.078.092c-2.02.29-4.309 3.281-1.371 3.664l.418-.04c.762-.19 2.136-.035 4.347-.722.23-1.719-.61-2.098-3.242-2.898-.032-.04-.039-.078-.074-.114m0 0" fill="none" stroke="#2d2d2d" stroke-width=".5"/>
    <path d="M26 14a1.001 1.001 0 1 1-2 0 .998.998 0 0 1 1.504-.883A1 1 0 0 1 26 14m0 0" fill="#2d2d2d"/>
  </g>
  <path d="M1 38.998v4c0 2.216 1.784 4 4 4h38c2.216 0 4-1.784 4-4v-4c0 2.216-1.784 4-4 4H5c-2.216 0-4-1.784-4-4z" opacity=".1"/>
</svg>
