<svg viewBox="0 0 48 48"><defs><linearGradient id="linearGradient3764" x1="1" x2="47" gradientUnits="userSpaceOnUse" gradientTransform="translate(-48.000001,0.00221467)"><stop stop-color="#e4e4e4" stop-opacity="1"/><stop offset="1" stop-color="#eee" stop-opacity="1"/></linearGradient><clipPath id="clipPath-260752706"><g transform="translate(0,-1004.3622)"><rect rx="4" y="1005.36" x="1" height="46" width="46" fill="#1890d0"/></g></clipPath><clipPath id="clipPath-281944929"><g transform="translate(0,-1004.3622)"><rect rx="4" y="1005.36" x="1" height="46" width="46" fill="#1890d0"/></g></clipPath></defs><g><path d="m 1 43 l 0 0.25 c 0 2.216 1.784 4 4 4 l 38 0 c 2.216 0 4 -1.784 4 -4 l 0 -0.25 c 0 2.216 -1.784 4 -4 4 l -38 0 c -2.216 0 -4 -1.784 -4 -4 z m 0 0.5 l 0 0.5 c 0 2.216 1.784 4 4 4 l 38 0 c 2.216 0 4 -1.784 4 -4 l 0 -0.5 c 0 2.216 -1.784 4 -4 4 l -38 0 c -2.216 0 -4 -1.784 -4 -4 z" opacity="0.02"/><path d="m 1 43.25 l 0 0.25 c 0 2.216 1.784 4 4 4 l 38 0 c 2.216 0 4 -1.784 4 -4 l 0 -0.25 c 0 2.216 -1.784 4 -4 4 l -38 0 c -2.216 0 -4 -1.784 -4 -4 z" opacity="0.05"/><path d="m 1 43 l 0 0.25 c 0 2.216 1.784 4 4 4 l 38 0 c 2.216 0 4 -1.784 4 -4 l 0 -0.25 c 0 2.216 -1.784 4 -4 4 l -38 0 c -2.216 0 -4 -1.784 -4 -4 z" opacity="0.1"/></g><g><rect width="46" height="46" x="-47" y="1" rx="4" transform="matrix(0,-1,1,0,0,0)" fill="url(#linearGradient3764)" fill-opacity="1"/></g><g><g clip-path="url(#clipPath-260752706)"><g opacity="0.1"><!-- color: #eeeeee --><g><path d="m 34 17.996 l 0 12 l -9.992 6 l -10 -5.996 l -0.004 -12 l 9.996 -6 m 10 5.996" stroke="none" fill-rule="nonzero" fill-opacity="1" fill="#000"/><path d="m 28 24 c 0.023 1.441 -0.734 2.785 -1.98 3.516 c -1.246 0.727 -2.789 0.727 -4.04 0 c -1.246 -0.73 -2 -2.074 -1.984 -3.516 c -0.02 -1.445 0.738 -2.785 1.984 -3.516 c 1.246 -0.727 2.789 -0.727 4.04 0 c 1.246 0.73 2 2.07 1.98 3.516 m 0 0" stroke="none" fill-rule="nonzero" fill-opacity="1" fill="#000"/></g></g></g></g><g><g clip-path="url(#clipPath-281944929)"><g transform="translate(0,-1)"><!-- color: #eeeeee --><g><path d="m 34 17.996 l 0 12 l -9.992 6 l -10 -5.996 l -0.004 -12 l 9.996 -6 m 10 5.996" fill="#007f00" stroke="none" fill-rule="nonzero" fill-opacity="1"/><path d="m 28 24 c 0.023 1.441 -0.734 2.785 -1.98 3.516 c -1.246 0.727 -2.789 0.727 -4.04 0 c -1.246 -0.73 -2 -2.074 -1.984 -3.516 c -0.02 -1.445 0.738 -2.785 1.984 -3.516 c 1.246 -0.727 2.789 -0.727 4.04 0 c 1.246 0.73 2 2.07 1.98 3.516 m 0 0" fill="#ffd6b9" stroke="none" fill-rule="nonzero" fill-opacity="1"/></g></g></g></g><g><g transform="translate(0,-1004.3622)"><path d="m 1 1043.36 0 4 c 0 2.216 1.784 4 4 4 l 38 0 c 2.216 0 4 -1.784 4 -4 l 0 -4 c 0 2.216 -1.784 4 -4 4 l -38 0 c -2.216 0 -4 -1.784 -4 -4 z" opacity="0.1"/></g></g></svg>