<svg version="1.1" viewBox="0 0 48 48" xmlns="http://www.w3.org/2000/svg">
 <defs>
  <linearGradient id="bg" x2="0" y1="1" y2="47" gradientUnits="userSpaceOnUse">
   <stop style="stop-color:#9974ae" offset="0"/>
   <stop style="stop-color:#9067a7" offset="1"/>
  </linearGradient>
 </defs>
 <path d="m1 43v0.25c0 2.216 1.784 4 4 4h38c2.216 0 4-1.784 4-4v-0.25c0 2.216-1.784 4-4 4h-38c-2.216 0-4-1.784-4-4zm0 0.5v0.5c0 2.216 1.784 4 4 4h38c2.216 0 4-1.784 4-4v-0.5c0 2.216-1.784 4-4 4h-38c-2.216 0-4-1.784-4-4z" style="opacity:.02"/>
 <path d="m1 43.25v0.25c0 2.216 1.784 4 4 4h38c2.216 0 4-1.784 4-4v-0.25c0 2.216-1.784 4-4 4h-38c-2.216 0-4-1.784-4-4z" style="opacity:.05"/>
 <path d="m1 43v0.25c0 2.216 1.784 4 4 4h38c2.216 0 4-1.784 4-4v-0.25c0 2.216-1.784 4-4 4h-38c-2.216 0-4-1.784-4-4z" style="opacity:.1"/>
 <rect x="1" y="1" width="46" height="46" rx="4" style="fill:url(#bg)"/>
 <path d="m1 39v4c0 2.216 1.784 4 4 4h38c2.216 0 4-1.784 4-4v-4c0 2.216-1.784 4-4 4h-38c-2.216 0-4-1.784-4-4z" style="opacity:.1"/>
 <path d="m16 11 2.6992 15c0.179 0.994 0.83578 3 3.3008 3v4h-2c-0.554 0-1 0.446-1 1-1.385 0-2 1.615-2 3h14c0-1.385-0.615-3-2-3 0-0.554-0.446-1-1-1h-2v-4c2.465 0 3.1218-2.01 3.3008-3l2.6992-15zm9.8027 1.998-2e-3 2e-3c1 0 1.6192 0.646 4.1992 0 0 0.581-1.3253 2.1576-2.3223 2.2676-0.602 0.066-1.3301-0.26778-2.2461 0.19922l1.4766 6.4844c0.36 1.299-0.40452 2.7621-1.8535 3.5371-1.732 0.927-3.8325 0.5625-4.6895-0.8125-0.857-1.374-0.14902-3.2391 1.584-4.1641 1.12-0.598 2.4512-0.67412 3.4902-0.20312l-1.4375-6.3105c0.367-0.463 0.80078-1 1.8008-1z" style="opacity:.1"/>
 <path d="m16 10 2.699 15c0.179 0.994 0.836 3 3.301 3v4h-2c-0.554 0-1 0.446-1 1-1.385 0-2 1.615-2 3h14c0-1.385-0.615-3-2-3 0-0.554-0.446-1-1-1h-2v-4c2.465 0 3.122-2.01 3.301-3l2.699-15m-6.199 2c1 0 1.619 0.646 4.199 0 0 0.581-1.325 2.158-2.322 2.268-0.602 0.066-1.33-0.268-2.246 0.199l1.477 6.484c0.36 1.299-0.406 2.762-1.855 3.537-1.732 0.927-3.832 0.562-4.689-0.813-0.857-1.374-0.149-3.239 1.584-4.164 1.12-0.598 2.451-0.674 3.49-0.203l-1.438-6.309c0.367-0.463 0.801-1 1.801-1z" style="fill:#f9f9f9"/>
</svg>
