<svg version="1.1" viewBox="0 0 48 48" xmlns="http://www.w3.org/2000/svg">
 <defs>
  <linearGradient id="bg" x2="0" y1="1" y2="47" gradientUnits="userSpaceOnUse">
   <stop style="stop-color:#e46438" offset="0"/>
   <stop style="stop-color:#e25626" offset="1"/>
  </linearGradient>
 </defs>
 <path d="m1 43v0.25c0 2.216 1.784 4 4 4h38c2.216 0 4-1.784 4-4v-0.25c0 2.216-1.784 4-4 4h-38c-2.216 0-4-1.784-4-4zm0 0.5v0.5c0 2.216 1.784 4 4 4h38c2.216 0 4-1.784 4-4v-0.5c0 2.216-1.784 4-4 4h-38c-2.216 0-4-1.784-4-4z" style="opacity:.02"/>
 <path d="m1 43.25v0.25c0 2.216 1.784 4 4 4h38c2.216 0 4-1.784 4-4v-0.25c0 2.216-1.784 4-4 4h-38c-2.216 0-4-1.784-4-4z" style="opacity:.05"/>
 <path d="m1 43v0.25c0 2.216 1.784 4 4 4h38c2.216 0 4-1.784 4-4v-0.25c0 2.216-1.784 4-4 4h-38c-2.216 0-4-1.784-4-4z" style="opacity:.1"/>
 <rect x="1" y="1" width="46" height="46" rx="4" style="fill:url(#bg)"/>
 <path d="m1 39v4c0 2.216 1.784 4 4 4h38c2.216 0 4-1.784 4-4v-4c0 2.216-1.784 4-4 4h-38c-2.216 0-4-1.784-4-4z" style="opacity:.1"/>
 <path d="m16 12.125-4 15 8 9h8l8-9-4-15h-12zm3.5996 1h8.8008l5.5996 14-7 7.875v-3.875h-6v3.875l-7-7.875zm0.40039 2 1 2h1l1 5h2l1-5h1l1-2zm-3 9 4 4 1-2zm14 0-5 2 1 2z" style="opacity:.1"/>
 <path d="m16 11-4 15 8 9h8l8-9-4-15h-12zm3.5996 1h8.8008l5.5996 14-7 7.875v-3.875h-6v3.875l-7-7.875zm0.40039 2 1 2h1l1 5h2l1-5h1l1-2zm-3 9 4 4 1-2zm14 0-5 2 1 2z" style="fill:#383838"/>
</svg>
