<svg version="1.1" viewBox="0 0 48 48" xmlns="http://www.w3.org/2000/svg">
 <defs>
  <linearGradient id="bg" x2="0" y1="1" y2="47" gradientUnits="userSpaceOnUse">
   <stop style="stop-color:#f181a6" offset="0"/>
   <stop style="stop-color:#ef719a" offset="1"/>
  </linearGradient>
 </defs>
 <path d="m1 43v0.25c0 2.22 1.78 4 4 4h38c2.22 0 4-1.78 4-4v-0.25c0 2.22-1.78 4-4 4h-38c-2.22 0-4-1.78-4-4zm0 0.5v0.5c0 2.22 1.78 4 4 4h38c2.22 0 4-1.78 4-4v-0.5c0 2.22-1.78 4-4 4h-38c-2.22 0-4-1.78-4-4z" style="opacity:.02"/>
 <path d="m1 43.2v0.25c0 2.22 1.78 4 4 4h38c2.22 0 4-1.78 4-4v-0.25c0 2.22-1.78 4-4 4h-38c-2.22 0-4-1.78-4-4z" style="opacity:.05"/>
 <path d="m1 43v0.25c0 2.22 1.78 4 4 4h38c2.22 0 4-1.78 4-4v-0.25c0 2.22-1.78 4-4 4h-38c-2.22 0-4-1.78-4-4z" style="opacity:.1"/>
 <rect x="1" y="1" width="46" height="46" rx="4" style="fill:url(#bg)"/>
 <path d="m8 0.998v5.5l-0.00195 0.00195v0.5h-7v1l7-0.00195v7h-7v1h7v7h-7v1h7v7h-7v1h7v7l-7-2e-3v1h7v7h1l-2e-3 -5.56 0.0039 0.0039v-1.44h7v7h1v-7h7v7h1v-7h7v7h1v-7l7-0.0039v0.5l2e-3 -2e-3v6.5h1v-7h6v-1h-6l-2e-3 -7h6v-1h-6v-7h6v-1h-6v-7h6v-1h-6l2e-3 -7h6v-1h-6v-6h-1v5.51l-0.0059-0.00586v0.5l-7-0.00391v-6h-1v6h-7v-6h-1v6h-7v-6h-1v6h-7v-1.44l0.0019-4.56h-1zm1 7h7v7h-7zm8 0h7v7h-7zm8 0h7v7h-7zm8 0h7v7h-7zm-24 8h7v7h-7zm8 0h7v7h-7zm8 0h7v7h-7zm8 0h7v7h-7zm-24 8h7v7h-7zm8 0h7v7h-7zm8 0h7v7h-7zm8 0h7v7h-7zm-24 8h7v7h-7zm8 0h7v7h-7zm8 0h7v7h-7zm8 0h7v7h-7z" style="fill:#fff;opacity:.2"/>
 <path d="m1 39v4c0 2.22 1.78 4 4 4h38c2.22 0 4-1.78 4-4v-4c0 2.22-1.78 4-4 4h-38c-2.22 0-4-1.78-4-4z" style="opacity:.1"/>
 <path d="m28 18-5.42-2.68c-0.654 0.509-0.771 1.45-0.262 2.11l2.01 2.58h-1.82c-0.831 0-1.5 0.669-1.5 1.5s0.669 1.5 1.5 1.5l-9.5 10-1 3 3-1 11-11v2.5c0 0.831 0.669 1.5 1.5 1.5s1.5-0.669 1.5-1.5v-2.47l2.7 1.7c0.701 0.442 1.63 0.232 2.07-0.469 0.443-0.701 0.233-1.63-0.469-2.07l-1.89-1.19h3.1c0.831 0 1.5-0.669 1.5-1.5s-0.669-1.5-1.5-1.5h-2.24l3.12-2.29c0.667-0.49 0.812-1.43 0.322-2.1l-4.89 1.72 1.03-2.21c0.349-0.751 0.024-1.64-0.727-1.99z" style="opacity:.1"/>
 <path d="m30.6 11c-0.606-0.0256-1.17 0.317-1.42 0.867l-1.13 2.43v-1.79c0-0.831-0.669-1.5-1.5-1.5s-1.5 0.669-1.5 1.5v2.48l-0.316-0.406c-0.509-0.654-1.45-0.771-2.11-0.262-0.654 0.509-0.771 1.45-0.262 2.11l2.01 2.58h-1.82c-0.831 0-1.5 0.669-1.5 1.5s0.669 1.5 1.5 1.5h0.5l-10 10-1 3 3-1 11-11v2.5c0 0.831 0.669 1.5 1.5 1.5s1.5-0.669 1.5-1.5v-2.47l2.7 1.7c0.701 0.442 1.63 0.232 2.07-0.469 0.443-0.701 0.233-1.63-0.469-2.07l-1.89-1.19h3.1c0.831 0 1.5-0.669 1.5-1.5s-0.669-1.5-1.5-1.5h-2.24l3.12-2.29c0.667-0.49 0.812-1.43 0.322-2.1-0.235-0.321-0.588-0.535-0.98-0.596-0.393-0.0604-0.794 0.038-1.12 0.273l-2.79 2.05 1.03-2.21c0.349-0.751 0.024-1.64-0.727-1.99-0.179-0.0831-0.372-0.13-0.568-0.139z" style="fill:#f9f9f9"/>
</svg>
