<svg style="" version="1.1" viewBox="0 0 48 48" xmlns="http://www.w3.org/2000/svg">
 <defs style="">
  <linearGradient id="bg" x1="1" x2="47" gradientTransform="translate(-48 .00222)" gradientUnits="userSpaceOnUse">
   <stop style="stop-color:#575757" offset="0"/>
   <stop style="stop-color:#616161" offset="1"/>
  </linearGradient>
 </defs>
 <path d="m1 43v.25c0 2.22 1.78 4 4 4h38c2.22 0 4-1.78 4-4v-.25c0 2.22-1.78 4-4 4h-38c-2.22 0-4-1.78-4-4zm0 .5v.5c0 2.22 1.78 4 4 4h38c2.22 0 4-1.78 4-4v-.5c0 2.22-1.78 4-4 4h-38c-2.22 0-4-1.78-4-4z" style="opacity:.02"/>
 <path d="m1 43.2v.25c0 2.22 1.78 4 4 4h38c2.22 0 4-1.78 4-4v-.25c0 2.22-1.78 4-4 4h-38c-2.22 0-4-1.78-4-4z" style="opacity:.05"/>
 <path d="m1 43v.25c0 2.22 1.78 4 4 4h38c2.22 0 4-1.78 4-4v-.25c0 2.22-1.78 4-4 4h-38c-2.22 0-4-1.78-4-4z" style="opacity:.1"/>
 <rect transform="rotate(-90)" x="-47" y="1" width="46" height="46" rx="4" style="fill:url(#bg)"/>
 <path d="m1 39v4c0 2.22 1.78 4 4 4h38c2.22 0 4-1.78 4-4v-4c0 2.22-1.78 4-4 4h-38c-2.22 0-4-1.78-4-4z" style="opacity:.1"/>
 <path d="m11 13v2h2v2h2v-2h2v-2zm20 0v2h2v2h2v-2h2v-2zm-12 0v2h4v-2zm6 0v2h4v-2zm-5 4c-1.66 0-3 1.34-3 3s1.34 3 3 3 3-1.34 3-3-1.34-3-3-3zm8 0c-1.66 0-3 1.34-3 3s1.34 3 3 3 3-1.34 3-3-1.34-3-3-3zm-15 2v4h2v-4zm7 0c.552 0 1 .448 1 1s-.448 1-1 1-1-.448-1-1 .448-1 1-1zm8 0c.552 0 1 .448 1 1s-.448 1-1 1-1-.448-1-1 .448-1 1-1zm5 0v4h2v-4zm-20 6v4h2v-4zm6 0 2 6h2l1-3 1 3h2l2-6h-2l-1 3-1-3-3 3-1-3zm14 0v4h2v-4zm-22 8v2h2v2h2v-2h2v-2zm20 0v2h2v2h2v-2h2v-2zm-12 0v2h4v-2zm6 0v2h4v-2z" style="opacity:.1"/>
 <path d="m13 10v2h-2v2h2v2h2v-2h2v-2h-2v-2zm20 0v2h-2v2h2v2h2v-2h2v-2h-2v-2zm-14 2v2h4v-2zm6 0v2h4v-2zm-5 4a3 3 0 00-3 3 3 3 0 003 3 3 3 0 003-3 3 3 0 00-3-3zm8 0a3 3 0 00-3 3 3 3 0 003 3 3 3 0 003-3 3 3 0 00-3-3zm-15 2v4h2v-4zm7 0a1 1 0 011 1 1 1 0 01-1 1 1 1 0 01-1-1 1 1 0 011-1zm8 0a1 1 0 011 1 1 1 0 01-1 1 1 1 0 01-1-1 1 1 0 011-1zm5 0v4h2v-4zm-20 6v4h2v-4zm6 0 2 6h2l1-3 1 3h2l2-6h-2l-1 3-1-3h-2l-1 3-1-3zm14 0v4h2v-4zm-20 6v2h-2v2h2v2h2v-2h2v-2h-2v-2zm20 0v2h-2v2h2v2h2v-2h2v-2h-2v-2zm-14 2v2h4v-2zm6 0v2h4v-2z" style="fill:#f9f9f9"/>
</svg>
