<svg style="" viewBox="0 0 48 48" xmlns="http://www.w3.org/2000/svg" xmlns:xlink="http://www.w3.org/1999/xlink">
 <defs style="">
  <linearGradient id="linearGradient3764" gradientTransform="translate(-48 .002215)" gradientUnits="userSpaceOnUse" style="" x1="1" x2="47">
   <stop offset="0" style="stop-color:#588f27"/>
   <stop offset="1" style="stop-color:#619f2b"/>
  </linearGradient>
 </defs>
 <path d="m 1 43 v .25 c 0 2.216 1.784 4 4 4 h 38 c 2.216 0 4 -1.784 4 -4 v -.25 c 0 2.216 -1.784 4 -4 4 h -38 c -2.216 0 -4 -1.784 -4 -4 z m 0 .5 v .5 c 0 2.216 1.784 4 4 4 h 38 c 2.216 0 4 -1.784 4 -4 v -.5 c 0 2.216 -1.784 4 -4 4 h -38 c -2.216 0 -4 -1.784 -4 -4 z" style="opacity:.02"/>
 <path d="m 1 43.25 v .25 c 0 2.216 1.784 4 4 4 h 38 c 2.216 0 4 -1.784 4 -4 v -.25 c 0 2.216 -1.784 4 -4 4 h -38 c -2.216 0 -4 -1.784 -4 -4 z" style="opacity:.05"/>
 <path d="m 1 43 v .25 c 0 2.216 1.784 4 4 4 h 38 c 2.216 0 4 -1.784 4 -4 v -.25 c 0 2.216 -1.784 4 -4 4 h -38 c -2.216 0 -4 -1.784 -4 -4 z" style="opacity:.1"/>
 <rect height="46" rx="4" style="fill:url(#linearGradient3764)" transform="rotate(-90)" width="46" x="-47" y="1"/>
 <g style="opacity:.1">
  <path d="m 23.266 9.02 c -1.234 .008 -2.395 .672 -2.945 1.816 -.805 1.664 -.031 3.723 1.723 4.617 1.754 .895 3.824 .277 4.629 -1.387 s .043 -3.738 -1.711 -4.633 c -.547 -.277 -1.133 -.414 -1.695 -.414 m -.848 1.758 c .395 -.039 .805 .039 1.195 .238 1.035 .527 1.492 1.746 1.02 2.73 -.473 .98 -1.691 1.352 -2.727 .824 -1.035 -.527 -1.496 -1.746 -1.023 -2.73 .297 -.613 .883 -.996 1.535 -1.063" style=""/>
  <path d="m 19.03 22.996 c -3.73 1.949 -8.09 4.891 -6.801 7.551 1.75 3.59 10.227 4.688 14.574 2.848 -2.133 -2.316 -8.574 -5.637 -7.98 -9.516 .047 -.305 .121 -.598 .203 -.887" style=""/>
  <path d="m 28.08 17.07 c -2.934 -.781 -7.727 2.277 -8.438 6.543 -.707 4.266 7.727 7.867 9.102 10.184 1.367 2.316 .66 5.195 .66 5.195 s 5.953 -4.836 6.566 -11.238 c .602 -6.398 -4.855 -9.875 -7.867 -10.68" style=""/>
  <path d="m 24.82 14.02 c -.559 .965 -1.902 1.203 -3.01 .531 -1.105 -.672 -1.551 -2 -.996 -2.965 .559 -.961 1.902 -1.199 3.01 -.527 1.105 .672 1.551 1.996 .996 2.961" style=""/>
 </g>
 <path d="m 23.266 8.02 c -1.234 .008 -2.395 .672 -2.945 1.816 -.805 1.664 -.031 3.723 1.723 4.617 1.754 .895 3.824 .277 4.629 -1.387 s .043 -3.738 -1.711 -4.633 c -.547 -.277 -1.133 -.414 -1.695 -.414 m -.848 1.758 c .395 -.039 .805 .039 1.195 .238 1.035 .527 1.492 1.746 1.02 2.73 -.473 .98 -1.691 1.352 -2.727 .824 -1.035 -.527 -1.496 -1.746 -1.023 -2.73 .297 -.613 .883 -.996 1.535 -1.063" style="fill:#fff"/>
 <path d="m 19.03 21.996 c -3.73 1.949 -8.09 4.891 -6.801 7.551 1.75 3.59 10.227 4.688 14.574 2.848 -2.133 -2.316 -8.574 -5.637 -7.98 -9.516 .047 -.305 .121 -.598 .203 -.887" style="fill:#dcb90a"/>
 <path d="m 28.08 16.07 c -2.934 -.781 -7.727 2.277 -8.438 6.543 -.707 4.266 7.727 7.867 9.102 10.184 1.367 2.316 .66 5.195 .66 5.195 s 5.953 -4.836 6.566 -11.238 c .602 -6.398 -4.855 -9.875 -7.867 -10.68" style="fill:#ffec00"/>
 <path d="m 24.82 13.02 c -.559 .965 -1.902 1.203 -3.01 .531 -1.105 -.672 -1.551 -2 -.996 -2.965 .559 -.961 1.902 -1.199 3.01 -.527 1.105 .672 1.551 1.996 .996 2.961" style="fill:#454545"/>
 <path d="m 1 39 v 4 c 0 2.216 1.784 4 4 4 h 38 c 2.216 0 4 -1.784 4 -4 v -4 c 0 2.216 -1.784 4 -4 4 h -38 c -2.216 0 -4 -1.784 -4 -4 z" style="opacity:.1"/>
</svg>
