<svg version="1.1" viewBox="0 0 48 48" xmlns="http://www.w3.org/2000/svg">
 <defs>
  <linearGradient id="linearGradient4501" x1="-47" x2="-1" y1="0" y2="0" gradientUnits="userSpaceOnUse">
   <stop style="stop-color:#3d3d3d" offset="0"/>
   <stop style="stop-color:#474747" offset="1"/>
  </linearGradient>
 </defs>
 <path d="m1 43v0.25c0 2.22 1.78 4 4 4h38c2.22 0 4-1.78 4-4v-0.25c0 2.22-1.78 4-4 4h-38c-2.22 0-4-1.78-4-4zm0 0.5v0.5c0 2.22 1.78 4 4 4h38c2.22 0 4-1.78 4-4v-0.5c0 2.22-1.78 4-4 4h-38c-2.22 0-4-1.78-4-4z" style="opacity:.02"/>
 <path d="m1 43.3v0.25c0 2.22 1.78 4 4 4h38c2.22 0 4-1.78 4-4v-0.25c0 2.22-1.78 4-4 4h-38c-2.22 0-4-1.78-4-4z" style="opacity:.05"/>
 <path d="m1 43v0.25c0 2.22 1.78 4 4 4h38c2.22 0 4-1.78 4-4v-0.25c0 2.22-1.78 4-4 4h-38c-2.22 0-4-1.78-4-4z" style="opacity:.1"/>
 <rect transform="rotate(-90)" x="-47" y="1" width="46" height="46" rx="4" style="fill:url(#linearGradient4501)"/>
 <path d="m1 39v4c0 2.22 1.78 4 4 4h38c2.22 0 4-1.78 4-4v-4c0 2.22-1.78 4-4 4h-38c-2.22 0-4-1.78-4-4z" style="opacity:.1"/>
 <path d="m21 11v3l-9.5 5.5 2.5 1.94v11.4l3.01-1.59 9.99 5.8v-3l9.5-5.4-2.5-1.99v-11.4l-3 1.45-10-5.71zm2.87 4.66 7.13 4.14v8.54l-6.86 3.95-7.14-4.28-0.0078-8.32 6.87-4.02z" style="opacity:.1"/>
 <path d="m31 27.4-1.08e-4 -11.7 3-1.45v11.4z" style="fill:#e94346"/>
 <path d="m24 31.3 9.96-5.74 2.5 1.99-9.5 5.4z" style="fill:#a961ad"/>
 <path d="m17 18.5 0.0121 11.7-3.01 1.59v-11.4z" style="fill:#67ca60"/>
 <path d="m24 14.6-9.96 5.83-2.5-1.94 9.5-5.5" style="fill:#f4e134"/>
 <path d="m31 18.8-10-5.8v-3l10 5.71z" style="fill:#f19e45"/>
 <path d="m17 27 10 6v3l-9.99-5.8z" style="fill:#759ed1"/>
</svg>
