<svg version="1.1" viewBox="0 0 48 48" xmlns="http://www.w3.org/2000/svg">
 <defs>
  <linearGradient id="bg" x1="1" x2="47" gradientTransform="translate(-48 .00221)" gradientUnits="userSpaceOnUse">
   <stop style="stop-color:#333" offset="0"/>
   <stop style="stop-color:#3d3d3d" offset="1"/>
  </linearGradient>
 </defs>
 <path d="m1 43v0.25c0 2.216 1.784 4 4 4h38c2.216 0 4-1.784 4-4v-0.25c0 2.216-1.784 4-4 4h-38c-2.216 0-4-1.784-4-4zm0 0.5v0.5c0 2.216 1.784 4 4 4h38c2.216 0 4-1.784 4-4v-0.5c0 2.216-1.784 4-4 4h-38c-2.216 0-4-1.784-4-4z" style="opacity:.02"/>
 <path d="m1 43.25v0.25c0 2.216 1.784 4 4 4h38c2.216 0 4-1.784 4-4v-0.25c0 2.216-1.784 4-4 4h-38c-2.216 0-4-1.784-4-4z" style="opacity:.05"/>
 <path d="m1 43v0.25c0 2.216 1.784 4 4 4h38c2.216 0 4-1.784 4-4v-0.25c0 2.216-1.784 4-4 4h-38c-2.216 0-4-1.784-4-4z" style="opacity:.1"/>
 <rect transform="rotate(-90)" x="-47" y="1" width="46" height="46" rx="4" style="fill:url(#bg)"/>
 <g transform="translate(0,-1004.4)">
  <path d="m1 1043.4v4c0 2.216 1.784 4 4 4h38c2.216 0 4-1.784 4-4v-4c0 2.216-1.784 4-4 4h-38c-2.216 0-4-1.784-4-4z" style="opacity:.1"/>
 </g>
 <path d="m29 14c-1.8225 0-3.4135 1.2353-3.8691 3h-15.131v2h15.133c0.45546 1.764 2.0454 2.9974 3.8672 3 1.8225-0.0018 3.4135-1.2353 3.8691-3h5.1309v-2h-5.1328c-0.45546-1.764-2.0454-3-3.8672-3zm0 2c1.1046 0 2 0.89543 2 2s-0.89543 2-2 2c-1.1046 0-2-0.89543-2-2s0.89543-2 2-2zm-10 10c-1.8218 0.0026-3.4117 1.236-3.8672 3h-5.1328v2h5.1309c0.45564 1.7647 2.0466 2.9982 3.8691 3 1.8218-0.0026 3.4117-1.236 3.8672-3h15.133v-2h-15.131c-0.45564-1.7647-2.0466-2.9982-3.8691-3zm0 2c1.1046 0 2 0.89543 2 2s-0.89543 2-2 2-2-0.89543-2-2 0.89543-2 2-2z" style="opacity:.1"/>
 <path d="m29 13c-1.8211 0.0035-3.41 1.2367-3.8652 3h-15.135v2h15.135c0.45527 1.7633 2.0441 2.9965 3.8652 3 1.8211-0.0035 3.41-1.2367 3.8652-3h5.1348v-2h-5.127c-0.456-1.7661-2.049-3-3.873-3zm0 2c1.1046 0 2 0.89543 2 2s-0.89543 2-2 2c-1.1046 0-2-0.89543-2-2s0.89543-2 2-2zm-10 10c-1.8211 0.0035-3.41 1.2367-3.8652 3h-5.1348v2h5.1348c0.45527 1.7633 2.0441 2.9965 3.8652 3 1.8211-0.0035 3.41-1.2367 3.8652-3h15.135v-2h-15.127c-0.456-1.7661-2.049-3-3.873-3zm0 2c1.1046 0 2 0.89543 2 2s-0.89543 2-2 2-2-0.89543-2-2 0.89543-2 2-2z" style="fill:#16fa32"/>
</svg>
