<svg width="48" height="48" version="1.1" viewBox="0 0 48 48.000001" xmlns="http://www.w3.org/2000/svg">
 <defs>
  <linearGradient id="linearGradient4501" x1="-47" x2="-1" y1="2.8779e-15" y2="6.1232e-17" gradientUnits="userSpaceOnUse">
   <stop style="stop-color:#bc5e12" offset="0"/>
   <stop style="stop-color:#ce6714" offset="1"/>
  </linearGradient>
 </defs>
 <g transform="translate(0 3.949e-5)">
  <path d="m1 43v0.25c0 2.216 1.784 4 4 4h38c2.216 0 4-1.784 4-4v-0.25c0 2.216-1.784 4-4 4h-38c-2.216 0-4-1.784-4-4zm0 0.5v0.5c0 2.216 1.784 4 4 4h38c2.216 0 4-1.784 4-4v-0.5c0 2.216-1.784 4-4 4h-38c-2.216 0-4-1.784-4-4z" style="opacity:.02"/>
  <path d="m1 43.25v0.25c0 2.216 1.784 4 4 4h38c2.216 0 4-1.784 4-4v-0.25c0 2.216-1.784 4-4 4h-38c-2.216 0-4-1.784-4-4z" style="opacity:.05"/>
  <path d="m1 43v0.25c0 2.216 1.784 4 4 4h38c2.216 0 4-1.784 4-4v-0.25c0 2.216-1.784 4-4 4h-38c-2.216 0-4-1.784-4-4z" style="opacity:.1"/>
 </g>
 <rect transform="rotate(-90)" x="-47" y="1" width="46" height="46" rx="4" style="fill:url(#linearGradient4501)"/>
 <g transform="translate(0 3.949e-5)">
  <g transform="translate(0 -1004.4)">
   <path d="m1 1043.4v4c0 2.216 1.784 4 4 4h38c2.216 0 4-1.784 4-4v-4c0 2.216-1.784 4-4 4h-38c-2.216 0-4-1.784-4-4z" style="opacity:.1"/>
  </g>
 </g>
 <rect x="10" y="18" width="29" height="13" style="opacity:.1"/>
 <rect x="10" y="17" width="29" height="13" style="fill:#c1962f"/>
 <path d="m12 20v9h1v-4h1v-1h-1v-3h1v3h1v-4zm4 0v9h3v-9zm4 0v9h5v-9h-1v7h-1v-6h-1v6h-1v-7zm6 0v9h2v-1h1v-7h-1v6h-1v-6h1v-1zm4 0v9h3v-2h-2v-2h1v-1h-1v-3h2v-1zm4 0v9h1v-5h1v-1h-1v-2h1v2h1v-3zm2 4v5h1v-5zm-19-3h1v6h-1z" style="opacity:.1"/>
 <path d="m12 19v9h1v-4h1v-1h-1v-3h1v3h1v-4h-3z" style="fill:#f9f9f9"/>
 <path d="m16 19v9h3v-9h-3zm1 1h1v6h-1z" style="fill:#f9f9f9"/>
 <path d="m20 19v9h5v-9h-1v7h-1v-6h-1v6h-1v-7z" style="fill:#f9f9f9"/>
 <path d="m26 19v9h2v-1h1v-7h-1v6h-1v-6h1v-1h-2z" style="fill:#f9f9f9"/>
 <path d="m30 19v9h3v-2h-2v-2h1v-1h-1v-3h2v-1z" style="fill:#f9f9f9"/>
 <path d="m34 19v9h1v-5h1v-1h-1v-2h1v2h1v-3h-3zm2 4v5h1v-5z" style="fill:#f9f9f9"/>
</svg>
