<svg xmlns="http://www.w3.org/2000/svg" height="48" width="48" version="1.1" viewBox="0 0 48 48">
 <defs>
  <linearGradient id="linearGradient4501" y2="6.1232e-17" gradientUnits="userSpaceOnUse" y1="2.8779e-15" x2="-1" x1="-47">
   <stop style="stop-color:#c1371f" offset="0"/>
   <stop style="stop-color:#d23c22" offset="1"/>
  </linearGradient>
  <clipPath id="clipPath-934893249">
   <g transform="translate(0 -1004.4)">
    <rect style="fill:#1890d0" rx="4" height="46" width="46" y="1005.4" x="1"/>
   </g>
  </clipPath>
  <clipPath id="clipPath-922018824">
   <g transform="translate(0 -1004.4)">
    <rect style="fill:#1890d0" rx="4" height="46" width="46" y="1005.4" x="1"/>
   </g>
  </clipPath>
 </defs>
 <g transform="translate(0 3.949e-5)">
  <path style="opacity:.02" d="m1 43v0.25c0 2.216 1.784 4 4 4h38c2.216 0 4-1.784 4-4v-0.25c0 2.216-1.784 4-4 4h-38c-2.216 0-4-1.784-4-4zm0 0.5v0.5c0 2.216 1.784 4 4 4h38c2.216 0 4-1.784 4-4v-0.5c0 2.216-1.784 4-4 4h-38c-2.216 0-4-1.784-4-4z"/>
  <path style="opacity:.05" d="m1 43.25v0.25c0 2.216 1.784 4 4 4h38c2.216 0 4-1.784 4-4v-0.25c0 2.216-1.784 4-4 4h-38c-2.216 0-4-1.784-4-4z"/>
  <path style="opacity:.1" d="m1 43v0.25c0 2.216 1.784 4 4 4h38c2.216 0 4-1.784 4-4v-0.25c0 2.216-1.784 4-4 4h-38c-2.216 0-4-1.784-4-4z"/>
 </g>
 <rect style="fill:url(#linearGradient4501)" rx="4" transform="rotate(-90)" height="46" width="46" y="1" x="-47"/>
 <g transform="translate(0 3.949e-5)">
  <g transform="translate(0 -1004.4)">
   <path style="opacity:.1" d="m1 1043.4v4c0 2.216 1.784 4 4 4h38c2.216 0 4-1.784 4-4v-4c0 2.216-1.784 4-4 4h-38c-2.216 0-4-1.784-4-4z"/>
  </g>
 </g>
 <g clip-path="url(#clipPath-922018824)">
  <g style="opacity:.1">
   <path d="m36 34v-4h-12v4m12 0"/>
   <path d="m14.746 30-2.742-2.906 6.172-5.094-6.172-5.09 2.742-2.91l9.258 8m-9.258 8"/>
  </g>
 </g>
 <g style="fill:#f9f9f9">
  <g style="fill:#f9f9f9" clip-path="url(#clipPath-934893249)">
   <g style="fill:#f9f9f9" transform="translate(0,-1)">
    <g style="fill:#f9f9f9">
     <path style="fill:#f9f9f9" d="m36 34v-4h-12v4m12 0"/>
     <path style="fill:#f9f9f9" d="m14.746 30-2.742-2.906 6.172-5.094-6.172-5.09 2.742-2.91l9.258 8m-9.258 8"/>
    </g>
   </g>
  </g>
 </g>
</svg>
