<svg viewBox="0 0 48 48">
  <defs>
    <linearGradient id="a" x1="1" x2="47" gradientUnits="userSpaceOnUse" gradientTransform="translate(-48 .002)">
      <stop stop-color="#e4e4e4"/>
      <stop offset="1" stop-color="#eee"/>
    </linearGradient>
    <clipPath id="b"/>
    <clipPath id="c"/>
  </defs>
  <path d="M1 43v.25c0 2.216 1.784 4 4 4h38c2.216 0 4-1.784 4-4V43c0 2.216-1.784 4-4 4H5c-2.216 0-4-1.784-4-4zm0 .5v.5c0 2.216 1.784 4 4 4h38c2.216 0 4-1.784 4-4v-.5c0 2.216-1.784 4-4 4H5c-2.216 0-4-1.784-4-4z" opacity=".02"/>
  <path d="M1 43.25v.25c0 2.216 1.784 4 4 4h38c2.216 0 4-1.784 4-4v-.25c0 2.216-1.784 4-4 4H5c-2.216 0-4-1.784-4-4z" opacity=".05"/>
  <path d="M1 43v.25c0 2.216 1.784 4 4 4h38c2.216 0 4-1.784 4-4V43c0 2.216-1.784 4-4 4H5c-2.216 0-4-1.784-4-4z" opacity=".1"/>
  <rect width="46" height="46" x="-47" y="1" rx="4" transform="rotate(-90)" fill="url(#a)"/>
  <g opacity=".1" clip-path="url(#b)">
    <path d="M8.25 11.996h7.5c.691 0 1.25.598 1.25 1.336v5.332c0 .738-.559 1.332-1.25 1.332h-7.5c-.691 0-1.25-.594-1.25-1.332v-5.332c0-.738.559-1.336 1.25-1.336m0 0"/>
    <path d="M9 12.996h6c.551 0 1 .449 1 1v4a1 1 0 0 1-1 1H9a1 1 0 0 1-1-1v-4c0-.551.449-1 1-1m0 0M21 12.996h6c.551 0 1 .449 1 1v4a1 1 0 0 1-1 1h-6a1 1 0 0 1-1-1v-4c0-.551.449-1 1-1m0 0M33 12.996h6c.551 0 1 .449 1 1v4a1 1 0 0 1-1 1h-6a1 1 0 0 1-1-1v-4c0-.551.449-1 1-1m0 0M10.145 20.996h13.711c.633 0 1.145.598 1.145 1.336v5.332c0 .738-.512 1.332-1.145 1.332H10.145c-.633 0-1.145-.594-1.145-1.332v-5.332c0-.738.512-1.336 1.145-1.336m0 0"/>
    <path d="M11 21.996h12c.551 0 1 .449 1 1v4a1 1 0 0 1-1 1H11a1 1 0 0 1-1-1v-4c0-.551.449-1 1-1m0 0M28.25 20.996h7.5c.691 0 1.25.598 1.25 1.336v5.332c0 .738-.559 1.332-1.25 1.332h-7.5c-.691 0-1.25-.594-1.25-1.332v-5.332c0-.738.559-1.336 1.25-1.336m0 0"/>
    <path d="M29 21.996h6c.551 0 1 .449 1 1v4a1 1 0 0 1-1 1h-6a1 1 0 0 1-1-1v-4c0-.551.449-1 1-1m0 0M9 30.996h6c.551 0 1 .449 1 1v4a1 1 0 0 1-1 1H9a1 1 0 0 1-1-1v-4c0-.551.449-1 1-1m0 0M21 30.996h6c.551 0 1 .449 1 1v4a1 1 0 0 1-1 1h-6a1 1 0 0 1-1-1v-4c0-.551.449-1 1-1m0 0M32.25 29.996h7.5c.691 0 1.25.598 1.25 1.336v5.332c0 .738-.559 1.332-1.25 1.332h-7.5c-.691 0-1.25-.594-1.25-1.332v-5.332c0-.738.559-1.336 1.25-1.336m0 0"/>
    <path d="M33 30.996h6c.551 0 1 .449 1 1v4a1 1 0 0 1-1 1h-6a1 1 0 0 1-1-1v-4c0-.551.449-1 1-1m0 0M8 17H5v7h5v1H4v-9h4m0 1"/>
    <path d="M40.5 34H42v-9h-6v-1h7v11h-2.5m0-1"/>
  </g>
  <g>
    <g clip-path="url(#c)">
      <path d="M8.25 10.996h7.5c.691 0 1.25.598 1.25 1.336v5.332c0 .738-.559 1.332-1.25 1.332h-7.5c-.691 0-1.25-.594-1.25-1.332v-5.332c0-.738.559-1.336 1.25-1.336m0 0" fill="#c00"/>
      <path d="M9 11.996h6c.551 0 1 .449 1 1v4a1 1 0 0 1-1 1H9a1 1 0 0 1-1-1v-4c0-.551.449-1 1-1m0 0M21 11.996h6c.551 0 1 .449 1 1v4a1 1 0 0 1-1 1h-6a1 1 0 0 1-1-1v-4c0-.551.449-1 1-1m0 0M33 11.996h6c.551 0 1 .449 1 1v4a1 1 0 0 1-1 1h-6a1 1 0 0 1-1-1v-4c0-.551.449-1 1-1m0 0" fill="#ababab"/>
      <path d="M10.145 19.996h13.711c.633 0 1.145.598 1.145 1.336v5.332c0 .738-.512 1.332-1.145 1.332H10.145c-.633 0-1.145-.594-1.145-1.332v-5.332c0-.738.512-1.336 1.145-1.336m0 0" fill="#c00"/>
      <path d="M11 20.996h12c.551 0 1 .449 1 1v4a1 1 0 0 1-1 1H11a1 1 0 0 1-1-1v-4c0-.551.449-1 1-1m0 0" fill="#ababab"/>
      <path d="M28.25 19.996h7.5c.691 0 1.25.598 1.25 1.336v5.332c0 .738-.559 1.332-1.25 1.332h-7.5c-.691 0-1.25-.594-1.25-1.332v-5.332c0-.738.559-1.336 1.25-1.336m0 0" fill="#4b9cf4"/>
      <path d="M29 20.996h6c.551 0 1 .449 1 1v4a1 1 0 0 1-1 1h-6a1 1 0 0 1-1-1v-4c0-.551.449-1 1-1m0 0M9 29.996h6c.551 0 1 .449 1 1v4a1 1 0 0 1-1 1H9a1 1 0 0 1-1-1v-4c0-.551.449-1 1-1m0 0M21 29.996h6c.551 0 1 .449 1 1v4a1 1 0 0 1-1 1h-6a1 1 0 0 1-1-1v-4c0-.551.449-1 1-1m0 0" fill="#ababab"/>
      <path d="M32.25 28.996h7.5c.691 0 1.25.598 1.25 1.336v5.332c0 .738-.559 1.332-1.25 1.332h-7.5c-.691 0-1.25-.594-1.25-1.332v-5.332c0-.738.559-1.336 1.25-1.336m0 0" fill="#4b9cf4"/>
      <path d="M33 29.996h6c.551 0 1 .449 1 1v4a1 1 0 0 1-1 1h-6a1 1 0 0 1-1-1v-4c0-.551.449-1 1-1m0 0" fill="#ababab"/>
      <path d="M8 16H5v7h5v1H4v-9h4m0 1" fill="#c00"/>
      <path d="M40.5 33H42v-9h-6v-1h7v11h-2.5m0-1" fill="#4b9cf4"/>
    </g>
  </g>
  <g>
    <path d="M1 38.998v4c0 2.216 1.784 4 4 4h38c2.216 0 4-1.784 4-4v-4c0 2.216-1.784 4-4 4H5c-2.216 0-4-1.784-4-4z" opacity=".1"/>
  </g>
</svg>
