<?xml version="1.0" encoding="UTF-8" standalone="no"?>
<svg
   xmlns:dc="http://purl.org/dc/elements/1.1/"
   xmlns:cc="http://creativecommons.org/ns#"
   xmlns:rdf="http://www.w3.org/1999/02/22-rdf-syntax-ns#"
   xmlns:svg="http://www.w3.org/2000/svg"
   xmlns="http://www.w3.org/2000/svg"
   xmlns:xlink="http://www.w3.org/1999/xlink"
   xmlns:sodipodi="http://sodipodi.sourceforge.net/DTD/sodipodi-0.dtd"
   xmlns:inkscape="http://www.inkscape.org/namespaces/inkscape"
   viewBox="0 0 48 48"
   version="1.1"
   id="svg28150"
   sodipodi:docname="preferences-system-privacy.svg">
  <metadata
     id="metadata28154">
    <rdf:RDF>
      <cc:Work
         rdf:about="">
        <dc:format>image/svg+xml</dc:format>
        <dc:type
           rdf:resource="http://purl.org/dc/dcmitype/StillImage" />
      </cc:Work>
    </rdf:RDF>
  </metadata>
  <sodipodi:namedview
     pagecolor="#ffffff"
     bordercolor="#666666"
     borderopacity="1"
     objecttolerance="10"
     gridtolerance="10"
     guidetolerance="10"
     inkscape:pageopacity="0"
     inkscape:pageshadow="2"
     inkscape:window-width="640"
     inkscape:window-height="480"
     id="namedview28152" />
  <defs
     id="defs28095">
    <linearGradient
       id="linearGradient3764"
       x1="1"
       x2="47"
       gradientUnits="userSpaceOnUse"
       gradientTransform="translate(-48.000001,0.00221467)">
      <stop
         stop-color="#8358b4"
         stop-opacity="1"
         id="stop28080" />
      <stop
         offset="1"
         stop-color="#8d65ba"
         stop-opacity="1"
         id="stop28082" />
    </linearGradient>
    <clipPath
       id="clipPath-268297243">
      <g
         transform="translate(0,-1004.3622)"
         id="g28087">
        <rect
           rx="4"
           y="1005.36"
           x="1"
           height="46"
           width="46"
           fill="#1890d0"
           id="rect28085" />
      </g>
    </clipPath>
    <clipPath
       id="clipPath-281483625">
      <g
         transform="translate(0,-1004.3622)"
         id="g28092">
        <rect
           rx="4"
           y="1005.36"
           x="1"
           height="46"
           width="46"
           fill="#1890d0"
           id="rect28090" />
      </g>
    </clipPath>
  </defs>
  <g
     id="g28103">
    <path
       d="m 1 43 l 0 0.25 c 0 2.216 1.784 4 4 4 l 38 0 c 2.216 0 4 -1.784 4 -4 l 0 -0.25 c 0 2.216 -1.784 4 -4 4 l -38 0 c -2.216 0 -4 -1.784 -4 -4 z m 0 0.5 l 0 0.5 c 0 2.216 1.784 4 4 4 l 38 0 c 2.216 0 4 -1.784 4 -4 l 0 -0.5 c 0 2.216 -1.784 4 -4 4 l -38 0 c -2.216 0 -4 -1.784 -4 -4 z"
       opacity="0.02"
       id="path28097" />
    <path
       d="m 1 43.25 l 0 0.25 c 0 2.216 1.784 4 4 4 l 38 0 c 2.216 0 4 -1.784 4 -4 l 0 -0.25 c 0 2.216 -1.784 4 -4 4 l -38 0 c -2.216 0 -4 -1.784 -4 -4 z"
       opacity="0.05"
       id="path28099" />
    <path
       d="m 1 43 l 0 0.25 c 0 2.216 1.784 4 4 4 l 38 0 c 2.216 0 4 -1.784 4 -4 l 0 -0.25 c 0 2.216 -1.784 4 -4 4 l -38 0 c -2.216 0 -4 -1.784 -4 -4 z"
       opacity="0.1"
       id="path28101" />
  </g>
  <g
     id="g28107">
    <rect
       width="46"
       height="46"
       x="-47"
       y="1"
       rx="4"
       transform="matrix(0,-1,1,0,0,0)"
       fill="url(#linearGradient3764)"
       fill-opacity="1"
       id="rect28105" />
  </g>
  <g
     id="g28124">
    <g
       clip-path="url(#clipPath-268297243)"
       id="g28122">
      <g
         opacity="0.1"
         id="g28120">
        <!-- color: #8d65ba -->
        <g
           id="g28118">
          <path
             d="m 41.621 22.883 c -0.375 -0.527 -0.789 -1.023 -1.207 -1.512 c -2.242 -2.625 -4.816 -4.965 -7.637 -6.664 c -1.801 -1.086 -3.73 -1.961 -5.727 -2.383 c -1.016 -0.211 -2.01 -0.32 -3.059 -0.324 c -1.016 0 -2.031 0.113 -3.047 0.324 c -2 0.422 -3.922 1.297 -5.723 2.383 c -2.82 1.699 -5.398 4.04 -7.648 6.664 c -0.414 0.488 -0.82 0.984 -1.195 1.512 c -0.512 0.703 -0.512 1.531 0 2.234 c 1.145 1.605 2.512 3.03 3.895 4.34 c 2.992 2.809 6.418 5.16 10.195 6.109 c 1.168 0.293 2.34 0.434 3.516 0.434 c 1.191 0 2.355 -0.141 3.523 -0.434 c 3.777 -0.949 7.207 -3.301 10.203 -6.109 c 1.391 -1.305 2.754 -2.734 3.902 -4.34 c 0.504 -0.703 0.504 -1.531 0 -2.234 m 0 0"
             stroke="none"
             fill-rule="nonzero"
             fill-opacity="1"
             fill="#000"
             id="path28109" />
          <path
             d="m 33 24 c 0 4.969 -4.03 9 -9 9 c -4.969 0 -9 -4.03 -9 -9 c 0 -4.969 4.03 -9 9 -9 c 4.969 0 9 4.03 9 9 m 0 0"
             stroke="none"
             fill-rule="nonzero"
             fill-opacity="1"
             fill="#000"
             id="path28111" />
          <path
             d="m 29 24 c 0 2.758 -2.238 4.996 -5 4.996 c -2.762 0 -5 -2.238 -5 -4.996 c 0 -2.762 2.238 -5 5 -5 c 2.762 0 5 2.238 5 5 m 0 0"
             stroke="none"
             fill-rule="nonzero"
             fill-opacity="1"
             fill="#000"
             id="SVGCleanerId_0" />
          <path
             d="m 28 22 c 0 1.105 -0.895 2 -2 2 c -1.105 0 -2 -0.895 -2 -2 c 0 -1.105 0.895 -2 2 -2 c 1.105 0 2 0.895 2 2 m 0 0"
             stroke="none"
             fill-rule="nonzero"
             fill-opacity="1"
             fill="#000"
             id="path28114" />
          <path
             d="m 30.984 13.719 l -16.25 19.27 c 0.742 0.48 1.496 0.91 2.273 1.293 l 16.242 -19.277 c -0.723 -0.504 -1.563 -0.926 -2.266 -1.285 m 0 0"
             stroke="none"
             fill-rule="nonzero"
             fill-opacity="1"
             fill="#000"
             id="path28116" />
        </g>
      </g>
    </g>
  </g>
  <g
     id="g28142">
    <g
       clip-path="url(#clipPath-281483625)"
       id="g28140">
      <g
         transform="translate(0,-1)"
         id="g28138">
        <!-- color: #8d65ba -->
        <g
           id="g28136">
          <path
             d="m 41.621 22.883 c -0.375 -0.527 -0.789 -1.023 -1.207 -1.512 c -2.242 -2.625 -4.816 -4.965 -7.637 -6.664 c -1.801 -1.086 -3.73 -1.961 -5.727 -2.383 c -1.016 -0.211 -2.01 -0.32 -3.059 -0.324 c -1.016 0 -2.031 0.113 -3.047 0.324 c -2 0.422 -3.922 1.297 -5.723 2.383 c -2.82 1.699 -5.398 4.04 -7.648 6.664 c -0.414 0.488 -0.82 0.984 -1.195 1.512 c -0.512 0.703 -0.512 1.531 0 2.234 c 1.145 1.605 2.512 3.03 3.895 4.34 c 2.992 2.809 6.418 5.16 10.195 6.109 c 1.168 0.293 2.34 0.434 3.516 0.434 c 1.191 0 2.355 -0.141 3.523 -0.434 c 3.777 -0.949 7.207 -3.301 10.203 -6.109 c 1.391 -1.305 2.754 -2.734 3.902 -4.34 c 0.504 -0.703 0.504 -1.531 0 -2.234 m 0 0"
             fill="#ececeb"
             stroke="none"
             fill-rule="nonzero"
             fill-opacity="1"
             id="path28126" />
          <path
             d="m 33 24 c 0 4.969 -4.03 9 -9 9 c -4.969 0 -9 -4.03 -9 -9 c 0 -4.969 4.03 -9 9 -9 c 4.969 0 9 4.03 9 9 m 0 0"
             fill="#4586f9"
             stroke="none"
             fill-rule="nonzero"
             fill-opacity="1"
             id="path28128" />
          <use
             xlink:href="#SVGCleanerId_0"
             id="use28130" />
          <path
             d="m 28 22 c 0 1.105 -0.895 2 -2 2 c -1.105 0 -2 -0.895 -2 -2 c 0 -1.105 0.895 -2 2 -2 c 1.105 0 2 0.895 2 2 m 0 0"
             fill="#fff"
             stroke="none"
             fill-rule="nonzero"
             fill-opacity="1"
             id="path28132" />
          <path
             d="m 30.984 13.719 l -16.25 19.27 c 0.742 0.48 1.496 0.91 2.273 1.293 l 16.242 -19.277 c -0.723 -0.504 -1.563 -0.926 -2.266 -1.285 m 0 0"
             fill="#d5122d"
             stroke="none"
             fill-rule="nonzero"
             fill-opacity="1"
             id="path28134" />
        </g>
      </g>
    </g>
  </g>
  <g
     id="g28148">
    <g
       transform="translate(0,-1004.3622)"
       id="g28146">
      <path
         d="m 1 1043.36 0 4 c 0 2.216 1.784 4 4 4 l 38 0 c 2.216 0 4 -1.784 4 -4 l 0 -4 c 0 2.216 -1.784 4 -4 4 l -38 0 c -2.216 0 -4 -1.784 -4 -4 z"
         opacity="0.1"
         id="path28144" />
    </g>
  </g>
</svg>
