<svg xmlns="http://www.w3.org/2000/svg" version="1.1" xmlns:xlink="http://www.w3.org/1999/xlink" viewBox="0 0 48 48">
 <defs>
  <linearGradient id="linearGradient889" y2="1" gradientUnits="userSpaceOnUse" x2="0" y1="47">
   <stop style="stop-color:#96d898" offset="0"/>
   <stop style="stop-color:#a2e0a2" offset="1"/>
  </linearGradient>
  <linearGradient id="linearGradient900" y2="1" gradientUnits="userSpaceOnUse" x2="0" y1="47">
   <stop style="stop-color:#ec895e" offset="0"/>
   <stop style="stop-color:#ec9372" offset="1"/>
  </linearGradient>
  <linearGradient id="linearGradient904" y2="1" gradientUnits="userSpaceOnUse" x2="-10" gradientTransform="translate(10)" y1="47" x1="-10">
   <stop style="stop-color:#f3f27b" offset="0"/>
   <stop style="stop-color:#f3f28f" offset="1"/>
  </linearGradient>
  <linearGradient id="linearGradient908" y2="1" gradientUnits="userSpaceOnUse" x2="-20" gradientTransform="translate(20)" y1="47" x1="-20">
   <stop style="stop-color:#ecb45e" offset="0"/>
   <stop style="stop-color:#ecbe72" offset="1"/>
  </linearGradient>
  <linearGradient id="linearGradient949" y2="1" gradientUnits="userSpaceOnUse" x2="0" y1="47">
   <stop style="stop-color:#91b4dd" offset="0"/>
   <stop style="stop-color:#a0bee2" offset="1"/>
  </linearGradient>
 </defs>
 <path style="opacity:.02" d="m1 43v0.25c0 2.216 1.784 4 4 4h38c2.216 0 4-1.784 4-4v-0.25c0 2.216-1.784 4-4 4h-38c-2.216 0-4-1.784-4-4zm0 0.5v0.5c0 2.216 1.784 4 4 4h38c2.216 0 4-1.784 4-4v-0.5c0 2.216-1.784 4-4 4h-38c-2.216 0-4-1.784-4-4z"/>
 <path style="opacity:.05" d="m1 43.25v0.25c0 2.216 1.784 4 4 4h38c2.216 0 4-1.784 4-4v-0.25c0 2.216-1.784 4-4 4h-38c-2.216 0-4-1.784-4-4z"/>
 <path style="opacity:.1" d="m1 43v0.25c0 2.216 1.784 4 4 4h38c2.216 0 4-1.784 4-4v-0.25c0 2.216-1.784 4-4 4h-38c-2.216 0-4-1.784-4-4z"/>
 <path style="fill:url(#linearGradient900)" d="m39 1v46h4c2.216 0 4-1.784 4-4v-38c0-2.216-1.784-4-4-4h-4z"/>
 <rect style="fill:url(#linearGradient889)" height="46" width="10" y="1" x="9"/>
 <rect style="fill:url(#linearGradient904)" height="46" width="10" y="1" x="19"/>
 <rect style="fill:url(#linearGradient908)" height="46" width="10" y="1" x="29"/>
 <path style="fill:url(#linearGradient949)" d="m5 1c-2.216 0-4 1.784-4 4v38c0 2.216 1.784 4 4 4h4v-46h-4z"/>
 <path style="opacity:.1" d="m1 39v4c0 2.216 1.784 4 4 4h38c2.216 0 4-1.784 4-4v-4c0 2.216-1.784 4-4 4h-38c-2.216 0-4-1.784-4-4z"/>
</svg>
