<svg version="1.1" viewBox="0 0 48 48" xmlns="http://www.w3.org/2000/svg">
 <defs>
  <linearGradient id="bg" x2="0" y1="1" y2="47" gradientUnits="userSpaceOnUse">
   <stop style="stop-color:#e5e4d9" offset="0"/>
   <stop style="stop-color:#dddccd" offset="1"/>
  </linearGradient>
 </defs>
 <path d="m1 43v0.25c0 2.216 1.784 4 4 4h38c2.216 0 4-1.784 4-4v-0.25c0 2.216-1.784 4-4 4h-38c-2.216 0-4-1.784-4-4zm0 0.5v0.5c0 2.216 1.784 4 4 4h38c2.216 0 4-1.784 4-4v-0.5c0 2.216-1.784 4-4 4h-38c-2.216 0-4-1.784-4-4z" style="opacity:.02"/>
 <path d="m1 43.25v0.25c0 2.216 1.784 4 4 4h38c2.216 0 4-1.784 4-4v-0.25c0 2.216-1.784 4-4 4h-38c-2.216 0-4-1.784-4-4z" style="opacity:.05"/>
 <path d="m1 43v0.25c0 2.216 1.784 4 4 4h38c2.216 0 4-1.784 4-4v-0.25c0 2.216-1.784 4-4 4h-38c-2.216 0-4-1.784-4-4z" style="opacity:.1"/>
 <rect x="1" y="1" width="46" height="46" rx="4" style="fill:url(#bg)"/>
 <path d="m1 39v4c0 2.216 1.784 4 4 4h38c2.216 0 4-1.784 4-4v-4c0 2.216-1.784 4-4 4h-38c-2.216 0-4-1.784-4-4z" style="opacity:.1"/>
 <g transform="translate(0,-1)">
  <g transform="translate(1,1)">
   <g style="opacity:.1">
    <path d="m16 10c-3.312 0-6 2.687-6 6 0 3.312 2.687 6 6 6h14c3.312 0 6-2.687 6-6 0-3.312-2.687-6-6-6zm0 16c-3.313 0-6 2.688-6 6 0 3.313 2.688 6 6 6h14c3.313 0 6-2.688 6-6 0-3.313-2.688-6-6-6z"/>
   </g>
  </g>
 </g>
 <g transform="translate(0,-1)">
  <path d="m17 10c-3.312 0-6 2.687-6 6 0 3.312 2.687 6 6 6h14c3.312 0 6-2.687 6-6 0-3.312-2.687-6-6-6z" style="fill:#5dba6f"/>
  <path d="m22 16c0 2.762-2.238 5-5 5s-5-2.238-5-5 2.238-5 5-5 5 2.238 5 5" style="fill:#ededed"/>
  <path d="m14.5 16.324 2.082 1.676 2.918-3.348-0.625-0.652-2.293 2.699-1.367-1.117m-0.715 0.742" style="fill-rule:evenodd;fill:#5dba6f"/>
  <path d="m17 26c-3.313 0-6 2.688-6 6 0 3.313 2.688 6 6 6h14c3.313 0 6-2.688 6-6 0-3.313-2.688-6-6-6z" style="fill:#eb594d"/>
  <path d="m26 32c0 2.762 2.238 5 5 5s5-2.238 5-5-2.238-5-5-5-5 2.238-5 5" style="fill:#ededed"/>
  <path d="m29 30h0.832l1.168 1.5 1.172-1.5h0.828l-1.5 2 1.5 2h-0.832l-1.168-1.5-1 1.5h-1l1.5-2" style="fill:#eb594d"/>
 </g>
</svg>
