<svg version="1.1" viewBox="0 0 48 48" xmlns="http://www.w3.org/2000/svg">
 <defs>
  <linearGradient id="bg" x2="0" y1="1" y2="47" gradientUnits="userSpaceOnUse">
   <stop style="stop-color:#769ed2" offset="0"/>
   <stop style="stop-color:#6793cd" offset="1"/>
  </linearGradient>
 </defs>
 <path d="m1 43v0.25c0 2.22 1.78 4 4 4h38c2.22 0 4-1.78 4-4v-0.25c0 2.22-1.78 4-4 4h-38c-2.22 0-4-1.78-4-4zm0 0.5v0.5c0 2.22 1.78 4 4 4h38c2.22 0 4-1.78 4-4v-0.5c0 2.22-1.78 4-4 4h-38c-2.22 0-4-1.78-4-4z" style="opacity:.02"/>
 <path d="m1 43.2v0.25c0 2.22 1.78 4 4 4h38c2.22 0 4-1.78 4-4v-0.25c0 2.22-1.78 4-4 4h-38c-2.22 0-4-1.78-4-4z" style="opacity:.05"/>
 <path d="m1 43v0.25c0 2.22 1.78 4 4 4h38c2.22 0 4-1.78 4-4v-0.25c0 2.22-1.78 4-4 4h-38c-2.22 0-4-1.78-4-4z" style="opacity:.1"/>
 <rect x="1" y="1" width="46" height="46" rx="4" style="fill:url(#bg)"/>
 <path d="m19 13v10h4v-10zm10 0v10h4v-10zm-15 2v10h4v-10zm10 0v10h4v-10zm-12 12v8h24v-8zm18 2h4v4h-4z" style="opacity:.1;paint-order:stroke fill markers"/>
 <path d="m1 39v4c0 2.22 1.78 4 4 4h38c2.22 0 4-1.78 4-4v-4c0 2.22-1.78 4-4 4h-38c-2.22 0-4-1.78-4-4z" style="opacity:.1"/>
 <path d="m12 25v8h24v-8zm2 2h20v4h-20z" style="fill:#474747;paint-order:stroke fill markers"/>
 <path d="m14 13v4h4v-4zm10 6v4h4v-4zm-10 8v4h4v-4zm8 0v4h4v-4z" style="fill:#4179c8;paint-order:stroke fill markers"/>
 <path d="m24 13v4h4v-4zm-10 6v4h4v-4z" style="fill:#4249a2;paint-order:stroke fill markers"/>
 <path d="m19 11v4h4v-4zm10 6v4h4v-4z" style="fill:#e93545;paint-order:stroke fill markers"/>
 <path d="m29 11v4h4v-4zm-10 6v4h4v-4zm-1 10v4h4v-4zm8 0v4h4v-4z" style="fill:#e7ac5f;paint-order:stroke fill markers"/>
</svg>
