<svg version="1.1" viewBox="0 0 48 48" xmlns="http://www.w3.org/2000/svg">
 <defs>
  <linearGradient id="bg" x2="0" y1="1" y2="47" gradientUnits="userSpaceOnUse">
   <stop style="stop-color:#8ca7c9" offset="0"/>
   <stop style="stop-color:#7d9bc2" offset="1"/>
  </linearGradient>
 </defs>
 <path d="m1 43v0.25c0 2.22 1.78 4 4 4h38c2.22 0 4-1.78 4-4v-0.25c0 2.22-1.78 4-4 4h-38c-2.22 0-4-1.78-4-4zm0 0.5v0.5c0 2.22 1.78 4 4 4h38c2.22 0 4-1.78 4-4v-0.5c0 2.22-1.78 4-4 4h-38c-2.22 0-4-1.78-4-4z" style="opacity:.02"/>
 <path d="m1 43.2v0.25c0 2.22 1.78 4 4 4h38c2.22 0 4-1.78 4-4v-0.25c0 2.22-1.78 4-4 4h-38c-2.22 0-4-1.78-4-4z" style="opacity:.05"/>
 <path d="m1 43v0.25c0 2.22 1.78 4 4 4h38c2.22 0 4-1.78 4-4v-0.25c0 2.22-1.78 4-4 4h-38c-2.22 0-4-1.78-4-4z" style="opacity:.1"/>
 <rect x="1" y="1" width="46" height="46" rx="4" style="fill:url(#bg)"/>
 <path d="m1 39v4c0 2.22 1.78 4 4 4h38c2.22 0 4-1.78 4-4v-4c0 2.22-1.78 4-4 4h-38c-2.22 0-4-1.78-4-4z" style="opacity:.1"/>
 <path d="m11 17v15c0 1.1 0.895 2 2 2h10c0.552 0 1-0.448 1-1 0 0.552 0.448 1 1 1h10c1.1 0 2-0.895 2-2v-15z" style="opacity:.1"/>
 <path d="m13 14a2 2 0 0 0-2 2v15a2 2 0 0 0 2 2h10c0.552 0 1-0.448 1-1 0 0.552 0.448 1 1 1h10c1.1 0 2-0.895 2-2v-15a2 2 0 0 0-2-2z" style="fill:#51729f"/>
 <path d="m23 15v18a1 1 0 0 0 1-1 1 1 0 0 0 1 1v-18z" style="opacity:.15"/>
 <path d="m12 29v2c0 0.552 0.448 1 1 1h10c0.552 0 1-0.448 1-1 0 0.552 0.448 1 1 1h10c0.552 0 1-0.448 1-1v-2z" style="fill:#bbb"/>
 <path d="m12 29v1c0 0.552 0.448 1 1 1h22c0.552 0 1-0.448 1-1v-1z" style="fill:#ccc"/>
 <path d="m13 13a1 1 0 0 0-1 1v15a1 1 0 0 0 1 1h10c0.552 0 1 0.448 1 1 0-0.552 0.448-1 1-1h10a1 1 0 0 0 1-1v-15a1 1 0 0 0-1-1h-10c-0.552 0-1 0.448-1 1 0-0.552-0.448-1-1-1z" style="fill:#f5f5f5"/>
 <path d="m23 13v17c0.552 0 1 0.448 1 1 0-0.552 0.448-1 1-1v-17c-0.552 0-1 0.448-1 1 0-0.552-0.448-1-1-1z" style="fill:#ddd"/>
 <path d="m15.5 15c-0.277 0-0.5 0.223-0.5 0.5v0.5h-0.5c-0.277 0-0.5 0.223-0.5 0.5s0.223 0.5 0.5 0.5h0.5v1h-0.5c-0.277 0-0.5 0.223-0.5 0.5s0.223 0.5 0.5 0.5h0.5v0.5c0 0.277 0.223 0.5 0.5 0.5s0.5-0.223 0.5-0.5v-0.5h1v0.5c0 0.277 0.223 0.5 0.5 0.5s0.5-0.223 0.5-0.5v-0.5h0.5c0.277 0 0.5-0.223 0.5-0.5s-0.223-0.5-0.5-0.5h-0.5v-1h0.5c0.277 0 0.5-0.223 0.5-0.5s-0.223-0.5-0.5-0.5h-0.5v-0.5c0-0.277-0.223-0.5-0.5-0.5s-0.5 0.223-0.5 0.5v0.5h-1v-0.5c0-0.277-0.223-0.5-0.5-0.5zm12 0c-0.277 0-0.5 0.223-0.5 0.5v4c0 0.277 0.223 0.5 0.5 0.5h0.5v1h-0.5c-0.445 1.74e-4 -0.668 0.539-0.354 0.854l1 1c0.0976 0.0976 0.226 0.146 0.354 0.146s0.256-0.0489 0.354-0.146l1-1c0.315-0.315 0.0918-0.853-0.354-0.854h-0.5v-1h4.5c0.277 0 0.5-0.223 0.5-0.5v-4c0-0.277-0.223-0.5-0.5-0.5zm5 5c-0.128 0-0.256 0.0489-0.354 0.146l-1 1c-0.315 0.315-0.0918 0.853 0.354 0.854h0.5v1h-4.5c-0.277 0-0.5 0.223-0.5 0.5v4c0 0.277 0.223 0.5 0.5 0.5h6c0.277 0 0.5-0.223 0.5-0.5v-4c0-0.277-0.223-0.5-0.5-0.5h-0.5v-1h0.5c0.445-1.74e-4 0.668-0.539 0.354-0.854l-1-1c-0.0976-0.0976-0.226-0.146-0.354-0.146zm-4.5-4h5v3h-5zm-12 1h1v1h-1zm12 7h5v3h-5z" style="fill:#a3a3a3"/>
 <path d="m20.5 15c-0.277 0-0.5 0.223-0.5 0.5s0.223 0.5 0.5 0.5 0.5-0.223 0.5-0.5-0.223-0.5-0.5-0.5zm0 2c-0.277 0-0.5 0.223-0.5 0.5s0.223 0.5 0.5 0.5 0.5-0.223 0.5-0.5-0.223-0.5-0.5-0.5zm0 2c-0.277 0-0.5 0.223-0.5 0.5s0.223 0.5 0.5 0.5 0.5-0.223 0.5-0.5-0.223-0.5-0.5-0.5zm-6 2c-0.277 0-0.5 0.223-0.5 0.5s0.223 0.5 0.5 0.5h6c0.277 0 0.5-0.223 0.5-0.5s-0.223-0.5-0.5-0.5zm0 2c-0.277 0-0.5 0.223-0.5 0.5s0.223 0.5 0.5 0.5h6c0.277 0 0.5-0.223 0.5-0.5s-0.223-0.5-0.5-0.5zm0 2c-0.277 0-0.5 0.223-0.5 0.5s0.223 0.5 0.5 0.5h6c0.277 0 0.5-0.223 0.5-0.5s-0.223-0.5-0.5-0.5zm0 2c-0.277 0-0.5 0.223-0.5 0.5s0.223 0.5 0.5 0.5h6c0.277 0 0.5-0.223 0.5-0.5s-0.223-0.5-0.5-0.5z" style="fill:#bbb"/>
</svg>
