<?xml version="1.0" encoding="UTF-8" standalone="no"?>
<svg
   xmlns:dc="http://purl.org/dc/elements/1.1/"
   xmlns:cc="http://creativecommons.org/ns#"
   xmlns:rdf="http://www.w3.org/1999/02/22-rdf-syntax-ns#"
   xmlns:svg="http://www.w3.org/2000/svg"
   xmlns="http://www.w3.org/2000/svg"
   xmlns:sodipodi="http://sodipodi.sourceforge.net/DTD/sodipodi-0.dtd"
   xmlns:inkscape="http://www.inkscape.org/namespaces/inkscape"
   viewBox="0 0 48 48"
   version="1.1"
   id="svg28430"
   sodipodi:docname="putty.svg">
  <metadata
     id="metadata28434">
    <rdf:RDF>
      <cc:Work
         rdf:about="">
        <dc:format>image/svg+xml</dc:format>
        <dc:type
           rdf:resource="http://purl.org/dc/dcmitype/StillImage" />
      </cc:Work>
    </rdf:RDF>
  </metadata>
  <sodipodi:namedview
     pagecolor="#ffffff"
     bordercolor="#666666"
     borderopacity="1"
     objecttolerance="10"
     gridtolerance="10"
     guidetolerance="10"
     inkscape:pageopacity="0"
     inkscape:pageshadow="2"
     inkscape:window-width="640"
     inkscape:window-height="480"
     id="namedview28432" />
  <defs
     id="defs28382">
    <linearGradient
       id="linearGradient3764"
       x1="1"
       x2="47"
       gradientUnits="userSpaceOnUse"
       gradientTransform="translate(-48.000001,0.00221467)">
      <stop
         stop-color="#e4e4e4"
         stop-opacity="1"
         id="stop28367" />
      <stop
         offset="1"
         stop-color="#eee"
         stop-opacity="1"
         id="stop28369" />
    </linearGradient>
    <clipPath
       id="clipPath-910172474">
      <g
         transform="translate(0,-1004.3622)"
         id="g28374">
        <rect
           rx="4"
           y="1005.36"
           x="1"
           height="46"
           width="46"
           fill="#1890d0"
           id="rect28372" />
      </g>
    </clipPath>
    <clipPath
       id="clipPath-929337366">
      <g
         transform="translate(0,-1004.3622)"
         id="g28379">
        <rect
           rx="4"
           y="1005.36"
           x="1"
           height="46"
           width="46"
           fill="#1890d0"
           id="rect28377" />
      </g>
    </clipPath>
  </defs>
  <g
     id="g28390">
    <path
       d="m 1 43 l 0 0.25 c 0 2.216 1.784 4 4 4 l 38 0 c 2.216 0 4 -1.784 4 -4 l 0 -0.25 c 0 2.216 -1.784 4 -4 4 l -38 0 c -2.216 0 -4 -1.784 -4 -4 z m 0 0.5 l 0 0.5 c 0 2.216 1.784 4 4 4 l 38 0 c 2.216 0 4 -1.784 4 -4 l 0 -0.5 c 0 2.216 -1.784 4 -4 4 l -38 0 c -2.216 0 -4 -1.784 -4 -4 z"
       opacity="0.02"
       id="path28384" />
    <path
       d="m 1 43.25 l 0 0.25 c 0 2.216 1.784 4 4 4 l 38 0 c 2.216 0 4 -1.784 4 -4 l 0 -0.25 c 0 2.216 -1.784 4 -4 4 l -38 0 c -2.216 0 -4 -1.784 -4 -4 z"
       opacity="0.05"
       id="path28386" />
    <path
       d="m 1 43 l 0 0.25 c 0 2.216 1.784 4 4 4 l 38 0 c 2.216 0 4 -1.784 4 -4 l 0 -0.25 c 0 2.216 -1.784 4 -4 4 l -38 0 c -2.216 0 -4 -1.784 -4 -4 z"
       opacity="0.1"
       id="path28388" />
  </g>
  <g
     id="g28394">
    <rect
       width="46"
       height="46"
       x="-47"
       y="1"
       rx="4"
       transform="matrix(0,-1,1,0,0,0)"
       fill="url(#linearGradient3764)"
       fill-opacity="1"
       id="rect28392" />
  </g>
  <g
     id="g28408">
    <g
       clip-path="url(#clipPath-910172474)"
       id="g28406">
      <g
         opacity="0.1"
         id="g28404">
        <!-- color: #eeeeee -->
        <g
           id="g28402">
          <path
             d="m 11.531 13 c -0.293 0.031 -0.535 0.301 -0.531 0.594 l 0 10.813 c 0 0.316 0.281 0.594 0.594 0.594 l 5.406 0 l 0 2 l -4 0 l 0 2 l 7.281 0 l 0 -3.969 l -2.313 -2.031 l -4.531 0 c -0.211 0 -0.406 -0.195 -0.406 -0.406 l 0 -7.188 c -0.004 -0.188 0.129 -0.371 0.313 -0.406 c 0.023 -0.004 0.07 -0.004 0.094 0 l 11.125 0 c 0.211 0 0.406 0.199 0.406 0.406 l 0 2.875 l 2.031 0 l 0 -4.688 c 0 -0.313 -0.281 -0.594 -0.594 -0.594 m -14.875 0"
             stroke="none"
             fill-rule="nonzero"
             fill-opacity="1"
             fill="#000"
             id="path28396" />
          <path
             d="m 25.13 19 l 2.469 2 l 6.969 0 c 0.211 0 0.406 0.195 0.406 0.406 l 0 7.188 c 0 0.211 -0.195 0.406 -0.406 0.406 l -11.125 0 c -0.207 0 -0.406 -0.195 -0.406 -0.406 l 0 -1.125 l -2.02 -1.781 l 0 4.719 c 0 0.316 0.27 0.594 0.594 0.594 l 5.406 0 l 0 2 l -4 0 l 0 2 l 12 0 l 0 -2 l -4 0 l 0 -2 l 5.395 0 c 0.316 0 0.605 -0.277 0.605 -0.594 l 0 -10.813 c 0 -0.313 -0.281 -0.594 -0.605 -0.594 m -11.27 0"
             stroke="none"
             fill-rule="nonzero"
             fill-opacity="1"
             fill="#000"
             id="path28398" />
          <path
             d="m 15 19 l 9 8 l 0 -5 l 7 3 l -10 -8 l 0 3.75 l -5.996 -1.75 m -0.004 0"
             stroke="none"
             fill-rule="evenodd"
             fill-opacity="1"
             fill="#000"
             id="path28400" />
        </g>
      </g>
    </g>
  </g>
  <g
     id="g28422">
    <g
       clip-path="url(#clipPath-929337366)"
       id="g28420">
      <g
         transform="translate(0,-1)"
         id="g28418">
        <!-- color: #eeeeee -->
        <g
           id="g28416">
          <path
             d="m 11.531 13 c -0.293 0.031 -0.535 0.301 -0.531 0.594 l 0 10.813 c 0 0.316 0.281 0.594 0.594 0.594 l 5.406 0 l 0 2 l -4 0 l 0 2 l 7.281 0 l 0 -3.969 l -2.313 -2.031 l -4.531 0 c -0.211 0 -0.406 -0.195 -0.406 -0.406 l 0 -7.188 c -0.004 -0.188 0.129 -0.371 0.313 -0.406 c 0.023 -0.004 0.07 -0.004 0.094 0 l 11.125 0 c 0.211 0 0.406 0.199 0.406 0.406 l 0 2.875 l 2.031 0 l 0 -4.688 c 0 -0.313 -0.281 -0.594 -0.594 -0.594 m -14.875 0"
             fill="#c0274b"
             stroke="none"
             fill-rule="nonzero"
             fill-opacity="1"
             id="path28410" />
          <path
             d="m 25.13 19 l 2.469 2 l 6.969 0 c 0.211 0 0.406 0.195 0.406 0.406 l 0 7.188 c 0 0.211 -0.195 0.406 -0.406 0.406 l -11.125 0 c -0.207 0 -0.406 -0.195 -0.406 -0.406 l 0 -1.125 l -2.02 -1.781 l 0 4.719 c 0 0.316 0.27 0.594 0.594 0.594 l 5.406 0 l 0 2 l -4 0 l 0 2 l 12 0 l 0 -2 l -4 0 l 0 -2 l 5.395 0 c 0.316 0 0.605 -0.277 0.605 -0.594 l 0 -10.813 c 0 -0.313 -0.281 -0.594 -0.605 -0.594 m -11.27 0"
             fill="#283651"
             stroke="none"
             fill-rule="nonzero"
             fill-opacity="1"
             id="path28412" />
          <path
             d="m 15 19 l 9 8 l 0 -5 l 7 3 l -10 -8 l 0 3.75 l -5.996 -1.75 m -0.004 0"
             fill="#ea8e00"
             stroke="none"
             fill-rule="evenodd"
             fill-opacity="1"
             id="path28414" />
        </g>
      </g>
    </g>
  </g>
  <g
     id="g28428">
    <g
       transform="translate(0,-1004.3622)"
       id="g28426">
      <path
         d="m 1 1043.36 0 4 c 0 2.216 1.784 4 4 4 l 38 0 c 2.216 0 4 -1.784 4 -4 l 0 -4 c 0 2.216 -1.784 4 -4 4 l -38 0 c -2.216 0 -4 -1.784 -4 -4 z"
         opacity="0.1"
         id="path28424" />
    </g>
  </g>
</svg>
