<svg width="48" height="48" viewBox="0 0 48 48.000001" xmlns="http://www.w3.org/2000/svg">
  <defs>
    <linearGradient id="a" x1="-47" x2="-1" gradientUnits="userSpaceOnUse">
      <stop offset="0" stop-color="#f2eeba"/>
      <stop offset="1" stop-color="#f5f2cb"/>
    </linearGradient>
  </defs>
  <path d="M1 43v.25c0 2.216 1.784 4 4 4h38c2.216 0 4-1.784 4-4V43c0 2.216-1.784 4-4 4H5c-2.216 0-4-1.784-4-4zm0 .5v.5c0 2.216 1.784 4 4 4h38c2.216 0 4-1.784 4-4v-.5c0 2.216-1.784 4-4 4H5c-2.216 0-4-1.784-4-4z" opacity=".02"/>
  <path d="M1 43.25v.25c0 2.216 1.784 4 4 4h38c2.216 0 4-1.784 4-4v-.25c0 2.216-1.784 4-4 4H5c-2.216 0-4-1.784-4-4z" opacity=".05"/>
  <path d="M1 43v.25c0 2.216 1.784 4 4 4h38c2.216 0 4-1.784 4-4V43c0 2.216-1.784 4-4 4H5c-2.216 0-4-1.784-4-4z" opacity=".1"/>
  <rect transform="rotate(-90)" x="-47" y="1" width="46" height="46" rx="4" fill="url(#a)"/>
  <path d="M1 39v4c0 2.216 1.784 4 4 4h38c2.216 0 4-1.784 4-4v-4c0 2.216-1.784 4-4 4H5c-2.216 0-4-1.784-4-4zm12-24c-1.108 0-2 .892-2 2v14c0 1.108.892 2 2 2h8c1.108 0 2-.892 2-2V17c0-1.108-.892-2-2-2zm12 0c-.554 0-1 .446-1 1v7c0 .554.446 1 1 1h11c.554 0 1-.446 1-1v-7c0-.554-.446-1-1-1zm0 10c-.554 0-1 .446-1 1v6c0 .554.446 1 1 1h4c.554 0 1-.446 1-1v-6c0-.554-.446-1-1-1zm7 0c-.554 0-1 .446-1 1v6c0 .554.446 1 1 1h4c.554 0 1-.446 1-1v-6c0-.554-.446-1-1-1z" opacity=".1"/>
  <rect x="11" y="14" width="12" height="18" rx="2" ry="2" fill="#268bd2"/>
  <rect x="24" y="14" width="13" height="9" rx="1" ry="1" fill="#de3d3a"/>
  <rect x="24" y="24" width="6" height="8" rx="1" ry="1" fill="#879a06"/>
  <rect x="31" y="24" width="6" height="8" rx="1" ry="1" fill="#879a06"/>
  <path d="M13.5 17a.499.499 0 1 0 0 1h7a.499.499 0 1 0 0-1zm0 3a.499.499 0 1 0 0 1h7a.499.499 0 1 0 0-1zm0 3a.499.499 0 1 0 0 1h7a.499.499 0 1 0 0-1zm0 5a.499.499 0 1 0 0 1h5a.499.499 0 1 0 0-1z" fill="#1c689d"/>
  <path d="M26.48 16a.48.48 0 0 0-.34.815l1.699 1.686-1.699 1.686c-.188.187-.188.487 0 .674s.491.187.68 0l2.039-2.02a.476.476 0 0 0 0-.676l-2.039-2.02a.484.484 0 0 0-.34-.141m3 0a.48.48 0 0 0-.34.815l1.699 1.686-1.699 1.686c-.188.187-.188.487 0 .674s.491.187.68 0l2.039-2.02a.476.476 0 0 0 0-.676l-2.039-2.02a.484.484 0 0 0-.34-.141m3 0a.48.48 0 0 0-.34.815l1.699 1.686-1.699 1.686c-.188.187-.188.487 0 .674s.491.187.68 0l2.039-2.02a.476.476 0 0 0 0-.676l-2.039-2.02a.484.484 0 0 0-.34-.141" fill="#a52523"/>
</svg>
