<?xml version="1.0" encoding="UTF-8" standalone="no"?>
<svg
   xmlns:dc="http://purl.org/dc/elements/1.1/"
   xmlns:cc="http://creativecommons.org/ns#"
   xmlns:rdf="http://www.w3.org/1999/02/22-rdf-syntax-ns#"
   xmlns:svg="http://www.w3.org/2000/svg"
   xmlns="http://www.w3.org/2000/svg"
   xmlns:sodipodi="http://sodipodi.sourceforge.net/DTD/sodipodi-0.dtd"
   xmlns:inkscape="http://www.inkscape.org/namespaces/inkscape"
   version="1.1"
   viewBox="0 0 48 48"
   id="svg23"
   sodipodi:docname="qalculate.svg"
   inkscape:version="1.0.2 (e86c870879, 2021-01-15, custom)">
  <metadata
     id="metadata27">
    <rdf:RDF>
      <cc:Work
         rdf:about="">
        <dc:format>image/svg+xml</dc:format>
        <dc:type
           rdf:resource="http://purl.org/dc/dcmitype/StillImage" />
      </cc:Work>
    </rdf:RDF>
  </metadata>
  <sodipodi:namedview
     pagecolor="#ffffff"
     bordercolor="#666666"
     borderopacity="1"
     objecttolerance="10"
     gridtolerance="10"
     guidetolerance="10"
     inkscape:pageopacity="0"
     inkscape:pageshadow="2"
     inkscape:window-width="1920"
     inkscape:window-height="1050"
     id="namedview25"
     showgrid="false"
     inkscape:zoom="10.429875"
     inkscape:cx="22.781246"
     inkscape:cy="20.557379"
     inkscape:window-x="0"
     inkscape:window-y="0"
     inkscape:window-maximized="1"
     inkscape:current-layer="svg23"
     showguides="true"
     inkscape:guide-bbox="true"
     inkscape:document-rotation="0" />
  <defs
     id="defs7">
    <linearGradient
       id="bg"
       x2="0"
       y1="1"
       y2="47"
       gradientUnits="userSpaceOnUse">
      <stop
         style="stop-color:#601a1a"
         offset="0"
         id="stop2" />
      <stop
         style="stop-color:#501616"
         offset="1"
         id="stop4" />
    </linearGradient>
    <linearGradient
       id="linearGradient1074-7"
       x1="152"
       x2="137.5"
       y1="156"
       y2="156"
       gradientTransform="matrix(0.21122,0,0,0.26101,-4.9855207,-16.7225)"
       gradientUnits="userSpaceOnUse">
      <stop
         stop-opacity="0"
         offset="0"
         id="stop8" />
      <stop
         stop-opacity=".15644"
         offset="1"
         id="stop10" />
    </linearGradient>
    <linearGradient
       id="linearGradient943-0"
       x1="216"
       x2="216"
       y1="28"
       y2="284"
       gradientTransform="matrix(0.3041,0,0,0.33558,-22.165221,-28.3525)"
       gradientUnits="userSpaceOnUse">
      <stop
         stop-color="#d4279f"
         offset="0"
         id="stop13" />
      <stop
         stop-color="#fa3da3"
         offset="1"
         id="stop15" />
    </linearGradient>
    <linearGradient
       id="linearGradient1694-7"
       x1="38.310001"
       x2="264"
       y1="270.69"
       y2="268"
       gradientTransform="matrix(0,0.26101,-0.26066,0,64.718779,-15.6725)"
       gradientUnits="userSpaceOnUse">
      <stop
         stop-color="#4d4d4d"
         offset="0"
         id="stop18" />
      <stop
         stop-color="#4d4d4d"
         offset="1"
         id="stop20" />
    </linearGradient>
    <linearGradient
       id="bg-1"
       x2="0"
       y1="1"
       y2="47"
       gradientUnits="userSpaceOnUse"
       gradientTransform="translate(0.00149562,6.3012512e-4)">
      <stop
         style="stop-color:#601a1a"
         offset="0"
         id="stop2-2" />
      <stop
         style="stop-color:#501616"
         offset="1"
         id="stop4-7" />
    </linearGradient>
    <linearGradient
       id="bg-0"
       x2="0"
       y1="1"
       y2="47"
       gradientUnits="userSpaceOnUse"
       gradientTransform="translate(0.0014961,6.304682e-4)">
      <stop
         style="stop-color:#601a1a"
         offset="0"
         id="stop2-9" />
      <stop
         style="stop-color:#501616"
         offset="1"
         id="stop4-3" />
    </linearGradient>
    <linearGradient
       id="bg-6"
       x2="0"
       y1="1"
       y2="47"
       gradientUnits="userSpaceOnUse"
       gradientTransform="translate(0.00149587,6.2981128e-4)">
      <stop
         style="stop-color:#601a1a"
         offset="0"
         id="stop2-0" />
      <stop
         style="stop-color:#501616"
         offset="1"
         id="stop4-6" />
    </linearGradient>
  </defs>
  <path
     id="path57"
     style="fill:url(#linearGradient1694-7)"
     d="M 5.0019531 1 C 2.7859531 1 1.0019531 2.784 1.0019531 5 L 1.0019531 43 C 1.0019531 45.216 2.7859531 47 5.0019531 47 L 24.058594 47 L 24.058594 1 L 5.0019531 1 z " />
  <path
     id="path61"
     style="fill:url(#linearGradient943-0)"
     d="M 24.058594 1 L 24.058594 47 L 43.001953 47 C 45.217953 47 47.001953 45.216 47.001953 43 L 47.001953 5 C 47.001953 2.784 45.217953 1 43.001953 1 L 24.058594 1 z " />
  <path
     id="rect63"
     style="fill:url(#linearGradient1074-7)"
     d="M 24.058594 1 L 24.058594 47 L 27.121094 47 L 27.121094 1 L 24.058594 1 z " />
  <path
     d="m -5.1361207,23.9975 v 19.055 c -0.0451,9.2313 0.94493,10.178 10.145,10.178 H 24.056879 v -29.233 z"
     enable-background="new"
     fill="#ffffff"
     opacity="0.1"
     id="path65" />
  <path
     d="m1 43v0.25c0 2.216 1.784 4 4 4h38c2.216 0 4-1.784 4-4v-0.25c0 2.216-1.784 4-4 4h-38c-2.216 0-4-1.784-4-4zm0 0.5v0.5c0 2.216 1.784 4 4 4h38c2.216 0 4-1.784 4-4v-0.5c0 2.216-1.784 4-4 4h-38c-2.216 0-4-1.784-4-4z"
     style="opacity:.02"
     id="path9" />
  <path
     d="m1 43.25v0.25c0 2.216 1.784 4 4 4h38c2.216 0 4-1.784 4-4v-0.25c0 2.216-1.784 4-4 4h-38c-2.216 0-4-1.784-4-4z"
     style="opacity:.05"
     id="path11" />
  <path
     d="m1 43v0.25c0 2.216 1.784 4 4 4h38c2.216 0 4-1.784 4-4v-0.25c0 2.216-1.784 4-4 4h-38c-2.216 0-4-1.784-4-4z"
     style="opacity:.1"
     id="path13" />
  <path
     d="m1 39v4c0 2.216 1.784 4 4 4h38c2.216 0 4-1.784 4-4v-4c0 2.216-1.784 4-4 4h-38c-2.216 0-4-1.784-4-4z"
     style="opacity:.1"
     id="path17" />
  <g
     id="g961">
    <path
       d="m 31.546072,21.085153 v 1.830433 h 9.567976 v -1.830433 z m 0,5.491232 v 1.830433 h 9.567976 v -1.830433 z"
       color="#000000"
       enable-background="accumulate"
       fill="#ffffff"
       id="path79-6"
       style="opacity:0.1;fill:#000000;stroke-width:0.661594" />
    <text
       xml:space="preserve"
       style="font-size:14.6667px;line-height:1.25;font-family:'Bitstream Vera Sans';-inkscape-font-specification:'Bitstream Vera Sans';letter-spacing:0px;word-spacing:0px;opacity:0.1;fill:#000000"
       x="9.07409"
       y="15.93615"
       id="text865-7"><tspan
         sodipodi:role="line"
         id="tspan863-5"
         x="9.07409"
         y="15.93615"
         style="font-style:oblique;font-variant:normal;font-weight:normal;font-stretch:normal;font-size:14.6667px;font-family:'Bitstream Vera Sans';-inkscape-font-specification:'Bitstream Vera Sans Oblique';fill:#000000">χ</tspan></text>
    <text
       xml:space="preserve"
       style="font-size:14.6667px;line-height:1.25;font-family:'Bitstream Vera Sans';-inkscape-font-specification:'Bitstream Vera Sans';letter-spacing:0px;word-spacing:0px;opacity:0.1;fill:#000000"
       x="7.7563272"
       y="40.237915"
       id="text869-3"><tspan
         sodipodi:role="line"
         id="tspan867-5"
         x="7.7563272"
         y="40.237915"
         style="font-size:14.6667px;fill:#000000">Ω</tspan></text>
  </g>
  <g
     id="g968">
    <path
       d="m 30.927168,20.452816 v 1.830433 h 9.567976 v -1.830433 z m 0,5.491232 v 1.830433 h 9.567976 v -1.830433 z"
       color="#000000"
       enable-background="accumulate"
       fill="#ffffff"
       id="path79"
       style="stroke-width:0.661594" />
    <text
       xml:space="preserve"
       style="font-size:14.6667px;line-height:1.25;font-family:'Bitstream Vera Sans';-inkscape-font-specification:'Bitstream Vera Sans';letter-spacing:0px;word-spacing:0px;fill:#ffffff"
       x="8.4551859"
       y="15.30381"
       id="text865"><tspan
         sodipodi:role="line"
         id="tspan863"
         x="8.4551859"
         y="15.30381"
         style="font-style:oblique;font-variant:normal;font-weight:normal;font-stretch:normal;font-size:14.6667px;font-family:'Bitstream Vera Sans';-inkscape-font-specification:'Bitstream Vera Sans Oblique';fill:#ffffff">χ</tspan></text>
    <text
       xml:space="preserve"
       style="font-size:14.6667px;line-height:1.25;font-family:'Bitstream Vera Sans';-inkscape-font-specification:'Bitstream Vera Sans';letter-spacing:0px;word-spacing:0px;fill:#ffffff"
       x="7.137423"
       y="39.605579"
       id="text869"><tspan
         sodipodi:role="line"
         id="tspan867"
         x="7.137423"
         y="39.605579"
         style="font-size:14.6667px;fill:#ffffff">Ω</tspan></text>
  </g>
</svg>
