<svg version="1.1" viewBox="0 0 48 48" xmlns="http://www.w3.org/2000/svg">
 <defs>
  <linearGradient id="bg" x2="0" y1="1" y2="47" gradientUnits="userSpaceOnUse">
   <stop style="stop-color:#d482c4" offset="0"/>
   <stop style="stop-color:#cf71bc" offset="1"/>
  </linearGradient>
 </defs>
 <path d="m1 43v0.25c0 2.216 1.784 4 4 4h38c2.216 0 4-1.784 4-4v-0.25c0 2.216-1.784 4-4 4h-38c-2.216 0-4-1.784-4-4zm0 0.5v0.5c0 2.216 1.784 4 4 4h38c2.216 0 4-1.784 4-4v-0.5c0 2.216-1.784 4-4 4h-38c-2.216 0-4-1.784-4-4z" style="opacity:.02"/>
 <path d="m1 43.25v0.25c0 2.216 1.784 4 4 4h38c2.216 0 4-1.784 4-4v-0.25c0 2.216-1.784 4-4 4h-38c-2.216 0-4-1.784-4-4z" style="opacity:.05"/>
 <path d="m1 43v0.25c0 2.216 1.784 4 4 4h38c2.216 0 4-1.784 4-4v-0.25c0 2.216-1.784 4-4 4h-38c-2.216 0-4-1.784-4-4z" style="opacity:.1"/>
 <rect x="1" y="1" width="46" height="46" rx="4" style="fill:url(#bg)"/>
 <path d="m1 39v4c0 2.216 1.784 4 4 4h38c2.216 0 4-1.784 4-4v-4c0 2.216-1.784 4-4 4h-38c-2.216 0-4-1.784-4-4z" style="opacity:.1"/>
 <path d="m11 28v2c0 1.662 1.338 3 3 3h1v1l1 3h2l1-3v-1h3v1l1 3h2l1-3v-1h3v1l1 3h2l1-3v-1h1c1.662 0 3-1.338 3-3v-2z" style="opacity:.1"/>
 <path d="m16 10-1 3v20l1 3h2l1-3v-20l-1-3h-2zm7 0-1 3v20l1 3h2l1-3v-20l-1-3h-2zm7 0-1 3v20l1 3h2l1-3v-20l-1-3h-2z" style="fill:#e5e5e5"/>
 <rect x="11" y="14" width="26" height="18" rx="3" style="fill:#616161"/>
 <path d="m15 32v1h4v-1zm7 0v1h4v-1zm7 0v1h4v-1z" style="opacity:.1"/>
 <path d="m11.041 29.404c0.19827 1.4672 1.4357 2.5957 2.959 2.5957h20c1.5233 0 2.7607-1.1285 2.959-2.5957-0.18588 0.91301-0.98948 1.5957-1.959 1.5957h-22c-0.9695 0-1.7731-0.6827-1.959-1.5957z" style="opacity:.1"/>
 <path d="m16 18-1 1v8l1 1h4l1-1-1-1h-3v-2h2l1-1-1-1h-2v-2h3l1-1-1-1zm7 0-1 1v8l1 1 1-1v-3h2l1-1-1-1h-2v-2h3l1-1-1-1zm7 0-1 1 1 1v6l-1 1 1 1h2l1-1-1-1v-6l1-1-1-1z" style="fill:#e5e5e5"/>
</svg>
