<svg version="1.1" viewBox="0 0 48 48" xmlns="http://www.w3.org/2000/svg">
 <defs>
  <linearGradient id="bg" x1="-47" x2="-1" gradientUnits="userSpaceOnUse">
   <stop style="stop-color:#374d3f" offset="0"/>
   <stop style="stop-color:#3f5948" offset="1"/>
  </linearGradient>
 </defs>
 <path d="m1 43v0.25c0 2.22 1.78 4 4 4h38c2.22 0 4-1.78 4-4v-0.25c0 2.22-1.78 4-4 4h-38c-2.22 0-4-1.78-4-4zm0 0.5v0.5c0 2.22 1.78 4 4 4h38c2.22 0 4-1.78 4-4v-0.5c0 2.22-1.78 4-4 4h-38c-2.22 0-4-1.78-4-4z" style="opacity:.02"/>
 <path d="m1 43.3v0.25c0 2.22 1.78 4 4 4h38c2.22 0 4-1.78 4-4v-0.25c0 2.22-1.78 4-4 4h-38c-2.22 0-4-1.78-4-4z" style="opacity:.05"/>
 <path d="m1 43v0.25c0 2.22 1.78 4 4 4h38c2.22 0 4-1.78 4-4v-0.25c0 2.22-1.78 4-4 4h-38c-2.22 0-4-1.78-4-4z" style="opacity:.1"/>
 <rect transform="rotate(-90)" x="-47" y="1" width="46" height="46" rx="4" style="fill:url(#bg)"/>
 <path d="m8 1v5.5l-0.0019 0.0019v0.5h-7v1l7-2e-3v7h-7v1h7v7h-7v1h7v7h-7v1h7v7l-7-2e-3v1h7v7h1l-2e-3 -5.56 0.0039 0.0039v-1.44h7v7h1v-7h7v7h1v-7h7v7h1v-7l7-0.0039v0.5l2e-3 -2e-3v6.5h1v-7h6v-1h-6l-2e-3 -7h6v-1h-6v-7h6v-1h-6v-7h6v-1h-6l2e-3 -7h6v-1h-6v-6h-1v5.51l-0.0059-0.0059v0.5l-7-0.0039v-6h-1v6h-7v-6h-1v6h-7v-6h-1v6h-7v-1.44l0.0019-4.56h-1zm1 7h7v7h-7zm8 0h7v7h-7zm8 0h7v7h-7zm8 0h7v7h-7zm-24 8h7v7h-7zm8 0h7v7h-7zm8 0h7v7h-7zm8 0h7v7h-7zm-24 8h7v7h-7zm8 0h7v7h-7zm8 0h7v7h-7zm8 0h7v7h-7zm-24 8h7v7h-7zm8 0h7v7h-7zm8 0h7v7h-7zm8 0h7v7h-7z" style="fill:#516a54"/>
 <path d="m1 39v4c0 2.22 1.78 4 4 4h38c2.22 0 4-1.78 4-4v-4c0 2.22-1.78 4-4 4h-38c-2.22 0-4-1.78-4-4z" style="opacity:.1"/>
 <path d="m12 13v2h4v-2zm0 3v2h4v-2zm15 0v2h4v-2zm-15 3v2h4v-2zm5 0v2h4v-2zm10 0v2h4v-2zm5 0v2h4v-2zm-20 3v2h4v-2zm5 0v2h4v-2zm10 0v2h4v-2zm5 0v2h4v-2zm-20 3v2h4v-2zm5 0v2h4v-2zm5 0v2h4v-2zm5 0v2h4v-2zm5 0v2h4v-2zm-20 3v2h4v-2zm5 0v2h4v-2zm5 0v2h4v-2zm5 0v2h4v-2zm5 0v2h4v-2zm-20 3v2h4v-2zm5 0v2h4v-2zm5 0v2h4v-2zm5 0v2h4v-2zm5 0v2h4v-2z" style="fill:#6ee298"/>
</svg>
