<svg width="48" height="48" version="1.1" viewBox="0 0 48 48.000001" xmlns="http://www.w3.org/2000/svg">
 <defs>
  <linearGradient id="linearGradient4501" x1="-47" x2="-1" y1="2.8779e-15" y2="6.1232e-17" gradientUnits="userSpaceOnUse">
   <stop style="stop-color:#5acae2" offset="0"/>
   <stop style="stop-color:#6bcfe5" offset="1"/>
  </linearGradient>
 </defs>
 <g transform="translate(0 3.949e-5)">
  <path d="m1 43v0.25c0 2.216 1.784 4 4 4h38c2.216 0 4-1.784 4-4v-0.25c0 2.216-1.784 4-4 4h-38c-2.216 0-4-1.784-4-4zm0 0.5v0.5c0 2.216 1.784 4 4 4h38c2.216 0 4-1.784 4-4v-0.5c0 2.216-1.784 4-4 4h-38c-2.216 0-4-1.784-4-4z" style="opacity:.02"/>
  <path d="m1 43.25v0.25c0 2.216 1.784 4 4 4h38c2.216 0 4-1.784 4-4v-0.25c0 2.216-1.784 4-4 4h-38c-2.216 0-4-1.784-4-4z" style="opacity:.05"/>
  <path d="m1 43v0.25c0 2.216 1.784 4 4 4h38c2.216 0 4-1.784 4-4v-0.25c0 2.216-1.784 4-4 4h-38c-2.216 0-4-1.784-4-4z" style="opacity:.1"/>
 </g>
 <rect transform="rotate(-90)" x="-47" y="1" width="46" height="46" rx="4" style="fill:url(#linearGradient4501)"/>
 <g transform="translate(0 3.949e-5)">
  <g transform="translate(0 -1004.4)">
   <path d="m1 1043.4v4c0 2.216 1.784 4 4 4h38c2.216 0 4-1.784 4-4v-4c0 2.216-1.784 4-4 4h-38c-2.216 0-4-1.784-4-4z" style="opacity:.1"/>
  </g>
 </g>
 <path d="m23 11a12 12 0 0 0 -12 12 12 12 0 0 0 12 12h11c0.554 0 1-0.446 1-1v-11a12 12 0 0 0 -12 -12z" style="opacity:.1"/>
 <path d="m23 10a12 12 0 0 0 -12 12 12 12 0 0 0 12 12h11c0.554 0 1-0.446 1-1v-11a12 12 0 0 0 -12 -12z" style="fill:#247ee4"/>
 <path d="m23.058 13.5c-1.8136-0.01193-3.5884 0.52473-5.0918 1.5391-2.1952 1.4809-3.6077 3.8421-3.9043 6.4395l0.0059-2e-3 -0.018 0.023 3.6152-0.52344 1.7949-1.375-4.1016 0.57227c0.998-3.281 4.034-5.676 7.641-5.674 0.82076 4.08e-4 1.6363 0.13062 2.418 0.38086l0.94922-0.72656c-1.051-0.424-2.174-0.647-3.308-0.654zm5.2812 1.75-1.3535 3.3926 0.29297 2.2422 1.5547-3.8379c2.3428 2.504 2.8987 6.3304 1.0938 9.4531-0.41073 0.7106-0.92718 1.4426-1.582 2l2.6543 3 0.75-0.61914-2.0762-2.377c0.40649-0.45054 0.78364-0.92734 1.0918-1.4531 0.91705-1.5647 1.3396-3.3705 1.2129-5.1797-0.18494-2.6415-1.5239-5.046-3.625-6.6016l-2e-3 0.0078zm-14.252 8.506c0.15814 1.1232 0.52723 2.2073 1.0879 3.1934 0.89645 1.5766 2.2488 2.8458 3.8789 3.6406 2.3801 1.1606 5.1316 1.202 7.5293 0.16016l-0.0039-0.0039 0.0293 0.0039-2.2617-2.8691-2.0879-0.86719 2.5449 3.2656c-3.34 0.777-6.931-0.654-8.733-3.779-0.41-0.711-0.704-1.483-0.878-2.285z" style="opacity:.1"/>
 <path d="m23.058 13c-1.8136-0.01193-3.5884 0.52473-5.0918 1.5391-2.1952 1.4809-3.6077 3.8421-3.9043 6.4395l0.0059-2e-3 -0.018 0.023 3.6152-0.52344 1.7949-1.375-4.1016 0.57227c0.998-3.281 4.034-5.676 7.641-5.674 0.82076 4.08e-4 1.6363 0.13062 2.418 0.38086l0.94922-0.72656c-1.051-0.424-2.174-0.647-3.308-0.654zm5.2812 1.75-1.3535 3.3926 0.29297 2.2422 1.5547-3.8379c2.3428 2.504 2.8987 6.3304 1.0938 9.4531-0.41073 0.7106-0.92718 1.4426-1.582 2l2.6543 3 0.75-0.61914-2.0762-2.377c0.40649-0.45054 0.78364-0.92734 1.0918-1.4531 0.91705-1.5647 1.3396-3.3705 1.2129-5.1797-0.18494-2.6415-1.5239-5.046-3.625-6.6016l-2e-3 0.0078zm-14.252 8.506c0.15814 1.1232 0.52723 2.2073 1.0879 3.1934 0.89645 1.5766 2.2488 2.8458 3.8789 3.6406 2.3801 1.1606 5.1316 1.202 7.5293 0.16016l-0.0039-0.0039 0.0293 0.0039-2.2617-2.8691-2.0879-0.86719 2.5449 3.2656c-3.34 0.777-6.931-0.654-8.733-3.779-0.41-0.711-0.704-1.483-0.878-2.285z" style="fill:#f9f9f9"/>
</svg>
