<svg width="48" height="48" version="1.1" viewBox="0 0 48 48.000001" xmlns="http://www.w3.org/2000/svg">
 <defs>
  <linearGradient id="linearGradient4501" x1="-47" x2="-1" y1="2.8779e-15" y2="6.1232e-17" gradientUnits="userSpaceOnUse">
   <stop style="stop-color:#165fb2" offset="0"/>
   <stop style="stop-color:#1869c4" offset="1"/>
  </linearGradient>
 </defs>
 <g transform="translate(0 3.949e-5)">
  <path d="m1 43v0.25c0 2.216 1.784 4 4 4h38c2.216 0 4-1.784 4-4v-0.25c0 2.216-1.784 4-4 4h-38c-2.216 0-4-1.784-4-4zm0 0.5v0.5c0 2.216 1.784 4 4 4h38c2.216 0 4-1.784 4-4v-0.5c0 2.216-1.784 4-4 4h-38c-2.216 0-4-1.784-4-4z" style="opacity:.02"/>
  <path d="m1 43.25v0.25c0 2.216 1.784 4 4 4h38c2.216 0 4-1.784 4-4v-0.25c0 2.216-1.784 4-4 4h-38c-2.216 0-4-1.784-4-4z" style="opacity:.05"/>
  <path d="m1 43v0.25c0 2.216 1.784 4 4 4h38c2.216 0 4-1.784 4-4v-0.25c0 2.216-1.784 4-4 4h-38c-2.216 0-4-1.784-4-4z" style="opacity:.1"/>
 </g>
 <rect transform="rotate(-90)" x="-47" y="1" width="46" height="46" rx="4" style="fill:url(#linearGradient4501)"/>
 <g transform="translate(0 3.949e-5)">
  <g transform="translate(0 -1004.4)">
   <path d="m1 1043.4v4c0 2.216 1.784 4 4 4h38c2.216 0 4-1.784 4-4v-4c0 2.216-1.784 4-4 4h-38c-2.216 0-4-1.784-4-4z" style="opacity:.1"/>
  </g>
 </g>
 <path d="m17.285 15.01c-2.05-0.08-4.053 0.308-5.977 1.408-1.154 1.124-2.309 4.173-2.309 7.604 0 5.622 2 7.996 2 7.996 15-8.489 13 4.983 28-0.5-5.189-0.843-11.03-6.662-18.258-7.249 6.325-3.155 11.912-2.749 15.258-2.551-6-2.025-12.563-6.47-18.715-6.709" style="fill-opacity:.098"/>
 <path d="m39 30.517c-15 5.483-13-7.989-28 0.5l2-6c11-6 19.08 4.376 26 5.5z" style="fill:#7ed1f3"/>
 <path d="m19.818 23.162c-2.1452 0.013528-4.4121 0.54297-6.8184 1.8555l-2 6c0.65006-0.36789 1.2567-0.68197 1.8457-0.9707 3.3509-3.3386 6.6636-5.372 9.7559-6.6172-0.90519-0.17329-1.8319-0.27358-2.7832-0.26758z" style="opacity:.1"/>
 <path d="m36 20.717c-5-0.297-15-1.1-25 10.3 0 0-2-2.374-2-7.996 0-3.431 1.154-6.479 2.308-7.604 7.692-4.4 16.692 2.6 24.692 5.3" style="fill:#f9f9f9"/>
</svg>
