<svg version="1.1" viewBox="0 0 48 48" xmlns="http://www.w3.org/2000/svg">
 <defs>
  <linearGradient id="bg" x1="-47" x2="-1" gradientUnits="userSpaceOnUse">
   <stop style="stop-color:#b2baa6" offset="0"/>
   <stop style="stop-color:#bcc3b1" offset="1"/>
  </linearGradient>
 </defs>
 <g transform="translate(0 3.95e-5)">
  <path d="m1 43v0.25c0 2.22 1.78 4 4 4h38c2.22 0 4-1.78 4-4v-0.25c0 2.22-1.78 4-4 4h-38c-2.22 0-4-1.78-4-4zm0 0.5v0.5c0 2.22 1.78 4 4 4h38c2.22 0 4-1.78 4-4v-0.5c0 2.22-1.78 4-4 4h-38c-2.22 0-4-1.78-4-4z" style="opacity:.02"/>
  <path d="m1 43.2v0.25c0 2.22 1.78 4 4 4h38c2.22 0 4-1.78 4-4v-0.25c0 2.22-1.78 4-4 4h-38c-2.22 0-4-1.78-4-4z" style="opacity:.05"/>
  <path d="m1 43v0.25c0 2.22 1.78 4 4 4h38c2.22 0 4-1.78 4-4v-0.25c0 2.22-1.78 4-4 4h-38c-2.22 0-4-1.78-4-4z" style="opacity:.1"/>
 </g>
 <rect transform="rotate(-90)" x="-47" y="1" width="46" height="46" rx="4" style="fill:url(#bg)"/>
 <path d="m1 39v4c0 2.22 1.78 4 4 4h38c2.22 0 4-1.78 4-4v-4c0 2.22-1.78 4-4 4h-38c-2.22 0-4-1.78-4-4z" style="opacity:.1"/>
 <path d="m23 12a2 2 0 0 0-2 2 2 2 0 0 0 2 2 2 2 0 0 0 2-2 2 2 0 0 0-2-2zm10 0a2 2 0 0 0-2 2 2 2 0 0 0 2 2 2 2 0 0 0 2-2 2 2 0 0 0-2-2zm-7 1v2h4v-2zm-4 4v4h2v-4zm10 0v14h2v-14zm-19 5a2 2 0 0 0-2 2 2 2 0 0 0 2 2 2 2 0 0 0 2-2 2 2 0 0 0-2-2zm10 0a2 2 0 0 0-2 2 2 2 0 0 0 2 2 2 2 0 0 0 2-2 2 2 0 0 0-2-2zm-7 1v2h4v-2zm10 2.59-1.41 1.41 5.41 5.41 1.41-1.41zm-6 6.41a2 2 0 0 0-2 2 2 2 0 0 0 2 2 2 2 0 0 0 2-2 2 2 0 0 0-2-2zm13 0a2 2 0 0 0-2 2 2 2 0 0 0 2 2 2 2 0 0 0 2-2 2 2 0 0 0-2-2zm-10 1v2h7v-2z" style="opacity:.1"/>
 <circle cx="33" cy="13" r="2" style="fill:#eded59"/>
 <circle cx="33" cy="33" r="2" style="fill:#e9795d"/>
 <circle cx="23" cy="23" r="2" style="fill:#eb7ae6"/>
 <circle cx="20" cy="33" r="2" style="fill:#f5f5f5"/>
 <circle cx="13" cy="23" r="2" style="fill:#58e48e"/>
 <circle cx="23" cy="13" r="2" style="fill:#8e9bf0"/>
 <path d="m26 12v2h4v-2zm-4 4v4h2v-4zm10 0v14h2v-14zm-16 6v2h4v-2zm10 2.59-1.41 1.41 5.41 5.41 1.41-1.41zm-3 7.41v2h7v-2z" style="fill:#545454"/>
</svg>
