<svg version="1.1" viewBox="0 0 48 48" xmlns="http://www.w3.org/2000/svg">
 <defs>
  <linearGradient id="bg" x2="0" y1="1" y2="47" gradientUnits="userSpaceOnUse">
   <stop style="stop-color:#3d3d3d" offset="0"/>
   <stop style="stop-color:#333" offset="1"/>
  </linearGradient>
 </defs>
 <path d="m1 43v0.25c0 2.216 1.784 4 4 4h38c2.216 0 4-1.784 4-4v-0.25c0 2.216-1.784 4-4 4h-38c-2.216 0-4-1.784-4-4zm0 0.5v0.5c0 2.216 1.784 4 4 4h38c2.216 0 4-1.784 4-4v-0.5c0 2.216-1.784 4-4 4h-38c-2.216 0-4-1.784-4-4z" style="opacity:.02"/>
 <path d="m1 43.25v0.25c0 2.216 1.784 4 4 4h38c2.216 0 4-1.784 4-4v-0.25c0 2.216-1.784 4-4 4h-38c-2.216 0-4-1.784-4-4z" style="opacity:.05"/>
 <path d="m1 43v0.25c0 2.216 1.784 4 4 4h38c2.216 0 4-1.784 4-4v-0.25c0 2.216-1.784 4-4 4h-38c-2.216 0-4-1.784-4-4z" style="opacity:.1"/>
 <rect x="1" y="1" width="46" height="46" rx="4" style="fill:url(#bg)"/>
 <path d="m1 39v4c0 2.216 1.784 4 4 4h38c2.216 0 4-1.784 4-4v-4c0 2.216-1.784 4-4 4h-38c-2.216 0-4-1.784-4-4z" style="opacity:.1"/>
 <path d="m24 10c-4.432 0-8 3.568-8 8h1c0-3.878 3.122-7 7-7s7 3.122 7 7h1c0-4.432-3.568-8-8-8zm0 3c-2.77 0-5 2.23-5 5h1c0-2.216 1.784-4 4-4s4 1.784 4 4h1c0-2.77-2.23-5-5-5zm-8 6v8c0 3.7399 2.5434 6.8556 6 7.7402v3.2598h4v-3.2598c3.4566-0.88468 6-4.0003 6-7.7402v-8h-4v8c0 2.216-1.784 4-4 4s-4-1.784-4-4v-8z" style="opacity:.1"/>
 <path d="m16 18v8c0 3.7399 2.5434 6.8556 6 7.7402v3.2598h4v-3.2598c3.4566-0.88468 6-4.0003 6-7.7402v-8h-4v8c0 2.216-1.784 4-4 4s-4-1.784-4-4v-8z" style="fill:#f2f2f2"/>
 <path d="m24 9c-4.432 0-8 3.568-8 8h1c0-3.878 3.122-7 7-7s7 3.122 7 7h1c0-4.432-3.568-8-8-8zm0 3c-2.77 0-5 2.23-5 5h1c0-2.216 1.784-4 4-4s4 1.784 4 4h1c0-2.77-2.23-5-5-5z" style="fill:#85b4fa"/>
</svg>
