<svg width="48" height="48" viewBox="0 0 48 48.000001" xmlns="http://www.w3.org/2000/svg">
  <defs>
    <linearGradient id="a" x1="-47" x2="-1" gradientUnits="userSpaceOnUse">
      <stop offset="0" stop-color="#dbd8b5"/>
      <stop offset="1" stop-color="#e2dfc2"/>
    </linearGradient>
  </defs>
  <path d="M1 43v.25c0 2.216 1.784 4 4 4h38c2.216 0 4-1.784 4-4V43c0 2.216-1.784 4-4 4H5c-2.216 0-4-1.784-4-4zm0 .5v.5c0 2.216 1.784 4 4 4h38c2.216 0 4-1.784 4-4v-.5c0 2.216-1.784 4-4 4H5c-2.216 0-4-1.784-4-4z" opacity=".02"/>
  <path d="M1 43.25v.25c0 2.216 1.784 4 4 4h38c2.216 0 4-1.784 4-4v-.25c0 2.216-1.784 4-4 4H5c-2.216 0-4-1.784-4-4z" opacity=".05"/>
  <path d="M1 43v.25c0 2.216 1.784 4 4 4h38c2.216 0 4-1.784 4-4V43c0 2.216-1.784 4-4 4H5c-2.216 0-4-1.784-4-4z" opacity=".1"/>
  <rect transform="rotate(-90)" x="-47" y="1" width="46" height="46" rx="4" fill="url(#a)"/>
  <path d="M1 39v4c0 2.216 1.784 4 4 4h38c2.216 0 4-1.784 4-4v-4c0 2.216-1.784 4-4 4H5c-2.216 0-4-1.784-4-4z" opacity=".1"/>
  <g opacity=".1">
    <path d="M34.2 10l-.466.467.467.467-.467.469-.47-.47-.466.47.467.467-.467.467-.467-.467-.467.467.467.467-.467.467.232.234-8.521 8.143c-.337-.364-.72-.734-1.057-.902-3.738-1.87-3.86 3.617-5.242 3.324-1.568.194-3.36.24-4.752 1.633-2.803 2.803-1.218 6.258.65 8.127 1.869 1.869 5.324 3.454 8.127.65 1.33-1.331 1.629-2.286 1.73-4.674-.38-1.47 3.947-1.87 2.926-3.604-.192-.326-1.178.763-2.037-.316-.088-.111-.06-.504.002-.957l9.576-10.02.234.232.467-.467.467.467.467-.467-.467-.467.467-.467.467.467.469-.467-.47-.47.47-.466.467.467.467-.467-.467-.467-.701-1.168-1.168-.701L34.2 10"/>
  </g>
  <g transform="rotate(45 38.648 17.156) scale(1.32147)">
    <path d="M20.973 27.583c-.735.943-1.67 1.926-1.67 3.417 0 3 2.697 4 4.697 4s4.697-1 4.697-4c0-1.424-.352-2.095-1.575-3.427-.99-.583 1.111-3.113-.363-3.494-.277-.072-.223 1.039-1.26.921-.337-.039-1.5-2-1.5-2s-1.368-.211-2 0c-3 1-.131 4-1.027 4.583z" fill="#1a1a1a"/>
    <path d="M23.25 14L23 25h2l-.25-11" fill="#6c5d53"/>
    <g fill="#fc0">
      <path d="M22.5 11h.5v.5h-.5zM22.5 12h.5v.5h-.5zM22.5 13h.5v.5h-.5zM25 11h.5v.5H25zM25 12h.5v.5H25zM25 13h.5v.5H25z"/>
    </g>
    <path fill="#fc0" d="M23 25h2v1h-2zM23 28h2v1h-2z"/>
    <path d="M23 11l1-.25 1 .25v3h-2z" fill="#1a1a1a"/>
    <circle transform="translate(.417 2)" cx="21.5" cy="22.5" r=".5" fill="#fc0"/>
    <path fill="#fc0" d="M22 29.5h4v.5h-4z"/>
    <circle transform="matrix(.75 0 0 .75 11.25 15.25)" cx="21.5" cy="22.5" r=".5" fill="#ffd42a"/>
    <circle transform="matrix(.75 0 0 .75 11.25 13.75)" cx="21.5" cy="22.5" r=".5" fill="#ffd42a"/>
    <circle transform="matrix(.75 0 0 .75 9.75 14.25)" cx="21.5" cy="22.5" r=".5" fill="#ffd42a"/>
    <circle transform="matrix(.75 0 0 .75 9.75 15.75)" cx="21.5" cy="22.5" r=".5" fill="#ffd42a"/>
  </g>
</svg>
