<svg version="1.1" viewBox="0 0 48 48" xmlns="http://www.w3.org/2000/svg">
 <defs>
  <linearGradient id="bg" x2="0" y1="1" y2="47" gradientUnits="userSpaceOnUse">
   <stop style="stop-color:#494d6e" offset="0"/>
   <stop style="stop-color:#414462" offset="1"/>
  </linearGradient>
 </defs>
 <path d="m1 43v0.25c0 2.22 1.78 4 4 4h38c2.22 0 4-1.78 4-4v-0.25c0 2.22-1.78 4-4 4h-38c-2.22 0-4-1.78-4-4zm0 0.5v0.5c0 2.22 1.78 4 4 4h38c2.22 0 4-1.78 4-4v-0.5c0 2.22-1.78 4-4 4h-38c-2.22 0-4-1.78-4-4z" style="opacity:.02"/>
 <path d="m1 43.2v0.25c0 2.22 1.78 4 4 4h38c2.22 0 4-1.78 4-4v-0.25c0 2.22-1.78 4-4 4h-38c-2.22 0-4-1.78-4-4z" style="opacity:.05"/>
 <path d="m1 43v0.25c0 2.22 1.78 4 4 4h38c2.22 0 4-1.78 4-4v-0.25c0 2.22-1.78 4-4 4h-38c-2.22 0-4-1.78-4-4z" style="opacity:.1"/>
 <rect x="1" y="1" width="46" height="46" rx="4" style="fill:url(#bg)"/>
 <path d="m1 39v4c0 2.22 1.78 4 4 4h38c2.22 0 4-1.78 4-4v-4c0 2.22-1.78 4-4 4h-38c-2.22 0-4-1.78-4-4z" style="opacity:.1"/>
 <path d="m28 10c-0.552 0-1 0.448-1 1s0.448 1 1 1h1.46l-6.83 6-10.6 1v10c5.5e-5 0.552 0.448 1 1 1h5c0.552 0 1-0.448 1-1s-0.448-1-1-1h-4v-8h9c0.239-5.04e-4 0.469-0.0864 0.65-0.242l7.35-6.44v1.69c0 0.552 0.448 1 1 1s1-0.448 1-1v-4c-0.642-1.78-3.43-1-5-1zm2 8c-0.552 0-1 0.448-1 1s0.448 1 1 1h4v8h-9l-10 8v1c5.5e-5 0.552 0.448 1 1 1h4c0.552 0 1-0.448 1-1s-0.448-1-1-1h-1.46l6.83-6h9.63c0.552-5.5e-5 1-0.448 1-1v-10z" style="opacity:.1"/>
 <path d="m28 9c-0.552 0-1 0.448-1 1s0.448 1 1 1h1.46l-6.83 6h-9.63c-0.552 5.5e-5 -1 0.448-1 1v10c5.5e-5 0.552 0.448 1 1 1h5c0.552 0 1-0.448 1-1s-0.448-1-1-1h-4v-8h9c0.239-5.04e-4 0.469-0.0864 0.65-0.242l7.35-6.44v1.69c0 0.552 0.448 1 1 1s1-0.448 1-1v-4c-5.5e-5 -0.552-0.448-1-1-1zm2 8c-0.552 0-1 0.448-1 1s0.448 1 1 1h4v8h-9c-0.239-3.6e-5 -0.469 0.0852-0.65 0.24l-7.35 6.44v-1.68c0-0.552-0.448-1-1-1s-1 0.448-1 1v4c5.5e-5 0.552 0.448 1 1 1h4c0.552 0 1-0.448 1-1s-0.448-1-1-1h-1.46l6.83-6h9.63c0.552-5.5e-5 1-0.448 1-1v-10c-5.5e-5 -0.552-0.448-1-1-1z" style="fill:#aef4e3"/>
</svg>
