<svg version="1.1" viewBox="0 0 48 48" xmlns="http://www.w3.org/2000/svg">
 <defs>
  <linearGradient id="bg" x1="-47" x2="-1" y1="2.88e-15" y2="6.12e-17" gradientUnits="userSpaceOnUse">
   <stop style="stop-color:#46baa7" offset="0"/>
   <stop style="stop-color:#55bfae" offset="1"/>
  </linearGradient>
 </defs>
 <path d="m1 43v0.25c0 2.22 1.78 4 4 4h38c2.22 0 4-1.78 4-4v-0.25c0 2.22-1.78 4-4 4h-38c-2.22 0-4-1.78-4-4zm0 0.5v0.5c0 2.22 1.78 4 4 4h38c2.22 0 4-1.78 4-4v-0.5c0 2.22-1.78 4-4 4h-38c-2.22 0-4-1.78-4-4z" style="opacity:.02"/>
 <path d="m1 43.3v0.25c0 2.22 1.78 4 4 4h38c2.22 0 4-1.78 4-4v-0.25c0 2.22-1.78 4-4 4h-38c-2.22 0-4-1.78-4-4z" style="opacity:.05"/>
 <path d="m1 43v0.25c0 2.22 1.78 4 4 4h38c2.22 0 4-1.78 4-4v-0.25c0 2.22-1.78 4-4 4h-38c-2.22 0-4-1.78-4-4z" style="opacity:.1"/>
 <rect transform="rotate(-90)" x="-47" y="1" width="46" height="46" rx="4" style="fill:url(#bg)"/>
 <path d="m1 39v4c0 2.22 1.78 4 4 4h38c2.22 0 4-1.78 4-4v-4c0 2.22-1.78 4-4 4h-38c-2.22 0-4-1.78-4-4z" style="opacity:.1"/>
 <path d="m31 11 3 3v6l-0.995-0.0014v2l0.995 0.0014v14c0 0.999-0.999 0.999-0.999 0.999h-18s-0.999 0-0.999-0.999v-11l1-0.0034v-4l-0.805 3e-3c-0.11 4.09e-4 -0.198-0.0886-0.198-0.198l0.00321-2.8 17-6.99z" style="opacity:.1"/>
 <path transform="scale(-1,1)" d="m-16 16 2 1-7.9e-4 2.8c-3.1e-5 0.11-0.0885 0.198-0.198 0.198l-1.8-0.0032z" style="fill:#d06362"/>
 <path d="m15 17-0.995 0.0044v-6c0-0.999 0.999-0.999 0.999-0.999h16l3 3v6l-0.995-0.0014v2l0.995 0.0014v14c0 0.999-0.999 0.999-0.999 0.999h-18s-0.999 0-0.999-0.999v-11l0.995-0.0044z" style="fill:#49575a"/>
 <path d="m17 14h14v20h-14z" style="fill:#d06362"/>
 <path d="m24 27s-0.998 0.0017-0.998 0.838v1.24c0 0.925 0.998 0.924 0.998 0.924h1v2h-2v1h2c0.999 0 0.998-1 0.998-1v-2c0-0.999-0.998-0.998-0.998-0.998h-1v-1h2v-1zm3 0.0039v1h2v4h-0.998v-3.5h-1v4.5h2s1-7.89e-4 1-1v-4c0-0.485-0.178-1-1-1h-2z" style="fill:#ececec"/>
</svg>
