<svg viewBox="0 0 48 48">
  <defs>
    <linearGradient id="a" x1="1" x2="47" gradientUnits="userSpaceOnUse" gradientTransform="translate(-48 .002)">
      <stop stop-color="#e4e4e4"/>
      <stop offset="1" stop-color="#eee"/>
    </linearGradient>
    <clipPath id="b"/>
    <clipPath id="c"/>
  </defs>
  <path d="M1 43v.25c0 2.216 1.784 4 4 4h38c2.216 0 4-1.784 4-4V43c0 2.216-1.784 4-4 4H5c-2.216 0-4-1.784-4-4zm0 .5v.5c0 2.216 1.784 4 4 4h38c2.216 0 4-1.784 4-4v-.5c0 2.216-1.784 4-4 4H5c-2.216 0-4-1.784-4-4z" opacity=".02"/>
  <path d="M1 43.25v.25c0 2.216 1.784 4 4 4h38c2.216 0 4-1.784 4-4v-.25c0 2.216-1.784 4-4 4H5c-2.216 0-4-1.784-4-4z" opacity=".05"/>
  <path d="M1 43v.25c0 2.216 1.784 4 4 4h38c2.216 0 4-1.784 4-4V43c0 2.216-1.784 4-4 4H5c-2.216 0-4-1.784-4-4z" opacity=".1"/>
  <rect width="46" height="46" x="-47" y="1" rx="4" transform="rotate(-90)" fill="url(#a)"/>
  <g opacity=".1" clip-path="url(#b)">
    <path d="M48 14.13l-13.03 5.03a11.99 11.99 0 0 1-4.407 14.904l8.594 13.941h8.844m0-33.875"/>
    <path d="M0 5.594v42.41h15.594l8.625-12H24c-6.648 0-12-5.352-12-12 0-5.551 3.742-10.18 8.844-11.563L0 5.597m33.438 10.965a11.889 11.889 0 0 1 2 3.813l1.844-2.563m-3.844-1.25"/>
    <path d="M16.938 33.719L6.563 48h34.875L31.063 33.719A11.957 11.957 0 0 1 24.003 36a11.95 11.95 0 0 1-7.06-2.281m-.004 0M23.969 0L24 12c5.355 0 9.887 3.453 11.438 8.281l12.563-4.063V-.001m-24.03 0"/>
    <path d="M0 0v16.219l12.563 4.063a11.98 11.98 0 0 1 11.438-8.281v-12m-24 0"/>
  </g>
  <g>
    <g clip-path="url(#c)">
      <path d="M48 13.13l-13.03 5.03a11.99 11.99 0 0 1-4.407 14.904l8.594 13.941h8.844m0-33.875" fill="#f3f284"/>
      <path d="M0 4.594v42.41h15.594l8.625-12H24c-6.648 0-12-5.352-12-12 0-5.551 3.742-10.18 8.844-11.563L0 4.597m33.438 10.965a11.889 11.889 0 0 1 2 3.813l1.844-2.563m-3.844-1.25" fill="#9ab9dd"/>
      <path d="M16.938 32.719L6.563 47h34.875L31.063 32.719A11.957 11.957 0 0 1 24.003 35a11.95 11.95 0 0 1-7.06-2.281m-.004 0" fill="#9add9c"/>
      <path d="M23.969-1L24 11c5.355 0 9.887 3.453 11.438 8.281l12.563-4.063V-1.001m-24.03 0" fill="#ecb968"/>
      <path d="M0-1v16.219l12.563 4.063a11.98 11.98 0 0 1 11.438-8.281v-12m-24 0" fill="#ec8e68"/>
    </g>
  </g>
  <g>
    <path d="M1 38.998v4c0 2.216 1.784 4 4 4h38c2.216 0 4-1.784 4-4v-4c0 2.216-1.784 4-4 4H5c-2.216 0-4-1.784-4-4z" opacity=".1"/>
  </g>
</svg>
