<svg version="1.1" viewBox="0 0 48 48" xmlns="http://www.w3.org/2000/svg">
 <defs>
  <linearGradient id="bg" x1="-47" x2="-1" y1="0" y2="0" gradientUnits="userSpaceOnUse">
   <stop style="stop-color:#d0eef6" offset="0"/>
   <stop style="stop-color:#e1f4f9" offset="1"/>
  </linearGradient>
 </defs>
 <path d="m1 43v0.25c0 2.22 1.78 4 4 4h38c2.22 0 4-1.78 4-4v-0.25c0 2.22-1.78 4-4 4h-38c-2.22 0-4-1.78-4-4zm0 0.5v0.5c0 2.22 1.78 4 4 4h38c2.22 0 4-1.78 4-4v-0.5c0 2.22-1.78 4-4 4h-38c-2.22 0-4-1.78-4-4z" style="opacity:.02"/>
 <path d="m1 43.3v0.25c0 2.22 1.78 4 4 4h38c2.22 0 4-1.78 4-4v-0.25c0 2.22-1.78 4-4 4h-38c-2.22 0-4-1.78-4-4z" style="opacity:.05"/>
 <path d="m1 43v0.25c0 2.22 1.78 4 4 4h38c2.22 0 4-1.78 4-4v-0.25c0 2.22-1.78 4-4 4h-38c-2.22 0-4-1.78-4-4z" style="opacity:.1"/>
 <rect transform="rotate(-90)" x="-47" y="1" width="46" height="46" rx="4" style="fill:url(#bg)"/>
 <path d="m1 39v4c0 2.22 1.78 4 4 4h38c2.22 0 4-1.78 4-4v-4c0 2.22-1.78 4-4 4h-38c-2.22 0-4-1.78-4-4z" style="opacity:.1"/>
 <path d="m24 15-3.54 1.13 3.06 1.46-5.91-0.352-8.61 4.76 3.08 2.14 5.52-3.36-2.96 5.54 9.35 8.68 5.82-5.54c-3.55-2.86-12.1-8.73-12.1-8.73l5.93-3.08 6.94 3.32-6.57 4.04 8.93 1.67 6.07-4.89-5.15-2.83-3.21 1.97 0.176-3.47zm0 4a4 2 0 0 0-4 2 4 2 0 0 0 4 2 4 2 0 0 0 4-2 4 2 0 0 0-4-2z" style="opacity:.1"/>
 <path d="m24 14-3.54 1.13 3.06 1.46-5.91-0.352-8.61 4.76 3.08 2.14 5.52-3.36-2.96 5.54 9.35 8.68 5.82-5.54c-3.55-2.86-12.1-8.73-12.1-8.73l5.93-3.08 6.94 3.32-6.57 4.04 8.93 1.67 6.07-4.89-5.15-2.83-3.21 1.97 0.176-3.47zm0 4a4 2 0 0 0-4 2 4 2 0 0 0 4 2 4 2 0 0 0 4-2 4 2 0 0 0-4-2z" style="fill:#1f5499"/>
</svg>
