<svg version="1.1" viewBox="0 0 48 48" xmlns="http://www.w3.org/2000/svg">
 <defs>
  <linearGradient id="bg" x2="0" y1="1" y2="47" gradientUnits="userSpaceOnUse">
   <stop style="stop-color:#69b723" offset="0"/>
   <stop style="stop-color:#5fa620" offset="1"/>
  </linearGradient>
 </defs>
 <path d="m1 43v0.25c0 2.22 1.78 4 4 4h38c2.22 0 4-1.78 4-4v-0.25c0 2.22-1.78 4-4 4h-38c-2.22 0-4-1.78-4-4zm0 0.5v0.5c0 2.22 1.78 4 4 4h38c2.22 0 4-1.78 4-4v-0.5c0 2.22-1.78 4-4 4h-38c-2.22 0-4-1.78-4-4z" style="opacity:.02"/>
 <path d="m1 43.2v0.25c0 2.22 1.78 4 4 4h38c2.22 0 4-1.78 4-4v-0.25c0 2.22-1.78 4-4 4h-38c-2.22 0-4-1.78-4-4z" style="opacity:.05"/>
 <path d="m1 43v0.25c0 2.22 1.78 4 4 4h38c2.22 0 4-1.78 4-4v-0.25c0 2.22-1.78 4-4 4h-38c-2.22 0-4-1.78-4-4z" style="opacity:.1"/>
 <rect x="1" y="1" width="46" height="46" rx="4" style="fill:url(#bg)"/>
 <path d="m1 39v4c0 2.22 1.78 4 4 4h38c2.22 0 4-1.78 4-4v-4c0 2.22-1.78 4-4 4h-38c-2.22 0-4-1.78-4-4z" style="opacity:.1"/>
 <path d="m14 17-3 11h2l3-11zm2 0 3 11h2l-3-11zm5 11h2v-2h-2zm6-11-3 11h2l3-11zm5.51 3c-0.704 0.0061-1.34 0.12-1.9 0.361-0.561 0.229-1.04 0.555-1.43 0.977-0.382 0.41-0.674 0.904-0.877 1.48-0.203 0.567-0.305 1.19-0.305 1.88 0 0.784 0.108 1.46 0.322 2.03 0.215 0.567 0.507 1.04 0.877 1.43 0.37 0.374 0.8 0.651 1.29 0.832 1.27 0.442 2.4 0.231 3.51-0.326v0.398c0 0.868 0 1.58-0.309 1.9-0.43 0.398-1.14 0.596-2.13 0.596-0.525 0-1.03-0.0536-1.52-0.162-0.477-0.0964-0.883-0.211-1.22-0.344l-0.305 1.46c0.382 0.133 0.829 0.247 1.34 0.344 0.525 0.0964 1.08 0.145 1.66 0.145 1.5 0 2.63-0.326 3.37-0.977 0.74-0.651 1.11-1.7 1.11-3.15v-8.39c-1.14-0.25-2.26-0.499-3.49-0.488zm0.0781 1.51c0.45 8e-3 0.918 0.0879 1.41 0.174v5.5c-0.995 0.726-1.69 0.763-2.71 0.453-0.758-0.231-1.08-0.807-1.36-1.42-0.167-0.372-0.197-0.95-0.197-1.49 0-0.976 0.178-1.81 0.715-2.35 0.688-0.689 1.39-0.875 2.14-0.861z" style="opacity:.1"/>
 <path d="m14 16-3 11h2l3-11zm13 0-3 11h2l3-11zm5.51 3c-0.704 0.0061-1.34 0.12-1.9 0.361-0.561 0.229-1.04 0.555-1.43 0.977-0.382 0.41-0.674 0.904-0.877 1.48-0.203 0.567-0.305 1.19-0.305 1.88 0 0.784 0.108 1.46 0.322 2.03 0.215 0.567 0.507 1.04 0.877 1.43 0.37 0.374 0.8 0.651 1.29 0.832 1.27 0.442 2.4 0.231 3.51-0.326v0.398c0 0.868 0 1.58-0.309 1.9-0.43 0.398-1.14 0.596-2.13 0.596-0.525 0-1.03-0.0536-1.52-0.162-0.477-0.0964-0.883-0.211-1.22-0.344l-0.305 1.46c0.382 0.133 0.829 0.247 1.34 0.344 0.525 0.0964 1.08 0.145 1.66 0.145 1.5 0 2.63-0.326 3.37-0.977 0.74-0.651 1.11-1.7 1.11-3.15v-8.39c-1.14-0.25-2.26-0.499-3.49-0.488zm1.49 1.68v5.5c-0.995 0.726-1.69 0.763-2.71 0.453-0.758-0.231-1.08-0.807-1.36-1.42-0.167-0.372-0.197-0.95-0.197-1.49 0-0.976 0.178-1.81 0.715-2.35 1.1-1.1 2.23-0.917 3.55-0.688z" style="fill:#474747"/>
 <path d="m16 16 3 11h2l-3-11zm5 11h2v-2h-2z" style="fill:#f9f9f9"/>
</svg>
