<svg version="1.1" viewBox="0 0 48 48" xmlns="http://www.w3.org/2000/svg">
 <defs>
  <linearGradient id="bg" x1="1" x2="47" gradientTransform="translate(-48)" gradientUnits="userSpaceOnUse">
   <stop style="stop-color:#e4e4e4" offset="0"/>
   <stop style="stop-color:#eee" offset="1"/>
  </linearGradient>
 </defs>
 <path d="m1 43v0.25c0 2.22 1.78 4 4 4h38c2.22 0 4-1.78 4-4v-0.25c0 2.22-1.78 4-4 4h-38c-2.22 0-4-1.78-4-4zm0 0.5v0.5c0 2.22 1.78 4 4 4h38c2.22 0 4-1.78 4-4v-0.5c0 2.22-1.78 4-4 4h-38c-2.22 0-4-1.78-4-4z" style="opacity:.02"/>
 <path d="m1 43.2v0.25c0 2.22 1.78 4 4 4h38c2.22 0 4-1.78 4-4v-0.25c0 2.22-1.78 4-4 4h-38c-2.22 0-4-1.78-4-4z" style="opacity:.05"/>
 <path d="m1 43v0.25c0 2.22 1.78 4 4 4h38c2.22 0 4-1.78 4-4v-0.25c0 2.22-1.78 4-4 4h-38c-2.22 0-4-1.78-4-4z" style="opacity:.1"/>
 <rect transform="rotate(-90)" x="-47" y="1" width="46" height="46" rx="4" style="fill:url(#bg)"/>
 <path d="m11.5 13c-0.297 0.031-0.531 0.297-0.531 0.594v10.8c0 0.316 0.277 0.594 0.594 0.594h5.41v2h-4v2h7v-6h-6.56c-0.211 0-0.41-0.195-0.41-0.41v-7.18c-4e-3 -0.188 0.128-0.371 0.312-0.406 0.023-4e-3 0.0658-4e-3 0.0938 0h11.1c0.207 0 0.406 0.191 0.406 0.406v2.59h2.03v-4.41c0-0.313-0.281-0.594-0.594-0.594h-14.9zm10 6c-0.293 0.031-0.539 0.305-0.539 0.598v10.8c0 0.313 0.289 0.6 0.602 0.6h5.4v1.99h-4v2h12v-2h-4v-1.99h5.4c0.313 0 0.598-0.287 0.598-0.6v-10.8c0-0.316-0.289-0.598-0.598-0.598h-14.9zm1.81 2c0.023-4e-3 0.0472-4e-3 0.0742 0h11.1c0.211 0 0.402 0.191 0.402 0.402v7.2c0 0.207-0.191 0.398-0.402 0.398h-11.1c-0.211 0-0.402-0.191-0.402-0.398v-7.2c-4e-3 -0.188 0.145-0.367 0.328-0.402z" style="opacity:.1"/>
 <path d="m11.5 12c-0.297 0.031-0.531 0.297-0.531 0.594v10.8c0 0.316 0.277 0.594 0.594 0.594h5.41v2h-4v2h7v-6h-6.56c-0.211 0-0.41-0.195-0.41-0.41v-7.18c-4e-3 -0.188 0.129-0.371 0.313-0.406 0.023-4e-3 0.066-4e-3 0.094 0h11.1c0.207 0 0.406 0.191 0.406 0.406v2.59h2.03v-4.41c0-0.313-0.281-0.594-0.594-0.594" style="fill:#c0274b"/>
 <path d="m21.5 18c-0.293 0.031-0.539 0.305-0.539 0.598v10.8c0 0.313 0.289 0.6 0.602 0.6h5.4v1.99h-4v2h12v-2h-4v-1.99h5.4c0.313 0 0.598-0.287 0.598-0.6v-10.8c0-0.316-0.289-0.598-0.598-0.598h-14.9zm1.81 2c0.023-4e-3 0.0472-4e-3 0.0742 0h11.1c0.211 0 0.402 0.191 0.402 0.402v7.2c0 0.207-0.191 0.398-0.402 0.398h-11.1c-0.211 0-0.402-0.191-0.402-0.398v-7.2c-4e-3 -0.188 0.145-0.367 0.328-0.402z" style="fill:#334566"/>
 <path d="m1 39v4c0 2.22 1.78 4 4 4h38c2.22 0 4-1.78 4-4v-4c0 2.22-1.78 4-4 4h-38c-2.22 0-4-1.78-4-4z" style="opacity:.1"/>
</svg>
