<svg width="48" height="48" version="1.1" viewBox="0 0 48 48" xmlns="http://www.w3.org/2000/svg">
 <defs>
  <linearGradient id="linearGradient4501" x1="-47" x2="-1" y1="2.8779e-15" y2="6.1232e-17" gradientUnits="userSpaceOnUse">
   <stop stop-color="#cf824f" offset="0"/>
   <stop stop-color="#d38d5f" offset="1"/>
  </linearGradient>
 </defs>
 <g transform="translate(0 3.949e-5)">
  <path d="m1 43v0.25c0 2.216 1.784 4 4 4h38c2.216 0 4-1.784 4-4v-0.25c0 2.216-1.784 4-4 4h-38c-2.216 0-4-1.784-4-4zm0 0.5v0.5c0 2.216 1.784 4 4 4h38c2.216 0 4-1.784 4-4v-0.5c0 2.216-1.784 4-4 4h-38c-2.216 0-4-1.784-4-4z" opacity=".02"/>
  <path d="m1 43.25v0.25c0 2.216 1.784 4 4 4h38c2.216 0 4-1.784 4-4v-0.25c0 2.216-1.784 4-4 4h-38c-2.216 0-4-1.784-4-4z" opacity=".05"/>
  <path d="m1 43v0.25c0 2.216 1.784 4 4 4h38c2.216 0 4-1.784 4-4v-0.25c0 2.216-1.784 4-4 4h-38c-2.216 0-4-1.784-4-4z" opacity=".1"/>
 </g>
 <rect transform="rotate(-90)" x="-47" y="1" width="46" height="46" rx="4" fill="url(#linearGradient4501)"/>
 <path d="m26.441 13.561c-0.55078-0.029297-1.0664 0.064453-1.4414 0.43945-2 2-6.5091 4.66-9 6-2.6595 1.4307-2.6846 2.7982 0 4-2.9192 1.1049-2.4055 3.0233 0 4-2.0252 0.984-2.7781 2.7786-1 4 1.2866 0.88377 7 1 9 1s7.4957-0.089 9-1c1.8031-1.092 1.0011-3.0781-1-4 2.5518-0.87596 2.7877-2.7553 0-4 2.4-0.96954 2.9236-2.8832 0-4-2.975-1.1937-5.7921-1.5102-8.2402-1.373 1.8524-0.72715 3.7836-1.389 4.2402-1.627 1-0.5212 3-1 3-2s-1-1-2-1c-0.625 0-1.6406-0.39062-2.5586-0.43945z" style="opacity:.1"/>
 <g transform="translate(0 3.949e-5)">
  <g transform="translate(0 -1004.4)">
   <path d="m1 1043.4v4c0 2.216 1.784 4 4 4h38c2.216 0 4-1.784 4-4v-4c0 2.216-1.784 4-4 4h-38c-2.216 0-4-1.784-4-4z" opacity=".1"/>
  </g>
 </g>
 <path d="m16 27c-2.0252 0.984-2.7781 2.7786-1 4 1.2866 0.88377 7 1 9 1s7.4957-0.089 9-1c1.8031-1.092 1.0011-3.0781-1-4" style="fill:#fc0"/>
 <path d="m16 27c-0.33114 0.1609-0.61349 0.34868-0.87109 0.54688 0.25498 0.16509 0.54078 0.319 0.87109 0.45312 2.0718 0.84124 6 1 8 1s5.8851-0.274 8-1c0.35332-0.12129 0.65142-0.26646 0.91406-0.42188-0.26867-0.21525-0.56492-0.41727-0.91406-0.57812h-16z" style="opacity:.1"/>
 <path d="m16 23c-2.9192 1.1049-2.4055 3.0233 0 4 2.0718 0.84124 6 1 8 1s5.8851-0.274 8-1c2.5518-0.87596 2.7877-2.7553 0-4" style="fill:#ffd11a"/>
 <path d="m16 23c-0.38212 0.14463-0.70277 0.30409-0.9707 0.47266 0.27355 0.17862 0.58621 0.35522 0.9707 0.52734 2.0409 0.91363 6 1 8 1s5.9267-0.16245 8-1c0.35544-0.14359 0.65385-0.31284 0.92188-0.49219-0.25947-0.17696-0.56453-0.34826-0.92188-0.50781h-16z" style="opacity:.1"/>
 <path d="m26.441 12.561c-0.55078-0.029297-1.0664 0.064453-1.4414 0.43945-2 2-6.5091 4.66-9 6-2.6595 1.4307-2.6846 2.7982 0 4 2.0409 0.91363 6 1 8 1s5.9267-0.16245 8-1c2.4-0.96954 2.9236-2.8832 0-4-2.975-1.1937-5.7921-1.5102-8.2402-1.373 1.8524-0.72715 3.7836-1.389 4.2402-1.627 1-0.5212 3-1 3-2s-1-1-2-1c-0.625 0-1.6406-0.39062-2.5586-0.43945z" style="fill:#ffd62f"/>
 <circle cx="26.5" cy="13.5" r=".5" fill="#540"/>
 <path d="m25.379 17.598c-0.5578-0.017115-1.0937-1.36e-4 -1.6191 0.029297-2.2043 0.86531-4.3031 1.8297-3.7598 2.373 0.075059 0.075059 0.23263 0.14302 0.42578 0.20703 0.00118 3.91e-4 0.002723-3.9e-4 0.003907 0 0.16351 0.053994 0.40254 0.099055 0.63281 0.14453 0.1474 0.028962 0.28761 0.058708 0.45703 0.083985 0.21905 0.032802 0.4609 0.061562 0.70898 0.087891 0.1943 0.02044 0.39046 0.040343 0.59766 0.05664 0.27374 0.021656 0.55407 0.038666 0.8418 0.052734 0.21596 0.010403 0.43142 0.017482 0.65039 0.023438 0.26663 0.00737 0.5325 0.013182 0.79688 0.013672 0.26257 2.9e-4 0.51659-0.004956 0.76953-0.011719 0.22186-0.005847 0.44312-0.011938 0.65234-0.023437 0.29698-0.0165 0.56285-0.043939 0.82227-0.072266 0.15335-0.016755 0.32272-0.027762 0.45898-0.048828 0.064138-0.009908 0.12175-0.022327 0.18164-0.033203 0.27364-0.049831 0.5109-0.10685 0.67773-0.17774 0.060859-0.025794 0.10437-0.055306 0.14844-0.083984 0.027554-0.017964 0.065406-0.033619 0.085937-0.052734 0.055189-0.051277 0.087891-0.10629 0.087891-0.16602 0-0.0625-0.020264-0.12085-0.056641-0.17578-0.54565-0.82398-4.8809-0.82422-3.9434-0.82422-0.93702 0-1.6074 0.020555-2.2656 0.042969 1.1988-0.50545 2.5166-0.99082 3.5664-1.3789-0.30873-0.02454-0.62154-0.05719-0.92188-0.066406z" style="opacity:.1"/>
 <path d="m25 19c-0.93702 0-1.6074 0.020555-2.2656 0.042969 0.014596-0.006154 0.030292-0.011431 0.044922-0.017578-1.1525 0.031591-1.9059 0.10417-2.4199 0.2207-0.39704 0.29126-0.56116 0.55212-0.35938 0.75391 0.075059 0.075059 0.23263 0.14302 0.42578 0.20703 0.00118 3.91e-4 0.002723-3.9e-4 0.003907 0 0.16351 0.053994 0.40254 0.099055 0.63281 0.14453 0.1474 0.028962 0.28761 0.058708 0.45703 0.083985 0.21905 0.032802 0.4609 0.061561 0.70898 0.087891 0.1943 0.02044 0.39046 0.040343 0.59766 0.05664 0.27374 0.021656 0.55407 0.038666 0.8418 0.052734 0.21596 0.010404 0.43142 0.017482 0.65039 0.023438 0.26663 0.00737 0.5325 0.013182 0.79688 0.013672 0.26257 2.9e-4 0.51659-0.004956 0.76953-0.011719 0.22186-0.005847 0.44312-0.011938 0.65234-0.023437 0.29698-0.0165 0.56285-0.043939 0.82227-0.072266 0.15335-0.016755 0.32272-0.027762 0.45898-0.048828 0.064138-0.009908 0.12175-0.022327 0.18164-0.033203 0.27364-0.049831 0.5109-0.10685 0.67773-0.17774 0.060859-0.025794 0.10437-0.055306 0.14844-0.083984 0.027554-0.017964 0.065406-0.033619 0.085937-0.052734 0.055189-0.051277 0.087891-0.10629 0.087891-0.16602 0-0.0625-0.020264-0.12085-0.056641-0.17578-0.54565-0.82398-4.8809-0.82422-3.9434-0.82422z" style="opacity:.1"/>
</svg>
