<svg version="1.1" viewBox="0 0 48 48" xmlns="http://www.w3.org/2000/svg">
 <defs>
  <linearGradient id="bg" x2="0" y1="1" y2="47" gradientUnits="userSpaceOnUse">
   <stop style="stop-color:#1f8c9e" offset="0"/>
   <stop style="stop-color:#1c7c8c" offset="1"/>
  </linearGradient>
 </defs>
 <path d="m1 43v0.25c0 2.22 1.78 4 4 4h38c2.22 0 4-1.78 4-4v-0.25c0 2.22-1.78 4-4 4h-38c-2.22 0-4-1.78-4-4zm0 0.5v0.5c0 2.22 1.78 4 4 4h38c2.22 0 4-1.78 4-4v-0.5c0 2.22-1.78 4-4 4h-38c-2.22 0-4-1.78-4-4z" style="opacity:.02"/>
 <path d="m1 43.2v0.25c0 2.22 1.78 4 4 4h38c2.22 0 4-1.78 4-4v-0.25c0 2.22-1.78 4-4 4h-38c-2.22 0-4-1.78-4-4z" style="opacity:.05"/>
 <path d="m1 43v0.25c0 2.22 1.78 4 4 4h38c2.22 0 4-1.78 4-4v-0.25c0 2.22-1.78 4-4 4h-38c-2.22 0-4-1.78-4-4z" style="opacity:.1"/>
 <rect x="1" y="1" width="46" height="46" rx="4" style="fill:url(#bg)"/>
 <path d="m1 39v4c0 2.22 1.78 4 4 4h38c2.22 0 4-1.78 4-4v-4c0 2.22-1.78 4-4 4h-38c-2.22 0-4-1.78-4-4z" style="opacity:.1"/>
 <path d="m12 19v3c0.345 0.0862 0.671 0.188 1 0.287v0.713c-3.7e-5 0.155 0.0361 0.308 0.105 0.447 0 0 0.115 0.212 0.281 0.488l0.613 3.06h1.67l1.33 2 0.707-1.06 0.193 0.258-0.9 1.8h-1l-2 3 6 2 1-2h3v3h5v-2h2v2h3s1.02-2 1-3v-13z" style="opacity:.1"/>
 <path d="m18 29 1-4h14v7h-7z" style="fill:#474747"/>
 <path d="m15 25 2 3 2-3h6l3 3 2-3 1 3 2-2-1-2h-17z" style="fill:#dbdbdb"/>
 <path d="m17 30v-1l1-2 1 2h2l1-2 1 2 3 1 1-2 1 2 2-2v3l2-2v3z" style="fill:#c2c2c2"/>
 <path d="m14 32 6 2 1-2h3v3h5v-2h2v2h3s1.02-2 1-3v-13l-3 1-19 1 1 5h15c2 0 4 1 4 2 0 2 0 3-2 3s-2-2-4-2h-11z" style="fill:#d43c25"/>
 <path d="m17 26 3 4 2-4 3 4 3-4z" style="fill:#f9f9f9"/>
 <path d="m31 18c-0.164 0.0047-0.324 0.0496-0.467 0.131l-7 4c-0.75 0.427-0.644 1.54 0.174 1.82 0 0 0.756 0.256 1.65 0.514 0.894 0.257 1.83 0.539 2.67 0.539 0.833 0 1.53-0.425 2.02-0.918s0.845-1.08 1.12-1.63c0.56-1.12 0.826-2.21 0.826-2.21 0.0196-0.0792 0.0294-0.161 0.0293-0.242v-1c1.84e-4 -0.564-0.466-1.02-1.03-1zm-17 2c-0.545 0.0107-0.981 0.455-0.98 1v1c-3.7e-5 0.155 0.0361 0.308 0.105 0.447 0 0 0.28 0.567 0.719 1.15 0.22 0.293 0.48 0.6 0.816 0.869s0.776 0.531 1.36 0.531c0.843 0 1.61-0.304 2.27-0.572 0.664-0.269 1.19-0.539 1.19-0.539 0.76-0.393 0.708-1.5-0.0859-1.82l-5-2c-0.124-0.05-0.257-0.0745-0.391-0.0723z" style="fill:#51a6a2"/>
 <path d="m31 19-7 4s2.95 1 4 1c2 0 3-4 3-4zm-17 2v1s1 2 2 2c1.05 0 3-1 3-1z" style="fill:#f9f9f9"/>
 <path d="m12 21c4 1 7 3 7 3h4s3-2 9-4l3-1-1-8-6 6v-6l-6 6v-6l-10 7z" style="fill:#e85840"/>
</svg>
