<svg version="1.1" viewBox="0 0 48 48" xmlns="http://www.w3.org/2000/svg">
 <defs>
  <linearGradient id="bg" x2="0" y1="1" y2="47" gradientUnits="userSpaceOnUse">
   <stop style="stop-color:#1a7382" offset="0"/>
   <stop style="stop-color:#176471" offset="1"/>
  </linearGradient>
 </defs>
 <path d="m1 43v0.25c0 2.216 1.784 4 4 4h38c2.216 0 4-1.784 4-4v-0.25c0 2.216-1.784 4-4 4h-38c-2.216 0-4-1.784-4-4zm0 0.5v0.5c0 2.216 1.784 4 4 4h38c2.216 0 4-1.784 4-4v-0.5c0 2.216-1.784 4-4 4h-38c-2.216 0-4-1.784-4-4z" style="opacity:.02"/>
 <path d="m1 43.25v0.25c0 2.216 1.784 4 4 4h38c2.216 0 4-1.784 4-4v-0.25c0 2.216-1.784 4-4 4h-38c-2.216 0-4-1.784-4-4z" style="opacity:.05"/>
 <path d="m1 43v0.25c0 2.216 1.784 4 4 4h38c2.216 0 4-1.784 4-4v-0.25c0 2.216-1.784 4-4 4h-38c-2.216 0-4-1.784-4-4z" style="opacity:.1"/>
 <rect x="1" y="1" width="46" height="46" rx="4" style="fill:url(#bg)"/>
 <path d="m1 39v4c0 2.216 1.784 4 4 4h38c2.216 0 4-1.784 4-4v-4c0 2.216-1.784 4-4 4h-38c-2.216 0-4-1.784-4-4z" style="opacity:.1"/>
 <path d="m22 12-10 7v3c0.34502 0.08625 0.67114 0.1879 1 0.28711v0.71289a1.0001 1.0001 0 0 0 0.10547 0.44727s0.11536 0.21214 0.28125 0.48828l0.61328 3.0645h1.666l1.334 2 0.70703-1.0586 0.19336 0.25781-0.90039 1.8008h-1l-2 3 6 2 1-2h3v3h5v-2h2v2h3s1.022-2.0002 1-3v-13l-1-8-6 6v-6l-6 6z" style="opacity:.1"/>
 <path d="m18 29 1-4h14v7h-7z" style="fill:#2d2d2d"/>
 <path d="m15 25 2 3 2-3h6l3 3 2-3 1 3 2-2-1-2h-17z" style="fill:#dbdbdb"/>
 <path d="m17 30v-1l1-2 1 2h2l1-2 1 2 3 1 1-2 1 2 2-2v3l2-2v3z" style="fill:#c2c2c2"/>
 <path d="m14 32 6 2 1-2h3v3h5v-2h2v2h3s1.022-2.0002 1-3v-13l-3 1-19 1 1 5h15c2 0 4 1 4 2 0 2 0 3-2 3s-2-2-4-2h-11z" style="fill:#ce321a"/>
 <path d="m17 26 3 4 2-4 3 4 3-4z" style="fill:#f9f9f9"/>
 <path d="m30.971 18c-0.16398 0.0047-0.32428 0.04962-0.4668 0.13086l-7 4c-0.75001 0.42688-0.64353 1.5395 0.17383 1.8164 0 0 0.7563 0.25623 1.6504 0.51367 0.89409 0.25744 1.8286 0.53906 2.6719 0.53906 0.83333 0 1.5267-0.42512 2.0195-0.91797s0.84519-1.0751 1.125-1.6348c0.55963-1.1193 0.82617-2.2051 0.82617-2.2051 0.01961-0.07923 0.02945-0.16057 0.0293-0.24219v-1c1.84e-4 -0.56391-0.46563-1.0165-1.0293-1zm-16.99 2c-0.54462 0.01069-0.98052 0.45528-0.98047 1v1c-3.7e-5 0.15525 0.03607 0.30838 0.10547 0.44727 0 0 0.27975 0.56701 0.71875 1.1523 0.2195 0.29267 0.48046 0.60038 0.81641 0.86914s0.77604 0.53125 1.3594 0.53125c0.84327 0 1.6055-0.30375 2.2695-0.57227 0.66402-0.26851 1.1875-0.53906 1.1875-0.53906 0.76034-0.39284 0.70809-1.4971-0.08594-1.8164l-5-2c-0.12406-0.04997-0.25689-0.07454-0.39062-0.07227z" style="fill:#51a6a2"/>
 <path d="m31 19-7 4s2.9459 1 4 1c2 0 3-4 3-4zm-17 2v1s1 2 2 2c1.0541 0 3-1 3-1z" style="fill:#f9f9f9"/>
 <path d="m12 21c4 1 7 3 7 3h4s3-2 9-4l3-1-1-8-6 6v-6l-6 6v-6l-10 7z" style="fill:#e54a31"/>
</svg>
