<svg xmlns="http://www.w3.org/2000/svg" version="1.1" viewBox="0 0 48 48">
 <defs>
  <linearGradient id="bg" x2="0" y1="1" y2="47" gradientUnits="userSpaceOnUse">
   <stop style="stop-color:#4a4a4a" offset="0"/>
   <stop style="stop-color:#404040" offset="1"/>
  </linearGradient>
 </defs>
 <path style="opacity:.02" d="m1 43v0.25c0 2.216 1.784 4 4 4h38c2.216 0 4-1.784 4-4v-0.25c0 2.216-1.784 4-4 4h-38c-2.216 0-4-1.784-4-4zm0 0.5v0.5c0 2.216 1.784 4 4 4h38c2.216 0 4-1.784 4-4v-0.5c0 2.216-1.784 4-4 4h-38c-2.216 0-4-1.784-4-4z"/>
 <path style="opacity:.05" d="m1 43.25v0.25c0 2.216 1.784 4 4 4h38c2.216 0 4-1.784 4-4v-0.25c0 2.216-1.784 4-4 4h-38c-2.216 0-4-1.784-4-4z"/>
 <path style="opacity:.1" d="m1 43v0.25c0 2.216 1.784 4 4 4h38c2.216 0 4-1.784 4-4v-0.25c0 2.216-1.784 4-4 4h-38c-2.216 0-4-1.784-4-4z"/>
 <rect style="fill:url(#bg)" rx="4" height="46" width="46" y="1" x="1"/>
 <path style="opacity:.1" d="m1 39v4c0 2.216 1.784 4 4 4h38c2.216 0 4-1.784 4-4v-4c0 2.216-1.784 4-4 4h-38c-2.216 0-4-1.784-4-4z"/>
 <path style="opacity:.1" d="m23.822 8.996c-5.629 0.07-10.522 3.23-13.03 7.875l1.531 0.813c0.992-1.84 2.418-3.406 4.125-4.594l1.281 1.438c1.754-1.164 3.836-1.865 6.094-1.904l-0.002-3.627m0.377 0v3.625c2.062 0.035 3.999 0.602 5.654 1.594l1.813-3.094v-0.002c-2.194-1.308-4.737-2.088-7.467-2.123m7.535 2.143-1.836 3.057a11.5 11.5 0 0 1 4.357 4.803l1.35-0.658c1.248 2.188 1.175 3.3 1.408 4.658 0.238 2.953-0.375 4.488-1 6h-1.781c-0.871 1.777-2.188 3.299-3.816 4.404l2.223 2.846c3.844-2.715 6.375-7.184 6.375-12.25 0-2.355-0.563-4.579-1.531-6.564h-0.004l-0.016 0.004-0.018 0.006 0.047-0.023a15 15 0 0 0 -5.758 -6.281m-7.625 2.357a10.5 10.5 0 0 0 -0.1 0.006v2.494a8 8 0 0 1 8 8 8 8 0 0 1 -1.08 4h1.131a9 9 0 0 1 -3.283 3.629l-0.529-0.848a8 8 0 0 1 -4.238 1.219v1a9 9 0 0 1 -4.77 -1.367l0.535-0.855a8 8 0 0 1 -3.766 -6.777 8 8 0 0 1 3.416 -6.545l-1.439-2.057a10.5 10.5 0 0 0 -2.879 3.037l1.279 0.801a9 9 0 0 0 -1.377 4.764 9 9 0 0 0 0.852 3.799l-1.367 0.639a10.5 10.5 0 0 0 0.76 1.357 10.5 10.5 0 0 0 14.32 3.109l0.021 0.033a10.5 10.5 0 0 0 5.01 -8.937 10.5 10.5 0 0 0 -1.096 -4.635l-1.377 0.672a8.5 9 0 0 0 -0.074 -0.141l-0.033 0.018a9 9 0 0 0 -3.391 -3.619l0.068-0.113 0.73-1.215a10.5 10.5 0 0 0 -5.328 -1.467m-15.07 9.5c-0.023 0.332-0.031 0.66-0.031 1 0 2.219 0.508 4.324 1.375 6.219l1.625-0.75c2.707 5.16 6 7.207 12 7.781v1.75c3.066 0 5.906-0.922 8.281-2.5l-2.219-2.875c-1.754 1.105-3.835 1.75-6.06 1.75-6.285 0-11.375-5.09-11.375-11.375 0-0.34 0.034-0.668 0.063-1h-3.66z"/>
 <path style="fill:#d64936" d="m24.191 7.996v3.625c2.062 0.035 3.9993 0.60175 5.6543 1.5938l1.8125-3.0938v-0.002c-2.194-1.308-4.7368-2.088-7.4668-2.123zm-6.2129 6.3984a10.5 10.5 0 0 0 -2.8789 3.0371l1.2793 0.80078a9 9 0 0 0 -1.376 4.764 9 9 0 0 0 0.852 3.799l-1.368 0.639a10.5 10.5 0 0 0 0.75977 1.3574 10.5 10.5 0 0 0 14.32 3.1094l-1.324-2.124a8 8 0 0 1 -4.24 1.219v1a9 9 0 0 1 -4.7695 -1.3672l0.53516-0.85547a8 8 0 0 1 -3.765 -6.778 8 8 0 0 1 3.416 -6.545zm19.492 2.0391-0.01563 0.0039-2.0098 0.62305c1.427 2.384 1.3215 3.5225 1.5645 4.9395 0.238 2.953-0.375 4.488-1 6h-1.7812c-0.871 1.777-2.1884 3.2973-3.8164 4.4023l2.224 2.848c3.844-2.715 6.375-7.184 6.375-12.25 0-2.355-0.56325-4.5795-1.5312-6.5645h-0.004z"/>
 <path style="fill:#3d9ade" d="m23.814 7.996c-5.629 0.07-10.522 3.23-13.029 7.875l1.5312 0.8125c0.992-1.84 2.418-3.4058 4.125-4.5938l1.2812 1.4375c1.754-1.164 3.8358-1.8653 6.0938-1.9043zm7.9121 2.1445-1.8359 3.0547a11.5 11.5 0 0 1 4.3574 4.8047l3.2363-1.5781a15 15 0 0 0 -5.7578 -6.2812zm-7.625 2.3555a10.5 10.5 0 0 0 -0.09961 0.0059v2.4941a8 8 0 0 1 8 8 8 8 0 0 1 -1.0801 4h1.1309a9 9 0 0 1 -3.2832 3.6289l0.81836 1.3086a10.5 10.5 0 0 0 5.0137 -8.9375 10.5 10.5 0 0 0 -1.0957 -4.6348l-1.373 0.67383a8.5 9 0 0 0 -0.08008 -0.14258l-0.03125 0.01758a9 9 0 0 0 -3.3906 -3.6191l0.06836-0.11328 0.73047-1.2148a10.5 10.5 0 0 0 -5.327 -1.468zm-15.07 9.5c-0.023 0.332-0.0312 0.66-0.0312 1 0 2.219 0.508 4.3238 1.375 6.2188l1.625-0.75c2.707 5.16 6 7.2072 12 7.7812v1.75c3.066 0 5.9062-0.922 8.2812-2.5l-2.219-2.875c-1.754 1.105-3.8346 1.75-6.0586 1.75-6.285 0-11.375-5.09-11.375-11.375 0-0.34 0.0345-0.668 0.0625-1z"/>
</svg>
