<svg version="1.1" viewBox="0 0 48 48" xmlns="http://www.w3.org/2000/svg">
 <defs>
  <linearGradient id="bg" x2="0" y1="1" y2="47" gradientUnits="userSpaceOnUse">
   <stop style="stop-color:#274081" offset="0"/>
   <stop style="stop-color:#223872" offset="1"/>
  </linearGradient>
 </defs>
 <path d="m1 43v0.25c0 2.22 1.78 4 4 4h38c2.22 0 4-1.78 4-4v-0.25c0 2.22-1.78 4-4 4h-38c-2.22 0-4-1.78-4-4zm0 0.5v0.5c0 2.22 1.78 4 4 4h38c2.22 0 4-1.78 4-4v-0.5c0 2.22-1.78 4-4 4h-38c-2.22 0-4-1.78-4-4z" style="opacity:.02"/>
 <path d="m1 43.2v0.25c0 2.22 1.78 4 4 4h38c2.22 0 4-1.78 4-4v-0.25c0 2.22-1.78 4-4 4h-38c-2.22 0-4-1.78-4-4z" style="opacity:.05"/>
 <path d="m1 43v0.25c0 2.22 1.78 4 4 4h38c2.22 0 4-1.78 4-4v-0.25c0 2.22-1.78 4-4 4h-38c-2.22 0-4-1.78-4-4z" style="opacity:.1"/>
 <rect x="1" y="1" width="46" height="46" rx="4" style="fill:url(#bg)"/>
 <path d="m1 39v4c0 2.22 1.78 4 4 4h38c2.22 0 4-1.78 4-4v-4c0 2.22-1.78 4-4 4h-38c-2.22 0-4-1.78-4-4z" style="opacity:.1"/>
 <path d="m24 9-15 15 15 15 15-15z" style="opacity:.1"/>
 <path d="m24 38-15-15 15-6.92 15 6.92z" style="fill:#5579d5"/>
 <path d="m24 8-15 15h30z" style="fill:#7894dd"/>
 <path d="m24 17c-2.21 0-4 1.79-4 4h3c0-0.552 0.448-1 1-1s1 0.448 1 1c0 1-1 1.5-3 2.5v3.5h3v-2c2-1 3-2.18 3-4 0-2.21-1.79-4-4-4zm-0.5 11c-0.828 0-1.5 0.672-1.5 1.5s0.672 1.5 1.5 1.5 1.5-0.672 1.5-1.5-0.672-1.5-1.5-1.5z" style="opacity:.1"/>
 <path d="m24 16c-2.21 0-4 1.79-4 4h3c0-0.552 0.448-1 1-1s1 0.448 1 1c0 1-1 1.5-3 2.5v3.5h3v-2c2-1 3-2.18 3-4 0-2.21-1.79-4-4-4zm-0.5 11c-0.828 0-1.5 0.672-1.5 1.5s0.672 1.5 1.5 1.5 1.5-0.672 1.5-1.5-0.672-1.5-1.5-1.5z" style="fill:#f9f9f9"/>
</svg>
