<svg viewBox="0 0 48 48">
  <defs>
    <linearGradient id="a" x1="1" x2="47" gradientUnits="userSpaceOnUse" gradientTransform="translate(-48 .002)">
      <stop stop-color="#4694c6"/>
      <stop offset="1" stop-color="#569dcb"/>
    </linearGradient>
    <clipPath id="b"/>
    <clipPath id="c"/>
  </defs>
  <path d="M1 43v.25c0 2.216 1.784 4 4 4h38c2.216 0 4-1.784 4-4V43c0 2.216-1.784 4-4 4H5c-2.216 0-4-1.784-4-4zm0 .5v.5c0 2.216 1.784 4 4 4h38c2.216 0 4-1.784 4-4v-.5c0 2.216-1.784 4-4 4H5c-2.216 0-4-1.784-4-4z" opacity=".02"/>
  <path d="M1 43.25v.25c0 2.216 1.784 4 4 4h38c2.216 0 4-1.784 4-4v-.25c0 2.216-1.784 4-4 4H5c-2.216 0-4-1.784-4-4z" opacity=".05"/>
  <path d="M1 43v.25c0 2.216 1.784 4 4 4h38c2.216 0 4-1.784 4-4V43c0 2.216-1.784 4-4 4H5c-2.216 0-4-1.784-4-4z" opacity=".1"/>
  <rect width="46" height="46" x="-47" y="1" rx="4" transform="rotate(-90)" fill="url(#a)"/>
  <g clip-path="url(#b)">
    <path d="M19.2 12.871c1.262-.301 2.375-.449 3.637-.449 3.855 0 6.01 1.797 6.01 4.977 0 3.441-2.707 5.609-7.01 5.609-.258 0-.594 0-1.074-.035l-.223.449c3.426 4.527 7.04 9.05 10.469 13.578 1.742-.113 1.922-.113 2.328-.113.336 0 .336 0 2.672.113v-1c-1.188-.113-1.781-.457-2.262-1.094-2.809-3.691-5.613-7.383-8.422-11.07 2.078-.523 3.039-.934 4.266-1.797 1.93-1.383 2.969-3.254 2.969-5.422 0-3.594-2.598-5.613-7.199-5.613-4.82 0-5.414.113-6.676.113-1.227 0-1.484 0-6.68-.113v1c.508.039 1.551.199 2.055.234 1.707.113 1.945.449 1.945 3.367v16.797c0 2.957-.512 3.434-2.219 3.547-.594.039-1.188.074-1.777.113v.941c2.188-.074 3.484-.109 5.414-.109 1.93 0 3.395.035 5.586.109 0-.371-.133-.57-.133-.941-.594-.039-1.188-.074-1.781-.113-1.707-.113-2.086-.59-2.086-3.547 0-6.508.195-13.02.195-19.527" opacity=".1"/>
  </g>
  <g>
    <g clip-path="url(#c)">
      <path d="M19.2 11.871c1.262-.301 2.375-.449 3.637-.449 3.855 0 6.01 1.797 6.01 4.977 0 3.441-2.707 5.609-7.01 5.609-.258 0-.594 0-1.074-.035l-.223.449c3.426 4.527 7.04 9.05 10.469 13.578 1.742-.113 1.922-.113 2.328-.113.336 0 .336 0 2.672.113v-1c-1.188-.113-1.781-.457-2.262-1.094-2.809-3.691-5.613-7.383-8.422-11.07 2.078-.523 3.039-.934 4.266-1.797 1.93-1.383 2.969-3.254 2.969-5.422 0-3.594-2.598-5.613-7.199-5.613-4.82 0-5.414.113-6.676.113-1.227 0-1.484 0-6.68-.113v1c.508.039 1.551.199 2.055.234 1.707.113 1.945.449 1.945 3.367v16.797c0 2.957-.512 3.434-2.219 3.547-.594.039-1.188.074-1.777.113v.941c2.188-.074 3.484-.109 5.414-.109 1.93 0 3.395.035 5.586.109 0-.371-.133-.57-.133-.941-.594-.039-1.188-.074-1.781-.113-1.707-.113-2.086-.59-2.086-3.547 0-6.508.195-13.02.195-19.527" fill="#f9f9f9"/>
    </g>
  </g>
  <g>
    <path d="M1 38.998v4c0 2.216 1.784 4 4 4h38c2.216 0 4-1.784 4-4v-4c0 2.216-1.784 4-4 4H5c-2.216 0-4-1.784-4-4z" opacity=".1"/>
  </g>
</svg>
