<svg width="48" height="48" version="1.1" viewBox="0 0 48 48.000001" xmlns="http://www.w3.org/2000/svg">
 <defs>
  <linearGradient id="linearGradient4501" x1="-47" x2="-1" y1="2.8779e-15" y2="6.1232e-17" gradientUnits="userSpaceOnUse">
   <stop style="stop-color:#e93131" offset="0"/>
   <stop style="stop-color:#eb4343" offset="1"/>
  </linearGradient>
  <linearGradient id="linearGradient4017" x1="23.295" x2="23.668" y1="36.865" y2="3.621" gradientTransform="matrix(.46513 -.40461 .44898 .35204 1.4398 21.475)" gradientUnits="userSpaceOnUse">
   <stop style="stop-color:#e93131" offset="0"/>
   <stop style="stop-color:#ff4343" offset="1"/>
  </linearGradient>
  <linearGradient id="linear0" x2="0" y1="279.1" y2="268.33" gradientTransform="matrix(2.7972 0 0 2.7972 -332.97 -742.65)" gradientUnits="userSpaceOnUse">
   <stop style="stop-color:#c8c8c8" offset="0"/>
   <stop style="stop-color:#eaeaea" offset="1"/>
  </linearGradient>
 </defs>
 <g transform="translate(0 3.949e-5)">
  <path d="m1 43v0.25c0 2.216 1.784 4 4 4h38c2.216 0 4-1.784 4-4v-0.25c0 2.216-1.784 4-4 4h-38c-2.216 0-4-1.784-4-4zm0 0.5v0.5c0 2.216 1.784 4 4 4h38c2.216 0 4-1.784 4-4v-0.5c0 2.216-1.784 4-4 4h-38c-2.216 0-4-1.784-4-4z" style="opacity:.02"/>
  <path d="m1 43.25v0.25c0 2.216 1.784 4 4 4h38c2.216 0 4-1.784 4-4v-0.25c0 2.216-1.784 4-4 4h-38c-2.216 0-4-1.784-4-4z" style="opacity:.05"/>
  <path d="m1 43v0.25c0 2.216 1.784 4 4 4h38c2.216 0 4-1.784 4-4v-0.25c0 2.216-1.784 4-4 4h-38c-2.216 0-4-1.784-4-4z" style="opacity:.1"/>
 </g>
 <rect transform="rotate(-90)" x="-47" y="1" width="46" height="46" rx="4" style="fill:url(#linearGradient4501)"/>
 <g transform="translate(0 3.949e-5)">
  <g transform="translate(0 -1004.4)">
   <path d="m1 1043.4v4c0 2.216 1.784 4 4 4h38c2.216 0 4-1.784 4-4v-4c0 2.216-1.784 4-4 4h-38c-2.216 0-4-1.784-4-4z" style="opacity:.1"/>
  </g>
 </g>
 <path d="m24 9.004c8.281 0 14.996 6.715 14.996 15 0 8.281-6.715 14.996-14.996 14.996-8.285 0-15-6.715-15-14.996 0-8.285 6.715-15 15-15" style="fill-rule:evenodd;opacity:.1"/>
 <path d="m24 8.004c8.281 0 14.996 6.715 14.996 15 0 8.281-6.715 14.996-14.996 14.996-8.285 0-15-6.715-15-14.996 0-8.285 6.715-15 15-15" style="fill-rule:evenodd;fill:url(#linear0)"/>
 <path d="m34.47 33.684c0.691-0.682 1.313-1.439 1.863-2.241 0.547-0.799 1.023-1.667 1.41-2.569s0.68-1.847 0.883-2.831c0.199-0.983 0.309-2 0.309-3.039h-10.635c0 0.625-0.16 1.226-0.39 1.766-0.227 0.54-0.616 1.026-1.03 1.435l7.594 7.478" style="fill-opacity:.498;fill:#fff"/>
 <path d="m13.496 12.293c-0.688 0.684-1.309 1.44-1.855 2.248-0.547 0.808-1.02 1.674-1.402 2.578-0.387 0.904-0.68 1.851-0.879 2.834-0.203 0.986-0.309 2.01-0.309 3.051h10.664c0-0.629 0.125-1.23 0.359-1.77 0.23-0.544 0.563-1.033 0.973-1.44l-7.539-7.496m-0.012-4e-3" style="fill-opacity:.498;fill:#fff"/>
 <path d="m10.343 29.21c0.75 1.652 1.793 3.133 3.059 4.398l7.558-7.566c-0.359-0.363-0.669-0.801-0.88-1.273" style="fill-opacity:.498;fill:#fff"/>
 <path d="m34.602 12.402-7.562 7.562c0.363 0.363 0.67 0.801 0.885 1.273l9.736-4.445c-0.754-1.648-1.793-3.129-3.059-4.395" style="fill-opacity:.498;fill:#fff"/>
 <path d="m39 23c0 1.353-0.18 2.698-0.535 4l-14.465-4m15 0" style="fill-opacity:.498;fill:#999"/>
 <path d="m9 23c0-1.344 0.18-2.68 0.535-3.973l14.465 3.973m-15 0" style="fill-opacity:.498;fill:#999"/>
 <path d="m 24,8 c 1.344,0 2.68,0.18 3.973,0.535 L 24,23 M 24,8" style="fill-opacity:.498;fill:#ff8dff"/>
 <path d="m24 38c-1.344 0-2.68-0.18-3.973-0.535l3.973-14.465m0 15" style="fill-opacity:.498;fill:#ff8dff"/>
 <path d="m17.07 18.538-1.067 3.38 8 12.09 8-12.09-1.067-3.38-4.915-2.533h-3.993" style="opacity:.1"/>
 <path d="m24 32.779-8-11.85 1.156-3.386 4.889-2.539h3.911l4.889 2.539 1.156 3.386" style="fill:url(#linearGradient4017)"/>
 <path d="m30.933 17.543 1.067 3.386-8 12.08-8-12.08 1.067-3.386 4.889-2.539h4.089m4.658 2.709-1.573-0.821 0.56 1.684 1.911 1.947m-5.644-5.265h-3.911l-2.844 1.481-0.604 1.904 3.04 2.031h4.729l3.04-2.031-0.604-1.904m0.773 2.158-2.907 1.964 0.756 3.216 4.187-3.149zm-3.218 2.091h-4.711l-0.711 3.157h6.133zm-7.484-4.097-1.573 0.821-0.898 2.81 1.911-1.947m12.996 2.963-3.884 2.946-3.205 7.762m-5.79-13.348-2.036 2.031 4.187 3.149 0.756-3.216m5.716 3.665h-6.098l3.049 7.686m-7.307-10.674 7.089 10.707-3.204-7.762" style="fill:#cc2012"/>
</svg>
