<svg version="1.1" viewBox="0 0 48 48" xmlns="http://www.w3.org/2000/svg">
 <defs>
  <linearGradient id="bg" x2="0" y1="1" y2="47" gradientUnits="userSpaceOnUse">
   <stop style="stop-color:#716051" offset="0"/>
   <stop style="stop-color:#645548" offset="1"/>
  </linearGradient>
 </defs>
 <path d="m1 43v0.25c0 2.22 1.78 4 4 4h38c2.22 0 4-1.78 4-4v-0.25c0 2.22-1.78 4-4 4h-38c-2.22 0-4-1.78-4-4zm0 0.5v0.5c0 2.22 1.78 4 4 4h38c2.22 0 4-1.78 4-4v-0.5c0 2.22-1.78 4-4 4h-38c-2.22 0-4-1.78-4-4z" style="opacity:.02"/>
 <path d="m1 43.2v0.25c0 2.22 1.78 4 4 4h38c2.22 0 4-1.78 4-4v-0.25c0 2.22-1.78 4-4 4h-38c-2.22 0-4-1.78-4-4z" style="opacity:.05"/>
 <path d="m1 43v0.25c0 2.22 1.78 4 4 4h38c2.22 0 4-1.78 4-4v-0.25c0 2.22-1.78 4-4 4h-38c-2.22 0-4-1.78-4-4z" style="opacity:.1"/>
 <rect x="1" y="1" width="46" height="46" rx="4" style="fill:url(#bg)"/>
 <path d="m1 39v4c0 2.22 1.78 4 4 4h38c2.22 0 4-1.78 4-4v-4c0 2.22-1.78 4-4 4h-38c-2.22 0-4-1.78-4-4z" style="opacity:.1"/>
 <path d="m13 13h24v18l-6 6h-18z" style="opacity:.1"/>
 <path d="m13 12h24v18l-6 6h-18z" style="fill:#f4dc6c"/>
 <path d="m31 30v6l6-6z" style="opacity:.3"/>
 <path d="m24 16c-1.17 0-2.31 0.275-3.25 0.824-0.941 0.549-1.75 1.48-1.75 2.68 0 0.676 0.283 1.32 0.701 1.77s0.932 0.728 1.48 0.955c1.09 0.454 2.36 0.695 3.58 1 1.22 0.305 2.37 0.674 3.12 1.18s1.13 1.02 1.13 2.1c0 0.667-0.31 1.24-0.922 1.71s-1.53 0.793-2.58 0.793c-2.56 0-3.7-1.6-3.7-1.6a1 1 0 0 0-1.4-0.201 1 1 0 0 0-0.201 1.4s1.86 2.4 5.3 2.4c1.45 0 2.78-0.428 3.8-1.21s1.7-1.96 1.7-3.29c0-1.68-0.869-2.98-2-3.75s-2.48-1.15-3.76-1.47c-1.28-0.32-2.51-0.579-3.29-0.906-0.393-0.164-0.661-0.342-0.789-0.479s-0.158-0.195-0.158-0.395c0-0.306 0.195-0.623 0.754-0.949 0.559-0.326 1.41-0.551 2.25-0.551 0.833 0 1.42 0.204 1.8 0.395 0.381 0.19 0.49 0.312 0.49 0.312a1 1 0 0 0 1.41 0 1 1 0 0 0 0-1.41s-0.391-0.378-1.01-0.688c-0.619-0.31-1.53-0.605-2.7-0.605z" style="fill:#4e4e4b"/>
</svg>
