<svg version="1.1" viewBox="0 0 48 48" xmlns="http://www.w3.org/2000/svg">
 <defs>
  <linearGradient id="bg" x2="0" y1="1" y2="47" gradientUnits="userSpaceOnUse">
   <stop style="stop-color:#47668d" offset="0"/>
   <stop style="stop-color:#405c7f" offset="1"/>
  </linearGradient>
 </defs>
 <path d="m1 43v0.25c0 2.216 1.784 4 4 4h38c2.216 0 4-1.784 4-4v-0.25c0 2.216-1.784 4-4 4h-38c-2.216 0-4-1.784-4-4zm0 0.5v0.5c0 2.216 1.784 4 4 4h38c2.216 0 4-1.784 4-4v-0.5c0 2.216-1.784 4-4 4h-38c-2.216 0-4-1.784-4-4z" style="opacity:.02"/>
 <path d="m1 43.25v0.25c0 2.216 1.784 4 4 4h38c2.216 0 4-1.784 4-4v-0.25c0 2.216-1.784 4-4 4h-38c-2.216 0-4-1.784-4-4z" style="opacity:.05"/>
 <path d="m1 43v0.25c0 2.216 1.784 4 4 4h38c2.216 0 4-1.784 4-4v-0.25c0 2.216-1.784 4-4 4h-38c-2.216 0-4-1.784-4-4z" style="opacity:.1"/>
 <rect x="1" y="1" width="46" height="46" rx="4" style="fill:url(#bg)"/>
 <path d="m1 39v4c0 2.216 1.784 4 4 4h38c2.216 0 4-1.784 4-4v-4c0 2.216-1.784 4-4 4h-38c-2.216 0-4-1.784-4-4z" style="opacity:.1"/>
 <path transform="matrix(1.0016 .052127 -.05249 .99464 2.4166 -1.1004)" d="m31.533 36.914-2.1647-0.40147-1.1534 1.8753-2.0057-0.90784-1.5686 1.5448-1.7301-1.3615-1.8927 1.1245-1.354-1.7359-2.1069 0.63883-0.89926-2.0095-2.1985 0.11606-0.39222-2.1664-2.1624-0.41345 0.13762-2.1973-2.0006-0.91893 0.65947-2.1005-1.7226-1.371 1.143-1.8816-1.3444-1.7434 1.5601-1.5534-0.88812-2.0145 1.8865-1.1349-0.38022-2.1685 2.1033-0.65048 0.14979-2.1965 2.1978-0.12823 0.67108-2.0968 2.1647 0.40147 1.1534-1.8753 2.0057 0.90784 1.5686-1.5448 1.7301 1.3615 1.8927-1.1245 1.354 1.7359 2.1069-0.63883 0.89926 2.0095 2.1985-0.11606 0.39222 2.1664 2.1624 0.41345-0.13762 2.1973 2.0006 0.91893-0.65947 2.1005 1.7226 1.371-1.143 1.8816 1.3444 1.7434-1.5601 1.5534 0.88812 2.0145-1.8865 1.1349 0.38022 2.1685-2.1033 0.65048-0.14979 2.1965-2.1978 0.12823z" style="opacity:.1;paint-order:normal"/>
 <path d="m23.953 8-1.6523 1.4551-1.9609-1.0078-1.2539 1.8047-2.1465-0.51172-0.7832 2.0508-2.207 0.01172-0.26562 2.1777-2.1406 0.53711 0.26562 2.1777-1.9492 1.0293 0.78516 2.0508-1.6445 1.4629 1.2559 1.8047-1.2441 1.8125 1.6523 1.4531-0.76953 2.0547 1.2227 0.63672h2e-3l4.8808 1-2.1426 3 0.16211 1.2598 2.209-2e-3 0.79492 2.0469 2.1426-0.52734 1.2656 1.7988 1.9551-1.0215 1.6602 1.4454 1.6523-1.4551 1.9609 1.0078 1.2539-1.8047 2.1465 0.51172 0.7832-2.0508 2.207-0.01172 0.26562-2.1777 2.1406-0.53711-0.26562-2.1777 1.9492-1.0293-0.78516-2.0508 1.6445-1.4629-1.2559-1.8047 1.2441-1.8125-1.6523-1.4531 0.76953-2.0547-1.9551-1.0176 0.25391-2.1797-2.1445-0.52344-0.2793-2.1758-2.209 2e-3 -0.79492-2.0469-2.1426 0.52734-1.2656-1.7988-1.9551 1.0215z" style="fill:#67c1f5;paint-order:normal"/>
 <path d="m25 12a6 6 0 0 0-6 6 6 6 0 0 0 1 3.3086v6.8242a4 4 0 0 0-2.459 1.8672h-1.541l-2.1426 3 0.12891 1h3.5547a4 4 0 0 0 3.459 2 4 4 0 0 0 4-4 4 4 0 0 0-1.1035-2.752l3.7266-5.8594a6 6 0 0 0 3.377-5.3887 6 6 0 0 0-6-6zm0 2a4 4 0 0 1 4 4 4 4 0 0 1-4 4 4 4 0 0 1-4-4 4 4 0 0 1 4-4zm0 2a2 2 0 0 0-2 2 2 2 0 0 0 2 2 2 2 0 0 0 2-2 2 2 0 0 0-2-2zm-4 13a3 3 0 0 1 3 3 3 3 0 0 1-3 3 3 3 0 0 1-2.2305-1h2.2305c1.108 0 2-0.892 2-2s-0.892-2-2-2h-2.2324a3 3 0 0 1 2.2324-1z" style="opacity:.1"/>
 <path d="m25 11a6 6 0 0 0-6 6 6 6 0 0 0 1 3.3086v6.8242a4 4 0 0 0-2.459 1.8672h-6.4238l0.73242 0.38086-0.25391 2.1797 2.1445 0.52344 0.11719 0.91602h3.6836a4 4 0 0 0 3.459 2 4 4 0 0 0 4-4 4 4 0 0 0-1.1035-2.752l3.7266-5.8594a6 6 0 0 0 3.377-5.3887 6 6 0 0 0-6-6zm0 2a4 4 0 0 1 4 4 4 4 0 0 1-4 4 4 4 0 0 1-4-4 4 4 0 0 1 4-4zm0 2a2 2 0 0 0-2 2 2 2 0 0 0 2 2 2 2 0 0 0 2-2 2 2 0 0 0-2-2zm-4 13a3 3 0 0 1 3 3 3 3 0 0 1-3 3 3 3 0 0 1-2.2305-1h2.2305c1.108 0 2-0.892 2-2s-0.892-2-2-2h-2.2324a3 3 0 0 1 2.2324-1z" style="fill:#364d6a"/>
</svg>
