<svg version="1.1" viewBox="0 0 48 48" xmlns="http://www.w3.org/2000/svg">
 <defs>
  <linearGradient id="bg" x2="0" y1="1" y2="47" gradientUnits="userSpaceOnUse">
   <stop style="stop-color:#9def43" offset="0"/>
   <stop style="stop-color:#93ed31" offset="1"/>
  </linearGradient>
 </defs>
 <path d="m1 43v0.25c0 2.216 1.784 4 4 4h38c2.216 0 4-1.784 4-4v-0.25c0 2.216-1.784 4-4 4h-38c-2.216 0-4-1.784-4-4zm0 0.5v0.5c0 2.216 1.784 4 4 4h38c2.216 0 4-1.784 4-4v-0.5c0 2.216-1.784 4-4 4h-38c-2.216 0-4-1.784-4-4z" style="opacity:.02"/>
 <path d="m1 43.25v0.25c0 2.216 1.784 4 4 4h38c2.216 0 4-1.784 4-4v-0.25c0 2.216-1.784 4-4 4h-38c-2.216 0-4-1.784-4-4z" style="opacity:.05"/>
 <path d="m1 43v0.25c0 2.216 1.784 4 4 4h38c2.216 0 4-1.784 4-4v-0.25c0 2.216-1.784 4-4 4h-38c-2.216 0-4-1.784-4-4z" style="opacity:.1"/>
 <rect x="1" y="1" width="46" height="46" rx="4" style="fill:url(#bg)"/>
 <path d="m1 39v4c0 2.216 1.784 4 4 4h38c2.216 0 4-1.784 4-4v-4c0 2.216-1.784 4-4 4h-38c-2.216 0-4-1.784-4-4z" style="opacity:.1"/>
 <path d="m16 12-4 4v4l8-8zm-4 12 4 4v4h4l4 4 4-4h4v-4l4-4-12-12-12 12zm24-4v-4l-4-4h-4zm-4 12-4 4h4l4-4v-4zm-16 0-4-4v4l4 4h4zm4-12h8v8h-8v-4zm0 4 4 4 4-4-4-4z" style="opacity:.1"/>
 <path d="m24 11-12 12 12 12 12-12zm-5 7h10v10h-10z" style="fill:#055d8a"/>
 <path d="m24 19 4 4-4 4-4-4z" style="fill:#0a83c2"/>
 <path d="m16 11-4 4v4l8-8zm12 0 8 8v-4l-4-4zm-16 16v4l4 4h4zm24 0-8 8h4l4-4z" style="fill:#043d5c"/>
 <path d="m17 28 4 4h6l4-4h-14zm-1 3v1h1l-1-1zm16 0-1 1h1v-1z" style="opacity:.1"/>
 <path d="m16 15v16h16v-16zm4 4h8v8h-8z" style="fill:#f1653c"/>
</svg>
