<svg version="1.1" viewBox="0 0 48 48" xmlns="http://www.w3.org/2000/svg">
 <defs>
  <linearGradient id="bg" x1="-47" x2="-1" y1="2.8779e-15" y2="6.1232e-17" gradientUnits="userSpaceOnUse">
   <stop style="stop-color:#e93535" offset="0"/>
   <stop style="stop-color:#eb4747" offset="1"/>
  </linearGradient>
 </defs>
 <g transform="translate(0 3.949e-5)">
  <path d="m1 43v0.25c0 2.216 1.784 4 4 4h38c2.216 0 4-1.784 4-4v-0.25c0 2.216-1.784 4-4 4h-38c-2.216 0-4-1.784-4-4zm0 0.5v0.5c0 2.216 1.784 4 4 4h38c2.216 0 4-1.784 4-4v-0.5c0 2.216-1.784 4-4 4h-38c-2.216 0-4-1.784-4-4z" style="opacity:.02"/>
  <path d="m1 43.25v0.25c0 2.216 1.784 4 4 4h38c2.216 0 4-1.784 4-4v-0.25c0 2.216-1.784 4-4 4h-38c-2.216 0-4-1.784-4-4z" style="opacity:.05"/>
  <path d="m1 43v0.25c0 2.216 1.784 4 4 4h38c2.216 0 4-1.784 4-4v-0.25c0 2.216-1.784 4-4 4h-38c-2.216 0-4-1.784-4-4z" style="opacity:.1"/>
 </g>
 <rect transform="rotate(-90)" x="-47" y="1" width="46" height="46" rx="4" style="fill:url(#bg)"/>
 <g transform="translate(0 3.949e-5)">
  <g transform="translate(0 -1004.4)">
   <path d="m1 1043.4v4c0 2.216 1.784 4 4 4h38c2.216 0 4-1.784 4-4v-4c0 2.216-1.784 4-4 4h-38c-2.216 0-4-1.784-4-4z" style="opacity:.1"/>
  </g>
 </g>
 <path d="m23.28 19.657-0.52086-0.02126-1.4705 0.8185-1.1232-1.2331-8.7059 0.9815-0.46063 3.4512h0.41457l0.29764 0.83622h0.43228s0.22677 0.93189 0.48189 1.761c-1.0807 0.53504-1.2331 0.98149-1.024 2.0445 0.40748 2.0622 3.3059 4.702 4.3972 4.702h17.199c2.1437 0 3.4405-2.5653 3.7453-3.8905 0.09213-0.40039 0.0815-0.75118 0.0248-1.1339-0.05315-0.38268-0.35433-0.81496-0.56338-0.99212-0.63071-0.52086-0.91771-0.5563-2.5335-0.5563-0.55984-0.52441-2.413-1.8602-2.413-1.8602l-8.4401-0.44646 0.40039-0.9248-0.88582-1.102 1.1374-0.93543 0.19134-0.48189 7.6677-5.4709 0.64134-0.06732 1.474-1.1657-0.76181-0.96732-1.6051 0.99212-0.22323 0.6059zm-8.4331 11.583c0.07087 0.27638 0.16654 0.46772 0.29764 0.72992-0.35787-0.25512-0.70512-0.51024-1.0559-0.7937m21.079 0.13464c-0.30118 0.3437-0.67677 0.60236-1.2508 0.9248 0.33307-0.37559 0.36496-0.62008 0.40748-0.9248m-12.827 0.59527c0.16299 0.27992 0.15236 0.4748 0.41811 0.6874-0.42165 0-0.83976 0-1.2614-0.0071 0.26575-0.18425 0.50315-0.42165 0.67323-0.68031m3.4228 0.01063c0.1878 0.29409 0.2374 0.48898 0.4748 0.6626-0.31181 0-0.72283 0.01063-1.2472 0.01417 0.2374-0.1878 0.44291-0.41457 0.59882-0.67677m-6.3779 0c0.35079 0.45354 0.29409 0.49961 0.48898 0.67323-0.42165 0-0.8433 0-1.265 0.0071 0.4252-0.35433 0.44646-0.45 0.59882-0.68031m13.252 0.0071c0.13819 0.31181 0.20197 0.43228 0.46417 0.67323-0.4252 0.01063-0.72283 0-1.148 0 0.28701-0.24449 0.41457-0.45709 0.54212-0.67323m-3.8728 0.67323c0.23386-0.19842 0.38268-0.38976 0.54212-0.6874h0.13819c0.19488 0.40748 0.39685 0.57401 0.52795 0.6874" style="opacity:.1"/>
 <path d="m23.281 18.658-0.52086-0.02126-1.4705 0.8185-1.1232-1.2331-8.7059 0.98149-0.46063 3.4512h0.41457l0.29764 0.83622h0.43228s0.22677 0.93189 0.48189 1.761c-1.0807 0.53504-1.2331 0.98149-1.024 2.0445 0.40748 2.0622 3.3059 4.702 4.3972 4.702h17.199c2.1437 0 3.4405-2.5653 3.7453-3.8905 0.09213-0.40039 0.0815-0.75118 0.0248-1.1339-0.05315-0.38268-0.35433-0.81496-0.56338-0.99212-0.63071-0.52086-0.91771-0.5563-2.5335-0.5563-0.55984-0.52441-2.413-1.8602-2.413-1.8602l-8.4401-0.44646 0.40039-0.9248-0.88582-1.102 1.1374-0.93543 0.19134-0.48189 7.6677-5.4709 0.64134-0.06732 1.474-1.1657-0.76181-0.96732-1.6051 0.99212-0.22323 0.6059m-16.207 16.639c0.07087 0.27638 0.16654 0.46772 0.29764 0.72992-0.35787-0.25512-0.70512-0.51024-1.0559-0.7937m21.079 0.13464c-0.30118 0.3437-0.67677 0.60236-1.2508 0.9248 0.33307-0.37559 0.36496-0.62008 0.40748-0.9248m-12.827 0.59528c0.16299 0.27992 0.15236 0.4748 0.41811 0.6874-0.42165 0-0.83976 0-1.2614-0.0071 0.26575-0.18425 0.50315-0.42165 0.67323-0.68031m3.4228 0.01063c0.18779 0.29409 0.2374 0.48898 0.4748 0.6626-0.31181 0-0.72283 0.01063-1.2472 0.01417 0.2374-0.1878 0.44291-0.41457 0.59882-0.67677m-6.3779 0c0.35079 0.45354 0.29409 0.4996 0.48898 0.67323-0.42165 0-0.8433 0-1.265 0.0071 0.4252-0.35433 0.44646-0.45 0.59882-0.68031m13.252 0.0071c0.13819 0.31181 0.20197 0.43228 0.46417 0.67323-0.4252 0.01063-0.72283 0-1.148 0 0.28701-0.24449 0.41457-0.45708 0.54212-0.67323m-3.8728 0.67323c0.23386-0.19842 0.38268-0.38976 0.54212-0.6874h0.13819c0.19488 0.40748 0.39685 0.57402 0.52795 0.6874" style="fill:#32323e"/>
</svg>
