<svg style="" version="1.1" viewBox="0 0 48 48" xmlns="http://www.w3.org/2000/svg">
 <defs style="">
  <linearGradient id="bg" x1="1" x2="47" style="" gradientTransform="translate(-48 .002215)" gradientUnits="userSpaceOnUse">
   <stop style="stop-color:#dfe3dd" offset="0"/>
   <stop style="stop-color:#e9ece8" offset="1"/>
  </linearGradient>
 </defs>
 <path d="m1 43v0.25c0 2.216 1.784 4 4 4h38c2.216 0 4-1.784 4-4v-0.25c0 2.216-1.784 4-4 4h-38c-2.216 0-4-1.784-4-4zm0 0.5v0.5c0 2.216 1.784 4 4 4h38c2.216 0 4-1.784 4-4v-0.5c0 2.216-1.784 4-4 4h-38c-2.216 0-4-1.784-4-4z" style="opacity:.02"/>
 <path d="m1 43.25v0.25c0 2.216 1.784 4 4 4h38c2.216 0 4-1.784 4-4v-0.25c0 2.216-1.784 4-4 4h-38c-2.216 0-4-1.784-4-4z" style="opacity:.05"/>
 <path d="m1 43v0.25c0 2.216 1.784 4 4 4h38c2.216 0 4-1.784 4-4v-0.25c0 2.216-1.784 4-4 4h-38c-2.216 0-4-1.784-4-4z" style="opacity:.1"/>
 <rect transform="rotate(-90)" x="-47" y="1" width="46" height="46" rx="4" style="fill:url(#bg)"/>
 <g transform="translate(0,1)" style="opacity:.1">
  <path d="m12 11v24l6-0.0039c0.551 0 1-0.445 1-1 0-0.551-0.449-1-1-1l-4 0.0039v-20l4-0.0039c0.551-5.38e-4 1-0.445 1-1 0-0.551-0.449-1.0004-1-1z"/>
  <path d="m30 10.996c-0.551 0-1 0.449-1 1 0 0.555 0.449 1 1 1h4v20h-4c-0.551 0-1 0.449-1 1 0 0.555 0.449 0.99964 1 1l6 0.003906v-24s-3.9986-0.0039-6-0.0039z"/>
 </g>
 <g style="fill:#de7f19">
  <path d="m12 11v24l6-0.0039c0.551 0 1-0.445 1-1 0-0.551-0.449-1-1-1l-4 0.0039v-20l4-0.0039c0.551-5.38e-4 1-0.445 1-1 0-0.551-0.449-1.0004-1-1z"/>
  <path d="m30 10.996c-0.551 0-1 0.449-1 1 0 0.555 0.449 1 1 1h4v20h-4c-0.551 0-1 0.449-1 1 0 0.555 0.449 0.99964 1 1l6 0.003906v-24s-3.9986-0.0039-6-0.0039z"/>
 </g>
 <path d="m1 39v4c0 2.216 1.784 4 4 4h38c2.216 0 4-1.784 4-4v-4c0 2.216-1.784 4-4 4h-38c-2.216 0-4-1.784-4-4z" style="opacity:.1"/>
</svg>
