<svg viewBox="0 0 48 48" xmlns="http://www.w3.org/2000/svg" xmlns:xlink="http://www.w3.org/1999/xlink">
 <defs>
  <linearGradient id="linearGradient3764" x1="1" x2="47" gradientTransform="translate(-48 .0022147)" gradientUnits="userSpaceOnUse">
   <stop stop-color="#555d67" offset="0"/>
   <stop stop-color="#5e6772" offset="1"/>
  </linearGradient>
  <clipPath id="clipPath-472544248">
   <g transform="translate(0 -1004.4)">
    <rect x="1" y="1005.4" width="46" height="46" rx="4" fill="#1890d0"/>
   </g>
  </clipPath>
  <clipPath id="clipPath-485612327">
   <g transform="translate(0 -1004.4)">
    <rect x="1" y="1005.4" width="46" height="46" rx="4" fill="#1890d0"/>
   </g>
  </clipPath>
  <path id="SVGCleanerId_0" d="m15 13h18c1.105 0 2 0.895 2 2v18c0 1.105-0.895 2-2 2h-18c-1.105 0-2-0.895-2-2v-18c0-1.105 0.895-2 2-2"/>
 </defs>
 <g>
  <path d="m1 43v0.25c0 2.216 1.784 4 4 4h38c2.216 0 4-1.784 4-4v-0.25c0 2.216-1.784 4-4 4h-38c-2.216 0-4-1.784-4-4zm0 0.5v0.5c0 2.216 1.784 4 4 4h38c2.216 0 4-1.784 4-4v-0.5c0 2.216-1.784 4-4 4h-38c-2.216 0-4-1.784-4-4z" opacity=".02"/>
  <path d="m1 43.25v0.25c0 2.216 1.784 4 4 4h38c2.216 0 4-1.784 4-4v-0.25c0 2.216-1.784 4-4 4h-38c-2.216 0-4-1.784-4-4z" opacity=".05"/>
  <path d="m1 43v0.25c0 2.216 1.784 4 4 4h38c2.216 0 4-1.784 4-4v-0.25c0 2.216-1.784 4-4 4h-38c-2.216 0-4-1.784-4-4z" opacity=".1"/>
 </g>
 <g>
  <rect transform="rotate(-90)" x="-47" y="1" width="46" height="46" rx="4" fill="url(#linearGradient3764)"/>
 </g>
 <g>
  <g clip-path="url(#clipPath-472544248)">
   <g opacity=".1">
    <g>
     <g>
      <use stroke="#af8566" stroke-width="2" xlink:href="#SVGCleanerId_0"/>
      <g>
       <use xlink:href="#SVGCleanerId_0"/>
       <path d="m13 16h22v1h-22m0-1"/>
       <path d="m13 19h22v1h-22m0-1"/>
       <path d="m13 22h22v1h-22m0-1"/>
       <path d="m13 25h22v1h-22m0-1"/>
       <path d="m13 28h22v1h-22m0-1"/>
       <path d="m18 13h1v22h-1m0-22"/>
      </g>
      <path d="m18 34h1v1h-1m0-1" fill-opacity=".702"/>
      <path d="m18 32h1v2h-1m0-2" fill-opacity=".702"/>
     </g>
    </g>
   </g>
  </g>
 </g>
 <g>
  <g clip-path="url(#clipPath-485612327)">
   <g transform="translate(0,-1)">
    <g>
     <use fill="none" stroke="#af8566" stroke-width="2" xlink:href="#SVGCleanerId_0"/>
     <use fill="#fff4ab" xlink:href="#SVGCleanerId_0"/>
     <g fill="#e4d669">
      <path d="m13 16h22v1h-22m0-1"/>
      <path d="m13 19h22v1h-22m0-1"/>
      <path d="m13 22h22v1h-22m0-1"/>
      <path d="m13 25h22v1h-22m0-1"/>
      <path d="m13 28h22v1h-22m0-1"/>
     </g>
     <g>
      <path d="m18 13h1v22h-1m0-22" fill="#e5b2a9"/>
      <path d="m18 34h1v1h-1m0-1" fill="#b96e5f" fill-opacity=".702"/>
      <path d="m18 32h1v2h-1m0-2" fill="#c87f70" fill-opacity=".702"/>
     </g>
    </g>
   </g>
  </g>
 </g>
 <g>
  <g transform="translate(0 -1004.4)">
   <path d="m1 1043.4v4c0 2.216 1.784 4 4 4h38c2.216 0 4-1.784 4-4v-4c0 2.216-1.784 4-4 4h-38c-2.216 0-4-1.784-4-4z" opacity=".1"/>
  </g>
 </g>
</svg>
