<?xml version="1.0" encoding="UTF-8" standalone="no"?>
<svg
   xmlns:dc="http://purl.org/dc/elements/1.1/"
   xmlns:cc="http://creativecommons.org/ns#"
   xmlns:rdf="http://www.w3.org/1999/02/22-rdf-syntax-ns#"
   xmlns:svg="http://www.w3.org/2000/svg"
   xmlns="http://www.w3.org/2000/svg"
   xmlns:sodipodi="http://sodipodi.sourceforge.net/DTD/sodipodi-0.dtd"
   xmlns:inkscape="http://www.inkscape.org/namespaces/inkscape"
   viewBox="0 0 48 48"
   version="1.1"
   id="svg31083"
   sodipodi:docname="screen-recorder.svg">
  <metadata
     id="metadata31087">
    <rdf:RDF>
      <cc:Work
         rdf:about="">
        <dc:format>image/svg+xml</dc:format>
        <dc:type
           rdf:resource="http://purl.org/dc/dcmitype/StillImage" />
      </cc:Work>
    </rdf:RDF>
  </metadata>
  <sodipodi:namedview
     pagecolor="#ffffff"
     bordercolor="#666666"
     borderopacity="1"
     objecttolerance="10"
     gridtolerance="10"
     guidetolerance="10"
     inkscape:pageopacity="0"
     inkscape:pageshadow="2"
     inkscape:window-width="640"
     inkscape:window-height="480"
     id="namedview31085" />
  <defs
     id="defs31035">
    <linearGradient
       id="linearGradient3764"
       x1="1"
       x2="47"
       gradientUnits="userSpaceOnUse"
       gradientTransform="translate(-48.000001,0.00221467)">
      <stop
         stop-color="#424b5a"
         stop-opacity="1"
         id="stop31020" />
      <stop
         offset="1"
         stop-color="#4b5465"
         stop-opacity="1"
         id="stop31022" />
    </linearGradient>
    <clipPath
       id="clipPath-376332763">
      <g
         transform="translate(0,-1004.3622)"
         id="g31027">
        <rect
           rx="4"
           y="1005.36"
           x="1"
           height="46"
           width="46"
           fill="#1890d0"
           id="rect31025" />
      </g>
    </clipPath>
    <clipPath
       id="clipPath-389058168">
      <g
         transform="translate(0,-1004.3622)"
         id="g31032">
        <rect
           rx="4"
           y="1005.36"
           x="1"
           height="46"
           width="46"
           fill="#1890d0"
           id="rect31030" />
      </g>
    </clipPath>
  </defs>
  <g
     id="g31043">
    <path
       d="m 1 43 l 0 0.25 c 0 2.216 1.784 4 4 4 l 38 0 c 2.216 0 4 -1.784 4 -4 l 0 -0.25 c 0 2.216 -1.784 4 -4 4 l -38 0 c -2.216 0 -4 -1.784 -4 -4 z m 0 0.5 l 0 0.5 c 0 2.216 1.784 4 4 4 l 38 0 c 2.216 0 4 -1.784 4 -4 l 0 -0.5 c 0 2.216 -1.784 4 -4 4 l -38 0 c -2.216 0 -4 -1.784 -4 -4 z"
       opacity="0.02"
       id="path31037" />
    <path
       d="m 1 43.25 l 0 0.25 c 0 2.216 1.784 4 4 4 l 38 0 c 2.216 0 4 -1.784 4 -4 l 0 -0.25 c 0 2.216 -1.784 4 -4 4 l -38 0 c -2.216 0 -4 -1.784 -4 -4 z"
       opacity="0.05"
       id="path31039" />
    <path
       d="m 1 43 l 0 0.25 c 0 2.216 1.784 4 4 4 l 38 0 c 2.216 0 4 -1.784 4 -4 l 0 -0.25 c 0 2.216 -1.784 4 -4 4 l -38 0 c -2.216 0 -4 -1.784 -4 -4 z"
       opacity="0.1"
       id="path31041" />
  </g>
  <g
     id="g31047">
    <rect
       width="46"
       height="46"
       x="-47"
       y="1"
       rx="4"
       transform="matrix(0,-1,1,0,0,0)"
       fill="url(#linearGradient3764)"
       fill-opacity="1"
       id="rect31045" />
  </g>
  <g
     id="g31061">
    <g
       clip-path="url(#clipPath-376332763)"
       id="g31059">
      <g
         opacity="0.1"
         id="g31057">
        <!-- color: #4b5465 -->
        <g
           id="g31055">
          <path
             d="m 12.996 14 l 18 0 c 0.555 0 1 0.449 1 1 l 0 18 c 0 0.551 -0.445 1 -1 1 l -18 0 c -0.551 0 -1 -0.449 -1 -1 l 0 -18 c 0 -0.551 0.449 -1 1 -1 m 0 0"
             stroke="none"
             fill-rule="nonzero"
             fill-opacity="1"
             fill="#000"
             id="path31049" />
          <path
             d="m 31.996 22 l 6 -4 l 0 12 l -6 -4 l -1 0 l 0 -3 m 1 -1"
             stroke="none"
             fill-rule="nonzero"
             fill-opacity="1"
             fill="#000"
             id="path31051" />
          <path
             d="m 27 23.996 c 0 2.762 -2.238 5 -5 5 c -2.762 0 -5 -2.238 -5 -5 c 0 -2.762 2.238 -5 5 -5 c 2.762 0 5 2.238 5 5 m 0 0"
             stroke="none"
             fill-rule="nonzero"
             fill-opacity="1"
             fill="#000"
             id="path31053" />
        </g>
      </g>
    </g>
  </g>
  <g
     id="g31075">
    <g
       clip-path="url(#clipPath-389058168)"
       id="g31073">
      <g
         transform="translate(0,-1)"
         id="g31071">
        <!-- color: #4b5465 -->
        <g
           id="g31069">
          <path
             d="m 12.996 14 l 18 0 c 0.555 0 1 0.449 1 1 l 0 18 c 0 0.551 -0.445 1 -1 1 l -18 0 c -0.551 0 -1 -0.449 -1 -1 l 0 -18 c 0 -0.551 0.449 -1 1 -1 m 0 0"
             fill="#f9f9f9"
             stroke="none"
             fill-rule="nonzero"
             fill-opacity="1"
             id="path31063" />
          <path
             d="m 31.996 22 l 6 -4 l 0 12 l -6 -4 l -1 0 l 0 -3 m 1 -1"
             fill="#f9f9f9"
             stroke="none"
             fill-rule="nonzero"
             fill-opacity="1"
             id="path31065" />
          <path
             d="m 27 23.996 c 0 2.762 -2.238 5 -5 5 c -2.762 0 -5 -2.238 -5 -5 c 0 -2.762 2.238 -5 5 -5 c 2.762 0 5 2.238 5 5 m 0 0"
             fill="#ec535b"
             stroke="none"
             fill-rule="nonzero"
             fill-opacity="1"
             id="path31067" />
        </g>
      </g>
    </g>
  </g>
  <g
     id="g31081">
    <g
       transform="translate(0,-1004.3622)"
       id="g31079">
      <path
         d="m 1 1043.36 0 4 c 0 2.216 1.784 4 4 4 l 38 0 c 2.216 0 4 -1.784 4 -4 l 0 -4 c 0 2.216 -1.784 4 -4 4 l -38 0 c -2.216 0 -4 -1.784 -4 -4 z"
         opacity="0.1"
         id="path31077" />
    </g>
  </g>
</svg>
