<svg style="" viewBox="0 0 48 48" xmlns="http://www.w3.org/2000/svg" xmlns:xlink="http://www.w3.org/1999/xlink">
 <defs style="">
  <linearGradient id="linearGradient3764" gradientTransform="translate(-48 .002215)" gradientUnits="userSpaceOnUse" style="" x1="1" x2="47">
   <stop offset="0" style="stop-color:#dedede"/>
   <stop offset="1" style="stop-color:#e8e8e8"/>
  </linearGradient>
 </defs>
 <path d="m 1 43 v .25 c 0 2.216 1.784 4 4 4 h 38 c 2.216 0 4 -1.784 4 -4 v -.25 c 0 2.216 -1.784 4 -4 4 h -38 c -2.216 0 -4 -1.784 -4 -4 z m 0 .5 v .5 c 0 2.216 1.784 4 4 4 h 38 c 2.216 0 4 -1.784 4 -4 v -.5 c 0 2.216 -1.784 4 -4 4 h -38 c -2.216 0 -4 -1.784 -4 -4 z" style="opacity:.02"/>
 <path d="m 1 43.25 v .25 c 0 2.216 1.784 4 4 4 h 38 c 2.216 0 4 -1.784 4 -4 v -.25 c 0 2.216 -1.784 4 -4 4 h -38 c -2.216 0 -4 -1.784 -4 -4 z" style="opacity:.05"/>
 <path d="m 1 43 v .25 c 0 2.216 1.784 4 4 4 h 38 c 2.216 0 4 -1.784 4 -4 v -.25 c 0 2.216 -1.784 4 -4 4 h -38 c -2.216 0 -4 -1.784 -4 -4 z" style="opacity:.1"/>
 <rect height="46" rx="4" style="fill:url(#linearGradient3764)" transform="rotate(-90)" width="46" x="-47" y="1"/>
 <g style="opacity:.1">
  <path d="m 20.223 16.785 c -3.848 0 -6.965 3.199 -6.965 7.145 0 .164 .004 .324 .016 .484 -1.355 .668 -2.273 2.01 -2.273 3.566 0 2.227 1.887 4.02 4.23 4.02 h 17.543 c 2.344 0 4.23 -1.793 4.23 -4.02 0 -1.656 -1.043 -3.07 -2.539 -3.688 .035 -.25 .059 -.508 .059 -.77 0 -2.824 -2.238 -5.117 -4.992 -5.117 -1.387 0 -2.641 .578 -3.543 1.512 -1.254 -1.891 -3.367 -3.133 -5.766 -3.133 m -2.883 2.18 c .754 0 1.363 .594 1.363 1.332 s -.609 1.336 -1.363 1.336 -1.363 -.598 -1.363 -1.336 .609 -1.332 1.363 -1.332 m 6.66 1.98 c 2.469 0 4.484 2.074 4.484 4.605 0 2.52 -2.02 4.602 -4.484 4.602 -2.465 0 -4.484 -2.074 -4.484 -4.602 0 -2.531 2.02 -4.605 4.484 -4.605 m 0 1.977 c -1.422 0 -2.555 1.164 -2.555 2.629 s 1.133 2.625 2.555 2.625 2.555 -1.16 2.555 -2.625 -1.133 -2.629 -2.555 -2.629" style=""/>
  <path d="m 32.3 18.313 -.523 -.508 -.703 .152 .309 -.664 -.359 -.637 .715 .094 .48 -.547 .133 .723 .656 .301 -.633 .352" style=""/>
  <path d="m 32.883 16.965 .027 -.344 -.262 -.219 .328 -.078 .125 -.324 .172 .297 .336 .02 -.219 .262 .086 .332 -.309 -.133" style=""/>
  <path d="m 33.2 18.969 -.063 -.523 -.457 -.242 .465 -.227 .086 -.52 .352 .387 .508 -.078 -.25 .461 .23 .473 -.504 -.102" style=""/>
 </g>
 <g style="fill:#4c9ade">
  <path d="m 20.223 15.785 c -3.848 0 -6.965 3.199 -6.965 7.145 0 .164 .004 .324 .016 .484 -1.355 .668 -2.273 2.01 -2.273 3.566 0 2.227 1.887 4.02 4.23 4.02 h 17.543 c 2.344 0 4.23 -1.793 4.23 -4.02 0 -1.656 -1.043 -3.07 -2.539 -3.688 .035 -.25 .059 -.508 .059 -.77 0 -2.824 -2.238 -5.117 -4.992 -5.117 -1.387 0 -2.641 .578 -3.543 1.512 -1.254 -1.891 -3.367 -3.133 -5.766 -3.133 m -2.883 2.18 c .754 0 1.363 .594 1.363 1.332 s -.609 1.336 -1.363 1.336 -1.363 -.598 -1.363 -1.336 .609 -1.332 1.363 -1.332 m 6.66 1.98 c 2.469 0 4.484 2.074 4.484 4.605 0 2.52 -2.02 4.602 -4.484 4.602 -2.465 0 -4.484 -2.074 -4.484 -4.602 0 -2.531 2.02 -4.605 4.484 -4.605 m 0 1.977 c -1.422 0 -2.555 1.164 -2.555 2.629 s 1.133 2.625 2.555 2.625 2.555 -1.16 2.555 -2.625 -1.133 -2.629 -2.555 -2.629" style=""/>
  <path d="m 32.3 17.313 -.523 -.508 -.703 .152 .309 -.664 -.359 -.637 .715 .094 .48 -.547 .133 .723 .656 .301 -.633 .352" style=""/>
  <path d="m 32.883 15.965 .027 -.344 -.262 -.219 .328 -.078 .125 -.324 .172 .297 .336 .02 -.219 .262 .086 .332 -.309 -.133" style=""/>
  <path d="m 33.2 17.969 -.063 -.523 -.457 -.242 .465 -.227 .086 -.52 .352 .387 .508 -.078 -.25 .461 .23 .473 -.504 -.102" style=""/>
 </g>
 <path d="m 1 39 v 4 c 0 2.216 1.784 4 4 4 h 38 c 2.216 0 4 -1.784 4 -4 v -4 c 0 2.216 -1.784 4 -4 4 h -38 c -2.216 0 -4 -1.784 -4 -4 z" style="opacity:.1"/>
</svg>
