<svg style="" viewBox="0 0 48 48" xmlns="http://www.w3.org/2000/svg" xmlns:xlink="http://www.w3.org/1999/xlink">
 <defs style="">
  <linearGradient id="linearGradient3764" gradientTransform="translate(-48 .002215)" gradientUnits="userSpaceOnUse" style="" x1="1" x2="47">
   <stop offset="0" style="stop-color:#717171"/>
   <stop offset="1" style="stop-color:#7b7b7b"/>
  </linearGradient>
 </defs>
 <path d="m 1 43 v .25 c 0 2.216 1.784 4 4 4 h 38 c 2.216 0 4 -1.784 4 -4 v -.25 c 0 2.216 -1.784 4 -4 4 h -38 c -2.216 0 -4 -1.784 -4 -4 z m 0 .5 v .5 c 0 2.216 1.784 4 4 4 h 38 c 2.216 0 4 -1.784 4 -4 v -.5 c 0 2.216 -1.784 4 -4 4 h -38 c -2.216 0 -4 -1.784 -4 -4 z" style="opacity:.02"/>
 <path d="m 1 43.25 v .25 c 0 2.216 1.784 4 4 4 h 38 c 2.216 0 4 -1.784 4 -4 v -.25 c 0 2.216 -1.784 4 -4 4 h -38 c -2.216 0 -4 -1.784 -4 -4 z" style="opacity:.05"/>
 <path d="m 1 43 v .25 c 0 2.216 1.784 4 4 4 h 38 c 2.216 0 4 -1.784 4 -4 v -.25 c 0 2.216 -1.784 4 -4 4 h -38 c -2.216 0 -4 -1.784 -4 -4 z" style="opacity:.1"/>
 <rect height="46" rx="4" style="fill:url(#linearGradient3764)" transform="rotate(-90)" width="46" x="-47" y="1"/>
 <path d="m 24 9 c -8.309 0 -15 6.691 -15 15 s 6.691 15 15 15 c 3.383 0 6.496 -1.125 9 -3 -.504 -.07 -.969 -.313 -1.313 -.688 l -8.656 -8.656 c -1.98 .773 -4.309 .379 -5.906 -1.219 -1.598 -1.598 -2.023 -3.957 -1.25 -5.938 l 3.313 3.313 c .863 .863 2.262 .863 3.125 0 s .863 -2.262 0 -3.125 l -3.313 -3.313 c .617 -.242 1.281 -.367 1.938 -.375 1.441 -.023 2.902 .492 4 1.594 1.598 1.598 1.992 3.957 1.219 5.938 l 8.656 8.656 c .406 .383 .652 .91 .688 1.469 2.188 -2.605 3.5 -5.973 3.5 -9.656 0 -8.309 -6.691 -15 -15 -15 m 9.219 23.969 c -.414 0 -.75 .336 -.75 .75 s .336 .75 .75 .75 .75 -.336 .75 -.75 -.336 -.75 -.75 -.75" style="fill-rule:evenodd;opacity:.1"/>
 <path d="m 24 8 c -8.309 0 -15 6.691 -15 15 s 6.691 15 15 15 c 3.383 0 6.496 -1.125 9 -3 -.504 -.07 -.969 -.313 -1.313 -.688 l -8.656 -8.656 c -1.98 .773 -4.309 .379 -5.906 -1.219 -1.598 -1.598 -2.023 -3.957 -1.25 -5.938 l 3.313 3.313 c .863 .863 2.262 .863 3.125 0 s .863 -2.262 0 -3.125 l -3.313 -3.313 c .617 -.242 1.281 -.367 1.938 -.375 1.441 -.023 2.902 .492 4 1.594 1.598 1.598 1.992 3.957 1.219 5.938 l 8.656 8.656 c .406 .383 .652 .91 .688 1.469 2.188 -2.605 3.5 -5.973 3.5 -9.656 0 -8.309 -6.691 -15 -15 -15 m 9.219 23.969 c -.414 0 -.75 .336 -.75 .75 s .336 .75 .75 .75 .75 -.336 .75 -.75 -.336 -.75 -.75 -.75" style="fill:#fbc134;fill-rule:evenodd"/>
 <path d="m 1 39 v 4 c 0 2.216 1.784 4 4 4 h 38 c 2.216 0 4 -1.784 4 -4 v -4 c 0 2.216 -1.784 4 -4 4 h -38 c -2.216 0 -4 -1.784 -4 -4 z" style="opacity:.1"/>
</svg>
