<svg viewBox="0 0 48 48">
  <defs>
    <linearGradient id="a" x1="1" x2="47" gradientUnits="userSpaceOnUse" gradientTransform="translate(-48 .002)">
      <stop stop-color="#e4e4e4"/>
      <stop offset="1" stop-color="#eee"/>
    </linearGradient>
    <clipPath id="b"/>
    <clipPath id="c"/>
    <linearGradient id="d" gradientUnits="userSpaceOnUse" x1="6.778" y1="3.487" x2="6.769" y2="10.518" gradientTransform="matrix(3.7298 0 0 3.40157 -1.263 0)">
      <stop stop-color="#e24570"/>
      <stop offset="1" stop-color="#7f263d"/>
    </linearGradient>
  </defs>
  <path d="M1 43v.25c0 2.216 1.784 4 4 4h38c2.216 0 4-1.784 4-4V43c0 2.216-1.784 4-4 4H5c-2.216 0-4-1.784-4-4zm0 .5v.5c0 2.216 1.784 4 4 4h38c2.216 0 4-1.784 4-4v-.5c0 2.216-1.784 4-4 4H5c-2.216 0-4-1.784-4-4z" opacity=".02"/>
  <path d="M1 43.25v.25c0 2.216 1.784 4 4 4h38c2.216 0 4-1.784 4-4v-.25c0 2.216-1.784 4-4 4H5c-2.216 0-4-1.784-4-4z" opacity=".05"/>
  <path d="M1 43v.25c0 2.216 1.784 4 4 4h38c2.216 0 4-1.784 4-4V43c0 2.216-1.784 4-4 4H5c-2.216 0-4-1.784-4-4z" opacity=".1"/>
  <rect width="46" height="46" x="-47" y="1" rx="4" transform="rotate(-90)" fill="url(#a)"/>
  <g clip-path="url(#b)">
    <path d="M14.03 12a330.405 330.405 0 0 0 0 10.25c.047 3.289.219 5.867 1.656 7.875 1.727 2.422 4.602 4.16 8.313 5.875 3.703-1.715 6.582-3.457 8.313-5.875 1.434-2.01 1.609-4.586 1.656-7.875.047-3.418.051-6.832 0-10.25m-9.969 1c.551 0 1 .449 1 1a1 1 0 1 1-1-1m0 4c.551 0 1 .449 1 1a1 1 0 1 1-1-1m-8 4c.551 0 1 .449 1 1a1 1 0 1 1-1-1m4 0c.551 0 1 .449 1 1a1 1 0 1 1-1-1m4 0c.551 0 1 .449 1 1a1 1 0 1 1-1-1m4 0c.551 0 1 .449 1 1a1 1 0 1 1-1-1m4 0c.551 0 1 .449 1 1a1 1 0 1 1-1-1m-8 4c.551 0 1 .449 1 1a1 1 0 1 1-1-1m0 4c.551 0 1 .449 1 1a1 1 0 1 1-1-1m0 4c.551 0 1 .449 1 1a1 1 0 1 1-1-1m0 0" opacity=".1"/>
  </g>
  <g>
    <g clip-path="url(#c)">
      <path d="M14.03 12a330.405 330.405 0 0 0 0 10.25c.047 3.289.219 5.867 1.656 7.875 1.727 2.422 4.602 4.16 8.313 5.875 3.703-1.715 6.582-3.457 8.313-5.875 1.434-2.01 1.609-4.586 1.656-7.875.047-3.418.051-6.832 0-10.25m-9.969 1c.551 0 1 .449 1 1a1 1 0 1 1-1-1m0 4c.551 0 1 .449 1 1a1 1 0 1 1-1-1m-8 4c.551 0 1 .449 1 1a1 1 0 1 1-1-1m4 0c.551 0 1 .449 1 1a1 1 0 1 1-1-1m4 0c.551 0 1 .449 1 1a1 1 0 1 1-1-1m4 0c.551 0 1 .449 1 1a1 1 0 1 1-1-1m4 0c.551 0 1 .449 1 1a1 1 0 1 1-1-1m-8 4c.551 0 1 .449 1 1a1 1 0 1 1-1-1m0 4c.551 0 1 .449 1 1a1 1 0 1 1-1-1m0 4c.551 0 1 .449 1 1a1 1 0 1 1-1-1m0 0" fill="url(#d)" transform="translate(0 -1)"/>
    </g>
  </g>
  <g>
    <path d="M1 38.998v4c0 2.216 1.784 4 4 4h38c2.216 0 4-1.784 4-4v-4c0 2.216-1.784 4-4 4H5c-2.216 0-4-1.784-4-4z" opacity=".1"/>
  </g>
</svg>
