<svg version="1.1" viewBox="0 0 48 48" xmlns="http://www.w3.org/2000/svg">
 <defs>
  <linearGradient id="bg" x2="0" y1="1" y2="47" gradientUnits="userSpaceOnUse">
   <stop style="stop-color:#e04d67" offset="0"/>
   <stop style="stop-color:#dd3c59" offset="1"/>
  </linearGradient>
 </defs>
 <path d="m1 43v0.25c0 2.22 1.78 4 4 4h38c2.22 0 4-1.78 4-4v-0.25c0 2.22-1.78 4-4 4h-38c-2.22 0-4-1.78-4-4zm0 0.5v0.5c0 2.22 1.78 4 4 4h38c2.22 0 4-1.78 4-4v-0.5c0 2.22-1.78 4-4 4h-38c-2.22 0-4-1.78-4-4z" style="opacity:.02"/>
 <path d="m1 43.2v0.25c0 2.22 1.78 4 4 4h38c2.22 0 4-1.78 4-4v-0.25c0 2.22-1.78 4-4 4h-38c-2.22 0-4-1.78-4-4z" style="opacity:.05"/>
 <path d="m1 43v0.25c0 2.22 1.78 4 4 4h38c2.22 0 4-1.78 4-4v-0.25c0 2.22-1.78 4-4 4h-38c-2.22 0-4-1.78-4-4z" style="opacity:.1"/>
 <rect x="1" y="1" width="46" height="46" rx="4" style="fill:url(#bg)"/>
 <path d="m1 39v4c0 2.22 1.78 4 4 4h38c2.22 0 4-1.78 4-4v-4c0 2.22-1.78 4-4 4h-38c-2.22 0-4-1.78-4-4z" style="opacity:.1"/>
 <path d="m11 21v9h2v6h22v-1z" style="opacity:.1"/>
 <rect x="13" y="11" width="22" height="24" style="fill:#f3d925"/>
 <path d="m13 18v12h14v-9l-3-3zm10 3c1.1 0 2 0.895 2 2-2e-3 0.713-0.383 1.37-1 1.73l1 3.27h-4l1-3.27c-0.617-0.356-0.998-1.01-1-1.73 0-1.1 0.895-2 2-2z" style="opacity:.1"/>
 <path d="m11 17v12h16v-9l-3-3zm12 3c1.1 0 2 0.895 2 2-2e-3 0.713-0.383 1.37-1 1.73l1 3.27h-4l1-3.27c-0.617-0.356-0.998-1.01-1-1.73 0-1.1 0.895-2 2-2z" style="fill:#43484c"/>
</svg>
