<svg version="1.1" viewBox="0 0 48 48" xmlns="http://www.w3.org/2000/svg">
 <defs>
  <linearGradient id="bg" x2="0" y1="1" y2="47" gradientUnits="userSpaceOnUse">
   <stop style="stop-color:#67ab39" offset="0"/>
   <stop style="stop-color:#5e9c34" offset="1"/>
  </linearGradient>
 </defs>
 <path d="m1 43v0.25c0 2.216 1.784 4 4 4h38c2.216 0 4-1.784 4-4v-0.25c0 2.216-1.784 4-4 4h-38c-2.216 0-4-1.784-4-4zm0 0.5v0.5c0 2.216 1.784 4 4 4h38c2.216 0 4-1.784 4-4v-0.5c0 2.216-1.784 4-4 4h-38c-2.216 0-4-1.784-4-4z" style="opacity:.02"/>
 <path d="m1 43.25v0.25c0 2.216 1.784 4 4 4h38c2.216 0 4-1.784 4-4v-0.25c0 2.216-1.784 4-4 4h-38c-2.216 0-4-1.784-4-4z" style="opacity:.05"/>
 <path d="m1 43v0.25c0 2.216 1.784 4 4 4h38c2.216 0 4-1.784 4-4v-0.25c0 2.216-1.784 4-4 4h-38c-2.216 0-4-1.784-4-4z" style="opacity:.1"/>
 <rect x="1" y="1" width="46" height="46" rx="4" style="fill:url(#bg)"/>
 <path d="m1 39v4c0 2.216 1.784 4 4 4h38c2.216 0 4-1.784 4-4v-4c0 2.216-1.784 4-4 4h-38c-2.216 0-4-1.784-4-4z" style="opacity:.1"/>
 <path d="m24 9c-0.66935 3.24e-4 -1.3375 0.057-2 0.15234v14.848h4v-14.85c-0.66256-0.09469-1.3307-0.15071-2-0.15039zm4 0.54492v4.2207c4.2169 1.6461 6.9978 5.7075 7 10.234 3e-3 6.0751-4.9249 11-11 11s-11-4.9249-11-11c1.51e-4 -4.5311 2.7791-8.5984 7-10.246v-4.1953c-6.494 1.7968-10.997 7.7034-11 14.441-0.00382 8.2843 6.7157 15 15 15s15-6.7157 15-15c-3.54e-4 -6.7431-4.5011-12.657-11-14.455z" style="opacity:.1;paint-order:normal"/>
 <path d="m24 8c-0.66935 3.235e-4 -1.3375 0.056996-2 0.15234v14.848h4v-14.85c-0.66256-0.094694-1.3307-0.15071-2-0.15039zm4 0.54492v4.2207c4.2169 1.6461 6.9978 5.7075 7 10.234 3e-3 6.0751-4.9249 11-11 11s-11-4.9249-11-11c1.51e-4 -4.5311 2.7791-8.5984 7-10.246v-4.1953c-6.494 1.7968-10.997 7.7034-11 14.441-0.00382 8.2843 6.7157 15 15 15s15-6.7157 15-15c-3.54e-4 -6.7431-4.5011-12.657-11-14.455z" style="fill:#f9f9f9;paint-order:normal"/>
</svg>
