<?xml version="1.0" encoding="UTF-8" standalone="no"?>
<svg
   xmlns:dc="http://purl.org/dc/elements/1.1/"
   xmlns:cc="http://creativecommons.org/ns#"
   xmlns:rdf="http://www.w3.org/1999/02/22-rdf-syntax-ns#"
   xmlns:svg="http://www.w3.org/2000/svg"
   xmlns="http://www.w3.org/2000/svg"
   xmlns:sodipodi="http://sodipodi.sourceforge.net/DTD/sodipodi-0.dtd"
   xmlns:inkscape="http://www.inkscape.org/namespaces/inkscape"
   viewBox="0 0 48 48"
   version="1.1"
   id="svg31610"
   sodipodi:docname="session-properties.svg">
  <metadata
     id="metadata31614">
    <rdf:RDF>
      <cc:Work
         rdf:about="">
        <dc:format>image/svg+xml</dc:format>
        <dc:type
           rdf:resource="http://purl.org/dc/dcmitype/StillImage" />
      </cc:Work>
    </rdf:RDF>
  </metadata>
  <sodipodi:namedview
     pagecolor="#ffffff"
     bordercolor="#666666"
     borderopacity="1"
     objecttolerance="10"
     gridtolerance="10"
     guidetolerance="10"
     inkscape:pageopacity="0"
     inkscape:pageshadow="2"
     inkscape:window-width="640"
     inkscape:window-height="480"
     id="namedview31612" />
  <defs
     id="defs31566">
    <linearGradient
       id="linearGradient3764"
       x1="1"
       x2="47"
       gradientUnits="userSpaceOnUse"
       gradientTransform="translate(-48.000001,0.00221467)">
      <stop
         stop-color="#5e9c34"
         stop-opacity="1"
         id="stop31551" />
      <stop
         offset="1"
         stop-color="#68ac39"
         stop-opacity="1"
         id="stop31553" />
    </linearGradient>
    <clipPath
       id="clipPath-024673886">
      <g
         transform="translate(0,-1004.3622)"
         id="g31558">
        <rect
           rx="4"
           y="1005.36"
           x="1"
           height="46"
           width="46"
           fill="#1890d0"
           id="rect31556" />
      </g>
    </clipPath>
    <clipPath
       id="clipPath-038065771">
      <g
         transform="translate(0,-1004.3622)"
         id="g31563">
        <rect
           rx="4"
           y="1005.36"
           x="1"
           height="46"
           width="46"
           fill="#1890d0"
           id="rect31561" />
      </g>
    </clipPath>
  </defs>
  <g
     id="g31574">
    <path
       d="m 1 43 l 0 0.25 c 0 2.216 1.784 4 4 4 l 38 0 c 2.216 0 4 -1.784 4 -4 l 0 -0.25 c 0 2.216 -1.784 4 -4 4 l -38 0 c -2.216 0 -4 -1.784 -4 -4 z m 0 0.5 l 0 0.5 c 0 2.216 1.784 4 4 4 l 38 0 c 2.216 0 4 -1.784 4 -4 l 0 -0.5 c 0 2.216 -1.784 4 -4 4 l -38 0 c -2.216 0 -4 -1.784 -4 -4 z"
       opacity="0.02"
       id="path31568" />
    <path
       d="m 1 43.25 l 0 0.25 c 0 2.216 1.784 4 4 4 l 38 0 c 2.216 0 4 -1.784 4 -4 l 0 -0.25 c 0 2.216 -1.784 4 -4 4 l -38 0 c -2.216 0 -4 -1.784 -4 -4 z"
       opacity="0.05"
       id="path31570" />
    <path
       d="m 1 43 l 0 0.25 c 0 2.216 1.784 4 4 4 l 38 0 c 2.216 0 4 -1.784 4 -4 l 0 -0.25 c 0 2.216 -1.784 4 -4 4 l -38 0 c -2.216 0 -4 -1.784 -4 -4 z"
       opacity="0.1"
       id="path31572" />
  </g>
  <g
     id="g31578">
    <rect
       width="46"
       height="46"
       x="-47"
       y="1"
       rx="4"
       transform="matrix(0,-1,1,0,0,0)"
       fill="url(#linearGradient3764)"
       fill-opacity="1"
       id="rect31576" />
  </g>
  <g
     id="g31590">
    <g
       clip-path="url(#clipPath-024673886)"
       id="g31588">
      <g
         opacity="0.1"
         id="g31586">
        <!-- color: #68ac39 -->
        <g
           id="g31584">
          <path
             d="m 26 9 l -4 0 l 0 15 l 4 0 m 0 -15"
             stroke="none"
             fill-rule="nonzero"
             fill-opacity="1"
             fill="#000"
             id="path31580" />
          <path
             d="m 20 9.5 c -6.359 1.766 -11 7.617 -11 14.469 c 0 8.23 6.715 15.03 15 15.03 c 8.285 0 15 -6.801 15 -15.03 c 0 -6.852 -4.641 -12.703 -11 -14.469 l 0 3.875 c 4.184 1.645 7.25 5.75 7.25 10.594 c 0 6.313 -5.04 11.375 -11.25 11.375 c -6.203 0 -11.25 -5.063 -11.25 -11.375 c 0 -4.895 3.01 -9.05 7.25 -10.656 m 0 -3.813"
             stroke="none"
             fill-rule="nonzero"
             fill-opacity="1"
             fill="#000"
             id="path31582" />
        </g>
      </g>
    </g>
  </g>
  <g
     id="g31602">
    <g
       clip-path="url(#clipPath-038065771)"
       id="g31600">
      <g
         transform="translate(0,-1)"
         id="g31598">
        <!-- color: #68ac39 -->
        <g
           id="g31596">
          <path
             d="m 26 9 l -4 0 l 0 15 l 4 0 m 0 -15"
             fill="#f9f9f9"
             stroke="none"
             fill-rule="nonzero"
             fill-opacity="1"
             id="path31592" />
          <path
             d="m 20 9.5 c -6.359 1.766 -11 7.617 -11 14.469 c 0 8.23 6.715 15.03 15 15.03 c 8.285 0 15 -6.801 15 -15.03 c 0 -6.852 -4.641 -12.703 -11 -14.469 l 0 3.875 c 4.184 1.645 7.25 5.75 7.25 10.594 c 0 6.313 -5.04 11.375 -11.25 11.375 c -6.203 0 -11.25 -5.063 -11.25 -11.375 c 0 -4.895 3.01 -9.05 7.25 -10.656 m 0 -3.813"
             fill="#f9f9f9"
             stroke="none"
             fill-rule="nonzero"
             fill-opacity="1"
             id="path31594" />
        </g>
      </g>
    </g>
  </g>
  <g
     id="g31608">
    <g
       transform="translate(0,-1004.3622)"
       id="g31606">
      <path
         d="m 1 1043.36 0 4 c 0 2.216 1.784 4 4 4 l 38 0 c 2.216 0 4 -1.784 4 -4 l 0 -4 c 0 2.216 -1.784 4 -4 4 l -38 0 c -2.216 0 -4 -1.784 -4 -4 z"
         opacity="0.1"
         id="path31604" />
    </g>
  </g>
</svg>
