<svg version="1.1" viewBox="0 0 48 48" xmlns="http://www.w3.org/2000/svg">
 <defs>
  <linearGradient id="bg" x2="0" y1="1" y2="47" gradientUnits="userSpaceOnUse">
   <stop style="stop-color:#5158c2" offset="0"/>
   <stop style="stop-color:#424abd" offset="1"/>
  </linearGradient>
 </defs>
 <path d="m1 43v0.25c0 2.22 1.78 4 4 4h38c2.22 0 4-1.78 4-4v-0.25c0 2.22-1.78 4-4 4h-38c-2.22 0-4-1.78-4-4zm0 0.5v0.5c0 2.22 1.78 4 4 4h38c2.22 0 4-1.78 4-4v-0.5c0 2.22-1.78 4-4 4h-38c-2.22 0-4-1.78-4-4z" style="opacity:.02"/>
 <path d="m1 43.2v0.25c0 2.22 1.78 4 4 4h38c2.22 0 4-1.78 4-4v-0.25c0 2.22-1.78 4-4 4h-38c-2.22 0-4-1.78-4-4z" style="opacity:.05"/>
 <path d="m1 43v0.25c0 2.22 1.78 4 4 4h38c2.22 0 4-1.78 4-4v-0.25c0 2.22-1.78 4-4 4h-38c-2.22 0-4-1.78-4-4z" style="opacity:.1"/>
 <rect x="1" y="1" width="46" height="46" rx="4" style="fill:url(#bg)"/>
 <path d="m1 39v4c0 2.22 1.78 4 4 4h38c2.22 0 4-1.78 4-4v-4c0 2.22-1.78 4-4 4h-38c-2.22 0-4-1.78-4-4z" style="opacity:.1"/>
 <path d="m17 12c-2.76 0-5 2.24-5 5s2.24 5 5 5l-5 6v6c0 1.11 0.892 2 2 2h6c1.11 0 2-0.892 2-2v-6h3v2.5c0 0.828 0.672 1.5 1.5 1.5s1.5-0.672 1.5-1.5v-1.09l1.59 1.59-3.29 3.29c-0.39 0.391-0.39 1.02 0 1.41 0.391 0.39 1.02 0.39 1.41 0l3.29-3.29 3.29 3.29c0.391 0.39 1.02 0.39 1.41 0 0.39-0.391 0.39-1.02 0-1.41l-3.29-3.29 3.29-3.29c0.39-0.391 0.39-1.02 0-1.41l-4.71 3.29-1.59-1.59h1.09c0.828 0 1.5-0.672 1.5-1.5s-0.672-1.5-1.5-1.5h-2.5v-3c0.165 2e-4 0.336-0.0412 0.496-0.133l7-4c0.674-0.384 0.674-1.35 0-1.74l-7-4-6.5 4.87c0-2.76-2.24-5-5-5zm0 2c1.66 0 3 1.34 3 3s-1.34 3-3 3-3-1.34-3-3 1.34-3 3-3zm12 0.725 3.98 2.28-3.98 2.28zm-4 4.4v5.88h-5.88zm-11 8.88h6v6h-6z" style="opacity:.1"/>
 <path d="m17 11c-2.76 0-5 2.24-5 5s2.24 5 5 5 5-2.24 5-5-2.24-5-5-5zm10.9 2e-3c-0.521 0.0408-0.922 0.476-0.922 0.998v8c-5.38e-4 0.768 0.829 1.25 1.5 0.869l7-4c0.674-0.384 0.674-1.35 0-1.74l-7-4c-0.174-0.0996-0.374-0.145-0.574-0.129zm-10.9 2c1.66 0 3 1.34 3 3s-1.34 3-3 3-3-1.34-3-3 1.34-3 3-3zm12 0.725 3.98 2.28-3.98 2.28zm-15 11.3c-1.11 0-2 0.892-2 2v6c0 1.11 0.892 2 2 2h6c1.11 0 2-0.892 2-2v-5.97c0-1.11-0.892-2.03-2-2.03zm12.8 0.0387c-0.209 0.0331-0.402 0.131-0.551 0.281-0.388 0.39-0.388 1.02 0 1.41l3.29 3.29-3.29 3.29c-0.388 0.39-0.388 1.02 0 1.41 0.39 0.388 1.02 0.388 1.41 0l3.29-3.29 3.29 3.29c0.39 0.388 1.02 0.388 1.41 0 0.388-0.39 0.388-1.02 0-1.41l-3.29-3.29 3.29-3.29c0.388-0.39 0.388-1.02 0-1.41-0.39-0.388-1.02-0.388-1.41 0l-3.29 3.29-3.29-3.29c-0.226-0.226-0.547-0.331-0.863-0.281zm-12.8 1.96h6v6h-6z" style="fill:#29a2ef"/>
 <path d="m14.4 25.4c-0.411 0.424-0.536 1.02-0.318 1.57h5.93v0.992h2v-0.965l-2-2zm11.9 1.3 1.7 1.26h2.38l-2.67-2.67z" style="opacity:.1"/>
 <path d="m26.6 13a1.5 1.5 0 0 0-1.21 0.432l-11 11a1.5 1.5 0 0 0 1.06 2.56h9.5v2.5a1.5 1.5 0 0 0 1.5 1.5 1.5 1.5 0 0 0 1.5-1.5v-2.5h2.5a1.5 1.5 0 0 0 1.5-1.5 1.5 1.5 0 0 0-1.5-1.5h-2.5v-9.5a1.5 1.5 0 0 0-0.926-1.38 1.5 1.5 0 0 0-0.428-0.107zm-1.65 5.11v5.88h-5.88z" style="fill:#f9f9f9"/>
</svg>
