<svg width="48" height="48" version="1.1" viewBox="0 0 48 48.000001" xmlns="http://www.w3.org/2000/svg">
 <defs>
  <linearGradient id="linearGradient4501" x1="-47" x2="-1" y1="2.8779e-15" y2="6.1232e-17" gradientUnits="userSpaceOnUse">
   <stop style="stop-color:#7b2525" offset="0"/>
   <stop style="stop-color:#8a2a2b" offset="1"/>
  </linearGradient>
 </defs>
 <g transform="translate(0 3.949e-5)">
  <path d="m1 43v0.25c0 2.216 1.784 4 4 4h38c2.216 0 4-1.784 4-4v-0.25c0 2.216-1.784 4-4 4h-38c-2.216 0-4-1.784-4-4zm0 0.5v0.5c0 2.216 1.784 4 4 4h38c2.216 0 4-1.784 4-4v-0.5c0 2.216-1.784 4-4 4h-38c-2.216 0-4-1.784-4-4z" style="opacity:.02"/>
  <path d="m1 43.25v0.25c0 2.216 1.784 4 4 4h38c2.216 0 4-1.784 4-4v-0.25c0 2.216-1.784 4-4 4h-38c-2.216 0-4-1.784-4-4z" style="opacity:.05"/>
  <path d="m1 43v0.25c0 2.216 1.784 4 4 4h38c2.216 0 4-1.784 4-4v-0.25c0 2.216-1.784 4-4 4h-38c-2.216 0-4-1.784-4-4z" style="opacity:.1"/>
 </g>
 <rect transform="rotate(-90)" x="-47" y="1" width="46" height="46" rx="4" style="fill:url(#linearGradient4501)"/>
 <g transform="translate(0 3.949e-5)">
  <g transform="translate(0 -1004.4)">
   <path d="m1 1043.4v4c0 2.216 1.784 4 4 4h38c2.216 0 4-1.784 4-4v-4c0 2.216-1.784 4-4 4h-38c-2.216 0-4-1.784-4-4z" style="opacity:.1"/>
  </g>
 </g>
 <g transform="translate(-.23822 .18273)" style="opacity:.1">
  <path transform="translate(-.76132 -1.1828)" d="m26.896 12.17c-0.21 3e-3 -0.338 0.012-0.338 0.012s0.606 1.487 0.6 1.855c0 2e-3 0 4e-3 2e-3 6e-3 -0.178-0.014-0.353-0.033-0.533-0.043-0.483-0.024-0.977-0.025-1.469 4e-3 -0.28-0.608-0.56-1.216-0.84-1.824-1.048 0.018-2.579 0.116-2.934 0.68l1.246 1.682c-0.304 0.125-0.6 0.268-0.879 0.447l-1.746-1.082c-1.499 0.188-2.959 2.045-2.959 2.045s1.757 0.569 1.979 0.869c0.087 0.058 0.174 0.201 0.264 0.355-0.103 0.105-0.205 0.205-0.305 0.316-0.768 0.125-1.535 0.249-2.303 0.373-1.137 1.969-0.51 3.217-0.51 3.217s0.821-0.281 1.471-0.51c0.017 0.201 0.053 0.404 0.119 0.609 0.047 0.128 0.115 0.243 0.172 0.365-0.504 0.257-0.96 0.564-1.172 1.135 0.344 0.624 0.781 1.483 1.586 2.393 0.246-0.783 0.749-1.263 1.119-1.604 1 0.816 2.26 1.364 3.492 1.633 1.611 0.112 1.85 0.194 3.301 0.996 1.39 0.629 3.802 2.01 3.998 3.496 0.411 1.878-0.32 3.443-2.141 4.404-2.01 1.206-5.752 0.921-7.113-0.793-1.096-1.427-0.75-3.665 0.701-4.721 0.582-0.66 3.741-1.194 3.84-1.299 0.217-5e-3 -4.869-1-6.834 2.346-1.035 1.65-1.01 4.68 0.6 6.371 1.916 1.908 5.451 2.279 8.631 2.025 3.82-0.746 4.822-2.746 5.434-3.939 1.485-3.365 0.682-6.83-1.969-9.494-1.934-1.83-4.165-2.638-6.592-3.34-1.369-0.157 1.349-2.393 2.418-1.811 2.574 0.339 4.49 0.91 4.49 0.91l0.4-0.631-3.236-0.904c0.239-0.427 0.141-0.096 0.381-0.523 1.625 0.412 3.326 0.153 4.852 1.963 0.368 0.478 0.74 1.324 0.74 1.324 0.76-1.286 0.903-3.302-1.271-5.17-1.2-0.919-2.471-1.494-3.83-1.85 0.013-0.709 0.041-1.775 0.041-1.775-0.901-0.489-2.273-0.529-2.902-0.52zm0.539 3.266c0.922 0.054 2.3 0.98 0.988 1.17-0.65 0.296-3.573-0.811-1.346-1.135 0.104-0.033 0.226-0.043 0.357-0.035z"/>
 </g>
 <g transform="translate(-.23907 -.81727)" style="fill:#fc0">
  <path d="m20.372 14.27c1.498-1.328 3.577-1.546 5.494-1.452 2.597 0.141 4.884 0.723 6.961 2.314 2.174 1.868 2.032 3.883 1.272 5.169 0 0-0.373-0.845-0.741-1.323-1.526-1.81-3.226-1.551-4.851-1.963-0.24 0.427-0.142 0.095-0.381 0.522l3.235 0.905-0.399 0.632s-1.917-0.572-4.491-0.911c-1.069-0.582-3.786 1.654-2.417 1.811 2.427 0.702 4.657 1.509 6.591 3.339 2.651 2.664 3.453 6.129 1.968 9.494-0.612 1.193-1.612 3.193-5.432 3.939-3.18 0.254-6.715-0.117-8.631-2.025-1.61-1.691-1.635-4.721-0.6-6.371 1.965-3.35 7.05-2.35 6.833-2.345-0.099 0.105-3.258 0.639-3.84 1.299-1.451 1.056-1.797 3.294-0.701 4.721 1.361 1.714 5.102 1.999 7.114 0.793 1.821-0.961 2.552-2.527 2.141-4.405-0.196-1.491-2.609-2.867-3.999-3.496-1.451-0.802-1.69-0.884-3.301-0.996-2.153-0.47-4.4-1.764-5.197-3.922-0.555-1.728 0.735-3.306 1.916-4.409 0.476-0.451 0.945-0.91 1.456-1.321zm7.291 1.152c1.499-0.217-0.516-1.395-1.347-1.134-2.227 0.324 0.697 1.43 1.347 1.134z"/>
  <path d="m28.995 13.363c0.012-0.705 0.042-1.856 0.042-1.856-1.202-0.652-3.24-0.508-3.24-0.508s0.605 1.488 0.599 1.856c0.249 0.915 1.799 0.338 2.599 0.507z"/>
  <path d="m24.493 13.03c-0.312-0.678-0.623-1.355-0.935-2.033-1.048 0.018-2.58 0.116-2.935 0.68l1.377 1.857c0.522-0.023 1.972-0.48 2.493-0.504z"/>
  <path d="m21.18 13.92-1.935-1.197c-1.499 0.188-2.96 2.045-2.96 2.045s1.757 0.57 1.979 0.87c0.28 0.186 0.57 1.248 0.876 0.758 0.515-0.478 1.525-1.998 2.04-2.477z"/>
  <path d="m18.251 16.305c-0.777 0.126-1.553 0.252-2.33 0.378-1.137 1.969-0.511 3.216-0.511 3.216s1.833-0.669 2.59-0.899c0.084-0.898 0.168-1.797 0.251-2.695z"/>
  <path d="m18.264 19.812c-0.833 0.495-1.9 0.707-2.264 1.686 0.344 0.624 0.781 1.483 1.586 2.393 0.311-0.99 1.111-1.588 1.414-1.891-0.167-0.495-0.569-1.693-0.736-2.188z"/>
 </g>
</svg>
