<svg viewBox="0 0 48 48" xmlns="http://www.w3.org/2000/svg">
 <defs>
  <linearGradient id="linearGradient3764" x1="1" x2="47" gradientTransform="translate(-48 .0022147)" gradientUnits="userSpaceOnUse">
   <stop stop-color="#0d3c55" offset="0"/>
   <stop stop-color="#104966" offset="1"/>
  </linearGradient>
  <clipPath id="clipPath-991692875">
   <g transform="translate(0 -1004.4)">
    <rect x="1" y="1005.4" width="46" height="46" rx="4" fill="#1890d0"/>
   </g>
  </clipPath>
  <clipPath id="clipPath-005061060">
   <g transform="translate(0 -1004.4)">
    <rect x="1" y="1005.4" width="46" height="46" rx="4" fill="#1890d0"/>
   </g>
  </clipPath>
 </defs>
 <g>
  <path d="m1 43v0.25c0 2.216 1.784 4 4 4h38c2.216 0 4-1.784 4-4v-0.25c0 2.216-1.784 4-4 4h-38c-2.216 0-4-1.784-4-4zm0 0.5v0.5c0 2.216 1.784 4 4 4h38c2.216 0 4-1.784 4-4v-0.5c0 2.216-1.784 4-4 4h-38c-2.216 0-4-1.784-4-4z" opacity=".02"/>
  <path d="m1 43.25v0.25c0 2.216 1.784 4 4 4h38c2.216 0 4-1.784 4-4v-0.25c0 2.216-1.784 4-4 4h-38c-2.216 0-4-1.784-4-4z" opacity=".05"/>
  <path d="m1 43v0.25c0 2.216 1.784 4 4 4h38c2.216 0 4-1.784 4-4v-0.25c0 2.216-1.784 4-4 4h-38c-2.216 0-4-1.784-4-4z" opacity=".1"/>
 </g>
 <g>
  <rect transform="rotate(-90)" x="-47" y="1" width="46" height="46" rx="4" fill="url(#linearGradient3764)"/>
 </g>
 <g>
  <g clip-path="url(#clipPath-991692875)">
   <g opacity=".1">
    <g>
     <g>
      <g>
       <path d="m18.15 11.04c-0.973-0.258-2.184 0.453-2.449 1.414l-4.66 17.387c-0.258 0.969 0.449 2.191 1.414 2.449l14.488 3.883 2.898 0.777c0.969 0.258 2.191-0.445 2.449-1.414l1.035-3.863 3.625-13.52c0.254-0.957-0.461-2.195-1.414-2.449l-17.387-4.66m0-4e-3"/>
       <path d="m15 13c-1 0-2 1-2 2v18c0 1 0.996 2 2 2h13l7-7v-13c0-0.992-1.012-2-2-2m-18 0"/>
       <path d="m18 16c-2 0-2 0-2 2v12c0 2.01 0 2 2 2h12c0.449 0 0.762-8e-3 1.031-0.031l0.938-0.938c0.023-0.27 0.031-0.586 0.031-1.031v-12c0-2.01 0-2-2-2m-12 0"/>
      </g>
      <path d="m21.13 22-5.125 4.688v3.313c0 2.01 0 2 2 2h12c0.449 0 0.762-8e-3 1.031-0.031l0.938-0.938c0.023-0.27 0.031-0.586 0.031-1.031v-0.688l-5.281-5.75-2.406 2m-3.188-3.563" fill-rule="evenodd"/>
      <path d="m28 35 7-7h-5c-0.996 0-1.996 0.996-1.996 1.996v5m-4e-3 4e-3"/>
     </g>
    </g>
   </g>
  </g>
 </g>
 <g>
  <g clip-path="url(#clipPath-005061060)">
   <g transform="translate(0,-1)">
    <g>
     <g>
      <g>
       <path d="m18.15 11.04c-0.973-0.258-2.184 0.453-2.449 1.414l-4.66 17.387c-0.258 0.969 0.449 2.191 1.414 2.449l14.488 3.883 2.898 0.777c0.969 0.258 2.191-0.445 2.449-1.414l1.035-3.863 3.625-13.52c0.254-0.957-0.461-2.195-1.414-2.449l-17.387-4.66m0-4e-3" fill="#aaa"/>
       <path d="m15 13c-1 0-2 1-2 2v18c0 1 0.996 2 2 2h13l7-7v-13c0-0.992-1.012-2-2-2m-18 0" fill="#f9f9f9"/>
       <path d="m18 16c-2 0-2 0-2 2v12c0 2.01 0 2 2 2h12c0.449 0 0.762-8e-3 1.031-0.031l0.938-0.938c0.023-0.27 0.031-0.586 0.031-1.031v-12c0-2.01 0-2-2-2m-12 0" fill="#70c1ea"/>
      </g>
      <path d="m21.13 22-5.125 4.688v3.313c0 2.01 0 2 2 2h12c0.449 0 0.762-8e-3 1.031-0.031l0.938-0.938c0.023-0.27 0.031-0.586 0.031-1.031v-0.688l-5.281-5.75-2.406 2m-3.188-3.563" fill="#197fb2" fill-rule="evenodd"/>
      <path d="m28 35 7-7h-5c-0.996 0-1.996 0.996-1.996 1.996v5m-4e-3 4e-3" fill="#ccc"/>
     </g>
    </g>
   </g>
  </g>
 </g>
 <g>
  <g transform="translate(0 -1004.4)">
   <path d="m1 1043.4v4c0 2.216 1.784 4 4 4h38c2.216 0 4-1.784 4-4v-4c0 2.216-1.784 4-4 4h-38c-2.216 0-4-1.784-4-4z" opacity=".1"/>
  </g>
 </g>
</svg>
