<svg width="48" height="48" version="1.1" viewBox="0 0 48 48" xmlns="http://www.w3.org/2000/svg">
 <defs>
  <linearGradient id="linearGradient4501" x1="-47" x2="-1" y1="2.8779e-15" y2="6.1232e-17" gradientUnits="userSpaceOnUse">
   <stop style="stop-color:#4e8d94" offset="0"/>
   <stop style="stop-color:#5599a1" offset="1"/>
  </linearGradient>
 </defs>
 <g transform="translate(0 3.949e-5)">
  <path d="m1 43v0.25c0 2.216 1.784 4 4 4h38c2.216 0 4-1.784 4-4v-0.25c0 2.216-1.784 4-4 4h-38c-2.216 0-4-1.784-4-4zm0 0.5v0.5c0 2.216 1.784 4 4 4h38c2.216 0 4-1.784 4-4v-0.5c0 2.216-1.784 4-4 4h-38c-2.216 0-4-1.784-4-4z" style="opacity:.02"/>
  <path d="m1 43.25v0.25c0 2.216 1.784 4 4 4h38c2.216 0 4-1.784 4-4v-0.25c0 2.216-1.784 4-4 4h-38c-2.216 0-4-1.784-4-4z" style="opacity:.05"/>
  <path d="m1 43v0.25c0 2.216 1.784 4 4 4h38c2.216 0 4-1.784 4-4v-0.25c0 2.216-1.784 4-4 4h-38c-2.216 0-4-1.784-4-4z" style="opacity:.1"/>
 </g>
 <rect transform="rotate(-90)" x="-47" y="1" width="46" height="46" rx="4" style="fill:url(#linearGradient4501)"/>
 <g transform="translate(0 3.949e-5)">
  <g transform="translate(0 -1004.4)">
   <path d="m1 1043.4v4c0 2.216 1.784 4 4 4h38c2.216 0 4-1.784 4-4v-4c0 2.216-1.784 4-4 4h-38c-2.216 0-4-1.784-4-4z" style="opacity:.1"/>
  </g>
 </g>
 <g transform="translate(1.6279e-6 -1)">
  <path d="m22 10v17c3.6675 7.4e-4 7.3311 2e-3 11 2e-3v-4.002h-7v-13zm6 0.54492v4.2207c4.2169 1.6461 6.9978 5.7075 7 10.234 3e-3 6.0751-4.9249 11-11 11s-11-4.9249-11-11c1.51e-4 -4.5311 2.7791-8.5984 7-10.246v-4.1953c-6.494 1.7968-10.997 7.7034-11 14.441-0.00382 8.2843 6.7157 15 15 15s15-6.7157 15-15c-3.54e-4 -6.7431-4.5011-12.657-11-14.455z" style="opacity:.1"/>
  <path d="m22 9v17c3.6675 7.4e-4 7.3311 2e-3 11 2e-3v-4.002h-7v-13z" style="fill:#f9f9f9"/>
 </g>
 <path d="m28 8.5449v4.2207c4.2169 1.6461 6.9978 5.7075 7 10.234 3e-3 6.0751-4.9249 11-11 11s-11-4.9249-11-11c1.51e-4 -4.5311 2.7791-8.5984 7-10.246v-4.1953c-6.494 1.7968-10.997 7.7034-11 14.441-0.00382 8.2843 6.7157 15 15 15s15-6.7157 15-15c-3.54e-4 -6.7431-4.5011-12.657-11-14.455z" style="fill:#f9f9f9"/>
</svg>
