<svg width="48" height="48" version="1.1" viewBox="0 0 48 48.000001" xmlns="http://www.w3.org/2000/svg">
 <defs>
  <linearGradient id="linearGradient4501" x1="-47" x2="-1" y1="2.8779e-15" y2="6.1232e-17" gradientUnits="userSpaceOnUse">
   <stop style="stop-color:#e4e4e4" offset="0"/>
   <stop style="stop-color:#eee" offset="1"/>
  </linearGradient>
 </defs>
 <g transform="translate(0 3.949e-5)">
  <path d="m1 43v0.25c0 2.216 1.784 4 4 4h38c2.216 0 4-1.784 4-4v-0.25c0 2.216-1.784 4-4 4h-38c-2.216 0-4-1.784-4-4zm0 0.5v0.5c0 2.216 1.784 4 4 4h38c2.216 0 4-1.784 4-4v-0.5c0 2.216-1.784 4-4 4h-38c-2.216 0-4-1.784-4-4z" style="opacity:.02"/>
  <path d="m1 43.25v0.25c0 2.216 1.784 4 4 4h38c2.216 0 4-1.784 4-4v-0.25c0 2.216-1.784 4-4 4h-38c-2.216 0-4-1.784-4-4z" style="opacity:.05"/>
  <path d="m1 43v0.25c0 2.216 1.784 4 4 4h38c2.216 0 4-1.784 4-4v-0.25c0 2.216-1.784 4-4 4h-38c-2.216 0-4-1.784-4-4z" style="opacity:.1"/>
 </g>
 <rect transform="rotate(-90)" x="-47" y="1" width="46" height="46" rx="4" style="fill:url(#linearGradient4501)"/>
 <g transform="translate(0 3.949e-5)">
  <g transform="translate(0 -1004.4)">
   <path d="m1 1043.4v4c0 2.216 1.784 4 4 4h38c2.216 0 4-1.784 4-4v-4c0 2.216-1.784 4-4 4h-38c-2.216 0-4-1.784-4-4z" style="opacity:.1"/>
  </g>
 </g>
 <path d="m36 17v14l-12 6-12-6v-14l12-6" style="opacity:.1"/>
 <path d="m36 16v14l-12 6-12-6v-14l12-6" style="fill:#bababa"/>
 <path d="m35 18-4 2v6l4 2z"/>
 <path d="m34.3 29.735-3.708-2.553-5.588 2.818v4.4z"/>
 <path d="m34.3 16.247-3.708 2.553-5.588-2.8v-4.418z"/>
 <path d="m13 18 4 2v6l-4 2z"/>
 <path d="m13.704 29.735 3.708-2.553 5.588 2.818v4.4z" style="fill:#000877"/>
 <path d="m13.704 16.247 3.708 2.553 5.588-2.8v-4.418z"/>
 <path d="m20 14c-1.657 0-3 1.343-3 3 0 0.645 0.216 1.229 0.563 1.719l0.125-0.063c-0.175-0.378-0.281-0.803-0.281-1.25 0-1.657 1.343-3 3-3 0.744 0 1.413 0.27 1.938 0.719-0.55-0.686-1.396-1.125-2.344-1.125z" style="fill:#f9f9f9"/>
 <path d="m29 23a5 5 0 1 1 -10 0 5 5 0 1 1 10 0z"/>
 <path d="m29.406 27.781-4.406 2.219v4.406l5.781-2.906c-0.258-1.33-0.744-2.567-1.375-3.719z" style="fill:#000877"/>
 <path d="m19.406 21.06c-0.253 0.598-0.406 1.247-0.406 1.938 0 2.761 2.239 5 5 5 1.702 0 3.222-0.857 4.125-2.156-2.109-2.619-5.194-4.406-8.719-4.781z" style="fill:#000877"/>
 <path d="m17 21.03c-1.409 0.106-2.752 0.449-4 0.969v6l4-2z" style="fill:#000877"/>
</svg>
