<svg style="" version="1.1" viewBox="0 0 48 48" xmlns="http://www.w3.org/2000/svg">
 <defs style="">
  <linearGradient id="linearGradient3764" x1="1" x2="47" style="" gradientTransform="translate(-48 .002215)" gradientUnits="userSpaceOnUse">
   <stop style="stop-color:#e3c69d" offset="0"/>
   <stop style="stop-color:#e7cfad" offset="1"/>
  </linearGradient>
 </defs>
 <path d="m1 43v0.25c0 2.216 1.784 4 4 4h38c2.216 0 4-1.784 4-4v-0.25c0 2.216-1.784 4-4 4h-38c-2.216 0-4-1.784-4-4zm0 0.5v0.5c0 2.216 1.784 4 4 4h38c2.216 0 4-1.784 4-4v-0.5c0 2.216-1.784 4-4 4h-38c-2.216 0-4-1.784-4-4z" style="opacity:.02"/>
 <path d="m1 43.25v0.25c0 2.216 1.784 4 4 4h38c2.216 0 4-1.784 4-4v-0.25c0 2.216-1.784 4-4 4h-38c-2.216 0-4-1.784-4-4z" style="opacity:.05"/>
 <path d="m1 43v0.25c0 2.216 1.784 4 4 4h38c2.216 0 4-1.784 4-4v-0.25c0 2.216-1.784 4-4 4h-38c-2.216 0-4-1.784-4-4z" style="opacity:.1"/>
 <rect transform="rotate(-90)" x="-47" y="1" width="46" height="46" rx="4" style="fill:url(#linearGradient3764)"/>
 <path d="m1 39v4c0 2.216 1.784 4 4 4h38c2.216 0 4-1.784 4-4v-4c0 2.216-1.784 4-4 4h-38c-2.216 0-4-1.784-4-4z" style="opacity:.1"/>
 <path d="m9 14v0.5c0.50362 0 0.70177-0.01656 1 0.5l8 19h1l8-19c0.29884-0.51761 0.50244-0.5 1-0.5v-0.5h-6v0.5c0.49789 0.03807 1 0.0089 1 0.94336 0 1.0865-4.5039 12.557-4.5039 12.557s-4.4961-11.474-4.4961-12.523c0-0.97996 1-0.97656 1-0.97656v-0.5zm21.5 0v0.5c0.99642 0 1.5 0.5 1.5 1.5v16c0 1-0.49443 1.5-1.5 1.5v0.5h6v-0.5c-1.0035 0-1.5-0.5-1.5-1.5v-16c0-1 0.50759-1.5 1.5-1.5v-0.5z" style="opacity:.1"/>
 <path d="m9 13v0.5c0.50362 0 0.70177-0.01656 1 0.5l8 19h1l8-19c0.29884-0.51761 0.50244-0.5 1-0.5v-0.5h-6v0.5c0.49789 0.03807 1 0.0089 1 0.94336 0 1.0865-4.5039 12.557-4.5039 12.557s-4.4961-11.474-4.4961-12.523c0-0.97996 1-0.97656 1-0.97656v-0.5zm21.5 0v0.5c0.99642 0 1.5 0.5 1.5 1.5v16c0 1-0.49443 1.5-1.5 1.5v0.5h6v-0.5c-1.0035 0-1.5-0.5-1.5-1.5v-16c0-1 0.50759-1.5 1.5-1.5v-0.5z" style="fill:#99400b"/>
</svg>
