<svg version="1.1" viewBox="0 0 48 48" xmlns="http://www.w3.org/2000/svg">
 <defs>
  <linearGradient id="lG4501" x1="-47" x2="-1" y1="2.88e-15" y2="6.12e-17" gradientUnits="userSpaceOnUse">
   <stop style="stop-color:#3e515b" offset="0"/>
   <stop style="stop-color:#455c67" offset="1"/>
  </linearGradient>
 </defs>
 <path d="m1 43v0.25c0 2.22 1.78 4 4 4h38c2.22 0 4-1.78 4-4v-0.25c0 2.22-1.78 4-4 4h-38c-2.22 0-4-1.78-4-4zm0 0.5v0.5c0 2.22 1.78 4 4 4h38c2.22 0 4-1.78 4-4v-0.5c0 2.22-1.78 4-4 4h-38c-2.22 0-4-1.78-4-4z" style="opacity:.02"/>
 <path d="m1 43.3v0.25c0 2.22 1.78 4 4 4h38c2.22 0 4-1.78 4-4v-0.25c0 2.22-1.78 4-4 4h-38c-2.22 0-4-1.78-4-4z" style="opacity:.05"/>
 <path d="m1 43v0.25c0 2.22 1.78 4 4 4h38c2.22 0 4-1.78 4-4v-0.25c0 2.22-1.78 4-4 4h-38c-2.22 0-4-1.78-4-4z" style="opacity:.1"/>
 <rect transform="rotate(-90)" x="-47" y="1" width="46" height="46" rx="4" style="fill:url(#lG4501)"/>
 <path d="m1 39v4c0 2.22 1.78 4 4 4h38c2.22 0 4-1.78 4-4v-4c0 2.22-1.78 4-4 4h-38c-2.22 0-4-1.78-4-4z" style="opacity:.1"/>
 <path d="m36 17v14l-12 6-12-6v-14" style="opacity:.1"/>
 <path d="m36 16v14l-12 6-12-6v-14l12-6" style="fill:#ccc"/>
 <path d="m23 11.6-9.3 4.66 3.71 2.55 5.59-2.8zm2 0v4.42l5.59 2.8 3.71-2.55zm-12 6.42v4c0 9.53e-4 4-0.969 4-0.969v-1.03zm10.9 0c-0.0897 0.0019-0.181 0.0069-0.271 0.0137-1.87 0.145-3.5 1.32-4.22 3.05l8.71 4.77c0.574-0.833 0.882-1.82 0.883-2.83 1.48e-4 -2.82-2.32-5.06-5.1-5zm11.1 0-4 2v6l4 2zm-4.41 9.18-1.19 0.6 1.38 3.72 3.52-1.77z" style="fill:#555"/>
 <path d="m17 21c-1.41 0.106-2.75 0.449-4 0.969v6l4-2zm2.41 0.0312c-0.253 0.598-0.406 1.25-0.406 1.94 0 2.76 2.24 5 5 5 1.7 0 3.22-0.857 4.12-2.16-2.11-2.62-5.19-4.41-8.72-4.78zm-1.99 6.12-3.71 2.55 9.3 4.67v-4.4zm12 0.6-4.41 2.22v4.41l5.78-2.91c-0.258-1.33-0.744-2.57-1.38-3.72z" style="fill:#5467c4"/>
 <path d="m20 14c-1.66 0-3 1.34-3 3 0 0.645 0.216 1.23 0.563 1.72l0.125-0.063c-0.175-0.378-0.281-0.803-0.281-1.25 0-1.66 1.34-3 3-3 0.744 0 1.41 0.27 1.94 0.719-0.55-0.686-1.4-1.12-2.34-1.12z" style="fill:#f5f5f5"/>
</svg>
