<svg version="1.1" viewBox="0 0 48 48" xmlns="http://www.w3.org/2000/svg">
 <defs>
  <linearGradient id="bg" x2="0" y1="1" y2="47" gradientUnits="userSpaceOnUse">
   <stop style="stop-color:#74abec" offset="0"/>
   <stop style="stop-color:#62a0ea" offset="1"/>
  </linearGradient>
 </defs>
 <path d="m1 43v0.25c0 2.22 1.78 4 4 4h38c2.22 0 4-1.78 4-4v-0.25c0 2.22-1.78 4-4 4h-38c-2.22 0-4-1.78-4-4zm0 0.5v0.5c0 2.22 1.78 4 4 4h38c2.22 0 4-1.78 4-4v-0.5c0 2.22-1.78 4-4 4h-38c-2.22 0-4-1.78-4-4z" style="opacity:.02"/>
 <path d="m1 43.2v0.25c0 2.22 1.78 4 4 4h38c2.22 0 4-1.78 4-4v-0.25c0 2.22-1.78 4-4 4h-38c-2.22 0-4-1.78-4-4z" style="opacity:.05"/>
 <path d="m1 43v0.25c0 2.22 1.78 4 4 4h38c2.22 0 4-1.78 4-4v-0.25c0 2.22-1.78 4-4 4h-38c-2.22 0-4-1.78-4-4z" style="opacity:.1"/>
 <rect x="1" y="1" width="46" height="46" rx="4" style="fill:url(#bg)"/>
 <path d="m1 39v4c0 2.22 1.78 4 4 4h38c2.22 0 4-1.78 4-4v-4c0 2.22-1.78 4-4 4h-38c-2.22 0-4-1.78-4-4z" style="opacity:.1"/>
 <path d="m11 29v1.5c0 0.277 0.223 0.5 0.5 0.5h15c3.5 0 7.5-1 10.5-2 0.474-0.158 1-0.6 1-1v-1z" style="opacity:.1"/>
 <path d="m12 22v-6s3 1 5 1v-1c0-1 0.96-1.45 2-2 4 6 5 8 14 10.5l2 3.5-12 1-12-1v-2c0-1 1-3 1-4z" style="fill:#404c68"/>
 <path d="m16 20c-1.1 0-2 0.895-2 2s0.895 2 2 2 2-0.895 2-2-0.895-2-2-2zm17 4.5c0 0.5 0.657 1.57 1 2-1 0.5-4 1.5-9 1.5h-14v1.5c0 0.277 0.223 0.5 0.5 0.5h15c3.5 0 7.5-1 10.5-2 0.474-0.158 1-0.6 1-1v-1c0-0.552-0.953-0.922-1.5-1z" style="fill:#f5f5f5"/>
 <path d="m19.5 17c-0.276 0-0.5 0.224-0.5 0.5s0.224 0.5 0.5 0.5 0.5-0.224 0.5-0.5-0.224-0.5-0.5-0.5zm1 2c-0.276 0-0.5 0.224-0.5 0.5s0.224 0.5 0.5 0.5 0.5-0.224 0.5-0.5-0.224-0.5-0.5-0.5zm1.5 1.5c-0.276 0-0.5 0.224-0.5 0.5s0.224 0.5 0.5 0.5 0.5-0.224 0.5-0.5-0.224-0.5-0.5-0.5zm1.5 1.5c-0.276 0-0.5 0.224-0.5 0.5s0.224 0.5 0.5 0.5 0.5-0.224 0.5-0.5-0.224-0.5-0.5-0.5zm2 1c-0.276 0-0.5 0.224-0.5 0.5s0.224 0.5 0.5 0.5 0.5-0.224 0.5-0.5-0.224-0.5-0.5-0.5zm2 1c-0.276 0-0.5 0.224-0.5 0.5s0.224 0.5 0.5 0.5 0.5-0.224 0.5-0.5-0.224-0.5-0.5-0.5zm2 0.5c-0.276 0-0.5 0.224-0.5 0.5s0.224 0.5 0.5 0.5 0.5-0.224 0.5-0.5-0.224-0.5-0.5-0.5zm2 0.5c-0.276 0-0.5 0.224-0.5 0.5s0.224 0.5 0.5 0.5 0.5-0.224 0.5-0.5-0.224-0.5-0.5-0.5zm-9 1c-0.276 0-0.5 0.224-0.5 0.5s0.224 0.5 0.5 0.5 0.5-0.224 0.5-0.5-0.224-0.5-0.5-0.5zm2 0c-0.276 0-0.5 0.224-0.5 0.5s0.224 0.5 0.5 0.5 0.5-0.224 0.5-0.5-0.224-0.5-0.5-0.5z" style="fill:#8c8c8c"/>
 <path d="m20.9 16.8-1.23 0.34c-0.199 0.0551-0.317 0.261-0.262 0.461 0.0551 0.199 0.261 0.317 0.461 0.262l1.49-0.414c-0.152-0.21-0.307-0.424-0.463-0.648zm1.23 1.66-1.61 0.599c-0.187 0.0867-0.269 0.308-0.184 0.496 0.0867 0.187 0.308 0.269 0.496 0.184l1.8-0.683c-0.167-0.192-0.334-0.39-0.498-0.596zm1.1 1.25-1.28 0.832c-0.168 0.123-0.204 0.358-0.0801 0.525 0.123 0.168 0.358 0.203 0.525 0.0801l1.39-0.911c-0.188-0.17-0.371-0.346-0.549-0.527zm1.35 1.19-1.23 1.23c-0.147 0.147-0.147 0.385 0 0.531 0.147 0.147 0.385 0.147 0.531 0l1.32-1.32c-0.215-0.144-0.42-0.292-0.619-0.443zm1.61 1.04-0.873 1.23c-0.119 0.168-0.0799 0.401 0.0879 0.521 0.169 0.12 0.403 0.0811 0.523-0.0879l0.934-1.32c-0.232-0.115-0.458-0.231-0.672-0.35zm1.72 0.834-0.725 1.45c-0.0931 0.186-0.0178 0.411 0.168 0.504 0.186 0.0931 0.411 0.0178 0.504-0.168l0.75-1.5c-0.241-0.0946-0.473-0.189-0.697-0.285zm1.69 0.65-0.439 1.31c-0.0608 0.199 0.0513 0.409 0.25 0.469 0.199 0.0608 0.409-0.0513 0.469-0.25l0.43-1.28c-0.244-0.0812-0.479-0.163-0.709-0.244zm1.54 0.512v1.41c0 0.207 0.168 0.375 0.375 0.375s0.375-0.168 0.375-0.375v-1.18c-0.255-0.0756-0.509-0.151-0.75-0.227z" style="fill:#f5f5f5"/>
</svg>
