<svg version="1.1" viewBox="0 0 48 48" xmlns="http://www.w3.org/2000/svg">
 <defs>
  <linearGradient id="bg" x1="-47" x2="-1" y1="0" y2="0" gradientUnits="userSpaceOnUse">
   <stop style="stop-color:#ba6b22" offset="0"/>
   <stop style="stop-color:#cb7525" offset="1"/>
  </linearGradient>
 </defs>
 <g transform="translate(0 0)">
  <path d="m1 43v0.25c0 2.216 1.784 4 4 4h38c2.216 0 4-1.784 4-4v-0.25c0 2.216-1.784 4-4 4h-38c-2.216 0-4-1.784-4-4zm0 0.5v0.5c0 2.216 1.784 4 4 4h38c2.216 0 4-1.784 4-4v-0.5c0 2.216-1.784 4-4 4h-38c-2.216 0-4-1.784-4-4z" style="opacity:.02"/>
  <path d="m1 43.25v0.25c0 2.216 1.784 4 4 4h38c2.216 0 4-1.784 4-4v-0.25c0 2.216-1.784 4-4 4h-38c-2.216 0-4-1.784-4-4z" style="opacity:.05"/>
  <path d="m1 43v0.25c0 2.216 1.784 4 4 4h38c2.216 0 4-1.784 4-4v-0.25c0 2.216-1.784 4-4 4h-38c-2.216 0-4-1.784-4-4z" style="opacity:.1"/>
 </g>
 <rect transform="rotate(-90)" x="-47" y="1" width="46" height="46" rx="4" style="fill:url(#bg)"/>
 <g transform="translate(0 3.949e-5)">
  <g transform="translate(0 -1004.4)">
   <path d="m1 1043.4v4c0 2.216 1.784 4 4 4h38c2.216 0 4-1.784 4-4v-4c0 2.216-1.784 4-4 4h-38c-2.216 0-4-1.784-4-4z" style="opacity:.1"/>
  </g>
 </g>
 <path d="m37 11-4 6h-21v1l-2 1v10h2v6h6v-3h6v3h6v-3h1l2-2 2 5 2 2 1-1-2-2v-20l2-2z" style="opacity:.1"/>
 <path d="m12 12v5h2l4-2v-3zm12 0v4h6v-4zm-14 6v10h5v-10zm2 11v5h6v-3l-4-2zm12 1v4h6v-4z" style="fill:#3d3d3d"/>
 <path d="m35 34 2 2 1-1-2-2v-20l2-2-1-1-2 2-1 11z" style="fill:#dada0c"/>
 <path d="m35 12-2 5-2-2h-17v1l1 7-1 7v1h17l2-2 2 5z" style="fill:#fc8855"/>
 <path d="m28 16 4 2v10l-4 2-1-7z" style="fill:#95cbe4"/>
 <rect x="14" y="16" width="14" height="14" style="fill:#dada0c"/>
 <path d="m14 31v1h4v-1h-4zm10 0v1h6v-1h-6z" style="opacity:.1"/>
</svg>
