<svg width="48" height="48" viewBox="0 0 48 48.000001" xmlns="http://www.w3.org/2000/svg">
  <defs>
    <linearGradient id="a" x1="1" x2="47" gradientTransform="translate(-48 .002)" gradientUnits="userSpaceOnUse">
      <stop offset="0" stop-color="#c6c6c6"/>
      <stop offset="1" stop-color="#d0d0d0"/>
    </linearGradient>
  </defs>
  <path d="M1 43v.25c0 2.216 1.784 4 4 4h38c2.216 0 4-1.784 4-4V43c0 2.216-1.784 4-4 4H5c-2.216 0-4-1.784-4-4zm0 .5v.5c0 2.216 1.784 4 4 4h38c2.216 0 4-1.784 4-4v-.5c0 2.216-1.784 4-4 4H5c-2.216 0-4-1.784-4-4z" opacity=".02"/>
  <path d="M1 43.25v.25c0 2.216 1.784 4 4 4h38c2.216 0 4-1.784 4-4v-.25c0 2.216-1.784 4-4 4H5c-2.216 0-4-1.784-4-4z" opacity=".05"/>
  <path d="M1 43v.25c0 2.216 1.784 4 4 4h38c2.216 0 4-1.784 4-4V43c0 2.216-1.784 4-4 4H5c-2.216 0-4-1.784-4-4z" opacity=".1"/>
  <rect transform="rotate(-90)" x="-47" y="1" width="46" height="46" rx="4" fill="url(#a)"/>
  <path d="M1 39v4c0 2.216 1.784 4 4 4h38c2.216 0 4-1.784 4-4v-4c0 2.216-1.784 4-4 4H5c-2.216 0-4-1.784-4-4zm12-27c-.554 0-1 .446-1 1v6c0 .554.446 1 1 1-.554 0-1 .446-1 1v14c0 .554.446 1 1 1h6c.554 0 1-.446 1-1 0 .554.446 1 1 1h14c.554 0 1-.446 1-1v-6c0-.554-.446-1-1-1 .554 0 1-.446 1-1V13c0-.554-.446-1-1-1h-6c-.554 0-1 .446-1 1 0-.554-.446-1-1-1zm15 7v8c0 .554.446 1 1 1h-8c-.554 0-1 .446-1 1v-8c0-.554-.446-1-1-1h8c.554 0 1-.446 1-1z" opacity=".1"/>
  <rect x="12" y="19" width="8" height="16" ry="1" fill="#4c4c4c"/>
  <rect x="20" y="27" width="16" height="8" ry="1" fill="#f5d767"/>
  <rect x="12" y="11" width="16" height="8" ry="1" fill="#1781c7"/>
  <rect x="28" y="11" width="8" height="16" ry="1" fill="#e547c9"/>
</svg>
