<svg version="1.1" viewBox="0 0 48 48" xmlns="http://www.w3.org/2000/svg">
 <defs>
  <linearGradient id="bg" x1="1" x2="47" gradientTransform="translate(-48)" gradientUnits="userSpaceOnUse">
   <stop stop-color="#e4e4e4" offset="0"/>
   <stop stop-color="#eee" offset="1"/>
  </linearGradient>
 </defs>
 <path d="m1 43v0.25c0 2.22 1.78 4 4 4h38c2.22 0 4-1.78 4-4v-0.25c0 2.22-1.78 4-4 4h-38c-2.22 0-4-1.78-4-4zm0 0.5v0.5c0 2.22 1.78 4 4 4h38c2.22 0 4-1.78 4-4v-0.5c0 2.22-1.78 4-4 4h-38c-2.22 0-4-1.78-4-4z" opacity=".02"/>
 <path d="m1 43.2v0.25c0 2.22 1.78 4 4 4h38c2.22 0 4-1.78 4-4v-0.25c0 2.22-1.78 4-4 4h-38c-2.22 0-4-1.78-4-4z" opacity=".05"/>
 <path d="m1 43v0.25c0 2.22 1.78 4 4 4h38c2.22 0 4-1.78 4-4v-0.25c0 2.22-1.78 4-4 4h-38c-2.22 0-4-1.78-4-4z" opacity=".1"/>
 <rect transform="rotate(-90)" x="-47" y="1" width="46" height="46" rx="4" style="fill:url(#bg)"/>
 <path d="m1 39v4c0 2.22 1.78 4 4 4h38c2.22 0 4-1.78 4-4v-4c0 2.22-1.78 4-4 4h-38c-2.22 0-4-1.78-4-4z" opacity=".1"/>
 <path d="m24 8c-2.07-0.0017-4.11 0.432-6 1.26 0.543 0.446 0.995 0.991 1.33 1.61 1.49-0.574 3.07-0.871 4.67-0.869 1.6 2e-3 3.18 0.303 4.67 0.881 0.334-0.617 0.783-1.16 1.32-1.61-1.89-0.83-3.93-1.27-5.99-1.27zm-9.5 2a3.5 3.5 0 0 0-3.5 3.5 3.5 3.5 0 0 0 3.5 3.5 3.5 3.5 0 0 0 3.5-3.5 3.5 3.5 0 0 0-3.5-3.5zm19 0a3.5 3.5 0 0 0-3.5 3.5 3.5 3.5 0 0 0 3.5 3.5 3.5 3.5 0 0 0 3.5-3.5 3.5 3.5 0 0 0-3.5-3.5zm4.24 7c-0.446 0.543-0.991 0.995-1.61 1.33 0.574 1.49 0.871 3.07 0.869 4.67-2e-3 1.6-0.303 3.18-0.881 4.67 0.617 0.334 1.16 0.783 1.61 1.32 0.83-1.89 1.27-3.93 1.27-5.99 0.0017-2.07-0.432-4.11-1.26-6zm-27.5 0.0117c-0.83 1.89-1.27 3.93-1.27 5.99-0.0017 2.07 0.432 4.11 1.26 6 0.446-0.543 0.991-0.995 1.61-1.33-0.574-1.49-0.871-3.07-0.869-4.67 2e-3 -1.6 0.303-3.18 0.881-4.67-0.617-0.334-1.16-0.783-1.61-1.32zm13.7 1.99c-2.21 0-4 1.79-4 4s1.79 4 4 4 4-1.79 4-4-1.79-4-4-4zm0 1c1.66 0 3 1.34 3 3s-1.34 3-3 3-3-1.34-3-3 1.34-3 3-3zm-9.5 9a3.5 3.5 0 0 0-3.5 3.5 3.5 3.5 0 0 0 3.5 3.5 3.5 3.5 0 0 0 3.5-3.5 3.5 3.5 0 0 0-3.5-3.5zm19 0a3.5 3.5 0 0 0-3.5 3.5 3.5 3.5 0 0 0 3.5 3.5 3.5 3.5 0 0 0 3.5-3.5 3.5 3.5 0 0 0-3.5-3.5zm-14.2 6.12c-0.334 0.617-0.783 1.16-1.32 1.61 1.89 0.83 3.93 1.27 5.99 1.27 2.07 2e-3 4.11-0.432 6-1.26-0.543-0.446-0.995-0.991-1.33-1.61-1.49 0.574-3.07 0.871-4.67 0.869-1.6-2e-3 -3.18-0.303-4.67-0.881z" style="opacity:.1"/>
 <circle cx="14.5" cy="12.5" r="3.5" style="fill:#cec606"/>
 <path d="m24 7c-2.07-0.0017-4.11 0.432-6 1.26 0.543 0.446 0.995 0.991 1.33 1.61 1.49-0.574 3.07-0.871 4.67-0.869 1.6 2e-3 3.18 0.303 4.67 0.881 0.334-0.617 0.783-1.16 1.32-1.61-1.89-0.83-3.93-1.27-5.99-1.27zm13.7 9c-0.446 0.543-0.991 0.995-1.61 1.33 0.574 1.49 0.871 3.07 0.869 4.67-2e-3 1.6-0.303 3.18-0.881 4.67 0.617 0.334 1.16 0.783 1.61 1.32 0.83-1.89 1.27-3.93 1.27-5.99 0.0017-2.07-0.432-4.11-1.26-6zm-27.5 0.0117c-0.83 1.89-1.27 3.93-1.27 5.99-0.0017 2.07 0.432 4.11 1.26 6 0.446-0.543 0.991-0.995 1.61-1.33-0.574-1.49-0.871-3.07-0.869-4.67 2e-3 -1.6 0.303-3.18 0.881-4.67-0.617-0.334-1.16-0.783-1.61-1.32zm13.7 1.99c-2.21 0-4 1.79-4 4s1.79 4 4 4 4-1.79 4-4-1.79-4-4-4zm0 1c1.66 0 3 1.34 3 3s-1.34 3-3 3-3-1.34-3-3 1.34-3 3-3zm-4.67 15.1c-0.334 0.617-0.783 1.16-1.32 1.61 1.89 0.83 3.93 1.27 5.99 1.27 2.07 2e-3 4.11-0.432 6-1.26-0.543-0.446-0.995-0.991-1.33-1.61-1.49 0.574-3.07 0.871-4.67 0.869-1.6-2e-3 -3.18-0.303-4.67-0.881z" style="fill:#474747"/>
 <circle cx="14.5" cy="31.5" r="3.5" style="fill:#16b220"/>
 <circle cx="33.5" cy="31.5" r="3.5" style="fill:#08bbe8"/>
 <circle cx="33.5" cy="12.5" r="3.5" style="fill:#f95047"/>
</svg>
