<svg version="1.1" viewBox="0 0 48 48" xmlns="http://www.w3.org/2000/svg">
 <defs>
  <linearGradient id="bg" x2="0" y1="1" y2="47" gradientUnits="userSpaceOnUse">
   <stop style="stop-color:#4e536e" offset="0"/>
   <stop style="stop-color:#464b62" offset="1"/>
  </linearGradient>
 </defs>
 <path d="m1 43v0.25c0 2.22 1.78 4 4 4h38c2.22 0 4-1.78 4-4v-0.25c0 2.22-1.78 4-4 4h-38c-2.22 0-4-1.78-4-4zm0 0.5v0.5c0 2.22 1.78 4 4 4h38c2.22 0 4-1.78 4-4v-0.5c0 2.22-1.78 4-4 4h-38c-2.22 0-4-1.78-4-4z" style="opacity:.02"/>
 <path d="m1 43.2v0.25c0 2.22 1.78 4 4 4h38c2.22 0 4-1.78 4-4v-0.25c0 2.22-1.78 4-4 4h-38c-2.22 0-4-1.78-4-4z" style="opacity:.05"/>
 <path d="m1 43v0.25c0 2.22 1.78 4 4 4h38c2.22 0 4-1.78 4-4v-0.25c0 2.22-1.78 4-4 4h-38c-2.22 0-4-1.78-4-4z" style="opacity:.1"/>
 <rect x="1" y="1" width="46" height="46" rx="4" style="fill:url(#bg)"/>
 <path d="m1 39v4c0 2.22 1.78 4 4 4h38c2.22 0 4-1.78 4-4v-4c0 2.22-1.78 4-4 4h-38c-2.22 0-4-1.78-4-4z" style="opacity:.1"/>
 <path d="m18 11c-6 0-8 3.93-8 7 0 1.39 1.44 2.83 3 4.56v4.44c0 0.552 0.448 1 1 1s1-0.448 1-1v-2c7 10 9 13 9 13s1.44-1.55 6-8.55v2.55c0 0.552 0.448 1 1 1s1-0.448 1-1v-5.53c0.338-0.494 0.635-0.945 1-1.47 2.07-2.95 5-5 5-7 0-3.07-2-7-8-7-5 0-6 6-6 6s-1-6-6-6z" style="opacity:.1;paint-order:stroke fill markers"/>
 <path d="m18 10c-6 0-8 3.93-8 7 0 1.39 1.44 2.83 3 4.56v4.44c0 0.552 0.448 1 1 1s1-0.448 1-1v-2c7 10 9 13 9 13s1.44-1.55 6-8.55v2.55c0 0.552 0.448 1 1 1s1-0.448 1-1v-5.53c0.338-0.494 0.635-0.945 1-1.47 2.07-2.95 5-5 5-7 0-3.07-2-7-8-7-5 0-6 6-6 6s-1-6-6-6z" style="fill:#c35b5b;paint-order:stroke fill markers"/>
 <path d="m21 11v4h2.74c-0.201-0.645-0.543-1.51-1.09-2.35l-1.65-1.65zm6 0-1.65 1.65c-0.547 0.837-0.889 1.7-1.09 2.35h2.74v-4zm-3 5c-4.42 0-8 3.13-8 7 0.0025 1.88 0.87 3.68 2.41 5l-0.42 0.301c0.173 0.249 0.328 0.469 0.49 0.703h0.523v0.754c0.541 0.78 1.32 1.89 1.74 2.5 0.877 0.456 2.01 0.742 3.26 0.742 1.4 0 2.66-0.348 3.57-0.904 0.414-0.607 0.927-1.38 1.43-2.14v-0.953h0.635c0.139-0.212 0.22-0.324 0.365-0.547v0.547h1l-1.4-1c1.54-1.32 2.4-3.12 2.4-5 0-3.87-3.58-7-8-7z" style="opacity:.1;paint-order:stroke fill markers"/>
 <path d="m24 15c-4.42 0-8 3.13-8 7 0.0025 1.88 0.87 3.68 2.41 5l-1.41 1h2v1c0 1.66 2.24 3 5 3s5-1.34 5-3v-1h2l-1.4-1c1.54-1.32 2.4-3.12 2.4-5 0-3.87-3.58-7-8-7z" style="fill:#f9f9f9;paint-order:stroke fill markers"/>
 <path d="m29 18.9-4.43 3.69a2.75 4 0 0 0 2.72 3.44 2.75 4 0 0 0 2.73-3.61c0.998-0.759 1.02-1.39 1.02-1.39s-0.455 0.0268-1.04 0.318a2.75 4 0 0 0-0.998-2.45zm-9.92 2e-3a2.75 4 0 0 0-1 2.45c-0.588-0.292-1.04-0.318-1.04-0.318s0.0173 0.63 1.01 1.39a2.75 4 0 0 0 2.74 3.61 2.75 4 0 0 0 2.72-3.44l-4.43-3.69zm0.957 8.13v1h-1v1h1v1h1v-1h2v1h1v-1h3v1h1v-1h1v-1h-1v-1h-1v1h-3v-1h-1v1h-2v-1z" style="fill:#474747;paint-order:stroke fill markers"/>
 <path d="m21 14h6v-4l-2 2-1-2-1 2-2-2z" style="fill:#dfdf44"/>
</svg>
