<svg version="1.1" viewBox="0 0 48 48" xmlns="http://www.w3.org/2000/svg">
 <defs>
  <linearGradient id="bg" x2="0" y1="1" y2="47" gradientUnits="userSpaceOnUse">
   <stop style="stop-color:#444d78" offset="0"/>
   <stop style="stop-color:#3d456b" offset="1"/>
  </linearGradient>
 </defs>
 <path d="m1 43v0.25c0 2.216 1.784 4 4 4h38c2.216 0 4-1.784 4-4v-0.25c0 2.216-1.784 4-4 4h-38c-2.216 0-4-1.784-4-4zm0 0.5v0.5c0 2.216 1.784 4 4 4h38c2.216 0 4-1.784 4-4v-0.5c0 2.216-1.784 4-4 4h-38c-2.216 0-4-1.784-4-4z" style="opacity:.02"/>
 <path d="m1 43.25v0.25c0 2.216 1.784 4 4 4h38c2.216 0 4-1.784 4-4v-0.25c0 2.216-1.784 4-4 4h-38c-2.216 0-4-1.784-4-4z" style="opacity:.05"/>
 <path d="m1 43v0.25c0 2.216 1.784 4 4 4h38c2.216 0 4-1.784 4-4v-0.25c0 2.216-1.784 4-4 4h-38c-2.216 0-4-1.784-4-4z" style="opacity:.1"/>
 <rect x="1" y="1" width="46" height="46" rx="4" style="fill:url(#bg)"/>
 <path d="m1 39v4c0 2.216 1.784 4 4 4h38c2.216 0 4-1.784 4-4v-4c0 2.216-1.784 4-4 4h-38c-2.216 0-4-1.784-4-4z" style="opacity:.1"/>
 <path d="m18 10c-6 0-8 3.9268-8 7 0 1.3935 1.4373 2.8289 3 4.5586v4.4414a1 1 0 0 0 1 1 1 1 0 0 0 1-1v-2c0.48273 0.68962 0.88611 1.2974 1.3223 1.9395 0.36142 1.0906 1.0238 2.0942 1.9414 2.9219 0.03513 0.05438 0.06878 0.10817 0.10352 0.16211l-1.3672 0.97656h1.9961c9.09e-4 0.0014 3e-3 0.0025 0.0039 0.0039v0.9961c0 1.0034 0.829 1.887 2.0898 2.4316 2.1509 3.6936 2.9102 5.5684 2.9102 5.5684s0.80023-1.9165 2.9355-5.582c1.2455-0.54563 2.0645-1.4218 2.0645-2.418v-0.97461c0.0052-0.0082 0.01042-0.01715 0.01563-0.02539h0.98437v1a1 1 0 0 0 1 1 1 1 0 0 0 1-1v-5.5332c0.33831-0.49435 0.63492-0.94525 1-1.4668 2.0676-2.9538 5-5 5-7 0-3.0732-2-7-8-7-2.8567 0-4.3808 1.9498-5.1855 3.6289l-0.81445-1.6289-0.81445 1.6289c-0.80477-1.6791-2.3288-3.6289-5.1855-3.6289zm12 18.617v0.66797l-0.36328-0.25976c0.03554-0.05521 0.06562-0.10449 0.10156-0.16016 0.08966-0.08092 0.17699-0.1638 0.26172-0.24805z" style="opacity:.1;paint-order:stroke fill markers"/>
 <path d="m18 9c-6 0-8 3.9268-8 7 0 1.3935 1.4373 2.8289 3 4.5586v4.4414a1 1 0 0 0 1 1 1 1 0 0 0 1-1v-2c7 10 9 15 9 15s1.4445-3.5488 6-10.547v2.5469a1 1 0 0 0 1 1 1 1 0 0 0 1-1v-5.5332c0.33831-0.49435 0.63492-0.94525 1-1.4668 2.0676-2.9538 5-5 5-7 0-3.0732-2-7-8-7-5 0-6 6-6 6s-1-6-6-6z" style="fill:#d03333;paint-order:stroke fill markers"/>
 <path d="m24 16c-4.4183 0-8 3.134-8 7 0.0025 1.8806 0.86975 3.6812 2.4062 4.9961l-1.4062 1.0039h2v1c0 1.6569 2.2386 3 5 3s5-1.3431 5-3v-1h2l-1.4023-1.002c1.5356-1.316 2.4014-3.1173 2.4023-4.998 0-3.866-3.5817-7-8-7z" style="fill:#f9f9f9;paint-order:stroke fill markers"/>
 <path d="m28.959 19.867-4.4297 3.6914a2.75 4 0 0 0 2.7207 3.4414 2.75 4 0 0 0 2.7344-3.6094c0.99843-0.75939 1.0156-1.3906 1.0156-1.3906s-0.45518 0.02685-1.043 0.31836a2.75 4 0 0 0-0.99805-2.4512zm-9.916 2e-3a2.75 4 0 0 0-1 2.4492c-0.58778-0.29156-1.043-0.31841-1.043-0.31841s0.01734 0.63 1.0137 1.3887a2.75 4 0 0 0 2.7363 3.6113 2.75 4 0 0 0 2.7207-3.4414zm0.95703 8.1308v1h-1v1h1v1h1v-1h2v1h1v-1h3v1h1v-1h1v-1h-1v-1h-1v1h-3v-1h-1v1h-2v-1z" style="fill:#2d2d2d;paint-order:stroke fill markers"/>
 <path d="m21 15h6v-4l-2 2-1-2-1 2-2-2z" style="fill:#eded16"/>
</svg>
