<?xml version="1.0" encoding="UTF-8" standalone="no"?>
<svg
   xmlns:dc="http://purl.org/dc/elements/1.1/"
   xmlns:cc="http://creativecommons.org/ns#"
   xmlns:rdf="http://www.w3.org/1999/02/22-rdf-syntax-ns#"
   xmlns:svg="http://www.w3.org/2000/svg"
   xmlns="http://www.w3.org/2000/svg"
   xmlns:sodipodi="http://sodipodi.sourceforge.net/DTD/sodipodi-0.dtd"
   xmlns:inkscape="http://www.inkscape.org/namespaces/inkscape"
   viewBox="0 0 48 48"
   version="1.1"
   id="svg32250"
   sodipodi:docname="skype.svg">
  <metadata
     id="metadata32254">
    <rdf:RDF>
      <cc:Work
         rdf:about="">
        <dc:format>image/svg+xml</dc:format>
        <dc:type
           rdf:resource="http://purl.org/dc/dcmitype/StillImage" />
      </cc:Work>
    </rdf:RDF>
  </metadata>
  <sodipodi:namedview
     pagecolor="#ffffff"
     bordercolor="#666666"
     borderopacity="1"
     objecttolerance="10"
     gridtolerance="10"
     guidetolerance="10"
     inkscape:pageopacity="0"
     inkscape:pageshadow="2"
     inkscape:window-width="640"
     inkscape:window-height="480"
     id="namedview32252" />
  <defs
     id="defs32210">
    <linearGradient
       id="linearGradient3764"
       x1="1"
       x2="47"
       gradientUnits="userSpaceOnUse"
       gradientTransform="translate(-48.000001,0.00221467)">
      <stop
         stop-color="#0bb8f9"
         stop-opacity="1"
         id="stop32195" />
      <stop
         offset="1"
         stop-color="#20bef9"
         stop-opacity="1"
         id="stop32197" />
    </linearGradient>
    <clipPath
       id="clipPath-326276716">
      <g
         transform="translate(0,-1004.3622)"
         id="g32202">
        <rect
           rx="4"
           y="1005.36"
           x="1"
           height="46"
           width="46"
           fill="#1890d0"
           id="rect32200" />
      </g>
    </clipPath>
    <clipPath
       id="clipPath-339091034">
      <g
         transform="translate(0,-1004.3622)"
         id="g32207">
        <rect
           rx="4"
           y="1005.36"
           x="1"
           height="46"
           width="46"
           fill="#1890d0"
           id="rect32205" />
      </g>
    </clipPath>
  </defs>
  <g
     id="g32218">
    <path
       d="m 1 43 l 0 0.25 c 0 2.216 1.784 4 4 4 l 38 0 c 2.216 0 4 -1.784 4 -4 l 0 -0.25 c 0 2.216 -1.784 4 -4 4 l -38 0 c -2.216 0 -4 -1.784 -4 -4 z m 0 0.5 l 0 0.5 c 0 2.216 1.784 4 4 4 l 38 0 c 2.216 0 4 -1.784 4 -4 l 0 -0.5 c 0 2.216 -1.784 4 -4 4 l -38 0 c -2.216 0 -4 -1.784 -4 -4 z"
       opacity="0.02"
       id="path32212" />
    <path
       d="m 1 43.25 l 0 0.25 c 0 2.216 1.784 4 4 4 l 38 0 c 2.216 0 4 -1.784 4 -4 l 0 -0.25 c 0 2.216 -1.784 4 -4 4 l -38 0 c -2.216 0 -4 -1.784 -4 -4 z"
       opacity="0.05"
       id="path32214" />
    <path
       d="m 1 43 l 0 0.25 c 0 2.216 1.784 4 4 4 l 38 0 c 2.216 0 4 -1.784 4 -4 l 0 -0.25 c 0 2.216 -1.784 4 -4 4 l -38 0 c -2.216 0 -4 -1.784 -4 -4 z"
       opacity="0.1"
       id="path32216" />
  </g>
  <g
     id="g32222">
    <rect
       width="46"
       height="46"
       x="-47"
       y="1"
       rx="4"
       transform="matrix(0,-1,1,0,0,0)"
       fill="url(#linearGradient3764)"
       fill-opacity="1"
       id="rect32220" />
  </g>
  <g
     id="g32232">
    <g
       clip-path="url(#clipPath-326276716)"
       id="g32230">
      <g
         opacity="0.1"
         id="g32228">
        <!-- color: #20bef9 -->
        <g
           id="g32226">
          <path
             d="m 18.06 11 c -3.898 0 -7.05 3.156 -7.05 7.05 c 0 1.203 0.305 2.367 0.836 3.359 c -0.176 0.84 -0.273 1.695 -0.273 2.586 c 0 6.863 5.566 12.43 12.438 12.43 c 0.887 0 1.746 -0.094 2.582 -0.27 c 0.996 0.539 2.145 0.84 3.355 0.84 c 3.898 0 7.05 -3.156 7.05 -7.05 c 0 -1.211 -0.305 -2.367 -0.84 -3.363 c 0.191 -0.836 0.273 -1.695 0.273 -2.582 c 0 -6.859 -5.566 -12.43 -12.434 -12.43 c -0.891 0 -1.75 0.09 -2.586 0.27 c -0.988 -0.531 -2.152 -0.84 -3.355 -0.84 m 5.703 5.16 c 3.883 0 5.887 2.043 5.887 3.242 c 0 1.203 -0.578 1.383 -1.531 1.383 c -1.852 0 -1.094 -2.223 -4.563 -2.223 c -1.148 0 -2.582 0.523 -2.582 1.859 c 0 1.074 1.27 1.469 3.512 2.02 c 3.379 0.902 5.914 1.801 5.914 4.891 c 0 3 -2.453 4.504 -6.336 4.504 c -3.883 0 -6.363 -2.313 -6.363 -3.512 c 0 -1.199 0.457 -1.5 1.41 -1.5 c 1.855 0 1.605 2.523 5.074 2.523 c 1.148 0 2.852 -0.523 2.852 -1.863 c 0 -1.07 -0.09 -1.441 -2.551 -2.102 c -2.629 -0.355 -6.875 -1.207 -6.875 -4.473 c 0 -3 2.273 -4.746 6.156 -4.746 m 0 0"
             stroke="none"
             fill-rule="nonzero"
             fill-opacity="1"
             fill="#000"
             id="path32224" />
        </g>
      </g>
    </g>
  </g>
  <g
     id="g32242">
    <g
       clip-path="url(#clipPath-339091034)"
       id="g32240">
      <g
         transform="translate(0,-1)"
         id="g32238">
        <!-- color: #20bef9 -->
        <g
           id="g32236">
          <path
             d="m 18.06 11 c -3.898 0 -7.05 3.156 -7.05 7.05 c 0 1.203 0.305 2.367 0.836 3.359 c -0.176 0.84 -0.273 1.695 -0.273 2.586 c 0 6.863 5.566 12.43 12.438 12.43 c 0.887 0 1.746 -0.094 2.582 -0.27 c 0.996 0.539 2.145 0.84 3.355 0.84 c 3.898 0 7.05 -3.156 7.05 -7.05 c 0 -1.211 -0.305 -2.367 -0.84 -3.363 c 0.191 -0.836 0.273 -1.695 0.273 -2.582 c 0 -6.859 -5.566 -12.43 -12.434 -12.43 c -0.891 0 -1.75 0.09 -2.586 0.27 c -0.988 -0.531 -2.152 -0.84 -3.355 -0.84 m 5.703 5.16 c 3.883 0 5.887 2.043 5.887 3.242 c 0 1.203 -0.578 1.383 -1.531 1.383 c -1.852 0 -1.094 -2.223 -4.563 -2.223 c -1.148 0 -2.582 0.523 -2.582 1.859 c 0 1.074 1.27 1.469 3.512 2.02 c 3.379 0.902 5.914 1.801 5.914 4.891 c 0 3 -2.453 4.504 -6.336 4.504 c -3.883 0 -6.363 -2.313 -6.363 -3.512 c 0 -1.199 0.457 -1.5 1.41 -1.5 c 1.855 0 1.605 2.523 5.074 2.523 c 1.148 0 2.852 -0.523 2.852 -1.863 c 0 -1.07 -0.09 -1.441 -2.551 -2.102 c -2.629 -0.355 -6.875 -1.207 -6.875 -4.473 c 0 -3 2.273 -4.746 6.156 -4.746 m 0 0"
             fill="#fff"
             stroke="none"
             fill-rule="nonzero"
             fill-opacity="1"
             id="path32234" />
        </g>
      </g>
    </g>
  </g>
  <g
     id="g32248">
    <g
       transform="translate(0,-1004.3622)"
       id="g32246">
      <path
         d="m 1 1043.36 0 4 c 0 2.216 1.784 4 4 4 l 38 0 c 2.216 0 4 -1.784 4 -4 l 0 -4 c 0 2.216 -1.784 4 -4 4 l -38 0 c -2.216 0 -4 -1.784 -4 -4 z"
         opacity="0.1"
         id="path32244" />
    </g>
  </g>
</svg>
