<svg xmlns="http://www.w3.org/2000/svg" viewBox="0 0 48 48">
  <path d="M4.582 1.045l.004.004a4.012 4.012 0 0 0-1.149.273V1.32a3.99 3.99 0 0 0-2.44 3.686v15.143c2.144-.173 5.117.049 8.913-3.047 1.412-7.14 1.61-12.585-5.328-16.057z" fill="#20a58f"/>
  <path d="M1.002 43.002A3.983 3.983 0 0 0 4.994 47c4.91.005 10.49-.008 15.062.004.71-5.187-2.098-8.643-3.065-9-3.74.131-9.28.025-15.99 4.998z" fill="#40113f"/>
  <path d="M9.91 17.102L.996 20.149c-.002 7.843.009 16.078-.002 22.853 0 .159.014.316.031.47l15.97-5.468c-.539-8.164-1.986-16.153-7.084-20.902z" fill="#49c39e"/>
  <path d="M37.911 31.005c.297 2.663-2.927 4.334 5.321 15.981l-.002-.006a3.98 3.98 0 0 0 3.766-3.976l-.002-15.076c-7.647-.054-8.843 2.703-9.083 3.077z" fill="#d6100e"/>
  <path d="M16.996 38.004c.35 1.07 1.763 5.206 3.06 9 7.986.015 16.104.007 22.94.006.08 0 .156-.019.236-.024l-.002-.005c.045-.003.087-.018.133-.022L37.91 31.006C25.359 32.332 25.42 33.3 16.996 38.004z" fill="#e5186b"/>
  <path d="M27.691.998c-1.009 5.65 1.615 8.173 3.08 9.006 9.142.212 11.123-3.553 16.186-5.367A3.98 3.98 0 0 0 42.992.998h-15.3z" fill="#76971f"/>
  <path d="M46.928 4.48L30.77 10.005c-1.954 7.568-.195 14.729 7.14 21.001l9.084-3.077V5.002c0-.125-.026-.243-.037-.365-.005-.054-.022-.104-.03-.156z" fill="#edb624"/>
  <path d="M4.992 1.004c-.14 0-.273.027-.41.04l.004.005c-.052.005-.101.019-.152.025L9.91 17.102c9.743 1.792 16.31-1.137 20.86-7.098L27.691.998c-7.539.012-15.14.006-22.699.006z" fill="#82d2e0"/>
  <path d="M16.995 38.004l20.916-6.998-7.141-21.002-20.86 7.097 7.081 20.903z" fill="#f5f3f1"/>
  <path opacity=".02" d="M1 43v.25c0 2.216 1.784 4 4 4h38c2.216 0 4-1.784 4-4V43c0 2.216-1.784 4-4 4H5c-2.216 0-4-1.784-4-4zm0 .5v.5c0 2.216 1.784 4 4 4h38c2.216 0 4-1.784 4-4v-.5c0 2.216-1.784 4-4 4H5c-2.216 0-4-1.784-4-4z"/>
  <path opacity=".05" d="M1 43.25v.25c0 2.216 1.784 4 4 4h38c2.216 0 4-1.784 4-4v-.25c0 2.216-1.784 4-4 4H5c-2.216 0-4-1.784-4-4z"/>
  <path opacity=".1" d="M1 43v.25c0 2.216 1.784 4 4 4h38c2.216 0 4-1.784 4-4V43c0 2.216-1.784 4-4 4H5c-2.216 0-4-1.784-4-4z"/>
  <path opacity=".1" d="M1 39v4c0 2.216 1.784 4 4 4h38c2.216 0 4-1.784 4-4v-4c0 2.216-1.784 4-4 4H5c-2.216 0-4-1.784-4-4zM24 33c-2.338 0-4.988-.967-6.084-1.996 0 0-.07-.357.367-1.366.438-1.008.886-1.464.886-1.464 1.389 1.155 3.138 1.828 4.898 1.72 1.422-.087 1.976-.598 1.976-1.508v-.045c0-.867-.49-1.348-2.858-1.725-3.61-.575-5.237-1.751-5.237-4.84v-.044c0-2.821 2.373-4.728 5.524-4.728 2.247 0 4.327.323 5.892 1.59 0 0-.25.86-.567 1.52a8.932 8.932 0 0 1-.788 1.293c-1.366-.955-2.672-1.273-3.972-1.273-1.3 0-2.318.728-2.318 1.484v.044c0 1.022.59 1.517 3.469 1.893 3.21.418 4.724 1.872 4.724 4.582v.045c0 3.088-2.585 4.822-5.912 4.822"/>
  <path d="M24 32c-2.338 0-4.988-.967-6.084-1.996 0 0-.07-.357.367-1.366.438-1.008.886-1.464.886-1.464 1.389 1.155 3.138 1.828 4.898 1.72 1.422-.087 1.976-.598 1.976-1.508v-.045c0-.867-.49-1.348-2.858-1.725-3.61-.575-5.237-1.751-5.237-4.84v-.044c0-2.821 2.373-4.728 5.524-4.728 2.247 0 4.327.323 5.892 1.59 0 0-.25.86-.567 1.52a8.932 8.932 0 0 1-.788 1.293c-1.366-.955-2.672-1.273-3.972-1.273-1.3 0-2.318.728-2.318 1.484v.044c0 1.022.59 1.517 3.469 1.893 3.21.418 4.724 1.872 4.724 4.582v.045c0 3.088-2.585 4.822-5.912 4.822" fill="#5c3a58"/>
</svg>
