<svg version="1.1" viewBox="0 0 48 48" xmlns="http://www.w3.org/2000/svg">
 <defs>
  <linearGradient id="bg" x2="0" y1="1" y2="47" gradientUnits="userSpaceOnUse">
   <stop style="stop-color:#5ecdac" offset="0"/>
   <stop style="stop-color:#44c59e" offset="1"/>
  </linearGradient>
 </defs>
 <path d="m1 43v0.25c0 2.216 1.784 4 4 4h38c2.216 0 4-1.784 4-4v-0.25c0 2.216-1.784 4-4 4h-38c-2.216 0-4-1.784-4-4zm0 0.5v0.5c0 2.216 1.784 4 4 4h38c2.216 0 4-1.784 4-4v-0.5c0 2.216-1.784 4-4 4h-38c-2.216 0-4-1.784-4-4z" style="opacity:.02"/>
 <path d="m1 43.25v0.25c0 2.216 1.784 4 4 4h38c2.216 0 4-1.784 4-4v-0.25c0 2.216-1.784 4-4 4h-38c-2.216 0-4-1.784-4-4z" style="opacity:.05"/>
 <path d="m1 43v0.25c0 2.216 1.784 4 4 4h38c2.216 0 4-1.784 4-4v-0.25c0 2.216-1.784 4-4 4h-38c-2.216 0-4-1.784-4-4z" style="opacity:.1"/>
 <rect x="1" y="1" width="46" height="46" rx="4" style="fill:url(#bg)"/>
 <path d="m1 39v4c0 2.216 1.784 4 4 4h38c2.216 0 4-1.784 4-4v-4c0 2.216-1.784 4-4 4h-38c-2.216 0-4-1.784-4-4z" style="opacity:.1"/>
 <path d="m12 27c0-12 11-15 13-15s11 3 11 17c0 4.9216-8 7-13 7s-11-4.2624-11-9z" style="opacity:.1"/>
 <path d="m25 11c-1.7268 0-10.157 2.2421-12.43 10.576l10.43 10.424 12.816-7.2637c-1.2714-11.208-8.9828-13.736-10.816-13.736z" style="fill:#e7466c"/>
 <path d="m12.57 21.576c-0.35962 1.3188-0.57031 2.7844-0.57031 4.4238 0 4.7376 6 9 11 9s13-2.0784 13-7c0-1.1647-0.068224-2.2466-0.18359-3.2637-3.7926 0.44247-8.9036 0.82264-12.816 0.26367-4.6153-0.65932-8.1933-2.2179-10.43-3.4238z" style="fill:#e42f4d"/>
 <path d="m20.25 21.975c-1.4117 0.94001-2.2471 2.4346-2.25 4.0254 0 2.7614 2.4624 5 5.5 5s5.5-2.2386 5.5-5c-0.0015-1.0916-0.39592-2.1528-1.123-3.0215-0.85311 0.64824-2.0834 1.0204-3.377 1.0215-1.9197-0.0017-3.6264-0.81503-4.25-2.0254z" style="fill:#5e0009;paint-order:stroke fill markers"/>
 <ellipse cx="31.5" cy="22" rx="1.5" ry="2" style="fill:#5e0009;paint-order:stroke fill markers"/>
 <ellipse cx="17.5" cy="20" rx="1.5" ry="2" style="fill:#5e0009;paint-order:stroke fill markers"/>
 <circle cx="17.5" cy="19.5" r=".5" style="fill:#f9f9f9;paint-order:stroke fill markers"/>
 <circle cx="31.5" cy="21.5" r=".5" style="fill:#f9f9f9;paint-order:stroke fill markers"/>
 <ellipse cx="24" cy="28.5" rx="3" ry="1.5" style="fill:#e7466c;paint-order:stroke fill markers"/>
</svg>
