<svg version="1.1" viewBox="0 0 48 48" xmlns="http://www.w3.org/2000/svg" xmlns:xlink="http://www.w3.org/1999/xlink">
 <defs>
  <linearGradient id="linearGradient3764" x1="1" x2="47" gradientTransform="translate(-47.998 .0022147)" gradientUnits="userSpaceOnUse">
   <stop stop-color="#e6e6e6" offset="0"/>
   <stop stop-color="#f0f0f0" offset="1"/>
  </linearGradient>
 </defs>
 <g transform="translate(0 -1004.4)">
  <path d="m5 1006.4c-2.216 0-4 1.784-4 4v37.25c0 2.216 1.784 4 4 4h38c2.216 0 4-1.784 4-4v-37.25c0-2.216-1.784-4-4-4h-38zm-4 41.5v0.5c0 2.216 1.784 4 4 4h38c2.216 0 4-1.784 4-4v-0.5c0 2.216-1.784 4-4 4h-38c-2.216 0-4-1.784-4-4z" opacity=".02"/>
  <path d="m1 1047.6v0.25c0 2.216 1.784 4 4 4h38c2.216 0 4-1.784 4-4v-0.25c0 2.216-1.784 4-4 4h-38c-2.216 0-4-1.784-4-4z" opacity=".05"/>
  <rect x="1" y="1005.6" width="46" height="46" rx="4" opacity=".1"/>
 </g>
 <rect transform="rotate(-90)" x="-46.998" y="1" width="46" height="46" rx="4" fill="url(#linearGradient3764)"/>
 <path d="m12.969 1-1.4062 0.375-0.8125 0.25-0.9375-0.375-0.125 0.5625 1.125 0.65625s2.0432-1.125 2.1562-1.125l0.75-0.34375h-0.75zm2.7188 0-0.53125 0.15625-0.96875 0.0625-0.59375 0.4375-0.78125-0.03125 0.0625 0.5 1.125-0.03125 0.40625 1.0938 0.15625 0.59375-0.625 0.34375-0.25 0.46875 0.1875 1.0625 0.75 0.125 0.71875-0.6875 0.625-0.65625 0.96875-0.25 1.2188-0.59375 0.71875-0.875 1.0312-1.25 0.71875-0.1875-0.03125-0.28125h-1.125-3.7812zm19.156 0.1875-0.1875 0.3125 1.1562 0.15625 0.0625-0.28125-1.0312-0.1875zm-8.875 0.1875c-0.055 0.02-1.5312 0.03125-1.5312 0.03125l-0.375 0.09375 0.5 0.59375 0.53125-0.5 0.34375 0.21875 0.5-0.25s0.09025-0.2105 0.03125-0.1875zm5.625 0.46875-0.46875 0.0625-0.40625 0.25-0.46875 0.34375-0.28125 0.5 0.4375 0.4375 0.375 0.03125 0.15625-0.25-0.375-0.3125 0.21875-0.1875 0.03125-0.15625 0.46875-0.3125s0.61325 8e-3 0.65625 0c0.051-0.012 0.1875-0.1875 0.1875-0.1875l-0.15625-0.21875h-0.375zm-25.875 0.1875-0.09375 0.3125 0.46875 0.15625 0.53125-0.25-0.90625-0.21875zm31.781 0.09375-2.125 0.09375-0.5625 0.375-0.625 0.375-0.53125 0.4375 0.0625 0.1875-0.25 0.03125-0.03125-0.15625-0.3125-0.4375-0.65625-0.0625s0.15625 0.664 0.15625 0.75c0 0.082-0.4375 0.03125-0.4375 0.03125l-0.75 0.03125s-1.0778 0.25-1.2188 0.25c-0.129 0-0.7655 0.26225-0.8125 0.28125h-0.03125l-1.2188 0.65625-0.3125-0.21875-0.15625-0.25 0.0625-0.25 0.6875 0.03125 0.3125-0.125-0.625-0.3125-0.875-0.3125-0.875-0.15625-0.9375 0.1875-0.96875 0.78125-0.4375 0.4375-0.65625 0.71875-0.25 0.03125-0.09375 0.34375 0.125 0.34375s0.13725 0.15625 0.15625 0.15625c0.023 0 0.25-0.125 0.25-0.125s0.03125-0.11725 0.15625-0.15625c0.133-0.039 0.25-0.0625 0.25-0.0625l0.1875 0.375 0.21875 0.3125 0.09375 0.25s0.363-0.227 0.375-0.25c8e-3 -0.031 0.03125-0.40625 0.03125-0.40625l0.28125-0.1875s0.0705-0.13725 0.0625-0.15625c-0.012-0.023-0.1875-0.21875-0.1875-0.21875l-0.15625-0.0625 0.0625-0.3125s0.125-0.05075 0.125-0.09375 0.1875-0.21875 0.1875-0.21875l0.21875-0.25 0.15625-0.1875 0.21875-0.15625 0.28125 0.1875v0.125l-0.21875 0.25-0.09375 0.25v0.34375l0.21875 0.15625 0.34375-0.03125 0.3125-0.0625 0.28125 0.15625-0.0625 0.21875s-0.191 0.18775-0.25 0.21875c-0.055 0.031-0.41-0.06325-0.5-0.03125-0.09 0.031-0.34375 0.3125-0.34375 0.3125s-0.023 0.2495 0 0.3125c9e-3 0.01725 0.003937 0.057375 0 0.09375l-0.03125 0.03125-0.375 0.28125h-0.03125l-0.25-0.09375s-0.15575 0.0045-0.21875 0.0625c-0.063 0.051-0.1205 0.114-0.3125 0.125-0.191 0.027-0.55775 0-0.59375 0h-0.21875l0.03125-0.21875 0.15625-0.25-0.28125-0.21875s-0.1795 0.23125-0.1875 0.28125c-8e-3 0.055 0.125 0.28125 0.125 0.28125s-0.06275 0.17975-0.09375 0.21875-0.3125 0.125-0.3125 0.125l-0.4375-0.21875s-0.18425-0.0395-0.15625 0.0625c0.023 0.102 0.21875 0.19525 0.21875 0.28125 0 0.082-0.125 0.28125-0.125 0.28125l-0.15625 0.1875-0.25 0.25-0.34375 0.09375s-0.2495 0.06975-0.3125 0.09375c-0.063 0.023-0.25 0.0625-0.25 0.0625l-0.25 0.03125-0.15625 0.21875 0.28125 0.1875 0.1875 0.3125s0.12525 0.21875 0.15625 0.21875 0.09375 0.21875 0.09375 0.21875l-0.1875 0.25h-0.09375l-0.65625 0.125-0.125-0.28125-0.4375 0.4375-0.1875 0.71875v0.59375l0.75 0.40625 0.59375-0.21875 0.59375-1.0625 0.53125-0.65625 0.96875-0.15625 0.21875-0.1875 1.0938 1.2812 0.125 0.4375 0.3125-0.15625-0.09375-0.375h0.1875l-0.125-0.25-1.0625-1 0.09375-0.1875 0.34375-0.03125 0.75 0.75 0.375 0.4375v0.6875l0.1875 0.125 0.03125 0.03125c0.16893-0.067867 0.32582-0.1358 0.5-0.1875l-0.03125-0.125 0.09375-0.34375 0.1875-0.21875 0.4375 0.15625 0.15625 0.0625-0.03125-0.5 0.25-0.46875 0.15625-0.6875 0.5625 0.09375 0.09375 0.3125 0.21875 0.15625 0.25-0.21875-0.15625-0.34375h0.65625l-0.21875 0.375 0.4375 0.375 0.375 0.1875 0.15625 0.34375c0.48552 0.004276 0.94316 0.079934 1.4062 0.15625-0.098716-0.12128-0.23522-0.24464-0.3125-0.28125-0.137-0.066-0.25-0.28125-0.25-0.28125l0.125-0.53125s0.4295-0.35925 0.5625-0.40625c0.133-0.043 0.375 0.15625 0.375 0.15625l-0.25 0.21875 0.09375 0.3125 0.28125 0.75 0.125 0.1875c1.7566 0.4179 3.3296 1.3338 4.5938 2.6562 1.0375 1.0823 1.7816 2.4098 2.2188 3.8438 0.074392-0.099404 0.21379-0.272 0.25-0.28125 0.047-0.012 0.625-0.65625 0.625-0.65625l0.28125-0.34375 0.3125-0.1875 0.375-0.21875h0.15625l0.0625 0.34375 0.15625 0.40625 0.5 0.65625v0.25l0.09375 0.28125 0.34375-0.15625-0.03125-0.375 0.3125 0.0625 0.0625 0.34375-0.03125 0.53125 0.09375 0.375 0.28125 0.0625 0.09375-0.3125 0.34375 0.21875 0.0625 0.3125 0.3125 0.46875 0.3125 0.34375 0.21875 0.21875 0.53125-0.5 0.21875-0.40625-0.09375-0.5-0.09375-0.65625-0.59375-0.5625-0.09375-0.59375 0.25-0.40625s0.1565-0.289 0.3125-0.125c0.148 0.168 0.22725 0.188 0.15625 0.375-0.063 0.184-0.1875 0.59375-0.1875 0.59375l0.375 0.15625 0.15625-0.53125-0.15625-0.375 0.375-0.15625 0.6875-0.34375 0.4375-0.53125 0.34375-0.8125-0.03125-0.625-0.34375-0.75-0.6875-0.8125-0.4375-0.40625-0.21875-0.625 0.40625-0.09375s0.2305-0.3975 0.4375-0.1875c0.199 0.215 0.5 0.53125 0.5 0.53125s0.35225 0.563 0.40625 0.625c0.0204 0.0264 0.10648 0.10873 0.1875 0.1875v-4.7812c-0.12888-0.028476-0.75-0.46875-0.75-0.46875l0.0625-0.5 0.25-0.4375 0.4375-0.0625v-0.90625c0-0.35766-0.068988-0.70178-0.15625-1.0312l-0.53125-0.6875-1.6562-0.1875-1.2812-0.3125s-0.39075 0.2975-0.59375 0.3125c-0.203 0.016-0.90625 0.125-0.90625 0.125l-0.71875-0.4375-1.5-0.125-0.0625-0.03125-1.2812-0.0625-0.78125-0.4375h-0.03125zm-33.188 0.375-0.5 0.5625 0.4375 0.21875 0.5625-0.25 0.03125 0.625 0.4375 0.3125 0.5-0.46875 0.71875 0.125 0.28125-0.65625-1.125-0.09375-1.3438-0.375zm3.125 0.09375 0.4375 1.0938-0.53125 0.0625-0.40625 0.5-0.90625-0.28125-0.8125 0.3125-0.78125-0.1875-0.90625-0.5625-1.25 0.03125-1.0938 0.46875-0.03125-0.03125c-0.082308 0.32064-0.15625 0.65297-0.15625 1v11.062c0.05475-0.125 0.125-0.21875 0.125-0.21875l-0.0625-1.2812 0.71875-0.5 0.5625-0.1875h0.8125l1.125-0.25 0.40625 0.53125-0.0625 0.625 0.46875 0.40625 0.0625-0.4375s-0.02675-0.72325-0.09375-0.90625c-0.063-0.191 0.5625-0.625 0.5625-0.625l0.5-0.625 0.625-0.71875 0.25-0.5625 0.96875-0.5 0.59375-0.6875s0.934-0.148 1.125-0.25c0.191-0.094 0.066-0.438-0.125-0.75-0.191-0.313 0.09375-0.625 0.09375-0.625l0.71875-0.4375 0.625 0.125 0.0625 0.75s0.59425 0.56675 0.78125 0.46875c0.191-0.09 0.28125-0.40625 0.28125-0.40625l-0.3125-0.8125 0.1875-0.8125-0.84375 0.125v-1.375l-0.25 0.25-0.65625 0.03125-0.09375-0.6875-0.4375-0.53125s-0.42975 0.25025-0.84375 0.40625c-0.414 0.152-0.3125 0.46875-0.3125 0.46875l-0.03125 0.84375-0.6875 0.5625-0.40625 0.65625s-0.28125-0.1875-0.28125-0.3125-0.09375-0.46875-0.09375-0.46875l-0.71875-0.5625s-0.56175-0.40625-0.59375-0.53125c-0.031-0.125 0.34375-0.6875 0.34375-0.6875s0.809-0.50025 1-0.65625c0.188-0.156 1.2148 0.34 1.3438 0.25 0.125-0.094 0.625-0.875 0.625-0.875l0.4375-0.59375-0.4375 0.5-0.75-0.71875 0.125-0.75-1-0.125zm2.5 0.0625-0.25 0.59375 0.125 0.34375 0.59375-0.0625 0.25 0.46875-0.5 0.53125-0.59375 0.0625 0.5 0.21875 0.53125 0.46875 0.53125 0.125 0.1875-0.71875 0.03125-0.4375 0.625 0.09375s-0.19075 0.3125-0.09375 0.3125c0.098 0 0.46875-0.40625 0.46875-0.40625l-1.0625-1.0938s-0.4375-0.344-0.5625-0.25c-0.129 0.09-0.46875 0.0625-0.46875 0.0625l-0.3125-0.3125zm23.5 0.96875v0.03125l-3.3125 0.53125 3.3125-0.5625zm-14.844 0.78125-0.125 0.40625c0.453 0.348 0.625 0.34375 0.625 0.34375l0.53125-0.125 0.34375-0.34375-0.21875-0.28125h-1.1562zm2.7812 1.7812-0.25 0.21875c-0.07 0.305-0.15625 0.625-0.15625 0.625l0.46875 0.21875 0.0625 0.28125-0.25 0.25-0.21875 0.375 0.15625 0.15625 0.5625-0.09375 0.5-0.21875-0.28125-0.375-0.09375-0.65625-0.34375-0.375-0.15625-0.40625zm-0.78125 1.1875-0.28125 0.46875 0.375 0.15625 0.15625-0.28125-0.25-0.34375zm-15.438 1.0938 0.65625 0.28125 0.4375 0.5625 0.28125 0.4375s-0.2495 0.848-0.3125 1c-0.066 0.156-0.25-0.3125-0.25-0.3125l-0.15625-0.8125-0.53125 0.21875-0.40625 0.96875 0.09375-0.8125 0.125-0.5625-0.65625-0.25 0.5625-0.53125 0.15625-0.1875zm18.469 1.9375-0.375 0.71875 0.28125 0.28125 0.25-0.21875 0.03125-0.3125-0.1875-0.46875zm4.5938 0.21875-0.09375 0.0625 0.59375-0.0625h-0.5zm-0.1875 0.09375-0.40625 0.21875-0.125 0.1875-0.4375 0.09375v0.03125c0.32298-0.072312 0.64591-0.1478 0.96875-0.21875v-0.3125zm-5.6562 0.4375v0.1875l0.15625-0.03125-0.15625-0.15625zm2.1562 0.46875-0.1875 0.0625 0.3125 0.53125 0.28125-0.21875-0.40625-0.375zm-0.5625 0.15625-0.5625 0.03125-0.03125 0.3125-1.375-0.0625-0.4375 0.40625-0.84375 0.03125-0.5625 0.5-0.34375 0.96875-0.875 0.6875-0.625 0.84375-0.03125 1.625-0.1875 0.5c0.18677 0.002656 0.37703-0.013981 0.5625 0 0.73976 0.055703 1.4147 0.42795 2.125 0.65625 4e-3 -0.02053-0.0041-0.04164 0-0.0625 0.42766-2.1449 1.596-4.0578 3.25-5.4375l-0.0625-0.0625v-0.9375zm5.5625 1.6562c-0.97368 0.073317-1.9715 0.36151-2.8125 0.84375-1.6519 0.94979-2.8079 2.5961-3.1875 4.5-0.11351 0.57079-0.1235 0.64691-0.125 1.3125v0.625h0.09375l0.34375 0.25v0.53125l-0.125 0.4375-0.125 0.34375 0.3125 0.5625 0.40625 0.46875 0.1875 1.1875 0.03125 0.78125-0.28125 0.65625-0.03125 0.625 0.21875 1.1562 0.15625 0.15625c0.008319-0.083179-2.28e-4 -0.2172 0-0.6875v-2.4688l2.0312 1.2188 0.09375 0.03125c0.89632 0.3931 1.8357 0.4497 3 0.59375l0.5625-0.53125v-0.875l-0.1875-0.8125-0.125-1.125 0.59375-0.9375 1.0625-1.3125 0.40625-0.40625 0.15625-0.53125 0.25-0.46875 0.0625-0.6875h-0.59375l-0.28125 0.28125-0.5625-0.15625-0.34375-0.5625-0.28125-0.5625-0.65625-0.5-0.15625-0.8125-0.28125-0.46875-0.3125-0.59375-0.40625-0.71875-0.09375-0.46875 0.4375-0.0625 0.25 0.53125 0.5 0.9375 0.375 0.6875 0.40625 0.75 0.4375 0.71875 0.59375 0.59375 0.53125-0.5 0.59375-0.15625 0.4375-0.53125 0.59375-0.34375 0.375-0.59375v-0.5l-0.25-0.3125-0.375-0.4375-0.25 0.15625-0.15625 0.25-0.40625-0.1875-0.125-0.3125-0.28125-0.40625-0.4375-0.40625v-0.5c-0.16842-0.047281-0.32526-0.121-0.5-0.15625-0.52352-0.1063-1.044-0.10959-1.5312-0.09375h-0.21875zm2.4375 0.28125 0.09375 0.1875 0.34375 0.53125 0.59375 0.34375 0.40625-0.09375 0.25 0.25h0.5625c-0.66559-0.56176-1.4255-0.96246-2.25-1.2188zm-27.562 2.0938-0.3125 0.15625 0.53125 0.28125 0.59375 0.125 0.34375 0.46875 0.40625-0.25-0.0625-0.28125-0.6875-0.5h-0.8125zm-0.96875 0.40625-0.59375 0.09375-0.8125 0.84375-0.6875-0.09375s-0.2302-0.37317-0.34375-0.5625v1.1875l0.375-0.03125 0.71875 0.34375 1.0938 0.59375 0.15625 0.71875 0.875 0.84375 0.5-0.375 0.40625 0.3125-0.09375-0.71875-0.75 0.1875-0.25-0.90625-0.09375-0.40625-0.6875-0.625v-0.4375l0.53125-0.5625-0.34375-0.40625zm2.6562 2.6875-0.8125 0.4375-0.09375 0.90625-0.1875 1-0.5625 0.75 0.03125 1.125 0.46875 1.1562 0.5 1.4062 1.3125 1.3125 0.0625 0.75 0.09375 3.375 0.46875 1.9062s0.28475 1.1015 0.21875 1.1875c-0.07 0.09 0.375 0.90625 0.375 0.90625l0.875 1.375 1.2188 0.53125-0.5-0.59375-0.25-0.6875 0.25-0.71875-0.65625-0.34375s0.434-0.285 0.5-0.375-0.09375-0.46875-0.09375-0.46875l-0.1875-0.46875 0.5-0.65625 0.40625-0.09375c-0.80414-1.471-1.3095-3.0487-1.4375-4.7188-0.045285-0.59438-0.007877-1.268 0.0625-1.8438 0.22288-1.8149 0.9462-3.5043 2.0625-4.9062-0.13895-0.23338-0.36831-0.59375-0.4375-0.59375-0.086 0-0.65625 0.03125-0.65625 0.03125l-0.53125-0.53125-0.34375-0.65625-1.3438-0.28125-0.4375-0.21875h-0.875zm36.438 0.5c0.113 0.129 0.81325 2.2188 0.90625 2.2188 0.086 0 0.625 0.0625 0.625 0.0625l-0.28125-0.84375-1.25-1.4375zm4.4688 0.8125-1.4375 0.78125c0 0.09-0.71875 0.6875-0.71875 0.6875l0.1875 0.625 0.40625 0.46875 0.28125 0.6875 1.2812-0.84375v-2.4062zm-4.5625 0.40625-0.4375 0.0625 2 3 0.53125 0.59375 1.3125 0.0625 0.8125 0.25-0.875-0.625-1.25-0.34375-0.3125-1.1562-0.6875-0.5625-1.0938-1.2812zm-22.781 0.03125 0.15625 0.125 0.4375 0.09375v-0.03125c-0.19443-0.070579-0.39377-0.13552-0.59375-0.1875zm-6.3438 2.0938-0.34375 0.03125c-0.8424 1.0025-1.3932 2.2155-1.5625 3.5938-0.0076 0.062039-0.01141 1.194 0 1.3438 0.044471 0.58035 0.16283 1.1379 0.3125 1.6875l0.40625-0.96875 0.96875-0.46875s0.3125-0.9265 0.3125-1.0625c0-0.129 0.09375-1.5312 0.09375-1.5312l0.75-1.0312 0.09375-0.6875-0.5625-0.34375-0.46875-0.5625zm18.625 2.75v0.4375c-0.02 0.066-0.40625 0.375-0.40625 0.375l-0.46875 0.21875-0.3125 0.25 0.09375 0.09375c1.11e-4 8.3e-5 0.31239 0.34359 0.3125 0.34375s0.1249 0.21852 0.125 0.21875c2.1e-4 4.71e-4 0.04999 0.16899 0.0625 0.21875 0.02503 0.09952 0.0581 0.1521 0.0625 0.1875 0.0087 0.0708-0.0014 0.09655 0 0.125 0.0027 0.0569-4.07e-4 0.07818 0 0.125 6.78e-4 0.078027 6.29e-4 0.20137 0 0.3125 0.07196-0.046089 0.14319-0.1089 0.21875-0.15625l0.25-0.375-0.0625-0.5 0.375-0.59375 0.125-0.28125v-0.5625l-0.09375-0.4375h-0.28125zm14.969 1.875c-0.27838 0.05125-0.551 0.11125-0.5625 0.15625-0.023 0.086-0.5625 0.375-0.5625 0.375-0.113 0-0.46875 0.65625-0.46875 0.65625l-0.0625 2.0625-0.125 0.75 0.3125 0.40625 1.5312-0.53125 0.03125-0.03125v-3.8438c-0.043828 0.007597-0.048608-0.008311-0.09375 0zm-19.75 1.625c-0.1504 0.7365-0.3427 1.4268-0.625 2.0938l0.34375-0.03125h0.53125l0.96875-1.5 0.03125-0.34375c-0.39452-0.049765-0.80655-0.12667-1.25-0.21875zm-0.875 2.625c-0.1381 0.27363-0.29806 0.55268-0.46875 0.8125 0.17068-0.2598 0.32739-0.53498 0.46875-0.8125zm-14.812 3.3438-0.21875 0.15625-0.09375 0.03125 0.5 0.25-0.1875-0.4375zm-0.84375 0.1875-0.21875 0.5 0.4375-0.09375-0.21875-0.40625zm1.5 4.125-0.46875 0.71875-0.875 0.40625 0.5 0.625-0.75 0.375-2.4688-0.125-0.75-0.75-0.65625-0.125 0.65625 1.375-1.1562-0.21875-3.9688 0.125-0.84375 1.0938-0.34375-0.03125v0.25c0 2.216 1.784 4 4 4h38c2.216 0 4-1.784 4-4v-1.0625l-0.09375-0.03125-1.2188 0.15625-0.875 0.78125-1.4688 0.59375 0.625-0.75 1.3438-0.78125 1.6875-0.40625v-0.96875h-0.28125s-1.3438-0.66775-1.3438-0.84375-1.5-0.125-1.5-0.125l-1.7188 0.1875-1.6562-0.09375-3.3125 0.125-3.0625 0.625s-1.4772 0.793-1.6562 0.75c-0.18-0.039 0.625-1.0312 0.625-1.0312l-1.4375 0.09375-0.90625-0.75-0.90625 0.625s-1.2152 0.09375-1.5312 0.09375c-0.313 0-0.71875 0.5625-0.71875 0.5625l-2.4688-0.09375-4.25 0.1875-1.125 0.96875-0.28125 0.03125-3.2188-0.21875-2.2188 0.21875-0.78125-0.375 0.03125-0.0625s-0.65625-1.32-0.65625-1.5c0-0.176-0.5-0.625-0.5-0.625zm0.34375 3.1875 1.3438 0.4375h-1.6562l-0.65625-0.34375 0.96875-0.09375z" style="fill:#289c1f"/>
 <g transform="translate(0 -1004.4)">
  <path d="m1 1043.4v4c0 2.216 1.784 4 4 4h38c2.216 0 4-1.784 4-4v-4c0 2.216-1.784 4-4 4h-38c-2.216 0-4-1.784-4-4z" opacity=".1"/>
 </g>
 <path d="m19.573 20.02c1.1764 0.08858 2.3386 0.43937 3.3768 1.0346 2.0091 1.1551 3.4441 3.1571 3.9012 5.4496 0.12402 0.62362 0.14528 0.88583 0.14528 1.6583 0 0.54567-0.0035 0.72638-0.02835 0.91772-0.18071 1.3819-0.59173 2.4874-1.311 3.5823-0.68386 1.0453-1.5378 1.7965-2.6079 2.4201-1.4528 0.78661-2.661 1.0063-4.0535 0.91772-0.01417 0.01063 0 0.65906 0 1.637 0 0.72638 0.0071 1.3252 0 1.3323-0.0071 0.01063-0.0248 0.02835-0.02835 0.02835-1.3039-0.94961-3.1642-1.8638-4.2024-2.8134-2.2642-2.0941-3.5433-4.5992-3.7559-7.3736-0.02835-0.37205-0.01063-1.2791 0.02835-1.598 0.22323-1.8177 0.98504-3.4547 2.2146-4.7374 1.1516-1.2047 2.576-1.9843 4.1917-2.3102 0.69803-0.14173 1.4209-0.20197 2.126-0.14882z" style="opacity:.1"/>
 <path d="m30.426 13.018c-1.1764 0.08858-2.3386 0.43937-3.3768 1.0346-2.0091 1.1551-3.4441 3.1571-3.9012 5.4496-0.12402 0.62362-0.14528 0.88583-0.14528 1.6583 0 0.54567 0.0035 0.72638 0.02835 0.91772 0.18071 1.3819 0.59173 2.4874 1.311 3.5823 0.68386 1.0453 1.6087 1.9205 2.6787 2.5476 1.3783 0.64134 2.6787 0.60236 3.9827 0.79016 0.01417 0.01063 0 0.65906 0 1.637 0 0.72638-0.0071 1.3252 0 1.3323 0.0071 0.01063 0.0248 0.02835 0.02835 0.02835 1.4563-0.94961 3.1642-1.8638 4.2024-2.8134 2.2642-2.0941 3.5433-4.5992 3.7559-7.3736 0.02835-0.37205 0.01063-1.2791-0.02835-1.598-0.22323-1.8177-0.98504-3.4547-2.2146-4.7374-1.1516-1.2047-2.576-1.9843-4.1917-2.3102-0.69803-0.14173-1.4209-0.20197-2.126-0.14882z" style="opacity:.1"/>
 <use transform="matrix(3.5433 0 0 3.5433 14 -1.9984)" width="13.547" height="13.547" style="fill:#666666" xlink:href="#4"/>
 <path d="m18.574 19.02c1.1764 0.08858 2.3386 0.43937 3.3768 1.0346 2.0091 1.1551 3.4441 3.1571 3.9012 5.4496 0.12402 0.62362 0.14528 0.88583 0.14528 1.6583 0 0.54567-0.0035 0.72638-0.02835 0.91772-0.18071 1.3819-0.59173 2.4874-1.311 3.5823-0.68386 1.0453-1.5378 1.7965-2.6079 2.4201-1.4528 0.78661-2.661 1.0063-4.0535 0.91772-0.01417 0.01063 0 0.65906 0 1.637 0 0.72638 0.0071 1.3252 0 1.3323-0.0071 0.01063-0.0248 0.02835-0.02835 0.02835-1.3039-0.94961-3.1642-1.8638-4.2024-2.8134-2.2642-2.0941-3.5433-4.5992-3.7559-7.3736-0.028346-0.37205-0.01063-1.2791 0.02835-1.598 0.22323-1.8177 0.98504-3.4547 2.2146-4.7374 1.1516-1.2047 2.576-1.9843 4.1917-2.3102 0.69803-0.14173 1.4209-0.20197 2.126-0.14882z" style="fill:#fc9754"/>
 <path d="m23 27c0 0.55276-0.44646 0.99921-0.99921 0.99921s-0.99921-0.44646-0.99921-0.99921 0.44646-0.99921 0.99921-0.99921 0.99921 0.44646 0.99921 0.99921zm-4.0004 0c0 0.55276-0.44646 0.99921-0.99921 0.99921-0.55276 0-0.99921-0.44646-0.99921-0.99921s0.44646-0.99921 0.99921-0.99921c0.55276 0 0.99921 0.44646 0.99921 0.99921zm-4.0004 0c0 0.55276-0.44646 0.99921-0.99921 0.99921s-0.99921-0.44646-0.99921-0.99921 0.44646-0.99921 0.99921-0.99921 0.99921 0.44646 0.99921 0.99921z" style="fill:#f9f9f9"/>
 <path d="m6.1557 2.3991c-2.0812 0-3.7567 1.6755-3.7567 3.7567v35.689c0 2.0812 1.6755 3.7567 3.7567 3.7567h35.689c2.0812 0 3.7567-1.6755 3.7567-3.7567v-35.689c0-2.0812-1.6755-3.7567-3.7567-3.7567h-35.689zm1.5555 1.8783h32.578c1.9002 0 3.4338 1.5336 3.4338 3.4338v32.578c0 1.9002-1.5336 3.4338-3.4338 3.4338h-32.578c-1.9002 0-3.4338-1.5336-3.4338-3.4338v-32.578c0-1.9002 1.5336-3.4338 3.4338-3.4338z" style="fill:#e9e9e9"/>
 <path d="m5 1c-2.216 0-4 1.784-4 4v38c0 2.216 1.784 4 4 4h38c2.216 0 4-1.784 4-4v-38c0-2.216-1.784-4-4-4h-38zm1.6562 2h34.688c2.0233 0 3.6562 1.6329 3.6562 3.6562v34.688c0 2.0233-1.6329 3.6562-3.6562 3.6562h-34.688c-2.0233 0-3.6562-1.6329-3.6562-3.6562v-34.688c0-2.0233 1.6329-3.6562 3.6562-3.6562z" style="fill:#5fabff"/>
 <path d="m29.424 12.019c-1.1764 0.08858-2.3386 0.43937-3.3768 1.0346-2.0091 1.1551-3.4441 3.1571-3.9012 5.4496-0.12402 0.62362-0.14528 0.88583-0.14528 1.6583 0 0.54567 0.0035 0.72638 0.02835 0.91772 0.18071 1.3819 0.59173 2.4874 1.311 3.5823 0.68386 1.0453 1.6087 1.9205 2.6787 2.5476 1.3783 0.64134 2.6787 0.60236 3.9827 0.79016 0.01417 0.01063 0 0.65906 0 1.637 0 0.72638-0.0071 1.3252 0 1.3323 0.0071 0.01063 0.0248 0.02835 0.02835 0.02835 1.4563-0.94961 3.1642-1.8638 4.2024-2.8134 2.2642-2.0941 3.5433-4.5992 3.7559-7.3736 0.02835-0.37205 0.01063-1.2791-0.02835-1.598-0.22323-1.8177-0.98504-3.4547-2.2146-4.7374-1.1516-1.2047-2.576-1.9843-4.1917-2.3102-0.69803-0.14173-1.4209-0.20197-2.126-0.14882z" style="fill:#fc9754"/>
 <path d="m35.001 19.998c0 0.55276-0.44646 0.99921-0.99921 0.99921s-0.99921-0.44646-0.99921-0.99921 0.44646-0.99921 0.99921-0.99921 0.99921 0.44646 0.99921 0.99921zm-4.0004 0c0 0.55276-0.44646 0.99921-0.99921 0.99921s-0.99921-0.44646-0.99921-0.99921 0.44646-0.99921 0.99921-0.99921 0.99921 0.44646 0.99921 0.99921zm-4.0004 0c0 0.55276-0.44646 0.99921-0.99921 0.99921s-0.99921-0.44646-0.99921-0.99921 0.44646-0.99921 0.99921-0.99921 0.99921 0.44646 0.99921 0.99921z" style="fill:#f9f9f9"/>
 <g transform="translate(0 -1004.4)">
  <path d="m1 1043.4v4c0 2.216 1.784 4 4 4h38c2.216 0 4-1.784 4-4v-4c0 2.216-1.784 4-4 4h-38c-2.216 0-4-1.784-4-4z" style="opacity:.1"/>
 </g>
</svg>
