<svg viewBox="0 0 48 48" xmlns="http://www.w3.org/2000/svg">
 <defs>
  <linearGradient id="linearGradient3764" x1="1" x2="47" gradientTransform="translate(-48 .0022147)" gradientUnits="userSpaceOnUse">
   <stop stop-color="#4491ae" offset="0"/>
   <stop stop-color="#4d9bb9" offset="1"/>
  </linearGradient>
  <clipPath id="clipPath-020815978">
   <g transform="translate(0 -1004.4)">
    <rect x="1" y="1005.4" width="46" height="46" rx="4" fill="#1890d0"/>
   </g>
  </clipPath>
  <clipPath id="clipPath-051049810">
   <g transform="translate(0 -1004.4)">
    <rect x="1" y="1005.4" width="46" height="46" rx="4" fill="#1890d0"/>
   </g>
  </clipPath>
 </defs>
 <g>
  <path d="m1 43v0.25c0 2.216 1.784 4 4 4h38c2.216 0 4-1.784 4-4v-0.25c0 2.216-1.784 4-4 4h-38c-2.216 0-4-1.784-4-4zm0 0.5v0.5c0 2.216 1.784 4 4 4h38c2.216 0 4-1.784 4-4v-0.5c0 2.216-1.784 4-4 4h-38c-2.216 0-4-1.784-4-4z" opacity=".02"/>
  <path d="m1 43.25v0.25c0 2.216 1.784 4 4 4h38c2.216 0 4-1.784 4-4v-0.25c0 2.216-1.784 4-4 4h-38c-2.216 0-4-1.784-4-4z" opacity=".05"/>
  <path d="m1 43v0.25c0 2.216 1.784 4 4 4h38c2.216 0 4-1.784 4-4v-0.25c0 2.216-1.784 4-4 4h-38c-2.216 0-4-1.784-4-4z" opacity=".1"/>
 </g>
 <g>
  <rect transform="rotate(-90)" x="-47" y="1" width="46" height="46" rx="4" fill="url(#linearGradient3764)"/>
 </g>
 <g>
  <g clip-path="url(#clipPath-020815978)">
   <g opacity=".1">
    <g>
     <path d="m11.965 20c-0.57 0.027-0.965 0.156-0.965 0.766v12.773c0 0.809 0.699 1.457 1.574 1.457h22.824c0.879 0 1.602-0.648 1.602-1.457v-12.773c0-0.813-0.723-0.766-1.602-0.766h-22.824c-0.219 0-0.422-0.012-0.609 0"/>
     <path d="m15.05 13.402-3.25 4.598h11.195v-7h-5.508c-0.813 0-2.438 2.402-2.438 2.402m9.938-2.402v7h11.188l-3.25-4.598s-1.625-2.402-2.441-2.402m-5.492 0"/>
    </g>
   </g>
  </g>
 </g>
 <g>
  <g clip-path="url(#clipPath-051049810)">
   <g transform="translate(0,-1)">
    <g fill="#f9f9f9">
     <path d="m11.965 20c-0.57 0.027-0.965 0.156-0.965 0.766v12.773c0 0.809 0.699 1.457 1.574 1.457h22.824c0.879 0 1.602-0.648 1.602-1.457v-12.773c0-0.813-0.723-0.766-1.602-0.766h-22.824c-0.219 0-0.422-0.012-0.609 0"/>
     <path d="m15.05 13.402-3.25 4.598h11.195v-7h-5.508c-0.813 0-2.438 2.402-2.438 2.402m9.938-2.402v7h11.188l-3.25-4.598s-1.625-2.402-2.441-2.402m-5.492 0"/>
    </g>
   </g>
  </g>
 </g>
 <g>
  <g transform="translate(0 -1004.4)">
   <path d="m1 1043.4v4c0 2.216 1.784 4 4 4h38c2.216 0 4-1.784 4-4v-4c0 2.216-1.784 4-4 4h-38c-2.216 0-4-1.784-4-4z" opacity=".1"/>
  </g>
 </g>
</svg>
