<svg version="1.1" viewBox="0 0 48 48" xmlns="http://www.w3.org/2000/svg">
 <defs>
  <linearGradient id="bg" x1="1" x2="47" style="" gradientTransform="translate(-48)" gradientUnits="userSpaceOnUse">
   <stop style="stop-color:#424242" offset="0"/>
   <stop style="stop-color:#4d4d4d" offset="1"/>
  </linearGradient>
 </defs>
 <path d="m1 43v0.25c0 2.22 1.78 4 4 4h38c2.22 0 4-1.78 4-4v-0.25c0 2.22-1.78 4-4 4h-38c-2.22 0-4-1.78-4-4zm0 0.5v0.5c0 2.22 1.78 4 4 4h38c2.22 0 4-1.78 4-4v-0.5c0 2.22-1.78 4-4 4h-38c-2.22 0-4-1.78-4-4z" style="opacity:.02"/>
 <path d="m1 43.2v0.25c0 2.22 1.78 4 4 4h38c2.22 0 4-1.78 4-4v-0.25c0 2.22-1.78 4-4 4h-38c-2.22 0-4-1.78-4-4z" style="opacity:.05"/>
 <path d="m1 43v0.25c0 2.22 1.78 4 4 4h38c2.22 0 4-1.78 4-4v-0.25c0 2.22-1.78 4-4 4h-38c-2.22 0-4-1.78-4-4z" style="opacity:.1"/>
 <rect transform="rotate(-90)" x="-47" y="1" width="46" height="46" rx="4" style="fill:url(#bg)"/>
 <path d="m1 39v4c0 2.22 1.78 4 4 4h38c2.22 0 4-1.78 4-4v-4c0 2.22-1.78 4-4 4h-38c-2.22 0-4-1.78-4-4z" style="opacity:.1"/>
 <path d="m13.4 18.2c-1.78 3.08 2.57 2.31 2.58 5.85 0.0129 3.54-4.35 2.85-2.55 5.91 1.81 3.05 3.52-1.17 6.64 0.588 3.12 1.75 0.337 5.52 3.94 5.5 3.59-0.0275 0.79-3.75 3.9-5.54 3.1-1.79 4.84 2.46 6.63-0.617 1.79-3.08-2.55-2.31-2.56-5.84-0.0107-3.54 4.33-2.84 2.52-5.9zm10.6 2.85c1.66 0 3 1.34 3 3s-1.34 3-3 3-3-1.34-3-3 1.34-3 3-3z" style="opacity:.1"/>
 <path d="m24 11c-0.451 0.0011-0.81 0.0423-1.08 0.143-1.92 0.718-0.0967 3.83-2.82 5.39-3.11 1.79-4.85-2.46-6.64 0.617-1.78 3.08 2.57 2.31 2.58 5.85 0.0129 3.54-4.35 2.85-2.55 5.91 1.81 3.05 3.52-1.17 6.64 0.588 3.12 1.75 0.337 5.52 3.94 5.5 3.59-0.0275 0.79-3.75 3.9-5.54 3.1-1.79 4.84 2.46 6.63-0.617 1.79-3.08-2.55-2.31-2.56-5.84-0.0107-3.54 4.33-2.84 2.52-5.9-1.8-3.05-3.52 1.2-6.64-0.55-3.12-1.76-0.337-5.57-3.93-5.55zm0.0451 9c1.66 0 3 1.34 3 3s-1.34 3-3 3-3-1.34-3-3 1.34-3 3-3z" style="fill:#3dd0ff"/>
</svg>
