<svg id="svg33302" version="1.1" viewBox="0 0 48 48" xmlns="http://www.w3.org/2000/svg">
 <defs id="defs33262">
  <linearGradient id="linearGradient3764" x1="1" x2="47" gradientTransform="translate(-48 .0022147)" gradientUnits="userSpaceOnUse">
   <stop id="stop33247" stop-color="#e4e4e4" offset="0"/>
   <stop id="stop33249" stop-color="#eee" offset="1"/>
  </linearGradient>
  <clipPath id="clipPath-735908355">
   <g id="g33254" transform="translate(0 -1004.4)">
    <rect id="rect33252" x="1" y="1005.4" width="46" height="46" rx="4" fill="#1890d0"/>
   </g>
  </clipPath>
  <clipPath id="clipPath-748839056">
   <g id="g33259" transform="translate(0 -1004.4)">
    <rect id="rect33257" x="1" y="1005.4" width="46" height="46" rx="4" fill="#1890d0"/>
   </g>
  </clipPath>
 </defs>
 <g id="g33270">
  <path id="path33264" d="m1 43v0.25c0 2.216 1.784 4 4 4h38c2.216 0 4-1.784 4-4v-0.25c0 2.216-1.784 4-4 4h-38c-2.216 0-4-1.784-4-4zm0 0.5v0.5c0 2.216 1.784 4 4 4h38c2.216 0 4-1.784 4-4v-0.5c0 2.216-1.784 4-4 4h-38c-2.216 0-4-1.784-4-4z" opacity=".02"/>
  <path id="path33266" d="m1 43.25v0.25c0 2.216 1.784 4 4 4h38c2.216 0 4-1.784 4-4v-0.25c0 2.216-1.784 4-4 4h-38c-2.216 0-4-1.784-4-4z" opacity=".05"/>
  <path id="path33268" d="m1 43v0.25c0 2.216 1.784 4 4 4h38c2.216 0 4-1.784 4-4v-0.25c0 2.216-1.784 4-4 4h-38c-2.216 0-4-1.784-4-4z" opacity=".1"/>
 </g>
 <g id="g33274">
  <rect id="rect33272" transform="rotate(-90)" x="-47" y="1" width="46" height="46" rx="4" fill="url(#linearGradient3764)"/>
 </g>
 <g id="g33284">
  <g id="g33282" clip-path="url(#clipPath-735908355)">
   <g id="g33280" opacity=".1">
    <g id="g33278">
     <path id="path33276" d="m36 13.977s-2 3.01-5 3.01c-2.797-0.539-3.906-0.082-4 0v12.11c-0.133 2.551-2.223 5.109-5.336 6.285-3.949 1.492-8.125 0.195-9.332-2.91-1.211-3.098 1-6.855 4.953-8.348 3.059-1.152 5.867-0.867 7.715 0.867v-12.01c4-2.664 7.719 0.957 11 1"/>
    </g>
   </g>
  </g>
 </g>
 <g id="g33294">
  <g id="g33292" clip-path="url(#clipPath-748839056)">
   <g id="g33290" transform="translate(0,-1)">
    <g id="g33288">
     <path id="path33286" d="m36 13.977s-2 3.01-5 3.01c-2.797-0.539-3.906-0.082-4 0v12.11c-0.133 2.551-2.223 5.109-5.336 6.285-3.949 1.492-8.125 0.195-9.332-2.91-1.211-3.098 1-6.855 4.953-8.348 3.059-1.152 5.867-0.867 7.715 0.867v-12.01c4-2.664 7.719 0.957 11 1" fill="#1086b9"/>
    </g>
   </g>
  </g>
 </g>
 <g id="g33300">
  <g id="g33298" transform="translate(0 -1004.4)">
   <path id="path33296" d="m1 1043.4v4c0 2.216 1.784 4 4 4h38c2.216 0 4-1.784 4-4v-4c0 2.216-1.784 4-4 4h-38c-2.216 0-4-1.784-4-4z" opacity=".1"/>
  </g>
 </g>
</svg>
