<svg viewBox="0 0 48 48">
  <defs>
    <linearGradient id="a" x1="1" x2="47" gradientUnits="userSpaceOnUse" gradientTransform="translate(-48 .002)">
      <stop stop-color="#7eb3c6"/>
      <stop offset="1" stop-color="#8cbbcd"/>
    </linearGradient>
    <clipPath id="b"/>
    <clipPath id="c"/>
  </defs>
  <path d="M1 43v.25c0 2.216 1.784 4 4 4h38c2.216 0 4-1.784 4-4V43c0 2.216-1.784 4-4 4H5c-2.216 0-4-1.784-4-4zm0 .5v.5c0 2.216 1.784 4 4 4h38c2.216 0 4-1.784 4-4v-.5c0 2.216-1.784 4-4 4H5c-2.216 0-4-1.784-4-4z" opacity=".02"/>
  <path d="M1 43.25v.25c0 2.216 1.784 4 4 4h38c2.216 0 4-1.784 4-4v-.25c0 2.216-1.784 4-4 4H5c-2.216 0-4-1.784-4-4z" opacity=".05"/>
  <path d="M1 43v.25c0 2.216 1.784 4 4 4h38c2.216 0 4-1.784 4-4V43c0 2.216-1.784 4-4 4H5c-2.216 0-4-1.784-4-4z" opacity=".1"/>
  <rect width="46" height="46" x="-47" y="1" rx="4" transform="rotate(-90)" fill="url(#a)"/>
  <g clip-path="url(#b)">
    <path d="M19.379 34.32c-.254-.422-.469-.836-.469-.93 0-.09-.52-.23-1.156-.313-.727-.098-1.148-.266-1.148-.461 0-.172.613-.719 1.359-1.227 1.703-1.156 2.84-2.48 2.57-2.984-.109-.203-1.066-.871-2.121-1.492-2.18-1.273-3.699-2.402-4.648-3.441-1.32-1.453-2.285-4.273-1.457-4.273.176 0 1.184.402 2.246.898 2.02.938 5.184 1.855 6.414 1.855 1.344 0 1.492-1.797.227-2.73-.582-.434-.672-.645-.672-1.617 0-1.012-.082-1.184-.844-1.793L18 14.503l1.832.082c.629.027 1.031-.762 1.168-1.016.141-.25-.031-1.512 0-1.566.031-.051.777.805 1 1 .223.199.625.789 1.082.977 1.043.43 1.66 1.09 2.297 2.438.27.578.855 1.563 1.297 2.172.961 1.344.793 1.648-.676 1.211-1.273-.383-1.559-.195-1.559 1.035 0 1.043.262 1.254.813.652.234-.262.707-.457 1.098-.457 1.063 0 5.148-1.332 7.121-2.324 7.582-1.102-4.086 7.883-7.03 9.04-1.672.609-3.195 2.203-4.895 5.145-.641 1.109-1.289 2.059-1.438 2.105-.148.051-.484-.254-.738-.672m5.688-16.867c.168-.43-.465-1.137-.824-.914-.27.172-.34.883-.098 1.125.277.277.781.16.922-.211m0 0" opacity=".1"/>
  </g>
  <g>
    <g clip-path="url(#c)">
      <path d="M19.379 33.32c-.254-.422-.469-.836-.469-.93 0-.09-.52-.23-1.156-.313-.727-.098-1.148-.266-1.148-.461 0-.172.613-.719 1.359-1.227 1.703-1.156 2.84-2.48 2.57-2.984-.109-.203-1.066-.871-2.121-1.492-2.18-1.273-3.699-2.402-4.648-3.441-1.32-1.453-2.285-4.273-1.457-4.273.176 0 1.184.402 2.246.898 2.02.938 5.184 1.855 6.414 1.855 1.344 0 1.492-1.797.227-2.73-.582-.434-.672-.645-.672-1.617 0-1.012-.082-1.184-.844-1.793L18 13.503l1.832.082c.629.027 1.031-.762 1.168-1.016.141-.25-.031-1.512 0-1.566.031-.051.777.805 1 1 .223.199.625.789 1.082.977 1.043.43 1.66 1.09 2.297 2.438.27.578.855 1.563 1.297 2.172.961 1.344.793 1.648-.676 1.211-1.273-.383-1.559-.195-1.559 1.035 0 1.043.262 1.254.813.652.234-.262.707-.457 1.098-.457 1.063 0 5.148-1.332 7.121-2.324 7.582-1.102-4.086 7.883-7.03 9.04-1.672.609-3.195 2.203-4.895 5.145-.641 1.109-1.289 2.059-1.438 2.105-.148.051-.484-.254-.738-.672m5.688-16.867c.168-.43-.465-1.137-.824-.914-.27.172-.34.883-.098 1.125.277.277.781.16.922-.211m0 0" fill="#2d2d2d"/>
    </g>
  </g>
  <g>
    <path d="M1 38.998v4c0 2.216 1.784 4 4 4h38c2.216 0 4-1.784 4-4v-4c0 2.216-1.784 4-4 4H5c-2.216 0-4-1.784-4-4z" opacity=".1"/>
  </g>
</svg>
