<svg viewBox="0 0 48 48" xmlns="http://www.w3.org/2000/svg">
 <defs>
  <linearGradient id="linearGradient3764" x1="1" x2="47" gradientTransform="translate(-48 .0022147)" gradientUnits="userSpaceOnUse">
   <stop stop-color="#dc50b6" offset="0"/>
   <stop stop-color="#df61be" offset="1"/>
  </linearGradient>
  <clipPath id="clipPath-198718320">
   <g transform="translate(0 -1004.4)">
    <rect x="1" y="1005.4" width="46" height="46" rx="4" fill="#1890d0"/>
   </g>
  </clipPath>
  <clipPath id="clipPath-213086406">
   <g transform="translate(0 -1004.4)">
    <rect x="1" y="1005.4" width="46" height="46" rx="4" fill="#1890d0"/>
   </g>
  </clipPath>
 </defs>
 <g>
  <path d="m1 43v0.25c0 2.216 1.784 4 4 4h38c2.216 0 4-1.784 4-4v-0.25c0 2.216-1.784 4-4 4h-38c-2.216 0-4-1.784-4-4zm0 0.5v0.5c0 2.216 1.784 4 4 4h38c2.216 0 4-1.784 4-4v-0.5c0 2.216-1.784 4-4 4h-38c-2.216 0-4-1.784-4-4z" opacity=".02"/>
  <path d="m1 43.25v0.25c0 2.216 1.784 4 4 4h38c2.216 0 4-1.784 4-4v-0.25c0 2.216-1.784 4-4 4h-38c-2.216 0-4-1.784-4-4z" opacity=".05"/>
  <path d="m1 43v0.25c0 2.216 1.784 4 4 4h38c2.216 0 4-1.784 4-4v-0.25c0 2.216-1.784 4-4 4h-38c-2.216 0-4-1.784-4-4z" opacity=".1"/>
 </g>
 <g>
  <rect transform="rotate(-90)" x="-47" y="1" width="46" height="46" rx="4" fill="url(#linearGradient3764)"/>
 </g>
 <g>
  <g clip-path="url(#clipPath-198718320)">
   <g opacity=".1">
    <g>
     <path d="m0 0v48h12.75c7.828-14.73 18.16-33.762 25.938-48m-38.688 0"/>
     <path d="m35.594 8c-0.293 0.035-0.605 0.152-0.781 0.25-0.234 0.125-0.27 0.234-0.375 0.375-0.211 0.273-0.316 0.609-0.438 1-0.242 0.781-0.492 1.832-0.625 3.125-0.266 2.582-0.453 5.988-0.594 9.438-0.137 3.449-0.281 6.902-0.625 9.469-0.172 1.285-0.359 2.422-0.625 3.125-0.031 0.082-0.152 0.055-0.188 0.125-0.238-0.535-0.477-1.359-0.625-2.375-0.297-2.027-0.32-4.723-0.438-7.469-0.117-2.746-0.32-5.5-0.625-7.594-0.152-1.047-0.332-1.957-0.625-2.625-0.148-0.336-0.301-0.625-0.563-0.875-0.273-0.25-0.605-0.5-1.25-0.5-0.5 0-1.125 0.188-1.441 0.375-0.313 0.188-0.453 0.387-0.625 0.625-0.34 0.48-0.465 1.055-0.625 1.75-0.316 1.391-0.516 3.184-0.625 4.969-0.105 1.785-0.16 3.586-0.438 4.875-0.148 0.645-0.441 1.199-0.625 1.5-0.105 0.152-0.152 0.227-0.191 0.25-0.043 0-0.117-0.074-0.188-0.125-0.117-0.086-0.32-0.332-0.441-0.625-0.23-0.582-0.359-1.473-0.441-2.375-0.074-0.902-0.016-1.852-0.375-2.625-0.18-0.387-0.414-0.703-0.875-1-0.461-0.293-1.32-0.488-2.063-0.469-0.898 0.039-1.441 0.418-1.816 0.844-0.371 0.426-0.684 0.922-0.848 1.5-0.32 1.16-0.316 2.684-0.402 4.125-0.086 1.445-0.176 2.84-0.438 3.844-0.117 0.453-0.441 0.785-0.605 1-0.059-0.086-0.145-0.121-0.219-0.25-0.227-0.512-0.465-1.285-0.625-2.25-0.316-1.926-0.453-4.492-0.594-7.094-0.148-2.602-0.148-5.238-0.441-7.219-0.145-0.988-0.352-1.836-0.625-2.469-0.137-0.316-0.387-0.512-0.625-0.75-0.242-0.238-0.531-0.625-1.188-0.625-0.621 0-1.254 0.277-1.5 0.5s-0.238 0.461-0.375 0.75c-0.273 0.578-0.48 1.324-0.625 2.219-0.316 1.789-0.48 4.133-0.625 6.469-0.16 2.34-0.316 4.664-0.625 6.375-0.16 0.855-0.398 1.535-0.625 1.969-0.148-0.223-0.523-0.484-0.625-0.875-0.273-0.977-0.316-2.223-0.441-3.594-0.129-1.371-0.207-2.785-0.562-3.875-0.18-0.543-0.5-1.07-0.875-1.469-0.375-0.398-1.012-0.75-1.875-0.75-0.43 0-0.832 0.121-1.125 0.281v14.188c0.07-1.285 0.086-2.648 0.125-4.03 0.066-2.469 0.203-4.895 0.438-6.719 0.117-0.906 0.164-1.625 0.375-2.094 0.074-0.16 0.188-0.293 0.25-0.375 0.027 0.012 0.105 0.039 0.191 0.125 0.188 0.203 0.219 0.617 0.375 1.094 0.309 0.961 0.488 2.262 0.625 3.625 0.133 1.367 0.336 2.758 0.625 3.844 0.145 0.547 0.313 0.98 0.625 1.375 0.152 0.203 0.336 0.48 0.625 0.625 0.289 0.16 0.625 0.238 1.063 0.25 0.605 0 1.168-0.27 1.441-0.5 0.27-0.223 0.477-0.461 0.625-0.75 0.297-0.563 0.461-1.313 0.625-2.219 0.332-1.781 0.465-4.04 0.625-6.375 0.16-2.34 0.336-4.742 0.625-6.469 0.117-0.695 0.215-1.184 0.375-1.625 0.172 0.5 0.508 1.191 0.625 2 0.277 1.918 0.484 4.492 0.625 7.094 0.145 2.605 0.293 5.227 0.625 7.219 0.168 1 0.316 1.859 0.625 2.5 0.148 0.324 0.355 0.508 0.625 0.75 0.27 0.246 0.586 0.609 1.219 0.625 0.898 0.039 1.703-0.461 2.066-0.875 0.352-0.41 0.477-0.93 0.625-1.5 0.301-1.133 0.535-2.52 0.625-3.969 0.086-1.441 0.09-2.844 0.375-3.875 0.145-0.512 0.238-0.898 0.438-1.125 0.191-0.223 0.398-0.25 0.441-0.25 0.227 0 0.246 0.047 0.375 0.125 0.125 0.082 0.305 0.223 0.438 0.5 0.273 0.559 0.355 1.48 0.441 2.375 0.074 0.898 0.063 1.855 0.375 2.625 0.152 0.387 0.398 0.695 0.813 1 0.398 0.309 1.148 0.469 1.875 0.469 0.5 0 0.941-0.055 1.25-0.25 0.309-0.184 0.465-0.477 0.625-0.719 0.316-0.477 0.48-1.055 0.625-1.75 0.297-1.387 0.523-3.215 0.625-5 0.105-1.781 0.066-3.555 0.375-4.844 0.148-0.641 0.402-1.074 0.625-1.375 0.055 0.082 0.191 0.141 0.25 0.25 0.23 0.535 0.48 1.363 0.625 2.375 0.297 2.027 0.262 4.723 0.375 7.469 0.105 2.746 0.316 5.504 0.625 7.594 0.148 1.047 0.32 1.961 0.625 2.625 0.148 0.336 0.355 0.605 0.625 0.855 0.266 0.25 0.773 0.5 1.441 0.5 0.379 0 0.613-0.129 0.844-0.25 0.234-0.125 0.477-0.203 0.602-0.355 0.258-0.285 0.473-0.59 0.625-1 0.313-0.813 0.441-1.938 0.625-3.25 0.352-2.621 0.449-6.141 0.594-9.594 0.141-3.449 0.367-6.898 0.625-9.438 0.098-0.949 0.078-1.605 0.219-2.25 0.199 0.766 0.457 1.656 0.594 2.844 0.324 2.781 0.707 6.527 0.875 10.219 0.172 3.695 0.32 7.445 0.625 10.219 0.156 1.398 0.375 2.504 0.625 3.355 0.129 0.418 0.176 0.711 0.375 1 0.105 0.141 0.23 0.355 0.441 0.5 0.207 0.133 0.563 0.262 1 0.25 0.613-0.039 1.012-0.277 1.25-0.5 0.238-0.23 0.488-0.473 0.625-0.75 0.27-0.582 0.461-1.332 0.625-2.23 0.32-1.77 0.445-4.176 0.625-6.5 0.176-2.313 0.313-4.629 0.625-6.344 0.152-0.852 0.41-1.516 0.625-1.969 0.121 0.219 0.277 0.352 0.375 0.719 0.254 0.969 0.309 2.371 0.438 3.75 0.129 1.383 0.27 2.742 0.625 3.844 0.176 0.566 0.434 1.105 0.813 1.5 0.246 0.273 0.676 0.492 1.188 0.625v-2.594c-0.27-0.953-0.438-2.215-0.563-3.5-0.129-1.375-0.34-2.668-0.625-3.75-0.145-0.539-0.305-1.074-0.625-1.469-0.16-0.195-0.316-0.344-0.625-0.5s-0.75-0.262-1.188-0.25c-0.617 0-1.012 0.277-1.25 0.5s-0.301 0.461-0.438 0.75c-0.277 0.578-0.465 1.332-0.625 2.219-0.324 1.781-0.637 4.148-0.816 6.469-0.176 2.324-0.313 4.66-0.625 6.375-0.113 0.648-0.285 1.039-0.438 1.48-0.215-0.754-0.48-1.781-0.625-3.105-0.301-2.727-0.457-6.395-0.625-10.09s-0.234-7.395-0.566-10.219c-0.16-1.41-0.352-2.59-0.625-3.469-0.133-0.438-0.227-0.824-0.438-1.125-0.105-0.152-0.254-0.238-0.441-0.375-0.184-0.137-0.586-0.332-1-0.375-0.102-8e-3 -0.184-0.012-0.273 0m8e-3 -4e-3"/>
    </g>
   </g>
  </g>
 </g>
 <g>
  <g clip-path="url(#clipPath-213086406)">
   <g transform="translate(0,-1)">
    <g>
     <path d="m0 0v48h12.75c7.828-14.73 18.16-33.762 25.938-48m-38.688 0" fill="#4ab8e5"/>
     <path d="m35.594 8c-0.293 0.035-0.605 0.152-0.781 0.25-0.234 0.125-0.27 0.234-0.375 0.375-0.211 0.273-0.316 0.609-0.438 1-0.242 0.781-0.492 1.832-0.625 3.125-0.266 2.582-0.453 5.988-0.594 9.438-0.137 3.449-0.281 6.902-0.625 9.469-0.172 1.285-0.359 2.422-0.625 3.125-0.031 0.082-0.152 0.055-0.188 0.125-0.238-0.535-0.477-1.359-0.625-2.375-0.297-2.027-0.32-4.723-0.438-7.469-0.117-2.746-0.32-5.5-0.625-7.594-0.152-1.047-0.332-1.957-0.625-2.625-0.148-0.336-0.301-0.625-0.563-0.875-0.273-0.25-0.605-0.5-1.25-0.5-0.5 0-1.125 0.188-1.441 0.375-0.313 0.188-0.453 0.387-0.625 0.625-0.34 0.48-0.465 1.055-0.625 1.75-0.316 1.391-0.516 3.184-0.625 4.969-0.105 1.785-0.16 3.586-0.438 4.875-0.148 0.645-0.441 1.199-0.625 1.5-0.105 0.152-0.152 0.227-0.191 0.25-0.043 0-0.117-0.074-0.188-0.125-0.117-0.086-0.32-0.332-0.441-0.625-0.23-0.582-0.359-1.473-0.441-2.375-0.074-0.902-0.016-1.852-0.375-2.625-0.18-0.387-0.414-0.703-0.875-1-0.461-0.293-1.32-0.488-2.063-0.469-0.898 0.039-1.441 0.418-1.816 0.844-0.371 0.426-0.684 0.922-0.848 1.5-0.32 1.16-0.316 2.684-0.402 4.125-0.086 1.445-0.176 2.84-0.438 3.844-0.117 0.453-0.441 0.785-0.605 1-0.059-0.086-0.145-0.121-0.219-0.25-0.227-0.512-0.465-1.285-0.625-2.25-0.316-1.926-0.453-4.492-0.594-7.094-0.148-2.602-0.148-5.238-0.441-7.219-0.145-0.988-0.352-1.836-0.625-2.469-0.137-0.316-0.387-0.512-0.625-0.75-0.242-0.238-0.531-0.625-1.188-0.625-0.621 0-1.254 0.277-1.5 0.5s-0.238 0.461-0.375 0.75c-0.273 0.578-0.48 1.324-0.625 2.219-0.316 1.789-0.48 4.133-0.625 6.469-0.16 2.34-0.316 4.664-0.625 6.375-0.16 0.855-0.398 1.535-0.625 1.969-0.148-0.223-0.523-0.484-0.625-0.875-0.273-0.977-0.316-2.223-0.441-3.594-0.129-1.371-0.207-2.785-0.562-3.875-0.18-0.543-0.5-1.07-0.875-1.469-0.375-0.398-1.012-0.75-1.875-0.75-0.43 0-0.832 0.121-1.125 0.281v14.188c0.07-1.285 0.086-2.648 0.125-4.03 0.066-2.469 0.203-4.895 0.438-6.719 0.117-0.906 0.164-1.625 0.375-2.094 0.074-0.16 0.188-0.293 0.25-0.375 0.027 0.012 0.105 0.039 0.191 0.125 0.188 0.203 0.219 0.617 0.375 1.094 0.309 0.961 0.488 2.262 0.625 3.625 0.133 1.367 0.336 2.758 0.625 3.844 0.145 0.547 0.313 0.98 0.625 1.375 0.152 0.203 0.336 0.48 0.625 0.625 0.289 0.16 0.625 0.238 1.063 0.25 0.605 0 1.168-0.27 1.441-0.5 0.27-0.223 0.477-0.461 0.625-0.75 0.297-0.563 0.461-1.313 0.625-2.219 0.332-1.781 0.465-4.04 0.625-6.375 0.16-2.34 0.336-4.742 0.625-6.469 0.117-0.695 0.215-1.184 0.375-1.625 0.172 0.5 0.508 1.191 0.625 2 0.277 1.918 0.484 4.492 0.625 7.094 0.145 2.605 0.293 5.227 0.625 7.219 0.168 1 0.316 1.859 0.625 2.5 0.148 0.324 0.355 0.508 0.625 0.75 0.27 0.246 0.586 0.609 1.219 0.625 0.898 0.039 1.703-0.461 2.066-0.875 0.352-0.41 0.477-0.93 0.625-1.5 0.301-1.133 0.535-2.52 0.625-3.969 0.086-1.441 0.09-2.844 0.375-3.875 0.145-0.512 0.238-0.898 0.438-1.125 0.191-0.223 0.398-0.25 0.441-0.25 0.227 0 0.246 0.047 0.375 0.125 0.125 0.082 0.305 0.223 0.438 0.5 0.273 0.559 0.355 1.48 0.441 2.375 0.074 0.898 0.063 1.855 0.375 2.625 0.152 0.387 0.398 0.695 0.813 1 0.398 0.309 1.148 0.469 1.875 0.469 0.5 0 0.941-0.055 1.25-0.25 0.309-0.184 0.465-0.477 0.625-0.719 0.316-0.477 0.48-1.055 0.625-1.75 0.297-1.387 0.523-3.215 0.625-5 0.105-1.781 0.066-3.555 0.375-4.844 0.148-0.641 0.402-1.074 0.625-1.375 0.055 0.082 0.191 0.141 0.25 0.25 0.23 0.535 0.48 1.363 0.625 2.375 0.297 2.027 0.262 4.723 0.375 7.469 0.105 2.746 0.316 5.504 0.625 7.594 0.148 1.047 0.32 1.961 0.625 2.625 0.148 0.336 0.355 0.605 0.625 0.855 0.266 0.25 0.773 0.5 1.441 0.5 0.379 0 0.613-0.129 0.844-0.25 0.234-0.125 0.477-0.203 0.602-0.355 0.258-0.285 0.473-0.59 0.625-1 0.313-0.813 0.441-1.938 0.625-3.25 0.352-2.621 0.449-6.141 0.594-9.594 0.141-3.449 0.367-6.898 0.625-9.438 0.098-0.949 0.078-1.605 0.219-2.25 0.199 0.766 0.457 1.656 0.594 2.844 0.324 2.781 0.707 6.527 0.875 10.219 0.172 3.695 0.32 7.445 0.625 10.219 0.156 1.398 0.375 2.504 0.625 3.355 0.129 0.418 0.176 0.711 0.375 1 0.105 0.141 0.23 0.355 0.441 0.5 0.207 0.133 0.563 0.262 1 0.25 0.613-0.039 1.012-0.277 1.25-0.5 0.238-0.23 0.488-0.473 0.625-0.75 0.27-0.582 0.461-1.332 0.625-2.23 0.32-1.77 0.445-4.176 0.625-6.5 0.176-2.313 0.313-4.629 0.625-6.344 0.152-0.852 0.41-1.516 0.625-1.969 0.121 0.219 0.277 0.352 0.375 0.719 0.254 0.969 0.309 2.371 0.438 3.75 0.129 1.383 0.27 2.742 0.625 3.844 0.176 0.566 0.434 1.105 0.813 1.5 0.246 0.273 0.676 0.492 1.188 0.625v-2.594c-0.27-0.953-0.438-2.215-0.563-3.5-0.129-1.375-0.34-2.668-0.625-3.75-0.145-0.539-0.305-1.074-0.625-1.469-0.16-0.195-0.316-0.344-0.625-0.5s-0.75-0.262-1.188-0.25c-0.617 0-1.012 0.277-1.25 0.5s-0.301 0.461-0.438 0.75c-0.277 0.578-0.465 1.332-0.625 2.219-0.324 1.781-0.637 4.148-0.816 6.469-0.176 2.324-0.313 4.66-0.625 6.375-0.113 0.648-0.285 1.039-0.438 1.48-0.215-0.754-0.48-1.781-0.625-3.105-0.301-2.727-0.457-6.395-0.625-10.09s-0.234-7.395-0.566-10.219c-0.16-1.41-0.352-2.59-0.625-3.469-0.133-0.438-0.227-0.824-0.438-1.125-0.105-0.152-0.254-0.238-0.441-0.375-0.184-0.137-0.586-0.332-1-0.375-0.102-8e-3 -0.184-0.012-0.273 0m8e-3 -4e-3" fill="#f8f8f8"/>
    </g>
   </g>
  </g>
 </g>
 <g>
  <g transform="translate(0 -1004.4)">
   <path d="m1 1043.4v4c0 2.216 1.784 4 4 4h38c2.216 0 4-1.784 4-4v-4c0 2.216-1.784 4-4 4h-38c-2.216 0-4-1.784-4-4z" opacity=".1"/>
  </g>
 </g>
</svg>
