<svg version="1.1" viewBox="0 0 48 48" xmlns="http://www.w3.org/2000/svg">
 <defs>
  <linearGradient id="bg" x2="0" y1="1" y2="47" gradientUnits="userSpaceOnUse">
   <stop style="stop-color:#254a9b" offset="0"/>
   <stop style="stop-color:#21428b" offset="1"/>
  </linearGradient>
 </defs>
 <path d="m1 43v0.25c0 2.216 1.784 4 4 4h38c2.216 0 4-1.784 4-4v-0.25c0 2.216-1.784 4-4 4h-38c-2.216 0-4-1.784-4-4zm0 0.5v0.5c0 2.216 1.784 4 4 4h38c2.216 0 4-1.784 4-4v-0.5c0 2.216-1.784 4-4 4h-38c-2.216 0-4-1.784-4-4z" style="opacity:.02"/>
 <path d="m1 43.25v0.25c0 2.216 1.784 4 4 4h38c2.216 0 4-1.784 4-4v-0.25c0 2.216-1.784 4-4 4h-38c-2.216 0-4-1.784-4-4z" style="opacity:.05"/>
 <path d="m1 43v0.25c0 2.216 1.784 4 4 4h38c2.216 0 4-1.784 4-4v-0.25c0 2.216-1.784 4-4 4h-38c-2.216 0-4-1.784-4-4z" style="opacity:.1"/>
 <rect x="1" y="1" width="46" height="46" rx="4" style="fill:url(#bg)"/>
 <path d="m1 39v4c0 2.216 1.784 4 4 4h38c2.216 0 4-1.784 4-4v-4c0 2.216-1.784 4-4 4h-38c-2.216 0-4-1.784-4-4z" style="opacity:.1"/>
 <path d="m14 11c-0.55228 0-1 0.44772-1 1s0.44772 1 1 1h1c0.554 0 1 0.446 1 1 0 1.3992-5 1-5 6.5 0 2.1934 1.0695 3.6452 2.4316 4.9512-1.5241 2.1297-2.4316 4.7303-2.4316 7.5488v2h2c0-2.7614 2.2386-5 5-5s5 2.2386 5 5h3c0-2.7614 2.2386-5.0011 5-5 2.3743 9.2e-4 4.4684 1.6643 4.8945 4 0.04958 0.27174 0.24751 0.5 0.55274 0.5s0.55273-0.22377 0.55273-0.5v-1c0-4.0516-1.8544-7.6155-4.7598-9.9997 0 0 0.48658-3e-4 0.75977-3e-4 2 0 3-1 3-1s-1-1-3-1h-0.6875s0.343-0.24144 0.51562-0.41407c1.4142-1.4142 1.1719-2.5859 1.1719-2.5859s-0.07315 6.5e-4 -0.20508 0c-0.3958-2e-3 -1.3202 0.11121-2.3809 1.1719-0.92493 0.92494-1.2233 1.8106-1.334 2.3398-1.8148-0.96247-3.8827-1.5117-6.0801-1.5117-3.093 0-5.9303 1.0849-8.1621 2.8887-0.94184-0.59926-1.8379-1.3772-1.8379-2.8887 0-4 4-3 4-6 0-1.662-1.338-3-3-3zm17 15c0.55228 0 1 0.44772 1 1s-0.44772 1-1 1-1-0.44772-1-1 0.44772-1 1-1zm-13 5c-1.5849 0.48383-2.9971 1.9051-3 4h2c0-1.8156 0.20134-3 1-4zm13 0c-1.5849 0.48383-2.9971 1.9051-3 4h2c0-1.8156 0.20134-3 1-4z" style="opacity:.1;paint-order:normal"/>
 <path d="m14 10c-0.55228 0-1 0.44772-1 1s0.44772 1 1 1h1c0.554 0 1 0.446 1 1 0 1.3992-5 1-5 6.5 0 2.1934 1.0695 3.6452 2.4316 4.9512-1.5241 2.1297-2.4316 4.7303-2.4316 7.5488v2h2c0-2.7614 2.2386-5 5-5s5 2.2386 5 5h3c0-2.7614 2.2386-5.0011 5-5 2.3743 9.2e-4 4.4684 1.6643 4.8945 4 0.04958 0.27174 0.24751 0.5 0.55274 0.5s0.55273-0.22377 0.55273-0.5v-1c0-4.0516-1.8544-7.6155-4.7598-9.9997 0 0 0.48658-3e-4 0.75977-3e-4 2 0 3-1 3-1s-1-1-3-1h-0.6875s0.343-0.24144 0.51562-0.41407c1.4142-1.4142 1.1719-2.5859 1.1719-2.5859s-0.07315 6.5e-4 -0.20508 0c-0.3958-2e-3 -1.3202 0.11121-2.3809 1.1719-0.92493 0.92494-1.2233 1.8106-1.334 2.3398-1.8148-0.96247-3.8827-1.5117-6.0801-1.5117-3.093 0-5.9303 1.0849-8.1621 2.8887-0.94184-0.59926-1.8379-1.3772-1.8379-2.8887 0-4 4-3 4-6 0-1.662-1.338-3-3-3zm17 15c0.55228 0 1 0.44772 1 1s-0.44772 1-1 1-1-0.44772-1-1 0.44772-1 1-1zm-13 5c-1.5849 0.48383-2.9971 1.9051-3 4h2c0-1.8156 0.20134-3 1-4zm13 0c-1.5849 0.48383-2.9971 1.9051-3 4h2c0-1.8156 0.20134-3 1-4z" style="fill:#e9f4f7;paint-order:normal"/>
</svg>
