<svg version="1.1" viewBox="0 0 48 48" xmlns="http://www.w3.org/2000/svg">
 <defs>
  <linearGradient id="lG3764" x1="1" x2="47" gradientTransform="translate(-48)" gradientUnits="userSpaceOnUse">
   <stop style="stop-color:#e2afa4" offset="0"/>
   <stop style="stop-color:#e6bbb2" offset="1"/>
  </linearGradient>
 </defs>
 <path d="m1 43v0.25c0 2.22 1.78 4 4 4h38c2.22 0 4-1.78 4-4v-0.25c0 2.22-1.78 4-4 4h-38c-2.22 0-4-1.78-4-4zm0 0.5v0.5c0 2.22 1.78 4 4 4h38c2.22 0 4-1.78 4-4v-0.5c0 2.22-1.78 4-4 4h-38c-2.22 0-4-1.78-4-4z" style="opacity:.02"/>
 <path d="m1 43.2v0.25c0 2.22 1.78 4 4 4h38c2.22 0 4-1.78 4-4v-0.25c0 2.22-1.78 4-4 4h-38c-2.22 0-4-1.78-4-4z" style="opacity:.05"/>
 <path d="m1 43v0.25c0 2.22 1.78 4 4 4h38c2.22 0 4-1.78 4-4v-0.25c0 2.22-1.78 4-4 4h-38c-2.22 0-4-1.78-4-4z" style="opacity:.1"/>
 <rect transform="rotate(-90)" x="-47" y="1" width="46" height="46" rx="4" style="fill:url(#lG3764)"/>
 <path d="m1 39v4c0 2.22 1.78 4 4 4h38c2.22 0 4-1.78 4-4v-4c0 2.22-1.78 4-4 4h-38c-2.22 0-4-1.78-4-4z" style="opacity:.1"/>
 <circle cx="24" cy="24" r="15" style="opacity:.1"/>
 <circle cx="24" cy="23" r="15" style="fill:#f86748"/>
 <path d="m15.8 10.4a15 15 0 0 0-1.62 1.21l5.08 5.08a3 3 0 0 0-0.293 1.29 3 3 0 0 0 2 2.83v7.34a3 3 0 0 0-2 2.83 3 3 0 0 0 3 3 3 3 0 0 0 3-3 3 3 0 0 0-2-2.83v-7.34a3 3 0 0 0 0.293-0.121l3 3a3 3 0 0 0-0.293 1.29 3 3 0 0 0 3 3 3 3 0 0 0 3-3 3 3 0 0 0-3-3 3 3 0 0 0-1.29 0.293l-3-3a3 3 0 0 0 0.293-1.29 3 3 0 0 0-3-3 3 3 0 0 0-1.29 0.293l-4.88-4.88z" style="opacity:.1"/>
 <path d="m16.5 10a15 15 0 0 0-1.69 1.14l4.53 4.53a3 3 0 0 0-0.293 1.29 3 3 0 0 0 2 2.83v7.34a3 3 0 0 0-2 2.83 3 3 0 0 0 3 3 3 3 0 0 0 3-3 3 3 0 0 0-2-2.83v-7.34a3 3 0 0 0 0.293-0.121l3 3a3 3 0 0 0-0.293 1.29 3 3 0 0 0 3 3 3 3 0 0 0 3-3 3 3 0 0 0-3-3 3 3 0 0 0-1.29 0.293l-3-3a3 3 0 0 0 0.293-1.29 3 3 0 0 0-3-3 3 3 0 0 0-1.29 0.293l-4.26-4.26z" style="fill:#f9f9f9"/>
</svg>
