<svg viewBox="0 0 48 48" xmlns="http://www.w3.org/2000/svg">
 <defs>
  <linearGradient id="linearGradient3764" x1="1" x2="47" gradientTransform="translate(-48 .0022147)" gradientUnits="userSpaceOnUse">
   <stop stop-color="#d75d5d" offset="0"/>
   <stop stop-color="#db6d6d" offset="1"/>
  </linearGradient>
  <clipPath id="clipPath-159205709">
   <g transform="translate(0 -1004.4)">
    <rect x="1" y="1005.4" width="46" height="46" rx="4" fill="#1890d0"/>
   </g>
  </clipPath>
  <clipPath id="clipPath-172681846">
   <g transform="translate(0 -1004.4)">
    <rect x="1" y="1005.4" width="46" height="46" rx="4" fill="#1890d0"/>
   </g>
  </clipPath>
 </defs>
 <g>
  <path d="m1 43v0.25c0 2.216 1.784 4 4 4h38c2.216 0 4-1.784 4-4v-0.25c0 2.216-1.784 4-4 4h-38c-2.216 0-4-1.784-4-4zm0 0.5v0.5c0 2.216 1.784 4 4 4h38c2.216 0 4-1.784 4-4v-0.5c0 2.216-1.784 4-4 4h-38c-2.216 0-4-1.784-4-4z" opacity=".02"/>
  <path d="m1 43.25v0.25c0 2.216 1.784 4 4 4h38c2.216 0 4-1.784 4-4v-0.25c0 2.216-1.784 4-4 4h-38c-2.216 0-4-1.784-4-4z" opacity=".05"/>
  <path d="m1 43v0.25c0 2.216 1.784 4 4 4h38c2.216 0 4-1.784 4-4v-0.25c0 2.216-1.784 4-4 4h-38c-2.216 0-4-1.784-4-4z" opacity=".1"/>
 </g>
 <g>
  <rect transform="rotate(-90)" x="-47" y="1" width="46" height="46" rx="4" fill="url(#linearGradient3764)"/>
 </g>
 <g>
  <g clip-path="url(#clipPath-159205709)">
   <g opacity=".1">
    <g>
     <g>
      <path d="m36.04 27c0 4.969-5.371 9-12 9-6.625 0-12-4.03-12-9 0-4.973 5.375-9 12-9 6.629 0 12 4.03 12 9"/>
      <path d="m15.06 31.996v-9.738s-4.063 0-4.063 4.867c0 4.871 4.063 4.871 4.063 4.871"/>
      <path d="m32.938 31.996v-9.738s4.066 0 4.066 4.867c0 4.871-4.066 4.871-4.066 4.871"/>
      <path d="m24.01 11c-5.574-0.055-8.402 3.082-9.605 6.109-1.191 3.035-0.977 6.02-0.977 6.02l1.625-0.113s-0.172-2.688 0.852-5.313c1.039-2.621 3.074-5.113 8.06-5.07 4.992 0.051 7.05 2.559 8.09 5.156 1.039 2.598 0.863 5.223 0.863 5.223l1.629 0.113s0.219-2.938-0.98-5.941c-1.195-3-4-6.133-9.574-6.188m0 8e-3"/>
      <path d="m22 24.996c0 1.105-0.895 2-2 2s-2-0.895-2-2c0-1.102 0.895-2 2-2s2 0.898 2 2"/>
      <path d="m30 24.996c0 1.105-0.895 2-2 2s-2-0.895-2-2c0-1.102 0.895-2 2-2s2 0.898 2 2"/>
      <path d="m28 30.996c0 2.207-1.789 4-4 4s-4-1.793-4-4c0-2.211 1.789-4 4-4s4 1.789 4 4"/>
      <path d="m23 31c0 0.551-0.449 1-1 1s-1-0.449-1-1c0-0.555 0.449-1 1-1s1 0.445 1 1"/>
      <path d="m27 31c0 0.551-0.449 1-1 1s-1-0.449-1-1c0-0.555 0.449-1 1-1s1 0.445 1 1"/>
      <path d="m28 21c-1.105 0-2 0.898-2 2 0 0.086 0.023 0.168 0.031 0.25 0.125-0.984 0.949-1.75 1.973-1.75 1.02 0 1.844 0.766 1.969 1.75 0.012-0.082 0.031-0.16 0.031-0.25 0-1.105-0.895-2-1.996-2m-8e-3 0"/>
      <path d="m20 21c-1.105 0-2 0.898-2 2 0 0.086 0.02 0.168 0.031 0.25 0.125-0.984 0.949-1.75 1.973-1.75 1.02 0 1.844 0.766 1.969 1.75 0.012-0.082 0.031-0.16 0.031-0.25 0-1.105-0.895-2-2-2m-4e-3 0"/>
     </g>
    </g>
   </g>
  </g>
 </g>
 <g>
  <g clip-path="url(#clipPath-172681846)">
   <g transform="translate(0,-1)">
    <g>
     <path d="m36.04 27c0 4.969-5.371 9-12 9-6.625 0-12-4.03-12-9 0-4.973 5.375-9 12-9 6.629 0 12 4.03 12 9" fill="#ffdec6"/>
     <g fill="#2d2d2d">
      <path d="m15.06 31.996v-9.738s-4.063 0-4.063 4.867c0 4.871 4.063 4.871 4.063 4.871"/>
      <path d="m32.938 31.996v-9.738s4.066 0 4.066 4.867c0 4.871-4.066 4.871-4.066 4.871"/>
      <path d="m24.01 11c-5.574-0.055-8.402 3.082-9.605 6.109-1.191 3.035-0.977 6.02-0.977 6.02l1.625-0.113s-0.172-2.688 0.852-5.313c1.039-2.621 3.074-5.113 8.06-5.07 4.992 0.051 7.05 2.559 8.09 5.156 1.039 2.598 0.863 5.223 0.863 5.223l1.629 0.113s0.219-2.938-0.98-5.941c-1.195-3-4-6.133-9.574-6.188m0 8e-3"/>
      <path d="m22 24.996c0 1.105-0.895 2-2 2s-2-0.895-2-2c0-1.102 0.895-2 2-2s2 0.898 2 2"/>
      <path d="m30 24.996c0 1.105-0.895 2-2 2s-2-0.895-2-2c0-1.102 0.895-2 2-2s2 0.898 2 2"/>
     </g>
     <path d="m28 30.996c0 2.207-1.789 4-4 4s-4-1.793-4-4c0-2.211 1.789-4 4-4s4 1.789 4 4" fill="#ffaba2"/>
     <path d="m23 31c0 0.551-0.449 1-1 1s-1-0.449-1-1c0-0.555 0.449-1 1-1s1 0.445 1 1" fill="#a32828"/>
     <path d="m27 31c0 0.551-0.449 1-1 1s-1-0.449-1-1c0-0.555 0.449-1 1-1s1 0.445 1 1" fill="#a32828"/>
     <path d="m28 21c-1.105 0-2 0.898-2 2 0 0.086 0.023 0.168 0.031 0.25 0.125-0.984 0.949-1.75 1.973-1.75 1.02 0 1.844 0.766 1.969 1.75 0.012-0.082 0.031-0.16 0.031-0.25 0-1.105-0.895-2-1.996-2m-8e-3 0" fill="#2d2d2d"/>
     <path d="m20 21c-1.105 0-2 0.898-2 2 0 0.086 0.02 0.168 0.031 0.25 0.125-0.984 0.949-1.75 1.973-1.75 1.02 0 1.844 0.766 1.969 1.75 0.012-0.082 0.031-0.16 0.031-0.25 0-1.105-0.895-2-2-2m-4e-3 0" fill="#2d2d2d"/>
    </g>
   </g>
  </g>
 </g>
 <g>
  <g transform="translate(0 -1004.4)">
   <path d="m1 1043.4v4c0 2.216 1.784 4 4 4h38c2.216 0 4-1.784 4-4v-4c0 2.216-1.784 4-4 4h-38c-2.216 0-4-1.784-4-4z" opacity=".1"/>
  </g>
 </g>
</svg>
