<svg width="48" height="48" viewBox="0 0 48 48.000001" xmlns="http://www.w3.org/2000/svg">
  <defs>
    <linearGradient id="a" x1="-47" x2="-1" gradientUnits="userSpaceOnUse">
      <stop offset="0" stop-color="#e1e0c7"/>
      <stop offset="1" stop-color="#e8e8d4"/>
    </linearGradient>
  </defs>
  <path d="M1 43v.25c0 2.216 1.784 4 4 4h38c2.216 0 4-1.784 4-4V43c0 2.216-1.784 4-4 4H5c-2.216 0-4-1.784-4-4zm0 .5v.5c0 2.216 1.784 4 4 4h38c2.216 0 4-1.784 4-4v-.5c0 2.216-1.784 4-4 4H5c-2.216 0-4-1.784-4-4z" opacity=".02"/>
  <path d="M1 43.25v.25c0 2.216 1.784 4 4 4h38c2.216 0 4-1.784 4-4v-.25c0 2.216-1.784 4-4 4H5c-2.216 0-4-1.784-4-4z" opacity=".05"/>
  <path d="M1 43v.25c0 2.216 1.784 4 4 4h38c2.216 0 4-1.784 4-4V43c0 2.216-1.784 4-4 4H5c-2.216 0-4-1.784-4-4z" opacity=".1"/>
  <rect transform="rotate(-90)" x="-47" y="1" width="46" height="46" rx="4" fill="url(#a)"/>
  <path d="M1 39v4c0 2.216 1.784 4 4 4h38c2.216 0 4-1.784 4-4v-4c0 2.216-1.784 4-4 4H5c-2.216 0-4-1.784-4-4zM13.059 13C12.472 13 12 13.472 12 14.06v15.883c0 .586.472 1.058 1.06 1.058h8.126l-1.51 2.03-.248-.175-1.363 1.946a.624.624 0 0 0 .152.87l1.026.718c.284.199.67.13.869-.155l1.363-1.945-.252-.176 1.78-2.392V34h-.252v2.375c0 .346.279.625.625.625h1.25a.624.624 0 0 0 .625-.625V34h-.248v-2.28l1.775 2.391-.252.178 1.361 1.945a.624.624 0 0 0 .871.155l1.024-.717a.625.625 0 0 0 .154-.871l-1.363-1.946-.25.173L26.813 31h8.127c.587 0 1.059-.472 1.059-1.058V14.058c0-.586-.472-1.058-1.059-1.058H13.058z" opacity=".1"/>
  <path d="M23.001 27.563l-3.906 5.25 1.469 1.188 2.438-3.28V35h2v-4.28L27.44 34l1.47-1.188-3.907-5.25z" fill="#999"/>
  <path d="M22.75 33h2.5v2.375a.624.624 0 0 1-.625.625h-1.25a.624.624 0 0 1-.624-.625zM26.525 33.29l2.047-1.434 1.363 1.945a.623.623 0 0 1-.153.87l-1.024.717a.623.623 0 0 1-.87-.154l-1.363-1.945zM21.475 33.29l-2.048-1.434-1.362 1.945a.623.623 0 0 0 .153.87l1.023.717c.284.2.672.13.871-.154l1.363-1.945z" fill="#333"/>
  <rect x="12" y="12" width="24" height="18" rx="1.059" ry="1.059" fill="#3771c8"/>
  <path d="M22.041 17.999a1 1 0 0 0-1.041 1v6a1 1 0 0 0 1.514.857l5-3a1 1 0 0 0 0-1.714l-5-3a1 1 0 0 0-.473-.143z" style="isolation:auto;mix-blend-mode:normal;text-decoration-color:#000;text-decoration-line:none;text-decoration-style:solid;text-indent:0;text-transform:none" color="#000" fill="#fff" white-space="normal"/>
  <path d="M13.059 12c-.587 0-1.059.472-1.059 1.059V14h24v-.941c0-.587-.472-1.059-1.059-1.059z" fill="#353e43"/>
</svg>
