<svg id="svg33695" version="1.1" viewBox="0 0 48 48" xmlns="http://www.w3.org/2000/svg">
 <defs id="defs33631">
  <linearGradient id="linearGradient3764" x1="1" x2="47" gradientTransform="translate(-48 .0022147)" gradientUnits="userSpaceOnUse">
   <stop id="stop33616" stop-color="#e4e4e4" offset="0"/>
   <stop id="stop33618" stop-color="#eee" offset="1"/>
  </linearGradient>
  <clipPath id="clipPath-307522143">
   <g id="g33623" transform="translate(0 -1004.4)">
    <rect id="rect33621" x="1" y="1005.4" width="46" height="46" rx="4" fill="#1890d0"/>
   </g>
  </clipPath>
  <clipPath id="clipPath-320690115">
   <g id="g33628" transform="translate(0 -1004.4)">
    <rect id="rect33626" x="1" y="1005.4" width="46" height="46" rx="4" fill="#1890d0"/>
   </g>
  </clipPath>
 </defs>
 <g id="g33639">
  <path id="path33633" d="m1 43v0.25c0 2.216 1.784 4 4 4h38c2.216 0 4-1.784 4-4v-0.25c0 2.216-1.784 4-4 4h-38c-2.216 0-4-1.784-4-4zm0 0.5v0.5c0 2.216 1.784 4 4 4h38c2.216 0 4-1.784 4-4v-0.5c0 2.216-1.784 4-4 4h-38c-2.216 0-4-1.784-4-4z" opacity=".02"/>
  <path id="path33635" d="m1 43.25v0.25c0 2.216 1.784 4 4 4h38c2.216 0 4-1.784 4-4v-0.25c0 2.216-1.784 4-4 4h-38c-2.216 0-4-1.784-4-4z" opacity=".05"/>
  <path id="path33637" d="m1 43v0.25c0 2.216 1.784 4 4 4h38c2.216 0 4-1.784 4-4v-0.25c0 2.216-1.784 4-4 4h-38c-2.216 0-4-1.784-4-4z" opacity=".1"/>
 </g>
 <g id="g33643">
  <rect id="rect33641" transform="rotate(-90)" x="-47" y="1" width="46" height="46" rx="4" fill="url(#linearGradient3764)"/>
 </g>
 <g id="g33665">
  <g id="g33663" clip-path="url(#clipPath-307522143)">
   <g id="g33661" opacity=".1">
    <g id="g33659">
     <path id="path33645" d="m11.207 27.28 1.25 4.18 24.543-8.094-1.332-4.094"/>
     <path id="path33647" d="m11.934 20.16-0.934 4.27 24.746 6.355 0.914-4.277"/>
     <path id="path33649" d="m13.348 17.375 3.141-2.906 10.484 12.328-3.078 2.566"/>
     <path id="path33651" d="m32.355 14.859 2.809 3.254-11.902 10.863-1.922-3.621"/>
     <path id="path33653" d="m18.414 12.949 4.07-0.938 3.188 13.707-4.137 0.984"/>
     <path id="path33655" d="m26.305 12 3.98 1.293-4.105 13.52-3.809-1.289"/>
     <path id="path33657" d="m21.5 24h5v12h-5"/>
    </g>
   </g>
  </g>
 </g>
 <g id="g33687">
  <g id="g33685" clip-path="url(#clipPath-320690115)">
   <g id="g33683" transform="translate(0,-1)">
    <g id="g33681">
     <path id="path33667" d="m11.207 27.28 1.25 4.18 24.543-8.094-1.332-4.094" fill="#cf6920"/>
     <path id="path33669" d="m11.934 20.16-0.934 4.27 24.746 6.355 0.914-4.277" fill="#ea7c1e"/>
     <path id="path33671" d="m13.348 17.375 3.141-2.906 10.484 12.328-3.078 2.566" fill="#de8619"/>
     <path id="path33673" d="m32.355 14.859 2.809 3.254-11.902 10.863-1.922-3.621" fill="#ffc808"/>
     <path id="path33675" d="m18.414 12.949 4.07-0.938 3.188 13.707-4.137 0.984" fill="#f4aa17"/>
     <path id="path33677" d="m26.305 12 3.98 1.293-4.105 13.52-3.809-1.289" fill="#ecb90a"/>
     <path id="path33679" d="m21.5 24h5v12h-5" fill="#c71920"/>
    </g>
   </g>
  </g>
 </g>
 <g id="g33693">
  <g id="g33691" transform="translate(0 -1004.4)">
   <path id="path33689" d="m1 1043.4v4c0 2.216 1.784 4 4 4h38c2.216 0 4-1.784 4-4v-4c0 2.216-1.784 4-4 4h-38c-2.216 0-4-1.784-4-4z" opacity=".1"/>
  </g>
 </g>
</svg>
