<svg version="1.1" viewBox="0 0 48 48" xmlns="http://www.w3.org/2000/svg">
 <defs>
  <linearGradient id="bg" x2="0" y1="1" y2="47" gradientUnits="userSpaceOnUse">
   <stop style="stop-color:#515151" offset="0"/>
   <stop style="stop-color:#474747" offset="1"/>
  </linearGradient>
 </defs>
 <path d="m1 43v0.25c0 2.216 1.784 4 4 4h38c2.216 0 4-1.784 4-4v-0.25c0 2.216-1.784 4-4 4h-38c-2.216 0-4-1.784-4-4zm0 0.5v0.5c0 2.216 1.784 4 4 4h38c2.216 0 4-1.784 4-4v-0.5c0 2.216-1.784 4-4 4h-38c-2.216 0-4-1.784-4-4z" style="opacity:.02"/>
 <path d="m1 43.25v0.25c0 2.216 1.784 4 4 4h38c2.216 0 4-1.784 4-4v-0.25c0 2.216-1.784 4-4 4h-38c-2.216 0-4-1.784-4-4z" style="opacity:.05"/>
 <path d="m1 43v0.25c0 2.216 1.784 4 4 4h38c2.216 0 4-1.784 4-4v-0.25c0 2.216-1.784 4-4 4h-38c-2.216 0-4-1.784-4-4z" style="opacity:.1"/>
 <rect x="1" y="1" width="46" height="46" rx="4" style="fill:url(#bg)"/>
 <path d="m1 39v4c0 2.216 1.784 4 4 4h38c2.216 0 4-1.784 4-4v-4c0 2.216-1.784 4-4 4h-38c-2.216 0-4-1.784-4-4z" style="opacity:.1"/>
 <path d="m21.536 12c-1.9965 2.2e-5 -1.8011 3.2665-0.79883 4.4375 1.6292 1.9035 6.4214 1.95 7.9961 0.70703 1.243-0.98107 1.9815-3.6541 0.23242-4.1055-1.2662-0.35031-2.218-0.17368-3.9512-0.43359-1.251-0.1962-2.9128-0.60534-3.4785-0.60547zm6.2734 9c-1.1875-5e-3 -1.6868 0.2554-3.2188 0.28711-0.83827 0.01553-1.4418-0.13567-2.6094-0.15039-2.1062-0.04897-1.5646 2.8511-0.38672 3.8965 1.5874 1.409 4.8642 1.2293 6.4062-0.2207 0.9757-0.9175 1.6836-3.8047-0.19141-3.8125zm0.6582 7c-0.46722 0-1.3773 0.22843-2.4082 0.38477-1.031 0.15634-0.74597 0.09901-1.625 0.22656-1.7276 0.22842-0.90837 2.3794 0.09961 3.0117 1.203 0.75462 4.0888 0.28877 5.0781-0.9668 0.58688-0.7448 0.38867-2.6562-1.1445-2.6562zm0.49609 7c-0.88642 0.03324-1.029 0.13585-1.8945 0.11914-0.30992-0.01805-0.87807-0.13276-1.3281-0.08789-1.0634 0.10599-0.84776 1.805-0.18945 2.3945 0.82421 0.73817 2.7843 0.84482 3.9258-0.1582 0.5643-0.49588 0.99988-2.3243-0.51367-2.2676z" style="fill-rule:evenodd;fill:#121212;opacity:.1;stroke-width:.96172"/>
 <path d="m20.536 11c-1.9965 2.2e-5 -1.8011 3.2665-0.79883 4.4375 1.6292 1.9035 6.4214 1.95 7.9961 0.70703 1.243-0.98107 1.9815-3.6541 0.23242-4.1055-1.2662-0.35031-2.218-0.17368-3.9512-0.43359-1.251-0.1962-2.9128-0.60534-3.4785-0.60547zm6.2734 9c-1.1875-5e-3 -1.6868 0.2554-3.2188 0.28711-0.83827 0.01553-1.4418-0.13567-2.6094-0.15039-2.1062-0.04897-1.5646 2.8511-0.38672 3.8965 1.5874 1.409 4.8642 1.2293 6.4062-0.2207 0.9757-0.9175 1.6836-3.8047-0.19141-3.8125zm0.6582 7c-0.46722 0-1.3773 0.22843-2.4082 0.38477-1.031 0.15634-0.74597 0.09901-1.625 0.22656-1.7276 0.22842-0.90837 2.3794 0.09961 3.0117 1.203 0.75462 4.0888 0.28877 5.0781-0.9668 0.58688-0.7448 0.38867-2.6562-1.1445-2.6562zm0.49609 7c-0.88642 0.03324-1.029 0.13585-1.8945 0.11914-0.30992-0.01805-0.87807-0.13276-1.3281-0.08789-1.0634 0.10599-0.84776 1.805-0.18945 2.3945 0.82421 0.73817 2.7843 0.84482 3.9258-0.1582 0.5643-0.49588 0.99988-2.3243-0.51367-2.2676z" style="fill-rule:evenodd;fill:#ff4000;stroke-width:.96172"/>
</svg>
