<svg version="1.1" viewBox="0 0 48 48" xmlns="http://www.w3.org/2000/svg">
 <defs>
  <linearGradient id="bg" x2="0" y1="1" y2="47" gradientUnits="userSpaceOnUse">
   <stop style="stop-color:#9e351b" offset="0"/>
   <stop style="stop-color:#8e2f18" offset="1"/>
  </linearGradient>
 </defs>
 <path d="m1 43v0.25c0 2.216 1.784 4 4 4h38c2.216 0 4-1.784 4-4v-0.25c0 2.216-1.784 4-4 4h-38c-2.216 0-4-1.784-4-4zm0 0.5v0.5c0 2.216 1.784 4 4 4h38c2.216 0 4-1.784 4-4v-0.5c0 2.216-1.784 4-4 4h-38c-2.216 0-4-1.784-4-4z" style="opacity:.02"/>
 <path d="m1 43.25v0.25c0 2.216 1.784 4 4 4h38c2.216 0 4-1.784 4-4v-0.25c0 2.216-1.784 4-4 4h-38c-2.216 0-4-1.784-4-4z" style="opacity:.05"/>
 <path d="m1 43v0.25c0 2.216 1.784 4 4 4h38c2.216 0 4-1.784 4-4v-0.25c0 2.216-1.784 4-4 4h-38c-2.216 0-4-1.784-4-4z" style="opacity:.1"/>
 <rect x="1" y="1" width="46" height="46" rx="4" style="fill:url(#bg)"/>
 <path d="m1 39v4c0 2.216 1.784 4 4 4h38c2.216 0 4-1.784 4-4v-4c0 2.216-1.784 4-4 4h-38c-2.216 0-4-1.784-4-4z" style="opacity:.1"/>
 <path d="m24 8.8672c-0.33938 0-0.67876 0.043835-1 0.13281-1.6657 0.46137-2.7723 0.95482-4.3965 2.4512-3.064 1.4066-6.6035 4.0096-6.6035 8.5488 0 4 2 11 2 11l4 1 2 6 3-1h2l3 1 2-6 4-1s2-7 2-11c0-4.5392-3.5395-7.1423-6.6035-8.5488-1.6242-1.4964-2.7308-1.9898-4.3965-2.4512-0.32124-0.088978-0.66062-0.13281-1-0.13281z" style="opacity:.1"/>
 <g transform="translate(0,-1)">
  <path d="m24 9.8672c-0.33938 0-0.67876 0.043835-1 0.13281 0 0-11 2-11 10 0 4 2 11 2 11l4 1 2 6 3-1h2l3 1 2-6 4-1s2-7 2-11c0-8-11-10-11-10-0.32124-0.088978-0.66062-0.13281-1-0.13281z" style="fill:#f9f9f9"/>
  <path d="m18 15v2l-1 5h3v-7zm10 0v7h3l-1-5v-2z" style="fill:#b01414"/>
 </g>
 <g transform="translate(0,-1)">
  <path d="m23 27h2v-15h5c-2-2-3.1269-2.4812-5-3-0.64248-0.17796-1.3575-0.17796-2 0-1.8731 0.51883-3 1-5 3h5z" style="fill:#7e6161"/>
  <path d="m24 9a3 2 0 0 0-3 2 3 2 0 0 0 3 2 3 2 0 0 0 3-2 3 2 0 0 0-3-2zm0 6a3 3 0 0 0-3 3 3 3 0 0 0 3 3 3 3 0 0 0 3-3 3 3 0 0 0-3-3z" style="fill:#a78b8b;paint-order:stroke fill markers"/>
 </g>
 <path d="m18 19c-2 0-4 1-4 2 0 2 1 5 3 5s5-0.20494 5-2c0-2-3-5-4-5zm12 0c-1 0-4 3-4 5 0 1.7951 3 2 5 2s3-3 3-5c0-1-2-2-4-2zm-6 6-1 1s-2 2-2 6c0 1 2 1 2 1v3h2v-3s2 0 2-1c0-3-2-6-2-6z" style="fill:#2d2d2d"/>
</svg>
