<svg version="1.1" viewBox="0 0 48 48" xmlns="http://www.w3.org/2000/svg">
 <defs>
  <linearGradient id="bg" x2="0" y1="1" y2="47" gradientUnits="userSpaceOnUse">
   <stop style="stop-color:#c04325" offset="0"/>
   <stop style="stop-color:#af3d22" offset="1"/>
  </linearGradient>
 </defs>
 <path d="m1 43v0.25c0 2.216 1.784 4 4 4h38c2.216 0 4-1.784 4-4v-0.25c0 2.216-1.784 4-4 4h-38c-2.216 0-4-1.784-4-4zm0 0.5v0.5c0 2.216 1.784 4 4 4h38c2.216 0 4-1.784 4-4v-0.5c0 2.216-1.784 4-4 4h-38c-2.216 0-4-1.784-4-4z" style="opacity:.02"/>
 <path d="m1 43.25v0.25c0 2.216 1.784 4 4 4h38c2.216 0 4-1.784 4-4v-0.25c0 2.216-1.784 4-4 4h-38c-2.216 0-4-1.784-4-4z" style="opacity:.05"/>
 <path d="m1 43v0.25c0 2.216 1.784 4 4 4h38c2.216 0 4-1.784 4-4v-0.25c0 2.216-1.784 4-4 4h-38c-2.216 0-4-1.784-4-4z" style="opacity:.1"/>
 <rect x="1" y="1" width="46" height="46" rx="4" style="fill:url(#bg)"/>
 <path d="m1 39v4c0 2.216 1.784 4 4 4h38c2.216 0 4-1.784 4-4v-4c0 2.216-1.784 4-4 4h-38c-2.216 0-4-1.784-4-4z" style="opacity:.1"/>
 <path d="m18.604 11.451c-3.064 1.4066-6.6035 4.0096-6.6035 8.5488 0 4 2 11 2 11l4 1 2 6 3-1h2l3 1 2-6 4-1s2-7 2-11c0-4.5392-3.5395-7.1423-6.6035-8.5488z" style="opacity:.1"/>
 <path d="m23 9s-11 2-11 10c0 4 2 11 2 11l4 1 2 6 3-1 1-1 1 1 3 1 2-6 4-1s2-7 2-11c0-8-11-10-11-10z" style="fill:#ebebeb"/>
 <path d="m18 14v2l-1 5h3v-7zm10 0v7h3l-1-5v-2z" style="fill:#c91717"/>
 <path d="m24 8c-1.8731 0.51883-4.5 1-6.5 3h5.5v15h2v-15h5.5c-2-2-4.6269-2.4812-6.5-3z" style="fill:#886868"/>
 <path d="m24 8a3 2 0 0 0-3 2 3 2 0 0 0 3 2 3 2 0 0 0 3-2 3 2 0 0 0-3-2zm0 6a3 3 0 0 0-3 3 3 3 0 0 0 3 3 3 3 0 0 0 3-3 3 3 0 0 0-3-3z" style="fill:#ad9494"/>
 <path d="m18 19c-2 0-4 1-4 2 0 2 1 5 3 5s5-0.20494 5-2c0-2-3-5-4-5zm12 0c-1 0-4 3-4 5 0 1.7951 3 2 5 2s3-3 3-5c0-1-2-2-4-2zm-6 6-1 1s-2 2-2 6c0 1 2 1 2 1v3h2v-3s2 0 2-1c0-3-2-6-2-6z" style="fill:#424242"/>
 <path d="m18 19c-2 0-4 1-4 2 0 0.23971 0.014239 0.49431 0.042969 0.75586 0.28723-0.9124 2.12-1.7559 3.957-1.7559 0.91233 0 3.4829 2.4946 3.9277 4.4512 0.046503-0.13784 0.072266-0.28813 0.072266-0.45117 0-2-3-5-4-5zm12 0c-1 0-4 3-4 5 0 0.16305 0.025763 0.31332 0.072266 0.45117 0.44485-1.9566 3.0154-4.4512 3.9277-4.4512 1.837 0 3.6698 0.84346 3.957 1.7559 0.02873-0.26155 0.042969-0.51615 0.042969-0.75586 0-1-2-2-4-2zm-6 6-1 1s-2 2-2 6c0 0.069718 0.013163 0.13302 0.03125 0.19336 0.24178-3.4606 1.9688-5.1934 1.9688-5.1934l1-1 1 1s1.667 2.5091 1.9531 5.2324c0.026748-0.071513 0.046875-0.14691 0.046875-0.23242 0-3-2-6-2-6l-1-1z" style="opacity:.1"/>
</svg>
