<svg viewBox="0 0 48 48">
  <defs>
    <linearGradient id="a" x1="1" x2="47" gradientUnits="userSpaceOnUse" gradientTransform="translate(-48 .002)">
      <stop stop-color="#e4e4e4"/>
      <stop offset="1" stop-color="#eee"/>
    </linearGradient>
    <clipPath id="b"/>
    <clipPath id="c"/>
  </defs>
  <path d="M1 43v.25c0 2.216 1.784 4 4 4h38c2.216 0 4-1.784 4-4V43c0 2.216-1.784 4-4 4H5c-2.216 0-4-1.784-4-4zm0 .5v.5c0 2.216 1.784 4 4 4h38c2.216 0 4-1.784 4-4v-.5c0 2.216-1.784 4-4 4H5c-2.216 0-4-1.784-4-4z" opacity=".02"/>
  <path d="M1 43.25v.25c0 2.216 1.784 4 4 4h38c2.216 0 4-1.784 4-4v-.25c0 2.216-1.784 4-4 4H5c-2.216 0-4-1.784-4-4z" opacity=".05"/>
  <path d="M1 43v.25c0 2.216 1.784 4 4 4h38c2.216 0 4-1.784 4-4V43c0 2.216-1.784 4-4 4H5c-2.216 0-4-1.784-4-4z" opacity=".1"/>
  <rect width="46" height="46" x="-47" y="1" rx="4" transform="rotate(-90)" fill="url(#a)"/>
  <g opacity=".1" clip-path="url(#b)">
    <path d="M36 24c0 6.629-5.371 12-12 12s-12-5.371-12-12 5.371-12 12-12 12 5.371 12 12m0 0"/>
    <path d="M30.75 22c0 4.969-4.03 9-9 9-4.969 0-9-4.03-9-9 0-4.969 4.03-9 9-9 4.969 0 9 4.03 9 9m0 0M28.309 13l2.395-2.676L35.61 15l-2.605 2m-4.695-4M35 22v5h4v-5m-4 0M25 34l2 4 5-3-2-3m-5 2M14 28l-3 2 3 4 2-2m-2-4"/>
    <path d="M21 24.5c0 .828-.895 1.496-1.996 1.496-1.105 0-2-.672-2-1.496 0-.832-.164-1.219.941-1.219s3.059.387 3.059 1.219m-.004 0M26.668 23.715c-1.105 0-1.672-.387-1.672-1.215.383-1.582 3.113-2.258 4.539-1.641-.02 1.43-1.828 2.828-2.867 2.855m0 0M20.5 13.906c.871-.273 1.723.016 2.59.594.344.563 0 .828-.223 1.066-.219.238-.203.223-.559.434l-1.949-.066c-1.156-.441-.566-1.602.141-2.027m0 0M20.04 17h1.531c1.754.055 2.996 1.523 2.156 2a18.182 18.182 0 0 0-3.688 0c-1.57-.242-1.199-1.711 0-2m0 0M21.508 20l1 .262c.824.355.5.734 0 .734l-1-.09c-.66-.266-.656-.77 0-.906m0 0M24 30l1 2 2-1-1-2m-2 1M19 29v3h3v-3m-3 0"/>
  </g>
  <g>
    <g clip-path="url(#c)">
      <path d="M36 23c0 6.629-5.371 12-12 12s-12-5.371-12-12 5.371-12 12-12 12 5.371 12 12m0 0" fill="#267fc1"/>
      <path d="M30.75 21c0 4.969-4.03 9-9 9-4.969 0-9-4.03-9-9 0-4.969 4.03-9 9-9 4.969 0 9 4.03 9 9m0 0" fill="#202020"/>
      <path d="M28.309 12l2.395-2.676L35.61 14l-2.605 2m-4.695-4M35 21v5h4v-5m-4 0M25 33l2 4 5-3-2-3m-5 2M14 27l-3 2 3 4 2-2m-2-4" fill="#267fc1"/>
      <path d="M21 23.5c0 .828-.895 1.496-1.996 1.496-1.105 0-2-.672-2-1.496 0-.832-.164-1.219.941-1.219s3.059.387 3.059 1.219m-.004 0M26.668 22.715c-1.105 0-1.672-.387-1.672-1.215.383-1.582 3.113-2.258 4.539-1.641-.02 1.43-1.828 2.828-2.867 2.855m0 0" fill="#19ccb0"/>
      <path d="M20.5 12.906c.871-.273 1.723.016 2.59.594.344.563 0 .828-.223 1.066-.219.238-.203.223-.559.434l-1.949-.066c-1.156-.441-.566-1.602.141-2.027m0 0M20.04 16h1.531c1.754.055 2.996 1.523 2.156 2a18.182 18.182 0 0 0-3.688 0c-1.57-.242-1.199-1.711 0-2m0 0M21.508 19l1 .262c.824.355.5.734 0 .734l-1-.09c-.66-.266-.656-.77 0-.906m0 0" fill="#de3d3d"/>
      <path d="M24 29l1 2 2-1-1-2m-2 1M19 28v3h3v-3m-3 0" fill="#202020"/>
    </g>
  </g>
  <g>
    <path d="M1 38.998v4c0 2.216 1.784 4 4 4h38c2.216 0 4-1.784 4-4v-4c0 2.216-1.784 4-4 4H5c-2.216 0-4-1.784-4-4z" opacity=".1"/>
  </g>
</svg>
