<svg viewBox="0 0 48 48" xmlns="http://www.w3.org/2000/svg" xmlns:xlink="http://www.w3.org/1999/xlink">
 <defs>
  <linearGradient id="linearGradient3764" x1="1" x2="47" gradientTransform="translate(-48 .0022147)" gradientUnits="userSpaceOnUse">
   <stop stop-color="#e4e4e4" offset="0"/>
   <stop stop-color="#eee" offset="1"/>
  </linearGradient>
  <clipPath id="clipPath-631303023">
   <g transform="translate(0 -1004.4)">
    <rect x="1" y="1005.4" width="46" height="46" rx="4" fill="#1890d0"/>
   </g>
  </clipPath>
  <clipPath id="clipPath-648409078">
   <g transform="translate(0 -1004.4)">
    <rect x="1" y="1005.4" width="46" height="46" rx="4" fill="#1890d0"/>
   </g>
  </clipPath>
  <linearGradient id="linear0" x2="0" y1="133" y2="43" gradientTransform="matrix(.3614 0 0 .375 -170.83 136.93)" gradientUnits="userSpaceOnUse">
   <stop stop-color="#8b2828" offset="0"/>
   <stop stop-color="#c82c2f" offset="1"/>
  </linearGradient>
  <linearGradient id="linear1" x2="0" y1="133" y2="43" gradientTransform="matrix(.3614 0 0 .375 -103.21 -9.0011)" gradientUnits="userSpaceOnUse" xlink:href="#linear0"/>
 </defs>
 <g>
  <path d="m1 43v0.25c0 2.216 1.784 4 4 4h38c2.216 0 4-1.784 4-4v-0.25c0 2.216-1.784 4-4 4h-38c-2.216 0-4-1.784-4-4zm0 0.5v0.5c0 2.216 1.784 4 4 4h38c2.216 0 4-1.784 4-4v-0.5c0 2.216-1.784 4-4 4h-38c-2.216 0-4-1.784-4-4z" opacity=".02"/>
  <path d="m1 43.25v0.25c0 2.216 1.784 4 4 4h38c2.216 0 4-1.784 4-4v-0.25c0 2.216-1.784 4-4 4h-38c-2.216 0-4-1.784-4-4z" opacity=".05"/>
  <path d="m1 43v0.25c0 2.216 1.784 4 4 4h38c2.216 0 4-1.784 4-4v-0.25c0 2.216-1.784 4-4 4h-38c-2.216 0-4-1.784-4-4z" opacity=".1"/>
 </g>
 <g>
  <rect transform="rotate(-90)" x="-47" y="1" width="46" height="46" rx="4" fill="url(#linearGradient3764)"/>
 </g>
 <g>
  <g clip-path="url(#clipPath-631303023)">
   <g opacity=".1">
    <g>
     <g>
      <path transform="matrix(.99999 0 0 .99999 67.621 -145.93)" d="m-43.621 157.93s-1.57 2.523-2.844 2.953c-1.27 0.43-3.953-0.656-3.953-0.656s0.152 2.992-0.633 4.113-3.57 1.887-3.57 1.887 1.832 2.316 1.832 3.703-1.832 3.703-1.832 3.703 2.785 0.766 3.57 1.887c0.785 1.125 0.633 4.113 0.633 4.113s2.68-1.082 3.953-0.656c1.273 0.43 2.844 2.953 2.844 2.953s1.57-2.523 2.848-2.953c1.27-0.426 3.953 0.656 3.953 0.656s-0.156-2.988 0.629-4.113c0.785-1.117 3.57-1.887 3.57-1.887s-1.828-2.316-1.828-3.703 1.828-3.703 1.828-3.703-2.781-0.766-3.57-1.887c-0.785-1.121-0.629-4.113-0.629-4.113s-2.684 1.086-3.953 0.656c-1.277-0.43-2.848-2.953-2.848-2.953" stroke="#1f0000" stroke-width="2"/>
      <path id="SVGCleanerId_0" d="m21.742 17.738c-0.199-0.02-0.41 8e-3 -0.621 0.094-0.473 0.188-0.809 0.508-1.027 0.902-0.223 0.395-0.328 0.871-0.363 1.383-0.066 1.02 0.141 2.215 0.352 3.375s0.422 2.281 0.383 3.129c-0.02 0.422-0.102 0.77-0.258 1.02-0.16 0.246-0.383 0.41-0.758 0.48-0.227 0.043-0.43-0.074-0.645-0.352-0.215-0.277-0.406-0.703-0.566-1.125-0.316-0.852-0.484-1.734-0.484-1.734-0.02-0.098-0.125-0.168-0.219-0.148-0.098 0.023-0.164 0.133-0.145 0.23 0 0 0.18 0.902 0.512 1.793 0.164 0.445 0.363 0.887 0.621 1.219 0.254 0.332 0.602 0.566 0.992 0.492 0.449-0.086 0.785-0.316 0.992-0.645 0.211-0.328 0.297-0.746 0.316-1.207 0.043-0.926-0.172-2.063-0.383-3.223s-0.414-2.336-0.352-3.281c0.035-0.473 0.125-0.891 0.305-1.219 0.184-0.328 0.457-0.578 0.859-0.738 0.332-0.133 0.609-0.09 0.883 0.059 0.273 0.145 0.531 0.406 0.742 0.691 0.063 0.082 0.117 0.16 0.172 0.246l-1.66 1.254 1.129 1.617c-0.395 0.746-0.609 1.621-0.609 2.531 0 2.898 2.262 5.25 5.059 5.25 2.793 0 5.059-2.352 5.059-5.25s-2.266-5.25-5.059-5.25c-0.316 0-0.625 0.035-0.926 0.094l-1.141-1.641-1.57 1.184c-0.059-0.09-0.105-0.18-0.168-0.27-0.234-0.313-0.516-0.602-0.859-0.785-0.172-0.094-0.367-0.16-0.566-0.176m2.77 3.246h0.012 0.023c0.039 0 0.082 0.016 0.113 0.047l1.445 1.125c0.078 0.059 0.094 0.188 0.035 0.27-0.059 0.078-0.184 0.094-0.262 0.035l-1.445-1.125c-0.117-0.082-0.07-0.313 0.066-0.34l0.012-0.012m4.348 0h0.023c0.168-0.031 0.266 0.27 0.113 0.352l-1.445 1.125c-0.078 0.059-0.203 0.043-0.262-0.035-0.059-0.082-0.043-0.207 0.035-0.27l1.445-1.125c0.023-0.02 0.051-0.031 0.078-0.035l0.012-0.012m-3.59 1.512c0.5 0 0.902 0.418 0.902 0.938 0 0.516-0.406 0.938-0.902 0.938-0.5 0-0.902-0.422-0.902-0.938 0-0.52 0.402-0.938 0.902-0.938m2.891 0c0.5 0 0.902 0.418 0.902 0.938 0 0.516-0.402 0.938-0.902 0.938s-0.902-0.422-0.902-0.938c0-0.52 0.406-0.938 0.902-0.938m-11.09 0.563c-0.09 0.035-0.137 0.152-0.102 0.246l0.359 1.125c0.02 0.105 0.137 0.18 0.234 0.145 0.102-0.031 0.152-0.168 0.102-0.262l-0.359-1.125c-0.023-0.094-0.125-0.152-0.215-0.129h-0.023m1.492 0.141c-0.012 4e-3 -0.023 4e-3 -0.035 0.012-0.051 0.016-0.094 0.055-0.113 0.105l-0.508 1.055c-0.059 0.086-0.027 0.223 0.066 0.273 0.09 0.047 0.215 0 0.254-0.098l0.52-1.066c0.07-0.121-0.047-0.301-0.18-0.281m-2.555 0.797c-0.016 4e-3 -0.023 4e-3 -0.031 0.012-0.148 0.035-0.168 0.285-0.035 0.352l1.016 0.527c0.082 0.063 0.215 0.027 0.262-0.066 0.051-0.094 4e-3 -0.223-0.094-0.262l-1.027-0.539c-0.027-0.016-0.059-0.023-0.09-0.023m3.48 0.363c-0.016 0-0.031 4e-3 -0.047 0.012l-0.012 0.012-1.082 0.375c-0.105 0.016-0.18 0.141-0.145 0.242 0.031 0.102 0.16 0.16 0.254 0.109l1.082-0.375c0.102-0.016 0.168-0.121 0.152-0.219s-0.113-0.172-0.207-0.156m-2.531 0.75c-0.016 0-0.027 4e-3 -0.043 0.012l-0.012 0.012-1.086 0.375c-0.105 0.016-0.172 0.141-0.148 0.242 0.035 0.102 0.164 0.16 0.262 0.109l1.086-0.375c0.094-0.016 0.164-0.121 0.145-0.219-0.016-0.098-0.117-0.172-0.211-0.156m12.832 0.012v1.875c-0.727 0-2.168-0.75-6.324-0.938 4.156-0.188 5.605-0.938 6.324-0.938m-11.531 0.211c-0.141 0.043-0.152 0.289-0.02 0.352l1.027 0.539c0.086 0.043 0.195 0 0.238-0.09 0.043-0.086 0-0.207-0.086-0.25l-1.016-0.527c-0.035-0.023-0.082-0.031-0.121-0.023h-0.023m-0.992 0.258c-0.059 0.012-0.105 0.051-0.125 0.105l-0.523 1.066c-0.039 0.086 0 0.207 0.086 0.25s0.203 0 0.242-0.086l0.508-1.055c0.066-0.117-0.039-0.293-0.168-0.281h-0.02" fill-rule="evenodd"/>
      <path d="m24 11.996s-1.57 2.523-2.844 2.953c-1.27 0.43-3.953-0.656-3.953-0.656s0.152 2.992-0.633 4.113-3.57 1.887-3.57 1.887 1.832 2.316 1.832 3.703-1.832 3.703-1.832 3.703 2.785 0.766 3.57 1.887c0.785 1.125 0.633 4.113 0.633 4.113s2.68-1.082 3.953-0.656c1.273 0.43 2.844 2.953 2.844 2.953s1.57-2.523 2.848-2.953c1.27-0.426 3.953 0.656 3.953 0.656s-0.156-2.988 0.629-4.113c0.785-1.117 3.57-1.887 3.57-1.887s-1.828-2.316-1.828-3.703 1.828-3.703 1.828-3.703-2.781-0.766-3.57-1.887c-0.785-1.121-0.629-4.113-0.629-4.113s-2.684 1.086-3.953 0.656c-1.277-0.43-2.848-2.953-2.848-2.953"/>
     </g>
     <use xlink:href="#SVGCleanerId_0"/>
     <path d="m24 11.309-0.305 0.492s-0.379 0.613-0.914 1.277-1.258 1.359-1.738 1.52c-0.48 0.164-1.445 0.035-2.25-0.176s-1.457-0.48-1.457-0.48l-0.531-0.211 0.035 0.586s0.035 0.723-0.023 1.582c-0.059 0.863-0.242 1.863-0.539 2.285-0.297 0.426-1.152 0.922-1.922 1.242-0.77 0.324-1.445 0.504-1.445 0.504l-0.543 0.152 0.352 0.445s0.445 0.57 0.891 1.301c0.445 0.73 0.859 1.645 0.859 2.168s-0.414 1.438-0.859 2.168-0.891 1.301-0.891 1.301l-0.352 0.445 0.543 0.152s0.676 0.184 1.445 0.504c0.77 0.324 1.625 0.82 1.922 1.242 0.297 0.426 0.48 1.422 0.539 2.285s0.023 1.582 0.023 1.582l-0.035 0.586 0.531-0.211s0.652-0.27 1.457-0.48c0.805-0.211 1.77-0.336 2.25-0.176 0.48 0.164 1.203 0.859 1.738 1.523s0.914 1.277 0.914 1.277l0.305 0.492 0.305-0.492s0.379-0.613 0.914-1.277c0.539-0.664 1.258-1.359 1.742-1.523 0.477-0.16 1.441-0.035 2.246 0.176s1.457 0.48 1.457 0.48l0.531 0.211-0.035-0.586s-0.035-0.719 0.023-1.582c0.059-0.863 0.246-1.859 0.543-2.285 0.293-0.422 1.148-0.918 1.918-1.242 0.773-0.32 1.445-0.504 1.445-0.504l0.543-0.152-0.348-0.445s-0.449-0.57-0.895-1.301c-0.441-0.73-0.855-1.645-0.855-2.168 0-0.52 0.414-1.438 0.855-2.168 0.445-0.73 0.895-1.301 0.895-1.301l0.348-0.445-0.543-0.152s-0.672-0.18-1.445-0.504c-0.77-0.32-1.625-0.82-1.918-1.242-0.297-0.422-0.484-1.422-0.543-2.285-0.059-0.859-0.023-1.582-0.023-1.582l0.035-0.586-0.531 0.211s-0.652 0.27-1.457 0.48c-0.805 0.211-1.77 0.34-2.246 0.176-0.484-0.16-1.203-0.855-1.742-1.52-0.535-0.668-0.914-1.277-0.914-1.277m-0.305 0.82c0.156 0.238 0.277 0.453 0.668 0.938 0.566 0.703 1.27 1.48 2.066 1.746 0.789 0.266 1.801 0.07 2.652-0.152 0.586-0.152 0.801-0.242 1.063-0.34-8e-3 0.289-0.031 0.527 0.012 1.148 0.059 0.914 0.188 1.973 0.676 2.672 0.492 0.699 1.422 1.148 2.238 1.488 0.559 0.23 0.781 0.281 1.051 0.363-0.172 0.227-0.32 0.414-0.645 0.949-0.473 0.773-0.973 1.699-0.973 2.566 0 0.863 0.5 1.789 0.973 2.563 0.324 0.535 0.473 0.723 0.645 0.949-0.27 0.082-0.492 0.133-1.051 0.363-0.816 0.344-1.746 0.793-2.238 1.488-0.488 0.699-0.613 1.758-0.676 2.672-0.043 0.625-0.02 0.859-0.012 1.148-0.262-0.098-0.477-0.191-1.063-0.34-0.852-0.23-1.863-0.418-2.652-0.152-0.797 0.27-1.5 1.043-2.066 1.746-0.391 0.484-0.512 0.699-0.668 0.938-0.156-0.238-0.273-0.453-0.664-0.938-0.57-0.703-1.273-1.477-2.07-1.746-0.789-0.266-1.797-0.07-2.652 0.152-0.586 0.145-0.801 0.242-1.063 0.34 8e-3 -0.289 0.031-0.527-0.012-1.148-0.059-0.914-0.188-1.973-0.676-2.672-0.488-0.695-1.418-1.145-2.238-1.488-0.555-0.23-0.781-0.281-1.047-0.363 0.168-0.227 0.316-0.414 0.641-0.949 0.473-0.773 0.973-1.699 0.973-2.563 0-0.867-0.5-1.793-0.973-2.566-0.324-0.535-0.473-0.723-0.641-0.949 0.266-0.082 0.492-0.133 1.047-0.363 0.82-0.34 1.75-0.793 2.238-1.488 0.488-0.699 0.613-1.758 0.676-2.672 0.043-0.621 0.02-0.859 0.012-1.148 0.262 0.098 0.477 0.188 1.063 0.34 0.855 0.223 1.863 0.418 2.652 0.152 0.797-0.266 1.5-1.043 2.07-1.746 0.391-0.484 0.508-0.699 0.664-0.938"/>
    </g>
   </g>
  </g>
 </g>
 <g>
  <g clip-path="url(#clipPath-648409078)">
   <g transform="translate(0,-1)">
    <g>
     <path transform="matrix(.99999 0 0 .99999 67.621 -145.93)" d="m-43.621 157.93s-1.57 2.523-2.844 2.953c-1.27 0.43-3.953-0.656-3.953-0.656s0.152 2.992-0.633 4.113-3.57 1.887-3.57 1.887 1.832 2.316 1.832 3.703-1.832 3.703-1.832 3.703 2.785 0.766 3.57 1.887c0.785 1.125 0.633 4.113 0.633 4.113s2.68-1.082 3.953-0.656c1.273 0.43 2.844 2.953 2.844 2.953s1.57-2.523 2.848-2.953c1.27-0.426 3.953 0.656 3.953 0.656s-0.156-2.988 0.629-4.113c0.785-1.117 3.57-1.887 3.57-1.887s-1.828-2.316-1.828-3.703 1.828-3.703 1.828-3.703-2.781-0.766-3.57-1.887c-0.785-1.121-0.629-4.113-0.629-4.113s-2.684 1.086-3.953 0.656c-1.277-0.43-2.848-2.953-2.848-2.953" fill="url(#linear0)" stroke="#1f0000" stroke-width="2"/>
     <path id="SVGCleanerId_0" d="m21.742 17.738c-0.199-0.02-0.41 8e-3 -0.621 0.094-0.473 0.188-0.809 0.508-1.027 0.902-0.223 0.395-0.328 0.871-0.363 1.383-0.066 1.02 0.141 2.215 0.352 3.375s0.422 2.281 0.383 3.129c-0.02 0.422-0.102 0.77-0.258 1.02-0.16 0.246-0.383 0.41-0.758 0.48-0.227 0.043-0.43-0.074-0.645-0.352-0.215-0.277-0.406-0.703-0.566-1.125-0.316-0.852-0.484-1.734-0.484-1.734-0.02-0.098-0.125-0.168-0.219-0.148-0.098 0.023-0.164 0.133-0.145 0.23 0 0 0.18 0.902 0.512 1.793 0.164 0.445 0.363 0.887 0.621 1.219 0.254 0.332 0.602 0.566 0.992 0.492 0.449-0.086 0.785-0.316 0.992-0.645 0.211-0.328 0.297-0.746 0.316-1.207 0.043-0.926-0.172-2.063-0.383-3.223s-0.414-2.336-0.352-3.281c0.035-0.473 0.125-0.891 0.305-1.219 0.184-0.328 0.457-0.578 0.859-0.738 0.332-0.133 0.609-0.09 0.883 0.059 0.273 0.145 0.531 0.406 0.742 0.691 0.063 0.082 0.117 0.16 0.172 0.246l-1.66 1.254 1.129 1.617c-0.395 0.746-0.609 1.621-0.609 2.531 0 2.898 2.262 5.25 5.059 5.25 2.793 0 5.059-2.352 5.059-5.25s-2.266-5.25-5.059-5.25c-0.316 0-0.625 0.035-0.926 0.094l-1.141-1.641-1.57 1.184c-0.059-0.09-0.105-0.18-0.168-0.27-0.234-0.313-0.516-0.602-0.859-0.785-0.172-0.094-0.367-0.16-0.566-0.176m2.77 3.246h0.012 0.023c0.039 0 0.082 0.016 0.113 0.047l1.445 1.125c0.078 0.059 0.094 0.188 0.035 0.27-0.059 0.078-0.184 0.094-0.262 0.035l-1.445-1.125c-0.117-0.082-0.07-0.313 0.066-0.34l0.012-0.012m4.348 0h0.023c0.168-0.031 0.266 0.27 0.113 0.352l-1.445 1.125c-0.078 0.059-0.203 0.043-0.262-0.035-0.059-0.082-0.043-0.207 0.035-0.27l1.445-1.125c0.023-0.02 0.051-0.031 0.078-0.035l0.012-0.012m-3.59 1.512c0.5 0 0.902 0.418 0.902 0.938 0 0.516-0.406 0.938-0.902 0.938-0.5 0-0.902-0.422-0.902-0.938 0-0.52 0.402-0.938 0.902-0.938m2.891 0c0.5 0 0.902 0.418 0.902 0.938 0 0.516-0.402 0.938-0.902 0.938s-0.902-0.422-0.902-0.938c0-0.52 0.406-0.938 0.902-0.938m-11.09 0.563c-0.09 0.035-0.137 0.152-0.102 0.246l0.359 1.125c0.02 0.105 0.137 0.18 0.234 0.145 0.102-0.031 0.152-0.168 0.102-0.262l-0.359-1.125c-0.023-0.094-0.125-0.152-0.215-0.129h-0.023m1.492 0.141c-0.012 4e-3 -0.023 4e-3 -0.035 0.012-0.051 0.016-0.094 0.055-0.113 0.105l-0.508 1.055c-0.059 0.086-0.027 0.223 0.066 0.273 0.09 0.047 0.215 0 0.254-0.098l0.52-1.066c0.07-0.121-0.047-0.301-0.18-0.281m-2.555 0.797c-0.016 4e-3 -0.023 4e-3 -0.031 0.012-0.148 0.035-0.168 0.285-0.035 0.352l1.016 0.527c0.082 0.063 0.215 0.027 0.262-0.066 0.051-0.094 4e-3 -0.223-0.094-0.262l-1.027-0.539c-0.027-0.016-0.059-0.023-0.09-0.023m3.48 0.363c-0.016 0-0.031 4e-3 -0.047 0.012l-0.012 0.012-1.082 0.375c-0.105 0.016-0.18 0.141-0.145 0.242 0.031 0.102 0.16 0.16 0.254 0.109l1.082-0.375c0.102-0.016 0.168-0.121 0.152-0.219s-0.113-0.172-0.207-0.156m-2.531 0.75c-0.016 0-0.027 4e-3 -0.043 0.012l-0.012 0.012-1.086 0.375c-0.105 0.016-0.172 0.141-0.148 0.242 0.035 0.102 0.164 0.16 0.262 0.109l1.086-0.375c0.094-0.016 0.164-0.121 0.145-0.219-0.016-0.098-0.117-0.172-0.211-0.156m12.832 0.012v1.875c-0.727 0-2.168-0.75-6.324-0.938 4.156-0.188 5.605-0.938 6.324-0.938m-11.531 0.211c-0.141 0.043-0.152 0.289-0.02 0.352l1.027 0.539c0.086 0.043 0.195 0 0.238-0.09 0.043-0.086 0-0.207-0.086-0.25l-1.016-0.527c-0.035-0.023-0.082-0.031-0.121-0.023h-0.023m-0.992 0.258c-0.059 0.012-0.105 0.051-0.125 0.105l-0.523 1.066c-0.039 0.086 0 0.207 0.086 0.25s0.203 0 0.242-0.086l0.508-1.055c0.066-0.117-0.039-0.293-0.168-0.281h-0.02" fill="#1f0000" fill-rule="evenodd"/>
     <path d="m24 11.996s-1.57 2.523-2.844 2.953c-1.27 0.43-3.953-0.656-3.953-0.656s0.152 2.992-0.633 4.113-3.57 1.887-3.57 1.887 1.832 2.316 1.832 3.703-1.832 3.703-1.832 3.703 2.785 0.766 3.57 1.887c0.785 1.125 0.633 4.113 0.633 4.113s2.68-1.082 3.953-0.656c1.273 0.43 2.844 2.953 2.844 2.953s1.57-2.523 2.848-2.953c1.27-0.426 3.953 0.656 3.953 0.656s-0.156-2.988 0.629-4.113c0.785-1.117 3.57-1.887 3.57-1.887s-1.828-2.316-1.828-3.703 1.828-3.703 1.828-3.703-2.781-0.766-3.57-1.887c-0.785-1.121-0.629-4.113-0.629-4.113s-2.684 1.086-3.953 0.656c-1.277-0.43-2.848-2.953-2.848-2.953" fill="url(#linear1)"/>
     <use xlink:href="#SVGCleanerId_0"/>
     <path d="m24 11.309-0.305 0.492s-0.379 0.613-0.914 1.277-1.258 1.359-1.738 1.52c-0.48 0.164-1.445 0.035-2.25-0.176s-1.457-0.48-1.457-0.48l-0.531-0.211 0.035 0.586s0.035 0.723-0.023 1.582c-0.059 0.863-0.242 1.863-0.539 2.285-0.297 0.426-1.152 0.922-1.922 1.242-0.77 0.324-1.445 0.504-1.445 0.504l-0.543 0.152 0.352 0.445s0.445 0.57 0.891 1.301c0.445 0.73 0.859 1.645 0.859 2.168s-0.414 1.438-0.859 2.168-0.891 1.301-0.891 1.301l-0.352 0.445 0.543 0.152s0.676 0.184 1.445 0.504c0.77 0.324 1.625 0.82 1.922 1.242 0.297 0.426 0.48 1.422 0.539 2.285s0.023 1.582 0.023 1.582l-0.035 0.586 0.531-0.211s0.652-0.27 1.457-0.48c0.805-0.211 1.77-0.336 2.25-0.176 0.48 0.164 1.203 0.859 1.738 1.523s0.914 1.277 0.914 1.277l0.305 0.492 0.305-0.492s0.379-0.613 0.914-1.277c0.539-0.664 1.258-1.359 1.742-1.523 0.477-0.16 1.441-0.035 2.246 0.176s1.457 0.48 1.457 0.48l0.531 0.211-0.035-0.586s-0.035-0.719 0.023-1.582c0.059-0.863 0.246-1.859 0.543-2.285 0.293-0.422 1.148-0.918 1.918-1.242 0.773-0.32 1.445-0.504 1.445-0.504l0.543-0.152-0.348-0.445s-0.449-0.57-0.895-1.301c-0.441-0.73-0.855-1.645-0.855-2.168 0-0.52 0.414-1.438 0.855-2.168 0.445-0.73 0.895-1.301 0.895-1.301l0.348-0.445-0.543-0.152s-0.672-0.18-1.445-0.504c-0.77-0.32-1.625-0.82-1.918-1.242-0.297-0.422-0.484-1.422-0.543-2.285-0.059-0.859-0.023-1.582-0.023-1.582l0.035-0.586-0.531 0.211s-0.652 0.27-1.457 0.48c-0.805 0.211-1.77 0.34-2.246 0.176-0.484-0.16-1.203-0.855-1.742-1.52-0.535-0.668-0.914-1.277-0.914-1.277m-0.305 0.82c0.156 0.238 0.277 0.453 0.668 0.938 0.566 0.703 1.27 1.48 2.066 1.746 0.789 0.266 1.801 0.07 2.652-0.152 0.586-0.152 0.801-0.242 1.063-0.34-8e-3 0.289-0.031 0.527 0.012 1.148 0.059 0.914 0.188 1.973 0.676 2.672 0.492 0.699 1.422 1.148 2.238 1.488 0.559 0.23 0.781 0.281 1.051 0.363-0.172 0.227-0.32 0.414-0.645 0.949-0.473 0.773-0.973 1.699-0.973 2.566 0 0.863 0.5 1.789 0.973 2.563 0.324 0.535 0.473 0.723 0.645 0.949-0.27 0.082-0.492 0.133-1.051 0.363-0.816 0.344-1.746 0.793-2.238 1.488-0.488 0.699-0.613 1.758-0.676 2.672-0.043 0.625-0.02 0.859-0.012 1.148-0.262-0.098-0.477-0.191-1.063-0.34-0.852-0.23-1.863-0.418-2.652-0.152-0.797 0.27-1.5 1.043-2.066 1.746-0.391 0.484-0.512 0.699-0.668 0.938-0.156-0.238-0.273-0.453-0.664-0.938-0.57-0.703-1.273-1.477-2.07-1.746-0.789-0.266-1.797-0.07-2.652 0.152-0.586 0.145-0.801 0.242-1.063 0.34 8e-3 -0.289 0.031-0.527-0.012-1.148-0.059-0.914-0.188-1.973-0.676-2.672-0.488-0.695-1.418-1.145-2.238-1.488-0.555-0.23-0.781-0.281-1.047-0.363 0.168-0.227 0.316-0.414 0.641-0.949 0.473-0.773 0.973-1.699 0.973-2.563 0-0.867-0.5-1.793-0.973-2.566-0.324-0.535-0.473-0.723-0.641-0.949 0.266-0.082 0.492-0.133 1.047-0.363 0.82-0.34 1.75-0.793 2.238-1.488 0.488-0.699 0.613-1.758 0.676-2.672 0.043-0.621 0.02-0.859 0.012-1.148 0.262 0.098 0.477 0.188 1.063 0.34 0.855 0.223 1.863 0.418 2.652 0.152 0.797-0.266 1.5-1.043 2.07-1.746 0.391-0.484 0.508-0.699 0.664-0.938" fill="#1f0000"/>
    </g>
   </g>
  </g>
 </g>
 <g>
  <g transform="translate(0 -1004.4)">
   <path d="m1 1043.4v4c0 2.216 1.784 4 4 4h38c2.216 0 4-1.784 4-4v-4c0 2.216-1.784 4-4 4h-38c-2.216 0-4-1.784-4-4z" opacity=".1"/>
  </g>
 </g>
</svg>
