<svg style="" viewBox="0 0 48 48" xmlns="http://www.w3.org/2000/svg" xmlns:xlink="http://www.w3.org/1999/xlink">
 <defs style="">
  <linearGradient id="linearGradient3764" gradientTransform="translate(-48 .002215)" gradientUnits="userSpaceOnUse" style="" x1="1" x2="47">
   <stop offset="0" style="stop-color:#b0cde4"/>
   <stop offset="1" style="stop-color:#c0d7e9"/>
  </linearGradient>
  <linearGradient id="linear0" gradientUnits="userSpaceOnUse" style="" x1="31.925133" x2="32.066865" y1="48.0010851" y2=".0885825">
   <stop offset="0" style="stop-color:#3d8ee5"/>
   <stop offset="1" style="stop-color:#86d4ec"/>
  </linearGradient>
 </defs>
 <path d="m 1 43 v .25 c 0 2.216 1.784 4 4 4 h 38 c 2.216 0 4 -1.784 4 -4 v -.25 c 0 2.216 -1.784 4 -4 4 h -38 c -2.216 0 -4 -1.784 -4 -4 z m 0 .5 v .5 c 0 2.216 1.784 4 4 4 h 38 c 2.216 0 4 -1.784 4 -4 v -.5 c 0 2.216 -1.784 4 -4 4 h -38 c -2.216 0 -4 -1.784 -4 -4 z" style="opacity:.02"/>
 <path d="m 1 43.25 v .25 c 0 2.216 1.784 4 4 4 h 38 c 2.216 0 4 -1.784 4 -4 v -.25 c 0 2.216 -1.784 4 -4 4 h -38 c -2.216 0 -4 -1.784 -4 -4 z" style="opacity:.05"/>
 <path d="m 1 43 v .25 c 0 2.216 1.784 4 4 4 h 38 c 2.216 0 4 -1.784 4 -4 v -.25 c 0 2.216 -1.784 4 -4 4 h -38 c -2.216 0 -4 -1.784 -4 -4 z" style="opacity:.1"/>
 <rect height="46" rx="4" style="fill:url(#linearGradient3764)" transform="rotate(-90)" width="46" x="-47" y="1"/>
 <g style="opacity:.1">
  <path d="m 21.668 12 c 2.629 0 4.879 1.52 6.074 3.707 .676 -.512 1.535 -.848 2.48 -.848 2.148 0 3.891 1.602 3.891 3.578 0 .445 -.078 .859 -.242 1.254 2.441 1 4.133 3.27 4.133 5.891 0 3.578 -3.125 6.43 -7 6.43 h -14 c -3.875 0 -7 -2.867 -7 -6.43 0 -2.82 1.973 -5.199 4.715 -6.07 0 -.121 -.051 -.234 -.051 -.355 0 -3.945 3.137 -7.16 7 -7.16" style="fill-rule:evenodd"/>
  <path d="m 28 18 h 7 v 12 h 4 l -7.5 6 -7.5 -6 h 4" style=""/>
 </g>
 <g style="" transform="translate(0 -1)">
  <path d="m 21.668 12 c 2.629 0 4.879 1.52 6.074 3.707 .676 -.512 1.535 -.848 2.48 -.848 2.148 0 3.891 1.602 3.891 3.578 0 .445 -.078 .859 -.242 1.254 2.441 1 4.133 3.27 4.133 5.891 0 3.578 -3.125 6.43 -7 6.43 h -14 c -3.875 0 -7 -2.867 -7 -6.43 0 -2.82 1.973 -5.199 4.715 -6.07 0 -.121 -.051 -.234 -.051 -.355 0 -3.945 3.137 -7.16 7 -7.16" style="fill:#f9f9f9;fill-rule:evenodd"/>
  <path d="m 28 18 h 7 v 12 h 4 l -7.5 6 -7.5 -6 h 4" style="fill:url(#linear0)"/>
 </g>
 <path d="m 1 39 v 4 c 0 2.216 1.784 4 4 4 h 38 c 2.216 0 4 -1.784 4 -4 v -4 c 0 2.216 -1.784 4 -4 4 h -38 c -2.216 0 -4 -1.784 -4 -4 z" style="opacity:.1"/>
</svg>
