<svg viewBox="0 0 48 48">
  <defs>
    <linearGradient id="a" x1="1" x2="47" gradientUnits="userSpaceOnUse" gradientTransform="translate(-48 .002)">
      <stop stop-color="#3a3a3a"/>
      <stop offset="1" stop-color="#444"/>
    </linearGradient>
    <clipPath id="b"/>
    <clipPath id="c"/>
  </defs>
  <path d="M1 43v.25c0 2.216 1.784 4 4 4h38c2.216 0 4-1.784 4-4V43c0 2.216-1.784 4-4 4H5c-2.216 0-4-1.784-4-4zm0 .5v.5c0 2.216 1.784 4 4 4h38c2.216 0 4-1.784 4-4v-.5c0 2.216-1.784 4-4 4H5c-2.216 0-4-1.784-4-4z" opacity=".02"/>
  <path d="M1 43.25v.25c0 2.216 1.784 4 4 4h38c2.216 0 4-1.784 4-4v-.25c0 2.216-1.784 4-4 4H5c-2.216 0-4-1.784-4-4z" opacity=".05"/>
  <path d="M1 43v.25c0 2.216 1.784 4 4 4h38c2.216 0 4-1.784 4-4V43c0 2.216-1.784 4-4 4H5c-2.216 0-4-1.784-4-4z" opacity=".1"/>
  <rect width="46" height="46" x="-47" y="1" rx="4" transform="rotate(-90)" fill="url(#a)"/>
  <g opacity=".1" clip-path="url(#b)">
    <path d="M15.543 12h16.914A3.543 3.543 0 0 1 36 15.543v16.914A3.543 3.543 0 0 1 32.457 36H15.543A3.543 3.543 0 0 1 12 32.457V15.543A3.543 3.543 0 0 1 15.543 12m0 0"/>
    <path d="M15 15h18l-9 18m-9-18"/>
  </g>
  <g>
    <g clip-path="url(#c)">
      <path d="M15.543 11h16.914A3.543 3.543 0 0 1 36 14.543v16.914A3.543 3.543 0 0 1 32.457 35H15.543A3.543 3.543 0 0 1 12 31.457V14.543A3.543 3.543 0 0 1 15.543 11m0 0" fill="#d64442"/>
      <path d="M15 14h18l-9 18m-9-18" fill="#f9f9f9"/>
    </g>
  </g>
  <g>
    <path d="M1 38.998v4c0 2.216 1.784 4 4 4h38c2.216 0 4-1.784 4-4v-4c0 2.216-1.784 4-4 4H5c-2.216 0-4-1.784-4-4z" opacity=".1"/>
  </g>
</svg>
