<svg width="48" height="48" viewBox="0 0 48 48.000001" xmlns="http://www.w3.org/2000/svg">
  <defs>
    <linearGradient id="a" x1="-47" x2="-1" gradientUnits="userSpaceOnUse">
      <stop offset="0" stop-color="#b2dcf6"/>
      <stop offset="1" stop-color="#c3e4f8"/>
    </linearGradient>
  </defs>
  <path d="M1 43v.25c0 2.216 1.784 4 4 4h38c2.216 0 4-1.784 4-4V43c0 2.216-1.784 4-4 4H5c-2.216 0-4-1.784-4-4zm0 .5v.5c0 2.216 1.784 4 4 4h38c2.216 0 4-1.784 4-4v-.5c0 2.216-1.784 4-4 4H5c-2.216 0-4-1.784-4-4z" opacity=".02"/>
  <path d="M1 43.25v.25c0 2.216 1.784 4 4 4h38c2.216 0 4-1.784 4-4v-.25c0 2.216-1.784 4-4 4H5c-2.216 0-4-1.784-4-4z" opacity=".05"/>
  <path d="M1 43v.25c0 2.216 1.784 4 4 4h38c2.216 0 4-1.784 4-4V43c0 2.216-1.784 4-4 4H5c-2.216 0-4-1.784-4-4z" opacity=".1"/>
  <rect transform="rotate(-90)" x="-47" y="1" width="46" height="46" rx="4" fill="url(#a)"/>
  <path d="M5 2C2.784 2 1 3.784 1 6v33a3.981 3.981 0 0 0 3 3.861V7c0-1.108.892-2 2-2h36c1.108 0 2 .892 2 2v35.861A3.981 3.981 0 0 0 47 39V6c0-2.216-1.784-4-4-4H5zm31 11L20 25h-8l3 3.668L12 31l-6-1 6.498 13h15.848L38 15l-2-2zM24 26a2 2 0 1 1 0 4 2 2 0 0 1 0-4zm-5 4a2 2 0 1 1 0 4 2 2 0 0 1 0-4z" opacity=".1"/>
  <path d="M36 12L20 24h-8l3 3.668L12 30l-6-1 8.998 18h11.623L38 14zM24 25a2 2 0 1 1 0 4 2 2 0 0 1 0-4zm-5 4a2 2 0 1 1 0 4 2 2 0 0 1 0-4z" fill="#224255"/>
  <path d="M5 1C2.784 1 1 2.784 1 5v38c0 2.216 1.784 4 4 4h38c2.216 0 4-1.784 4-4V5c0-2.216-1.784-4-4-4zm1 3h36c1.108 0 2 .892 2 2v36c0 1.108-.892 2-2 2H6c-1.108 0-2-.892-2-2V6c0-1.108.892-2 2-2z" fill="#224255"/>
  <path d="M1 39v4c0 2.216 1.784 4 4 4h38c2.216 0 4-1.784 4-4v-4c0 2.216-1.784 4-4 4H5c-2.216 0-4-1.784-4-4z" opacity=".1"/>
</svg>
