<svg version="1.1" viewBox="0 0 48 48" xmlns="http://www.w3.org/2000/svg">
 <defs>
  <linearGradient id="bg" x2="0" y1="1" y2="47" gradientUnits="userSpaceOnUse">
   <stop style="stop-color:#474747" offset="0"/>
   <stop style="stop-color:#3d3d3d" offset="1"/>
  </linearGradient>
 </defs>
 <path d="m1 43v0.25c0 2.22 1.78 4 4 4h38c2.22 0 4-1.78 4-4v-0.25c0 2.22-1.78 4-4 4h-38c-2.22 0-4-1.78-4-4zm0 0.5v0.5c0 2.22 1.78 4 4 4h38c2.22 0 4-1.78 4-4v-0.5c0 2.22-1.78 4-4 4h-38c-2.22 0-4-1.78-4-4z" style="opacity:.02"/>
 <path d="m1 43.2v0.25c0 2.22 1.78 4 4 4h38c2.22 0 4-1.78 4-4v-0.25c0 2.22-1.78 4-4 4h-38c-2.22 0-4-1.78-4-4z" style="opacity:.05"/>
 <path d="m1 43v0.25c0 2.22 1.78 4 4 4h38c2.22 0 4-1.78 4-4v-0.25c0 2.22-1.78 4-4 4h-38c-2.22 0-4-1.78-4-4z" style="opacity:.1"/>
 <rect x="1" y="1" width="46" height="46" rx="4" style="fill:url(#bg)"/>
 <path d="m33.1 1c-3.22 2.33-5.31 6.05-5.31 10.2 0 2.38 0.688 4.62 1.88 6.53v7.57l-4.73-4.73c1.08-2.77 0.512-6.06-1.72-8.3-1.54-1.54-3.58-2.27-5.59-2.25v0.012c-0.918 0.012-1.84 0.187-2.71 0.521l4.65 4.65c0.805 0.777 1.13 1.93 0.844 3-0.281 1.08-1.12 1.93-2.21 2.21-1.08 0.285-2.23-0.039-3-0.844l-4.65-4.65c-1.08 2.77-0.512 6.07 1.73 8.3 2.23 2.24 5.53 2.81 8.3 1.73l7.14 7.14c-0.709 0.31-1.38 0.696-1.98 1.16l-13-5.66c-0.035-4.99-4.27-9.09-9.44-9.09-0.779 0-1.53 0.098-2.25 0.271v3.67c0.65-0.182 1.38-0.285 2.22-0.285 3.09 0 4.91 1.24 5.47 3.69l-3.38-1.47c-1.49-0.613-3.14-0.318-4.31 0.619v6.26c0.308 0.245 0.648 0.462 1.03 0.619l2.62 1.15c-0.438 0.066-0.929 0.096-1.44 0.096-0.837 0-1.57-0.105-2.22-0.287v3.67c0.722 0.173 1.47 0.271 2.25 0.271 2.15 0 4.12-0.718 5.72-1.89l13.1 5.72c0.053 2.5 1.17 4.76 2.92 6.39h13c1.79-1.68 2.92-4.01 2.92-6.59 0-2.06-0.708-3.93-1.91-5.47h0.032l7.09-12c0.275-0.116 0.54-0.243 0.803-0.375v-5.2c-1.57 1.44-3.67 2.33-6.02 2.33-4.88 0-8.78-3.78-8.78-8.5 0-4.72 3.9-8.47 8.78-8.47 2.35 0 4.45 0.878 6.02 2.3v-0.0547c0-2.22-1.78-4-4-4h-9.91zm8.06 4.74c-0.194-0.0061-0.39-0.0019-0.586 0.0118l-2e-3 -2e-3c-2.96 0.211-5.25 2.6-5.25 5.47 0.133 2.93 2.63 5.23 5.66 5.23 3.03 0 5.52-2.3 5.66-5.23 4e-3 -1.52-0.65-2.97-1.8-4.01-1.01-0.906-2.32-1.43-3.68-1.47zm-11 28.8 1.14 1.14-2.03-0.883c0.287-0.107 0.588-0.184 0.891-0.256zm3.88 0.311c0.584 0.241 1.12 0.564 1.6 0.955a1 1 0 0 1-0.611 0.211 1 1 0 0 1-1-1 1 1 0 0 1 0.016-0.166zm2.88 2.42c0.576 0.917 0.914 2 0.914 3.16 0 3.38-2.79 6.06-6.28 6.06-2.88 0-5.25-1.84-6-4.38l4.53 1.97c2.14 0.879 4.62-0.087 5.53-2.16 0.589-1.34 0.359-2.8-0.449-3.92 0.176-0.014 0.352-0.039 0.527-0.086 0.461-0.12 0.876-0.347 1.23-0.648z" style="opacity:.1"/>
 <path d="m31.9 1c-2.51 2.33-4.08 5.6-4.08 9.22 0 2.38 0.688 4.62 1.88 6.53v13.7c-1.46 0.293-2.8 0.914-3.94 1.78l-13-5.66c-0.035-4.99-4.27-9.09-9.44-9.09-0.779 0-1.53 0.0977-2.25 0.271v3.67c0.65-0.182 1.38-0.285 2.22-0.285 3.09 0 4.91 1.24 5.47 3.69l-3.38-1.47c-1.49-0.613-3.14-0.318-4.31 0.619v6.26c0.308 0.246 0.648 0.462 1.03 0.619l2.62 1.15c-0.438 0.066-0.93 0.0957-1.44 0.0957-0.837 0-1.57-0.105-2.22-0.287v3.67c0.722 0.174 1.47 0.271 2.25 0.271 2.15 0 4.12-0.719 5.72-1.89l13.1 5.72c0.0658 3.06 1.7 5.77 4.16 7.39h10.5c2.51-1.66 4.17-4.45 4.17-7.59 0-2.06-0.707-3.93-1.91-5.47h0.0312l7.09-12c0.274-0.116 0.539-0.243 0.802-0.375v-5.21c-1.57 1.44-3.67 2.33-6.02 2.33-4.88 0-8.78-3.78-8.78-8.5s3.9-8.47 8.78-8.47c2.26 0 4.3 0.813 5.85 2.14-0.478-1.67-2-2.9-3.83-2.9zm9.29 3.74c-0.194-0.00611-0.39-0.00191-0.586 0.0117l-2e-3 -0.00195c-2.96 0.211-5.25 2.6-5.25 5.47 0.133 2.93 2.63 5.23 5.66 5.23 3.03 0 5.52-2.31 5.66-5.23 4e-3 -1.52-0.65-2.97-1.8-4.01-1.01-0.906-2.31-1.43-3.68-1.47zm-9.63 28.6 2e-3 0.0039c3.49 0 6.28 2.69 6.28 6.06 0 3.38-2.79 6.06-6.28 6.06-2.88 0-5.25-1.84-6-4.38l4.53 1.97c2.14 0.879 4.63-0.0862 5.53-2.16 0.91-2.06-0.109-4.46-2.25-5.34l-4.1-1.78c0.711-0.266 1.47-0.438 2.28-0.438z" style="fill:#5c5c5c"/>
 <path d="m1 39v4c0 2.22 1.78 4 4 4h38c2.22 0 4-1.78 4-4v-4c0 2.22-1.78 4-4 4h-38c-2.22 0-4-1.78-4-4z" style="opacity:.1"/>
 <path d="m17.6 9.03v0.0117c-0.918 0.012-1.84 0.186-2.71 0.522l4.65 4.65c0.805 0.777 1.13 1.93 0.844 3-0.281 1.08-1.12 1.93-2.21 2.21-1.08 0.285-2.23-0.039-3-0.844l-4.65-4.65c-1.08 2.77-0.512 6.07 1.73 8.3 2.23 2.24 5.53 2.81 8.3 1.73l12.1 12.1c0.773 0.805 1.92 1.13 3 0.843 1.08-0.281 1.93-1.12 2.21-2.21 0.281-1.08-0.039-2.23-0.844-3l-12.1-12.1c1.08-2.77 0.512-6.06-1.72-8.3-1.54-1.54-3.58-2.27-5.59-2.25zm17.4 24a1 1 0 0 1 1 1 1 1 0 0 1-1 1 1 1 0 0 1-1-1 1 1 0 0 1 1-1z" style="fill:#f9f9f9"/>
</svg>
