<svg width="48" height="48" viewBox="0 0 48 48.000001" xmlns="http://www.w3.org/2000/svg">
  <defs>
    <linearGradient id="a" x1="-47" x2="-1" gradientUnits="userSpaceOnUse">
      <stop offset="0" stop-color="#e4e4e4"/>
      <stop offset="1" stop-color="#eee"/>
    </linearGradient>
  </defs>
  <path d="M1 43v.25c0 2.216 1.784 4 4 4h38c2.216 0 4-1.784 4-4V43c0 2.216-1.784 4-4 4H5c-2.216 0-4-1.784-4-4zm0 .5v.5c0 2.216 1.784 4 4 4h38c2.216 0 4-1.784 4-4v-.5c0 2.216-1.784 4-4 4H5c-2.216 0-4-1.784-4-4z" opacity=".02"/>
  <path d="M1 43.25v.25c0 2.216 1.784 4 4 4h38c2.216 0 4-1.784 4-4v-.25c0 2.216-1.784 4-4 4H5c-2.216 0-4-1.784-4-4z" opacity=".05"/>
  <path d="M1 43v.25c0 2.216 1.784 4 4 4h38c2.216 0 4-1.784 4-4V43c0 2.216-1.784 4-4 4H5c-2.216 0-4-1.784-4-4z" opacity=".1"/>
  <rect transform="rotate(-90)" x="-47" y="1" width="46" height="46" rx="4" fill="url(#a)"/>
  <path d="M1 39v4c0 2.216 1.784 4 4 4h38c2.216 0 4-1.784 4-4v-4c0 2.216-1.784 4-4 4H5c-2.216 0-4-1.784-4-4zM13.373 13c-1.582 1.252-2.17 2.748-1.883 4.48.772-2.01 3.65 1.285 3.727 1.455 1.34 2.917-3.216 2.911-2.564-.281-.7 2.02.305 4.064.635 3.975.985-.785 2.259 1.35 2.246 1.768.18.713-.327 2.535-1.613 1.08 1.335 3.751 4.931 3.13 6 2.33.224-.196.493-.415.762-.688l2.227 2.09-5.363 5.779c.739.126 1.967-.841 3.133-1.639l3.322-3.117 3.322 3.117c1.165.797 2.394 1.765 3.133 1.639l-5.363-5.779 2.227-2.09c.268.273.537.492.762.688 1.069.8 4.665 1.421 6-2.33-1.287 1.455-1.793-.367-1.613-1.08-.013-.418 1.261-2.552 2.246-1.768.329.089 1.335-1.957.635-3.975.651 3.193-3.904 3.198-2.564.281.077-.17 2.955-3.467 3.727-1.455.287-1.732-.301-3.228-1.883-4.48v.002c.229 1.356.326 2.648-1.229 3.01-.954-.024-2.364-.754-1.115-2.158-.696.227-1.208.823-1.621 1.615a1.51 1.51 0 0 0-.158.578c.493 2.231.389 2.507.246 3.084-.684 3.403-4.074 3.268-4.391 3.365l-.258.109c-.143 1.266-.025 2.202.223 2.92l-2.324 2.504-2.324-2.504c.247-.718.366-1.654.223-2.92l-.258-.109c-.317-.098-3.707.038-4.391-3.365-.143-.577-.247-.853.246-3.084a1.523 1.523 0 0 0-.158-.578c-.413-.792-.925-1.388-1.621-1.615 1.249 1.405-.161 2.134-1.115 2.158-1.554-.364-1.458-1.656-1.229-3.01V13zm-3.938.25c.507 1.116.328 1.232.512 1.535.492.512.64.049.939-.656-.501-.077-1.03.022-1.451-.879zm29.13 0c-.422.901-.95.802-1.451.879.299.705.448 1.169.939.656.184-.303.005-.419.512-1.535zM18.02 16.28l.592 3.191c-.129.056-.224.078-.314.02.055.12.143.126.234.131.151-.111.339-.244.398-.217-.065.253-.097.439.082.393.295-.233.652-.335.645-1.199.025-.692-.754-1.59-1.637-2.318zm11.961 0c-.882.728-1.662 1.627-1.637 2.318-.007.865.35.966.645 1.199.179.046.147-.139.082-.393.059-.028.248.106.398.217.092-.005.179-.011.234-.131-.091.058-.185.036-.314-.02l.592-3.191zm-20.75.533a.903.903 0 0 0-.23.035c1.88 1.361 1.892 1.883 2.168 2.654.502-.515-.777-2.711-1.938-2.689zm29.539 0c-1.16-.022-2.439 2.175-1.938 2.689.276-.771.288-1.293 2.168-2.654a.867.867 0 0 0-.23-.035zm-16.15 7.238c-.165.435-.31.836-.414 1.123.014-.07.454-.014.469.016.024.064-.028-1.152-.051-1.137zm2.762 0l-.004.002c-.023-.015-.075 1.201-.051 1.137.014-.029.455-.086.469-.016-.104-.287-.249-.688-.414-1.123zm-12.133.592c-.064.015-.078.086-.057.178.018.095.077.185.143.17.065-.015.1-.104.082-.199-.021-.092-.103-.164-.168-.148zm21.504 0c-.065-.015-.147.056-.168.148-.018.095.017.184.082.199s.124-.075.143-.17c.021-.092.008-.163-.057-.178z" opacity=".1"/>
  <g>
    <path d="M38.565 12.25c-.421.901-.95.802-1.45.88.298.705.446 1.167.937.654.185-.303.007-.417.513-1.533M34.627 12c.23 1.356.326 2.65-1.229 3.013-.954-.024-2.363-.754-1.114-2.159-.696.228-1.208.824-1.62 1.616-.103.2-.144.396-.16.578.494 2.231.389 2.508.246 3.085-.684 3.403-4.073 3.266-4.39 3.364l-.259.11c-.387 3.42 1.124 4.45 1.98 5.198 1.068.8 4.665 1.42 6-2.33-1.287 1.455-1.795-.367-1.615-1.08-.013-.417 1.263-2.552 2.248-1.767.33.089 1.334-1.957.633-3.975.652 3.193-3.903 3.2-2.563.283.077-.17 2.954-3.469 3.726-1.457.286-1.732-.3-3.228-1.883-4.48M39 15.844c-1.211-.358-2.703 2.105-2.168 2.654.275-.771.288-1.293 2.168-2.654m-9.019-.569c-.882.729-1.661 1.628-1.636 2.32-.008.864.348.964.643 1.197.179.046.148-.138.083-.391.06-.028.247.106.398.216.091-.004.18-.01.235-.13-.09.058-.186.036-.315-.02m5.363 5.172c-.066-.016-.147.056-.168.149-.018.094.016.182.082.198s.125-.075.143-.17c.022-.092.008-.162-.057-.177m-9.375-.59c-.023-.015-.075 1.2-.05 1.137.013-.03.455-.085.469-.015-.105-.287-.25-.69-.415-1.124" fill="#f93"/>
    <path d="M30.735 21.331c-.41-.312-.84-.246-1.248.003l1.3 1.352c.25-.367.358-.793-.052-1.355m-2.044.697c-.083.085-.167.154-.25.245l-.123.146 1.46 1.408.25-.245c.02-.03.054-.064.082-.097m-2.206-.628l-.434.463 1.388 1.346.459-.442m-2.082-.676l-9.69 10.441c.74.126 1.968-.84 3.134-1.638l7.947-7.458m-1.389-1.346" fill="#2f2f2f"/>
  </g>
  <g>
    <path d="M9.435 12.25c.421.901.95.802 1.45.88-.298.705-.446 1.167-.937.654-.185-.303-.007-.417-.513-1.533m3.938-.25c-.23 1.356-.326 2.65 1.229 3.013.954-.024 2.363-.754 1.114-2.159.696.228 1.208.824 1.62 1.616.103.2.144.396.16.578-.494 2.231-.389 2.508-.246 3.085.684 3.403 4.073 3.266 4.39 3.364l.259.11c.387 3.42-1.124 4.45-1.98 5.198-1.068.8-4.665 1.42-6-2.33 1.287 1.455 1.795-.367 1.615-1.08.013-.417-1.263-2.552-2.248-1.767-.33.089-1.334-1.957-.633-3.975-.652 3.193 3.903 3.2 2.563.283-.077-.17-2.954-3.469-3.726-1.457-.286-1.732.3-3.228 1.883-4.48M9 15.844c1.211-.358 2.703 2.105 2.168 2.654-.275-.771-.288-1.293-2.168-2.654m9.019-.569c.882.729 1.661 1.628 1.636 2.32.008.864-.348.964-.643 1.197-.179.046-.148-.138-.083-.391-.06-.028-.247.106-.398.216-.091-.004-.18-.01-.235-.13.09.058.186.036.315-.02m-5.363 5.172c.066-.016.147.056.168.149.018.094-.016.182-.082.198s-.125-.075-.143-.17c-.022-.092-.008-.162.057-.177m9.375-.59c.023-.015.075 1.2.05 1.137-.013-.03-.455-.085-.469-.015.105-.287.25-.69.415-1.124" fill="#f93"/>
    <path d="M17.265 21.331c.41-.312.84-.246 1.248.003l-1.3 1.352c-.25-.367-.358-.793.052-1.355m2.044.697c.083.085.167.154.25.245l.123.146-1.46 1.408-.25-.245c-.02-.03-.054-.064-.082-.097m2.206-.628l.434.463-1.388 1.346-.459-.442m2.082-.676l9.69 10.441c-.74.126-1.968-.84-3.134-1.638l-7.947-7.458m1.389-1.346" fill="#2f2f2f"/>
  </g>
</svg>
