<svg viewBox="0 0 48 48">
  <defs>
    <linearGradient id="a" x1="1" x2="47" gradientUnits="userSpaceOnUse" gradientTransform="translate(-48 .002)">
      <stop stop-color="#333"/>
      <stop offset="1" stop-color="#3d3d3d"/>
    </linearGradient>
    <clipPath id="b"/>
    <clipPath id="c"/>
  </defs>
  <path d="M1 43v.25c0 2.216 1.784 4 4 4h38c2.216 0 4-1.784 4-4V43c0 2.216-1.784 4-4 4H5c-2.216 0-4-1.784-4-4zm0 .5v.5c0 2.216 1.784 4 4 4h38c2.216 0 4-1.784 4-4v-.5c0 2.216-1.784 4-4 4H5c-2.216 0-4-1.784-4-4z" opacity=".02"/>
  <path d="M1 43.25v.25c0 2.216 1.784 4 4 4h38c2.216 0 4-1.784 4-4v-.25c0 2.216-1.784 4-4 4H5c-2.216 0-4-1.784-4-4z" opacity=".05"/>
  <path d="M1 43v.25c0 2.216 1.784 4 4 4h38c2.216 0 4-1.784 4-4V43c0 2.216-1.784 4-4 4H5c-2.216 0-4-1.784-4-4z" opacity=".1"/>
  <rect width="46" height="46" x="-47" y="1" rx="4" transform="rotate(-90)" fill="url(#a)"/>
  <g opacity=".1" clip-path="url(#b)">
    <path d="M23.832 12.145c-1.773-.137-2.809 1.262-2.379 2.773l-3.48 4.543c-.125.277-.328.523 0 1.059l2.445 5.199-.371 2.582-3.82 3.859c-.316.297-.289.574 0 .871l2.445 2.582c.367.258.707.273 1.074-.09l-2.68-2.773 3.051-2.582c-.281.992-.711 1.746-.77 2.738-.094.492 1.191 1.863 1.742 2.707.59.215.977.098 1.273-.156-.676-.934-2.152-2.457-2.01-2.797-.16-.172 1.27-1.602 1.91-2.398l2.313.035c.473.777 1.484 2.25 1.406 2.367.203.246-1.23 1.816-1.844 2.738.301.32.672.297 1.039.156.648-.949 2-2.258 1.941-2.832.273-.527-.699-1.305-1.039-1.961l2.313 1.805-1.711 3.02c.172.172-.027.484.875.402l2.211-3.207-3.352-3.824.301-2.211 4.289-4.203-1.172-6.664c.023-.305.129-.535.434-.621v-2.023c-.828-.277-1.352-.844-2.48-.84.688.613 1.336 1.336 1.574 1.867-.227 1.176-.613 1.949-1.074 2.551-.789.082-1.41.168-1.773.25.883.18 1.824.762 2.578.344l.602 4.762-2.547 2.488c.375-1.918 1-3.273 1.242-5.32-.531.668-1.176.934-1.711 1.523l-3.715-.746c-.25-1.078-.191-2.289-.77-3.238-1.035 2.363-.895 4.59-1.406 6.91l-2.01-3.703 3.18-3.734c1.043 1.156 2.051 1.016 3.047.781-.711-.195-1.438-.367-1.875-.781-.223-1.012-.535-1.496-.734-2.488.32-.496.66-1 1.441-1.715m.434 10.609a.95.95 0 0 1 .301 0c.813.105 1.238 1.316.938 2.707-.301 1.395-1.195 2.434-2.01 2.336-.813-.102-1.227-1.316-.938-2.707.266-1.219.988-2.184 1.711-2.336m0 0"/>
    <path d="M96.52-57.46c0 7.986-6.74 14.437-15.06 14.437-8.318 0-15.06-6.451-15.06-14.437s6.74-14.437 15.06-14.437c8.318 0 15.06 6.451 15.06 14.437m0 0" transform="matrix(.1733 0 0 .16289 11.638 23.797)" stroke="#f9f9f9"/>
  </g>
  <g>
    <g fill="#f9f9f9" clip-path="url(#c)">
      <path d="M23.832 11.145c-1.773-.137-2.809 1.262-2.379 2.773l-3.48 4.543c-.125.277-.328.523 0 1.059l2.445 5.199-.371 2.582-3.82 3.859c-.316.297-.289.574 0 .871l2.445 2.582c.367.258.707.273 1.074-.09l-2.68-2.773 3.051-2.582c-.281.992-.711 1.746-.77 2.738-.094.492 1.191 1.863 1.742 2.707.59.215.977.098 1.273-.156-.676-.934-2.152-2.457-2.01-2.797-.16-.172 1.27-1.602 1.91-2.398l2.313.035c.473.777 1.484 2.25 1.406 2.367.203.246-1.23 1.816-1.844 2.738.301.32.672.297 1.039.156.648-.949 2-2.258 1.941-2.832.273-.527-.699-1.305-1.039-1.961l2.313 1.805-1.711 3.02c.172.172-.027.484.875.402l2.211-3.207-3.352-3.824.301-2.211 4.289-4.203-1.172-6.664c.023-.305.129-.535.434-.621v-2.023c-.828-.277-1.352-.844-2.48-.84.688.613 1.336 1.336 1.574 1.867-.227 1.176-.613 1.949-1.074 2.551-.789.082-1.41.168-1.773.25.883.18 1.824.762 2.578.344l.602 4.762-2.547 2.488c.375-1.918 1-3.273 1.242-5.32-.531.668-1.176.934-1.711 1.523l-3.715-.746c-.25-1.078-.191-2.289-.77-3.238-1.035 2.363-.895 4.59-1.406 6.91l-2.01-3.703 3.18-3.734c1.043 1.156 2.051 1.016 3.047.781-.711-.195-1.438-.367-1.875-.781-.223-1.012-.535-1.496-.734-2.488.32-.496.66-1 1.441-1.715m.434 10.609a.95.95 0 0 1 .301 0c.813.105 1.238 1.316.938 2.707-.301 1.395-1.195 2.434-2.01 2.336-.813-.102-1.227-1.316-.938-2.707.266-1.219.988-2.184 1.711-2.336m0 0"/>
      <path d="M96.52-57.46c0 7.986-6.74 14.437-15.06 14.437-8.318 0-15.06-6.451-15.06-14.437s6.74-14.437 15.06-14.437c8.318 0 15.06 6.451 15.06 14.437m0 0" transform="matrix(.1733 0 0 .16289 11.638 22.797)" stroke="#f9f9f9"/>
    </g>
  </g>
  <g>
    <path d="M1 38.998v4c0 2.216 1.784 4 4 4h38c2.216 0 4-1.784 4-4v-4c0 2.216-1.784 4-4 4H5c-2.216 0-4-1.784-4-4z" opacity=".1"/>
  </g>
</svg>
