<svg viewBox="0 0 48 48" xmlns="http://www.w3.org/2000/svg">
 <defs>
  <linearGradient id="linearGradient3764" x1="1" x2="47" gradientTransform="translate(-48 .0022147)" gradientUnits="userSpaceOnUse">
   <stop stop-color="#e4e4e4" offset="0"/>
   <stop stop-color="#eee" offset="1"/>
  </linearGradient>
  <clipPath id="clipPath-428846474">
   <g transform="translate(0 -1004.4)">
    <rect x="1" y="1005.4" width="46" height="46" rx="4" fill="#1890d0"/>
   </g>
  </clipPath>
  <clipPath id="clipPath-442327316">
   <g transform="translate(0 -1004.4)">
    <rect x="1" y="1005.4" width="46" height="46" rx="4" fill="#1890d0"/>
   </g>
  </clipPath>
 </defs>
 <g>
  <path d="m1 43v0.25c0 2.216 1.784 4 4 4h38c2.216 0 4-1.784 4-4v-0.25c0 2.216-1.784 4-4 4h-38c-2.216 0-4-1.784-4-4zm0 0.5v0.5c0 2.216 1.784 4 4 4h38c2.216 0 4-1.784 4-4v-0.5c0 2.216-1.784 4-4 4h-38c-2.216 0-4-1.784-4-4z" opacity=".02"/>
  <path d="m1 43.25v0.25c0 2.216 1.784 4 4 4h38c2.216 0 4-1.784 4-4v-0.25c0 2.216-1.784 4-4 4h-38c-2.216 0-4-1.784-4-4z" opacity=".05"/>
  <path d="m1 43v0.25c0 2.216 1.784 4 4 4h38c2.216 0 4-1.784 4-4v-0.25c0 2.216-1.784 4-4 4h-38c-2.216 0-4-1.784-4-4z" opacity=".1"/>
 </g>
 <g>
  <rect transform="rotate(-90)" x="-47" y="1" width="46" height="46" rx="4" fill="url(#linearGradient3764)"/>
 </g>
 <g>
  <g clip-path="url(#clipPath-428846474)">
   <g opacity=".1">
    <g>
     <g>
      <path d="m36 24c0 6.629-5.371 12-12 12s-12-5.371-12-12 5.371-12 12-12 12 5.371 12 12"/>
      <path d="m30.75 22c0 4.969-4.03 9-9 9-4.969 0-9-4.03-9-9 0-4.969 4.03-9 9-9 4.969 0 9 4.03 9 9"/>
      <path d="m28.309 13 2.395-2.676 4.906 4.676-2.605 2m-4.695-4"/>
      <path d="m35 22v5h4v-5m-4 0"/>
      <path d="m25 34 2 4 5-3-2-3m-5 2"/>
      <path d="m14 28-3 2 3 4 2-2m-2-4"/>
      <path d="m21 24.5c0 0.828-0.895 1.496-1.996 1.496-1.105 0-2-0.672-2-1.496 0-0.832-0.164-1.219 0.941-1.219s3.059 0.387 3.059 1.219m-4e-3 0"/>
      <path d="m26.668 23.715c-1.105 0-1.672-0.387-1.672-1.215 0.383-1.582 3.113-2.258 4.539-1.641-0.02 1.43-1.828 2.828-2.867 2.855"/>
      <path d="m20.5 13.906c0.871-0.273 1.723 0.016 2.59 0.594 0.344 0.563 0 0.828-0.223 1.066-0.219 0.238-0.203 0.223-0.559 0.434l-1.949-0.066c-1.156-0.441-0.566-1.602 0.141-2.027"/>
      <path d="m20.04 17h1.531c1.754 0.055 2.996 1.523 2.156 2-1.23-0.125-2.457-0.125-3.688 0-1.57-0.242-1.199-1.711 0-2"/>
      <path d="m21.508 20 1 0.262c0.824 0.355 0.5 0.734 0 0.734l-1-0.09c-0.66-0.266-0.656-0.77 0-0.906"/>
      <path d="m24 30 1 2 2-1-1-2m-2 1"/>
      <path d="m19 29v3h3v-3m-3 0"/>
     </g>
    </g>
   </g>
  </g>
 </g>
 <g>
  <g clip-path="url(#clipPath-442327316)">
   <g transform="translate(0,-1)">
    <g>
     <path d="m36 24c0 6.629-5.371 12-12 12s-12-5.371-12-12 5.371-12 12-12 12 5.371 12 12" fill="#267fc1"/>
     <path d="m30.75 22c0 4.969-4.03 9-9 9-4.969 0-9-4.03-9-9 0-4.969 4.03-9 9-9 4.969 0 9 4.03 9 9" fill="#202020"/>
     <g fill="#267fc1">
      <path d="m28.309 13 2.395-2.676 4.906 4.676-2.605 2m-4.695-4"/>
      <path d="m35 22v5h4v-5m-4 0"/>
      <path d="m25 34 2 4 5-3-2-3m-5 2"/>
      <path d="m14 28-3 2 3 4 2-2m-2-4"/>
     </g>
     <path d="m21 24.5c0 0.828-0.895 1.496-1.996 1.496-1.105 0-2-0.672-2-1.496 0-0.832-0.164-1.219 0.941-1.219s3.059 0.387 3.059 1.219m-4e-3 0" fill="#19ccb0"/>
     <path d="m26.668 23.715c-1.105 0-1.672-0.387-1.672-1.215 0.383-1.582 3.113-2.258 4.539-1.641-0.02 1.43-1.828 2.828-2.867 2.855" fill="#19ccb0"/>
     <g fill="#de3d3d">
      <path d="m20.5 13.906c0.871-0.273 1.723 0.016 2.59 0.594 0.344 0.563 0 0.828-0.223 1.066-0.219 0.238-0.203 0.223-0.559 0.434l-1.949-0.066c-1.156-0.441-0.566-1.602 0.141-2.027"/>
      <path d="m20.04 17h1.531c1.754 0.055 2.996 1.523 2.156 2-1.23-0.125-2.457-0.125-3.688 0-1.57-0.242-1.199-1.711 0-2"/>
      <path d="m21.508 20 1 0.262c0.824 0.355 0.5 0.734 0 0.734l-1-0.09c-0.66-0.266-0.656-0.77 0-0.906"/>
     </g>
     <path d="m24 30 1 2 2-1-1-2m-2 1" fill="#202020"/>
     <path d="m19 29v3h3v-3m-3 0" fill="#202020"/>
    </g>
   </g>
  </g>
 </g>
 <g>
  <g transform="translate(0 -1004.4)">
   <path d="m1 1043.4v4c0 2.216 1.784 4 4 4h38c2.216 0 4-1.784 4-4v-4c0 2.216-1.784 4-4 4h-38c-2.216 0-4-1.784-4-4z" opacity=".1"/>
  </g>
 </g>
</svg>
