<svg style="" viewBox="0 0 48 48" xmlns="http://www.w3.org/2000/svg" xmlns:xlink="http://www.w3.org/1999/xlink">
 <defs style="">
  <linearGradient id="linearGradient3764" gradientTransform="translate(-48 .002215)" gradientUnits="userSpaceOnUse" style="" x1="1" x2="47">
   <stop offset="0" style="stop-color:#833ebe"/>
   <stop offset="1" style="stop-color:#8d4cc4"/>
  </linearGradient>
 </defs>
 <path d="m 1 43 v .25 c 0 2.216 1.784 4 4 4 h 38 c 2.216 0 4 -1.784 4 -4 v -.25 c 0 2.216 -1.784 4 -4 4 h -38 c -2.216 0 -4 -1.784 -4 -4 z m 0 .5 v .5 c 0 2.216 1.784 4 4 4 h 38 c 2.216 0 4 -1.784 4 -4 v -.5 c 0 2.216 -1.784 4 -4 4 h -38 c -2.216 0 -4 -1.784 -4 -4 z" style="opacity:.02"/>
 <path d="m 1 43.25 v .25 c 0 2.216 1.784 4 4 4 h 38 c 2.216 0 4 -1.784 4 -4 v -.25 c 0 2.216 -1.784 4 -4 4 h -38 c -2.216 0 -4 -1.784 -4 -4 z" style="opacity:.05"/>
 <path d="m 1 43 v .25 c 0 2.216 1.784 4 4 4 h 38 c 2.216 0 4 -1.784 4 -4 v -.25 c 0 2.216 -1.784 4 -4 4 h -38 c -2.216 0 -4 -1.784 -4 -4 z" style="opacity:.1"/>
 <rect height="46" rx="4" style="fill:url(#linearGradient3764)" transform="rotate(-90)" width="46" x="-47" y="1"/>
 <path d="m 12 20.723 c 0 -1.203 .227 -2.336 .68 -3.398 .453 -1.059 1.078 -1.984 1.875 -2.777 s 1.723 -1.418 2.781 -1.871 c 1.059 -.449 2.195 -.676 3.418 -.676 1.629 0 3.117 .41 4.453 1.234 1.336 .82 2.387 1.895 3.152 3.215 .184 -.023 .367 -.047 .547 -.07 s .359 -.035 .547 -.035 c .902 0 1.75 .172 2.543 .512 .793 .344 1.488 .816 2.086 1.41 .594 .594 1.063 1.289 1.406 2.086 .34 .793 .512 1.641 .512 2.543 0 .906 -.172 1.754 -.512 2.547 -.344 .793 -.813 1.488 -1.406 2.078 -.598 .59 -1.293 1.059 -2.086 1.406 -.793 .348 -1.641 .523 -2.543 .523 h -.555 l 1.941 -2.441 c .859 -.293 1.563 -.809 2.121 -1.551 .555 -.746 .832 -1.605 .832 -2.582 0 -.594 -.113 -1.156 -.34 -1.691 s -.531 -1 -.918 -1.395 c -.391 -.395 -.852 -.707 -1.391 -.934 s -1.105 -.34 -1.691 -.34 c -.859 0 -1.641 .227 -2.344 .68 -.164 -.707 -.441 -1.367 -.836 -1.98 -.391 -.613 -.871 -1.145 -1.441 -1.594 -.566 -.449 -1.195 -.805 -1.883 -1.063 s -1.422 -.387 -2.195 -.387 c -.902 0 -1.754 .172 -2.555 .52 -.797 .348 -1.492 .82 -2.082 1.41 s -1.055 1.281 -1.398 2.074 c -.34 .797 -.512 1.645 -.512 2.547 0 .73 .117 1.434 .355 2.113 .238 .676 .563 1.289 .973 1.832 .41 .547 .902 1.02 1.477 1.426 .574 .406 1.199 .699 1.883 .887 l -.746 2.066 c -.887 -.289 -1.703 -.699 -2.453 -1.234 -.75 -.531 -1.402 -1.156 -1.949 -1.875 s -.973 -1.523 -1.281 -2.418 c -.309 -.891 -.465 -1.824 -.465 -2.797 m 8.215 8.727 2.785 -7.449 h 5 l -3 5 h 4 l -7.152 9 1.961 -6.551" style="opacity:.1"/>
 <path d="m 12 19.723 c 0 -1.203 .227 -2.336 .68 -3.398 .453 -1.059 1.078 -1.984 1.875 -2.777 s 1.723 -1.418 2.781 -1.871 c 1.059 -.449 2.195 -.676 3.418 -.676 1.629 0 3.117 .41 4.453 1.234 1.336 .82 2.387 1.895 3.152 3.215 .184 -.023 .367 -.047 .547 -.07 s .359 -.035 .547 -.035 c .902 0 1.75 .172 2.543 .512 .793 .344 1.488 .816 2.086 1.41 .594 .594 1.063 1.289 1.406 2.086 .34 .793 .512 1.641 .512 2.543 0 .906 -.172 1.754 -.512 2.547 -.344 .793 -.813 1.488 -1.406 2.078 -.598 .59 -1.293 1.059 -2.086 1.406 -.793 .348 -1.641 .523 -2.543 .523 h -.555 l 1.941 -2.441 c .859 -.293 1.563 -.809 2.121 -1.551 .555 -.746 .832 -1.605 .832 -2.582 0 -.594 -.113 -1.156 -.34 -1.691 s -.531 -1 -.918 -1.395 c -.391 -.395 -.852 -.707 -1.391 -.934 s -1.105 -.34 -1.691 -.34 c -.859 0 -1.641 .227 -2.344 .68 -.164 -.707 -.441 -1.367 -.836 -1.98 -.391 -.613 -.871 -1.145 -1.441 -1.594 -.566 -.449 -1.195 -.805 -1.883 -1.063 s -1.422 -.387 -2.195 -.387 c -.902 0 -1.754 .172 -2.555 .52 -.797 .348 -1.492 .82 -2.082 1.41 s -1.055 1.281 -1.398 2.074 c -.34 .797 -.512 1.645 -.512 2.547 0 .73 .117 1.434 .355 2.113 .238 .676 .563 1.289 .973 1.832 .41 .547 .902 1.02 1.477 1.426 .574 .406 1.199 .699 1.883 .887 l -.746 2.066 c -.887 -.289 -1.703 -.699 -2.453 -1.234 -.75 -.531 -1.402 -1.156 -1.949 -1.875 s -.973 -1.523 -1.281 -2.418 c -.309 -.891 -.465 -1.824 -.465 -2.797 m 8.215 8.727 2.785 -7.449 h 5 l -3 5 h 4 l -7.152 9 1.961 -6.551" style="fill:#fff"/>
 <path d="m 1 39 v 4 c 0 2.216 1.784 4 4 4 h 38 c 2.216 0 4 -1.784 4 -4 v -4 c 0 2.216 -1.784 4 -4 4 h -38 c -2.216 0 -4 -1.784 -4 -4 z" style="opacity:.1"/>
</svg>
