<svg version="1.1" viewBox="0 0 48 48" xmlns="http://www.w3.org/2000/svg">
 <defs>
  <linearGradient id="bg" x2="0" y1="1" y2="47" gradientUnits="userSpaceOnUse">
   <stop style="stop-color:#b0a497" offset="0"/>
   <stop style="stop-color:#a79a8b" offset="1"/>
  </linearGradient>
 </defs>
 <path d="m1 43v0.25c0 2.22 1.78 4 4 4h38c2.22 0 4-1.78 4-4v-0.25c0 2.22-1.78 4-4 4h-38c-2.22 0-4-1.78-4-4zm0 0.5v0.5c0 2.22 1.78 4 4 4h38c2.22 0 4-1.78 4-4v-0.5c0 2.22-1.78 4-4 4h-38c-2.22 0-4-1.78-4-4z" style="opacity:.02"/>
 <path d="m1 43.2v0.25c0 2.22 1.78 4 4 4h38c2.22 0 4-1.78 4-4v-0.25c0 2.22-1.78 4-4 4h-38c-2.22 0-4-1.78-4-4z" style="opacity:.05"/>
 <path d="m1 43v0.25c0 2.22 1.78 4 4 4h38c2.22 0 4-1.78 4-4v-0.25c0 2.22-1.78 4-4 4h-38c-2.22 0-4-1.78-4-4z" style="opacity:.1"/>
 <rect x="1" y="1" width="46" height="46" rx="4" style="fill:url(#bg)"/>
 <path d="m1 39v4c0 2.22 1.78 4 4 4h38c2.22 0 4-1.78 4-4v-4c0 2.22-1.78 4-4 4h-38c-2.22 0-4-1.78-4-4z" style="opacity:.1"/>
 <path d="m11 14v20c0 0.554 0.446 1 1 1s1-0.446 1-1v-0.5c0 0.831 0.669 1.5 1.5 1.5s1.5-0.669 1.5-1.5c0 0.831 0.669 1.5 1.5 1.5s1.5-0.669 1.5-1.5c0 0.831 0.669 1.5 1.5 1.5s1.5-0.669 1.5-1.5c0 0.831 0.669 1.5 1.5 1.5s1.5-0.669 1.5-1.5c0 0.831 0.669 1.5 1.5 1.5s1.5-0.669 1.5-1.5c0 0.831 0.669 1.5 1.5 1.5s1.5-0.669 1.5-1.5v-0.5h4v1c0 0.554 0.446 1 1 1s1-0.446 1-1v-20zm14 1h4v0.5c0 0.831 0.669 1.5 1.5 1.5s1.5-0.669 1.5-1.5c0 0.831 0.669 1.5 1.5 1.5s1.5-0.669 1.5-1.5v4h-22v-4c0 0.831 0.669 1.5 1.5 1.5s1.5-0.669 1.5-1.5c0 0.831 0.669 1.5 1.5 1.5s1.5-0.669 1.5-1.5c0 0.831 0.669 1.5 1.5 1.5s1.5-0.669 1.5-1.5c0 0.831 0.669 1.5 1.5 1.5s1.5-0.669 1.5-1.5zm-3 6h4v0.5c0 0.831 0.669 1.5 1.5 1.5s1.5-0.669 1.5-1.5c0 0.831 0.669 1.5 1.5 1.5s1.5-0.669 1.5-1.5c0 0.831 0.669 1.5 1.5 1.5s1.5-0.669 1.5-1.5v4h-22v-4c0 0.831 0.669 1.5 1.5 1.5s1.5-0.669 1.5-1.5c0 0.831 0.669 1.5 1.5 1.5s1.5-0.669 1.5-1.5c0 0.831 0.669 1.5 1.5 1.5s1.5-0.669 1.5-1.5zm-3 6h4v0.5c0 0.831 0.669 1.5 1.5 1.5s1.5-0.669 1.5-1.5c0 0.831 0.669 1.5 1.5 1.5s1.5-0.669 1.5-1.5c0 0.831 0.669 1.5 1.5 1.5s1.5-0.669 1.5-1.5c0 0.831 0.669 1.5 1.5 1.5s1.5-0.669 1.5-1.5v4.5l-22-0.5v-4c0 0.831 0.669 1.5 1.5 1.5s1.5-0.669 1.5-1.5c0 0.831 0.669 1.5 1.5 1.5s1.5-0.669 1.5-1.5z" style="opacity:.1"/>
 <path d="m12 11c-0.554 0-1 0.446-1 1v21c0 0.554 0.446 1 1 1s1-0.446 1-1v-1h22v1c0 0.554 0.446 1 1 1s1-0.446 1-1v-21c0-0.554-0.446-1-1-1s-1 0.446-1 1v1h-22v-1c0-0.554-0.446-1-1-1zm1 3h22v5h-22zm0 6h22v5h-22zm0 6h22v5h-22z" style="fill:#4d4d4d"/>
 <rect x="13" y="11" width="3" height="5" rx="1.5" ry="1.5" style="fill:#206cc0"/>
 <rect x="16" y="11" width="3" height="5" rx="1.5" ry="1.5" style="fill:#206cc0"/>
 <rect x="19" y="11" width="3" height="5" rx="1.5" ry="1.5" style="fill:#206cc0"/>
 <rect x="32" y="11" width="3" height="5" rx="1.5" ry="1.5" style="fill:#f4d634"/>
 <rect x="29" y="11" width="3" height="5" rx="1.5" ry="1.5" style="fill:#f4d634"/>
 <rect x="22" y="11" width="3" height="5" rx="1.5" ry="1.5" style="fill:#206cc0"/>
 <rect x="13" y="17" width="3" height="5" rx="1.5" ry="1.5" style="fill:#206cc0"/>
 <rect x="16" y="17" width="3" height="5" rx="1.5" ry="1.5" style="fill:#206cc0"/>
 <rect x="32" y="17" width="3" height="5" rx="1.5" ry="1.5" style="fill:#f4d634"/>
 <rect x="29" y="17" width="3" height="5" rx="1.5" ry="1.5" style="fill:#f4d634"/>
 <rect x="26" y="17" width="3" height="5" rx="1.5" ry="1.5" style="fill:#f4d634"/>
 <rect x="19" y="17" width="3" height="5" rx="1.5" ry="1.5" style="fill:#206cc0"/>
 <rect x="13" y="23" width="3" height="5" rx="1.5" ry="1.5" style="fill:#206cc0"/>
 <rect x="32" y="23" width="3" height="5" rx="1.5" ry="1.5" style="fill:#f4d634"/>
 <rect x="16" y="23" width="3" height="5" rx="1.5" ry="1.5" style="fill:#206cc0"/>
 <rect x="23" y="23" width="3" height="5" rx="1.5" ry="1.5" style="fill:#f4d634"/>
 <rect x="26" y="23" width="3" height="5" rx="1.5" ry="1.5" style="fill:#f4d634"/>
 <rect x="29" y="23" width="3" height="5" rx="1.5" ry="1.5" style="fill:#f4d634"/>
 <rect x="13" y="29" width="3" height="5" rx="1.5" ry="1.5" style="fill:#206cc0"/>
 <rect x="28" y="29" width="3" height="5" rx="1.5" ry="1.5" style="fill:#206cc0"/>
 <rect x="25" y="29" width="3" height="5" rx="1.5" ry="1.5" style="fill:#206cc0"/>
 <rect x="22" y="29" width="3" height="5" rx="1.5" ry="1.5" style="fill:#206cc0"/>
 <rect x="19" y="29" width="3" height="5" rx="1.5" ry="1.5" style="fill:#206cc0"/>
 <rect x="16" y="29" width="3" height="5" rx="1.5" ry="1.5" style="fill:#206cc0"/>
 <path d="m14 12.5v2h10v-2zm0 6v2h7v-2zm0 6v2h4v-2zm0 6v2h16v-2z" style="fill:#206cc0"/>
 <path d="m30 12.5v2h4v-2zm-3 6v2h7v-2zm-3 6v2h10v-2z" style="fill:#f4d634"/>
</svg>
