<svg id="svg34577" version="1.1" viewBox="0 0 48 48" xmlns="http://www.w3.org/2000/svg">
 <defs id="defs34537">
  <linearGradient id="linearGradient3764" x1="1" x2="47" gradientTransform="translate(-48 .0022147)" gradientUnits="userSpaceOnUse">
   <stop id="stop34522" stop-color="#5d5a57" offset="0"/>
   <stop id="stop34524" stop-color="#676460" offset="1"/>
  </linearGradient>
  <clipPath id="clipPath-808538172">
   <g id="g34529" transform="translate(0 -1004.4)">
    <rect id="rect34527" x="1" y="1005.4" width="46" height="46" rx="4" fill="#1890d0"/>
   </g>
  </clipPath>
  <clipPath id="clipPath-821394961">
   <g id="g34534" transform="translate(0 -1004.4)">
    <rect id="rect34532" x="1" y="1005.4" width="46" height="46" rx="4" fill="#1890d0"/>
   </g>
  </clipPath>
 </defs>
 <g id="g34545">
  <path id="path34539" d="m1 43v0.25c0 2.216 1.784 4 4 4h38c2.216 0 4-1.784 4-4v-0.25c0 2.216-1.784 4-4 4h-38c-2.216 0-4-1.784-4-4zm0 0.5v0.5c0 2.216 1.784 4 4 4h38c2.216 0 4-1.784 4-4v-0.5c0 2.216-1.784 4-4 4h-38c-2.216 0-4-1.784-4-4z" opacity=".02"/>
  <path id="path34541" d="m1 43.25v0.25c0 2.216 1.784 4 4 4h38c2.216 0 4-1.784 4-4v-0.25c0 2.216-1.784 4-4 4h-38c-2.216 0-4-1.784-4-4z" opacity=".05"/>
  <path id="path34543" d="m1 43v0.25c0 2.216 1.784 4 4 4h38c2.216 0 4-1.784 4-4v-0.25c0 2.216-1.784 4-4 4h-38c-2.216 0-4-1.784-4-4z" opacity=".1"/>
 </g>
 <g id="g34549">
  <rect id="rect34547" transform="rotate(-90)" x="-47" y="1" width="46" height="46" rx="4" fill="url(#linearGradient3764)"/>
 </g>
 <g id="g34559">
  <g id="g34557" clip-path="url(#clipPath-808538172)">
   <g id="g34555" opacity=".1">
    <g id="g34553">
     <path id="path34551" d="m25.05 11.09c-2.531-0.324-5.324 0.172-7.488 1.75-1.078 0.789-1.957 1.805-2.457 3.02-0.504 1.219-0.609 2.582-0.223 3.891 0.289 0.992 0.887 1.895 1.563 2.625 0.676 0.727 1.418 1.297 2.234 1.75 1.629 0.91 3.359 1.367 4.805 1.75 1.438 0.387 2.625 0.68 3.578 1.168 0.914 0.473 1.664 1.121 1.902 1.75 0.16 0.434 0.164 1.063 0 1.555-0.172 0.5-0.543 0.984-1.012 1.363-0.93 0.758-2.43 1.066-3.914 0.973-2.113-0.133-4.195-1.121-5.473-2.727-0.77-0.992-2.32-1.254-3.465-0.582-1.141 0.672-1.441 2.02-0.672 3.02 2.137 2.676 5.574 4.34 9.27 4.57 2.641 0.164 5.461-0.395 7.602-2.141 1.066-0.875 1.902-2.023 2.348-3.309 0.441-1.293 0.5-2.652 0-3.992-0.723-1.922-2.352-3.32-4.02-4.184-1.641-0.848-3.277-1.273-4.691-1.656-1.41-0.379-2.664-0.656-3.578-1.164-0.453-0.25-0.832-0.57-1.117-0.875-0.277-0.301-0.469-0.66-0.559-0.973-0.117-0.406-0.07-0.922 0.113-1.363 0.184-0.445 0.563-0.848 1.012-1.164 0.875-0.641 2.242-0.949 3.578-0.781 1.563 0.203 3.105 0.98 4.133 2.141 0.535 0.621 1.41 0.945 2.293 0.848 0.887-0.102 1.641-0.605 1.977-1.324 0.332-0.719 0.199-1.543-0.355-2.145-1.805-2.047-4.465-3.422-7.375-3.797"/>
    </g>
   </g>
  </g>
 </g>
 <g id="g34569">
  <g id="g34567" clip-path="url(#clipPath-821394961)">
   <g id="g34565" transform="translate(0,-1)">
    <g id="g34563">
     <path id="path34561" d="m25.05 11.09c-2.531-0.324-5.324 0.172-7.488 1.75-1.078 0.789-1.957 1.805-2.457 3.02-0.504 1.219-0.609 2.582-0.223 3.891 0.289 0.992 0.887 1.895 1.563 2.625 0.676 0.727 1.418 1.297 2.234 1.75 1.629 0.91 3.359 1.367 4.805 1.75 1.438 0.387 2.625 0.68 3.578 1.168 0.914 0.473 1.664 1.121 1.902 1.75 0.16 0.434 0.164 1.063 0 1.555-0.172 0.5-0.543 0.984-1.012 1.363-0.93 0.758-2.43 1.066-3.914 0.973-2.113-0.133-4.195-1.121-5.473-2.727-0.77-0.992-2.32-1.254-3.465-0.582-1.141 0.672-1.441 2.02-0.672 3.02 2.137 2.676 5.574 4.34 9.27 4.57 2.641 0.164 5.461-0.395 7.602-2.141 1.066-0.875 1.902-2.023 2.348-3.309 0.441-1.293 0.5-2.652 0-3.992-0.723-1.922-2.352-3.32-4.02-4.184-1.641-0.848-3.277-1.273-4.691-1.656-1.41-0.379-2.664-0.656-3.578-1.164-0.453-0.25-0.832-0.57-1.117-0.875-0.277-0.301-0.469-0.66-0.559-0.973-0.117-0.406-0.07-0.922 0.113-1.363 0.184-0.445 0.563-0.848 1.012-1.164 0.875-0.641 2.242-0.949 3.578-0.781 1.563 0.203 3.105 0.98 4.133 2.141 0.535 0.621 1.41 0.945 2.293 0.848 0.887-0.102 1.641-0.605 1.977-1.324 0.332-0.719 0.199-1.543-0.355-2.145-1.805-2.047-4.465-3.422-7.375-3.797" fill="#ff9c2f"/>
    </g>
   </g>
  </g>
 </g>
 <g id="g34575">
  <g id="g34573" transform="translate(0 -1004.4)">
   <path id="path34571" d="m1 1043.4v4c0 2.216 1.784 4 4 4h38c2.216 0 4-1.784 4-4v-4c0 2.216-1.784 4-4 4h-38c-2.216 0-4-1.784-4-4z" opacity=".1"/>
  </g>
 </g>
</svg>
