<svg width="48" height="48" viewBox="0 0 48 48.000001" xmlns="http://www.w3.org/2000/svg">
  <defs>
    <linearGradient id="a" x1="-47" x2="-1" gradientUnits="userSpaceOnUse">
      <stop offset="0" stop-color="#83b5e9"/>
      <stop offset="1" stop-color="#93c0ec"/>
    </linearGradient>
  </defs>
  <path d="M1 43v.25c0 2.216 1.784 4 4 4h38c2.216 0 4-1.784 4-4V43c0 2.216-1.784 4-4 4H5c-2.216 0-4-1.784-4-4zm0 .5v.5c0 2.216 1.784 4 4 4h38c2.216 0 4-1.784 4-4v-.5c0 2.216-1.784 4-4 4H5c-2.216 0-4-1.784-4-4z" opacity=".02"/>
  <path d="M1 43.25v.25c0 2.216 1.784 4 4 4h38c2.216 0 4-1.784 4-4v-.25c0 2.216-1.784 4-4 4H5c-2.216 0-4-1.784-4-4z" opacity=".05"/>
  <path d="M1 43v.25c0 2.216 1.784 4 4 4h38c2.216 0 4-1.784 4-4V43c0 2.216-1.784 4-4 4H5c-2.216 0-4-1.784-4-4z" opacity=".1"/>
  <rect transform="rotate(-90)" x="-47" y="1" width="46" height="46" rx="4" fill="url(#a)"/>
  <path d="M1 39v4c0 2.216 1.784 4 4 4h38c2.216 0 4-1.784 4-4v-4c0 2.216-1.784 4-4 4H5c-2.216 0-4-1.784-4-4z" opacity=".1"/>
  <path d="M36.203 27.136a4.119 4.119 0 1 1-8.237 0 4.119 4.119 0 1 1 8.237 0z" fill="#acacac" opacity=".1"/>
  <path d="M24.313 9c-1.721 1.417-2.201 2.6-2.313 3.625-.801-.897-2.01-1.743-4.125-1.813-.942 2.75-.299 4.04.375 5.063-1.117-.717-2.606-1.196-4.75-.75-.294 2.976.395 4.444 1.219 5.47-1.182.184-2.517.784-3.719 2.5 1.013 1.298 1.903 1.897 2.719 2.187-3.884 2.371-3.335 7.52-2.719 12.72 6.767 1.488 10.422.123 12.375-2.814.203.253.417.495.688.75 1.956-1.113 2.626-2.188 2.906-3.188.681.91 1.754 1.791 3.656 2.125.257-.505.428-.955.563-1.375 2.417.7 5.058.541 8.813-3.5-2.26-2.878-3.89-4.353-5.25-5.063 1.112-.202 2.353-.809 3.5-2.344-1.901-2.598-3.447-2.577-4.75-2.594 1.061-.79 2.227-2.044 2.281-4.563-2.695-.889-3.997-.292-5 .375.607-1.116 1.052-2.644.219-4.813-2.365.165-3.444.921-4.125 1.75-.202-1.198-.772-2.565-2.563-3.75z" opacity=".1"/>
  <path d="M24.305 8C21.5 10.31 22 12 22 13.398c0 .731.679 1.602 2.572 1.602C26.161 15 27 14.277 27 13.39 27 12 27 9.784 24.305 8z" fill="#ffcb00" opacity=".9"/>
  <path d="M31 10c-3.625.253-4.199 1.92-5.01 3.058-.424.596-.377 1.698 1.165 2.797 1.294.922 2.397.82 2.912.098.807-1.132 2.093-2.937.933-5.953z" fill="#ffcb00" opacity=".9"/>
  <path d="M35.776 14.439c-3.451-1.138-4.613.187-5.795.934-.618.391-.992 1.429.019 3.03.848 1.343 1.908 1.667 2.658 1.193 1.175-.742 3.049-1.926 3.118-5.157z" fill="#ffcb00" opacity=".9"/>
  <path d="M31 23.602L27 31c3.85 1.045 7.05 4.408 13-2-4.627-5.893-6.659-6-9-5.398z" fill="#2a8925" opacity=".722"/>
  <path d="M38.26 21.609c-2.146-2.933-3.862-2.529-5.258-2.609-.73-.042-1.638.586-1.746 2.476-.091 1.586.583 2.465 1.469 2.516 1.388.079 3.6.206 5.535-2.383z" fill="#ffcb00" opacity=".9"/>
  <path d="M36 29c-.237-3.984-2.061-4.633-3.302-5.537-.649-.473-1.861-.433-3.085 1.248-1.027 1.411-.928 2.623-.14 3.196 1.234.899 3.201 2.331 6.527 1.092z" fill="#ffcb00" opacity=".9"/>
  <path d="M30.624 33.864c1.649-3.238.515-4.588-.043-5.87-.292-.67-1.262-1.197-2.998-.441-1.457.635-1.937 1.633-1.583 2.446.555 1.274 1.441 3.306 4.624 3.864z" fill="#ffcb00" opacity=".9"/>
  <path d="M11 37c-.785-6.627-1.487-13.201 7-14l7 7c-1.104 5.609-4.529 9.08-14 7z" fill="#2a8925" opacity=".821"/>
  <path d="M24.07 34.943c3.159-1.797 2.955-3.547 3.193-4.925.125-.721-.395-1.694-2.261-2.02-1.566-.271-2.516.298-2.667 1.172-.237 1.369-.616 3.553 1.735 5.771z" fill="#ffcb00" opacity=".9"/>
  <path d="M18.268 33.473c3.591-.56 4.02-2.27 4.732-3.473.372-.63.231-1.724-1.399-2.688-1.368-.809-2.458-.613-2.909.15-.707 1.196-1.835 3.104-.424 6.01z" fill="#ffcb00" opacity=".9"/>
  <path d="M12.682 29.03c3.404 1.273 4.617-.006 5.827-.706.633-.366 1.047-1.389.1-3.03-.795-1.376-1.841-1.74-2.609-1.296-1.203.696-3.122 1.804-3.318 5.03z" fill="#ffcb00" opacity=".9"/>
  <path d="M10.995 22.08c2.235 2.865 3.938 2.41 5.336 2.447.731.019 1.619-.636 1.669-2.529.042-1.588-.659-2.446-1.546-2.47-1.389-.037-3.605-.095-5.459 2.552z" fill="#ffcb00" opacity=".9"/>
  <path d="M13.491 14.13c-.449 4.544 1.359 5.619 2.509 6.873.601.656 1.885.839 3.471-.829 1.33-1.4 1.438-2.788.709-3.583-1.143-1.247-2.965-3.235-6.689-2.461z" fill="#ffcb00" opacity=".9"/>
  <path d="M17.879 9.823c-1.178 3.438.134 4.615.867 5.805.383.623 1.417 1.01 3.03.016 1.353-.833 1.689-1.889 1.223-2.644-.729-1.184-1.89-3.07-5.121-3.177z" fill="#ffcb00" opacity=".9"/>
  <path d="M32.004 22a8 8 0 1 1-16 0 8 8 0 1 1 16 0z" fill="#fb9201"/>
  <path d="M31.004 22a7 7 0 1 1-14 0 7 7 0 1 1 14 0z" fill="#5f3b29"/>
</svg>
