<svg width="48" height="48" version="1.1" viewBox="0 0 48 48" xmlns="http://www.w3.org/2000/svg">
 <defs>
  <linearGradient id="a" x1="1" x2="47" gradientTransform="matrix(0 -1 1 0 -1.5e-6 48)" gradientUnits="userSpaceOnUse">
   <stop style="stop-color:#3d3d3d" offset="0"/>
   <stop style="stop-color:#474747" offset="1"/>
  </linearGradient>
 </defs>
 <path d="m1 43v0.25c0 2.216 1.784 4 4 4h38c2.216 0 4-1.784 4-4v-0.25c0 2.216-1.784 4-4 4h-38c-2.216 0-4-1.784-4-4zm0 0.5v0.5c0 2.216 1.784 4 4 4h38c2.216 0 4-1.784 4-4v-0.5c0 2.216-1.784 4-4 4h-38c-2.216 0-4-1.784-4-4z" style="opacity:.02"/>
 <path d="m1 43.25v0.25c0 2.216 1.784 4 4 4h38c2.216 0 4-1.784 4-4v-0.25c0 2.216-1.784 4-4 4h-38c-2.216 0-4-1.784-4-4z" style="opacity:.05"/>
 <path d="m1 43v0.25c0 2.216 1.784 4 4 4h38c2.216 0 4-1.784 4-4v-0.25c0 2.216-1.784 4-4 4h-38c-2.216 0-4-1.784-4-4z" style="opacity:.1"/>
 <rect transform="rotate(-90)" x="-47" y="1" width="46" height="46" rx="4" style="fill:url(#a)"/>
 <g transform="translate(0,-1)" style="opacity:.1">
  <path d="m20.5 10h-5a1.5 1.5 135 0 0-1.5 1.5v5a1.5 1.5 135 0 1-1.5 1.5h-1a1.5 1.5 135 0 0-1.5 1.5v1a1.5 1.5 45 0 0 1.5 1.5l0.99999-2e-6a1.5 1.5 45 0 1 1.5 1.5v5a1.5 1.5 45 0 0 1.5 1.5h1a1.5 1.5 45 0 1 1.5 1.5v1a1.5 1.5 135 0 1-1.5 1.5h-5a1.5 1.5 135 0 0-1.5 1.5v1a1.5 1.5 45 0 0 1.5 1.5h25a1.5 1.5 135 0 0 1.5-1.5v-1a1.5 1.5 45 0 0-1.5-1.5h-5a1.5 1.5 45 0 1-1.5-1.5v-1a1.5 1.5 135 0 1 1.5-1.5h1a1.5 1.5 135 0 0 1.5-1.5v-5a1.5 1.5 135 0 1 1.5-1.5h1a1.5 1.5 135 0 0 1.5-1.5v-1a1.5 1.5 45 0 0-1.5-1.5h-1a1.5 1.5 45 0 1-1.5-1.5v-5a1.5 1.5 45 0 0-1.5-1.5h-5a1.5 1.5 135 0 0-1.5 1.5v1a1.5 1.5 45 0 0 1.5 1.5h1a1.5 1.5 45 0 1 1.5 1.5v9a1.5 1.5 135 0 1-1.5 1.5h-1a1.5 1.5 135 0 0-1.5 1.5v5a1.5 1.5 135 0 1-1.5 1.5h-1a1.5 1.5 45 0 1-1.5-1.5v-5a1.5 1.5 45 0 0-1.5-1.5h-1a1.5 1.5 45 0 1-1.5-1.5v-9a1.5 1.5 135 0 1 1.5-1.5h1a1.5 1.5 135 0 0 1.5-1.5v-1a1.5 1.5 45 0 0-1.5-1.5zm3 8h1a1.5 1.5 0 0 1 1.5 1.5v1a1.5 1.5 0 0 1-1.5 1.5h-1a1.5 1.5 0 0 1-1.5-1.5v-1a1.5 1.5 0 0 1 1.5-1.5z"/>
 </g>
 <g transform="translate(0,-2)" style="fill:#f9f9f9">
  <path d="m23.5 18h1a1.5 1.5 45 0 1 1.5 1.5v1a1.5 1.5 135 0 1-1.5 1.5h-1a1.5 1.5 45 0 1-1.5-1.5v-1a1.5 1.5 135 0 1 1.5-1.5z"/>
  <path d="m20.5 10h-5a1.5 1.5 135 0 0-1.5 1.5v5a1.5 1.5 135 0 1-1.5 1.5h-1a1.5 1.5 135 0 0-1.5 1.5v1a1.5 1.5 45 0 0 1.5 1.5l0.99999-2e-6a1.5 1.5 45 0 1 1.5 1.5v5a1.5 1.5 45 0 0 1.5 1.5h1a1.5 1.5 45 0 1 1.5 1.5v1a1.5 1.5 135 0 1-1.5 1.5h-5a1.5 1.5 135 0 0-1.5 1.5v1a1.5 1.5 45 0 0 1.5 1.5h25a1.5 1.5 135 0 0 1.5-1.5v-1a1.5 1.5 45 0 0-1.5-1.5h-5a1.5 1.5 45 0 1-1.5-1.5v-1a1.5 1.5 135 0 1 1.5-1.5h1a1.5 1.5 135 0 0 1.5-1.5v-5a1.5 1.5 135 0 1 1.5-1.5h1a1.5 1.5 135 0 0 1.5-1.5v-1a1.5 1.5 45 0 0-1.5-1.5h-1a1.5 1.5 45 0 1-1.5-1.5v-5a1.5 1.5 45 0 0-1.5-1.5h-5a1.5 1.5 135 0 0-1.5 1.5v1a1.5 1.5 45 0 0 1.5 1.5h1a1.5 1.5 45 0 1 1.5 1.5v9a1.5 1.5 135 0 1-1.5 1.5h-1a1.5 1.5 135 0 0-1.5 1.5v5a1.5 1.5 135 0 1-1.5 1.5h-1a1.5 1.5 45 0 1-1.5-1.5v-5a1.5 1.5 45 0 0-1.5-1.5h-1a1.5 1.5 45 0 1-1.5-1.5v-9a1.5 1.5 135 0 1 1.5-1.5h1a1.5 1.5 135 0 0 1.5-1.5v-1a1.5 1.5 45 0 0-1.5-1.5z" style="fill-rule:evenodd"/>
 </g>
 <g transform="translate(0,-1004.4)">
  <path d="m1 1043.4v4c0 2.216 1.784 4 4 4h38c2.216 0 4-1.784 4-4v-4c0 2.216-1.784 4-4 4h-38c-2.216 0-4-1.784-4-4z" style="opacity:.1"/>
 </g>
</svg>
