<svg width="48" height="48" viewBox="0 0 48 48.000001" xmlns="http://www.w3.org/2000/svg">
  <defs>
    <linearGradient id="a" x1="-47" x2="-1" gradientUnits="userSpaceOnUse">
      <stop offset="0" stop-color="#2a5188"/>
      <stop offset="1" stop-color="#2f5a97"/>
    </linearGradient>
  </defs>
  <path d="M1 43v.25c0 2.216 1.784 4 4 4h38c2.216 0 4-1.784 4-4V43c0 2.216-1.784 4-4 4H5c-2.216 0-4-1.784-4-4zm0 .5v.5c0 2.216 1.784 4 4 4h38c2.216 0 4-1.784 4-4v-.5c0 2.216-1.784 4-4 4H5c-2.216 0-4-1.784-4-4z" opacity=".02"/>
  <path d="M1 43.25v.25c0 2.216 1.784 4 4 4h38c2.216 0 4-1.784 4-4v-.25c0 2.216-1.784 4-4 4H5c-2.216 0-4-1.784-4-4z" opacity=".05"/>
  <path d="M1 43v.25c0 2.216 1.784 4 4 4h38c2.216 0 4-1.784 4-4V43c0 2.216-1.784 4-4 4H5c-2.216 0-4-1.784-4-4z" opacity=".1"/>
  <rect transform="rotate(-90)" x="-47" y="1" width="46" height="46" rx="4" fill="url(#a)"/>
  <path d="M1 39v4c0 2.216 1.784 4 4 4h38c2.216 0 4-1.784 4-4v-4c0 2.216-1.784 4-4 4H5c-2.216 0-4-1.784-4-4z" opacity=".1"/>
  <g>
    <g opacity=".1">
      <path d="M16.15 18.379c.238-.34.773-1.027 1.19-1.523l.301-.387h5.063l2.563-3.43c.988-1.598 1.922-3.059 2.082-3.242.637-.738 1.95-.094 1.938.957l-3.605 5.621 2.375.055c1.31.027 2.375.094 2.375.145 0 .055.56-.094.305.309a11.186 11.186 0 0 0-.754 1.426l-.289.691H15.73m.43-.621M12.84 36.457c-.208-.297-.423-1.016-.489-1.602-.063-.582-.145-1.371-.184-1.754-.132-1.277.829-6.5 1.235-8.145.219-.891.699-2.371 1.066-3.289l.664-1.668h10.125v1.383c-.004 1.949-.434 3.348 1.293 5.324l1.297 1.488c-1.93-2.035-1.363-4.527-1.324-6.93-.004-.406-.016-1.273 1.266-1.273 1.21 0 2.02.035 1.901.332-.34.891-.523 2.332-.438 3.414.126 1.547.774 2.668 2.407 4.168 2.242 2.063 2.28 4.273 2.387 5.078.147 1.105-.298 2.336-1.134 3.172-.586.582-.969.711-2.355.793l-2.473.109-.89-1.852c-1.048-2.191-1.517-3.48-1.845-5.098-.133-.648-.277-1.133-.32-1.066-.07.098.578 5.766.84 7.344l.102.625-5.973-.02c-6.473-.016-6.809-.02-7.16-.535m0-.008"/>
    </g>
  </g>
  <g fill="#eaebf2">
    <path d="M16.15 17.379c.238-.34.773-1.027 1.19-1.523l.302-.387h5.063l2.563-3.43c.988-1.598 1.922-3.059 2.082-3.242.637-.738 1.949-.094 1.938.957l-3.605 5.621 2.375.055c1.309.027 2.375.094 2.375.145 0 .055.559-.094.305.309a11.186 11.186 0 0 0-.754 1.426l-.29.691H15.73m.43-.621M12.84 35.457c-.207-.297-.422-1.016-.488-1.602-.063-.582-.145-1.371-.184-1.754-.133-1.277.828-6.5 1.234-8.145.219-.891.699-2.371 1.066-3.289l.664-1.668h10.125v1.383c-.004 1.949-.434 3.348 1.293 5.324l1.297 1.488c-1.93-2.035-1.363-4.527-1.324-6.93-.004-.406-.016-1.273 1.266-1.273 1.21 0 2.02.035 1.902.332-.34.891-.523 2.332-.438 3.414.125 1.547.773 2.668 2.406 4.168 2.242 2.063 2.28 4.273 2.387 5.078.148 1.105-.297 2.336-1.133 3.172-.586.582-.97.711-2.355.793l-2.473.109-.891-1.852c-1.047-2.191-1.516-3.48-1.844-5.098-.133-.648-.277-1.133-.32-1.066-.07.098.578 5.766.84 7.344l.102.625-5.973-.02c-6.473-.016-6.81-.02-7.16-.535m0-.008"/>
  </g>
</svg>
