<svg version="1.1" viewBox="0 0 48 48" xmlns="http://www.w3.org/2000/svg">
 <defs>
  <linearGradient id="bg" x1="-47" x2="-1" y1="2.8779e-15" y2="6.1232e-17" gradientUnits="userSpaceOnUse">
   <stop style="stop-color:#e19dac" offset="0"/>
   <stop style="stop-color:#e6adba" offset="1"/>
  </linearGradient>
 </defs>
 <g transform="translate(0 3.949e-5)">
  <path d="m1 43v0.25c0 2.216 1.784 4 4 4h38c2.216 0 4-1.784 4-4v-0.25c0 2.216-1.784 4-4 4h-38c-2.216 0-4-1.784-4-4zm0 0.5v0.5c0 2.216 1.784 4 4 4h38c2.216 0 4-1.784 4-4v-0.5c0 2.216-1.784 4-4 4h-38c-2.216 0-4-1.784-4-4z" style="opacity:.02"/>
  <path d="m1 43.25v0.25c0 2.216 1.784 4 4 4h38c2.216 0 4-1.784 4-4v-0.25c0 2.216-1.784 4-4 4h-38c-2.216 0-4-1.784-4-4z" style="opacity:.05"/>
  <path d="m1 43v0.25c0 2.216 1.784 4 4 4h38c2.216 0 4-1.784 4-4v-0.25c0 2.216-1.784 4-4 4h-38c-2.216 0-4-1.784-4-4z" style="opacity:.1"/>
 </g>
 <rect transform="rotate(-90)" x="-47" y="1" width="46" height="46" rx="4" style="fill:url(#bg)"/>
 <g transform="translate(0 3.949e-5)">
  <g transform="translate(0 -1004.4)">
   <path d="m1 1043.4v4c0 2.216 1.784 4 4 4h38c2.216 0 4-1.784 4-4v-4c0 2.216-1.784 4-4 4h-38c-2.216 0-4-1.784-4-4z" style="opacity:.1"/>
  </g>
 </g>
 <path d="m26 10-3 1-11 9h1v16h20l3-1v-15.666l1-0.33398z" style="opacity:.1"/>
 <path d="m26 9-3 1-4 3.2734v-1.2734c0-0.554-0.446-1-1-1h-1c-0.554 0-1 0.446-1 1v3.7266l-4 3.2734h1v16h20l3-1v-15.656l1-0.34375-11-9z" style="fill:#ebebeb"/>
 <path d="m19 26v7h1v-6h1v4h1v-4h4v6h1v-6l1-1v5h1v-7z" style="opacity:.1"/>
 <path d="m21 15v15h1v-15zm7 0v15h1v-15zm-2 10v7h1v-7zm-7 1v6h1v-7z" style="fill:#d7986f"/>
 <path d="m19 25v1h8l2-2v-1z" style="fill:#a14a35"/>
 <path d="m19 25h8l2-2-4-1-4 1z" style="fill:#de5f0d"/>
 <path d="m21 16h8v7h-8z" style="fill:#a34e15"/>
</svg>
