<svg id="svg35160" version="1.1" viewBox="0 0 48 48" xmlns="http://www.w3.org/2000/svg">
 <defs id="defs35120">
  <linearGradient id="linearGradient3764" x1="1" x2="47" gradientTransform="translate(-48 .0022147)" gradientUnits="userSpaceOnUse">
   <stop id="stop35105" stop-color="#ec8724" offset="0"/>
   <stop id="stop35107" stop-color="#ee9237" offset="1"/>
  </linearGradient>
  <clipPath id="clipPath-738813184">
   <g id="g35112" transform="translate(0 -1004.4)">
    <rect id="rect35110" x="1" y="1005.4" width="46" height="46" rx="4" fill="#1890d0"/>
   </g>
  </clipPath>
  <clipPath id="clipPath-751886510">
   <g id="g35117" transform="translate(0 -1004.4)">
    <rect id="rect35115" x="1" y="1005.4" width="46" height="46" rx="4" fill="#1890d0"/>
   </g>
  </clipPath>
 </defs>
 <g id="g35128">
  <path id="path35122" d="m1 43v0.25c0 2.216 1.784 4 4 4h38c2.216 0 4-1.784 4-4v-0.25c0 2.216-1.784 4-4 4h-38c-2.216 0-4-1.784-4-4zm0 0.5v0.5c0 2.216 1.784 4 4 4h38c2.216 0 4-1.784 4-4v-0.5c0 2.216-1.784 4-4 4h-38c-2.216 0-4-1.784-4-4z" opacity=".02"/>
  <path id="path35124" d="m1 43.25v0.25c0 2.216 1.784 4 4 4h38c2.216 0 4-1.784 4-4v-0.25c0 2.216-1.784 4-4 4h-38c-2.216 0-4-1.784-4-4z" opacity=".05"/>
  <path id="path35126" d="m1 43v0.25c0 2.216 1.784 4 4 4h38c2.216 0 4-1.784 4-4v-0.25c0 2.216-1.784 4-4 4h-38c-2.216 0-4-1.784-4-4z" opacity=".1"/>
 </g>
 <g id="g35132">
  <rect id="rect35130" transform="rotate(-90)" x="-47" y="1" width="46" height="46" rx="4" fill="url(#linearGradient3764)"/>
 </g>
 <g id="g35142">
  <g id="g35140" clip-path="url(#clipPath-738813184)">
   <g id="g35138" opacity=".1">
    <g id="g35136">
     <path id="path35134" d="m18.14 29.832c-1.09-3.805 2.602-4.129 3.16-3.914 4.695 1.219 0.207 9.961-1.555 10.05-8.137 0.426-7.973-6.57-7.621-10.703 3.516-10.457 17.691-18.13 23.543-9.621 0.902 3.438-2.746 6.625-5.965 7.121 7.746-2.25 6.242 1.363 6.074 2.605-2 3.168-4.691 4.219-7.121 3.898 1.258 0.301 2.941 0.793 3.215 1.469-0.703 1.668-4.871 6.797-10.18 4.781 0 0 3.668-7.301 1.184-9.34-2.984-2.316-7.707 1.977-4.723 3.633"/>
    </g>
   </g>
  </g>
 </g>
 <g id="g35152">
  <g id="g35150" clip-path="url(#clipPath-751886510)">
   <g id="g35148" transform="translate(0,-1)">
    <g id="g35146">
     <path id="path35144" d="m18.14 29.832c-1.09-3.805 2.602-4.129 3.16-3.914 4.695 1.219 0.207 9.961-1.555 10.05-8.137 0.426-7.973-6.57-7.621-10.703 3.516-10.457 17.691-18.13 23.543-9.621 0.902 3.438-2.746 6.625-5.965 7.121 7.746-2.25 6.242 1.363 6.074 2.605-2 3.168-4.691 4.219-7.121 3.898 1.258 0.301 2.941 0.793 3.215 1.469-0.703 1.668-4.871 6.797-10.18 4.781 0 0 3.668-7.301 1.184-9.34-2.984-2.316-7.707 1.977-4.723 3.633" fill="#dedede"/>
    </g>
   </g>
  </g>
 </g>
 <g id="g35158">
  <g id="g35156" transform="translate(0 -1004.4)">
   <path id="path35154" d="m1 1043.4v4c0 2.216 1.784 4 4 4h38c2.216 0 4-1.784 4-4v-4c0 2.216-1.784 4-4 4h-38c-2.216 0-4-1.784-4-4z" opacity=".1"/>
  </g>
 </g>
</svg>
