<svg viewBox="0 0 48 48" xmlns="http://www.w3.org/2000/svg">
 <defs>
  <linearGradient id="linearGradient3764" x1="1" x2="47" gradientTransform="translate(-48 .0022147)" gradientUnits="userSpaceOnUse">
   <stop stop-color="#dbdbdb" offset="0"/>
   <stop stop-color="#e5e5e5" offset="1"/>
  </linearGradient>
  <clipPath id="clipPath-431027576">
   <g transform="translate(0 -1004.4)">
    <rect x="1" y="1005.4" width="46" height="46" rx="4" fill="#1890d0"/>
   </g>
  </clipPath>
  <clipPath id="clipPath-444773464">
   <g transform="translate(0 -1004.4)">
    <rect x="1" y="1005.4" width="46" height="46" rx="4" fill="#1890d0"/>
   </g>
  </clipPath>
 </defs>
 <g>
  <path d="m1 43v0.25c0 2.216 1.784 4 4 4h38c2.216 0 4-1.784 4-4v-0.25c0 2.216-1.784 4-4 4h-38c-2.216 0-4-1.784-4-4zm0 0.5v0.5c0 2.216 1.784 4 4 4h38c2.216 0 4-1.784 4-4v-0.5c0 2.216-1.784 4-4 4h-38c-2.216 0-4-1.784-4-4z" opacity=".02"/>
  <path d="m1 43.25v0.25c0 2.216 1.784 4 4 4h38c2.216 0 4-1.784 4-4v-0.25c0 2.216-1.784 4-4 4h-38c-2.216 0-4-1.784-4-4z" opacity=".05"/>
  <path d="m1 43v0.25c0 2.216 1.784 4 4 4h38c2.216 0 4-1.784 4-4v-0.25c0 2.216-1.784 4-4 4h-38c-2.216 0-4-1.784-4-4z" opacity=".1"/>
 </g>
 <g>
  <rect transform="rotate(-90)" x="-47" y="1" width="46" height="46" rx="4" fill="url(#linearGradient3764)"/>
 </g>
 <g>
  <g clip-path="url(#clipPath-431027576)">
   <g opacity=".1">
    <g>
     <g>
      <path d="m24 9c-8.219 0-15 6.703-15 15h3.969c0-6.02 4.863-10.906 11.03-10.906m0-4.094"/>
      <path d="m24 9v4.094c6.168 0 11.03 4.887 11.03 10.906h3.969c0-8.297-6.781-15-15-15"/>
      <path d="m35.03 24c0 6.02-4.863 10.906-11.03 10.906v4.09c8.215 0 14.996-6.703 14.996-14.996m-3.969 0"/>
      <path d="m9 24c0 8.297 6.781 15 15 15v-4.094c-6.168 0-11.03-4.887-11.03-10.906m-3.969 0"/>
     </g>
    </g>
   </g>
  </g>
 </g>
 <g>
  <g clip-path="url(#clipPath-444773464)">
   <g transform="translate(0,-1)">
    <g>
     <g>
      <path d="m24 9c-8.219 0-15 6.703-15 15h3.969c0-6.02 4.863-10.906 11.03-10.906m0-4.094" fill="#4578c8"/>
      <path d="m24 9v4.094c6.168 0 11.03 4.887 11.03 10.906h3.969c0-8.297-6.781-15-15-15" fill="#116f4c"/>
      <path d="m35.03 24c0 6.02-4.863 10.906-11.03 10.906v4.09c8.215 0 14.996-6.703 14.996-14.996m-3.969 0" fill="#007895"/>
      <path d="m9 24c0 8.297 6.781 15 15 15v-4.094c-6.168 0-11.03-4.887-11.03-10.906m-3.969 0" fill="#70aa12"/>
     </g>
    </g>
   </g>
  </g>
 </g>
 <g>
  <g transform="translate(0 -1004.4)">
   <path d="m1 1043.4v4c0 2.216 1.784 4 4 4h38c2.216 0 4-1.784 4-4v-4c0 2.216-1.784 4-4 4h-38c-2.216 0-4-1.784-4-4z" opacity=".1"/>
  </g>
 </g>
</svg>
