<?xml version="1.0" encoding="UTF-8" standalone="no"?>
<svg
   xmlns:dc="http://purl.org/dc/elements/1.1/"
   xmlns:cc="http://creativecommons.org/ns#"
   xmlns:rdf="http://www.w3.org/1999/02/22-rdf-syntax-ns#"
   xmlns:svg="http://www.w3.org/2000/svg"
   xmlns="http://www.w3.org/2000/svg"
   xmlns:sodipodi="http://sodipodi.sourceforge.net/DTD/sodipodi-0.dtd"
   xmlns:inkscape="http://www.inkscape.org/namespaces/inkscape"
   viewBox="0 0 48 48"
   version="1.1"
   id="svg35678"
   sodipodi:docname="system-restart.svg">
  <metadata
     id="metadata35682">
    <rdf:RDF>
      <cc:Work
         rdf:about="">
        <dc:format>image/svg+xml</dc:format>
        <dc:type
           rdf:resource="http://purl.org/dc/dcmitype/StillImage" />
      </cc:Work>
    </rdf:RDF>
  </metadata>
  <sodipodi:namedview
     pagecolor="#ffffff"
     bordercolor="#666666"
     borderopacity="1"
     objecttolerance="10"
     gridtolerance="10"
     guidetolerance="10"
     inkscape:pageopacity="0"
     inkscape:pageshadow="2"
     inkscape:window-width="640"
     inkscape:window-height="480"
     id="namedview35680" />
  <defs
     id="defs35634">
    <linearGradient
       id="linearGradient3764"
       x1="1"
       x2="47"
       gradientUnits="userSpaceOnUse"
       gradientTransform="translate(-48.000001,0.00221467)">
      <stop
         stop-color="#2cac5c"
         stop-opacity="1"
         id="stop35619" />
      <stop
         offset="1"
         stop-color="#30bd65"
         stop-opacity="1"
         id="stop35621" />
    </linearGradient>
    <clipPath
       id="clipPath-918982265">
      <g
         transform="translate(0,-1004.3622)"
         id="g35626">
        <rect
           rx="4"
           y="1005.36"
           x="1"
           height="46"
           width="46"
           fill="#1890d0"
           id="rect35624" />
      </g>
    </clipPath>
    <clipPath
       id="clipPath-952946255">
      <g
         transform="translate(0,-1004.3622)"
         id="g35631">
        <rect
           rx="4"
           y="1005.36"
           x="1"
           height="46"
           width="46"
           fill="#1890d0"
           id="rect35629" />
      </g>
    </clipPath>
  </defs>
  <g
     id="g35642">
    <path
       d="m 1 43 l 0 0.25 c 0 2.216 1.784 4 4 4 l 38 0 c 2.216 0 4 -1.784 4 -4 l 0 -0.25 c 0 2.216 -1.784 4 -4 4 l -38 0 c -2.216 0 -4 -1.784 -4 -4 z m 0 0.5 l 0 0.5 c 0 2.216 1.784 4 4 4 l 38 0 c 2.216 0 4 -1.784 4 -4 l 0 -0.5 c 0 2.216 -1.784 4 -4 4 l -38 0 c -2.216 0 -4 -1.784 -4 -4 z"
       opacity="0.02"
       id="path35636" />
    <path
       d="m 1 43.25 l 0 0.25 c 0 2.216 1.784 4 4 4 l 38 0 c 2.216 0 4 -1.784 4 -4 l 0 -0.25 c 0 2.216 -1.784 4 -4 4 l -38 0 c -2.216 0 -4 -1.784 -4 -4 z"
       opacity="0.05"
       id="path35638" />
    <path
       d="m 1 43 l 0 0.25 c 0 2.216 1.784 4 4 4 l 38 0 c 2.216 0 4 -1.784 4 -4 l 0 -0.25 c 0 2.216 -1.784 4 -4 4 l -38 0 c -2.216 0 -4 -1.784 -4 -4 z"
       opacity="0.1"
       id="path35640" />
  </g>
  <g
     id="g35646">
    <rect
       width="46"
       height="46"
       x="-47"
       y="1"
       rx="4"
       transform="matrix(0,-1,1,0,0,0)"
       fill="url(#linearGradient3764)"
       fill-opacity="1"
       id="rect35644" />
  </g>
  <g
     id="g35658">
    <g
       clip-path="url(#clipPath-918982265)"
       id="g35656">
      <g
         opacity="0.1"
         id="g35654">
        <!-- color: #30bd65 -->
        <g
           id="g35652">
          <path
             d="m 34.559 19.613 c -1.828 -4.02 -5.922 -6.613 -10.531 -6.613 c -4.715 0 -9.03 2.832 -10.73 7.04 l 3.578 1.324 c 1.133 -2.809 4.01 -4.688 7.152 -4.688 c 3.035 0 5.719 1.68 6.961 4.301 l -2.609 1 l 6.672 3.688 l 1.953 -6.977 m -2.445 0.93"
             stroke="none"
             fill-rule="nonzero"
             fill-opacity="1"
             fill="#000"
             id="path35648" />
          <path
             d="m 24.03 31.33 c -3.01 0 -5.75 -1.727 -6.977 -4.344 l 2.563 -0.945 l -6.598 -3.602 l -2.023 6.793 l 2.465 -0.91 c 1.793 4.01 5.977 6.691 10.559 6.691 c 4.734 0 8.922 -2.73 10.691 -6.938 l -3.566 -1.352 c -1.168 2.809 -3.965 4.621 -7.121 4.621 m 0 -0.004"
             stroke="none"
             fill-rule="nonzero"
             fill-opacity="1"
             fill="#000"
             id="path35650" />
        </g>
      </g>
    </g>
  </g>
  <g
     id="g35670">
    <g
       clip-path="url(#clipPath-952946255)"
       id="g35668">
      <g
         transform="translate(0,-1)"
         id="g35666">
        <!-- color: #30bd65 -->
        <g
           id="g35664">
          <path
             d="m 34.559 19.613 c -1.828 -4.02 -5.922 -6.613 -10.531 -6.613 c -4.715 0 -9.03 2.832 -10.73 7.04 l 3.578 1.324 c 1.133 -2.809 4.01 -4.688 7.152 -4.688 c 3.035 0 5.719 1.68 6.961 4.301 l -2.609 1 l 6.672 3.688 l 1.953 -6.977 m -2.445 0.93"
             fill="#f9f9f9"
             stroke="none"
             fill-rule="nonzero"
             fill-opacity="1"
             id="path35660" />
          <path
             d="m 24.03 31.33 c -3.01 0 -5.75 -1.727 -6.977 -4.344 l 2.563 -0.945 l -6.598 -3.602 l -2.023 6.793 l 2.465 -0.91 c 1.793 4.01 5.977 6.691 10.559 6.691 c 4.734 0 8.922 -2.73 10.691 -6.938 l -3.566 -1.352 c -1.168 2.809 -3.965 4.621 -7.121 4.621 m 0 -0.004"
             fill="#f9f9f9"
             stroke="none"
             fill-rule="nonzero"
             fill-opacity="1"
             id="path35662" />
        </g>
      </g>
    </g>
  </g>
  <g
     id="g35676">
    <g
       transform="translate(0,-1004.3622)"
       id="g35674">
      <path
         d="m 1 1043.36 0 4 c 0 2.216 1.784 4 4 4 l 38 0 c 2.216 0 4 -1.784 4 -4 l 0 -4 c 0 2.216 -1.784 4 -4 4 l -38 0 c -2.216 0 -4 -1.784 -4 -4 z"
         opacity="0.1"
         id="path35672" />
    </g>
  </g>
</svg>
