<svg viewBox="0 0 48 48"><defs><linearGradient id="linearGradient3764" x1="1" x2="47" gradientUnits="userSpaceOnUse" gradientTransform="translate(-48.000001,0.00221467)"><stop stop-color="#52a2da" stop-opacity="1"/><stop offset="1" stop-color="#63acdd" stop-opacity="1"/></linearGradient><clipPath id="clipPath-998978475"><g transform="translate(0,-1004.3622)"><rect rx="4" y="1005.36" x="1" height="46" width="46" fill="#1890d0"/></g></clipPath><clipPath id="clipPath-011918242"><g transform="translate(0,-1004.3622)"><rect rx="4" y="1005.36" x="1" height="46" width="46" fill="#1890d0"/></g></clipPath></defs><g><path d="m 1 43 l 0 0.25 c 0 2.216 1.784 4 4 4 l 38 0 c 2.216 0 4 -1.784 4 -4 l 0 -0.25 c 0 2.216 -1.784 4 -4 4 l -38 0 c -2.216 0 -4 -1.784 -4 -4 z m 0 0.5 l 0 0.5 c 0 2.216 1.784 4 4 4 l 38 0 c 2.216 0 4 -1.784 4 -4 l 0 -0.5 c 0 2.216 -1.784 4 -4 4 l -38 0 c -2.216 0 -4 -1.784 -4 -4 z" opacity="0.02"/><path d="m 1 43.25 l 0 0.25 c 0 2.216 1.784 4 4 4 l 38 0 c 2.216 0 4 -1.784 4 -4 l 0 -0.25 c 0 2.216 -1.784 4 -4 4 l -38 0 c -2.216 0 -4 -1.784 -4 -4 z" opacity="0.05"/><path d="m 1 43 l 0 0.25 c 0 2.216 1.784 4 4 4 l 38 0 c 2.216 0 4 -1.784 4 -4 l 0 -0.25 c 0 2.216 -1.784 4 -4 4 l -38 0 c -2.216 0 -4 -1.784 -4 -4 z" opacity="0.1"/></g><g><rect width="46" height="46" x="-47" y="1" rx="4" transform="matrix(0,-1,1,0,0,0)" fill="url(#linearGradient3764)" fill-opacity="1"/></g><g><g clip-path="url(#clipPath-998978475)"><g opacity="0.1"><!-- color: #63acdd --><g><path d="m 22.781 28.16 l -5.328 -6.406 l -0.637 -6.555 l 7.684 -2.105 l 5.066 1.543 l 1.785 3.953 l -1.391 2.664 l -6.191 6.973 m -0.988 -0.066" stroke="none" fill-rule="nonzero" fill-opacity="0.941" fill="#000"/><path d="m 10 37 l 28 0 l 0 -2.152 c -0.734 -3.234 -4.488 -6.953 -9.172 -8.867 l -3.059 2.969 l -0.965 -0.641 l -2.684 -0.059 l -0.859 0.988 l -3.25 -3.223 c -3.582 1.578 -7.273 5.03 -8.01 8.828 m 0 2.156" stroke="none" fill-rule="nonzero" fill-opacity="1" fill="#000"/><path d="m 23.41 11.512 c 3.109 0 5.633 2.621 5.633 5.852 l 0 2.641 c 0 3.23 -2.523 5.848 -5.633 5.848 c -3.113 0 -5.637 -2.617 -5.637 -5.848 l 0 -2.641 c 0 -3.23 2.523 -5.852 5.637 -5.852 m 0 0" stroke="none" fill-rule="nonzero" fill-opacity="1" fill="#000"/><path d="m 27.324 24.23 c 0.605 -0.594 2.156 -1.84 2.324 -2.66 l -0.059 -4.707 l -8.969 -3.332 l -1.457 1.234 l -2.418 3.148 l 0.594 3.551 l 0.313 0.91 l 1.828 1.848 m 7.844 0.008" stroke="none" fill-rule="nonzero" fill-opacity="1" fill="#000"/><path d="m 17.699 22.391 l 0 -4.383 c 0.445 -1.914 2.301 -3.852 3.223 -3.828 c 1.578 0.199 2.68 1.598 3.625 2.953 c 1.188 1.012 4.152 1.07 4.926 0 c 0 1.633 0 3.27 0 4.906 c 0.879 -0.344 1.977 -1.652 2.164 -2.777 c -0.223 -13.594 -15.445 -13.34 -15.859 -1.254 c 0.129 1.52 1.039 3.664 1.922 4.383 m 0 0" stroke="none" fill-rule="nonzero" fill-opacity="1" fill="#000"/><path d="m 23.414 28.27 l 3.914 -4.059 l 1.957 2.031 l -3.914 4.059 m -1.957 -2.031" stroke="none" fill-rule="nonzero" fill-opacity="1" fill="#000"/><path d="m 19.496 24.22 l 3.918 4.055 l -1.961 2.031 l -3.914 -4.059 m 1.957 -2.027" stroke="none" fill-rule="nonzero" fill-opacity="1" fill="#000"/></g></g></g></g><g><g clip-path="url(#clipPath-011918242)"><g transform="translate(0,-1)"><!-- color: #63acdd --><g><path d="m 22.781 28.16 l -5.328 -6.406 l -0.637 -6.555 l 7.684 -2.105 l 5.066 1.543 l 1.785 3.953 l -1.391 2.664 l -6.191 6.973 m -0.988 -0.066" fill="#cf8e92" stroke="none" fill-rule="nonzero" fill-opacity="0.941"/><path d="m 10 37 l 28 0 l 0 -2.152 c -0.734 -3.234 -4.488 -6.953 -9.172 -8.867 l -3.059 2.969 l -0.965 -0.641 l -2.684 -0.059 l -0.859 0.988 l -3.25 -3.223 c -3.582 1.578 -7.273 5.03 -8.01 8.828 m 0 2.156" fill="#cf362d" stroke="none" fill-rule="nonzero" fill-opacity="1"/><path d="m 23.41 11.512 c 3.109 0 5.633 2.621 5.633 5.852 l 0 2.641 c 0 3.23 -2.523 5.848 -5.633 5.848 c -3.113 0 -5.637 -2.617 -5.637 -5.848 l 0 -2.641 c 0 -3.23 2.523 -5.852 5.637 -5.852 m 0 0" fill="#ffcdce" stroke="none" fill-rule="nonzero" fill-opacity="1"/><path d="m 27.324 24.23 c 0.605 -0.594 2.156 -1.84 2.324 -2.66 l -0.059 -4.707 l -8.969 -3.332 l -1.457 1.234 l -2.418 3.148 l 0.594 3.551 l 0.313 0.91 l 1.828 1.848 m 7.844 0.008" fill="#ffcdce" stroke="none" fill-rule="nonzero" fill-opacity="1"/><path d="m 17.699 22.391 l 0 -4.383 c 0.445 -1.914 2.301 -3.852 3.223 -3.828 c 1.578 0.199 2.68 1.598 3.625 2.953 c 1.188 1.012 4.152 1.07 4.926 0 c 0 1.633 0 3.27 0 4.906 c 0.879 -0.344 1.977 -1.652 2.164 -2.777 c -0.223 -13.594 -15.445 -13.34 -15.859 -1.254 c 0.129 1.52 1.039 3.664 1.922 4.383 m 0 0" fill="#cf362d" stroke="none" fill-rule="nonzero" fill-opacity="1"/><path d="m 23.414 28.27 l 3.914 -4.059 l 1.957 2.031 l -3.914 4.059 m -1.957 -2.031" fill="#b2d4cf" stroke="none" fill-rule="nonzero" fill-opacity="1"/><path d="m 19.496 24.22 l 3.918 4.055 l -1.961 2.031 l -3.914 -4.059 m 1.957 -2.027" fill="#b2d4cf" stroke="none" fill-rule="nonzero" fill-opacity="1"/></g></g></g></g><g><g transform="translate(0,-1004.3622)"><path d="m 1 1043.36 0 4 c 0 2.216 1.784 4 4 4 l 38 0 c 2.216 0 4 -1.784 4 -4 l 0 -4 c 0 2.216 -1.784 4 -4 4 l -38 0 c -2.216 0 -4 -1.784 -4 -4 z" opacity="0.1"/></g></g></svg>