<svg width="48" height="48" viewBox="0 0 48 48.000001" xmlns="http://www.w3.org/2000/svg">
  <defs>
    <linearGradient id="a" x1="-47" x2="-1" gradientUnits="userSpaceOnUse">
      <stop offset="0" stop-color="#ccc"/>
      <stop offset="1" stop-color="#d6d6d6"/>
    </linearGradient>
  </defs>
  <path d="M1 43v.25c0 2.216 1.784 4 4 4h38c2.216 0 4-1.784 4-4V43c0 2.216-1.784 4-4 4H5c-2.216 0-4-1.784-4-4zm0 .5v.5c0 2.216 1.784 4 4 4h38c2.216 0 4-1.784 4-4v-.5c0 2.216-1.784 4-4 4H5c-2.216 0-4-1.784-4-4z" opacity=".02"/>
  <path d="M1 43.25v.25c0 2.216 1.784 4 4 4h38c2.216 0 4-1.784 4-4v-.25c0 2.216-1.784 4-4 4H5c-2.216 0-4-1.784-4-4z" opacity=".05"/>
  <path d="M1 43v.25c0 2.216 1.784 4 4 4h38c2.216 0 4-1.784 4-4V43c0 2.216-1.784 4-4 4H5c-2.216 0-4-1.784-4-4z" opacity=".1"/>
  <rect transform="rotate(-90)" x="-47" y="1" width="46" height="46" rx="4" fill="url(#a)"/>
  <path d="M1 39v4c0 2.216 1.784 4 4 4h38c2.216 0 4-1.784 4-4v-4c0 2.216-1.784 4-4 4H5c-2.216 0-4-1.784-4-4zM12 17v16h20l8-8-8-8zm3 3h15l5 5-5 5h-3v-8h-3v8h-1v-5h-3v5h-1v-3h-3v3h-1zm15 3a2 2 0 1 0-.001 3.999A2 2 0 0 0 30 23z" opacity=".1"/>
  <path d="M12 16v16h20l8-8-8-8zm3 3h15l5 5-5 5H15z" fill="#616577"/>
  <path fill="#9d63a2" d="M16 26h3v3h-3z"/>
  <path fill="#f7901e" d="M20 24h3v5h-3z"/>
  <path fill="#33b5be" d="M24 21h3v8h-3z"/>
  <path d="M32 24a2 2 0 1 1-4 0 2 2 0 1 1 4 0z" fill="#616577"/>
</svg>
