<svg version="1.1" viewBox="0 0 48 48" xmlns="http://www.w3.org/2000/svg">
 <defs>
  <linearGradient id="bg" x2="0" y1="1" y2="47" gradientUnits="userSpaceOnUse">
   <stop style="stop-color:#d062f2" offset="0"/>
   <stop style="stop-color:#cb51f0" offset="1"/>
  </linearGradient>
 </defs>
 <path d="m1 43v0.25c0 2.216 1.784 4 4 4h38c2.216 0 4-1.784 4-4v-0.25c0 2.216-1.784 4-4 4h-38c-2.216 0-4-1.784-4-4zm0 0.5v0.5c0 2.216 1.784 4 4 4h38c2.216 0 4-1.784 4-4v-0.5c0 2.216-1.784 4-4 4h-38c-2.216 0-4-1.784-4-4z" style="opacity:.02"/>
 <path d="m1 43.25v0.25c0 2.216 1.784 4 4 4h38c2.216 0 4-1.784 4-4v-0.25c0 2.216-1.784 4-4 4h-38c-2.216 0-4-1.784-4-4z" style="opacity:.05"/>
 <path d="m1 43v0.25c0 2.216 1.784 4 4 4h38c2.216 0 4-1.784 4-4v-0.25c0 2.216-1.784 4-4 4h-38c-2.216 0-4-1.784-4-4z" style="opacity:.1"/>
 <rect x="1" y="1" width="46" height="46" rx="4" style="fill:url(#bg)"/>
 <path d="m1 39v4c0 2.216 1.784 4 4 4h38c2.216 0 4-1.784 4-4v-4c0 2.216-1.784 4-4 4h-38c-2.216 0-4-1.784-4-4z" style="opacity:.1"/>
 <path d="m16 12c-0.55228 0-1 0.44772-1 1v22c0 0.55228 0.44772 1 1 1 0.27614 0 0.58265-0.16918 0.80664-0.29297l19.193-10.607c0.4642-0.25654 1-0.5392 1-1.0996s-0.5358-0.84306-1-1.0996l-19.193-10.607c-0.22399-0.12379-0.5305-0.29297-0.80664-0.29297z" style="opacity:.1;paint-order:normal"/>
 <path d="m16 11c-0.55228 0-1 0.44772-1 1v22c0 0.55228 0.44772 1 1 1 0.27614 0 0.58265-0.16918 0.80664-0.29297l19.193-10.607c0.4642-0.25654 1-0.5392 1-1.0996s-0.5358-0.84306-1-1.0996l-19.193-10.607c-0.22399-0.12379-0.5305-0.29297-0.80664-0.29297z" style="fill:#f9f9f9;paint-order:normal"/>
 <path d="m19.5 17c-0.27614 0-0.5 0.22386-0.5 0.5v11c0 0.27614 0.22386 0.5 0.5 0.5 0.13807 0 0.29132-0.08459 0.40332-0.14648l9.5967-5.3037c0.2321-0.12827 0.5-0.2696 0.5-0.5498s-0.2679-0.42153-0.5-0.5498l-9.5967-5.3037c-0.112-0.0619-0.26525-0.14648-0.40332-0.14648z" style="fill:#e34343;paint-order:normal"/>
 <path d="m19.5 17c-0.27614 0-0.5 0.22386-0.5 0.5v1c0-0.27614 0.22386-0.5 0.5-0.5 0.13807 0 0.2923 0.08458 0.4043 0.14648l9.5957 5.3027c0.026864 0.014847 0.050772 0.035366 0.078125 0.050781 0.20897-0.11759 0.42188-0.25223 0.42188-0.5 0-0.2802-0.2679-0.42251-0.5-0.55078l-9.5957-5.3027c-0.112-0.0619-0.26623-0.14648-0.4043-0.14648z" style="opacity:.1;paint-order:normal"/>
</svg>
