<svg version="1.1" viewBox="0 0 48 48" xmlns="http://www.w3.org/2000/svg">
 <defs>
  <linearGradient id="bg" x2="0" y1="1" y2="47" gradientUnits="userSpaceOnUse">
   <stop style="stop-color:#406c72" offset="0"/>
   <stop style="stop-color:#396065" offset="1"/>
  </linearGradient>
 </defs>
 <path d="m1 43v0.25c0 2.22 1.78 4 4 4h38c2.22 0 4-1.78 4-4v-0.25c0 2.22-1.78 4-4 4h-38c-2.22 0-4-1.78-4-4zm0 0.5v0.5c0 2.22 1.78 4 4 4h38c2.22 0 4-1.78 4-4v-0.5c0 2.22-1.78 4-4 4h-38c-2.22 0-4-1.78-4-4z" style="opacity:.02"/>
 <path d="m1 43.2v0.25c0 2.22 1.78 4 4 4h38c2.22 0 4-1.78 4-4v-0.25c0 2.22-1.78 4-4 4h-38c-2.22 0-4-1.78-4-4z" style="opacity:.05"/>
 <path d="m1 43v0.25c0 2.22 1.78 4 4 4h38c2.22 0 4-1.78 4-4v-0.25c0 2.22-1.78 4-4 4h-38c-2.22 0-4-1.78-4-4z" style="opacity:.1"/>
 <rect x="1" y="1" width="46" height="46" rx="4" style="fill:url(#bg)"/>
 <path d="m1 39v4c0 2.22 1.78 4 4 4h38c2.22 0 4-1.78 4-4v-4c0 2.22-1.78 4-4 4h-38c-2.22 0-4-1.78-4-4z" style="opacity:.1"/>
 <path d="m11 15.7v14.6c0 1.11 0.909 1.87 2 1.67l4.84-0.867 0.18 0.896c0.109 0.543 0.546 1 1.1 1s0.9-0.446 0.9-1v-1.29l1.6-0.285 0.387 4.07c0.131 1.37 1.22 2.5 2.6 2.5s2.4-1.12 2.4-2.5v-3.96l1.77 0.318 0.229 1.14c0.109 0.543 0.546 1 1.1 1s0.9-0.446 0.9-1v-0.746l4 0.717c1.09 0.195 2-0.562 2-1.67v-14.6z" style="opacity:.1"/>
 <path d="m12.6 13c-0.9 0.00363-1.6 0.724-1.6 1.69v14.6c0 1.11 0.909 1.87 2 1.67l11-1.97 11 1.97c1.09 0.195 2-0.562 2-1.67v-14.6c0-1.11-0.918-1.89-2-1.65l-11 2.45-11-2.45c-0.135-0.0301-0.268-0.0454-0.396-0.0449z" style="fill:#4891ea"/>
 <path d="m15 15v12c0 1.11 0.892 2 2 2h0.416l0.227 1.14 2.37-0.426v-0.713h1.46l0.043 0.445 2.48-0.445h4.4l0.164 0.818 2.44 0.436v-1.25c1.11 0 2-0.892 2-2v-12z" style="opacity:.1"/>
 <path d="m17 12h14c1.11 0 2 0.892 2 2v12c0 1.11-0.892 2-2 2h-14c-1.11 0-2-0.892-2-2v-12c0-1.11 0.892-2 2-2z" style="fill:#71abef"/>
 <path d="m24 21c-1.66 0-3.16 1.35-3 3l0.381 4h3.62zm-6 1c-0.554 0-1 0.446-1 1s0.446 1 1 1h1c0.554 0 1-0.446 1-1s-0.446-1-1-1zm11 0c-0.554 0-1 0.446-1 1s0.446 1 1 1h1c0.554 0 1-0.446 1-1s-0.446-1-1-1zm-10.5 4c-0.828 0-1.63 0.464-1.5 1l0.199 1h1.79zm11 0c-0.828 0-1.63 0.464-1.5 1l0.199 1h1.8z" style="opacity:.1"/>
 <path d="m24 20c-1.66 0-3.16 1.35-3 3l1 10.5c0.131 1.37 1.22 2.5 2.6 2.5s2.4-1.12 2.4-2.5v-10.5c0-1.66-1.34-3-3-3z" style="fill:#7fb3f0"/>
 <path d="m18 21c-0.554 0-1 0.446-1 1s0.446 1 1 1h1c0.554 0 1-0.446 1-1 0-0.104-0.0158-0.205-0.0449-0.299l-0.656-0.656c-0.0941-0.0291-0.195-0.0449-0.299-0.0449zm11 0c-0.554 0-1 0.446-1 1s0.446 1 1 1h1c0.554 0 1-0.446 1-1 0-0.104-0.0158-0.205-0.0449-0.299l-0.656-0.656c-0.0941-0.0291-0.195-0.0449-0.299-0.0449z" style="fill:#5a5463"/>
 <path d="m18.5 25c-0.828 0-1.63 0.464-1.5 1l1 5c0.109 0.543 0.546 1 1.1 1s0.9-0.446 0.9-1v-5c0-0.552-0.672-1-1.5-1zm11 0c-0.828 0-1.63 0.464-1.5 1l1 5c0.109 0.543 0.546 1 1.1 1s0.9-0.446 0.9-1v-5c0-0.552-0.672-1-1.5-1z" style="fill:#e3e1ce"/>
 <path d="m19.3 21a0.5 0.5 0 0 0-0.297 0.455 0.5 0.5 0 0 0 0.5 0.5 0.5 0.5 0 0 0 0.455-0.297c-1.81e-4 -5.8e-4 1.82e-4 -1e-3 0-2e-3 -0.0971-0.314-0.343-0.559-0.656-0.656-5.87e-4 -1.8e-4 -0.0014 1.8e-4 -2e-3 0zm11 0a0.5 0.5 0 0 0-0.297 0.455 0.5 0.5 0 0 0 0.5 0.5 0.5 0.5 0 0 0 0.455-0.297c-1.81e-4 -5.8e-4 1.82e-4 -1e-3 0-2e-3 -0.0971-0.314-0.343-0.559-0.656-0.656-5.87e-4 -1.8e-4 -0.0014 1.8e-4 -2e-3 0z" style="fill:#f9f9f9"/>
 <path d="m26 33.5a1.5 1.5 0 0 1-1.5 1.5 1.5 1.5 0 0 1-1.5-1.5 1.5 1.5 0 0 1 1.5-1.5 1.5 1.5 0 0 1 1.5 1.5z" style="fill:#3c88e7"/>
 <path d="m24.5 32a1.5 1.5 0 0 0-1.5 1.5 1.5 1.5 0 0 0 0.0938 0.51 1.5 1.5 0 0 1 1.41-1.01 1.5 1.5 0 0 1 1.41 0.996 1.5 1.5 0 0 0 0.0879-0.496 1.5 1.5 0 0 0-1.5-1.5z" style="opacity:.1"/>
</svg>
