<svg id="svg36066" version="1.1" viewBox="0 0 48 48" xmlns="http://www.w3.org/2000/svg">
 <defs id="defs36022">
  <linearGradient id="linearGradient3764" x1="1" x2="47" gradientTransform="translate(-48 .0022147)" gradientUnits="userSpaceOnUse">
   <stop id="stop36007" stop-color="#4b89d5" offset="0"/>
   <stop id="stop36009" stop-color="#5b92d9" offset="1"/>
  </linearGradient>
  <clipPath id="clipPath-688982295">
   <g id="g36014" transform="translate(0 -1004.4)">
    <rect id="rect36012" x="1" y="1005.4" width="46" height="46" rx="4" fill="#1890d0"/>
   </g>
  </clipPath>
  <clipPath id="clipPath-704036234">
   <g id="g36019" transform="translate(0 -1004.4)">
    <rect id="rect36017" x="1" y="1005.4" width="46" height="46" rx="4" fill="#1890d0"/>
   </g>
  </clipPath>
 </defs>
 <g id="g36030">
  <path id="path36024" d="m1 43v0.25c0 2.216 1.784 4 4 4h38c2.216 0 4-1.784 4-4v-0.25c0 2.216-1.784 4-4 4h-38c-2.216 0-4-1.784-4-4zm0 0.5v0.5c0 2.216 1.784 4 4 4h38c2.216 0 4-1.784 4-4v-0.5c0 2.216-1.784 4-4 4h-38c-2.216 0-4-1.784-4-4z" opacity=".02"/>
  <path id="path36026" d="m1 43.25v0.25c0 2.216 1.784 4 4 4h38c2.216 0 4-1.784 4-4v-0.25c0 2.216-1.784 4-4 4h-38c-2.216 0-4-1.784-4-4z" opacity=".05"/>
  <path id="path36028" d="m1 43v0.25c0 2.216 1.784 4 4 4h38c2.216 0 4-1.784 4-4v-0.25c0 2.216-1.784 4-4 4h-38c-2.216 0-4-1.784-4-4z" opacity=".1"/>
 </g>
 <g id="g36034">
  <rect id="rect36032" transform="rotate(-90)" x="-47" y="1" width="46" height="46" rx="4" fill="url(#linearGradient3764)"/>
 </g>
 <g id="g36046">
  <g id="g36044" clip-path="url(#clipPath-688982295)">
   <g id="g36042" opacity=".1">
    <g id="g36040">
     <path id="path36036" d="m24 9c-8.293 0-15 6.707-15 15 0 8.289 6.707 14.996 15 14.996 8.289 0 14.996-6.707 14.996-14.996 0-8.293-6.707-15-14.996-15"/>
     <path id="path36038" d="m20 19v3h8v-3l3.887 2.5 4.113 2.504-4.113 2.5-3.887 2.5v-3h-8v3l-3.887-2.5-4.117-2.5 4.117-2.504"/>
    </g>
   </g>
  </g>
 </g>
 <g id="g36058">
  <g id="g36056" clip-path="url(#clipPath-704036234)">
   <g id="g36054" transform="translate(0,-1)">
    <g id="g36052">
     <path id="path36048" d="m24 9c-8.293 0-15 6.707-15 15 0 8.289 6.707 14.996 15 14.996 8.289 0 14.996-6.707 14.996-14.996 0-8.293-6.707-15-14.996-15" fill="#f9f9f9"/>
     <path id="path36050" d="m20 19v3h8v-3l3.887 2.5 4.113 2.504-4.113 2.5-3.887 2.5v-3h-8v3l-3.887-2.5-4.117-2.5 4.117-2.504" fill="#4a86d6"/>
    </g>
   </g>
  </g>
 </g>
 <g id="g36064">
  <g id="g36062" transform="translate(0 -1004.4)">
   <path id="path36060" d="m1 1043.4v4c0 2.216 1.784 4 4 4h38c2.216 0 4-1.784 4-4v-4c0 2.216-1.784 4-4 4h-38c-2.216 0-4-1.784-4-4z" opacity=".1"/>
  </g>
 </g>
</svg>
