<svg width="48" height="48" version="1.1" viewBox="0 0 48 48" xmlns="http://www.w3.org/2000/svg">
 <defs>
  <linearGradient id="linearGradient4219" x1="1" x2="47" gradientTransform="translate(-48 .00221)" gradientUnits="userSpaceOnUse">
   <stop style="stop-color:#4c5699" offset="0"/>
   <stop style="stop-color:#525da6" offset="1"/>
  </linearGradient>
 </defs>
 <path d="m1 43v0.25c0 2.216 1.784 4 4 4h38c2.216 0 4-1.784 4-4v-0.25c0 2.216-1.784 4-4 4h-38c-2.216 0-4-1.784-4-4zm0 0.5v0.5c0 2.216 1.784 4 4 4h38c2.216 0 4-1.784 4-4v-0.5c0 2.216-1.784 4-4 4h-38c-2.216 0-4-1.784-4-4z" style="opacity:.02"/>
 <path d="m1 43.25v0.25c0 2.216 1.784 4 4 4h38c2.216 0 4-1.784 4-4v-0.25c0 2.216-1.784 4-4 4h-38c-2.216 0-4-1.784-4-4z" style="opacity:.05"/>
 <path d="m1 43v0.25c0 2.216 1.784 4 4 4h38c2.216 0 4-1.784 4-4v-0.25c0 2.216-1.784 4-4 4h-38c-2.216 0-4-1.784-4-4z" style="opacity:.1"/>
 <rect transform="rotate(-90)" x="-47" y="1" width="46" height="46" rx="4" style="fill:url(#linearGradient4219)"/>
 <g transform="translate(0,-1004.4)">
  <path d="m1 1043.4v4c0 2.216 1.784 4 4 4h38c2.216 0 4-1.784 4-4v-4c0 2.216-1.784 4-4 4h-38c-2.216 0-4-1.784-4-4z" style="opacity:.1"/>
 </g>
 <path d="m19.999 10v8.4961l-8.0781-2.625-2.4727 7.6094 8.0801 2.625-4.9922 6.8711 6.4727 4.7031 4.9941-6.873 4.9922 6.8711 6.4727-4.7031-4.9941-6.873 8.0781-2.625-2.4727-7.6074-8.0801 2.625v-8.4941z" style="opacity:.1"/>
 <path d="m19.999 9.0003v8.4961l-8.0781-2.625-2.4727 7.6094 8.0801 2.625-4.9922 6.8711 6.4727 4.7031 4.9941-6.873 4.9922 6.8711 6.4727-4.7031-4.9941-6.873 8.0781-2.625-2.4727-7.6074-8.0801 2.625v-8.4941z" style="fill:#fc0"/>
</svg>
