<svg style="" viewBox="0 0 48 48" xmlns="http://www.w3.org/2000/svg" xmlns:xlink="http://www.w3.org/1999/xlink">
 <defs style="">
  <linearGradient id="linearGradient3764" gradientTransform="translate(-48 .002215)" gradientUnits="userSpaceOnUse" style="" x1="1" x2="47">
   <stop offset="0" style="stop-color:#ecc200"/>
   <stop offset="1" style="stop-color:#ffd000"/>
  </linearGradient>
 </defs>
 <path d="m 1 43 v .25 c 0 2.216 1.784 4 4 4 h 38 c 2.216 0 4 -1.784 4 -4 v -.25 c 0 2.216 -1.784 4 -4 4 h -38 c -2.216 0 -4 -1.784 -4 -4 z m 0 .5 v .5 c 0 2.216 1.784 4 4 4 h 38 c 2.216 0 4 -1.784 4 -4 v -.5 c 0 2.216 -1.784 4 -4 4 h -38 c -2.216 0 -4 -1.784 -4 -4 z" style="opacity:.02"/>
 <path d="m 1 43.25 v .25 c 0 2.216 1.784 4 4 4 h 38 c 2.216 0 4 -1.784 4 -4 v -.25 c 0 2.216 -1.784 4 -4 4 h -38 c -2.216 0 -4 -1.784 -4 -4 z" style="opacity:.05"/>
 <path d="m 1 43 v .25 c 0 2.216 1.784 4 4 4 h 38 c 2.216 0 4 -1.784 4 -4 v -.25 c 0 2.216 -1.784 4 -4 4 h -38 c -2.216 0 -4 -1.784 -4 -4 z" style="opacity:.1"/>
 <rect height="46" rx="4" style="fill:url(#linearGradient3764)" transform="rotate(-90)" width="46" x="-47" y="1"/>
 <path d="m 15.641 36.953 c -2.434 -.297 -3.324 -1.313 -3.129 -3.578 .094 -1.063 .418 -1.773 1.199 -2.582 .344 -.355 .625 -.695 .625 -.75 0 -.051 -.227 -.449 -.504 -.883 -1.41 -2.191 -2.086 -5.223 -1.742 -7.773 .867 -6.406 6.605 -10.938 13.08 -10.332 5.02 .469 9.188 3.957 10.508 8.785 .27 1 .313 1.43 .324 2.996 .004 1.613 -.035 1.973 -.324 3 -.418 1.504 -.797 2.328 -1.652 3.621 l -.699 1.051 .727 .637 c 1.227 1.074 1.699 2.262 1.398 3.508 -.191 .82 -.496 1.23 -1.184 1.629 -1.094 .629 -1.691 .711 -5.273 .715 -1.813 .004 -3.852 -.016 -4.531 -.039 -.688 -.023 -2.781 -.016 -4.66 .02 -1.879 .035 -3.754 .023 -4.164 -.027 m 7.383 -1.227 c 1.379 -.23 2.07 -.824 2.051 -1.758 -.016 -.621 -.477 -1.477 -1.063 -1.953 -1.832 -1.523 -6.184 -2.129 -8.367 -1.188 -1.254 .543 -2.047 1.699 -2.047 2.98 -.004 1.602 .574 1.926 3.664 2.039 2.367 .09 4.758 .031 5.762 -.133 m 7.965 .137 c 1.77 -.125 2.543 -.344 3.055 -.871 .313 -.324 .359 -.461 .359 -1.086 0 -.598 -.059 -.801 -.379 -1.242 -.363 -.504 -1.566 -1.445 -1.852 -1.445 -.074 0 -.578 .328 -1.125 .734 -1.125 .828 -2.621 1.586 -3.73 1.887 -1.348 .367 -1.555 .445 -1.555 .602 0 .082 -.113 .359 -.246 .629 -.414 .797 -.441 .773 1.582 .816 1.012 .023 1.945 .055 2.082 .066 .137 .012 .945 -.027 1.801 -.086 m -3.613 -2.707 c 1.75 -.531 3.305 -1.508 4.695 -2.953 2.742 -2.836 3.66 -6.988 2.383 -10.785 -.504 -1.492 -1.242 -2.707 -2.352 -3.875 -2.047 -2.16 -4.539 -3.316 -7.406 -3.465 -3.199 -.16 -5.957 .84 -8.184 2.957 -1.727 1.648 -2.824 3.625 -3.25 5.859 -.234 1.211 -.16 3.543 .148 4.703 .301 1.133 1.32 3.133 1.945 3.828 l .539 .594 .727 -.137 c 1.113 -.199 2.98 -.156 4.242 .098 2.109 .43 3.922 1.523 4.551 2.758 .473 .895 .398 .887 1.949 .41 m -5.227 -10.73 c -.648 -.352 -1.023 -2.102 -.73 -3.25 .582 -2.289 2.379 -1.539 2.379 .992 0 1.656 -.801 2.746 -1.648 2.258 m 4.395 -.145 c -.438 -.465 -.664 -1.148 -.664 -2.105 0 -2.16 1.332 -3.184 2.145 -1.641 .957 1.844 -.277 4.992 -1.48 3.742" style="opacity:.1"/>
 <path d="m 15.641 35.953 c -2.434 -.297 -3.324 -1.313 -3.129 -3.578 .094 -1.063 .418 -1.773 1.199 -2.582 .344 -.355 .625 -.695 .625 -.75 0 -.051 -.227 -.449 -.504 -.883 -1.41 -2.191 -2.086 -5.223 -1.742 -7.773 .867 -6.406 6.605 -10.938 13.08 -10.332 5.02 .469 9.188 3.957 10.508 8.785 .27 1 .313 1.43 .324 2.996 .004 1.613 -.035 1.973 -.324 3 -.418 1.504 -.797 2.328 -1.652 3.621 l -.699 1.051 .727 .637 c 1.227 1.074 1.699 2.262 1.398 3.508 -.191 .82 -.496 1.23 -1.184 1.629 -1.094 .629 -1.691 .711 -5.273 .715 -1.813 .004 -3.852 -.016 -4.531 -.039 -.688 -.023 -2.781 -.016 -4.66 .02 -1.879 .035 -3.754 .023 -4.164 -.027 m 7.383 -1.227 c 1.379 -.23 2.07 -.824 2.051 -1.758 -.016 -.621 -.477 -1.477 -1.063 -1.953 -1.832 -1.523 -6.184 -2.129 -8.367 -1.188 -1.254 .543 -2.047 1.699 -2.047 2.98 -.004 1.602 .574 1.926 3.664 2.039 2.367 .09 4.758 .031 5.762 -.133 m 7.965 .137 c 1.77 -.125 2.543 -.344 3.055 -.871 .313 -.324 .359 -.461 .359 -1.086 0 -.598 -.059 -.801 -.379 -1.242 -.363 -.504 -1.566 -1.445 -1.852 -1.445 -.074 0 -.578 .328 -1.125 .734 -1.125 .828 -2.621 1.586 -3.73 1.887 -1.348 .367 -1.555 .445 -1.555 .602 0 .082 -.113 .359 -.246 .629 -.414 .797 -.441 .773 1.582 .816 1.012 .023 1.945 .055 2.082 .066 .137 .012 .945 -.027 1.801 -.086 m -3.613 -2.707 c 1.75 -.531 3.305 -1.508 4.695 -2.953 2.742 -2.836 3.66 -6.988 2.383 -10.785 -.504 -1.492 -1.242 -2.707 -2.352 -3.875 -2.047 -2.16 -4.539 -3.316 -7.406 -3.465 -3.199 -.16 -5.957 .84 -8.184 2.957 -1.727 1.648 -2.824 3.625 -3.25 5.859 -.234 1.211 -.16 3.543 .148 4.703 .301 1.133 1.32 3.133 1.945 3.828 l .539 .594 .727 -.137 c 1.113 -.199 2.98 -.156 4.242 .098 2.109 .43 3.922 1.523 4.551 2.758 .473 .895 .398 .887 1.949 .41 m -5.227 -10.73 c -.648 -.352 -1.023 -2.102 -.73 -3.25 .582 -2.289 2.379 -1.539 2.379 .992 0 1.656 -.801 2.746 -1.648 2.258 m 4.395 -.145 c -.438 -.465 -.664 -1.148 -.664 -2.105 0 -2.16 1.332 -3.184 2.145 -1.641 .957 1.844 -.277 4.992 -1.48 3.742" style="fill:#333"/>
 <path d="m 1 39 v 4 c 0 2.216 1.784 4 4 4 h 38 c 2.216 0 4 -1.784 4 -4 v -4 c 0 2.216 -1.784 4 -4 4 h -38 c -2.216 0 -4 -1.784 -4 -4 z" style="opacity:.1"/>
</svg>
