<svg version="1.1" viewBox="0 0 48 48" xmlns="http://www.w3.org/2000/svg">
 <defs>
  <linearGradient id="bg" x2="0" y1="1" y2="47" gradientUnits="userSpaceOnUse">
   <stop style="stop-color:#22d37a" offset="0"/>
   <stop style="stop-color:#1fc170" offset="1"/>
  </linearGradient>
 </defs>
 <path d="m1 43v0.25c0 2.216 1.784 4 4 4h38c2.216 0 4-1.784 4-4v-0.25c0 2.216-1.784 4-4 4h-38c-2.216 0-4-1.784-4-4zm0 0.5v0.5c0 2.216 1.784 4 4 4h38c2.216 0 4-1.784 4-4v-0.5c0 2.216-1.784 4-4 4h-38c-2.216 0-4-1.784-4-4z" style="opacity:.02"/>
 <path d="m1 43.25v0.25c0 2.216 1.784 4 4 4h38c2.216 0 4-1.784 4-4v-0.25c0 2.216-1.784 4-4 4h-38c-2.216 0-4-1.784-4-4z" style="opacity:.05"/>
 <path d="m1 43v0.25c0 2.216 1.784 4 4 4h38c2.216 0 4-1.784 4-4v-0.25c0 2.216-1.784 4-4 4h-38c-2.216 0-4-1.784-4-4z" style="opacity:.1"/>
 <rect x="1" y="1" width="46" height="46" rx="4" style="fill:url(#bg)"/>
 <path d="m1 39v4c0 2.216 1.784 4 4 4h38c2.216 0 4-1.784 4-4v-4c0 2.216-1.784 4-4 4h-38c-2.216 0-4-1.784-4-4z" style="opacity:.1"/>
 <path d="m24 13.999c-1.7021 0.0043-3.3223 0.73131-4.457 2h-9.543l1 2.002 7.3613-2e-3c-0.05795 0.14698-0.11008 0.29618-0.15625 0.44726-0.04378 0.18249-0.07898 0.36694-0.10547 0.55274l-6.0996 2e-3 1 2 5.0879-2e-3c0.05895 0.3403 0.14716 0.67488 0.26367 1l-4.3516 2e-3 1 2 4.541-2e-3c0.42027 0.47286 0.91268 0.87628 1.459 1.1953l-1 1.7324a8 8 0 0 0 8 0l-1-1.7324c0.54977-0.31818 1.0455-0.72164 1.4688-1.1953l4.5312 2e-3 1-2-4.3457-2e-3c0.11584-0.32518 0.20341-0.65976 0.26172-1l5.084 2e-3 1-2-6.0859-2e-3c-0.03101-0.18601-0.07076-0.37046-0.11914-0.55274-0.04617-0.15109-0.0983-0.30029-0.15625-0.44726l7.3613 2e-3 1-2.002h-9.543c-1.1347-1.2687-2.7549-1.9957-4.457-2zm0 2c2.2091 0 4 1.7909 4 4 2.67e-4 1.4293-0.76216 2.7502-2 3.4648l0.99609 1.7227a6 6 0 0 1-2.9961 0.8125 6 6 0 0 1-2.9961-0.8125l0.99609-1.7227c-1.2378-0.71466-2.0003-2.0355-2-3.4648 0-2.2091 1.7909-4 4-4zm-4.9922 12.648-1.0078 1.7441a12 12 0 0 0 12 0l-1.0078-1.7441a10 10 0 0 1-4.9922 1.3516 10 10 0 0 1-4.9922-1.3516zm-1.998 3.459-1.0098 1.75a16 16 0 0 0 16 0l-1.0098-1.75a14 14 0 0 1-6.9902 1.8926 14 14 0 0 1-6.9902-1.8926z" style="opacity:.1"/>
 <path d="m24 12.999c-1.7021 0.0043-3.3223 0.73132-4.457 2h-9.543l1 2.001 7.3613-1e-3c-0.05795 0.14698-0.11008 0.29618-0.15625 0.44727-0.04378 0.18249-0.07898 0.36694-0.10547 0.55273l-6.0996 1e-3 1 2 5.0879-1e-3c0.05895 0.3403 0.14716 0.67488 0.26367 1l-4.3516 1e-3 1 2 4.541-1e-3c0.42027 0.47286 0.91268 0.87629 1.459 1.1953l1-1.7305c-1.2378-0.71466-2.0003-2.0355-2-3.4648 0-2.2091 1.7909-4 4-4s4 1.7909 4 4c2.67e-4 1.4293-0.76216 2.7502-2 3.4648l1 1.7305c0.54977-0.31818 1.0455-0.72164 1.4688-1.1953l4.5312 1e-3 1-2-4.3457-1e-3c0.11584-0.32518 0.20341-0.65976 0.26172-1l5.084 1e-3 1-2-6.0859-1e-3c-0.03101-0.18601-0.07076-0.37046-0.11914-0.55273-0.04617-0.15109-0.0983-0.3003-0.15625-0.44727l7.3613 1e-3 1-2.001h-9.543c-1.1347-1.2687-2.7549-1.9957-4.457-2z" style="fill:#1a569e"/>
 <path d="m21.004 24.186-1.0039 1.7402a8 8 0 0 0 8 0l-1.0039-1.7402a6 6 0 0 1-2.9961 0.8125 6 6 0 0 1-2.9961-0.8125zm-1.9961 3.4609-1.0078 1.7441a12 12 0 0 0 12 0l-1.0078-1.7441a10 10 0 0 1-4.9922 1.3516 10 10 0 0 1-4.9922-1.3516zm-1.998 3.459-1.0098 1.75a16 16 0 0 0 16 0l-1.0098-1.75a14 14 0 0 1-6.9902 1.8926 14 14 0 0 1-6.9902-1.8926z" style="fill:#f9f9f9"/>
</svg>
