<svg width="48" height="48" version="1.1" viewBox="0 0 48 48" xmlns="http://www.w3.org/2000/svg">
 <defs>
  <linearGradient id="linearGradient4217" x1="1" x2="47" gradientTransform="translate(-48 .00221)" gradientUnits="userSpaceOnUse">
   <stop style="stop-color:#033855" offset="0"/>
   <stop style="stop-color:#044568" offset="1"/>
  </linearGradient>
 </defs>
 <path d="m1 43v0.25c0 2.216 1.784 4 4 4h38c2.216 0 4-1.784 4-4v-0.25c0 2.216-1.784 4-4 4h-38c-2.216 0-4-1.784-4-4zm0 0.5v0.5c0 2.216 1.784 4 4 4h38c2.216 0 4-1.784 4-4v-0.5c0 2.216-1.784 4-4 4h-38c-2.216 0-4-1.784-4-4z" style="opacity:.02"/>
 <path d="m1 43.25v0.25c0 2.216 1.784 4 4 4h38c2.216 0 4-1.784 4-4v-0.25c0 2.216-1.784 4-4 4h-38c-2.216 0-4-1.784-4-4z" style="opacity:.05"/>
 <path d="m1 43v0.25c0 2.216 1.784 4 4 4h38c2.216 0 4-1.784 4-4v-0.25c0 2.216-1.784 4-4 4h-38c-2.216 0-4-1.784-4-4z" style="opacity:.1"/>
 <rect transform="rotate(-90)" x="-47" y="1" width="46" height="46" rx="4" style="fill:url(#linearGradient4217)"/>
 <g transform="translate(0,-1004.4)">
  <path d="m1 1043.4v4c0 2.216 1.784 4 4 4h38c2.216 0 4-1.784 4-4v-4c0 2.216-1.784 4-4 4h-38c-2.216 0-4-1.784-4-4z" style="opacity:.1"/>
 </g>
 <path d="m14.742 14-2.7422 2.9102 6.1719 5.0898-6.1719 5.0938 2.7422 2.9062 9.2578-8zm9.2539 16v4h12v-4z" style="opacity:.1"/>
 <path d="m35.996 33v-4h-12v4m12 0" style="fill:#585eb8"/>
 <path d="M 14.742,29 12,26.094 18.172,21 12,15.91 14.742,13 24,21 m -9.258,8" style="fill:#b9bceb"/>
</svg>
