<?xml version="1.0" encoding="UTF-8" standalone="no"?>
<svg
   xmlns:dc="http://purl.org/dc/elements/1.1/"
   xmlns:cc="http://creativecommons.org/ns#"
   xmlns:rdf="http://www.w3.org/1999/02/22-rdf-syntax-ns#"
   xmlns:svg="http://www.w3.org/2000/svg"
   xmlns="http://www.w3.org/2000/svg"
   xmlns:sodipodi="http://sodipodi.sourceforge.net/DTD/sodipodi-0.dtd"
   xmlns:inkscape="http://www.inkscape.org/namespaces/inkscape"
   viewBox="0 0 48 48"
   version="1.1"
   id="svg36407"
   sodipodi:docname="terminology.svg">
  <metadata
     id="metadata36411">
    <rdf:RDF>
      <cc:Work
         rdf:about="">
        <dc:format>image/svg+xml</dc:format>
        <dc:type
           rdf:resource="http://purl.org/dc/dcmitype/StillImage" />
      </cc:Work>
    </rdf:RDF>
  </metadata>
  <sodipodi:namedview
     pagecolor="#ffffff"
     bordercolor="#666666"
     borderopacity="1"
     objecttolerance="10"
     gridtolerance="10"
     guidetolerance="10"
     inkscape:pageopacity="0"
     inkscape:pageshadow="2"
     inkscape:window-width="640"
     inkscape:window-height="480"
     id="namedview36409" />
  <defs
     id="defs36351">
    <linearGradient
       id="linearGradient3764"
       x1="1"
       x2="47"
       gradientUnits="userSpaceOnUse"
       gradientTransform="translate(-48.000001,0.00221467)">
      <stop
         stop-color="#616c77"
         stop-opacity="1"
         id="stop36336" />
      <stop
         offset="1"
         stop-color="#697682"
         stop-opacity="1"
         id="stop36338" />
    </linearGradient>
    <clipPath
       id="clipPath-839448807">
      <g
         transform="translate(0,-1004.3622)"
         id="g36343">
        <rect
           rx="4"
           y="1005.36"
           x="1"
           height="46"
           width="46"
           fill="#1890d0"
           id="rect36341" />
      </g>
    </clipPath>
    <clipPath
       id="clipPath-853665737">
      <g
         transform="translate(0,-1004.3622)"
         id="g36348">
        <rect
           rx="4"
           y="1005.36"
           x="1"
           height="46"
           width="46"
           fill="#1890d0"
           id="rect36346" />
      </g>
    </clipPath>
  </defs>
  <g
     id="g36359">
    <path
       d="m 1 43 l 0 0.25 c 0 2.216 1.784 4 4 4 l 38 0 c 2.216 0 4 -1.784 4 -4 l 0 -0.25 c 0 2.216 -1.784 4 -4 4 l -38 0 c -2.216 0 -4 -1.784 -4 -4 z m 0 0.5 l 0 0.5 c 0 2.216 1.784 4 4 4 l 38 0 c 2.216 0 4 -1.784 4 -4 l 0 -0.5 c 0 2.216 -1.784 4 -4 4 l -38 0 c -2.216 0 -4 -1.784 -4 -4 z"
       opacity="0.02"
       id="path36353" />
    <path
       d="m 1 43.25 l 0 0.25 c 0 2.216 1.784 4 4 4 l 38 0 c 2.216 0 4 -1.784 4 -4 l 0 -0.25 c 0 2.216 -1.784 4 -4 4 l -38 0 c -2.216 0 -4 -1.784 -4 -4 z"
       opacity="0.05"
       id="path36355" />
    <path
       d="m 1 43 l 0 0.25 c 0 2.216 1.784 4 4 4 l 38 0 c 2.216 0 4 -1.784 4 -4 l 0 -0.25 c 0 2.216 -1.784 4 -4 4 l -38 0 c -2.216 0 -4 -1.784 -4 -4 z"
       opacity="0.1"
       id="path36357" />
  </g>
  <g
     id="g36363">
    <rect
       width="46"
       height="46"
       x="-47"
       y="1"
       rx="4"
       transform="matrix(0,-1,1,0,0,0)"
       fill="url(#linearGradient3764)"
       fill-opacity="1"
       id="rect36361" />
  </g>
  <g
     id="g36381">
    <g
       clip-path="url(#clipPath-839448807)"
       id="g36379">
      <g
         opacity="0.1"
         id="g36377">
        <!-- color: #697682 -->
        <g
           id="g36375">
          <path
             d="m 15.543 12 l 16.914 0 c 1.957 0 3.543 1.586 3.543 3.543 l 0 16.914 c 0 1.957 -1.586 3.543 -3.543 3.543 l -16.914 0 c -1.957 0 -3.543 -1.586 -3.543 -3.543 l 0 -16.914 c 0 -1.957 1.586 -3.543 3.543 -3.543 m 0 0"
             stroke="none"
             fill-rule="nonzero"
             fill-opacity="1"
             fill="#000"
             id="path36365" />
          <path
             d="m 17 23 l 2 0 c 0.551 0 1 0.445 1 1 l 0 2 c 0 0.551 -0.449 1 -1 1 l -2 0 c -0.551 0 -1 -0.449 -1 -1 l 0 -2 c 0 -0.555 0.449 -1 1 -1 m 0 0"
             stroke="none"
             fill-rule="nonzero"
             fill-opacity="1"
             fill="#000"
             id="path36367" />
          <path
             d="m 23 23 l 2 0 c 0.555 0 1 0.445 1 1 l 0 2 c 0 0.551 -0.445 1 -1 1 l -2 0 c -0.551 0 -1 -0.449 -1 -1 l 0 -2 c 0 -0.555 0.449 -1 1 -1 m 0 0"
             stroke="none"
             fill-rule="nonzero"
             fill-opacity="1"
             fill="#000"
             id="path36369" />
          <path
             d="m 29 23 l 2 0 c 0.551 0 1 0.445 1 1 l 0 2 c 0 0.551 -0.449 1 -1 1 l -2 0 c -0.555 0 -1 -0.449 -1 -1 l 0 -2 c 0 -0.555 0.445 -1 1 -1 m 0 0"
             stroke="none"
             fill-rule="nonzero"
             fill-opacity="1"
             fill="#000"
             id="path36371" />
          <path
             d="m 14.91 29 l 18.18 0 c 0.504 0 0.91 0.445 0.91 0.996 l 0 2 c 0 0.551 -0.406 1 -0.91 1 l -18.18 0 c -0.504 0 -0.91 -0.449 -0.91 -1 l 0 -2 c 0 -0.551 0.406 -0.996 0.91 -0.996 m 0 0"
             stroke="none"
             fill-rule="nonzero"
             fill-opacity="1"
             fill="#000"
             id="path36373" />
        </g>
      </g>
    </g>
  </g>
  <g
     id="g36399">
    <g
       clip-path="url(#clipPath-853665737)"
       id="g36397">
      <g
         transform="translate(0,-1)"
         id="g36395">
        <!-- color: #697682 -->
        <g
           id="g36393">
          <path
             d="m 15.543 12 l 16.914 0 c 1.957 0 3.543 1.586 3.543 3.543 l 0 16.914 c 0 1.957 -1.586 3.543 -3.543 3.543 l -16.914 0 c -1.957 0 -3.543 -1.586 -3.543 -3.543 l 0 -16.914 c 0 -1.957 1.586 -3.543 3.543 -3.543 m 0 0"
             fill="#f9f9f9"
             stroke="none"
             fill-rule="nonzero"
             fill-opacity="1"
             id="path36383" />
          <path
             d="m 17 23 l 2 0 c 0.551 0 1 0.445 1 1 l 0 2 c 0 0.551 -0.449 1 -1 1 l -2 0 c -0.551 0 -1 -0.449 -1 -1 l 0 -2 c 0 -0.555 0.449 -1 1 -1 m 0 0"
             fill="#2d2d2d"
             stroke="none"
             fill-rule="nonzero"
             fill-opacity="1"
             id="path36385" />
          <path
             d="m 23 23 l 2 0 c 0.555 0 1 0.445 1 1 l 0 2 c 0 0.551 -0.445 1 -1 1 l -2 0 c -0.551 0 -1 -0.449 -1 -1 l 0 -2 c 0 -0.555 0.449 -1 1 -1 m 0 0"
             fill="#2d2d2d"
             stroke="none"
             fill-rule="nonzero"
             fill-opacity="1"
             id="path36387" />
          <path
             d="m 29 23 l 2 0 c 0.551 0 1 0.445 1 1 l 0 2 c 0 0.551 -0.449 1 -1 1 l -2 0 c -0.555 0 -1 -0.449 -1 -1 l 0 -2 c 0 -0.555 0.445 -1 1 -1 m 0 0"
             fill="#2d2d2d"
             stroke="none"
             fill-rule="nonzero"
             fill-opacity="1"
             id="path36389" />
          <path
             d="m 14.91 29 l 18.18 0 c 0.504 0 0.91 0.445 0.91 0.996 l 0 2 c 0 0.551 -0.406 1 -0.91 1 l -18.18 0 c -0.504 0 -0.91 -0.449 -0.91 -1 l 0 -2 c 0 -0.551 0.406 -0.996 0.91 -0.996 m 0 0"
             fill="#2d2d2d"
             stroke="none"
             fill-rule="nonzero"
             fill-opacity="1"
             id="path36391" />
        </g>
      </g>
    </g>
  </g>
  <g
     id="g36405">
    <g
       transform="translate(0,-1004.3622)"
       id="g36403">
      <path
         d="m 1 1043.36 0 4 c 0 2.216 1.784 4 4 4 l 38 0 c 2.216 0 4 -1.784 4 -4 l 0 -4 c 0 2.216 -1.784 4 -4 4 l -38 0 c -2.216 0 -4 -1.784 -4 -4 z"
         opacity="0.1"
         id="path36401" />
    </g>
  </g>
</svg>
