<svg version="1.1" viewBox="0 0 48 48" xmlns="http://www.w3.org/2000/svg">
 <defs>
  <linearGradient id="bg" x2="0" y1="1" y2="47" gradientUnits="userSpaceOnUse">
   <stop style="stop-color:#616161" offset="0"/>
   <stop style="stop-color:#575757" offset="1"/>
  </linearGradient>
 </defs>
 <path d="m1 43v.25c0 2.22 1.78 4 4 4h38c2.22 0 4-1.78 4-4v-.25c0 2.22-1.78 4-4 4h-38c-2.22 0-4-1.78-4-4zm0 .5v.5c0 2.22 1.78 4 4 4h38c2.22 0 4-1.78 4-4v-.5c0 2.22-1.78 4-4 4h-38c-2.22 0-4-1.78-4-4z" style="opacity:.02"/>
 <path d="m1 43.2v.25c0 2.22 1.78 4 4 4h38c2.22 0 4-1.78 4-4v-.25c0 2.22-1.78 4-4 4h-38c-2.22 0-4-1.78-4-4z" style="opacity:.05"/>
 <path d="m1 43v.25c0 2.22 1.78 4 4 4h38c2.22 0 4-1.78 4-4v-.25c0 2.22-1.78 4-4 4h-38c-2.22 0-4-1.78-4-4z" style="opacity:.1"/>
 <rect x="1" y="1" width="46" height="46" rx="4" style="fill:url(#bg)"/>
 <path d="m1 39v4c0 2.22 1.78 4 4 4h38c2.22 0 4-1.78 4-4v-4c0 2.22-1.78 4-4 4h-38c-2.22 0-4-1.78-4-4z" style="opacity:.1"/>
 <path d="m16 12-1.75 1.49 3.75 3.01-3.75 2.99 1.75 1.51 5.5-4.5zm13 8-7 .0039v2h7zm-13 6-1.75 1.5 3.75 3-3.75 3 1.75 1.5 5.5-4.5zm6 8v2h7v-2z" style="opacity:.1"/>
 <path d="m16 11-1.75 1.49 3.75 3.01-3.75 2.99 1.75 1.51 5.5-4.5zm13 8-7 .0039v2h7zm-13 6-1.75 1.5 3.75 3-3.75 3 1.75 1.5 5.5-4.5zm6 8v2h7v-2z" style="fill:#fafafa"/>
</svg>
