<svg style="" viewBox="0 0 48 48" xmlns="http://www.w3.org/2000/svg" xmlns:xlink="http://www.w3.org/1999/xlink">
 <defs style="">
  <linearGradient id="linearGradient3764" gradientTransform="translate(-48 .002215)" gradientUnits="userSpaceOnUse" style="" x1="1" x2="47">
   <stop offset="0" style="stop-color:#bd1515"/>
   <stop offset="1" style="stop-color:#cf1717"/>
  </linearGradient>
 </defs>
 <path d="m 1 43 v .25 c 0 2.216 1.784 4 4 4 h 38 c 2.216 0 4 -1.784 4 -4 v -.25 c 0 2.216 -1.784 4 -4 4 h -38 c -2.216 0 -4 -1.784 -4 -4 z m 0 .5 v .5 c 0 2.216 1.784 4 4 4 h 38 c 2.216 0 4 -1.784 4 -4 v -.5 c 0 2.216 -1.784 4 -4 4 h -38 c -2.216 0 -4 -1.784 -4 -4 z" style="opacity:.02"/>
 <path d="m 1 43.25 v .25 c 0 2.216 1.784 4 4 4 h 38 c 2.216 0 4 -1.784 4 -4 v -.25 c 0 2.216 -1.784 4 -4 4 h -38 c -2.216 0 -4 -1.784 -4 -4 z" style="opacity:.05"/>
 <path d="m 1 43 v .25 c 0 2.216 1.784 4 4 4 h 38 c 2.216 0 4 -1.784 4 -4 v -.25 c 0 2.216 -1.784 4 -4 4 h -38 c -2.216 0 -4 -1.784 -4 -4 z" style="opacity:.1"/>
 <rect height="46" rx="4" style="fill:url(#linearGradient3764)" transform="rotate(-90)" width="46" x="-47" y="1"/>
 <g style="opacity:.1">
  <path d="m 28 22 v -1.996 h -6 v 1.996" style=""/>
  <path d="m 15.668 21.332 -1.668 -1.699 3.754 -2.969 -3.754 -2.969 1.668 -1.699 5.633 4.664 -5.633 4.664" style=""/>
  <path d="m 28 36 v -2 h -6 v 2" style=""/>
  <path d="m 15.668 35.32 -1.668 -1.699 3.754 -2.969 -3.754 -2.969 1.668 -1.695 5.633 4.66 -5.633 4.664" style=""/>
 </g>
 <g style="fill:#fff">
  <path d="m 28 21 v -1.996 h -6 v 1.996" style=""/>
  <path d="m 15.668 20.332 -1.668 -1.699 3.754 -2.969 -3.754 -2.969 1.668 -1.699 5.633 4.664 -5.633 4.664" style=""/>
  <path d="m 28 35 v -2 h -6 v 2" style=""/>
  <path d="m 15.668 34.32 -1.668 -1.699 3.754 -2.969 -3.754 -2.969 1.668 -1.695 5.633 4.66 -5.633 4.664" style=""/>
 </g>
 <path d="m 1 39 v 4 c 0 2.216 1.784 4 4 4 h 38 c 2.216 0 4 -1.784 4 -4 v -4 c 0 2.216 -1.784 4 -4 4 h -38 c -2.216 0 -4 -1.784 -4 -4 z" style="opacity:.1"/>
</svg>
