<svg id="svg36476" version="1.1" viewBox="0 0 48 48" xmlns="http://www.w3.org/2000/svg">
 <defs id="defs36428">
  <linearGradient id="linearGradient3764" x1="1" x2="47" gradientTransform="translate(-48 .0022147)" gradientUnits="userSpaceOnUse">
   <stop id="stop36413" stop-color="#477c40" offset="0"/>
   <stop id="stop36415" stop-color="#4f8947" offset="1"/>
  </linearGradient>
  <clipPath id="clipPath-251087059">
   <g id="g36420" transform="translate(0 -1004.4)">
    <rect id="rect36418" x="1" y="1005.4" width="46" height="46" rx="4" fill="#1890d0"/>
   </g>
  </clipPath>
  <clipPath id="clipPath-263855894">
   <g id="g36425" transform="translate(0 -1004.4)">
    <rect id="rect36423" x="1" y="1005.4" width="46" height="46" rx="4" fill="#1890d0"/>
   </g>
  </clipPath>
 </defs>
 <g id="g36436">
  <path id="path36430" d="m1 43v0.25c0 2.216 1.784 4 4 4h38c2.216 0 4-1.784 4-4v-0.25c0 2.216-1.784 4-4 4h-38c-2.216 0-4-1.784-4-4zm0 0.5v0.5c0 2.216 1.784 4 4 4h38c2.216 0 4-1.784 4-4v-0.5c0 2.216-1.784 4-4 4h-38c-2.216 0-4-1.784-4-4z" opacity=".02"/>
  <path id="path36432" d="m1 43.25v0.25c0 2.216 1.784 4 4 4h38c2.216 0 4-1.784 4-4v-0.25c0 2.216-1.784 4-4 4h-38c-2.216 0-4-1.784-4-4z" opacity=".05"/>
  <path id="path36434" d="m1 43v0.25c0 2.216 1.784 4 4 4h38c2.216 0 4-1.784 4-4v-0.25c0 2.216-1.784 4-4 4h-38c-2.216 0-4-1.784-4-4z" opacity=".1"/>
 </g>
 <g id="g36440">
  <rect id="rect36438" transform="rotate(-90)" x="-47" y="1" width="46" height="46" rx="4" fill="url(#linearGradient3764)"/>
 </g>
 <g id="g36454">
  <g id="g36452" clip-path="url(#clipPath-251087059)">
   <g id="g36450" opacity=".1">
    <g id="g36448">
     <path id="path36442" d="m14 24h5v-13h9v13h5.996l-10.496 13" fill-opacity=".302"/>
     <path id="path36444" d="m36 34v-4h-12v4"/>
     <path id="path36446" d="m14.742 30-2.742-2.906 6.172-5.094-6.172-5.09 2.742-2.91 9.262 8"/>
    </g>
   </g>
  </g>
 </g>
 <g id="g36468">
  <g id="g36466" clip-path="url(#clipPath-263855894)">
   <g id="g36464" transform="translate(0,-1)">
    <g id="g36462">
     <path id="path36456" d="m14 24h5v-13h9v13h5.996l-10.496 13" fill="#fff" fill-opacity=".302"/>
     <path id="path36458" d="m36 34v-4h-12v4" fill="#fff4b1"/>
     <path id="path36460" d="m14.742 30-2.742-2.906 6.172-5.094-6.172-5.09 2.742-2.91 9.262 8" fill="#fff4b1"/>
    </g>
   </g>
  </g>
 </g>
 <g id="g36474">
  <g id="g36472" transform="translate(0 -1004.4)">
   <path id="path36470" d="m1 1043.4v4c0 2.216 1.784 4 4 4h38c2.216 0 4-1.784 4-4v-4c0 2.216-1.784 4-4 4h-38c-2.216 0-4-1.784-4-4z" opacity=".1"/>
  </g>
 </g>
</svg>
