<svg style="" version="1.1" viewBox="0 0 48 48" xmlns="http://www.w3.org/2000/svg">
 <defs style="">
  <linearGradient id="bg" x1="1" x2="47" style="" gradientTransform="translate(-48 .002215)" gradientUnits="userSpaceOnUse">
   <stop style="stop-color:#e8e8e8" offset="0"/>
   <stop style="stop-color:#f2f2f2" offset="1"/>
  </linearGradient>
 </defs>
 <path d="m1 43v0.25c0 2.216 1.784 4 4 4h38c2.216 0 4-1.784 4-4v-0.25c0 2.216-1.784 4-4 4h-38c-2.216 0-4-1.784-4-4zm0 0.5v0.5c0 2.216 1.784 4 4 4h38c2.216 0 4-1.784 4-4v-0.5c0 2.216-1.784 4-4 4h-38c-2.216 0-4-1.784-4-4z" style="opacity:.02"/>
 <path d="m1 43.25v0.25c0 2.216 1.784 4 4 4h38c2.216 0 4-1.784 4-4v-0.25c0 2.216-1.784 4-4 4h-38c-2.216 0-4-1.784-4-4z" style="opacity:.05"/>
 <path d="m1 43v0.25c0 2.216 1.784 4 4 4h38c2.216 0 4-1.784 4-4v-0.25c0 2.216-1.784 4-4 4h-38c-2.216 0-4-1.784-4-4z" style="opacity:.1"/>
 <rect transform="rotate(-90)" x="-47" y="1" width="46" height="46" rx="4" style="fill:url(#bg)"/>
 <path d="m1 39v4c0 2.216 1.784 4 4 4h38c2.216 0 4-1.784 4-4v-4c0 2.216-1.784 4-4 4h-38c-2.216 0-4-1.784-4-4z" style="opacity:.1"/>
 <path d="m14.5 12-1.5 8h2c1-5 1-6 2-6h5c1 0 1 0 1 1v11h-5.0352l-3.9648 2 3.9648 2s3.382-0.0014 5.0352-2e-3v2.002c0 1.996 0.035 1.9961-3 1.9961-1 0.0039-2 0.0039-3 2.0039h14c-1-2-2-2-2.9961-2.0039-2.992-0.01202-3-9.4e-5 -3-1.9961v-2.002c3.3694-0.0011 5.6226-2e-3 8.4258-2e-3 0 4.1e-5 0.57031-0.32405 0.57031-1.996 0-1.613-0.63281-2-0.63281-2h-8.3633v-11c0-0.781 0-1 1-1h4.9961c0.99609 0 0.99991 1 2.0039 6h1.9961l-1.5-8z" style="opacity:.1"/>
 <path d="m17.965 25-3.9648 2 3.9648 2s10.32-0.0039 15.465-0.0039c0-6e-6 0.57031-0.3241 0.57031-1.9961 0-1.613-0.63281-2-0.63281-2z" style="fill:#383838"/>
 <path d="m14.5 11-1.5 8h2c1-5 1-6 2-6h5c1 0 1 0 1 1v17c0 1.996 0.035 1.9961-3 1.9961-1 0.0039-2 0.0039-3 2.0039h14c-1-2-2-2-2.9961-2.0039-2.992-0.01202-3-9.4e-5 -3-1.9961v-17c0-0.781 0-1 1-1h4.9961c0.99609 0 1 1 2.004 6h1.996l-1.5-8z" style="fill:#3686dd"/>
</svg>
