<svg style="" version="1.1" viewBox="0 0 48 48" xmlns="http://www.w3.org/2000/svg">
 <defs style="">
  <linearGradient id="bg" x1="1" x2="47" style="" gradientTransform="translate(-48 .002215)" gradientUnits="userSpaceOnUse">
   <stop style="stop-color:#e8e8e8" offset="0"/>
   <stop style="stop-color:#f2f2f2" offset="1"/>
  </linearGradient>
 </defs>
 <path d="m1 43v0.25c0 2.216 1.784 4 4 4h38c2.216 0 4-1.784 4-4v-0.25c0 2.216-1.784 4-4 4h-38c-2.216 0-4-1.784-4-4zm0 0.5v0.5c0 2.216 1.784 4 4 4h38c2.216 0 4-1.784 4-4v-0.5c0 2.216-1.784 4-4 4h-38c-2.216 0-4-1.784-4-4z" style="opacity:.02"/>
 <path d="m1 43.25v0.25c0 2.216 1.784 4 4 4h38c2.216 0 4-1.784 4-4v-0.25c0 2.216-1.784 4-4 4h-38c-2.216 0-4-1.784-4-4z" style="opacity:.05"/>
 <path d="m1 43v0.25c0 2.216 1.784 4 4 4h38c2.216 0 4-1.784 4-4v-0.25c0 2.216-1.784 4-4 4h-38c-2.216 0-4-1.784-4-4z" style="opacity:.1"/>
 <rect transform="rotate(-90)" x="-47" y="1" width="46" height="46" rx="4" style="fill:url(#bg)"/>
 <g style="opacity:.1">
  <path d="m14.004 12-1 8h2c0.461-5.844-1-6 5-6h1.9961c1 0 1 0 1 1v11h-5.0352v0.01758l-3.9648 1.9785 3.9648 1.9785v0.02148h5.0352v2.0039c0 1.996 0.035 1.9961-3 1.9961h-2v2h12v-2h-1.9961c-2.992 0-3-9.4e-5 -3-1.9961v-2.0039h8.4258s0.5625-0.32409 0.5625-1.9961c0-1.613-0.625-2-0.625-2h-8.3633v-11c0-0.781 0-1 1-1h2c5.996 0 4.648 0.199 5 6h1.9961l-1-8z"/>
 </g>
 <path d="m17.965 25v0.01758l-3.9648 1.9785 3.9648 1.9785v0.02148h15.465s0.5625-0.32409 0.5625-1.9961c0-1.613-0.625-2-0.625-2h-15.402z" style="fill:#2d2d2d"/>
 <path d="m34 11h-19.996l-1 8h2c0.461-5.844-1-6 5-6h1.996c1 0 1 0 1 1v17c0 1.996 0.035 1.996-3 1.996h-2v2h12v-2h-1.996c-2.992 0-3 0-3-1.996v-17c0-0.781 0-1 1-1h2c5.996 0 4.648 0.199 5 6h1.996" style="fill:#3686dd"/>
 <path d="m1 39v4c0 2.216 1.784 4 4 4h38c2.216 0 4-1.784 4-4v-4c0 2.216-1.784 4-4 4h-38c-2.216 0-4-1.784-4-4z" style="opacity:.1"/>
</svg>
