<svg xmlns="http://www.w3.org/2000/svg" version="1.1" viewBox="0 0 48 48">
	<defs>
		<linearGradient id="bg" gradientUnits="userSpaceOnUse" x1="0" x2="0" y1="1" y2="47">
			<stop offset="0" stop-color="#3d3d3d"/>
			<stop offset="1" stop-color="#333333"/>
		</linearGradient>
	</defs>
	<path opacity=".02" d="m1 43v0.25c0 2.216 1.784 4 4 4h38c2.216 0 4-1.784 4-4v-0.25c0 2.216-1.784 4-4 4h-38c-2.216 0-4-1.784-4-4zm0 0.5v0.5c0 2.216 1.784 4 4 4h38c2.216 0 4-1.784 4-4v-0.5c0 2.216-1.784 4-4 4h-38c-2.216 0-4-1.784-4-4z"/>
	<path opacity=".05" d="m1 43.25v0.25c0 2.216 1.784 4 4 4h38c2.216 0 4-1.784 4-4v-0.25c0 2.216-1.784 4-4 4h-38c-2.216 0-4-1.784-4-4z"/>
	<path opacity=".1" d="m1 43v0.25c0 2.216 1.784 4 4 4h38c2.216 0 4-1.784 4-4v-0.25c0 2.216-1.784 4-4 4h-38c-2.216 0-4-1.784-4-4z"/>
	<rect fill="url(#bg)" rx="4" height="46" width="46" y="1" x="1"/>
	<path opacity=".1" d="m1 39v4c0 2.216 1.784 4 4 4h38c2.216 0 4-1.784 4-4v-4c0 2.216-1.784 4-4 4h-38c-2.216 0-4-1.784-4-4z"/>
	<g transform="translate(0 -1)">
		<g fill="#eee">
			<path d="M 24,10 A 9,9,0,0,0,24,28 9,9,0,0,0,24,10 Z"/>
			<path d="M 19,26 L 15,36 24,39 33,36 29,26 Z"/>
		</g>
		<g fill="url(#bg)">
			<!-- eyes -->
			<path d="M 23,21 a 2,2,0,0,0,-2,-2 h -1 a 2,2,0,0,0,0,4 3,2,0,0,0,3,-2 z" />
			<path d="M 25,21 a 2,2,0,0,1,2,-2 h 1 a 2,2,0,0,1,0,4 3,2,0,0,1,-3,-2 z" />
			<!-- mouth -->
			<path d="M 20,27 L 17,35 24,37 31,35 28,27 24,28 Z"/>
		</g>
		<!-- teeth -->
		<g fill="#eee">
			<path d="M 23.5,26 23,37 25,37 24.5,26 Z"/>
			<path d="M 21.5,26 19,36 20.5,37 22.5,26 Z"/>
			<path d="M 26.5,26 29,36 27.5,37 25.5,26 Z"/>
		</g>
		<!-- nose -->
		<path fill="url(#bg)" d="M 24,22 L 23,23 22,26 24,26.5 26,26 25,23 Z" />
	</g>
</svg>
