<svg version="1.1" viewBox="0 0 48 48" xmlns="http://www.w3.org/2000/svg">
 <defs>
  <linearGradient id="linearGradient4501" x1="-47" x2="-1" y1="0" y2="0" gradientUnits="userSpaceOnUse">
   <stop style="stop-color:#504f76" offset="0"/>
   <stop style="stop-color:#595883" offset="1"/>
  </linearGradient>
 </defs>
 <path d="m1 43v0.25c0 2.22 1.78 4 4 4h38c2.22 0 4-1.78 4-4v-0.25c0 2.22-1.78 4-4 4h-38c-2.22 0-4-1.78-4-4zm0 0.5v0.5c0 2.22 1.78 4 4 4h38c2.22 0 4-1.78 4-4v-0.5c0 2.22-1.78 4-4 4h-38c-2.22 0-4-1.78-4-4z" style="opacity:.02"/>
 <path d="m1 43.3v0.25c0 2.22 1.78 4 4 4h38c2.22 0 4-1.78 4-4v-0.25c0 2.22-1.78 4-4 4h-38c-2.22 0-4-1.78-4-4z" style="opacity:.05"/>
 <path d="m1 43v0.25c0 2.22 1.78 4 4 4h38c2.22 0 4-1.78 4-4v-0.25c0 2.22-1.78 4-4 4h-38c-2.22 0-4-1.78-4-4z" style="opacity:.1"/>
 <rect transform="rotate(-90)" x="-47" y="1" width="46" height="46" rx="4" style="fill:url(#linearGradient4501)"/>
 <path d="m1 39v4c0 2.22 1.78 4 4 4h38c2.22 0 4-1.78 4-4v-4c0 2.22-1.78 4-4 4h-38c-2.22 0-4-1.78-4-4z" style="opacity:.1"/>
 <path d="m34.2 24c-1 7-2 12-10 12s-9-5-10-12c-1-7 1-11 10-11s11 4 10 11z" style="opacity:.1;stroke-width:1.28"/>
 <path d="m34.2 23c-1 7-2 12-10 12s-9-5-10-12c-1-7 1-11 10-11s11 4 10 11z" style="fill:#8c8c8c;stroke-width:1.28"/>
 <path d="m24.2 12c-9 0-11 4-10 11 0.736 5.16 2 10 5 11s-1-17 10-21c1.33-0.483-2.57-1-5-1z" style="fill:#ccc"/>
 <path d="m14.2 18c0-1 20-1 20 0 0 4.01-0.834 9.47-1.59 12.1-0.827 2.9-15.9 2.79-16.9-0.084-0.968-3.02-1.55-7.98-1.55-12" style="fill:#87aade"/>
 <path d="m34.2 18s-18-2-20 0c0 11 1.81 12.5 1.81 12.5s1.77-6.44 4.19-8.45c3.73-3.11 14-4 14-4z" style="fill:#d5f6ff"/>
 <path d="m16.2 31s10 3 16 0c2-4 2-13 2-13s-0.971 8.54-4 11c-3.66 2.97-14 2-14 2z" style="fill:#3771c8"/>
</svg>
