<svg version="1.1" viewBox="0 0 48 48" xmlns="http://www.w3.org/2000/svg">
 <defs>
  <linearGradient id="bg" x2="0" y1="1" y2="47" gradientUnits="userSpaceOnUse">
   <stop style="stop-color:#664838" offset="0"/>
   <stop style="stop-color:#5a4030" offset="1"/>
  </linearGradient>
 </defs>
 <path d="m1 43v0.25c0 2.216 1.784 4 4 4h38c2.216 0 4-1.784 4-4v-0.25c0 2.216-1.784 4-4 4h-38c-2.216 0-4-1.784-4-4zm0 0.5v0.5c0 2.216 1.784 4 4 4h38c2.216 0 4-1.784 4-4v-0.5c0 2.216-1.784 4-4 4h-38c-2.216 0-4-1.784-4-4z" style="opacity:.02"/>
 <path d="m1 43.25v0.25c0 2.216 1.784 4 4 4h38c2.216 0 4-1.784 4-4v-0.25c0 2.216-1.784 4-4 4h-38c-2.216 0-4-1.784-4-4z" style="opacity:.05"/>
 <path d="m1 43v0.25c0 2.216 1.784 4 4 4h38c2.216 0 4-1.784 4-4v-0.25c0 2.216-1.784 4-4 4h-38c-2.216 0-4-1.784-4-4z" style="opacity:.1"/>
 <rect x="1" y="1" width="46" height="46" rx="4" style="fill:url(#bg)"/>
 <path d="m1 39v4c0 2.216 1.784 4 4 4h38c2.216 0 4-1.784 4-4v-4c0 2.216-1.784 4-4 4h-38c-2.216 0-4-1.784-4-4z" style="opacity:.1"/>
 <path d="m21.084 9.252-1.9316 0.51758 0.53125 1.9844c-0.43962 0.15511-0.87059 0.33376-1.291 0.53516l-1.0273-1.7793-1.7305 1 1.0195 1.7656c-0.38491 0.26501-0.75522 0.55058-1.1094 0.85547l-1.4453-1.4453-1.4141 1.4141 1.4531 1.4531c-0.3035 0.3536-0.58776 0.72329-0.85156 1.1074l-1.7773-1.0254-1 1.7305 1.7754 1.0254c-0.20081 0.42112-0.3788 0.85271-0.5332 1.293l-1.9824-0.53125-0.51758 1.9316 1.9785 0.5293c-0.08735 0.45853-0.14994 0.92146-0.1875 1.3867h-2.043v2h2.0488c0.03562 0.46516 0.09626 0.92808 0.18164 1.3867l-1.9785 0.5293 0.51758 1.9316 1.9844-0.53125c0.15511 0.43962 0.33376 0.87059 0.53516 1.291l-1.7793 1.0273 1 1.7305 1.7656-1.0195c0.26501 0.38491 0.55058 0.75522 0.85547 1.1094l-1.4453 1.4453 1.4141 1.4141 1.4531-1.4531c0.3536 0.3035 0.72329 0.58776 1.1074 0.85156l-1.0254 1.7773 1.7305 1 1.0254-1.7754c0.42112 0.20081 0.85271 0.3788 1.293 0.5332l-0.53125 1.9824 1.9316 0.51758 0.5293-1.9785c0.45853 0.08735 0.92146 0.14994 1.3867 0.1875v2.043h2v-2.0488c0.46516-0.03562 0.92808-0.09626 1.3867-0.18164l0.5293 1.9785 1.9316-0.51758-0.53125-1.9844c0.43962-0.15511 0.87059-0.33376 1.291-0.53516l1.0273 1.7793 1.7305-1-1.0195-1.7656c0.38491-0.26501 0.75522-0.55058 1.1094-0.85547l1.4453 1.4453 1.4141-1.4141-1.4531-1.4531c0.3035-0.3536 0.58776-0.72329 0.85156-1.1074l1.7773 1.0254 1-1.7305-1.7754-1.0254c0.20081-0.42112 0.3788-0.85271 0.5332-1.293l1.9824 0.53125 0.51758-1.9316-1.9785-0.5293c0.08735-0.45853 0.14994-0.92146 0.1875-1.3867h2.043v-2h-2.0488c-0.03562-0.46516-0.09626-0.92808-0.18164-1.3867l1.9785-0.5293-0.51758-1.9316-1.9844 0.53125c-0.15511-0.43962-0.33376-0.87059-0.53516-1.291l1.7793-1.0273-1-1.7305-1.7656 1.0195c-0.26501-0.38491-0.55058-0.75522-0.85547-1.1094l1.4453-1.4453-1.4141-1.4141-1.4531 1.4531c-0.3536-0.3035-0.72329-0.58776-1.1074-0.85156l1.0254-1.7773-1.7305-1-1.0254 1.7754c-0.42112-0.20081-0.85271-0.3788-1.293-0.5332l0.53125-1.9824-1.9316-0.51758-0.5293 1.9785h-4.7734zm2.916 3.748c0.03191 0.0012 0.06381 0.0025 0.0957 0.0039l-0.81055 1.4043-1.6855-0.97461c0.06261-0.0701 0.12912-0.13661 0.19922-0.19922 0.72399-0.15193 1.4615-0.23046 2.2012-0.23437zm1.125 0.2207c0.36766 0.32426 0.63187 0.74942 0.75977 1.2227 0.12552 0.47341 0.10922 0.97327-0.04687 1.4375l-1.6855-0.97266zm2.623 0.45312c4.3474 1.5756 7.2454 5.7021 7.252 10.326-0.0023 0.66975-0.06566 1.3379-0.18945 1.9961l-0.42774-0.41797 0.5332-0.92383-0.86719-0.5-0.53125 0.92188c-0.17989-0.04923-0.36624-0.07258-0.55273-0.07031l-0.27539-1.0293-0.9668 0.25781 0.27734 1.0312c-0.16211 0.09171-0.31081 0.2051-0.44141 0.33789l-0.92383-0.5332-0.5 0.86524 0.92188 0.5332c-0.04923 0.17989-0.07258 0.36429-0.07031 0.55078l-1.0312 0.27734 0.25977 0.96484 1.0293-0.27539c0.09171 0.16211 0.20509 0.31081 0.33789 0.44141l-0.5332 0.92383 0.86719 0.5 0.53125-0.92187c0.17989 0.04923 0.36624 0.072582 0.55273 0.070312l0.25 0.93164-0.60352 0.75195-0.5-0.86719-0.90039 0.51953c-0.1696-0.21749-0.36431-0.41416-0.58008-0.58594l0.51758-0.89648-0.86719-0.5-0.51953 0.89844c-0.25631-0.10212-0.52378-0.17358-0.79688-0.21289v-1.0391h-1v1.041c-0.27301 0.03868-0.54048 0.10948-0.79688 0.21094l-0.16797-0.50976 0.70703-0.70703-0.72656-0.72656c0.15783-0.2006 0.29831-0.41426 0.41992-0.63867l0.95508 0.39648 0.38281-0.92383-0.95313-0.39453c0.069901-0.24476 0.1189-0.49501 0.14648-0.74805h1.0332v-1c-6e-5 -1e-5 -1.1797-0.74805-1.1797-0.74805l0.95313-0.39453-0.38281-0.92383-0.95117 0.39453c-0.12438-0.22268-0.26748-0.43438-0.42773-0.63281l0.73047-0.73047-0.70703-0.70703-0.72656 0.72656c-0.2006-0.15783-0.41426-0.29831-0.63867-0.41992l0.39648-0.95508-0.92383-0.38281-0.29492-0.92383c0.2536-0.10809 0.49354-0.24577 0.71484-0.41016l0.73438 0.73438 0.70898-0.70898-0.73633-0.73438c0.16631-0.22039 0.30595-0.45968 0.41602-0.71289l1 0.26953 0.25976-0.96875-1.0039-0.26758c0.03262-0.27442 0.03262-0.55175 0-0.82617l1.0039-0.26758zm-8.6914 0.50195-0.0625 0.23438 1.002 0.26953c-0.03246 0.27378-0.03246 0.55044 0 0.82422l-1.0039 0.26953 0.25976 0.96484 1.0059-0.26953c0.10809 0.2536 0.24576 0.49354 0.41016 0.71484l-0.73438 0.73438 0.70703 0.70898 0.73633-0.73438c0.21978 0.16617 0.45841 0.30581 0.71094 0.41602l-0.24805 0.92578-0.90625 0.375 0.39453 0.95117c-0.22268 0.12438-0.43438 0.26748-0.63281 0.42773l-0.73047-0.73047-0.70703 0.70703 0.72656 0.72656c-0.15783 0.2006-0.29831 0.41426-0.41992 0.63867l-0.95508-0.39648-0.38281 0.92383 0.95313 0.39453s-1.1797 0.74799-1.1797 0.74805v1h1.0312c0.02822 0.2531 0.07788 0.50335 0.14844 0.74805l-0.95313 0.39453 0.38281 0.92383 0.95117-0.39453c0.12438 0.22268 0.26748 0.43438 0.42773 0.63281l-0.73047 0.73047 0.70703 0.70703 0.72656-0.72656c0.2006 0.15783 0.41426 0.29831 0.63867 0.41992l-0.39648 0.95508 0.92383 0.38281 0.39453-0.95313c0.24476 0.0699 0.49501 0.1189 0.74805 0.14648v1.0332h1v-1.0312c0.2531-0.02822 0.50335-0.07788 0.74805-0.14844l0.39453 0.95313 0.92383-0.38281 0.26953 0.36328c-0.21749 0.1696-0.41416 0.36431-0.58594 0.58008l-0.89648-0.51758-0.5 0.86719 0.89844 0.51953c-0.10212 0.25631-0.17358 0.52378-0.21289 0.79688h-1.0391v1h1.041c0.03868 0.27301 0.10948 0.54048 0.21094 0.79688l-0.89844 0.51953-0.35352 0.68359c-6.0751 0-11-4.9249-11-11 9.21e-4 -4.1559 2.344-7.9565 6.0566-9.8242zm2.043 0.125 1.6855 0.97266-0.97266 1.6875c-0.36694-0.32452-0.63045-0.74965-0.75781-1.2227-0.12615-0.47322-0.11053-0.97308 0.04492-1.4375zm2.5527 1.4727 1.6855 0.97461c-0.32452 0.36694-0.74965 0.63045-1.2227 0.75781-0.47322 0.12615-0.97308 0.11053-1.4375-0.04492zm-0.65234 5.2656v2.9609h-2.959c0.0409-0.29386 0.119-0.58132 0.23242-0.85547 0.0013-0.0046 0.0026-0.0091 0.0039-0.01367 0.18292-0.42941 0.44987-0.81788 0.78516-1.1426 0.52976-0.51254 1.2078-0.84473 1.9375-0.94922zm1 2e-3c0.29386 0.0409 0.58132 0.119 0.85547 0.23242 0.0026 6.64e-4 0.0052 0.0013 0.0078 2e-3l0.0059 2e-3c0.4294 0.18287 0.81786 0.44992 1.1426 0.78516 0.51254 0.52976 0.84473 1.2078 0.94922 1.9375h-2.961zm-3.9609 3.9589h2.9609v2.959c-0.29386-0.0409-0.58132-0.119-0.85547-0.23242-0.0046-0.0013-0.0091-0.0026-0.01367-0.0039-0.42941-0.18293-0.81788-0.44987-1.1426-0.78516-0.51254-0.52976-0.84473-1.2078-0.94922-1.9375zm3.9609 0h2.959c-0.0409 0.29386-0.119 0.58132-0.23242 0.85547-6.64e-4 0.0026-0.0013 0.0052-2e-3 0.0078l-2e-3 0.0059c-0.18289 0.4294-0.44991 0.81787-0.78516 1.1426-0.52976 0.51254-1.2078 0.84473-1.9375 0.94922zm9 1c0.55228 0 1 0.44772 1 1s-0.44772 1-1 1-1-0.44772-1-1 0.44772-1 1-1zm-6.6953 2.0117 0.35547 0.35547-0.82226 0.47461-0.16602-0.40234c0.22268-0.12438 0.43438-0.26748 0.63281-0.42773zm2.1953 1.9883c0.48984 7.75e-4 0.96862 0.14544 1.377 0.41602l-1.377 1.377-1.377-1.377c0.40833-0.27058 0.88711-0.41524 1.377-0.41602zm-2.084 1.123 1.377 1.377-1.377 1.377c-0.27058-0.40833-0.41524-0.88711-0.41602-1.377 7.75e-4 -0.48984 0.14544-0.96862 0.41602-1.377zm4.168 0c0.26552 0.40186 0.40931 0.87189 0.41406 1.3535-0.33219 0.27746-0.68043 0.53506-1.043 0.77148l-0.74805-0.74805z" style="fill-opacity:.95686;opacity:.1"/>
 <path d="m23 18v1.0312a4.5 4.5 0 0 0-0.74805 0.14844l-0.39453-0.95313-0.92383 0.38281 0.39453 0.95117a4.5 4.5 0 0 0-0.63281 0.42773l-0.73047-0.73047-0.70703 0.70703 0.72656 0.72656a4.5 4.5 0 0 0-0.41992 0.63867l-0.95508-0.39648-0.38281 0.92383 0.95313 0.39453a4.5 4.5 0 0 0-0.14648 0.74805h-1.0332v1h1.0312a4.5 4.5 0 0 0 0.14844 0.74805l-0.95313 0.39453 0.38281 0.92383 0.95117-0.39453a4.5 4.5 0 0 0 0.42773 0.63281l-0.73047 0.73047 0.70703 0.70703 0.72656-0.72656a4.5 4.5 0 0 0 0.63867 0.41992l-0.39648 0.95508 0.92383 0.38281 0.39453-0.95313a4.5 4.5 0 0 0 0.74805 0.14648v1.0332h1v-1.0312a4.5 4.5 0 0 0 0.74805-0.14844l0.39453 0.95313 0.92383-0.38281-0.39453-0.95117a4.5 4.5 0 0 0 0.63281-0.42773l0.73047 0.73047 0.70703-0.70703-0.72656-0.72656a4.5 4.5 0 0 0 0.41992-0.63867l0.95508 0.39648 0.38281-0.92383-0.95313-0.39453a4.5 4.5 0 0 0 0.14648-0.74805h1.0332v-1h-1.0312a4.5 4.5 0 0 0-0.14844-0.74805l0.95313-0.39453-0.38281-0.92383-0.95117 0.39453a4.5 4.5 0 0 0-0.42773-0.63281l0.73047-0.73047-0.70703-0.70703-0.72656 0.72656a4.5 4.5 0 0 0-0.63867-0.41992l0.39648-0.95508-0.92383-0.38281-0.39453 0.95313a4.5 4.5 0 0 0-0.74805-0.14648v-1.0332zm0 2.0391v2.9609h-2.959a3.5 3.5 0 0 1 0.23242-0.85547 3.5 3.5 0 0 1 0.0039-0.01367 3.5 3.5 0 0 1 0.78516-1.1426 3.5 3.5 0 0 1 1.9375-0.94922zm1 2e-3a3.5 3.5 0 0 1 0.85547 0.23242 3.5 3.5 0 0 1 0.0078 2e-3l0.0059 2e-3a3.5 3.5 0 0 1 1.1426 0.78502 3.5 3.5 0 0 1 0.94922 1.9375h-2.9609zm-3.9609 3.9589h2.9609v2.959a3.5 3.5 0 0 1-0.85547-0.23242 3.5 3.5 0 0 1-0.01367-0.0039 3.5 3.5 0 0 1-1.1426-0.78516 3.5 3.5 0 0 1-0.94922-1.9375zm3.9609 0h2.959a3.5 3.5 0 0 1-0.23242 0.85547 3.5 3.5 0 0 1-2e-3 0.0078l-2e-3 0.0059a3.5 3.5 0 0 1-0.78506 1.1426 3.5 3.5 0 0 1-1.9375 0.94922z" style="fill:#bf844e"/>
 <path d="m28 27v1.041a3.5 3.5 0 0 0-0.79688 0.21094l-0.51953-0.89844-0.86719 0.5 0.51953 0.90039a3.5 3.5 0 0 0-0.58594 0.58008l-0.89648-0.51758-0.5 0.86719 0.89844 0.51953a3.5 3.5 0 0 0-0.21289 0.79688h-1.0391v1h1.041a3.5 3.5 0 0 0 0.21094 0.79688l-0.89844 0.51953 0.5 0.86719 0.90039-0.51953a3.5 3.5 0 0 0 0.58008 0.58594l-0.33594 0.58203a12 12 0 0 0 2.8145-0.85547 2.5 2.5 0 0 1-0.3125 0.02344 2.5 2.5 0 0 1-1.377-0.41602l1.377-1.377 1.2891 1.2891a12 12 0 0 0 3.1387-2.4961h-0.96875a3.5 3.5 0 0 0-0.21094-0.79688l0.89844-0.51953-0.5-0.86719-0.90039 0.51953a3.5 3.5 0 0 0-0.58008-0.58594l0.51758-0.89648-0.86719-0.5-0.51953 0.89844a3.5 3.5 0 0 0-0.79688-0.21289v-1.0391zm0.5 2a2.5 2.5 0 0 1 1.377 0.41602l-1.377 1.377-1.377-1.377a2.5 2.5 0 0 1 1.377-0.41602zm-2.084 1.123 1.377 1.377-1.377 1.377a2.5 2.5 0 0 1-0.41602-1.377 2.5 2.5 0 0 1 0.41602-1.377zm4.168 0a2.5 2.5 0 0 1 0.41602 1.377 2.5 2.5 0 0 1-0.41602 1.377l-1.377-1.377z" style="fill:#bf844e"/>
 <path d="m32.689 22.977-0.9668 0.25781 0.27734 1.0312c-0.16211 0.09171-0.31081 0.2051-0.44141 0.33789l-0.92383-0.5332-0.5 0.86524 0.92188 0.5332c-0.04923 0.17989-0.07258 0.36429-0.07031 0.55078l-1.0312 0.27734 0.25977 0.96484 1.0293-0.27539c0.09171 0.16211 0.20509 0.31081 0.33789 0.44141l-0.5332 0.92383 0.86719 0.5 0.53125-0.92187c0.17989 0.04923 0.36624 0.07259 0.55273 0.07031l0.27539 1.0293 0.9668-0.25781-0.27539-1.0312c0.16211-0.09171 0.30886-0.20509 0.43945-0.33789l0.92383 0.5332 0.5-0.86524-0.92188-0.5332c0.04923-0.17989 0.07454-0.36429 0.07227-0.55078l1.0293-0.27734-0.25977-0.96484-1.0293 0.27539c-0.09171-0.16211-0.2051-0.31081-0.33789-0.44141l0.5332-0.92383-0.86719-0.5-0.53125 0.92188c-0.17989-0.04923-0.36624-0.07258-0.55273-0.07031zm0.31055 2.0234a1 1 0 0 1 1 1 1 1 0 0 1-1 1 1 1 0 0 1-1-1 1 1 0 0 1 1-1z" style="fill:#bf844e"/>
 <path d="m24 11a12 12 0 0 0-3.7227 0.60742l0.39062 0.39062a3.5 3.5 0 0 0-0.41602 0.71289l-1-0.26758-0.25781 0.9668 1.002 0.26953a3.5 3.5 0 0 0 0 0.82422l-1.0039 0.26953 0.25976 0.96484 1.0059-0.26953a3.5 3.5 0 0 0 0.41016 0.71484l-0.73438 0.73438 0.70703 0.70898 0.73633-0.73438a3.5 3.5 0 0 0 0.71094 0.41602l-0.26758 1 0.9668 0.25781 0.26953-1.002a3.5 3.5 0 0 0 0.82617-2e-3l0.26758 1.0039 0.9668-0.25781-0.26953-1.0059a3.5 3.5 0 0 0 0.71484-0.41011l0.73438 0.73438 0.70898-0.70898-0.73633-0.73438a3.5 3.5 0 0 0 0.41602-0.71289l1 0.26953 0.25976-0.96875-1.0039-0.26758a3.5 3.5 0 0 0 0-0.82617l1.0039-0.26758-0.25976-0.9668-1.0039 0.26953a3.5 3.5 0 0 0-0.41016-0.71484l0.62695-0.62891a12 12 0 0 0-1.1855-0.23242l-0.15234 0.15234a3.5 3.5 0 0 0-0.34375-0.22656 12 12 0 0 0-1.2168-0.0625zm-0.43555 0.59375a2.5 2.5 0 0 1 0.69531 0.12695l-0.97461 1.6875-1.6855-0.97461a2.5 2.5 0 0 1 1.2227-0.75781 2.5 2.5 0 0 1 0.74219-0.08203zm1.5605 0.62695a2.5 2.5 0 0 1 0.75977 1.2227 2.5 2.5 0 0 1-0.04687 1.4375l-1.6855-0.97266zm-4.0254 1.0801 1.6855 0.97266-0.97266 1.6875a2.5 2.5 0 0 1-0.75781-1.2227 2.5 2.5 0 0 1 0.04492-1.4375zm2.5527 1.4727 1.6855 0.97461a2.5 2.5 0 0 1-1.2227 0.75781 2.5 2.5 0 0 1-1.4375-0.04492z" style="fill:#bf844e"/>
 <path d="m23 8v2.0488a13 13 0 0 0-1.3867 0.18164l-0.5293-1.9785-1.9316 0.51758 0.53125 1.9844a13 13 0 0 0-1.291 0.53516l-1.0273-1.7793-1.7305 1 1.0195 1.7656a13 13 0 0 0-1.1094 0.85547l-1.4453-1.4453-1.4141 1.4141 1.4531 1.4531a13 13 0 0 0-0.85156 1.1074l-1.7773-1.0254-1 1.7305 1.7754 1.0254a13 13 0 0 0-0.5332 1.293l-1.9824-0.53125-0.51758 1.9316 1.9785 0.5293a13 13 0 0 0-0.1875 1.3867h-2.043v2h2.0488a13 13 0 0 0 0.18164 1.3867l-1.9785 0.5293 0.51758 1.9316 1.9844-0.53125a13 13 0 0 0 0.53516 1.291l-1.7793 1.0273 1 1.7305 1.7656-1.0195a13 13 0 0 0 0.85547 1.1094l-1.4453 1.4453 1.4141 1.4141 1.4531-1.4531a13 13 0 0 0 1.1074 0.85156l-1.0254 1.7773 1.7305 1 1.0254-1.7754a13 13 0 0 0 1.293 0.5332l-0.53125 1.9824 1.9316 0.51758 0.5293-1.9785a13 13 0 0 0 1.3867 0.1875v2.043h2v-2.0488a13 13 0 0 0 1.3867-0.18164l0.5293 1.9785 1.9316-0.51758-0.53125-1.9844a13 13 0 0 0 1.291-0.53516l1.0273 1.7793 1.7305-1-1.0195-1.7656a13 13 0 0 0 1.1094-0.85547l1.4453 1.4453 1.4141-1.4141-1.4531-1.4531a13 13 0 0 0 0.85156-1.1074l1.7773 1.0254 1-1.7305-1.7754-1.0254a13 13 0 0 0 0.5332-1.293l1.9824 0.53125 0.51758-1.9316-1.9785-0.5293a13 13 0 0 0 0.1875-1.3867h2.043v-2h-2.0488a13 13 0 0 0-0.18164-1.3867l1.9785-0.5293-0.51758-1.9316-1.9844 0.53125a13 13 0 0 0-0.53516-1.291l1.7793-1.0273-1-1.7305-1.7656 1.0195a13 13 0 0 0-0.85547-1.1094l1.4453-1.4453-1.4141-1.4141-1.4531 1.4531a13 13 0 0 0-1.1074-0.85156l1.0254-1.7773-1.7305-1-1.0254 1.7754a13 13 0 0 0-1.293-0.5332l0.53125-1.9824-1.9316-0.51758-0.5293 1.9785a13 13 0 0 0-1.3867-0.1875v-2.043zm1 4a11 11 0 0 1 11 11 11 11 0 0 1-11 11 11 11 0 0 1-11-11 11 11 0 0 1 11-11z" style="fill:#dfba89"/>
 <path d="m24.096 12.004-0.58398 1.0137a11 11 0 0 1 0.48828-0.017578 11 11 0 0 1 0.65625 0.033203l0.46875-0.8125a2.5 2.5 0 0 1 0.66211 0.93945 11 11 0 0 1 1.627 0.39258l0.53125-0.14258-0.19922-0.74219a11 11 0 0 0-0.40039-0.13281l-0.66406 0.17774a3.5 3.5 0 0 0-0.2168-0.41992 11 11 0 0 0-2.3691-0.28906zm-2.2812 0.21484a11 11 0 0 0-1.543 0.44727 3.5 3.5 0 0 0-0.019531 0.044922l-0.058594-0.015626a11 11 0 0 0-1.1406 0.49414l-0.058593 0.2207 1.002 0.26953a3.5 3.5 0 0 0-0.00586 0.097656 11 11 0 0 1 1.0762-0.36133 2.5 2.5 0 0 1 0.033203-0.11524l0.12109 0.070313a11 11 0 0 1 1.502-0.28711l-1.123-0.65039a2.5 2.5 0 0 1 0.21484-0.21484z" style="opacity:.1"/>
</svg>
