<svg style="" version="1.1" viewBox="0 0 48 48" xmlns="http://www.w3.org/2000/svg">
 <defs style="">
  <linearGradient id="linearGradient3764" x1="1" x2="47" style="" gradientTransform="translate(-48 .002215)" gradientUnits="userSpaceOnUse">
   <stop style="stop-color:#f9ecd2" offset="0"/>
   <stop style="stop-color:#fbf4e4" offset="1"/>
  </linearGradient>
 </defs>
 <path d="m1 43v0.25c0 2.216 1.784 4 4 4h38c2.216 0 4-1.784 4-4v-0.25c0 2.216-1.784 4-4 4h-38c-2.216 0-4-1.784-4-4zm0 0.5v0.5c0 2.216 1.784 4 4 4h38c2.216 0 4-1.784 4-4v-0.5c0 2.216-1.784 4-4 4h-38c-2.216 0-4-1.784-4-4z" style="opacity:.02"/>
 <path d="m1 43.25v0.25c0 2.216 1.784 4 4 4h38c2.216 0 4-1.784 4-4v-0.25c0 2.216-1.784 4-4 4h-38c-2.216 0-4-1.784-4-4z" style="opacity:.05"/>
 <path d="m1 43v0.25c0 2.216 1.784 4 4 4h38c2.216 0 4-1.784 4-4v-0.25c0 2.216-1.784 4-4 4h-38c-2.216 0-4-1.784-4-4z" style="opacity:.1"/>
 <rect transform="rotate(-90)" x="-47" y="1" width="46" height="46" rx="4" style="fill:url(#linearGradient3764)"/>
 <path d="m1 39v4c0 2.216 1.784 4 4 4h38c2.216 0 4-1.784 4-4v-4c0 2.216-1.784 4-4 4h-38c-2.216 0-4-1.784-4-4z" style="opacity:.1"/>
 <path d="m16 12s-2 1-2 3v18c0 2-2 3-2 3h1.1992s1.3-1 1.5-2h2c-0.2 1-1.6992 2-1.6992 2h1s2-1 2-3v-3h3.0508c-0.0336-0.16193-0.05078-0.32889-0.05078-0.5 0-0.56081 0.19149-1.0804 0.50977-1.5h-3.5098v-7h1v-2h-1v-4c0-2 2-3 2-3zm16 0s-2 1-2 3v4h-1v2h1v7h-4v2h4v3c0 2-2 3-2 3h1.1992s1.3-1 1.5-2h2c-0.2 1-1.6992 2-1.6992 2h1s2-1 2-3v-18c0-2 2-3 2-3zm-16 1h1.75s-0.75 1-0.75 2h-2c0-1.2 1-2 1-2zm16 0h1.75s-0.75 1-0.75 2h-2c0-1.2 1-2 1-2zm-17 3h2v2h-2zm9 0c-2.2091 0-4 1.7909-4 4h3c0-0.55228 0.44772-1 1-1s1 0.44772 1 1c0 1-1 1.5-3 2.5v3.5h3v-2c2-1 2.9974-2.1782 3-4 0-2.2091-1.7909-4-4-4zm7 0h2v2h-2zm-16 3h2v2h-2zm16 0h2v2h-2zm-16 3h2v2h-2zm16 0h2v2h-2zm-16 3h2v2h-2zm16 0h2v2h-2zm-16 3h2v2h-2zm8.5 0c-0.82843 0-1.5 0.67157-1.5 1.5s0.67157 1.5 1.5 1.5 1.5-0.67157 1.5-1.5-0.67157-1.5-1.5-1.5zm7.5 0h2v2h-2zm-16 3h2v2h-2zm16 0h2v2h-2z" style="opacity:.1"/>
 <path d="m16 11s-2 1-2 3v18c0 2-2 3-2 3h1.1992s1.3-1 1.5-2h2c-0.2 1-1.6992 2-1.6992 2h1s2-1 2-3v-3h3.0508c-0.0336-0.16193-0.05078-0.32889-0.05078-0.5 0-0.56081 0.19149-1.0804 0.50977-1.5h-3.5098v-7h1v-2h-1v-4c0-2 2-3 2-3zm16 0s-2 1-2 3v4h-1v2h1v7h-4v2h4v3c0 2-2 3-2 3h1.1992s1.3-1 1.5-2h2c-0.2 1-1.6992 2-1.6992 2h1s2-1 2-3v-18c0-2 2-3 2-3zm-16 1h1.75s-0.75 1-0.75 2h-2c0-1.2 1-2 1-2zm16 0h1.75s-0.75 1-0.75 2h-2c0-1.2 1-2 1-2zm-17 3h2v2h-2zm16 0h2v2h-2zm-16 3h2v2h-2zm16 0h2v2h-2zm-16 3h2v2h-2zm16 0h2v2h-2zm-16 3h2v2h-2zm16 0h2v2h-2zm-16 3h2v2h-2zm16 0h2v2h-2zm-16 3h2v2h-2zm16 0h2v2h-2z" style="fill:#3d3d3d"/>
 <path d="m24 15c-2.2091 0-4 1.7909-4 4h3c0-0.55228 0.44772-1 1-1s1 0.44772 1 1c0 1-1 1.5-3 2.5v3.5h3v-2c2-1 2.9974-2.1782 3-4 0-2.2091-1.7909-4-4-4zm-0.5 12c-0.82843 0-1.5 0.67157-1.5 1.5s0.67157 1.5 1.5 1.5 1.5-0.67157 1.5-1.5-0.67157-1.5-1.5-1.5z" style="fill:#e4a226"/>
</svg>
