<svg version="1.1" viewBox="0 0 48 48" xmlns="http://www.w3.org/2000/svg">
 <defs>
  <linearGradient id="bg" x2="0" y1="1" y2="47" gradientUnits="userSpaceOnUse">
   <stop style="stop-color:#f5375e" offset="0"/>
   <stop style="stop-color:#f4254f" offset="1"/>
  </linearGradient>
 </defs>
 <path d="m1 43v0.25c0 2.216 1.784 4 4 4h38c2.216 0 4-1.784 4-4v-0.25c0 2.216-1.784 4-4 4h-38c-2.216 0-4-1.784-4-4zm0 0.5v0.5c0 2.216 1.784 4 4 4h38c2.216 0 4-1.784 4-4v-0.5c0 2.216-1.784 4-4 4h-38c-2.216 0-4-1.784-4-4z" style="opacity:.02"/>
 <path d="m1 43.25v0.25c0 2.216 1.784 4 4 4h38c2.216 0 4-1.784 4-4v-0.25c0 2.216-1.784 4-4 4h-38c-2.216 0-4-1.784-4-4z" style="opacity:.05"/>
 <path d="m1 43v0.25c0 2.216 1.784 4 4 4h38c2.216 0 4-1.784 4-4v-0.25c0 2.216-1.784 4-4 4h-38c-2.216 0-4-1.784-4-4z" style="opacity:.1"/>
 <rect x="1" y="1" width="46" height="46" rx="4" style="fill:url(#bg)"/>
 <path d="m1 39v4c0 2.216 1.784 4 4 4h38c2.216 0 4-1.784 4-4v-4c0 2.216-1.784 4-4 4h-38c-2.216 0-4-1.784-4-4z" style="opacity:.1"/>
 <path d="m25 13v16c0 1.6569-1.3431 3-3 3s-3-1.3431-3-3 1.3431-3 3-3c0.3409 0.0014 0.67908 0.0608 1 0.17578v-4.1016c-0.33113-0.04861-0.66532-0.07342-1-0.07422-3.866 0-7 3.134-7 7s3.134 7 7 7 7-3.134 7-7v-10c1 3 6 3 6 3v-4s-6 0-6-5z" style="opacity:.1"/>
 <path d="m25 12v16c0 1.6569-1.3431 3-3 3s-3-1.3431-3-3 1.3431-3 3-3c0.3409 0.0014 0.67908 0.0608 1 0.17578v-4.1016c-0.33113-0.04861-0.66532-0.07342-1-0.07422-3.866 0-7 3.134-7 7s3.134 7 7 7 7-3.134 7-7v-10c1 3 6 3 6 3v-4s-6 0-6-5z" style="fill:#1ef3ed"/>
</svg>
