<svg version="1.1" viewBox="0 0 48 48" xmlns="http://www.w3.org/2000/svg">
 <defs>
  <linearGradient id="bg" x2="0" y1="1" y2="47" gradientUnits="userSpaceOnUse">
   <stop style="stop-color:#ef5353" offset="0"/>
   <stop style="stop-color:#ed4141" offset="1"/>
  </linearGradient>
 </defs>
 <path d="m1 43v0.25c0 2.216 1.784 4 4 4h38c2.216 0 4-1.784 4-4v-0.25c0 2.216-1.784 4-4 4h-38c-2.216 0-4-1.784-4-4zm0 0.5v0.5c0 2.216 1.784 4 4 4h38c2.216 0 4-1.784 4-4v-0.5c0 2.216-1.784 4-4 4h-38c-2.216 0-4-1.784-4-4z" style="opacity:.02"/>
 <path d="m1 43.25v0.25c0 2.216 1.784 4 4 4h38c2.216 0 4-1.784 4-4v-0.25c0 2.216-1.784 4-4 4h-38c-2.216 0-4-1.784-4-4z" style="opacity:.05"/>
 <path d="m1 43v0.25c0 2.216 1.784 4 4 4h38c2.216 0 4-1.784 4-4v-0.25c0 2.216-1.784 4-4 4h-38c-2.216 0-4-1.784-4-4z" style="opacity:.1"/>
 <rect x="1" y="1" width="46" height="46" rx="4" style="fill:url(#bg)"/>
 <path d="m1 39v4c0 2.216 1.784 4 4 4h38c2.216 0 4-1.784 4-4v-4c0 2.216-1.784 4-4 4h-38c-2.216 0-4-1.784-4-4z" style="opacity:.1"/>
 <path d="m24 9c-8.284 0-15 6.716-15 15s6.716 15 15 15 15-6.716 15-15-6.716-15-15-15zm0 1.998v2e-3c7.18-2e-3 13 5.82 13 13s-5.82 13-13 13c-6.03-4e-3 -11.267-4.1631-12.641-10.039l4.6367-6.9648h-4.3574c1.734-5.362 6.7253-8.996 12.361-8.998z" style="opacity:.1"/>
 <path d="m9 23c0 8.284 6.716 15 15 15 0.5-0.625 0.5-1.292 0-2-7.18 0-13-5.82-13-13z" style="fill:#983e3e"/>
 <path d="m24 8a15 15 0 0 0-15 15h2a13 13 0 0 1 13-13 13 13 0 0 1 13 13 13 13 0 0 1-13 13v2a15 15 0 0 0 15-15 15 15 0 0 0-15-15" style="fill:#383838"/>
 <path d="M 9.559,19 A 15,15 0 0 0 9,23 15,15 0 0 0 9.916,28.13 L 16,19 H 9.559" style="fill:#383838"/>
</svg>
