<svg width="48" height="48" version="1.1" viewBox="0 0 48 48" xmlns="http://www.w3.org/2000/svg">
 <defs>
  <linearGradient id="bg" x1="-47" x2="-1" y1="2.8779e-15" y2="6.1232e-17" gradientUnits="userSpaceOnUse">
   <stop style="stop-color:#08982b" offset="0"/>
   <stop style="stop-color:#09ab30" offset="1"/>
  </linearGradient>
 </defs>
 <g transform="translate(0 3.949e-5)">
  <path d="m1 43v0.25c0 2.216 1.784 4 4 4h38c2.216 0 4-1.784 4-4v-0.25c0 2.216-1.784 4-4 4h-38c-2.216 0-4-1.784-4-4zm0 0.5v0.5c0 2.216 1.784 4 4 4h38c2.216 0 4-1.784 4-4v-0.5c0 2.216-1.784 4-4 4h-38c-2.216 0-4-1.784-4-4z" style="opacity:.02"/>
  <path d="m1 43.25v0.25c0 2.216 1.784 4 4 4h38c2.216 0 4-1.784 4-4v-0.25c0 2.216-1.784 4-4 4h-38c-2.216 0-4-1.784-4-4z" style="opacity:.05"/>
  <path d="m1 43v0.25c0 2.216 1.784 4 4 4h38c2.216 0 4-1.784 4-4v-0.25c0 2.216-1.784 4-4 4h-38c-2.216 0-4-1.784-4-4z" style="opacity:.1"/>
 </g>
 <rect transform="rotate(-90)" x="-47" y="1" width="46" height="46" rx="4" style="fill:url(#bg)"/>
 <g transform="translate(0 3.949e-5)">
  <g transform="translate(0 -1004.4)">
   <path d="m1 1043.4v4c0 2.216 1.784 4 4 4h38c2.216 0 4-1.784 4-4v-4c0 2.216-1.784 4-4 4h-38c-2.216 0-4-1.784-4-4z" style="opacity:.1"/>
  </g>
 </g>
 <path d="m13 35v1.125c0 0.492 0.383 0.875 0.875 0.875h20.25c0.492 0 0.875-0.383 0.875-0.875v-1.125z" style="opacity:.1"/>
 <path d="m13.875 9.9979c-0.493 0-0.87499 0.382-0.87499 0.87499v24.25c0 0.493 0.382 0.87699 0.87499 0.87699h20.25c0.493 0 0.87499-0.384 0.87499-0.87699v-19.12l-5.9979-5.9999h-15.13z" style="fill:#e8e8d9;stroke-width:.99999"/>
 <path d="m28.998 9.9984v5.9988h5.9988" style="fill:#fff;stroke-width:3.5433"/>
 <path d="m35.001 22v-5.9988h-5.9988" style="fill-opacity:.2;stroke-width:3.5433"/>
 <path d="m24 17c-4.418 0-8 3.582-8 8 1e-3 1.695 0.545 3.345 1.547 4.713-0.351-0.834-0.547-1.751-0.547-2.713 0-3.854 3.159-7 7-7 0.276 0 0.5 0.224 0.5 0.5s-0.224 0.5-0.5 0.5c-3.314 0-6 2.686-6 6s2.686 6 6 6c1.348-1e-3 2.674-0.347 3.854-1h-3.854c-2.761 0-5-2.239-5-5s2.239-5 5-5c0.291 0 0.584 0.01 0.867 0.076 0.801 0.186 0.613 1.163-0.174 0.988-0.227-0.05-0.461-0.064-0.693-0.064-2.209-1e-3 -4 1.791-4 4s1.791 4 4 4h5.277c0.348-0.305 0.669-0.64 0.959-1h-6.236c-1.657 0-3-1.343-3-3s1.343-3 3-3c0.526 0 1.055 0.12 1.498 0.404 0.596 0.382 0.074 1.203-0.498 0.865-0.302-0.178-0.649-0.269-1-0.27-1.105 0-2 0.895-2 2s0.895 2 2 2h6.92c0.705-1.215 1.079-2.595 1.08-4 2e-3 -4.418-3.582-8-8-8z" style="fill:#808080"/>
</svg>
