<svg viewBox="0 0 48 48">
  <defs>
    <linearGradient id="a" x1="1" x2="47" gradientUnits="userSpaceOnUse" gradientTransform="translate(-48 .002)">
      <stop stop-color="#d6262e"/>
      <stop offset="1" stop-color="#db363f"/>
    </linearGradient>
    <clipPath id="b"/>
    <clipPath id="c"/>
  </defs>
  <path d="M1 43v.25c0 2.216 1.784 4 4 4h38c2.216 0 4-1.784 4-4V43c0 2.216-1.784 4-4 4H5c-2.216 0-4-1.784-4-4zm0 .5v.5c0 2.216 1.784 4 4 4h38c2.216 0 4-1.784 4-4v-.5c0 2.216-1.784 4-4 4H5c-2.216 0-4-1.784-4-4z" opacity=".02"/>
  <path d="M1 43.25v.25c0 2.216 1.784 4 4 4h38c2.216 0 4-1.784 4-4v-.25c0 2.216-1.784 4-4 4H5c-2.216 0-4-1.784-4-4z" opacity=".05"/>
  <path d="M1 43v.25c0 2.216 1.784 4 4 4h38c2.216 0 4-1.784 4-4V43c0 2.216-1.784 4-4 4H5c-2.216 0-4-1.784-4-4z" opacity=".1"/>
  <rect width="46" height="46" x="-47" y="1" rx="4" transform="rotate(-90)" fill="url(#a)"/>
  <g opacity=".1" clip-path="url(#b)">
    <path d="M17 20c-1 0-1.121.375-1.324 1l-3.352 13c-.129.527-.324 1 .676 1h22c1 0 .785-.504.676-1l-3.352-13c-.176-.496-.324-1-1.324-1h-5v8h3l-5 4-5-4h3v-8m-5 0M18.773 11H29.23c.977 0 1.77.672 1.77 1.5s-.793 1.5-1.77 1.5H18.773c-.98 0-1.773-.672-1.773-1.5s.793-1.5 1.773-1.5m0 0"/>
    <path d="M23.781 11c-.98 0-1.781.801-1.781 1.781V20h4v-7.219c0-.98-.801-1.781-1.781-1.781m-.438 0"/>
  </g>
  <g>
    <g fill="#ffe5e5" clip-path="url(#c)">
      <path d="M17 19c-1 0-1.121.375-1.324 1l-3.352 13c-.129.527-.324 1 .676 1h22c1 0 .785-.504.676-1l-3.352-13c-.176-.496-.324-1-1.324-1h-5v8h3l-5 4-5-4h3v-8m-5 0M18.773 10H29.23c.977 0 1.77.672 1.77 1.5s-.793 1.5-1.77 1.5H18.773c-.98 0-1.773-.672-1.773-1.5s.793-1.5 1.773-1.5m0 0"/>
      <path d="M23.781 10c-.98 0-1.781.801-1.781 1.781V19h4v-7.219c0-.98-.801-1.781-1.781-1.781m-.438 0"/>
    </g>
  </g>
  <g>
    <path d="M1 38.998v4c0 2.216 1.784 4 4 4h38c2.216 0 4-1.784 4-4v-4c0 2.216-1.784 4-4 4H5c-2.216 0-4-1.784-4-4z" opacity=".1"/>
  </g>
</svg>
