<svg style="" viewBox="0 0 48 48" xmlns="http://www.w3.org/2000/svg" xmlns:xlink="http://www.w3.org/1999/xlink">
 <defs style="">
  <linearGradient id="linearGradient3764" gradientTransform="translate(-48 .002215)" gradientUnits="userSpaceOnUse" style="" x1="1" x2="47">
   <stop offset="0" style="stop-color:#d6262e"/>
   <stop offset="1" style="stop-color:#db363f"/>
  </linearGradient>
 </defs>
 <path d="m 1 43 v .25 c 0 2.216 1.784 4 4 4 h 38 c 2.216 0 4 -1.784 4 -4 v -.25 c 0 2.216 -1.784 4 -4 4 h -38 c -2.216 0 -4 -1.784 -4 -4 z m 0 .5 v .5 c 0 2.216 1.784 4 4 4 h 38 c 2.216 0 4 -1.784 4 -4 v -.5 c 0 2.216 -1.784 4 -4 4 h -38 c -2.216 0 -4 -1.784 -4 -4 z" style="opacity:.02"/>
 <path d="m 1 43.25 v .25 c 0 2.216 1.784 4 4 4 h 38 c 2.216 0 4 -1.784 4 -4 v -.25 c 0 2.216 -1.784 4 -4 4 h -38 c -2.216 0 -4 -1.784 -4 -4 z" style="opacity:.05"/>
 <path d="m 1 43 v .25 c 0 2.216 1.784 4 4 4 h 38 c 2.216 0 4 -1.784 4 -4 v -.25 c 0 2.216 -1.784 4 -4 4 h -38 c -2.216 0 -4 -1.784 -4 -4 z" style="opacity:.1"/>
 <rect height="46" rx="4" style="fill:url(#linearGradient3764)" transform="rotate(-90)" width="46" x="-47" y="1"/>
 <g style="opacity:.1">
  <path d="m 17 20 c -1 0 -1.121 .375 -1.324 1 l -3.352 13 c -.129 .527 -.324 1 .676 1 h 22 c 1 0 .785 -.504 .676 -1 l -3.352 -13 c -.176 -.496 -.324 -1 -1.324 -1 h -5 v 8 h 3 l -5 4 -5 -4 h 3 v -8" style=""/>
  <path d="m 18.773 11 h 10.457 c .977 0 1.77 .672 1.77 1.5 s -.793 1.5 -1.77 1.5 h -10.457 c -.98 0 -1.773 -.672 -1.773 -1.5 s .793 -1.5 1.773 -1.5" style=""/>
  <path d="m 23.781 11 c -.98 0 -1.781 .801 -1.781 1.781 v 7.219 h 4 v -7.219 c 0 -.98 -.801 -1.781 -1.781 -1.781" style=""/>
 </g>
 <g style="fill:#ffe5e5">
  <path d="m 17 19 c -1 0 -1.121 .375 -1.324 1 l -3.352 13 c -.129 .527 -.324 1 .676 1 h 22 c 1 0 .785 -.504 .676 -1 l -3.352 -13 c -.176 -.496 -.324 -1 -1.324 -1 h -5 v 8 h 3 l -5 4 -5 -4 h 3 v -8" style=""/>
  <path d="m 18.773 10 h 10.457 c .977 0 1.77 .672 1.77 1.5 s -.793 1.5 -1.77 1.5 h -10.457 c -.98 0 -1.773 -.672 -1.773 -1.5 s .793 -1.5 1.773 -1.5" style=""/>
  <path d="m 23.781 10 c -.98 0 -1.781 .801 -1.781 1.781 v 7.219 h 4 v -7.219 c 0 -.98 -.801 -1.781 -1.781 -1.781" style=""/>
 </g>
 <path d="m 1 39 v 4 c 0 2.216 1.784 4 4 4 h 38 c 2.216 0 4 -1.784 4 -4 v -4 c 0 2.216 -1.784 4 -4 4 h -38 c -2.216 0 -4 -1.784 -4 -4 z" style="opacity:.1"/>
</svg>
