<svg width="48" height="48" version="1.1" viewBox="0 0 48 48.000001" xmlns="http://www.w3.org/2000/svg">
 <defs>
  <linearGradient id="linearGradient4501" x1="-47" x2="-1" y1="2.8779e-15" y2="6.1232e-17" gradientUnits="userSpaceOnUse">
   <stop style="stop-color:#534547" offset="0"/>
   <stop style="stop-color:#5e4e50" offset="1"/>
  </linearGradient>
 </defs>
 <g transform="translate(0 3.949e-5)">
  <path d="m1 43v0.25c0 2.216 1.784 4 4 4h38c2.216 0 4-1.784 4-4v-0.25c0 2.216-1.784 4-4 4h-38c-2.216 0-4-1.784-4-4zm0 0.5v0.5c0 2.216 1.784 4 4 4h38c2.216 0 4-1.784 4-4v-0.5c0 2.216-1.784 4-4 4h-38c-2.216 0-4-1.784-4-4z" style="opacity:.02"/>
  <path d="m1 43.25v0.25c0 2.216 1.784 4 4 4h38c2.216 0 4-1.784 4-4v-0.25c0 2.216-1.784 4-4 4h-38c-2.216 0-4-1.784-4-4z" style="opacity:.05"/>
  <path d="m1 43v0.25c0 2.216 1.784 4 4 4h38c2.216 0 4-1.784 4-4v-0.25c0 2.216-1.784 4-4 4h-38c-2.216 0-4-1.784-4-4z" style="opacity:.1"/>
 </g>
 <rect transform="rotate(-90)" x="-47" y="1" width="46" height="46" rx="4" style="fill:url(#linearGradient4501)"/>
 <g transform="translate(0 3.949e-5)">
  <g transform="translate(0 -1004.4)">
   <path d="m1 1043.4v4c0 2.216 1.784 4 4 4h38c2.216 0 4-1.784 4-4v-4c0 2.216-1.784 4-4 4h-38c-2.216 0-4-1.784-4-4z" style="opacity:.1"/>
  </g>
 </g>
 <path d="m20.54 35.492v-0.84c1.156-0.473 1.379-1.051 1.84-2.109 0.73-5.227 0.387-11.11-0.188-15.586-2.805-1.07-5.602 0.188-4.676 1.828 0.246 0.398 1.262 0.211 1.145-0.262-0.555-0.262 0.023-0.617 0.262-0.547 0.23 0.047 0.445 0.637-0.113 1.313-0.352 0.328-0.703 0.41-1.125 0.438-0.656 0.023-1.32-0.086-1.578-0.438-0.344-0.609-0.266-1.086-0.188-1.746 0.297-0.746 0.285-1.414 0.223-2.188-0.035-0.684-0.344-1.246-0.637-1.855 6.414 1.672 11.01 2.473 16.941 1.566-0.324 1.453-0.027 2.402 0.527 3.711l-1.203 0.055c-0.125-1.156-0.711-1.645-1.203-1.656l-3.867-0.07c-1.066 5.27-0.852 9.461-0.453 14.742 0.121 0.949 0.703 2.223 1.73 2.406l0.109 0.473c-3.07-0.277-5.094-0.02-7.547 0.766" style="opacity:.1"/>
 <path d="m20.54 34.492v-0.84c1.156-0.473 1.379-1.051 1.84-2.109 0.73-5.227 0.387-11.11-0.188-15.586-2.805-1.07-5.602 0.188-4.676 1.828 0.246 0.398 1.262 0.211 1.145-0.262-0.555-0.262 0.023-0.617 0.262-0.547 0.23 0.047 0.445 0.637-0.113 1.313-0.352 0.328-0.703 0.41-1.125 0.438-0.656 0.023-1.32-0.086-1.578-0.438-0.344-0.609-0.266-1.086-0.188-1.746 0.297-0.746 0.285-1.414 0.223-2.188-0.035-0.684-0.344-1.246-0.637-1.855 6.414 1.672 11.01 2.473 16.941 1.566-0.324 1.453-0.027 2.402 0.527 3.711l-1.203 0.055c-0.125-1.156-0.711-1.645-1.203-1.656l-3.867-0.07c-1.066 5.27-0.852 9.461-0.453 14.742 0.121 0.949 0.703 2.223 1.73 2.406l0.109 0.473c-3.07-0.277-5.094-0.02-7.547 0.766" style="fill:#cc9727"/>
</svg>
