<?xml version="1.0" encoding="UTF-8" standalone="no"?>
<svg
   xmlns:dc="http://purl.org/dc/elements/1.1/"
   xmlns:cc="http://creativecommons.org/ns#"
   xmlns:rdf="http://www.w3.org/1999/02/22-rdf-syntax-ns#"
   xmlns:svg="http://www.w3.org/2000/svg"
   xmlns="http://www.w3.org/2000/svg"
   xmlns:sodipodi="http://sodipodi.sourceforge.net/DTD/sodipodi-0.dtd"
   xmlns:inkscape="http://www.inkscape.org/namespaces/inkscape"
   viewBox="0 0 48 48"
   version="1.1"
   id="svg37713"
   sodipodi:docname="triplea.svg">
  <metadata
     id="metadata37717">
    <rdf:RDF>
      <cc:Work
         rdf:about="">
        <dc:format>image/svg+xml</dc:format>
        <dc:type
           rdf:resource="http://purl.org/dc/dcmitype/StillImage" />
      </cc:Work>
    </rdf:RDF>
  </metadata>
  <sodipodi:namedview
     pagecolor="#ffffff"
     bordercolor="#666666"
     borderopacity="1"
     objecttolerance="10"
     gridtolerance="10"
     guidetolerance="10"
     inkscape:pageopacity="0"
     inkscape:pageshadow="2"
     inkscape:window-width="640"
     inkscape:window-height="480"
     id="namedview37715" />
  <defs
     id="defs37669">
    <linearGradient
       id="linearGradient3764"
       x1="1"
       x2="47"
       gradientUnits="userSpaceOnUse"
       gradientTransform="translate(-48.000001,0.00221467)">
      <stop
         stop-color="#bbb"
         stop-opacity="1"
         id="stop37654" />
      <stop
         offset="1"
         stop-color="#c5c5c5"
         stop-opacity="1"
         id="stop37656" />
    </linearGradient>
    <clipPath
       id="clipPath-145937828">
      <g
         transform="translate(0,-1004.3622)"
         id="g37661">
        <rect
           rx="4"
           y="1005.36"
           x="1"
           height="46"
           width="46"
           fill="#1890d0"
           id="rect37659" />
      </g>
    </clipPath>
    <clipPath
       id="clipPath-158828396">
      <g
         transform="translate(0,-1004.3622)"
         id="g37666">
        <rect
           rx="4"
           y="1005.36"
           x="1"
           height="46"
           width="46"
           fill="#1890d0"
           id="rect37664" />
      </g>
    </clipPath>
  </defs>
  <g
     id="g37677">
    <path
       d="m 1 43 l 0 0.25 c 0 2.216 1.784 4 4 4 l 38 0 c 2.216 0 4 -1.784 4 -4 l 0 -0.25 c 0 2.216 -1.784 4 -4 4 l -38 0 c -2.216 0 -4 -1.784 -4 -4 z m 0 0.5 l 0 0.5 c 0 2.216 1.784 4 4 4 l 38 0 c 2.216 0 4 -1.784 4 -4 l 0 -0.5 c 0 2.216 -1.784 4 -4 4 l -38 0 c -2.216 0 -4 -1.784 -4 -4 z"
       opacity="0.02"
       id="path37671" />
    <path
       d="m 1 43.25 l 0 0.25 c 0 2.216 1.784 4 4 4 l 38 0 c 2.216 0 4 -1.784 4 -4 l 0 -0.25 c 0 2.216 -1.784 4 -4 4 l -38 0 c -2.216 0 -4 -1.784 -4 -4 z"
       opacity="0.05"
       id="path37673" />
    <path
       d="m 1 43 l 0 0.25 c 0 2.216 1.784 4 4 4 l 38 0 c 2.216 0 4 -1.784 4 -4 l 0 -0.25 c 0 2.216 -1.784 4 -4 4 l -38 0 c -2.216 0 -4 -1.784 -4 -4 z"
       opacity="0.1"
       id="path37675" />
  </g>
  <g
     id="g37681">
    <rect
       width="46"
       height="46"
       x="-47"
       y="1"
       rx="4"
       transform="matrix(0,-1,1,0,0,0)"
       fill="url(#linearGradient3764)"
       fill-opacity="1"
       id="rect37679" />
  </g>
  <g
     id="g37693">
    <g
       clip-path="url(#clipPath-145937828)"
       id="g37691">
      <g
         opacity="0.1"
         id="g37689">
        <!-- color: #c5c5c5 -->
        <g
           id="g37687">
          <path
             d="m 12 34 l 2.523 0 l 8.863 -18.996 l 7.613 0 l 1 -3 l -17.406 0 l -1.594 3 l 7.625 0 m -8.625 18.996"
             stroke="none"
             fill-rule="nonzero"
             fill-opacity="1"
             fill="#000"
             id="path37683" />
          <path
             d="m 27.25 18.555 l -8.246 17.445 l 1.996 0 l 2.434 -5 l 7.57 0 l 3 5 l 2 0 m -8.695 -13.566 l 2.965 6.566 l -5.945 0 c 0 0 2.707 -6.207 2.98 -6.566 m 0 0"
             stroke="none"
             fill-rule="nonzero"
             fill-opacity="1"
             fill="#000"
             id="path37685" />
        </g>
      </g>
    </g>
  </g>
  <g
     id="g37705">
    <g
       clip-path="url(#clipPath-158828396)"
       id="g37703">
      <g
         transform="translate(0,-1)"
         id="g37701">
        <!-- color: #c5c5c5 -->
        <g
           id="g37699">
          <path
             d="m 12 34 l 2.523 0 l 8.863 -18.996 l 7.613 0 l 1 -3 l -17.406 0 l -1.594 3 l 7.625 0 m -8.625 18.996"
             fill="#b22028"
             stroke="none"
             fill-rule="nonzero"
             fill-opacity="1"
             id="path37695" />
          <path
             d="m 27.25 18.555 l -8.246 17.445 l 1.996 0 l 2.434 -5 l 7.57 0 l 3 5 l 2 0 m -8.695 -13.566 l 2.965 6.566 l -5.945 0 c 0 0 2.707 -6.207 2.98 -6.566 m 0 0"
             fill="#b22028"
             stroke="none"
             fill-rule="nonzero"
             fill-opacity="1"
             id="path37697" />
        </g>
      </g>
    </g>
  </g>
  <g
     id="g37711">
    <g
       transform="translate(0,-1004.3622)"
       id="g37709">
      <path
         d="m 1 1043.36 0 4 c 0 2.216 1.784 4 4 4 l 38 0 c 2.216 0 4 -1.784 4 -4 l 0 -4 c 0 2.216 -1.784 4 -4 4 l -38 0 c -2.216 0 -4 -1.784 -4 -4 z"
         opacity="0.1"
         id="path37707" />
    </g>
  </g>
</svg>
