<svg width="48" height="48" version="1.1" viewBox="0 0 48 48.000001" xmlns="http://www.w3.org/2000/svg">
 <defs>
  <linearGradient id="linearGradient4501" x1="-47" x2="-1" y1="2.8779e-15" y2="6.1232e-17" gradientUnits="userSpaceOnUse">
   <stop style="stop-color:#c9c9df" offset="0"/>
   <stop style="stop-color:#d5d5e7" offset="1"/>
  </linearGradient>
 </defs>
 <g transform="translate(0 3.949e-5)">
  <path d="m1 43v0.25c0 2.216 1.784 4 4 4h38c2.216 0 4-1.784 4-4v-0.25c0 2.216-1.784 4-4 4h-38c-2.216 0-4-1.784-4-4zm0 0.5v0.5c0 2.216 1.784 4 4 4h38c2.216 0 4-1.784 4-4v-0.5c0 2.216-1.784 4-4 4h-38c-2.216 0-4-1.784-4-4z" style="opacity:.02"/>
  <path d="m1 43.25v0.25c0 2.216 1.784 4 4 4h38c2.216 0 4-1.784 4-4v-0.25c0 2.216-1.784 4-4 4h-38c-2.216 0-4-1.784-4-4z" style="opacity:.05"/>
  <path d="m1 43v0.25c0 2.216 1.784 4 4 4h38c2.216 0 4-1.784 4-4v-0.25c0 2.216-1.784 4-4 4h-38c-2.216 0-4-1.784-4-4z" style="opacity:.1"/>
 </g>
 <rect transform="rotate(-90)" x="-47" y="1" width="46" height="46" rx="4" style="fill:url(#linearGradient4501)"/>
 <g transform="translate(0 3.949e-5)">
  <g transform="translate(0 -1004.4)">
   <path d="m1 1043.4v4c0 2.216 1.784 4 4 4h38c2.216 0 4-1.784 4-4v-4c0 2.216-1.784 4-4 4h-38c-2.216 0-4-1.784-4-4z" style="opacity:.1"/>
  </g>
 </g>
 <g transform="translate(-.994 -1)">
  <g transform="translate(1,1)">
   <g style="opacity:.1">
    <path transform="translate(-1.006,-1)" d="m25.01 11-3.105 1.996h-6.895v4.43l-2 1.285v14.57c0 1.714 0 1.715 1.777 1.715h20.445c1.777 0 1.777 0 1.777-1.715v-14.57l-2-1.287v-4.428h-6.891l-3.105-1.996z"/>
   </g>
  </g>
 </g>
 <g transform="translate(.006 -1)">
  <path d="m35.992 32.28 2e-3 -14.57-11.995-7.711-12 7.711v14.57" style="fill:#157ebd"/>
  <path d="m14 12v20h19.996v-20m-19.996 0" style="fill:#f9f9f9"/>
  <path d="m11.994 32.32v-14.316l24 14.316" style="fill:#1392dd"/>
  <path d="m13.777 34h20.445c1.777 0 1.777 0 1.777-1.68v-14.316l-24 14.316c0 1.68 5e-3 1.68 1.786 1.68" style="fill:#1eaaec"/>
 </g>
</svg>
