<svg version="1.1" viewBox="0 0 48 48" xmlns="http://www.w3.org/2000/svg">
 <defs>
  <linearGradient id="bg" x2="0" y1="1" y2="47" gradientUnits="userSpaceOnUse">
   <stop style="stop-color:#5256b6" offset="0"/>
   <stop style="stop-color:#484cac" offset="1"/>
  </linearGradient>
 </defs>
 <path d="m1 43v0.25c0 2.216 1.784 4 4 4h38c2.216 0 4-1.784 4-4v-0.25c0 2.216-1.784 4-4 4h-38c-2.216 0-4-1.784-4-4zm0 0.5v0.5c0 2.216 1.784 4 4 4h38c2.216 0 4-1.784 4-4v-0.5c0 2.216-1.784 4-4 4h-38c-2.216 0-4-1.784-4-4z" style="opacity:.02"/>
 <path d="m1 43.25v0.25c0 2.216 1.784 4 4 4h38c2.216 0 4-1.784 4-4v-0.25c0 2.216-1.784 4-4 4h-38c-2.216 0-4-1.784-4-4z" style="opacity:.05"/>
 <path d="m1 43v0.25c0 2.216 1.784 4 4 4h38c2.216 0 4-1.784 4-4v-0.25c0 2.216-1.784 4-4 4h-38c-2.216 0-4-1.784-4-4z" style="opacity:.1"/>
 <rect x="1" y="1" width="46" height="46" rx="4" style="fill:url(#bg)"/>
 <path d="m1 39v4c0 2.216 1.784 4 4 4h38c2.216 0 4-1.784 4-4v-4c0 2.216-1.784 4-4 4h-38c-2.216 0-4-1.784-4-4z" style="opacity:.1"/>
 <path d="m36 34.285c0 0.949-0.77 1.715-1.715 1.715-0.949 0-1.719-0.766-1.719-1.715s0.77-1.715 1.719-1.715c0.945 0 1.715 0.766 1.715 1.715" style="opacity:.1"/>
 <path d="m32.57 34.285c0 0.949-0.77 1.715-1.715 1.715-0.949 0-1.715-0.766-1.715-1.715s0.766-1.715 1.715-1.715c0.945 0 1.715 0.766 1.715 1.715" style="opacity:.1"/>
 <path d="m29.14 34.285c0 0.949-0.77 1.715-1.719 1.715-0.945 0-1.715-0.766-1.715-1.715s0.77-1.715 1.715-1.715c0.949 0 1.719 0.766 1.719 1.715" style="opacity:.1"/>
 <path d="m25.715 34.285c0 0.949-0.77 1.715-1.715 1.715-0.949 0-1.719-0.766-1.719-1.715s0.77-1.715 1.719-1.715c0.945 0 1.715 0.766 1.715 1.715" style="opacity:.1"/>
 <path d="m22.285 34.285c0 0.949-0.766 1.715-1.715 1.715s-1.715-0.766-1.715-1.715 0.766-1.715 1.715-1.715 1.715 0.766 1.715 1.715" style="opacity:.1"/>
 <path d="m18.859 34.285c0 0.949-0.77 1.715-1.719 1.715-0.945 0-1.715-0.766-1.715-1.715s0.77-1.715 1.715-1.715c0.949 0 1.719 0.766 1.719 1.715" style="opacity:.1"/>
 <path d="m15.43 34.285c0 0.949-0.77 1.715-1.715 1.715-0.949 0-1.715-0.766-1.715-1.715s0.766-1.715 1.715-1.715c0.945 0 1.715 0.766 1.715 1.715" style="opacity:.1"/>
 <path d="m36 30.85c0 0.949-0.77 1.719-1.715 1.719-0.949 0-1.719-0.77-1.719-1.719 0-0.945 0.77-1.715 1.719-1.715 0.945 0 1.715 0.77 1.715 1.715" style="opacity:.1"/>
 <path d="m32.57 30.85c0 0.949-0.77 1.719-1.715 1.719-0.949 0-1.715-0.77-1.715-1.719 0-0.945 0.766-1.715 1.715-1.715 0.945 0 1.715 0.77 1.715 1.715" style="opacity:.1"/>
 <path d="m29.14 30.85c0 0.949-0.77 1.719-1.719 1.719-0.945 0-1.715-0.77-1.715-1.719 0-0.945 0.77-1.715 1.715-1.715 0.949 0 1.719 0.77 1.719 1.715" style="opacity:.1"/>
 <path d="m25.715 30.85c0 0.949-0.77 1.719-1.715 1.719-0.949 0-1.719-0.77-1.719-1.719 0-0.945 0.77-1.715 1.719-1.715 0.945 0 1.715 0.77 1.715 1.715" style="opacity:.1"/>
 <path d="m22.285 30.85c0 0.949-0.766 1.719-1.715 1.719s-1.715-0.77-1.715-1.719c0-0.945 0.766-1.715 1.715-1.715s1.715 0.77 1.715 1.715" style="opacity:.1"/>
 <path d="m18.859 30.85c0 0.949-0.77 1.719-1.719 1.719-0.945 0-1.715-0.77-1.715-1.719 0-0.945 0.77-1.715 1.715-1.715 0.949 0 1.719 0.77 1.719 1.715" style="opacity:.1"/>
 <path d="m15.43 30.85c0 0.949-0.77 1.719-1.715 1.719-0.949 0-1.715-0.77-1.715-1.719 0-0.945 0.766-1.715 1.715-1.715 0.945 0 1.715 0.77 1.715 1.715" style="opacity:.1"/>
 <path d="m36 27.425c0 0.945-0.77 1.715-1.715 1.715-0.949 0-1.719-0.77-1.719-1.715 0-0.949 0.77-1.719 1.719-1.719 0.945 0 1.715 0.77 1.715 1.719" style="opacity:.1"/>
 <path d="m32.57 27.425c0 0.945-0.77 1.715-1.715 1.715-0.949 0-1.715-0.77-1.715-1.715 0-0.949 0.766-1.719 1.715-1.719 0.945 0 1.715 0.77 1.715 1.719" style="opacity:.1"/>
 <path d="m29.14 27.425c0 0.945-0.77 1.715-1.719 1.715-0.945 0-1.715-0.77-1.715-1.715 0-0.949 0.77-1.719 1.715-1.719 0.949 0 1.719 0.77 1.719 1.719" style="opacity:.1"/>
 <path d="m25.715 27.425c0 0.945-0.77 1.715-1.715 1.715-0.949 0-1.719-0.77-1.719-1.715 0-0.949 0.77-1.719 1.719-1.719 0.945 0 1.715 0.77 1.715 1.719" style="opacity:.1"/>
 <path d="m22.285 27.425c0 0.945-0.766 1.715-1.715 1.715s-1.715-0.77-1.715-1.715c0-0.949 0.766-1.719 1.715-1.719s1.715 0.77 1.715 1.719" style="opacity:.1"/>
 <path d="m18.859 27.425c0 0.945-0.77 1.715-1.719 1.715-0.945 0-1.715-0.77-1.715-1.715 0-0.949 0.77-1.719 1.715-1.719 0.949 0 1.719 0.77 1.719 1.719" style="opacity:.1"/>
 <path d="m15.43 27.425c0 0.945-0.77 1.715-1.715 1.715-0.949 0-1.715-0.77-1.715-1.715 0-0.949 0.766-1.719 1.715-1.719 0.945 0 1.715 0.77 1.715 1.719" style="opacity:.1"/>
 <path d="m36 23.995c0 0.945-0.77 1.715-1.715 1.715-0.949 0-1.719-0.77-1.719-1.715 0-0.949 0.77-1.715 1.719-1.715 0.945 0 1.715 0.766 1.715 1.715" style="opacity:.1"/>
 <path d="m32.57 23.995c0 0.945-0.77 1.715-1.715 1.715-0.949 0-1.715-0.77-1.715-1.715 0-0.949 0.766-1.715 1.715-1.715 0.945 0 1.715 0.766 1.715 1.715" style="opacity:.1"/>
 <path d="m29.14 23.995c0 0.945-0.77 1.715-1.719 1.715-0.945 0-1.715-0.77-1.715-1.715 0-0.949 0.77-1.715 1.715-1.715 0.949 0 1.719 0.766 1.719 1.715" style="opacity:.1"/>
 <path d="m25.715 23.995c0 0.945-0.77 1.715-1.715 1.715-0.949 0-1.719-0.77-1.719-1.715 0-0.949 0.77-1.715 1.719-1.715 0.945 0 1.715 0.766 1.715 1.715" style="opacity:.1"/>
 <path d="m22.285 23.995c0 0.945-0.766 1.715-1.715 1.715s-1.715-0.77-1.715-1.715c0-0.949 0.766-1.715 1.715-1.715s1.715 0.766 1.715 1.715" style="opacity:.1"/>
 <path d="m18.859 23.995c0 0.945-0.77 1.715-1.719 1.715-0.945 0-1.715-0.77-1.715-1.715 0-0.949 0.77-1.715 1.715-1.715 0.949 0 1.719 0.766 1.719 1.715" style="opacity:.1"/>
 <path d="m15.43 23.995c0 0.945-0.77 1.715-1.715 1.715-0.949 0-1.715-0.77-1.715-1.715 0-0.949 0.766-1.715 1.715-1.715 0.945 0 1.715 0.766 1.715 1.715" style="opacity:.1"/>
 <path d="m36 20.565c0 0.949-0.77 1.715-1.715 1.715-0.949 0-1.719-0.766-1.719-1.715s0.77-1.715 1.719-1.715c0.945 0 1.715 0.766 1.715 1.715" style="opacity:.1"/>
 <path d="m32.57 20.565c0 0.949-0.77 1.715-1.715 1.715-0.949 0-1.715-0.766-1.715-1.715s0.766-1.715 1.715-1.715c0.945 0 1.715 0.766 1.715 1.715" style="opacity:.1"/>
 <path d="m29.14 20.565c0 0.949-0.77 1.715-1.719 1.715-0.945 0-1.715-0.766-1.715-1.715s0.77-1.715 1.715-1.715c0.949 0 1.719 0.766 1.719 1.715" style="opacity:.1"/>
 <path d="m25.715 20.565c0 0.949-0.77 1.715-1.715 1.715-0.949 0-1.719-0.766-1.719-1.715s0.77-1.715 1.719-1.715c0.945 0 1.715 0.766 1.715 1.715" style="opacity:.1"/>
 <path d="m22.285 20.565c0 0.949-0.766 1.715-1.715 1.715s-1.715-0.766-1.715-1.715 0.766-1.715 1.715-1.715 1.715 0.766 1.715 1.715" style="opacity:.1"/>
 <path d="m18.859 20.565c0 0.949-0.77 1.715-1.719 1.715-0.945 0-1.715-0.766-1.715-1.715s0.77-1.715 1.715-1.715c0.949 0 1.719 0.766 1.719 1.715" style="opacity:.1"/>
 <path d="m15.43 20.565c0 0.949-0.77 1.715-1.715 1.715-0.949 0-1.715-0.766-1.715-1.715s0.766-1.715 1.715-1.715c0.945 0 1.715 0.766 1.715 1.715" style="opacity:.1"/>
 <path d="m36 17.135c0 0.949-0.77 1.719-1.715 1.719-0.949 0-1.719-0.77-1.719-1.719 0-0.945 0.77-1.715 1.719-1.715 0.945 0 1.715 0.77 1.715 1.715" style="opacity:.1"/>
 <path d="m32.57 17.135c0 0.949-0.77 1.719-1.715 1.719-0.949 0-1.715-0.77-1.715-1.719 0-0.945 0.766-1.715 1.715-1.715 0.945 0 1.715 0.77 1.715 1.715" style="opacity:.1"/>
 <path d="m29.14 17.135c0 0.949-0.77 1.719-1.719 1.719-0.945 0-1.715-0.77-1.715-1.719 0-0.945 0.77-1.715 1.715-1.715 0.949 0 1.719 0.77 1.719 1.715" style="opacity:.1"/>
 <path d="m25.715 17.135c0 0.949-0.77 1.719-1.715 1.719-0.949 0-1.719-0.77-1.719-1.719 0-0.945 0.77-1.715 1.719-1.715 0.945 0 1.715 0.77 1.715 1.715" style="opacity:.1"/>
 <path d="m22.285 17.135c0 0.949-0.766 1.719-1.715 1.719s-1.715-0.77-1.715-1.719c0-0.945 0.766-1.715 1.715-1.715s1.715 0.77 1.715 1.715" style="opacity:.1"/>
 <path d="m18.859 17.135c0 0.949-0.77 1.719-1.719 1.719-0.945 0-1.715-0.77-1.715-1.719 0-0.945 0.77-1.715 1.715-1.715 0.949 0 1.719 0.77 1.719 1.715" style="opacity:.1"/>
 <path d="m15.43 17.135c0 0.949-0.77 1.719-1.715 1.719-0.949 0-1.715-0.77-1.715-1.719 0-0.945 0.766-1.715 1.715-1.715 0.945 0 1.715 0.77 1.715 1.715" style="opacity:.1"/>
 <path d="m36 13.71c0 0.945-0.77 1.715-1.715 1.715-0.949 0-1.719-0.77-1.719-1.715 0-0.949 0.77-1.719 1.719-1.719 0.945 0 1.715 0.77 1.715 1.719" style="opacity:.1"/>
 <path d="m32.57 13.71c0 0.945-0.77 1.715-1.715 1.715-0.949 0-1.715-0.77-1.715-1.715 0-0.949 0.766-1.719 1.715-1.719 0.945 0 1.715 0.77 1.715 1.719" style="opacity:.1"/>
 <path d="m29.14 13.71c0 0.945-0.77 1.715-1.719 1.715-0.945 0-1.715-0.77-1.715-1.715 0-0.949 0.77-1.719 1.715-1.719 0.949 0 1.719 0.77 1.719 1.719" style="opacity:.1"/>
 <path d="m25.715 13.71c0 0.945-0.77 1.715-1.715 1.715-0.949 0-1.719-0.77-1.719-1.715 0-0.949 0.77-1.719 1.719-1.719 0.945 0 1.715 0.77 1.715 1.719" style="opacity:.1"/>
 <path d="m22.285 13.71c0 0.945-0.766 1.715-1.715 1.715s-1.715-0.77-1.715-1.715c0-0.949 0.766-1.719 1.715-1.719s1.715 0.77 1.715 1.719" style="opacity:.1"/>
 <path d="m18.859 13.71c0 0.945-0.77 1.715-1.719 1.715-0.945 0-1.715-0.77-1.715-1.715 0-0.949 0.77-1.719 1.715-1.719 0.949 0 1.719 0.77 1.719 1.719" style="opacity:.1"/>
 <path d="m15.43 13.71c0 0.945-0.77 1.715-1.715 1.715-0.949 0-1.715-0.77-1.715-1.715 0-0.949 0.766-1.719 1.715-1.719 0.945 0 1.715 0.77 1.715 1.719" style="opacity:.1"/>
 <path d="m36 33.285c0 0.949-0.77 1.715-1.715 1.715-0.949 0-1.719-0.766-1.719-1.715s0.77-1.715 1.719-1.715c0.945 0 1.715 0.766 1.715 1.715" style="fill:#9da2dc"/>
 <path d="m32.57 33.285c0 0.949-0.77 1.715-1.715 1.715-0.949 0-1.715-0.766-1.715-1.715s0.766-1.715 1.715-1.715c0.945 0 1.715 0.766 1.715 1.715" style="fill:#9da2dc"/>
 <path d="m29.14 33.285c0 0.949-0.77 1.715-1.719 1.715-0.945 0-1.715-0.766-1.715-1.715s0.77-1.715 1.715-1.715c0.949 0 1.719 0.766 1.719 1.715" style="fill:#9da2dc"/>
 <path d="m25.715 33.285c0 0.949-0.77 1.715-1.715 1.715-0.949 0-1.719-0.766-1.719-1.715s0.77-1.715 1.719-1.715c0.945 0 1.715 0.766 1.715 1.715" style="fill:#f9f9f9"/>
 <path d="m22.285 33.285c0 0.949-0.766 1.715-1.715 1.715s-1.715-0.766-1.715-1.715 0.766-1.715 1.715-1.715 1.715 0.766 1.715 1.715" style="fill:#f9f9f9"/>
 <path d="m18.859 33.285c0 0.949-0.77 1.715-1.719 1.715-0.945 0-1.715-0.766-1.715-1.715s0.77-1.715 1.715-1.715c0.949 0 1.719 0.766 1.719 1.715" style="fill:#9da2dc"/>
 <path d="m15.43 33.285c0 0.949-0.77 1.715-1.715 1.715-0.949 0-1.715-0.766-1.715-1.715s0.766-1.715 1.715-1.715c0.945 0 1.715 0.766 1.715 1.715" style="fill:#9da2dc"/>
 <path d="m36 29.85c0 0.949-0.77 1.719-1.715 1.719-0.949 0-1.719-0.77-1.719-1.719 0-0.945 0.77-1.715 1.719-1.715 0.945 0 1.715 0.77 1.715 1.715" style="fill:#9da2dc"/>
 <path d="m32.57 29.85c0 0.949-0.77 1.719-1.715 1.719-0.949 0-1.715-0.77-1.715-1.719 0-0.945 0.766-1.715 1.715-1.715 0.945 0 1.715 0.77 1.715 1.715" style="fill:#9da2dc"/>
 <path d="m29.14 29.85c0 0.949-0.77 1.719-1.719 1.719-0.945 0-1.715-0.77-1.715-1.719 0-0.945 0.77-1.715 1.715-1.715 0.949 0 1.719 0.77 1.719 1.715" style="fill:#9da2dc"/>
 <path d="m25.715 29.85c0 0.949-0.77 1.719-1.715 1.719-0.949 0-1.719-0.77-1.719-1.719 0-0.945 0.77-1.715 1.719-1.715 0.945 0 1.715 0.77 1.715 1.715" style="fill:#f9f9f9"/>
 <path d="m22.285 29.85c0 0.949-0.766 1.719-1.715 1.719s-1.715-0.77-1.715-1.719c0-0.945 0.766-1.715 1.715-1.715s1.715 0.77 1.715 1.715" style="fill:#9da2dc"/>
 <path d="m18.859 29.85c0 0.949-0.77 1.719-1.719 1.719-0.945 0-1.715-0.77-1.715-1.719 0-0.945 0.77-1.715 1.715-1.715 0.949 0 1.719 0.77 1.719 1.715" style="fill:#9da2dc"/>
 <path d="m15.43 29.85c0 0.949-0.77 1.719-1.715 1.719-0.949 0-1.715-0.77-1.715-1.719 0-0.945 0.766-1.715 1.715-1.715 0.945 0 1.715 0.77 1.715 1.715" style="fill:#9da2dc"/>
 <path d="m36 26.425c0 0.945-0.77 1.715-1.715 1.715-0.949 0-1.719-0.77-1.719-1.715 0-0.949 0.77-1.719 1.719-1.719 0.945 0 1.715 0.77 1.715 1.719" style="fill:#9da2dc"/>
 <path d="m32.57 26.425c0 0.945-0.77 1.715-1.715 1.715-0.949 0-1.715-0.77-1.715-1.715 0-0.949 0.766-1.719 1.715-1.719 0.945 0 1.715 0.77 1.715 1.719" style="fill:#9da2dc"/>
 <path d="m29.14 26.425c0 0.945-0.77 1.715-1.719 1.715-0.945 0-1.715-0.77-1.715-1.715 0-0.949 0.77-1.719 1.715-1.719 0.949 0 1.719 0.77 1.719 1.719" style="fill:#9da2dc"/>
 <path d="m25.715 26.425c0 0.945-0.77 1.715-1.715 1.715-0.949 0-1.719-0.77-1.719-1.715 0-0.949 0.77-1.719 1.719-1.719 0.945 0 1.715 0.77 1.715 1.719" style="fill:#f9f9f9"/>
 <path d="m22.285 26.425c0 0.945-0.766 1.715-1.715 1.715s-1.715-0.77-1.715-1.715c0-0.949 0.766-1.719 1.715-1.719s1.715 0.77 1.715 1.719" style="fill:#9da2dc"/>
 <path d="m18.859 26.425c0 0.945-0.77 1.715-1.719 1.715-0.945 0-1.715-0.77-1.715-1.715 0-0.949 0.77-1.719 1.715-1.719 0.949 0 1.719 0.77 1.719 1.719" style="fill:#9da2dc"/>
 <path d="m15.43 26.425c0 0.945-0.77 1.715-1.715 1.715-0.949 0-1.715-0.77-1.715-1.715 0-0.949 0.766-1.719 1.715-1.719 0.945 0 1.715 0.77 1.715 1.719" style="fill:#9da2dc"/>
 <path d="m36 22.995c0 0.945-0.77 1.715-1.715 1.715-0.949 0-1.719-0.77-1.719-1.715 0-0.949 0.77-1.715 1.719-1.715 0.945 0 1.715 0.766 1.715 1.715" style="fill:#9da2dc"/>
 <path d="m32.57 22.995c0 0.945-0.77 1.715-1.715 1.715-0.949 0-1.715-0.77-1.715-1.715 0-0.949 0.766-1.715 1.715-1.715 0.945 0 1.715 0.766 1.715 1.715" style="fill:#9da2dc"/>
 <path d="m29.14 22.995c0 0.945-0.77 1.715-1.719 1.715-0.945 0-1.715-0.77-1.715-1.715 0-0.949 0.77-1.715 1.715-1.715 0.949 0 1.719 0.766 1.719 1.715" style="fill:#9da2dc"/>
 <path d="m25.715 22.995c0 0.945-0.77 1.715-1.715 1.715-0.949 0-1.719-0.77-1.719-1.715 0-0.949 0.77-1.715 1.719-1.715 0.945 0 1.715 0.766 1.715 1.715" style="fill:#f9f9f9"/>
 <path d="m22.285 22.995c0 0.945-0.766 1.715-1.715 1.715s-1.715-0.77-1.715-1.715c0-0.949 0.766-1.715 1.715-1.715s1.715 0.766 1.715 1.715" style="fill:#9da2dc"/>
 <path d="m18.859 22.995c0 0.945-0.77 1.715-1.719 1.715-0.945 0-1.715-0.77-1.715-1.715 0-0.949 0.77-1.715 1.715-1.715 0.949 0 1.719 0.766 1.719 1.715" style="fill:#9da2dc"/>
 <path d="m15.43 22.995c0 0.945-0.77 1.715-1.715 1.715-0.949 0-1.715-0.77-1.715-1.715 0-0.949 0.766-1.715 1.715-1.715 0.945 0 1.715 0.766 1.715 1.715" style="fill:#9da2dc"/>
 <path d="m36 19.565c0 0.949-0.77 1.715-1.715 1.715-0.949 0-1.719-0.766-1.719-1.715s0.77-1.715 1.719-1.715c0.945 0 1.715 0.766 1.715 1.715" style="fill:#9da2dc"/>
 <path d="m32.57 19.565c0 0.949-0.77 1.715-1.715 1.715-0.949 0-1.715-0.766-1.715-1.715s0.766-1.715 1.715-1.715c0.945 0 1.715 0.766 1.715 1.715" style="fill:#9da2dc"/>
 <path d="m29.14 19.565c0 0.949-0.77 1.715-1.719 1.715-0.945 0-1.715-0.766-1.715-1.715s0.77-1.715 1.715-1.715c0.949 0 1.719 0.766 1.719 1.715" style="fill:#f9f9f9"/>
 <path d="m25.715 19.565c0 0.949-0.77 1.715-1.715 1.715-0.949 0-1.719-0.766-1.719-1.715s0.77-1.715 1.719-1.715c0.945 0 1.715 0.766 1.715 1.715" style="fill:#f9f9f9"/>
 <path d="m22.285 19.565c0 0.949-0.766 1.715-1.715 1.715s-1.715-0.766-1.715-1.715 0.766-1.715 1.715-1.715 1.715 0.766 1.715 1.715" style="fill:#f9f9f9"/>
 <path d="m18.859 19.565c0 0.949-0.77 1.715-1.719 1.715-0.945 0-1.715-0.766-1.715-1.715s0.77-1.715 1.715-1.715c0.949 0 1.719 0.766 1.719 1.715" style="fill:#9da2dc"/>
 <path d="m15.43 19.565c0 0.949-0.77 1.715-1.715 1.715-0.949 0-1.715-0.766-1.715-1.715s0.766-1.715 1.715-1.715c0.945 0 1.715 0.766 1.715 1.715" style="fill:#9da2dc"/>
 <path d="m36 16.135c0 0.949-0.77 1.719-1.715 1.719-0.949 0-1.719-0.77-1.719-1.719 0-0.945 0.77-1.715 1.719-1.715 0.945 0 1.715 0.77 1.715 1.715" style="fill:#9da2dc"/>
 <path d="m32.57 16.135c0 0.949-0.77 1.719-1.715 1.719-0.949 0-1.715-0.77-1.715-1.719 0-0.945 0.766-1.715 1.715-1.715 0.945 0 1.715 0.77 1.715 1.715" style="fill:#f9f9f9"/>
 <path d="m29.14 16.135c0 0.949-0.77 1.719-1.719 1.719-0.945 0-1.715-0.77-1.715-1.719 0-0.945 0.77-1.715 1.715-1.715 0.949 0 1.719 0.77 1.719 1.715" style="fill:#9da2dc"/>
 <path d="m25.715 16.135c0 0.949-0.77 1.719-1.715 1.719-0.949 0-1.719-0.77-1.719-1.719 0-0.945 0.77-1.715 1.719-1.715 0.945 0 1.715 0.77 1.715 1.715" style="fill:#9da2dc"/>
 <path d="m22.285 16.135c0 0.949-0.766 1.719-1.715 1.719s-1.715-0.77-1.715-1.719c0-0.945 0.766-1.715 1.715-1.715s1.715 0.77 1.715 1.715" style="fill:#9da2dc"/>
 <path d="m18.859 16.135c0 0.949-0.77 1.719-1.719 1.719-0.945 0-1.715-0.77-1.715-1.719 0-0.945 0.77-1.715 1.715-1.715 0.949 0 1.719 0.77 1.719 1.715" style="fill:#f9f9f9"/>
 <path d="m15.43 16.135c0 0.949-0.77 1.719-1.715 1.719-0.949 0-1.715-0.77-1.715-1.719 0-0.945 0.766-1.715 1.715-1.715 0.945 0 1.715 0.77 1.715 1.715" style="fill:#9da2dc"/>
 <path d="m36 12.71c0 0.945-0.77 1.715-1.715 1.715-0.949 0-1.719-0.77-1.719-1.715 0-0.949 0.77-1.719 1.719-1.719 0.945 0 1.715 0.77 1.715 1.719" style="fill:#9da2dc"/>
 <path d="m32.57 12.71c0 0.945-0.77 1.715-1.715 1.715-0.949 0-1.715-0.77-1.715-1.715 0-0.949 0.766-1.719 1.715-1.719 0.945 0 1.715 0.77 1.715 1.719" style="fill:#9da2dc"/>
 <path d="m29.14 12.71c0 0.945-0.77 1.715-1.719 1.715-0.945 0-1.715-0.77-1.715-1.715 0-0.949 0.77-1.719 1.715-1.719 0.949 0 1.719 0.77 1.719 1.719" style="fill:#f9f9f9"/>
 <path d="m25.715 12.71c0 0.945-0.77 1.715-1.715 1.715-0.949 0-1.719-0.77-1.719-1.715 0-0.949 0.77-1.719 1.719-1.719 0.945 0 1.715 0.77 1.715 1.719" style="fill:#f9f9f9"/>
 <path d="m22.285 12.71c0 0.945-0.766 1.715-1.715 1.715s-1.715-0.77-1.715-1.715c0-0.949 0.766-1.719 1.715-1.719s1.715 0.77 1.715 1.719" style="fill:#f9f9f9"/>
 <path d="m18.859 12.71c0 0.945-0.77 1.715-1.719 1.715-0.945 0-1.715-0.77-1.715-1.715 0-0.949 0.77-1.719 1.715-1.719 0.949 0 1.719 0.77 1.719 1.719" style="fill:#9da2dc"/>
 <path d="m15.43 12.71c0 0.945-0.77 1.715-1.715 1.715-0.949 0-1.715-0.77-1.715-1.715 0-0.949 0.766-1.719 1.715-1.719 0.945 0 1.715 0.77 1.715 1.719" style="fill:#9da2dc"/>
</svg>
