<svg id="svg37778" version="1.1" viewBox="0 0 48 48" xmlns="http://www.w3.org/2000/svg">
 <defs id="defs37734">
  <linearGradient id="linearGradient3764" x1="1" x2="47" gradientTransform="translate(-48 .0022147)" gradientUnits="userSpaceOnUse">
   <stop id="stop37719" stop-color="#c8cdd4" offset="0"/>
   <stop id="stop37721" stop-color="#d3d7dc" offset="1"/>
  </linearGradient>
  <clipPath id="clipPath-562034319">
   <g id="g37726" transform="translate(0 -1004.4)">
    <rect id="rect37724" x="1" y="1005.4" width="46" height="46" rx="4" fill="#1890d0"/>
   </g>
  </clipPath>
  <clipPath id="clipPath-575245502">
   <g id="g37731" transform="translate(0 -1004.4)">
    <rect id="rect37729" x="1" y="1005.4" width="46" height="46" rx="4" fill="#1890d0"/>
   </g>
  </clipPath>
 </defs>
 <g id="g37742">
  <path id="path37736" d="m1 43v0.25c0 2.216 1.784 4 4 4h38c2.216 0 4-1.784 4-4v-0.25c0 2.216-1.784 4-4 4h-38c-2.216 0-4-1.784-4-4zm0 0.5v0.5c0 2.216 1.784 4 4 4h38c2.216 0 4-1.784 4-4v-0.5c0 2.216-1.784 4-4 4h-38c-2.216 0-4-1.784-4-4z" opacity=".02"/>
  <path id="path37738" d="m1 43.25v0.25c0 2.216 1.784 4 4 4h38c2.216 0 4-1.784 4-4v-0.25c0 2.216-1.784 4-4 4h-38c-2.216 0-4-1.784-4-4z" opacity=".05"/>
  <path id="path37740" d="m1 43v0.25c0 2.216 1.784 4 4 4h38c2.216 0 4-1.784 4-4v-0.25c0 2.216-1.784 4-4 4h-38c-2.216 0-4-1.784-4-4z" opacity=".1"/>
 </g>
 <g id="g37746">
  <rect id="rect37744" transform="rotate(-90)" x="-47" y="1" width="46" height="46" rx="4" fill="url(#linearGradient3764)"/>
 </g>
 <g id="g37758">
  <g id="g37756" clip-path="url(#clipPath-562034319)">
   <g id="g37754" opacity=".1">
    <g id="g37752" stroke="#283d70">
     <path id="path37748" transform="matrix(3.233 0 0 3.2695 2.475 2.2487)" d="m9.803 3.153c-0.535-0.398-3.888 3.202-4.04 3.13-0.25-0.147 0.412-2.681 0.145-2.804-0.505-0.245-2.832 4.442-3.441 6.123l0.484 0.423c0.822-2.03 5.07 0.399 5.28 0.135 0.124-0.208-2.357-1.767-2.247-1.994 0.175-0.355 4.319 1.28 4.467 1.031 0.116-0.202-1.897-1.712-1.874-1.92 0.099-0.233 2.948-1.325 2.884-1.608-0.353-0.859-4.867 1.41-5.076 1.151-0.121-0.225 3.776-3.373 3.414-3.667" stroke-width=".282"/>
     <path id="path37750" transform="matrix(.91244 0 0 .92274 2.475 2.2487)" d="m19.438 24.813c-6.687 3.179-9.877 9.906-9.877 9.906 1.995-3.264 3.677-6.511 9.877-9.906"/>
    </g>
   </g>
  </g>
 </g>
 <g id="g37770">
  <g id="g37768" clip-path="url(#clipPath-575245502)">
   <g id="g37766" transform="translate(0,-1)">
    <g id="g37764" fill="#209cff" stroke="#283d70">
     <path id="path37760" transform="matrix(3.233 0 0 3.2695 2.475 2.2487)" d="m9.803 3.153c-0.535-0.398-3.888 3.202-4.04 3.13-0.25-0.147 0.412-2.681 0.145-2.804-0.505-0.245-2.832 4.442-3.441 6.123l0.484 0.423c0.822-2.03 5.07 0.399 5.28 0.135 0.124-0.208-2.357-1.767-2.247-1.994 0.175-0.355 4.319 1.28 4.467 1.031 0.116-0.202-1.897-1.712-1.874-1.92 0.099-0.233 2.948-1.325 2.884-1.608-0.353-0.859-4.867 1.41-5.076 1.151-0.121-0.225 3.776-3.373 3.414-3.667" stroke-width=".282"/>
     <path id="path37762" transform="matrix(.91244 0 0 .92274 2.475 2.2487)" d="m19.438 24.813c-6.687 3.179-9.877 9.906-9.877 9.906 1.995-3.264 3.677-6.511 9.877-9.906"/>
    </g>
   </g>
  </g>
 </g>
 <g id="g37776">
  <g id="g37774" transform="translate(0 -1004.4)">
   <path id="path37772" d="m1 1043.4v4c0 2.216 1.784 4 4 4h38c2.216 0 4-1.784 4-4v-4c0 2.216-1.784 4-4 4h-38c-2.216 0-4-1.784-4-4z" opacity=".1"/>
  </g>
 </g>
</svg>
