<svg version="1.1" viewBox="0 0 48 48" xmlns="http://www.w3.org/2000/svg">
 <defs>
  <linearGradient id="bg" x2="0" y1="1" y2="47" gradientUnits="userSpaceOnUse">
   <stop style="stop-color:#344e3c" offset="0"/>
   <stop style="stop-color:#2c4233" offset="1"/>
  </linearGradient>
 </defs>
 <path d="m1 43v0.25c0 2.216 1.784 4 4 4h38c2.216 0 4-1.784 4-4v-0.25c0 2.216-1.784 4-4 4h-38c-2.216 0-4-1.784-4-4zm0 0.5v0.5c0 2.216 1.784 4 4 4h38c2.216 0 4-1.784 4-4v-0.5c0 2.216-1.784 4-4 4h-38c-2.216 0-4-1.784-4-4z" style="opacity:.02"/>
 <path d="m1 43.25v0.25c0 2.216 1.784 4 4 4h38c2.216 0 4-1.784 4-4v-0.25c0 2.216-1.784 4-4 4h-38c-2.216 0-4-1.784-4-4z" style="opacity:.05"/>
 <path d="m1 43v0.25c0 2.216 1.784 4 4 4h38c2.216 0 4-1.784 4-4v-0.25c0 2.216-1.784 4-4 4h-38c-2.216 0-4-1.784-4-4z" style="opacity:.1"/>
 <rect x="1" y="1" width="46" height="46" rx="4" style="fill:url(#bg)"/>
 <path d="m1 39v4c0 2.216 1.784 4 4 4h38c2.216 0 4-1.784 4-4v-4c0 2.216-1.784 4-4 4h-38c-2.216 0-4-1.784-4-4z" style="opacity:.1"/>
 <path d="m22 11-2 3 2 3-0.66602 1-1.334-2h-3l-1 2 1 2-2 3 2 3-2 3 2 3-1 2 1 2h3l1.334-2 0.66602 1h4l0.66602-1 1.334 2h3l1-2-1-2 2-3-2-3 2-3-2-3 1-2-1-2h-3l-1.334 2-0.66602-1 2-3-2-3z" style="opacity:.1;paint-order:normal"/>
 <path d="m23 10-1.666 1-1.334 2 2 3 2 1 2-1 2-3-1.334-2-1.666-1zm-6 5-1 2 1 2 3 1 2-2-2-3zm11 0-2 3 2 2 3-1 1-2-1-2zm-8 15-3 1-1 2 1 2h3l2-3zm8 0-2 2 2 3h3l1-2-1-2z" style="fill:#ded768;paint-order:normal"/>
 <path d="m20 30-3 1-0.28516 0.57227 0.28516 0.42773h3l1 1.5 1-1.5zm8 0-2 2 1 1.5 1-1.5h3l0.28516-0.42773-0.28516-0.57227z" style="opacity:.1;paint-order:normal"/>
 <path d="m22 16-2 3h-3l-2 3 2 3-2 3 2 3h3l2 3h4l2-3h3l2-3-2-3 2-3-2-3h-3l-2-3z" style="fill:#49a22d;paint-order:normal"/>
 <path d="m22 10-0.66602 1h1.666v-1zm3 0v1h1.666l-0.66602-1z" style="fill:#303030;paint-order:normal"/>
</svg>
