<svg version="1.1" viewBox="0 0 48 48" xmlns="http://www.w3.org/2000/svg">
 <defs>
  <linearGradient id="bg" x1="1" x2="47" gradientTransform="translate(-48)" gradientUnits="userSpaceOnUse">
   <stop style="stop-color:#dbdbdb" offset="0"/>
   <stop style="stop-color:#e5e5e5" offset="1"/>
  </linearGradient>
 </defs>
 <path d="m1 43v0.25c0 2.22 1.78 4 4 4h38c2.22 0 4-1.78 4-4v-0.25c0 2.22-1.78 4-4 4h-38c-2.22 0-4-1.78-4-4zm0 0.5v0.5c0 2.22 1.78 4 4 4h38c2.22 0 4-1.78 4-4v-0.5c0 2.22-1.78 4-4 4h-38c-2.22 0-4-1.78-4-4z" style="opacity:.02"/>
 <path d="m1 43.2v0.25c0 2.22 1.78 4 4 4h38c2.22 0 4-1.78 4-4v-0.25c0 2.22-1.78 4-4 4h-38c-2.22 0-4-1.78-4-4z" style="opacity:.05"/>
 <path d="m1 43v0.25c0 2.22 1.78 4 4 4h38c2.22 0 4-1.78 4-4v-0.25c0 2.22-1.78 4-4 4h-38c-2.22 0-4-1.78-4-4z" style="opacity:.1"/>
 <rect transform="rotate(-90)" x="-47" y="1" width="46" height="46" rx="4" style="fill:url(#bg)"/>
 <path d="m20 12c-0.551 0-1 0.449-1 1s0.449 1 1 1c0.0723 0 0.143-0.00681 0.211-0.0215l0.721 1.44 0.961-0.959 0.703 2.11c-0.368 0.363-0.596 0.866-0.596 1.42h-6c-1.66 0-3 1.34-3 3v9c0 1.66 1.34 3 3 3h16c1.66 0 3-1.34 3-3v-9c0-1.66-1.34-3-3-3h-6c0-0.528-0.205-1.01-0.539-1.37l1.33-2.66c0.068 0.0147 0.139 0.0215 0.211 0.0215 0.551 0 1-0.449 1-1s-0.449-1-1-1-1 0.449-1 1c0 0.3 0.133 0.57 0.344 0.754l-1.28 2.55c-0.309-0.195-0.674-0.309-1.07-0.309-0.358 0-0.694 0.095-0.984 0.26l-0.906-2.72-1.04 1.04-0.412-0.824c0.211-0.184 0.346-0.453 0.346-0.754 0-0.551-0.449-1-1-1z" style="opacity:.1"/>
 <path d="m25 17 2-4z" style="opacity:.1"/>
 <path d="m22 24.5c0 1.38-0.672 2.5-1.5 2.5s-1.5-1.12-1.5-2.5 0.672-2.5 1.5-2.5 1.5 1.12 1.5 2.5" style="opacity:.1"/>
 <path d="m29 24.5c0 1.38-0.672 2.5-1.5 2.5s-1.5-1.12-1.5-2.5 0.672-2.5 1.5-2.5 1.5 1.12 1.5 2.5" style="opacity:.1"/>
 <path d="m21 25c0 0.551-0.223 1-0.5 1s-0.5-0.449-0.5-1 0.223-1 0.5-1 0.5 0.449 0.5 1" style="opacity:.1"/>
 <path d="m28 25c0 0.551-0.223 1-0.5 1s-0.5-0.449-0.5-1 0.223-1 0.5-1 0.5 0.449 0.5 1" style="opacity:.1"/>
 <path d="m21 28.5-0.5 0.781c1.04 0.414 2.23 0.688 3.53 0.688s2.49-0.273 3.53-0.688l-0.5-0.781c-0.922 0.297-1.94 0.469-3.03 0.469-1.09 0-2.11-0.172-3.03-0.469" style="opacity:.1"/>
 <path d="m16 17h16c1.66 0 3 1.34 3 3v9c0 1.66-1.34 3-3 3h-16c-1.66 0-3-1.34-3-3v-9c0-1.66 1.34-3 3-3" style="fill:#555"/>
 <path d="m16.5 19h15.1c0.805 0 1.46 0.652 1.46 1.45v8.09c0 0.805-0.652 1.46-1.46 1.46h-15.1c-0.805 0-1.46-0.652-1.46-1.46v-8.09c0-0.801 0.652-1.45 1.46-1.45" style="fill:#8c8c8c"/>
 <path d="m20 11c-0.551 0-1 0.449-1 1s0.449 1 1 1c0.0723 0 0.143-0.00681 0.211-0.0215l0.721 1.44 0.961-0.959 0.703 2.11c-0.368 0.363-0.596 0.866-0.596 1.42 0 1.1 0.895 2 2 2s2-0.895 2-2c0-0.528-0.205-1.01-0.539-1.37l1.33-2.66c0.068 0.0147 0.139 0.0215 0.211 0.0215 0.551 0 1-0.449 1-1s-0.449-1-1-1-1 0.449-1 1c0 0.301 0.135 0.57 0.346 0.754l-1.28 2.55c-0.309-0.196-0.675-0.309-1.07-0.309-0.358 0-0.694 0.095-0.984 0.26l-0.906-2.72-1.04 1.04-0.412-0.824c0.211-0.184 0.346-0.453 0.346-0.754 0-0.551-0.449-1-1-1z" style="fill:#555"/>
 <path d="m20.5 21c-0.828 0-1.5 1.12-1.5 2.5s0.672 2.5 1.5 2.5 1.5-1.12 1.5-2.5-0.672-2.5-1.5-2.5zm7 0c-0.828 0-1.5 1.12-1.5 2.5s0.672 2.5 1.5 2.5 1.5-1.12 1.5-2.5-0.672-2.5-1.5-2.5z" style="fill:#f9f9f9"/>
 <path d="m20.5 23c-0.277 0-0.5 0.449-0.5 1s0.223 1 0.5 1 0.5-0.449 0.5-1-0.223-1-0.5-1zm7 0c-0.277 0-0.5 0.449-0.5 1s0.223 1 0.5 1 0.5-0.449 0.5-1-0.223-1-0.5-1zm-6.53 4.53-0.5 0.781c1.04 0.414 2.23 0.688 3.53 0.688s2.49-0.272 3.53-0.688l-0.5-0.781c-0.922 0.297-1.94 0.469-3.03 0.469-1.09 0-2.11-0.172-3.03-0.469h-0.00195z" style="fill:#555"/>
 <path d="m1 39v4c0 2.22 1.78 4 4 4h38c2.22 0 4-1.78 4-4v-4c0 2.22-1.78 4-4 4h-38c-2.22 0-4-1.78-4-4z" style="opacity:.1"/>
</svg>
