<svg style="" viewBox="0 0 48 48" xmlns="http://www.w3.org/2000/svg" xmlns:xlink="http://www.w3.org/1999/xlink">
 <defs style="">
  <linearGradient id="linearGradient3764" gradientTransform="translate(-48 .002215)" gradientUnits="userSpaceOnUse" style="" x1="1" x2="47">
   <stop offset="0" style="stop-color:#cdc2b7"/>
   <stop offset="1" style="stop-color:#d5ccc2"/>
  </linearGradient>
 </defs>
 <path d="m 1 43 v .25 c 0 2.216 1.784 4 4 4 h 38 c 2.216 0 4 -1.784 4 -4 v -.25 c 0 2.216 -1.784 4 -4 4 h -38 c -2.216 0 -4 -1.784 -4 -4 z m 0 .5 v .5 c 0 2.216 1.784 4 4 4 h 38 c 2.216 0 4 -1.784 4 -4 v -.5 c 0 2.216 -1.784 4 -4 4 h -38 c -2.216 0 -4 -1.784 -4 -4 z" style="opacity:.02"/>
 <path d="m 1 43.25 v .25 c 0 2.216 1.784 4 4 4 h 38 c 2.216 0 4 -1.784 4 -4 v -.25 c 0 2.216 -1.784 4 -4 4 h -38 c -2.216 0 -4 -1.784 -4 -4 z" style="opacity:.05"/>
 <path d="m 1 43 v .25 c 0 2.216 1.784 4 4 4 h 38 c 2.216 0 4 -1.784 4 -4 v -.25 c 0 2.216 -1.784 4 -4 4 h -38 c -2.216 0 -4 -1.784 -4 -4 z" style="opacity:.1"/>
 <rect height="46" rx="4" style="fill:url(#linearGradient3764)" transform="rotate(-90)" width="46" x="-47" y="1"/>
 <g style="opacity:.1">
  <path d="m 26.22 32.461 c -.672 .168 -1.563 .348 -2.676 .535 -1.09 .191 -2.359 .285 -3.809 .285 -1.258 0 -2.316 -.18 -3.18 -.535 -.859 -.379 -1.551 -.902 -2.074 -1.574 -.527 -.672 -.902 -1.457 -1.133 -2.359 -.23 -.926 -.348 -1.941 -.348 -3.055 v -9.191 h 3 v 8.563 c 0 1.992 .242 3.422 .871 4.281 .633 .859 1.691 1.289 3.18 1.289 .316 0 .641 -.008 .977 -.031 .336 -.02 .652 -.039 .945 -.063 .293 -.039 .555 -.07 .785 -.094 .254 -.039 .137 -.082 .242 -.125 v -13.816 h 3 v 15.895" style=""/>
  <path d="m 31 11 h 2 v 26 h -2" style=""/>
 </g>
 <path d="m 26.22 31.461 c -.672 .168 -1.563 .348 -2.676 .535 -1.09 .191 -2.359 .285 -3.809 .285 -1.258 0 -2.316 -.18 -3.18 -.535 -.859 -.379 -1.551 -.902 -2.074 -1.574 -.527 -.672 -.902 -1.457 -1.133 -2.359 -.23 -.926 -.348 -1.941 -.348 -3.055 v -9.191 h 3 v 8.563 c 0 1.992 .242 3.422 .871 4.281 .633 .859 1.691 1.289 3.18 1.289 .316 0 .641 -.008 .977 -.031 .336 -.02 .652 -.039 .945 -.063 .293 -.039 .555 -.07 .785 -.094 .254 -.039 .137 -.082 .242 -.125 v -13.816 h 3 v 15.895" style="fill:#f60"/>
 <path d="m 31 10 h 2 v 26 h -2" style="fill:#2d2d2d"/>
 <path d="m 1 39 v 4 c 0 2.216 1.784 4 4 4 h 38 c 2.216 0 4 -1.784 4 -4 v -4 c 0 2.216 -1.784 4 -4 4 h -38 c -2.216 0 -4 -1.784 -4 -4 z" style="opacity:.1"/>
</svg>
