<svg width="48" height="48" version="1.1" viewBox="0 0 48 48.000001" xmlns="http://www.w3.org/2000/svg">
 <defs>
  <linearGradient id="linearGradient4501" x1="-47" x2="-1" y1="2.8779e-15" y2="6.1232e-17" gradientUnits="userSpaceOnUse">
   <stop style="stop-color:#f0e8cc" offset="0"/>
   <stop style="stop-color:#f5efdb" offset="1"/>
  </linearGradient>
 </defs>
 <g transform="translate(0 3.949e-5)">
  <path d="m1 43v0.25c0 2.216 1.784 4 4 4h38c2.216 0 4-1.784 4-4v-0.25c0 2.216-1.784 4-4 4h-38c-2.216 0-4-1.784-4-4zm0 0.5v0.5c0 2.216 1.784 4 4 4h38c2.216 0 4-1.784 4-4v-0.5c0 2.216-1.784 4-4 4h-38c-2.216 0-4-1.784-4-4z" style="opacity:.02"/>
  <path d="m1 43.25v0.25c0 2.216 1.784 4 4 4h38c2.216 0 4-1.784 4-4v-0.25c0 2.216-1.784 4-4 4h-38c-2.216 0-4-1.784-4-4z" style="opacity:.05"/>
  <path d="m1 43v0.25c0 2.216 1.784 4 4 4h38c2.216 0 4-1.784 4-4v-0.25c0 2.216-1.784 4-4 4h-38c-2.216 0-4-1.784-4-4z" style="opacity:.1"/>
 </g>
 <rect transform="rotate(-90)" x="-47" y="1" width="46" height="46" rx="4" style="fill:url(#linearGradient4501)"/>
 <g transform="translate(0 3.949e-5)">
  <g transform="translate(0 -1004.4)">
   <path d="m1 1043.4v4c0 2.216 1.784 4 4 4h38c2.216 0 4-1.784 4-4v-4c0 2.216-1.784 4-4 4h-38c-2.216 0-4-1.784-4-4z" style="opacity:.1"/>
  </g>
 </g>
 <path d="m24 11c-0.552 0-1 0.448-1 1l-12 10v2h12.5v9h-0.5v3.5c0 0.277 0.223 0.5 0.5 0.5h1c0.277 0 0.5-0.223 0.5-0.5v-3.5h-0.5v-9h12.5v-2l-12-10c0-0.552-0.448-1-1-1z" style="fill-opacity:.098"/>
 <path d="m27 20.5h6v2.5h-6z" style="fill:#d8dee0"/>
 <rect x="23.5" y="18" width="1" height="15" style="fill:#7d7d7d"/>
 <path d="m25 32v3.5c0 0.277-0.223 0.5-0.5 0.5h-1c-0.277 0-0.5-0.223-0.5-0.5v-3.5z" style="fill:#424242"/>
 <circle cx="24" cy="11" r="1" style="fill:#8c8c8c"/>
 <path d="m15 21c2.032-0.416 4.03-0.349 6 0v2h-6z" style="fill:#d8dee0"/>
 <path d="m35 21h-22l10-10h2z" style="fill-rule:evenodd;fill:#e1e9eb"/>
 <path d="m20.5 21c0.5-1 6.5-1 7 0v2h-7z" style="fill:#3d7389"/>
 <path d="m27.5 21h-7l3.25-10h0.5z" style="fill-rule:evenodd;fill:#3f839f"/>
 <path d="m11 21 4.25-0.5v2.5h-4.25z" style="fill:#3d7389"/>
 <path d="m15.25 21h-4.25l12-10h0.25z" style="fill-rule:evenodd;fill:#3f839f"/>
 <path d="m32.75 20.5 4.25 0.5v2h-4.25z" style="fill:#3d7389"/>
 <path d="m32.75 21h4.25l-12-10h-0.25" style="fill-rule:evenodd;fill:#3f839f"/>
</svg>
