<?xml version="1.0" encoding="UTF-8" standalone="no"?>
<svg
   xmlns:dc="http://purl.org/dc/elements/1.1/"
   xmlns:cc="http://creativecommons.org/ns#"
   xmlns:rdf="http://www.w3.org/1999/02/22-rdf-syntax-ns#"
   xmlns:svg="http://www.w3.org/2000/svg"
   xmlns="http://www.w3.org/2000/svg"
   xmlns:sodipodi="http://sodipodi.sourceforge.net/DTD/sodipodi-0.dtd"
   xmlns:inkscape="http://www.inkscape.org/namespaces/inkscape"
   viewBox="0 0 48 48"
   version="1.1"
   id="svg38606"
   sodipodi:docname="unity-tweak-tool.svg">
  <metadata
     id="metadata38610">
    <rdf:RDF>
      <cc:Work
         rdf:about="">
        <dc:format>image/svg+xml</dc:format>
        <dc:type
           rdf:resource="http://purl.org/dc/dcmitype/StillImage" />
      </cc:Work>
    </rdf:RDF>
  </metadata>
  <sodipodi:namedview
     pagecolor="#ffffff"
     bordercolor="#666666"
     borderopacity="1"
     objecttolerance="10"
     gridtolerance="10"
     guidetolerance="10"
     inkscape:pageopacity="0"
     inkscape:pageshadow="2"
     inkscape:window-width="640"
     inkscape:window-height="480"
     id="namedview38608" />
  <defs
     id="defs38538">
    <linearGradient
       id="linearGradient3764"
       x1="1"
       x2="47"
       gradientUnits="userSpaceOnUse"
       gradientTransform="translate(-48.000001,0.00221467)">
      <stop
         stop-color="#f78588"
         stop-opacity="1"
         id="stop38523" />
      <stop
         offset="1"
         stop-color="#f89799"
         stop-opacity="1"
         id="stop38525" />
    </linearGradient>
    <clipPath
       id="clipPath-792548649">
      <g
         transform="translate(0,-1004.3622)"
         id="g38530">
        <rect
           rx="4"
           y="1005.36"
           x="1"
           height="46"
           width="46"
           fill="#1890d0"
           id="rect38528" />
      </g>
    </clipPath>
    <clipPath
       id="clipPath-821571827">
      <g
         transform="translate(0,-1004.3622)"
         id="g38535">
        <rect
           rx="4"
           y="1005.36"
           x="1"
           height="46"
           width="46"
           fill="#1890d0"
           id="rect38533" />
      </g>
    </clipPath>
  </defs>
  <g
     id="g38546">
    <path
       d="m 1 43 l 0 0.25 c 0 2.216 1.784 4 4 4 l 38 0 c 2.216 0 4 -1.784 4 -4 l 0 -0.25 c 0 2.216 -1.784 4 -4 4 l -38 0 c -2.216 0 -4 -1.784 -4 -4 z m 0 0.5 l 0 0.5 c 0 2.216 1.784 4 4 4 l 38 0 c 2.216 0 4 -1.784 4 -4 l 0 -0.5 c 0 2.216 -1.784 4 -4 4 l -38 0 c -2.216 0 -4 -1.784 -4 -4 z"
       opacity="0.02"
       id="path38540" />
    <path
       d="m 1 43.25 l 0 0.25 c 0 2.216 1.784 4 4 4 l 38 0 c 2.216 0 4 -1.784 4 -4 l 0 -0.25 c 0 2.216 -1.784 4 -4 4 l -38 0 c -2.216 0 -4 -1.784 -4 -4 z"
       opacity="0.05"
       id="path38542" />
    <path
       d="m 1 43 l 0 0.25 c 0 2.216 1.784 4 4 4 l 38 0 c 2.216 0 4 -1.784 4 -4 l 0 -0.25 c 0 2.216 -1.784 4 -4 4 l -38 0 c -2.216 0 -4 -1.784 -4 -4 z"
       opacity="0.1"
       id="path38544" />
  </g>
  <g
     id="g38550">
    <rect
       width="46"
       height="46"
       x="-47"
       y="1"
       rx="4"
       transform="matrix(0,-1,1,0,0,0)"
       fill="url(#linearGradient3764)"
       fill-opacity="1"
       id="rect38548" />
  </g>
  <g
     id="g38574">
    <g
       clip-path="url(#clipPath-792548649)"
       id="g38572">
      <g
         opacity="0.1"
         id="g38570">
        <!-- color: #f89799 -->
        <g
           id="g38568">
          <path
             d="m 20.328 18 l 11.344 0 c 2.391 0 4.328 1.938 4.328 4.328 l 0 3.348 c 0 2.387 -1.938 4.324 -4.328 4.324 l -11.344 0 c -2.391 0 -4.328 -1.938 -4.328 -4.324 l 0 -3.348 c 0 -2.391 1.938 -4.328 4.328 -4.328 m 0 0"
             stroke="none"
             fill-rule="nonzero"
             fill-opacity="1"
             fill="#000"
             id="path38552" />
          <path
             d="m 26 24 c 0 3.867 -3.133 7 -7 7 c -3.867 0 -7 -3.133 -7 -7 c 0 -3.867 3.133 -7 7 -7 c 3.867 0 7 3.133 7 7 m 0 0"
             stroke="none"
             fill-rule="nonzero"
             fill-opacity="1"
             fill="#000"
             id="path38554" />
          <path
             d="m 23 24 c 0 2.211 -1.789 4 -4 4 c -2.211 0 -4 -1.789 -4 -4 c 0 -2.211 1.789 -4 4 -4 c 2.211 0 4 1.789 4 4 m 0 0"
             stroke="none"
             fill-rule="nonzero"
             fill-opacity="1"
             fill="#000"
             id="path38556" />
          <path
             d="m 15 18 l 20 0 c 1.105 0 2 0.895 2 2 l 0 8 c 0 1.102 -0.895 1.996 -2 1.996 l -20 0 c -1.105 0 -2 -0.895 -2 -1.996 l 0 -8 c 0 -1.105 0.895 -2 2 -2 m 0 0"
             stroke="none"
             fill-rule="nonzero"
             fill-opacity="1"
             fill="#000"
             id="path38558" />
          <path
             d="m 12.75 17 l 10.496 0 c 0.969 0 1.75 0.785 1.75 1.75 l 0 10.5 c 0 0.965 -0.781 1.75 -1.75 1.75 l -10.496 0 c -0.969 0 -1.75 -0.785 -1.75 -1.75 l 0 -10.5 c 0 -0.965 0.781 -1.75 1.75 -1.75 m 0 0"
             stroke="none"
             fill-rule="nonzero"
             fill-opacity="1"
             fill="#000"
             id="path38560" />
          <path
             d="m 14 19 l 8 0 l 0 1.996 l -8 0 m 0 -1.996"
             stroke="none"
             fill-rule="nonzero"
             fill-opacity="1"
             fill="#000"
             id="path38562" />
          <path
             d="m 14 23 l 8 0 l 0 1.996 l -8 0 m 0 -1.996"
             stroke="none"
             fill-rule="nonzero"
             fill-opacity="1"
             fill="#000"
             id="path38564" />
          <path
             d="m 14 27 l 8 0 l 0 2 l -8 0 m 0 -2"
             stroke="none"
             fill-rule="nonzero"
             fill-opacity="1"
             fill="#000"
             id="path38566" />
        </g>
      </g>
    </g>
  </g>
  <g
     id="g38598">
    <g
       clip-path="url(#clipPath-821571827)"
       id="g38596">
      <g
         transform="translate(0,-1)"
         id="g38594">
        <!-- color: #f89799 -->
        <g
           id="g38592">
          <path
             d="m 20.328 18 l 11.344 0 c 2.391 0 4.328 1.938 4.328 4.328 l 0 3.348 c 0 2.387 -1.938 4.324 -4.328 4.324 l -11.344 0 c -2.391 0 -4.328 -1.938 -4.328 -4.324 l 0 -3.348 c 0 -2.391 1.938 -4.328 4.328 -4.328 m 0 0"
             fill="#f9f9f9"
             stroke="none"
             fill-rule="nonzero"
             fill-opacity="1"
             id="path38576" />
          <path
             d="m 26 24 c 0 3.867 -3.133 7 -7 7 c -3.867 0 -7 -3.133 -7 -7 c 0 -3.867 3.133 -7 7 -7 c 3.867 0 7 3.133 7 7 m 0 0"
             fill="#e586ab"
             stroke="none"
             fill-rule="nonzero"
             fill-opacity="1"
             id="path38578" />
          <path
             d="m 23 24 c 0 2.211 -1.789 4 -4 4 c -2.211 0 -4 -1.789 -4 -4 c 0 -2.211 1.789 -4 4 -4 c 2.211 0 4 1.789 4 4 m 0 0"
             fill="#d63669"
             stroke="none"
             fill-rule="nonzero"
             fill-opacity="1"
             id="path38580" />
          <path
             d="m 15 18 l 20 0 c 1.105 0 2 0.895 2 2 l 0 8 c 0 1.102 -0.895 1.996 -2 1.996 l -20 0 c -1.105 0 -2 -0.895 -2 -1.996 l 0 -8 c 0 -1.105 0.895 -2 2 -2 m 0 0"
             fill="#e52f6f"
             stroke="none"
             fill-rule="nonzero"
             fill-opacity="1"
             id="path38582" />
          <path
             d="m 12.75 17 l 10.496 0 c 0.969 0 1.75 0.785 1.75 1.75 l 0 10.5 c 0 0.965 -0.781 1.75 -1.75 1.75 l -10.496 0 c -0.969 0 -1.75 -0.785 -1.75 -1.75 l 0 -10.5 c 0 -0.965 0.781 -1.75 1.75 -1.75 m 0 0"
             fill="#f9f9f9"
             stroke="none"
             fill-rule="nonzero"
             fill-opacity="1"
             id="path38584" />
          <path
             d="m 14 19 l 8 0 l 0 1.996 l -8 0 m 0 -1.996"
             fill="#c8c8c8"
             stroke="none"
             fill-rule="nonzero"
             fill-opacity="1"
             id="path38586" />
          <path
             d="m 14 23 l 8 0 l 0 1.996 l -8 0 m 0 -1.996"
             fill="#c8c8c8"
             stroke="none"
             fill-rule="nonzero"
             fill-opacity="1"
             id="path38588" />
          <path
             d="m 14 27 l 8 0 l 0 2 l -8 0 m 0 -2"
             fill="#c8c8c8"
             stroke="none"
             fill-rule="nonzero"
             fill-opacity="1"
             id="path38590" />
        </g>
      </g>
    </g>
  </g>
  <g
     id="g38604">
    <g
       transform="translate(0,-1004.3622)"
       id="g38602">
      <path
         d="m 1 1043.36 0 4 c 0 2.216 1.784 4 4 4 l 38 0 c 2.216 0 4 -1.784 4 -4 l 0 -4 c 0 2.216 -1.784 4 -4 4 l -38 0 c -2.216 0 -4 -1.784 -4 -4 z"
         opacity="0.1"
         id="path38600" />
    </g>
  </g>
</svg>
