<?xml version="1.0" encoding="UTF-8"?>
<svg version="1.1" viewBox="0 0 48 48" xmlns="http://www.w3.org/2000/svg">
 <defs>
  <linearGradient id="bg" x2="0" y1="1" y2="47" gradientUnits="userSpaceOnUse">
   <stop style="stop-color:#535f64" offset="0"/>
   <stop style="stop-color:#4a5459" offset="1"/>
  </linearGradient>
 </defs>
 <path d="m1 43v0.25c0 2.22 1.78 4 4 4h38c2.22 0 4-1.78 4-4v-0.25c0 2.22-1.78 4-4 4h-38c-2.22 0-4-1.78-4-4zm0 0.5v0.5c0 2.22 1.78 4 4 4h38c2.22 0 4-1.78 4-4v-0.5c0 2.22-1.78 4-4 4h-38c-2.22 0-4-1.78-4-4z" style="opacity:.02"/>
 <path d="m1 43.2v0.25c0 2.22 1.78 4 4 4h38c2.22 0 4-1.78 4-4v-0.25c0 2.22-1.78 4-4 4h-38c-2.22 0-4-1.78-4-4z" style="opacity:.05"/>
 <path d="m1 43v0.25c0 2.22 1.78 4 4 4h38c2.22 0 4-1.78 4-4v-0.25c0 2.22-1.78 4-4 4h-38c-2.22 0-4-1.78-4-4z" style="opacity:.1"/>
 <rect x="1" y="1" width="46" height="46" rx="4" style="fill:url(#bg)"/>
 <path d="m1 39v4c0 2.22 1.78 4 4 4h38c2.22 0 4-1.78 4-4v-4c0 2.22-1.78 4-4 4h-38c-2.22 0-4-1.78-4-4z" style="opacity:.1"/>
 <path d="m12 19v5h1l3.5-3.5 2 2-5.5 5.5v2l5 5h4v-2l3.5-3.5 2 2-3.5 3.5v1h5l7-7v-2l-7 3-2-2 3-3h6v-9l-16 5-2-2 4-4v-2z" style="opacity:.1"/>
 <path d="m16.5 16.5 14 14-2 1-13-13z" style="fill:#899187"/>
 <path d="m19 11-7 7v5h1l9-9v-2l-1-1zm4 0v6l-8 8h-2v4l5 5h4v-2l8-8h6v-9l-4-4zm10 14-9 9v1h5l7-7v-2l-1-1z" style="fill:#19dc19"/>
 <path d="m15.5 24.5-0.5 0.5 7 7 0.5-0.5z" style="opacity:.4"/>
 <path d="m18.5 11.5-1 1 3 3 1-1zm7.5 1.5v2h3l3 3v3h2v-4l-4-4zm6.5 12.5-1 1 3 3 1-1z" style="fill:#f9f9f9;opacity:.8"/>
 <path d="m18 18-1.5 1.5 0.5 0.5 1.5-1.5zm9 9-1.5 1.5 0.5 0.5 1.5-1.5z" style="opacity:.1"/>
</svg>
