<svg width="48" height="48" viewBox="0 0 48 48.000001" xmlns="http://www.w3.org/2000/svg">
  <defs>
    <linearGradient id="a" x1="-47" x2="-1" gradientUnits="userSpaceOnUse">
      <stop offset="0" stop-color="#cfbcad"/>
      <stop offset="1" stop-color="#d6c6b9"/>
    </linearGradient>
    <radialGradient id="b" cx="24" cy="22" r="10" gradientTransform="matrix(1 0 0 .8 0 3.4)" gradientUnits="userSpaceOnUse">
      <stop offset="0" stop-color="#dad4c2"/>
      <stop offset="1" stop-color="#d6cfba"/>
    </radialGradient>
  </defs>
  <path d="M1 43v.25c0 2.216 1.784 4 4 4h38c2.216 0 4-1.784 4-4V43c0 2.216-1.784 4-4 4H5c-2.216 0-4-1.784-4-4zm0 .5v.5c0 2.216 1.784 4 4 4h38c2.216 0 4-1.784 4-4v-.5c0 2.216-1.784 4-4 4H5c-2.216 0-4-1.784-4-4z" opacity=".02"/>
  <path d="M1 43.25v.25c0 2.216 1.784 4 4 4h38c2.216 0 4-1.784 4-4v-.25c0 2.216-1.784 4-4 4H5c-2.216 0-4-1.784-4-4z" opacity=".05"/>
  <path d="M1 43v.25c0 2.216 1.784 4 4 4h38c2.216 0 4-1.784 4-4V43c0 2.216-1.784 4-4 4H5c-2.216 0-4-1.784-4-4z" opacity=".1"/>
  <rect transform="rotate(-90)" x="-47" y="1" width="46" height="46" rx="4" fill="url(#a)"/>
  <path d="M1 39v4c0 2.216 1.784 4 4 4h38c2.216 0 4-1.784 4-4v-4c0 2.216-1.784 4-4 4H5c-2.216 0-4-1.784-4-4zM14.5 12a2.495 2.495 0 0 0-2.5 2.5v15c0 1.385 1.115 2.5 2.5 2.5H16v4h4v-4h8v4h4v-4h1.5c1.385 0 2.5-1.115 2.5-2.5v-15c0-1.385-1.115-2.5-2.5-2.5z" opacity=".1"/>
  <path d="M16 27v8h4v-8zm12 0v8h4v-8z" fill="#323232"/>
  <path d="M16 31v1h4v-1zm12 0v1h4v-1z" opacity=".1"/>
  <rect x="12" y="11" width="24" height="20" rx="2.5" ry="2.5" fill="#6f6751"/>
  <rect x="14" y="13" width="20" height="16" rx="1" ry="1" fill="url(#b)"/>
  <g fill="#323232">
    <path d="M26.999 14a4 4 0 0 0-3.684 5.562l-5.875 5.876c-.588.587-.588 1.533 0 2.121s1.534.588 2.121 0l5.876-5.875A4 4 0 0 0 31 18a3.98 3.98 0 0 0-.32-1.56l-2.266 2.266c-.588.587-1.534.587-2.122 0s-.587-1.534 0-2.122l2.268-2.267a4.01 4.01 0 0 0-1.56-.32zm-8.5 12a.5.5 0 0 1 .5.5.5.5 0 0 1-.5.5.5.5 0 0 1-.5-.5.5.5 0 0 1 .5-.5z"/>
  </g>
</svg>
