<svg version="1.1" viewBox="0 0 48 48" xmlns="http://www.w3.org/2000/svg">
 <defs>
  <linearGradient id="bg" x2="0" y1="1" y2="47" gradientUnits="userSpaceOnUse">
   <stop style="stop-color:#ebe9db" offset="0"/>
   <stop style="stop-color:#e4e1cd" offset="1"/>
  </linearGradient>
 </defs>
 <path d="m1 43v0.25c0 2.216 1.784 4 4 4h38c2.216 0 4-1.784 4-4v-0.25c0 2.216-1.784 4-4 4h-38c-2.216 0-4-1.784-4-4zm0 0.5v0.5c0 2.216 1.784 4 4 4h38c2.216 0 4-1.784 4-4v-0.5c0 2.216-1.784 4-4 4h-38c-2.216 0-4-1.784-4-4z" style="opacity:.02"/>
 <path d="m1 43.25v0.25c0 2.216 1.784 4 4 4h38c2.216 0 4-1.784 4-4v-0.25c0 2.216-1.784 4-4 4h-38c-2.216 0-4-1.784-4-4z" style="opacity:.05"/>
 <path d="m1 43v0.25c0 2.216 1.784 4 4 4h38c2.216 0 4-1.784 4-4v-0.25c0 2.216-1.784 4-4 4h-38c-2.216 0-4-1.784-4-4z" style="opacity:.1"/>
 <rect x="1" y="1" width="46" height="46" rx="4" style="fill:url(#bg)"/>
 <path d="m1 39v4c0 2.216 1.784 4 4 4h38c2.216 0 4-1.784 4-4v-4c0 2.216-1.784 4-4 4h-38c-2.216 0-4-1.784-4-4z" style="opacity:.1"/>
 <path d="m11.979 14.807c-0.39174 0.39174-0.39174 1.0243 0 1.416l2.4355 2.4355-5.4141 7.3418c0 0.554 0.446 1 1 1h3.4238c0.23845 0.81625 0.57075 1.6021 0.99023 2.3418l-2.4355 2.4355c-0.39174 0.39174-0.39174 1.0243 0 1.416l2.8281 2.8281c0.39174 0.39174 1.0243 0.39174 1.416 0l2.4355-2.4355c0.7397 0.41949 1.5255 0.75178 2.3418 0.99023v3.4238c0 0.554 0.446 1 1 1h4c0.554 0 1-0.446 1-1v-3.4238c0.81625-0.23845 1.6021-0.57075 2.3418-0.99023l2.4355 2.4355c0.39174 0.39174 1.0243 0.39174 1.416 0l2.8281-2.8281c0.39174-0.39174 0.39174-1.0243 0-1.416l-2.4355-2.4355c0.41949-0.7397 0.75178-1.5255 0.99023-2.3418h3.4238c0.554 0 1-0.446 1-1l-5.3965-7.3594 2.418-2.418c0.39174-0.39174 0.39174-1.0243 0-1.416z" style="opacity:.1"/>
 <path d="m22 8c-0.554 0-1 0.446-1 1v6.7559l-4.7773-4.7773c-0.39174-0.39174-1.0243-0.39174-1.416 0l-2.8281 2.8281c-0.39174 0.39174-0.39174 1.0243 0 1.416l4.7773 4.7773h-6.7559c-0.554 0-1 0.446-1 1v4c0 0.554 0.446 1 1 1h6.7559l-4.7773 4.7773c-0.39174 0.39174-0.39174 1.0243 0 1.416l2.8281 2.8281c0.39174 0.39174 1.0243 0.39174 1.416 0l4.7773-4.7773v6.7559c0 0.554 0.446 1 1 1h4c0.554 0 1-0.446 1-1v-6.7559l4.7773 4.7773c0.39174 0.39174 1.0243 0.39174 1.416 0l2.8281-2.8281c0.39174-0.39174 0.39174-1.0243 0-1.416l-4.7773-4.7773h6.7559c0.554 0 1-0.446 1-1v-4c0-0.554-0.446-1-1-1h-6.7559l4.7773-4.7773c0.39174-0.39174 0.39174-1.0243 0-1.416l-2.8281-2.8281c-0.39174-0.39174-1.0243-0.39174-1.416 0l-4.7773 4.7773v-6.7559c0-0.554-0.446-1-1-1z" style="fill:#f5c211"/>
 <path d="m13.781 20c-0.5073 1.273-0.77227 2.6296-0.78125 4 0.0072 0.67153 0.07581 1.341 0.20508 2h3.5508l-2.6934 2.6934c0.87151 1.8492 2.2411 3.419 3.9551 4.5332l2.9824-2.9824v4.332c0.97566 0.27898 1.9852 0.4216 3 0.42383 1.0148-0.0022 2.0243-0.14485 3-0.42383v-4.332l2.9824 2.9824c1.714-1.1142 3.0836-2.684 3.9551-4.5332l-2.6934-2.6934h3.5508c0.12927-0.65901 0.19791-1.3285 0.20508-2-0.0015-1.3689-0.25852-2.7254-0.75781-4z" style="opacity:.1"/>
 <circle cx="24" cy="23" r="11" style="fill:#f8e45c"/>
 <path d="m18 23.1c0 1.6 1 1.9 2 1.9-1.2829-2.3079 0.02691-4.6509 2-5.5v11.5h3l5.5-13h-1.5l-4 10-1-10c-3 0-6 2.6-6 5.1z" style="opacity:.1"/>
 <path d="m18 22.1c0 1.6 1 1.9 2 1.9-1.2829-2.3079 0.02691-4.6509 2-5.5v11.5h3l5.5-13h-1.5l-4 10v-10h-1c-3 0-6 2.6-6 5.1z" style="fill:#813d9c"/>
</svg>
