<svg version="1.1" viewBox="0 0 48 48" xmlns="http://www.w3.org/2000/svg">
 <defs>
  <linearGradient id="bg" x1="1" x2="47" gradientTransform="translate(-48 .00222)" gradientUnits="userSpaceOnUse">
   <stop style="stop-color:#efc729" offset="0"/>
   <stop style="stop-color:#f0cc3d" offset="1"/>
  </linearGradient>
 </defs>
 <path d="m1 43v0.25c0 2.22 1.78 4 4 4h38c2.22 0 4-1.78 4-4v-0.25c0 2.22-1.78 4-4 4h-38c-2.22 0-4-1.78-4-4zm0 0.5v0.5c0 2.22 1.78 4 4 4h38c2.22 0 4-1.78 4-4v-0.5c0 2.22-1.78 4-4 4h-38c-2.22 0-4-1.78-4-4z" style="opacity:.02"/>
 <path d="m1 43.2v0.25c0 2.22 1.78 4 4 4h38c2.22 0 4-1.78 4-4v-0.25c0 2.22-1.78 4-4 4h-38c-2.22 0-4-1.78-4-4z" style="opacity:.05"/>
 <path d="m1 43v0.25c0 2.22 1.78 4 4 4h38c2.22 0 4-1.78 4-4v-0.25c0 2.22-1.78 4-4 4h-38c-2.22 0-4-1.78-4-4z" style="opacity:.1"/>
 <rect transform="rotate(-90)" x="-47" y="1" width="46" height="46" rx="4" style="fill:url(#bg)"/>
 <path d="m13.7 13.7-1.72 6.43 4.71 4.71h-0.0039l-1.72 6.44 4.71 4.71 6.43-1.72 1.72-6.43 2e-3 2e-3 6.43-1.73 1.72-6.43-4.71-4.71-6.44 1.72v0.0039z" style="opacity:.1"/>
 <path d="m1 39v4c0 2.22 1.78 4 4 4h38c2.22 0 4-1.78 4-4v-4c0 2.22-1.78 4-4 4h-38c-2.22 0-4-1.78-4-4z" style="opacity:.1"/>
 <path d="m20.2 11-6.43 1.72-1.72 6.43 4.71 4.71-1.72 6.44 4.71 4.71 6.43-1.72 1.72-6.43 6.44-1.73 1.72-6.43-4.71-4.71-6.43 1.72z" style="fill:#7c8957"/>
 <path d="m24 14.9-1.73 6.43-6.43 1.72 0.814 0.814-0.299 1.12 6.43-1.72 4.71 4.71 0.297-1.11 1.12-0.301-4.71-4.71 1.73-6.43-1.12 0.299z" style="opacity:.1"/>
</svg>
