<?xml version="1.0" encoding="UTF-8"?>
<svg id="svg77" version="1.1" viewBox="0 0 48 48" xmlns="http://www.w3.org/2000/svg" xmlns:cc="http://creativecommons.org/ns#" xmlns:dc="http://purl.org/dc/elements/1.1/" xmlns:rdf="http://www.w3.org/1999/02/22-rdf-syntax-ns#">
 <metadata id="metadata81">
  <rdf:RDF>
   <cc:Work rdf:about="">
    <dc:format>image/svg+xml</dc:format>
    <dc:type rdf:resource="http://purl.org/dc/dcmitype/StillImage"/>
   </cc:Work>
  </rdf:RDF>
 </metadata>
 <defs id="defs17">
  <linearGradient id="linearGradient3764" x1="1" x2="47" gradientTransform="translate(-48 .0022147)" gradientUnits="userSpaceOnUse">
   <stop id="stop2" stop-color="#c3d9e5" offset="0"/>
   <stop id="stop4" stop-color="#d1e2eb" offset="1"/>
  </linearGradient>
  <clipPath id="clipPath-438157406">
   <g id="g9" transform="translate(0 -1004.4)">
    <rect id="rect7" x="1" y="1005.4" width="46" height="46" rx="4" fill="#1890d0"/>
   </g>
  </clipPath>
  <clipPath id="clipPath-452022901">
   <g id="g14" transform="translate(0 -1004.4)">
    <rect id="rect12" x="1" y="1005.4" width="46" height="46" rx="4" fill="#1890d0"/>
   </g>
  </clipPath>
 </defs>
 <g id="g25">
  <path id="path19" d="m1 43v0.25c0 2.216 1.784 4 4 4h38c2.216 0 4-1.784 4-4v-0.25c0 2.216-1.784 4-4 4h-38c-2.216 0-4-1.784-4-4zm0 0.5v0.5c0 2.216 1.784 4 4 4h38c2.216 0 4-1.784 4-4v-0.5c0 2.216-1.784 4-4 4h-38c-2.216 0-4-1.784-4-4z" opacity=".02"/>
  <path id="path21" d="m1 43.25v0.25c0 2.216 1.784 4 4 4h38c2.216 0 4-1.784 4-4v-0.25c0 2.216-1.784 4-4 4h-38c-2.216 0-4-1.784-4-4z" opacity=".05"/>
  <path id="path23" d="m1 43v0.25c0 2.216 1.784 4 4 4h38c2.216 0 4-1.784 4-4v-0.25c0 2.216-1.784 4-4 4h-38c-2.216 0-4-1.784-4-4z" opacity=".1"/>
 </g>
 <g id="g29">
  <rect id="rect27" transform="rotate(-90)" x="-47" y="1" width="46" height="46" rx="4" fill="url(#linearGradient3764)"/>
 </g>
 <g id="g49">
  <g id="g47" clip-path="url(#clipPath-438157406)">
   <g id="g45" opacity=".1">
    <g id="g43">
     <path id="path31" d="m31 12c-0.551 0-1 0.449-1 1v3h-21v2h21v3c0 0.551 0.449 1 1 1h2c0.551 0 1-0.449 1-1v-3h5v-2h-5v-3c0-0.551-0.449-1-1-1h-2zm-10.004 14c-0.551 0-0.99609 0.449-0.99609 1v3h-11v2h11v3c0 0.551 0.44509 1 0.99609 1h2c0.551 0 1-0.449 1-1v-3h15.004v-2h-15.004v-3c0-0.551-0.449-1-1-1h-2z"/>
    </g>
   </g>
  </g>
 </g>
 <g id="g69">
  <g id="g67" clip-path="url(#clipPath-452022901)">
   <g id="g65" transform="translate(0,-1)">
    <g id="g63">
     <path id="path51" d="m9 16h30v2h-30m0-2" style="fill:#2d2d2d"/>
     <path id="path53" d="m9 30h30v2h-30m0-2" fill="#2d2d2d"/>
     <path id="path55" transform="translate(0,1)" d="m31 11c-0.551 0-1 0.449-1 1v8c0 0.551 0.449 1 1 1h2c0.551 0 1-0.449 1-1v-8c0-0.551-0.449-1-1-1h-2z" style="fill:#2d2d2d"/>
     <path id="path57" d="m20.996 26c-0.551 0-0.99609 0.449-0.99609 1v8c0 0.551 0.44509 1 0.99609 1h2c0.551 0 1-0.449 1-1v-8c0-0.551-0.449-1-1-1z" style="fill:#2d2d2d"/>
     <path id="path59" d="m21.418 27h1.164c0.23 0 0.418 0.246 0.418 0.551v6.902c0 0.301-0.188 0.547-0.418 0.547h-1.164c-0.23 0-0.418-0.246-0.418-0.547v-6.902c0-0.305 0.188-0.551 0.418-0.551" fill="#b9d6e5"/>
     <path id="path61" d="m31.418 13h1.164c0.23 0 0.418 0.246 0.418 0.547v6.906c0 0.301-0.188 0.547-0.418 0.547h-1.164c-0.23 0-0.418-0.246-0.418-0.547v-6.906c0-0.301 0.188-0.547 0.418-0.547" style="fill:#b9d6e5"/>
    </g>
   </g>
  </g>
 </g>
 <g id="g75">
  <g id="g73" transform="translate(0 -1004.4)">
   <path id="path71" d="m1 1043.4v4c0 2.216 1.784 4 4 4h38c2.216 0 4-1.784 4-4v-4c0 2.216-1.784 4-4 4h-38c-2.216 0-4-1.784-4-4z" opacity=".1"/>
  </g>
 </g>
</svg>
