<svg viewBox="0 0 48 48" xmlns:xlink="http://www.w3.org/1999/xlink"><defs><linearGradient id="linearGradient3764" x1="1" x2="47" gradientUnits="userSpaceOnUse" gradientTransform="translate(-48.000001,0.00221467)"><stop stop-color="#e4e4e4" stop-opacity="1"/><stop offset="1" stop-color="#eee" stop-opacity="1"/></linearGradient><clipPath id="clipPath-550444005"><g transform="translate(0,-1004.3622)"><rect rx="4" y="1005.36" x="1" height="46" width="46" fill="#1890d0"/></g></clipPath><clipPath id="clipPath-564656119"><g transform="translate(0,-1004.3622)"><rect rx="4" y="1005.36" x="1" height="46" width="46" fill="#1890d0"/></g></clipPath></defs><g><path d="m 1 43 l 0 0.25 c 0 2.216 1.784 4 4 4 l 38 0 c 2.216 0 4 -1.784 4 -4 l 0 -0.25 c 0 2.216 -1.784 4 -4 4 l -38 0 c -2.216 0 -4 -1.784 -4 -4 z m 0 0.5 l 0 0.5 c 0 2.216 1.784 4 4 4 l 38 0 c 2.216 0 4 -1.784 4 -4 l 0 -0.5 c 0 2.216 -1.784 4 -4 4 l -38 0 c -2.216 0 -4 -1.784 -4 -4 z" opacity="0.02"/><path d="m 1 43.25 l 0 0.25 c 0 2.216 1.784 4 4 4 l 38 0 c 2.216 0 4 -1.784 4 -4 l 0 -0.25 c 0 2.216 -1.784 4 -4 4 l -38 0 c -2.216 0 -4 -1.784 -4 -4 z" opacity="0.05"/><path d="m 1 43 l 0 0.25 c 0 2.216 1.784 4 4 4 l 38 0 c 2.216 0 4 -1.784 4 -4 l 0 -0.25 c 0 2.216 -1.784 4 -4 4 l -38 0 c -2.216 0 -4 -1.784 -4 -4 z" opacity="0.1"/></g><g><rect width="46" height="46" x="-47" y="1" rx="4" transform="matrix(0,-1,1,0,0,0)" fill="url(#linearGradient3764)" fill-opacity="1"/></g><g><g clip-path="url(#clipPath-550444005)"><g opacity="0.1"><!-- color: #eeeeee --><g><path d="m 25.27 12.953 l -0.668 2.77 c 0.949 -1.953 2.457 -3.426 4.191 -4.719 c -1.266 1.523 -2.422 3.055 -3.129 4.582 c 1.191 -1.738 2.793 -2.707 4.598 -3.348 c -2.402 2.227 -4.309 4.613 -5.762 7.01 l -1.152 -0.52 c 0.203 -1.918 0.898 -3.875 1.922 -5.773 m 0 -0.004" stroke="none" fill-rule="nonzero" fill-opacity="1" fill="#000"/><path d="m 22.19 18.219 l 2.195 0.945 c 0 0.582 -0.043 2.352 0.305 2.875 c 3.656 4.891 3.043 14.691 -0.738 14.941 c -5.758 0 -7.953 -4.059 -7.953 -7.793 c 0 -3.406 3.93 -5.672 6.277 -7.68 c 0.594 -0.543 0.492 -1.738 -0.086 -3.285 m 0 -0.004" stroke="none" fill-rule="nonzero" fill-opacity="1" fill="#000"/><path d="m 24.375 19.16 l 0.805 0.395 c -0.074 0.543 0.039 1.742 0.559 2.055 c 2.309 1.484 4.488 3.113 5.344 4.738 c 3.055 5.727 -2.141 11.03 -6.629 10.523 c 2.441 -1.879 3.145 -5.727 2.234 -9.926 c -0.371 -1.641 -0.949 -3.129 -1.973 -4.813 c -0.441 -0.828 -0.301 -1.828 -0.34 -2.969 m 0 -0.004" stroke="none" fill-rule="nonzero" fill-opacity="1" fill="#000"/><path d="m 23.508 21.852 c -0.168 0.891 -0.355 2.496 -1.102 3.098 c -0.313 0.23 -0.633 0.465 -0.965 0.695 c -1.34 0.953 -2.684 1.84 -3.297 4.121 c -0.129 0.488 -0.016 1.012 0.094 1.488 c 0.336 1.395 1.285 2.902 2.031 3.793 c 0 0.039 0.148 0.133 0.148 0.172 c 0.613 0.758 0.801 0.969 3.129 1.512 l -0.059 0.27 c -1.395 -0.387 -2.551 -0.734 -3.277 -1.605 c 0 -0.02 -0.133 -0.156 -0.133 -0.156 c -0.781 -0.93 -1.73 -2.477 -2.086 -3.926 c -0.129 -0.582 -0.238 -1.023 -0.09 -1.625 c 0.633 -2.363 2.01 -3.289 3.406 -4.277 c 0.313 -0.215 0.688 -0.395 0.988 -0.645 c 0.563 -0.445 0.895 -1.816 1.215 -2.902 m -0.004 0.004" stroke="none" fill-rule="nonzero" fill-opacity="1" fill="#000" id="SVGCleanerId_0"/><path d="m 24.1 25.531 c 0.02 1 -0.074 1.508 0.168 2.223 c 0.145 0.426 0.652 1.012 0.801 1.566 c 0.203 0.754 0.426 1.59 0.406 2.09 c 0 0.582 -0.035 1.664 -0.277 2.824 c -0.184 0.961 -0.609 1.785 -1.324 2.25 c -0.734 -0.156 -1.594 -0.426 -2.102 -0.875 c -0.988 -0.887 -1.859 -2.375 -1.973 -3.672 c -0.105 -1.066 0.852 -2.633 2.18 -3.43 c 1.113 -0.676 1.379 -1.449 1.617 -2.684 c -0.336 1.082 -0.648 1.992 -1.73 2.57 c -1.563 0.852 -2.363 2.281 -2.293 3.637 c 0.113 1.738 0.781 2.922 2.105 3.871 c 0.563 0.406 1.602 0.836 2.254 0.953 l 0 -0.09 c 0.492 -0.105 1.137 -0.941 1.453 -2.082 c 0.27 -1.023 0.391 -2.336 0.375 -3.164 c -0.023 -0.484 -0.23 -1.531 -0.605 -2.48 c -0.195 -0.523 -0.52 -1.047 -0.723 -1.414 c -0.223 -0.371 -0.223 -1.164 -0.336 -2.094 m -0.004 0" stroke="none" fill-rule="nonzero" fill-opacity="1" fill="#000" id="SVGCleanerId_1"/><path d="m 23.988 29.32 c 0.02 0.676 0.281 1.547 0.395 2.434 c 0.09 0.66 0.051 1.32 0.035 1.902 c -0.02 0.672 -0.234 1.871 -0.527 2.461 c -0.277 -0.133 -0.387 -0.285 -0.57 -0.527 c -0.223 -0.332 -0.375 -0.66 -0.523 -1.047 c -0.113 -0.289 -0.238 -0.621 -0.297 -1.012 c -0.074 -0.582 -0.055 -1.484 0.582 -2.418 c 0.484 -0.73 0.594 -0.789 0.762 -1.641 c -0.223 0.754 -0.391 0.832 -0.91 1.469 c -0.578 0.699 -0.676 1.723 -0.676 2.563 c 0 0.344 0.137 0.727 0.266 1.102 c 0.148 0.383 0.277 0.77 0.484 1.063 c 0.309 0.469 0.699 0.734 0.895 0.785 c 0 0 0.004 0 0.004 0 c 0.004 0 0.023 0.004 0.023 0.004 l 0 -0.02 c 0.352 -0.418 0.578 -0.836 0.645 -1.258 c 0.09 -0.5 0.113 -1 0.168 -1.605 c 0.066 -0.504 0.023 -1.184 -0.102 -1.879 c -0.191 -0.871 -0.5 -1.758 -0.629 -2.379 m -0.023 0" stroke="none" fill-rule="nonzero" fill-opacity="1" fill="#000" id="SVGCleanerId_2"/><path d="m 24.04 21.04 c 0.02 1.012 0.094 2.887 0.355 3.617 c 0.074 0.254 0.762 1.355 1.246 2.691 c 0.34 0.93 0.414 1.777 0.465 2.031 c 0.223 1.102 -0.055 2.957 -0.426 4.719 c -0.191 0.949 -0.82 2.129 -1.547 2.594 l -0.148 0.27 c 0.41 -0.02 1.414 -1.047 1.77 -2.32 c 0.594 -2.168 0.84 -3.172 0.559 -5.57 c -0.039 -0.227 -0.133 -1.02 -0.484 -1.879 c -0.52 -1.297 -1.266 -2.535 -1.352 -2.785 c -0.164 -0.395 -0.398 -2.164 -0.438 -3.367 m 0 0" stroke="none" fill-rule="nonzero" fill-opacity="1" fill="#000" id="SVGCleanerId_3"/><path d="m 24.395 19.664 c -0.055 1.035 -0.07 1.414 0.117 2.168 c 0.207 0.836 1.25 2.031 1.676 3.406 c 0.82 2.633 0.613 6.074 0.02 8.762 c -0.223 0.949 -1.285 2.324 -2.348 2.77 l 0.785 0.195 c 0.43 -0.02 1.527 -1.086 1.953 -2.305 c 0.688 -1.918 0.82 -4.199 0.539 -6.598 c -0.016 -0.234 -0.387 -2.301 -0.742 -3.172 c -0.504 -1.297 -1.398 -2.453 -1.488 -2.707 c -0.168 -0.426 -0.535 -1.309 -0.508 -2.516 m -0.004 -0.004" stroke="none" fill-rule="nonzero" fill-opacity="1" fill="#000" id="SVGCleanerId_4"/><path d="m 23.805 18.934 l 0.074 0 l 0 17.859 l -0.074 0 m 0 -17.859" stroke="none" fill-rule="nonzero" fill-opacity="1" fill="#000" id="SVGCleanerId_5"/></g></g></g></g><g><g clip-path="url(#clipPath-564656119)"><g transform="translate(0,-1)"><!-- color: #eeeeee --><g><path d="m 25.27 12.953 l -0.668 2.77 c 0.949 -1.953 2.457 -3.426 4.191 -4.719 c -1.266 1.523 -2.422 3.055 -3.129 4.582 c 1.191 -1.738 2.793 -2.707 4.598 -3.348 c -2.402 2.227 -4.309 4.613 -5.762 7.01 l -1.152 -0.52 c 0.203 -1.918 0.898 -3.875 1.922 -5.773 m 0 -0.004" fill="#abcd03" stroke="none" fill-rule="nonzero" fill-opacity="1"/><path d="m 22.19 18.219 l 2.195 0.945 c 0 0.582 -0.043 2.352 0.305 2.875 c 3.656 4.891 3.043 14.691 -0.738 14.941 c -5.758 0 -7.953 -4.059 -7.953 -7.793 c 0 -3.406 3.93 -5.672 6.277 -7.68 c 0.594 -0.543 0.492 -1.738 -0.086 -3.285 m 0 -0.004" fill="#ffbe2f" stroke="none" fill-rule="nonzero" fill-opacity="1"/><path d="m 24.375 19.16 l 0.805 0.395 c -0.074 0.543 0.039 1.742 0.559 2.055 c 2.309 1.484 4.488 3.113 5.344 4.738 c 3.055 5.727 -2.141 11.03 -6.629 10.523 c 2.441 -1.879 3.145 -5.727 2.234 -9.926 c -0.371 -1.641 -0.949 -3.129 -1.973 -4.813 c -0.441 -0.828 -0.301 -1.828 -0.34 -2.969 m 0 -0.004" fill="#7d4595" stroke="none" fill-rule="nonzero" fill-opacity="1"/><use xlink:href="#SVGCleanerId_0"/><use xlink:href="#SVGCleanerId_1"/><use xlink:href="#SVGCleanerId_2"/><use xlink:href="#SVGCleanerId_3"/><use xlink:href="#SVGCleanerId_4"/><use xlink:href="#SVGCleanerId_5"/></g></g></g></g><g><g transform="translate(0,-1004.3622)"><path d="m 1 1043.36 0 4 c 0 2.216 1.784 4 4 4 l 38 0 c 2.216 0 4 -1.784 4 -4 l 0 -4 c 0 2.216 -1.784 4 -4 4 l -38 0 c -2.216 0 -4 -1.784 -4 -4 z" opacity="0.1"/></g></g></svg>