<svg viewBox="0 0 48 48" xmlns="http://www.w3.org/2000/svg" xmlns:xlink="http://www.w3.org/1999/xlink">
 <defs>
  <linearGradient id="linearGradient3764" x1="1" x2="47" gradientTransform="translate(-48 .0022147)" gradientUnits="userSpaceOnUse">
   <stop stop-color="#e4e4e4" offset="0"/>
   <stop stop-color="#eee" offset="1"/>
  </linearGradient>
  <clipPath id="clipPath-550444005">
   <g transform="translate(0 -1004.4)">
    <rect x="1" y="1005.4" width="46" height="46" rx="4" fill="#1890d0"/>
   </g>
  </clipPath>
  <clipPath id="clipPath-564656119">
   <g transform="translate(0 -1004.4)">
    <rect x="1" y="1005.4" width="46" height="46" rx="4" fill="#1890d0"/>
   </g>
  </clipPath>
 </defs>
 <g>
  <path d="m1 43v0.25c0 2.216 1.784 4 4 4h38c2.216 0 4-1.784 4-4v-0.25c0 2.216-1.784 4-4 4h-38c-2.216 0-4-1.784-4-4zm0 0.5v0.5c0 2.216 1.784 4 4 4h38c2.216 0 4-1.784 4-4v-0.5c0 2.216-1.784 4-4 4h-38c-2.216 0-4-1.784-4-4z" opacity=".02"/>
  <path d="m1 43.25v0.25c0 2.216 1.784 4 4 4h38c2.216 0 4-1.784 4-4v-0.25c0 2.216-1.784 4-4 4h-38c-2.216 0-4-1.784-4-4z" opacity=".05"/>
  <path d="m1 43v0.25c0 2.216 1.784 4 4 4h38c2.216 0 4-1.784 4-4v-0.25c0 2.216-1.784 4-4 4h-38c-2.216 0-4-1.784-4-4z" opacity=".1"/>
 </g>
 <g>
  <rect transform="rotate(-90)" x="-47" y="1" width="46" height="46" rx="4" fill="url(#linearGradient3764)"/>
 </g>
 <g>
  <g clip-path="url(#clipPath-550444005)">
   <g opacity=".1">
    <g>
     <g>
      <path d="m25.27 12.953-0.668 2.77c0.949-1.953 2.457-3.426 4.191-4.719-1.266 1.523-2.422 3.055-3.129 4.582 1.191-1.738 2.793-2.707 4.598-3.348-2.402 2.227-4.309 4.613-5.762 7.01l-1.152-0.52c0.203-1.918 0.898-3.875 1.922-5.773m0-4e-3"/>
      <path d="m22.19 18.219 2.195 0.945c0 0.582-0.043 2.352 0.305 2.875 3.656 4.891 3.043 14.691-0.738 14.941-5.758 0-7.953-4.059-7.953-7.793 0-3.406 3.93-5.672 6.277-7.68 0.594-0.543 0.492-1.738-0.086-3.285m0-4e-3"/>
      <path d="m24.375 19.16 0.805 0.395c-0.074 0.543 0.039 1.742 0.559 2.055 2.309 1.484 4.488 3.113 5.344 4.738 3.055 5.727-2.141 11.03-6.629 10.523 2.441-1.879 3.145-5.727 2.234-9.926-0.371-1.641-0.949-3.129-1.973-4.813-0.441-0.828-0.301-1.828-0.34-2.969m0-4e-3"/>
      <path id="SVGCleanerId_0" d="m23.508 21.852c-0.168 0.891-0.355 2.496-1.102 3.098-0.313 0.23-0.633 0.465-0.965 0.695-1.34 0.953-2.684 1.84-3.297 4.121-0.129 0.488-0.016 1.012 0.094 1.488 0.336 1.395 1.285 2.902 2.031 3.793 0 0.039 0.148 0.133 0.148 0.172 0.613 0.758 0.801 0.969 3.129 1.512l-0.059 0.27c-1.395-0.387-2.551-0.734-3.277-1.605 0-0.02-0.133-0.156-0.133-0.156-0.781-0.93-1.73-2.477-2.086-3.926-0.129-0.582-0.238-1.023-0.09-1.625 0.633-2.363 2.01-3.289 3.406-4.277 0.313-0.215 0.688-0.395 0.988-0.645 0.563-0.445 0.895-1.816 1.215-2.902m-4e-3 4e-3"/>
      <path id="SVGCleanerId_1" d="m24.1 25.531c0.02 1-0.074 1.508 0.168 2.223 0.145 0.426 0.652 1.012 0.801 1.566 0.203 0.754 0.426 1.59 0.406 2.09 0 0.582-0.035 1.664-0.277 2.824-0.184 0.961-0.609 1.785-1.324 2.25-0.734-0.156-1.594-0.426-2.102-0.875-0.988-0.887-1.859-2.375-1.973-3.672-0.105-1.066 0.852-2.633 2.18-3.43 1.113-0.676 1.379-1.449 1.617-2.684-0.336 1.082-0.648 1.992-1.73 2.57-1.563 0.852-2.363 2.281-2.293 3.637 0.113 1.738 0.781 2.922 2.105 3.871 0.563 0.406 1.602 0.836 2.254 0.953v-0.09c0.492-0.105 1.137-0.941 1.453-2.082 0.27-1.023 0.391-2.336 0.375-3.164-0.023-0.484-0.23-1.531-0.605-2.48-0.195-0.523-0.52-1.047-0.723-1.414-0.223-0.371-0.223-1.164-0.336-2.094m-4e-3 0"/>
      <path id="SVGCleanerId_2" d="m23.988 29.32c0.02 0.676 0.281 1.547 0.395 2.434 0.09 0.66 0.051 1.32 0.035 1.902-0.02 0.672-0.234 1.871-0.527 2.461-0.277-0.133-0.387-0.285-0.57-0.527-0.223-0.332-0.375-0.66-0.523-1.047-0.113-0.289-0.238-0.621-0.297-1.012-0.074-0.582-0.055-1.484 0.582-2.418 0.484-0.73 0.594-0.789 0.762-1.641-0.223 0.754-0.391 0.832-0.91 1.469-0.578 0.699-0.676 1.723-0.676 2.563 0 0.344 0.137 0.727 0.266 1.102 0.148 0.383 0.277 0.77 0.484 1.063 0.309 0.469 0.699 0.734 0.895 0.785h4e-3c4e-3 0 0.023 4e-3 0.023 4e-3v-0.02c0.352-0.418 0.578-0.836 0.645-1.258 0.09-0.5 0.113-1 0.168-1.605 0.066-0.504 0.023-1.184-0.102-1.879-0.191-0.871-0.5-1.758-0.629-2.379m-0.023 0"/>
      <path id="SVGCleanerId_3" d="m24.04 21.04c0.02 1.012 0.094 2.887 0.355 3.617 0.074 0.254 0.762 1.355 1.246 2.691 0.34 0.93 0.414 1.777 0.465 2.031 0.223 1.102-0.055 2.957-0.426 4.719-0.191 0.949-0.82 2.129-1.547 2.594l-0.148 0.27c0.41-0.02 1.414-1.047 1.77-2.32 0.594-2.168 0.84-3.172 0.559-5.57-0.039-0.227-0.133-1.02-0.484-1.879-0.52-1.297-1.266-2.535-1.352-2.785-0.164-0.395-0.398-2.164-0.438-3.367"/>
      <path id="SVGCleanerId_4" d="m24.395 19.664c-0.055 1.035-0.07 1.414 0.117 2.168 0.207 0.836 1.25 2.031 1.676 3.406 0.82 2.633 0.613 6.074 0.02 8.762-0.223 0.949-1.285 2.324-2.348 2.77l0.785 0.195c0.43-0.02 1.527-1.086 1.953-2.305 0.688-1.918 0.82-4.199 0.539-6.598-0.016-0.234-0.387-2.301-0.742-3.172-0.504-1.297-1.398-2.453-1.488-2.707-0.168-0.426-0.535-1.309-0.508-2.516m-4e-3 -4e-3"/>
      <path id="SVGCleanerId_5" d="m23.805 18.934h0.074v17.859h-0.074m0-17.859"/>
     </g>
    </g>
   </g>
  </g>
 </g>
 <g>
  <g clip-path="url(#clipPath-564656119)">
   <g transform="translate(0,-1)">
    <g>
     <g>
      <path d="m25.27 12.953-0.668 2.77c0.949-1.953 2.457-3.426 4.191-4.719-1.266 1.523-2.422 3.055-3.129 4.582 1.191-1.738 2.793-2.707 4.598-3.348-2.402 2.227-4.309 4.613-5.762 7.01l-1.152-0.52c0.203-1.918 0.898-3.875 1.922-5.773m0-4e-3" fill="#abcd03"/>
      <path d="m22.19 18.219 2.195 0.945c0 0.582-0.043 2.352 0.305 2.875 3.656 4.891 3.043 14.691-0.738 14.941-5.758 0-7.953-4.059-7.953-7.793 0-3.406 3.93-5.672 6.277-7.68 0.594-0.543 0.492-1.738-0.086-3.285m0-4e-3" fill="#ffbe2f"/>
      <path d="m24.375 19.16 0.805 0.395c-0.074 0.543 0.039 1.742 0.559 2.055 2.309 1.484 4.488 3.113 5.344 4.738 3.055 5.727-2.141 11.03-6.629 10.523 2.441-1.879 3.145-5.727 2.234-9.926-0.371-1.641-0.949-3.129-1.973-4.813-0.441-0.828-0.301-1.828-0.34-2.969m0-4e-3" fill="#7d4595"/>
     </g>
     <use xlink:href="#SVGCleanerId_0"/>
     <use xlink:href="#SVGCleanerId_1"/>
     <use xlink:href="#SVGCleanerId_2"/>
     <use xlink:href="#SVGCleanerId_3"/>
     <use xlink:href="#SVGCleanerId_4"/>
     <use xlink:href="#SVGCleanerId_5"/>
    </g>
   </g>
  </g>
 </g>
 <g>
  <g transform="translate(0 -1004.4)">
   <path d="m1 1043.4v4c0 2.216 1.784 4 4 4h38c2.216 0 4-1.784 4-4v-4c0 2.216-1.784 4-4 4h-38c-2.216 0-4-1.784-4-4z" opacity=".1"/>
  </g>
 </g>
</svg>
