<svg viewBox="0 0 48 48">
  <defs>
    <linearGradient id="a" x1="1" x2="47" gradientUnits="userSpaceOnUse" gradientTransform="translate(-48 .002)">
      <stop stop-color="#e4e4e4"/>
      <stop offset="1" stop-color="#eee"/>
    </linearGradient>
    <clipPath id="b"/>
    <clipPath id="c"/>
  </defs>
  <path d="M1 43v.25c0 2.216 1.784 4 4 4h38c2.216 0 4-1.784 4-4V43c0 2.216-1.784 4-4 4H5c-2.216 0-4-1.784-4-4zm0 .5v.5c0 2.216 1.784 4 4 4h38c2.216 0 4-1.784 4-4v-.5c0 2.216-1.784 4-4 4H5c-2.216 0-4-1.784-4-4z" opacity=".02"/>
  <path d="M1 43.25v.25c0 2.216 1.784 4 4 4h38c2.216 0 4-1.784 4-4v-.25c0 2.216-1.784 4-4 4H5c-2.216 0-4-1.784-4-4z" opacity=".05"/>
  <path d="M1 43v.25c0 2.216 1.784 4 4 4h38c2.216 0 4-1.784 4-4V43c0 2.216-1.784 4-4 4H5c-2.216 0-4-1.784-4-4z" opacity=".1"/>
  <rect width="46" height="46" x="-47" y="1" rx="4" transform="rotate(-90)" fill="url(#a)"/>
  <g opacity=".1" clip-path="url(#b)">
    <path d="M32.395 12c-.961.016-1.91.656-2.063 1.844-.242 1.902 1.578 1.188 3.03 1.188 1.453 0 1.941 3.09 1.574 4.754-.363 1.66-4.227 5.59-12.969 1.66-7.195-3.234-10.789 1.074-10.98 1.16.691 6.426 6.234 13.391 12.98 13.391 7.188 0 13.03-7.68 13.03-14.73 0-.809-.094-1.609-.242-2.375-.133-.391-.266-.777-.363-1.129-.176-.633-.375-1.168-.547-1.664-.008-.016.008-.043 0-.063a12.799 12.799 0 0 0-2.848-3.98c-.004-.008-.027.012-.031 0a2.367 2.367 0 0 0-.574-.059m0 .004"/>
    <path d="M30.395 16.516a.723.723 0 0 1-.727.715.723.723 0 0 1-.73-.715.72.72 0 0 1 .73-.711.72.72 0 0 1 .727.711m0 0M28.938 13.934a.51.51 0 0 1-.516.504.511.511 0 0 1-.516-.504c0-.281.23-.508.516-.508.285 0 .516.227.516.508m0 0"/>
  </g>
  <g>
    <g clip-path="url(#c)">
      <path d="M32.395 11c-.961.016-1.91.656-2.063 1.844-.242 1.902 1.578 1.188 3.03 1.188 1.453 0 1.941 3.09 1.574 4.754-.363 1.66-4.227 5.59-12.969 1.66-7.195-3.234-10.789 1.074-10.98 1.16.691 6.426 6.234 13.391 12.98 13.391 7.188 0 13.03-7.68 13.03-14.73 0-.809-.094-1.609-.242-2.375-.133-.391-.266-.777-.363-1.129-.176-.633-.375-1.168-.547-1.664-.008-.016.008-.043 0-.063a12.799 12.799 0 0 0-2.848-3.98c-.004-.008-.027.012-.031 0a2.367 2.367 0 0 0-.574-.059m0 .004" fill="#494c86"/>
      <path d="M30.395 15.516a.723.723 0 0 1-.727.715.723.723 0 0 1-.73-.715.72.72 0 0 1 .73-.711.72.72 0 0 1 .727.711m0 0M28.938 12.934a.51.51 0 0 1-.516.504.511.511 0 0 1-.516-.504c0-.281.23-.508.516-.508.285 0 .516.227.516.508m0 0" fill="#434a8e"/>
    </g>
  </g>
  <g>
    <path d="M1 38.998v4c0 2.216 1.784 4 4 4h38c2.216 0 4-1.784 4-4v-4c0 2.216-1.784 4-4 4H5c-2.216 0-4-1.784-4-4z" opacity=".1"/>
  </g>
</svg>
