<svg width="48" height="48" viewBox="0 0 48 48.000001" xmlns="http://www.w3.org/2000/svg">
  <defs>
    <linearGradient id="a" x1="-47" x2="-1" gradientUnits="userSpaceOnUse">
      <stop offset="0" stop-color="#ccb8da"/>
      <stop offset="1" stop-color="#d5c5e1"/>
    </linearGradient>
  </defs>
  <path d="M1 43v.25c0 2.216 1.784 4 4 4h38c2.216 0 4-1.784 4-4V43c0 2.216-1.784 4-4 4H5c-2.216 0-4-1.784-4-4zm0 .5v.5c0 2.216 1.784 4 4 4h38c2.216 0 4-1.784 4-4v-.5c0 2.216-1.784 4-4 4H5c-2.216 0-4-1.784-4-4z" opacity=".02"/>
  <path d="M1 43.25v.25c0 2.216 1.784 4 4 4h38c2.216 0 4-1.784 4-4v-.25c0 2.216-1.784 4-4 4H5c-2.216 0-4-1.784-4-4z" opacity=".05"/>
  <path d="M1 43v.25c0 2.216 1.784 4 4 4h38c2.216 0 4-1.784 4-4V43c0 2.216-1.784 4-4 4H5c-2.216 0-4-1.784-4-4z" opacity=".1"/>
  <rect transform="rotate(-90)" x="-47" y="1" width="46" height="46" rx="4" fill="url(#a)"/>
  <g>
    <path d="M1 39v4c0 2.216 1.784 4 4 4h38c2.216 0 4-1.784 4-4v-4c0 2.216-1.784 4-4 4H5c-2.216 0-4-1.784-4-4z" opacity=".1"/>
  </g>
  <g transform="translate(.001 -.998) scale(3.5433)">
    <g fill="#e8e070">
      <path d="M6.724 3.387c-.821 0-1.505.55-1.662 1.282-.06.227-.204.381-.596.411l.005.002c-.754.092-1.367.764-1.367 1.59 0 .512.26.981.682 1.278.179.16.259.377.127.828-.016.056-.02.22-.027.294 0 .884.76 1.604 1.696 1.6.236 0 .41-.041.616-.113.355-.124.534-.11.95.045.202.077.418.12.64.12.937 0 1.696-.716 1.696-1.6 0-.112-.017-.221-.041-.33v.002c-.032-.39.092-.61.407-.843.366-.297.593-.732.593-1.209 0-.803-.468-1.456-1.53-1.578-.344-.108-.436-.205-.526-.507-.16-.726-.844-1.272-1.663-1.272zm.049 2.471c.072 0 .144.028.2.083 0 0 .15.22.267.268.117.048.38 0 .38 0 .156 0 .282.126.282.282 0 0-.048.263 0 .38.048.116.268.267.268.267.11.111.11.289 0 .4 0 0-.22.15-.268.267-.048.117 0 .38 0 .38a.282.282 0 0 1-.282.282s-.263-.048-.38 0c-.116.048-.267.268-.267.268a.281.281 0 0 1-.4 0s-.15-.22-.267-.268c-.117-.048-.38 0-.38 0a.282.282 0 0 1-.282-.282s.048-.263 0-.38c-.048-.116-.268-.268-.268-.268a.281.281 0 0 1 0-.399s.22-.15.268-.267c.048-.117 0-.38 0-.38 0-.156.126-.282.282-.282 0 0 .263.048.38 0 .116-.048.267-.268.267-.268a.281.281 0 0 1 .2-.083zm0 .637a.847.847 0 0 1-.847.847.847.847 0 0 1 .847.847.847.847 0 0 1 .847-.847.847.847 0 0 1-.847-.847z" fill="#000" opacity=".1"/>
      <path d="M6.724 3.104c-.821 0-1.505.551-1.662 1.282-.06.228-.204.381-.596.411l.005.002c-.754.092-1.367.764-1.367 1.59 0 .512.26.981.682 1.279.179.158.259.376.127.827-.016.056-.02.22-.027.294 0 .884.76 1.604 1.696 1.6.236 0 .41-.041.616-.113.355-.123.534-.11.95.045.202.077.418.12.64.121.937 0 1.696-.717 1.696-1.601 0-.112-.017-.221-.041-.33v.002c-.032-.39.092-.61.407-.842.366-.298.593-.733.593-1.21 0-.803-.468-1.456-1.53-1.578-.344-.108-.436-.204-.526-.506-.16-.727-.844-1.273-1.663-1.273m.05 2.471c.072 0 .143.028.199.084 0 0 .151.22.268.268.116.048.379 0 .379 0 .156 0 .282.125.282.282 0 0-.048.262 0 .38.048.116.268.267.268.267.11.11.11.288 0 .399 0 0-.22.151-.268.268-.048.117 0 .38 0 .38a.282.282 0 0 1-.282.281s-.263-.048-.38 0c-.116.049-.267.268-.267.268a.281.281 0 0 1-.4 0s-.15-.22-.267-.268c-.117-.048-.38 0-.38 0a.282.282 0 0 1-.282-.282s.049-.262 0-.38c-.048-.116-.267-.267-.267-.267a.281.281 0 0 1 0-.4s.22-.15.267-.267c.049-.117 0-.38 0-.38 0-.156.126-.281.283-.281 0 0 .262.048.379 0 .116-.049.268-.268.268-.268a.281.281 0 0 1 .2-.084z" fill="#9369bb"/>
    </g>
    <circle cx="6.773" cy="7.06" r=".847" fill="#6f6f6f"/>
  </g>
</svg>
