<svg width="48" height="48" version="1.1" viewBox="0 0 48 48" xmlns="http://www.w3.org/2000/svg">
 <defs>
  <linearGradient id="linearGradient4501" x1="-47" x2="-1" y1="2.8779e-15" y2="6.1232e-17" gradientUnits="userSpaceOnUse">
   <stop style="stop-color:#e51f32" offset="0"/>
   <stop style="stop-color:#e73245" offset="1"/>
  </linearGradient>
 </defs>
 <g transform="translate(0 3.949e-5)">
  <path d="m1 43v0.25c0 2.216 1.784 4 4 4h38c2.216 0 4-1.784 4-4v-0.25c0 2.216-1.784 4-4 4h-38c-2.216 0-4-1.784-4-4zm0 0.5v0.5c0 2.216 1.784 4 4 4h38c2.216 0 4-1.784 4-4v-0.5c0 2.216-1.784 4-4 4h-38c-2.216 0-4-1.784-4-4z" style="opacity:.02"/>
  <path d="m1 43.25v0.25c0 2.216 1.784 4 4 4h38c2.216 0 4-1.784 4-4v-0.25c0 2.216-1.784 4-4 4h-38c-2.216 0-4-1.784-4-4z" style="opacity:.05"/>
  <path d="m1 43v0.25c0 2.216 1.784 4 4 4h38c2.216 0 4-1.784 4-4v-0.25c0 2.216-1.784 4-4 4h-38c-2.216 0-4-1.784-4-4z" style="opacity:.1"/>
 </g>
 <rect transform="rotate(-90)" x="-47" y="1" width="46" height="46" rx="4" style="fill:url(#linearGradient4501)"/>
 <g transform="translate(0 3.949e-5)">
  <g transform="translate(0 -1004.4)">
   <path d="m1 1043.4v4c0 2.216 1.784 4 4 4h38c2.216 0 4-1.784 4-4v-4c0 2.216-1.784 4-4 4h-38c-2.216 0-4-1.784-4-4z" style="opacity:.1"/>
  </g>
 </g>
 <path d="m18.961 31.505-4.992-4.995 1.524-1.524 8.508 8.512 8.484-8.49 1.5 1.5-4.992 4.995c-2.746 2.747-5 4.995-5.02 4.995-0.013 0-2.27-2.248-5.02-4.995zm-0.211-4.245-5.25-5.253 10.5-10.506 10.5 10.506-5.508 5.512-4-4 2.952-2.956-3.984-3.986-3.938 3.94 7.992 7.998-4 4z" style="opacity:.12"/>
 <path d="m18.961 30.505-4.992-4.995 1.524-1.524 8.508 8.512 8.484-8.49 1.5 1.5-4.992 4.995c-2.746 2.747-5 4.995-5.02 4.995-0.013 0-2.27-2.248-5.02-4.995zm-0.211-4.245-5.25-5.253 10.5-10.506 10.5 10.506-5.508 5.512-4-4 2.952-2.956-3.984-3.986-3.938 3.94 7.992 7.998-4 4z" style="fill:#e6e6e6"/>
</svg>
