<svg id="svg39663" version="1.1" viewBox="0 0 48 48" xmlns="http://www.w3.org/2000/svg">
 <defs id="defs39603">
  <linearGradient id="linearGradient3764" x1="1" x2="47" gradientTransform="translate(-48 .0022147)" gradientUnits="userSpaceOnUse">
   <stop id="stop39588" stop-color="#d5d5d5" offset="0"/>
   <stop id="stop39590" stop-color="#dfdfdf" offset="1"/>
  </linearGradient>
  <clipPath id="clipPath-005235888">
   <g id="g39595" transform="translate(0 -1004.4)">
    <rect id="rect39593" x="1" y="1005.4" width="46" height="46" rx="4" fill="#1890d0"/>
   </g>
  </clipPath>
  <clipPath id="clipPath-018259711">
   <g id="g39600" transform="translate(0 -1004.4)">
    <rect id="rect39598" x="1" y="1005.4" width="46" height="46" rx="4" fill="#1890d0"/>
   </g>
  </clipPath>
 </defs>
 <g id="g39611">
  <path id="path39605" d="m1 43v0.25c0 2.216 1.784 4 4 4h38c2.216 0 4-1.784 4-4v-0.25c0 2.216-1.784 4-4 4h-38c-2.216 0-4-1.784-4-4zm0 0.5v0.5c0 2.216 1.784 4 4 4h38c2.216 0 4-1.784 4-4v-0.5c0 2.216-1.784 4-4 4h-38c-2.216 0-4-1.784-4-4z" opacity=".02"/>
  <path id="path39607" d="m1 43.25v0.25c0 2.216 1.784 4 4 4h38c2.216 0 4-1.784 4-4v-0.25c0 2.216-1.784 4-4 4h-38c-2.216 0-4-1.784-4-4z" opacity=".05"/>
  <path id="path39609" d="m1 43v0.25c0 2.216 1.784 4 4 4h38c2.216 0 4-1.784 4-4v-0.25c0 2.216-1.784 4-4 4h-38c-2.216 0-4-1.784-4-4z" opacity=".1"/>
 </g>
 <g id="g39615">
  <rect id="rect39613" transform="rotate(-90)" x="-47" y="1" width="46" height="46" rx="4" fill="url(#linearGradient3764)"/>
 </g>
 <g id="g39635">
  <g id="g39633" clip-path="url(#clipPath-005235888)">
   <g id="g39631" opacity=".1">
    <g id="g39629">
     <path id="path39617" d="m11.531 13c-0.297 0.031-0.531 0.297-0.531 0.594v10.816c0 0.316 0.277 0.594 0.594 0.594h5.406v2h-4v2h7.281v-6h-6.84c-0.211 0-0.41-0.195-0.41-0.41v-7.184c-4e-3 -0.188 0.129-0.371 0.313-0.406 0.023-4e-3 0.066-4e-3 0.094 0h11.125c0.207 0 0.406 0.191 0.406 0.406v2.875h2.031v-4.691c0-0.313-0.281-0.594-0.594-0.594"/>
     <path id="path39619" d="m21.781 19 3.125 2h9.656c0.207 0 0.406 0.195 0.406 0.406v7.188c0 0.211-0.199 0.406-0.406 0.406h-11.125c-0.211 0-0.406-0.195-0.406-0.406v-4.469l-2.031-1.313v7.594c0 0.313 0.281 0.594 0.594 0.594h5.406v2h-4v2h12v-2h-4v-2h5.406c0.313 0 0.594-0.277 0.594-0.594v-10.813c0-0.316-0.281-0.594-0.594-0.594"/>
     <path id="path39621" d="m24.332 24.14-5.793-3.723 1.078-1.684 5.793 3.723"/>
     <path id="path39623" d="m18.848 20.617 1.082-1.684-1.023-0.656s-0.328-0.016-0.777 0.688c-0.438 0.676-0.277 1.012-0.277 1.012l0.996 0.641"/>
     <path id="path39625" d="m24.316 24.13 2.223 0.238-1.141-1.922"/>
     <path id="path39627" d="m25.426 24.26 1.113 0.102-0.566-0.969"/>
    </g>
   </g>
  </g>
 </g>
 <g id="g39655">
  <g id="g39653" clip-path="url(#clipPath-018259711)">
   <g id="g39651" transform="translate(0,-1)">
    <g id="g39649">
     <path id="path39637" d="m11.531 13c-0.297 0.031-0.531 0.297-0.531 0.594v10.816c0 0.316 0.277 0.594 0.594 0.594h5.406v2h-4v2h7.281v-6h-6.84c-0.211 0-0.41-0.195-0.41-0.41v-7.184c-4e-3 -0.188 0.129-0.371 0.313-0.406 0.023-4e-3 0.066-4e-3 0.094 0h11.125c0.207 0 0.406 0.191 0.406 0.406v2.875h2.031v-4.691c0-0.313-0.281-0.594-0.594-0.594" fill="#2fa32f"/>
     <path id="path39639" d="m21.781 19 3.125 2h9.656c0.207 0 0.406 0.195 0.406 0.406v7.188c0 0.211-0.199 0.406-0.406 0.406h-11.125c-0.211 0-0.406-0.195-0.406-0.406v-4.469l-2.031-1.313v7.594c0 0.313 0.281 0.594 0.594 0.594h5.406v2h-4v2h12v-2h-4v-2h5.406c0.313 0 0.594-0.277 0.594-0.594v-10.813c0-0.316-0.281-0.594-0.594-0.594" fill="#3692b2"/>
     <path id="path39641" d="m24.332 24.14-5.793-3.723 1.078-1.684 5.793 3.723" fill="#ff6f03"/>
     <path id="path39643" d="m18.848 20.617 1.082-1.684-1.023-0.656s-0.328-0.016-0.777 0.688c-0.438 0.676-0.277 1.012-0.277 1.012l0.996 0.641" fill="#ff2d5b"/>
     <path id="path39645" d="m24.316 24.13 2.223 0.238-1.141-1.922" fill="#ffc13d"/>
     <path id="path39647" d="m25.426 24.26 1.113 0.102-0.566-0.969" fill="#2d2d2d"/>
    </g>
   </g>
  </g>
 </g>
 <g id="g39661">
  <g id="g39659" transform="translate(0 -1004.4)">
   <path id="path39657" d="m1 1043.4v4c0 2.216 1.784 4 4 4h38c2.216 0 4-1.784 4-4v-4c0 2.216-1.784 4-4 4h-38c-2.216 0-4-1.784-4-4z" opacity=".1"/>
  </g>
 </g>
</svg>
