<svg version="1.1" viewBox="0 0 48 48" xmlns="http://www.w3.org/2000/svg">
 <defs>
  <linearGradient id="bg" x2="0" y1="1" y2="47" gradientUnits="userSpaceOnUse">
   <stop style="stop-color:#caf2f2" offset="0"/>
   <stop style="stop-color:#baeeee" offset="1"/>
  </linearGradient>
 </defs>
 <path d="m1 43v0.25c0 2.216 1.784 4 4 4h38c2.216 0 4-1.784 4-4v-0.25c0 2.216-1.784 4-4 4h-38c-2.216 0-4-1.784-4-4zm0 0.5v0.5c0 2.216 1.784 4 4 4h38c2.216 0 4-1.784 4-4v-0.5c0 2.216-1.784 4-4 4h-38c-2.216 0-4-1.784-4-4z" style="opacity:.02"/>
 <path d="m1 43.25v0.25c0 2.216 1.784 4 4 4h38c2.216 0 4-1.784 4-4v-0.25c0 2.216-1.784 4-4 4h-38c-2.216 0-4-1.784-4-4z" style="opacity:.05"/>
 <path d="m1 43v0.25c0 2.216 1.784 4 4 4h38c2.216 0 4-1.784 4-4v-0.25c0 2.216-1.784 4-4 4h-38c-2.216 0-4-1.784-4-4z" style="opacity:.1"/>
 <rect x="1" y="1" width="46" height="46" rx="4" style="fill:url(#bg)"/>
 <path d="m1 39v4c0 2.216 1.784 4 4 4h38c2.216 0 4-1.784 4-4v-4c0 2.216-1.784 4-4 4h-38c-2.216 0-4-1.784-4-4z" style="opacity:.1"/>
 <path d="m27 14c-2.5523 0-4.7158 1.581-5.5859 3.8184-0.69391-0.52874-1.5417-0.81773-2.4141-0.81836-2.2091-2e-3 -4 1.7909-4 4v0.21094c-2.3122 0.6506-4 2.7633-4 5.2891 0 3.047 2.453 5.5 5.5 5.5h4c0.27614 0 0.5-0.22386 0.5-0.5s-0.22386-0.5-0.5-0.5h-4c-2.5103 0-4.5-1.9897-4.5-4.5 0-2.0802 1.3805-3.7941 3.2715-4.3262l0.72852-0.20508v-0.96875c0-1.668 1.3303-3.0007 2.998-3 0.65445 2.7e-4 1.29 0.21664 1.8105 0.61328l1.0566 0.80469 0.48047-1.2363c0.72482-1.8638 2.5149-3.1816 4.6543-3.1816 2.7873 0 5 2.2127 5 5v1.9688l0.72852 0.20508c1.891 0.53207 3.2715 2.2459 3.2715 4.3262 0 2.5103-1.9897 4.5-4.5 4.5-0.27614 0-0.5 0.22386-0.5 0.5s0.22386 0.50159 0.5 0.5c3.0305-0.0174 5.5-2.4649 5.5-5.5 0-2.5257-1.6878-4.6385-4-5.2891v-1.2109c0-3.324-2.676-6-6-6zm-4 6c-0.554 0-1 0.446-1 1v12c0 0.554 0.446 1 1 1h6c0.554 0 1-0.446 1-1v-12c0-0.554-0.446-1-1-1zm0.5 1h5c0.277 0 0.5 0.223 0.5 0.5v11c0 0.277-0.223 0.5-0.5 0.5h-5c-0.277 0-0.5-0.223-0.5-0.5v-11c0-0.277 0.223-0.5 0.5-0.5zm3 1c-0.277 0-0.5 0.223-0.5 0.5s0.223 0.5 0.5 0.5h1c0.277 0 0.5-0.223 0.5-0.5s-0.223-0.5-0.5-0.5zm-2 5c-0.277 0-0.5 0.223-0.5 0.5s0.223 0.5 0.5 0.5h3c0.277 0 0.5-0.223 0.5-0.5s-0.223-0.5-0.5-0.5zm0 2c-0.277 0-0.5 0.223-0.5 0.5s0.223 0.5 0.5 0.5h3c0.277 0 0.5-0.223 0.5-0.5s-0.223-0.5-0.5-0.5zm0 2c-0.277 0-0.5 0.223-0.5 0.5s0.223 0.5 0.5 0.5h3c0.277 0 0.5-0.223 0.5-0.5s-0.223-0.5-0.5-0.5z" style="opacity:.1;paint-order:normal"/>
 <path d="m27 13c-2.5523 0-4.7158 1.581-5.5859 3.8184-0.69391-0.52874-1.5417-0.81773-2.4141-0.81836-2.2091-2e-3 -4 1.7909-4 4v0.21094c-2.3122 0.6506-4 2.7633-4 5.2891 0 3.047 2.453 5.5 5.5 5.5h4c0.27614 0 0.5-0.22386 0.5-0.5s-0.22386-0.5-0.5-0.5h-4c-2.5103 0-4.5-1.9897-4.5-4.5 0-2.0802 1.3805-3.7941 3.2715-4.3262l0.72852-0.20508v-0.96875c0-1.668 1.3303-3.0007 2.998-3 0.65445 2.7e-4 1.29 0.21664 1.8105 0.61328l1.0566 0.80469 0.48047-1.2363c0.72482-1.8638 2.5149-3.1816 4.6543-3.1816 2.7873 0 5 2.2127 5 5v1.9688l0.72852 0.20508c1.891 0.53207 3.2715 2.2459 3.2715 4.3262 0 2.5103-1.9897 4.5-4.5 4.5-0.27614 0-0.5 0.22386-0.5 0.5s0.22386 0.50159 0.5 0.5c3.0305-0.0174 5.5-2.4649 5.5-5.5 0-2.5257-1.6878-4.6385-4-5.2891v-1.2109c0-3.324-2.676-6-6-6zm-4 6c-0.554 0-1 0.446-1 1v12c0 0.554 0.446 1 1 1h6c0.554 0 1-0.446 1-1v-12c0-0.554-0.446-1-1-1zm0.5 1h5c0.277 0 0.5 0.223 0.5 0.5v11c0 0.277-0.223 0.5-0.5 0.5h-5c-0.277 0-0.5-0.223-0.5-0.5v-11c0-0.277 0.223-0.5 0.5-0.5zm3 1c-0.277 0-0.5 0.223-0.5 0.5s0.223 0.5 0.5 0.5h1c0.277 0 0.5-0.223 0.5-0.5s-0.223-0.5-0.5-0.5zm-2 5c-0.277 0-0.5 0.223-0.5 0.5s0.223 0.5 0.5 0.5h3c0.277 0 0.5-0.223 0.5-0.5s-0.223-0.5-0.5-0.5zm0 2c-0.277 0-0.5 0.223-0.5 0.5s0.223 0.5 0.5 0.5h3c0.277 0 0.5-0.223 0.5-0.5s-0.223-0.5-0.5-0.5zm0 2c-0.277 0-0.5 0.223-0.5 0.5s0.223 0.5 0.5 0.5h3c0.277 0 0.5-0.223 0.5-0.5s-0.223-0.5-0.5-0.5z" style="fill:#33a5e5;paint-order:normal"/>
</svg>
