<svg style="" viewBox="0 0 48 48" xmlns="http://www.w3.org/2000/svg" xmlns:xlink="http://www.w3.org/1999/xlink">
 <defs style="">
  <linearGradient id="linearGradient3764" gradientTransform="translate(-48 .002215)" gradientUnits="userSpaceOnUse" style="" x1="1" x2="47">
   <stop offset="0" style="stop-color:#575757"/>
   <stop offset="1" style="stop-color:#616161"/>
  </linearGradient>
 </defs>
 <path d="m 1 43 v .25 c 0 2.216 1.784 4 4 4 h 38 c 2.216 0 4 -1.784 4 -4 v -.25 c 0 2.216 -1.784 4 -4 4 h -38 c -2.216 0 -4 -1.784 -4 -4 z m 0 .5 v .5 c 0 2.216 1.784 4 4 4 h 38 c 2.216 0 4 -1.784 4 -4 v -.5 c 0 2.216 -1.784 4 -4 4 h -38 c -2.216 0 -4 -1.784 -4 -4 z" style="opacity:.02"/>
 <path d="m 1 43.25 v .25 c 0 2.216 1.784 4 4 4 h 38 c 2.216 0 4 -1.784 4 -4 v -.25 c 0 2.216 -1.784 4 -4 4 h -38 c -2.216 0 -4 -1.784 -4 -4 z" style="opacity:.05"/>
 <path d="m 1 43 v .25 c 0 2.216 1.784 4 4 4 h 38 c 2.216 0 4 -1.784 4 -4 v -.25 c 0 2.216 -1.784 4 -4 4 h -38 c -2.216 0 -4 -1.784 -4 -4 z" style="opacity:.1"/>
 <rect height="46" rx="4" style="fill:url(#linearGradient3764)" transform="rotate(-90)" width="46" x="-47" y="1"/>
 <g style="opacity:.1">
  <path d="m 23.996 14 c -5.52 0 -9.996 1.398 -9.996 3.125 v 2.5 c 0 1.723 4.477 3.121 9.996 3.121 5.523 0 10 -1.398 10 -3.121 v -2.5 c 0 -1.727 -4.477 -3.125 -10 -3.125" style=""/>
  <path d="m 23.965 24 c -4.477 0 -8.25 -.918 -9.523 -2.188 -.297 .297 -.445 .613 -.445 .938 v 2.5 c 0 1.727 4.477 3.125 10 3.125 s 10 -1.398 10 -3.125 v -2.5 c 0 -.324 -.176 -.641 -.473 -.938 -1.273 1.27 -5.082 2.188 -9.559 2.188" style=""/>
  <path d="m 23.965 29.625 c -4.477 0 -8.25 -.918 -9.523 -2.188 -.297 .297 -.445 .613 -.445 .938 v 2.5 c 0 1.727 4.477 3.125 10 3.125 s 10 -1.398 10 -3.125 v -2.5 c 0 -.324 -.176 -.641 -.473 -.938 -1.273 1.27 -5.082 2.188 -9.559 2.188" style=""/>
  <path d="m 21.262 13.93 c .754 -1.098 1.586 -2.227 2.738 -2.93 1.137 .684 1.914 1.797 2.66 2.871 1.75 2.664 2.82 5.863 2.605 9.08 .563 .48 1.145 .941 1.703 1.422 .801 .738 1.176 1.898 .98 2.98 -.266 1.352 -.523 2.688 -.809 4.059 -.16 .691 -1.094 1.023 -1.648 .566 -.906 -.773 -1.801 -1.566 -2.715 -2.324 -.688 .668 -1.602 1.105 -2.566 1.164 -1.105 .082 -2.203 -.395 -3.01 -1.145 -.656 .504 -1.262 1.105 -1.902 1.645 -.309 .25 -.566 .578 -.93 .746 -.566 .246 -1.297 -.121 -1.426 -.727 -.293 -1.316 -.598 -2.641 -.883 -3.957 -.23 -1.105 .18 -2.34 1.035 -3.09 .496 -.418 1 -.824 1.508 -1.227 .141 -.074 .07 -.246 .078 -.375 -.152 -3.102 .902 -6.168 2.578 -8.742 m .895 4.086 c -.664 .855 -.582 2.184 .184 2.945 .816 .895 2.355 .934 3.207 .063 .656 -.602 .879 -1.602 .563 -2.438 -.285 -.816 -1.055 -1.402 -1.895 -1.48 -.781 -.09 -1.594 .273 -2.059 .906" style=""/>
  <path d="m 21 32.434 c -.008 -.391 .414 -.641 .742 -.43 1.379 .711 3.094 .691 4.473 -.023 .313 -.195 .773 .039 .785 .418 .004 .828 .004 1.656 0 2.48 .008 .406 -.516 .66 -.824 .41 -.238 -.211 -.453 -.449 -.684 -.668 -.359 .707 -.699 1.426 -1.066 2.129 -.172 .336 -.723 .336 -.898 .008 -.363 -.703 -.703 -1.426 -1.074 -2.133 -.223 .223 -.438 .457 -.676 .668 -.313 .254 -.785 .113 -.781 -.289 -.004 -.816 0 -1.754 0 -2.57" style=""/>
  <path d="m 25.5 19.5 c 0 .828 -.672 1.5 -1.5 1.5 s -1.5 -.672 -1.5 -1.5 .672 -1.5 1.5 -1.5 1.5 .672 1.5 1.5" style=""/>
 </g>
 <path d="m 23.996 13 c -5.52 0 -9.996 1.398 -9.996 3.125 v 2.5 c 0 1.723 4.477 3.121 9.996 3.121 5.523 0 10 -1.398 10 -3.121 v -2.5 c 0 -1.727 -4.477 -3.125 -10 -3.125" style="fill:#dedede"/>
 <path d="m 23.965 23 c -4.477 0 -8.25 -.918 -9.523 -2.188 -.297 .297 -.445 .613 -.445 .938 v 2.5 c 0 1.727 4.477 3.125 10 3.125 s 10 -1.398 10 -3.125 v -2.5 c 0 -.324 -.176 -.641 -.473 -.938 -1.273 1.27 -5.082 2.188 -9.559 2.188" style="fill:#dedede"/>
 <path d="m 23.965 28.625 c -4.477 0 -8.25 -.918 -9.523 -2.188 -.297 .297 -.445 .613 -.445 .938 v 2.5 c 0 1.727 4.477 3.125 10 3.125 s 10 -1.398 10 -3.125 v -2.5 c 0 -.324 -.176 -.641 -.473 -.938 -1.273 1.27 -5.082 2.188 -9.559 2.188" style="fill:#dedede"/>
 <path d="m 21.262 12.93 c .754 -1.098 1.586 -2.227 2.738 -2.93 1.137 .684 1.914 1.797 2.66 2.871 1.75 2.664 2.82 5.863 2.605 9.08 .563 .48 1.145 .941 1.703 1.422 .801 .738 1.176 1.898 .98 2.98 -.266 1.352 -.523 2.688 -.809 4.059 -.16 .691 -1.094 1.023 -1.648 .566 -.906 -.773 -1.801 -1.566 -2.715 -2.324 -.688 .668 -1.602 1.105 -2.566 1.164 -1.105 .082 -2.203 -.395 -3.01 -1.145 -.656 .504 -1.262 1.105 -1.902 1.645 -.309 .25 -.566 .578 -.93 .746 -.566 .246 -1.297 -.121 -1.426 -.727 -.293 -1.316 -.598 -2.641 -.883 -3.957 -.23 -1.105 .18 -2.34 1.035 -3.09 .496 -.418 1 -.824 1.508 -1.227 .141 -.074 .07 -.246 .078 -.375 -.152 -3.102 .902 -6.168 2.578 -8.742 m .895 4.086 c -.664 .855 -.582 2.184 .184 2.945 .816 .895 2.355 .934 3.207 .063 .656 -.602 .879 -1.602 .563 -2.438 -.285 -.816 -1.055 -1.402 -1.895 -1.48 -.781 -.09 -1.594 .273 -2.059 .906" style="fill:#127db2"/>
 <path d="m 21 31.434 c -.008 -.391 .414 -.641 .742 -.43 1.379 .711 3.094 .691 4.473 -.023 .313 -.195 .773 .039 .785 .418 .004 .828 .004 1.656 0 2.48 .008 .406 -.516 .66 -.824 .41 -.238 -.211 -.453 -.449 -.684 -.668 -.359 .707 -.699 1.426 -1.066 2.129 -.172 .336 -.723 .336 -.898 .008 -.363 -.703 -.703 -1.426 -1.074 -2.133 -.223 .223 -.438 .457 -.676 .668 -.313 .254 -.785 .113 -.781 -.289 -.004 -.816 0 -1.754 0 -2.57" style="fill:#d60f0f"/>
 <path d="m 25.5 18.5 c 0 .828 -.672 1.5 -1.5 1.5 s -1.5 -.672 -1.5 -1.5 .672 -1.5 1.5 -1.5 1.5 .672 1.5 1.5" style="fill:#007016"/>
 <path d="m 1 39 v 4 c 0 2.216 1.784 4 4 4 h 38 c 2.216 0 4 -1.784 4 -4 v -4 c 0 2.216 -1.784 4 -4 4 h -38 c -2.216 0 -4 -1.784 -4 -4 z" style="opacity:.1"/>
</svg>
