<svg version="1.1" viewBox="0 0 48 48" xmlns="http://www.w3.org/2000/svg">
 <defs>
  <linearGradient id="lG4501" x1="-47" x2="-1" y1="2.88e-15" y2="6.12e-17" gradientUnits="userSpaceOnUse">
   <stop style="stop-color:#3d3d3d" offset="0"/>
   <stop style="stop-color:#555" offset="1"/>
  </linearGradient>
  <linearGradient id="lG3803" x1="9" x2="39" gradientTransform="translate(-11.4 -54.7)" gradientUnits="userSpaceOnUse">
   <stop style="stop-color:#f38a30" offset="0"/>
   <stop style="stop-color:#60523e" offset="1"/>
  </linearGradient>
 </defs>
 <path d="m1 43v0.25c0 2.22 1.78 4 4 4h38c2.22 0 4-1.78 4-4v-0.25c0 2.22-1.78 4-4 4h-38c-2.22 0-4-1.78-4-4zm0 0.5v0.5c0 2.22 1.78 4 4 4h38c2.22 0 4-1.78 4-4v-0.5c0 2.22-1.78 4-4 4h-38c-2.22 0-4-1.78-4-4z" style="opacity:.02"/>
 <path d="m1 43.3v0.25c0 2.22 1.78 4 4 4h38c2.22 0 4-1.78 4-4v-0.25c0 2.22-1.78 4-4 4h-38c-2.22 0-4-1.78-4-4z" style="opacity:.05"/>
 <path d="m1 43v0.25c0 2.22 1.78 4 4 4h38c2.22 0 4-1.78 4-4v-0.25c0 2.22-1.78 4-4 4h-38c-2.22 0-4-1.78-4-4z" style="opacity:.1"/>
 <rect transform="rotate(-90)" x="-47" y="1" width="46" height="46" rx="4" style="fill:url(#lG4501)"/>
 <path d="m10.5 3a0.5 0.5 0 0 0-0.467 0.498 0.5 0.5 0 0 0 1 0 0.5 0.5 0 0 0-0.533-0.498zm20 0a0.5 0.5 0 0 0-0.467 0.498 0.5 0.5 0 0 0 1 0 0.5 0.5 0 0 0-0.533-0.498zm14 1a0.5 0.5 0 0 0-0.467 0.498 0.5 0.5 0 0 0 1 0 0.5 0.5 0 0 0-0.533-0.498zm-29 1a0.5 0.5 0 0 0-0.467 0.498 0.5 0.5 0 0 0 1 0 0.5 0.5 0 0 0-0.533-0.498zm7 0a0.5 0.5 0 0 0-0.467 0.498 0.5 0.5 0 0 0 1 0 0.5 0.5 0 0 0-0.533-0.498zm16 0a0.5 0.5 0 0 0-0.467 0.498 0.5 0.5 0 0 0 1 0 0.5 0.5 0 0 0-0.533-0.498zm-32 2a0.5 0.5 0 0 0-0.467 0.498 0.5 0.5 0 0 0 1 0 0.5 0.5 0 0 0-0.533-0.498zm26 1a0.5 0.5 0 0 0-0.467 0.498 0.5 0.5 0 0 0 1 0 0.5 0.5 0 0 0-0.533-0.498zm8 2a0.5 0.5 0 0 0-0.467 0.498 0.5 0.5 0 0 0 1 0 0.5 0.5 0 0 0-0.533-0.498zm-30 1a0.5 0.5 0 0 0-0.467 0.498 0.5 0.5 0 0 0 1 0 0.5 0.5 0 0 0-0.533-0.498zm-6 4a0.5 0.5 0 0 0-0.467 0.498 0.5 0.5 0 0 0 1 0 0.5 0.5 0 0 0-0.533-0.498zm38 0a0.5 0.5 0 0 0-0.467 0.498 0.5 0.5 0 0 0 1 0 0.5 0.5 0 0 0-0.533-0.498zm-36 7a0.5 0.5 0 0 0-0.467 0.498 0.5 0.5 0 0 0 1 0 0.5 0.5 0 0 0-0.533-0.498zm34 0a0.5 0.5 0 0 0-0.467 0.498 0.5 0.5 0 0 0 1 0 0.5 0.5 0 0 0-0.533-0.498zm4 3a0.5 0.5 0 0 0-0.467 0.498 0.5 0.5 0 0 0 1 0 0.5 0.5 0 0 0-0.533-0.498zm-40 2a0.5 0.5 0 0 0-0.467 0.498 0.5 0.5 0 0 0 1 0 0.5 0.5 0 0 0-0.533-0.498zm37 3a0.5 0.5 0 0 0-0.467 0.498 0.5 0.5 0 0 0 1 0 0.5 0.5 0 0 0-0.533-0.498zm-32 3a0.5 0.5 0 0 0-0.467 0.498 0.5 0.5 0 0 0 1 0 0.5 0.5 0 0 0-0.533-0.498zm27 1a0.5 0.5 0 0 0-0.467 0.498 0.5 0.5 0 0 0 1 0 0.5 0.5 0 0 0-0.533-0.498zm-32 1a0.5 0.5 0 0 0-0.467 0.498 0.5 0.5 0 0 0 1 0 0.5 0.5 0 0 0-0.533-0.498zm13 3a0.5 0.5 0 0 0-0.467 0.498 0.5 0.5 0 0 0 1 0 0.5 0.5 0 0 0-0.533-0.498zm-5 1a0.5 0.5 0 0 0-0.467 0.498 0.5 0.5 0 0 0 1 0 0.5 0.5 0 0 0-0.533-0.498zm13 0a0.5 0.5 0 0 0-0.467 0.498 0.5 0.5 0 0 0 1 0 0.5 0.5 0 0 0-0.533-0.498zm17 1a0.5 0.5 0 0 0-0.467 0.498 0.5 0.5 0 0 0 1 0 0.5 0.5 0 0 0-0.533-0.498zm-9 1a0.5 0.5 0 0 0-0.467 0.498 0.5 0.5 0 0 0 1 0 0.5 0.5 0 0 0-0.533-0.498zm-28 1a0.5 0.5 0 0 0-0.467 0.498 0.5 0.5 0 0 0 1 0 0.5 0.5 0 0 0-0.533-0.498zm16 1a0.5 0.5 0 0 0-0.467 0.498 0.5 0.5 0 0 0 1 0 0.5 0.5 0 0 0-0.533-0.498z" style="fill:#f9f9f9"/>
 <path d="m1 39v4c0 2.22 1.78 4 4 4h38c2.22 0 4-1.78 4-4v-4c0 2.22-1.78 4-4 4h-38c-2.22 0-4-1.78-4-4z" style="opacity:.1"/>
 <circle cx="24" cy="24" r="15" style="fill-opacity:.11"/>
 <circle transform="rotate(111)" cx="12.6" cy="-30.7" r="15" style="fill:url(#lG3803)"/>
</svg>
