<svg viewBox="0 0 48 48">
  <defs>
    <linearGradient id="a" x1="1" x2="47" gradientUnits="userSpaceOnUse" gradientTransform="translate(-48 .002)">
      <stop stop-color="#e1bf07"/>
      <stop offset="1" stop-color="#f3ce08"/>
    </linearGradient>
    <clipPath id="b"/>
    <clipPath id="c"/>
  </defs>
  <path d="M1 43v.25c0 2.216 1.784 4 4 4h38c2.216 0 4-1.784 4-4V43c0 2.216-1.784 4-4 4H5c-2.216 0-4-1.784-4-4zm0 .5v.5c0 2.216 1.784 4 4 4h38c2.216 0 4-1.784 4-4v-.5c0 2.216-1.784 4-4 4H5c-2.216 0-4-1.784-4-4z" opacity=".02"/>
  <path d="M1 43.25v.25c0 2.216 1.784 4 4 4h38c2.216 0 4-1.784 4-4v-.25c0 2.216-1.784 4-4 4H5c-2.216 0-4-1.784-4-4z" opacity=".05"/>
  <path d="M1 43v.25c0 2.216 1.784 4 4 4h38c2.216 0 4-1.784 4-4V43c0 2.216-1.784 4-4 4H5c-2.216 0-4-1.784-4-4z" opacity=".1"/>
  <rect width="46" height="46" x="-47" y="1" rx="4" transform="rotate(-90)" fill="url(#a)"/>
  <g clip-path="url(#b)">
    <path d="M24 9c-2.559 0-4.969.645-7.078 1.773h2.98v.203c-.395.02-.664.125-.809.313-.301-.211-.598-.313-.883-.313h-.98l-.547.086-.098-.086h-.031c-.391.223-.77.465-1.137.723.84 1.207 1.348 2.246 1.523 3.121h.813v.203h-.625v.227c.238.875.414 1.313.527 1.313h.191l.434-.113.094.113.098-.113.094.113v.082c-.32.23-.535.543-.645.945h-.07v.199h.168c.223 3.168.637 5.57 1.242 7.207l.355.281h.191c.227 0 .742-1.109 1.504-3.332.492-1 .852-1.887 1.074-2.645l-.105-.316c.496-.738 1.016-1.109 1.531-1.109h.168c.332 0 .57.211.711.629.449.625.813 1.57 1.078 2.824l1.34 2.961c.172.211.258.445.258.711.492 1.121.941 1.863 1.348 2.223h.289c.332 0 .77-1.387 1.332-4.16.098 0 .355-.738.793-2.223v-.113l-1.512-.195-.352.109h-.457v-.227l.91-.09h1.766c.688-2.449 1.316-4.348 1.887-5.699.063-.859.133-1.57.203-2.168a15.12 15.12 0 0 0-3.441-2.145c-.105.234-.297.352-.602.352v-.195l.555-.184a14.942 14.942 0 0 0-6.078-1.281m-2.863 1.77h2.414v.203l-.547.086-.531-.086-.453.199-.16-.199h-.719v-.203m4.988 1.629h.262v.086c0 .133-.09.195-.262.195l-.102.113v.113l-.262-.113v-.195m-12.465.879a14.97 14.97 0 0 0-4.316 10.527c0 8.281 6.723 14.996 15 14.996 8.281 0 15-6.715 15-14.996a14.98 14.98 0 0 0-2.938-8.938c-.406.477-.797 1.383-1.191 2.719a18.413 18.413 0 0 1-.883 3.844c-.367 1.215-.551 2.336-.551 3.363l-.691 2.023c0 .168.273.34.789.508-.098.402-.23.598-.434.598v.113h.168v.086c0 .211-.273.313-.816.313l.102.113v.402h-.164c.105.398.344.594.711.594v.203h-.711v.113c.23 0 .352.168.352.508l-1 .398.102.113v.09c0 .133-.121.195-.359.195v.113c.301 0 .453.066.453.199-.426.172-.992 1.02-1.695 2.539-.715 1.348-1.336 2.02-1.852 2.02h-.191c-.395-.305-.723-1.313-.977-3.02-1.023-2.605-1.527-4.133-1.527-4.586 0-1.191-.332-2.441-.984-3.773-.172-.59-.289-1.332-.352-2.227l-.441-.109c-1.086 1.957-1.645 3.484-1.688 4.586-.301.648-.539 1.438-.715 2.352.645.191.977.395.977.598v.102c-.508-.066-.863-.219-1.07-.43-.227.523-.52 1.941-.887 4.273-.289 1.082-.641 1.625-1.074 1.625a6.982 6.982 0 0 1-3.03-2.332c-.129 0-.34-.543-.625-1.637-.191 0-.293-.531-.359-1.613-.602-1.539-1.016-3.309-1.238-5.273v-2.961h-.098l-.43.113v-.113c0-.137.145-.199.43-.199l-.094-1.707v-1.34l-.695-4.27v-.828m11.488.043v.105c0 .148-.379.316-1.148.48v-.203l.527-.277.094.082h.074m-2.129.828v.082c-.332.316-.879.582-1.625.832v-.199c.129 0 .188-.102.188-.313l1.438-.398m13.508.109l-.043.367h.168l.105-.082c-.074-.105-.152-.195-.23-.289m-8.965.887l.098.113v.082l-.168.227h-.094l-.191-.227v-.082m3.648 0h.094v.082l-.16.227h-.098v-.109l.164-.195m-1.504 1.418l.352.289c-.063.207-.234.313-.52.313l-.191-.313c0-.102.121-.191.355-.289m2.145 1.313l.07.105v.09l-.07.113h-.188v-.113m-3.195.824v.09l-.453.426h-.262v-.105c0-.168.238-.313.715-.398M12.503 23.36h.098v.102c-.238.625-.445 1-.617 1.137h-.188v-.441m12.391 3.98h.094v.188l-.715.441-.094-.113v-.199l.715-.313m-9.813 1.336h.16l.285 1.102h-.188l-.273-1.02v-.086m9.566 1.313h.063l.285.316-.094.086h-.105l-.164-.285m0-.113" opacity=".1"/>
  </g>
  <g>
    <g clip-path="url(#c)">
      <path d="M24 8c-2.559 0-4.969.645-7.078 1.773h2.98v.203c-.395.02-.664.125-.809.313-.301-.211-.598-.313-.883-.313h-.98l-.547.086-.098-.086h-.031c-.391.223-.77.465-1.137.723.84 1.207 1.348 2.246 1.523 3.121h.813v.203h-.625v.227c.238.875.414 1.313.527 1.313h.191l.434-.113.094.113.098-.113.094.113v.082c-.32.23-.535.543-.645.945h-.07v.199h.168c.223 3.168.637 5.57 1.242 7.207l.355.281h.191c.227 0 .742-1.109 1.504-3.332.492-1 .852-1.887 1.074-2.645l-.105-.316c.496-.738 1.016-1.109 1.531-1.109h.168c.332 0 .57.211.711.629.449.625.813 1.57 1.078 2.824l1.34 2.961c.172.211.258.445.258.711.492 1.121.941 1.863 1.348 2.223h.289c.332 0 .77-1.387 1.332-4.16.098 0 .355-.738.793-2.223v-.113l-1.512-.195-.352.109h-.457v-.227l.91-.09h1.766c.688-2.449 1.316-4.348 1.887-5.699.063-.859.133-1.57.203-2.168a15.12 15.12 0 0 0-3.441-2.145c-.105.234-.297.352-.602.352v-.195l.555-.184a14.942 14.942 0 0 0-6.078-1.281m-2.863 1.77h2.414v.203l-.547.086-.531-.086-.453.199-.16-.199h-.719v-.203m4.988 1.629h.262v.086c0 .133-.09.195-.262.195l-.102.113v.113l-.262-.113v-.195m-12.465.879a14.97 14.97 0 0 0-4.316 10.527c0 8.281 6.723 14.996 15 14.996 8.281 0 15-6.715 15-14.996a14.98 14.98 0 0 0-2.938-8.938c-.406.477-.797 1.383-1.191 2.719a18.413 18.413 0 0 1-.883 3.844c-.367 1.215-.551 2.336-.551 3.363l-.691 2.023c0 .168.273.34.789.508-.098.402-.23.598-.434.598v.113h.168v.086c0 .211-.273.313-.816.313l.102.113v.402h-.164c.105.398.344.594.711.594v.203h-.711v.113c.23 0 .352.168.352.508l-1 .398.102.113v.09c0 .133-.121.195-.359.195v.113c.301 0 .453.066.453.199-.426.172-.992 1.02-1.695 2.539-.715 1.348-1.336 2.02-1.852 2.02h-.191c-.395-.305-.723-1.313-.977-3.02-1.023-2.605-1.527-4.133-1.527-4.586 0-1.191-.332-2.441-.984-3.773-.172-.59-.289-1.332-.352-2.227l-.441-.109c-1.086 1.957-1.645 3.484-1.688 4.586-.301.648-.539 1.438-.715 2.352.645.191.977.395.977.598v.102c-.508-.066-.863-.219-1.07-.43-.227.523-.52 1.941-.887 4.273-.289 1.082-.641 1.625-1.074 1.625a6.982 6.982 0 0 1-3.03-2.332c-.129 0-.34-.543-.625-1.637-.191 0-.293-.531-.359-1.613-.602-1.539-1.016-3.309-1.238-5.273v-2.961h-.098l-.43.113v-.113c0-.137.145-.199.43-.199l-.094-1.707v-1.34l-.695-4.27v-.828m11.488.043v.105c0 .148-.379.316-1.148.48v-.203l.527-.277.094.082h.074m-2.129.828v.082c-.332.316-.879.582-1.625.832v-.199c.129 0 .188-.102.188-.313l1.438-.398m13.508.109l-.043.367h.168l.105-.082c-.074-.105-.152-.195-.23-.289m-8.965.887l.098.113v.082l-.168.227h-.094l-.191-.227v-.082m3.648 0h.094v.082l-.16.227h-.098v-.109l.164-.195m-1.504 1.418l.352.289c-.063.207-.234.313-.52.313l-.191-.313c0-.102.121-.191.355-.289m2.145 1.313l.07.105v.09l-.07.113h-.188v-.113m-3.195.824v.09l-.453.426h-.262v-.105c0-.168.238-.313.715-.398M12.503 22.36h.098v.102c-.238.625-.445 1-.617 1.137h-.188v-.441m12.391 3.98h.094v.188l-.715.441-.094-.113v-.199l.715-.313m-9.813 1.336h.16l.285 1.102h-.188l-.273-1.02v-.086m9.566 1.313h.063l.285.316-.094.086h-.105l-.164-.285m0-.113" fill="#f9f9f9"/>
    </g>
  </g>
  <g>
    <path d="M1 38.998v4c0 2.216 1.784 4 4 4h38c2.216 0 4-1.784 4-4v-4c0 2.216-1.784 4-4 4H5c-2.216 0-4-1.784-4-4z" opacity=".1"/>
  </g>
</svg>
