<svg version="1.1" viewBox="0 0 48 48" xmlns="http://www.w3.org/2000/svg">
 <defs>
  <linearGradient id="bg" x2="0" y1="1" y2="47" gradientUnits="userSpaceOnUse">
   <stop style="stop-color:#3e5270" offset="0"/>
   <stop style="stop-color:#364963" offset="1"/>
  </linearGradient>
 </defs>
 <path d="m1 43v0.25c0 2.22 1.78 4 4 4h38c2.22 0 4-1.78 4-4v-0.25c0 2.22-1.78 4-4 4h-38c-2.22 0-4-1.78-4-4zm0 0.5v0.5c0 2.22 1.78 4 4 4h38c2.22 0 4-1.78 4-4v-0.5c0 2.22-1.78 4-4 4h-38c-2.22 0-4-1.78-4-4z" style="opacity:.02"/>
 <path d="m1 43.2v0.25c0 2.22 1.78 4 4 4h38c2.22 0 4-1.78 4-4v-0.25c0 2.22-1.78 4-4 4h-38c-2.22 0-4-1.78-4-4z" style="opacity:.05"/>
 <path d="m1 43v0.25c0 2.22 1.78 4 4 4h38c2.22 0 4-1.78 4-4v-0.25c0 2.22-1.78 4-4 4h-38c-2.22 0-4-1.78-4-4z" style="opacity:.1"/>
 <rect x="1" y="1" width="46" height="46" rx="4" style="fill:url(#bg)"/>
 <path d="m1 39v4c0 2.22 1.78 4 4 4h38c2.22 0 4-1.78 4-4v-4c0 2.22-1.78 4-4 4h-38c-2.22 0-4-1.78-4-4z" style="opacity:.1"/>
 <path d="m15 13c-2.05 0.0402-4.02 2.06-2.59 4.21l4.56 6.79-4.56 6.79c-2.09 3.12 3.04 5.98 5.12 2.86l6.44-9.69-6.44-9.61c-0.652-0.975-1.6-1.37-2.53-1.35zm17.9 0c-0.932-0.0183-1.88 0.373-2.53 1.35l-6.44 9.65 6.44 9.65c2.09 3.12 7.21 0.26 5.12-2.86l-4.56-6.79 4.56-6.79c1.43-2.14-0.539-4.17-2.59-4.21z" style="opacity:.1"/>
 <path d="m33 12c-0.932-0.0183-1.88 0.372-2.53 1.35l-6.44 9.65 6.44 9.65c2.09 3.12 7.21 0.261 5.12-2.86l-4.56-6.79 4.56-6.79c1.43-2.14-0.539-4.17-2.59-4.21z" style="fill:#27b7e1"/>
 <path d="m15 12c-2.05 0.0402-4.02 2.06-2.59 4.21l4.56 6.79-4.56 6.79c-2.09 3.12 3.04 5.98 5.12 2.86l6.44-9.69-6.44-9.61c-0.652-0.975-1.6-1.37-2.53-1.35z" style="fill:#f9f9f9"/>
</svg>
