<svg style="" viewBox="0 0 48 48" xmlns="http://www.w3.org/2000/svg" xmlns:xlink="http://www.w3.org/1999/xlink">
 <defs style="">
  <linearGradient id="linearGradient3764" gradientTransform="translate(-48 .002215)" gradientUnits="userSpaceOnUse" style="" x1="1" x2="47">
   <stop offset="0" style="stop-color:#098cc3"/>
   <stop offset="1" style="stop-color:#0a99d6"/>
  </linearGradient>
 </defs>
 <path d="m 1 43 v .25 c 0 2.216 1.784 4 4 4 h 38 c 2.216 0 4 -1.784 4 -4 v -.25 c 0 2.216 -1.784 4 -4 4 h -38 c -2.216 0 -4 -1.784 -4 -4 z m 0 .5 v .5 c 0 2.216 1.784 4 4 4 h 38 c 2.216 0 4 -1.784 4 -4 v -.5 c 0 2.216 -1.784 4 -4 4 h -38 c -2.216 0 -4 -1.784 -4 -4 z" style="opacity:.02"/>
 <path d="m 1 43.25 v .25 c 0 2.216 1.784 4 4 4 h 38 c 2.216 0 4 -1.784 4 -4 v -.25 c 0 2.216 -1.784 4 -4 4 h -38 c -2.216 0 -4 -1.784 -4 -4 z" style="opacity:.05"/>
 <path d="m 1 43 v .25 c 0 2.216 1.784 4 4 4 h 38 c 2.216 0 4 -1.784 4 -4 v -.25 c 0 2.216 -1.784 4 -4 4 h -38 c -2.216 0 -4 -1.784 -4 -4 z" style="opacity:.1"/>
 <rect height="46" rx="4" style="fill:url(#linearGradient3764)" transform="rotate(-90)" width="46" x="-47" y="1"/>
 <path d="m 17.977 14.207 c -6.695 3.48 -8.04 12.531 -2.629 17.688 3.109 2.965 7.285 3.844 11.633 2.434 4.16 -1.352 7.02 -5.547 7.02 -9.855 0 -1.648 .188 -2.133 1.648 -2.59 1.355 -.418 2.355 -1.895 2.355 -2.902 -2.52 .109 -7 -1.996 -9 -4.5 v 5 c 0 5.348 -.914 6.531 -3.03 8.03 -1.707 1.207 -4.813 1.418 -6.348 .438 -2.34 -1.496 -2.32 -4.355 .059 -6.777 2.254 -1.789 3.895 -1.902 6.313 -1.738 v -6.04 c -2.602 -.77 -5.68 -.363 -8.02 .813" style="opacity:.1"/>
 <path d="m 17.977 13.207 c -6.695 3.48 -8.04 12.531 -2.629 17.688 3.109 2.965 7.285 3.844 11.633 2.434 4.16 -1.352 7.02 -5.547 7.02 -9.855 0 -1.648 .188 -2.133 1.648 -2.59 1.355 -.418 2.355 -1.895 2.355 -2.902 -2.52 .109 -7 -1.996 -9 -4.5 v 5 c 0 5.348 -.914 6.531 -3.03 8.03 -1.707 1.207 -4.813 1.418 -6.348 .438 -2.34 -1.496 -2.32 -4.355 .059 -6.777 2.254 -1.789 3.895 -1.902 6.313 -1.738 v -6.04 c -2.602 -.77 -5.68 -.363 -8.02 .813" style="fill:#f9f9f9"/>
 <path d="m 1 39 v 4 c 0 2.216 1.784 4 4 4 h 38 c 2.216 0 4 -1.784 4 -4 v -4 c 0 2.216 -1.784 4 -4 4 h -38 c -2.216 0 -4 -1.784 -4 -4 z" style="opacity:.1"/>
</svg>
