<?xml version="1.0" encoding="UTF-8" standalone="no"?>
<svg
   xmlns:dc="http://purl.org/dc/elements/1.1/"
   xmlns:cc="http://creativecommons.org/ns#"
   xmlns:rdf="http://www.w3.org/1999/02/22-rdf-syntax-ns#"
   xmlns:svg="http://www.w3.org/2000/svg"
   xmlns="http://www.w3.org/2000/svg"
   xmlns:sodipodi="http://sodipodi.sourceforge.net/DTD/sodipodi-0.dtd"
   xmlns:inkscape="http://www.inkscape.org/namespaces/inkscape"
   viewBox="0 0 48 48"
   version="1.1"
   id="svg40680"
   sodipodi:docname="web-jolicloud.svg">
  <metadata
     id="metadata40684">
    <rdf:RDF>
      <cc:Work
         rdf:about="">
        <dc:format>image/svg+xml</dc:format>
        <dc:type
           rdf:resource="http://purl.org/dc/dcmitype/StillImage" />
      </cc:Work>
    </rdf:RDF>
  </metadata>
  <sodipodi:namedview
     pagecolor="#ffffff"
     bordercolor="#666666"
     borderopacity="1"
     objecttolerance="10"
     gridtolerance="10"
     guidetolerance="10"
     inkscape:pageopacity="0"
     inkscape:pageshadow="2"
     inkscape:window-width="640"
     inkscape:window-height="480"
     id="namedview40682" />
  <defs
     id="defs40640">
    <linearGradient
       id="linearGradient3764"
       x1="1"
       x2="47"
       gradientUnits="userSpaceOnUse"
       gradientTransform="translate(-48.000001,0.00221467)">
      <stop
         stop-color="#16aaf6"
         stop-opacity="1"
         id="stop40625" />
      <stop
         offset="1"
         stop-color="#29b3f7"
         stop-opacity="1"
         id="stop40627" />
    </linearGradient>
    <clipPath
       id="clipPath-458336128">
      <g
         transform="translate(0,-1004.3622)"
         id="g40632">
        <rect
           rx="4"
           y="1005.36"
           x="1"
           height="46"
           width="46"
           fill="#1890d0"
           id="rect40630" />
      </g>
    </clipPath>
    <clipPath
       id="clipPath-471272066">
      <g
         transform="translate(0,-1004.3622)"
         id="g40637">
        <rect
           rx="4"
           y="1005.36"
           x="1"
           height="46"
           width="46"
           fill="#1890d0"
           id="rect40635" />
      </g>
    </clipPath>
  </defs>
  <g
     id="g40648">
    <path
       d="m 1 43 l 0 0.25 c 0 2.216 1.784 4 4 4 l 38 0 c 2.216 0 4 -1.784 4 -4 l 0 -0.25 c 0 2.216 -1.784 4 -4 4 l -38 0 c -2.216 0 -4 -1.784 -4 -4 z m 0 0.5 l 0 0.5 c 0 2.216 1.784 4 4 4 l 38 0 c 2.216 0 4 -1.784 4 -4 l 0 -0.5 c 0 2.216 -1.784 4 -4 4 l -38 0 c -2.216 0 -4 -1.784 -4 -4 z"
       opacity="0.02"
       id="path40642" />
    <path
       d="m 1 43.25 l 0 0.25 c 0 2.216 1.784 4 4 4 l 38 0 c 2.216 0 4 -1.784 4 -4 l 0 -0.25 c 0 2.216 -1.784 4 -4 4 l -38 0 c -2.216 0 -4 -1.784 -4 -4 z"
       opacity="0.05"
       id="path40644" />
    <path
       d="m 1 43 l 0 0.25 c 0 2.216 1.784 4 4 4 l 38 0 c 2.216 0 4 -1.784 4 -4 l 0 -0.25 c 0 2.216 -1.784 4 -4 4 l -38 0 c -2.216 0 -4 -1.784 -4 -4 z"
       opacity="0.1"
       id="path40646" />
  </g>
  <g
     id="g40652">
    <rect
       width="46"
       height="46"
       x="-47"
       y="1"
       rx="4"
       transform="matrix(0,-1,1,0,0,0)"
       fill="url(#linearGradient3764)"
       fill-opacity="1"
       id="rect40650" />
  </g>
  <g
     id="g40662">
    <g
       clip-path="url(#clipPath-458336128)"
       id="g40660">
      <g
         opacity="0.1"
         id="g40658">
        <!-- color: #29b3f7 -->
        <g
           id="g40656">
          <path
             d="m 41 31.785 c 0 -0.316 -0.07 -0.371 -0.609 -0.473 c -0.789 -0.152 -1.816 -0.512 -2.547 -0.887 c -1.902 -0.977 -3.387 -2.598 -4.074 -4.434 c -0.355 -0.961 -0.48 -1.621 -0.559 -3.035 c -0.039 -0.676 -0.121 -1.48 -0.184 -1.785 c -0.711 -3.387 -3.215 -6 -6.613 -6.922 c -0.984 -0.266 -2.762 -0.332 -3.781 -0.145 c -3.195 0.594 -5.723 2.672 -6.898 5.668 c -0.121 0.32 -0.25 0.711 -0.281 0.871 c -0.063 0.32 0.016 0.313 -0.914 0.121 c -0.637 -0.133 -1.852 -0.066 -2.52 0.145 c -1.09 0.352 -1.98 0.941 -2.695 1.785 c -1.465 1.75 -1.742 4.203 -0.695 6.23 c 0.582 1.125 1.824 2.254 2.941 2.672 c 1.066 0.395 0.418 0.383 15.438 0.391 l 13.996 0.008 m -0.004 -0.211"
             stroke="none"
             fill-rule="nonzero"
             fill-opacity="1"
             fill="#000"
             id="path40654" />
        </g>
      </g>
    </g>
  </g>
  <g
     id="g40672">
    <g
       clip-path="url(#clipPath-471272066)"
       id="g40670">
      <g
         transform="translate(0,-1)"
         id="g40668">
        <!-- color: #29b3f7 -->
        <g
           id="g40666">
          <path
             d="m 41 31.785 c 0 -0.316 -0.07 -0.371 -0.609 -0.473 c -0.789 -0.152 -1.816 -0.512 -2.547 -0.887 c -1.902 -0.977 -3.387 -2.598 -4.074 -4.434 c -0.355 -0.961 -0.48 -1.621 -0.559 -3.035 c -0.039 -0.676 -0.121 -1.48 -0.184 -1.785 c -0.711 -3.387 -3.215 -6 -6.613 -6.922 c -0.984 -0.266 -2.762 -0.332 -3.781 -0.145 c -3.195 0.594 -5.723 2.672 -6.898 5.668 c -0.121 0.32 -0.25 0.711 -0.281 0.871 c -0.063 0.32 0.016 0.313 -0.914 0.121 c -0.637 -0.133 -1.852 -0.066 -2.52 0.145 c -1.09 0.352 -1.98 0.941 -2.695 1.785 c -1.465 1.75 -1.742 4.203 -0.695 6.23 c 0.582 1.125 1.824 2.254 2.941 2.672 c 1.066 0.395 0.418 0.383 15.438 0.391 l 13.996 0.008 m -0.004 -0.211"
             fill="#fff"
             stroke="none"
             fill-rule="nonzero"
             fill-opacity="1"
             id="path40664" />
        </g>
      </g>
    </g>
  </g>
  <g
     id="g40678">
    <g
       transform="translate(0,-1004.3622)"
       id="g40676">
      <path
         d="m 1 1043.36 0 4 c 0 2.216 1.784 4 4 4 l 38 0 c 2.216 0 4 -1.784 4 -4 l 0 -4 c 0 2.216 -1.784 4 -4 4 l -38 0 c -2.216 0 -4 -1.784 -4 -4 z"
         opacity="0.1"
         id="path40674" />
    </g>
  </g>
</svg>
