<svg version="1.1" viewBox="0 0 48 48" xmlns="http://www.w3.org/2000/svg">
 <defs>
  <linearGradient id="bg" x2="0" y1="47" y2="1" gradientUnits="userSpaceOnUse">
   <stop style="stop-color:#dcdcdc" offset="0"/>
   <stop style="stop-color:#dae5f2" offset="1"/>
  </linearGradient>
 </defs>
 <path d="m1 43v0.25c0 2.216 1.784 4 4 4h38c2.216 0 4-1.784 4-4v-0.25c0 2.216-1.784 4-4 4h-38c-2.216 0-4-1.784-4-4zm0 0.5v0.5c0 2.216 1.784 4 4 4h38c2.216 0 4-1.784 4-4v-0.5c0 2.216-1.784 4-4 4h-38c-2.216 0-4-1.784-4-4z" style="opacity:.02"/>
 <path d="m1 43.25v0.25c0 2.216 1.784 4 4 4h38c2.216 0 4-1.784 4-4v-0.25c0 2.216-1.784 4-4 4h-38c-2.216 0-4-1.784-4-4z" style="opacity:.05"/>
 <path d="m1 43v0.25c0 2.216 1.784 4 4 4h38c2.216 0 4-1.784 4-4v-0.25c0 2.216-1.784 4-4 4h-38c-2.216 0-4-1.784-4-4z" style="opacity:.1"/>
 <rect x="1" y="1" width="46" height="46" rx="4" style="fill:url(#bg)"/>
 <path d="m1 39v4c0 2.216 1.784 4 4 4h38c2.216 0 4-1.784 4-4v-4c0 2.216-1.784 4-4 4h-38c-2.216 0-4-1.784-4-4z" style="opacity:.1"/>
 <path d="m29.656 15 4.6738 8.7734-1.3301 2.6992v-3.1641c0-2.8812-2.2977-3.4875-4.3438-3.4883h-4e-3c-4.2421 0.0018-4.6522 2.8088-4.6522 3.1797h2.1133s0.25044-1.8398 2.3984-1.8398c1.395 0 2.4766 0.63719 2.4766 1.8672v0.4375h-2.4766c-2.0284 0-3.4679 0.36714-4.2734 1.1055-0.62381-0.45837-1.3999-0.72266-2.3086-0.72266-2.391 0-2.9297 1.1504-2.9297 1.1504v-5l-2 2e-3v1.5215c-0.76549-1.0026-2.0306-1.8027-4-1.8027-2.82 0-5 1.1712-5 4.7812 0 2.863 1.336 4.502 5 4.502 2.0425 0 3.2717-0.67251 4-1.3809v5.3789h2v-1s0.58572 1.3203 2.8867 1.3203c2.2335 0 3.8411-1.6625 4.082-4.1152 0.39834 0.09149 0.83037 0.13867 1.2891 0.13867 2.957-4.7e-5 3.7422-1.6329 3.7422-1.6329l0.21875 1.2891h1.7812v-2h1.998l6-12h-2.1504l-3.4023 6.832-3.4141-6.832zm-16.656 6c1.688 0 2.6875 1.1013 2.6875 2.6523h-5.6875c0-1.645 1.516-2.6523 3-2.6523zm17.984 3.7734v0.58594c0 0.758-0.46752 2.6484-3.2285 2.6484-0.959 0-1.5717-0.30487-1.8906-0.75-0.06606-0.31019-0.15608-0.60657-0.26953-0.88672 0.0073-1.5858 2.1881-1.5977 5.3887-1.5977zm-20.984 0.22852h7v1h-1.0898s-0.73016 1.3262-2.9102 1.3262c-1.773 0-3-0.64617-3-2.3262zm11.486 0.22461h2e-3c0.90697 0 1.5735 0.43168 1.9922 1.1367-2.6e-5 0.0053 0 0.01032 0 0.01563 0 0.63534 0.17697 1.174 0.49023 1.6113 0.01772 0.18276 0.02925 0.3707 0.02925 0.56445 0 2.047-1.0661 3.3828-2.5391 3.3828-1.758 0-2.4609-1.5943-2.4609-3.3633 0-1.648 0.64333-3.3477 2.4863-3.3477z" style="opacity:.1"/>
 <path d="m29.656 14h2.375l3.414 6.832 3.402-6.832h2.152l-6 12h-2.258l1.59-3.227" style="fill:#67b117"/>
 <path d="m28.656 18.82c-4.246 0-4.656 2.809-4.656 3.18h2.113s0.25-1.84 2.398-1.84c1.395 0 2.477 0.637 2.477 1.867v0.438h-2.477c-3.289 0-5.03 0.961-5.03 2.914 0 1.922 1.605 2.965 3.777 2.965 2.957 0 3.742-1.633 3.742-1.633l0.219 1.289h1.781v-5.692c0-2.883-2.3-3.488-4.347-3.488m2.332 4.953v0.586c0 0.758-0.469 2.648-3.23 2.648-1.512 0-2.16-0.754-2.16-1.629 0-1.594 2.184-1.605 5.391-1.605" style="fill:#e4b60c"/>
 <path d="m17 19v13h2v-1s0.586 1.32 2.887 1.32c2.426 0 4.113-1.961 4.113-4.766 0-2.609-1.512-4.707-4.07-4.707-2.391 0-2.93 1.152-2.93 1.152v-5m2.488 5.227c1.648 0 2.512 1.422 2.512 3.328 0 2.047-1.067 3.383-2.54 3.383-1.758 0-2.46-1.594-2.46-3.363 0-1.648 0.644-3.348 2.487-3.348" style="fill:#1263bd"/>
 <path d="m13 18.719c-2.82 0-5 1.1712-5 4.7812 0 2.863 1.336 4.502 5 4.502 4.313 0 5-3 5-3h-2.0898s-0.73016 1.3262-2.9102 1.3262c-1.773 0-3-0.64617-3-2.3262h8v-0.60195c0-1.66-1.172-4.6812-5-4.6812zm0 1.2812c1.688 0 2.6875 1.1013 2.6875 2.6523h-5.6875c0-1.645 1.516-2.6523 3-2.6523z" style="fill:#e63239"/>
</svg>
