<svg version="1.1" viewBox="0 0 48 48" xmlns="http://www.w3.org/2000/svg">
 <defs>
  <linearGradient id="bg" x1="-47" x2="-1" gradientUnits="userSpaceOnUse">
   <stop style="stop-color:#f6e3be" offset="0"/>
   <stop style="stop-color:#f8ebd0" offset="1"/>
  </linearGradient>
 </defs>
 <g transform="translate(0 3.949e-5)">
  <path d="m1 43v0.25c0 2.216 1.784 4 4 4h38c2.216 0 4-1.784 4-4v-0.25c0 2.216-1.784 4-4 4h-38c-2.216 0-4-1.784-4-4zm0 0.5v0.5c0 2.216 1.784 4 4 4h38c2.216 0 4-1.784 4-4v-0.5c0 2.216-1.784 4-4 4h-38c-2.216 0-4-1.784-4-4z" style="opacity:.02"/>
  <path d="m1 43.25v0.25c0 2.216 1.784 4 4 4h38c2.216 0 4-1.784 4-4v-0.25c0 2.216-1.784 4-4 4h-38c-2.216 0-4-1.784-4-4z" style="opacity:.05"/>
  <path d="m1 43v0.25c0 2.216 1.784 4 4 4h38c2.216 0 4-1.784 4-4v-0.25c0 2.216-1.784 4-4 4h-38c-2.216 0-4-1.784-4-4z" style="opacity:.1"/>
 </g>
 <rect transform="rotate(-90)" x="-47" y="1" width="46" height="46" rx="4" style="fill:url(#bg)"/>
 <g transform="translate(0 3.949e-5)">
  <g transform="translate(0 -1004)">
   <path d="m1 1043v4c0 2.216 1.784 4 4 4h38c2.216 0 4-1.784 4-4v-4c0 2.216-1.784 4-4 4h-38c-2.216 0-4-1.784-4-4z" style="opacity:.1"/>
  </g>
 </g>
 <path d="m15 20-4 8h10l4-8zm11 0v8h1v-1c0.398 0.653 1 1 2 1s2.301-0.811 2.301-3-1.301-3-2.301-3-1.522 0.473-2 1v-3zm8.5 2c-1.7 0-2.699 1.274-2.699 3s0.999 3 2.699 3c1.418 0 2.5-1 2.5-2h-1.199c-1e-3 0.471-0.44 1-1.188 1-0.891 0-1.613-0.533-1.613-2s0.722-2 1.613-2c0.724 0 1.188 0.541 1.188 1h1.199c0-1-1.082-2-2.5-2zm-6 1c0.828 0 1.5 0.686 1.5 2s-0.672 2-1.5 2-1.5-0.895-1.5-2 0.672-2 1.5-2z" style="opacity:.1"/>
 <path d="m15 19h10l-4 8h-10z" style="fill:#639daa"/>
 <path d="m26 19v8h1v-1c0.398 0.653 1 1 2 1s2.301-0.811 2.301-3-1.301-3-2.301-3-1.522 0.473-2 1v-3h-1zm8.5 2c-1.7 0-2.699 1.274-2.699 3s0.9992 3 2.699 3c1.418 0 2.5-1 2.5-2h-1.199c-1e-3 0.471-0.4395 1-1.188 1-0.891 0-1.613-0.533-1.613-2s0.7223-2 1.613-2c0.724 0 1.188 0.541 1.188 1h1.199c0-1-1.082-2-2.5-2zm-6 1c0.828 0 1.5 0.686 1.5 2s-0.672 2-1.5 2-1.5-0.895-1.5-2 0.672-2 1.5-2z" style="fill:#474747"/>
</svg>
