<svg xmlns="http://www.w3.org/2000/svg" version="1.1" viewBox="0 0 48 48">
 <defs>
  <linearGradient id="linearGradient1437" gradientUnits="userSpaceOnUse" x2="0" y2="1" y1="47">
   <stop style="stop-color:#3487a2" offset="0"/>
   <stop style="stop-color:#3994b1" offset="1"/>
  </linearGradient>
 </defs>
 <path style="opacity:.02" d="m1 43v0.25c0 2.216 1.784 4 4 4h38c2.216 0 4-1.784 4-4v-0.25c0 2.216-1.784 4-4 4h-38c-2.216 0-4-1.784-4-4zm0 0.5v0.5c0 2.216 1.784 4 4 4h38c2.216 0 4-1.784 4-4v-0.5c0 2.216-1.784 4-4 4h-38c-2.216 0-4-1.784-4-4z"/>
 <path style="opacity:.05" d="m1 43.25v0.25c0 2.216 1.784 4 4 4h38c2.216 0 4-1.784 4-4v-0.25c0 2.216-1.784 4-4 4h-38c-2.216 0-4-1.784-4-4z"/>
 <path style="opacity:.1" d="m1 43v0.25c0 2.216 1.784 4 4 4h38c2.216 0 4-1.784 4-4v-0.25c0 2.216-1.784 4-4 4h-38c-2.216 0-4-1.784-4-4z"/>
 <rect style="fill:url(#linearGradient1437)" rx="4" height="46" width="46" y="1" x="1"/>
 <path style="opacity:.1" d="m1 39v4c0 2.216 1.784 4 4 4h38c2.216 0 4-1.784 4-4v-4c0 2.216-1.784 4-4 4h-38c-2.216 0-4-1.784-4-4z"/>
 <g transform="translate(.002 -1)">
  <path style="opacity:.1" d="m27 13c-3.059 0-5.676 1.844-6.844 4.469-0.461-0.289-0.977-0.469-1.563-0.469-1.656 0-3 1.344-3 3 0 0.5 0.125 0.961 0.344 1.375-2.297 0.84-3.939 3.035-3.939 5.625 0 3.313 2.688 6 6 6h1v4l4-4h8c2.762 0 5-2.238 5-5 0-1.75-0.918-3.293-2.281-4.188 0.496-1 0.779-2.118 0.779-3.314 0-4.141-3.357-7.498-7.498-7.498m-8 6h3l3 6.5 3-6.5h3c0.554 0 1 0.446 1 1s-0.446 1-1 1v8c0.554 0 1 0.446 1 1s-0.446 1-1 1h-3c-0.554 0-1-0.446-1-1s0.446-1 1-1h1v-7.355l-3 6.355h-2l-3-6.355v7.355h1c0.554 0 1 0.446 1 1s-0.446 1-1 1h-3c-0.554 0-1-0.446-1-1s0.446-1 1-1v-8c-0.554 0-1-0.446-1-1s0.446-1 1-1z"/>
  <path style="fill:#f9f9f9" d="m27 12c-3.059 0-5.676 1.844-6.844 4.469-0.461-0.289-0.977-0.469-1.563-0.469-1.656 0-3 1.344-3 3 0 0.5 0.125 0.961 0.344 1.375-2.297 0.84-3.939 3.035-3.939 5.625 0 3.313 2.688 6 6 6h1v4l4-4h8c2.762 0 5-2.238 5-5 0-1.75-0.918-3.293-2.281-4.188 0.496-1 0.779-2.118 0.779-3.314 0-4.141-3.357-7.498-7.498-7.498m-8 6h3l3 6.5 3-6.5h3c0.554 0 1 0.446 1 1s-0.446 1-1 1v8c0.554 0 1 0.446 1 1s-0.446 1-1 1h-3c-0.554 0-1-0.446-1-1s0.446-1 1-1h1v-7.355l-3 6.355h-2l-3-6.355v7.355h1c0.554 0 1 0.446 1 1s-0.446 1-1 1h-3c-0.554 0-1-0.446-1-1s0.446-1 1-1v-8c-0.554 0-1-0.446-1-1s0.446-1 1-1z"/>
 </g>
</svg>
