<svg style="" version="1.1" viewBox="0 0 48 48" xmlns="http://www.w3.org/2000/svg">
 <defs style="">
  <linearGradient id="bg" x1="1" x2="47" style="" gradientTransform="translate(-48 .002215)" gradientUnits="userSpaceOnUse">
   <stop style="stop-color:#7547bb" offset="0"/>
   <stop style="stop-color:#8056c0" offset="1"/>
  </linearGradient>
 </defs>
 <path d="m1 43v0.25c0 2.216 1.784 4 4 4h38c2.216 0 4-1.784 4-4v-0.25c0 2.216-1.784 4-4 4h-38c-2.216 0-4-1.784-4-4zm0 0.5v0.5c0 2.216 1.784 4 4 4h38c2.216 0 4-1.784 4-4v-0.5c0 2.216-1.784 4-4 4h-38c-2.216 0-4-1.784-4-4z" style="opacity:.02"/>
 <path d="m1 43.25v0.25c0 2.216 1.784 4 4 4h38c2.216 0 4-1.784 4-4v-0.25c0 2.216-1.784 4-4 4h-38c-2.216 0-4-1.784-4-4z" style="opacity:.05"/>
 <path d="m1 43v0.25c0 2.216 1.784 4 4 4h38c2.216 0 4-1.784 4-4v-0.25c0 2.216-1.784 4-4 4h-38c-2.216 0-4-1.784-4-4z" style="opacity:.1"/>
 <rect transform="rotate(-90)" x="-47" y="1" width="46" height="46" rx="4" style="fill:url(#bg)"/>
 <path d="m1 39v4c0 2.216 1.784 4 4 4h38c2.216 0 4-1.784 4-4v-4c0 2.216-1.784 4-4 4h-38c-2.216 0-4-1.784-4-4z" style="opacity:.1"/>
 <path d="m10 15v1h3l8 10.5v4.5c0 0.55228-0.44772 1-1 1h-3v1h12v-1h-3c-0.55228 0-1-0.44772-1-1v-5c0-0.37199 0.03007-0.62406 0.5-1l7.5-6h3v-1h-11v1h3.3711c0.62891 0 0.86129 0.56462 0.34766 1l-4.7188 4c-0.21958 0.18817-0.36103 0.18295-0.5 0l-5.3242-7c-0.387-0.551 0.0095-1 0.45312-1h3.3711v-1zm24 6v10h1.5l1.5-10zm-1 11v3h3v-3z" style="opacity:.1"/>
 <path d="m10 14v1h3l8 10.5v4.5c0 0.55228-0.44772 1-1 1h-3v1h12v-1h-3c-0.55228 0-1-0.44772-1-1v-5c0-0.37199 0.03007-0.62406 0.5-1l7.5-6h3v-1h-11v1h3.3711c0.62891 0 0.86129 0.56462 0.34766 1l-4.7188 4c-0.21958 0.18817-0.36103 0.18295-0.5 0l-5.3242-7c-0.387-0.551 0.0095-1 0.45312-1h3.3711v-1zm24 6v10h1.5l1.5-10zm-1 11v3h3v-3z" style="fill:#f9f9f9"/>
</svg>
