<svg style="" viewBox="0 0 48 48" xmlns="http://www.w3.org/2000/svg" xmlns:xlink="http://www.w3.org/1999/xlink">
 <defs style="">
  <linearGradient id="linearGradient3764" gradientTransform="translate(-48 .002215)" gradientUnits="userSpaceOnUse" style="" x1="1" x2="47">
   <stop offset="0" style="stop-color:#00acec"/>
   <stop offset="1" style="stop-color:#01b9ff"/>
  </linearGradient>
 </defs>
 <path d="m 1 43 v .25 c 0 2.216 1.784 4 4 4 h 38 c 2.216 0 4 -1.784 4 -4 v -.25 c 0 2.216 -1.784 4 -4 4 h -38 c -2.216 0 -4 -1.784 -4 -4 z m 0 .5 v .5 c 0 2.216 1.784 4 4 4 h 38 c 2.216 0 4 -1.784 4 -4 v -.5 c 0 2.216 -1.784 4 -4 4 h -38 c -2.216 0 -4 -1.784 -4 -4 z" style="opacity:.02"/>
 <path d="m 1 43.25 v .25 c 0 2.216 1.784 4 4 4 h 38 c 2.216 0 4 -1.784 4 -4 v -.25 c 0 2.216 -1.784 4 -4 4 h -38 c -2.216 0 -4 -1.784 -4 -4 z" style="opacity:.05"/>
 <path d="m 1 43 v .25 c 0 2.216 1.784 4 4 4 h 38 c 2.216 0 4 -1.784 4 -4 v -.25 c 0 2.216 -1.784 4 -4 4 h -38 c -2.216 0 -4 -1.784 -4 -4 z" style="opacity:.1"/>
 <rect height="46" rx="4" style="fill:url(#linearGradient3764)" transform="rotate(-90)" width="46" x="-47" y="1"/>
 <path d="m 27.29 13.258 c -2.348 .875 -3.832 3.129 -3.664 5.594 l .055 .953 -.938 -.117 c -3.418 -.445 -6.406 -1.961 -8.941 -4.504 l -1.242 -1.266 -.316 .934 c -.68 2.078 -.246 4.273 1.164 5.75 .75 .813 .582 .93 -.715 .445 -.449 -.156 -.848 -.273 -.883 -.215 -.133 .137 .316 1.906 .676 2.602 .488 .973 1.484 1.926 2.574 2.488 l .918 .445 -1.086 .02 c -1.055 0 -1.09 .02 -.98 .426 .379 1.266 1.863 2.605 3.523 3.188 l 1.164 .41 -1.023 .617 c -1.5 .895 -3.266 1.398 -5.03 1.438 -.848 .02 -1.543 .098 -1.543 .156 0 .195 2.293 1.281 3.625 1.707 4 1.266 8.754 .719 12.324 -1.434 2.535 -1.535 5.074 -4.586 6.258 -7.535 .637 -1.574 1.277 -4.449 1.277 -5.828 0 -.891 .055 -1.01 1.109 -2.078 .617 -.621 1.199 -1.301 1.313 -1.492 .188 -.371 .168 -.371 -.789 -.039 -1.598 .578 -1.824 .504 -1.031 -.371 .582 -.621 1.273 -1.746 1.273 -2.078 0 -.059 -.281 .039 -.598 .215 -.34 .191 -1.09 .484 -1.652 .66 l -1.016 .328 -.922 -.641 c -.523 -.348 -1.23 -.738 -1.605 -.855 -.957 -.27 -2.422 -.23 -3.285 .078" style="opacity:.1"/>
 <path d="m 27.29 12.258 c -2.348 .875 -3.832 3.129 -3.664 5.594 l .055 .953 -.938 -.117 c -3.418 -.445 -6.406 -1.961 -8.941 -4.504 l -1.242 -1.266 -.316 .934 c -.68 2.078 -.246 4.273 1.164 5.75 .75 .813 .582 .93 -.715 .445 -.449 -.156 -.848 -.273 -.883 -.215 -.133 .137 .316 1.906 .676 2.602 .488 .973 1.484 1.926 2.574 2.488 l .918 .445 -1.086 .02 c -1.055 0 -1.09 .02 -.98 .426 .379 1.266 1.863 2.605 3.523 3.188 l 1.164 .41 -1.023 .617 c -1.5 .895 -3.266 1.398 -5.03 1.438 -.848 .02 -1.543 .098 -1.543 .156 0 .195 2.293 1.281 3.625 1.707 4 1.266 8.754 .719 12.324 -1.434 2.535 -1.535 5.074 -4.586 6.258 -7.535 .637 -1.574 1.277 -4.449 1.277 -5.828 0 -.891 .055 -1.01 1.109 -2.078 .617 -.621 1.199 -1.301 1.313 -1.492 .188 -.371 .168 -.371 -.789 -.039 -1.598 .578 -1.824 .504 -1.031 -.371 .582 -.621 1.273 -1.746 1.273 -2.078 0 -.059 -.281 .039 -.598 .215 -.34 .191 -1.09 .484 -1.652 .66 l -1.016 .328 -.922 -.641 c -.523 -.348 -1.23 -.738 -1.605 -.855 -.957 -.27 -2.422 -.23 -3.285 .078" style="fill:#f9f9f9"/>
 <path d="m 1 39 v 4 c 0 2.216 1.784 4 4 4 h 38 c 2.216 0 4 -1.784 4 -4 v -4 c 0 2.216 -1.784 4 -4 4 h -38 c -2.216 0 -4 -1.784 -4 -4 z" style="opacity:.1"/>
</svg>
