<?xml version="1.0" encoding="UTF-8" standalone="no"?>
<svg
   xmlns:dc="http://purl.org/dc/elements/1.1/"
   xmlns:cc="http://creativecommons.org/ns#"
   xmlns:rdf="http://www.w3.org/1999/02/22-rdf-syntax-ns#"
   xmlns:svg="http://www.w3.org/2000/svg"
   xmlns="http://www.w3.org/2000/svg"
   xmlns:sodipodi="http://sodipodi.sourceforge.net/DTD/sodipodi-0.dtd"
   xmlns:inkscape="http://www.inkscape.org/namespaces/inkscape"
   viewBox="0 0 48 48"
   version="1.1"
   id="svg40279"
   sodipodi:docname="web-google-apps-script.svg">
  <metadata
     id="metadata40283">
    <rdf:RDF>
      <cc:Work
         rdf:about="">
        <dc:format>image/svg+xml</dc:format>
        <dc:type
           rdf:resource="http://purl.org/dc/dcmitype/StillImage" />
      </cc:Work>
    </rdf:RDF>
  </metadata>
  <sodipodi:namedview
     pagecolor="#ffffff"
     bordercolor="#666666"
     borderopacity="1"
     objecttolerance="10"
     gridtolerance="10"
     guidetolerance="10"
     inkscape:pageopacity="0"
     inkscape:pageshadow="2"
     inkscape:window-width="640"
     inkscape:window-height="480"
     id="namedview40281" />
  <defs
     id="defs40239">
    <linearGradient
       id="linearGradient3764"
       x1="1"
       x2="47"
       gradientUnits="userSpaceOnUse"
       gradientTransform="translate(-48.000001,0.00221467)">
      <stop
         stop-color="#098cc3"
         stop-opacity="1"
         id="stop40224" />
      <stop
         offset="1"
         stop-color="#0a99d6"
         stop-opacity="1"
         id="stop40226" />
    </linearGradient>
    <clipPath
       id="clipPath-213210494">
      <g
         transform="translate(0,-1004.3622)"
         id="g40231">
        <rect
           rx="4"
           y="1005.36"
           x="1"
           height="46"
           width="46"
           fill="#1890d0"
           id="rect40229" />
      </g>
    </clipPath>
    <clipPath
       id="clipPath-226125309">
      <g
         transform="translate(0,-1004.3622)"
         id="g40236">
        <rect
           rx="4"
           y="1005.36"
           x="1"
           height="46"
           width="46"
           fill="#1890d0"
           id="rect40234" />
      </g>
    </clipPath>
  </defs>
  <g
     id="g40247">
    <path
       d="m 1 43 l 0 0.25 c 0 2.216 1.784 4 4 4 l 38 0 c 2.216 0 4 -1.784 4 -4 l 0 -0.25 c 0 2.216 -1.784 4 -4 4 l -38 0 c -2.216 0 -4 -1.784 -4 -4 z m 0 0.5 l 0 0.5 c 0 2.216 1.784 4 4 4 l 38 0 c 2.216 0 4 -1.784 4 -4 l 0 -0.5 c 0 2.216 -1.784 4 -4 4 l -38 0 c -2.216 0 -4 -1.784 -4 -4 z"
       opacity="0.02"
       id="path40241" />
    <path
       d="m 1 43.25 l 0 0.25 c 0 2.216 1.784 4 4 4 l 38 0 c 2.216 0 4 -1.784 4 -4 l 0 -0.25 c 0 2.216 -1.784 4 -4 4 l -38 0 c -2.216 0 -4 -1.784 -4 -4 z"
       opacity="0.05"
       id="path40243" />
    <path
       d="m 1 43 l 0 0.25 c 0 2.216 1.784 4 4 4 l 38 0 c 2.216 0 4 -1.784 4 -4 l 0 -0.25 c 0 2.216 -1.784 4 -4 4 l -38 0 c -2.216 0 -4 -1.784 -4 -4 z"
       opacity="0.1"
       id="path40245" />
  </g>
  <g
     id="g40251">
    <rect
       width="46"
       height="46"
       x="-47"
       y="1"
       rx="4"
       transform="matrix(0,-1,1,0,0,0)"
       fill="url(#linearGradient3764)"
       fill-opacity="1"
       id="rect40249" />
  </g>
  <g
     id="g40261">
    <g
       clip-path="url(#clipPath-213210494)"
       id="g40259">
      <g
         opacity="0.1"
         id="g40257">
        <!-- color: #0a99d6 -->
        <g
           id="g40255">
          <path
             d="m 9 24 c 0 -8.285 6.715 -15 15 -15 c 8.281 0 14.996 6.715 14.996 15 c 0 8.281 -6.715 14.996 -14.996 14.996 c -4.742 0 -9.254 -2.563 -12 -5.996 l 10 0 l 0 5 l 8 -7.504 l -8 -7.5 l 0 5 l -12.531 0 c -0.277 -1.141 -0.469 -2.773 -0.469 -4 m 0.004 0.004"
             stroke="none"
             fill-rule="nonzero"
             fill-opacity="1"
             fill="#000"
             id="path40253" />
        </g>
      </g>
    </g>
  </g>
  <g
     id="g40271">
    <g
       clip-path="url(#clipPath-226125309)"
       id="g40269">
      <g
         transform="translate(0,-1)"
         id="g40267">
        <!-- color: #0a99d6 -->
        <g
           id="g40265">
          <path
             d="m 9 24 c 0 -8.285 6.715 -15 15 -15 c 8.281 0 14.996 6.715 14.996 15 c 0 8.281 -6.715 14.996 -14.996 14.996 c -4.742 0 -9.254 -2.563 -12 -5.996 l 10 0 l 0 5 l 8 -7.504 l -8 -7.5 l 0 5 l -12.531 0 c -0.277 -1.141 -0.469 -2.773 -0.469 -4 m 0.004 0.004"
             fill="#f9f9f9"
             stroke="none"
             fill-rule="nonzero"
             fill-opacity="1"
             id="path40263" />
        </g>
      </g>
    </g>
  </g>
  <g
     id="g40277">
    <g
       transform="translate(0,-1004.3622)"
       id="g40275">
      <path
         d="m 1 1043.36 0 4 c 0 2.216 1.784 4 4 4 l 38 0 c 2.216 0 4 -1.784 4 -4 l 0 -4 c 0 2.216 -1.784 4 -4 4 l -38 0 c -2.216 0 -4 -1.784 -4 -4 z"
         opacity="0.1"
         id="path40273" />
    </g>
  </g>
</svg>
