<svg version="1.1" viewBox="0 0 48 48" xmlns="http://www.w3.org/2000/svg">
 <defs>
  <linearGradient id="bg" x2="0" y1="1" y2="47" gradientUnits="userSpaceOnUse">
   <stop style="stop-color:#ebd1d8" offset="0"/>
   <stop style="stop-color:#e4c3cb" offset="1"/>
  </linearGradient>
 </defs>
 <path d="m1 43v0.25c0 2.216 1.784 4 4 4h38c2.216 0 4-1.784 4-4v-0.25c0 2.216-1.784 4-4 4h-38c-2.216 0-4-1.784-4-4zm0 0.5v0.5c0 2.216 1.784 4 4 4h38c2.216 0 4-1.784 4-4v-0.5c0 2.216-1.784 4-4 4h-38c-2.216 0-4-1.784-4-4z" style="opacity:.02"/>
 <path d="m1 43.25v0.25c0 2.216 1.784 4 4 4h38c2.216 0 4-1.784 4-4v-0.25c0 2.216-1.784 4-4 4h-38c-2.216 0-4-1.784-4-4z" style="opacity:.05"/>
 <path d="m1 43v0.25c0 2.216 1.784 4 4 4h38c2.216 0 4-1.784 4-4v-0.25c0 2.216-1.784 4-4 4h-38c-2.216 0-4-1.784-4-4z" style="opacity:.1"/>
 <rect x="1" y="1" width="46" height="46" rx="4" style="fill:url(#bg)"/>
 <path d="m1 39v4c0 2.216 1.784 4 4 4h38c2.216 0 4-1.784 4-4v-4c0 2.216-1.784 4-4 4h-38c-2.216 0-4-1.784-4-4z" style="opacity:.1"/>
 <path d="m24 9-13 8v14l13 8 13-8v-14zm0 2.3418 11 6.6582v12l-11 6.6582-11-6.6582v-12zm-1 8.6582-4 8h2l4-8zm4 0-2 4h2l2-4zm4 0-4 8h2l4-8zm-14 4-2 4h2l2-4z" style="opacity:.1"/>
 <path d="m24 8-13 8v14l13 8 13-8v-14zm0 2.3418 11 6.6582v12l-11 6.6582-11-6.6582v-12zm-1 8.6582-4 8h2l4-8zm4 0-2 4h2l2-4zm4 0-4 8h2l4-8zm-14 4-2 4h2l2-4z" style="fill:#f71b52"/>
</svg>
