<svg viewBox="0 0 48 48">
  <defs>
    <linearGradient id="a" x1="1" x2="47" gradientUnits="userSpaceOnUse" gradientTransform="translate(-48 .002)">
      <stop stop-color="#efefef"/>
      <stop offset="1" stop-color="#f9f9f9"/>
    </linearGradient>
    <clipPath id="b"/>
    <clipPath id="c"/>
  </defs>
  <path d="M1 43v.25c0 2.216 1.784 4 4 4h38c2.216 0 4-1.784 4-4V43c0 2.216-1.784 4-4 4H5c-2.216 0-4-1.784-4-4zm0 .5v.5c0 2.216 1.784 4 4 4h38c2.216 0 4-1.784 4-4v-.5c0 2.216-1.784 4-4 4H5c-2.216 0-4-1.784-4-4z" opacity=".02"/>
  <path d="M1 43.25v.25c0 2.216 1.784 4 4 4h38c2.216 0 4-1.784 4-4v-.25c0 2.216-1.784 4-4 4H5c-2.216 0-4-1.784-4-4z" opacity=".05"/>
  <path d="M1 43v.25c0 2.216 1.784 4 4 4h38c2.216 0 4-1.784 4-4V43c0 2.216-1.784 4-4 4H5c-2.216 0-4-1.784-4-4z" opacity=".1"/>
  <rect width="46" height="46" x="-47" y="1" rx="4" transform="rotate(-90)" fill="url(#a)"/>
  <g opacity=".1" clip-path="url(#b)">
    <path d="M17.656 25.297l-.652 4-1 6h4l1-6 .652-4m-4 0"/>
    <path d="M12.656 25.297l-.652 4h23.344l.656-4m-23.348 0"/>
    <path d="M28 11.297h4l-4 24h-4m4-24"/>
    <path d="M12.656 17.297l-.652 4h23.344l.656-4m-23.348 0"/>
    <path d="M20 11.297l-2.344 14h4l2.344-14m-4 0"/>
  </g>
  <g>
    <g clip-path="url(#c)">
      <path d="M17.656 24.297l-.652 4-1 6h4l1-6 .652-4m-4 0" fill="#3d7fe5"/>
      <path d="M12.656 24.297l-.652 4h23.344l.656-4m-23.348 0" fill="#0f8e52"/>
      <path d="M28 10.297h4l-4 24h-4m4-24" fill="#e3a300"/>
      <path d="M12.656 16.297l-.652 4h23.344l.656-4m-23.348 0" fill="#d64336"/>
      <path d="M20 10.297l-2.344 14h4l2.344-14m-4 0" fill="#3d7fe5"/>
    </g>
  </g>
  <g>
    <path d="M1 38.998v4c0 2.216 1.784 4 4 4h38c2.216 0 4-1.784 4-4v-4c0 2.216-1.784 4-4 4H5c-2.216 0-4-1.784-4-4z" opacity=".1"/>
  </g>
</svg>
