<svg version="1.1" viewBox="0 0 48 48" xmlns="http://www.w3.org/2000/svg">
 <defs>
  <linearGradient id="bg" x2="0" y1="1" y2="47" gradientUnits="userSpaceOnUse">
   <stop style="stop-color:#167df3" offset="0"/>
   <stop style="stop-color:#0c73e9" offset="1"/>
  </linearGradient>
 </defs>
 <path d="m1 43v0.25c0 2.216 1.784 4 4 4h38c2.216 0 4-1.784 4-4v-0.25c0 2.216-1.784 4-4 4h-38c-2.216 0-4-1.784-4-4zm0 0.5v0.5c0 2.216 1.784 4 4 4h38c2.216 0 4-1.784 4-4v-0.5c0 2.216-1.784 4-4 4h-38c-2.216 0-4-1.784-4-4z" style="opacity:.02"/>
 <path d="m1 43.25v0.25c0 2.216 1.784 4 4 4h38c2.216 0 4-1.784 4-4v-0.25c0 2.216-1.784 4-4 4h-38c-2.216 0-4-1.784-4-4z" style="opacity:.05"/>
 <path d="m1 43v0.25c0 2.216 1.784 4 4 4h38c2.216 0 4-1.784 4-4v-0.25c0 2.216-1.784 4-4 4h-38c-2.216 0-4-1.784-4-4z" style="opacity:.1"/>
 <rect x="1" y="1" width="46" height="46" rx="4" style="fill:url(#bg)"/>
 <path d="m1 39v4c0 2.216 1.784 4 4 4h38c2.216 0 4-1.784 4-4v-4c0 2.216-1.784 4-4 4h-38c-2.216 0-4-1.784-4-4z" style="opacity:.1"/>
 <path d="m11 17c0 11 6 16 15 16v-6c3 0 6.5 3.5 7 6h4c0-1.6924-2.0652-5.6028-6.5-8 3.9585-2.4099 5.5-6.3411 5.5-8h-1l-15 13z" style="opacity:.1"/>
 <path d="m11 16c0 11 6 16 15 16v-6c3 0 6.5 3.5 7 6h4c0-1.6924-2.0652-5.6028-6.5-8 3.9585-2.4099 5.5-6.3411 5.5-8h-4c-0.5 2.5-3 6-6 6v-6h-4v11c-3 0-7-3-7-11z" style="fill:#f9f9f9"/>
</svg>
