<?xml version="1.0" encoding="UTF-8" standalone="no"?>
<svg
   xmlns:dc="http://purl.org/dc/elements/1.1/"
   xmlns:cc="http://creativecommons.org/ns#"
   xmlns:rdf="http://www.w3.org/1999/02/22-rdf-syntax-ns#"
   xmlns:svg="http://www.w3.org/2000/svg"
   xmlns="http://www.w3.org/2000/svg"
   xmlns:sodipodi="http://sodipodi.sourceforge.net/DTD/sodipodi-0.dtd"
   xmlns:inkscape="http://www.inkscape.org/namespaces/inkscape"
   viewBox="0 0 48 48"
   version="1.1"
   id="svg40157"
   sodipodi:docname="web-circ.svg">
  <metadata
     id="metadata40161">
    <rdf:RDF>
      <cc:Work
         rdf:about="">
        <dc:format>image/svg+xml</dc:format>
        <dc:type
           rdf:resource="http://purl.org/dc/dcmitype/StillImage" />
      </cc:Work>
    </rdf:RDF>
  </metadata>
  <sodipodi:namedview
     pagecolor="#ffffff"
     bordercolor="#666666"
     borderopacity="1"
     objecttolerance="10"
     gridtolerance="10"
     guidetolerance="10"
     inkscape:pageopacity="0"
     inkscape:pageshadow="2"
     inkscape:window-width="640"
     inkscape:window-height="480"
     id="namedview40159" />
  <defs
     id="defs40101">
    <linearGradient
       id="linearGradient3764"
       x1="1"
       x2="47"
       gradientUnits="userSpaceOnUse"
       gradientTransform="translate(-48.000001,0.00221467)">
      <stop
         stop-color="#efefef"
         stop-opacity="1"
         id="stop40086" />
      <stop
         offset="1"
         stop-color="#f9f9f9"
         stop-opacity="1"
         id="stop40088" />
    </linearGradient>
    <clipPath
       id="clipPath-163663955">
      <g
         transform="translate(0,-1004.3622)"
         id="g40093">
        <rect
           rx="4"
           y="1005.36"
           x="1"
           height="46"
           width="46"
           fill="#1890d0"
           id="rect40091" />
      </g>
    </clipPath>
    <clipPath
       id="clipPath-176814541">
      <g
         transform="translate(0,-1004.3622)"
         id="g40098">
        <rect
           rx="4"
           y="1005.36"
           x="1"
           height="46"
           width="46"
           fill="#1890d0"
           id="rect40096" />
      </g>
    </clipPath>
  </defs>
  <g
     id="g40109">
    <path
       d="m 1 43 l 0 0.25 c 0 2.216 1.784 4 4 4 l 38 0 c 2.216 0 4 -1.784 4 -4 l 0 -0.25 c 0 2.216 -1.784 4 -4 4 l -38 0 c -2.216 0 -4 -1.784 -4 -4 z m 0 0.5 l 0 0.5 c 0 2.216 1.784 4 4 4 l 38 0 c 2.216 0 4 -1.784 4 -4 l 0 -0.5 c 0 2.216 -1.784 4 -4 4 l -38 0 c -2.216 0 -4 -1.784 -4 -4 z"
       opacity="0.02"
       id="path40103" />
    <path
       d="m 1 43.25 l 0 0.25 c 0 2.216 1.784 4 4 4 l 38 0 c 2.216 0 4 -1.784 4 -4 l 0 -0.25 c 0 2.216 -1.784 4 -4 4 l -38 0 c -2.216 0 -4 -1.784 -4 -4 z"
       opacity="0.05"
       id="path40105" />
    <path
       d="m 1 43 l 0 0.25 c 0 2.216 1.784 4 4 4 l 38 0 c 2.216 0 4 -1.784 4 -4 l 0 -0.25 c 0 2.216 -1.784 4 -4 4 l -38 0 c -2.216 0 -4 -1.784 -4 -4 z"
       opacity="0.1"
       id="path40107" />
  </g>
  <g
     id="g40113">
    <rect
       width="46"
       height="46"
       x="-47"
       y="1"
       rx="4"
       transform="matrix(0,-1,1,0,0,0)"
       fill="url(#linearGradient3764)"
       fill-opacity="1"
       id="rect40111" />
  </g>
  <g
     id="g40131">
    <g
       clip-path="url(#clipPath-163663955)"
       id="g40129">
      <g
         opacity="0.1"
         id="g40127">
        <!-- color: #f9f9f9 -->
        <g
           id="g40125">
          <path
             d="m 17.656 25.297 l -0.652 4 l -1 6 l 4 0 l 1 -6 l 0.652 -4 m -4 0"
             stroke="none"
             fill-rule="nonzero"
             fill-opacity="1"
             fill="#000"
             id="path40115" />
          <path
             d="m 12.656 25.297 l -0.652 4 l 23.344 0 l 0.656 -4 m -23.348 0"
             stroke="none"
             fill-rule="nonzero"
             fill-opacity="1"
             fill="#000"
             id="path40117" />
          <path
             d="m 28 11.297 l 4 0 l -4 24 l -4 0 m 4 -24"
             stroke="none"
             fill-rule="nonzero"
             fill-opacity="1"
             fill="#000"
             id="path40119" />
          <path
             d="m 12.656 17.297 l -0.652 4 l 23.344 0 l 0.656 -4 m -23.348 0"
             stroke="none"
             fill-rule="nonzero"
             fill-opacity="1"
             fill="#000"
             id="path40121" />
          <path
             d="m 20 11.297 l -2.344 14 l 4 0 l 2.344 -14 m -4 0"
             stroke="none"
             fill-rule="nonzero"
             fill-opacity="1"
             fill="#000"
             id="path40123" />
        </g>
      </g>
    </g>
  </g>
  <g
     id="g40149">
    <g
       clip-path="url(#clipPath-176814541)"
       id="g40147">
      <g
         transform="translate(0,-1)"
         id="g40145">
        <!-- color: #f9f9f9 -->
        <g
           id="g40143">
          <path
             d="m 17.656 25.297 l -0.652 4 l -1 6 l 4 0 l 1 -6 l 0.652 -4 m -4 0"
             fill="#3d7fe5"
             stroke="none"
             fill-rule="nonzero"
             fill-opacity="1"
             id="path40133" />
          <path
             d="m 12.656 25.297 l -0.652 4 l 23.344 0 l 0.656 -4 m -23.348 0"
             fill="#0f8e52"
             stroke="none"
             fill-rule="nonzero"
             fill-opacity="1"
             id="path40135" />
          <path
             d="m 28 11.297 l 4 0 l -4 24 l -4 0 m 4 -24"
             fill="#e3a300"
             stroke="none"
             fill-rule="nonzero"
             fill-opacity="1"
             id="path40137" />
          <path
             d="m 12.656 17.297 l -0.652 4 l 23.344 0 l 0.656 -4 m -23.348 0"
             fill="#d64336"
             stroke="none"
             fill-rule="nonzero"
             fill-opacity="1"
             id="path40139" />
          <path
             d="m 20 11.297 l -2.344 14 l 4 0 l 2.344 -14 m -4 0"
             fill="#3d7fe5"
             stroke="none"
             fill-rule="nonzero"
             fill-opacity="1"
             id="path40141" />
        </g>
      </g>
    </g>
  </g>
  <g
     id="g40155">
    <g
       transform="translate(0,-1004.3622)"
       id="g40153">
      <path
         d="m 1 1043.36 0 4 c 0 2.216 1.784 4 4 4 l 38 0 c 2.216 0 4 -1.784 4 -4 l 0 -4 c 0 2.216 -1.784 4 -4 4 l -38 0 c -2.216 0 -4 -1.784 -4 -4 z"
         opacity="0.1"
         id="path40151" />
    </g>
  </g>
</svg>
