<svg viewBox="0 0 48 48" xmlns="http://www.w3.org/2000/svg">
 <defs>
  <linearGradient id="linearGradient3764" x1="1" x2="47" gradientTransform="translate(-48 .0022147)" gradientUnits="userSpaceOnUse">
   <stop stop-color="#2e542a" offset="0"/>
   <stop stop-color="#356230" offset="1"/>
  </linearGradient>
  <clipPath id="clipPath-648708009">
   <g transform="translate(0 -1004.4)">
    <rect x="1" y="1005.4" width="46" height="46" rx="4" fill="#1890d0"/>
   </g>
  </clipPath>
  <clipPath id="clipPath-661714272">
   <g transform="translate(0 -1004.4)">
    <rect x="1" y="1005.4" width="46" height="46" rx="4" fill="#1890d0"/>
   </g>
  </clipPath>
 </defs>
 <g>
  <path d="m1 43v0.25c0 2.216 1.784 4 4 4h38c2.216 0 4-1.784 4-4v-0.25c0 2.216-1.784 4-4 4h-38c-2.216 0-4-1.784-4-4zm0 0.5v0.5c0 2.216 1.784 4 4 4h38c2.216 0 4-1.784 4-4v-0.5c0 2.216-1.784 4-4 4h-38c-2.216 0-4-1.784-4-4z" opacity=".02"/>
  <path d="m1 43.25v0.25c0 2.216 1.784 4 4 4h38c2.216 0 4-1.784 4-4v-0.25c0 2.216-1.784 4-4 4h-38c-2.216 0-4-1.784-4-4z" opacity=".05"/>
  <path d="m1 43v0.25c0 2.216 1.784 4 4 4h38c2.216 0 4-1.784 4-4v-0.25c0 2.216-1.784 4-4 4h-38c-2.216 0-4-1.784-4-4z" opacity=".1"/>
 </g>
 <g>
  <rect transform="rotate(-90)" x="-47" y="1" width="46" height="46" rx="4" fill="url(#linearGradient3764)"/>
 </g>
 <g>
  <g clip-path="url(#clipPath-648708009)">
   <g opacity=".1">
    <g>
     <g>
      <path d="m18.961 15.1c-2.777 2.727-2.789 7.18-0.012 9.906l1.32-1.316c-2.059-2.02-2.051-5.27 0.012-7.305m7.434-0.023c2.063 2.027 2.078 5.309 0.012 7.332l1.32 1.309c2.777-2.73 2.766-7.199-8e-3 -9.941m-1.324 1.301"/>
      <path d="m14.813 11.02c-5.07 4.953-5.086 13.01-0.023 17.957l2.41-2.355c-3.758-3.676-3.742-9.566 0.02-13.246m13.559-0.02c3.758 3.672 3.789 9.609 0.023 13.289l2.41 2.355c5.066-4.953 5.04-13.05-0.023-18l-2.41 2.359m0-4e-3"/>
      <path d="m23.969 20c-0.547 8e-3 -0.98 0.445-0.969 0.977l0.016 16.01c0 0.531 0.441 0.961 0.992 0.961 0.547 0 0.988-0.43 0.988-0.961l-0.016-16.01c4e-3 -0.262-0.102-0.512-0.289-0.695-0.191-0.188-0.453-0.289-0.723-0.281"/>
      <path d="m16 36h16v2h-16m0-2"/>
      <path d="m26 20c0 1.105-0.895 1.996-2 1.996s-2-0.891-2-1.996c0-1.102 0.895-1.996 2-1.996s2 0.895 2 1.996"/>
     </g>
    </g>
   </g>
  </g>
 </g>
 <g>
  <g clip-path="url(#clipPath-661714272)">
   <g transform="translate(0,-1)">
    <g>
     <path d="m18.961 15.1c-2.777 2.727-2.789 7.18-0.012 9.906l1.32-1.316c-2.059-2.02-2.051-5.27 0.012-7.305m7.434-0.023c2.063 2.027 2.078 5.309 0.012 7.332l1.32 1.309c2.777-2.73 2.766-7.199-8e-3 -9.941m-1.324 1.301" fill="#86d676"/>
     <path d="m14.813 11.02c-5.07 4.953-5.086 13.01-0.023 17.957l2.41-2.355c-3.758-3.676-3.742-9.566 0.02-13.246m13.559-0.02c3.758 3.672 3.789 9.609 0.023 13.289l2.41 2.355c5.066-4.953 5.04-13.05-0.023-18l-2.41 2.359m0-4e-3" fill="#86d676"/>
     <g fill="#eaeaea">
      <path d="m23.969 20c-0.547 8e-3 -0.98 0.445-0.969 0.977l0.016 16.01c0 0.531 0.441 0.961 0.992 0.961 0.547 0 0.988-0.43 0.988-0.961l-0.016-16.01c4e-3 -0.262-0.102-0.512-0.289-0.695-0.191-0.188-0.453-0.289-0.723-0.281"/>
      <path d="m16 36h16v2h-16m0-2"/>
      <path d="m26 20c0 1.105-0.895 1.996-2 1.996s-2-0.891-2-1.996c0-1.102 0.895-1.996 2-1.996s2 0.895 2 1.996"/>
     </g>
    </g>
   </g>
  </g>
 </g>
 <g>
  <g transform="translate(0 -1004.4)">
   <path d="m1 1043.4v4c0 2.216 1.784 4 4 4h38c2.216 0 4-1.784 4-4v-4c0 2.216-1.784 4-4 4h-38c-2.216 0-4-1.784-4-4z" opacity=".1"/>
  </g>
 </g>
</svg>
