<svg version="1.1" viewBox="0 0 48 48" xmlns="http://www.w3.org/2000/svg">
 <defs>
  <linearGradient id="lG4501" x1="-47" x2="-1" y1="2.88e-15" y2="6.12e-17" gradientUnits="userSpaceOnUse">
   <stop style="stop-color:#467f34" offset="0"/>
   <stop style="stop-color:#4e8e3a" offset="1"/>
  </linearGradient>
 </defs>
 <path d="m1 43v0.25c0 2.22 1.78 4 4 4h38c2.22 0 4-1.78 4-4v-0.25c0 2.22-1.78 4-4 4h-38c-2.22 0-4-1.78-4-4zm0 0.5v0.5c0 2.22 1.78 4 4 4h38c2.22 0 4-1.78 4-4v-0.5c0 2.22-1.78 4-4 4h-38c-2.22 0-4-1.78-4-4z" style="opacity:.02"/>
 <path d="m1 43.3v0.25c0 2.22 1.78 4 4 4h38c2.22 0 4-1.78 4-4v-0.25c0 2.22-1.78 4-4 4h-38c-2.22 0-4-1.78-4-4z" style="opacity:.05"/>
 <path d="m1 43v0.25c0 2.22 1.78 4 4 4h38c2.22 0 4-1.78 4-4v-0.25c0 2.22-1.78 4-4 4h-38c-2.22 0-4-1.78-4-4z" style="opacity:.1"/>
 <rect transform="rotate(-90)" x="-47" y="1" width="46" height="46" rx="4" style="fill:url(#lG4501)"/>
 <path d="m1 39v4c0 2.22 1.78 4 4 4h38c2.22 0 4-1.78 4-4v-4c0 2.22-1.78 4-4 4h-38c-2.22 0-4-1.78-4-4z" style="opacity:.1"/>
 <path d="m17.5 10c-1.5 0-2.5 11-2.5 18 0 2.1 0 7 1 7v-2c0.799 1.41 2.24 2.77 3.7 3.41-0.535 0.258-0.825 0.618-0.768 0.883 0.141 0.644 1.11-0.586 1.4 0.412 0.104 0.361 0.769 0.339 0.926 0.094 0.702-1.09 1.16 0.359 1.64-0.229 0.493-0.602 1.26-0.704 1.89-0.039 0.514 0.539 1-0.807 1.7 0.285 0.157 0.245 0.822 0.27 0.926-0.092 0.286-0.998 1.26 0.23 1.4-0.414 0.077-0.353-0.459-0.87-1.37-1.1 1.52-0.586 3.47-1.45 4.56-3.22v2c1 0 1-5 1-7 0-6-1-18-2.5-18-1 0-2 3-6.5 3s-5.5-3-6.5-3z" style="opacity:.1"/>
 <path d="m17.5 9c-1.5 0-2.5 11-2.5 18 0 2.1 0 7 1 7v-2c0.799 1.41 2.24 2.77 3.7 3.41-0.535 0.258-0.825 0.618-0.768 0.883 0.141 0.644 1.11-0.586 1.4 0.412 0.104 0.361 0.769 0.339 0.926 0.094 0.702-1.09 1.16 0.359 1.64-0.229 0.493-0.602 1.26-0.704 1.89-0.039 0.514 0.539 1-0.807 1.7 0.285 0.157 0.245 0.822 0.27 0.926-0.092 0.286-0.998 1.26 0.23 1.4-0.414 0.077-0.353-0.459-0.87-1.37-1.1 1.52-0.586 3.47-1.45 4.56-3.22v2c1 0 1-5 1-7 0-6-1-18-2.5-18-1 0-2 3-6.5 3s-5.5-3-6.5-3z" style="fill:#555"/>
 <path d="m20 15.5c-1.66 0-3 1.34-3 3s1.34 3 3 3c0.828-1e-3 1.62-0.343 2.19-0.947 0.347 1.26 1.12 2.95 1.81 2.95 0.691 0 1.47-1.68 1.81-2.95 0.566 0.605 1.36 0.948 2.19 0.949 1.66 0 3-1.34 3-3s-1.34-3-3-3-3 1.34-3 3c0 0.305 0.047 0.609 0.139 0.9l-2.28 4e-3c0.094-0.292 0.142-0.597 0.143-0.904 0-1.66-1.34-3-3-3zm0 2c0.552 0 1 0.448 1 1s-0.448 1-1 1-1-0.448-1-1 0.448-1 1-1zm8 0c0.552 0 1 0.448 1 1s-0.448 1-1 1-1-0.448-1-1 0.448-1 1-1z" style="opacity:.1"/>
 <path d="m20 15a3 3 0 0 0-3 3 3 3 0 0 0 3 3 3 3 0 0 0 3-3 3 3 0 0 0-3-3zm0 2a1 1 0 0 1 1 1 1 1 0 0 1-1 1 1 1 0 0 1-1-1 1 1 0 0 1 1-1z" style="fill:#f9f9f9"/>
 <path d="m28 15a3 3 0 0 0-3 3 3 3 0 0 0 3 3 3 3 0 0 0 3-3 3 3 0 0 0-3-3zm0 2a1 1 0 0 1 1 1 1 1 0 0 1-1 1 1 1 0 0 1-1-1 1 1 0 0 1 1-1z" style="fill:#f9f9f9"/>
 <path d="m22 19c0 1 1.08 4 2 4s2-3 2-4z" style="fill:#f9f9f9"/>
</svg>
