<svg viewBox="0 0 48 48" xmlns="http://www.w3.org/2000/svg">
 <defs>
  <linearGradient id="linearGradient3764" x1="1" x2="47" gradientTransform="translate(-48 .0022147)" gradientUnits="userSpaceOnUse">
   <stop stop-color="#e4e4e4" offset="0"/>
   <stop stop-color="#eee" offset="1"/>
  </linearGradient>
  <clipPath id="clipPath-893179637">
   <g transform="translate(0 -1004.4)">
    <rect x="1" y="1005.4" width="46" height="46" rx="4" fill="#1890d0"/>
   </g>
  </clipPath>
  <clipPath id="clipPath-906644230">
   <g transform="translate(0 -1004.4)">
    <rect x="1" y="1005.4" width="46" height="46" rx="4" fill="#1890d0"/>
   </g>
  </clipPath>
 </defs>
 <g>
  <path d="m1 43v0.25c0 2.216 1.784 4 4 4h38c2.216 0 4-1.784 4-4v-0.25c0 2.216-1.784 4-4 4h-38c-2.216 0-4-1.784-4-4zm0 0.5v0.5c0 2.216 1.784 4 4 4h38c2.216 0 4-1.784 4-4v-0.5c0 2.216-1.784 4-4 4h-38c-2.216 0-4-1.784-4-4z" opacity=".02"/>
  <path d="m1 43.25v0.25c0 2.216 1.784 4 4 4h38c2.216 0 4-1.784 4-4v-0.25c0 2.216-1.784 4-4 4h-38c-2.216 0-4-1.784-4-4z" opacity=".05"/>
  <path d="m1 43v0.25c0 2.216 1.784 4 4 4h38c2.216 0 4-1.784 4-4v-0.25c0 2.216-1.784 4-4 4h-38c-2.216 0-4-1.784-4-4z" opacity=".1"/>
 </g>
 <g>
  <rect transform="rotate(-90)" x="-47" y="1" width="46" height="46" rx="4" fill="url(#linearGradient3764)"/>
 </g>
 <g>
  <g clip-path="url(#clipPath-893179637)">
   <g opacity=".1">
    <g>
     <g>
      <g fill-rule="evenodd">
       <path d="m24 0v24h23.996v-24m-23.996 0"/>
       <path d="m24 24v23.996h23.996v-23.996m-23.996 0"/>
       <path d="m0 24v23.996h24v-23.996m-24 0"/>
       <path d="m0 0v24h24v-24m-24 0"/>
      </g>
      <g>
       <path d="m32.395 12.01c-0.965 0.02-1.91 0.645-2.063 1.844-0.242 1.898 1.574 1.188 3.03 1.188 1.457 0 1.938 3.09 1.578 4.75-0.367 1.66-4.23 5.59-12.969 1.66-7.195-3.234-10.789 1.074-10.969 1.16 0.68 6.426 6.227 13.398 12.969 13.398 7.188 0 13.03-7.691 13.03-14.734 0-0.813-0.098-1.609-0.242-2.379-0.133-0.387-0.266-0.773-0.363-1.129-0.18-0.633-0.375-1.164-0.547-1.66-8e-3 -0.02 8e-3 -0.043 0-0.063-0.688-1.5-1.656-2.855-2.848-3.98-8e-3 -0.012-0.027 8e-3 -0.031 0-0.188-0.047-0.383-0.063-0.574-0.063m4e-3 4e-3"/>
       <path d="m30.395 16.531c0 0.391-0.324 0.711-0.727 0.711-0.398 0-0.727-0.32-0.727-0.711 0-0.395 0.328-0.715 0.727-0.715 0.402 0 0.727 0.32 0.727 0.715"/>
       <path d="m28.938 13.941c0 0.281-0.23 0.508-0.512 0.508-0.285 0-0.516-0.227-0.516-0.508 0-0.277 0.23-0.504 0.516-0.504 0.281 0 0.512 0.227 0.512 0.504"/>
       <path d="m28.68 20-4.68 4.68-4.684-4.68-3.32 3.32 4.684 4.68-4.684 4.68 3.32 3.32 4.684-4.68 4.68 4.68 3.32-3.32-4.68-4.68 4.68-4.68m-3.32-3.32"/>
      </g>
     </g>
    </g>
   </g>
  </g>
 </g>
 <g>
  <g clip-path="url(#clipPath-906644230)">
   <g transform="translate(0,-1)">
    <g>
     <g fill-rule="evenodd">
      <path d="m24 0v24h23.996v-24m-23.996 0" fill="#7fcc28"/>
      <path d="m24 24v23.996h23.996v-23.996m-23.996 0" fill="#fbb909"/>
      <path d="m0 24v23.996h24v-23.996m-24 0" fill="#00abec"/>
      <path d="m0 0v24h24v-24m-24 0" fill="#f15119"/>
     </g>
     <g fill="#8e0317">
      <path d="m32.395 12.01c-0.965 0.02-1.91 0.645-2.063 1.844-0.242 1.898 1.574 1.188 3.03 1.188 1.457 0 1.938 3.09 1.578 4.75-0.367 1.66-4.23 5.59-12.969 1.66-7.195-3.234-10.789 1.074-10.969 1.16 0.68 6.426 6.227 13.398 12.969 13.398 7.188 0 13.03-7.691 13.03-14.734 0-0.813-0.098-1.609-0.242-2.379-0.133-0.387-0.266-0.773-0.363-1.129-0.18-0.633-0.375-1.164-0.547-1.66-8e-3 -0.02 8e-3 -0.043 0-0.063-0.688-1.5-1.656-2.855-2.848-3.98-8e-3 -0.012-0.027 8e-3 -0.031 0-0.188-0.047-0.383-0.063-0.574-0.063m4e-3 4e-3"/>
      <path d="m30.395 16.531c0 0.391-0.324 0.711-0.727 0.711-0.398 0-0.727-0.32-0.727-0.711 0-0.395 0.328-0.715 0.727-0.715 0.402 0 0.727 0.32 0.727 0.715"/>
      <path d="m28.938 13.941c0 0.281-0.23 0.508-0.512 0.508-0.285 0-0.516-0.227-0.516-0.508 0-0.277 0.23-0.504 0.516-0.504 0.281 0 0.512 0.227 0.512 0.504"/>
     </g>
     <path d="m28.68 20-4.68 4.68-4.684-4.68-3.32 3.32 4.684 4.68-4.684 4.68 3.32 3.32 4.684-4.68 4.68 4.68 3.32-3.32-4.68-4.68 4.68-4.68m-3.32-3.32" fill="#f9f9f9"/>
    </g>
   </g>
  </g>
 </g>
 <g>
  <g transform="translate(0 -1004.4)">
   <path d="m1 1043.4v4c0 2.216 1.784 4 4 4h38c2.216 0 4-1.784 4-4v-4c0 2.216-1.784 4-4 4h-38c-2.216 0-4-1.784-4-4z" opacity=".1"/>
  </g>
 </g>
</svg>
