<svg width="48" height="48" version="1.1" viewBox="0 0 48 48" xmlns="http://www.w3.org/2000/svg">
 <path d="m1 43v0.25c0 2.216 1.784 4 4 4h38c2.216 0 4-1.784 4-4v-0.25c0 2.216-1.784 4-4 4h-38c-2.216 0-4-1.784-4-4zm0 0.5v0.5c0 2.216 1.784 4 4 4h38c2.216 0 4-1.784 4-4v-0.5c0 2.216-1.784 4-4 4h-38c-2.216 0-4-1.784-4-4z" style="opacity:.02"/>
 <path d="m1 43.25v0.25c0 2.216 1.784 4 4 4h38c2.216 0 4-1.784 4-4v-0.25c0 2.216-1.784 4-4 4h-38c-2.216 0-4-1.784-4-4z" style="opacity:.05"/>
 <path d="m1 43v0.25c0 2.216 1.784 4 4 4h38c2.216 0 4-1.784 4-4v-0.25c0 2.216-1.784 4-4 4h-38c-2.216 0-4-1.784-4-4z" style="opacity:.1"/>
 <g transform="matrix(1,0,0,-1,0,48)">
  <path d="m24 24-2 11 2 12h19c2.216 0 4-1.784 4-4v-19l-11-2z" style="fill:#80bb00"/>
  <path d="m1 24v19c0 2.216 1.784 4 4 4h19v-23l-11-2z" style="fill:#f24f1c"/>
  <path d="m5 1c-2.216 0-4 1.784-4 4v19h23l2-12-2-11z" style="fill:#00a6f0"/>
  <path d="m24 1v23h23v-19c0-2.216-1.784-4-4-4z" style="fill:#ffba00"/>
 </g>
 <g transform="translate(0,-1004.4)">
  <path d="m1 1043.4v4c0 2.216 1.784 4 4 4h38c2.216 0 4-1.784 4-4v-4c0 2.216-1.784 4-4 4h-38c-2.216 0-4-1.784-4-4z" style="opacity:.1"/>
 </g>
 <path d="m13.051 11.006c-0.42016 0.0248-0.84117 0.35797-1.2637 0.77734l-2e-3 -2e-3c-0.68 0.676-1.1252 1.3355-0.44922 2.0195l6.3262 6.3301c-3.913-0.54791-5.5263 1.4753-6.6621 2.4844 0.688 6.426 6.257 13.385 13 13.385 2.5462 0 4.9112-1.0096 6.9141-2.6113l3.2227 3.2246c0.676 0.676 1.5163 0.40647 2.1953-0.26953 0.68-0.676 0.95334-1.5115 0.27734-2.1875l-3.2422-3.2441c2.2433-2.8381 3.628-6.4788 3.6289-9.9121 4.7e-4 -1.7334-0.3221-3.2204-0.86328-4.5449l0.46094-0.15234-0.60742-0.20312c-0.70925-1.5759-1.7442-2.9105-2.9863-4.0996h-0.60547c-0.15236 0-0.3118 0.01709-0.47266 0.04492l-0.20312-0.60742-0.24219 0.72461c-0.77724 0.26404-1.4766 0.8619-1.4766 1.8379 0 0.37553 0.23063 0.60942 0.60938 0.75586l-0.10938 0.32617-3.6562 1.2207 2.4219 0.80469c0.1172 0.07825 0.25032 0.13477 0.40234 0.13477h2e-3l0.83008 0.27539 1.2188 3.6445 1.2188-3.6445 1.9141-0.63672c0.23402 0.97045 0.26122 2.1124 0.08398 2.916-0.31231 1.4316-4.0317 4.2408-9.9336 2.7461l-11.193-11.199c-0.2535-0.255-0.50572-0.35277-0.75781-0.33789zm8.5117 0.02344-0.8125 2.4316-2.4375 0.8125 2.4375 0.80859 0.8125 2.4336 0.80859-2.4336 2.4395-0.80859-2.4395-0.8125zm6.9375 1.9707c-0.27614 0-0.5 0.22386-0.5 0.5s0.22386 0.5 0.5 0.5 0.5-0.22386 0.5-0.5-0.22386-0.5-0.5-0.5zm-11.799 2.75c0.06294-0.01143 0.12589-0.01 0.18945 0.0078 0.08475 0.02372 0.17081 0.07706 0.25781 0.16406l6.0488 6.0488c-0.40285-0.15299-0.81112-0.31568-1.2305-0.50976-1.0084-0.45324-1.9114-0.7722-2.7383-1l-3.3105-3.3125c-0.348-0.348-0.13316-0.66762 0.21484-1.0156h-0.0039c0.19575-0.19575 0.38345-0.34852 0.57227-0.38281zm16.102 15.83 3.1855 3.1855c0.348 0.348 0.07356 0.61294-0.27344 0.96094-0.344 0.348-0.61303 0.61253-0.95703 0.26953l-3.1758-3.1758c0.42765-0.38703 0.83432-0.80184 1.2207-1.2402z" style="opacity:.1"/>
 <path d="m32.395 11c-1.0373 0-2.3945 0.63875-2.3945 2 0 1 1.6297 1 3.3613 1 1.453 0 1.9412 3.1329 1.5742 4.7969-0.363 1.664-5.32 5.2041-12.969 1.6641-7.195-3.234-9.4822-0.16476-10.967 1.1543 0.688 6.426 6.257 13.385 13 13.385 7.188 0 12.994-7.95 12.996-15 0.0011-4-1.6427-6.747-3.9961-9zm-3.8945 1c-0.27614 0-0.5 0.22386-0.5 0.5s0.22386 0.5 0.5 0.5 0.5-0.22386 0.5-0.5-0.22386-0.5-0.5-0.5z" style="fill:#af132a"/>
 <path d="m31.719 11.434-0.80664 2.4141c0.44761 0.10717 1.036 0.13333 1.6621 0.14258l-0.85547-2.5566zm3.0918 4.2695c0.097278 0.35432 0.16276 0.73583 0.20117 1.1211l1.4531-0.48242c-0.00997-0.03212-0.02102-0.063779-0.03125-0.095703l-1.623-0.54297zm-18.242 3.3281 13.787 13.795c0.2383-0.17119 0.47055-0.35149 0.69922-0.53906l-13.115-13.121c-0.49142-0.08224-0.94645-0.12551-1.3711-0.13477zm4.9121 1.2188 10.854 10.857c0.2015-0.2091 0.39706-0.42533 0.58789-0.64648l-9.3379-9.3418c-0.52512-0.18554-1.0631-0.40177-1.6172-0.6582-0.16575-0.0745-0.32574-0.14303-0.48633-0.21094zm-3.9805 4.5508-0.8125 2.4297-2.4395 0.81445 2.4395 0.80859 0.8125 2.4336 0.8125-2.4336 2.4395-0.80859-2.4395-0.81445-0.8125-2.4297z" style="opacity:.1"/>
 <path d="m13.051 10.001c-0.42016 0.0248-0.84117 0.35797-1.2637 0.77734l-2e-3 -2e-3c-0.68 0.676-1.1252 1.3355-0.44922 2.0195l22.801 22.812c0.676 0.676 1.5163 0.40647 2.1953-0.26953 0.68-0.676 0.95334-1.5115 0.27734-2.1875l-22.801-22.812c-0.2535-0.255-0.50572-0.35277-0.75781-0.33789zm8.5117 0.02344-0.8125 2.4316-2.4375 0.8125 2.4375 0.80859 0.8125 2.4336 0.80859-2.4336 2.4395-0.80859-2.4395-0.8125zm10.156 0.4082-1.2188 3.6445-3.6562 1.2207 3.6562 1.2148 1.2188 3.6445 1.2188-3.6445 3.6562-1.2148-3.6562-1.2207zm-14.828 4.3203c0.08475 0.02372 0.17081 0.07706 0.25781 0.16406l18.84 18.844c0.348 0.348 0.07356 0.61294-0.27344 0.96094-0.344 0.348-0.61303 0.61253-0.95703 0.26953l-18.84-18.848c-0.348-0.348-0.13316-0.66762 0.21484-1.0156h-0.0039c0.261-0.261 0.50747-0.44616 0.76172-0.375zm0.60938 9.0469-0.8125 2.4297-2.4395 0.81445 2.4395 0.80859 0.8125 2.4336 0.8125-2.4336 2.4395-0.80859-2.4395-0.81445z" style="fill:#f9f9f9"/>
</svg>
