<svg viewBox="0 0 48 48">
  <defs>
    <linearGradient id="a" x1="1" x2="47" gradientUnits="userSpaceOnUse" gradientTransform="translate(-48 .002)">
      <stop stop-color="#e4e4e4"/>
      <stop offset="1" stop-color="#eee"/>
    </linearGradient>
    <clipPath id="b"/>
    <clipPath id="c"/>
  </defs>
  <path d="M1 43v.25c0 2.216 1.784 4 4 4h38c2.216 0 4-1.784 4-4V43c0 2.216-1.784 4-4 4H5c-2.216 0-4-1.784-4-4zm0 .5v.5c0 2.216 1.784 4 4 4h38c2.216 0 4-1.784 4-4v-.5c0 2.216-1.784 4-4 4H5c-2.216 0-4-1.784-4-4z" opacity=".02"/>
  <path d="M1 43.25v.25c0 2.216 1.784 4 4 4h38c2.216 0 4-1.784 4-4v-.25c0 2.216-1.784 4-4 4H5c-2.216 0-4-1.784-4-4z" opacity=".05"/>
  <path d="M1 43v.25c0 2.216 1.784 4 4 4h38c2.216 0 4-1.784 4-4V43c0 2.216-1.784 4-4 4H5c-2.216 0-4-1.784-4-4z" opacity=".1"/>
  <rect width="46" height="46" x="-47" y="1" rx="4" transform="rotate(-90)" fill="url(#a)"/>
  <g opacity=".1" clip-path="url(#b)">
    <path d="M24 0v24h23.996V0M24 24v23.996h23.996V24M0 24v23.996h24V24M0 0v24h24V0M0 0" fill-rule="evenodd"/>
    <path d="M32.395 12c-.961.016-1.91.656-2.063 1.844-.242 1.902 1.578 1.188 3.03 1.188 1.453 0 1.941 3.09 1.574 4.754-.363 1.66-4.227 5.59-12.969 1.66-7.195-3.234-10.789 1.074-10.98 1.16.691 6.426 6.234 13.391 12.98 13.391 7.188 0 13.03-7.68 13.03-14.73 0-.809-.094-1.609-.242-2.375-.133-.391-.266-.777-.363-1.129-.176-.633-.375-1.168-.547-1.664-.008-.016.008-.043 0-.063a12.799 12.799 0 0 0-2.848-3.98c-.004-.008-.027.012-.031 0a2.367 2.367 0 0 0-.574-.059m0 .004"/>
    <path d="M30.395 16.516a.723.723 0 0 1-.727.715.723.723 0 0 1-.73-.715.72.72 0 0 1 .73-.711.72.72 0 0 1 .727.711m0 0M28.938 13.934a.51.51 0 0 1-.516.504.511.511 0 0 1-.516-.504c0-.281.23-.508.516-.508.285 0 .516.227.516.508m0 0M23.25 20v16h1.5V20m-1.5 0"/>
    <path d="M26.5 32.5c0 .828-1.117 1.5-2.5 1.5s-2.5-.672-2.5-1.5S22.617 31 24 31s2.5.672 2.5 1.5m0 0M19.25 35V21h-1.5v14m1.5 0"/>
    <path d="M21 25.5c0 .828-1.117 1.5-2.5 1.5s-2.5-.672-2.5-1.5 1.117-1.5 2.5-1.5 2.5.672 2.5 1.5m0 0M30.25 35V21h-1.5v14m1.5 0"/>
    <path d="M32 25.5c0 .828-1.117 1.5-2.5 1.5s-2.5-.672-2.5-1.5 1.117-1.5 2.5-1.5 2.5.672 2.5 1.5m0 0"/>
  </g>
  <g>
    <g clip-path="url(#c)">
      <path d="M24-1v24h23.996V-1M24-1" fill="#7fcc28" fill-rule="evenodd"/>
      <path d="M24 23v23.996h23.996V23M24 23" fill="#fbb909" fill-rule="evenodd"/>
      <path d="M0 23v23.996h24V23M0 23" fill="#00abec" fill-rule="evenodd"/>
      <path d="M0-1v24h24V-1M0-1" fill="#f15119" fill-rule="evenodd"/>
      <path d="M32.395 11c-.961.016-1.91.656-2.063 1.844-.242 1.902 1.578 1.188 3.03 1.188 1.453 0 1.941 3.09 1.574 4.754-.363 1.66-4.227 5.59-12.969 1.66-7.195-3.234-10.789 1.074-10.98 1.16.691 6.426 6.234 13.391 12.98 13.391 7.188 0 13.03-7.68 13.03-14.73 0-.809-.094-1.609-.242-2.375-.133-.391-.266-.777-.363-1.129-.176-.633-.375-1.168-.547-1.664-.008-.016.008-.043 0-.063a12.799 12.799 0 0 0-2.848-3.98c-.004-.008-.027.012-.031 0a2.367 2.367 0 0 0-.574-.059m0 .004" fill="#8e0317"/>
      <path d="M30.395 15.516a.723.723 0 0 1-.727.715.723.723 0 0 1-.73-.715.72.72 0 0 1 .73-.711.72.72 0 0 1 .727.711m0 0M28.938 12.934a.51.51 0 0 1-.516.504.511.511 0 0 1-.516-.504c0-.281.23-.508.516-.508.285 0 .516.227.516.508m0 0" fill="#8e0317"/>
      <path d="M23.25 19v16h1.5V19m-1.5 0" fill="#f9f9f9"/>
      <path d="M26.5 31.5c0 .828-1.117 1.5-2.5 1.5s-2.5-.672-2.5-1.5S22.617 30 24 30s2.5.672 2.5 1.5m0 0M19.25 34V20h-1.5v14m1.5 0" fill="#f9f9f9"/>
      <path d="M21 24.5c0 .828-1.117 1.5-2.5 1.5s-2.5-.672-2.5-1.5 1.117-1.5 2.5-1.5 2.5.672 2.5 1.5m0 0M30.25 34V20h-1.5v14m1.5 0" fill="#f9f9f9"/>
      <path d="M32 24.5c0 .828-1.117 1.5-2.5 1.5s-2.5-.672-2.5-1.5 1.117-1.5 2.5-1.5 2.5.672 2.5 1.5m0 0" fill="#f9f9f9"/>
    </g>
  </g>
  <g>
    <path d="M1 38.998v4c0 2.216 1.784 4 4 4h38c2.216 0 4-1.784 4-4v-4c0 2.216-1.784 4-4 4H5c-2.216 0-4-1.784-4-4z" opacity=".1"/>
  </g>
</svg>
