<svg version="1.1" viewBox="0 0 48 48" xmlns="http://www.w3.org/2000/svg">
 <defs>
  <linearGradient id="bg" x1="-47" x2="-1" y1="2.8779e-15" y2="6.1232e-17" gradientUnits="userSpaceOnUse">
   <stop style="stop-color:#e4e4e4" offset="0"/>
   <stop style="stop-color:#eee" offset="1"/>
  </linearGradient>
 </defs>
 <g transform="translate(0 3.949e-5)">
  <path d="m1 43v0.25c0 2.216 1.784 4 4 4h38c2.216 0 4-1.784 4-4v-0.25c0 2.216-1.784 4-4 4h-38c-2.216 0-4-1.784-4-4zm0 0.5v0.5c0 2.216 1.784 4 4 4h38c2.216 0 4-1.784 4-4v-0.5c0 2.216-1.784 4-4 4h-38c-2.216 0-4-1.784-4-4z" style="opacity:.02"/>
  <path d="m1 43.25v0.25c0 2.216 1.784 4 4 4h38c2.216 0 4-1.784 4-4v-0.25c0 2.216-1.784 4-4 4h-38c-2.216 0-4-1.784-4-4z" style="opacity:.05"/>
  <path d="m1 43v0.25c0 2.216 1.784 4 4 4h38c2.216 0 4-1.784 4-4v-0.25c0 2.216-1.784 4-4 4h-38c-2.216 0-4-1.784-4-4z" style="opacity:.1"/>
 </g>
 <rect transform="rotate(-90)" x="-47" y="1" width="46" height="46" rx="4" style="fill:url(#bg)"/>
 <path d="m8.002 1v5.5l-0.00195 0.00195v0.5h-7v1.002l7-0.00195v7h-7v1h6.998v7h-6.998v1h6.998v7h-6.998v1h6.998v7l-6.998-2e-3v1.002h7v6.998h1l-0.00195-5.5645 0.00391 0.0039v-1.4375h6.9961v6.998h1.0039v-6.9961h6.9961v6.9961h1v-6.998h7v6.998h1v-6.9961l7-0.0039v0.5l2e-3 -2e-3v6.502h1v-7h6v-1h-6l-2e-3 -6.9961h6.002v-1.0039h-6.002v-6.9961h6.002v-1.0039h-6.002v-6.9961h6.002v-1.0039h-6l2e-3 -6.9961h5.998v-1h-5.998v-6.0039h-1v5.5098l-0.0059-0.00586v0.5l-6.9961-0.00391v-6h-1.0039v6.002h-6.9961v-6.002h-1v6h-7v-6h-1v6.002h-7v-1.4395l0.0019-4.5625h-0.99995zm1 7.0039h6.998v6.9961h-6.998zm8 0h6.998v6.9961h-6.998zm8 0h6.998v6.9961h-6.998zm8 0h6.998v6.9961h-6.998zm-24 8h6.998v6.9961h-6.998zm8 0h6.998v6.9961h-6.998zm8 0h6.998v6.9961h-6.998zm8 0h6.998v6.9961h-6.998zm-24 8h6.998v6.9961h-6.998zm8 0h6.998v6.9961h-6.998zm8 0h6.998v6.9961h-6.998zm8 0h6.998v6.9961h-6.998zm-24 8h6.998v6.9961h-6.998zm8 0h6.998v6.9961h-6.998zm8 0h6.998v6.9961h-6.998zm8 0h6.998v6.9961h-6.998z" style="opacity:.1"/>
 <g transform="translate(0 3.949e-5)">
  <g transform="translate(0 -1004.4)">
   <path d="m1 1043.4v4c0 2.216 1.784 4 4 4h38c2.216 0 4-1.784 4-4v-4c0 2.216-1.784 4-4 4h-38c-2.216 0-4-1.784-4-4z" style="opacity:.1"/>
  </g>
 </g>
 <path d="m16 23-3.9219 11.611c-0.03487 0.12513-0.07813 0.2506-0.07813 0.38867 0 0.55228 0.44772 1 1 1 0.13807 0 0.26354-0.04324 0.38867-0.07813l11.611-3.9219 10-10c0.39174-0.39174 1-0.946 1-1.5v-3.5z" style="opacity:.1"/>
 <path d="m26 21-10 1-2 6 5 5 6-2z" style="fill:#dabc6c"/>
 <path d="m33 13-7.4004-0.5-1.2773 1.1777-8.3223 8.3223h4l2-1-0.5 1.5 3 3 1.5-0.5-1 2v4l8.3223-8.3223 1.6777-1.7773z" style="fill:#0b83cb"/>
 <path d="m30 12-10 10c0.554 0 1.1083 0.10826 1.5 0.5l10-10zm4.5 3.5-10 10c0.39174 0.39174 0.5 0.946 0.5 1.5l10-10z" style="fill:#f9f9f9"/>
 <path d="m27.5 11c-0.554 0-1.1083 0.60826-1.5 1l-1.6777 1.6777c0.34712-0.33634 0.76223-0.67773 1.1777-0.67773h3.5c0.554 0 1.1083 0.10826 1.5 0.5l3 3c0.39174 0.39174 0.5 0.946 0.5 1.5v3.5c0 0.4155-0.3414 0.83062-0.67773 1.1777l1.6777-1.6777c0.39174-0.39174 1-0.946 1-1.5v-3.5c0-0.554-0.10826-1.1083-0.5-1.5l-3-3c-0.39174-0.39174-0.946-0.5-1.5-0.5z" style="fill:#d65c5c"/>
 <path d="m14 28-1.9219 5.6113c-0.03487 0.12513-0.07813 0.2506-0.07813 0.38867 0 0.55228 0.44772 1 1 1 0.13807 0 0.26354-0.04324 0.38867-0.07813l5.6113-1.9219c0-2.7614-2.2386-5-5-5z" style="fill:#525252"/>
</svg>
