<svg width="48" height="48" viewBox="0 0 48 48.000001" xmlns="http://www.w3.org/2000/svg">
  <defs>
    <linearGradient id="a" x1="-47" x2="-1" gradientUnits="userSpaceOnUse">
      <stop offset="0" stop-color="#2290ee"/>
      <stop offset="1" stop-color="#359bef"/>
    </linearGradient>
  </defs>
  <path d="M1 43v.25c0 2.216 1.784 4 4 4h38c2.216 0 4-1.784 4-4V43c0 2.216-1.784 4-4 4H5c-2.216 0-4-1.784-4-4zm0 .5v.5c0 2.216 1.784 4 4 4h38c2.216 0 4-1.784 4-4v-.5c0 2.216-1.784 4-4 4H5c-2.216 0-4-1.784-4-4z" opacity=".02"/>
  <path d="M1 43.25v.25c0 2.216 1.784 4 4 4h38c2.216 0 4-1.784 4-4v-.25c0 2.216-1.784 4-4 4H5c-2.216 0-4-1.784-4-4z" opacity=".05"/>
  <path d="M1 43v.25c0 2.216 1.784 4 4 4h38c2.216 0 4-1.784 4-4V43c0 2.216-1.784 4-4 4H5c-2.216 0-4-1.784-4-4z" opacity=".1"/>
  <rect transform="rotate(-90)" x="-47" y="1" width="46" height="46" rx="4" fill="url(#a)"/>
  <g>
    <path d="M1 39v4c0 2.216 1.784 4 4 4h38c2.216 0 4-1.784 4-4v-4c0 2.216-1.784 4-4 4H5c-2.216 0-4-1.784-4-4z" opacity=".1"/>
  </g>
  <g>
    <path d="M17 11c-5 2-6 7 0 10-1-1-3-4 0-5v17l-3 3h8l3-3v3h5l4-4V18l-5-5c-5 2.555-5 7 0 10-1-1-3-4 0-5v11l-1 1v-6h-5v4l-1 1V16z" fill-opacity=".098"/>
    <path d="M23 27l-1 1v-1h-5v5l-3 3h8l3-3v3h5l4-4v-4h-5v1l-1 1v-2" fill="#af0505"/>
    <path d="M17 25v2h5v-2M23 25v2h5v-2M29 25v2h5v-2" fill="#1a1a1a"/>
    <path d="M23 23v2h5v-2M17 10c-5 2-6 7 0 10-1-1-3-4 0-5v10h5V15" fill="#ececec"/>
    <path d="M29 12c-5 2.555-5 7 0 10-1-1-3-4 0-5v8h5v-8" fill="#ececec"/>
  </g>
</svg>
