<svg version="1.1" viewBox="0 0 48 48" xmlns="http://www.w3.org/2000/svg">
 <defs>
  <linearGradient id="linearGradient3764" x1="1" x2="47" gradientTransform="translate(-48 .0022147)" gradientUnits="userSpaceOnUse">
   <stop stop-color="#005b90" offset="0"/>
   <stop stop-color="#0067a4" offset="1"/>
  </linearGradient>
  <clipPath id="clipPath-407531213">
   <g transform="translate(0 -1004.4)">
    <rect x="1" y="1005.4" width="46" height="46" rx="4" fill="#1890d0"/>
   </g>
  </clipPath>
 </defs>
 <path d="m1 43v0.25c0 2.216 1.784 4 4 4h38c2.216 0 4-1.784 4-4v-0.25c0 2.216-1.784 4-4 4h-38c-2.216 0-4-1.784-4-4zm0 0.5v0.5c0 2.216 1.784 4 4 4h38c2.216 0 4-1.784 4-4v-0.5c0 2.216-1.784 4-4 4h-38c-2.216 0-4-1.784-4-4z" opacity=".02"/>
 <path d="m1 43.25v0.25c0 2.216 1.784 4 4 4h38c2.216 0 4-1.784 4-4v-0.25c0 2.216-1.784 4-4 4h-38c-2.216 0-4-1.784-4-4z" opacity=".05"/>
 <path d="m1 43v0.25c0 2.216 1.784 4 4 4h38c2.216 0 4-1.784 4-4v-0.25c0 2.216-1.784 4-4 4h-38c-2.216 0-4-1.784-4-4z" opacity=".1"/>
 <rect transform="rotate(-90)" x="-47" y="1" width="46" height="46" rx="4" fill="url(#linearGradient3764)"/>
 <g clip-path="url(#clipPath-407531213)">
  <g transform="translate(0,-1)"></g>
 </g>
 <g transform="translate(0 -1004.4)">
  <path d="m1 1043.4v4c0 2.216 1.784 4 4 4h38c2.216 0 4-1.784 4-4v-4c0 2.216-1.784 4-4 4h-38c-2.216 0-4-1.784-4-4z" opacity=".1"/>
 </g>
 <g style="opacity:.1">
  <g>
   <g>
    <path d="m24 9c-8.284 0-15 6.716-15 15s6.716 15 15 15 15-6.716 15-15-6.716-15-15-15m0 1c7.732 0 14 6.268 14 14s-6.268 14-14 14-14-6.268-14-14 6.268-14 14-14zm0 1.1c-4.539 0-8.527 2.357-10.824 5.9h4.824v1h-2l4.789 13.98 2.85-8.609-1.961-5.371h-1.678v-1h8v1h-2.275l4.666 13.824 1.695-5.156c2.047-6.23-1.75-6.89-1.66-9.984 0.051-1.535 1.168-2.207 2.297-2.172-2.297-2.117-5.36-3.412-8.723-3.412zm11.332 6.758c0.074 1.922-0.504 4.297-1.129 6.07l-4.02 11.395c4-2.195 6.711-6.435 6.711-11.314 0-2.223-0.563-4.319-1.555-6.143l-8e-3 -8e-3zm-23.08 0.789c-0.746 1.625-1.156 3.445-1.156 5.355 0 5.14 3.02 9.589 7.375 11.652l-6.219-17.01zm11.961 6.313-3.975 11.387c1.187 0.36 2.441 0.555 3.75 0.555 1.515 0 2.968-0.262 4.32-0.742l-4.096-11.199"/>
   </g>
  </g>
 </g>
 <path d="m24 8c-8.284 0-15 6.716-15 15s6.716 15 15 15 15-6.716 15-15-6.716-15-15-15zm0 1c7.732 0 14 6.268 14 14s-6.268 14-14 14-14-6.268-14-14 6.268-14 14-14zm0 1.1c-4.539 0-8.527 2.357-10.824 5.9h4.824v1h-2l4.789 13.98 2.85-8.609-1.961-5.371h-1.678v-1h8v1h-2.275l4.666 13.824 1.695-5.156c2.047-6.23-1.75-6.89-1.66-9.984 0.051-1.535 1.168-2.207 2.297-2.172-2.297-2.117-5.36-3.412-8.723-3.412zm11.332 6.758c0.074 1.922-0.504 4.297-1.129 6.07l-4.02 11.395c4-2.195 6.711-6.435 6.711-11.314 0-2.223-0.563-4.319-1.555-6.143l-8e-3 -8e-3zm-23.08 0.789c-0.746 1.625-1.156 3.445-1.156 5.355 0 5.14 3.02 9.589 7.375 11.652l-6.219-17.01zm11.961 6.313-3.975 11.387c1.187 0.36 2.441 0.555 3.75 0.555 1.515 0 2.968-0.262 4.32-0.742l-4.096-11.199z" style="fill:#f9f9f9"/>
</svg>
