<?xml version="1.0" encoding="UTF-8" standalone="no"?>
<svg
   xmlns:dc="http://purl.org/dc/elements/1.1/"
   xmlns:cc="http://creativecommons.org/ns#"
   xmlns:rdf="http://www.w3.org/1999/02/22-rdf-syntax-ns#"
   xmlns:svg="http://www.w3.org/2000/svg"
   xmlns="http://www.w3.org/2000/svg"
   xmlns:sodipodi="http://sodipodi.sourceforge.net/DTD/sodipodi-0.dtd"
   xmlns:inkscape="http://www.inkscape.org/namespaces/inkscape"
   version="1.1"
   viewBox="0 0 48 48"
   id="svg34"
   sodipodi:docname="Writefull.svg"
   inkscape:version="0.92.1 unknown">
  <defs
     id="defs38" />
  <sodipodi:namedview
     pagecolor="#ffffff"
     bordercolor="#666666"
     borderopacity="1"
     objecttolerance="10"
     gridtolerance="10"
     guidetolerance="10"
     inkscape:pageopacity="0"
     inkscape:pageshadow="2"
     inkscape:window-width="1600"
     inkscape:window-height="876"
     id="namedview36"
     showgrid="false"
     inkscape:zoom="13.906433"
     inkscape:cx="13.807066"
     inkscape:cy="26.165648"
     inkscape:window-x="0"
     inkscape:window-y="24"
     inkscape:window-maximized="1"
     inkscape:current-layer="svg34" />
  <metadata
     id="metadata2">
    <rdf:RDF>
      <cc:Work
         rdf:about="">
        <dc:format>image/svg+xml</dc:format>
        <dc:type
           rdf:resource="http://purl.org/dc/dcmitype/StillImage" />
        <dc:title></dc:title>
      </cc:Work>
    </rdf:RDF>
  </metadata>
  <rect
     style="fill:#4d4d4d;fill-opacity:.98431"
     rx="4"
     transform="rotate(-90)"
     height="46"
     width="46"
     y="1"
     x="-47"
     id="rect4" />
  <path
     opacity=".02"
     d="m1 43v0.25c0 2.216 1.784 4 4 4h38c2.216 0 4-1.784 4-4v-0.25c0 2.216-1.784 4-4 4h-38c-2.216 0-4-1.784-4-4zm0 0.5v0.5c0 2.216 1.784 4 4 4h38c2.216 0 4-1.784 4-4v-0.5c0 2.216-1.784 4-4 4h-38c-2.216 0-4-1.784-4-4z"
     id="path6" />
  <path
     opacity=".05"
     d="m1 43.25v0.25c0 2.216 1.784 4 4 4h38c2.216 0 4-1.784 4-4v-0.25c0 2.216-1.784 4-4 4h-38c-2.216 0-4-1.784-4-4z"
     id="path8" />
  <path
     opacity=".1"
     d="m1 43v0.25c0 2.216 1.784 4 4 4h38c2.216 0 4-1.784 4-4v-0.25c0 2.216-1.784 4-4 4h-38c-2.216 0-4-1.784-4-4z"
     id="path10" />
  <g
     transform="translate(0 -1004.4)"
     id="g14">
    <path
       opacity=".1"
       d="m1 1043.4v4c0 2.216 1.784 4 4 4h38c2.216 0 4-1.784 4-4v-4c0 2.216-1.784 4-4 4h-38c-2.216 0-4-1.784-4-4z"
       id="path12" />
  </g>
  <path
     style="opacity:.1;fill-rule:evenodd"
     d="m30 12.999 0.0039 13c0.00036 0.0015 0.0016 0.0024 0.002 0.0039l-0.0039-0.002 0.002-0.0019-6.0039-5-6 5v-12.966l-5 3.967v15l5 4 5.998-4.998 0.002 0.002 0.002-0.002 5.998 4.998 5-4v-15.031z"
     id="path16" />
  <g
     transform="translate(4,-51)"
     id="g32">
    <path
       style="fill:#54e8c9;fill-rule:evenodd"
       d="m 9,67.5 v 13 c 2.8937,-0.41306 4.2997,-1.5747 5,-4 V 63.532 Z"
       id="path18"
       inkscape:connector-curvature="0" />
    <path
       style="fill:#35bdcd;fill-rule:evenodd"
       d="m 9,80.5 v 2 l 5,4 c 0.85472,-3.2977 1.1368,-6.6193 0,-10 z"
       id="path20"
       inkscape:connector-curvature="0" />
    <path
       style="fill:#efa9e7;fill-rule:evenodd"
       d="M 31,67.468 V 80.5 c -2.6425,-0.11189 -4.3534,-1.3884 -4.9961,-4 l -0.004,-13 z"
       id="path22"
       inkscape:connector-curvature="0" />
    <path
       style="fill:#994fe7;fill-rule:evenodd"
       d="m 31,80.5 v 2 l -5,4 c -1.5377,-3.3864 -0.83285,-6.6954 0,-10 z"
       id="path24"
       inkscape:connector-curvature="0" />
    <path
       style="fill:#98e6ff;fill-rule:evenodd"
       d="m 20,81.5 -6,5 v -10 c 2.8285,0.27697 5.6898,0.49891 6,5 z"
       id="path26"
       inkscape:connector-curvature="0" />
    <path
       style="fill:#98a4ff;fill-rule:evenodd"
       d="m 20,81.5 6,5 v -10 c -3.6773,-0.3955 -6.2632,0.55086 -6,5 z"
       id="path28"
       inkscape:connector-curvature="0" />
    <path
       style="fill:#8bb7f0;fill-rule:evenodd"
       d="m 14,76.5 6,5.004 6.004,-5.004 -6.004,-5 -6,5"
       id="path30"
       inkscape:connector-curvature="0" />
  </g>
</svg>
