<svg width="48" height="48" viewBox="0 0 48 48.000001" xmlns="http://www.w3.org/2000/svg">
  <defs>
    <linearGradient id="a" x1="-47" x2="-1" gradientUnits="userSpaceOnUse">
      <stop offset="0" stop-color="#586472"/>
      <stop offset="1" stop-color="#616e7d"/>
    </linearGradient>
  </defs>
  <path d="M1 43v.25c0 2.216 1.784 4 4 4h38c2.216 0 4-1.784 4-4V43c0 2.216-1.784 4-4 4H5c-2.216 0-4-1.784-4-4zm0 .5v.5c0 2.216 1.784 4 4 4h38c2.216 0 4-1.784 4-4v-.5c0 2.216-1.784 4-4 4H5c-2.216 0-4-1.784-4-4z" opacity=".02"/>
  <path d="M1 43.25v.25c0 2.216 1.784 4 4 4h38c2.216 0 4-1.784 4-4v-.25c0 2.216-1.784 4-4 4H5c-2.216 0-4-1.784-4-4z" opacity=".05"/>
  <path d="M1 43v.25c0 2.216 1.784 4 4 4h38c2.216 0 4-1.784 4-4V43c0 2.216-1.784 4-4 4H5c-2.216 0-4-1.784-4-4z" opacity=".1"/>
  <rect transform="rotate(-90)" x="-47" y="1" width="46" height="46" rx="4" fill="url(#a)"/>
  <path d="M1 39v4c0 2.216 1.784 4 4 4h38c2.216 0 4-1.784 4-4v-4c0 2.216-1.784 4-4 4H5c-2.216 0-4-1.784-4-4z" opacity=".1"/>
  <g transform="translate(-1 -1)">
    <path d="M17 11c-.554 0-1 .446-1 1v1h-2v24h22V13h-2v-1c0-.554-.446-1-1-1s-1 .446-1 1v1h-2v-1c0-.554-.446-1-1-1s-1 .446-1 1v1h-2v-1c0-.554-.446-1-1-1s-1 .446-1 1v1h-2v-1c0-.554-.446-1-1-1s-1 .446-1 1v1h-2v-1c0-.554-.446-1-1-1z" fill-opacity=".098"/>
    <path fill="#efebe9" d="M14 12h22v24H14z"/>
    <path d="M15.8 12v1.199c0 .665.534 1.201 1.199 1.201s1.199-.536 1.199-1.201V12H15.8m4 0v1.199c0 .665.534 1.201 1.199 1.201s1.199-.536 1.199-1.201V12H19.8m4 0v1.199c0 .665.534 1.201 1.199 1.201s1.199-.536 1.199-1.201V12H23.8m4 0v1.199c0 .665.534 1.201 1.199 1.201s1.199-.536 1.199-1.201V12H27.8m4 0v1.199c0 .665.534 1.201 1.199 1.201s1.199-.536 1.199-1.201V12H31.8" opacity=".1"/>
    <rect x="16" y="10" width="2" height="4" rx="1" ry="1" fill="#a6a6a6"/>
    <path fill="gray" d="M17 17h15v1H17zm0 3h11v1H17zm0 3h16v1H17zm0 3h10v1H17z"/>
    <path d="M32.619 16.197L17.972 31.699 16 35.197l3.352-2.137 14.647-15.502z" fill-opacity=".098"/>
    <path fill="#3b6dad" d="M30.62 17.31L32 18.67 19.35 32.059l-1.379-1.36z"/>
    <path d="M32.617 15.195l-1.33 1.41 1.38 1.361 1.331-1.41z" fill="#c83737"/>
    <path d="M17.971 30.698l1.38 1.36-3.353 2.139z" fill="#efdc90"/>
    <path fill="#d7e3f4" d="M31.287 16.606l1.379 1.36-.666.705-1.38-1.36z"/>
    <path fill="#2c4f92" d="M31.31 17.99l.69.68-12.65 13.388-.69-.68z"/>
    <path d="M17.687 33.14l-1.69 1.057.993-1.744.696.687z" fill="#212121"/>
    <rect x="20" y="10" width="2" height="4" rx="1" ry="1" fill="#a6a6a6"/>
    <rect x="28" y="10" width="2" height="4" rx="1" ry="1" fill="#a6a6a6"/>
    <rect x="32" y="10" width="2" height="4" rx="1" ry="1" fill="#a6a6a6"/>
    <rect x="24" y="10" width="2" height="4" rx="1" ry="1" fill="#a6a6a6"/>
  </g>
</svg>
