<svg viewBox="0 0 48 48"><defs><linearGradient id="linearGradient3764" x1="1" x2="47" gradientUnits="userSpaceOnUse" gradientTransform="translate(-48.000001,0.00221467)"><stop stop-color="#5190cb" stop-opacity="1"/><stop offset="1" stop-color="#619bd0" stop-opacity="1"/></linearGradient><clipPath id="clipPath-320091188"><g transform="translate(0,-1004.3622)"><rect rx="4" y="1005.36" x="1" height="46" width="46" fill="#1890d0"/></g></clipPath><clipPath id="clipPath-351132871"><g transform="translate(0,-1004.3622)"><rect rx="4" y="1005.36" x="1" height="46" width="46" fill="#1890d0"/></g></clipPath></defs><g><path d="m 1 43 l 0 0.25 c 0 2.216 1.784 4 4 4 l 38 0 c 2.216 0 4 -1.784 4 -4 l 0 -0.25 c 0 2.216 -1.784 4 -4 4 l -38 0 c -2.216 0 -4 -1.784 -4 -4 z m 0 0.5 l 0 0.5 c 0 2.216 1.784 4 4 4 l 38 0 c 2.216 0 4 -1.784 4 -4 l 0 -0.5 c 0 2.216 -1.784 4 -4 4 l -38 0 c -2.216 0 -4 -1.784 -4 -4 z" opacity="0.02"/><path d="m 1 43.25 l 0 0.25 c 0 2.216 1.784 4 4 4 l 38 0 c 2.216 0 4 -1.784 4 -4 l 0 -0.25 c 0 2.216 -1.784 4 -4 4 l -38 0 c -2.216 0 -4 -1.784 -4 -4 z" opacity="0.05"/><path d="m 1 43 l 0 0.25 c 0 2.216 1.784 4 4 4 l 38 0 c 2.216 0 4 -1.784 4 -4 l 0 -0.25 c 0 2.216 -1.784 4 -4 4 l -38 0 c -2.216 0 -4 -1.784 -4 -4 z" opacity="0.1"/></g><g><rect width="46" height="46" x="-47" y="1" rx="4" transform="matrix(0,-1,1,0,0,0)" fill="url(#linearGradient3764)" fill-opacity="1"/></g><g><g clip-path="url(#clipPath-320091188)"><g opacity="0.1"><!-- color: #619bd0 --><g><path d="m 11 11 l 4.215 6.422 c 1.449 -2.273 7.914 6.871 6.883 -3.121 l -2.16 -3.301 m 5.129 4.543 c -16.711 21.637 -8.355 10.82 0 0 m 0 0 c 0.262 0.195 0.523 0.398 0.762 0.637 c 3.824 7.762 3.344 16.281 -8.203 10.734 l -6.625 10.08 l 8.934 0 l 4.066 -6.188 l 4.063 6.188 l 8.941 0 l -8.531 -13 l 8.531 -13 l -8.941 0 m -13.05 6.129 l 4.52 6.898 l -2 3.066 c 2.102 1.168 7.391 3.316 9.176 1.531 c 2.156 -2.156 2.336 -9.926 0.176 -12.09 c -0.164 -0.168 -1.539 -0.977 -1.723 -1.117 l -1.227 1.859 l -1.844 -2.98 c -3.148 -0.188 -8.816 0.27 -7.07 2.832 m 0 -0.004" stroke="none" fill-rule="nonzero" fill-opacity="1" fill="#000"/><path d="m 23.992 12.02 c -0.652 0 -0.965 2.051 -1.078 3.02 c -0.023 0.293 -0.047 0.559 -0.047 0.828 l 0 2.902 c -0.008 0.168 -0.039 0.211 -0.137 0.297 l -2.355 1.949 c -0.16 0.105 -0.371 0.102 -0.355 -0.262 l 0 -0.258 c 0 -0.145 -0.117 -0.262 -0.27 -0.262 l -0.336 0 c -0.152 0 -0.273 0.117 -0.273 0.262 l 0 1.52 c 0 0.047 -0.008 0.051 -0.043 0.082 l -2.234 1.887 c -0.227 0.152 -0.313 0.004 -0.324 -0.262 l 0 -0.473 c 0 -0.145 -0.117 -0.262 -0.27 -0.262 l -0.336 0 c -0.152 0 -0.273 0.117 -0.273 0.262 l 0 1.574 c 0 0.02 -0.008 0.023 -0.02 0.031 l -2.395 1.969 c -0.152 0.184 -0.242 0.27 -0.234 0.582 l -0.012 0.887 c -0.02 0.117 0.102 0.168 0.184 0.129 c 0 0 4.09 -2.402 5.656 -3.063 c 1.57 -0.656 3.66 -1.109 3.66 -1.109 c 0.16 -0.035 0.305 -0.043 0.367 0.121 l 0 6.648 c 0.004 0.793 0.316 1.273 0 1.559 l -2.609 2.414 c -0.156 0.16 -0.25 0.297 -0.266 0.555 l 0.004 0.277 c 0.008 0.125 0.059 0.191 0.18 0.176 l 3.336 -0.777 c 0.086 -0.027 0.156 -0.02 0.219 0.063 l 0.34 0.715 l 0.418 -0.734 c 0.059 -0.078 0.168 -0.113 0.25 -0.086 c 1.027 0.23 2.055 0.461 3.086 0.695 c 0.129 0.016 0.238 0.012 0.254 -0.156 l 0 -0.422 c -0.066 -0.289 -0.242 -0.422 -0.426 -0.598 l -2.617 -2.121 c -0.246 -0.234 -0.004 -0.734 0.082 -1.535 l 0 -6.57 l 0.004 0 l 0 -0.008 l 0.008 0 c 0 -0.012 0.004 -0.02 0.004 -0.027 c 0.004 -0.012 0.008 -0.02 0.012 -0.027 c 0 -0.008 0.004 -0.016 0.008 -0.02 c 0.004 -0.008 0.004 -0.02 0.008 -0.023 c 0.004 -0.008 0.023 -0.016 0.023 -0.02 c 0.004 -0.008 0.008 -0.02 0.016 -0.023 c 0.004 -0.008 0.023 -0.012 0.023 -0.02 c 0.004 -0.004 0.012 -0.012 0.016 -0.016 c 0.008 -0.004 0.023 -0.008 0.023 -0.012 c 0.008 -0.008 0.016 -0.012 0.02 -0.016 c 0.008 -0.004 0.023 -0.004 0.023 -0.008 c 0.012 -0.004 0.02 -0.004 0.023 -0.008 c 0.016 0 0.023 0 0.027 -0.004 c 0.012 0 0.023 0 0.031 0 c 0.012 0 0.02 0.004 0.027 0.004 c 0.02 0 0.023 0 0.035 0.004 c 0 0 1.898 0.391 3.5 1.035 c 1.605 0.645 5.871 3.074 5.871 3.074 c 0.105 0.02 0.188 0.008 0.191 -0.086 l 0 -0.82 c 0.004 -0.219 -0.145 -0.418 -0.234 -0.504 l -2.34 -1.973 c -0.082 -0.094 -0.102 -0.113 -0.102 -0.168 l 0 -1.559 c 0 -0.145 -0.125 -0.262 -0.273 -0.262 l -0.34 0 c -0.148 0 -0.273 0.117 -0.273 0.262 l 0 0.473 c 0.027 0.281 -0.051 0.387 -0.227 0.254 l -2.309 -1.879 c -0.051 -0.043 -0.063 -0.043 -0.063 -0.086 l 0 -1.516 c 0 -0.145 -0.121 -0.262 -0.273 -0.262 l -0.336 0 c -0.145 0 -0.27 0.117 -0.27 0.262 l 0 0.258 c 0.039 0.363 -0.211 0.434 -0.379 0.262 l -2.355 -1.957 c -0.102 -0.094 -0.102 -0.148 -0.129 -0.281 l 0 -2.91 c -0.008 -0.285 -0.02 -0.609 -0.059 -0.871 c -0.148 -1.02 -0.566 -3.219 -1.066 -2.973 m 0 0" stroke="none" fill-rule="evenodd" fill-opacity="1" fill="#000"/></g></g></g></g><g><g clip-path="url(#clipPath-351132871)"><g transform="translate(0,-1)"><!-- color: #619bd0 --><g><path d="m 11 11 l 4.215 6.422 c 1.449 -2.273 7.914 6.871 6.883 -3.121 l -2.16 -3.301 m 5.129 4.543 c -16.711 21.637 -8.355 10.82 0 0 m 0 0 c 0.262 0.195 0.523 0.398 0.762 0.637 c 3.824 7.762 3.344 16.281 -8.203 10.734 l -6.625 10.08 l 8.934 0 l 4.066 -6.188 l 4.063 6.188 l 8.941 0 l -8.531 -13 l 8.531 -13 l -8.941 0 m -13.05 6.129 l 4.52 6.898 l -2 3.066 c 2.102 1.168 7.391 3.316 9.176 1.531 c 2.156 -2.156 2.336 -9.926 0.176 -12.09 c -0.164 -0.168 -1.539 -0.977 -1.723 -1.117 l -1.227 1.859 l -1.844 -2.98 c -3.148 -0.188 -8.816 0.27 -7.07 2.832 m 0 -0.004" fill="#2d2d2d" stroke="none" fill-rule="nonzero" fill-opacity="1"/><path d="m 23.992 12.02 c -0.652 0 -0.965 2.051 -1.078 3.02 c -0.023 0.293 -0.047 0.559 -0.047 0.828 l 0 2.902 c -0.008 0.168 -0.039 0.211 -0.137 0.297 l -2.355 1.949 c -0.16 0.105 -0.371 0.102 -0.355 -0.262 l 0 -0.258 c 0 -0.145 -0.117 -0.262 -0.27 -0.262 l -0.336 0 c -0.152 0 -0.273 0.117 -0.273 0.262 l 0 1.52 c 0 0.047 -0.008 0.051 -0.043 0.082 l -2.234 1.887 c -0.227 0.152 -0.313 0.004 -0.324 -0.262 l 0 -0.473 c 0 -0.145 -0.117 -0.262 -0.27 -0.262 l -0.336 0 c -0.152 0 -0.273 0.117 -0.273 0.262 l 0 1.574 c 0 0.02 -0.008 0.023 -0.02 0.031 l -2.395 1.969 c -0.152 0.184 -0.242 0.27 -0.234 0.582 l -0.012 0.887 c -0.02 0.117 0.102 0.168 0.184 0.129 c 0 0 4.09 -2.402 5.656 -3.063 c 1.57 -0.656 3.66 -1.109 3.66 -1.109 c 0.16 -0.035 0.305 -0.043 0.367 0.121 l 0 6.648 c 0.004 0.793 0.316 1.273 0 1.559 l -2.609 2.414 c -0.156 0.16 -0.25 0.297 -0.266 0.555 l 0.004 0.277 c 0.008 0.125 0.059 0.191 0.18 0.176 l 3.336 -0.777 c 0.086 -0.027 0.156 -0.02 0.219 0.063 l 0.34 0.715 l 0.418 -0.734 c 0.059 -0.078 0.168 -0.113 0.25 -0.086 c 1.027 0.23 2.055 0.461 3.086 0.695 c 0.129 0.016 0.238 0.012 0.254 -0.156 l 0 -0.422 c -0.066 -0.289 -0.242 -0.422 -0.426 -0.598 l -2.617 -2.121 c -0.246 -0.234 -0.004 -0.734 0.082 -1.535 l 0 -6.57 l 0.004 0 l 0 -0.008 l 0.008 0 c 0 -0.012 0.004 -0.02 0.004 -0.027 c 0.004 -0.012 0.008 -0.02 0.012 -0.027 c 0 -0.008 0.004 -0.016 0.008 -0.02 c 0.004 -0.008 0.004 -0.02 0.008 -0.023 c 0.004 -0.008 0.023 -0.016 0.023 -0.02 c 0.004 -0.008 0.008 -0.02 0.016 -0.023 c 0.004 -0.008 0.023 -0.012 0.023 -0.02 c 0.004 -0.004 0.012 -0.012 0.016 -0.016 c 0.008 -0.004 0.023 -0.008 0.023 -0.012 c 0.008 -0.008 0.016 -0.012 0.02 -0.016 c 0.008 -0.004 0.023 -0.004 0.023 -0.008 c 0.012 -0.004 0.02 -0.004 0.023 -0.008 c 0.016 0 0.023 0 0.027 -0.004 c 0.012 0 0.023 0 0.031 0 c 0.012 0 0.02 0.004 0.027 0.004 c 0.02 0 0.023 0 0.035 0.004 c 0 0 1.898 0.391 3.5 1.035 c 1.605 0.645 5.871 3.074 5.871 3.074 c 0.105 0.02 0.188 0.008 0.191 -0.086 l 0 -0.82 c 0.004 -0.219 -0.145 -0.418 -0.234 -0.504 l -2.34 -1.973 c -0.082 -0.094 -0.102 -0.113 -0.102 -0.168 l 0 -1.559 c 0 -0.145 -0.125 -0.262 -0.273 -0.262 l -0.34 0 c -0.148 0 -0.273 0.117 -0.273 0.262 l 0 0.473 c 0.027 0.281 -0.051 0.387 -0.227 0.254 l -2.309 -1.879 c -0.051 -0.043 -0.063 -0.043 -0.063 -0.086 l 0 -1.516 c 0 -0.145 -0.121 -0.262 -0.273 -0.262 l -0.336 0 c -0.145 0 -0.27 0.117 -0.27 0.262 l 0 0.258 c 0.039 0.363 -0.211 0.434 -0.379 0.262 l -2.355 -1.957 c -0.102 -0.094 -0.102 -0.148 -0.129 -0.281 l 0 -2.91 c -0.008 -0.285 -0.02 -0.609 -0.059 -0.871 c -0.148 -1.02 -0.566 -3.219 -1.066 -2.973 m 0 0" fill="#fff" stroke="none" fill-rule="evenodd" fill-opacity="1"/></g></g></g></g><g><g transform="translate(0,-1004.3622)"><path d="m 1 1043.36 0 4 c 0 2.216 1.784 4 4 4 l 38 0 c 2.216 0 4 -1.784 4 -4 l 0 -4 c 0 2.216 -1.784 4 -4 4 l -38 0 c -2.216 0 -4 -1.784 -4 -4 z" opacity="0.1"/></g></g></svg>