<svg width="48" height="48" version="1.1" viewBox="0 0 48 48.000001" xmlns="http://www.w3.org/2000/svg">
 <defs>
  <linearGradient id="linearGradient4501" x1="-47" x2="-1" y1="2.8779e-15" y2="6.1232e-17" gradientUnits="userSpaceOnUse">
   <stop style="stop-color:#f1bb8b" offset="0"/>
   <stop style="stop-color:#f3c59d" offset="1"/>
  </linearGradient>
 </defs>
 <g transform="translate(0 3.949e-5)">
  <path d="m1 43v0.25c0 2.216 1.784 4 4 4h38c2.216 0 4-1.784 4-4v-0.25c0 2.216-1.784 4-4 4h-38c-2.216 0-4-1.784-4-4zm0 0.5v0.5c0 2.216 1.784 4 4 4h38c2.216 0 4-1.784 4-4v-0.5c0 2.216-1.784 4-4 4h-38c-2.216 0-4-1.784-4-4z" style="opacity:.02"/>
  <path d="m1 43.25v0.25c0 2.216 1.784 4 4 4h38c2.216 0 4-1.784 4-4v-0.25c0 2.216-1.784 4-4 4h-38c-2.216 0-4-1.784-4-4z" style="opacity:.05"/>
  <path d="m1 43v0.25c0 2.216 1.784 4 4 4h38c2.216 0 4-1.784 4-4v-0.25c0 2.216-1.784 4-4 4h-38c-2.216 0-4-1.784-4-4z" style="opacity:.1"/>
 </g>
 <rect transform="rotate(-90)" x="-47" y="1" width="46" height="46" rx="4" style="fill:url(#linearGradient4501)"/>
 <g transform="translate(0 3.949e-5)">
  <g transform="translate(0 -1004.4)">
   <path d="m1 1043.4v4c0 2.216 1.784 4 4 4h38c2.216 0 4-1.784 4-4v-4c0 2.216-1.784 4-4 4h-38c-2.216 0-4-1.784-4-4z" style="opacity:.1"/>
  </g>
 </g>
 <g transform="translate(-1,-1)">
  <g transform="translate(1,1)">
   <g style="opacity:.1">
    <path transform="translate(-1,-1)" d="m9 14.996c-0.551 0-1 0.449-1 1v2c0 0.555 0.449 1 1 1h2c0.551 0 1-0.445 1-1v-2c0-0.551-0.449-1-1-1zm6 0c-0.551 0-1 0.449-1 1v2c0 0.555 0.449 1 1 1h2c0.551 0 1-0.445 1-1v-2c0-0.551-0.449-1-1-1zm6 0c-0.551 0-1 0.449-1 1v2c0 0.555 0.449 1 1 1h2c0.551 0 1-0.445 1-1v-2c0-0.551-0.449-1-1-1zm6 0c-0.551 0-1 0.449-1 1v2c0 0.555 0.449 1 1 1h2c0.551 0 1-0.445 1-1v-2c0-0.551-0.449-1-1-1zm6 0c-0.551 0-1 0.449-1 1v2c0 0.555 0.449 1 1 1h2c0.551 0 1-0.445 1-1v-2c0-0.551-0.449-1-1-1zm6 0c-0.551 0-1 0.449-1 1v2c0 0.555 0.449 1 1 1h2c0.551 0 1-0.445 1-1v-2c0-0.551-0.449-1-1-1zm-30 6c-0.551 0-1 0.449-1 1v2c0 0.555 0.449 1 1 1h2c0.551 0 1-0.445 1-1v-2c0-0.551-0.449-1-1-1zm6 0c-0.551 0-1 0.449-1 1v2c0 0.555 0.449 1 1 1h2c0.551 0 1-0.445 1-1v-2c0-0.551-0.449-1-1-1zm6 0c-0.551 0-1 0.449-1 1v2c0 0.555 0.449 1 1 1h2c0.551 0 1-0.445 1-1v-2c0-0.551-0.449-1-1-1zm6 0c-0.551 0-1 0.449-1 1v2c0 0.555 0.449 1 1 1h2c0.551 0 1-0.445 1-1v-2c0-0.551-0.449-1-1-1zm6 0c-0.551 0-1 0.449-1 1v2c0 0.555 0.449 1 1 1h2c0.551 0 1-0.445 1-1v-2c0-0.551-0.449-1-1-1zm6 0c-0.551 0-1 0.449-1 1v2c0 0.555 0.449 1 1 1h2c0.551 0 1-0.445 1-1v-2c0-0.551-0.449-1-1-1zm-30 6c-0.551 0-1 0.449-1 1v2c0 0.555 0.449 1 1 1h2c0.551 0 1-0.445 1-1v-2c0-0.551-0.449-1-1-1zm6 0c-0.551 0-1 0.449-1 1v2c0 0.555 0.449 1 1 1h2c0.551 0 1-0.445 1-1v-2c0-0.551-0.449-1-1-1zm6 0c-0.551 0-1 0.449-1 1v2c0 0.555 0.449 1 1 1h2c0.551 0 1-0.445 1-1v-2c0-0.551-0.449-1-1-1zm6 0c-0.551 0-1 0.449-1 1v2c0 0.555 0.449 1 1 1h2c0.551 0 1-0.445 1-1v-2c0-0.551-0.449-1-1-1zm6 0c-0.551 0-1 0.449-1 1v2c0 0.555 0.449 1 1 1h2c0.551 0 1-0.445 1-1v-2c0-0.551-0.449-1-1-1zm6 0c-0.551 0-1 0.449-1 1v2c0 0.555 0.449 1 1 1h2c0.551 0 1-0.445 1-1v-2c0-0.551-0.449-1-1-1zm-24 6c-0.551 0-1 0.449-1 1v2c0 0.555 0.449 1 1 1h20c0.551 0 1-0.445 1-1v-2c0-0.551-0.449-1-1-1z"/>
   </g>
  </g>
 </g>
 <g transform="translate(0,-1)">
  <path d="m8 13.996c-0.551 0-1 0.449-1 1v2c0 0.555 0.449 1 1 1h2c0.551 0 1-0.445 1-1v-2c0-0.551-0.449-1-1-1zm6 0c-0.551 0-1 0.449-1 1v2c0 0.555 0.449 1 1 1h2c0.551 0 1-0.445 1-1v-2c0-0.551-0.449-1-1-1zm6 0c-0.551 0-1 0.449-1 1v2c0 0.555 0.449 1 1 1h2c0.551 0 1-0.445 1-1v-2c0-0.551-0.449-1-1-1zm6 0c-0.551 0-1 0.449-1 1v2c0 0.555 0.449 1 1 1h2c0.551 0 1-0.445 1-1v-2c0-0.551-0.449-1-1-1zm6 0c-0.551 0-1 0.449-1 1v2c0 0.555 0.449 1 1 1h2c0.551 0 1-0.445 1-1v-2c0-0.551-0.449-1-1-1zm6 0c-0.551 0-1 0.449-1 1v2c0 0.555 0.449 1 1 1h2c0.551 0 1-0.445 1-1v-2c0-0.551-0.449-1-1-1zm-30 6c-0.551 0-1 0.449-1 1v2c0 0.555 0.449 1 1 1h2c0.551 0 1-0.445 1-1v-2c0-0.551-0.449-1-1-1zm6 0c-0.551 0-1 0.449-1 1v2c0 0.555 0.449 1 1 1h2c0.551 0 1-0.445 1-1v-2c0-0.551-0.449-1-1-1zm6 0c-0.551 0-1 0.449-1 1v2c0 0.555 0.449 1 1 1h2c0.551 0 1-0.445 1-1v-2c0-0.551-0.449-1-1-1zm6 0c-0.551 0-1 0.449-1 1v2c0 0.555 0.449 1 1 1h2c0.551 0 1-0.445 1-1v-2c0-0.551-0.449-1-1-1zm6 0c-0.551 0-1 0.449-1 1v2c0 0.555 0.449 1 1 1h2c0.551 0 1-0.445 1-1v-2c0-0.551-0.449-1-1-1zm6 0c-0.551 0-1 0.449-1 1v2c0 0.555 0.449 1 1 1h2c0.551 0 1-0.445 1-1v-2c0-0.551-0.449-1-1-1zm-30 6c-0.551 0-1 0.449-1 1v2c0 0.555 0.449 1 1 1h2c0.551 0 1-0.445 1-1v-2c0-0.551-0.449-1-1-1zm6 0c-0.551 0-1 0.449-1 1v2c0 0.555 0.449 1 1 1h2c0.551 0 1-0.445 1-1v-2c0-0.551-0.449-1-1-1zm6 0c-0.551 0-1 0.449-1 1v2c0 0.555 0.449 1 1 1h2c0.551 0 1-0.445 1-1v-2c0-0.551-0.449-1-1-1zm6 0c-0.551 0-1 0.449-1 1v2c0 0.555 0.449 1 1 1h2c0.551 0 1-0.445 1-1v-2c0-0.551-0.449-1-1-1zm6 0c-0.551 0-1 0.449-1 1v2c0 0.555 0.449 1 1 1h2c0.551 0 1-0.445 1-1v-2c0-0.551-0.449-1-1-1zm6 0c-0.551 0-1 0.449-1 1v2c0 0.555 0.449 1 1 1h2c0.551 0 1-0.445 1-1v-2c0-0.551-0.449-1-1-1zm-24 6c-0.551 0-1 0.449-1 1v2c0 0.555 0.449 1 1 1h20c0.551 0 1-0.445 1-1v-2c0-0.551-0.449-1-1-1z" style="fill:#e47b1c"/>
 </g>
</svg>
