<svg version="1.1" viewBox="0 0 48 48" xmlns="http://www.w3.org/2000/svg">
 <defs>
  <linearGradient id="bg" x2="0" y1="1" y2="47" gradientUnits="userSpaceOnUse">
   <stop style="stop-color:#e36d5e" offset="0"/>
   <stop style="stop-color:#e05d4d" offset="1"/>
  </linearGradient>
 </defs>
 <path d="m1 43v0.25c0 2.22 1.78 4 4 4h38c2.22 0 4-1.78 4-4v-0.25c0 2.22-1.78 4-4 4h-38c-2.22 0-4-1.78-4-4zm0 0.5v0.5c0 2.22 1.78 4 4 4h38c2.22 0 4-1.78 4-4v-0.5c0 2.22-1.78 4-4 4h-38c-2.22 0-4-1.78-4-4z" style="opacity:.02"/>
 <path d="m1 43.2v0.25c0 2.22 1.78 4 4 4h38c2.22 0 4-1.78 4-4v-0.25c0 2.22-1.78 4-4 4h-38c-2.22 0-4-1.78-4-4z" style="opacity:.05"/>
 <path d="m1 43v0.25c0 2.22 1.78 4 4 4h38c2.22 0 4-1.78 4-4v-0.25c0 2.22-1.78 4-4 4h-38c-2.22 0-4-1.78-4-4z" style="opacity:.1"/>
 <rect x="1" y="1" width="46" height="46" rx="4" style="fill:url(#bg)"/>
 <path d="m1 39v4c0 2.22 1.78 4 4 4h38c2.22 0 4-1.78 4-4v-4c0 2.22-1.78 4-4 4h-38c-2.22 0-4-1.78-4-4z" style="opacity:.1"/>
 <path d="m14 14v20c-2.27e-4 2.36 2.59 3.79 4.59 2.54l16-10c0.941-0.587 1.41-1.56 1.41-2.54 0-0.979-0.471-1.96-1.41-2.55z" style="opacity:.1"/>
 <path d="m17.1 10c-0.526-0.0135-1.06 0.112-1.53 0.377-0.953 0.529-1.54 1.53-1.54 2.62v20c-2.27e-4 2.36 2.59 3.79 4.59 2.54l16-10c0.941-0.587 1.41-1.56 1.41-2.54 0-0.979-0.471-1.96-1.41-2.55l-5.67-3.54-1.92 0.0879-0.846-1.82-7.56-4.73c-0.462-0.289-0.985-0.442-1.51-0.455z" style="fill:#b1a8a2"/>
 <path d="m22.7 21-2.74-3.96h-4l5.54 8h-1.87l-3.67 5h4l2.57-3.51 2.43 3.51h2.45l1.08-0.676-5.07-7.32h2.54l3.41-4.78-0.494-0.309z" style="opacity:.1"/>
 <path d="m26.2 15.2-3.41 4.78-2.74-3.96h-4l5.54 8h-1.87l-3.67 5h4l2.57-3.51 2.43 3.51h4l-5.54-8h2.54l2.92-4.09z" style="fill:#f9f9f9"/>
</svg>
