<svg width="48" height="48" version="1.1" viewBox="0 0 48 48.000001" xmlns="http://www.w3.org/2000/svg" xmlns:xlink="http://www.w3.org/1999/xlink">
 <defs>
  <linearGradient id="linearGradient4501" x1="-47" x2="-1" y1="2.8779e-15" y2="6.1232e-17" gradientUnits="userSpaceOnUse">
   <stop style="stop-color:#ebebc9" offset="0"/>
   <stop style="stop-color:#f0f0d8" offset="1"/>
  </linearGradient>
  <linearGradient id="linearGradient4154" x2="0" y1="39" y2="9" gradientTransform="translate(0 -1.0005)" gradientUnits="userSpaceOnUse" xlink:href="#linearGradient4158"/>
  <linearGradient id="linearGradient4158">
   <stop style="stop-color:#565656" offset="0"/>
   <stop style="stop-color:#5c5c5c" offset="1"/>
  </linearGradient>
  <linearGradient id="linearGradient4156" x2="0" y1="11.01" y2="2.54" gradientUnits="userSpaceOnUse" xlink:href="#linearGradient4158"/>
 </defs>
 <g transform="translate(0 3.949e-5)">
  <path d="m1 43v0.25c0 2.216 1.784 4 4 4h38c2.216 0 4-1.784 4-4v-0.25c0 2.216-1.784 4-4 4h-38c-2.216 0-4-1.784-4-4zm0 0.5v0.5c0 2.216 1.784 4 4 4h38c2.216 0 4-1.784 4-4v-0.5c0 2.216-1.784 4-4 4h-38c-2.216 0-4-1.784-4-4z" style="opacity:.02"/>
  <path d="m1 43.25v0.25c0 2.216 1.784 4 4 4h38c2.216 0 4-1.784 4-4v-0.25c0 2.216-1.784 4-4 4h-38c-2.216 0-4-1.784-4-4z" style="opacity:.05"/>
  <path d="m1 43v0.25c0 2.216 1.784 4 4 4h38c2.216 0 4-1.784 4-4v-0.25c0 2.216-1.784 4-4 4h-38c-2.216 0-4-1.784-4-4z" style="opacity:.1"/>
 </g>
 <rect transform="rotate(-90)" x="-47" y="1" width="46" height="46" rx="4" style="fill:url(#linearGradient4501)"/>
 <g transform="translate(0 3.949e-5)">
  <g transform="translate(0 -1004.4)">
   <path d="m1 1043.4v4c0 2.216 1.784 4 4 4h38c2.216 0 4-1.784 4-4v-4c0 2.216-1.784 4-4 4h-38c-2.216 0-4-1.784-4-4z" style="opacity:.1"/>
  </g>
 </g>
 <g transform="matrix(3.5433 0 0 3.5433 2e-7 -1.0008)">
  <path d="m6.7778 2.822c-2.338 0-4.233 1.895-4.233 4.233s1.895 4.233 4.233 4.233 4.233-1.895 4.233-4.233-1.895-4.233-4.233-4.233zm0 0.564c2.026 0 3.669 1.643 3.669 3.669s-1.643 3.669-3.669 3.669-3.669-1.643-3.669-3.669 1.643-3.669 3.669-3.669zm-1.693 1.128v5.08l4.515-2.54z" style="opacity:.1"/>
  <path d="m5.08 4.233v5.08l4.516-2.54" style="fill:url(#linearGradient4156)"/>
 </g>
 <path d="m24 7.9995a15 15 0 0 0 -15 15 15 15 0 0 0 15 15 15 15 0 0 0 15 -15 15 15 0 0 0 -15 -15zm0 2a13 13 0 0 1 13 13 13 13 0 0 1 -13 13 13 13 0 0 1 -13 -13 13 13 0 0 1 13 -13z" style="fill:url(#linearGradient4154)"/>
</svg>
