<?xml version="1.0" encoding="UTF-8"?>
<svg id="svg4340" width="48" height="48" version="1.1" viewBox="0 0 48 48.000001" xmlns="http://www.w3.org/2000/svg" xmlns:cc="http://creativecommons.org/ns#" xmlns:dc="http://purl.org/dc/elements/1.1/" xmlns:rdf="http://www.w3.org/1999/02/22-rdf-syntax-ns#">
 <defs id="defs4342">
  <linearGradient id="linearGradient4231" x1="1" x2="47" gradientTransform="translate(-48 .00221)" gradientUnits="userSpaceOnUse">
   <stop id="stop7-3" style="stop-color:#48aee4" offset="0"/>
   <stop id="stop9-75" style="stop-color:#59b6e7" offset="1"/>
  </linearGradient>
 </defs>
 <metadata id="metadata4345">
  <rdf:RDF>
   <cc:Work rdf:about="">
    <dc:format>image/svg+xml</dc:format>
    <dc:type rdf:resource="http://purl.org/dc/dcmitype/StillImage"/>
    <dc:title/>
   </cc:Work>
  </rdf:RDF>
 </metadata>
 <g id="g21">
  <path id="path23" d="m1 43v0.25c0 2.216 1.784 4 4 4h38c2.216 0 4-1.784 4-4v-0.25c0 2.216-1.784 4-4 4h-38c-2.216 0-4-1.784-4-4zm0 0.5v0.5c0 2.216 1.784 4 4 4h38c2.216 0 4-1.784 4-4v-0.5c0 2.216-1.784 4-4 4h-38c-2.216 0-4-1.784-4-4z" style="opacity:.02"/>
  <path id="path25" d="m1 43.25v0.25c0 2.216 1.784 4 4 4h38c2.216 0 4-1.784 4-4v-0.25c0 2.216-1.784 4-4 4h-38c-2.216 0-4-1.784-4-4z" style="opacity:.05"/>
  <path id="path27" d="m1 43v0.25c0 2.216 1.784 4 4 4h38c2.216 0 4-1.784 4-4v-0.25c0 2.216-1.784 4-4 4h-38c-2.216 0-4-1.784-4-4z" style="opacity:.1"/>
 </g>
 <rect id="rect4229" transform="rotate(-90)" x="-47" y="1" width="46" height="46" rx="4" style="fill:url(#linearGradient4231)"/>
 <g id="g57">
  <g id="g59" transform="translate(0,-1004.4)">
   <path id="path61" d="m1 1043.4v4c0 2.216 1.784 4 4 4h38c2.216 0 4-1.784 4-4v-4c0 2.216-1.784 4-4 4h-38c-2.216 0-4-1.784-4-4z" style="opacity:.1"/>
  </g>
 </g>
 <g id="g35" transform="translate(0 -.997)">
  <g id="g33">
   <g id="g31" transform="translate(1,1)">
    <g id="g29" style="opacity:.1">
     <g id="g27">
      <path id="path21" d="m14.005 12c-1 0-1 0.461-1.25 1l-1.75 7c-0.0079 5.0278-4e-3 10.075-4e-3 15.11 0 0.492 0.395 0.887 0.887 0.887h22.23c0.492 0 0.887-0.395 0.887-0.887v-15.11l-1.75-7c-0.25-0.48-0.25-1-1.25-1z"/>
     </g>
    </g>
   </g>
  </g>
 </g>
 <g id="g4518" transform="translate(.004 -.997)">
  <g id="g48">
   <g id="g46">
    <g id="g44">
     <path id="path37" d="m15 12c-1 0-1 0.461-1.25 1l-1.75 7 12 3 12-3-1.75-7c-0.25-0.48-0.25-1-1.25-1z" style="fill:#f5f1e7"/>
     <path id="path39" d="m11.996 20v15.11c0 0.492 0.395 0.887 0.887 0.887h22.23c0.492 0 0.887-0.395 0.887-0.887v-15.11z" style="fill:#edeadb"/>
     <path id="path4528" d="m15 12c-1 0-1 0.461-1.25 1h8.6875l-0.375 6h-9.8125l-0.25 1h24l-0.25-1h-9.8125l-0.375-6h8.6875c-0.25-0.48-0.25-1-1.25-1h-10.5z" style="opacity:.15"/>
    </g>
   </g>
  </g>
  <path id="rect4489" d="m21 22-3 1.6154 4 5.1923v5.1923h4v-5.1923l4-5.1923-3-1.6154-3 4z" style="fill:#1b80b5"/>
  <rect id="rect4523" x="23.5" y="12" width="1" height="8" style="fill-opacity:.19608"/>
 </g>
</svg>
