<svg style="" version="1.1" viewBox="0 0 48 48" xmlns="http://www.w3.org/2000/svg">
 <defs style="">
  <linearGradient id="bg" x1="1" x2="47" style="" gradientTransform="translate(-48 .002215)" gradientUnits="userSpaceOnUse">
   <stop style="stop-color:#739bd7" offset="0"/>
   <stop style="stop-color:#82a5dc" offset="1"/>
  </linearGradient>
 </defs>
 <path d="m1 43v0.25c0 2.216 1.784 4 4 4h38c2.216 0 4-1.784 4-4v-0.25c0 2.216-1.784 4-4 4h-38c-2.216 0-4-1.784-4-4zm0 0.5v0.5c0 2.216 1.784 4 4 4h38c2.216 0 4-1.784 4-4v-0.5c0 2.216-1.784 4-4 4h-38c-2.216 0-4-1.784-4-4z" style="opacity:.02"/>
 <path d="m1 43.25v0.25c0 2.216 1.784 4 4 4h38c2.216 0 4-1.784 4-4v-0.25c0 2.216-1.784 4-4 4h-38c-2.216 0-4-1.784-4-4z" style="opacity:.05"/>
 <path d="m1 43v0.25c0 2.216 1.784 4 4 4h38c2.216 0 4-1.784 4-4v-0.25c0 2.216-1.784 4-4 4h-38c-2.216 0-4-1.784-4-4z" style="opacity:.1"/>
 <rect transform="rotate(-90)" x="-47" y="1" width="46" height="46" rx="4" style="fill:url(#bg)"/>
 <path d="m21.523 13.359c-0.719 0.797-1.035 1.867-1.188 2.316-0.461 1.25 0.77 1.148 1.586-0.148 1.281-1.945 1.793-0.25 1.844 5.887 0.051 5.191-0.102 6.191-1.176 8.285-1.488 2.996-3.176 4.195-4.867 3.445-0.922-0.398-1.434-0.348-2.098 0.102-0.77 0.547-0.82 0.746-0.203 1.695 1.84 2.844 6.297-0.148 11.52-7.785 3.352-4.84 4.484-11.141 4.777-12.08 0.254-1.01 0.547-2.977-0.168-2.977-2.453 1.602-4.211 12.875-5.387 13.01-0.125-4.984-0.066-17.15-4.645-11.738" style="opacity:.1"/>
 <path d="m21.523 12.359c-0.719 0.797-1.035 1.867-1.188 2.316-0.461 1.25 0.77 1.148 1.586-0.148 1.281-1.945 1.793-0.25 1.844 5.887 0.051 5.191-0.102 6.191-1.176 8.285-1.488 2.996-3.176 4.195-4.867 3.445-0.922-0.398-1.434-0.348-2.098 0.102-0.77 0.547-0.82 0.746-0.203 1.695 1.84 2.844 6.297-0.148 11.52-7.785 3.352-4.84 4.484-11.141 4.777-12.08 0.254-1.01 0.547-2.977-0.168-2.977-2.453 1.602-4.211 12.875-5.387 13.01-0.125-4.984-0.066-17.15-4.645-11.738" style="fill:#3d3d3d"/>
 <path d="m1 39v4c0 2.216 1.784 4 4 4h38c2.216 0 4-1.784 4-4v-4c0 2.216-1.784 4-4 4h-38c-2.216 0-4-1.784-4-4z" style="opacity:.1"/>
</svg>
