<?xml version="1.0" encoding="UTF-8" standalone="no"?>
<svg
   xmlns:dc="http://purl.org/dc/elements/1.1/"
   xmlns:cc="http://creativecommons.org/ns#"
   xmlns:rdf="http://www.w3.org/1999/02/22-rdf-syntax-ns#"
   xmlns:svg="http://www.w3.org/2000/svg"
   xmlns="http://www.w3.org/2000/svg"
   xmlns:sodipodi="http://sodipodi.sourceforge.net/DTD/sodipodi-0.dtd"
   xmlns:inkscape="http://www.inkscape.org/namespaces/inkscape"
   viewBox="0 0 48 48"
   version="1.1"
   id="svg43730"
   sodipodi:docname="youtube-looper.svg">
  <metadata
     id="metadata43734">
    <rdf:RDF>
      <cc:Work
         rdf:about="">
        <dc:format>image/svg+xml</dc:format>
        <dc:type
           rdf:resource="http://purl.org/dc/dcmitype/StillImage" />
      </cc:Work>
    </rdf:RDF>
  </metadata>
  <sodipodi:namedview
     pagecolor="#ffffff"
     bordercolor="#666666"
     borderopacity="1"
     objecttolerance="10"
     gridtolerance="10"
     guidetolerance="10"
     inkscape:pageopacity="0"
     inkscape:pageshadow="2"
     inkscape:window-width="640"
     inkscape:window-height="480"
     id="namedview43732" />
  <defs
     id="defs43690">
    <linearGradient
       id="linearGradient3764"
       x1="1"
       x2="47"
       gradientUnits="userSpaceOnUse"
       gradientTransform="translate(-48.000001,0.00221467)">
      <stop
         stop-color="#e1281f"
         stop-opacity="1"
         id="stop43675" />
      <stop
         offset="1"
         stop-color="#e33a31"
         stop-opacity="1"
         id="stop43677" />
    </linearGradient>
    <clipPath
       id="clipPath-601419171">
      <g
         transform="translate(0,-1004.3622)"
         id="g43682">
        <rect
           rx="4"
           y="1005.36"
           x="1"
           height="46"
           width="46"
           fill="#1890d0"
           id="rect43680" />
      </g>
    </clipPath>
    <clipPath
       id="clipPath-614975223">
      <g
         transform="translate(0,-1004.3622)"
         id="g43687">
        <rect
           rx="4"
           y="1005.36"
           x="1"
           height="46"
           width="46"
           fill="#1890d0"
           id="rect43685" />
      </g>
    </clipPath>
  </defs>
  <g
     id="g43698">
    <path
       d="m 1 43 l 0 0.25 c 0 2.216 1.784 4 4 4 l 38 0 c 2.216 0 4 -1.784 4 -4 l 0 -0.25 c 0 2.216 -1.784 4 -4 4 l -38 0 c -2.216 0 -4 -1.784 -4 -4 z m 0 0.5 l 0 0.5 c 0 2.216 1.784 4 4 4 l 38 0 c 2.216 0 4 -1.784 4 -4 l 0 -0.5 c 0 2.216 -1.784 4 -4 4 l -38 0 c -2.216 0 -4 -1.784 -4 -4 z"
       opacity="0.02"
       id="path43692" />
    <path
       d="m 1 43.25 l 0 0.25 c 0 2.216 1.784 4 4 4 l 38 0 c 2.216 0 4 -1.784 4 -4 l 0 -0.25 c 0 2.216 -1.784 4 -4 4 l -38 0 c -2.216 0 -4 -1.784 -4 -4 z"
       opacity="0.05"
       id="path43694" />
    <path
       d="m 1 43 l 0 0.25 c 0 2.216 1.784 4 4 4 l 38 0 c 2.216 0 4 -1.784 4 -4 l 0 -0.25 c 0 2.216 -1.784 4 -4 4 l -38 0 c -2.216 0 -4 -1.784 -4 -4 z"
       opacity="0.1"
       id="path43696" />
  </g>
  <g
     id="g43702">
    <rect
       width="46"
       height="46"
       x="-47"
       y="1"
       rx="4"
       transform="matrix(0,-1,1,0,0,0)"
       fill="url(#linearGradient3764)"
       fill-opacity="1"
       id="rect43700" />
  </g>
  <g
     id="g43712">
    <g
       clip-path="url(#clipPath-601419171)"
       id="g43710">
      <g
         opacity="0.1"
         id="g43708">
        <!-- color: #e33a31 -->
        <g
           id="g43706">
          <path
             d="m 24.16 15 c -3.039 0 -7.5 0.176 -8.844 0.219 c -1.461 0.129 -2.01 0.203 -2.813 0.875 c -1.219 1.066 -1.5 3.172 -1.5 6.375 l 0 3.063 c 0 3.66 0.5 5.508 1.313 6.188 c 0.938 0.793 1.563 0.844 2.188 0.938 c 0.242 0.035 1.949 0.355 9.563 0.355 c 4.746 0 8.828 -0.23 9.25 -0.281 c 0.68 -0.086 1.641 -0.195 2.375 -1 c 1.09 -1.219 1.313 -3.258 1.313 -6.191 l 0 -3.52 c 0 -1.898 -0.113 -4.605 -1.313 -5.73 c -0.906 -0.754 -1.246 -0.969 -3.125 -1.063 c -0.531 -0.023 -5.168 -0.219 -8.406 -0.219 m -0.125 2 c 2.934 0 5.523 1.648 6.688 4.219 l 1.563 -0.594 l -1.25 4.438 l -4.25 -2.344 l 1.656 -0.656 c -0.793 -1.668 -2.477 -2.719 -4.406 -2.719 c -2 0 -3.84 1.18 -4.563 2.969 l -2.281 -0.844 c 1.082 -2.676 3.844 -4.469 6.844 -4.469 m -7.03 6 l 4.219 2.313 l -1.656 0.594 c 0.781 1.66 2.555 2.75 4.469 2.75 c 2.01 0 3.789 -1.145 4.531 -2.938 l 2.25 0.875 c -1.117 2.676 -3.766 4.406 -6.781 4.406 c -2.914 0 -5.609 -1.695 -6.75 -4.25 l -1.563 0.594 m 1.281 -4.344"
             stroke="none"
             fill-rule="nonzero"
             fill-opacity="1"
             fill="#000"
             id="path43704" />
        </g>
      </g>
    </g>
  </g>
  <g
     id="g43722">
    <g
       clip-path="url(#clipPath-614975223)"
       id="g43720">
      <g
         transform="translate(0,-1)"
         id="g43718">
        <!-- color: #e33a31 -->
        <g
           id="g43716">
          <path
             d="m 24.16 15 c -3.039 0 -7.5 0.176 -8.844 0.219 c -1.461 0.129 -2.01 0.203 -2.813 0.875 c -1.219 1.066 -1.5 3.172 -1.5 6.375 l 0 3.063 c 0 3.66 0.5 5.508 1.313 6.188 c 0.938 0.793 1.563 0.844 2.188 0.938 c 0.242 0.035 1.949 0.355 9.563 0.355 c 4.746 0 8.828 -0.23 9.25 -0.281 c 0.68 -0.086 1.641 -0.195 2.375 -1 c 1.09 -1.219 1.313 -3.258 1.313 -6.191 l 0 -3.52 c 0 -1.898 -0.113 -4.605 -1.313 -5.73 c -0.906 -0.754 -1.246 -0.969 -3.125 -1.063 c -0.531 -0.023 -5.168 -0.219 -8.406 -0.219 m -0.125 2 c 2.934 0 5.523 1.648 6.688 4.219 l 1.563 -0.594 l -1.25 4.438 l -4.25 -2.344 l 1.656 -0.656 c -0.793 -1.668 -2.477 -2.719 -4.406 -2.719 c -2 0 -3.84 1.18 -4.563 2.969 l -2.281 -0.844 c 1.082 -2.676 3.844 -4.469 6.844 -4.469 m -7.03 6 l 4.219 2.313 l -1.656 0.594 c 0.781 1.66 2.555 2.75 4.469 2.75 c 2.01 0 3.789 -1.145 4.531 -2.938 l 2.25 0.875 c -1.117 2.676 -3.766 4.406 -6.781 4.406 c -2.914 0 -5.609 -1.695 -6.75 -4.25 l -1.563 0.594 m 1.281 -4.344"
             fill="#f9f9f9"
             stroke="none"
             fill-rule="nonzero"
             fill-opacity="1"
             id="path43714" />
        </g>
      </g>
    </g>
  </g>
  <g
     id="g43728">
    <g
       transform="translate(0,-1004.3622)"
       id="g43726">
      <path
         d="m 1 1043.36 0 4 c 0 2.216 1.784 4 4 4 l 38 0 c 2.216 0 4 -1.784 4 -4 l 0 -4 c 0 2.216 -1.784 4 -4 4 l -38 0 c -2.216 0 -4 -1.784 -4 -4 z"
         opacity="0.1"
         id="path43724" />
    </g>
  </g>
</svg>
