<svg version="1.1" viewBox="0 0 48 48" xmlns="http://www.w3.org/2000/svg">
 <defs>
  <linearGradient id="bg" x1="1" x2="47" style="" gradientTransform="translate(-48 0)" gradientUnits="userSpaceOnUse">
   <stop style="stop-color:#e1281f" offset="0"/>
   <stop style="stop-color:#e33a31" offset="1"/>
  </linearGradient>
 </defs>
 <path d="m1 43v0.25c0 2.216 1.784 4 4 4h38c2.216 0 4-1.784 4-4v-0.25c0 2.216-1.784 4-4 4h-38c-2.216 0-4-1.784-4-4zm0 0.5v0.5c0 2.216 1.784 4 4 4h38c2.216 0 4-1.784 4-4v-0.5c0 2.216-1.784 4-4 4h-38c-2.216 0-4-1.784-4-4z" style="opacity:.02"/>
 <path d="m1 43.25v0.25c0 2.216 1.784 4 4 4h38c2.216 0 4-1.784 4-4v-0.25c0 2.216-1.784 4-4 4h-38c-2.216 0-4-1.784-4-4z" style="opacity:.05"/>
 <path d="m1 43v0.25c0 2.216 1.784 4 4 4h38c2.216 0 4-1.784 4-4v-0.25c0 2.216-1.784 4-4 4h-38c-2.216 0-4-1.784-4-4z" style="opacity:.1"/>
 <rect transform="rotate(-90)" x="-47" y="1" width="46" height="46" rx="4" style="fill:url(#bg)"/>
 <path d="m1 39v4c0 2.216 1.784 4 4 4h38c2.216 0 4-1.784 4-4v-4c0 2.216-1.784 4-4 4h-38c-2.216 0-4-1.784-4-4z" style="opacity:.1"/>
 <path d="m24 15c-12.7 0-13 0.1-13 9s0.3 9 13 9 13-0.1 13-9-0.3-9-13-9z" style="opacity:.1"/>
 <path d="m24 14c-12.7 0-13 0.1-13 9s0.3 9 13 9 13-0.1 13-9-0.3-9-13-9z" style="fill:#f9f9f9"/>
 <path d="m18 25 6 6 6-6z" style="opacity:.1"/>
 <path d="m21 17v7h-3l6 6 6-6h-3v-7z" style="fill:#e23128"/>
</svg>
