<svg version="1.1" viewBox="0 0 48 48" xmlns="http://www.w3.org/2000/svg">
 <defs>
  <linearGradient id="bg" x1="-47" x2="-1" gradientUnits="userSpaceOnUse">
   <stop style="stop-color:#b1c551" offset="0"/>
   <stop style="stop-color:#b9cb62" offset="1"/>
  </linearGradient>
 </defs>
 <path d="m1 43v0.25c0 2.22 1.78 4 4 4h38c2.22 0 4-1.78 4-4v-0.25c0 2.22-1.78 4-4 4h-38c-2.22 0-4-1.78-4-4zm0 0.5v0.5c0 2.22 1.78 4 4 4h38c2.22 0 4-1.78 4-4v-0.5c0 2.22-1.78 4-4 4h-38c-2.22 0-4-1.78-4-4z" style="opacity:.02"/>
 <path d="m1 43.3v0.25c0 2.22 1.78 4 4 4h38c2.22 0 4-1.78 4-4v-0.25c0 2.22-1.78 4-4 4h-38c-2.22 0-4-1.78-4-4z" style="opacity:.05"/>
 <path d="m1 43v0.25c0 2.22 1.78 4 4 4h38c2.22 0 4-1.78 4-4v-0.25c0 2.22-1.78 4-4 4h-38c-2.22 0-4-1.78-4-4z" style="opacity:.1"/>
 <rect transform="rotate(-90)" x="-47" y="1" width="46" height="46" rx="4" style="fill:url(#bg)"/>
 <path d="m1 39v4c0 2.22 1.78 4 4 4h38c2.22 0 4-1.78 4-4v-4c0 2.22-1.78 4-4 4h-38c-2.22 0-4-1.78-4-4z" style="opacity:.1"/>
 <path d="m14 35v1.06c0 0.493 0.508 0.873 1 0.875l18 0.0625c0.493 0.0017 1-0.508 1-1v-1z" style="opacity:.1"/>
 <path d="m14.9 10c-0.493 0-0.901 0.508-0.9 1l0.025 24.1c5.12e-4 0.493 0.383 0.875 0.875 0.875h18.3c0.493 0 0.8-0.383 0.8-0.875v-19.1l-6-6" style="fill:#f9f9f9"/>
 <path d="m28 10v6h6" style="opacity:.1"/>
 <path d="m34 22v-6h-6" style="opacity:.2"/>
 <path d="m30 20h-4v4h4z" style="fill:#c9a95f"/>
 <path d="m30 28h-4v4h4z" style="fill:#dc6f7f"/>
 <path d="m22 28h-4v4h4z" style="fill:#59a1bb"/>
 <path d="m26 24h-4v4h4z" style="fill:#9dab6e"/>
</svg>
