<svg version="1.1" viewBox="0 0 48 48" xmlns="http://www.w3.org/2000/svg">
 <defs>
  <linearGradient id="bg" x2="0" y1="1" y2="47" gradientUnits="userSpaceOnUse">
   <stop style="stop-color:#2773d3" offset="0"/>
   <stop style="stop-color:#2469c0" offset="1"/>
  </linearGradient>
 </defs>
 <path d="m1 43v0.25c0 2.22 1.78 4 4 4h38c2.22 0 4-1.78 4-4v-0.25c0 2.22-1.78 4-4 4h-38c-2.22 0-4-1.78-4-4zm0 0.5v0.5c0 2.22 1.78 4 4 4h38c2.22 0 4-1.78 4-4v-0.5c0 2.22-1.78 4-4 4h-38c-2.22 0-4-1.78-4-4z" style="opacity:.02"/>
 <path d="m1 43.2v0.25c0 2.22 1.78 4 4 4h38c2.22 0 4-1.78 4-4v-0.25c0 2.22-1.78 4-4 4h-38c-2.22 0-4-1.78-4-4z" style="opacity:.05"/>
 <path d="m1 43v0.25c0 2.22 1.78 4 4 4h38c2.22 0 4-1.78 4-4v-0.25c0 2.22-1.78 4-4 4h-38c-2.22 0-4-1.78-4-4z" style="opacity:.1"/>
 <rect x="1" y="1" width="46" height="46" rx="4" style="fill:url(#bg)"/>
 <path d="m8 0.998v5.5l-0.00195 0.00195v0.5h-7v1l7-0.00195v7h-7v1h7v7h-7v1h7v7h-7v1h7v7l-7-2e-3v1h7v7h1l-2e-3 -5.56 0.0039 0.0039v-1.44h7v7h1v-7h7v7h1v-7h7v7h1v-7l7-0.0039v0.5l2e-3 -2e-3v6.5h1v-7h6v-1h-6l-2e-3 -7h6v-1h-6v-7h6v-1h-6v-7h6v-1h-6l2e-3 -7h6v-1h-6v-6h-1v5.51l-0.0059-0.00586v0.5l-7-0.00391v-6h-1v6h-7v-6h-1v6h-7v-6h-1v6h-7v-1.44l0.0019-4.56h-1zm1 7h7v7h-7zm8 0h7v7h-7zm8 0h7v7h-7zm8 0h7v7h-7zm-24 8h7v7h-7zm8 0h7v7h-7zm8 0h7v7h-7zm8 0h7v7h-7zm-24 8h7v7h-7zm8 0h7v7h-7zm8 0h7v7h-7zm8 0h7v7h-7zm-24 8h7v7h-7zm8 0h7v7h-7zm8 0h7v7h-7zm8 0h7v7h-7z" style="fill:#fff;opacity:.1"/>
 <path d="m1 39v4c0 2.22 1.78 4 4 4h38c2.22 0 4-1.78 4-4v-4c0 2.22-1.78 4-4 4h-38c-2.22 0-4-1.78-4-4z" style="opacity:.1"/>
 <path d="m12 13v18h2v-17h18.6l-2 2-14.6 1v10h2v-9h10.6l-2 2-6.59 1v2h2v-1h2.59l-12.3 12.3c-0.63 0.63-0.191 1.71 0.7 1.71h21c1.11 0 2-0.892 2-2v-1l-20.6 1 2-2h12.6c1.11 0 2-0.892 2-2v-1l-12.6 1 2-2h4.59c1.11 0 2-0.892 2-2v-1l-4.59 1 12.3-12.3c0.63-0.63 0.191-1.71-0.7-1.71z" style="opacity:.1"/>
 <path d="m34 16v17h-21l0.414 2h20.6c1.11 0 2-0.892 2-2v-17zm-4 4v9h-13l0.414 2h12.6c1.11 0 2-0.892 2-2v-9zm-4 4v1h-5l0.414 2h4.59c1.11 0 2-0.892 2-2v-1z" style="fill:#b1d1e7"/>
 <path d="m14 11c-1.11 0-2 0.892-2 2v17h2v-17h18.6l-2 2h-12.6c-1.11 0-2 0.892-2 2v9h2v-9h10.6l-2 2h-4.59c-1.11 0-2 0.892-2 2v1h2v-1h2.59l-12.3 12.3c-0.63 0.63-0.191 1.71 0.699 1.71h0.414l22.3-22.3c0.63-0.63 0.191-1.71-0.699-1.71z" style="fill:#f9f9f9"/>
</svg>
