<svg version="1.1" viewBox="0 0 48 48" xmlns="http://www.w3.org/2000/svg">
 <defs>
  <linearGradient id="bg" x2="0" y1="1" y2="47" gradientUnits="userSpaceOnUse">
   <stop style="stop-color:#f58842" offset="0"/>
   <stop style="stop-color:#f47c2f" offset="1"/>
  </linearGradient>
 </defs>
 <path d="m1 43v0.25c0 2.22 1.78 4 4 4h38c2.22 0 4-1.78 4-4v-0.25c0 2.22-1.78 4-4 4h-38c-2.22 0-4-1.78-4-4zm0 0.5v0.5c0 2.22 1.78 4 4 4h38c2.22 0 4-1.78 4-4v-0.5c0 2.22-1.78 4-4 4h-38c-2.22 0-4-1.78-4-4z" style="opacity:.02"/>
 <path d="m1 43.2v0.25c0 2.22 1.78 4 4 4h38c2.22 0 4-1.78 4-4v-0.25c0 2.22-1.78 4-4 4h-38c-2.22 0-4-1.78-4-4z" style="opacity:.05"/>
 <path d="m1 43v0.25c0 2.22 1.78 4 4 4h38c2.22 0 4-1.78 4-4v-0.25c0 2.22-1.78 4-4 4h-38c-2.22 0-4-1.78-4-4z" style="opacity:.1"/>
 <rect x="1" y="1" width="46" height="46" rx="4" style="fill:url(#bg)"/>
 <path d="m1 39v4c0 2.22 1.78 4 4 4h38c2.22 0 4-1.78 4-4v-4c0 2.22-1.78 4-4 4h-38c-2.22 0-4-1.78-4-4z" style="opacity:.1"/>
 <path d="m12 13v2h11v2.07a9 9 0 0 0-8 8.93 9 9 0 0 0 8 8.93v2.07h2v-2.07a9 9 0 0 0 8-8.93 9 9 0 0 0-8-8.94v-2.06h11v-2zm13 6.08a7 7 0 0 1 6 6.92 7 7 0 0 1-6 6.92zm-2 2e-3v13.8a7 7 0 0 1-6-6.92 7 7 0 0 1 6-6.92z" style="opacity:.1"/>
 <path d="m12 12v2h11v2.07a9 9 0 0 0-8 8.93 9 9 0 0 0 8 8.93v2.07h2v-2.07a9 9 0 0 0 8-8.93 9 9 0 0 0-8-8.94v-2.06h11v-2zm13 6.08a7 7 0 0 1 6 6.92 7 7 0 0 1-6 6.92zm-2 2e-3v13.8a7 7 0 0 1-6-6.92 7 7 0 0 1 6-6.92z" style="fill:#51443e"/>
</svg>
