<svg version="1.1" viewBox="0 0 48 48" xmlns="http://www.w3.org/2000/svg">
 <defs>
  <linearGradient id="bg" x2="0" y1="1" y2="47" gradientUnits="userSpaceOnUse">
   <stop style="stop-color:#bcebdd" offset="0"/>
   <stop style="stop-color:#ade6d5" offset="1"/>
  </linearGradient>
 </defs>
 <path d="m1 43v0.25c0 2.22 1.78 4 4 4h38c2.22 0 4-1.78 4-4v-0.25c0 2.22-1.78 4-4 4h-38c-2.22 0-4-1.78-4-4zm0 0.5v0.5c0 2.22 1.78 4 4 4h38c2.22 0 4-1.78 4-4v-0.5c0 2.22-1.78 4-4 4h-38c-2.22 0-4-1.78-4-4z" style="opacity:.02"/>
 <path d="m1 43.2v0.25c0 2.22 1.78 4 4 4h38c2.22 0 4-1.78 4-4v-0.25c0 2.22-1.78 4-4 4h-38c-2.22 0-4-1.78-4-4z" style="opacity:.05"/>
 <path d="m1 43v0.25c0 2.22 1.78 4 4 4h38c2.22 0 4-1.78 4-4v-0.25c0 2.22-1.78 4-4 4h-38c-2.22 0-4-1.78-4-4z" style="opacity:.1"/>
 <rect x="1" y="1" width="46" height="46" rx="4" style="fill:url(#bg)"/>
 <path d="m1 39v4c0 2.22 1.78 4 4 4h38c2.22 0 4-1.78 4-4v-4c0 2.22-1.78 4-4 4h-38c-2.22 0-4-1.78-4-4z" style="opacity:.1"/>
 <path d="m12 14v15c3.51e-4 0.891 1.08 1.34 1.71 0.707l1-1c0.188-0.188 0.293-0.442 0.293-0.707v-10c5.5e-5 -0.552 0.448-1 1-1h12c0.891 3.5e-4 1.34 1.08 0.707 1.71l-15.4 15.6c-0.63 0.63-0.184 1.71 0.707 1.71h8c0.265-5e-5 0.52-0.105 0.707-0.293l13-13c0.188-0.188 0.293-0.442 0.293-0.707v-8zm22.3 14.3-6 6c-0.63 0.63-0.184 1.71 0.707 1.71h5c1.11 0 2-0.892 2-2v-5z" style="opacity:.1"/>
 <path d="m34.9 27c-0.242 0.0124-0.477 0.112-0.656 0.291l-6 6c-0.63 0.63-0.184 1.71 0.707 1.71h5c1.11 0 2-0.892 2-2v-5c-2.6e-5 -0.404-0.244-0.769-0.617-0.924-0.14-0.058-0.288-0.0817-0.434-0.0742z" style="fill:#10b981"/>
 <path d="m14 11c-1.11 0-2 0.892-2 2v15c3.51e-4 0.891 1.08 1.34 1.71 0.707l1-1c0.188-0.188 0.293-0.442 0.293-0.707v-10c5.5e-5 -0.552 0.448-1 1-1h12c0.891 3.5e-4 1.34 1.08 0.707 1.71l-15.4 15.6c-0.63 0.63-0.184 1.71 0.707 1.71h8c0.265-5e-5 0.52-0.105 0.707-0.293l13-13c0.188-0.188 0.293-0.442 0.293-0.707v-8c0-1.11-0.892-2-2-2z" style="fill:#059669"/>
</svg>
