<svg width="48" height="48" viewBox="0 0 48 48.000001" xmlns="http://www.w3.org/2000/svg">
  <defs>
    <linearGradient id="a" x1="-47" x2="-1" gradientUnits="userSpaceOnUse">
      <stop offset="0" stop-color="#e1874b"/>
      <stop offset="1" stop-color="#e4925c"/>
    </linearGradient>
  </defs>
  <path d="M1 43v.25c0 2.216 1.784 4 4 4h38c2.216 0 4-1.784 4-4V43c0 2.216-1.784 4-4 4H5c-2.216 0-4-1.784-4-4zm0 .5v.5c0 2.216 1.784 4 4 4h38c2.216 0 4-1.784 4-4v-.5c0 2.216-1.784 4-4 4H5c-2.216 0-4-1.784-4-4z" opacity=".02"/>
  <path d="M1 43.25v.25c0 2.216 1.784 4 4 4h38c2.216 0 4-1.784 4-4v-.25c0 2.216-1.784 4-4 4H5c-2.216 0-4-1.784-4-4z" opacity=".05"/>
  <path d="M1 43v.25c0 2.216 1.784 4 4 4h38c2.216 0 4-1.784 4-4V43c0 2.216-1.784 4-4 4H5c-2.216 0-4-1.784-4-4z" opacity=".1"/>
  <rect transform="rotate(-90)" x="-47" y="1" width="46" height="46" rx="4" fill="url(#a)"/>
  <path d="M1 39v4c0 2.216 1.784 4 4 4h38c2.216 0 4-1.784 4-4v-4c0 2.216-1.784 4-4 4H5c-2.216 0-4-1.784-4-4zM24 10a8 8 0 0 0-8 8v3h-1c-1.108 0-2 .892-2 2v13h22V23c0-1.108-.892-2-2-2h-1v-3a8 8 0 0 0-8-8zm0 4a4 4 0 0 1 4 4v3h-8v-3a4 4 0 0 1 4-4zm-3 11h6v2l-3 3h3v2h-6v-2l3-3h-3z" opacity=".1"/>
  <path d="M24 9a8 8 0 0 0-8 8v3h-1c-1.108 0-2 .892-2 2v13h22V22c0-1.108-.89-2-2-2h-1v-3a8 8 0 0 0-8-8zm0 4a4 4 0 0 1 4 4v3h-8v-3a4 4 0 0 1 4-4zm-3 11h6v2l-3 3h3v2h-6v-2l3-3h-3z" fill="#343434"/>
</svg>
