<svg xmlns="http://www.w3.org/2000/svg" viewBox="0 0 256 256" xmlns:xlink="http://www.w3.org/1999/xlink">
<defs>
<clipPath id="clipPath4199" clipPathUnits="userSpaceOnUse">
<path style="opacity:.5;fill:#fff" d="m 144,48 -23.59375,55.0625 -55.59375,-22.25 22.25,55.59375 L 32,160 l 55.0625,23.59375 -22.25,55.59375 55.59375,-22.25 L 144,272 l 23.59375,-55.0625 55.59375,22.25 -22.25,-55.59375 L 256,160 200.9375,136.40625 223.1875,80.8125 167.59375,103.0625 144,48 z m -23.1875,56 46.375,0 32.8125,32.8125 0,46.375 L 167.1875,216 120.8125,216 88,183.1875 88,136.8125 120.8125,104 z"/>
</clipPath>
<linearGradient id="linearGradient3895-9-0-3-2-4-0">
<stop offset="0" style="stop-color:#e4c3a9"/>
<stop offset="1" style="stop-color:#bc5a13"/>
</linearGradient>
<radialGradient cx="148.004" cy="160" gradientTransform="matrix(.97656 0 0 .97656 -16.5349 -236.25)" r="128" id="radialGradient4432" xlink:href="#linearGradient3895-9-0-3-2-4-0" gradientUnits="userSpaceOnUse"/>
</defs>
<g transform="translate(0 208)">
<path style="fill:url(#radialGradient4432);color:#bebebe" d="m 253,-146.40625 0,132.8125 C 253,41.09375 253,45 194.40625,45 L 61.59375,45 C 3,45 3,41.09375 3,-13.59375 l 0,-132.8125 C 3,-201.09375 3,-205 61.59375,-205 l 132.8125,0 C 253,-205 253,-201.09375 253,-146.40625 z"/>
<path style="opacity:.05;fill:#fff" d="m 204.08032,44.993662 c 13.55517,-0.06396 23.34858,-0.435144 30.45654,-2.349786 l -22.55248,-38.664633 -23.92579,41.014419 6.34766,0 c 3.41797,0 6.64139,0.01426 9.67407,0 z m 7.90406,-41.01442 -27.34375,-46.873624 -27.34375,46.873624 54.6875,0 z m 0,0 40.802,0 C 252.95094,-1.20375 253,-7.022538 253,-13.598368 l 0,-5.859203 -13.67187,-23.436811 -27.34375,46.873624 z m 27.34375,-46.873624 -27.34375,-46.873621 -27.34375,46.873621 54.6875,0 z m 0,0 13.67187,0 0,-23.43681 -13.67187,23.43681 z m -54.6875,0 -27.34375,-46.873621 -27.34376,46.873621 54.68751,0 z m -54.68751,0 -27.34374,46.873624 54.6875,0 -27.34376,-46.873624 z m 0,0 -27.34374,-46.873621 -27.34375,46.873621 54.68749,0 z m -54.68749,0 -27.34375,46.873624 54.6875,0 -27.34375,-46.873624 z m 0,0 -27.34375,-46.873621 -27.34376,46.873621 54.68751,0 z m -54.68751,0 L 3,-12.774415 c 0.003,6.226079 0.0559,11.79834402 0.21361,16.753658 l 44.70827,0 -27.34375,-46.873625 z m 0,0 L 3,-73.014348 l 0,30.119966 17.57813,0 z M 47.92188,3.979243 24.91161,43.406793 c 8.52703,1.571634 20.31178,1.586869 36.68214,1.586869 l 10.2539,0 L 47.92188,3.979243 z m 0,-93.747246 L 20.57813,-136.64161 3,-106.52166 l 0,16.753657 44.92188,0 z m 0,0 54.6875,0 -27.34375,-46.873607 -27.34375,46.873607 z m 27.34375,-46.873607 -27.34375,-46.87364 -27.34376,46.87364 54.68751,0 z m 0,0 54.68749,0 -27.34374,-46.87364 -27.34375,46.87364 z m 27.34375,-46.87364 -12.54273,-21.48374 -28.4729,0 c -0.39895,0 -0.7356,-1e-5 -1.12916,0 l -12.54271,21.48374 54.6875,0 z m 0,0 54.6875,0 -12.54273,-21.48374 -29.60205,0 -12.54272,21.48374 z m 54.6875,0 54.6875,0 -12.54273,-21.48374 c -1.67321,-0.002 -3.25633,0 -5.0354,0 l -24.56665,0 -12.54272,21.48374 z m 0,0 -27.34376,46.87364 54.68751,0 -27.34375,-46.87364 z m 27.34375,46.87364 54.6875,0 -27.34375,-46.87364 -27.34375,46.87364 z m 0,0 -27.34375,46.873607 54.6875,0 -27.34375,-46.873607 z m 27.34375,46.873607 41.01562,0 0,-23.436807 -13.67187,-23.4368 -27.34375,46.873607 z m 27.34375,-46.873607 13.67187,0 0,-9.76535 c 0,-4.89463 -0.0402,-9.34683 -0.12207,-13.45786 l -13.5498,23.22321 z m -82.03125,46.873607 -27.34376,-46.873607 -27.34374,46.873607 54.6875,0 z m 54.6875,-93.747247 38.97094,0 c -2.94957,-14.71522 -10.05142,-19.35598 -26.82494,-20.81237 l -12.146,20.81237 z m -164.0625,0 -12.2986,-21.08702 c -19.50933,1.10943 -27.41641,5.311 -30.57861,21.08702 l 42.87721,0 z M 20.57813,-136.64161 3.30517,-166.27332 C 3.07456,-160.53933 3,-153.96515 3,-146.40696 l 0,9.76535 17.57813,0 z m 82.03125,140.620853 -23.92579,41.014419 47.85157,0 -23.92578,-41.01442 z m 54.6875,0 -23.92579,41.014419 47.85157,0 L 157.29688,3.979243 z M 13.83374,39.287042 5.28882,24.639036 c 1.57234,7.028886 4.1916,11.640722 8.54492,14.648006 z"/>
</g>
<g style="fill:#fff;color:#bebebe" transform="matrix(.89286 0 0 .89286 -.57143 -10.39286)">
<path d="m 200,160 c 0,30.92795 -25.07205,56 -56,56 -30.92795,0 -56,-25.07205 -56,-56 0,-30.92795 25.07205,-56 56,-56 30.92795,0 56,25.07205 56,56 z" transform="translate(0 -4)"/>
<path style="line-height:normal;clip-path:url(#clipPath4199)" d="M 144,48 C 82.22702,48 32,98.22702 32,160 32,221.77298 82.22702,272 144,272 205.77298,272 256,221.77298 256,160 256,98.22702 205.77298,48 144,48 z m 0,14 c 54.20682,0 98,43.79318 98,98 0,54.20682 -43.79318,98 -98,98 -54.206819,0 -98,-43.79318 -98,-98 0,-54.20682 43.793181,-98 98,-98 z m 0,6 c -50.750978,0 -92,41.24902 -92,92 0,50.75098 41.249022,92 92,92 50.75098,0 92,-41.24902 92,-92 0,-50.75098 -41.24902,-92 -92,-92 z m 0,10 c 45.34658,0 82,36.65342 82,82 0,45.34658 -36.65342,82 -82,82 -45.346576,0 -82,-36.65342 -82,-82 0,-45.34658 36.653424,-82 82,-82 z m 0,9 c -40.80985,0 -74,33.19015 -74,74 0,40.80985 33.19015,74 74,74 40.80985,0 74,-33.19015 74,-74 0,-40.80985 -33.19015,-74 -74,-74 z m 0,10 c 35.40544,0 64,28.59456 64,64 0,35.40544 -28.59456,64 -64,64 -35.40544,0 -64,-28.59456 -64,-64 0,-35.40544 28.59456,-64 64,-64 z" transform="translate(0 -5)"/>
</g>
</svg>
