<?xml version="1.0" encoding="UTF-8" standalone="no"?>
<svg
   xmlns:dc="http://purl.org/dc/elements/1.1/"
   xmlns:cc="http://creativecommons.org/ns#"
   xmlns:rdf="http://www.w3.org/1999/02/22-rdf-syntax-ns#"
   xmlns:svg="http://www.w3.org/2000/svg"
   xmlns="http://www.w3.org/2000/svg"
   xmlns:xlink="http://www.w3.org/1999/xlink"
   xmlns:sodipodi="http://sodipodi.sourceforge.net/DTD/sodipodi-0.dtd"
   xmlns:inkscape="http://www.inkscape.org/namespaces/inkscape"
   width="48"
   viewBox="0 0 13.546667 13.546667"
   height="48"
   id="svg2"
   version="1.1"
   inkscape:version="0.48.4 r9939"
   sodipodi:docname="weather-clear.svg">
  <metadata
     id="metadata26">
    <rdf:RDF>
      <cc:Work
         rdf:about="">
        <dc:format>image/svg+xml</dc:format>
        <dc:type
           rdf:resource="http://purl.org/dc/dcmitype/StillImage" />
        <dc:title></dc:title>
      </cc:Work>
    </rdf:RDF>
  </metadata>
  <sodipodi:namedview
     pagecolor="#ffffff"
     bordercolor="#666666"
     borderopacity="1"
     objecttolerance="10"
     gridtolerance="10"
     guidetolerance="10"
     inkscape:pageopacity="0"
     inkscape:pageshadow="2"
     inkscape:window-width="1301"
     inkscape:window-height="744"
     id="namedview24"
     showgrid="true"
     inkscape:zoom="10.965"
     inkscape:cx="24.173984"
     inkscape:cy="19.829206"
     inkscape:window-x="65"
     inkscape:window-y="24"
     inkscape:window-maximized="1"
     inkscape:current-layer="svg2">
    <inkscape:grid
       type="xygrid"
       id="grid3837" />
  </sodipodi:namedview>
  <defs
     id="defs4">
    <linearGradient
       id="linearGradient4460">
      <stop
         offset="0"
         style="stop-color:#0191c3"
         id="stop7" />
      <stop
         offset="1"
         style="stop-color:#01bdfe"
         id="stop9" />
    </linearGradient>
    <linearGradient
       gradientTransform="matrix(1.10525,0,0,1.10525,-134.27874,-295.76183)"
       xlink:href="#linearGradient4460"
       id="linearGradient3842"
       y1="279.096"
       y2="268.33"
       gradientUnits="userSpaceOnUse"
       x2="0" />
    <clipPath
       id="clipPath3797">
      <rect
         id="rect3799"
         style="fill:#ff0"
         height="208.571"
         y="1580.934"
         x="-830"
         width="477.143" />
    </clipPath>
    <clipPath
       id="clipPath3793">
      <rect
         id="rect3795"
         style="fill:#ff0"
         height="208.571"
         y="1580.934"
         x="-830"
         width="477.143" />
    </clipPath>
    <clipPath
       id="clipPath3789">
      <rect
         id="rect3791"
         style="fill:#ff0"
         height="208.571"
         y="1580.934"
         x="-830"
         width="477.143" />
    </clipPath>
    <clipPath
       id="clipPath3785">
      <rect
         id="rect3787"
         style="fill:#ff0"
         height="208.571"
         y="1580.934"
         x="-830"
         width="477.143" />
    </clipPath>
    <clipPath
       id="clipPath3781">
      <rect
         id="rect3783"
         style="fill:#ff0"
         height="208.571"
         y="1580.934"
         x="-830"
         width="477.143" />
    </clipPath>
    <clipPath
       id="clipPath3777">
      <rect
         id="rect3779"
         style="fill:#ff0"
         height="208.571"
         y="1580.934"
         x="-830"
         width="477.143" />
    </clipPath>
    <linearGradient
       inkscape:collect="always"
       xlink:href="#linearGradient4460"
       id="linearGradient3823"
       gradientUnits="userSpaceOnUse"
       gradientTransform="matrix(1.10525,0,0,1.10525,-134.27874,-295.76183)"
       y1="279.096"
       x2="0"
       y2="268.33" />
  </defs>
  <rect
     id="rect14"
     style="opacity:0.5;fill:#ffffff;fill-rule:evenodd"
     height="12.982"
     rx="6.4910002"
     y="0.28200001"
     x="0.28200001"
     width="12.982" />
  <rect
     id="rect16"
     style="fill:url(#linearGradient3823);fill-rule:evenodd"
     height="11.853"
     rx="5.9260001"
     y="0.847"
     x="0.847"
     width="11.853" />
  <path
     inkscape:connector-curvature="0"
     style="fill:#ffcb47;fill-opacity:1"
     d="m 5.9431901,2.540008 c -0.126501,1.047577 -0.730589,1.2941789 -1.557732,0.6416136 0.28402,1.0162451 -0.180025,1.473674 -1.19393,1.187316 0.6513,0.8301988 0.398083,1.4276736 -0.648228,1.5511174 0.919426,0.5177623 0.916118,1.1689507 -0.0033,1.6834111 1.047578,0.1265023 1.294178,0.7305875 0.641614,1.5577372 1.016246,-0.2840248 1.47367,0.1800119 1.187316,1.1939247 0.8302,-0.6513078 1.427668,-0.398091 1.55112,0.648228 0.517757,-0.919457 1.168944,-0.916112 1.683409,0.0033 0.126478,-1.0475791 0.730568,-1.2941701 1.557719,-0.641603 C 8.8771461,9.3488003 9.3411931,8.8913792 10.355108,9.1777318 9.7038011,8.3474949 9.9570261,7.750045 11.003343,7.6265906 10.083902,7.1088155 10.087223,6.4576399 11.006654,5.9431743 9.9590511,5.816675 9.7124701,5.2125951 10.365032,4.3854422 9.3487711,4.6694699 8.8913651,4.2054263 9.1777171,3.1915118 8.3475071,3.842825 7.7500531,3.5896011 7.6265991,2.5432836 7.1088381,3.4627072 6.4576441,3.459402 5.9431901,2.5399816 z"
     id="path3801" />
  <path
     sodipodi:type="arc"
     style="fill:#f9f9f9;fill-opacity:1;stroke:none"
     id="path3827"
     sodipodi:cx="24.842806"
     sodipodi:cy="24.73114"
     sodipodi:rx="2.8926554"
     sodipodi:ry="5.7427716"
     d="m 27.735461,24.73114 a 2.8926554,5.7427716 0 1 1 -5.785311,0 2.8926554,5.7427716 0 1 1 5.785311,0 z"
     transform="matrix(0.29269532,0,0,0.24571953,0.91307164,-0.43247955)" />
  <path
     transform="matrix(0.29269532,0,0,0.24571953,-1.9091507,-0.43247955)"
     d="m 27.735461,24.73114 a 2.8926554,5.7427716 0 1 1 -5.785311,0 2.8926554,5.7427716 0 1 1 5.785311,0 z"
     sodipodi:ry="5.7427716"
     sodipodi:rx="2.8926554"
     sodipodi:cy="24.73114"
     sodipodi:cx="24.842806"
     id="path3831"
     style="fill:#f9f9f9;fill-opacity:1;stroke:none"
     sodipodi:type="arc" />
  <path
     transform="matrix(0.19513021,0,0,0.09828781,3.3368627,3.7781195)"
     d="m 27.735461,24.73114 a 2.8926554,5.7427716 0 1 1 -5.785311,0 2.8926554,5.7427716 0 1 1 5.785311,0 z"
     sodipodi:ry="5.7427716"
     sodipodi:rx="2.8926554"
     sodipodi:cy="24.73114"
     sodipodi:cx="24.842806"
     id="path3833"
     style="fill:#2d2d2d;fill-opacity:1;stroke:none"
     sodipodi:type="arc" />
  <path
     sodipodi:type="arc"
     style="fill:#2d2d2d;fill-opacity:1;stroke:none"
     id="path3835"
     sodipodi:cx="24.842806"
     sodipodi:cy="24.73114"
     sodipodi:rx="2.8926554"
     sodipodi:ry="5.7427716"
     d="m 27.735461,24.73114 a 2.8926554,5.7427716 0 1 1 -5.785311,0 2.8926554,5.7427716 0 1 1 5.785311,0 z"
     transform="matrix(0.19513021,0,0,0.09828781,0.51464024,3.7781195)" />
  <path
     style="fill:#d02a00;fill-opacity:1;stroke:none"
     d="m 5.0800001,7.9022226 c 0.8466667,0.5644445 2.5400001,0.5644445 3.3866668,0 -0.2822222,1.9755553 -3.1044445,1.9755553 -3.3866668,0 z"
     id="path3839"
     inkscape:connector-curvature="0"
     sodipodi:nodetypes="ccc" />
</svg>
