<?xml version="1.0" encoding="UTF-8" standalone="no"?>
<svg
   xmlns:dc="http://purl.org/dc/elements/1.1/"
   xmlns:cc="http://creativecommons.org/ns#"
   xmlns:rdf="http://www.w3.org/1999/02/22-rdf-syntax-ns#"
   xmlns:svg="http://www.w3.org/2000/svg"
   xmlns="http://www.w3.org/2000/svg"
   xmlns:xlink="http://www.w3.org/1999/xlink"
   xmlns:sodipodi="http://sodipodi.sourceforge.net/DTD/sodipodi-0.dtd"
   xmlns:inkscape="http://www.inkscape.org/namespaces/inkscape"
   width="48"
   viewBox="0 0 13.546667 13.546667"
   height="48"
   id="svg2"
   version="1.1"
   inkscape:version="0.48.4 r9939"
   sodipodi:docname="liveusb-creator.svg">
  <metadata
     id="metadata26">
    <rdf:RDF>
      <cc:Work
         rdf:about="">
        <dc:format>image/svg+xml</dc:format>
        <dc:type
           rdf:resource="http://purl.org/dc/dcmitype/StillImage" />
      </cc:Work>
    </rdf:RDF>
  </metadata>
  <sodipodi:namedview
     pagecolor="#ffffff"
     bordercolor="#666666"
     borderopacity="1"
     objecttolerance="10"
     gridtolerance="10"
     guidetolerance="10"
     inkscape:pageopacity="0"
     inkscape:pageshadow="2"
     inkscape:window-width="1366"
     inkscape:window-height="742"
     id="namedview24"
     showgrid="true"
     inkscape:zoom="78.72"
     inkscape:cx="26.445858"
     inkscape:cy="31.597986"
     inkscape:window-x="0"
     inkscape:window-y="26"
     inkscape:window-maximized="1"
     inkscape:current-layer="svg2">
    <inkscape:grid
       type="xygrid"
       id="grid2991" />
  </sodipodi:namedview>
  <defs
     id="defs4">
    <linearGradient
       gradientTransform="matrix(1.10525 0 0 1.10525 -134.27874 -295.76183)"
       xlink:href="#linearGradient4460-6"
       id="linearGradient3007"
       y1="279.096"
       y2="268.33"
       gradientUnits="userSpaceOnUse"
       x2="0" />
    <linearGradient
       id="linearGradient4460-6">
      <stop
         offset="0"
         style="stop-color:#002f56"
         id="stop8" />
      <stop
         offset="1"
         style="stop-color:#005092"
         id="stop10" />
    </linearGradient>
  </defs>
  <g
     style="fill-rule:evenodd"
     id="g12">
    <rect
       width="12.982"
       x=".282"
       y=".283"
       rx="6.491"
       height="12.982"
       style="opacity:.5;fill:#fff"
       id="rect14" />
    <rect
       width="11.853"
       x=".847"
       y=".847"
       rx="5.926"
       height="11.853"
       style="fill:url(#linearGradient3007)"
       id="rect16" />
  </g>
  <g
     style="fill:#f9f9f9"
     id="g18">
    <path
       d="M 18.8125,11 C 17.80704,11 17,11.651832 17,12.46875 l 0,19.8125 c 0,0.816942 0.80704,1.46875 1.8125,1.46875 l 10.375,0 C 30.192963,33.75 31,33.098192 31,32.28125 l 0,-19.8125 C 31,11.651832 30.192963,11 29.1875,11 z m 8.40625,4 c 0.351383,0 0.580981,0.04451 0.90625,0.125 0.474289,0.117439 0.874839,0.478494 0.875,0.90625 0,0.517097 -0.406769,0.90625 -1,0.90625 -0.282345,0 -0.367621,-0.0625 -0.78125,-0.0625 -1.221084,0 -2.216609,0.97026 -2.21875,2.12515 l 1.97e-4,1.755693 c 1.9e-5,0.163169 0.08391,0.244323 0.312303,0.244323 l 1.4375,0 c 0.541826,0 1,0.485919 1,0.999834 2.95e-4,0.517061 -0.452324,1.000182 -1,1.000182 l -1.749803,-2e-6 0,2.000015 C 25.000197,27.190782 23.097357,29 20.78125,29 20.429864,29 20.200271,28.955486 19.875,28.875 19.40071,28.757561 19.000162,28.396653 19,27.96875 c 0,-0.517061 0.406926,-0.968537 1.000158,-0.968537 0.282345,0 0.367462,0 0.781092,0 1.221081,0 2.216608,-0.81411 2.21875,-1.968963 l 1.82e-4,-1.710873 c 3.2e-5,-0.30291 -0.140038,-0.320195 -0.312682,-0.320195 l -1.4375,0 c -0.935632,0 -1.249842,-0.48613 -1.249842,-1.000008 -2.95e-4,-0.516988 0.399572,-1.000008 1.237139,-1.000008 l 1.762885,0 0,-2.000016 C 23.000182,16.809565 24.902643,15 27.21875,15 z"
       transform="scale(0.28222,0.28222)"
       id="path20"
       inkscape:connector-curvature="0"
       sodipodi:nodetypes="ssssssssssccsscssscscssccsscssscscss" />
    <path
       d="m 5.3622479,9.2946466 0,1.1465194 2.8222273,0 0,-1.1465194 z m 0.2822228,0.3009092 0.5644456,0 0,0.5644442 -0.5644456,0 z m 1.6933369,0 0.5644456,0 0,0.5644442 -0.5644456,0 z"
       id="path22"
       inkscape:connector-curvature="0"
       sodipodi:nodetypes="ccccccccccccccc" />
  </g>
</svg>
