<?xml version="1.0" encoding="UTF-8" standalone="no"?>
<svg
   xmlns:dc="http://purl.org/dc/elements/1.1/"
   xmlns:cc="http://creativecommons.org/ns#"
   xmlns:rdf="http://www.w3.org/1999/02/22-rdf-syntax-ns#"
   xmlns:svg="http://www.w3.org/2000/svg"
   xmlns="http://www.w3.org/2000/svg"
   xmlns:xlink="http://www.w3.org/1999/xlink"
   xmlns:sodipodi="http://sodipodi.sourceforge.net/DTD/sodipodi-0.dtd"
   xmlns:inkscape="http://www.inkscape.org/namespaces/inkscape"
   viewBox="0 0 48 48"
   id="svg2"
   version="1.1"
   inkscape:version="0.48.4 r9939"
   width="100%"
   height="100%"
   sodipodi:docname="vala.svg">
  <metadata
     id="metadata28">
    <rdf:RDF>
      <cc:Work
         rdf:about="">
        <dc:format>image/svg+xml</dc:format>
        <dc:type
           rdf:resource="http://purl.org/dc/dcmitype/StillImage" />
      </cc:Work>
    </rdf:RDF>
  </metadata>
  <sodipodi:namedview
     pagecolor="#ffffff"
     bordercolor="#666666"
     borderopacity="1"
     objecttolerance="10"
     gridtolerance="10"
     guidetolerance="10"
     inkscape:pageopacity="0"
     inkscape:pageshadow="2"
     inkscape:window-width="1024"
     inkscape:window-height="713"
     id="namedview26"
     showgrid="true"
     inkscape:zoom="13.906433"
     inkscape:cx="17.762129"
     inkscape:cy="23.274265"
     inkscape:window-x="0"
     inkscape:window-y="0"
     inkscape:window-maximized="1"
     inkscape:current-layer="svg2">
    <inkscape:grid
       type="xygrid"
       id="grid3816" />
  </sodipodi:namedview>
  <defs
     id="defs4">
    <linearGradient
       id="linearGradient3788">
      <stop
         offset="0"
         id="stop7" />
      <stop
         offset="1"
         style="stop-color:#5a5e60"
         id="stop9" />
    </linearGradient>
    <linearGradient
       xlink:href="#linearGradient3788"
       id="linearGradient3801"
       y1="1053.158"
       y2="1004.847"
       x2="0"
       gradientUnits="userSpaceOnUse" />
    <linearGradient
       gradientTransform="matrix(1.10528,0,0,1.10528,-134.28255,-295.77052)"
       xlink:href="#linearGradient4460"
       id="linearGradient3005"
       y1="279.09601"
       y2="268.32999"
       gradientUnits="userSpaceOnUse"
       x2="0" />
    <linearGradient
       id="linearGradient4460">
      <stop
         offset="0"
         style="stop-color:#2d2d2d"
         id="stop7-1" />
      <stop
         offset="1"
         style="stop-color:#4b4b4b"
         id="stop9-5" />
    </linearGradient>
    <linearGradient
       y2="268.32999"
       x2="0"
       y1="279.09601"
       gradientTransform="matrix(1.10528,0,0,1.10528,-134.28255,-295.77052)"
       gradientUnits="userSpaceOnUse"
       id="linearGradient3023"
       xlink:href="#linearGradient4460"
       inkscape:collect="always" />
    <linearGradient
       inkscape:collect="always"
       xlink:href="#linearGradient3788"
       id="linearGradient3033"
       gradientUnits="userSpaceOnUse"
       gradientTransform="matrix(3.9163464,0,0,3.9163464,-475.80351,-1048.0042)"
       y1="279.09601"
       x2="0"
       y2="268.32999" />
    <linearGradient
       inkscape:collect="always"
       xlink:href="#linearGradient3788"
       id="linearGradient3804"
       gradientUnits="userSpaceOnUse"
       y1="1053.158"
       x2="0"
       y2="1004.847" />
    <linearGradient
       inkscape:collect="always"
       xlink:href="#linearGradient3788"
       id="linearGradient3808"
       gradientUnits="userSpaceOnUse"
       y1="1053.158"
       x2="0"
       y2="1004.847"
       gradientTransform="translate(0,-1004.3622)" />
  </defs>
  <rect
     id="rect14-7"
     style="opacity:0.5;fill:#ffffff;fill-rule:evenodd"
     height="45.999214"
     rx="22.999607"
     y="1.0007873"
     x="1"
     width="45.999214" />
  <rect
     id="rect16"
     style="fill:url(#linearGradient3033);fill-rule:evenodd;fill-opacity:1.0"
     height="41.998817"
     rx="20.997637"
     y="3.0027556"
     x="3.0019684"
     width="41.998817" />
  <g
     style="fill:#ffffff"
     transform="matrix(0.10374152,0,0,0.1051294,-82.852169,-5.1216805)"
     id="g18">
    <path
       d="m 1120,172.375 c -19.9074,0 -30.0085,6.86014 -37.9375,16.375 -7.929,9.51486 -12.6778,22.19932 -18.125,33.09375 -3.6584,7.31672 -11.8314,34.52043 -19.3437,60.1875 -3.7563,12.83354 -7.5144,25.58818 -11.0313,36.21875 -3.5169,10.63057 -6.1855,18.55944 -10.25,24.65625 -6.7068,10.06015 -17.4792,15.71875 -28.3125,15.71875 -3.81807,0 -7.62238,-0.7118 -11.25,-2.0625 12.85674,17.86293 42.553,46.84642 77.2188,-1.4375 24.0406,-33.48477 32.063,-105.60081 49.0312,-132.75 21.5774,-34.52381 32.4275,-26.35902 35,-23.46875 0.4837,-2.8262 0.7529,-5.78099 0.625,-8.59375 -0.237,-5.21349 -1.5675,-9.17047 -4.6562,-12.125 -3.089,-2.95453 -8.8855,-5.8125 -20.9688,-5.8125 z"
       id="path20"
       inkscape:connector-curvature="0" />
    <path
       d="m 957.90625,202.8125 c 5.1243,5.80292 9.24193,13.14365 11.71875,21.8125 5.53562,19.37467 6.59645,43.45215 7.84375,64.65625 0.62365,10.60205 1.25958,20.45201 2.28125,28.1875 1.02167,7.73549 2.98262,13.47392 3.5625,14.34375 3.29323,4.93985 7.52083,6.8125 11.6875,6.8125 4.16667,0 8.3943,-1.87265 11.6875,-6.8125 0.8657,-1.29848 4.0014,-8.51468 7.125,-17.625 -5.2739,-2.21079 -12.9077,-14.57419 -18.8125,-61.8125 -3.40819,-27.26551 -23.34238,-42.31329 -37.09375,-49.5625 z"
       id="path22"
       inkscape:connector-curvature="0" />
    <path
       d="m 926.375,207.65625 c -2.54696,0.0216 -4.67425,0.72437 -6.375,1.90625 -2.26767,1.57584 -4.23786,4.11468 -5.125,9.4375 l -0.5625,-0.0937 c 0.36118,14.53289 9.96875,24.15625 9.96875,24.15625 0,0 0,-10 10,-15 5.39359,-2.69679 12.11862,1.68476 17.1875,6.28125 -0.34044,-1.44951 -0.71052,-2.87746 -1.09375,-4.21875 -4.06698,-14.23445 -13.7801,-21.06067 -21.3125,-22.25 -0.94155,-0.14866 -1.83851,-0.22597 -2.6875,-0.21875 z"
       id="path24"
       inkscape:connector-curvature="0" />
  </g>
</svg>
