<svg width="48" xmlns="http://www.w3.org/2000/svg" viewBox="0 0 13.546667 13.546667" height="48" xmlns:xlink="http://www.w3.org/1999/xlink">
<defs>
<clipPath clipPathUnits="userSpaceOnUse">
<rect width="22" x="433" y="77" rx="4" height="22" style="color:#bebebe"/>
</clipPath>
<clipPath clipPathUnits="userSpaceOnUse">
<rect width="22" x="433" y="77" rx="5" height="22" style="color:#bebebe"/>
</clipPath>
<clipPath clipPathUnits="userSpaceOnUse">
<rect width="60" x="306" y="142" rx="12.5" height="60" style="fill:url(#linearGradient4863);color:#bebebe" transform="matrix(0 -1 1 0 0 0)"/>
</clipPath>
<clipPath clipPathUnits="userSpaceOnUse">
<rect width="90" x="307" y="31" rx="18.75" height="90" style="fill:url(#linearGradient4825);color:#bebebe"/>
</clipPath>
<clipPath clipPathUnits="userSpaceOnUse">
<rect width="30" x="433" y="29" rx="6" height="30" style="color:#bebebe"/>
</clipPath>
<clipPath clipPathUnits="userSpaceOnUse">
<rect width="42" x="307" y="223" rx="9" height="42" style="fill:url(#linearGradient4895);color:#bebebe" transform="rotate(90)"/>
</clipPath>
<clipPath clipPathUnits="userSpaceOnUse">
<rect width="240" x="24" y="36" rx="50" height="240" style="fill:#986767;color:#bebebe"/>
</clipPath>
<clipPath clipPathUnits="userSpaceOnUse">
<rect width="20" x="434" y="78" rx="4" height="20" style="color:#bebebe"/>
</clipPath>
<clipPath clipPathUnits="userSpaceOnUse">
<rect width="16" x="432" y="116" rx="3" height="16" style="color:#bebebe"/>
</clipPath>
<clipPath clipPathUnits="userSpaceOnUse">
<rect width="22" x="433" y="77" rx="3" height="22" style="opacity:.2;fill:#6d6d6d;color:#bebebe"/>
</clipPath>
<clipPath clipPathUnits="userSpaceOnUse">
<rect width="30" x="433" y="29" rx="4" height="30" style="opacity:.2;fill:#6d6d6d;color:#bebebe"/>
</clipPath>
<clipPath clipPathUnits="userSpaceOnUse">
<rect width="16" x="432" y="116" rx="2" height="16" style="opacity:.2;fill:#6d6d6d;color:#bebebe"/>
</clipPath>
<linearGradient gradientTransform="matrix(.375 0 0 .375 298 16)" id="linearGradient4825" xlink:href="#outerBackgroundGradient" y1="230" y2="90" x2="0" gradientUnits="userSpaceOnUse"/>
<linearGradient id="linearGradient4460">
<stop offset="0" style="stop-color:#e4c9ce"/>
<stop offset="1" style="stop-color:#f2dbde"/>
</linearGradient>
<linearGradient id="outerBackgroundGradient">
<stop offset="0" style="stop-color:#e3c8cd"/>
<stop offset="1" style="stop-color:#f2dbde"/>
</linearGradient>
<linearGradient gradientTransform="matrix(1.10526 0 0 1.10526 -134.28026 -295.76492)" xlink:href="#linearGradient4460" id="linearGradient3001" y1="279.096" y2="268.33" gradientUnits="userSpaceOnUse" x2="0"/>
<linearGradient gradientTransform="matrix(.25 0 0 .25 299.99999 131.99999)" id="linearGradient4863" xlink:href="#outerBackgroundGradient" y1="230" y2="90" x2="0" gradientUnits="userSpaceOnUse"/>
<linearGradient gradientTransform="matrix(.175 0 0 .175 302.79999 215.99997)" id="linearGradient4895" xlink:href="#outerBackgroundGradient" y1="280" y2="40" x2="0" gradientUnits="userSpaceOnUse"/>
</defs>
<g style="fill-rule:evenodd">
<rect width="12.982" x=".282" y=".282" rx="6.491" height="12.982" style="opacity:.5;fill:#fff"/>
<rect width="11.853" x=".847" y=".847" rx="5.926" height="11.853" style="fill:url(#linearGradient3001)"/>
</g>
<g transform="matrix(.28222 0 0 .28222 27.16241 -39.04624)">
<path style="fill:#ee4d48" d="m -71.399059,149.3528 c -2.432559,7.79651 -3.572738,5.66899 -8.771558,1.94714 3.088576,7.72487 2.611179,6.44599 -3.500756,5.99412 5.286395,3.99802 4.343568,5.35671 -1.573374,8.32306 6.096292,0.0431 8.219965,-0.4184 5.506808,5.3069 5.553965,-2.82578 4.897883,-2.85242 6.568835,4.42878 2.697507,-7.31679 2.602246,-6.56772 8.260211,-3.05433 -2.155421,-5.92477 -2.262633,-6.08558 4.877459,-4.5815 -6.048508,-5.10712 -4.761523,-5.47138 0.786687,-9.01028 -7.852814,0.28502 -6.91181,-0.27086 -4.680788,-6.60499 -6.429142,4.94386 -5.933496,3.36641 -7.473524,-2.7489 z"/>
<path style="fill:#ff6f80" d="m -78.797194,156.3528 c 2.726194,5.32566 0.90154,6.46981 -3.447553,9.33971 6.283854,-0.0591 7.107723,0.36218 7.885781,6.66029 2.661757,-5.30538 3.462549,-6.68094 9.114219,-5.16747 -3.581682,-3.81715 -4.381643,-5.38057 -2.615384,-10.3732 -4.437504,2.87738 -6.437532,2.10436 -10.937063,-0.45933 z"/>
<path style="fill:#ffb3cd" d="m -72.642007,158.3528 c 1.592979,2.54325 1.671843,2.57418 4.39726,3.5862 -2.724363,1.17965 -2.28668,1.15876 -2.09589,4.21675 -2.215702,-1.84211 -2.923499,-1.5597 -5.342465,0.19705 1.167375,-3.13659 0.966171,-3.2948 -1.561645,-5.24138 3.02504,-0.10023 3.454711,-0.0547 4.60274,-2.75862 z"/>
</g>
</svg>
