<?xml version="1.0" encoding="UTF-8" standalone="no"?>
<svg
   xmlns:dc="http://purl.org/dc/elements/1.1/"
   xmlns:cc="http://creativecommons.org/ns#"
   xmlns:rdf="http://www.w3.org/1999/02/22-rdf-syntax-ns#"
   xmlns:svg="http://www.w3.org/2000/svg"
   xmlns="http://www.w3.org/2000/svg"
   xmlns:sodipodi="http://sodipodi.sourceforge.net/DTD/sodipodi-0.dtd"
   xmlns:inkscape="http://www.inkscape.org/namespaces/inkscape"
   viewBox="0 0 48 48"
   id="svg2"
   version="1.1"
   inkscape:version="0.48.5 r10040"
   width="100%"
   height="100%"
   sodipodi:docname="abrowser.svg">
  <metadata
     id="metadata61">
    <rdf:RDF>
      <cc:Work
         rdf:about="">
        <dc:format>image/svg+xml</dc:format>
        <dc:type
           rdf:resource="http://purl.org/dc/dcmitype/StillImage" />
        <dc:title />
      </cc:Work>
    </rdf:RDF>
  </metadata>
  <sodipodi:namedview
     pagecolor="#ffffff"
     bordercolor="#666666"
     borderopacity="1"
     objecttolerance="10"
     gridtolerance="10"
     guidetolerance="10"
     inkscape:pageopacity="0"
     inkscape:pageshadow="2"
     inkscape:window-width="1366"
     inkscape:window-height="713"
     id="namedview59"
     showgrid="false"
     inkscape:zoom="8"
     inkscape:cx="14.490104"
     inkscape:cy="23.063605"
     inkscape:window-x="0"
     inkscape:window-y="28"
     inkscape:window-maximized="1"
     inkscape:current-layer="svg2">
    <inkscape:grid
       type="xygrid"
       id="grid3845" />
  </sodipodi:namedview>
  <defs
     id="defs4">
    <linearGradient
       id="linearGradient3764"
       x1="1"
       x2="47"
       gradientUnits="userSpaceOnUse"
       gradientTransform="matrix(0,-1,1,0,-1.5e-6,47.999998)">
      <stop
         stop-color="#1e94ca"
         stop-opacity="1"
         id="stop7"
         offset="0"
         style="stop-color:#2481e4;stop-opacity:1;" />
      <stop
         offset="1"
         stop-color="#20a0db"
         stop-opacity="1"
         id="stop9"
         style="stop-color:#368be6;stop-opacity:1;" />
    </linearGradient>
    <clipPath
       id="clipPath-305689015">
      <g
         transform="translate(0,-1004.3622)"
         id="g12">
        <path
           d="m -24 13 c 0 1.105 -0.672 2 -1.5 2 -0.828 0 -1.5 -0.895 -1.5 -2 0 -1.105 0.672 -2 1.5 -2 0.828 0 1.5 0.895 1.5 2 z"
           transform="matrix(15.333333,0,0,11.5,414.99999,878.8622)"
           fill="#1890d0"
           id="path14" />
      </g>
    </clipPath>
    <clipPath
       id="clipPath-314453158">
      <g
         transform="translate(0,-1004.3622)"
         id="g17">
        <path
           d="m -24 13 c 0 1.105 -0.672 2 -1.5 2 -0.828 0 -1.5 -0.895 -1.5 -2 0 -1.105 0.672 -2 1.5 -2 0.828 0 1.5 0.895 1.5 2 z"
           transform="matrix(15.333333,0,0,11.5,414.99999,878.8622)"
           fill="#1890d0"
           id="path19" />
      </g>
    </clipPath>
  </defs>
  <g
     id="g21">
    <path
       d="m 36.31 5 c 5.859 4.062 9.688 10.831 9.688 18.5 c 0 12.426 -10.07 22.5 -22.5 22.5 c -7.669 0 -14.438 -3.828 -18.5 -9.688 c 1.037 1.822 2.306 3.499 3.781 4.969 c 4.085 3.712 9.514 5.969 15.469 5.969 c 12.703 0 23 -10.298 23 -23 c 0 -5.954 -2.256 -11.384 -5.969 -15.469 c -1.469 -1.475 -3.147 -2.744 -4.969 -3.781 z m 4.969 3.781 c 3.854 4.113 6.219 9.637 6.219 15.719 c 0 12.703 -10.297 23 -23 23 c -6.081 0 -11.606 -2.364 -15.719 -6.219 c 4.16 4.144 9.883 6.719 16.219 6.719 c 12.703 0 23 -10.298 23 -23 c 0 -6.335 -2.575 -12.06 -6.719 -16.219 z"
       opacity="0.05"
       id="path23" />
    <path
       d="m 41.28 8.781 c 3.712 4.085 5.969 9.514 5.969 15.469 c 0 12.703 -10.297 23 -23 23 c -5.954 0 -11.384 -2.256 -15.469 -5.969 c 4.113 3.854 9.637 6.219 15.719 6.219 c 12.703 0 23 -10.298 23 -23 c 0 -6.081 -2.364 -11.606 -6.219 -15.719 z"
       opacity="0.1"
       id="path25" />
    <path
       d="m 31.25 2.375 c 8.615 3.154 14.75 11.417 14.75 21.13 c 0 12.426 -10.07 22.5 -22.5 22.5 c -9.708 0 -17.971 -6.135 -21.12 -14.75 a 23 23 0 0 0 44.875 -7 a 23 23 0 0 0 -16 -21.875 z"
       opacity="0.2"
       id="path27" />
  </g>
  <g
     id="g29">
    <path
       d="m 24 1 c 12.703 0 23 10.297 23 23 c 0 12.703 -10.297 23 -23 23 -12.703 0 -23 -10.297 -23 -23 0 -12.703 10.297 -23 23 -23 z"
       fill="url(#linearGradient3764)"
       fill-opacity="1"
       id="path31" />
  </g>
  <g
     id="g33" />
  <g
     id="g35">
    <g
       clip-path="url(#clipPath-305689015)"
       id="g37">
      <g
         transform="translate(1,1)"
         id="g39">
        <g
           id="g41"
           opacity="0.1">
          <!-- color: #20a0db -->
          <g
             id="g43">
            <path
               d="m 16 1.906 l -0.84 0.25 l -0.969 0.066 l -0.598 0.434 l -0.777 -0.031 l 0.063 0.5 l 1.125 -0.031 l 0.406 1.094 l 0.156 0.598 l -0.625 0.344 l -0.25 0.465 l 0.188 1.063 l 0.75 0.125 l 0.719 -0.688 l 0.625 -0.656 l 0.969 -0.25 l 1.219 -0.594 l 0.719 -0.875 l 1.031 -1.254 l 0.719 -0.188 l -0.031 -0.277 l -1.125 0 l -3.469 -0.094 m -2.219 0.063 l -0.813 0.035 l -1.406 0.375 l -0.813 0.25 l -0.938 -0.375 l -0.125 0.563 l 1.121 0.656 c 0 0 2.047 -1.129 2.16 -1.129 m 21.871 -0.152 l -0.188 0.316 l 1.156 0.148 l 0.063 -0.27 m -9.906 0 c -0.055 0.02 -1.531 0.023 -1.531 0.023 l -0.375 0.098 l 0.5 0.598 l 0.531 -0.5 l 0.344 0.219 l 0.5 -0.25 c 0 0 0.09 -0.211 0.031 -0.188 m 5.625 0.465 l -0.465 0.063 l -0.41 0.25 l -0.465 0.348 l -0.281 0.5 l 0.438 0.438 l 0.375 0.031 l 0.156 -0.254 l -0.375 -0.313 l 0.219 -0.188 l 0.031 -0.152 l 0.469 -0.313 c 0 0 0.609 0.008 0.652 0 c 0.047 -0.012 0.191 -0.191 0.191 -0.191 l -0.156 -0.223 m -26.25 0.188 l -0.094 0.316 l 0.469 0.156 l 0.531 -0.25 m 30.875 -0.125 l -2.129 0.094 l -0.563 0.375 l -0.621 0.375 l -0.531 0.438 l 0.063 0.188 l -0.281 0.031 l 0 0.004 l -4.086 0.68 l -3.578 2.691 l -0.375 0.281 l -0.031 0 l -0.254 -0.094 c 0 0 -0.152 0.008 -0.219 0.066 c -0.063 0.051 -0.121 0.102 -0.313 0.121 c -0.191 0.02 -0.563 0 -0.594 0 l -0.219 0 l 0.031 -0.227 l 0.156 -0.25 l -0.281 -0.223 c 0 0 -0.188 0.23 -0.191 0.281 c -0.008 0.055 0.125 0.281 0.125 0.281 c 0 0 -0.063 0.18 -0.094 0.219 c -0.031 0.039 -0.316 0.125 -0.316 0.125 l -0.434 -0.219 c 0 0 -0.18 -0.039 -0.156 0.063 c 0.023 0.102 0.223 0.195 0.223 0.281 c 0 0.082 -0.125 0.277 -0.125 0.277 l -0.152 0.188 l -0.254 0.254 l -0.344 0.09 c 0 0 -0.246 0.07 -0.316 0.094 c -0.063 0.023 -0.25 0.066 -0.25 0.066 l -0.254 0.031 l -0.152 0.223 l 0.277 0.191 l 0.188 0.309 c 0 0 0.125 0.223 0.156 0.223 c 0.031 0 0.094 0.219 0.094 0.219 l -0.188 0.25 l -0.098 0 l -0.656 0.125 l -0.121 -0.281 l -0.438 0.438 l -0.188 0.719 l 0 0.598 l 0.75 0.406 l 0.598 -0.219 l 0.594 -1.066 l 0.531 -0.652 l 0.969 -0.156 l 0.219 -0.188 l 1.094 1.281 l 0.125 0.438 l 0.316 -0.156 l -0.098 -0.375 l 0.191 0 l -0.121 -0.254 l -1.066 -1 l 0.094 -0.188 l 0.344 -0.031 l 0.75 0.75 l 0.379 0.441 l 0 0.688 l 0.188 0.125 l 0.375 0.375 l 0.277 -0.094 l -0.152 -0.566 l 0.094 -0.344 l 0.188 -0.219 l 0.438 0.156 l 0.156 0.063 l -0.031 -0.5 l 0.25 -0.469 l 0.156 -0.688 l 0.563 0.094 l 0.094 0.313 l 0.219 0.156 l 0.25 -0.219 l -0.156 -0.344 l 0.656 0 l -0.219 0.375 l 0.438 0.375 l 0.375 0.188 l 0.219 0.438 l -0.5 0.121 l -0.719 -0.156 l -0.625 0 l -0.594 0.316 l -0.125 0.188 l -0.434 0.094 l 0.188 0.469 l 0.344 0.406 l 0.621 -0.219 l 0.156 0.277 l 0.281 -0.219 l 0.375 0.063 l 0.031 0.41 l -0.125 0.777 l -0.344 -0.031 l -0.406 -0.063 l -0.188 0.465 l -1.375 -0.25 l -0.25 -0.316 l -0.313 0.281 l -0.344 0.469 l -0.875 -0.5 l -0.875 -0.527 l 0 -0.941 l -0.566 0.031 l -0.031 0.313 l -1.375 -0.063 l -0.434 0.402 l -0.844 0.031 l -0.566 0.5 l -0.344 0.969 l -0.875 0.691 l -0.625 0.844 l -0.031 1.625 l -0.188 0.5 l -0.066 0.598 l 0.379 0.652 l 0.219 0.625 l 0.75 0.906 l 0.441 0.375 l 0.434 0.094 l 0.094 -0.375 l 1.563 0 l 0.406 -0.188 l 0.5 0.063 l 0.156 0.313 l 0.531 0.031 l 0.344 0.25 l 0 0.531 l -0.125 0.438 l -0.121 0.344 l 0.309 0.566 l 0.41 0.469 l 0.188 1.188 l 0.031 0.777 l -0.281 0.656 l -0.031 0.625 l 0.219 1.156 l 0.188 0.188 l 0.281 1.094 l 0.031 0.469 l 0.563 0.75 l 0.066 0.594 l 0.09 0.688 l 0.344 -0.344 l 0.875 -0.09 l 0.535 0 l 0.965 -1.5 l 0.066 -0.594 l 0.656 -0.656 l 0.027 -0.75 l 0.348 -0.754 l 0.813 -0.777 l 0 -0.875 l -0.188 -0.813 l -0.125 -1.125 l 0.598 -0.938 l 1.066 -1.313 l 0.398 -0.406 l 0.156 -0.531 l 0.25 -0.469 l 0.066 -0.691 l -0.598 0 l -0.277 0.281 l -0.563 -0.156 l -0.344 -0.563 l -0.281 -0.563 l -0.656 -0.5 l -0.156 -0.813 l -0.281 -0.473 l -0.309 -0.594 l -0.41 -0.719 l -0.09 -0.469 l 0.434 -0.063 l 0.254 0.531 l 0.5 0.938 l 0.375 0.688 l 0.406 0.75 l 0.438 0.723 l 0.594 0.598 l 0.531 -0.5 l 0.605 -0.156 l 0.434 -0.531 l 0.594 -0.344 l 0.344 -0.594 l 0.035 -0.5 l -0.281 -0.316 l -0.375 -0.438 l -0.254 0.156 l -0.152 0.254 l -0.41 -0.188 l -0.125 -0.313 l -0.277 -0.41 l -0.438 -0.406 l 0 -0.813 l 0.281 0.531 l 0.344 0.535 l 0.594 0.344 l 0.41 -0.094 l 0.25 0.281 l 1.781 -0.035 l -0.031 0.035 l 0.563 0.5 l 0.41 0.563 l 0.121 0.277 l 0.281 0 l 0.094 -0.309 l 0.09 0.465 l 0.156 0.844 l 0.344 0.813 l 0.188 0.688 l 0.281 0.656 l 0.219 0.277 l 0.313 -0.188 l 0.09 -0.313 l 0.125 -0.777 l -0.031 -0.688 l 0.25 -0.316 c 0 0 0.266 -0.359 0.313 -0.375 c 0.051 -0.012 0.625 -0.652 0.625 -0.652 l 0.281 -0.348 l 0.313 -0.188 l 0.383 -0.219 l 0.145 0 l 0.066 0.344 l 0.156 0.406 l 0.5 0.652 l 0 0.25 l 0.09 0.281 l 0.344 -0.156 l -0.031 -0.375 l 0.316 0.066 l 0.063 0.344 l -0.027 0.531 l 0.094 0.375 l 0.277 0.066 l 0.094 -0.316 l 0.344 0.219 l 0.063 0.316 l 0.313 0.469 l 0.313 0.344 l 0.219 0.191 l 0.531 -0.469 l 0.219 -0.441 l -0.09 -0.5 l -0.094 -0.656 l -0.594 -0.563 l -0.094 -0.566 l 0.254 -0.398 c 0 0 0.156 -0.32 0.309 -0.156 c 0.152 0.168 0.227 0.188 0.156 0.375 c -0.066 0.184 -0.188 0.598 -0.188 0.598 l 0.375 0.156 l 0.156 -0.531 l -0.156 -0.379 l 0.379 -0.156 l 0.688 -0.344 l 0.434 -0.531 l 0.344 -0.809 l -0.031 -0.598 l -0.344 -0.777 l -0.688 -0.816 l -0.438 -0.402 l -0.219 -0.625 l 0.406 -0.098 c 0 0 0.234 -0.398 0.438 -0.188 c 0.203 0.219 0.5 0.531 0.5 0.531 c 0 0 0.355 0.563 0.406 0.625 c 0.051 0.063 0.418 0.402 0.469 0.469 c 0.051 0.063 0.281 0.313 0.281 0.313 l 0.375 -0.527 l 0.09 -0.098 l 0 -0.188 l -0.531 -0.316 l -0.465 -0.434 l 0.344 -0.754 l 0.563 -0.277 l 0.09 -0.254 l 0 -1.469 l -0.277 -0.563 l -0.313 -0.438 c 0 0 -0.324 -0.047 -0.406 -0.031 c -0.086 0.016 -0.781 -0.5 -0.781 -0.5 l 0.066 -0.5 l 0.254 -0.438 l 1.188 -0.152 l 0.277 0.031 l 0 -0.313 l -1.719 -2.25 l -1.652 -0.188 l -1.285 -0.316 c 0 0 -0.387 0.297 -0.594 0.316 c -0.203 0.016 -0.906 0.125 -0.906 0.125 l -0.719 -0.441 l -1.5 -0.125 l -0.066 -0.031 l -1.285 -0.063 l -0.773 -0.438 m -11.734 4.895 l 3.578 -2.703 l -1.219 0.656 l -0.313 -0.223 l -0.152 -0.25 l 0.063 -0.254 l 0.691 0.035 l 0.313 -0.125 l -0.625 -0.313 l -0.875 -0.316 l -0.875 -0.156 l -0.938 0.191 l -0.969 0.781 l -0.438 0.438 l -0.652 0.719 l -0.258 0.031 l -0.09 0.344 l 0.121 0.344 c 0 0 0.137 0.156 0.156 0.156 c 0.02 0 0.254 -0.125 0.254 -0.125 c 0 0 0.023 -0.117 0.156 -0.156 c 0.129 -0.039 0.25 -0.063 0.25 -0.063 l 0.188 0.375 l 0.223 0.313 l 0.094 0.25 c 0 0 0.363 -0.223 0.375 -0.25 c 0.012 -0.031 0.031 -0.41 0.031 -0.41 l 0.277 -0.188 c 0 0 0.074 -0.133 0.066 -0.156 c -0.008 -0.02 -0.191 -0.219 -0.191 -0.219 l -0.152 -0.063 l 0.063 -0.316 c 0 0 0.121 -0.051 0.121 -0.094 c 0 -0.039 0.191 -0.188 0.191 -0.188 l 0.223 -0.277 l 0.156 -0.188 l 0.219 -0.156 l 0.25 0.188 l 0 0.125 l -0.219 0.25 l -0.066 0.25 l 0 0.344 l 0.191 0.156 l 0.344 -0.031 l 0.313 -0.063 l 0.277 0.156 l -0.063 0.219 c 0 0 -0.195 0.188 -0.258 0.219 c -0.055 0.031 -0.406 -0.063 -0.492 -0.031 c -0.094 0.031 -0.316 0.316 -0.316 0.316 c 0 0 -0.027 0.25 0 0.313 c 0.008 0.023 -0.004 0.07 -0.016 0.129 m 3.566 -2.68 l 4.09 -0.695 l -0.031 -0.156 l -0.313 -0.438 l -0.656 -0.063 c 0 0 0.156 0.664 0.156 0.75 c 0 0.082 -0.434 0.027 -0.434 0.027 l -0.75 0.035 c 0 0 -1.086 0.25 -1.223 0.25 c -0.129 0 -0.762 0.262 -0.809 0.281 l -0.027 0.004 m -25.05 -1.824 l -0.5 0.566 l 0.437 0.219 l 0.566 -0.254 l 0.031 0.625 l 0.469 0.316 l 0.5 -0.473 l 0.688 0.125 l 0.281 -0.652 l -1.125 -0.098 m 1.781 -0.277 l 0.438 1.094 l -0.531 0.063 l -0.406 0.5 l -0.91 -0.277 l -0.809 0.313 l -0.781 -0.188 l -0.906 -0.566 l -1.25 0.031 l -1.098 0.469 l -0.719 -0.344 l -0.434 -0.031 l 0 13.594 l 0.844 0.469 l 0.5 -0.066 l 0.719 0.344 l 1.094 0.598 l 0.156 0.723 l 0.875 0.84 l 0.5 -0.375 l 0.406 0.316 l -0.063 -0.723 l -0.781 0.191 l -0.25 -0.906 l -0.094 -0.41 l -0.691 -0.621 l 0 -0.438 l 0.531 -0.566 l -0.344 -0.402 l -0.563 0.09 l -0.844 0.844 l -0.688 -0.09 c 0 0 -0.313 -0.531 -0.375 -0.656 c -0.063 -0.125 0.188 -0.563 0.188 -0.563 l -0.063 -1.285 l 0.719 -0.5 l 0.563 -0.191 l 0.813 0 l 1.121 -0.25 l 0.41 0.531 l -0.066 0.625 l 0.469 0.406 l 0.066 -0.441 c 0 0 -0.031 -0.719 -0.094 -0.906 c -0.063 -0.188 0.563 -0.625 0.563 -0.625 l 0.5 -0.613 l 0.594 -0.727 l 0.281 -0.563 l 0.941 -0.496 l 0.621 -0.691 c 0 0 0.938 -0.148 1.125 -0.254 c 0.191 -0.09 0.066 -0.434 -0.125 -0.75 c -0.191 -0.313 0.094 -0.625 0.094 -0.625 l 0.719 -0.434 l 0.621 0.121 l 0.066 0.754 c 0 0 0.586 0.563 0.777 0.465 c 0.191 -0.09 0.281 -0.406 0.281 -0.406 l -0.313 -0.813 l 0.188 -0.809 l -0.844 0.121 l 0 -1.375 l -0.25 0.254 l -0.656 0.031 l -0.094 -0.688 l -0.434 -0.531 c 0 0 -0.43 0.25 -0.844 0.406 c -0.414 0.156 -0.313 0.469 -0.313 0.469 l -0.031 0.844 l -0.688 0.563 l -0.438 0.656 c 0 0 -0.277 -0.188 -0.277 -0.313 c 0 -0.125 -0.066 -0.469 -0.066 -0.469 l -0.719 -0.563 c 0 0 -0.563 -0.406 -0.594 -0.531 c -0.031 -0.125 0.344 -0.688 0.344 -0.688 c 0 0 0.809 -0.5 1 -0.656 c 0.191 -0.156 1.215 0.344 1.34 0.254 c 0.129 -0.094 0.625 -0.875 0.625 -0.875 l 0.438 -0.598 l -0.438 0.5 l -0.75 -0.719 l 0.125 -0.719 l -1.031 -0.156 m 2.508 0.035 l -0.254 0.625 l 0.156 0.344 l 0.566 -0.066 l 0.25 0.469 l -0.5 0.531 l -0.563 0.063 l 0.5 0.223 l 0.531 0.465 l 0.527 0.125 l 0.191 -0.719 l 0.031 -0.438 l 0.625 0.094 c 0 0 -0.191 0.313 -0.098 0.313 c 0.102 0 0.473 -0.406 0.473 -0.406 l -1.066 -1.098 c 0 0 -0.438 -0.344 -0.563 -0.25 c -0.133 0.09 -0.473 0.063 -0.473 0.063 l -0.344 -0.344 m 8.691 1.789 l -0.125 0.41 c 0.449 0.348 0.625 0.344 0.625 0.344 l 0.527 -0.125 l 0.348 -0.344 l -0.223 -0.281 l -1.152 0 m 2.777 1.781 l -0.25 0.219 c -0.063 0.305 -0.152 0.621 -0.152 0.621 l 0.473 0.223 l 0.063 0.277 l -0.254 0.254 l -0.219 0.375 l 0.156 0.156 l 0.563 -0.094 l 0.5 -0.219 l -0.277 -0.375 l -0.094 -0.656 l -0.344 -0.375 m -0.934 0.777 l -0.281 0.469 l 0.375 0.156 l 0.156 -0.281 m -15.691 0.754 l 0.656 0.277 l 0.438 0.566 l 0.277 0.434 c 0 0 -0.246 0.844 -0.313 1 c -0.066 0.156 -0.258 -0.313 -0.258 -0.313 l -0.148 -0.813 l -0.531 0.223 l -0.406 0.965 l 0.09 -0.809 l 0.125 -0.566 l -0.656 -0.25 l 0.566 -0.531 l 0.156 -0.188 m 26.383 0.754 c 0.133 -0.043 0.375 0.156 0.375 0.156 l -0.254 0.219 l 0.094 0.313 l 0.281 0.75 l 0.277 0.469 l 0.379 0.594 l -0.41 0.191 l -0.531 -0.344 l -0.219 -0.656 c 0 0 -0.301 -0.406 -0.441 -0.469 c -0.133 -0.066 -0.25 -0.281 -0.25 -0.281 l 0.125 -0.531 c 0 0 0.43 -0.359 0.566 -0.406 m -7.898 1.184 l -0.375 0.719 l 0.277 0.281 l 0.254 -0.223 l 0.031 -0.309 m -1.441 0.281 l 0 0.188 l 0.156 -0.031 m 2 0.313 l -0.188 0.063 l 0.313 0.531 l 0.281 -0.219 m -20.531 3.813 l -0.313 0.156 l 0.527 0.281 l 0.602 0.121 l 0.344 0.469 l 0.406 -0.25 l -0.066 -0.281 l -0.688 -0.5 l -0.813 0 m 1.684 3.098 l -0.813 0.441 l -0.094 0.902 l -0.188 1 l -0.563 0.75 l 0.027 1.121 l 0.473 1.156 l 0.5 1.406 l 1.313 1.313 l 0.063 0.75 l 0.09 3.379 l 0.469 1.906 c 0 0 0.289 1.102 0.219 1.191 c -0.066 0.086 0.379 0.902 0.379 0.902 l 0.875 1.375 l 1.219 0.531 l -0.5 -0.598 l -0.254 -0.688 l 0.254 -0.719 l -0.656 -0.344 c 0 0 0.438 -0.285 0.5 -0.375 c 0.066 -0.09 -0.094 -0.469 -0.094 -0.469 l -0.188 -0.469 l 0.5 -0.652 l 0.781 -0.191 l 0.121 -0.598 l -0.465 -0.219 l 0.188 -0.5 l 0.75 -0.09 l 0.656 -1.598 l 0.469 -1.094 l 0.965 -0.469 c 0 0 0.313 -0.93 0.313 -1.066 c 0 -0.129 0.094 -1.531 0.094 -1.531 l 0.75 -1.027 l 0.098 -0.688 l -0.566 -0.344 l -0.465 -0.566 l -0.844 0.066 l -1.348 -0.781 l -0.277 -0.656 c 0 0 -0.473 -0.809 -0.566 -0.809 c -0.09 0 -0.656 0.031 -0.656 0.031 l -0.527 -0.531 l -0.348 -0.656 l -1.344 -0.281 l -0.434 -0.219 l -0.875 0 m 36.434 0.496 c 0.113 0.129 0.816 2.219 0.91 2.219 c 0.086 0 0.621 0.066 0.621 0.066 l -0.281 -0.844 m -4.84 -1.375 l -0.313 0.406 l 0.156 0.598 l 0.344 -0.375 l -0.066 -0.473 m 7.969 0.563 l -1.469 0.813 c 0 0.09 -0.719 0.688 -0.719 0.688 l 0.188 0.625 l 0.406 0.465 l 0.281 0.691 l 1.875 -1.223 l -0.566 -2.063 m -4.586 0.441 l -0.438 0.063 l 2 3 l 0.531 0.594 l 1.309 0.066 l 0.813 0.254 l -0.875 -0.625 l -1.25 -0.348 l -0.313 -1.152 l -0.688 -0.566 l -1.094 -1.281 m -10.496 4.867 l 0 0.441 c -0.02 0.063 -0.406 0.375 -0.406 0.375 l -0.469 0.219 l -0.344 0.281 l 0.25 0.344 l 0.156 0.156 l -0.406 0.344 l 0 0.563 l 0.156 0.594 l 0.344 0.094 l 0.406 -0.625 l 0.254 -0.406 l -0.066 -0.5 l 0.375 -0.594 l 0.125 -0.281 l 0 -0.563 l -0.09 -0.438 m 15.777 0.719 c -0.004 0 -0.031 0.031 -0.031 0.031 l -0.5 1.031 c 0 0 -1.102 0.164 -1.129 0.254 c -0.02 0.086 -0.563 0.375 -0.563 0.375 c -0.113 0 -0.469 0.656 -0.469 0.656 l -0.066 2.063 l -0.125 0.75 l 0.316 0.406 l 1.527 -0.531 l 0.5 -0.563 l 0.531 0 l 0 -4.469 m -36.527 8.746 l -0.219 0.152 l -0.094 0.031 l 0.5 0.25 l -0.191 -0.434 m -0.844 0.184 l -0.219 0.5 l 0.434 -0.094 l -0.219 -0.406 m 1.504 4.125 l -0.469 0.719 l -0.875 0.406 l 0.5 0.625 l -0.754 0.375 l -2.469 -0.125 l -0.75 -0.75 l -0.656 -0.125 l 0.656 1.375 l -1.156 -0.219 l -3.969 0.125 l -0.844 1.094 l -1.219 -0.125 l -0.121 0.254 l 0 4.09 l 45.28 0 l 2.719 -1.777 l 0 -1.906 l -0.125 -1.191 l -0.965 -0.219 l -1.219 0.156 l -0.879 0.777 l -1.473 0.598 l 0.625 -0.754 l 1.344 -0.777 l 2.156 -0.5 l 0.25 -0.875 l -1 0 c 0 0 -1.34 -0.668 -1.34 -0.844 c 0 -0.176 -1.5 -0.125 -1.5 -0.125 l -1.719 0.188 l -1.656 -0.09 l -3.313 0.125 l -3.063 0.621 c 0 0 -1.477 0.793 -1.656 0.754 c -0.18 -0.043 0.625 -1.031 0.625 -1.031 l -1.438 0.094 l -0.906 -0.75 l -0.906 0.617 c 0 0 -1.215 0.098 -1.527 0.098 c -0.316 0 -0.723 0.563 -0.723 0.563 l -2.469 -0.09 l -4.25 0.188 l -1.121 0.965 l -0.277 0.035 l -3.223 -0.223 l -2.219 0.223 l -0.777 -0.379 l 0.031 -0.063 c 0 0 -0.656 -1.32 -0.656 -1.5 c 0 -0.176 -0.5 -0.621 -0.5 -0.621 m 0.336 3.188 l 1.344 0.438 l -1.652 0 l -0.656 -0.344 m 0.969 -0.094"
               id="path45"
               stroke="none"
               fill-rule="nonzero"
               fill-opacity="1"
               fill="#000" />
          </g>
        </g>
      </g>
    </g>
  </g>
  <g
     id="g47">
    <g
       clip-path="url(#clipPath-314453158)"
       id="g49">
      <!-- color: #20a0db -->
      <g
         id="g51">
        <path
           d="m 16 1.906 l -0.84 0.25 l -0.969 0.066 l -0.598 0.434 l -0.777 -0.031 l 0.063 0.5 l 1.125 -0.031 l 0.406 1.094 l 0.156 0.598 l -0.625 0.344 l -0.25 0.465 l 0.188 1.063 l 0.75 0.125 l 0.719 -0.688 l 0.625 -0.656 l 0.969 -0.25 l 1.219 -0.594 l 0.719 -0.875 l 1.031 -1.254 l 0.719 -0.188 l -0.031 -0.277 l -1.125 0 l -3.469 -0.094 m -2.219 0.063 l -0.813 0.035 l -1.406 0.375 l -0.813 0.25 l -0.938 -0.375 l -0.125 0.563 l 1.121 0.656 c 0 0 2.047 -1.129 2.16 -1.129 m 21.871 -0.152 l -0.188 0.316 l 1.156 0.148 l 0.063 -0.27 m -9.906 0 c -0.055 0.02 -1.531 0.023 -1.531 0.023 l -0.375 0.098 l 0.5 0.598 l 0.531 -0.5 l 0.344 0.219 l 0.5 -0.25 c 0 0 0.09 -0.211 0.031 -0.188 m 5.625 0.465 l -0.465 0.063 l -0.41 0.25 l -0.465 0.348 l -0.281 0.5 l 0.438 0.438 l 0.375 0.031 l 0.156 -0.254 l -0.375 -0.313 l 0.219 -0.188 l 0.031 -0.152 l 0.469 -0.313 c 0 0 0.609 0.008 0.652 0 c 0.047 -0.012 0.191 -0.191 0.191 -0.191 l -0.156 -0.223 m -26.25 0.188 l -0.094 0.316 l 0.469 0.156 l 0.531 -0.25 m 30.875 -0.125 l -2.129 0.094 l -0.563 0.375 l -0.621 0.375 l -0.531 0.438 l 0.063 0.188 l -0.281 0.031 l 0 0.004 l -4.086 0.68 l -3.578 2.691 l -0.375 0.281 l -0.031 0 l -0.254 -0.094 c 0 0 -0.152 0.008 -0.219 0.066 c -0.063 0.051 -0.121 0.102 -0.313 0.121 c -0.191 0.02 -0.563 0 -0.594 0 l -0.219 0 l 0.031 -0.227 l 0.156 -0.25 l -0.281 -0.223 c 0 0 -0.188 0.23 -0.191 0.281 c -0.008 0.055 0.125 0.281 0.125 0.281 c 0 0 -0.063 0.18 -0.094 0.219 c -0.031 0.039 -0.316 0.125 -0.316 0.125 l -0.434 -0.219 c 0 0 -0.18 -0.039 -0.156 0.063 c 0.023 0.102 0.223 0.195 0.223 0.281 c 0 0.082 -0.125 0.277 -0.125 0.277 l -0.152 0.188 l -0.254 0.254 l -0.344 0.09 c 0 0 -0.246 0.07 -0.316 0.094 c -0.063 0.023 -0.25 0.066 -0.25 0.066 l -0.254 0.031 l -0.152 0.223 l 0.277 0.191 l 0.188 0.309 c 0 0 0.125 0.223 0.156 0.223 c 0.031 0 0.094 0.219 0.094 0.219 l -0.188 0.25 l -0.098 0 l -0.656 0.125 l -0.121 -0.281 l -0.438 0.438 l -0.188 0.719 l 0 0.598 l 0.75 0.406 l 0.598 -0.219 l 0.594 -1.066 l 0.531 -0.652 l 0.969 -0.156 l 0.219 -0.188 l 1.094 1.281 l 0.125 0.438 l 0.316 -0.156 l -0.098 -0.375 l 0.191 0 l -0.121 -0.254 l -1.066 -1 l 0.094 -0.188 l 0.344 -0.031 l 0.75 0.75 l 0.379 0.441 l 0 0.688 l 0.188 0.125 l 0.375 0.375 l 0.277 -0.094 l -0.152 -0.566 l 0.094 -0.344 l 0.188 -0.219 l 0.438 0.156 l 0.156 0.063 l -0.031 -0.5 l 0.25 -0.469 l 0.156 -0.688 l 0.563 0.094 l 0.094 0.313 l 0.219 0.156 l 0.25 -0.219 l -0.156 -0.344 l 0.656 0 l -0.219 0.375 l 0.438 0.375 l 0.375 0.188 l 0.219 0.438 l -0.5 0.121 l -0.719 -0.156 l -0.625 0 l -0.594 0.316 l -0.125 0.188 l -0.434 0.094 l 0.188 0.469 l 0.344 0.406 l 0.621 -0.219 l 0.156 0.277 l 0.281 -0.219 l 0.375 0.063 l 0.031 0.41 l -0.125 0.777 l -0.344 -0.031 l -0.406 -0.063 l -0.188 0.465 l -1.375 -0.25 l -0.25 -0.316 l -0.313 0.281 l -0.344 0.469 l -0.875 -0.5 l -0.875 -0.527 l 0 -0.941 l -0.566 0.031 l -0.031 0.313 l -1.375 -0.063 l -0.434 0.402 l -0.844 0.031 l -0.566 0.5 l -0.344 0.969 l -0.875 0.691 l -0.625 0.844 l -0.031 1.625 l -0.188 0.5 l -0.066 0.598 l 0.379 0.652 l 0.219 0.625 l 0.75 0.906 l 0.441 0.375 l 0.434 0.094 l 0.094 -0.375 l 1.563 0 l 0.406 -0.188 l 0.5 0.063 l 0.156 0.313 l 0.531 0.031 l 0.344 0.25 l 0 0.531 l -0.125 0.438 l -0.121 0.344 l 0.309 0.566 l 0.41 0.469 l 0.188 1.188 l 0.031 0.777 l -0.281 0.656 l -0.031 0.625 l 0.219 1.156 l 0.188 0.188 l 0.281 1.094 l 0.031 0.469 l 0.563 0.75 l 0.066 0.594 l 0.09 0.688 l 0.344 -0.344 l 0.875 -0.09 l 0.535 0 l 0.965 -1.5 l 0.066 -0.594 l 0.656 -0.656 l 0.027 -0.75 l 0.348 -0.754 l 0.813 -0.777 l 0 -0.875 l -0.188 -0.813 l -0.125 -1.125 l 0.598 -0.938 l 1.066 -1.313 l 0.398 -0.406 l 0.156 -0.531 l 0.25 -0.469 l 0.066 -0.691 l -0.598 0 l -0.277 0.281 l -0.563 -0.156 l -0.344 -0.563 l -0.281 -0.563 l -0.656 -0.5 l -0.156 -0.813 l -0.281 -0.473 l -0.309 -0.594 l -0.41 -0.719 l -0.09 -0.469 l 0.434 -0.063 l 0.254 0.531 l 0.5 0.938 l 0.375 0.688 l 0.406 0.75 l 0.438 0.723 l 0.594 0.598 l 0.531 -0.5 l 0.605 -0.156 l 0.434 -0.531 l 0.594 -0.344 l 0.344 -0.594 l 0.035 -0.5 l -0.281 -0.316 l -0.375 -0.438 l -0.254 0.156 l -0.152 0.254 l -0.41 -0.188 l -0.125 -0.313 l -0.277 -0.41 l -0.438 -0.406 l 0 -0.813 l 0.281 0.531 l 0.344 0.535 l 0.594 0.344 l 0.41 -0.094 l 0.25 0.281 l 1.781 -0.035 l -0.031 0.035 l 0.563 0.5 l 0.41 0.563 l 0.121 0.277 l 0.281 0 l 0.094 -0.309 l 0.09 0.465 l 0.156 0.844 l 0.344 0.813 l 0.188 0.688 l 0.281 0.656 l 0.219 0.277 l 0.313 -0.188 l 0.09 -0.313 l 0.125 -0.777 l -0.031 -0.688 l 0.25 -0.316 c 0 0 0.266 -0.359 0.313 -0.375 c 0.051 -0.012 0.625 -0.652 0.625 -0.652 l 0.281 -0.348 l 0.313 -0.188 l 0.383 -0.219 l 0.145 0 l 0.066 0.344 l 0.156 0.406 l 0.5 0.652 l 0 0.25 l 0.09 0.281 l 0.344 -0.156 l -0.031 -0.375 l 0.316 0.066 l 0.063 0.344 l -0.027 0.531 l 0.094 0.375 l 0.277 0.066 l 0.094 -0.316 l 0.344 0.219 l 0.063 0.316 l 0.313 0.469 l 0.313 0.344 l 0.219 0.191 l 0.531 -0.469 l 0.219 -0.441 l -0.09 -0.5 l -0.094 -0.656 l -0.594 -0.563 l -0.094 -0.566 l 0.254 -0.398 c 0 0 0.156 -0.32 0.309 -0.156 c 0.152 0.168 0.227 0.188 0.156 0.375 c -0.066 0.184 -0.188 0.598 -0.188 0.598 l 0.375 0.156 l 0.156 -0.531 l -0.156 -0.379 l 0.379 -0.156 l 0.688 -0.344 l 0.434 -0.531 l 0.344 -0.809 l -0.031 -0.598 l -0.344 -0.777 l -0.688 -0.816 l -0.438 -0.402 l -0.219 -0.625 l 0.406 -0.098 c 0 0 0.234 -0.398 0.438 -0.188 c 0.203 0.219 0.5 0.531 0.5 0.531 c 0 0 0.355 0.563 0.406 0.625 c 0.051 0.063 0.418 0.402 0.469 0.469 c 0.051 0.063 0.281 0.313 0.281 0.313 l 0.375 -0.527 l 0.09 -0.098 l 0 -0.188 l -0.531 -0.316 l -0.465 -0.434 l 0.344 -0.754 l 0.563 -0.277 l 0.09 -0.254 l 0 -1.469 l -0.277 -0.563 l -0.313 -0.438 c 0 0 -0.324 -0.047 -0.406 -0.031 c -0.086 0.016 -0.781 -0.5 -0.781 -0.5 l 0.066 -0.5 l 0.254 -0.438 l 1.188 -0.152 l 0.277 0.031 l 0 -0.313 l -1.719 -2.25 l -1.652 -0.188 l -1.285 -0.316 c 0 0 -0.387 0.297 -0.594 0.316 c -0.203 0.016 -0.906 0.125 -0.906 0.125 l -0.719 -0.441 l -1.5 -0.125 l -0.066 -0.031 l -1.285 -0.063 l -0.773 -0.438 m -11.734 4.895 l 3.578 -2.703 l -1.219 0.656 l -0.313 -0.223 l -0.152 -0.25 l 0.063 -0.254 l 0.691 0.035 l 0.313 -0.125 l -0.625 -0.313 l -0.875 -0.316 l -0.875 -0.156 l -0.938 0.191 l -0.969 0.781 l -0.438 0.438 l -0.652 0.719 l -0.258 0.031 l -0.09 0.344 l 0.121 0.344 c 0 0 0.137 0.156 0.156 0.156 c 0.02 0 0.254 -0.125 0.254 -0.125 c 0 0 0.023 -0.117 0.156 -0.156 c 0.129 -0.039 0.25 -0.063 0.25 -0.063 l 0.188 0.375 l 0.223 0.313 l 0.094 0.25 c 0 0 0.363 -0.223 0.375 -0.25 c 0.012 -0.031 0.031 -0.41 0.031 -0.41 l 0.277 -0.188 c 0 0 0.074 -0.133 0.066 -0.156 c -0.008 -0.02 -0.191 -0.219 -0.191 -0.219 l -0.152 -0.063 l 0.063 -0.316 c 0 0 0.121 -0.051 0.121 -0.094 c 0 -0.039 0.191 -0.188 0.191 -0.188 l 0.223 -0.277 l 0.156 -0.188 l 0.219 -0.156 l 0.25 0.188 l 0 0.125 l -0.219 0.25 l -0.066 0.25 l 0 0.344 l 0.191 0.156 l 0.344 -0.031 l 0.313 -0.063 l 0.277 0.156 l -0.063 0.219 c 0 0 -0.195 0.188 -0.258 0.219 c -0.055 0.031 -0.406 -0.063 -0.492 -0.031 c -0.094 0.031 -0.316 0.316 -0.316 0.316 c 0 0 -0.027 0.25 0 0.313 c 0.008 0.023 -0.004 0.07 -0.016 0.129 m 3.566 -2.68 l 4.09 -0.695 l -0.031 -0.156 l -0.313 -0.438 l -0.656 -0.063 c 0 0 0.156 0.664 0.156 0.75 c 0 0.082 -0.434 0.027 -0.434 0.027 l -0.75 0.035 c 0 0 -1.086 0.25 -1.223 0.25 c -0.129 0 -0.762 0.262 -0.809 0.281 l -0.027 0.004 m -25.05 -1.824 l -0.5 0.566 l 0.437 0.219 l 0.566 -0.254 l 0.031 0.625 l 0.469 0.316 l 0.5 -0.473 l 0.688 0.125 l 0.281 -0.652 l -1.125 -0.098 m 1.781 -0.277 l 0.438 1.094 l -0.531 0.063 l -0.406 0.5 l -0.91 -0.277 l -0.809 0.313 l -0.781 -0.188 l -0.906 -0.566 l -1.25 0.031 l -1.098 0.469 l -0.719 -0.344 l -0.434 -0.031 l 0 13.594 l 0.844 0.469 l 0.5 -0.066 l 0.719 0.344 l 1.094 0.598 l 0.156 0.723 l 0.875 0.84 l 0.5 -0.375 l 0.406 0.316 l -0.063 -0.723 l -0.781 0.191 l -0.25 -0.906 l -0.094 -0.41 l -0.691 -0.621 l 0 -0.438 l 0.531 -0.566 l -0.344 -0.402 l -0.563 0.09 l -0.844 0.844 l -0.688 -0.09 c 0 0 -0.313 -0.531 -0.375 -0.656 c -0.063 -0.125 0.188 -0.563 0.188 -0.563 l -0.063 -1.285 l 0.719 -0.5 l 0.563 -0.191 l 0.813 0 l 1.121 -0.25 l 0.41 0.531 l -0.066 0.625 l 0.469 0.406 l 0.066 -0.441 c 0 0 -0.031 -0.719 -0.094 -0.906 c -0.063 -0.188 0.563 -0.625 0.563 -0.625 l 0.5 -0.613 l 0.594 -0.727 l 0.281 -0.563 l 0.941 -0.496 l 0.621 -0.691 c 0 0 0.938 -0.148 1.125 -0.254 c 0.191 -0.09 0.066 -0.434 -0.125 -0.75 c -0.191 -0.313 0.094 -0.625 0.094 -0.625 l 0.719 -0.434 l 0.621 0.121 l 0.066 0.754 c 0 0 0.586 0.563 0.777 0.465 c 0.191 -0.09 0.281 -0.406 0.281 -0.406 l -0.313 -0.813 l 0.188 -0.809 l -0.844 0.121 l 0 -1.375 l -0.25 0.254 l -0.656 0.031 l -0.094 -0.688 l -0.434 -0.531 c 0 0 -0.43 0.25 -0.844 0.406 c -0.414 0.156 -0.313 0.469 -0.313 0.469 l -0.031 0.844 l -0.688 0.563 l -0.438 0.656 c 0 0 -0.277 -0.188 -0.277 -0.313 c 0 -0.125 -0.066 -0.469 -0.066 -0.469 l -0.719 -0.563 c 0 0 -0.563 -0.406 -0.594 -0.531 c -0.031 -0.125 0.344 -0.688 0.344 -0.688 c 0 0 0.809 -0.5 1 -0.656 c 0.191 -0.156 1.215 0.344 1.34 0.254 c 0.129 -0.094 0.625 -0.875 0.625 -0.875 l 0.438 -0.598 l -0.438 0.5 l -0.75 -0.719 l 0.125 -0.719 l -1.031 -0.156 m 2.508 0.035 l -0.254 0.625 l 0.156 0.344 l 0.566 -0.066 l 0.25 0.469 l -0.5 0.531 l -0.563 0.063 l 0.5 0.223 l 0.531 0.465 l 0.527 0.125 l 0.191 -0.719 l 0.031 -0.438 l 0.625 0.094 c 0 0 -0.191 0.313 -0.098 0.313 c 0.102 0 0.473 -0.406 0.473 -0.406 l -1.066 -1.098 c 0 0 -0.438 -0.344 -0.563 -0.25 c -0.133 0.09 -0.473 0.063 -0.473 0.063 l -0.344 -0.344 m 8.691 1.789 l -0.125 0.41 c 0.449 0.348 0.625 0.344 0.625 0.344 l 0.527 -0.125 l 0.348 -0.344 l -0.223 -0.281 l -1.152 0 m 2.777 1.781 l -0.25 0.219 c -0.063 0.305 -0.152 0.621 -0.152 0.621 l 0.473 0.223 l 0.063 0.277 l -0.254 0.254 l -0.219 0.375 l 0.156 0.156 l 0.563 -0.094 l 0.5 -0.219 l -0.277 -0.375 l -0.094 -0.656 l -0.344 -0.375 m -0.934 0.777 l -0.281 0.469 l 0.375 0.156 l 0.156 -0.281 m -15.691 0.754 l 0.656 0.277 l 0.438 0.566 l 0.277 0.434 c 0 0 -0.246 0.844 -0.313 1 c -0.066 0.156 -0.258 -0.313 -0.258 -0.313 l -0.148 -0.813 l -0.531 0.223 l -0.406 0.965 l 0.09 -0.809 l 0.125 -0.566 l -0.656 -0.25 l 0.566 -0.531 l 0.156 -0.188 m 26.383 0.754 c 0.133 -0.043 0.375 0.156 0.375 0.156 l -0.254 0.219 l 0.094 0.313 l 0.281 0.75 l 0.277 0.469 l 0.379 0.594 l -0.41 0.191 l -0.531 -0.344 l -0.219 -0.656 c 0 0 -0.301 -0.406 -0.441 -0.469 c -0.133 -0.066 -0.25 -0.281 -0.25 -0.281 l 0.125 -0.531 c 0 0 0.43 -0.359 0.566 -0.406 m -7.898 1.184 l -0.375 0.719 l 0.277 0.281 l 0.254 -0.223 l 0.031 -0.309 m -1.441 0.281 l 0 0.188 l 0.156 -0.031 m 2 0.313 l -0.188 0.063 l 0.313 0.531 l 0.281 -0.219 m -20.531 3.813 l -0.313 0.156 l 0.527 0.281 l 0.602 0.121 l 0.344 0.469 l 0.406 -0.25 l -0.066 -0.281 l -0.688 -0.5 l -0.813 0 m 1.684 3.098 l -0.813 0.441 l -0.094 0.902 l -0.188 1 l -0.563 0.75 l 0.027 1.121 l 0.473 1.156 l 0.5 1.406 l 1.313 1.313 l 0.063 0.75 l 0.09 3.379 l 0.469 1.906 c 0 0 0.289 1.102 0.219 1.191 c -0.066 0.086 0.379 0.902 0.379 0.902 l 0.875 1.375 l 1.219 0.531 l -0.5 -0.598 l -0.254 -0.688 l 0.254 -0.719 l -0.656 -0.344 c 0 0 0.438 -0.285 0.5 -0.375 c 0.066 -0.09 -0.094 -0.469 -0.094 -0.469 l -0.188 -0.469 l 0.5 -0.652 l 0.781 -0.191 l 0.121 -0.598 l -0.465 -0.219 l 0.188 -0.5 l 0.75 -0.09 l 0.656 -1.598 l 0.469 -1.094 l 0.965 -0.469 c 0 0 0.313 -0.93 0.313 -1.066 c 0 -0.129 0.094 -1.531 0.094 -1.531 l 0.75 -1.027 l 0.098 -0.688 l -0.566 -0.344 l -0.465 -0.566 l -0.844 0.066 l -1.348 -0.781 l -0.277 -0.656 c 0 0 -0.473 -0.809 -0.566 -0.809 c -0.09 0 -0.656 0.031 -0.656 0.031 l -0.527 -0.531 l -0.348 -0.656 l -1.344 -0.281 l -0.434 -0.219 l -0.875 0 m 36.434 0.496 c 0.113 0.129 0.816 2.219 0.91 2.219 c 0.086 0 0.621 0.066 0.621 0.066 l -0.281 -0.844 m -4.84 -1.375 l -0.313 0.406 l 0.156 0.598 l 0.344 -0.375 l -0.066 -0.473 m 7.969 0.563 l -1.469 0.813 c 0 0.09 -0.719 0.688 -0.719 0.688 l 0.188 0.625 l 0.406 0.465 l 0.281 0.691 l 1.875 -1.223 l -0.566 -2.063 m -4.586 0.441 l -0.438 0.063 l 2 3 l 0.531 0.594 l 1.309 0.066 l 0.813 0.254 l -0.875 -0.625 l -1.25 -0.348 l -0.313 -1.152 l -0.688 -0.566 l -1.094 -1.281 m -10.496 4.867 l 0 0.441 c -0.02 0.063 -0.406 0.375 -0.406 0.375 l -0.469 0.219 l -0.344 0.281 l 0.25 0.344 l 0.156 0.156 l -0.406 0.344 l 0 0.563 l 0.156 0.594 l 0.344 0.094 l 0.406 -0.625 l 0.254 -0.406 l -0.066 -0.5 l 0.375 -0.594 l 0.125 -0.281 l 0 -0.563 l -0.09 -0.438 m 15.777 0.719 c -0.004 0 -0.031 0.031 -0.031 0.031 l -0.5 1.031 c 0 0 -1.102 0.164 -1.129 0.254 c -0.02 0.086 -0.563 0.375 -0.563 0.375 c -0.113 0 -0.469 0.656 -0.469 0.656 l -0.066 2.063 l -0.125 0.75 l 0.316 0.406 l 1.527 -0.531 l 0.5 -0.563 l 0.531 0 l 0 -4.469 m -36.527 8.746 l -0.219 0.152 l -0.094 0.031 l 0.5 0.25 l -0.191 -0.434 m -0.844 0.184 l -0.219 0.5 l 0.434 -0.094 l -0.219 -0.406 m 1.504 4.125 l -0.469 0.719 l -0.875 0.406 l 0.5 0.625 l -0.754 0.375 l -2.469 -0.125 l -0.75 -0.75 l -0.656 -0.125 l 0.656 1.375 l -1.156 -0.219 l -3.969 0.125 l -0.844 1.094 l -1.219 -0.125 l -0.121 0.254 l 0 4.09 l 45.28 0 l 2.719 -1.777 l 0 -1.906 l -0.125 -1.191 l -0.965 -0.219 l -1.219 0.156 l -0.879 0.777 l -1.473 0.598 l 0.625 -0.754 l 1.344 -0.777 l 2.156 -0.5 l 0.25 -0.875 l -1 0 c 0 0 -1.34 -0.668 -1.34 -0.844 c 0 -0.176 -1.5 -0.125 -1.5 -0.125 l -1.719 0.188 l -1.656 -0.09 l -3.313 0.125 l -3.063 0.621 c 0 0 -1.477 0.793 -1.656 0.754 c -0.18 -0.043 0.625 -1.031 0.625 -1.031 l -1.438 0.094 l -0.906 -0.75 l -0.906 0.617 c 0 0 -1.215 0.098 -1.527 0.098 c -0.316 0 -0.723 0.563 -0.723 0.563 l -2.469 -0.09 l -4.25 0.188 l -1.121 0.965 l -0.277 0.035 l -3.223 -0.223 l -2.219 0.223 l -0.777 -0.379 l 0.031 -0.063 c 0 0 -0.656 -1.32 -0.656 -1.5 c 0 -0.176 -0.5 -0.621 -0.5 -0.621 m 0.336 3.188 l 1.344 0.438 l -1.652 0 l -0.656 -0.344 m 0.969 -0.094"
           id="path53"
           style="fill:#215687;fill-opacity:1"
           stroke="none"
           fill-rule="nonzero"
           fill-opacity="1"
           fill="#abd6ec" />
      </g>
    </g>
  </g>
  <g
     id="g55">
    <path
       d="m 40.03 7.531 c 3.712 4.084 5.969 9.514 5.969 15.469 0 12.703 -10.297 23 -23 23 c -5.954 0 -11.384 -2.256 -15.469 -5.969 4.178 4.291 10.01 6.969 16.469 6.969 c 12.703 0 23 -10.298 23 -23 0 -6.462 -2.677 -12.291 -6.969 -16.469 z"
       opacity="0.1"
       id="path57" />
  </g>
  <g
     style="font-size:40px;font-style:normal;font-weight:normal;line-height:125%;letter-spacing:0px;word-spacing:0px;fill:#000000;fill-opacity:1;stroke:none;font-family:Sans"
     id="text3070">
    <path
       style="font-variant:normal;font-weight:bold;font-stretch:normal;fill:#000000;fill-opacity:0.11952192;font-family:Cantarell;-inkscape-font-specification:Cantarell Bold"
       d="M 21 11 L 13 37 L 19 37 L 21 30 L 25.65625 30 L 25.625 29.90625 L 25.4375 29.71875 L 25.21875 28.5625 L 25.25 27.9375 L 25.53125 27.28125 L 25.5 26.5 L 25.40625 26 L 22 26 L 23.0625 22.4375 L 22.90625 22.5 L 21.34375 22.5 L 21.25 22.875 L 20.8125 22.78125 L 20.375 22.40625 L 19.625 21.5 L 19.40625 20.875 L 19.03125 20.21875 L 19.09375 19.625 L 19.28125 19.125 L 19.3125 17.5 L 19.9375 16.65625 L 20.8125 15.96875 L 21.15625 15 L 21.71875 14.5 L 22.5625 14.46875 L 23 14.0625 L 24.375 14.125 L 24.40625 13.8125 L 24.96875 13.78125 L 24.96875 14.71875 L 25.84375 15.25 L 26.71875 15.75 L 27.0625 15.28125 L 27.375 15 L 27.625 15.3125 L 29 15.5625 L 29.1875 15.09375 L 29.59375 15.15625 L 29.9375 15.1875 L 30.0625 14.4375 L 29.90625 13.96875 L 29.65625 13.9375 L 29.375 14.15625 L 29.21875 13.875 L 28.59375 14.09375 L 28.25 13.6875 L 28.0625 13.21875 L 28.5 13.125 L 28.625 12.9375 L 29.21875 12.625 L 29.5 12.625 L 29.125 11.375 L 28.625 11.28125 L 28.46875 11.96875 L 28.21875 12.4375 L 28.25 12.9375 L 28.09375 12.875 L 27.65625 12.71875 L 27.46875 12.9375 L 27.375 13.28125 L 27.53125 13.84375 L 27.25 13.9375 L 26.875 13.5625 L 26.6875 13.4375 L 26.6875 12.75 L 26.3125 12.3125 L 25.5625 11.5625 L 25.21875 11.59375 L 25.125 11.78125 L 26.1875 12.78125 L 26.3125 13.03125 L 26.125 13.03125 L 26.21875 13.40625 L 25.90625 13.5625 L 25.78125 13.125 L 24.6875 11.84375 L 24.46875 12.03125 L 23.5 12.1875 L 22.96875 12.84375 L 22.375 13.90625 L 21.75 14.125 L 21 13.71875 L 21 13.125 L 21.1875 12.40625 L 21.625 11.96875 L 21.75 12.25 L 22.40625 12.125 L 22.5 12.125 L 22.6875 11.875 C 22.6875 11.875 22.62475 11.65625 22.59375 11.65625 C 22.56275 11.65625 22.4375 11.4375 22.4375 11.4375 L 22.25 11.125 L 22.09375 11 L 21 11 z M 24.65625 12.40625 L 24.84375 12.875 L 24.8125 13.1875 L 24.5625 13.40625 L 24.28125 13.125 L 24.65625 12.40625 z M 23.40625 13.15625 L 23.5625 13.3125 L 23.40625 13.34375 L 23.40625 13.15625 z M 25.5625 13.625 L 25.96875 14 L 25.6875 14.21875 L 25.375 13.6875 L 25.5625 13.625 z M 29.96875 16.25 L 29.53125 16.3125 L 29.625 16.78125 L 30.03125 17.5 L 30.34375 18.09375 L 30.625 18.5625 L 30.78125 19.375 L 31.4375 19.875 L 31.71875 20.4375 L 32.0625 21 L 31.5 19.15625 L 31.09375 18.40625 L 30.71875 17.71875 L 30.21875 16.78125 L 29.96875 16.25 z M 32.65625 22.9375 L 32.625 22.96875 L 31.5625 24.28125 L 30.96875 25.21875 L 31.09375 26.34375 L 31.28125 27.15625 L 31.28125 28.03125 L 30.46875 28.8125 L 30.125 29.5625 L 30.09375 30.3125 L 29.4375 30.96875 L 29.40625 31.375 L 31 37 L 37 37 L 32.65625 22.9375 z M 32.96875 27.46875 L 33.25 27.5 L 33.34375 27.9375 L 33.34375 28.5 L 33.21875 28.78125 L 32.84375 29.375 L 32.90625 29.875 L 32.65625 30.28125 L 32.25 30.90625 L 31.90625 30.8125 L 31.75 30.21875 L 31.75 29.65625 L 32.15625 29.3125 L 32 29.15625 L 31.75 28.8125 L 32.09375 28.53125 L 32.5625 28.3125 C 32.5625 28.3125 32.94875 28.0005 32.96875 27.9375 L 32.96875 27.46875 z "
       id="path3847" />
    <path
       d="m 20,10 -8,26 6,0 2,-7 8,0 2,7 6,0 -8,-26 m -6.7,14 2.7,-9 2.7,9"
       style="font-variant:normal;font-weight:bold;font-stretch:normal;fill:#0bdeff;fill-opacity:1;font-family:Cantarell;-inkscape-font-specification:Cantarell Bold"
       id="path3075"
       inkscape:connector-curvature="0"
       sodipodi:nodetypes="ccccccccccc" />
  </g>
</svg>
