<svg viewBox="0 0 48 48"><defs><linearGradient id="linearGradient3764" x1="1" x2="47" gradientUnits="userSpaceOnUse" gradientTransform="matrix(0,-1,1,0,-1.5e-6,47.999998)"><stop stop-color="#93c848" stop-opacity="1"/><stop offset="1" stop-color="#9ccd57" stop-opacity="1"/></linearGradient><clipPath id="clipPath-992300552"><g transform="translate(0,-1004.3622)"><path d="m -24 13 c 0 1.105 -0.672 2 -1.5 2 -0.828 0 -1.5 -0.895 -1.5 -2 0 -1.105 0.672 -2 1.5 -2 0.828 0 1.5 0.895 1.5 2 z" transform="matrix(15.333333,0,0,11.5,414.99999,878.8622)" fill="#1890d0"/></g></clipPath><clipPath id="clipPath-000620468"><g transform="translate(0,-1004.3622)"><path d="m -24 13 c 0 1.105 -0.672 2 -1.5 2 -0.828 0 -1.5 -0.895 -1.5 -2 0 -1.105 0.672 -2 1.5 -2 0.828 0 1.5 0.895 1.5 2 z" transform="matrix(15.333333,0,0,11.5,414.99999,878.8622)" fill="#1890d0"/></g></clipPath></defs><g><path d="m 36.31 5 c 5.859 4.062 9.688 10.831 9.688 18.5 c 0 12.426 -10.07 22.5 -22.5 22.5 c -7.669 0 -14.438 -3.828 -18.5 -9.688 c 1.037 1.822 2.306 3.499 3.781 4.969 c 4.085 3.712 9.514 5.969 15.469 5.969 c 12.703 0 23 -10.298 23 -23 c 0 -5.954 -2.256 -11.384 -5.969 -15.469 c -1.469 -1.475 -3.147 -2.744 -4.969 -3.781 z m 4.969 3.781 c 3.854 4.113 6.219 9.637 6.219 15.719 c 0 12.703 -10.297 23 -23 23 c -6.081 0 -11.606 -2.364 -15.719 -6.219 c 4.16 4.144 9.883 6.719 16.219 6.719 c 12.703 0 23 -10.298 23 -23 c 0 -6.335 -2.575 -12.06 -6.719 -16.219 z" opacity="0.05"/><path d="m 41.28 8.781 c 3.712 4.085 5.969 9.514 5.969 15.469 c 0 12.703 -10.297 23 -23 23 c -5.954 0 -11.384 -2.256 -15.469 -5.969 c 4.113 3.854 9.637 6.219 15.719 6.219 c 12.703 0 23 -10.298 23 -23 c 0 -6.081 -2.364 -11.606 -6.219 -15.719 z" opacity="0.1"/><path d="m 31.25 2.375 c 8.615 3.154 14.75 11.417 14.75 21.13 c 0 12.426 -10.07 22.5 -22.5 22.5 c -9.708 0 -17.971 -6.135 -21.12 -14.75 a 23 23 0 0 0 44.875 -7 a 23 23 0 0 0 -16 -21.875 z" opacity="0.2"/></g><g><path d="m 24 1 c 12.703 0 23 10.297 23 23 c 0 12.703 -10.297 23 -23 23 -12.703 0 -23 -10.297 -23 -23 0 -12.703 10.297 -23 23 -23 z" fill="url(#linearGradient3764)" fill-opacity="1"/></g><g/><g><g clip-path="url(#clipPath-992300552)"><g transform="translate(1,1)"><g opacity="0.1"><!-- color: #9ccd57 --><g><path d="m 12.02 13.977 l -0.902 10 l 0.902 10 l 12 0.902 l 12 -0.902 l 0.898 -10 l -0.898 -10 l -12 -0.898 m -12 0.898" fill="#000" stroke="none" fill-rule="nonzero" fill-opacity="1"/><path d="m 20.555 13.32 l -8.531 0.656 l -0.875 9.781 c 0.598 0.145 1.23 0.219 1.875 0.219 c 4.418 0 8 -3.582 8 -8 c 0 -0.93 -0.176 -1.824 -0.469 -2.656 m 0 0" fill="#000" stroke="none" fill-rule="nonzero" fill-opacity="0.2"/><path d="m 11.922 13.977 l 0 5.656 c 0.453 0.215 1.066 0.344 1.602 0.344 c 1.934 0 3.5 -1.566 3.5 -3.5 c 0 -0.98 -0.41 -1.863 -1.062 -2.5 m -4.04 0" fill="#000" stroke="none" fill-rule="nonzero" fill-opacity="1"/><path d="m 17.02 25.977 l -5.102 5 l 0 3.102 l 11.1 0 l 0 -2.102 m -6 -6" fill="#000" stroke="none" fill-rule="nonzero" fill-opacity="1"/><path d="m 17.02 25.977 l 1 4 l -2 2.5 l 1 1.602 l 6 0 l 0 -2.102 m -6 -6" fill="#000" stroke="none" fill-rule="nonzero" fill-opacity="1"/><path d="m 30.02 21.977 l -9 12.1 l 15.1 0 l 0 -5.445 m -6.102 -6.656" fill="#000" stroke="none" fill-rule="nonzero" fill-opacity="1"/><path d="m 30.02 21.977 l 1.5 5 l -1.5 4.5 l 1.781 2.602 l 4.316 0 l 0 -5.445 m -6.098 -6.656" fill="#000" stroke="none" fill-rule="nonzero" fill-opacity="1"/><path d="m 13.281 13 c -1.246 0 -2.281 1.031 -2.281 2.281 l 0 17.438 c 0 1.25 1.035 2.281 2.281 2.281 l 21.469 0 c 1.246 0 2.25 -1.031 2.25 -2.281 l 0 -17.438 c 0 -1.25 -1 -2.281 -2.25 -2.281 m -21.469 1 l 21.469 0 c 0.707 0 1.281 0.57 1.281 1.281 l 0 17.438 c 0 0.707 -0.574 1.281 -1.281 1.281 l -21.469 0 c -0.707 0 -1.281 -0.574 -1.281 -1.281 l 0 -17.438 c 0 -0.711 0.574 -1.281 1.281 -1.281 m 0 0" fill="#000" stroke="none" fill-rule="nonzero" fill-opacity="1"/></g></g></g></g></g><g><g clip-path="url(#clipPath-000620468)"><!-- color: #9ccd57 --><g><path d="m 12.02 13.977 l -0.902 10 l 0.902 10 l 12 0.902 l 12 -0.902 l 0.898 -10 l -0.898 -10 l -12 -0.898 m -12 0.898" fill="#2c86d5" stroke="none" fill-rule="nonzero" fill-opacity="1"/><path d="m 20.555 13.32 l -8.531 0.656 l -0.875 9.781 c 0.598 0.145 1.23 0.219 1.875 0.219 c 4.418 0 8 -3.582 8 -8 c 0 -0.93 -0.176 -1.824 -0.469 -2.656 m 0 0" fill="#fff" stroke="none" fill-rule="nonzero" fill-opacity="0.2"/><path d="m 11.922 13.977 l 0 5.656 c 0.453 0.215 1.066 0.344 1.602 0.344 c 1.934 0 3.5 -1.566 3.5 -3.5 c 0 -0.98 -0.41 -1.863 -1.062 -2.5 m -4.04 0" fill="#fbc06e" stroke="none" fill-rule="nonzero" fill-opacity="1"/><path d="m 17.02 25.977 l -5.102 5 l 0 3.102 l 11.1 0 l 0 -2.102 m -6 -6" fill="#f4f4f4" stroke="none" fill-rule="nonzero" fill-opacity="1"/><path d="m 17.02 25.977 l 1 4 l -2 2.5 l 1 1.602 l 6 0 l 0 -2.102 m -6 -6" fill="#dedede" stroke="none" fill-rule="nonzero" fill-opacity="1"/><path d="m 30.02 21.977 l -9 12.1 l 15.1 0 l 0 -5.445 m -6.102 -6.656" fill="#f4f4f4" stroke="none" fill-rule="nonzero" fill-opacity="1"/><path d="m 30.02 21.977 l 1.5 5 l -1.5 4.5 l 1.781 2.602 l 4.316 0 l 0 -5.445 m -6.098 -6.656" fill="#dedede" stroke="none" fill-rule="nonzero" fill-opacity="1"/><path d="m 13.281 13 c -1.246 0 -2.281 1.031 -2.281 2.281 l 0 17.438 c 0 1.25 1.035 2.281 2.281 2.281 l 21.469 0 c 1.246 0 2.25 -1.031 2.25 -2.281 l 0 -17.438 c 0 -1.25 -1 -2.281 -2.25 -2.281 m -21.469 1 l 21.469 0 c 0.707 0 1.281 0.57 1.281 1.281 l 0 17.438 c 0 0.707 -0.574 1.281 -1.281 1.281 l -21.469 0 c -0.707 0 -1.281 -0.574 -1.281 -1.281 l 0 -17.438 c 0 -0.711 0.574 -1.281 1.281 -1.281 m 0 0" fill="#fff" stroke="none" fill-rule="nonzero" fill-opacity="1"/></g></g></g><g><path d="m 40.03 7.531 c 3.712 4.084 5.969 9.514 5.969 15.469 0 12.703 -10.297 23 -23 23 c -5.954 0 -11.384 -2.256 -15.469 -5.969 4.178 4.291 10.01 6.969 16.469 6.969 c 12.703 0 23 -10.298 23 -23 0 -6.462 -2.677 -12.291 -6.969 -16.469 z" opacity="0.1"/></g></svg>