<?xml version="1.0" encoding="UTF-8" standalone="no"?>
<svg
   xmlns:dc="http://purl.org/dc/elements/1.1/"
   xmlns:cc="http://creativecommons.org/ns#"
   xmlns:rdf="http://www.w3.org/1999/02/22-rdf-syntax-ns#"
   xmlns:svg="http://www.w3.org/2000/svg"
   xmlns="http://www.w3.org/2000/svg"
   xmlns:sodipodi="http://sodipodi.sourceforge.net/DTD/sodipodi-0.dtd"
   xmlns:inkscape="http://www.inkscape.org/namespaces/inkscape"
   viewBox="0 0 48 48"
   id="svg2"
   version="1.1"
   inkscape:version="0.91 r13725"
   sodipodi:docname="actionaz.svg">
  <metadata
     id="metadata61">
    <rdf:RDF>
      <cc:Work
         rdf:about="">
        <dc:format>image/svg+xml</dc:format>
        <dc:type
           rdf:resource="http://purl.org/dc/dcmitype/StillImage" />
        <dc:title />
      </cc:Work>
    </rdf:RDF>
  </metadata>
  <sodipodi:namedview
     pagecolor="#ffffff"
     bordercolor="#666666"
     borderopacity="1"
     objecttolerance="10"
     gridtolerance="10"
     guidetolerance="10"
     inkscape:pageopacity="0"
     inkscape:pageshadow="2"
     inkscape:window-width="1366"
     inkscape:window-height="718"
     id="namedview59"
     showgrid="false"
     inkscape:zoom="1"
     inkscape:cx="15.77912"
     inkscape:cy="22.718486"
     inkscape:window-x="0"
     inkscape:window-y="25"
     inkscape:window-maximized="1"
     inkscape:current-layer="svg2">
    <inkscape:grid
       type="xygrid"
       id="grid3389" />
  </sodipodi:namedview>
  <defs
     id="defs4">
    <linearGradient
       id="linearGradient3764"
       x1="1"
       x2="47"
       gradientUnits="userSpaceOnUse"
       gradientTransform="matrix(0,-1,1,0,-1.5e-6,47.999998)">
      <stop
         stop-color="#c8dae4"
         stop-opacity="1"
         id="stop7" />
      <stop
         offset="1"
         stop-color="#d6e4eb"
         stop-opacity="1"
         id="stop9" />
    </linearGradient>
  </defs>
  <g
     id="g21">
    <path
       d="m 36.31 5 c 5.859 4.062 9.688 10.831 9.688 18.5 c 0 12.426 -10.07 22.5 -22.5 22.5 c -7.669 0 -14.438 -3.828 -18.5 -9.688 c 1.037 1.822 2.306 3.499 3.781 4.969 c 4.085 3.712 9.514 5.969 15.469 5.969 c 12.703 0 23 -10.298 23 -23 c 0 -5.954 -2.256 -11.384 -5.969 -15.469 c -1.469 -1.475 -3.147 -2.744 -4.969 -3.781 z m 4.969 3.781 c 3.854 4.113 6.219 9.637 6.219 15.719 c 0 12.703 -10.297 23 -23 23 c -6.081 0 -11.606 -2.364 -15.719 -6.219 c 4.16 4.144 9.883 6.719 16.219 6.719 c 12.703 0 23 -10.298 23 -23 c 0 -6.335 -2.575 -12.06 -6.719 -16.219 z"
       opacity="0.05"
       id="path23" />
    <path
       d="m 41.28 8.781 c 3.712 4.085 5.969 9.514 5.969 15.469 c 0 12.703 -10.297 23 -23 23 c -5.954 0 -11.384 -2.256 -15.469 -5.969 c 4.113 3.854 9.637 6.219 15.719 6.219 c 12.703 0 23 -10.298 23 -23 c 0 -6.081 -2.364 -11.606 -6.219 -15.719 z"
       opacity="0.1"
       id="path25" />
    <path
       d="m 31.25 2.375 c 8.615 3.154 14.75 11.417 14.75 21.13 c 0 12.426 -10.07 22.5 -22.5 22.5 c -9.708 0 -17.971 -6.135 -21.12 -14.75 a 23 23 0 0 0 44.875 -7 a 23 23 0 0 0 -16 -21.875 z"
       opacity="0.2"
       id="path27" />
  </g>
  <g
     id="g29">
    <path
       d="m 24 1 c 12.703 0 23 10.297 23 23 c 0 12.703 -10.297 23 -23 23 -12.703 0 -23 -10.297 -23 -23 0 -12.703 10.297 -23 23 -23 z"
       fill="url(#linearGradient3764)"
       fill-opacity="1"
       id="path31" />
  </g>
  <g
     id="g33" />
  <g
     id="g55">
    <path
       d="m 40.03 7.531 c 3.712 4.084 5.969 9.514 5.969 15.469 0 12.703 -10.297 23 -23 23 c -5.954 0 -11.384 -2.256 -15.469 -5.969 4.178 4.291 10.01 6.969 16.469 6.969 c 12.703 0 23 -10.298 23 -23 0 -6.462 -2.677 -12.291 -6.969 -16.469 z"
       opacity="0.1"
       id="path57" />
  </g>
  <g
     transform="matrix(1.0699497,0,0,-0.93462336,-6.0527832e-8,-0.99999975)"
     style="font-style:normal;font-variant:normal;font-weight:bold;font-stretch:normal;font-size:52.18440247px;line-height:125%;font-family:sans-serif;-inkscape-font-specification:'sans-serif Bold';letter-spacing:0px;word-spacing:0px;fill:#000000;fill-opacity:0.48325357;stroke:none;stroke-width:1px;stroke-linecap:butt;stroke-linejoin:miter;stroke-opacity:1"
     id="text4205">
    <g
       id="g4216">
      <path
         style="opacity:0.1;fill:#000000;fill-opacity:1;fill-rule:evenodd;stroke:none;stroke-width:1px;stroke-linecap:butt;stroke-linejoin:miter;stroke-opacity:1"
         d="m 15.888597,-13.909347 c -2.071125,0 -3.738493,-1.90879 -3.738493,-4.279799 l 0,-12.839396 c 0,-2.265743 1.52762,-4.089213 3.470155,-4.248453 l -2.535532,-6.451044 4.205806,0 2.382194,6.419698 7.385715,0 2.382194,-6.419698 4.205806,0 -2.535532,6.451044 c 1.942535,0.15924 3.470155,1.98271 3.470155,4.248453 l 0,12.839396 c 0,2.371009 -1.667368,4.279799 -3.738493,4.279799 l -2.803871,0 0,-4.279799 1.869247,0 c 0.517782,0 0.934624,-0.477198 0.934624,-1.06995 l 0,-10.699497 c 0,-0.592752 -0.416842,-1.069949 -0.934624,-1.069949 l -0.467312,0 -4.205805,10.699497 -3.738493,0 -4.205805,-10.699497 -0.467312,0 c -0.517782,0 -0.934624,0.477197 -0.934624,1.069949 l 0,10.699497 c 0,0.592752 0.416842,1.06995 0.934624,1.06995 l 1.869247,0 0,4.279799 -2.803871,0 z m 7.476987,-11.447626 2.104728,-5.671569 -4.209455,0 2.104727,5.671569 z"
         id="path4220"
         inkscape:connector-curvature="0" />
      <path
         transform="scale(0.93462338,-1.0699497)"
         sodipodi:nodetypes="ssssssssccccccccccccs"
         inkscape:connector-curvature="0"
         id="rect3397"
         d="m 16,12 c -2.216,0 -4,1.784 -4,4 l 0,12 c 0,2.216 1.784,4 4,4 l 16,0 c 2.216,0 4,-1.784 4,-4 l 0,-12 c 0,-2.216 -1.784,-4 -4,-4 l -3,0 0,4 c 0.666667,0 1.333333,0 2,0 0.554,0 1,0.446 1,1 0,3.333333 0,6.666667 0,10 0,0.554 -0.446,1 -1,1 -4.666667,0 -9.333333,0 -14,0 -0.554,0 -1,-0.446 -1,-1 0,-3.333333 0,-6.666667 0,-10 0,-0.554 0.446,-1 1,-1 0.666667,0 1.333333,0 2,0 l 0,-4 z"
         style="fill:#209dbe;fill-opacity:1;fill-rule:evenodd;stroke:none;stroke-width:1px;stroke-linecap:butt;stroke-linejoin:miter;stroke-opacity:1" />
      <path
         sodipodi:nodetypes="cccccccc"
         inkscape:connector-curvature="0"
         id="path4210"
         style="font-style:normal;font-variant:normal;font-weight:bold;font-stretch:normal;font-size:29.35374451px;font-family:sans-serif;-inkscape-font-specification:'sans-serif Bold';fill:#209dbe;fill-opacity:1"
         d="m 12.150104,-40.658089 4.205805,0 6.075052,16.37023 6.075052,-16.37023 4.205805,0 -8.41161,21.398994 -3.738494,10e-7 z" />
    </g>
  </g>
</svg>
