<svg xmlns="http://www.w3.org/2000/svg" xmlns:xlink="http://www.w3.org/1999/xlink" width="48" viewBox="0 0 13.546667 13.546667" height="48">
 <defs>
  <clipPath>
   <path d="m 328,242.09376 c -7.73199,0 -14,6.26801 -14,14 0,7.73199 6.26801,14 14,14 7.73199,0 14,-6.26801 14,-14 0,-7.73199 -6.26801,-14 -14,-14 z m 0,9.90625 c 2.20914,0 4,1.79086 4,4 0,2.20914 -1.79086,4 -4,4 -2.20914,0 -4,-1.79086 -4,-4 0,-2.20914 1.79086,-4 4,-4 z m 0,1 c -1.65685,0 -3,1.34315 -3,3 0,1.65685 1.34315,3 3,3 1.65685,0 3,-1.34315 3,-3 0,-1.65685 -1.34315,-3 -3,-3 z m 0,1 c 1.10457,0 2,0.89543 2,2 0,1.10457 -0.89543,2 -2,2 -1.10457,0 -2,-0.89543 -2,-2 0,-1.10457 0.89543,-2 2,-2 z"/>
  </clipPath>
  <clipPath>
   <rect width="20" x="434" y="78" rx="4" height="20" color="#bebebe"/>
  </clipPath>
  <clipPath>
   <path d="m 328,238 c -7.73199,0 -14,6.26801 -14,14 0,7.73199 6.26801,14 14,14 7.73199,0 14,-6.26801 14,-14 0,-7.73199 -6.26801,-14 -14,-14 z m 0,8.75 c 2.89949,0 5.25,2.35051 5.25,5.25 0,2.89949 -2.35051,5.25 -5.25,5.25 -2.89949,0 -5.25,-2.35051 -5.25,-5.25 0,-2.89949 2.35051,-5.25 5.25,-5.25 z m 0,1.75 c -1.933,0 -3.5,1.567 -3.5,3.5 0,1.933 1.567,3.5 3.5,3.5 1.933,0 3.5,-1.567 3.5,-3.5 0,-1.933 -1.567,-3.5 -3.5,-3.5 z m 0,1.75 c 0.96649,0 1.75,0.78351 1.75,1.75 0,0.96649 -0.78351,1.75 -1.75,1.75 -0.96649,0 -1.75,-0.78351 -1.75,-1.75 0,-0.96649 0.78351,-1.75 1.75,-1.75 z"/>
  </clipPath>
  <clipPath>
   <path d="m 451.38843,133.3713 6.42857,4.71429 0,-11.57143 -6.42857,0 z"/>
  </clipPath>
  <clipPath>
   <path d="m 451.38843,127.3713 c -3.31371,0 -6,2.68629 -6,6 0,3.31371 2.68629,6 6,6 3.31371,0 6,-2.68629 6,-6 0,-3.31371 -2.68629,-6 -6,-6 z m 0,3 c 1.65685,0 3,1.34315 3,3 0,1.65685 -1.34315,3 -3,3 -1.65685,0 -3,-1.34315 -3,-3 0,-1.65685 1.34315,-3 3,-3 z m 0,1 c -1.10457,0 -2,0.89543 -2,2 0,1.10457 0.89543,2 2,2 1.10457,0 2,-0.89543 2,-2 0,-1.10457 -0.89543,-2 -2,-2 z m 0,1 c 0.55228,0 1,0.44772 1,1 0,0.55228 -0.44772,1 -1,1 -0.55228,0 -1,-0.44772 -1,-1 0,-0.55228 0.44772,-1 1,-1 z"/>
  </clipPath>
  <clipPath>
   <rect width="240" x="24" y="36" rx="50" height="240" fill="#986767" color="#bebebe"/>
  </clipPath>
  <clipPath>
   <path d="m 440,126 c -3.31371,0 -6,2.68629 -6,6 0,3.31371 2.68629,6 6,6 3.31371,0 6,-2.68629 6,-6 0,-3.31371 -2.68629,-6 -6,-6 z m 0,3 c 1.65685,0 3,1.34315 3,3 0,1.65685 -1.34315,3 -3,3 -1.65685,0 -3,-1.34315 -3,-3 0,-1.65685 1.34315,-3 3,-3 z m 0,1 c -1.10457,0 -2,0.89543 -2,2 0,1.10457 0.89543,2 2,2 1.10457,0 2,-0.89543 2,-2 0,-1.10457 -0.89543,-2 -2,-2 z m 0,1 c 0.55228,0 1,0.44772 1,1 0,0.55228 -0.44772,1 -1,1 -0.55228,0 -1,-0.44772 -1,-1 0,-0.55228 0.44772,-1 1,-1 z"/>
  </clipPath>
  <clipPath>
   <path d="m 444,88 c -4.41828,0 -8,3.58172 -8,8 0,4.41828 3.58172,8 8,8 4.41828,0 8,-3.58172 8,-8 0,-4.41828 -3.58172,-8 -8,-8 z m 0,5 c 1.65685,0 3,1.34315 3,3 0,1.65685 -1.34315,3 -3,3 -1.65685,0 -3,-1.34315 -3,-3 0,-1.65685 1.34315,-3 3,-3 z m 0,1 c -1.10457,0 -2,0.89543 -2,2 0,1.10457 0.89543,2 2,2 1.10457,0 2,-0.89543 2,-2 0,-1.10457 -0.89543,-2 -2,-2 z m 0,1 c 0.55228,0 1,0.44772 1,1 0,0.55228 -0.44772,1 -1,1 -0.55228,0 -1,-0.44772 -1,-1 0,-0.55228 0.44772,-1 1,-1 z"/>
  </clipPath>
  <clipPath>
   <rect width="90" x="307" y="31" rx="18.75" height="90" fill="url(#0)" color="#bebebe"/>
  </clipPath>
  <clipPath>
   <path d="m 328,238 c -7.73199,0 -14,6.26801 -14,14 0,7.73199 6.26801,14 14,14 7.73199,0 14,-6.26801 14,-14 0,-7.73199 -6.26801,-14 -14,-14 z m 0,9.90625 c 2.20914,0 4,1.79086 4,4 0,2.20914 -1.79086,4 -4,4 -2.20914,0 -4,-1.79086 -4,-4 0,-2.20914 1.79086,-4 4,-4 z m 0,1 c -1.65685,0 -3,1.34315 -3,3 0,1.65685 1.34315,3 3,3 1.65685,0 3,-1.34315 3,-3 0,-1.65685 -1.34315,-3 -3,-3 z m 0,1 c 1.10457,0 2,0.89543 2,2 0,1.10457 -0.89543,2 -2,2 -1.10457,0 -2,-0.89543 -2,-2 0,-1.10457 0.89543,-2 2,-2 z"/>
  </clipPath>
  <clipPath>
   <rect width="60" x="306" y="142" rx="12.5" height="60" transform="matrix(0 -1 1 0 0 0)" fill="url(#2)" color="#bebebe"/>
  </clipPath>
  <clipPath>
   <path d="m 328,256 15,11 0,-27 -15,0 z"/>
  </clipPath>
  <clipPath>
   <rect width="30" x="433" y="29" rx="6" height="30" color="#bebebe"/>
  </clipPath>
  <clipPath>
   <path d="m 144.00001,75.999997 c -44.1828,0 -80,35.817203 -80,80.000003 0,44.1828 35.8172,80 80,80 44.1828,0 80,-35.8172 80,-80 0,-44.1828 -35.8172,-80.000003 -80,-80.000003 z m 0,56.607143 c 12.62366,0 22.85714,10.23349 22.85714,22.85714 0,12.62366 -10.23348,22.85714 -22.85714,22.85714 -12.62366,0 -22.85714,-10.23348 -22.85714,-22.85714 0,-12.62365 10.23348,-22.85714 22.85714,-22.85714 z m 0,5.71429 c -9.46771,0 -17.14286,7.67514 -17.14286,17.14285 0,9.46772 7.67515,17.14286 17.14286,17.14286 9.46771,0 17.14286,-7.67514 17.14286,-17.14286 0,-9.46771 -7.67515,-17.14285 -17.14286,-17.14285 z m 0,5.71428 c 6.31183,0 11.42857,5.11674 11.42857,11.42857 0,6.31183 -5.11674,11.42857 -11.42857,11.42857 -6.31183,0 -11.42857,-5.11674 -11.42857,-11.42857 0,-6.31183 5.11674,-11.42857 11.42857,-11.42857 z"/>
  </clipPath>
  <clipPath>
   <rect width="22" x="433" y="77" rx="5" height="22" color="#bebebe"/>
  </clipPath>
  <clipPath>
   <rect width="22" x="433" y="77" rx="4" height="22" color="#bebebe"/>
  </clipPath>
  <clipPath>
   <rect width="42" x="307" y="223" rx="9" height="42" transform="rotate(90)" fill="url(#1)" color="#bebebe"/>
  </clipPath>
  <clipPath>
   <path d="m 328,242.09375 c -7.73199,0 -14,6.26801 -14,14 0,7.73199 6.26801,14 14,14 7.73199,0 14,-6.26801 14,-14 0,-7.73199 -6.26801,-14 -14,-14 z M 328,252 c 2.20914,0 4,1.79086 4,4 0,2.20914 -1.79086,4 -4,4 -2.20914,0 -4,-1.79086 -4,-4 0,-2.20914 1.79086,-4 4,-4 z m 0,1 c -1.65685,0 -3,1.34315 -3,3 0,1.65685 1.34315,3 3,3 1.65685,0 3,-1.34315 3,-3 0,-1.65685 -1.34315,-3 -3,-3 z m 0,1 c 1.10457,0 2,0.89543 2,2 0,1.10457 -0.89543,2 -2,2 -1.10457,0 -2,-0.89543 -2,-2 0,-1.10457 0.89543,-2 2,-2 z"/>
  </clipPath>
  <clipPath>
   <rect width="16" x="432" y="116" rx="3" height="16" color="#bebebe"/>
  </clipPath>
  <clipPath>
   <rect width="20" x="434" y="78" rx="4" height="20" color="#bebebe"/>
  </clipPath>
  <clipPath>
   <rect width="22" x="433" y="77" rx="3" height="22" opacity="0.2" fill="#6d6d6d" color="#bebebe"/>
  </clipPath>
  <clipPath>
   <rect width="16" x="432" y="116" rx="2" height="16" opacity="0.2" fill="#6d6d6d" color="#bebebe"/>
  </clipPath>
  <clipPath>
   <rect width="90" x="307" y="31" rx="18.75" height="90" fill="url(#C)" color="#bebebe"/>
  </clipPath>
  <clipPath>
   <rect width="60" x="306" y="142" rx="12.5" height="60" transform="matrix(0 -1 1 0 0 0)" fill="url(#A)" color="#bebebe"/>
  </clipPath>
  <clipPath>
   <rect width="22" x="433" y="77" rx="4" height="22" color="#bebebe"/>
  </clipPath>
  <clipPath>
   <rect width="30" x="433" y="29" rx="4" height="30" opacity="0.2" fill="#6d6d6d" color="#bebebe"/>
  </clipPath>
  <clipPath>
   <rect width="30" x="433" y="29" rx="6" height="30" color="#bebebe"/>
  </clipPath>
  <clipPath>
   <rect width="16" x="432" y="116" rx="2" height="16" opacity="0.2" fill="#6d6d6d" color="#bebebe"/>
  </clipPath>
  <clipPath>
   <rect width="42" x="307" y="223" rx="9" height="42" transform="rotate(90)" fill="url(#8)" color="#bebebe"/>
  </clipPath>
  <clipPath>
   <rect width="22" x="433" y="77" rx="3" height="22" opacity="0.2" fill="#6d6d6d" color="#bebebe"/>
  </clipPath>
  <clipPath>
   <rect width="30" x="433" y="29" rx="4" height="30" opacity="0.2" fill="#6d6d6d" color="#bebebe"/>
  </clipPath>
  <clipPath>
   <rect width="22" x="433" y="77" rx="5" height="22" color="#bebebe"/>
  </clipPath>
  <clipPath>
   <rect width="22" x="433" y="77" rx="5" height="22" color="#bebebe"/>
  </clipPath>
  <clipPath>
   <rect width="16" x="432" y="116" rx="2" height="16" opacity="0.2" fill="#6d6d6d" color="#bebebe"/>
  </clipPath>
  <clipPath>
   <rect width="22" x="433" y="77" rx="3" height="22" opacity="0.2" fill="#6d6d6d" color="#bebebe"/>
  </clipPath>
  <clipPath>
   <rect width="60" x="306" y="142" rx="12.5" height="60" transform="matrix(0 -1 1 0 0 0)" fill="url(#9)" color="#bebebe"/>
  </clipPath>
  <clipPath>
   <rect width="90" x="307" y="31" rx="18.75" height="90" fill="url(#B)" color="#bebebe"/>
  </clipPath>
  <clipPath>
   <path d="m 144,48 -23.59375,55.0625 -55.59375,-22.25 22.25,55.59375 L 32,160 l 55.0625,23.59375 -22.25,55.59375 55.59375,-22.25 L 144,272 l 23.59375,-55.0625 55.59375,22.25 -22.25,-55.59375 L 256,160 200.9375,136.40625 223.1875,80.8125 167.59375,103.0625 144,48 z m -23.1875,56 46.375,0 32.8125,32.8125 0,46.375 L 167.1875,216 120.8125,216 88,183.1875 88,136.8125 120.8125,104 z"/>
  </clipPath>
  <clipPath>
   <rect width="30" x="433" y="29" rx="4" height="30" opacity="0.2" fill="#6d6d6d" color="#bebebe"/>
  </clipPath>
  <clipPath>
   <rect width="240" x="24" y="36" rx="50" height="240" fill="#986767" color="#bebebe"/>
  </clipPath>
  <clipPath>
   <rect width="42" x="307" y="223" rx="9" height="42" transform="rotate(90)" fill="url(#4)" color="#bebebe"/>
  </clipPath>
  <clipPath>
   <rect width="16" x="432" y="116" rx="3" height="16" color="#bebebe"/>
  </clipPath>
  <clipPath>
   <rect width="16" x="432" y="116" rx="3" height="16" color="#bebebe"/>
  </clipPath>
  <clipPath>
   <rect width="240" x="24" y="36" rx="50" height="240" fill="#986767" color="#bebebe"/>
  </clipPath>
  <clipPath>
   <rect width="22" x="433" y="77" rx="4" height="22" color="#bebebe"/>
  </clipPath>
  <clipPath>
   <rect width="20" x="434" y="78" rx="4" height="20" color="#bebebe"/>
  </clipPath>
  <clipPath>
   <rect width="30" x="433" y="29" rx="6" height="30" color="#bebebe"/>
  </clipPath>
  <linearGradient xlink:href="#7" y1="140" y2="124" x2="0" gradientUnits="userSpaceOnUse"/>
  <linearGradient gradientTransform="matrix(.375 0 0 .375 298 16)" xlink:href="#5" id="0" y1="230" y2="90" gradientUnits="userSpaceOnUse" x2="0"/>
  <linearGradient gradientTransform="matrix(.175 0 0 .175 302.79999 215.99997)" xlink:href="#5" id="1" y1="280" y2="40" gradientUnits="userSpaceOnUse" x2="0"/>
  <linearGradient xlink:href="#7" y1="140" y2="124" x2="0" gradientUnits="userSpaceOnUse"/>
  <linearGradient gradientTransform="matrix(.25 0 0 .25 299.99999 131.99999)" xlink:href="#5" id="2" y1="230" y2="90" gradientUnits="userSpaceOnUse" x2="0"/>
  <linearGradient xlink:href="#7" y1="107" y2="85" x2="0" gradientUnits="userSpaceOnUse"/>
  <linearGradient gradientTransform="translate(11.38843 1.3713)" xlink:href="#7" y1="140" y2="124" x2="0" gradientUnits="userSpaceOnUse"/>
  <linearGradient gradientTransform="translate(0 4.09376)" xlink:href="#7" y1="273" y2="231" x2="0" gradientUnits="userSpaceOnUse"/>
  <linearGradient gradientTransform="translate(11.38843 1.3713)" xlink:href="#7" y1="140" y2="124" gradientUnits="userSpaceOnUse" x2="0"/>
  <linearGradient xlink:href="#7" y1="107" y2="85" x2="0" gradientUnits="userSpaceOnUse"/>
  <linearGradient gradientTransform="matrix(1.10525,0,0,1.10525,-134.26995,-295.77197)" xlink:href="#D" id="3" y1="279.09" y2="268.36" gradientUnits="userSpaceOnUse" x2="0"/>
  <linearGradient gradientTransform="matrix(.175 0 0 .175 302.79999 215.99997)" id="4" xlink:href="#5" y1="280" y2="40" x2="0" gradientUnits="userSpaceOnUse"/>
  <linearGradient id="5">
   <stop stop-color="#f0f0f0"/>
   <stop offset="1" stop-color="#f8f8f8"/>
  </linearGradient>
  <linearGradient gradientTransform="matrix(5.71429 0 0 5.71429 -1730.2857 -1284)" xlink:href="#7" y1="273" y2="231" gradientUnits="userSpaceOnUse" x2="0"/>
  <linearGradient id="6">
   <stop stop-color="#eaba31"/>
   <stop offset="1" stop-color="#ff9200"/>
  </linearGradient>
  <linearGradient id="7">
   <stop stop-color="#818181"/>
   <stop offset="1" stop-color="#c5c5c5"/>
  </linearGradient>
  <linearGradient gradientTransform="matrix(.175 0 0 .175 302.79999 215.99997)" xlink:href="#5" id="8" y1="280" y2="40" gradientUnits="userSpaceOnUse" x2="0"/>
  <linearGradient gradientTransform="matrix(5.71429 0 0 5.71429 -1730.2857 -1284)" xlink:href="#7" y1="273" y2="231" x2="0" gradientUnits="userSpaceOnUse"/>
  <linearGradient xlink:href="#7" y1="107" y2="85" x2="0" gradientUnits="userSpaceOnUse"/>
  <linearGradient gradientTransform="matrix(5.71429 0 0 5.71429 -1730.2857 -1284)" xlink:href="#7" y1="273" y2="231" gradientUnits="userSpaceOnUse" x2="0"/>
  <linearGradient gradientTransform="matrix(.25 0 0 .25 299.99999 131.99999)" id="9" xlink:href="#5" y1="230" y2="90" x2="0" gradientUnits="userSpaceOnUse"/>
  <linearGradient xlink:href="#7" y1="140" y2="124" x2="0" gradientUnits="userSpaceOnUse"/>
  <linearGradient gradientTransform="translate(11.38843 1.3713)" xlink:href="#7" y1="140" y2="124" gradientUnits="userSpaceOnUse" x2="0"/>
  <linearGradient gradientTransform="matrix(.25 0 0 .25 299.99999 131.99999)" xlink:href="#5" id="A" y1="230" y2="90" gradientUnits="userSpaceOnUse" x2="0"/>
  <linearGradient gradientTransform="matrix(.375 0 0 .375 298 16)" id="B" xlink:href="#5" y1="230" y2="90" x2="0" gradientUnits="userSpaceOnUse"/>
  <linearGradient gradientTransform="matrix(.375 0 0 .375 298 16)" xlink:href="#5" id="C" y1="230" y2="90" gradientUnits="userSpaceOnUse" x2="0"/>
  <linearGradient gradientTransform="translate(0 4.09376)" xlink:href="#7" y1="273" y2="231" gradientUnits="userSpaceOnUse" x2="0"/>
  <linearGradient gradientTransform="translate(0 4.09376)" xlink:href="#7" y1="273" y2="231" gradientUnits="userSpaceOnUse" x2="0"/>
  <radialGradient cx="328" cy="255.42" gradientTransform="matrix(1.22449 0 0 1.22449 49.7555 -179.34296)" r="7" xlink:href="#6" gradientUnits="userSpaceOnUse"/>
  <radialGradient cx="328" cy="255.42" gradientTransform="matrix(1.22449 0 0 1.22449 49.7555 -179.34296)" r="7" xlink:href="#6" gradientUnits="userSpaceOnUse"/>
  <radialGradient cx="328" cy="255.42" gradientTransform="matrix(2.85714 0 0 2.85714 -609.14349 -473.66662)" r="7" xlink:href="#6" gradientUnits="userSpaceOnUse"/>
  <radialGradient cx="328" cy="255.42" gradientTransform="matrix(2.85714 0 0 2.85714 -609.14349 -473.66662)" r="7" xlink:href="#6" gradientUnits="userSpaceOnUse"/>
  <radialGradient cx="328" cy="255.42" gradientTransform="matrix(1.22449 0 0 1.22449 49.7555 -179.34296)" r="7" xlink:href="#6" gradientUnits="userSpaceOnUse"/>
  <radialGradient cx="328" cy="255.42" gradientTransform="matrix(2.85714 0 0 2.85714 -609.14349 -473.66662)" r="7" xlink:href="#6" gradientUnits="userSpaceOnUse"/>
  <linearGradient id="D">
   <stop stop-color="#2b2b2b"/>
   <stop offset="1" stop-color="#424242"/>
  </linearGradient>
 </defs>
 <rect width="12.982" x="0.282" y="0.282" rx="6.491" height="12.982" opacity="0.5" fill="#fff" color="#bebebe" stroke-width="0.184"/>
 <rect width="11.853" x="0.847" y="0.847" rx="5.926" height="11.853" fill="url(#3)" fill-rule="evenodd" color="#000"/>
 <path d="m 3.3866668,3.3866668 c 0,2.2785982 0,4.7686057 -10e-8,6.7733332 l 6.7733333,0 c 0,-6.7733333 0,-4.0218246 0,-6.7733332 z" fill="#cc0000" fill-rule="evenodd"/>
 <path d="m 3.6688891,8.7488891 c 0,0.3797663 0,0.7947677 -10e-8,1.1288889 l 6.208889,0 c 0,-1.1288889 0,-0.6703042 0,-1.1288889 z" fill="#f9f9f9" fill-rule="evenodd"/>
 <path d="m 3.3866669,3.3866668 c 0,1.7089488 0,3.5764546 -10e-8,5.0800001 l 6.7733342,0 c 0,-5.0800002 0,-3.0163685 0,-5.0800001 z" fill="#aa0000" fill-rule="evenodd"/>
 <path d="m 8.1844446,5.6444445 c 0,0.1898832 0,0.3973839 0,0.5644445 l 1.9755554,0 c 0,-0.5644445 0,-0.3351521 0,-0.5644445 z" fill="#999999" fill-rule="evenodd"/>
 <path d="m 8.6254092,5.6307553 c 0,0 0.5482272,0.010635 0.5487644,0.3919747 l 0,0.3135798 c 0,0 0.15679,-0.00811 0.1567897,0.078395 l -2.5e-6,0.8035443 c -7.7e-6,0.072569 -0.072029,0.1371957 -0.1511903,0.1372053 l -1.1087286,0 C 7.9918814,7.3554447 7.9198596,7.2908178 7.9198522,7.218249 l 2.5e-6,-0.8035443 c 2e-7,-0.086504 0.1567899,-0.078395 0.1567899,-0.078395 l 0,-0.3135798 C 8.0807587,5.6409422 8.6254097,5.6307553 8.6254092,5.6307553 z m 0,0.2351848 c 0,0 -0.3135798,-0.011959 -0.3135798,0.2743823 l 0,0.1959874 0.6271593,0 0,-0.1959874 c 0,-0.286341 -0.3135795,-0.2743823 -0.3135795,-0.2743823 z" fill="#ffff00" color="#000000"/>
 <path d="m 3.6688891,9.0311114 c 0,0.094942 0,0.198692 -10e-8,0.2822222 l 6.208889,0 c 0,-0.2822222 0,-0.167576 0,-0.2822222 z" fill="#e6e6e6" fill-rule="evenodd"/>
 <path d="m 3.6688891,9.5955558 c 0,0.094942 0,0.198692 -10e-8,0.2822222 l 6.208889,0 c 0,-0.2822222 0,-0.167576 0,-0.2822222 z" fill="#e6e6e6" fill-rule="evenodd"/>
</svg>
