<?xml version="1.0" encoding="UTF-8" standalone="no"?>
<svg
   xmlns:dc="http://purl.org/dc/elements/1.1/"
   xmlns:cc="http://creativecommons.org/ns#"
   xmlns:rdf="http://www.w3.org/1999/02/22-rdf-syntax-ns#"
   xmlns:svg="http://www.w3.org/2000/svg"
   xmlns="http://www.w3.org/2000/svg"
   xmlns:xlink="http://www.w3.org/1999/xlink"
   xmlns:sodipodi="http://sodipodi.sourceforge.net/DTD/sodipodi-0.dtd"
   xmlns:inkscape="http://www.inkscape.org/namespaces/inkscape"
   width="48"
   viewBox="0 0 13.546667 13.546667"
   height="48"
   id="svg2"
   version="1.1"
   inkscape:version="0.48.4 r9939"
   sodipodi:docname="AndYetItMoves.svg">
  <metadata
     id="metadata20">
    <rdf:RDF>
      <cc:Work
         rdf:about="">
        <dc:format>image/svg+xml</dc:format>
        <dc:type
           rdf:resource="http://purl.org/dc/dcmitype/StillImage" />
      </cc:Work>
    </rdf:RDF>
  </metadata>
  <sodipodi:namedview
     pagecolor="#ffffff"
     bordercolor="#666666"
     borderopacity="1"
     objecttolerance="10"
     gridtolerance="10"
     guidetolerance="10"
     inkscape:pageopacity="0"
     inkscape:pageshadow="2"
     inkscape:window-width="1280"
     inkscape:window-height="960"
     id="namedview18"
     showgrid="true"
     inkscape:zoom="13.906433"
     inkscape:cx="22.881102"
     inkscape:cy="35.855059"
     inkscape:window-x="0"
     inkscape:window-y="0"
     inkscape:window-maximized="1"
     inkscape:current-layer="svg2">
    <inkscape:grid
       type="xygrid"
       id="grid4343" />
  </sodipodi:namedview>
  <defs
     id="defs4">
    <linearGradient
       id="linearGradient4214">
      <stop
         style="stop-color:#715434;stop-opacity:1;"
         offset="0"
         id="stop4216" />
      <stop
         style="stop-color:#806140;stop-opacity:1;"
         offset="1"
         id="stop4218" />
    </linearGradient>
    <linearGradient
       id="0">
      <stop
         stop-color="#638eb2"
         id="stop7" />
      <stop
         offset="1"
         stop-color="#9cccd7"
         id="stop9" />
    </linearGradient>
    <linearGradient
       xlink:href="#0"
       id="1"
       gradientUnits="userSpaceOnUse"
       gradientTransform="matrix(1.10525,0,0,1.10525,-133.18812,-281.18194)"
       y1="279.1"
       x2="0"
       y2="268.33" />
    <linearGradient
       x1="32.251034"
       y1="6.1317081"
       x2="32.251034"
       y2="90.238609"
       id="linearGradient3026"
       xlink:href="#ButtonShadow-0"
       gradientUnits="userSpaceOnUse"
       gradientTransform="matrix(1.0238095,0,0,1.0119048,-1.1428571,-98.071429)" />
    <linearGradient
       x1="45.447727"
       y1="92.539597"
       x2="45.447727"
       y2="7.0165396"
       id="ButtonShadow-0"
       gradientUnits="userSpaceOnUse"
       gradientTransform="matrix(1.0058652,0,0,0.994169,100,0)">
      <stop
         id="stop3750-8"
         style="stop-color:#000000;stop-opacity:1"
         offset="0" />
      <stop
         id="stop3752-5"
         style="stop-color:#000000;stop-opacity:0.58823532"
         offset="1" />
    </linearGradient>
    <linearGradient
       x1="32.251034"
       y1="6.1317081"
       x2="32.251034"
       y2="90.238609"
       id="linearGradient3780"
       xlink:href="#ButtonShadow-0"
       gradientUnits="userSpaceOnUse"
       gradientTransform="matrix(1.0238095,0,0,1.0119048,-1.1428571,-98.071429)" />
    <linearGradient
       x1="45.447727"
       y1="92.539597"
       x2="45.447727"
       y2="7.0165396"
       id="linearGradient3180"
       gradientUnits="userSpaceOnUse"
       gradientTransform="matrix(1.0058652,0,0,0.994169,100,0)">
      <stop
         id="stop3182"
         style="stop-color:#000000;stop-opacity:1"
         offset="0" />
      <stop
         id="stop3184"
         style="stop-color:#000000;stop-opacity:0.58823532"
         offset="1" />
    </linearGradient>
    <linearGradient
       x1="32.251034"
       y1="6.1317081"
       x2="32.251034"
       y2="90.238609"
       id="linearGradient3772"
       xlink:href="#ButtonShadow-0"
       gradientUnits="userSpaceOnUse"
       gradientTransform="matrix(1.0238095,0,0,1.0119048,-1.1428571,-98.071429)" />
    <linearGradient
       x1="45.447727"
       y1="92.539597"
       x2="45.447727"
       y2="7.0165396"
       id="linearGradient3187"
       gradientUnits="userSpaceOnUse"
       gradientTransform="matrix(1.0058652,0,0,0.994169,100,0)">
      <stop
         id="stop3189"
         style="stop-color:#000000;stop-opacity:1"
         offset="0" />
      <stop
         id="stop3191"
         style="stop-color:#000000;stop-opacity:0.58823532"
         offset="1" />
    </linearGradient>
    <linearGradient
       x1="32.251034"
       y1="6.1317081"
       x2="32.251034"
       y2="90.238609"
       id="linearGradient3725"
       xlink:href="#ButtonShadow-0"
       gradientUnits="userSpaceOnUse"
       gradientTransform="matrix(1.0238095,0,0,1.0119048,-1.1428571,-98.071429)" />
    <linearGradient
       x1="45.447727"
       y1="92.539597"
       x2="45.447727"
       y2="7.0165396"
       id="linearGradient3194"
       gradientUnits="userSpaceOnUse"
       gradientTransform="matrix(1.0058652,0,0,0.994169,100,0)">
      <stop
         id="stop3196"
         style="stop-color:#000000;stop-opacity:1"
         offset="0" />
      <stop
         id="stop3198"
         style="stop-color:#000000;stop-opacity:0.58823532"
         offset="1" />
    </linearGradient>
    <linearGradient
       x1="32.251034"
       y1="6.1317081"
       x2="32.251034"
       y2="90.238609"
       id="linearGradient3721"
       xlink:href="#ButtonShadow-0"
       gradientUnits="userSpaceOnUse"
       gradientTransform="translate(0,-97)" />
    <linearGradient
       x1="45.447727"
       y1="92.539597"
       x2="45.447727"
       y2="7.0165396"
       id="linearGradient3201"
       gradientUnits="userSpaceOnUse"
       gradientTransform="matrix(1.0058652,0,0,0.994169,100,0)">
      <stop
         id="stop3203"
         style="stop-color:#000000;stop-opacity:1"
         offset="0" />
      <stop
         id="stop3205"
         style="stop-color:#000000;stop-opacity:0.58823532"
         offset="1" />
    </linearGradient>
    <linearGradient
       x1="48"
       y1="90"
       x2="48"
       y2="5.9877172"
       id="linearGradient3617"
       xlink:href="#linearGradient3700"
       gradientUnits="userSpaceOnUse" />
    <linearGradient
       id="linearGradient3700">
      <stop
         id="stop3702"
         style="stop-color:#2e2f25;stop-opacity:1"
         offset="0" />
      <stop
         id="stop3704"
         style="stop-color:#46493b;stop-opacity:1"
         offset="1" />
    </linearGradient>
    <clipPath
       id="clipPath6298">
      <rect
         width="84"
         height="84"
         rx="6"
         ry="6"
         x="146"
         y="6"
         id="rect6300"
         style="opacity:0.5414847;fill:#ff00ff;fill-opacity:1;fill-rule:nonzero;stroke:none" />
    </clipPath>
    <filter
       color-interpolation-filters="sRGB"
       id="filter3930">
      <feBlend
         in2="BackgroundImage"
         mode="multiply"
         id="feBlend3932" />
    </filter>
    <clipPath
       id="clipPath3076">
      <rect
         width="84"
         height="84"
         rx="6"
         ry="6"
         x="6"
         y="6"
         id="rect3078"
         style="fill:#ff00ff;fill-opacity:1;fill-rule:nonzero;stroke:none" />
    </clipPath>
    <linearGradient
       x1="36.357143"
       y1="6"
       x2="36.357143"
       y2="63.893143"
       id="linearGradient3081"
       xlink:href="#linearGradient3737-1"
       gradientUnits="userSpaceOnUse" />
    <linearGradient
       id="linearGradient3737-1">
      <stop
         id="stop3739-0"
         style="stop-color:#ffffff;stop-opacity:1"
         offset="0" />
      <stop
         id="stop3741-5"
         style="stop-color:#ffffff;stop-opacity:0"
         offset="1" />
    </linearGradient>
    <radialGradient
       cx="48"
       cy="90.171875"
       r="42"
       fx="48"
       fy="90.171875"
       id="radialGradient3619-2"
       xlink:href="#linearGradient3737-1"
       gradientUnits="userSpaceOnUse"
       gradientTransform="matrix(1.1573129,0,0,0.99590774,-7.551021,0.1971319)" />
    <linearGradient
       id="linearGradient3222">
      <stop
         id="stop3224"
         style="stop-color:#ffffff;stop-opacity:1"
         offset="0" />
      <stop
         id="stop3226"
         style="stop-color:#ffffff;stop-opacity:0"
         offset="1" />
    </linearGradient>
    <linearGradient
       x1="48"
       y1="20.220806"
       x2="48"
       y2="138.66119"
       id="linearGradient3613"
       xlink:href="#linearGradient3737"
       gradientUnits="userSpaceOnUse" />
    <linearGradient
       id="linearGradient3737">
      <stop
         id="stop3739"
         style="stop-color:#ffffff;stop-opacity:1"
         offset="0" />
      <stop
         id="stop3741"
         style="stop-color:#ffffff;stop-opacity:0"
         offset="1" />
    </linearGradient>
    <clipPath
       id="clipPath3613">
      <rect
         width="84"
         height="84"
         rx="6"
         ry="6"
         x="6"
         y="6"
         id="rect3615"
         style="fill:#ffffff;fill-opacity:1;fill-rule:nonzero;stroke:none" />
    </clipPath>
    <filter
       x="-0.192"
       y="-0.192"
       width="1.3839999"
       height="1.3839999"
       color-interpolation-filters="sRGB"
       id="filter3794">
      <feGaussianBlur
         stdDeviation="5.28"
         id="feGaussianBlur3796" />
    </filter>
    <linearGradient
       y2="90.238609"
       x2="32.251034"
       y1="6.1317081"
       x1="32.251034"
       gradientTransform="translate(0,-97)"
       gradientUnits="userSpaceOnUse"
       id="linearGradient3272"
       xlink:href="#ButtonShadow-0"
       inkscape:collect="always" />
    <clipPath
       id="clipPath3076-5">
      <rect
         style="fill:#ff00ff;fill-opacity:1;fill-rule:nonzero;stroke:none"
         id="rect3078-7"
         y="6"
         x="6"
         ry="6"
         rx="6"
         height="84"
         width="84" />
    </clipPath>
    <linearGradient
       gradientUnits="userSpaceOnUse"
       xlink:href="#linearGradient3737-1-9"
       id="linearGradient3081-0"
       y2="63.893143"
       x2="36.357143"
       y1="6"
       x1="36.357143" />
    <linearGradient
       id="linearGradient3737-1-9">
      <stop
         offset="0"
         style="stop-color:#ffffff;stop-opacity:1"
         id="stop3739-0-1" />
      <stop
         offset="1"
         style="stop-color:#ffffff;stop-opacity:0"
         id="stop3741-5-0" />
    </linearGradient>
    <radialGradient
       gradientTransform="matrix(1.1573129,0,0,0.99590774,-7.551021,0.1971319)"
       gradientUnits="userSpaceOnUse"
       xlink:href="#linearGradient3737-1-9"
       id="radialGradient3619-2-1"
       fy="90.171875"
       fx="48"
       r="42"
       cy="90.171875"
       cx="48" />
    <filter
       id="filter3930-2"
       color-interpolation-filters="sRGB">
      <feBlend
         id="feBlend3932-1"
         mode="multiply"
         in2="BackgroundImage" />
    </filter>
    <clipPath
       id="clipPath6298-1">
      <rect
         style="opacity:0.5414847;fill:#ff00ff;fill-opacity:1;fill-rule:nonzero;stroke:none"
         id="rect6300-6"
         y="6"
         x="146"
         ry="6"
         rx="6"
         height="84"
         width="84" />
    </clipPath>
    <linearGradient
       gradientTransform="matrix(1.0238095,0,0,1.0119048,-1.1428571,-98.071429)"
       gradientUnits="userSpaceOnUse"
       xlink:href="#ButtonShadow-0-0"
       id="linearGradient3026-2"
       y2="90.238609"
       x2="32.251034"
       y1="6.1317081"
       x1="32.251034" />
    <linearGradient
       gradientTransform="translate(0,-97)"
       gradientUnits="userSpaceOnUse"
       xlink:href="#ButtonShadow-0-0"
       id="linearGradient3721-5"
       y2="90.238609"
       x2="32.251034"
       y1="6.1317081"
       x1="32.251034" />
    <linearGradient
       gradientTransform="matrix(1.0238095,0,0,1.0119048,-1.1428571,-98.071429)"
       gradientUnits="userSpaceOnUse"
       xlink:href="#ButtonShadow-0-0"
       id="linearGradient3725-0"
       y2="90.238609"
       x2="32.251034"
       y1="6.1317081"
       x1="32.251034" />
    <linearGradient
       gradientTransform="matrix(1.0238095,0,0,1.0119048,-1.1428571,-98.071429)"
       gradientUnits="userSpaceOnUse"
       xlink:href="#ButtonShadow-0-0"
       id="linearGradient3772-8"
       y2="90.238609"
       x2="32.251034"
       y1="6.1317081"
       x1="32.251034" />
    <linearGradient
       gradientTransform="matrix(1.0238095,0,0,1.0119048,-1.1428571,-98.071429)"
       gradientUnits="userSpaceOnUse"
       xlink:href="#ButtonShadow-0-0"
       id="linearGradient3780-0"
       y2="90.238609"
       x2="32.251034"
       y1="6.1317081"
       x1="32.251034" />
    <linearGradient
       gradientTransform="matrix(1.0058652,0,0,0.994169,100,0)"
       gradientUnits="userSpaceOnUse"
       id="ButtonShadow-0-0"
       y2="7.0165396"
       x2="45.447727"
       y1="92.539597"
       x1="45.447727">
      <stop
         offset="0"
         style="stop-color:#000000;stop-opacity:1"
         id="stop3750-8-9" />
      <stop
         offset="1"
         style="stop-color:#000000;stop-opacity:0.58823532"
         id="stop3752-5-8" />
    </linearGradient>
    <linearGradient
       gradientUnits="userSpaceOnUse"
       xlink:href="#linearGradient3700-4"
       id="linearGradient3617-8"
       y2="5.9877172"
       x2="48"
       y1="90"
       x1="48" />
    <clipPath
       id="clipPath3613-5">
      <rect
         style="fill:#ffffff;fill-opacity:1;fill-rule:nonzero;stroke:none"
         id="rect3615-4"
         y="6"
         x="6"
         ry="6"
         rx="6"
         height="84"
         width="84" />
    </clipPath>
    <linearGradient
       gradientUnits="userSpaceOnUse"
       xlink:href="#linearGradient3737-7"
       id="linearGradient3613-4"
       y2="138.66119"
       x2="48"
       y1="20.220806"
       x1="48" />
    <filter
       id="filter3794-1"
       color-interpolation-filters="sRGB"
       height="1.3839999"
       width="1.3839999"
       y="-0.192"
       x="-0.192">
      <feGaussianBlur
         id="feGaussianBlur3796-2"
         stdDeviation="5.28" />
    </filter>
    <filter
       id="filter3174"
       color-interpolation-filters="sRGB">
      <feGaussianBlur
         id="feGaussianBlur3176"
         stdDeviation="1.71" />
    </filter>
    <linearGradient
       id="linearGradient3700-4">
      <stop
         offset="0"
         style="stop-color:#2e2f25;stop-opacity:1"
         id="stop3702-0" />
      <stop
         offset="1"
         style="stop-color:#46493b;stop-opacity:1"
         id="stop3704-8" />
    </linearGradient>
    <linearGradient
       id="linearGradient3737-7">
      <stop
         offset="0"
         style="stop-color:#ffffff;stop-opacity:1"
         id="stop3739-01" />
      <stop
         offset="1"
         style="stop-color:#ffffff;stop-opacity:0"
         id="stop3741-9" />
    </linearGradient>
    <linearGradient
       gradientTransform="scale(1.0058652,0.994169)"
       gradientUnits="userSpaceOnUse"
       id="ButtonShadow"
       y2="7.0165396"
       x2="45.447727"
       y1="92.539597"
       x1="45.447727">
      <stop
         offset="0"
         style="stop-color:#000000;stop-opacity:1"
         id="stop3750" />
      <stop
         offset="1"
         style="stop-color:#000000;stop-opacity:0.58823532"
         id="stop3752" />
    </linearGradient>
    <linearGradient
       inkscape:collect="always"
       xlink:href="#linearGradient4214"
       id="linearGradient4220"
       x1="-9.5593214"
       y1="9.3559322"
       x2="19.118644"
       y2="9.3559322"
       gradientUnits="userSpaceOnUse" />
    <linearGradient
       inkscape:collect="always"
       xlink:href="#linearGradient3737-7"
       id="linearGradient4265"
       gradientUnits="userSpaceOnUse"
       x1="48"
       y1="20.220806"
       x2="48"
       y2="138.66119" />
    <linearGradient
       inkscape:collect="always"
       xlink:href="#linearGradient3737-1-9"
       id="linearGradient4268"
       gradientUnits="userSpaceOnUse"
       x1="36.357143"
       y1="6"
       x2="36.357143"
       y2="63.893143" />
    <radialGradient
       inkscape:collect="always"
       xlink:href="#linearGradient3737-1-9"
       id="radialGradient4270"
       gradientUnits="userSpaceOnUse"
       gradientTransform="matrix(1.1573129,0,0,0.99590774,-7.551021,0.1971319)"
       cx="48"
       cy="90.171875"
       fx="48"
       fy="90.171875"
       r="42" />
    <linearGradient
       inkscape:collect="always"
       xlink:href="#linearGradient3737-1-9"
       id="linearGradient4276"
       gradientUnits="userSpaceOnUse"
       x1="36.357143"
       y1="6"
       x2="36.357143"
       y2="63.893143"
       gradientTransform="matrix(0.28222223,0,0,0.28222223,16.474125,-7.8639551)" />
    <linearGradient
       inkscape:collect="always"
       xlink:href="#linearGradient3700-4"
       id="linearGradient4279"
       gradientUnits="userSpaceOnUse"
       x1="48"
       y1="90"
       x2="48"
       y2="5.9877172" />
    <linearGradient
       inkscape:collect="always"
       xlink:href="#linearGradient3700-4"
       id="linearGradient4297"
       gradientUnits="userSpaceOnUse"
       x1="48"
       y1="90"
       x2="48"
       y2="5.9877172"
       gradientTransform="matrix(0.28222223,0,0,0.28222223,16.474125,-7.8639551)" />
    <linearGradient
       inkscape:collect="always"
       xlink:href="#ButtonShadow-0-0"
       id="linearGradient4299"
       gradientUnits="userSpaceOnUse"
       gradientTransform="matrix(1.0238095,0,0,1.0119048,-1.1428571,-98.071429)"
       x1="32.251034"
       y1="6.1317081"
       x2="32.251034"
       y2="90.238609" />
    <linearGradient
       inkscape:collect="always"
       xlink:href="#ButtonShadow-0-0"
       id="linearGradient4301"
       gradientUnits="userSpaceOnUse"
       gradientTransform="matrix(1.0238095,0,0,1.0119048,-1.1428571,-98.071429)"
       x1="32.251034"
       y1="6.1317081"
       x2="32.251034"
       y2="90.238609" />
    <linearGradient
       inkscape:collect="always"
       xlink:href="#ButtonShadow-0-0"
       id="linearGradient4303"
       gradientUnits="userSpaceOnUse"
       gradientTransform="matrix(1.0238095,0,0,1.0119048,-1.1428571,-98.071429)"
       x1="32.251034"
       y1="6.1317081"
       x2="32.251034"
       y2="90.238609" />
    <linearGradient
       inkscape:collect="always"
       xlink:href="#ButtonShadow-0-0"
       id="linearGradient4305"
       gradientUnits="userSpaceOnUse"
       gradientTransform="matrix(1.0238095,0,0,1.0119048,-1.1428571,-98.071429)"
       x1="32.251034"
       y1="6.1317081"
       x2="32.251034"
       y2="90.238609" />
    <linearGradient
       inkscape:collect="always"
       xlink:href="#ButtonShadow-0-0"
       id="linearGradient4307"
       gradientUnits="userSpaceOnUse"
       gradientTransform="translate(0,-97)"
       x1="32.251034"
       y1="6.1317081"
       x2="32.251034"
       y2="90.238609" />
    <linearGradient
       inkscape:collect="always"
       xlink:href="#ButtonShadow-0-0"
       id="linearGradient4310"
       gradientUnits="userSpaceOnUse"
       gradientTransform="matrix(0.28222223,0,0,0.28222223,16.474125,-19.511601)"
       x1="32.251034"
       y1="6.1317081"
       x2="32.251034"
       y2="90.238609" />
    <linearGradient
       inkscape:collect="always"
       xlink:href="#ButtonShadow-0-0"
       id="linearGradient4313"
       gradientUnits="userSpaceOnUse"
       gradientTransform="matrix(0.2889418,0,0,0.28558203,16.151585,-19.813982)"
       x1="32.251034"
       y1="6.1317081"
       x2="32.251034"
       y2="90.238609" />
    <linearGradient
       inkscape:collect="always"
       xlink:href="#ButtonShadow-0-0"
       id="linearGradient4316"
       gradientUnits="userSpaceOnUse"
       gradientTransform="matrix(0.2889418,0,0,-0.28558203,16.151585,19.813982)"
       x1="32.251034"
       y1="6.1317081"
       x2="32.251034"
       y2="90.238609" />
    <linearGradient
       inkscape:collect="always"
       xlink:href="#ButtonShadow-0-0"
       id="linearGradient4319"
       gradientUnits="userSpaceOnUse"
       gradientTransform="matrix(0.2889418,0,0,-0.28558203,16.151585,19.813982)"
       x1="32.251034"
       y1="6.1317081"
       x2="32.251034"
       y2="90.238609" />
    <linearGradient
       inkscape:collect="always"
       xlink:href="#ButtonShadow-0-0"
       id="linearGradient4322"
       gradientUnits="userSpaceOnUse"
       gradientTransform="matrix(0.2889418,0,0,-0.28558203,16.151585,19.813982)"
       x1="32.251034"
       y1="6.1317081"
       x2="32.251034"
       y2="90.238609" />
    <linearGradient
       inkscape:collect="always"
       xlink:href="#ButtonShadow"
       id="linearGradient4324"
       gradientUnits="userSpaceOnUse"
       gradientTransform="scale(1.0058652,0.994169)"
       x1="45.447727"
       y1="92.539597"
       x2="45.447727"
       y2="7.0165396" />
    <linearGradient
       inkscape:collect="always"
       xlink:href="#linearGradient3737-7"
       id="linearGradient4341"
       gradientUnits="userSpaceOnUse"
       x1="48"
       y1="20.220806"
       x2="48"
       y2="138.66119" />
    <linearGradient
       inkscape:collect="always"
       xlink:href="#linearGradient4214"
       id="linearGradient4359"
       gradientUnits="userSpaceOnUse"
       x1="-9.5593214"
       y1="9.3559322"
       x2="19.118644"
       y2="9.3559322" />
    <linearGradient
       inkscape:collect="always"
       xlink:href="#linearGradient4214"
       id="linearGradient4366"
       gradientUnits="userSpaceOnUse"
       x1="-9.5593214"
       y1="9.3559322"
       x2="19.118644"
       y2="9.3559322"
       gradientTransform="matrix(0,-1.4645391,1.1732954,0,13.022728,31.000001)" />
  </defs>
  <rect
     height="12.982"
     rx="6.491"
     y="0.282"
     x="0.282"
     width="12.982"
     opacity="0.5"
     fill="#ffffff"
     fill-rule="evenodd"
     id="rect12" />
  <path
     sodipodi:type="arc"
     style="fill:url(#linearGradient4220);fill-opacity:1;stroke:none"
     id="path3444"
     sodipodi:cx="4.7796612"
     sodipodi:cy="9.3559322"
     sodipodi:rx="14.338983"
     sodipodi:ry="17.898306"
     d="m 19.118644,9.3559322 a 14.338983,17.898306 0 1 1 -28.6779654,0 14.338983,17.898306 0 1 1 28.6779654,0 z"
     transform="matrix(0,-0.41332548,0.33113004,0,3.6753033,8.7488894)" />
  <rect
     style="opacity:0.9;fill:url(#linearGradient4324);fill-opacity:1;fill-rule:nonzero;stroke:none;display:none;filter:url(#filter3174)"
     id="rect3745"
     y="7"
     x="5"
     ry="6"
     rx="6"
     height="85"
     width="86"
     transform="matrix(0.28222223,0,0,0.28222223,16.474125,-7.8639551)" />
  <path
     style="fill:#aca19a;fill-opacity:1;stroke:none"
     d="M 10.28125 11.375 C 9.7017517 11.359845 9.1472672 11.380231 8.59375 11.40625 C 8.0756364 11.430604 7.5703886 11.478899 7.09375 11.5625 C 4.526214 15.045763 3 19.340737 3 24 C 3 27.337425 3.8021311 30.479205 5.1875 33.28125 C 5.2655571 33.342438 5.3628441 33.403021 5.4375 33.46875 C 5.3795173 33.467581 5.3784075 33.443947 5.28125 33.46875 C 5.5281805 33.955706 5.7796449 34.442051 6.0625 34.90625 C 6.2333975 34.875203 6.3903979 34.846895 6.5625 34.8125 C 6.5236002 34.998533 6.4392245 35.171379 6.5 35.375 A 0.5552732 0.5552732 0 0 0 7.25 35.6875 C 7.3641831 35.634917 7.3655748 35.660396 7.375 35.65625 C 7.4487256 35.717407 7.6739372 35.901552 8.15625 36.125 A 0.5552732 0.5552732 0 0 0 8.40625 36.21875 C 8.7727321 36.208474 9.1366047 36.094362 9.75 35.9375 C 10.363398 35.780672 11.164005 35.584021 11.90625 35.375 C 12.648491 35.165975 13.382786 34.916045 13.96875 34.75 C 14.325302 34.648961 14.448255 34.617806 14.65625 34.5625 C 14.769012 34.690573 14.91221 34.784773 15.0625 34.875 C 15.355393 35.050819 15.772105 35.123666 16.1875 35.15625 C 16.346715 35.259846 16.519906 35.366861 16.65625 35.375 C 16.874411 35.388039 17.079412 35.328667 17.3125 35.28125 C 17.778694 35.18647 18.326013 35.030913 18.875 34.8125 C 19.423982 34.594084 19.958124 34.318434 20.40625 34.0625 C 20.630313 33.934529 20.861184 33.819919 21.03125 33.6875 C 21.09262 33.639736 21.132217 33.550046 21.1875 33.5 C 21.50785 33.535787 21.799252 33.581985 22.1875 33.5625 C 22.716103 33.535961 23.342964 33.460248 23.9375 33.4375 C 25.12659 33.392011 26.292585 33.501279 26.84375 33.90625 A 0.5552732 0.5552732 0 0 0 27.15625 34.03125 C 27.491018 34.020549 27.89504 33.953174 28.375 33.84375 C 28.854964 33.734326 29.383834 33.582352 29.90625 33.46875 C 30.42867 33.355144 30.935147 33.245449 31.28125 33.21875 C 31.454284 33.205392 31.575988 33.209963 31.625 33.21875 A 0.5552732 0.5552732 0 0 0 32.25 33.3125 A 0.5552732 0.5552732 0 0 0 32.28125 33.34375 C 32.805569 33.678217 33.451182 33.786541 34.0625 33.78125 C 34.36816 33.778667 34.658867 33.742237 34.9375 33.625 C 35.146459 33.537055 35.346499 33.342993 35.46875 33.09375 C 35.805789 32.836917 36.038371 32.581508 36.15625 32.34375 C 37.17842 32.170486 38.366945 32.186246 39.46875 32.1875 C 40.562236 32.188744 41.56208 32.175724 42.375 31.78125 C 42.40122 31.768565 42.443061 31.763507 42.46875 31.75 C 42.9392 31.580272 43.374218 31.31012 43.78125 31.03125 C 44.562926 28.832026 45 26.467384 45 24 C 45 20.874026 44.287427 17.91583 43.0625 15.25 C 42.932291 15.158244 42.801817 15.066616 42.65625 15 C 42.280022 14.827817 41.823062 14.754896 41.375 14.9375 C 41.349444 14.942248 41.319624 14.933328 41.28125 14.9375 C 41.178848 14.948626 41.043321 14.987272 40.875 15 C 40.53835 15.025441 40.097158 15.032846 39.65625 15.0625 C 39.215353 15.092157 38.773921 15.152124 38.40625 15.1875 C 38.222423 15.205217 38.046395 15.197731 37.90625 15.21875 C 37.795841 15.235333 37.735693 15.275664 37.625 15.3125 C 37.617205 15.314179 37.570898 15.311079 37.5625 15.3125 C 37.277335 15.359463 36.931501 15.199769 36.375 14.875 C 35.802086 14.540646 35.077727 14.038257 34.21875 13.6875 A 0.5552732 0.5552732 0 0 0 34.0625 13.65625 C 33.08276 13.565568 32.111212 14.01638 31.125 14.3125 C 30.138793 14.608619 29.209734 14.764361 28.5 14.46875 A 0.5552732 0.5552732 0 0 0 28.15625 14.46875 C 27.323635 14.659245 26.521245 14.39878 25.71875 14.03125 C 24.973974 13.690149 24.260992 13.259151 23.59375 13 C 23.543501 12.965997 23.489031 12.969146 23.4375 12.9375 C 21.98525 12.044749 20.079567 12.032402 18.71875 12.5625 C 16.759983 12.101662 14.391355 11.647888 12.0625 11.46875 C 11.4629 11.422629 10.860748 11.390155 10.28125 11.375 z "
     transform="scale(0.28222223,0.28222223)"
     id="use4362" />
  <path
     style="fill:#c6935f;fill-opacity:1;stroke:none"
     d="M 9 12.78125 C 8.022464 12.775713 7.0726535 12.815436 6.15625 12.9375 C 5.1342453 14.582776 4.3195022 16.374133 3.78125 18.28125 C 4.071961 18.389221 4.3425026 18.52282 4.625 18.65625 C 4.7568925 18.718552 4.3713671 18.762835 4.25 18.84375 C 3.9299432 19.057118 3.6888614 19.283863 3.46875 19.5625 C 3.1598092 20.99566 3 22.474453 3 24 C 3 27.251796 3.774376 30.314782 5.09375 33.0625 C 5.3766507 33.204034 5.6400213 33.358772 5.8125 33.53125 C 6.2174242 33.936188 5.1854593 33.498983 6 33.90625 C 6.17505 33.99378 6.4081062 33.844359 6.59375 33.90625 C 7.0023812 34.042455 7.2837895 34.720441 7.5625 34.90625 C 7.838598 35.090318 8.5753839 35.160548 8.9375 35.28125 C 10.149815 35.685356 14.477086 35.241669 15.21875 34.5 C 15.476313 34.242414 16.548647 34.357598 16.78125 34.125 C 16.818777 34.087565 20.755178 33.593141 21.28125 33.53125 C 22.836813 33.348242 25.087418 33.227056 26.5625 33.71875 C 26.810131 33.801295 31.152035 33.182091 31.4375 33.125 C 32.0033 33.011844 32.642877 33.052679 33.21875 32.9375 C 33.676487 32.845952 34.136013 32.435297 34.59375 32.34375 C 35.059569 32.250586 35.91355 32.558846 36.34375 32.34375 C 38.21992 31.405667 40.919866 31.892637 42.21875 30.59375 C 42.74401 30.068492 43.527076 30.044459 44.15625 29.625 C 44.201583 29.594782 44.240605 29.543208 44.28125 29.5 C 44.755212 27.747853 45 25.902056 45 24 C 45 21.43867 44.526986 18.988264 43.6875 16.71875 C 42.942755 16.454825 42.170632 16.198483 41.4375 16.09375 C 40.565645 15.969202 39.11716 15.853114 38.3125 15.53125 C 37.245915 15.104615 35.781367 14.663208 34.59375 14.53125 C 32.458337 14.293984 30.265466 14.538336 28.125 14.34375 C 26.265194 14.174678 24.471252 13.865001 22.65625 13.5625 C 21.273063 13.331969 19.744721 13.67027 18.34375 13.5625 C 15.428006 13.33821 12.099076 12.798802 9 12.78125 z M 20.09375 20.53125 A 0.99961212 0.99997715 0 0 1 20.125 20.53125 A 0.99961212 0.99997715 0 0 0 20.0625 20.625 A 0.99961212 0.99997715 0 0 1 20.09375 20.53125 z "
     transform="scale(0.28222223,0.28222223)"
     id="path3849-9" />
  <path
     style="color:#000000;fill:#f9f9f9;fill-opacity:1;fill-rule:nonzero;stroke:none;stroke-width:2;marker:none;visibility:visible;display:inline;overflow:visible;enable-background:accumulate"
     id="path3942-6"
     inkscape:connector-curvature="0"
     d="M 9.2878529,4.7980483 A 0.28211276,0.28221578 0 0 0 9.0278068,5.084645 0.28211276,0.28221578 0 0 0 9.3142992,5.3624234 l 0.8286228,0 0.01763,0 c 0.314923,0 0.564168,0.2493373 0.564168,0.5643753 0,0.3090593 -0.240101,0.5551555 -0.546537,0.5643746 a 0.28211276,0.28221578 0 0 0 -0.01763,0 0.28211276,0.28221578 0 0 0 -0.02644,0 l -0.8198078,0 A 0.28211276,0.28221578 0 0 0 9.0278118,6.7777701 0.28211276,0.28221578 0 0 0 9.3143042,7.0555485 l 0.8242158,0 a 0.28211276,0.28221578 0 0 0 0.0044,0 l 0.01763,0 c 0.314924,0 0.564169,0.2493373 0.564169,0.5643753 0,0.3090593 -0.240102,0.5551561 -0.546538,0.5643746 a 0.28211276,0.28221578 0 0 0 -0.01763,0 0.28211276,0.28221578 0 0 0 -0.02645,0 l -0.8198078,0 a 0.28211276,0.28221578 0 0 0 -0.2864924,0.2865968 0.28211276,0.28221578 0 0 0 0,0.026455 0.28211276,0.28221578 0 0 0 0.2864924,0.2513235 l 0.8242158,0 a 0.28211276,0.28221578 0 0 0 0.02204,0 0.28211276,0.28221578 0 0 0 0.0573,-0.00437 c 0.593299,-0.030468 1.071041,-0.5236973 1.071041,-1.1243409 0,-0.3362167 -0.147753,-0.6391761 -0.383459,-0.8465632 0.235706,-0.2073866 0.383459,-0.5103459 0.383459,-0.8465625 0,-0.6126074 -0.496614,-1.1167428 -1.106301,-1.1287499 -0.0015,-2.93e-5 -0.003,2.34e-5 -0.0044,0 a 0.28211276,0.28221578 0 0 0 -0.01763,0 0.28211276,0.28221578 0 0 0 -0.02644,0 l -0.8198078,0 a 0.28211276,0.28221578 0 0 0 -0.02645,0 z M 5.9028387,5.6446108 A 0.28211276,0.28221578 0 0 0 5.6427919,5.9312081 l 0,0.6040574 C 5.1586356,6.6621047 4.7965383,7.1020866 4.7965383,7.6243327 a 0.28211276,0.28221578 0 0 0 0.2512318,0.2865968 0.28211276,0.28221578 0 0 0 0.026445,0 0.28211276,0.28221578 0 0 0 0.2864921,-0.2865968 c 0,-0.3029076 0.2312358,-0.5417663 0.5289082,-0.5599658 a 0.28211276,0.28221578 0 0 0 0.00437,0 0.28211276,0.28221578 0 0 0 0.026445,0 0.28211276,0.28221578 0 0 0 0.030854,0 c 0.00152,6.77e-5 0.00297,-7.88e-5 0.00437,0 0.2998049,0.016065 0.533316,0.2555632 0.533316,0.5599658 a 0.28211276,0.28221578 0 1 0 0.5641686,0 c 0,-0.5222461 -0.3620959,-0.962228 -0.8462534,-1.0890672 l 0,-0.6040574 A 0.28211276,0.28221578 0 0 0 5.9028387,5.6446108 z m -3.3629766,0.00443 c -0.1562745,0 -0.2820843,0.1258556 -0.2820843,0.2821878 0,0.1158798 0.068068,0.2165968 0.1674879,0.2601412 -0.105017,0.1712534 -0.1674879,0.3721994 -0.1674879,0.5864214 0,0.620049 0.5085152,1.1287499 1.1283384,1.1287499 0.6198221,0 1.1283377,-0.5087009 1.1283377,-1.1287499 0,-0.214222 -0.062471,-0.415168 -0.1674879,-0.5864214 0.09942,-0.043546 0.1674879,-0.1442617 0.1674879,-0.2601412 0,-0.1563322 -0.1258096,-0.2821878 -0.2820842,-0.2821878 l -0.8462535,0 -0.8462541,0 z m 5.6416909,0 c -0.1562746,0 -0.2820843,0.1258556 -0.2820843,0.2821878 l 0,1.6931251 c 0,0.1563317 0.1258097,0.2821874 0.2820843,0.2821874 0.1562751,0 0.2820848,-0.1258557 0.2820848,-0.2821874 l 0,-1.6931251 c 0,-0.1563322 -0.1258097,-0.2821878 -0.2820848,-0.2821878 z M 3.3861162,6.2134199 c 0.3149224,0 0.5641686,0.2493373 0.5641686,0.5643753 0,0.315038 -0.2492462,0.5643752 -0.5641686,0.5643752 -0.3149236,0 -0.5641692,-0.2493372 -0.5641692,-0.5643752 0,-0.315038 0.2492456,-0.5643753 0.5641692,-0.5643753 z" />
</svg>
