<?xml version="1.0" encoding="UTF-8" standalone="no"?>
<svg
   xmlns:dc="http://purl.org/dc/elements/1.1/"
   xmlns:cc="http://creativecommons.org/ns#"
   xmlns:rdf="http://www.w3.org/1999/02/22-rdf-syntax-ns#"
   xmlns:svg="http://www.w3.org/2000/svg"
   xmlns="http://www.w3.org/2000/svg"
   xmlns:xlink="http://www.w3.org/1999/xlink"
   xmlns:sodipodi="http://sodipodi.sourceforge.net/DTD/sodipodi-0.dtd"
   xmlns:inkscape="http://www.inkscape.org/namespaces/inkscape"
   viewBox="0 0 48 48"
   id="svg2"
   version="1.1"
   inkscape:version="0.48.4 r9939"
   width="100%"
   height="100%"
   sodipodi:docname="AndYetItMoves.svg">
  <metadata
     id="metadata69">
    <rdf:RDF>
      <cc:Work
         rdf:about="">
        <dc:format>image/svg+xml</dc:format>
        <dc:type
           rdf:resource="http://purl.org/dc/dcmitype/StillImage" />
      </cc:Work>
    </rdf:RDF>
  </metadata>
  <sodipodi:namedview
     pagecolor="#ffffff"
     bordercolor="#666666"
     borderopacity="1"
     objecttolerance="10"
     gridtolerance="10"
     guidetolerance="10"
     inkscape:pageopacity="0"
     inkscape:pageshadow="2"
     inkscape:window-width="640"
     inkscape:window-height="480"
     id="namedview67"
     showgrid="false"
     inkscape:zoom="4.9166667"
     inkscape:cx="25.059835"
     inkscape:cy="18.861859"
     inkscape:window-x="0"
     inkscape:window-y="0"
     inkscape:window-maximized="0"
     inkscape:current-layer="svg2" />
  <defs
     id="defs4">
    <linearGradient
       id="linearGradient3764"
       x1="1"
       x2="47"
       gradientUnits="userSpaceOnUse"
       gradientTransform="matrix(0,-1,1,0,-1.5e-6,47.999998)">
      <stop
         stop-color="#735739"
         stop-opacity="1"
         id="stop7" />
      <stop
         offset="1"
         stop-color="#806140"
         stop-opacity="1"
         id="stop9" />
    </linearGradient>
    <clipPath
       id="clipPath-458488765">
      <g
         transform="translate(0,-1004.3622)"
         id="g12">
        <path
           d="m -24 13 c 0 1.105 -0.672 2 -1.5 2 -0.828 0 -1.5 -0.895 -1.5 -2 0 -1.105 0.672 -2 1.5 -2 0.828 0 1.5 0.895 1.5 2 z"
           transform="matrix(15.333333,0,0,11.5,414.99999,878.8622)"
           fill="#1890d0"
           id="path14" />
      </g>
    </clipPath>
    <clipPath
       id="clipPath-464746881">
      <g
         transform="translate(0,-1004.3622)"
         id="g17">
        <path
           d="m -24 13 c 0 1.105 -0.672 2 -1.5 2 -0.828 0 -1.5 -0.895 -1.5 -2 0 -1.105 0.672 -2 1.5 -2 0.828 0 1.5 0.895 1.5 2 z"
           transform="matrix(15.333333,0,0,11.5,414.99999,878.8622)"
           fill="#1890d0"
           id="path19" />
      </g>
    </clipPath>
    <linearGradient
       inkscape:collect="always"
       xlink:href="#linearGradient3764"
       id="linearGradient3061"
       gradientUnits="userSpaceOnUse"
       gradientTransform="matrix(0,-1,1,0,-1.5e-6,47.999998)"
       x1="1"
       x2="47" />
    <linearGradient
       inkscape:collect="always"
       xlink:href="#linearGradient3764"
       id="linearGradient3067"
       gradientUnits="userSpaceOnUse"
       gradientTransform="matrix(0,-1,1,0,-1.5e-6,47.999998)"
       x1="1"
       x2="47" />
    <linearGradient
       inkscape:collect="always"
       xlink:href="#linearGradient3764"
       id="linearGradient3077"
       gradientUnits="userSpaceOnUse"
       gradientTransform="matrix(0,-1,1,0,-1.5e-6,47.999998)"
       x1="1"
       x2="47" />
    <linearGradient
       inkscape:collect="always"
       xlink:href="#linearGradient3764"
       id="linearGradient3080"
       gradientUnits="userSpaceOnUse"
       gradientTransform="matrix(0,-1,1,0,-1.5e-6,47.999998)"
       x1="1"
       x2="47" />
    <linearGradient
       inkscape:collect="always"
       xlink:href="#linearGradient3764"
       id="linearGradient3087"
       gradientUnits="userSpaceOnUse"
       gradientTransform="matrix(0,-1,1,0,-1.5e-6,47.999998)"
       x1="1"
       x2="47" />
    <linearGradient
       inkscape:collect="always"
       xlink:href="#linearGradient3764"
       id="linearGradient3090"
       gradientUnits="userSpaceOnUse"
       gradientTransform="matrix(0,-1,1,0,-1.5e-6,47.999998)"
       x1="1"
       x2="47" />
    <linearGradient
       inkscape:collect="always"
       xlink:href="#linearGradient3764"
       id="linearGradient3130"
       gradientUnits="userSpaceOnUse"
       gradientTransform="matrix(0,-1,1,0,-1.5e-6,47.999998)"
       x1="1"
       x2="47" />
  </defs>
  <g
     id="g21">
    <path
       d="m 36.31 5 c 5.859 4.062 9.688 10.831 9.688 18.5 c 0 12.426 -10.07 22.5 -22.5 22.5 c -7.669 0 -14.438 -3.828 -18.5 -9.688 c 1.037 1.822 2.306 3.499 3.781 4.969 c 4.085 3.712 9.514 5.969 15.469 5.969 c 12.703 0 23 -10.298 23 -23 c 0 -5.954 -2.256 -11.384 -5.969 -15.469 c -1.469 -1.475 -3.147 -2.744 -4.969 -3.781 z m 4.969 3.781 c 3.854 4.113 6.219 9.637 6.219 15.719 c 0 12.703 -10.297 23 -23 23 c -6.081 0 -11.606 -2.364 -15.719 -6.219 c 4.16 4.144 9.883 6.719 16.219 6.719 c 12.703 0 23 -10.298 23 -23 c 0 -6.335 -2.575 -12.06 -6.719 -16.219 z"
       opacity="0.05"
       id="path23" />
    <path
       d="m 41.28 8.781 c 3.712 4.085 5.969 9.514 5.969 15.469 c 0 12.703 -10.297 23 -23 23 c -5.954 0 -11.384 -2.256 -15.469 -5.969 c 4.113 3.854 9.637 6.219 15.719 6.219 c 12.703 0 23 -10.298 23 -23 c 0 -6.081 -2.364 -11.606 -6.219 -15.719 z"
       opacity="0.1"
       id="path25" />
    <path
       d="m 31.25 2.375 c 8.615 3.154 14.75 11.417 14.75 21.13 c 0 12.426 -10.07 22.5 -22.5 22.5 c -9.708 0 -17.971 -6.135 -21.12 -14.75 a 23 23 0 0 0 44.875 -7 a 23 23 0 0 0 -16 -21.875 z"
       opacity="0.2"
       id="path27" />
  </g>
  <path
     style="fill:url(#linearGradient3090);fill-opacity:1"
     d="M 24 1 C 15.256763 1 7.6719516 5.8794233 3.78125 13.0625 C 7.6597691 13.13308 11.75351 13.575942 15.375 13.78125 C 17.231 13.88625 19.26175 13.55425 21.09375 13.78125 C 23.49575 14.07425 25.87875 14.36325 28.34375 14.53125 C 31.17975 14.72325 34.08625 14.48475 36.90625 14.71875 C 38.48025 14.84775 40.42975 15.30075 41.84375 15.71875 C 42.81856 16.005135 44.460592 16.109684 45.625 16.21875 C 42.433771 7.3487904 33.969412 1 24 1 z M 45.625 16.21875 C 45.843757 16.82678 46.048827 17.432564 46.21875 18.0625 C 46.0516 17.435338 45.842617 16.823612 45.625 16.21875 z M 46.21875 18.0625 C 46.334163 18.490358 46.439877 18.937828 46.53125 19.375 C 46.441362 18.935705 46.333294 18.49228 46.21875 18.0625 z M 1.375 19.84375 C 1.3030809 20.236938 1.2391518 20.631348 1.1875 21.03125 C 1.2400295 20.627272 1.3016253 20.240874 1.375 19.84375 z M 46.65625 20.0625 C 46.74985 20.58968 46.818451 21.117277 46.875 21.65625 C 46.820416 21.118737 46.7472 20.58842 46.65625 20.0625 z M 46.90625 22.125 C 46.957984 22.742558 47 23.36906 47 24 C 47 23.366809 46.956441 22.745258 46.90625 22.125 z M 1.0625 22.53125 C 1.0318488 23.017279 1 23.506238 1 24 C 1 23.50503 1.0311904 23.018409 1.0625 22.53125 z M 1 24 C 1 24.504421 1.0305217 25.00366 1.0625 25.5 C 1.0296771 25.002043 1 24.506174 1 24 z M 46.875 26.34375 C 46.797895 27.121382 46.683648 27.872129 46.53125 28.625 C 46.684435 27.876362 46.796481 27.116964 46.875 26.34375 z M 1.21875 27.125 C 1.2790685 27.568 1.3523297 28.0029 1.4375 28.4375 C 1.3509229 28.001058 1.2800314 27.569935 1.21875 27.125 z M 1.75 29.84375 C 1.8748309 30.320399 2.033379 30.785949 2.1875 31.25 C 2.0351522 30.794675 1.8742316 30.311197 1.75 29.84375 z M 2.1875 31.25 C 2.3397939 31.70855 2.5076318 32.148528 2.6875 32.59375 C 2.5082127 32.151524 2.3398478 31.705325 2.1875 31.25 z M 45.9375 30.96875 C 44.056482 31.594132 41.268768 31.398635 39.21875 32.15625 C 38.64475 32.36725 37.52325 32.06225 36.90625 32.15625 C 36.29625 32.24625 35.69875 32.66 35.09375 32.75 C 34.32775 32.864 33.46475 32.8245 32.71875 32.9375 C 32.33775 32.9925 26.60925 33.582 26.28125 33.5 C 24.33125 33.019 21.34725 33.1325 19.28125 33.3125 C 18.58525 33.3715 13.3635 33.86725 13.3125 33.90625 C 13.0035 34.13325 11.594 34.02725 11.25 34.28125 C 10.413246 34.901352 6.145666 35.298532 3.90625 35.15625 C 7.8321386 42.218651 15.34639 47 24 47 C 34.275994 47 42.987614 40.268015 45.9375 30.96875 z M 3.90625 35.15625 C 3.6879775 34.763593 3.4773358 34.375028 3.28125 33.96875 C 3.4751709 34.371215 3.6899982 34.767228 3.90625 35.15625 z "
     id="path31" />
  <g
     id="g33" />
  <path
     style="opacity:0.1;fill:#000000;fill-opacity:1;fill-rule:nonzero;stroke:none"
     d="M 5.71875 12.625 C 5.1412129 12.612999 4.5868471 12.640475 4.03125 12.65625 C 3.9525217 12.794665 3.857183 12.922311 3.78125 13.0625 C 7.6597691 13.13308 11.75351 13.575942 15.375 13.78125 C 15.808067 13.80575 16.24015 13.791682 16.6875 13.78125 C 14.129348 13.341868 11.077315 12.89069 8.0625 12.71875 C 7.2695 12.67575 6.48475 12.641 5.71875 12.625 z M 19.125 13.46875 C 18.37348 13.497999 17.671033 13.610262 17.03125 13.78125 C 17.185091 13.776024 17.345514 13.756577 17.5 13.75 C 17.750802 13.739545 17.998501 13.760241 18.25 13.75 C 18.418606 13.742777 18.581822 13.724393 18.75 13.71875 C 18.854561 13.715513 18.958255 13.72095 19.0625 13.71875 C 19.411198 13.710445 19.75151 13.707933 20.09375 13.71875 C 20.431522 13.729891 20.767295 13.740799 21.09375 13.78125 C 21.584229 13.841079 22.072746 13.879 22.5625 13.9375 C 21.488037 13.561307 20.270688 13.424161 19.125 13.46875 z M 45.9375 30.96875 C 44.291609 31.515959 41.963905 31.427576 40.03125 31.90625 C 39.755156 31.974632 39.475002 32.061548 39.21875 32.15625 C 38.64475 32.36725 37.52325 32.06225 36.90625 32.15625 C 36.29625 32.24625 35.69875 32.66 35.09375 32.75 C 34.32775 32.864 33.46475 32.8245 32.71875 32.9375 C 32.33775 32.9925 26.60925 33.582 26.28125 33.5 C 24.33125 33.019 21.34725 33.1325 19.28125 33.3125 C 18.93325 33.342 17.461312 33.488813 16.0625 33.625 C 14.663687 33.761187 13.338 33.88675 13.3125 33.90625 C 13.0035 34.13325 11.594 34.02725 11.25 34.28125 C 10.831623 34.591301 9.5451662 34.840978 8.09375 35 C 7.3680419 35.079511 6.6030778 35.129334 5.875 35.15625 C 5.1469222 35.183166 4.466104 35.19182 3.90625 35.15625 C 4.2066125 35.696581 4.5337253 36.206243 4.875 36.71875 C 4.9237959 36.709438 4.9486755 36.697108 5 36.6875 C 5.813 36.5355 6.895 36.329 7.875 36.125 C 8.859 35.918 9.81975 35.69225 10.59375 35.53125 C 11.06675 35.42925 11.227 35.39875 11.5 35.34375 C 11.648 35.46875 11.83225 35.539 12.03125 35.625 C 12.42225 35.801 12.98025 35.87525 13.53125 35.90625 C 13.74225 36.00825 13.97625 36.117 14.15625 36.125 C 14.44525 36.141 14.72225 36.07825 15.03125 36.03125 C 15.64825 35.94125 16.36675 35.7775 17.09375 35.5625 C 17.82075 35.3515 18.532 35.09775 19.125 34.84375 C 19.422 34.71875 19.7145 34.60175 19.9375 34.46875 C 20.0195 34.42175 20.08525 34.33225 20.15625 34.28125 C 20.59025 34.31625 20.96175 34.36275 21.46875 34.34375 C 22.16775 34.32075 23.0235 34.24175 23.8125 34.21875 C 25.3865 34.17575 26.92525 34.2925 27.65625 34.6875 C 27.76925 34.7615 27.9105 34.8045 28.0625 34.8125 C 28.5035 34.8045 29.0505 34.735 29.6875 34.625 C 30.3205 34.52 31.02375 34.363 31.71875 34.25 C 32.40975 34.141 33.07025 34.05925 33.53125 34.03125 C 33.76125 34.01925 33.89875 34.02325 33.96875 34.03125 C 34.19575 34.19125 34.5315 34.23 34.8125 34.125 L 34.84375 34.125 C 35.53175 34.453 36.40675 34.5695 37.21875 34.5625 C 37.62475 34.5625 38.004 34.52325 38.375 34.40625 C 38.648 34.32025 38.8945 34.15225 39.0625 33.90625 C 39.5075 33.65625 39.81275 33.39025 39.96875 33.15625 C 41.32075 32.98825 42.914 33 44.375 33 C 44.658768 33.000788 44.913745 33.001949 45.1875 33 C 45.468284 32.339645 45.718507 31.659107 45.9375 30.96875 z "
     id="path45" />
  <path
     style="opacity:0.1;fill:#000000;fill-opacity:1;fill-rule:nonzero;stroke:none"
     inkscape:connector-curvature="0"
     id="path49"
     d="m 33.91,18 c -0.523,0.047 -0.926,0.492 -0.914,1.02 0.008,0.547 0.457,0.984 1.012,0.98 l 3,0 c 1.113,0 2,0.883 2,1.996 0,1.098 -0.855,1.969 -1.941,2 -0.02,0 -0.043,0 -0.063,0 -0.031,0 -0.066,0 -0.098,0 l -2.898,0 c -0.273,-0.004 -0.531,0.105 -0.723,0.297 -0.188,0.191 -0.293,0.453 -0.289,0.723 0,0.266 0.105,0.523 0.301,0.711 0.188,0.188 0.438,0.293 0.711,0.289 l 2.918,0 c 0.004,0 0.008,0 0.016,0 l 0.063,0 c 1.117,0 2,0.883 2,2 0,1.094 -0.852,1.965 -1.941,1.996 -0.02,0 -0.039,0 -0.063,0 -0.031,0 -0.063,0 -0.09,0 l -2.906,0 c -0.273,-0.004 -0.531,0.102 -0.723,0.293 -0.191,0.195 -0.297,0.453 -0.293,0.727 0,0.027 0,0.059 0,0.09 0.059,0.516 0.496,0.898 1.016,0.891 l 2.918,0 c 0.027,0 0.051,0 0.078,0 0.066,0 0.137,-0.004 0.203,-0.016 2.102,-0.105 3.793,-1.855 3.793,-3.98 0,-1.191 -0.523,-2.266 -1.355,-3 0.836,-0.73 1.355,-1.805 1.355,-3 0,-2.172 -1.762,-3.957 -3.918,-4 -0.008,0 -0.012,0 -0.016,0 -0.023,0 -0.039,0 -0.066,0 -0.027,0 -0.063,0 -0.09,0 l -2.902,0 c -0.031,0 -0.066,0 -0.098,0 m -11.984,2.992 c -0.527,0.039 -0.938,0.484 -0.926,1.012 l 0,2.141 c -1.715,0.449 -3,2.01 -3,3.859 -0.012,0.516 0.375,0.957 0.895,1.016 0.031,0 0.063,0 0.094,0 0.273,0.004 0.531,-0.102 0.719,-0.293 0.191,-0.188 0.301,-0.453 0.293,-0.723 0,-1.074 0.82,-1.922 1.875,-1.984 0.008,0 0.012,0 0.016,0 0.027,0 0.063,0 0.094,0 0.035,0 0.074,0 0.109,0 0.008,0 0.012,0 0.016,0 1.063,0.063 1.887,0.906 1.887,1.984 0,0.551 0.449,0.996 1,0.996 0.551,0 1,-0.445 1,-0.996 0,-1.852 -1.281,-3.41 -3,-3.859 l 0,-2.141 C 23.003,21.74 22.89,21.47 22.686,21.279 22.483,21.091 22.206,20.986 21.928,21.009 M 10.01,21.021 c -0.559,0 -1,0.445 -1,1 0,0.41 0.238,0.77 0.594,0.922 -0.375,0.605 -0.594,1.316 -0.594,2.074 0,2.199 1.805,4 3.996,4 2.195,0 4,-1.801 4,-4 0,-0.758 -0.227,-1.469 -0.598,-2.074 0.355,-0.156 0.598,-0.512 0.598,-0.922 0,-0.555 -0.449,-1 -1,-1 m 13.992,0 c -0.555,0 -1,0.445 -1,1 l 0,6 c 0,0.551 0.445,0.996 1,0.996 0.555,0 1,-0.445 1,-0.996 l 0,-6 c 0,-0.555 -0.445,-1 -1,-1 m -16.992,2 c 1.113,0 2,0.883 2,1.996 0,1.117 -0.887,2 -2,2 -1.113,0 -1.996,-0.883 -1.996,-2 0,-1.113 0.883,-1.996 1.996,-1.996 m 0,0" />
  <path
     style="fill:#aba19a;fill-opacity:1;fill-rule:nonzero;stroke:none"
     d="M 4.625 11.625 C 2.3430102 15.196352 1 19.447294 1 24 C 1 28.252663 2.1754955 32.238964 4.1875 35.65625 C 4.9789403 35.507665 5.958564 35.315768 6.875 35.125 C 7.859 34.918 8.81975 34.69225 9.59375 34.53125 C 10.06675 34.42925 10.227 34.39875 10.5 34.34375 C 10.648 34.46875 10.83225 34.539 11.03125 34.625 C 11.42225 34.801 11.98025 34.87525 12.53125 34.90625 C 12.74225 35.00825 12.97625 35.117 13.15625 35.125 C 13.44525 35.141 13.72225 35.07825 14.03125 35.03125 C 14.64825 34.94125 15.36675 34.7775 16.09375 34.5625 C 16.82075 34.3515 17.532 34.09775 18.125 33.84375 C 18.422 33.71875 18.7145 33.60175 18.9375 33.46875 C 19.0195 33.42175 19.08525 33.33225 19.15625 33.28125 C 19.59025 33.31625 19.96175 33.36275 20.46875 33.34375 C 21.16775 33.32075 22.0235 33.24175 22.8125 33.21875 C 24.3865 33.17575 25.92525 33.2925 26.65625 33.6875 C 26.76925 33.7615 26.9105 33.8045 27.0625 33.8125 C 27.5035 33.8045 28.0505 33.735 28.6875 33.625 C 29.3205 33.52 30.02375 33.363 30.71875 33.25 C 31.40975 33.141 32.07025 33.05925 32.53125 33.03125 C 32.76125 33.01925 32.89875 33.02325 32.96875 33.03125 C 33.19575 33.19125 33.5315 33.23 33.8125 33.125 L 33.84375 33.125 C 34.53175 33.453 35.40675 33.5695 36.21875 33.5625 C 36.62475 33.5625 37.004 33.52325 37.375 33.40625 C 37.648 33.32025 37.8945 33.15225 38.0625 32.90625 C 38.5075 32.65625 38.81275 32.39025 38.96875 32.15625 C 40.32075 31.98825 41.914 32 43.375 32 C 44.144267 32.002135 44.87928 31.993788 45.5625 31.9375 C 46.474377 29.460777 47 26.793297 47 24 C 47 20.874108 46.379447 17.904431 45.25 15.1875 C 45.248518 15.183934 45.220234 15.191065 45.21875 15.1875 C 44.76975 15.2145 44.207 15.222 43.625 15.25 C 43.039 15.281 42.45275 15.344 41.96875 15.375 C 41.72275 15.395 41.4955 15.38725 41.3125 15.40625 C 41.1675 15.42625 41.0855 15.465 40.9375 15.5 C 40.9255 15.504 40.85175 15.5 40.84375 15.5 C 40.46475 15.547 40.01925 15.3835 39.28125 15.0625 C 38.52325 14.7385 37.55425 14.24925 36.40625 13.90625 C 36.34725 13.89025 36.28575 13.883 36.21875 13.875 C 34.92175 13.789 33.6205 14.211 32.3125 14.5 C 31.0075 14.793 29.78575 14.94925 28.84375 14.65625 C 28.69175 14.62125 28.528 14.62125 28.375 14.65625 C 27.273 14.84425 26.21925 14.609 25.15625 14.25 C 24.17225 13.918 23.22675 13.46875 22.34375 13.21875 C 22.27775 13.18375 22.192 13.18725 22.125 13.15625 C 20.203 12.28525 17.676 12.2935 15.875 12.8125 C 13.281 12.3635 10.1485 11.89475 7.0625 11.71875 C 6.2695 11.67575 5.48475 11.641 4.71875 11.625 C 4.6866729 11.624333 4.6569947 11.625531 4.625 11.625 z "
     id="path57" />
  <path
     style="fill:#c6935f;fill-opacity:1;fill-rule:nonzero;stroke:none"
     d="M 3.78125 13.0625 C 2.0191729 16.315675 1 20.040237 1 24 C 1 28.04939 2.0691606 31.851454 3.90625 35.15625 C 6.145666 35.298532 10.413246 34.901352 11.25 34.28125 C 11.594 34.02725 13.0035 34.13325 13.3125 33.90625 C 13.3635 33.86725 18.58525 33.3715 19.28125 33.3125 C 21.34725 33.1325 24.33125 33.019 26.28125 33.5 C 26.60925 33.582 32.33775 32.9925 32.71875 32.9375 C 33.46475 32.8245 34.32775 32.864 35.09375 32.75 C 35.69875 32.66 36.29625 32.24625 36.90625 32.15625 C 37.52325 32.06225 38.64475 32.36725 39.21875 32.15625 C 41.268768 31.398635 44.056482 31.594132 45.9375 30.96875 C 46.63421 28.77243 47 26.427006 47 24 C 47 21.266412 46.500027 18.650871 45.625 16.21875 C 44.460592 16.109684 42.81856 16.005135 41.84375 15.71875 C 40.42975 15.30075 38.48025 14.84775 36.90625 14.71875 C 34.08625 14.48475 31.17975 14.72325 28.34375 14.53125 C 25.87875 14.36325 23.49575 14.07425 21.09375 13.78125 C 19.26175 13.55425 17.231 13.88625 15.375 13.78125 C 11.75351 13.575942 7.6597691 13.13308 3.78125 13.0625 z "
     id="path59" />
  <path
     style="fill:#f9f9f9;fill-opacity:1;fill-rule:nonzero;stroke:none"
     inkscape:connector-curvature="0"
     id="path61"
     d="m 32.91,17 c -0.523,0.047 -0.926,0.492 -0.914,1.02 0.008,0.547 0.457,0.984 1.012,0.98 l 3,0 c 1.113,0 2,0.883 2,1.996 0,1.098 -0.855,1.969 -1.941,2 -0.02,0 -0.043,0 -0.063,0 -0.031,0 -0.066,0 -0.098,0 l -2.898,0 c -0.273,-0.004 -0.531,0.105 -0.723,0.297 -0.188,0.191 -0.293,0.453 -0.289,0.723 0,0.266 0.105,0.523 0.301,0.711 0.188,0.188 0.438,0.293 0.711,0.289 l 2.918,0 c 0.004,0 0.008,0 0.016,0 l 0.063,0 c 1.117,0 2,0.883 2,2 0,1.094 -0.852,1.965 -1.941,1.996 -0.02,0 -0.039,0 -0.063,0 -0.031,0 -0.063,0 -0.09,0 l -2.906,0 c -0.273,-0.004 -0.531,0.102 -0.723,0.293 -0.191,0.195 -0.297,0.453 -0.293,0.727 0,0.027 0,0.059 0,0.09 0.059,0.516 0.496,0.898 1.016,0.891 l 2.918,0 c 0.027,0 0.051,0 0.078,0 0.066,0 0.137,-0.004 0.203,-0.016 2.102,-0.105 3.793,-1.855 3.793,-3.98 0,-1.191 -0.523,-2.266 -1.355,-3 0.836,-0.73 1.355,-1.805 1.355,-3 0,-2.172 -1.762,-3.957 -3.918,-4 -0.008,0 -0.012,0 -0.016,0 -0.023,0 -0.039,0 -0.066,0 -0.027,0 -0.063,0 -0.09,0 l -2.902,0 c -0.031,0 -0.066,0 -0.098,0 m -11.984,2.992 c -0.527,0.039 -0.938,0.484 -0.926,1.012 l 0,2.141 c -1.715,0.449 -3,2.01 -3,3.859 -0.012,0.516 0.375,0.957 0.895,1.016 0.031,0 0.063,0 0.094,0 0.273,0.004 0.531,-0.102 0.719,-0.293 0.191,-0.188 0.301,-0.453 0.293,-0.723 0,-1.074 0.82,-1.922 1.875,-1.984 0.008,0 0.012,0 0.016,0 0.027,0 0.063,0 0.094,0 0.035,0 0.074,0 0.109,0 0.008,0 0.012,0 0.016,0 1.063,0.063 1.887,0.906 1.887,1.984 0,0.551 0.449,0.996 1,0.996 0.551,0 1,-0.445 1,-0.996 0,-1.852 -1.281,-3.41 -3,-3.859 l 0,-2.141 C 22.003,20.74 21.89,20.47 21.686,20.279 21.483,20.091 21.206,19.986 20.928,20.009 M 9.01,20.021 c -0.559,0 -1,0.445 -1,1 0,0.41 0.238,0.77 0.594,0.922 -0.375,0.605 -0.594,1.316 -0.594,2.074 0,2.199 1.805,4 3.996,4 2.195,0 4,-1.801 4,-4 0,-0.758 -0.227,-1.469 -0.598,-2.074 0.355,-0.156 0.598,-0.512 0.598,-0.922 0,-0.555 -0.449,-1 -1,-1 m 13.992,0 c -0.555,0 -1,0.445 -1,1 l 0,6 c 0,0.551 0.445,0.996 1,0.996 0.555,0 1,-0.445 1,-0.996 l 0,-6 c 0,-0.555 -0.445,-1 -1,-1 m -16.992,2 c 1.113,0 2,0.883 2,1.996 0,1.117 -0.887,2 -2,2 -1.113,0 -1.996,-0.883 -1.996,-2 0,-1.113 0.883,-1.996 1.996,-1.996 m 0,0" />
  <g
     id="g63">
    <path
       d="m 40.03 7.531 c 3.712 4.084 5.969 9.514 5.969 15.469 0 12.703 -10.297 23 -23 23 c -5.954 0 -11.384 -2.256 -15.469 -5.969 4.178 4.291 10.01 6.969 16.469 6.969 c 12.703 0 23 -10.298 23 -23 0 -6.462 -2.677 -12.291 -6.969 -16.469 z"
       opacity="0.1"
       id="path65" />
  </g>
</svg>
