<?xml version="1.0" encoding="UTF-8" standalone="no"?>
<svg
   xmlns:dc="http://purl.org/dc/elements/1.1/"
   xmlns:cc="http://creativecommons.org/ns#"
   xmlns:rdf="http://www.w3.org/1999/02/22-rdf-syntax-ns#"
   xmlns:svg="http://www.w3.org/2000/svg"
   xmlns="http://www.w3.org/2000/svg"
   xmlns:xlink="http://www.w3.org/1999/xlink"
   xmlns:sodipodi="http://sodipodi.sourceforge.net/DTD/sodipodi-0.dtd"
   xmlns:inkscape="http://www.inkscape.org/namespaces/inkscape"
   width="48"
   viewBox="0 0 13.546667 13.546667"
   height="48"
   id="svg2"
   version="1.1"
   inkscape:version="0.48.4 r9939"
   sodipodi:docname="aptoncd.svg"
   inkscape:export-filename="/home/nathanel/GitHub/furiusisomount.png"
   inkscape:export-xdpi="391.31"
   inkscape:export-ydpi="391.31">
  <metadata
     id="metadata22">
    <rdf:RDF>
      <cc:Work
         rdf:about="">
        <dc:format>image/svg+xml</dc:format>
        <dc:type
           rdf:resource="http://purl.org/dc/dcmitype/StillImage" />
        <dc:title />
      </cc:Work>
    </rdf:RDF>
  </metadata>
  <sodipodi:namedview
     pagecolor="#ffffff"
     bordercolor="#666666"
     borderopacity="1"
     objecttolerance="10"
     gridtolerance="10"
     guidetolerance="10"
     inkscape:pageopacity="0"
     inkscape:pageshadow="2"
     inkscape:window-width="1280"
     inkscape:window-height="998"
     id="namedview20"
     showgrid="false"
     inkscape:zoom="5.6568543"
     inkscape:cx="-7.097644"
     inkscape:cy="28.853357"
     inkscape:window-x="0"
     inkscape:window-y="0"
     inkscape:window-maximized="1"
     inkscape:current-layer="svg2">
    <inkscape:grid
       type="xygrid"
       id="grid2999" />
  </sodipodi:namedview>
  <defs
     id="defs4">
    <linearGradient
       id="linearGradient4460">
      <stop
         offset="0"
         style="stop-color:#cacaca;stop-opacity:1;"
         id="stop7" />
      <stop
         offset="1"
         style="stop-color:#eaeaea;stop-opacity:1;"
         id="stop9" />
    </linearGradient>
    <linearGradient
       gradientTransform="matrix(1.10525,0,0,1.10525,-134.27874,-295.76183)"
       xlink:href="#linearGradient4460"
       id="linearGradient3004"
       y1="279.096"
       y2="268.33"
       gradientUnits="userSpaceOnUse"
       x2="0" />
    <linearGradient
       inkscape:collect="always"
       xlink:href="#linearGradient4460"
       id="linearGradient3774"
       gradientUnits="userSpaceOnUse"
       gradientTransform="matrix(0.78941985,0,0,0.78941991,-93.972476,-209.31107)"
       y1="279.096"
       x2="0"
       y2="268.33" />
    <linearGradient
       gradientTransform="matrix(0,1,-1,0,13.54723,-2.57951)"
       xlink:href="#linearGradient3789"
       id="linearGradient3795"
       x1="2.1370001"
       x2="13.99"
       gradientUnits="userSpaceOnUse" />
    <linearGradient
       id="linearGradient3789">
      <stop
         offset="0"
         style="stop-color:#46a1d2"
         id="stop7-4" />
      <stop
         offset="1"
         style="stop-color:#2b82b1"
         id="stop9-8" />
    </linearGradient>
    <linearGradient
       inkscape:collect="always"
       xlink:href="#linearGradient3789"
       id="linearGradient3021"
       gradientUnits="userSpaceOnUse"
       gradientTransform="matrix(0,1,-1,0,12.256327,-1.2900377)"
       x1="2.1370001"
       x2="13.99" />
    <linearGradient
       inkscape:collect="always"
       xlink:href="#linearGradient4460-6"
       id="linearGradient3020"
       gradientUnits="userSpaceOnUse"
       gradientTransform="matrix(1.10525,0,0,1.10525,-134.27874,-295.76115)"
       y1="279.09601"
       x2="0"
       y2="268.32999" />
    <linearGradient
       id="linearGradient4460-6">
      <stop
         offset="0"
         style="stop-color:#4ba49f;stop-opacity:1;"
         id="stop8" />
      <stop
         offset="1"
         style="stop-color:#52bfb9;stop-opacity:1;"
         id="stop10" />
    </linearGradient>
    <linearGradient
       y2="268.32999"
       x2="0"
       y1="279.09601"
       gradientTransform="matrix(1.10525,0,0,1.10525,-134.27908,-295.76115)"
       gradientUnits="userSpaceOnUse"
       id="linearGradient3054"
       xlink:href="#linearGradient4460-6"
       inkscape:collect="always" />
  </defs>
  <rect
     id="rect14"
     style="opacity:0.5;fill:#ffffff;fill-rule:evenodd"
     height="12.982"
     rx="6.4910002"
     y="0.28200001"
     x="0.28200001"
     width="12.982" />
  <rect
     id="rect16-2"
     style="fill:url(#linearGradient3054);fill-rule:evenodd"
     height="11.853"
     rx="5.9259996"
     y="0.8470006"
     x="0.84666669"
     width="11.853" />
  <rect
     id="rect16"
     style="fill:url(#linearGradient3774);fill-rule:evenodd"
     height="8.4659529"
     rx="4.2326188"
     y="2.5404763"
     x="2.5404768"
     width="8.4659519" />
  <path
     inkscape:connector-curvature="0"
     style="fill:#ffffff;fill-opacity:0.49803922;stroke:none"
     d="M 9.7438069,9.8061421 C 9.9389567,9.610992 10.114486,9.3953309 10.269522,9.1658469 10.424557,8.936364 10.55804,8.6892267 10.667178,8.431193 c 0.10914,-0.2580336 0.191919,-0.5279908 0.249379,-0.8087937 0.05745,-0.280802 0.08762,-0.5716628 0.08762,-0.8694527 l -3.0194944,0 c 0,0.1786741 -0.035612,0.3506757 -0.1010995,0.5054957 -0.065489,0.1548206 -0.1592508,0.2940466 -0.2763406,0.4111366 l 2.1365627,2.1365632 z"
     id="path4805" />
  <path
     inkscape:connector-curvature="0"
     style="fill:#ffffff;fill-opacity:0.49803922;stroke:none"
     d="M 3.8094553,3.7512751 C 3.6151031,3.9456268 3.4402916,4.1604059 3.2858896,4.3889509 3.1314883,4.6174953 2.998552,4.8636215 2.8898594,5.1206001 2.7811667,5.3775786 2.6987264,5.6464317 2.6415009,5.9260861 2.5842748,6.2057398 2.5542402,6.4954109 2.5542402,6.7919828 l 3.0071457,0 c 0,-0.1779432 0.035467,-0.3492414 0.100685,-0.5034281 0.065218,-0.1541876 0.1585963,-0.2928442 0.275208,-0.4094551 L 3.8094553,3.7512751 z"
     id="path4810" />
  <path
     sodipodi:type="arc"
     style="fill:#999999;fill-opacity:0.49803922;stroke:none"
     id="path3993"
     sodipodi:cx="-104.20721"
     sodipodi:cy="-5.2072096"
     sodipodi:rx="4.7927904"
     sodipodi:ry="4.7927904"
     d="m -99.414416,-5.2072096 a 4.7927904,4.7927904 0 1 1 -9.585584,0 4.7927904,4.7927904 0 1 1 9.585584,0 z"
     transform="matrix(0.25234897,0,0,0.25234899,33.069797,8.0873678)" />
  <path
     inkscape:connector-curvature="0"
     style="fill:#ffffff;fill-opacity:0.49803922;stroke:none"
     d="M 5.6770268,7.2708551 2.9179556,8.5244065 c 0.2116931,0.465673 0.5059244,0.883879 0.8629972,1.240951 L 5.9163983,7.6299121 C 5.8143983,7.5279128 5.7375077,7.4038719 5.6770268,7.2708551 z"
     id="path4869" />
  <path
     inkscape:connector-curvature="0"
     style="fill:#ffffff;fill-opacity:0.49803922;stroke:none"
     d="M 9.7652388,3.7810713 7.629794,5.916517 C 7.7317933,6.0185162 7.8086846,6.1425571 7.8691655,6.2755739 L 10.628236,5.022023 C 10.416543,4.5563491 10.122312,4.1381441 9.7652388,3.7810713 z"
     id="path4851" />
  <path
     sodipodi:type="arc"
     style="fill:#999999;fill-opacity:0.49803922;stroke:none"
     id="path3490"
     sodipodi:cx="23.5"
     sodipodi:cy="24"
     sodipodi:rx="21.5"
     sodipodi:ry="21"
     d="m 45,24 a 21.5,21 0 0 1 -0.767571,5.561133 L 23.5,24 z"
     transform="matrix(0.19688815,0,0,0.20157598,2.1467005,1.9356292)"
     sodipodi:start="0"
     sodipodi:end="0.26801294" />
  <path
     sodipodi:end="0.26801294"
     sodipodi:start="0"
     transform="matrix(-0.19688815,0,0,-0.20157598,11.399967,11.611038)"
     d="m 45,24 a 21.5,21 0 0 1 -0.767571,5.561133 L 23.5,24 z"
     sodipodi:ry="21"
     sodipodi:rx="21.5"
     sodipodi:cy="24"
     sodipodi:cx="23.5"
     id="path3492"
     style="fill:#999999;fill-opacity:0.49803922;stroke:none"
     sodipodi:type="arc" />
  <path
     inkscape:connector-curvature="0"
     id="path4159"
     d="m 6.7732151,6.1686057 c 0.1670963,0 0.3189413,0.066975 0.4283494,0.1763786 0.1094074,0.1094082 0.1763787,0.2612532 0.1763787,0.4283488 0,0.1670963 -0.066968,0.3189414 -0.1763787,0.4283488 C 7.0921564,7.31109 6.9403114,7.3780612 6.7732151,7.3780612 6.6061195,7.3780612 6.4542745,7.3110862 6.3448663,7.2016819 6.2354582,7.0922745 6.1684877,6.9404294 6.1684877,6.7733331 c 0,-0.1670956 0.066968,-0.3189406 0.1763786,-0.4283488 C 6.4542745,6.2355762 6.6061195,6.1686057 6.7732151,6.1686057 z"
     style="fill:#ffffff;fill-opacity:0.49803922;fill-rule:nonzero;stroke:none" />
  <path
     style="fill:#e65b42;fill-opacity:1;stroke:none"
     d="m 5.9263342,3.9511118 1.693333,0 0,3.668889 1.411111,0 -2.257778,1.9755556 -2.257777,-1.9755556 1.411111,0 z"
     id="path3068"
     inkscape:connector-curvature="0"
     sodipodi:nodetypes="cccccccc" />
</svg>
