<svg xmlns="http://www.w3.org/2000/svg" width="48" viewBox="0 0 13.546667 13.546667" height="48"><defs><radialGradient cx="-3" cy="24" r="10" gradientUnits="userSpaceOnUse"><stop stop-color="#91b0c7"/><stop offset="1" stop-color="#91b0c7" stop-opacity="0"/></radialGradient><linearGradient id="linearGradient4079" y1="15" x2="0" y2="11" gradientUnits="userSpaceOnUse"><stop stop-color="#b2c1ca" stop-opacity="1"/><stop offset="1" stop-color="#becbd2" stop-opacity="1"/></linearGradient></defs><g display="inline"><path d="m 25 2 c -12.703 0 -23 10.297 -23 23 0 6.367 2.601 12.12 6.781 16.281 4.085 3.712 9.514 5.969 15.469 5.969 c 12.703 0 23 -10.297 23 -23 0 -5.954 -2.256 -11.384 -5.969 -15.469 c -4.165 -4.181 -9.914 -6.781 -16.281 -6.781 z m 16.281 6.781 c 3.854 4.113 6.219 9.637 6.219 15.719 c 0 12.703 -10.297 23 -23 23 c -6.081 0 -11.606 -2.364 -15.719 -6.219 4.16 4.144 9.883 6.719 16.219 6.719 12.703 0 23 -10.297 23 -23 0 -6.335 -2.575 -12.06 -6.719 -16.219 z" transform="scale(0.28222223,0.28222223)" opacity="0.05" fill="#000" stroke="none" fill-opacity="1"/><path d="m 41.28 8.781 c 3.712 4.085 5.969 9.514 5.969 15.469 c 0 12.703 -10.297 23 -23 23 -5.954 0 -11.384 -2.256 -15.469 -5.969 c 4.113 3.854 9.637 6.219 15.719 6.219 c 12.703 0 23 -10.297 23 -23 0 -6.081 -2.364 -11.606 -6.219 -15.719 z" transform="scale(0.28222223,0.28222223)" opacity="0.1" fill="#000" stroke="none" fill-opacity="1"/><path transform="matrix(4.3274074,0,0,3.2455556,117.19278,-35.348334)" d="m -24 13 a 1.5 2 0 1 1 -3 0 1.5 2 0 1 1 3 0 z" opacity="0.2" fill="#000" stroke="none" fill-opacity="1"/></g><g display="inline"><path d="m -24 13 a 1.5 2 0 1 1 -3 0 1.5 2 0 1 1 3 0 z" transform="matrix(4.3274075,0,0,3.2455556,117.12222,-35.418889)" fill="url(#linearGradient4079)" stroke="none" fill-opacity="1"/><path d="m 40.03 7.531 c 3.712 4.085 5.969 9.514 5.969 15.469 0 12.703 -10.297 23 -23 23 -5.954 0 -11.384 -2.256 -15.469 -5.969 4.178 4.291 10.01 6.969 16.469 6.969 12.703 0 23 -10.297 23 -23 0 -6.462 -2.677 -12.291 -6.969 -16.469 z" transform="scale(0.28222223,0.28222223)" opacity="0.1" fill="#000" stroke="none" fill-opacity="1"/></g><g display="inline"><g><path d="m 33.474 26.25 0 12.501 -11.669 0 0 125.01 11.669 0 0 12.501 116.69 0 0 -12.501 11.669 0 0 -125.01 -11.669 0 0 -12.501 z" transform="matrix(0.04837074,0,0,0.04515119,2.6141654,2.4836422)" fill="#000" fill-opacity="0.098"/><g><rect width="5.644" height="4.798" x="3.951" y="3.951" fill="#fff" fill-rule="nonzero" stroke="none" fill-opacity="1" rx="0.003"/><g transform="matrix(0.04837074,0,0,0.04515119,2.6141654,2.4836422)"><path d="m 27.64 20 0 12.501 -11.669 0 0 125.01 11.669 0 0 12.501 116.69 0 0 -12.501 11.669 0 0 -125.01 -11.669 0 0 -12.501 z m 11.669 12.501 93.35 0 0 12.501 11.669 0 0 81.26 -11.669 0 0 12.501 -93.35 0 0 -12.501 -11.669 0 0 -81.26 11.669 0 z" fill="#859fad" fill-opacity="1"/><path d="m 39.31 157.51 -11.669 0 0 -12.501 -11.669 0 0 -100.01 11.669 0 0 -12.501 11.669 0 0 -12.501 93.35 0 0 12.501 11.669 0 0 12.501 11.669 0 0 100.01 -11.669 0 0 12.501 -11.669 0 0 12.501 -93.35 0 z m 93.35 -12.501 11.669 0 0 -100.01 -11.669 0 0 -12.501 -93.35 0 0 12.501 -11.669 0 0 100.01 11.669 0 0 12.501 93.35 0 z m -75.849 -87.51 11.669 0 0 43.754 -11.669 0 z m 46.677 0 11.669 0 0 43.754 -11.669 0 z" fill="#645460"/></g></g></g></g></svg>