<svg xmlns="http://www.w3.org/2000/svg" viewBox="0 0 48 48">
  <defs>
    <linearGradient id="a" x1="1" x2="47" gradientUnits="userSpaceOnUse" gradientTransform="rotate(-90 24 24)">
      <stop stop-color="#e22137"/>
      <stop offset="1" stop-color="#b40e2c"/>
    </linearGradient>
  </defs>
  <g>
    <path d="M36.31 5c5.859 4.062 9.688 10.831 9.688 18.5 0 12.426-10.07 22.5-22.5 22.5-7.669 0-14.438-3.828-18.5-9.688 1.037 1.822 2.306 3.499 3.781 4.969 4.085 3.712 9.514 5.969 15.469 5.969 12.703 0 23-10.298 23-23 0-5.954-2.256-11.384-5.969-15.469C39.81 7.306 38.132 6.037 36.31 5zm4.969 3.781c3.854 4.113 6.219 9.637 6.219 15.719 0 12.703-10.297 23-23 23-6.081 0-11.606-2.364-15.719-6.219C12.939 45.425 18.662 48 24.998 48c12.703 0 23-10.298 23-23 0-6.335-2.575-12.06-6.719-16.219z" opacity=".05"/>
    <path d="M41.28 8.781c3.712 4.085 5.969 9.514 5.969 15.469 0 12.703-10.297 23-23 23-5.954 0-11.384-2.256-15.469-5.969 4.113 3.854 9.637 6.219 15.719 6.219 12.703 0 23-10.298 23-23 0-6.081-2.364-11.606-6.219-15.719z" opacity=".1"/>
    <path d="M31.25 2.375C39.865 5.529 46 13.792 46 23.505c0 12.426-10.07 22.5-22.5 22.5-9.708 0-17.971-6.135-21.12-14.75a23 23 0 0 0 44.875-7 23 23 0 0 0-16-21.875z" opacity=".2"/>
  </g>
  <g>
    <path d="M24 1c12.703 0 23 10.297 23 23S36.703 47 24 47 1 36.703 1 24 11.297 1 24 1z" fill="url(#a)"/>
  </g>
  <g>
    <path d="M40.03 7.531c3.712 4.084 5.969 9.514 5.969 15.469 0 12.703-10.297 23-23 23-5.954 0-11.384-2.256-15.469-5.969C11.708 44.322 17.54 47 23.999 47c12.703 0 23-10.298 23-23 0-6.462-2.677-12.291-6.969-16.469z" opacity=".1"/>
  </g>
  <g opacity=".1">
    <path d="M35.33430775 27.8692664c.9178676 0 1.664012.746854 1.664012 1.6646329 0 .9175128-.7461444 1.6641007-1.664012 1.6641007s-1.6647216-.7465879-1.6647216-1.6641007c.0000887-.9177789.746854-1.6646329 1.6647216-1.6646329m-4.5337231 0c.9173354 0 1.6638346.746854 1.6638346 1.6646329 0 .9175128-.7464992 1.6641007-1.6638346 1.6641007-.9176902 0-1.6641894-.7465879-1.6641894-1.6641007 0-.9177789.7464992-1.6646329 1.6641894-1.6646329m-13.6007258 0c.9175128 0 1.664012.746854 1.664012 1.6646329 0 .9175128-.7465879 1.6641007-1.664012 1.6641007-.9176902 0-1.6643668-.7465879-1.6643668-1.6641007.0000887-.9177789.7466766-1.6646329 1.6643668-1.6646329m-4.5332796 0c.917158 0 1.6637459.746854 1.6637459 1.6646329 0 .9175128-.7465879 1.6641007-1.6637459 1.6641007-.9183998 0-1.664899-.7465879-1.664899-1.6641007 0-.9177789.7464992-1.6646329 1.664899-1.6646329m22.6677285-4.5336344c.9178676 0 1.664012.7465879 1.664012 1.6641894 0 .9178676-.7461444 1.6639233-1.664012 1.6639233s-1.6647216-.7460557-1.6647216-1.6639233c.0000887-.9176015.746854-1.6641894 1.6647216-1.6641894m-4.5337231 0c.9173354 0 1.6638346.7465879 1.6638346 1.6641894 0 .9178676-.7464992 1.6639233-1.6638346 1.6639233-.9176902 0-1.6641894-.7460557-1.6641894-1.6639233 0-.9176015.7464992-1.6641894 1.6641894-1.6641894m-4.5331022 0c.9166258 0 1.6629476.7465879 1.6629476 1.6641894 0 .9178676-.7463218 1.6639233-1.6629476 1.6639233-.9184885 0-1.6646329-.7460557-1.6646329-1.6639233.0000887-.9176015.7461444-1.6641894 1.6646329-1.6641894m-4.5342553 0c.9179563 0 1.6637459.7465879 1.6637459 1.6641894 0 .9178676-.7457896 1.6639233-1.6637459 1.6639233-.9174241 0-1.6638346-.7460557-1.6638346-1.6639233-.0000887-.9176015.7464105-1.6641894 1.6638346-1.6641894m-4.5333683 0c.9175128 0 1.664012.7465879 1.664012 1.6641894 0 .9178676-.7465879 1.6639233-1.664012 1.6639233-.9176902 0-1.6643668-.7460557-1.6643668-1.6639233.0000887-.9176015.7466766-1.6641894 1.6643668-1.6641894m13.6007258-4.5340779c.9173354 0 1.6638346.7464105 1.6638346 1.6641007 0 .9176902-.7464992 1.6641894-1.6638346 1.6641894-.9176902 0-1.6641894-.7464992-1.6641894-1.6641894 0-.9176902.7464992-1.6641007 1.6641894-1.6641007m-4.5331022 0c.9166258 0 1.6629476.7464105 1.6629476 1.6641007 0 .9176902-.7463218 1.6641894-1.6629476 1.6641894-.9184885 0-1.6646329-.7464992-1.6646329-1.6641894 0-.9176902.7461444-1.6641007 1.6646329-1.6641007m-4.5342553 0c.9179563 0 1.6637459.7464105 1.6637459 1.6641007 0 .9176902-.7457896 1.6641894-1.6637459 1.6641894-.9174241 0-1.6638346-.7464992-1.6638346-1.6641894 0-.9176902.7464105-1.6641007 1.6638346-1.6641007m-4.5333683 0c.9175128 0 1.664012.7464105 1.664012 1.6641007 0 .9176902-.7465879 1.6641894-1.664012 1.6641894-.9176902 0-1.6643668-.7464992-1.6643668-1.6641894 0-.9176902.7466766-1.6641007 1.6643668-1.6641007m-4.5332796 4.5340779c.917158 0 1.6637459.7465879 1.6637459 1.6641894 0 .9178676-.7465879 1.6639233-1.6637459 1.6639233-.9183998 0-1.664899-.7460557-1.664899-1.6639233 0-.9176015.7464992-1.6641894 1.664899-1.6641894"/>
  </g>
  <g fill="#fff">
    <path d="M35.33430775 26.86948935c.9178676 0 1.664012.746854 1.664012 1.6646329 0 .9175128-.7461444 1.6641007-1.664012 1.6641007s-1.6647216-.7465879-1.6647216-1.6641007c.0000887-.9177789.746854-1.6646329 1.6647216-1.6646329m-4.5337231 0c.9173354 0 1.6638346.746854 1.6638346 1.6646329 0 .9175128-.7464992 1.6641007-1.6638346 1.6641007-.9176902 0-1.6641894-.7465879-1.6641894-1.6641007 0-.9177789.7464992-1.6646329 1.6641894-1.6646329m-13.6007258 0c.9175128 0 1.664012.746854 1.664012 1.6646329 0 .9175128-.7465879 1.6641007-1.664012 1.6641007-.9176902 0-1.6643668-.7465879-1.6643668-1.6641007.0000887-.9177789.7466766-1.6646329 1.6643668-1.6646329m-4.5332796 0c.917158 0 1.6637459.746854 1.6637459 1.6646329 0 .9175128-.7465879 1.6641007-1.6637459 1.6641007-.9183998 0-1.664899-.7465879-1.664899-1.6641007 0-.9177789.7464992-1.6646329 1.664899-1.6646329m22.6677285-4.5336344c.9178676 0 1.664012.7465879 1.664012 1.6641894 0 .9178676-.7461444 1.6639233-1.664012 1.6639233s-1.6647216-.7460557-1.6647216-1.6639233c.0000887-.9176015.746854-1.6641894 1.6647216-1.6641894m-4.5337231 0c.9173354 0 1.6638346.7465879 1.6638346 1.6641894 0 .9178676-.7464992 1.6639233-1.6638346 1.6639233-.9176902 0-1.6641894-.7460557-1.6641894-1.6639233 0-.9176015.7464992-1.6641894 1.6641894-1.6641894m-4.5331022 0c.9166258 0 1.6629476.7465879 1.6629476 1.6641894 0 .9178676-.7463218 1.6639233-1.6629476 1.6639233-.9184885 0-1.6646329-.7460557-1.6646329-1.6639233.0000887-.9176015.7461444-1.6641894 1.6646329-1.6641894m-4.5342553 0c.9179563 0 1.6637459.7465879 1.6637459 1.6641894 0 .9178676-.7457896 1.6639233-1.6637459 1.6639233-.9174241 0-1.6638346-.7460557-1.6638346-1.6639233-.0000887-.9176015.7464105-1.6641894 1.6638346-1.6641894m-4.5333683 0c.9175128 0 1.664012.7465879 1.664012 1.6641894 0 .9178676-.7465879 1.6639233-1.664012 1.6639233-.9176902 0-1.6643668-.7460557-1.6643668-1.6639233.0000887-.9176015.7466766-1.6641894 1.6643668-1.6641894m13.6007258-4.5340779c.9173354 0 1.6638346.7464105 1.6638346 1.6641007 0 .9176902-.7464992 1.6641894-1.6638346 1.6641894-.9176902 0-1.6641894-.7464992-1.6641894-1.6641894 0-.9176902.7464992-1.6641007 1.6641894-1.6641007m-4.5331022 0c.9166258 0 1.6629476.7464105 1.6629476 1.6641007 0 .9176902-.7463218 1.6641894-1.6629476 1.6641894-.9184885 0-1.6646329-.7464992-1.6646329-1.6641894 0-.9176902.7461444-1.6641007 1.6646329-1.6641007m-4.5342553 0c.9179563 0 1.6637459.7464105 1.6637459 1.6641007 0 .9176902-.7457896 1.6641894-1.6637459 1.6641894-.9174241 0-1.6638346-.7464992-1.6638346-1.6641894 0-.9176902.7464105-1.6641007 1.6638346-1.6641007m-4.5333683 0c.9175128 0 1.664012.7464105 1.664012 1.6641007 0 .9176902-.7465879 1.6641894-1.664012 1.6641894-.9176902 0-1.6643668-.7464992-1.6643668-1.6641894 0-.9176902.7466766-1.6641007 1.6643668-1.6641007m-4.5332796 4.5340779c.917158 0 1.6637459.7465879 1.6637459 1.6641894 0 .9178676-.7465879 1.6639233-1.6637459 1.6639233-.9183998 0-1.664899-.7460557-1.664899-1.6639233 0-.9176015.7464992-1.6641894 1.664899-1.6641894"/>
  </g>
</svg>