<svg xmlns="http://www.w3.org/2000/svg" viewBox="0 0 48 48">
  <defs>
    <linearGradient id="a" x1="1" x2="47" gradientUnits="userSpaceOnUse" gradientTransform="rotate(-90 24 24)">
      <stop stop-color="#e22137"/>
      <stop offset="1" stop-color="#b40e2c"/>
    </linearGradient>
  </defs>
  <g>
    <path d="m 36.31 5 c 5.859 4.062 9.688 10.831 9.688 18.5 c 0 12.426 -10.07 22.5 -22.5 22.5 c -7.669 0 -14.438 -3.828 -18.5 -9.688 c 1.037 1.822 2.306 3.499 3.781 4.969 c 4.085 3.712 9.514 5.969 15.469 5.969 c 12.703 0 23 -10.298 23 -23 c 0 -5.954 -2.256 -11.384 -5.969 -15.469 c -1.469 -1.475 -3.147 -2.744 -4.969 -3.781 z m 4.969 3.781 c 3.854 4.113 6.219 9.637 6.219 15.719 c 0 12.703 -10.297 23 -23 23 c -6.081 0 -11.606 -2.364 -15.719 -6.219 c 4.16 4.144 9.883 6.719 16.219 6.719 c 12.703 0 23 -10.298 23 -23 c 0 -6.335 -2.575 -12.06 -6.719 -16.219 z" style="opacity:0.05"/>
    <path d="m 41.28 8.781 c 3.712 4.085 5.969 9.514 5.969 15.469 c 0 12.703 -10.297 23 -23 23 c -5.954 0 -11.384 -2.256 -15.469 -5.969 c 4.113 3.854 9.637 6.219 15.719 6.219 c 12.703 0 23 -10.298 23 -23 c 0 -6.081 -2.364 -11.606 -6.219 -15.719 z" style="opacity:0.1"/>
    <path d="m 31.25 2.375 c 8.615 3.154 14.75 11.417 14.75 21.13 c 0 12.426 -10.07 22.5 -22.5 22.5 c -9.708 0 -17.971 -6.135 -21.12 -14.75 a 23 23 0 0 0 44.875 -7 a 23 23 0 0 0 -16 -21.875 z" style="opacity:0.2"/>
  </g>
  <g>
    <path d="m 24 1 c 12.703 0 23 10.297 23 23 c 0 12.703 -10.297 23 -23 23 -12.703 0 -23 -10.297 -23 -23 0 -12.703 10.297 -23 23 -23 z" style="fill:url(#a);fill-opacity:1"/>
</g>
  <g>
    <path d="M40.03 7.531c3.712 4.084 5.969 9.514 5.969 15.469 0 12.703-10.297 23-23 23-5.954 0-11.384-2.256-15.469-5.969C11.708 44.322 17.54 47 23.999 47c12.703 0 23-10.298 23-23 0-6.462-2.677-12.291-6.969-16.469z" opacity=".1"/>
  </g>
  <g opacity=".1" transform="translate(1,1)">
    <path d="M35.33430775 26.86948935c.9178676 0 1.664012.746854 1.664012 1.6646329 0 .9175128-.7461444 1.6641007-1.664012 1.6641007s-1.6647216-.7465879-1.6647216-1.6641007c.0000887-.9177789.746854-1.6646329 1.6647216-1.6646329m-4.5337231 0c.9173354 0 1.6638346.746854 1.6638346 1.6646329 0 .9175128-.7464992 1.6641007-1.6638346 1.6641007-.9176902 0-1.6641894-.7465879-1.6641894-1.6641007 0-.9177789.7464992-1.6646329 1.6641894-1.6646329m-13.6007258 0c.9175128 0 1.664012.746854 1.664012 1.6646329 0 .9175128-.7465879 1.6641007-1.664012 1.6641007-.9176902 0-1.6643668-.7465879-1.6643668-1.6641007.0000887-.9177789.7466766-1.6646329 1.6643668-1.6646329m-4.5332796 0c.917158 0 1.6637459.746854 1.6637459 1.6646329 0 .9175128-.7465879 1.6641007-1.6637459 1.6641007-.9183998 0-1.664899-.7465879-1.664899-1.6641007 0-.9177789.7464992-1.6646329 1.664899-1.6646329m22.6677285-4.5336344c.9178676 0 1.664012.7465879 1.664012 1.6641894 0 .9178676-.7461444 1.6639233-1.664012 1.6639233s-1.6647216-.7460557-1.6647216-1.6639233c.0000887-.9176015.746854-1.6641894 1.6647216-1.6641894m-4.5337231 0c.9173354 0 1.6638346.7465879 1.6638346 1.6641894 0 .9178676-.7464992 1.6639233-1.6638346 1.6639233-.9176902 0-1.6641894-.7460557-1.6641894-1.6639233 0-.9176015.7464992-1.6641894 1.6641894-1.6641894m-4.5331022 0c.9166258 0 1.6629476.7465879 1.6629476 1.6641894 0 .9178676-.7463218 1.6639233-1.6629476 1.6639233-.9184885 0-1.6646329-.7460557-1.6646329-1.6639233.0000887-.9176015.7461444-1.6641894 1.6646329-1.6641894m-4.5342553 0c.9179563 0 1.6637459.7465879 1.6637459 1.6641894 0 .9178676-.7457896 1.6639233-1.6637459 1.6639233-.9174241 0-1.6638346-.7460557-1.6638346-1.6639233-.0000887-.9176015.7464105-1.6641894 1.6638346-1.6641894m-4.5333683 0c.9175128 0 1.664012.7465879 1.664012 1.6641894 0 .9178676-.7465879 1.6639233-1.664012 1.6639233-.9176902 0-1.6643668-.7460557-1.6643668-1.6639233.0000887-.9176015.7466766-1.6641894 1.6643668-1.6641894m13.6007258-4.5340779c.9173354 0 1.6638346.7464105 1.6638346 1.6641007 0 .9176902-.7464992 1.6641894-1.6638346 1.6641894-.9176902 0-1.6641894-.7464992-1.6641894-1.6641894 0-.9176902.7464992-1.6641007 1.6641894-1.6641007m-4.5331022 0c.9166258 0 1.6629476.7464105 1.6629476 1.6641007 0 .9176902-.7463218 1.6641894-1.6629476 1.6641894-.9184885 0-1.6646329-.7464992-1.6646329-1.6641894 0-.9176902.7461444-1.6641007 1.6646329-1.6641007m-4.5342553 0c.9179563 0 1.6637459.7464105 1.6637459 1.6641007 0 .9176902-.7457896 1.6641894-1.6637459 1.6641894-.9174241 0-1.6638346-.7464992-1.6638346-1.6641894 0-.9176902.7464105-1.6641007 1.6638346-1.6641007m-4.5333683 0c.9175128 0 1.664012.7464105 1.664012 1.6641007 0 .9176902-.7465879 1.6641894-1.664012 1.6641894-.9176902 0-1.6643668-.7464992-1.6643668-1.6641894 0-.9176902.7466766-1.6641007 1.6643668-1.6641007m-4.5332796 4.5340779c.917158 0 1.6637459.7465879 1.6637459 1.6641894 0 .9178676-.7465879 1.6639233-1.6637459 1.6639233-.9183998 0-1.664899-.7460557-1.664899-1.6639233 0-.9176015.7464992-1.6641894 1.664899-1.6641894"/>
  </g>
  <g fill="#fff">
    <path d="M35.33430775 26.86948935c.9178676 0 1.664012.746854 1.664012 1.6646329 0 .9175128-.7461444 1.6641007-1.664012 1.6641007s-1.6647216-.7465879-1.6647216-1.6641007c.0000887-.9177789.746854-1.6646329 1.6647216-1.6646329m-4.5337231 0c.9173354 0 1.6638346.746854 1.6638346 1.6646329 0 .9175128-.7464992 1.6641007-1.6638346 1.6641007-.9176902 0-1.6641894-.7465879-1.6641894-1.6641007 0-.9177789.7464992-1.6646329 1.6641894-1.6646329m-13.6007258 0c.9175128 0 1.664012.746854 1.664012 1.6646329 0 .9175128-.7465879 1.6641007-1.664012 1.6641007-.9176902 0-1.6643668-.7465879-1.6643668-1.6641007.0000887-.9177789.7466766-1.6646329 1.6643668-1.6646329m-4.5332796 0c.917158 0 1.6637459.746854 1.6637459 1.6646329 0 .9175128-.7465879 1.6641007-1.6637459 1.6641007-.9183998 0-1.664899-.7465879-1.664899-1.6641007 0-.9177789.7464992-1.6646329 1.664899-1.6646329m22.6677285-4.5336344c.9178676 0 1.664012.7465879 1.664012 1.6641894 0 .9178676-.7461444 1.6639233-1.664012 1.6639233s-1.6647216-.7460557-1.6647216-1.6639233c.0000887-.9176015.746854-1.6641894 1.6647216-1.6641894m-4.5337231 0c.9173354 0 1.6638346.7465879 1.6638346 1.6641894 0 .9178676-.7464992 1.6639233-1.6638346 1.6639233-.9176902 0-1.6641894-.7460557-1.6641894-1.6639233 0-.9176015.7464992-1.6641894 1.6641894-1.6641894m-4.5331022 0c.9166258 0 1.6629476.7465879 1.6629476 1.6641894 0 .9178676-.7463218 1.6639233-1.6629476 1.6639233-.9184885 0-1.6646329-.7460557-1.6646329-1.6639233.0000887-.9176015.7461444-1.6641894 1.6646329-1.6641894m-4.5342553 0c.9179563 0 1.6637459.7465879 1.6637459 1.6641894 0 .9178676-.7457896 1.6639233-1.6637459 1.6639233-.9174241 0-1.6638346-.7460557-1.6638346-1.6639233-.0000887-.9176015.7464105-1.6641894 1.6638346-1.6641894m-4.5333683 0c.9175128 0 1.664012.7465879 1.664012 1.6641894 0 .9178676-.7465879 1.6639233-1.664012 1.6639233-.9176902 0-1.6643668-.7460557-1.6643668-1.6639233.0000887-.9176015.7466766-1.6641894 1.6643668-1.6641894m13.6007258-4.5340779c.9173354 0 1.6638346.7464105 1.6638346 1.6641007 0 .9176902-.7464992 1.6641894-1.6638346 1.6641894-.9176902 0-1.6641894-.7464992-1.6641894-1.6641894 0-.9176902.7464992-1.6641007 1.6641894-1.6641007m-4.5331022 0c.9166258 0 1.6629476.7464105 1.6629476 1.6641007 0 .9176902-.7463218 1.6641894-1.6629476 1.6641894-.9184885 0-1.6646329-.7464992-1.6646329-1.6641894 0-.9176902.7461444-1.6641007 1.6646329-1.6641007m-4.5342553 0c.9179563 0 1.6637459.7464105 1.6637459 1.6641007 0 .9176902-.7457896 1.6641894-1.6637459 1.6641894-.9174241 0-1.6638346-.7464992-1.6638346-1.6641894 0-.9176902.7464105-1.6641007 1.6638346-1.6641007m-4.5333683 0c.9175128 0 1.664012.7464105 1.664012 1.6641007 0 .9176902-.7465879 1.6641894-1.664012 1.6641894-.9176902 0-1.6643668-.7464992-1.6643668-1.6641894 0-.9176902.7466766-1.6641007 1.6643668-1.6641007m-4.5332796 4.5340779c.917158 0 1.6637459.7465879 1.6637459 1.6641894 0 .9178676-.7465879 1.6639233-1.6637459 1.6639233-.9183998 0-1.664899-.7460557-1.664899-1.6639233 0-.9176015.7464992-1.6641894 1.664899-1.6641894"/>
  </g>
</svg>