<?xml version="1.0" encoding="UTF-8" standalone="no"?>
<svg
   xmlns:dc="http://purl.org/dc/elements/1.1/"
   xmlns:cc="http://creativecommons.org/ns#"
   xmlns:rdf="http://www.w3.org/1999/02/22-rdf-syntax-ns#"
   xmlns:svg="http://www.w3.org/2000/svg"
   xmlns="http://www.w3.org/2000/svg"
   xmlns:sodipodi="http://sodipodi.sourceforge.net/DTD/sodipodi-0.dtd"
   xmlns:inkscape="http://www.inkscape.org/namespaces/inkscape"
   viewBox="0 0 48 48"
   id="svg2"
   version="1.1"
   inkscape:version="0.91 r13725"
   sodipodi:docname="bzr-explorer.svg">
  <metadata
     id="metadata73">
    <rdf:RDF>
      <cc:Work
         rdf:about="">
        <dc:format>image/svg+xml</dc:format>
        <dc:type
           rdf:resource="http://purl.org/dc/dcmitype/StillImage" />
        <dc:title />
      </cc:Work>
    </rdf:RDF>
  </metadata>
  <sodipodi:namedview
     pagecolor="#ffffff"
     bordercolor="#666666"
     borderopacity="1"
     objecttolerance="10"
     gridtolerance="10"
     guidetolerance="10"
     inkscape:pageopacity="0"
     inkscape:pageshadow="2"
     inkscape:window-width="1366"
     inkscape:window-height="713"
     id="namedview71"
     showgrid="false"
     showguides="false"
     inkscape:zoom="1"
     inkscape:cx="23.370795"
     inkscape:cy="28.247267"
     inkscape:window-x="0"
     inkscape:window-y="28"
     inkscape:window-maximized="1"
     inkscape:current-layer="svg2">
    <inkscape:grid
       type="xygrid"
       id="grid4213" />
  </sodipodi:namedview>
  <defs
     id="defs4">
    <linearGradient
       id="linearGradient3764"
       x1="1"
       x2="47"
       gradientUnits="userSpaceOnUse"
       gradientTransform="matrix(0,-1,1,0,-1.5e-6,47.999998)">
      <stop
         stop-color="#d7d7d7"
         stop-opacity="1"
         id="stop7" />
      <stop
         offset="1"
         stop-color="#e1e1e1"
         stop-opacity="1"
         id="stop9" />
    </linearGradient>
  </defs>
  <g
     id="g21">
    <path
       d="m 36.31 5 c 5.859 4.062 9.688 10.831 9.688 18.5 c 0 12.426 -10.07 22.5 -22.5 22.5 c -7.669 0 -14.438 -3.828 -18.5 -9.688 c 1.037 1.822 2.306 3.499 3.781 4.969 c 4.085 3.712 9.514 5.969 15.469 5.969 c 12.703 0 23 -10.298 23 -23 c 0 -5.954 -2.256 -11.384 -5.969 -15.469 c -1.469 -1.475 -3.147 -2.744 -4.969 -3.781 z m 4.969 3.781 c 3.854 4.113 6.219 9.637 6.219 15.719 c 0 12.703 -10.297 23 -23 23 c -6.081 0 -11.606 -2.364 -15.719 -6.219 c 4.16 4.144 9.883 6.719 16.219 6.719 c 12.703 0 23 -10.298 23 -23 c 0 -6.335 -2.575 -12.06 -6.719 -16.219 z"
       opacity="0.05"
       id="path23" />
    <path
       d="m 41.28 8.781 c 3.712 4.085 5.969 9.514 5.969 15.469 c 0 12.703 -10.297 23 -23 23 c -5.954 0 -11.384 -2.256 -15.469 -5.969 c 4.113 3.854 9.637 6.219 15.719 6.219 c 12.703 0 23 -10.298 23 -23 c 0 -6.081 -2.364 -11.606 -6.219 -15.719 z"
       opacity="0.1"
       id="path25" />
    <path
       d="m 31.25 2.375 c 8.615 3.154 14.75 11.417 14.75 21.13 c 0 12.426 -10.07 22.5 -22.5 22.5 c -9.708 0 -17.971 -6.135 -21.12 -14.75 a 23 23 0 0 0 44.875 -7 a 23 23 0 0 0 -16 -21.875 z"
       opacity="0.2"
       id="path27" />
  </g>
  <g
     id="g29">
    <path
       d="m 24 1 c 12.703 0 23 10.297 23 23 c 0 12.703 -10.297 23 -23 23 -12.703 0 -23 -10.297 -23 -23 0 -12.703 10.297 -23 23 -23 z"
       fill="url(#linearGradient3764)"
       fill-opacity="1"
       id="path31" />
  </g>
  <g
     id="g33" />
  <g
     id="g67">
    <path
       d="m 40.03 7.531 c 3.712 4.084 5.969 9.514 5.969 15.469 0 12.703 -10.297 23 -23 23 c -5.954 0 -11.384 -2.256 -15.469 -5.969 4.178 4.291 10.01 6.969 16.469 6.969 c 12.703 0 23 -10.298 23 -23 0 -6.462 -2.677 -12.291 -6.969 -16.469 z"
       opacity="0.1"
       id="path69" />
  </g>
  <g
     transform="translate(2.6852744e-4,0)"
     id="g4249">
    <path
       style="display:inline;opacity:1;fill:#000000;fill-opacity:0.09803922;stroke:none;stroke-opacity:1"
       d="m 25.152344,12 c -0.428636,0 -0.886658,0.327965 -1.904297,1.25 -1.01764,0.922035 -2.579598,2.473103 -5.083985,5.011719 -3.018188,3.059443 -4.647445,4.742817 -5.46289,5.80664 -0.407723,0.531912 -0.620186,0.911844 -0.683594,1.257813 -0.06341,0.345968 0.04996,0.637615 0.216797,0.894531 0.02472,0.03806 0.04162,0.05345 0.07031,0.08594 0.160353,0.178616 0.346749,0.366167 0.488281,0.515625 0.316955,0.32743 0.759787,0.78012 1.298828,1.324218 1.078081,1.088197 2.536524,2.545768 4.115234,4.109375 2.102616,2.082503 3.58115,3.504205 4.595703,4.410157 0.507277,0.452976 0.898262,0.77661 1.199219,0.992187 C 24.302913,37.873779 24.490729,38 24.720703,38 c 0.08832,0 0.14143,-0.02526 0.203125,-0.05469 0.0617,-0.02942 0.125771,-0.06913 0.199219,-0.117187 0.146896,-0.09612 0.325725,-0.230171 0.537109,-0.400391 0.422769,-0.340439 0.972575,-0.821699 1.607422,-1.402343 1.269694,-1.16129 2.879453,-2.71716 4.460938,-4.298829 1.581485,-1.581666 3.13572,-3.189144 4.296875,-4.458984 0.580577,-0.63492 1.061944,-1.184604 1.402343,-1.607422 0.1702,-0.211409 0.304281,-0.390197 0.400391,-0.537109 0.04805,-0.07346 0.08777,-0.139472 0.117187,-0.201172 C 37.974731,24.860177 38,24.807062 38,24.71875 38,24.592872 37.95276,24.501468 37.888672,24.386719 37.824584,24.271969 37.734352,24.140263 37.615234,23.982422 37.377,23.66674 37.022178,23.250353 36.537109,22.716797 35.566972,21.649685 34.077026,20.115171 31.982422,18.019531 29.555985,15.591895 28.03301,14.102721 27.035156,13.212891 26.037302,12.32306 25.57801,12 25.152344,12 Z"
       id="path3411"
       inkscape:connector-curvature="0"
       sodipodi:nodetypes="ssssscccsssssccsssssccsssssss" />
    <path
       sodipodi:nodetypes="ccccc"
       inkscape:connector-curvature="0"
       id="rect4246"
       d="M 11.22532,24.356117 24.143845,11.36303 c 4.569883,3.847629 8.748286,7.939933 12.551145,12.266951 -3.990968,4.447688 -8.196595,8.830978 -13.139495,12.993087 z"
       style="fill:#f8e653;fill-opacity:1;stroke:none" />
    <path
       sodipodi:nodetypes="ssssscccsssssccsssssccsssssssccsssssccccssssscccsssccssssssccccsccccsccscc"
       inkscape:connector-curvature="0"
       id="path2727"
       d="m 24.152344,11 c -0.428636,0 -0.886658,0.327965 -1.904297,1.25 -1.01764,0.922035 -2.579598,2.473103 -5.083985,5.011719 -3.018188,3.059443 -4.647445,4.742817 -5.46289,5.80664 -0.407723,0.531912 -0.620186,0.911844 -0.683594,1.257813 -0.06341,0.345968 0.04996,0.637615 0.216797,0.894531 0.02472,0.03806 0.04162,0.05345 0.07031,0.08594 0.160353,0.178616 0.346749,0.366167 0.488281,0.515625 0.316955,0.32743 0.759787,0.78012 1.298828,1.324218 1.078081,1.088197 2.536524,2.545768 4.115234,4.109375 2.102616,2.082503 3.58115,3.504205 4.595703,4.410157 0.507277,0.452976 0.898262,0.77661 1.199219,0.992187 C 23.302913,36.873779 23.490729,37 23.720703,37 c 0.08832,0 0.14143,-0.02526 0.203125,-0.05469 0.0617,-0.02942 0.125771,-0.06913 0.199219,-0.117187 0.146896,-0.09612 0.325725,-0.230171 0.537109,-0.400391 0.422769,-0.340439 0.972575,-0.821699 1.607422,-1.402343 1.269694,-1.16129 2.879453,-2.71716 4.460938,-4.298829 1.581485,-1.581666 3.13572,-3.189144 4.296875,-4.458984 0.580577,-0.63492 1.061944,-1.184604 1.402343,-1.607422 0.1702,-0.211409 0.304281,-0.390197 0.400391,-0.537109 0.04805,-0.07346 0.08777,-0.139472 0.117187,-0.201172 C 36.974731,23.860177 37,23.807062 37,23.71875 37,23.592872 36.95276,23.501468 36.888672,23.386719 36.824584,23.271969 36.734352,23.140263 36.615234,22.982422 36.377,22.66674 36.022178,22.250353 35.537109,21.716797 34.566972,20.649685 33.077026,19.115171 30.982422,17.019531 28.555985,14.591895 27.03301,13.102721 26.035156,12.212891 25.037302,11.32306 24.57801,11 24.152344,11 Z m 0.01172,0.693359 c 0.02752,0.016 0.05977,0.0358 0.105469,0.06836 0.109911,0.07832 0.262871,0.198768 0.447266,0.355469 0.36879,0.313401 0.86678,0.768836 1.447265,1.316406 1.160971,1.09514 2.653046,2.56507 4.125,4.05664 1.471956,1.49157 2.925208,3.005258 4.007813,4.183594 0.541302,0.589168 0.990052,1.093561 1.300781,1.46875 0.155365,0.187594 0.277211,0.344578 0.355469,0.457031 0.03913,0.05623 0.06676,0.101955 0.08203,0.13086 0.002,0.0038 6.12e-4,0.0045 0.002,0.0078 -0.0023,-0.01571 -0.0079,0.0259 -0.05664,0.107422 -0.05506,0.09208 -0.145583,0.219699 -0.267578,0.376953 -0.243991,0.314508 -0.616802,0.748976 -1.119141,1.300782 -1.004678,1.103608 -2.52508,2.6779 -4.574219,4.738281 -1.67213,1.681306 -3.235412,3.20956 -4.404297,4.316406 -0.584442,0.553423 -1.069518,1.002993 -1.419922,1.310547 -0.175201,0.153777 -0.316422,0.27259 -0.416015,0.349609 -0.04279,0.03309 -0.07365,0.05252 -0.09766,0.06836 -0.05848,-0.0015 -0.104656,-0.0025 -0.265625,-0.113282 -0.176553,-0.121501 -0.455177,-0.357145 -0.902344,-0.777343 -0.894334,-0.840397 -2.469537,-2.419434 -5.376953,-5.347657 -2.665065,-2.684135 -4.067088,-4.115409 -4.732422,-4.947265 -0.332667,-0.415928 -0.47304,-0.679163 -0.509766,-0.845703 -0.03673,-0.166541 -3.34e-4,-0.257637 0.09766,-0.435547 0.01393,-0.02529 0.08673,-0.127554 0.195312,-0.257813 0.10858,-0.130258 0.256042,-0.298069 0.435547,-0.496093 0.35901,-0.396053 0.847097,-0.913904 1.419922,-1.509766 1.145649,-1.191724 2.630129,-2.694733 4.113281,-4.169922 1.483152,-1.475189 2.964068,-2.922768 4.099609,-4 0.567771,-0.538616 1.049814,-0.985072 1.400391,-1.294922 0.175289,-0.154925 0.318719,-0.274435 0.419922,-0.353516 0.03836,-0.02998 0.06368,-0.0478 0.08789,-0.06445 z m -0.59375,3.80843 c -0.274269,-0.05082 -1.057315,0.835223 -2.097656,2.373047 -2.301284,3.401746 -2.297433,3.164062 -0.828125,3.164062 l 1.355198,0 0,10.529461 c 0.607602,0.432748 2.09968,0.399041 3,0.431641 l 0,-3.691406 c 0,0 1.022783,0.263984 1.635035,0.824218 0.939999,0.860135 1.185037,0.96174 1.570312,0.66211 1.293801,-1.048121 -3.46631,-5.94193 -3.222808,-8.369532 0.342448,-0.730478 2.331905,-0.100008 2.544922,-0.550781 0.218544,-0.462468 -3.529884,-5.29369 -3.956878,-5.37282 z"
       style="display:inline;opacity:1;fill:#3c3c3c;fill-opacity:1;stroke:none;stroke-opacity:1" />
  </g>
</svg>
