<svg xmlns="http://www.w3.org/2000/svg" width="48" viewBox="0 0 13.546667 13.546667" height="48">
 <defs>
  <linearGradient id="linearGradient4574" x1="-13.264" x2="-0.282" gradientUnits="userSpaceOnUse">
   <stop style="stop-color:#d6ecf6;stop-opacity:1"/>
   <stop offset="1" style="stop-color:#e6f4fa;stop-opacity:1"/>
  </linearGradient>
 </defs>
 <g>
  <path d="m 25 2 c -12.703 0 -23 10.297 -23 23 0 6.367 2.601 12.12 6.781 16.281 4.085 3.712 9.514 5.969 15.469 5.969 c 12.703 0 23 -10.297 23 -23 0 -5.954 -2.256 -11.384 -5.969 -15.469 c -4.165 -4.181 -9.914 -6.781 -16.281 -6.781 z m 16.281 6.781 c 3.854 4.113 6.219 9.637 6.219 15.719 c 0 12.703 -10.297 23 -23 23 c -6.081 0 -11.606 -2.364 -15.719 -6.219 4.16 4.144 9.883 6.719 16.219 6.719 12.703 0 23 -10.297 23 -23 0 -6.335 -2.575 -12.06 -6.719 -16.219 z" transform="scale(0.28222223,0.28222223)" style="fill:#000;opacity:0.05;fill-opacity:1;stroke:none"/>
  <path d="m 41.28 8.781 c 3.712 4.085 5.969 9.514 5.969 15.469 c 0 12.703 -10.297 23 -23 23 -5.954 0 -11.384 -2.256 -15.469 -5.969 c 4.113 3.854 9.637 6.219 15.719 6.219 c 12.703 0 23 -10.297 23 -23 0 -6.081 -2.364 -11.606 -6.219 -15.719 z" transform="scale(0.28222223,0.28222223)" style="fill:#000;opacity:0.1;fill-opacity:1;stroke:none"/>
  <path transform="matrix(4.3274074,0,0,3.2455556,117.19278,-35.348334)" d="m -24 13 a 1.5 2 0 1 1 -3 0 1.5 2 0 1 1 3 0 z" style="fill:#000;opacity:0.2;fill-opacity:1;stroke:none"/>
 </g>
 <g>
  <circle transform="matrix(0,-1,1,0,0,0)" cx="-6.773" cy="6.773" r="6.491" style="fill:url(#linearGradient4574);fill-opacity:1;stroke:none"/>
  <path d="m 40.03 7.531 c 3.712 4.085 5.969 9.514 5.969 15.469 c 0 12.703 -10.297 23 -23 23 c -5.954 0 -11.384 -2.256 -15.469 -5.969 c 4.178 4.291 10.01 6.969 16.469 6.969 c 12.703 0 23 -10.297 23 -23 c 0 -6.462 -2.677 -12.291 -6.969 -16.469 z" transform="scale(0.28222223,0.28222223)" style="fill:#000;opacity:0.1;fill-opacity:1;stroke:none"/>
  <path d="m 7.177 2.506 c -2.335 0 -4.233 1.898 -4.233 4.233 0 2.335 1.898 4.233 4.233 4.233 1.366 0 2.579 -0.653 3.353 -1.659 l -0.691 0 c -0.673 0.696 -1.615 1.13 -2.662 1.13 c -2.049 0 -3.704 -1.655 -3.704 -3.704 0 -2.049 1.655 -3.704 3.704 -3.704 1.08 0 2.048 0.463 2.725 1.198 l 0.68 0 c -0.771 -1.045 -2.01 -1.728 -3.404 -1.728" mix-blend-mode="normal" isolation="auto" white-space="normal" solid-opacity="1" solid-color="#000000" style="visibility:visible;shape-rendering:auto;color-interpolation-filters:linearRGB;fill:#1a1a1a;opacity:0.6;image-rendering:auto;fill-opacity:1;stroke:none;display:inline;color:#000;fill-rule:nonzero;color-rendering:auto;color-interpolation:sRGB"/>
 </g>
 <g>
  <g transform="translate(0.28222212,0.28222228)" style="fill:#000;opacity:0.1">
   <path d="M 32.947 15.801 A 4.053 4.2 0 0 0 28.895 20 L 26 20 L 26 17 L 15 17 L 15 23 L 19.631 23 L 19.631 24 L 15 24 L 15 34 L 26 34 L 26 31 L 28 31 L 28 34 L 37 34 L 37 27 L 33 27 L 33 24.2 A 4.053 4.2 0 0 0 37 20 A 4.053 4.2 0 0 0 32.947 15.801 z M 29 20.928 A 4.053 4.2 0 0 0 32 24.08 L 32 27 L 28 27 L 28 30 L 26 30 L 26 24 L 20.789 24 L 20.789 23 L 26 23 L 26 21 L 29 21 L 29 20.928 z" transform="matrix(0.28222223,0,0,0.28222223,-0.28222212,-0.28222228)" style="fill-opacity:1;stroke:none;fill-rule:nonzero"/>
  </g>
  <g>
   <rect y="4.516" x="3.951" height="1.693" width="3.104" style="fill:#cd87de;fill-opacity:1;stroke:none;fill-rule:nonzero"/>
   <rect y="5.362" x="7.06" height="0.282" width="0.847" style="fill:#b3b3b3;fill-opacity:1;stroke:none;fill-rule:nonzero"/>
   <rect width="0.282" height="0.847" x="8.749" y="6.491" style="fill:#b3b3b3;fill-opacity:1;stroke:none;fill-rule:nonzero"/>
   <ellipse transform="matrix(1.1578946,1.2166065e-8,-3.3483931e-8,1.1999999,-1.2774258,-0.90311039)" ry="0.988" rx="0.988" cy="5.221" cx="8.89" style="fill:#de8787;fill-opacity:1;stroke:none;fill-rule:nonzero"/>
   <rect y="6.209" x="5.258" height="0.339" width="0.327" style="fill:#b3b3b3;fill-opacity:1;stroke:none;fill-rule:nonzero"/>
   <rect y="6.491" x="3.951" height="2.822" width="3.104" style="fill:#87aade;fill-opacity:1;stroke:none;fill-rule:nonzero"/>
   <rect y="7.338" x="7.62" height="1.976" width="2.54" style="fill:#5fd38d;fill-opacity:1;stroke:none;fill-rule:nonzero"/>
   <rect width="0.564" height="0.282" x="7.06" y="8.184" style="fill:#b3b3b3;fill-opacity:1;stroke:none;fill-rule:nonzero"/>
  </g>
 </g>
</svg>
