<?xml version="1.0" encoding="UTF-8" standalone="no"?>
<svg
   xmlns:dc="http://purl.org/dc/elements/1.1/"
   xmlns:cc="http://creativecommons.org/ns#"
   xmlns:rdf="http://www.w3.org/1999/02/22-rdf-syntax-ns#"
   xmlns:svg="http://www.w3.org/2000/svg"
   xmlns="http://www.w3.org/2000/svg"
   xmlns:xlink="http://www.w3.org/1999/xlink"
   xmlns:sodipodi="http://sodipodi.sourceforge.net/DTD/sodipodi-0.dtd"
   xmlns:inkscape="http://www.inkscape.org/namespaces/inkscape"
   viewBox="0 0 48 48"
   id="svg2"
   version="1.1"
   inkscape:version="0.48.4 r9939"
   width="100%"
   height="100%"
   sodipodi:docname="celestia.svg">
  <metadata
     id="metadata77">
    <rdf:RDF>
      <cc:Work
         rdf:about="">
        <dc:format>image/svg+xml</dc:format>
        <dc:type
           rdf:resource="http://purl.org/dc/dcmitype/StillImage" />
      </cc:Work>
    </rdf:RDF>
  </metadata>
  <sodipodi:namedview
     pagecolor="#ffffff"
     bordercolor="#666666"
     borderopacity="1"
     objecttolerance="10"
     gridtolerance="10"
     guidetolerance="10"
     inkscape:pageopacity="0"
     inkscape:pageshadow="2"
     inkscape:window-width="1280"
     inkscape:window-height="960"
     id="namedview75"
     showgrid="false"
     inkscape:zoom="4.9166667"
     inkscape:cx="-43.494895"
     inkscape:cy="-13.759117"
     inkscape:window-x="0"
     inkscape:window-y="0"
     inkscape:window-maximized="1"
     inkscape:current-layer="svg2" />
  <defs
     id="defs4">
    <linearGradient
       id="linearGradient3764"
       x1="1"
       x2="47"
       gradientUnits="userSpaceOnUse"
       gradientTransform="matrix(0,-1,1,0,-1.5e-6,47.999998)">
      <stop
         stop-color="#463b6b"
         stop-opacity="1"
         id="stop7" />
      <stop
         offset="1"
         stop-color="#4f4277"
         stop-opacity="1"
         id="stop9" />
    </linearGradient>
    <clipPath
       id="clipPath-398830737">
      <g
         transform="translate(0,-1004.3622)"
         id="g12">
        <path
           d="m -24 13 c 0 1.105 -0.672 2 -1.5 2 -0.828 0 -1.5 -0.895 -1.5 -2 0 -1.105 0.672 -2 1.5 -2 0.828 0 1.5 0.895 1.5 2 z"
           transform="matrix(15.333333,0,0,11.5,414.99999,878.8622)"
           fill="#1890d0"
           id="path14" />
      </g>
    </clipPath>
    <clipPath
       id="clipPath-411566792">
      <g
         transform="translate(0,-1004.3622)"
         id="g17">
        <path
           d="m -24 13 c 0 1.105 -0.672 2 -1.5 2 -0.828 0 -1.5 -0.895 -1.5 -2 0 -1.105 0.672 -2 1.5 -2 0.828 0 1.5 0.895 1.5 2 z"
           transform="matrix(15.333333,0,0,11.5,414.99999,878.8622)"
           fill="#1890d0"
           id="path19" />
      </g>
    </clipPath>
    <linearGradient
       inkscape:collect="always"
       xlink:href="#linearGradient3764"
       id="linearGradient3124"
       gradientUnits="userSpaceOnUse"
       gradientTransform="matrix(0,-1,1,0,-1.5e-6,47.999998)"
       x1="1"
       x2="47" />
  </defs>
  <g
     id="g21">
    <path
       d="m 36.31 5 c 5.859 4.062 9.688 10.831 9.688 18.5 c 0 12.426 -10.07 22.5 -22.5 22.5 c -7.669 0 -14.438 -3.828 -18.5 -9.688 c 1.037 1.822 2.306 3.499 3.781 4.969 c 4.085 3.712 9.514 5.969 15.469 5.969 c 12.703 0 23 -10.298 23 -23 c 0 -5.954 -2.256 -11.384 -5.969 -15.469 c -1.469 -1.475 -3.147 -2.744 -4.969 -3.781 z m 4.969 3.781 c 3.854 4.113 6.219 9.637 6.219 15.719 c 0 12.703 -10.297 23 -23 23 c -6.081 0 -11.606 -2.364 -15.719 -6.219 c 4.16 4.144 9.883 6.719 16.219 6.719 c 12.703 0 23 -10.298 23 -23 c 0 -6.335 -2.575 -12.06 -6.719 -16.219 z"
       opacity="0.05"
       id="path23" />
    <path
       d="m 41.28 8.781 c 3.712 4.085 5.969 9.514 5.969 15.469 c 0 12.703 -10.297 23 -23 23 c -5.954 0 -11.384 -2.256 -15.469 -5.969 c 4.113 3.854 9.637 6.219 15.719 6.219 c 12.703 0 23 -10.298 23 -23 c 0 -6.081 -2.364 -11.606 -6.219 -15.719 z"
       opacity="0.1"
       id="path25" />
    <path
       d="m 31.25 2.375 c 8.615 3.154 14.75 11.417 14.75 21.13 c 0 12.426 -10.07 22.5 -22.5 22.5 c -9.708 0 -17.971 -6.135 -21.12 -14.75 a 23 23 0 0 0 44.875 -7 a 23 23 0 0 0 -16 -21.875 z"
       opacity="0.2"
       id="path27" />
  </g>
  <path
     style="fill:url(#linearGradient3124);fill-opacity:1"
     d="M 24 1 C 11.307439 1 1.0169049 11.280146 1 23.96875 C 15.491274 26.912785 29.929676 34.653877 45.59375 31.90625 C 46.496606 29.44033 47 26.778781 47 24 C 47 11.297 36.703 1 24 1 z M 43.25 36.5625 C 42.934334 37.04559 42.600058 37.511785 42.25 37.96875 C 42.605987 37.504826 42.929544 37.053379 43.25 36.5625 z M 42.25 37.96875 C 41.899942 38.425715 41.538873 38.883499 41.15625 39.3125 C 41.538905 38.884131 41.899869 38.425042 42.25 37.96875 z M 39.71875 40.78125 C 39.381272 41.097825 39.043605 41.391555 38.6875 41.6875 C 39.03865 41.395459 39.385727 41.093344 39.71875 40.78125 z "
     id="path31" />
  <g
     id="g33" />
  <path
     style="fill:#2d2d2d;fill-opacity:1;fill-rule:nonzero;stroke:none"
     d="M 1 23.96875 C 0.9999861 23.979186 1 23.989561 1 24 C 1 36.703 11.297 47 24 47 C 33.924219 47 42.369265 40.713108 45.59375 31.90625 C 29.929676 34.653877 15.491274 26.912785 1 23.96875 z "
     id="path61" />
  <path
     style="opacity:0.1;fill:#000000;fill-opacity:1;fill-rule:nonzero;stroke:none"
     inkscape:connector-curvature="0"
     id="path47"
     d="M 33.25,11.59 C 32.621,11.309 31.973,11.113 31.32,11 c 2.793,2.23 3.84,6.156 2.32,9.586 -1.523,3.43 -5.129,5.262 -8.645,4.66 0.516,0.41 1.094,0.77 1.723,1.055 4.04,1.813 8.773,-0.008 10.578,-4.07 1.805,-4.059 -0.008,-8.82 -4.047,-10.629 m 0,-0.012" />
  <path
     style="opacity:0.1;fill:#000000;fill-opacity:1;fill-rule:nonzero;stroke:none"
     inkscape:connector-curvature="0"
     id="path49"
     d="m 25,12 c -0.008,0 -0.012,0 -0.02,0.004 -0.016,0 -0.035,0.004 -0.051,0.016 0,0 0,0 -0.004,0.004 -0.047,0.02 -0.078,0.051 -0.102,0.078 -0.031,0.043 -0.063,0.09 -0.09,0.141 -0.066,0.105 -0.125,0.246 -0.191,0.383 -0.066,0.141 -0.133,0.277 -0.184,0.383 -0.023,0.055 -0.047,0.098 -0.07,0.129 -0.004,0.008 -0.008,0.012 -0.012,0.016 -0.008,0.004 -0.016,0.004 -0.027,0.008 -0.031,0.016 -0.082,0.023 -0.137,0.027 -0.113,0.023 -0.258,0.035 -0.402,0.066 -0.148,0.02 -0.289,0.047 -0.406,0.07 -0.055,0.016 -0.109,0.023 -0.156,0.047 -0.023,0.012 -0.047,0.023 -0.07,0.039 -0.023,0.02 -0.055,0.043 -0.074,0.105 -0.02,0.059 -0.008,0.102 0.004,0.129 0.012,0.035 0.02,0.055 0.035,0.078 0.023,0.043 0.059,0.09 0.098,0.137 0.078,0.094 0.188,0.203 0.289,0.309 0.105,0.105 0.207,0.207 0.289,0.293 0.039,0.043 0.074,0.082 0.098,0.109 0.008,0.008 0.008,0.012 0.012,0.023 0,0.004 0,0.012 0,0.02 -0.004,0.035 -0.004,0.086 -0.012,0.145 -0.02,0.121 -0.047,0.27 -0.07,0.422 -0.027,0.148 -0.047,0.301 -0.063,0.426 -0.008,0.066 -0.012,0.113 -0.008,0.168 0,0.023 0.008,0.051 0.02,0.086 0.008,0.031 0.02,0.07 0.066,0.105 0.047,0.035 0.09,0.035 0.121,0.035 0.027,0 0.055,-0.004 0.078,-0.012 0.051,-0.016 0.098,-0.035 0.152,-0.059 0.109,-0.051 0.242,-0.117 0.371,-0.191 0.133,-0.074 0.254,-0.145 0.359,-0.203 0.047,-0.023 0.094,-0.051 0.125,-0.063 0.008,-0.004 0.016,-0.004 0.023,-0.008 0.008,0 0.016,0 0.02,0.008 0.031,0.012 0.078,0.035 0.129,0.063 0.102,0.055 0.23,0.129 0.359,0.203 0.129,0.07 0.262,0.141 0.371,0.191 0.051,0.02 0.102,0.043 0.152,0.059 0.023,0.008 0.051,0.012 0.078,0.012 0.031,0 0.07,0 0.121,-0.035 0.043,-0.035 0.059,-0.074 0.063,-0.105 0.016,-0.035 0.02,-0.063 0.02,-0.086 0,-0.055 0,-0.102 -0.004,-0.168 -0.016,-0.125 -0.035,-0.277 -0.066,-0.426 -0.02,-0.152 -0.051,-0.305 -0.07,-0.422 -0.008,-0.059 -0.016,-0.109 -0.016,-0.145 0,-0.008 0,-0.016 0,-0.02 0.004,-0.008 0.008,-0.016 0.016,-0.023 0.023,-0.027 0.063,-0.066 0.102,-0.109 0.078,-0.086 0.184,-0.188 0.289,-0.293 0.102,-0.105 0.207,-0.215 0.285,-0.309 0.039,-0.047 0.07,-0.094 0.102,-0.137 0.012,-0.023 0.023,-0.043 0.035,-0.078 0.012,-0.031 0.02,-0.07 0.004,-0.129 -0.02,-0.063 -0.051,-0.086 -0.074,-0.105 -0.027,-0.02 -0.047,-0.027 -0.07,-0.039 -0.047,-0.02 -0.102,-0.031 -0.156,-0.047 -0.117,-0.023 -0.262,-0.055 -0.406,-0.07 -0.145,-0.023 -0.289,-0.039 -0.402,-0.066 -0.059,-0.008 -0.102,-0.02 -0.141,-0.027 -0.004,-0.004 -0.016,-0.004 -0.02,-0.008 -0.008,-0.008 -0.016,-0.008 -0.02,-0.016 -0.016,-0.031 -0.039,-0.074 -0.07,-0.129 -0.051,-0.105 -0.113,-0.242 -0.18,-0.383 C 25.379,12.489 25.313,12.353 25.254,12.243 25.223,12.192 25.191,12.145 25.16,12.102 25.129,12.059 25.101,12 24.988,12 m 0.016,0" />
  <path
     style="opacity:0.1;fill:#000000;fill-opacity:1;fill-rule:nonzero;stroke:none"
     inkscape:connector-curvature="0"
     id="path51"
     d="m 20,18 c -0.008,0 -0.012,0 -0.02,0.004 -0.016,0 -0.035,0.008 -0.051,0.02 0,0 0,0 -0.004,0.004 -0.047,0.016 -0.078,0.047 -0.102,0.078 -0.031,0.039 -0.063,0.086 -0.09,0.141 -0.066,0.105 -0.125,0.242 -0.191,0.383 -0.066,0.137 -0.133,0.277 -0.18,0.383 -0.027,0.051 -0.051,0.094 -0.074,0.125 -0.004,0.012 -0.008,0.016 -0.012,0.02 -0.008,0.004 -0.016,0.004 -0.027,0.008 -0.031,0.016 -0.078,0.023 -0.137,0.027 -0.113,0.023 -0.258,0.035 -0.402,0.066 -0.148,0.02 -0.289,0.051 -0.406,0.066 -0.055,0.023 -0.109,0.027 -0.156,0.047 -0.023,0.02 -0.043,0.023 -0.07,0.039 -0.023,0.023 -0.055,0.043 -0.074,0.105 -0.016,0.059 -0.008,0.102 0.004,0.129 0.012,0.031 0.02,0.055 0.035,0.078 0.023,0.043 0.063,0.09 0.098,0.137 0.078,0.094 0.188,0.199 0.289,0.305 0.105,0.109 0.207,0.219 0.289,0.305 0.039,0.043 0.074,0.082 0.098,0.102 0.008,0.008 0.008,0.02 0.012,0.023 0,0.008 0,0.016 0,0.02 0,0.035 -0.004,0.082 -0.012,0.148 -0.02,0.121 -0.047,0.27 -0.07,0.422 -0.027,0.145 -0.047,0.301 -0.063,0.426 -0.008,0.066 -0.008,0.113 -0.008,0.164 0,0.027 0.008,0.055 0.02,0.086 0.008,0.031 0.02,0.07 0.066,0.105 0.047,0.031 0.09,0.031 0.121,0.031 0.027,0 0.055,-0.004 0.078,-0.008 0.051,-0.016 0.098,-0.035 0.152,-0.063 0.109,-0.047 0.242,-0.117 0.371,-0.188 0.133,-0.07 0.258,-0.145 0.359,-0.203 0.051,-0.027 0.094,-0.047 0.129,-0.063 0.004,-0.004 0.012,-0.004 0.02,-0.008 0.008,0 0.016,0 0.02,0.008 0.035,0.016 0.078,0.035 0.129,0.063 0.102,0.055 0.23,0.129 0.359,0.203 0.129,0.07 0.262,0.141 0.371,0.188 0.055,0.027 0.102,0.047 0.152,0.063 0.023,0.004 0.051,0.008 0.078,0.008 0.031,0 0.07,0 0.121,-0.031 0.047,-0.035 0.059,-0.074 0.066,-0.105 0.012,-0.031 0.016,-0.059 0.016,-0.086 0.004,-0.051 0,-0.102 -0.004,-0.164 -0.012,-0.125 -0.035,-0.273 -0.063,-0.426 -0.023,-0.152 -0.051,-0.305 -0.07,-0.422 -0.008,-0.066 -0.012,-0.109 -0.012,-0.148 0,-0.008 0,-0.016 0,-0.02 0,-0.008 0.004,-0.008 0.012,-0.023 0.023,-0.02 0.059,-0.063 0.098,-0.102 0.078,-0.086 0.184,-0.191 0.289,-0.305 0.102,-0.102 0.211,-0.211 0.285,-0.305 0.039,-0.047 0.078,-0.094 0.102,-0.137 0.016,-0.02 0.023,-0.047 0.035,-0.078 0.012,-0.031 0.02,-0.07 0.004,-0.129 -0.02,-0.059 -0.051,-0.086 -0.074,-0.105 -0.027,-0.016 -0.047,-0.02 -0.07,-0.039 -0.047,-0.02 -0.102,-0.023 -0.156,-0.047 -0.117,-0.02 -0.258,-0.051 -0.406,-0.066 -0.145,-0.023 -0.289,-0.039 -0.402,-0.066 -0.059,-0.012 -0.102,-0.02 -0.137,-0.027 -0.008,-0.004 -0.02,-0.004 -0.027,-0.008 -0.004,-0.008 -0.012,-0.012 -0.012,-0.02 -0.02,-0.031 -0.043,-0.074 -0.074,-0.125 -0.051,-0.105 -0.113,-0.246 -0.18,-0.383 -0.063,-0.141 -0.125,-0.273 -0.191,-0.383 -0.031,-0.055 -0.059,-0.102 -0.09,-0.141 -0.035,-0.043 -0.059,-0.105 -0.172,-0.105 m 0.012,0" />
  <path
     style="opacity:0.1;fill:#000000;fill-opacity:1;fill-rule:nonzero;stroke:none"
     inkscape:connector-curvature="0"
     id="path53"
     d="m 14,13 c -0.008,0 -0.012,0 -0.016,0.004 -0.02,0 -0.039,0.008 -0.055,0.02 0,0 0,0 -0.004,0.004 -0.047,0.02 -0.078,0.047 -0.098,0.078 -0.035,0.039 -0.066,0.086 -0.094,0.141 -0.063,0.105 -0.125,0.242 -0.191,0.383 -0.063,0.137 -0.129,0.277 -0.18,0.383 -0.027,0.051 -0.051,0.094 -0.07,0.125 -0.004,0.012 -0.012,0.016 -0.016,0.02 -0.008,0.004 -0.016,0.004 -0.023,0.008 -0.031,0.016 -0.082,0.023 -0.141,0.027 -0.113,0.023 -0.258,0.035 -0.402,0.066 -0.145,0.02 -0.289,0.047 -0.402,0.07 -0.059,0.016 -0.113,0.023 -0.156,0.043 -0.027,0.016 -0.047,0.023 -0.074,0.039 -0.023,0.023 -0.055,0.043 -0.074,0.105 -0.016,0.059 -0.004,0.102 0.004,0.129 0.012,0.031 0.023,0.055 0.035,0.078 0.027,0.043 0.063,0.09 0.102,0.137 0.078,0.094 0.184,0.199 0.285,0.313 0.105,0.102 0.211,0.207 0.293,0.293 0.039,0.043 0.074,0.082 0.094,0.105 0.008,0.008 0.008,0.016 0.016,0.023 0,0.008 0,0.016 0,0.02 -0.004,0.035 -0.008,0.086 -0.016,0.148 -0.016,0.121 -0.047,0.27 -0.07,0.422 -0.023,0.145 -0.047,0.301 -0.059,0.426 -0.008,0.063 -0.012,0.113 -0.008,0.164 0,0.027 0.008,0.055 0.016,0.086 0.008,0.031 0.023,0.07 0.07,0.105 0.043,0.031 0.086,0.031 0.117,0.031 0.031,0 0.055,0 0.078,-0.008 0.051,-0.016 0.102,-0.035 0.152,-0.063 0.109,-0.047 0.242,-0.117 0.375,-0.188 0.129,-0.07 0.254,-0.145 0.355,-0.199 0.051,-0.031 0.098,-0.051 0.129,-0.066 0.008,-0.004 0.012,-0.004 0.02,-0.008 0.008,0 0.016,0 0.023,0.008 0.031,0.016 0.078,0.035 0.125,0.066 0.105,0.051 0.23,0.125 0.359,0.199 0.133,0.07 0.262,0.141 0.371,0.188 0.055,0.027 0.105,0.047 0.152,0.063 0.027,0.008 0.051,0.008 0.078,0.008 0.031,0 0.07,0 0.121,-0.031 0.047,-0.035 0.059,-0.074 0.063,-0.105 0.016,-0.031 0.02,-0.059 0.02,-0.086 0.004,-0.051 0,-0.105 -0.004,-0.164 -0.016,-0.125 -0.035,-0.277 -0.063,-0.426 -0.023,-0.152 -0.055,-0.305 -0.074,-0.422 -0.004,-0.063 -0.012,-0.109 -0.012,-0.148 0,-0.008 0,-0.016 0,-0.02 0.004,-0.004 0.008,-0.008 0.012,-0.023 0.023,-0.023 0.063,-0.063 0.102,-0.105 0.082,-0.086 0.184,-0.191 0.289,-0.293 0.102,-0.109 0.211,-0.219 0.289,-0.313 0.039,-0.047 0.07,-0.094 0.098,-0.137 0.016,-0.02 0.027,-0.047 0.035,-0.078 0.012,-0.031 0.02,-0.07 0.004,-0.129 -0.016,-0.059 -0.051,-0.086 -0.074,-0.105 -0.023,-0.016 -0.047,-0.023 -0.07,-0.039 -0.047,-0.02 -0.098,-0.027 -0.156,-0.043 -0.117,-0.027 -0.258,-0.055 -0.402,-0.07 C 15.13,14.236 14.985,14.22 14.872,14.193 14.817,14.181 14.77,14.173 14.735,14.166 14.727,14.162 14.715,14.162 14.712,14.158 14.708,14.15 14.7,14.146 14.696,14.138 14.676,14.107 14.653,14.064 14.626,14.013 14.571,13.908 14.509,13.767 14.442,13.63 14.379,13.489 14.317,13.357 14.254,13.247 14.219,13.192 14.191,13.145 14.16,13.106 14.129,13.063 14.101,13.001 13.988,13.001 m 0.012,0" />
  <path
     style="fill:#f9f9f9;fill-opacity:1;fill-rule:nonzero;stroke:none"
     inkscape:connector-curvature="0"
     id="path63"
     d="M 32.25,10.59 C 31.621,10.309 30.973,10.113 30.32,10 c 2.793,2.23 3.84,6.156 2.32,9.586 -1.523,3.43 -5.129,5.262 -8.645,4.66 0.516,0.41 1.094,0.77 1.723,1.055 4.04,1.813 8.773,-0.008 10.578,-4.07 1.805,-4.059 -0.008,-8.82 -4.047,-10.629 m 0,-0.012" />
  <path
     style="fill:#f9f9f9;fill-opacity:1;fill-rule:nonzero;stroke:none"
     inkscape:connector-curvature="0"
     id="path65"
     d="m 24,11 c -0.008,0 -0.012,0 -0.02,0.004 -0.016,0 -0.035,0.004 -0.051,0.016 0,0 0,0 -0.004,0.004 -0.047,0.02 -0.078,0.051 -0.102,0.078 -0.031,0.043 -0.063,0.09 -0.09,0.141 -0.066,0.105 -0.125,0.246 -0.191,0.383 -0.066,0.141 -0.133,0.277 -0.184,0.383 -0.023,0.055 -0.047,0.098 -0.07,0.129 -0.004,0.008 -0.008,0.012 -0.012,0.016 -0.008,0.004 -0.016,0.004 -0.027,0.008 -0.031,0.016 -0.082,0.023 -0.137,0.027 -0.113,0.023 -0.258,0.035 -0.402,0.066 -0.148,0.02 -0.289,0.047 -0.406,0.07 -0.055,0.016 -0.109,0.023 -0.156,0.047 -0.023,0.012 -0.047,0.023 -0.07,0.039 -0.023,0.02 -0.055,0.043 -0.074,0.105 -0.02,0.059 -0.008,0.102 0.004,0.129 0.012,0.035 0.02,0.055 0.035,0.078 0.023,0.043 0.059,0.09 0.098,0.137 0.078,0.094 0.188,0.203 0.289,0.309 0.105,0.105 0.207,0.207 0.289,0.293 0.039,0.043 0.074,0.082 0.098,0.109 0.008,0.008 0.008,0.012 0.012,0.023 0,0.004 0,0.012 0,0.02 -0.004,0.035 -0.004,0.086 -0.012,0.145 -0.02,0.121 -0.047,0.27 -0.07,0.422 -0.027,0.148 -0.047,0.301 -0.063,0.426 -0.008,0.066 -0.012,0.113 -0.008,0.168 0,0.023 0.008,0.051 0.02,0.086 0.008,0.031 0.02,0.07 0.066,0.105 0.047,0.035 0.09,0.035 0.121,0.035 0.027,0 0.055,-0.004 0.078,-0.012 0.051,-0.016 0.098,-0.035 0.152,-0.059 0.109,-0.051 0.242,-0.117 0.371,-0.191 0.133,-0.074 0.254,-0.145 0.359,-0.203 0.047,-0.023 0.094,-0.051 0.125,-0.063 0.008,-0.004 0.016,-0.004 0.023,-0.008 0.008,0 0.016,0 0.02,0.008 0.031,0.012 0.078,0.035 0.129,0.063 0.102,0.055 0.23,0.129 0.359,0.203 0.129,0.07 0.262,0.141 0.371,0.191 0.051,0.02 0.102,0.043 0.152,0.059 0.023,0.008 0.051,0.012 0.078,0.012 0.031,0 0.07,0 0.121,-0.035 0.043,-0.035 0.059,-0.074 0.063,-0.105 0.016,-0.035 0.02,-0.063 0.02,-0.086 0,-0.055 0,-0.102 -0.004,-0.168 -0.016,-0.125 -0.035,-0.277 -0.066,-0.426 -0.02,-0.152 -0.051,-0.305 -0.07,-0.422 -0.008,-0.059 -0.016,-0.109 -0.016,-0.145 0,-0.008 0,-0.016 0,-0.02 0.004,-0.008 0.008,-0.016 0.016,-0.023 0.023,-0.027 0.063,-0.066 0.102,-0.109 0.078,-0.086 0.184,-0.188 0.289,-0.293 0.102,-0.105 0.207,-0.215 0.285,-0.309 0.039,-0.047 0.07,-0.094 0.102,-0.137 0.012,-0.023 0.023,-0.043 0.035,-0.078 0.012,-0.031 0.02,-0.07 0.004,-0.129 -0.02,-0.063 -0.051,-0.086 -0.074,-0.105 -0.027,-0.02 -0.047,-0.027 -0.07,-0.039 -0.047,-0.02 -0.102,-0.031 -0.156,-0.047 -0.117,-0.023 -0.262,-0.055 -0.406,-0.07 -0.145,-0.023 -0.289,-0.039 -0.402,-0.066 -0.059,-0.008 -0.102,-0.02 -0.141,-0.027 -0.004,-0.004 -0.016,-0.004 -0.02,-0.008 -0.008,-0.008 -0.016,-0.008 -0.02,-0.016 -0.016,-0.031 -0.039,-0.074 -0.07,-0.129 -0.051,-0.105 -0.113,-0.242 -0.18,-0.383 C 24.379,11.489 24.313,11.353 24.254,11.243 24.223,11.192 24.191,11.145 24.16,11.102 24.129,11.059 24.101,11 23.988,11 m 0.016,0" />
  <path
     style="fill:#f9f9f9;fill-opacity:1;fill-rule:nonzero;stroke:none"
     inkscape:connector-curvature="0"
     id="path67"
     d="m 19,17 c -0.008,0 -0.012,0 -0.02,0.004 -0.016,0 -0.035,0.008 -0.051,0.02 0,0 0,0 -0.004,0.004 -0.047,0.016 -0.078,0.047 -0.102,0.078 -0.031,0.039 -0.063,0.086 -0.09,0.141 -0.066,0.105 -0.125,0.242 -0.191,0.383 -0.066,0.137 -0.133,0.277 -0.18,0.383 -0.027,0.051 -0.051,0.094 -0.074,0.125 -0.004,0.012 -0.008,0.016 -0.012,0.02 -0.008,0.004 -0.016,0.004 -0.027,0.008 -0.031,0.016 -0.078,0.023 -0.137,0.027 -0.113,0.023 -0.258,0.035 -0.402,0.066 -0.148,0.02 -0.289,0.051 -0.406,0.066 -0.055,0.023 -0.109,0.027 -0.156,0.047 -0.023,0.02 -0.043,0.023 -0.07,0.039 -0.023,0.023 -0.055,0.043 -0.074,0.105 -0.016,0.059 -0.008,0.102 0.004,0.129 0.012,0.031 0.02,0.055 0.035,0.078 0.023,0.043 0.063,0.09 0.098,0.137 0.078,0.094 0.188,0.199 0.289,0.305 0.105,0.109 0.207,0.219 0.289,0.305 0.039,0.043 0.074,0.082 0.098,0.102 0.008,0.008 0.008,0.02 0.012,0.023 0,0.008 0,0.016 0,0.02 0,0.035 -0.004,0.082 -0.012,0.148 -0.02,0.121 -0.047,0.27 -0.07,0.422 -0.027,0.145 -0.047,0.301 -0.063,0.426 -0.008,0.066 -0.008,0.113 -0.008,0.164 0,0.027 0.008,0.055 0.02,0.086 0.008,0.031 0.02,0.07 0.066,0.105 0.047,0.031 0.09,0.031 0.121,0.031 0.027,0 0.055,-0.004 0.078,-0.008 0.051,-0.016 0.098,-0.035 0.152,-0.063 0.109,-0.047 0.242,-0.117 0.371,-0.188 0.133,-0.07 0.258,-0.145 0.359,-0.203 0.051,-0.027 0.094,-0.047 0.129,-0.063 0.004,-0.004 0.012,-0.004 0.02,-0.008 0.008,0 0.016,0 0.02,0.008 0.035,0.016 0.078,0.035 0.129,0.063 0.102,0.055 0.23,0.129 0.359,0.203 0.129,0.07 0.262,0.141 0.371,0.188 0.055,0.027 0.102,0.047 0.152,0.063 0.023,0.004 0.051,0.008 0.078,0.008 0.031,0 0.07,0 0.121,-0.031 0.047,-0.035 0.059,-0.074 0.066,-0.105 0.012,-0.031 0.016,-0.059 0.016,-0.086 0.004,-0.051 0,-0.102 -0.004,-0.164 -0.012,-0.125 -0.035,-0.273 -0.063,-0.426 -0.023,-0.152 -0.051,-0.305 -0.07,-0.422 -0.008,-0.066 -0.012,-0.109 -0.012,-0.148 0,-0.008 0,-0.016 0,-0.02 0,-0.008 0.004,-0.008 0.012,-0.023 0.023,-0.02 0.059,-0.063 0.098,-0.102 0.078,-0.086 0.184,-0.191 0.289,-0.305 0.102,-0.102 0.211,-0.211 0.285,-0.305 0.039,-0.047 0.078,-0.094 0.102,-0.137 0.016,-0.02 0.023,-0.047 0.035,-0.078 0.012,-0.031 0.02,-0.07 0.004,-0.129 -0.02,-0.059 -0.051,-0.086 -0.074,-0.105 -0.027,-0.016 -0.047,-0.02 -0.07,-0.039 -0.047,-0.02 -0.102,-0.023 -0.156,-0.047 -0.117,-0.02 -0.258,-0.051 -0.406,-0.066 -0.145,-0.023 -0.289,-0.039 -0.402,-0.066 -0.059,-0.012 -0.102,-0.02 -0.137,-0.027 -0.008,-0.004 -0.02,-0.004 -0.027,-0.008 -0.004,-0.008 -0.012,-0.012 -0.012,-0.02 -0.02,-0.031 -0.043,-0.074 -0.074,-0.125 -0.051,-0.105 -0.113,-0.246 -0.18,-0.383 -0.063,-0.141 -0.125,-0.273 -0.191,-0.383 -0.031,-0.055 -0.059,-0.102 -0.09,-0.141 -0.035,-0.043 -0.059,-0.105 -0.172,-0.105 m 0.012,0" />
  <path
     style="fill:#f9f9f9;fill-opacity:1;fill-rule:nonzero;stroke:none"
     inkscape:connector-curvature="0"
     id="path69"
     d="m 13,12 c -0.008,0 -0.012,0 -0.016,0.004 -0.02,0 -0.039,0.008 -0.055,0.02 0,0 0,0 -0.004,0.004 -0.047,0.02 -0.078,0.047 -0.098,0.078 -0.035,0.039 -0.066,0.086 -0.094,0.141 -0.063,0.105 -0.125,0.242 -0.191,0.383 -0.063,0.137 -0.129,0.277 -0.18,0.383 -0.027,0.051 -0.051,0.094 -0.07,0.125 -0.004,0.012 -0.012,0.016 -0.016,0.02 -0.008,0.004 -0.016,0.004 -0.023,0.008 -0.031,0.016 -0.082,0.023 -0.141,0.027 -0.113,0.023 -0.258,0.035 -0.402,0.066 -0.145,0.02 -0.289,0.047 -0.402,0.07 -0.059,0.016 -0.113,0.023 -0.156,0.043 -0.027,0.016 -0.047,0.023 -0.074,0.039 -0.023,0.023 -0.055,0.043 -0.074,0.105 -0.016,0.059 -0.004,0.102 0.004,0.129 0.012,0.031 0.023,0.055 0.035,0.078 0.027,0.043 0.063,0.09 0.102,0.137 0.078,0.094 0.184,0.199 0.285,0.313 0.105,0.102 0.211,0.207 0.293,0.293 0.039,0.043 0.074,0.082 0.094,0.105 0.008,0.008 0.008,0.016 0.016,0.023 0,0.008 0,0.016 0,0.02 -0.004,0.035 -0.008,0.086 -0.016,0.148 -0.016,0.121 -0.047,0.27 -0.07,0.422 -0.023,0.145 -0.047,0.301 -0.059,0.426 -0.008,0.063 -0.012,0.113 -0.008,0.164 0,0.027 0.008,0.055 0.016,0.086 0.008,0.031 0.023,0.07 0.07,0.105 0.043,0.031 0.086,0.031 0.117,0.031 0.031,0 0.055,0 0.078,-0.008 0.051,-0.016 0.102,-0.035 0.152,-0.063 0.109,-0.047 0.242,-0.117 0.375,-0.188 0.129,-0.07 0.254,-0.145 0.355,-0.199 0.051,-0.031 0.098,-0.051 0.129,-0.066 0.008,-0.004 0.012,-0.004 0.02,-0.008 0.008,0 0.016,0 0.023,0.008 0.031,0.016 0.078,0.035 0.125,0.066 0.105,0.051 0.23,0.125 0.359,0.199 0.133,0.07 0.262,0.141 0.371,0.188 0.055,0.027 0.105,0.047 0.152,0.063 0.027,0.008 0.051,0.008 0.078,0.008 0.031,0 0.07,0 0.121,-0.031 0.047,-0.035 0.059,-0.074 0.063,-0.105 0.016,-0.031 0.02,-0.059 0.02,-0.086 0.004,-0.051 0,-0.105 -0.004,-0.164 -0.016,-0.125 -0.035,-0.277 -0.063,-0.426 -0.023,-0.152 -0.055,-0.305 -0.074,-0.422 -0.004,-0.063 -0.012,-0.109 -0.012,-0.148 0,-0.008 0,-0.016 0,-0.02 0.004,-0.004 0.008,-0.008 0.012,-0.023 0.023,-0.023 0.063,-0.063 0.102,-0.105 0.082,-0.086 0.184,-0.191 0.289,-0.293 0.102,-0.109 0.211,-0.219 0.289,-0.313 0.039,-0.047 0.07,-0.094 0.098,-0.137 0.016,-0.02 0.027,-0.047 0.035,-0.078 0.012,-0.031 0.02,-0.07 0.004,-0.129 -0.016,-0.059 -0.051,-0.086 -0.074,-0.105 -0.023,-0.016 -0.047,-0.023 -0.07,-0.039 -0.047,-0.02 -0.098,-0.027 -0.156,-0.043 -0.117,-0.027 -0.258,-0.055 -0.402,-0.07 C 14.13,13.236 13.985,13.22 13.872,13.193 13.817,13.181 13.77,13.173 13.735,13.166 13.727,13.162 13.715,13.162 13.712,13.158 13.708,13.15 13.7,13.146 13.696,13.138 13.676,13.107 13.653,13.064 13.626,13.013 13.571,12.908 13.509,12.767 13.442,12.63 13.379,12.489 13.317,12.357 13.254,12.247 13.219,12.192 13.191,12.145 13.16,12.106 13.129,12.063 13.101,12.001 12.988,12.001 m 0.012,0" />
  <g
     id="g71">
    <path
       d="m 40.03 7.531 c 3.712 4.084 5.969 9.514 5.969 15.469 0 12.703 -10.297 23 -23 23 c -5.954 0 -11.384 -2.256 -15.469 -5.969 4.178 4.291 10.01 6.969 16.469 6.969 c 12.703 0 23 -10.298 23 -23 0 -6.462 -2.677 -12.291 -6.969 -16.469 z"
       opacity="0.1"
       id="path73" />
  </g>
</svg>
