<svg xmlns="http://www.w3.org/2000/svg" xmlns:xlink="http://www.w3.org/1999/xlink" width="48" viewBox="0 0 13.546667 13.546667" height="48">
 <defs>
  <linearGradient id="0">
   <stop stop-color="#1c64b1"/>
   <stop offset="1" stop-color="#88aacf"/>
  </linearGradient>
  <linearGradient xlink:href="#0" id="1" gradientUnits="userSpaceOnUse" y1="12.717" x2="0" y2="0.847"/>
 </defs>
 <rect height="12.982" rx="6.491" y="0.282" x="0.282" width="12.982" opacity="0.5" fill="#ffffff" fill-rule="evenodd"/>
 <rect height="11.853" rx="5.926" y="0.847" x="0.847" width="11.853" fill="url(#1)" fill-rule="evenodd"/>
 <path d="M 7.2806689,8.9100771 9.0728777,7.5503441 8.9481637,5.4568292 10.092543,5.3344991 10.211504,6.7399407 9.9565876,7.7022949 9.4807437,8.4451655 9.5997046,9.0023183 9.8376263,9.9309068 8.4950673,9.4919376 8.0022291,9.5594715 7.2034914,9.7958388 z" fill="#fdd901"/>
 <path d="m 4.6763114,3.6786915 1.221624,-0.6137725 1.8240137,0 L 9.1637884,3.8753233 9.7196781,4.6519607 10.014995,5.4454816 9.0065981,5.4960341 8.3646966,4.5168933 6.9228573,4.0272741 5.515761,4.3649426 5.0119858,4.6857275 z" fill="#cf3326"/>
 <path d="m 5.0814718,4.702611 c 0,-0.084417 -0.3648025,-1.0298888 -0.3648025,-1.0298888 L 4.0391784,4.1961083 3.3790592,5.6311992 3.309573,7.1338239 3.8133482,8.3494303 5.0641003,9.5481533 6.2801094,9.8520548 7.22219,9.9285968 7.3113196,8.9013105 5.0467288,8.0624121 4.4560958,7.4714923 4.4039812,6.5935543 4.5082105,5.5636655 z" fill="#43964e"/>
 <path d="m 14.78092,20.731275 2.127347,-2.320743 6.299159,-0.138139 8.75804,-0.248655 1.215627,4.669113 0,3.481114 -2.293115,1.933952 -10.277574,-0.165767 -4.144183,0 -1.270883,-1.215627 -0.469674,-2.514138 z" transform="scale(0.28222223,0.28222223)" fill="#f9f9f9"/>
 <path d="m 6.8293857,3.6688888 c -1.5895951,0 -2.8782745,1.2635836 -2.8782745,2.8222223 0,1.5586387 1.2886794,2.8222225 2.8782745,2.8222225 4.2362333,-0.6504839 3.0964501,-5.5521588 0,-5.6444448 z m 2.0342046,1.5417584 c 0.05307,-9.584e-4 0.094842,0.00209 0.1012878,0.0071 0.00952,0.00739 0.017087,0.1902955 0.020499,0.4682025 l 0.00603,0.4551975 -0.060291,0.00947 c -0.099632,0.01526 -0.1944719,0.011545 -0.2013702,-0.00828 -0.012016,-0.034527 -0.074011,-0.8193463 -0.068731,-0.870195 l 0.00482,-0.05084 0.1422858,-0.00829 c 0.019438,-0.00107 0.037777,-0.00204 0.055468,-0.00237 z M 8.007464,5.2319292 c 0.02512,-4.619e-4 0.050258,3.465e-4 0.07476,0.00237 0.1880845,0.015517 0.4023205,0.1005145 0.4027407,0.1596148 1.619e-4,0.024063 -0.073509,0.1613987 -0.1121399,0.2080899 -0.010355,0.012511 -0.040764,0.00504 -0.1121408,-0.028377 -0.084848,-0.039721 -0.113474,-0.04615 -0.223075,-0.04611 -0.1047189,3.77e-5 -0.1383333,0.00742 -0.2037824,0.039017 -0.097676,0.047159 -0.1383319,0.085862 -0.1832835,0.178532 -0.04429,0.091305 -0.046927,0.2417288 -0.00603,0.3558813 C 7.7023801,6.2624669 7.890344,6.3788281 8.06293,6.3598776 8.1908034,6.3458366 8.3438843,6.2583887 8.3438843,6.200263 c 0,-0.06346 -0.0276,-0.083947 -0.1157581,-0.083947 -0.073834,0 -0.085729,-0.0043 -0.094052,-0.033107 -0.014887,-0.051499 -0.011353,-0.2118269 0.00482,-0.2210959 0.016932,-0.0097 0.4562485,-0.030113 0.4582082,-0.021282 0.00989,0.044571 0.040166,0.7365438 0.032557,0.7436858 -0.00578,0.00542 -0.061772,0.014491 -0.1241987,0.0201 -0.1123028,0.0101 -0.1134956,0.010656 -0.1290172,-0.027192 -0.019507,-0.04757 -0.033533,-0.047931 -0.1097278,-0.00118 -0.033449,0.020522 -0.098425,0.046517 -0.144698,0.057934 C 7.8957382,6.6900153 7.651957,6.6266304 7.4937879,6.4710154 7.4145087,6.3930129 7.368059,6.3168544 7.3165332,6.1848885 7.275716,6.0803478 7.2725095,6.0611304 7.2803591,5.9235934 7.2930003,5.7021011 7.376393,5.5240658 7.5275507,5.3974566 7.6461958,5.2980785 7.831619,5.2351831 8.007464,5.2319289 z m -0.8754198,0.06621 0.00844,0.041382 c 0.00489,0.022924 0.026913,0.1781112 0.049439,0.3452405 0.022525,0.1671295 0.04743,0.3197292 0.055467,0.3393286 0.00803,0.0196 0.015406,0.072703 0.015676,0.1182331 2.831e-4,0.04553 0.0105,0.1523723 0.02291,0.236466 0.012411,0.084093 0.02264,0.1830702 0.02291,0.2199136 l 0.0012,0.06621 -0.1446971,0.00947 C 7.0839411,6.679603 7.0140133,6.679223 7.007839,6.673203 7.001659,6.667173 6.975799,6.4924488 6.951167,6.2842164 6.926535,6.0759842 6.900293,5.9061295 6.892083,5.9070529 c -0.023646,0.00267 -0.033568,0.027358 -0.1121404,0.2896709 -0.040782,0.1361515 -0.080873,0.256013 -0.089231,0.2660243 -0.00999,0.011969 -0.06014,0.017733 -0.1459028,0.017733 l -0.130228,0 L 6.3000293,6.2109009 C 6.2368805,6.0626994 6.1785568,5.943365 6.1698017,5.9460589 c -0.00994,0.00307 -0.019212,0.1482482 -0.024117,0.3854397 -0.00432,0.2089269 -0.012139,0.3834233 -0.016881,0.3878043 -0.00474,0.00438 -0.07733,0.012246 -0.1615788,0.017734 l -0.1531385,0.00947 0.00964,-0.3405112 c 0.022385,-0.7900042 0.032549,-1.0182321 0.04703,-1.0309972 0.00842,-0.00743 0.086048,-0.014951 0.1724315,-0.017734 l 0.1567559,-0.00472 0.033762,0.065029 c 0.037191,0.072324 0.2370664,0.56204 0.2604552,0.6384584 0.025837,0.084415 0.061471,0.053751 0.1000823,-0.085129 0.099649,-0.3584209 0.1817553,-0.6344893 0.1917244,-0.6431881 0.00618,-0.00539 0.086497,-0.014458 0.1784605,-0.0201 l 0.1676126,-0.00947 z m -2.0595281,0.09104 C 5.5015775,5.3878205 5.8105085,5.7193022 5.7803282,6.1494177 5.7601656,6.4367653 5.5738228,6.6763512 5.3016206,6.7654117 5.2187532,6.7925251 5.163977,6.7998507 5.054429,6.7996993 4.8898367,6.7994375 4.7837518,6.7701245 4.6577167,6.6897427 4.2788817,6.4481322 4.2285281,5.8767665 4.5588401,5.5771696 4.7023076,5.4470429 4.8602929,5.3898488 5.0725161,5.3891792 z m -0.031351,0.2896709 c -0.1271394,0.00579 -0.2466873,0.080167 -0.3219519,0.2116372 -0.0359,0.06271 -0.041538,0.089662 -0.040998,0.196267 5.287e-4,0.1044133 0.00706,0.1371124 0.043409,0.2069077 0.045402,0.087175 0.1242346,0.1624839 0.2049881,0.1950845 0.07019,0.028337 0.2104148,0.024807 0.2845717,-0.0071 C 5.293028,6.4464455 5.3652954,6.3748754 5.4101439,6.2842029 5.4384159,6.2270429 5.4456139,6.1864879 5.4451129,6.09503 5.4440975,5.9097545 5.3707664,5.7881022 5.214802,5.7143205 5.1572615,5.6870991 5.0989557,5.6762157 5.0411649,5.6788501 z m 3.9707405,0.6337291 0.00723,0.1217801 c 0.00432,0.06689 0.00432,0.1263198 0,0.132421 -0.013337,0.018838 -0.2488382,0.027302 -0.264073,0.00947 -0.017071,-0.019995 -0.033171,-0.2191972 -0.019293,-0.2400164 0.00562,-0.00843 0.070409,-0.016667 0.1434918,-0.018918 l 0.1326396,-0.00472 z m 0.018088,0.3440582 c 0.011067,-1.887e-4 0.024972,3.388e-4 0.040998,0.00118 l 0.081995,0.00472 0,0.2766652 0,0.2766651 -0.065113,0.00472 c -0.063645,0.0043 -0.066714,0.00274 -0.07476,-0.043746 -0.017777,-0.1027144 -0.044066,-0.4781465 -0.034969,-0.5001257 0.00559,-0.01349 0.01864,-0.019513 0.05185,-0.0201 z m -0.1639905,0.01537 c 0.013411,3.002e-4 0.021572,0.00111 0.02291,0.00237 0.00359,0.00331 0.010389,0.031256 0.015677,0.061481 0.013474,0.076978 -0.017048,0.094587 -0.1676083,0.094587 -0.1340962,0 -0.1567554,0.011794 -0.1567554,0.081581 0,0.088068 0.00702,0.092221 0.14108,0.092221 l 0.1229926,0 0.00482,0.067392 c 0.0051,0.059408 0.00223,0.068987 -0.030144,0.080398 -0.020139,0.0071 -0.070033,0.013006 -0.1109345,0.013006 -0.089006,0 -0.1124494,0.017594 -0.1121409,0.08631 4.167e-4,0.089763 0.011811,0.09577 0.1917242,0.09577 l 0.1615794,0 0.00482,0.067392 0.00482,0.068575 -0.067526,0.00829 c -0.037162,0.00422 -0.1537197,0.010567 -0.2592499,0.01537 -0.1911214,0.00869 -0.1925339,0.00864 -0.200165,-0.024836 -0.00421,-0.018487 -0.015368,-0.1999466 -0.025321,-0.4031745 -0.013865,-0.2827801 -0.014128,-0.3714338 0,-0.3795281 0.017537,-0.010056 0.3655393,-0.029281 0.4594121,-0.027193 z m -0.6764612,0.028378 c 0.03597,-0.00111 0.047746,0.0049 0.057879,0.022464 0.016452,0.028507 0.1219125,0.7737074 0.1109345,0.7838848 -0.00344,0.00319 -0.042521,0.00991 -0.086819,0.01537 C 8.1754679,7.533918 8.1805578,7.5424428 8.1569847,7.3246542 8.1241007,7.0208378 8.1103491,7.011627 8.0388152,7.2383439 l -0.048233,0.1513383 -0.061496,0.011823 c -0.034184,0.00659 -0.072047,0.0087 -0.083201,0.00472 C 7.8242003,7.3985155 7.7591943,7.271719 7.7289209,7.178038 7.7188099,7.146743 7.7015399,7.113355 7.6903349,7.104734 7.6605939,7.08185 7.6537869,7.125653 7.6493369,7.3542056 l -0.00361,0.1962669 -0.090437,0.00472 -0.090437,0.00472 0,-0.1454265 c 0,-0.1559194 -0.017179,-0.1959189 -0.047027,-0.1075923 -0.042868,0.1268522 -0.1494106,0.2315888 -0.2785425,0.2743007 -0.032675,0.010811 -0.09427,0.018918 -0.1374623,0.018918 -0.1460084,0 -0.2778014,-0.064077 -0.3520977,-0.1726201 -0.059542,-0.086992 -0.079083,-0.1486115 -0.083199,-0.262478 -0.0038,-0.1050411 0.028147,-0.183201 0.1133462,-0.27903 0.1133781,-0.1275237 0.3464052,-0.1688768 0.5148825,-0.091039 0.1166123,0.053876 0.1695016,0.1194736 0.2399563,0.2955826 0.017029,0.042568 0.021282,0.046259 0.031351,0.022464 0.00644,-0.015227 0.012523,-0.096803 0.013265,-0.1808966 7.402e-4,-0.084093 0.00814,-0.1615952 0.015676,-0.1726202 0.0088,-0.012873 0.046256,-0.02131 0.1049056,-0.022464 l 0.091642,-0.00118 0.045821,0.1004978 c 0.025181,0.055765 0.064866,0.1531671 0.08923,0.2163663 0.024363,0.0632 0.049257,0.1195047 0.054261,0.1241447 0.02148,0.019914 0.044801,-0.034088 0.1024945,-0.236466 0.033724,-0.1182966 0.063648,-0.2186838 0.067525,-0.2222783 0.00388,-0.0036 0.046533,-0.00963 0.094055,-0.014189 0.018479,-0.00177 0.032624,-0.00318 0.044616,-0.00354 z M 6.2337144,6.8044296 c 0.08234,-0.00228 0.1054167,0.00396 0.1519321,0.02483 0.080786,0.036258 0.1300429,0.1074011 0.1446971,0.2116371 0.010122,0.071962 -0.00714,0.1183238 -0.08923,0.2281898 -0.01431,0.019152 -0.00148,0.050523 0.071143,0.1655261 0.0494,0.07823 0.086489,0.1511227 0.081996,0.1619794 -0.00549,0.013263 -0.03665,0.0201 -0.094052,0.0201 l -0.084407,0 -0.075966,-0.1265094 C 6.2591744,7.3568622 6.2181761,7.3260375 6.1637767,7.35303 c -0.030149,0.01496 -0.031437,0.024585 -0.02291,0.1466089 0.00852,0.1219396 0.00724,0.1310873 -0.020498,0.1312386 -0.016397,7.71e-5 -0.05606,0.00457 -0.088024,0.00947 -0.05204,0.00797 -0.05914,0.00492 -0.066319,-0.026011 -0.012972,-0.055903 -0.045493,-0.7519116 -0.036174,-0.7744264 0.00633,-0.015307 0.057801,-0.02293 0.1989587,-0.030741 0.043444,-0.00241 0.077459,-0.00397 0.1049056,-0.00472 z m -0.4075656,0.023647 0.010856,0.1359679 c 0.0058,0.074447 0.015002,0.2572314 0.0205,0.4067217 l 0.00964,0.271936 -0.073553,0.010633 c -0.044144,0.00613 -0.081129,0.0039 -0.090437,-0.00472 -0.00861,-0.00798 -0.019154,-0.076601 -0.024116,-0.1537029 -0.00497,-0.077101 -0.016808,-0.1474061 -0.026528,-0.1548854 -0.010233,-0.00788 -0.07749,-0.00931 -0.1591675,-0.00354 l -0.14108,0.010633 -0.00482,0.1631615 -0.00361,0.164344 -0.086819,0 c -0.075841,0 -0.085613,-0.00344 -0.085613,-0.029558 0,-0.046391 -0.042329,-0.050379 -0.1061111,-0.00947 -0.032161,0.020633 -0.090017,0.047957 -0.1278162,0.060299 C 4.7131377,7.7691524 4.4569363,7.6509429 4.3924405,7.4452534 4.3549461,7.3256763 4.367935,7.1604225 4.4213806,7.0763665 4.4756839,6.9909602 4.5363322,6.9399706 4.6275746,6.902564 4.7536392,6.8508806 4.948911,6.8638928 5.0447857,6.9309406 l 0.038585,0.027193 -0.028939,0.060299 c -0.016151,0.033207 -0.035361,0.063472 -0.042203,0.067392 -0.00684,0.00391 -0.040254,-0.00613 -0.07476,-0.022464 -0.1323685,-0.062609 -0.280428,-0.024648 -0.3424508,0.087492 -0.060944,0.1101922 -0.039283,0.2476011 0.054262,0.3381463 0.081612,0.078996 0.2183821,0.08007 0.3291867,0.00237 0.062608,-0.043905 0.073028,-0.043923 0.1049056,0.00118 0.014151,0.020022 0.03733,0.036652 0.050644,0.036652 0.021376,0 0.021891,-0.03134 0.010856,-0.2660243 C 5.1379922,7.1170063 5.1329642,6.9681574 5.1328102,6.932117 l 0,-0.06621 0.085613,0 0.086819,0 0.012059,0.1466091 c 0.00844,0.098626 0.019621,0.1499416 0.034969,0.1607968 0.027996,0.019801 0.2578211,0.00953 0.288189,-0.013007 0.016054,-0.01192 0.019834,-0.052798 0.015675,-0.1690732 l -0.00482,-0.1537029 0.086819,-0.00472 0.088025,-0.00472 z m 1.1720503,0.091038 C 6.9344781,6.9188872 6.8687545,6.9459563 6.8137097,7.0066063 6.705682,7.125635 6.7669957,7.3556812 6.9234386,7.4204219 c 0.060472,0.025025 0.090529,0.025434 0.153138,0.00118 C 7.1539133,7.3916439 7.2247145,7.308076 7.2369499,7.2324302 7.2664291,7.0501742 7.1383862,6.9195845 6.9981991,6.9191138 z m -0.8115117,0.042563 c -0.02333,0.00168 -0.044255,0.00729 -0.054262,0.016552 -0.023111,0.021428 -0.024692,0.1493911 -0.00241,0.1879907 0.022045,0.038191 0.1091277,0.036767 0.1627847,-0.00237 0.055971,-0.040819 0.059289,-0.1451276 0.00603,-0.1797143 C 6.2729691,6.967343 6.2255721,6.95889 6.1866896,6.961672 z m 2.8408937,0.3700695 0.071143,0 0.069937,0 0.00964,0.062663 c 0.00491,0.034132 0.00159,0.067488 -0.00723,0.075669 -0.024276,0.022506 -0.134842,0.019081 -0.1446975,-0.00472 -0.00462,-0.01117 -0.00636,-0.045976 -0.00361,-0.076851 l 0.00482,-0.056751 z" fill="#389bf0" color="#000000"/>
 <path d="M 6.6634777,2.8933692 C 6.5342448,2.8951342 6.4159746,2.9007485 6.3384389,2.9111419 5.9288199,2.9660497 5.5535224,3.0789756 5.1869362,3.2566 4.8164426,3.4361168 4.5690174,3.6099813 4.26285,3.905305 3.6621152,4.4847625 3.2916223,5.2269718 3.1912205,6.0546961 c -0.024302,0.2003431 -0.020657,0.6478213 0.00665,0.8508703 0.1450596,1.0783524 0.761732,2.022691 1.6928639,2.5937101 0.4300458,0.2637273 0.9048601,0.4289233 1.4554637,0.5054125 0.1754316,0.02437 0.6840129,0.02451 0.8575255,0 0.3464042,-0.04885 0.6798888,-0.1363912 0.9484919,-0.2488182 0.091073,-0.03812 0.1835731,-0.076647 0.205229,-0.085531 0.033322,-0.013671 0.1260884,0.00682 0.6023753,0.136627 0.7556933,0.2059632 0.8193867,0.2242692 0.9240864,0.2554832 0.1060116,0.0316 0.1228808,0.03309 0.1331228,0.01666 C 10.024329,10.06746 9.995939,9.9498968 9.8162375,9.2637891 9.7732451,9.0996253 9.7178071,8.8863144 9.6931046,8.7905883 L 9.6476212,8.617304 9.7297131,8.4995596 C 10.078612,8.0031877 10.295614,7.4237816 10.358713,6.8167027 10.38473,6.5663924 10.36995,6.1071494 10.328761,5.8758577 10.189297,5.0927252 9.8424758,4.4399759 9.279318,3.8986401 8.72471,3.3655222 8.0356945,3.0303179 7.2580877,2.9178069 7.1246189,2.898495 6.8788651,2.8904252 6.6634777,2.8933692 z m 0.092076,0.2188269 c 0.2054927,-0.00135 0.4110961,0.00868 0.5391426,0.029991 1.25163,0.208352 2.2790341,1.0588406 2.6790725,2.2182606 0.3068662,0.8893766 0.2285222,1.8724842 -0.2118844,2.6736874 -0.088666,0.1613047 -0.2196881,0.3649929 -0.2906493,0.4520943 -0.028946,0.035531 -0.046593,0.07427 -0.046593,0.1010822 0,0.02408 0.029066,0.1563479 0.065451,0.2932503 0.1506149,0.5666996 0.2207602,0.8394039 0.2207602,0.8675319 0,0.03897 -0.025811,0.03801 -0.181933,-0.0067 C 9.4589044,9.7213968 9.34052,9.6892821 9.2660061,9.6692283 9.1914911,9.6491757 9.0528202,9.6111385 8.9576076,9.5848079 8.8623947,9.5584768 8.7505106,9.5279937 8.7091139,9.5170492 8.6677167,9.5061041 8.5823184,9.4829839 8.5183061,9.4659526 8.4542931,9.448922 8.3886579,9.4348503 8.3729812,9.4348503 c -0.015676,0 -0.093364,0.029377 -0.1719481,0.065537 -0.2306195,0.1061163 -0.482758,0.1899994 -0.7210758,0.2399325 -0.2257401,0.0473 -0.6733245,0.07521 -0.9385081,0.05776 C 5.6297859,9.7381048 4.7283505,9.2720025 4.1496965,8.5628749 3.4348743,7.6868755 3.2098373,6.49553 3.5595238,5.4359821 3.6974059,5.0182002 3.8381985,4.7458541 4.0831357,4.4251574 4.597574,3.7516025 5.3458778,3.3043578 6.2153012,3.1499629 6.3448486,3.1269576 6.5500608,3.1135444 6.7555537,3.1121961 z" fill="#f9f9f9" stroke="#f9f9f9" color="#000000" stroke-width="0.141"/>
</svg>
