<?xml version="1.0" encoding="UTF-8" standalone="no"?>
<svg
   xmlns:dc="http://purl.org/dc/elements/1.1/"
   xmlns:cc="http://creativecommons.org/ns#"
   xmlns:rdf="http://www.w3.org/1999/02/22-rdf-syntax-ns#"
   xmlns:svg="http://www.w3.org/2000/svg"
   xmlns="http://www.w3.org/2000/svg"
   xmlns:sodipodi="http://sodipodi.sourceforge.net/DTD/sodipodi-0.dtd"
   xmlns:inkscape="http://www.inkscape.org/namespaces/inkscape"
   viewBox="0 0 48 48"
   id="svg2"
   version="1.1"
   inkscape:version="0.91 r13725"
   sodipodi:docname="chrome-namljbfbglehfnlonjmebceimaalofei-Default.svg">
  <metadata
     id="metadata69">
    <rdf:RDF>
      <cc:Work
         rdf:about="">
        <dc:format>image/svg+xml</dc:format>
        <dc:type
           rdf:resource="http://purl.org/dc/dcmitype/StillImage" />
      </cc:Work>
    </rdf:RDF>
  </metadata>
  <sodipodi:namedview
     pagecolor="#ffffff"
     bordercolor="#666666"
     borderopacity="1"
     objecttolerance="10"
     gridtolerance="10"
     guidetolerance="10"
     inkscape:pageopacity="0"
     inkscape:pageshadow="2"
     inkscape:window-width="1366"
     inkscape:window-height="713"
     id="namedview67"
     showgrid="false"
     inkscape:zoom="2.4583333"
     inkscape:cx="16.592606"
     inkscape:cy="24"
     inkscape:window-x="0"
     inkscape:window-y="29"
     inkscape:window-maximized="1"
     inkscape:current-layer="svg2" />
  <defs
     id="defs4">
    <linearGradient
       id="linearGradient3764"
       x1="1"
       x2="47"
       gradientUnits="userSpaceOnUse"
       gradientTransform="matrix(0,-1,1,0,-1.5e-6,47.999998)">
      <stop
         stop-color="#4b5d4f"
         stop-opacity="1"
         id="stop7" />
      <stop
         offset="1"
         stop-color="#546959"
         stop-opacity="1"
         id="stop9" />
    </linearGradient>
    <clipPath
       id="clipPath-530109513">
      <g
         transform="translate(0,-1004.3622)"
         id="g12">
        <path
           d="m -24 13 c 0 1.105 -0.672 2 -1.5 2 -0.828 0 -1.5 -0.895 -1.5 -2 0 -1.105 0.672 -2 1.5 -2 0.828 0 1.5 0.895 1.5 2 z"
           transform="matrix(15.333333,0,0,11.5,414.99999,878.8622)"
           fill="#1890d0"
           id="path14" />
      </g>
    </clipPath>
    <clipPath
       id="clipPath-540663940">
      <g
         transform="translate(0,-1004.3622)"
         id="g17">
        <path
           d="m -24 13 c 0 1.105 -0.672 2 -1.5 2 -0.828 0 -1.5 -0.895 -1.5 -2 0 -1.105 0.672 -2 1.5 -2 0.828 0 1.5 0.895 1.5 2 z"
           transform="matrix(15.333333,0,0,11.5,414.99999,878.8622)"
           fill="#1890d0"
           id="path19" />
      </g>
    </clipPath>
  </defs>
  <g
     id="g21">
    <path
       d="m 36.31 5 c 5.859 4.062 9.688 10.831 9.688 18.5 c 0 12.426 -10.07 22.5 -22.5 22.5 c -7.669 0 -14.438 -3.828 -18.5 -9.688 c 1.037 1.822 2.306 3.499 3.781 4.969 c 4.085 3.712 9.514 5.969 15.469 5.969 c 12.703 0 23 -10.298 23 -23 c 0 -5.954 -2.256 -11.384 -5.969 -15.469 c -1.469 -1.475 -3.147 -2.744 -4.969 -3.781 z m 4.969 3.781 c 3.854 4.113 6.219 9.637 6.219 15.719 c 0 12.703 -10.297 23 -23 23 c -6.081 0 -11.606 -2.364 -15.719 -6.219 c 4.16 4.144 9.883 6.719 16.219 6.719 c 12.703 0 23 -10.298 23 -23 c 0 -6.335 -2.575 -12.06 -6.719 -16.219 z"
       opacity="0.05"
       id="path23" />
    <path
       d="m 41.28 8.781 c 3.712 4.085 5.969 9.514 5.969 15.469 c 0 12.703 -10.297 23 -23 23 c -5.954 0 -11.384 -2.256 -15.469 -5.969 c 4.113 3.854 9.637 6.219 15.719 6.219 c 12.703 0 23 -10.298 23 -23 c 0 -6.081 -2.364 -11.606 -6.219 -15.719 z"
       opacity="0.1"
       id="path25" />
    <path
       d="m 31.25 2.375 c 8.615 3.154 14.75 11.417 14.75 21.13 c 0 12.426 -10.07 22.5 -22.5 22.5 c -9.708 0 -17.971 -6.135 -21.12 -14.75 a 23 23 0 0 0 44.875 -7 a 23 23 0 0 0 -16 -21.875 z"
       opacity="0.2"
       id="path27" />
  </g>
  <g
     id="g29">
    <path
       d="m 24 1 c 12.703 0 23 10.297 23 23 c 0 12.703 -10.297 23 -23 23 -12.703 0 -23 -10.297 -23 -23 0 -12.703 10.297 -23 23 -23 z"
       fill="url(#linearGradient3764)"
       fill-opacity="1"
       id="path31" />
  </g>
  <g
     id="g33" />
  <g
     id="g35">
    <g
       clip-path="url(#clipPath-530109513)"
       id="g37">
      <g
         transform="translate(1,1)"
         id="g39">
        <g
           opacity="0.1"
           id="g41">
          <!-- color: #546959 -->
          <g
             id="g43">
            <path
               d="m 19.03 17.594 l -9.23 10.09 c 1.641 6.504 7.184 10.84 14.199 10.84 c 5.77 0 10.582 -2.922 13.09 -7.699 l -7.719 -9.703 l -4.625 4.531 m -5.715 -8.06"
               fill="#000"
               stroke="none"
               fill-rule="evenodd"
               fill-opacity="1"
               id="path45" />
            <path
               d="m 10.724 6.773 c 0 2.182 -1.769 3.951 -3.951 3.951 c -2.183 0 -3.951 -1.769 -3.951 -3.951 c 0 -2.183 1.768 -3.951 3.951 -3.951 c 2.182 0 3.951 1.768 3.951 3.951 m 0 0"
               transform="matrix(3.543307,0,0,3.543307,0,0)"
               stroke-opacity="1"
               fill="#000"
               stroke="#b9cf1f"
               stroke-linejoin="miter"
               stroke-linecap="butt"
               stroke-width="0.564"
               stroke-miterlimit="4"
               id="path47" />
            <path
               d="m 18.05 16 c -1.254 0.18 -2.418 0.449 -3.508 0.816 l 1.23 2.711 c -1.996 0.82 -3.641 1.988 -4.824 3.395 c -0.367 0.441 -0.676 0.926 -0.953 1.402 c 0.172 2.859 1.129 5.48 2.609 7.676 l 2.703 -0.785 l 5.07 -1.469 l 4.059 -1.176 l -1.414 -2.809 l -2.609 -5.129 c 0.137 -0.027 0.285 -0.07 0.426 -0.098 c 6.523 -1.238 10.1 0.676 12.05 2.707 l -4.98 1.273 l -2.059 -3.523 c -1.191 -0.074 -2.566 0.004 -4.148 0.293 l 2.219 4.246 l 1.012 1.926 l 0.43 0.816 l 9.16 -2.645 l 3.41 -1.02 c 0.031 -0.422 0.063 -0.848 0.063 -1.27 c 0 -0.563 -0.035 -1.121 -0.094 -1.664 c -1.719 -1.336 -4.258 -2.461 -7.01 -3.039 c -3.484 -0.867 -7.266 -0.816 -11.125 -0.195 c -0.141 0.023 -0.297 0.043 -0.43 0.066 l -1.289 -2.52 m -1.227 5.887 l 2.242 4.934 l -4.977 1.273 c -0.453 -2.18 -0.105 -4.594 2.734 -6.207 m 0 0"
               fill="#000"
               stroke="none"
               fill-rule="evenodd"
               fill-opacity="1"
               id="path49" />
          </g>
        </g>
      </g>
    </g>
  </g>
  <g
     id="g51">
    <g
       clip-path="url(#clipPath-540663940)"
       id="g53">
      <!-- color: #546959 -->
      <g
         id="g55">
        <path
           d="m 10.724 6.773 c 0 2.182 -1.769 3.951 -3.951 3.951 c -2.183 0 -3.951 -1.769 -3.951 -3.951 c 0 -2.183 1.768 -3.951 3.951 -3.951 c 2.182 0 3.951 1.768 3.951 3.951 m 0 0"
           transform="matrix(3.543307,0,0,3.543307,0,0)"
           stroke-opacity="1"
           fill="none"
           stroke="#b9cf1f"
           stroke-linejoin="miter"
           stroke-linecap="butt"
           stroke-width="0.564"
           stroke-miterlimit="4"
           id="path59" />
        <path
           d="m 18.05 16 c -1.254 0.18 -2.418 0.449 -3.508 0.816 l 1.23 2.711 c -1.996 0.82 -3.641 1.988 -4.824 3.395 c -0.367 0.441 -0.676 0.926 -0.953 1.402 c 0.172 2.859 1.129 5.48 2.609 7.676 l 2.703 -0.785 l 5.07 -1.469 l 4.059 -1.176 l -1.414 -2.809 l -2.609 -5.129 c 0.137 -0.027 0.285 -0.07 0.426 -0.098 c 6.523 -1.238 10.1 0.676 12.05 2.707 l -4.98 1.273 l -2.059 -3.523 c -1.191 -0.074 -2.566 0.004 -4.148 0.293 l 2.219 4.246 l 1.012 1.926 l 0.43 0.816 l 9.16 -2.645 l 3.41 -1.02 c 0.031 -0.422 0.063 -0.848 0.063 -1.27 c 0 -0.563 -0.035 -1.121 -0.094 -1.664 c -1.719 -1.336 -4.258 -2.461 -7.01 -3.039 c -3.484 -0.867 -7.266 -0.816 -11.125 -0.195 c -0.141 0.023 -0.297 0.043 -0.43 0.066 l -1.289 -2.52 m -1.227 5.887 l 2.242 4.934 l -4.977 1.273 c -0.453 -2.18 -0.105 -4.594 2.734 -6.207 m 0 0"
           fill="#b9cf1f"
           stroke="none"
           fill-rule="evenodd"
           fill-opacity="1"
           id="path61" />
      </g>
    </g>
  </g>
  <g
     id="g63">
    <path
       d="m 40.03 7.531 c 3.712 4.084 5.969 9.514 5.969 15.469 0 12.703 -10.297 23 -23 23 c -5.954 0 -11.384 -2.256 -15.469 -5.969 4.178 4.291 10.01 6.969 16.469 6.969 c 12.703 0 23 -10.298 23 -23 0 -6.462 -2.677 -12.291 -6.969 -16.469 z"
       opacity="0.1"
       id="path65" />
  </g>
</svg>
