<?xml version="1.0" encoding="UTF-8" standalone="no"?>
<svg
   xmlns:dc="http://purl.org/dc/elements/1.1/"
   xmlns:cc="http://creativecommons.org/ns#"
   xmlns:rdf="http://www.w3.org/1999/02/22-rdf-syntax-ns#"
   xmlns:svg="http://www.w3.org/2000/svg"
   xmlns="http://www.w3.org/2000/svg"
   xmlns:xlink="http://www.w3.org/1999/xlink"
   xmlns:sodipodi="http://sodipodi.sourceforge.net/DTD/sodipodi-0.dtd"
   xmlns:inkscape="http://www.inkscape.org/namespaces/inkscape"
   width="48"
   viewBox="0 0 13.546667 13.546667"
   height="48"
   id="svg2"
   version="1.1"
   inkscape:version="0.48.4 r9939"
   sodipodi:docname="chrome-ocgddccilgpeepgglnlpchkpgamkgmld-Default.svg">
  <metadata
     id="metadata24">
    <rdf:RDF>
      <cc:Work
         rdf:about="">
        <dc:format>image/svg+xml</dc:format>
        <dc:type
           rdf:resource="http://purl.org/dc/dcmitype/StillImage" />
        <dc:title></dc:title>
      </cc:Work>
    </rdf:RDF>
  </metadata>
  <sodipodi:namedview
     pagecolor="#ffffff"
     bordercolor="#666666"
     borderopacity="1"
     objecttolerance="10"
     gridtolerance="10"
     guidetolerance="10"
     inkscape:pageopacity="0"
     inkscape:pageshadow="2"
     inkscape:window-width="1366"
     inkscape:window-height="742"
     id="namedview22"
     showgrid="true"
     inkscape:zoom="9.1852424"
     inkscape:cx="23.204578"
     inkscape:cy="26.628369"
     inkscape:window-x="0"
     inkscape:window-y="26"
     inkscape:window-maximized="1"
     inkscape:current-layer="svg2">
    <inkscape:grid
       type="xygrid"
       id="grid2992" />
  </sodipodi:namedview>
  <defs
     id="defs4">
    <linearGradient
       id="linearGradient4460">
      <stop
         offset="0"
         style="stop-color:#dedede;stop-opacity:1;"
         id="stop7" />
      <stop
         offset="1"
         style="stop-color:#f9f9f9;stop-opacity:1;"
         id="stop9" />
    </linearGradient>
    <linearGradient
       gradientTransform="matrix(1.10525,0,0,1.10525,-134.27874,-295.76183)"
       xlink:href="#linearGradient4460"
       id="linearGradient3002"
       y1="279.096"
       y2="268.33"
       gradientUnits="userSpaceOnUse"
       x2="0" />
    <linearGradient
       inkscape:collect="always"
       xlink:href="#linearGradient4460"
       id="linearGradient3765"
       gradientUnits="userSpaceOnUse"
       gradientTransform="matrix(1.10525,0,0,1.10525,-134.27874,-295.76183)"
       y1="279.096"
       x2="0"
       y2="268.33" />
  </defs>
  <rect
     id="rect14"
     style="opacity:0.5;fill:#ffffff;fill-rule:evenodd"
     height="12.982"
     rx="6.4910002"
     y="0.28200001"
     x="0.28200001"
     width="12.982" />
  <rect
     id="rect16"
     style="fill:url(#linearGradient3765);fill-rule:evenodd"
     height="11.853"
     rx="5.9260001"
     y="0.847"
     x="0.847"
     width="11.853" />
  <path
     style="fill:#0099cc;fill-opacity:1;stroke:none"
     d="m 3.8276389,4.2333334 c -0.2423749,0 -0.4409722,0.2257084 -0.4409722,0.5027084 l 0,4.0745834 c 0,0.277 0.1985973,0.5027084 0.4409722,0.5027084 l 4.0569446,0 c 0.006,0 0.011699,2.706e-4 0.017639,0 l 0.2822222,0 2.5400003,-2.5400001 -2.5400003,-2.5400001 -0.2822222,0 c -0.00594,-2.706e-4 -0.011639,0 -0.017639,0 l -4.0569446,0 z m 3.8452779,1.6933334 c 0.1511736,-0.00487 0.4274147,0.093334 0.4850696,0.2293056 0.057655,0.1359721 0.013752,0.1556165 -0.097014,0.2557639 C 7.5598747,6.7433121 6.4646529,7.9904169 6.4646529,7.9904169 6.2158534,8.2277155 6.1025437,8.2607355 5.8561112,8.0256947 L 4.938889,7.1349308 C 4.7684614,7.0106494 4.7448445,6.7352609 4.8947917,6.5881252 5.0447392,6.4409895 5.3298568,6.4588318 5.4592362,6.623403 l 0.652639,0.635 1.3052777,-1.2259028 c 0.06792,-0.066305 0.1595309,-0.1033233 0.2557639,-0.1058334 z"
     id="path2994"
     inkscape:connector-curvature="0" />
</svg>
