<svg viewBox="0 0 48 48"><defs><linearGradient id="1" gradientUnits="userSpaceOnUse" y1="15" x2="0" y2="11" gradientTransform="matrix(15.333333,0,0,11.5,414.99999,-125.5)"><stop/><stop offset="1" stop-opacity="0"/></linearGradient><clipPath id="clipPath-598391260"><g transform="translate(0,-1004.3622)"><path d="m -24 13 c 0 1.105 -0.672 2 -1.5 2 -0.828 0 -1.5 -0.895 -1.5 -2 0 -1.105 0.672 -2 1.5 -2 0.828 0 1.5 0.895 1.5 2 z" transform="matrix(15.333333,0,0,11.5,414.99999,878.8622)" fill="#1890d0"/></g></clipPath><clipPath id="clipPath-613931014"><g transform="translate(0,-1004.3622)"><path d="m -24 13 c 0 1.105 -0.672 2 -1.5 2 -0.828 0 -1.5 -0.895 -1.5 -2 0 -1.105 0.672 -2 1.5 -2 0.828 0 1.5 0.895 1.5 2 z" transform="matrix(15.333333,0,0,11.5,414.99999,878.8622)" fill="#1890d0"/></g></clipPath><linearGradient id="linear0" gradientUnits="userSpaceOnUse" x1="-8.847" x2="52.37" gradientTransform="matrix(0,1,-3.594686,0,25.625751,-36.083997)"><stop stop-color="#ea6aa2" stop-opacity="1"/><stop offset="1" stop-color="#e54589" stop-opacity="1"/></linearGradient><clipPath id="clip1"><path d="m 0 0 l 48 0 l 0 16 l -48 0 m 0 -16"/></clipPath><clipPath id="clip2"><path d="m 0.07 0.035 l 0 15.04 c 7.598 2.047 16.05 3.184 24.984 3.184 c 8.949 0 17.441 -1.164 25.05 -3.215 l 0 -15 m -50.03 0"/></clipPath><linearGradient id="linear1" gradientUnits="userSpaceOnUse" y1="105.44" x2="0" y2="132.01" gradientTransform="matrix(0.363154,0,0,0.360673,-46.756204,-8.052959)"><stop stop-color="#ecd400" stop-opacity="1"/><stop offset="1" stop-color="#fbe84e" stop-opacity="1"/></linearGradient><linearGradient id="linear0" gradientUnits="userSpaceOnUse" x1="-8.847" x2="52.37" gradientTransform="matrix(0,1,-3.594686,0,25.625751,-36.083997)"><stop stop-color="#ea6aa2" stop-opacity="1"/><stop offset="1" stop-color="#e54589" stop-opacity="1"/></linearGradient><clipPath id="clip1"><path d="m 0 0 l 48 0 l 0 16 l -48 0 m 0 -16"/></clipPath><clipPath id="clip2"><path d="m 0.07 0.035 l 0 15.04 c 7.598 2.047 16.05 3.184 24.984 3.184 c 8.949 0 17.441 -1.164 25.05 -3.215 l 0 -15 m -50.03 0"/></clipPath><linearGradient id="linear1" gradientUnits="userSpaceOnUse" y1="105.44" x2="0" y2="132.01" gradientTransform="matrix(0.363154,0,0,0.360673,-46.756204,-8.052959)"><stop stop-color="#ecd400" stop-opacity="1"/><stop offset="1" stop-color="#fbe84e" stop-opacity="1"/></linearGradient></defs><g><g transform="translate(0,-1004.3622)"><path d="m 25 1006.36 c -12.703 0 -23 10.298 -23 23 0 6.367 2.601 12.12 6.781 16.281 4.085 3.712 9.514 5.969 15.469 5.969 12.703 0 23 -10.297 23 -23 0 -5.954 -2.256 -11.384 -5.969 -15.469 -4.165 -4.181 -9.914 -6.781 -16.281 -6.781 z m 16.281 6.781 c 3.854 4.113 6.219 9.637 6.219 15.719 0 12.703 -10.297 23 -23 23 -6.081 0 -11.606 -2.364 -15.719 -6.219 4.16 4.144 9.883 6.719 16.219 6.719 12.703 0 23 -10.297 23 -23 0 -6.335 -2.575 -12.06 -6.719 -16.219 z" opacity="0.05"/><path d="m 41.28 1013.14 c 3.712 4.085 5.969 9.514 5.969 15.469 0 12.703 -10.297 23 -23 23 -5.954 0 -11.384 -2.256 -15.469 -5.969 4.113 3.854 9.637 6.219 15.719 6.219 12.703 0 23 -10.297 23 -23 0 -6.081 -2.364 -11.606 -6.219 -15.719 z" opacity="0.1"/><path transform="matrix(15.333333,0,0,11.5,415.24999,879.11222)" d="m -24 13 a 1.5 2 0 1 1 -3 0 1.5 2 0 1 1 3 0 z" opacity="0.2"/></g></g><g><g transform="translate(0,-1004.3622)"><path d="m -24 13 c 0 1.105 -0.672 2 -1.5 2 -0.828 0 -1.5 -0.895 -1.5 -2 0 -1.105 0.672 -2 1.5 -2 0.828 0 1.5 0.895 1.5 2 z" transform="matrix(15.333333,0,0,11.5,414.99999,878.8622)" fill="#5584bb"/></g></g><g><path d="m 47 24 c 0 12.703 -10.297 23 -23 23 -12.703 0 -23 -10.297 -23 -23 0 -12.703 10.297 -23 23 -23 12.703 0 23 10.297 23 23 z" opacity="0.15" fill="url(#1)"/></g><g><g clip-path="url(#clipPath-598391260)"><g transform="translate(0,1)"><g opacity="0.1"><!-- color: #5584bb --><g><path d="m 0 0 l 0 13.438 c 7.285 1.828 15.398 2.844 23.969 2.844 c 8.586 0 16.734 -1.039 24.03 -2.875 l 0 -13.406 m -48 0" fill="#000" stroke="none" fill-rule="nonzero"/><g clip-path="url(#clip1)"><g clip-path="url(#clip2)"><path d="m 25.08 -2.332 c -2.297 0 -4.281 0.953 -5.273 2.348 c -0.895 -0.355 -1.918 -0.559 -3 -0.559 c -2.809 0 -5.195 1.348 -6.078 3.223 c -0.973 -1.219 -2.621 -2.02 -4.488 -2.02 c -2.992 0 -5.418 2.051 -5.418 4.578 c 0 0.223 0.02 0.445 0.059 0.66 c -1.277 1.184 -2.07 2.852 -2.07 4.703 c 0 0.816 0.156 1.598 0.441 2.32 c -0.016 -0.18 -0.027 -0.355 -0.027 -0.539 c 0 -1.852 0.793 -3.523 2.07 -4.703 c -0.039 -0.219 -0.063 -0.441 -0.063 -0.664 c 0 -2.527 2.43 -4.574 5.418 -4.574 c 1.871 0 3.52 0.801 4.492 2.02 c 0.883 -1.875 3.27 -3.227 6.078 -3.227 c 1.086 0 2.102 0.203 3 0.555 c 0.992 -1.391 2.977 -2.344 5.27 -2.344 c 2.699 0 4.969 1.316 5.695 3.113 c 0.105 -0.008 0.211 -0.008 0.316 -0.008 l -0.535 0.383 c 0 0 0 0 0.004 0 c 0.141 -0.094 0.281 -0.168 0.438 -0.23 c 0.18 -0.07 0.367 -0.125 0.551 -0.152 c 0.555 0.02 1.082 0.102 1.57 0.223 c 1.063 0.461 2.023 1.523 2.523 2.961 c 0.465 1.34 0.43 2.715 0 3.785 c -1.043 -0.672 -2.434 -0.859 -3.852 -0.508 l 0.035 -0.145 c -0.008 0.008 -0.012 0.012 -0.02 0.016 c -0.336 -1.562 -1.449 -3.094 -3.105 -4.03 c -2.652 -1.484 -5.684 -0.879 -6.777 1.359 c -0.098 0.199 -0.172 0.41 -0.234 0.621 c 0 0 0.023 0.023 0.023 0.023 l -0.43 1.758 c 0 0 0.004 0 0.004 0 c 0.063 -0.211 0.137 -0.418 0.238 -0.621 c 1.094 -2.238 4.125 -2.848 6.777 -1.359 c 1.168 0.652 2.063 1.609 2.609 2.664 c -0.242 0.102 -0.48 0.215 -0.719 0.348 c -1.656 0.934 -2.77 2.461 -3.105 4.02 c -0.008 -0.004 -0.012 -0.008 -0.02 -0.012 l 0.41 1.789 c 0.004 0.004 0.008 0.004 0.012 0.008 c 0.336 -1.563 1.449 -3.094 3.105 -4.03 c 2.652 -1.484 5.684 -0.879 6.777 1.359 c 0.098 0.199 0.172 0.41 0.238 0.621 l -0.422 -1.758 c 0 0 0.023 -0.023 0.023 -0.023 c 0 0 0 0 -0.004 0 c -0.059 -0.211 -0.137 -0.418 -0.234 -0.617 c -0.277 -0.57 -0.68 -1.031 -1.168 -1.387 l 0.816 -0.598 c -0.008 0 -0.012 0 -0.016 -0.004 c 0.57 -1.105 0.668 -2.633 0.148 -4.117 c -0.246 -0.711 -0.613 -1.332 -1.043 -1.836 c 0.543 -0.258 1.133 -0.422 1.75 -0.496 c 1.859 0.051 3.75 1.641 4.602 4.078 c 0.652 1.879 0.535 3.82 -0.188 5.223 c 0.004 0 0.004 0 0.008 0.004 l 1.418 -1.039 c -0.008 0 -0.016 0 -0.023 -0.004 c 0.344 -0.668 0.547 -1.457 0.602 -2.301 c 1.656 0.57 2.711 3.01 3.352 4.453 c 0.063 -0.164 0.105 0.617 0.133 0.449 c 0.586 -3.84 -1.586 -5.75 -3.57 -6.551 l -0.504 -0.16 c 0.012 -0.871 -0.195 -2.039 -0.441 -2.453 c -0.836 -2.059 -2.844 -3.508 -5.184 -3.508 c -1.18 0 -2.277 0.367 -3.18 0.992 c -0.875 -0.609 -2.188 -0.992 -3.652 -0.992 c -0.16 0 -0.316 0.008 -0.473 0.016 c -0.727 -1.801 -3 -3.117 -5.691 -3.117 m -12.469 7.168 c -0.773 -0.004 -1.586 0.168 -2.379 0.531 c -0.742 0.336 -1.383 0.809 -1.898 1.352 c -2.148 -0.504 -4.23 0.246 -5.098 2.02 c -0.098 0.199 -0.176 0.41 -0.238 0.617 c 0 0 0.027 0.023 0.027 0.023 l -0.43 1.758 c 0 0 0.004 0 0.004 0 c 0.059 -0.211 0.137 -0.414 0.238 -0.617 c 1.094 -2.242 4.129 -2.848 6.777 -1.359 c 1.086 0.609 1.938 1.477 2.492 2.445 c -0.035 0.016 -0.066 0.027 -0.098 0.043 l 0.469 0.734 c 0.105 0.266 0.188 0.531 0.246 0.805 c 0.004 -0.004 0.008 -0.004 0.012 -0.008 l 0.066 -0.297 l 0.098 0.156 c 0.797 -0.223 1.688 -0.27 2.605 -0.09 c 1.699 0.328 3.07 1.348 3.766 2.629 c 0.004 -0.004 0.004 -0.004 0.008 -0.008 l -0.094 -1.691 c -0.004 0.004 -0.008 0.012 -0.012 0.016 c -0.699 -1.277 -2.074 -2.297 -3.77 -2.625 c -0.805 -0.16 -1.586 -0.141 -2.309 0.02 c -0.363 -1.516 -1.453 -2.98 -3.055 -3.887 c 0.348 -0.262 0.73 -0.488 1.145 -0.68 c 1.586 -0.719 3.258 -0.68 4.488 -0.023 c 0 -0.004 0 -0.008 0 -0.012 l -0.949 -1.359 c 0 0.008 0 0.012 0 0.02 c -0.617 -0.328 -1.344 -0.504 -2.109 -0.508 m -0.004 -0.004" fill="#000" stroke="none" fill-rule="nonzero" fill-opacity="1"/></g></g><path d="m 16.469 9 c -5.227 0 -9.473 4.871 -9.473 10.879 c 0 6 4.246 10.879 9.473 10.879 c 3.074 0 5.797 -1.684 7.527 -4.293 c 1.727 2.609 4.461 4.293 7.531 4.293 c 5.227 0 9.473 -4.875 9.473 -10.879 c 0 -6.01 -4.246 -10.879 -9.473 -10.879 c -3.07 0 -5.805 1.684 -7.531 4.289 c -1.73 -2.605 -4.453 -4.289 -7.527 -4.289 m 0 0" fill="#000" stroke="none" fill-rule="nonzero" fill-opacity="1"/><path d="m 23.945 26.438 c -3.398 0 -7.094 3.383 -6.945 5.52 c 0.145 2.137 6.06 11.04 7.391 11.04 c 1.332 0 6.504 -8.727 6.355 -11.223 c -0.148 -2.492 -4.582 -5.52 -6.801 -5.34 m 0 0" fill="#000" stroke="none" fill-rule="nonzero"/><path d="m 30.438 30.684 c -0.809 3.277 -5.04 10.191 -6.223 10.191 c -1.156 0 -5.766 -6.715 -7.05 -9.883 c -0.121 0.336 -0.176 0.664 -0.156 0.965 c 0.148 2.137 6.06 11.04 7.391 11.04 c 1.332 0 6.508 -8.727 6.359 -11.215 c -0.023 -0.359 -0.137 -0.727 -0.313 -1.102 m -0.004 0.004" fill="#000" stroke="none" fill-rule="nonzero" fill-opacity="1"/><path d="m 19.605 17.371 c -1.801 0 -3.266 1.457 -3.266 3.242 c 0 1.789 1.469 3.246 3.266 3.246 c 1.797 0 3.266 -1.457 3.266 -3.246 c 0 -1.785 -1.469 -3.242 -3.266 -3.242 m -0.988 1.582 c 0.395 0 0.711 0.316 0.711 0.707 c 0 0.387 -0.316 0.703 -0.711 0.703 c -0.395 0 -0.711 -0.316 -0.711 -0.703 c 0 -0.391 0.316 -0.707 0.711 -0.707 m 0 0" fill="#000" stroke="none" fill-rule="nonzero" fill-opacity="1"/><path d="m 28.848 17.371 c -1.797 0 -3.266 1.457 -3.266 3.242 c 0 1.789 1.473 3.246 3.266 3.246 c 1.797 0 3.27 -1.457 3.27 -3.246 c 0 -1.785 -1.473 -3.242 -3.27 -3.242 m -0.988 1.582 c 0.395 0 0.715 0.316 0.715 0.707 c 0 0.387 -0.32 0.703 -0.715 0.703 c -0.391 0 -0.711 -0.316 -0.711 -0.703 c 0 -0.391 0.32 -0.707 0.711 -0.707 m 0 0" fill="#000" stroke="none" fill-rule="nonzero" fill-opacity="1"/></g></g></g></g></g><g><g clip-path="url(#clipPath-613931014)"><!-- color: #5584bb --><g><path d="m 0 0 l 0 13.438 c 7.285 1.828 15.398 2.844 23.969 2.844 c 8.586 0 16.734 -1.039 24.03 -2.875 l 0 -13.406 m -48 0" fill="url(#linear0)" stroke="none" fill-rule="nonzero"/><g clip-path="url(#clip1)"><g clip-path="url(#clip2)"><path d="m 25.08 -2.332 c -2.297 0 -4.281 0.953 -5.273 2.348 c -0.895 -0.355 -1.918 -0.559 -3 -0.559 c -2.809 0 -5.195 1.348 -6.078 3.223 c -0.973 -1.219 -2.621 -2.02 -4.488 -2.02 c -2.992 0 -5.418 2.051 -5.418 4.578 c 0 0.223 0.02 0.445 0.059 0.66 c -1.277 1.184 -2.07 2.852 -2.07 4.703 c 0 0.816 0.156 1.598 0.441 2.32 c -0.016 -0.18 -0.027 -0.355 -0.027 -0.539 c 0 -1.852 0.793 -3.523 2.07 -4.703 c -0.039 -0.219 -0.063 -0.441 -0.063 -0.664 c 0 -2.527 2.43 -4.574 5.418 -4.574 c 1.871 0 3.52 0.801 4.492 2.02 c 0.883 -1.875 3.27 -3.227 6.078 -3.227 c 1.086 0 2.102 0.203 3 0.555 c 0.992 -1.391 2.977 -2.344 5.27 -2.344 c 2.699 0 4.969 1.316 5.695 3.113 c 0.105 -0.008 0.211 -0.008 0.316 -0.008 l -0.535 0.383 c 0 0 0 0 0.004 0 c 0.141 -0.094 0.281 -0.168 0.438 -0.23 c 0.18 -0.07 0.367 -0.125 0.551 -0.152 c 0.555 0.02 1.082 0.102 1.57 0.223 c 1.063 0.461 2.023 1.523 2.523 2.961 c 0.465 1.34 0.43 2.715 0 3.785 c -1.043 -0.672 -2.434 -0.859 -3.852 -0.508 l 0.035 -0.145 c -0.008 0.008 -0.012 0.012 -0.02 0.016 c -0.336 -1.562 -1.449 -3.094 -3.105 -4.03 c -2.652 -1.484 -5.684 -0.879 -6.777 1.359 c -0.098 0.199 -0.172 0.41 -0.234 0.621 c 0 0 0.023 0.023 0.023 0.023 l -0.43 1.758 c 0 0 0.004 0 0.004 0 c 0.063 -0.211 0.137 -0.418 0.238 -0.621 c 1.094 -2.238 4.125 -2.848 6.777 -1.359 c 1.168 0.652 2.063 1.609 2.609 2.664 c -0.242 0.102 -0.48 0.215 -0.719 0.348 c -1.656 0.934 -2.77 2.461 -3.105 4.02 c -0.008 -0.004 -0.012 -0.008 -0.02 -0.012 l 0.41 1.789 c 0.004 0.004 0.008 0.004 0.012 0.008 c 0.336 -1.563 1.449 -3.094 3.105 -4.03 c 2.652 -1.484 5.684 -0.879 6.777 1.359 c 0.098 0.199 0.172 0.41 0.238 0.621 l -0.422 -1.758 c 0 0 0.023 -0.023 0.023 -0.023 c 0 0 0 0 -0.004 0 c -0.059 -0.211 -0.137 -0.418 -0.234 -0.617 c -0.277 -0.57 -0.68 -1.031 -1.168 -1.387 l 0.816 -0.598 c -0.008 0 -0.012 0 -0.016 -0.004 c 0.57 -1.105 0.668 -2.633 0.148 -4.117 c -0.246 -0.711 -0.613 -1.332 -1.043 -1.836 c 0.543 -0.258 1.133 -0.422 1.75 -0.496 c 1.859 0.051 3.75 1.641 4.602 4.078 c 0.652 1.879 0.535 3.82 -0.188 5.223 c 0.004 0 0.004 0 0.008 0.004 l 1.418 -1.039 c -0.008 0 -0.016 0 -0.023 -0.004 c 0.344 -0.668 0.547 -1.457 0.602 -2.301 c 1.656 0.57 2.711 3.01 3.352 4.453 c 0.063 -0.164 0.105 0.617 0.133 0.449 c 0.586 -3.84 -1.586 -5.75 -3.57 -6.551 l -0.504 -0.16 c 0.012 -0.871 -0.195 -2.039 -0.441 -2.453 c -0.836 -2.059 -2.844 -3.508 -5.184 -3.508 c -1.18 0 -2.277 0.367 -3.18 0.992 c -0.875 -0.609 -2.188 -0.992 -3.652 -0.992 c -0.16 0 -0.316 0.008 -0.473 0.016 c -0.727 -1.801 -3 -3.117 -5.691 -3.117 m -12.469 7.168 c -0.773 -0.004 -1.586 0.168 -2.379 0.531 c -0.742 0.336 -1.383 0.809 -1.898 1.352 c -2.148 -0.504 -4.23 0.246 -5.098 2.02 c -0.098 0.199 -0.176 0.41 -0.238 0.617 c 0 0 0.027 0.023 0.027 0.023 l -0.43 1.758 c 0 0 0.004 0 0.004 0 c 0.059 -0.211 0.137 -0.414 0.238 -0.617 c 1.094 -2.242 4.129 -2.848 6.777 -1.359 c 1.086 0.609 1.938 1.477 2.492 2.445 c -0.035 0.016 -0.066 0.027 -0.098 0.043 l 0.469 0.734 c 0.105 0.266 0.188 0.531 0.246 0.805 c 0.004 -0.004 0.008 -0.004 0.012 -0.008 l 0.066 -0.297 l 0.098 0.156 c 0.797 -0.223 1.688 -0.27 2.605 -0.09 c 1.699 0.328 3.07 1.348 3.766 2.629 c 0.004 -0.004 0.004 -0.004 0.008 -0.008 l -0.094 -1.691 c -0.004 0.004 -0.008 0.012 -0.012 0.016 c -0.699 -1.277 -2.074 -2.297 -3.77 -2.625 c -0.805 -0.16 -1.586 -0.141 -2.309 0.02 c -0.363 -1.516 -1.453 -2.98 -3.055 -3.887 c 0.348 -0.262 0.73 -0.488 1.145 -0.68 c 1.586 -0.719 3.258 -0.68 4.488 -0.023 c 0 -0.004 0 -0.008 0 -0.012 l -0.949 -1.359 c 0 0.008 0 0.012 0 0.02 c -0.617 -0.328 -1.344 -0.504 -2.109 -0.508 m -0.004 -0.004" fill="#97305d" stroke="none" fill-rule="nonzero" fill-opacity="1"/></g></g><path d="m 16.469 9 c -5.227 0 -9.473 4.871 -9.473 10.879 c 0 6 4.246 10.879 9.473 10.879 c 3.074 0 5.797 -1.684 7.527 -4.293 c 1.727 2.609 4.461 4.293 7.531 4.293 c 5.227 0 9.473 -4.875 9.473 -10.879 c 0 -6.01 -4.246 -10.879 -9.473 -10.879 c -3.07 0 -5.805 1.684 -7.531 4.289 c -1.73 -2.605 -4.453 -4.289 -7.527 -4.289 m 0 0" fill="#f9f9f9" stroke="none" fill-rule="nonzero" fill-opacity="1"/><path d="m 23.945 26.438 c -3.398 0 -7.094 3.383 -6.945 5.52 c 0.145 2.137 6.06 11.04 7.391 11.04 c 1.332 0 6.504 -8.727 6.355 -11.223 c -0.148 -2.492 -4.582 -5.52 -6.801 -5.34 m 0 0" fill="url(#linear1)" stroke="none" fill-rule="nonzero"/><path d="m 30.438 30.684 c -0.809 3.277 -5.04 10.191 -6.223 10.191 c -1.156 0 -5.766 -6.715 -7.05 -9.883 c -0.121 0.336 -0.176 0.664 -0.156 0.965 c 0.148 2.137 6.06 11.04 7.391 11.04 c 1.332 0 6.508 -8.727 6.359 -11.215 c -0.023 -0.359 -0.137 -0.727 -0.313 -1.102 m -0.004 0.004" fill="#ecc100" stroke="none" fill-rule="nonzero" fill-opacity="1"/><path d="m 19.605 17.371 c -1.801 0 -3.266 1.457 -3.266 3.242 c 0 1.789 1.469 3.246 3.266 3.246 c 1.797 0 3.266 -1.457 3.266 -3.246 c 0 -1.785 -1.469 -3.242 -3.266 -3.242 m -0.988 1.582 c 0.395 0 0.711 0.316 0.711 0.707 c 0 0.387 -0.316 0.703 -0.711 0.703 c -0.395 0 -0.711 -0.316 -0.711 -0.703 c 0 -0.391 0.316 -0.707 0.711 -0.707 m 0 0" fill="#034d77" stroke="none" fill-rule="nonzero" fill-opacity="1"/><path d="m 28.848 17.371 c -1.797 0 -3.266 1.457 -3.266 3.242 c 0 1.789 1.473 3.246 3.266 3.246 c 1.797 0 3.27 -1.457 3.27 -3.246 c 0 -1.785 -1.473 -3.242 -3.27 -3.242 m -0.988 1.582 c 0.395 0 0.715 0.316 0.715 0.707 c 0 0.387 -0.32 0.703 -0.715 0.703 c -0.391 0 -0.711 -0.316 -0.711 -0.703 c 0 -0.391 0.32 -0.707 0.711 -0.707 m 0 0" fill="#034d77" stroke="none" fill-rule="nonzero" fill-opacity="1"/></g></g></g><g><path d="m 40.03 7.531 c 3.712 4.084 5.969 9.514 5.969 15.469 0 12.703 -10.297 23 -23 23 c -5.954 0 -11.384 -2.256 -15.469 -5.969 4.178 4.291 10.01 6.969 16.469 6.969 c 12.703 0 23 -10.298 23 -23 0 -6.462 -2.677 -12.291 -6.969 -16.469 z" opacity="0.1"/></g></svg>