<svg xmlns="http://www.w3.org/2000/svg" viewBox="0 0 48 48">
 <defs>
  <linearGradient id="linearGradient3764" x1="1" x2="47" gradientUnits="userSpaceOnUse" gradientTransform="matrix(0,-1,1,0,-1.5e-6,47.999998)">
   <stop style="stop-color:#dea700;stop-opacity:1"/>
   <stop offset="1" style="stop-color:#f2b700;stop-opacity:1"/>
  </linearGradient>
  <clipPath id="clipPath-264175639">
   <g transform="translate(0,-1004.3622)">
    <path d="m -24 13 c 0 1.105 -0.672 2 -1.5 2 -0.828 0 -1.5 -0.895 -1.5 -2 0 -1.105 0.672 -2 1.5 -2 0.828 0 1.5 0.895 1.5 2 z" transform="matrix(15.333333,0,0,11.5,414.99999,878.8622)" style="fill:#1890d0"/>
   </g>
  </clipPath>
  <clipPath id="clipPath-272651492">
   <g transform="translate(0,-1004.3622)">
    <path d="m -24 13 c 0 1.105 -0.672 2 -1.5 2 -0.828 0 -1.5 -0.895 -1.5 -2 0 -1.105 0.672 -2 1.5 -2 0.828 0 1.5 0.895 1.5 2 z" transform="matrix(15.333333,0,0,11.5,414.99999,878.8622)" style="fill:#1890d0"/>
   </g>
  </clipPath>
 </defs>
 <g>
  <path d="m 36.31 5 c 5.859 4.062 9.688 10.831 9.688 18.5 c 0 12.426 -10.07 22.5 -22.5 22.5 c -7.669 0 -14.438 -3.828 -18.5 -9.688 c 1.037 1.822 2.306 3.499 3.781 4.969 c 4.085 3.712 9.514 5.969 15.469 5.969 c 12.703 0 23 -10.298 23 -23 c 0 -5.954 -2.256 -11.384 -5.969 -15.469 c -1.469 -1.475 -3.147 -2.744 -4.969 -3.781 z m 4.969 3.781 c 3.854 4.113 6.219 9.637 6.219 15.719 c 0 12.703 -10.297 23 -23 23 c -6.081 0 -11.606 -2.364 -15.719 -6.219 c 4.16 4.144 9.883 6.719 16.219 6.719 c 12.703 0 23 -10.298 23 -23 c 0 -6.335 -2.575 -12.06 -6.719 -16.219 z" style="opacity:0.05"/>
  <path d="m 41.28 8.781 c 3.712 4.085 5.969 9.514 5.969 15.469 c 0 12.703 -10.297 23 -23 23 c -5.954 0 -11.384 -2.256 -15.469 -5.969 c 4.113 3.854 9.637 6.219 15.719 6.219 c 12.703 0 23 -10.298 23 -23 c 0 -6.081 -2.364 -11.606 -6.219 -15.719 z" style="opacity:0.1"/>
  <path d="m 31.25 2.375 c 8.615 3.154 14.75 11.417 14.75 21.13 c 0 12.426 -10.07 22.5 -22.5 22.5 c -9.708 0 -17.971 -6.135 -21.12 -14.75 a 23 23 0 0 0 44.875 -7 a 23 23 0 0 0 -16 -21.875 z" style="opacity:0.2"/>
 </g>
 <g>
  <path d="m 24 1 c 12.703 0 23 10.297 23 23 c 0 12.703 -10.297 23 -23 23 -12.703 0 -23 -10.297 -23 -23 0 -12.703 10.297 -23 23 -23 z" style="fill:url(#linearGradient3764);fill-opacity:1"/>
 </g>
 <g>
  <g style="clip-path:url(#clipPath-264175639)">
   <g transform="translate(1,1)">
    <g style="opacity:0.1">
     <!-- color: #f2b700 -->
     <g>
      <path d="M 19.875,9 C 19.383,9 19,9.383 19,9.875 L 19,13 17.344,13 c -2.398,0 -4.313,1.914 -4.313,4.313 l 0,1.687 -3.156,0 C 9.383,19 9,19.387 9,19.875 l 0,0.25 C 9,20.617 9.4059385,21.148477 9.875,21 l 3.156,0 0,2 -3.156,0 C 9.383,23 9,23.387 9,23.875 l 0,0.25 C 9,24.617 9.4059385,25.148477 9.875,25 l 3.156,0 0,2 -3.156,0 C 9.383,27 9,27.387 9,27.875 l 0,0.25 C 9,28.617 9.4059385,29.148477 9.875,29 l 3.156,0 0,1.689 c 0,2.398 1.914,4.316 4.313,4.316 l 1.656,0 0,3.125 c 0,0.488 0.383,0.875 0.875,0.875 l 0.25,0 C 20.617,39.005 21,38.618 21,38.13 l 0,-3.125 2,0 0,3.125 c 0,0.488 0.383,0.875 0.875,0.875 l 0.25,0 C 24.617,39.005 25,38.618 25,38.13 l 0,-3.125 2,0 0,3.125 c 0,0.488 0.383,0.875 0.875,0.875 l 0.25,0 C 28.617,39.005 29,38.618 29,38.13 l 0,-3.125 1.688,0 c 2.398,0 4.313,-1.914 4.313,-4.316 l 0,-1.689 3.125,0 c 0.492,0 0.875,-0.383 0.875,-0.875 l 0,-0.25 c 0,-0.488 -0.406364,-0.725186 -0.875,-0.875 l -3.125,0 0,-2 3.125,0 c 0.492,0 0.875,-0.383 0.875,-0.875 l 0,-0.25 c 0,-0.488 -0.406364,-0.725186 -0.875,-0.875 l -3.125,0 0,-2 3.125,0 c 0.492,0 0.875,-0.383 0.875,-0.875 l 0,-0.25 c 0,-0.488 -0.406364,-0.725186 -0.875,-0.875 l -3.125,0 0,-1.687 C 35.001,14.915 33.087,13 30.688,13 L 29,13 29,9.875 C 29,9.383 28.617,9 28.125,9 l -0.25,0 C 27.383,9 27,9.383 27,9.875 L 27,13 25,13 25,9.875 C 25,9.383 24.617,9 24.125,9 l -0.25,0 C 23.383,9 23,9.383 23,9.875 L 23,13 21,13 21,9.875 C 21,9.383 20.617,9 20.125,9 m -1.594,6 10.938,0 C 31.43,15 33,16.57 33,18.531 l 0,10.938 C 33,31.43 31.43,33 29.469,33 l -10.938,0 c -1.961,0 -3.5,-1.57 -3.5,-3.531 l 0,-10.938 C 15.031,16.57 16.57,15 18.531,15" style="fill:#000;fill-opacity:1;stroke:none;fill-rule:nonzero"/>
      <path d="m 19.762 17 c -1.527 0 -2.746 1.219 -2.746 2.746 l 0 8.5 c 0 1.527 1.219 2.746 2.746 2.746 l 8.5 0 c 1.527 0 2.746 -1.219 2.746 -2.746 l 0 -8.5 c 0 -1.527 -1.219 -2.746 -2.746 -2.746 m -8.5 0" style="fill:#000;fill-opacity:1;stroke:none;fill-rule:nonzero"/>
     </g>
    </g>
   </g>
  </g>
 </g>
 <g>
  <g style="clip-path:url(#clipPath-272651492)">
   <!-- color: #f2b700 -->
   <g>
    <path d="M 19.875,9 C 19.383,9 19,9.383 19,9.875 L 19,13 17.344,13 c -2.398,0 -4.313,1.914 -4.313,4.313 l 0,1.687 -3.156,0 C 9.383,19 9,19.387 9,19.875 l 0,0.25 C 9,20.617 9.383,21 9.875,21 l 3.156,0 0,2 -3.156,0 C 9.383,23 9,23.387 9,23.875 l 0,0.25 C 9,24.617 9.383,25 9.875,25 l 3.156,0 0,2 -3.156,0 C 9.383,27 9,27.387 9,27.875 l 0,0.25 C 9,28.617 9.4059385,29.148477 9.875,29 l 3.156,0 0,1.689 c 0,2.398 1.914,4.316 4.313,4.316 l 1.656,0 0,3.125 c 0,0.488 0.383,0.875 0.875,0.875 l 0.25,0 C 20.617,39.005 21,38.618 21,38.13 l 0,-3.125 2,0 0,3.125 c 0,0.488 0.383,0.875 0.875,0.875 l 0.25,0 C 24.617,39.005 25,38.618 25,38.13 l 0,-3.125 2,0 0,3.125 c 0,0.488 0.383,0.875 0.875,0.875 l 0.25,0 C 28.617,39.005 29,38.618 29,38.13 l 0,-3.125 1.688,0 c 2.398,0 4.313,-1.914 4.313,-4.316 l 0,-1.689 3.125,0 c 0.492,0 0.875,-0.383 0.875,-0.875 l 0,-0.25 c 0,-0.488 -0.406364,-0.725186 -0.875,-0.875 l -3.125,0 0,-2 3.125,0 c 0.492,0 0.875,-0.383 0.875,-0.875 l 0,-0.25 c 0,-0.488 -0.406364,-0.725186 -0.875,-0.875 l -3.125,0 0,-2 3.125,0 c 0.492,0 0.875,-0.383 0.875,-0.875 l 0,-0.25 c 0,-0.488 -0.406364,-0.725186 -0.875,-0.875 l -3.125,0 0,-1.687 C 35.001,14.915 33.087,13 30.688,13 L 29,13 29,9.875 C 29,9.383 28.617,9 28.125,9 l -0.25,0 C 27.383,9 27,9.383 27,9.875 L 27,13 25,13 25,9.875 C 25,9.383 24.617,9 24.125,9 l -0.25,0 C 23.383,9 23,9.383 23,9.875 L 23,13 21,13 21,9.875 C 21,9.383 20.617,9 20.125,9 m -1.594,6 10.938,0 C 31.43,15 33,16.57 33,18.531 l 0,10.938 C 33,31.43 31.43,33 29.469,33 l -10.938,0 c -1.961,0 -3.5,-1.57 -3.5,-3.531 l 0,-10.938 C 15.031,16.57 16.57,15 18.531,15" style="fill:#f2f2f2;fill-opacity:1;stroke:none;fill-rule:nonzero"/>
    <path d="m 19.762 17 c -1.527 0 -2.746 1.219 -2.746 2.746 l 0 8.5 c 0 1.527 1.219 2.746 2.746 2.746 l 8.5 0 c 1.527 0 2.746 -1.219 2.746 -2.746 l 0 -8.5 c 0 -1.527 -1.219 -2.746 -2.746 -2.746 m -8.5 0" style="fill:#f2f2f2;fill-opacity:1;stroke:none;fill-rule:nonzero"/>
   </g>
  </g>
 </g>
 <g>
  <path d="m 40.03 7.531 c 3.712 4.084 5.969 9.514 5.969 15.469 0 12.703 -10.297 23 -23 23 c -5.954 0 -11.384 -2.256 -15.469 -5.969 4.178 4.291 10.01 6.969 16.469 6.969 c 12.703 0 23 -10.298 23 -23 0 -6.462 -2.677 -12.291 -6.969 -16.469 z" style="opacity:0.1"/>
 </g>
</svg>
