<svg viewBox="0 0 48 48"><defs><linearGradient id="linearGradient3764" x1="1" x2="47" gradientUnits="userSpaceOnUse" gradientTransform="matrix(0,-1,1,0,-1.5e-6,47.999998)"><stop stop-color="#669034" stop-opacity="1"/><stop offset="1" stop-color="#709f39" stop-opacity="1"/></linearGradient><clipPath id="clipPath-668236941"><g transform="translate(0,-1004.3622)"><path d="m -24 13 c 0 1.105 -0.672 2 -1.5 2 -0.828 0 -1.5 -0.895 -1.5 -2 0 -1.105 0.672 -2 1.5 -2 0.828 0 1.5 0.895 1.5 2 z" transform="matrix(15.333333,0,0,11.5,414.99999,878.8622)" fill="#1890d0"/></g></clipPath><clipPath id="clipPath-678346521"><g transform="translate(0,-1004.3622)"><path d="m -24 13 c 0 1.105 -0.672 2 -1.5 2 -0.828 0 -1.5 -0.895 -1.5 -2 0 -1.105 0.672 -2 1.5 -2 0.828 0 1.5 0.895 1.5 2 z" transform="matrix(15.333333,0,0,11.5,414.99999,878.8622)" fill="#1890d0"/></g></clipPath></defs><g><path d="m 36.31 5 c 5.859 4.062 9.688 10.831 9.688 18.5 c 0 12.426 -10.07 22.5 -22.5 22.5 c -7.669 0 -14.438 -3.828 -18.5 -9.688 c 1.037 1.822 2.306 3.499 3.781 4.969 c 4.085 3.712 9.514 5.969 15.469 5.969 c 12.703 0 23 -10.298 23 -23 c 0 -5.954 -2.256 -11.384 -5.969 -15.469 c -1.469 -1.475 -3.147 -2.744 -4.969 -3.781 z m 4.969 3.781 c 3.854 4.113 6.219 9.637 6.219 15.719 c 0 12.703 -10.297 23 -23 23 c -6.081 0 -11.606 -2.364 -15.719 -6.219 c 4.16 4.144 9.883 6.719 16.219 6.719 c 12.703 0 23 -10.298 23 -23 c 0 -6.335 -2.575 -12.06 -6.719 -16.219 z" opacity="0.05"/><path d="m 41.28 8.781 c 3.712 4.085 5.969 9.514 5.969 15.469 c 0 12.703 -10.297 23 -23 23 c -5.954 0 -11.384 -2.256 -15.469 -5.969 c 4.113 3.854 9.637 6.219 15.719 6.219 c 12.703 0 23 -10.298 23 -23 c 0 -6.081 -2.364 -11.606 -6.219 -15.719 z" opacity="0.1"/><path d="m 31.25 2.375 c 8.615 3.154 14.75 11.417 14.75 21.13 c 0 12.426 -10.07 22.5 -22.5 22.5 c -9.708 0 -17.971 -6.135 -21.12 -14.75 a 23 23 0 0 0 44.875 -7 a 23 23 0 0 0 -16 -21.875 z" opacity="0.2"/></g><g><path d="m 24 1 c 12.703 0 23 10.297 23 23 c 0 12.703 -10.297 23 -23 23 -12.703 0 -23 -10.297 -23 -23 0 -12.703 10.297 -23 23 -23 z" fill="url(#linearGradient3764)" fill-opacity="1"/></g><g/><g><g clip-path="url(#clipPath-668236941)"><g transform="translate(1,1)"><g opacity="0.1"><!-- color: #709f39 --><g><path d="m 23 11 l -12 10 c -0.875 0.773 -1.215 1.441 -0.688 2 c 0.555 0.559 1.219 0.469 1.688 0 l 0 11 c 0 0.492 0.484 1 1 1 l 22 0 c 0.516 0 1 -0.508 1 -1 l 0 -11 c 0.469 0.469 1.129 0.559 1.688 0 c 0.527 -0.559 0.188 -1.227 -0.688 -2 l -12 -10 m -1.5 11 c 0.648 0 1.195 0.422 1.406 1 l 1.188 0 c 0.203 -0.586 0.75 -1 1.406 -1 c 0.648 0 1.195 0.422 1.406 1 l 1.188 0 c 0.203 -0.586 0.75 -1 1.406 -1 c 0.805 0 1.469 0.633 1.5 1.438 l 0 0.063 c 0 0.656 -0.414 1.203 -1 1.406 l 0 1.188 c 0.559 0.203 0.977 0.719 1 1.344 l 0 0.066 c 0 0.652 -0.414 1.199 -1 1.402 l 0 1.191 c 0.559 0.199 0.977 0.715 1 1.344 l 0 0.063 c 0 0.828 -0.672 1.5 -1.5 1.5 c -0.656 0 -1.203 -0.414 -1.406 -1 l -1.188 0 c -0.203 0.586 -0.75 1 -1.406 1 c -0.656 0 -1.203 -0.414 -1.406 -1 l -1.188 0 c -0.203 0.586 -0.75 1 -1.406 1 c -0.828 0 -1.5 -0.672 -1.5 -1.5 c 0 -0.656 0.414 -1.203 1 -1.406 l 0 -1.188 c -0.586 -0.207 -1 -0.75 -1 -1.406 c 0 -0.656 0.414 -1.203 1 -1.406 l 0 -1.188 c -0.586 -0.207 -1 -0.75 -1 -1.406 c 0 -0.828 0.672 -1.5 1.5 -1.5 m 1.406 1.996 c -0.148 0.434 -0.473 0.758 -0.906 0.906 l 0 1.188 c 0.418 0.148 0.754 0.484 0.906 0.906 l 1.188 0 c 0.148 -0.434 0.473 -0.758 0.906 -0.906 l 0 -1.188 c -0.434 -0.148 -0.758 -0.473 -0.906 -0.906 m 2.813 0 c -0.148 0.434 -0.473 0.758 -0.906 0.906 l 0 1.188 c 0.418 0.148 0.754 0.484 0.906 0.906 l 1.188 0 c 0.148 -0.434 0.473 -0.758 0.906 -0.906 l 0 -1.188 c -0.434 -0.148 -0.758 -0.473 -0.906 -0.906 m -5.188 4 c -0.148 0.434 -0.473 0.758 -0.906 0.906 l 0 1.188 c 0.418 0.148 0.754 0.484 0.906 0.906 l 1.188 0 c 0.148 -0.434 0.473 -0.758 0.906 -0.906 l 0 -1.188 c -0.434 -0.148 -0.758 -0.473 -0.906 -0.906 m 2.813 0 c -0.145 0.434 -0.473 0.758 -0.898 0.906 l 0 1.188 c 0.418 0.148 0.754 0.484 0.898 0.906 l 1.191 0 c 0.145 -0.434 0.473 -0.758 0.906 -0.906 l 0 -1.188 c -0.438 -0.148 -0.762 -0.473 -0.906 -0.906 m -1.191 0" fill="#000" stroke="none" fill-rule="nonzero" fill-opacity="1"/></g></g></g></g></g><g><g clip-path="url(#clipPath-678346521)"><!-- color: #709f39 --><g><path d="m 23 11 l -12 10 c -0.875 0.773 -1.215 1.441 -0.688 2 c 0.555 0.559 1.219 0.469 1.688 0 l 0 11 c 0 0.492 0.484 1 1 1 l 22 0 c 0.516 0 1 -0.508 1 -1 l 0 -11 c 0.469 0.469 1.129 0.559 1.688 0 c 0.527 -0.559 0.188 -1.227 -0.688 -2 l -12 -10 m -1.5 11 c 0.648 0 1.195 0.422 1.406 1 l 1.188 0 c 0.203 -0.586 0.75 -1 1.406 -1 c 0.648 0 1.195 0.422 1.406 1 l 1.188 0 c 0.203 -0.586 0.75 -1 1.406 -1 c 0.805 0 1.469 0.633 1.5 1.438 l 0 0.063 c 0 0.656 -0.414 1.203 -1 1.406 l 0 1.188 c 0.559 0.203 0.977 0.719 1 1.344 l 0 0.066 c 0 0.652 -0.414 1.199 -1 1.402 l 0 1.191 c 0.559 0.199 0.977 0.715 1 1.344 l 0 0.063 c 0 0.828 -0.672 1.5 -1.5 1.5 c -0.656 0 -1.203 -0.414 -1.406 -1 l -1.188 0 c -0.203 0.586 -0.75 1 -1.406 1 c -0.656 0 -1.203 -0.414 -1.406 -1 l -1.188 0 c -0.203 0.586 -0.75 1 -1.406 1 c -0.828 0 -1.5 -0.672 -1.5 -1.5 c 0 -0.656 0.414 -1.203 1 -1.406 l 0 -1.188 c -0.586 -0.207 -1 -0.75 -1 -1.406 c 0 -0.656 0.414 -1.203 1 -1.406 l 0 -1.188 c -0.586 -0.207 -1 -0.75 -1 -1.406 c 0 -0.828 0.672 -1.5 1.5 -1.5 m 1.406 1.996 c -0.148 0.434 -0.473 0.758 -0.906 0.906 l 0 1.188 c 0.418 0.148 0.754 0.484 0.906 0.906 l 1.188 0 c 0.148 -0.434 0.473 -0.758 0.906 -0.906 l 0 -1.188 c -0.434 -0.148 -0.758 -0.473 -0.906 -0.906 m 2.813 0 c -0.148 0.434 -0.473 0.758 -0.906 0.906 l 0 1.188 c 0.418 0.148 0.754 0.484 0.906 0.906 l 1.188 0 c 0.148 -0.434 0.473 -0.758 0.906 -0.906 l 0 -1.188 c -0.434 -0.148 -0.758 -0.473 -0.906 -0.906 m -5.188 4 c -0.148 0.434 -0.473 0.758 -0.906 0.906 l 0 1.188 c 0.418 0.148 0.754 0.484 0.906 0.906 l 1.188 0 c 0.148 -0.434 0.473 -0.758 0.906 -0.906 l 0 -1.188 c -0.434 -0.148 -0.758 -0.473 -0.906 -0.906 m 2.813 0 c -0.145 0.434 -0.473 0.758 -0.898 0.906 l 0 1.188 c 0.418 0.148 0.754 0.484 0.898 0.906 l 1.191 0 c 0.145 -0.434 0.473 -0.758 0.906 -0.906 l 0 -1.188 c -0.438 -0.148 -0.762 -0.473 -0.906 -0.906 m -1.191 0" fill="#f9f9f9" stroke="none" fill-rule="nonzero" fill-opacity="1"/></g></g></g><g><path d="m 40.03 7.531 c 3.712 4.084 5.969 9.514 5.969 15.469 0 12.703 -10.297 23 -23 23 c -5.954 0 -11.384 -2.256 -15.469 -5.969 4.178 4.291 10.01 6.969 16.469 6.969 c 12.703 0 23 -10.298 23 -23 0 -6.462 -2.677 -12.291 -6.969 -16.469 z" opacity="0.1"/></g></svg>