<svg viewBox="0 0 48 48"><defs><linearGradient id="linearGradient3764" x1="1" x2="47" gradientUnits="userSpaceOnUse" gradientTransform="matrix(0,-1,1,0,-1.5e-6,47.999998)"><stop stop-color="#e4e4e4" stop-opacity="1"/><stop offset="1" stop-color="#eee" stop-opacity="1"/></linearGradient><clipPath id="clipPath-450271475"><g transform="translate(0,-1004.3622)"><path d="m -24 13 c 0 1.105 -0.672 2 -1.5 2 -0.828 0 -1.5 -0.895 -1.5 -2 0 -1.105 0.672 -2 1.5 -2 0.828 0 1.5 0.895 1.5 2 z" transform="matrix(15.333333,0,0,11.5,414.99999,878.8622)" fill="#1890d0"/></g></clipPath><clipPath id="clipPath-458021723"><g transform="translate(0,-1004.3622)"><path d="m -24 13 c 0 1.105 -0.672 2 -1.5 2 -0.828 0 -1.5 -0.895 -1.5 -2 0 -1.105 0.672 -2 1.5 -2 0.828 0 1.5 0.895 1.5 2 z" transform="matrix(15.333333,0,0,11.5,414.99999,878.8622)" fill="#1890d0"/></g></clipPath><linearGradient id="linear0" gradientUnits="userSpaceOnUse" x1="1.521" y1="6.63" x2="11.968" y2="6.659" gradientTransform="matrix(0,-3.543307,3.543307,0,0.000000350784,48)"><stop stop-color="#fc8e46" stop-opacity="1"/><stop offset="1" stop-color="#20b8e6" stop-opacity="1"/></linearGradient><linearGradient id="linear0" gradientUnits="userSpaceOnUse" x1="1.521" y1="6.63" x2="11.968" y2="6.659" gradientTransform="matrix(0,-3.543307,3.543307,0,0.000000350784,48)"><stop stop-color="#fc8e46" stop-opacity="1"/><stop offset="1" stop-color="#20b8e6" stop-opacity="1"/></linearGradient></defs><g><g transform="translate(0,-1004.3622)"><path d="m 25 1006.36 c -12.703 0 -23 10.298 -23 23 0 6.367 2.601 12.12 6.781 16.281 4.085 3.712 9.514 5.969 15.469 5.969 12.703 0 23 -10.297 23 -23 0 -5.954 -2.256 -11.384 -5.969 -15.469 -4.165 -4.181 -9.914 -6.781 -16.281 -6.781 z m 16.281 6.781 c 3.854 4.113 6.219 9.637 6.219 15.719 0 12.703 -10.297 23 -23 23 -6.081 0 -11.606 -2.364 -15.719 -6.219 4.16 4.144 9.883 6.719 16.219 6.719 12.703 0 23 -10.297 23 -23 0 -6.335 -2.575 -12.06 -6.719 -16.219 z" opacity="0.05"/><path d="m 41.28 1013.14 c 3.712 4.085 5.969 9.514 5.969 15.469 0 12.703 -10.297 23 -23 23 -5.954 0 -11.384 -2.256 -15.469 -5.969 4.113 3.854 9.637 6.219 15.719 6.219 12.703 0 23 -10.297 23 -23 0 -6.081 -2.364 -11.606 -6.219 -15.719 z" opacity="0.1"/><path transform="matrix(15.333333,0,0,11.5,415.24999,879.11222)" d="m -24 13 a 1.5 2 0 1 1 -3 0 1.5 2 0 1 1 3 0 z" opacity="0.2"/></g></g><g><path d="m 24 1 c 12.703 0 23 10.297 23 23 c 0 12.703 -10.297 23 -23 23 -12.703 0 -23 -10.297 -23 -23 0 -12.703 10.297 -23 23 -23 z" fill="url(#linearGradient3764)" fill-opacity="1"/></g><g/><g><g clip-path="url(#clipPath-450271475)"><g transform="translate(0,1)"><g opacity="0.1"><!-- color: #eeeeee --><g><rect width="48" height="48" fill="#000" stroke="none"/><path d="m 23.25 26.629 c -2.191 -2.746 -2.859 -5.352 -1.992 -8.172 c 0.242 -0.781 0.473 -1.699 0.516 -2.043 c 0.074 -0.609 0.066 -0.645 -0.301 -1.012 c -0.207 -0.211 -0.645 -0.539 -0.969 -0.73 l -0.594 -0.344 l -1.113 0.137 c -2.926 0.352 -4.668 1.285 -6.352 3.391 c -0.441 0.551 -0.57 0.492 -0.309 -0.133 c 1.52 -2.477 4.512 -3.598 6.648 -3.887 c 1.285 -0.25 1.578 -0.344 1.715 -0.563 c 0.383 -0.594 1.012 -1.16 1.371 -1.234 c 0.547 -0.113 1.52 0.141 1.859 0.48 c 0.469 0.465 0.57 1 0.496 2.613 c -0.035 0.789 -0.137 1.688 -0.23 1.996 c -0.172 0.641 -0.199 1.246 -0.23 1.906 c 4.625 1.672 9.137 4.254 12.227 7.453 c -0.672 -0.402 -1.73 -0.875 -2.262 -1.031 c 2.426 1.309 1.934 3.363 -0.195 1.563 c 0.078 -0.027 0.316 0.035 0.531 0.145 c 0.215 0.105 0.441 0.18 0.508 0.156 c -1.703 -2.039 -5.359 -0.805 -6.52 0.215 c -0.813 2.719 -0.277 6.098 -0.926 8.367 c -0.203 0.148 -0.43 0.086 -0.523 0.027 c 0.375 -2.68 0.387 -5.586 0.313 -7.961 l -0.746 -0.055 c -0.41 -0.031 -0.824 -0.078 -0.914 -0.102 c 0.277 2.492 0.457 5.328 0.457 8.04 c -0.133 0.18 -0.324 0.191 -0.543 0.008 c -0.176 -3.688 0.34 -6.211 -1.926 -9.215 m 0.004 -0.012" fill="#000" stroke="none" fill-rule="nonzero" fill-opacity="1"/></g></g></g></g></g><g><g clip-path="url(#clipPath-458021723)"><!-- color: #eeeeee --><g><rect width="48" height="48" fill="url(#linear0)" stroke="none"/><path d="m 23.25 26.629 c -2.191 -2.746 -2.859 -5.352 -1.992 -8.172 c 0.242 -0.781 0.473 -1.699 0.516 -2.043 c 0.074 -0.609 0.066 -0.645 -0.301 -1.012 c -0.207 -0.211 -0.645 -0.539 -0.969 -0.73 l -0.594 -0.344 l -1.113 0.137 c -2.926 0.352 -4.668 1.285 -6.352 3.391 c -0.441 0.551 -0.57 0.492 -0.309 -0.133 c 1.52 -2.477 4.512 -3.598 6.648 -3.887 c 1.285 -0.25 1.578 -0.344 1.715 -0.563 c 0.383 -0.594 1.012 -1.16 1.371 -1.234 c 0.547 -0.113 1.52 0.141 1.859 0.48 c 0.469 0.465 0.57 1 0.496 2.613 c -0.035 0.789 -0.137 1.688 -0.23 1.996 c -0.172 0.641 -0.199 1.246 -0.23 1.906 c 4.625 1.672 9.137 4.254 12.227 7.453 c -0.672 -0.402 -1.73 -0.875 -2.262 -1.031 c 2.426 1.309 1.934 3.363 -0.195 1.563 c 0.078 -0.027 0.316 0.035 0.531 0.145 c 0.215 0.105 0.441 0.18 0.508 0.156 c -1.703 -2.039 -5.359 -0.805 -6.52 0.215 c -0.813 2.719 -0.277 6.098 -0.926 8.367 c -0.203 0.148 -0.43 0.086 -0.523 0.027 c 0.375 -2.68 0.387 -5.586 0.313 -7.961 l -0.746 -0.055 c -0.41 -0.031 -0.824 -0.078 -0.914 -0.102 c 0.277 2.492 0.457 5.328 0.457 8.04 c -0.133 0.18 -0.324 0.191 -0.543 0.008 c -0.176 -3.688 0.34 -6.211 -1.926 -9.215 m 0.004 -0.012" fill="#001b36" stroke="none" fill-rule="nonzero" fill-opacity="1"/></g></g></g><g><path d="m 40.03 7.531 c 3.712 4.084 5.969 9.514 5.969 15.469 0 12.703 -10.297 23 -23 23 c -5.954 0 -11.384 -2.256 -15.469 -5.969 4.178 4.291 10.01 6.969 16.469 6.969 c 12.703 0 23 -10.298 23 -23 0 -6.462 -2.677 -12.291 -6.969 -16.469 z" opacity="0.1"/></g></svg>