<svg xmlns="http://www.w3.org/2000/svg" version="1.1" viewBox="0 0 48 48">
 <defs>
  <linearGradient id="linearGradient4195" y2="46" gradientUnits="userSpaceOnUse" x2="24" y1="2" x1="24">
   <stop style="stop-color:#24d690" offset="0"/>
   <stop style="stop-color:#82a0b5" offset="1"/>
  </linearGradient>
 </defs>
 <g>
  <path style="opacity:.05" d="m36.31 5c5.859 4.062 9.688 10.831 9.688 18.5 0 12.426-10.07 22.5-22.5 22.5-7.669 0-14.438-3.828-18.5-9.688 1.037 1.822 2.306 3.499 3.781 4.969 4.085 3.712 9.514 5.969 15.469 5.969 12.703 0 23-10.298 23-23 0-5.954-2.256-11.384-5.969-15.469-1.469-1.475-3.147-2.744-4.969-3.781zm4.969 3.781c3.854 4.113 6.219 9.637 6.219 15.719 0 12.703-10.297 23-23 23-6.081 0-11.606-2.364-15.719-6.219 4.16 4.144 9.883 6.719 16.219 6.719 12.703 0 23-10.298 23-23 0-6.335-2.575-12.06-6.719-16.219z"/>
  <path style="opacity:.1" d="m41.28 8.781c3.712 4.085 5.969 9.514 5.969 15.469 0 12.703-10.297 23-23 23-5.954 0-11.384-2.256-15.469-5.969 4.113 3.854 9.637 6.219 15.719 6.219 12.703 0 23-10.298 23-23 0-6.081-2.364-11.606-6.219-15.719z"/>
  <path style="opacity:.2" d="m31.25 2.375c8.615 3.154 14.75 11.417 14.75 21.13 0 12.426-10.07 22.5-22.5 22.5-9.708 0-17.971-6.135-21.12-14.75a23 23 0 0 0 44.875 -7 23 23 0 0 0 -16 -21.875z"/>
 </g>
 <path style="fill:url(#linearGradient4195)" d="m47 24a23 23 0 0 1 -23 23 23 23 0 0 1 -23 -23 23 23 0 0 1 23 -23 23 23 0 0 1 23 23z"/>
 <g>
  <path style="opacity:.1" d="m40.03 7.531c3.712 4.084 5.969 9.514 5.969 15.469 0 12.703-10.297 23-23 23-5.954 0-11.384-2.256-15.469-5.969 4.178 4.291 10.01 6.969 16.469 6.969 12.703 0 23-10.298 23-23 0-6.462-2.677-12.291-6.969-16.469z"/>
 </g>
 <g>
  <path style="fill-opacity:.1" d="m12 12h26v26h-26z"/>
  <path style="fill:#303030" d="m11 11h26v26h-26z"/>
  <path style="fill:#f9f9f9" d="m14 14h4.3255c2.587 0 4.674 2.017 4.674 5.475v0.05c0 3.4919-2.5088 5.4336-4.4452 5.4566l-1.555 0.018h-3zm4 9c1.2037 0 3-0.98314 3-3.475v-0.05c0-2.458-1.796-3.475-3-3.475h-2v7z"/>
  <path style="paint-order:normal;stroke:#fff;stroke-width:2;fill:none" d="m29 20h4v2.4829s-1 1.517-3.5 1.517c-2.75 0-4.5-1.75-4.5-4.5s1.75-4.5 4.5-4.5c1.375 0 2.5 0.4375 3.2812 1.2188"/>
  <path style="fill:#f9f9f9" d="m13 32h10v2h-10z"/>
 </g>
</svg>
