<?xml version="1.0" encoding="UTF-8" standalone="no"?>
<svg
   xmlns:dc="http://purl.org/dc/elements/1.1/"
   xmlns:cc="http://creativecommons.org/ns#"
   xmlns:rdf="http://www.w3.org/1999/02/22-rdf-syntax-ns#"
   xmlns:svg="http://www.w3.org/2000/svg"
   xmlns="http://www.w3.org/2000/svg"
   xmlns:xlink="http://www.w3.org/1999/xlink"
   xmlns:sodipodi="http://sodipodi.sourceforge.net/DTD/sodipodi-0.dtd"
   xmlns:inkscape="http://www.inkscape.org/namespaces/inkscape"
   width="48"
   viewBox="0 0 13.546667 13.546667"
   height="48"
   id="svg2"
   version="1.1"
   inkscape:version="0.48.4 r9939"
   sodipodi:docname="desktop-environment-xfce.svg">
  <metadata
     id="metadata24">
    <rdf:RDF>
      <cc:Work
         rdf:about="">
        <dc:format>image/svg+xml</dc:format>
        <dc:type
           rdf:resource="http://purl.org/dc/dcmitype/StillImage" />
        <dc:title />
      </cc:Work>
    </rdf:RDF>
  </metadata>
  <sodipodi:namedview
     pagecolor="#ffffff"
     bordercolor="#666666"
     borderopacity="1"
     objecttolerance="10"
     gridtolerance="10"
     guidetolerance="10"
     inkscape:pageopacity="0"
     inkscape:pageshadow="2"
     inkscape:window-width="1280"
     inkscape:window-height="998"
     id="namedview22"
     showgrid="false"
     inkscape:zoom="4.9166667"
     inkscape:cx="-9.5593219"
     inkscape:cy="20.338983"
     inkscape:window-x="0"
     inkscape:window-y="0"
     inkscape:window-maximized="1"
     inkscape:current-layer="svg2" />
  <defs
     id="defs4">
    <linearGradient
       id="linearGradient4460">
      <stop
         offset="0"
         style="stop-color:#1b3e70;stop-opacity:1;"
         id="stop7" />
      <stop
         offset="1"
         style="stop-color:#26569b;stop-opacity:1;"
         id="stop9" />
    </linearGradient>
    <linearGradient
       gradientTransform="matrix(1.10528,0,0,1.10528,-134.28288,-295.77052)"
       xlink:href="#linearGradient4460"
       id="linearGradient3115"
       y1="279.096"
       y2="268.33"
       gradientUnits="userSpaceOnUse"
       x2="0" />
    <linearGradient
       inkscape:collect="always"
       xlink:href="#linearGradient4460"
       id="linearGradient2997"
       gradientUnits="userSpaceOnUse"
       gradientTransform="matrix(1.10528,0,0,1.10528,-134.28288,-295.77052)"
       y1="279.096"
       x2="0"
       y2="268.33" />
  </defs>
  <rect
     id="rect14"
     style="opacity:0.5;fill:#ffffff;fill-rule:evenodd"
     height="12.982"
     rx="6.4910002"
     y="0.28200001"
     x="0.28200001"
     width="12.982" />
  <rect
     id="rect16"
     style="fill:url(#linearGradient2997);fill-rule:evenodd"
     height="11.853"
     rx="5.9260001"
     y="0.847"
     x="0.847"
     width="11.853" />
  <path
     inkscape:connector-curvature="0"
     d="M 8.4621529,5.999783 C 8.0469791,5.5173138 7.6728322,5.2056994 7.118984,6.0181848 6.7894202,6.501655 4.8116818,9.2712661 4.4487762,9.7124272 4.343359,9.8405746 4.281608,9.9296323 4.200669,9.9812519 4.2007803,9.8058975 5.5668093,7.5791278 5.9490938,6.9338145 6.4082896,6.158673 6.3937099,6.2039403 6.3387564,6.2041444 6.2609647,6.2043934 6.1027397,6.322558 5.8621484,6.586684 5.4228131,7.0689963 4.1216557,8.8640797 4.0319502,8.8363924 4.0631075,8.705994 5.0809581,7.0993205 5.5431075,6.434689 5.9414981,5.8617475 5.7892117,5.8180789 5.5608633,5.8740087 4.587932,6.1128678 3.4242999,6.6903239 3.3866668,6.6694893 3.4007214,6.6395784 7.3056256,3.8130489 7.8272715,3.7590116 7.8879965,3.7527116 8.0161242,3.6412355 8.2444483,3.5483752 8.4923112,3.447574 8.6591239,3.3655804 8.7003905,3.3915047 8.5195086,3.6525105 8.4242682,3.7050389 8.4226596,3.7892313 8.4199496,3.9270974 8.3723586,4.1501293 8.3201573,4.2213408 9.3292267,4.913296 9.7229195,7.272648 10.011193,9.1703353 10.079988,9.620757 10.143742,9.9590104 10.16,10.16 10.074828,9.9344159 9.2680176,6.9362522 8.4621529,5.9997755 z"
     id="path4173"
     style="fill:#ffffff;fill-opacity:1;display:inline;enable-background:new" />
</svg>
