<?xml version="1.0" encoding="UTF-8" standalone="no"?>
<svg
   xmlns:dc="http://purl.org/dc/elements/1.1/"
   xmlns:cc="http://creativecommons.org/ns#"
   xmlns:rdf="http://www.w3.org/1999/02/22-rdf-syntax-ns#"
   xmlns:svg="http://www.w3.org/2000/svg"
   xmlns="http://www.w3.org/2000/svg"
   xmlns:xlink="http://www.w3.org/1999/xlink"
   xmlns:sodipodi="http://sodipodi.sourceforge.net/DTD/sodipodi-0.dtd"
   xmlns:inkscape="http://www.inkscape.org/namespaces/inkscape"
   width="48"
   viewBox="0 0 13.546667 13.546667"
   height="48"
   id="svg2"
   version="1.1"
   inkscape:version="0.48.4 r9939"
   sodipodi:docname="distributor-logo-siduction.svg">
  <metadata
     id="metadata23">
    <rdf:RDF>
      <cc:Work
         rdf:about="">
        <dc:format>image/svg+xml</dc:format>
        <dc:type
           rdf:resource="http://purl.org/dc/dcmitype/StillImage" />
      </cc:Work>
    </rdf:RDF>
  </metadata>
  <sodipodi:namedview
     pagecolor="#ffffff"
     bordercolor="#666666"
     borderopacity="1"
     objecttolerance="10"
     gridtolerance="10"
     guidetolerance="10"
     inkscape:pageopacity="0"
     inkscape:pageshadow="2"
     inkscape:window-width="1280"
     inkscape:window-height="998"
     id="namedview21"
     showgrid="true"
     inkscape:zoom="9.8333333"
     inkscape:cx="11.046764"
     inkscape:cy="27.602028"
     inkscape:window-x="0"
     inkscape:window-y="0"
     inkscape:window-maximized="1"
     inkscape:current-layer="svg2">
    <inkscape:grid
       type="xygrid"
       id="grid3026" />
  </sodipodi:namedview>
  <defs
     id="defs4">
    <linearGradient
       id="0">
      <stop
         stop-color="#0091f3"
         id="stop7" />
      <stop
         offset="1"
         stop-color="#00d4ff"
         id="stop9" />
    </linearGradient>
    <linearGradient
       xlink:href="#0"
       id="1"
       gradientUnits="userSpaceOnUse"
       gradientTransform="matrix(1.10525,0,0,1.10525,-134.27874,-295.76214)"
       y1="279.1"
       x2="0"
       y2="268.33" />
    <linearGradient
       xlink:href="#0"
       id="2"
       x1="6.803"
       y1="12.76"
       x2="6.795"
       y2="0.766"
       gradientUnits="userSpaceOnUse"
       gradientTransform="translate(-0.44485877,0.33005651)" />
  </defs>
  <rect
     height="12.982"
     rx="6.491"
     y="0.283"
     x="0.282"
     width="12.982"
     opacity="0.5"
     fill="#ffffff"
     fill-rule="evenodd"
     id="rect13" />
  <rect
     height="11.853"
     rx="5.927"
     y="0.847"
     x="0.847"
     width="11.853"
     fill="url(#1)"
     fill-rule="evenodd"
     id="rect15"
     style="fill:#374d7e;fill-opacity:1" />
  <g
     style="fill:#fff8eb"
     id="g55"
     transform="matrix(0.01246069,-0.01173163,0.01218952,0.01202995,-6.2372527,0.27607276)"
     inkscape:transform-center-x="135.7569"
     inkscape:transform-center-y="90.305085">
    <path
       style="fill-rule:evenodd"
       inkscape:connector-curvature="0"
       id="path57"
       d="m 378.91023,855.96277 c -18.81665,0 -35.26716,10.1078 -44.24069,25.18201 -4.57944,7.69274 -7.21695,16.67291 -7.21695,26.27559 0,28.41914 23.03837,51.45754 51.45764,51.45754 28.41926,0 51.45763,-23.0384 51.45763,-51.45754 0,-9.60268 -2.63751,-18.58285 -7.21695,-26.27559 -8.97353,-15.07422 -25.42404,-25.18201 -44.24068,-25.18201 z" />
    <path
       style="fill-rule:evenodd"
       inkscape:connector-curvature="0"
       id="path59"
       d="m 151.12411,866.11949 c -15.6942,0 -29.41491,8.43051 -36.89937,21.0033 -3.81952,6.4162 -6.01935,13.9062 -6.01935,21.9154 0,23.70326 19.21536,42.91866 42.91872,42.91866 23.70336,0 42.91873,-19.2154 42.91873,-42.91866 0,-8.0092 -2.19984,-15.4992 -6.01936,-21.9154 -7.48446,-12.5728 -21.20517,-21.0033 -36.89937,-21.0033 z" />
    <path
       style="fill-rule:evenodd"
       inkscape:connector-curvature="0"
       id="path61"
       d="m 384.00972,744.02448 c -16.87754,0 -31.6328,9.06623 -39.68159,22.58702 -4.10752,6.90001 -6.47323,14.95476 -6.47323,23.56781 0,25.49063 20.66422,46.15486 46.15482,46.15486 25.49061,0 46.15482,-20.66424 46.15482,-46.15486 0,-8.61304 -2.3657,-16.66779 -6.47322,-23.56781 -8.04879,-13.52079 -22.80405,-22.58702 -39.6816,-22.58702 z" />
    <path
       style="fill-rule:evenodd"
       inkscape:connector-curvature="0"
       id="path63"
       d="m 143.77569,754.39524 c -14.30645,0 -26.81392,7.68509 -33.63657,19.14615 -3.48178,5.84887 -5.48709,12.67657 -5.48709,19.97752 0,21.60739 17.51625,39.12367 39.12366,39.12367 21.6074,0 39.12366,-17.51628 39.12366,-39.12367 0,-7.30094 -2.00532,-14.12865 -5.4871,-19.97752 -6.82265,-11.46106 -19.33012,-19.14615 -33.63656,-19.14615 z" />
    <path
       style="fill-rule:evenodd"
       inkscape:connector-curvature="0"
       id="path65"
       d="m 371.48114,637.859 c -15.6942,0 -29.41491,8.43056 -36.89937,21.00337 -3.81952,6.41621 -6.01936,13.90621 -6.01936,21.91537 0,23.70335 19.21537,42.91873 42.91873,42.91873 23.70336,0 42.91873,-19.21538 42.91873,-42.91873 0,-8.00915 -2.19984,-15.49915 -6.01936,-21.91537 C 400.89605,646.28956 387.17534,637.859 371.48114,637.859 z" />
    <path
       style="fill-rule:evenodd"
       inkscape:connector-curvature="0"
       id="path67"
       d="m 153.68671,648.62117 c -13.78604,0 -25.83854,7.40554 -32.41301,18.4497 -3.35513,5.63611 -5.28751,12.21544 -5.28751,19.25082 0,20.82141 16.8791,37.70052 37.70052,37.70052 20.82142,0 37.70051,-16.87911 37.70051,-37.70052 0,-7.03537 -1.93237,-13.61471 -5.2875,-19.25082 -6.57447,-11.04416 -18.62697,-18.4497 -32.41301,-18.4497 z" />
    <path
       style="fill-rule:evenodd"
       inkscape:connector-curvature="0"
       id="path69"
       d="m 259.89726,868.20881 c -16.70408,0 -31.30767,8.97299 -39.27375,22.3548 -4.06529,6.82907 -6.40669,14.80104 -6.40669,23.32561 0,25.2285 20.45184,45.68036 45.68044,45.68036 25.22862,0 45.68045,-20.45186 45.68045,-45.68036 0,-8.52457 -2.3414,-16.49654 -6.4067,-23.32561 -7.96606,-13.38182 -22.56967,-22.3548 -39.27375,-22.3548 z" />
    <path
       style="fill-rule:evenodd"
       inkscape:connector-curvature="0"
       id="path71"
       d="m 262.59418,750.14158 c -16.37042,0 -30.68231,8.79381 -38.48926,21.90833 -3.98409,6.69268 -6.27871,14.5054 -6.27871,22.85965 0,24.72469 20.0433,44.76802 44.76797,44.76802 24.72467,0 44.76797,-20.04334 44.76797,-44.76802 0,-8.35424 -2.29462,-16.16696 -6.27871,-22.85965 -7.80695,-13.11452 -22.11884,-21.90833 -38.48926,-21.90833 z" />
    <path
       style="fill-rule:evenodd"
       inkscape:connector-curvature="0"
       id="path73"
       d="m 261.3754,635.58634 c -14.51085,0 -27.19702,7.79489 -34.11715,19.41971 -3.53152,5.93242 -5.56549,12.85767 -5.56549,20.26294 0,21.9161 17.76652,39.68264 39.68264,39.68264 21.91611,0 39.68264,-17.76654 39.68264,-39.68264 0,-7.40526 -2.03398,-14.33051 -5.5655,-20.26294 -6.92013,-11.62482 -19.60629,-19.41971 -34.11714,-19.41971 z" />
  </g>
</svg>
