<?xml version="1.0" encoding="UTF-8" standalone="no"?>
<svg
   xmlns:dc="http://purl.org/dc/elements/1.1/"
   xmlns:cc="http://creativecommons.org/ns#"
   xmlns:rdf="http://www.w3.org/1999/02/22-rdf-syntax-ns#"
   xmlns:svg="http://www.w3.org/2000/svg"
   xmlns="http://www.w3.org/2000/svg"
   xmlns:xlink="http://www.w3.org/1999/xlink"
   xmlns:sodipodi="http://sodipodi.sourceforge.net/DTD/sodipodi-0.dtd"
   xmlns:inkscape="http://www.inkscape.org/namespaces/inkscape"
   viewBox="0 0 48 48"
   id="svg2"
   version="1.1"
   inkscape:version="0.48.4 r9939"
   width="100%"
   height="100%"
   sodipodi:docname="distributor-logo-lfs.svg">
  <metadata
     id="metadata132">
    <rdf:RDF>
      <cc:Work
         rdf:about="">
        <dc:format>image/svg+xml</dc:format>
        <dc:type
           rdf:resource="http://purl.org/dc/dcmitype/StillImage" />
      </cc:Work>
    </rdf:RDF>
  </metadata>
  <sodipodi:namedview
     pagecolor="#ffffff"
     bordercolor="#666666"
     borderopacity="1"
     objecttolerance="10"
     gridtolerance="10"
     guidetolerance="10"
     inkscape:pageopacity="0"
     inkscape:pageshadow="2"
     inkscape:window-width="640"
     inkscape:window-height="480"
     id="namedview130"
     showgrid="false"
     inkscape:zoom="4.9166667"
     inkscape:cx="24"
     inkscape:cy="22.372881"
     inkscape:window-x="290"
     inkscape:window-y="267"
     inkscape:window-maximized="0"
     inkscape:current-layer="svg2" />
  <defs
     id="defs4">
    <linearGradient
       id="1"
       gradientUnits="userSpaceOnUse"
       y1="15"
       x2="0"
       y2="11"
       gradientTransform="matrix(15.333333,0,0,11.5,414.99999,-125.5)">
      <stop
         id="stop7" />
      <stop
         offset="1"
         stop-opacity="0"
         id="stop9" />
    </linearGradient>
    <clipPath
       id="clipPath-171692062">
      <g
         transform="translate(0,-1004.3622)"
         id="g12">
        <path
           d="m -24 13 c 0 1.105 -0.672 2 -1.5 2 -0.828 0 -1.5 -0.895 -1.5 -2 0 -1.105 0.672 -2 1.5 -2 0.828 0 1.5 0.895 1.5 2 z"
           transform="matrix(15.333333,0,0,11.5,414.99999,878.8622)"
           fill="#1890d0"
           id="path14" />
      </g>
    </clipPath>
    <clipPath
       id="clipPath-179818192">
      <g
         transform="translate(0,-1004.3622)"
         id="g17">
        <path
           d="m -24 13 c 0 1.105 -0.672 2 -1.5 2 -0.828 0 -1.5 -0.895 -1.5 -2 0 -1.105 0.672 -2 1.5 -2 0.828 0 1.5 0.895 1.5 2 z"
           transform="matrix(15.333333,0,0,11.5,414.99999,878.8622)"
           fill="#1890d0"
           id="path19" />
      </g>
    </clipPath>
    <linearGradient
       id="1-5"
       gradientUnits="userSpaceOnUse"
       y1="15"
       x2="0"
       y2="11"
       gradientTransform="matrix(15.333333,0,0,11.5,414.99999,-125.5)">
      <stop
         id="stop7-5" />
      <stop
         offset="1"
         stop-opacity="0"
         id="stop9-1" />
    </linearGradient>
  </defs>
  <g
     transform="translate(9.9999995e-7,0.0022)"
     id="g21">
    <g
       transform="translate(0,-1004.3622)"
       id="g23">
      <path
         style="opacity:0.05"
         inkscape:connector-curvature="0"
         d="m 25,1006.36 c -12.703,0 -23,10.298 -23,23 0,6.367 2.601,12.12 6.781,16.281 4.085,3.712 9.514,5.969 15.469,5.969 12.703,0 23,-10.297 23,-23 0,-5.954 -2.256,-11.384 -5.969,-15.469 -4.165,-4.181 -9.914,-6.781 -16.281,-6.781 z m 16.281,6.781 c 3.854,4.113 6.219,9.637 6.219,15.719 0,12.703 -10.297,23 -23,23 -6.081,0 -11.606,-2.364 -15.719,-6.219 4.16,4.144 9.883,6.719 16.219,6.719 12.703,0 23,-10.297 23,-23 0,-6.335 -2.575,-12.06 -6.719,-16.219 z"
         id="path25" />
      <path
         style="opacity:0.1"
         inkscape:connector-curvature="0"
         d="m 41.28,1013.14 c 3.712,4.085 5.969,9.514 5.969,15.469 0,12.703 -10.297,23 -23,23 -5.954,0 -11.384,-2.256 -15.469,-5.969 4.113,3.854 9.637,6.219 15.719,6.219 12.703,0 23,-10.297 23,-23 0,-6.081 -2.364,-11.606 -6.219,-15.719 z"
         id="path27" />
      <path
         style="opacity:0.2"
         inkscape:connector-curvature="0"
         transform="matrix(15.333333,0,0,11.5,415.24999,879.11222)"
         d="m -24,13 a 1.5,2 0 1 1 -3,0 1.5,2 0 1 1 3,0 z"
         id="path29" />
    </g>
  </g>
  <g
     transform="translate(9.9999995e-7,0.0022)"
     id="g31">
    <g
       transform="translate(0,-1004.3622)"
       id="g33">
      <path
         style="fill:#eeeeee"
         inkscape:connector-curvature="0"
         d="m -24,13 c 0,1.105 -0.672,2 -1.5,2 -0.828,0 -1.5,-0.895 -1.5,-2 0,-1.105 0.672,-2 1.5,-2 0.828,0 1.5,0.895 1.5,2 z"
         transform="matrix(15.333333,0,0,11.5,414.99999,878.8622)"
         id="path35" />
    </g>
  </g>
  <g
     transform="translate(9.9999995e-7,0.0022)"
     id="g37">
    <path
       style="opacity:0.15;fill:url(#1-5)"
       inkscape:connector-curvature="0"
       d="M 47,24 C 47,36.703 36.703,47 24,47 11.297,47 1,36.703 1,24 1,11.297 11.297,1 24,1 36.703,1 47,11.297 47,24 z"
       id="path39" />
  </g>
  <g
     transform="translate(9.9999995e-7,0.0022)"
     id="g61">
    <path
       style="opacity:0.1"
       inkscape:connector-curvature="0"
       d="m 40.03,7.531 c 3.712,4.084 5.969,9.514 5.969,15.469 0,12.703 -10.297,23 -23,23 C 17.045,46 11.615,43.744 7.53,40.031 11.708,44.322 17.54,47 23.999,47 c 12.703,0 23,-10.298 23,-23 0,-6.462 -2.677,-12.291 -6.969,-16.469 z"
       id="path63-8" />
  </g>
  <g
     id="g41">
    <g
       clip-path="url(#clipPath-171692062)"
       id="g43">
      <g
         transform="translate(0,1)"
         id="g45">
        <g
           opacity="0.1"
           id="g47">
          <!-- color: #294172 -->
          <g
             id="g49">
            <use
               xlink:href="#SVGCleanerId_0"
               id="use51" />
            <path
               d="m 22.695 17.859 c 0.285 -0.105 0.238 -0.121 0.43 -0.512 c 0.152 -0.301 0.285 -0.43 0.281 -0.887 c 0 -0.445 -0.148 -0.598 -0.371 -0.891 c -0.215 -0.277 -0.555 -0.293 -0.773 -0.258 c -0.125 0.02 -0.285 0.168 -0.395 0.387 c -0.074 0.148 -0.129 0.336 -0.137 0.531 c -0.012 0.531 0.031 0.73 0.164 1.09 c 0.152 0.422 0.523 0.641 0.801 0.539 m 0 0"
               fill="#000"
               stroke="none"
               fill-rule="nonzero"
               fill-opacity="1"
               id="path53" />
            <use
               xlink:href="#SVGCleanerId_1"
               id="use55" />
            <path
               d="m 25.652 17.895 c 0.719 -0.07 0.969 -0.332 1.098 -0.785 c 0.113 -0.402 0.117 -0.848 -0.199 -1.375 c -0.301 -0.5 -0.473 -0.578 -0.906 -0.613 c -0.668 -0.051 -0.984 0.387 -1.133 0.699 c -0.156 0.34 -0.125 0.293 -0.113 0.723 c 0.012 0.453 0.281 0.578 0.445 0.863 c 0.168 0.273 0.727 0.496 0.805 0.492 m 0.004 -0.004"
               fill="#000"
               stroke="none"
               fill-rule="nonzero"
               fill-opacity="1"
               id="path57" />
            <use
               xlink:href="#SVGCleanerId_2"
               id="use59" />
            <path
               d="m 25.672 16.223 c 0.039 -0.035 0.121 0 0.207 0.09 c 0.098 0.102 0.102 0.18 0.023 0.234 c -0.07 0.059 -0.105 -0.086 -0.152 -0.137 c -0.086 -0.082 -0.156 -0.121 -0.082 -0.188 m 0.004 0"
               fill="#000"
               stroke="none"
               fill-rule="nonzero"
               fill-opacity="1"
               id="path61" />
            <path
               d="m 22.465 16.34 c 0.043 -0.063 0.207 -0.035 0.27 0.09 c 0.059 0.125 0.051 0.398 0.008 0.41 c -0.109 0.035 -0.074 -0.117 -0.172 -0.25 c -0.094 -0.129 -0.148 -0.188 -0.105 -0.25 m 0 0"
               fill="#000"
               stroke="none"
               fill-rule="nonzero"
               fill-opacity="1"
               id="path63" />
            <path
               d="m 23.875 16.445 c 0.086 -0.023 0.168 -0.02 0.313 0.055 c 0.129 0.07 0.07 0.152 -0.07 0.121 c -0.133 -0.027 -0.105 -0.023 -0.207 -0.043 c -0.172 -0.027 -0.199 -0.094 -0.035 -0.133 m 0 0"
               fill="#000"
               stroke="none"
               fill-rule="nonzero"
               fill-opacity="1"
               id="path65" />
            <path
               d="m 23.461 19.977 c -0.621 0.023 -1.602 -1.609 -1.629 -0.93 c -0.016 0.574 0.016 0.563 0.016 1.117 c 0 0.371 -0.18 0.402 -0.57 0.961 c -0.203 0.293 -0.359 0.613 -0.48 0.938 c -0.078 0.191 -0.148 0.391 -0.207 0.59 c -0.023 0.098 -0.066 0.203 -0.094 0.301 c -0.191 0.676 -0.891 1.512 -1.051 2.188 c -0.164 0.672 -0.355 1.102 -0.328 2 c 0.023 0.902 0.031 0.641 0.32 0.867 c 0.289 0.223 0.582 0.434 1.035 0.809 c 0.48 0.391 1.469 1.07 1.602 1.285 c 0.141 0.215 0.141 0.695 0.055 0.852 c -0.086 0.152 -0.832 0.238 -0.832 0.238 c 0 0 0.652 0.852 0.785 0.973 c 0.125 0.117 0.66 0.676 2.832 0.293 c 1.227 -0.215 2.172 -0.863 2.859 -1.48 c 0.887 -0.813 0.438 -1.047 0.551 -1.453 c 0.168 -0.59 0.711 -0.809 0.832 -1.473 c 0.016 -0.094 0.047 -0.164 0.141 -0.305 c 0.137 -0.195 0.105 -0.586 0.105 -0.945 c 0 -0.93 -0.113 -1.879 -0.344 -2.578 c -0.211 -0.656 -0.543 -1.113 -0.828 -1.703 c -0.57 -1.176 -0.543 -1.707 -1.055 -2.457 c -0.578 -0.867 -0.293 -1.445 -1.066 -1.41 c -0.961 0.051 -1.738 1.289 -2.648 1.324 m 0 0"
               fill="#000"
               stroke="none"
               fill-rule="nonzero"
               fill-opacity="1"
               id="path67" />
            <path
               d="m 23.789 16.906 c 0.348 -0.039 0.828 0.039 1.047 0.191 c 0.203 0.141 0.348 0.219 0.535 0.273 c 0.621 0.191 1.445 0.285 1.406 0.813 c -0.043 0.633 -0.238 0.914 -0.797 1.082 c -0.449 0.129 -1.25 0.859 -1.867 0.859 c -0.277 0 -0.664 0.016 -0.887 -0.063 c -0.215 -0.07 -0.516 -0.41 -0.867 -0.684 c -0.355 -0.27 -0.68 -0.559 -0.691 -0.934 c -0.016 -0.395 0.262 -0.527 0.652 -0.848 c 0.203 -0.168 0.578 -0.453 0.832 -0.574 c 0.238 -0.113 0.391 -0.09 0.637 -0.117 m 0 0"
               fill="#000"
               stroke="none"
               fill-rule="nonzero"
               fill-opacity="1"
               id="path69" />
            <path
               d="m 22.988 17.371 c -0.02 0.047 0.129 0.145 0.207 0.078 c 0.082 -0.066 0.176 -0.125 0.207 -0.145 c 0.145 -0.09 0.094 -0.156 -0.152 -0.117 c -0.238 0.039 -0.238 0.133 -0.266 0.184 m 0.004 0"
               fill="#000"
               stroke="none"
               fill-rule="nonzero"
               fill-opacity="1"
               id="path71" />
            <path
               d="m 32.969 28.332 c 0.297 0.402 -0.008 0.93 0.207 1.25 c 0.355 0.527 1.063 1.063 1.336 1.211 c 0.195 0.113 0.473 0.219 0.461 0.543 c -0.016 0.375 -0.211 0.473 -0.32 0.574 c -0.219 0.207 -1.324 0.723 -2.059 1.191 c -0.922 0.594 -1.242 0.859 -1.543 1.141 c -0.469 0.441 -0.91 0.59 -1.621 0.59 c -0.707 0 -1.031 -0.141 -1.246 -0.324 c -0.219 -0.18 -0.465 -0.637 -0.441 -1.316 c 0.02 -0.68 0.25 -1.293 0.359 -2.348 c 0.047 -0.453 0.043 -1.012 0.043 -1.508 c 0 -0.629 0.012 -1.16 0.152 -1.242 c 0.258 -0.152 0.316 -0.16 0.621 -0.16 c 0.305 0 0.441 0.016 0.543 0.113 c 0.094 0.086 0.055 0.293 0.023 0.586 c -0.027 0.293 0.121 0.387 0.266 0.508 c 0.148 0.117 0.281 0.266 0.746 0.301 c 0.469 0.031 0.641 -0.039 0.859 -0.172 c 0.219 -0.129 0.527 -0.359 0.645 -0.496 c 0.109 -0.129 0.383 -0.574 0.434 -0.574 c 0.043 0 0.359 -0.105 0.535 0.137 m 0 -0.004"
               fill="#000"
               stroke="none"
               fill-rule="nonzero"
               fill-opacity="1"
               id="path73" />
            <path
               d="m 16.34 29.02 c -0.426 0.289 -1.516 0.266 -1.793 0.605 c -0.27 0.34 0.012 0.832 0.004 1.746 c 0 0.391 -0.07 0.684 -0.117 0.922 c -0.07 0.301 -0.113 0.512 0.023 0.727 c 0.246 0.379 0.633 0.477 2.871 0.914 c 1.195 0.234 2.328 0.836 3.082 0.898 c 0.758 0.051 0.922 -0.188 1.383 -0.57 c 0.457 -0.387 0.605 -0.27 0.59 -1.113 c -0.016 -0.844 -0.59 -1.094 -1.242 -2.066 c -0.652 -0.973 -0.758 -1.152 -1.191 -1.797 c -0.434 -0.637 -1.293 -1.793 -1.781 -1.805 c -0.391 -0.008 -0.609 0.188 -0.855 0.422 c -0.246 0.234 -0.543 0.828 -0.973 1.117 m 0 0"
               fill="#000"
               stroke="none"
               fill-rule="nonzero"
               fill-opacity="1"
               id="path75" />
            <path
               d="m 29.03 22.656 c -0.082 -0.004 -0.117 0.023 -0.094 0.094 c 0 0 0.656 0.359 1.25 1.031 c 0.016 0.035 0.664 0.906 0.531 2.063 c -0.02 0.02 -0.066 0.512 -0.125 0.719 c -0.156 0.492 -0.355 0.777 -0.191 0.813 c 0.148 0.035 0.543 -0.953 0.531 -1.344 c 0.141 -0.367 0.137 -1.301 -0.219 -1.906 c -0.121 -0.219 -0.238 -0.484 -0.313 -0.5 c -0.508 -0.652 -1.133 -0.965 -1.375 -0.969 m 0.004 0"
               fill="#000"
               stroke="none"
               fill-rule="nonzero"
               fill-opacity="1"
               id="path77" />
            <path
               d="m 29.465 27.973 c 0.102 0.094 0.188 -0.141 0.289 -0.219 c 0.098 -0.074 0.262 -0.238 0.582 -0.238 c 0.324 0 0.305 -0.012 0.289 -0.125 c -0.012 -0.113 -0.105 -0.105 -0.391 -0.066 c -0.285 0.039 -0.477 0.176 -0.59 0.305 c -0.109 0.117 -0.234 0.289 -0.18 0.344 m 0 0"
               fill="#000"
               stroke="none"
               fill-rule="nonzero"
               fill-opacity="1"
               id="path79" />
            <path
               d="m 30.758 27.383 c 0 0.141 0.305 0.191 0.605 0.234 c 0.289 0.039 0.523 0.094 0.539 0.379 c 0.012 0.281 -0.063 0.484 0.07 0.461 c 0.285 -0.051 0.387 -0.34 0.387 -0.477 c 0 -0.133 -0.211 -0.375 -0.586 -0.508 c -0.277 -0.102 -0.48 -0.145 -0.719 -0.152 c -0.328 -0.016 -0.297 0.063 -0.297 0.063 m 0 0"
               fill="#000"
               stroke="none"
               fill-rule="nonzero"
               fill-opacity="1"
               id="path81" />
            <path
               d="m 21.988 18.797 c 0.133 0.086 0.137 0.098 0.328 0.219 c 0.309 0.234 0.852 0.289 1.117 0.297 c 0.613 0.09 1.707 -0.449 2.137 -0.691 c 0.219 -0.152 0.621 -0.473 0.773 -0.477 c 0.094 0.094 -0.043 0.109 -0.238 0.234 c -0.258 0.176 -0.477 0.324 -0.871 0.531 c -0.418 0.207 -1.063 0.547 -1.887 0.5 c -0.434 -0.059 -0.438 -0.063 -0.703 -0.191 c -0.16 -0.105 -0.523 -0.285 -0.656 -0.422 m 0 0"
               fill="#000"
               stroke="none"
               fill-rule="nonzero"
               fill-opacity="1"
               id="path83" />
            <path
               d="m 24.691 17.395 c 0.02 0.051 -0.129 0.145 -0.207 0.082 c -0.082 -0.066 -0.176 -0.129 -0.211 -0.145 c -0.145 -0.094 -0.09 -0.156 0.152 -0.117 c 0.242 0.039 0.242 0.129 0.266 0.18 m 0 0"
               fill="#000"
               stroke="none"
               fill-rule="nonzero"
               fill-opacity="1"
               id="path85" />
          </g>
        </g>
      </g>
    </g>
  </g>
  <g
     id="g87">
    <g
       clip-path="url(#clipPath-179818192)"
       id="g89">
      <!-- color: #294172 -->
      <g
         id="g91">
        <path
           d="m 33.04 27.34 c -0.316 1.219 -1.91 3.762 -2.762 4.883 c -0.848 1.125 -0.746 2.137 -2.313 1.742 c -1.563 -0.391 -2 -0.32 -3.621 -0.234 c -1.602 0.09 -1.258 -0.043 -2.262 0.383 c -1 0.422 -4.363 -5.16 -4.637 -6.203 c -0.266 -1.039 -0.395 -0.914 0.305 -2.035 c 0.691 -1.125 0.797 -2.238 1.715 -3.598 c 0.918 -1.367 1.984 -2.063 1.906 -3.105 c -0.305 -3.871 -0.539 -5.809 1.293 -6.703 c 1.742 -0.852 3.203 -0.344 3.777 -0.055 c 0.25 0.125 0.758 0.371 1.133 0.797 c 0.375 0.418 0.715 1.047 0.906 1.844 c 0.391 1.598 -0.164 1.07 0.281 2.902 c 0.438 1.828 1.328 2.727 2.414 4.172 c 1.09 1.445 2.223 3.832 1.863 5.211 m 0 0"
           fill="#000"
           stroke="none"
           fill-rule="nonzero"
           fill-opacity="1"
           id="SVGCleanerId_0" />
        <path
           d="m 22.695 17.859 c 0.285 -0.105 0.238 -0.121 0.43 -0.512 c 0.152 -0.301 0.285 -0.43 0.281 -0.887 c 0 -0.445 -0.148 -0.598 -0.371 -0.891 c -0.215 -0.277 -0.555 -0.293 -0.773 -0.258 c -0.125 0.02 -0.285 0.168 -0.395 0.387 c -0.074 0.148 -0.129 0.336 -0.137 0.531 c -0.012 0.531 0.031 0.73 0.164 1.09 c 0.152 0.422 0.523 0.641 0.801 0.539 m 0 0"
           fill="#f9f9f9"
           stroke="none"
           fill-rule="nonzero"
           fill-opacity="1"
           id="path94" />
        <path
           d="m 22.43 16.03 c 0.141 0 0.32 0.086 0.41 0.207 c 0.094 0.121 0.156 0.293 0.156 0.488 c 0 0.285 -0.031 0.605 -0.215 0.699 c -0.059 0.031 -0.184 0.059 -0.254 0.059 c -0.16 0 -0.176 -0.102 -0.328 -0.25 c -0.055 -0.051 -0.211 -0.313 -0.211 -0.527 c 0 -0.133 -0.031 -0.324 0.094 -0.496 c 0.086 -0.125 0.195 -0.184 0.348 -0.184 m 0 0.004"
           fill="#000"
           stroke="none"
           fill-rule="nonzero"
           fill-opacity="1"
           id="SVGCleanerId_1" />
        <path
           d="m 25.652 17.895 c 0.719 -0.07 0.969 -0.332 1.098 -0.785 c 0.113 -0.402 0.117 -0.848 -0.199 -1.375 c -0.301 -0.5 -0.473 -0.578 -0.906 -0.613 c -0.668 -0.051 -0.984 0.387 -1.133 0.699 c -0.156 0.34 -0.125 0.293 -0.113 0.723 c 0.012 0.453 0.281 0.578 0.445 0.863 c 0.168 0.273 0.727 0.496 0.805 0.492 m 0.004 -0.004"
           fill="#f9f9f9"
           stroke="none"
           fill-rule="nonzero"
           fill-opacity="1"
           id="path97" />
        <path
           d="m 25.594 16.01 c 0.359 0 0.566 0.301 0.637 0.684 c 0.027 0.176 -0.012 0.375 -0.125 0.516 c -0.129 0.164 -0.359 0.258 -0.543 0.258 c -0.18 0 -0.375 0.027 -0.484 -0.105 c -0.105 -0.141 -0.125 -0.445 -0.125 -0.668 c 0 -0.246 0.078 -0.422 0.207 -0.559 c 0.102 -0.102 0.281 -0.125 0.434 -0.125 m 0 0"
           fill="#000"
           stroke="none"
           fill-rule="nonzero"
           fill-opacity="1"
           id="SVGCleanerId_2" />
        <path
           d="m 25.672 16.223 c 0.039 -0.035 0.121 0 0.207 0.09 c 0.098 0.102 0.102 0.18 0.023 0.234 c -0.07 0.059 -0.105 -0.086 -0.152 -0.137 c -0.086 -0.082 -0.156 -0.121 -0.082 -0.188 m 0.004 0"
           fill="#676767"
           stroke="none"
           fill-rule="nonzero"
           fill-opacity="1"
           id="path100" />
        <path
           d="m 22.465 16.34 c 0.043 -0.063 0.207 -0.035 0.27 0.09 c 0.059 0.125 0.051 0.398 0.008 0.41 c -0.109 0.035 -0.074 -0.117 -0.172 -0.25 c -0.094 -0.129 -0.148 -0.188 -0.105 -0.25 m 0 0"
           fill="#676767"
           stroke="none"
           fill-rule="nonzero"
           fill-opacity="1"
           id="path102" />
        <path
           d="m 23.875 16.445 c 0.086 -0.023 0.168 -0.02 0.313 0.055 c 0.129 0.07 0.07 0.152 -0.07 0.121 c -0.133 -0.027 -0.105 -0.023 -0.207 -0.043 c -0.172 -0.027 -0.199 -0.094 -0.035 -0.133 m 0 0"
           fill="#676767"
           stroke="none"
           fill-rule="nonzero"
           fill-opacity="1"
           id="path104" />
        <path
           d="m 23.461 19.977 c -0.621 0.023 -1.602 -1.609 -1.629 -0.93 c -0.016 0.574 0.016 0.563 0.016 1.117 c 0 0.371 -0.18 0.402 -0.57 0.961 c -0.203 0.293 -0.359 0.613 -0.48 0.938 c -0.078 0.191 -0.148 0.391 -0.207 0.59 c -0.023 0.098 -0.066 0.203 -0.094 0.301 c -0.191 0.676 -0.891 1.512 -1.051 2.188 c -0.164 0.672 -0.355 1.102 -0.328 2 c 0.023 0.902 0.031 0.641 0.32 0.867 c 0.289 0.223 0.582 0.434 1.035 0.809 c 0.48 0.391 1.469 1.07 1.602 1.285 c 0.141 0.215 0.141 0.695 0.055 0.852 c -0.086 0.152 -0.832 0.238 -0.832 0.238 c 0 0 0.652 0.852 0.785 0.973 c 0.125 0.117 0.66 0.676 2.832 0.293 c 1.227 -0.215 2.172 -0.863 2.859 -1.48 c 0.887 -0.813 0.438 -1.047 0.551 -1.453 c 0.168 -0.59 0.711 -0.809 0.832 -1.473 c 0.016 -0.094 0.047 -0.164 0.141 -0.305 c 0.137 -0.195 0.105 -0.586 0.105 -0.945 c 0 -0.93 -0.113 -1.879 -0.344 -2.578 c -0.211 -0.656 -0.543 -1.113 -0.828 -1.703 c -0.57 -1.176 -0.543 -1.707 -1.055 -2.457 c -0.578 -0.867 -0.293 -1.445 -1.066 -1.41 c -0.961 0.051 -1.738 1.289 -2.648 1.324 m 0 0"
           fill="#f9f9f9"
           stroke="none"
           fill-rule="nonzero"
           fill-opacity="1"
           id="path106" />
        <path
           d="m 23.789 16.906 c 0.348 -0.039 0.828 0.039 1.047 0.191 c 0.203 0.141 0.348 0.219 0.535 0.273 c 0.621 0.191 1.445 0.285 1.406 0.813 c -0.043 0.633 -0.238 0.914 -0.797 1.082 c -0.449 0.129 -1.25 0.859 -1.867 0.859 c -0.277 0 -0.664 0.016 -0.887 -0.063 c -0.215 -0.07 -0.516 -0.41 -0.867 -0.684 c -0.355 -0.27 -0.68 -0.559 -0.691 -0.934 c -0.016 -0.395 0.262 -0.527 0.652 -0.848 c 0.203 -0.168 0.578 -0.453 0.832 -0.574 c 0.238 -0.113 0.391 -0.09 0.637 -0.117 m 0 0"
           fill="#ffd033"
           stroke="none"
           fill-rule="nonzero"
           fill-opacity="1"
           id="path108" />
        <path
           d="m 22.988 17.371 c -0.02 0.047 0.129 0.145 0.207 0.078 c 0.082 -0.066 0.176 -0.125 0.207 -0.145 c 0.145 -0.09 0.094 -0.156 -0.152 -0.117 c -0.238 0.039 -0.238 0.133 -0.266 0.184 m 0.004 0"
           fill="#995900"
           stroke="none"
           fill-rule="nonzero"
           fill-opacity="1"
           id="path110" />
        <path
           d="m 32.969 28.332 c 0.297 0.402 -0.008 0.93 0.207 1.25 c 0.355 0.527 1.063 1.063 1.336 1.211 c 0.195 0.113 0.473 0.219 0.461 0.543 c -0.016 0.375 -0.211 0.473 -0.32 0.574 c -0.219 0.207 -1.324 0.723 -2.059 1.191 c -0.922 0.594 -1.242 0.859 -1.543 1.141 c -0.469 0.441 -0.91 0.59 -1.621 0.59 c -0.707 0 -1.031 -0.141 -1.246 -0.324 c -0.219 -0.18 -0.465 -0.637 -0.441 -1.316 c 0.02 -0.68 0.25 -1.293 0.359 -2.348 c 0.047 -0.453 0.043 -1.012 0.043 -1.508 c 0 -0.629 0.012 -1.16 0.152 -1.242 c 0.258 -0.152 0.316 -0.16 0.621 -0.16 c 0.305 0 0.441 0.016 0.543 0.113 c 0.094 0.086 0.055 0.293 0.023 0.586 c -0.027 0.293 0.121 0.387 0.266 0.508 c 0.148 0.117 0.281 0.266 0.746 0.301 c 0.469 0.031 0.641 -0.039 0.859 -0.172 c 0.219 -0.129 0.527 -0.359 0.645 -0.496 c 0.109 -0.129 0.383 -0.574 0.434 -0.574 c 0.043 0 0.359 -0.105 0.535 0.137 m 0 -0.004"
           fill="#ffd033"
           stroke="none"
           fill-rule="nonzero"
           fill-opacity="1"
           id="path112" />
        <path
           d="m 16.34 29.02 c -0.426 0.289 -1.516 0.266 -1.793 0.605 c -0.27 0.34 0.012 0.832 0.004 1.746 c 0 0.391 -0.07 0.684 -0.117 0.922 c -0.07 0.301 -0.113 0.512 0.023 0.727 c 0.246 0.379 0.633 0.477 2.871 0.914 c 1.195 0.234 2.328 0.836 3.082 0.898 c 0.758 0.051 0.922 -0.188 1.383 -0.57 c 0.457 -0.387 0.605 -0.27 0.59 -1.113 c -0.016 -0.844 -0.59 -1.094 -1.242 -2.066 c -0.652 -0.973 -0.758 -1.152 -1.191 -1.797 c -0.434 -0.637 -1.293 -1.793 -1.781 -1.805 c -0.391 -0.008 -0.609 0.188 -0.855 0.422 c -0.246 0.234 -0.543 0.828 -0.973 1.117 m 0 0"
           fill="#ffd033"
           stroke="none"
           fill-rule="nonzero"
           fill-opacity="1"
           id="path114" />
        <path
           d="m 29.03 22.656 c -0.082 -0.004 -0.117 0.023 -0.094 0.094 c 0 0 0.656 0.359 1.25 1.031 c 0.016 0.035 0.664 0.906 0.531 2.063 c -0.02 0.02 -0.066 0.512 -0.125 0.719 c -0.156 0.492 -0.355 0.777 -0.191 0.813 c 0.148 0.035 0.543 -0.953 0.531 -1.344 c 0.141 -0.367 0.137 -1.301 -0.219 -1.906 c -0.121 -0.219 -0.238 -0.484 -0.313 -0.5 c -0.508 -0.652 -1.133 -0.965 -1.375 -0.969 m 0.004 0"
           fill="#676767"
           stroke="none"
           fill-rule="nonzero"
           fill-opacity="1"
           id="path116" />
        <path
           d="m 29.465 27.973 c 0.102 0.094 0.188 -0.141 0.289 -0.219 c 0.098 -0.074 0.262 -0.238 0.582 -0.238 c 0.324 0 0.305 -0.012 0.289 -0.125 c -0.012 -0.113 -0.105 -0.105 -0.391 -0.066 c -0.285 0.039 -0.477 0.176 -0.59 0.305 c -0.109 0.117 -0.234 0.289 -0.18 0.344 m 0 0"
           fill="#676767"
           stroke="none"
           fill-rule="nonzero"
           fill-opacity="1"
           id="path118" />
        <path
           d="m 30.758 27.383 c 0 0.141 0.305 0.191 0.605 0.234 c 0.289 0.039 0.523 0.094 0.539 0.379 c 0.012 0.281 -0.063 0.484 0.07 0.461 c 0.285 -0.051 0.387 -0.34 0.387 -0.477 c 0 -0.133 -0.211 -0.375 -0.586 -0.508 c -0.277 -0.102 -0.48 -0.145 -0.719 -0.152 c -0.328 -0.016 -0.297 0.063 -0.297 0.063 m 0 0"
           fill="#676767"
           stroke="none"
           fill-rule="nonzero"
           fill-opacity="1"
           id="path120" />
        <path
           d="m 21.988 18.797 c 0.133 0.086 0.137 0.098 0.328 0.219 c 0.309 0.234 0.852 0.289 1.117 0.297 c 0.613 0.09 1.707 -0.449 2.137 -0.691 c 0.219 -0.152 0.621 -0.473 0.773 -0.477 c 0.094 0.094 -0.043 0.109 -0.238 0.234 c -0.258 0.176 -0.477 0.324 -0.871 0.531 c -0.418 0.207 -1.063 0.547 -1.887 0.5 c -0.434 -0.059 -0.438 -0.063 -0.703 -0.191 c -0.16 -0.105 -0.523 -0.285 -0.656 -0.422 m 0 0"
           fill="#995900"
           stroke="none"
           fill-rule="nonzero"
           fill-opacity="1"
           id="path122" />
        <path
           d="m 24.691 17.395 c 0.02 0.051 -0.129 0.145 -0.207 0.082 c -0.082 -0.066 -0.176 -0.129 -0.211 -0.145 c -0.145 -0.094 -0.09 -0.156 0.152 -0.117 c 0.242 0.039 0.242 0.129 0.266 0.18 m 0 0"
           fill="#995900"
           stroke="none"
           fill-rule="nonzero"
           fill-opacity="1"
           id="path124" />
      </g>
    </g>
  </g>
</svg>
