<svg viewBox="0 0 48 48" xmlns:xlink="http://www.w3.org/1999/xlink"><defs><linearGradient id="linearGradient3764" x1="1" x2="47" gradientUnits="userSpaceOnUse" gradientTransform="matrix(0,-1,1,0,-1.5e-6,47.999998)"><stop stop-color="#8cd644" stop-opacity="1"/><stop offset="1" stop-color="#97da54" stop-opacity="1"/></linearGradient><clipPath id="clipPath-998868648"><g transform="translate(0,-1004.3622)"><path d="m -24 13 c 0 1.105 -0.672 2 -1.5 2 -0.828 0 -1.5 -0.895 -1.5 -2 0 -1.105 0.672 -2 1.5 -2 0.828 0 1.5 0.895 1.5 2 z" transform="matrix(15.333333,0,0,11.5,414.99999,878.8622)" fill="#1890d0"/></g></clipPath><clipPath id="clipPath-004379514"><g transform="translate(0,-1004.3622)"><path d="m -24 13 c 0 1.105 -0.672 2 -1.5 2 -0.828 0 -1.5 -0.895 -1.5 -2 0 -1.105 0.672 -2 1.5 -2 0.828 0 1.5 0.895 1.5 2 z" transform="matrix(15.333333,0,0,11.5,414.99999,878.8622)" fill="#1890d0"/></g></clipPath></defs><g><path d="m 36.31 5 c 5.859 4.062 9.688 10.831 9.688 18.5 c 0 12.426 -10.07 22.5 -22.5 22.5 c -7.669 0 -14.438 -3.828 -18.5 -9.688 c 1.037 1.822 2.306 3.499 3.781 4.969 c 4.085 3.712 9.514 5.969 15.469 5.969 c 12.703 0 23 -10.298 23 -23 c 0 -5.954 -2.256 -11.384 -5.969 -15.469 c -1.469 -1.475 -3.147 -2.744 -4.969 -3.781 z m 4.969 3.781 c 3.854 4.113 6.219 9.637 6.219 15.719 c 0 12.703 -10.297 23 -23 23 c -6.081 0 -11.606 -2.364 -15.719 -6.219 c 4.16 4.144 9.883 6.719 16.219 6.719 c 12.703 0 23 -10.298 23 -23 c 0 -6.335 -2.575 -12.06 -6.719 -16.219 z" opacity="0.05"/><path d="m 41.28 8.781 c 3.712 4.085 5.969 9.514 5.969 15.469 c 0 12.703 -10.297 23 -23 23 c -5.954 0 -11.384 -2.256 -15.469 -5.969 c 4.113 3.854 9.637 6.219 15.719 6.219 c 12.703 0 23 -10.298 23 -23 c 0 -6.081 -2.364 -11.606 -6.219 -15.719 z" opacity="0.1"/><path d="m 31.25 2.375 c 8.615 3.154 14.75 11.417 14.75 21.13 c 0 12.426 -10.07 22.5 -22.5 22.5 c -9.708 0 -17.971 -6.135 -21.12 -14.75 a 23 23 0 0 0 44.875 -7 a 23 23 0 0 0 -16 -21.875 z" opacity="0.2"/></g><g><path d="m 24 1 c 12.703 0 23 10.297 23 23 c 0 12.703 -10.297 23 -23 23 -12.703 0 -23 -10.297 -23 -23 0 -12.703 10.297 -23 23 -23 z" fill="url(#linearGradient3764)" fill-opacity="1"/></g><g/><g><g clip-path="url(#clipPath-998868648)"><g transform="translate(1,1)"><g opacity="0.1"><!-- color: #97da54 --><g><path d="m 25.17 18.11 c -0.941 0 -1.777 0.352 -2.449 1.027 c -0.668 0.676 -1.023 1.523 -1.023 2.48 l 0 4.828 l 2.191 0 l 0 -4.828 c 0 -0.363 0.117 -0.652 0.379 -0.918 c 0.262 -0.266 0.539 -0.387 0.895 -0.387 c 0.367 0 0.645 0.121 0.902 0.387 c 0.262 0.266 0.379 0.551 0.379 0.918 l 0 4.828 l 2.191 0 l 0 -4.828 c 0 -0.363 0.121 -0.652 0.379 -0.918 c 0.262 -0.266 0.535 -0.387 0.898 -0.387 c 0.363 0 0.645 0.121 0.902 0.387 c 0.262 0.266 0.379 0.551 0.379 0.918 l 0.016 5.641 c 0 1.207 -1.148 2.219 -2.621 2.219 l -7.06 -0.027 c -1.137 0 -2.105 -1.105 -2.105 -2.527 l 0 -10.621 l -2.07 0 l 0 11.03 c 0 1.172 0.43 2.199 1.262 3.03 c 0.711 0.703 1.57 1.16 2.527 1.262 l 7.863 0 c 1.211 0 2.273 -0.449 3.125 -1.324 l 0.004 0 c 0.73 -0.746 1.156 -1.641 1.258 -2.652 l -0.008 -6.03 c 0 -0.957 -0.348 -1.801 -1.023 -2.48 c -0.672 -0.676 -1.504 -1.027 -2.445 -1.027 c -0.926 0 -1.73 0.344 -2.387 0.98 c -0.648 -0.637 -1.453 -0.98 -2.379 -0.98 m 0.023 0" fill="#000" stroke="none" fill-rule="evenodd" fill-opacity="1"/><use xlink:href="#SVGCleanerId_0"/><path d="m 22.688 35.996 c -4.977 0 -9.297 -3.773 -9.297 -8.75 l -0.004 -6.04 l 0 -1.543 l -3.156 0 l 0 -7.676 l 13.309 0.066 l 4.164 0.008 c 4.98 0 9.297 3.77 9.297 8.746 l 0 15.18 l -14.316 0 m 12.289 -4.066 c 0 -3.305 0 -11.11 0 -11.11 c 0 -3.711 -3.258 -6.719 -7.27 -6.719 l -4.168 0 l 0 -0.008 l -11.273 -0.055 l 0 3.605 c 0 0 0.457 0 1.262 0 c 0.859 0 1.891 0.805 1.891 1.988 l 0.02 7.609 c 0 3.711 3.254 6.723 7.266 6.723 l 9.902 0 c 1.27 0 2.383 -0.809 2.383 -2.039 m -0.004 0" fill="#000" stroke="none" fill-rule="evenodd" fill-opacity="1"/></g></g></g></g></g><g><g clip-path="url(#clipPath-004379514)"><!-- color: #97da54 --><g><path d="m 25.17 18.11 c -0.941 0 -1.777 0.352 -2.449 1.027 c -0.668 0.676 -1.023 1.523 -1.023 2.48 l 0 4.828 l 2.191 0 l 0 -4.828 c 0 -0.363 0.117 -0.652 0.379 -0.918 c 0.262 -0.266 0.539 -0.387 0.895 -0.387 c 0.367 0 0.645 0.121 0.902 0.387 c 0.262 0.266 0.379 0.551 0.379 0.918 l 0 4.828 l 2.191 0 l 0 -4.828 c 0 -0.363 0.121 -0.652 0.379 -0.918 c 0.262 -0.266 0.535 -0.387 0.898 -0.387 c 0.363 0 0.645 0.121 0.902 0.387 c 0.262 0.266 0.379 0.551 0.379 0.918 l 0.016 5.641 c 0 1.207 -1.148 2.219 -2.621 2.219 l -7.06 -0.027 c -1.137 0 -2.105 -1.105 -2.105 -2.527 l 0 -10.621 l -2.07 0 l 0 11.03 c 0 1.172 0.43 2.199 1.262 3.03 c 0.711 0.703 1.57 1.16 2.527 1.262 l 7.863 0 c 1.211 0 2.273 -0.449 3.125 -1.324 l 0.004 0 c 0.73 -0.746 1.156 -1.641 1.258 -2.652 l -0.008 -6.03 c 0 -0.957 -0.348 -1.801 -1.023 -2.48 c -0.672 -0.676 -1.504 -1.027 -2.445 -1.027 c -0.926 0 -1.73 0.344 -2.387 0.98 c -0.648 -0.637 -1.453 -0.98 -2.379 -0.98 m 0.023 0" fill="#f9f9f9" stroke="none" fill-rule="evenodd" fill-opacity="1"/><path d="m 23.883 29.457 l 0 2.16 l 5.145 0 c 1.207 0 2.262 -0.449 3.121 -1.32 l 0.008 0 c 0.73 -0.75 1.152 -1.645 1.258 -2.656 l 0 -1.227 l -2.188 0 l 0 0.84 c 0 1.207 -1.145 2.215 -2.613 2.215 l -4.727 -0.012 m -0.004 0" fill="#000" stroke="none" fill-rule="evenodd" fill-opacity="0.192" id="SVGCleanerId_0"/><path d="m 22.688 35.996 c -4.977 0 -9.297 -3.773 -9.297 -8.75 l -0.004 -6.04 l 0 -1.543 l -3.156 0 l 0 -7.676 l 13.309 0.066 l 4.164 0.008 c 4.98 0 9.297 3.77 9.297 8.746 l 0 15.18 l -14.316 0 m 12.289 -4.066 c 0 -3.305 0 -11.11 0 -11.11 c 0 -3.711 -3.258 -6.719 -7.27 -6.719 l -4.168 0 l 0 -0.008 l -11.273 -0.055 l 0 3.605 c 0 0 0.457 0 1.262 0 c 0.859 0 1.891 0.805 1.891 1.988 l 0.02 7.609 c 0 3.711 3.254 6.723 7.266 6.723 l 9.902 0 c 1.27 0 2.383 -0.809 2.383 -2.039 m -0.004 0" fill="#f9f9f9" stroke="none" fill-rule="evenodd" fill-opacity="1"/></g></g></g><g><path d="m 40.03 7.531 c 3.712 4.084 5.969 9.514 5.969 15.469 0 12.703 -10.297 23 -23 23 c -5.954 0 -11.384 -2.256 -15.469 -5.969 4.178 4.291 10.01 6.969 16.469 6.969 c 12.703 0 23 -10.298 23 -23 0 -6.462 -2.677 -12.291 -6.969 -16.469 z" opacity="0.1"/></g></svg>