<?xml version="1.0" encoding="UTF-8" standalone="no"?>
<svg
   xmlns:dc="http://purl.org/dc/elements/1.1/"
   xmlns:cc="http://creativecommons.org/ns#"
   xmlns:rdf="http://www.w3.org/1999/02/22-rdf-syntax-ns#"
   xmlns:svg="http://www.w3.org/2000/svg"
   xmlns="http://www.w3.org/2000/svg"
   xmlns:xlink="http://www.w3.org/1999/xlink"
   xmlns:sodipodi="http://sodipodi.sourceforge.net/DTD/sodipodi-0.dtd"
   xmlns:inkscape="http://www.inkscape.org/namespaces/inkscape"
   width="48"
   viewBox="0 0 13.546667 13.546667"
   height="48"
   id="svg2"
   version="1.1"
   inkscape:version="0.48.4 r9939"
   sodipodi:docname="distributor-logo-lxde.svg">
  <metadata
     id="metadata203">
    <rdf:RDF>
      <cc:Work
         rdf:about="">
        <dc:format>image/svg+xml</dc:format>
        <dc:type
           rdf:resource="http://purl.org/dc/dcmitype/StillImage" />
      </cc:Work>
    </rdf:RDF>
  </metadata>
  <sodipodi:namedview
     pagecolor="#ffffff"
     bordercolor="#666666"
     borderopacity="1"
     objecttolerance="10"
     gridtolerance="10"
     guidetolerance="10"
     inkscape:pageopacity="0"
     inkscape:pageshadow="2"
     inkscape:window-width="1280"
     inkscape:window-height="998"
     id="namedview201"
     showgrid="true"
     inkscape:zoom="4.9166665"
     inkscape:cx="-8.2692335"
     inkscape:cy="-19.773884"
     inkscape:window-x="0"
     inkscape:window-y="0"
     inkscape:window-maximized="1"
     inkscape:current-layer="svg2">
    <inkscape:grid
       type="xygrid"
       id="grid3103" />
  </sodipodi:namedview>
  <defs
     id="defs4">
    <clipPath
       id="clipPath6">
      <rect
         height="208.57"
         y="1580.93"
         x="-830"
         width="477.14"
         fill="#ff0"
         id="rect8" />
    </clipPath>
    <clipPath
       id="clipPath10">
      <rect
         height="208.57"
         y="1580.93"
         x="-830"
         width="477.14"
         fill="#ff0"
         id="rect12" />
    </clipPath>
    <clipPath
       id="clipPath14">
      <rect
         height="208.57"
         y="1580.93"
         x="-830"
         width="477.14"
         fill="#ff0"
         id="rect16" />
    </clipPath>
    <clipPath
       id="clipPath18">
      <rect
         height="208.57"
         y="1580.93"
         x="-830"
         width="477.14"
         fill="#ff0"
         id="rect20" />
    </clipPath>
    <clipPath
       id="clipPath22">
      <rect
         transform="matrix(.99975 -.02255 .02255 .99975 0 0)"
         height="240.87"
         y="780.64"
         x="294.93"
         width="357.87"
         fill="#f00"
         id="rect24" />
    </clipPath>
    <clipPath
       id="clipPath26">
      <rect
         height="195"
         y="857.54"
         width="301.43"
         fill="#fff"
         id="rect28" />
    </clipPath>
    <clipPath
       id="clipPath30">
      <rect
         height="208.57"
         y="1580.93"
         x="-830"
         width="477.14"
         fill="#ff0"
         id="rect32" />
    </clipPath>
    <clipPath
       id="clipPath34">
      <rect
         height="30.01"
         y="977.09"
         x="276.37"
         width="79.48"
         fill="#e20a17"
         id="rect36" />
    </clipPath>
    <clipPath
       id="clipPath38">
      <rect
         transform="rotate(20.37582)"
         height="37.48"
         y="0.064"
         x="8.208"
         width="506.46"
         fill="#162d50"
         id="rect40" />
    </clipPath>
    <clipPath
       id="clipPath42">
      <rect
         transform="rotate(.22918)"
         height="318.4"
         y="758.67"
         x="218.9"
         width="357.38"
         fill="#fff"
         id="rect44" />
    </clipPath>
    <clipPath
       id="clipPath46">
      <rect
         transform="rotate(.22918)"
         height="318.4"
         y="758.67"
         x="218.9"
         width="357.38"
         fill="#fff"
         id="rect48" />
    </clipPath>
    <clipPath
       id="clipPath50">
      <rect
         transform="rotate(20.37582)"
         height="37.48"
         y="0.064"
         x="8.208"
         width="506.46"
         fill="#162d50"
         id="rect52" />
    </clipPath>
    <clipPath
       id="clipPath54">
      <rect
         height="208.57"
         y="1580.93"
         x="-830"
         width="477.14"
         fill="#ff0"
         id="rect56" />
    </clipPath>
    <clipPath
       id="clipPath58">
      <rect
         transform="rotate(.6171)"
         height="235.88"
         y="804.24"
         x="221.39"
         width="350.46"
         id="rect60" />
    </clipPath>
    <clipPath
       id="clipPath62">
      <rect
         transform="rotate(.16206)"
         height="279.03"
         y="793.52"
         x="257.32"
         width="287.43"
         fill="#fff"
         id="rect64" />
    </clipPath>
    <clipPath
       id="clipPath66">
      <rect
         height="195"
         y="0.06"
         width="301.43"
         fill="#fff"
         id="rect68" />
    </clipPath>
    <clipPath
       id="clipPath70">
      <rect
         height="195"
         y="857.54"
         width="301.43"
         fill="#fff"
         id="rect72" />
    </clipPath>
    <path
       clip-path="url(#2)"
       id="0"
       d="m 699.2857,672.93231 a 40.714287,40.714287 0 1 1 -81.42858,0 40.714287,40.714287 0 1 1 81.42858,0 z"
       fill="#4a0" />
    <clipPath
       id="clipPath75">
      <use
         xlink:href="#0"
         transform="matrix(4.3233 0 0 4.3233 -2450.68 -2667.55)"
         id="use77" />
    </clipPath>
    <clipPath
       id="clipPath79">
      <rect
         transform="rotate(27.44968)"
         height="41.39"
         y="815.74"
         x="448.12"
         width="63.987"
         fill="#fff"
         id="rect81" />
    </clipPath>
    <clipPath
       id="clipPath83">
      <rect
         height="195"
         y="857.54"
         width="301.43"
         fill="#fff"
         id="rect85" />
    </clipPath>
    <clipPath
       id="clipPath87">
      <rect
         height="208.57"
         y="1580.93"
         x="-830"
         width="477.14"
         fill="#ff0"
         id="rect89" />
    </clipPath>
    <clipPath
       id="clipPath91">
      <rect
         height="208.57"
         y="1580.93"
         x="-830"
         width="477.14"
         fill="#ff0"
         id="rect93" />
    </clipPath>
    <clipPath
       id="clipPath95">
      <rect
         height="208.57"
         y="1580.93"
         x="-830"
         width="477.14"
         fill="#ff0"
         id="rect97" />
    </clipPath>
    <clipPath
       id="clipPath99">
      <rect
         height="208.57"
         y="1580.93"
         x="-830"
         width="477.14"
         fill="#ff0"
         id="rect101" />
    </clipPath>
    <clipPath
       id="clipPath103">
      <rect
         height="208.57"
         y="1580.93"
         x="-830"
         width="477.14"
         fill="#ff0"
         id="rect105" />
    </clipPath>
    <clipPath
       id="clipPath107">
      <use
         xlink:href="#0"
         id="use109" />
    </clipPath>
    <clipPath
       id="clipPath111">
      <rect
         height="208.57"
         y="1580.93"
         x="-830"
         width="477.14"
         fill="#ff0"
         id="rect113" />
    </clipPath>
    <path
       id="1"
       d="m 699.2857,672.93231 a 40.714287,40.714287 0 1 1 -81.42858,0 40.714287,40.714287 0 1 1 81.42858,0 z"
       fill="#4a0" />
    <clipPath
       id="2">
      <use
         xlink:href="#1"
         id="use117" />
    </clipPath>
    <clipPath
       id="clipPath119">
      <use
         transform="matrix(4.3233 0 0 4.3233 -2450.68 -2667.55)"
         xlink:href="#1"
         id="use121" />
    </clipPath>
    <linearGradient
       gradientUnits="userSpaceOnUse"
       x2="0"
       y2="40"
       y1="280"
       xlink:href="#4"
       id="3"
       gradientTransform="matrix(.175 0 0 .175 302.79999 215.99997)" />
    <linearGradient
       id="4">
      <stop
         stop-color="#151515"
         id="stop125" />
      <stop
         stop-color="#222"
         offset="1"
         id="stop127" />
    </linearGradient>
    <linearGradient
       gradientUnits="userSpaceOnUse"
       x2="0"
       y2="90"
       y1="230"
       xlink:href="#4"
       id="5"
       gradientTransform="matrix(.375 0 0 .375 298 16)" />
    <linearGradient
       gradientUnits="userSpaceOnUse"
       x2="0"
       y2="90"
       y1="230"
       xlink:href="#4"
       id="6"
       gradientTransform="matrix(.25 0 0 .25 299.99999 131.99999)" />
    <clipPath
       id="clipPath131">
      <rect
         color="#bebebe"
         height="20"
         rx="4"
         y="78"
         x="434"
         width="20"
         id="rect133" />
    </clipPath>
    <clipPath
       id="clipPath135">
      <rect
         color="#bebebe"
         height="22"
         rx="4"
         y="77"
         x="433"
         width="22"
         id="rect137" />
    </clipPath>
    <clipPath
       id="clipPath139">
      <rect
         color="#bebebe"
         height="22"
         rx="5"
         y="77"
         x="433"
         width="22"
         id="rect141" />
    </clipPath>
    <clipPath
       id="clipPath143">
      <rect
         color="#bebebe"
         height="30"
         rx="6"
         y="29"
         x="433"
         width="30"
         id="rect145" />
    </clipPath>
    <clipPath
       id="clipPath147">
      <rect
         color="#bebebe"
         fill="url(#6)"
         transform="matrix(0 -1 1 0 0 0)"
         height="60"
         rx="12.5"
         y="142"
         x="306"
         width="60"
         id="rect149" />
    </clipPath>
    <clipPath
       id="clipPath151">
      <rect
         color="#bebebe"
         fill="url(#5)"
         height="90"
         rx="18.75"
         y="31"
         x="307"
         width="90"
         id="rect153" />
    </clipPath>
    <clipPath
       id="clipPath155">
      <rect
         color="#bebebe"
         fill="#6d6d6d"
         opacity="0.2"
         height="30"
         rx="4"
         y="29"
         x="433"
         width="30"
         id="rect157" />
    </clipPath>
    <clipPath
       id="clipPath159">
      <rect
         color="#bebebe"
         fill="#6d6d6d"
         opacity="0.2"
         height="22"
         rx="3"
         y="77"
         x="433"
         width="22"
         id="rect161" />
    </clipPath>
    <clipPath
       id="clipPath163">
      <path
         d="m 144,70 c -49.705627,0 -90,40.29437 -90,90 0,49.70563 40.294373,90 90,90 49.70563,0 90,-40.29437 90,-90 0,-49.70563 -40.29437,-90 -90,-90 z m 0,32.1875 c 32.03251,0 58,25.96748 58,58 0,32.03252 -25.96749,58 -58,58 -32.03251,0 -58,-25.96748 -58,-58 0,-32.03252 25.96749,-58 58,-58 z"
         id="path165" />
    </clipPath>
    <clipPath
       id="clipPath167">
      <rect
         color="#bebebe"
         height="16"
         rx="3"
         y="116"
         x="432"
         width="16"
         id="rect169" />
    </clipPath>
    <clipPath
       id="clipPath171">
      <path
         d="m 145,215 c 33.13708,0 60,-26.86292 60,-60 0,-33.13708 -26.86292,-60 -60,-60 -33.13708,0 -60,26.86292 -60,60 0,12.50698 3.8285,24.10633 10.375,33.71875 L 89,211 111.28125,204.625 C 120.89367,211.1715 132.49302,215 145,215 z"
         id="path173" />
    </clipPath>
    <clipPath
       id="clipPath175">
      <path
         d="m 152,204 a 8,8 0 1 1 -16,0 8,8 0 1 1 16,0 z"
         id="path177" />
    </clipPath>
    <clipPath
       id="clipPath179">
      <path
         d="m 98.03125,23.191212 c -41.492132,1.05238 -74.84375,35.06824 -74.84375,76.812498 0,42.40687 34.405632,76.8125 76.8125,76.8125 42.40687,0 76.8125,-34.40563 76.8125,-76.8125 0,-42.406866 -34.40563,-76.812498 -76.8125,-76.812498 -0.662607,0 -1.310145,-0.0167 -1.96875,0 z M 100,50.659962 c 27.24464,0 49.34375,22.099114 49.34375,49.343748 -1e-5,27.24464 -22.09911,49.34375 -49.34375,49.34375 -27.244636,-1e-5 -49.34375,-22.09911 -49.34375,-49.34375 0,-27.244634 22.099114,-49.343748 49.34375,-49.343748 z"
         id="path181" />
    </clipPath>
    <clipPath
       id="clipPath183">
      <rect
         color="#bebebe"
         fill="#6d6d6d"
         opacity="0.2"
         height="16"
         rx="2"
         y="116"
         x="432"
         width="16"
         id="rect185" />
    </clipPath>
    <clipPath
       id="clipPath187">
      <rect
         color="#bebebe"
         fill="#986767"
         height="240"
         rx="50"
         y="36"
         x="24"
         width="240"
         id="rect189" />
    </clipPath>
    <clipPath
       id="clipPath191">
      <rect
         color="#bebebe"
         fill="url(#3)"
         transform="rotate(90)"
         height="42"
         rx="9"
         y="223"
         x="307"
         width="42"
         id="rect193" />
    </clipPath>
  </defs>
  <rect
     height="12.982"
     rx="6.491"
     y="0.283"
     x="0.282"
     width="12.982"
     opacity="0.5"
     fill="#ffffff"
     fill-rule="evenodd"
     id="rect195" />
  <rect
     height="11.853"
     rx="5.927"
     y="0.847"
     x="0.847"
     width="11.853"
     fill="#dd4814"
     fill-rule="evenodd"
     id="rect197"
     style="fill:#0068c8;fill-opacity:1" />
  <path
     style="fill:#fff8eb;fill-rule:evenodd;stroke:#fff8eb;stroke-width:0.20570488;stroke-linecap:round;stroke-linejoin:round"
     inkscape:connector-curvature="0"
     id="path18"
     d="M 8.6702909,3.4895192 C 8.403978,3.5567763 8.0300669,3.7248184 7.8042028,3.8269173 7.614402,3.674514 4.2925361,5.7989842 2.9250747,6.6948661 3.7412647,6.3808185 5.5517418,5.6964963 5.7024006,5.8738812 5.8700265,6.0712454 4.6310084,7.3514733 3.5953708,9.1155671 4.4500602,8.188934 6.0724983,6.0682451 6.3718247,6.2228916 6.3913589,6.2814079 6.0704732,6.7629153 5.6460274,7.4634563 5.1398537,8.2988877 4.7611906,9.0481378 4.3883291,9.7673818 4.4273878,9.7374886 4.3258733,9.9671522 4.274278,10.057148 4.7361526,9.534862 5.8882161,7.8836173 6.3609344,7.2041175 6.7930927,6.5829232 7.3679887,5.5654263 7.7926719,5.5597077 8.5009271,5.5502068 9.3791787,6.993308 10.294848,9.15238 c 0.156174,0.3682454 0.135282,0.4282768 0.219819,0.6687656 0.06578,0.051965 0.08643,-0.09176 0.106926,-0.1154194 C 10.61186,9.4931735 10.49575,9.0439254 10.29805,8.3317872 9.8631705,6.7652856 9.4109395,5.0577829 8.3358991,4.2804358 L 8.4050783,3.8385295 C 8.4818746,3.7381338 8.6013651,3.5973177 8.670286,3.4895192 z" />
</svg>
