<svg xmlns="http://www.w3.org/2000/svg" xmlns:xlink="http://www.w3.org/1999/xlink" viewBox="0 0 48 48">
 <defs>
  <linearGradient id="linearGradient3764" x1="1" x2="47" gradientUnits="userSpaceOnUse" gradientTransform="matrix(0,-1,1,0,-1.5e-6,47.999998)">
   <stop style="stop-color:#e4e4e4;stop-opacity:1"/>
   <stop offset="1" style="stop-color:#eee;stop-opacity:1"/>
  </linearGradient>
  <clipPath id="clipPath-303990982">
   <g transform="translate(0,-1004.3622)">
    <path d="m -24 13 c 0 1.105 -0.672 2 -1.5 2 -0.828 0 -1.5 -0.895 -1.5 -2 0 -1.105 0.672 -2 1.5 -2 0.828 0 1.5 0.895 1.5 2 z" transform="matrix(15.333333,0,0,11.5,414.99999,878.8622)" style="fill:#1890d0"/>
   </g>
  </clipPath>
  <clipPath id="clipPath-316373923">
   <g transform="translate(0,-1004.3622)">
    <path d="m -24 13 c 0 1.105 -0.672 2 -1.5 2 -0.828 0 -1.5 -0.895 -1.5 -2 0 -1.105 0.672 -2 1.5 -2 0.828 0 1.5 0.895 1.5 2 z" transform="matrix(15.333333,0,0,11.5,414.99999,878.8622)" style="fill:#1890d0"/>
   </g>
  </clipPath>
  <linearGradient id="linear0" gradientUnits="userSpaceOnUse" x1="-10.421" x2="31.577" gradientTransform="matrix(0,0.652188,-0.652188,0,41.378039,17.101839)">
   <stop style="stop-color:#8593f4;stop-opacity:1"/>
   <stop offset="1" style="stop-color:#455bbf;stop-opacity:1"/>
  </linearGradient>
  <linearGradient id="linear1" gradientUnits="userSpaceOnUse" x1="-13" x2="29" gradientTransform="matrix(0,0.652188,-0.652188,0,37.044087,18.782821)" xlink:href="#linear0"/>
  <linearGradient xlink:href="#linear0" id="linearGradient3585" gradientUnits="userSpaceOnUse" gradientTransform="matrix(0,0.652188,-0.652188,0,41.378039,17.101839)" x1="-10.421" x2="31.577"/>
 </defs>
 <g>
  <path d="m 36.31 5 c 5.859 4.062 9.688 10.831 9.688 18.5 c 0 12.426 -10.07 22.5 -22.5 22.5 c -7.669 0 -14.438 -3.828 -18.5 -9.688 c 1.037 1.822 2.306 3.499 3.781 4.969 c 4.085 3.712 9.514 5.969 15.469 5.969 c 12.703 0 23 -10.298 23 -23 c 0 -5.954 -2.256 -11.384 -5.969 -15.469 c -1.469 -1.475 -3.147 -2.744 -4.969 -3.781 z m 4.969 3.781 c 3.854 4.113 6.219 9.637 6.219 15.719 c 0 12.703 -10.297 23 -23 23 c -6.081 0 -11.606 -2.364 -15.719 -6.219 c 4.16 4.144 9.883 6.719 16.219 6.719 c 12.703 0 23 -10.298 23 -23 c 0 -6.335 -2.575 -12.06 -6.719 -16.219 z" style="opacity:0.05"/>
  <path d="m 41.28 8.781 c 3.712 4.085 5.969 9.514 5.969 15.469 c 0 12.703 -10.297 23 -23 23 c -5.954 0 -11.384 -2.256 -15.469 -5.969 c 4.113 3.854 9.637 6.219 15.719 6.219 c 12.703 0 23 -10.298 23 -23 c 0 -6.081 -2.364 -11.606 -6.219 -15.719 z" style="opacity:0.1"/>
  <path d="m 31.25 2.375 c 8.615 3.154 14.75 11.417 14.75 21.13 c 0 12.426 -10.07 22.5 -22.5 22.5 c -9.708 0 -17.971 -6.135 -21.12 -14.75 a 23 23 0 0 0 44.875 -7 a 23 23 0 0 0 -16 -21.875 z" style="opacity:0.2"/>
 </g>
 <g>
  <path d="m 24 1 c 12.703 0 23 10.297 23 23 c 0 12.703 -10.297 23 -23 23 -12.703 0 -23 -10.297 -23 -23 0 -12.703 10.297 -23 23 -23 z" style="fill:url(#linearGradient3764);fill-opacity:1"/>
 </g>
 <g>
  <g style="clip-path:url(#clipPath-303990982)">
   <g transform="translate(1,1)">
    <g style="opacity:0.1">
     <!-- color: #eeeeee -->
     <g>
      <path d="m 24 9 c 8.285 0 15 6.715 15 15 c 0 8.285 -6.715 15 -15 15 c -8.285 0 -15 -6.715 -15 -15 c 0 -8.285 6.715 -15 15 -15 m 0 0" style="fill:#000;fill-opacity:0.502;stroke:none;fill-rule:evenodd"/>
      <path d="m 37.695 24 c 0 7.563 -6.133 13.695 -13.695 13.695 c -7.563 0 -13.695 -6.133 -13.695 -13.695 c 0 -7.563 6.133 -13.695 13.695 -13.695 c 7.563 0 13.695 6.133 13.695 13.695 m 0 0" style="fill:#000;stroke:none;fill-rule:evenodd"/>
     </g>
    </g>
   </g>
  </g>
 </g>
 <g>
  <g style="clip-path:url(#clipPath-316373923)">
   <!-- color: #eeeeee -->
   <g>
    <path d="m 24,9 c 8.285,0 15,6.715 15,15 0,8.285 -6.715,15 -15,15 C 15.715,39 9,32.285 9,24 9,15.715 15.715,9 24,9 m 0,0" style="fill:#fff;fill-opacity:0.502;stroke:none;fill-rule:evenodd"/>
    <path d="m 37.695 24 c 0 7.563 -6.133 13.695 -13.695 13.695 -7.563 0 -13.695 -6.133 -13.695 -13.695 0 -7.563 6.133 -13.695 13.695 -13.695 7.563 0 13.695 6.133 13.695 13.695 m 0 0" style="fill:url(#linearGradient3585);stroke:none;fill-rule:evenodd"/>
    <path d="m 28.566 24 c 0 2.523 -2.043 4.566 -4.566 4.566 -2.52 0 -4.566 -2.043 -4.566 -4.566 0 -2.52 2.047 -4.566 4.566 -4.566 2.523 0 4.566 2.047 4.566 4.566 m 0 0" style="fill:#f9f9f9;fill-opacity:1;stroke:none;fill-rule:nonzero"/>
    <path d="m 24 27.26 c -1.801 0 -3.262 -1.461 -3.262 -3.27 0 -1.801 1.461 -3.262 3.262 -3.262 1.801 0 3.262 1.461 3.262 3.262 0 1.809 -1.461 3.27 -3.262 3.27 m 0 0" style="fill:url(#linear1);stroke:none;fill-rule:nonzero"/>
    <path d="m 21.391 30.523 1.957 0 0 1.957 -1.957 0 m 0 -1.957" style="fill:#f9f9f9;fill-opacity:1;stroke:none;fill-rule:nonzero"/>
    <path d="m 24.652 30.523 1.957 0 0 1.957 -1.957 0 m 0 -1.957" style="fill:#f9f9f9;fill-opacity:1;stroke:none;fill-rule:nonzero"/>
    <path d="m 21.391 33.781 1.957 0 0 1.957 -1.957 0 m 0 -1.957" style="fill:#f9f9f9;fill-opacity:1;stroke:none;fill-rule:nonzero"/>
    <path d="m 24.652 33.781 1.957 0 0 1.957 -1.957 0 m 0 -1.957" style="fill:#f9f9f9;fill-opacity:1;stroke:none;fill-rule:nonzero"/>
    <path d="m 25.957 24 c -0.023 1.063 -0.895 1.914 -1.957 1.914 -1.063 0 -1.934 -0.852 -1.957 -1.914 -0.016 -0.711 0.355 -1.371 0.965 -1.73 0.613 -0.359 1.371 -0.359 1.984 0 0.613 0.359 0.98 1.02 0.965 1.73 m 0 0" style="fill:#f9f9f9;fill-opacity:1;stroke:none;fill-rule:nonzero"/>
   </g>
  </g>
 </g>
 <g>
  <path d="m 40.03 7.531 c 3.712 4.084 5.969 9.514 5.969 15.469 0 12.703 -10.297 23 -23 23 c -5.954 0 -11.384 -2.256 -15.469 -5.969 4.178 4.291 10.01 6.969 16.469 6.969 c 12.703 0 23 -10.298 23 -23 0 -6.462 -2.677 -12.291 -6.969 -16.469 z" style="opacity:0.1"/>
 </g>
</svg>
