<?xml version="1.0" encoding="UTF-8" standalone="no"?>
<svg
   xmlns:dc="http://purl.org/dc/elements/1.1/"
   xmlns:cc="http://creativecommons.org/ns#"
   xmlns:rdf="http://www.w3.org/1999/02/22-rdf-syntax-ns#"
   xmlns:svg="http://www.w3.org/2000/svg"
   xmlns="http://www.w3.org/2000/svg"
   xmlns:xlink="http://www.w3.org/1999/xlink"
   xmlns:sodipodi="http://sodipodi.sourceforge.net/DTD/sodipodi-0.dtd"
   xmlns:inkscape="http://www.inkscape.org/namespaces/inkscape"
   width="48"
   viewBox="0 0 13.546667 13.546667"
   height="48"
   id="svg2"
   version="1.1"
   inkscape:version="0.48.4 r9939"
   sodipodi:docname="ekiga.svg">
  <metadata
     id="metadata52">
    <rdf:RDF>
      <cc:Work
         rdf:about="">
        <dc:format>image/svg+xml</dc:format>
        <dc:type
           rdf:resource="http://purl.org/dc/dcmitype/StillImage" />
        <dc:title></dc:title>
      </cc:Work>
    </rdf:RDF>
  </metadata>
  <sodipodi:namedview
     pagecolor="#ffffff"
     bordercolor="#666666"
     borderopacity="1"
     objecttolerance="10"
     gridtolerance="10"
     guidetolerance="10"
     inkscape:pageopacity="0"
     inkscape:pageshadow="2"
     inkscape:window-width="1920"
     inkscape:window-height="1057"
     id="namedview50"
     showgrid="true"
     inkscape:zoom="13.906434"
     inkscape:cx="29.54542"
     inkscape:cy="18.70317"
     inkscape:window-x="1600"
     inkscape:window-y="0"
     inkscape:window-maximized="1"
     inkscape:current-layer="svg2"
     inkscape:snap-center="true"
     inkscape:snap-object-midpoints="true"
     inkscape:snap-midpoints="true"
     inkscape:snap-smooth-nodes="true"
     inkscape:object-nodes="true"
     inkscape:object-paths="true"
     inkscape:snap-intersection-paths="true"
     showguides="true"
     inkscape:guide-bbox="true">
    <inkscape:grid
       type="xygrid"
       id="grid3016" />
    <sodipodi:guide
       orientation="0,1"
       position="-1,24"
       id="guide3815" />
    <sodipodi:guide
       orientation="1,0"
       position="5,24"
       id="guide3819" />
    <sodipodi:guide
       orientation="1,0"
       position="43,24"
       id="guide3821" />
    <sodipodi:guide
       orientation="1,0"
       position="9,24"
       id="guide3825" />
    <sodipodi:guide
       orientation="1,0"
       position="39,24"
       id="guide3827" />
  </sodipodi:namedview>
  <defs
     id="defs4">
    <linearGradient
       gradientTransform="matrix(1.10525 0 0 1.10525 -134.27874 -295.76183)"
       xlink:href="#linearGradient4460"
       id="linearGradient3007"
       y1="279.096"
       y2="268.33"
       gradientUnits="userSpaceOnUse"
       x2="0" />
    <linearGradient
       id="linearGradient3895-9-0-3-2-4-0">
      <stop
         offset="0"
         style="stop-color:#b7c9e2"
         id="stop8" />
      <stop
         offset="1"
         style="stop-color:#06408f"
         id="stop10" />
    </linearGradient>
    <linearGradient
       id="linearGradient4460">
      <stop
         offset="0"
         style="stop-color:#ff5400"
         id="stop13" />
      <stop
         offset="1"
         style="stop-color:#e58b43"
         id="stop15" />
    </linearGradient>
    <radialGradient
       cx="148.004"
       cy="160"
       gradientTransform="matrix(.97656 0 0 .97656 -16.5349 -236.25)"
       xlink:href="#linearGradient3895-9-0-3-2-4-0"
       id="radialGradient4432"
       r="128"
       gradientUnits="userSpaceOnUse" />
  </defs>
  <g
     style="fill-rule:evenodd"
     id="g18">
    <rect
       width="12.982"
       x=".282"
       y=".283"
       rx="6.491"
       height="12.982"
       style="opacity:.5;fill:#fff"
       id="rect20" />
    <rect
       width="11.853"
       x=".847"
       y=".847"
       rx="5.926"
       height="11.853"
       style="fill:url(#linearGradient3007)"
       id="rect22" />
  </g>
  <g
     id="g3810"
     transform="matrix(-1,0,0,1,23.847445,0.28288888)">
    <path
       id="rect3018"
       transform="scale(0.28222223,0.28222223)"
       d="m 60,11 0,8 1,0 c 0.554,0 1,0.446 1,1 l 0,6 c 0,0.554 -0.446,1 -1,1 l -1,0 0,8 2,0 c 2.216005,0 4,-1.783998 4,-4 l 0,-16 c 0,-2.216003 -1.783995,-4 -4,-4 l -2,0 z"
       style="fill:#f9f9f9;fill-opacity:1;stroke:none"
       inkscape:connector-curvature="0" />
    <path
       id="rect3028"
       transform="scale(0.28222223,0.28222223)"
       d="m 56,11 c -0.554,0 -1,0.446 -1,1 l 0,6 c 0,0.554 0.446,1 1,1 l 1,0 1,0 1,0 0,-1 0,-6 0,-1 -1,0 -1,0 -1,0 z"
       style="fill:#f9f9f9;fill-opacity:1;stroke:none"
       inkscape:connector-curvature="0" />
    <path
       inkscape:connector-curvature="0"
       style="fill:#f9f9f9;fill-opacity:1;stroke:none"
       d="m 15.804445,7.6200002 c -0.156351,0 -0.282222,0.1258711 -0.282222,0.2822222 l 0,1.6933334 c 0,0.1563511 0.125871,0.2822222 0.282222,0.2822222 l 0.282222,0 0.282222,0 0.282223,0 0,-0.2822222 0,-1.6933334 0,-0.2822222 -0.282223,0 -0.282222,0 -0.282222,0 z"
       id="path3040" />
  </g>
  <path
     style="fill:none;stroke:#f9f9f9;stroke-width:1px;stroke-linecap:round;stroke-linejoin:round;stroke-opacity:1"
     d="m 9,24 2,0 2,-5 1,10 2,-5 23,0"
     id="path3817"
     inkscape:connector-curvature="0"
     transform="scale(0.28222223,0.28222223)"
     sodipodi:nodetypes="cccccc" />
</svg>
