<?xml version="1.0" encoding="UTF-8" standalone="no"?>
<svg
   xmlns:dc="http://purl.org/dc/elements/1.1/"
   xmlns:cc="http://creativecommons.org/ns#"
   xmlns:rdf="http://www.w3.org/1999/02/22-rdf-syntax-ns#"
   xmlns:svg="http://www.w3.org/2000/svg"
   xmlns="http://www.w3.org/2000/svg"
   xmlns:sodipodi="http://sodipodi.sourceforge.net/DTD/sodipodi-0.dtd"
   xmlns:inkscape="http://www.inkscape.org/namespaces/inkscape"
   width="48"
   viewBox="0 0 13.546667 13.546667"
   height="48"
   id="svg3440"
   version="1.1"
   inkscape:version="0.91 r13725"
   sodipodi:docname="eureka.svg"
   inkscape:export-filename="/home/nerdtaco/Desktop/eureka.png"
   inkscape:export-xdpi="91.914894"
   inkscape:export-ydpi="91.914894">
  <metadata
     id="metadata3493">
    <rdf:RDF>
      <cc:Work
         rdf:about="">
        <dc:format>image/svg+xml</dc:format>
        <dc:type
           rdf:resource="http://purl.org/dc/dcmitype/StillImage" />
        <dc:title />
      </cc:Work>
    </rdf:RDF>
  </metadata>
  <sodipodi:namedview
     pagecolor="#ffffff"
     bordercolor="#666666"
     borderopacity="1"
     objecttolerance="10"
     gridtolerance="10"
     guidetolerance="10"
     inkscape:pageopacity="0"
     inkscape:pageshadow="2"
     inkscape:window-width="1301"
     inkscape:window-height="744"
     id="namedview3491"
     showgrid="true"
     inkscape:snap-object-midpoints="false"
     inkscape:snap-smooth-nodes="true"
     inkscape:object-nodes="true"
     inkscape:zoom="8.7209838"
     inkscape:cx="3.6688165"
     inkscape:cy="15.72973"
     inkscape:window-x="65"
     inkscape:window-y="24"
     inkscape:window-maximized="1"
     inkscape:current-layer="svg3440">
    <inkscape:grid
       type="xygrid"
       id="grid3495" />
  </sodipodi:namedview>
  <defs
     id="defs3442">
    <linearGradient
       x2="47"
       x1="1"
       gradientTransform="matrix(0,-1,1,0,-1.5e-6,47.999998)"
       gradientUnits="userSpaceOnUse"
       id="linearGradient3027">
      <stop
         style="stop-color:#3d3d3d;stop-opacity:1"
         id="stop3445" />
      <stop
         offset="1"
         style="stop-color:#474747;stop-opacity:1"
         id="stop3447" />
    </linearGradient>
  </defs>
  <g
     id="g3449">
    <path
       d="m 25 2 c -12.703 0 -23 10.297 -23 23 0 6.367 2.601 12.12 6.781 16.281 4.085 3.712 9.514 5.969 15.469 5.969 c 12.703 0 23 -10.297 23 -23 0 -5.954 -2.256 -11.384 -5.969 -15.469 c -4.165 -4.181 -9.914 -6.781 -16.281 -6.781 z m 16.281 6.781 c 3.854 4.113 6.219 9.637 6.219 15.719 c 0 12.703 -10.297 23 -23 23 c -6.081 0 -11.606 -2.364 -15.719 -6.219 4.16 4.144 9.883 6.719 16.219 6.719 12.703 0 23 -10.297 23 -23 0 -6.335 -2.575 -12.06 -6.719 -16.219 z"
       transform="scale(0.28222223,0.28222223)"
       style="fill:#000;opacity:0.05;fill-opacity:1;stroke:none"
       id="path3451" />
    <path
       d="m 41.28 8.781 c 3.712 4.085 5.969 9.514 5.969 15.469 c 0 12.703 -10.297 23 -23 23 -5.954 0 -11.384 -2.256 -15.469 -5.969 c 4.113 3.854 9.637 6.219 15.719 6.219 c 12.703 0 23 -10.297 23 -23 0 -6.081 -2.364 -11.606 -6.219 -15.719 z"
       transform="scale(0.28222223,0.28222223)"
       style="fill:#000;opacity:0.1;fill-opacity:1;stroke:none"
       id="path3453" />
    <path
       transform="matrix(4.3274074,0,0,3.2455556,117.19278,-35.348334)"
       d="m -24 13 a 1.5 2 0 1 1 -3 0 1.5 2 0 1 1 3 0 z"
       style="fill:#000;opacity:0.2;fill-opacity:1;stroke:none"
       id="path3455" />
  </g>
  <g
     id="g3457">
    <g
       transform="scale(0.28222223,0.28222223)"
       id="g3459">
      <path
         d="M 24,1 C 36.703,1 47,11.297 47,24 47,36.703 36.703,47 24,47 11.297,47 1,36.703 1,24 1,22.531729 1,25.416419 1,24 1,11 12.765271,1 24,1 z"
         style="fill:url(#linearGradient3027);fill-opacity:1"
         id="path3461"
         inkscape:connector-curvature="0"
         sodipodi:nodetypes="ssssss"
         inkscape:export-xdpi="93.91304"
         inkscape:export-ydpi="93.91304"
         inkscape:export-filename="/home/nerdtaco/Desktop/eureka.png" />
    </g>
    <path
       d="m 40.03 7.531 c 3.712 4.085 5.969 9.514 5.969 15.469 c 0 12.703 -10.297 23 -23 23 c -5.954 0 -11.384 -2.256 -15.469 -5.969 c 4.178 4.291 10.01 6.969 16.469 6.969 c 12.703 0 23 -10.297 23 -23 c 0 -6.462 -2.677 -12.291 -6.969 -16.469 z"
       transform="scale(0.28222223,0.28222223)"
       style="fill:#000;opacity:0.1;fill-opacity:1;stroke:none"
       id="path3463" />
  </g>
  <g
     id="g3465">
    <g
       id="g3469">
      <g
         id="g3499"
         transform="translate(-0.28222225,1.1288889)">
        <g
           id="g4291"
           style="fill:#000000;fill-opacity:0.10196078"
           transform="translate(0.28222223,0.28222223)" />
        <g
           id="g4287">
          <g
             id="g4317"
             transform="translate(0,0.28222222)">
            <g
               id="g4321"
               transform="matrix(1.25,0,0,1.25,-1.7638889,-1.3758334)">
              <g
                 id="g4325"
                 transform="translate(-3.0000001e-8,-0.20320003)">
                <path
                   sodipodi:nodetypes="ccccccccccccccc"
                   inkscape:connector-curvature="0"
                   id="path4349"
                   d="m 5.0235557,2.9068007 0,6.0735106 4.5155556,0 0,-1.3546667 -0.2257778,0.2257778 -2.9351111,0 0,-1.8062223 1.8062222,0 0,-0.9031111 -1.8062222,0 0,-1.3321772 2.9351111,0 0.2257778,0.2257778 0,-1.1288889 z"
                   style="fill:#000000;fill-opacity:0.10196078" />
                <path
                   style="fill:#00a8d2;fill-opacity:1"
                   d="m 4.7977778,2.6810229 0,6.0735106 4.5155556,0 0,-1.3546667 -0.2257777,0.2257778 -2.9351112,0 0,-1.8062223 1.8062223,0 0,-0.9031111 -1.8062223,0 0,-1.3321772 2.9351112,0 0.2257777,0.2257778 0,-1.1288889 z"
                   id="path3483"
                   inkscape:connector-curvature="0"
                   sodipodi:nodetypes="ccccccccccccccc" />
              </g>
            </g>
          </g>
        </g>
      </g>
    </g>
  </g>
</svg>
