<svg width="48" xmlns="http://www.w3.org/2000/svg" viewBox="0 0 13.546667 13.546667" height="48" xmlns:xlink="http://www.w3.org/1999/xlink">
<defs>
<linearGradient id="linearGradient4460">
<stop offset="0" style="stop-color:#294059"/>
<stop offset="1" style="stop-color:#3c5e82"/>
</linearGradient>
<linearGradient gradientTransform="matrix(1.09524 0 0 1.09524 -133.00183 -293.02198)" xlink:href="#linearGradient4460" id="linearGradient3870" y1="279.096" y2="268.33" gradientUnits="userSpaceOnUse" x2="0"/>
</defs>
<g style="fill-rule:evenodd">
<rect width="12.982" x=".282" y=".283" rx="6.491" height="12.982" style="opacity:.5;fill:#fff"/>
<rect width="11.746" x=".9" y=".901" rx="5.873" height="11.746" style="fill:url(#linearGradient3870)"/>
</g>
<path style="fill:#ad3f3f" d="m 3.8883951,9.5955558 5.7698764,0 c 0.5017285,0 0.5017285,0 0.5017285,-0.4838097 l 0,-4.1123807 -3.3866665,-2.1771429 -3.3866667,2.1771429 0,4.1123807 c 0,0.4838097 0,0.4838097 0.5017283,0.4838097 z"/>
<path style="fill:#f9f9f9" d="m 3.9511112,3.386667 0,5.6444446 5.6444446,0 0,-5.6444446 z"/>
<path style="fill:#d44d4d" d="m 3.8883951,9.5955558 5.7698764,0 c 0.5017285,0 0.5017285,0 0.5017285,-0.4753218 l 0,-4.0402337 -6.7733332,4.0402337 c 0,0.4753218 0,0.4753218 0.5017283,0.4753218 z"/>
<path style="fill:#fa5a5a" d="m 9.6582715,9.5955558 -5.7698764,0 c -0.5017283,0 -0.5017283,0 -0.5017283,-0.4753207 l 0,-4.0402348 L 10.16,9.1202351 c 0,0.4753207 0,0.4753207 -0.5017286,0.4753207 z"/>
</svg>
