<svg viewBox="0 0 48 48"><defs><linearGradient id="linearGradient3764" x1="1" x2="47" gradientUnits="userSpaceOnUse" gradientTransform="matrix(0,-1,1,0,-1.5e-6,47.999998)"><stop stop-color="#243964" stop-opacity="1"/><stop offset="1" stop-color="#294172" stop-opacity="1"/></linearGradient><clipPath id="clipPath-032794955"><g transform="translate(0,-1004.3622)"><path d="m -24 13 c 0 1.105 -0.672 2 -1.5 2 -0.828 0 -1.5 -0.895 -1.5 -2 0 -1.105 0.672 -2 1.5 -2 0.828 0 1.5 0.895 1.5 2 z" transform="matrix(15.333333,0,0,11.5,414.99999,878.8622)" fill="#1890d0"/></g></clipPath><clipPath id="clipPath-043853515"><g transform="translate(0,-1004.3622)"><path d="m -24 13 c 0 1.105 -0.672 2 -1.5 2 -0.828 0 -1.5 -0.895 -1.5 -2 0 -1.105 0.672 -2 1.5 -2 0.828 0 1.5 0.895 1.5 2 z" transform="matrix(15.333333,0,0,11.5,414.99999,878.8622)" fill="#1890d0"/></g></clipPath></defs><g><path d="m 36.31 5 c 5.859 4.062 9.688 10.831 9.688 18.5 c 0 12.426 -10.07 22.5 -22.5 22.5 c -7.669 0 -14.438 -3.828 -18.5 -9.688 c 1.037 1.822 2.306 3.499 3.781 4.969 c 4.085 3.712 9.514 5.969 15.469 5.969 c 12.703 0 23 -10.298 23 -23 c 0 -5.954 -2.256 -11.384 -5.969 -15.469 c -1.469 -1.475 -3.147 -2.744 -4.969 -3.781 z m 4.969 3.781 c 3.854 4.113 6.219 9.637 6.219 15.719 c 0 12.703 -10.297 23 -23 23 c -6.081 0 -11.606 -2.364 -15.719 -6.219 c 4.16 4.144 9.883 6.719 16.219 6.719 c 12.703 0 23 -10.298 23 -23 c 0 -6.335 -2.575 -12.06 -6.719 -16.219 z" opacity="0.05"/><path d="m 41.28 8.781 c 3.712 4.085 5.969 9.514 5.969 15.469 c 0 12.703 -10.297 23 -23 23 c -5.954 0 -11.384 -2.256 -15.469 -5.969 c 4.113 3.854 9.637 6.219 15.719 6.219 c 12.703 0 23 -10.298 23 -23 c 0 -6.081 -2.364 -11.606 -6.219 -15.719 z" opacity="0.1"/><path d="m 31.25 2.375 c 8.615 3.154 14.75 11.417 14.75 21.13 c 0 12.426 -10.07 22.5 -22.5 22.5 c -9.708 0 -17.971 -6.135 -21.12 -14.75 a 23 23 0 0 0 44.875 -7 a 23 23 0 0 0 -16 -21.875 z" opacity="0.2"/></g><g><path d="m 24 1 c 12.703 0 23 10.297 23 23 c 0 12.703 -10.297 23 -23 23 -12.703 0 -23 -10.297 -23 -23 0 -12.703 10.297 -23 23 -23 z" fill="url(#linearGradient3764)" fill-opacity="1"/></g><g/><g><g clip-path="url(#clipPath-032794955)"><g transform="translate(1,1)"><g opacity="0.1"><!-- color: #294172 --><g><path d="m 28.391 11.129 l 0 1.277 c -0.352 0.07 -0.695 0.164 -1.027 0.289 c -0.328 0.125 -0.641 0.281 -0.941 0.457 c -0.301 0.18 -0.582 0.383 -0.848 0.605 c -0.262 0.227 -0.508 0.469 -0.727 0.734 c -0.223 0.266 -0.426 0.551 -0.602 0.852 c -0.176 0.301 -0.328 0.617 -0.449 0.949 c -0.121 0.332 -0.219 0.68 -0.281 1.031 c -0.066 0.355 -0.098 0.719 -0.098 1.094 c 0 0.379 0.035 0.754 0.102 1.117 c 0.066 0.363 0.164 0.715 0.293 1.055 c 0.129 0.336 0.285 0.656 0.469 0.961 c 0.184 0.305 0.391 0.594 0.625 0.863 c 0.23 0.27 0.484 0.516 0.762 0.738 c 0.273 0.227 0.566 0.426 0.875 0.602 c 0.313 0.176 0.641 0.324 0.98 0.441 c 0.344 0.121 0.699 0.211 1.066 0.266 l 0 1.258 l 1.047 0 c 0.43 0 0.844 -0.059 1.254 -0.129 l 0 -1.207 c 0.293 -0.066 0.582 -0.152 0.859 -0.262 l 0.613 1.059 c 0.723 -0.289 1.371 -0.707 1.961 -1.199 l -0.621 -1.078 c 0.215 -0.195 0.414 -0.41 0.598 -0.637 l 1.086 0.621 c 0.477 -0.602 0.863 -1.266 1.133 -1.996 l -1.133 -0.652 c 0.082 -0.27 0.145 -0.543 0.191 -0.824 l 1.316 0 c 0.051 -0.348 0.105 -0.691 0.105 -1.051 c 0 -0.426 -0.055 -0.844 -0.129 -1.25 l -1.352 0 c -0.059 -0.273 -0.133 -0.543 -0.23 -0.801 l 1.176 -0.676 c -0.293 -0.723 -0.711 -1.367 -1.203 -1.957 l -1.156 0.664 c -0.191 -0.207 -0.387 -0.402 -0.598 -0.586 l 0.656 -1.145 c -0.602 -0.477 -1.266 -0.859 -1.992 -1.133 l -0.66 1.145 c -0.27 -0.09 -0.539 -0.164 -0.82 -0.219 l 0 -1.297 c -0.348 -0.051 -0.695 -0.109 -1.055 -0.109 c -0.426 0 -0.84 0.059 -1.246 0.129 m 1.246 3.316 c 2.184 0 3.918 1.738 3.918 3.918 c 0 2.18 -1.734 3.918 -3.918 3.918 l -3.918 0 l 0 -3.918 c 0 -2.18 1.734 -3.918 3.918 -3.918 m 0 0" fill="#000" stroke="none" fill-rule="nonzero" fill-opacity="1"/><path d="m 84.62 -79.997 c 0 0 43.38 0 43.38 0 c 0 0 0 43.39 0 43.39 c 0 23.948 -19.435 43.36 -43.38 43.36 c -23.941 0 -43.38 -19.41 -43.38 -43.36 c 0 -23.948 19.435 -43.39 43.38 -43.39 m 0 0" transform="matrix(0.130039,0,0,0.130004,7.359236,34.399983)" stroke-opacity="1" fill="#000" stroke="#01b1d7" stroke-linejoin="miter" stroke-linecap="butt" stroke-width="26.484" stroke-miterlimit="4"/><path d="m 25.73 22.281 l 0 7.352 c 0 4.066 -3.301 7.363 -7.367 7.363 c -0.617 0 -1.055 -0.07 -1.629 -0.219 c -0.832 -0.219 -1.512 -0.902 -1.512 -1.695 c 0 -0.961 0.695 -1.66 1.738 -1.66 c 0.496 0 0.676 0.098 1.402 0.098 c 2.145 0 3.887 -1.738 3.887 -3.883 l 0 -3.379 c 0 -0.301 -0.246 -0.547 -0.547 -0.547 l -2.555 0 c -0.953 0 -1.723 -0.758 -1.723 -1.711 c 0 -0.961 0.77 -1.719 1.734 -1.719" fill="#000" stroke="none" fill-rule="nonzero" fill-opacity="1"/><path d="m 22.277 25.715 l 0 -7.348 c 0 -4.066 3.301 -7.363 7.367 -7.363 c 0.617 0 1.059 0.07 1.629 0.219 c 0.832 0.219 1.512 0.898 1.512 1.695 c 0 0.961 -0.695 1.656 -1.738 1.656 c -0.496 0 -0.676 -0.094 -1.402 -0.094 c -2.145 0 -3.883 1.738 -3.887 3.883 l 0 3.375 c 0 0.305 0.246 0.551 0.547 0.551 l 2.555 0 c 0.953 0 1.723 0.758 1.723 1.711 c 0 0.961 -0.777 1.715 -1.738 1.715" fill="#000" stroke="none" fill-rule="nonzero" fill-opacity="1"/></g></g></g></g></g><g><g clip-path="url(#clipPath-043853515)"><!-- color: #294172 --><g><path d="m 28.391 11.129 l 0 1.277 c -0.352 0.07 -0.695 0.164 -1.027 0.289 c -0.328 0.125 -0.641 0.281 -0.941 0.457 c -0.301 0.18 -0.582 0.383 -0.848 0.605 c -0.262 0.227 -0.508 0.469 -0.727 0.734 c -0.223 0.266 -0.426 0.551 -0.602 0.852 c -0.176 0.301 -0.328 0.617 -0.449 0.949 c -0.121 0.332 -0.219 0.68 -0.281 1.031 c -0.066 0.355 -0.098 0.719 -0.098 1.094 c 0 0.379 0.035 0.754 0.102 1.117 c 0.066 0.363 0.164 0.715 0.293 1.055 c 0.129 0.336 0.285 0.656 0.469 0.961 c 0.184 0.305 0.391 0.594 0.625 0.863 c 0.23 0.27 0.484 0.516 0.762 0.738 c 0.273 0.227 0.566 0.426 0.875 0.602 c 0.313 0.176 0.641 0.324 0.98 0.441 c 0.344 0.121 0.699 0.211 1.066 0.266 l 0 1.258 l 1.047 0 c 0.43 0 0.844 -0.059 1.254 -0.129 l 0 -1.207 c 0.293 -0.066 0.582 -0.152 0.859 -0.262 l 0.613 1.059 c 0.723 -0.289 1.371 -0.707 1.961 -1.199 l -0.621 -1.078 c 0.215 -0.195 0.414 -0.41 0.598 -0.637 l 1.086 0.621 c 0.477 -0.602 0.863 -1.266 1.133 -1.996 l -1.133 -0.652 c 0.082 -0.27 0.145 -0.543 0.191 -0.824 l 1.316 0 c 0.051 -0.348 0.105 -0.691 0.105 -1.051 c 0 -0.426 -0.055 -0.844 -0.129 -1.25 l -1.352 0 c -0.059 -0.273 -0.133 -0.543 -0.23 -0.801 l 1.176 -0.676 c -0.293 -0.723 -0.711 -1.367 -1.203 -1.957 l -1.156 0.664 c -0.191 -0.207 -0.387 -0.402 -0.598 -0.586 l 0.656 -1.145 c -0.602 -0.477 -1.266 -0.859 -1.992 -1.133 l -0.66 1.145 c -0.27 -0.09 -0.539 -0.164 -0.82 -0.219 l 0 -1.297 c -0.348 -0.051 -0.695 -0.109 -1.055 -0.109 c -0.426 0 -0.84 0.059 -1.246 0.129 m 1.246 3.316 c 2.184 0 3.918 1.738 3.918 3.918 c 0 2.18 -1.734 3.918 -3.918 3.918 l -3.918 0 l 0 -3.918 c 0 -2.18 1.734 -3.918 3.918 -3.918 m 0 0" fill="#01b1d7" stroke="none" fill-rule="nonzero" fill-opacity="1"/><path d="m 84.62 -79.997 c 0 0 43.38 0 43.38 0 c 0 0 0 43.39 0 43.39 c 0 23.948 -19.435 43.36 -43.38 43.36 c -23.941 0 -43.38 -19.41 -43.38 -43.36 c 0 -23.948 19.435 -43.39 43.38 -43.39 m 0 0" transform="matrix(0.130039,0,0,0.130004,7.359236,34.399983)" stroke-opacity="1" fill="none" stroke="#01b1d7" stroke-linejoin="miter" stroke-linecap="butt" stroke-width="26.484" stroke-miterlimit="4"/><path d="m 25.73 22.281 l 0 7.352 c 0 4.066 -3.301 7.363 -7.367 7.363 c -0.617 0 -1.055 -0.07 -1.629 -0.219 c -0.832 -0.219 -1.512 -0.902 -1.512 -1.695 c 0 -0.961 0.695 -1.66 1.738 -1.66 c 0.496 0 0.676 0.098 1.402 0.098 c 2.145 0 3.887 -1.738 3.887 -3.883 l 0 -3.379 c 0 -0.301 -0.246 -0.547 -0.547 -0.547 l -2.555 0 c -0.953 0 -1.723 -0.758 -1.723 -1.711 c 0 -0.961 0.77 -1.719 1.734 -1.719" fill="#fff" stroke="none" fill-rule="nonzero" fill-opacity="1"/><path d="m 22.277 25.715 l 0 -7.348 c 0 -4.066 3.301 -7.363 7.367 -7.363 c 0.617 0 1.059 0.07 1.629 0.219 c 0.832 0.219 1.512 0.898 1.512 1.695 c 0 0.961 -0.695 1.656 -1.738 1.656 c -0.496 0 -0.676 -0.094 -1.402 -0.094 c -2.145 0 -3.883 1.738 -3.887 3.883 l 0 3.375 c 0 0.305 0.246 0.551 0.547 0.551 l 2.555 0 c 0.953 0 1.723 0.758 1.723 1.711 c 0 0.961 -0.777 1.715 -1.738 1.715" fill="#fff" stroke="none" fill-rule="nonzero" fill-opacity="1"/></g></g></g><g><path d="m 40.03 7.531 c 3.712 4.084 5.969 9.514 5.969 15.469 0 12.703 -10.297 23 -23 23 c -5.954 0 -11.384 -2.256 -15.469 -5.969 4.178 4.291 10.01 6.969 16.469 6.969 c 12.703 0 23 -10.298 23 -23 0 -6.462 -2.677 -12.291 -6.969 -16.469 z" opacity="0.1"/></g></svg>