<?xml version="1.0" encoding="UTF-8" standalone="no"?>
<svg
   xmlns:dc="http://purl.org/dc/elements/1.1/"
   xmlns:cc="http://creativecommons.org/ns#"
   xmlns:rdf="http://www.w3.org/1999/02/22-rdf-syntax-ns#"
   xmlns:svg="http://www.w3.org/2000/svg"
   xmlns="http://www.w3.org/2000/svg"
   xmlns:xlink="http://www.w3.org/1999/xlink"
   xmlns:sodipodi="http://sodipodi.sourceforge.net/DTD/sodipodi-0.dtd"
   xmlns:inkscape="http://www.inkscape.org/namespaces/inkscape"
   viewBox="0 0 48 48"
   id="svg2"
   version="1.1"
   inkscape:version="0.48.4 r9939"
   width="100%"
   height="100%"
   sodipodi:docname="firefox-trunk.svg">
  <metadata
     id="metadata81">
    <rdf:RDF>
      <cc:Work
         rdf:about="">
        <dc:format>image/svg+xml</dc:format>
        <dc:type
           rdf:resource="http://purl.org/dc/dcmitype/StillImage" />
      </cc:Work>
    </rdf:RDF>
  </metadata>
  <sodipodi:namedview
     pagecolor="#ffffff"
     bordercolor="#666666"
     borderopacity="1"
     objecttolerance="10"
     gridtolerance="10"
     guidetolerance="10"
     inkscape:pageopacity="0"
     inkscape:pageshadow="2"
     inkscape:window-width="1280"
     inkscape:window-height="960"
     id="namedview79"
     showgrid="false"
     inkscape:zoom="1.7383042"
     inkscape:cx="88.861838"
     inkscape:cy="-123.06825"
     inkscape:window-x="0"
     inkscape:window-y="0"
     inkscape:window-maximized="1"
     inkscape:current-layer="svg2" />
  <defs
     id="defs4">
    <linearGradient
       id="linearGradient3764"
       x1="1"
       x2="47"
       gradientUnits="userSpaceOnUse"
       gradientTransform="matrix(0,-1,1,0,-1.5e-6,47.999998)">
      <stop
         stop-color="#1e569c"
         stop-opacity="1"
         id="stop7" />
      <stop
         offset="1"
         stop-color="#2161ad"
         stop-opacity="1"
         id="stop9" />
    </linearGradient>
    <clipPath
       id="clipPath-063411192">
      <g
         transform="translate(0,-1004.3622)"
         id="g12">
        <path
           d="m -24 13 c 0 1.105 -0.672 2 -1.5 2 -0.828 0 -1.5 -0.895 -1.5 -2 0 -1.105 0.672 -2 1.5 -2 0.828 0 1.5 0.895 1.5 2 z"
           transform="matrix(15.333333,0,0,11.5,414.99999,878.8622)"
           fill="#1890d0"
           id="path14" />
      </g>
    </clipPath>
    <clipPath
       id="clipPath-080703763">
      <g
         transform="translate(0,-1004.3622)"
         id="g17">
        <path
           d="m -24 13 c 0 1.105 -0.672 2 -1.5 2 -0.828 0 -1.5 -0.895 -1.5 -2 0 -1.105 0.672 -2 1.5 -2 0.828 0 1.5 0.895 1.5 2 z"
           transform="matrix(15.333333,0,0,11.5,414.99999,878.8622)"
           fill="#1890d0"
           id="path19" />
      </g>
    </clipPath>
    <linearGradient
       inkscape:collect="always"
       xlink:href="#linearGradient3764"
       id="linearGradient3996"
       gradientUnits="userSpaceOnUse"
       gradientTransform="matrix(0,-1,1,0,-1.5e-6,47.999998)"
       x1="1"
       x2="47" />
    <linearGradient
       id="linearGradient3764-6"
       x1="1"
       x2="47"
       gradientUnits="userSpaceOnUse"
       gradientTransform="matrix(0,-1,1,0,-1.5e-6,47.999998)">
      <stop
         stop-color="#60c3e0"
         stop-opacity="1"
         id="stop7-4" />
      <stop
         offset="1"
         stop-color="#71cae3"
         stop-opacity="1"
         id="stop9-3" />
    </linearGradient>
  </defs>
  <g
     id="g33" />
  <path
     style="opacity:0.05"
     inkscape:connector-curvature="0"
     id="path23-8"
     d="M 36.31,4.9999997 C 42.169,9.0619997 45.998,15.831 45.998,23.5 45.998,35.926 35.928,46 23.498,46 15.829,46 9.0599999,42.172 4.9979999,36.312 c 1.037,1.822 2.306,3.499 3.781,4.969 C 12.864,44.993 18.293,47.25 24.248,47.25 c 12.703,0 23,-10.298 23,-23 0,-5.954 -2.256,-11.384 -5.969,-15.4690003 -1.469,-1.475 -3.147,-2.744 -4.969,-3.781 z m 4.969,3.781 C 45.133,12.894 47.498,18.418 47.498,24.5 c 0,12.703 -10.297,23 -23,23 C 18.417,47.5 12.892,45.136 8.7789999,41.281 12.939,45.425 18.662,48 24.998,48 c 12.703,0 23,-10.298 23,-23 0,-6.335 -2.575,-12.06 -6.719,-16.2190003 z" />
  <path
     style="opacity:0.1"
     inkscape:connector-curvature="0"
     id="path25-6"
     d="M 41.28,8.7809997 C 44.992,12.866 47.249,18.295 47.249,24.25 c 0,12.703 -10.297,23 -23,23 -5.954,0 -11.384,-2.256 -15.4690001,-5.969 C 12.893,45.135 18.417,47.5 24.499,47.5 c 12.703,0 23,-10.298 23,-23 0,-6.081 -2.364,-11.606 -6.219,-15.7190003 z" />
  <path
     style="opacity:0.2"
     inkscape:connector-curvature="0"
     id="path27-8"
     d="M 31.25,2.3749997 C 39.865,5.5289997 46,13.792 46,23.505 c 0,12.426 -10.07,22.5 -22.5,22.5 -9.708,0 -17.9710001,-6.135 -21.1200001,-14.75 a 23,23 0 0 0 44.8750001,-7 23,23 0 0 0 -16,-21.8750003 z" />
  <path
     inkscape:connector-curvature="0"
     style="fill:url(#linearGradient3996);fill-opacity:1.0"
     d="m 24,0.9999997 c -6.756989,0 -12.823374,2.923248 -17.0312501,7.5625 0.08773,0.5788609 0.152463,1.0581537 0.21875,1.4687503 C 4.0327999,13.823255 2.125,18.681484 2.125,24 c 0,12.085168 9.789832,21.875 21.875,21.875 12.085168,0 21.875,-9.789832 21.875,-21.875 0,-3.857495 -0.997992,-7.478064 -2.75,-10.625 C 43.07921,12.587409 43.004604,11.7078 42.8125,10.78125 38.65069,4.8660849 31.782465,0.9999997 24,0.9999997 z M 5.6562499,10.15625 c -0.42593,0.562866 -0.81386,1.117161 -1.1875,1.71875 0.366571,-0.587049 0.771168,-1.16853 1.1875,-1.71875 z m -1.3125,1.90625 c -0.276124,0.45445 -0.536452,0.931858 -0.78125,1.40625 0.246958,-0.475856 0.502768,-0.950486 0.78125,-1.40625 z m -1.9375,4.03125 c -0.180571,0.493184 -0.3528998,0.991658 -0.4999999,1.5 0.1479175,-0.507642 0.3186129,-1.007553 0.4999999,-1.5 z"
     id="path31-0" />
  <path
     inkscape:connector-curvature="0"
     style="opacity:0.1;fill:#000000;fill-opacity:1;fill-rule:nonzero;stroke:none"
     d="m 19.5,2.9687497 -0.625,0.75 -0.71875,0.875 -1.21875,0.59375 -0.96875,0.25 -0.625,0.65625 -0.625,0.59375 0.15625,0.96875 0.75,0.125 0.71875,-0.6875 0.625,-0.65625 0.96875,-0.25 0.6875,-0.34375 c -0.04744,-0.033096 -0.06925,-0.019177 -0.125,-0.0625 l 0.125,-0.40625 0.71875,0 0.53125,-0.65625 1.03125,-1.25 0.71875,-0.1875 -0.03125,-0.28125 -1.125,0 L 19.5,2.9687497 z m 7.46875,0.40625 c -0.055,0.023 -1.53125,0.03125 -1.53125,0.03125 l -0.375,0.09375 0.5,0.59375 0.53125,-0.5 0.34375,0.21875 0.5,-0.25 c 0,0 0.08625,-0.2105 0.03125,-0.1875 z m -13.15625,0.25 0.0625,0.5 0.5,0 -0.1875,-0.5 -0.375,0 z m 18.78125,0.21875 -0.46875,0.0625 -0.40625,0.25 -0.46875,0.34375 -0.21875,0.375 c 0.166624,-0.037317 0.40625,-0.09375 0.40625,-0.09375 l 0.28125,0 0.0625,-0.0625 0.03125,-0.15625 0.46875,-0.3125 c 0,0 0.137933,-9.951e-4 0.25,0 -0.02757,-0.1222379 -0.0625,-0.28125 -0.0625,-0.28125 l 0.625,0.0625 -0.125,-0.1875 -0.375,0 z m -21.21875,1.375 -0.03125,0.28125 0.0625,0 0.25,0.46875 -0.5,0.53125 -0.5625,0.0625 0.5,0.21875 0.53125,0.46875 0.53125,0.125 0.1875,-0.71875 0.03125,-0.4375 0.625,0.09375 c 0,0 -0.18775,0.3125 -0.09375,0.3125 0.094,0 0.46875,-0.40625 0.46875,-0.40625 l -1,-1 c 0,0 -0.37475,0.40625 -0.46875,0.40625 -0.094,0 0.09375,-0.3125 0.09375,-0.3125 l -0.625,-0.09375 z m 16.34375,0.21875 -0.03125,0.0625 0.15625,0.25 0.3125,0.21875 0.53125,-0.28125 -0.4375,-0.15625 -0.53125,-0.09375 z m -17.8750001,0.5 c -0.09939,0.07812 -0.214433,0.1390406 -0.3125,0.21875 -0.143979,0.1271082 -0.291488,0.2495833 -0.4375,0.375 0.342841,-0.1490596 0.65625,-0.34375 0.65625,-0.34375 l 0.21875,0.25 c 0.04392,-0.067727 0.1250001,-0.1875 0.1250001,-0.1875 l 0.21875,-0.28125 -0.03125,-0.03125 -0.1875,0.21875 -0.2500001,-0.21875 z m 16.0312501,0.09375 -0.40625,0.3125 -0.4375,0.40625 c 0,0 -0.0022,0.028801 0,0.03125 0.02442,0.027293 0.176488,0.1663941 0.1875,0.1875 0.011,0.023 -0.0625,0.15625 -0.0625,0.15625 l -0.28125,0.1875 c 0,0 -0.01925,0.37925 -0.03125,0.40625 -0.012,0.027 -0.375,0.25 -0.375,0.25 l -0.09375,-0.25 -0.15625,-0.1875 -0.09375,0 -0.09375,0.34375 0.125,0.34375 c 0,0 0.13325,0.15625 0.15625,0.15625 0.023,0 0.25,-0.125 0.25,-0.125 0,0 0.02725,-0.11725 0.15625,-0.15625 0.129,-0.039 0.25,-0.0625 0.25,-0.0625 l 0.0625,0.15625 0.03125,0 c 0.02541,-0.00315 0.0625,0 0.0625,0 l 0.25,0.09375 0.03125,0 0.375,-0.28125 0.03125,-0.03125 c 0.003,-0.038484 0.006,-0.0765 0,-0.09375 -0.023,-0.063 0,-0.3125 0,-0.3125 0,0 0.05763,-0.082 0.125,-0.15625 l 0,-0.03125 c 0,0 0.03125,-0.013187 0.0625,-0.03125 0.03125,-0.018063 0.0625,-0.041 0.0625,-0.0625 0,-0.01075 0.04492,-0.011656 0.0625,-0.03125 0.05273,-0.058781 0.125,-0.15625 0.125,-0.15625 l 0.21875,-0.28125 0.09375,-0.09375 -0.21875,0.03125 -0.34375,0.03125 -0.1875,-0.15625 0,-0.34375 0.0625,-0.25 z m -6.25,0.34375 -0.125,0.40625 c 0.453,0.352 0.625,0.34375 0.625,0.34375 l 0.53125,-0.125 0.34375,-0.34375 -0.21875,-0.28125 -1.15625,0 z m -8.875,0.8125 c 0,0 -0.185674,0.1099414 -0.40625,0.21875 l 0.5625,-0.03125 -0.15625,-0.1875 z m 0.4375,0.53125 0,0.78125 0.75,-0.125 -0.65625,0.03125 -0.09375,-0.6875 z m 0.75,0.65625 0.09375,0 -0.1875,0.8125 0.3125,0.8125 c 0,0 -0.04476,0.1312303 -0.125,0.2500003 l 0.0625,0.6875 c 0,0 0.59025,0.56275 0.78125,0.46875 C 13.066,11.31225 13.15625,11 13.15625,11 l -0.3125,-0.8125 0.1875,-0.8125003 -0.84375,0.125 0,-1.375 -0.25,0.25 z m 18.125,-0.5625 c 1.137,0.219 2.094,0.4695 2.875,0.8125 1.203,0.516 1.97675,1.215 2.34375,2.0000003 -1.117,-0.199 -2.109,-0.1485 -3,0.1875 6.383,2.434 9.4145,5.3435 9.0625,8.6875 -0.27691,-0.416258 -0.605939,-0.75315 -1,-1 -0.267664,-0.167672 -0.558685,-0.312812 -0.875,-0.40625 0.977,3.668 1.06225,6.6745 0.28125,9.0625 -0.543,-1.594 -1.063,-2.50775 -1.5,-2.84375 0.613,4.918 -0.211,8.53925 -2.5,10.90625 0.441,-1.445 0.598,-2.6285 0.5,-3.5625 -2.691,3.891 -5.7535,5.90425 -9.1875,6.03125 -1.352,-0.016 -2.64075,-0.21575 -3.84375,-0.59375 -1.77,-0.57 -3.35925,-1.5505 -4.78125,-2.9375 2.219,0.176 4.24325,-0.1915 6.03125,-1.0625 L 27.40625,31.25 c 0.22622,-0.162195 0.439824,-0.208105 0.65625,-0.1875 l -0.65625,1.03125 -0.53125,0 -0.46875,0.0625 L 26.5,32.25 l 0.0625,0.59375 0.09375,0.6875 L 27,33.1875 l 0.875,-0.09375 0.53125,0 0.96875,-1.5 L 29.4375,31 l 0.65625,-0.65625 0.03125,-0.75 0.34375,-0.75 0.59375,-0.59375 -0.09375,-0.09375 -0.25,-0.34375 0.34375,-0.28125 0.21875,-0.09375 0,-0.25 -0.1875,-0.8125 -0.125,-1.125 L 31.5625,24.3125 32.625,23 l 0.40625,-0.40625 0.15625,-0.53125 0.25,-0.46875 0.0625,-0.6875 -0.59375,0 L 32.625,21.1875 32.1875,21.0625 32.03125,21.59375 31.625,22 l -1.0625,1.3125 -0.59375,0.9375 0.125,1.125 0.1875,0.8125 0,0.875 -0.8125,0.78125 -0.34375,0.75 -0.03125,0.75 L 28.6875,29.75 c -0.291953,-0.277212 -0.636207,-0.548438 -1.0625,-0.78125 -1.465,-0.734 -2.9765,-0.77725 -4.5625,0.34375 -1.52,0.828 -2.98525,0.78525 -4.40625,-0.09375 -0.934,-0.617 -1.8205,-1.461 -2.6875,-2.5 l -0.3125,-0.46875 0,-0.03125 c 0.043,-1.027 0.43725,-1.5625 1.28125,-1.6875 0.957,0.082 2.05125,0.281 3.28125,0.625 0.207,-1.141 -0.0625,-2.3355 -0.8125,-3.5625 l 0.03125,-0.125 c 1.16,-1.035 2.121,-1.67125 3,-2.15625 0.316,-0.414 0.4565,-0.5665 0.6875,-0.9375 -0.051,-0.109 0.059,-0.14875 0.125,-0.09375 0.07,-0.313 0.07025,-0.2845 -0.21875,-0.6875 C 22.17925,17.79675 21.2155,17.539 20.5625,17.375 20.2265,17.281 19.77,17.07375 19.25,16.59375 l -1.34375,-1.25 -0.34375,-0.4375 0.03125,-0.15625 c 0.145,-0.988 0.63325,-1.77725 1.03125,-2.53125 0.434,-0.691 1.269,-1.454 2.5,-2.2500003 C 18.844,10.24175 16.7735,11.2385 14.9375,12.9375 c -1.52,-0.535 -3.33225,-0.42225 -5.4062501,0.34375 -0.539769,-0.245388 -0.800464,-0.556065 -1,-1 C 9.3323749,11.985367 10.091242,11.788764 10.8125,11.6875 10.812776,11.535104 10.7179,11.3278 10.59375,11.125 10.40275,10.812 10.6875,10.5 10.6875,10.5 l 0.625,-0.375 C 11.21376,10.04195 11.09375,9.9374997 11.09375,9.9374997 l -0.0625,-0.75 -0.625,-0.125 -0.7187501,0.4375 c 0,0 -0.28475,0.312 -0.09375,0.6250003 0.191,0.312 0.316,0.656 0.125,0.75 -0.191,0.094 -1.125,0.25 -1.125,0.25 l -0.3125,0.34375 c -0.11942,-0.564135 -0.21675,-1.245375 -0.375,-2.2500003 -0.37617,0.4023365 -0.722692,0.8287153 -1.0625,1.2500003 -0.229759,0.28485 -0.442987,0.582171 -0.65625,0.875 -0.06054,0.0849 -0.128137,0.164218 -0.1875,0.25 -0.330205,0.477162 -0.645158,0.965388 -0.9375,1.46875 C 3.1950419,16.277934 2.125,20.011113 2.125,24 c 0,12.085168 9.789832,21.875 21.875,21.875 12.085168,0 21.875,-9.789832 21.875,-21.875 0,-2.987823 -0.603423,-5.843946 -1.6875,-8.4375 6.72e-4,0.04029 -5.85e-4,0.118637 0,0.15625 -0.0936,-0.316695 -0.217792,-0.632266 -0.34375,-0.9375 C 43.80641,14.70093 43.78828,14.611036 43.75,14.53125 43.570402,14.128043 43.359858,13.752762 43.125,13.375 41.800087,11.243921 39.620462,9.5489591 36.78125,8.7187497 34.89811,8.1740232 32.646879,7.8880056 30.0625,7.8124997 z M 40.34375,18.5 C 40.39769,17.987548 40.35486,17.491897 40.25,17 l -0.125,0.09375 -0.28125,0.34375 c 0,0 -0.139952,0.129735 -0.25,0.25 0.284296,0.225906 0.534699,0.488853 0.75,0.8125 z m -17.9375,-10.3437503 -0.25,0.21875 c -0.03541,0.1542941 -0.06329,0.1938988 -0.09375,0.3125 l 0.21875,0.28125 -0.1875,0.09375 0.375,0.15625 0,0.0625 0.09375,-0.09375 0.15625,-0.1875 c 0,0 0.05673,-0.071976 0.09375,-0.15625 l -0.25,-0.28125 -0.15625,-0.40625 z m -15.2812501,0.375 c 0.01895,0.099368 0.03125,0.211141 0.03125,0.28125 0,0.125 0.28125,0.3125 0.28125,0.3125 l 0.15625,-0.21875 -0.21875,-0.15625 c 0,0 -0.13012,-0.1198824 -0.25,-0.21875 z m 14.5000001,0.8125 -0.21875,0.34375 c 0,0 0.187,-0.0395 0.25,-0.0625 0.03209,-0.01167 0.0879,-0.011225 0.15625,-0.03125 l -0.1875,-0.25 z m 20.59375,0.65625 c 0.197681,0.2635973 0.40659,0.5138013 0.59375,0.7812503 -0.0048,-0.0068 0.0048,-0.02445 0,-0.03125 -0.186494,-0.263707 -0.394588,-0.500361 -0.59375,-0.7500003 z M 5.6562499,10.15625 c -0.212965,0.281433 -0.428071,0.559619 -0.625,0.84375 -0.01313,0.01891 -0.0182,0.04358 -0.03125,0.0625 l 0,0.03125 c 0.216692,-0.315933 0.428194,-0.636104 0.65625,-0.9375 z M 31.5625,10.1875 l 0,0.03125 C 31.4225,10.26175 31,10.625 31,10.625 l -0.125,0.53125 c 0,0 0.113,0.21525 0.25,0.28125 0.14,0.067 0.4375,0.46875 0.4375,0.46875 L 31.78125,12.5625 32.3125,12.90625 32.5,12.8125 c -0.08274,-0.107504 -0.264324,-0.322034 -0.375,-0.375 -0.137,-0.066 -0.25,-0.28125 -0.25,-0.28125 L 32,11.625 c 0,0 0.05195,-0.02231 0.0625,-0.03125 L 31.78125,10.875 31.6875,10.5625 l 0.25,-0.21875 c 0,0 -0.238,-0.19925 -0.375,-0.15625 z M 27.625,10.3125 27.46875,11 l -0.25,0.46875 0.03125,0.5 -0.15625,-0.0625 -0.4375,-0.15625 -0.1875,0.21875 -0.09375,0.34375 0.03125,0.15625 0.28125,0.3125 0,0.6875 0.1875,0.125 0.375,0.375 L 27.53125,13.875 27.375,13.3125 27.46875,12.96875 27.25,12.71875 27.0625,12.25 27.5,12.15625 l 0.125,-0.1875 0.59375,-0.3125 0.34375,0 0.0625,-0.34375 0.5625,0.09375 0.09375,0.3125 0.0625,0.03125 0.21875,0.0625 0.1875,-0.15625 -0.15625,-0.34375 0.28125,0 -0.03125,-0.0625 -0.375,-0.1875 -0.4375,-0.375 0.21875,-0.375 -0.65625,0 L 28.75,10.65625 28.5,10.875 28.28125,10.71875 28.1875,10.40625 27.625,10.3125 z m -3.0625,0.28125 -0.34375,0.03125 -0.09375,0.1875 1.03125,0.96875 0.0625,-0.15625 0.3125,-0.03125 -0.21875,-0.25 -0.75,-0.75 z m -0.875,0.28125 -0.21875,0.1875 -0.96875,0.15625 -0.09375,0.125 0.0625,0.125 c 0,0 0.12925,0.21875 0.15625,0.21875 0.031,0 0.09375,0.21875 0.09375,0.21875 l -0.1875,0.25 -0.09375,0 0.125,0.15625 -0.15625,0.03125 0,-0.1875 -0.625,0.125 L 21.75,12.25 l -0.375,0.6875 -0.3125,0.125 -0.03125,0.09375 0,0.375 L 21.5625,13.5 22,13.09375 l 0.8125,0.03125 0.15625,-0.25 0.46875,-0.59375 -0.15625,-0.15625 0.375,-0.71875 0.1875,0.46875 -0.03125,0.28125 0.65625,-0.09375 0.125,-0.125 -0.90625,-1.0625 z m 1.5625,1.0625 0.0625,0.125 -0.1875,0 0.09375,0.375 -0.03125,0.03125 0.59375,0.6875 0.125,0.4375 0.3125,-0.15625 -0.09375,-0.375 0.1875,0 -0.0625,-0.09375 -0.375,-0.375 -0.1875,-0.125 0,-0.125 L 25.25,11.9375 z m -0.59375,0.46875 -0.09375,0.21875 0.28125,0.25 -0.1875,-0.46875 z m -0.21875,0.40625 -0.15625,0.3125 0.28125,0.28125 0.25,-0.21875 0,-0.0625 -0.125,0.09375 -0.25,-0.40625 z m 3.78125,0.09375 -0.0625,0.03125 0.09375,0.03125 -0.03125,-0.0625 z m 0.40625,0.0625 -0.03125,0.0625 -0.09375,0.125 -0.125,0.03125 -0.3125,0.0625 0.1875,0.46875 0.34375,0.40625 0.375,-0.125 0.09375,-0.5625 -0.03125,-0.40625 -0.375,-0.0625 -0.03125,0 z M 25.5625,13.625 25.375,13.6875 25.6875,14.21875 25.96875,14 25.5625,13.625 z m -0.59375,0.1875 -0.5625,0.03125 L 24.375,14 l 0.46875,0.28125 0.125,0.0625 0,-0.53125 z m 6.78125,0.5625 0,0.8125 0.4375,0.40625 L 32.46875,16 32.59375,16.3125 33,16.5 33.03125,16.4375 32.75,16.1875 32.75,15.65625 32.375,15.4375 32.03125,14.90625 31.75,14.375 z M 29.0625,15.4375 29,15.59375 l -0.4375,-0.0625 0.0625,0.25 0.40625,0.75 0.3125,0.59375 0.28125,0.46875 0.15625,0.8125 0.65625,0.5 0.28125,0.5625 0.34375,0.5625 0.5,0.15625 -0.125,-0.28125 -0.65625,-0.5 -0.15625,-0.8125 -0.28125,-0.46875 -0.3125,-0.59375 -0.40625,-0.75 -0.0625,-0.375 -0.34375,-0.625 -0.15625,-0.34375 z m 4.3125,0.25 -0.40625,0.09375 0.0625,0.125 0.1875,0.3125 0.1875,-0.125 0.375,0.46875 0.1875,0.21875 0.40625,-0.09375 0.25,0.28125 1.65625,-0.03125 -0.34375,-0.46875 -0.5625,-0.5 0.03125,-0.03125 -1.78125,0.03125 -0.25,-0.28125 z M 36.84375,17 36.75,17.3125 36.9375,17.46875 36.84375,17 z m -2.4375,0.09375 -0.25,0.15625 L 34,17.5 l -0.03125,0 -0.28125,0.46875 -0.59375,0.34375 -0.4375,0.53125 L 32.0625,19 l -0.4375,0.40625 0.3125,0.5 0.5625,0 -0.0625,0.53125 0.09375,0.0625 0.53125,-0.5 0.59375,-0.15625 0.4375,-0.53125 0.59375,-0.34375 0.34375,-0.59375 0.03125,-0.5 -0.28125,-0.3125 -0.375,-0.46875 z m 4.40625,1.46875 -0.15625,0.21875 0,0.6875 -0.125,0.78125 -0.03125,0.09375 0.125,0.46875 0.03125,0.03125 0.3125,-0.40625 0.125,0.15625 0.0625,0.46875 L 38.875,21.375 38.90625,21.46875 39.125,21.75 39.25,21.6875 c -0.05375,-0.978366 -0.204999,-2.019987 -0.4375,-3.125 z m -16.5,2.78125 -0.40625,0.1875 -1.5625,0 -0.09375,0.375 -0.375,-0.09375 0.5,0.625 0.4375,0.375 0.4375,0.09375 0.09375,-0.375 1.5625,0 0.40625,-0.1875 0.5,0.0625 0.03125,0.0625 0,-0.46875 -0.34375,-0.25 -0.53125,-0.03125 -0.15625,-0.3125 -0.5,-0.0625 z m 10.625,6.15625 0,0.4375 c -0.02,0.063 -0.375,0.375 -0.375,0.375 l -0.5,0.21875 -0.21875,0.15625 0.03125,0.1875 -0.0625,0.09375 0.15625,0.1875 0.15625,0.15625 -0.40625,0.34375 0,0.5625 0.15625,0.59375 0.34375,0.09375 0.40625,-0.625 0.25,-0.40625 -0.0625,-0.5 0.375,-0.59375 0.125,-0.28125 0,-0.5625 -0.09375,-0.4375 -0.28125,0 z"
     id="path45-5" />
  <path
     style="opacity:0.1;fill:#000000;fill-opacity:1;fill-rule:nonzero;stroke:none"
     inkscape:connector-curvature="0"
     id="path49-3"
     d="m 42.04,16.418 c 0.055,0.098 0.098,0.195 0.148,0.289 -0.004,0.02 0.004,0.043 0,0.055 -0.012,-0.016 -0.031,-0.039 -0.031,-0.055 -0.043,-0.098 -0.07,-0.191 -0.117,-0.289 m 0,0" />
  <path
     style="opacity:0.1;fill:#000000;fill-opacity:1;fill-rule:nonzero;stroke:none"
     inkscape:connector-curvature="0"
     id="path53-1"
     d="m 20.773,17.465 1.723,1.805 c 0.242,-0.16 0.535,-0.293 0.652,-0.852 0.023,-0.039 0.055,-0.063 0.109,-0.07 0.207,-0.41 0,-0.551 -0.254,-0.746 -0.73,0.012 -1.258,-0.023 -2.23,-0.137 m 0,0" />
  <path
     style="opacity:0.1;fill:#000000;fill-opacity:1;fill-rule:nonzero;stroke:none"
     inkscape:connector-curvature="0"
     id="path55-3"
     d="m 19.703,21.363 c -0.215,-0.504 -0.605,-1.195 -1.082,-1.574 l 2.969,-1.477 0.918,0.945 c -1.047,0.637 -1.992,1.281 -2.805,2.105 m 0,0" />
  <path
     style="opacity:0.1;fill:#000000;fill-opacity:1;fill-rule:nonzero;stroke:none"
     inkscape:connector-curvature="0"
     id="path57"
     d="m 18.02,15.258 c -0.531,1.66 -0.199,3.156 0.594,4.531 l 2.977,-1.477 C 21.196,17.886 20.786,17.468 20.786,17.468 20.481,17.386 20.091,17.136 19.614,16.695 L 18.395,15.539 M 18.02,15.258" />
  <path
     style="fill:#f9f9f9;fill-opacity:1;fill-rule:nonzero;stroke:none"
     d="m 17.46875,1.9374997 c -1.181578,0.3491295 -2.312294,0.8182948 -3.40625,1.34375 l 0.34375,0.90625 0.15625,0.59375 -0.625,0.34375 -0.25,0.46875 0.1875,1.0625 0.75,0.125 0.71875,-0.6875 0.625,-0.65625 0.96875,-0.25 1.21875,-0.59375 0.71875,-0.875 1.03125,-1.25 0.71875,-0.1875 -0.03125,-0.28125 -1.125,0 z m 8.5,0.4375 c -0.055,0.023 -1.53125,0.03125 -1.53125,0.03125 l -0.375,0.09375 0.5,0.59375 0.53125,-0.5 0.34375,0.21875 0.5,-0.25 c 0,0 0.08625,-0.2105 0.03125,-0.1875 z m 5.625,0.46875 -0.46875,0.0625 -0.40625,0.25 -0.46875,0.34375 -0.28125,0.5 0.4375,0.4375 0.375,0.03125 0.15625,-0.25 -0.375,-0.3125 0.21875,-0.1875 0.03125,-0.15625 0.46875,-0.3125 c 0,0 0.60925,0.008 0.65625,0 0.047,-0.008 0.1875,-0.1875 0.1875,-0.1875 l -0.15625,-0.21875 z m 3.125,0.8125 -0.53125,0.3125 -0.53125,0.4375 0.0625,0.1875 -0.25,0.03125 -0.03125,-0.15625 -0.3125,-0.4375 -0.65625,-0.0625 c 0,0 0.15625,0.668 0.15625,0.75 0,0.082 -0.4375,0.03125 -0.4375,0.03125 l -0.75,0.03125 c 0,0 -1.08175,0.25 -1.21875,0.25 -0.129,0 -0.7615,0.26225 -0.8125,0.28125 l -0.03125,0 -1.21875,0.65625 -0.3125,-0.21875 -0.15625,-0.25 0.0625,-0.25 0.6875,0.03125 0.3125,-0.125 -0.625,-0.3125 -0.875,-0.3125 -0.875,-0.15625 -0.9375,0.1875 -0.96875,0.78125 -0.4375,0.4375 -0.65625,0.71875 -0.25,0.03125 -0.09375,0.34375 0.125,0.34375 c 0,0 0.13325,0.15625 0.15625,0.15625 0.023,0 0.25,-0.125 0.25,-0.125 0,0 0.02725,-0.11725 0.15625,-0.15625 0.129,-0.039 0.25,-0.0625 0.25,-0.0625 l 0.1875,0.375 0.21875,0.3125 0.09375,0.25 c 0,0 0.363,-0.223 0.375,-0.25 0.012,-0.027 0.03125,-0.40625 0.03125,-0.40625 l 0.28125,-0.1875 c 0,0 0.0735,-0.13325 0.0625,-0.15625 -0.012,-0.023 -0.1875,-0.21875 -0.1875,-0.21875 l -0.15625,-0.0625 0.0625,-0.3125 c 0,0 0.125,-0.05075 0.125,-0.09375 0,-0.043 0.1875,-0.1875 0.1875,-0.1875 l 0.21875,-0.28125 0.15625,-0.1875 0.21875,-0.15625 0.25,0.1875 0,0.125 -0.21875,0.25 -0.0625,0.25 0,0.34375 0.1875,0.15625 0.34375,-0.03125 0.3125,-0.0625 0.28125,0.15625 -0.0625,0.21875 c 0,0 -0.195,0.18775 -0.25,0.21875 -0.055,0.031 -0.414,-0.06325 -0.5,-0.03125 -0.086,0.031 -0.3125,0.3125 -0.3125,0.3125 0,0 -0.023,0.2495 0,0.3125 0.006,0.01725 0.003,0.055266 0,0.09375 l -0.03125,0.03125 -0.375,0.28125 -0.03125,0 -0.25,-0.09375 c 0,0 -0.15575,0.0075 -0.21875,0.0625 -0.063,0.055 -0.1205,0.102 -0.3125,0.125 -0.191,0.023 -0.56275,0 -0.59375,0 l -0.21875,0 0.03125,-0.21875 0.15625,-0.25 -0.28125,-0.21875 c 0,0 -0.1795,0.22725 -0.1875,0.28125 -0.008,0.055 0.125,0.28125 0.125,0.28125 0,0 -0.06275,0.17975 -0.09375,0.21875 -0.031,0.039 -0.3125,0.125 -0.3125,0.125 l -0.4375,-0.21875 c 0,0 -0.18025,-0.0395 -0.15625,0.0625 0.023,0.102 0.21875,0.19525 0.21875,0.28125 0,0.086 -0.125,0.28125 -0.125,0.28125 l -0.15625,0.1875 -0.25,0.25 -0.34375,0.09375 c 0,0 -0.2465,0.06975 -0.3125,0.09375 -0.063,0.023 -0.25,0.0625 -0.25,0.0625 l -0.25,0.03125 -0.15625,0.21875 0.28125,0.2187503 0.1875,0.3125 c 0,0 0.12925,0.21875 0.15625,0.21875 0.031,0 0.09375,0.21875 0.09375,0.21875 l -0.1875,0.25 -0.09375,0 -0.65625,0.125 -0.125,-0.28125 -0.4375,0.4375 -0.1875,0.71875 0,0.59375 0.75,0.40625 L 21.375,12.9375 21.96875,11.875 22.5,11.21875 23.46875,11.0625 23.6875,10.875 l 1.09375,1.28125 0.125,0.4375 0.3125,-0.15625 -0.09375,-0.375 0.1875,0 -0.125,-0.25 -1.0625,-1 0.09375,-0.1875 0.34375,-0.03125 0.75,0.75 0.375,0.4375 0,0.6875 0.1875,0.125 0.375,0.375 0.28125,-0.09375 -0.15625,-0.5625 0.09375,-0.34375 0.1875,-0.21875 0.4375,0.15625 0.15625,0.0625 -0.03125,-0.5 0.25,-0.46875 0.15625,-0.6875 0.5625,0.09375 0.09375,0.3125 0.21875,0.15625 0.25,-0.21875 -0.15625,-0.34375 0.65625,0 -0.21875,0.375 0.4375,0.375 0.375,0.1875 0.21875,0.4375 -0.5,0.125 -0.71875,-0.15625 -0.625,0 -0.59375,0.3125 -0.125,0.1875 -0.4375,0.09375 0.1875,0.46875 0.34375,0.40625 0.625,-0.21875 0.15625,0.28125 0.28125,-0.21875 0.375,0.0625 0.03125,0.40625 -0.125,0.78125 L 28.59375,14.1875 28.1875,14.125 28,14.59375 l -1.375,-0.25 -0.25,-0.3125 -0.3125,0.28125 -0.34375,0.46875 -0.875,-0.5 -0.875,-0.53125 0,-0.9375 -0.5625,0.03125 L 23.375,13.15625 22,13.09375 21.5625,13.5 l -0.84375,0.03125 -0.5625,0.5 L 19.8125,15 l -0.875,0.6875 -0.21875,0.28125 c 0.322512,0.219356 0.601491,0.391685 0.830267,0.455688 0.653,0.164 1.630233,0.372312 2.482233,0.169312 0.289,0.403 0.28875,0.3745 0.21875,0.6875 -0.066,-0.055 -0.176,-0.01525 -0.125,0.09375 -0.231,0.371 -0.3715,0.5235 -0.6875,0.9375 -0.848081,0.46794 -1.76917,1.075051 -2.875,2.046875 l 0.0625,0.171875 0.75,0.90625 0.4375,0.375 0.4375,0.09375 0.09375,-0.375 1.5625,0 0.40625,-0.1875 0.5,0.0625 0.15625,0.3125 L 23.5,21.75 23.84375,22 l 0,0.53125 -0.125,0.4375 -0.125,0.34375 0.3125,0.5625 0.40625,0.46875 0.1875,1.1875 0.03125,0.78125 -0.28125,0.65625 -0.03125,0.5 c 0.814538,-0.07513 1.622607,0.107376 2.40625,0.5 0.672,0.367 1.07425,0.867 1.53125,1.25 0.203,0.648 0.0315,0.87075 -0.6875,0.96875 -0.347,-0.164 -0.6915,-0.2035 -1.0625,0.0625 l -1.125,0.71875 L 25.5,31.25 l 0.0625,0.59375 0.09375,0.6875 L 26,32.1875 l 0.875,-0.09375 0.53125,0 0.96875,-1.5 L 28.4375,30 l 0.65625,-0.65625 0.03125,-0.75 0.34375,-0.75 0.8125,-0.78125 0,-0.875 -0.1875,-0.8125 -0.125,-1.125 L 30.5625,23.3125 31.625,22 l 0.40625,-0.40625 0.15625,-0.53125 0.25,-0.46875 0.0625,-0.6875 -0.59375,0 -0.28125,0.28125 -0.5625,-0.15625 -0.34375,-0.5625 -0.28125,-0.5625 -0.65625,-0.5 -0.15625,-0.8125 -0.28125,-0.46875 -0.3125,-0.59375 -0.40625,-0.75 -0.09375,-0.46875 0.4375,-0.0625 0.25,0.53125 0.5,0.9375 0.375,0.6875 0.40625,0.75 0.4375,0.75 0.59375,0.59375 0.53125,-0.5 0.59375,-0.15625 0.4375,-0.53125 0.59375,-0.34375 0.34375,-0.59375 0.03125,-0.5 -0.28125,-0.3125 -0.375,-0.46875 -0.25,0.15625 L 33,16.5 32.59375,16.3125 32.46875,16 32.1875,15.59375 31.75,15.1875 l 0,-0.8125 0.28125,0.53125 0.34375,0.53125 0.59375,0.34375 0.40625,-0.09375 0.25,0.28125 1.78125,-0.03125 -0.03125,0.03125 0.5625,0.5 0.40625,0.5625 0.125,0.28125 0.28125,0 0.09375,-0.3125 0.09375,0.46875 0.15625,0.84375 0.34375,0.8125 0.1875,0.6875 0.28125,0.65625 0.21875,0.28125 0.3125,-0.1875 0.09375,-0.3125 0.125,-0.78125 0,-0.6875 0.15625,-0.1875 c -0.102017,-0.488558 -0.206718,-0.985534 -0.34375,-1.5 0.419923,0.124044 0.795283,0.331752 1.125,0.59375 0.110048,-0.120265 0.25,-0.25 0.25,-0.25 L 40.125,17.09375 40.25,17 c -0.579399,-2.71797 -3.563914,-5.126499 -8.96875,-7.1875003 0.891,-0.336 1.883,-0.3865 3,-0.1875 -0.367,-0.785 -1.14075,-1.484 -2.34375,-2 -0.781,-0.343 -1.738,-0.5935 -2.875,-0.8125 2.584379,0.075506 4.83561,0.3615235 6.71875,0.90625 3.82,1.117 6.45725,3.7890003 7.40625,7.0000003 -0.01307,-0.840672 -0.04053,-2.374193 -0.34375,-3.875 C 42.83535,10.83177 42.82088,10.82447 42.8125,10.8125 40.725021,7.8326933 37.960388,5.3665734 34.71875,3.6562497 z m -23,0.90625 c -0.597873,0.3779196 -1.159819,0.7576713 -1.7187501,1.1875 l 0.09375,0.03125 0.53125,0.46875 0.53125,0.125 0.1875,-0.71875 0.03125,-0.4375 0.625,0.09375 c 0,0 -0.18775,0.3125 -0.09375,0.3125 0.094,0 0.46875,-0.40625 0.46875,-0.40625 z m 21.71875,0.0625 0,0.03125 -3.3125,0.53125 z m -14.8125,0.75 -0.125,0.40625 c 0.453,0.352 0.625,0.34375 0.625,0.34375 l 0.53125,-0.125 L 20,5.6562497 19.78125,5.3749997 z m -8.8750001,0.8125 c 0,0 -0.329209,0.1916339 -0.6875,0.34375 -0.151361,0.1295921 -0.320834,0.241582 -0.46875,0.375 -0.0095,0.075202 0,0.15625 0,0.15625 l -0.03125,0.84375 -0.6875,0.5625 -0.4375,0.65625 c 0,0 -0.28125,-0.1875 -0.28125,-0.3125 0,-0.1019231 -0.0463,-0.3183297 -0.0625,-0.40625 -0.04502,0.048778 -0.08042,0.1068461 -0.125,0.15625 0.278509,1.8376023 0.322809,2.7452303 0.90625,3.3125003 l 0.09375,-0.0625 0.625,-0.6875 c 0,0 0.934,-0.156 1.125,-0.25 0.191,-0.094 0.066,-0.438 -0.125,-0.75 -0.191,-0.3130003 0.09375,-0.6250003 0.09375,-0.6250003 l 0.7187501,-0.4375 0.625,0.125 0.0625,0.75 c 0,0 0.59025,0.5627503 0.78125,0.4687503 0.191,-0.094 0.28125,-0.4062503 0.28125,-0.4062503 l -0.3125,-0.8125 0.1875,-0.8125 -0.84375,0.125 0,-1.375 -0.25,0.25 -0.65625,0.03125 -0.09375,-0.6875 z m -2.78125,2.375 c -0.365589,0.4051906 -0.725722,0.8214484 -1.0625,1.25 l 0.03125,0.03125 c 0.339383,-0.432016 0.662556,-0.874759 1.03125,-1.28125 z m 14.4375001,-1.40625 -0.25,0.21875 c -0.07,0.305 -0.15625,0.625 -0.15625,0.625 l 0.46875,0.21875 0.0625,0.28125 -0.25,0.25 -0.21875,0.375 0.15625,0.15625 0.5625,-0.09375 0.5,-0.21875 -0.28125,-0.375 -0.09375,-0.65625 -0.34375,-0.375 z m -0.78125,1.1875 -0.28125,0.46875 0.375,0.15625 0.15625,-0.28125 z M 31.5625,10.1875 c 0.137,-0.043 0.375,0.15625 0.375,0.15625 l -0.25,0.21875 0.09375,0.3125 0.28125,0.75 0.28125,0.46875 0.375,0.625 -0.40625,0.1875 -0.53125,-0.34375 -0.21875,-0.65625 c 0,0 -0.2975,-0.40175 -0.4375,-0.46875 -0.137,-0.066 -0.25,-0.28125 -0.25,-0.28125 L 31,10.625 c 0,0 0.4225,-0.36325 0.5625,-0.40625 z m -26.5625001,0.875 c -0.181373,0.26623 -0.360585,0.536729 -0.53125,0.8125 0.161262,-0.258254 0.360183,-0.498706 0.53125,-0.75 z m 18.6562501,0.34375 -0.375,0.71875 0.28125,0.28125 0.25,-0.21875 0.03125,-0.3125 z m -1.25,0.75 0,0.1875 0.15625,-0.03125 z M 24.5625,12.625 24.375,12.6875 24.6875,13.21875 24.96875,13 z m 14.40625,7.8125 -0.3125,0.40625 0.15625,0.59375 0.34375,-0.375 -0.0625,-0.46875 z M 31.9375,26.5 l 0,0.4375 c -0.02,0.063 -0.375,0.375 -0.375,0.375 l -0.5,0.21875 -0.34375,0.28125 0.25,0.34375 0.15625,0.15625 -0.40625,0.34375 0,0.5625 0.15625,0.59375 0.34375,0.09375 0.40625,-0.625 0.25,-0.40625 -0.0625,-0.5 0.375,-0.59375 0.125,-0.28125 0,-0.5625 L 32.21875,26.5 z"
     id="path65-1"
     inkscape:connector-curvature="0"
     sodipodi:nodetypes="ccccccccccccccccccsccccccsccccccccccccscccccccccccsccsccccccccccccccccccscsccccsccccccsccccccccccccccsccccccccscsccccccscccsccccccccccsccccccccccccccccccccccccccccccccccccccccccccccccccccccccccccccccccccccccccccccccccccccccccccccccccccccccccccccccccccccccccccccccccccccccccccccccccccccccccccccccccccccccccccccccccccccccccccccccccccccccccccccccccsccccccccccccccccccccscccccscccccsccccccccccccccccccccccccccccccccccccccccccccccccccccccccccccccccccccccccccccccccccccccccccc" />
  <path
     style="fill:#95c8d6;fill-opacity:1;fill-rule:nonzero;stroke:none"
     d="m 29.0625,6.8124997 c 1.137,0.219 2.094,0.4695 2.875,0.8125 1.203,0.516 1.97675,1.215 2.34375,2 -1.117,-0.199 -2.109,-0.1485 -3,0.1875 6.383,2.4340003 9.4145,5.3435003 9.0625,8.6875003 -0.465,-0.699 -1.093,-1.17525 -1.875,-1.40625 0.977,3.668 1.06225,6.6745 0.28125,9.0625 -0.543,-1.594 -1.063,-2.50775 -1.5,-2.84375 0.613,4.918 -0.211,8.53925 -2.5,10.90625 0.441,-1.445 0.598,-2.6285 0.5,-3.5625 -2.691,3.891 -5.7535,5.90425 -9.1875,6.03125 -1.352,-0.016 -2.64075,-0.21575 -3.84375,-0.59375 -1.77,-0.57 -3.35925,-1.5505 -4.78125,-2.9375 2.219,0.176 4.24325,-0.1915 6.03125,-1.0625 L 26.40625,30.25 c 0.371,-0.266 0.7155,-0.2265 1.0625,-0.0625 0.719,-0.098 0.8905,-0.32075 0.6875,-0.96875 -0.457,-0.383 -0.85925,-0.883 -1.53125,-1.25 -1.465,-0.734 -2.9765,-0.77725 -4.5625,0.34375 -1.52,0.828 -2.98525,0.78525 -4.40625,-0.09375 -0.934,-0.617 -1.8205,-1.461 -2.6875,-2.5 l -0.3125,-0.46875 0,-0.03125 c 0.043,-1.027 0.43725,-1.5625 1.28125,-1.6875 0.957,0.082 2.05125,0.281 3.28125,0.625 0.207,-1.141 -0.0625,-2.3355 -0.8125,-3.5625 l 0.03125,-0.125 c 0.07538,-0.06726 0.395017,-0.357916 0.46875,-0.421875 -0.215,-0.504 -0.608938,-0.956937 -1.085938,-1.335937 C 17.027309,17.335938 16.37525,16.035 16.90625,14.375 l 0.3125,0.28125 -0.3125,-0.3125 -0.34375,-0.4375 0.03125,-0.15625 c 0.145,-0.988 0.63325,-1.77725 1.03125,-2.53125 0.434,-0.691 1.269,-1.4540003 2.5,-2.2500003 -2.281,0.273 -4.3515,1.2697503 -6.1875,2.9687503 -1.52,-0.535 -3.33225,-0.42225 -5.4062501,0.34375 -1.223036,-0.556012 -1.204261,-1.355089 -1.5625,-3.7187503 C 3.2659049,12.644946 1,18.053989 1,24 1,36.703 11.297,47 24,47 36.703,47 47,36.703 47,24 c 0,-4.929923 -1.546986,-9.506083 -4.1875,-13.25 0.321247,1.531046 0.361655,3.110204 0.375,3.96875 -0.949,-3.211 -3.58625,-5.8830003 -7.40625,-7.0000003 -1.88314,-0.5447265 -4.134371,-0.8307441 -6.71875,-0.90625 z"
     id="path67-6"
     inkscape:connector-curvature="0"
     sodipodi:nodetypes="cccccccccccccccccccccccccccccccccccccccssscccc" />
  <path
     style="fill:#ec7f43;fill-opacity:1;fill-rule:nonzero;stroke:none"
     inkscape:connector-curvature="0"
     id="path69-9"
     d="m 41.04,15.418 c 0.055,0.098 0.098,0.195 0.148,0.289 -0.004,0.02 0.004,0.043 0,0.055 -0.012,-0.016 -0.031,-0.039 -0.031,-0.055 -0.043,-0.098 -0.07,-0.191 -0.117,-0.289 m 0,0" />
  <path
     style="fill:#fbf4ce;fill-opacity:1;fill-rule:nonzero;stroke:none"
     inkscape:connector-curvature="0"
     id="path71-7"
     d="m 26.598,30.16 c 0.328,-0.184 0.746,-0.082 1.059,0 0.309,-0.027 0.91,-0.195 0.672,-0.973 -0.398,-0.469 -1,-1.027 -2.188,-1.438 m 0.457,2.41" />
  <path
     style="fill:#2d2d2d;fill-opacity:1;fill-rule:nonzero;stroke:none"
     inkscape:connector-curvature="0"
     id="path73-3"
     d="m 19.773,16.465 1.723,1.805 c 0.242,-0.16 0.535,-0.293 0.652,-0.852 0.023,-0.039 0.055,-0.063 0.109,-0.07 0.207,-0.41 -0.179773,-0.784705 -0.254,-0.746 -0.73,0.012 -1.258,-0.023 -2.23,-0.137"
     sodipodi:nodetypes="cccccc" />
  <path
     style="fill:#fbf4ce;fill-opacity:1;fill-rule:nonzero;stroke:none"
     inkscape:connector-curvature="0"
     id="path75"
     d="M 18.660031,20.296594 C 18.445031,19.792594 18.098,19.168 17.621,18.789 l 2.969,-1.477 0.910187,0.960625 c -1.047,0.637 -1.988094,1.261469 -2.844062,2.007344"
     sodipodi:nodetypes="ccccc" />
  <path
     style="fill:#53abcd;fill-opacity:1;fill-rule:nonzero;stroke:none"
     inkscape:connector-curvature="0"
     id="path77-5"
     d="M 16.883281,14.320499 C 16.352281,15.9805 16.821001,17.414 17.614,18.789 l 2.977,-1.477 c -0.395,-0.426 -0.805,-0.844 -0.805,-0.844 -0.305,-0.082 -0.695,-0.332 -1.172,-0.773 l -1.328375,-1.007562"
     sodipodi:nodetypes="cccccc" />
  <path
     style="opacity:0.1"
     inkscape:connector-curvature="0"
     id="path81"
     d="M 40.03,7.5309997 C 43.742,11.615 45.999,17.045 45.999,23 c 0,12.703 -10.297,23 -23,23 C 17.045,46 11.615,43.744 7.5299999,40.031 11.708,44.322 17.54,47 23.999,47 c 12.703,0 23,-10.298 23,-23 0,-6.462 -2.677,-12.291 -6.969,-16.4690003 z" />
</svg>
