<svg xmlns="http://www.w3.org/2000/svg" viewBox="0 0 48 48">
 <defs>
  <linearGradient id="linearGradient3996" gradientUnits="userSpaceOnUse" gradientTransform="matrix(0,-1,1,0,-1.5e-6,47.999998)" x1="1" x2="47">
   <stop style="stop-color:#60c3e0;stop-opacity:1"/>
   <stop offset="1" style="stop-color:#71cae3;stop-opacity:1"/>
  </linearGradient>
 </defs>
 <path d="m 36.31 5 c 5.859 4.062 9.688 10.831 9.688 18.5 0 12.426 -10.07 22.5 -22.5 22.5 -7.669 0 -14.438 -3.828 -18.5 -9.688 1.037 1.822 2.306 3.499 3.781 4.969 4.085 3.712 9.514 5.969 15.469 5.969 c 12.703 0 23 -10.298 23 -23 0 -5.954 -2.256 -11.384 -5.969 -15.469 -1.469 -1.475 -3.147 -2.744 -4.969 -3.781 z m 4.969 3.781 c 3.854 4.113 6.219 9.637 6.219 15.719 c 0 12.703 -10.297 23 -23 23 c -6.081 0 -11.606 -2.364 -15.719 -6.219 4.16 4.144 9.883 6.719 16.219 6.719 c 12.703 0 23 -10.298 23 -23 0 -6.335 -2.575 -12.06 -6.719 -16.219 z" style="opacity:0.05"/>
 <path d="m 41.28 8.781 c 3.712 4.085 5.969 9.514 5.969 15.469 c 0 12.703 -10.297 23 -23 23 -5.954 0 -11.384 -2.256 -15.469 -5.969 c 4.113 3.854 9.637 6.219 15.719 6.219 c 12.703 0 23 -10.298 23 -23 0 -6.081 -2.364 -11.606 -6.219 -15.719 z" style="opacity:0.1"/>
 <path d="m 31.25 2.375 c 8.615 3.154 14.75 11.417 14.75 21.13 c 0 12.426 -10.07 22.5 -22.5 22.5 -9.708 0 -17.971 -6.135 -21.12 -14.75 a 23 23 0 0 0 44.875 -7 23 23 0 0 0 -16 -21.875 z" style="opacity:0.2"/>
 <path d="m 24 1 c -6.757 0 -12.823 2.923 -17.03 7.562 0.088 0.579 0.152 1.058 0.219 1.469 -3.155 3.792 -5.063 8.65 -5.063 13.969 c 0 12.09 9.79 21.875 21.875 21.875 12.09 0 21.875 -9.79 21.875 -21.875 0 -3.857 -0.998 -7.478 -2.75 -10.625 c -0.046 -0.788 -0.12 -1.667 -0.313 -2.594 -4.162 -5.915 -11.03 -9.781 -18.813 -9.781 z m -18.344 9.156 c -0.426 0.563 -0.814 1.117 -1.188 1.719 0.367 -0.587 0.771 -1.169 1.188 -1.719 z m -1.313 1.906 c -0.276 0.454 -0.536 0.932 -0.781 1.406 0.247 -0.476 0.503 -0.95 0.781 -1.406 z m -1.938 4.03 c -0.181 0.493 -0.353 0.992 -0.5 1.5 0.148 -0.508 0.319 -1.01 0.5 -1.5 z" style="fill:url(#linearGradient3996);fill-opacity:1"/>
 <path d="m 19.5 2.969 -0.625 0.75 -0.719 0.875 -1.219 0.594 -0.969 0.25 -0.625 0.656 -0.625 0.594 0.156 0.969 0.75 0.125 0.719 -0.688 0.625 -0.656 0.969 -0.25 0.688 -0.344 c -0.047 -0.033 -0.069 -0.019 -0.125 -0.063 l 0.125 -0.406 0.719 0 0.531 -0.656 1.031 -1.25 0.719 -0.188 -0.031 -0.281 -1.125 0 l -0.969 -0.031 z m 7.469 0.406 c -0.055 0.023 -1.531 0.031 -1.531 0.031 l -0.375 0.094 0.5 0.594 0.531 -0.5 0.344 0.219 0.5 -0.25 c 0 0 0.086 -0.211 0.031 -0.188 z m -13.156 0.25 0.063 0.5 0.5 0 -0.188 -0.5 -0.375 0 z m 18.781 0.219 -0.469 0.063 -0.406 0.25 -0.469 0.344 -0.219 0.375 c 0.167 -0.037 0.406 -0.094 0.406 -0.094 l 0.281 0 0.063 -0.063 0.031 -0.156 0.469 -0.313 c 0 0 0.138 -0.001 0.25 0 -0.028 -0.122 -0.063 -0.281 -0.063 -0.281 l 0.625 0.063 -0.125 -0.188 -0.375 0 z m -21.22 1.375 -0.031 0.281 0.063 0 0.25 0.469 -0.5 0.531 -0.563 0.063 0.5 0.219 0.531 0.469 0.531 0.125 0.188 -0.719 0.031 -0.438 0.625 0.094 c 0 0 -0.188 0.313 -0.094 0.313 0.094 0 0.469 -0.406 0.469 -0.406 l -1 -1 c 0 0 -0.375 0.406 -0.469 0.406 -0.094 0 0.094 -0.313 0.094 -0.313 l -0.625 -0.094 z m 16.344 0.219 -0.031 0.063 0.156 0.25 0.313 0.219 0.531 -0.281 -0.438 -0.156 -0.531 -0.094 z m -17.875 0.5 c -0.099 0.078 -0.214 0.139 -0.312 0.219 -0.144 0.127 -0.291 0.25 -0.438 0.375 0.343 -0.149 0.656 -0.344 0.656 -0.344 l 0.219 0.25 c 0.044 -0.068 0.125 -0.188 0.125 -0.188 l 0.219 -0.281 -0.031 -0.031 -0.188 0.219 -0.25 -0.219 z m 16.03 0.094 -0.406 0.313 -0.438 0.406 c 0 0 -0.002 0.029 0 0.031 0.024 0.027 0.176 0.166 0.188 0.188 0.011 0.023 -0.063 0.156 -0.063 0.156 l -0.281 0.188 c 0 0 -0.019 0.379 -0.031 0.406 -0.012 0.027 -0.375 0.25 -0.375 0.25 l -0.094 -0.25 -0.156 -0.188 -0.094 0 -0.094 0.344 0.125 0.344 c 0 0 0.133 0.156 0.156 0.156 0.023 0 0.25 -0.125 0.25 -0.125 0 0 0.027 -0.117 0.156 -0.156 0.129 -0.039 0.25 -0.063 0.25 -0.063 l 0.063 0.156 0.031 0 c 0.025 -0.003 0.063 0 0.063 0 l 0.25 0.094 0.031 0 0.375 -0.281 0.031 -0.031 c 0.003 -0.038 0.006 -0.077 0 -0.094 -0.023 -0.063 0 -0.313 0 -0.313 0 0 0.058 -0.082 0.125 -0.156 l 0 -0.031 c 0 0 0.031 -0.013 0.063 -0.031 0.031 -0.018 0.063 -0.041 0.063 -0.063 0 -0.011 0.045 -0.012 0.063 -0.031 0.053 -0.059 0.125 -0.156 0.125 -0.156 l 0.219 -0.281 0.094 -0.094 -0.219 0.031 -0.344 0.031 -0.188 -0.156 0 -0.344 0.063 -0.25 z m -6.25 0.344 -0.125 0.406 c 0.453 0.352 0.625 0.344 0.625 0.344 l 0.531 -0.125 0.344 -0.344 -0.219 -0.281 -1.156 0 z m -8.875 0.813 c 0 0 -0.186 0.11 -0.406 0.219 l 0.563 -0.031 -0.156 -0.188 z m 0.438 0.531 0 0.781 0.75 -0.125 -0.656 0.031 -0.094 -0.688 z m 0.75 0.656 0.094 0 -0.188 0.813 0.313 0.813 c 0 0 -0.045 0.131 -0.125 0.25 l 0.063 0.688 c 0 0 0.59 0.563 0.781 0.469 c 0.191 -0.094 0.281 -0.406 0.281 -0.406 l -0.313 -0.813 0.188 -0.813 -0.844 0.125 0 -1.375 -0.25 0.25 z m 18.13 -0.563 c 1.137 0.219 2.094 0.47 2.875 0.813 1.203 0.516 1.977 1.215 2.344 2 -1.117 -0.199 -2.109 -0.149 -3 0.188 6.383 2.434 9.415 5.343 9.06 8.688 -0.277 -0.416 -0.606 -0.753 -1 -1 -0.268 -0.168 -0.559 -0.313 -0.875 -0.406 0.977 3.668 1.062 6.675 0.281 9.06 -0.543 -1.594 -1.063 -2.508 -1.5 -2.844 0.613 4.918 -0.211 8.539 -2.5 10.906 0.441 -1.445 0.598 -2.629 0.5 -3.563 -2.691 3.891 -5.753 5.904 -9.188 6.03 -1.352 -0.016 -2.641 -0.216 -3.844 -0.594 -1.77 -0.57 -3.359 -1.55 -4.781 -2.938 2.219 0.176 4.243 -0.191 6.03 -1.063 l 2.938 -1.844 c 0.226 -0.162 0.44 -0.208 0.656 -0.188 l -0.656 1.031 -0.531 0 -0.469 0.063 l 0.094 0.094 l 0.063 0.594 0.094 0.688 l 0.344 -0.344 l 0.875 -0.094 0.531 0 0.969 -1.5 l 0.063 -0.594 l 0.656 -0.656 0.031 -0.75 0.344 -0.75 0.594 -0.594 -0.094 -0.094 -0.25 -0.344 0.344 -0.281 0.219 -0.094 0 -0.25 -0.188 -0.813 -0.125 -1.125 l 0.594 -0.938 1.063 -1.313 l 0.406 -0.406 0.156 -0.531 0.25 -0.469 0.063 -0.688 -0.594 0 l -0.281 0.281 -0.438 -0.125 -0.156 0.531 -0.406 0.406 l -1.063 1.313 -0.594 0.938 0.125 1.125 0.188 0.813 0 0.875 -0.813 0.781 -0.344 0.75 -0.031 0.75 l -0.406 0.406 c -0.292 -0.277 -0.636 -0.548 -1.063 -0.781 -1.465 -0.734 -2.977 -0.777 -4.563 0.344 -1.52 0.828 -2.985 0.785 -4.406 -0.094 -0.934 -0.617 -1.82 -1.461 -2.688 -2.5 l -0.313 -0.469 0 -0.031 c 0.043 -1.027 0.437 -1.563 1.281 -1.688 0.957 0.082 2.051 0.281 3.281 0.625 0.207 -1.141 -0.063 -2.335 -0.813 -3.563 l 0.031 -0.125 c 1.16 -1.035 2.121 -1.671 3 -2.156 0.316 -0.414 0.456 -0.567 0.688 -0.938 -0.051 -0.109 0.059 -0.149 0.125 -0.094 0.07 -0.313 0.07 -0.285 -0.219 -0.688 c -0.852 0.203 -1.816 -0.055 -2.469 -0.219 -0.336 -0.094 -0.793 -0.301 -1.313 -0.781 l -1.344 -1.25 -0.344 -0.438 0.031 -0.156 c 0.145 -0.988 0.633 -1.777 1.031 -2.531 0.434 -0.691 1.269 -1.454 2.5 -2.25 c -2.281 0.273 -4.352 1.27 -6.188 2.969 c -1.52 -0.535 -3.332 -0.422 -5.406 0.344 -0.54 -0.245 -0.8 -0.556 -1 -1 0.801 -0.296 1.56 -0.492 2.281 -0.594 0 -0.152 -0.095 -0.36 -0.219 -0.563 -0.191 -0.313 0.094 -0.625 0.094 -0.625 l 0.625 -0.375 c -0.099 -0.083 -0.219 -0.188 -0.219 -0.188 l -0.063 -0.75 -0.625 -0.125 -0.719 0.438 c 0 0 -0.285 0.312 -0.094 0.625 0.191 0.312 0.316 0.656 0.125 0.75 -0.191 0.094 -1.125 0.25 -1.125 0.25 l -0.313 0.344 c -0.119 -0.564 -0.217 -1.245 -0.375 -2.25 -0.376 0.402 -0.723 0.829 -1.063 1.25 -0.23 0.285 -0.443 0.582 -0.656 0.875 -0.061 0.085 -0.128 0.164 -0.188 0.25 -0.33 0.477 -0.645 0.965 -0.938 1.469 -1.867 3.215 -2.938 6.949 -2.938 10.938 c 0 12.09 9.79 21.875 21.875 21.875 12.09 0 21.875 -9.79 21.875 -21.875 0 -2.988 -0.603 -5.844 -1.688 -8.438 0.001 0.04 -0.001 0.119 0 0.156 -0.094 -0.317 -0.218 -0.632 -0.344 -0.938 c -0.037 -0.08 -0.055 -0.17 -0.094 -0.25 -0.18 -0.403 -0.39 -0.778 -0.625 -1.156 -1.325 -2.131 -3.505 -3.826 -6.344 -4.656 -1.883 -0.545 -4.134 -0.831 -6.719 -0.906 z m 10.281 10.688 c 0.054 -0.512 0.011 -1.01 -0.094 -1.5 l -0.125 0.094 -0.281 0.344 c 0 0 -0.14 0.13 -0.25 0.25 0.284 0.226 0.535 0.489 0.75 0.813 z m -17.938 -10.344 -0.25 0.219 c -0.035 0.154 -0.063 0.194 -0.094 0.313 l 0.219 0.281 -0.188 0.094 0.375 0.156 0 0.063 0.094 -0.094 0.156 -0.188 c 0 0 0.057 -0.072 0.094 -0.156 l -0.25 -0.281 -0.156 -0.406 z m -15.281 0.375 c 0.019 0.099 0.031 0.211 0.031 0.281 0 0.125 0.281 0.313 0.281 0.313 l 0.156 -0.219 -0.219 -0.156 c 0 0 -0.13 -0.12 -0.25 -0.219 z m 14.5 0.813 -0.219 0.344 c 0 0 0.187 -0.04 0.25 -0.063 0.032 -0.012 0.088 -0.011 0.156 -0.031 l -0.188 -0.25 z m 20.594 0.656 c 0.198 0.264 0.407 0.514 0.594 0.781 -0.005 -0.007 0.005 -0.024 0 -0.031 -0.186 -0.264 -0.395 -0.5 -0.594 -0.75 z m -36.563 0.156 c -0.213 0.281 -0.428 0.56 -0.625 0.844 -0.013 0.019 -0.018 0.044 -0.031 0.063 l 0 0.031 c 0.217 -0.316 0.428 -0.636 0.656 -0.938 z m 25.906 0.031 0 0.031 c -0.14 0.043 -0.563 0.406 -0.563 0.406 l -0.125 0.531 c 0 0 0.113 0.215 0.25 0.281 0.14 0.067 0.438 0.469 0.438 0.469 l 0.219 0.656 0.531 0.344 0.188 -0.094 c -0.083 -0.108 -0.264 -0.322 -0.375 -0.375 -0.137 -0.066 -0.25 -0.281 -0.25 -0.281 l 0.125 -0.531 c 0 0 0.052 -0.022 0.063 -0.031 l -0.281 -0.719 -0.094 -0.313 l 0.25 -0.219 c 0 0 -0.238 -0.199 -0.375 -0.156 z m -3.938 0.125 -0.156 0.688 l -0.25 0.469 0.031 0.5 -0.156 -0.063 -0.438 -0.156 -0.188 0.219 -0.094 0.344 0.031 0.156 0.281 0.313 0 0.688 0.188 0.125 0.375 0.375 l 0.281 -0.094 -0.156 -0.563 0.094 -0.344 -0.219 -0.25 -0.188 -0.469 0.438 -0.094 l 0.125 -0.188 0.594 -0.313 0.344 0 0.063 -0.344 0.563 0.094 0.094 0.313 0.063 0.031 0.219 0.063 0.188 -0.156 -0.156 -0.344 0.281 0 -0.031 -0.063 -0.375 -0.188 -0.438 -0.375 0.219 -0.375 -0.656 0 l 0.156 0.344 -0.25 0.219 -0.219 -0.156 -0.094 -0.313 -0.563 -0.094 z m -3.063 0.281 -0.344 0.031 -0.094 0.188 1.031 0.969 0.063 -0.156 0.313 -0.031 -0.219 -0.25 -0.75 -0.75 z m -0.875 0.281 -0.219 0.188 -0.969 0.156 -0.094 0.125 0.063 0.125 c 0 0 0.129 0.219 0.156 0.219 0.031 0 0.094 0.219 0.094 0.219 l -0.188 0.25 -0.094 0 0.125 0.156 -0.156 0.031 0 -0.188 -0.625 0.125 l -0.031 -0.031 l -0.375 0.688 -0.313 0.125 -0.031 0.094 0 0.375 l 0.531 -0.031 0.438 -0.406 l 0.813 0.031 0.156 -0.25 0.469 -0.594 -0.156 -0.156 0.375 -0.719 0.188 0.469 -0.031 0.281 0.656 -0.094 0.125 -0.125 -0.906 -1.063 z m 1.563 1.063 0.063 0.125 -0.188 0 0.094 0.375 -0.031 0.031 0.594 0.688 0.125 0.438 0.313 -0.156 -0.094 -0.375 0.188 0 -0.063 -0.094 -0.375 -0.375 -0.188 -0.125 0 -0.125 l -0.438 -0.406 z m -0.594 0.469 -0.094 0.219 0.281 0.25 -0.188 -0.469 z m -0.219 0.406 -0.156 0.313 0.281 0.281 0.25 -0.219 0 -0.063 -0.125 0.094 -0.25 -0.406 z m 3.781 0.094 -0.063 0.031 0.094 0.031 -0.031 -0.063 z m 0.406 0.063 -0.031 0.063 -0.094 0.125 -0.125 0.031 -0.313 0.063 0.188 0.469 0.344 0.406 0.375 -0.125 0.094 -0.563 -0.031 -0.406 -0.375 -0.063 -0.031 0 z m -3.063 0.656 -0.188 0.063 0.313 0.531 0.281 -0.219 -0.406 -0.375 z m -0.594 0.188 -0.563 0.031 l -0.031 0.156 l 0.469 0.281 0.125 0.063 0 -0.531 z m 6.781 0.563 0 0.813 0.438 0.406 l 0.281 0.406 0.125 0.313 0.406 0.188 0.031 -0.063 -0.281 -0.25 0 -0.531 -0.375 -0.219 -0.344 -0.531 -0.281 -0.531 z m -2.688 1.063 -0.063 0.156 l -0.438 -0.063 0.063 0.25 0.406 0.75 0.313 0.594 0.281 0.469 0.156 0.813 0.656 0.5 0.281 0.563 0.344 0.563 0.5 0.156 -0.125 -0.281 -0.656 -0.5 -0.156 -0.813 -0.281 -0.469 -0.313 -0.594 -0.406 -0.75 -0.063 -0.375 -0.344 -0.625 -0.156 -0.344 z m 4.313 0.25 -0.406 0.094 0.063 0.125 0.188 0.313 0.188 -0.125 0.375 0.469 0.188 0.219 0.406 -0.094 0.25 0.281 1.656 -0.031 -0.344 -0.469 -0.563 -0.5 0.031 -0.031 -1.781 0.031 -0.25 -0.281 z m 3.469 1.313 -0.094 0.313 0.188 0.156 -0.094 -0.469 z m -2.438 0.094 -0.25 0.156 l -0.156 0.25 l -0.031 0 -0.281 0.469 -0.594 0.344 -0.438 0.531 l -0.594 0.156 l -0.438 0.406 0.313 0.5 0.563 0 -0.063 0.531 0.094 0.063 0.531 -0.5 0.594 -0.156 0.438 -0.531 0.594 -0.344 0.344 -0.594 0.031 -0.5 -0.281 -0.313 -0.375 -0.469 z m 4.406 1.469 -0.156 0.219 0 0.688 -0.125 0.781 -0.031 0.094 0.125 0.469 0.031 0.031 0.313 -0.406 0.125 0.156 0.063 0.469 l -0.281 0.313 0.031 0.094 0.219 0.281 0.125 -0.063 c -0.054 -0.978 -0.205 -2.02 -0.438 -3.125 z m -16.5 2.781 -0.406 0.188 -1.563 0 -0.094 0.375 -0.375 -0.094 0.5 0.625 0.438 0.375 0.438 0.094 0.094 -0.375 1.563 0 0.406 -0.188 0.5 0.063 0.031 0.063 0 -0.469 -0.344 -0.25 -0.531 -0.031 -0.156 -0.313 -0.5 -0.063 z m 10.625 6.156 0 0.438 c -0.02 0.063 -0.375 0.375 -0.375 0.375 l -0.5 0.219 -0.219 0.156 0.031 0.188 -0.063 0.094 0.156 0.188 0.156 0.156 -0.406 0.344 0 0.563 0.156 0.594 0.344 0.094 0.406 -0.625 0.25 -0.406 -0.063 -0.5 0.375 -0.594 0.125 -0.281 0 -0.563 -0.094 -0.438 -0.281 0 z" style="fill:#000;opacity:0.1;fill-opacity:1;stroke:none;fill-rule:nonzero"/>
 <path d="m 42.04 16.418 c 0.055 0.098 0.098 0.195 0.148 0.289 -0.004 0.02 0.004 0.043 0 0.055 -0.012 -0.016 -0.031 -0.039 -0.031 -0.055 -0.043 -0.098 -0.07 -0.191 -0.117 -0.289 m 0 0" style="fill:#000;opacity:0.1;fill-opacity:1;stroke:none;fill-rule:nonzero"/>
 <path d="m 20.773 17.465 1.723 1.805 c 0.242 -0.16 0.535 -0.293 0.652 -0.852 0.023 -0.039 0.055 -0.063 0.109 -0.07 0.207 -0.41 0 -0.551 -0.254 -0.746 -0.73 0.012 -1.258 -0.023 -2.23 -0.137 m 0 0" style="fill:#000;opacity:0.1;fill-opacity:1;stroke:none;fill-rule:nonzero"/>
 <path d="m 19.703 21.363 c -0.215 -0.504 -0.605 -1.195 -1.082 -1.574 l 2.969 -1.477 0.918 0.945 c -1.047 0.637 -1.992 1.281 -2.805 2.105 m 0 0" style="fill:#000;opacity:0.1;fill-opacity:1;stroke:none;fill-rule:nonzero"/>
 <path d="m 18.02,15.258 c -0.531,1.66 -0.199,3.156 0.594,4.531 l 2.977,-1.477 C 21.196,17.886 20.786,17.468 20.786,17.468 20.481,17.386 20.091,17.136 19.614,16.695 L 18.395,15.539 M 18.02,15.258" style="fill:#000;opacity:0.1;fill-opacity:1;stroke:none;fill-rule:nonzero"/>
 <path d="m 17.469 1.937 c -1.182 0.349 -2.312 0.818 -3.406 1.344 l 0.344 0.906 0.156 0.594 -0.625 0.344 -0.25 0.469 0.188 1.063 0.75 0.125 0.719 -0.688 0.625 -0.656 0.969 -0.25 1.219 -0.594 0.719 -0.875 1.031 -1.25 0.719 -0.188 -0.031 -0.281 -1.125 0 z m 8.5 0.438 c -0.055 0.023 -1.531 0.031 -1.531 0.031 l -0.375 0.094 0.5 0.594 0.531 -0.5 0.344 0.219 0.5 -0.25 c 0 0 0.086 -0.211 0.031 -0.188 z m 5.625 0.469 -0.469 0.063 -0.406 0.25 -0.469 0.344 -0.281 0.5 0.438 0.438 0.375 0.031 0.156 -0.25 -0.375 -0.313 0.219 -0.188 0.031 -0.156 0.469 -0.313 c 0 0 0.609 0.008 0.656 0 0.047 -0.008 0.188 -0.188 0.188 -0.188 l -0.156 -0.219 z m 3.125 0.813 -0.531 0.313 -0.531 0.438 0.063 0.188 -0.25 0.031 -0.031 -0.156 -0.313 -0.438 -0.656 -0.063 c 0 0 0.156 0.668 0.156 0.75 0 0.082 -0.438 0.031 -0.438 0.031 l -0.75 0.031 c 0 0 -1.082 0.25 -1.219 0.25 -0.129 0 -0.762 0.262 -0.813 0.281 l -0.031 0 -1.219 0.656 -0.313 -0.219 -0.156 -0.25 0.063 -0.25 0.688 0.031 0.313 -0.125 -0.625 -0.313 -0.875 -0.313 -0.875 -0.156 -0.938 0.188 -0.969 0.781 -0.438 0.438 -0.656 0.719 -0.25 0.031 -0.094 0.344 0.125 0.344 c 0 0 0.133 0.156 0.156 0.156 0.023 0 0.25 -0.125 0.25 -0.125 0 0 0.027 -0.117 0.156 -0.156 0.129 -0.039 0.25 -0.063 0.25 -0.063 l 0.188 0.375 0.219 0.313 0.094 0.25 c 0 0 0.363 -0.223 0.375 -0.25 0.012 -0.027 0.031 -0.406 0.031 -0.406 l 0.281 -0.188 c 0 0 0.073 -0.133 0.063 -0.156 -0.012 -0.023 -0.188 -0.219 -0.188 -0.219 l -0.156 -0.063 0.063 -0.313 c 0 0 0.125 -0.051 0.125 -0.094 0 -0.043 0.188 -0.188 0.188 -0.188 l 0.219 -0.281 0.156 -0.188 0.219 -0.156 0.25 0.188 0 0.125 -0.219 0.25 -0.063 0.25 0 0.344 0.188 0.156 0.344 -0.031 0.313 -0.063 0.281 0.156 -0.063 0.219 c 0 0 -0.195 0.188 -0.25 0.219 -0.055 0.031 -0.414 -0.063 -0.5 -0.031 -0.086 0.031 -0.313 0.313 -0.313 0.313 0 0 -0.023 0.25 0 0.313 0.006 0.017 0.003 0.055 0 0.094 l -0.031 0.031 -0.375 0.281 -0.031 0 -0.25 -0.094 c 0 0 -0.156 0.008 -0.219 0.063 -0.063 0.055 -0.12 0.102 -0.313 0.125 -0.191 0.023 -0.563 0 -0.594 0 l -0.219 0 0.031 -0.219 0.156 -0.25 -0.281 -0.219 c 0 0 -0.18 0.227 -0.188 0.281 -0.008 0.055 0.125 0.281 0.125 0.281 0 0 -0.063 0.18 -0.094 0.219 -0.031 0.039 -0.313 0.125 -0.313 0.125 l -0.438 -0.219 c 0 0 -0.18 -0.04 -0.156 0.063 0.023 0.102 0.219 0.195 0.219 0.281 0 0.086 -0.125 0.281 -0.125 0.281 l -0.156 0.188 -0.25 0.25 -0.344 0.094 c 0 0 -0.247 0.07 -0.313 0.094 -0.063 0.023 -0.25 0.063 -0.25 0.063 l -0.25 0.031 -0.156 0.219 0.281 0.219 0.188 0.313 c 0 0 0.129 0.219 0.156 0.219 0.031 0 0.094 0.219 0.094 0.219 l -0.188 0.25 -0.094 0 -0.656 0.125 -0.125 -0.281 -0.438 0.438 -0.188 0.719 0 0.594 0.75 0.406 l 0.594 -0.219 0.594 -1.063 0.531 -0.656 0.969 -0.156 0.219 -0.188 l 1.094 1.281 0.125 0.438 0.313 -0.156 -0.094 -0.375 0.188 0 -0.125 -0.25 -1.063 -1 0.094 -0.188 0.344 -0.031 0.75 0.75 0.375 0.438 0 0.688 0.188 0.125 0.375 0.375 0.281 -0.094 -0.156 -0.563 0.094 -0.344 0.188 -0.219 0.438 0.156 0.156 0.063 -0.031 -0.5 0.25 -0.469 0.156 -0.688 0.563 0.094 0.094 0.313 0.219 0.156 0.25 -0.219 -0.156 -0.344 0.656 0 -0.219 0.375 0.438 0.375 0.375 0.188 0.219 0.438 -0.5 0.125 -0.719 -0.156 -0.625 0 -0.594 0.313 -0.125 0.188 -0.438 0.094 0.188 0.469 0.344 0.406 0.625 -0.219 0.156 0.281 0.281 -0.219 0.375 0.063 0.031 0.406 -0.125 0.781 l -0.344 -0.031 -0.406 -0.063 -0.188 0.469 l -1.375 -0.25 -0.25 -0.313 -0.313 0.281 -0.344 0.469 -0.875 -0.5 -0.875 -0.531 0 -0.938 -0.563 0.031 l -0.031 0.313 -1.375 -0.063 -0.438 0.406 l -0.844 0.031 -0.563 0.5 l -0.344 0.969 l -0.875 0.688 -0.219 0.281 c 0.323 0.219 0.601 0.392 0.83 0.456 0.653 0.164 1.63 0.372 2.482 0.169 0.289 0.403 0.289 0.375 0.219 0.688 -0.066 -0.055 -0.176 -0.015 -0.125 0.094 -0.231 0.371 -0.372 0.523 -0.688 0.938 -0.848 0.468 -1.769 1.075 -2.875 2.047 l 0.063 0.172 0.75 0.906 0.438 0.375 0.438 0.094 0.094 -0.375 1.563 0 0.406 -0.188 0.5 0.063 0.156 0.313 l 0.531 0.031 0.344 0.25 l 0 0.531 -0.125 0.438 -0.125 0.344 0.313 0.563 0.406 0.469 0.188 1.188 0.031 0.781 -0.281 0.656 -0.031 0.5 c 0.815 -0.075 1.623 0.107 2.406 0.5 0.672 0.367 1.074 0.867 1.531 1.25 0.203 0.648 0.032 0.871 -0.688 0.969 -0.347 -0.164 -0.692 -0.203 -1.063 0.063 l -1.125 0.719 l 0.219 0.281 l 0.063 0.594 0.094 0.688 l 0.344 -0.344 l 0.875 -0.094 0.531 0 0.969 -1.5 l 0.063 -0.594 l 0.656 -0.656 0.031 -0.75 0.344 -0.75 0.813 -0.781 0 -0.875 -0.188 -0.813 -0.125 -1.125 l 0.594 -0.938 1.063 -1.313 l 0.406 -0.406 0.156 -0.531 0.25 -0.469 0.063 -0.688 -0.594 0 -0.281 0.281 -0.563 -0.156 -0.344 -0.563 -0.281 -0.563 -0.656 -0.5 -0.156 -0.813 -0.281 -0.469 -0.313 -0.594 -0.406 -0.75 -0.094 -0.469 0.438 -0.063 0.25 0.531 0.5 0.938 0.375 0.688 0.406 0.75 0.438 0.75 0.594 0.594 0.531 -0.5 0.594 -0.156 0.438 -0.531 0.594 -0.344 0.344 -0.594 0.031 -0.5 -0.281 -0.313 -0.375 -0.469 -0.25 0.156 l -0.156 0.25 -0.406 -0.188 -0.125 -0.313 -0.281 -0.406 -0.438 -0.406 l 0 -0.813 0.281 0.531 0.344 0.531 0.594 0.344 0.406 -0.094 0.25 0.281 1.781 -0.031 -0.031 0.031 0.563 0.5 0.406 0.563 0.125 0.281 0.281 0 0.094 -0.313 0.094 0.469 0.156 0.844 0.344 0.813 0.188 0.688 0.281 0.656 0.219 0.281 0.313 -0.188 0.094 -0.313 0.125 -0.781 0 -0.688 0.156 -0.188 c -0.102 -0.489 -0.207 -0.986 -0.344 -1.5 0.42 0.124 0.795 0.332 1.125 0.594 0.11 -0.12 0.25 -0.25 0.25 -0.25 l 0.281 -0.344 0.125 -0.094 c -0.579 -2.718 -3.564 -5.126 -8.969 -7.188 0.891 -0.336 1.883 -0.386 3 -0.188 -0.367 -0.785 -1.141 -1.484 -2.344 -2 -0.781 -0.343 -1.738 -0.593 -2.875 -0.813 2.584 0.076 4.836 0.362 6.719 0.906 3.82 1.117 6.457 3.789 7.406 7 -0.013 -0.841 -0.041 -2.374 -0.344 -3.875 c -0.008 -0.012 -0.023 -0.019 -0.031 -0.031 -2.087 -2.98 -4.852 -5.446 -8.094 -7.156 z m -23 0.906 c -0.598 0.378 -1.16 0.758 -1.719 1.188 l 0.094 0.031 0.531 0.469 0.531 0.125 0.188 -0.719 0.031 -0.438 0.625 0.094 c 0 0 -0.188 0.313 -0.094 0.313 0.094 0 0.469 -0.406 0.469 -0.406 z m 21.719 0.063 0 0.031 -3.313 0.531 z m -14.813 0.75 -0.125 0.406 c 0.453 0.352 0.625 0.344 0.625 0.344 l 0.531 -0.125 l 0.344 -0.344 -0.219 -0.281 z m -8.875 0.813 c 0 0 -0.329 0.192 -0.688 0.344 -0.151 0.13 -0.321 0.242 -0.469 0.375 -0.009 0.075 0 0.156 0 0.156 l -0.031 0.844 -0.688 0.563 -0.438 0.656 c 0 0 -0.281 -0.188 -0.281 -0.313 0 -0.102 -0.046 -0.318 -0.063 -0.406 -0.045 0.049 -0.08 0.107 -0.125 0.156 c 0.279 1.838 0.323 2.745 0.906 3.313 l 0.094 -0.063 0.625 -0.688 c 0 0 0.934 -0.156 1.125 -0.25 0.191 -0.094 0.066 -0.438 -0.125 -0.75 -0.191 -0.313 0.094 -0.625 0.094 -0.625 l 0.719 -0.438 0.625 0.125 0.063 0.75 c 0 0 0.59 0.563 0.781 0.469 0.191 -0.094 0.281 -0.406 0.281 -0.406 l -0.313 -0.813 0.188 -0.813 -0.844 0.125 0 -1.375 -0.25 0.25 -0.656 0.031 -0.094 -0.688 z m -2.781 2.375 c -0.366 0.405 -0.726 0.821 -1.063 1.25 l 0.031 0.031 c 0.339 -0.432 0.663 -0.875 1.031 -1.281 z m 14.438 -1.406 -0.25 0.219 c -0.07 0.305 -0.156 0.625 -0.156 0.625 l 0.469 0.219 0.063 0.281 -0.25 0.25 -0.219 0.375 0.156 0.156 0.563 -0.094 0.5 -0.219 -0.281 -0.375 -0.094 -0.656 -0.344 -0.375 z m -0.781 1.188 -0.281 0.469 0.375 0.156 0.156 -0.281 z m 10.938 1.844 c 0.137 -0.043 0.375 0.156 0.375 0.156 l -0.25 0.219 0.094 0.313 0.281 0.75 0.281 0.469 0.375 0.625 -0.406 0.188 -0.531 -0.344 -0.219 -0.656 c 0 0 -0.297 -0.402 -0.438 -0.469 -0.137 -0.066 -0.25 -0.281 -0.25 -0.281 l 0.125 -0.531 c 0 0 0.422 -0.363 0.563 -0.406 z m -26.563 0.875 c -0.181 0.266 -0.361 0.537 -0.531 0.813 0.161 -0.258 0.36 -0.499 0.531 -0.75 z m 18.656 0.344 -0.375 0.719 0.281 0.281 0.25 -0.219 0.031 -0.313 z m -1.25 0.75 0 0.188 0.156 -0.031 z m 2.156 0.469 -0.188 0.063 0.313 0.531 0.281 -0.219 z m 14.406 7.813 -0.313 0.406 0.156 0.594 0.344 -0.375 -0.063 -0.469 z m -7.03 6.06 l 0 0.438 c -0.02 0.063 -0.375 0.375 -0.375 0.375 l -0.5 0.219 -0.344 0.281 0.25 0.344 0.156 0.156 -0.406 0.344 0 0.563 0.156 0.594 0.344 0.094 0.406 -0.625 0.25 -0.406 -0.063 -0.5 0.375 -0.594 0.125 -0.281 0 -0.563 l -0.094 -0.438 z" style="fill:#afdbec;fill-opacity:1;stroke:none;fill-rule:nonzero"/>
 <path d="m 29.06 6.812 c 1.137 0.219 2.094 0.47 2.875 0.813 1.203 0.516 1.977 1.215 2.344 2 -1.117 -0.199 -2.109 -0.149 -3 0.188 6.383 2.434 9.415 5.344 9.06 8.688 -0.465 -0.699 -1.093 -1.175 -1.875 -1.406 0.977 3.668 1.062 6.675 0.281 9.06 -0.543 -1.594 -1.063 -2.508 -1.5 -2.844 0.613 4.918 -0.211 8.539 -2.5 10.906 0.441 -1.445 0.598 -2.628 0.5 -3.563 -2.691 3.891 -5.753 5.904 -9.188 6.03 -1.352 -0.016 -2.641 -0.216 -3.844 -0.594 -1.77 -0.57 -3.359 -1.55 -4.781 -2.938 2.219 0.176 4.243 -0.191 6.03 -1.063 l 2.938 -1.844 c 0.371 -0.266 0.715 -0.227 1.063 -0.063 0.719 -0.098 0.89 -0.321 0.688 -0.969 -0.457 -0.383 -0.859 -0.883 -1.531 -1.25 -1.465 -0.734 -2.977 -0.777 -4.563 0.344 -1.52 0.828 -2.985 0.785 -4.406 -0.094 -0.934 -0.617 -1.82 -1.461 -2.688 -2.5 l -0.313 -0.469 0 -0.031 c 0.043 -1.027 0.437 -1.563 1.281 -1.688 0.957 0.082 2.051 0.281 3.281 0.625 0.207 -1.141 -0.063 -2.335 -0.813 -3.563 l 0.031 -0.125 c 0.075 -0.067 0.395 -0.358 0.469 -0.422 -0.215 -0.504 -0.609 -0.957 -1.086 -1.336 c -0.793 -1.375 -1.445 -2.676 -0.914 -4.336 l 0.313 0.281 -0.313 -0.313 -0.344 -0.438 0.031 -0.156 c 0.145 -0.988 0.633 -1.777 1.031 -2.531 0.434 -0.691 1.269 -1.454 2.5 -2.25 -2.281 0.273 -4.352 1.27 -6.188 2.969 -1.52 -0.535 -3.332 -0.422 -5.406 0.344 c -1.223 -0.556 -1.204 -1.355 -1.563 -3.719 -3.703 4.082 -5.969 9.491 -5.969 15.438 0 12.703 10.297 23 23 23 12.703 0 23 -10.297 23 -23 c 0 -4.93 -1.547 -9.506 -4.188 -13.25 0.321 1.531 0.362 3.11 0.375 3.969 -0.949 -3.211 -3.586 -5.883 -7.406 -7 -1.883 -0.545 -4.134 -0.831 -6.719 -0.906 z" style="fill:#5a5a5a;fill-opacity:1;stroke:none;fill-rule:nonzero"/>
 <path d="m 41.04 15.418 c 0.055 0.098 0.098 0.195 0.148 0.289 -0.004 0.02 0.004 0.043 0 0.055 -0.012 -0.016 -0.031 -0.039 -0.031 -0.055 -0.043 -0.098 -0.07 -0.191 -0.117 -0.289 m 0 0" style="fill:#ec7f43;fill-opacity:1;stroke:none;fill-rule:nonzero"/>
 <path d="m 26.598 30.16 c 0.328 -0.184 0.746 -0.082 1.059 0 0.309 -0.027 0.91 -0.195 0.672 -0.973 -0.398 -0.469 -1 -1.027 -2.188 -1.438 m 0.457 2.41" style="fill:#999;fill-opacity:1;stroke:none;fill-rule:nonzero"/>
 <path d="m 19.773 16.465 1.723 1.805 c 0.242 -0.16 0.535 -0.293 0.652 -0.852 0.023 -0.039 0.055 -0.063 0.109 -0.07 0.207 -0.41 -0.18 -0.785 -0.254 -0.746 -0.73 0.012 -1.258 -0.023 -2.23 -0.137" style="fill:#2d2d2d;fill-opacity:1;stroke:none;fill-rule:nonzero"/>
 <path d="m 18.66 20.297 c -0.215 -0.504 -0.562 -1.129 -1.039 -1.508 l 2.969 -1.477 0.91 0.961 c -1.047 0.637 -1.988 1.261 -2.844 2.01" style="fill:#999;fill-opacity:1;stroke:none;fill-rule:nonzero"/>
 <path d="m 16.883 14.32 c -0.531 1.66 -0.062 3.094 0.731 4.469 l 2.977 -1.477 c -0.395 -0.426 -0.805 -0.844 -0.805 -0.844 -0.305 -0.082 -0.695 -0.332 -1.172 -0.773 l -1.328 -1.01" style="fill:#d6d6d6;fill-opacity:1;stroke:none;fill-rule:nonzero"/>
 <path d="m 40.03 7.531 c 3.712 4.084 5.969 9.514 5.969 15.469 c 0 12.703 -10.297 23 -23 23 c -5.954 0 -11.384 -2.256 -15.469 -5.969 4.178 4.291 10.01 6.969 16.469 6.969 c 12.703 0 23 -10.298 23 -23 0 -6.462 -2.677 -12.291 -6.969 -16.469 z" style="opacity:0.1"/>
</svg>
