<?xml version="1.0" encoding="UTF-8" standalone="no"?>
<svg
   xmlns:dc="http://purl.org/dc/elements/1.1/"
   xmlns:cc="http://creativecommons.org/ns#"
   xmlns:rdf="http://www.w3.org/1999/02/22-rdf-syntax-ns#"
   xmlns:svg="http://www.w3.org/2000/svg"
   xmlns="http://www.w3.org/2000/svg"
   xmlns:xlink="http://www.w3.org/1999/xlink"
   xmlns:sodipodi="http://sodipodi.sourceforge.net/DTD/sodipodi-0.dtd"
   xmlns:inkscape="http://www.inkscape.org/namespaces/inkscape"
   width="48"
   viewBox="0 0 13.546667 13.546667"
   height="48"
   id="svg2"
   version="1.1"
   inkscape:version="0.48.4 r9939"
   sodipodi:docname="four-in-a-row.svg"
   inkscape:export-filename="/home/nathanel/GitHub/four-in-a-row.png"
   inkscape:export-xdpi="391.31"
   inkscape:export-ydpi="391.31">
  <metadata
     id="metadata22">
    <rdf:RDF>
      <cc:Work
         rdf:about="">
        <dc:format>image/svg+xml</dc:format>
        <dc:type
           rdf:resource="http://purl.org/dc/dcmitype/StillImage" />
        <dc:title></dc:title>
      </cc:Work>
    </rdf:RDF>
  </metadata>
  <sodipodi:namedview
     pagecolor="#ffffff"
     bordercolor="#666666"
     borderopacity="1"
     objecttolerance="10"
     gridtolerance="10"
     guidetolerance="10"
     inkscape:pageopacity="0"
     inkscape:pageshadow="2"
     inkscape:window-width="1600"
     inkscape:window-height="877"
     id="namedview20"
     showgrid="true"
     inkscape:zoom="14.791667"
     inkscape:cx="24"
     inkscape:cy="24"
     inkscape:window-x="0"
     inkscape:window-y="0"
     inkscape:window-maximized="1"
     inkscape:current-layer="svg2">
    <inkscape:grid
       type="xygrid"
       id="grid2999" />
  </sodipodi:namedview>
  <defs
     id="defs4">
    <linearGradient
       id="linearGradient4460">
      <stop
         offset="0"
         style="stop-color:#3f2e49;stop-opacity:1;"
         id="stop7" />
      <stop
         offset="1"
         style="stop-color:#994cc3;stop-opacity:1;"
         id="stop9" />
    </linearGradient>
    <linearGradient
       gradientTransform="matrix(1.10525,0,0,1.10525,-134.27874,-295.76183)"
       xlink:href="#linearGradient4460"
       id="linearGradient3004"
       y1="279.096"
       y2="268.33"
       gradientUnits="userSpaceOnUse"
       x2="0" />
    <linearGradient
       inkscape:collect="always"
       xlink:href="#linearGradient4460"
       id="linearGradient3774"
       gradientUnits="userSpaceOnUse"
       gradientTransform="matrix(1.10525,0,0,1.10525,-134.27874,-295.76183)"
       y1="279.096"
       x2="0"
       y2="268.33" />
  </defs>
  <rect
     id="rect14"
     style="opacity:0.5;fill:#ffffff;fill-rule:evenodd"
     height="12.982"
     rx="6.4910002"
     y="0.28200001"
     x="0.28200001"
     width="12.982" />
  <rect
     id="rect16"
     style="fill:url(#linearGradient3774);fill-rule:evenodd"
     height="11.853"
     rx="5.9260001"
     y="0.847"
     x="0.847"
     width="11.853" />
  <g
     id="g3019"
     transform="translate(-13.264445,-3.3866669)">
    <path
       transform="matrix(0.33866667,0,0,0.33866667,13.264611,4.0641667)"
       d="M 15,25.5 C 15,26.880712 13.880712,28 12.5,28 11.119288,28 10,26.880712 10,25.5 10,24.119288 11.119288,23 12.5,23 c 1.380712,0 2.5,1.119288 2.5,2.5 z"
       sodipodi:ry="2.5"
       sodipodi:rx="2.5"
       sodipodi:cy="25.5"
       sodipodi:cx="12.5"
       id="path3803"
       style="fill:#f9f9f9;fill-opacity:1;stroke:none"
       sodipodi:type="arc" />
    <path
       sodipodi:type="arc"
       style="fill:#f9f9f9;fill-opacity:1;stroke:none"
       id="path3811"
       sodipodi:cx="12.5"
       sodipodi:cy="25.5"
       sodipodi:rx="2.5"
       sodipodi:ry="2.5"
       d="M 15,25.5 C 15,26.880712 13.880712,28 12.5,28 11.119288,28 10,26.880712 10,25.5 10,24.119288 11.119288,23 12.5,23 c 1.380712,0 2.5,1.119288 2.5,2.5 z"
       transform="matrix(0.33866667,0,0,0.33866667,14.957945,4.0641667)" />
    <path
       transform="matrix(0.33866667,0,0,0.33866667,16.651278,4.0641667)"
       d="M 15,25.5 C 15,26.880712 13.880712,28 12.5,28 11.119288,28 10,26.880712 10,25.5 10,24.119288 11.119288,23 12.5,23 c 1.380712,0 2.5,1.119288 2.5,2.5 z"
       sodipodi:ry="2.5"
       sodipodi:rx="2.5"
       sodipodi:cy="25.5"
       sodipodi:cx="12.5"
       id="path3813"
       style="fill:#f9f9f9;fill-opacity:1;stroke:none"
       sodipodi:type="arc" />
    <path
       sodipodi:type="arc"
       style="fill:#f9f9f9;fill-opacity:1;stroke:none"
       id="path3815"
       sodipodi:cx="12.5"
       sodipodi:cy="25.5"
       sodipodi:rx="2.5"
       sodipodi:ry="2.5"
       d="M 15,25.5 C 15,26.880712 13.880712,28 12.5,28 11.119288,28 10,26.880712 10,25.5 10,24.119288 11.119288,23 12.5,23 c 1.380712,0 2.5,1.119288 2.5,2.5 z"
       transform="matrix(0.33866667,0,0,0.33866667,18.344611,4.0641667)" />
    <path
       sodipodi:type="arc"
       style="fill:#859900;fill-opacity:1;stroke:none"
       id="path3817"
       sodipodi:cx="12.5"
       sodipodi:cy="25.5"
       sodipodi:rx="2.5"
       sodipodi:ry="2.5"
       d="M 15,25.5 C 15,26.880712 13.880712,28 12.5,28 11.119288,28 10,26.880712 10,25.5 10,24.119288 11.119288,23 12.5,23 c 1.380712,0 2.5,1.119288 2.5,2.5 z"
       transform="matrix(0.33866667,0,0,0.33866667,13.264611,2.3708333)" />
    <path
       transform="matrix(0.33866667,0,0,0.33866667,14.957945,2.3708333)"
       d="M 15,25.5 C 15,26.880712 13.880712,28 12.5,28 11.119288,28 10,26.880712 10,25.5 10,24.119288 11.119288,23 12.5,23 c 1.380712,0 2.5,1.119288 2.5,2.5 z"
       sodipodi:ry="2.5"
       sodipodi:rx="2.5"
       sodipodi:cy="25.5"
       sodipodi:cx="12.5"
       id="path3819"
       style="fill:#f9f9f9;fill-opacity:1;stroke:none"
       sodipodi:type="arc" />
    <path
       sodipodi:type="arc"
       style="fill:#859900;fill-opacity:1;stroke:none"
       id="path3821"
       sodipodi:cx="12.5"
       sodipodi:cy="25.5"
       sodipodi:rx="2.5"
       sodipodi:ry="2.5"
       d="M 15,25.5 C 15,26.880712 13.880712,28 12.5,28 11.119288,28 10,26.880712 10,25.5 10,24.119288 11.119288,23 12.5,23 c 1.380712,0 2.5,1.119288 2.5,2.5 z"
       transform="matrix(0.33866667,0,0,0.33866667,16.651278,2.3708333)" />
    <path
       transform="matrix(0.33866667,0,0,0.33866667,18.344611,2.3708333)"
       d="M 15,25.5 C 15,26.880712 13.880712,28 12.5,28 11.119288,28 10,26.880712 10,25.5 10,24.119288 11.119288,23 12.5,23 c 1.380712,0 2.5,1.119288 2.5,2.5 z"
       sodipodi:ry="2.5"
       sodipodi:rx="2.5"
       sodipodi:cy="25.5"
       sodipodi:cx="12.5"
       id="path3823"
       style="fill:#859900;fill-opacity:1;stroke:none"
       sodipodi:type="arc" />
    <path
       transform="matrix(0.33866667,0,0,0.33866667,16.651278,0.6775)"
       d="M 15,25.5 C 15,26.880712 13.880712,28 12.5,28 11.119288,28 10,26.880712 10,25.5 10,24.119288 11.119288,23 12.5,23 c 1.380712,0 2.5,1.119288 2.5,2.5 z"
       sodipodi:ry="2.5"
       sodipodi:rx="2.5"
       sodipodi:cy="25.5"
       sodipodi:cx="12.5"
       id="path3829"
       style="fill:#f9f9f9;fill-opacity:1;stroke:none"
       sodipodi:type="arc" />
    <path
       sodipodi:type="arc"
       style="fill:#859900;fill-opacity:1;stroke:none"
       id="path3831"
       sodipodi:cx="12.5"
       sodipodi:cy="25.5"
       sodipodi:rx="2.5"
       sodipodi:ry="2.5"
       d="M 15,25.5 C 15,26.880712 13.880712,28 12.5,28 11.119288,28 10,26.880712 10,25.5 10,24.119288 11.119288,23 12.5,23 c 1.380712,0 2.5,1.119288 2.5,2.5 z"
       transform="matrix(0.33866667,0,0,0.33866667,18.344611,0.6775)" />
    <path
       transform="matrix(0.33866667,0,0,0.33866667,18.344611,-1.0158334)"
       d="M 15,25.5 C 15,26.880712 13.880712,28 12.5,28 11.119288,28 10,26.880712 10,25.5 10,24.119288 11.119288,23 12.5,23 c 1.380712,0 2.5,1.119288 2.5,2.5 z"
       sodipodi:ry="2.5"
       sodipodi:rx="2.5"
       sodipodi:cy="25.5"
       sodipodi:cx="12.5"
       id="path3839"
       style="fill:#f9f9f9;fill-opacity:1;stroke:none"
       sodipodi:type="arc" />
  </g>
</svg>
