<?xml version="1.0" encoding="UTF-8" standalone="no"?>
<svg
   xmlns:dc="http://purl.org/dc/elements/1.1/"
   xmlns:cc="http://creativecommons.org/ns#"
   xmlns:rdf="http://www.w3.org/1999/02/22-rdf-syntax-ns#"
   xmlns:svg="http://www.w3.org/2000/svg"
   xmlns="http://www.w3.org/2000/svg"
   xmlns:sodipodi="http://sodipodi.sourceforge.net/DTD/sodipodi-0.dtd"
   xmlns:inkscape="http://www.inkscape.org/namespaces/inkscape"
   viewBox="0 0 48 48"
   id="svg2"
   version="1.1"
   inkscape:version="0.91 r13725"
   sodipodi:docname="freedoom.svg">
  <metadata
     id="metadata61">
    <rdf:RDF>
      <cc:Work
         rdf:about="">
        <dc:format>image/svg+xml</dc:format>
        <dc:type
           rdf:resource="http://purl.org/dc/dcmitype/StillImage" />
      </cc:Work>
    </rdf:RDF>
  </metadata>
  <sodipodi:namedview
     pagecolor="#ffffff"
     bordercolor="#666666"
     borderopacity="1"
     objecttolerance="10"
     gridtolerance="10"
     guidetolerance="10"
     inkscape:pageopacity="0"
     inkscape:pageshadow="2"
     inkscape:window-width="1280"
     inkscape:window-height="998"
     id="namedview59"
     showgrid="false"
     inkscape:zoom="4.9166667"
     inkscape:cx="-10.706881"
     inkscape:cy="12.571444"
     inkscape:window-x="0"
     inkscape:window-y="0"
     inkscape:window-maximized="1"
     inkscape:current-layer="svg2">
    <inkscape:grid
       type="xygrid"
       id="grid4200" />
  </sodipodi:namedview>
  <defs
     id="defs4">
    <linearGradient
       id="linearGradient3764"
       x1="1"
       x2="47"
       gradientUnits="userSpaceOnUse"
       gradientTransform="matrix(0,-1,1,0,-1.5e-6,47.999998)">
      <stop
         stop-color="#33466d"
         stop-opacity="1"
         id="stop7" />
      <stop
         offset="1"
         stop-color="#3a4f7a"
         stop-opacity="1"
         id="stop9" />
    </linearGradient>
    <clipPath
       id="clipPath-849194681">
      <g
         transform="translate(0,-1004.3622)"
         id="g12">
        <path
           d="m -24 13 c 0 1.105 -0.672 2 -1.5 2 -0.828 0 -1.5 -0.895 -1.5 -2 0 -1.105 0.672 -2 1.5 -2 0.828 0 1.5 0.895 1.5 2 z"
           transform="matrix(15.333333,0,0,11.5,414.99999,878.8622)"
           fill="#1890d0"
           id="path14" />
      </g>
    </clipPath>
    <clipPath
       id="clipPath-861707707">
      <g
         transform="translate(0,-1004.3622)"
         id="g17">
        <path
           d="m -24 13 c 0 1.105 -0.672 2 -1.5 2 -0.828 0 -1.5 -0.895 -1.5 -2 0 -1.105 0.672 -2 1.5 -2 0.828 0 1.5 0.895 1.5 2 z"
           transform="matrix(15.333333,0,0,11.5,414.99999,878.8622)"
           fill="#1890d0"
           id="path19" />
      </g>
    </clipPath>
  </defs>
  <g
     id="g21">
    <path
       d="m 36.31 5 c 5.859 4.062 9.688 10.831 9.688 18.5 c 0 12.426 -10.07 22.5 -22.5 22.5 c -7.669 0 -14.438 -3.828 -18.5 -9.688 c 1.037 1.822 2.306 3.499 3.781 4.969 c 4.085 3.712 9.514 5.969 15.469 5.969 c 12.703 0 23 -10.298 23 -23 c 0 -5.954 -2.256 -11.384 -5.969 -15.469 c -1.469 -1.475 -3.147 -2.744 -4.969 -3.781 z m 4.969 3.781 c 3.854 4.113 6.219 9.637 6.219 15.719 c 0 12.703 -10.297 23 -23 23 c -6.081 0 -11.606 -2.364 -15.719 -6.219 c 4.16 4.144 9.883 6.719 16.219 6.719 c 12.703 0 23 -10.298 23 -23 c 0 -6.335 -2.575 -12.06 -6.719 -16.219 z"
       opacity="0.05"
       id="path23" />
    <path
       d="m 41.28 8.781 c 3.712 4.085 5.969 9.514 5.969 15.469 c 0 12.703 -10.297 23 -23 23 c -5.954 0 -11.384 -2.256 -15.469 -5.969 c 4.113 3.854 9.637 6.219 15.719 6.219 c 12.703 0 23 -10.298 23 -23 c 0 -6.081 -2.364 -11.606 -6.219 -15.719 z"
       opacity="0.1"
       id="path25" />
    <path
       d="m 31.25 2.375 c 8.615 3.154 14.75 11.417 14.75 21.13 c 0 12.426 -10.07 22.5 -22.5 22.5 c -9.708 0 -17.971 -6.135 -21.12 -14.75 a 23 23 0 0 0 44.875 -7 a 23 23 0 0 0 -16 -21.875 z"
       opacity="0.2"
       id="path27" />
  </g>
  <g
     id="g29"
     style="fill:#ffd692;fill-opacity:1">
    <path
       d="m 24 1 c 12.703 0 23 10.297 23 23 c 0 12.703 -10.297 23 -23 23 -12.703 0 -23 -10.297 -23 -23 0 -12.703 10.297 -23 23 -23 z"
       fill="url(#linearGradient3764)"
       fill-opacity="1"
       id="path31"
       style="fill:#ffd692;fill-opacity:1" />
  </g>
  <path
     style="fill:#000000;fill-opacity:1;fill-rule:evenodd;stroke:none;stroke-width:1px;stroke-linecap:butt;stroke-linejoin:miter;stroke-opacity:1;opacity:0.1"
     d="m 25,11.999891 -0.505859,2.021484 a 12,10 0 0 0 -3.660157,0.613282 c -0.06101,-0.402906 -0.143427,-0.681013 -0.257812,-0.667969 -0.124928,0.01425 -0.220933,0.372882 -0.300781,0.841797 A 12,10 0 0 0 17.470703,16.2245 l -0.722656,-0.824218 -0.07617,1.416015 A 12,10 0 0 0 13,23.999891 a 12,2.9999998 0 0 0 1.330078,1.365234 c -0.01658,0.691868 -0.05859,2.191407 -0.05859,2.191407 l -0.0059,0.191406 1.423828,1.667969 c -0.282858,1.983559 -0.550781,3.947265 -0.550781,3.947265 l -0.06055,0.445313 5.53125,1.375 0.07617,0.08789 0.119141,-0.04102 1.05664,0.263672 0.304688,-0.722657 1.285156,-0.435546 -0.320313,-0.947266 -0.447265,0.152344 1.068359,-2.539063 -0.921875,-0.388672 -1.412109,3.355469 -0.410157,0.138672 -0.18164,-0.212891 c 0.05788,0.03139 0.11659,0.07837 0.17387,0.105474 -0.620572,-1.962266 -1.068647,-4.843387 0.292969,-7.150391 A 12,2.9999998 0 0 0 25,26.999891 12,2.9999998 0 0 0 29.654297,26.765516 c 1.349211,2.199134 1.011522,4.928435 0.4375,6.900391 l -0.25,0.191406 -3.972656,-0.08789 -0.425782,-4.412109 -0.996093,0.0957 0.511718,5.294922 3.609375,0.08008 -3.49414,2.664063 0.605469,0.794921 4.490234,-3.423828 3.923828,0.08789 -0.898438,-8.765625 A 12,2.9999998 0 0 0 37,23.999891 12,10 0 0 0 32.294922,16.06825 c -0.08582,-1.018703 -0.210096,-1.961729 -0.480469,-2.611328 -0.216336,0.323241 -0.387661,1.113345 -0.544922,2.027344 a 12,10 0 0 0 -2.009765,-0.828125 l 0.01172,-0.982422 -0.660156,0.802734 A 12,10 0 0 0 25.503906,14.015516 L 25,11.999891 Z m -9.681641,13.767578 a 12,2.9999998 0 0 0 0.876953,0.265625 c -0.01902,0.118222 -0.03408,0.195832 -0.05469,0.328125 -0.07564,0.485512 -0.168828,1.136039 -0.257813,1.742188 l -0.607421,-0.710938 c 0.0059,-0.188865 0.02527,-0.958394 0.04297,-1.625 z m 1.851563,0.5 a 12,2.9999998 0 0 0 1.412109,0.265625 c -0.46507,2.126553 -0.282871,3.768637 0.210938,4.980469 l -2.048828,-2.400391 c 0.13451,-0.934412 0.272634,-1.877889 0.384765,-2.597656 0.0158,-0.101389 0.02621,-0.155284 0.04102,-0.248047 z m -0.613281,4.166016 2.9375,3.441406 -3.302735,-0.818359 c 0.03642,-0.265982 0.20824,-1.503512 0.365235,-2.623047 z m 15.402343,1.611328 0.01563,0.185547 -0.228515,0.173828 c 0.07381,-0.114341 0.145392,-0.233734 0.21289,-0.359375 z m 0.908204,0.761719 0.115234,1.121093 -1.541016,-0.0332 1.425782,-1.08789 z"
     id="path4269"
     inkscape:connector-curvature="0" />
  <g
     id="g33" />
  <g
     id="g55">
    <path
       d="m 40.03 7.531 c 3.712 4.084 5.969 9.514 5.969 15.469 0 12.703 -10.297 23 -23 23 c -5.954 0 -11.384 -2.256 -15.469 -5.969 4.178 4.291 10.01 6.969 16.469 6.969 c 12.703 0 23 -10.298 23 -23 0 -6.462 -2.677 -12.291 -6.969 -16.469 z"
       opacity="0.1"
       id="path57" />
  </g>
  <path
     style="fill:#777777;fill-rule:evenodd;stroke:none;stroke-width:1px;stroke-linecap:butt;stroke-linejoin:miter;stroke-opacity:1;fill-opacity:1"
     d="m 26.961864,14.262712 1.309323,-1.588983 -0.02542,2.224576 -1.258475,-0.559322 z"
     id="path4219"
     inkscape:connector-curvature="0" />
  <path
     style="fill:#777777;fill-rule:evenodd;stroke:none;stroke-width:1px;stroke-linecap:butt;stroke-linejoin:miter;stroke-opacity:1;fill-opacity:1"
     d="m 15.604289,17.097037 1.941547,-0.647183 -1.797729,-2.049411 z"
     id="path4221"
     inkscape:connector-curvature="0" />
  <path
     style="opacity:1;fill:#777777;fill-opacity:1;fill-rule:evenodd;stroke:none;stroke-width:1px;stroke-linecap:butt;stroke-linejoin:miter;stroke-opacity:1"
     d="m 20,33 c -0.803061,-2.5393 -1.330087,-6.620439 2,-9 l -4,0 c -1.796847,5.402517 0.263653,8.17839 2,9 z"
     id="path4225"
     inkscape:connector-curvature="0"
     sodipodi:nodetypes="cccc" />
  <path
     style="color:#000000;font-style:normal;font-variant:normal;font-weight:normal;font-stretch:normal;font-size:medium;line-height:normal;font-family:sans-serif;text-indent:0;text-align:start;text-decoration:none;text-decoration-line:none;text-decoration-style:solid;text-decoration-color:#000000;letter-spacing:normal;word-spacing:normal;text-transform:none;direction:ltr;block-progression:tb;writing-mode:lr-tb;baseline-shift:baseline;text-anchor:start;white-space:normal;clip-rule:nonzero;display:inline;overflow:visible;visibility:visible;opacity:1;isolation:auto;mix-blend-mode:normal;color-interpolation:sRGB;color-interpolation-filters:linearRGB;solid-color:#000000;solid-opacity:1;fill:#ae4848;fill-opacity:1;fill-rule:evenodd;stroke:none;stroke-width:1px;stroke-linecap:butt;stroke-linejoin:miter;stroke-miterlimit:4;stroke-dasharray:none;stroke-dashoffset:0;stroke-opacity:1;color-rendering:auto;image-rendering:auto;shape-rendering:auto;text-rendering:auto;enable-background:accumulate"
     d="m 13.341797,23.910156 c 0,0.204303 -0.07031,2.646485 -0.07031,2.646485 l -0.0059,0.191406 6.419922,7.523437 2.765625,-0.935546 -0.320313,-0.947266 -2.123047,0.71875 -5.732421,-6.714844 c 0.009,-0.288521 0.06641,-2.13826 0.06641,-2.482422 l -1,0 z"
     id="path4246"
     inkscape:connector-curvature="0" />
  <path
     style="color:#000000;font-style:normal;font-variant:normal;font-weight:normal;font-stretch:normal;font-size:medium;line-height:normal;font-family:sans-serif;text-indent:0;text-align:start;text-decoration:none;text-decoration-line:none;text-decoration-style:solid;text-decoration-color:#000000;letter-spacing:normal;word-spacing:normal;text-transform:none;direction:ltr;block-progression:tb;writing-mode:lr-tb;baseline-shift:baseline;text-anchor:start;white-space:normal;clip-rule:nonzero;display:inline;overflow:visible;visibility:visible;opacity:1;isolation:auto;mix-blend-mode:normal;color-interpolation:sRGB;color-interpolation-filters:linearRGB;solid-color:#000000;solid-opacity:1;fill:#bd5959;fill-opacity:1;fill-rule:evenodd;stroke:none;stroke-width:1px;stroke-linecap:butt;stroke-linejoin:miter;stroke-miterlimit:4;stroke-dasharray:none;stroke-dashoffset:0;stroke-opacity:1;color-rendering:auto;image-rendering:auto;shape-rendering:auto;text-rendering:auto;enable-background:accumulate"
     d="m 15.457031,23.769531 c -0.05944,0.104012 -0.05211,0.124636 -0.0625,0.16211 -0.01039,0.03747 -0.02007,0.07293 -0.0293,0.115234 -0.01846,0.0846 -0.0378,0.189304 -0.06055,0.316406 -0.04548,0.254205 -0.101397,0.595802 -0.164063,0.998047 -0.125331,0.804491 -0.279271,1.849726 -0.427734,2.886719 -0.296927,2.073985 -0.574219,4.115234 -0.574219,4.115234 l -0.06055,0.445313 6.783203,1.685547 1.890625,-4.492188 -0.921875,-0.388672 -1.558594,3.703125 -5.080078,-1.259765 c 0.05091,-0.371758 0.247371,-1.819582 0.511719,-3.666016 0.148162,-1.03489 0.301678,-2.078388 0.425781,-2.875 0.06205,-0.398306 0.117158,-0.734298 0.160156,-0.974609 0.0215,-0.120156 0.03907,-0.216693 0.05273,-0.279297 0.0068,-0.0313 0.01336,-0.05628 0.01563,-0.06445 0.0023,-0.0082 0.0192,-0.01992 -0.03125,0.06836 l -0.869141,-0.496094 z"
     id="path4244"
     inkscape:connector-curvature="0" />
  <path
     style="opacity:1;fill:#777777;fill-opacity:1;fill-rule:evenodd;stroke:none;stroke-width:1px;stroke-linecap:butt;stroke-linejoin:miter;stroke-opacity:1"
     d="m 29,33 c 0.803061,-2.5393 1.330087,-6.620439 -2,-9 l 4,0 c 1.796847,5.402517 -0.263653,8.17839 -2,9 z"
     id="path4225-0"
     inkscape:connector-curvature="0"
     sodipodi:nodetypes="cccc" />
  <path
     style="color:#000000;font-style:normal;font-variant:normal;font-weight:normal;font-stretch:normal;font-size:medium;line-height:normal;font-family:sans-serif;text-indent:0;text-align:start;text-decoration:none;text-decoration-line:none;text-decoration-style:solid;text-decoration-color:#000000;letter-spacing:normal;word-spacing:normal;text-transform:none;direction:ltr;block-progression:tb;writing-mode:lr-tb;baseline-shift:baseline;text-anchor:start;white-space:normal;clip-rule:nonzero;display:inline;overflow:visible;visibility:visible;opacity:1;isolation:auto;mix-blend-mode:normal;color-interpolation:sRGB;color-interpolation-filters:linearRGB;solid-color:#000000;solid-opacity:1;fill:#bd5959;fill-opacity:1;fill-rule:evenodd;stroke:none;stroke-width:1px;stroke-linecap:butt;stroke-linejoin:miter;stroke-miterlimit:4;stroke-dasharray:none;stroke-dashoffset:0;stroke-opacity:1;color-rendering:auto;image-rendering:auto;shape-rendering:auto;text-rendering:auto;enable-background:accumulate"
     d="m 32.066406,23.931641 -0.996094,0.101562 0.91211,8.894531 -7.113281,-0.158203 -0.425782,-4.412109 -0.996093,0.0957 0.511718,5.294922 9.134766,0.203125 -1.027344,-10.019531 z"
     id="path4242"
     inkscape:connector-curvature="0" />
  <path
     style="color:#000000;font-style:normal;font-variant:normal;font-weight:normal;font-stretch:normal;font-size:medium;line-height:normal;font-family:sans-serif;text-indent:0;text-align:start;text-decoration:none;text-decoration-line:none;text-decoration-style:solid;text-decoration-color:#000000;letter-spacing:normal;word-spacing:normal;text-transform:none;direction:ltr;block-progression:tb;writing-mode:lr-tb;baseline-shift:baseline;text-anchor:start;white-space:normal;clip-rule:nonzero;display:inline;overflow:visible;visibility:visible;opacity:1;isolation:auto;mix-blend-mode:normal;color-interpolation:sRGB;color-interpolation-filters:linearRGB;solid-color:#000000;solid-opacity:1;fill:#ae4848;fill-opacity:1;fill-rule:evenodd;stroke:none;stroke-width:1px;stroke-linecap:butt;stroke-linejoin:miter;stroke-miterlimit:4;stroke-dasharray:none;stroke-dashoffset:0;stroke-opacity:1;color-rendering:auto;image-rendering:auto;shape-rendering:auto;text-rendering:auto;enable-background:accumulate"
     d="m 31.347656,24.117188 -0.996094,0.08984 0.623047,7.023438 -6.90039,5.261719 0.605469,0.794921 7.339843,-5.595703 -0.671875,-7.574218 z"
     id="path4248"
     inkscape:connector-curvature="0" />
  <path
     style="opacity:1;fill:#9b653c;fill-opacity:1;fill-rule:nonzero;stroke:none;stroke-width:30.89999962;stroke-linejoin:round;stroke-miterlimit:4;stroke-dasharray:none;stroke-opacity:1"
     d="M 24 13 A 12 10 0 0 0 12 23 A 12 2.9999998 0 0 0 24 26 A 12 2.9999998 0 0 0 36 23 A 12 10 0 0 0 24 13 z "
     id="path4202" />
  <path
     style="fill:#777777;fill-opacity:1;fill-rule:evenodd;stroke:none;stroke-width:1px;stroke-linecap:butt;stroke-linejoin:miter;stroke-opacity:1"
     d="m 29.694915,18.050847 c 0.366357,-1.929646 0.63203,-4.866141 1.118644,-5.59322 0.604419,1.452179 0.521388,4.279258 0.762712,6.457627 z"
     id="path4215"
     inkscape:connector-curvature="0"
     sodipodi:nodetypes="cccc" />
  <path
     style="fill:#777777;fill-opacity:1;fill-rule:evenodd;stroke:none;stroke-width:1px;stroke-linecap:butt;stroke-linejoin:miter;stroke-opacity:1"
     d="m 19,17 1,0 c 0,0 0.01527,-4.083961 -0.423729,-4.033898 C 19.137272,13.016165 19,17 19,17 Z"
     id="path4217"
     inkscape:connector-curvature="0"
     sodipodi:nodetypes="cczc" />
  <path
     style="fill:#777777;fill-rule:evenodd;stroke:none;stroke-width:1px;stroke-linecap:butt;stroke-linejoin:miter;stroke-opacity:1;fill-opacity:1"
     d="m 23,15 1,-4 1,4 z"
     id="path4223"
     inkscape:connector-curvature="0" />
  <circle
     style="opacity:1;fill:#591407;fill-opacity:1;fill-rule:nonzero;stroke:none;stroke-width:30.89999962;stroke-linejoin:round;stroke-miterlimit:4;stroke-dasharray:none;stroke-opacity:1"
     id="path4252"
     cx="24"
     cy="22"
     r="3" />
  <circle
     style="opacity:1;fill:#ffff1c;fill-opacity:1;fill-rule:nonzero;stroke:none;stroke-width:30.89999962;stroke-linejoin:round;stroke-miterlimit:4;stroke-dasharray:none;stroke-opacity:1"
     id="path4254"
     cx="24"
     cy="22"
     r="2" />
  <circle
     style="opacity:1;fill:#353535;fill-opacity:1;fill-rule:nonzero;stroke:none;stroke-width:30.89999962;stroke-linejoin:round;stroke-miterlimit:4;stroke-dasharray:none;stroke-opacity:1"
     id="path4256"
     cx="24"
     cy="22"
     r="1" />
  <path
     style="opacity:1;fill:#6e4a2a;fill-opacity:1;fill-rule:evenodd;stroke:none;stroke-width:1px;stroke-linecap:butt;stroke-linejoin:miter;stroke-opacity:1"
     d="m 16.017766,22.762159 c 5.20453,-2.536301 10.394174,-3.673147 15.53238,0.02506 -2.616028,-2.381001 -6.706275,-3.823865 -7.364914,-7.450478 -1.468422,4.715005 -5.249489,5.299439 -8.167466,7.425422 z"
     id="path4250"
     inkscape:connector-curvature="0"
     sodipodi:nodetypes="cccc" />
</svg>
