<?xml version="1.0" encoding="UTF-8" standalone="no"?>
<svg
   xmlns:dc="http://purl.org/dc/elements/1.1/"
   xmlns:cc="http://creativecommons.org/ns#"
   xmlns:rdf="http://www.w3.org/1999/02/22-rdf-syntax-ns#"
   xmlns:svg="http://www.w3.org/2000/svg"
   xmlns="http://www.w3.org/2000/svg"
   xmlns:sodipodi="http://sodipodi.sourceforge.net/DTD/sodipodi-0.dtd"
   xmlns:inkscape="http://www.inkscape.org/namespaces/inkscape"
   viewBox="0 0 48 48"
   id="svg2"
   version="1.1"
   inkscape:version="0.91 r13725"
   sodipodi:docname="girl.svg">
  <metadata
     id="metadata49">
    <rdf:RDF>
      <cc:Work
         rdf:about="">
        <dc:format>image/svg+xml</dc:format>
        <dc:type
           rdf:resource="http://purl.org/dc/dcmitype/StillImage" />
      </cc:Work>
    </rdf:RDF>
  </metadata>
  <sodipodi:namedview
     pagecolor="#ffffff"
     bordercolor="#666666"
     borderopacity="1"
     objecttolerance="10"
     gridtolerance="10"
     guidetolerance="10"
     inkscape:pageopacity="0"
     inkscape:pageshadow="2"
     inkscape:window-width="1260"
     inkscape:window-height="962"
     id="namedview47"
     showgrid="true"
     inkscape:zoom="4"
     inkscape:cx="22.961929"
     inkscape:cy="-4.36252"
     inkscape:window-x="10"
     inkscape:window-y="52"
     inkscape:window-maximized="0"
     inkscape:current-layer="svg2"
     inkscape:object-nodes="true"
     inkscape:snap-smooth-nodes="true">
    <inkscape:grid
       type="xygrid"
       id="grid4201" />
  </sodipodi:namedview>
  <defs
     id="defs4" />
  <g
     id="g11">
    <path
       d="m 36.31 5 c 5.859 4.062 9.688 10.831 9.688 18.5 c 0 12.426 -10.07 22.5 -22.5 22.5 c -7.669 0 -14.438 -3.828 -18.5 -9.688 c 1.037 1.822 2.306 3.499 3.781 4.969 c 4.085 3.712 9.514 5.969 15.469 5.969 c 12.703 0 23 -10.298 23 -23 c 0 -5.954 -2.256 -11.384 -5.969 -15.469 c -1.469 -1.475 -3.147 -2.744 -4.969 -3.781 z m 4.969 3.781 c 3.854 4.113 6.219 9.637 6.219 15.719 c 0 12.703 -10.297 23 -23 23 c -6.081 0 -11.606 -2.364 -15.719 -6.219 c 4.16 4.144 9.883 6.719 16.219 6.719 c 12.703 0 23 -10.298 23 -23 c 0 -6.335 -2.575 -12.06 -6.719 -16.219 z"
       style="opacity:0.05"
       id="path13" />
    <path
       d="m 41.28 8.781 c 3.712 4.085 5.969 9.514 5.969 15.469 c 0 12.703 -10.297 23 -23 23 c -5.954 0 -11.384 -2.256 -15.469 -5.969 c 4.113 3.854 9.637 6.219 15.719 6.219 c 12.703 0 23 -10.298 23 -23 c 0 -6.081 -2.364 -11.606 -6.219 -15.719 z"
       style="opacity:0.1"
       id="path15" />
    <path
       d="m 31.25 2.375 c 8.615 3.154 14.75 11.417 14.75 21.13 c 0 12.426 -10.07 22.5 -22.5 22.5 c -9.708 0 -17.971 -6.135 -21.12 -14.75 a 23 23 0 0 0 44.875 -7 a 23 23 0 0 0 -16 -21.875 z"
       style="opacity:0.2"
       id="path17" />
  </g>
  <g
     id="g19"
     style="fill:#fcaf3e;fill-opacity:1"
     transform="matrix(0,-1,1,0,0,48)">
    <path
       d="M 24,1 C 36.703,1 47,11.297 47,24 47,36.703 36.703,47 24,47 11.297,47 1,36.703 1,24 1,11.297 11.297,1 24,1 Z"
       style="fill:#fcaf3e;fill-opacity:1"
       id="path21"
       inkscape:connector-curvature="0" />
  </g>
  <path
     style="color:#000000;white-space:normal;display:inline;visibility:visible;opacity:0.1;isolation:auto;mix-blend-mode:normal;color-interpolation:sRGB;color-interpolation-filters:linearRGB;solid-color:#000000;solid-opacity:1;fill:#000000;fill-opacity:1;fill-rule:evenodd;stroke:none;color-rendering:auto;image-rendering:auto;shape-rendering:auto"
     d="m 32,10.951172 0,0.0039 0,1 c 2,0.045 4,1.044922 5,2.544922 l 1,-0.5 c -1,-2 -3,-2.999829 -6,-3.048829 z M 32,14 l 0,1 c 1.305,0.002 2.432688,0.505218 3.179688,1.574218 L 36,16 c -0.935,-1.337 -2.369,-1.999 -4,-2 z m -1,3.003906 c -0.593211,0 -1,0.47108 -1,0.996094 l 0,2 -16,0 c -1,0 -2,1 -2,2 l 0,11 c 0,1 1,2 2,2 l 22,0 c 1,0 2,-1 2,-2 l 0,-11 c 0,-1 -1,-2 -2,-2 l -2,0 0,-2 c 0,-0.554 -0.446,-0.996094 -1,-0.996094 l -2,0 z m 0.5,1 1,0 c 0.276998,0.0011 0.5,0.223 0.5,0.5 l 0,1.5 -2,0 0,-1.5 c 0,-0.277 0.223,-0.5 0.5,-0.5 z M 15.691406,22 l 7.617188,0.0039 C 24.154594,22.00435 25,22.712734 25,23.427734 l 0,8.144531 c 0,0.714 -0.845406,1.431641 -1.691406,1.431641 l -7.617188,0 c -0.106,0 -0.212406,-0.0122 -0.316406,-0.0332 C 14.646,32.824703 14,32.199218 14,31.574218 l 0,-8.144531 c 0,-0.714 0.845406,-1.425781 1.691406,-1.425781 l 0,-0.0039 z M 27,22.003906 l 7.308594,0 c 0.846,0 1.689453,0.710781 1.689453,1.425781 l 0,8.144531 c 0,0.714 -0.843453,1.429688 -1.689453,1.429688 l -7.308594,0 0,-11 z m 2.5,0.998047 c -0.277,0 -0.5,0.223 -0.5,0.5 0,0.277 0.223,0.501953 0.5,0.501953 l 1,0 c 0.277,0 0.5,-0.224953 0.5,-0.501953 0,-0.277 -0.223,-0.5 -0.5,-0.5 l -1,0 z m 3,0 c -0.277,0 -0.5,0.223 -0.5,0.5 0,0.277 0.223,0.501953 0.5,0.501953 l 1,0 c 0.277,0 0.5,-0.224953 0.5,-0.501953 0,-0.277 -0.223,-0.5 -0.5,-0.5 l -1,0 z M 19.550781,23.96875 A 3.5355339,3.5355339 0 0 0 17,25.003906 a 3.5355339,3.5355339 0 0 0 0,5 3.5355339,3.5355339 0 0 0 5,0 3.5355339,3.5355339 0 0 0 0,-5 3.5355339,3.5355339 0 0 0 -2.449219,-1.035156 z M 29.5,25.001953 c -0.277,0 -0.5,0.223 -0.5,0.5 0,0.277 0.223,0.501953 0.5,0.501953 l 1,0 c 0.277,0 0.5,-0.224953 0.5,-0.501953 0,-0.277 -0.223,-0.5 -0.5,-0.5 l -1,0 z m 3,0 c -0.277,0 -0.5,0.223 -0.5,0.5 0,0.277 0.223,0.501953 0.5,0.501953 l 1,0 c 0.277,0 0.5,-0.224953 0.5,-0.501953 0,-0.277 -0.223,-0.5 -0.5,-0.5 l -1,0 z m -12.978516,1.001953 a 1.5,1.5 0 0 1 1.039063,0.439453 1.5,1.5 0 0 1 0,2.121094 1.5,1.5 0 0 1 -2.121094,0 1.5,1.5 0 0 1 0,-2.121094 1.5,1.5 0 0 1 1.082031,-0.439453 z M 32.5,27.001953 c -0.277,0 -0.5,0.223 -0.5,0.5 0,0.277 0.223,0.501953 0.5,0.501953 l 1,0 c 0.277,0 0.5,-0.224953 0.5,-0.501953 0,-0.277 -0.223,-0.5 -0.5,-0.5 l -1,0 z m -3,0.002 c -0.277,0 -0.5,0.221047 -0.5,0.498047 0,0.277 0.223,0.501953 0.5,0.501953 l 1,0 c 0.277,0 0.5,-0.224953 0.5,-0.501953 0,-0.277 -0.223,-0.498047 -0.5,-0.498047 l -1,0 z m 4.5,3 c -0.552,0 -1,0.448 -1,1 0,0.552 0.448,1 1,1 0.552,0 1,-0.448 1,-1 0,-0.552 -0.448,-1 -1,-1 z m 0.482422,0.25 0.01758,0 c 0.138,0 0.25,0.112 0.25,0.25 0,0.138 -0.112,0.25 -0.25,0.25 -0.138,0 -0.25,-0.112 -0.25,-0.25 0,-0.131 0.101422,-0.241 0.232422,-0.25 z"
     id="path4463"
     inkscape:connector-curvature="0" />
  <g
     id="g23">
    <g
       id="g25">
      <g
         transform="translate(1,1)"
         id="g27">
        <g
           style="opacity:0.1"
           id="g29">
          <!-- color: #ebebeb -->
        </g>
      </g>
    </g>
  </g>
  <g
     transform="translate(1.7850532e-6,0)"
     id="g31">
    <g
       id="g33">
      <!-- color: #ebebeb -->
    </g>
  </g>
  <g
     id="g35">
    <path
       d="m 40.03 7.531 c 3.712 4.084 5.969 9.514 5.969 15.469 0 12.703 -10.297 23 -23 23 c -5.954 0 -11.384 -2.256 -15.469 -5.969 4.178 4.291 10.01 6.969 16.469 6.969 c 12.703 0 23 -10.298 23 -23 0 -6.462 -2.677 -12.291 -6.969 -16.469 z"
       style="opacity:0.1"
       id="path37" />
  </g>
  <path
     inkscape:connector-curvature="0"
     id="path45"
     style="color:#000000;white-space:normal;display:inline;visibility:visible;opacity:1;isolation:auto;mix-blend-mode:normal;color-interpolation:sRGB;color-interpolation-filters:linearRGB;solid-color:#000000;solid-opacity:1;fill:#2d2d2d;fill-opacity:1;fill-rule:evenodd;stroke:none;color-rendering:auto;image-rendering:auto;shape-rendering:auto"
     white-space="normal"
     isolation="auto"
     mix-blend-mode="normal"
     d="m 31,9.9515 0,1 c 2,0.045 4,1.045 5,2.545 l 1,-0.5 c -1,-2 -3,-3 -6,-3.049 m 0,3.049 0,1 c 1.305,0.002 2.433,0.505 3.18,1.574 L 35,14.9965 c -0.935,-1.337 -2.369,-1.999 -4,-2 z m -2,4 0,2 -16,0 c -1,0 -2,1 -2,2 l 0,10.9995 c 0,1 1,2 2,2 l 22,0 c 1,0 2,-1 2,-2 l 0,-10.9995 c 0,-1 -1,-2 -2,-2 l -2,0 0,-2 c 0,-0.554 -0.446,-0.996 -1,-0.996 l -2,0 c -0.593211,0 -1,0.470986 -1,0.996 z m 2.5,0.004 c 0.276998,0.0011 0.5,0.223 0.5,0.5 l 0,1.5 -2,0 0,-1.5 c 0,-0.277 0.223,-0.5 0.5,-0.5 m -15.809,3.996 7.6185,0.004 c 0.846,4.44e-4 1.691,0.709 1.691,1.424 l 0,8.1445 c 0,0.714 -0.845,1.431 -1.691,1.431 L 14.691,32 C 14.585,32 14.479,31.987 14.375,31.966 13.646,31.82 13,31.195 13,30.57 l 0,-8.1445 c 0,-0.714 0.845,-1.425 1.691,-1.425 m 18.617,0 c 0.846,0 1.691,0.71 1.691,1.425 l 0,8.1445 c 0,0.714 -0.845,1.43 -1.691,1.43 L 26,32 26,21.0005 Z m -4.808,0.997 c -0.277,0 -0.5,0.223 -0.5,0.5 0,0.277 0.223,0.503 0.5,0.503 l 1,0 c 0.277,0 0.5,-0.226 0.5,-0.503 0,-0.277 -0.223,-0.5 -0.5,-0.5 z m 3,0 c -0.277,0 -0.5,0.223 -0.5,0.5 0,0.277 0.223,0.503 0.5,0.503 l 1,0 c 0.277,0 0.5,-0.226 0.5,-0.503 0,-0.277 -0.223,-0.5 -0.5,-0.5 z m -3,2 c -0.277,0 -0.5,0.223 -0.5,0.5 0,0.277 0.223,0.503 0.5,0.503 l 1,0 c 0.277,0 0.5,-0.226 0.5,-0.503 0,-0.277 -0.223,-0.5 -0.5,-0.5 z m 3,0 c -0.277,0 -0.5,0.223 -0.5,0.5 0,0.277 0.223,0.503 0.5,0.503 l 1,0 c 0.277,0 0.5,-0.226 0.5,-0.503 0,-0.277 -0.223,-0.5 -0.5,-0.5 z m -3,2.003 c -0.277,0 -0.5,0.22 -0.5,0.497 0,0.277 0.223,0.503 0.5,0.503 l 1,0 c 0.277,0 0.5,-0.226 0.5,-0.503 0,-0.277 -0.223,-0.497 -0.5,-0.497 z m 3,-0.003 c -0.277,0 -0.5,0.223 -0.5,0.5 0,0.277 0.223,0.503 0.5,0.503 l 1,0 c 0.277,0 0.5,-0.226 0.5,-0.503 0,-0.277 -0.223,-0.5 -0.5,-0.5 z M 33,29 c -0.552,0 -1,0.448 -1,1 0,0.552 0.448,1 1,1 0.552,0 1,-0.448 1,-1 0,-0.552 -0.448,-1 -1,-1 z m 0.482,0.25 0.018,0 c 0.138,0 0.25,0.112 0.25,0.25 0,0.138 -0.112,0.25 -0.25,0.25 -0.138,0 -0.25,-0.112 -0.25,-0.25 0,-0.131 0.101,-0.241 0.232,-0.25 z"
     sodipodi:nodetypes="cccccccccccccssccssscscsccsccsccssssscssccssscccssssssssssssssssssssssssssssssssssssssssssssssscssssc" />
  <path
     style="opacity:1;fill:#2d2d2d;fill-opacity:1;fill-rule:nonzero;stroke:none;stroke-width:0.5;stroke-linejoin:round;stroke-miterlimit:4;stroke-dasharray:none;stroke-opacity:1"
     d="M 18.550781 22.964844 A 3.5355339 3.5355339 0 0 0 16 24 A 3.5355339 3.5355339 0 0 0 16 29 A 3.5355339 3.5355339 0 0 0 21 29 A 3.5355339 3.5355339 0 0 0 21 24 A 3.5355339 3.5355339 0 0 0 18.550781 22.964844 z M 18.521484 25 A 1.5 1.5 0 0 1 19.560547 25.439453 A 1.5 1.5 0 0 1 19.560547 27.560547 A 1.5 1.5 0 0 1 17.439453 27.560547 A 1.5 1.5 0 0 1 17.439453 25.439453 A 1.5 1.5 0 0 1 18.521484 25 z "
     id="path4386" />
</svg>
