<?xml version="1.0" encoding="UTF-8" standalone="no"?>
<svg
   xmlns:dc="http://purl.org/dc/elements/1.1/"
   xmlns:cc="http://creativecommons.org/ns#"
   xmlns:rdf="http://www.w3.org/1999/02/22-rdf-syntax-ns#"
   xmlns:svg="http://www.w3.org/2000/svg"
   xmlns="http://www.w3.org/2000/svg"
   xmlns:xlink="http://www.w3.org/1999/xlink"
   xmlns:sodipodi="http://sodipodi.sourceforge.net/DTD/sodipodi-0.dtd"
   xmlns:inkscape="http://www.inkscape.org/namespaces/inkscape"
   viewBox="0 0 48 48"
   id="svg3084"
   version="1.1"
   inkscape:version="0.48.4 r9939"
   width="100%"
   height="100%"
   sodipodi:docname="gnome-music.svg">
  <metadata
     id="metadata3189">
    <rdf:RDF>
      <cc:Work
         rdf:about="">
        <dc:format>image/svg+xml</dc:format>
        <dc:type
           rdf:resource="http://purl.org/dc/dcmitype/StillImage" />
        <dc:title></dc:title>
      </cc:Work>
    </rdf:RDF>
  </metadata>
  <sodipodi:namedview
     pagecolor="#ffffff"
     bordercolor="#666666"
     borderopacity="1"
     objecttolerance="10"
     gridtolerance="10"
     guidetolerance="10"
     inkscape:pageopacity="0"
     inkscape:pageshadow="2"
     inkscape:window-width="640"
     inkscape:window-height="480"
     id="namedview3187"
     showgrid="false"
     inkscape:zoom="4.9166667"
     inkscape:cx="24"
     inkscape:cy="22.372881"
     inkscape:window-x="0"
     inkscape:window-y="0"
     inkscape:window-maximized="0"
     inkscape:current-layer="svg3084" />
  <defs
     id="defs3086">
    <linearGradient
       id="1"
       gradientUnits="userSpaceOnUse"
       y1="15"
       x2="0"
       y2="11"
       gradientTransform="matrix(15.333333,0,0,11.5,414.99999,-125.5)">
      <stop
         id="stop3089" />
      <stop
         offset="1"
         stop-opacity="0"
         id="stop3091" />
    </linearGradient>
    <clipPath
       id="clipPath-737307812">
      <g
         transform="translate(0,-1004.3622)"
         id="g3094">
        <path
           d="m -24 13 c 0 1.105 -0.672 2 -1.5 2 -0.828 0 -1.5 -0.895 -1.5 -2 0 -1.105 0.672 -2 1.5 -2 0.828 0 1.5 0.895 1.5 2 z"
           transform="matrix(15.333333,0,0,11.5,414.99999,878.8622)"
           fill="#1890d0"
           id="path3096" />
      </g>
    </clipPath>
    <clipPath
       id="clipPath-745132268">
      <g
         transform="translate(0,-1004.3622)"
         id="g3099">
        <path
           d="m -24 13 c 0 1.105 -0.672 2 -1.5 2 -0.828 0 -1.5 -0.895 -1.5 -2 0 -1.105 0.672 -2 1.5 -2 0.828 0 1.5 0.895 1.5 2 z"
           transform="matrix(15.333333,0,0,11.5,414.99999,878.8622)"
           fill="#1890d0"
           id="path3101" />
      </g>
    </clipPath>
    <filter
       id="alpha"
       filterUnits="objectBoundingBox"
       x="0"
       y="0"
       width="48"
       height="48">
      <feColorMatrix
         type="matrix"
         in="SourceGraphic"
         values="0 0 0 0 1 0 0 0 0 1 0 0 0 0 1 0 0 0 1 0"
         id="feColorMatrix3104" />
    </filter>
    <mask
       id="mask0">
      <g
         filter="url(#alpha)"
         id="g3107">
        <rect
           width="48"
           height="48"
           fill="#000"
           stroke="none"
           fill-opacity="0.902"
           id="rect3109" />
      </g>
    </mask>
    <clipPath
       id="clip1">
      <rect
         width="48"
         height="48"
         id="rect3112" />
    </clipPath>
    <filter
       id="filter3114"
       filterUnits="objectBoundingBox"
       x="0"
       y="0"
       width="48"
       height="48">
      <feColorMatrix
         type="matrix"
         in="SourceGraphic"
         values="0 0 0 0 1 0 0 0 0 1 0 0 0 0 1 0 0 0 1 0"
         id="feColorMatrix3116" />
    </filter>
    <mask
       id="mask3118">
      <g
         filter="url(#alpha)"
         id="g3120">
        <rect
           width="48"
           height="48"
           fill="#000"
           stroke="none"
           fill-opacity="0.902"
           id="rect3122" />
      </g>
    </mask>
    <clipPath
       id="clipPath3124">
      <rect
         width="48"
         height="48"
         id="rect3126" />
    </clipPath>
    <g
       id="surface6"
       clip-path="url(#clip1)">
      <path
         d="m 21 19.941 c 3.77 -2.699 6.711 -3.348 11 -2.332 l 0 10.06 c -0.203 0.398 -1.066 2.348 3 3.449 l 0 -19.766 c -7.605 -0.691 -11.625 -0.656 -17 2.82 l 0 15.824 c 1.359 -2.051 -5.586 4.84 3 2.918 m 0 -12.973"
         fill="#fce8ee"
         stroke="none"
         fill-rule="nonzero"
         fill-opacity="1"
         id="path3129" />
      <path
         d="m 21 33 c 0 2.211 -1.793 4 -4 4 c -2.211 0 -4 -1.789 -4 -4 c 0 -2.211 1.789 -4 4 -4 c 2.207 0 4 1.789 4 4 m 0 0"
         fill="#fce8ee"
         stroke="none"
         fill-rule="nonzero"
         fill-opacity="1"
         id="path3131" />
      <path
         d="m 35 31 c 0 2.211 -1.793 4 -4 4 c -2.211 0 -4 -1.789 -4 -4 c 0 -2.207 1.789 -4 4 -4 c 2.207 0 4 1.793 4 4 m 0 0"
         fill="#fce8ee"
         stroke="none"
         fill-rule="nonzero"
         fill-opacity="1"
         id="path3133" />
    </g>
    <g
       id="g3135"
       clip-path="url(#clip1)">
      <path
         d="m 21 19.941 c 3.77 -2.699 6.711 -3.348 11 -2.332 l 0 10.06 c -0.203 0.398 -1.066 2.348 3 3.449 l 0 -19.766 c -7.605 -0.691 -11.625 -0.656 -17 2.82 l 0 15.824 c 1.359 -2.051 -5.586 4.84 3 2.918 m 0 -12.973"
         fill="#000"
         stroke="none"
         fill-rule="nonzero"
         fill-opacity="1"
         id="path3137" />
      <path
         d="m 21 33 c 0 2.211 -1.793 4 -4 4 c -2.211 0 -4 -1.789 -4 -4 c 0 -2.211 1.789 -4 4 -4 c 2.207 0 4 1.789 4 4 m 0 0"
         fill="#000"
         stroke="none"
         fill-rule="nonzero"
         fill-opacity="1"
         id="path3139" />
      <path
         d="m 35 31 c 0 2.211 -1.793 4 -4 4 c -2.211 0 -4 -1.789 -4 -4 c 0 -2.207 1.789 -4 4 -4 c 2.207 0 4 1.793 4 4 m 0 0"
         fill="#000"
         stroke="none"
         fill-rule="nonzero"
         fill-opacity="1"
         id="path3141" />
    </g>
  </defs>
  <g
     id="g3143">
    <g
       transform="translate(0,-1004.3622)"
       id="g3145">
      <path
         d="m 25 1006.36 c -12.703 0 -23 10.298 -23 23 0 6.367 2.601 12.12 6.781 16.281 4.085 3.712 9.514 5.969 15.469 5.969 12.703 0 23 -10.297 23 -23 0 -5.954 -2.256 -11.384 -5.969 -15.469 -4.165 -4.181 -9.914 -6.781 -16.281 -6.781 z m 16.281 6.781 c 3.854 4.113 6.219 9.637 6.219 15.719 0 12.703 -10.297 23 -23 23 -6.081 0 -11.606 -2.364 -15.719 -6.219 4.16 4.144 9.883 6.719 16.219 6.719 12.703 0 23 -10.297 23 -23 0 -6.335 -2.575 -12.06 -6.719 -16.219 z"
         opacity="0.05"
         id="path3147" />
      <path
         d="m 41.28 1013.14 c 3.712 4.085 5.969 9.514 5.969 15.469 0 12.703 -10.297 23 -23 23 -5.954 0 -11.384 -2.256 -15.469 -5.969 4.113 3.854 9.637 6.219 15.719 6.219 12.703 0 23 -10.297 23 -23 0 -6.081 -2.364 -11.606 -6.219 -15.719 z"
         opacity="0.1"
         id="path3149" />
      <path
         transform="matrix(15.333333,0,0,11.5,415.24999,879.11222)"
         d="m -24 13 a 1.5 2 0 1 1 -3 0 1.5 2 0 1 1 3 0 z"
         opacity="0.2"
         id="path3151" />
    </g>
  </g>
  <g
     id="g3153">
    <g
       transform="translate(0,-1004.3622)"
       id="g3155">
      <path
         d="m -24 13 c 0 1.105 -0.672 2 -1.5 2 -0.828 0 -1.5 -0.895 -1.5 -2 0 -1.105 0.672 -2 1.5 -2 0.828 0 1.5 0.895 1.5 2 z"
         transform="matrix(15.333333,0,0,11.5,414.99999,878.8622)"
         fill="#e16059"
         id="path3157" />
    </g>
  </g>
  <g
     id="g3159">
    <path
       d="m 47 24 c 0 12.703 -10.297 23 -23 23 -12.703 0 -23 -10.297 -23 -23 0 -12.703 10.297 -23 23 -23 12.703 0 23 10.297 23 23 z"
       opacity="0.15"
       fill="url(#1)"
       id="path3161" />
  </g>
  <g
     id="g3163">
    <g
       clip-path="url(#clipPath-737307812)"
       id="g3165">
      <g
         transform="translate(0,1)"
         id="g3167">
        <g
           opacity="0.1"
           id="g3169">
          <!-- color: #e16059 -->
          <g
             id="g3171">
            <use
               xlink:href="#surface6"
               mask="url(#mask0)"
               id="use3173" />
          </g>
        </g>
      </g>
    </g>
  </g>
  <g
     id="g3175">
    <g
       clip-path="url(#clipPath-745132268)"
       id="g3177">
      <!-- color: #e16059 -->
      <g
         id="g3179">
        <use
           xlink:href="#surface6"
           mask="url(#mask0)"
           id="use3181" />
      </g>
    </g>
  </g>
  <g
     id="g3183">
    <path
       d="m 40.03 7.531 c 3.712 4.084 5.969 9.514 5.969 15.469 0 12.703 -10.297 23 -23 23 c -5.954 0 -11.384 -2.256 -15.469 -5.969 4.178 4.291 10.01 6.969 16.469 6.969 c 12.703 0 23 -10.298 23 -23 0 -6.462 -2.677 -12.291 -6.969 -16.469 z"
       opacity="0.1"
       id="path3185" />
  </g>
</svg>
