<svg xmlns="http://www.w3.org/2000/svg" viewBox="0 0 48 48"><defs><linearGradient id="linearGradient3764" x1="1" x2="47" gradientUnits="userSpaceOnUse" gradientTransform="matrix(0,-1,1,0,-1.5e-6,47.999998)"><stop stop-color="#3d3d3d" stop-opacity="1"/><stop offset="1" stop-color="#474747" stop-opacity="1"/></linearGradient><clipPath id="clipPath-559913961"><g transform="translate(0,-1004.3622)"><path d="m -24 13 c 0 1.105 -0.672 2 -1.5 2 -0.828 0 -1.5 -0.895 -1.5 -2 0 -1.105 0.672 -2 1.5 -2 0.828 0 1.5 0.895 1.5 2 z" transform="matrix(15.333333,0,0,11.5,414.99999,878.8622)" fill="#1890d0"/></g></clipPath><clipPath id="clipPath-567190404"><g transform="translate(0,-1004.3622)"><path d="m -24 13 c 0 1.105 -0.672 2 -1.5 2 -0.828 0 -1.5 -0.895 -1.5 -2 0 -1.105 0.672 -2 1.5 -2 0.828 0 1.5 0.895 1.5 2 z" transform="matrix(15.333333,0,0,11.5,414.99999,878.8622)" fill="#1890d0"/></g></clipPath></defs><g><path d="m 36.31 5 c 5.859 4.062 9.688 10.831 9.688 18.5 c 0 12.426 -10.07 22.5 -22.5 22.5 c -7.669 0 -14.438 -3.828 -18.5 -9.688 c 1.037 1.822 2.306 3.499 3.781 4.969 c 4.085 3.712 9.514 5.969 15.469 5.969 c 12.703 0 23 -10.298 23 -23 c 0 -5.954 -2.256 -11.384 -5.969 -15.469 c -1.469 -1.475 -3.147 -2.744 -4.969 -3.781 z m 4.969 3.781 c 3.854 4.113 6.219 9.637 6.219 15.719 c 0 12.703 -10.297 23 -23 23 c -6.081 0 -11.606 -2.364 -15.719 -6.219 c 4.16 4.144 9.883 6.719 16.219 6.719 c 12.703 0 23 -10.298 23 -23 c 0 -6.335 -2.575 -12.06 -6.719 -16.219 z" opacity="0.05"/><path d="m 41.28 8.781 c 3.712 4.085 5.969 9.514 5.969 15.469 c 0 12.703 -10.297 23 -23 23 c -5.954 0 -11.384 -2.256 -15.469 -5.969 c 4.113 3.854 9.637 6.219 15.719 6.219 c 12.703 0 23 -10.298 23 -23 c 0 -6.081 -2.364 -11.606 -6.219 -15.719 z" opacity="0.1"/><path d="m 31.25 2.375 c 8.615 3.154 14.75 11.417 14.75 21.13 c 0 12.426 -10.07 22.5 -22.5 22.5 c -9.708 0 -17.971 -6.135 -21.12 -14.75 a 23 23 0 0 0 44.875 -7 a 23 23 0 0 0 -16 -21.875 z" opacity="0.2"/></g><g><path d="m 24 1 c 12.703 0 23 10.297 23 23 c 0 12.703 -10.297 23 -23 23 -12.703 0 -23 -10.297 -23 -23 0 -12.703 10.297 -23 23 -23 z" fill="url(#linearGradient3764)" fill-opacity="1"/></g><g><g clip-path="url(#clipPath-559913961)"><g transform="translate(1,1)"><g opacity="0.1"><!-- color: #474747 --><g><path d="m 17.02 32 l 3.957 0 c 0.012 0 0.02 0.004 0.02 0.004 l 0 1.992 c 0 0 -0.008 0.004 -0.02 0.004 l -3.957 0 c -0.012 0 -0.023 -0.004 -0.023 -0.004 l 0 -1.992 c 0 0 0.012 -0.004 0.023 -0.004 m 0 0" fill="#000" stroke="none" fill-rule="nonzero" fill-opacity="1"/><path d="m 17.02 28.984 l 3.957 0 c 0.012 0 0.02 0.004 0.02 0.004 l 0 1.992 c 0 0 -0.008 0.004 -0.02 0.004 l -3.957 0 c -0.012 0 -0.023 -0.004 -0.023 -0.004 l 0 -1.992 c 0 0 0.012 -0.004 0.023 -0.004 m 0 0" fill="#000" stroke="none" fill-rule="nonzero" fill-opacity="0.902"/><path d="m 17.02 26.02 l 3.957 0 c 0.012 0 0.02 0 0.02 0.004 l 0 1.965 c 0 0.004 -0.008 0.004 -0.02 0.004 l -3.957 0 c -0.012 0 -0.023 0 -0.023 -0.004 l 0 -1.965 c 0 -0.004 0.012 -0.004 0.023 -0.004 m 0 0" fill="#000" stroke="none" fill-rule="nonzero" fill-opacity="0.8"/><path d="m 17.02 23 l 3.957 0 c 0.012 0 0.02 0.004 0.02 0.004 l 0 1.953 c 0 0 -0.008 0.004 -0.02 0.004 l -3.957 0 c -0.012 0 -0.023 -0.004 -0.023 -0.004 l 0 -1.953 c 0 0 0.012 -0.004 0.023 -0.004 m 0 0" fill="#000" stroke="none" fill-rule="nonzero" fill-opacity="0.702"/><path d="m 17.02 20 l 3.957 0 c 0.012 0 0.02 0 0.02 0.004 l 0 1.941 c 0 0 -0.008 0.004 -0.02 0.004 l -3.957 0 c -0.012 0 -0.023 -0.004 -0.023 -0.004 l 0 -1.941 c 0 -0.004 0.012 -0.004 0.023 -0.004 m 0 0" fill="#000" stroke="none" fill-rule="nonzero" fill-opacity="0.6"/><path d="m 27.02 32.01 l 3.961 0 c 0.012 0 0.02 0 0.02 0.004 l 0 1.977 c 0 0 -0.008 0.004 -0.02 0.004 l -3.961 0 c -0.012 0 -0.02 -0.004 -0.02 -0.004 l 0 -1.977 c 0 -0.004 0.008 -0.004 0.02 -0.004 m 0 0" fill="#000" stroke="none" fill-rule="nonzero" fill-opacity="1"/><path d="m 27.02 29.02 l 3.961 0 c 0.012 0 0.02 0.004 0.02 0.004 l 0 1.965 c 0 0.004 -0.008 0.004 -0.02 0.004 l -3.961 0 c -0.012 0 -0.02 0 -0.02 -0.004 l 0 -1.965 c 0 0 0.008 -0.004 0.02 -0.004 m 0 0" fill="#000" stroke="none" fill-rule="nonzero" fill-opacity="0.902"/><path d="m 27.02 26.05 l 3.961 0 c 0.012 0 0.02 0.004 0.02 0.004 l 0 1.957 c 0 0 -0.008 0.004 -0.02 0.004 l -3.961 0 c -0.012 0 -0.02 -0.004 -0.02 -0.004 l 0 -1.957 c 0 0 0.008 -0.004 0.02 -0.004 m 0 0" fill="#000" stroke="none" fill-rule="nonzero" fill-opacity="0.8"/><path d="m 27.02 23.05 l 3.961 0 c 0.012 0 0.02 0 0.02 0.004 l 0 1.941 c 0 0 -0.008 0.004 -0.02 0.004 l -3.961 0 c -0.012 0 -0.02 -0.004 -0.02 -0.004 l 0 -1.941 c 0 -0.004 0.008 -0.004 0.02 -0.004 m 0 0" fill="#000" stroke="none" fill-rule="nonzero" fill-opacity="0.702"/><path d="m 27.02 20.06 l 3.961 0 c 0.012 0 0.02 0.004 0.02 0.004 l 0 1.926 c 0 0.004 -0.008 0.004 -0.02 0.004 l -3.961 0 c -0.012 0 -0.02 0 -0.02 -0.004 l 0 -1.926 c 0 0 0.008 -0.004 0.02 -0.004 m 0 0" fill="#000" stroke="none" fill-rule="nonzero" fill-opacity="0.6"/><path d="m 27.02 17 l 3.961 0 c 0.012 0 0.02 0.004 0.02 0.004 l 0 1.992 c 0 0.004 -0.008 0.004 -0.02 0.004 l -3.961 0 c -0.012 0 -0.02 0 -0.02 -0.004 l 0 -1.992 c 0 0 0.008 -0.004 0.02 -0.004 m 0 0" fill="#000" stroke="none" fill-rule="nonzero" fill-opacity="0.502"/><path d="m 32.02 32 l 3.961 0 c 0.012 0 0.02 0.004 0.02 0.004 l 0 1.992 c 0 0 -0.008 0.004 -0.02 0.004 l -3.961 0 c -0.012 0 -0.02 -0.004 -0.02 -0.004 l 0 -1.992 c 0 0 0.008 -0.004 0.02 -0.004 m 0 0" fill="#000" stroke="none" fill-rule="nonzero" fill-opacity="1"/><path d="m 32.02 29 l 3.961 0 c 0.012 0 0.02 0 0.02 0.004 l 0 1.98 c 0 0 -0.008 0.004 -0.02 0.004 l -3.961 0 c -0.012 0 -0.02 -0.004 -0.02 -0.004 l 0 -1.98 c 0 -0.004 0.008 -0.004 0.02 -0.004 m 0 0" fill="#000" stroke="none" fill-rule="nonzero" fill-opacity="0.902"/><path d="m 32.02 26.02 l 3.961 0 c 0.012 0 0.02 0 0.02 0.004 l 0 1.965 c 0 0.004 -0.008 0.004 -0.02 0.004 l -3.961 0 c -0.012 0 -0.02 0 -0.02 -0.004 l 0 -1.965 c 0 -0.004 0.008 -0.004 0.02 -0.004 m 0 0" fill="#000" stroke="none" fill-rule="nonzero" fill-opacity="0.8"/><path d="m 32.02 23 l 3.961 0 c 0.012 0 0.02 0.004 0.02 0.004 l 0 1.953 c 0 0 -0.008 0.004 -0.02 0.004 l -3.961 0 c -0.012 0 -0.02 -0.004 -0.02 -0.004 l 0 -1.953 c 0 0 0.008 -0.004 0.02 -0.004 m 0 0" fill="#000" stroke="none" fill-rule="nonzero" fill-opacity="0.702"/><path d="m 32.02 20 l 3.961 0 c 0.012 0 0.02 0 0.02 0.004 l 0 1.941 c 0 0 -0.008 0.004 -0.02 0.004 l -3.961 0 c -0.012 0 -0.02 -0.004 -0.02 -0.004 l 0 -1.941 c 0 -0.004 0.008 -0.004 0.02 -0.004 m 0 0" fill="#000" stroke="none" fill-rule="nonzero" fill-opacity="0.6"/><path d="m 22.02 32 l 3.957 0 c 0.012 0 0.02 0.004 0.02 0.004 l 0 1.992 c 0 0 -0.008 0.004 -0.02 0.004 l -3.957 0 c -0.012 0 -0.023 -0.004 -0.023 -0.004 l 0 -1.992 c 0 0 0.012 -0.004 0.023 -0.004 m 0 0" fill="#000" stroke="none" fill-rule="nonzero" fill-opacity="1"/><path d="m 22.02 29 l 3.957 0 c 0.012 0 0.02 0 0.02 0.004 l 0 1.98 c 0 0 -0.008 0.004 -0.02 0.004 l -3.957 0 c -0.012 0 -0.023 -0.004 -0.023 -0.004 l 0 -1.98 c 0 -0.004 0.012 -0.004 0.023 -0.004 m 0 0" fill="#000" stroke="none" fill-rule="nonzero" fill-opacity="0.902"/><path d="m 22.02 26.02 l 3.957 0 c 0.012 0 0.02 0 0.02 0.004 l 0 1.965 c 0 0.004 -0.008 0.004 -0.02 0.004 l -3.957 0 c -0.012 0 -0.023 0 -0.023 -0.004 l 0 -1.965 c 0 -0.004 0.012 -0.004 0.023 -0.004 m 0 0" fill="#000" stroke="none" fill-rule="nonzero" fill-opacity="0.8"/><path d="m 12.02 32 l 3.957 0 c 0.012 0 0.02 0.004 0.02 0.004 l 0 1.992 c 0 0 -0.008 0.004 -0.02 0.004 l -3.957 0 c -0.012 0 -0.023 -0.004 -0.023 -0.004 l 0 -1.992 c 0 0 0.012 -0.004 0.023 -0.004 m 0 0" fill="#000" stroke="none" fill-rule="nonzero" fill-opacity="1"/><path d="m 12.02 29.02 l 3.957 0 c 0.012 0 0.02 0.004 0.02 0.004 l 0 1.969 c 0 0 -0.008 0 -0.02 0 l -3.957 0 c -0.012 0 -0.023 0 -0.023 0 l 0 -1.969 c 0 0 0.012 -0.004 0.023 -0.004 m 0 0" fill="#000" stroke="none" fill-rule="nonzero" fill-opacity="0.902"/><path d="m 12.02 26.04 l 3.957 0 c 0.012 0 0.02 0 0.02 0 l 0 1.957 c 0 0.004 -0.008 0.004 -0.02 0.004 l -3.957 0 c -0.012 0 -0.023 0 -0.023 -0.004 l 0 -1.957 c 0 0 0.012 0 0.023 0 m 0 0" fill="#000" stroke="none" fill-rule="nonzero" fill-opacity="0.8"/><path d="m 12.02 23.05 l 3.957 0 c 0.012 0 0.02 0 0.02 0.004 l 0 1.941 c 0 0 -0.008 0.004 -0.02 0.004 l -3.957 0 c -0.012 0 -0.023 -0.004 -0.023 -0.004 l 0 -1.941 c 0 -0.004 0.012 -0.004 0.023 -0.004 m 0 0" fill="#000" stroke="none" fill-rule="nonzero" fill-opacity="0.702"/><path d="m 12.02 20.06 l 3.957 0 c 0.012 0 0.02 0.004 0.02 0.004 l 0 1.93 c 0 0 -0.008 0 -0.02 0 l -3.957 0 c -0.012 0 -0.023 0 -0.023 0 l 0 -1.93 c 0 0 0.012 -0.004 0.023 -0.004 m 0 0" fill="#000" stroke="none" fill-rule="nonzero" fill-opacity="0.6"/><path d="m 12.02 17 l 3.957 0 c 0.012 0 0.02 0 0.02 0.004 l 0 1.988 c 0 0.004 -0.008 0.004 -0.02 0.004 l -3.957 0 c -0.012 0 -0.023 0 -0.023 -0.004 l 0 -1.988 c 0 -0.004 0.012 -0.004 0.023 -0.004 m 0 0" fill="#000" stroke="none" fill-rule="nonzero" fill-opacity="0.502"/><path d="m 12.02 14 l 3.957 0 c 0.012 0 0.02 0.004 0.02 0.004 l 0 1.992 c 0 0 -0.008 0.004 -0.02 0.004 l -3.957 0 c -0.012 0 -0.023 -0.004 -0.023 -0.004 l 0 -1.992 c 0 0 0.012 -0.004 0.023 -0.004 m 0 0" fill="#000" stroke="none" fill-rule="nonzero" fill-opacity="0.4"/><path d="m 7.02 32 l 3.957 0 c 0.012 0 0.02 0.004 0.02 0.004 l 0 1.992 c 0 0 -0.008 0.004 -0.02 0.004 l -3.957 0 c -0.012 0 -0.023 -0.004 -0.023 -0.004 l 0 -1.992 c 0 0 0.012 -0.004 0.023 -0.004 m 0 0" fill="#000" stroke="none" fill-rule="nonzero" fill-opacity="1"/><path d="m 7.02 29 l 3.957 0 c 0.012 0 0.02 0 0.02 0.004 l 0 1.98 c 0 0 -0.008 0.004 -0.02 0.004 l -3.957 0 c -0.012 0 -0.023 -0.004 -0.023 -0.004 l 0 -1.98 c 0 -0.004 0.012 -0.004 0.023 -0.004 m 0 0" fill="#000" stroke="none" fill-rule="nonzero" fill-opacity="0.902"/><path d="m 7.02 26.02 l 3.957 0 c 0.012 0 0.02 0 0.02 0.004 l 0 1.965 c 0 0.004 -0.008 0.004 -0.02 0.004 l -3.957 0 c -0.012 0 -0.023 0 -0.023 -0.004 l 0 -1.965 c 0 -0.004 0.012 -0.004 0.023 -0.004 m 0 0" fill="#000" stroke="none" fill-rule="nonzero" fill-opacity="0.8"/><path d="m 7.02 23 l 3.957 0 c 0.012 0 0.02 0.004 0.02 0.004 l 0 1.953 c 0 0 -0.008 0.004 -0.02 0.004 l -3.957 0 c -0.012 0 -0.023 -0.004 -0.023 -0.004 l 0 -1.953 c 0 0 0.012 -0.004 0.023 -0.004 m 0 0" fill="#000" stroke="none" fill-rule="nonzero" fill-opacity="0.702"/><path d="m 7.02 20 l 3.957 0 c 0.012 0 0.02 0 0.02 0.004 l 0 1.941 c 0 0 -0.008 0.004 -0.02 0.004 l -3.957 0 c -0.012 0 -0.023 -0.004 -0.023 -0.004 l 0 -1.941 c 0 -0.004 0.012 -0.004 0.023 -0.004 m 0 0" fill="#000" stroke="none" fill-rule="nonzero" fill-opacity="0.6"/><path d="m 2 17 l 0 2 l 3.969 0 c 0.012 0 0.031 0 0.031 0 l 0 -2 c 0 -0.004 -0.02 0 -0.031 0 m -3.969 3 l 0 2 l 3.969 0 c 0.012 0 0.031 0 0.031 0 l 0 -1.938 c 0 -0.004 -0.02 0 -0.031 0 m -3.969 2.938 c 0 1 0 1.273 0 2 l 3.969 0 c 0.012 0 0.031 0 0.031 0 l 0 -1.938 c 0 -0.004 -0.02 0 -0.031 0 m -3.969 2.938 c 0 0.676 0 1.43 0 2 l 3.969 0 c 0.012 0 0.031 0 0.031 0 l 0 -1.969 c 0 -0.004 -0.02 0 -0.031 0 m -3.969 2.969 c 0 1 0 1.398 0 2 l 3.969 0 c 0.012 0 0.031 0 0.031 0 l 0 -1.969 c 0 -0.004 -0.02 0 -0.031 0 m -3.969 2.969 c 0 0.684 0 1.301 0 2 l 3.969 0 c 0.012 0 0.031 0 0.031 0 l 0 -2 c 0 -0.004 -0.02 0 -0.031 0 m -3.969 0" fill="#000" stroke="none" fill-rule="nonzero" fill-opacity="0.502"/><path d="m 37.02 32 l 3.961 0 c 0.012 0 0.02 0.004 0.02 0.004 l 0 1.992 c 0 0 -0.008 0.004 -0.02 0.004 l -3.961 0 c -0.012 0 -0.02 -0.004 -0.02 -0.004 l 0 -1.992 c 0 0 0.008 -0.004 0.02 -0.004 m 0 0" fill="#000" stroke="none" fill-rule="nonzero" fill-opacity="1"/><path d="m 37.02 29.02 l 3.961 0 c 0.012 0 0.02 0.004 0.02 0.004 l 0 1.969 c 0 0 -0.008 0 -0.02 0 l -3.961 0 c -0.012 0 -0.02 0 -0.02 0 l 0 -1.969 c 0 0 0.008 -0.004 0.02 -0.004 m 0 0" fill="#000" stroke="none" fill-rule="nonzero" fill-opacity="0.902"/><path d="m 37.02 26.04 l 3.961 0 c 0.012 0 0.02 0 0.02 0 l 0 1.957 c 0 0.004 -0.008 0.004 -0.02 0.004 l -3.961 0 c -0.012 0 -0.02 0 -0.02 -0.004 l 0 -1.957 c 0 0 0.008 0 0.02 0 m 0 0" fill="#000" stroke="none" fill-rule="nonzero" fill-opacity="0.8"/><path d="m 37.02 23.05 l 3.961 0 c 0.012 0 0.02 0 0.02 0.004 l 0 1.941 c 0 0 -0.008 0.004 -0.02 0.004 l -3.961 0 c -0.012 0 -0.02 -0.004 -0.02 -0.004 l 0 -1.941 c 0 -0.004 0.008 -0.004 0.02 -0.004 m 0 0" fill="#000" stroke="none" fill-rule="nonzero" fill-opacity="0.702"/><path d="m 37.02 20.06 l 3.961 0 c 0.012 0 0.02 0.004 0.02 0.004 l 0 1.93 c 0 0 -0.008 0 -0.02 0 l -3.961 0 c -0.012 0 -0.02 0 -0.02 0 l 0 -1.93 c 0 0 0.008 -0.004 0.02 -0.004 m 0 0" fill="#000" stroke="none" fill-rule="nonzero" fill-opacity="0.6"/><path d="m 37.02 17 l 3.961 0 c 0.012 0 0.02 0 0.02 0.004 l 0 1.988 c 0 0.004 -0.008 0.004 -0.02 0.004 l -3.961 0 c -0.012 0 -0.02 0 -0.02 -0.004 l 0 -1.988 c 0 -0.004 0.008 -0.004 0.02 -0.004 m 0 0" fill="#000" stroke="none" fill-rule="nonzero" fill-opacity="0.502"/><path d="m 37.02 14 l 3.961 0 c 0.012 0 0.02 0.004 0.02 0.004 l 0 1.992 c 0 0 -0.008 0.004 -0.02 0.004 l -3.961 0 c -0.012 0 -0.02 -0.004 -0.02 -0.004 l 0 -1.992 c 0 0 0.008 -0.004 0.02 -0.004 m 0 0" fill="#000" stroke="none" fill-rule="nonzero" fill-opacity="0.4"/><path d="m 42 20 l 0 1.938 c 0 0.004 0.02 0 0.031 0 l 3.969 0.063 l 0 -2 l -3.969 0 c -0.012 0 -0.031 0 -0.031 0 m 0 3 l 0 1.969 c 0 0.004 0.02 0 0.031 0 l 3.969 0 l 0 -1.969 l -3.969 0 c -0.012 0 -0.031 -0.004 -0.031 0 m 0 3 l 0 1.969 c 0 0.004 0.02 0 0.031 0 l 3.969 0.031 l 0 -2 l -3.969 0 c -0.012 0 -0.031 -0.004 -0.031 0 m 0 3 l 0 1.969 c 0 0.004 0.02 0 0.031 0 l 3.969 0.031 l 0 -2 l -3.969 0 c -0.012 0 -0.031 -0.004 -0.031 0 m 0 3 l 0 2 c 0 0 0.02 0 0.031 0 l 3.969 0 l 0 -2 l -3.969 0 c -0.012 0 -0.031 -0.004 -0.031 0 m 0 0" fill="#000" stroke="none" fill-rule="nonzero" fill-opacity="0.6"/></g></g></g></g></g><g clip-path="url(#clipPath-567190404)"><!-- color: #474747 --><g><path d="m 17.02 32 3.957 0 c 0.012 0 0.02 0.004 0.02 0.004 l 0 1.992 c 0 0 -0.008 0.004 -0.02 0.004 l -3.957 0 c -0.012 0 -0.023 -0.004 -0.023 -0.004 l 0 -1.992 c 0 0 0.012 -0.004 0.023 -0.004 m 0 0" fill="#e4c82f" fill-rule="nonzero" stroke="none" fill-opacity="1"/><path d="m 17.02 28.984 3.957 0 c 0.012 0 0.02 0.004 0.02 0.004 l 0 1.992 c 0 0 -0.008 0.004 -0.02 0.004 l -3.957 0 c -0.012 0 -0.023 -0.004 -0.023 -0.004 l 0 -1.992 c 0 0 0.012 -0.004 0.023 -0.004 m 0 0" fill="#e4c82f" fill-rule="nonzero" stroke="none" fill-opacity="0.902"/><path d="m 17.02 26.02 3.957 0 c 0.012 0 0.02 0 0.02 0.004 l 0 1.965 c 0 0.004 -0.008 0.004 -0.02 0.004 l -3.957 0 c -0.012 0 -0.023 0 -0.023 -0.004 l 0 -1.965 c 0 -0.004 0.012 -0.004 0.023 -0.004 m 0 0" fill="#e4c82f" fill-rule="nonzero" stroke="none" fill-opacity="0.8"/><path d="m 17.02 23 3.957 0 c 0.012 0 0.02 0.004 0.02 0.004 l 0 1.953 c 0 0 -0.008 0.004 -0.02 0.004 l -3.957 0 c -0.012 0 -0.023 -0.004 -0.023 -0.004 l 0 -1.953 c 0 0 0.012 -0.004 0.023 -0.004 m 0 0" fill="#e4c82f" fill-rule="nonzero" stroke="none" fill-opacity="0.702"/><path d="m 17.02,20 3.957,0 c 0.012,0 0.02,0 0.02,0.004 l 0,1.941 c 0,0 -0.008,0.004 -0.02,0.004 l -3.957,0 c -0.012,0 -0.023,-0.004 -0.023,-0.004 l 0,-1.941 C 16.997,20 17.009,20 17.02,20 m 0,0" fill="#e4c82f" fill-rule="nonzero" stroke="none" fill-opacity="0.6"/><path d="m 27.02,32.01 3.961,0 c 0.012,0 0.02,0 0.02,0.004 l 0,1.977 c 0,0 -0.008,0.004 -0.02,0.004 l -3.961,0 C 27.008,33.995 27,33.991 27,33.991 l 0,-1.977 c 0,-0.004 0.008,-0.004 0.02,-0.004 m 0,0" fill="#3e8ded" fill-rule="nonzero" stroke="none" fill-opacity="1"/><path d="m 27.02 29.02 3.961 0 c 0.012 0 0.02 0.004 0.02 0.004 l 0 1.965 c 0 0.004 -0.008 0.004 -0.02 0.004 l -3.961 0 c -0.012 0 -0.02 0 -0.02 -0.004 l 0 -1.965 c 0 0 0.008 -0.004 0.02 -0.004 m 0 0" fill="#3e8ded" fill-rule="nonzero" stroke="none" fill-opacity="0.902"/><path d="m 27.02,26.05 3.961,0 c 0.012,0 0.02,0.004 0.02,0.004 l 0,1.957 c 0,0 -0.008,0.004 -0.02,0.004 l -3.961,0 C 27.008,28.015 27,28.011 27,28.011 l 0,-1.957 c 0,0 0.008,-0.004 0.02,-0.004 m 0,0" fill="#3e8ded" fill-rule="nonzero" stroke="none" fill-opacity="0.8"/><path d="m 27.02,23.05 3.961,0 c 0.012,0 0.02,0 0.02,0.004 l 0,1.941 c 0,0 -0.008,0.004 -0.02,0.004 l -3.961,0 C 27.008,24.999 27,24.995 27,24.995 l 0,-1.941 c 0,-0.004 0.008,-0.004 0.02,-0.004 m 0,0" fill="#3e8ded" fill-rule="nonzero" stroke="none" fill-opacity="0.702"/><path d="m 27.02 20.06 3.961 0 c 0.012 0 0.02 0.004 0.02 0.004 l 0 1.926 c 0 0.004 -0.008 0.004 -0.02 0.004 l -3.961 0 c -0.012 0 -0.02 0 -0.02 -0.004 l 0 -1.926 c 0 0 0.008 -0.004 0.02 -0.004 m 0 0" fill="#3e8ded" fill-rule="nonzero" stroke="none" fill-opacity="0.6"/><path d="m 27.02,17 3.961,0 c 0.012,0 0.02,0.004 0.02,0.004 l 0,1.992 C 31.001,19 30.993,19 30.981,19 L 27.02,19 C 27.008,19 27,19 27,18.996 l 0,-1.992 c 0,0 0.008,-0.004 0.02,-0.004 m 0,0" fill="#3e8ded" fill-rule="nonzero" stroke="none" fill-opacity="0.502"/><path d="m 32.02,32 3.961,0 c 0.012,0 0.02,0.004 0.02,0.004 l 0,1.992 c 0,0 -0.008,0.004 -0.02,0.004 L 32.02,34 C 32.008,34 32,33.996 32,33.996 l 0,-1.992 c 0,0 0.008,-0.004 0.02,-0.004 m 0,0" fill="#db4ddb" fill-rule="nonzero" stroke="none" fill-opacity="1"/><path d="m 32.02,29 3.961,0 c 0.012,0 0.02,0 0.02,0.004 l 0,1.98 c 0,0 -0.008,0.004 -0.02,0.004 l -3.961,0 C 32.008,30.988 32,30.984 32,30.984 l 0,-1.98 C 32,29 32.008,29 32.02,29 m 0,0" fill="#db4ddb" fill-rule="nonzero" stroke="none" fill-opacity="0.902"/><path d="m 32.02 26.02 3.961 0 c 0.012 0 0.02 0 0.02 0.004 l 0 1.965 c 0 0.004 -0.008 0.004 -0.02 0.004 l -3.961 0 c -0.012 0 -0.02 0 -0.02 -0.004 l 0 -1.965 c 0 -0.004 0.008 -0.004 0.02 -0.004 m 0 0" fill="#db4ddb" fill-rule="nonzero" stroke="none" fill-opacity="0.8"/><path d="m 32.02,23 3.961,0 c 0.012,0 0.02,0.004 0.02,0.004 l 0,1.953 c 0,0 -0.008,0.004 -0.02,0.004 l -3.961,0 C 32.008,24.961 32,24.957 32,24.957 l 0,-1.953 c 0,0 0.008,-0.004 0.02,-0.004 m 0,0" fill="#db4ddb" fill-rule="nonzero" stroke="none" fill-opacity="0.702"/><path d="m 32.02,20 3.961,0 c 0.012,0 0.02,0 0.02,0.004 l 0,1.941 c 0,0 -0.008,0.004 -0.02,0.004 l -3.961,0 C 32.008,21.949 32,21.945 32,21.945 l 0,-1.941 C 32,20 32.008,20 32.02,20 m 0,0" fill="#db4ddb" fill-rule="nonzero" stroke="none" fill-opacity="0.6"/><path d="m 22.02 32 3.957 0 c 0.012 0 0.02 0.004 0.02 0.004 l 0 1.992 c 0 0 -0.008 0.004 -0.02 0.004 l -3.957 0 c -0.012 0 -0.023 -0.004 -0.023 -0.004 l 0 -1.992 c 0 0 0.012 -0.004 0.023 -0.004 m 0 0" fill="#7fcf5b" fill-rule="nonzero" stroke="none" fill-opacity="1"/><path d="m 22.02,29 3.957,0 c 0.012,0 0.02,0 0.02,0.004 l 0,1.98 c 0,0 -0.008,0.004 -0.02,0.004 l -3.957,0 c -0.012,0 -0.023,-0.004 -0.023,-0.004 l 0,-1.98 C 21.997,29 22.009,29 22.02,29 m 0,0" fill="#7fcf5b" fill-rule="nonzero" stroke="none" fill-opacity="0.902"/><path d="m 22.02 26.02 3.957 0 c 0.012 0 0.02 0 0.02 0.004 l 0 1.965 c 0 0.004 -0.008 0.004 -0.02 0.004 l -3.957 0 c -0.012 0 -0.023 0 -0.023 -0.004 l 0 -1.965 c 0 -0.004 0.012 -0.004 0.023 -0.004 m 0 0" fill="#7fcf5b" fill-rule="nonzero" stroke="none" fill-opacity="0.8"/><path d="m 12.02 32 3.957 0 c 0.012 0 0.02 0.004 0.02 0.004 l 0 1.992 c 0 0 -0.008 0.004 -0.02 0.004 l -3.957 0 c -0.012 0 -0.023 -0.004 -0.023 -0.004 l 0 -1.992 c 0 0 0.012 -0.004 0.023 -0.004 m 0 0" fill="#c52f2f" fill-rule="nonzero" stroke="none" fill-opacity="1"/><path d="m 12.02 29.02 3.957 0 c 0.012 0 0.02 0.004 0.02 0.004 l 0 1.969 c 0 0 -0.008 0 -0.02 0 l -3.957 0 c -0.012 0 -0.023 0 -0.023 0 l 0 -1.969 c 0 0 0.012 -0.004 0.023 -0.004 m 0 0" fill="#c52f2f" fill-rule="nonzero" stroke="none" fill-opacity="0.902"/><path d="m 12.02 26.04 3.957 0 c 0.012 0 0.02 0 0.02 0 l 0 1.957 c 0 0.004 -0.008 0.004 -0.02 0.004 l -3.957 0 c -0.012 0 -0.023 0 -0.023 -0.004 l 0 -1.957 c 0 0 0.012 0 0.023 0 m 0 0" fill="#c52f2f" fill-rule="nonzero" stroke="none" fill-opacity="0.8"/><path d="m 12.02 23.05 3.957 0 c 0.012 0 0.02 0 0.02 0.004 l 0 1.941 c 0 0 -0.008 0.004 -0.02 0.004 l -3.957 0 c -0.012 0 -0.023 -0.004 -0.023 -0.004 l 0 -1.941 c 0 -0.004 0.012 -0.004 0.023 -0.004 m 0 0" fill="#c52f2f" fill-rule="nonzero" stroke="none" fill-opacity="0.702"/><path d="m 12.02 20.06 3.957 0 c 0.012 0 0.02 0.004 0.02 0.004 l 0 1.93 c 0 0 -0.008 0 -0.02 0 l -3.957 0 c -0.012 0 -0.023 0 -0.023 0 l 0 -1.93 c 0 0 0.012 -0.004 0.023 -0.004 m 0 0" fill="#c52f2f" fill-rule="nonzero" stroke="none" fill-opacity="0.6"/><path d="m 12.02,17 3.957,0 c 0.012,0 0.02,0 0.02,0.004 l 0,1.988 c 0,0.004 -0.008,0.004 -0.02,0.004 l -3.957,0 c -0.012,0 -0.023,0 -0.023,-0.004 l 0,-1.988 C 11.997,17 12.009,17 12.02,17 m 0,0" fill="#c52f2f" fill-rule="nonzero" stroke="none" fill-opacity="0.502"/><path d="m 12.02 14 3.957 0 c 0.012 0 0.02 0.004 0.02 0.004 l 0 1.992 c 0 0 -0.008 0.004 -0.02 0.004 l -3.957 0 c -0.012 0 -0.023 -0.004 -0.023 -0.004 l 0 -1.992 c 0 0 0.012 -0.004 0.023 -0.004 m 0 0" fill="#c52f2f" fill-rule="nonzero" stroke="none" fill-opacity="0.4"/><path d="m 7.02,32 3.957,0 c 0.012,0 0.02,0.004 0.02,0.004 l 0,1.992 c 0,0 -0.008,0.004 -0.02,0.004 L 7.02,34 C 7.008,34 6.997,33.996 6.997,33.996 l 0,-1.992 c 0,0 0.012,-0.004 0.023,-0.004 m 0,0" fill="#db4ddb" fill-rule="nonzero" stroke="none" fill-opacity="1"/><path d="m 7.02,29 3.957,0 c 0.012,0 0.02,0 0.02,0.004 l 0,1.98 c 0,0 -0.008,0.004 -0.02,0.004 l -3.957,0 c -0.012,0 -0.023,-0.004 -0.023,-0.004 l 0,-1.98 C 6.997,29 7.009,29 7.02,29 m 0,0" fill="#db4ddb" fill-rule="nonzero" stroke="none" fill-opacity="0.902"/><path d="m 7.02 26.02 3.957 0 c 0.012 0 0.02 0 0.02 0.004 l 0 1.965 c 0 0.004 -0.008 0.004 -0.02 0.004 l -3.957 0 c -0.012 0 -0.023 0 -0.023 -0.004 l 0 -1.965 c 0 -0.004 0.012 -0.004 0.023 -0.004 m 0 0" fill="#db4ddb" fill-rule="nonzero" stroke="none" fill-opacity="0.8"/><path d="m 7.02 23 3.957 0 c 0.012 0 0.02 0.004 0.02 0.004 l 0 1.953 c 0 0 -0.008 0.004 -0.02 0.004 l -3.957 0 c -0.012 0 -0.023 -0.004 -0.023 -0.004 l 0 -1.953 c 0 0 0.012 -0.004 0.023 -0.004 m 0 0" fill="#db4ddb" fill-rule="nonzero" stroke="none" fill-opacity="0.702"/><path d="m 7.02,20 3.957,0 c 0.012,0 0.02,0 0.02,0.004 l 0,1.941 c 0,0 -0.008,0.004 -0.02,0.004 l -3.957,0 c -0.012,0 -0.023,-0.004 -0.023,-0.004 l 0,-1.941 C 6.997,20 7.009,20 7.02,20 m 0,0" fill="#db4ddb" fill-rule="nonzero" stroke="none" fill-opacity="0.6"/><path d="m 2,17 0,2 3.969,0 C 5.981,19 6,19 6,19 L 6,17 C 6,16.996 5.98,17 5.969,17 M 2,20 2,22 5.969,22 C 5.981,22 6,22 6,22 l 0,-1.938 c 0,-0.004 -0.02,0 -0.031,0 M 2,23 c 0,1 0,1.273 0,2 l 3.969,0 C 5.981,25 6,25 6,25 l 0,-1.938 c 0,-0.004 -0.02,0 -0.031,0 M 2,26 c 0,0.676 0,1.43 0,2 l 3.969,0 C 5.981,28 6,28 6,28 l 0,-1.969 c 0,-0.004 -0.02,0 -0.031,0 M 2,29 c 0,1 0,1.398 0,2 l 3.969,0 C 5.981,31 6,31 6,31 l 0,-1.969 c 0,-0.004 -0.02,0 -0.031,0 M 2,32 c 0,0.684 0,1.301 0,2 l 3.969,0 C 5.981,34 6,34 6,34 L 6,32 C 6,31.996 5.98,32 5.969,32 M 2,32" fill="#3e8ded" fill-rule="nonzero" stroke="none" fill-opacity="0.502"/><path d="m 37.02,32 3.961,0 c 0.012,0 0.02,0.004 0.02,0.004 l 0,1.992 c 0,0 -0.008,0.004 -0.02,0.004 L 37.02,34 C 37.008,34 37,33.996 37,33.996 l 0,-1.992 c 0,0 0.008,-0.004 0.02,-0.004 m 0,0" fill="#c52f2f" fill-rule="nonzero" stroke="none" fill-opacity="1"/><path d="m 37.02 29.02 3.961 0 c 0.012 0 0.02 0.004 0.02 0.004 l 0 1.969 c 0 0 -0.008 0 -0.02 0 l -3.961 0 c -0.012 0 -0.02 0 -0.02 0 l 0 -1.969 c 0 0 0.008 -0.004 0.02 -0.004 m 0 0" fill="#c52f2f" fill-rule="nonzero" stroke="none" fill-opacity="0.902"/><path d="m 37.02 26.04 3.961 0 c 0.012 0 0.02 0 0.02 0 l 0 1.957 c 0 0.004 -0.008 0.004 -0.02 0.004 l -3.961 0 c -0.012 0 -0.02 0 -0.02 -0.004 l 0 -1.957 c 0 0 0.008 0 0.02 0 m 0 0" fill="#c52f2f" fill-rule="nonzero" stroke="none" fill-opacity="0.8"/><path d="m 37.02,23.05 3.961,0 c 0.012,0 0.02,0 0.02,0.004 l 0,1.941 c 0,0 -0.008,0.004 -0.02,0.004 l -3.961,0 C 37.008,24.999 37,24.995 37,24.995 l 0,-1.941 c 0,-0.004 0.008,-0.004 0.02,-0.004 m 0,0" fill="#c52f2f" fill-rule="nonzero" stroke="none" fill-opacity="0.702"/><path d="m 37.02 20.06 3.961 0 c 0.012 0 0.02 0.004 0.02 0.004 l 0 1.93 c 0 0 -0.008 0 -0.02 0 l -3.961 0 c -0.012 0 -0.02 0 -0.02 0 l 0 -1.93 c 0 0 0.008 -0.004 0.02 -0.004 m 0 0" fill="#c52f2f" fill-rule="nonzero" stroke="none" fill-opacity="0.6"/><path d="m 37.02,17 3.961,0 c 0.012,0 0.02,0 0.02,0.004 l 0,1.988 c 0,0.004 -0.008,0.004 -0.02,0.004 l -3.961,0 c -0.012,0 -0.02,0 -0.02,-0.004 l 0,-1.988 C 37,17 37.008,17 37.02,17 m 0,0" fill="#c52f2f" fill-rule="nonzero" stroke="none" fill-opacity="0.502"/><path d="m 37.02,14 3.961,0 c 0.012,0 0.02,0.004 0.02,0.004 l 0,1.992 c 0,0 -0.008,0.004 -0.02,0.004 L 37.02,16 C 37.008,16 37,15.996 37,15.996 l 0,-1.992 c 0,0 0.008,-0.004 0.02,-0.004 m 0,0" fill="#c52f2f" fill-rule="nonzero" stroke="none" fill-opacity="0.4"/><path d="m 33.396 13.326 -1.51 1.439 c 5.376 5.64 5.376 14.83 0 20.471 l 1.51 1.439 c 6.154 -6.457 6.154 -16.893 0 -23.35 z m -9.396 0.174 l -9 7.5 -2 0 c -0.554 0 -1 0.446 -1 1 l 0 6 c 0 0.554 0.446 1 1 1 l 2 0 9 7.5 0 -9.799 1.498 -1.701 l -1.498 -1.701 0 -9.799 m 6.143 3.141 -1.508 1.439 c 3.619 3.808 3.62 10.03 0 13.842 l 1.508 1.432 c 4.395 -4.628 4.396 -12.09 0 -16.713 z m -3.121 3.143 -1.508 1.439 c 1.974 2.072 1.975 5.473 0 7.549 l 1.508 1.439 c 2.752 -2.892 2.753 -7.539 0 -10.428 z" visibility="visible" shape-rendering="auto" mix-blend-mode="normal" color-interpolation-filters="linearRGB" isolation="auto" white-space="normal" opacity="1" fill="#000" solid-opacity="1" image-rendering="auto" fill-opacity="0.098" solid-color="#000000" stroke="none" display="inline" color="#000" fill-rule="nonzero" color-rendering="auto" color-interpolation="sRGB"/><path d="m 26.02 18.783 -1.509 1.439 c 1.974 2.072 1.975 5.475 0 7.55 l 1.509 1.439 c 2.752 -2.892 2.753 -7.54 0 -10.429 z" visibility="visible" shape-rendering="auto" mix-blend-mode="normal" color-interpolation-filters="linearRGB" isolation="auto" white-space="normal" opacity="1" fill="#f9f9f9" solid-opacity="1" image-rendering="auto" fill-opacity="1" solid-color="#000000" stroke="none" display="inline" color="#000" fill-rule="nonzero" color-rendering="auto" color-interpolation="sRGB"/><path d="m 29.14 15.641 -1.509 1.439 c 3.619 3.808 3.62 10.03 0 13.841 l 1.509 1.433 c 4.395 -4.628 4.396 -12.09 0 -16.713 z" visibility="visible" shape-rendering="auto" mix-blend-mode="normal" color-interpolation-filters="linearRGB" isolation="auto" white-space="normal" opacity="1" fill="#f9f9f9" solid-opacity="1" image-rendering="auto" fill-opacity="1" solid-color="#000000" stroke="none" display="inline" color="#000" fill-rule="nonzero" color-rendering="auto" color-interpolation="sRGB"/><path d="m 32.396 12.326 -1.509 1.439 c 5.376 5.64 5.376 14.831 0 20.471 l 1.509 1.439 c 6.154 -6.457 6.154 -16.893 0 -23.35 z" visibility="visible" shape-rendering="auto" mix-blend-mode="normal" color-interpolation-filters="linearRGB" isolation="auto" white-space="normal" opacity="1" fill="#f9f9f9" solid-opacity="1" image-rendering="auto" fill-opacity="1" solid-color="#000000" stroke="none" display="inline" color="#000" fill-rule="nonzero" color-rendering="auto" color-interpolation="sRGB"/><path d="m 42 20 0 1.938 c 0 0.004 0.02 0 0.031 0 l 3.969 0.063 0 -2 -3.969 0 c -0.012 0 -0.031 0 -0.031 0 m 0 3 0 1.969 c 0 0.004 0.02 0 0.031 0 l 3.969 0 0 -1.969 -3.969 0 c -0.012 0 -0.031 -0.004 -0.031 0 m 0 3 0 1.969 c 0 0.004 0.02 0 0.031 0 l 3.969 0.031 0 -2 -3.969 0 c -0.012 0 -0.031 -0.004 -0.031 0 m 0 3 0 1.969 c 0 0.004 0.02 0 0.031 0 l 3.969 0.031 0 -2 -3.969 0 c -0.012 0 -0.031 -0.004 -0.031 0 m 0 3 0 2 c 0 0 0.02 0 0.031 0 l 3.969 0 0 -2 -3.969 0 c -0.012 0 -0.031 -0.004 -0.031 0 m 0 0" fill="#e4c82f" fill-rule="nonzero" stroke="none" fill-opacity="0.6"/></g></g><g><path d="m 40.03 7.531 c 3.712 4.084 5.969 9.514 5.969 15.469 0 12.703 -10.297 23 -23 23 c -5.954 0 -11.384 -2.256 -15.469 -5.969 4.178 4.291 10.01 6.969 16.469 6.969 c 12.703 0 23 -10.298 23 -23 0 -6.462 -2.677 -12.291 -6.969 -16.469 z" opacity="0.1"/></g><path d="m 23,12.5 -9,7.5 -2,0 c -0.554,0 -1,0.446 -1,1 l 0,6 c 0,0.554 0.446,1 1,1 l 2,0 9,7.5 0,-9.799 L 24.499,24 23,22.299 Z" fill="#f9f9f9" fill-rule="evenodd" stroke="none" fill-opacity="1"/></svg>