<svg viewBox="0 0 48 48"><defs><linearGradient id="linearGradient3764" x1="1" x2="47" gradientUnits="userSpaceOnUse" gradientTransform="matrix(0,-1,1,0,-1.5e-6,47.999998)"><stop stop-color="#efefef" stop-opacity="1"/><stop offset="1" stop-color="#f9f9f9" stop-opacity="1"/></linearGradient><clipPath id="clipPath-634691093"><g transform="translate(0,-1004.3622)"><path d="m -24 13 c 0 1.105 -0.672 2 -1.5 2 -0.828 0 -1.5 -0.895 -1.5 -2 0 -1.105 0.672 -2 1.5 -2 0.828 0 1.5 0.895 1.5 2 z" transform="matrix(15.333333,0,0,11.5,414.99999,878.8622)" fill="#1890d0"/></g></clipPath><clipPath id="clipPath-648647540"><g transform="translate(0,-1004.3622)"><path d="m -24 13 c 0 1.105 -0.672 2 -1.5 2 -0.828 0 -1.5 -0.895 -1.5 -2 0 -1.105 0.672 -2 1.5 -2 0.828 0 1.5 0.895 1.5 2 z" transform="matrix(15.333333,0,0,11.5,414.99999,878.8622)" fill="#1890d0"/></g></clipPath></defs><g><g transform="translate(0,-1004.3622)"><path d="m 25 1006.36 c -12.703 0 -23 10.298 -23 23 0 6.367 2.601 12.12 6.781 16.281 4.085 3.712 9.514 5.969 15.469 5.969 12.703 0 23 -10.297 23 -23 0 -5.954 -2.256 -11.384 -5.969 -15.469 -4.165 -4.181 -9.914 -6.781 -16.281 -6.781 z m 16.281 6.781 c 3.854 4.113 6.219 9.637 6.219 15.719 0 12.703 -10.297 23 -23 23 -6.081 0 -11.606 -2.364 -15.719 -6.219 4.16 4.144 9.883 6.719 16.219 6.719 12.703 0 23 -10.297 23 -23 0 -6.335 -2.575 -12.06 -6.719 -16.219 z" opacity="0.05"/><path d="m 41.28 1013.14 c 3.712 4.085 5.969 9.514 5.969 15.469 0 12.703 -10.297 23 -23 23 -5.954 0 -11.384 -2.256 -15.469 -5.969 4.113 3.854 9.637 6.219 15.719 6.219 12.703 0 23 -10.297 23 -23 0 -6.081 -2.364 -11.606 -6.219 -15.719 z" opacity="0.1"/><path transform="matrix(15.333333,0,0,11.5,415.24999,879.11222)" d="m -24 13 a 1.5 2 0 1 1 -3 0 1.5 2 0 1 1 3 0 z" opacity="0.2"/></g></g><g><path d="m 24 1 c 12.703 0 23 10.297 23 23 c 0 12.703 -10.297 23 -23 23 -12.703 0 -23 -10.297 -23 -23 0 -12.703 10.297 -23 23 -23 z" fill="url(#linearGradient3764)" fill-opacity="1"/></g><g/><g><g clip-path="url(#clipPath-634691093)"><g transform="translate(0,1)"><g opacity="0.1"><!-- color: #f9f9f9 --><g><path d="m 32 24 c 0 4.418 -3.582 8 -8 8 c -4.418 0 -8 -3.582 -8 -8 c 0 -4.418 3.582 -8 8 -8 c 4.418 0 8 3.582 8 8 m 0 0" fill="#000" stroke="none" fill-rule="nonzero" fill-opacity="1"/><path d="m 33.969 24 c 0 5.504 -4.465 9.969 -9.969 9.969 c -5.504 0 -9.969 -4.465 -9.969 -9.969 c 0 -5.504 4.465 -9.969 9.969 -9.969 c 5.504 0 9.969 4.465 9.969 9.969 m 0 0" fill="#000" stroke="none" fill-rule="nonzero" fill-opacity="1"/><path d="m 31.973 24 c 0 4.402 -3.57 7.973 -7.973 7.973 c -4.402 0 -7.973 -3.57 -7.973 -7.973 c 0 -4.402 3.57 -7.973 7.973 -7.973 c 4.402 0 7.973 3.57 7.973 7.973 m 0 0" fill="#000" stroke="none" fill-rule="nonzero" fill-opacity="1"/><path d="m 31.359 19.04 l 16.641 -0.039 c 0 -6 0 -13 0 -19 c -15.332 0 -30.668 0 -46 0 l 13.14 22.664 c 0.203 -1.301 0.672 -2.555 1.406 -3.656 c 0.738 -1.105 1.742 -2.043 2.969 -2.75 c 1.078 -0.625 2.215 -1.016 3.375 -1.156 c 1.16 -0.145 2.355 -0.051 3.469 0.25 c 1.113 0.297 2.16 0.793 3.094 1.5 c 0.762 0.57 1.348 1.363 1.906 2.188 m 0 0" fill="#000" stroke="none" fill-rule="nonzero" fill-opacity="1"/><path d="m 24.676 32.898 l -8.676 15.1 c 9 0 29 0 32 0 c 0 -4 0 -25 0 -31 l -18.445 0 c 1.027 0.824 1.965 1.895 2.555 3.086 c 0.586 1.188 0.895 2.527 0.895 3.945 c 0 1.242 -0.23 2.422 -0.684 3.5 c -0.457 1.078 -1.137 2.066 -1.953 2.879 c -0.813 0.816 -1.77 1.473 -2.844 1.93 c -0.879 0.371 -1.855 0.48 -2.848 0.559 m 0 0" fill="#000" stroke="none" fill-rule="nonzero" fill-opacity="1"/><path d="m 16.02 20.18 l -12.02 -20.18 c -2 0 -3 0 -4 0 c 0 8 0 41 0 48 c 7 0 12 0 18 0 l 9.262 -15.59 c -1.227 0.477 -2.543 0.695 -3.867 0.609 c -1.324 -0.086 -2.641 -0.484 -3.867 -1.195 c -1.074 -0.621 -1.984 -1.41 -2.688 -2.344 c -0.707 -0.934 -1.223 -2.02 -1.52 -3.129 c -0.297 -1.113 -0.391 -2.27 -0.246 -3.43 c 0.117 -0.945 0.508 -1.848 0.941 -2.746 m 0 0" fill="#000" stroke="none" fill-rule="nonzero" fill-opacity="1"/><path d="m 33 24 c 0 4.973 -4.03 9 -9 9 c -4.969 0 -9 -4.03 -9 -9 c 0 -4.969 4.03 -9 9 -9 c 4.973 0 9 4.03 9 9 m 0 0" fill="#000" stroke="none" fill-rule="nonzero" fill-opacity="1"/><path d="m 31 24 c 0 3.867 -3.133 7 -7 7 c -3.867 0 -7 -3.133 -7 -7 c 0 -3.867 3.133 -7 7 -7 c 3.867 0 7 3.133 7 7 m 0 0" fill="#000" stroke="none" fill-rule="nonzero" fill-opacity="1"/></g></g></g></g></g><g><g clip-path="url(#clipPath-648647540)"><!-- color: #f9f9f9 --><g><path d="m 32 24 c 0 4.418 -3.582 8 -8 8 c -4.418 0 -8 -3.582 -8 -8 c 0 -4.418 3.582 -8 8 -8 c 4.418 0 8 3.582 8 8 m 0 0" fill="#209dc9" stroke="none" fill-rule="nonzero" fill-opacity="1"/><path d="m 33.969 24 c 0 5.504 -4.465 9.969 -9.969 9.969 c -5.504 0 -9.969 -4.465 -9.969 -9.969 c 0 -5.504 4.465 -9.969 9.969 -9.969 c 5.504 0 9.969 4.465 9.969 9.969 m 0 0" fill="#f9f9f9" stroke="none" fill-rule="nonzero" fill-opacity="1"/><path d="m 31.973 24 c 0 4.402 -3.57 7.973 -7.973 7.973 c -4.402 0 -7.973 -3.57 -7.973 -7.973 c 0 -4.402 3.57 -7.973 7.973 -7.973 c 4.402 0 7.973 3.57 7.973 7.973 m 0 0" fill="#229fca" stroke="none" fill-rule="nonzero" fill-opacity="1"/><path d="m 31.359 19.04 l 16.641 -0.039 c 0 -6 0 -13 0 -19 c -15.332 0 -30.668 0 -46 0 l 13.14 22.664 c 0.203 -1.301 0.672 -2.555 1.406 -3.656 c 0.738 -1.105 1.742 -2.043 2.969 -2.75 c 1.078 -0.625 2.215 -1.016 3.375 -1.156 c 1.16 -0.145 2.355 -0.051 3.469 0.25 c 1.113 0.297 2.16 0.793 3.094 1.5 c 0.762 0.57 1.348 1.363 1.906 2.188 m 0 0" fill="#d94336" stroke="none" fill-rule="nonzero" fill-opacity="1"/><path d="m 24.676 32.898 l -8.676 15.1 c 9 0 29 0 32 0 c 0 -4 0 -25 0 -31 l -18.445 0 c 1.027 0.824 1.965 1.895 2.555 3.086 c 0.586 1.188 0.895 2.527 0.895 3.945 c 0 1.242 -0.23 2.422 -0.684 3.5 c -0.457 1.078 -1.137 2.066 -1.953 2.879 c -0.813 0.816 -1.77 1.473 -2.844 1.93 c -0.879 0.371 -1.855 0.48 -2.848 0.559 m 0 0" fill="#e3a600" stroke="none" fill-rule="nonzero" fill-opacity="1"/><path d="m 16.02 20.18 l -12.02 -20.18 c -2 0 -3 0 -4 0 c 0 8 0 41 0 48 c 7 0 12 0 18 0 l 9.262 -15.59 c -1.227 0.477 -2.543 0.695 -3.867 0.609 c -1.324 -0.086 -2.641 -0.484 -3.867 -1.195 c -1.074 -0.621 -1.984 -1.41 -2.688 -2.344 c -0.707 -0.934 -1.223 -2.02 -1.52 -3.129 c -0.297 -1.113 -0.391 -2.27 -0.246 -3.43 c 0.117 -0.945 0.508 -1.848 0.941 -2.746 m 0 0" fill="#0f8f52" stroke="none" fill-rule="nonzero" fill-opacity="1"/><path d="m 33 24 c 0 4.973 -4.03 9 -9 9 c -4.969 0 -9 -4.03 -9 -9 c 0 -4.969 4.03 -9 9 -9 c 4.973 0 9 4.03 9 9 m 0 0" fill="#f9f9f9" stroke="none" fill-rule="nonzero" fill-opacity="1"/><path d="m 31 24 c 0 3.867 -3.133 7 -7 7 c -3.867 0 -7 -3.133 -7 -7 c 0 -3.867 3.133 -7 7 -7 c 3.867 0 7 3.133 7 7 m 0 0" fill="#3d7de5" stroke="none" fill-rule="nonzero" fill-opacity="1"/></g></g></g><g><path d="m 40.03 7.531 c 3.712 4.084 5.969 9.514 5.969 15.469 0 12.703 -10.297 23 -23 23 c -5.954 0 -11.384 -2.256 -15.469 -5.969 4.178 4.291 10.01 6.969 16.469 6.969 c 12.703 0 23 -10.298 23 -23 0 -6.462 -2.677 -12.291 -6.969 -16.469 z" opacity="0.1"/></g></svg>