<svg viewBox="0 0 48 48"><defs><linearGradient id="1" gradientUnits="userSpaceOnUse" y1="15" x2="0" y2="11" gradientTransform="matrix(15.333333,0,0,11.5,414.99999,-125.5)"><stop/><stop offset="1" stop-opacity="0"/></linearGradient><clipPath id="clipPath-346943270"><g transform="translate(0,-1004.3622)"><path d="m -24 13 c 0 1.105 -0.672 2 -1.5 2 -0.828 0 -1.5 -0.895 -1.5 -2 0 -1.105 0.672 -2 1.5 -2 0.828 0 1.5 0.895 1.5 2 z" transform="matrix(15.333333,0,0,11.5,414.99999,878.8622)" fill="#1890d0"/></g></clipPath><clipPath id="clipPath-357861514"><g transform="translate(0,-1004.3622)"><path d="m -24 13 c 0 1.105 -0.672 2 -1.5 2 -0.828 0 -1.5 -0.895 -1.5 -2 0 -1.105 0.672 -2 1.5 -2 0.828 0 1.5 0.895 1.5 2 z" transform="matrix(15.333333,0,0,11.5,414.99999,878.8622)" fill="#1890d0"/></g></clipPath></defs><g><g transform="translate(0,-1004.3622)"><path d="m 25 1006.36 c -12.703 0 -23 10.298 -23 23 0 6.367 2.601 12.12 6.781 16.281 4.085 3.712 9.514 5.969 15.469 5.969 12.703 0 23 -10.297 23 -23 0 -5.954 -2.256 -11.384 -5.969 -15.469 -4.165 -4.181 -9.914 -6.781 -16.281 -6.781 z m 16.281 6.781 c 3.854 4.113 6.219 9.637 6.219 15.719 0 12.703 -10.297 23 -23 23 -6.081 0 -11.606 -2.364 -15.719 -6.219 4.16 4.144 9.883 6.719 16.219 6.719 12.703 0 23 -10.297 23 -23 0 -6.335 -2.575 -12.06 -6.719 -16.219 z" opacity="0.05"/><path d="m 41.28 1013.14 c 3.712 4.085 5.969 9.514 5.969 15.469 0 12.703 -10.297 23 -23 23 -5.954 0 -11.384 -2.256 -15.469 -5.969 4.113 3.854 9.637 6.219 15.719 6.219 12.703 0 23 -10.297 23 -23 0 -6.081 -2.364 -11.606 -6.219 -15.719 z" opacity="0.1"/><path transform="matrix(15.333333,0,0,11.5,415.24999,879.11222)" d="m -24 13 a 1.5 2 0 1 1 -3 0 1.5 2 0 1 1 3 0 z" opacity="0.2"/></g></g><g><g transform="translate(0,-1004.3622)"><path d="m -24 13 c 0 1.105 -0.672 2 -1.5 2 -0.828 0 -1.5 -0.895 -1.5 -2 0 -1.105 0.672 -2 1.5 -2 0.828 0 1.5 0.895 1.5 2 z" transform="matrix(15.333333,0,0,11.5,414.99999,878.8622)" fill="#f5b03f"/></g></g><g><path d="m 47 24 c 0 12.703 -10.297 23 -23 23 -12.703 0 -23 -10.297 -23 -23 0 -12.703 10.297 -23 23 -23 12.703 0 23 10.297 23 23 z" opacity="0.15" fill="url(#1)"/></g><g><g clip-path="url(#clipPath-346943270)"><g transform="translate(0,1)"><g opacity="0.1"><!-- color: #f5b03f --><g><path d="m 23.672 9 c -7.582 0 -13.84 6.141 -14.613 14.07 c -0.004 0.02 0 0.047 0 0.07 c 0 0.008 0 0.016 0 0.023 c -0.004 0.027 0 0.047 0 0.074 c -0.086 1.141 -0.066 2.078 0 3.141 c 2.961 12.898 11.824 11.895 11.824 8.141 l -4.01 -6.922 c -0.871 -0.586 -1.762 0.418 -2.594 0.961 c -1.066 0.707 -1.152 0.813 -1.762 -0.797 c -0.719 -1.898 -1.086 -4.98 0 -7.508 c 2.246 -5.25 6.457 -8.176 11.152 -8.262 c 0.234 0 0.465 0 0.699 0 c 4.672 0.102 8.867 3.03 11.11 8.262 c 1.082 2.527 0.719 5.605 0 7.508 c -0.609 1.609 -0.699 1.504 -1.766 0.797 c -0.824 -0.547 -1.723 -1.547 -2.594 -0.961 l -4.01 6.922 c 0 3.75 8.867 4.758 11.828 -8.141 c 0.063 -1.063 0.086 -2 0 -3.141 c -0.004 -0.027 0.004 -0.047 0 -0.074 c 0 -0.004 0 -0.012 0 -0.023 c -0.004 -0.02 0.004 -0.047 0 -0.07 c -0.777 -7.938 -6.992 -14.07 -14.574 -14.07 c -0.699 0 0 0 -0.699 0 m 0.004 0" fill="#000" stroke="none" fill-rule="nonzero" fill-opacity="1"/><path d="m 34.2 24.18 c -1.168 0.293 -2.145 1.359 -2.145 1.359 l 0.031 0.035 l 1.863 6.934 c -1.332 -0.727 -3.238 -0.543 -4.816 0.598 c -2.035 1.473 -2.746 3.984 -1.566 5.602 c 1.18 1.617 3.785 1.73 5.82 0.258 c 1.605 -1.16 2.504 -2.992 2.18 -4.496 c -0.012 -0.047 -0.023 -0.09 -0.039 -0.137 l -1.789 -6.93 c 0.043 -0.059 0.563 -0.301 2.254 -0.414 c 1.793 -0.121 3 -2.988 3 -2.988 c 0 0 -2.01 0.77 -3.594 0.211 c -0.398 -0.141 -0.813 -0.133 -1.203 -0.035 m 0.004 0.004" fill="#000" stroke="none" fill-rule="nonzero" fill-opacity="1"/></g></g></g></g></g><g><g clip-path="url(#clipPath-357861514)"><!-- color: #f5b03f --><g><path d="m 23.672 9 c -7.582 0 -13.84 6.141 -14.613 14.07 c -0.004 0.02 0 0.047 0 0.07 c 0 0.008 0 0.016 0 0.023 c -0.004 0.027 0 0.047 0 0.074 c -0.086 1.141 -0.066 2.078 0 3.141 c 2.961 12.898 11.824 11.895 11.824 8.141 l -4.01 -6.922 c -0.871 -0.586 -1.762 0.418 -2.594 0.961 c -1.066 0.707 -1.152 0.813 -1.762 -0.797 c -0.719 -1.898 -1.086 -4.98 0 -7.508 c 2.246 -5.25 6.457 -8.176 11.152 -8.262 c 0.234 0 0.465 0 0.699 0 c 4.672 0.102 8.867 3.03 11.11 8.262 c 1.082 2.527 0.719 5.605 0 7.508 c -0.609 1.609 -0.699 1.504 -1.766 0.797 c -0.824 -0.547 -1.723 -1.547 -2.594 -0.961 l -4.01 6.922 c 0 3.75 8.867 4.758 11.828 -8.141 c 0.063 -1.063 0.086 -2 0 -3.141 c -0.004 -0.027 0.004 -0.047 0 -0.074 c 0 -0.004 0 -0.012 0 -0.023 c -0.004 -0.02 0.004 -0.047 0 -0.07 c -0.777 -7.938 -6.992 -14.07 -14.574 -14.07 c -0.699 0 0 0 -0.699 0 m 0.004 0" fill="#eaeaea" stroke="none" fill-rule="nonzero" fill-opacity="1"/><path d="m 34.2 24.18 c -1.168 0.293 -2.145 1.359 -2.145 1.359 l 0.031 0.035 l 1.863 6.934 c -1.332 -0.727 -3.238 -0.543 -4.816 0.598 c -2.035 1.473 -2.746 3.984 -1.566 5.602 c 1.18 1.617 3.785 1.73 5.82 0.258 c 1.605 -1.16 2.504 -2.992 2.18 -4.496 c -0.012 -0.047 -0.023 -0.09 -0.039 -0.137 l -1.789 -6.93 c 0.043 -0.059 0.563 -0.301 2.254 -0.414 c 1.793 -0.121 3 -2.988 3 -2.988 c 0 0 -2.01 0.77 -3.594 0.211 c -0.398 -0.141 -0.813 -0.133 -1.203 -0.035 m 0.004 0.004" fill="#ff4646" stroke="none" fill-rule="nonzero" fill-opacity="1"/></g></g></g><g><path d="m 40.03 7.531 c 3.712 4.084 5.969 9.514 5.969 15.469 0 12.703 -10.297 23 -23 23 c -5.954 0 -11.384 -2.256 -15.469 -5.969 4.178 4.291 10.01 6.969 16.469 6.969 c 12.703 0 23 -10.298 23 -23 0 -6.462 -2.677 -12.291 -6.969 -16.469 z" opacity="0.1"/></g></svg>