<svg xmlns="http://www.w3.org/2000/svg" viewBox="0 0 48 48">
 <defs>
  <linearGradient id="linearGradient3764" x1="1" x2="47" gradientUnits="userSpaceOnUse" gradientTransform="matrix(0,-1,1,0,-1.5e-6,47.999998)">
   <stop style="stop-color:#e4e4e4;stop-opacity:1"/>
   <stop offset="1" style="stop-color:#eee;stop-opacity:1"/>
  </linearGradient>
  <linearGradient id="linearGradient4179" y1="37" x2="0" y2="11" gradientUnits="userSpaceOnUse">
   <stop style="stop-color:#b4b4b4;stop-opacity:1"/>
   <stop offset="1" style="stop-color:#bebebe;stop-opacity:1"/>
  </linearGradient>
 </defs>
 <g>
  <path d="m 36.31 5 c 5.859 4.062 9.688 10.831 9.688 18.5 c 0 12.426 -10.07 22.5 -22.5 22.5 c -7.669 0 -14.438 -3.828 -18.5 -9.688 c 1.037 1.822 2.306 3.499 3.781 4.969 c 4.085 3.712 9.514 5.969 15.469 5.969 c 12.703 0 23 -10.298 23 -23 c 0 -5.954 -2.256 -11.384 -5.969 -15.469 c -1.469 -1.475 -3.147 -2.744 -4.969 -3.781 z m 4.969 3.781 c 3.854 4.113 6.219 9.637 6.219 15.719 c 0 12.703 -10.297 23 -23 23 c -6.081 0 -11.606 -2.364 -15.719 -6.219 c 4.16 4.144 9.883 6.719 16.219 6.719 c 12.703 0 23 -10.298 23 -23 c 0 -6.335 -2.575 -12.06 -6.719 -16.219 z" style="opacity:0.05"/>
  <path d="m 41.28 8.781 c 3.712 4.085 5.969 9.514 5.969 15.469 c 0 12.703 -10.297 23 -23 23 c -5.954 0 -11.384 -2.256 -15.469 -5.969 c 4.113 3.854 9.637 6.219 15.719 6.219 c 12.703 0 23 -10.298 23 -23 c 0 -6.081 -2.364 -11.606 -6.219 -15.719 z" style="opacity:0.1"/>
  <path d="m 31.25 2.375 c 8.615 3.154 14.75 11.417 14.75 21.13 c 0 12.426 -10.07 22.5 -22.5 22.5 c -9.708 0 -17.971 -6.135 -21.12 -14.75 a 23 23 0 0 0 44.875 -7 a 23 23 0 0 0 -16 -21.875 z" style="opacity:0.2"/>
 </g>
 <g>
  <path d="m 24 1 c 12.703 0 23 10.297 23 23 c 0 12.703 -10.297 23 -23 23 -12.703 0 -23 -10.297 -23 -23 0 -12.703 10.297 -23 23 -23 z" style="fill:url(#linearGradient3764);fill-opacity:1"/>
 </g>
 <g>
  <path d="m 40.03 7.531 c 3.712 4.084 5.969 9.514 5.969 15.469 0 12.703 -10.297 23 -23 23 c -5.954 0 -11.384 -2.256 -15.469 -5.969 4.178 4.291 10.01 6.969 16.469 6.969 c 12.703 0 23 -10.298 23 -23 0 -6.462 -2.677 -12.291 -6.969 -16.469 z" style="opacity:0.1"/>
 </g>
 <rect rx="1.5" y="12" x="12" height="26" width="26" style="fill:#000;fill-opacity:0.098"/>
 <g transform="translate(0,-1.4111914e-6)">
  <rect rx="1.5" y="11" x="11" height="26" width="26" style="fill:url(#linearGradient4179);fill-opacity:1"/>
  <path d="m 12.5 11 c -0.831 0 -1.5 0.669 -1.5 1.5 l 0 3.5 l 26 0 l 0 -3.5 c 0 -0.831 -0.669 -1.5 -1.5 -1.5 l -23 0 z" transform="translate(0,1.4111914e-6)" style="fill:#000;fill-opacity:0.098"/>
  <g>
   <rect width="18" height="5" x="15" y="30" rx="1" style="fill:#da6464;fill-opacity:1"/>
   <rect rx="1" y="23" x="15" height="5" width="18" style="fill:#649eda;fill-opacity:1"/>
  </g>
 </g>
 <rect width="3" height="3" x="32" y="12" rx="0.5" style="fill:#000;opacity:1;fill-opacity:0.078;stroke:none"/>
 <path d="m 34.1 12.5 -0.6 0.6 -0.6 -0.6 -0.4 0.4 0.6 0.6 -0.6 0.6 0.4 0.4 0.6 -0.6 0.6 0.6 0.4 -0.4 -0.6 -0.6 0.6 -0.6 -0.4 -0.4 z" style="fill:#787878;opacity:0.98;fill-opacity:1;stroke:none"/>
 <g transform="scale(0.9615527,1.0399846)" style="fill:#646464;fill-opacity:1;stroke:none">
  <path d="m 14 18 l 0 3 l 0.652 0 c 0.296 0 0.453 -0.004 0.686 -0.061 c 0.6 -0.195 0.949 -0.719 0.949 -1.547 c 0 -0.919 -0.548 -1.393 -1.402 -1.393 l -0.885 0 z m 6.744 0 c -0.652 0 -0.738 0.542 -0.738 0.76 l 0 0.24 l -0.301 0 l 0 0.418 l 0.301 0 l 0 1.582 l 0.461 0 l 0 -1.582 l 0.668 0 l 0 -0.418 l -0.668 0 l 0 -0.256 c 0 -0.189 0.151 -0.346 0.387 -0.346 c 0.109 0 0.229 0.029 0.281 0.041 l 0.074 0.021 l 0.068 -0.357 l -0.064 -0.021 c -0.221 -0.074 -0.371 -0.082 -0.469 -0.082 z m 5.057 0 l 0 3 l 0.326 0 l 0.037 -0.156 c 0.161 0.103 0.323 0.156 0.484 0.156 c 0.588 0 0.934 -0.4 0.934 -1.043 c 0 -0.622 -0.338 -1.025 -0.889 -1.025 c -0.176 0 -0.323 0.024 -0.436 0.082 l 0 -1.014 l -0.457 0 z m 7.33 0 c -0.33 0 -0.559 0.093 -0.811 0.223 l 0.15 0.451 c 0.217 -0.134 0.424 -0.195 0.615 -0.195 c 0.259 0 0.453 0.104 0.453 0.359 c 0 0.105 -0.024 0.192 -0.072 0.268 c -0.289 0.427 -0.682 0.475 -0.682 1.049 l 0.465 0 c 0 -0.239 0.127 -0.315 0.359 -0.541 c 0.21 -0.201 0.391 -0.37 0.391 -0.793 c 0 -0.536 -0.386 -0.82 -0.869 -0.82 z m -18.67 0.49 l 0.436 0 c 0.596 0 0.93 0.324 0.93 0.975 c 0 0.772 -0.402 1.045 -1.055 1.045 l -0.311 0 l 0 -2.02 z m 3.064 0.475 c -0.577 0 -0.943 0.397 -0.943 1.018 c 0 0.608 0.366 1.018 0.936 1.018 c 0.57 0 0.945 -0.413 0.945 -1.025 c 0 -0.608 -0.368 -1.01 -0.938 -1.01 z m 4.781 0 c -0.577 0 -0.945 0.397 -0.945 1.018 c 0 0.608 0.368 1.018 0.938 1.018 c 0.57 0 0.945 -0.413 0.945 -1.025 c 0 -0.608 -0.368 -1.01 -0.938 -1.01 z m 2.166 0 c -0.577 0 -0.943 0.397 -0.943 1.018 c 0 0.608 0.368 1.018 0.938 1.018 c 0.57 0 0.943 -0.413 0.943 -1.025 c 0 -0.608 -0.368 -1.01 -0.938 -1.01 z m 4.154 0 c -0.157 0 -0.36 0.046 -0.607 0.135 l 0.072 0.34 c 0.169 -0.069 0.322 -0.105 0.465 -0.105 c 0.341 0 0.438 0.085 0.438 0.43 l -0.371 0.02 c -0.42 0.024 -0.76 0.199 -0.76 0.633 c 0 0.373 0.289 0.584 0.648 0.584 c 0.214 0 0.389 -0.06 0.531 -0.178 l 0.053 0.178 l 0.359 0 l 0 -1.244 c 0 -0.564 -0.266 -0.791 -0.828 -0.791 z m 1.303 0.035 l 0 2 l 0.449 0 l 0 -1.504 c 0.094 -0.045 0.196 -0.068 0.301 -0.068 c 0.154 0 0.282 0.036 0.391 0.105 l 0.021 -0.01 l 0.09 -0.445 c -0.105 -0.053 -0.218 -0.078 -0.334 -0.078 c -0.191 0 -0.37 0.056 -0.539 0.17 l -0.057 -0.17 l -0.322 0 z m -3.342 0.322 c 0.356 0 0.533 0.223 0.533 0.664 c 0 0.404 -0.193 0.623 -0.549 0.623 c -0.12 0 -0.224 -0.034 -0.314 -0.1 l 0 -1.121 c 0.094 -0.045 0.206 -0.066 0.33 -0.066 z m -9.07 0.027 c 0.311 0 0.484 0.28 0.484 0.633 c 0 0.357 -0.162 0.629 -0.484 0.629 c -0.307 0 -0.475 -0.284 -0.475 -0.629 c 0 -0.341 0.167 -0.633 0.475 -0.633 z m 4.781 0 c 0.311 0 0.484 0.28 0.484 0.633 c 0 0.357 -0.162 0.629 -0.484 0.629 c -0.307 0 -0.477 -0.284 -0.477 -0.629 c 0 -0.341 0.169 -0.633 0.477 -0.633 z m 2.168 0 c 0.311 0 0.482 0.28 0.482 0.633 c 0 0.357 -0.16 0.629 -0.482 0.629 c -0.307 0 -0.477 -0.284 -0.477 -0.629 c 0 -0.341 0.169 -0.633 0.477 -0.633 z m 4.527 0.758 l 0 0.41 c -0.097 0.065 -0.206 0.113 -0.371 0.113 c -0.165 0 -0.299 -0.078 -0.299 -0.252 c 0 -0.15 0.115 -0.234 0.352 -0.246 l 0.318 -0.025 z m 4.02 0.303 c -0.146 0 -0.266 0.13 -0.266 0.293 c 0 0.163 0.119 0.297 0.266 0.297 c 0.146 0 0.264 -0.133 0.264 -0.297 c 0 -0.163 -0.117 -0.293 -0.264 -0.293 z" transform="scale(1.0399846,0.9615527)"/>
 </g>
 <g transform="scale(0.98578567,1.0144193)" style="fill:#f0f0f0;fill-opacity:1;stroke:none">
  <path d="m 19.781 23.659 0 2.957 0.753 0 c 0.342 0 0.523 -0.004 0.791 -0.06 0.691 -0.192 1.094 -0.709 1.094 -1.525 0 -0.906 -0.631 -1.373 -1.617 -1.373 l -1.02 0 z m 6.804 0 c -0.169 0 -0.319 0.15 -0.319 0.317 0 0.168 0.151 0.319 0.319 0.319 0.169 0 0.321 -0.152 0.321 -0.319 0 -0.168 -0.153 -0.317 -0.321 -0.317 z m 0.982 0 0 0.695 -0.346 0 0 0.443 0.346 0 0 1.059 c 0 0.391 0.091 0.76 0.753 0.76 0.198 0 0.445 -0.065 0.591 -0.125 l -0.077 -0.39 c -0.078 0.023 -0.239 0.065 -0.387 0.065 -0.285 0 -0.355 -0.153 -0.35 -0.323 l 0 -1.046 0.717 0 0 -0.443 -0.717 0 0 -0.695 z m -7.253 0.483 0.5 0 c 0.687 0 1.071 0.319 1.071 0.961 0 0.761 -0.461 1.03 -1.214 1.03 l -0.358 0 0 -1.991 z m 3.534 0.503 c -0.666 0 -1.09 0.384 -1.09 0.986 0 0.59 0.424 0.986 1.081 0.986 0.657 0 1.09 -0.4 1.09 -0.996 0 -0.59 -0.424 -0.978 -1.081 -0.978 z m 2.479 0 0 1.972 0.519 0 0 -1.972 z m -2.487 0.374 c 0.359 0 0.556 0.27 0.556 0.612 0 0.346 -0.185 0.608 -0.556 0.608 -0.355 0 -0.548 -0.275 -0.548 -0.608 0 -0.33 0.194 -0.612 0.548 -0.612 z"/>
 </g>
 <g transform="scale(1.013613,0.98656982)" style="fill:#f0f0f0;fill-opacity:1;stroke:none">
  <path d="m 29.521 31 l 0 2.443 c 0 0.28 0.09 0.557 0.521 0.557 c 0.233 0 0.457 -0.1 0.457 -0.1 l -0.084 -0.301 c 0 0 -0.065 0.014 -0.137 0.014 c -0.199 0 -0.236 -0.121 -0.236 -0.314 l 0 -2.299 l -0.521 0 z m -10.467 0.049 c -0.915 0 -1.555 0.573 -1.555 1.459 c 0 0.894 0.613 1.492 1.545 1.492 c 0.267 0 0.572 -0.066 0.906 -0.193 l 0.072 -0.029 l -0.17 -0.416 l -0.076 0.033 c -0.25 0.095 -0.465 0.141 -0.639 0.141 c -0.673 0 -1.117 -0.389 -1.117 -1.027 c 0 -0.585 0.414 -0.992 1.041 -0.992 c 0.288 0 0.418 0.019 0.668 0.102 l 0.082 0.029 l 0.178 -0.404 l -0.09 -0.031 c -0.267 -0.107 -0.545 -0.162 -0.846 -0.162 z m 2.145 0.951 c -0.178 0 -0.406 0.043 -0.686 0.131 l 0.08 0.336 c 0.191 -0.068 0.365 -0.104 0.525 -0.104 c 0.385 0 0.496 0.083 0.496 0.422 l -0.42 0.02 c -0.474 0.024 -0.859 0.195 -0.859 0.621 c 0 0.367 0.326 0.574 0.732 0.574 c 0.241 0 0.441 -0.06 0.602 -0.176 l 0.059 0.176 l 0.406 0 l 0 -1.223 c 0 -0.554 -0.3 -0.777 -0.936 -0.777 z m 1.471 0 l 0 2 l 0.521 0 l 0 -1.471 c 0.207 -0.073 0.368 -0.111 0.486 -0.111 c 0.254 0 0.365 0.167 0.365 0.395 l 0 1.188 l 0.52 0 l 0 -1.127 c 0 -0.533 -0.168 -0.873 -0.748 -0.873 c -0.229 0 -0.466 0.056 -0.703 0.17 l -0.076 -0.17 l -0.365 0 z m 3.385 0 c -0.656 0 -1.07 0.386 -1.07 1 c 0 0.598 0.427 1 1.07 1 c 0.343 0 0.567 -0.072 0.787 -0.188 l -0.145 -0.314 c -0.212 0.08 -0.309 0.115 -0.559 0.115 c -0.398 0 -0.635 -0.255 -0.635 -0.613 c 0 -0.375 0.22 -0.621 0.635 -0.621 c 0.25 0 0.347 0.036 0.559 0.115 l 0.145 -0.318 c -0.25 -0.112 -0.431 -0.176 -0.787 -0.176 z m 2.061 0 c -0.58 0 -0.957 0.446 -0.957 1 c 0 0.622 0.406 1 1.092 1 c 0.254 0 0.496 -0.043 0.729 -0.119 l -0.088 -0.326 c -0.174 0.04 -0.365 0.059 -0.572 0.059 c -0.39 0 -0.609 -0.15 -0.639 -0.449 l 1.4 0 l 0 -0.188 c 0 -0.625 -0.326 -0.977 -0.965 -0.977 z m 0.008 0.379 c 0.288 0 0.449 0.139 0.449 0.445 l -0.881 0 c 0.013 -0.271 0.173 -0.445 0.432 -0.445 z m -6.508 0.744 l 0 0.402 c -0.11 0.064 -0.234 0.111 -0.42 0.111 c -0.186 0 -0.338 -0.075 -0.338 -0.246 c 0 -0.147 0.132 -0.232 0.398 -0.244 l 0.359 -0.023 z" transform="scale(0.98656982,1.013613)"/>
 </g>
</svg>
