<?xml version="1.0" encoding="UTF-8" standalone="no"?>
<svg
   xmlns:dc="http://purl.org/dc/elements/1.1/"
   xmlns:cc="http://creativecommons.org/ns#"
   xmlns:rdf="http://www.w3.org/1999/02/22-rdf-syntax-ns#"
   xmlns:svg="http://www.w3.org/2000/svg"
   xmlns="http://www.w3.org/2000/svg"
   xmlns:xlink="http://www.w3.org/1999/xlink"
   xmlns:sodipodi="http://sodipodi.sourceforge.net/DTD/sodipodi-0.dtd"
   xmlns:inkscape="http://www.inkscape.org/namespaces/inkscape"
   viewBox="0 0 48 48"
   id="svg2"
   version="1.1"
   inkscape:version="0.48.5 r10040"
   width="100%"
   height="100%"
   sodipodi:docname="gwc.svg"
   inkscape:export-filename="/home/ismael/Imágenes/icons.png"
   inkscape:export-xdpi="245"
   inkscape:export-ydpi="245">
  <metadata
     id="metadata61">
    <rdf:RDF>
      <cc:Work
         rdf:about="">
        <dc:format>image/svg+xml</dc:format>
        <dc:type
           rdf:resource="http://purl.org/dc/dcmitype/StillImage" />
        <dc:title></dc:title>
      </cc:Work>
    </rdf:RDF>
  </metadata>
  <sodipodi:namedview
     pagecolor="#ffffff"
     bordercolor="#666666"
     borderopacity="1"
     objecttolerance="10"
     gridtolerance="10"
     guidetolerance="10"
     inkscape:pageopacity="0"
     inkscape:pageshadow="2"
     inkscape:window-width="1366"
     inkscape:window-height="737"
     id="namedview59"
     showgrid="false"
     inkscape:zoom="12.021277"
     inkscape:cx="23.646796"
     inkscape:cy="25.195309"
     inkscape:window-x="0"
     inkscape:window-y="0"
     inkscape:window-maximized="1"
     inkscape:current-layer="svg2">
    <inkscape:grid
       type="xygrid"
       id="grid3038" />
  </sodipodi:namedview>
  <defs
     id="defs4">
    <inkscape:path-effect
       effect="skeletal"
       id="path-effect3057"
       is_visible="true"
       pattern="M 0,5 C 0,2.24 2.24,0 5,0 7.76,0 10,2.24 10,5 10,7.76 7.76,10 5,10 2.24,10 0,7.76 0,5 z"
       copytype="single_stretched"
       prop_scale="1"
       scale_y_rel="false"
       spacing="0"
       normal_offset="0"
       tang_offset="0"
       prop_units="false"
       vertical_pattern="false"
       fuse_tolerance="0" />
    <inkscape:path-effect
       is_visible="true"
       id="path-effect3052"
       effect="spiro" />
    <inkscape:path-effect
       effect="spiro"
       id="path-effect3042"
       is_visible="true" />
    <linearGradient
       id="linearGradient3764"
       x1="1"
       x2="47"
       gradientUnits="userSpaceOnUse"
       gradientTransform="matrix(0,-1,1,0,-1.5e-6,47.999998)">
      <stop
         stop-color="#333"
         stop-opacity="1"
         id="stop7"
         offset="0"
         style="stop-color:#596679;stop-opacity:1;" />
      <stop
         offset="1"
         stop-color="#3d3d3d"
         stop-opacity="1"
         id="stop9"
         style="stop-color:#616f85;stop-opacity:1;" />
    </linearGradient>
    <clipPath
       id="clipPath-799970715">
      <g
         transform="translate(0,-1004.3622)"
         id="g12">
        <path
           d="m -24 13 c 0 1.105 -0.672 2 -1.5 2 -0.828 0 -1.5 -0.895 -1.5 -2 0 -1.105 0.672 -2 1.5 -2 0.828 0 1.5 0.895 1.5 2 z"
           transform="matrix(15.333333,0,0,11.5,414.99999,878.8622)"
           fill="#1890d0"
           id="path14" />
      </g>
    </clipPath>
    <clipPath
       id="clipPath-808101755">
      <g
         transform="translate(0,-1004.3622)"
         id="g17">
        <path
           d="m -24 13 c 0 1.105 -0.672 2 -1.5 2 -0.828 0 -1.5 -0.895 -1.5 -2 0 -1.105 0.672 -2 1.5 -2 0.828 0 1.5 0.895 1.5 2 z"
           transform="matrix(15.333333,0,0,11.5,414.99999,878.8622)"
           fill="#1890d0"
           id="path19" />
      </g>
    </clipPath>
    <linearGradient
       inkscape:collect="always"
       xlink:href="#linearGradient3764"
       id="linearGradient3202"
       x1="23.458406"
       y1="46.918583"
       x2="23.624779"
       y2="1.0831858"
       gradientUnits="userSpaceOnUse" />
  </defs>
  <g
     id="g21">
    <path
       d="m 36.31 5 c 5.859 4.062 9.688 10.831 9.688 18.5 c 0 12.426 -10.07 22.5 -22.5 22.5 c -7.669 0 -14.438 -3.828 -18.5 -9.688 c 1.037 1.822 2.306 3.499 3.781 4.969 c 4.085 3.712 9.514 5.969 15.469 5.969 c 12.703 0 23 -10.298 23 -23 c 0 -5.954 -2.256 -11.384 -5.969 -15.469 c -1.469 -1.475 -3.147 -2.744 -4.969 -3.781 z m 4.969 3.781 c 3.854 4.113 6.219 9.637 6.219 15.719 c 0 12.703 -10.297 23 -23 23 c -6.081 0 -11.606 -2.364 -15.719 -6.219 c 4.16 4.144 9.883 6.719 16.219 6.719 c 12.703 0 23 -10.298 23 -23 c 0 -6.335 -2.575 -12.06 -6.719 -16.219 z"
       opacity="0.05"
       id="path23" />
    <path
       d="m 41.28 8.781 c 3.712 4.085 5.969 9.514 5.969 15.469 c 0 12.703 -10.297 23 -23 23 c -5.954 0 -11.384 -2.256 -15.469 -5.969 c 4.113 3.854 9.637 6.219 15.719 6.219 c 12.703 0 23 -10.298 23 -23 c 0 -6.081 -2.364 -11.606 -6.219 -15.719 z"
       opacity="0.1"
       id="path25" />
    <path
       d="m 31.25 2.375 c 8.615 3.154 14.75 11.417 14.75 21.13 c 0 12.426 -10.07 22.5 -22.5 22.5 c -9.708 0 -17.971 -6.135 -21.12 -14.75 a 23 23 0 0 0 44.875 -7 a 23 23 0 0 0 -16 -21.875 z"
       opacity="0.2"
       id="path27" />
  </g>
  <g
     id="g29">
    <path
       d="m 24 1 c 12.703 0 23 10.297 23 23 c 0 12.703 -10.297 23 -23 23 -12.703 0 -23 -10.297 -23 -23 0 -12.703 10.297 -23 23 -23 z"
       fill="url(#linearGradient3764)"
       fill-opacity="1"
       id="path31"
       style="fill:url(#linearGradient3202);fill-opacity:1" />
  </g>
  <g
     id="g33" />
  <path
     style="fill:#8080ff;stroke:none"
     d="m 23.91593,15 c -0.414896,1.44277 -0.628565,2.959979 -1.176726,4.353452 C 22.464779,19.902301 22.190355,20.451151 21.91593,21 21.267914,20.9171 20.69146,20.94999 20.562478,21.706903 20.318259,21.980586 19.939583,23.479148 19.820087,22.616628 19.518701,21.411085 19.217316,20.205543 18.91593,19 c -0.333333,1.333333 -0.666667,2.666667 -1,4 -0.5,-0.5 -1,-1 -1.5,-1.5 -0.530712,0.05291 -1.188857,0.645643 -1.639714,0.360286 C 14.156121,21.240191 13.536025,20.620095 12.91593,20 c -0.666667,0.666667 -1.333333,1.333333 -2,2 C 10.582596,21.333333 10.249263,20.666667 9.915929,20 9.3743087,20.750946 8.9254914,21.607017 8.3275661,22.294181 7.5890258,22.649689 6.8886742,23.166967 6.0267945,23 4.3231728,23 2.7036218,23 1,23 c 0,0.666667 0,1.333333 0,2 2.0259979,0.02937 3.9956549,-0.05873 6.0042919,0.04418 0.6827623,0.379618 1.532391,0.570212 1.8500398,1.363423 0.3538658,0.5308 0.7077315,1.061598 1.0615973,1.592397 0.333334,-0.666667 0.666667,-1.333333 1.000001,-2 0.666667,0.666667 1.333333,1.333333 2,2 0.666667,-0.666667 1.333333,-1.333333 2,-2 0.530712,0.05291 1.188857,0.645643 1.639714,0.360286 C 17.009073,25.906857 17.462501,25.453429 17.91593,25 c 0.333333,1.333333 0.666667,2.666667 1,4 0.333333,-1.333333 0.666667,-2.666667 1,-4 0.333333,0.666667 0.666667,1.333333 1,2 0.648016,-0.0829 1.22447,-0.05001 1.353452,0.706903 0.898248,1.469855 1.061085,3.211757 1.533096,4.839289 0.134151,1.001691 0.365355,-0.523713 0.550826,-0.858314 C 24.706415,30.389095 25.289869,29.185724 25.91593,28 c 0.660157,0.08793 1.231794,0.05305 1.249928,-0.749784 C 27.415882,26.500144 27.665906,25.750072 27.91593,25 c 0.666667,0.5 1.333333,1 2,1.5 0.666667,-0.5 1.333333,-1 2,-1.5 0.666667,1.5 1.333333,3 2,4.5 0.666667,-1.166667 1.333333,-2.333333 2,-3.5 0.666667,0.666667 1.333333,1.333333 2,2 0.333333,-1 0.666667,-2 1,-3 0.666667,0.666667 1.333333,1.333333 2,2 0.709677,-0.642334 1.340723,-1.474497 2.098793,-2 1.300402,0 2.684875,0 3.985277,0 0,-0.666667 0,-1.333333 0,-2 -1.333333,0 -2.750737,0 -4.08407,0 -0.666667,-0.666667 -1.333333,-1.333333 -2,-2 -0.666667,0.666667 -1.333333,1.333333 -2,2 -0.333333,-1 -0.666667,-2 -1,-3 -0.666667,0.666667 -1.333333,1.333333 -2,2 -0.666667,-1.166667 -1.333333,-2.333333 -2,-3.5 -0.666667,1.5 -1.333333,3 -2,4.5 -0.666667,-0.5 -1.333333,-1 -2,-1.5 -0.666667,0.5 -1.333333,1 -2,1.5 -0.666667,-1.333333 -1.333333,-2.666667 -2,-4 -0.666987,0.08992 -1.235915,0.05425 -1.191686,-0.766744 C 24.454806,17.155504 24.185368,16.077752 23.91593,15 z"
     id="path3040"
     inkscape:connector-curvature="0"
     sodipodi:nodetypes="ccccccccccccccccccccccccccccccccccccccccccccccccccccccc" />
  <g
     id="g55">
    <path
       d="m 40.03 7.531 c 3.712 4.084 5.969 9.514 5.969 15.469 0 12.703 -10.297 23 -23 23 c -5.954 0 -11.384 -2.256 -15.469 -5.969 4.178 4.291 10.01 6.969 16.469 6.969 c 12.703 0 23 -10.298 23 -23 0 -6.462 -2.677 -12.291 -6.969 -16.469 z"
       opacity="0.1"
       id="path57" />
  </g>
  <g
     transform="matrix(0.70710678,0.70710678,-0.70710678,0.70710678,49.355339,17.20101)"
     id="g3186"
     style="opacity:0.1;fill:#000000">
    <g
       id="g3188"
       transform="translate(3,0)"
       style="fill:#000000">
      <path
         id="path3190"
         d="m -14,7 c -2,0 -3,2 -3,2 l 1,14 4,0 1,-14 c 0,0 -1,-2 -3,-2 z m 0,2 c 0.552285,0 1,0.4477152 1,1 0,0.552284 -0.447715,1 -1,1 -0.552285,0 -1,-0.447716 -1,-1 0,-0.5522848 0.447715,-1 1,-1 z"
         style="fill:#000000;stroke:none"
         inkscape:connector-curvature="0"
         sodipodi:nodetypes="zcccczsssss" />
      <path
         sodipodi:nodetypes="cccccccccccc"
         inkscape:connector-curvature="0"
         id="path3192"
         d="m -18,20 8,0 -1,2 0,1 3,10 -8,0 0,-4 -1,4 -3,0 3,-10 0,-1 z"
         style="fill:#000000;stroke:none" />
      <path
         inkscape:connector-curvature="0"
         id="path3194"
         d="m -17,22 6,0 0,1 -6,0 z"
         style="fill:#000000;stroke:none"
         sodipodi:nodetypes="ccccc" />
    </g>
  </g>
  <g
     id="g3180"
     transform="matrix(0.70710678,0.70710678,-0.70710678,0.70710678,48.355339,16.20101)">
    <g
       transform="translate(3,0)"
       id="g3159">
      <path
         sodipodi:nodetypes="zcccczsssss"
         inkscape:connector-curvature="0"
         style="fill:#d38d5f;stroke:none"
         d="m -14,7 c -2,0 -3,2 -3,2 l 1,14 4,0 1,-14 c 0,0 -1,-2 -3,-2 z m 0,2 c 0.552285,0 1,0.4477152 1,1 0,0.552284 -0.447715,1 -1,1 -0.552285,0 -1,-0.447716 -1,-1 0,-0.5522848 0.447715,-1 1,-1 z"
         id="path3147" />
      <path
         style="fill:#ffcc00;stroke:none"
         d="m -18,20 8,0 -1,2 0,1 3,10 -8,0 0,-4 -1,4 -3,0 3,-10 0,-1 z"
         id="path3155"
         inkscape:connector-curvature="0"
         sodipodi:nodetypes="cccccccccccc" />
      <path
         sodipodi:nodetypes="ccccc"
         style="fill:#a05a2c;stroke:none"
         d="m -17,22 6,0 0,1 -6,0 z"
         id="path3157"
         inkscape:connector-curvature="0" />
    </g>
  </g>
</svg>
