<svg viewBox="0 0 48 48"><defs><linearGradient id="1" gradientUnits="userSpaceOnUse" y1="15" x2="0" y2="11" gradientTransform="matrix(15.333333,0,0,11.5,414.99999,-125.5)"><stop/><stop offset="1" stop-opacity="0"/></linearGradient><clipPath id="clipPath-729279730"><g transform="translate(0,-1004.3622)"><path d="m -24 13 c 0 1.105 -0.672 2 -1.5 2 -0.828 0 -1.5 -0.895 -1.5 -2 0 -1.105 0.672 -2 1.5 -2 0.828 0 1.5 0.895 1.5 2 z" transform="matrix(15.333333,0,0,11.5,414.99999,878.8622)" fill="#1890d0"/></g></clipPath><clipPath id="clipPath-740460061"><g transform="translate(0,-1004.3622)"><path d="m -24 13 c 0 1.105 -0.672 2 -1.5 2 -0.828 0 -1.5 -0.895 -1.5 -2 0 -1.105 0.672 -2 1.5 -2 0.828 0 1.5 0.895 1.5 2 z" transform="matrix(15.333333,0,0,11.5,414.99999,878.8622)" fill="#1890d0"/></g></clipPath></defs><g><g transform="translate(0,-1004.3622)"><path d="m 25 1006.36 c -12.703 0 -23 10.298 -23 23 0 6.367 2.601 12.12 6.781 16.281 4.085 3.712 9.514 5.969 15.469 5.969 12.703 0 23 -10.297 23 -23 0 -5.954 -2.256 -11.384 -5.969 -15.469 -4.165 -4.181 -9.914 -6.781 -16.281 -6.781 z m 16.281 6.781 c 3.854 4.113 6.219 9.637 6.219 15.719 0 12.703 -10.297 23 -23 23 -6.081 0 -11.606 -2.364 -15.719 -6.219 4.16 4.144 9.883 6.719 16.219 6.719 12.703 0 23 -10.297 23 -23 0 -6.335 -2.575 -12.06 -6.719 -16.219 z" opacity="0.05"/><path d="m 41.28 1013.14 c 3.712 4.085 5.969 9.514 5.969 15.469 0 12.703 -10.297 23 -23 23 -5.954 0 -11.384 -2.256 -15.469 -5.969 4.113 3.854 9.637 6.219 15.719 6.219 12.703 0 23 -10.297 23 -23 0 -6.081 -2.364 -11.606 -6.219 -15.719 z" opacity="0.1"/><path transform="matrix(15.333333,0,0,11.5,415.24999,879.11222)" d="m -24 13 a 1.5 2 0 1 1 -3 0 1.5 2 0 1 1 3 0 z" opacity="0.2"/></g></g><g><g transform="translate(0,-1004.3622)"><path d="m -24 13 c 0 1.105 -0.672 2 -1.5 2 -0.828 0 -1.5 -0.895 -1.5 -2 0 -1.105 0.672 -2 1.5 -2 0.828 0 1.5 0.895 1.5 2 z" transform="matrix(15.333333,0,0,11.5,414.99999,878.8622)" fill="#eca940"/></g></g><g><path d="m 47 24 c 0 12.703 -10.297 23 -23 23 -12.703 0 -23 -10.297 -23 -23 0 -12.703 10.297 -23 23 -23 12.703 0 23 10.297 23 23 z" opacity="0.15" fill="url(#1)"/></g><g><g clip-path="url(#clipPath-729279730)"><g transform="translate(0,1)"><g opacity="0.1"><!-- color: #eca940 --><g><path d="m 26.27 12.336 c -0.438 0.465 -1.199 1.715 -1.445 2.348 c -0.152 0.387 -0.246 1.02 -0.336 2.203 l -0.121 1.664 l -0.336 0 c -0.277 0 -0.348 0.039 -0.316 0.176 c 0.02 0.102 0.184 0.23 0.363 0.289 c 0.328 0.094 0.328 0.105 0.328 0.738 c 0 0.855 -0.141 0.977 -1.09 0.977 c -0.906 0 -1.047 -0.133 -1.047 -0.996 c 0 -0.543 0.031 -0.625 0.223 -0.719 c 0.133 -0.063 0.246 -0.188 0.266 -0.289 c 0.031 -0.156 -0.082 -0.176 -1.344 -0.176 c -1.262 0 -1.379 0.02 -1.379 0.188 c 0 0.102 0.09 0.258 0.199 0.363 c 0.285 0.238 0.277 0.988 -0.008 1.359 c -0.188 0.238 -0.285 0.27 -0.816 0.27 c -0.527 0 -0.598 -0.02 -0.598 -0.207 c 0 -0.145 -0.074 -0.211 -0.234 -0.211 c -0.176 0 -0.258 0.082 -0.328 0.336 c -0.082 0.277 -0.172 0.352 -0.508 0.422 c -0.512 0.105 -1.141 0.035 -1.609 -0.195 c -0.336 -0.168 -0.375 -0.168 -0.805 0.043 c -0.348 0.164 -0.664 0.219 -1.508 0.234 c -0.59 0.012 -1.238 -0.02 -1.445 -0.063 l -0.387 -0.074 l 0 0.582 c 0 0.57 0 0.578 0.297 0.578 c 0.164 0 0.352 -0.074 0.43 -0.164 c 0.211 -0.27 2.137 -0.156 2.461 0.133 c 0.121 0.113 0.305 0.238 0.406 0.27 c 0.195 0.074 0.691 -0.082 0.793 -0.246 c 0.035 -0.066 0.348 -0.137 0.684 -0.168 c 0.488 -0.055 0.652 -0.02 0.781 0.113 c 0.094 0.094 0.234 0.168 0.305 0.168 c 0.082 0 0.152 0.133 0.176 0.332 c 0.039 0.402 0.363 0.543 0.457 0.199 c 0.047 -0.199 0.129 -0.219 0.699 -0.219 c 0.512 0 0.664 0.039 0.734 0.176 c 0.051 0.102 0.121 1.164 0.152 2.348 c 0.031 1.195 0.082 2.195 0.113 2.227 c 0.113 0.113 1.027 -0.758 1.273 -1.227 c 0.305 -0.551 0.508 -1.559 0.516 -2.535 c 0 -0.438 0.051 -0.793 0.121 -0.867 c 0.07 -0.074 0.43 -0.121 0.895 -0.121 c 1.039 0 1.121 0.09 1.121 1.203 l 0 0.832 l -0.324 0.094 c -0.469 0.145 -0.5 0.445 -0.063 0.488 l 0.336 0.031 l -0.008 0.945 c -0.012 0.813 -0.051 1.023 -0.316 1.559 c -0.406 0.844 -0.746 1.34 -1.344 2.02 l -0.512 0.559 l 0.215 0.375 c 0.121 0.199 0.375 0.613 0.582 0.926 l 0.352 0.559 l 0.469 -0.52 c 0.844 -0.938 1.293 -1.77 1.719 -3.16 c 0.059 -0.211 0.141 -0.844 0.172 -1.406 c 0.094 -1.746 0.121 -1.91 0.387 -1.91 c 0.121 0 0.266 -0.035 0.297 -0.074 c 0.09 -0.082 -0.227 -0.449 -0.387 -0.449 c -0.195 0 -0.258 -0.621 -0.258 -2.805 c 0 -2.391 0.039 -2.734 0.34 -2.871 c 0.313 -0.133 0.348 -0.434 0.047 -0.477 c -0.578 -0.082 -0.465 -2.07 0.195 -3.121 c 0.141 -0.234 0.551 -0.727 0.906 -1.102 c 0.645 -0.688 0.645 -0.688 0.48 -0.957 c -0.512 -0.809 -0.906 -1.348 -1.01 -1.348 c -0.047 0 -0.242 0.156 -0.418 0.332 m 0.008 0.02" fill="#000" stroke="none" fill-rule="nonzero" fill-opacity="1"/><path d="m 30.16 16.91 c -0.316 0.113 -0.664 0.352 -1.625 1.109 c -0.387 0.313 -0.715 0.492 -0.996 0.523 c -0.52 0.074 -0.598 0.289 -0.184 0.457 l 0.313 0.113 l 0 8.348 l -0.254 0.113 c -0.324 0.156 -0.324 0.313 0.012 0.445 l 0.277 0.105 l -0.051 1.109 c -0.051 0.895 -0.113 1.227 -0.316 1.715 c -0.336 0.75 -1 1.656 -1.75 2.328 l -0.582 0.523 l 0.176 0.352 c 0.336 0.656 1.098 1.781 1.25 1.84 c 0.293 0.113 1.434 -1.465 2.055 -2.828 c 0.527 -1.176 0.711 -2.109 0.711 -3.707 l 0 -1.34 l 0.258 -0.066 c 0.305 -0.074 0.348 -0.414 0.059 -0.508 c -0.164 -0.055 -0.203 -0.211 -0.266 -0.957 c -0.102 -1.207 -0.012 -3.629 0.141 -3.816 c 0.105 -0.125 0.715 -0.156 3.316 -0.188 c 1.754 -0.012 3.227 -0.074 3.27 -0.113 c 0.152 -0.156 -0.277 -0.758 -0.754 -1.07 c -0.883 -0.582 -1.309 -0.668 -3.609 -0.668 c -2.555 0 -2.41 0.082 -2.41 -1.453 l 0 -1.07 l 0.418 -0.406 c 0.457 -0.445 0.773 -0.602 1.203 -0.602 c 0.445 0 0.621 0.289 0.621 1.012 c 0 0.465 0.039 0.664 0.184 0.789 c 0.266 0.246 0.324 0.133 0.324 -0.594 c 0 -1.309 -0.691 -1.891 -1.777 -1.492 m -0.012 -0.004" fill="#000" stroke="none" fill-rule="nonzero" fill-opacity="1"/></g></g></g></g></g><g><g clip-path="url(#clipPath-740460061)"><!-- color: #eca940 --><g><path d="m 26.27 12.336 c -0.438 0.465 -1.199 1.715 -1.445 2.348 c -0.152 0.387 -0.246 1.02 -0.336 2.203 l -0.121 1.664 l -0.336 0 c -0.277 0 -0.348 0.039 -0.316 0.176 c 0.02 0.102 0.184 0.23 0.363 0.289 c 0.328 0.094 0.328 0.105 0.328 0.738 c 0 0.855 -0.141 0.977 -1.09 0.977 c -0.906 0 -1.047 -0.133 -1.047 -0.996 c 0 -0.543 0.031 -0.625 0.223 -0.719 c 0.133 -0.063 0.246 -0.188 0.266 -0.289 c 0.031 -0.156 -0.082 -0.176 -1.344 -0.176 c -1.262 0 -1.379 0.02 -1.379 0.188 c 0 0.102 0.09 0.258 0.199 0.363 c 0.285 0.238 0.277 0.988 -0.008 1.359 c -0.188 0.238 -0.285 0.27 -0.816 0.27 c -0.527 0 -0.598 -0.02 -0.598 -0.207 c 0 -0.145 -0.074 -0.211 -0.234 -0.211 c -0.176 0 -0.258 0.082 -0.328 0.336 c -0.082 0.277 -0.172 0.352 -0.508 0.422 c -0.512 0.105 -1.141 0.035 -1.609 -0.195 c -0.336 -0.168 -0.375 -0.168 -0.805 0.043 c -0.348 0.164 -0.664 0.219 -1.508 0.234 c -0.59 0.012 -1.238 -0.02 -1.445 -0.063 l -0.387 -0.074 l 0 0.582 c 0 0.57 0 0.578 0.297 0.578 c 0.164 0 0.352 -0.074 0.43 -0.164 c 0.211 -0.27 2.137 -0.156 2.461 0.133 c 0.121 0.113 0.305 0.238 0.406 0.27 c 0.195 0.074 0.691 -0.082 0.793 -0.246 c 0.035 -0.066 0.348 -0.137 0.684 -0.168 c 0.488 -0.055 0.652 -0.02 0.781 0.113 c 0.094 0.094 0.234 0.168 0.305 0.168 c 0.082 0 0.152 0.133 0.176 0.332 c 0.039 0.402 0.363 0.543 0.457 0.199 c 0.047 -0.199 0.129 -0.219 0.699 -0.219 c 0.512 0 0.664 0.039 0.734 0.176 c 0.051 0.102 0.121 1.164 0.152 2.348 c 0.031 1.195 0.082 2.195 0.113 2.227 c 0.113 0.113 1.027 -0.758 1.273 -1.227 c 0.305 -0.551 0.508 -1.559 0.516 -2.535 c 0 -0.438 0.051 -0.793 0.121 -0.867 c 0.07 -0.074 0.43 -0.121 0.895 -0.121 c 1.039 0 1.121 0.09 1.121 1.203 l 0 0.832 l -0.324 0.094 c -0.469 0.145 -0.5 0.445 -0.063 0.488 l 0.336 0.031 l -0.008 0.945 c -0.012 0.813 -0.051 1.023 -0.316 1.559 c -0.406 0.844 -0.746 1.34 -1.344 2.02 l -0.512 0.559 l 0.215 0.375 c 0.121 0.199 0.375 0.613 0.582 0.926 l 0.352 0.559 l 0.469 -0.52 c 0.844 -0.938 1.293 -1.77 1.719 -3.16 c 0.059 -0.211 0.141 -0.844 0.172 -1.406 c 0.094 -1.746 0.121 -1.91 0.387 -1.91 c 0.121 0 0.266 -0.035 0.297 -0.074 c 0.09 -0.082 -0.227 -0.449 -0.387 -0.449 c -0.195 0 -0.258 -0.621 -0.258 -2.805 c 0 -2.391 0.039 -2.734 0.34 -2.871 c 0.313 -0.133 0.348 -0.434 0.047 -0.477 c -0.578 -0.082 -0.465 -2.07 0.195 -3.121 c 0.141 -0.234 0.551 -0.727 0.906 -1.102 c 0.645 -0.688 0.645 -0.688 0.48 -0.957 c -0.512 -0.809 -0.906 -1.348 -1.01 -1.348 c -0.047 0 -0.242 0.156 -0.418 0.332 m 0.008 0.02" fill="#f9f9f9" stroke="none" fill-rule="nonzero" fill-opacity="1"/><path d="m 30.16 16.91 c -0.316 0.113 -0.664 0.352 -1.625 1.109 c -0.387 0.313 -0.715 0.492 -0.996 0.523 c -0.52 0.074 -0.598 0.289 -0.184 0.457 l 0.313 0.113 l 0 8.348 l -0.254 0.113 c -0.324 0.156 -0.324 0.313 0.012 0.445 l 0.277 0.105 l -0.051 1.109 c -0.051 0.895 -0.113 1.227 -0.316 1.715 c -0.336 0.75 -1 1.656 -1.75 2.328 l -0.582 0.523 l 0.176 0.352 c 0.336 0.656 1.098 1.781 1.25 1.84 c 0.293 0.113 1.434 -1.465 2.055 -2.828 c 0.527 -1.176 0.711 -2.109 0.711 -3.707 l 0 -1.34 l 0.258 -0.066 c 0.305 -0.074 0.348 -0.414 0.059 -0.508 c -0.164 -0.055 -0.203 -0.211 -0.266 -0.957 c -0.102 -1.207 -0.012 -3.629 0.141 -3.816 c 0.105 -0.125 0.715 -0.156 3.316 -0.188 c 1.754 -0.012 3.227 -0.074 3.27 -0.113 c 0.152 -0.156 -0.277 -0.758 -0.754 -1.07 c -0.883 -0.582 -1.309 -0.668 -3.609 -0.668 c -2.555 0 -2.41 0.082 -2.41 -1.453 l 0 -1.07 l 0.418 -0.406 c 0.457 -0.445 0.773 -0.602 1.203 -0.602 c 0.445 0 0.621 0.289 0.621 1.012 c 0 0.465 0.039 0.664 0.184 0.789 c 0.266 0.246 0.324 0.133 0.324 -0.594 c 0 -1.309 -0.691 -1.891 -1.777 -1.492 m -0.012 -0.004" fill="#f9f9f9" stroke="none" fill-rule="nonzero" fill-opacity="1"/></g></g></g><g><path d="m 40.03 7.531 c 3.712 4.084 5.969 9.514 5.969 15.469 0 12.703 -10.297 23 -23 23 c -5.954 0 -11.384 -2.256 -15.469 -5.969 4.178 4.291 10.01 6.969 16.469 6.969 c 12.703 0 23 -10.298 23 -23 0 -6.462 -2.677 -12.291 -6.969 -16.469 z" opacity="0.1"/></g></svg>