<?xml version="1.0" encoding="UTF-8" standalone="no"?>
<svg
   xmlns:dc="http://purl.org/dc/elements/1.1/"
   xmlns:cc="http://creativecommons.org/ns#"
   xmlns:rdf="http://www.w3.org/1999/02/22-rdf-syntax-ns#"
   xmlns:svg="http://www.w3.org/2000/svg"
   xmlns="http://www.w3.org/2000/svg"
   xmlns:xlink="http://www.w3.org/1999/xlink"
   xmlns:sodipodi="http://sodipodi.sourceforge.net/DTD/sodipodi-0.dtd"
   xmlns:inkscape="http://www.inkscape.org/namespaces/inkscape"
   viewBox="0 0 48 48"
   id="svg2"
   version="1.1"
   inkscape:version="0.91 r13725"
   sodipodi:docname="hexalate0.svg">
  <metadata
     id="metadata77">
    <rdf:RDF>
      <cc:Work
         rdf:about="">
        <dc:format>image/svg+xml</dc:format>
        <dc:type
           rdf:resource="http://purl.org/dc/dcmitype/StillImage" />
        <dc:title></dc:title>
      </cc:Work>
    </rdf:RDF>
  </metadata>
  <sodipodi:namedview
     pagecolor="#ffffff"
     bordercolor="#666666"
     borderopacity="1"
     objecttolerance="10"
     gridtolerance="10"
     guidetolerance="10"
     inkscape:pageopacity="0"
     inkscape:pageshadow="2"
     inkscape:window-width="1366"
     inkscape:window-height="713"
     id="namedview75"
     showgrid="false"
     showguides="false"
     inkscape:zoom="1"
     inkscape:cx="21.591797"
     inkscape:cy="30.180765"
     inkscape:window-x="0"
     inkscape:window-y="28"
     inkscape:window-maximized="1"
     inkscape:current-layer="svg2">
    <inkscape:grid
       type="xygrid"
       id="grid3405" />
  </sodipodi:namedview>
  <defs
     id="defs4">
    <linearGradient
       inkscape:collect="always"
       id="linearGradient4422">
      <stop
         style="stop-color:#db6aae;stop-opacity:0.25882354"
         offset="0"
         id="stop4424" />
      <stop
         id="stop4430"
         offset="0.50099844"
         style="stop-color:#db6aae;stop-opacity:1" />
      <stop
         style="stop-color:#db6aae;stop-opacity:0.25882354"
         offset="1"
         id="stop4426" />
    </linearGradient>
    <linearGradient
       inkscape:collect="always"
       id="linearGradient4412">
      <stop
         style="stop-color:#3f80c4;stop-opacity:0.25882354"
         offset="0"
         id="stop4414" />
      <stop
         id="stop4420"
         offset="0.48858497"
         style="stop-color:#3f80c4;stop-opacity:1" />
      <stop
         style="stop-color:#3f80c4;stop-opacity:0.25882354"
         offset="1"
         id="stop4416" />
    </linearGradient>
    <linearGradient
       inkscape:collect="always"
       id="linearGradient4402">
      <stop
         style="stop-color:#e96c3a;stop-opacity:0.25882354"
         offset="0"
         id="stop4404" />
      <stop
         id="stop4410"
         offset="0.50000006"
         style="stop-color:#e96c3a;stop-opacity:1" />
      <stop
         style="stop-color:#e96c3a;stop-opacity:0.25882354"
         offset="1"
         id="stop4406" />
    </linearGradient>
    <linearGradient
       inkscape:collect="always"
       id="linearGradient4392">
      <stop
         style="stop-color:#f0ef55;stop-opacity:0.25882354"
         offset="0"
         id="stop4394" />
      <stop
         id="stop4400"
         offset="0.51347983"
         style="stop-color:#f0ef55;stop-opacity:1" />
      <stop
         style="stop-color:#f0ef55;stop-opacity:0.25882354"
         offset="1"
         id="stop4396" />
    </linearGradient>
    <linearGradient
       inkscape:collect="always"
       id="linearGradient4363">
      <stop
         style="stop-color:#61d575;stop-opacity:0.25882354"
         offset="0"
         id="stop4365" />
      <stop
         id="stop4371"
         offset="0.51780564"
         style="stop-color:#61d575;stop-opacity:1" />
      <stop
         style="stop-color:#61d575;stop-opacity:0.25882354"
         offset="1"
         id="stop4367" />
    </linearGradient>
    <linearGradient
       inkscape:collect="always"
       id="linearGradient4353">
      <stop
         style="stop-color:#dedede;stop-opacity:0.25882354"
         offset="0"
         id="stop4355" />
      <stop
         id="stop4361"
         offset="0.5"
         style="stop-color:#dedede;stop-opacity:1" />
      <stop
         style="stop-color:#dedede;stop-opacity:0.25882354"
         offset="1"
         id="stop4357" />
    </linearGradient>
    <linearGradient
       id="linearGradient3764"
       x1="1"
       x2="47"
       gradientUnits="userSpaceOnUse"
       gradientTransform="matrix(0,-1,1,0,-1.5e-6,47.999998)">
      <stop
         stop-color="#3d3d3d"
         stop-opacity="1"
         id="stop7" />
      <stop
         offset="1"
         stop-color="#474747"
         stop-opacity="1"
         id="stop9" />
    </linearGradient>
    <clipPath
       clipPathUnits="userSpaceOnUse"
       id="clipPath4300">
      <path
         style="fill:#0000ff;fill-rule:evenodd;stroke:none;stroke-width:1px;stroke-linecap:butt;stroke-linejoin:miter;stroke-opacity:1"
         d="m 24,24 6,24 -12,0 z"
         id="path4302"
         inkscape:connector-curvature="0"
         sodipodi:nodetypes="cccc"
         clip-path="none"
         mask="none" />
    </clipPath>
    <linearGradient
       inkscape:collect="always"
       xlink:href="#linearGradient4353"
       id="linearGradient4359"
       x1="18"
       y1="38"
       x2="30"
       y2="38"
       gradientUnits="userSpaceOnUse" />
    <linearGradient
       inkscape:collect="always"
       xlink:href="#linearGradient4363"
       id="linearGradient4369"
       x1="18"
       y1="35.5"
       x2="30"
       y2="35.5"
       gradientUnits="userSpaceOnUse" />
    <linearGradient
       inkscape:collect="always"
       xlink:href="#linearGradient4392"
       id="linearGradient4398"
       x1="18"
       y1="35.5"
       x2="30"
       y2="35.5"
       gradientUnits="userSpaceOnUse" />
    <linearGradient
       inkscape:collect="always"
       xlink:href="#linearGradient4402"
       id="linearGradient4408"
       x1="18"
       y1="35.5"
       x2="30"
       y2="35.5"
       gradientUnits="userSpaceOnUse" />
    <linearGradient
       inkscape:collect="always"
       xlink:href="#linearGradient4412"
       id="linearGradient4418"
       x1="18"
       y1="35.5"
       x2="30"
       y2="35.5"
       gradientUnits="userSpaceOnUse" />
    <linearGradient
       inkscape:collect="always"
       xlink:href="#linearGradient4422"
       id="linearGradient4428"
       x1="18"
       y1="35.5"
       x2="30"
       y2="35.5"
       gradientUnits="userSpaceOnUse" />
  </defs>
  <g
     id="g21">
    <path
       d="m 36.31 5 c 5.859 4.062 9.688 10.831 9.688 18.5 c 0 12.426 -10.07 22.5 -22.5 22.5 c -7.669 0 -14.438 -3.828 -18.5 -9.688 c 1.037 1.822 2.306 3.499 3.781 4.969 c 4.085 3.712 9.514 5.969 15.469 5.969 c 12.703 0 23 -10.298 23 -23 c 0 -5.954 -2.256 -11.384 -5.969 -15.469 c -1.469 -1.475 -3.147 -2.744 -4.969 -3.781 z m 4.969 3.781 c 3.854 4.113 6.219 9.637 6.219 15.719 c 0 12.703 -10.297 23 -23 23 c -6.081 0 -11.606 -2.364 -15.719 -6.219 c 4.16 4.144 9.883 6.719 16.219 6.719 c 12.703 0 23 -10.298 23 -23 c 0 -6.335 -2.575 -12.06 -6.719 -16.219 z"
       opacity="0.05"
       id="path23" />
    <path
       d="m 41.28 8.781 c 3.712 4.085 5.969 9.514 5.969 15.469 c 0 12.703 -10.297 23 -23 23 c -5.954 0 -11.384 -2.256 -15.469 -5.969 c 4.113 3.854 9.637 6.219 15.719 6.219 c 12.703 0 23 -10.298 23 -23 c 0 -6.081 -2.364 -11.606 -6.219 -15.719 z"
       opacity="0.1"
       id="path25" />
    <path
       d="m 31.25 2.375 c 8.615 3.154 14.75 11.417 14.75 21.13 c 0 12.426 -10.07 22.5 -22.5 22.5 c -9.708 0 -17.971 -6.135 -21.12 -14.75 a 23 23 0 0 0 44.875 -7 a 23 23 0 0 0 -16 -21.875 z"
       opacity="0.2"
       id="path27" />
  </g>
  <g
     id="g29">
    <path
       d="m 24 1 c 12.703 0 23 10.297 23 23 c 0 12.703 -10.297 23 -23 23 -12.703 0 -23 -10.297 -23 -23 0 -12.703 10.297 -23 23 -23 z"
       id="path31"
       fill-opacity="1"
       fill="url(#linearGradient3764)" />
    <path
       id="path4214"
       d="m 24 1 c 12.703 0 23 10.297 23 23 c 0 12.703 -10.297 23 -23 23 -12.703 0 -23 -10.297 -23 -23 0 -12.703 10.297 -23 23 -23 z"
       clip-path="url(#clipPath4300)"
       mask="none"
       fill-opacity="1"
       fill="url(#linearGradient3764)"
       style="fill:url(#linearGradient4359);fill-opacity:1" />
    <path
       style="fill:url(#linearGradient4369);fill-opacity:1"
       mask="none"
       clip-path="url(#clipPath4300)"
       d="M 24,1 C 36.703,1 47,11.297 47,24 47,36.703 36.703,47 24,47 11.297,47 1,36.703 1,24 1,11.297 11.297,1 24,1 Z"
       id="path4306"
       inkscape:connector-curvature="0"
       transform="matrix(0.5,-0.8660254,0.8660254,0.5,-8.7846097,32.78461)" />
    <path
       transform="matrix(-0.5,-0.8660254,0.8660254,-0.5,15.215391,56.78461)"
       inkscape:connector-curvature="0"
       id="path4312"
       d="M 24,1 C 36.703,1 47,11.297 47,24 47,36.703 36.703,47 24,47 11.297,47 1,36.703 1,24 1,11.297 11.297,1 24,1 Z"
       clip-path="url(#clipPath4300)"
       mask="none"
       style="fill:url(#linearGradient4398);fill-opacity:1" />
    <path
       style="fill:url(#linearGradient4408);fill-opacity:1"
       mask="none"
       clip-path="url(#clipPath4300)"
       d="M 24,1 C 36.703,1 47,11.297 47,24 47,36.703 36.703,47 24,47 11.297,47 1,36.703 1,24 1,11.297 11.297,1 24,1 Z"
       id="path4318"
       inkscape:connector-curvature="0"
       transform="matrix(-1,0,0,-1,48.000001,48)" />
    <path
       transform="matrix(-0.5,0.8660254,-0.8660254,-0.5,56.78461,15.21539)"
       inkscape:connector-curvature="0"
       id="path4324"
       d="M 24,1 C 36.703,1 47,11.297 47,24 47,36.703 36.703,47 24,47 11.297,47 1,36.703 1,24 1,11.297 11.297,1 24,1 Z"
       clip-path="url(#clipPath4300)"
       mask="none"
       style="fill:url(#linearGradient4428);fill-opacity:1" />
    <path
       style="fill:url(#linearGradient4418);fill-opacity:1"
       mask="none"
       clip-path="url(#clipPath4300)"
       d="M 24,1 C 36.703,1 47,11.297 47,24 47,36.703 36.703,47 24,47 11.297,47 1,36.703 1,24 1,11.297 11.297,1 24,1 Z"
       id="path4330"
       inkscape:connector-curvature="0"
       transform="matrix(0.5,0.8660254,-0.8660254,0.5,32.78461,-8.7846098)" />
  </g>
  <g
     id="g33" />
  <g
     id="g71">
    <path
       d="m 40.03 7.531 c 3.712 4.084 5.969 9.514 5.969 15.469 0 12.703 -10.297 23 -23 23 c -5.954 0 -11.384 -2.256 -15.469 -5.969 4.178 4.291 10.01 6.969 16.469 6.969 c 12.703 0 23 -10.298 23 -23 0 -6.462 -2.677 -12.291 -6.969 -16.469 z"
       opacity="0.1"
       id="path73" />
  </g>
</svg>
