<?xml version="1.0" encoding="UTF-8" standalone="no"?>
<svg
   xmlns:dc="http://purl.org/dc/elements/1.1/"
   xmlns:cc="http://creativecommons.org/ns#"
   xmlns:rdf="http://www.w3.org/1999/02/22-rdf-syntax-ns#"
   xmlns:svg="http://www.w3.org/2000/svg"
   xmlns="http://www.w3.org/2000/svg"
   xmlns:xlink="http://www.w3.org/1999/xlink"
   xmlns:sodipodi="http://sodipodi.sourceforge.net/DTD/sodipodi-0.dtd"
   xmlns:inkscape="http://www.inkscape.org/namespaces/inkscape"
   viewBox="0 0 48 48"
   id="svg2"
   version="1.1"
   inkscape:version="0.91 r13725"
   sodipodi:docname="hexalate-with shadow.svg">
  <metadata
     id="metadata77">
    <rdf:RDF>
      <cc:Work
         rdf:about="">
        <dc:format>image/svg+xml</dc:format>
        <dc:type
           rdf:resource="http://purl.org/dc/dcmitype/StillImage" />
        <dc:title />
      </cc:Work>
    </rdf:RDF>
  </metadata>
  <sodipodi:namedview
     pagecolor="#ffffff"
     bordercolor="#666666"
     borderopacity="1"
     objecttolerance="10"
     gridtolerance="10"
     guidetolerance="10"
     inkscape:pageopacity="0"
     inkscape:pageshadow="2"
     inkscape:window-width="1366"
     inkscape:window-height="713"
     id="namedview75"
     showgrid="false"
     showguides="false"
     inkscape:zoom="8"
     inkscape:cx="33.267746"
     inkscape:cy="22.520817"
     inkscape:window-x="0"
     inkscape:window-y="28"
     inkscape:window-maximized="1"
     inkscape:current-layer="svg2">
    <inkscape:grid
       type="xygrid"
       id="grid3405" />
  </sodipodi:namedview>
  <defs
     id="defs4">
    <linearGradient
       id="linearGradient3764"
       x1="1"
       x2="47"
       gradientUnits="userSpaceOnUse"
       gradientTransform="matrix(0,-1,1,0,-1.5e-6,47.999998)">
      <stop
         stop-color="#3d3d3d"
         stop-opacity="1"
         id="stop7" />
      <stop
         offset="1"
         stop-color="#474747"
         stop-opacity="1"
         id="stop9" />
    </linearGradient>
    <linearGradient
       inkscape:collect="always"
       xlink:href="#linearGradient4281"
       id="linearGradient4201"
       gradientUnits="userSpaceOnUse"
       gradientTransform="matrix(-1,0,0,-1,48.000001,47.999999)"
       x1="18.421875"
       y1="35.5"
       x2="29.578125"
       y2="35.5" />
    <linearGradient
       id="linearGradient4281"
       inkscape:collect="always">
      <stop
         id="stop4283"
         offset="0"
         style="stop-color:#e96c3a;stop-opacity:0.25882354" />
      <stop
         style="stop-color:#e96c3a;stop-opacity:1"
         offset="0.50840336"
         id="stop4285" />
      <stop
         id="stop4287"
         offset="1"
         style="stop-color:#e96c3a;stop-opacity:0.25882354" />
    </linearGradient>
    <linearGradient
       inkscape:collect="always"
       xlink:href="#linearGradient4289"
       id="linearGradient4209"
       gradientUnits="userSpaceOnUse"
       gradientTransform="matrix(-0.5,0.8660254,-0.8660254,-0.5,56.784609,15.215389)"
       x1="18.421875"
       y1="35.5"
       x2="29.578125"
       y2="35.5" />
    <linearGradient
       id="linearGradient4289"
       inkscape:collect="always">
      <stop
         id="stop4291"
         offset="0"
         style="stop-color:#db6aae;stop-opacity:0.25882354" />
      <stop
         style="stop-color:#db6aae;stop-opacity:1"
         offset="0.50840336"
         id="stop4293" />
      <stop
         id="stop4295"
         offset="1"
         style="stop-color:#db6aae;stop-opacity:0.25882354" />
    </linearGradient>
    <linearGradient
       inkscape:collect="always"
       xlink:href="#linearGradient4265"
       id="linearGradient4185"
       gradientUnits="userSpaceOnUse"
       x1="18.421875"
       y1="35.5"
       x2="29.578125"
       y2="35.5"
       gradientTransform="matrix(0.5,-0.8660254,0.8660254,0.5,-8.78461,32.784586)" />
    <linearGradient
       id="linearGradient4265"
       inkscape:collect="always">
      <stop
         id="stop4267"
         offset="0"
         style="stop-color:#61d575;stop-opacity:0.25882354" />
      <stop
         style="stop-color:#61d575;stop-opacity:1"
         offset="0.50840336"
         id="stop4269" />
      <stop
         id="stop4271"
         offset="1"
         style="stop-color:#61d575;stop-opacity:0.25882354" />
    </linearGradient>
    <linearGradient
       inkscape:collect="always"
       xlink:href="#linearGradient4273"
       id="linearGradient4193"
       gradientUnits="userSpaceOnUse"
       gradientTransform="matrix(-0.5,-0.8660254,0.8660254,-0.5,15.215392,56.78461)"
       x1="18.421875"
       y1="35.5"
       x2="29.578125"
       y2="35.5" />
    <linearGradient
       id="linearGradient4273"
       inkscape:collect="always">
      <stop
         id="stop4275"
         offset="0"
         style="stop-color:#f0ef55;stop-opacity:0.25882354" />
      <stop
         style="stop-color:#f0ef55;stop-opacity:1"
         offset="0.50840336"
         id="stop4277" />
      <stop
         id="stop4279"
         offset="1"
         style="stop-color:#f0ef55;stop-opacity:0.25882354" />
    </linearGradient>
    <linearGradient
       gradientTransform="translate(1.25e-4,0)"
       inkscape:collect="always"
       xlink:href="#linearGradient4238"
       id="linearGradient4175"
       x1="18.421875"
       y1="35.5"
       x2="29.578125"
       y2="35.5"
       gradientUnits="userSpaceOnUse" />
    <linearGradient
       id="linearGradient4238"
       inkscape:collect="always">
      <stop
         id="stop4240"
         offset="0"
         style="stop-color:#dedede;stop-opacity:0.25882354" />
      <stop
         style="stop-color:#dedede;stop-opacity:1"
         offset="0.50840336"
         id="stop4242" />
      <stop
         id="stop4244"
         offset="1"
         style="stop-color:#dedede;stop-opacity:0.25882354" />
    </linearGradient>
    <linearGradient
       inkscape:collect="always"
       xlink:href="#linearGradient4169"
       id="linearGradient4217"
       gradientUnits="userSpaceOnUse"
       gradientTransform="matrix(0.5,0.8660254,-0.8660254,0.5,32.784553,-8.784634)"
       x1="18.421875"
       y1="35.5"
       x2="29.578125"
       y2="35.5" />
    <linearGradient
       inkscape:collect="always"
       id="linearGradient4169">
      <stop
         style="stop-color:#3f80c4;stop-opacity:0.25882354"
         offset="0"
         id="stop4171" />
      <stop
         id="stop4177"
         offset="0.50840336"
         style="stop-color:#3f80c4;stop-opacity:1" />
      <stop
         style="stop-color:#4081c4;stop-opacity:0.25882354"
         offset="1"
         id="stop4173" />
    </linearGradient>
  </defs>
  <g
     id="g21">
    <path
       d="m 36.31 5 c 5.859 4.062 9.688 10.831 9.688 18.5 c 0 12.426 -10.07 22.5 -22.5 22.5 c -7.669 0 -14.438 -3.828 -18.5 -9.688 c 1.037 1.822 2.306 3.499 3.781 4.969 c 4.085 3.712 9.514 5.969 15.469 5.969 c 12.703 0 23 -10.298 23 -23 c 0 -5.954 -2.256 -11.384 -5.969 -15.469 c -1.469 -1.475 -3.147 -2.744 -4.969 -3.781 z m 4.969 3.781 c 3.854 4.113 6.219 9.637 6.219 15.719 c 0 12.703 -10.297 23 -23 23 c -6.081 0 -11.606 -2.364 -15.719 -6.219 c 4.16 4.144 9.883 6.719 16.219 6.719 c 12.703 0 23 -10.298 23 -23 c 0 -6.335 -2.575 -12.06 -6.719 -16.219 z"
       opacity="0.05"
       id="path23" />
    <path
       d="m 41.28 8.781 c 3.712 4.085 5.969 9.514 5.969 15.469 c 0 12.703 -10.297 23 -23 23 c -5.954 0 -11.384 -2.256 -15.469 -5.969 c 4.113 3.854 9.637 6.219 15.719 6.219 c 12.703 0 23 -10.298 23 -23 c 0 -6.081 -2.364 -11.606 -6.219 -15.719 z"
       opacity="0.1"
       id="path25" />
    <path
       d="m 31.25 2.375 c 8.615 3.154 14.75 11.417 14.75 21.13 c 0 12.426 -10.07 22.5 -22.5 22.5 c -9.708 0 -17.971 -6.135 -21.12 -14.75 a 23 23 0 0 0 44.875 -7 a 23 23 0 0 0 -16 -21.875 z"
       opacity="0.2"
       id="path27" />
  </g>
  <g
     id="g29">
    <path
       d="m 24 1 c 12.703 0 23 10.297 23 23 c 0 12.703 -10.297 23 -23 23 -12.703 0 -23 -10.297 -23 -23 0 -12.703 10.297 -23 23 -23 z"
       id="path31"
       fill-opacity="1"
       fill="url(#linearGradient3764)" />
    <path
       style="fill:#000000;fill-opacity:0.09803922"
       d="M 25 2 C 23.075724 2 21.208302 2.2404099 19.421875 2.6855469 L 25 25 L 30.578125 2.6855469 C 28.791699 2.2404099 26.924276 2 25 2 z M 25 25 L 46.419922 18.873047 C 45.580386 15.187216 43.85705 11.839117 41.482422 9.0625 L 25 25 z M 25 25 L 40.513672 40.001953 C 42.955493 37.482545 44.827686 34.408827 45.917969 30.984375 L 25 25 z M 25 25 L 19.607422 46.576172 C 21.029994 46.851405 22.496992 47 24 47 C 26.178682 47 28.283925 46.690971 30.28125 46.125 L 25 25 z M 25 25 L 2.8867188 31.326172 C 3.3944317 33.095831 4.1198932 34.833528 5.0820312 36.5 C 5.9915916 38.075405 7.0671344 39.493691 8.2617188 40.763672 C 8.3352233 40.832708 8.406061 40.904581 8.4804688 40.972656 L 25 25 z M 25 25 L 8.4648438 9.0117188 C 7.1861305 10.33624 6.0441692 11.833528 5.0820312 13.5 C 4.1198932 15.166472 3.3944325 16.904169 2.8867188 18.673828 L 25 25 z "
       id="path4515" />
  </g>
  <path
     inkscape:connector-curvature="0"
     style="fill:url(#linearGradient4217);fill-opacity:1;stroke:none"
     d="M 23.999945,23.999976 1.886,30.326405 c 0.507713,1.769659 1.233223,3.507099 2.195361,5.173571 0.962138,1.666472 2.1040505,3.163502 3.3827632,4.488024 L 23.999945,23.999976 Z"
     id="path4213" />
  <path
     inkscape:connector-curvature="0"
     style="fill:url(#linearGradient4185);fill-opacity:1;stroke:none"
     d="M 24,23.999976 40.535821,39.988 c 1.278713,-1.324522 2.420625,-2.821552 3.382763,-4.488024 0.962138,-1.666472 1.687648,-3.403912 2.195362,-5.173571 L 24,23.999976 Z"
     id="path4181" />
  <g
     id="g33" />
  <path
     id="path4189"
     d="M 24,24 46.113945,17.673571 C 45.606233,15.903912 44.880723,14.166472 43.918585,12.5 42.956446,10.833528 41.814535,9.3364982 40.535821,8.0119755 L 24,24 Z"
     style="fill:url(#linearGradient4193);fill-opacity:1;stroke:none"
     inkscape:connector-curvature="0" />
  <path
     inkscape:connector-curvature="0"
     id="path4156"
     d="M 24.000125,24 18.422,46.314453 C 20.208427,46.75959 22.075849,47 24.000125,47 c 1.924276,0 3.791698,-0.24041 5.578125,-0.685547 L 24.000125,24 Z"
     style="fill:url(#linearGradient4175);fill-opacity:1;stroke:none" />
  <g
     id="g71">
    <path
       d="m 40.03 7.531 c 3.712 4.084 5.969 9.514 5.969 15.469 0 12.703 -10.297 23 -23 23 c -5.954 0 -11.384 -2.256 -15.469 -5.969 4.178 4.291 10.01 6.969 16.469 6.969 c 12.703 0 23 -10.298 23 -23 0 -6.462 -2.677 -12.291 -6.969 -16.469 z"
       opacity="0.1"
       id="path73" />
  </g>
  <g
     transform="translate(-5.39e-5,0)"
     id="g4384">
    <path
       inkscape:connector-curvature="0"
       style="fill:url(#linearGradient4201);fill-opacity:1;stroke:none"
       d="M 24,24 29.578124,1.6855472 C 27.791698,1.2404101 25.924276,1.0000002 24,1.0000001 c -1.924276,0 -3.791698,0.2404098 -5.578125,0.6855464 L 24,24 Z"
       id="path4197" />
    <path
       id="path4205"
       d="M 24,24 7.464179,8.0119765 C 6.1854659,9.3364983 5.0435538,10.833528 4.0814158,12.5 3.1192778,14.166472 2.3937678,15.903912 1.8860539,17.673571 L 24,24 Z"
       style="fill:url(#linearGradient4209);fill-opacity:1;stroke:none"
       inkscape:connector-curvature="0" />
  </g>
</svg>
