<?xml version="1.0" encoding="UTF-8" standalone="no"?>
<svg
   xmlns:dc="http://purl.org/dc/elements/1.1/"
   xmlns:cc="http://creativecommons.org/ns#"
   xmlns:rdf="http://www.w3.org/1999/02/22-rdf-syntax-ns#"
   xmlns:svg="http://www.w3.org/2000/svg"
   xmlns="http://www.w3.org/2000/svg"
   xmlns:xlink="http://www.w3.org/1999/xlink"
   xmlns:sodipodi="http://sodipodi.sourceforge.net/DTD/sodipodi-0.dtd"
   xmlns:inkscape="http://www.inkscape.org/namespaces/inkscape"
   viewBox="0 0 48 48"
   id="svg2"
   version="1.1"
   inkscape:version="0.91 r13725"
   sodipodi:docname="hexalate-alt.svg">
  <metadata
     id="metadata77">
    <rdf:RDF>
      <cc:Work
         rdf:about="">
        <dc:format>image/svg+xml</dc:format>
        <dc:type
           rdf:resource="http://purl.org/dc/dcmitype/StillImage" />
        <dc:title />
      </cc:Work>
    </rdf:RDF>
  </metadata>
  <sodipodi:namedview
     pagecolor="#ffffff"
     bordercolor="#666666"
     borderopacity="1"
     objecttolerance="10"
     gridtolerance="10"
     guidetolerance="10"
     inkscape:pageopacity="0"
     inkscape:pageshadow="2"
     inkscape:window-width="1366"
     inkscape:window-height="713"
     id="namedview75"
     showgrid="false"
     showguides="false"
     inkscape:zoom="4"
     inkscape:cx="29.695366"
     inkscape:cy="15.878681"
     inkscape:window-x="0"
     inkscape:window-y="28"
     inkscape:window-maximized="1"
     inkscape:current-layer="svg2">
    <inkscape:grid
       type="xygrid"
       id="grid3405" />
  </sodipodi:namedview>
  <defs
     id="defs4">
    <linearGradient
       inkscape:collect="always"
       xlink:href="#linearGradient3764-0"
       id="linearGradient3396"
       gradientUnits="userSpaceOnUse"
       gradientTransform="matrix(0,-0.65217391,0.65217391,0,8.347825,39.652173)"
       x1="1"
       x2="47" />
    <linearGradient
       id="linearGradient3764-0"
       x1="1"
       x2="47"
       gradientUnits="userSpaceOnUse"
       gradientTransform="matrix(0,-0.65217391,0.65217391,0,8.347825,39.652173)">
      <stop
         stop-color="#3d3d3d"
         stop-opacity="1"
         id="stop7-5"
         style="stop-color:#3d3d3d;stop-opacity:1" />
      <stop
         offset="1"
         stop-color="#474747"
         stop-opacity="1"
         id="stop9-2" />
    </linearGradient>
  </defs>
  <g
     id="g21">
    <path
       d="m 36.31 5 c 5.859 4.062 9.688 10.831 9.688 18.5 c 0 12.426 -10.07 22.5 -22.5 22.5 c -7.669 0 -14.438 -3.828 -18.5 -9.688 c 1.037 1.822 2.306 3.499 3.781 4.969 c 4.085 3.712 9.514 5.969 15.469 5.969 c 12.703 0 23 -10.298 23 -23 c 0 -5.954 -2.256 -11.384 -5.969 -15.469 c -1.469 -1.475 -3.147 -2.744 -4.969 -3.781 z m 4.969 3.781 c 3.854 4.113 6.219 9.637 6.219 15.719 c 0 12.703 -10.297 23 -23 23 c -6.081 0 -11.606 -2.364 -15.719 -6.219 c 4.16 4.144 9.883 6.719 16.219 6.719 c 12.703 0 23 -10.298 23 -23 c 0 -6.335 -2.575 -12.06 -6.719 -16.219 z"
       opacity="0.05"
       id="path23" />
    <path
       d="m 41.28 8.781 c 3.712 4.085 5.969 9.514 5.969 15.469 c 0 12.703 -10.297 23 -23 23 c -5.954 0 -11.384 -2.256 -15.469 -5.969 c 4.113 3.854 9.637 6.219 15.719 6.219 c 12.703 0 23 -10.298 23 -23 c 0 -6.081 -2.364 -11.606 -6.219 -15.719 z"
       opacity="0.1"
       id="path25" />
    <path
       d="m 31.25 2.375 c 8.615 3.154 14.75 11.417 14.75 21.13 c 0 12.426 -10.07 22.5 -22.5 22.5 c -9.708 0 -17.971 -6.135 -21.12 -14.75 a 23 23 0 0 0 44.875 -7 a 23 23 0 0 0 -16 -21.875 z"
       opacity="0.2"
       id="path27" />
  </g>
  <g
     id="g29" />
  <g
     id="g33" />
  <g
     id="g3384"
     transform="matrix(1.5333333,0,0,1.5333333,-12.8,-12.8)">
    <path
       style="fill:url(#linearGradient3396);fill-opacity:1"
       d="m 20.361328,9.4472656 0.0039,0.013672 c 0.675943,-0.1674771 -7.21e-4,-0.00252 -0.0039,-0.013672 z m 0.0039,0.013672 C 17.601092,10.15012 15.140933,11.596371 13.222656,13.580078 15.523691,18.465868 19.885902,21.097248 24,24 23.540364,19.113919 24.699684,14.02779 20.365228,9.4609376 Z M 24,24 C 28.261681,21.219002 32.208458,18.112242 34.777344,13.580078 32.859067,11.596371 30.398908,10.15012 27.634766,9.4609375 24.641413,13.798216 24.661966,18.996611 24,24 Z m 0,0 c 4.658832,1.621196 8.689335,4.310553 14.412109,4.123047 C 38.786674,26.811616 39,25.43172 39,24 39,22.56828 38.786674,21.188384 38.412109,19.876953 33.255738,20.4057 28.572522,22.070016 24,24 Z m 0,0 c 0.784569,5.009626 0.9698,10.248411 3.634766,14.539062 2.764142,-0.689182 5.224301,-2.135433 7.142578,-4.11914 C 32.117465,30.409681 28.603764,26.891035 24,24 Z m 0,0 c -4.532765,2.760946 -8.188695,6.186161 -10.777344,10.419922 1.918277,1.983707 4.378436,3.429958 7.142578,4.11914 C 22.975288,34.515334 23.302774,29.14892 24,24 Z m 0,0 C 19.3908,22.42056 15.230408,20.368691 9.5878906,19.876953 9.2133264,21.188384 9,22.56828 9,24 9,25.43172 9.2133264,26.811616 9.5878906,28.123047 15.334072,27.885769 19.95868,26.294868 24,24 Z m -3.634766,14.539062 -0.0039,0.01367 c 0.0054,-0.0017 0.0027,-0.0096 0.0039,-0.01367 z m 18.046873,-18.662106 0.0098,-0.002 c -9.58e-4,-0.0032 -0.0065,0.0013 -0.0098,0.002 z m -3.626951,-6.304687 -0.0078,0.0078 c 0.930732,1.023088 0.788162,0.862132 0.0078,-0.0078 z m -7.15039,-4.1113285 0.0039,-0.013672 c -0.0046,-0.00108 -0.0026,0.00911 -0.0039,0.013672 z"
       id="path4315"
       inkscape:connector-curvature="0"
       sodipodi:nodetypes="cccccccccccccsccccccccccccscccccccccccccc" />
    <g
       id="g3374">
      <g
         id="g3366">
        <path
           style="fill:#000000;fill-opacity:0.09803922;stroke:none"
           d="M 25 2 C 23.075723 2 21.208302 2.2404092 19.421875 2.6855469 L 25 25 L 30.578125 2.6855469 C 28.791697 2.2404092 26.924275 2 25 2 z M 25 25 L 46.394531 18.878906 A 23 23 0 0 0 41.466797 9.078125 L 25 25 z M 25 25 L 40.5 39.988281 A 23 23 0 0 0 45.90625 30.980469 L 25 25 z M 25 25 L 19.609375 46.568359 A 23 23 0 0 0 24 47 A 23 23 0 0 0 30.279297 46.119141 L 25 25 z M 25 25 L 2.8867188 31.326172 C 3.3944315 33.095832 4.1198937 34.833529 5.0820312 36.5 C 5.9433487 37.991845 6.9555815 39.340489 8.0742188 40.558594 A 23 23 0 0 0 8.5 40.955078 L 25 25 z M 25 25 L 8.4648438 9.0117188 C 7.1861312 10.336241 6.0441688 11.833527 5.0820312 13.5 C 4.1198937 15.166474 3.394433 16.90417 2.8867188 18.673828 L 25 25 z "
           transform="matrix(0.65217393,0,0,0.65217393,8.3478263,8.3478263)"
           id="path3386" />
        <path
           id="path4181"
           d="m 24,23.999984 10.784231,10.426973 c 0.833943,-0.863819 1.578669,-1.840143 2.20615,-2.926973 0.627481,-1.086829 1.10064,-2.219942 1.431758,-3.374068 L 24,23.999984 Z"
           style="fill:#68d87b;fill-opacity:1;stroke:none"
           inkscape:connector-curvature="0" />
        <path
           inkscape:connector-curvature="0"
           style="fill:#f1f05b;fill-opacity:1;stroke:none"
           d="M 24,24 38.422138,19.874068 C 38.091022,18.719943 37.617863,17.58683 36.990382,16.5 36.3629,15.41317 35.618175,14.436847 34.784231,13.573027 L 24,24 Z"
           id="path4189" />
        <path
           style="fill:#dedede;fill-opacity:1;stroke:none"
           d="M 24.000082,24 20.362174,38.552904 C 21.527235,38.843211 22.745119,39 24.000082,39 c 1.254962,0 2.472846,-0.156789 3.637907,-0.447096 L 24.000082,24 Z"
           id="path4156"
           inkscape:connector-curvature="0" />
        <path
           id="path4197"
           d="M 23.999965,24 27.637872,9.4470955 c -1.165061,-0.290307 -2.382945,-0.447096 -3.637907,-0.447096 -1.254963,0 -2.472847,0.156789 -3.637908,0.447096 L 23.999965,24 Z"
           style="fill:#ed7749;fill-opacity:1;stroke:none"
           inkscape:connector-curvature="0" />
        <path
           inkscape:connector-curvature="0"
           style="fill:#dc7096;fill-opacity:1;stroke:none"
           d="M 23.999965,24 13.215734,13.573028 C 12.381791,14.436847 11.637065,15.41317 11.009584,16.5 10.382103,17.58683 9.908944,18.719943 9.577826,19.874068 L 23.999965,24 Z"
           id="path4205" />
        <path
           id="path4213"
           d="M 23.999964,23.999984 9.577826,28.125916 c 0.331117,1.154126 0.804276,2.287239 1.431757,3.374068 0.627482,1.08683 1.372207,2.063154 2.20615,2.926973 L 23.999964,23.999984 Z"
           style="fill:#508fd0;fill-opacity:1;stroke:none"
           inkscape:connector-curvature="0" />
      </g>
    </g>
  </g>
  <g
     id="g71">
    <path
       d="m 40.03 7.531 c 3.712 4.084 5.969 9.514 5.969 15.469 0 12.703 -10.297 23 -23 23 c -5.954 0 -11.384 -2.256 -15.469 -5.969 4.178 4.291 10.01 6.969 16.469 6.969 c 12.703 0 23 -10.298 23 -23 0 -6.462 -2.677 -12.291 -6.969 -16.469 z"
       opacity="0.1"
       id="path73" />
  </g>
</svg>
