<svg viewBox="0 0 48 48"><defs><linearGradient id="linearGradient3764" x1="1" x2="47" gradientUnits="userSpaceOnUse" gradientTransform="matrix(0,-1,1,0,-1.5e-6,47.999998)"><stop stop-color="#3d3d3d" stop-opacity="1"/><stop offset="1" stop-color="#474747" stop-opacity="1"/></linearGradient><clipPath id="clipPath-580249408"><g transform="translate(0,-1004.3622)"><path d="m -24 13 c 0 1.105 -0.672 2 -1.5 2 -0.828 0 -1.5 -0.895 -1.5 -2 0 -1.105 0.672 -2 1.5 -2 0.828 0 1.5 0.895 1.5 2 z" transform="matrix(15.333333,0,0,11.5,414.99999,878.8622)" fill="#1890d0"/></g></clipPath><clipPath id="clipPath-590354878"><g transform="translate(0,-1004.3622)"><path d="m -24 13 c 0 1.105 -0.672 2 -1.5 2 -0.828 0 -1.5 -0.895 -1.5 -2 0 -1.105 0.672 -2 1.5 -2 0.828 0 1.5 0.895 1.5 2 z" transform="matrix(15.333333,0,0,11.5,414.99999,878.8622)" fill="#1890d0"/></g></clipPath></defs><g><path d="m 36.31 5 c 5.859 4.062 9.688 10.831 9.688 18.5 c 0 12.426 -10.07 22.5 -22.5 22.5 c -7.669 0 -14.438 -3.828 -18.5 -9.688 c 1.037 1.822 2.306 3.499 3.781 4.969 c 4.085 3.712 9.514 5.969 15.469 5.969 c 12.703 0 23 -10.298 23 -23 c 0 -5.954 -2.256 -11.384 -5.969 -15.469 c -1.469 -1.475 -3.147 -2.744 -4.969 -3.781 z m 4.969 3.781 c 3.854 4.113 6.219 9.637 6.219 15.719 c 0 12.703 -10.297 23 -23 23 c -6.081 0 -11.606 -2.364 -15.719 -6.219 c 4.16 4.144 9.883 6.719 16.219 6.719 c 12.703 0 23 -10.298 23 -23 c 0 -6.335 -2.575 -12.06 -6.719 -16.219 z" opacity="0.05"/><path d="m 41.28 8.781 c 3.712 4.085 5.969 9.514 5.969 15.469 c 0 12.703 -10.297 23 -23 23 c -5.954 0 -11.384 -2.256 -15.469 -5.969 c 4.113 3.854 9.637 6.219 15.719 6.219 c 12.703 0 23 -10.298 23 -23 c 0 -6.081 -2.364 -11.606 -6.219 -15.719 z" opacity="0.1"/><path d="m 31.25 2.375 c 8.615 3.154 14.75 11.417 14.75 21.13 c 0 12.426 -10.07 22.5 -22.5 22.5 c -9.708 0 -17.971 -6.135 -21.12 -14.75 a 23 23 0 0 0 44.875 -7 a 23 23 0 0 0 -16 -21.875 z" opacity="0.2"/></g><g><path d="m 24 1 c 12.703 0 23 10.297 23 23 c 0 12.703 -10.297 23 -23 23 -12.703 0 -23 -10.297 -23 -23 0 -12.703 10.297 -23 23 -23 z" fill="url(#linearGradient3764)" fill-opacity="1"/></g><g/><g><g clip-path="url(#clipPath-580249408)"><g transform="translate(1,1)"><g opacity="0.1"><!-- color: #474747 --><g><path d="m 22.02 32 l 3.961 0 c 0.012 0 0.02 0.004 0.02 0.004 l 0 1.992 c 0 0 -0.008 0.004 -0.02 0.004 l -3.961 0 c -0.012 0 -0.02 -0.004 -0.02 -0.004 l 0 -1.992 c 0 0 0.008 -0.004 0.02 -0.004 m 0 0" fill="#000" stroke="none" fill-rule="nonzero" fill-opacity="1"/><path d="m 22.02 28.984 l 3.961 0 c 0.012 0 0.02 0.004 0.02 0.004 l 0 1.992 c 0 0.004 -0.008 0.004 -0.02 0.004 l -3.961 0 c -0.012 0 -0.02 0 -0.02 -0.004 l 0 -1.992 c 0 0 0.008 -0.004 0.02 -0.004 m 0 0" fill="#000" stroke="none" fill-rule="nonzero" fill-opacity="0.902"/><path d="m 22.02 26.02 l 3.961 0 c 0.012 0 0.02 0 0.02 0.004 l 0 1.965 c 0 0.004 -0.008 0.004 -0.02 0.004 l -3.961 0 c -0.012 0 -0.02 0 -0.02 -0.004 l 0 -1.965 c 0 -0.004 0.008 -0.004 0.02 -0.004 m 0 0" fill="#000" stroke="none" fill-rule="nonzero" fill-opacity="0.8"/><path d="m 22.02 23 l 3.961 0 c 0.012 0 0.02 0 0.02 0.004 l 0 1.953 c 0 0 -0.008 0.004 -0.02 0.004 l -3.961 0 c -0.012 0 -0.02 -0.004 -0.02 -0.004 l 0 -1.953 c 0 -0.004 0.008 -0.004 0.02 -0.004 m 0 0" fill="#000" stroke="none" fill-rule="nonzero" fill-opacity="0.702"/><path d="m 22.02 20 l 3.961 0 c 0.012 0 0.02 0 0.02 0.004 l 0 1.941 c 0 0 -0.008 0.004 -0.02 0.004 l -3.961 0 c -0.012 0 -0.02 -0.004 -0.02 -0.004 l 0 -1.941 c 0 -0.004 0.008 -0.004 0.02 -0.004 m 0 0" fill="#000" stroke="none" fill-rule="nonzero" fill-opacity="0.6"/><path d="m 32.02 32.01 l 3.957 0 c 0.012 0 0.023 0 0.023 0.004 l 0 1.977 c 0 0 -0.012 0.004 -0.023 0.004 l -3.957 0 c -0.012 0 -0.02 -0.004 -0.02 -0.004 l 0 -1.977 c 0 -0.004 0.008 -0.004 0.02 -0.004 m 0 0" fill="#000" stroke="none" fill-rule="nonzero" fill-opacity="1"/><path d="m 32.02 29.02 l 3.957 0 c 0.012 0 0.023 0.004 0.023 0.004 l 0 1.969 c 0 0 -0.012 0.004 -0.023 0.004 l -3.957 0 c -0.012 0 -0.02 -0.004 -0.02 -0.004 l 0 -1.969 c 0 0 0.008 -0.004 0.02 -0.004 m 0 0" fill="#000" stroke="none" fill-rule="nonzero" fill-opacity="0.902"/><path d="m 32.02 26.05 l 3.957 0 c 0.012 0 0.023 0.004 0.023 0.004 l 0 1.957 c 0 0 -0.012 0.004 -0.023 0.004 l -3.957 0 c -0.012 0 -0.02 -0.004 -0.02 -0.004 l 0 -1.957 c 0 0 0.008 -0.004 0.02 -0.004 m 0 0" fill="#000" stroke="none" fill-rule="nonzero" fill-opacity="0.8"/><path d="m 32.02 23.05 l 3.957 0 c 0.012 0 0.023 0 0.023 0.004 l 0 1.941 c 0 0 -0.012 0.004 -0.023 0.004 l -3.957 0 c -0.012 0 -0.02 -0.004 -0.02 -0.004 l 0 -1.941 c 0 -0.004 0.008 -0.004 0.02 -0.004 m 0 0" fill="#000" stroke="none" fill-rule="nonzero" fill-opacity="0.702"/><path d="m 32.02 20.06 l 3.957 0 c 0.012 0 0.023 0 0.023 0.004 l 0 1.926 c 0 0.004 -0.012 0.004 -0.023 0.004 l -3.957 0 c -0.012 0 -0.02 0 -0.02 -0.004 l 0 -1.926 c 0 -0.004 0.008 -0.004 0.02 -0.004 m 0 0" fill="#000" stroke="none" fill-rule="nonzero" fill-opacity="0.6"/><path d="m 32.02 17 l 3.957 0 c 0.012 0 0.023 0.004 0.023 0.004 l 0 1.992 c 0 0 -0.012 0.004 -0.023 0.004 l -3.957 0 c -0.012 0 -0.02 -0.004 -0.02 -0.004 l 0 -1.992 c 0 0 0.008 -0.004 0.02 -0.004 m 0 0" fill="#000" stroke="none" fill-rule="nonzero" fill-opacity="0.502"/><path d="m 37.02 32 l 3.957 0 c 0.012 0 0.023 0.004 0.023 0.004 l 0 1.992 c 0 0 -0.012 0.004 -0.023 0.004 l -3.957 0 c -0.012 0 -0.02 -0.004 -0.02 -0.004 l 0 -1.992 c 0 0 0.008 -0.004 0.02 -0.004 m 0 0" fill="#000" stroke="none" fill-rule="nonzero" fill-opacity="1"/><path d="m 37.02 29 l 3.957 0 c 0.012 0 0.023 0 0.023 0.004 l 0 1.98 c 0 0 -0.012 0.004 -0.023 0.004 l -3.957 0 c -0.012 0 -0.02 -0.004 -0.02 -0.004 l 0 -1.98 c 0 -0.004 0.008 -0.004 0.02 -0.004 m 0 0" fill="#000" stroke="none" fill-rule="nonzero" fill-opacity="0.902"/><path d="m 37.02 26.02 l 3.957 0 c 0.012 0 0.023 0 0.023 0.004 l 0 1.965 c 0 0.004 -0.012 0.004 -0.023 0.004 l -3.957 0 c -0.012 0 -0.02 0 -0.02 -0.004 l 0 -1.965 c 0 -0.004 0.008 -0.004 0.02 -0.004 m 0 0" fill="#000" stroke="none" fill-rule="nonzero" fill-opacity="0.8"/><path d="m 37.02 23 l 3.957 0 c 0.012 0 0.023 0 0.023 0.004 l 0 1.953 c 0 0 -0.012 0.004 -0.023 0.004 l -3.957 0 c -0.012 0 -0.02 -0.004 -0.02 -0.004 l 0 -1.953 c 0 -0.004 0.008 -0.004 0.02 -0.004 m 0 0" fill="#000" stroke="none" fill-rule="nonzero" fill-opacity="0.702"/><path d="m 37.02 20 l 3.957 0 c 0.012 0 0.023 0 0.023 0.004 l 0 1.941 c 0 0 -0.012 0.004 -0.023 0.004 l -3.957 0 c -0.012 0 -0.02 -0.004 -0.02 -0.004 l 0 -1.941 c 0 -0.004 0.008 -0.004 0.02 -0.004 m 0 0" fill="#000" stroke="none" fill-rule="nonzero" fill-opacity="0.6"/><path d="m 27.02 32 l 3.957 0 c 0.012 0 0.023 0.004 0.023 0.004 l 0 1.992 c 0 0 -0.012 0.004 -0.023 0.004 l -3.957 0 c -0.012 0 -0.02 -0.004 -0.02 -0.004 l 0 -1.992 c 0 0 0.008 -0.004 0.02 -0.004 m 0 0" fill="#000" stroke="none" fill-rule="nonzero" fill-opacity="1"/><path d="m 27.02 29 l 3.957 0 c 0.012 0 0.023 0 0.023 0.004 l 0 1.98 c 0 0 -0.012 0.004 -0.023 0.004 l -3.957 0 c -0.012 0 -0.02 -0.004 -0.02 -0.004 l 0 -1.98 c 0 -0.004 0.008 -0.004 0.02 -0.004 m 0 0" fill="#000" stroke="none" fill-rule="nonzero" fill-opacity="0.902"/><path d="m 27.02 26.02 l 3.957 0 c 0.012 0 0.023 0 0.023 0.004 l 0 1.965 c 0 0.004 -0.012 0.004 -0.023 0.004 l -3.957 0 c -0.012 0 -0.02 0 -0.02 -0.004 l 0 -1.965 c 0 -0.004 0.008 -0.004 0.02 -0.004 m 0 0" fill="#000" stroke="none" fill-rule="nonzero" fill-opacity="0.8"/><path d="m 12 32 l 4 0 l 0 2 l -4 0 m 0 -2" fill="#000" stroke="none" fill-rule="nonzero" fill-opacity="1"/><path d="m 12 29 l 4 0 l 0 2 l -4 0 m 0 -2" fill="#000" stroke="none" fill-rule="nonzero" fill-opacity="0.902"/><path d="m 12 26 l 4 0 l 0 2 l -4 0 m 0 -2" fill="#000" stroke="none" fill-rule="nonzero" fill-opacity="0.8"/><path d="m 12 23 l 4 0 l 0 2 l -4 0 m 0 -2" fill="#000" stroke="none" fill-rule="nonzero" fill-opacity="0.702"/><path d="m 12 20 l 4 0 l 0 1.996 l -4 0 m 0 -1.996" fill="#000" stroke="none" fill-rule="nonzero" fill-opacity="0.6"/><path d="m 12 16.996 l 4 0 l 0 2 l -4 0 m 0 -2" fill="#000" stroke="none" fill-rule="nonzero" fill-opacity="0.502"/><path d="m 12 14 l 4 0 l 0 2 l -4 0 m 0 -2" fill="#000" stroke="none" fill-rule="nonzero" fill-opacity="0.4"/><path d="m 17.02 32 l 3.961 0 c 0.008 0 0.02 0 0.02 0.004 l 0 1.988 c 0 0.004 -0.012 0.004 -0.02 0.004 l -3.961 0 c -0.012 0 -0.02 0 -0.02 -0.004 l 0 -1.988 c 0 -0.004 0.008 -0.004 0.02 -0.004 m 0 0" fill="#000" stroke="none" fill-rule="nonzero" fill-opacity="1"/><path d="m 17.02 28.988 l 3.961 0 c 0.008 0 0.02 0 0.02 0.004 l 0 1.992 c 0 0 -0.012 0.004 -0.02 0.004 l -3.961 0 c -0.012 0 -0.02 -0.004 -0.02 -0.004 l 0 -1.992 c 0 -0.004 0.008 -0.004 0.02 -0.004 m 0 0" fill="#000" stroke="none" fill-rule="nonzero" fill-opacity="0.902"/><path d="m 17.02 26 l 3.961 0 c 0.008 0 0.02 0 0.02 0.004 l 0 1.965 c 0 0 -0.012 0.004 -0.02 0.004 l -3.961 0 c -0.012 0 -0.02 -0.004 -0.02 -0.004 l 0 -1.965 c 0 -0.004 0.008 -0.004 0.02 -0.004 m 0 0" fill="#000" stroke="none" fill-rule="nonzero" fill-opacity="0.8"/><path d="m 17.02 22.996 l 3.961 0 c 0.008 0 0.02 0.004 0.02 0.004 l 0 1.953 c 0 0.004 -0.012 0.004 -0.02 0.004 l -3.961 0 c -0.012 0 -0.02 0 -0.02 -0.004 l 0 -1.953 c 0 0 0.008 -0.004 0.02 -0.004 m 0 0" fill="#000" stroke="none" fill-rule="nonzero" fill-opacity="0.702"/><path d="m 7.02 32 l 3.957 0 c 0.012 0 0.02 0.004 0.02 0.004 l 0 1.992 c 0 0 -0.008 0.004 -0.02 0.004 l -3.957 0 c -0.012 0 -0.023 -0.004 -0.023 -0.004 l 0 -1.992 c 0 0 0.012 -0.004 0.023 -0.004 m 0 0" fill="#000" stroke="none" fill-rule="nonzero" fill-opacity="1"/><path d="m 7.02 29 l 3.957 0 c 0.012 0 0.02 0 0.02 0.004 l 0 1.98 c 0 0 -0.008 0.004 -0.02 0.004 l -3.957 0 c -0.012 0 -0.023 -0.004 -0.023 -0.004 l 0 -1.98 c 0 -0.004 0.012 -0.004 0.023 -0.004 m 0 0" fill="#000" stroke="none" fill-rule="nonzero" fill-opacity="0.902"/><path d="m 7.02 26.02 l 3.957 0 c 0.012 0 0.02 0 0.02 0.004 l 0 1.965 c 0 0.004 -0.008 0.004 -0.02 0.004 l -3.957 0 c -0.012 0 -0.023 0 -0.023 -0.004 l 0 -1.965 c 0 -0.004 0.012 -0.004 0.023 -0.004 m 0 0" fill="#000" stroke="none" fill-rule="nonzero" fill-opacity="0.8"/><path d="m 7.02 23 l 3.957 0 c 0.012 0 0.02 0 0.02 0.004 l 0 1.953 c 0 0 -0.008 0.004 -0.02 0.004 l -3.957 0 c -0.012 0 -0.023 -0.004 -0.023 -0.004 l 0 -1.953 c 0 -0.004 0.012 -0.004 0.023 -0.004 m 0 0" fill="#000" stroke="none" fill-rule="nonzero" fill-opacity="0.702"/><path d="m 7.02 20 l 3.957 0 c 0.012 0 0.02 0 0.02 0.004 l 0 1.941 c 0 0 -0.008 0.004 -0.02 0.004 l -3.957 0 c -0.012 0 -0.023 -0.004 -0.023 -0.004 l 0 -1.941 c 0 -0.004 0.012 -0.004 0.023 -0.004 m 0 0" fill="#000" stroke="none" fill-rule="nonzero" fill-opacity="0.6"/><path d="m 2 17 l 0 2 l 4 0 l 0 -2 m -4 0" fill="#000" stroke="none" fill-rule="nonzero" fill-opacity="0.502"/><path d="m 2 20 l 0 2 l 4 0 l 0 -2 m -4 0" fill="#000" stroke="none" fill-rule="nonzero" fill-opacity="0.6"/><path d="m 2 23 l 0 2 l 4 0 l 0 -2 m -4 0" fill="#000" stroke="none" fill-rule="nonzero" fill-opacity="0.702"/><path d="m 2 26 l 0 2 l 4 0 l 0 -2 m -4 0" fill="#000" stroke="none" fill-rule="nonzero" fill-opacity="0.8"/><path d="m 2 29 l 0 2 l 4 0 l 0 -2 m -4 0" fill="#000" stroke="none" fill-rule="nonzero" fill-opacity="0.902"/><path d="m 2 32 l 0 2 l 4 0 l 0 -2 m -4 0" fill="#000" stroke="none" fill-rule="nonzero" fill-opacity="1"/><path d="m 42 14 l 0 2 l 4 0 l 0 -2 m -4 0" fill="#000" stroke="none" fill-rule="nonzero" fill-opacity="0.4"/><path d="m 42 17 l 0 2 l 4 0 l 0 -2 m -4 0" fill="#000" stroke="none" fill-rule="nonzero" fill-opacity="0.502"/><path d="m 42 20 l 0 2 l 4 0 l 0 -2 m -4 0" fill="#000" stroke="none" fill-rule="nonzero" fill-opacity="0.6"/><path d="m 42 23 l 0 2 l 4 0 l 0 -2 m -4 0" fill="#000" stroke="none" fill-rule="nonzero" fill-opacity="0.702"/><path d="m 42 26 l 0 2 l 4 0 l 0 -2 m -4 0" fill="#000" stroke="none" fill-rule="nonzero" fill-opacity="0.8"/><path d="m 42 29 l 0 2 l 4 0 l 0 -2 m -4 0" fill="#000" stroke="none" fill-rule="nonzero" fill-opacity="0.902"/><path d="m 42 32 l 0 2 l 4 0 l 0 -2 m -4 0" fill="#000" stroke="none" fill-rule="nonzero" fill-opacity="1"/><path d="m 18.13 24 c -1.336 1.27 -2.133 2.977 -2.133 4.859 c 0 3.953 3.582 7.121 8 7.121 c 4.426 0 8 -3.188 8 -7.121 c 0 -1.879 -0.805 -3.586 -2.133 -4.859 l -1.602 1.426 c 0.926 0.906 1.449 2.109 1.449 3.434 c 0 2.82 -2.551 5.102 -5.715 5.102 c -3.164 0 -5.719 -2.281 -5.719 -5.102 c 0 -1.316 0.563 -2.5 1.488 -3.398 m -1.641 -1.461" fill="#000" stroke="none" fill-rule="nonzero" fill-opacity="1"/><path d="m 23.895 14.664 l 0.207 0 c 0.496 0 0.895 0.402 0.895 0.898 l 0 15.539 c 0 0.496 -0.398 0.898 -0.895 0.898 l -0.207 0 c -0.492 0 -0.895 -0.402 -0.895 -0.898 l 0 -15.539 c 0 -0.496 0.402 -0.898 0.895 -0.898 m 0 0" fill="#000" stroke="none" fill-rule="nonzero" fill-opacity="1"/><path d="m 15 22.52 l 0 -0.039 c 0 -0.266 0.215 -0.48 0.48 -0.48 l 17.04 0 c 0.266 0 0.484 0.215 0.484 0.48 l 0 0.039 c 0 0.266 -0.219 0.48 -0.484 0.48 l -17.04 0 c -0.266 0 -0.48 -0.215 -0.48 -0.48 m 0 0" fill="#000" stroke="none" fill-rule="nonzero" fill-opacity="1"/><path d="m 32.445 16 l 0.102 0 c 0.246 0 0.449 0.203 0.449 0.453 l 0 5.762 c 0 0.25 -0.203 0.453 -0.449 0.453 l -0.102 0 c -0.246 0 -0.449 -0.203 -0.449 -0.453 l 0 -5.762 c 0 -0.25 0.203 -0.453 0.449 -0.453 m 0 0" fill="#000" stroke="none" fill-rule="nonzero" fill-opacity="1"/><path d="m 15.449 16 l 0.098 0 c 0.25 0 0.449 0.203 0.449 0.453 l 0 5.762 c 0 0.25 -0.199 0.453 -0.449 0.453 l -0.098 0 c -0.25 0 -0.449 -0.203 -0.449 -0.453 l 0 -5.762 c 0 -0.25 0.199 -0.453 0.449 -0.453 m 0 0" fill="#000" stroke="none" fill-rule="nonzero" fill-opacity="1"/><path d="m 23.781 12 c -0.055 0.004 -0.105 0.039 -0.16 0.051 c -0.148 0.027 -0.301 0.027 -0.438 0.102 c -0.277 0.148 -0.473 0.41 -0.598 0.668 c -0.051 0.098 -0.141 0.199 -0.164 0.309 l -2.18 3.477 c -0.48 0.789 -0.219 1.789 0.547 2.203 c 0.766 0.414 1.75 0.121 2.23 -0.668 l 0.984 -1.586 l 0.977 1.586 c 0.48 0.789 1.465 1.082 2.23 0.668 c 0.766 -0.414 1.023 -1.414 0.547 -2.203 l -2.184 -3.477 c -0.016 -0.07 -0.082 -0.137 -0.105 -0.207 l -0.059 -0.102 c -0.125 -0.258 -0.316 -0.516 -0.598 -0.668 c -0.137 -0.074 -0.285 -0.07 -0.434 -0.102 c -0.133 -0.023 -0.25 -0.059 -0.383 -0.051 c -0.074 -0.004 -0.145 -0.008 -0.219 0 m -0.004 0" fill="#000" stroke="none" fill-rule="nonzero" fill-opacity="1"/><path d="m 15.363 14 c -0.035 0.004 -0.066 0.02 -0.102 0.027 c -0.094 0.02 -0.184 0.016 -0.273 0.059 c -0.172 0.086 -0.293 0.23 -0.375 0.383 c -0.031 0.055 -0.086 0.113 -0.102 0.176 l -1.363 1.988 c -0.301 0.449 -0.137 1.02 0.34 1.258 c 0.48 0.238 1.098 0.066 1.398 -0.379 l 0.613 -0.906 l 0.613 0.906 c 0.301 0.449 0.914 0.617 1.395 0.379 c 0.477 -0.238 0.641 -0.809 0.34 -1.258 l -1.359 -1.988 c -0.012 -0.043 -0.051 -0.078 -0.07 -0.117 l -0.035 -0.059 c -0.078 -0.152 -0.199 -0.297 -0.375 -0.383 c -0.086 -0.039 -0.176 -0.039 -0.273 -0.059 c -0.078 -0.016 -0.156 -0.031 -0.234 -0.027 c -0.047 -0.004 -0.09 -0.004 -0.137 0 m 0 0" fill="#000" stroke="none" fill-rule="nonzero" fill-opacity="1"/><path d="m 23.836 31.996 c -0.043 -0.004 -0.078 -0.027 -0.125 -0.035 c -0.113 -0.023 -0.223 -0.023 -0.324 -0.074 c -0.211 -0.105 -0.355 -0.293 -0.449 -0.477 c -0.035 -0.07 -0.105 -0.141 -0.125 -0.219 l -1.633 -2.488 c -0.363 -0.559 -0.168 -1.273 0.406 -1.57 c 0.574 -0.301 1.313 -0.086 1.672 0.473 l 0.734 1.133 l 0.734 -1.133 c 0.359 -0.559 1.102 -0.773 1.672 -0.473 c 0.574 0.297 0.77 1.012 0.406 1.57 l -1.633 2.488 c -0.016 0.055 -0.059 0.098 -0.082 0.145 l -0.043 0.074 c -0.094 0.184 -0.238 0.371 -0.449 0.477 c -0.102 0.051 -0.215 0.051 -0.324 0.074 c -0.102 0.016 -0.188 0.043 -0.289 0.035 c -0.055 0.004 -0.105 0.004 -0.164 0 m 0.016 0" fill="#000" stroke="none" fill-rule="nonzero" fill-opacity="1"/><path d="m 32.363 14 c -0.035 0.004 -0.066 0.02 -0.102 0.027 c -0.094 0.02 -0.184 0.016 -0.273 0.059 c -0.172 0.086 -0.293 0.23 -0.375 0.383 c -0.031 0.055 -0.086 0.113 -0.102 0.176 l -1.363 1.988 c -0.301 0.449 -0.137 1.02 0.34 1.258 c 0.48 0.238 1.098 0.066 1.398 -0.379 l 0.613 -0.906 l 0.613 0.906 c 0.301 0.449 0.918 0.617 1.395 0.379 c 0.48 -0.238 0.641 -0.809 0.34 -1.258 l -1.359 -1.988 c -0.012 -0.043 -0.051 -0.078 -0.066 -0.117 l -0.035 -0.059 c -0.082 -0.152 -0.203 -0.297 -0.379 -0.383 c -0.082 -0.039 -0.176 -0.039 -0.27 -0.059 c -0.082 -0.016 -0.156 -0.031 -0.238 -0.027 c -0.047 -0.004 -0.09 -0.004 -0.137 0 m 0 0" fill="#000" stroke="none" fill-rule="nonzero" fill-opacity="1"/></g></g></g></g></g><g><g clip-path="url(#clipPath-590354878)"><!-- color: #474747 --><g><path d="m 22.02 32 l 3.961 0 c 0.012 0 0.02 0.004 0.02 0.004 l 0 1.992 c 0 0 -0.008 0.004 -0.02 0.004 l -3.961 0 c -0.012 0 -0.02 -0.004 -0.02 -0.004 l 0 -1.992 c 0 0 0.008 -0.004 0.02 -0.004 m 0 0" fill="#e4c82f" stroke="none" fill-rule="nonzero" fill-opacity="1"/><path d="m 22.02 28.984 l 3.961 0 c 0.012 0 0.02 0.004 0.02 0.004 l 0 1.992 c 0 0.004 -0.008 0.004 -0.02 0.004 l -3.961 0 c -0.012 0 -0.02 0 -0.02 -0.004 l 0 -1.992 c 0 0 0.008 -0.004 0.02 -0.004 m 0 0" fill="#e4c82f" stroke="none" fill-rule="nonzero" fill-opacity="0.902"/><path d="m 22.02 26.02 l 3.961 0 c 0.012 0 0.02 0 0.02 0.004 l 0 1.965 c 0 0.004 -0.008 0.004 -0.02 0.004 l -3.961 0 c -0.012 0 -0.02 0 -0.02 -0.004 l 0 -1.965 c 0 -0.004 0.008 -0.004 0.02 -0.004 m 0 0" fill="#e4c82f" stroke="none" fill-rule="nonzero" fill-opacity="0.8"/><path d="m 22.02 23 l 3.961 0 c 0.012 0 0.02 0 0.02 0.004 l 0 1.953 c 0 0 -0.008 0.004 -0.02 0.004 l -3.961 0 c -0.012 0 -0.02 -0.004 -0.02 -0.004 l 0 -1.953 c 0 -0.004 0.008 -0.004 0.02 -0.004 m 0 0" fill="#e4c82f" stroke="none" fill-rule="nonzero" fill-opacity="0.702"/><path d="m 22.02 20 l 3.961 0 c 0.012 0 0.02 0 0.02 0.004 l 0 1.941 c 0 0 -0.008 0.004 -0.02 0.004 l -3.961 0 c -0.012 0 -0.02 -0.004 -0.02 -0.004 l 0 -1.941 c 0 -0.004 0.008 -0.004 0.02 -0.004 m 0 0" fill="#e4c82f" stroke="none" fill-rule="nonzero" fill-opacity="0.6"/><path d="m 32.02 32.01 l 3.957 0 c 0.012 0 0.023 0 0.023 0.004 l 0 1.977 c 0 0 -0.012 0.004 -0.023 0.004 l -3.957 0 c -0.012 0 -0.02 -0.004 -0.02 -0.004 l 0 -1.977 c 0 -0.004 0.008 -0.004 0.02 -0.004 m 0 0" fill="#3e8ded" stroke="none" fill-rule="nonzero" fill-opacity="1"/><path d="m 32.02 29.02 l 3.957 0 c 0.012 0 0.023 0.004 0.023 0.004 l 0 1.969 c 0 0 -0.012 0.004 -0.023 0.004 l -3.957 0 c -0.012 0 -0.02 -0.004 -0.02 -0.004 l 0 -1.969 c 0 0 0.008 -0.004 0.02 -0.004 m 0 0" fill="#3e8ded" stroke="none" fill-rule="nonzero" fill-opacity="0.902"/><path d="m 32.02 26.05 l 3.957 0 c 0.012 0 0.023 0.004 0.023 0.004 l 0 1.957 c 0 0 -0.012 0.004 -0.023 0.004 l -3.957 0 c -0.012 0 -0.02 -0.004 -0.02 -0.004 l 0 -1.957 c 0 0 0.008 -0.004 0.02 -0.004 m 0 0" fill="#3e8ded" stroke="none" fill-rule="nonzero" fill-opacity="0.8"/><path d="m 32.02 23.05 l 3.957 0 c 0.012 0 0.023 0 0.023 0.004 l 0 1.941 c 0 0 -0.012 0.004 -0.023 0.004 l -3.957 0 c -0.012 0 -0.02 -0.004 -0.02 -0.004 l 0 -1.941 c 0 -0.004 0.008 -0.004 0.02 -0.004 m 0 0" fill="#3e8ded" stroke="none" fill-rule="nonzero" fill-opacity="0.702"/><path d="m 32.02 20.06 l 3.957 0 c 0.012 0 0.023 0 0.023 0.004 l 0 1.926 c 0 0.004 -0.012 0.004 -0.023 0.004 l -3.957 0 c -0.012 0 -0.02 0 -0.02 -0.004 l 0 -1.926 c 0 -0.004 0.008 -0.004 0.02 -0.004 m 0 0" fill="#3e8ded" stroke="none" fill-rule="nonzero" fill-opacity="0.6"/><path d="m 32.02 17 l 3.957 0 c 0.012 0 0.023 0.004 0.023 0.004 l 0 1.992 c 0 0 -0.012 0.004 -0.023 0.004 l -3.957 0 c -0.012 0 -0.02 -0.004 -0.02 -0.004 l 0 -1.992 c 0 0 0.008 -0.004 0.02 -0.004 m 0 0" fill="#3e8ded" stroke="none" fill-rule="nonzero" fill-opacity="0.502"/><path d="m 37.02 32 l 3.957 0 c 0.012 0 0.023 0.004 0.023 0.004 l 0 1.992 c 0 0 -0.012 0.004 -0.023 0.004 l -3.957 0 c -0.012 0 -0.02 -0.004 -0.02 -0.004 l 0 -1.992 c 0 0 0.008 -0.004 0.02 -0.004 m 0 0" fill="#db4ddb" stroke="none" fill-rule="nonzero" fill-opacity="1"/><path d="m 37.02 29 l 3.957 0 c 0.012 0 0.023 0 0.023 0.004 l 0 1.98 c 0 0 -0.012 0.004 -0.023 0.004 l -3.957 0 c -0.012 0 -0.02 -0.004 -0.02 -0.004 l 0 -1.98 c 0 -0.004 0.008 -0.004 0.02 -0.004 m 0 0" fill="#db4ddb" stroke="none" fill-rule="nonzero" fill-opacity="0.902"/><path d="m 37.02 26.02 l 3.957 0 c 0.012 0 0.023 0 0.023 0.004 l 0 1.965 c 0 0.004 -0.012 0.004 -0.023 0.004 l -3.957 0 c -0.012 0 -0.02 0 -0.02 -0.004 l 0 -1.965 c 0 -0.004 0.008 -0.004 0.02 -0.004 m 0 0" fill="#db4ddb" stroke="none" fill-rule="nonzero" fill-opacity="0.8"/><path d="m 37.02 23 l 3.957 0 c 0.012 0 0.023 0 0.023 0.004 l 0 1.953 c 0 0 -0.012 0.004 -0.023 0.004 l -3.957 0 c -0.012 0 -0.02 -0.004 -0.02 -0.004 l 0 -1.953 c 0 -0.004 0.008 -0.004 0.02 -0.004 m 0 0" fill="#db4ddb" stroke="none" fill-rule="nonzero" fill-opacity="0.702"/><path d="m 37.02 20 l 3.957 0 c 0.012 0 0.023 0 0.023 0.004 l 0 1.941 c 0 0 -0.012 0.004 -0.023 0.004 l -3.957 0 c -0.012 0 -0.02 -0.004 -0.02 -0.004 l 0 -1.941 c 0 -0.004 0.008 -0.004 0.02 -0.004 m 0 0" fill="#db4ddb" stroke="none" fill-rule="nonzero" fill-opacity="0.6"/><path d="m 27.02 32 l 3.957 0 c 0.012 0 0.023 0.004 0.023 0.004 l 0 1.992 c 0 0 -0.012 0.004 -0.023 0.004 l -3.957 0 c -0.012 0 -0.02 -0.004 -0.02 -0.004 l 0 -1.992 c 0 0 0.008 -0.004 0.02 -0.004 m 0 0" fill="#7fcf5b" stroke="none" fill-rule="nonzero" fill-opacity="1"/><path d="m 27.02 29 l 3.957 0 c 0.012 0 0.023 0 0.023 0.004 l 0 1.98 c 0 0 -0.012 0.004 -0.023 0.004 l -3.957 0 c -0.012 0 -0.02 -0.004 -0.02 -0.004 l 0 -1.98 c 0 -0.004 0.008 -0.004 0.02 -0.004 m 0 0" fill="#7fcf5b" stroke="none" fill-rule="nonzero" fill-opacity="0.902"/><path d="m 27.02 26.02 l 3.957 0 c 0.012 0 0.023 0 0.023 0.004 l 0 1.965 c 0 0.004 -0.012 0.004 -0.023 0.004 l -3.957 0 c -0.012 0 -0.02 0 -0.02 -0.004 l 0 -1.965 c 0 -0.004 0.008 -0.004 0.02 -0.004 m 0 0" fill="#7fcf5b" stroke="none" fill-rule="nonzero" fill-opacity="0.8"/><path d="m 12 32 l 4 0 l 0 2 l -4 0 m 0 -2" fill="#c52f2f" stroke="none" fill-rule="nonzero" fill-opacity="1"/><path d="m 12 29 l 4 0 l 0 2 l -4 0 m 0 -2" fill="#c52f2f" stroke="none" fill-rule="nonzero" fill-opacity="0.902"/><path d="m 12 26 l 4 0 l 0 2 l -4 0 m 0 -2" fill="#c52f2f" stroke="none" fill-rule="nonzero" fill-opacity="0.8"/><path d="m 12 23 l 4 0 l 0 2 l -4 0 m 0 -2" fill="#c52f2f" stroke="none" fill-rule="nonzero" fill-opacity="0.702"/><path d="m 12 20 l 4 0 l 0 1.996 l -4 0 m 0 -1.996" fill="#c52f2f" stroke="none" fill-rule="nonzero" fill-opacity="0.6"/><path d="m 12 16.996 l 4 0 l 0 2 l -4 0 m 0 -2" fill="#c52f2f" stroke="none" fill-rule="nonzero" fill-opacity="0.502"/><path d="m 12 14 l 4 0 l 0 2 l -4 0 m 0 -2" fill="#c52f2f" stroke="none" fill-rule="nonzero" fill-opacity="0.4"/><path d="m 17.02 32 l 3.961 0 c 0.008 0 0.02 0 0.02 0.004 l 0 1.988 c 0 0.004 -0.012 0.004 -0.02 0.004 l -3.961 0 c -0.012 0 -0.02 0 -0.02 -0.004 l 0 -1.988 c 0 -0.004 0.008 -0.004 0.02 -0.004 m 0 0" fill="#ec8e19" stroke="none" fill-rule="nonzero" fill-opacity="1"/><path d="m 17.02 28.988 l 3.961 0 c 0.008 0 0.02 0 0.02 0.004 l 0 1.992 c 0 0 -0.012 0.004 -0.02 0.004 l -3.961 0 c -0.012 0 -0.02 -0.004 -0.02 -0.004 l 0 -1.992 c 0 -0.004 0.008 -0.004 0.02 -0.004 m 0 0" fill="#ec8e19" stroke="none" fill-rule="nonzero" fill-opacity="0.902"/><path d="m 17.02 26 l 3.961 0 c 0.008 0 0.02 0 0.02 0.004 l 0 1.965 c 0 0 -0.012 0.004 -0.02 0.004 l -3.961 0 c -0.012 0 -0.02 -0.004 -0.02 -0.004 l 0 -1.965 c 0 -0.004 0.008 -0.004 0.02 -0.004 m 0 0" fill="#ec8e19" stroke="none" fill-rule="nonzero" fill-opacity="0.8"/><path d="m 17.02 22.996 l 3.961 0 c 0.008 0 0.02 0.004 0.02 0.004 l 0 1.953 c 0 0.004 -0.012 0.004 -0.02 0.004 l -3.961 0 c -0.012 0 -0.02 0 -0.02 -0.004 l 0 -1.953 c 0 0 0.008 -0.004 0.02 -0.004 m 0 0" fill="#ec8e19" stroke="none" fill-rule="nonzero" fill-opacity="0.702"/><path d="m 7.02 32 l 3.957 0 c 0.012 0 0.02 0.004 0.02 0.004 l 0 1.992 c 0 0 -0.008 0.004 -0.02 0.004 l -3.957 0 c -0.012 0 -0.023 -0.004 -0.023 -0.004 l 0 -1.992 c 0 0 0.012 -0.004 0.023 -0.004 m 0 0" fill="#db4ddb" stroke="none" fill-rule="nonzero" fill-opacity="1"/><path d="m 7.02 29 l 3.957 0 c 0.012 0 0.02 0 0.02 0.004 l 0 1.98 c 0 0 -0.008 0.004 -0.02 0.004 l -3.957 0 c -0.012 0 -0.023 -0.004 -0.023 -0.004 l 0 -1.98 c 0 -0.004 0.012 -0.004 0.023 -0.004 m 0 0" fill="#db4ddb" stroke="none" fill-rule="nonzero" fill-opacity="0.902"/><path d="m 7.02 26.02 l 3.957 0 c 0.012 0 0.02 0 0.02 0.004 l 0 1.965 c 0 0.004 -0.008 0.004 -0.02 0.004 l -3.957 0 c -0.012 0 -0.023 0 -0.023 -0.004 l 0 -1.965 c 0 -0.004 0.012 -0.004 0.023 -0.004 m 0 0" fill="#db4ddb" stroke="none" fill-rule="nonzero" fill-opacity="0.8"/><path d="m 7.02 23 l 3.957 0 c 0.012 0 0.02 0 0.02 0.004 l 0 1.953 c 0 0 -0.008 0.004 -0.02 0.004 l -3.957 0 c -0.012 0 -0.023 -0.004 -0.023 -0.004 l 0 -1.953 c 0 -0.004 0.012 -0.004 0.023 -0.004 m 0 0" fill="#db4ddb" stroke="none" fill-rule="nonzero" fill-opacity="0.702"/><path d="m 7.02 20 l 3.957 0 c 0.012 0 0.02 0 0.02 0.004 l 0 1.941 c 0 0 -0.008 0.004 -0.02 0.004 l -3.957 0 c -0.012 0 -0.023 -0.004 -0.023 -0.004 l 0 -1.941 c 0 -0.004 0.012 -0.004 0.023 -0.004 m 0 0" fill="#db4ddb" stroke="none" fill-rule="nonzero" fill-opacity="0.6"/><path d="m 2 17 l 0 2 l 4 0 l 0 -2 m -4 0" fill="#3e8ded" stroke="none" fill-rule="nonzero" fill-opacity="0.502"/><path d="m 2 20 l 0 2 l 4 0 l 0 -2 m -4 0" fill="#3e8ded" stroke="none" fill-rule="nonzero" fill-opacity="0.6"/><path d="m 2 23 l 0 2 l 4 0 l 0 -2 m -4 0" fill="#3e8ded" stroke="none" fill-rule="nonzero" fill-opacity="0.702"/><path d="m 2 26 l 0 2 l 4 0 l 0 -2 m -4 0" fill="#3e8ded" stroke="none" fill-rule="nonzero" fill-opacity="0.8"/><path d="m 2 29 l 0 2 l 4 0 l 0 -2 m -4 0" fill="#3e8ded" stroke="none" fill-rule="nonzero" fill-opacity="0.902"/><path d="m 2 32 l 0 2 l 4 0 l 0 -2 m -4 0" fill="#3e8ded" stroke="none" fill-rule="nonzero" fill-opacity="1"/><path d="m 42 14 l 0 2 l 4 0 l 0 -2 m -4 0" fill="#c52f2f" stroke="none" fill-rule="nonzero" fill-opacity="0.4"/><path d="m 42 17 l 0 2 l 4 0 l 0 -2 m -4 0" fill="#c52f2f" stroke="none" fill-rule="nonzero" fill-opacity="0.502"/><path d="m 42 20 l 0 2 l 4 0 l 0 -2 m -4 0" fill="#c52f2f" stroke="none" fill-rule="nonzero" fill-opacity="0.6"/><path d="m 42 23 l 0 2 l 4 0 l 0 -2 m -4 0" fill="#c52f2f" stroke="none" fill-rule="nonzero" fill-opacity="0.702"/><path d="m 42 26 l 0 2 l 4 0 l 0 -2 m -4 0" fill="#c52f2f" stroke="none" fill-rule="nonzero" fill-opacity="0.8"/><path d="m 42 29 l 0 2 l 4 0 l 0 -2 m -4 0" fill="#c52f2f" stroke="none" fill-rule="nonzero" fill-opacity="0.902"/><path d="m 42 32 l 0 2 l 4 0 l 0 -2 m -4 0" fill="#c52f2f" stroke="none" fill-rule="nonzero" fill-opacity="1"/><path d="m 18.13 24 c -1.336 1.27 -2.133 2.977 -2.133 4.859 c 0 3.953 3.582 7.121 8 7.121 c 4.426 0 8 -3.188 8 -7.121 c 0 -1.879 -0.805 -3.586 -2.133 -4.859 l -1.602 1.426 c 0.926 0.906 1.449 2.109 1.449 3.434 c 0 2.82 -2.551 5.102 -5.715 5.102 c -3.164 0 -5.719 -2.281 -5.719 -5.102 c 0 -1.316 0.563 -2.5 1.488 -3.398 m -1.641 -1.461" fill="#f9f9f9" stroke="none" fill-rule="nonzero" fill-opacity="1"/><path d="m 23.895 14.664 l 0.207 0 c 0.496 0 0.895 0.402 0.895 0.898 l 0 15.539 c 0 0.496 -0.398 0.898 -0.895 0.898 l -0.207 0 c -0.492 0 -0.895 -0.402 -0.895 -0.898 l 0 -15.539 c 0 -0.496 0.402 -0.898 0.895 -0.898 m 0 0" fill="#f9f9f9" stroke="none" fill-rule="nonzero" fill-opacity="1"/><path d="m 15 22.52 l 0 -0.039 c 0 -0.266 0.215 -0.48 0.48 -0.48 l 17.04 0 c 0.266 0 0.484 0.215 0.484 0.48 l 0 0.039 c 0 0.266 -0.219 0.48 -0.484 0.48 l -17.04 0 c -0.266 0 -0.48 -0.215 -0.48 -0.48 m 0 0" fill="#f9f9f9" stroke="none" fill-rule="nonzero" fill-opacity="1"/><path d="m 32.445 16 l 0.102 0 c 0.246 0 0.449 0.203 0.449 0.453 l 0 5.762 c 0 0.25 -0.203 0.453 -0.449 0.453 l -0.102 0 c -0.246 0 -0.449 -0.203 -0.449 -0.453 l 0 -5.762 c 0 -0.25 0.203 -0.453 0.449 -0.453 m 0 0" fill="#f9f9f9" stroke="none" fill-rule="nonzero" fill-opacity="1"/><path d="m 15.449 16 l 0.098 0 c 0.25 0 0.449 0.203 0.449 0.453 l 0 5.762 c 0 0.25 -0.199 0.453 -0.449 0.453 l -0.098 0 c -0.25 0 -0.449 -0.203 -0.449 -0.453 l 0 -5.762 c 0 -0.25 0.199 -0.453 0.449 -0.453 m 0 0" fill="#f9f9f9" stroke="none" fill-rule="nonzero" fill-opacity="1"/><path d="m 23.781 12 c -0.055 0.004 -0.105 0.039 -0.16 0.051 c -0.148 0.027 -0.301 0.027 -0.438 0.102 c -0.277 0.148 -0.473 0.41 -0.598 0.668 c -0.051 0.098 -0.141 0.199 -0.164 0.309 l -2.18 3.477 c -0.48 0.789 -0.219 1.789 0.547 2.203 c 0.766 0.414 1.75 0.121 2.23 -0.668 l 0.984 -1.586 l 0.977 1.586 c 0.48 0.789 1.465 1.082 2.23 0.668 c 0.766 -0.414 1.023 -1.414 0.547 -2.203 l -2.184 -3.477 c -0.016 -0.07 -0.082 -0.137 -0.105 -0.207 l -0.059 -0.102 c -0.125 -0.258 -0.316 -0.516 -0.598 -0.668 c -0.137 -0.074 -0.285 -0.07 -0.434 -0.102 c -0.133 -0.023 -0.25 -0.059 -0.383 -0.051 c -0.074 -0.004 -0.145 -0.008 -0.219 0 m -0.004 0" fill="#f9f9f9" stroke="none" fill-rule="nonzero" fill-opacity="1"/><path d="m 15.363 14 c -0.035 0.004 -0.066 0.02 -0.102 0.027 c -0.094 0.02 -0.184 0.016 -0.273 0.059 c -0.172 0.086 -0.293 0.23 -0.375 0.383 c -0.031 0.055 -0.086 0.113 -0.102 0.176 l -1.363 1.988 c -0.301 0.449 -0.137 1.02 0.34 1.258 c 0.48 0.238 1.098 0.066 1.398 -0.379 l 0.613 -0.906 l 0.613 0.906 c 0.301 0.449 0.914 0.617 1.395 0.379 c 0.477 -0.238 0.641 -0.809 0.34 -1.258 l -1.359 -1.988 c -0.012 -0.043 -0.051 -0.078 -0.07 -0.117 l -0.035 -0.059 c -0.078 -0.152 -0.199 -0.297 -0.375 -0.383 c -0.086 -0.039 -0.176 -0.039 -0.273 -0.059 c -0.078 -0.016 -0.156 -0.031 -0.234 -0.027 c -0.047 -0.004 -0.09 -0.004 -0.137 0 m 0 0" fill="#f9f9f9" stroke="none" fill-rule="nonzero" fill-opacity="1"/><path d="m 23.836 31.996 c -0.043 -0.004 -0.078 -0.027 -0.125 -0.035 c -0.113 -0.023 -0.223 -0.023 -0.324 -0.074 c -0.211 -0.105 -0.355 -0.293 -0.449 -0.477 c -0.035 -0.07 -0.105 -0.141 -0.125 -0.219 l -1.633 -2.488 c -0.363 -0.559 -0.168 -1.273 0.406 -1.57 c 0.574 -0.301 1.313 -0.086 1.672 0.473 l 0.734 1.133 l 0.734 -1.133 c 0.359 -0.559 1.102 -0.773 1.672 -0.473 c 0.574 0.297 0.77 1.012 0.406 1.57 l -1.633 2.488 c -0.016 0.055 -0.059 0.098 -0.082 0.145 l -0.043 0.074 c -0.094 0.184 -0.238 0.371 -0.449 0.477 c -0.102 0.051 -0.215 0.051 -0.324 0.074 c -0.102 0.016 -0.188 0.043 -0.289 0.035 c -0.055 0.004 -0.105 0.004 -0.164 0 m 0.016 0" fill="#f9f9f9" stroke="none" fill-rule="nonzero" fill-opacity="1"/><path d="m 32.363 14 c -0.035 0.004 -0.066 0.02 -0.102 0.027 c -0.094 0.02 -0.184 0.016 -0.273 0.059 c -0.172 0.086 -0.293 0.23 -0.375 0.383 c -0.031 0.055 -0.086 0.113 -0.102 0.176 l -1.363 1.988 c -0.301 0.449 -0.137 1.02 0.34 1.258 c 0.48 0.238 1.098 0.066 1.398 -0.379 l 0.613 -0.906 l 0.613 0.906 c 0.301 0.449 0.918 0.617 1.395 0.379 c 0.48 -0.238 0.641 -0.809 0.34 -1.258 l -1.359 -1.988 c -0.012 -0.043 -0.051 -0.078 -0.066 -0.117 l -0.035 -0.059 c -0.082 -0.152 -0.203 -0.297 -0.379 -0.383 c -0.082 -0.039 -0.176 -0.039 -0.27 -0.059 c -0.082 -0.016 -0.156 -0.031 -0.238 -0.027 c -0.047 -0.004 -0.09 -0.004 -0.137 0 m 0 0" fill="#f9f9f9" stroke="none" fill-rule="nonzero" fill-opacity="1"/></g></g></g><g><path d="m 40.03 7.531 c 3.712 4.084 5.969 9.514 5.969 15.469 0 12.703 -10.297 23 -23 23 c -5.954 0 -11.384 -2.256 -15.469 -5.969 4.178 4.291 10.01 6.969 16.469 6.969 c 12.703 0 23 -10.298 23 -23 0 -6.462 -2.677 -12.291 -6.969 -16.469 z" opacity="0.1"/></g></svg>