<svg viewBox="0 0 48 48"><defs><linearGradient id="linearGradient3764" x1="1" x2="47" gradientUnits="userSpaceOnUse" gradientTransform="matrix(0,-1,1,0,-1.5e-6,47.999998)"><stop stop-color="#525252" stop-opacity="1"/><stop offset="1" stop-color="#5c5c5c" stop-opacity="1"/></linearGradient><clipPath id="clipPath-999409160"><g transform="translate(0,-1004.3622)"><path d="m -24 13 c 0 1.105 -0.672 2 -1.5 2 -0.828 0 -1.5 -0.895 -1.5 -2 0 -1.105 0.672 -2 1.5 -2 0.828 0 1.5 0.895 1.5 2 z" transform="matrix(15.333333,0,0,11.5,414.99999,878.8622)" fill="#1890d0"/></g></clipPath><clipPath id="clipPath-009193642"><g transform="translate(0,-1004.3622)"><path d="m -24 13 c 0 1.105 -0.672 2 -1.5 2 -0.828 0 -1.5 -0.895 -1.5 -2 0 -1.105 0.672 -2 1.5 -2 0.828 0 1.5 0.895 1.5 2 z" transform="matrix(15.333333,0,0,11.5,414.99999,878.8622)" fill="#1890d0"/></g></clipPath></defs><g><g transform="translate(0,-1004.3622)"><path d="m 25 1006.36 c -12.703 0 -23 10.298 -23 23 0 6.367 2.601 12.12 6.781 16.281 4.085 3.712 9.514 5.969 15.469 5.969 12.703 0 23 -10.297 23 -23 0 -5.954 -2.256 -11.384 -5.969 -15.469 -4.165 -4.181 -9.914 -6.781 -16.281 -6.781 z m 16.281 6.781 c 3.854 4.113 6.219 9.637 6.219 15.719 0 12.703 -10.297 23 -23 23 -6.081 0 -11.606 -2.364 -15.719 -6.219 4.16 4.144 9.883 6.719 16.219 6.719 12.703 0 23 -10.297 23 -23 0 -6.335 -2.575 -12.06 -6.719 -16.219 z" opacity="0.05"/><path d="m 41.28 1013.14 c 3.712 4.085 5.969 9.514 5.969 15.469 0 12.703 -10.297 23 -23 23 -5.954 0 -11.384 -2.256 -15.469 -5.969 4.113 3.854 9.637 6.219 15.719 6.219 12.703 0 23 -10.297 23 -23 0 -6.081 -2.364 -11.606 -6.219 -15.719 z" opacity="0.1"/><path transform="matrix(15.333333,0,0,11.5,415.24999,879.11222)" d="m -24 13 a 1.5 2 0 1 1 -3 0 1.5 2 0 1 1 3 0 z" opacity="0.2"/></g></g><g><path d="m 24 1 c 12.703 0 23 10.297 23 23 c 0 12.703 -10.297 23 -23 23 -12.703 0 -23 -10.297 -23 -23 0 -12.703 10.297 -23 23 -23 z" fill="url(#linearGradient3764)" fill-opacity="1"/></g><g/><g><g clip-path="url(#clipPath-999409160)"><g transform="translate(0,1)"><g opacity="0.1"><!-- color: #5c5c5c --><g><path d="m 18.824 21.344 c 0 0 0.441 0.656 1.02 0.648 c 0.598 -0.004 1.172 -0.395 1.566 -0.816 c 0.422 -0.445 0.715 -1.656 0.715 -1.656 c 0.285 0.875 0.547 1.672 1.152 2.289 c 0.625 -0.293 0.914 -0.949 1.191 -1.523 c 0.84 0.668 1.645 1.398 2.086 2.34 c 0.25 -0.25 0.504 -0.637 0.535 -1.059 c -0.031 -0.684 -0.18 -1.363 -0.34 -2.047 c 0.773 0.25 1.508 0.555 2.262 0.93 c -0.191 -0.387 -0.336 -0.801 -0.41 -1.203 c -2.043 -1.383 -2.492 -2.848 -3.836 -4.242 c -1.695 2.438 -3.465 4.398 -5.945 6.34 m 0.004 0" fill="#000" stroke="none" fill-rule="nonzero" fill-opacity="1"/><path d="m 25.26 33 c 1.063 -0.168 1.832 -0.652 2.559 -1.508 c -0.645 -0.211 -1.141 -0.656 -1.367 -1.336 c 0.176 -1.867 3.03 -2.082 4.543 -3.125 c -3.879 -0.434 -6.04 -1.434 -8.355 -4.129 c -1.164 0.195 -2.34 0.059 -3.492 -0.465 c -1.609 0.254 -2.285 2.566 -4.148 2.828 c 0.695 0.18 1.012 0.52 1.031 0.875 c 1.926 -0.559 3.891 0.566 5.836 -0.02 c -0.563 1.438 -1.629 2.344 -3.195 2.957 c 1.867 1.063 4.113 1.012 5.797 2.547 c 0.535 0.379 0.715 0.996 0.793 1.375 m 0 0" fill="#000" stroke="none" fill-rule="nonzero" fill-opacity="1"/><path d="m 5.285 6.519 l 1.877 0 c 0.001 0 0.003 0.001 0.003 0.002 l -0.001 0.111 c 0 0.001 -0.001 0.003 -0.002 0.002 l -1.877 0 c -0.001 0 -0.003 -0.001 -0.002 -0.002 l 0 -0.111 c 0 -0.001 0.001 -0.003 0.002 -0.002 m 0 0" transform="matrix(3.215889,0.682904,-0.785248,3.249565,0.849552,1.365757)" stroke-opacity="1" fill="#000" fill-rule="nonzero" stroke="#ff5960" stroke-linejoin="round" fill-opacity="1" stroke-linecap="round" stroke-width="0.105" stroke-miterlimit="4"/><path d="m 9.292 2.692 l 0.086 0 c 0.002 0 0.002 0.001 0.003 0.002 l 0 1.096 c -0.001 0.001 -0.002 0.002 -0.002 0.002 l -0.087 0 c 0 0 -0.001 -0.001 -0.002 -0.002 l 0 -1.096 c -0.001 -0.001 0.001 -0.002 0.002 -0.002 m 0 0" transform="matrix(2.5513,2.108146,-2.272469,2.416634,0.849552,1.365757)" stroke-opacity="1" fill="#000" stroke="#ff5960" stroke-linejoin="round" stroke-linecap="round" stroke-width="0.136" stroke-miterlimit="4"/><path d="m 7.741 6.343 l 2.58 0 c 0 0 0 0.001 0 0.001 l 0 0.102 c 0 0.001 -0.001 0.002 -0.001 0.002 l -2.58 0 c -0.002 -0.001 -0.002 -0.001 -0.002 -0.002 l 0 -0.101 c 0.001 -0.002 0.001 -0.002 0.002 -0.002 m 0 0" transform="matrix(3.073583,1.181176,-1.336899,3.056902,0.849552,1.365757)" stroke-opacity="1" fill="#000" stroke="#ff5960" stroke-linejoin="round" stroke-linecap="round" stroke-width="0.118" stroke-miterlimit="4"/><path d="m 13.01 5.428 l 0.081 0.001 c 0.001 -0.001 0.002 0 0.001 0.001 l 0.001 0.98 c 0 0.002 0 0.002 -0.002 0.002 l -0.08 0 c -0.001 0.001 -0.002 0 -0.002 -0.002 l 0.001 -0.979 c -0.001 -0.001 0 -0.002 0 -0.002 m 0 0" transform="matrix(2.872738,1.623193,-2.673699,1.944298,0.849552,1.365757)" stroke-opacity="1" fill="#000" fill-rule="nonzero" stroke="#ff5960" stroke-linejoin="round" fill-opacity="1" stroke-linecap="round" stroke-width="0.125" stroke-miterlimit="4"/><path d="m -9.949 3.804 l 0.083 -0.001 c 0 0 0.001 0 0.001 0.002 l 0 0.687 c 0 0 -0.001 0.001 -0.001 0.001 l -0.083 -0.001 c -0.001 0.001 -0.001 0 -0.001 0 l 0 -0.687 c 0 -0.001 0 -0.001 0.001 -0.001 m 0 0" transform="matrix(-0.819149,-3.240864,3.265,0.368894,0.849552,1.365757)" stroke-opacity="1" fill="#000" fill-rule="nonzero" stroke="#ff5960" stroke-linejoin="round" fill-opacity="1" stroke-linecap="round" stroke-width="0.105" stroke-miterlimit="4"/><path d="m 6.353 10.01 c 0 0.064 -0.056 0.116 -0.125 0.116 c -0.068 0 -0.124 -0.051 -0.124 -0.116 c 0 -0.063 0.056 -0.114 0.124 -0.114 c 0.069 0 0.125 0.051 0.125 0.114 m 0 0" transform="matrix(3.285006,0,0,3.346583,0.849553,1.365756)" stroke-opacity="1" fill="#000" stroke="#ff5960" stroke-linejoin="round" stroke-linecap="round" stroke-width="0.229" stroke-miterlimit="4"/><path d="m 7.185 9.483 c 0 0.064 -0.056 0.116 -0.125 0.116 c -0.069 0 -0.125 -0.051 -0.125 -0.116 c 0 -0.064 0.056 -0.116 0.125 -0.116 c 0.069 0 0.125 0.051 0.125 0.116 m 0 0" transform="matrix(3.285006,0,0,3.346583,0.849553,1.365756)" stroke-opacity="1" fill="#000" stroke="#ff5960" stroke-linejoin="round" stroke-linecap="round" stroke-width="0.229" stroke-miterlimit="4"/><path d="m 4.725 8.583 c 0 0.064 -0.056 0.116 -0.125 0.116 c -0.068 0 -0.124 -0.051 -0.124 -0.116 c 0 -0.064 0.056 -0.116 0.124 -0.116 c 0.069 0 0.125 0.051 0.125 0.116 m 0 0" transform="matrix(3.285006,0,0,3.346583,0.849553,1.365756)" stroke-opacity="1" fill="#000" stroke="#ff5960" stroke-linejoin="round" stroke-linecap="round" stroke-width="0.229" stroke-miterlimit="4"/><path d="m 5.57 7.819 c 0 0.064 -0.055 0.116 -0.124 0.116 c -0.069 0 -0.125 -0.051 -0.125 -0.116 c 0 -0.063 0.056 -0.116 0.125 -0.116 c 0.069 0 0.124 0.053 0.124 0.116 m 0 0" transform="matrix(3.285006,0,0,3.346583,0.849553,1.365756)" stroke-opacity="1" fill="#000" stroke="#ff5960" stroke-linejoin="round" stroke-linecap="round" stroke-width="0.229" stroke-miterlimit="4"/><path d="m 7.01 10.148 c -0.006 0.051 -0.054 0.091 -0.109 0.091 c -0.057 0 -0.105 -0.04 -0.111 -0.091 c -0.004 -0.039 0.017 -0.076 0.052 -0.096 c 0.036 -0.02 0.08 -0.02 0.115 0 c 0.036 0.02 0.056 0.057 0.052 0.096 m 0 0" transform="matrix(3.285006,0,0,3.346583,0.849553,1.365756)" stroke-opacity="1" fill="#000" stroke="#ff5960" stroke-linejoin="round" stroke-linecap="round" stroke-width="0.202" stroke-miterlimit="4"/><path d="m -7.956 -4.346 c 0.006 0 0.01 0.005 0.01 0.013 l 0 5.484 c 0 0.007 -0.004 0.012 -0.01 0.012 l -0.001 0.001 c -0.006 0 -0.01 -0.006 -0.01 -0.013 l 0 -5.484 c 0 -0.007 0.005 -0.013 0.011 -0.013 m 0 0" transform="matrix(-1.821602,-2.784926,-2.209626,2.476371,0.849552,1.365757)" stroke-opacity="1" fill="#000" fill-rule="nonzero" stroke="#1cb833" stroke-linejoin="round" fill-opacity="1" stroke-linecap="round" stroke-width="0.227" stroke-miterlimit="4"/><path d="m 3.759 7.449 c 0 0.064 -0.056 0.116 -0.125 0.116 c -0.069 0 -0.125 -0.051 -0.125 -0.116 c 0 -0.063 0.056 -0.116 0.125 -0.116 c 0.069 0 0.125 0.053 0.125 0.116 m 0 0" transform="matrix(3.285006,0,0,3.346583,0.849552,1.365757)" stroke-opacity="1" fill="#000" stroke="#1cb833" stroke-linejoin="round" stroke-linecap="round" stroke-width="0.229" stroke-miterlimit="4"/><path d="m 7.458 3.406 c 0 0.063 -0.056 0.116 -0.125 0.116 c -0.069 0 -0.125 -0.053 -0.125 -0.116 c 0 -0.064 0.056 -0.116 0.125 -0.116 c 0.069 0 0.125 0.051 0.125 0.116 m 0 0" transform="matrix(3.285006,0,0,3.346583,0.849553,1.365756)" stroke-opacity="1" fill="#000" fill-rule="nonzero" stroke="#2fa8d8" stroke-linejoin="round" fill-opacity="1" stroke-linecap="round" stroke-width="0.229" stroke-miterlimit="4"/><path d="m 3.072 7.223 l 0.002 0 c 0.005 -0.001 0.009 0.004 0.009 0.011 l -0.001 4.6 c 0 0.007 -0.004 0.011 -0.008 0.011 l -0.002 0 c -0.005 0.001 -0.009 -0.005 -0.009 -0.011 l 0 -4.601 c 0.001 -0.006 0.005 -0.01 0.009 -0.01 m 0 0" transform="matrix(2.583526,-2.067017,2.230191,2.457161,0.849553,1.365756)" stroke-opacity="1" fill="#000" fill-rule="nonzero" stroke="#2fa8d8" stroke-linejoin="round" fill-opacity="1" stroke-linecap="round" stroke-width="0.225" stroke-miterlimit="4"/><path d="m 10.585 6.796 c 0 0.064 -0.056 0.116 -0.125 0.116 c -0.068 0 -0.124 -0.051 -0.124 -0.116 c 0 -0.064 0.056 -0.116 0.124 -0.116 c 0.069 0 0.125 0.051 0.125 0.116 m 0 0" transform="matrix(3.285006,0,0,3.346583,0.849553,1.365756)" stroke-opacity="1" fill="#000" fill-rule="nonzero" stroke="#2fa8d8" stroke-linejoin="round" fill-opacity="1" stroke-linecap="round" stroke-width="0.229" stroke-miterlimit="4"/></g></g></g></g></g><g><g clip-path="url(#clipPath-009193642)"><!-- color: #5c5c5c --><g><path d="m 18.824 21.344 c 0 0 0.441 0.656 1.02 0.648 c 0.598 -0.004 1.172 -0.395 1.566 -0.816 c 0.422 -0.445 0.715 -1.656 0.715 -1.656 c 0.285 0.875 0.547 1.672 1.152 2.289 c 0.625 -0.293 0.914 -0.949 1.191 -1.523 c 0.84 0.668 1.645 1.398 2.086 2.34 c 0.25 -0.25 0.504 -0.637 0.535 -1.059 c -0.031 -0.684 -0.18 -1.363 -0.34 -2.047 c 0.773 0.25 1.508 0.555 2.262 0.93 c -0.191 -0.387 -0.336 -0.801 -0.41 -1.203 c -2.043 -1.383 -2.492 -2.848 -3.836 -4.242 c -1.695 2.438 -3.465 4.398 -5.945 6.34 m 0.004 0" fill="#f9f9f9" stroke="none" fill-rule="nonzero" fill-opacity="1"/><path d="m 25.26 33 c 1.063 -0.168 1.832 -0.652 2.559 -1.508 c -0.645 -0.211 -1.141 -0.656 -1.367 -1.336 c 0.176 -1.867 3.03 -2.082 4.543 -3.125 c -3.879 -0.434 -6.04 -1.434 -8.355 -4.129 c -1.164 0.195 -2.34 0.059 -3.492 -0.465 c -1.609 0.254 -2.285 2.566 -4.148 2.828 c 0.695 0.18 1.012 0.52 1.031 0.875 c 1.926 -0.559 3.891 0.566 5.836 -0.02 c -0.563 1.438 -1.629 2.344 -3.195 2.957 c 1.867 1.063 4.113 1.012 5.797 2.547 c 0.535 0.379 0.715 0.996 0.793 1.375 m 0 0" fill="#f9f9f9" stroke="none" fill-rule="nonzero" fill-opacity="1"/><path d="m 5.285 6.519 l 1.877 0 c 0.001 0 0.003 0.001 0.003 0.002 l -0.001 0.111 c 0 0.001 -0.001 0.003 -0.002 0.002 l -1.877 0 c -0.001 0 -0.003 -0.001 -0.002 -0.002 l 0 -0.111 c 0 -0.001 0.001 -0.003 0.002 -0.002 m 0 0" transform="matrix(3.215889,0.682904,-0.785248,3.249565,0.849552,1.365757)" stroke-opacity="1" fill="#ff5960" fill-rule="nonzero" stroke="#ff5960" stroke-linejoin="round" fill-opacity="1" stroke-linecap="round" stroke-width="0.105" stroke-miterlimit="4"/><path d="m 9.292 2.692 l 0.086 0 c 0.002 0 0.002 0.001 0.003 0.002 l 0 1.096 c -0.001 0.001 -0.002 0.002 -0.002 0.002 l -0.087 0 c 0 0 -0.001 -0.001 -0.002 -0.002 l 0 -1.096 c -0.001 -0.001 0.001 -0.002 0.002 -0.002 m 0 0" transform="matrix(2.5513,2.108146,-2.272469,2.416634,0.849552,1.365757)" stroke-opacity="1" fill="none" stroke="#ff5960" stroke-linejoin="round" stroke-linecap="round" stroke-width="0.136" stroke-miterlimit="4"/><path d="m 7.741 6.343 l 2.58 0 c 0 0 0 0.001 0 0.001 l 0 0.102 c 0 0.001 -0.001 0.002 -0.001 0.002 l -2.58 0 c -0.002 -0.001 -0.002 -0.001 -0.002 -0.002 l 0 -0.101 c 0.001 -0.002 0.001 -0.002 0.002 -0.002 m 0 0" transform="matrix(3.073583,1.181176,-1.336899,3.056902,0.849552,1.365757)" stroke-opacity="1" fill="none" stroke="#ff5960" stroke-linejoin="round" stroke-linecap="round" stroke-width="0.118" stroke-miterlimit="4"/><path d="m 13.01 5.428 l 0.081 0.001 c 0.001 -0.001 0.002 0 0.001 0.001 l 0.001 0.98 c 0 0.002 0 0.002 -0.002 0.002 l -0.08 0 c -0.001 0.001 -0.002 0 -0.002 -0.002 l 0.001 -0.979 c -0.001 -0.001 0 -0.002 0 -0.002 m 0 0" transform="matrix(2.872738,1.623193,-2.673699,1.944298,0.849552,1.365757)" stroke-opacity="1" fill="#d22626" fill-rule="nonzero" stroke="#ff5960" stroke-linejoin="round" fill-opacity="1" stroke-linecap="round" stroke-width="0.125" stroke-miterlimit="4"/><path d="m -9.949 3.804 l 0.083 -0.001 c 0 0 0.001 0 0.001 0.002 l 0 0.687 c 0 0 -0.001 0.001 -0.001 0.001 l -0.083 -0.001 c -0.001 0.001 -0.001 0 -0.001 0 l 0 -0.687 c 0 -0.001 0 -0.001 0.001 -0.001 m 0 0" transform="matrix(-0.819149,-3.240864,3.265,0.368894,0.849552,1.365757)" stroke-opacity="1" fill="#fff" fill-rule="nonzero" stroke="#ff5960" stroke-linejoin="round" fill-opacity="1" stroke-linecap="round" stroke-width="0.105" stroke-miterlimit="4"/><path d="m 6.353 10.01 c 0 0.064 -0.056 0.116 -0.125 0.116 c -0.068 0 -0.124 -0.051 -0.124 -0.116 c 0 -0.063 0.056 -0.114 0.124 -0.114 c 0.069 0 0.125 0.051 0.125 0.114 m 0 0" transform="matrix(3.285006,0,0,3.346583,0.849553,1.365756)" stroke-opacity="1" fill="none" stroke="#ff5960" stroke-linejoin="round" stroke-linecap="round" stroke-width="0.229" stroke-miterlimit="4"/><path d="m 7.185 9.483 c 0 0.064 -0.056 0.116 -0.125 0.116 c -0.069 0 -0.125 -0.051 -0.125 -0.116 c 0 -0.064 0.056 -0.116 0.125 -0.116 c 0.069 0 0.125 0.051 0.125 0.116 m 0 0" transform="matrix(3.285006,0,0,3.346583,0.849553,1.365756)" stroke-opacity="1" fill="none" stroke="#ff5960" stroke-linejoin="round" stroke-linecap="round" stroke-width="0.229" stroke-miterlimit="4"/><path d="m 4.725 8.583 c 0 0.064 -0.056 0.116 -0.125 0.116 c -0.068 0 -0.124 -0.051 -0.124 -0.116 c 0 -0.064 0.056 -0.116 0.124 -0.116 c 0.069 0 0.125 0.051 0.125 0.116 m 0 0" transform="matrix(3.285006,0,0,3.346583,0.849553,1.365756)" stroke-opacity="1" fill="none" stroke="#ff5960" stroke-linejoin="round" stroke-linecap="round" stroke-width="0.229" stroke-miterlimit="4"/><path d="m 5.57 7.819 c 0 0.064 -0.055 0.116 -0.124 0.116 c -0.069 0 -0.125 -0.051 -0.125 -0.116 c 0 -0.063 0.056 -0.116 0.125 -0.116 c 0.069 0 0.124 0.053 0.124 0.116 m 0 0" transform="matrix(3.285006,0,0,3.346583,0.849553,1.365756)" stroke-opacity="1" fill="none" stroke="#ff5960" stroke-linejoin="round" stroke-linecap="round" stroke-width="0.229" stroke-miterlimit="4"/><path d="m 7.01 10.148 c -0.006 0.051 -0.054 0.091 -0.109 0.091 c -0.057 0 -0.105 -0.04 -0.111 -0.091 c -0.004 -0.039 0.017 -0.076 0.052 -0.096 c 0.036 -0.02 0.08 -0.02 0.115 0 c 0.036 0.02 0.056 0.057 0.052 0.096 m 0 0" transform="matrix(3.285006,0,0,3.346583,0.849553,1.365756)" stroke-opacity="1" fill="none" stroke="#ff5960" stroke-linejoin="round" stroke-linecap="round" stroke-width="0.202" stroke-miterlimit="4"/><path d="m -7.956 -4.346 c 0.006 0 0.01 0.005 0.01 0.013 l 0 5.484 c 0 0.007 -0.004 0.012 -0.01 0.012 l -0.001 0.001 c -0.006 0 -0.01 -0.006 -0.01 -0.013 l 0 -5.484 c 0 -0.007 0.005 -0.013 0.011 -0.013 m 0 0" transform="matrix(-1.821602,-2.784926,-2.209626,2.476371,0.849552,1.365757)" stroke-opacity="1" fill="#45a844" fill-rule="nonzero" stroke="#1cb833" stroke-linejoin="round" fill-opacity="1" stroke-linecap="round" stroke-width="0.227" stroke-miterlimit="4"/><path d="m 3.759 7.449 c 0 0.064 -0.056 0.116 -0.125 0.116 c -0.069 0 -0.125 -0.051 -0.125 -0.116 c 0 -0.063 0.056 -0.116 0.125 -0.116 c 0.069 0 0.125 0.053 0.125 0.116 m 0 0" transform="matrix(3.285006,0,0,3.346583,0.849552,1.365757)" stroke-opacity="1" fill="none" stroke="#1cb833" stroke-linejoin="round" stroke-linecap="round" stroke-width="0.229" stroke-miterlimit="4"/><path d="m 7.458 3.406 c 0 0.063 -0.056 0.116 -0.125 0.116 c -0.069 0 -0.125 -0.053 -0.125 -0.116 c 0 -0.064 0.056 -0.116 0.125 -0.116 c 0.069 0 0.125 0.051 0.125 0.116 m 0 0" transform="matrix(3.285006,0,0,3.346583,0.849553,1.365756)" stroke-opacity="1" fill="#45a844" fill-rule="nonzero" stroke="#2fa8d8" stroke-linejoin="round" fill-opacity="1" stroke-linecap="round" stroke-width="0.229" stroke-miterlimit="4"/><path d="m 3.072 7.223 l 0.002 0 c 0.005 -0.001 0.009 0.004 0.009 0.011 l -0.001 4.6 c 0 0.007 -0.004 0.011 -0.008 0.011 l -0.002 0 c -0.005 0.001 -0.009 -0.005 -0.009 -0.011 l 0 -4.601 c 0.001 -0.006 0.005 -0.01 0.009 -0.01 m 0 0" transform="matrix(2.583526,-2.067017,2.230191,2.457161,0.849553,1.365756)" stroke-opacity="1" fill="#fff" fill-rule="nonzero" stroke="#2fa8d8" stroke-linejoin="round" fill-opacity="1" stroke-linecap="round" stroke-width="0.225" stroke-miterlimit="4"/><path d="m 10.585 6.796 c 0 0.064 -0.056 0.116 -0.125 0.116 c -0.068 0 -0.124 -0.051 -0.124 -0.116 c 0 -0.064 0.056 -0.116 0.124 -0.116 c 0.069 0 0.125 0.051 0.125 0.116 m 0 0" transform="matrix(3.285006,0,0,3.346583,0.849553,1.365756)" stroke-opacity="1" fill="#fff" fill-rule="nonzero" stroke="#2fa8d8" stroke-linejoin="round" fill-opacity="1" stroke-linecap="round" stroke-width="0.229" stroke-miterlimit="4"/></g></g></g><g><path d="m 40.03 7.531 c 3.712 4.084 5.969 9.514 5.969 15.469 0 12.703 -10.297 23 -23 23 c -5.954 0 -11.384 -2.256 -15.469 -5.969 4.178 4.291 10.01 6.969 16.469 6.969 c 12.703 0 23 -10.298 23 -23 0 -6.462 -2.677 -12.291 -6.969 -16.469 z" opacity="0.1"/></g></svg>