<?xml version="1.0" encoding="UTF-8" standalone="no"?>
<svg
   xmlns:dc="http://purl.org/dc/elements/1.1/"
   xmlns:cc="http://creativecommons.org/ns#"
   xmlns:rdf="http://www.w3.org/1999/02/22-rdf-syntax-ns#"
   xmlns:svg="http://www.w3.org/2000/svg"
   xmlns="http://www.w3.org/2000/svg"
   xmlns:xlink="http://www.w3.org/1999/xlink"
   xmlns:sodipodi="http://sodipodi.sourceforge.net/DTD/sodipodi-0.dtd"
   xmlns:inkscape="http://www.inkscape.org/namespaces/inkscape"
   viewBox="0 0 48 48"
   id="svg2"
   version="1.1"
   inkscape:version="0.91 r13725"
   sodipodi:docname="iViewer.svg"
   inkscape:export-filename="/home/ismael/Imágenes/icons.png"
   inkscape:export-xdpi="245"
   inkscape:export-ydpi="245">
  <metadata
     id="metadata88">
    <rdf:RDF>
      <cc:Work
         rdf:about="">
        <dc:format>image/svg+xml</dc:format>
        <dc:type
           rdf:resource="http://purl.org/dc/dcmitype/StillImage" />
      </cc:Work>
    </rdf:RDF>
  </metadata>
  <sodipodi:namedview
     pagecolor="#ffffff"
     bordercolor="#666666"
     borderopacity="1"
     objecttolerance="10"
     gridtolerance="10"
     guidetolerance="10"
     inkscape:pageopacity="0"
     inkscape:pageshadow="2"
     inkscape:window-width="1366"
     inkscape:window-height="713"
     id="namedview86"
     showgrid="true"
     inkscape:zoom="12.085106"
     inkscape:cx="9.4391407"
     inkscape:cy="23.541373"
     inkscape:window-x="0"
     inkscape:window-y="28"
     inkscape:window-maximized="1"
     inkscape:current-layer="svg2">
    <inkscape:grid
       type="xygrid"
       id="grid4225" />
  </sodipodi:namedview>
  <defs
     id="defs4">
    <linearGradient
       inkscape:collect="always"
       id="linearGradient4270">
      <stop
         style="stop-color:#d7e6ff;stop-opacity:1"
         offset="0"
         id="stop4272" />
      <stop
         style="stop-color:#c3daff;stop-opacity:1"
         offset="1"
         id="stop4274" />
    </linearGradient>
    <linearGradient
       inkscape:collect="always"
       xlink:href="#linearGradient4270"
       id="linearGradient4276"
       x1="24"
       y1="1"
       x2="24"
       y2="47"
       gradientUnits="userSpaceOnUse" />
  </defs>
  <g
     id="g21">
    <path
       d="m 36.31 5 c 5.859 4.062 9.688 10.831 9.688 18.5 c 0 12.426 -10.07 22.5 -22.5 22.5 c -7.669 0 -14.438 -3.828 -18.5 -9.688 c 1.037 1.822 2.306 3.499 3.781 4.969 c 4.085 3.712 9.514 5.969 15.469 5.969 c 12.703 0 23 -10.298 23 -23 c 0 -5.954 -2.256 -11.384 -5.969 -15.469 c -1.469 -1.475 -3.147 -2.744 -4.969 -3.781 z m 4.969 3.781 c 3.854 4.113 6.219 9.637 6.219 15.719 c 0 12.703 -10.297 23 -23 23 c -6.081 0 -11.606 -2.364 -15.719 -6.219 c 4.16 4.144 9.883 6.719 16.219 6.719 c 12.703 0 23 -10.298 23 -23 c 0 -6.335 -2.575 -12.06 -6.719 -16.219 z"
       opacity="0.05"
       id="path23" />
    <path
       d="m 41.28 8.781 c 3.712 4.085 5.969 9.514 5.969 15.469 c 0 12.703 -10.297 23 -23 23 c -5.954 0 -11.384 -2.256 -15.469 -5.969 c 4.113 3.854 9.637 6.219 15.719 6.219 c 12.703 0 23 -10.298 23 -23 c 0 -6.081 -2.364 -11.606 -6.219 -15.719 z"
       opacity="0.1"
       id="path25" />
    <path
       d="m 31.25 2.375 c 8.615 3.154 14.75 11.417 14.75 21.13 c 0 12.426 -10.07 22.5 -22.5 22.5 c -9.708 0 -17.971 -6.135 -21.12 -14.75 a 23 23 0 0 0 44.875 -7 a 23 23 0 0 0 -16 -21.875 z"
       opacity="0.2"
       id="path27" />
  </g>
  <g
     id="g29"
     style="fill:url(#linearGradient4276);fill-opacity:1">
    <path
       d="m 24 1 c 12.703 0 23 10.297 23 23 c 0 12.703 -10.297 23 -23 23 -12.703 0 -23 -10.297 -23 -23 0 -12.703 10.297 -23 23 -23 z"
       fill="url(#linearGradient3764)"
       fill-opacity="1"
       id="path31"
       style="fill:url(#linearGradient4276);fill-opacity:1" />
  </g>
  <g
     id="g33" />
  <g
     id="g82">
    <path
       d="m 40.03 7.531 c 3.712 4.084 5.969 9.514 5.969 15.469 0 12.703 -10.297 23 -23 23 c -5.954 0 -11.384 -2.256 -15.469 -5.969 4.178 4.291 10.01 6.969 16.469 6.969 c 12.703 0 23 -10.298 23 -23 0 -6.462 -2.677 -12.291 -6.969 -16.469 z"
       opacity="0.1"
       id="path84" />
  </g>
  <g
     transform="matrix(1,0,0,0.9847953,0.779662,1.3891673)"
     id="g4250"
     style="opacity:0.1;fill:#000000">
    <path
       style="opacity:1;fill:#000000;fill-opacity:1;fill-rule:nonzero;stroke:none;stroke-width:0.21648115;stroke-miterlimit:4;stroke-dasharray:none;stroke-opacity:1"
       d="m 37.220338,22.555562 c 0,5.384776 -5.752263,9.477859 -12.931965,9.477859 -0.897463,0 -1.436925,0.338822 -2.143706,0.550278 -2.523342,0.754937 -7.474848,2.561506 -7.474848,2.561506 0,0 3.603915,-3.462572 2.282095,-4.504816 -0.748264,-0.589999 -1.33583,-0.749461 -1.923964,-1.190562 -2.352538,-1.764403 -3.807612,-4.201903 -3.807612,-6.894291 0,-5.384776 5.820299,-9.749999 13,-9.749999 7.179701,0 13,4.365223 13,9.749999 z"
       id="path4252"
       inkscape:connector-curvature="0"
       sodipodi:nodetypes="ssacssssss" />
    <path
       sodipodi:nodetypes="ssacssssss"
       inkscape:connector-curvature="0"
       id="path4254"
       d="m 18.091906,26.429298 c 0,3.727922 3.982336,6.561595 8.952899,6.561595 0.62132,0 0.994794,0.234569 1.484104,0.380962 1.746929,0.522648 5.174895,1.77335 5.174895,1.77335 0,0 -2.495018,-2.397165 -1.579912,-3.118719 0.518029,-0.408461 0.924805,-0.518857 1.331975,-0.824235 1.62868,-1.22151 2.636039,-2.90901 2.636039,-4.772971 0,-3.727922 -4.029438,-6.749999 -9,-6.749999 -4.970562,0 -8.999999,3.022077 -9,6.749999 z"
       style="opacity:1;fill:#000000;fill-opacity:1;fill-rule:nonzero;stroke:none;stroke-width:0.21648115;stroke-miterlimit:4;stroke-dasharray:none;stroke-opacity:1" />
  </g>
  <g
     id="g4231"
     transform="matrix(1,0,0,0.9847953,-0.220338,0.38916732)">
    <path
       sodipodi:nodetypes="ssacssssss"
       inkscape:connector-curvature="0"
       id="path4218"
       d="m 37.220338,22.555562 c 0,5.384776 -5.752263,9.477859 -12.931965,9.477859 -0.897463,0 -1.436925,0.338822 -2.143706,0.550278 -2.523342,0.754937 -7.474848,2.561506 -7.474848,2.561506 0,0 3.603915,-3.462572 2.282095,-4.504816 -0.748264,-0.589999 -1.33583,-0.749461 -1.923964,-1.190562 -2.352538,-1.764403 -3.807612,-4.201903 -3.807612,-6.894291 0,-5.384776 5.820299,-9.749999 13,-9.749999 7.179701,0 13,4.365223 13,9.749999 z"
       style="opacity:1;fill:#5f8dd3;fill-opacity:1;fill-rule:nonzero;stroke:none;stroke-width:0.21648115;stroke-miterlimit:4;stroke-dasharray:none;stroke-opacity:1" />
    <path
       style="opacity:1;fill:#f9f9f9;fill-opacity:1;fill-rule:nonzero;stroke:none;stroke-width:0.21648115;stroke-miterlimit:4;stroke-dasharray:none;stroke-opacity:1"
       d="m 18.091906,26.429298 c 0,3.727922 3.982336,6.561595 8.952899,6.561595 0.62132,0 0.994794,0.234569 1.484104,0.380962 1.746929,0.522648 5.174895,1.77335 5.174895,1.77335 0,0 -2.495018,-2.397165 -1.579912,-3.118719 0.518029,-0.408461 0.924805,-0.518857 1.331975,-0.824235 1.62868,-1.22151 2.636039,-2.90901 2.636039,-4.772971 0,-3.727922 -4.029438,-6.749999 -9,-6.749999 -4.970562,0 -8.999999,3.022077 -9,6.749999 z"
       id="path4221"
       inkscape:connector-curvature="0"
       sodipodi:nodetypes="ssacssssss" />
    <circle
       r="1.5"
       cy="26.334566"
       cx="23.347458"
       id="path4223"
       style="opacity:1;fill:#666666;fill-opacity:1;fill-rule:nonzero;stroke:none;stroke-width:0.21648115;stroke-miterlimit:4;stroke-dasharray:none;stroke-opacity:1" />
    <circle
       style="opacity:1;fill:#666666;fill-opacity:1;fill-rule:nonzero;stroke:none;stroke-width:0.21648115;stroke-miterlimit:4;stroke-dasharray:none;stroke-opacity:1"
       id="circle4227"
       cx="27.347458"
       cy="26.334566"
       r="1.5" />
    <circle
       r="1.5"
       cy="26.334566"
       cx="31.347458"
       id="circle4229"
       style="opacity:1;fill:#666666;fill-opacity:1;fill-rule:nonzero;stroke:none;stroke-width:0.21648115;stroke-miterlimit:4;stroke-dasharray:none;stroke-opacity:1" />
  </g>
</svg>
