<svg viewBox="0 0 48 48"><defs><linearGradient id="1" gradientUnits="userSpaceOnUse" y1="15" x2="0" y2="11" gradientTransform="matrix(15.333333,0,0,11.5,414.99999,-125.5)"><stop/><stop offset="1" stop-opacity="0"/></linearGradient><clipPath id="clipPath-198519367"><g transform="translate(0,-1004.3622)"><path d="m -24 13 c 0 1.105 -0.672 2 -1.5 2 -0.828 0 -1.5 -0.895 -1.5 -2 0 -1.105 0.672 -2 1.5 -2 0.828 0 1.5 0.895 1.5 2 z" transform="matrix(15.333333,0,0,11.5,414.99999,878.8622)" fill="#1890d0"/></g></clipPath><clipPath id="clipPath-212019178"><g transform="translate(0,-1004.3622)"><path d="m -24 13 c 0 1.105 -0.672 2 -1.5 2 -0.828 0 -1.5 -0.895 -1.5 -2 0 -1.105 0.672 -2 1.5 -2 0.828 0 1.5 0.895 1.5 2 z" transform="matrix(15.333333,0,0,11.5,414.99999,878.8622)" fill="#1890d0"/></g></clipPath></defs><g><g transform="translate(0,-1004.3622)"><path d="m 25 1006.36 c -12.703 0 -23 10.298 -23 23 0 6.367 2.601 12.12 6.781 16.281 4.085 3.712 9.514 5.969 15.469 5.969 12.703 0 23 -10.297 23 -23 0 -5.954 -2.256 -11.384 -5.969 -15.469 -4.165 -4.181 -9.914 -6.781 -16.281 -6.781 z m 16.281 6.781 c 3.854 4.113 6.219 9.637 6.219 15.719 0 12.703 -10.297 23 -23 23 -6.081 0 -11.606 -2.364 -15.719 -6.219 4.16 4.144 9.883 6.719 16.219 6.719 12.703 0 23 -10.297 23 -23 0 -6.335 -2.575 -12.06 -6.719 -16.219 z" opacity="0.05"/><path d="m 41.28 1013.14 c 3.712 4.085 5.969 9.514 5.969 15.469 0 12.703 -10.297 23 -23 23 -5.954 0 -11.384 -2.256 -15.469 -5.969 4.113 3.854 9.637 6.219 15.719 6.219 12.703 0 23 -10.297 23 -23 0 -6.081 -2.364 -11.606 -6.219 -15.719 z" opacity="0.1"/><path transform="matrix(15.333333,0,0,11.5,415.24999,879.11222)" d="m -24 13 a 1.5 2 0 1 1 -3 0 1.5 2 0 1 1 3 0 z" opacity="0.2"/></g></g><g><g transform="translate(0,-1004.3622)"><path d="m -24 13 c 0 1.105 -0.672 2 -1.5 2 -0.828 0 -1.5 -0.895 -1.5 -2 0 -1.105 0.672 -2 1.5 -2 0.828 0 1.5 0.895 1.5 2 z" transform="matrix(15.333333,0,0,11.5,414.99999,878.8622)" fill="#eee"/></g></g><g><path d="m 47 24 c 0 12.703 -10.297 23 -23 23 -12.703 0 -23 -10.297 -23 -23 0 -12.703 10.297 -23 23 -23 12.703 0 23 10.297 23 23 z" opacity="0.15" fill="url(#1)"/></g><g><g clip-path="url(#clipPath-198519367)"><g transform="translate(0,1)"><g opacity="0.1"><!-- color: #eeeeee --><g><path d="m 25.26 23.438 c 1.309 1.441 -0.344 2.742 -0.344 2.742 c 0 0 3.324 -1.648 1.797 -3.703 c -1.426 -1.922 -2.516 -2.871 3.402 -6.172 c 0 0 -9.285 2.223 -4.852 7.121" fill="#000" stroke="none" fill-rule="evenodd" fill-opacity="1"/><path d="m 32.28 33.21 c 0 0 0.77 0.605 -0.844 1.074 c -3.063 0.887 -12.754 1.156 -15.445 0.031 c -0.965 -0.402 0.848 -0.957 1.418 -1.078 c 0.598 -0.125 0.934 -0.102 0.934 -0.102 c -1.07 -0.727 -6.953 1.43 -2.984 2.043 c 10.824 1.684 19.73 -0.758 16.922 -1.969" fill="#000" stroke="none" fill-rule="evenodd" fill-opacity="1"/><path d="m 20.938 25.309 c 0 0 -4.93 1.121 -1.746 1.531 c 1.348 0.172 4.02 0.133 6.52 -0.066 c 2.043 -0.164 4.09 -0.516 4.09 -0.516 c 0 0 -0.723 0.297 -1.242 0.637 c -5 1.262 -14.668 0.672 -11.891 -0.617 c 2.355 -1.09 4.27 -0.965 4.27 -0.965" fill="#000" stroke="none" fill-rule="evenodd" fill-opacity="1"/><path d="m 29.781 30.05 c 5.086 -2.535 2.734 -4.969 1.094 -4.641 c -0.402 0.082 -0.582 0.148 -0.582 0.148 c 0 0 0.145 -0.223 0.43 -0.32 c 3.254 -1.094 5.746 3.23 -1.047 4.941 c 0 0 0.078 -0.066 0.102 -0.129" fill="#000" stroke="none" fill-rule="evenodd" fill-opacity="1"/><path d="m 26.711 11 c 0 0 2.816 2.703 -2.676 6.859 c -4.398 3.332 -1 5.234 0 7.402 c -2.566 -2.219 -4.453 -4.176 -3.188 -6 c 1.855 -2.672 7 -3.965 5.863 -8.258" fill="#000" stroke="none" fill-rule="evenodd" fill-opacity="1"/><path d="m 21.438 36.918 c 4.883 0.301 12.383 -0.168 12.563 -2.379 c 0 0 -0.344 0.836 -4.04 1.504 c -4.168 0.75 -9.309 0.664 -12.359 0.184 c 0 0 0.625 0.492 3.836 0.691" fill="#000" stroke="none" fill-rule="evenodd" fill-opacity="1"/></g></g></g></g></g><g><g clip-path="url(#clipPath-212019178)"><!-- color: #eeeeee --><g><path d="m 25.26 23.438 c 1.309 1.441 -0.344 2.742 -0.344 2.742 c 0 0 3.324 -1.648 1.797 -3.703 c -1.426 -1.922 -2.516 -2.871 3.402 -6.172 c 0 0 -9.285 2.223 -4.852 7.121" fill="#ff7f29" stroke="none" fill-rule="evenodd" fill-opacity="1"/><path d="m 32.28 33.21 c 0 0 0.77 0.605 -0.844 1.074 c -3.063 0.887 -12.754 1.156 -15.445 0.031 c -0.965 -0.402 0.848 -0.957 1.418 -1.078 c 0.598 -0.125 0.934 -0.102 0.934 -0.102 c -1.07 -0.727 -6.953 1.43 -2.984 2.043 c 10.824 1.684 19.73 -0.758 16.922 -1.969" fill="#3434ca" stroke="none" fill-rule="evenodd" fill-opacity="1"/><path d="m 20.938 25.309 c 0 0 -4.93 1.121 -1.746 1.531 c 1.348 0.172 4.02 0.133 6.52 -0.066 c 2.043 -0.164 4.09 -0.516 4.09 -0.516 c 0 0 -0.723 0.297 -1.242 0.637 c -5 1.262 -14.668 0.672 -11.891 -0.617 c 2.355 -1.09 4.27 -0.965 4.27 -0.965" fill="#3434ca" stroke="none" fill-rule="evenodd" fill-opacity="1"/><path d="m 29.781 30.05 c 5.086 -2.535 2.734 -4.969 1.094 -4.641 c -0.402 0.082 -0.582 0.148 -0.582 0.148 c 0 0 0.145 -0.223 0.43 -0.32 c 3.254 -1.094 5.746 3.23 -1.047 4.941 c 0 0 0.078 -0.066 0.102 -0.129" fill="#3434ca" stroke="none" fill-rule="evenodd" fill-opacity="1"/><path d="m 26.711 11 c 0 0 2.816 2.703 -2.676 6.859 c -4.398 3.332 -1 5.234 0 7.402 c -2.566 -2.219 -4.453 -4.176 -3.188 -6 c 1.855 -2.672 7 -3.965 5.863 -8.258" fill="#ff7f29" stroke="none" fill-rule="evenodd" fill-opacity="1"/><path d="m 21.438 36.918 c 4.883 0.301 12.383 -0.168 12.563 -2.379 c 0 0 -0.344 0.836 -4.04 1.504 c -4.168 0.75 -9.309 0.664 -12.359 0.184 c 0 0 0.625 0.492 3.836 0.691" fill="#3434ca" stroke="none" fill-rule="evenodd" fill-opacity="1"/></g></g></g><g><path d="m 40.03 7.531 c 3.712 4.084 5.969 9.514 5.969 15.469 0 12.703 -10.297 23 -23 23 c -5.954 0 -11.384 -2.256 -15.469 -5.969 4.178 4.291 10.01 6.969 16.469 6.969 c 12.703 0 23 -10.298 23 -23 0 -6.462 -2.677 -12.291 -6.969 -16.469 z" opacity="0.1"/></g></svg>