<svg viewBox="0 0 48 48"><defs><linearGradient id="linearGradient3764" x1="1" x2="47" gradientUnits="userSpaceOnUse" gradientTransform="matrix(0,-1,1,0,-1.5e-6,47.999998)"><stop stop-color="#01a2d7" stop-opacity="1"/><stop offset="1" stop-color="#01b0ec" stop-opacity="1"/></linearGradient><clipPath id="clipPath-382556323"><g transform="translate(0,-1004.3622)"><path d="m -24 13 c 0 1.105 -0.672 2 -1.5 2 -0.828 0 -1.5 -0.895 -1.5 -2 0 -1.105 0.672 -2 1.5 -2 0.828 0 1.5 0.895 1.5 2 z" transform="matrix(15.333333,0,0,11.5,414.99999,878.8622)" fill="#1890d0"/></g></clipPath><clipPath id="clipPath-394074918"><g transform="translate(0,-1004.3622)"><path d="m -24 13 c 0 1.105 -0.672 2 -1.5 2 -0.828 0 -1.5 -0.895 -1.5 -2 0 -1.105 0.672 -2 1.5 -2 0.828 0 1.5 0.895 1.5 2 z" transform="matrix(15.333333,0,0,11.5,414.99999,878.8622)" fill="#1890d0"/></g></clipPath></defs><g><path d="m 36.31 5 c 5.859 4.062 9.688 10.831 9.688 18.5 c 0 12.426 -10.07 22.5 -22.5 22.5 c -7.669 0 -14.438 -3.828 -18.5 -9.688 c 1.037 1.822 2.306 3.499 3.781 4.969 c 4.085 3.712 9.514 5.969 15.469 5.969 c 12.703 0 23 -10.298 23 -23 c 0 -5.954 -2.256 -11.384 -5.969 -15.469 c -1.469 -1.475 -3.147 -2.744 -4.969 -3.781 z m 4.969 3.781 c 3.854 4.113 6.219 9.637 6.219 15.719 c 0 12.703 -10.297 23 -23 23 c -6.081 0 -11.606 -2.364 -15.719 -6.219 c 4.16 4.144 9.883 6.719 16.219 6.719 c 12.703 0 23 -10.298 23 -23 c 0 -6.335 -2.575 -12.06 -6.719 -16.219 z" opacity="0.05"/><path d="m 41.28 8.781 c 3.712 4.085 5.969 9.514 5.969 15.469 c 0 12.703 -10.297 23 -23 23 c -5.954 0 -11.384 -2.256 -15.469 -5.969 c 4.113 3.854 9.637 6.219 15.719 6.219 c 12.703 0 23 -10.298 23 -23 c 0 -6.081 -2.364 -11.606 -6.219 -15.719 z" opacity="0.1"/><path d="m 31.25 2.375 c 8.615 3.154 14.75 11.417 14.75 21.13 c 0 12.426 -10.07 22.5 -22.5 22.5 c -9.708 0 -17.971 -6.135 -21.12 -14.75 a 23 23 0 0 0 44.875 -7 a 23 23 0 0 0 -16 -21.875 z" opacity="0.2"/></g><g><path d="m 24 1 c 12.703 0 23 10.297 23 23 c 0 12.703 -10.297 23 -23 23 -12.703 0 -23 -10.297 -23 -23 0 -12.703 10.297 -23 23 -23 z" fill="url(#linearGradient3764)" fill-opacity="1"/></g><g/><g><g clip-path="url(#clipPath-382556323)"><g transform="translate(1,1)"><g opacity="0.1"><!-- color: #01b0ec --><g><path d="m 21.06 9 c -0.449 3.715 -2.59 4.586 -5.52 2.273 c 1 3.602 -0.641 5.223 -4.23 4.207 c 2.305 2.941 1.41 5.059 -2.297 5.496 c 3.254 1.836 3.246 4.141 -0.012 5.965 c 3.715 0.449 4.586 2.59 2.273 5.52 c 3.602 -1.012 5.223 0.637 4.207 4.23 c 2.941 -2.309 5.059 -1.41 5.496 2.297 c 1.836 -3.258 4.141 -3.246 5.965 0.008 c 0.445 -3.711 2.59 -4.582 5.52 -2.273 c -1.01 -3.602 0.637 -5.223 4.23 -4.207 c -2.309 -2.941 -1.41 -5.059 2.297 -5.496 c -3.258 -1.832 -3.246 -4.141 0.008 -5.961 c -3.711 -0.445 -4.582 -2.59 -2.273 -5.52 c -3.602 1 -5.223 -0.641 -4.207 -4.23 c -2.941 2.305 -5.059 1.41 -5.496 -2.297 c -1.832 3.254 -4.141 3.246 -5.961 -0.012 m 0 0" fill="#000" stroke="none" fill-rule="nonzero" fill-opacity="1"/><path d="m 32 20 c 0.02 1.809 -0.547 3.492 -1.484 4.406 c -0.938 0.914 -2.098 0.914 -3.03 0 c -0.938 -0.914 -1.504 -2.598 -1.477 -4.406 c -0.023 -1.809 0.547 -3.492 1.477 -4.406 c 0.941 -0.914 2.094 -0.914 3.03 0 c 0.938 0.914 1.504 2.598 1.484 4.406 m 0 0" fill="#000" stroke="none" fill-rule="nonzero" fill-opacity="1"/><path d="m 22 20 c 0.02 1.809 -0.547 3.492 -1.484 4.406 c -0.938 0.914 -2.098 0.914 -3.03 0 c -0.938 -0.914 -1.504 -2.598 -1.477 -4.406 c -0.023 -1.809 0.547 -3.492 1.477 -4.406 c 0.941 -0.914 2.094 -0.914 3.03 0 c 0.938 0.914 1.504 2.598 1.484 4.406 m 0 0" fill="#000" stroke="none" fill-rule="nonzero" fill-opacity="1"/><path d="m 31 22 c 0.012 0.723 -0.363 1.398 -0.988 1.762 c -0.625 0.367 -1.398 0.367 -2.023 0 c -0.625 -0.363 -1 -1.039 -0.988 -1.762 c -0.012 -0.723 0.363 -1.398 0.988 -1.762 c 0.625 -0.367 1.398 -0.367 2.023 0 c 0.625 0.363 1 1.039 0.988 1.762 m 0 0" fill="#000" stroke="none" fill-rule="nonzero" fill-opacity="1"/><path d="m 21 22 c 0.012 0.723 -0.363 1.398 -0.988 1.762 c -0.625 0.367 -1.398 0.367 -2.023 0 c -0.625 -0.363 -1 -1.039 -0.988 -1.762 c -0.012 -0.723 0.363 -1.398 0.988 -1.762 c 0.625 -0.367 1.398 -0.367 2.023 0 c 0.625 0.363 1 1.039 0.988 1.762 m 0 0" fill="#000" stroke="none" fill-rule="nonzero" fill-opacity="1"/><path d="m 18 28 c 3 1.996 9 1.996 12 0 c -0.996 7 -10.996 7 -12 0 m 0 0" fill="#000" stroke="none" fill-rule="nonzero" fill-opacity="1"/></g></g></g></g></g><g><g clip-path="url(#clipPath-394074918)"><!-- color: #01b0ec --><g><path d="m 21.06 9 c -0.449 3.715 -2.59 4.586 -5.52 2.273 c 1 3.602 -0.641 5.223 -4.23 4.207 c 2.305 2.941 1.41 5.059 -2.297 5.496 c 3.254 1.836 3.246 4.141 -0.012 5.965 c 3.715 0.449 4.586 2.59 2.273 5.52 c 3.602 -1.012 5.223 0.637 4.207 4.23 c 2.941 -2.309 5.059 -1.41 5.496 2.297 c 1.836 -3.258 4.141 -3.246 5.965 0.008 c 0.445 -3.711 2.59 -4.582 5.52 -2.273 c -1.01 -3.602 0.637 -5.223 4.23 -4.207 c -2.309 -2.941 -1.41 -5.059 2.297 -5.496 c -3.258 -1.832 -3.246 -4.141 0.008 -5.961 c -3.711 -0.445 -4.582 -2.59 -2.273 -5.52 c -3.602 1 -5.223 -0.641 -4.207 -4.23 c -2.941 2.305 -5.059 1.41 -5.496 -2.297 c -1.832 3.254 -4.141 3.246 -5.961 -0.012 m 0 0" fill="#ffc845" stroke="none" fill-rule="nonzero" fill-opacity="1"/><path d="m 32 20 c 0.02 1.809 -0.547 3.492 -1.484 4.406 c -0.938 0.914 -2.098 0.914 -3.03 0 c -0.938 -0.914 -1.504 -2.598 -1.477 -4.406 c -0.023 -1.809 0.547 -3.492 1.477 -4.406 c 0.941 -0.914 2.094 -0.914 3.03 0 c 0.938 0.914 1.504 2.598 1.484 4.406 m 0 0" fill="#f9f9f9" stroke="none" fill-rule="nonzero" fill-opacity="1"/><path d="m 22 20 c 0.02 1.809 -0.547 3.492 -1.484 4.406 c -0.938 0.914 -2.098 0.914 -3.03 0 c -0.938 -0.914 -1.504 -2.598 -1.477 -4.406 c -0.023 -1.809 0.547 -3.492 1.477 -4.406 c 0.941 -0.914 2.094 -0.914 3.03 0 c 0.938 0.914 1.504 2.598 1.484 4.406 m 0 0" fill="#f9f9f9" stroke="none" fill-rule="nonzero" fill-opacity="1"/><path d="m 31 22 c 0.012 0.723 -0.363 1.398 -0.988 1.762 c -0.625 0.367 -1.398 0.367 -2.023 0 c -0.625 -0.363 -1 -1.039 -0.988 -1.762 c -0.012 -0.723 0.363 -1.398 0.988 -1.762 c 0.625 -0.367 1.398 -0.367 2.023 0 c 0.625 0.363 1 1.039 0.988 1.762 m 0 0" fill="#2d2d2d" stroke="none" fill-rule="nonzero" fill-opacity="1"/><path d="m 21 22 c 0.012 0.723 -0.363 1.398 -0.988 1.762 c -0.625 0.367 -1.398 0.367 -2.023 0 c -0.625 -0.363 -1 -1.039 -0.988 -1.762 c -0.012 -0.723 0.363 -1.398 0.988 -1.762 c 0.625 -0.367 1.398 -0.367 2.023 0 c 0.625 0.363 1 1.039 0.988 1.762 m 0 0" fill="#2d2d2d" stroke="none" fill-rule="nonzero" fill-opacity="1"/><path d="m 18 28 c 3 1.996 9 1.996 12 0 c -0.996 7 -10.996 7 -12 0 m 0 0" fill="#cf2800" stroke="none" fill-rule="nonzero" fill-opacity="1"/></g></g></g><g><path d="m 40.03 7.531 c 3.712 4.084 5.969 9.514 5.969 15.469 0 12.703 -10.297 23 -23 23 c -5.954 0 -11.384 -2.256 -15.469 -5.969 4.178 4.291 10.01 6.969 16.469 6.969 c 12.703 0 23 -10.298 23 -23 0 -6.462 -2.677 -12.291 -6.969 -16.469 z" opacity="0.1"/></g></svg>