<?xml version="1.0" encoding="UTF-8" standalone="no"?>
<svg
   xmlns:dc="http://purl.org/dc/elements/1.1/"
   xmlns:cc="http://creativecommons.org/ns#"
   xmlns:rdf="http://www.w3.org/1999/02/22-rdf-syntax-ns#"
   xmlns:svg="http://www.w3.org/2000/svg"
   xmlns="http://www.w3.org/2000/svg"
   xmlns:sodipodi="http://sodipodi.sourceforge.net/DTD/sodipodi-0.dtd"
   xmlns:inkscape="http://www.inkscape.org/namespaces/inkscape"
   viewBox="0 0 48 48"
   id="svg2"
   version="1.1"
   inkscape:version="0.91 r13725"
   sodipodi:docname="kajongg.svg">
  <metadata
     id="metadata73">
    <rdf:RDF>
      <cc:Work
         rdf:about="">
        <dc:format>image/svg+xml</dc:format>
        <dc:type
           rdf:resource="http://purl.org/dc/dcmitype/StillImage" />
        <dc:title></dc:title>
      </cc:Work>
    </rdf:RDF>
  </metadata>
  <sodipodi:namedview
     pagecolor="#ffffff"
     bordercolor="#666666"
     borderopacity="1"
     objecttolerance="10"
     gridtolerance="10"
     guidetolerance="10"
     inkscape:pageopacity="0"
     inkscape:pageshadow="2"
     inkscape:window-width="1366"
     inkscape:window-height="713"
     id="namedview71"
     showgrid="false"
     inkscape:zoom="4.9166667"
     inkscape:cx="28.881356"
     inkscape:cy="24"
     inkscape:window-x="0"
     inkscape:window-y="28"
     inkscape:window-maximized="1"
     inkscape:current-layer="svg2" />
  <defs
     id="defs4">
    <linearGradient
       id="linearGradient3764"
       x1="1"
       x2="47"
       gradientUnits="userSpaceOnUse"
       gradientTransform="matrix(0,-1,1,0,-1.5e-6,47.999998)">
      <stop
         stop-color="#e4e4e4"
         stop-opacity="1"
         id="stop7" />
      <stop
         offset="1"
         stop-color="#eee"
         stop-opacity="1"
         id="stop9" />
    </linearGradient>
  </defs>
  <g
     id="g21">
    <path
       d="m 36.31 5 c 5.859 4.062 9.688 10.831 9.688 18.5 c 0 12.426 -10.07 22.5 -22.5 22.5 c -7.669 0 -14.438 -3.828 -18.5 -9.688 c 1.037 1.822 2.306 3.499 3.781 4.969 c 4.085 3.712 9.514 5.969 15.469 5.969 c 12.703 0 23 -10.298 23 -23 c 0 -5.954 -2.256 -11.384 -5.969 -15.469 c -1.469 -1.475 -3.147 -2.744 -4.969 -3.781 z m 4.969 3.781 c 3.854 4.113 6.219 9.637 6.219 15.719 c 0 12.703 -10.297 23 -23 23 c -6.081 0 -11.606 -2.364 -15.719 -6.219 c 4.16 4.144 9.883 6.719 16.219 6.719 c 12.703 0 23 -10.298 23 -23 c 0 -6.335 -2.575 -12.06 -6.719 -16.219 z"
       opacity="0.05"
       id="path23" />
    <path
       d="m 41.28 8.781 c 3.712 4.085 5.969 9.514 5.969 15.469 c 0 12.703 -10.297 23 -23 23 c -5.954 0 -11.384 -2.256 -15.469 -5.969 c 4.113 3.854 9.637 6.219 15.719 6.219 c 12.703 0 23 -10.298 23 -23 c 0 -6.081 -2.364 -11.606 -6.219 -15.719 z"
       opacity="0.1"
       id="path25" />
    <path
       d="m 31.25 2.375 c 8.615 3.154 14.75 11.417 14.75 21.13 c 0 12.426 -10.07 22.5 -22.5 22.5 c -9.708 0 -17.971 -6.135 -21.12 -14.75 a 23 23 0 0 0 44.875 -7 a 23 23 0 0 0 -16 -21.875 z"
       opacity="0.2"
       id="path27" />
  </g>
  <g
     id="g29">
    <path
       d="m 24 1 c 12.703 0 23 10.297 23 23 c 0 12.703 -10.297 23 -23 23 -12.703 0 -23 -10.297 -23 -23 0 -12.703 10.297 -23 23 -23 z"
       fill="url(#linearGradient3764)"
       fill-opacity="1"
       id="path31" />
  </g>
  <g
     id="g33" />
  <g
     id="g67">
    <path
       d="m 40.03 7.531 c 3.712 4.084 5.969 9.514 5.969 15.469 0 12.703 -10.297 23 -23 23 c -5.954 0 -11.384 -2.256 -15.469 -5.969 4.178 4.291 10.01 6.969 16.469 6.969 c 12.703 0 23 -10.298 23 -23 0 -6.462 -2.677 -12.291 -6.969 -16.469 z"
       opacity="0.1"
       id="path69" />
  </g>
  <path
     style="fill:#000000;fill-opacity:0.09803922"
     d="M 24.33,37.800713 C 23.906076,37.327903 24,35.999999 24,31.690383 l 0,-4.690384 c -2,0.251744 -3,0.525482 -4.25301,0.98043 -0.517676,0.64035 -0.74699,0.73789 -1.210869,0.28314 -0.378855,-0.39914 -0.60977,-1.231686 -1.610342,-4.609086 -0.280581,-0.94709 -0.735932,-2.21859 -1.011897,-2.82556 -0.602744,-1.32574 -0.559756,-1.62682 0.211982,-1.48438 0.292391,0.0539 0.812369,0.212951 1.155467,0.414091 C 17.712593,19.999999 18,19.999999 18.599103,19.949999 20.347335,19.576886 22,19.248669 24,18.799999 l 0,-2.214716 c 0,-2.585285 -0.261857,-2.436661 -0.638195,-3.166901 -0.73082,-1.41802 -0.278135,-1.80468 1.188865,-1.01548 1.170754,0.62983 1.759618,1.31541 1.639242,1.90851 C 26.140082,14.556822 26,15.502703 26,16.585223 l 0,1.864776 c 2,-0.5 4,-0.842738 5.788979,-1.05 0.734614,0 2.71102,1.513724 2.71102,2.071774 0,0.15465 -0.163702,0.49781 -0.363785,0.76258 -0.337263,0.44632 -1.073226,2.06454 -1.792365,3.66339 -0.166664,0.37056 -0.303022,0.93558 -0.303022,1.25562 0,0.45475 -0.0534,0.846636 -0.244676,0.846636 -1.325596,0 -5.378826,0.679227 -5.796151,0.76 0,7.221 0,10.24 -0.873009,11.091404 -0.227586,0.20789 -0.568969,0.20363 -0.796991,-0.05069 z M 24,24.999999 l 0,-4.6 c 0,0 -3.675796,0.65142 -5.032208,1 -0.746176,0.19177 -0.624485,0.6 0.266483,3.87289 0.147572,0.542091 0.35349,0.711669 0.683234,0.62711 C 21,25.622406 22,25.357089 24,24.999999 Z m 6.3,-1 c 0.32431,-0.154 0.285049,-0.142496 0.75,-2.266146 0.374911,-1.7125 0.534221,-2.318934 0.35,-2.433854 -0.113471,-0.224164 -3.4,0.231655 -5.4,0.7 l 0,4.7 c 2,-0.356908 3.337853,-0.51843 4.3,-0.7 z"
     id="path4197"
     inkscape:connector-curvature="0"
     sodipodi:nodetypes="cscccssccccccsccccsccsscccccccsccccccc" />
  <path
     sodipodi:nodetypes="cscccssccccccsccccsccsscccccccsccccccc"
     inkscape:connector-curvature="0"
     id="path4140"
     d="M 23.33,36.800714 C 22.906076,36.327904 23,35 23,30.690384 L 23,26 c -2,0.251744 -3,0.525482 -4.25301,0.98043 -0.517676,0.64035 -0.74699,0.73789 -1.210869,0.28314 -0.378855,-0.39914 -0.60977,-1.231686 -1.610342,-4.609086 -0.280581,-0.94709 -0.735932,-2.21859 -1.011897,-2.82556 -0.602744,-1.32574 -0.559756,-1.62682 0.211982,-1.48438 0.292391,0.0539 0.812369,0.212951 1.155467,0.414091 C 16.712593,19 17,19 17.599103,18.95 19.347335,18.576887 21,18.24867 23,17.8 l 0,-2.214716 c 0,-2.585285 -0.261857,-2.436661 -0.638195,-3.166901 -0.73082,-1.41802 -0.278135,-1.80468 1.188865,-1.01548 1.170754,0.62983 1.759618,1.31541 1.639242,1.90851 C 25.140082,13.556823 25,14.502703 25,15.585224 L 25,17.45 c 2,-0.5 4,-0.842738 5.788979,-1.05 0.734614,0 2.71102,1.513724 2.71102,2.071774 0,0.15465 -0.163702,0.49781 -0.363785,0.76258 -0.337263,0.44632 -1.073226,2.06454 -1.792365,3.66339 -0.166664,0.37056 -0.303022,0.93558 -0.303022,1.25562 C 31.040827,24.608114 30.987427,25 30.796151,25 29.470555,25 25.417325,25.679227 25,25.76 25,32.981 25,36 24.126991,36.851404 23.899405,37.059294 23.558022,37.055034 23.33,36.800714 Z M 23,24 23,19.4 c 0,0 -3.675796,0.65142 -5.032208,1 -0.746176,0.19177 -0.624485,0.6 0.266483,3.87289 0.147572,0.542091 0.35349,0.711669 0.683234,0.62711 C 20,24.622407 21,24.35709 23,24 Z m 6.3,-1 c 0.32431,-0.154 0.285049,-0.142496 0.75,-2.266146 C 30.424911,19.021354 30.584221,18.41492 30.4,18.3 30.286529,18.075836 27,18.531655 25,19 l 0,4.7 c 2,-0.356908 3.337853,-0.51843 4.3,-0.7 z"
     style="fill:#b33c29;fill-opacity:1" />
</svg>
