<svg xmlns="http://www.w3.org/2000/svg" xmlns:xlink="http://www.w3.org/1999/xlink" width="48" viewBox="0 0 13.546667 13.546667" height="48">
 <defs>
  <linearGradient id="0">
   <stop stop-color="#dedede"/>
   <stop offset="1" stop-color="#f9f9f9"/>
  </linearGradient>
  <linearGradient xlink:href="#0" id="1" gradientUnits="userSpaceOnUse" gradientTransform="matrix(1.10525,0,0,1.10525,-134.27851,-295.7614)" y1="279.1" x2="0" y2="268.33"/>
 </defs>
 <rect height="12.982" rx="6.491" y="0.282" x="0.282" width="12.982" opacity="0.5" fill="#ffffff" fill-rule="evenodd"/>
 <rect height="11.853" rx="5.926" y="0.847" x="0.847" width="11.853" fill="url(#1)" fill-rule="evenodd"/>
 <path d="m 6.7697604,2.5404445 c -2.331976,0 -4.229538,1.8907598 -4.229538,4.2294677 0,2.3387079 1.897562,4.2371988 4.229538,4.2371988 2.331973,0 4.2371296,-1.8984909 4.2371296,-4.2371988 0,-2.3387079 -1.9051566,-4.2294677 -4.2371296,-4.2294677 z m 0,0.5644443 c 2.035192,0 3.6752156,1.6401774 3.6752156,3.6650234 0,2.0248449 -1.6400236,3.6727558 -3.6752156,3.6727558 -2.035194,0 -3.667625,-1.6479109 -3.667625,-3.6727558 0,-2.024846 1.632431,-3.6650234 3.667625,-3.6650234 z" opacity="0.5" color="#000000" fill="#38a524"/>
 <path d="m 6.7697604,2.5404445 c -2.331976,0 -4.229538,1.8907598 -4.229538,4.2294677 l 0.561913,0 c 0,-2.024846 1.632431,-3.6650234 3.667625,-3.6650234 2.035192,0 3.6752156,1.6401774 3.6752156,3.6650234 l 0,0.03866 c -0.02092,2.006837 -1.6531316,3.6340958 -3.6752156,3.6340958 l 0,0.564443 c 2.331973,0 4.2371296,-1.8984909 4.2371296,-4.2371988 0,-2.3387079 -1.9051566,-4.2294677 -4.2371296,-4.2294677 z" color="#000000" fill="#38a524"/>
 <path d="m 2.6989724,5.6448891 c -0.09906,0.359164 -0.15875,0.7382302 -0.15875,1.128889 0,0.4877062 0.08637,0.9574761 0.238125,1.3934722 l 0.0441,0.017639 1.693333,-2.5399998 -1.816805,0 z" fill="#38a524"/>
 <path d="m 7.9525656,4.2333582 c -0.7514906,0 -1.3606936,0.6092067 -1.3606936,1.3606962 0,0.2348521 0.059689,0.4563762 0.1644167,0.6491767 3.921e-4,5.123e-4 -3.92e-4,0.00216 0,0.00285 l -2.5229553,2.5229786 0,0.5442778 0.5442779,0 0.1814257,-0.1814192 0,-0.3628586 0.3628524,0 0.1814256,-0.1814329 0.3628524,0 0.1814257,-0.1814258 0,-0.3628512 0.1814266,-0.1814326 0.3628523,0 0,-0.3628517 0.7086947,-0.7087041 c 7.28e-4,3.918e-4 0.00209,-3.92e-4 0.00291,0 0.1927997,0.1047362 0.4143232,0.1644201 0.6491628,0.1644201 0.7514926,0 1.3606955,-0.6092143 1.3606955,-1.3607109 l 0,-0.0057 C 9.3108251,4.8385636 8.7023862,4.2333335 7.9525895,4.2333335 z M 8.2247061,4.959068 c 0.1999436,0 0.3622123,0.1629018 0.3628513,0.3628515 0,0.2003985 -0.1624537,0.3628513 -0.3628513,0.3628513 -0.2003987,0 -0.3628524,-0.1624528 -0.3628524,-0.3628513 0,-0.2004057 0.1624537,-0.3628515 0.3628524,-0.3628515 z" fill="#2d2d2d"/>
</svg>
