<?xml version="1.0" encoding="UTF-8" standalone="no"?>
<svg
   xmlns:dc="http://purl.org/dc/elements/1.1/"
   xmlns:cc="http://creativecommons.org/ns#"
   xmlns:rdf="http://www.w3.org/1999/02/22-rdf-syntax-ns#"
   xmlns:svg="http://www.w3.org/2000/svg"
   xmlns="http://www.w3.org/2000/svg"
   xmlns:xlink="http://www.w3.org/1999/xlink"
   xmlns:sodipodi="http://sodipodi.sourceforge.net/DTD/sodipodi-0.dtd"
   xmlns:inkscape="http://www.inkscape.org/namespaces/inkscape"
   viewBox="0 0 48 48"
   id="svg2"
   version="1.1"
   inkscape:version="0.48.5 r10040"
   width="100%"
   height="100%"
   sodipodi:docname="kstars.svg">
  <metadata
     id="metadata61">
    <rdf:RDF>
      <cc:Work
         rdf:about="">
        <dc:format>image/svg+xml</dc:format>
        <dc:type
           rdf:resource="http://purl.org/dc/dcmitype/StillImage" />
        <dc:title />
      </cc:Work>
    </rdf:RDF>
  </metadata>
  <sodipodi:namedview
     pagecolor="#ffffff"
     bordercolor="#666666"
     borderopacity="1"
     objecttolerance="10"
     gridtolerance="10"
     guidetolerance="10"
     inkscape:pageopacity="0"
     inkscape:pageshadow="2"
     inkscape:window-width="1366"
     inkscape:window-height="713"
     id="namedview59"
     showgrid="false"
     inkscape:zoom="1"
     inkscape:cx="21.286051"
     inkscape:cy="23.915882"
     inkscape:window-x="0"
     inkscape:window-y="28"
     inkscape:window-maximized="1"
     inkscape:current-layer="svg2">
    <inkscape:grid
       type="xygrid"
       id="grid3040" />
  </sodipodi:namedview>
  <defs
     id="defs4">
    <linearGradient
       id="linearGradient3952">
      <stop
         style="stop-color:#babad6;stop-opacity:1;"
         offset="0"
         id="stop3954" />
      <stop
         style="stop-color:#c6c6de;stop-opacity:1;"
         offset="1"
         id="stop3956" />
    </linearGradient>
    <linearGradient
       id="linearGradient3840">
      <stop
         style="stop-color:#ffffff;stop-opacity:0.76862746;"
         offset="0"
         id="stop3842" />
      <stop
         style="stop-color:#ffffff;stop-opacity:0.67450982;"
         offset="1"
         id="stop3844" />
    </linearGradient>
    <linearGradient
       id="linearGradient3764"
       x1="1"
       x2="47"
       gradientUnits="userSpaceOnUse"
       gradientTransform="matrix(0,-1,1,0,-1.5e-6,47.999998)">
      <stop
         stop-color="#c8dae4"
         stop-opacity="1"
         id="stop7"
         offset="0"
         style="stop-color:#397291;stop-opacity:1;" />
      <stop
         offset="1"
         stop-color="#d6e4eb"
         stop-opacity="1"
         id="stop9"
         style="stop-color:#3e7da0;stop-opacity:1;" />
    </linearGradient>
    <clipPath
       id="clipPath-942115611">
      <g
         transform="translate(0,-1004.3622)"
         id="g12">
        <path
           d="m -24 13 c 0 1.105 -0.672 2 -1.5 2 -0.828 0 -1.5 -0.895 -1.5 -2 0 -1.105 0.672 -2 1.5 -2 0.828 0 1.5 0.895 1.5 2 z"
           transform="matrix(15.333333,0,0,11.5,414.99999,878.8622)"
           fill="#1890d0"
           id="path14" />
      </g>
    </clipPath>
    <clipPath
       id="clipPath-952486936">
      <g
         transform="translate(0,-1004.3622)"
         id="g17">
        <path
           d="m -24 13 c 0 1.105 -0.672 2 -1.5 2 -0.828 0 -1.5 -0.895 -1.5 -2 0 -1.105 0.672 -2 1.5 -2 0.828 0 1.5 0.895 1.5 2 z"
           transform="matrix(15.333333,0,0,11.5,414.99999,878.8622)"
           fill="#1890d0"
           id="path19" />
      </g>
    </clipPath>
    <radialGradient
       inkscape:collect="always"
       xlink:href="#linearGradient3840"
       id="radialGradient3901"
       gradientUnits="userSpaceOnUse"
       gradientTransform="matrix(0.71264015,0.4719729,-0.86584684,1.3073574,19.536958,-12.071662)"
       cx="13.883575"
       cy="17.956266"
       fx="13.883575"
       fy="17.956266"
       r="4.3835754" />
    <linearGradient
       inkscape:collect="always"
       xlink:href="#linearGradient3952"
       id="linearGradient3958"
       x1="25"
       y1="48"
       x2="25"
       y2="0.1351461"
       gradientUnits="userSpaceOnUse" />
  </defs>
  <g
     id="g21">
    <path
       d="m 36.31 5 c 5.859 4.062 9.688 10.831 9.688 18.5 c 0 12.426 -10.07 22.5 -22.5 22.5 c -7.669 0 -14.438 -3.828 -18.5 -9.688 c 1.037 1.822 2.306 3.499 3.781 4.969 c 4.085 3.712 9.514 5.969 15.469 5.969 c 12.703 0 23 -10.298 23 -23 c 0 -5.954 -2.256 -11.384 -5.969 -15.469 c -1.469 -1.475 -3.147 -2.744 -4.969 -3.781 z m 4.969 3.781 c 3.854 4.113 6.219 9.637 6.219 15.719 c 0 12.703 -10.297 23 -23 23 c -6.081 0 -11.606 -2.364 -15.719 -6.219 c 4.16 4.144 9.883 6.719 16.219 6.719 c 12.703 0 23 -10.298 23 -23 c 0 -6.335 -2.575 -12.06 -6.719 -16.219 z"
       opacity="0.05"
       id="path23" />
    <path
       d="m 41.28 8.781 c 3.712 4.085 5.969 9.514 5.969 15.469 c 0 12.703 -10.297 23 -23 23 c -5.954 0 -11.384 -2.256 -15.469 -5.969 c 4.113 3.854 9.637 6.219 15.719 6.219 c 12.703 0 23 -10.298 23 -23 c 0 -6.081 -2.364 -11.606 -6.219 -15.719 z"
       opacity="0.1"
       id="path25" />
    <path
       d="m 31.25 2.375 c 8.615 3.154 14.75 11.417 14.75 21.13 c 0 12.426 -10.07 22.5 -22.5 22.5 c -9.708 0 -17.971 -6.135 -21.12 -14.75 a 23 23 0 0 0 44.875 -7 a 23 23 0 0 0 -16 -21.875 z"
       opacity="0.2"
       id="path27" />
  </g>
  <g
     id="g29">
    <path
       d="m 24 1 c 12.703 0 23 10.297 23 23 c 0 12.703 -10.297 23 -23 23 -12.703 0 -23 -10.297 -23 -23 0 -12.703 10.297 -23 23 -23 z"
       id="path31"
       style="fill:url(#linearGradient3958);fill-opacity:1.0"
       fill-opacity="1"
       fill="url(#linearGradient3764)" />
  </g>
  <g
     id="g33" />
  <g
     id="g55">
    <path
       d="m 40.03 7.531 c 3.712 4.084 5.969 9.514 5.969 15.469 0 12.703 -10.297 23 -23 23 c -5.954 0 -11.384 -2.256 -15.469 -5.969 4.178 4.291 10.01 6.969 16.469 6.969 c 12.703 0 23 -10.298 23 -23 0 -6.462 -2.677 -12.291 -6.969 -16.469 z"
       id="path57"
       opacity="0.1" />
  </g>
  <g
     id="g3889"
     transform="matrix(0.99974542,0,0,1,0.00127722,0)">
    <g
       id="g3881">
      <path
         style="fill:#000000;fill-opacity:0.09803922;fill-rule:nonzero;stroke:none"
         d="m 19.499996,12 c -1.903636,0.01874 -4.203628,1.450231 -5.812608,3.875 -2.14531,3.233025 -2.269719,6.987877 -0.218754,8.28125 L 23.031311,27.5 c 0.07192,0.353351 0.43151,0.739436 0.968768,1.03125 l 0,1.03125 -3.437564,4.625 -0.218754,-0.15625 -1.250023,1.78125 c -0.195757,0.283632 -0.123317,0.645149 0.156253,0.84375 L 20.28126,37.375 c 0.27957,0.198601 0.648008,0.127382 0.843766,-0.15625 l 1.218772,-1.78125 -0.250004,-0.15625 1.906285,-2.5625 0,2.46875 -0.250005,0 0,2.1875 c 0,0.34625 0.278844,0.625 0.625012,0.625 l 1.250023,0 c 0.346169,0 0.625012,-0.27875 0.625012,-0.625 l 0,-2.1875 -0.250005,0 0,-2.46875 1.875035,2.53125 -0.250005,0.1875 1.250023,1.78125 c 0.195758,0.283632 0.564196,0.354851 0.843766,0.15625 l 1.000018,-0.71875 c 0.27957,-0.198601 0.352011,-0.560118 0.156253,-0.84375 l -1.218772,-1.78125 -0.218754,0.15625 -3.437564,-4.625 0,-0.625 c 0.235937,-0.03301 0.452738,-0.07789 0.593761,-0.1875 l 9.218921,3.21875 c 0.529447,0.141391 1.259148,-0.232813 1.750032,-0.9375 0.516174,-0.740995 0.590855,-1.608217 0.187503,-2 L 21.218778,12.46875 C 20.706951,12.143945 20.134543,11.993755 19.499996,12 z"
         id="path3918"
         inkscape:connector-curvature="0" />
      <path
         style="fill:#999999;fill-opacity:1;fill-rule:nonzero;stroke:none"
         d="M 23 27 L 23 28.5625 L 19.09375 33.8125 L 20.5625 35 L 23 31.71875 L 23 36 L 25 36 L 25 31.71875 L 27.4375 35 L 28.90625 33.8125 L 25 28.5625 L 25 27 L 23 27 z "
         transform="matrix(1.0002546,0,0,1,-0.00127755,0)"
         id="rect3856" />
      <path
         style="fill:#333333;fill-opacity:1;fill-rule:nonzero;stroke:none"
         d="m 22.75,34.200012 2.5,0 c 0,0 0,1.40924 0,2.175 0,0.34625 -0.27875,0.625 -0.625,0.625 l -1.25,0 c -0.34625,0 -0.625,-0.27875 -0.625,-0.625 0,-0.725 0,-2.175 0,-2.175 z"
         id="rect3870"
         inkscape:connector-curvature="0"
         sodipodi:nodetypes="cccsscc" />
      <path
         sodipodi:nodetypes="cccsscc"
         inkscape:connector-curvature="0"
         id="path3875"
         d="m 19.341951,33.017326 2.019037,1.433941 c 0,0 -0.796922,1.154382 -1.229958,1.781655 -0.195804,0.283632 -0.578559,0.352086 -0.858195,0.153485 l -1.009519,-0.71697 c -0.279636,-0.198601 -0.347127,-0.586824 -0.151323,-0.870456 0.409986,-0.593885 1.229958,-1.781655 1.229958,-1.781655 z"
         style="fill:#333333;fill-opacity:1;fill-rule:nonzero;stroke:none" />
      <path
         style="fill:#333333;fill-opacity:1;fill-rule:nonzero;stroke:none"
         d="m 28.658049,33.017326 -2.019037,1.433941 c 0,0 0.796922,1.154382 1.229958,1.781655 0.195804,0.283632 0.578559,0.352086 0.858195,0.153485 l 1.009519,-0.71697 c 0.279636,-0.198601 0.347127,-0.586824 0.151323,-0.870456 -0.409986,-0.593885 -1.229958,-1.781655 -1.229958,-1.781655 z"
         id="path3879"
         inkscape:connector-curvature="0"
         sodipodi:nodetypes="cccsscc" />
    </g>
    <g
       transform="matrix(0.97135018,0,0,0.97566438,2.7424694,-0.25042846)"
       id="g3848">
      <path
         id="rect3038"
         transform="matrix(1.0294948,0,0,1.0249426,-2.8233581,0.2566748)"
         d="m 18.5,11 c -1.904086,0.01874 -4.20314,1.450231 -5.8125,3.875 -2.145814,3.233025 -2.270196,6.987877 -0.21875,8.28125 L 22.03125,26.5 c 0.09591,0.471135 0.706243,0.983405 1.5625,1.28125 0.839694,0.292084 1.622425,0.262151 2,-0.03125 l 9.21875,3.21875 c 0.529573,0.141391 1.259,-0.232813 1.75,-0.9375 0.516297,-0.740995 0.590947,-1.608217 0.1875,-2 L 20.21875,11.46875 C 19.706803,11.143945 19.134696,10.993754 18.5,11 z"
         style="fill:#333333;fill-opacity:1;fill-rule:nonzero;stroke:none"
         inkscape:connector-curvature="0" />
      <path
         id="path3835"
         d="m 16.736321,19.858092 c -1.838113,2.757176 -4.605415,4.140829 -6.180941,3.090481 -1.5755253,-1.050349 -1.3626631,-4.136957 0.475449,-6.894132 1.838112,-2.757176 4.605415,-4.140828 6.180941,-3.09048 1.575526,1.050348 1.362664,4.136956 -0.475449,6.894131 z"
         style="fill:url(#radialGradient3901);fill-opacity:1;fill-rule:nonzero;stroke:none"
         inkscape:connector-curvature="0" />
    </g>
  </g>
</svg>
