<svg xmlns="http://www.w3.org/2000/svg" xmlns:xlink="http://www.w3.org/1999/xlink" width="48" viewBox="0 0 13.546667 13.546667" height="48">
 <defs>
  <linearGradient id="0">
   <stop stop-color="#891410"/>
   <stop offset="1" stop-color="#b81b1a"/>
  </linearGradient>
  <linearGradient gradientTransform="matrix(1.10526 0 0 1.10526 -134.28026 -295.76492)" xlink:href="#0" id="1" y1="279.1" y2="268.33" gradientUnits="userSpaceOnUse" x2="0"/>
 </defs>
 <g fill-rule="evenodd">
  <rect width="12.982" x="0.282" y="0.282" rx="6.491" height="12.982" opacity="0.5" fill="#fff"/>
  <rect width="11.853" x="0.847" y="0.847" rx="5.926" height="11.853" fill="url(#1)"/>
 </g>
 <g transform="matrix(0.0131171,0,0,0.01223761,4.8077173,-0.89556102)" fill="#ffffff">
  <path d="m 375.93351,900.77991 -29.24051,-83.29114 -92.59493,0 -29.24051,83.29114 -50.06329,0 102.34177,-296.83544 46.51899,0 102.34177,296.83544 -50.06329,0 m -74.87342,-214.43038 -30.56962,83.29114 59.36709,0 -28.79747,-83.29114"/>
 </g>
 <g fill="#ffffff">
  <path d="m 3.6260306,3.4993012 0.6049073,0 C 4.1873403,3.3685135 4.1382938,3.248622 4.0837983,3.1396265 l 0.326977,-0.1144419 c 0.076294,0.1525925 0.1362393,0.3106312 0.1798373,0.4741166 l 0.6049074,0 0,0.3106281 -1.5694894,0 0,-0.3106281 m 0.1634884,0.6376051 1.2588613,0 0,0.2942792 -1.2588613,0 0,-0.2942792 m 0,0.6212562 1.2588613,0 0,0.2942793 -1.2588613,0 0,-0.2942793 m 1.2752102,0.6212562 0,1.406001 -0.3106281,0 0,-0.212535 -0.6212563,0 0,0.212535 -0.3269769,0 0,-1.406001 1.2588613,0 m -0.9318844,0.8828378 0.6212563,0 0,-0.5885585 -0.6212563,0 0,0.5885585 m 1.2261637,-3.0899323 1.8964663,0 0,0.2942793 -0.964582,0 -0.081744,0.4250701 0.8991866,0 0,0.8664889 0.2942793,0 0,0.2942793 -2.1253503,0 0,-0.2942793 0.4250701,0 0.1144419,-0.5722097 -0.3760235,0 0,-0.2942792 0.4414189,0 0.081744,-0.4250701 -0.6049073,0 0,-0.2942793 m 0.6703027,1.5858383 0.7683959,0 0,-0.5722097 -0.6539539,0 -0.114442,0.5722097 m 1.1934659,0.6049074 0,1.4223498 -0.3269769,0 0,-0.2288839 -1.1117217,0 0,0.2288839 -0.326977,0 0,-1.4223498 1.7656756,0 m -1.4386986,0.8991866 1.1117217,0 0,-0.6049073 -1.1117217,0 0,0.6049073"/>
  <path d="M 7.0882864,9.633151 6.7190254,8.720408 6.5644763,8.8754084 C 5.6027403,7.7870221 5.6027403,7.7870221 6.0663884,7.3220195 L 5.8259539,7.049924 C 5.2077559,7.6699273 5.2077559,7.6699273 6.4099256,9.0304104 L 6.2553762,9.1854112 z"/>
  <path d="m 7.2036372,5.4468741 0.5506625,0.3599145 -0.00496,-0.2494325 c 0.8691544,-0.022775 0.8691544,-0.022775 0.8840344,0.7255244 l 0.2172883,-0.00569 C 8.8308225,5.279455 8.8308225,5.279455 7.7443792,5.3079232 l -0.00496,-0.2494325 z"/>
 </g>
</svg>
