<svg viewBox="0 0 48 48"><defs><linearGradient id="linearGradient3764" x1="1" x2="47" gradientUnits="userSpaceOnUse" gradientTransform="matrix(0,-1,1,0,-1.5e-6,47.999998)"><stop stop-color="#e4e4e4" stop-opacity="1"/><stop offset="1" stop-color="#eee" stop-opacity="1"/></linearGradient><clipPath id="clipPath-235464576"><g transform="translate(0,-1004.3622)"><path d="m -24 13 c 0 1.105 -0.672 2 -1.5 2 -0.828 0 -1.5 -0.895 -1.5 -2 0 -1.105 0.672 -2 1.5 -2 0.828 0 1.5 0.895 1.5 2 z" transform="matrix(15.333333,0,0,11.5,414.99999,878.8622)" fill="#1890d0"/></g></clipPath><clipPath id="clipPath-245233307"><g transform="translate(0,-1004.3622)"><path d="m -24 13 c 0 1.105 -0.672 2 -1.5 2 -0.828 0 -1.5 -0.895 -1.5 -2 0 -1.105 0.672 -2 1.5 -2 0.828 0 1.5 0.895 1.5 2 z" transform="matrix(15.333333,0,0,11.5,414.99999,878.8622)" fill="#1890d0"/></g></clipPath></defs><g><g transform="translate(0,-1004.3622)"><path d="m 25 1006.36 c -12.703 0 -23 10.298 -23 23 0 6.367 2.601 12.12 6.781 16.281 4.085 3.712 9.514 5.969 15.469 5.969 12.703 0 23 -10.297 23 -23 0 -5.954 -2.256 -11.384 -5.969 -15.469 -4.165 -4.181 -9.914 -6.781 -16.281 -6.781 z m 16.281 6.781 c 3.854 4.113 6.219 9.637 6.219 15.719 0 12.703 -10.297 23 -23 23 -6.081 0 -11.606 -2.364 -15.719 -6.219 4.16 4.144 9.883 6.719 16.219 6.719 12.703 0 23 -10.297 23 -23 0 -6.335 -2.575 -12.06 -6.719 -16.219 z" opacity="0.05"/><path d="m 41.28 1013.14 c 3.712 4.085 5.969 9.514 5.969 15.469 0 12.703 -10.297 23 -23 23 -5.954 0 -11.384 -2.256 -15.469 -5.969 4.113 3.854 9.637 6.219 15.719 6.219 12.703 0 23 -10.297 23 -23 0 -6.081 -2.364 -11.606 -6.219 -15.719 z" opacity="0.1"/><path transform="matrix(15.333333,0,0,11.5,415.24999,879.11222)" d="m -24 13 a 1.5 2 0 1 1 -3 0 1.5 2 0 1 1 3 0 z" opacity="0.2"/></g></g><g><path d="m 24 1 c 12.703 0 23 10.297 23 23 c 0 12.703 -10.297 23 -23 23 -12.703 0 -23 -10.297 -23 -23 0 -12.703 10.297 -23 23 -23 z" fill="url(#linearGradient3764)" fill-opacity="1"/></g><g/><g><g clip-path="url(#clipPath-235464576)"><g transform="translate(0,1)"><g opacity="0.1"><!-- color: #eeeeee --><g><path d="m 11.984 14.996 l 24.03 0 c 0.543 0 0.984 0.441 0.984 0.988 l 0 16.03 c 0 0.547 -0.441 0.984 -0.984 0.984 l -24.03 0 c -0.543 0 -0.984 -0.438 -0.984 -0.984 l 0 -16.03 c 0 -0.547 0.441 -0.988 0.984 -0.988 m 0 0" fill="#000" stroke="none" fill-rule="nonzero" fill-opacity="1"/><path d="m 37 17 l -13 8.656 l 11 7.344 l 1 0 c 0.547 0 1 -0.453 1 -1 m 0 -15" fill="#000" stroke="none" fill-rule="nonzero" fill-opacity="1"/><path d="m 12 15 c -0.453 0 -0.82 0.328 -0.938 0.75 c -0.035 0.086 -0.063 0.16 -0.063 0.25 l 0 16 c 0 0.09 0.027 0.164 0.063 0.25 c 0.117 0.422 0.484 0.75 0.938 0.75 l 24 0 c 0.48 0 0.875 -0.359 0.969 -0.813 c 0.02 -0.066 0.031 -0.121 0.031 -0.188 l 0 -16 c 0 -0.07 -0.012 -0.125 -0.031 -0.188 c -0.094 -0.453 -0.488 -0.816 -0.969 -0.816 l -24 0 m 4 2 l 16 0 l -8 5.344 m -11 -4 l 11 7.313 l 11 -7.313 l 0 12.656 l -22 0 m 0 -12.656" fill="#000" stroke="none" fill-rule="nonzero" fill-opacity="1"/><path d="m 31.641 15.672 l 2.496 -0.918 l 0.715 -2.438 l 1.633 2.01 l 2.715 0.117 l -1.414 2.086 l 0.715 2.453 l -2.395 -0.656 l -2.406 1.691 l 0.016 -2.598 m -2.074 -1.746" fill="#000" stroke="none" fill-rule="nonzero" fill-opacity="1"/></g></g></g></g></g><g><g clip-path="url(#clipPath-245233307)"><!-- color: #eeeeee --><g><path d="m 11.984 14.996 l 24.03 0 c 0.543 0 0.984 0.441 0.984 0.988 l 0 16.03 c 0 0.547 -0.441 0.984 -0.984 0.984 l -24.03 0 c -0.543 0 -0.984 -0.438 -0.984 -0.984 l 0 -16.03 c 0 -0.547 0.441 -0.988 0.984 -0.988 m 0 0" fill="#f9f9f9" stroke="none" fill-rule="nonzero" fill-opacity="1"/><path d="m 37 17 l -13 8.656 l 11 7.344 l 1 0 c 0.547 0 1 -0.453 1 -1 m 0 -15" fill="#ccc" stroke="none" fill-rule="nonzero" fill-opacity="1"/><path d="m 12 15 c -0.453 0 -0.82 0.328 -0.938 0.75 c -0.035 0.086 -0.063 0.16 -0.063 0.25 l 0 16 c 0 0.09 0.027 0.164 0.063 0.25 c 0.117 0.422 0.484 0.75 0.938 0.75 l 24 0 c 0.48 0 0.875 -0.359 0.969 -0.813 c 0.02 -0.066 0.031 -0.121 0.031 -0.188 l 0 -16 c 0 -0.07 -0.012 -0.125 -0.031 -0.188 c -0.094 -0.453 -0.488 -0.816 -0.969 -0.816 l -24 0 m 4 2 l 16 0 l -8 5.344 m -11 -4 l 11 7.313 l 11 -7.313 l 0 12.656 l -22 0 m 0 -12.656" fill="#2d2d2d" stroke="none" fill-rule="nonzero" fill-opacity="1"/><path d="m 31.641 15.672 l 2.496 -0.918 l 0.715 -2.438 l 1.633 2.01 l 2.715 0.117 l -1.414 2.086 l 0.715 2.453 l -2.395 -0.656 l -2.406 1.691 l 0.016 -2.598 m -2.074 -1.746" fill="#ffe237" stroke="none" fill-rule="nonzero" fill-opacity="1"/></g></g></g><g><path d="m 40.03 7.531 c 3.712 4.084 5.969 9.514 5.969 15.469 0 12.703 -10.297 23 -23 23 c -5.954 0 -11.384 -2.256 -15.469 -5.969 4.178 4.291 10.01 6.969 16.469 6.969 c 12.703 0 23 -10.298 23 -23 0 -6.462 -2.677 -12.291 -6.969 -16.469 z" opacity="0.1"/></g></svg>