<svg viewBox="0 0 48 48"><defs><linearGradient id="linearGradient3764" x1="1" x2="47" gradientUnits="userSpaceOnUse" gradientTransform="matrix(0,-1,1,0,-1.5e-6,47.999998)"><stop stop-color="#9e283b" stop-opacity="1"/><stop offset="1" stop-color="#ae2c41" stop-opacity="1"/></linearGradient><clipPath id="clipPath-126487043"><g transform="translate(0,-1004.3622)"><path d="m -24 13 c 0 1.105 -0.672 2 -1.5 2 -0.828 0 -1.5 -0.895 -1.5 -2 0 -1.105 0.672 -2 1.5 -2 0.828 0 1.5 0.895 1.5 2 z" transform="matrix(15.333333,0,0,11.5,414.99999,878.8622)" fill="#1890d0"/></g></clipPath><clipPath id="clipPath-135661562"><g transform="translate(0,-1004.3622)"><path d="m -24 13 c 0 1.105 -0.672 2 -1.5 2 -0.828 0 -1.5 -0.895 -1.5 -2 0 -1.105 0.672 -2 1.5 -2 0.828 0 1.5 0.895 1.5 2 z" transform="matrix(15.333333,0,0,11.5,414.99999,878.8622)" fill="#1890d0"/></g></clipPath></defs><g><g transform="translate(0,-1004.3622)"><path d="m 25 1006.36 c -12.703 0 -23 10.298 -23 23 0 6.367 2.601 12.12 6.781 16.281 4.085 3.712 9.514 5.969 15.469 5.969 12.703 0 23 -10.297 23 -23 0 -5.954 -2.256 -11.384 -5.969 -15.469 -4.165 -4.181 -9.914 -6.781 -16.281 -6.781 z m 16.281 6.781 c 3.854 4.113 6.219 9.637 6.219 15.719 0 12.703 -10.297 23 -23 23 -6.081 0 -11.606 -2.364 -15.719 -6.219 4.16 4.144 9.883 6.719 16.219 6.719 12.703 0 23 -10.297 23 -23 0 -6.335 -2.575 -12.06 -6.719 -16.219 z" opacity="0.05"/><path d="m 41.28 1013.14 c 3.712 4.085 5.969 9.514 5.969 15.469 0 12.703 -10.297 23 -23 23 -5.954 0 -11.384 -2.256 -15.469 -5.969 4.113 3.854 9.637 6.219 15.719 6.219 12.703 0 23 -10.297 23 -23 0 -6.081 -2.364 -11.606 -6.219 -15.719 z" opacity="0.1"/><path transform="matrix(15.333333,0,0,11.5,415.24999,879.11222)" d="m -24 13 a 1.5 2 0 1 1 -3 0 1.5 2 0 1 1 3 0 z" opacity="0.2"/></g></g><g><path d="m 24 1 c 12.703 0 23 10.297 23 23 c 0 12.703 -10.297 23 -23 23 -12.703 0 -23 -10.297 -23 -23 0 -12.703 10.297 -23 23 -23 z" fill="url(#linearGradient3764)" fill-opacity="1"/></g><g/><g><g clip-path="url(#clipPath-126487043)"><g transform="translate(0,1)"><g opacity="0.1"><!-- color: #ae2c41 --><g><path d="m 34.09 30.953 c -1.039 -0.191 -1.824 -0.977 -2 -2.01 c -0.082 -0.457 0 -0.945 0.254 -1.551 c 0.152 -0.363 0.184 -0.516 0.188 -0.879 c 0.004 -0.375 -0.02 -0.488 -0.156 -0.75 c -0.391 -0.766 -1.391 -1.262 -2.742 -1.352 c -1.18 -0.078 -2.426 0.281 -2.965 0.855 c -0.543 0.582 -0.598 1.207 -0.184 2.094 c 0.113 0.238 0.223 0.586 0.25 0.77 c 0.215 1.523 -1.031 2.82 -2.711 2.82 c -1.324 0 -2.34 -0.68 -2.699 -1.801 c -0.203 -0.637 -0.137 -1.168 0.234 -1.922 c 0.168 -0.344 0.191 -0.438 0.191 -0.855 c 0 -0.539 -0.102 -0.789 -0.484 -1.156 c -0.809 -0.781 -2.738 -1.051 -4.168 -0.578 c -1.066 0.352 -1.586 0.906 -1.641 1.746 c -0.023 0.387 -0.008 0.48 0.215 1.098 c 0.23 0.648 0.242 0.703 0.219 1.207 c -0.016 0.449 -0.047 0.582 -0.199 0.895 c -0.223 0.461 -0.563 0.824 -1.012 1.074 c -0.887 0.504 -1.953 0.406 -2.813 -0.254 c -0.527 -0.41 -0.805 -0.988 -0.855 -1.793 c -0.047 -0.785 0.152 -1.391 0.629 -1.887 c 0.457 -0.48 0.938 -0.668 1.805 -0.703 c 0.926 -0.039 1.332 -0.223 1.613 -0.727 c 0.176 -0.313 0.273 -0.777 0.273 -1.27 c 0 -0.512 -0.164 -1.656 -0.297 -2.039 c -0.168 -0.484 -0.207 -1.59 -0.078 -2.148 c 0.297 -1.289 1.27 -2.273 2.652 -2.688 c 0.602 -0.176 1.453 -0.176 2.059 0 c 0.84 0.254 1.445 0.676 2.051 1.441 c 0.18 0.23 0.539 0.621 0.789 0.875 c 0.582 0.574 0.895 0.727 1.48 0.727 c 0.465 0 0.719 -0.094 1.137 -0.422 c 0.25 -0.195 0.949 -0.945 1.348 -1.434 c 0.688 -0.848 1.996 -1.414 3.066 -1.328 c 1.094 0.09 2.063 0.563 2.742 1.352 c 0.27 0.309 0.629 1.023 0.738 1.445 c 0.109 0.43 0.094 1.598 -0.027 1.988 c -0.219 0.691 -0.281 1.18 -0.285 2.125 c -0.004 0.867 0.004 0.961 0.125 1.215 c 0.313 0.652 0.809 0.891 1.902 0.902 c 0.609 0.008 1.145 0.258 1.715 0.805 c 0.598 0.57 0.727 1.668 0.332 2.699 c -0.254 0.656 -1.094 1.285 -1.883 1.406 c -0.434 0.074 -0.461 0.074 -0.805 0.008 m -9.398 -5.102 c 0.676 -0.18 1.293 -0.699 1.609 -1.352 c 0.164 -0.336 0.176 -0.402 0.18 -0.992 c 0 -0.605 -0.008 -0.656 -0.184 -1.01 c -0.254 -0.516 -0.676 -0.934 -1.207 -1.188 c -0.426 -0.203 -0.438 -0.203 -1.117 -0.203 c -0.66 0 -0.699 0.004 -1.07 0.184 c -1.285 0.605 -1.813 2.066 -1.188 3.293 c 0.188 0.371 0.641 0.848 1 1.051 c 0.492 0.277 1.379 0.379 1.973 0.219 m 0.004 -0.004" fill="#000" stroke="none" fill-rule="nonzero" fill-opacity="1"/></g></g></g></g></g><g><g clip-path="url(#clipPath-135661562)"><!-- color: #ae2c41 --><g><path d="m 34.09 30.953 c -1.039 -0.191 -1.824 -0.977 -2 -2.01 c -0.082 -0.457 0 -0.945 0.254 -1.551 c 0.152 -0.363 0.184 -0.516 0.188 -0.879 c 0.004 -0.375 -0.02 -0.488 -0.156 -0.75 c -0.391 -0.766 -1.391 -1.262 -2.742 -1.352 c -1.18 -0.078 -2.426 0.281 -2.965 0.855 c -0.543 0.582 -0.598 1.207 -0.184 2.094 c 0.113 0.238 0.223 0.586 0.25 0.77 c 0.215 1.523 -1.031 2.82 -2.711 2.82 c -1.324 0 -2.34 -0.68 -2.699 -1.801 c -0.203 -0.637 -0.137 -1.168 0.234 -1.922 c 0.168 -0.344 0.191 -0.438 0.191 -0.855 c 0 -0.539 -0.102 -0.789 -0.484 -1.156 c -0.809 -0.781 -2.738 -1.051 -4.168 -0.578 c -1.066 0.352 -1.586 0.906 -1.641 1.746 c -0.023 0.387 -0.008 0.48 0.215 1.098 c 0.23 0.648 0.242 0.703 0.219 1.207 c -0.016 0.449 -0.047 0.582 -0.199 0.895 c -0.223 0.461 -0.563 0.824 -1.012 1.074 c -0.887 0.504 -1.953 0.406 -2.813 -0.254 c -0.527 -0.41 -0.805 -0.988 -0.855 -1.793 c -0.047 -0.785 0.152 -1.391 0.629 -1.887 c 0.457 -0.48 0.938 -0.668 1.805 -0.703 c 0.926 -0.039 1.332 -0.223 1.613 -0.727 c 0.176 -0.313 0.273 -0.777 0.273 -1.27 c 0 -0.512 -0.164 -1.656 -0.297 -2.039 c -0.168 -0.484 -0.207 -1.59 -0.078 -2.148 c 0.297 -1.289 1.27 -2.273 2.652 -2.688 c 0.602 -0.176 1.453 -0.176 2.059 0 c 0.84 0.254 1.445 0.676 2.051 1.441 c 0.18 0.23 0.539 0.621 0.789 0.875 c 0.582 0.574 0.895 0.727 1.48 0.727 c 0.465 0 0.719 -0.094 1.137 -0.422 c 0.25 -0.195 0.949 -0.945 1.348 -1.434 c 0.688 -0.848 1.996 -1.414 3.066 -1.328 c 1.094 0.09 2.063 0.563 2.742 1.352 c 0.27 0.309 0.629 1.023 0.738 1.445 c 0.109 0.43 0.094 1.598 -0.027 1.988 c -0.219 0.691 -0.281 1.18 -0.285 2.125 c -0.004 0.867 0.004 0.961 0.125 1.215 c 0.313 0.652 0.809 0.891 1.902 0.902 c 0.609 0.008 1.145 0.258 1.715 0.805 c 0.598 0.57 0.727 1.668 0.332 2.699 c -0.254 0.656 -1.094 1.285 -1.883 1.406 c -0.434 0.074 -0.461 0.074 -0.805 0.008 m -9.398 -5.102 c 0.676 -0.18 1.293 -0.699 1.609 -1.352 c 0.164 -0.336 0.176 -0.402 0.18 -0.992 c 0 -0.605 -0.008 -0.656 -0.184 -1.01 c -0.254 -0.516 -0.676 -0.934 -1.207 -1.188 c -0.426 -0.203 -0.438 -0.203 -1.117 -0.203 c -0.66 0 -0.699 0.004 -1.07 0.184 c -1.285 0.605 -1.813 2.066 -1.188 3.293 c 0.188 0.371 0.641 0.848 1 1.051 c 0.492 0.277 1.379 0.379 1.973 0.219 m 0.004 -0.004" fill="#fff" stroke="none" fill-rule="nonzero" fill-opacity="1"/></g></g></g><g><path d="m 40.03 7.531 c 3.712 4.084 5.969 9.514 5.969 15.469 0 12.703 -10.297 23 -23 23 c -5.954 0 -11.384 -2.256 -15.469 -5.969 4.178 4.291 10.01 6.969 16.469 6.969 c 12.703 0 23 -10.298 23 -23 0 -6.462 -2.677 -12.291 -6.969 -16.469 z" opacity="0.1"/></g></svg>