<?xml version="1.0" encoding="UTF-8" standalone="no"?>
<svg
   xmlns:dc="http://purl.org/dc/elements/1.1/"
   xmlns:cc="http://creativecommons.org/ns#"
   xmlns:rdf="http://www.w3.org/1999/02/22-rdf-syntax-ns#"
   xmlns:svg="http://www.w3.org/2000/svg"
   xmlns="http://www.w3.org/2000/svg"
   xmlns:xlink="http://www.w3.org/1999/xlink"
   xmlns:sodipodi="http://sodipodi.sourceforge.net/DTD/sodipodi-0.dtd"
   xmlns:inkscape="http://www.inkscape.org/namespaces/inkscape"
   viewBox="0 0 48 48"
   id="svg2"
   version="1.1"
   inkscape:version="0.91 r13725"
   sodipodi:docname="ms-people.svg">
  <metadata
     id="metadata59">
    <rdf:RDF>
      <cc:Work
         rdf:about="">
        <dc:format>image/svg+xml</dc:format>
        <dc:type
           rdf:resource="http://purl.org/dc/dcmitype/StillImage" />
      </cc:Work>
    </rdf:RDF>
  </metadata>
  <sodipodi:namedview
     pagecolor="#ffffff"
     bordercolor="#666666"
     borderopacity="1"
     objecttolerance="10"
     gridtolerance="10"
     guidetolerance="10"
     inkscape:pageopacity="0"
     inkscape:pageshadow="2"
     inkscape:window-width="750"
     inkscape:window-height="965"
     id="namedview57"
     showgrid="false"
     inkscape:zoom="9.074537"
     inkscape:cx="10.57673"
     inkscape:cy="19.807123"
     inkscape:window-x="520"
     inkscape:window-y="50"
     inkscape:window-maximized="0"
     inkscape:current-layer="svg2" />
  <defs
     id="defs4">
    <linearGradient
       inkscape:collect="always"
       id="linearGradient4198">
      <stop
         style="stop-color:#d34829;stop-opacity:1;"
         offset="0"
         id="stop4200" />
      <stop
         style="stop-color:#d85538;stop-opacity:1"
         offset="1"
         id="stop4202" />
    </linearGradient>
    <linearGradient
       id="linearGradient3764"
       x1="1"
       x2="47"
       gradientUnits="userSpaceOnUse"
       gradientTransform="matrix(0,-1,1,0,-1.5e-6,47.999998)">
      <stop
         style="stop-color:#ad897f;stop-opacity:1"
         id="stop7" />
      <stop
         offset="1"
         style="stop-color:#b5948b;stop-opacity:1"
         id="stop9" />
    </linearGradient>
    <linearGradient
       inkscape:collect="always"
       xlink:href="#linearGradient4198"
       id="linearGradient4204"
       x1="1"
       y1="24"
       x2="47"
       y2="24"
       gradientUnits="userSpaceOnUse" />
    <linearGradient
       inkscape:collect="always"
       xlink:href="#linearGradient4198"
       id="linearGradient4206"
       gradientUnits="userSpaceOnUse"
       x1="1"
       y1="24"
       x2="47"
       y2="24" />
  </defs>
  <g
     id="g11">
    <path
       d="m 36.31 5 c 5.859 4.062 9.688 10.831 9.688 18.5 c 0 12.426 -10.07 22.5 -22.5 22.5 c -7.669 0 -14.438 -3.828 -18.5 -9.688 c 1.037 1.822 2.306 3.499 3.781 4.969 c 4.085 3.712 9.514 5.969 15.469 5.969 c 12.703 0 23 -10.298 23 -23 c 0 -5.954 -2.256 -11.384 -5.969 -15.469 c -1.469 -1.475 -3.147 -2.744 -4.969 -3.781 z m 4.969 3.781 c 3.854 4.113 6.219 9.637 6.219 15.719 c 0 12.703 -10.297 23 -23 23 c -6.081 0 -11.606 -2.364 -15.719 -6.219 c 4.16 4.144 9.883 6.719 16.219 6.719 c 12.703 0 23 -10.298 23 -23 c 0 -6.335 -2.575 -12.06 -6.719 -16.219 z"
       style="opacity:0.05"
       id="path13" />
    <path
       d="m 41.28 8.781 c 3.712 4.085 5.969 9.514 5.969 15.469 c 0 12.703 -10.297 23 -23 23 c -5.954 0 -11.384 -2.256 -15.469 -5.969 c 4.113 3.854 9.637 6.219 15.719 6.219 c 12.703 0 23 -10.298 23 -23 c 0 -6.081 -2.364 -11.606 -6.219 -15.719 z"
       style="opacity:0.1"
       id="path15" />
    <path
       d="m 31.25 2.375 c 8.615 3.154 14.75 11.417 14.75 21.13 c 0 12.426 -10.07 22.5 -22.5 22.5 c -9.708 0 -17.971 -6.135 -21.12 -14.75 a 23 23 0 0 0 44.875 -7 a 23 23 0 0 0 -16 -21.875 z"
       style="opacity:0.2"
       id="path17" />
  </g>
  <g
     id="g19"
     style="fill:url(#linearGradient4204);fill-opacity:1"
     transform="matrix(0,-1,1,0,0,48)">
    <path
       d="M 24,1 C 36.703,1 47,11.297 47,24 47,36.703 36.703,47 24,47 11.297,47 1,36.703 1,24 1,11.297 11.297,1 24,1 Z"
       style="fill:url(#linearGradient4206);fill-opacity:1"
       id="path21"
       inkscape:connector-curvature="0" />
  </g>
  <g
     id="g23">
    <path
       d="m 40.03 7.531 c 3.712 4.084 5.969 9.514 5.969 15.469 0 12.703 -10.297 23 -23 23 c -5.954 0 -11.384 -2.256 -15.469 -5.969 4.178 4.291 10.01 6.969 16.469 6.969 c 12.703 0 23 -10.298 23 -23 0 -6.462 -2.677 -12.291 -6.969 -16.469 z"
       style="opacity:0.1"
       id="path25" />
  </g>
  <g
     id="g29"
     style="opacity:0.1"
     transform="matrix(3.543307,0,0,3.543307,0.99881879,0.9999996)">
    <path
       inkscape:connector-curvature="0"
       id="path31"
       style="fill:#000000;fill-opacity:1;stroke:none"
       transform="matrix(0.28222223,0,0,0.28222223,-0.2822222,-0.28222215)"
       d="m 18.543,13 c -1.777,0 -3.226,1.299 -3.488,3 l -1.523,0 c -0.294,0 -0.531,0.237 -0.531,0.531 l 0,0.938 c 0,0.294 0.237,0.531 0.531,0.531 l 1.469,0 0,2 -1.469,0 c -0.294,0 -0.531,0.237 -0.531,0.531 l 0,0.938 c 0,0.294 0.237,0.531 0.531,0.531 l 1.469,0 0,2 -1.469,0 c -0.294,0 -0.531,0.237 -0.531,0.531 l 0,0.938 c 0,0.294 0.237,0.531 0.531,0.531 l 1.469,0 0,2 -1.469,0 c -0.294,0 -0.531,0.237 -0.531,0.531 l 0,0.938 c 0,0.294 0.237,0.531 0.531,0.531 l 1.469,0 0,2 -1.469,0 c -0.294,0 -0.531,0.237 -0.531,0.531 l 0,0.938 c 0,0.294 0.237,0.531 0.531,0.531 l 1.523,0 c 0.262,1.701 1.712,3 3.488,3 l 12.914,0 c 1.777,0 3.226,-1.299 3.488,-3 l 1.168,0 C 36.604,34 37,33.604 37,33.113 l 0,-2.227 c 0,-0.491 -0.396,-0.887 -0.887,-0.887 l -1.113,0 0,-3 1.113,0 c 0.491,0 0.887,-0.396 0.887,-0.887 l 0,-2.227 c 0,-0.491 -0.396,-0.887 -0.887,-0.887 l -1.113,0 0,-3 1.113,0 c 0.491,0 0.887,-0.396 0.887,-0.887 l 0,-2.227 c 0,-0.491 -0.396,-0.887 -0.887,-0.887 l -1.168,0 c -0.262,-1.701 -1.712,-3 -3.488,-3 l -12.914,0 z" />
  </g>
  <rect
     rx="0.88582677"
     y="28.998425"
     x="32.997635"
     height="4.0003934"
     width="3.0011811"
     style="fill:#45485b;fill-opacity:1;stroke:none"
     id="rect35" />
  <rect
     width="3.0011811"
     height="4.0003934"
     x="32.997635"
     y="22.000393"
     rx="0.88582677"
     style="fill:#faa596;fill-opacity:1;stroke:none"
     id="rect37" />
  <rect
     rx="0.88582677"
     y="14.998817"
     x="32.997635"
     height="4.0003934"
     width="3.0011811"
     style="fill:#ffca08;fill-opacity:1;stroke:none"
     id="rect39" />
  <rect
     rx="3.5433071"
     y="12.001181"
     x="13.998425"
     height="23.998817"
     width="19.998425"
     style="fill:#f9f9f9;fill-opacity:1;stroke:none"
     id="rect41" />
  <path
     d="m 17.531102,12.001181 c -1.962992,0 -3.532677,1.569685 -3.532677,3.532677 l 0,16.937007 c 0,1.962992 1.569685,3.532677 3.532677,3.532677 l 0.467716,0 0,-23.998818 z"
     style="fill:#c5c5c5;fill-opacity:1;stroke:none"
     id="path43"
     inkscape:connector-curvature="0" />
  <rect
     width="4.0003934"
     height="1.9984251"
     x="12"
     y="18.999212"
     rx="0.53149605"
     style="fill:#50372e;fill-opacity:1;stroke:none"
     id="rect45" />
  <rect
     rx="0.53149605"
     y="22.999607"
     x="12"
     height="1.9984251"
     width="4.0003934"
     style="fill:#50372e;fill-opacity:1;stroke:none"
     id="rect47" />
  <rect
     width="4.0003934"
     height="1.9984251"
     x="12"
     y="26.999998"
     rx="0.53149605"
     style="fill:#50372e;fill-opacity:1;stroke:none"
     id="rect49" />
  <rect
     rx="0.53149605"
     y="31.000391"
     x="12"
     height="1.9984251"
     width="4.0003934"
     style="fill:#50372e;fill-opacity:1;stroke:none"
     id="rect51" />
  <rect
     rx="0.53149605"
     y="14.998817"
     x="12"
     height="1.9984251"
     width="4.0003934"
     style="fill:#50372e;fill-opacity:1;stroke:none"
     id="rect53" />
  <path
     d="m 24.160629,30.989763 c -1.459842,-0.06024 -2.448425,-0.170079 -3.210236,-0.361417 -0.875197,-0.219685 -1.498819,-0.549213 -1.753937,-0.93189 -0.177165,-0.265748 -0.209055,-0.400394 -0.194882,-0.9 0.01063,-0.421654 0.01063,-0.425197 0.109843,-0.630709 0.244488,-0.506693 0.701575,-0.938976 1.541338,-1.459842 0.414567,-0.258662 1.272048,-0.676772 1.881496,-0.917717 0.605906,-0.240945 0.744095,-0.336614 0.875197,-0.620078 0.06732,-0.141733 0.0815,-0.209056 0.0815,-0.382678 0,-0.333071 -0.06024,-0.503149 -0.265748,-0.729921 -0.864567,-0.967323 -1.420866,-2.402362 -1.420866,-3.674409 0,-1.406693 0.609449,-2.505118 1.679528,-3.033071 0.453543,-0.223228 0.850393,-0.318898 1.396063,-0.340158 1.498819,-0.05669 2.735433,0.772441 3.157086,2.125985 0.223229,0.712204 0.226772,1.665354 0.01417,2.505118 -0.209055,0.81496 -0.676771,1.743307 -1.158661,2.292519 -0.251575,0.287008 -0.276378,0.329528 -0.329528,0.574016 -0.06024,0.294095 -0.04606,0.588189 0.04252,0.775984 0.09921,0.209055 0.226772,0.301181 0.605906,0.435827 1.980708,0.708661 3.376771,1.647638 3.724015,2.501575 0.06024,0.145275 0.06378,0.201968 0.06378,0.648425 0,0.474803 0,0.49252 -0.07795,0.651969 -0.318898,0.680314 -1.325197,1.116141 -3.08622,1.33937 -0.775985,0.09921 -2.770866,0.173622 -3.67441,0.138189 z"
     style="fill:#6a6e84;fill-opacity:1"
     id="path55"
     inkscape:connector-curvature="0" />
</svg>
