<svg viewBox="0 0 48 48"><defs><linearGradient id="linearGradient3764" x1="1" x2="47" gradientUnits="userSpaceOnUse" gradientTransform="matrix(0,-1,1,0,-1.5e-6,47.999998)"><stop stop-color="#d3c1c5" stop-opacity="1"/><stop offset="1" stop-color="#dbcdd0" stop-opacity="1"/></linearGradient><clipPath id="clipPath-888080179"><g transform="translate(0,-1004.3622)"><path d="m -24 13 c 0 1.105 -0.672 2 -1.5 2 -0.828 0 -1.5 -0.895 -1.5 -2 0 -1.105 0.672 -2 1.5 -2 0.828 0 1.5 0.895 1.5 2 z" transform="matrix(15.333333,0,0,11.5,414.99999,878.8622)" fill="#1890d0"/></g></clipPath><clipPath id="clipPath-899682928"><g transform="translate(0,-1004.3622)"><path d="m -24 13 c 0 1.105 -0.672 2 -1.5 2 -0.828 0 -1.5 -0.895 -1.5 -2 0 -1.105 0.672 -2 1.5 -2 0.828 0 1.5 0.895 1.5 2 z" transform="matrix(15.333333,0,0,11.5,414.99999,878.8622)" fill="#1890d0"/></g></clipPath></defs><g><path d="m 36.31 5 c 5.859 4.062 9.688 10.831 9.688 18.5 c 0 12.426 -10.07 22.5 -22.5 22.5 c -7.669 0 -14.438 -3.828 -18.5 -9.688 c 1.037 1.822 2.306 3.499 3.781 4.969 c 4.085 3.712 9.514 5.969 15.469 5.969 c 12.703 0 23 -10.298 23 -23 c 0 -5.954 -2.256 -11.384 -5.969 -15.469 c -1.469 -1.475 -3.147 -2.744 -4.969 -3.781 z m 4.969 3.781 c 3.854 4.113 6.219 9.637 6.219 15.719 c 0 12.703 -10.297 23 -23 23 c -6.081 0 -11.606 -2.364 -15.719 -6.219 c 4.16 4.144 9.883 6.719 16.219 6.719 c 12.703 0 23 -10.298 23 -23 c 0 -6.335 -2.575 -12.06 -6.719 -16.219 z" opacity="0.05"/><path d="m 41.28 8.781 c 3.712 4.085 5.969 9.514 5.969 15.469 c 0 12.703 -10.297 23 -23 23 c -5.954 0 -11.384 -2.256 -15.469 -5.969 c 4.113 3.854 9.637 6.219 15.719 6.219 c 12.703 0 23 -10.298 23 -23 c 0 -6.081 -2.364 -11.606 -6.219 -15.719 z" opacity="0.1"/><path d="m 31.25 2.375 c 8.615 3.154 14.75 11.417 14.75 21.13 c 0 12.426 -10.07 22.5 -22.5 22.5 c -9.708 0 -17.971 -6.135 -21.12 -14.75 a 23 23 0 0 0 44.875 -7 a 23 23 0 0 0 -16 -21.875 z" opacity="0.2"/></g><g><path d="m 24 1 c 12.703 0 23 10.297 23 23 c 0 12.703 -10.297 23 -23 23 -12.703 0 -23 -10.297 -23 -23 0 -12.703 10.297 -23 23 -23 z" fill="url(#linearGradient3764)" fill-opacity="1"/></g><g/><g><g clip-path="url(#clipPath-888080179)"><g transform="translate(1,1)"><g opacity="0.1"><!-- color: #dbcdd0 --><g><path d="m 20.13 11.01 c -2.125 -0.047 -4.281 0.477 -4.816 2.473 c -0.121 0.484 -0.309 1.484 -0.316 1.949 c 0 1.727 0 3.703 0 5.43 c 0.727 0 1.281 0 1.996 0 c 0.016 -1.82 -0.02 -3.602 0 -5.43 c 0.07 -1.156 1.691 -2.449 3 -2.441 c 0.016 1.852 -0.027 3.73 0 5.574 c 0.113 1.5 0.996 2.426 2.863 2.426 c 0.992 -0.02 1.996 0 2.984 0 c 1.508 -0.266 2.152 -1.523 2.152 -3 c 0 -1.648 0 -3.348 0 -5 c 1.371 -0.094 2.941 1.207 3 2.41 c 0.023 1.824 -0.008 3.578 0 5.387 c 0.719 0 1.281 0.074 2 0.074 c 0 -1.832 0 -3.633 0 -5.465 c -0.07 -0.59 -0.273 -1.348 -0.613 -1.922 c -0.883 -1.691 -2.945 -2.605 -4.891 -2.465 c -0.566 -0.066 -1.344 0.293 -1.5 0.805 c 0.012 2.176 0.02 4.406 0 6.582 c -0.063 0.91 -0.715 1.594 -1.996 1.594 c -1.227 0 -1.238 -0.145 -1.695 -0.688 c -0.305 -0.609 -0.27 -1.543 -0.305 -2.316 c 0 -1.766 -0.016 -3.426 0 -5.184 c -0.602 -0.668 -1.125 -0.754 -1.867 -0.801 m 0 0.008" fill="#000" stroke="none" fill-rule="evenodd" fill-opacity="1"/><path d="m 32.609 33.13 c -0.063 0 -0.289 -0.043 -0.34 -0.012 c 0 0 -0.559 0.672 -0.867 0.887 c -0.27 0.191 -0.52 0.734 -0.906 0.93 c -0.148 0.074 -0.223 0.07 -0.496 0.07 l -3.422 0 l 0.027 1 l 2.969 0 c 0.066 0 0.273 0.02 0.41 -0.012 c 0.359 -0.078 0.605 -0.207 1.02 -0.438 c 0.438 -0.266 1.82 -1.832 1.82 -1.832 c 0.145 -0.09 0.184 -0.27 0.09 -0.402 l -0.043 -0.059 c -0.059 -0.086 -0.156 -0.129 -0.258 -0.133 m -0.004 0" fill="#000" stroke="none" fill-rule="evenodd" fill-opacity="1"/><path d="m 31.848 20.527 l 0 13.793 c 2.883 -0.297 5.152 -3.27 5.152 -6.895 c 0 -3.625 -2.27 -6.598 -5.152 -6.895 m 0 -0.004" fill="#000" stroke="none" fill-rule="evenodd" fill-opacity="1"/><path d="m 16.15 20.598 l 0 13.793 c -2.887 -0.297 -5.152 -3.27 -5.152 -6.895 c 0 -3.625 2.273 -6.598 5.152 -6.895 m 0 -0.004" fill="#000" stroke="none" fill-rule="evenodd" fill-opacity="1"/><path d="m 27 35.5 c 0 0.828 -1.121 1.5 -2.5 1.5 c -1.383 0 -2.5 -0.672 -2.5 -1.5 c 0 -0.828 1.117 -1.5 2.5 -1.5 c 1.379 0 2.5 0.672 2.5 1.5 m 0 0" fill="#000" stroke="none" fill-rule="evenodd" fill-opacity="1"/><path d="m 31.363 20.305 l 0.773 0 c 0.199 0 0.363 0.129 0.363 0.285 l 0 13.43 c 0 0.16 -0.164 0.285 -0.363 0.285 l -0.773 0 c -0.199 0 -0.363 -0.125 -0.363 -0.285 l 0 -13.43 c 0 -0.156 0.164 -0.285 0.363 -0.285 m 0 0" fill="#000" stroke="none" fill-rule="evenodd" fill-opacity="1"/><path d="m 15.824 20.285 l 0.848 0 c 0.18 0 0.324 0.129 0.324 0.289 l 0 13.523 c 0 0.156 -0.145 0.285 -0.324 0.285 l -0.848 0 c -0.18 0 -0.324 -0.129 -0.324 -0.285 l 0 -13.523 c 0 -0.16 0.145 -0.289 0.324 -0.289 m 0 0" fill="#000" stroke="none" fill-rule="evenodd" fill-opacity="1"/></g></g></g></g></g><g><g clip-path="url(#clipPath-899682928)"><!-- color: #dbcdd0 --><g><path d="m 20.13 11.01 c -2.125 -0.047 -4.281 0.477 -4.816 2.473 c -0.121 0.484 -0.309 1.484 -0.316 1.949 c 0 1.727 0 3.703 0 5.43 c 0.727 0 1.281 0 1.996 0 c 0.016 -1.82 -0.02 -3.602 0 -5.43 c 0.07 -1.156 1.691 -2.449 3 -2.441 c 0.016 1.852 -0.027 3.73 0 5.574 c 0.113 1.5 0.996 2.426 2.863 2.426 c 0.992 -0.02 1.996 0 2.984 0 c 1.508 -0.266 2.152 -1.523 2.152 -3 c 0 -1.648 0 -3.348 0 -5 c 1.371 -0.094 2.941 1.207 3 2.41 c 0.023 1.824 -0.008 3.578 0 5.387 c 0.719 0 1.281 0.074 2 0.074 c 0 -1.832 0 -3.633 0 -5.465 c -0.07 -0.59 -0.273 -1.348 -0.613 -1.922 c -0.883 -1.691 -2.945 -2.605 -4.891 -2.465 c -0.566 -0.066 -1.344 0.293 -1.5 0.805 c 0.012 2.176 0.02 4.406 0 6.582 c -0.063 0.91 -0.715 1.594 -1.996 1.594 c -1.227 0 -1.238 -0.145 -1.695 -0.688 c -0.305 -0.609 -0.27 -1.543 -0.305 -2.316 c 0 -1.766 -0.016 -3.426 0 -5.184 c -0.602 -0.668 -1.125 -0.754 -1.867 -0.801 m 0 0.008" fill="#2d2d2d" stroke="none" fill-rule="evenodd" fill-opacity="1"/><path d="m 32.609 33.13 c -0.063 0 -0.289 -0.043 -0.34 -0.012 c 0 0 -0.559 0.672 -0.867 0.887 c -0.27 0.191 -0.52 0.734 -0.906 0.93 c -0.148 0.074 -0.223 0.07 -0.496 0.07 l -3.422 0 l 0.027 1 l 2.969 0 c 0.066 0 0.273 0.02 0.41 -0.012 c 0.359 -0.078 0.605 -0.207 1.02 -0.438 c 0.438 -0.266 1.82 -1.832 1.82 -1.832 c 0.145 -0.09 0.184 -0.27 0.09 -0.402 l -0.043 -0.059 c -0.059 -0.086 -0.156 -0.129 -0.258 -0.133 m -0.004 0" fill="#2d2d2d" stroke="none" fill-rule="evenodd" fill-opacity="1"/><path d="m 31.848 20.527 l 0 13.793 c 2.883 -0.297 5.152 -3.27 5.152 -6.895 c 0 -3.625 -2.27 -6.598 -5.152 -6.895 m 0 -0.004" fill="#2d2d2d" stroke="none" fill-rule="evenodd" fill-opacity="1"/><path d="m 16.15 20.598 l 0 13.793 c -2.887 -0.297 -5.152 -3.27 -5.152 -6.895 c 0 -3.625 2.273 -6.598 5.152 -6.895 m 0 -0.004" fill="#2d2d2d" stroke="none" fill-rule="evenodd" fill-opacity="1"/><path d="m 27 35.5 c 0 0.828 -1.121 1.5 -2.5 1.5 c -1.383 0 -2.5 -0.672 -2.5 -1.5 c 0 -0.828 1.117 -1.5 2.5 -1.5 c 1.379 0 2.5 0.672 2.5 1.5 m 0 0" fill="#2d2d2d" stroke="none" fill-rule="evenodd" fill-opacity="1"/><path d="m 31.363 20.305 l 0.773 0 c 0.199 0 0.363 0.129 0.363 0.285 l 0 13.43 c 0 0.16 -0.164 0.285 -0.363 0.285 l -0.773 0 c -0.199 0 -0.363 -0.125 -0.363 -0.285 l 0 -13.43 c 0 -0.156 0.164 -0.285 0.363 -0.285 m 0 0" fill="#2d2d2d" stroke="none" fill-rule="evenodd" fill-opacity="1"/><path d="m 15.824 20.285 l 0.848 0 c 0.18 0 0.324 0.129 0.324 0.289 l 0 13.523 c 0 0.156 -0.145 0.285 -0.324 0.285 l -0.848 0 c -0.18 0 -0.324 -0.129 -0.324 -0.285 l 0 -13.523 c 0 -0.16 0.145 -0.289 0.324 -0.289 m 0 0" fill="#2d2d2d" stroke="none" fill-rule="evenodd" fill-opacity="1"/></g></g></g><g><path d="m 40.03 7.531 c 3.712 4.084 5.969 9.514 5.969 15.469 0 12.703 -10.297 23 -23 23 c -5.954 0 -11.384 -2.256 -15.469 -5.969 4.178 4.291 10.01 6.969 16.469 6.969 c 12.703 0 23 -10.298 23 -23 0 -6.462 -2.677 -12.291 -6.969 -16.469 z" opacity="0.1"/></g></svg>