<?xml version="1.0" encoding="UTF-8" standalone="no"?>
<svg
   xmlns:dc="http://purl.org/dc/elements/1.1/"
   xmlns:cc="http://creativecommons.org/ns#"
   xmlns:rdf="http://www.w3.org/1999/02/22-rdf-syntax-ns#"
   xmlns:svg="http://www.w3.org/2000/svg"
   xmlns="http://www.w3.org/2000/svg"
   xmlns:xlink="http://www.w3.org/1999/xlink"
   xmlns:sodipodi="http://sodipodi.sourceforge.net/DTD/sodipodi-0.dtd"
   xmlns:inkscape="http://www.inkscape.org/namespaces/inkscape"
   viewBox="0 0 48 48"
   id="svg2"
   version="1.1"
   inkscape:version="0.48.5 r10040"
   width="100%"
   height="100%"
   sodipodi:docname="nootka.svg"
   inkscape:export-filename="/home/ismael/Imágenes/icons.png"
   inkscape:export-xdpi="245"
   inkscape:export-ydpi="245">
  <metadata
     id="metadata61">
    <rdf:RDF>
      <cc:Work
         rdf:about="">
        <dc:format>image/svg+xml</dc:format>
        <dc:type
           rdf:resource="http://purl.org/dc/dcmitype/StillImage" />
        <dc:title />
      </cc:Work>
    </rdf:RDF>
  </metadata>
  <sodipodi:namedview
     pagecolor="#ffffff"
     bordercolor="#666666"
     borderopacity="1"
     objecttolerance="10"
     gridtolerance="10"
     guidetolerance="10"
     inkscape:pageopacity="0"
     inkscape:pageshadow="2"
     inkscape:window-width="1366"
     inkscape:window-height="737"
     id="namedview59"
     showgrid="false"
     inkscape:snap-bbox="true"
     inkscape:object-paths="true"
     inkscape:snap-intersection-paths="true"
     inkscape:object-nodes="false"
     inkscape:snap-smooth-nodes="false"
     inkscape:snap-midpoints="false"
     inkscape:snap-grids="true"
     inkscape:zoom="12.021277"
     inkscape:cx="24.499"
     inkscape:cy="23.5"
     inkscape:window-x="0"
     inkscape:window-y="0"
     inkscape:window-maximized="1"
     inkscape:current-layer="svg2">
    <inkscape:grid
       type="xygrid"
       id="grid3038" />
  </sodipodi:namedview>
  <defs
     id="defs4">
    <linearGradient
       id="linearGradient3041">
      <stop
         style="stop-color:#cd8823;stop-opacity:1;"
         offset="0"
         id="stop3043" />
      <stop
         style="stop-color:#6d3e1f;stop-opacity:1;"
         offset="1"
         id="stop3045" />
    </linearGradient>
    <linearGradient
       id="linearGradient3016">
      <stop
         style="stop-color:#5a5a5a;stop-opacity:1;"
         offset="0"
         id="stop3018" />
      <stop
         style="stop-color:#505050;stop-opacity:1;"
         offset="1"
         id="stop3020" />
    </linearGradient>
    <linearGradient
       id="linearGradient3040">
      <stop
         style="stop-color:#fffccd;stop-opacity:1;"
         offset="0"
         id="stop3042" />
      <stop
         style="stop-color:#fffbb9;stop-opacity:1;"
         offset="1"
         id="stop3044" />
    </linearGradient>
    <linearGradient
       id="linearGradient3764"
       x1="1"
       x2="47"
       gradientUnits="userSpaceOnUse"
       gradientTransform="matrix(0,-1,1,0,-1.5e-6,47.999998)">
      <stop
         stop-color="#333"
         stop-opacity="1"
         id="stop7" />
      <stop
         offset="1"
         stop-color="#3d3d3d"
         stop-opacity="1"
         id="stop9" />
    </linearGradient>
    <clipPath
       id="clipPath-799970715">
      <g
         transform="translate(0,-1004.3622)"
         id="g12">
        <path
           d="m -24 13 c 0 1.105 -0.672 2 -1.5 2 -0.828 0 -1.5 -0.895 -1.5 -2 0 -1.105 0.672 -2 1.5 -2 0.828 0 1.5 0.895 1.5 2 z"
           transform="matrix(15.333333,0,0,11.5,414.99999,878.8622)"
           fill="#1890d0"
           id="path14" />
      </g>
    </clipPath>
    <clipPath
       id="clipPath-808101755">
      <g
         transform="translate(0,-1004.3622)"
         id="g17">
        <path
           d="m -24 13 c 0 1.105 -0.672 2 -1.5 2 -0.828 0 -1.5 -0.895 -1.5 -2 0 -1.105 0.672 -2 1.5 -2 0.828 0 1.5 0.895 1.5 2 z"
           transform="matrix(15.333333,0,0,11.5,414.99999,878.8622)"
           fill="#1890d0"
           id="path19" />
      </g>
    </clipPath>
    <linearGradient
       inkscape:collect="always"
       xlink:href="#linearGradient3016"
       id="linearGradient3022"
       x1="24"
       y1="1"
       x2="23.9995"
       y2="47"
       gradientUnits="userSpaceOnUse" />
  </defs>
  <g
     id="g21">
    <path
       d="m 36.31 5 c 5.859 4.062 9.688 10.831 9.688 18.5 c 0 12.426 -10.07 22.5 -22.5 22.5 c -7.669 0 -14.438 -3.828 -18.5 -9.688 c 1.037 1.822 2.306 3.499 3.781 4.969 c 4.085 3.712 9.514 5.969 15.469 5.969 c 12.703 0 23 -10.298 23 -23 c 0 -5.954 -2.256 -11.384 -5.969 -15.469 c -1.469 -1.475 -3.147 -2.744 -4.969 -3.781 z m 4.969 3.781 c 3.854 4.113 6.219 9.637 6.219 15.719 c 0 12.703 -10.297 23 -23 23 c -6.081 0 -11.606 -2.364 -15.719 -6.219 c 4.16 4.144 9.883 6.719 16.219 6.719 c 12.703 0 23 -10.298 23 -23 c 0 -6.335 -2.575 -12.06 -6.719 -16.219 z"
       opacity="0.05"
       id="path23" />
    <path
       d="m 41.28 8.781 c 3.712 4.085 5.969 9.514 5.969 15.469 c 0 12.703 -10.297 23 -23 23 c -5.954 0 -11.384 -2.256 -15.469 -5.969 c 4.113 3.854 9.637 6.219 15.719 6.219 c 12.703 0 23 -10.298 23 -23 c 0 -6.081 -2.364 -11.606 -6.219 -15.719 z"
       opacity="0.1"
       id="path25" />
    <path
       d="m 31.25 2.375 c 8.615 3.154 14.75 11.417 14.75 21.13 c 0 12.426 -10.07 22.5 -22.5 22.5 c -9.708 0 -17.971 -6.135 -21.12 -14.75 a 23 23 0 0 0 44.875 -7 a 23 23 0 0 0 -16 -21.875 z"
       opacity="0.2"
       id="path27" />
  </g>
  <g
     id="g29"
     style="fill:#4d4d4d">
    <path
       d="m 24 1 c 12.703 0 23 10.297 23 23 c 0 12.703 -10.297 23 -23 23 -12.703 0 -23 -10.297 -23 -23 0 -12.703 10.297 -23 23 -23 z"
       fill="url(#linearGradient3764)"
       fill-opacity="1"
       id="path31"
       style="fill:url(#linearGradient3022);fill-opacity:1" />
  </g>
  <g
     id="g33" />
  <g
     id="g3058"
     style="fill:#808080">
    <path
       sodipodi:nodetypes="ccccc"
       inkscape:connector-curvature="0"
       id="path3048"
       d="m 1,23 45.979086,0 0.03137,1.0002 L 1,24 z"
       style="fill:#808080;stroke:none" />
    <path
       sodipodi:nodetypes="ccccc"
       style="fill:#808080;stroke:none"
       d="M 1.3670221,20 46.64446,20 46.80907,21 1.1948071,21 z"
       id="path3050"
       inkscape:connector-curvature="0" />
    <path
       sodipodi:nodetypes="ccccc"
       inkscape:connector-curvature="0"
       id="path3052"
       d="m 1.1072738,26 45.7854522,0 -0.0732,1 -45.6234555,0.01693 z"
       style="fill:#808080;stroke:none" />
    <path
       sodipodi:nodetypes="ccccc"
       style="fill:#808080;stroke:none"
       d="m 2.1359417,17 43.7699453,0 0.307131,1 -44.3907879,0 z"
       id="path3054"
       inkscape:connector-curvature="0" />
    <path
       sodipodi:nodetypes="ccccc"
       inkscape:connector-curvature="0"
       id="path3056"
       d="M 1.567384,29 46.458281,28.980535 46.205488,30.011247 1.8183532,30 z"
       style="fill:#808080;stroke:none" />
  </g>
  <g
     id="g55">
    <path
       d="m 40.03 7.531 c 3.712 4.084 5.969 9.514 5.969 15.469 0 12.703 -10.297 23 -23 23 c -5.954 0 -11.384 -2.256 -15.469 -5.969 4.178 4.291 10.01 6.969 16.469 6.969 c 12.703 0 23 -10.298 23 -23 0 -6.462 -2.677 -12.291 -6.969 -16.469 z"
       opacity="0.1"
       id="path57" />
  </g>
  <g
     style="opacity:0.1;fill:#000000"
     id="g3139"
     transform="translate(1,1)">
    <path
       style="fill:#000000;fill-opacity:1;fill-rule:nonzero;stroke:none"
       d="m 21,20.552868 c -0.871042,0.347499 -1.748333,1.051174 -2,1.926284 -0.366865,1.275681 1.149967,2.536761 1,3.852569 -0.162662,1.427194 -2,0.963142 -2,3.852568 C 18,33.073716 20.410149,35 24,35 c 3.589851,0 6,-1.926284 6,-4.815711 0,-2.889426 -1.837338,-2.425374 -2,-3.852568 -0.149967,-1.315808 1.366865,-2.576888 1,-3.852569 -0.251667,-0.87511 -1.128958,-1.578785 -2,-1.926284 -1.847759,-0.737157 -4.152241,-0.737157 -6,0 z"
       id="path3141"
       inkscape:connector-curvature="0"
       sodipodi:nodetypes="aaazszaaaa" />
    <path
       style="fill:#000000;stroke:none"
       d="m 23,9 0,3 0,12 0,0.28125 C 23.294544,24.110493 23.635035,24 24,24 c 0.364965,0 0.705456,0.110493 1,0.28125 L 25,12 25,9 23,9 z"
       id="path3143"
       inkscape:connector-curvature="0" />
    <g
       id="g3145"
       style="fill:#000000"
       transform="translate(46,1)">
      <path
         style="fill:#000000;fill-opacity:1;fill-rule:nonzero;stroke:none"
         d="m -23.5,8 0.5,0 0,0.5 -0.5,0 z"
         id="path3147"
         inkscape:connector-curvature="0" />
      <path
         style="fill:#000000;fill-opacity:1;fill-rule:nonzero;stroke:none"
         d="m -23.5,9 0.5,0 0,0.5 -0.5,0 z"
         id="path3149"
         inkscape:connector-curvature="0" />
      <path
         style="fill:#000000;fill-opacity:1;fill-rule:nonzero;stroke:none"
         d="m -23.5,10 0.5,0 0,0.5 -0.5,0 z"
         id="path3151"
         inkscape:connector-curvature="0" />
      <path
         style="fill:#000000;fill-opacity:1;fill-rule:nonzero;stroke:none"
         d="m -21,8 0.5,0 0,0.5 -0.5,0 z"
         id="path3153"
         inkscape:connector-curvature="0" />
      <path
         style="fill:#000000;fill-opacity:1;fill-rule:nonzero;stroke:none"
         d="m -21,9 0.5,0 0,0.5 -0.5,0 z"
         id="path3155"
         inkscape:connector-curvature="0" />
      <path
         style="fill:#000000;fill-opacity:1;fill-rule:nonzero;stroke:none"
         d="m -21,10 0.5,0 0,0.5 -0.5,0 z"
         id="path3157"
         inkscape:connector-curvature="0" />
    </g>
  </g>
  <g
     id="g3128"
     style="fill:#e3dedb">
    <path
       sodipodi:nodetypes="aaazszaaaa"
       inkscape:connector-curvature="0"
       id="path3026"
       d="m 21,20.552868 c -0.871042,0.347499 -1.748333,1.051174 -2,1.926284 -0.366865,1.275681 1.149967,2.536761 1,3.852569 -0.162662,1.427194 -2,0.963142 -2,3.852568 C 18,33.073716 20.410149,35 24,35 c 3.589851,0 6,-1.926284 6,-4.815711 0,-2.889426 -1.837338,-2.425374 -2,-3.852568 -0.149967,-1.315808 1.366865,-2.576888 1,-3.852569 -0.251667,-0.87511 -1.128958,-1.578785 -2,-1.926284 -1.847759,-0.737157 -4.152241,-0.737157 -6,0 z"
       style="fill:#e3dedb;fill-opacity:1;fill-rule:nonzero;stroke:none" />
    <path
       id="path3033"
       d="M 23 9 L 23 12 L 23 24 L 23 24.28125 C 23.294544 24.110493 23.635035 24 24 24 C 24.364965 24 24.705456 24.110493 25 24.28125 L 25 12 L 25 9 L 23 9 z "
       style="fill:#e3dedb;stroke:none" />
    <g
       transform="translate(46,1)"
       style="fill:#e3dedb"
       id="g3067">
      <path
         id="rect3055"
         d="m -23.5,8 0.5,0 0,0.5 -0.5,0 z"
         style="fill:#e3dedb;fill-opacity:1;fill-rule:nonzero;stroke:none" />
      <path
         id="rect3057"
         d="m -23.5,9 0.5,0 0,0.5 -0.5,0 z"
         style="fill:#e3dedb;fill-opacity:1;fill-rule:nonzero;stroke:none" />
      <path
         id="rect3059"
         d="m -23.5,10 0.5,0 0,0.5 -0.5,0 z"
         style="fill:#e3dedb;fill-opacity:1;fill-rule:nonzero;stroke:none" />
      <path
         id="rect3061"
         d="m -21,8 0.5,0 0,0.5 -0.5,0 z"
         style="fill:#e3dedb;fill-opacity:1;fill-rule:nonzero;stroke:none" />
      <path
         id="rect3063"
         d="m -21,9 0.5,0 0,0.5 -0.5,0 z"
         style="fill:#e3dedb;fill-opacity:1;fill-rule:nonzero;stroke:none" />
      <path
         id="rect3065"
         d="m -21,10 0.5,0 0,0.5 -0.5,0 z"
         style="fill:#e3dedb;fill-opacity:1;fill-rule:nonzero;stroke:none" />
    </g>
  </g>
</svg>
