<?xml version="1.0" encoding="UTF-8" standalone="no"?>
<svg
   xmlns:dc="http://purl.org/dc/elements/1.1/"
   xmlns:cc="http://creativecommons.org/ns#"
   xmlns:rdf="http://www.w3.org/1999/02/22-rdf-syntax-ns#"
   xmlns:svg="http://www.w3.org/2000/svg"
   xmlns="http://www.w3.org/2000/svg"
   xmlns:xlink="http://www.w3.org/1999/xlink"
   xmlns:sodipodi="http://sodipodi.sourceforge.net/DTD/sodipodi-0.dtd"
   xmlns:inkscape="http://www.inkscape.org/namespaces/inkscape"
   viewBox="0 0 48 48"
   id="svg2"
   version="1.1"
   inkscape:version="0.48.4 r9939"
   width="100%"
   height="100%"
   sodipodi:docname="nvidia.svg">
  <metadata
     id="metadata63">
    <rdf:RDF>
      <cc:Work
         rdf:about="">
        <dc:format>image/svg+xml</dc:format>
        <dc:type
           rdf:resource="http://purl.org/dc/dcmitype/StillImage" />
      </cc:Work>
    </rdf:RDF>
  </metadata>
  <sodipodi:namedview
     pagecolor="#ffffff"
     bordercolor="#666666"
     borderopacity="1"
     objecttolerance="10"
     gridtolerance="10"
     guidetolerance="10"
     inkscape:pageopacity="0"
     inkscape:pageshadow="2"
     inkscape:window-width="640"
     inkscape:window-height="480"
     id="namedview61"
     showgrid="false"
     inkscape:zoom="4.9166667"
     inkscape:cx="24"
     inkscape:cy="22.372881"
     inkscape:window-x="0"
     inkscape:window-y="0"
     inkscape:window-maximized="0"
     inkscape:current-layer="svg2" />
  <defs
     id="defs4">
    <linearGradient
       id="linearGradient3764"
       x1="1"
       x2="47"
       gradientUnits="userSpaceOnUse"
       gradientTransform="matrix(0,-1,1,0,-1.5e-6,47.999998)">
      <stop
         stop-color="#94c341"
         stop-opacity="1"
         id="stop7" />
      <stop
         offset="1"
         stop-color="#9dc851"
         stop-opacity="1"
         id="stop9" />
    </linearGradient>
    <clipPath
       id="clipPath-759303060">
      <g
         transform="translate(0,-1004.3622)"
         id="g12">
        <path
           d="m -24 13 c 0 1.105 -0.672 2 -1.5 2 -0.828 0 -1.5 -0.895 -1.5 -2 0 -1.105 0.672 -2 1.5 -2 0.828 0 1.5 0.895 1.5 2 z"
           transform="matrix(15.333333,0,0,11.5,414.99999,878.8622)"
           fill="#1890d0"
           id="path14" />
      </g>
    </clipPath>
    <clipPath
       id="clipPath-768846408">
      <g
         transform="translate(0,-1004.3622)"
         id="g17">
        <path
           d="m -24 13 c 0 1.105 -0.672 2 -1.5 2 -0.828 0 -1.5 -0.895 -1.5 -2 0 -1.105 0.672 -2 1.5 -2 0.828 0 1.5 0.895 1.5 2 z"
           transform="matrix(15.333333,0,0,11.5,414.99999,878.8622)"
           fill="#1890d0"
           id="path19" />
      </g>
    </clipPath>
    <linearGradient
       inkscape:collect="always"
       xlink:href="#linearGradient3764"
       id="linearGradient3041"
       gradientUnits="userSpaceOnUse"
       gradientTransform="matrix(0,-1,1,0,-1.5e-6,47.999998)"
       x1="1"
       x2="47" />
    <linearGradient
       inkscape:collect="always"
       xlink:href="#linearGradient3764"
       id="linearGradient3053"
       gradientUnits="userSpaceOnUse"
       gradientTransform="matrix(0,-1,1,0,-1.5e-6,47.999998)"
       x1="1"
       x2="47" />
    <linearGradient
       inkscape:collect="always"
       xlink:href="#linearGradient3764"
       id="linearGradient3060"
       gradientUnits="userSpaceOnUse"
       gradientTransform="matrix(0,-1,1,0,-1.5e-6,47.999998)"
       x1="1"
       x2="47" />
  </defs>
  <g
     id="g21">
    <g
       transform="translate(0,-1004.3622)"
       id="g23">
      <path
         d="m 25 1006.36 c -12.703 0 -23 10.298 -23 23 0 6.367 2.601 12.12 6.781 16.281 4.085 3.712 9.514 5.969 15.469 5.969 12.703 0 23 -10.297 23 -23 0 -5.954 -2.256 -11.384 -5.969 -15.469 -4.165 -4.181 -9.914 -6.781 -16.281 -6.781 z m 16.281 6.781 c 3.854 4.113 6.219 9.637 6.219 15.719 0 12.703 -10.297 23 -23 23 -6.081 0 -11.606 -2.364 -15.719 -6.219 4.16 4.144 9.883 6.719 16.219 6.719 12.703 0 23 -10.297 23 -23 0 -6.335 -2.575 -12.06 -6.719 -16.219 z"
         opacity="0.05"
         id="path25" />
      <path
         d="m 41.28 1013.14 c 3.712 4.085 5.969 9.514 5.969 15.469 0 12.703 -10.297 23 -23 23 -5.954 0 -11.384 -2.256 -15.469 -5.969 4.113 3.854 9.637 6.219 15.719 6.219 12.703 0 23 -10.297 23 -23 0 -6.081 -2.364 -11.606 -6.219 -15.719 z"
         opacity="0.1"
         id="path27" />
      <path
         transform="matrix(15.333333,0,0,11.5,415.24999,879.11222)"
         d="m -24 13 a 1.5 2 0 1 1 -3 0 1.5 2 0 1 1 3 0 z"
         opacity="0.2"
         id="path29" />
    </g>
  </g>
  <path
     style="fill:url(#linearGradient3060);fill-opacity:1"
     d="M 24 1 L 24 16.8125 C 24.125 16.8045 24.25 16.78525 24.375 16.78125 C 30.805 16.56625 34.96875 22.0625 34.96875 22.0625 C 34.96875 22.0625 30.16625 27.90625 25.15625 27.90625 C 24.74225 27.90625 24.367 27.84025 24 27.78125 L 24 29.375 C 24.305 29.411 24.6095 29.4375 24.9375 29.4375 C 29.6025 29.4375 32.984 27.03875 36.25 24.21875 C 36.793 24.65275 39.01175 25.69525 39.46875 26.15625 C 36.36275 28.76225 29.13325 30.875 25.03125 30.875 C 24.68025 30.875 24.336 30.8435 24 30.8125 L 24 47 C 36.703 47 47 36.703 47 24 C 47 11.297 36.703 1 24 1 z M 24 30.8125 L 24 29.375 C 18.293 28.658 16.34375 22.34375 16.34375 22.34375 C 16.34375 22.34375 18.895 18.5785 24 18.1875 L 24 16.8125 C 18.348 17.2655 13.46875 22.0625 13.46875 22.0625 C 13.46875 22.0625 16.223 30.0785 24 30.8125 z M 24 18.1875 L 24 19.875 C 24.265 19.848 24.5355 19.8125 24.8125 19.8125 C 27.7735 19.8125 29.53125 22.125 29.53125 22.125 L 27.125 24.15625 C 26.07 22.40225 25.684 21.5545 24 21.3125 L 24 26.46875 C 24.375 26.58275 24.793 26.65625 25.25 26.65625 C 28.761 26.65625 32.03125 22.125 32.03125 22.125 C 32.03125 22.125 28.996 18.01125 24.375 18.15625 C 24.246 18.16025 24.125 18.1795 24 18.1875 z M 24 26.46875 C 21.566 25.64875 20.78125 22.78125 20.78125 22.78125 C 20.78125 22.78125 21.86375 21.4925 23.34375 21.3125 C 23.55475 21.2895 23.773 21.2855 24 21.3125 L 24 19.875 C 20.559 20.246 18.5 22.53125 18.5 22.53125 C 18.5 22.53125 19.687 27.01125 24 27.78125 L 24 26.46875 z "
     id="path33" />
  <g
     id="g35" />
  <g
     id="g37">
    <g
       clip-path="url(#clipPath-759303060)"
       id="g39">
      <g
         transform="translate(0,1)"
         id="g41">
        <g
           opacity="0.1"
           id="g43">
          <!-- color: #9dc851 -->
          <g
             id="g45">
            <path
               d="m 0 0 l 0 48 l 24 0 l 0 -17.188 c -7.777 -0.734 -10.531 -8.75 -10.531 -8.75 c 0 0 4.879 -4.797 10.531 -5.25 l 0 -16.813 m 0 16.813 l 0 1.375 c 0.125 -0.008 0.246 -0.027 0.375 -0.031 c 4.621 -0.145 7.656 3.969 7.656 3.969 c 0 0 -3.27 4.531 -6.781 4.531 c -0.457 0 -0.875 -0.074 -1.25 -0.188 l 0 1.313 c 0.367 0.059 0.742 0.125 1.156 0.125 c 5.01 0 9.813 -5.844 9.813 -5.844 c 0 0 -4.164 -5.496 -10.594 -5.281 c -0.125 0.004 -0.25 0.023 -0.375 0.031 m 0 10.969 c -4.313 -0.77 -5.5 -5.25 -5.5 -5.25 c 0 0 2.059 -2.285 5.5 -2.656 l 0 -1.688 c -5.105 0.391 -7.656 4.156 -7.656 4.156 c 0 0 1.949 6.313 7.656 7.03 m 0 0 l 0 1.441 c 0.336 0.031 0.68 0.066 1.031 0.066 c 4.102 0 11.332 -2.121 14.438 -4.727 c -0.457 -0.461 -2.676 -1.504 -3.219 -1.938 c -3.266 2.82 -6.648 5.219 -11.313 5.219 c -0.328 0 -0.633 -0.027 -0.938 -0.063 m 0 -9.5 l 0 1.438 c 1.684 0.242 2.07 1.09 3.125 2.844 l 2.406 -2.023 c 0 0 -1.758 -2.316 -4.719 -2.316 c -0.277 0 -0.551 0.039 -0.816 0.066 m 0 1.434 c -0.227 -0.027 -0.441 -0.023 -0.652 0 c -1.48 0.18 -2.566 1.469 -2.566 1.469 c 0 0 0.785 2.871 3.219 3.691 m 0 -5.16"
               fill="#000"
               stroke="none"
               fill-rule="evenodd"
               fill-opacity="1"
               id="path47" />
          </g>
        </g>
      </g>
    </g>
  </g>
  <path
     style="fill:#2d2d2d;fill-opacity:1;fill-rule:evenodd;stroke:none"
     d="M 24 1 C 11.297 1 1 11.297 1 24 C 1 36.703 11.297 47 24 47 L 24 30.8125 C 16.223 30.0785 13.46875 22.0625 13.46875 22.0625 C 13.46875 22.0625 18.348 17.2655 24 16.8125 L 24 1 z M 24 16.8125 L 24 18.1875 C 24.125 18.1795 24.246 18.16025 24.375 18.15625 C 28.996 18.01125 32.03125 22.125 32.03125 22.125 C 32.03125 22.125 28.761 26.65625 25.25 26.65625 C 24.793 26.65625 24.375 26.58275 24 26.46875 L 24 27.78125 C 24.367 27.84025 24.74225 27.90625 25.15625 27.90625 C 30.16625 27.90625 34.96875 22.0625 34.96875 22.0625 C 34.96875 22.0625 30.805 16.56625 24.375 16.78125 C 24.25 16.78525 24.125 16.8045 24 16.8125 z M 24 27.78125 C 19.687 27.01125 18.5 22.53125 18.5 22.53125 C 18.5 22.53125 20.559 20.246 24 19.875 L 24 18.1875 C 18.895 18.5785 16.34375 22.34375 16.34375 22.34375 C 16.34375 22.34375 18.293 28.658 24 29.375 L 24 27.78125 z M 24 29.375 L 24 30.8125 C 24.336 30.8435 24.68025 30.875 25.03125 30.875 C 29.13325 30.875 36.36275 28.76225 39.46875 26.15625 C 39.01175 25.69525 36.793 24.65275 36.25 24.21875 C 32.984 27.03875 29.6025 29.4375 24.9375 29.4375 C 24.6095 29.4375 24.305 29.411 24 29.375 z M 24 19.875 L 24 21.3125 C 25.684 21.5545 26.07 22.40225 27.125 24.15625 L 29.53125 22.125 C 29.53125 22.125 27.7735 19.8125 24.8125 19.8125 C 24.5355 19.8125 24.265 19.848 24 19.875 z M 24 21.3125 C 23.773 21.2855 23.55475 21.2895 23.34375 21.3125 C 21.86375 21.4925 20.78125 22.78125 20.78125 22.78125 C 20.78125 22.78125 21.566 25.64875 24 26.46875 L 24 21.3125 z "
     id="path55" />
  <g
     id="g57">
    <path
       d="m 40.03 7.531 c 3.712 4.084 5.969 9.514 5.969 15.469 0 12.703 -10.297 23 -23 23 c -5.954 0 -11.384 -2.256 -15.469 -5.969 4.178 4.291 10.01 6.969 16.469 6.969 c 12.703 0 23 -10.298 23 -23 0 -6.462 -2.677 -12.291 -6.969 -16.469 z"
       opacity="0.1"
       id="path59" />
  </g>
</svg>
