<?xml version="1.0" encoding="UTF-8" standalone="no"?>
<svg
   xmlns:dc="http://purl.org/dc/elements/1.1/"
   xmlns:cc="http://creativecommons.org/ns#"
   xmlns:rdf="http://www.w3.org/1999/02/22-rdf-syntax-ns#"
   xmlns:svg="http://www.w3.org/2000/svg"
   xmlns="http://www.w3.org/2000/svg"
   viewBox="0 0 48 48"
   id="svg2"
   version="1.1">
  <metadata
     id="metadata59">
    <rdf:RDF>
      <cc:Work
         rdf:about="">
        <dc:format>image/svg+xml</dc:format>
        <dc:type
           rdf:resource="http://purl.org/dc/dcmitype/StillImage" />
        <dc:title></dc:title>
      </cc:Work>
    </rdf:RDF>
  </metadata>
  <defs
     id="defs4">
    <linearGradient
       id="linearGradient3764"
       x1="1"
       x2="47"
       gradientUnits="userSpaceOnUse"
       gradientTransform="matrix(0,-1,1,0,-1.5e-6,47.999998)">
      <stop
         style="stop-color:#292929;stop-opacity:1"
         id="stop7" />
      <stop
         offset="1"
         style="stop-color:#333333;stop-opacity:1"
         id="stop9" />
    </linearGradient>
    <clipPath
       id="clipPath-985407564">
      <g
         transform="translate(0,-1004.3622)"
         id="g12">
        <path
           d="m -24 13 c 0 1.105 -0.672 2 -1.5 2 -0.828 0 -1.5 -0.895 -1.5 -2 0 -1.105 0.672 -2 1.5 -2 0.828 0 1.5 0.895 1.5 2 z"
           transform="matrix(15.333333,0,0,11.5,414.99999,878.8622)"
           style="fill:#1890d0"
           id="path14" />
      </g>
    </clipPath>
    <clipPath
       id="clipPath-992670980">
      <g
         transform="translate(0,-1004.3622)"
         id="g17">
        <path
           d="m -24 13 c 0 1.105 -0.672 2 -1.5 2 -0.828 0 -1.5 -0.895 -1.5 -2 0 -1.105 0.672 -2 1.5 -2 0.828 0 1.5 0.895 1.5 2 z"
           transform="matrix(15.333333,0,0,11.5,414.99999,878.8622)"
           style="fill:#1890d0"
           id="path19" />
      </g>
    </clipPath>
    <linearGradient
       id="linearGradient3764-7"
       x1="1"
       x2="47"
       gradientUnits="userSpaceOnUse"
       gradientTransform="matrix(0,-1,1,0,-1.5e-6,47.999998)">
      <stop
         style="stop-color:#b24432;stop-opacity:1"
         id="stop7-1" />
      <stop
         offset="1"
         style="stop-color:#c14836;stop-opacity:1"
         id="stop9-6" />
    </linearGradient>
    <linearGradient
       id="linearGradient3764-70"
       x1="1"
       x2="47"
       gradientUnits="userSpaceOnUse"
       gradientTransform="matrix(0,-1,1,0,-1.5e-6,47.999998)">
      <stop
         style="stop-color:#dc492c;stop-opacity:1"
         id="stop7-3" />
      <stop
         offset="1"
         style="stop-color:#e65336;stop-opacity:1"
         id="stop9-9" />
    </linearGradient>
    <linearGradient
       id="linearGradient3764-72"
       x1="1"
       x2="47"
       gradientUnits="userSpaceOnUse"
       gradientTransform="matrix(0,-1,1,0,-1.5e-6,47.999998)">
      <stop
         style="stop-color:#292929;stop-opacity:1"
         id="stop7-2" />
      <stop
         offset="1"
         style="stop-color:#333333;stop-opacity:1"
         id="stop9-5" />
    </linearGradient>
    <linearGradient
       id="linearGradient3764-72-1"
       x1="1"
       x2="47"
       gradientUnits="userSpaceOnUse"
       gradientTransform="matrix(0,-1,1,0,-1.5e-6,47.999998)">
      <stop
         style="stop-color:#292929;stop-opacity:1"
         id="stop7-2-0" />
      <stop
         offset="1"
         style="stop-color:#333333;stop-opacity:1"
         id="stop9-5-6" />
    </linearGradient>
  </defs>
  <g
     id="g21">
    <path
       d="m 36.31 5 c 5.859 4.062 9.688 10.831 9.688 18.5 c 0 12.426 -10.07 22.5 -22.5 22.5 c -7.669 0 -14.438 -3.828 -18.5 -9.688 c 1.037 1.822 2.306 3.499 3.781 4.969 c 4.085 3.712 9.514 5.969 15.469 5.969 c 12.703 0 23 -10.298 23 -23 c 0 -5.954 -2.256 -11.384 -5.969 -15.469 c -1.469 -1.475 -3.147 -2.744 -4.969 -3.781 z m 4.969 3.781 c 3.854 4.113 6.219 9.637 6.219 15.719 c 0 12.703 -10.297 23 -23 23 c -6.081 0 -11.606 -2.364 -15.719 -6.219 c 4.16 4.144 9.883 6.719 16.219 6.719 c 12.703 0 23 -10.298 23 -23 c 0 -6.335 -2.575 -12.06 -6.719 -16.219 z"
       style="opacity:0.05"
       id="path23" />
    <path
       d="m 41.28 8.781 c 3.712 4.085 5.969 9.514 5.969 15.469 c 0 12.703 -10.297 23 -23 23 c -5.954 0 -11.384 -2.256 -15.469 -5.969 c 4.113 3.854 9.637 6.219 15.719 6.219 c 12.703 0 23 -10.298 23 -23 c 0 -6.081 -2.364 -11.606 -6.219 -15.719 z"
       style="opacity:0.1"
       id="path25" />
    <path
       d="m 31.25 2.375 c 8.615 3.154 14.75 11.417 14.75 21.13 c 0 12.426 -10.07 22.5 -22.5 22.5 c -9.708 0 -17.971 -6.135 -21.12 -14.75 a 23 23 0 0 0 44.875 -7 a 23 23 0 0 0 -16 -21.875 z"
       style="opacity:0.2"
       id="path27" />
  </g>
  <g
     id="g29">
    <path
       d="m 24 1 c 12.703 0 23 10.297 23 23 c 0 12.703 -10.297 23 -23 23 -12.703 0 -23 -10.297 -23 -23 0 -12.703 10.297 -23 23 -23 z"
       style="fill:url(#linearGradient3764);fill-opacity:1"
       id="path31" />
  </g>
  <g
     id="g53">
    <path
       d="m 40.03 7.531 c 3.712 4.084 5.969 9.514 5.969 15.469 0 12.703 -10.297 23 -23 23 c -5.954 0 -11.384 -2.256 -15.469 -5.969 4.178 4.291 10.01 6.969 16.469 6.969 c 12.703 0 23 -10.298 23 -23 0 -6.462 -2.677 -12.291 -6.969 -16.469 z"
       style="opacity:0.1"
       id="path55" />
  </g>
  <path
     id="path8370-5"
     d="M 21.169922 12.677734 L 21.169922 19.394531 L 31.511719 19.394531 L 32.447266 20.330078 L 33.382812 19.394531 L 34.603516 19.394531 L 34.603516 12.677734 L 21.169922 12.677734 z M 32.447266 20.330078 L 17.929688 28.712891 L 14.556641 25.339844 L 2.5410156 32.277344 C 2.8525246 33.084392 3.2065676 33.868793 3.6035156 34.628906 L 14.087891 28.576172 L 17.509766 31.996094 L 31.251953 23.875 L 32.171875 24.794922 L 35.560547 22.837891 L 41.041016 28.318359 L 46.939453 22.417969 C 46.867403 21.358562 46.730226 20.317928 46.519531 19.302734 L 41.078125 24.744141 L 35.986328 19.650391 L 33.103516 21.464844 L 32.447266 20.330078 z "
     style="fill:#000000;fill-opacity:1;fill-rule:nonzero;stroke:none;stroke-width:1px;stroke-linecap:butt;stroke-linejoin:miter;stroke-opacity:1;opacity:0.1" />
  <path
     id="path8370"
     d="M 20.169922 11.677734 L 20.169922 18.394531 L 30.511719 18.394531 L 31.447266 19.330078 L 32.382812 18.394531 L 33.603516 18.394531 L 33.603516 11.677734 L 20.169922 11.677734 z M 31.447266 19.330078 L 16.929688 27.712891 L 13.556641 24.339844 L 2.0761719 30.966797 C 2.3404103 31.799081 2.6544188 32.608246 3.0078125 33.396484 L 13.087891 27.574219 L 16.509766 30.996094 L 30.251953 22.875 L 31.169922 23.792969 L 34.560547 21.837891 L 40.039062 27.316406 L 46.748047 20.607422 C 46.601451 19.61621 46.387967 18.646939 46.119141 17.701172 L 40.078125 23.742188 L 34.984375 18.650391 L 32.101562 20.462891 L 31.447266 19.330078 z "
     style="fill:#9dc851;fill-opacity:1;fill-rule:nonzero;stroke:none;stroke-width:1px;stroke-linecap:butt;stroke-linejoin:miter;stroke-opacity:1" />
</svg>
