<svg viewBox="0 0 48 48"><defs><linearGradient id="linearGradient3764" x1="1" x2="47" gradientUnits="userSpaceOnUse" gradientTransform="matrix(0,-1,1,0,-1.5e-6,47.999998)"><stop stop-color="#e4e4e4" stop-opacity="1"/><stop offset="1" stop-color="#eee" stop-opacity="1"/></linearGradient><clipPath id="clipPath-590003526"><g transform="translate(0,-1004.3622)"><path d="m -24 13 c 0 1.105 -0.672 2 -1.5 2 -0.828 0 -1.5 -0.895 -1.5 -2 0 -1.105 0.672 -2 1.5 -2 0.828 0 1.5 0.895 1.5 2 z" transform="matrix(15.333333,0,0,11.5,414.99999,878.8622)" fill="#1890d0"/></g></clipPath><clipPath id="clipPath-602174771"><g transform="translate(0,-1004.3622)"><path d="m -24 13 c 0 1.105 -0.672 2 -1.5 2 -0.828 0 -1.5 -0.895 -1.5 -2 0 -1.105 0.672 -2 1.5 -2 0.828 0 1.5 0.895 1.5 2 z" transform="matrix(15.333333,0,0,11.5,414.99999,878.8622)" fill="#1890d0"/></g></clipPath></defs><g><g transform="translate(0,-1004.3622)"><path d="m 25 1006.36 c -12.703 0 -23 10.298 -23 23 0 6.367 2.601 12.12 6.781 16.281 4.085 3.712 9.514 5.969 15.469 5.969 12.703 0 23 -10.297 23 -23 0 -5.954 -2.256 -11.384 -5.969 -15.469 -4.165 -4.181 -9.914 -6.781 -16.281 -6.781 z m 16.281 6.781 c 3.854 4.113 6.219 9.637 6.219 15.719 0 12.703 -10.297 23 -23 23 -6.081 0 -11.606 -2.364 -15.719 -6.219 4.16 4.144 9.883 6.719 16.219 6.719 12.703 0 23 -10.297 23 -23 0 -6.335 -2.575 -12.06 -6.719 -16.219 z" opacity="0.05"/><path d="m 41.28 1013.14 c 3.712 4.085 5.969 9.514 5.969 15.469 0 12.703 -10.297 23 -23 23 -5.954 0 -11.384 -2.256 -15.469 -5.969 4.113 3.854 9.637 6.219 15.719 6.219 12.703 0 23 -10.297 23 -23 0 -6.081 -2.364 -11.606 -6.219 -15.719 z" opacity="0.1"/><path transform="matrix(15.333333,0,0,11.5,415.24999,879.11222)" d="m -24 13 a 1.5 2 0 1 1 -3 0 1.5 2 0 1 1 3 0 z" opacity="0.2"/></g></g><g><path d="m 24 1 c 12.703 0 23 10.297 23 23 c 0 12.703 -10.297 23 -23 23 -12.703 0 -23 -10.297 -23 -23 0 -12.703 10.297 -23 23 -23 z" fill="url(#linearGradient3764)" fill-opacity="1"/></g><g/><g><g clip-path="url(#clipPath-590003526)"><g transform="translate(0,1)"><g opacity="0.1"><!-- color: #eeeeee --><g><path d="m 36.18 16 c -1.582 -0.023 -3.086 0.391 -4.379 1.133 c -1.012 -0.57 -2.164 -0.941 -3.398 -1.059 c -1.699 -0.156 -3.328 0.191 -4.738 0.922 c -0.016 0.008 -0.031 0.016 -0.043 0.023 c -0.035 0.027 -0.059 0.07 -0.059 0.117 c 0 0.082 0.066 0.141 0.145 0.141 c 0.008 0 0.02 0 0.027 0 c 0.004 0 0.008 -0.004 0.008 -0.004 c 0.762 -0.137 1.551 -0.176 2.359 -0.102 c 2.258 0.211 4.23 0.906 5.613 2.461 c 0.07 0.074 0.133 0.066 0.203 -0.004 c 1.742 -1.996 4.406 -2.789 7.27 -2.52 c 0.16 0.016 0.32 0.031 0.477 0.059 c 0.055 0.008 0.141 0.02 0.191 0.023 c 0.094 0.012 0.145 -0.063 0.145 -0.141 c 0 -0.055 -0.023 -0.102 -0.078 -0.129 c -0.055 -0.027 -0.109 -0.055 -0.164 -0.082 c -0.887 -0.422 -1.863 -0.699 -2.898 -0.801 c -0.23 -0.02 -0.457 -0.039 -0.684 -0.043 m 0.004 0.004" fill="#000" stroke="none" fill-rule="nonzero" fill-opacity="1"/><path d="m 30.938 22.84 c -3.191 0 -6.141 1.01 -8.555 2.711 c -1.844 -0.82 -3.883 -1.277 -6.03 -1.277 c -3.055 0 -5.887 0.922 -8.242 2.5 c -0.004 0.004 -0.016 0.012 -0.023 0.016 c -0.051 0.039 -0.082 0.098 -0.082 0.168 c 0 0.121 0.098 0.219 0.215 0.219 c 0.016 0 0.031 -0.004 0.043 -0.004 c 0.012 0 0.02 -0.004 0.027 -0.008 c 1.348 -0.406 2.785 -0.621 4.266 -0.621 c 3.937 0 7.449 0.926 10.09 3.391 c 0.008 0.004 0.016 0.012 0.023 0.016 c 0.039 0.035 0.086 0.047 0.145 0.047 c 0.066 0 0.125 -0.027 0.164 -0.078 c 0 0 0.086 -0.113 0.129 -0.172 c 2.688 -3.641 7.121 -5.438 12.04 -5.438 c 0.352 0 0.703 0.008 1.051 0.035 c 0.098 0.004 0.313 0.023 0.316 0.023 c 0.117 0 0.215 -0.098 0.215 -0.219 c 0 -0.086 -0.051 -0.156 -0.125 -0.188 c -0.008 -0.004 -0.016 -0.008 -0.023 -0.012 c -1.742 -0.711 -3.641 -1.113 -5.633 -1.113 m -0.008 0.004" fill="#000" stroke="none" fill-rule="nonzero" fill-opacity="1"/></g></g></g></g></g><g><g clip-path="url(#clipPath-602174771)"><!-- color: #eeeeee --><g><path d="m 36.18 16 c -1.582 -0.023 -3.086 0.391 -4.379 1.133 c -1.012 -0.57 -2.164 -0.941 -3.398 -1.059 c -1.699 -0.156 -3.328 0.191 -4.738 0.922 c -0.016 0.008 -0.031 0.016 -0.043 0.023 c -0.035 0.027 -0.059 0.07 -0.059 0.117 c 0 0.082 0.066 0.141 0.145 0.141 c 0.008 0 0.02 0 0.027 0 c 0.004 0 0.008 -0.004 0.008 -0.004 c 0.762 -0.137 1.551 -0.176 2.359 -0.102 c 2.258 0.211 4.23 0.906 5.613 2.461 c 0.07 0.074 0.133 0.066 0.203 -0.004 c 1.742 -1.996 4.406 -2.789 7.27 -2.52 c 0.16 0.016 0.32 0.031 0.477 0.059 c 0.055 0.008 0.141 0.02 0.191 0.023 c 0.094 0.012 0.145 -0.063 0.145 -0.141 c 0 -0.055 -0.023 -0.102 -0.078 -0.129 c -0.055 -0.027 -0.109 -0.055 -0.164 -0.082 c -0.887 -0.422 -1.863 -0.699 -2.898 -0.801 c -0.23 -0.02 -0.457 -0.039 -0.684 -0.043 m 0.004 0.004" fill="#2d2d2d" stroke="none" fill-rule="nonzero" fill-opacity="1"/><path d="m 30.938 22.84 c -3.191 0 -6.141 1.01 -8.555 2.711 c -1.844 -0.82 -3.883 -1.277 -6.03 -1.277 c -3.055 0 -5.887 0.922 -8.242 2.5 c -0.004 0.004 -0.016 0.012 -0.023 0.016 c -0.051 0.039 -0.082 0.098 -0.082 0.168 c 0 0.121 0.098 0.219 0.215 0.219 c 0.016 0 0.031 -0.004 0.043 -0.004 c 0.012 0 0.02 -0.004 0.027 -0.008 c 1.348 -0.406 2.785 -0.621 4.266 -0.621 c 3.937 0 7.449 0.926 10.09 3.391 c 0.008 0.004 0.016 0.012 0.023 0.016 c 0.039 0.035 0.086 0.047 0.145 0.047 c 0.066 0 0.125 -0.027 0.164 -0.078 c 0 0 0.086 -0.113 0.129 -0.172 c 2.688 -3.641 7.121 -5.438 12.04 -5.438 c 0.352 0 0.703 0.008 1.051 0.035 c 0.098 0.004 0.313 0.023 0.316 0.023 c 0.117 0 0.215 -0.098 0.215 -0.219 c 0 -0.086 -0.051 -0.156 -0.125 -0.188 c -0.008 -0.004 -0.016 -0.008 -0.023 -0.012 c -1.742 -0.711 -3.641 -1.113 -5.633 -1.113 m -0.008 0.004" fill="#2d2d2d" stroke="none" fill-rule="nonzero" fill-opacity="1"/></g></g></g><g><path d="m 40.03 7.531 c 3.712 4.084 5.969 9.514 5.969 15.469 0 12.703 -10.297 23 -23 23 c -5.954 0 -11.384 -2.256 -15.469 -5.969 4.178 4.291 10.01 6.969 16.469 6.969 c 12.703 0 23 -10.298 23 -23 0 -6.462 -2.677 -12.291 -6.969 -16.469 z" opacity="0.1"/></g></svg>