<svg xmlns="http://www.w3.org/2000/svg" width="48" viewBox="0 0 13.546667 13.546667" height="48"><defs><linearGradient id="linearGradient4033" x1="-27" x2="-24" gradientUnits="userSpaceOnUse"><stop stop-color="#eff7fb" stop-opacity="1"/><stop offset="1" stop-color="#dfeff7" stop-opacity="1"/></linearGradient></defs><g><path d="m 25 2 c -12.703 0 -23 10.297 -23 23 0 6.367 2.601 12.12 6.781 16.281 4.085 3.712 9.514 5.969 15.469 5.969 c 12.703 0 23 -10.297 23 -23 0 -5.954 -2.256 -11.384 -5.969 -15.469 c -4.165 -4.181 -9.914 -6.781 -16.281 -6.781 z m 16.281 6.781 c 3.854 4.113 6.219 9.637 6.219 15.719 c 0 12.703 -10.297 23 -23 23 c -6.081 0 -11.606 -2.364 -15.719 -6.219 4.16 4.144 9.883 6.719 16.219 6.719 12.703 0 23 -10.297 23 -23 0 -6.335 -2.575 -12.06 -6.719 -16.219 z" transform="scale(0.28222223,0.28222223)" opacity="0.05" fill="#000" stroke="none" fill-opacity="1"/><path d="m 41.28 8.781 c 3.712 4.085 5.969 9.514 5.969 15.469 c 0 12.703 -10.297 23 -23 23 -5.954 0 -11.384 -2.256 -15.469 -5.969 c 4.113 3.854 9.637 6.219 15.719 6.219 c 12.703 0 23 -10.297 23 -23 0 -6.081 -2.364 -11.606 -6.219 -15.719 z" transform="scale(0.28222223,0.28222223)" opacity="0.1" fill="#000" stroke="none" fill-opacity="1"/><path transform="matrix(4.3274074,0,0,3.2455556,117.19278,-35.348334)" d="m -24 13 a 1.5 2 0 1 1 -3 0 1.5 2 0 1 1 3 0 z" opacity="0.2" fill="#000" stroke="none" fill-opacity="1"/></g><g><path d="m -24 13 a 1.5 2 0 1 1 -3 0 1.5 2 0 1 1 3 0 z" transform="matrix(0,4.3274075,3.2455556,0,-35.418894,117.12222)" fill="url(#linearGradient4033)" stroke="none" fill-opacity="1"/><path d="m 40.03 7.531 c 3.712 4.085 5.969 9.514 5.969 15.469 c 0 12.703 -10.297 23 -23 23 c -5.954 0 -11.384 -2.256 -15.469 -5.969 c 4.178 4.291 10.01 6.969 16.469 6.969 c 12.703 0 23 -10.297 23 -23 c 0 -6.462 -2.677 -12.291 -6.969 -16.469 z" transform="scale(0.28222223,0.28222223)" opacity="0.1" fill="#000" stroke="none" fill-opacity="1"/><g transform="translate(0.41753201,0.38934038)" opacity="0.1" fill="#000"><g transform="matrix(0.92857144,0,0,0.92857144,0.473884,0.4313671)" fill="#000"><path d="m 28.469 14.785 c -0.707 -0.017 -1.424 0.035 -2.137 0.178 c -2.175 0.435 -6.883 2.907 -9.129 5.705 c -0.247 0.308 -0.254 0.333 -0.396 0.518 c -1.866 0.114 -3.087 -0.305 -3.596 0.053 c -0.659 0.463 0.36 3.094 1.236 4.664 c -0.076 0.321 -0.118 0.662 -0.096 1.041 c 0.08 1.341 0.264 2.476 0.516 3.467 a 2.282 1.141 0 0 0 -1.656 1.098 a 2.282 1.141 0 0 0 1.311 1.031 c -0.018 0.237 0.099 0.466 0.4 0.68 c 1.387 0.984 2.234 1.532 2.826 1.842 c 1.633 1.08 3.59 1.079 5.283 0.725 c 2.273 -0.475 4.484 -1.224 6.074 -2.375 c 0.586 -0.253 1.091 -0.56 1.486 -0.924 c 0.412 -0.18 0.597 -0.264 0.947 -0.416 c 1.209 -0.524 2.992 -1.379 4.473 -2.102 c 1.48 -0.723 2.988 -0.654 2.988 -0.654 c 0 0 -2.023 -2.221 -3.385 -2.697 c -0.962 -0.336 -3.057 0 -3.057 0 c 0 0 1.666 -1.37 2.613 -1.871 c 1.129 -0.597 3.6 -1.32 3.6 -1.32 c 0 0 -1.919 -1.582 -3.209 -1.984 c -2.235 -0.697 -3.144 -0.336 -3.465 -0.105 c 0.224 -0.217 1.253 -1.202 1.975 -1.602 c 1.187 -0.657 3.857 -1.295 3.857 -1.295 c 0 0 -4.511 -3.535 -9.461 -3.654 z" transform="matrix(0.30393163,0,0,0.30393163,-0.95998646,-0.88383881)" fill="#000" fill-rule="evenodd" stroke="none"/></g></g><g><g transform="matrix(0.92857144,0,0,0.92857144,0.60919378,0.53848525)" fill="#2f2fb7" fill-opacity="1"><path d="m 3.922 6.091 c 0.489 -0.783 -0.359 0.186 0.347 -0.694 0.682 -0.851 2.113 -1.602 2.774 -1.734 c 1.734 -0.347 3.525 1.056 3.525 1.056 0 0 -0.812 0.194 -1.172 0.394 -0.244 0.135 -0.647 0.53 -0.647 0.53 0 0 0.187 -0.296 1.099 -0.011 0.392 0.122 0.975 0.603 0.975 0.603 0 0 -0.75 0.22 -1.094 0.401 -0.288 0.152 -0.795 0.569 -0.795 0.569 0 0 0.637 -0.102 0.929 0 0.414 0.145 1.029 0.82 1.029 0.82 0 0 -0.458 -0.021 -0.908 0.199 c -0.45 0.22 -0.992 0.479 -1.359 0.639 -0.585 0.254 -1.583 0.696 -1.583 0.696 c 0 0 -3.244 -1.819 -3.121 -3.468 z" fill-rule="evenodd" stroke="none"/><path d="m 8.604 7.999 c 0 1.149 -1.251 1.719 -2.564 1.994 c -1.065 0.223 -2.477 0 -2.638 -2.687 -0.069 -1.147 1.434 -1.387 2.774 -1.387 c 1.252 0 2.299 0.817 2.417 1.885" stroke="none"/><path d="m 8.604 8.345 c 0.098 1.147 -2.112 1.276 -3.183 1.337 -0.854 0.049 -0.31 0.619 -1.845 -0.47 -0.703 -0.499 1.748 -1.265 2.774 -1.387 0.766 -0.091 2.188 -0.248 2.254 0.52" stroke="none"/><ellipse transform="matrix(0.34678039,0,0,0.34678039,-1.97318,0.36952861)" cx="16.5" cy="24" rx="2" ry="1" stroke="none"/><path d="m 5.309 6.091 c 0.275 0.392 -0.676 1.08 -0.911 1.246 -0.235 0.165 -0.56 0.261 -0.835 -0.131 -0.275 -0.392 -0.743 -1.47 -0.508 -1.635 0.22 -0.154 0.867 0.173 1.907 -0.173" stroke="none"/></g><g><path d="m 4.205 8.217 c 0 0 -0.106 -0.123 -0.123 -0.2 c -0.078 -0.352 -0.228 -0.99 0.123 -1.075 0.336 -0.081 0.575 0.862 0.575 0.862 c 0 0 0.161 -0.749 0.404 -1.025 0.188 -0.214 0.459 -0.412 0.746 -0.412 0.575 0 0.567 1.15 0.279 1.725 -0.287 0.575 -1.429 0 -1.429 0 z" fill="#f9f9f9" stroke="none"/><g><ellipse transform="matrix(0.57496862,0,0,0.57496862,8.9446149,-5.1129017)" cx="-5.5" cy="22" rx="0.5" ry="1" fill="#4d4d4d" stroke="none" fill-opacity="1"/><path d="m 5.761 7.085 c 0.149 -0.054 0.192 0.132 0.192 0.224 0 0.092 0.031 0.427 -0.031 0.305 -0.061 -0.122 -0.031 -0.275 -0.153 -0.275 -0.122 0 -0.158 -0.201 -0.009 -0.254 z" fill="#e6e6e6" stroke="none"/></g><g><ellipse transform="matrix(0.43122647,0,0,0.43122647,6.7926881,-1.7751646)" cx="-5.5" cy="22" rx="0.5" ry="1" fill="#4d4d4d" stroke="none" fill-opacity="1"/><path d="m 4.405 7.376 c 0.113 -0.041 0.146 0.1 0.146 0.17 0 0.069 0.023 0.324 -0.023 0.232 -0.046 -0.093 -0.023 -0.208 -0.116 -0.208 -0.093 0 -0.12 -0.152 -0.007 -0.193 z" fill="#e6e6e6" stroke="none"/></g></g></g></g></svg>