<?xml version="1.0" encoding="UTF-8" standalone="no"?>
<svg
   xmlns:dc="http://purl.org/dc/elements/1.1/"
   xmlns:cc="http://creativecommons.org/ns#"
   xmlns:rdf="http://www.w3.org/1999/02/22-rdf-syntax-ns#"
   xmlns:svg="http://www.w3.org/2000/svg"
   xmlns="http://www.w3.org/2000/svg"
   xmlns:xlink="http://www.w3.org/1999/xlink"
   xmlns:sodipodi="http://sodipodi.sourceforge.net/DTD/sodipodi-0.dtd"
   xmlns:inkscape="http://www.inkscape.org/namespaces/inkscape"
   viewBox="0 0 48 48"
   id="svg2"
   version="1.1"
   inkscape:version="0.91 r13725"
   sodipodi:docname="openxcom.svg"
   inkscape:export-filename="/home/ismael/Imágenes/icons.png"
   inkscape:export-xdpi="245"
   inkscape:export-ydpi="245">
  <metadata
     id="metadata65">
    <rdf:RDF>
      <cc:Work
         rdf:about="">
        <dc:format>image/svg+xml</dc:format>
        <dc:type
           rdf:resource="http://purl.org/dc/dcmitype/StillImage" />
      </cc:Work>
    </rdf:RDF>
  </metadata>
  <sodipodi:namedview
     pagecolor="#ffffff"
     bordercolor="#666666"
     borderopacity="1"
     objecttolerance="10"
     gridtolerance="10"
     guidetolerance="10"
     inkscape:pageopacity="0"
     inkscape:pageshadow="2"
     inkscape:window-width="1366"
     inkscape:window-height="737"
     id="namedview63"
     showgrid="false"
     inkscape:object-paths="true"
     inkscape:snap-intersection-paths="true"
     inkscape:snap-smooth-nodes="true"
     inkscape:object-nodes="true"
     inkscape:snap-midpoints="true"
     inkscape:zoom="12.085106"
     inkscape:cx="18.939617"
     inkscape:cy="23.541374"
     inkscape:window-x="0"
     inkscape:window-y="0"
     inkscape:window-maximized="1"
     inkscape:current-layer="svg2">
    <inkscape:grid
       type="xygrid"
       id="grid4210" />
  </sodipodi:namedview>
  <defs
     id="defs4">
    <linearGradient
       inkscape:collect="always"
       id="linearGradient3367">
      <stop
         style="stop-color:#e8e9e3;stop-opacity:1"
         offset="0"
         id="stop3369" />
      <stop
         style="stop-color:#dfe0d8;stop-opacity:1"
         offset="1"
         id="stop3371" />
    </linearGradient>
    <linearGradient
       id="linearGradient3764"
       y1="47"
       x2="0"
       y2="1"
       gradientUnits="userSpaceOnUse">
      <stop
         stop-color="#39cbc2"
         stop-opacity="1"
         id="stop7" />
      <stop
         offset="1"
         stop-color="#48cfc7"
         stop-opacity="1"
         id="stop9" />
    </linearGradient>
    <clipPath
       id="clipPath-494275769">
      <g
         transform="translate(0,-1004.3622)"
         id="g12">
        <path
           d="m -24 13 c 0 1.105 -0.672 2 -1.5 2 -0.828 0 -1.5 -0.895 -1.5 -2 0 -1.105 0.672 -2 1.5 -2 0.828 0 1.5 0.895 1.5 2 z"
           transform="matrix(15.333333,0,0,11.5,414.99999,878.8622)"
           fill="#1890d0"
           id="path14" />
      </g>
    </clipPath>
    <clipPath
       id="clipPath-502917755">
      <g
         transform="translate(0,-1004.3622)"
         id="g17">
        <path
           d="m -24 13 c 0 1.105 -0.672 2 -1.5 2 -0.828 0 -1.5 -0.895 -1.5 -2 0 -1.105 0.672 -2 1.5 -2 0.828 0 1.5 0.895 1.5 2 z"
           transform="matrix(15.333333,0,0,11.5,414.99999,878.8622)"
           fill="#1890d0"
           id="path19" />
      </g>
    </clipPath>
    <linearGradient
       inkscape:collect="always"
       xlink:href="#linearGradient3367"
       id="linearGradient3373"
       x1="24"
       y1="1"
       x2="24"
       y2="47"
       gradientUnits="userSpaceOnUse" />
  </defs>
  <g
     id="g21">
    <path
       d="m 36.31 5 c 5.859 4.062 9.688 10.831 9.688 18.5 c 0 12.426 -10.07 22.5 -22.5 22.5 c -7.669 0 -14.438 -3.828 -18.5 -9.688 c 1.037 1.822 2.306 3.499 3.781 4.969 c 4.085 3.712 9.514 5.969 15.469 5.969 c 12.703 0 23 -10.298 23 -23 c 0 -5.954 -2.256 -11.384 -5.969 -15.469 c -1.469 -1.475 -3.147 -2.744 -4.969 -3.781 z m 4.969 3.781 c 3.854 4.113 6.219 9.637 6.219 15.719 c 0 12.703 -10.297 23 -23 23 c -6.081 0 -11.606 -2.364 -15.719 -6.219 c 4.16 4.144 9.883 6.719 16.219 6.719 c 12.703 0 23 -10.298 23 -23 c 0 -6.335 -2.575 -12.06 -6.719 -16.219 z"
       opacity="0.05"
       id="path23" />
    <path
       d="m 41.28 8.781 c 3.712 4.085 5.969 9.514 5.969 15.469 c 0 12.703 -10.297 23 -23 23 c -5.954 0 -11.384 -2.256 -15.469 -5.969 c 4.113 3.854 9.637 6.219 15.719 6.219 c 12.703 0 23 -10.298 23 -23 c 0 -6.081 -2.364 -11.606 -6.219 -15.719 z"
       opacity="0.1"
       id="path25" />
    <path
       d="m 31.25 2.375 c 8.615 3.154 14.75 11.417 14.75 21.13 c 0 12.426 -10.07 22.5 -22.5 22.5 c -9.708 0 -17.971 -6.135 -21.12 -14.75 a 23 23 0 0 0 44.875 -7 a 23 23 0 0 0 -16 -21.875 z"
       opacity="0.2"
       id="path27" />
  </g>
  <g
     id="g29"
     style="fill:#e2e3db">
    <path
       d="m 24 1 c 12.703 0 23 10.297 23 23 c 0 12.703 -10.297 23 -23 23 -12.703 0 -23 -10.297 -23 -23 0 -12.703 10.297 -23 23 -23 z"
       id="path31"
       style="fill:url(#linearGradient3373);fill-opacity:1"
       inkscape:export-filename="/home/ismael/Imágenes/icons.png"
       inkscape:export-xdpi="245"
       inkscape:export-ydpi="245"
       fill-opacity="1"
       fill="url(#linearGradient3764)" />
  </g>
  <g
     id="g33" />
  <g
     id="g59"
     transform="translate(10e-4,0)">
    <path
       d="m 40.03,7.531 c 3.712,4.084 5.969,9.514 5.969,15.469 0,12.703 -10.297,23 -23,23 C 17.045,46 11.615,43.744 7.53,40.031 11.708,44.322 17.54,47 23.999,47 c 12.703,0 23,-10.298 23,-23 0,-6.462 -2.677,-12.291 -6.969,-16.469 z"
       id="path61"
       inkscape:connector-curvature="0"
       style="opacity:0.1" />
  </g>
  <g
     transform="matrix(1.0664155,0,0,1.0664155,-0.56257814,-2.523789)"
     id="g4254"
     style="opacity:0.1;fill:#000000">
    <g
       id="g4256"
       transform="translate(0.5028485,0.41679398)"
       style="fill:#000000">
      <path
         sodipodi:nodetypes="acasazaaazzzaaa"
         inkscape:connector-curvature="0"
         id="path4258"
         d="m 30.601879,23.504401 c -0.309242,1.20672 -1.797369,3.276538 -1.797369,3.276538 0,0 -1.441286,1.915156 -2.40789,2.58977 -0.857405,0.598402 -1.847335,1.214526 -2.892909,1.212492 -1.035966,-0.002 -2.009251,-0.623698 -2.86163,-1.212492 -1.013699,-0.700228 -1.904216,-1.691444 -2.553193,-2.672516 -0.648977,-0.981072 -1.394329,-2.025593 -1.683345,-3.193791 -0.408199,-1.649932 -0.273516,-3.421506 0,-5.099032 0.181651,-1.114101 0.361645,-2.336784 1.075704,-3.211048 0.678482,-0.830704 1.755165,-1.297277 2.785493,-1.610805 1.030328,-0.313528 2.155591,-0.381052 3.236971,-0.381052 1.08138,0 2.209672,0.08105 3.236971,0.381052 1.027299,0.299995 2.109458,0.712875 2.785493,1.528059 0.737296,0.889055 0.894164,2.153151 1.075704,3.293794 0.267152,1.678551 0.421935,3.452558 0,5.099031 z"
         style="opacity:1;fill:#000000;fill-opacity:1;fill-rule:nonzero;stroke:none;stroke-width:0.5;stroke-miterlimit:4;stroke-dasharray:none;stroke-opacity:1" />
      <path
         sodipodi:nodetypes="cssssscc"
         inkscape:connector-curvature="0"
         id="path4260"
         d="m 16.229668,19.873864 c 0,0 2.021035,0.0427 2.961089,0.348302 0.816613,0.265474 1.61034,0.554513 2.162586,1.212052 0.365619,0.435329 0.92599,1.065066 0.665412,1.570327 -0.299355,0.580453 -1.261084,0.461491 -1.913057,0.423159 -0.762016,-0.0448 -1.579835,-0.447827 -2.256421,-0.69063 -1.340967,-0.481227 -1.740454,-0.80166 -1.738832,-1.939681 z"
         style="fill:#000000;fill-rule:evenodd;stroke:none;stroke-width:1px;stroke-linecap:butt;stroke-linejoin:miter;stroke-opacity:1" />
      <path
         style="fill:#000000;fill-rule:evenodd;stroke:none;stroke-width:1px;stroke-linecap:butt;stroke-linejoin:miter;stroke-opacity:1"
         d="m 30.764635,19.873864 c 0,0 -2.021035,0.0427 -2.961089,0.348302 -0.816613,0.265474 -1.61034,0.554513 -2.162586,1.212052 -0.365619,0.435329 -0.92599,1.065066 -0.665412,1.570327 0.299355,0.580453 1.261084,0.461491 1.913057,0.423159 0.762016,-0.0448 1.579835,-0.447827 2.256421,-0.69063 1.340967,-0.481227 1.740454,-0.80166 1.738832,-1.939681 z"
         id="path4262"
         inkscape:connector-curvature="0"
         sodipodi:nodetypes="cssssscc" />
    </g>
    <g
       id="g4264"
       transform="translate(3.6040538e-4,-0.54339907)"
       style="fill:#000000">
      <path
         sodipodi:nodetypes="ccaaaaaccaaaaac"
         inkscape:connector-curvature="0"
         id="path4266"
         d="M 32.434513,37.295298 15.047848,32.636555 c 0,0 -0.769403,0.829115 -1.224744,0.707106 -0.455343,-0.122009 -0.829116,-0.769402 -0.707107,-1.224745 0.122008,-0.455342 1.102736,-0.251768 1.224745,-0.707106 0.122009,-0.455342 -0.829116,-0.769403 -0.707107,-1.224745 0.122009,-0.455342 0.769402,-0.829115 1.224745,-0.707107 0.455342,0.122009 0.707107,1.224744 0.707107,1.224744 l 17.386665,4.658743 c 0,0 0.769403,-0.829115 1.224744,-0.707106 0.455343,0.122009 0.829116,0.769402 0.707107,1.224745 -0.122008,0.455342 -1.102736,0.251768 -1.224745,0.707106 -0.122009,0.455342 0.829116,0.769403 0.707107,1.224745 -0.122009,0.455342 -0.769402,0.829115 -1.224745,0.707107 -0.455342,-0.122009 -0.707107,-1.224744 -0.707107,-1.224744 z"
         style="fill:#000000;fill-opacity:1;fill-rule:evenodd;stroke:none;stroke-width:1px;stroke-linecap:butt;stroke-linejoin:miter;stroke-opacity:1" />
      <path
         style="fill:#000000;fill-opacity:1;fill-rule:evenodd;stroke:none;stroke-width:1px;stroke-linecap:butt;stroke-linejoin:miter;stroke-opacity:1"
         d="m 15.047848,35.363445 17.386665,-4.658743 c 0,0 0.251767,-1.102735 0.707107,-1.224744 0.455343,-0.122008 1.102736,0.251767 1.224745,0.707107 0.122009,0.455342 -0.829116,0.769403 -0.707107,1.224745 0.122008,0.455342 1.102736,0.251767 1.224745,0.707106 0.122009,0.455343 -0.251768,1.102735 -0.707107,1.224745 -0.455341,0.122009 -1.224744,-0.707106 -1.224744,-0.707106 l -17.386665,4.658743 c 0,0 -0.251767,1.102735 -0.707107,1.224744 -0.455343,0.122008 -1.102736,-0.251767 -1.224745,-0.707107 -0.122009,-0.455342 0.829116,-0.769403 0.707107,-1.224745 -0.122008,-0.455342 -1.102736,-0.251767 -1.224745,-0.707106 -0.122009,-0.455343 0.251768,-1.102735 0.707107,-1.224745 0.455341,-0.122009 1.224744,0.707106 1.224744,0.707106 z"
         id="path4268"
         inkscape:connector-curvature="0"
         sodipodi:nodetypes="ccaaaaaccaaaaac" />
    </g>
  </g>
  <g
     id="g4225"
     transform="matrix(1.0664155,0,0,1.0664155,-1.5625781,-3.5237889)">
    <g
       transform="translate(0.5028485,0.41679398)"
       id="g4216">
      <path
         style="opacity:1;fill:#5fd3bc;fill-opacity:1;fill-rule:nonzero;stroke:none;stroke-width:0.5;stroke-miterlimit:4;stroke-dasharray:none;stroke-opacity:1"
         d="m 30.601879,23.504401 c -0.309242,1.20672 -1.797369,3.276538 -1.797369,3.276538 0,0 -1.441286,1.915156 -2.40789,2.58977 -0.857405,0.598402 -1.847335,1.214526 -2.892909,1.212492 -1.035966,-0.002 -2.009251,-0.623698 -2.86163,-1.212492 -1.013699,-0.700228 -1.904216,-1.691444 -2.553193,-2.672516 -0.648977,-0.981072 -1.394329,-2.025593 -1.683345,-3.193791 -0.408199,-1.649932 -0.273516,-3.421506 0,-5.099032 0.181651,-1.114101 0.361645,-2.336784 1.075704,-3.211048 0.678482,-0.830704 1.755165,-1.297277 2.785493,-1.610805 1.030328,-0.313528 2.155591,-0.381052 3.236971,-0.381052 1.08138,0 2.209672,0.08105 3.236971,0.381052 1.027299,0.299995 2.109458,0.712875 2.785493,1.528059 0.737296,0.889055 0.894164,2.153151 1.075704,3.293794 0.267152,1.678551 0.421935,3.452558 0,5.099031 z"
         id="path4193"
         inkscape:connector-curvature="0"
         sodipodi:nodetypes="acasazaaazzzaaa" />
      <path
         style="fill:#008066;fill-rule:evenodd;stroke:none;stroke-width:1px;stroke-linecap:butt;stroke-linejoin:miter;stroke-opacity:1"
         d="m 16.210673,19.90273 c 0,0 2.028706,0.03801 2.980084,0.346166 0.78615,0.254638 1.611278,0.596478 2.162586,1.212052 0.379274,0.423486 0.925989,1.065066 0.665412,1.570327 -0.299356,0.580452 -1.260471,0.449057 -1.913057,0.423159 -0.785964,-0.03119 -1.59617,-0.263101 -2.256421,-0.69063 -0.720802,-0.466737 -1.695867,-1.939235 -1.695867,-1.939235 z"
         id="path4196"
         inkscape:connector-curvature="0"
         sodipodi:nodetypes="caaaaacc" />
      <path
         sodipodi:nodetypes="caaaaacc"
         inkscape:connector-curvature="0"
         id="path4270"
         d="m 30.797576,19.915711 c 0,0 -2.05611,0.02382 -3.020733,0.333185 -0.786883,0.252363 -1.611278,0.596478 -2.162586,1.212052 -0.379274,0.423486 -0.925989,1.065066 -0.665412,1.570327 0.299356,0.580452 1.260471,0.449057 1.913057,0.423159 0.785964,-0.03119 1.592096,-0.269461 2.256421,-0.69063 0.727777,-0.461396 1.738832,-1.912951 1.738832,-1.912951 z"
         style="fill:#008066;fill-rule:evenodd;stroke:none;stroke-width:1px;stroke-linecap:butt;stroke-linejoin:miter;stroke-opacity:1" />
    </g>
    <g
       transform="translate(3.6040538e-4,-0.54339907)"
       id="g4221">
      <path
         style="fill:#5fd3bc;fill-opacity:1;fill-rule:evenodd;stroke:none;stroke-width:1px;stroke-linecap:butt;stroke-linejoin:miter;stroke-opacity:1"
         d="M 32.434513,37.295298 15.047848,32.636555 c 0,0 -0.769403,0.829115 -1.224744,0.707106 -0.455343,-0.122009 -0.829116,-0.769402 -0.707107,-1.224745 0.122008,-0.455342 1.102736,-0.251768 1.224745,-0.707106 0.122009,-0.455342 -0.829116,-0.769403 -0.707107,-1.224745 0.122009,-0.455342 0.769402,-0.829115 1.224745,-0.707107 0.455342,0.122009 0.707107,1.224744 0.707107,1.224744 l 17.386665,4.658743 c 0,0 0.769403,-0.829115 1.224744,-0.707106 0.455343,0.122009 0.829116,0.769402 0.707107,1.224745 -0.122008,0.455342 -1.102736,0.251768 -1.224745,0.707106 -0.122009,0.455342 0.829116,0.769403 0.707107,1.224745 -0.122009,0.455342 -0.769402,0.829115 -1.224745,0.707107 -0.455342,-0.122009 -0.707107,-1.224744 -0.707107,-1.224744 z"
         id="path4212"
         inkscape:connector-curvature="0"
         sodipodi:nodetypes="ccaaaaaccaaaaac" />
      <path
         sodipodi:nodetypes="ccaaaaaccaaaaac"
         inkscape:connector-curvature="0"
         id="path4214"
         d="m 15.047848,35.363445 17.386665,-4.658743 c 0,0 0.251767,-1.102735 0.707107,-1.224744 0.455343,-0.122008 1.102736,0.251767 1.224745,0.707107 0.122009,0.455342 -0.829116,0.769403 -0.707107,1.224745 0.122008,0.455342 1.102736,0.251767 1.224745,0.707106 0.122009,0.455343 -0.251768,1.102735 -0.707107,1.224745 -0.455341,0.122009 -1.224744,-0.707106 -1.224744,-0.707106 l -17.386665,4.658743 c 0,0 -0.251767,1.102735 -0.707107,1.224744 -0.455343,0.122008 -1.102736,-0.251767 -1.224745,-0.707107 -0.122009,-0.455342 0.829116,-0.769403 0.707107,-1.224745 -0.122008,-0.455342 -1.102736,-0.251767 -1.224745,-0.707106 -0.122009,-0.455343 0.251768,-1.102735 0.707107,-1.224745 0.455341,-0.122009 1.224744,0.707106 1.224744,0.707106 z"
         style="fill:#5fd3bc;fill-opacity:1;fill-rule:evenodd;stroke:none;stroke-width:1px;stroke-linecap:butt;stroke-linejoin:miter;stroke-opacity:1" />
    </g>
  </g>
</svg>
