<?xml version="1.0" encoding="UTF-8" standalone="no"?>
<svg
   xmlns:dc="http://purl.org/dc/elements/1.1/"
   xmlns:cc="http://creativecommons.org/ns#"
   xmlns:rdf="http://www.w3.org/1999/02/22-rdf-syntax-ns#"
   xmlns:svg="http://www.w3.org/2000/svg"
   xmlns="http://www.w3.org/2000/svg"
   xmlns:xlink="http://www.w3.org/1999/xlink"
   xmlns:sodipodi="http://sodipodi.sourceforge.net/DTD/sodipodi-0.dtd"
   xmlns:inkscape="http://www.inkscape.org/namespaces/inkscape"
   viewBox="0 0 48 48"
   id="svg2"
   version="1.1"
   inkscape:version="0.48.5 r10040"
   width="100%"
   height="100%"
   sodipodi:docname="opsu.svg">
  <metadata
     id="metadata69">
    <rdf:RDF>
      <cc:Work
         rdf:about="">
        <dc:format>image/svg+xml</dc:format>
        <dc:type
           rdf:resource="http://purl.org/dc/dcmitype/StillImage" />
      </cc:Work>
    </rdf:RDF>
  </metadata>
  <sodipodi:namedview
     pagecolor="#ffffff"
     bordercolor="#666666"
     borderopacity="1"
     objecttolerance="10"
     gridtolerance="10"
     guidetolerance="10"
     inkscape:pageopacity="0"
     inkscape:pageshadow="2"
     inkscape:window-width="1280"
     inkscape:window-height="998"
     id="namedview67"
     showgrid="true"
     inkscape:zoom="2.8284271"
     inkscape:cx="-11.342581"
     inkscape:cy="19.552508"
     inkscape:window-x="0"
     inkscape:window-y="0"
     inkscape:window-maximized="1"
     inkscape:current-layer="svg2">
    <inkscape:grid
       type="xygrid"
       id="grid3829" />
  </sodipodi:namedview>
  <defs
     id="defs4">
    <linearGradient
       id="linearGradient3856">
      <stop
         style="stop-color:#d1e2ee;stop-opacity:1;"
         offset="0"
         id="stop3858" />
      <stop
         style="stop-color:#e0ecf4;stop-opacity:1;"
         offset="1"
         id="stop3860" />
    </linearGradient>
    <linearGradient
       id="linearGradient3764"
       x1="1"
       x2="47"
       gradientUnits="userSpaceOnUse"
       gradientTransform="matrix(0,-1,1,0,-1.5e-6,47.999998)">
      <stop
         stop-color="#8ac23a"
         stop-opacity="1"
         id="stop7" />
      <stop
         offset="1"
         stop-color="#93c849"
         stop-opacity="1"
         id="stop9" />
    </linearGradient>
    <clipPath
       id="clipPath-727990106">
      <g
         transform="translate(0,-1004.3622)"
         id="g12">
        <path
           d="m -24 13 c 0 1.105 -0.672 2 -1.5 2 -0.828 0 -1.5 -0.895 -1.5 -2 0 -1.105 0.672 -2 1.5 -2 0.828 0 1.5 0.895 1.5 2 z"
           transform="matrix(15.333333,0,0,11.5,414.99999,878.8622)"
           fill="#1890d0"
           id="path14" />
      </g>
    </clipPath>
    <clipPath
       id="clipPath-733228828">
      <g
         transform="translate(0,-1004.3622)"
         id="g17">
        <path
           d="m -24 13 c 0 1.105 -0.672 2 -1.5 2 -0.828 0 -1.5 -0.895 -1.5 -2 0 -1.105 0.672 -2 1.5 -2 0.828 0 1.5 0.895 1.5 2 z"
           transform="matrix(15.333333,0,0,11.5,414.99999,878.8622)"
           fill="#1890d0"
           id="path19" />
      </g>
    </clipPath>
    <linearGradient
       inkscape:collect="always"
       xlink:href="#linearGradient3856"
       id="linearGradient3862"
       x1="1"
       y1="24"
       x2="47"
       y2="24"
       gradientUnits="userSpaceOnUse" />
    <linearGradient
       inkscape:collect="always"
       xlink:href="#linearGradient3856"
       id="linearGradient3864"
       gradientUnits="userSpaceOnUse"
       x1="1"
       y1="24"
       x2="47"
       y2="24" />
  </defs>
  <g
     id="g21">
    <path
       d="m 36.31 5 c 5.859 4.062 9.688 10.831 9.688 18.5 c 0 12.426 -10.07 22.5 -22.5 22.5 c -7.669 0 -14.438 -3.828 -18.5 -9.688 c 1.037 1.822 2.306 3.499 3.781 4.969 c 4.085 3.712 9.514 5.969 15.469 5.969 c 12.703 0 23 -10.298 23 -23 c 0 -5.954 -2.256 -11.384 -5.969 -15.469 c -1.469 -1.475 -3.147 -2.744 -4.969 -3.781 z m 4.969 3.781 c 3.854 4.113 6.219 9.637 6.219 15.719 c 0 12.703 -10.297 23 -23 23 c -6.081 0 -11.606 -2.364 -15.719 -6.219 c 4.16 4.144 9.883 6.719 16.219 6.719 c 12.703 0 23 -10.298 23 -23 c 0 -6.335 -2.575 -12.06 -6.719 -16.219 z"
       opacity="0.05"
       id="path23" />
    <path
       d="m 41.28 8.781 c 3.712 4.085 5.969 9.514 5.969 15.469 c 0 12.703 -10.297 23 -23 23 c -5.954 0 -11.384 -2.256 -15.469 -5.969 c 4.113 3.854 9.637 6.219 15.719 6.219 c 12.703 0 23 -10.298 23 -23 c 0 -6.081 -2.364 -11.606 -6.219 -15.719 z"
       opacity="0.1"
       id="path25" />
    <path
       d="m 31.25 2.375 c 8.615 3.154 14.75 11.417 14.75 21.13 c 0 12.426 -10.07 22.5 -22.5 22.5 c -9.708 0 -17.971 -6.135 -21.12 -14.75 a 23 23 0 0 0 44.875 -7 a 23 23 0 0 0 -16 -21.875 z"
       opacity="0.2"
       id="path27" />
  </g>
  <g
     id="g29"
     style="fill:url(#linearGradient3862);fill-opacity:1"
     transform="matrix(0,-1,1,0,0,48)">
    <path
       d="M 24,1 C 36.703,1 47,11.297 47,24 47,36.703 36.703,47 24,47 11.297,47 1,36.703 1,24 1,11.297 11.297,1 24,1 z"
       id="path31"
       style="fill:url(#linearGradient3864);fill-opacity:1"
       inkscape:connector-curvature="0" />
  </g>
  <g
     id="g33" />
  <g
     id="g63">
    <path
       d="m 40.03 7.531 c 3.712 4.084 5.969 9.514 5.969 15.469 0 12.703 -10.297 23 -23 23 c -5.954 0 -11.384 -2.256 -15.469 -5.969 4.178 4.291 10.01 6.969 16.469 6.969 c 12.703 0 23 -10.298 23 -23 0 -6.462 -2.677 -12.291 -6.969 -16.469 z"
       opacity="0.1"
       id="path65" />
  </g>
  <path
     inkscape:connector-curvature="0"
     id="path3868"
     d="m 21.998435,12.503905 c -0.118971,-0.01097 -0.238867,0.0017 -0.343688,0.03123 -1.677132,0.473053 -1.900224,6.568871 -2.968216,7.900569 -1.067992,1.331698 -7.135292,3.096134 -7.186207,4.777814 -0.05091,1.681681 5.919398,3.763227 6.905007,5.152545 0.98561,1.389318 0.822641,7.521651 2.468306,8.087934 1.645665,0.566283 5.571564,-4.273534 7.248696,-4.746587 1.677132,-0.473052 7.64919,1.550292 8.717182,0.218593 1.067991,-1.331698 -2.487977,-6.375026 -2.437062,-8.056706 0.05091,-1.681681 3.922581,-6.542479 2.936972,-7.931797 -0.98561,-1.389317 -7.102761,0.285235 -8.748426,-0.281047 -1.542812,-0.530891 -4.80801,-4.987952 -6.592564,-5.152545 z m 6.998741,8.493892 1.99964,0 0,5.995688 -1.99964,0 0,-5.995688 z m -4.999101,0.999281 c 2.208742,0 3.999281,1.789574 3.999281,3.997126 0,2.207551 -1.790539,3.997126 -3.999281,3.997126 -2.208741,0 -3.99928,-1.789575 -3.99928,-3.997126 0,-2.207552 1.790539,-3.997126 3.99928,-3.997126 z m 0,1.998563 c -1.10437,0 -1.99964,0.894788 -1.99964,1.998563 0,1.103775 0.89527,1.998563 1.99964,1.998563 1.10437,0 1.99964,-0.894788 1.99964,-1.998563 0,-1.103775 -0.89527,-1.998563 -1.99964,-1.998563 z m 4.999101,3.997126 1.99964,0 0,1.998563 -1.99964,0 0,-1.998563 z"
     style="fill:#000000;fill-opacity:1;fill-rule:nonzero;stroke:none;opacity:0.1" />
  <path
     style="fill:#5387b8;fill-opacity:1;fill-rule:nonzero;stroke:none"
     d="m 20.998111,11.503908 c -0.118971,-0.01097 -0.238867,0.0017 -0.343688,0.03123 -1.677132,0.473053 -1.900224,6.568871 -2.968216,7.900569 -1.067992,1.331698 -7.135292,3.096134 -7.186207,4.777814 -0.05091,1.681681 5.919398,3.763227 6.905007,5.152545 0.98561,1.389318 0.822641,7.521651 2.468306,8.087934 1.645665,0.566283 5.571564,-4.273534 7.248696,-4.746587 1.677132,-0.473052 7.64919,1.550292 8.717182,0.218593 1.067991,-1.331698 -2.487977,-6.375026 -2.437062,-8.056706 0.05091,-1.681681 3.922581,-6.542479 2.936972,-7.931797 -0.98561,-1.389317 -7.102761,0.285235 -8.748426,-0.281047 -1.542812,-0.530891 -4.80801,-4.987952 -6.592564,-5.152545 z m 6.998741,8.493892 1.99964,0 0,5.995688 -1.99964,0 0,-5.995688 z m -4.999101,0.999281 c 2.208742,0 3.999281,1.789574 3.999281,3.997126 0,2.207551 -1.790539,3.997126 -3.999281,3.997126 -2.208741,0 -3.99928,-1.789575 -3.99928,-3.997126 0,-2.207552 1.790539,-3.997126 3.99928,-3.997126 z m 0,1.998563 c -1.10437,0 -1.99964,0.894788 -1.99964,1.998563 0,1.103775 0.89527,1.998563 1.99964,1.998563 1.10437,0 1.99964,-0.894788 1.99964,-1.998563 0,-1.103775 -0.89527,-1.998563 -1.99964,-1.998563 z m 4.999101,3.997126 1.99964,0 0,1.998563 -1.99964,0 0,-1.998563 z"
     id="path3059"
     inkscape:connector-curvature="0" />
</svg>
