<?xml version="1.0" encoding="UTF-8" standalone="no"?>
<svg
   xmlns:dc="http://purl.org/dc/elements/1.1/"
   xmlns:cc="http://creativecommons.org/ns#"
   xmlns:rdf="http://www.w3.org/1999/02/22-rdf-syntax-ns#"
   xmlns:svg="http://www.w3.org/2000/svg"
   xmlns="http://www.w3.org/2000/svg"
   xmlns:xlink="http://www.w3.org/1999/xlink"
   xmlns:sodipodi="http://sodipodi.sourceforge.net/DTD/sodipodi-0.dtd"
   xmlns:inkscape="http://www.inkscape.org/namespaces/inkscape"
   width="48"
   viewBox="0 0 13.546667 13.546667"
   height="48"
   id="svg2"
   version="1.1"
   inkscape:version="0.48.4 r9939"
   sodipodi:docname="web-browser.svg">
  <metadata
     id="metadata22">
    <rdf:RDF>
      <cc:Work
         rdf:about="">
        <dc:format>image/svg+xml</dc:format>
        <dc:type
           rdf:resource="http://purl.org/dc/dcmitype/StillImage" />
        <dc:title></dc:title>
      </cc:Work>
    </rdf:RDF>
  </metadata>
  <sodipodi:namedview
     pagecolor="#333333"
     bordercolor="#666666"
     borderopacity="1"
     objecttolerance="10"
     gridtolerance="10"
     guidetolerance="10"
     inkscape:pageopacity="1"
     inkscape:pageshadow="2"
     inkscape:window-width="1366"
     inkscape:window-height="740"
     id="namedview20"
     showgrid="false"
     inkscape:zoom="7.3100738"
     inkscape:cx="17.764682"
     inkscape:cy="29.413724"
     inkscape:window-x="0"
     inkscape:window-y="28"
     inkscape:window-maximized="1"
     inkscape:current-layer="svg2" />
  <defs
     id="defs4">
    <linearGradient
       id="linearGradient4460">
      <stop
         offset="0"
         style="stop-color:#1e5b77;stop-opacity:1;"
         id="stop7" />
      <stop
         offset="1"
         style="stop-color:#538ea9;stop-opacity:1;"
         id="stop9" />
    </linearGradient>
    <linearGradient
       gradientTransform="matrix(1.10525,0,0,1.10525,-134.25208,-295.76214)"
       xlink:href="#linearGradient4460"
       id="linearGradient3001"
       y1="279.096"
       y2="268.33"
       gradientUnits="userSpaceOnUse"
       x2="0" />
    <linearGradient
       gradientUnits="userSpaceOnUse"
       y2="18.924049"
       x2="400.17776"
       y1="836.39526"
       x1="373.88678"
       id="linearGradient4185"
       xlink:href="#linearGradient4041"
       inkscape:collect="always" />
    <linearGradient
       y2="35.499996"
       x2="401.5"
       y1="134.5"
       x1="401.5"
       gradientTransform="matrix(0.21212121,0,0,0.21212121,349.33333,129.9697)"
       gradientUnits="userSpaceOnUse"
       id="linearGradient3347"
       xlink:href="#linearGradient4041"
       inkscape:collect="always" />
    <linearGradient
       y2="35.499996"
       x2="401.5"
       y1="134.5"
       x1="401.5"
       gradientTransform="matrix(0.24242424,0,0,0.24242424,342.66667,91.393942)"
       gradientUnits="userSpaceOnUse"
       id="linearGradient3345"
       xlink:href="#linearGradient4041"
       inkscape:collect="always" />
    <linearGradient
       y2="35.499996"
       x2="401.5"
       y1="134.5"
       x1="401.5"
       gradientTransform="matrix(0.33333333,0,0,0.33333333,314.66667,39.66667)"
       gradientUnits="userSpaceOnUse"
       id="linearGradient3343"
       xlink:href="#linearGradient4041"
       inkscape:collect="always" />
    <linearGradient
       y2="35.499996"
       x2="401.5"
       y1="134.5"
       x1="401.5"
       gradientTransform="matrix(2.2727272,0,0,2.2727273,-655.99999,-37.181796)"
       gradientUnits="userSpaceOnUse"
       id="linearGradient3341"
       xlink:href="#linearGradient4041"
       inkscape:collect="always" />
    <linearGradient
       y2="35.499996"
       x2="401.5"
       y1="134.5"
       x1="401.5"
       gradientTransform="translate(-15.999999,-8.99999)"
       gradientUnits="userSpaceOnUse"
       id="linearGradient3339"
       xlink:href="#linearGradient4041"
       inkscape:collect="always" />
    <linearGradient
       y2="35.499996"
       x2="401.5"
       y1="134.5"
       x1="401.5"
       gradientTransform="matrix(0.66666666,0,0,0.66666666,85.333336,115.33334)"
       gradientUnits="userSpaceOnUse"
       id="linearGradient3337"
       xlink:href="#linearGradient4041"
       inkscape:collect="always" />
    <linearGradient
       y2="35.499996"
       x2="401.5"
       y1="134.5"
       x1="401.5"
       gradientTransform="matrix(0.48484848,0,0,0.48484848,141.33334,202.78788)"
       gradientUnits="userSpaceOnUse"
       id="linearGradient3335"
       xlink:href="#linearGradient4041"
       inkscape:collect="always" />
    <linearGradient
       y2="35.499996"
       x2="401.5"
       y1="134.5"
       x1="401.5"
       gradientTransform="matrix(0.21212121,0,0,0.21212121,349.33333,129.9697)"
       gradientUnits="userSpaceOnUse"
       id="linearGradient3333"
       xlink:href="#linearGradient4041"
       inkscape:collect="always" />
    <linearGradient
       y2="35.499996"
       x2="401.5"
       y1="134.5"
       x1="401.5"
       gradientTransform="matrix(0.24242424,0,0,0.24242424,342.66667,91.393942)"
       gradientUnits="userSpaceOnUse"
       id="linearGradient3330"
       xlink:href="#linearGradient4041"
       inkscape:collect="always" />
    <linearGradient
       y2="35.499996"
       x2="401.5"
       y1="134.5"
       x1="401.5"
       gradientTransform="matrix(0.33333333,0,0,0.33333333,314.66667,39.66667)"
       gradientUnits="userSpaceOnUse"
       id="linearGradient3328"
       xlink:href="#linearGradient4041"
       inkscape:collect="always" />
    <linearGradient
       y2="35.499996"
       x2="401.5"
       y1="134.5"
       x1="401.5"
       gradientTransform="matrix(2.2727272,0,0,2.2727273,-655.99999,-37.181796)"
       gradientUnits="userSpaceOnUse"
       id="linearGradient3326"
       xlink:href="#linearGradient4041"
       inkscape:collect="always" />
    <linearGradient
       y2="35.499996"
       x2="401.5"
       y1="134.5"
       x1="401.5"
       gradientTransform="translate(-15.999999,-8.99999)"
       gradientUnits="userSpaceOnUse"
       id="linearGradient3324"
       xlink:href="#linearGradient4041"
       inkscape:collect="always" />
    <linearGradient
       y2="35.499996"
       x2="401.5"
       y1="134.5"
       x1="401.5"
       gradientTransform="matrix(0.66666666,0,0,0.66666666,85.333336,115.33334)"
       gradientUnits="userSpaceOnUse"
       id="linearGradient3322"
       xlink:href="#linearGradient4041"
       inkscape:collect="always" />
    <linearGradient
       y2="35.499996"
       x2="401.5"
       y1="134.5"
       x1="401.5"
       gradientTransform="matrix(0.48484848,0,0,0.48484848,141.33334,202.78788)"
       gradientUnits="userSpaceOnUse"
       id="linearGradient3320"
       xlink:href="#linearGradient4041"
       inkscape:collect="always" />
    <linearGradient
       y2="140"
       x2="352"
       y1="204"
       x1="352"
       gradientUnits="userSpaceOnUse"
       id="linearGradient3318"
       xlink:href="#outerBackgroundGradient"
       inkscape:collect="always" />
    <linearGradient
       y2="28"
       x2="384"
       y1="124"
       x1="384"
       gradientUnits="userSpaceOnUse"
       id="linearGradient3316"
       xlink:href="#outerBackgroundGradient"
       inkscape:collect="always" />
    <linearGradient
       y2="22.857315"
       x2="281.14291"
       y1="297.14304"
       x1="281.14291"
       gradientTransform="matrix(0.175,0,0,-0.175,286.79999,-215.99997)"
       gradientUnits="userSpaceOnUse"
       id="linearGradient3314"
       xlink:href="#outerBackgroundGradient"
       inkscape:collect="always" />
    <linearGradient
       y2="31.61907"
       x2="283.80957"
       y1="299.80954"
       x1="283.80957"
       gradientTransform="matrix(0.11931818,0,0,0.11931818,414.13636,48.22727)"
       gradientUnits="userSpaceOnUse"
       id="linearGradient3312"
       xlink:href="#outerBackgroundGradient"
       inkscape:collect="always" />
    <linearGradient
       y2="28.571428"
       x2="286.85715"
       y1="302.85715"
       x1="286.85715"
       gradientTransform="matrix(0.0875,0,0,0.0875,414.9,97.5)"
       gradientUnits="userSpaceOnUse"
       id="linearGradient3310"
       xlink:href="#outerBackgroundGradient"
       inkscape:collect="always" />
    <linearGradient
       y2="40.00005"
       x2="264"
       y1="280.00003"
       x1="264"
       gradientTransform="matrix(0.06666667,0,0,0.06666667,414.4,137.33333)"
       gradientUnits="userSpaceOnUse"
       id="linearGradient3308"
       xlink:href="#outerBackgroundGradient"
       inkscape:collect="always" />
    <linearGradient
       y2="32"
       x2="272"
       y1="288"
       x1="272"
       gradientTransform="translate(0,-4)"
       gradientUnits="userSpaceOnUse"
       id="linearGradient3306"
       xlink:href="#outerBackgroundGradient"
       inkscape:collect="always" />
    <linearGradient
       y2="35.499996"
       x2="401.5"
       y1="134.5"
       x1="401.5"
       gradientTransform="matrix(0.21212121,0,0,0.21212121,349.33333,129.9697)"
       gradientUnits="userSpaceOnUse"
       id="linearGradient3245"
       xlink:href="#linearGradient4041"
       inkscape:collect="always" />
    <linearGradient
       y2="35.499996"
       x2="401.5"
       y1="134.5"
       x1="401.5"
       gradientTransform="matrix(0.24242424,0,0,0.24242424,342.66667,91.393942)"
       gradientUnits="userSpaceOnUse"
       id="linearGradient3243"
       xlink:href="#linearGradient4041"
       inkscape:collect="always" />
    <linearGradient
       y2="35.499996"
       x2="401.5"
       y1="134.5"
       x1="401.5"
       gradientTransform="matrix(0.33333333,0,0,0.33333333,314.66667,39.66667)"
       gradientUnits="userSpaceOnUse"
       id="linearGradient3241"
       xlink:href="#linearGradient4041"
       inkscape:collect="always" />
    <linearGradient
       y2="35.499996"
       x2="401.5"
       y1="134.5"
       x1="401.5"
       gradientTransform="matrix(2.2727272,0,0,2.2727273,-655.99999,-37.181796)"
       gradientUnits="userSpaceOnUse"
       id="linearGradient3239"
       xlink:href="#linearGradient4041"
       inkscape:collect="always" />
    <linearGradient
       y2="35.499996"
       x2="401.5"
       y1="134.5"
       x1="401.5"
       gradientTransform="translate(-15.999999,-8.99999)"
       gradientUnits="userSpaceOnUse"
       id="linearGradient3237"
       xlink:href="#linearGradient4041"
       inkscape:collect="always" />
    <linearGradient
       y2="35.499996"
       x2="401.5"
       y1="134.5"
       x1="401.5"
       gradientTransform="matrix(0.66666666,0,0,0.66666666,85.333336,115.33334)"
       gradientUnits="userSpaceOnUse"
       id="linearGradient3235"
       xlink:href="#linearGradient4041"
       inkscape:collect="always" />
    <linearGradient
       y2="35.499996"
       x2="401.5"
       y1="134.5"
       x1="401.5"
       gradientTransform="matrix(0.48484848,0,0,0.48484848,141.33334,202.78788)"
       gradientUnits="userSpaceOnUse"
       id="linearGradient3233"
       xlink:href="#linearGradient4041"
       inkscape:collect="always" />
    <linearGradient
       id="outerBackgroundGradient">
      <stop
         style="stop-color:#6c3c3c;stop-opacity:1;"
         offset="0"
         id="stop3864-8-6" />
      <stop
         style="stop-color:#9a5757;stop-opacity:1;"
         offset="1"
         id="stop3866-9-1" />
    </linearGradient>
    <linearGradient
       inkscape:collect="always"
       xlink:href="#outerBackgroundGradient"
       id="linearGradient4097"
       gradientUnits="userSpaceOnUse"
       x1="264"
       y1="280.00003"
       x2="264"
       y2="40.00005"
       gradientTransform="matrix(0.06666667,0,0,0.06666667,414.4,137.33333)" />
    <linearGradient
       inkscape:collect="always"
       xlink:href="#outerBackgroundGradient"
       id="linearGradient4101"
       gradientUnits="userSpaceOnUse"
       gradientTransform="matrix(0.0875,0,0,0.0875,414.9,97.5)"
       x1="286.85715"
       y1="302.85715"
       x2="286.85715"
       y2="28.571428" />
    <linearGradient
       inkscape:collect="always"
       xlink:href="#outerBackgroundGradient"
       id="linearGradient4153"
       gradientUnits="userSpaceOnUse"
       gradientTransform="matrix(0.11931818,0,0,0.11931818,414.13636,48.22727)"
       x1="283.80957"
       y1="299.80954"
       x2="283.80957"
       y2="31.61907" />
    <linearGradient
       inkscape:collect="always"
       xlink:href="#outerBackgroundGradient"
       id="linearGradient4869"
       gradientUnits="userSpaceOnUse"
       gradientTransform="matrix(0.175,0,0,-0.175,286.79999,-215.99997)"
       x1="281.14291"
       y1="297.14304"
       x2="281.14291"
       y2="22.857315" />
    <clipPath
       clipPathUnits="userSpaceOnUse"
       id="clipPath4891">
      <rect
         ry="9"
         y="223"
         x="307"
         height="42"
         width="42"
         id="rect4893"
         style="color:#bebebe;fill:url(#linearGradient4895);fill-opacity:1;fill-rule:nonzero;stroke:none;stroke-width:0;marker:none;visibility:visible;display:inline;overflow:visible;enable-background:accumulate"
         transform="matrix(0,1,-1,0,0,0)" />
    </clipPath>
    <linearGradient
       inkscape:collect="always"
       xlink:href="#outerBackgroundGradient"
       id="linearGradient4895"
       gradientUnits="userSpaceOnUse"
       gradientTransform="matrix(0.175,0,0,0.175,302.79999,215.99997)"
       x1="144.00006"
       y1="280.00018"
       x2="144.00006"
       y2="40.000172" />
    <clipPath
       clipPathUnits="userSpaceOnUse"
       id="clipPath4044">
      <rect
         ry="4"
         y="85"
         x="433"
         height="22"
         width="22"
         id="rect4046"
         style="color:#bebebe;fill:url(#linearGradient4048);fill-opacity:1;fill-rule:nonzero;stroke:none;stroke-width:0;marker:none;visibility:visible;display:inline;overflow:visible;enable-background:accumulate" />
    </clipPath>
    <linearGradient
       inkscape:collect="always"
       xlink:href="#outerBackgroundGradient"
       id="linearGradient4048"
       gradientUnits="userSpaceOnUse"
       gradientTransform="matrix(0.0875,0,0,0.0875,430.9,81.499996)"
       x1="149.71428"
       y1="291.42862"
       x2="149.71428"
       y2="40.000046" />
    <clipPath
       clipPathUnits="userSpaceOnUse"
       id="clipPath4089">
      <rect
         style="color:#bebebe;fill:url(#linearGradient4093);fill-opacity:1;fill-rule:nonzero;stroke:none;stroke-width:0;marker:none;visibility:visible;display:inline;overflow:visible;enable-background:accumulate"
         id="rect4091"
         width="30"
         height="30"
         x="433"
         y="37"
         ry="6" />
    </clipPath>
    <linearGradient
       inkscape:collect="always"
       xlink:href="#outerBackgroundGradient"
       id="linearGradient4093"
       gradientUnits="userSpaceOnUse"
       gradientTransform="matrix(0.11931818,0,0,0.11931818,430.13636,32.227267)"
       x1="149.71432"
       y1="291.42862"
       x2="149.71432"
       y2="40.00005" />
    <clipPath
       clipPathUnits="userSpaceOnUse"
       id="clipPath3855">
      <rect
         style="color:#bebebe;fill:url(#linearGradient3859);fill-opacity:1;fill-rule:nonzero;stroke:none;stroke-width:0;marker:none;visibility:visible;display:inline;overflow:visible;enable-background:accumulate"
         id="rect3857"
         width="16"
         height="16"
         x="304"
         y="212"
         ry="3"
         transform="matrix(0,1,-1,0,0,0)" />
    </clipPath>
    <linearGradient
       inkscape:collect="always"
       xlink:href="#outerBackgroundGradient"
       id="linearGradient3859"
       gradientUnits="userSpaceOnUse"
       gradientTransform="matrix(0.06666667,0,0,0.06666667,302.4,209.33333)"
       x1="144"
       y1="280.00003"
       x2="144"
       y2="40.00005" />
    <clipPath
       clipPathUnits="userSpaceOnUse"
       id="clipPath3862">
      <rect
         ry="50"
         y="46"
         x="34"
         height="220"
         width="220"
         id="rect3864"
         style="color:#bebebe;fill:url(#linearGradient3866);fill-opacity:1;fill-rule:nonzero;stroke:none;stroke-width:0;marker:none;visibility:visible;display:inline;overflow:visible;enable-background:accumulate" />
    </clipPath>
    <linearGradient
       inkscape:collect="always"
       xlink:href="#outerBackgroundGradient"
       id="linearGradient3866"
       gradientUnits="userSpaceOnUse"
       gradientTransform="translate(0,-4)"
       x1="144"
       y1="280"
       x2="144"
       y2="40" />
    <linearGradient
       inkscape:collect="always"
       xlink:href="#outerBackgroundGradient"
       id="linearGradient3876"
       gradientUnits="userSpaceOnUse"
       gradientTransform="translate(0,-4)"
       x1="272"
       y1="288"
       x2="272"
       y2="32" />
    <clipPath
       clipPathUnits="userSpaceOnUse"
       id="clipPath4187">
      <rect
         ry="12.5"
         y="142"
         x="290"
         height="60"
         width="60"
         id="rect4189"
         style="color:#bebebe;fill:url(#linearGradient4191);fill-opacity:1;fill-rule:nonzero;stroke:none;stroke-width:0;marker:none;visibility:visible;display:inline;overflow:visible;enable-background:accumulate" />
    </clipPath>
    <linearGradient
       inkscape:collect="always"
       xlink:href="#outerBackgroundGradient"
       id="linearGradient4191"
       gradientUnits="userSpaceOnUse"
       x1="352"
       y1="204"
       x2="352"
       y2="140" />
    <linearGradient
       inkscape:collect="always"
       xlink:href="#outerBackgroundGradient"
       id="linearGradient4197"
       gradientUnits="userSpaceOnUse"
       x1="384"
       y1="124"
       x2="384"
       y2="28" />
    <linearGradient
       inkscape:collect="always"
       xlink:href="#outerBackgroundGradient"
       id="linearGradient4199"
       gradientUnits="userSpaceOnUse"
       x1="352"
       y1="204"
       x2="352"
       y2="140" />
    <clipPath
       clipPathUnits="userSpaceOnUse"
       id="clipPath4346">
      <rect
         style="color:#bebebe;fill:url(#linearGradient4350);fill-opacity:1;fill-rule:nonzero;stroke:none;stroke-width:0;marker:none;visibility:visible;display:inline;overflow:visible;enable-background:accumulate"
         id="rect4348"
         width="88"
         height="88"
         x="292"
         y="32"
         ry="18" />
    </clipPath>
    <linearGradient
       inkscape:collect="always"
       xlink:href="#outerBackgroundGradient"
       id="linearGradient4350"
       gradientUnits="userSpaceOnUse"
       x1="384"
       y1="124"
       x2="384"
       y2="28" />
    <clipPath
       clipPathUnits="userSpaceOnUse"
       id="clipPath3871">
      <rect
         ry="5"
         y="101"
         x="417"
         height="22"
         width="22"
         id="rect3873"
         style="color:#bebebe;fill:url(#linearGradient3875);fill-opacity:1;fill-rule:nonzero;stroke:none;stroke-width:0;marker:none;visibility:visible;display:inline;overflow:visible;enable-background:accumulate" />
    </clipPath>
    <linearGradient
       inkscape:collect="always"
       xlink:href="#outerBackgroundGradient"
       id="linearGradient3875"
       gradientUnits="userSpaceOnUse"
       gradientTransform="matrix(0.0875,0,0,0.0875,414.9,97.5)"
       x1="286.85715"
       y1="302.85715"
       x2="286.85715"
       y2="28.571428" />
    <clipPath
       clipPathUnits="userSpaceOnUse"
       id="clipPath3881">
      <rect
         style="color:#bebebe;fill:url(#linearGradient3885);fill-opacity:1;fill-rule:nonzero;stroke:none;stroke-width:0;marker:none;visibility:visible;display:inline;overflow:visible;enable-background:accumulate"
         id="rect3883"
         width="30"
         height="30"
         x="417"
         y="53"
         ry="7" />
    </clipPath>
    <linearGradient
       inkscape:collect="always"
       xlink:href="#outerBackgroundGradient"
       id="linearGradient3885"
       gradientUnits="userSpaceOnUse"
       gradientTransform="matrix(0.11931818,0,0,0.11931818,414.13636,48.22727)"
       x1="283.80957"
       y1="299.80954"
       x2="283.80957"
       y2="31.61907" />
    <clipPath
       clipPathUnits="userSpaceOnUse"
       id="clipPath4059">
      <path
         inkscape:connector-curvature="0"
         style="fill:url(#linearGradient4063);fill-opacity:1;fill-rule:evenodd;stroke:none;display:inline;enable-background:new"
         d="m 354.86109,118 c -1.8996,-12.45313 -13.15124,-10.92696 -20.45752,-20.554999 -4.49745,-5.081917 -6.90039,-18.152021 2.43544,-27.37416 -1.1041,9.579323 0.17861,13.6059 5.45531,17.924775 -2.35422,-4.952062 -3.08439,-11.995623 -0.82801,-16.853182 2.76375,-5.949983 10.39112,-12.87528 10.52102,-19.142434 4.36202,2.178866 7.92821,8.352919 5.94243,14.368984 -3.85543,11.680556 0.10189,12.135543 1.94832,13.248716 -0.37991,-7.072519 1.0237,-8.206151 2.38673,-10.423628 1.02898,7.51113 12.13245,12.469545 11.25168,21.870132 -0.54446,5.811093 -5.52033,11.186756 -9.69301,14.563846 0.37909,-7.615119 0.0767,-8.633953 -7.11146,-14.612521 -2.75975,-2.295398 -3.9291,-3.912975 -5.30916,-6.867919 -0.85908,2.610094 -2.43714,6.487429 3.26799,14.45466 5.21391,7.28145 0.61392,16.7798 0.19057,19.39773 z"
         id="path4061"
         sodipodi:nodetypes="ccccscsccscscsc" />
    </clipPath>
    <clipPath
       clipPathUnits="userSpaceOnUse"
       id="clipPath3319">
      <path
         inkscape:connector-curvature="0"
         style="fill:url(#linearGradient4063);fill-opacity:1;fill-rule:evenodd;stroke:none;display:inline;enable-background:new"
         d="m 354.86109,118 c -1.8996,-12.45313 -13.15124,-10.92696 -20.45752,-20.554999 -4.49745,-5.081917 -6.90039,-18.152021 2.43544,-27.37416 -1.1041,9.579323 0.17861,13.6059 5.45531,17.924775 -2.35422,-4.952062 -3.08439,-11.995623 -0.82801,-16.853182 2.76375,-5.949983 10.39112,-12.87528 10.52102,-19.142434 4.36202,2.178866 7.92821,8.352919 5.94243,14.368984 -3.85543,11.680556 0.10189,12.135543 1.94832,13.248716 -0.37991,-7.072519 1.0237,-8.206151 2.38673,-10.423628 1.02898,7.51113 12.13245,12.469545 11.25168,21.870132 -0.54446,5.811093 -5.52033,11.186756 -9.69301,14.563846 0.37909,-7.615119 0.0767,-8.633953 -7.11146,-14.612521 -2.75975,-2.295398 -3.9291,-3.912975 -5.30916,-6.867919 -0.85908,2.610094 -2.43714,6.487429 3.26799,14.45466 5.21391,7.28145 0.61392,16.7798 0.19057,19.39773 z"
         id="path3321"
         sodipodi:nodetypes="ccccscsccscscsc" />
    </clipPath>
    <linearGradient
       inkscape:collect="always"
       xlink:href="#linearGradient4041"
       id="linearGradient4145"
       gradientUnits="userSpaceOnUse"
       x1="344"
       y1="48"
       x2="360"
       y2="120"
       gradientTransform="matrix(0.48484848,0,0,0.48484848,157.33334,210.78788)" />
    <linearGradient
       id="linearGradient4041">
      <stop
         style="stop-color:#ff6b00;stop-opacity:1;"
         offset="0"
         id="stop4043" />
      <stop
         style="stop-color:#ffee00;stop-opacity:1;"
         offset="1"
         id="stop4045" />
    </linearGradient>
    <linearGradient
       y2="120"
       x2="360"
       y1="48"
       x1="344"
       gradientTransform="matrix(0.48484848,0,0,0.48484848,141.33334,202.78788)"
       gradientUnits="userSpaceOnUse"
       id="linearGradient3332"
       xlink:href="#linearGradient4041"
       inkscape:collect="always" />
    <linearGradient
       inkscape:collect="always"
       xlink:href="#linearGradient4041"
       id="linearGradient3871"
       gradientUnits="userSpaceOnUse"
       gradientTransform="matrix(0.48484848,0,0,0.48484848,141.33334,202.78788)"
       x1="401.5"
       y1="134.5"
       x2="401.5"
       y2="35.499996" />
    <linearGradient
       inkscape:collect="always"
       xlink:href="#linearGradient4041"
       id="linearGradient3879"
       gradientUnits="userSpaceOnUse"
       gradientTransform="matrix(0.66666666,0,0,0.66666666,85.333336,115.33334)"
       x1="401.5"
       y1="134.5"
       x2="401.5"
       y2="35.499996" />
    <linearGradient
       inkscape:collect="always"
       xlink:href="#linearGradient4041"
       id="linearGradient3883"
       gradientUnits="userSpaceOnUse"
       gradientTransform="translate(-15.999999,-8.99999)"
       x1="401.5"
       y1="134.5"
       x2="401.5"
       y2="35.499996" />
    <linearGradient
       inkscape:collect="always"
       xlink:href="#linearGradient4041"
       id="linearGradient3887"
       gradientUnits="userSpaceOnUse"
       gradientTransform="matrix(2.2727272,0,0,2.2727273,-655.99999,-37.181796)"
       x1="401.5"
       y1="134.5"
       x2="401.5"
       y2="35.499996" />
    <linearGradient
       inkscape:collect="always"
       xlink:href="#linearGradient4041"
       id="linearGradient3891"
       gradientUnits="userSpaceOnUse"
       gradientTransform="matrix(0.33333333,0,0,0.33333333,314.66667,39.66667)"
       x1="401.5"
       y1="134.5"
       x2="401.5"
       y2="35.499996" />
    <linearGradient
       inkscape:collect="always"
       xlink:href="#linearGradient4041"
       id="linearGradient3895"
       gradientUnits="userSpaceOnUse"
       gradientTransform="matrix(0.24242424,0,0,0.24242424,342.66667,91.393942)"
       x1="401.5"
       y1="134.5"
       x2="401.5"
       y2="35.499996" />
    <linearGradient
       inkscape:collect="always"
       xlink:href="#linearGradient4041"
       id="linearGradient3899"
       gradientUnits="userSpaceOnUse"
       gradientTransform="matrix(0.21212121,0,0,0.21212121,349.33333,129.9697)"
       x1="401.5"
       y1="134.5"
       x2="401.5"
       y2="35.499996" />
    <linearGradient
       x2="0"
       gradientUnits="userSpaceOnUse"
       y2="268.33"
       y1="279.096"
       id="linearGradient4428"
       xlink:href="#linearGradient4460-0"
       gradientTransform="matrix(1.10525,0,0,1.10525,-134.27874,-295.76183)" />
    <linearGradient
       id="linearGradient4460-0">
      <stop
         id="stop7-5"
         style="stop-color:#ad5517"
         offset="0" />
      <stop
         id="stop9-3"
         style="stop-color:#e16f1f"
         offset="1" />
    </linearGradient>
    <linearGradient
       inkscape:collect="always"
       xlink:href="#linearGradient4041"
       id="linearGradient3249"
       gradientUnits="userSpaceOnUse"
       x1="373.88678"
       y1="836.39526"
       x2="400.17776"
       y2="18.924049" />
    <linearGradient
       inkscape:collect="always"
       xlink:href="#linearGradient4460"
       id="linearGradient4028"
       gradientUnits="userSpaceOnUse"
       gradientTransform="matrix(1.10525,0,0,1.10525,-134.25208,-295.76214)"
       y1="279.096"
       x2="0"
       y2="268.33" />
  </defs>
  <rect
     id="rect14"
     style="opacity:0.5;fill:#ffffff;fill-rule:evenodd"
     height="12.982"
     rx="6.4910002"
     y="0.28200001"
     x="0.28200001"
     width="12.982" />
  <rect
     id="rect16"
     style="fill:url(#linearGradient4028);fill-rule:evenodd"
     height="11.853"
     rx="5.9260001"
     y="0.847"
     x="0.87300003"
     width="11.853" />
  <path
     style="fill:#f9f9f9;fill-opacity:0.667"
     d="M 22.625 3.0625 C 12.068725 3.7825199 3.7056169 12.217313 3.125 22.8125 C 3.3622916 23.210079 3.7367259 23.547102 3.96875 23.96875 L 4.09375 25.15625 L 4.34375 24.03125 L 6.78125 25.0625 L 8.46875 26.625 L 9.90625 26.84375 C 9.3896504 28.00919 8.3408529 29.88648 8.53125 31.1875 C 8.6419925 31.944182 9.4310403 33.009135 9.875 33.625 C 10.495208 34.485182 11.656472 34.979613 11.96875 36.0625 L 12 37.875 L 12.34375 39.1875 C 12.277352 39.741694 11.755884 40.715842 12.0625 41.25 C 12.891432 41.828623 13.776273 42.294084 14.6875 42.75 C 15.230703 42.835729 15.273415 42.256915 15.03125 41.875 L 15.84375 40.75 L 16.90625 39.96875 L 17.375 38.34375 C 16.816383 38.174593 16.216916 37.962877 15.5 37.5 C 12.170044 35.35 10.25547 32.700037 10.03125 29.59375 C 9.9066538 27.86758 10.385997 26.646244 11.53125 24.875 L 11.46875 24.84375 C 10.892105 24.76174 10.123272 25.700483 9.90625 26.15625 L 9.125 26.0625 L 9.34375 25.84375 L 8.6875 25.375 L 8.78125 25.84375 C 8.3007457 25.34698 8.226767 24.691343 8.34375 24.03125 L 7.5625 23.71875 L 7.4375 24.03125 C 7.2981669 23.479893 7.3649922 22.782534 7.78125 22.375 C 7.1706454 21.958559 6.7691304 22.341215 6.34375 22.8125 L 5.4375 21.03125 C 5.1920516 21.578044 5.2984807 22.140099 5.34375 22.71875 L 5.125 22.71875 C 5.0757916 22.095312 4.9026962 21.400067 5.21875 20.8125 C 5.809369 19.714463 7.5982832 19.244149 8.6875 19.46875 L 8.5625 19.6875 L 9.5625 20.59375 C 9.56708 18.890208 10.245882 18.708947 11.1875 17.46875 L 11.84375 16.28125 C 12.574476 15.477549 13.707 14.923905 14.6875 14.5625 L 15.90625 13.78125 C 15.508502 13.09286 14.483732 13.299073 13.8125 13.34375 C 15.019492 12.656917 16.641993 13.024911 17.46875 11.78125 C 16.566792 11.124946 16.562274 9.4271436 15.125 10.125 L 15.375 9.4375 L 14.125 8.90625 L 13.25 10.75 L 12.03125 12.25 L 11.90625 11.46875 C 11.434997 11.249831 10.150292 10.842743 10.125 10.21875 C 10.097509 9.5406089 12.180371 8.5365069 12.6875 8.125 L 12.46875 8.65625 L 13.3125 8.59375 C 13.495544 8.4781496 15.245822 6.0313761 15.46875 7.5625 C 16.676746 8.0203608 16.813 8.5388622 18.03125 7.78125 L 17.25 7.4375 C 17.127116 6.3372135 16.161209 6.3443548 15.25 6.34375 L 18.15625 5 C 18.478765 5.7910093 19.485184 5.9589684 19.8125 6.6875 C 20.045026 7.2051353 19.357488 7.5032989 19.375 8 C 19.39654 8.6123919 19.970367 9.3747228 20.25 9.90625 L 21.9375 8.0625 C 22.862299 7.5694187 24.357232 7.515441 25.09375 6.71875 C 25.946467 5.7962702 25.474599 4.3181126 27.0625 4.3125 C 26.740307 4.1769685 26.210453 4.0740638 25.9375 4.3125 L 25.625 4 L 26.0625 4 C 25.829561 3.6805103 25.670828 3.5030611 25.28125 3.4375 C 24.833606 2.8840437 23.795175 3.1543218 23.15625 3.09375 C 22.981319 3.07717 22.802463 3.075425 22.625 3.0625 z M 33.625 6.4375 C 33.23339 6.7581374 32.563612 6.9230624 32.0625 7 L 31.15625 8.25 L 30.09375 9.125 C 29.922941 9.5307657 30.197036 10.154081 30.28125 10.5625 L 31.40625 10 C 31.566478 10.553589 31.997157 10.693179 32.40625 11 C 33.066676 9.7467677 32.48319 8.5749571 34.0625 7.90625 L 33.0625 9.125 L 33.40625 8.90625 L 33.53125 9.5625 L 33.625 8.65625 C 33.919236 9.6612623 33.6319 11.058158 32.53125 11.4375 L 31.40625 11.34375 L 31.40625 10.6875 C 30.772551 10.81973 30.801747 11.132702 30.96875 11.6875 C 30.538701 11.565303 30.285706 11.582728 29.96875 11.90625 C 29.628413 11.55652 29.331719 11.277241 29.28125 10.78125 C 29.064896 10.565767 28.959768 10.431166 28.9375 10.125 L 28.1875 10 L 28.5 11.78125 C 28.202777 11.223652 27.901124 11.084393 27.28125 11.21875 L 27.625 12.5625 L 28.0625 12.46875 L 27.71875 12.34375 L 28.1875 11.5625 L 28.40625 12.78125 L 29.40625 12.5625 C 29.125386 12.830902 28.88737 12.905655 28.5 12.90625 L 28.625 13.25 L 28.0625 13.25 L 28.84375 14.5625 C 27.91272 14.5702 27.470458 14.842075 27.25 15.28125 C 27.841023 15.740493 28.325153 16.229712 28.71875 16.75 C 29.555435 15.983252 30.059164 15.03617 31.40625 14.6875 C 31.690246 15.570631 32.55075 15.528354 32.28125 16.59375 C 33.141101 16.418268 33.387201 15.692122 32.84375 15.03125 C 33.576371 15.467622 33.80793 16.358566 34.3125 17.03125 C 34.667681 16.564894 34.53046 16.024841 35.09375 15.6875 L 35.09375 16.03125 C 36.03749 16.868705 36.684378 17.045954 37.875 17.46875 C 37.465798 18.049633 36.955987 18.610183 36.1875 18.5625 C 35.246768 18.50422 34.050303 17.584223 33.40625 18.6875 L 31.625 17.28125 C 30.744416 16.909887 29.867757 17.138527 28.96875 17.125 C 32.467915 19.077974 30.651698 18.001953 31.84375 18.65625 C 33.722475 20.071635 34.984071 20.719895 36.40625 22.75 C 37.768953 24.936437 38.043788 26.279536 38 28.125 C 37.582499 30.91377 37.151231 31.563968 34.28125 33.78125 C 33.376236 34.362499 32.77592 34.889612 32.34375 35.375 L 32.3125 35.625 C 32.556563 37.321854 33.516545 38.75318 33.53125 40.53125 C 34.897227 40.390545 36.428924 39.708606 37.1875 38.53125 L 37.5 37.53125 L 38.0625 36.84375 L 37.84375 35.75 C 38.162612 34.984742 39.462066 34.898617 39.65625 34.0625 C 39.920722 32.924244 39.244209 31.592304 39.65625 30.40625 C 40.291721 28.577601 42.045069 27.226214 42.09375 25.15625 L 40.75 25.28125 C 41.952428 23.805653 44.518772 23.0508 43.21875 20.8125 L 42.65625 21.46875 L 42.4375 21.46875 C 42.007314 20.566112 41.313389 20.495877 41.3125 19.375 C 42.355391 20.272614 43.441618 20.2959 44.4375 21.375 C 44.660145 21.254481 44.780501 21.036256 44.84375 20.78125 C 44.842198 20.771034 44.845317 20.760211 44.84375 20.75 C 44.034458 15.476338 41.26532 10.890516 37.3125 7.6875 C 37.299561 7.6831057 37.294332 7.660435 37.28125 7.65625 C 37.151198 7.6146463 37.020722 7.58142 36.875 7.5625 L 36.9375 7.375 C 36.855692 7.3117764 36.770269 7.2495328 36.6875 7.1875 C 35.772916 7.0903721 34.482165 7.0334607 33.84375 6.4375 L 33.625 6.4375 z "
     transform="scale(0.28222223,0.28222223)"
     id="path18" />
  <path
     style="fill:#ef793e;fill-opacity:1"
     id="path20"
     d="M 5.6450788,3.1044433 C 5.4822663,3.3222094 5.4697737,3.7964636 5.9383116,4.1645847 6.4785272,4.7188303 6.6157308,5.135921 6.6094893,5.9389238 6.6043805,6.5960161 6.3301721,6.7646205 6.091485,7.3509818 5.8094946,7.9010235 5.7240087,8.1653299 5.9280405,8.5900421 6.0002125,8.7752159 6.1124703,8.9073237 6.2547918,9.1190303 6.0329271,8.9700855 5.8311048,8.8742088 5.6292827,8.610284 5.4416509,8.3187856 5.2926606,8.1935237 5.7220409,7.0009038 5.8220594,6.7223654 5.962204,6.3021749 6.0120652,6.0147833 6.030984,5.8184625 6.0097768,5.5261965 5.8782239,5.2841687 5.5076958,4.7954846 5.4162729,4.8361682 4.9314746,4.5529363 5.1991526,5.037791 5.0511519,5.2651074 4.2764297,6.2297788 3.6254062,7.1608447 3.346464,7.5158559 3.3913092,8.1440499 c 0.05424,0.759775 0.516917,1.4026803 1.3224493,1.9285541 0.2632885,0.171881 0.4918882,0.211101 0.6571328,0.269081 l 0.499869,0.100538 C 5.6682673,10.31862 5.4958686,10.248137 5.2632812,10.071415 4.7840062,9.6420843 4.5074346,9.1122904 4.4569722,8.529947 4.4269747,8.1837632 4.4924752,7.7500831 4.5108973,8.1037639 c 0.011622,0.070674 0.062349,0.2979254 0.1024746,0.3466896 0.080252,0.1925855 0.4503505,0.7225642 0.7860059,1.0463567 0.1692105,0.1632292 0.517038,0.4473403 0.7834384,0.6092738 0.4855497,0.236942 0.7002505,0.270259 1.0654228,0.31243 0.3151555,0 0.699491,-0.04946 0.5719136,-0.04203 C 7.1670972,9.5233526 7.1431564,9.4843246 7.1059512,8.9420316 7.1086504,8.4407514 7.3106659,8.3296258 7.6642329,7.7030242 8.1035977,6.924371 8.213504,6.578895 8.216323,6.000413 8.2204135,5.1616177 7.8173775,4.7167524 6.9368446,4.2484254 6.6916062,4.1258248 6.6248031,4.0913001 6.1770082,3.9165082 5.9195271,3.7961748 5.6620462,3.5343314 5.6450788,3.1044433 z M 8.6720357,5.4637757 C 8.9012951,5.7721268 9.1005661,6.2308326 9.119293,6.5568723 9.0685559,6.982404 9.0658638,7.011924 8.5090595,7.6351744 8.2774636,7.9337142 8.1408348,8.119121 8.0802946,8.2414061 7.9089175,8.5875781 7.9039006,9.4546453 8.1855086,9.9251131 L 8.4191843,10.317371 8.5218989,10.024768 C 8.6009124,9.8010189 8.7072548,9.5228549 9.2568072,9.1659812 9.9510688,8.6236504 10.057952,8.4643154 10.158947,7.7822027 10.16954,7.3308156 10.104396,7.0017627 9.7747526,6.4669762 9.4307199,5.9704274 9.1265086,5.8099686 8.6720357,5.4637757 z"
     inkscape:connector-curvature="0" />
  <g
     id="layer7"
     inkscape:label="Baseplate"
     style="display:none"
     transform="matrix(0.28222223,0,0,0.28222223,34.431913,-36.536695)">
    <text
       id="context"
       inkscape:label="context"
       style="font-size:18px;font-style:normal;font-variant:normal;font-weight:normal;font-stretch:normal;fill:#000000;fill-opacity:1;stroke:none;display:inline;enable-background:new;font-family:DejaVu Sans;-inkscape-font-specification:DejaVu Sans"
       x="15.006836"
       xml:space="preserve"
       y="19.745117"><tspan
         id="tspan3933"
         sodipodi:role="line"
         x="15.006836"
         y="19.745117"
         style="font-style:normal;font-variant:normal;font-weight:normal;font-stretch:normal;font-family:DejaVu Sans;-inkscape-font-specification:DejaVu Sans">apps</tspan></text>
    <text
       id="icon-name"
       inkscape:label="icon-name"
       sodipodi:linespacing="125%"
       style="font-size:18px;font-style:normal;font-variant:normal;font-weight:bold;font-stretch:normal;text-align:start;line-height:125%;writing-mode:lr-tb;text-anchor:start;fill:#000000;fill-opacity:1;stroke:none;display:inline;enable-background:new;font-family:DejaVu Sans;-inkscape-font-specification:DejaVu Sans Bold"
       x="122.48828"
       xml:space="preserve"
       y="19.745117"><tspan
         id="tspan3937"
         sodipodi:role="line"
         x="122.48828"
         y="19.745117"
         style="font-size:18px;font-style:normal;font-variant:normal;font-weight:bold;font-stretch:normal;font-family:DejaVu Sans;-inkscape-font-specification:DejaVu Sans Bold">firewall</tspan></text>
    <rect
       inkscape:label="16x16"
       y="140"
       x="416"
       height="16"
       width="16"
       id="rect16x16"
       style="fill:#eeeeec;fill-opacity:1;fill-rule:nonzero;stroke:none;stroke-width:2;marker:none;visibility:visible;display:inline;overflow:visible;enable-background:accumulate" />
    <rect
       inkscape:label="24x24"
       y="100"
       x="416"
       height="24"
       width="24"
       id="rect24x24"
       style="fill:#d4d4d4;fill-opacity:1;fill-rule:nonzero;stroke:none;stroke-width:2;marker:none;visibility:visible;display:inline;overflow:visible;enable-background:accumulate" />
    <rect
       inkscape:label="32x32"
       y="52"
       x="416"
       height="32"
       width="32"
       id="rect32x32"
       style="fill:#eeeeec;fill-opacity:1;fill-rule:nonzero;stroke:none;stroke-width:2;marker:none;visibility:visible;display:inline;overflow:visible;enable-background:accumulate" />
    <rect
       style="fill:#eeeeec;fill-opacity:1;fill-rule:nonzero;stroke:none;stroke-width:2;marker:none;visibility:visible;display:inline;overflow:visible;enable-background:accumulate"
       id="rect22x22"
       width="22"
       height="22"
       x="417"
       y="101"
       inkscape:label="22x22" />
    <rect
       style="fill:#eeeeec;fill-opacity:1;fill-rule:nonzero;stroke:none;stroke-width:2;marker:none;visibility:visible;display:inline;overflow:visible;enable-background:accumulate"
       id="rect48x48"
       width="48"
       height="48"
       x="288"
       y="220"
       inkscape:label="48x48" />
    <rect
       inkscape:label="256x256"
       y="28"
       x="16"
       height="256"
       width="256"
       id="rect256x256"
       style="fill:#eeeeec;fill-opacity:1;fill-rule:nonzero;stroke:none;stroke-width:2;marker:none;visibility:visible;display:inline;overflow:visible;enable-background:accumulate" />
    <rect
       inkscape:label="64x64"
       y="140"
       x="288"
       height="64"
       width="64"
       id="rect64x64"
       style="fill:#eeeeec;fill-opacity:1;fill-rule:nonzero;stroke:none;stroke-width:2;marker:none;visibility:visible;display:inline;overflow:visible;enable-background:accumulate" />
    <rect
       inkscape:label="96x96"
       y="28"
       x="288"
       height="96"
       width="96"
       id="rect96x96"
       style="fill:#eeeeec;fill-opacity:1;fill-rule:nonzero;stroke:none;stroke-width:2;marker:none;visibility:visible;display:inline;overflow:visible;enable-background:accumulate" />
  </g>
  <g
     style="display:inline"
     inkscape:label="Shadow"
     id="layer4"
     transform="matrix(0.28222223,0,0,0.28222223,34.431913,-36.536695)" />
  <g
     style="display:inline"
     inkscape:label="Background"
     id="layer2"
     transform="matrix(0.28222223,0,0,0.28222223,34.431913,-36.536695)" />
  <g
     style="display:inline"
     inkscape:label="Symbols"
     id="layer6"
     transform="matrix(0.28222223,0,0,0.28222223,34.431913,-36.536695)" />
  <g
     style="display:inline"
     inkscape:label="Highlights"
     id="layer5"
     transform="matrix(0.28222223,0,0,0.28222223,34.431913,-36.536695)" />
</svg>
