<svg xmlns="http://www.w3.org/2000/svg" xmlns:xlink="http://www.w3.org/1999/xlink" width="48" viewBox="0 0 13.546667 13.546667" height="48">
 <defs>
  <linearGradient xlink:href="#1" id="0" gradientUnits="userSpaceOnUse" gradientTransform="matrix(1.10525,0,0,1.10525,-134.2785,-295.76167)" y1="279.1" x2="0" y2="268.33"/>
  <linearGradient id="1">
   <stop stop-color="#bebebe"/>
   <stop offset="1" stop-color="#dddddd"/>
  </linearGradient>
 </defs>
 <rect height="12.982" rx="6.491" y="0.282" x="0.282" width="12.982" opacity="0.5" fill="#ffffff" fill-rule="evenodd"/>
 <rect height="11.853" rx="5.926" y="0.847" x="0.847" width="11.853" fill="url(#0)" fill-rule="evenodd"/>
 <path d="M 30.117649,1.6324354 30.208397,19.171502 15.064494,28.019625 -0.17015663,19.328681 -0.26090447,1.7896153 14.882998,-7.0585078 z" transform="matrix(0.18577087,9.4862511e-4,-9.1268129e-4,0.19308786,4.0014353,4.7359045)" fill="#800000"/>
 <g transform="matrix(0.28222223,0,0,0.28222223,4.5155557,4.5155557)" fill="#ffdab9">
  <path d="m 7.25,0 0,16 1.5,0 0,-16 z"/>
  <path d="M 10.5,12.5 C 10.5,13.328428 9.380712,14 8,14 6.6192883,14 5.5,13.328428 5.5,12.5 5.5,11.671574 6.6192883,11 8,11 c 1.380712,0 2.5,0.671574 2.5,1.5 z"/>
  <path d="m 3.2500001,15 0,-14 -1.5,0 0,14 z"/>
  <path d="M 5.0000001,5.5 C 5.0000001,6.328428 3.8807122,7 2.5000002,7 1.1192883,7 0,6.328428 0,5.5 0,4.671574 1.1192883,4 2.5000002,4 3.8807122,4 5.0000001,4.671574 5.0000001,5.5 z"/>
  <path d="m 14.25,15 0,-14 -1.5,0 0,14 z"/>
  <path d="M 16,5.5 C 16,6.3284278 14.880712,7 13.5,7 12.119288,7 11,6.3284278 11,5.5 11,4.671574 12.119288,4 13.5,4 14.880712,4 16,4.671574 16,5.5 z"/>
 </g>
</svg>
