<?xml version="1.0" encoding="UTF-8" standalone="no"?>
<svg
   xmlns:dc="http://purl.org/dc/elements/1.1/"
   xmlns:cc="http://creativecommons.org/ns#"
   xmlns:rdf="http://www.w3.org/1999/02/22-rdf-syntax-ns#"
   xmlns:svg="http://www.w3.org/2000/svg"
   xmlns="http://www.w3.org/2000/svg"
   xmlns:sodipodi="http://sodipodi.sourceforge.net/DTD/sodipodi-0.dtd"
   xmlns:inkscape="http://www.inkscape.org/namespaces/inkscape"
   width="48"
   viewBox="0 0 13.546667 13.546667"
   height="48"
   id="svg2"
   version="1.1"
   inkscape:version="0.48.4 r9939"
   sodipodi:docname="preferences-kcalc-constants.svg">
  <metadata
     id="metadata36">
    <rdf:RDF>
      <cc:Work
         rdf:about="">
        <dc:format>image/svg+xml</dc:format>
        <dc:type
           rdf:resource="http://purl.org/dc/dcmitype/StillImage" />
      </cc:Work>
    </rdf:RDF>
  </metadata>
  <defs
     id="defs34" />
  <sodipodi:namedview
     pagecolor="#ffffff"
     bordercolor="#666666"
     borderopacity="1"
     objecttolerance="10"
     gridtolerance="10"
     guidetolerance="10"
     inkscape:pageopacity="0"
     inkscape:pageshadow="2"
     inkscape:window-width="1280"
     inkscape:window-height="998"
     id="namedview32"
     showgrid="false"
     inkscape:zoom="4.9166667"
     inkscape:cx="24.40678"
     inkscape:cy="21.966102"
     inkscape:window-x="0"
     inkscape:window-y="0"
     inkscape:window-maximized="1"
     inkscape:current-layer="svg2" />
  <rect
     height="12.982"
     rx="6.491"
     y="0.282"
     x="0.282"
     width="12.982"
     opacity="0.5"
     fill="#ffffff"
     fill-rule="evenodd"
     id="rect4" />
  <rect
     height="11.853"
     rx="5.926"
     y="0.847"
     x="0.847"
     width="11.853"
     fill="#f9f9f9"
     fill-rule="evenodd"
     id="rect6" />
  <path
     d="m 6.77328,6.77328 0,5.92662 c 0.017382,1.51e-4 0.035499,0 0.052916,0 3.2539247,0 5.8737037,-2.643642 5.8737037,-5.92662 l -5.92662,0 z"
     fill="#f7bd5f"
     fill-rule="evenodd"
     id="path8" />
  <path
     d="m 6.77328,0.84666 0,5.92662 5.92662,0 c 0,-3.2829781 -2.619779,-5.92662 -5.8737037,-5.92662 -0.017418,0 -0.035534,-1.5116e-4 -0.052916,0 z"
     fill="#87d3e3"
     fill-rule="evenodd"
     id="path10" />
  <path
     d="m 0.84666689,6.7733135 c 0,3.2829775 2.61977911,5.9266195 5.87370381,5.9266195 0.017419,0 0.035534,1.51e-4 0.052916,0 l 0,-5.9266195 -5.92662001,0 z"
     fill="#2aa9c9"
     fill-rule="evenodd"
     id="path12" />
  <path
     d="M 6.7203638,0.84666 C 3.4664391,0.84666 0.84666,3.4903019 0.84666,6.77328 l 5.92662,0 0,-5.92662 c -0.017382,-1.5116e-4 -0.035499,0 -0.052916,0 z"
     fill="#4fbed6"
     fill-rule="evenodd"
     id="path14" />
  <rect
     y="-0.7649039"
     x="4.3478022"
     height="2.2579999"
     width="0.56400001"
     transform="matrix(0,1,-1,0,0,0)"
     id="rect18"
     style="fill:#f9f9f9" />
  <path
     inkscape:connector-curvature="0"
     id="path3070"
     style="font-size:321.28512573000000430px;font-style:normal;font-variant:normal;font-weight:normal;font-stretch:normal;line-height:125%;letter-spacing:0px;word-spacing:0px;fill:#f9f9f9;fill-opacity:1;stroke:none;font-family:Times New Roman;-inkscape-font-specification:Times New Roman"
     d="m 10.139328,3.3866668 0,1.0475712 -1.5985889,0 -0.1378098,2.1812427 c -0.027567,0.3778939 -0.041348,0.7055582 -0.041343,0.9829939 -5.3e-6,0.6648987 0.073493,1.0714894 0.2204953,1.2197746 0.1515847,0.1435037 0.3330336,0.2152545 0.5443471,0.215254 0.4409836,5e-7 0.7028213,-0.2893959 0.7855136,-0.8681921 l 0.2480572,0 C 10.008403,9.4951045 9.4985087,10.16 8.630315,10.16 8.2260694,10.16 7.8999208,10.030848 7.6518683,9.7725427 7.4084009,9.5142382 7.2866695,9.1315638 7.2866734,8.6245204 c -3.9e-6,-0.3348388 0.048229,-1.042785 0.1447002,-2.123842 l 0.1860426,-2.0664404 -1.46078,0 C 6.060167,6.1754091 5.9430285,7.4477993 5.8052216,8.2514131 5.6720042,9.0550294 5.5227107,9.5740309 5.3573418,9.8084181 5.1965617,10.042806 4.976067,10.16 4.6958566,10.16 4.4845473,10.16 4.3053953,10.095424 4.1583995,9.9662715 4.0159957,9.837119 3.9447941,9.6673075 3.944795,9.4568366 3.9447941,9.2559333 4.0688228,8.9808866 4.3168802,8.631695 4.6797772,8.1246537 4.9508024,7.5984776 5.1299561,7.0531643 5.309106,6.5030734 5.4446186,5.6300988 5.536494,4.434238 l -0.4685521,0 C 4.6912614,4.4342435 4.4018617,4.522737 4.1997425,4.699718 4.0022151,4.8719261 3.8138753,5.1206644 3.6347237,5.4459327 l -0.248057,0 C 3.5198823,4.9341113 3.6921437,4.5131699 3.903452,4.1831081 4.1147593,3.8530573 4.3306605,3.637803 4.5511564,3.5373449 4.7762435,3.4368994 5.1735938,3.3866734 5.7432084,3.3866669 l 4.3961196,0" />
</svg>
