<svg viewBox="0 0 48 48"><defs><linearGradient id="linearGradient3764" x1="1" x2="47" gradientUnits="userSpaceOnUse" gradientTransform="matrix(0,-1,1,0,-1.5e-6,47.999998)"><stop stop-color="#4ca5e4" stop-opacity="1"/><stop offset="1" stop-color="#5dafe6" stop-opacity="1"/></linearGradient><clipPath id="clipPath-361356906"><g transform="translate(0,-1004.3622)"><path d="m -24 13 c 0 1.105 -0.672 2 -1.5 2 -0.828 0 -1.5 -0.895 -1.5 -2 0 -1.105 0.672 -2 1.5 -2 0.828 0 1.5 0.895 1.5 2 z" transform="matrix(15.333333,0,0,11.5,414.99999,878.8622)" fill="#1890d0"/></g></clipPath><clipPath id="clipPath-366842496"><g transform="translate(0,-1004.3622)"><path d="m -24 13 c 0 1.105 -0.672 2 -1.5 2 -0.828 0 -1.5 -0.895 -1.5 -2 0 -1.105 0.672 -2 1.5 -2 0.828 0 1.5 0.895 1.5 2 z" transform="matrix(15.333333,0,0,11.5,414.99999,878.8622)" fill="#1890d0"/></g></clipPath></defs><g><path d="m 36.31 5 c 5.859 4.062 9.688 10.831 9.688 18.5 c 0 12.426 -10.07 22.5 -22.5 22.5 c -7.669 0 -14.438 -3.828 -18.5 -9.688 c 1.037 1.822 2.306 3.499 3.781 4.969 c 4.085 3.712 9.514 5.969 15.469 5.969 c 12.703 0 23 -10.298 23 -23 c 0 -5.954 -2.256 -11.384 -5.969 -15.469 c -1.469 -1.475 -3.147 -2.744 -4.969 -3.781 z m 4.969 3.781 c 3.854 4.113 6.219 9.637 6.219 15.719 c 0 12.703 -10.297 23 -23 23 c -6.081 0 -11.606 -2.364 -15.719 -6.219 c 4.16 4.144 9.883 6.719 16.219 6.719 c 12.703 0 23 -10.298 23 -23 c 0 -6.335 -2.575 -12.06 -6.719 -16.219 z" opacity="0.05"/><path d="m 41.28 8.781 c 3.712 4.085 5.969 9.514 5.969 15.469 c 0 12.703 -10.297 23 -23 23 c -5.954 0 -11.384 -2.256 -15.469 -5.969 c 4.113 3.854 9.637 6.219 15.719 6.219 c 12.703 0 23 -10.298 23 -23 c 0 -6.081 -2.364 -11.606 -6.219 -15.719 z" opacity="0.1"/><path d="m 31.25 2.375 c 8.615 3.154 14.75 11.417 14.75 21.13 c 0 12.426 -10.07 22.5 -22.5 22.5 c -9.708 0 -17.971 -6.135 -21.12 -14.75 a 23 23 0 0 0 44.875 -7 a 23 23 0 0 0 -16 -21.875 z" opacity="0.2"/></g><g><path d="m 24 1 c 12.703 0 23 10.297 23 23 c 0 12.703 -10.297 23 -23 23 -12.703 0 -23 -10.297 -23 -23 0 -12.703 10.297 -23 23 -23 z" fill="url(#linearGradient3764)" fill-opacity="1"/></g><g/><g><g clip-path="url(#clipPath-361356906)"><g transform="translate(1,1)"><g opacity="0.1"><!-- color: #5dafe6 --><g><path d="m 22.871 27.793 l -4.949 -5.949 l -0.594 -6.086 l 7.137 -1.957 l 4.703 1.434 l 1.66 3.668 l -1.293 2.477 l -5.75 6.473 m -0.914 -0.059" fill="#000" stroke="none" fill-rule="nonzero" fill-opacity="0.941"/><path d="m 11 36 l 26 0 l 0 -2 c -0.68 -3 -4.168 -6.453 -8.516 -8.234 l -2.84 2.762 l -0.898 -0.598 l -2.492 -0.055 l -0.797 0.922 l -3.02 -2.996 c -3.324 1.465 -6.754 4.672 -7.438 8.199 m 0 2" fill="#000" stroke="none" fill-rule="nonzero" fill-opacity="1"/><path d="m 23.449 12.332 c 2.891 0 5.23 2.434 5.23 5.434 l 0 2.453 c 0 3 -2.34 5.43 -5.23 5.43 c -2.887 0 -5.23 -2.43 -5.23 -5.43 l 0 -2.453 c 0 -3 2.344 -5.434 5.23 -5.434 m 0 0" fill="#000" stroke="none" fill-rule="nonzero" fill-opacity="1"/><path d="m 27.09 24.14 c 0.563 -0.551 2 -1.707 2.16 -2.469 l -0.055 -4.371 l -8.328 -3.094 l -1.355 1.148 l -2.246 2.922 l 0.551 3.297 l 0.293 0.844 l 1.695 1.719 m 7.285 0.004" fill="#000" stroke="none" fill-rule="nonzero" fill-opacity="1"/><path d="m 18.15 22.434 l 0 -4.07 c 0.414 -1.777 2.137 -3.574 2.996 -3.551 c 1.465 0.184 2.488 1.48 3.363 2.738 c 1.102 0.938 3.855 0.996 4.574 0 c 0 1.52 0 3.035 0 4.555 c 0.816 -0.316 1.836 -1.531 2.01 -2.578 c -0.207 -12.621 -14.34 -12.387 -14.727 -1.164 c 0.121 1.414 0.965 3.406 1.785 4.07 m 0 0" fill="#000" stroke="none" fill-rule="nonzero" fill-opacity="1"/><path d="m 23.453 27.898 l 3.637 -3.77 l 1.82 1.883 l -3.637 3.77 m -1.82 -1.883" fill="#000" stroke="none" fill-rule="nonzero" fill-opacity="1"/><path d="m 19.816 24.13 l 3.637 3.77 l -1.816 1.883 l -3.637 -3.766 m 1.816 -1.887" fill="#000" stroke="none" fill-rule="nonzero" fill-opacity="1"/></g></g></g></g></g><g><g clip-path="url(#clipPath-366842496)"><!-- color: #5dafe6 --><g><path d="m 22.871 27.793 l -4.949 -5.949 l -0.594 -6.086 l 7.137 -1.957 l 4.703 1.434 l 1.66 3.668 l -1.293 2.477 l -5.75 6.473 m -0.914 -0.059" fill="#cf8e92" stroke="none" fill-rule="nonzero" fill-opacity="0.941"/><path d="m 11 36 l 26 0 l 0 -2 c -0.68 -3 -4.168 -6.453 -8.516 -8.234 l -2.84 2.762 l -0.898 -0.598 l -2.492 -0.055 l -0.797 0.922 l -3.02 -2.996 c -3.324 1.465 -6.754 4.672 -7.438 8.199 m 0 2" fill="#cf362d" stroke="none" fill-rule="nonzero" fill-opacity="1"/><path d="m 23.449 12.332 c 2.891 0 5.23 2.434 5.23 5.434 l 0 2.453 c 0 3 -2.34 5.43 -5.23 5.43 c -2.887 0 -5.23 -2.43 -5.23 -5.43 l 0 -2.453 c 0 -3 2.344 -5.434 5.23 -5.434 m 0 0" fill="#ffcdce" stroke="none" fill-rule="nonzero" fill-opacity="1"/><path d="m 27.09 24.14 c 0.563 -0.551 2 -1.707 2.16 -2.469 l -0.055 -4.371 l -8.328 -3.094 l -1.355 1.148 l -2.246 2.922 l 0.551 3.297 l 0.293 0.844 l 1.695 1.719 m 7.285 0.004" fill="#ffcdce" stroke="none" fill-rule="nonzero" fill-opacity="1"/><path d="m 18.15 22.434 l 0 -4.07 c 0.414 -1.777 2.137 -3.574 2.996 -3.551 c 1.465 0.184 2.488 1.48 3.363 2.738 c 1.102 0.938 3.855 0.996 4.574 0 c 0 1.52 0 3.035 0 4.555 c 0.816 -0.316 1.836 -1.531 2.01 -2.578 c -0.207 -12.621 -14.34 -12.387 -14.727 -1.164 c 0.121 1.414 0.965 3.406 1.785 4.07 m 0 0" fill="#d0362d" stroke="none" fill-rule="nonzero" fill-opacity="1"/><path d="m 23.453 27.898 l 3.637 -3.77 l 1.82 1.883 l -3.637 3.77 m -1.82 -1.883" fill="#b2d4cf" stroke="none" fill-rule="nonzero" fill-opacity="1"/><path d="m 19.816 24.13 l 3.637 3.77 l -1.816 1.883 l -3.637 -3.766 m 1.816 -1.887" fill="#b2d4cf" stroke="none" fill-rule="nonzero" fill-opacity="1"/></g></g></g><g><path d="m 40.03 7.531 c 3.712 4.084 5.969 9.514 5.969 15.469 0 12.703 -10.297 23 -23 23 c -5.954 0 -11.384 -2.256 -15.469 -5.969 4.178 4.291 10.01 6.969 16.469 6.969 c 12.703 0 23 -10.298 23 -23 0 -6.462 -2.677 -12.291 -6.969 -16.469 z" opacity="0.1"/></g></svg>