<?xml version="1.0" encoding="UTF-8" standalone="no"?>
<svg
   xmlns:dc="http://purl.org/dc/elements/1.1/"
   xmlns:cc="http://creativecommons.org/ns#"
   xmlns:rdf="http://www.w3.org/1999/02/22-rdf-syntax-ns#"
   xmlns:svg="http://www.w3.org/2000/svg"
   xmlns="http://www.w3.org/2000/svg"
   xmlns:xlink="http://www.w3.org/1999/xlink"
   xmlns:sodipodi="http://sodipodi.sourceforge.net/DTD/sodipodi-0.dtd"
   xmlns:inkscape="http://www.inkscape.org/namespaces/inkscape"
   viewBox="0 0 48 48"
   id="svg2"
   version="1.1"
   inkscape:version="0.48.5 r10040"
   width="100%"
   height="100%"
   sodipodi:docname="puzzlemoppet.svg">
  <metadata
     id="metadata61">
    <rdf:RDF>
      <cc:Work
         rdf:about="">
        <dc:format>image/svg+xml</dc:format>
        <dc:type
           rdf:resource="http://purl.org/dc/dcmitype/StillImage" />
      </cc:Work>
    </rdf:RDF>
  </metadata>
  <sodipodi:namedview
     pagecolor="#ffffff"
     bordercolor="#666666"
     borderopacity="1"
     objecttolerance="10"
     gridtolerance="10"
     guidetolerance="10"
     inkscape:pageopacity="0"
     inkscape:pageshadow="2"
     inkscape:window-width="1280"
     inkscape:window-height="998"
     id="namedview59"
     showgrid="false"
     inkscape:zoom="2.4583333"
     inkscape:cx="-6.594888"
     inkscape:cy="38.637627"
     inkscape:window-x="0"
     inkscape:window-y="0"
     inkscape:window-maximized="1"
     inkscape:current-layer="svg2">
    <inkscape:grid
       type="xygrid"
       id="grid3049" />
  </sodipodi:namedview>
  <defs
     id="defs4">
    <linearGradient
       id="linearGradient3876">
      <stop
         style="stop-color:#9ab005;stop-opacity:1;"
         offset="0"
         id="stop3878" />
      <stop
         style="stop-color:#aac305;stop-opacity:1;"
         offset="1"
         id="stop3880" />
    </linearGradient>
    <linearGradient
       id="linearGradient3764"
       x1="1"
       x2="47"
       gradientUnits="userSpaceOnUse"
       gradientTransform="matrix(0,-1,1,0,-1.5e-6,47.999998)">
      <stop
         stop-color="#70af2d"
         stop-opacity="1"
         id="stop7" />
      <stop
         offset="1"
         stop-color="#79bf31"
         stop-opacity="1"
         id="stop9" />
    </linearGradient>
    <clipPath
       id="clipPath-718616605">
      <g
         transform="translate(0,-1004.3622)"
         id="g12">
        <path
           d="m -24 13 c 0 1.105 -0.672 2 -1.5 2 -0.828 0 -1.5 -0.895 -1.5 -2 0 -1.105 0.672 -2 1.5 -2 0.828 0 1.5 0.895 1.5 2 z"
           transform="matrix(15.333333,0,0,11.5,414.99999,878.8622)"
           fill="#1890d0"
           id="path14" />
      </g>
    </clipPath>
    <clipPath
       id="clipPath-728300487">
      <g
         transform="translate(0,-1004.3622)"
         id="g17">
        <path
           d="m -24 13 c 0 1.105 -0.672 2 -1.5 2 -0.828 0 -1.5 -0.895 -1.5 -2 0 -1.105 0.672 -2 1.5 -2 0.828 0 1.5 0.895 1.5 2 z"
           transform="matrix(15.333333,0,0,11.5,414.99999,878.8622)"
           fill="#1890d0"
           id="path19" />
      </g>
    </clipPath>
    <linearGradient
       inkscape:collect="always"
       xlink:href="#linearGradient3876"
       id="linearGradient3882"
       x1="1"
       y1="24"
       x2="47"
       y2="24"
       gradientUnits="userSpaceOnUse" />
    <linearGradient
       inkscape:collect="always"
       xlink:href="#linearGradient3876"
       id="linearGradient3884"
       gradientUnits="userSpaceOnUse"
       x1="1"
       y1="24"
       x2="47"
       y2="24" />
  </defs>
  <g
     id="g21">
    <path
       d="m 36.31 5 c 5.859 4.062 9.688 10.831 9.688 18.5 c 0 12.426 -10.07 22.5 -22.5 22.5 c -7.669 0 -14.438 -3.828 -18.5 -9.688 c 1.037 1.822 2.306 3.499 3.781 4.969 c 4.085 3.712 9.514 5.969 15.469 5.969 c 12.703 0 23 -10.298 23 -23 c 0 -5.954 -2.256 -11.384 -5.969 -15.469 c -1.469 -1.475 -3.147 -2.744 -4.969 -3.781 z m 4.969 3.781 c 3.854 4.113 6.219 9.637 6.219 15.719 c 0 12.703 -10.297 23 -23 23 c -6.081 0 -11.606 -2.364 -15.719 -6.219 c 4.16 4.144 9.883 6.719 16.219 6.719 c 12.703 0 23 -10.298 23 -23 c 0 -6.335 -2.575 -12.06 -6.719 -16.219 z"
       opacity="0.05"
       id="path23" />
    <path
       d="m 41.28 8.781 c 3.712 4.085 5.969 9.514 5.969 15.469 c 0 12.703 -10.297 23 -23 23 c -5.954 0 -11.384 -2.256 -15.469 -5.969 c 4.113 3.854 9.637 6.219 15.719 6.219 c 12.703 0 23 -10.298 23 -23 c 0 -6.081 -2.364 -11.606 -6.219 -15.719 z"
       opacity="0.1"
       id="path25" />
    <path
       d="m 31.25 2.375 c 8.615 3.154 14.75 11.417 14.75 21.13 c 0 12.426 -10.07 22.5 -22.5 22.5 c -9.708 0 -17.971 -6.135 -21.12 -14.75 a 23 23 0 0 0 44.875 -7 a 23 23 0 0 0 -16 -21.875 z"
       opacity="0.2"
       id="path27" />
  </g>
  <g
     id="g29"
     style="fill:url(#linearGradient3882);fill-opacity:1"
     transform="matrix(0,-1,1,0,0,48)">
    <path
       d="M 24,1 C 36.703,1 47,11.297 47,24 47,36.703 36.703,47 24,47 11.297,47 1,36.703 1,24 1,11.297 11.297,1 24,1 z"
       id="path31"
       style="fill:url(#linearGradient3884);fill-opacity:1"
       inkscape:connector-curvature="0" />
  </g>
  <g
     id="g33" />
  <g
     id="g55">
    <path
       d="m 40.03 7.531 c 3.712 4.084 5.969 9.514 5.969 15.469 0 12.703 -10.297 23 -23 23 c -5.954 0 -11.384 -2.256 -15.469 -5.969 4.178 4.291 10.01 6.969 16.469 6.969 c 12.703 0 23 -10.298 23 -23 0 -6.462 -2.677 -12.291 -6.969 -16.469 z"
       opacity="0.1"
       id="path57" />
  </g>
  <path
     sodipodi:type="arc"
     style="opacity:1;fill:#ddb68e;fill-opacity:1;fill-rule:nonzero;stroke:none"
     id="path3051"
     sodipodi:cx="24"
     sodipodi:cy="25"
     sodipodi:rx="17"
     sodipodi:ry="10.506577"
     d="M 41,25 A 17,10.506577 0 1 1 7,25 17,10.506577 0 1 1 41,25 z"
     transform="matrix(0.76470589,0,0,1.1662494,6.6470588,-2.4095225)" />
  <path
     style="opacity:1;fill:#6b0000;fill-opacity:1;stroke:none"
     d="m 29.694915,25.09322 c 1.991099,-0.637766 5.765875,1.957234 5.059322,1.957627 -1.792243,-0.869066 -4.010632,-0.783289 -5.059322,-1.957627 z"
     id="path3825"
     inkscape:connector-curvature="0"
     sodipodi:nodetypes="ccc" />
  <path
     style="opacity:1;fill:#6b0000;fill-opacity:1;stroke:none"
     d="m 16.467199,27.75757 c 2.705082,-2.447555 4.371694,-3.882593 7.497433,-2.414751 -3.458035,-0.02197 -5.330174,1.386061 -7.497433,2.414751 z"
     id="path3823"
     inkscape:connector-curvature="0"
     sodipodi:nodetypes="ccc" />
  <path
     style="opacity:1;fill:#ab0000;fill-opacity:1;stroke:none"
     d="M 14,37 C 3.4630795,24.067087 10.680826,8.6096884 21.355932,10.372881 c 15.781891,-4.7860655 19.171111,15.39967 17.389831,24.40678 -0.20619,-1.040429 0.106341,-2.320267 -0.661017,-3.101695 -0.0035,1.970293 -1.196018,2.29683 -1.932204,3.254237 0.467655,-1.186178 1.025216,-2.407218 0.355933,-3.152542 -0.08945,2.481172 -1.913554,4.22588 -3.305085,4.423729 0.582182,-0.705362 1.202719,-1.127639 1.477131,-2.171548 0.357447,-2.064743 0.386478,-4.03699 1.002057,-6.256793 -0.615683,-1.863915 -1.2199,-3.773693 -2.021561,-4.893693 -0.316609,1.206778 -0.294972,2.171953 -1.220339,3.813559 -0.03237,-3.831017 -2.747135,-6.767904 -5.288136,-9.762712 3.433633,6.222159 1.223385,8.709385 0.966102,11.593221 0.02478,-1.438441 -0.441152,-5.821538 -3.966102,-8.440678 -0.46364,3.984993 0.408863,5.44616 0.711865,7.983051 -2.387575,-2.080349 -3.444339,-4.900038 -4.118644,-7.932204 -1.931504,1.842925 -1.833463,4.999086 -2.237288,7.830509 -0.519038,-1.583762 -1.450976,-2.135273 -0.711865,-6.864407 -1.837405,2.140639 -3.56314,11.298088 2.084746,15.661017 -1.322034,0.09126 -2.644068,-0.839934 -3.966102,-1.881356 L 18,38.288136 13.932203,35.79661 z"
     id="path3821"
     inkscape:connector-curvature="0"
     sodipodi:nodetypes="ccccccccccccccccccccccc" />
  <path
     sodipodi:type="arc"
     style="opacity:0.38461542999999998;fill:#d7a289;fill-opacity:1;fill-rule:nonzero;stroke:none"
     id="path3827"
     sodipodi:cx="27.495762"
     sodipodi:cy="34.690678"
     sodipodi:rx="0.55932206"
     sodipodi:ry="0.27966103"
     d="m 28.055084,34.690678 a 0.55932206,0.27966103 0 1 1 -1.118644,0 0.55932206,0.27966103 0 1 1 1.118644,0 z"
     transform="translate(0.24152542,0.02542373)" />
  <path
     sodipodi:type="arc"
     style="opacity:0.38461542999999998;fill:#d7a289;fill-opacity:1;fill-rule:nonzero;stroke:none"
     id="path3827-4"
     sodipodi:cx="27.495762"
     sodipodi:cy="34.690678"
     sodipodi:rx="0.55932206"
     sodipodi:ry="0.27966103"
     d="m 28.055084,34.690678 a 0.55932206,0.27966103 0 1 1 -1.118644,0 0.55932206,0.27966103 0 1 1 1.118644,0 z"
     transform="matrix(0.61363638,0,0,0.8409091,12.415736,5.3346494)" />
  <path
     style="font-size:medium;font-style:normal;font-variant:normal;font-weight:normal;font-stretch:normal;text-indent:0;text-align:start;text-decoration:none;line-height:normal;letter-spacing:normal;word-spacing:normal;text-transform:none;direction:ltr;block-progression:tb;writing-mode:lr-tb;text-anchor:start;baseline-shift:baseline;color:#000000;fill:#353535;fill-opacity:1;stroke:none;stroke-width:0.50000000000000000;marker:none;visibility:visible;display:inline;overflow:visible;enable-background:accumulate;font-family:Sans;-inkscape-font-specification:Sans"
     d="m 29.34375,36.1875 c -1.187577,-0.0446 -2.114833,0.432615 -2.71875,0.9375 l 0.34375,0.375 c 0.531551,-0.444385 1.329413,-0.851764 2.375,-0.8125 l 0,-0.5 z"
     id="path3847"
     inkscape:connector-curvature="0" />
  <path
     style="opacity:1;fill:#f6f3f0;fill-opacity:1;stroke:none"
     d="m 17.617745,29.429458 c 1.476201,3.878817 5.698657,3.263324 5.860597,-1.833684 -2.310744,-1.013792 -4.21007,0.389192 -5.860597,1.833684 z"
     id="path3849"
     inkscape:connector-curvature="0"
     sodipodi:nodetypes="ccc" />
  <path
     style="opacity:1;fill:#f6f3f0;fill-opacity:1;stroke:none"
     d="m 29.822034,27.444915 c -0.463963,3.46132 4.400214,6.404202 4.868644,1.29661 -0.945181,-1.124636 -4.098335,-1.912239 -4.868644,-1.29661 z"
     id="path3851"
     inkscape:connector-curvature="0"
     sodipodi:nodetypes="ccc" />
  <path
     style="opacity:1;fill:#644e3b;fill-opacity:1;fill-rule:nonzero;stroke:none"
     d="M 21.25 27.3125 C 19.896908 27.546655 18.714504 28.483999 17.625 29.4375 C 18.400006 31.473879 19.914832 32.251758 21.21875 31.8125 C 21.49288 31.155958 21.65625 30.383214 21.65625 29.53125 C 21.65625 28.717635 21.501895 27.950946 21.25 27.3125 z "
     id="path3853" />
  <path
     style="opacity:1;fill:#644e3b;fill-opacity:1;fill-rule:nonzero;stroke:none"
     d="M 30.78125 27.21875 C 30.362549 27.213913 30.005077 27.283593 29.8125 27.4375 C 29.582972 29.149855 30.673839 30.734604 31.875 31.28125 C 32.522872 30.837865 32.96875 29.803539 32.96875 28.59375 C 32.96875 28.261532 32.93815 27.953802 32.875 27.65625 C 32.159374 27.399338 31.390984 27.225794 30.78125 27.21875 z "
     id="path3858" />
</svg>
