<svg xmlns="http://www.w3.org/2000/svg" xmlns:xlink="http://www.w3.org/1999/xlink" width="48" viewBox="0 0 13.546667 13.546667" height="48">
 <defs>
  <clipPath>
   <path d="m 328,256 15,11 0,-27 -15,0 z"/>
  </clipPath>
  <clipPath>
   <rect width="90" x="307" y="31" rx="18.75" height="90" fill="url(#9)" color="#bebebe"/>
  </clipPath>
  <clipPath>
   <path d="m 328,242.09376 c -7.73199,0 -14,6.26801 -14,14 0,7.73199 6.26801,14 14,14 7.73199,0 14,-6.26801 14,-14 0,-7.73199 -6.26801,-14 -14,-14 z m 0,9.90625 c 2.20914,0 4,1.79086 4,4 0,2.20914 -1.79086,4 -4,4 -2.20914,0 -4,-1.79086 -4,-4 0,-2.20914 1.79086,-4 4,-4 z m 0,1 c -1.65685,0 -3,1.34315 -3,3 0,1.65685 1.34315,3 3,3 1.65685,0 3,-1.34315 3,-3 0,-1.65685 -1.34315,-3 -3,-3 z m 0,1 c 1.10457,0 2,0.89543 2,2 0,1.10457 -0.89543,2 -2,2 -1.10457,0 -2,-0.89543 -2,-2 0,-1.10457 0.89543,-2 2,-2 z"/>
  </clipPath>
  <clipPath>
   <rect width="42" x="307" y="223" rx="9" height="42" transform="rotate(90)" fill="url(#2)" color="#bebebe"/>
  </clipPath>
  <clipPath>
   <rect width="60" x="306" y="142" rx="12.5" height="60" transform="matrix(0 -1 1 0 0 0)" fill="url(#C)" color="#bebebe"/>
  </clipPath>
  <clipPath>
   <rect width="16" x="432" y="116" rx="2" height="16" opacity="0.2" fill="#6d6d6d" color="#bebebe"/>
  </clipPath>
  <clipPath>
   <rect width="42" x="307" y="223" rx="9" height="42" transform="rotate(90)" fill="url(#A)" color="#bebebe"/>
  </clipPath>
  <clipPath>
   <rect width="22" x="433" y="77" rx="3" height="22" opacity="0.2" fill="#6d6d6d" color="#bebebe"/>
  </clipPath>
  <clipPath>
   <rect width="22" x="433" y="77" rx="5" height="22" color="#bebebe"/>
  </clipPath>
  <clipPath>
   <rect width="30" x="433" y="29" rx="6" height="30" color="#bebebe"/>
  </clipPath>
  <clipPath>
   <rect width="20" x="434" y="78" rx="4" height="20" color="#bebebe"/>
  </clipPath>
  <clipPath>
   <rect width="22" x="433" y="77" rx="3" height="22" opacity="0.2" fill="#6d6d6d" color="#bebebe"/>
  </clipPath>
  <clipPath>
   <rect width="16" x="432" y="116" rx="2" height="16" opacity="0.2" fill="#6d6d6d" color="#bebebe"/>
  </clipPath>
  <clipPath>
   <rect width="30" x="433" y="29" rx="4" height="30" opacity="0.2" fill="#6d6d6d" color="#bebebe"/>
  </clipPath>
  <clipPath>
   <rect width="22" x="433" y="77" rx="4" height="22" color="#bebebe"/>
  </clipPath>
  <clipPath>
   <rect width="16" x="432" y="116" rx="3" height="16" color="#bebebe"/>
  </clipPath>
  <clipPath>
   <rect width="240" x="24" y="36" rx="50" height="240" fill="#986767" color="#bebebe"/>
  </clipPath>
  <clipPath>
   <rect width="60" x="306" y="142" rx="12.5" height="60" transform="matrix(0 -1 1 0 0 0)" fill="url(#1)" color="#bebebe"/>
  </clipPath>
  <clipPath>
   <path d="m 328,238 c -7.73199,0 -14,6.26801 -14,14 0,7.73199 6.26801,14 14,14 7.73199,0 14,-6.26801 14,-14 0,-7.73199 -6.26801,-14 -14,-14 z m 0,8.75 c 2.89949,0 5.25,2.35051 5.25,5.25 0,2.89949 -2.35051,5.25 -5.25,5.25 -2.89949,0 -5.25,-2.35051 -5.25,-5.25 0,-2.89949 2.35051,-5.25 5.25,-5.25 z m 0,1.75 c -1.933,0 -3.5,1.567 -3.5,3.5 0,1.933 1.567,3.5 3.5,3.5 1.933,0 3.5,-1.567 3.5,-3.5 0,-1.933 -1.567,-3.5 -3.5,-3.5 z m 0,1.75 c 0.96649,0 1.75,0.78351 1.75,1.75 0,0.96649 -0.78351,1.75 -1.75,1.75 -0.96649,0 -1.75,-0.78351 -1.75,-1.75 0,-0.96649 0.78351,-1.75 1.75,-1.75 z"/>
  </clipPath>
  <clipPath>
   <path d="m 144.00001,75.999997 c -44.1828,0 -80,35.817203 -80,80.000003 0,44.1828 35.8172,80 80,80 44.1828,0 80,-35.8172 80,-80 0,-44.1828 -35.8172,-80.000003 -80,-80.000003 z m 0,56.607143 c 12.62366,0 22.85714,10.23349 22.85714,22.85714 0,12.62366 -10.23348,22.85714 -22.85714,22.85714 -12.62366,0 -22.85714,-10.23348 -22.85714,-22.85714 0,-12.62365 10.23348,-22.85714 22.85714,-22.85714 z m 0,5.71429 c -9.46771,0 -17.14286,7.67514 -17.14286,17.14285 0,9.46772 7.67515,17.14286 17.14286,17.14286 9.46771,0 17.14286,-7.67514 17.14286,-17.14286 0,-9.46771 -7.67515,-17.14285 -17.14286,-17.14285 z m 0,5.71428 c 6.31183,0 11.42857,5.11674 11.42857,11.42857 0,6.31183 -5.11674,11.42857 -11.42857,11.42857 -6.31183,0 -11.42857,-5.11674 -11.42857,-11.42857 0,-6.31183 5.11674,-11.42857 11.42857,-11.42857 z"/>
  </clipPath>
  <clipPath>
   <path d="m 440,126 c -3.31371,0 -6,2.68629 -6,6 0,3.31371 2.68629,6 6,6 3.31371,0 6,-2.68629 6,-6 0,-3.31371 -2.68629,-6 -6,-6 z m 0,3 c 1.65685,0 3,1.34315 3,3 0,1.65685 -1.34315,3 -3,3 -1.65685,0 -3,-1.34315 -3,-3 0,-1.65685 1.34315,-3 3,-3 z m 0,1 c -1.10457,0 -2,0.89543 -2,2 0,1.10457 0.89543,2 2,2 1.10457,0 2,-0.89543 2,-2 0,-1.10457 -0.89543,-2 -2,-2 z m 0,1 c 0.55228,0 1,0.44772 1,1 0,0.55228 -0.44772,1 -1,1 -0.55228,0 -1,-0.44772 -1,-1 0,-0.55228 0.44772,-1 1,-1 z"/>
  </clipPath>
  <clipPath>
   <rect width="20" x="434" y="78" rx="4" height="20" color="#bebebe"/>
  </clipPath>
  <clipPath>
   <rect width="240" x="24" y="36" rx="50" height="240" fill="#986767" color="#bebebe"/>
  </clipPath>
  <clipPath>
   <path d="m 444,88 c -4.41828,0 -8,3.58172 -8,8 0,4.41828 3.58172,8 8,8 4.41828,0 8,-3.58172 8,-8 0,-4.41828 -3.58172,-8 -8,-8 z m 0,5 c 1.65685,0 3,1.34315 3,3 0,1.65685 -1.34315,3 -3,3 -1.65685,0 -3,-1.34315 -3,-3 0,-1.65685 1.34315,-3 3,-3 z m 0,1 c -1.10457,0 -2,0.89543 -2,2 0,1.10457 0.89543,2 2,2 1.10457,0 2,-0.89543 2,-2 0,-1.10457 -0.89543,-2 -2,-2 z m 0,1 c 0.55228,0 1,0.44772 1,1 0,0.55228 -0.44772,1 -1,1 -0.55228,0 -1,-0.44772 -1,-1 0,-0.55228 0.44772,-1 1,-1 z"/>
  </clipPath>
  <clipPath>
   <rect width="30" x="433" y="29" rx="6" height="30" color="#bebebe"/>
  </clipPath>
  <clipPath>
   <rect width="22" x="433" y="77" rx="4" height="22" color="#bebebe"/>
  </clipPath>
  <clipPath>
   <path d="m 328,242.09375 c -7.73199,0 -14,6.26801 -14,14 0,7.73199 6.26801,14 14,14 7.73199,0 14,-6.26801 14,-14 0,-7.73199 -6.26801,-14 -14,-14 z M 328,252 c 2.20914,0 4,1.79086 4,4 0,2.20914 -1.79086,4 -4,4 -2.20914,0 -4,-1.79086 -4,-4 0,-2.20914 1.79086,-4 4,-4 z m 0,1 c -1.65685,0 -3,1.34315 -3,3 0,1.65685 1.34315,3 3,3 1.65685,0 3,-1.34315 3,-3 0,-1.65685 -1.34315,-3 -3,-3 z m 0,1 c 1.10457,0 2,0.89543 2,2 0,1.10457 -0.89543,2 -2,2 -1.10457,0 -2,-0.89543 -2,-2 0,-1.10457 0.89543,-2 2,-2 z"/>
  </clipPath>
  <clipPath>
   <rect width="16" x="432" y="116" rx="3" height="16" color="#bebebe"/>
  </clipPath>
  <clipPath>
   <path d="m 328,238 c -7.73199,0 -14,6.26801 -14,14 0,7.73199 6.26801,14 14,14 7.73199,0 14,-6.26801 14,-14 0,-7.73199 -6.26801,-14 -14,-14 z m 0,9.90625 c 2.20914,0 4,1.79086 4,4 0,2.20914 -1.79086,4 -4,4 -2.20914,0 -4,-1.79086 -4,-4 0,-2.20914 1.79086,-4 4,-4 z m 0,1 c -1.65685,0 -3,1.34315 -3,3 0,1.65685 1.34315,3 3,3 1.65685,0 3,-1.34315 3,-3 0,-1.65685 -1.34315,-3 -3,-3 z m 0,1 c 1.10457,0 2,0.89543 2,2 0,1.10457 -0.89543,2 -2,2 -1.10457,0 -2,-0.89543 -2,-2 0,-1.10457 0.89543,-2 2,-2 z"/>
  </clipPath>
  <clipPath>
   <rect width="90" x="307" y="31" rx="18.75" height="90" fill="url(#3)" color="#bebebe"/>
  </clipPath>
  <clipPath>
   <rect width="22" x="433" y="77" rx="5" height="22" color="#bebebe"/>
  </clipPath>
  <clipPath>
   <path d="m 451.38843,127.3713 c -3.31371,0 -6,2.68629 -6,6 0,3.31371 2.68629,6 6,6 3.31371,0 6,-2.68629 6,-6 0,-3.31371 -2.68629,-6 -6,-6 z m 0,3 c 1.65685,0 3,1.34315 3,3 0,1.65685 -1.34315,3 -3,3 -1.65685,0 -3,-1.34315 -3,-3 0,-1.65685 1.34315,-3 3,-3 z m 0,1 c -1.10457,0 -2,0.89543 -2,2 0,1.10457 0.89543,2 2,2 1.10457,0 2,-0.89543 2,-2 0,-1.10457 -0.89543,-2 -2,-2 z m 0,1 c 0.55228,0 1,0.44772 1,1 0,0.55228 -0.44772,1 -1,1 -0.55228,0 -1,-0.44772 -1,-1 0,-0.55228 0.44772,-1 1,-1 z"/>
  </clipPath>
  <clipPath>
   <path d="m 451.38843,133.3713 6.42857,4.71429 0,-11.57143 -6.42857,0 z"/>
  </clipPath>
  <clipPath>
   <rect width="16" x="432" y="116" rx="2" height="16" opacity="0.2" fill="#6d6d6d" color="#bebebe"/>
  </clipPath>
  <clipPath>
   <rect width="30" x="433" y="29" rx="4" height="30" opacity="0.2" fill="#6d6d6d" color="#bebebe"/>
  </clipPath>
  <clipPath>
   <rect width="16" x="432" y="116" rx="3" height="16" color="#bebebe"/>
  </clipPath>
  <clipPath>
   <rect width="240" x="24" y="36" rx="50" height="240" fill="#986767" color="#bebebe"/>
  </clipPath>
  <clipPath>
   <rect width="22" x="433" y="77" rx="5" height="22" color="#bebebe"/>
  </clipPath>
  <clipPath>
   <rect width="22" x="433" y="77" rx="4" height="22" color="#bebebe"/>
  </clipPath>
  <clipPath>
   <rect width="20" x="434" y="78" rx="4" height="20" color="#bebebe"/>
  </clipPath>
  <clipPath>
   <rect width="90" x="307" y="31" rx="18.75" height="90" fill="url(#7)" color="#bebebe"/>
  </clipPath>
  <clipPath>
   <rect width="30" x="433" y="29" rx="6" height="30" color="#bebebe"/>
  </clipPath>
  <clipPath>
   <rect width="22" x="433" y="77" rx="3" height="22" opacity="0.2" fill="#6d6d6d" color="#bebebe"/>
  </clipPath>
  <clipPath>
   <rect width="60" x="306" y="142" rx="12.5" height="60" transform="matrix(0 -1 1 0 0 0)" fill="url(#D)" color="#bebebe"/>
  </clipPath>
  <clipPath>
   <rect width="42" x="307" y="223" rx="9" height="42" transform="rotate(90)" fill="url(#8)" color="#bebebe"/>
  </clipPath>
  <clipPath>
   <rect width="30" x="433" y="29" rx="4" height="30" opacity="0.2" fill="#6d6d6d" color="#bebebe"/>
  </clipPath>
  <linearGradient gradientTransform="translate(0 4.09376)" xlink:href="#6" y1="273" y2="231" gradientUnits="userSpaceOnUse" x2="0"/>
  <linearGradient id="0">
   <stop stop-color="#f0f0f0"/>
   <stop offset="1" stop-color="#f8f8f8"/>
  </linearGradient>
  <linearGradient gradientTransform="matrix(.25 0 0 .25 299.99999 131.99999)" xlink:href="#0" id="1" y1="230" y2="90" gradientUnits="userSpaceOnUse" x2="0"/>
  <linearGradient gradientTransform="translate(11.38843 1.3713)" xlink:href="#6" y1="140" y2="124" gradientUnits="userSpaceOnUse" x2="0"/>
  <linearGradient gradientTransform="matrix(5.71429 0 0 5.71429 -1730.2857 -1284)" xlink:href="#6" y1="273" y2="231" gradientUnits="userSpaceOnUse" x2="0"/>
  <linearGradient gradientTransform="matrix(.175 0 0 .175 302.79999 215.99997)" xlink:href="#0" id="2" y1="280" y2="40" gradientUnits="userSpaceOnUse" x2="0"/>
  <linearGradient gradientTransform="matrix(.375 0 0 .375 298 16)" xlink:href="#0" id="3" y1="230" y2="90" gradientUnits="userSpaceOnUse" x2="0"/>
  <linearGradient id="4">
   <stop stop-color="#ccc"/>
   <stop offset="1" stop-color="#eaeaea"/>
  </linearGradient>
  <linearGradient xlink:href="#6" y1="140" y2="124" x2="0" gradientUnits="userSpaceOnUse"/>
  <linearGradient id="5">
   <stop stop-color="#eaba31"/>
   <stop offset="1" stop-color="#ff9200"/>
  </linearGradient>
  <linearGradient gradientTransform="translate(11.38843 1.3713)" xlink:href="#6" y1="140" y2="124" x2="0" gradientUnits="userSpaceOnUse"/>
  <linearGradient xlink:href="#6" y1="107" y2="85" x2="0" gradientUnits="userSpaceOnUse"/>
  <linearGradient id="6">
   <stop stop-color="#818181"/>
   <stop offset="1" stop-color="#c5c5c5"/>
  </linearGradient>
  <linearGradient gradientTransform="matrix(.375 0 0 .375 298 16)" id="7" xlink:href="#0" y1="230" y2="90" x2="0" gradientUnits="userSpaceOnUse"/>
  <linearGradient xlink:href="#6" y1="107" y2="85" x2="0" gradientUnits="userSpaceOnUse"/>
  <linearGradient gradientTransform="matrix(5.71429 0 0 5.71429 -1730.2857 -1284)" xlink:href="#6" y1="273" y2="231" x2="0" gradientUnits="userSpaceOnUse"/>
  <linearGradient xlink:href="#6" y1="140" y2="124" x2="0" gradientUnits="userSpaceOnUse"/>
  <linearGradient gradientTransform="matrix(5.71429 0 0 5.71429 -1730.2857 -1284)" xlink:href="#6" y1="273" y2="231" gradientUnits="userSpaceOnUse" x2="0"/>
  <linearGradient gradientTransform="matrix(.175 0 0 .175 302.79999 215.99997)" id="8" xlink:href="#0" y1="280" y2="40" x2="0" gradientUnits="userSpaceOnUse"/>
  <linearGradient xlink:href="#6" y1="107" y2="85" x2="0" gradientUnits="userSpaceOnUse"/>
  <linearGradient gradientTransform="translate(11.38843 1.3713)" xlink:href="#6" y1="140" y2="124" gradientUnits="userSpaceOnUse" x2="0"/>
  <linearGradient gradientTransform="translate(0 4.09376)" xlink:href="#6" y1="273" y2="231" gradientUnits="userSpaceOnUse" x2="0"/>
  <linearGradient gradientTransform="translate(0 4.09376)" xlink:href="#6" y1="273" y2="231" x2="0" gradientUnits="userSpaceOnUse"/>
  <linearGradient xlink:href="#6" y1="140" y2="124" x2="0" gradientUnits="userSpaceOnUse"/>
  <linearGradient gradientTransform="matrix(.375 0 0 .375 298 16)" xlink:href="#0" id="9" y1="230" y2="90" gradientUnits="userSpaceOnUse" x2="0"/>
  <linearGradient gradientTransform="matrix(.175 0 0 .175 302.79999 215.99997)" xlink:href="#0" id="A" y1="280" y2="40" gradientUnits="userSpaceOnUse" x2="0"/>
  <linearGradient gradientTransform="matrix(1.10525 0 0 1.10525 -134.27874 -295.76115)" xlink:href="#4" id="B" y1="279.09" y2="268.36" gradientUnits="userSpaceOnUse" x2="0"/>
  <linearGradient gradientTransform="matrix(.25 0 0 .25 299.99999 131.99999)" xlink:href="#0" id="C" y1="230" y2="90" gradientUnits="userSpaceOnUse" x2="0"/>
  <linearGradient gradientTransform="matrix(.25 0 0 .25 299.99999 131.99999)" id="D" xlink:href="#0" y1="230" y2="90" x2="0" gradientUnits="userSpaceOnUse"/>
  <radialGradient cx="328" cy="255.42" gradientTransform="matrix(1.22449 0 0 1.22449 49.7555 -179.34296)" r="7" xlink:href="#5" gradientUnits="userSpaceOnUse"/>
  <radialGradient cx="328" cy="255.42" gradientTransform="matrix(2.85714 0 0 2.85714 -609.14349 -473.66662)" r="7" xlink:href="#5" gradientUnits="userSpaceOnUse"/>
  <radialGradient cx="328" cy="255.42" gradientTransform="matrix(2.85714 0 0 2.85714 -609.14349 -473.66662)" r="7" xlink:href="#5" gradientUnits="userSpaceOnUse"/>
  <radialGradient cx="328" cy="255.42" gradientTransform="matrix(1.22449 0 0 1.22449 49.7555 -179.34296)" r="7" xlink:href="#5" gradientUnits="userSpaceOnUse"/>
  <radialGradient cx="328" cy="255.42" gradientTransform="matrix(2.85714 0 0 2.85714 -609.14349 -473.66662)" r="7" xlink:href="#5" gradientUnits="userSpaceOnUse"/>
  <radialGradient cx="328" cy="255.42" gradientTransform="matrix(1.22449 0 0 1.22449 49.7555 -179.34296)" r="7" xlink:href="#5" gradientUnits="userSpaceOnUse"/>
 </defs>
 <rect width="12.982" x="0.273" y="0.293" rx="6.491" height="12.982" opacity="0.5" fill="#fff" color="#bebebe" stroke-width="0.184"/>
 <g fill-rule="evenodd">
  <rect width="11.853" x="0.838" y="0.857" rx="5.926" height="11.853" fill="url(#B)" color="#000"/>
 </g>
 <path d="M 6.7347704,3.5351392 C 6.4677165,3.5363494 6.2126872,3.5588925 5.9882871,3.5981645 5.3272326,3.7136752 5.2072109,3.9554497 5.2072109,4.4013228 l 0,0.5888656 1.5621526,0 0,0.1962847 -1.5621526,0 -0.5862624,0 c -0.4540051,0 -0.8515449,0.2699015 -0.9758902,0.7833523 -0.1434308,0.5885257 -0.149793,0.9557801 0,1.5703004 0.1110429,0.4574215 0.3762298,0.7833467 0.8302349,0.7833467 l 0.4603691,0 0,-0.7818137 c 0,-0.5099818 0.446121,-0.9598254 0.9758901,-0.9598254 l 1.6370665,0 c 0.4343409,0 0.8450216,-0.3537178 0.8450216,-0.7851502 l 0,-1.3953604 c 0,-0.4187257 -0.4210911,-0.7332756 -0.8450216,-0.8031583 C 7.2802645,3.5539828 7.0018235,3.5339119 6.7347704,3.5351392 z M 5.8899698,4.0087476 c 0.1613593,0 0.2931312,0.1324642 0.2931312,0.2953318 -6e-7,0.162297 -0.1317719,0.2935338 -0.2931312,0.2935338 -0.1619383,0 -0.2931312,-0.1312368 -0.2931312,-0.2935338 0,-0.1628676 0.1311929,-0.2953318 0.2931312,-0.2953318 z" fill="#4887ba" stroke="#2d2d2d" stroke-width="0.297"/>
 <path d="m 8.6140326,5.1864731 0,0.686109 c 0,0.5319255 -0.4559531,0.9163929 -0.9758897,0.9163929 l -1.7138014,0 c -0.4274014,0 -0.7810762,0.4250472 -0.7810762,0.8483944 l 0,1.4712536 c 0,0.4187311 0.3681337,0.6650177 0.7810762,0.7851498 0.4944896,0.1438112 1.0326247,0.1698062 1.6242774,0 C 7.941897,9.7811495 8.3296952,9.554496 8.3296949,9.108623 l 0,-0.5888601 -1.5603314,0 0,-0.1962904 1.5603314,0 0.7810765,0 c 0.4540053,0 0.6231862,-0.3132187 0.7810757,-0.7833467 0.1630949,-0.4839925 0.1561559,-0.9494295 0,-1.5703004 C 9.7796474,5.5227939 9.5653541,5.1864731 9.1107714,5.1864731 z M 7.6469364,8.9123382 c 0.1619377,0 0.2931309,0.1312368 0.2931309,0.2935281 0,0.1628733 -0.1311932,0.2953317 -0.2931309,0.2953317 -0.16136,0 -0.2931313,-0.1324584 -0.2931313,-0.2953317 0,-0.1622913 0.1317707,-0.2935281 0.2931313,-0.2935281 z" fill="#ffe934" stroke="#2d2d2d" stroke-width="0.297"/>
</svg>
