<svg xmlns="http://www.w3.org/2000/svg" xmlns:xlink="http://www.w3.org/1999/xlink" width="48" viewBox="0 0 13.546667 13.546667" height="48">
 <defs>
  <clipPath>
   <path d="M 93.311,354.545 L 478.511,354.545 L 478.511,69.1846 L 93.311,69.1846 L 93.311,354.545 z"/>
  </clipPath>
  <clipPath>
   <rect width="96" x="-100" height="96" fill="#fff"/>
  </clipPath>
  <clipPath>
   <rect width="84" x="6" y="6" rx="6" height="84" fill="#fff"/>
  </clipPath>
  <clipPath>
   <path d="M 54.1,12.5 12.9,54.7 C -2.7,70.3 23,69 32.3,74.9 36.6,77.7 18.5,81.3 22.2,85 c 3.6,3.7 21.7,7.1 25.3,10.7 3.6,3.7 -7.3,7.6 -3.7,11.3 3.5,3.7 11.9,0.2 13.4,8.6 1.1,6.2 15.4,3.1 21.8,-2.2 4,-3.4 -6.9,-3.4 -3.3,-7.1 9,-9.1 17,-4.1 20.3,-12.5 1.8,-4.5 -13.6,-7.7 -9.5,-10.6 9.8,-6.9 45.8,-10.4 29.2,-27 L 73,12.5 c -5.3,-5 -14,-5 -18.9,0 z m -9.9,64.7 c 0.9,0 30.8,4 19.3,7.1 -4.4,1.2 -24.6,-7.1 -19.3,-7.1 z m 57.2,16.6 c 0,2.1 16.3,3.3 15.4,-0.5 -1.3,-6.4 -13.6,-5.9 -15.4,0.5 z m -69.5,11.1 c 3.7,3.2 9.3,-0.7 11.1,-5.2 -3.6,-4.7 -16.9,0.3 -11.1,5.2 z m 67.5,-6.7 c -4.6,4.2 0.8,8.6 5.3,5.7 1.2,-0.8 -0.1,-4.7 -5.3,-5.7 z"/>
  </clipPath>
  <clipPath>
   <path d="M 95.311,352.545 L 476.403,352.545 L 476.403,71.4229 L 95.311,71.4229 L 95.311,352.545 z"/>
  </clipPath>
  <clipPath>
   <path d="M 93.311,69.185 L 478.511,69.185 L 478.511,354.545 L 93.311,354.545 L 93.311,69.185 z"/>
  </clipPath>
  <clipPath>
   <path d="M 92.311,355.545 L 479.511,355.545 L 479.511,68.1846 L 92.311,68.1846 L 92.311,355.545 z"/>
  </clipPath>
  <clipPath>
   <rect width="20" x="1" y="1" rx="2" height="20" fill="#fff" fill-rule="evenodd"/>
  </clipPath>
  <linearGradient gradientTransform="matrix(1.10525 0 0 1.10525 -134.27874 -295.76183)" xlink:href="#1" id="0" y1="279.1" y2="268.33" gradientUnits="userSpaceOnUse" x2="0"/>
  <linearGradient id="1">
   <stop stop-color="#3e3e3e"/>
   <stop offset="1" stop-color="#5e5e5e"/>
  </linearGradient>
 </defs>
 <g fill-rule="evenodd">
  <rect width="12.982" x="0.282" y="0.282" rx="6.491" height="12.982" opacity="0.5" fill="#fff"/>
  <rect width="11.853" x="0.847" y="0.847" rx="5.926" height="11.853" fill="url(#0)"/>
 </g>
 <path d="m 3.9934443,3.1046613 c 0,0 -0.3245553,2.56e-5 -0.3245553,0.3057317 l 0,6.726098 c 0,0 0,0.305731 0.3245553,0.305731 l 5.842001,0 c 0,0 0.3245547,3e-6 0.3245547,-0.305705 l 0,-4.5855843 L 7.5635557,3.1052872 C 6.3577819,3.1038772 4.7258079,3.1046613 3.9934443,3.1046613 z" fill="#f9f9f9" color="#000"/>
 <path d="M 10.159999,5.5503709 7.5635557,3.1044448 c -0.00138,1.2225832 0,1.8344445 0,2.1401853 0,0.3057408 0,0.3057408 0.3245552,0.3057408 0.3245553,0 1.3301773,0.00365 2.2718881,0 z" fill="#dedede" color="#000"/>
 <path d="m 7.363893,3.9886735 c 0,0 0.1950565,1.7978366 -1.182652,4.1715081 C 4.8035342,10.533854 4.3995442,10.215298 4.2545212,10.13309 4.1095002,10.050903 3.9230427,9.7837267 4.534206,9.2493957 c 0.6111655,-0.534331 0.8494142,-0.524055 0.8494142,-0.524055 0,0 -0.5593698,0.339087 -0.7769026,0.667919 C 4.3891851,9.7220707 4.213087,9.9275907 4.2648803,10.020075 4.3166743,10.112535 4.9411295,9.6408307 5.2000965,9.2400887 5.6113886,8.6036287 6.3884164,7.4203308 6.7509698,6.290013 7.1135254,5.1596952 7.363893,3.9886735 7.363893,3.9886735 z" fill="#b40707"/>
 <path d="m 9.6207093,8.268252 c 0,0 -0.031075,0.082208 -0.3936309,0.05138 C 8.8645229,8.288804 7.4557387,7.846957 6.6995523,6.9426903 5.9433683,6.0384443 5.8812159,4.7950905 5.8294223,4.1477237 5.777629,3.5003569 6.0639582,3.6806713 6.1053947,3.7628792 c 0.064889,0.054286 0.09694,0.2307045 0.09694,0.2307045 0,0 -0.023257,-0.265028 -0.1372026,-0.3780641 -0.113946,-0.113036 -0.2149938,-0.1151627 -0.3289398,0.080123 -0.113946,0.195244 -0.1657392,0.7398509 -0.072509,1.2639058 0.093228,0.524055 0.4764995,1.7263048 0.953001,2.2811875 0.4764991,0.5548831 1.4295018,1.0378337 2.1338932,1.1816979 0.7043928,0.1438429 0.8701321,-0.15414 0.8701321,-0.15414 z" fill="#b40707"/>
 <path d="m 4.8838691,9.6732475 c 0,0 1.3673494,-0.441847 2.662188,-0.5651589 1.2948379,-0.1232912 1.740262,0.010318 1.8542076,0.1027599 0.113946,0.092484 0.113946,0.195244 0.113946,0.195244 0,0 0.144828,-0.1428955 0.049643,-0.2894757 C 9.482743,8.9654038 9.3588285,8.8409336 8.3333164,8.8717617 7.3078039,8.9025895 7.2352927,8.9436935 6.2926509,9.1183645 5.350007,9.2930564 4.8838667,9.6732475 4.8838691,9.6732475 z" fill="#b40707"/>
</svg>
