<svg xmlns="http://www.w3.org/2000/svg" xmlns:xlink="http://www.w3.org/1999/xlink" width="48" viewBox="0 0 13.546667 13.546667" height="48">
 <defs>
  <linearGradient id="0">
   <stop stop-color="#cccccc"/>
   <stop offset="1" stop-color="#eaeaea"/>
  </linearGradient>
  <linearGradient xlink:href="#0" id="1" gradientUnits="userSpaceOnUse" gradientTransform="matrix(1.10525,0,0,1.10525,-134.27874,-295.76183)" y1="279.1" x2="0" y2="268.33"/>
 </defs>
 <rect height="12.982" rx="6.491" y="0.282" x="0.282" width="12.982" opacity="0.5" fill="#ffffff" fill-rule="evenodd"/>
 <rect height="11.853" rx="5.926" y="0.847" x="0.847" width="11.853" fill="url(#1)" fill-rule="evenodd"/>
 <path d="M 5.3714206,5.4629339 C 5.3861044,5.8582655 4.9689201,5.8760228 5.0544656,5.4184294 5.1524854,4.8941263 4.8024334,4.6581946 4.4680378,4.4687449 5.1472424,5.3600119 4.3340457,5.3616323 4.0190187,6.5061792 3.9121333,6.8945265 3.824878,7.2950797 3.9779341,7.6381627 4.021523,7.7358839 4.1386177,7.8541445 4.1282042,7.9718051 4.1173221,8.0948574 4.0508927,8.1895354 3.9978357,8.2976129 3.9170745,8.4621478 3.7646743,8.611444 3.6953745,8.7589916 c -0.038279,0.08149 0.05595,0.1428983 0.1241339,0.1822642 0.1027859,0.059344 0.2450473,0.078402 0.3054472,0.1875 0.04208,0.076012 0.030555,0.1569709 -0.00503,0.2305886 -0.033039,0.068504 -0.057529,0.1733439 0.011103,0.2189655 0.050458,0.033534 0.1174286,0.052158 0.1521147,0.1105375 0.033481,0.056356 0.017701,0.1237637 0.070744,0.1676922 0.088405,0.073209 0.2334943,0.06629 0.3003551,0.2185974 0.031098,0.07086 0.051896,0.149692 0.093263,0.22 0.062668,0.106509 0.2379981,0.139217 0.3589146,0.127035 0.130109,-0.0131 0.2256606,-0.0527 0.3506373,-0.09128 C 5.7810005,10.23089 6.0848446,10.098387 6.3737333,9.9155856 6.6188631,9.7604709 6.7639315,9.6725343 6.9844045,9.5446106 7.1419914,9.4531768 7.371835,9.4840144 7.5472457,9.4386286 7.763919,9.3825674 8.0286527,9.2947658 8.1825134,9.1420797 8.3450897,8.9807474 8.4116036,8.8532644 8.4625978,8.555855 8.392407,8.6528677 8.2097227,8.875841 8.0292904,8.9346575 7.8309055,8.9993273 7.7601072,8.9660951 7.700525,8.884567 7.6495841,8.8148459 7.6365195,8.7220205 7.6388729,8.636509 7.7570226,8.2479843 8.2647992,8.4097433 8.6061184,8.275793 9.2274012,8.0319713 9.3705295,7.4780937 9.4086864,7.0432539 9.4295254,6.8057989 9.4586216,6.6471729 9.8586379,6.1693104 9.3576168,6.3839772 9.1508943,6.5812092 9.0358503,6.8336181 8.9280155,7.070282 8.5859502,7.3489279 8.3810642,7.1164691 8.119941,6.820205 8.7026114,6.4238013 9.1284702,6.3176425 9.4687645,6.2328105 9.7839081,5.893666 9.8519487,5.5661023 10.022816,4.4300872 9.4884288,3.9243464 9.8954169,3.0868059 8.6854896,4.0324206 9.7145088,4.547328 8.9403269,5.3258856 8.5005364,5.7681606 8.0345021,5.5331865 8.2091816,5.1553138 8.3220029,4.9112528 8.5927973,5.0594637 8.6820409,4.4965436 8.4309903,4.861374 7.6208107,4.614676 7.3886178,5.2077324 6.9845926,6.2396531 6.4231897,5.2464561 7.343299,4.7518878 7.7314888,4.5432339 8.6658062,4.611151 8.8925048,3.1229 8.4380526,4.0043136 7.3231067,3.8641075 6.4253219,4.2442007 5.9627866,4.4400241 5.3503945,4.8977699 5.3713773,5.4629412 z" fill="#1c93da"/>
</svg>
