<?xml version="1.0" encoding="UTF-8" standalone="no"?>
<svg
   xmlns:dc="http://purl.org/dc/elements/1.1/"
   xmlns:cc="http://creativecommons.org/ns#"
   xmlns:rdf="http://www.w3.org/1999/02/22-rdf-syntax-ns#"
   xmlns:svg="http://www.w3.org/2000/svg"
   xmlns="http://www.w3.org/2000/svg"
   xmlns:xlink="http://www.w3.org/1999/xlink"
   xmlns:sodipodi="http://sodipodi.sourceforge.net/DTD/sodipodi-0.dtd"
   xmlns:inkscape="http://www.inkscape.org/namespaces/inkscape"
   viewBox="0 0 48 48"
   id="svg3642"
   version="1.1"
   inkscape:version="0.91 r13725"
   sodipodi:docname="rtcw.svg"
   inkscape:export-filename="/home/nerdtaco/Desktop/rtcw.png"
   inkscape:export-xdpi="91.914894"
   inkscape:export-ydpi="91.914894">
  <metadata
     id="metadata3717">
    <rdf:RDF>
      <cc:Work
         rdf:about="">
        <dc:format>image/svg+xml</dc:format>
        <dc:type
           rdf:resource="http://purl.org/dc/dcmitype/StillImage" />
        <dc:title></dc:title>
      </cc:Work>
    </rdf:RDF>
  </metadata>
  <sodipodi:namedview
     pagecolor="#ffffff"
     bordercolor="#666666"
     borderopacity="1"
     objecttolerance="10"
     gridtolerance="10"
     guidetolerance="10"
     inkscape:pageopacity="0"
     inkscape:pageshadow="2"
     inkscape:window-width="1366"
     inkscape:window-height="713"
     id="namedview3715"
     showgrid="false"
     inkscape:zoom="8.0941163"
     inkscape:cx="21.29111"
     inkscape:cy="21.413296"
     inkscape:window-x="0"
     inkscape:window-y="29"
     inkscape:window-maximized="1"
     inkscape:current-layer="svg3642"
     showguides="false"
     inkscape:snap-bbox="true">
    <inkscape:grid
       type="xygrid"
       id="grid4267" />
  </sodipodi:namedview>
  <defs
     id="defs3644">
    <linearGradient
       inkscape:collect="always"
       id="linearGradient4353">
      <stop
         id="stop4357"
         offset="0"
         style="stop-color:#414141;stop-opacity:1" />
      <stop
         id="stop4355"
         offset="1"
         style="stop-color:#272727;stop-opacity:1;" />
    </linearGradient>
    <clipPath
       id="clipPath-348990565">
      <g
         transform="translate(0,-1004.3622)"
         id="g3652">
        <path
           d="m -24 13 c 0 1.105 -0.672 2 -1.5 2 -0.828 0 -1.5 -0.895 -1.5 -2 0 -1.105 0.672 -2 1.5 -2 0.828 0 1.5 0.895 1.5 2 z"
           transform="matrix(15.333333,0,0,11.5,414.99999,878.8622)"
           fill="#1890d0"
           id="path3654" />
      </g>
    </clipPath>
    <clipPath
       id="clipPath-358625785">
      <g
         transform="translate(0,-1004.3622)"
         id="g3657">
        <path
           d="m -24 13 c 0 1.105 -0.672 2 -1.5 2 -0.828 0 -1.5 -0.895 -1.5 -2 0 -1.105 0.672 -2 1.5 -2 0.828 0 1.5 0.895 1.5 2 z"
           transform="matrix(15.333333,0,0,11.5,414.99999,878.8622)"
           fill="#1890d0"
           id="path3659" />
      </g>
    </clipPath>
    <linearGradient
       inkscape:collect="always"
       xlink:href="#linearGradient4353"
       id="linearGradient4359"
       x1="23.85611"
       y1="1.3909843"
       x2="23.896799"
       y2="46.979656"
       gradientUnits="userSpaceOnUse" />
  </defs>
  <g
     id="g3661">
    <path
       d="m 36.31 5 c 5.859 4.062 9.688 10.831 9.688 18.5 c 0 12.426 -10.07 22.5 -22.5 22.5 c -7.669 0 -14.438 -3.828 -18.5 -9.688 c 1.037 1.822 2.306 3.499 3.781 4.969 c 4.085 3.712 9.514 5.969 15.469 5.969 c 12.703 0 23 -10.298 23 -23 c 0 -5.954 -2.256 -11.384 -5.969 -15.469 c -1.469 -1.475 -3.147 -2.744 -4.969 -3.781 z m 4.969 3.781 c 3.854 4.113 6.219 9.637 6.219 15.719 c 0 12.703 -10.297 23 -23 23 c -6.081 0 -11.606 -2.364 -15.719 -6.219 c 4.16 4.144 9.883 6.719 16.219 6.719 c 12.703 0 23 -10.298 23 -23 c 0 -6.335 -2.575 -12.06 -6.719 -16.219 z"
       opacity="0.05"
       id="path3663" />
    <path
       d="m 41.28 8.781 c 3.712 4.085 5.969 9.514 5.969 15.469 c 0 12.703 -10.297 23 -23 23 c -5.954 0 -11.384 -2.256 -15.469 -5.969 c 4.113 3.854 9.637 6.219 15.719 6.219 c 12.703 0 23 -10.298 23 -23 c 0 -6.081 -2.364 -11.606 -6.219 -15.719 z"
       opacity="0.1"
       id="path3665" />
    <path
       d="m 31.25 2.375 c 8.615 3.154 14.75 11.417 14.75 21.13 c 0 12.426 -10.07 22.5 -22.5 22.5 c -9.708 0 -17.971 -6.135 -21.12 -14.75 a 23 23 0 0 0 44.875 -7 a 23 23 0 0 0 -16 -21.875 z"
       opacity="0.2"
       id="path3667" />
  </g>
  <g
     id="g3669">
    <path
       d="m 24 1 c 12.703 0 23 10.297 23 23 c 0 12.703 -10.297 23 -23 23 -12.703 0 -23 -10.297 -23 -23 0 -12.703 10.297 -23 23 -23 z"
       id="path3671"
       style="fill:url(#linearGradient4359);fill-opacity:1"
       fill-opacity="1"
       fill="url(#linearGradient3764)" />
  </g>
  <g
     id="g3673" />
  <g
     id="g3675"
     transform="translate(-0.5,-0.5)">
    <g
       clip-path="url(#clipPath-348990565)"
       id="g3677">
      <g
         transform="translate(1,1)"
         id="g3679">
        <g
           id="g3681"
           style="opacity:0.1">
          <!-- color: #a0a0a0 -->
          <g
             id="g3683" />
        </g>
      </g>
    </g>
  </g>
  <g
     id="g3711">
    <path
       d="m 40.03 7.531 c 3.712 4.084 5.969 9.514 5.969 15.469 0 12.703 -10.297 23 -23 23 c -5.954 0 -11.384 -2.256 -15.469 -5.969 4.178 4.291 10.01 6.969 16.469 6.969 c 12.703 0 23 -10.298 23 -23 0 -6.462 -2.677 -12.291 -6.969 -16.469 z"
       opacity="0.1"
       id="path3713"
       style="fill:#000000" />
  </g>
  <path
     d="m 9,19 6,7 6,0 0,9 2,-2 0,4 4,-4 0,1 2,-2.1 0,-5.9 6,0.05458 L 41,19 29,19 29,17 c -3,0 -4,0 -4,1 l 0.9955,1.94948 0.0045,0 L 26,23 24,23 24,20 25.9955,19.94948 25,18 c 0,-1 -1,-1 -4,-1 l 0,2"
     id="path3701-6"
     inkscape:connector-curvature="0"
     style="fill:#000000;fill-opacity:0.10196078;fill-rule:nonzero;stroke:none"
     sodipodi:nodetypes="cccccccccccccccccccccccc" />
  <g
     id="g3695">
    <g
       clip-path="url(#clipPath-358625785)"
       id="g3697">
      <!-- color: #a0a0a0 -->
      <g
         id="g3699">
        <path
           d="m 8,18 6,7 6,0 0,9 2,-2 0,4 4,-4 0,1 2,-2.1 0,-5.9 6,0.05458 L 40,18 28,18 28,16 c -3,0 -4,0 -4,1 l 0.9955,1.94948 0.0045,0 L 25,22 23,22 23,19 24.9955,18.94948 24,17 c 0,-1 -1,-1 -4,-1 l 0,2"
           id="path3701"
           inkscape:connector-curvature="0"
           style="fill:#dcdcdc;fill-opacity:1;fill-rule:nonzero;stroke:none"
           sodipodi:nodetypes="cccccccccccccccccccccccc" />
        <g
           id="g4361">
          <g
             id="g4196">
            <path
               d="m 15,24 6,0 0,7 1,-1 1,-1 0,4 2,-2 0,-1 1,-1.138 0,2.138 0.992983,-1 0.007,-6 5.999781,0 L 34,23 l -8,0 0,5 -1,1 0,-6 -2,0 0,5 -1,1 0,-6 -8,0"
               id="path3705"
               inkscape:connector-curvature="0"
               style="opacity:1;fill:#e04936;fill-opacity:1;fill-rule:nonzero;stroke:none"
               sodipodi:nodetypes="ccccccccccccccccccccccc" />
            <path
               d="m 12,21 1,1 9,0 0,-3 c 0,-1 0,-1 1,-1 0,-1 0,-1 -2,-1 l 0,4 -3,0 2,-2 -10,0 1,1 7,0 -1,1"
               id="path3707"
               inkscape:connector-curvature="0"
               style="fill:#d64936;fill-opacity:1;fill-rule:nonzero;stroke:none"
               sodipodi:nodetypes="ccccccccccccc" />
            <path
               d="m 36,21 -1,1 -9,0 0,-3 c 0,-1 0,-1 -1,-1 0,-1 0,-0.961846 2,-1 l 0,4 3,0 -2,-2 10,0 -1,1 -7,0 1,1"
               id="path3709"
               inkscape:connector-curvature="0"
               style="fill:#d64936;fill-opacity:1;fill-rule:nonzero;stroke:none"
               sodipodi:nodetypes="ccccccccccccc" />
          </g>
        </g>
      </g>
    </g>
  </g>
</svg>
