<?xml version="1.0" encoding="UTF-8" standalone="no"?>
<svg
   xmlns:dc="http://purl.org/dc/elements/1.1/"
   xmlns:cc="http://creativecommons.org/ns#"
   xmlns:rdf="http://www.w3.org/1999/02/22-rdf-syntax-ns#"
   xmlns:svg="http://www.w3.org/2000/svg"
   xmlns="http://www.w3.org/2000/svg"
   xmlns:xlink="http://www.w3.org/1999/xlink"
   xmlns:sodipodi="http://sodipodi.sourceforge.net/DTD/sodipodi-0.dtd"
   xmlns:inkscape="http://www.inkscape.org/namespaces/inkscape"
   viewBox="0 0 48 48"
   id="svg2"
   version="1.1"
   inkscape:version="0.91 r13725"
   sodipodi:docname="samplv1-2aa.svg">
  <metadata
     id="metadata69">
    <rdf:RDF>
      <cc:Work
         rdf:about="">
        <dc:format>image/svg+xml</dc:format>
        <dc:type
           rdf:resource="http://purl.org/dc/dcmitype/StillImage" />
        <dc:title></dc:title>
      </cc:Work>
    </rdf:RDF>
  </metadata>
  <sodipodi:namedview
     pagecolor="#ffffff"
     bordercolor="#666666"
     borderopacity="1"
     objecttolerance="10"
     gridtolerance="10"
     guidetolerance="10"
     inkscape:pageopacity="0"
     inkscape:pageshadow="2"
     inkscape:window-width="640"
     inkscape:window-height="480"
     id="namedview67"
     showgrid="false"
     inkscape:zoom="4.9166667"
     inkscape:cx="24"
     inkscape:cy="24"
     inkscape:window-x="0"
     inkscape:window-y="28"
     inkscape:window-maximized="0"
     inkscape:current-layer="svg2" />
  <defs
     id="defs4">
    <linearGradient
       id="linearGradient3764"
       x1="1"
       x2="47"
       gradientUnits="userSpaceOnUse"
       gradientTransform="matrix(0,-1,1,0,-1.5e-6,47.999998)">
      <stop
         stop-color="#ff8e29"
         stop-opacity="1"
         id="stop7" />
      <stop
         offset="1"
         stop-color="#ff993d"
         stop-opacity="1"
         id="stop9" />
    </linearGradient>
    <linearGradient
       inkscape:collect="always"
       xlink:href="#linearGradient2762"
       id="linearGradient3560"
       gradientUnits="userSpaceOnUse"
       gradientTransform="matrix(0.88129476,0,0,1.0409089,19.368923,-48.86517)"
       x1="307.78"
       y1="209.78"
       x2="307.78"
       y2="89.285004" />
    <linearGradient
       id="linearGradient2762">
      <stop
         id="stop2764"
         stop-color="#dfe0e2"
         offset="0" />
      <stop
         id="stop2766"
         stop-color="#fafbff"
         offset="1" />
    </linearGradient>
    <linearGradient
       inkscape:collect="always"
       xlink:href="#linearGradient2762"
       id="linearGradient3217"
       gradientUnits="userSpaceOnUse"
       gradientTransform="matrix(0.8099634,0,0,1.0409089,105.3777,-48.86517)"
       x1="307.78"
       y1="209.78"
       x2="307.78"
       y2="89.285004" />
    <linearGradient
       inkscape:collect="always"
       xlink:href="#linearGradient2762"
       id="linearGradient4023"
       gradientUnits="userSpaceOnUse"
       gradientTransform="matrix(0.88129476,0,0,1.0409089,19.368923,-48.86517)"
       x1="307.78"
       y1="209.78"
       x2="307.78"
       y2="89.285004" />
    <linearGradient
       inkscape:collect="always"
       xlink:href="#linearGradient2762"
       id="linearGradient4025"
       gradientUnits="userSpaceOnUse"
       gradientTransform="matrix(0.88129476,0,0,1.0409089,19.368923,-48.86517)"
       x1="307.78"
       y1="209.78"
       x2="307.78"
       y2="89.285004" />
    <linearGradient
       inkscape:collect="always"
       xlink:href="#linearGradient2762"
       id="linearGradient4027"
       gradientUnits="userSpaceOnUse"
       gradientTransform="matrix(0.88129476,0,0,1.0409089,19.368923,-48.86517)"
       x1="307.78"
       y1="209.78"
       x2="307.78"
       y2="89.285004" />
    <linearGradient
       inkscape:collect="always"
       xlink:href="#linearGradient2762"
       id="linearGradient4029"
       gradientUnits="userSpaceOnUse"
       gradientTransform="matrix(0.88129476,0,0,1.0409089,19.368923,-48.86517)"
       x1="307.78"
       y1="209.78"
       x2="307.78"
       y2="89.285004" />
    <linearGradient
       inkscape:collect="always"
       xlink:href="#linearGradient2762"
       id="linearGradient4031"
       gradientUnits="userSpaceOnUse"
       gradientTransform="matrix(0.88129476,0,0,1.0409089,19.368923,-48.86517)"
       x1="307.78"
       y1="209.78"
       x2="307.78"
       y2="89.285004" />
    <linearGradient
       inkscape:collect="always"
       xlink:href="#linearGradient2762"
       id="linearGradient4033"
       gradientUnits="userSpaceOnUse"
       gradientTransform="matrix(0.88129476,0,0,1.0409089,19.368923,-48.86517)"
       x1="307.78"
       y1="209.78"
       x2="307.78"
       y2="89.285004" />
  </defs>
  <g
     id="g21">
    <path
       d="m 36.31 5 c 5.859 4.062 9.688 10.831 9.688 18.5 c 0 12.426 -10.07 22.5 -22.5 22.5 c -7.669 0 -14.438 -3.828 -18.5 -9.688 c 1.037 1.822 2.306 3.499 3.781 4.969 c 4.085 3.712 9.514 5.969 15.469 5.969 c 12.703 0 23 -10.298 23 -23 c 0 -5.954 -2.256 -11.384 -5.969 -15.469 c -1.469 -1.475 -3.147 -2.744 -4.969 -3.781 z m 4.969 3.781 c 3.854 4.113 6.219 9.637 6.219 15.719 c 0 12.703 -10.297 23 -23 23 c -6.081 0 -11.606 -2.364 -15.719 -6.219 c 4.16 4.144 9.883 6.719 16.219 6.719 c 12.703 0 23 -10.298 23 -23 c 0 -6.335 -2.575 -12.06 -6.719 -16.219 z"
       opacity="0.05"
       id="path23" />
    <path
       d="m 41.28 8.781 c 3.712 4.085 5.969 9.514 5.969 15.469 c 0 12.703 -10.297 23 -23 23 c -5.954 0 -11.384 -2.256 -15.469 -5.969 c 4.113 3.854 9.637 6.219 15.719 6.219 c 12.703 0 23 -10.298 23 -23 c 0 -6.081 -2.364 -11.606 -6.219 -15.719 z"
       opacity="0.1"
       id="path25" />
    <path
       d="m 31.25 2.375 c 8.615 3.154 14.75 11.417 14.75 21.13 c 0 12.426 -10.07 22.5 -22.5 22.5 c -9.708 0 -17.971 -6.135 -21.12 -14.75 a 23 23 0 0 0 44.875 -7 a 23 23 0 0 0 -16 -21.875 z"
       opacity="0.2"
       id="path27" />
  </g>
  <g
     id="g29">
    <path
       d="m 24 1 c 12.703 0 23 10.297 23 23 c 0 12.703 -10.297 23 -23 23 -12.703 0 -23 -10.297 -23 -23 0 -12.703 10.297 -23 23 -23 z"
       fill="url(#linearGradient3764)"
       fill-opacity="1"
       id="path31" />
  </g>
  <g
     id="g33" />
  <g
     id="g63">
    <path
       d="m 40.03 7.531 c 3.712 4.084 5.969 9.514 5.969 15.469 0 12.703 -10.297 23 -23 23 c -5.954 0 -11.384 -2.256 -15.469 -5.969 4.178 4.291 10.01 6.969 16.469 6.969 c 12.703 0 23 -10.298 23 -23 0 -6.462 -2.677 -12.291 -6.969 -16.469 z"
       opacity="0.1"
       id="path65" />
  </g>
  <g
     id="g4604"
     transform="translate(0,0.99999993)">
    <g
       id="g4201"
       transform="scale(3.543307,3.543307)">
      <g
         id="g4556"
         transform="matrix(0.03514303,0,0,0.03332415,0.09971475,3.7740934)">
        <g
           id="g3210"
           transform="translate(792.1,-39.21)" />
        <g
           id="g4413">
          <g
             id="g4083">
            <g
               id="g3526"
               transform="translate(-1.391,0)" />
            <g
               id="g3531"
               transform="translate(1.2034,-0.48392)" />
            <g
               id="g3538" />
            <g
               id="g3543"
               transform="translate(0.32488,0.48393)" />
            <g
               id="g3548" />
          </g>
          <g
             id="g3942"
             transform="translate(-173.8,0)">
            <g
               id="g3958"
               transform="translate(-1.391,0)" />
            <g
               id="g3966"
               transform="translate(1.2034,-0.48392)" />
            <g
               id="g3974" />
            <g
               id="g3982"
               transform="translate(0.32488,0.48393)" />
            <g
               id="g3990" />
          </g>
          <g
             id="g4113"
             transform="translate(-347.6,0)">
            <g
               id="g4129"
               transform="translate(-1.391,0)" />
            <g
               id="g4137"
               transform="translate(1.2034,-0.48392)" />
            <g
               id="g4145" />
            <g
               id="g4153"
               transform="translate(0.32488,0.48393)" />
            <g
               id="g4161" />
          </g>
          <g
             id="g4213"
             transform="translate(-521.4,0)">
            <g
               id="g4229"
               transform="translate(-1.391,0)" />
            <g
               id="g4237"
               transform="translate(1.2034,-0.48392)" />
            <g
               id="g4245" />
            <g
               id="g4253"
               transform="translate(0.32488,0.48393)" />
            <g
               id="g4261" />
          </g>
          <g
             id="g4313"
             transform="translate(-695.2,0)">
            <g
               id="g4329"
               transform="translate(-1.391,0)" />
            <g
               id="g4337"
               transform="translate(1.2034,-0.48392)" />
            <g
               id="g4345" />
            <g
               id="g4353"
               transform="translate(0.32488,0.48393)" />
            <g
               id="g4361">
              <g
                 id="g4084">
                <path
                   sodipodi:nodetypes="sssssssss"
                   inkscape:connector-curvature="0"
                   style="fill:#000000;fill-opacity:0.17254902"
                   d="m 800.61997,-3.160858 185.01912,0 c 6.58664,0 11.88911,5.329257 11.88911,11.949003 l 0,162.423855 c 0,6.61975 -5.30247,11.949 -11.88911,11.949 l -185.01912,0 c -6.58663,0 -11.88927,-5.32925 -11.88927,-11.949 l 0,-162.423855 c 0,-6.619746 5.30264,-11.949003 11.88927,-11.949003 z"
                   id="path3071" />
                <path
                   id="rect2933"
                   d="m 985.48222,39.187999 0,123.555001 c 0,6.61975 -1.28717,7.7145 -7.87381,7.7145 l -185.01912,0 c -6.58663,0 -7.83091,-1.09491 -7.87393,-7.7145 l 0,-123.555001 z"
                   style="fill:#2d2d2d;fill-opacity:1"
                   inkscape:connector-curvature="0"
                   sodipodi:nodetypes="csssscc" />
                <path
                   style="fill:url(#linearGradient4023)"
                   d="m 862.80563,64.594093 c 0,0 0.002,59.611507 0.002,97.595397 0,2.23258 1.5248,4.03351 3.41501,4.03351 l 13.66008,0 c 1.89021,0 3.41501,-1.80093 3.41501,-4.03351 l 0,-29.8383 -3.91331,0 c -0.98577,0 -1.79013,-0.70722 -1.79013,-1.87155 l 0.002,-65.885547 z"
                   id="path3234"
                   inkscape:connector-curvature="0"
                   sodipodi:nodetypes="ccssscsccc" />
                <path
                   style="fill:url(#linearGradient4025)"
                   d="m 907.99016,132.35119 -3.97746,0 c -0.98981,0 -1.80517,-0.70411 -1.79254,-1.87155 l 3.4e-4,-65.885547 -9.22912,0 -0.003,65.885547 c -0.006,1.16431 -0.82795,2.09258 -1.79254,1.87155 l -3.69594,0 0,29.8383 c 0,2.23258 1.52686,4.03351 3.41962,4.03351 l 13.65087,0 c 1.89275,0 3.41961,-1.80093 3.41961,-4.03351 z"
                   id="path3232"
                   inkscape:connector-curvature="0"
                   sodipodi:nodetypes="csccccscssssc" />
                <path
                   style="fill:url(#linearGradient4027)"
                   d="m 942.40435,64.594093 -3.4e-4,65.885547 c -10e-6,1.16592 -0.80407,1.87155 -1.79252,1.87155 l -3.72675,0 1.6e-4,29.8383 c 10e-6,2.23258 1.52685,4.03351 3.41959,4.03351 l 13.65076,0 c 1.89275,0 3.41959,-1.80093 3.41959,-4.03351 l 0,-97.595397 z"
                   id="path3230"
                   inkscape:connector-curvature="0"
                   sodipodi:nodetypes="csscsssccc" />
                <path
                   style="fill:url(#linearGradient4029)"
                   d="m 917.62395,64.594093 -3.4e-4,65.885547 c -10e-6,1.16752 -0.80174,1.87155 -1.79033,1.87155 l -3.64288,0 0.004,29.8383 c 0.005,2.23257 1.51854,4.03351 3.40898,4.03351 l 13.66167,0 c 1.89042,0 3.4154,-1.80093 3.4154,-4.03351 l 3e-5,-29.8383 -3.88915,0 c -0.98723,0 -1.79031,-0.70564 -1.79033,-1.87155 l -8.7e-4,-65.885547 z"
                   id="path3228"
                   inkscape:connector-curvature="0"
                   sodipodi:nodetypes="cssccssscsscc" />
                <path
                   inkscape:connector-curvature="0"
                   style="fill:url(#linearGradient4031)"
                   d="m 788.7307,64.595905 0,97.398455 c 0,2.23248 1.91559,4.22864 3.68768,4.22864 l 13.60078,0 c 1.77211,0 3.20164,-1.99616 3.20164,-4.22864 l 0,-29.64386 -3.28414,0 c -0.93054,0 -1.67829,-0.73178 -1.67829,-1.90406 l 0,-65.852348 z"
                   id="path3226"
                   sodipodi:nodetypes="csssscsscc" />
                <path
                   style="fill:url(#linearGradient4033)"
                   d="m 833.91314,132.3505 -3.48253,0 c -0.98981,0 -1.76496,-0.70404 -1.76496,-1.87155 l 0,-65.884857 -9.8636,0 0,65.852347 c 0,1.17228 -0.83062,1.7978 -1.82011,1.90406 l -3.5589,0 0,29.83899 c 0,2.23258 1.52686,4.03351 3.41962,4.03351 l 13.65087,0 c 1.89276,0 3.41961,-1.80093 3.41961,-4.03351 z"
                   id="path3224"
                   inkscape:connector-curvature="0"
                   sodipodi:nodetypes="cssccsccssssc" />
                <path
                   style="fill:url(#linearGradient3560)"
                   d="m 843.41525,64.594093 0,65.885547 c 0,1.16751 -0.80273,1.87155 -1.79253,1.87155 l -3.41954,0 -0.0878,29.8383 c -0.005,2.23257 1.52686,4.03351 3.41962,4.03351 l 13.65085,0 c 1.89276,0 3.41962,-1.80093 3.41962,-4.03351 0.006,-21.37349 1.1e-4,-97.595397 1.1e-4,-97.595397 z"
                   id="path4148"
                   inkscape:connector-curvature="0"
                   sodipodi:nodetypes="cssccssccc" />
                <path
                   style="fill:url(#linearGradient3217)"
                   d="m 960.98864,64.594093 0,97.595397 c 0,2.23258 1.40139,4.03351 3.1386,4.03351 l 14.41486,0 c 1.73721,0 2.92476,-1.80093 2.92476,-4.03351 l 0,-97.593585 z"
                   id="rect4215"
                   inkscape:connector-curvature="0"
                   sodipodi:nodetypes="ccssscc" />
              </g>
            </g>
          </g>
        </g>
      </g>
      <path
         sodipodi:nodetypes="sccccccccss"
         inkscape:connector-curvature="0"
         id="rect2933-7"
         transform="scale(0.28222223,0.28222223)"
         d="M 12.46875,12 C 11.648566,12 11,12.624606 11,13.40625 11,16.604167 11,19.802083 11,23 l 1,0 0,-1 24,0 0,1 1,0 c 0,-3.197917 0,-6.395833 0,-9.59375 C 37,12.624606 36.351433,12 35.53125,12 Z"
         style="fill:#97b1b5;fill-opacity:1" />
    </g>
    <rect
       rx="0.99999994"
       ry="0.99999994"
       y="14"
       x="13"
       height="6"
       width="1"
       id="rect4372"
       style="fill:#6f6f6f;fill-opacity:0.75845409" />
    <rect
       ry="0.99999994"
       rx="0.99999994"
       y="15"
       x="12"
       height="1"
       width="3"
       id="rect4374"
       style="fill:#3c3c3c;fill-opacity:1" />
    <rect
       style="fill:#6f6f6f;fill-opacity:0.75845409"
       id="rect4376"
       width="1"
       height="6"
       x="16.000002"
       y="14"
       ry="0.99999994"
       rx="0.99999994" />
    <rect
       rx="0.99999994"
       ry="0.99999994"
       style="fill:#3c3c3c;fill-opacity:1"
       id="rect4378"
       width="3"
       height="1"
       x="15"
       y="17.999998" />
    <g
       transform="translate(11,0)"
       id="g4506">
      <circle
         style="fill:#3c3c3c;fill-opacity:1"
         id="path4482"
         cx="19.5"
         cy="14.5"
         r="0.5" />
      <circle
         style="fill:#3c3c3c;fill-opacity:1"
         id="path4484"
         cx="21.5"
         cy="14.5"
         r="0.5" />
      <circle
         style="fill:#3c3c3c;fill-opacity:1"
         id="path4486"
         cx="23.5"
         cy="14.5"
         r="0.5" />
      <circle
         style="fill:#3c3c3c;fill-opacity:1"
         id="path4488"
         cx="19.5"
         cy="16.5"
         r="0.5" />
      <circle
         style="fill:#3c3c3c;fill-opacity:1"
         id="path4490"
         cx="21.5"
         cy="16.5"
         r="0.5" />
      <circle
         style="fill:#3c3c3c;fill-opacity:1"
         id="path4492"
         cx="23.5"
         cy="16.5"
         r="0.5" />
      <circle
         style="fill:#3c3c3c;fill-opacity:1"
         id="path4500"
         cx="21.5"
         cy="18.5"
         r="0.5" />
      <circle
         style="fill:#3c3c3c;fill-opacity:1"
         id="path4502"
         cx="23.5"
         cy="18.5"
         r="0.5" />
      <circle
         style="fill:#3c3c3c;fill-opacity:1"
         id="path4504"
         cx="19.5"
         cy="18.5"
         r="0.5" />
    </g>
    <rect
       rx="0.99999994"
       ry="0.99999994"
       y="14"
       x="19.000002"
       height="6"
       width="1"
       id="rect4517"
       style="fill:#6f6f6f;fill-opacity:0.75845409" />
    <rect
       y="19"
       x="18"
       height="1"
       width="3"
       id="rect4519"
       style="fill:#3c3c3c;fill-opacity:1"
       ry="0.99999994"
       rx="0.99999994" />
    <rect
       style="fill:#6f6f6f;fill-opacity:0.75845409"
       id="rect4521"
       width="1"
       height="6"
       x="22.000002"
       y="14"
       ry="0.99999994"
       rx="0.99999994" />
    <rect
       rx="0.99999994"
       ry="0.99999994"
       style="fill:#3c3c3c;fill-opacity:1"
       id="rect4523"
       width="3"
       height="1"
       x="21"
       y="16" />
    <path
       sodipodi:nodetypes="csssscccsssscc"
       id="path4355"
       d="m 11,21 0,11.593751 C 11,33.375396 11.648566,34 12.46875,34 l 23.062502,0 c 0.820183,0 1.46875,-0.624604 1.46875,-1.406249 l 0,-11.593751 z m 24.999999,1.000124 5e-4,10.499876 c 1.3e-5,0.263605 -0.130323,0.5 -0.406247,0.5 L 12.46875,33 C 12.248083,33 12,32.763608 12,32.5 l 0,-10.500124 z"
       style="fill:#64767a;fill-opacity:1"
       inkscape:connector-curvature="0" />
    <path
       sodipodi:nodetypes="ccccccccc"
       inkscape:connector-curvature="0"
       id="rect4553"
       d="m 11,21 c 0,0.666667 0,1.333333 0,2 l 1,0 0,-1 24,0 0,1 1,0 c 0,-0.666667 0,-1.333333 0,-2 z"
       style="fill:#000000;fill-opacity:0.15686275" />
  </g>
</svg>
