<?xml version="1.0" encoding="UTF-8" standalone="no"?>
<svg
   xmlns:dc="http://purl.org/dc/elements/1.1/"
   xmlns:cc="http://creativecommons.org/ns#"
   xmlns:rdf="http://www.w3.org/1999/02/22-rdf-syntax-ns#"
   xmlns:svg="http://www.w3.org/2000/svg"
   xmlns="http://www.w3.org/2000/svg"
   xmlns:xlink="http://www.w3.org/1999/xlink"
   xmlns:sodipodi="http://sodipodi.sourceforge.net/DTD/sodipodi-0.dtd"
   xmlns:inkscape="http://www.inkscape.org/namespaces/inkscape"
   width="48"
   viewBox="0 0 13.546667 13.546667"
   height="48"
   id="svg2"
   version="1.1"
   inkscape:version="0.48.4 r9939"
   sodipodi:docname="Sci48M.svg">
  <metadata
     id="metadata62">
    <rdf:RDF>
      <cc:Work
         rdf:about="">
        <dc:format>image/svg+xml</dc:format>
        <dc:type
           rdf:resource="http://purl.org/dc/dcmitype/StillImage" />
      </cc:Work>
    </rdf:RDF>
  </metadata>
  <sodipodi:namedview
     pagecolor="#ffffff"
     bordercolor="#666666"
     borderopacity="1"
     objecttolerance="10"
     gridtolerance="10"
     guidetolerance="10"
     inkscape:pageopacity="0"
     inkscape:pageshadow="2"
     inkscape:window-width="1280"
     inkscape:window-height="998"
     id="namedview60"
     showgrid="false"
     inkscape:zoom="2.4583333"
     inkscape:cx="25.39093"
     inkscape:cy="7.6885746"
     inkscape:window-x="0"
     inkscape:window-y="0"
     inkscape:window-maximized="1"
     inkscape:current-layer="svg2" />
  <defs
     id="defs4">
    <linearGradient
       id="0">
      <stop
         stop-color="#46a1d2"
         id="stop7" />
      <stop
         offset="1"
         stop-color="#2b82b1"
         id="stop9" />
    </linearGradient>
    <linearGradient
       xlink:href="#0"
       id="1"
       gradientUnits="userSpaceOnUse"
       gradientTransform="matrix(0,1,-1,0,12.2572,-1.29004)"
       x1="2.137"
       x2="13.99" />
  </defs>
  <rect
     width="12.982"
     x="0.282"
     y="0.282"
     rx="6.491"
     height="12.982"
     opacity="0.5"
     fill="#ffffff"
     fill-rule="evenodd"
     id="rect12" />
  <path
     d="m 6.773337,12.699998 a 5.9257969,5.9266671 0 1 1 0,-11.85333425 5.9257969,5.9266671 0 0 1 0,11.85333425 z"
     fill="url(#1)"
     fill-rule="evenodd"
     color="#000000"
     id="path14" />
  <g
     transform="matrix(0,0.71475585,-0.71475585,0,11.591693,1.897203)"
     id="g16"
     style="opacity:0.46200005;fill:#c8c8c8">
    <path
       d="M 4.0791673,1.6135806 C 2.5345657,6.1589007 6.8810956,9.3673007 11.689554,9.9748588 8.172523,8.5490216 3.5695792,5.78842 4.0791673,1.6135806 z"
       id="path18"
       inkscape:connector-curvature="0" />
    <path
       d="M 5.0735912,1.187399 C 3.3038249,5.0201645 8.0562878,8.2014762 12.237502,8.7166083 9.1548463,6.8226694 5.1155384,6.0713675 5.0735912,1.187399 z"
       id="path20"
       inkscape:connector-curvature="0" />
    <path
       d="M 5.7310166,1.0148969 C 4.6224151,4.4554554 8.7274278,6.7598263 12.681275,7.529388 9.7284361,5.453929 5.8417459,4.8364128 5.7310166,1.0148969 z"
       id="path22"
       inkscape:connector-curvature="0" />
    <path
       d="M 6.1288982,0.96416094 C 7.3843308,3.6572324 10.352643,4.8608433 12.744861,6.5654054 9.1807608,5.4779513 6.4125031,3.9338666 6.1288982,0.96416094 z"
       id="path24"
       inkscape:connector-curvature="0" />
    <path
       d="M 6.4130193,0.88298347 C 7.4390069,3.2486347 9.8303035,4.3855077 12.46074,5.3071549 10.497416,4.1479316 8.5819516,3.2758598 6.4130193,0.88298347 z"
       id="path26"
       inkscape:connector-curvature="0" />
    <path
       d="M 7.2044997,0.90327784 C 8.6031699,2.0949744 10.150169,3.011901 11.872203,3.9880214 10.06986,3.1873199 8.5207477,2.298096 7.2044997,0.90327784 z"
       id="path28"
       inkscape:connector-curvature="0" />
    <path
       d="M 3.0853107,2.3534464 C 1.530006,6.788238 5.4432611,9.51904 10.590509,11.078418 7.5867973,9.2730797 3.1808009,8.2808529 3.0853107,2.3534464 z"
       id="path30"
       inkscape:connector-curvature="0" />
    <path
       d="M 9.2272318,12.011187 C 5.1420608,10.492222 1.5971889,8.6038182 2.0233899,3.601921 c 0.9571407,6.0999905 4.4655463,6.431141 7.2038419,8.409266 z"
       id="path32"
       inkscape:connector-curvature="0" />
    <path
       d="M 1.3058757,4.8790963 C 2.817305,10.180499 5.5474313,10.998773 7.2612433,12.599548 5.5444104,11.014203 1.6735817,10.677582 1.3058757,4.8790963 z"
       id="path34"
       inkscape:connector-curvature="0" />
    <path
       d="M 0.89932406,7.4132452 C 1.8277759,9.3380779 3.3025137,11.354652 5.0709483,12.407743 3.2331575,11.325512 1.6061106,9.5144665 0.89932406,7.4132452 z"
       id="path36"
       inkscape:connector-curvature="0" />
  </g>
  <g
     id="g38"
     transform="matrix(0.71475585,0,0,0.71475585,1.8972029,1.9549744)">
    <path
       d="M 4.0791673,1.6135806 C 2.5345657,6.1589007 6.8810956,9.3673007 11.689554,9.9748588 8.172523,8.5490216 3.5695792,5.78842 4.0791673,1.6135806 z"
       id="path40"
       inkscape:connector-curvature="0"
       style="opacity:0.88700005;fill:#f9f9f9" />
    <path
       d="M 5.0735912,1.187399 C 3.3038249,5.0201645 8.0562878,8.2014762 12.237502,8.7166083 9.1548463,6.8226694 5.1155384,6.0713675 5.0735912,1.187399 z"
       id="path42"
       inkscape:connector-curvature="0"
       style="opacity:0.88700005;fill:#f9f9f9" />
    <path
       d="M 5.7310166,1.0148969 C 4.6224151,4.4554554 8.7274278,6.7598263 12.681275,7.529388 9.7284361,5.453929 5.8417459,4.8364128 5.7310166,1.0148969 z"
       id="path44"
       inkscape:connector-curvature="0"
       style="opacity:0.88700005;fill:#f9f9f9" />
    <path
       d="M 6.1288982,0.96416094 C 7.3843308,3.6572324 10.352643,4.8608433 12.744861,6.5654054 9.1807608,5.4779513 6.4125031,3.9338666 6.1288982,0.96416094 z"
       id="path46"
       inkscape:connector-curvature="0"
       style="opacity:0.88700005;fill:#f9f9f9" />
    <path
       d="M 6.4130193,0.88298347 C 7.4390069,3.2486347 9.8303035,4.3855077 12.46074,5.3071549 10.497416,4.1479316 8.5819516,3.2758598 6.4130193,0.88298347 z"
       id="path48"
       inkscape:connector-curvature="0"
       style="opacity:0.88700005;fill:#f9f9f9" />
    <path
       d="M 7.2044997,0.90327784 C 8.105958,1.7601174 10.231346,3.1438144 11.872203,3.9880214 10.130743,3.4105579 8.0539773,2.1052995 7.2044997,0.90327784 z"
       id="path50"
       inkscape:connector-curvature="0"
       style="opacity:0.88700005;fill:#f9f9f9" />
    <path
       d="M 3.0853107,2.3534464 C 1.530006,6.788238 5.4432611,9.51904 10.590509,11.078418 7.5867973,9.2730797 3.1808009,8.2808529 3.0853107,2.3534464 z"
       id="path52"
       inkscape:connector-curvature="0"
       style="opacity:0.88700005;fill:#f9f9f9" />
    <path
       d="M 9.2272318,12.011187 C 5.1420608,10.492222 1.5971889,8.6038182 2.0233899,3.601921 c 0.9571407,6.0999905 4.4655463,6.431141 7.2038419,8.409266 z"
       id="path54"
       inkscape:connector-curvature="0"
       style="opacity:0.88700005;fill:#f9f9f9" />
    <path
       d="M 1.3058757,4.8790963 C 2.817305,10.180499 5.7411601,11.063349 7.2612433,12.599548 6.2045234,11.903921 1.6735817,10.677582 1.3058757,4.8790963 z"
       id="path56"
       inkscape:connector-curvature="0"
       style="opacity:0.88700005;fill:#f9f9f9" />
    <path
       d="M 0.89932406,7.4132452 C 1.8277759,9.3380779 3.417316,11.325951 5.0709483,12.407743 3.5488637,11.784721 1.6061106,9.5144665 0.89932406,7.4132452 z"
       id="path58"
       inkscape:connector-curvature="0"
       style="opacity:0.88700005;fill:#f9f9f9" />
  </g>
</svg>
