<?xml version="1.0" encoding="UTF-8" standalone="no"?>
<svg
   xmlns:dc="http://purl.org/dc/elements/1.1/"
   xmlns:cc="http://creativecommons.org/ns#"
   xmlns:rdf="http://www.w3.org/1999/02/22-rdf-syntax-ns#"
   xmlns:svg="http://www.w3.org/2000/svg"
   xmlns="http://www.w3.org/2000/svg"
   xmlns:xlink="http://www.w3.org/1999/xlink"
   xmlns:sodipodi="http://sodipodi.sourceforge.net/DTD/sodipodi-0.dtd"
   xmlns:inkscape="http://www.inkscape.org/namespaces/inkscape"
   width="48"
   viewBox="0 0 13.546667 13.546667"
   height="48"
   id="svg2"
   version="1.1"
   inkscape:version="0.48.4 r9939"
   sodipodi:docname="screenruler.svg">
  <metadata
     id="metadata22">
    <rdf:RDF>
      <cc:Work
         rdf:about="">
        <dc:format>image/svg+xml</dc:format>
        <dc:type
           rdf:resource="http://purl.org/dc/dcmitype/StillImage" />
        <dc:title />
      </cc:Work>
    </rdf:RDF>
  </metadata>
  <sodipodi:namedview
     pagecolor="#ffffff"
     bordercolor="#666666"
     borderopacity="1"
     objecttolerance="10"
     gridtolerance="10"
     guidetolerance="10"
     inkscape:pageopacity="0"
     inkscape:pageshadow="2"
     inkscape:window-width="1280"
     inkscape:window-height="998"
     id="namedview20"
     showgrid="true"
     inkscape:zoom="2.6358182"
     inkscape:cx="-78.062441"
     inkscape:cy="37.565699"
     inkscape:window-x="0"
     inkscape:window-y="0"
     inkscape:window-maximized="1"
     inkscape:current-layer="svg2">
    <inkscape:grid
       type="xygrid"
       id="grid3014" />
  </sodipodi:namedview>
  <defs
     id="defs4">
    <linearGradient
       id="linearGradient4460">
      <stop
         offset="0"
         style="stop-color:#ffc200"
         id="stop7" />
      <stop
         offset="1"
         style="stop-color:#f8dc62"
         id="stop9" />
    </linearGradient>
    <linearGradient
       gradientTransform="matrix(1.10526,0,0,1.10526,-134.28026,-295.76492)"
       xlink:href="#linearGradient4460"
       id="linearGradient3001"
       y1="279.096"
       y2="268.33"
       gradientUnits="userSpaceOnUse"
       x2="0" />
  </defs>
  <rect
     id="rect14"
     style="opacity:0.5;fill:#ffffff;fill-rule:evenodd"
     height="12.982"
     rx="6.4910002"
     y="0.28200001"
     x="0.28200001"
     width="12.982" />
  <rect
     id="rect16"
     style="fill:#ecc400;fill-rule:evenodd;fill-opacity:1"
     height="11.853"
     rx="5.9260001"
     y="0.847"
     x="0.847"
     width="11.853" />
  <path
     style="opacity:1;fill:#a08502;fill-opacity:1;stroke:none"
     d="M 37 28 L 37 29 L 38 29 L 38 35 L 36 35 L 36 36 L 41 36 L 41 35 L 39 35 L 39 28 L 38 28 L 37 28 z M 37 29 L 36 29 L 36 30 L 37 30 L 37 29 z "
     transform="scale(0.28222223,0.28222223)"
     id="rect3841" />
  <rect
     style="fill:#a08502;fill-opacity:1;stroke:none"
     id="rect3850"
     width="1"
     height="12"
     x="8"
     y="14"
     transform="scale(0.28222223,0.28222223)" />
  <rect
     style="fill:#a08502;fill-opacity:1;stroke:none"
     id="rect3852"
     width="1"
     height="6"
     x="11"
     y="14"
     transform="scale(0.28222223,0.28222223)" />
  <rect
     style="fill:#a08502;fill-opacity:1;stroke:none"
     id="rect3854"
     width="1"
     height="6"
     x="14"
     y="14"
     transform="scale(0.28222223,0.28222223)" />
  <rect
     style="fill:#a08502;fill-opacity:1;stroke:none"
     id="rect3856"
     width="1"
     height="6"
     x="17"
     y="14"
     transform="scale(0.28222223,0.28222223)" />
  <rect
     style="fill:#a08502;fill-opacity:1;stroke:none"
     id="rect3858"
     width="1"
     height="6"
     x="20"
     y="14"
     transform="scale(0.28222223,0.28222223)" />
  <rect
     style="fill:#a08502;fill-opacity:1;stroke:none"
     id="rect3860"
     width="1"
     height="9"
     x="23"
     y="14"
     transform="scale(0.28222223,0.28222223)" />
  <rect
     style="fill:#a08502;fill-opacity:1;stroke:none"
     id="rect3862"
     width="1"
     height="6"
     x="26"
     y="14"
     transform="scale(0.28222223,0.28222223)" />
  <rect
     style="fill:#a08502;fill-opacity:1;stroke:none"
     id="rect3864"
     width="1"
     height="6"
     x="29"
     y="14"
     transform="scale(0.28222223,0.28222223)" />
  <rect
     style="fill:#a08502;fill-opacity:1;stroke:none"
     id="rect3866"
     width="1"
     height="6"
     x="32"
     y="14"
     transform="scale(0.28222223,0.28222223)" />
  <rect
     style="fill:#a08502;fill-opacity:1;stroke:none"
     id="rect3868"
     width="1"
     height="6"
     x="35"
     y="14"
     transform="scale(0.28222223,0.28222223)" />
  <rect
     style="fill:#a08502;fill-opacity:1;stroke:none"
     id="rect3870"
     width="1"
     height="12"
     x="38"
     y="14"
     transform="scale(0.28222223,0.28222223)" />
  <rect
     style="fill:#a08502;fill-opacity:1;stroke:none"
     id="rect3872"
     width="1"
     height="6"
     x="41"
     y="14"
     transform="scale(0.28222223,0.28222223)" />
  <path
     style="fill:#a08502;fill-opacity:1;stroke:none"
     d="M 44 17.5625 L 44 20 L 44.59375 20 C 44.434274 19.165618 44.254517 18.358106 44 17.5625 z "
     transform="scale(0.28222223,0.28222223)"
     id="rect3874" />
  <rect
     style="fill:#a08502;fill-opacity:1;stroke:none"
     id="rect3892"
     width="3"
     height="1"
     x="7"
     y="28"
     transform="scale(0.28222223,0.28222223)" />
  <rect
     style="fill:#a08502;fill-opacity:1;stroke:none"
     id="rect3894"
     width="1"
     height="6"
     x="6"
     y="29"
     transform="scale(0.28222223,0.28222223)" />
  <rect
     style="fill:#a08502;fill-opacity:1;stroke:none"
     id="rect3896"
     width="3"
     height="1"
     x="7"
     y="35"
     transform="scale(0.28222223,0.28222223)" />
  <rect
     style="fill:#a08502;fill-opacity:1;stroke:none"
     id="rect3898"
     width="1"
     height="6"
     x="10"
     y="29"
     transform="scale(0.28222223,0.28222223)" />
  <path
     style="opacity:0.58119662000000005;fill:#f2e788;fill-opacity:0.79215688;stroke:none"
     d="M 7.5 11 C 7.2440835 11.324749 6.9866893 11.660062 6.75 12 L 41.25 12 C 41.013311 11.660062 40.755916 11.324749 40.5 11 L 7.5 11 z "
     transform="scale(0.28222223,0.28222223)"
     id="rect3839" />
</svg>
