<?xml version="1.0" encoding="UTF-8" standalone="no"?>
<svg
   xmlns:dc="http://purl.org/dc/elements/1.1/"
   xmlns:cc="http://creativecommons.org/ns#"
   xmlns:rdf="http://www.w3.org/1999/02/22-rdf-syntax-ns#"
   xmlns:svg="http://www.w3.org/2000/svg"
   xmlns="http://www.w3.org/2000/svg"
   xmlns:xlink="http://www.w3.org/1999/xlink"
   xmlns:sodipodi="http://sodipodi.sourceforge.net/DTD/sodipodi-0.dtd"
   xmlns:inkscape="http://www.inkscape.org/namespaces/inkscape"
   viewBox="0 0 48 48"
   id="svg2"
   version="1.1"
   inkscape:version="0.48.4 r9939"
   width="100%"
   height="100%"
   sodipodi:docname="scummvm.svg">
  <metadata
     id="metadata71">
    <rdf:RDF>
      <cc:Work
         rdf:about="">
        <dc:format>image/svg+xml</dc:format>
        <dc:type
           rdf:resource="http://purl.org/dc/dcmitype/StillImage" />
      </cc:Work>
    </rdf:RDF>
  </metadata>
  <sodipodi:namedview
     pagecolor="#ffffff"
     bordercolor="#666666"
     borderopacity="1"
     objecttolerance="10"
     gridtolerance="10"
     guidetolerance="10"
     inkscape:pageopacity="0"
     inkscape:pageshadow="2"
     inkscape:window-width="640"
     inkscape:window-height="480"
     id="namedview69"
     showgrid="false"
     inkscape:zoom="1.2291667"
     inkscape:cx="-35.772163"
     inkscape:cy="10.618857"
     inkscape:window-x="0"
     inkscape:window-y="0"
     inkscape:window-maximized="0"
     inkscape:current-layer="svg2" />
  <defs
     id="defs4">
    <linearGradient
       id="1"
       gradientUnits="userSpaceOnUse"
       y1="15"
       x2="0"
       y2="11"
       gradientTransform="matrix(15.333333,0,0,11.5,414.99999,-125.5)">
      <stop
         id="stop7" />
      <stop
         offset="1"
         stop-opacity="0"
         id="stop9" />
    </linearGradient>
    <clipPath
       id="clipPath-467915100">
      <g
         transform="translate(0,-1004.3622)"
         id="g12">
        <path
           d="m -24 13 c 0 1.105 -0.672 2 -1.5 2 -0.828 0 -1.5 -0.895 -1.5 -2 0 -1.105 0.672 -2 1.5 -2 0.828 0 1.5 0.895 1.5 2 z"
           transform="matrix(15.333333,0,0,11.5,414.99999,878.8622)"
           fill="#1890d0"
           id="path14" />
      </g>
    </clipPath>
    <clipPath
       id="clipPath-477872043">
      <g
         transform="translate(0,-1004.3622)"
         id="g17">
        <path
           d="m -24 13 c 0 1.105 -0.672 2 -1.5 2 -0.828 0 -1.5 -0.895 -1.5 -2 0 -1.105 0.672 -2 1.5 -2 0.828 0 1.5 0.895 1.5 2 z"
           transform="matrix(15.333333,0,0,11.5,414.99999,878.8622)"
           fill="#1890d0"
           id="path19" />
      </g>
    </clipPath>
    <linearGradient
       gradientTransform="matrix(1.10525,0,0,1.10525,-134.27874,-295.76183)"
       xlink:href="#linearGradient4460"
       id="linearGradient3007"
       y1="279.09601"
       y2="268.32999"
       gradientUnits="userSpaceOnUse"
       x2="0" />
    <linearGradient
       id="linearGradient4460">
      <stop
         offset="0"
         style="stop-color:#f6444c"
         id="stop11" />
      <stop
         offset="1"
         style="stop-color:#e18b87"
         id="stop13" />
    </linearGradient>
    <linearGradient
       y2="268.32999"
       x2="0"
       y1="279.09601"
       gradientTransform="matrix(3.9162401,0,0,3.9162401,-525.6219,-1058.9586)"
       gradientUnits="userSpaceOnUse"
       id="linearGradient3042"
       xlink:href="#linearGradient4460"
       inkscape:collect="always" />
  </defs>
  <g
     id="g21">
    <g
       transform="translate(0,-1004.3622)"
       id="g23">
      <path
         d="m 25 1006.36 c -12.703 0 -23 10.298 -23 23 0 6.367 2.601 12.12 6.781 16.281 4.085 3.712 9.514 5.969 15.469 5.969 12.703 0 23 -10.297 23 -23 0 -5.954 -2.256 -11.384 -5.969 -15.469 -4.165 -4.181 -9.914 -6.781 -16.281 -6.781 z m 16.281 6.781 c 3.854 4.113 6.219 9.637 6.219 15.719 0 12.703 -10.297 23 -23 23 -6.081 0 -11.606 -2.364 -15.719 -6.219 4.16 4.144 9.883 6.719 16.219 6.719 12.703 0 23 -10.297 23 -23 0 -6.335 -2.575 -12.06 -6.719 -16.219 z"
         opacity="0.05"
         id="path25" />
      <path
         d="m 41.28 1013.14 c 3.712 4.085 5.969 9.514 5.969 15.469 0 12.703 -10.297 23 -23 23 -5.954 0 -11.384 -2.256 -15.469 -5.969 4.113 3.854 9.637 6.219 15.719 6.219 12.703 0 23 -10.297 23 -23 0 -6.081 -2.364 -11.606 -6.219 -15.719 z"
         opacity="0.1"
         id="path27" />
      <path
         transform="matrix(15.333333,0,0,11.5,415.24999,879.11222)"
         d="m -24 13 a 1.5 2 0 1 1 -3 0 1.5 2 0 1 1 3 0 z"
         opacity="0.2"
         id="path29" />
    </g>
  </g>
  <g
     id="g37">
    <path
       d="M 47,24 C 47,36.703 36.703,47 24,47 11.297,47 1,36.703 1,24 1,11.297 11.297,1 24,1 36.703,1 47,11.297 47,24 z"
       id="path39"
       style="opacity:0.15;fill:url(#1)"
       inkscape:connector-curvature="0" />
  </g>
  <g
     id="g31"
     style="fill:#ea6d6e;fill-opacity:1">
    <g
       transform="translate(0,-1004.3622)"
       id="g33"
       style="fill:#ea6d6e;fill-opacity:1">
      <path
         d="m -24 13 c 0 1.105 -0.672 2 -1.5 2 -0.828 0 -1.5 -0.895 -1.5 -2 0 -1.105 0.672 -2 1.5 -2 0.828 0 1.5 0.895 1.5 2 z"
         transform="matrix(15.333333,0,0,11.5,414.99999,878.8622)"
         fill="#1890d0"
         id="path35"
         style="fill:#ea6d6e;fill-opacity:1" />
    </g>
  </g>
  <g
     id="g41">
    <g
       clip-path="url(#clipPath-467915100)"
       id="g43">
      <g
         transform="translate(0,1)"
         id="g45">
        <g
           opacity="0.1"
           id="g47">
          <g
             id="g49">
            <path
               d="m 22.645 36.938 c -1.641 -0.195 -3.262 -0.668 -4.371 -1.277 c -1.789 -0.984 -3.578 -2.719 -4.066 -3.969 c -0.305 -0.762 -0.273 -1.465 0.082 -2.215 c 0.293 -0.609 0.832 -1.27 2.195 -2.691 c 0.781 -0.816 0.926 -1.031 0.926 -1.383 c 0 -0.301 -0.152 -0.574 -0.621 -1.148 c -0.422 -0.512 -0.906 -1.238 -1.145 -1.723 c -0.391 -0.789 -0.738 -2.137 -0.816 -3.145 c -0.066 -0.879 0.211 -2.488 0.598 -3.477 c 0.613 -1.57 1.906 -2.961 3.582 -3.832 c 0.754 -0.395 2.102 -0.801 3.266 -0.977 c 2.109 -0.32 5.01 0.168 7.121 1.207 c 1.539 0.754 3.359 2.156 3.918 3.02 c 0.348 0.547 0.422 0.793 0.418 1.445 c 0 0.629 -0.098 0.984 -0.418 1.547 c -0.121 0.219 -0.879 1.266 -1.566 2.176 c -0.27 0.359 -0.465 0.766 -0.465 0.984 c 0 0.32 0.16 0.641 0.645 1.266 c 0.934 1.211 1.293 1.832 1.613 2.805 c 0.547 1.68 0.621 3.262 0.227 4.918 c -0.363 1.508 -0.879 2.477 -1.891 3.543 c -1.445 1.527 -3.18 2.375 -5.801 2.836 c -0.969 0.168 -2.465 0.215 -3.41 0.102 m -0.02 -0.012"
               fill="#000"
               stroke="none"
               fill-rule="nonzero"
               fill-opacity="1"
               id="path51" />
            <path
               d="m 22.676 36.984 c -1.988 -0.293 -3.469 -0.738 -4.574 -1.375 c -1.766 -1.016 -3.504 -2.738 -3.98 -3.949 c -0.102 -0.254 -0.121 -0.406 -0.121 -0.941 c 0 -0.602 0.012 -0.664 0.16 -1.02 c 0.262 -0.609 1.059 -1.602 2.449 -3.035 c 0.652 -0.68 0.789 -0.891 0.781 -1.238 c -0.008 -0.324 -0.191 -0.668 -0.668 -1.242 c -0.93 -1.117 -1.449 -2.188 -1.773 -3.633 c -0.168 -0.758 -0.164 -2.344 0.004 -3.141 c 0.379 -1.781 1 -2.918 2.191 -4.03 c 1.395 -1.293 2.629 -1.863 4.902 -2.262 c 0.867 -0.152 2.406 -0.16 3.293 -0.023 c 1.973 0.309 3.586 0.859 4.938 1.68 c 1.313 0.797 2.625 1.887 3.02 2.508 c 0.469 0.73 0.57 1.484 0.305 2.281 c -0.184 0.559 -0.34 0.809 -1.285 2.094 c -0.957 1.297 -1.051 1.457 -1.047 1.848 c 0 0.387 0.113 0.602 0.703 1.344 c 1.105 1.398 1.469 2.145 1.832 3.777 c 0.461 2.105 0.043 4.68 -1.016 6.227 c -1.07 1.559 -2.5 2.707 -4.18 3.352 c -0.5 0.191 -1.555 0.469 -2.391 0.633 c -0.656 0.133 -0.859 0.145 -2.063 0.156 c -0.734 0.008 -1.406 0.004 -1.488 -0.012 m 2.48 -2.254 c 2.547 -0.281 4.641 -1.402 5.734 -3.074 c 0.391 -0.594 0.613 -1.102 0.797 -1.813 c 0.18 -0.691 0.227 -2.07 0.094 -2.887 c -0.219 -1.336 -0.805 -2.531 -1.75 -3.543 c -0.949 -1.027 -1.906 -1.703 -4.215 -2.965 c -1.613 -0.883 -2.223 -1.355 -2.379 -1.844 c -0.086 -0.262 -0.039 -0.734 0.09 -0.91 c 0.254 -0.352 0.758 -0.488 1.391 -0.383 c 1.18 0.199 2.703 0.938 4.04 1.965 c 0.258 0.195 0.508 0.375 0.563 0.391 c 0.215 0.078 0.336 -0.063 1.207 -1.43 c 1.07 -1.684 1.055 -1.594 0.465 -2.168 c -1.754 -1.73 -3.789 -2.742 -6.125 -3.043 c -0.93 -0.117 -2.445 -0.082 -3.215 0.078 c -1.727 0.363 -3.098 1.184 -3.988 2.395 c -0.488 0.656 -0.793 1.371 -0.984 2.289 c -0.113 0.547 -0.129 1.832 -0.027 2.316 c 0.363 1.711 1.227 3.03 2.848 4.348 c 0.688 0.551 1.219 0.914 2.75 1.863 c 1.836 1.133 2.395 1.586 2.656 2.152 c 0.105 0.23 0.125 0.344 0.109 0.621 c -0.027 0.438 -0.18 0.676 -0.555 0.863 c -0.25 0.121 -0.34 0.137 -0.813 0.133 c -0.867 -0.008 -1.641 -0.219 -2.699 -0.738 c -0.746 -0.359 -1.469 -0.844 -2.078 -1.395 c -0.613 -0.551 -0.668 -0.582 -0.848 -0.449 c -0.137 0.102 -1.125 1.328 -1.863 2.316 c -0.48 0.645 -0.5 0.758 -0.168 1.203 c 0.328 0.445 1.262 1.406 1.766 1.809 c 0.547 0.441 0.906 0.676 1.516 0.988 c 1.035 0.527 1.895 0.758 3.531 0.949 c 0.371 0.043 1.691 0.027 2.156 -0.02 m -0.004 -0.02"
               fill="#000"
               stroke="none"
               fill-rule="nonzero"
               fill-opacity="1"
               id="path53" />
          </g>
        </g>
      </g>
    </g>
  </g>
  <g
     id="g55">
    <g
       clip-path="url(#clipPath-477872043)"
       id="g57">
      <g
         id="g59">
        <path
           d="m 22.645 36.938 c -1.641 -0.195 -3.262 -0.668 -4.371 -1.277 c -1.789 -0.984 -3.578 -2.719 -4.066 -3.969 c -0.305 -0.762 -0.273 -1.465 0.082 -2.215 c 0.293 -0.609 0.832 -1.27 2.195 -2.691 c 0.781 -0.816 0.926 -1.031 0.926 -1.383 c 0 -0.301 -0.152 -0.574 -0.621 -1.148 c -0.422 -0.512 -0.906 -1.238 -1.145 -1.723 c -0.391 -0.789 -0.738 -2.137 -0.816 -3.145 c -0.066 -0.879 0.211 -2.488 0.598 -3.477 c 0.613 -1.57 1.906 -2.961 3.582 -3.832 c 0.754 -0.395 2.102 -0.801 3.266 -0.977 c 2.109 -0.32 5.01 0.168 7.121 1.207 c 1.539 0.754 3.359 2.156 3.918 3.02 c 0.348 0.547 0.422 0.793 0.418 1.445 c 0 0.629 -0.098 0.984 -0.418 1.547 c -0.121 0.219 -0.879 1.266 -1.566 2.176 c -0.27 0.359 -0.465 0.766 -0.465 0.984 c 0 0.32 0.16 0.641 0.645 1.266 c 0.934 1.211 1.293 1.832 1.613 2.805 c 0.547 1.68 0.621 3.262 0.227 4.918 c -0.363 1.508 -0.879 2.477 -1.891 3.543 c -1.445 1.527 -3.18 2.375 -5.801 2.836 c -0.969 0.168 -2.465 0.215 -3.41 0.102 m -0.02 -0.012"
           fill="#abde59"
           stroke="none"
           fill-rule="nonzero"
           fill-opacity="1"
           id="path61" />
        <path
           d="m 22.676 36.984 c -1.988 -0.293 -3.469 -0.738 -4.574 -1.375 c -1.766 -1.016 -3.504 -2.738 -3.98 -3.949 c -0.102 -0.254 -0.121 -0.406 -0.121 -0.941 c 0 -0.602 0.012 -0.664 0.16 -1.02 c 0.262 -0.609 1.059 -1.602 2.449 -3.035 c 0.652 -0.68 0.789 -0.891 0.781 -1.238 c -0.008 -0.324 -0.191 -0.668 -0.668 -1.242 c -0.93 -1.117 -1.449 -2.188 -1.773 -3.633 c -0.168 -0.758 -0.164 -2.344 0.004 -3.141 c 0.379 -1.781 1 -2.918 2.191 -4.03 c 1.395 -1.293 2.629 -1.863 4.902 -2.262 c 0.867 -0.152 2.406 -0.16 3.293 -0.023 c 1.973 0.309 3.586 0.859 4.938 1.68 c 1.313 0.797 2.625 1.887 3.02 2.508 c 0.469 0.73 0.57 1.484 0.305 2.281 c -0.184 0.559 -0.34 0.809 -1.285 2.094 c -0.957 1.297 -1.051 1.457 -1.047 1.848 c 0 0.387 0.113 0.602 0.703 1.344 c 1.105 1.398 1.469 2.145 1.832 3.777 c 0.461 2.105 0.043 4.68 -1.016 6.227 c -1.07 1.559 -2.5 2.707 -4.18 3.352 c -0.5 0.191 -1.555 0.469 -2.391 0.633 c -0.656 0.133 -0.859 0.145 -2.063 0.156 c -0.734 0.008 -1.406 0.004 -1.488 -0.012 m 2.48 -2.254 c 2.547 -0.281 4.641 -1.402 5.734 -3.074 c 0.391 -0.594 0.613 -1.102 0.797 -1.813 c 0.18 -0.691 0.227 -2.07 0.094 -2.887 c -0.219 -1.336 -0.805 -2.531 -1.75 -3.543 c -0.949 -1.027 -1.906 -1.703 -4.215 -2.965 c -1.613 -0.883 -2.223 -1.355 -2.379 -1.844 c -0.086 -0.262 -0.039 -0.734 0.09 -0.91 c 0.254 -0.352 0.758 -0.488 1.391 -0.383 c 1.18 0.199 2.703 0.938 4.04 1.965 c 0.258 0.195 0.508 0.375 0.563 0.391 c 0.215 0.078 0.336 -0.063 1.207 -1.43 c 1.07 -1.684 1.055 -1.594 0.465 -2.168 c -1.754 -1.73 -3.789 -2.742 -6.125 -3.043 c -0.93 -0.117 -2.445 -0.082 -3.215 0.078 c -1.727 0.363 -3.098 1.184 -3.988 2.395 c -0.488 0.656 -0.793 1.371 -0.984 2.289 c -0.113 0.547 -0.129 1.832 -0.027 2.316 c 0.363 1.711 1.227 3.03 2.848 4.348 c 0.688 0.551 1.219 0.914 2.75 1.863 c 1.836 1.133 2.395 1.586 2.656 2.152 c 0.105 0.23 0.125 0.344 0.109 0.621 c -0.027 0.438 -0.18 0.676 -0.555 0.863 c -0.25 0.121 -0.34 0.137 -0.813 0.133 c -0.867 -0.008 -1.641 -0.219 -2.699 -0.738 c -0.746 -0.359 -1.469 -0.844 -2.078 -1.395 c -0.613 -0.551 -0.668 -0.582 -0.848 -0.449 c -0.137 0.102 -1.125 1.328 -1.863 2.316 c -0.48 0.645 -0.5 0.758 -0.168 1.203 c 0.328 0.445 1.262 1.406 1.766 1.809 c 0.547 0.441 0.906 0.676 1.516 0.988 c 1.035 0.527 1.895 0.758 3.531 0.949 c 0.371 0.043 1.691 0.027 2.156 -0.02 m -0.004 -0.02"
           fill="#040403"
           stroke="none"
           fill-rule="nonzero"
           fill-opacity="1"
           id="path63" />
      </g>
    </g>
  </g>
  <g
     id="g65">
    <path
       d="m 40.03 7.531 c 3.712 4.084 5.969 9.514 5.969 15.469 0 12.703 -10.297 23 -23 23 c -5.954 0 -11.384 -2.256 -15.469 -5.969 4.178 4.291 10.01 6.969 16.469 6.969 c 12.703 0 23 -10.298 23 -23 0 -6.462 -2.677 -12.291 -6.969 -16.469 z"
       opacity="0.1"
       id="path67" />
  </g>
</svg>
