<?xml version="1.0" encoding="UTF-8" standalone="no"?>
<svg
   xmlns:dc="http://purl.org/dc/elements/1.1/"
   xmlns:cc="http://creativecommons.org/ns#"
   xmlns:rdf="http://www.w3.org/1999/02/22-rdf-syntax-ns#"
   xmlns:svg="http://www.w3.org/2000/svg"
   xmlns="http://www.w3.org/2000/svg"
   xmlns:xlink="http://www.w3.org/1999/xlink"
   xmlns:sodipodi="http://sodipodi.sourceforge.net/DTD/sodipodi-0.dtd"
   xmlns:inkscape="http://www.inkscape.org/namespaces/inkscape"
   width="48"
   viewBox="0 0 13.546667 13.546667"
   height="48"
   id="svg2"
   version="1.1"
   inkscape:version="0.48.4 r9939"
   sodipodi:docname="shares.svg">
  <metadata
     id="metadata28">
    <rdf:RDF>
      <cc:Work
         rdf:about="">
        <dc:format>image/svg+xml</dc:format>
        <dc:type
           rdf:resource="http://purl.org/dc/dcmitype/StillImage" />
      </cc:Work>
    </rdf:RDF>
  </metadata>
  <sodipodi:namedview
     pagecolor="#ffffff"
     bordercolor="#666666"
     borderopacity="1"
     objecttolerance="10"
     gridtolerance="10"
     guidetolerance="10"
     inkscape:pageopacity="0"
     inkscape:pageshadow="2"
     inkscape:window-width="1280"
     inkscape:window-height="998"
     id="namedview26"
     showgrid="false"
     inkscape:zoom="6.9532167"
     inkscape:cx="23.841474"
     inkscape:cy="-1.1407337"
     inkscape:window-x="0"
     inkscape:window-y="0"
     inkscape:window-maximized="1"
     inkscape:current-layer="svg2">
    <inkscape:grid
       type="xygrid"
       id="grid3039" />
  </sodipodi:namedview>
  <defs
     id="defs4">
    <linearGradient
       id="linearGradient4460">
      <stop
         offset="0"
         style="stop-color:#ca4a01"
         id="stop7" />
      <stop
         offset="1"
         style="stop-color:#f79810"
         id="stop9" />
    </linearGradient>
    <linearGradient
       gradientTransform="matrix(1.10528 0 0 1.10528 -134.28288 -295.77052)"
       xlink:href="#linearGradient4460"
       id="linearGradient3069"
       y1="279.096"
       y2="268.33"
       gradientUnits="userSpaceOnUse"
       x2="0" />
  </defs>
  <g
     style="fill-rule:evenodd"
     id="g12">
    <rect
       width="12.982"
       x=".282"
       y=".282"
       rx="6.491"
       height="12.982"
       style="opacity:.5;fill:#fff"
       id="rect14" />
    <rect
       width="11.853"
       x=".847"
       y=".847"
       rx="5.926"
       height="11.853"
       style="fill:url(#linearGradient3069)"
       id="rect16" />
  </g>
  <path
     inkscape:connector-curvature="0"
     style="color:#000000;fill:#bca5a6"
     d="m 3.9510693,5.3622337 2e-6,-1.4229 c 1.03e-5,-0.1263 0.10084,-0.2413 0.21167,-0.24131 h 5.2211001 c 0.11082,1.5e-5 0.21166,0.11492 0.21167,0.24131 l -10e-7,1.4229 z"
     id="path19" />
  <path
     style="color:#000000;fill:#ecf0f1"
     d="M 12.8125 15 C 12.371004 15.043937 11.997874 15.45122 12 15.875 L 12 32.125 C 12.000048 32.575354 12.435026 32.999965 12.90625 33 L 35.09375 33 C 35.564973 32.999947 35.999965 32.575212 36 32.125 L 36 17.875 C 36 17.424646 35.565008 17.03125 35.09375 17.03125 L 25.96875 17.03125 L 25.96875 15.875 C 25.96875 15.424646 25.533406 15 25.0625 15 L 12.90625 15 C 12.877018 14.99867 12.841626 14.99867 12.8125 15 z M 23.59375 19.4375 C 26.78356 19.28898 30.118633 20.297185 32.6875 22.875 L 31.3125 24.375 C 27.408991 20.779594 21.096561 21.01749 17.0625 24.5625 L 15.3125 22.96875 C 17.363857 20.900103 20.40394 19.58602 23.59375 19.4375 z M 24.53125 23.5 C 26.317862 23.5472 28.186739 24.236218 30 25.8125 L 28.34375 27.625 C 25.66152 25.222239 22.674024 25.518328 20.40625 27.625 L 18.46875 25.875 C 20.084599 24.430817 22.234178 23.439315 24.53125 23.5 z M 24.53125 27.03125 C 25.014076 27.028836 25.496432 27.227825 25.875 27.59375 C 26.632136 28.3256 26.685149 29.510781 25.96875 30.25 C 25.252351 30.989219 24.038386 30.98185 23.28125 30.25 C 22.524114 29.51815 22.502351 28.332969 23.21875 27.59375 C 23.57695 27.224141 24.048424 27.033664 24.53125 27.03125 z "
     transform="scale(0.28222223,0.28222223)"
     id="path21" />
</svg>
