<svg xmlns="http://www.w3.org/2000/svg" xmlns:xlink="http://www.w3.org/1999/xlink" width="48" viewBox="0 0 13.546667 13.546667" height="48">
 <defs>
  <linearGradient id="0">
   <stop stop-color="#2d2d2d"/>
   <stop offset="1" stop-color="#515151"/>
  </linearGradient>
  <linearGradient xlink:href="#0" id="1" gradientUnits="userSpaceOnUse" gradientTransform="matrix(1.09524,0,0,1.09524,-133.00183,-293.02198)" y1="279.1" x2="0" y2="268.33"/>
 </defs>
 <rect height="12.982" rx="6.491" y="0.283" x="0.282" width="12.982" opacity="0.5" fill="#ffffff" fill-rule="evenodd"/>
 <rect height="11.746" rx="5.873" y="0.901" x="0.9" width="11.746" fill="url(#1)" fill-rule="evenodd"/>
 <path d="M 6.591428,3.416153 C 6.0504567,3.5980428 6.5249959,4.4396952 5.7499167,4.8514272 4.8656964,5.3226862 4.4259601,4.1337901 3.8944787,4.9820569 3.3629973,5.8319771 4.6268462,5.6996939 4.5920476,6.7000861 4.5556607,7.698825 3.304471,7.4871718 3.7742624,8.368509 4.2440538,9.2498464 4.7660438,8.092368 5.615464,8.6215012 6.4648856,9.1489805 5.651851,10.126223 6.653118,10.159294 7.6543894,10.190713 6.9109494,9.1655161 7.7967507,8.6942566 8.6809713,8.2229974 9.1207094,9.4118936 9.6521884,8.5636269 10.18367,7.7137065 8.9198216,7.8459898 8.9546214,6.847251 8.9909994,5.8468588 10.242196,6.0601653 9.7724054,5.1771746 9.3026134,4.2958373 8.780624,5.4533156 7.9312034,4.9258364 7.0817832,4.3967032 7.8948235,3.4194604 6.8935492,3.3880429 c -0.1249583,-0.00496 -0.2246137,0.0033 -0.3021212,0.02811 z m 0.00947,2.5447999 C 7.0485442,5.8650475 7.4867006,6.1511103 7.5816067,6.6008734 7.6765201,7.0489832 7.3917931,7.4904783 6.9457279,7.5847305 6.4981031,7.680636 6.059948,7.3945732 5.9650404,6.94481 5.8701329,6.4967002 6.1548555,6.0568585 6.6009193,5.9609529 z" fill="#3fd3ff"/>
</svg>
