<?xml version="1.0" encoding="UTF-8" standalone="no"?>
<svg
   xmlns:dc="http://purl.org/dc/elements/1.1/"
   xmlns:cc="http://creativecommons.org/ns#"
   xmlns:rdf="http://www.w3.org/1999/02/22-rdf-syntax-ns#"
   xmlns:svg="http://www.w3.org/2000/svg"
   xmlns="http://www.w3.org/2000/svg"
   xmlns:sodipodi="http://sodipodi.sourceforge.net/DTD/sodipodi-0.dtd"
   xmlns:inkscape="http://www.inkscape.org/namespaces/inkscape"
   viewBox="0 0 48 48"
   id="svg2"
   version="1.1"
   inkscape:version="0.48.4 r9939"
   width="100%"
   height="100%"
   sodipodi:docname="steam_icon_400.svg">
  <metadata
     id="metadata67">
    <rdf:RDF>
      <cc:Work
         rdf:about="">
        <dc:format>image/svg+xml</dc:format>
        <dc:type
           rdf:resource="http://purl.org/dc/dcmitype/StillImage" />
      </cc:Work>
    </rdf:RDF>
  </metadata>
  <sodipodi:namedview
     pagecolor="#ffffff"
     bordercolor="#666666"
     borderopacity="1"
     objecttolerance="10"
     gridtolerance="10"
     guidetolerance="10"
     inkscape:pageopacity="0"
     inkscape:pageshadow="2"
     inkscape:window-width="640"
     inkscape:window-height="480"
     id="namedview65"
     showgrid="false"
     inkscape:zoom="4.9166667"
     inkscape:cx="24"
     inkscape:cy="22.372881"
     inkscape:window-x="0"
     inkscape:window-y="0"
     inkscape:window-maximized="0"
     inkscape:current-layer="svg2" />
  <defs
     id="defs4">
    <linearGradient
       id="1"
       gradientUnits="userSpaceOnUse"
       y1="15"
       x2="0"
       y2="11"
       gradientTransform="matrix(15.333333,0,0,11.5,414.99999,-125.5)">
      <stop
         id="stop7" />
      <stop
         offset="1"
         stop-opacity="0"
         id="stop9" />
    </linearGradient>
    <clipPath
       id="clipPath-637383252">
      <g
         transform="translate(0,-1004.3622)"
         id="g12">
        <path
           d="m -24 13 c 0 1.105 -0.672 2 -1.5 2 -0.828 0 -1.5 -0.895 -1.5 -2 0 -1.105 0.672 -2 1.5 -2 0.828 0 1.5 0.895 1.5 2 z"
           transform="matrix(15.333333,0,0,11.5,414.99999,878.8622)"
           fill="#1890d0"
           id="path14" />
      </g>
    </clipPath>
    <clipPath
       id="clipPath-650174122">
      <g
         transform="translate(0,-1004.3622)"
         id="g17">
        <path
           d="m -24 13 c 0 1.105 -0.672 2 -1.5 2 -0.828 0 -1.5 -0.895 -1.5 -2 0 -1.105 0.672 -2 1.5 -2 0.828 0 1.5 0.895 1.5 2 z"
           transform="matrix(15.333333,0,0,11.5,414.99999,878.8622)"
           fill="#1890d0"
           id="path19" />
      </g>
    </clipPath>
    <linearGradient
       id="1-0"
       gradientUnits="userSpaceOnUse"
       y1="15"
       x2="0"
       y2="11"
       gradientTransform="matrix(15.333333,0,0,11.5,414.99999,-125.5)">
      <stop
         id="stop7-3" />
      <stop
         offset="1"
         stop-opacity="0"
         id="stop9-1" />
    </linearGradient>
  </defs>
  <g
     transform="translate(9.9999993e-7,0.0022)"
     id="g21">
    <g
       transform="translate(0,-1004.3622)"
       id="g23">
      <path
         style="opacity:0.05"
         inkscape:connector-curvature="0"
         d="m 25,1006.36 c -12.703,0 -23,10.298 -23,23 0,6.367 2.601,12.12 6.781,16.281 4.085,3.712 9.514,5.969 15.469,5.969 12.703,0 23,-10.297 23,-23 0,-5.954 -2.256,-11.384 -5.969,-15.469 -4.165,-4.181 -9.914,-6.781 -16.281,-6.781 z m 16.281,6.781 c 3.854,4.113 6.219,9.637 6.219,15.719 0,12.703 -10.297,23 -23,23 -6.081,0 -11.606,-2.364 -15.719,-6.219 4.16,4.144 9.883,6.719 16.219,6.719 12.703,0 23,-10.297 23,-23 0,-6.335 -2.575,-12.06 -6.719,-16.219 z"
         id="path25" />
      <path
         style="opacity:0.1"
         inkscape:connector-curvature="0"
         d="m 41.28,1013.14 c 3.712,4.085 5.969,9.514 5.969,15.469 0,12.703 -10.297,23 -23,23 -5.954,0 -11.384,-2.256 -15.469,-5.969 4.113,3.854 9.637,6.219 15.719,6.219 12.703,0 23,-10.297 23,-23 0,-6.081 -2.364,-11.606 -6.219,-15.719 z"
         id="path27" />
      <path
         style="opacity:0.2"
         inkscape:connector-curvature="0"
         transform="matrix(15.333333,0,0,11.5,415.24999,879.11222)"
         d="m -24,13 a 1.5,2 0 1 1 -3,0 1.5,2 0 1 1 3,0 z"
         id="path29" />
    </g>
  </g>
  <g
     transform="translate(9.9999993e-7,0.0022)"
     id="g31">
    <g
       transform="translate(0,-1004.3622)"
       id="g33">
      <path
         style="fill:#474747"
         inkscape:connector-curvature="0"
         d="m -24,13 c 0,1.105 -0.672,2 -1.5,2 -0.828,0 -1.5,-0.895 -1.5,-2 0,-1.105 0.672,-2 1.5,-2 0.828,0 1.5,0.895 1.5,2 z"
         transform="matrix(15.333333,0,0,11.5,414.99999,878.8622)"
         id="path35" />
    </g>
  </g>
  <g
     transform="translate(9.9999993e-7,0.0022)"
     id="g37">
    <path
       style="opacity:0.15;fill:url(#1-0)"
       inkscape:connector-curvature="0"
       d="M 47,24 C 47,36.703 36.703,47 24,47 11.297,47 1,36.703 1,24 1,11.297 11.297,1 24,1 36.703,1 47,11.297 47,24 z"
       id="path39" />
  </g>
  <g
     transform="translate(9.9999993e-7,0.0022)"
     id="g61">
    <path
       style="opacity:0.1"
       inkscape:connector-curvature="0"
       d="m 40.03,7.531 c 3.712,4.084 5.969,9.514 5.969,15.469 0,12.703 -10.297,23 -23,23 C 17.045,46 11.615,43.744 7.53,40.031 11.708,44.322 17.54,47 23.999,47 c 12.703,0 23,-10.298 23,-23 0,-6.462 -2.677,-12.291 -6.969,-16.469 z"
       id="path63" />
  </g>
  <g
     id="g41">
    <g
       clip-path="url(#clipPath-637383252)"
       id="g43">
      <g
         transform="translate(0,1)"
         id="g45">
        <g
           opacity="0.1"
           id="g47">
          <g
             id="g49">
            <path
               d="m 21.633 36.938 c -1.223 -0.234 -2.867 -1.539 -3.863 -3.059 c -0.543 -0.828 -1.191 -2.227 -1.398 -3.01 c -0.336 -1.277 -0.48 -4.68 -0.277 -6.793 c 0.289 -3.082 1.414 -6.461 2.93 -8.824 c 0.59 -0.918 1.273 -1.77 1.414 -1.77 c 0.215 0 0.164 0.324 -0.141 0.863 c -0.18 0.32 -0.332 0.605 -0.332 0.629 c 0 0.027 0.309 -0.332 0.688 -0.793 c 0.742 -0.918 1.355 -1.496 2.25 -2.129 c 1.762 -1.242 3.875 -1.391 5.402 -0.387 c 1.586 1.047 2.906 3.375 3.445 6.09 c 0.227 1.141 0.246 1.406 0.25 3.762 c 0.008 2.801 -0.094 3.609 -0.703 5.738 c -1.324 4.629 -4.438 8.746 -7.262 9.605 c -0.477 0.145 -1.84 0.188 -2.402 0.078 m 1.605 -1.734 c 0.027 -0.047 -0.191 -0.176 -0.488 -0.289 c -1.273 -0.48 -2.141 -1.316 -2.82 -2.707 c -0.391 -0.805 -0.844 -2.441 -0.773 -2.809 c 0.074 -0.395 0.27 -0.195 0.668 0.68 c 1.273 2.781 2.977 3.969 4.586 3.191 c 0.93 -0.453 2.227 -1.898 3.332 -3.703 c 1.133 -1.855 2.07 -5.086 2.25 -7.734 c 0.066 -1.027 -0.031 -2.875 -0.145 -2.742 c -0.039 0.047 -0.121 0.469 -0.18 0.945 c -0.23 1.797 -0.867 3.777 -1.215 3.777 c -0.215 0 -0.215 -0.02 0 -1.195 c 0.699 -3.805 0.375 -6.887 -0.863 -8.203 c -0.578 -0.613 -1.18 -0.871 -2.035 -0.879 c -0.688 -0.004 -0.785 0.023 -1.434 0.375 c -0.867 0.48 -1.977 1.602 -2.688 2.73 c -1.262 1.988 -2.508 5.172 -3.102 7.906 c -0.219 1.02 -0.242 1.32 -0.242 3.043 c 0 1.754 0.02 1.988 0.234 2.824 c 0.285 1.09 0.656 1.969 1.238 2.918 c 0.457 0.75 0.898 1.145 1.734 1.539 c 0.73 0.348 1.824 0.539 1.941 0.34 m 0 -0.008"
               fill="#000"
               stroke="none"
               fill-rule="nonzero"
               fill-opacity="1"
               id="path51" />
          </g>
        </g>
      </g>
    </g>
  </g>
  <g
     id="g53">
    <g
       clip-path="url(#clipPath-650174122)"
       id="g55">
      <g
         id="g57">
        <path
           d="m 21.633 36.938 c -1.223 -0.234 -2.867 -1.539 -3.863 -3.059 c -0.543 -0.828 -1.191 -2.227 -1.398 -3.01 c -0.336 -1.277 -0.48 -4.68 -0.277 -6.793 c 0.289 -3.082 1.414 -6.461 2.93 -8.824 c 0.59 -0.918 1.273 -1.77 1.414 -1.77 c 0.215 0 0.164 0.324 -0.141 0.863 c -0.18 0.32 -0.332 0.605 -0.332 0.629 c 0 0.027 0.309 -0.332 0.688 -0.793 c 0.742 -0.918 1.355 -1.496 2.25 -2.129 c 1.762 -1.242 3.875 -1.391 5.402 -0.387 c 1.586 1.047 2.906 3.375 3.445 6.09 c 0.227 1.141 0.246 1.406 0.25 3.762 c 0.008 2.801 -0.094 3.609 -0.703 5.738 c -1.324 4.629 -4.438 8.746 -7.262 9.605 c -0.477 0.145 -1.84 0.188 -2.402 0.078 m 1.605 -1.734 c 0.027 -0.047 -0.191 -0.176 -0.488 -0.289 c -1.273 -0.48 -2.141 -1.316 -2.82 -2.707 c -0.391 -0.805 -0.844 -2.441 -0.773 -2.809 c 0.074 -0.395 0.27 -0.195 0.668 0.68 c 1.273 2.781 2.977 3.969 4.586 3.191 c 0.93 -0.453 2.227 -1.898 3.332 -3.703 c 1.133 -1.855 2.07 -5.086 2.25 -7.734 c 0.066 -1.027 -0.031 -2.875 -0.145 -2.742 c -0.039 0.047 -0.121 0.469 -0.18 0.945 c -0.23 1.797 -0.867 3.777 -1.215 3.777 c -0.215 0 -0.215 -0.02 0 -1.195 c 0.699 -3.805 0.375 -6.887 -0.863 -8.203 c -0.578 -0.613 -1.18 -0.871 -2.035 -0.879 c -0.688 -0.004 -0.785 0.023 -1.434 0.375 c -0.867 0.48 -1.977 1.602 -2.688 2.73 c -1.262 1.988 -2.508 5.172 -3.102 7.906 c -0.219 1.02 -0.242 1.32 -0.242 3.043 c 0 1.754 0.02 1.988 0.234 2.824 c 0.285 1.09 0.656 1.969 1.238 2.918 c 0.457 0.75 0.898 1.145 1.734 1.539 c 0.73 0.348 1.824 0.539 1.941 0.34 m 0 -0.008"
           fill="#17c0e8"
           stroke="none"
           fill-rule="nonzero"
           fill-opacity="1"
           id="path59" />
      </g>
    </g>
  </g>
</svg>
