<?xml version="1.0" encoding="UTF-8" standalone="no"?>
<svg
   xmlns:dc="http://purl.org/dc/elements/1.1/"
   xmlns:cc="http://creativecommons.org/ns#"
   xmlns:rdf="http://www.w3.org/1999/02/22-rdf-syntax-ns#"
   xmlns:svg="http://www.w3.org/2000/svg"
   xmlns="http://www.w3.org/2000/svg"
   xmlns:sodipodi="http://sodipodi.sourceforge.net/DTD/sodipodi-0.dtd"
   xmlns:inkscape="http://www.inkscape.org/namespaces/inkscape"
   viewBox="0 0 48 48"
   id="svg2"
   version="1.1"
   inkscape:version="0.48.4 r9939"
   width="100%"
   height="100%"
   sodipodi:docname="steam_icon_211820.svg">
  <metadata
     id="metadata67">
    <rdf:RDF>
      <cc:Work
         rdf:about="">
        <dc:format>image/svg+xml</dc:format>
        <dc:type
           rdf:resource="http://purl.org/dc/dcmitype/StillImage" />
      </cc:Work>
    </rdf:RDF>
  </metadata>
  <sodipodi:namedview
     pagecolor="#ffffff"
     bordercolor="#666666"
     borderopacity="1"
     objecttolerance="10"
     gridtolerance="10"
     guidetolerance="10"
     inkscape:pageopacity="0"
     inkscape:pageshadow="2"
     inkscape:window-width="640"
     inkscape:window-height="480"
     id="namedview65"
     showgrid="false"
     inkscape:zoom="4.9166667"
     inkscape:cx="24"
     inkscape:cy="22.372881"
     inkscape:window-x="0"
     inkscape:window-y="0"
     inkscape:window-maximized="0"
     inkscape:current-layer="svg2" />
  <defs
     id="defs4">
    <linearGradient
       id="1"
       gradientUnits="userSpaceOnUse"
       y1="15"
       x2="0"
       y2="11"
       gradientTransform="matrix(15.333333,0,0,11.5,414.99999,-125.5)">
      <stop
         id="stop7" />
      <stop
         offset="1"
         stop-opacity="0"
         id="stop9" />
    </linearGradient>
    <clipPath
       id="clipPath-266285272">
      <g
         transform="translate(0,-1004.3622)"
         id="g12">
        <path
           d="m -24 13 c 0 1.105 -0.672 2 -1.5 2 -0.828 0 -1.5 -0.895 -1.5 -2 0 -1.105 0.672 -2 1.5 -2 0.828 0 1.5 0.895 1.5 2 z"
           transform="matrix(15.333333,0,0,11.5,414.99999,878.8622)"
           fill="#1890d0"
           id="path14" />
      </g>
    </clipPath>
    <clipPath
       id="clipPath-276644147">
      <g
         transform="translate(0,-1004.3622)"
         id="g17">
        <path
           d="m -24 13 c 0 1.105 -0.672 2 -1.5 2 -0.828 0 -1.5 -0.895 -1.5 -2 0 -1.105 0.672 -2 1.5 -2 0.828 0 1.5 0.895 1.5 2 z"
           transform="matrix(15.333333,0,0,11.5,414.99999,878.8622)"
           fill="#1890d0"
           id="path19" />
      </g>
    </clipPath>
    <linearGradient
       id="1-3"
       gradientUnits="userSpaceOnUse"
       y1="15"
       x2="0"
       y2="11"
       gradientTransform="matrix(15.333333,0,0,11.5,414.99999,-125.5)">
      <stop
         id="stop7-0" />
      <stop
         offset="1"
         stop-opacity="0"
         id="stop9-9" />
    </linearGradient>
  </defs>
  <g
     transform="translate(9.9999996e-7,0.0022)"
     id="g21">
    <g
       transform="translate(0,-1004.3622)"
       id="g23">
      <path
         style="opacity:0.05"
         inkscape:connector-curvature="0"
         d="m 25,1006.36 c -12.703,0 -23,10.298 -23,23 0,6.367 2.601,12.12 6.781,16.281 4.085,3.712 9.514,5.969 15.469,5.969 12.703,0 23,-10.297 23,-23 0,-5.954 -2.256,-11.384 -5.969,-15.469 -4.165,-4.181 -9.914,-6.781 -16.281,-6.781 z m 16.281,6.781 c 3.854,4.113 6.219,9.637 6.219,15.719 0,12.703 -10.297,23 -23,23 -6.081,0 -11.606,-2.364 -15.719,-6.219 4.16,4.144 9.883,6.719 16.219,6.719 12.703,0 23,-10.297 23,-23 0,-6.335 -2.575,-12.06 -6.719,-16.219 z"
         id="path25" />
      <path
         style="opacity:0.1"
         inkscape:connector-curvature="0"
         d="m 41.28,1013.14 c 3.712,4.085 5.969,9.514 5.969,15.469 0,12.703 -10.297,23 -23,23 -5.954,0 -11.384,-2.256 -15.469,-5.969 4.113,3.854 9.637,6.219 15.719,6.219 12.703,0 23,-10.297 23,-23 0,-6.081 -2.364,-11.606 -6.219,-15.719 z"
         id="path27" />
      <path
         style="opacity:0.2"
         inkscape:connector-curvature="0"
         transform="matrix(15.333333,0,0,11.5,415.24999,879.11222)"
         d="m -24,13 a 1.5,2 0 1 1 -3,0 1.5,2 0 1 1 3,0 z"
         id="path29" />
    </g>
  </g>
  <g
     transform="translate(9.9999996e-7,0.0022)"
     id="g31">
    <g
       transform="translate(0,-1004.3622)"
       id="g33">
      <path
         style="fill:#474747"
         inkscape:connector-curvature="0"
         d="m -24,13 c 0,1.105 -0.672,2 -1.5,2 -0.828,0 -1.5,-0.895 -1.5,-2 0,-1.105 0.672,-2 1.5,-2 0.828,0 1.5,0.895 1.5,2 z"
         transform="matrix(15.333333,0,0,11.5,414.99999,878.8622)"
         id="path35" />
    </g>
  </g>
  <g
     transform="translate(9.9999996e-7,0.0022)"
     id="g37">
    <path
       style="opacity:0.15;fill:url(#1-3)"
       inkscape:connector-curvature="0"
       d="M 47,24 C 47,36.703 36.703,47 24,47 11.297,47 1,36.703 1,24 1,11.297 11.297,1 24,1 36.703,1 47,11.297 47,24 z"
       id="path39" />
  </g>
  <g
     transform="translate(9.9999996e-7,0.0022)"
     id="g61">
    <path
       style="opacity:0.1"
       inkscape:connector-curvature="0"
       d="m 40.03,7.531 c 3.712,4.084 5.969,9.514 5.969,15.469 0,12.703 -10.297,23 -23,23 C 17.045,46 11.615,43.744 7.53,40.031 11.708,44.322 17.54,47 23.999,47 c 12.703,0 23,-10.298 23,-23 0,-6.462 -2.677,-12.291 -6.969,-16.469 z"
       id="path63" />
  </g>
  <g
     id="g41">
    <g
       clip-path="url(#clipPath-266285272)"
       id="g43">
      <g
         transform="translate(0,1)"
         id="g45">
        <g
           opacity="0.1"
           id="g47">
          <g
             id="g49">
            <path
               d="m 0 6 c 0 0.539 0 2 0 3 c 18 10 30 30 34 39 c 1 0 1 0 2 0 c -1.488 -3.391 -6.06 -11.848 -8.094 -15.16 c 0.07 -0.039 0.148 -0.055 0.219 -0.094 l 3.03 2.313 l -1.344 -3.563 c 0.742 -0.668 1.398 -1.414 1.906 -2.281 l 3.813 0.469 l -2.969 -2.438 c 0.285 -0.91 0.465 -1.871 0.469 -2.875 l 3.469 -1.406 l -3.688 -0.688 c -0.211 -0.98 -0.551 -1.906 -1.031 -2.75 c 0.754 -0.961 2.309 -2.922 2.375 -3 c 0.063 -0.078 -2.395 0.82 -3.656 1.281 c -0.66 -0.723 -1.43 -1.348 -2.281 -1.844 l 0.5 -3.75 l -2.469 2.875 c -0.902 -0.285 -1.852 -0.434 -2.844 -0.438 l -1.406 -3.531 l -0.625 3.75 c -0.996 0.207 -1.957 0.543 -2.813 1.031 l -3 -2.375 l 1.313 3.625 c -0.313 0.281 -0.598 0.613 -0.875 0.938 c -2.512 -2.438 -12 -10.09 -16 -12.09 m 23.344 10.594 c 4.277 0 7.75 3.441 7.75 7.719 c 0 3.02 -1.73 5.629 -4.25 6.906 c -2.617 -4.01 -5.723 -7.941 -9.5 -11.781 c 1.418 -1.75 3.57 -2.844 6 -2.844 m 0 0"
               fill="#000"
               stroke="none"
               fill-rule="nonzero"
               fill-opacity="1"
               id="path51" />
          </g>
        </g>
      </g>
    </g>
  </g>
  <g
     id="g53">
    <g
       clip-path="url(#clipPath-276644147)"
       id="g55">
      <g
         id="g57">
        <path
           d="m 0 6 c 0 0.539 0 2 0 3 c 18 10 30 30 34 39 c 1 0 1 0 2 0 c -1.488 -3.391 -6.06 -11.848 -8.094 -15.16 c 0.07 -0.039 0.148 -0.055 0.219 -0.094 l 3.03 2.313 l -1.344 -3.563 c 0.742 -0.668 1.398 -1.414 1.906 -2.281 l 3.813 0.469 l -2.969 -2.438 c 0.285 -0.91 0.465 -1.871 0.469 -2.875 l 3.469 -1.406 l -3.688 -0.688 c -0.211 -0.98 -0.551 -1.906 -1.031 -2.75 c 0.754 -0.961 2.309 -2.922 2.375 -3 c 0.063 -0.078 -2.395 0.82 -3.656 1.281 c -0.66 -0.723 -1.43 -1.348 -2.281 -1.844 l 0.5 -3.75 l -2.469 2.875 c -0.902 -0.285 -1.852 -0.434 -2.844 -0.438 l -1.406 -3.531 l -0.625 3.75 c -0.996 0.207 -1.957 0.543 -2.813 1.031 l -3 -2.375 l 1.313 3.625 c -0.313 0.281 -0.598 0.613 -0.875 0.938 c -2.512 -2.438 -12 -10.09 -16 -12.09 m 23.344 10.594 c 4.277 0 7.75 3.441 7.75 7.719 c 0 3.02 -1.73 5.629 -4.25 6.906 c -2.617 -4.01 -5.723 -7.941 -9.5 -11.781 c 1.418 -1.75 3.57 -2.844 6 -2.844 m 0 0"
           fill="#ffef9c"
           stroke="none"
           fill-rule="nonzero"
           fill-opacity="1"
           id="path59" />
      </g>
    </g>
  </g>
</svg>
