<?xml version="1.0" encoding="UTF-8" standalone="no"?>
<svg
   xmlns:dc="http://purl.org/dc/elements/1.1/"
   xmlns:cc="http://creativecommons.org/ns#"
   xmlns:rdf="http://www.w3.org/1999/02/22-rdf-syntax-ns#"
   xmlns:svg="http://www.w3.org/2000/svg"
   xmlns="http://www.w3.org/2000/svg"
   xmlns:xlink="http://www.w3.org/1999/xlink"
   xmlns:sodipodi="http://sodipodi.sourceforge.net/DTD/sodipodi-0.dtd"
   xmlns:inkscape="http://www.inkscape.org/namespaces/inkscape"
   viewBox="0 0 48 48"
   id="svg2"
   version="1.1"
   inkscape:version="0.48.5 r10040"
   sodipodi:docname="steam_icon_227200.svg"
   width="100%"
   height="100%">
  <metadata
     id="metadata72">
    <rdf:RDF>
      <cc:Work
         rdf:about="">
        <dc:format>image/svg+xml</dc:format>
        <dc:type
           rdf:resource="http://purl.org/dc/dcmitype/StillImage" />
        <dc:title />
      </cc:Work>
    </rdf:RDF>
  </metadata>
  <sodipodi:namedview
     pagecolor="#ffffff"
     bordercolor="#666666"
     borderopacity="1"
     objecttolerance="10"
     gridtolerance="10"
     guidetolerance="10"
     inkscape:pageopacity="0"
     inkscape:pageshadow="2"
     inkscape:window-width="1280"
     inkscape:window-height="998"
     id="namedview70"
     showgrid="true"
     inkscape:zoom="1.9999999"
     inkscape:cx="-13.095565"
     inkscape:cy="76.06603"
     inkscape:window-x="0"
     inkscape:window-y="0"
     inkscape:window-maximized="1"
     inkscape:current-layer="svg2">
    <inkscape:grid
       type="xygrid"
       id="grid3400" />
  </sodipodi:namedview>
  <defs
     id="defs4">
    <linearGradient
       id="linearGradient3797">
      <stop
         style="stop-color:#ec6d00;stop-opacity:1;"
         offset="0"
         id="stop3799" />
      <stop
         style="stop-color:#3c3127;stop-opacity:1;"
         offset="1"
         id="stop3801" />
    </linearGradient>
    <linearGradient
       id="linearGradient4255">
      <stop
         style="stop-color:#4970c1;stop-opacity:1"
         offset="0"
         id="stop4257" />
      <stop
         style="stop-color:#134197;stop-opacity:1"
         offset="1"
         id="stop4259" />
    </linearGradient>
    <linearGradient
       id="linearGradient4202">
      <stop
         style="stop-color:#2d2d2d;stop-opacity:1;"
         offset="0"
         id="stop4204" />
      <stop
         style="stop-color:#373737;stop-opacity:1;"
         offset="1"
         id="stop4206" />
    </linearGradient>
    <clipPath
       id="clipPath-035282542">
      <g
         transform="translate(0,-1004.3622)"
         id="g12">
        <path
           d="m -24 13 c 0 1.105 -0.672 2 -1.5 2 -0.828 0 -1.5 -0.895 -1.5 -2 0 -1.105 0.672 -2 1.5 -2 0.828 0 1.5 0.895 1.5 2 z"
           transform="matrix(15.333333,0,0,11.5,414.99999,878.8622)"
           fill="#1890d0"
           id="path14" />
      </g>
    </clipPath>
    <clipPath
       id="clipPath-046106031">
      <g
         transform="translate(0,-1004.3622)"
         id="g17">
        <path
           d="m -24 13 c 0 1.105 -0.672 2 -1.5 2 -0.828 0 -1.5 -0.895 -1.5 -2 0 -1.105 0.672 -2 1.5 -2 0.828 0 1.5 0.895 1.5 2 z"
           transform="matrix(15.333333,0,0,11.5,414.99999,878.8622)"
           fill="#1890d0"
           id="path19" />
      </g>
    </clipPath>
    <linearGradient
       inkscape:collect="always"
       xlink:href="#linearGradient4202"
       id="linearGradient3784"
       gradientUnits="userSpaceOnUse"
       x1="1"
       y1="47"
       x2="1"
       y2="1" />
    <linearGradient
       inkscape:collect="always"
       xlink:href="#linearGradient3797"
       id="linearGradient3803"
       x1="9"
       y1="24"
       x2="39"
       y2="24"
       gradientUnits="userSpaceOnUse" />
  </defs>
  <g
     id="g32">
    <path
       d="m 36.31 5 c 5.859 4.062 9.688 10.831 9.688 18.5 c 0 12.426 -10.07 22.5 -22.5 22.5 c -7.669 0 -14.438 -3.828 -18.5 -9.688 c 1.037 1.822 2.306 3.499 3.781 4.969 c 4.085 3.712 9.514 5.969 15.469 5.969 c 12.703 0 23 -10.298 23 -23 c 0 -5.954 -2.256 -11.384 -5.969 -15.469 c -1.469 -1.475 -3.147 -2.744 -4.969 -3.781 z m 4.969 3.781 c 3.854 4.113 6.219 9.637 6.219 15.719 c 0 12.703 -10.297 23 -23 23 c -6.081 0 -11.606 -2.364 -15.719 -6.219 c 4.16 4.144 9.883 6.719 16.219 6.719 c 12.703 0 23 -10.298 23 -23 c 0 -6.335 -2.575 -12.06 -6.719 -16.219 z"
       opacity="0.05"
       id="path34" />
    <path
       d="m 41.28 8.781 c 3.712 4.085 5.969 9.514 5.969 15.469 c 0 12.703 -10.297 23 -23 23 c -5.954 0 -11.384 -2.256 -15.469 -5.969 c 4.113 3.854 9.637 6.219 15.719 6.219 c 12.703 0 23 -10.298 23 -23 c 0 -6.081 -2.364 -11.606 -6.219 -15.719 z"
       opacity="0.1"
       id="path36" />
    <path
       d="m 31.25 2.375 c 8.615 3.154 14.75 11.417 14.75 21.13 c 0 12.426 -10.07 22.5 -22.5 22.5 c -9.708 0 -17.971 -6.135 -21.12 -14.75 a 23 23 0 0 0 44.875 -7 a 23 23 0 0 0 -16 -21.875 z"
       opacity="0.2"
       id="path38" />
  </g>
  <path
     inkscape:connector-curvature="0"
     style="fill:url(#linearGradient3784);fill-opacity:1"
     id="path42"
     d="M 24,1 C 36.703,1 47,11.297 47,24 47,36.703 36.703,47 24,47 11.297,47 1,36.703 1,24 1,11.297 11.297,1 24,1 z" />
  <g
     id="g44" />
  <g
     id="g46"
     transform="translate(0.004,0)">
    <g
       clip-path="url(#clipPath-035282542)"
       id="g48">
      <g
         transform="translate(1,1)"
         id="g50">
        <g
           id="g52"
           style="opacity:0.1">
          <!-- color: #3d3d3d -->
          <g
             id="g54" />
        </g>
      </g>
    </g>
  </g>
  <g
     id="g58">
    <g
       clip-path="url(#clipPath-046106031)"
       id="g60">
      <!-- color: #3d3d3d -->
      <g
         id="g62" />
    </g>
  </g>
  <g
     id="g66">
    <path
       d="m 40.03 7.531 c 3.712 4.084 5.969 9.514 5.969 15.469 0 12.703 -10.297 23 -23 23 c -5.954 0 -11.384 -2.256 -15.469 -5.969 4.178 4.291 10.01 6.969 16.469 6.969 c 12.703 0 23 -10.298 23 -23 0 -6.462 -2.677 -12.291 -6.969 -16.469 z"
       opacity="0.1"
       id="path68" />
  </g>
  <circle
     r="15"
     cy="25"
     cx="25"
     id="circle4166"
     style="fill:#000000;fill-opacity:0.10980392;stroke:none;stroke-opacity:1" />
  <circle
     style="fill:url(#linearGradient3803);fill-opacity:1;stroke:none"
     id="path4245"
     cx="24"
     cy="24"
     r="15"
     sodipodi:cx="24"
     sodipodi:cy="24"
     sodipodi:rx="15"
     sodipodi:ry="15"
     transform="matrix(-0.36528536,0.93060792,-0.93060792,-0.36528536,55.101439,10.432259)" />
  <path
     sodipodi:type="arc"
     style="opacity:1;fill:#f9f9f9;fill-opacity:1;fill-rule:nonzero;stroke:none"
     id="path3841"
     sodipodi:cx="22.5"
     sodipodi:cy="6.5"
     sodipodi:rx="0.5"
     sodipodi:ry="0.5"
     d="m 23,6.5 a 0.5,0.5 0 1 1 -1,0 0.5,0.5 0 1 1 1,0 z" />
  <path
     sodipodi:type="arc"
     style="fill:#f9f9f9;fill-opacity:1;fill-rule:nonzero;stroke:none"
     id="path3841-3"
     sodipodi:cx="22.5"
     sodipodi:cy="6.5"
     sodipodi:rx="0.5"
     sodipodi:ry="0.5"
     d="m 23,6.5 a 0.5,0.5 0 1 1 -1,0 0.5,0.5 0 1 1 1,0 z"
     transform="translate(8,-2)" />
  <path
     transform="translate(-18,10)"
     sodipodi:type="arc"
     style="fill:#f9f9f9;fill-opacity:1;fill-rule:nonzero;stroke:none"
     id="path3841-8"
     sodipodi:cx="22.5"
     sodipodi:cy="6.5"
     sodipodi:rx="0.5"
     sodipodi:ry="0.5"
     d="m 23,6.5 a 0.5,0.5 0 1 1 -1,0 0.5,0.5 0 1 1 1,0 z" />
  <path
     sodipodi:type="arc"
     style="fill:#f9f9f9;fill-opacity:1;fill-rule:nonzero;stroke:none"
     id="path3841-3-7"
     sodipodi:cx="22.5"
     sodipodi:cy="6.5"
     sodipodi:rx="0.5"
     sodipodi:ry="0.5"
     d="m 23,6.5 a 0.5,0.5 0 1 1 -1,0 0.5,0.5 0 1 1 1,0 z"
     transform="translate(-7,0)" />
  <path
     transform="translate(-12,6)"
     sodipodi:type="arc"
     style="fill:#f9f9f9;fill-opacity:1;fill-rule:nonzero;stroke:none"
     id="path3841-8-1"
     sodipodi:cx="22.5"
     sodipodi:cy="6.5"
     sodipodi:rx="0.5"
     sodipodi:ry="0.5"
     d="m 23,6.5 a 0.5,0.5 0 1 1 -1,0 0.5,0.5 0 1 1 1,0 z" />
  <path
     transform="translate(-16,17)"
     sodipodi:type="arc"
     style="fill:#f9f9f9;fill-opacity:1;fill-rule:nonzero;stroke:none"
     id="path3841-8-0"
     sodipodi:cx="22.5"
     sodipodi:cy="6.5"
     sodipodi:rx="0.5"
     sodipodi:ry="0.5"
     d="m 23,6.5 a 0.5,0.5 0 1 1 -1,0 0.5,0.5 0 1 1 1,0 z" />
  <path
     transform="translate(-18,22)"
     sodipodi:type="arc"
     style="fill:#f9f9f9;fill-opacity:1;fill-rule:nonzero;stroke:none"
     id="path3841-8-0-5"
     sodipodi:cx="22.5"
     sodipodi:cy="6.5"
     sodipodi:rx="0.5"
     sodipodi:ry="0.5"
     d="m 23,6.5 a 0.5,0.5 0 1 1 -1,0 0.5,0.5 0 1 1 1,0 z" />
  <path
     transform="translate(-13,28)"
     sodipodi:type="arc"
     style="fill:#f9f9f9;fill-opacity:1;fill-rule:nonzero;stroke:none"
     id="path3841-8-0-5-8"
     sodipodi:cx="22.5"
     sodipodi:cy="6.5"
     sodipodi:rx="0.5"
     sodipodi:ry="0.5"
     d="m 23,6.5 a 0.5,0.5 0 1 1 -1,0 0.5,0.5 0 1 1 1,0 z" />
  <path
     sodipodi:type="arc"
     style="fill:#f9f9f9;fill-opacity:1;fill-rule:nonzero;stroke:none"
     id="path3841-3-0"
     sodipodi:cx="22.5"
     sodipodi:cy="6.5"
     sodipodi:rx="0.5"
     sodipodi:ry="0.5"
     d="m 23,6.5 a 0.5,0.5 0 1 1 -1,0 0.5,0.5 0 1 1 1,0 z"
     transform="translate(10,3)" />
  <path
     sodipodi:type="arc"
     style="fill:#f9f9f9;fill-opacity:1;fill-rule:nonzero;stroke:none"
     id="path3841-3-0-1"
     sodipodi:cx="22.5"
     sodipodi:cy="6.5"
     sodipodi:rx="0.5"
     sodipodi:ry="0.5"
     d="m 23,6.5 a 0.5,0.5 0 1 1 -1,0 0.5,0.5 0 1 1 1,0 z"
     transform="translate(18,5)" />
  <path
     sodipodi:type="arc"
     style="fill:#f9f9f9;fill-opacity:1;fill-rule:nonzero;stroke:none"
     id="path3841-3-0-1-5"
     sodipodi:cx="22.5"
     sodipodi:cy="6.5"
     sodipodi:rx="0.5"
     sodipodi:ry="0.5"
     d="m 23,6.5 a 0.5,0.5 0 1 1 -1,0 0.5,0.5 0 1 1 1,0 z"
     transform="translate(20,10)" />
  <path
     sodipodi:type="arc"
     style="fill:#f9f9f9;fill-opacity:1;fill-rule:nonzero;stroke:none"
     id="path3841-3-0-1-5-9"
     sodipodi:cx="22.5"
     sodipodi:cy="6.5"
     sodipodi:rx="0.5"
     sodipodi:ry="0.5"
     d="m 23,6.5 a 0.5,0.5 0 1 1 -1,0 0.5,0.5 0 1 1 1,0 z"
     transform="translate(18,17)" />
  <path
     sodipodi:type="arc"
     style="fill:#f9f9f9;fill-opacity:1;fill-rule:nonzero;stroke:none"
     id="path3841-3-0-1-5-9-2"
     sodipodi:cx="22.5"
     sodipodi:cy="6.5"
     sodipodi:rx="0.5"
     sodipodi:ry="0.5"
     d="m 23,6.5 a 0.5,0.5 0 1 1 -1,0 0.5,0.5 0 1 1 1,0 z"
     transform="translate(22,20)" />
  <path
     sodipodi:type="arc"
     style="fill:#f9f9f9;fill-opacity:1;fill-rule:nonzero;stroke:none"
     id="path3841-3-0-1-5-9-2-7"
     sodipodi:cx="22.5"
     sodipodi:cy="6.5"
     sodipodi:rx="0.5"
     sodipodi:ry="0.5"
     d="m 23,6.5 a 0.5,0.5 0 1 1 -1,0 0.5,0.5 0 1 1 1,0 z"
     transform="translate(19,25)" />
  <path
     sodipodi:type="arc"
     style="fill:#f9f9f9;fill-opacity:1;fill-rule:nonzero;stroke:none"
     id="path3841-3-0-1-5-9-2-7-2"
     sodipodi:cx="22.5"
     sodipodi:cy="6.5"
     sodipodi:rx="0.5"
     sodipodi:ry="0.5"
     d="m 23,6.5 a 0.5,0.5 0 1 1 -1,0 0.5,0.5 0 1 1 1,0 z"
     transform="translate(14,29)" />
  <path
     sodipodi:type="arc"
     style="fill:#f9f9f9;fill-opacity:1;fill-rule:nonzero;stroke:none"
     id="path3841-3-0-1-5-9-2-7-2-6"
     sodipodi:cx="22.5"
     sodipodi:cy="6.5"
     sodipodi:rx="0.5"
     sodipodi:ry="0.5"
     d="m 23,6.5 a 0.5,0.5 0 1 1 -1,0 0.5,0.5 0 1 1 1,0 z"
     transform="translate(11,36)" />
  <path
     sodipodi:type="arc"
     style="fill:#f9f9f9;fill-opacity:1;fill-rule:nonzero;stroke:none"
     id="path3841-3-0-1-5-9-2-7-2-6-1"
     sodipodi:cx="22.5"
     sodipodi:cy="6.5"
     sodipodi:rx="0.5"
     sodipodi:ry="0.5"
     d="m 23,6.5 a 0.5,0.5 0 1 1 -1,0 0.5,0.5 0 1 1 1,0 z"
     transform="translate(3,34)" />
  <path
     sodipodi:type="arc"
     style="fill:#f9f9f9;fill-opacity:1;fill-rule:nonzero;stroke:none"
     id="path3841-3-0-1-5-9-2-7-2-6-1-5-9"
     sodipodi:cx="22.5"
     sodipodi:cy="6.5"
     sodipodi:rx="0.5"
     sodipodi:ry="0.5"
     d="m 23,6.5 a 0.5,0.5 0 1 1 -1,0 0.5,0.5 0 1 1 1,0 z"
     transform="translate(-10,34)" />
  <path
     sodipodi:type="arc"
     style="fill:#f9f9f9;fill-opacity:1;fill-rule:nonzero;stroke:none"
     id="path3841-3-0-1-5-9-2-7-2-6-1-5-9-3"
     sodipodi:cx="22.5"
     sodipodi:cy="6.5"
     sodipodi:rx="0.5"
     sodipodi:ry="0.5"
     d="m 23,6.5 a 0.5,0.5 0 1 1 -1,0 0.5,0.5 0 1 1 1,0 z"
     transform="translate(-5,33)" />
  <path
     sodipodi:type="arc"
     style="fill:#f9f9f9;fill-opacity:1;fill-rule:nonzero;stroke:none"
     id="path3841-3-0-1-5-9-2-7-2-6-1-5-9-3-1"
     sodipodi:cx="22.5"
     sodipodi:cy="6.5"
     sodipodi:rx="0.5"
     sodipodi:ry="0.5"
     d="m 23,6.5 a 0.5,0.5 0 1 1 -1,0 0.5,0.5 0 1 1 1,0 z"
     transform="translate(-1,38)" />
</svg>
