<?xml version="1.0" encoding="UTF-8" standalone="no"?>
<svg
   xmlns:dc="http://purl.org/dc/elements/1.1/"
   xmlns:cc="http://creativecommons.org/ns#"
   xmlns:rdf="http://www.w3.org/1999/02/22-rdf-syntax-ns#"
   xmlns:svg="http://www.w3.org/2000/svg"
   xmlns="http://www.w3.org/2000/svg"
   xmlns:xlink="http://www.w3.org/1999/xlink"
   xmlns:sodipodi="http://sodipodi.sourceforge.net/DTD/sodipodi-0.dtd"
   xmlns:inkscape="http://www.inkscape.org/namespaces/inkscape"
   width="48"
   viewBox="0 0 13.546667 13.546667"
   height="48"
   id="svg2"
   version="1.1"
   inkscape:version="0.48.4 r9939"
   sodipodi:docname="steamskinmanager.svg">
  <metadata
     id="metadata40">
    <rdf:RDF>
      <cc:Work
         rdf:about="">
        <dc:format>image/svg+xml</dc:format>
        <dc:type
           rdf:resource="http://purl.org/dc/dcmitype/StillImage" />
      </cc:Work>
    </rdf:RDF>
  </metadata>
  <sodipodi:namedview
     pagecolor="#ffffff"
     bordercolor="#666666"
     borderopacity="1"
     objecttolerance="10"
     gridtolerance="10"
     guidetolerance="10"
     inkscape:pageopacity="0"
     inkscape:pageshadow="2"
     inkscape:window-width="1280"
     inkscape:window-height="998"
     id="namedview38"
     showgrid="false"
     inkscape:zoom="2.4583333"
     inkscape:cx="-132.88805"
     inkscape:cy="35.262512"
     inkscape:window-x="0"
     inkscape:window-y="0"
     inkscape:window-maximized="1"
     inkscape:current-layer="svg2" />
  <defs
     id="defs4">
    <linearGradient
       id="linearGradient4460">
      <stop
         offset="0"
         style="stop-color:#1d1d1d"
         id="stop7" />
      <stop
         offset="1"
         style="stop-color:#333"
         id="stop9" />
    </linearGradient>
    <linearGradient
       gradientTransform="matrix(1.10525,0,0,1.10525,-134.27888,-295.76214)"
       xlink:href="#linearGradient4460"
       id="linearGradient3018"
       y1="279.096"
       y2="268.33"
       gradientUnits="userSpaceOnUse"
       x2="0" />
    <linearGradient
       inkscape:collect="always"
       xlink:href="#linearGradient4460"
       id="linearGradient3829"
       gradientUnits="userSpaceOnUse"
       gradientTransform="matrix(1.10525,0,0,1.10525,-134.27888,-295.76214)"
       y1="279.096"
       x2="0"
       y2="268.33" />
    <linearGradient
       inkscape:collect="always"
       xlink:href="#linearGradient4460"
       id="linearGradient3836"
       gradientUnits="userSpaceOnUse"
       gradientTransform="matrix(1.10525,0,0,1.10525,-134.27888,-295.76214)"
       y1="279.096"
       x2="0"
       y2="268.33" />
  </defs>
  <rect
     id="rect14"
     style="opacity:0.5;fill:#ffffff;fill-rule:evenodd"
     height="12.982"
     rx="6.4910002"
     y="0.28299999"
     x="0.28200001"
     width="12.982" />
  <rect
     id="rect16"
     style="fill:url(#linearGradient3829);fill-rule:evenodd"
     height="11.853"
     rx="5.927"
     y="0.847"
     x="0.847"
     width="11.853" />
  <path
     style="line-height:normal;color:#000000;fill:#535353;fill-opacity:1"
     d="M 30.1875 3.90625 C 28.661629 5.989521 27.75 8.5249088 27.75 11.25 C 27.75 13.634329 28.464653 15.86522 29.65625 17.78125 L 29.65625 31.46875 C 28.194517 31.760378 26.852006 32.382861 25.71875 33.25 L 12.6875 27.5625 C 12.652242 22.73089 8.6658266 18.765753 3.71875 18.53125 C 3.4040216 19.706748 3.1698897 20.907542 3.0625 22.15625 C 3.1283212 22.1551 3.1829872 22.15625 3.25 22.15625 C 6.3401226 22.15625 8.1602312 23.395427 8.71875 25.84375 L 5.34375 24.375 C 4.572192 24.058529 3.7711999 23.996925 3 24.125 C 3.0255773 28.576347 4.4123552 32.683791 6.78125 36.0625 C 7.556365 35.753933 8.2801594 35.358317 8.9375 34.875 L 22.09375 40.59375 C 22.127362 42.187517 22.62063 43.671438 23.40625 44.96875 C 23.602401 44.974113 23.802508 45 24 45 C 25.08019 45 26.152096 44.905806 27.1875 44.75 C 26.419931 44.025735 25.83576 43.125958 25.53125 42.09375 L 30.0625 44.0625 C 30.093577 44.075244 30.125033 44.08178 30.15625 44.09375 C 32.16665 43.481422 34.048233 42.585302 35.75 41.4375 C 36.325159 39.488338 35.32199 37.373742 33.34375 36.5625 L 29.21875 34.78125 C 29.936524 34.507216 30.707044 34.34375 31.53125 34.34375 C 34.820763 34.34375 37.490648 36.740659 37.78125 39.84375 C 38.711344 39.034738 39.569139 38.147493 40.34375 37.1875 C 40.023216 36.379247 39.594685 35.619005 39.0625 34.9375 L 44.96875 24.90625 C 44.981189 24.608135 45 24.30128 45 24 C 45 22.295404 44.786066 20.647388 44.40625 19.0625 C 43.35427 19.487758 42.188684 19.71875 40.96875 19.71875 C 36.089014 19.71875 32.1875 15.969201 32.1875 11.25 C 32.1875 9.1153587 32.986431 7.1751186 34.3125 5.6875 C 33.019402 4.9604967 31.633606 4.3489742 30.1875 3.90625 z M 36.90625 7.4375 A 5.6576224 5.4713288 0 0 0 35.3125 11.21875 A 5.6576224 5.4713288 0 0 0 43.4375 16.03125 C 42.043373 12.617518 39.768785 9.6687225 36.90625 7.4375 z "
     id="path22"
     transform="scale(0.28222223,0.28222223)" />
  <path
     style="color:#000000;fill:#f9f9f9;fill-opacity:1"
     inkscape:connector-curvature="0"
     d="m 4.9695147,2.8223955 c -0.2589826,0.00423 -0.5201768,0.052663 -0.764509,0.1480256 L 5.5182351,4.2838833 A 0.87229585,0.87246256 0 1 1 4.2851557,5.5172227 L 2.9719263,4.203704 C 2.6668386,4.9857418 2.8275144,5.91541 3.4589928,6.5470234 4.0904712,7.1786085 5.01998,7.3393059 5.8018433,7.0341672 l 3.415629,3.4162998 A 0.87229585,0.87246256 0 1 0 10.450552,9.2171561 L 7.0349223,5.8008843 C 7.3400103,5.0188464 7.1793343,4.08915 6.5478563,3.4575649 6.1137143,3.0233377 5.5392768,2.8134773 4.9695147,2.8223955 z m 4.8583326,6.7092409 c 0.163442,0 0.2959387,0.1325315 0.2959387,0.2959946 0,0.1634631 -0.1324967,0.295995 -0.2959387,0.295995 -0.163443,0 -0.295939,-0.1325319 -0.295939,-0.295995 0,-0.1634631 0.132496,-0.2959946 0.295939,-0.2959946 z"
     id="path96" />
</svg>
