<svg xmlns="http://www.w3.org/2000/svg" viewBox="0 0 48 48">
 <defs>
  <linearGradient id="linearGradient3764" x1="1" x2="47" gradientUnits="userSpaceOnUse" gradientTransform="matrix(0,-1,1,0,-1.5e-6,47.999998)">
   <stop style="stop-color:#61c963;stop-opacity:1"/>
   <stop offset="1" style="stop-color:#70ce72;stop-opacity:1"/>
  </linearGradient>
 </defs>
 <g>
  <path d="m 36.31 5 c 5.859 4.062 9.688 10.831 9.688 18.5 c 0 12.426 -10.07 22.5 -22.5 22.5 c -7.669 0 -14.438 -3.828 -18.5 -9.688 c 1.037 1.822 2.306 3.499 3.781 4.969 c 4.085 3.712 9.514 5.969 15.469 5.969 c 12.703 0 23 -10.298 23 -23 c 0 -5.954 -2.256 -11.384 -5.969 -15.469 c -1.469 -1.475 -3.147 -2.744 -4.969 -3.781 z m 4.969 3.781 c 3.854 4.113 6.219 9.637 6.219 15.719 c 0 12.703 -10.297 23 -23 23 c -6.081 0 -11.606 -2.364 -15.719 -6.219 c 4.16 4.144 9.883 6.719 16.219 6.719 c 12.703 0 23 -10.298 23 -23 c 0 -6.335 -2.575 -12.06 -6.719 -16.219 z" style="opacity:0.05"/>
  <path d="m 41.28 8.781 c 3.712 4.085 5.969 9.514 5.969 15.469 c 0 12.703 -10.297 23 -23 23 c -5.954 0 -11.384 -2.256 -15.469 -5.969 c 4.113 3.854 9.637 6.219 15.719 6.219 c 12.703 0 23 -10.298 23 -23 c 0 -6.081 -2.364 -11.606 -6.219 -15.719 z" style="opacity:0.1"/>
  <path d="m 31.25 2.375 c 8.615 3.154 14.75 11.417 14.75 21.13 c 0 12.426 -10.07 22.5 -22.5 22.5 c -9.708 0 -17.971 -6.135 -21.12 -14.75 a 23 23 0 0 0 44.875 -7 a 23 23 0 0 0 -16 -21.875 z" style="opacity:0.2"/>
 </g>
 <g>
  <path d="m 24 1 c 12.703 0 23 10.297 23 23 c 0 12.703 -10.297 23 -23 23 -12.703 0 -23 -10.297 -23 -23 0 -12.703 10.297 -23 23 -23 z" style="fill:url(#linearGradient3764);fill-opacity:1"/>
 </g>
 <g>
  <path d="m 40.03 7.531 c 3.712 4.084 5.969 9.514 5.969 15.469 0 12.703 -10.297 23 -23 23 c -5.954 0 -11.384 -2.256 -15.469 -5.969 4.178 4.291 10.01 6.969 16.469 6.969 c 12.703 0 23 -10.298 23 -23 0 -6.462 -2.677 -12.291 -6.969 -16.469 z" style="opacity:0.1"/>
 </g>
 <g transform="matrix(0.70106842,0,0,0.70106842,7.9968158,6.0497843)" style="fill:#000;opacity:0.1;fill-opacity:1">
  <g transform="matrix(0.84407603,0,0,0.84407603,-44.495647,-4.7809047)">
   <g>
    <path d="m 25.559 11 l 0 0.002 c -1.626 -0.085 -2.544 1.259 -3.242 3.082 a 2.738 2.738 0 0 0 -1.729 -0.617 a 2.738 2.738 0 0 0 -2.738 2.738 a 2.738 2.738 0 0 0 2.738 2.738 a 2.738 2.738 0 0 0 0.184 -0.008 c -0.69 1.968 -1.256 2.942 -1.5 4.678 c -0.062 0.442 -0.055 0.897 -0.031 1.355 c -0.394 0.112 -0.721 0.297 -0.906 0.555 c -0.388 0.541 -0.188 1.714 -0.199 3.107 c -0.009 1.134 0.109 2.3 0.076 3.557 c -0.009 0.334 -0.005 0.624 -0.002 0.918 c -0.172 1.313 -0.348 2.754 -0.539 4.221 c 2.156 1.07 4.584 1.672 7.154 1.672 c 2.712 0 5.266 -0.671 7.51 -1.854 c -0.353 -1.259 -0.697 -2.438 -0.994 -3.34 c -1.214 -3.681 -1.941 -11.303 -1.941 -11.303 c 0 0 0.016 -0.881 -0.031 -1.951 c -0.002 -0.047 -0.006 -0.108 -0.008 -0.156 a 3.22 3.084 0 0 0 2.867 -3.063 a 3.22 3.084 0 0 0 -3.221 -3.084 a 3.22 3.084 0 0 0 -0.459 0.035 c -0.536 -1.796 -1.433 -3.202 -2.988 -3.283 z" transform="matrix(1.6898884,0,0,1.6898884,39.201486,-4.5593916)" style="visibility:visible;shape-rendering:auto;color-interpolation-filters:linearRGB;opacity:1;image-rendering:auto;stroke:none;display:inline;color:#000;fill-rule:evenodd;color-rendering:auto;color-interpolation:sRGB"/>
   </g>
  </g>
 </g>
 <g>
  <g transform="matrix(0.59175505,0,0,0.59175505,-24.197456,1.7997378)">
   <g>
    <path d="m 78.62 22.832 a 4.627 4.627 0 0 1 -4.627 4.627 4.627 4.627 0 0 1 -4.627 -4.627 4.627 4.627 0 0 1 4.627 -4.627 4.627 4.627 0 0 1 4.627 4.627 z" mix-blend-mode="normal" isolation="auto" solid-opacity="1" solid-color="#000000" style="visibility:visible;shape-rendering:auto;color-interpolation-filters:linearRGB;fill:#eee;opacity:1;image-rendering:auto;fill-opacity:1;stroke:none;display:inline;color:#000;fill-rule:evenodd;color-rendering:auto;color-interpolation:sRGB"/>
    <path d="m 70.92 26.28 a 4.627 4.627 0 0 0 3.074 1.176 4.627 4.627 0 0 0 4.627 -4.627 4.627 4.627 0 0 0 -2.482 -4.098 4.627 4.627 0 0 1 0.24 0.227 4.627 4.627 0 0 1 0.305 0.348 4.627 4.627 0 0 1 0.27 0.375 4.627 4.627 0 0 1 0.23 0.402 4.627 4.627 0 0 1 0.189 0.422 4.627 4.627 0 0 1 0.145 0.439 4.627 4.627 0 0 1 0.102 0.451 4.627 4.627 0 0 1 0.057 0.459 4.627 4.627 0 0 1 0.012 0.328 4.627 4.627 0 0 1 -0.023 0.461 4.627 4.627 0 0 1 -0.068 0.457 4.627 4.627 0 0 1 -0.115 0.449 4.627 4.627 0 0 1 -0.158 0.434 4.627 4.627 0 0 1 -0.201 0.416 4.627 4.627 0 0 1 -0.242 0.395 4.627 4.627 0 0 1 -0.279 0.369 4.627 4.627 0 0 1 -0.316 0.338 4.627 4.627 0 0 1 -0.348 0.305 4.627 4.627 0 0 1 -0.375 0.27 4.627 4.627 0 0 1 -0.402 0.23 4.627 4.627 0 0 1 -0.422 0.189 4.627 4.627 0 0 1 -0.439 0.145 4.627 4.627 0 0 1 -0.451 0.102 4.627 4.627 0 0 1 -0.459 0.057 4.627 4.627 0 0 1 -0.326 0.012 4.627 4.627 0 0 1 -0.463 -0.023 4.627 4.627 0 0 1 -0.457 -0.068 4.627 4.627 0 0 1 -0.449 -0.115 4.627 4.627 0 0 1 -0.434 -0.158 4.627 4.627 0 0 1 -0.338 -0.164 z" mix-blend-mode="normal" isolation="auto" solid-opacity="1" solid-color="#000000" style="visibility:visible;shape-rendering:auto;color-interpolation-filters:linearRGB;fill:#ddd;opacity:1;image-rendering:auto;fill-opacity:1;stroke:none;display:inline;color:#000;fill-rule:evenodd;color-rendering:auto;color-interpolation:sRGB"/>
   </g>
   <path d="m 71.28 19.09 a 4.627 4.627 0 0 0 -0.158 0.113 4.627 4.627 0 0 0 -0.346 0.305 4.627 4.627 0 0 0 -0.316 0.34 4.627 4.627 0 0 0 -0.279 0.367 4.627 4.627 0 0 0 -0.223 0.363 c -0.046 0.278 -0.107 0.577 0.094 0.746 0.529 0.446 1.39 0.293 1.926 -0.342 0.536 -0.635 0.541 -1.511 0.012 -1.957 -0.187 -0.158 -0.456 -0.027 -0.709 0.064 z" mix-blend-mode="normal" isolation="auto" solid-opacity="1" solid-color="#000000" style="visibility:visible;shape-rendering:auto;color-interpolation-filters:linearRGB;fill:#5d502d;opacity:1;image-rendering:auto;fill-opacity:1;stroke:none;display:inline;color:#000;fill-rule:evenodd;color-rendering:auto;color-interpolation:sRGB"/>
   <ellipse cx="66.01" cy="-32.867" rx="0.367" ry="0.484" transform="matrix(0.7397866,0.67284158,-0.67284158,0.7397866,0,0)" style="visibility:visible;shape-rendering:auto;color-interpolation-filters:linearRGB;fill:#333;opacity:1;image-rendering:auto;fill-opacity:1;stroke:none;display:inline;color:#000;fill-rule:evenodd;color-rendering:auto;color-interpolation:sRGB"/>
  </g>
  <path d="m 24.557 10.11 c -2.545 -0.133 -3.363 3.222 -4.304 6.464 -0.907 3.128 -1.683 4.01 -1.983 6.145 -0.191 1.356 0.185 2.849 0.134 4.105 -0.055 1.338 -0.8 2.6 -0.986 3.809 -0.239 1.553 -0.481 3.727 -0.75 5.799 2.156 1.07 4.584 1.673 7.154 1.673 2.712 0 5.266 -0.672 7.509 -1.855 -0.353 -1.259 -0.697 -2.439 -0.994 -3.34 -1.214 -3.681 -1.94 -11.298 -1.94 -11.298 0 0 0.015 -0.882 -0.031 -1.953 -0.141 -3.206 -0.495 -9.378 -3.809 -9.551 z" style="fill:#b53060;fill-opacity:1;stroke:none;fill-rule:evenodd"/>
  <path d="m 26.291 10.855 c 0.129 0.698 0.398 2.277 0.502 4.762 0.153 3.639 -0.016 8.412 0.301 11.408 0.352 3.332 1.418 9.02 1.643 10.209 0.902 -0.289 1.77 -0.654 2.596 -1.09 -0.353 -1.259 -0.697 -2.439 -0.994 -3.34 -1.214 -3.681 -1.941 -11.297 -1.941 -11.297 0 0 0.016 -0.883 -0.031 -1.953 -0.111 -2.523 -0.36 -6.872 -2.074 -8.699 z" style="fill:#953061;fill-opacity:1;stroke:none;fill-rule:evenodd"/>
  <g transform="matrix(0.59175505,0,0,0.59175505,-24.197456,1.7997378)">
   <g>
    <path d="m 93.66 24.737 a 5.441 5.212 0 0 1 -5.441 5.212 5.441 5.212 0 0 1 -5.441 -5.212 5.441 5.212 0 0 1 5.441 -5.212 5.441 5.212 0 0 1 5.441 5.212 z" mix-blend-mode="normal" isolation="auto" solid-opacity="1" solid-color="#000000" style="visibility:visible;shape-rendering:auto;color-interpolation-filters:linearRGB;fill:#eee;opacity:1;image-rendering:auto;fill-opacity:1;stroke:none;display:inline;color:#000;fill-rule:evenodd;color-rendering:auto;color-interpolation:sRGB"/>
    <path d="m 84.61 28.625 a 5.441 5.212 0 0 0 3.615 1.324 5.441 5.212 0 0 0 5.44 -5.212 5.441 5.212 0 0 0 -2.919 -4.615 5.441 5.212 0 0 1 0.282 0.255 5.441 5.212 0 0 1 0.358 0.392 5.441 5.212 0 0 1 0.317 0.422 5.441 5.212 0 0 1 0.271 0.453 5.441 5.212 0 0 1 0.223 0.475 5.441 5.212 0 0 1 0.17 0.495 5.441 5.212 0 0 1 0.119 0.508 5.441 5.212 0 0 1 0.067 0.517 5.441 5.212 0 0 1 0.014 0.37 5.441 5.212 0 0 1 -0.028 0.519 5.441 5.212 0 0 1 -0.08 0.515 5.441 5.212 0 0 1 -0.135 0.506 5.441 5.212 0 0 1 -0.186 0.488 5.441 5.212 0 0 1 -0.237 0.469 5.441 5.212 0 0 1 -0.285 0.444 5.441 5.212 0 0 1 -0.328 0.416 5.441 5.212 0 0 1 -0.372 0.381 5.441 5.212 0 0 1 -0.409 0.343 5.441 5.212 0 0 1 -0.441 0.304 5.441 5.212 0 0 1 -0.473 0.26 5.441 5.212 0 0 1 -0.496 0.213 5.441 5.212 0 0 1 -0.517 0.163 5.441 5.212 0 0 1 -0.53 0.114 5.441 5.212 0 0 1 -0.54 0.064 5.441 5.212 0 0 1 -0.384 0.013 5.441 5.212 0 0 1 -0.544 -0.026 5.441 5.212 0 0 1 -0.537 -0.077 5.441 5.212 0 0 1 -0.528 -0.13 5.441 5.212 0 0 1 -0.51 -0.178 5.441 5.212 0 0 1 -0.397 -0.185 z" mix-blend-mode="normal" isolation="auto" solid-opacity="1" solid-color="#000000" style="visibility:visible;shape-rendering:auto;color-interpolation-filters:linearRGB;fill:#ddd;opacity:1;image-rendering:auto;fill-opacity:1;stroke:none;display:inline;color:#000;fill-rule:evenodd;color-rendering:auto;color-interpolation:sRGB"/>
   </g>
   <ellipse cx="60.29" cy="65.943" rx="1.238" ry="1.418" transform="matrix(0.86029072,-0.50980376,0.50980376,0.86029072,0,0)" style="visibility:visible;shape-rendering:auto;color-interpolation-filters:linearRGB;fill:#5d502d;opacity:1;image-rendering:auto;fill-opacity:1;stroke:none;display:inline;color:#000;fill-rule:evenodd;color-rendering:auto;color-interpolation:sRGB"/>
   <ellipse cx="39.41" cy="80.1" rx="0.508" ry="0.585" transform="matrix(0.68336057,-0.73008105,0.73008105,0.68336057,0,0)" style="visibility:visible;shape-rendering:auto;color-interpolation-filters:linearRGB;fill:#333;opacity:1;image-rendering:auto;fill-opacity:1;stroke:none;display:inline;color:#000;fill-rule:evenodd;color-rendering:auto;color-interpolation:sRGB"/>
  </g>
  <path d="m 19.996 22.661 c -0.509 -0.026 -1.081 0.002 -1.726 0.092 -0.057 0.427 -0.012 0.872 0.009 1.314 0.019 -0.005 0.024 -0.022 0.044 -0.027 0.437 -0.107 0.959 -0.118 1.496 -0.014 0.536 0.104 1.088 0.322 1.585 0.676 0.497 0.354 0.938 0.843 1.256 1.486 0.858 1.736 1.504 2.702 2.121 3.7 -0.078 -0.829 -0.084 -1.601 -0.17 -1.941 -0.579 -2.292 -1.051 -5.106 -4.615 -5.288 z" style="fill:#352322;fill-opacity:1;stroke:none;fill-rule:evenodd"/>
  <path d="m 25.717 31.523 c 0 0 -1.82 -2.831 -3.057 -5.333 -1.272 -2.573 -4.528 -2.673 -5.326 -1.56 -0.388 0.541 -0.187 1.714 -0.198 3.107 -0.009 1.134 0.107 2.3 0.075 3.556 -0.193 7.376 2.655 4.507 2.655 4.507 l 5.298 -0.106 1.191 -1.787 z" style="fill:#b53060;fill-opacity:1;stroke:none;fill-rule:evenodd"/>
 </g>
</svg>
