<?xml version="1.0" encoding="UTF-8" standalone="no"?>
<svg
   xmlns:dc="http://purl.org/dc/elements/1.1/"
   xmlns:cc="http://creativecommons.org/ns#"
   xmlns:rdf="http://www.w3.org/1999/02/22-rdf-syntax-ns#"
   xmlns:svg="http://www.w3.org/2000/svg"
   xmlns="http://www.w3.org/2000/svg"
   xmlns:xlink="http://www.w3.org/1999/xlink"
   xmlns:sodipodi="http://sodipodi.sourceforge.net/DTD/sodipodi-0.dtd"
   xmlns:inkscape="http://www.inkscape.org/namespaces/inkscape"
   viewBox="0 0 48 48"
   id="svg2"
   version="1.1"
   inkscape:version="0.91 r13725"
   sodipodi:docname="steam_icon_332970.svg"
   inkscape:export-filename="/home/ismael/Imágenes/icon.png"
   inkscape:export-xdpi="245.12"
   inkscape:export-ydpi="245.12">
  <metadata
     id="metadata81">
    <rdf:RDF>
      <cc:Work
         rdf:about="">
        <dc:format>image/svg+xml</dc:format>
        <dc:type
           rdf:resource="http://purl.org/dc/dcmitype/StillImage" />
      </cc:Work>
    </rdf:RDF>
  </metadata>
  <sodipodi:namedview
     pagecolor="#ffffff"
     bordercolor="#666666"
     borderopacity="1"
     objecttolerance="10"
     gridtolerance="10"
     guidetolerance="10"
     inkscape:pageopacity="0"
     inkscape:pageshadow="2"
     inkscape:window-width="1920"
     inkscape:window-height="1016"
     id="namedview79"
     showgrid="true"
     inkscape:snap-object-midpoints="true"
     inkscape:snap-text-baseline="true"
     inkscape:object-nodes="true"
     inkscape:snap-intersection-paths="true"
     inkscape:object-paths="true"
     inkscape:snap-midpoints="true"
     inkscape:snap-smooth-nodes="true"
     inkscape:zoom="15"
     inkscape:cx="12.533333"
     inkscape:cy="21.666667"
     inkscape:window-x="0"
     inkscape:window-y="27"
     inkscape:window-maximized="1"
     inkscape:current-layer="svg2">
    <inkscape:grid
       type="xygrid"
       id="grid4209" />
  </sodipodi:namedview>
  <defs
     id="defs4">
    <linearGradient
       inkscape:collect="always"
       id="linearGradient4520">
      <stop
         style="stop-color:#ffcc00;stop-opacity:1;"
         offset="0"
         id="stop4522" />
      <stop
         style="stop-color:#ffd015;stop-opacity:1"
         offset="1"
         id="stop4524" />
    </linearGradient>
    <linearGradient
       id="linearGradient3764"
       x1="1"
       x2="47"
       gradientUnits="userSpaceOnUse"
       gradientTransform="matrix(0,-1,1,0,-1.5e-6,47.999998)">
      <stop
         stop-color="#3d3d3d"
         stop-opacity="1"
         id="stop7" />
      <stop
         offset="1"
         stop-color="#474747"
         stop-opacity="1"
         id="stop9" />
    </linearGradient>
    <clipPath
       id="clipPath-721939199">
      <g
         transform="translate(0,-1004.3622)"
         id="g12">
        <path
           d="m -24 13 c 0 1.105 -0.672 2 -1.5 2 -0.828 0 -1.5 -0.895 -1.5 -2 0 -1.105 0.672 -2 1.5 -2 0.828 0 1.5 0.895 1.5 2 z"
           transform="matrix(15.333333,0,0,11.5,414.99999,878.8622)"
           fill="#1890d0"
           id="path14" />
      </g>
    </clipPath>
    <clipPath
       id="clipPath-728174563">
      <g
         transform="translate(0,-1004.3622)"
         id="g17">
        <path
           d="m -24 13 c 0 1.105 -0.672 2 -1.5 2 -0.828 0 -1.5 -0.895 -1.5 -2 0 -1.105 0.672 -2 1.5 -2 0.828 0 1.5 0.895 1.5 2 z"
           transform="matrix(15.333333,0,0,11.5,414.99999,878.8622)"
           fill="#1890d0"
           id="path19" />
      </g>
    </clipPath>
    <linearGradient
       inkscape:collect="always"
       xlink:href="#linearGradient4520"
       id="linearGradient4526"
       x1="24"
       y1="47"
       x2="24"
       y2="1"
       gradientUnits="userSpaceOnUse" />
  </defs>
  <g
     id="g21">
    <path
       d="m 36.31 5 c 5.859 4.062 9.688 10.831 9.688 18.5 c 0 12.426 -10.07 22.5 -22.5 22.5 c -7.669 0 -14.438 -3.828 -18.5 -9.688 c 1.037 1.822 2.306 3.499 3.781 4.969 c 4.085 3.712 9.514 5.969 15.469 5.969 c 12.703 0 23 -10.298 23 -23 c 0 -5.954 -2.256 -11.384 -5.969 -15.469 c -1.469 -1.475 -3.147 -2.744 -4.969 -3.781 z m 4.969 3.781 c 3.854 4.113 6.219 9.637 6.219 15.719 c 0 12.703 -10.297 23 -23 23 c -6.081 0 -11.606 -2.364 -15.719 -6.219 c 4.16 4.144 9.883 6.719 16.219 6.719 c 12.703 0 23 -10.298 23 -23 c 0 -6.335 -2.575 -12.06 -6.719 -16.219 z"
       opacity="0.05"
       id="path23" />
    <path
       d="m 41.28 8.781 c 3.712 4.085 5.969 9.514 5.969 15.469 c 0 12.703 -10.297 23 -23 23 c -5.954 0 -11.384 -2.256 -15.469 -5.969 c 4.113 3.854 9.637 6.219 15.719 6.219 c 12.703 0 23 -10.298 23 -23 c 0 -6.081 -2.364 -11.606 -6.219 -15.719 z"
       opacity="0.1"
       id="path25" />
    <path
       d="m 31.25 2.375 c 8.615 3.154 14.75 11.417 14.75 21.13 c 0 12.426 -10.07 22.5 -22.5 22.5 c -9.708 0 -17.971 -6.135 -21.12 -14.75 a 23 23 0 0 0 44.875 -7 a 23 23 0 0 0 -16 -21.875 z"
       opacity="0.2"
       id="path27" />
  </g>
  <g
     id="g29"
     style="fill:#ffcc00">
    <path
       d="m 24 1 c 12.703 0 23 10.297 23 23 c 0 12.703 -10.297 23 -23 23 -12.703 0 -23 -10.297 -23 -23 0 -12.703 10.297 -23 23 -23 z"
       fill="url(#linearGradient3764)"
       fill-opacity="1"
       id="path31"
       style="fill:url(#linearGradient4526)" />
  </g>
  <g
     id="g33" />
  <g
     id="g75">
    <path
       d="m 40.03 7.531 c 3.712 4.084 5.969 9.514 5.969 15.469 0 12.703 -10.297 23 -23 23 c -5.954 0 -11.384 -2.256 -15.469 -5.969 4.178 4.291 10.01 6.969 16.469 6.969 c 12.703 0 23 -10.298 23 -23 0 -6.462 -2.677 -12.291 -6.969 -16.469 z"
       opacity="0.1"
       id="path77" />
  </g>
  <g
     id="g4502"
     transform="translate(1.0033781,1)"
     style="fill:#000000;opacity:0.1">
    <path
       style="fill:#000000;fill-rule:evenodd;stroke:none;stroke-width:0.79951328px;stroke-linecap:butt;stroke-linejoin:miter;stroke-opacity:1"
       d="m 15.002666,31 c 0,0 -1.882062,-5.929082 -2,-9 -0.09045,-2.355286 1,-7 1,-7 0,0 2.783759,-4.19761 5,-5 3.46188,-1.2533733 7.740003,-0.7111324 11,1 2.305166,1.209953 5,6 5,6 l 0,7 -5,13 -8,0 z"
       id="path4504"
       inkscape:connector-curvature="0"
       sodipodi:nodetypes="cacaaccccc" />
    <path
       style="fill:#000000;fill-opacity:1;fill-rule:evenodd;stroke:none;stroke-width:1px;stroke-linecap:butt;stroke-linejoin:miter;stroke-opacity:1"
       d="M 21.002666,21 22,23 29.072632,24.157227 29,22 Z"
       id="path4506"
       inkscape:connector-curvature="0"
       sodipodi:nodetypes="ccccc" />
    <path
       sodipodi:nodetypes="cccccc"
       style="fill:#000000;fill-rule:evenodd;stroke:none;stroke-width:1px;stroke-linecap:butt;stroke-linejoin:miter;stroke-opacity:1"
       d="m 15.002666,31 3,-7 0,0 9,6 -5,7 z"
       id="path4508"
       inkscape:connector-curvature="0" />
    <path
       style="fill:#000000;fill-rule:evenodd;stroke:none;stroke-width:1px;stroke-linecap:butt;stroke-linejoin:miter;stroke-opacity:1"
       d="M 21.002666,21 29,22 l 3.002666,0 3,-1 0,-2 -3,1 L 29,20 l -7.997334,-1 -7,-4 c -0.970326,5.822021 -0.0027,0 -1,6 l 4,0 1,3 z"
       id="path4510"
       inkscape:connector-curvature="0"
       sodipodi:nodetypes="ccccccccccccc" />
    <path
       style="fill:#000000;fill-rule:evenodd;stroke:none;stroke-width:1px;stroke-linecap:butt;stroke-linejoin:miter;stroke-opacity:1"
       d="m 22.002666,37 0,-4 6,-7 4,0 1,3 -3,8 z"
       id="path4512"
       inkscape:connector-curvature="0"
       sodipodi:nodetypes="ccccccc" />
    <path
       style="opacity:0.3;fill:#000000;fill-rule:evenodd;stroke:none;stroke-width:1px;stroke-linecap:butt;stroke-linejoin:miter;stroke-opacity:1"
       d="M 23.144531,9.3144531 C 23.04754,9.3143208 28.760036,13.058791 30,16 c 2.719306,6.450223 0,21 0,21 l 5.001953,-13 0,-7 c 0,0 -2.694834,-4.790047 -5,-6 C 27.964455,9.9305423 25.529596,9.3177059 23.144531,9.3144531 Z"
       id="path4514"
       inkscape:connector-curvature="0"
       sodipodi:nodetypes="sscccss" />
    <path
       sodipodi:nodetypes="ccccc"
       inkscape:connector-curvature="0"
       id="path4516"
       d="M 35.002666,21 35,23 l -3,1 0.0027,-2 z"
       style="fill:#000000;fill-opacity:1;fill-rule:evenodd;stroke:none;stroke-width:1px;stroke-linecap:butt;stroke-linejoin:miter;stroke-opacity:1" />
    <path
       style="opacity:0.2;fill:#000000;fill-rule:evenodd;stroke:none;stroke-width:1px;stroke-linecap:butt;stroke-linejoin:miter;stroke-opacity:1"
       d="M 23.144531,9.3144531 C 21.713492,9.3125014 20.300158,9.529985 19.001953,10 c -2.216241,0.80239 -5,5 -5,5 0,0 -1.09045,4.644714 -1,7 0.117938,3.070918 2,9 2,9 l 3.818359,3.271484 c 0,0 -0.979028,-13.856361 1.179688,-20.271484 0.5999,-1.782741 3.144531,-4.6855469 3.144531,-4.6855469 z"
       id="path4518"
       inkscape:connector-curvature="0"
       sodipodi:nodetypes="cscsccac" />
  </g>
  <path
     style="fill:#93aca7;fill-rule:evenodd;stroke:none;stroke-width:0.79951328px;stroke-linecap:butt;stroke-linejoin:miter;stroke-opacity:1"
     d="m 15.006044,31 c 0,0 -1.882062,-5.929082 -2,-9 -0.09045,-2.355286 1,-7 1,-7 0,0 2.783759,-4.19761 5,-5 3.46188,-1.2533733 7.740003,-0.7111324 11,1 2.305166,1.209953 5,6 5,6 l 0,7 -5,13 -8,0 z"
     id="path4403"
     inkscape:connector-curvature="0"
     sodipodi:nodetypes="cacaaccccc" />
  <path
     style="fill:#23e1ff;fill-opacity:1;fill-rule:evenodd;stroke:none;stroke-width:1px;stroke-linecap:butt;stroke-linejoin:miter;stroke-opacity:1"
     d="m 21.006044,21 0.997334,2 7.072632,1.157227 L 29.003378,22 Z"
     id="path4405"
     inkscape:connector-curvature="0"
     sodipodi:nodetypes="ccccc" />
  <path
     style="opacity:0.2;fill:#f9f9f9;fill-rule:evenodd;stroke:none;stroke-width:1px;stroke-linecap:butt;stroke-linejoin:miter;stroke-opacity:1"
     d="M 23.147909,9.3144531 C 21.71687,9.3125014 20.303536,9.529985 19.005331,10 c -2.216241,0.80239 -5,5 -5,5 0,0 -1.09045,4.644714 -1,7 0.117938,3.070918 2,9 2,9 l 3.818359,3.271484 c 0,0 -0.979028,-13.856361 1.179688,-20.271484 0.5999,-1.782741 3.144531,-4.6855469 3.144531,-4.6855469 z"
     id="path4466"
     inkscape:connector-curvature="0"
     sodipodi:nodetypes="cscsccac" />
  <path
     sodipodi:nodetypes="cccccc"
     style="fill:#6f918a;fill-rule:evenodd;stroke:none;stroke-width:1px;stroke-linecap:butt;stroke-linejoin:miter;stroke-opacity:1"
     d="m 15.006044,31 3,-7 0,0 9,6 -5,7 z"
     id="path4415"
     inkscape:connector-curvature="0" />
  <path
     style="fill:#536c67;fill-rule:evenodd;stroke:none;stroke-width:1px;stroke-linecap:butt;stroke-linejoin:miter;stroke-opacity:1"
     d="m 21.006044,21 7.997334,1 3.002666,0 3,-1 0,-2 -3,1 -3.002666,0 -7.997334,-1 -7,-4 c -0.970326,5.822021 -0.0027,0 -1,6 l 4,0 1,3 z"
     id="path4417"
     inkscape:connector-curvature="0"
     sodipodi:nodetypes="ccccccccccccc" />
  <path
     style="fill:#536c67;fill-rule:evenodd;stroke:none;stroke-width:1px;stroke-linecap:butt;stroke-linejoin:miter;stroke-opacity:1"
     d="m 22.006044,37 0,-4 6,-7 4,0 1,3 -3,8 z"
     id="path4411"
     inkscape:connector-curvature="0"
     sodipodi:nodetypes="ccccccc" />
  <path
     style="opacity:0.3;fill:#000000;fill-rule:evenodd;stroke:none;stroke-width:1px;stroke-linecap:butt;stroke-linejoin:miter;stroke-opacity:1"
     d="M 23.147909,9.3144531 C 23.050918,9.3143208 28.763414,13.058791 30.003378,16 c 2.719306,6.450223 0,21 0,21 l 5.001953,-13 0,-7 c 0,0 -2.694834,-4.790047 -5,-6 C 27.967833,9.9305423 25.532974,9.3177059 23.147909,9.3144531 Z"
     id="path4451"
     inkscape:connector-curvature="0"
     sodipodi:nodetypes="sscccss"
     inkscape:export-filename="/home/ismael/Imágenes/icon.png"
     inkscape:export-xdpi="245"
     inkscape:export-ydpi="245" />
  <path
     sodipodi:nodetypes="ccccc"
     inkscape:connector-curvature="0"
     id="path4409"
     d="m 35.006044,21 -0.0027,2 -3,1 0.0027,-2 z"
     style="fill:#23e1ff;fill-opacity:1;fill-rule:evenodd;stroke:none;stroke-width:1px;stroke-linecap:butt;stroke-linejoin:miter;stroke-opacity:1" />
</svg>
