<?xml version="1.0" encoding="UTF-8" standalone="no"?>
<svg
   xmlns:dc="http://purl.org/dc/elements/1.1/"
   xmlns:cc="http://creativecommons.org/ns#"
   xmlns:rdf="http://www.w3.org/1999/02/22-rdf-syntax-ns#"
   xmlns:svg="http://www.w3.org/2000/svg"
   xmlns="http://www.w3.org/2000/svg"
   xmlns:xlink="http://www.w3.org/1999/xlink"
   xmlns:sodipodi="http://sodipodi.sourceforge.net/DTD/sodipodi-0.dtd"
   xmlns:inkscape="http://www.inkscape.org/namespaces/inkscape"
   viewBox="0 0 48 48"
   id="svg2"
   version="1.1"
   inkscape:version="0.48.4 r9939"
   width="100%"
   height="100%"
   sodipodi:docname="steam_icon_236090.svg">
  <metadata
     id="metadata67">
    <rdf:RDF>
      <cc:Work
         rdf:about="">
        <dc:format>image/svg+xml</dc:format>
        <dc:type
           rdf:resource="http://purl.org/dc/dcmitype/StillImage" />
      </cc:Work>
    </rdf:RDF>
  </metadata>
  <sodipodi:namedview
     pagecolor="#ffffff"
     bordercolor="#666666"
     borderopacity="1"
     objecttolerance="10"
     gridtolerance="10"
     guidetolerance="10"
     inkscape:pageopacity="0"
     inkscape:pageshadow="2"
     inkscape:window-width="640"
     inkscape:window-height="480"
     id="namedview65"
     showgrid="false"
     inkscape:zoom="3.4766083"
     inkscape:cx="37.865155"
     inkscape:cy="9.0718028"
     inkscape:window-x="541"
     inkscape:window-y="310"
     inkscape:window-maximized="0"
     inkscape:current-layer="svg2" />
  <defs
     id="defs4">
    <linearGradient
       id="1"
       gradientUnits="userSpaceOnUse"
       y1="15"
       x2="0"
       y2="11"
       gradientTransform="matrix(15.333333,0,0,11.5,414.99999,-125.5)">
      <stop
         id="stop7" />
      <stop
         offset="1"
         stop-opacity="0"
         id="stop9" />
    </linearGradient>
    <clipPath
       id="clipPath-100270927">
      <g
         transform="translate(0,-1004.3622)"
         id="g12">
        <path
           d="m -24 13 c 0 1.105 -0.672 2 -1.5 2 -0.828 0 -1.5 -0.895 -1.5 -2 0 -1.105 0.672 -2 1.5 -2 0.828 0 1.5 0.895 1.5 2 z"
           transform="matrix(15.333333,0,0,11.5,414.99999,878.8622)"
           fill="#1890d0"
           id="path14" />
      </g>
    </clipPath>
    <clipPath
       id="clipPath-112857970">
      <g
         transform="translate(0,-1004.3622)"
         id="g17">
        <path
           d="m -24 13 c 0 1.105 -0.672 2 -1.5 2 -0.828 0 -1.5 -0.895 -1.5 -2 0 -1.105 0.672 -2 1.5 -2 0.828 0 1.5 0.895 1.5 2 z"
           transform="matrix(15.333333,0,0,11.5,414.99999,878.8622)"
           fill="#1890d0"
           id="path19" />
      </g>
    </clipPath>
    <linearGradient
       xlink:href="#0"
       id="1-6"
       gradientUnits="userSpaceOnUse"
       gradientTransform="matrix(1.10528,0,0,1.10528,-134.28266,-295.77009)"
       y1="279.10001"
       x2="0"
       y2="268.32999" />
    <linearGradient
       id="0">
      <stop
         stop-color="#638eb2"
         id="stop7-2" />
      <stop
         offset="1"
         stop-color="#9cccd7"
         id="stop9-0" />
    </linearGradient>
    <linearGradient
       y2="268.32999"
       x2="0"
       y1="279.10001"
       gradientTransform="matrix(3.9163464,0,0,3.9163464,-524.41545,-1064.0726)"
       gradientUnits="userSpaceOnUse"
       id="linearGradient3012"
       xlink:href="#0"
       inkscape:collect="always" />
  </defs>
  <g
     id="g21">
    <g
       transform="translate(0,-1004.3622)"
       id="g23">
      <path
         d="m 25 1006.36 c -12.703 0 -23 10.298 -23 23 0 6.367 2.601 12.12 6.781 16.281 4.085 3.712 9.514 5.969 15.469 5.969 12.703 0 23 -10.297 23 -23 0 -5.954 -2.256 -11.384 -5.969 -15.469 -4.165 -4.181 -9.914 -6.781 -16.281 -6.781 z m 16.281 6.781 c 3.854 4.113 6.219 9.637 6.219 15.719 0 12.703 -10.297 23 -23 23 -6.081 0 -11.606 -2.364 -15.719 -6.219 4.16 4.144 9.883 6.719 16.219 6.719 12.703 0 23 -10.297 23 -23 0 -6.335 -2.575 -12.06 -6.719 -16.219 z"
         opacity="0.05"
         id="path25" />
      <path
         d="m 41.28 1013.14 c 3.712 4.085 5.969 9.514 5.969 15.469 0 12.703 -10.297 23 -23 23 -5.954 0 -11.384 -2.256 -15.469 -5.969 4.113 3.854 9.637 6.219 15.719 6.219 12.703 0 23 -10.297 23 -23 0 -6.081 -2.364 -11.606 -6.219 -15.719 z"
         opacity="0.1"
         id="path27" />
      <path
         transform="matrix(15.333333,0,0,11.5,415.24999,879.11222)"
         d="m -24 13 a 1.5 2 0 1 1 -3 0 1.5 2 0 1 1 3 0 z"
         opacity="0.2"
         id="path29" />
    </g>
  </g>
  <g
     id="g31"
     style="fill:#8dbbcd;fill-opacity:1">
    <g
       transform="translate(0,-1004.3622)"
       id="g33"
       style="fill:#8dbbcd;fill-opacity:1">
      <path
         d="m -24 13 c 0 1.105 -0.672 2 -1.5 2 -0.828 0 -1.5 -0.895 -1.5 -2 0 -1.105 0.672 -2 1.5 -2 0.828 0 1.5 0.895 1.5 2 z"
         transform="matrix(15.333333,0,0,11.5,414.99999,878.8622)"
         fill="#1890d0"
         id="path35"
         style="fill:#8dbbcd;fill-opacity:1" />
    </g>
  </g>
  <g
     id="g41">
    <g
       clip-path="url(#clipPath-100270927)"
       id="g43">
      <g
         transform="translate(0,1)"
         id="g45">
        <g
           opacity="0.1"
           id="g47">
          <g
             id="g49">
            <path
               d="m 21.08 12.176 c -1.875 0.215 -4.707 0.379 -6.43 0.379 c -1.512 0 -1.598 0.039 -1.523 0.781 c 0.051 0.598 0.207 0.727 0.855 0.727 c 0.547 0 0.98 0.18 1.133 0.492 c 0.219 0.426 0.348 1.918 0.457 5.18 c 0.172 5.395 0.008 13.09 -0.293 14.07 c -0.125 0.395 -0.613 0.633 -1.492 0.727 c -0.355 0.039 -0.668 0.113 -0.703 0.168 c -0.137 0.199 -0.082 1.066 0.074 1.191 c 0.109 0.102 0.875 0.125 3.578 0.102 c 1.891 -0.016 4.719 -0.039 6.27 -0.047 c 2.949 -0.016 3.285 -0.055 5.04 -0.527 c 3.488 -0.918 6.48 -3.359 7.91 -6.469 c 0.719 -1.547 1.051 -3.137 1.051 -5.01 c 0 -3.703 -1.461 -6.754 -4.289 -8.965 c -2.035 -1.598 -4.699 -2.605 -7.555 -2.891 c -1.32 -0.129 -2.242 -0.102 -4.078 0.098 m 5.742 0.551 c 3.273 0.699 6.395 2.656 7.789 4.875 c 0.129 0.211 0.273 0.41 0.332 0.445 c 0.043 0.039 0.063 0.082 0.043 0.113 c -0.027 0.016 -0.145 -0.039 -0.266 -0.145 c -0.117 -0.094 -0.172 -0.18 -0.137 -0.18 c 0.047 0 -0.109 -0.102 -0.348 -0.227 c -0.238 -0.125 -0.504 -0.293 -0.586 -0.379 c -0.074 -0.086 -0.289 -0.273 -0.473 -0.414 c -0.191 -0.141 -0.504 -0.414 -0.703 -0.605 c -0.199 -0.199 -0.41 -0.359 -0.473 -0.359 c -0.055 0 -0.117 -0.039 -0.141 -0.086 c -0.098 -0.266 -2.789 -1.879 -3.742 -2.227 c -2.02 -0.754 -2.871 -0.926 -4.77 -0.926 c -2.129 0 -3.742 0.293 -5.109 0.926 c -0.477 0.215 -0.641 0.242 -1.234 0.215 c -0.457 -0.027 -0.813 -0.102 -1.066 -0.238 c -0.219 -0.113 -0.594 -0.254 -0.848 -0.32 c -0.656 -0.172 -0.398 -0.273 0.742 -0.273 c 1.285 0 3.887 -0.168 5.191 -0.328 c 1.539 -0.188 4.598 -0.125 5.793 0.129 m -1.301 1.184 c 3.695 0.891 6.539 3.703 7.473 7.379 c 0.191 0.746 0.219 1.066 0.219 2.645 c 0 1.977 -0.109 2.723 -0.613 4.207 c -0.512 1.504 -1.031 2.398 -1.934 3.391 c -1.176 1.277 -2.48 2.082 -4.125 2.535 c -0.84 0.238 -1.043 0.242 -2.91 0.254 c -2.137 0.012 -2.316 -0.016 -4.25 -0.668 l -0.418 -0.133 l -0.066 -0.578 c -0.145 -1.512 0.012 -17.402 0.184 -18.242 c 0.063 -0.313 0.309 -0.438 1.457 -0.727 c 1.414 -0.371 3.586 -0.398 4.984 -0.059 m 4.453 19.04 c 0 0.215 -1.844 1.207 -2.781 1.504 c -1.641 0.508 -4.223 0.621 -6.633 0.293 c -1.258 -0.18 -1.789 -0.328 -2.098 -0.625 c -0.285 -0.266 -0.012 -0.313 0.648 -0.113 c 2.453 0.75 2.602 0.777 4.391 0.785 c 2.27 0.008 3.438 -0.227 5.02 -1.023 c 0.75 -0.379 0.875 -0.453 1.133 -0.688 c 0.074 -0.07 0.145 -0.086 0.18 -0.059 c 0.027 0.039 0.051 0.012 0.051 -0.047 c 0 -0.066 0.02 -0.113 0.047 -0.113 c 0.027 0 0.047 0.039 0.047 0.086 m 0 0"
               fill="#000"
               stroke="none"
               fill-rule="nonzero"
               fill-opacity="1"
               id="path51" />
          </g>
        </g>
      </g>
    </g>
  </g>
  <g
     id="g53">
    <g
       clip-path="url(#clipPath-112857970)"
       id="g55">
      <g
         id="g57">
        <path
           d="m 21.08 12.176 c -1.875 0.215 -4.707 0.379 -6.43 0.379 c -1.512 0 -1.598 0.039 -1.523 0.781 c 0.051 0.598 0.207 0.727 0.855 0.727 c 0.547 0 0.98 0.18 1.133 0.492 c 0.219 0.426 0.348 1.918 0.457 5.18 c 0.172 5.395 0.008 13.09 -0.293 14.07 c -0.125 0.395 -0.613 0.633 -1.492 0.727 c -0.355 0.039 -0.668 0.113 -0.703 0.168 c -0.137 0.199 -0.082 1.066 0.074 1.191 c 0.109 0.102 0.875 0.125 3.578 0.102 c 1.891 -0.016 4.719 -0.039 6.27 -0.047 c 2.949 -0.016 3.285 -0.055 5.04 -0.527 c 3.488 -0.918 6.48 -3.359 7.91 -6.469 c 0.719 -1.547 1.051 -3.137 1.051 -5.01 c 0 -3.703 -1.461 -6.754 -4.289 -8.965 c -2.035 -1.598 -4.699 -2.605 -7.555 -2.891 c -1.32 -0.129 -2.242 -0.102 -4.078 0.098 m 5.742 0.551 c 3.273 0.699 6.395 2.656 7.789 4.875 c 0.129 0.211 0.273 0.41 0.332 0.445 c 0.043 0.039 0.063 0.082 0.043 0.113 c -0.027 0.016 -0.145 -0.039 -0.266 -0.145 c -0.117 -0.094 -0.172 -0.18 -0.137 -0.18 c 0.047 0 -0.109 -0.102 -0.348 -0.227 c -0.238 -0.125 -0.504 -0.293 -0.586 -0.379 c -0.074 -0.086 -0.289 -0.273 -0.473 -0.414 c -0.191 -0.141 -0.504 -0.414 -0.703 -0.605 c -0.199 -0.199 -0.41 -0.359 -0.473 -0.359 c -0.055 0 -0.117 -0.039 -0.141 -0.086 c -0.098 -0.266 -2.789 -1.879 -3.742 -2.227 c -2.02 -0.754 -2.871 -0.926 -4.77 -0.926 c -2.129 0 -3.742 0.293 -5.109 0.926 c -0.477 0.215 -0.641 0.242 -1.234 0.215 c -0.457 -0.027 -0.813 -0.102 -1.066 -0.238 c -0.219 -0.113 -0.594 -0.254 -0.848 -0.32 c -0.656 -0.172 -0.398 -0.273 0.742 -0.273 c 1.285 0 3.887 -0.168 5.191 -0.328 c 1.539 -0.188 4.598 -0.125 5.793 0.129 m -1.301 1.184 c 3.695 0.891 6.539 3.703 7.473 7.379 c 0.191 0.746 0.219 1.066 0.219 2.645 c 0 1.977 -0.109 2.723 -0.613 4.207 c -0.512 1.504 -1.031 2.398 -1.934 3.391 c -1.176 1.277 -2.48 2.082 -4.125 2.535 c -0.84 0.238 -1.043 0.242 -2.91 0.254 c -2.137 0.012 -2.316 -0.016 -4.25 -0.668 l -0.418 -0.133 l -0.066 -0.578 c -0.145 -1.512 0.012 -17.402 0.184 -18.242 c 0.063 -0.313 0.309 -0.438 1.457 -0.727 c 1.414 -0.371 3.586 -0.398 4.984 -0.059 m 4.453 19.04 c 0 0.215 -1.844 1.207 -2.781 1.504 c -1.641 0.508 -4.223 0.621 -6.633 0.293 c -1.258 -0.18 -1.789 -0.328 -2.098 -0.625 c -0.285 -0.266 -0.012 -0.313 0.648 -0.113 c 2.453 0.75 2.602 0.777 4.391 0.785 c 2.27 0.008 3.438 -0.227 5.02 -1.023 c 0.75 -0.379 0.875 -0.453 1.133 -0.688 c 0.074 -0.07 0.145 -0.086 0.18 -0.059 c 0.027 0.039 0.051 0.012 0.051 -0.047 c 0 -0.066 0.02 -0.113 0.047 -0.113 c 0.027 0 0.047 0.039 0.047 0.086 m 0 0"
           id="path59"
           stroke="none"
           fill-rule="nonzero"
           fill-opacity="1"
           fill="#f9f9f9" />
      </g>
    </g>
  </g>
  <g
     id="g61">
    <path
       d="m 40.03 7.531 c 3.712 4.084 5.969 9.514 5.969 15.469 0 12.703 -10.297 23 -23 23 c -5.954 0 -11.384 -2.256 -15.469 -5.969 4.178 4.291 10.01 6.969 16.469 6.969 c 12.703 0 23 -10.298 23 -23 0 -6.462 -2.677 -12.291 -6.969 -16.469 z"
       opacity="0.1"
       id="path63" />
  </g>
</svg>
