<?xml version="1.0" encoding="UTF-8" standalone="no"?>
<svg
   xmlns:dc="http://purl.org/dc/elements/1.1/"
   xmlns:cc="http://creativecommons.org/ns#"
   xmlns:rdf="http://www.w3.org/1999/02/22-rdf-syntax-ns#"
   xmlns:svg="http://www.w3.org/2000/svg"
   xmlns="http://www.w3.org/2000/svg"
   xmlns:sodipodi="http://sodipodi.sourceforge.net/DTD/sodipodi-0.dtd"
   xmlns:inkscape="http://www.inkscape.org/namespaces/inkscape"
   viewBox="0 0 48 48"
   id="svg2"
   version="1.1"
   inkscape:version="0.48.4 r9939"
   width="100%"
   height="100%"
   sodipodi:docname="steam_icon_233230.svg">
  <metadata
     id="metadata89">
    <rdf:RDF>
      <cc:Work
         rdf:about="">
        <dc:format>image/svg+xml</dc:format>
        <dc:type
           rdf:resource="http://purl.org/dc/dcmitype/StillImage" />
      </cc:Work>
    </rdf:RDF>
  </metadata>
  <sodipodi:namedview
     pagecolor="#ffffff"
     bordercolor="#666666"
     borderopacity="1"
     objecttolerance="10"
     gridtolerance="10"
     guidetolerance="10"
     inkscape:pageopacity="0"
     inkscape:pageshadow="2"
     inkscape:window-width="640"
     inkscape:window-height="480"
     id="namedview87"
     showgrid="false"
     inkscape:zoom="4.9166667"
     inkscape:cx="0.91275912"
     inkscape:cy="27.382273"
     inkscape:window-x="0"
     inkscape:window-y="0"
     inkscape:window-maximized="0"
     inkscape:current-layer="svg2" />
  <defs
     id="defs4">
    <linearGradient
       id="linearGradient3764"
       x1="1"
       x2="47"
       gradientUnits="userSpaceOnUse"
       gradientTransform="matrix(0,-1,1,0,-1.5e-6,47.999998)">
      <stop
         stop-color="#432715"
         stop-opacity="1"
         id="stop7" />
      <stop
         offset="1"
         stop-color="#523019"
         stop-opacity="1"
         id="stop9" />
    </linearGradient>
    <clipPath
       id="clipPath-274282048">
      <g
         transform="translate(0,-1004.3622)"
         id="g12">
        <path
           d="m -24 13 c 0 1.105 -0.672 2 -1.5 2 -0.828 0 -1.5 -0.895 -1.5 -2 0 -1.105 0.672 -2 1.5 -2 0.828 0 1.5 0.895 1.5 2 z"
           transform="matrix(15.333333,0,0,11.5,414.99999,878.8622)"
           fill="#1890d0"
           id="path14" />
      </g>
    </clipPath>
    <clipPath
       id="clipPath-284267679">
      <g
         transform="translate(0,-1004.3622)"
         id="g17">
        <path
           d="m -24 13 c 0 1.105 -0.672 2 -1.5 2 -0.828 0 -1.5 -0.895 -1.5 -2 0 -1.105 0.672 -2 1.5 -2 0.828 0 1.5 0.895 1.5 2 z"
           transform="matrix(15.333333,0,0,11.5,414.99999,878.8622)"
           fill="#1890d0"
           id="path19" />
      </g>
    </clipPath>
    <linearGradient
       id="linear0"
       gradientUnits="userSpaceOnUse"
       x1="26.937"
       y1="13.252"
       x2="27.03"
       y2="42.16">
      <stop
         stop-color="#c0a336"
         stop-opacity="1"
         id="stop22" />
      <stop
         offset="1"
         stop-color="#522f19"
         stop-opacity="1"
         id="stop24" />
    </linearGradient>
    <linearGradient
       id="linear1"
       gradientUnits="userSpaceOnUse"
       x1="29.804"
       y1="14.365"
       x2="29.333"
       y2="42.625">
      <stop
         stop-color="#92772c"
         stop-opacity="0.459"
         id="stop27" />
      <stop
         offset="1"
         stop-color="#361908"
         stop-opacity="0.459"
         id="stop29" />
    </linearGradient>
    <linearGradient
       id="linearGradient31"
       gradientUnits="userSpaceOnUse"
       x1="26.937"
       y1="13.252"
       x2="27.03"
       y2="42.16">
      <stop
         stop-color="#c0a336"
         stop-opacity="1"
         id="stop33" />
      <stop
         offset="1"
         stop-color="#522f19"
         stop-opacity="1"
         id="stop35" />
    </linearGradient>
    <linearGradient
       id="linearGradient37"
       gradientUnits="userSpaceOnUse"
       x1="29.804"
       y1="14.365"
       x2="29.333"
       y2="42.625">
      <stop
         stop-color="#92772c"
         stop-opacity="0.459"
         id="stop39" />
      <stop
         offset="1"
         stop-color="#361908"
         stop-opacity="0.459"
         id="stop41" />
    </linearGradient>
  </defs>
  <g
     id="g43">
    <g
       transform="translate(0,-1004.3622)"
       id="g45">
      <path
         d="m 25 1006.36 c -12.703 0 -23 10.298 -23 23 0 6.367 2.601 12.12 6.781 16.281 4.085 3.712 9.514 5.969 15.469 5.969 12.703 0 23 -10.297 23 -23 0 -5.954 -2.256 -11.384 -5.969 -15.469 -4.165 -4.181 -9.914 -6.781 -16.281 -6.781 z m 16.281 6.781 c 3.854 4.113 6.219 9.637 6.219 15.719 0 12.703 -10.297 23 -23 23 -6.081 0 -11.606 -2.364 -15.719 -6.219 4.16 4.144 9.883 6.719 16.219 6.719 12.703 0 23 -10.297 23 -23 0 -6.335 -2.575 -12.06 -6.719 -16.219 z"
         opacity="0.05"
         id="path47" />
      <path
         d="m 41.28 1013.14 c 3.712 4.085 5.969 9.514 5.969 15.469 0 12.703 -10.297 23 -23 23 -5.954 0 -11.384 -2.256 -15.469 -5.969 4.113 3.854 9.637 6.219 15.719 6.219 12.703 0 23 -10.297 23 -23 0 -6.081 -2.364 -11.606 -6.219 -15.719 z"
         opacity="0.1"
         id="path49" />
      <path
         transform="matrix(15.333333,0,0,11.5,415.24999,879.11222)"
         d="m -24 13 a 1.5 2 0 1 1 -3 0 1.5 2 0 1 1 3 0 z"
         opacity="0.2"
         id="path51" />
    </g>
  </g>
  <g
     id="g53">
    <path
       d="m 24 1 c 12.703 0 23 10.297 23 23 c 0 12.703 -10.297 23 -23 23 -12.703 0 -23 -10.297 -23 -23 0 -12.703 10.297 -23 23 -23 z"
       fill="url(#linearGradient3764)"
       fill-opacity="1"
       id="path55" />
  </g>
  <g
     id="g57" />
  <g
     id="g59">
    <g
       clip-path="url(#clipPath-274282048)"
       id="g61">
      <g
         transform="translate(0,1)"
         id="g63">
        <g
           opacity="0.1"
           id="g65">
          <!-- color: #523019 -->
          <g
             id="g67">
            <path
               d="m 27 13 l -12 6 l 0 23.969 c 2.727 1.289 5.773 2.031 9 2.031 c 3.227 0 6.273 -0.742 9 -2.031 l 0 -26.969 m -6 -3"
               fill="#000"
               stroke="none"
               fill-rule="evenodd"
               id="path69" />
            <path
               d="m 27 13 l 0 31.781 c 2.113 -0.309 4.141 -0.934 6 -1.813 l 0 -26.969 m -6 -3"
               fill="#000"
               stroke="none"
               fill-rule="nonzero"
               id="path71" />
          </g>
        </g>
      </g>
    </g>
  </g>
  <g
     id="g73"
     transform="matrix(1,0,0,1.0561773,0,-0.73024845)">
    <g
       clip-path="url(#clipPath-284267679)"
       id="g75">
      <!-- color: #523019 -->
      <g
         id="g77">
        <path
           d="m 27,13 -12,6 0,23.969 c 2.727,1.289 5.773,2.031 9,2.031 3.227,0 6.273,-0.742 9,-2.031 L 33,16 m -6,-3"
           id="path79"
           style="fill:url(#linear0);fill-rule:evenodd;stroke:none"
           inkscape:connector-curvature="0" />
        <path
           d="m 27,13 0,31.781 c 2.113,-0.309 4.141,-0.934 6,-1.813 l 0,-26.969 m -6,-3"
           id="path81"
           style="fill:url(#linear1);fill-rule:nonzero;stroke:none"
           inkscape:connector-curvature="0" />
      </g>
    </g>
  </g>
  <g
     id="g83">
    <path
       d="m 40.03 7.531 c 3.712 4.084 5.969 9.514 5.969 15.469 0 12.703 -10.297 23 -23 23 c -5.954 0 -11.384 -2.256 -15.469 -5.969 4.178 4.291 10.01 6.969 16.469 6.969 c 12.703 0 23 -10.298 23 -23 0 -6.462 -2.677 -12.291 -6.969 -16.469 z"
       id="path85"
       opacity="0.1" />
  </g>
</svg>
