<?xml version="1.0" encoding="UTF-8" standalone="no"?>
<svg
   xmlns:dc="http://purl.org/dc/elements/1.1/"
   xmlns:cc="http://creativecommons.org/ns#"
   xmlns:rdf="http://www.w3.org/1999/02/22-rdf-syntax-ns#"
   xmlns:svg="http://www.w3.org/2000/svg"
   xmlns="http://www.w3.org/2000/svg"
   xmlns:xlink="http://www.w3.org/1999/xlink"
   xmlns:sodipodi="http://sodipodi.sourceforge.net/DTD/sodipodi-0.dtd"
   xmlns:inkscape="http://www.inkscape.org/namespaces/inkscape"
   viewBox="0 0 48 48"
   id="svg2"
   version="1.1"
   inkscape:version="0.48.5 r10040"
   width="100%"
   height="100%"
   sodipodi:docname="steam_icon_49520.svg"
   inkscape:export-filename="/home/ismael/Imágenes/icons.png"
   inkscape:export-xdpi="245"
   inkscape:export-ydpi="245">
  <metadata
     id="metadata69">
    <rdf:RDF>
      <cc:Work
         rdf:about="">
        <dc:format>image/svg+xml</dc:format>
        <dc:type
           rdf:resource="http://purl.org/dc/dcmitype/StillImage" />
        <dc:title></dc:title>
      </cc:Work>
    </rdf:RDF>
  </metadata>
  <sodipodi:namedview
     pagecolor="#ffffff"
     bordercolor="#666666"
     borderopacity="1"
     objecttolerance="10"
     gridtolerance="10"
     guidetolerance="10"
     inkscape:pageopacity="0"
     inkscape:pageshadow="2"
     inkscape:window-width="1366"
     inkscape:window-height="737"
     id="namedview67"
     showgrid="true"
     inkscape:zoom="12.361114"
     inkscape:cx="25.188759"
     inkscape:cy="22.832455"
     inkscape:window-x="0"
     inkscape:window-y="0"
     inkscape:window-maximized="1"
     inkscape:current-layer="svg2">
    <inkscape:grid
       type="xygrid"
       id="grid3103" />
  </sodipodi:namedview>
  <defs
     id="defs4">
    <linearGradient
       id="linearGradient3027">
      <stop
         style="stop-color:#000000;stop-opacity:1;"
         offset="0"
         id="stop3029" />
      <stop
         style="stop-color:#000000;stop-opacity:0;"
         offset="1"
         id="stop3031" />
    </linearGradient>
    <linearGradient
       id="linearGradient3019">
      <stop
         style="stop-color:#000000;stop-opacity:1;"
         offset="0"
         id="stop3021" />
      <stop
         id="stop3035"
         offset="0.5"
         style="stop-color:#000000;stop-opacity:1;" />
      <stop
         style="stop-color:#000000;stop-opacity:0;"
         offset="1"
         id="stop3023" />
    </linearGradient>
    <linearGradient
       id="linearGradient3764"
       x1="1"
       x2="47"
       gradientUnits="userSpaceOnUse"
       gradientTransform="matrix(0,-1,1,0,-1.5e-6,47.999998)">
      <stop
         stop-color="#e4e4e4"
         stop-opacity="1"
         id="stop7"
         offset="0"
         style="stop-color:#f3e839;stop-opacity:1;" />
      <stop
         offset="1"
         stop-color="#eee"
         stop-opacity="1"
         id="stop9"
         style="stop-color:#f3e839;stop-opacity:1;" />
    </linearGradient>
    <clipPath
       id="clipPath-956187842">
      <g
         transform="translate(0,-1004.3622)"
         id="g12">
        <path
           d="m -24 13 c 0 1.105 -0.672 2 -1.5 2 -0.828 0 -1.5 -0.895 -1.5 -2 0 -1.105 0.672 -2 1.5 -2 0.828 0 1.5 0.895 1.5 2 z"
           transform="matrix(15.333333,0,0,11.5,414.99999,878.8622)"
           fill="#1890d0"
           id="path14" />
      </g>
    </clipPath>
    <clipPath
       id="clipPath-961988899">
      <g
         transform="translate(0,-1004.3622)"
         id="g17">
        <path
           d="m -24 13 c 0 1.105 -0.672 2 -1.5 2 -0.828 0 -1.5 -0.895 -1.5 -2 0 -1.105 0.672 -2 1.5 -2 0.828 0 1.5 0.895 1.5 2 z"
           transform="matrix(15.333333,0,0,11.5,414.99999,878.8622)"
           fill="#1890d0"
           id="path19" />
      </g>
    </clipPath>
    <linearGradient
       inkscape:collect="always"
       xlink:href="#linearGradient3027"
       id="linearGradient3033"
       x1="2.5665579"
       y1="13.858064"
       x2="44.2551"
       y2="32.835114"
       gradientUnits="userSpaceOnUse" />
    <linearGradient
       inkscape:collect="always"
       xlink:href="#linearGradient3027"
       id="linearGradient3051"
       gradientUnits="userSpaceOnUse"
       x1="4.2446704"
       y1="10.725163"
       x2="51.405827"
       y2="41.052238" />
  </defs>
  <g
     id="g21">
    <path
       d="m 36.31 5 c 5.859 4.062 9.688 10.831 9.688 18.5 c 0 12.426 -10.07 22.5 -22.5 22.5 c -7.669 0 -14.438 -3.828 -18.5 -9.688 c 1.037 1.822 2.306 3.499 3.781 4.969 c 4.085 3.712 9.514 5.969 15.469 5.969 c 12.703 0 23 -10.298 23 -23 c 0 -5.954 -2.256 -11.384 -5.969 -15.469 c -1.469 -1.475 -3.147 -2.744 -4.969 -3.781 z m 4.969 3.781 c 3.854 4.113 6.219 9.637 6.219 15.719 c 0 12.703 -10.297 23 -23 23 c -6.081 0 -11.606 -2.364 -15.719 -6.219 c 4.16 4.144 9.883 6.719 16.219 6.719 c 12.703 0 23 -10.298 23 -23 c 0 -6.335 -2.575 -12.06 -6.719 -16.219 z"
       opacity="0.05"
       id="path23" />
    <path
       d="m 41.28 8.781 c 3.712 4.085 5.969 9.514 5.969 15.469 c 0 12.703 -10.297 23 -23 23 c -5.954 0 -11.384 -2.256 -15.469 -5.969 c 4.113 3.854 9.637 6.219 15.719 6.219 c 12.703 0 23 -10.298 23 -23 c 0 -6.081 -2.364 -11.606 -6.219 -15.719 z"
       opacity="0.1"
       id="path25" />
    <path
       d="m 31.25 2.375 c 8.615 3.154 14.75 11.417 14.75 21.13 c 0 12.426 -10.07 22.5 -22.5 22.5 c -9.708 0 -17.971 -6.135 -21.12 -14.75 a 23 23 0 0 0 44.875 -7 a 23 23 0 0 0 -16 -21.875 z"
       opacity="0.2"
       id="path27" />
  </g>
  <g
     id="g29">
    <path
       d="m 24 1 c 12.703 0 23 10.297 23 23 c 0 12.703 -10.297 23 -23 23 -12.703 0 -23 -10.297 -23 -23 0 -12.703 10.297 -23 23 -23 z"
       id="path31"
       fill-opacity="1"
       fill="url(#linearGradient3764)" />
  </g>
  <g
     transform="matrix(0.92079039,0.39005775,-0.39005775,0.92079039,12.264653,-7.2625915)"
     id="g3133"
     style="opacity:0.10000000000000001;fill:url(#linearGradient3033);fill-opacity:1">
    <g
       transform="matrix(0.98533401,-0.17063675,0.17063675,0.98533401,-3.7432981,4.4472658)"
       id="g3135"
       style="fill:url(#linearGradient3033);fill-opacity:1">
      <g
         style="fill:url(#linearGradient3033);fill-opacity:1"
         id="g3137">
        <path
           id="path3139"
           d="M 6.9106786,8.6066543 C -1.5911333,18.045161 -0.83185197,32.58751 8.6066544,41.089321 18.045161,49.591134 32.58751,48.831851 41.089321,39.393346 49.591134,29.954839 48.831851,15.41249 39.393346,6.9106786 29.95484,-1.5911336 15.41249,-0.83185205 6.9106786,8.6066543 z m 2.229041,2.0078287 C 16.532601,2.4070847 29.178121,1.7468401 37.385518,9.1397193 45.592915,16.532601 46.25316,29.178121 38.860281,37.385518 31.467399,45.592915 18.821879,46.25316 10.614483,38.86028 2.4070847,31.467399 1.7468406,18.821879 9.1397196,10.614483 z"
           style="fill:url(#linearGradient3051);fill-opacity:1"
           inkscape:connector-curvature="0" />
      </g>
      <path
         sodipodi:nodetypes="csasccsascc"
         inkscape:connector-curvature="0"
         id="path3141"
         d="m 8.7429675,37.82834 c 0,0 9.3943515,-26.383692 11.3943515,-30.3836925 0.666667,-1.3333333 2.945897,-2.2199594 4.642005,-2.1099267 1.411247,0.091553 2.936515,0.9065501 3.603182,2.2398834 2,3.9999998 11.166305,30.2541508 11.166305,30.2541508 l -5.161416,4.284832 c 0,0 -5.736936,-20.187289 -8.017555,-29.961956 -0.454433,-1.947689 -0.509497,-3.6118396 -1.882711,-3.6681609 -1.413025,-0.057954 -1.720472,1.4282773 -2.239883,3.6031819 -2.39155,10.014015 -8.245602,30.675887 -8.245602,30.675887 z"
         style="fill:url(#linearGradient3033);stroke:none;fill-opacity:1" />
    </g>
  </g>
  <g
     id="g33" />
  <g
     id="g63">
    <path
       d="m 40.03 7.531 c 3.712 4.084 5.969 9.514 5.969 15.469 0 12.703 -10.297 23 -23 23 c -5.954 0 -11.384 -2.256 -15.469 -5.969 4.178 4.291 10.01 6.969 16.469 6.969 c 12.703 0 23 -10.298 23 -23 0 -6.462 -2.677 -12.291 -6.969 -16.469 z"
       opacity="0.1"
       id="path65" />
  </g>
  <g
     style="fill:#800000"
     id="g3050"
     transform="matrix(0.86956522,0,0,0.86956522,3.1304348,3.1304347)" />
  <g
     id="g3111"
     transform="matrix(0.92079039,0.39005775,-0.39005775,0.92079039,11.262417,-7.4603555)"
     style="fill:#aa0000">
    <g
       id="g3116"
       transform="matrix(0.98533401,-0.17063675,0.17063675,0.98533401,-3.7432981,4.4472658)"
       style="fill:#aa0000">
      <g
         id="g3046"
         style="fill:#aa0000">
        <path
           inkscape:connector-curvature="0"
           style="fill:#aa0000"
           d="M 6.9106786,8.6066543 C -1.5911333,18.045161 -0.83185197,32.58751 8.6066544,41.089321 18.045161,49.591134 32.58751,48.831851 41.089321,39.393346 49.591134,29.954839 48.831851,15.41249 39.393346,6.9106786 29.95484,-1.5911336 15.41249,-0.83185205 6.9106786,8.6066543 z m 2.229041,2.0078287 C 16.532601,2.4070847 29.178121,1.7468401 37.385518,9.1397193 45.592915,16.532601 46.25316,29.178121 38.860281,37.385518 31.467399,45.592915 18.821879,46.25316 10.614483,38.86028 2.4070847,31.467399 1.7468406,18.821879 9.1397196,10.614483 z"
           id="path3048" />
      </g>
      <path
         style="fill:#aa0000;stroke:none"
         d="m 8.7429675,37.82834 c 0,0 9.3943515,-26.383692 11.3943515,-30.3836925 0.666667,-1.3333333 2.945897,-2.2199594 4.642005,-2.1099267 1.411247,0.091553 2.936515,0.9065501 3.603182,2.2398834 2,3.9999998 11.166305,30.2541508 11.166305,30.2541508 l -5.161416,4.284832 c 0,0 -5.736936,-20.187289 -8.017555,-29.961956 -0.454433,-1.947689 -0.509497,-3.6118396 -1.882711,-3.6681609 -1.413025,-0.057954 -1.720472,1.4282773 -2.239883,3.6031819 -2.39155,10.014015 -8.245602,30.675887 -8.245602,30.675887 z"
         id="path3105"
         inkscape:connector-curvature="0"
         sodipodi:nodetypes="csasccsascc" />
    </g>
  </g>
  <g
     id="g3832"
     style="font-size:32px;font-style:normal;font-variant:normal;font-weight:bold;font-stretch:normal;text-align:start;line-height:125%;letter-spacing:0px;word-spacing:0px;writing-mode:lr-tb;text-anchor:start;opacity:0.1;fill:#000000;fill-opacity:1;stroke:none;font-family:Nimbus Sans Narrow;-inkscape-font-specification:Nimbus Sans Narrow Bold"
     transform="translate(1.0284444,2)">
    <path
       sodipodi:nodetypes="cccsssccaascc"
       inkscape:connector-curvature="0"
       id="path3834"
       d="m 38,32 c -2,1 -3,1 -5,1 0,0 -3,1 0.544001,-2.288 C 36.775998,27.832003 38,26.039997 38,23 38,18.584004 35.239997,15.832 31.368001,15.832 27.464005,15.832 25,18.136005 25,23 c 0,0.128 -0.032,0.648 0,1 l 5,0 c 0.139844,-1.528616 0.800472,-3.07468 2,-3 0.743916,0.04631 1.119393,1.264268 1,2 -0.302043,1.86127 -2.313452,3.156726 -4,4 -4,2 -3.84,6.776004 -4,11 l 13,0"
       style="fill:#000000" />
  </g>
  <g
     style="font-size:32px;font-style:normal;font-variant:normal;font-weight:bold;font-stretch:normal;text-align:start;line-height:125%;letter-spacing:0px;word-spacing:0px;writing-mode:lr-tb;text-anchor:start;fill:#550000;fill-opacity:1;stroke:none;font-family:Nimbus Sans Narrow;-inkscape-font-specification:Nimbus Sans Narrow Bold"
     id="text3053"
     transform="translate(0.01422222,1)">
    <path
       d="m 38,32 c -2,1 -3,1 -5,1 0,0 -2.014222,0 0.544001,-2.288 C 36.775998,27.832003 38,26.039997 38,23 38,18.584004 35.239997,15.832 31.368001,15.832 27.464005,15.832 25,18.136005 25,23 c 0,0.128 -0.032,0.648 0,1 l 5,0 c 0.139844,-1.528616 0.800472,-3.07468 2,-3 0.743916,0.04631 1.119393,1.264268 1,2 -0.302043,1.86127 -2.313452,3.156726 -4,4 -4,2 -3.84,6.776004 -4,11 l 13,0"
       id="path3830"
       inkscape:connector-curvature="0"
       sodipodi:nodetypes="cccsssccaascc" />
  </g>
</svg>
