<svg width="48" xmlns="http://www.w3.org/2000/svg" viewBox="0 0 13.546667 13.546667" height="48" xmlns:xlink="http://www.w3.org/1999/xlink">
<defs>
<linearGradient id="linearGradient3776">
<stop offset="0" style="stop-color:#e2a209"/>
<stop offset="1" style="stop-color:#f0b70b"/>
</linearGradient>
<linearGradient xlink:href="#linearGradient3776" id="linearGradient3789" y1="16" y2="3" gradientUnits="userSpaceOnUse" x2="0"/>
</defs>
<g style="fill-rule:evenodd">
<rect width="12.982" x=".282" y=".282" rx="6.491" height="12.982" style="opacity:.5;fill:#fff"/>
<rect width="11.853" x=".847" y=".847" rx="5.926" height="11.853" style="fill:#edc54a"/>
<path style="fill:url(#linearGradient3789)" d="M 24 3 C 15.201139 3 7.7518815 8.3559835 4.625 16 L 43.375 16 C 40.248119 8.3559835 32.798861 3 24 3 z " transform="scale(.28222)"/>
</g>
<path style="fill:#bb8d03" d="M 4.59375 15.9375 C 4.3911124 16.427422 4.1971391 16.929476 4.03125 17.4375 L 43.96875 17.4375 C 43.802861 16.929476 43.608888 16.427422 43.40625 15.9375 L 4.59375 15.9375 z " transform="scale(.28222)"/>
<path style="fill:#f0d77c" d="M 4.1875 17 C 4.0744456 17.322337 3.9726088 17.67059 3.875 18 L 44.125 18 C 44.027391 17.67059 43.925554 17.322337 43.8125 17 L 4.1875 17 z " transform="scale(.28222)"/>
<g style="opacity:.6;fill:#333;fill-rule:evenodd" transform="matrix(1.02892 0 0 1.00004 1.23144 -2.967)">
<path d="m 7.1359456,8.8555675 c 0.4618442,0.26665 0.7488397,0.66318 0.7162629,0.95468 l -1.8843661,-1.08794 c -0.00573,-0.003 -0.011585,-0.006 -0.017443,-0.009 0.2359092,-0.17454 0.7232724,-0.12443 1.1855459,0.14246 z"/>
<rect width=".681" x="-11.725" y="4.683" rx=".272" height="3.487" transform="matrix(-.86603 -.5 -.5 .86603 0 0)"/>
<rect width=".681" x="-10.949" y="4.683" rx=".272" height="3.487" transform="matrix(-.86603 -.5 -.5 .86603 0 0)"/>
<rect width=".681" x="-10.173" y="4.683" rx=".272" height="3.487" transform="matrix(-.86603 -.5 -.5 .86603 0 0)"/>
<path d="m -119.50798,657.3724 c 4.83364,-8.37211 478.53026,-8.37212 483.3639,-10e-6 4.83364,8.3721 -232.01466,418.60541 -241.68194,418.60541 -9.66728,0 -246.5156,-410.2333 -241.68196,-418.6054 z" transform="matrix(-.00397 -.00229 -.00243 .0042 7.12271 10.01594)"/>
</g>
</svg>
