<svg viewBox="0 0 48 48"><defs><linearGradient id="linearGradient3764" x1="1" x2="47" gradientUnits="userSpaceOnUse" gradientTransform="matrix(0,-1,1,0,-1.5e-6,47.999998)"><stop stop-color="#32a8ce" stop-opacity="1"/><stop offset="1" stop-color="#41afd2" stop-opacity="1"/></linearGradient><clipPath id="clipPath-452468807"><g transform="translate(0,-1004.3622)"><path d="m -24 13 c 0 1.105 -0.672 2 -1.5 2 -0.828 0 -1.5 -0.895 -1.5 -2 0 -1.105 0.672 -2 1.5 -2 0.828 0 1.5 0.895 1.5 2 z" transform="matrix(15.333333,0,0,11.5,414.99999,878.8622)" fill="#1890d0"/></g></clipPath><clipPath id="clipPath-461194074"><g transform="translate(0,-1004.3622)"><path d="m -24 13 c 0 1.105 -0.672 2 -1.5 2 -0.828 0 -1.5 -0.895 -1.5 -2 0 -1.105 0.672 -2 1.5 -2 0.828 0 1.5 0.895 1.5 2 z" transform="matrix(15.333333,0,0,11.5,414.99999,878.8622)" fill="#1890d0"/></g></clipPath></defs><g><path d="m 36.31 5 c 5.859 4.062 9.688 10.831 9.688 18.5 c 0 12.426 -10.07 22.5 -22.5 22.5 c -7.669 0 -14.438 -3.828 -18.5 -9.688 c 1.037 1.822 2.306 3.499 3.781 4.969 c 4.085 3.712 9.514 5.969 15.469 5.969 c 12.703 0 23 -10.298 23 -23 c 0 -5.954 -2.256 -11.384 -5.969 -15.469 c -1.469 -1.475 -3.147 -2.744 -4.969 -3.781 z m 4.969 3.781 c 3.854 4.113 6.219 9.637 6.219 15.719 c 0 12.703 -10.297 23 -23 23 c -6.081 0 -11.606 -2.364 -15.719 -6.219 c 4.16 4.144 9.883 6.719 16.219 6.719 c 12.703 0 23 -10.298 23 -23 c 0 -6.335 -2.575 -12.06 -6.719 -16.219 z" opacity="0.05"/><path d="m 41.28 8.781 c 3.712 4.085 5.969 9.514 5.969 15.469 c 0 12.703 -10.297 23 -23 23 c -5.954 0 -11.384 -2.256 -15.469 -5.969 c 4.113 3.854 9.637 6.219 15.719 6.219 c 12.703 0 23 -10.298 23 -23 c 0 -6.081 -2.364 -11.606 -6.219 -15.719 z" opacity="0.1"/><path d="m 31.25 2.375 c 8.615 3.154 14.75 11.417 14.75 21.13 c 0 12.426 -10.07 22.5 -22.5 22.5 c -9.708 0 -17.971 -6.135 -21.12 -14.75 a 23 23 0 0 0 44.875 -7 a 23 23 0 0 0 -16 -21.875 z" opacity="0.2"/></g><g><path d="m 24 1 c 12.703 0 23 10.297 23 23 c 0 12.703 -10.297 23 -23 23 -12.703 0 -23 -10.297 -23 -23 0 -12.703 10.297 -23 23 -23 z" fill="url(#linearGradient3764)" fill-opacity="1"/></g><g/><g><g clip-path="url(#clipPath-452468807)"><g transform="translate(1,1)"><g opacity="0.1"><!-- color: #41afd2 --><g><path d="m 14 12 l 20 0 c 1.105 0 2 0.895 2 2 l 0 20 c 0 1.105 -0.895 2 -2 2 l -20 0 c -1.105 0 -2 -0.895 -2 -2 l 0 -20 c 0 -1.105 0.895 -2 2 -2 m 0 0" fill="#000" stroke="none" fill-rule="nonzero" fill-opacity="1"/><path d="m 14 12 c -1.109 0 -2 0.891 -2 2 l 0 20 c 0 1.109 0.891 2 2 2 l 10 0 l 0 -24 m -10 0" fill="#000" stroke="none" fill-rule="nonzero" fill-opacity="1"/><path d="m 14 12 c -1.109 0 -2 0.891 -2 2 l 0 20 c 0 1.109 0.891 2 2 2 l 1 0 c -1.109 0 -2 -0.891 -2 -2 l 0 -20 c 0 -1.109 0.891 -2 2 -2 m -1 0" fill="#000" stroke="none" fill-rule="nonzero" fill-opacity="1"/><path d="m 33 12 c 1.109 0 2 0.891 2 2 l 0 20 c 0 1.109 -0.891 2 -2 2 l 1 0 c 1.109 0 2 -0.891 2 -2 l 0 -20 c 0 -1.109 -0.891 -2 -2 -2 m -1 0" fill="#000" stroke="none" fill-rule="nonzero" fill-opacity="1"/><path d="m 15 14 l 7 0 l 0 2 l -7 0 m 0 -2" fill="#000" stroke="none" fill-rule="nonzero" fill-opacity="0.4"/><path d="m 26 32 l 7 0 l 0 2 l -7 0 m 0 -2" fill="#000" stroke="none" fill-rule="nonzero" fill-opacity="0.4"/><path d="m 15 19 l 18 0 l 0 1 l -18 0 m 0 -1" fill="#000" stroke="none" fill-rule="nonzero" fill-opacity="0.4"/><path d="m 15 22 l 18 0 l 0 1 l -18 0 m 0 -1" fill="#000" stroke="none" fill-rule="nonzero" fill-opacity="0.4"/><path d="m 15 25 l 18 0 l 0 1 l -18 0 m 0 -1" fill="#000" stroke="none" fill-rule="nonzero" fill-opacity="0.4"/><path d="m 15 28 l 18 0 l 0 1 l -18 0 m 0 -1" fill="#000" stroke="none" fill-rule="nonzero" fill-opacity="0.4"/></g></g></g></g></g><g><g clip-path="url(#clipPath-461194074)"><!-- color: #41afd2 --><g><path d="m 14 12 l 20 0 c 1.105 0 2 0.895 2 2 l 0 20 c 0 1.105 -0.895 2 -2 2 l -20 0 c -1.105 0 -2 -0.895 -2 -2 l 0 -20 c 0 -1.105 0.895 -2 2 -2 m 0 0" fill="#fff" stroke="none" fill-rule="nonzero" fill-opacity="1"/><path d="m 14 12 c -1.109 0 -2 0.891 -2 2 l 0 20 c 0 1.109 0.891 2 2 2 l 10 0 l 0 -24 m -10 0" fill="#fbebcf" stroke="none" fill-rule="nonzero" fill-opacity="1"/><path d="m 14 12 c -1.109 0 -2 0.891 -2 2 l 0 20 c 0 1.109 0.891 2 2 2 l 1 0 c -1.109 0 -2 -0.891 -2 -2 l 0 -20 c 0 -1.109 0.891 -2 2 -2 m -1 0" fill="#fff" stroke="none" fill-rule="nonzero" fill-opacity="1"/><path d="m 33 12 c 1.109 0 2 0.891 2 2 l 0 20 c 0 1.109 -0.891 2 -2 2 l 1 0 c 1.109 0 2 -0.891 2 -2 l 0 -20 c 0 -1.109 -0.891 -2 -2 -2 m -1 0" fill="#fbebcf" stroke="none" fill-rule="nonzero" fill-opacity="1"/><path d="m 15 14 l 7 0 l 0 2 l -7 0 m 0 -2" fill="#2d2d2d" stroke="none" fill-rule="nonzero" fill-opacity="0.4"/><path d="m 26 32 l 7 0 l 0 2 l -7 0 m 0 -2" fill="#2d2d2d" stroke="none" fill-rule="nonzero" fill-opacity="0.4"/><path d="m 15 19 l 18 0 l 0 1 l -18 0 m 0 -1" fill="#2d2d2d" stroke="none" fill-rule="nonzero" fill-opacity="0.4"/><path d="m 15 22 l 18 0 l 0 1 l -18 0 m 0 -1" fill="#2d2d2d" stroke="none" fill-rule="nonzero" fill-opacity="0.4"/><path d="m 15 25 l 18 0 l 0 1 l -18 0 m 0 -1" fill="#2d2d2d" stroke="none" fill-rule="nonzero" fill-opacity="0.4"/><path d="m 15 28 l 18 0 l 0 1 l -18 0 m 0 -1" fill="#2d2d2d" stroke="none" fill-rule="nonzero" fill-opacity="0.4"/></g></g></g><g><path d="m 40.03 7.531 c 3.712 4.084 5.969 9.514 5.969 15.469 0 12.703 -10.297 23 -23 23 c -5.954 0 -11.384 -2.256 -15.469 -5.969 4.178 4.291 10.01 6.969 16.469 6.969 c 12.703 0 23 -10.298 23 -23 0 -6.462 -2.677 -12.291 -6.969 -16.469 z" opacity="0.1"/></g></svg>