<svg viewBox="0 0 48 48"><defs><linearGradient id="linearGradient3764" x1="1" x2="47" gradientUnits="userSpaceOnUse" gradientTransform="matrix(0,-1,1,0,-1.5e-6,47.999998)"><stop stop-color="#a6bdd6" stop-opacity="1"/><stop offset="1" stop-color="#b4c7dc" stop-opacity="1"/></linearGradient><clipPath id="clipPath-686983085"><g transform="translate(0,-1004.3622)"><path d="m -24 13 c 0 1.105 -0.672 2 -1.5 2 -0.828 0 -1.5 -0.895 -1.5 -2 0 -1.105 0.672 -2 1.5 -2 0.828 0 1.5 0.895 1.5 2 z" transform="matrix(15.333333,0,0,11.5,414.99999,878.8622)" fill="#1890d0"/></g></clipPath><clipPath id="clipPath-698980904"><g transform="translate(0,-1004.3622)"><path d="m -24 13 c 0 1.105 -0.672 2 -1.5 2 -0.828 0 -1.5 -0.895 -1.5 -2 0 -1.105 0.672 -2 1.5 -2 0.828 0 1.5 0.895 1.5 2 z" transform="matrix(15.333333,0,0,11.5,414.99999,878.8622)" fill="#1890d0"/></g></clipPath></defs><g><g transform="translate(0,-1004.3622)"><path d="m 25 1006.36 c -12.703 0 -23 10.298 -23 23 0 6.367 2.601 12.12 6.781 16.281 4.085 3.712 9.514 5.969 15.469 5.969 12.703 0 23 -10.297 23 -23 0 -5.954 -2.256 -11.384 -5.969 -15.469 -4.165 -4.181 -9.914 -6.781 -16.281 -6.781 z m 16.281 6.781 c 3.854 4.113 6.219 9.637 6.219 15.719 0 12.703 -10.297 23 -23 23 -6.081 0 -11.606 -2.364 -15.719 -6.219 4.16 4.144 9.883 6.719 16.219 6.719 12.703 0 23 -10.297 23 -23 0 -6.335 -2.575 -12.06 -6.719 -16.219 z" opacity="0.05"/><path d="m 41.28 1013.14 c 3.712 4.085 5.969 9.514 5.969 15.469 0 12.703 -10.297 23 -23 23 -5.954 0 -11.384 -2.256 -15.469 -5.969 4.113 3.854 9.637 6.219 15.719 6.219 12.703 0 23 -10.297 23 -23 0 -6.081 -2.364 -11.606 -6.219 -15.719 z" opacity="0.1"/><path transform="matrix(15.333333,0,0,11.5,415.24999,879.11222)" d="m -24 13 a 1.5 2 0 1 1 -3 0 1.5 2 0 1 1 3 0 z" opacity="0.2"/></g></g><g><path d="m 24 1 c 12.703 0 23 10.297 23 23 c 0 12.703 -10.297 23 -23 23 -12.703 0 -23 -10.297 -23 -23 0 -12.703 10.297 -23 23 -23 z" fill="url(#linearGradient3764)" fill-opacity="1"/></g><g/><g><g clip-path="url(#clipPath-686983085)"><g transform="translate(0,1)"><g opacity="0.1"><!-- color: #b4c7dc --><g><path d="m 39 24 c 0 8.281 -6.715 15 -15 15 c -8.285 0 -15 -6.719 -15 -15 c 0 -8.285 6.715 -15 15 -15 c 8.285 0 15 6.715 15 15 m 0 0" fill="#000" stroke="none" fill-rule="nonzero" fill-opacity="1"/><path d="m 15.32 11.766 c -1.684 1.199 -3.109 2.734 -4.18 4.508 l 6.859 1.727 m -2.68 -6.234" fill="#000" stroke="none" fill-rule="nonzero" fill-opacity="1"/><path d="m 32.27 11.488 l -1.77 7.01 l 6.113 -2.625 c -1.129 -1.73 -2.617 -3.23 -4.344 -4.387 m 0 0.004" fill="#000" stroke="none" fill-rule="nonzero" fill-opacity="1"/><path d="m 32.5 27.5 l 1.863 7.344 c 1.488 -1.422 2.672 -3.133 3.48 -5.063 m -5.344 -2.281" fill="#000" stroke="none" fill-rule="nonzero" fill-opacity="1"/><path d="m 16 28 l -5.949 1.52 c 0.73 1.852 1.809 3.508 3.172 4.914 m 2.777 -6.434" fill="#000" stroke="none" fill-rule="nonzero" fill-opacity="1"/><path d="m 22 13 l 4 0 l 0 -1 l -2 -3 l -2 3 m 0 1" fill="#000" stroke="none" fill-rule="nonzero" fill-opacity="1"/><path d="m 22 12 l 0 26.875 c 0.656 0.086 1.32 0.125 2 0.125 c 0.68 0 1.344 -0.039 2 -0.125 l 0 -26.875 m -4 0" fill="#000" stroke="none" fill-rule="nonzero" fill-opacity="1"/><path d="m 24 35 l -2 3.875 c 0.656 0.086 1.32 0.125 2 0.125 c 0.68 0 1.344 -0.039 2 -0.125 m -2 -3.875" fill="#000" stroke="none" fill-rule="nonzero" fill-opacity="1"/></g></g></g></g></g><g><g clip-path="url(#clipPath-698980904)"><!-- color: #b4c7dc --><g><path d="m 39 24 c 0 8.281 -6.715 15 -15 15 c -8.285 0 -15 -6.719 -15 -15 c 0 -8.285 6.715 -15 15 -15 c 8.285 0 15 6.715 15 15 m 0 0" fill="#2d2d2d" stroke="none" fill-rule="nonzero" fill-opacity="1"/><path d="m 15.32 11.766 c -1.684 1.199 -3.109 2.734 -4.18 4.508 l 6.859 1.727 m -2.68 -6.234" fill="#53cdec" stroke="none" fill-rule="nonzero" fill-opacity="1"/><path d="m 32.27 11.488 l -1.77 7.01 l 6.113 -2.625 c -1.129 -1.73 -2.617 -3.23 -4.344 -4.387 m 0 0.004" fill="#53cdec" stroke="none" fill-rule="nonzero" fill-opacity="1"/><path d="m 32.5 27.5 l 1.863 7.344 c 1.488 -1.422 2.672 -3.133 3.48 -5.063 m -5.344 -2.281" fill="#53cdec" stroke="none" fill-rule="nonzero" fill-opacity="1"/><path d="m 16 28 l -5.949 1.52 c 0.73 1.852 1.809 3.508 3.172 4.914 m 2.777 -6.434" fill="#53cdec" stroke="none" fill-rule="nonzero" fill-opacity="1"/><path d="m 22 13 l 4 0 l 0 -1 l -2 -3 l -2 3 m 0 1" fill="#20b0d6" stroke="none" fill-rule="nonzero" fill-opacity="1"/><path d="m 22 12 l 0 26.875 c 0.656 0.086 1.32 0.125 2 0.125 c 0.68 0 1.344 -0.039 2 -0.125 l 0 -26.875 m -4 0" fill="#53cdec" stroke="none" fill-rule="nonzero" fill-opacity="1"/><path d="m 24 35 l -2 3.875 c 0.656 0.086 1.32 0.125 2 0.125 c 0.68 0 1.344 -0.039 2 -0.125 m -2 -3.875" fill="#0070b9" stroke="none" fill-rule="nonzero" fill-opacity="1"/></g></g></g><g><path d="m 40.03 7.531 c 3.712 4.084 5.969 9.514 5.969 15.469 0 12.703 -10.297 23 -23 23 c -5.954 0 -11.384 -2.256 -15.469 -5.969 4.178 4.291 10.01 6.969 16.469 6.969 c 12.703 0 23 -10.298 23 -23 0 -6.462 -2.677 -12.291 -6.969 -16.469 z" opacity="0.1"/></g></svg>