<?xml version="1.0" encoding="UTF-8" standalone="no"?>
<svg
   xmlns:dc="http://purl.org/dc/elements/1.1/"
   xmlns:cc="http://creativecommons.org/ns#"
   xmlns:rdf="http://www.w3.org/1999/02/22-rdf-syntax-ns#"
   xmlns:svg="http://www.w3.org/2000/svg"
   xmlns="http://www.w3.org/2000/svg"
   xmlns:xlink="http://www.w3.org/1999/xlink"
   xmlns:sodipodi="http://sodipodi.sourceforge.net/DTD/sodipodi-0.dtd"
   xmlns:inkscape="http://www.inkscape.org/namespaces/inkscape"
   viewBox="0 0 48 48"
   id="svg2"
   version="1.1"
   inkscape:version="0.48.5 r10040"
   width="100%"
   height="100%"
   sodipodi:docname="text-editor.svg">
  <metadata
     id="metadata88">
    <rdf:RDF>
      <cc:Work
         rdf:about="">
        <dc:format>image/svg+xml</dc:format>
        <dc:type
           rdf:resource="http://purl.org/dc/dcmitype/StillImage" />
      </cc:Work>
    </rdf:RDF>
  </metadata>
  <sodipodi:namedview
     pagecolor="#ffffff"
     bordercolor="#666666"
     borderopacity="1"
     objecttolerance="10"
     gridtolerance="10"
     guidetolerance="10"
     inkscape:pageopacity="0"
     inkscape:pageshadow="2"
     inkscape:window-width="640"
     inkscape:window-height="480"
     id="namedview86"
     showgrid="true"
     inkscape:zoom="3.4766083"
     inkscape:cx="14.6469"
     inkscape:cy="10.698423"
     inkscape:window-x="0"
     inkscape:window-y="0"
     inkscape:window-maximized="0"
     inkscape:current-layer="svg2">
    <inkscape:grid
       type="xygrid"
       id="grid3065" />
  </sodipodi:namedview>
  <defs
     id="defs4">
    <linearGradient
       id="linearGradient3764"
       x1="1"
       x2="47"
       gradientUnits="userSpaceOnUse"
       gradientTransform="matrix(0,-1,1,0,-1.5e-6,47.999998)">
      <stop
         stop-color="#a467af"
         stop-opacity="1"
         id="stop7" />
      <stop
         offset="1"
         stop-color="#ac74b6"
         stop-opacity="1"
         id="stop9" />
    </linearGradient>
    <clipPath
       id="clipPath-623478523">
      <g
         transform="translate(0,-1004.3622)"
         id="g12">
        <path
           d="m -24 13 c 0 1.105 -0.672 2 -1.5 2 -0.828 0 -1.5 -0.895 -1.5 -2 0 -1.105 0.672 -2 1.5 -2 0.828 0 1.5 0.895 1.5 2 z"
           transform="matrix(15.333333,0,0,11.5,414.99999,878.8622)"
           fill="#1890d0"
           id="path14" />
      </g>
    </clipPath>
    <clipPath
       id="clipPath-633014263">
      <g
         transform="translate(0,-1004.3622)"
         id="g17">
        <path
           d="m -24 13 c 0 1.105 -0.672 2 -1.5 2 -0.828 0 -1.5 -0.895 -1.5 -2 0 -1.105 0.672 -2 1.5 -2 0.828 0 1.5 0.895 1.5 2 z"
           transform="matrix(15.333333,0,0,11.5,414.99999,878.8622)"
           fill="#1890d0"
           id="path19" />
      </g>
    </clipPath>
  </defs>
  <g
     id="g21">
    <path
       d="m 36.31 5 c 5.859 4.062 9.688 10.831 9.688 18.5 c 0 12.426 -10.07 22.5 -22.5 22.5 c -7.669 0 -14.438 -3.828 -18.5 -9.688 c 1.037 1.822 2.306 3.499 3.781 4.969 c 4.085 3.712 9.514 5.969 15.469 5.969 c 12.703 0 23 -10.298 23 -23 c 0 -5.954 -2.256 -11.384 -5.969 -15.469 c -1.469 -1.475 -3.147 -2.744 -4.969 -3.781 z m 4.969 3.781 c 3.854 4.113 6.219 9.637 6.219 15.719 c 0 12.703 -10.297 23 -23 23 c -6.081 0 -11.606 -2.364 -15.719 -6.219 c 4.16 4.144 9.883 6.719 16.219 6.719 c 12.703 0 23 -10.298 23 -23 c 0 -6.335 -2.575 -12.06 -6.719 -16.219 z"
       opacity="0.05"
       id="path23" />
    <path
       d="m 41.28 8.781 c 3.712 4.085 5.969 9.514 5.969 15.469 c 0 12.703 -10.297 23 -23 23 c -5.954 0 -11.384 -2.256 -15.469 -5.969 c 4.113 3.854 9.637 6.219 15.719 6.219 c 12.703 0 23 -10.298 23 -23 c 0 -6.081 -2.364 -11.606 -6.219 -15.719 z"
       opacity="0.1"
       id="path25" />
    <path
       d="m 31.25 2.375 c 8.615 3.154 14.75 11.417 14.75 21.13 c 0 12.426 -10.07 22.5 -22.5 22.5 c -9.708 0 -17.971 -6.135 -21.12 -14.75 a 23 23 0 0 0 44.875 -7 a 23 23 0 0 0 -16 -21.875 z"
       opacity="0.2"
       id="path27" />
  </g>
  <g
     id="g29">
    <path
       d="m 24 1 c 12.703 0 23 10.297 23 23 c 0 12.703 -10.297 23 -23 23 -12.703 0 -23 -10.297 -23 -23 0 -12.703 10.297 -23 23 -23 z"
       fill="url(#linearGradient3764)"
       fill-opacity="1"
       id="path31" />
  </g>
  <g
     id="g33" />
  <g
     id="g35"
     transform="translate(-1,0)">
    <g
       clip-path="url(#clipPath-623478523)"
       id="g37">
      <g
         transform="translate(1,1)"
         id="g39">
        <g
           id="g41"
           style="opacity:0.1">
          <!-- color: #ac74b6 -->
          <g
             id="g43">
            <path
               d="M 15.875,11 C 15.383,11 15,11.383 15,11.875 l 0,24.25 C 15,36.617 15.383,37 15.875,37 l 18.25,0 C 34.617,37 35,36.617 35,36.125 l 0,-20.12 -5,-5 m -14.12,0"
               id="path45"
               inkscape:connector-curvature="0"
               style="fill:#000000;fill-opacity:1;fill-rule:nonzero;stroke:none" />
            <path
               d="m 17,29 10,0 0,-2 -10,0 m 0,2"
               id="path47"
               inkscape:connector-curvature="0"
               style="fill:#000000;fill-opacity:1;fill-rule:nonzero;stroke:none" />
            <path
               d="m 17,25 13,0 0,-2 -13,0 m 0,2"
               id="path49"
               inkscape:connector-curvature="0"
               style="fill:#000000;fill-opacity:1;fill-rule:nonzero;stroke:none" />
            <path
               d="m 17,21 8,0 0,-2 -8,0 m 0,2"
               id="path51"
               inkscape:connector-curvature="0"
               style="fill:#000000;fill-opacity:1;fill-rule:nonzero;stroke:none" />
            <path
               d="m 17,17 11,0 0,-2 -11,0 m 0,2"
               id="path53"
               inkscape:connector-curvature="0"
               style="fill:#000000;fill-opacity:1;fill-rule:nonzero;stroke:none" />
            <path
               d="m 17,34 16,0 0,-2 -16,0 m 0,2"
               id="path55"
               inkscape:connector-curvature="0"
               style="fill:#000000;fill-opacity:1;fill-rule:nonzero;stroke:none" />
            <path
               d="m 30,11 0,5 5,0 m -5,-5"
               id="path57"
               inkscape:connector-curvature="0"
               style="fill:#000000;fill-opacity:1;fill-rule:nonzero;stroke:none" />
            <use
               xlink:href="#SVGCleanerId_0"
               id="use59"
               x="0"
               y="0"
               width="48"
               height="48" />
          </g>
        </g>
      </g>
    </g>
  </g>
  <g
     id="g61"
     transform="translate(-1,0)">
    <g
       clip-path="url(#clipPath-633014263)"
       id="g63">
      <!-- color: #ac74b6 -->
      <g
         id="g65">
        <path
           d="M 15.875,11 C 15.383,11 15,11.383 15,11.875 l 0,24.25 C 15,36.617 15.383,37 15.875,37 l 18.25,0 C 34.617,37 35,36.617 35,36.125 l 0,-20.12 -5,-5 m -14.12,0"
           id="path67"
           inkscape:connector-curvature="0"
           style="fill:#ececde;fill-opacity:1;fill-rule:nonzero;stroke:none" />
        <path
           d="m 17,29 10,0 0,-2 -10,0 m 0,2"
           id="path69"
           inkscape:connector-curvature="0"
           style="fill:#8d758e;fill-opacity:1;fill-rule:nonzero;stroke:none" />
        <path
           d="m 17,25 13,0 0,-2 -13,0 m 0,2"
           id="path71"
           inkscape:connector-curvature="0"
           style="fill:#8d758e;fill-opacity:1;fill-rule:nonzero;stroke:none" />
        <path
           d="m 17,21 8,0 0,-2 -8,0 m 0,2"
           id="path73"
           inkscape:connector-curvature="0"
           style="fill:#8d758e;fill-opacity:1;fill-rule:nonzero;stroke:none" />
        <path
           d="m 17,17 11,0 0,-2 -11,0 m 0,2"
           id="path75"
           inkscape:connector-curvature="0"
           style="fill:#8d758e;fill-opacity:1;fill-rule:nonzero;stroke:none" />
        <path
           d="m 17,34 16,0 0,-2 -16,0 m 0,2"
           id="path77"
           inkscape:connector-curvature="0"
           style="fill:#8d758e;fill-opacity:1;fill-rule:nonzero;stroke:none" />
        <path
           d="m 30,11 0,5 5,0 m -5,-5"
           id="path79"
           inkscape:connector-curvature="0"
           style="fill:#ffffff;fill-opacity:1;fill-rule:nonzero;stroke:none" />
        <path
           d="m 35,21 0,-5 -5,0 m 5,5"
           id="SVGCleanerId_0"
           inkscape:connector-curvature="0"
           style="fill:#000000;fill-opacity:0.2;fill-rule:nonzero;stroke:none" />
      </g>
    </g>
  </g>
  <g
     id="g82">
    <path
       d="m 40.03 7.531 c 3.712 4.084 5.969 9.514 5.969 15.469 0 12.703 -10.297 23 -23 23 c -5.954 0 -11.384 -2.256 -15.469 -5.969 4.178 4.291 10.01 6.969 16.469 6.969 c 12.703 0 23 -10.298 23 -23 0 -6.462 -2.677 -12.291 -6.969 -16.469 z"
       opacity="0.1"
       id="path84" />
  </g>
</svg>
