<?xml version="1.0" encoding="UTF-8" standalone="no"?>
<svg
   xmlns:dc="http://purl.org/dc/elements/1.1/"
   xmlns:cc="http://creativecommons.org/ns#"
   xmlns:rdf="http://www.w3.org/1999/02/22-rdf-syntax-ns#"
   xmlns:svg="http://www.w3.org/2000/svg"
   xmlns="http://www.w3.org/2000/svg"
   xmlns:sodipodi="http://sodipodi.sourceforge.net/DTD/sodipodi-0.dtd"
   xmlns:inkscape="http://www.inkscape.org/namespaces/inkscape"
   viewBox="0 0 48 48"
   id="svg2"
   version="1.1"
   inkscape:version="0.48.5 r10040"
   width="100%"
   height="100%"
   sodipodi:docname="thg_logo.svg">
  <metadata
     id="metadata61">
    <rdf:RDF>
      <cc:Work
         rdf:about="">
        <dc:format>image/svg+xml</dc:format>
        <dc:type
           rdf:resource="http://purl.org/dc/dcmitype/StillImage" />
      </cc:Work>
    </rdf:RDF>
  </metadata>
  <sodipodi:namedview
     pagecolor="#ffffff"
     bordercolor="#666666"
     borderopacity="1"
     objecttolerance="10"
     gridtolerance="10"
     guidetolerance="10"
     inkscape:pageopacity="0"
     inkscape:pageshadow="2"
     inkscape:window-width="1366"
     inkscape:window-height="737"
     id="namedview59"
     showgrid="false"
     inkscape:zoom="12.021277"
     inkscape:cx="16.962248"
     inkscape:cy="31.039042"
     inkscape:window-x="0"
     inkscape:window-y="0"
     inkscape:window-maximized="1"
     inkscape:current-layer="svg2">
    <inkscape:grid
       type="xygrid"
       id="grid3038" />
  </sodipodi:namedview>
  <defs
     id="defs4">
    <linearGradient
       id="linearGradient3764"
       x1="1"
       x2="47"
       gradientUnits="userSpaceOnUse"
       gradientTransform="matrix(0,-1,1,0,-1.5e-6,47.999998)">
      <stop
         stop-color="#333"
         stop-opacity="1"
         id="stop7" />
      <stop
         offset="1"
         stop-color="#3d3d3d"
         stop-opacity="1"
         id="stop9" />
    </linearGradient>
    <clipPath
       id="clipPath-799970715">
      <g
         transform="translate(0,-1004.3622)"
         id="g12">
        <path
           d="m -24 13 c 0 1.105 -0.672 2 -1.5 2 -0.828 0 -1.5 -0.895 -1.5 -2 0 -1.105 0.672 -2 1.5 -2 0.828 0 1.5 0.895 1.5 2 z"
           transform="matrix(15.333333,0,0,11.5,414.99999,878.8622)"
           fill="#1890d0"
           id="path14" />
      </g>
    </clipPath>
    <clipPath
       id="clipPath-808101755">
      <g
         transform="translate(0,-1004.3622)"
         id="g17">
        <path
           d="m -24 13 c 0 1.105 -0.672 2 -1.5 2 -0.828 0 -1.5 -0.895 -1.5 -2 0 -1.105 0.672 -2 1.5 -2 0.828 0 1.5 0.895 1.5 2 z"
           transform="matrix(15.333333,0,0,11.5,414.99999,878.8622)"
           fill="#1890d0"
           id="path19" />
      </g>
    </clipPath>
  </defs>
  <g
     id="g21">
    <path
       d="m 36.31 5 c 5.859 4.062 9.688 10.831 9.688 18.5 c 0 12.426 -10.07 22.5 -22.5 22.5 c -7.669 0 -14.438 -3.828 -18.5 -9.688 c 1.037 1.822 2.306 3.499 3.781 4.969 c 4.085 3.712 9.514 5.969 15.469 5.969 c 12.703 0 23 -10.298 23 -23 c 0 -5.954 -2.256 -11.384 -5.969 -15.469 c -1.469 -1.475 -3.147 -2.744 -4.969 -3.781 z m 4.969 3.781 c 3.854 4.113 6.219 9.637 6.219 15.719 c 0 12.703 -10.297 23 -23 23 c -6.081 0 -11.606 -2.364 -15.719 -6.219 c 4.16 4.144 9.883 6.719 16.219 6.719 c 12.703 0 23 -10.298 23 -23 c 0 -6.335 -2.575 -12.06 -6.719 -16.219 z"
       opacity="0.05"
       id="path23" />
    <path
       d="m 41.28 8.781 c 3.712 4.085 5.969 9.514 5.969 15.469 c 0 12.703 -10.297 23 -23 23 c -5.954 0 -11.384 -2.256 -15.469 -5.969 c 4.113 3.854 9.637 6.219 15.719 6.219 c 12.703 0 23 -10.298 23 -23 c 0 -6.081 -2.364 -11.606 -6.219 -15.719 z"
       opacity="0.1"
       id="path25" />
    <path
       d="m 31.25 2.375 c 8.615 3.154 14.75 11.417 14.75 21.13 c 0 12.426 -10.07 22.5 -22.5 22.5 c -9.708 0 -17.971 -6.135 -21.12 -14.75 a 23 23 0 0 0 44.875 -7 a 23 23 0 0 0 -16 -21.875 z"
       opacity="0.2"
       id="path27" />
  </g>
  <g
     id="g29"
     style="fill:#6f8a91">
    <path
       d="m 24 1 c 12.703 0 23 10.297 23 23 c 0 12.703 -10.297 23 -23 23 -12.703 0 -23 -10.297 -23 -23 0 -12.703 10.297 -23 23 -23 z"
       id="path31"
       style="fill:#6f8a91"
       fill-opacity="1"
       fill="url(#linearGradient3764)" />
  </g>
  <g
     id="g33" />
  <g
     id="g55">
    <path
       d="m 40.03 7.531 c 3.712 4.084 5.969 9.514 5.969 15.469 0 12.703 -10.297 23 -23 23 c -5.954 0 -11.384 -2.256 -15.469 -5.969 4.178 4.291 10.01 6.969 16.469 6.969 c 12.703 0 23 -10.298 23 -23 0 -6.462 -2.677 -12.291 -6.969 -16.469 z"
       opacity="0.1"
       id="path57" />
  </g>
  <g
     id="g3944"
     style="opacity:0.1;fill:#000000"
     transform="translate(0,1)">
    <path
       sodipodi:nodetypes="ccccc"
       inkscape:connector-curvature="0"
       id="path3946"
       d="M 26.56,27.73913 27.6,30 l -3.12,0 0,-2.26087 z"
       style="fill:#000000;fill-opacity:1;stroke:none" />
    <path
       style="fill:#000000;fill-opacity:1;stroke:none"
       d="M 19.28,27.73913 18.24,30 l 3.12,0 0,-2.26087 z"
       id="path3948"
       inkscape:connector-curvature="0"
       sodipodi:nodetypes="ccccc" />
    <path
       style="fill:#000000;fill-opacity:1;stroke:none"
       d="M 16.16,24.347826 12,27.73913 16.16,26.043478 z"
       id="path3950"
       inkscape:connector-curvature="0" />
    <path
       style="fill:#000000;stroke:none"
       d="m 15.12,26.608696 2.08,-5.652174 c 0,0 3.424715,-3.858148 5.6,-3.956522 2.502552,-0.113169 6.72,3.956522 6.72,3.956522 l 2.24,5.275363 -5.6,2.63768 -5.6,0 z"
       id="path3952"
       inkscape:connector-curvature="0"
       sodipodi:nodetypes="ccaccccc" />
    <path
       style="fill:#000000;fill-opacity:1;stroke:none"
       d="m 15.12,26.608696 6.24,1.130434 4.16,0 5.2,-2.260869 0,1.130435 -4.16,2.260869 -6.24,0 z"
       id="path3954"
       inkscape:connector-curvature="0" />
    <path
       style="fill:#000000;fill-opacity:1;stroke:none"
       d="M 16.16,26.608696 14.08,30 l 3,0 1.16,-2.26087 c 0,0 -0.544018,-1.760417 -1.289558,-1.84494 C 16.597532,25.85418 16.16,26.608696 16.16,26.608696 z"
       id="path3956"
       inkscape:connector-curvature="0"
       sodipodi:nodetypes="ccccac" />
    <path
       style="fill:#000000;fill-opacity:1;stroke:none"
       d="m 28.556814,25.561447 c -0.100451,-0.483919 0.395398,-1.429011 0.395398,-1.429011 L 31.76,20.956522 c 0,0 -1.164169,-1.429173 -1.04,-2.26087 0.07853,-0.52601 0.587058,-0.926505 1.04,-1.130434 0.960835,-0.432598 2.159165,-0.432598 3.12,0 1.358826,0.611787 3.12,1.792627 3.12,3.391304 0,1.065784 -1.11214,2.09015 -2.08,2.260869 -0.765161,0.134967 -2.08,-1.130434 -2.08,-1.130434 0,1.130434 -2.08,4.272182 -2.08,4.272182 0,0 -1.475677,0.720938 -2.175929,0.474489 -0.514136,-0.180947 -0.916478,-0.738509 -1.027257,-1.272181 z"
       id="path3958"
       inkscape:connector-curvature="0"
       sodipodi:nodetypes="accaasaaccaa" />
    <path
       style="fill:#000000;fill-opacity:1;stroke:none"
       d="M 25.52,27.73913 26.56,30 l 3.12,0 -1.04,-2.26087 c 0,0 -1.314839,-1.265401 -2.08,-1.130434 -0.48393,0.08536 -1.04,1.130434 -1.04,1.130434 z"
       id="path3960"
       inkscape:connector-curvature="0"
       sodipodi:nodetypes="ccccac" />
  </g>
  <g
     id="g3934"
     transform="translate(-1,0)">
    <path
       style="fill:#78af2d;fill-opacity:1;stroke:none"
       d="M 26.56,27.73913 27.6,30 l -3.12,0 0,-2.26087 z"
       id="path3052"
       inkscape:connector-curvature="0"
       sodipodi:nodetypes="ccccc" />
    <path
       sodipodi:nodetypes="ccccc"
       inkscape:connector-curvature="0"
       id="path3048"
       d="M 19.28,27.73913 18.24,30 l 3.12,0 0,-2.26087 z"
       style="fill:#78af2d;fill-opacity:1;stroke:none" />
    <path
       inkscape:connector-curvature="0"
       id="path3054"
       d="M 16.16,24.347826 12,27.73913 16.16,26.043478 z"
       style="fill:#8dcc38;fill-opacity:1;stroke:none" />
    <path
       sodipodi:nodetypes="ccaccccc"
       inkscape:connector-curvature="0"
       id="path3042"
       d="m 15.12,26.608696 2.08,-5.652174 c 0,0 3.424715,-3.858148 5.6,-3.956522 2.502552,-0.113169 6.72,3.956522 6.72,3.956522 l 2.24,5.275363 -5.6,2.63768 -5.6,0 z"
       style="fill:#bec8b7;stroke:none" />
    <path
       inkscape:connector-curvature="0"
       id="path3056"
       d="m 15.12,26.608696 6.24,1.130434 4.16,0 5.2,-2.260869 0,1.130435 -4.16,2.260869 -6.24,0 z"
       style="fill:#a7ac93;fill-opacity:1;stroke:none" />
    <path
       sodipodi:nodetypes="ccccac"
       inkscape:connector-curvature="0"
       id="path3044"
       d="M 16.16,26.608696 14.08,30 l 3,0 1.16,-2.26087 c 0,0 -0.544018,-1.760417 -1.289558,-1.84494 C 16.597532,25.85418 16.16,26.608696 16.16,26.608696 z"
       style="fill:#8dcc38;fill-opacity:1;stroke:none" />
    <path
       sodipodi:nodetypes="accaasaaccaa"
       inkscape:connector-curvature="0"
       id="path3050"
       d="m 28.556814,25.561447 c -0.100451,-0.483919 0.395398,-1.429011 0.395398,-1.429011 L 31.76,20.956522 c 0,0 -1.164169,-1.429173 -1.04,-2.26087 0.07853,-0.52601 0.587058,-0.926505 1.04,-1.130434 0.960835,-0.432598 2.159165,-0.432598 3.12,0 1.358826,0.611787 3.12,1.792627 3.12,3.391304 0,1.065784 -1.11214,2.09015 -2.08,2.260869 -0.765161,0.134967 -2.08,-1.130434 -2.08,-1.130434 0,1.130434 -2.08,4.272182 -2.08,4.272182 0,0 -1.475677,0.720938 -2.175929,0.474489 -0.514136,-0.180947 -0.916478,-0.738509 -1.027257,-1.272181 z"
       style="fill:#8dcc38;fill-opacity:1;stroke:none" />
    <path
       sodipodi:nodetypes="ccccac"
       inkscape:connector-curvature="0"
       id="path3046"
       d="M 25.52,27.73913 26.56,30 l 3.12,0 -1.04,-2.26087 c 0,0 -1.314839,-1.265401 -2.08,-1.130434 -0.48393,0.08536 -1.04,1.130434 -1.04,1.130434 z"
       style="fill:#8dcc38;fill-opacity:1;stroke:none" />
  </g>
</svg>
