<?xml version="1.0" encoding="UTF-8" standalone="no"?>
<svg
   xmlns:dc="http://purl.org/dc/elements/1.1/"
   xmlns:cc="http://creativecommons.org/ns#"
   xmlns:rdf="http://www.w3.org/1999/02/22-rdf-syntax-ns#"
   xmlns:svg="http://www.w3.org/2000/svg"
   xmlns="http://www.w3.org/2000/svg"
   xmlns:xlink="http://www.w3.org/1999/xlink"
   xmlns:sodipodi="http://sodipodi.sourceforge.net/DTD/sodipodi-0.dtd"
   xmlns:inkscape="http://www.inkscape.org/namespaces/inkscape"
   viewBox="0 0 48 48"
   id="svg2"
   version="1.1"
   inkscape:version="0.91 r13725"
   width="100%"
   height="100%"
   sodipodi:docname="trelby.svg">
  <metadata
     id="metadata61">
    <rdf:RDF>
      <cc:Work
         rdf:about="">
        <dc:format>image/svg+xml</dc:format>
        <dc:type
           rdf:resource="http://purl.org/dc/dcmitype/StillImage" />
        <dc:title />
      </cc:Work>
    </rdf:RDF>
  </metadata>
  <sodipodi:namedview
     pagecolor="#ffffff"
     bordercolor="#666666"
     borderopacity="1"
     objecttolerance="10"
     gridtolerance="10"
     guidetolerance="10"
     inkscape:pageopacity="0"
     inkscape:pageshadow="2"
     inkscape:window-width="1366"
     inkscape:window-height="713"
     id="namedview59"
     showgrid="false"
     inkscape:zoom="4"
     inkscape:cx="20.184315"
     inkscape:cy="21.382331"
     inkscape:window-x="0"
     inkscape:window-y="28"
     inkscape:window-maximized="1"
     inkscape:current-layer="svg2">
    <inkscape:grid
       type="xygrid"
       id="grid3038" />
  </sodipodi:namedview>
  <defs
     id="defs4">
    <linearGradient
       id="linearGradient3774">
      <stop
         style="stop-color:#8a2489;stop-opacity:1;"
         offset="0"
         id="stop3776" />
      <stop
         style="stop-color:#721e71;stop-opacity:1;"
         offset="1"
         id="stop3778" />
    </linearGradient>
    <linearGradient
       id="linearGradient3764"
       x1="1"
       x2="47"
       gradientUnits="userSpaceOnUse"
       gradientTransform="matrix(0,-1,1,0,-1.5e-6,47.999998)">
      <stop
         stop-color="#c8dae4"
         stop-opacity="1"
         id="stop7" />
      <stop
         offset="1"
         stop-color="#d6e4eb"
         stop-opacity="1"
         id="stop9" />
    </linearGradient>
    <linearGradient
       inkscape:collect="always"
       xlink:href="#linearGradient3774"
       id="linearGradient4089"
       gradientUnits="userSpaceOnUse"
       x1="309.09755"
       y1="181.78007"
       x2="554.26893"
       y2="181.78007" />
  </defs>
  <g
     id="g21">
    <path
       d="m 36.31 5 c 5.859 4.062 9.688 10.831 9.688 18.5 c 0 12.426 -10.07 22.5 -22.5 22.5 c -7.669 0 -14.438 -3.828 -18.5 -9.688 c 1.037 1.822 2.306 3.499 3.781 4.969 c 4.085 3.712 9.514 5.969 15.469 5.969 c 12.703 0 23 -10.298 23 -23 c 0 -5.954 -2.256 -11.384 -5.969 -15.469 c -1.469 -1.475 -3.147 -2.744 -4.969 -3.781 z m 4.969 3.781 c 3.854 4.113 6.219 9.637 6.219 15.719 c 0 12.703 -10.297 23 -23 23 c -6.081 0 -11.606 -2.364 -15.719 -6.219 c 4.16 4.144 9.883 6.719 16.219 6.719 c 12.703 0 23 -10.298 23 -23 c 0 -6.335 -2.575 -12.06 -6.719 -16.219 z"
       opacity="0.05"
       id="path23" />
    <path
       d="m 41.28 8.781 c 3.712 4.085 5.969 9.514 5.969 15.469 c 0 12.703 -10.297 23 -23 23 c -5.954 0 -11.384 -2.256 -15.469 -5.969 c 4.113 3.854 9.637 6.219 15.719 6.219 c 12.703 0 23 -10.298 23 -23 c 0 -6.081 -2.364 -11.606 -6.219 -15.719 z"
       opacity="0.1"
       id="path25" />
    <path
       d="m 31.25 2.375 c 8.615 3.154 14.75 11.417 14.75 21.13 c 0 12.426 -10.07 22.5 -22.5 22.5 c -9.708 0 -17.971 -6.135 -21.12 -14.75 a 23 23 0 0 0 44.875 -7 a 23 23 0 0 0 -16 -21.875 z"
       opacity="0.2"
       id="path27" />
  </g>
  <g
     id="g29">
    <path
       d="m 24 1 c 12.703 0 23 10.297 23 23 c 0 12.703 -10.297 23 -23 23 -12.703 0 -23 -10.297 -23 -23 0 -12.703 10.297 -23 23 -23 z"
       id="path31"
       fill-opacity="1"
       fill="url(#linearGradient3764)" />
  </g>
  <g
     id="g33" />
  <g
     id="g55">
    <path
       d="m 40.03 7.531 c 3.712 4.084 5.969 9.514 5.969 15.469 0 12.703 -10.297 23 -23 23 c -5.954 0 -11.384 -2.256 -15.469 -5.969 4.178 4.291 10.01 6.969 16.469 6.969 c 12.703 0 23 -10.298 23 -23 0 -6.462 -2.677 -12.291 -6.969 -16.469 z"
       opacity="0.1"
       id="path57" />
  </g>
  <g
     id="g2987"
     transform="matrix(0.09923663,0,0,0.09770991,-19.000804,4.7086803)" />
  <g
     id="g3951"
     transform="matrix(1.0371915,0,0,1.0726062,-2.2645063,-1.2049453)" />
  <g
     id="g3911"
     transform="translate(-1,0)" />
  <g
     id="g4010"
     transform="matrix(0.9352249,-0.42828674,0.43610253,0.91846389,-9.8255502,11.257438)">
    <g
       id="g4027">
      <g
         id="g4083"
         transform="matrix(1.0513919,0.01424437,0.01424437,1.027487,-1.1569747,-0.55635779)">
        <path
           style="fill:#000000;fill-opacity:0.11764706"
           d="m 34.162638,17.814959 c -0.577629,-0.329115 -1.530159,-0.563483 -3.914077,-0.958989 -3.313928,-0.529192 -6.571747,-0.590298 -10.342695,-0.591942 -0.588338,0.184831 -0.494336,0.0029 -3.493174,6.000117 l -3.014471,5.990139 c -0.999857,1.441909 -2.975979,3.381465 -2.975707,4.009346 2.74e-4,0.627882 6.98739,-0.0066 6.98739,-0.0066 l 16.019386,0.0076 1.992688,-0.0037 c 1.000303,-0.416409 1.002835,-3.996391 1.0024,-4.996144 -0.315585,0.0026 -0.656779,0.02226 -0.996125,0.03522 -8.08e-4,-1.059491 -0.01321,-3.228058 -0.01223,-3.836865 -0.01901,-3.159663 -0.08674,-4.679672 -0.759291,-5.284603 C 34.506922,18.0438 34.35518,17.924595 34.162638,17.81489 z"
           id="path4091"
           inkscape:connector-curvature="0" />
        <path
           sodipodi:nodetypes="ccccscccczc"
           inkscape:connector-curvature="0"
           id="path2989"
           d="m 339.7733,220.92982 c 29.14676,-57.24959 0,-1e-5 29.14676,-57.24959 29.14676,-57.24958 28.29051,-55.48311 34.00456,-57.24957 36.61922,0 68.32706,0.51093 100.50597,5.54773 30.86437,5.0197 36.93416,7.63037 42.75102,12.77198 6.52846,5.77063 7.16336,20.2242 7.3346,50.37979 -0.015,7.26819 0,45.79966 0,45.79966 l -19.43117,38.16639 -155.44939,0 c 0,0 -68.00911,5.99248 -68.00911,0 0,-5.99247 19.43117,-24.40071 29.14676,-38.16639 z"
           style="fill:url(#linearGradient4089);fill-opacity:1"
           transform="matrix(0.10292739,0,0,0.10480426,-21.971979,3.8456144)" />
        <path
           id="path2989-6"
           d="m 13.00025,27 c -0.21595,0.311552 -0.502243,0.661072 -0.78125,1 l 22.28125,0 0.5,-1 -22,0 z"
           style="fill:#490148;fill-opacity:1"
           inkscape:connector-curvature="0" />
        <path
           id="path2989-1"
           d="m 14,25 -0.5,1 21.5,0 c -9.2e-5,-0.283097 1e-4,-0.565062 0,-1 l -21,0 z"
           style="fill:#490148;fill-opacity:1"
           inkscape:connector-curvature="0" />
        <path
           sodipodi:nodetypes="cccc"
           inkscape:connector-curvature="0"
           id="rect3848"
           d="m 36,26 c 0,1 0,4.583051 -1,4.999998 L 17,31 c 9.68137,-4.290427 15.165793,-4.966481 19,-5 z"
           style="fill:#490148;fill-opacity:1;fill-rule:nonzero;stroke:none" />
      </g>
    </g>
  </g>
</svg>
