<svg viewBox="0 0 48 48"><defs><linearGradient id="linearGradient3764" x1="1" x2="47" gradientUnits="userSpaceOnUse" gradientTransform="matrix(0,-1,1,0,-1.5e-6,47.999998)"><stop stop-color="#e7dc39" stop-opacity="1"/><stop offset="1" stop-color="#e9df4b" stop-opacity="1"/></linearGradient><clipPath id="clipPath-071912261"><g transform="translate(0,-1004.3622)"><path d="m -24 13 c 0 1.105 -0.672 2 -1.5 2 -0.828 0 -1.5 -0.895 -1.5 -2 0 -1.105 0.672 -2 1.5 -2 0.828 0 1.5 0.895 1.5 2 z" transform="matrix(15.333333,0,0,11.5,414.99999,878.8622)" fill="#1890d0"/></g></clipPath><clipPath id="clipPath-077345876"><g transform="translate(0,-1004.3622)"><path d="m -24 13 c 0 1.105 -0.672 2 -1.5 2 -0.828 0 -1.5 -0.895 -1.5 -2 0 -1.105 0.672 -2 1.5 -2 0.828 0 1.5 0.895 1.5 2 z" transform="matrix(15.333333,0,0,11.5,414.99999,878.8622)" fill="#1890d0"/></g></clipPath></defs><g><path d="m 36.31 5 c 5.859 4.062 9.688 10.831 9.688 18.5 c 0 12.426 -10.07 22.5 -22.5 22.5 c -7.669 0 -14.438 -3.828 -18.5 -9.688 c 1.037 1.822 2.306 3.499 3.781 4.969 c 4.085 3.712 9.514 5.969 15.469 5.969 c 12.703 0 23 -10.298 23 -23 c 0 -5.954 -2.256 -11.384 -5.969 -15.469 c -1.469 -1.475 -3.147 -2.744 -4.969 -3.781 z m 4.969 3.781 c 3.854 4.113 6.219 9.637 6.219 15.719 c 0 12.703 -10.297 23 -23 23 c -6.081 0 -11.606 -2.364 -15.719 -6.219 c 4.16 4.144 9.883 6.719 16.219 6.719 c 12.703 0 23 -10.298 23 -23 c 0 -6.335 -2.575 -12.06 -6.719 -16.219 z" opacity="0.05"/><path d="m 41.28 8.781 c 3.712 4.085 5.969 9.514 5.969 15.469 c 0 12.703 -10.297 23 -23 23 c -5.954 0 -11.384 -2.256 -15.469 -5.969 c 4.113 3.854 9.637 6.219 15.719 6.219 c 12.703 0 23 -10.298 23 -23 c 0 -6.081 -2.364 -11.606 -6.219 -15.719 z" opacity="0.1"/><path d="m 31.25 2.375 c 8.615 3.154 14.75 11.417 14.75 21.13 c 0 12.426 -10.07 22.5 -22.5 22.5 c -9.708 0 -17.971 -6.135 -21.12 -14.75 a 23 23 0 0 0 44.875 -7 a 23 23 0 0 0 -16 -21.875 z" opacity="0.2"/></g><g><path d="m 24 1 c 12.703 0 23 10.297 23 23 c 0 12.703 -10.297 23 -23 23 -12.703 0 -23 -10.297 -23 -23 0 -12.703 10.297 -23 23 -23 z" fill="url(#linearGradient3764)" fill-opacity="1"/></g><g/><g><g clip-path="url(#clipPath-071912261)"><g transform="translate(1,1)"><g opacity="0.1"><!-- color: #e9df4b --><g><path d="m 10 14 c -1.66 0 -3 1.34 -3 3 l 0 14 c 0 1.664 1.34 3 3 3 l 5.406 0 c 2.613 1.254 5.504 2 8.594 2 c 3.09 0 5.98 -0.746 8.594 -2 l 5.406 0 c 1.664 0 3 -1.336 3 -3 l 0 -14 c 0 -1.66 -1.336 -3 -3 -3 l -4 0 l -2 -2 l -16 0 l -2 2 m -4 0" fill="#000" stroke="none" fill-rule="nonzero" fill-opacity="1"/><path d="m 19 13 l 10 0 l 0 1 l -10 0 m 0 -1" fill="#000" stroke="none" fill-rule="nonzero" fill-opacity="1"/><path d="m 17 15 c -0.555 0 -1.043 0.234 -1.406 0.594 c -0.359 0.363 -0.594 0.852 -0.594 1.406 l 0 13 c 0 1 1.609 1.602 2.594 2 c 1.699 0.613 4.496 1 6.406 1 c 1.91 0 4.707 -0.387 6.406 -1 c 1.34 -0.434 2.594 -1 2.594 -2 l 0 -13 c 0 -0.555 -0.23 -1.043 -0.594 -1.406 c -0.359 -0.359 -0.852 -0.594 -1.406 -0.594 m -14 0" fill="#000" stroke="none" fill-rule="nonzero" fill-opacity="1"/><path d="m 17 16 l 14 0 c 0.551 0 1 0.449 1 1 l 0 10 c 0 0.551 -0.449 0.996 -1 0.996 l -14 0 c -0.551 0 -1 -0.445 -1 -0.996 l 0 -10 c 0 -0.551 0.449 -1 1 -1 m 0 0" fill="#000" stroke="none" fill-rule="nonzero" fill-opacity="1"/><path d="m 17 29 l 14 0 l 0 1 l -14 0 m 0 -1" fill="#000" stroke="none" fill-rule="nonzero" fill-opacity="1"/><path d="m 10 16 l 2 0 l 0 2 l 2 0 l 0 2 l -2 0 l 0 2 l -2 0 l 0 -2 l -2 0 l 0 -2 l 2 0 m 0 -2" fill="#000" stroke="none" fill-rule="nonzero" fill-opacity="1"/><path d="m 14 29 c 0 0.551 -0.449 1 -1 1 c -0.551 0 -1 -0.449 -1 -1 c 0 -0.551 0.449 -1 1 -1 c 0.551 0 1 0.449 1 1 m 0 0" fill="#000" stroke="none" fill-rule="nonzero" fill-opacity="1"/><path d="m 14 26 c 0 0.551 -0.449 1 -1 1 c -0.551 0 -1 -0.449 -1 -1 c 0 -0.551 0.449 -1 1 -1 c 0.551 0 1 0.449 1 1 m 0 0" fill="#000" stroke="none" fill-rule="nonzero" fill-opacity="1"/><path d="m 37 21.5 c 0 0.828 -0.672 1.5 -1.5 1.5 c -0.828 0 -1.5 -0.672 -1.5 -1.5 c 0 -0.828 0.672 -1.5 1.5 -1.5 c 0.828 0 1.5 0.672 1.5 1.5 m 0 0" fill="#000" stroke="none" fill-rule="nonzero" fill-opacity="1"/><path d="m 40 19.5 c 0 0.828 -0.672 1.5 -1.5 1.5 c -0.828 0 -1.5 -0.672 -1.5 -1.5 c 0 -0.828 0.672 -1.5 1.5 -1.5 c 0.828 0 1.5 0.672 1.5 1.5 m 0 0" fill="#000" stroke="none" fill-rule="nonzero" fill-opacity="1"/><path d="m 34 29 l 4 0 l 0 1 l -4 0 m 0 -1" fill="#000" stroke="none" fill-rule="nonzero" fill-opacity="1"/><path d="m 34 27.02 l 5 0 l 0 1 l -5 0 m 0 -1" fill="#000" stroke="none" fill-rule="nonzero" fill-opacity="1"/><path d="m 34 25 l 6 0 l 0 1 l -6 0 m 0 -1" fill="#000" stroke="none" fill-rule="nonzero" fill-opacity="1"/></g></g></g></g></g><g><g clip-path="url(#clipPath-077345876)"><!-- color: #e9df4b --><g><path d="m 10 14 c -1.66 0 -3 1.34 -3 3 l 0 14 c 0 1.664 1.34 3 3 3 l 5.406 0 c 2.613 1.254 5.504 2 8.594 2 c 3.09 0 5.98 -0.746 8.594 -2 l 5.406 0 c 1.664 0 3 -1.336 3 -3 l 0 -14 c 0 -1.66 -1.336 -3 -3 -3 l -4 0 l -2 -2 l -16 0 l -2 2 m -4 0" fill="#7644a8" stroke="none" fill-rule="nonzero" fill-opacity="1"/><path d="m 19 13 l 10 0 l 0 1 l -10 0 m 0 -1" fill="#333" stroke="none" fill-rule="nonzero" fill-opacity="1"/><path d="m 17 15 c -0.555 0 -1.043 0.234 -1.406 0.594 c -0.359 0.363 -0.594 0.852 -0.594 1.406 l 0 13 c 0 1 1.609 1.602 2.594 2 c 1.699 0.613 4.496 1 6.406 1 c 1.91 0 4.707 -0.387 6.406 -1 c 1.34 -0.434 2.594 -1 2.594 -2 l 0 -13 c 0 -0.555 -0.23 -1.043 -0.594 -1.406 c -0.359 -0.359 -0.852 -0.594 -1.406 -0.594 m -14 0" fill="#333" stroke="none" fill-rule="nonzero" fill-opacity="1"/><path d="m 17 16 l 14 0 c 0.551 0 1 0.449 1 1 l 0 10 c 0 0.551 -0.449 0.996 -1 0.996 l -14 0 c -0.551 0 -1 -0.445 -1 -0.996 l 0 -10 c 0 -0.551 0.449 -1 1 -1 m 0 0" fill="#49b9b9" stroke="none" fill-rule="nonzero" fill-opacity="1"/><path d="m 17 29 l 14 0 l 0 1 l -14 0 m 0 -1" fill="#f9f9f9" stroke="none" fill-rule="nonzero" fill-opacity="1"/><path d="m 10 16 l 2 0 l 0 2 l 2 0 l 0 2 l -2 0 l 0 2 l -2 0 l 0 -2 l -2 0 l 0 -2 l 2 0 m 0 -2" fill="#f9f9f9" stroke="none" fill-rule="nonzero" fill-opacity="1"/><path d="m 14 29 c 0 0.551 -0.449 1 -1 1 c -0.551 0 -1 -0.449 -1 -1 c 0 -0.551 0.449 -1 1 -1 c 0.551 0 1 0.449 1 1 m 0 0" fill="#f9f9f9" stroke="none" fill-rule="nonzero" fill-opacity="1"/><path d="m 14 26 c 0 0.551 -0.449 1 -1 1 c -0.551 0 -1 -0.449 -1 -1 c 0 -0.551 0.449 -1 1 -1 c 0.551 0 1 0.449 1 1 m 0 0" fill="#f9f9f9" stroke="none" fill-rule="nonzero" fill-opacity="1"/><path d="m 37 21.5 c 0 0.828 -0.672 1.5 -1.5 1.5 c -0.828 0 -1.5 -0.672 -1.5 -1.5 c 0 -0.828 0.672 -1.5 1.5 -1.5 c 0.828 0 1.5 0.672 1.5 1.5 m 0 0" fill="#f9f9f9" stroke="none" fill-rule="nonzero" fill-opacity="1"/><path d="m 40 19.5 c 0 0.828 -0.672 1.5 -1.5 1.5 c -0.828 0 -1.5 -0.672 -1.5 -1.5 c 0 -0.828 0.672 -1.5 1.5 -1.5 c 0.828 0 1.5 0.672 1.5 1.5 m 0 0" fill="#f9f9f9" stroke="none" fill-rule="nonzero" fill-opacity="1"/><path d="m 34 29 l 4 0 l 0 1 l -4 0 m 0 -1" fill="#333" stroke="none" fill-rule="nonzero" fill-opacity="1"/><path d="m 34 27.02 l 5 0 l 0 1 l -5 0 m 0 -1" fill="#333" stroke="none" fill-rule="nonzero" fill-opacity="1"/><path d="m 34 25 l 6 0 l 0 1 l -6 0 m 0 -1" fill="#333" stroke="none" fill-rule="nonzero" fill-opacity="1"/></g></g></g><g><path d="m 40.03 7.531 c 3.712 4.084 5.969 9.514 5.969 15.469 0 12.703 -10.297 23 -23 23 c -5.954 0 -11.384 -2.256 -15.469 -5.969 4.178 4.291 10.01 6.969 16.469 6.969 c 12.703 0 23 -10.298 23 -23 0 -6.462 -2.677 -12.291 -6.969 -16.469 z" opacity="0.1"/></g></svg>