<?xml version="1.0" encoding="UTF-8" standalone="no"?>
<svg
   xmlns:dc="http://purl.org/dc/elements/1.1/"
   xmlns:cc="http://creativecommons.org/ns#"
   xmlns:rdf="http://www.w3.org/1999/02/22-rdf-syntax-ns#"
   xmlns:svg="http://www.w3.org/2000/svg"
   xmlns="http://www.w3.org/2000/svg"
   xmlns:xlink="http://www.w3.org/1999/xlink"
   xmlns:sodipodi="http://sodipodi.sourceforge.net/DTD/sodipodi-0.dtd"
   xmlns:inkscape="http://www.inkscape.org/namespaces/inkscape"
   width="48"
   viewBox="0 0 13.546667 13.546667"
   height="48"
   id="svg2"
   version="1.1"
   inkscape:version="0.48.4 r9939"
   sodipodi:docname="vbam.svg"
   inkscape:export-filename="/home/nathanel/GitHub/vbam.png"
   inkscape:export-xdpi="391.31"
   inkscape:export-ydpi="391.31">
  <metadata
     id="metadata24">
    <rdf:RDF>
      <cc:Work
         rdf:about="">
        <dc:format>image/svg+xml</dc:format>
        <dc:type
           rdf:resource="http://purl.org/dc/dcmitype/StillImage" />
        <dc:title></dc:title>
      </cc:Work>
    </rdf:RDF>
  </metadata>
  <sodipodi:namedview
     pagecolor="#ffffff"
     bordercolor="#666666"
     borderopacity="1"
     objecttolerance="10"
     gridtolerance="10"
     guidetolerance="10"
     inkscape:pageopacity="0"
     inkscape:pageshadow="2"
     inkscape:window-width="1600"
     inkscape:window-height="855"
     id="namedview22"
     showgrid="true"
     inkscape:zoom="14.333333"
     inkscape:cx="15.872093"
     inkscape:cy="24"
     inkscape:window-x="0"
     inkscape:window-y="22"
     inkscape:window-maximized="1"
     inkscape:current-layer="svg2">
    <inkscape:grid
       type="xygrid"
       id="grid3774" />
  </sodipodi:namedview>
  <defs
     id="defs4">
    <linearGradient
       id="linearGradient4460">
      <stop
         offset="0"
         style="stop-color:#d6d126;stop-opacity:1;"
         id="stop7" />
      <stop
         offset="1"
         style="stop-color:#e9df4b;stop-opacity:1;"
         id="stop9" />
    </linearGradient>
    <linearGradient
       gradientTransform="matrix(1.10525,0,0,1.10525,-134.27874,-295.76183)"
       xlink:href="#linearGradient4460"
       id="linearGradient3002"
       y1="279.096"
       y2="268.33"
       gradientUnits="userSpaceOnUse"
       x2="0" />
    <linearGradient
       inkscape:collect="always"
       xlink:href="#linearGradient4460"
       id="linearGradient3777"
       gradientUnits="userSpaceOnUse"
       gradientTransform="matrix(1.10525,0,0,1.10525,-134.27874,-295.76183)"
       y1="279.096"
       x2="0"
       y2="268.33" />
  </defs>
  <rect
     id="rect14"
     style="opacity:0.5;fill:#ffffff;fill-rule:evenodd"
     height="12.982"
     rx="6.4910002"
     y="0.28200001"
     x="0.28200001"
     width="12.982" />
  <rect
     id="rect16"
     style="fill:url(#linearGradient3777);fill-rule:evenodd"
     height="11.853"
     rx="5.9260001"
     y="0.847"
     x="0.847"
     width="11.853" />
  <g
     id="g3844"
     transform="translate(13.546833,0.56461079)">
    <path
       sodipodi:nodetypes="sssscscssssccccs"
       inkscape:connector-curvature="0"
       id="rect3021"
       transform="scale(0.28222223,0.28222223)"
       d="m -38,12 c -1.662001,0 -3,1.337999 -3,3 l 0,14 c 0,1.662001 1.337999,3 3,3 l 5.40625,0 c 2.612659,1.25154 5.503371,2 8.59375,2 3.090379,0 5.981091,-0.74846 8.59375,-2 L -10,32 c 1.6620012,0 3,-1.337999 3,-3 l 1e-7,-14 c 0,-1.662001 -1.3379988,-3 -3.0000001,-3 l -4,0 -2,-2 -16,0 -2,2 z"
       style="fill:#7644a8;fill-opacity:1;stroke:none" />
    <path
       sodipodi:nodetypes="ccccc"
       transform="scale(0.28222223,0.28222223)"
       inkscape:connector-curvature="0"
       id="path3807"
       d="m -29,11 10,0 0,1 -10,0 z"
       style="fill:#333333;stroke:none" />
    <path
       sodipodi:nodetypes="sssccsccssss"
       inkscape:connector-curvature="0"
       id="path3818"
       transform="scale(0.28222223,0.28222223)"
       d="m -31,13 c -0.554,0 -1.04475,0.23225 -1.40625,0.59375 C -32.76775,13.95525 -33,14.446 -33,15 l 0,13 c 0,1 1.606879,1.601241 2.59375,2 1.698517,0.614147 4.495856,1 6.40625,1 1.910394,0 4.707733,-0.385853 6.40625,-1 C -16.256094,29.56636 -15,29 -15,28 l 0,-13 c 0,-0.554 -0.23225,-1.04475 -0.59375,-1.40625 C -15.95525,13.23225 -16.446,13 -17,13 z"
       style="fill:#333333;fill-opacity:1;stroke:none" />
    <rect
       rx="0.28222203"
       y="3.9511111"
       x="-9.0311117"
       height="3.3866668"
       width="4.5155559"
       id="rect3821"
       style="fill:#49bcbc;fill-opacity:1;stroke:none" />
    <path
       style="fill:#f9f9f9;stroke:none"
       d="m -8.7488891,7.6200002 3.9511112,0 0,0.2822222 -3.9511112,0 z"
       id="path3824"
       inkscape:connector-curvature="0"
       sodipodi:nodetypes="ccccc" />
    <path
       transform="scale(0.28222223,0.28222223)"
       inkscape:connector-curvature="0"
       id="path3826"
       d="m -38,14 2,0 0,2 2,0 0,2 -2,0 0,2 -2,0 0,-2 -2,0 0,-2 2,0 z"
       style="fill:#f9f9f9;stroke:none" />
    <path
       transform="matrix(0.28222223,0,0,0.28222223,2.9166666e-8,0.56444444)"
       d="m -34,25 c 0,0.552285 -0.447715,1 -1,1 -0.552285,0 -1,-0.447715 -1,-1 0,-0.552285 0.447715,-1 1,-1 0.552285,0 1,0.447715 1,1 z"
       sodipodi:ry="1"
       sodipodi:rx="1"
       sodipodi:cy="25"
       sodipodi:cx="-35"
       id="path3828"
       style="fill:#f9f9f9;fill-opacity:1;stroke:none"
       sodipodi:type="arc" />
    <path
       sodipodi:type="arc"
       style="fill:#f9f9f9;fill-opacity:1;stroke:none"
       id="path3830"
       sodipodi:cx="-35"
       sodipodi:cy="25"
       sodipodi:rx="1"
       sodipodi:ry="1"
       d="m -34,25 c 0,0.552285 -0.447715,1 -1,1 -0.552285,0 -1,-0.447715 -1,-1 0,-0.552285 0.447715,-1 1,-1 0.552285,0 1,0.447715 1,1 z"
       transform="matrix(0.28222223,0,0,0.28222223,2.9166666e-8,-0.28222225)" />
    <path
       transform="matrix(0.42333337,0,0,0.42333337,11.28889,-5.0800008)"
       d="m -34,25 c 0,0.552285 -0.447715,1 -1,1 -0.552285,0 -1,-0.447715 -1,-1 0,-0.552285 0.447715,-1 1,-1 0.552285,0 1,0.447715 1,1 z"
       sodipodi:ry="1"
       sodipodi:rx="1"
       sodipodi:cy="25"
       sodipodi:cx="-35"
       id="path3832"
       style="fill:#f9f9f9;fill-opacity:1;stroke:none"
       sodipodi:type="arc" />
    <path
       sodipodi:type="arc"
       style="fill:#f9f9f9;fill-opacity:1;stroke:none"
       id="path3834"
       sodipodi:cx="-35"
       sodipodi:cy="25"
       sodipodi:rx="1"
       sodipodi:ry="1"
       d="m -34,25 c 0,0.552285 -0.447715,1 -1,1 -0.552285,0 -1,-0.447715 -1,-1 0,-0.552285 0.447715,-1 1,-1 0.552285,0 1,0.447715 1,1 z"
       transform="matrix(0.42333337,0,0,0.42333337,12.135557,-5.6444453)" />
    <path
       style="fill:#333333;stroke:none"
       d="m -3.9511112,7.6200002 1.1288889,0 0,0.2822222 -1.1288889,0 z"
       id="path3838"
       inkscape:connector-curvature="0"
       sodipodi:nodetypes="ccccc" />
    <path
       sodipodi:nodetypes="ccccc"
       inkscape:connector-curvature="0"
       id="path3840"
       d="m -3.9511112,7.0555557 1.4111111,0 0,0.2822222 -1.4111111,0 z"
       style="fill:#333333;stroke:none" />
    <path
       style="fill:#333333;stroke:none"
       d="m -3.9511112,6.4911113 1.6933334,0 0,0.2822222 -1.6933334,0 z"
       id="path3842"
       inkscape:connector-curvature="0"
       sodipodi:nodetypes="ccccc" />
  </g>
</svg>
