<svg xmlns="http://www.w3.org/2000/svg" width="48" viewBox="0 0 13.546667 13.546667" height="48"><defs><radialGradient cx="-3" cy="24" r="10" gradientUnits="userSpaceOnUse"><stop stop-color="#91b0c7"/><stop offset="1" stop-color="#91b0c7" stop-opacity="0"/></radialGradient><linearGradient id="linearGradient4079" y1="15" x2="0" y2="11" gradientUnits="userSpaceOnUse"><stop stop-color="#99c8ed" stop-opacity="1"/><stop offset="1" stop-color="#aad2f0" stop-opacity="1"/></linearGradient><linearGradient id="linearGradient3843" y1="13" x2="0" y2="31" gradientUnits="userSpaceOnUse" gradientTransform="matrix(0.9587455,0,0,0.97514518,0.98996259,0.60596513)"><stop stop-color="#5ab133" stop-opacity="1"/><stop offset="1" stop-color="#54a630" stop-opacity="1"/></linearGradient></defs><g><path d="m 25 2 c -12.703 0 -23 10.297 -23 23 0 6.367 2.601 12.12 6.781 16.281 4.085 3.712 9.514 5.969 15.469 5.969 c 12.703 0 23 -10.297 23 -23 0 -5.954 -2.256 -11.384 -5.969 -15.469 c -4.165 -4.181 -9.914 -6.781 -16.281 -6.781 z m 16.281 6.781 c 3.854 4.113 6.219 9.637 6.219 15.719 c 0 12.703 -10.297 23 -23 23 c -6.081 0 -11.606 -2.364 -15.719 -6.219 4.16 4.144 9.883 6.719 16.219 6.719 12.703 0 23 -10.297 23 -23 0 -6.335 -2.575 -12.06 -6.719 -16.219 z" transform="scale(0.28222223,0.28222223)" opacity="0.05" fill="#000" stroke="none" fill-opacity="1"/><path d="m 41.28 8.781 c 3.712 4.085 5.969 9.514 5.969 15.469 c 0 12.703 -10.297 23 -23 23 -5.954 0 -11.384 -2.256 -15.469 -5.969 c 4.113 3.854 9.637 6.219 15.719 6.219 c 12.703 0 23 -10.297 23 -23 0 -6.081 -2.364 -11.606 -6.219 -15.719 z" transform="scale(0.28222223,0.28222223)" opacity="0.1" fill="#000" stroke="none" fill-opacity="1"/><path transform="matrix(4.3274074,0,0,3.2455556,117.19278,-35.348334)" d="m -24 13 a 1.5 2 0 1 1 -3 0 1.5 2 0 1 1 3 0 z" opacity="0.2" fill="#000" stroke="none" fill-opacity="1"/></g><g><path d="m -24 13 a 1.5 2 0 1 1 -3 0 1.5 2 0 1 1 3 0 z" transform="matrix(4.3274075,0,0,3.2455556,117.12222,-35.418889)" opacity="1" fill="url(#linearGradient4079)" stroke="none" fill-opacity="1"/><path d="m 40.03 7.531 c 3.712 4.085 5.969 9.514 5.969 15.469 c 0 12.703 -10.297 23 -23 23 c -5.954 0 -11.384 -2.256 -15.469 -5.969 c 4.178 4.291 10.01 6.969 16.469 6.969 c 12.703 0 23 -10.297 23 -23 c 0 -6.462 -2.677 -12.291 -6.969 -16.469 z" transform="scale(0.28222223,0.28222223)" opacity="0.1" fill="#000" stroke="none" fill-opacity="1"/><g><rect rx="0.579" ry="0.552" height="7.338" width="5.644" y="3.387" x="4.233" fill="#000" fill-opacity="0.118"/><g transform="scale(0.28222223,0.28222223)"><g><rect x="14" y="11" width="20" height="26" ry="1.955" rx="2.052" fill="#373737" fill-opacity="1"/><rect x="15" y="12" width="18" height="20" ry="1.995" rx="2.073" fill="#666"/><g><rect rx="1.968" ry="1.907" height="18" width="16" y="13" x="16" fill="url(#linearGradient3843)" fill-opacity="1"/><path d="m 32 22 -16 4 0 2 16 -4 z" fill="#ffe68e" fill-opacity="1"/></g></g><g><path d="m 24.508 25.5 c -0.221 -1.124 -0.614 -2.06 -1.089 -2.926 -0.352 -0.642 -0.76 -1.236 -1.137 -1.859 -0.125 -0.209 -0.235 -0.427 -0.354 -0.644 -0.242 -0.431 -0.439 -0.932 -0.427 -1.581 0.011 -0.636 0.191 -1.144 0.448 -1.561 0.421 -0.684 1.129 -1.246 2.08 -1.393 0.775 -0.121 1.505 0.083 2.02 0.395 0.421 0.252 0.749 0.592 0.996 0.993 0.26 0.417 0.439 0.91 0.454 1.554 0.008 0.33 -0.046 0.636 -0.119 0.888 -0.075 0.256 -0.195 0.471 -0.302 0.699 -0.208 0.447 -0.469 0.856 -0.733 1.265 -0.781 1.22 -1.516 2.466 -1.837 4.17 m 0 0" fill="#000" fill-rule="evenodd" stroke="none" fill-opacity="0.098"/><path d="m 24.01 25 c -0.221 -1.124 -0.614 -2.06 -1.089 -2.926 -0.352 -0.642 -0.76 -1.236 -1.137 -1.859 -0.125 -0.209 -0.235 -0.427 -0.354 -0.644 -0.242 -0.431 -0.439 -0.932 -0.427 -1.581 0.011 -0.636 0.191 -1.144 0.448 -1.561 0.421 -0.684 1.129 -1.246 2.08 -1.393 0.775 -0.121 1.505 0.083 2.02 0.395 0.421 0.252 0.749 0.592 0.996 0.993 0.26 0.417 0.439 0.91 0.454 1.554 0.008 0.33 -0.046 0.636 -0.119 0.888 -0.075 0.256 -0.195 0.471 -0.302 0.699 -0.208 0.447 -0.469 0.856 -0.733 1.265 c -0.781 1.22 -1.516 2.466 -1.837 4.17 m 0 0" fill="#f3533d" fill-rule="evenodd" stroke="none" fill-opacity="1"/><path d="m 25.4 18.1 c 0 0.773 -0.626 1.4 -1.399 1.4 c -0.774 0 -1.401 -0.627 -1.401 -1.4 c 0 -0.773 0.628 -1.4 1.401 -1.4 0.774 0 1.399 0.627 1.399 1.4 m 0 0" fill="#c12f20" fill-rule="evenodd" stroke="none" fill-opacity="1"/></g></g></g></g></svg>