<?xml version="1.0" encoding="UTF-8" standalone="no"?>
<svg
   xmlns:dc="http://purl.org/dc/elements/1.1/"
   xmlns:cc="http://creativecommons.org/ns#"
   xmlns:rdf="http://www.w3.org/1999/02/22-rdf-syntax-ns#"
   xmlns:svg="http://www.w3.org/2000/svg"
   xmlns="http://www.w3.org/2000/svg"
   xmlns:xlink="http://www.w3.org/1999/xlink"
   xmlns:sodipodi="http://sodipodi.sourceforge.net/DTD/sodipodi-0.dtd"
   xmlns:inkscape="http://www.inkscape.org/namespaces/inkscape"
   viewBox="0 0 48 48"
   id="svg2"
   version="1.1"
   inkscape:version="0.48.4 r9939"
   width="100%"
   height="100%"
   sodipodi:docname="web-pocket.svg">
  <metadata
     id="metadata79">
    <rdf:RDF>
      <cc:Work
         rdf:about="">
        <dc:format>image/svg+xml</dc:format>
        <dc:type
           rdf:resource="http://purl.org/dc/dcmitype/StillImage" />
      </cc:Work>
    </rdf:RDF>
  </metadata>
  <sodipodi:namedview
     pagecolor="#ffffff"
     bordercolor="#666666"
     borderopacity="1"
     objecttolerance="10"
     gridtolerance="10"
     guidetolerance="10"
     inkscape:pageopacity="0"
     inkscape:pageshadow="2"
     inkscape:window-width="640"
     inkscape:window-height="480"
     id="namedview77"
     showgrid="false"
     inkscape:zoom="6.9532167"
     inkscape:cx="33.969308"
     inkscape:cy="22.080285"
     inkscape:window-x="429"
     inkscape:window-y="204"
     inkscape:window-maximized="0"
     inkscape:current-layer="svg2" />
  <defs
     id="defs4">
    <linearGradient
       id="linearGradient3764"
       x1="1"
       x2="47"
       gradientUnits="userSpaceOnUse"
       gradientTransform="matrix(0,-1,1,0,-1.5e-6,47.999998)">
      <stop
         stop-color="#eee"
         stop-opacity="1"
         id="stop7" />
      <stop
         offset="1"
         stop-color="#f8f8f8"
         stop-opacity="1"
         id="stop9" />
    </linearGradient>
    <clipPath
       id="clipPath-539829792">
      <g
         transform="translate(0,-1004.3622)"
         id="g12">
        <path
           d="m -24 13 c 0 1.105 -0.672 2 -1.5 2 -0.828 0 -1.5 -0.895 -1.5 -2 0 -1.105 0.672 -2 1.5 -2 0.828 0 1.5 0.895 1.5 2 z"
           transform="matrix(15.333333,0,0,11.5,414.99999,878.8622)"
           fill="#1890d0"
           id="path14" />
      </g>
    </clipPath>
    <clipPath
       id="clipPath-551390488">
      <g
         transform="translate(0,-1004.3622)"
         id="g17">
        <path
           d="m -24 13 c 0 1.105 -0.672 2 -1.5 2 -0.828 0 -1.5 -0.895 -1.5 -2 0 -1.105 0.672 -2 1.5 -2 0.828 0 1.5 0.895 1.5 2 z"
           transform="matrix(15.333333,0,0,11.5,414.99999,878.8622)"
           fill="#1890d0"
           id="path19" />
      </g>
    </clipPath>
    <linearGradient
       inkscape:collect="always"
       xlink:href="#linearGradient3764"
       id="linearGradient3080"
       gradientUnits="userSpaceOnUse"
       gradientTransform="matrix(0,-1,1,0,-1.5e-6,47.999998)"
       x1="1"
       x2="47" />
    <linearGradient
       inkscape:collect="always"
       xlink:href="#linearGradient3764"
       id="linearGradient3088"
       gradientUnits="userSpaceOnUse"
       gradientTransform="matrix(0,-1,1,0,-1.5e-6,47.999998)"
       x1="1"
       x2="47" />
    <linearGradient
       inkscape:collect="always"
       xlink:href="#linearGradient3764"
       id="linearGradient3096"
       gradientUnits="userSpaceOnUse"
       gradientTransform="matrix(0,-1,1,0,-1.5e-6,47.999998)"
       x1="1"
       x2="47" />
    <linearGradient
       inkscape:collect="always"
       xlink:href="#linearGradient3764"
       id="linearGradient3099"
       gradientUnits="userSpaceOnUse"
       gradientTransform="matrix(0,-1,1,0,-1.5e-6,47.999998)"
       x1="1"
       x2="47" />
    <linearGradient
       inkscape:collect="always"
       xlink:href="#linearGradient3764"
       id="linearGradient3102"
       gradientUnits="userSpaceOnUse"
       gradientTransform="matrix(0,-1,1,0,-1.5e-6,47.999998)"
       x1="1"
       x2="47" />
    <linearGradient
       inkscape:collect="always"
       xlink:href="#linearGradient3764"
       id="linearGradient3105"
       gradientUnits="userSpaceOnUse"
       gradientTransform="matrix(0,-1,1,0,-1.5e-6,47.999998)"
       x1="1"
       x2="47" />
    <linearGradient
       inkscape:collect="always"
       xlink:href="#linearGradient3764"
       id="linearGradient3108"
       gradientUnits="userSpaceOnUse"
       gradientTransform="matrix(0,-1,1,0,-1.5e-6,47.999998)"
       x1="1"
       x2="47" />
    <linearGradient
       inkscape:collect="always"
       xlink:href="#linearGradient3764"
       id="linearGradient3111"
       gradientUnits="userSpaceOnUse"
       gradientTransform="matrix(0,-1,1,0,-1.5e-6,47.999998)"
       x1="1"
       x2="47" />
    <linearGradient
       inkscape:collect="always"
       xlink:href="#linearGradient3764"
       id="linearGradient3120"
       gradientUnits="userSpaceOnUse"
       gradientTransform="matrix(0,-1,1,0,-1.5e-6,47.999998)"
       x1="1"
       x2="47" />
    <linearGradient
       inkscape:collect="always"
       xlink:href="#linearGradient3764"
       id="linearGradient3123"
       gradientUnits="userSpaceOnUse"
       gradientTransform="matrix(0,-1,1,0,-1.5e-6,47.999998)"
       x1="1"
       x2="47" />
    <linearGradient
       inkscape:collect="always"
       xlink:href="#linearGradient3764"
       id="linearGradient3132"
       gradientUnits="userSpaceOnUse"
       gradientTransform="matrix(0,-1,1,0,-1.5e-6,47.999998)"
       x1="1"
       x2="47" />
    <linearGradient
       inkscape:collect="always"
       xlink:href="#linearGradient3764"
       id="linearGradient3135"
       gradientUnits="userSpaceOnUse"
       gradientTransform="matrix(0,-1,1,0,-1.5e-6,47.999998)"
       x1="1"
       x2="47" />
    <linearGradient
       inkscape:collect="always"
       xlink:href="#linearGradient3764"
       id="linearGradient3142"
       gradientUnits="userSpaceOnUse"
       gradientTransform="matrix(0,-1,1,0,-1.5e-6,47.999998)"
       x1="1"
       x2="47" />
    <linearGradient
       inkscape:collect="always"
       xlink:href="#linearGradient3764"
       id="linearGradient3149"
       gradientUnits="userSpaceOnUse"
       gradientTransform="matrix(0,-1,1,0,-1.5e-6,47.999998)"
       x1="1"
       x2="47" />
    <linearGradient
       inkscape:collect="always"
       xlink:href="#linearGradient3764"
       id="linearGradient3156"
       gradientUnits="userSpaceOnUse"
       gradientTransform="matrix(0,-1,1,0,-1.5e-6,47.999998)"
       x1="1"
       x2="47" />
  </defs>
  <g
     id="g21">
    <g
       transform="translate(0,-1004.3622)"
       id="g23">
      <path
         d="m 25 1006.36 c -12.703 0 -23 10.298 -23 23 0 6.367 2.601 12.12 6.781 16.281 4.085 3.712 9.514 5.969 15.469 5.969 12.703 0 23 -10.297 23 -23 0 -5.954 -2.256 -11.384 -5.969 -15.469 -4.165 -4.181 -9.914 -6.781 -16.281 -6.781 z m 16.281 6.781 c 3.854 4.113 6.219 9.637 6.219 15.719 0 12.703 -10.297 23 -23 23 -6.081 0 -11.606 -2.364 -15.719 -6.219 4.16 4.144 9.883 6.719 16.219 6.719 12.703 0 23 -10.297 23 -23 0 -6.335 -2.575 -12.06 -6.719 -16.219 z"
         opacity="0.05"
         id="path25" />
      <path
         d="m 41.28 1013.14 c 3.712 4.085 5.969 9.514 5.969 15.469 0 12.703 -10.297 23 -23 23 -5.954 0 -11.384 -2.256 -15.469 -5.969 4.113 3.854 9.637 6.219 15.719 6.219 12.703 0 23 -10.297 23 -23 0 -6.081 -2.364 -11.606 -6.219 -15.719 z"
         opacity="0.1"
         id="path27" />
      <path
         transform="matrix(15.333333,0,0,11.5,415.24999,879.11222)"
         d="m -24 13 a 1.5 2 0 1 1 -3 0 1.5 2 0 1 1 3 0 z"
         opacity="0.2"
         id="path29" />
    </g>
  </g>
  <path
     style="fill:url(#linearGradient3156);fill-opacity:1"
     d="M 26.71875 1.15625 C 27.13228 1.2061049 27.531095 1.2719359 27.9375 1.34375 C 27.533937 1.2739596 27.129228 1.2047157 26.71875 1.15625 z M 12.53125 4.09375 C 11.577146 4.6439612 10.673872 5.2293403 9.8125 5.90625 C 10.674197 5.2338454 11.576772 4.6418925 12.53125 4.09375 z M 7.375 8.125 C 6.9988336 8.5187948 6.6289469 8.924061 6.28125 9.34375 C 6.6306118 8.9238707 6.9968893 8.5182562 7.375 8.125 z M 4.375 12 C 2.2397629 15.490394 1 19.608474 1 24 C 1 36.703 11.297 47 24 47 C 36.703 47 47 36.703 47 24 C 47 19.597163 45.741408 15.489862 43.59375 12 L 34 12 L 24 12 L 14 12 L 4.375 12 z "
     id="path33" />
  <g
     id="g35" />
  <g
     id="g37">
    <g
       clip-path="url(#clipPath-539829792)"
       id="g39">
      <g
         transform="translate(0,1)"
         id="g41">
        <g
           opacity="0.1"
           id="g43">
          <!-- color: #f8f8f8 -->
          <g
             id="g45">
            <path
               d="M 14 0 C 12 0 2 0 0 0 C 0 3 0 10 0 12 L 14 12 Z M 14 0 "
               fill="#000"
               stroke="none"
               fill-rule="nonzero"
               fill-opacity="1"
               id="path47" />
            <path
               d="m 24 0 c -3.586 0 -7 0 -10 0 l 0 12 l 10 0 m 0 -12"
               fill="#000"
               stroke="none"
               fill-rule="nonzero"
               fill-opacity="1"
               id="path49" />
            <path
               d="m 24 0 l 0 12 l 10 0 l 0 -12 c -3 0 -7 0 -10 0 m 0 0"
               fill="#000"
               stroke="none"
               fill-rule="nonzero"
               fill-opacity="1"
               id="path51" />
            <path
               d="m 34 0 l 0 12 l 14 0 c 0 -2 0 -10 0 -12 c -3 0 -11 0 -14 0 m 0 0"
               fill="#000"
               stroke="none"
               fill-rule="nonzero"
               fill-opacity="1"
               id="path53" />
            <path
               d="m 14.402 17 c -1.086 0 -2.133 0.168 -2.754 0.926 c -0.953 1.16 -0.648 3.074 -0.648 4.891 c 0 2.141 -0.066 4.43 0.348 6.543 c 0.441 2.258 1.996 4.723 3.754 6.254 c 1.273 1.109 2.637 1.898 4.215 2.539 c 1.543 0.57 3.02 0.832 4.57 0.848 c 1.422 0 2.852 -0.156 4.203 -0.617 c 1.375 -0.469 2.77 -1.137 3.93 -2 c 1.207 -0.98 2.172 -1.949 2.938 -3.164 c 0.559 -0.906 1.027 -1.891 1.375 -2.891 c 0.859 -2.488 0.668 -5.406 0.668 -7.992 c 0 -1.168 0.238 -3.281 -0.508 -4.27 c -1.125 -1.492 -3.641 -1.063 -5.492 -1.063 l -14 0 c -0.703 0 -1.754 0 -2.598 0 m 15.758 6.379 c 0.301 0 0.613 0.082 0.941 0.289 c 0.742 0.473 0.98 1.609 0.457 2.316 c -2.141 2.02 -4.926 5.504 -7.559 6.414 c -3 -1.813 -5.367 -4.09 -7.57 -6.484 c -0.66 -1.07 0.105 -2.348 1.313 -2.516 c 0.773 -0.109 1.32 0.355 1.859 0.813 c 1.379 1.316 3.191 3.273 4.398 3.789 c 1.465 -0.574 2.566 -2.055 3.816 -3.188 c 0.656 -0.625 1.441 -1.426 2.344 -1.434 m 0 0"
               fill="#000"
               stroke="none"
               fill-rule="nonzero"
               fill-opacity="1"
               id="path55" />
          </g>
        </g>
      </g>
    </g>
  </g>
  <path
     style="fill:#7febb8;fill-opacity:1;fill-rule:nonzero;stroke:none"
     d="M 14 3.3125 C 10.015564 5.2413146 6.6718282 8.2454592 4.375 12 L 14 12 L 14 3.3125 z "
     id="path63" />
  <path
     style="fill:#4cb8b2;fill-opacity:1;fill-rule:nonzero;stroke:none"
     d="M 24 1 C 20.412395 1 17.026033 1.8476361 14 3.3125 L 14 12 L 24 12 L 24 1 z "
     id="path65" />
  <path
     style="fill:#eb3d51;fill-opacity:1;fill-rule:nonzero;stroke:none"
     d="M 24 1 L 24 12 L 34 12 L 34 3.3125 C 30.973967 1.8476361 27.587605 1 24 1 z "
     id="path67" />
  <path
     style="fill:#fab24a;fill-opacity:1;fill-rule:nonzero;stroke:none"
     d="M 34 3.3125 L 34 12 L 43.625 12 C 41.328172 8.2454592 37.984436 5.2413146 34 3.3125 z "
     id="path69" />
  <path
     style="fill:#eb3d51;fill-opacity:1;fill-rule:nonzero;stroke:none"
     inkscape:connector-curvature="0"
     id="path71"
     d="m 14.402,17 c -1.086,0 -2.133,0.168 -2.754,0.926 C 10.695,19.086 11,21 11,22.817 c 0,2.141 -0.066,4.43 0.348,6.543 0.441,2.258 1.996,4.723 3.754,6.254 1.273,1.109 2.637,1.898 4.215,2.539 1.543,0.57 3.02,0.832 4.57,0.848 1.422,0 2.852,-0.156 4.203,-0.617 1.375,-0.469 2.77,-1.137 3.93,-2 1.207,-0.98 2.172,-1.949 2.938,-3.164 0.559,-0.906 1.027,-1.891 1.375,-2.891 0.859,-2.488 0.668,-5.406 0.668,-7.992 0,-1.168 0.238,-3.281 -0.508,-4.27 -1.125,-1.492 -3.641,-1.063 -5.492,-1.063 l -14,0 c -0.703,0 -1.754,0 -2.598,0 m 15.758,6.379 c 0.301,0 0.613,0.082 0.941,0.289 0.742,0.473 0.98,1.609 0.457,2.316 -2.141,2.02 -4.926,5.504 -7.559,6.414 -3,-1.813 -5.367,-4.09 -7.57,-6.484 -0.66,-1.07 0.105,-2.348 1.313,-2.516 0.773,-0.109 1.32,0.355 1.859,0.813 1.379,1.316 3.191,3.273 4.398,3.789 1.465,-0.574 2.566,-2.055 3.816,-3.188 0.656,-0.625 1.441,-1.426 2.344,-1.434 m 0,0" />
  <g
     id="g73">
    <path
       d="m 40.03 7.531 c 3.712 4.084 5.969 9.514 5.969 15.469 0 12.703 -10.297 23 -23 23 c -5.954 0 -11.384 -2.256 -15.469 -5.969 4.178 4.291 10.01 6.969 16.469 6.969 c 12.703 0 23 -10.298 23 -23 0 -6.462 -2.677 -12.291 -6.969 -16.469 z"
       opacity="0.1"
       id="path75" />
  </g>
</svg>
