<svg xmlns="http://www.w3.org/2000/svg" width="48" viewBox="0 0 13.546667 13.546667" height="48">
 <g transform="matrix(0,-1,-1,0,13.546,13.546)">
  <rect width="12.982" x="0.282" y="0.282" rx="6.491" height="12.982" opacity="0.5" fill="#ffffff" fill-rule="evenodd"/>
  <rect width="11.853" x="0.847" y="0.847" rx="5.926" height="11.853" fill="#f9f9f9" fill-rule="evenodd"/>
  <path d="m 6.77328,6.77328 0,5.92662 c 0.017382,1.51e-4 0.035499,0 0.052916,0 3.253925,0 5.873704,-2.643642 5.873704,-5.92662 l -5.9266203,0 z" fill="#ef6856" fill-rule="evenodd"/>
  <path d="m 6.77328,0.84666 0,5.92662 5.92662,0 c 0,-3.2829781 -2.619779,-5.92662 -5.8737037,-5.92662 -0.017418,0 -0.035534,-1.5116e-4 -0.052916,0 z" fill="#e1e1e1" fill-rule="evenodd"/>
  <path d="m 0.84666689,6.7733135 c 0,3.2829775 2.61977911,5.9266195 5.87370381,5.9266195 0.017419,0 0.035534,1.51e-4 0.052916,0 l 0,-5.9266195 -5.92662001,0 z" fill="#e1e1e1" fill-rule="evenodd"/>
  <path d="M 6.7203638,0.84666 C 3.4664391,0.84666 0.84666,3.4903019 0.84666,6.77328 l 5.92662,0 0,-5.92662 c -0.017382,-1.5116e-4 -0.035499,0 -0.052916,0 z" fill="#e1e1e1" fill-rule="evenodd"/>
  <path d="m 0.84666669,6.7733335 c -3.782e-5,0.093626 0,0.188496 0,0.2822222 l 11.85333331,0 c 0,-0.093726 3.8e-5,-0.188596 0,-0.2822222 l -11.85333331,0 z" fill="#aaaaaa"/>
  <path d="m 6.4911113,0.84666669 0,11.85333331 c 0.04685,1.7e-5 0.09425,0 0.1411111,0 0.046849,0 0.094285,1.7e-5 0.1411111,0 l 0,-11.85333331 c -0.04685,-1.682e-5 -0.09425,0 -0.1411111,0 -0.04685,0 -0.094285,-1.682e-5 -0.1411111,0 z" fill="#aaaaaa"/>
 </g>
</svg>
