<svg viewBox="0 0 48 48"><defs><linearGradient id="1" gradientUnits="userSpaceOnUse" y1="15" x2="0" y2="11" gradientTransform="matrix(15.333333,0,0,11.5,414.99999,-125.5)"><stop/><stop offset="1" stop-opacity="0"/></linearGradient><clipPath id="clipPath-092431268"><g transform="translate(0,-1004.3622)"><path d="m -24 13 c 0 1.105 -0.672 2 -1.5 2 -0.828 0 -1.5 -0.895 -1.5 -2 0 -1.105 0.672 -2 1.5 -2 0.828 0 1.5 0.895 1.5 2 z" transform="matrix(15.333333,0,0,11.5,414.99999,878.8622)" fill="#1890d0"/></g></clipPath><clipPath id="clipPath-100742219"><g transform="translate(0,-1004.3622)"><path d="m -24 13 c 0 1.105 -0.672 2 -1.5 2 -0.828 0 -1.5 -0.895 -1.5 -2 0 -1.105 0.672 -2 1.5 -2 0.828 0 1.5 0.895 1.5 2 z" transform="matrix(15.333333,0,0,11.5,414.99999,878.8622)" fill="#1890d0"/></g></clipPath></defs><g><g transform="translate(0,-1004.3622)"><path d="m 25 1006.36 c -12.703 0 -23 10.298 -23 23 0 6.367 2.601 12.12 6.781 16.281 4.085 3.712 9.514 5.969 15.469 5.969 12.703 0 23 -10.297 23 -23 0 -5.954 -2.256 -11.384 -5.969 -15.469 -4.165 -4.181 -9.914 -6.781 -16.281 -6.781 z m 16.281 6.781 c 3.854 4.113 6.219 9.637 6.219 15.719 0 12.703 -10.297 23 -23 23 -6.081 0 -11.606 -2.364 -15.719 -6.219 4.16 4.144 9.883 6.719 16.219 6.719 12.703 0 23 -10.297 23 -23 0 -6.335 -2.575 -12.06 -6.719 -16.219 z" opacity="0.05"/><path d="m 41.28 1013.14 c 3.712 4.085 5.969 9.514 5.969 15.469 0 12.703 -10.297 23 -23 23 -5.954 0 -11.384 -2.256 -15.469 -5.969 4.113 3.854 9.637 6.219 15.719 6.219 12.703 0 23 -10.297 23 -23 0 -6.081 -2.364 -11.606 -6.219 -15.719 z" opacity="0.1"/><path transform="matrix(15.333333,0,0,11.5,415.24999,879.11222)" d="m -24 13 a 1.5 2 0 1 1 -3 0 1.5 2 0 1 1 3 0 z" opacity="0.2"/></g></g><g><g transform="translate(0,-1004.3622)"><path d="m -24 13 c 0 1.105 -0.672 2 -1.5 2 -0.828 0 -1.5 -0.895 -1.5 -2 0 -1.105 0.672 -2 1.5 -2 0.828 0 1.5 0.895 1.5 2 z" transform="matrix(15.333333,0,0,11.5,414.99999,878.8622)" fill="#df443c"/></g></g><g><path d="m 47 24 c 0 12.703 -10.297 23 -23 23 -12.703 0 -23 -10.297 -23 -23 0 -12.703 10.297 -23 23 -23 12.703 0 23 10.297 23 23 z" opacity="0.15" fill="url(#1)"/></g><g><g clip-path="url(#clipPath-092431268)"><g transform="translate(0,1)"><g opacity="0.1"><!-- color: #df443c --><g><path d="m 18.363 16 c -0.059 0 -0.129 0.008 -0.207 0.012 c -0.301 0.02 -5.977 1.035 -6.34 1.137 c -0.383 0.109 -0.707 0.332 -0.785 0.543 c -0.137 0.363 0.258 1.535 0.773 2.324 c 0.895 1.359 2.195 2.223 4.93 3.277 c 1.504 0.578 1.816 0.727 2.01 0.945 c 0.262 0.293 0.047 0.43 -1.938 1.273 c -3.098 1.316 -4.496 2.434 -5.086 4.086 c -0.18 0.488 -0.258 1.781 -0.137 2.105 c 0.16 0.422 0.258 0.418 3.254 -0.129 c 3.01 -0.547 3.148 -0.578 3.402 -0.809 c 0.203 -0.184 0.215 -0.23 0.305 -1.109 c 0.047 -0.5 0.16 -1.129 0.234 -1.387 c 0.18 -0.602 0.633 -1.234 1.129 -1.57 c 1.879 -1.266 5.41 -0.633 7.324 1.309 c 0.719 0.727 1.172 1.508 1.535 2.641 c 0.207 0.656 0.422 0.941 0.746 1 c 0.301 0.059 0.309 0.059 4.141 -0.641 c 2.129 -0.387 3.01 -0.574 3.141 -0.672 c 0.27 -0.199 0.27 -0.688 0.004 -1.5 c -0.461 -1.398 -1.258 -2.41 -2.738 -3.484 c -0.734 -0.531 -1.656 -1.031 -3.223 -1.75 c -1.488 -0.684 -1.793 -0.867 -1.793 -1.078 c 0 -0.172 0.184 -0.25 1.363 -0.59 c 2.586 -0.742 3.594 -1.781 3.594 -3.707 c 0 -0.844 -0.164 -1.527 -0.426 -1.746 c -0.344 -0.297 -0.711 -0.305 -2.156 -0.055 c -4.633 0.801 -4.504 0.773 -4.715 1.105 c -0.113 0.18 -0.109 0.219 0.098 1.02 c 0.121 0.461 0.215 0.949 0.215 1.082 c 0 0.285 -0.199 0.758 -0.387 0.93 c -0.461 0.414 -1.508 0.695 -2.582 0.695 c -1.297 0 -2.27 -0.426 -3.242 -1.414 c -0.699 -0.719 -1.059 -1.32 -1.535 -2.59 c -0.418 -1.117 -0.48 -1.262 -0.91 -1.258 m 0 0" fill="#000" stroke="none" fill-rule="nonzero" fill-opacity="1"/></g></g></g></g></g><g><g clip-path="url(#clipPath-100742219)"><!-- color: #df443c --><g><path d="m 18.363 16 c -0.059 0 -0.129 0.008 -0.207 0.012 c -0.301 0.02 -5.977 1.035 -6.34 1.137 c -0.383 0.109 -0.707 0.332 -0.785 0.543 c -0.137 0.363 0.258 1.535 0.773 2.324 c 0.895 1.359 2.195 2.223 4.93 3.277 c 1.504 0.578 1.816 0.727 2.01 0.945 c 0.262 0.293 0.047 0.43 -1.938 1.273 c -3.098 1.316 -4.496 2.434 -5.086 4.086 c -0.18 0.488 -0.258 1.781 -0.137 2.105 c 0.16 0.422 0.258 0.418 3.254 -0.129 c 3.01 -0.547 3.148 -0.578 3.402 -0.809 c 0.203 -0.184 0.215 -0.23 0.305 -1.109 c 0.047 -0.5 0.16 -1.129 0.234 -1.387 c 0.18 -0.602 0.633 -1.234 1.129 -1.57 c 1.879 -1.266 5.41 -0.633 7.324 1.309 c 0.719 0.727 1.172 1.508 1.535 2.641 c 0.207 0.656 0.422 0.941 0.746 1 c 0.301 0.059 0.309 0.059 4.141 -0.641 c 2.129 -0.387 3.01 -0.574 3.141 -0.672 c 0.27 -0.199 0.27 -0.688 0.004 -1.5 c -0.461 -1.398 -1.258 -2.41 -2.738 -3.484 c -0.734 -0.531 -1.656 -1.031 -3.223 -1.75 c -1.488 -0.684 -1.793 -0.867 -1.793 -1.078 c 0 -0.172 0.184 -0.25 1.363 -0.59 c 2.586 -0.742 3.594 -1.781 3.594 -3.707 c 0 -0.844 -0.164 -1.527 -0.426 -1.746 c -0.344 -0.297 -0.711 -0.305 -2.156 -0.055 c -4.633 0.801 -4.504 0.773 -4.715 1.105 c -0.113 0.18 -0.109 0.219 0.098 1.02 c 0.121 0.461 0.215 0.949 0.215 1.082 c 0 0.285 -0.199 0.758 -0.387 0.93 c -0.461 0.414 -1.508 0.695 -2.582 0.695 c -1.297 0 -2.27 -0.426 -3.242 -1.414 c -0.699 -0.719 -1.059 -1.32 -1.535 -2.59 c -0.418 -1.117 -0.48 -1.262 -0.91 -1.258 m 0 0" fill="#f9f9f9" stroke="none" fill-rule="nonzero" fill-opacity="1"/></g></g></g><g><path d="m 40.03 7.531 c 3.712 4.084 5.969 9.514 5.969 15.469 0 12.703 -10.297 23 -23 23 c -5.954 0 -11.384 -2.256 -15.469 -5.969 4.178 4.291 10.01 6.969 16.469 6.969 c 12.703 0 23 -10.298 23 -23 0 -6.462 -2.677 -12.291 -6.969 -16.469 z" opacity="0.1"/></g></svg>