<svg xmlns="http://www.w3.org/2000/svg" viewBox="0 0 48 48">
 <defs>
  <linearGradient id="linearGradient3764" x1="1" x2="47" gradientUnits="userSpaceOnUse" gradientTransform="matrix(0,-1,1,0,-1.5e-6,47.999998)">
   <stop style="stop-color:#436769;stop-opacity:1"/>
   <stop offset="1" style="stop-color:#4b7376;stop-opacity:1"/>
  </linearGradient>
  <clipPath id="clipPath-483987597">
   <g transform="translate(0,-1004.3622)">
    <path d="m -24 13 c 0 1.105 -0.672 2 -1.5 2 -0.828 0 -1.5 -0.895 -1.5 -2 0 -1.105 0.672 -2 1.5 -2 0.828 0 1.5 0.895 1.5 2 z" transform="matrix(15.333333,0,0,11.5,414.99999,878.8622)" style="fill:#1890d0"/>
   </g>
  </clipPath>
 </defs>
 <g>
  <path d="m 36.31 5 c 5.859 4.062 9.688 10.831 9.688 18.5 c 0 12.426 -10.07 22.5 -22.5 22.5 c -7.669 0 -14.438 -3.828 -18.5 -9.688 c 1.037 1.822 2.306 3.499 3.781 4.969 c 4.085 3.712 9.514 5.969 15.469 5.969 c 12.703 0 23 -10.298 23 -23 c 0 -5.954 -2.256 -11.384 -5.969 -15.469 c -1.469 -1.475 -3.147 -2.744 -4.969 -3.781 z m 4.969 3.781 c 3.854 4.113 6.219 9.637 6.219 15.719 c 0 12.703 -10.297 23 -23 23 c -6.081 0 -11.606 -2.364 -15.719 -6.219 c 4.16 4.144 9.883 6.719 16.219 6.719 c 12.703 0 23 -10.298 23 -23 c 0 -6.335 -2.575 -12.06 -6.719 -16.219 z" style="opacity:0.05"/>
  <path d="m 41.28 8.781 c 3.712 4.085 5.969 9.514 5.969 15.469 c 0 12.703 -10.297 23 -23 23 c -5.954 0 -11.384 -2.256 -15.469 -5.969 c 4.113 3.854 9.637 6.219 15.719 6.219 c 12.703 0 23 -10.298 23 -23 c 0 -6.081 -2.364 -11.606 -6.219 -15.719 z" style="opacity:0.1"/>
  <path d="m 31.25 2.375 c 8.615 3.154 14.75 11.417 14.75 21.13 c 0 12.426 -10.07 22.5 -22.5 22.5 c -9.708 0 -17.971 -6.135 -21.12 -14.75 a 23 23 0 0 0 44.875 -7 a 23 23 0 0 0 -16 -21.875 z" style="opacity:0.2"/>
 </g>
 <g>
  <path d="m 24 1 c 12.703 0 23 10.297 23 23 c 0 12.703 -10.297 23 -23 23 -12.703 0 -23 -10.297 -23 -23 0 -12.703 10.297 -23 23 -23 z" style="fill:url(#linearGradient3764);fill-opacity:1"/>
 </g>
 <g>
  <g style="clip-path:url(#clipPath-483987597)">
   <!-- color: #4b7376 -->
   <g>
    <path d="m 25 10.156 c -4.318 0 -8.169 1.758 -10.867 4.457 c -2.698 2.699 -4.318 6.36 -4.318 10.387 c 0 4.03 1.62 7.688 4.318 10.387 2.698 2.699 6.549 4.455 10.867 4.455 4.316 0 8.166 -1.756 10.865 -4.455 2.699 -2.699 4.32 -6.36 4.32 -10.387 0 -4.03 -1.621 -7.69 -4.32 -10.389 -2.699 -2.699 -6.549 -4.455 -10.865 -4.455 z m 0 1.688 c 3.03 0 5.849 1.089 8.102 2.99 -0.14 0.11 -0.28 0.225 -0.414 0.359 l -1.779 1.781 c -1.638 -1.122 -3.674 -1.816 -5.908 -1.816 -2.233 0 -4.269 0.694 -5.906 1.814 l -1.781 -1.781 c -0.135 -0.135 -0.277 -0.243 -0.418 -0.354 2.253 -1.903 5.071 -2.994 8.105 -2.994 z m 0 5 c 1.647 0 3.202 0.543 4.514 1.525 l -2.215 2.215 c -0.691 -0.361 -1.465 -0.584 -2.299 -0.584 -0.833 0 -1.606 0.222 -2.297 0.582 l -2.215 -2.215 c 1.31 -0.981 2.864 -1.523 4.512 -1.523 z m -10.117 0.133 c 0.095 0.115 0.194 0.229 0.305 0.34 l 1.711 1.711 c -1.319 1.67 -2.084 3.735 -2.084 5.973 c 0 2.242 0.768 4.31 2.092 5.982 l -1.719 1.719 c -0.108 0.108 -0.204 0.221 -0.297 0.334 -1.673 -2.213 -2.703 -4.996 -2.703 -8.04 0 -3.03 1.027 -5.812 2.695 -8.02 z m 20.236 0 c 1.669 2.211 2.697 4.99 2.697 8.02 0 3.036 -1.031 5.819 -2.703 8.03 -0.094 -0.115 -0.191 -0.23 -0.301 -0.34 l -1.715 -1.715 c 1.321 -1.671 2.09 -3.737 2.09 -5.977 0 -2.237 -0.767 -4.301 -2.086 -5.971 l 1.711 -1.711 c 0.112 -0.111 0.212 -0.226 0.307 -0.342 z m -16.664 3.609 2.125 2.123 c -0.358 0.689 -0.58 1.46 -0.58 2.291 0 0.835 0.224 1.611 0.586 2.303 l -2.123 2.123 c -0.794 -1.269 -1.277 -2.786 -1.277 -4.426 0 -1.634 0.48 -3.147 1.27 -4.414 z m 13.09 0 c 0.79 1.267 1.268 2.78 1.268 4.414 0 1.637 -0.48 3.152 -1.271 4.42 l -2.123 -2.123 c 0.36 -0.691 0.582 -1.464 0.582 -2.297 0 -0.83 -0.221 -1.6 -0.578 -2.289 z m -4.254 8.834 2.215 2.215 c -1.309 0.979 -2.862 1.521 -4.506 1.521 -1.643 0 -3.192 -0.542 -4.5 -1.518 l 2.215 -2.215 c 0.688 0.356 1.457 0.576 2.285 0.576 0.831 0 1.602 -0.222 2.291 -0.58 z m 3.611 3.611 1.785 1.785 c 0.131 0.131 0.267 0.251 0.404 0.359 -2.251 1.896 -5.066 2.982 -8.092 2.982 -3.03 0 -5.837 -1.084 -8.09 -2.977 0.135 -0.107 0.269 -0.226 0.398 -0.355 l 1.791 -1.791 c 1.636 1.116 3.668 1.807 5.896 1.807 2.23 0 4.266 -0.692 5.902 -1.811 z" mix-blend-mode="normal" isolation="auto" white-space="normal" solid-opacity="1" solid-color="#000000" style="visibility:visible;shape-rendering:auto;color-interpolation-filters:linearRGB;fill:#000;opacity:1;image-rendering:auto;fill-opacity:0.098;stroke:none;display:inline;color:#000;fill-rule:nonzero;color-rendering:auto;color-interpolation:sRGB"/>
    <path d="m 24 14.157 c -2.937 0 -5.539 1.197 -7.332 2.991 -1.794 1.794 -2.854 4.205 -2.854 6.851 0 2.646 1.061 5.057 2.854 6.851 1.794 1.794 4.395 2.991 7.332 2.991 2.936 0 5.536 -1.197 7.33 -2.991 1.794 -1.794 2.856 -4.205 2.856 -6.851 0 -2.646 -1.064 -5.057 -2.858 -6.851 -1.794 -1.794 -4.393 -2.991 -7.328 -2.991 z m 0 1.686 c 2.033 0 3.933 0.817 5.397 2.281 1.464 1.464 2.416 3.553 2.416 5.876 0 2.322 -0.952 4.41 -2.416 5.874 -1.464 1.464 -3.363 2.283 -5.397 2.283 -2.035 0 -3.935 -0.819 -5.399 -2.283 -1.464 -1.464 -2.416 -3.552 -2.416 -5.874 0 -2.322 0.952 -4.412 2.416 -5.876 1.464 -1.464 3.363 -2.281 5.399 -2.281 z" mix-blend-mode="normal" isolation="auto" white-space="normal" solid-opacity="1" solid-color="#000000" style="visibility:visible;shape-rendering:auto;color-interpolation-filters:linearRGB;fill:#f9f9f9;opacity:1;image-rendering:auto;fill-opacity:1;stroke:none;display:inline;color:#000;fill-rule:nonzero;color-rendering:auto;color-interpolation:sRGB"/>
    <path d="m 24 9.156 c -4.318 0 -8.169 1.759 -10.868 4.458 -2.698 2.699 -4.318 6.36 -4.318 10.386 0 4.03 1.619 7.688 4.318 10.386 2.698 2.699 6.549 4.455 10.868 4.455 4.316 0 8.166 -1.757 10.865 -4.455 2.699 -2.699 4.321 -6.359 4.321 -10.386 0 -4.03 -1.622 -7.69 -4.321 -10.389 c -2.699 -2.699 -6.548 -4.455 -10.865 -4.455 m 0 1.687 c 3.414 0 6.564 1.378 8.932 3.747 2.369 2.369 3.883 5.707 3.883 9.411 0 3.703 -1.514 7.04 -3.883 9.411 -2.369 2.369 -5.519 3.747 -8.932 3.747 -3.417 0 -6.564 -1.378 -8.932 -3.747 -2.368 -2.369 -3.88 -5.707 -3.88 -9.411 0 -3.703 1.512 -7.04 3.88 -9.411 2.368 -2.369 5.516 -3.747 8.932 -3.747 z" mix-blend-mode="normal" isolation="auto" white-space="normal" solid-opacity="1" solid-color="#000000" style="visibility:visible;shape-rendering:auto;color-interpolation-filters:linearRGB;fill:#f9f9f9;opacity:1;image-rendering:auto;fill-opacity:1;stroke:none;display:inline;color:#000;fill-rule:nonzero;color-rendering:auto;color-interpolation:sRGB"/>
    <path d="m 24 19 c -2.762 0 -5 2.238 -5 5 c 0 2.762 2.238 5 5 5 c 2.762 0 5 -2.238 5 -5 c 0 -2.762 -2.238 -5 -5 -5 m 0 2.875 l 2.125 2.125 l -2.125 2.125 l -2.125 -2.125 m 2.125 -2.125" style="fill:#f9f9f9;fill-opacity:1;stroke:none;fill-rule:nonzero"/>
    <path d="m 13.969 13.13 c -0.223 0.035 -0.414 0.137 -0.563 0.281 c -0.59 0.59 -0.254 1.871 0.781 2.906 l 7.688 7.688 l 2.125 -2.125 l -7.688 -7.688 c -0.777 -0.777 -1.68 -1.16 -2.344 -1.063 m 12.156 10.875 l -2.125 2.125 l 7.688 7.688 c 1.035 1.035 2.32 1.371 2.906 0.781 c 0.59 -0.586 0.254 -1.871 -0.781 -2.906 m -7.688 -7.688" style="fill:#ff3d42;fill-opacity:1;stroke:none;fill-rule:nonzero"/>
    <path d="m 33.688 13.13 c -0.617 0.055 -1.355 0.418 -2 1.063 l -7.688 7.691 l 2.125 2.125 l 7.688 -7.691 c 1.035 -1.031 1.371 -2.313 0.781 -2.906 c -0.219 -0.219 -0.535 -0.313 -0.906 -0.27 m -11.813 10.871 l -7.688 7.688 c -1.035 1.035 -1.371 2.32 -0.781 2.906 c 0.586 0.59 1.871 0.254 2.906 -0.781 l 7.688 -7.688 m -2.125 -2.125" style="fill:#3cc121;fill-opacity:1;stroke:none;fill-rule:nonzero"/>
   </g>
  </g>
 </g>
 <g>
  <path d="m 40.03 7.531 c 3.712 4.084 5.969 9.514 5.969 15.469 0 12.703 -10.297 23 -23 23 c -5.954 0 -11.384 -2.256 -15.469 -5.969 4.178 4.291 10.01 6.969 16.469 6.969 c 12.703 0 23 -10.298 23 -23 0 -6.462 -2.677 -12.291 -6.969 -16.469 z" style="opacity:0.1"/>
 </g>
</svg>
