<svg viewBox="0 0 48 48"><defs><linearGradient id="linearGradient3764" x1="1" x2="47" gradientUnits="userSpaceOnUse" gradientTransform="matrix(0,-1,1,0,-1.5e-6,47.999998)"><stop stop-color="#7547bb" stop-opacity="1"/><stop offset="1" stop-color="#8056c0" stop-opacity="1"/></linearGradient><clipPath id="clipPath-718907446"><g transform="translate(0,-1004.3622)"><path d="m -24 13 c 0 1.105 -0.672 2 -1.5 2 -0.828 0 -1.5 -0.895 -1.5 -2 0 -1.105 0.672 -2 1.5 -2 0.828 0 1.5 0.895 1.5 2 z" transform="matrix(15.333333,0,0,11.5,414.99999,878.8622)" fill="#1890d0"/></g></clipPath><clipPath id="clipPath-727198125"><g transform="translate(0,-1004.3622)"><path d="m -24 13 c 0 1.105 -0.672 2 -1.5 2 -0.828 0 -1.5 -0.895 -1.5 -2 0 -1.105 0.672 -2 1.5 -2 0.828 0 1.5 0.895 1.5 2 z" transform="matrix(15.333333,0,0,11.5,414.99999,878.8622)" fill="#1890d0"/></g></clipPath></defs><g><g transform="translate(0,-1004.3622)"><path d="m 25 1006.36 c -12.703 0 -23 10.298 -23 23 0 6.367 2.601 12.12 6.781 16.281 4.085 3.712 9.514 5.969 15.469 5.969 12.703 0 23 -10.297 23 -23 0 -5.954 -2.256 -11.384 -5.969 -15.469 -4.165 -4.181 -9.914 -6.781 -16.281 -6.781 z m 16.281 6.781 c 3.854 4.113 6.219 9.637 6.219 15.719 0 12.703 -10.297 23 -23 23 -6.081 0 -11.606 -2.364 -15.719 -6.219 4.16 4.144 9.883 6.719 16.219 6.719 12.703 0 23 -10.297 23 -23 0 -6.335 -2.575 -12.06 -6.719 -16.219 z" opacity="0.05"/><path d="m 41.28 1013.14 c 3.712 4.085 5.969 9.514 5.969 15.469 0 12.703 -10.297 23 -23 23 -5.954 0 -11.384 -2.256 -15.469 -5.969 4.113 3.854 9.637 6.219 15.719 6.219 12.703 0 23 -10.297 23 -23 0 -6.081 -2.364 -11.606 -6.219 -15.719 z" opacity="0.1"/><path transform="matrix(15.333333,0,0,11.5,415.24999,879.11222)" d="m -24 13 a 1.5 2 0 1 1 -3 0 1.5 2 0 1 1 3 0 z" opacity="0.2"/></g></g><g><path d="m 24 1 c 12.703 0 23 10.297 23 23 c 0 12.703 -10.297 23 -23 23 -12.703 0 -23 -10.297 -23 -23 0 -12.703 10.297 -23 23 -23 z" fill="url(#linearGradient3764)" fill-opacity="1"/></g><g/><g><g clip-path="url(#clipPath-718907446)"><g transform="translate(0,1)"><g opacity="0.1"><!-- color: #8056c0 --><g><path d="m 9 15 l 0.004 0.996 l 3.961 0 l 7.496 9.957 l 0.227 4.754 c -0.199 0.824 -0.84 1.117 -1.297 1.289 l -2.773 0 l 0.031 1 l 12.34 0 l 0 -1 l -3.633 0 c -0.453 0.074 -0.418 -0.934 -0.457 -1.211 l -0.23 -4.52 c 0.059 -0.363 0.133 -0.727 0.613 -1.09 l 7.188 -5.844 l 3.359 -0.336 l 0.535 -1 l -11.188 0 l 0.18 1 l 3.211 0.102 c 0.191 0.16 0.57 0.145 0.152 0.859 l -4.664 4.125 c -0.246 0.152 -0.434 0.07 -0.613 -0.074 l -5.195 -6.938 c -0.387 -0.551 -0.012 -1.027 0.457 -1.074 l 3.359 0 l 0 -1 l -13.06 0 m 0 0.004" fill="#000" stroke="none" fill-rule="nonzero" fill-opacity="1"/><path d="m 31.824 30.27 l 1.488 0.938 l -1 1.789 l -1.516 -0.965 l 1.027 -1.766 m 0 0.004" fill="#000" stroke="none" fill-rule="nonzero" fill-opacity="1"/><path d="m 32.539 28.629 l 1.262 0.82 l 5.195 -8.688 l -2.941 -1.715 l -3.52 9.582 m 0.004 0" fill="#000" stroke="none" fill-rule="nonzero" fill-opacity="1"/></g></g></g></g></g><g><g clip-path="url(#clipPath-727198125)"><!-- color: #8056c0 --><g><path d="m 9 15 l 0.004 0.996 l 3.961 0 l 7.496 9.957 l 0.227 4.754 c -0.199 0.824 -0.84 1.117 -1.297 1.289 l -2.773 0 l 0.031 1 l 12.34 0 l 0 -1 l -3.633 0 c -0.453 0.074 -0.418 -0.934 -0.457 -1.211 l -0.23 -4.52 c 0.059 -0.363 0.133 -0.727 0.613 -1.09 l 7.188 -5.844 l 3.359 -0.336 l 0.535 -1 l -11.188 0 l 0.18 1 l 3.211 0.102 c 0.191 0.16 0.57 0.145 0.152 0.859 l -4.664 4.125 c -0.246 0.152 -0.434 0.07 -0.613 -0.074 l -5.195 -6.938 c -0.387 -0.551 -0.012 -1.027 0.457 -1.074 l 3.359 0 l 0 -1 l -13.06 0 m 0 0.004" fill="#f9f9f9" stroke="none" fill-rule="nonzero" fill-opacity="1"/><path d="m 31.824 30.27 l 1.488 0.938 l -1 1.789 l -1.516 -0.965 l 1.027 -1.766 m 0 0.004" fill="#f9f9f9" stroke="none" fill-rule="nonzero" fill-opacity="1"/><path d="m 32.539 28.629 l 1.262 0.82 l 5.195 -8.688 l -2.941 -1.715 l -3.52 9.582 m 0.004 0" fill="#f9f9f9" stroke="none" fill-rule="nonzero" fill-opacity="1"/></g></g></g><g><path d="m 40.03 7.531 c 3.712 4.084 5.969 9.514 5.969 15.469 0 12.703 -10.297 23 -23 23 c -5.954 0 -11.384 -2.256 -15.469 -5.969 4.178 4.291 10.01 6.969 16.469 6.969 c 12.703 0 23 -10.298 23 -23 0 -6.462 -2.677 -12.291 -6.969 -16.469 z" opacity="0.1"/></g></svg>