<svg xmlns="http://www.w3.org/2000/svg" viewBox="0 0 256 256" xmlns:xlink="http://www.w3.org/1999/xlink">
<defs>
<linearGradient id="linearGradient3895-9-0-3-2-4-0">
<stop offset="0" style="stop-color:#c9dbf6"/>
<stop offset="1" style="stop-color:#094ab1"/>
</linearGradient>
<radialGradient cx="148.004" cy="160" gradientTransform="matrix(.97656 0 0 .97656 -16.5349 -236.25)" r="128" id="radialGradient4432" xlink:href="#linearGradient3895-9-0-3-2-4-0" gradientUnits="userSpaceOnUse"/>
</defs>
<g transform="translate(0 208)">
<path style="fill:url(#radialGradient4432);color:#bebebe" d="m 253,-146.40625 0,132.8125 C 253,41.09375 253,45 194.40625,45 L 61.59375,45 C 3,45 3,41.09375 3,-13.59375 l 0,-132.8125 C 3,-201.09375 3,-205 61.59375,-205 l 132.8125,0 C 253,-205 253,-201.09375 253,-146.40625 z"/>
</g>
<g style="fill:#fff" transform="translate(0 208)">
<path style="opacity:.05" d="m 204.08032,44.993662 c 13.55517,-0.06396 23.34858,-0.435144 30.45654,-2.349786 l -22.55248,-38.664633 -23.92579,41.014419 6.34766,0 c 3.41797,0 6.64139,0.01426 9.67407,0 z m 7.90406,-41.01442 -27.34375,-46.873624 -27.34375,46.873624 54.6875,0 z m 0,0 40.802,0 C 252.95094,-1.20375 253,-7.022538 253,-13.598368 l 0,-5.859203 -13.67187,-23.436811 -27.34375,46.873624 z m 27.34375,-46.873624 -27.34375,-46.873621 -27.34375,46.873621 54.6875,0 z m 0,0 13.67187,0 0,-23.43681 -13.67187,23.43681 z m -54.6875,0 -27.34375,-46.873621 -27.34376,46.873621 54.68751,0 z m -54.68751,0 -27.34374,46.873624 54.6875,0 -27.34376,-46.873624 z m 0,0 -27.34374,-46.873621 -27.34375,46.873621 54.68749,0 z m -54.68749,0 -27.34375,46.873624 54.6875,0 -27.34375,-46.873624 z m 0,0 -27.34375,-46.873621 -27.343755,46.873621 54.687505,0 z m -54.687505,0 L 3,-12.774415 c 0.0034,6.226079 0.05591,11.79834402 0.213614,16.753658 l 44.708266,0 -27.343755,-46.873625 z m 0,0 L 3,-73.014348 l 0,30.119966 17.578125,0 z M 47.92188,3.979243 24.911614,43.406793 c 8.527026,1.571634 20.311776,1.586869 36.682136,1.586869 l 10.2539,0 L 47.92188,3.979243 z m 0,-93.747246 L 20.578125,-136.64161 3,-106.52166 l 0,16.753657 44.92188,0 z m 0,0 54.6875,0 -27.34375,-46.873607 -27.34375,46.873607 z m 27.34375,-46.873607 -27.34375,-46.87364 -27.343755,46.87364 54.687505,0 z m 0,0 54.68749,0 -27.34374,-46.87364 -27.34375,46.87364 z m 27.34375,-46.87364 -12.54273,-21.48374 -28.4729,0 c -0.39895,0 -0.7356,-1e-5 -1.12916,0 l -12.54271,21.48374 54.6875,0 z m 0,0 54.6875,0 -12.54273,-21.48374 -29.60205,0 -12.54272,21.48374 z m 54.6875,0 54.6875,0 -12.54273,-21.48374 c -1.67321,-0.002 -3.25633,0 -5.0354,0 l -24.56665,0 -12.54272,21.48374 z m 0,0 -27.34376,46.87364 54.68751,0 -27.34375,-46.87364 z m 27.34375,46.87364 54.6875,0 -27.34375,-46.87364 -27.34375,46.87364 z m 0,0 -27.34375,46.873607 54.6875,0 -27.34375,-46.873607 z m 27.34375,46.873607 41.01562,0 0,-23.436807 -13.67187,-23.4368 -27.34375,46.873607 z m 27.34375,-46.873607 13.67187,0 0,-9.76535 c 0,-4.89463 -0.0402,-9.34683 -0.12207,-13.45786 l -13.5498,23.22321 z m -82.03125,46.873607 -27.34376,-46.873607 -27.34374,46.873607 54.6875,0 z m 54.6875,-93.747247 38.97094,0 c -2.94957,-14.71522 -10.05142,-19.35598 -26.82494,-20.81237 l -12.146,20.81237 z m -164.0625,0 -12.2986,-21.08702 c -19.509325,1.10943 -27.416405,5.311 -30.57861,21.08702 l 42.87721,0 z M 20.578125,-136.64161 3.30517,-166.27332 C 3.074557,-160.53933 3,-153.96515 3,-146.40696 l 0,9.76535 17.578125,0 z M 102.60938,3.979243 78.68359,44.993662 l 47.85157,0 -23.92578,-41.01442 z m 54.6875,0 -23.92579,41.014419 47.85157,0 L 157.29688,3.979243 z M 13.833739,39.287042 5.288818,24.639036 c 1.572341,7.028886 4.191602,11.640722 8.544921,14.648006 z"/>
<path d="m 92.839697,-21.564608 c -12.102954,-3.024083 -18.845718,-12.644563 -18.867043,-26.919181 -0.0068,-4.563731 0.323387,-6.750465 1.462561,-9.685817 2.792442,-7.195331 10.18556,-12.623715 19.91404,-14.621831 4.840835,-0.994261 6.332215,-2.061784 6.332215,-4.532641 0,-0.775312 0.57616,-3.08424 1.28029,-5.13096 3.19902,-9.298036 9.12196,-17.0492 15.45097,-20.220002 6.62387,-3.31856 9.96809,-4.06694 17.9809,-4.02392 11.37982,0.0611 17.05722,2.52962 24.99792,10.868931 l 4.36711,4.586365 3.91233,-1.353917 c 18.93501,-6.552868 37.81135,4.601868 39.33292,23.243347 l 0.41623,5.099602 3.72873,1.335959 c 10.6487,3.815317 15.65393,11.826934 14.74657,23.604131 -0.59338,7.701827 -4.19441,13.850882 -9.89906,16.903449 l -2.6818,1.435046 -59.60004,0.114838 c -45.79961,0.08825 -60.358408,-0.07462 -62.874843,-0.703399 z"/>
<path d="M 48.160182,-29.797931 C 41.094602,-31.477108 33.607912,-37.717685 30.097223,-44.854424 28.105774,-48.902758 28,-49.498183 28,-56.660138 c 0,-6.812102 0.169952,-7.904959 1.755295,-11.287389 3.34206,-7.130498 9.74541,-12.282711 17.779701,-14.305768 1.695604,-0.42696 3.288898,-1.108444 3.540653,-1.514413 0.251755,-0.405975 0.531417,-2.617505 0.621459,-4.91452 0.559258,-14.265982 9.919527,-26.835972 22.989556,-30.872902 7.061152,-2.18096 15.932176,-1.64448 23.612468,1.428 2.435878,0.97448 2.161588,1.18341 7.312018,-5.57001 3.04589,-3.99392 9.20049,-8.96111 14.23833,-11.49139 5.43711,-2.73078 11.09178,-3.98889 17.85404,-3.97231 18.89998,0.0464 35.18862,11.86807 41.21183,29.91012 1.92443,5.76455 1.82848,7.37898 -0.44143,7.42656 -0.99061,0.0208 -3.82895,0.5663 -6.30745,1.21229 l -4.50637,1.174535 -4.11195,-4.111895 c -11.59372,-11.59373 -30.51486,-14.09965 -46.59975,-6.17167 -6.42601,3.16728 -11.5898,7.71433 -15.49026,13.640098 -2.780711,4.224633 -6.326131,12.105804 -6.326131,14.062521 0,1.388172 -1.124019,2.081825 -5.924382,3.6561 -14.862112,4.874005 -23.536757,16.13016 -23.530764,30.533338 0.002,5.242314 1.352156,11.65689 3.226422,15.330759 0.706543,1.384936 1.100768,2.701928 0.876056,2.92664 -0.574682,0.574683 -19.063015,0.380996 -21.619159,-0.226487 z"/>
</g>
</svg>
