<?xml version="1.0" encoding="UTF-8" standalone="no"?>
<svg
   xmlns:dc="http://purl.org/dc/elements/1.1/"
   xmlns:cc="http://creativecommons.org/ns#"
   xmlns:rdf="http://www.w3.org/1999/02/22-rdf-syntax-ns#"
   xmlns:svg="http://www.w3.org/2000/svg"
   xmlns="http://www.w3.org/2000/svg"
   xmlns:xlink="http://www.w3.org/1999/xlink"
   xmlns:sodipodi="http://sodipodi.sourceforge.net/DTD/sodipodi-0.dtd"
   xmlns:inkscape="http://www.inkscape.org/namespaces/inkscape"
   width="48"
   viewBox="0 0 13.546667 13.546667"
   height="48"
   id="svg2"
   version="1.1"
   inkscape:version="0.48.4 r9939"
   sodipodi:docname="f-spot-alt.svg"
   inkscape:export-filename="/media/Data/Main/Visuals/Icons/Numix/Desktop/repos/numix-wiki/Joern/image-viewer-icons/f-spot-alt.png"
   inkscape:export-xdpi="450"
   inkscape:export-ydpi="450">
  <metadata
     id="metadata30">
    <rdf:RDF>
      <cc:Work
         rdf:about="">
        <dc:format>image/svg+xml</dc:format>
        <dc:type
           rdf:resource="http://purl.org/dc/dcmitype/StillImage" />
        <dc:title></dc:title>
      </cc:Work>
    </rdf:RDF>
  </metadata>
  <sodipodi:namedview
     pagecolor="#333333"
     bordercolor="#666666"
     borderopacity="1"
     objecttolerance="10"
     gridtolerance="10"
     guidetolerance="10"
     inkscape:pageopacity="1"
     inkscape:pageshadow="2"
     inkscape:window-width="1366"
     inkscape:window-height="740"
     id="namedview28"
     showgrid="true"
     inkscape:zoom="27.304859"
     inkscape:cx="20.252867"
     inkscape:cy="20.182491"
     inkscape:window-x="0"
     inkscape:window-y="28"
     inkscape:window-maximized="1"
     inkscape:current-layer="svg2">
    <inkscape:grid
       type="xygrid"
       id="grid3761"
       empspacing="5"
       visible="true"
       enabled="true"
       snapvisiblegridlinesonly="true" />
  </sodipodi:namedview>
  <defs
     id="defs4">
    <linearGradient
       id="linearGradient3768">
      <stop
         style="stop-color:#1b667a;stop-opacity:1;"
         offset="0"
         id="stop3770" />
      <stop
         style="stop-color:#01090b;stop-opacity:1;"
         offset="1"
         id="stop3772" />
    </linearGradient>
    <linearGradient
       id="linearGradient3929">
      <stop
         id="stop3931"
         style="stop-color:#cee2df;stop-opacity:1;"
         offset="0" />
      <stop
         id="stop3933"
         style="stop-color:#8dc2c1;stop-opacity:1;"
         offset="1" />
    </linearGradient>
    <linearGradient
       id="linearGradient4460">
      <stop
         offset="0"
         style="stop-color:#101a04;stop-opacity:1;"
         id="stop7" />
      <stop
         offset="1"
         style="stop-color:#20203a;stop-opacity:1;"
         id="stop9" />
    </linearGradient>
    <linearGradient
       gradientTransform="matrix(1.09524,0,0,1.09524,-133.00183,-293.02198)"
       xlink:href="#linearGradient4460"
       id="linearGradient3008"
       y1="279.096"
       y2="268.33"
       gradientUnits="userSpaceOnUse"
       x2="0" />
    <linearGradient
       inkscape:collect="always"
       xlink:href="#linearGradient3929"
       id="linearGradient3774"
       x1="6.7733335"
       y1="0.84666669"
       x2="6.7733335"
       y2="12.982223"
       gradientUnits="userSpaceOnUse" />
  </defs>
  <rect
     id="rect14"
     style="opacity:0.5;fill:#ffffff;fill-rule:evenodd"
     height="12.982"
     rx="6.4910002"
     y="0.28299999"
     x="0.28200001"
     width="12.982" />
  <rect
     id="rect16"
     style="fill:url(#linearGradient3774);fill-rule:evenodd;fill-opacity:1.0"
     height="11.746"
     rx="5.8730001"
     y="0.90100002"
     x="0.89999998"
     width="11.746" />
  <rect
     style="fill:#36545a;fill-opacity:1;stroke:none"
     id="rect3945"
     width="2.8222222"
     height="3.1044445"
     x="5.3604169"
     y="3.1062496"
     inkscape:transform-center-y="-7.4999993"
     transform="matrix(0.99999996,-2.6648925e-4,2.6648925e-4,0.99999996,0,0)"
     inkscape:transform-center-x="0.0019989788"
     rx="1" />
  <rect
     style="fill:#89a7bd;fill-opacity:1;stroke:none"
     id="rect3945-8"
     width="2.8222222"
     height="3.1044445"
     x="8.1678295"
     y="-3.6663361"
     inkscape:transform-center-y="-5.3047128"
     transform="matrix(0.70729519,0.70691832,-0.70691832,0.70729519,0,0)"
     inkscape:transform-center-x="-5.3018884"
     rx="0.89999998" />
  <rect
     style="fill:#36545a;fill-opacity:1;stroke:none"
     id="rect3945-3"
     width="2.8222222"
     height="3.1044445"
     x="5.3640275"
     y="-10.440417"
     transform="matrix(2.6648925e-4,0.99999996,-0.99999996,2.6648925e-4,0,0)"
     inkscape:transform-center-x="-7.5000006"
     inkscape:transform-center-y="-0.001998645"
     rx="0.89999998" />
  <rect
     style="fill:#89a7bd;fill-opacity:1;stroke:none"
     id="rect3945-64"
     width="2.8222222"
     height="3.1044445"
     x="-1.4085582"
     y="-13.247828"
     inkscape:transform-center-y="5.3018829"
     transform="matrix(-0.70691832,0.70729519,-0.70729519,-0.70691832,0,0)"
     inkscape:transform-center-x="-5.3047101"
     rx="0.89999998" />
  <rect
     style="fill:#36545a;fill-opacity:1;stroke:none"
     id="rect3945-1"
     width="2.8222222"
     height="3.1044445"
     x="-8.1826391"
     y="-10.444027"
     inkscape:transform-center-y="7.4999964"
     transform="matrix(-0.99999996,2.6648925e-4,-2.6648925e-4,-0.99999996,0,0)"
     inkscape:transform-center-x="-0.0019984167"
     rx="0.89999998" />
  <rect
     style="fill:#89a7bd;fill-opacity:1;stroke:none"
     id="rect3945-62"
     width="2.8222222"
     height="3.1044445"
     x="-10.99005"
     y="-3.6714418"
     inkscape:transform-center-y="5.3047112"
     transform="matrix(-0.70729519,-0.70691832,0.70691832,-0.70729519,0,0)"
     inkscape:transform-center-x="5.3018898"
     rx="0.89999998" />
  <path
     style="fill:#36545a;fill-opacity:1;stroke:none"
     d="M 14.1875 19 C 12.420807 19.000471 10.999529 20.420807 11 22.1875 L 11 25.8125 C 11.000471 27.579193 12.420807 29.000471 14.1875 29 L 18.8125 29 C 20.579193 28.999529 22.000471 27.579193 22 25.8125 L 22 22.1875 C 21.999978 22.103135 21.975141 22.020175 21.96875 21.9375 C 20.460129 21.698065 19.302739 20.539743 19.0625 19.03125 C 18.979822 19.024903 18.896865 18.999978 18.8125 19 L 14.1875 19 z "
     transform="scale(0.28222223,0.28222223)"
     id="rect3945-6" />
  <path
     style="fill:#89a7bd;fill-opacity:1;stroke:none"
     d="M 18.34375 12.75 C 17.438013 12.750241 16.537588 13.087043 15.84375 13.78125 L 13.78125 15.84375 C 12.393575 17.232165 12.392835 19.456075 13.78125 20.84375 L 16.53125 23.625 C 17.919665 25.012675 20.174825 25.013415 21.5625 23.625 L 23.1875 22 L 22.53125 22 C 20.568258 22.000523 19.000523 20.431742 19 18.46875 L 19 14.53125 C 18.999845 13.94842 19.159101 13.421579 19.40625 12.9375 C 19.052931 12.823386 18.711172 12.749902 18.34375 12.75 z "
     transform="scale(0.28222223,0.28222223)"
     id="rect3945-5" />
</svg>
