<?xml version="1.0" encoding="UTF-8" standalone="no"?>
<svg
   xmlns:dc="http://purl.org/dc/elements/1.1/"
   xmlns:cc="http://creativecommons.org/ns#"
   xmlns:rdf="http://www.w3.org/1999/02/22-rdf-syntax-ns#"
   xmlns:svg="http://www.w3.org/2000/svg"
   xmlns="http://www.w3.org/2000/svg"
   xmlns:xlink="http://www.w3.org/1999/xlink"
   xmlns:sodipodi="http://sodipodi.sourceforge.net/DTD/sodipodi-0.dtd"
   xmlns:inkscape="http://www.inkscape.org/namespaces/inkscape"
   width="48"
   viewBox="0 0 13.546667 13.546667"
   height="48"
   id="svg2"
   version="1.1"
   inkscape:version="0.48.4 r9939"
   sodipodi:docname="yad.svg">
  <metadata
     id="metadata36">
    <rdf:RDF>
      <cc:Work
         rdf:about="">
        <dc:format>image/svg+xml</dc:format>
        <dc:type
           rdf:resource="http://purl.org/dc/dcmitype/StillImage" />
        <dc:title></dc:title>
      </cc:Work>
    </rdf:RDF>
  </metadata>
  <sodipodi:namedview
     pagecolor="#ffffff"
     bordercolor="#666666"
     borderopacity="1"
     objecttolerance="10"
     gridtolerance="10"
     guidetolerance="10"
     inkscape:pageopacity="0"
     inkscape:pageshadow="2"
     inkscape:window-width="1366"
     inkscape:window-height="742"
     id="namedview34"
     showgrid="false"
     inkscape:zoom="12.110575"
     inkscape:cx="24.40678"
     inkscape:cy="24"
     inkscape:window-x="0"
     inkscape:window-y="26"
     inkscape:window-maximized="1"
     inkscape:current-layer="svg2" />
  <defs
     id="defs4">
    <linearGradient
       id="linearGradient4460-2">
      <stop
         offset="0"
         style="stop-color:#352148;stop-opacity:1;"
         id="stop7" />
      <stop
         offset="1"
         style="stop-color:#705888;stop-opacity:1;"
         id="stop9" />
    </linearGradient>
    <linearGradient
       gradientTransform="matrix(1.10525,0,0,1.10525,-134.27874,-295.76183)"
       xlink:href="#linearGradient4460-2"
       id="linearGradient3004"
       y1="279.096"
       y2="268.33"
       gradientUnits="userSpaceOnUse"
       x2="0" />
    <linearGradient
       inkscape:collect="always"
       xlink:href="#linearGradient4460-2"
       id="linearGradient3014"
       gradientUnits="userSpaceOnUse"
       gradientTransform="matrix(1.10525,0,0,1.10525,-134.27874,-295.76183)"
       y1="279.096"
       x2="0"
       y2="268.33" />
  </defs>
  <rect
     id="rect14"
     style="opacity:0.5;fill:#ffffff;fill-rule:evenodd"
     height="12.982"
     rx="6.4910002"
     y="0.28200001"
     x="0.28200001"
     width="12.982" />
  <rect
     id="rect16"
     style="fill:url(#linearGradient3014);fill-rule:evenodd"
     height="11.853"
     rx="5.9260001"
     y="0.847"
     x="0.847"
     width="11.853" />
  <path
     style="fill:#c998e4;fill-opacity:1"
     d="m 5.2671919,2.8222224 c 0.3762699,0.3779845 0.3743837,0.6792575 0.3743837,1.1325983 l 0,0.9423893 C 4.3267077,5.3385751 3.3866667,6.5251641 3.3866667,7.9232131 c 10e-8,1.2008168 0.6961833,2.2498519 1.7256077,2.8012319 l 3.3221177,0 C 9.4638169,10.173065 10.16,9.1240299 10.16,7.9232131 10.16,6.5251641 9.2156556,5.3385751 7.9007879,4.89721 l 0,-0.9423893 c 0,-0.4533408 -0.00189,-0.7546138 0.3743836,-1.1325983 l -3.0079795,0 z"
     id="path18" />
  <path
     style="fill:#ff922b;fill-opacity:1"
     d="M 13.25,23 C 12.450482,24.52364 12,26.242962 12,28.0625 12,32.317363 14.477433,36.046291 18.125,38 l 11.75,0 C 33.522568,36.046291 36,32.317363 36,28.0625 36,26.242962 35.552121,24.52364 34.75,23 l -21.5,0 z"
     transform="scale(.28222)"
     id="path20" />
  <g
     style="fill:#f9f9f9"
     id="g22">
    <path
       d="m 28,35.72929 c 0,0.402776 -0.447715,0.72929 -1,0.72929 -0.552285,0 -1,-0.326514 -1,-0.72929 C 26,35.326514 26.447715,35 27,35 c 0.552285,0 1,0.326514 1,0.72929 z"
       transform="matrix(.14111 0 0 .19349 3.66889 3.10559)"
       id="path24" />
    <path
       d="m 28,35.72929 c 0,0.402776 -0.447715,0.72929 -1,0.72929 -0.552285,0 -1,-0.326514 -1,-0.72929 C 26,35.326514 26.447715,35 27,35 c 0.552285,0 1,0.326514 1,0.72929 z"
       transform="matrix(.21167 0 0 .29024 1.27 -.98607)"
       id="path26" />
    <path
       d="m 28,35.72929 c 0,0.402776 -0.447715,0.72929 -1,0.72929 -0.552285,0 -1,-0.326514 -1,-0.72929 C 26,35.326514 26.447715,35 27,35 c 0.552285,0 1,0.326514 1,0.72929 z"
       transform="matrix(.28222 0 0 .38698 -.28222 -5.35994)"
       id="path28" />
    <path
       d="m 28,35.72929 c 0,0.402776 -0.447715,0.72929 -1,0.72929 -0.552285,0 -1,-0.326514 -1,-0.72929 C 26,35.326514 26.447715,35 27,35 c 0.552285,0 1,0.326514 1,0.72929 z"
       transform="matrix(.42333 0 0 .58047 -4.23333 -14.38991)"
       id="path30" />
    <path
       d="m 28,35.72929 c 0,0.402776 -0.447715,0.72929 -1,0.72929 -0.552285,0 -1,-0.326514 -1,-0.72929 C 26,35.326514 26.447715,35 27,35 c 0.552285,0 1,0.326514 1,0.72929 z"
       transform="matrix(.35278 0 0 .48373 -2.96333 -9.73381)"
       id="path32" />
  </g>
</svg>
