<?xml version="1.0" encoding="UTF-8" standalone="no"?>
<svg
   xmlns:dc="http://purl.org/dc/elements/1.1/"
   xmlns:cc="http://creativecommons.org/ns#"
   xmlns:rdf="http://www.w3.org/1999/02/22-rdf-syntax-ns#"
   xmlns:svg="http://www.w3.org/2000/svg"
   xmlns="http://www.w3.org/2000/svg"
   xmlns:xlink="http://www.w3.org/1999/xlink"
   xmlns:sodipodi="http://sodipodi.sourceforge.net/DTD/sodipodi-0.dtd"
   xmlns:inkscape="http://www.inkscape.org/namespaces/inkscape"
   width="48"
   viewBox="0 0 13.546667 13.546667"
   height="48"
   id="svg2"
   version="1.1"
   inkscape:version="0.48.4 r9939"
   sodipodi:docname="giteye.svg">
  <metadata
     id="metadata50">
    <rdf:RDF>
      <cc:Work
         rdf:about="">
        <dc:format>image/svg+xml</dc:format>
        <dc:type
           rdf:resource="http://purl.org/dc/dcmitype/StillImage" />
        <dc:title />
      </cc:Work>
    </rdf:RDF>
  </metadata>
  <sodipodi:namedview
     pagecolor="#ffffff"
     bordercolor="#666666"
     borderopacity="1"
     objecttolerance="10"
     gridtolerance="10"
     guidetolerance="10"
     inkscape:pageopacity="0"
     inkscape:pageshadow="2"
     inkscape:window-width="1024"
     inkscape:window-height="713"
     id="namedview48"
     showgrid="false"
     inkscape:zoom="6.05552"
     inkscape:cx="52.799855"
     inkscape:cy="31.62702"
     inkscape:window-x="0"
     inkscape:window-y="0"
     inkscape:window-maximized="1"
     inkscape:current-layer="svg2" />
  <defs
     id="defs4">
    <linearGradient
       gradientTransform="matrix(1.10525 0 0 1.10525 -134.27874 -295.76183)"
       xlink:href="#linearGradient4460"
       id="linearGradient3007"
       y1="279.096"
       y2="268.33"
       gradientUnits="userSpaceOnUse"
       x2="0" />
    <linearGradient
       id="linearGradient3895-9-0-3-2-4-0">
      <stop
         offset="0"
         style="stop-color:#b7c9e2"
         id="stop8" />
      <stop
         offset="1"
         style="stop-color:#06408f"
         id="stop10" />
    </linearGradient>
    <linearGradient
       id="linearGradient4460">
      <stop
         offset="0"
         style="stop-color:#d7d7d7"
         id="stop13" />
      <stop
         offset="1"
         style="stop-color:#efefef"
         id="stop15" />
    </linearGradient>
    <radialGradient
       cx="148.004"
       cy="160"
       gradientTransform="matrix(.97656 0 0 .97656 -16.5349 -236.25)"
       xlink:href="#linearGradient3895-9-0-3-2-4-0"
       id="radialGradient4432"
       r="128"
       gradientUnits="userSpaceOnUse" />
  </defs>
  <g
     style="fill-rule:evenodd"
     id="g18">
    <rect
       width="12.982"
       x=".282"
       y=".283"
       rx="6.491"
       height="12.982"
       style="opacity:.5;fill:#fff"
       id="rect20" />
    <rect
       width="11.853"
       x=".847"
       y=".847"
       rx="5.926"
       height="11.853"
       style="fill:url(#linearGradient3007)"
       id="rect22" />
  </g>
  <path
     style="fill:#f05133"
     d="m 6.7733335,2.5400001 c -1.0851863,0 -2.1634104,0.4151471 -2.9913797,1.2414774 -1.6559383,1.6526599 -1.6559383,4.3330346 0,5.9856946 1.6559382,1.6526599 4.3268212,1.6526599 5.9827594,0 1.6559378,-1.65266 1.6559378,-4.3330347 0,-5.9856946 C 8.9367439,2.9551472 7.8585198,2.5400001 6.7733335,2.5400001 z"
     id="path40"
     inkscape:connector-curvature="0"
     sodipodi:nodetypes="ssssss" />
  <rect
     style="fill:#f9f9f9;fill-opacity:1;stroke:none"
     id="rect3797"
     width="4.7977781"
     height="0.56444448"
     x="4.2333336"
     y="5.3622222" />
  <path
     sodipodi:type="arc"
     style="fill:#f9f9f9;fill-opacity:1;stroke:none"
     id="path3799"
     sodipodi:cx="-0.70062369"
     sodipodi:cy="26.952097"
     sodipodi:rx="4.0285859"
     sodipodi:ry="5.8093381"
     d="m 3.3279622,26.952097 a 4.0285859,5.8093381 0 1 1 -8.0571718,0 4.0285859,5.8093381 0 1 1 8.0571718,0 z"
     transform="matrix(0.21016473,0,0,0.14574236,6.3561355,1.7163824)" />
  <path
     transform="matrix(0.21016473,0,0,0.14574236,8.6139135,1.7163824)"
     d="m 3.3279622,26.952097 a 4.0285859,5.8093381 0 1 1 -8.0571718,0 4.0285859,5.8093381 0 1 1 8.0571718,0 z"
     sodipodi:ry="5.8093381"
     sodipodi:rx="4.0285859"
     sodipodi:cy="26.952097"
     sodipodi:cx="-0.70062369"
     id="path3801"
     style="fill:#f9f9f9;fill-opacity:1;stroke:none"
     sodipodi:type="arc" />
  <path
     sodipodi:type="arc"
     style="fill:#f9f9f9;fill-opacity:1;stroke:none"
     id="path3803"
     sodipodi:cx="-0.70062369"
     sodipodi:cy="26.952097"
     sodipodi:rx="4.0285859"
     sodipodi:ry="5.8093381"
     d="m 3.3279622,26.952097 a 4.0285859,5.8093381 0 1 1 -8.0571718,0 4.0285859,5.8093381 0 1 1 8.0571718,0 z"
     transform="matrix(0.21016473,0,0,0.14574236,8.6139135,3.9741604)" />
  <rect
     y="0.14704463"
     x="-12.120721"
     height="0.50415474"
     width="4.2853155"
     id="rect3805"
     style="fill:#f9f9f9;fill-opacity:1;stroke:none"
     transform="matrix(-0.70710678,-0.70710678,0.70710678,-0.70710678,0,0)" />
</svg>
