<?xml version="1.0" encoding="UTF-8" standalone="no"?>
<svg
   xmlns:dc="http://purl.org/dc/elements/1.1/"
   xmlns:cc="http://creativecommons.org/ns#"
   xmlns:rdf="http://www.w3.org/1999/02/22-rdf-syntax-ns#"
   xmlns:svg="http://www.w3.org/2000/svg"
   xmlns="http://www.w3.org/2000/svg"
   xmlns:xlink="http://www.w3.org/1999/xlink"
   xmlns:sodipodi="http://sodipodi.sourceforge.net/DTD/sodipodi-0.dtd"
   xmlns:inkscape="http://www.inkscape.org/namespaces/inkscape"
   width="48"
   viewBox="0 0 13.546667 13.546667"
   height="48"
   id="svg2"
   version="1.1"
   inkscape:version="0.48.4 r9939"
   sodipodi:docname="gnome-software.svg">
  <metadata
     id="metadata48">
    <rdf:RDF>
      <cc:Work
         rdf:about="">
        <dc:format>image/svg+xml</dc:format>
        <dc:type
           rdf:resource="http://purl.org/dc/dcmitype/StillImage" />
        <dc:title />
      </cc:Work>
    </rdf:RDF>
  </metadata>
  <sodipodi:namedview
     pagecolor="#333333"
     bordercolor="#666666"
     borderopacity="1"
     objecttolerance="10"
     gridtolerance="10"
     guidetolerance="10"
     inkscape:pageopacity="1"
     inkscape:pageshadow="2"
     inkscape:window-width="1366"
     inkscape:window-height="740"
     id="namedview46"
     showgrid="false"
     inkscape:zoom="18.307408"
     inkscape:cx="23.913849"
     inkscape:cy="31.864111"
     inkscape:window-x="0"
     inkscape:window-y="28"
     inkscape:window-maximized="1"
     inkscape:current-layer="svg2"
     showguides="true"
     inkscape:guide-bbox="true">
    <inkscape:grid
       type="xygrid"
       id="grid3848"
       empspacing="5"
       visible="true"
       enabled="true"
       snapvisiblegridlinesonly="true" />
  </sodipodi:namedview>
  <defs
     id="defs4">
    <linearGradient
       inkscape:collect="always"
       id="linearGradient3846">
      <stop
         style="stop-color:#ffffff;stop-opacity:1;"
         offset="0"
         id="stop3848" />
      <stop
         style="stop-color:#ffffff;stop-opacity:0;"
         offset="1"
         id="stop3850" />
    </linearGradient>
    <linearGradient
       id="linearGradient3809">
      <stop
         style="stop-color:#ffffff;stop-opacity:1;"
         offset="0"
         id="stop3811" />
      <stop
         style="stop-color:#ffffff;stop-opacity:0;"
         offset="1"
         id="stop3813" />
    </linearGradient>
    <linearGradient
       id="linearGradient3801">
      <stop
         style="stop-color:#000000;stop-opacity:1;"
         offset="0"
         id="stop3803" />
      <stop
         style="stop-color:#000000;stop-opacity:0;"
         offset="1"
         id="stop3805" />
    </linearGradient>
    <linearGradient
       gradientTransform="matrix(1.10525,0,0,1.10525,-134.27874,-295.76115)"
       xlink:href="#linearGradient4460-1"
       id="linearGradient3004"
       y1="279.096"
       y2="268.33"
       gradientUnits="userSpaceOnUse"
       x2="0" />
    <linearGradient
       id="linearGradient4460-1">
      <stop
         offset="0"
         style="stop-color:#f39c12;stop-opacity:1;"
         id="stop8" />
      <stop
         offset="1"
         style="stop-color:#f39c12;stop-opacity:1;"
         id="stop10" />
    </linearGradient>
    <linearGradient
       id="linearGradient4460-1-8">
      <stop
         id="stop8-1"
         style="stop-color:#d1d1d1"
         offset="0" />
      <stop
         id="stop10-4"
         style="stop-color:#f9f9f9"
         offset="1" />
    </linearGradient>
    <linearGradient
       x2="0"
       gradientUnits="userSpaceOnUse"
       y2="268.33"
       y1="279.096"
       id="linearGradient3004-1"
       xlink:href="#linearGradient4460-1-8"
       gradientTransform="matrix(1.10525 0 0 1.10525 -134.27874 -295.76115)" />
    <linearGradient
       inkscape:collect="always"
       xlink:href="#linearGradient3809"
       id="linearGradient3815"
       x1="25"
       y1="24"
       x2="25"
       y2="48"
       gradientUnits="userSpaceOnUse"
       gradientTransform="matrix(0.28222223,0,0,0.28222223,-2.125e-7,9.3125e-6)" />
    <linearGradient
       inkscape:collect="always"
       xlink:href="#linearGradient3801"
       id="linearGradient3826"
       gradientUnits="userSpaceOnUse"
       gradientTransform="matrix(0.28222223,0,0,0.28222223,-6.773334,9.3125e-6)"
       x1="25"
       y1="24"
       x2="25"
       y2="0" />
    <linearGradient
       inkscape:collect="always"
       xlink:href="#linearGradient3801"
       id="linearGradient3828"
       gradientUnits="userSpaceOnUse"
       gradientTransform="matrix(0.28222223,0,0,0.28222223,-2.125e-7,9.3125e-6)"
       x1="25"
       y1="24"
       x2="25"
       y2="0" />
    <linearGradient
       id="linearGradient4460-1-2">
      <stop
         id="stop3836"
         style="stop-color:#d1d1d1"
         offset="0" />
      <stop
         id="stop3838"
         style="stop-color:#f9f9f9"
         offset="1" />
    </linearGradient>
    <linearGradient
       x2="0"
       gradientUnits="userSpaceOnUse"
       y2="268.33"
       y1="279.096"
       id="linearGradient3004-4"
       xlink:href="#linearGradient4460-1-2"
       gradientTransform="matrix(1.10525,0,0,1.10525,-134.27874,-295.76115)" />
    <linearGradient
       id="linearGradient4460-1-4">
      <stop
         id="stop8-6"
         style="stop-color:#d1d1d1"
         offset="0" />
      <stop
         id="stop10-5"
         style="stop-color:#f9f9f9"
         offset="1" />
    </linearGradient>
    <linearGradient
       x2="0"
       gradientUnits="userSpaceOnUse"
       y2="268.33"
       y1="279.096"
       id="linearGradient3004-2"
       xlink:href="#linearGradient4460-1-4"
       gradientTransform="matrix(1.10525 0 0 1.10525 -134.27874 -295.76115)" />
    <linearGradient
       inkscape:collect="always"
       xlink:href="#linearGradient3846"
       id="linearGradient3852"
       x1="25"
       y1="34"
       x2="25"
       y2="50"
       gradientUnits="userSpaceOnUse" />
    <linearGradient
       inkscape:collect="always"
       xlink:href="#linearGradient3801"
       id="linearGradient3864"
       x1="25"
       y1="34"
       x2="25"
       y2="19"
       gradientUnits="userSpaceOnUse"
       gradientTransform="matrix(0.28222223,0,0,0.28222223,7.3333333e-7,0)" />
    <linearGradient
       id="linearGradient4460-1-23">
      <stop
         id="stop3035"
         style="stop-color:#d1d1d1"
         offset="0" />
      <stop
         id="stop3037"
         style="stop-color:#f9f9f9"
         offset="1" />
    </linearGradient>
    <linearGradient
       x2="0"
       gradientUnits="userSpaceOnUse"
       y2="268.33"
       y1="279.096"
       id="linearGradient3004-27"
       xlink:href="#linearGradient4460-1-23"
       gradientTransform="matrix(1.10525,0,0,1.10525,-134.27874,-295.76115)" />
  </defs>
  <rect
     id="rect14"
     style="opacity:0.5;fill:#ffffff;fill-rule:evenodd"
     height="12.982"
     rx="6.4910002"
     y="0.28299999"
     x="0.28200001"
     width="12.982" />
  <rect
     id="rect16"
     style="fill:#eaebe1;fill-rule:evenodd;fill-opacity:1"
     height="11.853"
     rx="5.9260001"
     y="0.847"
     x="0.847"
     width="11.853" />
  <rect
     style="opacity:0.4;fill:#000000;fill-opacity:1;stroke:none"
     id="rect3869"
     width="0"
     height="0"
     x="0"
     y="0"
     transform="scale(0.28222223,0.28222223)" />
  <rect
     style="fill:#a17c5b;fill-opacity:1;stroke:none"
     id="rect3813"
     width="8.4666662"
     height="2.8222222"
     x="2.54"
     y="4.5155559" />
  <path
     style="fill:#5281b4;fill-opacity:1"
     d="m 6.7733336,2.2577759 c -1.5586766,0 -2.8222221,1.2635066 -2.8222221,2.8222232 0,1.5586174 1.2635455,2.8222233 2.8222221,2.8222233 1.5586771,0 2.8222225,-1.2636259 2.8222225,-2.8222233 0,-1.5587166 -1.2635454,-2.8222232 -2.8222225,-2.8222232 z"
     id="path3854"
     inkscape:connector-curvature="0"
     sodipodi:nodetypes="sssss" />
  <path
     style="fill:#c49a6c;fill-opacity:1;stroke:none"
     d="M 2.5400001,4.5155556 3.3866667,5.3622224 3.1985185,6.2088889 2.5400001,6.4911112 z"
     id="path3825"
     inkscape:connector-curvature="0"
     sodipodi:nodetypes="ccccc" />
  <path
     style="fill:#d3b092;fill-opacity:1;stroke:none"
     d="m 2.2577778,6.7733334 1.1288889,0 0,-0.2015872 c 0,-0.3359789 0,-1.8320938 0,-1.2095239 l -1.1288889,1.128889 z"
     id="path3815"
     inkscape:connector-curvature="0"
     sodipodi:nodetypes="cccccc" />
  <path
     sodipodi:nodetypes="ccccc"
     inkscape:connector-curvature="0"
     id="path3827"
     d="M 11.006667,4.5155556 10.16,5.3622224 10.348148,6.208889 11.006667,6.4911112 z"
     style="fill:#c49a6c;fill-opacity:1;stroke:none" />
  <path
     sodipodi:nodetypes="cccccc"
     inkscape:connector-curvature="0"
     id="path3829"
     d="m 11.288888,6.7733335 -1.128888,0 0,-0.2015873 c 0,-0.3359789 0,-1.8320936 0,-1.2095238 l 1.128889,1.1087302 z"
     style="fill:#d3b092;fill-opacity:1;stroke:none" />
  <path
     style="fill:#eaebe1;fill-opacity:1;stroke:none"
     d="m 8.3312989,3.3866655 c -1.011823,0 -1.199874,1.340556 -0.6306675,1.340556 0.5691225,0 1.6425305,-1.340556 0.6306675,-1.340556 z m -1.6075845,0.16463 c -0.5694115,0.06861 -0.377385,0.994114 -0.0742,1.011296 0.3030765,0.01719 0.6438125,-1.079911 0.0742,-1.011296 z m -0.9521855,0.364537 c -0.02498,0.0024 -0.057961,0.01253 -0.086571,0.02352 -0.457668,0.175336 -0.0709,0.895312 0.1854915,0.846667 0.240564,-0.04553 0.275624,-0.907092 -0.09894,-0.870186 z m -0.717231,0.564444 c -0.03979,-0.0012 -0.07784,0.01767 -0.123662,0.04704 -0.3663645,0.235016 0.118333,0.793607 0.3338835,0.705556 0.188606,-0.07708 0.06832,-0.743887 -0.2102225,-0.752593 z m 2.089861,0.435093 c -0.7854355,-0.0124 -1.8142385,0.358971 -1.990933,1.0936115 -0.191367,0.7950084 0.783833,1.8932414 1.805443,1.8932414 0.5025795,0 1.078687,-0.418779 1.18714,-0.9525 0.08283,-0.4069934 -0.96545,-0.245787 -0.927454,0.02352 0.04552,0.3228 -0.26208,0.478561 -0.5564715,0.270464 C 5.7247074,6.581266 8.2109389,6.255475 8.0468799,5.3504615 7.9958194,5.0687575 7.6154224,4.9227695 7.1441589,4.9153695 z"
     id="rect3105"
     inkscape:connector-curvature="0"
     sodipodi:nodetypes="ssscccccccsccsscscccss" />
  <path
     style="fill:#c49a6c;fill-opacity:1;stroke:none"
     d="m 2.2577778,6.4911113 0,4.1409617 C 3.3430815,11.926837 4.9604875,12.7 6.7733335,12.7 c 1.812846,0 3.4302525,-0.778057 4.5155555,-2.072821 l 0,-4.1360677 z"
     id="rect3036"
     inkscape:connector-curvature="0"
     sodipodi:nodetypes="ccsccc" />
  <path
     sodipodi:type="arc"
     style="fill:#000000;fill-opacity:1;stroke:none;opacity:0.25"
     id="path3809"
     sodipodi:cx="-46.067875"
     sodipodi:cy="21.734539"
     sodipodi:rx="3.9321249"
     sodipodi:ry="3.734539"
     d="m -42.13575,21.734539 a 3.9321249,3.734539 0 1 1 -7.86425,0 3.9321249,3.734539 0 1 1 7.86425,0 z"
     transform="matrix(0.1076602,0,0,0.11335625,9.3341212,5.8618099)" />
  <path
     transform="matrix(0.1076602,0,0,0.11335625,14.414117,5.8618099)"
     d="m -42.13575,21.734539 a 3.9321249,3.734539 0 1 1 -7.86425,0 3.9321249,3.734539 0 1 1 7.86425,0 z"
     sodipodi:ry="3.734539"
     sodipodi:rx="3.9321249"
     sodipodi:cy="21.734539"
     sodipodi:cx="-46.067875"
     id="path3811"
     style="fill:#000000;fill-opacity:1;stroke:none;opacity:0.25"
     sodipodi:type="arc" />
  <path
     style="fill:#ffffff;fill-opacity:1;stroke:none"
     d="m 4.2333334,8.4666669 c 1.1288889,4.3274071 4.2333335,4.3274071 5.3622224,0 0.059311,-0.3786021 -0.20067,-0.3860159 -0.2822222,0 -0.8466667,3.9511111 -3.9511112,3.9511111 -4.7977779,0 -0.051897,-0.3711883 -0.3341191,-0.3563606 -0.2822223,0 z"
     id="path3831"
     inkscape:connector-curvature="0"
     sodipodi:nodetypes="ccccc" />
  <path
     style="fill:url(#linearGradient3852);fill-opacity:1;stroke:none;opacity:0.06"
     d="M 8 34 L 8 37.6875 C 11.845564 42.275246 17.57653 45 24 45 C 30.42347 45 36.154438 42.243996 40 37.65625 L 40 34 L 8 34 z "
     transform="scale(0.28222223,0.28222223)"
     id="rect3836" />
  <path
     style="opacity:0.06000001;fill:url(#linearGradient3864);fill-opacity:1;stroke:none"
     d="m 2.2577778,6.4911113 0,3.1044445 9.0311122,0 0,-3.1044445 -9.0311122,0 z"
     id="rect3840"
     inkscape:connector-curvature="0" />
</svg>
