<svg xmlns="http://www.w3.org/2000/svg" viewBox="0 0 48 48"><defs><radialGradient id="thisWeirdIdNameFixesABug0" cx="24" cy="24" r="23.437" gradientUnits="userSpaceOnUse"><stop stop-color="#c19553"/><stop offset="1" stop-color="#a17533"/></radialGradient><mask id="thisWeirdIdNameFixesABug1"><path d="m 8 1 c -1.029 0 -2 0.971 -2 2 l 0 42 c 0 0.971 1.029 2 2 2 l 32 0 c 0.971 0 2 -1.029 2 -2 l 0 -31 l -13 -13 l -7 0 l 0 4 l -4 0 l 0 4 l 4 0 l 0 4 l -4 0 l 0 4 l 4 0 l 0 4 l -4 0 l 0 -4 l -4 0 l 0 -4 l 4 0 l 0 -4 l -4 0 l 0 -4 l 4 0 l 0 -4 l -10 0 z m 6 22 l 4 0 l 4 0 l 0 8 l -8 0 l 0 -8 z m 0 14 c 0.584 0 1.07 0.061 1.438 0.188 c 0.367 0.118 0.635 0.267 0.844 0.469 c 0.209 0.193 0.362 0.412 0.438 0.656 c 0.075 0.244 0.125 0.506 0.125 0.75 c 0 0.37 -0.098 0.683 -0.281 0.969 c -0.175 0.286 -0.418 0.519 -0.719 0.688 c 0.526 0.193 0.879 0.453 1.063 0.781 c 0.192 0.328 0.281 0.67 0.281 1.031 c 0 0.471 -0.06 0.868 -0.219 1.188 c -0.159 0.311 -0.381 0.557 -0.656 0.75 c -0.267 0.185 -0.593 0.322 -0.969 0.406 c -0.367 0.076 -0.762 0.125 -1.188 0.125 c -0.342 0 -0.695 -0.02 -1.063 -0.063 c -0.367 -0.034 -0.735 -0.081 -1.094 -0.156 l 0 -7.594 c 0.292 -0.05 0.618 -0.091 0.969 -0.125 c 0.35 -0.042 0.689 -0.062 1.031 -0.063 z m 18.406 0 c 0.184 -0.008 0.358 0 0.5 0 c 0.984 0 1.739 0.213 2.281 0.625 c 0.542 0.404 0.812 1.075 0.813 2 c 0 0.934 -0.262 1.611 -0.813 2.031 c -0.542 0.412 -1.343 0.594 -2.344 0.594 l -0.531 0 l 0 2.656 l -1.531 0 l 0 -7.719 c 0.15 -0.034 0.316 -0.069 0.5 -0.094 c 0.192 -0.025 0.371 -0.023 0.563 -0.031 c 0.192 -0.017 0.379 -0.054 0.563 -0.063 z m -14.09 0.094 l 4.844 0 l 0 1.094 c -0.359 0.555 -0.7 1.075 -1 1.563 c -0.3 0.488 -0.585 0.929 -0.844 1.375 c -0.259 0.437 -0.485 0.869 -0.719 1.281 c -0.225 0.404 -0.448 0.823 -0.656 1.219 l 3.313 0 l 0 1.281 l -5.094 0 l 0 -0.906 c 0.184 -0.362 0.385 -0.73 0.594 -1.125 c 0.209 -0.404 0.429 -0.827 0.688 -1.281 c 0.259 -0.454 0.543 -0.97 0.844 -1.5 c 0.309 -0.53 0.664 -1.096 1.031 -1.719 l -3 0 l 0 -1.281 z m 6.188 0 l 4.938 0 l 0 1.281 l -1.688 0 l 0 5.25 l 1.688 0 l 0 1.281 l -4.938 0 l 0 -1.281 l 1.688 0 l 0 -5.25 l -1.688 0 l 0 -1.281 z m -10.25 1.25 c -0.117 0 -0.25 0.023 -0.375 0.031 c -0.125 0.008 -0.244 0.014 -0.344 0.031 l 0 1.781 l 0.594 0 c 0.392 0 0.706 -0.082 0.906 -0.25 c 0.2 -0.177 0.312 -0.416 0.313 -0.719 c 0 -0.185 -0.035 -0.328 -0.094 -0.438 c -0.058 -0.118 -0.15 -0.222 -0.25 -0.281 c -0.1 -0.067 -0.21 -0.108 -0.344 -0.125 c -0.133 -0.025 -0.264 -0.031 -0.406 -0.031 z m 18.813 0 c -0.092 0 -0.208 0.023 -0.375 0.031 c -0.158 0 -0.283 -0.017 -0.375 0 l 0 2.531 l 0.625 0 c 0.492 0 0.875 -0.088 1.125 -0.281 c 0.25 -0.202 0.375 -0.552 0.375 -1.031 c 0 -0.454 -0.125 -0.784 -0.375 -0.969 c -0.242 -0.193 -0.591 -0.281 -1 -0.281 z m -19.531 3.125 l 0 2.125 c 0.108 0.017 0.219 0.023 0.344 0.031 c 0.133 0.008 0.281 0.031 0.406 0.031 c 0.175 0 0.333 -0.006 0.5 -0.031 c 0.167 -0.034 0.312 -0.112 0.438 -0.188 c 0.133 -0.084 0.26 -0.201 0.344 -0.344 c 0.083 -0.151 0.125 -0.335 0.125 -0.563 c 0 -0.379 -0.133 -0.653 -0.375 -0.813 c -0.234 -0.168 -0.537 -0.25 -0.938 -0.25 l -0.844 0 z" fill="#fff"/></mask></defs><g mask="url(#thisWeirdIdNameFixesABug1)"><path d="m 47.44 11.547 l 0 24.906 c 0 10.25 0 10.984 -10.984 10.984 l -24.902 0 c -10.988 0 -10.988 -0.734 -10.988 -10.984 l 0 -24.906 c 0 -10.25 0 -10.984 10.988 -10.984 l 24.902 0 c 10.984 0 10.984 0.734 10.984 10.984" fill="url(#thisWeirdIdNameFixesABug0)"/><path d="m 38.27 47.44 c 2.543 -0.012 4.379 -0.082 5.711 -0.441 l -4.23 -7.25 -4.484 7.691 1.191 0 c 0.641 0 1.242 0 1.813 0 z m 1.48 -7.691 -5.125 -8.789 -5.129 8.789 z m 0 0 7.652 0 c 0.031 -0.973 0.039 -2.063 0.039 -3.297 l 0 -1.098 -2.563 -4.395 z m 5.129 -8.789 -5.129 -8.789 -5.125 8.789 z m 0 0 2.563 0 0 -4.395 z m -10.254 0 -5.129 -8.789 -5.125 8.789 z m -10.254 0 -5.129 8.789 10.254 0 z m 0 0 -5.129 -8.789 -5.125 8.789 z m -10.254 0 -5.129 8.789 10.254 0 z m 0 0 -5.129 -8.789 -5.125 8.789 z m -10.254 0 -3.297 5.648 c 0 1.168 0.012 2.211 0.039 3.141 l 8.383 0 z m 0 0 -3.297 -5.648 0 5.648 z m 5.125 8.789 -4.313 7.395 c 1.598 0.293 3.809 0.297 6.879 0.297 l 1.922 0 z m 0 -17.578 -5.125 -8.789 -3.297 5.648 0 3.141 z m 0 0 10.254 0 -5.125 -8.789 z m 5.129 -8.789 -5.129 -8.789 -5.125 8.789 z m 0 0 10.254 0 -5.129 -8.789 z m 5.125 -8.789 -2.352 -4.03 -5.336 0 c -0.078 0 -0.141 0 -0.215 0 l -2.352 4.03 z m 0 0 10.254 0 -2.352 -4.03 -5.551 0 z m 10.254 0 10.254 0 l -2.352 -4.03 c -0.313 0 -0.609 0 -0.941 0 l -4.609 0 z m 0 0 -5.125 8.789 10.254 0 z m 5.129 8.789 10.254 0 -5.129 -8.789 z m 0 0 -5.129 8.789 10.254 0 z m 5.125 8.789 7.691 0 0 -4.395 -2.563 -4.395 z m 5.129 -8.789 2.563 0 0 -1.832 c 0 -0.914 -0.008 -1.75 -0.023 -2.523 z m -15.383 8.789 -5.125 -8.789 -5.129 8.789 z m 10.254 -17.578 7.309 0 c -0.555 -2.758 -1.887 -3.629 -5.03 -3.902 z m -30.762 0 l -2.305 -3.953 c -3.66 0.207 -5.141 0.996 -5.734 3.953 z m -5.125 8.789 l -3.238 -5.555 c -0.043 1.074 -0.059 2.309 -0.059 3.723 l 0 1.832 z m 15.379 26.367 -4.484 7.691 8.973 0 z m 10.254 0 -4.484 7.691 8.973 0 z m -26.898 6.621 -1.602 -2.746 c 0.293 1.316 0.785 2.18 1.602 2.746 z" fill="#fff" fill-opacity="0.07690631808278867"/></g></svg>