<svg xmlns="http://www.w3.org/2000/svg" viewBox="0 0 48 48"><defs><radialGradient id="thisWeirdIdNameFixesABug0" cx="24" cy="24" r="23.437" gradientUnits="userSpaceOnUse"><stop stop-color="#c19553"/><stop offset="1" stop-color="#a17533"/></radialGradient><mask id="thisWeirdIdNameFixesABug1"><path d="m 8 1 c -1.029 0 -2 0.971 -2 2 l 0 42 c 0 0.971 1.029 2 2 2 l 32 0 c 0.971 0 2 -1.029 2 -2 l 0 -31 l -13 -13 l -7 0 l 0 4 l -4 0 l 0 4 l 4 0 l 0 4 l -4 0 l 0 4 l 4 0 l 0 4 l -4 0 l 0 -4 l -4 0 l 0 -4 l 4 0 l 0 -4 l -4 0 l 0 -4 l 4 0 l 0 -4 l -10 0 z m 6 22 l 4 0 l 4 0 l 0 8 l -8 0 l 0 -8 z m 10.781 14 c 0.336 0 0.645 0.013 0.906 0.063 c 0.271 0.041 0.492 0.098 0.688 0.156 c 0.196 0.058 0.347 0.121 0.469 0.188 l 0.313 0.156 l -0.469 1.219 c -0.205 -0.116 -0.451 -0.222 -0.75 -0.313 c -0.299 -0.091 -0.62 -0.156 -0.938 -0.156 c -0.411 0 -0.751 0.087 -1.031 0.219 c -0.28 0.132 -0.501 0.323 -0.688 0.563 c -0.177 0.231 -0.322 0.514 -0.406 0.844 c -0.075 0.322 -0.094 0.666 -0.094 1.063 c 0 0.916 0.142 1.594 0.469 2.031 c 0.327 0.429 0.834 0.656 1.469 0.656 c 0.103 0 0.191 -0.023 0.313 -0.031 c 0.121 -0.008 0.241 -0.015 0.344 -0.031 l 0 -2.813 l 1.719 0 l 0 3.844 c -0.205 0.066 -0.53 0.136 -0.969 0.219 c -0.429 0.083 -0.947 0.125 -1.563 0.125 c -0.541 0 -1.03 -0.085 -1.469 -0.25 c -0.429 -0.173 -0.786 -0.42 -1.094 -0.75 c -0.308 -0.338 -0.551 -0.755 -0.719 -1.25 c -0.168 -0.504 -0.25 -1.09 -0.25 -1.75 c 0 -0.652 0.085 -1.223 0.281 -1.719 c 0.196 -0.504 0.477 -0.943 0.813 -1.281 c 0.336 -0.338 0.73 -0.585 1.188 -0.75 c 0.457 -0.173 0.946 -0.25 1.469 -0.25 z m -10.781 0.188 l 6.313 0 l 0 1.25 l -2.281 0 l 0 6.406 l -1.75 0 l 0 -6.406 l -2.281 0 l 0 -1.25 z m 14.469 0 l 5.406 0 l 0 1.063 c -0.401 0.545 -0.758 1.052 -1.094 1.531 c -0.336 0.479 -0.648 0.937 -0.938 1.375 c -0.289 0.429 -0.582 0.845 -0.844 1.25 c -0.252 0.396 -0.485 0.768 -0.719 1.156 l 3.719 0 l 0 1.281 l -5.719 0 l 0 -0.875 c 0.205 -0.355 0.423 -0.737 0.656 -1.125 c 0.233 -0.396 0.492 -0.804 0.781 -1.25 c 0.289 -0.446 0.602 -0.949 0.938 -1.469 c 0.345 -0.52 0.746 -1.077 1.156 -1.688 l -3.344 0 l 0 -1.25 z" fill="#fff"/></mask></defs><g mask="url(#thisWeirdIdNameFixesABug1)"><path d="m 47.44 11.547 l 0 24.906 c 0 10.25 0 10.984 -10.984 10.984 l -24.902 0 c -10.988 0 -10.988 -0.734 -10.988 -10.984 l 0 -24.906 c 0 -10.25 0 -10.984 10.988 -10.984 l 24.902 0 c 10.984 0 10.984 0.734 10.984 10.984" fill="url(#thisWeirdIdNameFixesABug0)"/><path d="m 38.27 47.44 c 2.543 -0.012 4.379 -0.082 5.711 -0.441 l -4.23 -7.25 -4.484 7.691 1.191 0 c 0.641 0 1.242 0 1.813 0 z m 1.48 -7.691 -5.125 -8.789 -5.129 8.789 z m 0 0 7.652 0 c 0.031 -0.973 0.039 -2.063 0.039 -3.297 l 0 -1.098 -2.563 -4.395 z m 5.129 -8.789 -5.129 -8.789 -5.125 8.789 z m 0 0 2.563 0 0 -4.395 z m -10.254 0 -5.129 -8.789 -5.125 8.789 z m -10.254 0 -5.129 8.789 10.254 0 z m 0 0 -5.129 -8.789 -5.125 8.789 z m -10.254 0 -5.129 8.789 10.254 0 z m 0 0 -5.129 -8.789 -5.125 8.789 z m -10.254 0 -3.297 5.648 c 0 1.168 0.012 2.211 0.039 3.141 l 8.383 0 z m 0 0 -3.297 -5.648 0 5.648 z m 5.125 8.789 -4.313 7.395 c 1.598 0.293 3.809 0.297 6.879 0.297 l 1.922 0 z m 0 -17.578 -5.125 -8.789 -3.297 5.648 0 3.141 z m 0 0 10.254 0 -5.125 -8.789 z m 5.129 -8.789 -5.129 -8.789 -5.125 8.789 z m 0 0 10.254 0 -5.129 -8.789 z m 5.125 -8.789 -2.352 -4.03 -5.336 0 c -0.078 0 -0.141 0 -0.215 0 l -2.352 4.03 z m 0 0 10.254 0 -2.352 -4.03 -5.551 0 z m 10.254 0 10.254 0 l -2.352 -4.03 c -0.313 0 -0.609 0 -0.941 0 l -4.609 0 z m 0 0 -5.125 8.789 10.254 0 z m 5.129 8.789 10.254 0 -5.129 -8.789 z m 0 0 -5.129 8.789 10.254 0 z m 5.125 8.789 7.691 0 0 -4.395 -2.563 -4.395 z m 5.129 -8.789 2.563 0 0 -1.832 c 0 -0.914 -0.008 -1.75 -0.023 -2.523 z m -15.383 8.789 -5.125 -8.789 -5.129 8.789 z m 10.254 -17.578 7.309 0 c -0.555 -2.758 -1.887 -3.629 -5.03 -3.902 z m -30.762 0 l -2.305 -3.953 c -3.66 0.207 -5.141 0.996 -5.734 3.953 z m -5.125 8.789 l -3.238 -5.555 c -0.043 1.074 -0.059 2.309 -0.059 3.723 l 0 1.832 z m 15.379 26.367 -4.484 7.691 8.973 0 z m 10.254 0 -4.484 7.691 8.973 0 z m -26.898 6.621 -1.602 -2.746 c 0.293 1.316 0.785 2.18 1.602 2.746 z" fill="#fff" fill-opacity="0.07690631808278867"/></g></svg>