<svg xmlns="http://www.w3.org/2000/svg" viewBox="0 0 48 48"><defs><radialGradient id="thisWeirdIdNameFixesABug0" cx="24" cy="24" r="23.437" gradientUnits="userSpaceOnUse"><stop stop-color="#888"/><stop offset="1" stop-color="#686868"/></radialGradient><mask id="thisWeirdIdNameFixesABug1"><path d="m 8 1 c -1.029 0 -2 0.971 -2 2 l 0 42 c 0 0.971 1.029 2 2 2 l 32 0 c 0.971 0 2 -1.029 2 -2 l 0 -31 l -13 -13 l -21 0 z m 17.469 15.5 c 1.829 0 3.475 0.361 4.969 1.063 c 1.494 0.693 2.746 1.687 3.75 3 c 0.612 0.799 1.096 1.656 1.406 2.594 c 0.318 0.93 0.469 1.91 0.469 2.938 c 0 2.21 -0.669 3.933 -2 5.156 c -1.331 1.223 -3.2 1.844 -5.625 1.844 l -0.5 0 l 0 -1.875 c -0.245 0.579 -0.64 1.018 -1.188 1.344 c -0.539 0.318 -1.148 0.469 -1.875 0.469 c -1.404 0 -2.556 -0.489 -3.438 -1.5 c -0.874 -1.019 -1.313 -2.338 -1.313 -3.969 c 0 -1.631 0.431 -2.981 1.313 -4 c 0.882 -1.019 2.041 -1.531 3.438 -1.531 c 0.727 0 1.336 0.174 1.875 0.5 c 0.547 0.326 0.943 0.765 1.188 1.344 l 0 -1.594 l 2.563 0 l 0 8.469 c 1.012 -0.155 1.827 -0.622 2.406 -1.438 c 0.58 -0.824 0.875 -1.876 0.875 -3.156 c 0 -0.815 -0.138 -1.572 -0.375 -2.281 c -0.237 -0.718 -0.581 -1.373 -1.063 -1.969 c -0.776 -0.995 -1.77 -1.774 -2.938 -2.313 c -1.159 -0.538 -2.395 -0.812 -3.75 -0.813 c -0.947 0 -1.853 0.122 -2.719 0.375 c -0.865 0.245 -1.671 0.613 -2.406 1.094 c -1.208 0.799 -2.166 1.853 -2.844 3.125 c -0.67 1.264 -1 2.618 -1 4.094 c 0 1.215 0.224 2.369 0.656 3.438 c 0.441 1.06 1.082 1.997 1.906 2.813 c 0.816 0.799 1.728 1.397 2.781 1.813 c 1.061 0.424 2.206 0.625 3.406 0.625 c 1.029 0 2.065 -0.179 3.094 -0.563 c 1.029 -0.383 1.898 -0.91 2.625 -1.563 l 1.313 2 c -1.021 0.791 -2.135 1.397 -3.344 1.813 c -1.2 0.424 -2.415 0.625 -3.656 0.625 c -1.511 0 -2.942 -0.274 -4.281 -0.813 c -1.339 -0.53 -2.517 -1.293 -3.563 -2.313 c -1.045 -1.019 -1.859 -2.194 -2.406 -3.531 c -0.547 -1.346 -0.813 -2.802 -0.813 -4.344 c 0 -1.484 0.289 -2.904 0.844 -4.25 c 0.555 -1.346 1.346 -2.512 2.375 -3.531 c 1.029 -1.01 2.199 -1.789 3.563 -2.344 c 1.372 -0.555 2.812 -0.844 4.281 -0.844 z m -0.188 7.813 c -0.719 0 -1.286 0.296 -1.719 0.875 c -0.425 0.571 -0.625 1.357 -0.625 2.344 c 0 1 0.2 1.796 0.625 2.375 c 0.433 0.579 1.015 0.844 1.75 0.844 c 0.727 0 1.317 -0.265 1.75 -0.844 c 0.433 -0.587 0.656 -1.38 0.656 -2.375 c 0 -0.987 -0.247 -1.773 -0.688 -2.344 c -0.433 -0.579 -1.015 -0.875 -1.75 -0.875 z" fill="#fff"/></mask></defs><g mask="url(#thisWeirdIdNameFixesABug1)"><path d="m 47.44 11.547 l 0 24.906 c 0 10.25 0 10.984 -10.984 10.984 l -24.902 0 c -10.988 0 -10.988 -0.734 -10.988 -10.984 l 0 -24.906 c 0 -10.25 0 -10.984 10.988 -10.984 l 24.902 0 c 10.984 0 10.984 0.734 10.984 10.984" fill="url(#thisWeirdIdNameFixesABug0)"/><path d="m 38.27 47.44 c 2.543 -0.012 4.379 -0.082 5.711 -0.441 l -4.23 -7.25 -4.484 7.691 1.191 0 c 0.641 0 1.242 0 1.813 0 z m 1.48 -7.691 -5.125 -8.789 -5.129 8.789 z m 0 0 7.652 0 c 0.031 -0.973 0.039 -2.063 0.039 -3.297 l 0 -1.098 -2.563 -4.395 z m 5.129 -8.789 -5.129 -8.789 -5.125 8.789 z m 0 0 2.563 0 0 -4.395 z m -10.254 0 -5.129 -8.789 -5.125 8.789 z m -10.254 0 -5.129 8.789 10.254 0 z m 0 0 -5.129 -8.789 -5.125 8.789 z m -10.254 0 -5.129 8.789 10.254 0 z m 0 0 -5.129 -8.789 -5.125 8.789 z m -10.254 0 -3.297 5.648 c 0 1.168 0.012 2.211 0.039 3.141 l 8.383 0 z m 0 0 -3.297 -5.648 0 5.648 z m 5.125 8.789 -4.313 7.395 c 1.598 0.293 3.809 0.297 6.879 0.297 l 1.922 0 z m 0 -17.578 -5.125 -8.789 -3.297 5.648 0 3.141 z m 0 0 10.254 0 -5.125 -8.789 z m 5.129 -8.789 -5.129 -8.789 -5.125 8.789 z m 0 0 10.254 0 -5.129 -8.789 z m 5.125 -8.789 -2.352 -4.03 -5.336 0 c -0.078 0 -0.141 0 -0.215 0 l -2.352 4.03 z m 0 0 10.254 0 -2.352 -4.03 -5.551 0 z m 10.254 0 10.254 0 l -2.352 -4.03 c -0.313 0 -0.609 0 -0.941 0 l -4.609 0 z m 0 0 -5.125 8.789 10.254 0 z m 5.129 8.789 10.254 0 -5.129 -8.789 z m 0 0 -5.129 8.789 10.254 0 z m 5.125 8.789 7.691 0 0 -4.395 -2.563 -4.395 z m 5.129 -8.789 2.563 0 0 -1.832 c 0 -0.914 -0.008 -1.75 -0.023 -2.523 z m -15.383 8.789 -5.125 -8.789 -5.129 8.789 z m 10.254 -17.578 7.309 0 c -0.555 -2.758 -1.887 -3.629 -5.03 -3.902 z m -30.762 0 l -2.305 -3.953 c -3.66 0.207 -5.141 0.996 -5.734 3.953 z m -5.125 8.789 l -3.238 -5.555 c -0.043 1.074 -0.059 2.309 -0.059 3.723 l 0 1.832 z m 15.379 26.367 -4.484 7.691 8.973 0 z m 10.254 0 -4.484 7.691 8.973 0 z m -26.898 6.621 -1.602 -2.746 c 0.293 1.316 0.785 2.18 1.602 2.746 z" fill="#fff" fill-opacity="0.07320261437908497"/></g></svg>