<svg xmlns="http://www.w3.org/2000/svg" viewBox="0 0 48 48"><defs><radialGradient id="thisWeirdIdNameFixesABug0" cx="24" cy="24" r="23.437" gradientUnits="userSpaceOnUse"><stop stop-color="#01b3f1"/><stop offset="1" stop-color="#0093d1"/></radialGradient></defs><path d="m 47.44 11.547 l 0 24.906 c 0 10.25 0 10.984 -10.984 10.984 l -24.902 0 c -10.988 0 -10.988 -0.734 -10.988 -10.984 l 0 -24.906 c 0 -10.25 0 -10.984 10.988 -10.984 l 24.902 0 c 10.984 0 10.984 0.734 10.984 10.984" fill="url(#thisWeirdIdNameFixesABug0)"/><!-- color: #01b3f1 --><path d="m 20.383 14 c 0.078 -0.004 0.133 0.023 0.176 0.09 c 0.215 0.379 -0.215 1.613 0.109 2.254 c 0.324 0.645 0.324 0.805 2.906 0.484 c 2.582 -0.324 6.457 0.801 7.859 2.195 c 1.398 1.395 3.82 4.938 4.305 6.973 c 0.484 2.039 0.273 2.145 -0.375 1.824 c -0.645 -0.32 -1.184 -3.16 -5.01 -5.04 c -3.824 -1.879 -5.602 -0.379 -5.602 -0.379 c 0 0 3.285 -0.43 5.707 1.555 c 2.426 1.984 3.93 3.539 3.879 4.129 c -0.055 0.59 -0.273 0.484 -0.648 0 c -0.379 -0.48 -2.637 -3.434 -5.328 -4.395 c -2.688 -0.965 -3.82 -0.91 -4.84 -0.375 c -1.023 0.535 -1.242 1.07 0.211 1.449 c 1.453 0.375 2.047 0.215 2.047 0.215 c 0 0 -1.238 1.121 -3.01 1.121 c -1.777 0 -2.852 -0.105 -2.852 -0.105 c 0 0 -4.414 4.559 -5.547 5.473 c -1.129 0.91 -2.367 0.484 -2.367 -0.055 c 0 -0.535 0.539 -2.035 0.539 -2.035 c 0 0 -1.125 -2.523 0.164 -5.367 c 1.293 -2.84 4.844 -5.789 4.844 -5.789 c 0 0 0.375 -1.609 1.18 -2.68 c 0.656 -0.871 1.316 -1.527 1.652 -1.543 m 0 -0.004" fill="#fff"/><path d="m 38.27 47.44 c 2.543 -0.012 4.379 -0.082 5.711 -0.441 l -4.23 -7.25 -4.484 7.691 1.191 0 c 0.641 0 1.242 0 1.813 0 z m 1.48 -7.691 -5.125 -8.789 -5.129 8.789 z m 0 0 7.652 0 c 0.031 -0.973 0.039 -2.063 0.039 -3.297 l 0 -1.098 -2.563 -4.395 z m 5.129 -8.789 -5.129 -8.789 -5.125 8.789 z m 0 0 2.563 0 0 -4.395 z m -10.254 0 -5.129 -8.789 -5.125 8.789 z m -10.254 0 -5.129 8.789 10.254 0 z m 0 0 -5.129 -8.789 -5.125 8.789 z m -10.254 0 -5.129 8.789 10.254 0 z m 0 0 -5.129 -8.789 -5.125 8.789 z m -10.254 0 -3.297 5.648 c 0 1.168 0.012 2.211 0.039 3.141 l 8.383 0 z m 0 0 -3.297 -5.648 0 5.648 z m 5.125 8.789 -4.313 7.395 c 1.598 0.293 3.809 0.297 6.879 0.297 l 1.922 0 z m 0 -17.578 -5.125 -8.789 -3.297 5.648 0 3.141 z m 0 0 10.254 0 -5.125 -8.789 z m 5.129 -8.789 -5.129 -8.789 -5.125 8.789 z m 0 0 10.254 0 -5.129 -8.789 z m 5.125 -8.789 -2.352 -4.03 -5.336 0 c -0.078 0 -0.141 0 -0.215 0 l -2.352 4.03 z m 0 0 10.254 0 -2.352 -4.03 -5.551 0 z m 10.254 0 10.254 0 l -2.352 -4.03 c -0.313 0 -0.609 0 -0.941 0 l -4.609 0 z m 0 0 -5.125 8.789 10.254 0 z m 5.129 8.789 10.254 0 -5.129 -8.789 z m 0 0 -5.129 8.789 10.254 0 z m 5.125 8.789 7.691 0 0 -4.395 -2.563 -4.395 z m 5.129 -8.789 2.563 0 0 -1.832 c 0 -0.914 -0.008 -1.75 -0.023 -2.523 z m -15.383 8.789 -5.125 -8.789 -5.129 8.789 z m 10.254 -17.578 7.309 0 c -0.555 -2.758 -1.887 -3.629 -5.03 -3.902 z m -30.762 0 l -2.305 -3.953 c -3.66 0.207 -5.141 0.996 -5.734 3.953 z m -5.125 8.789 l -3.238 -5.555 c -0.043 1.074 -0.059 2.309 -0.059 3.723 l 0 1.832 z m 15.379 26.367 -4.484 7.691 8.973 0 z m 10.254 0 -4.484 7.691 8.973 0 z m -26.898 6.621 -1.602 -2.746 c 0.293 1.316 0.785 2.18 1.602 2.746 z" fill="#fff" fill-opacity="0.07603485838779957"/></svg>