<svg xmlns="http://www.w3.org/2000/svg" viewBox="0 0 48 48"><defs><radialGradient id="thisWeirdIdNameFixesABug0" cx="24" cy="24" r="23.437" gradientUnits="userSpaceOnUse"><stop stop-color="#859900"/><stop offset="1" stop-color="#657900"/></radialGradient><mask id="thisWeirdIdNameFixesABug1"><path d="m 29.5 18.875 c 0 0.953 -0.172 1.758 -0.508 2.398 -0.336 0.633 -0.797 1.141 -1.383 1.531 -0.57 0.375 -1.258 0.648 -2.055 0.82 -0.781 0.148 -1.625 0.227 -2.531 0.227 c -1.594 0.016 -3.563 -0.563 -5.02 -0.789 l 0 -15.06 c 1.461 -0.258 3.32 -0.25 4.703 -0.32 1.242 0 2.258 0.125 3.039 0.383 0.781 0.234 1.391 0.563 1.836 0.969 0.445 0.391 0.75 0.836 0.906 1.328 0.164 0.492 0.242 0.984 0.242 1.477 0 0.75 -0.195 1.414 -0.586 1.992 -0.375 0.578 -0.883 1.039 -1.523 1.375 1.125 0.391 1.875 0.922 2.266 1.586 c 0.414 0.664 0.617 1.359 0.617 2.086 m -7.789 -2.141 0 4.289 c 0.234 0.031 0.484 0.055 0.75 0.078 0.281 0.016 0.563 0.023 0.828 0.023 0.367 0 0.734 -0.023 1.094 -0.078 0.352 -0.07 0.664 -0.18 0.93 -0.328 0.289 -0.172 0.516 -0.406 0.695 -0.695 0.18 -0.305 0.266 -0.688 0.266 -1.148 0 -0.766 -0.258 -1.305 -0.773 -1.633 c -0.5 -0.336 -1.172 -0.508 -2.023 -0.508 l -1.766 0 m 1.281 -2.602 c 0.836 0 1.469 -0.172 1.891 -0.508 0.43 -0.359 0.641 -0.844 0.641 -1.453 0 -0.375 -0.063 -0.672 -0.18 -0.898 -0.125 -0.234 -0.297 -0.414 -0.508 -0.531 -0.219 -0.141 -0.469 -0.227 -0.75 -0.258 -0.281 -0.047 -0.578 -0.078 -0.883 -0.078 -0.242 0 -0.5 0.008 -0.773 0.031 -0.266 0.016 -0.5 0.039 -0.719 0.07 l 0 3.625 1.281 0" fill="#fff"/><path d="m 40.789 23.984 c -2.633 0 -4.641 -0.719 -6.03 -2.148 c -1.383 -1.43 -2.758 -3.203 -2.758 -5.836 c -0.055 -2.789 1.195 -4.695 3.063 -6.328 0.758 -0.719 1.656 -1.25 2.68 -1.609 1.047 -0.375 2.18 -0.563 3.406 -0.563 0.664 0 1.258 0.055 1.781 0.156 0.539 0.078 1.01 0.188 1.414 0.305 0.398 0.117 0.734 0.242 0.992 0.383 0.281 0.133 0.492 0.234 0.633 0.305 l -0.961 2.5 c -0.461 -0.258 -1.023 -0.469 -1.688 -0.641 -0.648 -0.188 -1.391 -0.281 -2.234 -0.281 -0.578 0 -1.156 0.094 -1.719 0.281 -0.539 0.172 -1.031 0.469 -1.477 0.898 -0.422 0.406 -0.84 0.828 -1.121 1.523 c -0.258 0.695 -0.77 2.031 -0.77 3.07 c 0 1.805 0.805 2.852 1.531 3.82 0.742 0.953 1.945 1.43 3.617 1.43 0.961 0 1.758 -0.094 2.383 -0.281 0.641 -0.188 1.156 -0.375 1.531 -0.563 l 0.938 2.477 c -0.523 0.273 -1.234 0.531 -2.141 0.766 -0.883 0.219 -1.906 0.336 -3.07 0.336" fill="#fff"/><path d="m 8 8 -6 16 2.75 0 2.266 -6 3.852 0 2.133 6 2.75 0 -5.75 -16 z m 0.875 3.641 1.125 4.359 -2.699 0 z" fill="#fff"/><path d="m 24 34 l 16 -16 l 6 6 l -22 22 c -4.586 -4.586 -9.414 -9.422 -14 -14 l 6 -6" fill="#fff"/></mask></defs><g mask="url(#thisWeirdIdNameFixesABug1)"><path d="m 47.44 11.547 l 0 24.906 c 0 10.25 0 10.984 -10.984 10.984 l -24.902 0 c -10.988 0 -10.988 -0.734 -10.988 -10.984 l 0 -24.906 c 0 -10.25 0 -10.984 10.988 -10.984 l 24.902 0 c 10.984 0 10.984 0.734 10.984 10.984" fill="url(#thisWeirdIdNameFixesABug0)"/><path d="m 38.27 47.44 c 2.543 -0.012 4.379 -0.082 5.711 -0.441 l -4.23 -7.25 -4.484 7.691 1.191 0 c 0.641 0 1.242 0 1.813 0 z m 1.48 -7.691 -5.125 -8.789 -5.129 8.789 z m 0 0 7.652 0 c 0.031 -0.973 0.039 -2.063 0.039 -3.297 l 0 -1.098 -2.563 -4.395 z m 5.129 -8.789 -5.129 -8.789 -5.125 8.789 z m 0 0 2.563 0 0 -4.395 z m -10.254 0 -5.129 -8.789 -5.125 8.789 z m -10.254 0 -5.129 8.789 10.254 0 z m 0 0 -5.129 -8.789 -5.125 8.789 z m -10.254 0 -5.129 8.789 10.254 0 z m 0 0 -5.129 -8.789 -5.125 8.789 z m -10.254 0 -3.297 5.648 c 0 1.168 0.012 2.211 0.039 3.141 l 8.383 0 z m 0 0 -3.297 -5.648 0 5.648 z m 5.125 8.789 -4.313 7.395 c 1.598 0.293 3.809 0.297 6.879 0.297 l 1.922 0 z m 0 -17.578 -5.125 -8.789 -3.297 5.648 0 3.141 z m 0 0 10.254 0 -5.125 -8.789 z m 5.129 -8.789 -5.129 -8.789 -5.125 8.789 z m 0 0 10.254 0 -5.129 -8.789 z m 5.125 -8.789 -2.352 -4.03 -5.336 0 c -0.078 0 -0.141 0 -0.215 0 l -2.352 4.03 z m 0 0 10.254 0 -2.352 -4.03 -5.551 0 z m 10.254 0 10.254 0 l -2.352 -4.03 c -0.313 0 -0.609 0 -0.941 0 l -4.609 0 z m 0 0 -5.125 8.789 10.254 0 z m 5.129 8.789 10.254 0 -5.129 -8.789 z m 0 0 -5.129 8.789 10.254 0 z m 5.125 8.789 7.691 0 0 -4.395 -2.563 -4.395 z m 5.129 -8.789 2.563 0 0 -1.832 c 0 -0.914 -0.008 -1.75 -0.023 -2.523 z m -15.383 8.789 -5.125 -8.789 -5.129 8.789 z m 10.254 -17.578 7.309 0 c -0.555 -2.758 -1.887 -3.629 -5.03 -3.902 z m -30.762 0 l -2.305 -3.953 c -3.66 0.207 -5.141 0.996 -5.734 3.953 z m -5.125 8.789 l -3.238 -5.555 c -0.043 1.074 -0.059 2.309 -0.059 3.723 l 0 1.832 z m 15.379 26.367 -4.484 7.691 8.973 0 z m 10.254 0 -4.484 7.691 8.973 0 z m -26.898 6.621 -1.602 -2.746 c 0.293 1.316 0.785 2.18 1.602 2.746 z" fill="#fff" fill-opacity="0.046623093681917215"/></g></svg>