<svg xmlns="http://www.w3.org/2000/svg" xmlns:xlink="http://www.w3.org/1999/xlink" width="48" height="48">
 <defs>
  <clipPath>
   <path d="M -670.14006,51.863192 L -114.61564,405.00326 L -257.11075,510.32573 L -514.2215,-71.013029 L -670.14006,51.863192 z"/>
  </clipPath>
  <clipPath>
   <rect width="20" x="1" y="1" rx="2" height="20" fill="#fff" fill-rule="evenodd"/>
  </clipPath>
  <clipPath>
   <rect width="84" x="6" y="6" rx="6" height="84" fill="#fff"/>
  </clipPath>
  <clipPath>
   <path d="M 54.1,12.5 12.9,54.7 C -2.7,70.3 23,69 32.3,74.9 36.6,77.7 18.5,81.3 22.2,85 c 3.6,3.7 21.7,7.1 25.3,10.7 3.6,3.7 -7.3,7.6 -3.7,11.3 3.5,3.7 11.9,0.2 13.4,8.6 1.1,6.2 15.4,3.1 21.8,-2.2 4,-3.4 -6.9,-3.4 -3.3,-7.1 9,-9.1 17,-4.1 20.3,-12.5 1.8,-4.5 -13.6,-7.7 -9.5,-10.6 9.8,-6.9 45.8,-10.4 29.2,-27 L 73,12.5 c -5.3,-5 -14,-5 -18.9,0 z m -9.9,64.7 c 0.9,0 30.8,4 19.3,7.1 -4.4,1.2 -24.6,-7.1 -19.3,-7.1 z m 57.2,16.6 c 0,2.1 16.3,3.3 15.4,-0.5 -1.3,-6.4 -13.6,-5.9 -15.4,0.5 z m -69.5,11.1 c 3.7,3.2 9.3,-0.7 11.1,-5.2 -3.6,-4.7 -16.9,0.3 -11.1,5.2 z m 67.5,-6.7 c -4.6,4.2 0.8,8.6 5.3,5.7 1.2,-0.8 -0.1,-4.7 -5.3,-5.7 z"/>
  </clipPath>
  <clipPath>
   <rect width="96" x="-100" height="96" fill="#fff"/>
  </clipPath>
  <clipPath>
   <path d="M 95.311,352.545 L 476.403,352.545 L 476.403,71.4229 L 95.311,71.4229 L 95.311,352.545 z"/>
  </clipPath>
  <clipPath>
   <path d="M 93.311,354.545 L 478.511,354.545 L 478.511,69.1846 L 93.311,69.1846 L 93.311,354.545 z"/>
  </clipPath>
  <clipPath>
   <path d="M 93.311,69.185 L 478.511,69.185 L 478.511,354.545 L 93.311,354.545 L 93.311,69.185 z"/>
  </clipPath>
  <clipPath>
   <path d="M 92.311,355.545 L 479.511,355.545 L 479.511,68.1846 L 92.311,68.1846 L 92.311,355.545 z"/>
  </clipPath>
  <linearGradient gradientTransform="translate(0,-1004.3622)" y2="1047.36" x2="0" y1="1028.36" gradientUnits="userSpaceOnUse" id="0" xlink:href="#1"/>
  <linearGradient id="1">
   <stop stop-color="#ffffff"/>
   <stop offset="1" stop-color="#ffffff" stop-opacity="0"/>
  </linearGradient>
  <linearGradient xlink:href="#3" id="2" gradientUnits="userSpaceOnUse" y1="1028.36" x2="0" y2="1047.36" gradientTransform="matrix(1,0,0,-1,0,1052.3622)"/>
  <linearGradient id="3">
   <stop/>
   <stop offset="1" stop-opacity="0"/>
  </linearGradient>
  <use id="4" fill="none" xlink:href="#1J"/>
  <clipPath>
   <use xlink:href="#4"/>
  </clipPath>
  <clipPath>
   <use transform="matrix(8,0,0,8,-2141.5757,-54.424243)" xlink:href="#4"/>
  </clipPath>
  <use id="5" fill="none" xlink:href="#1J"/>
  <clipPath>
   <use xlink:href="#5"/>
  </clipPath>
  <clipPath>
   <use transform="matrix(8,0,0,8,-2141.5757,-54.424243)" xlink:href="#5"/>
  </clipPath>
  <use id="6" fill="none" xlink:href="#1J"/>
  <clipPath>
   <use xlink:href="#6"/>
  </clipPath>
  <clipPath>
   <use transform="matrix(8,0,0,8,-2141.5757,-54.424243)" xlink:href="#6"/>
  </clipPath>
  <use id="7" fill="none" xlink:href="#1J"/>
  <clipPath>
   <use xlink:href="#7"/>
  </clipPath>
  <clipPath>
   <use transform="matrix(8,0,0,8,-2141.5757,-54.424243)" xlink:href="#7"/>
  </clipPath>
  <use id="8" fill="none" xlink:href="#1J"/>
  <clipPath>
   <use xlink:href="#8"/>
  </clipPath>
  <clipPath>
   <use transform="matrix(8,0,0,8,-2141.5757,-54.424243)" xlink:href="#8"/>
  </clipPath>
  <use id="9" fill="none" xlink:href="#1J"/>
  <clipPath>
   <use xlink:href="#9"/>
  </clipPath>
  <clipPath>
   <use transform="matrix(8,0,0,8,-2141.5757,-54.424243)" xlink:href="#9"/>
  </clipPath>
  <use id="A" fill="none" xlink:href="#1J"/>
  <clipPath>
   <use xlink:href="#A"/>
  </clipPath>
  <clipPath>
   <use transform="matrix(8,0,0,8,-2141.5757,-54.424243)" xlink:href="#A"/>
  </clipPath>
  <linearGradient y2="31.619" x2="0" y1="299.81" gradientTransform="matrix(0.11931818,0,0,0.11931818,414.13636,48.22727)" gradientUnits="userSpaceOnUse" id="B" xlink:href="#K"/>
  <clipPath>
   <rect y="53" x="417" height="30" width="30" fill="url(#B)" color="#bebebe" rx="7"/>
  </clipPath>
  <linearGradient y2="28.571" x2="0" y1="302.86" gradientTransform="matrix(0.0875,0,0,0.0875,414.9,97.5)" gradientUnits="userSpaceOnUse" id="C" xlink:href="#K"/>
  <clipPath>
   <rect width="22" height="22" x="417" y="101" fill="url(#C)" color="#bebebe" rx="5"/>
  </clipPath>
  <linearGradient y2="28" x2="0" y1="124" gradientUnits="userSpaceOnUse" id="D" xlink:href="#K"/>
  <clipPath>
   <rect y="32" x="292" height="88" width="88" fill="url(#D)" color="#bebebe" rx="18"/>
  </clipPath>
  <linearGradient y2="140" x2="0" y1="204" gradientUnits="userSpaceOnUse" id="E" xlink:href="#K"/>
  <clipPath>
   <rect width="60" height="60" x="290" y="142" fill="url(#E)" color="#bebebe" rx="12.5"/>
  </clipPath>
  <linearGradient y2="40" x2="0" y1="280" gradientTransform="translate(0,-4)" gradientUnits="userSpaceOnUse" id="F" xlink:href="#K"/>
  <clipPath>
   <rect width="220" height="220" x="34" y="46" fill="url(#F)" color="#bebebe" rx="50"/>
  </clipPath>
  <linearGradient y2="40" x2="0" y1="280" gradientTransform="matrix(0.06666667,0,0,0.06666667,302.4,209.33333)" gradientUnits="userSpaceOnUse" id="G" xlink:href="#K"/>
  <clipPath>
   <rect transform="matrix(0,1,-1,0,0,0)" y="212" x="304" height="16" width="16" fill="url(#G)" color="#bebebe" rx="3"/>
  </clipPath>
  <linearGradient y2="40" x2="0" y1="291.43" gradientTransform="matrix(0.11931818,0,0,0.11931818,430.13636,32.227267)" gradientUnits="userSpaceOnUse" id="H" xlink:href="#K"/>
  <clipPath>
   <rect y="37" x="433" height="30" width="30" fill="url(#H)" color="#bebebe" rx="6"/>
  </clipPath>
  <linearGradient y2="40" x2="0" y1="291.43" gradientTransform="matrix(0.0875,0,0,0.0875,430.9,81.499996)" gradientUnits="userSpaceOnUse" id="I" xlink:href="#K"/>
  <clipPath>
   <rect width="22" height="22" x="433" y="85" fill="url(#I)" color="#bebebe" rx="4"/>
  </clipPath>
  <linearGradient y2="40" x2="0" y1="280" gradientTransform="matrix(0.175,0,0,0.175,302.79999,215.99997)" gradientUnits="userSpaceOnUse" id="J" xlink:href="#K"/>
  <clipPath>
   <rect transform="matrix(0,1,-1,0,0,0)" width="42" height="42" x="307" y="223" fill="url(#J)" color="#bebebe" rx="9"/>
  </clipPath>
  <linearGradient id="K">
   <stop stop-color="#620000"/>
   <stop offset="1" stop-color="#dd0f0f"/>
  </linearGradient>
  <use id="L" fill="none" xlink:href="#1J"/>
  <clipPath>
   <use xlink:href="#L"/>
  </clipPath>
  <clipPath>
   <use transform="matrix(8,0,0,8,-2141.5757,-54.424243)" xlink:href="#L"/>
  </clipPath>
  <use id="M" fill="none" xlink:href="#1J"/>
  <clipPath>
   <use xlink:href="#M"/>
  </clipPath>
  <clipPath>
   <use transform="matrix(8,0,0,8,-2141.5757,-54.424243)" xlink:href="#M"/>
  </clipPath>
  <use id="N" fill="none" xlink:href="#1J"/>
  <clipPath>
   <use xlink:href="#N"/>
  </clipPath>
  <clipPath>
   <use transform="matrix(8,0,0,8,-2141.5757,-54.424243)" xlink:href="#N"/>
  </clipPath>
  <use id="O" fill="none" xlink:href="#1J"/>
  <clipPath>
   <use xlink:href="#O"/>
  </clipPath>
  <clipPath>
   <use transform="matrix(8,0,0,8,-2141.5757,-54.424243)" xlink:href="#O"/>
  </clipPath>
  <use id="P" fill="none" xlink:href="#1J"/>
  <clipPath>
   <use xlink:href="#P"/>
  </clipPath>
  <clipPath>
   <use transform="matrix(8,0,0,8,-2141.5757,-54.424243)" xlink:href="#P"/>
  </clipPath>
  <use id="Q" fill="none" xlink:href="#1J"/>
  <clipPath>
   <use xlink:href="#Q"/>
  </clipPath>
  <clipPath>
   <use transform="matrix(8,0,0,8,-2141.5757,-54.424243)" xlink:href="#Q"/>
  </clipPath>
  <use id="R" fill="none" xlink:href="#1J"/>
  <clipPath>
   <use xlink:href="#R"/>
  </clipPath>
  <clipPath>
   <use transform="matrix(8,0,0,8,-2141.5757,-54.424243)" xlink:href="#R"/>
  </clipPath>
  <linearGradient y2="31.619" x2="0" y1="299.81" gradientTransform="matrix(0.11931818,0,0,0.11931818,414.13636,48.22727)" gradientUnits="userSpaceOnUse" id="S" xlink:href="#K"/>
  <clipPath>
   <rect y="53" x="417" height="30" width="30" fill="url(#S)" color="#bebebe" rx="7"/>
  </clipPath>
  <linearGradient y2="28.571" x2="0" y1="302.86" gradientTransform="matrix(0.0875,0,0,0.0875,414.9,97.5)" gradientUnits="userSpaceOnUse" id="T" xlink:href="#K"/>
  <clipPath>
   <rect width="22" height="22" x="417" y="101" fill="url(#T)" color="#bebebe" rx="5"/>
  </clipPath>
  <linearGradient y2="28" x2="0" y1="124" gradientUnits="userSpaceOnUse" id="U" xlink:href="#K"/>
  <clipPath>
   <rect y="32" x="292" height="88" width="88" fill="url(#U)" color="#bebebe" rx="18"/>
  </clipPath>
  <linearGradient y2="140" x2="0" y1="204" gradientUnits="userSpaceOnUse" id="V" xlink:href="#K"/>
  <clipPath>
   <rect width="60" height="60" x="290" y="142" fill="url(#V)" color="#bebebe" rx="12.5"/>
  </clipPath>
  <linearGradient y2="40" x2="0" y1="280" gradientTransform="translate(0,-4)" gradientUnits="userSpaceOnUse" id="W" xlink:href="#K"/>
  <clipPath>
   <rect width="220" height="220" x="34" y="46" fill="url(#W)" color="#bebebe" rx="50"/>
  </clipPath>
  <linearGradient y2="40" x2="0" y1="280" gradientTransform="matrix(0.06666667,0,0,0.06666667,302.4,209.33333)" gradientUnits="userSpaceOnUse" id="X" xlink:href="#K"/>
  <clipPath>
   <rect transform="matrix(0,1,-1,0,0,0)" y="212" x="304" height="16" width="16" fill="url(#X)" color="#bebebe" rx="3"/>
  </clipPath>
  <linearGradient y2="40" x2="0" y1="291.43" gradientTransform="matrix(0.11931818,0,0,0.11931818,430.13636,32.227267)" gradientUnits="userSpaceOnUse" id="Y" xlink:href="#K"/>
  <clipPath>
   <rect y="37" x="433" height="30" width="30" fill="url(#Y)" color="#bebebe" rx="6"/>
  </clipPath>
  <linearGradient y2="40" x2="0" y1="291.43" gradientTransform="matrix(0.0875,0,0,0.0875,430.9,81.499996)" gradientUnits="userSpaceOnUse" id="Z" xlink:href="#K"/>
  <clipPath>
   <rect width="22" height="22" x="433" y="85" fill="url(#Z)" color="#bebebe" rx="4"/>
  </clipPath>
  <linearGradient y2="40" x2="0" y1="280" gradientTransform="matrix(0.175,0,0,0.175,302.79999,215.99997)" gradientUnits="userSpaceOnUse" id="a" xlink:href="#K"/>
  <clipPath>
   <rect transform="matrix(0,1,-1,0,0,0)" width="42" height="42" x="307" y="223" fill="url(#a)" color="#bebebe" rx="9"/>
  </clipPath>
  <clipPath>
   <path d="m 489.217,197.275 c -2.603,0 -3.953,-1.367 -3.953,-3.971 l 0,0 0,-1.034 c 0,-2.604 1.35,-3.971 3.953,-3.971 l 0,0 1.035,0 c 2.62,0 3.97,1.367 3.97,3.971 l 0,0 0,1.034 c 0,2.604 -1.35,3.971 -3.97,3.971 l 0,0 -1.035,0 z"/>
  </clipPath>
  <clipPath>
   <rect y="223" x="307" height="42" width="42" transform="matrix(0,1,-1,0,0,0)" fill="url(#b)" color="#bebebe" rx="9"/>
  </clipPath>
  <linearGradient xlink:href="#K" id="b" gradientUnits="userSpaceOnUse" gradientTransform="matrix(0.175,0,0,0.175,302.79999,215.99997)" y1="280" x2="0" y2="40"/>
  <clipPath>
   <rect y="85" x="433" height="22" width="22" fill="url(#c)" color="#bebebe" rx="4"/>
  </clipPath>
  <linearGradient xlink:href="#K" id="c" gradientUnits="userSpaceOnUse" gradientTransform="matrix(0.0875,0,0,0.0875,430.9,81.499996)" y1="291.43" x2="0" y2="40"/>
  <clipPath>
   <rect width="30" height="30" x="433" y="37" fill="url(#d)" color="#bebebe" rx="6"/>
  </clipPath>
  <linearGradient xlink:href="#K" id="d" gradientUnits="userSpaceOnUse" gradientTransform="matrix(0.11931818,0,0,0.11931818,430.13636,32.227267)" y1="291.43" x2="0" y2="40"/>
  <clipPath>
   <rect width="16" height="16" x="304" y="212" transform="matrix(0,1,-1,0,0,0)" fill="url(#e)" color="#bebebe" rx="3"/>
  </clipPath>
  <linearGradient xlink:href="#K" id="e" gradientUnits="userSpaceOnUse" gradientTransform="matrix(0.06666667,0,0,0.06666667,302.4,209.33333)" y1="280" x2="0" y2="40"/>
  <clipPath>
   <rect y="46" x="34" height="220" width="220" fill="url(#f)" color="#bebebe" rx="50"/>
  </clipPath>
  <linearGradient xlink:href="#K" id="f" gradientUnits="userSpaceOnUse" gradientTransform="translate(0,-4)" y1="280" x2="0" y2="40"/>
  <clipPath>
   <rect y="142" x="290" height="60" width="60" fill="url(#g)" color="#bebebe" rx="12.5"/>
  </clipPath>
  <linearGradient xlink:href="#K" id="g" gradientUnits="userSpaceOnUse" y1="204" x2="0" y2="140"/>
  <clipPath>
   <rect width="88" height="88" x="292" y="32" fill="url(#h)" color="#bebebe" rx="18"/>
  </clipPath>
  <linearGradient xlink:href="#K" id="h" gradientUnits="userSpaceOnUse" y1="124" x2="0" y2="28"/>
  <clipPath>
   <rect y="101" x="417" height="22" width="22" fill="url(#i)" color="#bebebe" rx="5"/>
  </clipPath>
  <linearGradient xlink:href="#K" id="i" gradientUnits="userSpaceOnUse" gradientTransform="matrix(0.0875,0,0,0.0875,414.9,97.5)" y1="302.86" x2="0" y2="28.571"/>
  <clipPath>
   <rect width="30" height="30" x="417" y="53" fill="url(#j)" color="#bebebe" rx="7"/>
  </clipPath>
  <linearGradient xlink:href="#K" id="j" gradientUnits="userSpaceOnUse" gradientTransform="matrix(0.11931818,0,0,0.11931818,414.13636,48.22727)" y1="299.81" x2="0" y2="31.619"/>
  <use id="k" opacity="0.2" fill="#ffffff" xlink:href="#1J"/>
  <clipPath>
   <use xlink:href="#k" transform="matrix(8,0,0,8,-2141.5757,-54.424243)"/>
  </clipPath>
  <clipPath>
   <use xlink:href="#k"/>
  </clipPath>
  <use id="l" fill="none" xlink:href="#1J"/>
  <clipPath>
   <use xlink:href="#l"/>
  </clipPath>
  <clipPath>
   <use transform="matrix(8,0,0,8,-2141.5757,-54.424243)" xlink:href="#l"/>
  </clipPath>
  <use id="m" fill="none" xlink:href="#1J"/>
  <clipPath>
   <use xlink:href="#m"/>
  </clipPath>
  <clipPath>
   <use transform="matrix(8,0,0,8,-2141.5757,-54.424243)" xlink:href="#m"/>
  </clipPath>
  <use id="n" fill="none" xlink:href="#1J"/>
  <clipPath>
   <use xlink:href="#n"/>
  </clipPath>
  <clipPath>
   <use transform="matrix(8,0,0,8,-2141.5757,-54.424243)" xlink:href="#n"/>
  </clipPath>
  <use id="o" fill="none" xlink:href="#1J"/>
  <clipPath>
   <use xlink:href="#o"/>
  </clipPath>
  <clipPath>
   <use transform="matrix(8,0,0,8,-2141.5757,-54.424243)" xlink:href="#o"/>
  </clipPath>
  <use id="p" fill="none" xlink:href="#1J"/>
  <clipPath>
   <use xlink:href="#p"/>
  </clipPath>
  <clipPath>
   <use transform="matrix(8,0,0,8,-2141.5757,-54.424243)" xlink:href="#p"/>
  </clipPath>
  <use id="q" fill="none" xlink:href="#1J"/>
  <clipPath>
   <use xlink:href="#q"/>
  </clipPath>
  <clipPath>
   <use transform="matrix(8,0,0,8,-2141.5757,-54.424243)" xlink:href="#q"/>
  </clipPath>
  <use id="r" fill="none" xlink:href="#1J"/>
  <clipPath>
   <use xlink:href="#r"/>
  </clipPath>
  <clipPath>
   <rect y="223" x="307" height="42" width="42" transform="matrix(0,1,-1,0,0,0)" fill="url(#s)" color="#bebebe" rx="9"/>
  </clipPath>
  <linearGradient xlink:href="#K" id="s" gradientUnits="userSpaceOnUse" gradientTransform="matrix(0.175,0,0,0.175,302.79999,215.99997)" y1="280" x2="0" y2="40"/>
  <clipPath>
   <rect y="85" x="433" height="22" width="22" fill="url(#t)" color="#bebebe" rx="4"/>
  </clipPath>
  <linearGradient xlink:href="#K" id="t" gradientUnits="userSpaceOnUse" gradientTransform="matrix(0.0875,0,0,0.0875,430.9,81.499996)" y1="291.43" x2="0" y2="40"/>
  <clipPath>
   <rect width="30" height="30" x="433" y="37" fill="url(#u)" color="#bebebe" rx="6"/>
  </clipPath>
  <linearGradient xlink:href="#K" id="u" gradientUnits="userSpaceOnUse" gradientTransform="matrix(0.11931818,0,0,0.11931818,430.13636,32.227267)" y1="291.43" x2="0" y2="40"/>
  <clipPath>
   <rect width="16" height="16" x="304" y="212" transform="matrix(0,1,-1,0,0,0)" fill="url(#v)" color="#bebebe" rx="3"/>
  </clipPath>
  <linearGradient xlink:href="#K" id="v" gradientUnits="userSpaceOnUse" gradientTransform="matrix(0.06666667,0,0,0.06666667,302.4,209.33333)" y1="280" x2="0" y2="40"/>
  <clipPath>
   <rect y="46" x="34" height="220" width="220" fill="url(#w)" color="#bebebe" rx="50"/>
  </clipPath>
  <linearGradient xlink:href="#K" id="w" gradientUnits="userSpaceOnUse" gradientTransform="translate(0,-4)" y1="280" x2="0" y2="40"/>
  <clipPath>
   <rect y="142" x="290" height="60" width="60" fill="url(#x)" color="#bebebe" rx="12.5"/>
  </clipPath>
  <linearGradient xlink:href="#K" id="x" gradientUnits="userSpaceOnUse" y1="204" x2="0" y2="140"/>
  <clipPath>
   <rect width="88" height="88" x="292" y="32" fill="url(#y)" color="#bebebe" rx="18"/>
  </clipPath>
  <linearGradient xlink:href="#K" id="y" gradientUnits="userSpaceOnUse" y1="124" x2="0" y2="28"/>
  <clipPath>
   <rect y="101" x="417" height="22" width="22" fill="url(#z)" color="#bebebe" rx="5"/>
  </clipPath>
  <linearGradient xlink:href="#K" id="z" gradientUnits="userSpaceOnUse" gradientTransform="matrix(0.0875,0,0,0.0875,414.9,97.5)" y1="302.86" x2="0" y2="28.571"/>
  <clipPath>
   <rect width="30" height="30" x="417" y="53" fill="url(#10)" color="#bebebe" rx="7"/>
  </clipPath>
  <linearGradient xlink:href="#K" id="10" gradientUnits="userSpaceOnUse" gradientTransform="matrix(0.11931818,0,0,0.11931818,414.13636,48.22727)" y1="299.81" x2="0" y2="31.619"/>
  <clipPath>
   <use transform="matrix(8,0,0,8,-2141.5757,-54.424243)" xlink:href="#r"/>
  </clipPath>
  <use id="11" fill="none" xlink:href="#1J"/>
  <clipPath>
   <use xlink:href="#11"/>
  </clipPath>
  <clipPath>
   <use transform="matrix(8,0,0,8,-2141.5757,-54.424243)" xlink:href="#11"/>
  </clipPath>
  <use id="12" fill="none" xlink:href="#1J"/>
  <clipPath>
   <use xlink:href="#12"/>
  </clipPath>
  <clipPath>
   <use transform="matrix(8,0,0,8,-2141.5757,-54.424243)" xlink:href="#12"/>
  </clipPath>
  <use id="13" fill="none" xlink:href="#1J"/>
  <clipPath>
   <use xlink:href="#13"/>
  </clipPath>
  <clipPath>
   <use transform="matrix(8,0,0,8,-2141.5757,-54.424243)" xlink:href="#13"/>
  </clipPath>
  <use id="14" fill="none" xlink:href="#1J"/>
  <clipPath>
   <use xlink:href="#14"/>
  </clipPath>
  <clipPath>
   <use transform="matrix(8,0,0,8,-2141.5757,-54.424243)" xlink:href="#14"/>
  </clipPath>
  <use id="15" fill="none" xlink:href="#1J"/>
  <clipPath>
   <use xlink:href="#15"/>
  </clipPath>
  <clipPath>
   <use transform="matrix(8,0,0,8,-2141.5757,-54.424243)" xlink:href="#15"/>
  </clipPath>
  <use id="16" fill="none" xlink:href="#1J"/>
  <clipPath>
   <use xlink:href="#16"/>
  </clipPath>
  <clipPath>
   <use transform="matrix(8,0,0,8,-2141.5757,-54.424243)" xlink:href="#16"/>
  </clipPath>
  <clipPath>
   <path d="m 296,26 a 10,10 0 1 1 -20,0 10,10 0 1 1 20,0 z"/>
  </clipPath>
  <radialGradient gradientUnits="userSpaceOnUse" xlink:href="#17" r="7" gradientTransform="matrix(2.85714 0 0 2.85714 -609.14349 -473.66662)" cy="255.42" cx="328"/>
  <radialGradient gradientUnits="userSpaceOnUse" xlink:href="#17" r="7" gradientTransform="matrix(1.22449 0 0 1.22449 49.7555 -179.34296)" cy="255.42" cx="328"/>
  <radialGradient gradientUnits="userSpaceOnUse" xlink:href="#17" r="7" gradientTransform="matrix(2.85714 0 0 2.85714 -609.14349 -473.66662)" cy="255.42" cx="328"/>
  <radialGradient gradientUnits="userSpaceOnUse" xlink:href="#17" r="7" gradientTransform="matrix(2.85714 0 0 2.85714 -609.14349 -473.66662)" cy="255.42" cx="328"/>
  <radialGradient gradientUnits="userSpaceOnUse" xlink:href="#17" r="7" gradientTransform="matrix(1.22449 0 0 1.22449 49.7555 -179.34296)" cy="255.42" cx="328"/>
  <radialGradient gradientUnits="userSpaceOnUse" xlink:href="#17" r="7" gradientTransform="matrix(1.22449 0 0 1.22449 49.7555 -179.34296)" cy="255.42" cx="328"/>
  <linearGradient x2="0" gradientUnits="userSpaceOnUse" y2="231" y1="273" xlink:href="#1A" gradientTransform="translate(0 4.09376)"/>
  <linearGradient id="17">
   <stop stop-color="#eaba31"/>
   <stop offset="1" stop-color="#ff9200"/>
  </linearGradient>
  <linearGradient id="18">
   <stop stop-color="#f0f0f0"/>
   <stop offset="1" stop-color="#f8f8f8"/>
  </linearGradient>
  <linearGradient x2="0" gradientUnits="userSpaceOnUse" y2="231" y1="273" xlink:href="#1A" gradientTransform="translate(0 4.09376)"/>
  <linearGradient x2="0" gradientUnits="userSpaceOnUse" y2="90" y1="230" id="19" xlink:href="#18" gradientTransform="matrix(.375 0 0 .375 298 16)"/>
  <linearGradient id="1A">
   <stop stop-color="#818181"/>
   <stop offset="1" stop-color="#c5c5c5"/>
  </linearGradient>
  <linearGradient gradientUnits="userSpaceOnUse" x2="0" y2="90" y1="230" xlink:href="#18" id="1B" gradientTransform="matrix(.375 0 0 .375 298 16)"/>
  <linearGradient x2="0" gradientUnits="userSpaceOnUse" y2="90" y1="230" id="1C" xlink:href="#18" gradientTransform="matrix(.25 0 0 .25 299.99999 131.99999)"/>
  <linearGradient x2="0" gradientUnits="userSpaceOnUse" y2="124" y1="140" xlink:href="#1A" gradientTransform="translate(11.38843 1.3713)"/>
  <linearGradient gradientUnits="userSpaceOnUse" x2="0" y2="124" y1="140" xlink:href="#1A"/>
  <linearGradient gradientUnits="userSpaceOnUse" x2="0" y2="90" y1="230" xlink:href="#18" id="1D" gradientTransform="matrix(.25 0 0 .25 299.99999 131.99999)"/>
  <linearGradient x2="0" gradientUnits="userSpaceOnUse" y2="231" y1="273" xlink:href="#1A" gradientTransform="matrix(5.71429 0 0 5.71429 -1730.2857 -1284)"/>
  <linearGradient gradientUnits="userSpaceOnUse" x2="0" y2="85" y1="107" xlink:href="#1A"/>
  <linearGradient gradientUnits="userSpaceOnUse" x2="0" y2="231" y1="273" xlink:href="#1A" gradientTransform="matrix(5.71429 0 0 5.71429 -1730.2857 -1284)"/>
  <linearGradient x2="0" gradientUnits="userSpaceOnUse" y2="40" y1="280" id="1E" xlink:href="#18" gradientTransform="matrix(.175 0 0 .175 302.79999 215.99997)"/>
  <linearGradient x2="0" gradientUnits="userSpaceOnUse" y2="231" y1="273" xlink:href="#1A" gradientTransform="matrix(5.71429 0 0 5.71429 -1730.2857 -1284)"/>
  <linearGradient gradientUnits="userSpaceOnUse" x2="0" y2="40" y1="280" xlink:href="#18" id="1F" gradientTransform="matrix(.175 0 0 .175 302.79999 215.99997)"/>
  <linearGradient gradientUnits="userSpaceOnUse" x2="0" y2="85" y1="107" xlink:href="#1A"/>
  <linearGradient x2="0" gradientUnits="userSpaceOnUse" y2="124" y1="140" xlink:href="#1A" gradientTransform="translate(11.38843 1.3713)"/>
  <linearGradient gradientUnits="userSpaceOnUse" x2="0" y2="231" y1="273" xlink:href="#1A" gradientTransform="translate(0 4.09376)"/>
  <linearGradient gradientUnits="userSpaceOnUse" x2="0" y2="124" y1="140" xlink:href="#1A" gradientTransform="translate(11.38843 1.3713)"/>
  <linearGradient gradientUnits="userSpaceOnUse" x2="0" y2="85" y1="107" xlink:href="#1A"/>
  <linearGradient x2="0" gradientUnits="userSpaceOnUse" y2="90" y1="230" id="1G" xlink:href="#18" gradientTransform="matrix(.25 0 0 .25 299.99999 131.99999)"/>
  <linearGradient gradientUnits="userSpaceOnUse" x2="0" y2="124" y1="140" xlink:href="#1A"/>
  <linearGradient x2="0" gradientUnits="userSpaceOnUse" y2="40" y1="280" id="1H" xlink:href="#18" gradientTransform="matrix(.175 0 0 .175 302.79999 215.99997)"/>
  <linearGradient x2="0" gradientUnits="userSpaceOnUse" y2="90" y1="230" id="1I" xlink:href="#18" gradientTransform="matrix(.375 0 0 .375 298 16)"/>
  <linearGradient gradientUnits="userSpaceOnUse" x2="0" y2="124" y1="140" xlink:href="#1A"/>
  <clipPath>
   <rect height="30" rx="6" y="29" x="433" width="30" color="#bebebe"/>
  </clipPath>
  <clipPath>
   <rect height="20" rx="4" y="78" x="434" width="20" color="#bebebe"/>
  </clipPath>
  <clipPath>
   <rect height="22" rx="4" y="77" x="433" width="22" color="#bebebe"/>
  </clipPath>
  <clipPath>
   <rect height="240" rx="50" y="36" x="24" width="240" fill="#986767" color="#bebebe"/>
  </clipPath>
  <clipPath>
   <path d="m 328,242.09376 c -7.73199,0 -14,6.26801 -14,14 0,7.73199 6.26801,14 14,14 7.73199,0 14,-6.26801 14,-14 0,-7.73199 -6.26801,-14 -14,-14 z m 0,9.90625 c 2.20914,0 4,1.79086 4,4 0,2.20914 -1.79086,4 -4,4 -2.20914,0 -4,-1.79086 -4,-4 0,-2.20914 1.79086,-4 4,-4 z m 0,1 c -1.65685,0 -3,1.34315 -3,3 0,1.65685 1.34315,3 3,3 1.65685,0 3,-1.34315 3,-3 0,-1.65685 -1.34315,-3 -3,-3 z m 0,1 c 1.10457,0 2,0.89543 2,2 0,1.10457 -0.89543,2 -2,2 -1.10457,0 -2,-0.89543 -2,-2 0,-1.10457 0.89543,-2 2,-2 z"/>
  </clipPath>
  <clipPath>
   <rect height="16" rx="3" y="116" x="432" width="16" color="#bebebe"/>
  </clipPath>
  <clipPath>
   <rect height="16" rx="3" y="116" x="432" width="16" color="#bebebe"/>
  </clipPath>
  <clipPath>
   <rect transform="rotate(90)" height="42" rx="9" y="223" x="307" width="42" fill="url(#1F)" color="#bebebe"/>
  </clipPath>
  <clipPath>
   <rect height="240" rx="50" y="36" x="24" width="240" fill="#986767" color="#bebebe"/>
  </clipPath>
  <clipPath>
   <rect height="30" rx="4" y="29" x="433" width="30" opacity="0.2" fill="#6d6d6d" color="#bebebe"/>
  </clipPath>
  <clipPath>
   <path d="m 451.38843,127.3713 c -3.31371,0 -6,2.68629 -6,6 0,3.31371 2.68629,6 6,6 3.31371,0 6,-2.68629 6,-6 0,-3.31371 -2.68629,-6 -6,-6 z m 0,3 c 1.65685,0 3,1.34315 3,3 0,1.65685 -1.34315,3 -3,3 -1.65685,0 -3,-1.34315 -3,-3 0,-1.65685 1.34315,-3 3,-3 z m 0,1 c -1.10457,0 -2,0.89543 -2,2 0,1.10457 0.89543,2 2,2 1.10457,0 2,-0.89543 2,-2 0,-1.10457 -0.89543,-2 -2,-2 z m 0,1 c 0.55228,0 1,0.44772 1,1 0,0.55228 -0.44772,1 -1,1 -0.55228,0 -1,-0.44772 -1,-1 0,-0.55228 0.44772,-1 1,-1 z"/>
  </clipPath>
  <clipPath>
   <path d="m 440,126 c -3.31371,0 -6,2.68629 -6,6 0,3.31371 2.68629,6 6,6 3.31371,0 6,-2.68629 6,-6 0,-3.31371 -2.68629,-6 -6,-6 z m 0,3 c 1.65685,0 3,1.34315 3,3 0,1.65685 -1.34315,3 -3,3 -1.65685,0 -3,-1.34315 -3,-3 0,-1.65685 1.34315,-3 3,-3 z m 0,1 c -1.10457,0 -2,0.89543 -2,2 0,1.10457 0.89543,2 2,2 1.10457,0 2,-0.89543 2,-2 0,-1.10457 -0.89543,-2 -2,-2 z m 0,1 c 0.55228,0 1,0.44772 1,1 0,0.55228 -0.44772,1 -1,1 -0.55228,0 -1,-0.44772 -1,-1 0,-0.55228 0.44772,-1 1,-1 z"/>
  </clipPath>
  <clipPath>
   <path d="m 144.00001,75.999997 c -44.1828,0 -80,35.817203 -80,80.000003 0,44.1828 35.8172,80 80,80 44.1828,0 80,-35.8172 80,-80 0,-44.1828 -35.8172,-80.000003 -80,-80.000003 z m 0,56.607143 c 12.62366,0 22.85714,10.23349 22.85714,22.85714 0,12.62366 -10.23348,22.85714 -22.85714,22.85714 -12.62366,0 -22.85714,-10.23348 -22.85714,-22.85714 0,-12.62365 10.23348,-22.85714 22.85714,-22.85714 z m 0,5.71429 c -9.46771,0 -17.14286,7.67514 -17.14286,17.14285 0,9.46772 7.67515,17.14286 17.14286,17.14286 9.46771,0 17.14286,-7.67514 17.14286,-17.14286 0,-9.46771 -7.67515,-17.14285 -17.14286,-17.14285 z m 0,5.71428 c 6.31183,0 11.42857,5.11674 11.42857,11.42857 0,6.31183 -5.11674,11.42857 -11.42857,11.42857 -6.31183,0 -11.42857,-5.11674 -11.42857,-11.42857 0,-6.31183 5.11674,-11.42857 11.42857,-11.42857 z"/>
  </clipPath>
  <clipPath>
   <path d="m 444,88 c -4.41828,0 -8,3.58172 -8,8 0,4.41828 3.58172,8 8,8 4.41828,0 8,-3.58172 8,-8 0,-4.41828 -3.58172,-8 -8,-8 z m 0,5 c 1.65685,0 3,1.34315 3,3 0,1.65685 -1.34315,3 -3,3 -1.65685,0 -3,-1.34315 -3,-3 0,-1.65685 1.34315,-3 3,-3 z m 0,1 c -1.10457,0 -2,0.89543 -2,2 0,1.10457 0.89543,2 2,2 1.10457,0 2,-0.89543 2,-2 0,-1.10457 -0.89543,-2 -2,-2 z m 0,1 c 0.55228,0 1,0.44772 1,1 0,0.55228 -0.44772,1 -1,1 -0.55228,0 -1,-0.44772 -1,-1 0,-0.55228 0.44772,-1 1,-1 z"/>
  </clipPath>
  <clipPath>
   <path d="m 451.38843,133.3713 6.42857,4.71429 0,-11.57143 -6.42857,0 z"/>
  </clipPath>
  <clipPath>
   <path d="m 144,48 -23.59375,55.0625 -55.59375,-22.25 22.25,55.59375 L 32,160 l 55.0625,23.59375 -22.25,55.59375 55.59375,-22.25 L 144,272 l 23.59375,-55.0625 55.59375,22.25 -22.25,-55.59375 L 256,160 200.9375,136.40625 223.1875,80.8125 167.59375,103.0625 144,48 z m -23.1875,56 46.375,0 32.8125,32.8125 0,46.375 L 167.1875,216 120.8125,216 88,183.1875 88,136.8125 120.8125,104 z"/>
  </clipPath>
  <clipPath>
   <path d="m 328,238 c -7.73199,0 -14,6.26801 -14,14 0,7.73199 6.26801,14 14,14 7.73199,0 14,-6.26801 14,-14 0,-7.73199 -6.26801,-14 -14,-14 z m 0,8.75 c 2.89949,0 5.25,2.35051 5.25,5.25 0,2.89949 -2.35051,5.25 -5.25,5.25 -2.89949,0 -5.25,-2.35051 -5.25,-5.25 0,-2.89949 2.35051,-5.25 5.25,-5.25 z m 0,1.75 c -1.933,0 -3.5,1.567 -3.5,3.5 0,1.933 1.567,3.5 3.5,3.5 1.933,0 3.5,-1.567 3.5,-3.5 0,-1.933 -1.567,-3.5 -3.5,-3.5 z m 0,1.75 c 0.96649,0 1.75,0.78351 1.75,1.75 0,0.96649 -0.78351,1.75 -1.75,1.75 -0.96649,0 -1.75,-0.78351 -1.75,-1.75 0,-0.96649 0.78351,-1.75 1.75,-1.75 z"/>
  </clipPath>
  <clipPath>
   <path d="m 328,238 c -7.73199,0 -14,6.26801 -14,14 0,7.73199 6.26801,14 14,14 7.73199,0 14,-6.26801 14,-14 0,-7.73199 -6.26801,-14 -14,-14 z m 0,9.90625 c 2.20914,0 4,1.79086 4,4 0,2.20914 -1.79086,4 -4,4 -2.20914,0 -4,-1.79086 -4,-4 0,-2.20914 1.79086,-4 4,-4 z m 0,1 c -1.65685,0 -3,1.34315 -3,3 0,1.65685 1.34315,3 3,3 1.65685,0 3,-1.34315 3,-3 0,-1.65685 -1.34315,-3 -3,-3 z m 0,1 c 1.10457,0 2,0.89543 2,2 0,1.10457 -0.89543,2 -2,2 -1.10457,0 -2,-0.89543 -2,-2 0,-1.10457 0.89543,-2 2,-2 z"/>
  </clipPath>
  <clipPath>
   <rect height="90" rx="18.75" y="31" x="307" width="90" fill="url(#1B)" color="#bebebe"/>
  </clipPath>
  <clipPath>
   <rect transform="matrix(0 -1 1 0 0 0)" height="60" rx="12.5" y="142" x="306" width="60" fill="url(#1D)" color="#bebebe"/>
  </clipPath>
  <clipPath>
   <rect height="22" rx="3" y="77" x="433" width="22" opacity="0.2" fill="#6d6d6d" color="#bebebe"/>
  </clipPath>
  <clipPath>
   <rect height="16" rx="2" y="116" x="432" width="16" opacity="0.2" fill="#6d6d6d" color="#bebebe"/>
  </clipPath>
  <clipPath>
   <path d="m 328,256 15,11 0,-27 -15,0 z"/>
  </clipPath>
  <clipPath>
   <path d="m 328,242.09375 c -7.73199,0 -14,6.26801 -14,14 0,7.73199 6.26801,14 14,14 7.73199,0 14,-6.26801 14,-14 0,-7.73199 -6.26801,-14 -14,-14 z M 328,252 c 2.20914,0 4,1.79086 4,4 0,2.20914 -1.79086,4 -4,4 -2.20914,0 -4,-1.79086 -4,-4 0,-2.20914 1.79086,-4 4,-4 z m 0,1 c -1.65685,0 -3,1.34315 -3,3 0,1.65685 1.34315,3 3,3 1.65685,0 3,-1.34315 3,-3 0,-1.65685 -1.34315,-3 -3,-3 z m 0,1 c 1.10457,0 2,0.89543 2,2 0,1.10457 -0.89543,2 -2,2 -1.10457,0 -2,-0.89543 -2,-2 0,-1.10457 0.89543,-2 2,-2 z"/>
  </clipPath>
  <clipPath>
   <rect height="22" rx="5" y="77" x="433" width="22" color="#bebebe"/>
  </clipPath>
  <clipPath>
   <rect height="22" rx="5" y="77" x="433" width="22" color="#bebebe"/>
  </clipPath>
  <clipPath>
   <rect height="30" rx="4" y="29" x="433" width="30" opacity="0.2" fill="#6d6d6d" color="#bebebe"/>
  </clipPath>
  <clipPath>
   <rect height="22" rx="3" y="77" x="433" width="22" opacity="0.2" fill="#6d6d6d" color="#bebebe"/>
  </clipPath>
  <clipPath>
   <rect transform="rotate(90)" height="42" rx="9" y="223" x="307" width="42" fill="url(#1E)" color="#bebebe"/>
  </clipPath>
  <clipPath>
   <rect height="16" rx="2" y="116" x="432" width="16" opacity="0.2" fill="#6d6d6d" color="#bebebe"/>
  </clipPath>
  <clipPath>
   <rect height="30" rx="6" y="29" x="433" width="30" color="#bebebe"/>
  </clipPath>
  <clipPath>
   <rect height="30" rx="4" y="29" x="433" width="30" opacity="0.2" fill="#6d6d6d" color="#bebebe"/>
  </clipPath>
  <clipPath>
   <rect height="22" rx="4" y="77" x="433" width="22" color="#bebebe"/>
  </clipPath>
  <clipPath>
   <rect transform="matrix(0 -1 1 0 0 0)" height="60" rx="12.5" y="142" x="306" width="60" fill="url(#1C)" color="#bebebe"/>
  </clipPath>
  <clipPath>
   <rect height="90" rx="18.75" y="31" x="307" width="90" fill="url(#19)" color="#bebebe"/>
  </clipPath>
  <clipPath>
   <rect height="16" rx="2" y="116" x="432" width="16" opacity="0.2" fill="#6d6d6d" color="#bebebe"/>
  </clipPath>
  <clipPath>
   <rect height="22" rx="3" y="77" x="433" width="22" opacity="0.2" fill="#6d6d6d" color="#bebebe"/>
  </clipPath>
  <clipPath>
   <rect height="20" rx="4" y="78" x="434" width="20" color="#bebebe"/>
  </clipPath>
  <clipPath>
   <rect height="16" rx="3" y="116" x="432" width="16" color="#bebebe"/>
  </clipPath>
  <clipPath>
   <rect transform="rotate(90)" height="42" rx="9" y="223" x="307" width="42" fill="url(#1H)" color="#bebebe"/>
  </clipPath>
  <clipPath>
   <rect height="22" rx="4" y="77" x="433" width="22" color="#bebebe"/>
  </clipPath>
  <clipPath>
   <rect height="22" rx="5" y="77" x="433" width="22" color="#bebebe"/>
  </clipPath>
  <clipPath>
   <rect height="30" rx="6" y="29" x="433" width="30" color="#bebebe"/>
  </clipPath>
  <clipPath>
   <rect transform="matrix(0 -1 1 0 0 0)" height="60" rx="12.5" y="142" x="306" width="60" fill="url(#1G)" color="#bebebe"/>
  </clipPath>
  <clipPath>
   <rect height="90" rx="18.75" y="31" x="307" width="90" fill="url(#1I)" color="#bebebe"/>
  </clipPath>
  <clipPath>
   <rect height="240" rx="50" y="36" x="24" width="240" fill="#986767" color="#bebebe"/>
  </clipPath>
  <clipPath>
   <rect height="20" rx="4" y="78" x="434" width="20" color="#bebebe"/>
  </clipPath>
  <path id="1J" d="m 296,26 a 10,10 0 1 1 -20,0 10,10 0 1 1 20,0 z" color="#000000"/>
 </defs>
 <g>
  <rect rx="7" y="4" x="3" height="42" width="42" opacity="0.2"/>
  <rect width="42" height="42" x="3" y="3" rx="7" fill="#f9f9f9"/>
 </g>
 <g>
  <rect rx="6.333" y="5" x="5" height="38" width="38" fill="#90a848"/>
  <path d="M 5.53125,24 C 5.350468,24 5.176236,24.022 5,24.031 l 0,12.625 c 0,3.5086 2.835083,6.3437 6.34375,6.3437 l 25.3125,0 C 40.164917,42.9997 43,40.1646 43,36.656 L 43,24.031 C 42.823764,24.021 42.649532,24 42.46875,24 l -36.9375,0 z" fill="#95ab54"/>
  <path d="M 20.0625 15 C 19.640172 15 19.238448 15.076038 18.84375 15.15625 C 17.533349 15.343431 15.958395 15.789422 14.3125 16.84375 C 10.231313 19.46047 8.489534 31.584201 9.125 32.71875 C 9.760465 33.853299 15.476931 31.577405 18.46875 27.21875 C 18.693728 26.894048 18.802651 26.359084 19 26 L 29 26 C 29.189456 26.339981 29.318113 26.905509 29.53125 27.21875 C 32.523069 31.577406 38.239535 33.853298 38.875 32.71875 C 39.510465 31.584201 37.768687 19.460471 33.6875 16.84375 C 32.513025 16.136106 31.276127 15.612404 30.09375 15.3125 C 29.533277 15.144419 28.959481 15 28.34375 15 L 20.0625 15 z M 17 18 L 18 18 L 18 20 L 20 20 L 20 21 L 18 21 L 18 23 L 17 23 L 17 21 L 15 21 L 15 20 L 17 20 L 17 18 z M 29.5 18 C 30.052285 18 30.5 18.447715 30.5 19 C 30.5 19.552285 30.052285 20 29.5 20 C 28.947715 20 28.5 19.552285 28.5 19 C 28.5 18.447715 28.947715 18 29.5 18 z M 32.5 19.5 C 33.052285 19.5 33.5 19.947715 33.5 20.5 C 33.5 21.052285 33.052285 21.5 32.5 21.5 C 31.947715 21.5 31.5 21.052285 31.5 20.5 C 31.5 19.947715 31.947715 19.5 32.5 19.5 z M 28 20.5 C 28.552285 20.5 29 20.947715 29 21.5 C 29 22.052285 28.552285 22.5 28 22.5 C 27.447715 22.5 27 22.052285 27 21.5 C 27 20.947715 27.447715 20.5 28 20.5 z M 31 22 C 31.552285 22 32 22.447715 32 23 C 32 23.552285 31.552285 24 31 24 C 30.447715 24 30 23.552285 30 23 C 30 22.447715 30.447715 22 31 22 z " fill="#f9f9f9"/>
 </g>
 <g>
  <path d="M 11.34375,5 C 7.8350832,5 5,7.8350832 5,11.34375 l 0,1 C 5,8.8350832 7.8350832,6 11.34375,6 l 25.3125,0 C 40.164917,6 43,8.8350832 43,12.34375 l 0,-1 C 43,7.8350832 40.164917,5 36.65625,5 l -25.3125,0 z" opacity="0.2"/>
  <path d="M 5.53125,24 C 5.350468,24 5.176236,24.022 5,24.031 l 0,12.625 c 0,3.5086 2.835083,6.3437 6.34375,6.3437 l 25.3125,0 C 40.164917,42.9997 43,40.1646 43,36.656 L 43,24.031 C 42.823764,24.021 42.649532,24 42.46875,24 l -36.9375,0 z" opacity="0.03" fill="url(#0)"/>
  <path d="M 5.53125,24 C 5.350468,24 5.176236,23.978 5,23.969 L 5,11.344 C 5,7.8354 7.835083,5.0003 11.34375,5.0003 l 25.3125,0 C 40.164917,5.0003 43,7.8354 43,11.344 l 0,12.625 C 42.823764,23.979 42.649532,24 42.46875,24 l -36.9375,0 z" opacity="0.03" fill="url(#2)"/>
 </g>
</svg>
