<?xml version="1.0" encoding="UTF-8" standalone="no"?>
<svg
   xmlns:dc="http://purl.org/dc/elements/1.1/"
   xmlns:cc="http://creativecommons.org/ns#"
   xmlns:rdf="http://www.w3.org/1999/02/22-rdf-syntax-ns#"
   xmlns:svg="http://www.w3.org/2000/svg"
   xmlns="http://www.w3.org/2000/svg"
   xmlns:xlink="http://www.w3.org/1999/xlink"
   xmlns:sodipodi="http://sodipodi.sourceforge.net/DTD/sodipodi-0.dtd"
   xmlns:inkscape="http://www.inkscape.org/namespaces/inkscape"
   width="22"
   viewBox="0 0 22 22"
   height="22"
   id="svg2"
   version="1.1"
   inkscape:version="0.48.4 r9939"
   sodipodi:docname="dropboxstatus-idle.svg">
  <metadata
     id="metadata14">
    <rdf:RDF>
      <cc:Work
         rdf:about="">
        <dc:format>image/svg+xml</dc:format>
        <dc:type
           rdf:resource="http://purl.org/dc/dcmitype/StillImage" />
      </cc:Work>
    </rdf:RDF>
  </metadata>
  <defs
     id="defs12">
    <linearGradient
       x2="2.858"
       gradientUnits="userSpaceOnUse"
       x1="10.968"
       y2="11.249"
       y1="2.579"
       id="linearGradient2992"
       xlink:href="#linearGradient3904"
       gradientTransform="matrix(1.00917,0,0,1.00917,-0.06192,-0.06293)" />
    <linearGradient
       gradientUnits="userSpaceOnUse"
       x2="43.438"
       x1="7.7810001"
       id="linearGradient3807"
       xlink:href="#linearGradient3801" />
    <linearGradient
       id="linearGradient3904">
      <stop
         id="stop4190"
         style="stop-color:#ffb00a"
         offset="0" />
      <stop
         id="stop4192"
         style="stop-color:#ff8e02"
         offset="1" />
    </linearGradient>
    <linearGradient
       id="linearGradient3801">
      <stop
         id="stop4183"
         style="stop-color:#dedede"
         offset="0" />
      <stop
         id="stop4185"
         style="stop-color:#f9f9f9"
         offset=".5" />
      <stop
         id="stop4187"
         style="stop-color:#dedede"
         offset="1" />
    </linearGradient>
    <clipPath
       id="clipPath4178"
       clipPathUnits="userSpaceOnUse">
      <path
         inkscape:connector-curvature="0"
         id="path4180"
         d="m 93.311,354.545 385.2,0 0,-285.3604 -385.2,0 0,285.3604 z" />
    </clipPath>
    <clipPath
       id="clipPath4174"
       clipPathUnits="userSpaceOnUse">
      <path
         inkscape:connector-curvature="0"
         id="path4176"
         d="M 54.1,12.5 12.9,54.7 C -2.7,70.3 23,69 32.3,74.9 36.6,77.7 18.5,81.3 22.2,85 c 3.6,3.7 21.7,7.1 25.3,10.7 3.6,3.7 -7.3,7.6 -3.7,11.3 3.5,3.7 11.9,0.2 13.4,8.6 1.1,6.2 15.4,3.1 21.8,-2.2 4,-3.4 -6.9,-3.4 -3.3,-7.1 9,-9.1 17,-4.1 20.3,-12.5 1.8,-4.5 -13.6,-7.7 -9.5,-10.6 9.8,-6.9 45.8,-10.4 29.2,-27 L 73,12.5 c -5.3,-5 -14,-5 -18.9,0 z m -9.9,64.7 c 0.9,0 30.8,4 19.3,7.1 -4.4,1.2 -24.6,-7.1 -19.3,-7.1 z m 57.2,16.6 c 0,2.1 16.3,3.3 15.4,-0.5 -1.3,-6.4 -13.6,-5.9 -15.4,0.5 z m -69.5,11.1 c 3.7,3.2 9.3,-0.7 11.1,-5.2 -3.6,-4.7 -16.9,0.3 -11.1,5.2 z m 67.5,-6.7 c -4.6,4.2 0.8,8.6 5.3,5.7 1.2,-0.8 -0.1,-4.7 -5.3,-5.7 z" />
    </clipPath>
    <clipPath
       id="clipPath4170"
       clipPathUnits="userSpaceOnUse">
      <rect
         id="rect4172"
         style="fill:#ffffff"
         height="84"
         rx="6"
         y="6"
         x="6"
         width="84" />
    </clipPath>
    <clipPath
       id="clipPath4166"
       clipPathUnits="userSpaceOnUse">
      <path
         inkscape:connector-curvature="0"
         id="path4168"
         d="m 93.311,69.185 385.2,0 0,285.36 -385.2,0 0,-285.36 z" />
    </clipPath>
    <clipPath
       id="clipPath4162"
       clipPathUnits="userSpaceOnUse">
      <path
         inkscape:connector-curvature="0"
         id="path4164"
         d="m 92.311,355.545 387.2,0 0,-287.3604 -387.2,0 0,287.3604 z" />
    </clipPath>
    <clipPath
       id="clipPath4158"
       clipPathUnits="userSpaceOnUse">
      <path
         inkscape:connector-curvature="0"
         id="path4160"
         d="m 95.311,352.545 381.092,0 0,-281.1221 -381.092,0 0,281.1221 z" />
    </clipPath>
    <clipPath
       id="clipPath4154"
       clipPathUnits="userSpaceOnUse">
      <rect
         id="rect4156"
         style="fill:#ffffff;fill-rule:evenodd"
         height="20"
         rx="2"
         y="1"
         x="1"
         width="20" />
    </clipPath>
    <clipPath
       id="clipPath4150"
       clipPathUnits="userSpaceOnUse">
      <rect
         id="rect4152"
         style="fill:#ffffff"
         height="96"
         y="0"
         x="-100"
         width="96" />
    </clipPath>
  </defs>
  <sodipodi:namedview
     pagecolor="#ffffff"
     bordercolor="#666666"
     borderopacity="1"
     objecttolerance="10"
     gridtolerance="10"
     guidetolerance="10"
     inkscape:pageopacity="0"
     inkscape:pageshadow="2"
     inkscape:window-width="1366"
     inkscape:window-height="744"
     id="namedview10"
     showgrid="false"
     inkscape:zoom="10.727273"
     inkscape:cx="-8.9957624"
     inkscape:cy="11"
     inkscape:window-x="0"
     inkscape:window-y="24"
     inkscape:window-maximized="1"
     inkscape:current-layer="svg2" />
  <path
     inkscape:connector-curvature="0"
     id="path8"
     d="M 6.5,4.5 2,8 6.5,11 2,15 11,21 20,15 15.5,11 20,8 15.5,4.5 11,8 6.5,4.5 z"
     style="opacity:0.12000002;color:#000000;fill:#000000;fill-opacity:1" />
  <path
     inkscape:connector-curvature="0"
     id="path6"
     d="M 6.5,3.5 2,7 6.5,10 2,14 11,20 20,14 15.5,10 20,7 15.5,3.5 11,7 6.5,3.5 z"
     style="opacity:0.4;color:#000000;fill:#dcdcdc;fill-opacity:1" />
</svg>
