<?xml version="1.0" encoding="UTF-8" standalone="no"?>
<!-- Created with Inkscape (http://www.inkscape.org/) -->

<svg
   xmlns:dc="http://purl.org/dc/elements/1.1/"
   xmlns:cc="http://creativecommons.org/ns#"
   xmlns:rdf="http://www.w3.org/1999/02/22-rdf-syntax-ns#"
   xmlns:svg="http://www.w3.org/2000/svg"
   xmlns="http://www.w3.org/2000/svg"
   xmlns:sodipodi="http://sodipodi.sourceforge.net/DTD/sodipodi-0.dtd"
   xmlns:inkscape="http://www.inkscape.org/namespaces/inkscape"
   id="svg3187"
   height="18.998699"
   width="18"
   version="1.0"
   inkscape:version="0.48.4 r9939"
   sodipodi:docname="weather-few-clouds.svg">
  <defs
     id="defs5557" />
  <sodipodi:namedview
     pagecolor="#ffffff"
     bordercolor="#666666"
     borderopacity="1"
     objecttolerance="10"
     gridtolerance="10"
     guidetolerance="10"
     inkscape:pageopacity="0"
     inkscape:pageshadow="2"
     inkscape:window-width="1027"
     inkscape:window-height="701"
     id="namedview5555"
     showgrid="false"
     inkscape:zoom="16.740694"
     inkscape:cx="-8.358408"
     inkscape:cy="8.8794605"
     inkscape:window-x="0"
     inkscape:window-y="24"
     inkscape:window-maximized="0"
     inkscape:current-layer="svg3187"
     fit-margin-top="2"
     fit-margin-left="0"
     fit-margin-right="2"
     fit-margin-bottom="2" />
  <metadata
     id="metadata10">
    <rdf:RDF>
      <cc:Work
         rdf:about="">
        <dc:format>image/svg+xml</dc:format>
        <dc:type
           rdf:resource="http://purl.org/dc/dcmitype/StillImage" />
        <dc:title />
      </cc:Work>
    </rdf:RDF>
  </metadata>
  <g
     id="g6772"
     transform="translate(18.632773,3.3059942)">
    <path
       inkscape:connector-curvature="0"
       d="m -5.682773,12.144005 -0.566,-0.566 m 0.071,-8.8387999 0.495,-0.495 m -9.3341,0.5657 -0.5656,-0.5657 m -2.0503,4.9498 h 1 m 12,0 h 1 m -7,-6 V 0.19400511"
       style="opacity:0.3;fill:#000000;fill-opacity:1;stroke:#000000;stroke-width:2;stroke-linecap:round;stroke-opacity:1"
       id="path2496-1" />
    <path
       inkscape:connector-curvature="0"
       d="m -10.632773,3.1940051 c -2.2091,0 -4,1.7909 -4,4 0,0.2867 0.0364,0.5741 0.0938,0.8437 0.581,-0.5275 1.3012,-0.9062 2.1562,-0.9062 1.6151,0 2.9249,1.1871 3.1875,2.7188 0.30803,0.1762599 0.5659,0.4109399 0.8125,0.6562499 0.0052,0.0052 0.02604,-0.0053 0.03125,0 1.053,-0.7199999 1.719,-1.9401999 1.719,-3.3119999 0,-2.2091 -1.791,-4 -4,-4 z m -1.75,5 c -0.84473,0 -1.5684,0.45537 -1.9531,1.1116 -0.2167,-0.1549 -0.4933,-0.2549 -0.7969,-0.2549 -0.69,0 -1.25,0.48 -1.25,1.0713999 0,0.13283 0.02651,0.25759 0.07813,0.375 -0.7847,0.3 -1.3281,0.981 -1.3281,1.767 0,1.0684 1.0035,1.9286 2.25,1.9286 h 4.5 c 1.2465,0 2.25,-0.86014 2.25,-1.9286 0,-0.84629 -0.63436,-1.5604 -1.5156,-1.8214 0.002,-0.03661 0.01563,-0.07007 0.01563,-0.10714 0,-1.1828999 -1.008,-2.1428999 -2.25,-2.1428999 z"
       style="opacity:0.3;fill:#000000;fill-opacity:1"
       id="path2876-6-6-4-0-4" />
  </g>
  <g
     id="g6768">
    <path
       inkscape:connector-curvature="0"
       d="m 12.95,14.449999 -0.566,-0.566 m 0.071,-8.8387996 0.495,-0.495 m -9.3341,0.5657 -0.5656,-0.5657 M 1,9.4999994 h 1 m 12,0 h 1 m -7,-6 v -1"
       style="fill:none;stroke:#dcdcdc;stroke-width:2;stroke-linecap:round;stroke-opacity:1"
       id="path2496" />
    <path
       inkscape:connector-curvature="0"
       d="m 8,5.4999994 c -2.2091,0 -4,1.7909 -4,4 0,0.2867 0.0364,0.5740996 0.0938,0.8436996 C 4.6748,9.8161994 5.395,9.4374994 6.25,9.4374994 c 1.6151,0 2.9249,1.1870996 3.1875,2.7187996 0.30803,0.17626 0.5659,0.41094 0.8125,0.65625 0.0052,0.0052 0.02604,-0.0053 0.03125,0 1.053,-0.72 1.719,-1.9402 1.719,-3.3119996 0,-2.2091 -1.791,-4 -4,-4 z M 6.25,10.499999 c -0.84473,0 -1.5684,0.45537 -1.9531,1.1116 -0.2167,-0.1549 -0.4933,-0.2549 -0.7969,-0.2549 -0.69,0 -1.25,0.48 -1.25,1.0714 0,0.13283 0.026505,0.25759 0.078125,0.375 -0.7847,0.3 -1.3281,0.981 -1.3281,1.767 0,1.0684 1.0035,1.9286 2.25,1.9286 h 4.5 c 1.2465,0 2.25,-0.86014 2.25,-1.9286 0,-0.84629 -0.63436,-1.5604 -1.5156,-1.8214 0.002,-0.03661 0.01563,-0.07007 0.01563,-0.10714 0,-1.1829 -1.008,-2.1429 -2.25,-2.1429 z"
       style="fill:#dcdcdc;fill-opacity:1"
       id="path2876-6-6-4-0" />
  </g>
</svg>
