<?xml version="1.0" encoding="UTF-8" standalone="no"?>
<!-- Created with Inkscape (http://www.inkscape.org/) -->

<svg
   xmlns:dc="http://purl.org/dc/elements/1.1/"
   xmlns:cc="http://creativecommons.org/ns#"
   xmlns:rdf="http://www.w3.org/1999/02/22-rdf-syntax-ns#"
   xmlns:svg="http://www.w3.org/2000/svg"
   xmlns="http://www.w3.org/2000/svg"
   xmlns:sodipodi="http://sodipodi.sourceforge.net/DTD/sodipodi-0.dtd"
   xmlns:inkscape="http://www.inkscape.org/namespaces/inkscape"
   id="svg3187"
   height="19"
   width="18"
   version="1.0"
   inkscape:version="0.48.4 r9939"
   sodipodi:docname="weather-clear.svg">
  <defs
     id="defs10" />
  <sodipodi:namedview
     pagecolor="#ffffff"
     bordercolor="#666666"
     borderopacity="1"
     objecttolerance="10"
     gridtolerance="10"
     guidetolerance="10"
     inkscape:pageopacity="0"
     inkscape:pageshadow="2"
     inkscape:window-width="1350"
     inkscape:window-height="715"
     id="namedview8"
     showgrid="false"
     showguides="true"
     inkscape:guide-bbox="true"
     inkscape:snap-global="false"
     inkscape:zoom="22.627417"
     inkscape:cx="5.630221"
     inkscape:cy="7.3925216"
     inkscape:window-x="14"
     inkscape:window-y="24"
     inkscape:window-maximized="0"
     inkscape:current-layer="svg3187"
     fit-margin-top="0"
     fit-margin-left="0"
     fit-margin-right="0"
     fit-margin-bottom="0" />
  <metadata
     id="metadata10">
    <rdf:RDF>
      <cc:Work
         rdf:about="">
        <dc:format>image/svg+xml</dc:format>
        <dc:type
           rdf:resource="http://purl.org/dc/dcmitype/StillImage" />
        <dc:title />
      </cc:Work>
    </rdf:RDF>
  </metadata>
  <g
     id="g9105"
     transform="translate(8.8395141,2.3716652)">
    <path
       transform="matrix(0.99997932,0,0,0.99995797,-8.8395245,0.12814199)"
       sodipodi:type="arc"
       style="opacity:0.3;color:#000000;fill:#000000;fill-opacity:1;fill-rule:nonzero;stroke:none;stroke-width:1;marker:none;visibility:visible;display:inline;overflow:visible;enable-background:accumulate"
       id="path3765-3"
       sodipodi:cx="8.0064726"
       sodipodi:cy="8.0064726"
       sodipodi:rx="4.0064726"
       sodipodi:ry="4.0064726"
       d="m 12.012945,8.0064726 c 0,2.2127134 -1.793759,4.0064724 -4.0064724,4.0064724 C 5.7937589,12.012945 4,10.219186 4,8.0064726 4,5.7937589 5.7937589,4 8.0064726,4 10.219186,4 12.012945,5.7937589 12.012945,8.0064726 z" />
    <path
       inkscape:connector-curvature="0"
       d="m -5.2835495,12.583274 -0.4949898,0.494979 m 4.94989771,1.050156 0,0.999957 M 4.1102083,13.077597 3.544219,12.51162 M 3.6152251,3.673193 4.1102153,3.1782138 M -5.2236993,3.7438901 -5.7892875,3.1782138 m -2.0502578,4.9495917 h 0.9999795 m 11.9997514,0 h 0.999981 M -0.8396899,2.128058 V 1.1281"
       style="opacity:0.3;color:#000000;fill:#000000;fill-opacity:0.61279464;stroke:#000000;stroke-width:1.99993753;stroke-linecap:round;stroke-linejoin:miter;stroke-miterlimit:4;stroke-opacity:1;stroke-dasharray:none;stroke-dashoffset:0;marker:none;visibility:visible;display:inline;overflow:visible;enable-background:accumulate"
       id="path2496-6-2" />
  </g>
  <g
     id="g3977"
     transform="matrix(1.0037621,0,0,1.0059208,-0.03027271,-1.5267883)">
    <path
       transform="matrix(0.9962314,0,0,0.99407227,0.03014874,3.0088821)"
       sodipodi:type="arc"
       style="color:#000000;fill:#dcdcdc;fill-opacity:1;fill-rule:nonzero;stroke:none;stroke-width:1;marker:none;visibility:visible;display:inline;overflow:visible;enable-background:accumulate"
       id="path3765"
       sodipodi:cx="8.0064726"
       sodipodi:cy="8.0064726"
       sodipodi:rx="4.0064726"
       sodipodi:ry="4.0064726"
       d="m 12.012945,8.0064726 c 0,2.2127134 -1.793759,4.0064724 -4.0064724,4.0064724 C 5.7937589,12.012945 4,10.219186 4,8.0064726 4,5.7937589 5.7937589,4 8.0064726,4 10.219186,4 12.012945,5.7937589 12.012945,8.0064726 z" />
    <path
       inkscape:connector-curvature="0"
       d="m 3.572796,15.390704 -0.4931346,0.492065 m 4.9313455,1.043975 0,0.994072 m 4.9203391,-2.038699 -0.563868,-0.562645 m 0.07074,-8.7864049 0.493135,-0.4920658 M 3.6324219,6.6033481 3.0689535,6.0410013 M 1.0263801,10.96146 h 0.9962315 m 11.9547764,0 h 0.996233 M 8,4.9970267 V 4.0029544"
       style="color:#000000;fill:#000000;fill-opacity:0.61279464;stroke:#dcdcdc;stroke-width:1.99030268;stroke-linecap:round;stroke-linejoin:miter;stroke-miterlimit:4;stroke-opacity:1;stroke-dasharray:none;stroke-dashoffset:0;marker:none;visibility:visible;display:inline;overflow:visible;enable-background:accumulate"
       id="path2496-6" />
  </g>
</svg>
