<svg xmlns="http://www.w3.org/2000/svg" viewBox="0 0 48 48"><defs><radialGradient id="thisWeirdIdNameFixesABug0" cx="24" cy="24" r="23.437" gradientUnits="userSpaceOnUse"><stop stop-color="#efb124"/><stop offset="1" stop-color="#cf9104"/></radialGradient><mask id="thisWeirdIdNameFixesABug1"><path d="m 24 3.75 c -0.066 0 -0.113 0.016 -0.18 0.031 c -0.211 0.016 -0.406 0.082 -0.598 0.176 c 0 0 -0.02 0.016 -0.035 0.031 c -0.535 0.207 -0.859 0.527 -1.117 0.828 c -0.375 0.434 -0.715 0.926 -1.055 1.484 c -0.699 1.133 -1.41 2.566 -2.141 4 c -0.73 1.449 -1.461 2.898 -2.047 4.02 c -0.289 0.559 -0.566 1.02 -0.777 1.34 c -0.047 0.094 -0.113 0.145 -0.164 0.207 c -0.078 0.031 -0.145 0.047 -0.258 0.078 c -0.371 0.082 -0.91 0.207 -1.543 0.305 c -1.262 0.207 -2.902 0.383 -4.523 0.621 c -1.641 0.238 -3.23 0.512 -4.543 0.797 c -0.648 0.145 -1.234 0.273 -1.754 0.48 c -0.273 0.109 -0.535 0.223 -0.809 0.414 c -0.277 0.191 -0.648 0.461 -0.844 1.066 c -0.211 0.621 -0.082 1.07 0.031 1.387 c 0.113 0.32 0.242 0.559 0.391 0.797 c 0.293 0.465 0.68 0.926 1.117 1.422 c 0.895 0.988 2.063 2.121 3.23 3.234 c 1.184 1.133 2.367 2.219 3.277 3.109 c 0.453 0.449 0.844 0.863 1.086 1.148 c 0.082 0.082 0.098 0.129 0.145 0.207 c 0 0.082 0 0.145 0 0.238 c -0.031 0.367 -0.078 0.895 -0.176 1.516 c -0.195 1.246 -0.504 2.84 -0.781 4.434 c -0.273 1.578 -0.535 3.172 -0.664 4.48 c -0.066 0.652 -0.113 1.211 -0.066 1.77 c 0.02 0.27 0.066 0.574 0.18 0.891 c 0.098 0.32 0.242 0.734 0.762 1.117 c 0.535 0.367 1.01 0.383 1.348 0.367 c 0.324 0 0.602 -0.031 0.875 -0.094 c 0.551 -0.145 1.105 -0.367 1.719 -0.625 c 1.234 -0.523 2.727 -1.227 4.187 -1.977 c 1.461 -0.75 2.887 -1.531 4.04 -2.105 c 0.566 -0.285 1.086 -0.508 1.445 -0.652 c 0.098 -0.047 0.16 -0.047 0.242 -0.063 c 0.082 0.016 0.145 0.016 0.242 0.063 c 0.359 0.145 0.879 0.367 1.445 0.652 c 1.152 0.574 2.578 1.355 4.04 2.105 c 1.461 0.75 2.953 1.453 4.188 1.977 c 0.613 0.258 1.168 0.48 1.719 0.625 c 0.273 0.063 0.551 0.094 0.875 0.094 c 0.34 0.016 0.813 0 1.348 -0.367 c 0.52 -0.383 0.664 -0.797 0.762 -1.117 c 0.113 -0.316 0.16 -0.621 0.18 -0.891 c 0.047 -0.559 0 -1.117 -0.066 -1.77 c -0.129 -1.309 -0.391 -2.902 -0.664 -4.48 c -0.277 -1.594 -0.586 -3.188 -0.781 -4.434 c -0.098 -0.621 -0.145 -1.148 -0.176 -1.516 c 0 -0.094 0 -0.156 0 -0.238 c 0.047 -0.078 0.063 -0.125 0.145 -0.207 c 0.242 -0.285 0.633 -0.699 1.086 -1.148 c 0.91 -0.891 2.094 -1.977 3.277 -3.109 c 1.168 -1.113 2.336 -2.246 3.23 -3.234 c 0.438 -0.496 0.824 -0.957 1.117 -1.422 c 0.148 -0.238 0.277 -0.477 0.391 -0.797 c 0.113 -0.316 0.242 -0.766 0.031 -1.387 c -0.195 -0.605 -0.566 -0.875 -0.844 -1.066 c -0.273 -0.191 -0.535 -0.305 -0.809 -0.414 c -0.52 -0.207 -1.105 -0.336 -1.754 -0.48 c -1.313 -0.285 -2.902 -0.559 -4.543 -0.797 c -1.621 -0.238 -3.262 -0.414 -4.523 -0.621 c -0.633 -0.098 -1.172 -0.223 -1.543 -0.305 c -0.098 -0.031 -0.18 -0.047 -0.258 -0.078 c -0.051 -0.063 -0.117 -0.113 -0.164 -0.207 c -0.211 -0.32 -0.488 -0.781 -0.777 -1.34 c -0.586 -1.117 -1.316 -2.566 -2.047 -4.02 c -0.73 -1.438 -1.441 -2.871 -2.141 -4 c -0.34 -0.559 -0.68 -1.051 -1.055 -1.484 c -0.355 -0.43 -0.633 -1.066 -1.93 -1.066 Z" fill="#fff"/></mask></defs><g mask="url(#thisWeirdIdNameFixesABug1)"><path d="m 47.44 11.547 l 0 24.906 c 0 10.25 0 10.984 -10.984 10.984 l -24.902 0 c -10.988 0 -10.988 -0.734 -10.988 -10.984 l 0 -24.906 c 0 -10.25 0 -10.984 10.988 -10.984 l 24.902 0 c 10.984 0 10.984 0.734 10.984 10.984" fill="url(#thisWeirdIdNameFixesABug0)"/><path d="m 38.27 47.44 c 2.543 -0.012 4.379 -0.082 5.711 -0.441 l -4.23 -7.25 -4.484 7.691 1.191 0 c 0.641 0 1.242 0 1.813 0 z m 1.48 -7.691 -5.125 -8.789 -5.129 8.789 z m 0 0 7.652 0 c 0.031 -0.973 0.039 -2.063 0.039 -3.297 l 0 -1.098 -2.563 -4.395 z m 5.129 -8.789 -5.129 -8.789 -5.125 8.789 z m 0 0 2.563 0 0 -4.395 z m -10.254 0 -5.129 -8.789 -5.125 8.789 z m -10.254 0 -5.129 8.789 10.254 0 z m 0 0 -5.129 -8.789 -5.125 8.789 z m -10.254 0 -5.129 8.789 10.254 0 z m 0 0 -5.129 -8.789 -5.125 8.789 z m -10.254 0 -3.297 5.648 c 0 1.168 0.012 2.211 0.039 3.141 l 8.383 0 z m 0 0 -3.297 -5.648 0 5.648 z m 5.125 8.789 -4.313 7.395 c 1.598 0.293 3.809 0.297 6.879 0.297 l 1.922 0 z m 0 -17.578 -5.125 -8.789 -3.297 5.648 0 3.141 z m 0 0 10.254 0 -5.125 -8.789 z m 5.129 -8.789 -5.129 -8.789 -5.125 8.789 z m 0 0 10.254 0 -5.129 -8.789 z m 5.125 -8.789 -2.352 -4.03 -5.336 0 c -0.078 0 -0.141 0 -0.215 0 l -2.352 4.03 z m 0 0 10.254 0 -2.352 -4.03 -5.551 0 z m 10.254 0 10.254 0 l -2.352 -4.03 c -0.313 0 -0.609 0 -0.941 0 l -4.609 0 z m 0 0 -5.125 8.789 10.254 0 z m 5.129 8.789 10.254 0 -5.129 -8.789 z m 0 0 -5.129 8.789 10.254 0 z m 5.125 8.789 7.691 0 0 -4.395 -2.563 -4.395 z m 5.129 -8.789 2.563 0 0 -1.832 c 0 -0.914 -0.008 -1.75 -0.023 -2.523 z m -15.383 8.789 -5.125 -8.789 -5.129 8.789 z m 10.254 -17.578 7.309 0 c -0.555 -2.758 -1.887 -3.629 -5.03 -3.902 z m -30.762 0 l -2.305 -3.953 c -3.66 0.207 -5.141 0.996 -5.734 3.953 z m -5.125 8.789 l -3.238 -5.555 c -0.043 1.074 -0.059 2.309 -0.059 3.723 l 0 1.832 z m 15.379 26.367 -4.484 7.691 8.973 0 z m 10.254 0 -4.484 7.691 8.973 0 z m -26.898 6.621 -1.602 -2.746 c 0.293 1.316 0.785 2.18 1.602 2.746 z" fill="#fff" fill-opacity="0.08278867102396514"/></g></svg>