<svg viewBox="0 0 48 48" xmlns:xlink="http://www.w3.org/1999/xlink"><defs><linearGradient id="linearGradient3764" x1="1" x2="47" gradientUnits="userSpaceOnUse" gradientTransform="translate(-48.000001,0.00221467)"><stop stop-color="#ff7061" stop-opacity="1"/><stop offset="1" stop-color="#ff8275" stop-opacity="1"/></linearGradient><clipPath id="clipPath-357861450"><g transform="translate(0,-1004.3622)"><rect rx="4" y="1005.36" x="1" height="46" width="46" fill="#1890d0"/></g></clipPath><clipPath id="clipPath-371129264"><g transform="translate(0,-1004.3622)"><rect rx="4" y="1005.36" x="1" height="46" width="46" fill="#1890d0"/></g></clipPath><radialGradient id="radial0" gradientUnits="userSpaceOnUse" cx="6.773" cy="5.927" r="0.564" gradientTransform="matrix(3.543307,0,0,3.543307,0.000000147638,0.000377575)"><stop stop-color="#8eb0c7" stop-opacity="1"/><stop offset="1" stop-color="#8eb0c7" stop-opacity="0"/></radialGradient><radialGradient id="radial1" gradientUnits="userSpaceOnUse" cx="6" cy="17.292" r="1" gradientTransform="matrix(1,0,0,1,18,8.707971)" xlink:href="#radial0"/><radialGradient id="radial0" gradientUnits="userSpaceOnUse" cx="6.773" cy="5.927" r="0.564" gradientTransform="matrix(3.543307,0,0,3.543307,0.000000147638,0.000377575)"><stop stop-color="#8eb0c7" stop-opacity="1"/><stop offset="1" stop-color="#8eb0c7" stop-opacity="0"/></radialGradient><radialGradient id="radial1" gradientUnits="userSpaceOnUse" cx="6" cy="17.292" r="1" gradientTransform="matrix(1,0,0,1,18,8.707971)" xlink:href="#radial0"/></defs><g><path d="m 1 43 l 0 0.25 c 0 2.216 1.784 4 4 4 l 38 0 c 2.216 0 4 -1.784 4 -4 l 0 -0.25 c 0 2.216 -1.784 4 -4 4 l -38 0 c -2.216 0 -4 -1.784 -4 -4 z m 0 0.5 l 0 0.5 c 0 2.216 1.784 4 4 4 l 38 0 c 2.216 0 4 -1.784 4 -4 l 0 -0.5 c 0 2.216 -1.784 4 -4 4 l -38 0 c -2.216 0 -4 -1.784 -4 -4 z" opacity="0.02"/><path d="m 1 43.25 l 0 0.25 c 0 2.216 1.784 4 4 4 l 38 0 c 2.216 0 4 -1.784 4 -4 l 0 -0.25 c 0 2.216 -1.784 4 -4 4 l -38 0 c -2.216 0 -4 -1.784 -4 -4 z" opacity="0.05"/><path d="m 1 43 l 0 0.25 c 0 2.216 1.784 4 4 4 l 38 0 c 2.216 0 4 -1.784 4 -4 l 0 -0.25 c 0 2.216 -1.784 4 -4 4 l -38 0 c -2.216 0 -4 -1.784 -4 -4 z" opacity="0.1"/></g><g><rect width="46" height="46" x="-47" y="1" rx="4" transform="matrix(0,-1,1,0,0,0)" fill="url(#linearGradient3764)" fill-opacity="1"/></g><g><g clip-path="url(#clipPath-357861450)"><g opacity="0.1"><!-- color: #ff8275 --><g><path d="m 14 10 c 0 1.105 -0.895 2 -2 2 c -1.105 0 -2 -0.895 -2 -2 c 0 -1.105 0.895 -2 2 -2 c 1.105 0 2 0.895 2 2 m 0 0" stroke="none" fill-rule="nonzero" fill-opacity="1" fill="#000"/><path d="m 38 24 c 0 7.73 -6.27 14 -14 14 c -7.73 0 -14 -6.27 -14 -14 c 0 -7.73 6.27 -14 14 -14 c 7.73 0 14 6.27 14 14 m 0 0" stroke="none" fill-rule="nonzero" fill-opacity="1" fill="#000"/><path d="m 35 24 c 0 6.074 -4.926 11 -11 11 c -6.074 0 -11 -4.926 -11 -11 c 0 -6.074 4.926 -11 11 -11 c 6.074 0 11 4.926 11 11 m 0 0" stroke="none" fill-rule="nonzero" fill-opacity="1" fill="#000"/><path d="m 32 24 c 0 4.418 -3.582 8 -8 8 c -4.418 0 -8 -3.582 -8 -8 c 0 -4.418 3.582 -8 8 -8 c 4.418 0 8 3.582 8 8 m 0 0" stroke="none" fill-rule="nonzero" fill-opacity="1" fill="#000"/><path d="m 30 24 c 0 3.313 -2.688 6 -6 6 c -3.313 0 -6 -2.688 -6 -6 c 0 -3.313 2.688 -6 6 -6 c 3.313 0 6 2.688 6 6 m 0 0" stroke="none" fill-rule="nonzero" fill-opacity="1" fill="#000"/><path d="m 26 21 c 0 1.105 -0.895 2 -2 2 c -1.105 0 -2 -0.895 -2 -2 c 0 -1.105 0.895 -2 2 -2 c 1.105 0 2 0.895 2 2 m 0 0" stroke="none" fill-rule="nonzero" fill="#000"/><path d="m 25 26 c 0 0.551 -0.449 1 -1 1 c -0.551 0 -1 -0.449 -1 -1 c 0 -0.551 0.449 -1 1 -1 c 0.551 0 1 0.449 1 1 m 0 0" stroke="none" fill-rule="nonzero" fill="#000"/></g></g></g></g><g><g clip-path="url(#clipPath-371129264)"><g transform="translate(0,-1)"><!-- color: #ff8275 --><g><path d="m 14 10 c 0 1.105 -0.895 2 -2 2 c -1.105 0 -2 -0.895 -2 -2 c 0 -1.105 0.895 -2 2 -2 c 1.105 0 2 0.895 2 2 m 0 0" fill="#ffec70" stroke="none" fill-rule="nonzero" fill-opacity="1"/><path d="m 38 24 c 0 7.73 -6.27 14 -14 14 c -7.73 0 -14 -6.27 -14 -14 c 0 -7.73 6.27 -14 14 -14 c 7.73 0 14 6.27 14 14 m 0 0" fill="#f9f9f9" stroke="none" fill-rule="nonzero" fill-opacity="1"/><path d="m 35 24 c 0 6.074 -4.926 11 -11 11 c -6.074 0 -11 -4.926 -11 -11 c 0 -6.074 4.926 -11 11 -11 c 6.074 0 11 4.926 11 11 m 0 0" fill="#355362" stroke="none" fill-rule="nonzero" fill-opacity="1"/><path d="m 32 24 c 0 4.418 -3.582 8 -8 8 c -4.418 0 -8 -3.582 -8 -8 c 0 -4.418 3.582 -8 8 -8 c 4.418 0 8 3.582 8 8 m 0 0" fill="#53697f" stroke="none" fill-rule="nonzero" fill-opacity="1"/><path d="m 30 24 c 0 3.313 -2.688 6 -6 6 c -3.313 0 -6 -2.688 -6 -6 c 0 -3.313 2.688 -6 6 -6 c 3.313 0 6 2.688 6 6 m 0 0" fill="#355362" stroke="none" fill-rule="nonzero" fill-opacity="1"/><path d="m 26 21 c 0 1.105 -0.895 2 -2 2 c -1.105 0 -2 -0.895 -2 -2 c 0 -1.105 0.895 -2 2 -2 c 1.105 0 2 0.895 2 2 m 0 0" fill="url(#radial0)" stroke="none" fill-rule="nonzero"/><path d="m 25 26 c 0 0.551 -0.449 1 -1 1 c -0.551 0 -1 -0.449 -1 -1 c 0 -0.551 0.449 -1 1 -1 c 0.551 0 1 0.449 1 1 m 0 0" fill="url(#radial1)" stroke="none" fill-rule="nonzero"/></g></g></g></g><g><g transform="translate(0,-1004.3622)"><path d="m 1 1043.36 0 4 c 0 2.216 1.784 4 4 4 l 38 0 c 2.216 0 4 -1.784 4 -4 l 0 -4 c 0 2.216 -1.784 4 -4 4 l -38 0 c -2.216 0 -4 -1.784 -4 -4 z" opacity="0.1"/></g></g></svg>