<svg viewBox="0 0 48 48"><defs><linearGradient id="linearGradient3764" x1="1" x2="47" gradientUnits="userSpaceOnUse" gradientTransform="translate(-48.000001,0.00221467)"><stop stop-color="#f15f1f" stop-opacity="1"/><stop offset="1" stop-color="#f26d32" stop-opacity="1"/></linearGradient><clipPath id="clipPath-589864821"><g transform="translate(0,-1004.3622)"><rect rx="4" y="1005.36" x="1" height="46" width="46" fill="#1890d0"/></g></clipPath><clipPath id="clipPath-619674586"><g transform="translate(0,-1004.3622)"><rect rx="4" y="1005.36" x="1" height="46" width="46" fill="#1890d0"/></g></clipPath></defs><g><path d="m 1 43 l 0 0.25 c 0 2.216 1.784 4 4 4 l 38 0 c 2.216 0 4 -1.784 4 -4 l 0 -0.25 c 0 2.216 -1.784 4 -4 4 l -38 0 c -2.216 0 -4 -1.784 -4 -4 z m 0 0.5 l 0 0.5 c 0 2.216 1.784 4 4 4 l 38 0 c 2.216 0 4 -1.784 4 -4 l 0 -0.5 c 0 2.216 -1.784 4 -4 4 l -38 0 c -2.216 0 -4 -1.784 -4 -4 z" opacity="0.02"/><path d="m 1 43.25 l 0 0.25 c 0 2.216 1.784 4 4 4 l 38 0 c 2.216 0 4 -1.784 4 -4 l 0 -0.25 c 0 2.216 -1.784 4 -4 4 l -38 0 c -2.216 0 -4 -1.784 -4 -4 z" opacity="0.05"/><path d="m 1 43 l 0 0.25 c 0 2.216 1.784 4 4 4 l 38 0 c 2.216 0 4 -1.784 4 -4 l 0 -0.25 c 0 2.216 -1.784 4 -4 4 l -38 0 c -2.216 0 -4 -1.784 -4 -4 z" opacity="0.1"/></g><g><rect width="46" height="46" x="-47" y="1" rx="4" transform="matrix(0,-1,1,0,0,0)" fill="url(#linearGradient3764)" fill-opacity="1"/></g><g><g clip-path="url(#clipPath-589864821)"><g opacity="0.1"><!-- color: #f26d32 --><g><path d="m 21.19 15 c -0.57 0.016 -1.148 0.109 -1.719 0.313 c -2.445 0.863 -4.301 3.363 -4.844 6.469 c -1.605 0.402 -2.996 1.887 -3.48 4 c -0.672 3 0.738 6.094 3.125 6.938 c 0.039 0.012 0.086 0.023 0.125 0.031 c 0.332 0.148 0.66 0.25 1.031 0.25 l 17.344 0 c 0.621 0 1.172 -0.234 1.656 -0.625 c 1.938 -1.16 3.01 -3.91 2.406 -6.594 c -0.441 -1.98 -1.691 -3.434 -3.156 -3.938 c -0.023 -0.066 -0.023 -0.121 -0.031 -0.188 c -0.672 -3 -3.172 -4.75 -5.563 -3.906 c -0.457 0.16 -0.863 0.43 -1.25 0.75 c -1.316 -2.223 -3.441 -3.563 -5.656 -3.5 m 2.813 4 l 1 2 l -2 0 m -5 -1 l 2 0 l 0 1 l -1 0 l 0 1 l 1 0 l 0 2 l -1 0 l 0 1 l 1 0 l 0 2 l -1 0 l 0 1 l 1 0 l 0 2 l -1 0 l 0 1 l 1 0 l 0 1 l -2 0 m 10.75 -11.594 l 0 1.094 c -0.129 0.09 -0.219 0.238 -0.219 0.406 c 0 0.277 0.223 0.5 0.5 0.5 c 0.273 0 0.5 -0.223 0.5 -0.5 c 0 -0.191 -0.125 -0.355 -0.281 -0.438 l 0 -1.063 c 0.395 0.602 0.996 1.539 0.656 2.156 c -0.332 0.594 -1.477 0.59 -1.813 0 c -0.355 -0.613 0.25 -1.551 0.645 -2.156 m -5.75 1.594 l 2 0 l 0 10 l -2 0 m 5 -8 l 2 0 l 0 8 l -2 0 m 0 -8" stroke="none" fill-rule="nonzero" fill-opacity="1" fill="#000"/></g></g></g></g><g><g clip-path="url(#clipPath-619674586)"><g transform="translate(0,-1)"><!-- color: #f26d32 --><g><path d="m 21.19 15 c -0.57 0.016 -1.148 0.109 -1.719 0.313 c -2.445 0.863 -4.301 3.363 -4.844 6.469 c -1.605 0.402 -2.996 1.887 -3.48 4 c -0.672 3 0.738 6.094 3.125 6.938 c 0.039 0.012 0.086 0.023 0.125 0.031 c 0.332 0.148 0.66 0.25 1.031 0.25 l 17.344 0 c 0.621 0 1.172 -0.234 1.656 -0.625 c 1.938 -1.16 3.01 -3.91 2.406 -6.594 c -0.441 -1.98 -1.691 -3.434 -3.156 -3.938 c -0.023 -0.066 -0.023 -0.121 -0.031 -0.188 c -0.672 -3 -3.172 -4.75 -5.563 -3.906 c -0.457 0.16 -0.863 0.43 -1.25 0.75 c -1.316 -2.223 -3.441 -3.563 -5.656 -3.5 m 2.813 4 l 1 2 l -2 0 m -5 -1 l 2 0 l 0 1 l -1 0 l 0 1 l 1 0 l 0 2 l -1 0 l 0 1 l 1 0 l 0 2 l -1 0 l 0 1 l 1 0 l 0 2 l -1 0 l 0 1 l 1 0 l 0 1 l -2 0 m 10.75 -11.594 l 0 1.094 c -0.129 0.09 -0.219 0.238 -0.219 0.406 c 0 0.277 0.223 0.5 0.5 0.5 c 0.273 0 0.5 -0.223 0.5 -0.5 c 0 -0.191 -0.125 -0.355 -0.281 -0.438 l 0 -1.063 c 0.395 0.602 0.996 1.539 0.656 2.156 c -0.332 0.594 -1.477 0.59 -1.813 0 c -0.355 -0.613 0.25 -1.551 0.645 -2.156 m -5.75 1.594 l 2 0 l 0 10 l -2 0 m 5 -8 l 2 0 l 0 8 l -2 0 m 0 -8" fill="#f9f9f9" stroke="none" fill-rule="nonzero" fill-opacity="1"/></g></g></g></g><g><g transform="translate(0,-1004.3622)"><path d="m 1 1043.36 0 4 c 0 2.216 1.784 4 4 4 l 38 0 c 2.216 0 4 -1.784 4 -4 l 0 -4 c 0 2.216 -1.784 4 -4 4 l -38 0 c -2.216 0 -4 -1.784 -4 -4 z" opacity="0.1"/></g></g></svg>