<svg viewBox="0 0 48 48"><defs><linearGradient id="linearGradient3764" x1="1" x2="47" gradientUnits="userSpaceOnUse" gradientTransform="translate(-48.000001,0.00221467)"><stop stop-color="#3e4d8e" stop-opacity="1"/><stop offset="1" stop-color="#44549c" stop-opacity="1"/></linearGradient><clipPath id="clipPath-095207655"><g transform="translate(0,-1004.3622)"><rect rx="4" y="1005.36" x="1" height="46" width="46" fill="#1890d0"/></g></clipPath><clipPath id="clipPath-108660688"><g transform="translate(0,-1004.3622)"><rect rx="4" y="1005.36" x="1" height="46" width="46" fill="#1890d0"/></g></clipPath></defs><g><path d="m 1 43 l 0 0.25 c 0 2.216 1.784 4 4 4 l 38 0 c 2.216 0 4 -1.784 4 -4 l 0 -0.25 c 0 2.216 -1.784 4 -4 4 l -38 0 c -2.216 0 -4 -1.784 -4 -4 z m 0 0.5 l 0 0.5 c 0 2.216 1.784 4 4 4 l 38 0 c 2.216 0 4 -1.784 4 -4 l 0 -0.5 c 0 2.216 -1.784 4 -4 4 l -38 0 c -2.216 0 -4 -1.784 -4 -4 z" opacity="0.02"/><path d="m 1 43.25 l 0 0.25 c 0 2.216 1.784 4 4 4 l 38 0 c 2.216 0 4 -1.784 4 -4 l 0 -0.25 c 0 2.216 -1.784 4 -4 4 l -38 0 c -2.216 0 -4 -1.784 -4 -4 z" opacity="0.05"/><path d="m 1 43 l 0 0.25 c 0 2.216 1.784 4 4 4 l 38 0 c 2.216 0 4 -1.784 4 -4 l 0 -0.25 c 0 2.216 -1.784 4 -4 4 l -38 0 c -2.216 0 -4 -1.784 -4 -4 z" opacity="0.1"/></g><g><rect width="46" height="46" x="-47" y="1" rx="4" transform="matrix(0,-1,1,0,0,0)" fill="url(#linearGradient3764)" fill-opacity="1"/></g><g><g clip-path="url(#clipPath-095207655)"><g opacity="0.1"><!-- color: #44549c --><g><path d="m 20.602 16 c -0.367 0 -0.723 0.055 -1.063 0.125 c -1.137 0.168 -2.512 0.563 -3.934 1.504 c -3.535 2.324 -5.04 13.11 -4.492 14.12 c 0.547 1.01 5.496 -1.012 8.09 -4.879 c 0.195 -0.289 0.387 -0.586 0.559 -0.906 c 0.27 0.043 0.551 0.051 0.84 0.051 l 7.156 0 c 0.18 0 0.328 -0.008 0.508 -0.023 c 0.164 0.301 0.348 0.598 0.535 0.875 c 2.594 3.871 7.543 5.887 8.094 4.879 c 0.547 -1.012 -0.953 -11.789 -4.496 -14.12 c -1.016 -0.668 -1.996 -1.063 -2.895 -1.301 c -0.078 -0.02 -0.148 -0.031 -0.227 -0.051 c -0.484 -0.148 -0.988 -0.277 -1.523 -0.277 m 1.801 2.406 c 0.098 -0.016 0.211 -0.012 0.305 0 c 0.133 0.016 0.258 0.055 0.383 0.125 c 0.48 0.281 0.633 0.902 0.352 1.379 c -0.281 0.477 -0.883 0.652 -1.367 0.371 c -0.488 -0.273 -0.66 -0.895 -0.379 -1.375 c 0.156 -0.27 0.418 -0.449 0.707 -0.5 m -11.555 -0.402 l 1 0 l 0 3 l 3 0 l 0 1 l -3 0 l 0 3 l -1 0 l 0 -3 l -3 0 l 0 -1 l 3 0 m 14.207 -1.246 c 0.133 0.016 0.262 0.055 0.379 0.125 c 0.488 0.277 0.66 0.898 0.383 1.379 c -0.277 0.477 -0.914 0.652 -1.395 0.371 c -0.484 -0.277 -0.637 -0.898 -0.355 -1.375 c 0.211 -0.363 0.598 -0.551 0.988 -0.5 m -4 0.949 c 0.098 -0.016 0.203 -0.016 0.305 0 c 0.129 0.016 0.258 0.055 0.379 0.125 c 0.484 0.281 0.637 0.898 0.352 1.379 c -0.27 0.477 -0.883 0.652 -1.352 0.371 c -0.484 -0.277 -0.66 -0.898 -0.395 -1.375 c 0.156 -0.27 0.418 -0.449 0.727 -0.5 m 2.383 1.352 c 0.094 -0.02 0.18 -0.016 0.273 0 c 0.141 0.012 0.27 0.051 0.391 0.121 c 0.477 0.277 0.645 0.898 0.379 1.375 c -0.277 0.48 -0.91 0.652 -1.395 0.375 c -0.48 -0.277 -0.641 -0.898 -0.355 -1.375 c 0.148 -0.27 0.422 -0.453 0.707 -0.5 m 0 0.004" stroke="none" fill-rule="nonzero" fill-opacity="1" fill="#000"/></g></g></g></g><g><g clip-path="url(#clipPath-108660688)"><g transform="translate(0,-1)"><!-- color: #44549c --><g><path d="m 20.602 16 c -0.367 0 -0.723 0.055 -1.063 0.125 c -1.137 0.168 -2.512 0.563 -3.934 1.504 c -3.535 2.324 -5.04 13.11 -4.492 14.12 c 0.547 1.01 5.496 -1.012 8.09 -4.879 c 0.195 -0.289 0.387 -0.586 0.559 -0.906 c 0.27 0.043 0.551 0.051 0.84 0.051 l 7.156 0 c 0.18 0 0.328 -0.008 0.508 -0.023 c 0.164 0.301 0.348 0.598 0.535 0.875 c 2.594 3.871 7.543 5.887 8.094 4.879 c 0.547 -1.012 -0.953 -11.789 -4.496 -14.12 c -1.016 -0.668 -1.996 -1.063 -2.895 -1.301 c -0.078 -0.02 -0.148 -0.031 -0.227 -0.051 c -0.484 -0.148 -0.988 -0.277 -1.523 -0.277 m 1.801 2.406 c 0.098 -0.016 0.211 -0.012 0.305 0 c 0.133 0.016 0.258 0.055 0.383 0.125 c 0.48 0.281 0.633 0.902 0.352 1.379 c -0.281 0.477 -0.883 0.652 -1.367 0.371 c -0.488 -0.273 -0.66 -0.895 -0.379 -1.375 c 0.156 -0.27 0.418 -0.449 0.707 -0.5 m -11.555 -0.402 l 1 0 l 0 3 l 3 0 l 0 1 l -3 0 l 0 3 l -1 0 l 0 -3 l -3 0 l 0 -1 l 3 0 m 14.207 -1.246 c 0.133 0.016 0.262 0.055 0.379 0.125 c 0.488 0.277 0.66 0.898 0.383 1.379 c -0.277 0.477 -0.914 0.652 -1.395 0.371 c -0.484 -0.277 -0.637 -0.898 -0.355 -1.375 c 0.211 -0.363 0.598 -0.551 0.988 -0.5 m -4 0.949 c 0.098 -0.016 0.203 -0.016 0.305 0 c 0.129 0.016 0.258 0.055 0.379 0.125 c 0.484 0.281 0.637 0.898 0.352 1.379 c -0.27 0.477 -0.883 0.652 -1.352 0.371 c -0.484 -0.277 -0.66 -0.898 -0.395 -1.375 c 0.156 -0.27 0.418 -0.449 0.727 -0.5 m 2.383 1.352 c 0.094 -0.02 0.18 -0.016 0.273 0 c 0.141 0.012 0.27 0.051 0.391 0.121 c 0.477 0.277 0.645 0.898 0.379 1.375 c -0.277 0.48 -0.91 0.652 -1.395 0.375 c -0.48 -0.277 -0.641 -0.898 -0.355 -1.375 c 0.148 -0.27 0.422 -0.453 0.707 -0.5 m 0 0.004" fill="#eaeaea" stroke="none" fill-rule="nonzero" fill-opacity="1"/></g></g></g></g><g><g transform="translate(0,-1004.3622)"><path d="m 1 1043.36 0 4 c 0 2.216 1.784 4 4 4 l 38 0 c 2.216 0 4 -1.784 4 -4 l 0 -4 c 0 2.216 -1.784 4 -4 4 l -38 0 c -2.216 0 -4 -1.784 -4 -4 z" opacity="0.1"/></g></g></svg>