<svg viewBox="0 0 48 48"><defs><linearGradient id="linearGradient3764" x1="1" x2="47" gradientUnits="userSpaceOnUse" gradientTransform="translate(-48.000001,0.00221467)"><stop stop-color="#ce411c" stop-opacity="1"/><stop offset="1" stop-color="#e0491e" stop-opacity="1"/></linearGradient><clipPath id="clipPath-789271636"><g transform="translate(0,-1004.3622)"><rect rx="4" y="1005.36" x="1" height="46" width="46" fill="#1890d0"/></g></clipPath><clipPath id="clipPath-819078255"><g transform="translate(0,-1004.3622)"><rect rx="4" y="1005.36" x="1" height="46" width="46" fill="#1890d0"/></g></clipPath><linearGradient id="linear0" gradientUnits="userSpaceOnUse" y1="12.7" x2="0" y2="1.129" gradientTransform="matrix(3.482195,0,0,3.543307,0.307109,0)"><stop stop-color="#de491e" stop-opacity="1"/><stop offset="1" stop-color="#f47736" stop-opacity="1"/></linearGradient><linearGradient id="linear0" gradientUnits="userSpaceOnUse" y1="12.7" x2="0" y2="1.129" gradientTransform="matrix(3.482195,0,0,3.543307,0.307109,0)"><stop stop-color="#de491e" stop-opacity="1"/><stop offset="1" stop-color="#f47736" stop-opacity="1"/></linearGradient></defs><g><path d="m 1 43 l 0 0.25 c 0 2.216 1.784 4 4 4 l 38 0 c 2.216 0 4 -1.784 4 -4 l 0 -0.25 c 0 2.216 -1.784 4 -4 4 l -38 0 c -2.216 0 -4 -1.784 -4 -4 z m 0 0.5 l 0 0.5 c 0 2.216 1.784 4 4 4 l 38 0 c 2.216 0 4 -1.784 4 -4 l 0 -0.5 c 0 2.216 -1.784 4 -4 4 l -38 0 c -2.216 0 -4 -1.784 -4 -4 z" opacity="0.02"/><path d="m 1 43.25 l 0 0.25 c 0 2.216 1.784 4 4 4 l 38 0 c 2.216 0 4 -1.784 4 -4 l 0 -0.25 c 0 2.216 -1.784 4 -4 4 l -38 0 c -2.216 0 -4 -1.784 -4 -4 z" opacity="0.05"/><path d="m 1 43 l 0 0.25 c 0 2.216 1.784 4 4 4 l 38 0 c 2.216 0 4 -1.784 4 -4 l 0 -0.25 c 0 2.216 -1.784 4 -4 4 l -38 0 c -2.216 0 -4 -1.784 -4 -4 z" opacity="0.1"/></g><g><rect width="46" height="46" x="-47" y="1" rx="4" transform="matrix(0,-1,1,0,0,0)" fill="url(#linearGradient3764)" fill-opacity="1"/></g><g><g clip-path="url(#clipPath-789271636)"><g opacity="0.1"><!-- color: #e0491e --><g><path d="m 24.387 19.1 c 0 3.785 -3.195 6.852 -7.125 6.852 c -3.934 0 -7.121 -3.07 -7.121 -6.852 c 0 -3.785 3.191 -6.848 7.121 -6.848 c 3.938 0 7.125 3.063 7.125 6.848 m 0 0" stroke="none" fill-rule="evenodd" fill-opacity="1" fill="#000"/><path d="m 24.438 28.05 c 0 4.227 -3.23 7.652 -7.219 7.652 c -3.984 0 -7.215 -3.426 -7.215 -7.652 c 0 -4.223 3.23 -7.648 7.215 -7.648 c 3.988 0 7.219 3.426 7.219 7.648 m 0 0" stroke="none" fill-rule="evenodd" fill-opacity="1" fill="#000"/><path d="m 38 19.5 c 0 4.141 -3.238 7.5 -7.227 7.5 c -3.988 0 -7.227 -3.359 -7.227 -7.5 c 0 -4.145 3.238 -7.504 7.227 -7.504 c 3.988 0 7.227 3.359 7.227 7.504 m 0 0" stroke="none" fill-rule="evenodd" fill-opacity="1" fill="#000"/><path d="m 37.602 28.348 c 0 4.223 -3.145 7.648 -7.02 7.648 c -3.879 0 -7.02 -3.426 -7.02 -7.648 c 0 -4.227 3.145 -7.652 7.02 -7.652 c 3.879 0 7.02 3.426 7.02 7.652 m 0 0" stroke="none" fill-rule="evenodd" fill-opacity="1" fill="#000"/><path d="m 16.715 19.578 l 14.801 0 l 0 8.906 l -14.801 0 m 0 -8.906" stroke="none" fill-rule="nonzero" fill-opacity="0.988" fill="#000"/><path d="m 30.875 16.914 c -1.203 0.02 -2.164 1.027 -2.148 2.254 c 0 1.738 -0.246 2.102 -0.426 2.254 c -0.18 0.148 -1.141 0.496 -3.262 0.496 c -2.199 0 -4.25 -0.242 -6.352 0.598 c -1.051 0.418 -2.098 1.258 -2.711 2.402 c -0.613 1.141 -0.84 2.457 -0.84 3.977 c 0 1.23 0.98 2.23 2.191 2.23 c 1.207 0 2.188 -1 2.188 -2.23 c 0 -1.051 0.176 -1.609 0.297 -1.84 c 0.125 -0.23 0.164 -0.262 0.477 -0.383 c 0.625 -0.25 2.426 -0.293 4.754 -0.293 c 2.434 0 4.41 -0.152 6.03 -1.496 c 1.621 -1.344 2.039 -3.469 2.039 -5.707 c 0.008 -0.602 -0.227 -1.18 -0.645 -1.605 c -0.418 -0.426 -0.988 -0.66 -1.582 -0.652 m -0.008 -0.004" stroke="none" fill-rule="nonzero" fill="#000"/><path d="m 30.879 23.711 c -1.203 0.023 -2.164 1.031 -2.148 2.258 l 0 2.617 c 0 1.23 0.98 2.23 2.188 2.23 c 1.211 0 2.191 -1 2.191 -2.23 l -0.004 -2.617 c 0.008 -0.602 -0.227 -1.184 -0.645 -1.605 c -0.418 -0.426 -0.988 -0.66 -1.582 -0.652 m 0 0" stroke="none" fill-rule="nonzero" fill-opacity="1" fill="#000"/><path d="m 20.348 19.277 c 0 0.676 -0.004 2.559 -0.004 2.559 c 0 0 -1.848 0.008 -2.602 0.008 c -1.441 0 -2.609 -1.148 -2.609 -2.563 c 0 -1.414 1.172 -2.559 2.609 -2.559 c 1.441 0 2.605 1.145 2.605 2.559 m 0 -0.004" stroke="none" fill-rule="nonzero" fill-opacity="0.988" fill="#000"/></g></g></g></g><g><g clip-path="url(#clipPath-819078255)"><g transform="translate(0,-1)"><!-- color: #e0491e --><g><path d="m 24.387 19.1 c 0 3.785 -3.195 6.852 -7.125 6.852 c -3.934 0 -7.121 -3.07 -7.121 -6.852 c 0 -3.785 3.191 -6.848 7.121 -6.848 c 3.938 0 7.125 3.063 7.125 6.848 m 0 0" fill="#fff" stroke="none" fill-rule="evenodd" fill-opacity="1"/><path d="m 24.438 28.05 c 0 4.227 -3.23 7.652 -7.219 7.652 c -3.984 0 -7.215 -3.426 -7.215 -7.652 c 0 -4.223 3.23 -7.648 7.215 -7.648 c 3.988 0 7.219 3.426 7.219 7.648 m 0 0" fill="#fff" stroke="none" fill-rule="evenodd" fill-opacity="1"/><path d="m 38 19.5 c 0 4.141 -3.238 7.5 -7.227 7.5 c -3.988 0 -7.227 -3.359 -7.227 -7.5 c 0 -4.145 3.238 -7.504 7.227 -7.504 c 3.988 0 7.227 3.359 7.227 7.504 m 0 0" fill="#fff" stroke="none" fill-rule="evenodd" fill-opacity="1"/><path d="m 37.602 28.348 c 0 4.223 -3.145 7.648 -7.02 7.648 c -3.879 0 -7.02 -3.426 -7.02 -7.648 c 0 -4.227 3.145 -7.652 7.02 -7.652 c 3.879 0 7.02 3.426 7.02 7.652 m 0 0" fill="#fff" stroke="none" fill-rule="evenodd" fill-opacity="1"/><path d="m 16.715 19.578 l 14.801 0 l 0 8.906 l -14.801 0 m 0 -8.906" fill="#fff" stroke="none" fill-rule="nonzero" fill-opacity="0.988"/><path d="m 30.875 16.914 c -1.203 0.02 -2.164 1.027 -2.148 2.254 c 0 1.738 -0.246 2.102 -0.426 2.254 c -0.18 0.148 -1.141 0.496 -3.262 0.496 c -2.199 0 -4.25 -0.242 -6.352 0.598 c -1.051 0.418 -2.098 1.258 -2.711 2.402 c -0.613 1.141 -0.84 2.457 -0.84 3.977 c 0 1.23 0.98 2.23 2.191 2.23 c 1.207 0 2.188 -1 2.188 -2.23 c 0 -1.051 0.176 -1.609 0.297 -1.84 c 0.125 -0.23 0.164 -0.262 0.477 -0.383 c 0.625 -0.25 2.426 -0.293 4.754 -0.293 c 2.434 0 4.41 -0.152 6.03 -1.496 c 1.621 -1.344 2.039 -3.469 2.039 -5.707 c 0.008 -0.602 -0.227 -1.18 -0.645 -1.605 c -0.418 -0.426 -0.988 -0.66 -1.582 -0.652 m -0.008 -0.004" fill="url(#linear0)" stroke="none" fill-rule="nonzero"/><path d="m 30.879 23.711 c -1.203 0.023 -2.164 1.031 -2.148 2.258 l 0 2.617 c 0 1.23 0.98 2.23 2.188 2.23 c 1.211 0 2.191 -1 2.191 -2.23 l -0.004 -2.617 c 0.008 -0.602 -0.227 -1.184 -0.645 -1.605 c -0.418 -0.426 -0.988 -0.66 -1.582 -0.652 m 0 0" fill="#eb5f28" stroke="none" fill-rule="nonzero" fill-opacity="1"/><path d="m 20.348 19.277 c 0 0.676 -0.004 2.559 -0.004 2.559 c 0 0 -1.848 0.008 -2.602 0.008 c -1.441 0 -2.609 -1.148 -2.609 -2.563 c 0 -1.414 1.172 -2.559 2.609 -2.559 c 1.441 0 2.605 1.145 2.605 2.559 m 0 -0.004" fill="#ec622d" stroke="none" fill-rule="nonzero" fill-opacity="0.988"/></g></g></g></g><g><g transform="translate(0,-1004.3622)"><path d="m 1 1043.36 0 4 c 0 2.216 1.784 4 4 4 l 38 0 c 2.216 0 4 -1.784 4 -4 l 0 -4 c 0 2.216 -1.784 4 -4 4 l -38 0 c -2.216 0 -4 -1.784 -4 -4 z" opacity="0.1"/></g></g></svg>