<svg xmlns="http://www.w3.org/2000/svg" viewBox="0 0 48 48">
  <defs>
    <linearGradient id="a" x1="1" x2="47" gradientUnits="userSpaceOnUse" gradientTransform="rotate(-90 24 24)">
      <stop stop-color="#ecc200"/>
      <stop offset="1" stop-color="#ffd401"/>
    </linearGradient>
  </defs>
  <path d="M36.31 5c5.859 4.062 9.688 10.831 9.688 18.5 0 12.426-10.07 22.5-22.5 22.5-7.669 0-14.438-3.828-18.5-9.688a23.24 23.24 0 0 0 3.781 4.969 22.923 22.923 0 0 0 15.469 5.969c12.703 0 23-10.298 23-23a22.92 22.92 0 0 0-5.969-15.469A23.216 23.216 0 0 0 36.31 5zm4.969 3.781A22.911 22.911 0 0 1 47.498 24.5c0 12.703-10.297 23-23 23a22.909 22.909 0 0 1-15.719-6.219C12.939 45.425 18.662 48 24.998 48c12.703 0 23-10.298 23-23 0-6.335-2.575-12.06-6.719-16.219z" opacity=".05"/>
  <path d="M41.28 8.781a22.923 22.923 0 0 1 5.969 15.469c0 12.703-10.297 23-23 23A22.92 22.92 0 0 1 8.78 41.281 22.911 22.911 0 0 0 24.499 47.5c12.703 0 23-10.298 23-23A22.909 22.909 0 0 0 41.28 8.781z" opacity=".1"/>
  <path d="M31.25 2.375C39.865 5.529 46 13.792 46 23.505c0 12.426-10.07 22.5-22.5 22.5-9.708 0-17.971-6.135-21.12-14.75a23 23 0 0 0 44.875-7 23 23 0 0 0-16-21.875z" opacity=".2"/>
  <path d="M24 1c12.703 0 23 10.297 23 23S36.703 47 24 47 1 36.703 1 24 11.297 1 24 1z" fill="url(#a)"/>
  <path d="M12 12v26h26V12" opacity=".1"/>
  <g>
    <path d="M11 11v26h26V11m-25 1h24v24H12m0-24" fill="#b9b095"/>
    <path d="M12 11.996h12v12H12m0-12" fill="#ececd4"/>
    <path d="M24 11.996h12v12H24m0-12" fill="#e5d6ab"/>
    <path d="M12 24h12v12H12m0-12" fill="#ffcf53"/>
    <path d="M24 24h12v12H24m0-12" fill="#ffb95b"/>
    <path d="M22 33h-1v2h-2v-2h-4v-2l3.5-6H21v6h1v2m-3-2v-4l-2 4M21 23h-6v-2c3.117-3.117 4.891-4.234 3.539-5.582-.629-.629-1.336-.113-2.539.582l-1-2c1.77-1.172 3.695-1.324 5 0 2.691 2.73-1.125 5.367-2.559 7H21M30 25c-1.656 0-3 1.344-3 3 0 .773.52 1.469 1 2-.48.531-1 1.227-1 2a3.001 3.001 0 0 0 6 0c0-.773-.52-1.469-1-2 .48-.531 1-1.227 1-2 0-1.656-1.344-3-3-3m0 2c.551 0 1 .449 1 1 0 .551-.664 1-1 1-.336 0-1-.449-1-1 0-.551.449-1 1-1m0 4c.367 0 1 .449 1 1 0 .551-.449 1-1 1-.551 0-1-.449-1-1 0-.551.633-1 1-1m0 0" fill="#957f4c"/>
  </g>
  <g>
    <path d="M40.03 7.531A22.922 22.922 0 0 1 45.999 23c0 12.703-10.297 23-23 23A22.92 22.92 0 0 1 7.53 40.031C11.708 44.322 17.54 47 23.999 47c12.703 0 23-10.298 23-23 0-6.462-2.677-12.291-6.969-16.469z" opacity=".1"/>
  </g>
</svg>
