<svg xmlns="http://www.w3.org/2000/svg" viewBox="0 0 48 48">
  <defs>
    <linearGradient id="a" y1="47" x2="0" y2="1" gradientUnits="userSpaceOnUse">
      <stop stop-color="#98bce4"/>
      <stop offset="1" stop-color="#a8c6e8"/>
    </linearGradient>
  </defs>
  <path d="M36.31 5c5.859 4.062 9.688 10.831 9.688 18.5 0 12.426-10.07 22.5-22.5 22.5-7.669 0-14.438-3.828-18.5-9.688a23.24 23.24 0 0 0 3.781 4.969 22.923 22.923 0 0 0 15.469 5.969c12.703 0 23-10.298 23-23a22.92 22.92 0 0 0-5.969-15.469A23.216 23.216 0 0 0 36.31 5zm4.969 3.781A22.911 22.911 0 0 1 47.498 24.5c0 12.703-10.297 23-23 23a22.909 22.909 0 0 1-15.719-6.219C12.939 45.425 18.662 48 24.998 48c12.703 0 23-10.298 23-23 0-6.335-2.575-12.06-6.719-16.219z" opacity=".05"/>
  <path d="M41.28 8.781a22.923 22.923 0 0 1 5.969 15.469c0 12.703-10.297 23-23 23A22.92 22.92 0 0 1 8.78 41.281 22.911 22.911 0 0 0 24.499 47.5c12.703 0 23-10.298 23-23A22.909 22.909 0 0 0 41.28 8.781z" opacity=".1"/>
  <path d="M31.25 2.375C39.865 5.529 46 13.792 46 23.505c0 12.426-10.07 22.5-22.5 22.5-9.708 0-17.971-6.135-21.12-14.75a23 23 0 0 0 44.875-7 23 23 0 0 0-16-21.875z" opacity=".2"/>
  <path d="M24 1c-2.27 0-4.462.334-6.533.947 1.534 1.053-1.25 2.02-3.205 1.215C6.429 6.829 1 14.779 1 24c0 7.505 3.595 14.169 9.156 18.367C16 45 32 45 39.84 40.668a23.039 23.039 0 0 0 5.494-8.07v-.002c.234-1.595.667-3.594 1.23-4.15h.002c.282-1.438.434-2.923.434-4.443 0-.118-.006-.234-.008-.352h-.002c-.992-.649-.556-1.182-.154-2.348a22.9 22.9 0 0 0-1.014-4.568c-1.826-.738-7.823-7.734-11.1-13.08a22.889 22.889 0 0 0-10.725-2.654z" fill="url(#a)"/>
  <path d="M17 2.906l-.84.25-.969.066-.598.434-.777-.031.063.5 1.125-.031.406 1.094.156.598-.625.348-.25.465.188 1.063.75.125.719-.688.625-.656.969-.25 1.219-.594.723-.875 1.027-1.254.723-.189-.031-.275h-1.125l-3.469-.096zm9.971.48c-.055.02-1.531.021-1.531.021l-.375.1.5.598.531-.5.344.219.5-.25s.09-.211.031-.187zm6 .461l-.379.004-.465.063-.41.25-.465.35-.281.5.438.438.375.031.156-.254-.375-.314.219-.188.031-.152.469-.313s.609.008.652 0c.047-.012.191-.191.191-.191zm3.104.576l-.266.178-.621.375-.531.438.064.189-.281.031v.004l-4.082.68.016-.012-1.217.654-.313-.223-.152-.25.063-.254.691.035.313-.125-.625-.314-.875-.314-.875-.156-.938.191-.969.779-.439.439-.65.719-.258.031-.092.344.121.344s.137.156.156.156c.02 0 .254-.125.254-.125s.023-.117.156-.156c.129-.039.25-.063.25-.063l.188.375.225.313.094.25s.363-.223.375-.25c.012-.031.031-.41.031-.41l.275-.188s.074-.133.066-.156a3.946 3.946 0 0 0-.191-.219l-.15-.063.063-.316s.121-.051.121-.094c0-.039.191-.189.191-.189l.223-.275.156-.189.219-.156.25.189v.125l-.219.25-.066.25v.344l.191.156.344-.031.314-.063.275.154-.063.221s-.195.188-.258.219c-.055.031-.406-.063-.492-.031-.094.031-.316.316-.316.316s-.027.25 0 .313c.008.022-.004.068-.016.123l-.029.023-.375.279h-.031l-.254-.094s-.152.008-.219.066c-.063.051-.119.102-.313.121-.191.02-.565 0-.596 0h-.219l.031-.229.154-.25-.279-.223s-.188.23-.191.281c-.008.055.125.279.125.279s-.063.182-.094.221c-.031.039-.316.125-.316.125l-.434-.221s-.18-.038-.156.064c.023.102.225.195.225.281 0 .082-.125.273-.125.273l-.152.189-.254.254-.344.09s-.246.07-.316.094c-.063.023-.25.066-.25.066l-.254.031-.152.223.277.191.188.309s.125.223.156.223.094.221.094.221l-.188.25h-.098l-.656.125-.121-.281-.439.438-8.201 12.09-.842-.486-.273-.656s-.473-.809-.566-.809c-.09 0-.656.029-.656.029l-.527-.529-.348-.656-1.344-.281-.434-.219h-.875l-.002.008-.814.441-.094.9-.189 1-.563.75.027 1.121.473 1.156.5 1.406 1.313 1.313.064.75.09 3.379.469 1.906s.291 1.102.221 1.191c-.066.086.379.9.379.9l.875 1.375 1.219.531-.5-.598-.254-.689.254-.719-.656-.344s.438-.285.5-.375c.066-.09-.094-.469-.094-.469l-.189-.469.5-.652.781-.191.121-.598-.465-.219.188-.5.75-.09.656-1.598.402-.941c.284 2.152 1.414 6.428 5.904 6.428h12c6 0 6-7.637 6-7.637v-10.91c0-.37-.031-.71-.082-1.031l.047.043.408.563.121.277h.281l.094-.311.092.467.154.844.346.813.188.689.281.654.219.277.314-.188.09-.314.125-.775-.031-.688.25-.316s.266-.359.313-.375c.051-.012.625-.65.625-.65l.281-.35.314-.188.383-.219h.145l.066.344.156.406.5.65v.25l.09.281.344-.156-.031-.375.316.066.063.344-.027.531.094.375.277.064.094-.314.344.219.064.316.313.469.314.344.219.191.531-.469.219-.441-.09-.5-.094-.656-.596-.563-.094-.566.254-.396s.158-.32.311-.156c.152.168.225.188.154.375-.066.184-.188.598-.188.598l.375.156.156-.531-.156-.379.279-.115A23.038 23.038 0 0 0 36.076 4.419m-5.701 1.883l-.004.006 4.092-.695-.031-.156-.314-.438-.652-.063s.152.664.152.75c0 .082-.434.023-.434.023l-.75.035s-1.086.25-1.223.25c-.129 0-.762.262-.809.281zM11.748 4.874c-.133.09-.475.063-.475.063l-.059-.061c-.175.117-.346.241-.518.363l.148.326.564-.063.25.469-.5.531-.563.063.5.223.531.465.525.125.191-.719.031-.438.625.094s-.193.313-.1.313c.102 0 .475-.406.475-.406l-1.066-1.098s-.438-.344-.563-.25zm-1.221.795l-.438.5-.279-.268c-.419.329-.828.669-1.223 1.025.361.099.797.272.877.215.129-.094.625-.875.625-.875zm9.1.715l-.125.406c.449.348.625.344.625.344l.527-.125.348-.344-.223-.281zm-8.875.785s-.43.25-.844.406c-.414.156-.313.469-.313.469l-.031.844-.688.563-.439.656s-.275-.187-.275-.312-.064-.469-.064-.469l-.721-.563s-.178-.139-.348-.283a22.975 22.975 0 0 0-4.74 7.941l.529-.369.564-.191h.811l1.121-.25.41.531-.066.625.469.406.066-.441s-.031-.719-.094-.906c-.063-.188.563-.625.563-.625l.5-.613.596-.727.279-.563.941-.496.621-.691s.938-.148 1.125-.254c.191-.09.066-.434-.125-.75-.191-.313.094-.625.094-.625l.719-.434.621.121.066.754s.586.563.777.465c.191-.09.279-.406.279-.406l-.313-.813.188-.812-.844.121V8.103l-.25.254-.656.031-.094-.688zm11.652.996l-.25.219c-.063.305-.152.621-.152.621l.473.223.064.277-.256.254-.219.375.156.156.563-.094.5-.219-.275-.375-.094-.656-.346-.375zm-.77 1.184l-.281.469.375.156.156-.281zM6.189 10.441l.004.006.656.277.438.566.275.434s-.245.844-.313 1c-.066.156-.258-.313-.258-.313l-.148-.814-.531.225-.406.967.092-.813.125-.563-.654-.25.563-.531zm26.383.756c.133-.043.375.154.375.154l-.254.221.096.314.279.75.277.469.26.408a7.547 7.547 0 0 0-.928-.283l-.113-.34s-.299-.406-.439-.469c-.133-.066-.25-.281-.25-.281l.125-.531s.428-.359.564-.406zm-3.955.074l.564.096.094.314.219.156.25-.221-.156-.346h.656l-.219.375.438.375.375.189.219.438-.5.121-.719-.156h-.625c-.29.21-.688.263-1.066.217.043-.151.025-.378.066-.398l.25-.469zm-3.066.283l.75.75.379.441c.043.594-.431.024-.502.027l-1.066-1 .096-.188zm-.879.285c1.138 1.18.747 1.533-.004.545-.556.739-2.37 1.254-1.186-.201l.969-.156zM2.117 16.925a22.843 22.843 0 0 0-.662 2.539l.432.24.5-.066.719.344 1.094.6.156.725.875.84.5-.375.406.316-.063-.727-.781.191-.25-.906-.094-.41-.691-.621v-.438l.531-.566-.344-.398-.563.09-.846.844-.688-.09s-.313-.531-.375-.656c-.063-.125.188-.563.188-.563zm3.326.863v.004l-.314.156.527.279.604.121.344.469.406-.25-.066-.279-.689-.5zm38.12 3.586c.113.129.816 2.219.91 2.219.086 0 .621.066.621.066l-.281-.846zm-3.59.064l-.314.406.156.598.344-.375-.063-.473zm3.504 1.156l-.439.064 2 3 .531.594 1.311.064.01.004c.01-.102.015-.205.023-.307l-.094-.066-1.25-.35-.314-1.15-.688-.566-1.094-1.281zm3.496.17l-.375.207c0 .09-.719.688-.719.688l.188.625.406.467.281.689.213-.139c.024-.433.039-.868.039-1.307 0-.413-.012-.823-.033-1.23zM12.506 36.93l.002.004.004-.004zm.002.004l-.217.148-.094.029.5.25zm-.85.18l.002.004.002-.004zm.002.004l-.217.496.434-.094zm1.502 4.121l-.469.719 1.596 1.473.031-.063s-.656-1.32-.656-1.5c0-.176-.5-.621-.5-.621z" opacity=".1"/>
  <path d="M17.467 1.947a22.807 22.807 0 0 0-3.404 1.305l.348.936.156.598-.625.346-.25.465.188 1.063.75.125.719-.688.625-.656.969-.25 1.219-.594.721-.875 1.029-1.254.721-.189-.031-.275h-1.125l-2.01-.055zm8.502.439c-.055.02-1.531.023-1.531.023l-.375.098.5.598.531-.5.344.219.5-.25s.09-.211.031-.188zm6 .461l-.379.004-.465.063-.41.25-.465.35-.281.5.438.438.375.031.156-.254-.375-.314.219-.188.031-.152.469-.313s.609.008.652 0c.047-.012.191-.191.191-.191l-.156-.223zm2.752.807l-.535.322-.531.438.064.189-.281.031v.004h-.002l-.008-.178-.314-.438-.654-.063s.154.664.154.75c0 .082-.434.025-.434.025l-.75.035s-1.086.25-1.223.25c-.128 0-.786.272-.842.295l-.01.002.018-.014-1.219.656-.313-.223-.152-.25.063-.254.691.035.313-.125-.625-.314-.875-.314-.875-.156-.938.191-.969.779-.439.439-.65.719-.258.031-.092.344.121.344s.137.156.156.156c.02 0 .254-.125.254-.125s.023-.117.156-.156c.129-.039.25-.063.25-.063l.188.375.225.313.094.25s.363-.223.375-.25c.012-.031.031-.41.031-.41l.275-.188s.074-.133.066-.156a3.946 3.946 0 0 0-.191-.219l-.15-.063.063-.316s.121-.051.121-.094c0-.039.191-.189.191-.189l.223-.275.156-.189.219-.156.25.189v.125l-.219.25-.066.25v.344l.191.156.344-.031.313-.063.277.154-.063.221s-.195.188-.258.219c-.055.031-.406-.063-.492-.031-.094.031-.316.316-.316.316s-.027.249 0 .313c.008.022-.004.068-.016.123l-.029.023-.375.279h-.031l-.254-.094s-.152.008-.219.066c-.063.051-.12.102-.313.121-.191.02-.565 0-.596 0h-.219l.031-.227.156-.25-.281-.223s-.188.23-.191.281c-.008.055.125.279.125.279s-.063.182-.094.221c-.031.039-.316.125-.316.125l-.434-.221s-.18-.038-.156.064c.023.102.225.195.225.281 0 .082-.125.275-.125.275l-.152.189-.254.254-.344.09s-.246.07-.316.094c-.063.023-.25.066-.25.066l-.254.031-.152.223.277.191.188.309s.125.223.156.223.094.219.094.219l-.188.25h-.098l-.656.125-.121-.281-.439.438-.188.721v.598c.592.479.734.292 1.348.186l.594-1.064.531-.652.969-.156.221-.188 1.094 1.281.125.438.316-.156-.1-.375h.191l-.121-.254-1.066-1 .096-.188.344-.031.75.75.379.441v.688l.188.125c1.027.78.154-.088.5-.285l.094-.344.188-.219.439.156.154.063-.029-.5.25-.469.154-.689.564.096.094.313.219.156.25-.219-.156-.346h.656l-.219.375.438.375.375.189.219.438-.5.121-.719-.156h-.625l-.594.316-.125.188-.434.094.188.469.344.406.621-.219c.059.516.275.037.438.059l.375.063c.84 2.398 4.452 2.977 6.402 2.928l-.031.035.564.5.408.563.121.277h.281l.094-.311.092.467.154.844.346.813.188.688.281.656.219.277.313-.188.09-.314.125-.775-.031-.689.25-.316s.265-.359.313-.375c.051-.012.625-.65.625-.65l.281-.35.314-.188.383-.219h.145l.066.344.156.406.5.652v.25l.09.281.344-.156-.031-.375.316.066.063.344-.027.531.094.375.277.064.094-.314.344.219.064.316.313.469.313.344.219.191.531-.469.219-.441-.09-.5-.094-.656-.594-.563-.094-.566.254-.398s.156-.32.309-.156c.152.168.227.188.156.375-.066.184-.188.598-.188.598l.375.156.156-.531-.156-.379.379-.156.512-.256a23.042 23.042 0 0 0-11.1-13.08zm-23 .898c-.593.375-1.168.775-1.723 1.201l.104.047.531.465.527.125.191-.719.031-.438.625.094s-.193.313-.1.313c.102 0 .475-.406.475-.406l-.662-.682zm6.906.846l-.125.406c.449.348.625.344.625.344l.527-.125.348-.344-.223-.281h-1.152zm-8.871.773s-.33.183-.684.334c-.159.136-.318.27-.473.41a1.25 1.25 0 0 0 0 .131l-.031.844-.688.563-.439.656s-.275-.188-.275-.313a2.94 2.94 0 0 0-.057-.406 23.29 23.29 0 0 0-1.207 1.416l.387.498.275.434s-.246.844-.313 1c-.066.156-.258-.313-.258-.313l-.148-.814-.531.225-.406.965.086-.76a22.933 22.933 0 0 0-2.107 3.82h.309l1.121-.25.41.531-.066.625.469.406.066-.441s-.031-.719-.094-.906c-.063-.188.563-.625.563-.625l.5-.613.594-.727.281-.563.941-.496.621-.691s.938-.148 1.125-.254c.191-.09.066-.434-.125-.75-.191-.313.094-.625.094-.625l.719-.434.621.121.066.754s.586.563.777.465c.191-.09.279-.406.279-.406l-.313-.813.188-.811-.844.121V7.104l-.25.254-.656.031-.094-.688-.434-.531zm11.648 1.01l-.25.219c-.063.305-.152.621-.152.621l.473.223.064.277-.256.254-.219.375.156.156.563-.094.5-.219-.275-.375-.094-.656-.346-.375-.164-.406zm-.77 1.184l-.281.469.375.156.156-.281-.25-.344zm10.938 1.848c.133-.043.375.154.375.154l-.254.221.096.313.279.75.277.469.379.594-.41.191-.531-.344-.219-.656s-.299-.406-.439-.469c-.133-.066-.25-.281-.25-.281l.125-.531s.428-.359.564-.406l.008-.004zm-7.904 1.188l-.375.719.275.281.254-.223.031-.309-.186-.469zM4.443 16.805v.004l-.313.156.527.279.602.121.344.469.406-.25-.066-.279-.688-.5h-.813zm-.998.41l-.563.09-.844.844-.277-.037c-.056.211-.106.424-.156.637l.5.238 1.094.598.156.725.875.84.5-.375.406.316-.063-.725-.781.191-.25-.906-.094-.41-.691-.621v-.438l.531-.566-.344-.4zm2.684 2.68l-.002.008-.813.441-.094.9-.189 1-.563.75.027 1.121.473 1.156.5 1.406 1.313 1.313.064.75.09 3.379.469 1.906s.289 1.102.219 1.191c-.066.086.379.902.379.902l.875 1.375 1.219.531-.5-.598-.254-.689.254-.719-.656-.344s.438-.285.5-.375c.066-.09-.094-.469-.094-.469l-.188-.469.5-.652.781-.191.121-.598-.465-.219.188-.5.75-.09.656-1.598.469-1.094c1.462-.858 3.521-5.873.346-5.625l-1.35-.781-.275-.656s-.473-.809-.566-.809c-.09 0-.656.029-.656.029l-.527-.529-.348-.656-1.344-.281-.434-.219h-.875zm36.434.496c.113.129.816 2.219.91 2.219.086 0 .621.066.621.066l-.281-.846-1.25-1.439zm-3.59.064l-.314.406.156.598.344-.375-.064-.473-.121-.156zm7.859.848l-1.238.686c0 .09-.719.688-.719.688l.188.625.406.465.281.691 1.238-.807a23.314 23.314 0 0 0-.156-2.348zm-4.359.309l-.439.064 2 3 .531.594 1.311.064.813.256-.875-.625-1.25-.35-.313-1.15-.689-.566-1.094-1.281.006-.006zm4.088 6.834c-.107.028-.181.056-.188.078-.02.086-.563.375-.563.375-.113 0-.469.656-.469.656l-.066 2.063-.125.75.18.23a22.827 22.827 0 0 0 1.232-4.152h-.002zm-35.07 7.51l.002.004.004-.004h-.006zm.002.004l-.217.148-.094.031.5.25-.189-.43zm-.85.18l.002.004.002-.004h-.004zm.002.004l-.217.496.434-.094-.217-.402zm1.502 4.121l-.469.719-.875.406.5.625-.754.375-.398-.02a22.896 22.896 0 0 0 13.844 4.633 22.916 22.916 0 0 0 15.84-6.332l-2.627.1-3.064.621s-1.477.793-1.656.754c-.18-.043.625-1.031.625-1.031l-1.438.094-.906-.75-.906.617s-1.213.098-1.525.098c-.316 0-.725.563-.725.563l-2.469-.09-4.25.188-1.121.967-.275.033-3.225-.223-2.219.223-.777-.379.031-.063s-.656-1.32-.656-1.5c0-.176-.5-.621-.5-.621l-.004-.006z" fill="#3875ae"/>
  <g>
    <path d="M35.432 15.93l-.031.035.564.5.408.563.121.277h.281l.066-.217C35.926 13.015 30.999 13 30.999 13c.963 2 .682 3 4.432 2.93z" fill-opacity=".098"/>
  </g>
  <g>
    <path d="M40.03 7.531A22.922 22.922 0 0 1 45.999 23c0 12.703-10.297 23-23 23A22.92 22.92 0 0 1 7.53 40.031C11.708 44.322 17.54 47 23.999 47c12.703 0 23-10.298 23-23 0-6.462-2.677-12.291-6.969-16.469z" opacity=".1"/>
  </g>
  <g>
    <path d="M12 28.363s0 5.653 6 5.653h12c6 0 6-5.653 6-5.653v-10.91C36 12 30 12 30 12H18c-6 0-6 5.453-6 5.453" fill="#f6f6f6"/>
    <path d="M30 36c6 0 6-7.637 6-7.637s0 5.453-6 5.453H18c-6 0-6-5.453-6-5.453S12 36 18 36m12 0" fill="#dcdcdc"/>
    <path d="M23.898 27.867l-1.285-3.125H18.48l-1.27 3.125h-1.211L20.073 18h1.012l4.055 9.867h-1.242m-1.656-4.156l-1.199-3.043a15.605 15.605 0 0 1-.48-1.418c-.105.43-.25.902-.445 1.418l-1.211 3.043h3.336M31.13 27.867l-.234-1.051h-.055c-.387.461-.77.777-1.156.941-.383.16-.859.242-1.434.242-.766 0-1.367-.188-1.805-.566-.43-.375-.648-.91-.648-1.605 0-1.484 1.25-2.266 3.746-2.336l1.313-.043v-.457c0-.578-.133-1-.395-1.277-.262-.277-.676-.414-1.246-.414-.648 0-1.371.188-2.191.563l-.359-.852a5.98 5.98 0 0 1 1.25-.465c.457-.113.91-.168 1.367-.168.922 0 1.605.195 2.047.586.445.387.668 1.012.668 1.875v5.03h-.859m-2.648-.789c.73 0 1.301-.188 1.715-.57.418-.379.625-.914.625-1.598v-.668l-1.168.047c-.934.031-1.602.172-2.02.418-.406.242-.613.621-.613 1.137 0 .402.129.711.383.918.258.211.617.316 1.078.316" fill="#868686"/>
    <path d="M23.898 27.867l-1.285-3.125H18.48l-1.27 3.125h-1.211L20.073 18h1.012l4.055 9.867h-1.242m-1.656-4.156l-1.199-3.043a15.605 15.605 0 0 1-.48-1.418c-.105.43-.25.902-.445 1.418l-1.211 3.043h3.336M31.13 27.867l-.234-1.051h-.055c-.387.461-.77.777-1.156.941-.383.16-.859.242-1.434.242-.766 0-1.367-.188-1.805-.566-.43-.375-.648-.91-.648-1.605 0-1.484 1.25-2.266 3.746-2.336l1.313-.043v-.457c0-.578-.133-1-.395-1.277-.262-.277-.676-.414-1.246-.414-.648 0-1.371.188-2.191.563l-.359-.852a5.98 5.98 0 0 1 1.25-.465c.457-.113.91-.168 1.367-.168.922 0 1.605.195 2.047.586.445.387.668 1.012.668 1.875v5.03h-.859m-2.648-.789c.73 0 1.301-.188 1.715-.57.418-.379.625-.914.625-1.598v-.668l-1.168.047c-.934.031-1.602.172-2.02.418-.406.242-.613.621-.613 1.137 0 .402.129.711.383.918.258.211.617.316 1.078.316" fill="#868686"/>
  </g>
</svg>
