<svg xmlns="http://www.w3.org/2000/svg" viewBox="0 0 48 48">
  <defs>
    <linearGradient id="a" y1="47" x2="0" y2="1" gradientUnits="userSpaceOnUse">
      <stop stop-color="#735739"/>
      <stop offset="1" stop-color="#806140"/>
    </linearGradient>
  </defs>
  <path d="M36.31 5c5.859 4.062 9.688 10.831 9.688 18.5 0 12.426-10.07 22.5-22.5 22.5-7.669 0-14.438-3.828-18.5-9.688a23.24 23.24 0 0 0 3.781 4.969 22.923 22.923 0 0 0 15.469 5.969c12.703 0 23-10.298 23-23a22.92 22.92 0 0 0-5.969-15.469A23.216 23.216 0 0 0 36.31 5zm4.969 3.781A22.911 22.911 0 0 1 47.498 24.5c0 12.703-10.297 23-23 23a22.909 22.909 0 0 1-15.719-6.219C12.939 45.425 18.662 48 24.998 48c12.703 0 23-10.298 23-23 0-6.335-2.575-12.06-6.719-16.219z" opacity=".05"/>
  <path d="M41.28 8.781a22.923 22.923 0 0 1 5.969 15.469c0 12.703-10.297 23-23 23A22.92 22.92 0 0 1 8.78 41.281 22.911 22.911 0 0 0 24.499 47.5c12.703 0 23-10.298 23-23A22.909 22.909 0 0 0 41.28 8.781z" opacity=".1"/>
  <path d="M31.25 2.375C39.865 5.529 46 13.792 46 23.505c0 12.426-10.07 22.5-22.5 22.5-9.708 0-17.971-6.135-21.12-14.75a23 23 0 0 0 44.875-7 23 23 0 0 0-16-21.875z" opacity=".2"/>
  <path d="M24 1C16.16 1 8.86 5.01 4.645 11.621h.076c12.785 11.443 28.625 10.242 40.502 3.564A23 23 0 0 0 24.003.999M45.56 31.935C31.47 25.001 18.704 26.41 4.2 35.654A23.001 23.001 0 0 0 23.999 47a22.996 22.996 0 0 0 21.557-15.06" fill="url(#a)" fill-rule="evenodd"/>
  <path d="M45.938 30.969c-14.813-3.398-27.24-2.303-42.03 4.189.3.54.627 1.05.969 1.563.049-.009.074-.022.125-.031.813-.152 1.895-.358 2.875-.563.984-.207 1.945-.433 2.719-.594.473-.102.633-.133.906-.188.148.125.332.195.531.281.391.176.949.25 1.5.281.211.102.445.211.625.219.289.016.566-.047.875-.094a15.32 15.32 0 0 0 2.063-.469 18.138 18.138 0 0 0 2.031-.719c.297-.125.59-.242.813-.375.082-.047.148-.136.219-.188.434.035.805.081 1.313.063.699-.023 1.555-.102 2.344-.125 1.574-.043 3.113.074 3.844.469a.82.82 0 0 0 .406.125c.441-.008.988-.078 1.625-.188.633-.105 1.336-.262 2.031-.375a20.85 20.85 0 0 1 1.813-.219c.23-.012.367-.008.438 0 .227.16.563.199.844.094h.031c.688.328 1.563.444 2.375.438.406 0 .785-.039 1.156-.156.273-.086.52-.254.688-.5.445-.25.75-.516.906-.75 1.352-.168 2.945-.156 4.406-.156.284 0 .539.002.813 0 .281-.66.531-1.341.75-2.031z" opacity=".1"/>
  <path d="M4.625 11.625A22.932 22.932 0 0 0 1 24a22.91 22.91 0 0 0 3.188 11.656c.791-.149 1.771-.34 2.688-.531.984-.207 1.945-.433 2.719-.594.473-.102.633-.133.906-.188.148.125.332.195.531.281.391.176.949.25 1.5.281.211.102.445.211.625.219.289.016.566-.047.875-.094a15.32 15.32 0 0 0 2.063-.469 18.138 18.138 0 0 0 2.031-.719c.297-.125.59-.242.813-.375.082-.047.148-.136.219-.188.434.035.805.081 1.313.063.699-.023 1.555-.102 2.344-.125 1.574-.043 3.113.074 3.844.469a.82.82 0 0 0 .406.125c.441-.008.988-.078 1.625-.188.633-.105 1.336-.262 2.031-.375a20.85 20.85 0 0 1 1.813-.219c.23-.012.367-.008.438 0 .227.16.563.199.844.094h.031c.688.328 1.563.444 2.375.438.406 0 .785-.039 1.156-.156.273-.086.52-.254.688-.5.445-.25.75-.516.906-.75 1.352-.168 2.945-.156 4.406-.156.769.002 1.504-.006 2.188-.063a22.916 22.916 0 0 0 1.438-7.938c0-3.126-.621-6.096-1.75-8.813-.001-.004-.03.004-.031 0-.449.027-1.012.034-1.594.063-.586.031-1.172.094-1.656.125-.246.02-.473.012-.656.031-.145.02-.227.059-.375.094-.012.004-.086 0-.094 0-.379.047-.825-.117-1.563-.438-.758-.324-1.727-.813-2.875-1.156-.059-.016-.12-.023-.188-.031-1.297-.086-2.598.336-3.906.625-1.305.293-2.527.449-3.469.156a1.06 1.06 0 0 0-.469 0c-1.102.188-2.156-.047-3.219-.406-.984-.332-1.93-.781-2.813-1.031-.066-.035-.152-.031-.219-.063-1.922-.871-4.449-.863-6.25-.344-2.594-.449-5.727-.918-8.813-1.094a70.835 70.835 0 0 0-2.344-.094c-.032-.001-.062.001-.094 0z" fill="#aba19a"/>
  <path d="M3.781 13.06A22.908 22.908 0 0 0 1 23.998c0 4.049 1.069 7.851 2.906 11.156 2.239.142 6.507-.255 7.344-.875.344-.254 1.754-.148 2.063-.375.051-.039 5.273-.535 5.969-.594 2.066-.18 5.05-.294 7 .188.328.082 6.06-.508 6.438-.563.746-.113 1.609-.074 2.375-.188.605-.09 1.203-.504 1.813-.594.617-.094 1.739.211 2.313 0 2.05-.758 4.838-.562 6.719-1.188a23.017 23.017 0 0 0-.312-14.75c-1.164-.109-2.806-.214-3.781-.5-1.414-.418-3.364-.871-4.938-1-2.82-.234-5.727.005-8.563-.188-2.465-.168-4.848-.457-7.25-.75-1.832-.227-3.863.105-5.719 0-3.621-.205-7.715-.648-11.594-.719z" fill="#c6935f"/>
  <path d="M32.91 17a1.004 1.004 0 0 0-.914 1.02.998.998 0 0 0 1.012.98h3c1.113 0 2 .883 2 1.996a1.986 1.986 0 0 1-1.941 2h-3.059a1 1 0 0 0-1.012 1.02c0 .266.105.523.301.711a.975.975 0 0 0 .711.289H36.005c1.117 0 2 .883 2 2a1.983 1.983 0 0 1-1.941 1.996h-3.059a1 1 0 0 0-1.016 1.02v.09c.059.516.496.898 1.016.891h2.996c.066 0 .137-.004.203-.016 2.102-.105 3.793-1.855 3.793-3.98a3.993 3.993 0 0 0-1.355-3 3.967 3.967 0 0 0 1.355-3 4.017 4.017 0 0 0-3.918-4h-3.172m-11.984 2.992a.998.998 0 0 0-.926 1.012v2.141c-1.715.449-3 2.01-3 3.859-.012.516.375.957.895 1.016h.094a.985.985 0 0 0 .719-.293.983.983 0 0 0 .293-.723c0-1.074.82-1.922 1.875-1.984h.235c1.063.063 1.887.906 1.887 1.984 0 .551.449.996 1 .996.551 0 1-.445 1-.996 0-1.852-1.281-3.41-3-3.859v-2.141a.978.978 0 0 0-.309-.742 1.006 1.006 0 0 0-.758-.27m-11.918.012c-.559 0-1 .445-1 1 0 .41.238.77.594.922a3.928 3.928 0 0 0-.594 2.074c0 2.199 1.805 4 3.996 4 2.195 0 4-1.801 4-4 0-.758-.227-1.469-.598-2.074a1.005 1.005 0 0 0-.402-1.922m13.992 0c-.555 0-1 .445-1 1v6c0 .551.445.996 1 .996.555 0 1-.445 1-.996v-6c0-.555-.445-1-1-1m-16.992 2c1.113 0 2 .883 2 1.996 0 1.117-.887 2-2 2a1.983 1.983 0 0 1-1.996-2c0-1.113.883-1.996 1.996-1.996m0 0" fill="#f9f9f9"/>
  <g>
    <path d="M40.03 7.531A22.922 22.922 0 0 1 45.999 23c0 12.703-10.297 23-23 23A22.92 22.92 0 0 1 7.53 40.031C11.708 44.322 17.54 47 23.999 47c12.703 0 23-10.298 23-23 0-6.462-2.677-12.291-6.969-16.469z" opacity=".1"/>
  </g>
</svg>
