<svg viewBox="0 0 48 48" xmlns="http://www.w3.org/2000/svg" xmlns:xlink="http://www.w3.org/1999/xlink">
 <defs>
  <linearGradient id="linearGradient3239" x1="40.26" x2="7.737" y1="7.737" y2="40.26" gradientUnits="userSpaceOnUse">
   <stop style="stop-color:#ffa569" offset="0"/>
   <stop style="stop-color:#f95" offset="1"/>
  </linearGradient>
 </defs>
 <path d="m36.31 5c5.859 4.062 9.688 10.831 9.688 18.5 0 12.426-10.07 22.5-22.5 22.5-7.669 0-14.438-3.828-18.5-9.688 1.037 1.822 2.306 3.499 3.781 4.969 4.085 3.712 9.514 5.969 15.469 5.969 12.703 0 23-10.298 23-23 0-5.954-2.256-11.384-5.969-15.469-1.469-1.475-3.147-2.744-4.969-3.781zm4.969 3.781c3.854 4.113 6.219 9.637 6.219 15.719 0 12.703-10.297 23-23 23-6.081 0-11.606-2.364-15.719-6.219 4.16 4.144 9.883 6.719 16.219 6.719 12.703 0 23-10.298 23-23 0-6.335-2.575-12.06-6.719-16.219z" style="opacity:.05"/>
 <path d="m41.28 8.781c3.712 4.085 5.969 9.514 5.969 15.469 0 12.703-10.297 23-23 23-5.954 0-11.384-2.256-15.469-5.969 4.113 3.854 9.637 6.219 15.719 6.219 12.703 0 23-10.298 23-23 0-6.081-2.364-11.606-6.219-15.719z" style="opacity:.1"/>
 <path d="m31.25 2.375c8.615 3.154 14.75 11.417 14.75 21.13 0 12.426-10.07 22.5-22.5 22.5-9.708 0-17.971-6.135-21.12-14.75a23 23 0 0 0 44.875-7 23 23 0 0 0-16-21.875z" style="opacity:.2"/>
 <g transform="matrix(.70711 -.70711 .70711 .70711 -9.9411 24)" style="fill:#f95">
  <path d="m24 1c12.703 0 23 10.297 23 23s-10.297 23-23 23-23-10.297-23-23 10.297-23 23-23z" style="fill:url(#linearGradient3239)"/>
 </g>
 <path d="m40.03 7.531c3.712 4.084 5.969 9.514 5.969 15.469 0 12.703-10.297 23-23 23-5.954 0-11.384-2.256-15.469-5.969 4.178 4.291 10.01 6.969 16.469 6.969 12.703 0 23-10.298 23-23 0-6.462-2.677-12.291-6.969-16.469z" style="opacity:.1"/>
 <path d="m29.09 13c-3.534 0.022-7.409 2.128-10.688 5.406-5.245 5.245-7.496 12-3 16.5 2.248 2.248 6 2.998 8.25 0.75 2.248-2.248 0.785-4.068 1.5-6 0.388-1.048 0.71-2.21 1.5-3s1.952-1.112 3-1.5c1.932-0.715 3.752 0.748 6-1.5s1.498-6-0.75-8.25c-1.686-1.686-3.692-2.419-5.813-2.406z" style="opacity:.1"/>
 <path d="m17.408 17.408c-5.245 5.245-7.493 11.989-2.997 16.485 2.248 2.248 5.995 2.997 8.243 0.749s0.784-4.063 1.499-5.995c0.388-1.048 0.709-2.207 1.499-2.997s1.95-1.111 2.997-1.499c1.932-0.715 3.747 0.749 5.995-1.499s1.499-5.995-0.749-8.243c-4.496-4.496-11.24-2.248-16.485 2.997z" style="fill:#dbe2e3"/>
 <path transform="matrix(.79617 -.79617 .74378 .74378 -15.49 24.038)" d="m22 25.718a4 4.282 0 1 1-8 0 4 4.282 0 1 1 8 0z" style="fill:#374548"/>
 <path transform="matrix(.79617 -.79617 .74378 .74378 -4.6243 13.172)" d="m22 25.718a4 4.282 0 1 1-8 0 4 4.282 0 1 1 8 0z" style="fill:#374548"/>
 <path d="m21.904 23.403 1.499-1.499c0.415-0.415 1.084-0.415 1.499 0s0.415 1.084 0 1.499l-1.499 1.499c-0.415 0.415-1.084 0.415-1.499 0s-0.415-1.084 0-1.499z" style="fill:#374548"/>
 <path d="m14.598 26.21 0.749-0.749 2.248 2.248-0.749 0.749z" style="fill:#ccc"/>
 <path d="m20.593 25.463 0.749 0.749-2.248 2.248-0.749-0.749z" style="fill:#ccc"/>
 <path d="m21.342 31.458-0.749 0.749-2.248-2.248 0.749-0.749z" style="fill:#ccc"/>
 <path d="m15.347 32.21-0.749-0.749 2.248-2.248 0.749 0.749z" style="fill:#ccc"/>
 <path id="path3117" transform="matrix(1.2968 -1.2968 .93667 .93667 -35.728 35.68)" d="m32.445 23a0.722 1 0 1 1-1.445 0 0.722 1 0 1 1 1.445 0z" style="fill:#c83737"/>
 <use transform="matrix(0 1 -1 0 46.795 -10.856)" width="48" height="48" xlink:href="#path3117"/>
 <use transform="matrix(-1 0 0 -1 57.71 35.979)" width="48" height="48" xlink:href="#path3117"/>
 <use transform="matrix(0 -1 1 0 10.865 46.805)" width="48" height="48" xlink:href="#path3117"/>
</svg>
