<svg xmlns="http://www.w3.org/2000/svg" viewBox="0 0 48 48">
  <defs>
    <linearGradient id="a" x1="1" x2="47" gradientUnits="userSpaceOnUse" gradientTransform="rotate(-90 24 24)">
      <stop stop-color="#e4e4e4"/>
      <stop offset="1" stop-color="#eee"/>
    </linearGradient>
  </defs>
  <path d="M36.31 5c5.859 4.062 9.688 10.831 9.688 18.5 0 12.426-10.07 22.5-22.5 22.5-7.669 0-14.438-3.828-18.5-9.688a23.24 23.24 0 0 0 3.781 4.969 22.923 22.923 0 0 0 15.469 5.969c12.703 0 23-10.298 23-23a22.92 22.92 0 0 0-5.969-15.469A23.216 23.216 0 0 0 36.31 5zm4.969 3.781A22.911 22.911 0 0 1 47.498 24.5c0 12.703-10.297 23-23 23a22.909 22.909 0 0 1-15.719-6.219C12.939 45.425 18.662 48 24.998 48c12.703 0 23-10.298 23-23 0-6.335-2.575-12.06-6.719-16.219z" opacity=".05"/>
  <path d="M41.28 8.781a22.923 22.923 0 0 1 5.969 15.469c0 12.703-10.297 23-23 23A22.92 22.92 0 0 1 8.78 41.281 22.911 22.911 0 0 0 24.499 47.5c12.703 0 23-10.298 23-23A22.909 22.909 0 0 0 41.28 8.781z" opacity=".1"/>
  <path d="M31.25 2.375C39.865 5.529 46 13.792 46 23.505c0 12.426-10.07 22.5-22.5 22.5-9.708 0-17.971-6.135-21.12-14.75a23 23 0 0 0 44.875-7 23 23 0 0 0-16-21.875z" opacity=".2"/>
  <path d="M24 1c12.703 0 23 10.297 23 23S36.703 47 24 47 1 36.703 1 24 11.297 1 24 1z" fill="url(#a)"/>
  <g opacity=".1">
    <path d="M18.328 19c-1.66 0-3.273.629-4.461 1.742C12.679 21.859 12 23.406 12 25c0 1.594.684 3.137 1.867 4.25 1.172 1.102 2.762 1.727 4.402 1.738v.004h.059a6.482 6.482 0 0 0 4.695-1.676c.797-.723 1.406-1.57 1.977-2.438.57.867 1.18 1.715 1.977 2.438 1.156 1.039 2.734 1.758 4.695 1.676h.055v-.004c1.641-.016 3.234-.637 4.406-1.738C37.321 28.133 38 26.594 38 25c0-1.594-.684-3.145-1.867-4.258A6.553 6.553 0 0 0 31.672 19c-2.066 0-3.695.785-4.902 1.875-.695.633-1.258 1.355-1.77 2.098-.516-.742-1.074-1.465-1.773-2.098C22.024 19.785 20.391 19 18.329 19m0 2.117c1.539 0 2.523.496 3.43 1.309.711.645 1.332 1.543 1.953 2.496-.707 1.113-1.387 2.145-2.152 2.836-.852.766-1.73 1.191-3.172 1.117l-.031-.004h-.027c-1.086 0-2.188-.43-2.941-1.137l-.02-.012c-.758-.711-1.203-1.738-1.203-2.727 0-.992.445-2.02 1.203-2.73.766-.711 1.871-1.148 2.961-1.148m13.352 0c1.086 0 2.191.438 2.957 1.148.758.715 1.207 1.742 1.207 2.73 0 .992-.449 2.02-1.207 2.727l-.02.012c-.758.703-1.855 1.137-2.938 1.137h-.031l-.027.004c-1.438.074-2.324-.352-3.176-1.117-.762-.691-1.445-1.723-2.148-2.836.621-.953 1.238-1.855 1.953-2.496.902-.816 1.887-1.309 3.43-1.309m0 0"/>
    <path d="M31 22v2h-1.996v1.996H31v2h2v-2h1.996V24H33v-2m-2 0M16 24v1.996h5V24m-5 0"/>
  </g>
  <g>
    <g fill="#00959c">
      <path d="M17.328 18c-1.66 0-3.273.629-4.461 1.742C11.679 20.859 11 22.406 11 24c0 1.594.684 3.137 1.867 4.25 1.172 1.102 2.762 1.727 4.402 1.738v.004h.059a6.482 6.482 0 0 0 4.695-1.676c.797-.723 1.406-1.57 1.977-2.438.57.867 1.18 1.715 1.977 2.438 1.156 1.039 2.734 1.758 4.695 1.676h.055v-.004c1.641-.016 3.234-.637 4.406-1.738C36.321 27.133 37 25.594 37 24c0-1.594-.684-3.145-1.867-4.258A6.553 6.553 0 0 0 30.672 18c-2.066 0-3.695.785-4.902 1.875-.695.633-1.258 1.355-1.77 2.098-.516-.742-1.074-1.465-1.773-2.098C21.024 18.785 19.391 18 17.329 18m0 2.117c1.539 0 2.523.496 3.43 1.309.711.645 1.332 1.543 1.953 2.496-.707 1.113-1.387 2.145-2.152 2.836-.852.766-1.73 1.191-3.172 1.117l-.031-.004h-.027c-1.086 0-2.188-.43-2.941-1.137l-.02-.012c-.758-.711-1.203-1.738-1.203-2.727 0-.992.445-2.02 1.203-2.73.766-.711 1.871-1.148 2.961-1.148m13.352 0c1.086 0 2.191.438 2.957 1.148.758.715 1.207 1.742 1.207 2.73 0 .992-.449 2.02-1.207 2.727l-.02.012c-.758.703-1.855 1.137-2.938 1.137h-.031l-.027.004c-1.438.074-2.324-.352-3.176-1.117-.762-.691-1.445-1.723-2.148-2.836.621-.953 1.238-1.855 1.953-2.496.902-.816 1.887-1.309 3.43-1.309m0 0"/>
      <path d="M30 21v2h-1.996v1.996H30v2h2v-2h1.996V23H32v-2m-2 0M15 23v1.996h5V23m-5 0"/>
    </g>
  </g>
  <g>
    <path d="M40.03 7.531A22.922 22.922 0 0 1 45.999 23c0 12.703-10.297 23-23 23A22.92 22.92 0 0 1 7.53 40.031C11.708 44.322 17.54 47 23.999 47c12.703 0 23-10.298 23-23 0-6.462-2.677-12.291-6.969-16.469z" opacity=".1"/>
  </g>
</svg>
