<svg viewBox="0 0 48 48" xmlns="http://www.w3.org/2000/svg">
 <defs>
  <linearGradient id="linearGradient4379" x1="1" x2="47" gradientTransform="matrix(0 -1 1 0 -1.5e-6 48)" gradientUnits="userSpaceOnUse">
   <stop style="stop-color:#c7722d" offset="0"/>
   <stop style="stop-color:#d27c36" offset="1"/>
  </linearGradient>
 </defs>
 <path d="m36.31 5c5.859 4.062 9.688 10.831 9.688 18.5 0 12.426-10.07 22.5-22.5 22.5-7.669 0-14.438-3.828-18.5-9.688 1.037 1.822 2.306 3.499 3.781 4.969 4.085 3.712 9.514 5.969 15.469 5.969 12.703 0 23-10.298 23-23 0-5.954-2.256-11.384-5.969-15.469-1.469-1.475-3.147-2.744-4.969-3.781zm4.969 3.781c3.854 4.113 6.219 9.637 6.219 15.719 0 12.703-10.297 23-23 23-6.081 0-11.606-2.364-15.719-6.219 4.16 4.144 9.883 6.719 16.219 6.719 12.703 0 23-10.298 23-23 0-6.335-2.575-12.06-6.719-16.219z" style="opacity:.05"/>
 <path d="m41.28 8.781c3.712 4.085 5.969 9.514 5.969 15.469 0 12.703-10.297 23-23 23-5.954 0-11.384-2.256-15.469-5.969 4.113 3.854 9.637 6.219 15.719 6.219 12.703 0 23-10.298 23-23 0-6.081-2.364-11.606-6.219-15.719z" style="opacity:.1"/>
 <path d="m31.25 2.375c8.615 3.154 14.75 11.417 14.75 21.13 0 12.426-10.07 22.5-22.5 22.5-9.708 0-17.971-6.135-21.12-14.75a23 23 0 0 0 44.875-7 23 23 0 0 0-16-21.875z" style="opacity:.2"/>
 <path d="m18.873 1.58c-10.233 2.331-17.873 11.48-17.873 22.42 0 11.996 9.184 21.841 20.904 22.9h4.193c11.719-1.06 20.902-10.905 20.902-22.9 0-10.94-7.64-20.09-17.873-22.42h-4e-3 -10.246-4e-3z" style="fill:url(#linearGradient4379)"/>
 <path d="m24 1c-1.376 0-2.72 0.128-4.03 0.359l-0.771 9.641h1.422l-0.621 13h-0.5v1h0.5l1.662 12h-1.262c0 3.198 1.644 7.02 2.311 9.963 0.427 0.024 0.856 0.037 1.289 0.037 1.128 0 2.236-0.085 3.32-0.242 0.668-2.914 2.18-6.635 2.18-9.758h-1.162l1.662-12h0.5v-1h-0.5l-0.621-13h1.422l-0.736-9.186c-1.933-0.527-3.965-0.814-6.06-0.814zm-2.379 10h1.605l-0.229 13h-2l0.623-13zm2.605 0h1.547l0.227 13h-2l0.227-13zm2.547 0h1.605l0.619 13h-2l-0.225-13zm-5.773 14h2l0.553 12h-0.891l-1.662-12zm3 0h2l-0.645 12h-0.803l-0.553-12zm2.998 0h2l-1.66 12h-0.984l0.645-12zm-5.197 14h1v0.191c0.159 0.142 0.25 0.345 0.25 0.559 0 0.414-0.336 0.75-0.75 0.75s-0.75-0.336-0.75-0.75c0-0.213 0.091-0.416 0.25-0.559v-0.191zm1.799 0h1v0.189c0.159 0.143 0.25 0.347 0.25 0.561 0 0.414-0.336 0.75-0.75 0.75s-0.75-0.336-0.75-0.75c0-0.213 0.092-0.415 0.25-0.557v-0.193zm1.701 0h1v0.191c0.159 0.142 0.25 0.345 0.25 0.559 0 0.414-0.336 0.75-0.75 0.75s-0.75-0.336-0.75-0.75c0-0.213 0.091-0.416 0.25-0.559v-0.191zm1.896 0h1v0.189c0.159 0.143 0.25 0.347 0.25 0.561 0 0.414-0.336 0.75-0.75 0.75s-0.75-0.336-0.75-0.75c0-0.213 0.092-0.415 0.25-0.557v-0.193z" style="opacity:.1"/>
 <path d="m40.03 7.531c3.712 4.084 5.969 9.514 5.969 15.469 0 12.703-10.297 23-23 23-5.954 0-11.384-2.256-15.469-5.969 4.178 4.291 10.01 6.969 16.469 6.969 12.703 0 23-10.298 23-23 0-6.462-2.677-12.291-6.969-16.469z" style="opacity:.1"/>
 <g transform="translate(-.00016126)">
  <rect x="20" y="37" width="8" height="1" style="fill:#b3b3b3"/>
  <path d="m24 1c-1.763 0-3.477 0.204-5.127 0.58l-0.674 8.42h11.602l-0.674-8.42c-1.649-0.376-3.364-0.58-5.127-0.58" style="fill:#333"/>
  <path d="m10.49 29.584c6e-3 0.325-0.294 0.797-0.294 0.797l0.804 0.504c1.505-2.026 1.648-4.885 1.58-7.536l-0.66-0.43 0.78-0.417c-0.031-6.635 0.672-8.311 2.667-8.496 1.125-0.104 1.968 1.127 2.061 1.468 0.102 0.375 0.082 0.691 0.018 1.015-0.078 0.399-0.505 0.821-1.013 0.829-1.027 0.017-1.257-1.203-0.854-1.699 8e-3 0-0.829-0.405-0.829-0.405-0.807 0.826-0.725 3.785-0.575 7.947l0.682 0.419-0.627 0.426c-4e-3 4.907-1.447 7.961-3.698 7.994-1.66 0.025-2.495-0.934-2.53-1.966-0.03-0.878 0.305-1.711 1.231-1.727 0.52-9e-3 1.243 0.466 1.257 1.278z" style="fill-rule:evenodd;fill:#473527"/>
  <path d="m37.509 29.584c-6e-3 0.325 0.294 0.797 0.294 0.797l-0.804 0.504c-1.505-2.026-1.648-4.885-1.58-7.536l0.66-0.43-0.78-0.417c0.031-6.635-0.672-8.311-2.667-8.496-1.125-0.104-1.968 1.127-2.061 1.468-0.102 0.375-0.082 0.691-0.018 1.015 0.078 0.399 0.505 0.821 1.013 0.829 1.027 0.017 1.257-1.203 0.854-1.699-8e-3 0 0.829-0.405 0.829-0.405 0.807 0.826 0.725 3.785 0.575 7.947l-0.682 0.419 0.627 0.426c4e-3 4.907 1.447 7.961 3.698 7.994 1.66 0.025 2.495-0.934 2.53-1.966 0.03-0.878-0.305-1.711-1.231-1.727-0.52-9e-3 -1.243 0.466-1.257 1.278z" style="fill-rule:evenodd;fill:#473527"/>
  <rect x="18.5" y="23" width="11" height="1" style="fill:#e0d57b"/>
  <path d="m21.04 1.197c-0.338 0.043-0.674 0.092-1.01 0.15l-1.035 21.652v1l1.145 8.27 0.986-0.109-1.131-8.158v-1l1.043-21.805z" style="fill:#b3b3b3"/>
  <path d="m23.383 1.016c-0.335 9e-3 -0.669 0.024-1 0.047l-0.383 21.938v1l0.373 8.08 0.998-0.045-0.371-8.04v-1l0.383-21.979z" style="fill:#b3b3b3"/>
  <path d="m21.13 32.16-0.986 0.109 0.656 4.73h1l-0.67-4.84z" style="fill:#cd2242"/>
  <path d="m23.372 32.04-0.998 0.045 0.227 4.918h1l-0.229-4.963z" style="fill:#cd2242"/>
  <path d="m24.569 32.03-0.268 4.967h1l0.264-4.92-0.996-0.047z" style="fill:#cd2242"/>
  <path d="m26.87 32.16-0.67 4.84h1l0.656-4.73-0.986-0.109z" style="fill:#cd2242"/>
  <path d="m32.633 14.01c-1.125-0.104-1.968 1.128-2.061 1.469-0.102 0.375-0.083 0.69-0.02 1.014 0.076 0.389 0.489 0.795 0.98 0.822-0.037-0.264-0.045-0.529 0.039-0.836 0.093-0.341 0.936-1.573 2.061-1.469 0.307 0.028 0.58 0.097 0.828 0.209-0.422-0.803-1.016-1.134-1.828-1.209zm1.617 2.209s-0.268 0.131-0.51 0.248c0.257 1.409 0.191 3.742 0.084 6.699l-0.682 0.418 0.627 0.426c3e-3 3.931 0.933 6.667 2.459 7.619-0.921-1.352-1.456-3.641-1.459-6.619l-0.627-0.426 0.682-0.418c0.15-4.161 0.233-7.121-0.574-7.947zm4.516 12.09c-0.52-9e-3 -1.241 0.465-1.256 1.277-6e-3 0.325 0.293 0.797 0.293 0.797l-0.486 0.305c0.191 0.421 0.408 0.828 0.684 1.199l0.803-0.504s-0.299-0.472-0.293-0.797c0.015-0.812 0.736-1.286 1.256-1.277 0.059 0 0.108 0.014 0.162 0.021-0.138-0.572-0.494-1.01-1.162-1.021z" style="fill-opacity:.098"/>
  <path d="m15.367 14.01c-1.995 0.184-2.699 1.861-2.668 8.496l-0.779 0.416 0.66 0.432c0.061 2.371-0.055 4.904-1.156 6.863 0.037 0.115 0.064 0.237 0.066 0.371 6e-3 0.325-0.295 0.797-0.295 0.797l0.484 0.303c0.341-0.193 0.651-0.477 0.932-0.838 0.923-1.903 1.026-4.269 0.969-6.496l-0.66-0.432 0.779-0.416c-0.014-2.928 0.127-4.85 0.447-6.145 0.085-1.043 0.262-1.793 0.604-2.143 0 0 0.214 0.107 0.43 0.211 0.331-0.248 0.724-0.377 1.188-0.42 0.343-0.032 0.654 0.069 0.932 0.223-0.268-0.477-0.985-1.31-1.932-1.223zm0.383 2.209c-0.108 0.111-0.197 0.267-0.275 0.453 0.134 0.353 0.437 0.641 0.926 0.646-0.019-0.264 0.038-0.523 0.178-0.695 8e-3 0-0.828-0.404-0.828-0.404zm-6.518 12.09c-0.926 0.016-1.26 0.849-1.23 1.727 0.023 0.689 0.412 1.338 1.156 1.691-0.094-0.22-0.148-0.453-0.156-0.691-0.03-0.878 0.304-1.711 1.23-1.727 0.072 0 0.151 0.028 0.229 0.045-0.134-0.667-0.761-1.053-1.229-1.045z" style="fill-opacity:.098"/>
  <path d="m24.617 1.016 0.383 21.984v1l-0.432 8.03 0.996 0.047 0.436-8.08v-1l-0.381-21.934c-0.332-0.023-0.666-0.038-1-0.047" style="fill:#b3b3b3"/>
  <path d="m26.957 1.197 1.043 21.803v1l-1.131 8.16 0.986 0.109 1.145-8.271v-1l-1.035-21.65c-0.334-0.058-0.669-0.107-1.01-0.15" style="fill:#b3b3b3"/>
  <path d="m19.4 36c0 3.545 2.039 7.873 2.504 10.9 0.691 0.062 1.389 0.1 2.096 0.1 0.708 0 1.406-0.037 2.098-0.1 0.445-3.03 2.402-7.354 2.402-10.9h-9.1zm1.9 1c0.277 0 0.5 0.223 0.5 0.5v0.691a0.75 0.75 0 0 1 0.25 0.559 0.75 0.75 0 0 1-0.75 0.75 0.75 0.75 0 0 1-0.75-0.75 0.75 0.75 0 0 1 0.25-0.559v-0.691c0-0.277 0.223-0.5 0.5-0.5zm1.799 0c0.277 0 0.5 0.223 0.5 0.5v0.689a0.75 0.75 0 0 1 0.25 0.561 0.75 0.75 0 0 1-0.75 0.75 0.75 0.75 0 0 1-0.75-0.75 0.75 0.75 0 0 1 0.25-0.557v-0.693c0-0.277 0.223-0.5 0.5-0.5zm1.701 0c0.277 0 0.5 0.223 0.5 0.5v0.691a0.75 0.75 0 0 1 0.25 0.559 0.75 0.75 0 0 1-0.75 0.75 0.75 0.75 0 0 1-0.75-0.75 0.75 0.75 0 0 1 0.25-0.559v-0.691c0-0.277 0.223-0.5 0.5-0.5zm1.896 0c0.277 0 0.5 0.223 0.5 0.5v0.689a0.75 0.75 0 0 1 0.25 0.561 0.75 0.75 0 0 1-0.75 0.75 0.75 0.75 0 0 1-0.75-0.75 0.75 0.75 0 0 1 0.25-0.557v-0.693c0-0.277 0.223-0.5 0.5-0.5z" style="fill:#333"/>
 </g>
</svg>
