<svg xmlns="http://www.w3.org/2000/svg" viewBox="0 0 48 48">
  <defs>
    <linearGradient id="a" x1="1" x2="47" gradientUnits="userSpaceOnUse" gradientTransform="rotate(-90 24 24)">
      <stop stop-color="#d43c3c"/>
      <stop offset="1" stop-color="#d84d4d"/>
    </linearGradient>
  </defs>
  <path d="M36.31 5c5.859 4.062 9.688 10.831 9.688 18.5 0 12.426-10.07 22.5-22.5 22.5-7.669 0-14.438-3.828-18.5-9.688a23.24 23.24 0 0 0 3.781 4.969 22.923 22.923 0 0 0 15.469 5.969c12.703 0 23-10.298 23-23a22.92 22.92 0 0 0-5.969-15.469A23.216 23.216 0 0 0 36.31 5zm4.969 3.781A22.911 22.911 0 0 1 47.498 24.5c0 12.703-10.297 23-23 23a22.909 22.909 0 0 1-15.719-6.219C12.939 45.425 18.662 48 24.998 48c12.703 0 23-10.298 23-23 0-6.335-2.575-12.06-6.719-16.219z" opacity=".05"/>
  <path d="M41.28 8.781a22.923 22.923 0 0 1 5.969 15.469c0 12.703-10.297 23-23 23A22.92 22.92 0 0 1 8.78 41.281 22.911 22.911 0 0 0 24.499 47.5c12.703 0 23-10.298 23-23A22.909 22.909 0 0 0 41.28 8.781z" opacity=".1"/>
  <path d="M31.25 2.375C39.865 5.529 46 13.792 46 23.505c0 12.426-10.07 22.5-22.5 22.5-9.708 0-17.971-6.135-21.12-14.75a23 23 0 0 0 44.875-7 23 23 0 0 0-16-21.875z" opacity=".2"/>
  <path d="M24 1c12.703 0 23 10.297 23 23S36.703 47 24 47 1 36.703 1 24 11.297 1 24 1z" fill="url(#a)"/>
  <path d="M20.813 13c-.797 0-1.469 1.523.094 1.188.609-.199.535-1.188-.094-1.188m9.188 1c-.465 0-.906.539-.688.844.059.082.367.168.656.188.398.027.5-.094.5-.5 0-.375-.129-.531-.469-.531m-6.844.313c-.93-.07-1.98.746-2.156 1.691-.113.594-.023.949-.531.813-.313-.086-1.031-.754-1.469-.813-.688.102-1.496.895-1 2 .492.574.66.992 0 1-1.484.391-2.031.723-1.531 2.402.098.285.063.648-.344 1.066-.602.629-.645.66-1.563.375-1.293-.398-2.703 1.184-.094 1.156 1.648-.195 1.828.191.406.938-.965.504-1.273.707-1.281 1.281-.008.563.254.742.969 1.031 1.578.559 2.246.77 2.438 2.75 0 .598-.094 1.625.469 1.969.547.336.684.574.594.969-.152.695.32.895 1.25.566 1.043-.371 1.188-.105.375.625-.445.395-.656.852-.656 1.313.012 1.027 3.137 1.746 2.625-.438-.234-.992-.734-1.73.348-2 .715-.266 1.383.809 2 1 1.438.441 2.508-.195 3.375-.941.523-.453 1.074-.387 1.402-.313 1.211.25 5.91.66 4.125-2.281-.734-1.07-.586-1.281.906-1.25 1.227.023 1.328-.023 1.406-.5.047-.285-.07-.738-.25-1.031-.27-.438-.258-.563.031-.719.273-.148.07-.938-.25-1.691-.66-2.129 1.441-5.848-.656-6.527-1.266-.457.418-2.941-1.5-2.348-.555.16-.945-.125-1.594-.563-.93-.469-1.215-.488-2.375-.438-.988.039-1.453-1.266-2.625-.406-.984 1.031-.746.523-2-.281a1.303 1.303 0 0 0-.844-.406m13.09 7.941c-.156.035-.297.145-.469.277-.473.367-.5.398-.094.781.586.559 1.215.414 1.313-.313.078-.57-.281-.867-.75-.75M24.808 34.78c-.168.035-.207.223-.156.531.047.27.258.5.469.5.227 0 .391.238.438.594.047.332.199.594.313.594.117 0 .266-.262.348-.594.109-.473.039-.863-.5-1.25-.434-.309-.738-.41-.906-.375m2.371.313c-.156-.02-.313.059-.313.25s.184.344.406.344c.219 0 .367-.102.313-.25a.537.537 0 0 0-.406-.344m-3.844.375c-.141 0-.352.203-.344.531.016.531.152.637.344.25.297-.594.297-.781 0-.781m0 0" opacity=".1"/>
  <g>
    <path d="M19.813 12c-.797 0-1.469 1.523.094 1.188.61-.199.535-1.188-.094-1.188m9.188 1c-.465 0-.906.539-.688.844.06.082.367.168.656.188.398.027.5-.094.5-.5 0-.375-.129-.531-.469-.531m-6.844.313c-.93-.07-1.98.746-2.156 1.691-.113.594-.023.949-.53.813-.314-.086-1.032-.754-1.47-.813-.688.102-1.496.895-1 2 .492.574.66.992 0 1-1.484.391-2.03.723-1.53 2.402.097.285.062.648-.345 1.066-.602.629-.645.66-1.563.375-1.293-.398-2.703 1.184-.094 1.156 1.648-.195 1.828.191.406.938-.965.504-1.273.707-1.28 1.281-.009.563.253.742.968 1.031 1.578.559 2.246.77 2.438 2.75 0 .598-.094 1.625.47 1.969.546.336.683.574.593.969-.152.695.32.895 1.25.566 1.043-.371 1.188-.105.375.625-.445.395-.656.852-.656 1.313.012 1.027 3.137 1.746 2.625-.438-.234-.992-.734-1.73.348-2 .715-.266 1.383.809 2 1 1.438.441 2.508-.195 3.375-.941.523-.453 1.074-.387 1.402-.313 1.211.25 5.91.66 4.125-2.281-.734-1.07-.586-1.281.906-1.25 1.227.023 1.328-.023 1.406-.5.047-.285-.07-.738-.25-1.031-.27-.438-.258-.563.031-.719.273-.148.07-.938-.25-1.691-.66-2.129 1.441-5.848-.656-6.527-1.266-.457.418-2.941-1.5-2.348-.555.16-.945-.125-1.594-.563-.93-.469-1.215-.488-2.375-.438-.988.039-1.453-1.266-2.625-.406-.984 1.031-.746.523-2-.281a1.303 1.303 0 0 0-.844-.406m13.09 7.941c-.156.035-.297.145-.469.277-.473.367-.5.398-.094.781.586.559 1.215.414 1.313-.313.078-.57-.28-.867-.75-.75M23.808 33.78c-.168.035-.207.223-.156.531.047.27.258.5.47.5.226 0 .39.238.437.594.047.332.2.594.313.594.117 0 .266-.262.348-.594.11-.473.04-.863-.5-1.25-.434-.309-.738-.41-.906-.375m2.371.313c-.156-.02-.313.059-.313.25s.184.344.406.344c.22 0 .367-.102.313-.25a.537.537 0 0 0-.406-.344m-3.844.375c-.14 0-.352.203-.344.531.016.531.152.637.344.25.297-.594.297-.781 0-.781m0 0" fill="#7f0000"/>
    <path d="M24.01 32v-8l-6.94-4v8m6.94 4" fill="#e5e5e5"/>
    <path d="M30.922 20l-6.914 4v8l6.914-4m0-8" fill="#c1c1c1"/>
    <path d="M24.01 16l-6.94 4 6.94 4 6.918-4m-6.918-4" fill="#f9f9f9"/>
  </g>
  <g>
    <path d="M40.03 7.531A22.922 22.922 0 0 1 45.999 23c0 12.703-10.297 23-23 23A22.92 22.92 0 0 1 7.53 40.031C11.708 44.322 17.54 47 23.999 47c12.703 0 23-10.298 23-23 0-6.462-2.677-12.291-6.969-16.469z" opacity=".1"/>
  </g>
</svg>
