<svg xmlns="http://www.w3.org/2000/svg" viewBox="0 0 48 48">
  <defs>
    <linearGradient id="a" y1="47" x2="0" y2="1" gradientUnits="userSpaceOnUse">
      <stop stop-color="#e88ac6"/>
      <stop offset="1" stop-color="#eb9bce"/>
    </linearGradient>
  </defs>
  <path d="M36.31 5c5.859 4.062 9.688 10.831 9.688 18.5 0 12.426-10.07 22.5-22.5 22.5-7.669 0-14.438-3.828-18.5-9.688a23.24 23.24 0 0 0 3.781 4.969 22.923 22.923 0 0 0 15.469 5.969c12.703 0 23-10.298 23-23a22.92 22.92 0 0 0-5.969-15.469A23.216 23.216 0 0 0 36.31 5zm4.969 3.781A22.911 22.911 0 0 1 47.498 24.5c0 12.703-10.297 23-23 23a22.909 22.909 0 0 1-15.719-6.219C12.939 45.425 18.662 48 24.998 48c12.703 0 23-10.298 23-23 0-6.335-2.575-12.06-6.719-16.219z" opacity=".05"/>
  <path d="M41.28 8.781a22.923 22.923 0 0 1 5.969 15.469c0 12.703-10.297 23-23 23A22.92 22.92 0 0 1 8.78 41.281 22.911 22.911 0 0 0 24.499 47.5c12.703 0 23-10.298 23-23A22.909 22.909 0 0 0 41.28 8.781z" opacity=".1"/>
  <path d="M31.25 2.375C39.865 5.529 46 13.792 46 23.505c0 12.426-10.07 22.5-22.5 22.5-9.708 0-17.971-6.135-21.12-14.75a23 23 0 0 0 44.875-7 23 23 0 0 0-16-21.875z" opacity=".2"/>
  <path d="M24 1c12.703 0 23 10.297 23 23S36.703 47 24 47 1 36.703 1 24 11.297 1 24 1z" fill="url(#a)"/>
  <path d="M40.03 7.531A22.922 22.922 0 0 1 45.999 23c0 12.703-10.297 23-23 23A22.92 22.92 0 0 1 7.53 40.031C11.708 44.322 17.54 47 23.999 47c12.703 0 23-10.298 23-23 0-6.462-2.677-12.291-6.969-16.469z" opacity=".1"/>
  <g opacity=".1">
    <path d="M18 29.467l.875 6.066.875-1.733.875 3.467 1.75-5.2L23.25 39 25 34.667l.875 2.6.875-6.067 1.75 6.067.875-5.2 1.75 5.2.875-7.8-.875-5.2-.875 2.6-.875-6.067-.875 3.467-1.75-4.334L25.875 26l-1.75-6.933-.875 6.066-.875-5.2-1.75 6.934-1.75-4.334z" fill-rule="evenodd"/>
    <path d="M25 13c-4.261 0-6.61 2.457-7.683 4.821-.744 1.637-.944 3.215-1.012 4.063-3.048.75-5.302 3.466-5.302 6.717 0 3.829 3.134 6.933 7 6.933v-13s.007-2.011.902-3.98c.895-1.97 2.484-3.819 6.098-3.819 3.613 0 5.202 1.85 6.098 3.819.895 1.97.902 3.981.902 3.981v13c3.865 0 7-3.104 7-6.933 0-3.251-2.258-5.966-5.303-6.717-.068-.848-.269-2.426-1.011-4.063-1.074-2.363-3.422-4.821-7.684-4.821"/>
  </g>
  <g>
    <path d="M17 28.466l.875 6.067.875-1.733.875 3.467 1.75-5.2L22.25 38 24 33.667l.875 2.6.875-6.067 1.75 6.067.875-5.2 1.75 5.2.875-7.8-.875-5.2-.875 2.6-.875-6.067-.875 3.467-1.75-4.333-.875 6.067-1.75-6.933-.875 6.067-.875-5.2-1.75 6.933-1.75-4.333z" fill="#f6e82d" fill-rule="evenodd"/>
    <path d="M24 12c-4.262 0-6.61 2.457-7.684 4.821-.743 1.636-.944 3.215-1.012 4.063-3.048.75-5.305 3.466-5.305 6.717 0 3.829 3.134 6.933 7 6.933v-13s.008-2.01.902-3.981c.895-1.969 2.484-3.819 6.098-3.819 3.613 0 5.203 1.849 6.098 3.819.895 1.969.902 3.981.902 3.981v13c3.866 0 7-3.104 7-6.933 0-3.251-2.257-5.966-5.305-6.717-.068-.848-.268-2.426-1.012-4.063C30.608 14.457 28.26 12 23.998 12" fill="#2e2e7b"/>
    <path d="M17 28.467l.875 2.6.875-2.6.875 4.333 1.75-5.2.875 6.933L24 30.2l.875 2.6.875-6.067L27.5 32.8l.875-5.2 1.75 5.2.875-4.333-.875-1.733-.875 2.6-.875-6.067-.875 3.467-1.75-4.333-.875 6.067-1.75-6.933-.875 6.067-.875-5.2-1.75 6.933-1.75-4.333" fill="#e83628" fill-rule="evenodd"/>
  </g>
</svg>
