<svg version="1.1" viewBox="0 0 48 48" xmlns="http://www.w3.org/2000/svg">
 <defs>
  <linearGradient id="bg" x1="1" x2="47" gradientTransform="matrix(0 -1 1 0 0 48)" gradientUnits="userSpaceOnUse">
   <stop style="stop-color:#e4e4e4" offset="0"/>
   <stop style="stop-color:#eee" offset="1"/>
  </linearGradient>
 </defs>
 <path d="m36.3 5c5.86 4.06 9.69 10.8 9.69 18.5 0 12.4-10.1 22.5-22.5 22.5-7.67 0-14.4-3.83-18.5-9.69 1.04 1.82 2.31 3.5 3.78 4.97 4.08 3.71 9.51 5.97 15.5 5.97 12.7 0 23-10.3 23-23 0-5.95-2.26-11.4-5.97-15.5-1.47-1.48-3.15-2.74-4.97-3.78zm4.97 3.78c3.85 4.11 6.22 9.64 6.22 15.7 0 12.7-10.3 23-23 23-6.08 0-11.6-2.36-15.7-6.22 4.16 4.14 9.88 6.72 16.2 6.72 12.7 0 23-10.3 23-23 0-6.34-2.58-12.1-6.72-16.2z" style="opacity:.05"/>
 <path d="m41.3 8.78c3.71 4.08 5.97 9.51 5.97 15.5 0 12.7-10.3 23-23 23-5.95 0-11.4-2.26-15.5-5.97 4.11 3.85 9.64 6.22 15.7 6.22 12.7 0 23-10.3 23-23 0-6.08-2.36-11.6-6.22-15.7z" style="opacity:.1"/>
 <path d="m31.2 2.38c8.62 3.15 14.8 11.4 14.8 21.1 0 12.4-10.1 22.5-22.5 22.5-9.71 0-18-6.14-21.1-14.8a23 23 0 0 0 44.9-7 23 23 0 0 0-16-21.9z" style="opacity:.2"/>
 <path d="m24 1c12.7 0 23 10.3 23 23s-10.3 23-23 23-23-10.3-23-23 10.3-23 23-23z" style="fill:url(#bg)"/>
 <path d="m31.7 11.3-19.7 19.7 3 4 1.51-1.51c2.17 2.17 5.17 3.51 8.49 3.51 0.654 0 1.29-0.0673 1.92-0.168l1.08 2.17 5-3-0.896-1.34c2.19-1.61 3.81-3.95 4.5-6.66h3.39v-5h-3.18c-0.336-2-1.16-3.82-2.35-5.36l2.14-1.64-4.91-4.68z" style="opacity:.1"/>
 <path d="m30.7 10.3-2.26 2.53c-1.37-0.548-2.87-0.85-4.44-0.85-6.63 0-12 5.37-12 12 0 1.67 0.339 3.25 0.953 4.7l-1.95 1.3 3 4 1.51-1.51c2.17 2.17 5.17 3.51 8.49 3.51 0.655 0 1.3-0.0515 1.92-0.152l1.08 2.15 5-3-0.889-1.33c2.19-1.61 3.81-3.96 4.51-6.67h3.38v-5h-3.17c-0.335-2-1.16-3.83-2.36-5.36l2.13-1.64-4.91-4.68z" style="fill:#267fc1"/>
 <path d="m23 14c-4.97 0-9 4.03-9 9 0 3.92 2.51 7.25 6 8.48v1.52h3v-1c0.811 0 1.6-0.109 2.35-0.311l0.654 1.31 2-1-0.58-1.16c2.73-1.54 4.58-4.48 4.58-7.84 0-4.97-4.03-9-9-9z" style="opacity:.1"/>
 <path d="m22 13c-4.97 0-9 4.03-9 9 0 3.92 2.51 7.25 6 8.48v1.52h3v-1c0.811 0 1.6-0.109 2.35-0.311l0.654 1.31 2-1-0.58-1.16c2.73-1.54 4.58-4.48 4.58-7.84 0-4.97-4.03-9-9-9z" style="fill:#555"/>
 <path d="m28.3 20.6c-1.39 0.00398-2.99 0.681-3.28 1.87 0 0.828 0.567 1.21 1.67 1.21 1.04-0.027 2.85-1.43 2.87-2.86-0.356-0.154-0.795-0.228-1.26-0.227zm-10.3 2.65c-1.1 0-0.941 0.387-0.941 1.22 0 0.824 0.895 1.5 2 1.5 1.1 0 2-0.668 2-1.5h0.00391c0-0.832-1.95-1.22-3.06-1.22z" style="fill:#4de9d1"/>
 <path d="m21.2 13.8c-0.216 0.00227-0.433 0.0353-0.65 0.104-0.707 0.425-1.3 1.59-0.141 2.03l1.95 0.0664c0.356-0.211 0.34-0.196 0.559-0.434 0.223-0.238 0.567-0.503 0.223-1.07-0.65-0.434-1.29-0.704-1.94-0.697zm-1.11 3.2c-1.2 0.289-1.57 1.76 0 2 1.23-0.125 2.46-0.125 3.69 0 0.84-0.477-0.402-1.94-2.16-2h-1.53zm1.47 3c-0.656 0.136-0.66 0.64 0 0.906l1 0.0898c0.5 0 0.824-0.379 0-0.734l-1-0.262z" style="fill:#e56767"/>
 <path d="m40 7.53c3.71 4.08 5.97 9.51 5.97 15.5 0 12.7-10.3 23-23 23-5.95 0-11.4-2.26-15.5-5.97 4.18 4.29 10 6.97 16.5 6.97 12.7 0 23-10.3 23-23 0-6.46-2.68-12.3-6.97-16.5z" style="opacity:.1"/>
</svg>
