<svg xmlns="http://www.w3.org/2000/svg" xmlns:xlink="http://www.w3.org/1999/xlink" viewBox="0 0 48 48">
  <defs>
    <linearGradient id="a" x1="1" x2="47" gradientUnits="userSpaceOnUse" gradientTransform="rotate(-90 24 24)">
      <stop stop-color="#219ccf"/>
      <stop offset="1" stop-color="#27a6dc"/>
    </linearGradient>
  </defs>
  <path d="M36.31 5c5.859 4.062 9.688 10.831 9.688 18.5 0 12.426-10.07 22.5-22.5 22.5-7.669 0-14.438-3.828-18.5-9.688a23.24 23.24 0 0 0 3.781 4.969 22.923 22.923 0 0 0 15.469 5.969c12.703 0 23-10.298 23-23a22.92 22.92 0 0 0-5.969-15.469A23.216 23.216 0 0 0 36.31 5zm4.969 3.781A22.911 22.911 0 0 1 47.498 24.5c0 12.703-10.297 23-23 23a22.909 22.909 0 0 1-15.719-6.219C12.939 45.425 18.662 48 24.998 48c12.703 0 23-10.298 23-23 0-6.335-2.575-12.06-6.719-16.219z" opacity=".05"/>
  <path d="M41.28 8.781a22.923 22.923 0 0 1 5.969 15.469c0 12.703-10.297 23-23 23A22.92 22.92 0 0 1 8.78 41.281 22.911 22.911 0 0 0 24.499 47.5c12.703 0 23-10.298 23-23A22.909 22.909 0 0 0 41.28 8.781z" opacity=".1"/>
  <path d="M31.25 2.375C39.865 5.529 46 13.792 46 23.505c0 12.426-10.07 22.5-22.5 22.5-9.708 0-17.971-6.135-21.12-14.75a23 23 0 0 0 44.875-7 23 23 0 0 0-16-21.875z" opacity=".2"/>
  <path d="M24 1c12.703 0 23 10.297 23 23S36.703 47 24 47 1 36.703 1 24 11.297 1 24 1z" fill="url(#a)"/>
  <path d="M40.03 7.531A22.922 22.922 0 0 1 45.999 23c0 12.703-10.297 23-23 23A22.92 22.92 0 0 1 7.53 40.031C11.708 44.322 17.54 47 23.999 47c12.703 0 23-10.298 23-23 0-6.462-2.677-12.291-6.969-16.469z" opacity=".1"/>
  <g>
    <g transform="translate(1 1)" opacity=".1">
      <path d="M12.773 17h22.453c.98 0 1.773.793 1.773 1.773v12.453c0 .98-.793 1.773-1.773 1.773H12.773c-.98 0-1.773-.793-1.773-1.773V18.773c0-.98.793-1.773 1.773-1.773m0 0"/>
      <path d="M11 25v6.219c0 .98.801 1.781 1.781 1.781h22.438c.98 0 1.781-.801 1.781-1.781V25m-26 0M15 20h18v2H15m0-2"/>
      <path d="M16.875 11a.864.864 0 0 0-.875.875V21h16v-7l-3-3m-12.12 0M15 28h18v2H15m0-2"/>
      <path d="M32 29v7.113a.884.884 0 0 1-.887.887H16.886a.884.884 0 0 1-.887-.887V29m16 0M29 11v3h3m-3-3"/>
      <use height="48" width="48" xlink:href="#b"/>
      <path d="M19 13h9v1h-9m0-1M19 15h9v1h-9m0-1M19 17h9v1h-9m0-1M19 19h6v1h-6m0-1" fill-opacity=".702"/>
    </g>
  </g>
  <g>
    <path d="M12.773 17h22.453c.98 0 1.773.793 1.773 1.773v12.453c0 .98-.793 1.773-1.773 1.773H12.773c-.98 0-1.773-.793-1.773-1.773V18.773c0-.98.793-1.773 1.773-1.773m0 0" fill="#737481"/>
    <path d="M11 25v6.219c0 .98.801 1.781 1.781 1.781h22.438c.98 0 1.781-.801 1.781-1.781V25H11m4 3h18v2H15v-2zM15 20h18v2H15m0-2" fill="#3e4a5c"/>
    <path d="M16.875 11a.864.864 0 0 0-.875.875V21h16v-7l-3-3m-12.12 0M32 29v7.113a.884.884 0 0 1-.887.887H16.886a.884.884 0 0 1-.887-.887V29m16 0" fill="#ececde"/>
    <path d="M29 11v3h3m-3-3" fill="#fff"/>
    <path d="M29 14h3v3m-3-3" id="b" fill-opacity=".2"/>
  </g>
</svg>
