<svg xmlns="http://www.w3.org/2000/svg" viewBox="0 0 48 48">
  <defs>
    <linearGradient id="a" x1="1" x2="47" gradientUnits="userSpaceOnUse">
      <stop stop-color="#555"/>
      <stop offset="1" stop-color="#5f5f5f"/>
    </linearGradient>
  </defs>
  <path d="M36.31 5c5.859 4.062 9.688 10.831 9.688 18.5 0 12.426-10.07 22.5-22.5 22.5-7.669 0-14.438-3.828-18.5-9.688a23.24 23.24 0 0 0 3.781 4.969 22.923 22.923 0 0 0 15.469 5.969c12.703 0 23-10.298 23-23a22.92 22.92 0 0 0-5.969-15.469A23.216 23.216 0 0 0 36.31 5zm4.969 3.781A22.911 22.911 0 0 1 47.498 24.5c0 12.703-10.297 23-23 23a22.909 22.909 0 0 1-15.719-6.219C12.939 45.425 18.662 48 24.998 48c12.703 0 23-10.298 23-23 0-6.335-2.575-12.06-6.719-16.219z" opacity=".05"/>
  <path d="M41.28 8.781a22.923 22.923 0 0 1 5.969 15.469c0 12.703-10.297 23-23 23A22.92 22.92 0 0 1 8.78 41.281 22.911 22.911 0 0 0 24.499 47.5c12.703 0 23-10.298 23-23A22.909 22.909 0 0 0 41.28 8.781z" opacity=".1"/>
  <path d="M31.25 2.375C39.865 5.529 46 13.792 46 23.505c0 12.426-10.07 22.5-22.5 22.5-9.708 0-17.971-6.135-21.12-14.75a23 23 0 0 0 44.875-7 23 23 0 0 0-16-21.875z" opacity=".2"/>
  <path d="M24 1c12.703 0 23 10.297 23 23S36.703 47 24 47 1 36.703 1 24 11.297 1 24 1z" transform="rotate(-90 24 24)" fill="url(#a)"/>
  <g opacity=".1">
    <path d="M36.98 17.297c-.366.168-.753.605-.753.605l-6.871 1.32s-.121-.203-.25-.379l-.23-.32h-4.281l-.066-.293-.066-.289h-4.38l-.07.324-.065.332-1.406.016-1.406.023-.02 1.605-.02 1.609h1.949l-.074.313-.078.313h-6.01l-.582 2.68-.754.043c-1.031.133-1.648.492-2.234 1.313-.066.094-.301.734-.301 1.203.039.684.242 1.238.605 1.805.188.297.438.629.867.91.21.145.523.398.719.574.57.523 1.227.953 1.84 1.41.352.262.805.434 1.293.539.168.035 4.926.063 10.582.055 9.418-.012 10.313-.027 10.699-.145.637-.195 1.3-.578 1.516-.789.898-.738 2.234-1.813 2.754-2.145.523-.328.672-.691.855-1.02.082-.141.168-.426.199-.625.07-.461.098-.848.027-1.281-.063-.434-.395-1.129-.645-1.328-.563-.449-1.324-.629-2.742-.629l-.852-.004.113-.57-2.813-1.895-4.113-.211.953-1.195-.707-.953 6.152-1.57s.488.168.883.133c.39-.035 1.355-.371 1.355-.371l-.211-1.402s-.93.145-1.375.289M12.403 30.942c.324 0 .453.027.453.102 0 .059.082.266.18.465.105.199.176.363.172.359-.004 0-.098-.074-.2-.152-.101-.086-.214-.152-.241-.152-.066-.004-.813-.547-.813-.594 0-.016.203-.031.453-.031m24.672.004h.12c.2 0 .364.012.364.027 0 .016-.195.184-.438.375-.234.191-.52.395-.621.449l-.188.102.164-.168c.094-.09.21-.305.262-.473.078-.27.09-.305.336-.313m-16.14.852c.016 0 .027.031.05.078.028.066.185.25.349.41l.309.289-.75-.004-.746-.004.188-.156c.398-.32.504-.43.559-.539.02-.051.03-.074.05-.074m3.853.004c.016 0 .027.023.047.074.066.141.313.387.563.563.184.125.168.129-.563.133l-.754.004.309-.289c.168-.16.328-.344.352-.41.023-.047.035-.066.05-.066m-7.78.004c.012 0 .027.02.047.063.043.105.145.195.555.543l.188.156-.746.004-.754.004.305-.289c.168-.156.328-.344.352-.406.023-.043.035-.07.055-.074m15.566.004c.016-.004.027.016.043.055.098.203.426.559.527.559.055 0 .12.035.148.078.027.051-.23.074-.734.074-.637-.004-.75-.02-.63-.094.204-.129.536-.457.595-.598.016-.047.035-.066.05-.07m-3.812.055c.012 0 .02.008.023.02.02.059.168.238.328.398l.297.289H27.97l.398-.395c.219-.215.355-.32.41-.316m0 0"/>
    <path d="M31.02 27c0 1 .259.938 1 1h2v1h-3v2l4.997-.004L36.02 28c0-1-.492-1-1-1H33.72c-.38 0-.57-.027-.57-.207v-.48c0-.164.19-.313.57-.313h2.3L36 25c-1.308 0-2.73 0-3.976.004-1 0-1 .75-1 1v1M26.02 31h2v-5h2v-1h-3.995v6M20.048 30.22c-.027.777.57.777.926.766h3c.96 0 1.047-.258 1.047-.77v-4.438c0-.781-.707-.781-1.047-.781l-2.953.012c-1 0-1 .48-.973.793v4.43m1.977-.516v-3.398c0-.184.109-.313.496-.313.379 0 .5.133.5.313v3.398c0 .148-.121.281-.5.281-.387 0-.496-.133-.496-.281M14.02 30.01c0 .215 0 1 1 1h3c1 0 1-.617 1-1v-4.23c0-.773-.612-.773-1-.773h-3c-.187 0-1 0-1 .895m2 .422c0-.188.11-.313.497-.313.379 0 .5.188.5.371v3.313c0 .16-.121.316-.5.316-.387 0-.496-.109-.496-.273"/>
  </g>
  <path d="M35.981 16.297c-.367.168-.754.605-.754.605l-6.871 1.32s-.121-.203-.25-.379l-.23-.32h-4.281l-.066-.293-.066-.289h-4.379l-.07.324-.066.332-1.406.016-1.406.023-.02 1.605-.02 1.609h1.949l-.074.313-.078.313h-6.01l-.582 2.68-.754.043c-1.031.133-1.648.492-2.234 1.313-.066.094-.301.734-.301 1.203.039.684.242 1.238.605 1.805.188.297.438.629.867.91.211.145.523.398.719.574.57.523 1.227.953 1.84 1.41.352.262.805.434 1.293.539.168.035 4.926.063 10.582.055 9.418-.012 10.313-.027 10.699-.145.637-.195 1.301-.578 1.516-.789.898-.738 2.234-1.813 2.754-2.145.523-.328.672-.691.855-1.02.082-.141.168-.426.199-.625.07-.461.098-.848.027-1.281-.063-.434-.395-1.129-.645-1.328-.563-.449-1.324-.629-2.742-.629l-.852-.004.113-.57-2.813-1.895-4.113-.211.953-1.195-.707-.953 6.152-1.57s.488.168.883.133c.391-.035 1.355-.371 1.355-.371l-.211-1.402s-.93.145-1.375.289M11.403 29.942c.324 0 .453.027.453.102 0 .059.082.266.18.465.105.199.176.363.172.359-.004 0-.098-.074-.199-.152-.102-.086-.215-.152-.242-.152-.066-.004-.813-.547-.813-.594 0-.016.203-.031.453-.031m24.672.004h.121c.199 0 .363.012.363.027 0 .016-.195.184-.438.375-.234.191-.52.395-.621.449l-.188.102.164-.168c.094-.09.211-.305.262-.473.078-.27.09-.305.336-.313m-16.14.852c.016 0 .027.031.051.078.027.066.184.25.348.41l.309.289-.75-.004-.746-.004.188-.156c.398-.32.504-.43.559-.539.02-.051.031-.074.051-.074m3.852.004c.016 0 .027.023.047.074.066.141.313.387.563.563.184.125.168.129-.563.133l-.754.004.309-.289c.168-.16.328-.344.352-.41.023-.047.035-.066.051-.066m-7.781.004c.012 0 .027.02.047.063.043.105.145.195.555.543l.188.156-.746.004-.754.004.305-.289c.168-.156.328-.344.352-.406.023-.043.035-.07.055-.074m15.566.004c.016-.004.027.016.043.055.098.203.426.559.527.559.055 0 .121.035.148.078.027.051-.23.074-.734.074-.637-.004-.75-.02-.629-.094.203-.129.535-.457.594-.598.016-.047.035-.066.051-.07m-3.813.055c.012 0 .02.008.023.02.02.059.168.238.328.398l.297.289H26.97l.398-.395c.219-.215.355-.32.41-.316m0 0" fill="#cecece"/>
  <g>
    <path d="M40.03 7.531A22.922 22.922 0 0 1 45.999 23c0 12.703-10.297 23-23 23A22.92 22.92 0 0 1 7.53 40.031C11.708 44.322 17.54 47 23.999 47c12.703 0 23-10.298 23-23 0-6.462-2.677-12.291-6.969-16.469z" opacity=".1"/>
  </g>
</svg>
