<svg xmlns="http://www.w3.org/2000/svg" viewBox="0 0 48 48">
  <defs>
    <linearGradient id="a" y1="47" x2="0" y2="1" gradientUnits="userSpaceOnUse">
      <stop stop-color="#575757"/>
      <stop offset="1" stop-color="#616161"/>
    </linearGradient>
  </defs>
  <path d="M36.31 5c5.859 4.062 9.688 10.831 9.688 18.5 0 12.426-10.07 22.5-22.5 22.5-7.669 0-14.438-3.828-18.5-9.688a23.24 23.24 0 0 0 3.781 4.969 22.923 22.923 0 0 0 15.469 5.969c12.703 0 23-10.298 23-23a22.92 22.92 0 0 0-5.969-15.469A23.216 23.216 0 0 0 36.31 5zm4.969 3.781A22.911 22.911 0 0 1 47.498 24.5c0 12.703-10.297 23-23 23a22.909 22.909 0 0 1-15.719-6.219C12.939 45.425 18.662 48 24.998 48c12.703 0 23-10.298 23-23 0-6.335-2.575-12.06-6.719-16.219z" opacity=".05"/>
  <path d="M41.28 8.781a22.923 22.923 0 0 1 5.969 15.469c0 12.703-10.297 23-23 23A22.92 22.92 0 0 1 8.78 41.281 22.911 22.911 0 0 0 24.499 47.5c12.703 0 23-10.298 23-23A22.909 22.909 0 0 0 41.28 8.781z" opacity=".1"/>
  <path d="M31.25 2.375C39.865 5.529 46 13.792 46 23.505c0 12.426-10.07 22.5-22.5 22.5-9.708 0-17.971-6.135-21.12-14.75a23 23 0 0 0 44.875-7 23 23 0 0 0-16-21.875z" opacity=".2"/>
  <path d="M24 1c12.703 0 23 10.297 23 23S36.703 47 24 47 1 36.703 1 24 11.297 1 24 1z" fill="url(#a)"/>
  <circle cx="25" cy="25" r="15" fill-opacity=".098"/>
  <path d="M34.607 34.607a15.001 15.001 0 0 1-25.449-12.78A15 15 0 0 1 21.395 9.229c3.257 4.327 2.494 9.659 2.605 14.772 5.177 2.168 9.404 5.127 10.607 10.607z" fill="#f2a78a"/>
  <path d="M40.03 7.531A22.922 22.922 0 0 1 45.999 23c0 12.703-10.297 23-23 23A22.92 22.92 0 0 1 7.53 40.031C11.708 44.322 17.54 47 23.999 47c12.703 0 23-10.298 23-23 0-6.462-2.677-12.291-6.969-16.469z" opacity=".1"/>
  <path d="M37.595 17.661a15 15 0 0 1-2.988 16.946L24 24c3.109-5.275 7.488-7.727 13.595-6.339z" fill="#c6d6e8"/>
  <path d="M21.395 9.228a15 15 0 0 1 16.2 8.433L24 24" fill="#f3f29d"/>
  <g fill-rule="evenodd">
    <path d="M24 17v2.061c-.842.109-1.519.399-2.02.877-.652.62-.979 1.505-.979 2.656 0 .919.233 1.649.699 2.191.471.542 1.214.938 2.229 1.186l1.012.256c.616.155 1.025.331 1.229.527.208.196.313.474.313.836 0 .403-.152.713-.455.93-.303.217-.74.326-1.311.326a5.697 5.697 0 0 1-1.752-.295 9.332 9.332 0 0 1-1.875-.891v2.518c.647.274 1.296.48 1.943.619.324.07.646.123.969.158V33h2v-2.066c.85-.123 1.522-.405 2-.855.666-.625.998-1.576.998-2.852 0-.971-.238-1.719-.713-2.246-.475-.527-1.277-.92-2.404-1.178l-1.113-.256c-.53-.124-.898-.271-1.102-.441-.199-.176-.297-.419-.297-.729 0-.413.148-.718.447-.914.299-.196.76-.295 1.385-.295a5.7 5.7 0 0 1 1.502.217c.53.145 1.072.359 1.629.643v-2.447a13.615 13.615 0 0 0-1.826-.426c-.172-.029-.339-.044-.508-.064v-2.09z" fill-opacity=".098"/>
    <path d="M23 16v2.061c-.842.109-1.519.399-2.02.877-.652.62-.979 1.505-.979 2.656 0 .919.233 1.649.699 2.191.471.542 1.214.938 2.229 1.186l1.012.256c.616.155 1.025.331 1.229.527.208.196.313.474.313.836 0 .403-.152.713-.455.93-.303.217-.74.326-1.311.326a5.697 5.697 0 0 1-1.752-.295 9.332 9.332 0 0 1-1.875-.891v2.518c.647.274 1.296.48 1.943.619.324.07.646.123.969.158V32h2v-2.066c.85-.123 1.522-.405 2-.855.666-.625.998-1.576.998-2.852 0-.971-.238-1.719-.713-2.246-.475-.527-1.277-.92-2.404-1.178l-1.113-.256c-.53-.124-.898-.271-1.102-.441-.199-.176-.297-.419-.297-.729 0-.413.148-.718.447-.914.299-.196.76-.295 1.385-.295a5.7 5.7 0 0 1 1.502.217c.53.145 1.072.359 1.629.643v-2.447a13.615 13.615 0 0 0-1.826-.426c-.172-.029-.339-.044-.508-.064v-2.09z" fill="#4d4d4d"/>
  </g>
</svg>
