<svg version="1.1" viewBox="0 0 48 48" xmlns="http://www.w3.org/2000/svg">
 <defs>
  <linearGradient id="bg" x2="0" y1="1" y2="47" gradientUnits="userSpaceOnUse">
   <stop style="stop-color:#b87d51" offset="0"/>
   <stop style="stop-color:#ad7347" offset="1"/>
  </linearGradient>
 </defs>
 <path d="m36.31 5c5.859 4.062 9.688 10.831 9.688 18.5 0 12.426-10.07 22.5-22.5 22.5-7.669 0-14.438-3.828-18.5-9.688 1.037 1.822 2.306 3.499 3.781 4.969 4.085 3.712 9.514 5.969 15.469 5.969 12.703 0 23-10.298 23-23 0-5.954-2.256-11.384-5.969-15.469-1.469-1.475-3.147-2.744-4.969-3.781zm4.969 3.781c3.854 4.113 6.219 9.637 6.219 15.719 0 12.703-10.297 23-23 23-6.081 0-11.606-2.364-15.719-6.219 4.16 4.144 9.883 6.719 16.219 6.719 12.703 0 23-10.298 23-23 0-6.335-2.575-12.06-6.719-16.219z" style="opacity:.05"/>
 <path d="m41.28 8.781c3.712 4.085 5.969 9.514 5.969 15.469 0 12.703-10.297 23-23 23-5.954 0-11.384-2.256-15.469-5.969 4.113 3.854 9.637 6.219 15.719 6.219 12.703 0 23-10.298 23-23 0-6.081-2.364-11.606-6.219-15.719z" style="opacity:.1"/>
 <path d="m31.25 2.375c8.615 3.154 14.75 11.417 14.75 21.13 0 12.426-10.07 22.5-22.5 22.5-9.708 0-17.971-6.135-21.12-14.75a23 23 0 0 0 44.875-7 23 23 0 0 0-16-21.875z" style="opacity:.2"/>
 <circle cx="24" cy="24" r="23" style="fill:url(#bg)"/>
 <path d="m40.03 7.531c3.712 4.084 5.969 9.514 5.969 15.469 0 12.703-10.297 23-23 23-5.954 0-11.384-2.256-15.469-5.969 4.178 4.291 10.01 6.969 16.469 6.969 12.703 0 23-10.298 23-23 0-6.462-2.677-12.291-6.969-16.469z" style="opacity:.1"/>
 <path d="m18.75 12c-0.554 0-0.9176 0.5568-1.25 1l-3.75 5c-0.3324 0.4432-0.35 1 0.25 1h9.5c0.277 0 0.5-0.223 0.5-0.5v-6c0-0.277-0.223-0.5-0.5-0.5zm7.75 0c-0.277 0-0.5 0.223-0.5 0.5v6c0 0.277 0.223 0.5 0.5 0.5h9.5c0.6 0 0.5824-0.5568 0.25-1l-3.75-5c-0.3324-0.4432-0.696-1-1.25-1zm-13.5 9c-0.554 0-1 0.446-1 1v13c0 1.108 0.892 2 2 2h22c1.108 0 2-0.892 2-2v-13c0-0.554-0.446-1-1-1z" style="opacity:.1"/>
 <path d="m17.75 11c-0.554 0-0.9176 0.5568-1.25 1l-3.75 5c-0.3324 0.4432-0.35 1 0.25 1h9.5c0.277 0 0.5-0.223 0.5-0.5v-6c0-0.277-0.223-0.5-0.5-0.5zm7.75 0c-0.277 0-0.5 0.223-0.5 0.5v6c0 0.277 0.223 0.5 0.5 0.5h9.5c0.6 0 0.5824-0.5568 0.25-1l-3.75-5c-0.3324-0.4432-0.696-1-1.25-1zm-13.5 9c-0.554 0-1 0.446-1 1v13c0 1.108 0.892 2 2 2h22c1.108 0 2-0.892 2-2v-13c0-0.554-0.446-1-1-1z" style="fill:#f1f0ee"/>
 <path d="m23.442 22.999c-1.0078 0.03125-0.19141 0.96875-1.0469 1.4766-0.85156 0.50781-1.375-0.60547-1.8477 0.24219s0.78515 0.64453 0.82031 1.6016c0.03515 0.96094-1.2344 0.83203-0.69922 1.6484 0.53125 0.81641 0.97656-0.32812 1.8633 0.125 0.89062 0.45312 0.14453 1.4375 1.1484 1.4062 1.0078-0.03125 0.19141-0.96875 1.043-1.4766 0.85547-0.50781 1.3789 0.60547 1.8516-0.24219 0.47266-0.84766-0.78515-0.64453-0.82031-1.6016-0.03906-0.96094 1.2344-0.83203 0.69922-1.6484-0.53516-0.8125-0.97656 0.32812-1.8633-0.125-0.78125-0.39453-0.30469-1.2031-0.84766-1.3789-0.07813-0.02344-0.17578-0.03124-0.30078-0.02734zm-0.03711 2.4688c0.10608-0.01923 0.21777-0.01953 0.33008 0.0039 0.44531 0.08984 0.73438 0.51172 0.63672 0.94141-0.09375 0.43359-0.53516 0.70703-0.98438 0.61719-0.44922-0.09375-0.73438-0.51562-0.64062-0.94531 0.07324-0.3252 0.33997-0.55951 0.6582-0.61719zm4.3535 1.5312c-1.0039 0.03125-0.1875 0.96875-1.043 1.4766-0.85156 0.50781-1.375-0.60547-1.8477 0.24219-0.47266 0.84766 0.78515 0.64453 0.82031 1.6016 0.03516 0.96094-1.2344 0.83203-0.70312 1.6484 0.53516 0.81641 0.97656-0.32812 1.8672 0.125 0.89063 0.45312 0.14453 1.4375 1.1484 1.4062 1.0078-0.03125 0.19141-0.96875 1.043-1.4766 0.85547-0.50781 1.3789 0.60547 1.8516-0.24219 0.47266-0.84766-0.78515-0.64453-0.82031-1.6016-0.03906-0.96094 1.2344-0.83203 0.69922-1.6484-0.53516-0.8125-0.97656 0.32812-1.8672-0.125-0.77734-0.39453-0.30078-1.2031-0.84375-1.3789-0.07813-0.02344-0.17578-0.03124-0.30469-0.02734zm-5.7578 1.5c-1.0078 0.03125-0.19141 0.96875-1.043 1.4766-0.85547 0.50781-1.3789-0.60547-1.8516 0.24219-0.47266 0.84766 0.78515 0.64453 0.82031 1.6016 0.03906 0.96094-1.2344 0.83203-0.69922 1.6484 0.53516 0.81641 0.97656-0.32812 1.8672 0.125 0.88672 0.45312 0.14062 1.4375 1.1484 1.4062 1.0039-0.03125 0.1875-0.96875 1.043-1.4766 0.85156-0.50781 1.375 0.60547 1.8477-0.24219 0.47266-0.84766-0.78515-0.64453-0.82031-1.6016-0.03516-0.96094 1.2344-0.83203 0.70312-1.6484-0.53516-0.8125-0.97656 0.32812-1.8672-0.125-0.77734-0.39453-0.30078-1.2031-0.84375-1.3789-0.07813-0.02344-0.17969-0.03124-0.30469-0.02734zm5.7246 0.96875c0.10608-0.01923 0.21777-0.01953 0.33008 0.0039 0.44531 0.08984 0.73436 0.51172 0.63672 0.94141-0.09375 0.43359-0.53516 0.70703-0.98438 0.61719-0.44922-0.09375-0.73438-0.51562-0.64062-0.94531 0.07324-0.3252 0.33997-0.55951 0.6582-0.61719zm-5.7617 1.5c0.10602-0.01923 0.21777-0.01953 0.33008 0.0039 0.44922 0.08984 0.73438 0.51172 0.64062 0.94141-0.09766 0.43359-0.53906 0.70703-0.98828 0.61719-0.44531-0.09375-0.73438-0.51562-0.63672-0.94531 0.07031-0.3252 0.33624-0.55951 0.6543-0.61719z" style="opacity:.1"/>
 <path d="m22.441 22c-1.0078 0.03125-0.19141 0.96875-1.0469 1.4766-0.85156 0.50781-1.375-0.60547-1.8477 0.24219s0.78515 0.64453 0.82031 1.6016c0.035155 0.96094-1.2344 0.83203-0.69922 1.6484 0.53125 0.81641 0.97656-0.32812 1.8633 0.125 0.89062 0.45312 0.14453 1.4375 1.1484 1.4062 1.0078-0.03125 0.19141-0.96875 1.043-1.4766 0.85547-0.50781 1.3789 0.60547 1.8516-0.24219 0.47266-0.84766-0.78515-0.64453-0.82031-1.6016-0.039062-0.96094 1.2344-0.83203 0.69922-1.6484-0.53516-0.8125-0.97656 0.32812-1.8633-0.125-0.78125-0.39453-0.30469-1.2031-0.84766-1.3789-0.078126-0.02344-0.17578-0.031244-0.30078-0.027344zm-0.037109 2.4688c0.10608-0.019226 0.21777-0.019531 0.33008 0.003906 0.44531 0.089844 0.73438 0.51172 0.63672 0.94141-0.09375 0.43359-0.53516 0.70703-0.98438 0.61719-0.44922-0.09375-0.73438-0.51562-0.64062-0.94531 0.073242-0.3252 0.33997-0.55951 0.6582-0.61719zm4.3535 1.5312c-1.0039 0.03125-0.1875 0.96875-1.043 1.4766-0.85156 0.50781-1.375-0.60547-1.8477 0.24219-0.47266 0.84766 0.78515 0.64453 0.82031 1.6016 0.035156 0.96094-1.2344 0.83203-0.70312 1.6484 0.53516 0.81641 0.97656-0.32812 1.8672 0.125 0.89063 0.45312 0.14453 1.4375 1.1484 1.4062 1.0078-0.03125 0.19141-0.96875 1.043-1.4766 0.85547-0.50781 1.3789 0.60547 1.8516-0.24219 0.47266-0.84766-0.78515-0.64453-0.82031-1.6016-0.039063-0.96094 1.2344-0.83203 0.69922-1.6484-0.53516-0.8125-0.97656 0.32812-1.8672-0.125-0.77734-0.39453-0.30078-1.2031-0.84375-1.3789-0.078125-0.02344-0.17578-0.031244-0.30469-0.027344zm-5.7578 1.5c-1.0078 0.03125-0.19141 0.96875-1.043 1.4766-0.85547 0.50781-1.3789-0.60547-1.8516 0.24219-0.47266 0.84766 0.78515 0.64453 0.82031 1.6016 0.039063 0.96094-1.2344 0.83203-0.69922 1.6484 0.53516 0.81641 0.97656-0.32812 1.8672 0.125 0.88672 0.45312 0.14062 1.4375 1.1484 1.4062 1.0039-0.03125 0.1875-0.96875 1.043-1.4766 0.85156-0.50781 1.375 0.60547 1.8477-0.24219 0.47266-0.84766-0.78515-0.64453-0.82031-1.6016-0.035156-0.96094 1.2344-0.83203 0.70312-1.6484-0.53516-0.8125-0.97656 0.32812-1.8672-0.125-0.77734-0.39453-0.30078-1.2031-0.84375-1.3789-0.078126-0.02344-0.17969-0.031244-0.30469-0.027344zm5.7246 0.96875c0.10608-0.019226 0.21777-0.019531 0.33008 0.003906 0.44531 0.089844 0.73436 0.51172 0.63672 0.94141-0.09375 0.43359-0.53516 0.70703-0.98438 0.61719-0.44922-0.09375-0.73438-0.51562-0.64062-0.94531 0.073242-0.3252 0.33997-0.55951 0.6582-0.61719zm-5.7617 1.5c0.10602-0.019226 0.21777-0.019531 0.33008 0.003906 0.44922 0.089844 0.73438 0.51172 0.64062 0.94141-0.097656 0.43359-0.53906 0.70703-0.98828 0.61719-0.44531-0.09375-0.73438-0.51562-0.63672-0.94531 0.070312-0.3252 0.33624-0.55951 0.6543-0.61719z" style="fill:#e3b392"/>
</svg>
