<svg viewBox="0 0 48 48" xmlns="http://www.w3.org/2000/svg">
 <defs>
  <linearGradient id="linearGradient3775" x2="0" y1="1" y2="47" gradientUnits="userSpaceOnUse">
   <stop style="stop-color:#42d442" offset="0"/>
   <stop style="stop-color:#32d032;stop-opacity:.992" offset="1"/>
  </linearGradient>
  <linearGradient id="linearGradient3801" x2="0" y1="1" y2="47" gradientUnits="userSpaceOnUse">
   <stop style="stop-color:#2aa42a" offset="0"/>
   <stop style="stop-color:#269426" offset="1"/>
  </linearGradient>
 </defs>
 <path d="m36.31 5c5.859 4.062 9.688 10.831 9.688 18.5 0 12.426-10.07 22.5-22.5 22.5-7.669 0-14.438-3.828-18.5-9.688 1.037 1.822 2.306 3.499 3.781 4.969 4.085 3.712 9.514 5.969 15.469 5.969 12.703 0 23-10.298 23-23 0-5.954-2.256-11.384-5.969-15.469-1.469-1.475-3.147-2.744-4.969-3.781zm4.969 3.781c3.854 4.113 6.219 9.637 6.219 15.719 0 12.703-10.297 23-23 23-6.081 0-11.606-2.364-15.719-6.219 4.16 4.144 9.883 6.719 16.219 6.719 12.703 0 23-10.298 23-23 0-6.335-2.575-12.06-6.719-16.219z" style="opacity:.05"/>
 <path d="m41.28 8.781c3.712 4.085 5.969 9.514 5.969 15.469 0 12.703-10.297 23-23 23-5.954 0-11.384-2.256-15.469-5.969 4.113 3.854 9.637 6.219 15.719 6.219 12.703 0 23-10.298 23-23 0-6.081-2.364-11.606-6.219-15.719z" style="opacity:.1"/>
 <path d="m31.25 2.375c8.615 3.154 14.75 11.417 14.75 21.13 0 12.426-10.07 22.5-22.5 22.5-9.708 0-17.971-6.135-21.12-14.75a23 23 0 0 0 44.875-7 23 23 0 0 0-16-21.875z" style="opacity:.2"/>
 <path d="m24 1c-1.721 0-3.387 0.204-5 0.563v44.875c1.613 0.358 3.279 0.563 5 0.563s3.387-0.204 5-0.563v-44.875c-1.613-0.358-3.279-0.563-5-0.563z" style="fill:url(#linearGradient3775)"/>
 <path d="m9 6.563c-4.897 4.218-8 10.467-8 17.438s3.103 13.22 8 17.438v-34.875z" style="fill:url(#linearGradient3775)"/>
 <path d="m19 1.563c-3.76 0.835-7.182 2.573-10 5v34.875c2.818 2.427 6.24 4.165 10 5v-44.875z" style="fill:url(#linearGradient3801)"/>
 <path d="m29 1.563v44.875c3.76-0.835 7.182-2.573 10-5v-34.875c-2.818-2.427-6.24-4.165-10-5z" style="fill:url(#linearGradient3801)"/>
 <path d="m39 6.563v34.875c4.897-4.218 8-10.467 8-17.438s-3.103-13.22-8-17.438z" style="fill:url(#linearGradient3775)"/>
 <path d="m40.03 7.531c3.712 4.084 5.969 9.514 5.969 15.469 0 12.703-10.297 23-23 23-5.954 0-11.384-2.256-15.469-5.969 4.178 4.291 10.01 6.969 16.469 6.969 12.703 0 23-10.298 23-23 0-6.462-2.677-12.291-6.969-16.469z" style="opacity:.1"/>
 <g transform="matrix(.13611 0 0 .12903 8.7848 12.375)" style="fill-opacity:.284">
  <path d="m210.97 54.719-11.191-40.43-15.316-13.316h-31.978c-23.661 16.427-36.855 15.92-61.03 0h-32.712l-14.214 13.393-13.557 40.35 30 20 2.881-16.16 7.119 136.16 100-5 5-130 5 15z" style="fill-opacity:.118;fill-rule:evenodd"/>
 </g>
 <g transform="matrix(1.0316 0 0 1.0346 -.74325 -.568)">
  <g transform="matrix(.13194 0 0 .12472 8.2669 11.544)" style="fill:#d00">
   <path d="m210.97 54.719-11.191-40.43-15.316-13.316h-30.94c-23.661 16.427-37.1 15.92-61.28 0h-33.506l-14.214 13.393-13.557 40.35 30 20 2.881-16.16 7.119 136.16 100-5 5-130 5 15z" style="fill-rule:evenodd;fill:#db1515"/>
  </g>
  <path d="m19.751 28.38 0.058-1.318 0.87-0.075s0.182-3.281 0.338-5.884l-1.073 0.339 0.24-1.901 2.885-0.87-0.449 8.169 0.869-0.076-0.053 1.331z" style="fill:#f5f5f5"/>
  <path d="m24.914 28.38 0.058-1.318 0.87-0.075s0.182-3.281 0.338-5.884l-1.073 0.339 0.24-1.901 2.885-0.87-0.449 8.169 0.869-0.076-0.053 1.331z" style="fill:#f5f5f5"/>
 </g>
</svg>
