<svg xmlns="http://www.w3.org/2000/svg" viewBox="0 0 48 48">
  <defs>
    <linearGradient id="a" gradientUnits="userSpaceOnUse" gradientTransform="rotate(-90 24 24)" x1="1" x2="47">
      <stop stop-color="#e4e4e4"/>
      <stop offset="1" stop-color="#eee"/>
    </linearGradient>
  </defs>
  <path d="M36.31 5c5.859 4.062 9.688 10.831 9.688 18.5 0 12.426-10.07 22.5-22.5 22.5-7.669 0-14.438-3.828-18.5-9.688a23.24 23.24 0 0 0 3.781 4.969 22.923 22.923 0 0 0 15.469 5.969c12.703 0 23-10.298 23-23a22.92 22.92 0 0 0-5.969-15.469A23.216 23.216 0 0 0 36.31 5zm4.969 3.781A22.911 22.911 0 0 1 47.498 24.5c0 12.703-10.297 23-23 23a22.909 22.909 0 0 1-15.719-6.219C12.939 45.425 18.662 48 24.998 48c12.703 0 23-10.298 23-23 0-6.335-2.575-12.06-6.719-16.219z" opacity=".05"/>
  <path d="M41.28 8.781a22.923 22.923 0 0 1 5.969 15.469c0 12.703-10.297 23-23 23A22.92 22.92 0 0 1 8.78 41.281 22.911 22.911 0 0 0 24.499 47.5c12.703 0 23-10.298 23-23A22.909 22.909 0 0 0 41.28 8.781z" opacity=".1"/>
  <path d="M31.25 2.375C39.865 5.529 46 13.792 46 23.505c0 12.426-10.07 22.5-22.5 22.5-9.708 0-17.971-6.135-21.12-14.75a23 23 0 0 0 44.875-7 23 23 0 0 0-16-21.875z" opacity=".2"/>
  <path d="M2.094 17A23.001 23.001 0 0 0 1 24c0 12.703 10.297 23 23 23s23-10.297 23-23a22.97 22.97 0 0 0-1.094-7z" fill="url(#a)"/>
  <path d="M4.281 12.188zm-.813 1.469zm40.25-1.469zm.813 1.469zM2.687 15.345zm-.594 1.656c-.106.332-.221.662-.313 1h44.44c-.091-.338-.207-.668-.313-1zm43.813 0z" opacity=".1" fill-rule="evenodd"/>
  <path d="M24 1C13.738 1 5.055 7.72 2.094 17h43.813C42.945 7.72 34.263 1 24.001 1z" fill="#d64936" fill-rule="evenodd"/>
  <path d="M31 12a1.997 1.997 0 1 1-3.996 0c0-1.102.891-1.996 2-1.996 1.105 0 1.996.898 1.996 1.996m0 0M36 12a2 2 0 0 1-2 2 1.996 1.996 0 0 1-1.996-2c0-1.102.891-1.996 1.996-1.996A2 2 0 0 1 36 12m0 0" fill="#7f2c20"/>
  <path d="M34 13c1 0 1-1 1-1s0-.996-1-.996h-4.996c-1 0-1 .996-1 .996s0 1 1 1M34 13" fill="#dcdcdc"/>
  <path d="M16 12c0 1.105-.891 2-1.996 2A1.998 1.998 0 1 1 16 12m0 0M21 12c0 1.105-.891 2-1.996 2A1.998 1.998 0 1 1 21 12m0 0" fill="#7f2c20"/>
  <path d="M14 13c-1 0-1-1-1-1s0-.996 1-.996h5c1 0 1 .996 1 .996s0 1-1 1m-5 0" fill="#dcdcdc"/>
  <path d="M40.03 7.531A22.922 22.922 0 0 1 45.999 23c0 12.703-10.297 23-23 23A22.92 22.92 0 0 1 7.53 40.031C11.708 44.322 17.54 47 23.999 47c12.703 0 23-10.298 23-23 0-6.462-2.677-12.291-6.969-16.469z" opacity=".1"/>
  <g opacity=".12">
    <path d="M20.62 37.814h-1.691V29.31v-.857q.009-.456.02-.904.018-.456.028-.867.019-.419.028-.735-.163.167-.288.288-.125.122-.26.233l-.268.242-.347.289-1.421 1.127-.922-1.145 3.679-2.785h1.44v13.618zM29.86 29.458q.951 0 1.768.261.825.252 1.43.755.615.503.961 1.248.346.746.346 1.724 0 1.061-.327 1.91-.327.847-.97 1.434t-1.594.904q-.941.307-2.17.307-.49 0-.97-.046-.47-.047-.914-.14-.432-.084-.825-.224-.394-.14-.711-.326v-1.602q.317.215.74.382.432.168.902.28.47.112.941.177.48.056.884.056.759 0 1.355-.167.595-.177 1.008-.54.413-.364.634-.913.221-.55.221-1.304 0-1.333-.845-2.03-.845-.709-2.46-.709-.258 0-.566.028-.298.018-.605.056-.298.037-.577.084-.27.037-.47.074l-.864-.53.528-6.409h6.628v1.546H28.23l-.375 3.903q.308-.057.807-.122.51-.065 1.2-.065z"/>
  </g>
  <g fill="#868686">
    <path d="M19.62 36.81h-1.691v-8.505-.856l.019-.904q.02-.456.028-.867.02-.42.029-.736-.164.168-.289.289-.125.121-.259.232l-.269.243-.346.288-1.422 1.128-.922-1.146 3.68-2.784h1.44V36.81zM28.86 28.458q.951 0 1.767.26.826.252 1.431.755.615.503.96 1.249.347.745.347 1.723 0 1.062-.327 1.91-.327.847-.97 1.434t-1.594.904q-.941.308-2.171.308-.49 0-.97-.047-.47-.046-.913-.14-.432-.083-.825-.223-.394-.14-.711-.326v-1.602q.317.214.739.382.433.167.903.28.47.112.941.177.48.056.884.056.758 0 1.354-.167.595-.178 1.009-.541.413-.363.633-.913.222-.55.222-1.304 0-1.332-.845-2.03-.845-.708-2.46-.708-.259 0-.566.027-.298.019-.606.056-.297.038-.576.084-.27.038-.47.075l-.865-.53.528-6.41h6.629v1.547H27.23l-.375 3.902q.308-.056.807-.121.509-.065 1.2-.065z"/>
  </g>
</svg>
