<svg viewBox="0 0 48 48" xmlns="http://www.w3.org/2000/svg">
 <defs>
  <linearGradient id="linearGradient3189" x1="1" x2="47" gradientTransform="matrix(0 -1 1 0 -1.5e-6 48)" gradientUnits="userSpaceOnUse">
   <stop style="stop-color:#e4e4e4" offset="0"/>
   <stop style="stop-color:#eee" offset="1"/>
  </linearGradient>
 </defs>
 <path d="m36.31 5c5.859 4.062 9.688 10.831 9.688 18.5 0 12.426-10.07 22.5-22.5 22.5-7.669 0-14.438-3.828-18.5-9.688 1.037 1.822 2.306 3.499 3.781 4.969 4.085 3.712 9.514 5.969 15.469 5.969 12.703 0 23-10.298 23-23 0-5.954-2.256-11.384-5.969-15.469-1.469-1.475-3.147-2.744-4.969-3.781zm4.969 3.781c3.854 4.113 6.219 9.637 6.219 15.719 0 12.703-10.297 23-23 23-6.081 0-11.606-2.364-15.719-6.219 4.16 4.144 9.883 6.719 16.219 6.719 12.703 0 23-10.298 23-23 0-6.335-2.575-12.06-6.719-16.219z" style="opacity:.05"/>
 <path d="m41.28 8.781c3.712 4.085 5.969 9.514 5.969 15.469 0 12.703-10.297 23-23 23-5.954 0-11.384-2.256-15.469-5.969 4.113 3.854 9.637 6.219 15.719 6.219 12.703 0 23-10.298 23-23 0-6.081-2.364-11.606-6.219-15.719z" style="opacity:.1"/>
 <path d="m31.25 2.375c8.615 3.154 14.75 11.417 14.75 21.13 0 12.426-10.07 22.5-22.5 22.5-9.708 0-17.971-6.135-21.12-14.75a23 23 0 0 0 44.875-7 23 23 0 0 0-16-21.875z" style="opacity:.2"/>
 <path d="m2.094 17c-0.704 2.207-1.094 4.559-1.094 7 0 12.703 10.297 23 23 23s23-10.297 23-23c0-2.441-0.389-4.793-1.094-7z" style="fill:url(#linearGradient3189)"/>
 <path d="m4.281 12.188c-0.287 0.478-0.56 0.969-0.813 1.469 0.25-0.495 0.529-0.995 0.813-1.469zm-0.813 1.469c-0.253 0.501-0.502 1.01-0.719 1.531 0.218-0.527 0.463-1.025 0.719-1.531zm40.25-1.469c0.284 0.473 0.563 0.974 0.813 1.469-0.252-0.5-0.525-0.991-0.813-1.469zm0.813 1.469c0.256 0.507 0.5 1 0.719 1.531-0.216-0.521-0.466-1.031-0.719-1.531zm-41.844 1.688c-0.221 0.543-0.414 1.093-0.594 1.656 0.178-0.558 0.375-1.118 0.594-1.656zm-0.594 1.656c-0.106 0.332-0.221 0.662-0.313 1h44.44c-0.091-0.338-0.207-0.668-0.313-1zm43.813 0c-0.18-0.563-0.373-1.113-0.594-1.656 0.219 0.539 0.416 1.098 0.594 1.656z" style="fill-rule:evenodd;opacity:.1"/>
 <path d="m24 1c-10.262 0-18.945 6.72-21.906 16h43.813c-2.962-9.28-11.644-16-21.906-16z" style="fill-rule:evenodd;fill:#3685d6"/>
 <path d="m31 12c0 1.105-0.891 2-1.996 2-1.109 0-2-0.895-2-2 0-1.102 0.891-1.996 2-1.996 1.105 0 1.996 0.898 1.996 1.996" style="fill:#20517f"/>
 <path d="m36 12c0 1.105-0.895 2-2 2s-1.996-0.895-1.996-2c0-1.102 0.891-1.996 1.996-1.996s2 0.898 2 1.996" style="fill:#20517f"/>
 <path d="m34 13c1 0 1-1 1-1s0-0.996-1-0.996h-4.996c-1 0-1 0.996-1 0.996s0 1 1 1m4.996 0" style="fill:#dcdcdc"/>
 <path d="m16 12c0 1.105-0.891 2-1.996 2s-2-0.895-2-2c0-1.102 0.895-1.996 2-1.996s1.996 0.898 1.996 1.996" style="fill:#20517f"/>
 <path d="m21 12c0 1.105-0.891 2-1.996 2s-2-0.895-2-2c0-1.102 0.895-1.996 2-1.996s1.996 0.898 1.996 1.996" style="fill:#20517f"/>
 <path d="m14 13c-1 0-1-1-1-1s0-0.996 1-0.996h5c1 0 1 0.996 1 0.996s0 1-1 1m-5 0" style="fill:#dcdcdc"/>
 <path d="m40.03 7.531c3.712 4.084 5.969 9.514 5.969 15.469 0 12.703-10.297 23-23 23-5.954 0-11.384-2.256-15.469-5.969 4.178 4.291 10.01 6.969 16.469 6.969 12.703 0 23-10.298 23-23 0-6.462-2.677-12.291-6.969-16.469z" style="opacity:.1"/>
 <g transform="scale(1.0155 .98474)" style="opacity:.12">
  <path d="m20.305 38.4h-1.665v-8.636q0-0.407 0-0.87 9e-3 -0.463 0.019-0.918 0.019-0.463 0.028-0.88 0.019-0.426 0.028-0.747-0.161 0.17-0.284 0.293t-0.255 0.236q-0.123 0.114-0.265 0.246-0.142 0.123-0.341 0.293l-1.4 1.145-0.908-1.163 3.623-2.828h1.419v13.829z"/>
  <path d="m33.973 30.473q0 0.993-0.104 1.986-0.095 0.984-0.35 1.882-0.246 0.899-0.681 1.684-0.435 0.776-1.107 1.343-0.672 0.568-1.608 0.899-0.936 0.322-2.195 0.322-0.18 0-0.397-1e-3 -0.218-1e-3 -0.435-0.038-0.218-0.019-0.426-0.047t-0.369-0.076v-1.476q0.331 0.123 0.747 0.18t0.823 0.057q1.277 0 2.1-0.445t1.305-1.201q0.482-0.766 0.681-1.778 0.208-1.012 0.255-2.138h-0.123q-0.189 0.341-0.454 0.634t-0.624 0.511-0.813 0.341-1.012 0.123q-0.899 0-1.627-0.274-0.728-0.284-1.239-0.823t-0.795-1.315q-0.274-0.785-0.274-1.788 0-1.078 0.293-1.939 0.303-0.87 0.842-1.466 0.549-0.605 1.324-0.927 0.785-0.322 1.75-0.322 0.955 0 1.778 0.369t1.428 1.126 0.955 1.911q0.35 1.145 0.35 2.696zm-4.493-4.644q-0.568 0-1.04 0.189-0.463 0.189-0.804 0.586t-0.53 1q-0.18 0.596-0.18 1.419 0 0.662 0.151 1.192 0.161 0.52 0.473 0.889t0.776 0.568q0.473 0.199 1.097 0.199 0.643 0 1.163-0.218 0.52-0.227 0.889-0.577 0.369-0.359 0.568-0.813 0.208-0.454 0.208-0.908 0-0.634-0.18-1.258-0.17-0.634-0.52-1.135-0.341-0.511-0.861-0.823t-1.211-0.312z"/>
 </g>
 <g transform="scale(1.0155 .98474)" style="fill:#868686">
  <path d="m19.32 37.38h-1.665v-8.636q0-0.407 0-0.87 9e-3 -0.463 0.019-0.918 0.019-0.463 0.028-0.88 0.019-0.426 0.028-0.747-0.161 0.17-0.284 0.293t-0.255 0.236q-0.123 0.114-0.265 0.246-0.142 0.123-0.341 0.293l-1.4 1.145-0.908-1.163 3.623-2.828h1.419v13.829z"/>
  <path d="m32.989 29.458q0 0.993-0.104 1.986-0.095 0.984-0.35 1.882-0.246 0.899-0.681 1.684-0.435 0.776-1.107 1.343-0.672 0.568-1.608 0.899-0.936 0.322-2.195 0.322-0.18 0-0.397-1e-3 -0.218-1e-3 -0.435-0.038-0.218-0.019-0.426-0.047t-0.369-0.076v-1.476q0.331 0.123 0.747 0.18t0.823 0.057q1.277 0 2.1-0.445t1.305-1.201q0.482-0.766 0.681-1.778 0.208-1.012 0.255-2.138h-0.123q-0.189 0.341-0.454 0.634t-0.624 0.511-0.813 0.341-1.012 0.123q-0.899 0-1.627-0.274-0.728-0.284-1.239-0.823t-0.795-1.315q-0.274-0.785-0.274-1.788 0-1.078 0.293-1.939 0.303-0.87 0.842-1.466 0.549-0.605 1.324-0.927 0.785-0.322 1.75-0.322 0.955 0 1.778 0.369t1.428 1.126 0.955 1.911q0.35 1.145 0.35 2.696zm-4.493-4.644q-0.568 0-1.04 0.189-0.463 0.189-0.804 0.586t-0.53 1q-0.18 0.596-0.18 1.419 0 0.662 0.151 1.192 0.161 0.52 0.473 0.889t0.776 0.568q0.473 0.199 1.097 0.199 0.643 0 1.163-0.218 0.52-0.227 0.889-0.577 0.369-0.359 0.568-0.813 0.208-0.454 0.208-0.908 0-0.634-0.18-1.258-0.17-0.634-0.52-1.135-0.341-0.511-0.861-0.823t-1.211-0.312z"/>
 </g>
</svg>
