<svg viewBox="0 0 48 48" xmlns="http://www.w3.org/2000/svg">
  <defs>
    <linearGradient id="a" x2="47" x1="1" gradientUnits="userSpaceOnUse" gradientTransform="rotate(-90 24 24)">
      <stop offset="0" stop-color="#f2d5c6"/>
      <stop offset="1" stop-color="#f6e1d6"/>
    </linearGradient>
  </defs>
  <path d="M36.31 5c5.859 4.062 9.688 10.831 9.688 18.5 0 12.426-10.07 22.5-22.5 22.5-7.669 0-14.438-3.828-18.5-9.688a23.24 23.24 0 0 0 3.781 4.969 22.923 22.923 0 0 0 15.469 5.969c12.703 0 23-10.298 23-23a22.92 22.92 0 0 0-5.969-15.469A23.216 23.216 0 0 0 36.31 5zm4.969 3.781A22.911 22.911 0 0 1 47.498 24.5c0 12.703-10.297 23-23 23a22.909 22.909 0 0 1-15.719-6.219C12.939 45.425 18.662 48 24.998 48c12.703 0 23-10.298 23-23 0-6.335-2.575-12.06-6.719-16.219z" opacity=".05"/>
  <path d="M41.28 8.781a22.923 22.923 0 0 1 5.969 15.469c0 12.703-10.297 23-23 23A22.92 22.92 0 0 1 8.78 41.281 22.911 22.911 0 0 0 24.499 47.5c12.703 0 23-10.298 23-23A22.909 22.909 0 0 0 41.28 8.781z" opacity=".1"/>
  <path d="M31.25 2.375C39.865 5.529 46 13.792 46 23.505c0 12.426-10.07 22.5-22.5 22.5-9.708 0-17.971-6.135-21.12-14.75a23 23 0 0 0 44.875-7 23 23 0 0 0-16-21.875z" opacity=".2"/>
  <path d="M24 1c12.703 0 23 10.297 23 23S36.703 47 24 47 1 36.703 1 24 11.297 1 24 1z" fill="url(#a)"/>
  <path d="M25 9c-8.284-.005-15 6.716-15 15s6.716 15.004 15 15a14.989 14.989 0 0 0 11.982-6h-2.621A12.986 12.986 0 0 1 25 37c-7.18.004-13-5.82-13-13s5.82-13.001 13-13c3.539 0 6.924 1.446 9.375 4h2.601A14.99 14.99 0 0 0 25 9z" fill="#1a1a1a" opacity=".6"/>
  <path d="M40.03 7.531A22.922 22.922 0 0 1 45.999 23c0 12.703-10.297 23-23 23A22.92 22.92 0 0 1 7.53 40.031C11.708 44.322 17.54 47 23.999 47c12.703 0 23-10.298 23-23 0-6.462-2.677-12.291-6.969-16.469z" opacity=".1"/>
  <g opacity=".1">
    <path d="M35.998 11.001c-1.636.934-3.59 1.768-5.064 2.647-2.936 1.807-6.145 3.448-8.372 6.057-2.12 2.485-3.61 5.571-4.388 8.727-.34 1.376-.315 3.548-.242 5.17l-3.936 5.4 2.12-.197 2.913-4.074 4.386.025-2.97-1.348 4.466-.701-1.042-.736 4.784-4.396z" fill-rule="evenodd"/>
  </g>
  <g fill-rule="evenodd">
    <path d="M34.998 10l-5.06 2.645s-6.146 3.45-8.373 6.058c-2.121 2.486-3.608 5.573-4.387 8.729-.372 1.51-.22 5.611-.22 5.611l.702.686 4.758.027-2.97-1.35 4.466-.7-1.044-.735 4.787-4.397z" fill="#3771c8"/>
    <path d="M15.12 37.803L12.998 38l19.46-26.684 2.54-1.317z" fill="#214478"/>
  </g>
</svg>
