<svg xmlns="http://www.w3.org/2000/svg" viewBox="0 0 48 48">
  <defs>
    <linearGradient id="a" x1="1" x2="47" gradientUnits="userSpaceOnUse" gradientTransform="rotate(-90 24 24)">
      <stop stop-color="#e4e4e4"/>
      <stop offset="1" stop-color="#eee"/>
    </linearGradient>
  </defs>
  <path d="M36.31 5c5.859 4.062 9.688 10.831 9.688 18.5 0 12.426-10.07 22.5-22.5 22.5-7.669 0-14.438-3.828-18.5-9.688a23.24 23.24 0 0 0 3.781 4.969 22.923 22.923 0 0 0 15.469 5.969c12.703 0 23-10.298 23-23a22.92 22.92 0 0 0-5.969-15.469A23.216 23.216 0 0 0 36.31 5zm4.969 3.781A22.911 22.911 0 0 1 47.498 24.5c0 12.703-10.297 23-23 23a22.909 22.909 0 0 1-15.719-6.219C12.939 45.425 18.662 48 24.998 48c12.703 0 23-10.298 23-23 0-6.335-2.575-12.06-6.719-16.219z" opacity=".05"/>
  <path d="M41.28 8.781a22.923 22.923 0 0 1 5.969 15.469c0 12.703-10.297 23-23 23A22.92 22.92 0 0 1 8.78 41.281 22.911 22.911 0 0 0 24.499 47.5c12.703 0 23-10.298 23-23A22.909 22.909 0 0 0 41.28 8.781z" opacity=".1"/>
  <path d="M31.25 2.375C39.865 5.529 46 13.792 46 23.505c0 12.426-10.07 22.5-22.5 22.5-9.708 0-17.971-6.135-21.12-14.75a23 23 0 0 0 44.875-7 23 23 0 0 0-16-21.875z" opacity=".2"/>
  <path d="M24 1c12.703 0 23 10.297 23 23S36.703 47 24 47 1 36.703 1 24 11.297 1 24 1z" fill="url(#a)"/>
  <g>
    <path d="M40.03 7.531A22.922 22.922 0 0 1 45.999 23c0 12.703-10.297 23-23 23A22.92 22.92 0 0 1 7.53 40.031C11.708 44.322 17.54 47 23.999 47c12.703 0 23-10.298 23-23 0-6.462-2.677-12.291-6.969-16.469z" opacity=".1"/>
  </g>
  <g>
    <g fill-opacity=".098">
      <path d="M22.662 12.203c-4.097-.021-7.346 6.984-5.662 11.203 4.653-4.534 9.09-3.73 8.184-9.443.491.591 1.173 1.605 1.318 2.982.227 2.155-.843 5.189-6.754 8.637l.504.865c6.091-3.553 7.519-7.02 7.246-9.613-.191-1.808-.939-2.289-1.516-2.928 1.555.236 2.959.589 3.619 1.447.839 1.091 1.142 2.597 1.143 4.158 0 3.122-1.211 6.326-1.211 6.326l.934.359s1.282-3.307 1.281-6.686c0-1.689-.322-3.421-1.357-4.768-1.851-1.9-3.914-2.137-6.27-2.229a3.8 3.8 0 0 0-1.459-.313z" white-space="normal" solid-color="#000000" color="#000"/>
      <path d="M20 25c-3.313 0-6 2.688-6 6 0 3.313 2.688 6 6 6 1.715 0 3.25-.723 4.344-1.875A6.919 6.919 0 0 1 23 31c0-1.547.492-2.965 1.344-4.125A5.966 5.966 0 0 0 20 25m0 0"/>
      <path d="M36 31c0 3.313-2.688 6-6 6-3.313 0-6-2.688-6-6 0-3.313 2.688-6 6-6 3.313 0 6 2.688 6 6m0 0"/>
    </g>
    <path d="M21.662 11.203c-4.097-.021-7.346 6.984-5.662 11.203 4.653-4.534 9.09-3.73 8.184-9.443.491.591 1.173 1.605 1.318 2.982.227 2.155-.843 5.189-6.754 8.637l.504.865c6.091-3.553 7.519-7.02 7.246-9.613-.191-1.808-.939-2.289-1.516-2.928 1.555.236 2.959.589 3.619 1.447.839 1.091 1.142 2.597 1.143 4.158 0 3.122-1.211 6.326-1.211 6.326l.934.359s1.282-3.307 1.281-6.686c0-1.689-.322-3.421-1.357-4.768-1.851-1.9-3.914-2.137-6.27-2.229a3.8 3.8 0 0 0-1.459-.313z" white-space="normal" solid-color="#000000" fill="#4d9a0e" color="#000"/>
    <path d="M19 24c-3.313 0-6 2.688-6 6 0 3.313 2.688 6 6 6 1.715 0 3.25-.723 4.344-1.875A6.919 6.919 0 0 1 22 30c0-1.547.492-2.965 1.344-4.125A5.966 5.966 0 0 0 19 24m0 0" fill="#9b0505"/>
    <path d="M35 30c0 3.313-2.688 6-6 6-3.313 0-6-2.688-6-6 0-3.313 2.688-6 6-6 3.313 0 6 2.688 6 6m0 0" fill="#9b0505"/>
  </g>
</svg>
