<svg viewBox="0 0 48 48" xmlns="http://www.w3.org/2000/svg">
 <defs>
  <linearGradient id="linearGradient3764" x2="0" y1="47" y2="1" gradientUnits="userSpaceOnUse">
   <stop style="stop-color:#67ac5e" offset="0"/>
   <stop style="stop-color:#74b36b" offset="1"/>
  </linearGradient>
 </defs>
 <path d="m36.31 5c5.859 4.062 9.688 10.831 9.688 18.5 0 12.426-10.07 22.5-22.5 22.5-7.669 0-14.438-3.828-18.5-9.688 1.037 1.822 2.306 3.499 3.781 4.969 4.085 3.712 9.514 5.969 15.469 5.969 12.703 0 23-10.298 23-23 0-5.954-2.256-11.384-5.969-15.469-1.469-1.475-3.147-2.744-4.969-3.781zm4.969 3.781c3.854 4.113 6.219 9.637 6.219 15.719 0 12.703-10.297 23-23 23-6.081 0-11.606-2.364-15.719-6.219 4.16 4.144 9.883 6.719 16.219 6.719 12.703 0 23-10.298 23-23 0-6.335-2.575-12.06-6.719-16.219z" style="opacity:.05"/>
 <path d="m41.28 8.781c3.712 4.085 5.969 9.514 5.969 15.469 0 12.703-10.297 23-23 23-5.954 0-11.384-2.256-15.469-5.969 4.113 3.854 9.637 6.219 15.719 6.219 12.703 0 23-10.298 23-23 0-6.081-2.364-11.606-6.219-15.719z" style="opacity:.1"/>
 <path d="m31.25 2.375c8.615 3.154 14.75 11.417 14.75 21.13 0 12.426-10.07 22.5-22.5 22.5-9.708 0-17.971-6.135-21.12-14.75a23 23 0 0 0 44.875-7 23 23 0 0 0-16-21.875z" style="opacity:.2"/>
 <path d="m24 1c12.703 0 23 10.297 23 23s-10.297 23-23 23-23-10.297-23-23 10.297-23 23-23z" style="fill:url(#linearGradient3764)"/>
 <g transform="translate(1,1)">
  <g style="opacity:.1">
   <path d="m25.23 11.371c-6.313 0-11.426 5.074-11.426 11.328 0 2.141 0.598 4.145 1.641 5.852l-2.063 6.074 6.324-2.01c1.637 0.898 3.52 1.41 5.523 1.41 6.309 0 11.422-5.07 11.422-11.328 0-6.254-5.113-11.328-11.422-11.328m0 20.852c-1.953 0-3.77-0.578-5.285-1.574l-3.691 1.172 1.199-3.535c-1.148-1.57-1.828-3.5-1.828-5.586 0-5.25 4.309-9.523 9.605-9.523 5.293 0 9.602 4.273 9.602 9.523 0 5.254-4.309 9.523-9.602 9.523" style="fill-rule:evenodd"/>
   <path d="m22.547 18.02c-0.188-0.441-0.328-0.457-0.613-0.473-0.098-4e-3 -0.207-8e-3 -0.32-8e-3 -0.371 0-0.75 0.109-0.98 0.34-0.281 0.285-0.98 0.949-0.98 2.316s1 2.688 1.141 2.871c0.141 0.188 1.961 3.03 4.785 4.191 2.207 0.906 2.863 0.828 3.367 0.719 0.73-0.16 1.652-0.695 1.883-1.344 0.234-0.648 0.234-1.203 0.164-1.32-0.07-0.113-0.258-0.184-0.535-0.324-0.281-0.137-1.656-0.809-1.914-0.902-0.258-0.094-0.496-0.063-0.691 0.207-0.273 0.375-0.535 0.758-0.754 0.984-0.168 0.18-0.441 0.207-0.68 0.105-0.309-0.129-1.18-0.434-2.25-1.379-0.832-0.734-1.395-1.645-1.559-1.922s-0.016-0.441 0.113-0.594c0.141-0.172 0.273-0.297 0.414-0.457 0.141-0.164 0.219-0.25 0.313-0.438 0.094-0.184 0.031-0.375-0.039-0.512-0.07-0.141-0.633-1.508-0.863-2.063" style="fill-rule:evenodd"/>
  </g>
 </g>
 <path d="m25.23 11.371c-6.313 0-11.426 5.074-11.426 11.328 0 2.141 0.598 4.145 1.641 5.852l-2.063 6.074 6.324-2.01c1.637 0.898 3.52 1.41 5.523 1.41 6.309 0 11.422-5.07 11.422-11.328 0-6.254-5.113-11.328-11.422-11.328m0 20.852c-1.953 0-3.77-0.578-5.285-1.574l-3.691 1.172 1.199-3.535c-1.148-1.57-1.828-3.5-1.828-5.586 0-5.25 4.309-9.523 9.605-9.523 5.293 0 9.602 4.273 9.602 9.523 0 5.254-4.309 9.523-9.602 9.523" style="fill-rule:evenodd;fill:#fff"/>
 <path d="m22.547 18.02c-0.188-0.441-0.328-0.457-0.613-0.473-0.098-4e-3 -0.207-8e-3 -0.32-8e-3 -0.371 0-0.75 0.109-0.98 0.34-0.281 0.285-0.98 0.949-0.98 2.316s1 2.688 1.141 2.871c0.141 0.188 1.961 3.03 4.785 4.191 2.207 0.906 2.863 0.828 3.367 0.719 0.73-0.16 1.652-0.695 1.883-1.344 0.234-0.648 0.234-1.203 0.164-1.32-0.07-0.113-0.258-0.184-0.535-0.324-0.281-0.137-1.656-0.809-1.914-0.902-0.258-0.094-0.496-0.063-0.691 0.207-0.273 0.375-0.535 0.758-0.754 0.984-0.168 0.18-0.441 0.207-0.68 0.105-0.309-0.129-1.18-0.434-2.25-1.379-0.832-0.734-1.395-1.645-1.559-1.922s-0.016-0.441 0.113-0.594c0.141-0.172 0.273-0.297 0.414-0.457 0.141-0.164 0.219-0.25 0.313-0.438 0.094-0.184 0.031-0.375-0.039-0.512-0.07-0.141-0.633-1.508-0.863-2.063" style="fill-rule:evenodd;fill:#fff"/>
 <path d="m40.03 7.531c3.712 4.084 5.969 9.514 5.969 15.469 0 12.703-10.297 23-23 23-5.954 0-11.384-2.256-15.469-5.969 4.178 4.291 10.01 6.969 16.469 6.969 12.703 0 23-10.298 23-23 0-6.462-2.677-12.291-6.969-16.469z" style="opacity:.1"/>
</svg>
