<svg viewBox="0 0 48 48" xmlns="http://www.w3.org/2000/svg">
 <defs>
  <linearGradient id="linearGradient3764" x1="1" x2="47" gradientTransform="matrix(0 -1 1 0 -1.5e-6 48)" gradientUnits="userSpaceOnUse">
   <stop style="stop-color:#e4e4e4" offset="0"/>
   <stop style="stop-color:#eee" offset="1"/>
  </linearGradient>
 </defs>
 <path d="m36.31 5c5.859 4.062 9.688 10.831 9.688 18.5 0 12.426-10.07 22.5-22.5 22.5-7.669 0-14.438-3.828-18.5-9.688 1.037 1.822 2.306 3.499 3.781 4.969 4.085 3.712 9.514 5.969 15.469 5.969 12.703 0 23-10.298 23-23 0-5.954-2.256-11.384-5.969-15.469-1.469-1.475-3.147-2.744-4.969-3.781zm4.969 3.781c3.854 4.113 6.219 9.637 6.219 15.719 0 12.703-10.297 23-23 23-6.081 0-11.606-2.364-15.719-6.219 4.16 4.144 9.883 6.719 16.219 6.719 12.703 0 23-10.298 23-23 0-6.335-2.575-12.06-6.719-16.219z" style="opacity:.05"/>
 <path d="m41.28 8.781c3.712 4.085 5.969 9.514 5.969 15.469 0 12.703-10.297 23-23 23-5.954 0-11.384-2.256-15.469-5.969 4.113 3.854 9.637 6.219 15.719 6.219 12.703 0 23-10.298 23-23 0-6.081-2.364-11.606-6.219-15.719z" style="opacity:.1"/>
 <path d="m31.25 2.375c8.615 3.154 14.75 11.417 14.75 21.13 0 12.426-10.07 22.5-22.5 22.5-9.708 0-17.971-6.135-21.12-14.75a23 23 0 0 0 44.875-7 23 23 0 0 0-16-21.875z" style="opacity:.2"/>
 <path d="m24 1c12.703 0 23 10.297 23 23s-10.297 23-23 23-23-10.297-23-23 10.297-23 23-23z" style="fill:url(#linearGradient3764)"/>
 <g transform="translate(1,1)">
  <g style="opacity:.1">
   <path d="m23.473 11c-0.977 0-1.934 0.109-2.848 0.297-3.848 11.438 4.684 21.18 15.727 16.746 0.418-1.258 0.648-2.602 0.648-4 0-7.207-6.05-13.04-13.527-13.04"/>
   <path d="m14.727 16.06c-4.629 4.215-4.992 11.695-0.82 16.711 4.176 5.01 11.313 5.656 15.938 1.445 1.273-1.16 2.219-2.566 2.84-4.098-4.059 1.148-8.641-0.188-11.668-3.824-3.03-3.633-3.664-8.57-2.02-12.613-1.539 0.438-3 1.223-4.27 2.383m0-4e-3"/>
  </g>
 </g>
 <path d="m23.473 11c-0.977 0-1.934 0.109-2.848 0.297-3.848 11.438 4.684 21.18 15.727 16.746 0.418-1.258 0.648-2.602 0.648-4 0-7.207-6.05-13.04-13.527-13.04" style="fill:#43bab8"/>
 <path d="m14.727 16.06c-4.629 4.215-4.992 11.695-0.82 16.711 4.176 5.01 11.313 5.656 15.938 1.445 1.273-1.16 2.219-2.566 2.84-4.098-4.059 1.148-8.641-0.188-11.668-3.824-3.03-3.633-3.664-8.57-2.02-12.613-1.539 0.438-3 1.223-4.27 2.383m0-4e-3" style="fill:#007877"/>
 <path d="m40.03 7.531c3.712 4.084 5.969 9.514 5.969 15.469 0 12.703-10.297 23-23 23-5.954 0-11.384-2.256-15.469-5.969 4.178 4.291 10.01 6.969 16.469 6.969 12.703 0 23-10.298 23-23 0-6.462-2.677-12.291-6.969-16.469z" style="opacity:.1"/>
</svg>
