<svg viewBox="0 0 48 48" xmlns="http://www.w3.org/2000/svg">
 <defs>
  <linearGradient id="linearGradient3764" x1="1" x2="47" gradientTransform="matrix(0 -1 1 0 -1.5e-6 48)" gradientUnits="userSpaceOnUse">
   <stop style="stop-color:#e4e4e4" offset="0"/>
   <stop style="stop-color:#eee" offset="1"/>
  </linearGradient>
 </defs>
 <path d="m36.31 5c5.859 4.062 9.688 10.831 9.688 18.5 0 12.426-10.07 22.5-22.5 22.5-7.669 0-14.438-3.828-18.5-9.688 1.037 1.822 2.306 3.499 3.781 4.969 4.085 3.712 9.514 5.969 15.469 5.969 12.703 0 23-10.298 23-23 0-5.954-2.256-11.384-5.969-15.469-1.469-1.475-3.147-2.744-4.969-3.781zm4.969 3.781c3.854 4.113 6.219 9.637 6.219 15.719 0 12.703-10.297 23-23 23-6.081 0-11.606-2.364-15.719-6.219 4.16 4.144 9.883 6.719 16.219 6.719 12.703 0 23-10.298 23-23 0-6.335-2.575-12.06-6.719-16.219z" style="opacity:.05"/>
 <path d="m41.28 8.781c3.712 4.085 5.969 9.514 5.969 15.469 0 12.703-10.297 23-23 23-5.954 0-11.384-2.256-15.469-5.969 4.113 3.854 9.637 6.219 15.719 6.219 12.703 0 23-10.298 23-23 0-6.081-2.364-11.606-6.219-15.719z" style="opacity:.1"/>
 <path d="m31.25 2.375c8.615 3.154 14.75 11.417 14.75 21.13 0 12.426-10.07 22.5-22.5 22.5-9.708 0-17.971-6.135-21.12-14.75a23 23 0 0 0 44.875-7 23 23 0 0 0-16-21.875z" style="opacity:.2"/>
 <path d="m24 1c12.703 0 23 10.297 23 23s-10.297 23-23 23-23-10.297-23-23 10.297-23 23-23z" style="fill:url(#linearGradient3764)"/>
 <g transform="translate(1,1)">
  <g style="opacity:.1">
   <path d="m24 13c-5.922 0-10.949 3.641-13 8.813l11 4.125 3-12.906c-0.332-0.023-0.66-0.031-1-0.031m1 0.031c-16.668 23.313-8.332 11.656 0 0" style="fill-rule:evenodd"/>
   <path d="m25 13.03 1 12.969h0.094l10.906-4.188c-1.934-4.879-6.52-8.398-12-8.781"/>
   <path d="m24 25.02c-2.762 0-5 2.238-5 5s2.238 5 5 5c2.758 0 5-2.238 5-5s-2.242-5-5-5m0 3c1.105 0 1.996 0.898 1.996 2 0 1.105-0.895 2-1.996 2-1.105 0-2-0.898-2-2 0-1.105 0.898-2 2-2"/>
  </g>
 </g>
 <path d="m24 13c-5.922 0-10.949 3.641-13 8.813l11 4.125 3-12.906c-0.332-0.023-0.66-0.031-1-0.031m1 0.031c-16.668 23.313-8.332 11.656 0 0" style="fill-rule:evenodd;fill:#76a4fa"/>
 <path d="m25 13.03 1 12.969h0.094l10.906-4.188c-1.934-4.879-6.52-8.398-12-8.781" style="fill:#427fec"/>
 <path d="m24 25.02c-2.762 0-5 2.238-5 5s2.238 5 5 5c2.758 0 5-2.238 5-5s-2.242-5-5-5m0 3c1.105 0 1.996 0.898 1.996 2 0 1.105-0.895 2-1.996 2-1.105 0-2-0.898-2-2 0-1.105 0.898-2 2-2" style="fill:#999"/>
 <path d="m40.03 7.531c3.712 4.084 5.969 9.514 5.969 15.469 0 12.703-10.297 23-23 23-5.954 0-11.384-2.256-15.469-5.969 4.178 4.291 10.01 6.969 16.469 6.969 12.703 0 23-10.298 23-23 0-6.462-2.677-12.291-6.969-16.469z" style="opacity:.1"/>
</svg>
