<svg xmlns="http://www.w3.org/2000/svg" viewBox="0 0 48 48">
  <defs>
    <linearGradient id="b" gradientUnits="userSpaceOnUse" y1="3" x2="0" y2="45">
      <stop stop-color="#fb753d"/>
      <stop offset="1" stop-color="#ff4c69"/>
    </linearGradient>
    <linearGradient id="a" gradientUnits="userSpaceOnUse" gradientTransform="rotate(-90 24 24)" x1="1" x2="47">
      <stop stop-color="#e4e4e4"/>
      <stop offset="1" stop-color="#eee"/>
    </linearGradient>
  </defs>
  <path d="M36.31 5c5.859 4.062 9.688 10.831 9.688 18.5 0 12.426-10.07 22.5-22.5 22.5-7.669 0-14.438-3.828-18.5-9.688a23.24 23.24 0 0 0 3.781 4.969 22.923 22.923 0 0 0 15.469 5.969c12.703 0 23-10.298 23-23a22.92 22.92 0 0 0-5.969-15.469A23.216 23.216 0 0 0 36.31 5zm4.969 3.781A22.911 22.911 0 0 1 47.498 24.5c0 12.703-10.297 23-23 23a22.909 22.909 0 0 1-15.719-6.219C12.939 45.425 18.662 48 24.998 48c12.703 0 23-10.298 23-23 0-6.335-2.575-12.06-6.719-16.219z" opacity=".05"/>
  <path d="M41.28 8.781a22.923 22.923 0 0 1 5.969 15.469c0 12.703-10.297 23-23 23A22.92 22.92 0 0 1 8.78 41.281 22.911 22.911 0 0 0 24.499 47.5c12.703 0 23-10.298 23-23A22.909 22.909 0 0 0 41.28 8.781z" opacity=".1"/>
  <path d="M31.25 2.375C39.865 5.529 46 13.792 46 23.505c0 12.426-10.07 22.5-22.5 22.5-9.708 0-17.971-6.135-21.12-14.75a23 23 0 0 0 44.875-7 23 23 0 0 0-16-21.875z" opacity=".2"/>
  <path d="M25 2c12.699 0 23 10.297 23 23 0 12.699-10.301 23-23 23C12.297 48 2 37.699 2 25 2 12.297 12.297 2 25 2m0 0" opacity=".1" fill-opacity=".502" fill-rule="evenodd"/>
  <path d="M1 24c0 1.019.059 2.02.188 3h45.625c.128-.984.188-1.981.188-3zm.563 5.03zm.531 1.969a22.833 22.833 0 0 0 1.219 3h41.38c.468-.967.888-1.963 1.219-3zm43.813 0zm-40.16 7a23.202 23.202 0 0 0 2.75 3h31c1-.912 1.924-1.925 2.75-3z" fill="url(#a)"/>
  <path d="M1 24c0 .334.017.669.031 1h45.938c.014-.331.031-.666.031-1zm1.125 7c.107.332.192.675.313 1h43.13c.121-.325.205-.668.313-1zm3.625 7c.259.34.533.676.813 1h34.875c.279-.324.553-.66.813-1z" opacity=".1" fill-rule="evenodd"/>
  <path d="M24 1C11.297 1 1 11.297 1 24h46C47 11.297 36.699 1 24 1zM1.187 27c.179 1.373.496 2.714.906 4h43.813c.411-1.286.727-2.627.906-4H1.187zm2.125 7C4 35.421 4.796 36.761 5.75 38h36.5c.953-1.239 1.75-2.579 2.438-4H3.318zM8.5 41c4.088 3.73 9.53 6 15.5 6 5.969 0 11.411-2.27 15.5-6h-31z" fill="url(#b)" fill-rule="evenodd"/>
  <g>
    <path d="M40.03 7.531A22.922 22.922 0 0 1 45.999 23c0 12.703-10.297 23-23 23A22.92 22.92 0 0 1 7.53 40.031C11.708 44.322 17.54 47 23.999 47c12.703 0 23-10.298 23-23 0-6.462-2.677-12.291-6.969-16.469z" opacity=".1"/>
  </g>
</svg>
