<svg xmlns="http://www.w3.org/2000/svg" viewBox="0 0 48 48">
  <defs>
    <linearGradient id="a" x1="1" x2="47" gradientUnits="userSpaceOnUse" gradientTransform="rotate(-90 24 24)">
      <stop stop-color="#f9c117"/>
      <stop offset="1" stop-color="#fac82a"/>
    </linearGradient>
  </defs>
  <path d="M36.31 5c5.859 4.062 9.688 10.831 9.688 18.5 0 12.426-10.07 22.5-22.5 22.5-7.669 0-14.438-3.828-18.5-9.688a23.24 23.24 0 0 0 3.781 4.969 22.923 22.923 0 0 0 15.469 5.969c12.703 0 23-10.298 23-23a22.92 22.92 0 0 0-5.969-15.469A23.216 23.216 0 0 0 36.31 5zm4.969 3.781A22.911 22.911 0 0 1 47.498 24.5c0 12.703-10.297 23-23 23a22.909 22.909 0 0 1-15.719-6.219C12.939 45.425 18.662 48 24.998 48c12.703 0 23-10.298 23-23 0-6.335-2.575-12.06-6.719-16.219z" opacity=".05"/>
  <path d="M41.28 8.781a22.923 22.923 0 0 1 5.969 15.469c0 12.703-10.297 23-23 23A22.92 22.92 0 0 1 8.78 41.281 22.911 22.911 0 0 0 24.499 47.5c12.703 0 23-10.298 23-23A22.909 22.909 0 0 0 41.28 8.781z" opacity=".1"/>
  <path d="M31.25 2.375C39.865 5.529 46 13.792 46 23.505c0 12.426-10.07 22.5-22.5 22.5-9.708 0-17.971-6.135-21.12-14.75a23 23 0 0 0 44.875-7 23 23 0 0 0-16-21.875z" opacity=".2"/>
  <path d="M24 1c12.703 0 23 10.297 23 23S36.703 47 24 47 1 36.703 1 24 11.297 1 24 1z" fill="url(#a)"/>
  <g opacity=".1">
    <path d="M12.969 21c-.57.027-.969.176-.969.781v12.75c0 .809.688 1.469 1.563 1.469h22.844c.879 0 1.594-.66 1.594-1.469v-12.75c0-.809-.715-.781-1.594-.781H13.563c-.219 0-.402-.012-.594 0m18.03 2l1.5 1-10.5 9.5-5-3.945 1-1.555 4 3m9-8M16.05 14.402L12.8 19h11.199v-7h-5.512c-.809 0-2.438 2.402-2.438 2.402M25.99 12v7h11.184l-3.25-4.598S32.299 12 31.483 12m-5.492 0"/>
  </g>
  <g>
    <g fill="#3e3e3e">
      <path d="M11.969 20c-.57.027-.969.176-.969.781v12.75c0 .809.688 1.469 1.563 1.469h22.844c.879 0 1.594-.66 1.594-1.469v-12.75c0-.809-.715-.781-1.594-.781H12.563c-.219 0-.402-.012-.594 0m18.03 2l1.5 1-10.5 9.5-5-3.945 1-1.555 4 3m9-8M15.05 13.402L11.8 18h11.199v-7h-5.512c-.809 0-2.438 2.402-2.438 2.402M24.99 11v7h11.184l-3.25-4.598S31.299 11 30.483 11m-5.492 0"/>
    </g>
  </g>
  <g>
    <path d="M40.03 7.531A22.922 22.922 0 0 1 45.999 23c0 12.703-10.297 23-23 23A22.92 22.92 0 0 1 7.53 40.031C11.708 44.322 17.54 47 23.999 47c12.703 0 23-10.298 23-23 0-6.462-2.677-12.291-6.969-16.469z" opacity=".1"/>
  </g>
</svg>
