<svg xmlns="http://www.w3.org/2000/svg" viewBox="0 0 48 48">
  <defs>
    <linearGradient id="a" y1="47" x2="0" y2="1" gradientUnits="userSpaceOnUse">
      <stop stop-color="#383838"/>
      <stop offset="1" stop-color="#414142"/>
    </linearGradient>
  </defs>
  <path d="M36.31 5c5.859 4.062 9.688 10.831 9.688 18.5 0 12.426-10.07 22.5-22.5 22.5-7.669 0-14.438-3.828-18.5-9.688a23.24 23.24 0 0 0 3.781 4.969 22.923 22.923 0 0 0 15.469 5.969c12.703 0 23-10.298 23-23a22.92 22.92 0 0 0-5.969-15.469A23.216 23.216 0 0 0 36.31 5zm4.969 3.781A22.911 22.911 0 0 1 47.498 24.5c0 12.703-10.297 23-23 23a22.909 22.909 0 0 1-15.719-6.219C12.939 45.425 18.662 48 24.998 48c12.703 0 23-10.298 23-23 0-6.335-2.575-12.06-6.719-16.219z" opacity=".05"/>
  <path d="M41.28 8.781a22.923 22.923 0 0 1 5.969 15.469c0 12.703-10.297 23-23 23A22.92 22.92 0 0 1 8.78 41.281 22.911 22.911 0 0 0 24.499 47.5c12.703 0 23-10.298 23-23A22.909 22.909 0 0 0 41.28 8.781z" opacity=".1"/>
  <path d="M31.25 2.375C39.865 5.529 46 13.792 46 23.505c0 12.426-10.07 22.5-22.5 22.5-9.708 0-17.971-6.135-21.12-14.75a23 23 0 0 0 44.875-7 23 23 0 0 0-16-21.875z" opacity=".2"/>
  <path d="M24 1c12.703 0 23 10.297 23 23S36.703 47 24 47 1 36.703 1 24 11.297 1 24 1z" fill="url(#a)"/>
  <path d="M40.03 7.531A22.922 22.922 0 0 1 45.999 23c0 12.703-10.297 23-23 23A22.92 22.92 0 0 1 7.53 40.031C11.708 44.322 17.54 47 23.999 47c12.703 0 23-10.298 23-23 0-6.462-2.677-12.291-6.969-16.469z" opacity=".1"/>
  <path d="M25.439 10.01A15 15 0 0 0 10 25a15 15 0 0 0 30 0 15 15 0 0 0-14.563-14.994zm-10.06 7.473c2.451-.155 5.859 3.423 9.371 7.238-4.726-2.272-9.254-6.301-12.789-.559.51-4.72 1.741-6.574 3.418-6.68zm19.15 0c1.677.106 2.906 1.96 3.416 6.68-3.535-5.742-8.06-1.713-12.787.559 3.512-3.815 6.92-7.393 9.371-7.238zm-9.783 7.596c-5.915 6.426-11.533 12.179-12.789.561 3.535 5.742 8.06 1.711 12.789-.561zm.412 0c4.726 2.272 9.252 6.303 12.787.561-1.256 11.618-6.872 5.865-12.787-.561z" fill-opacity=".098"/>
  <path d="M24.438 9.01A15 15 0 0 0 8.998 24 15 15 0 0 0 39 24 15 15 0 0 0 24.438 9.01zm-10.063 7.47c2.451-.154 5.859 3.423 9.371 7.239-4.726-2.272-9.254-6.301-12.789-.559.51-4.72 1.741-6.574 3.418-6.68zm19.154 0c1.681.106 2.906 1.96 3.416 6.68-3.535-5.742-8.061-1.713-12.785.559 3.51-3.816 6.92-7.393 9.369-7.239zm-9.783 7.6c-5.915 6.422-11.533 12.17-12.789.557 3.535 5.742 8.063 1.711 12.789-.557zm.414 0c4.724 2.268 9.25 6.299 12.785.557-1.256 11.613-6.875 5.865-12.785-.557z" fill="#f9f9f9"/>
</svg>
