<svg viewBox="0 0 48 48"><defs><linearGradient id="linearGradient3764" y1="47" x2="0" y2="1" gradientUnits="userSpaceOnUse"><stop stop-color="#654dbb" stop-opacity="1"/><stop offset="1" stop-color="#705cc0" stop-opacity="1"/></linearGradient><clipPath id="clipPath-333490071"><g transform="translate(0,-1004.3622)"><path d="m -24 13 c 0 1.105 -0.672 2 -1.5 2 -0.828 0 -1.5 -0.895 -1.5 -2 0 -1.105 0.672 -2 1.5 -2 0.828 0 1.5 0.895 1.5 2 z" transform="matrix(15.333333,0,0,11.5,414.99999,878.8622)" fill="#1890d0"/></g></clipPath><clipPath id="clipPath-344731420"><g transform="translate(0,-1004.3622)"><path d="m -24 13 c 0 1.105 -0.672 2 -1.5 2 -0.828 0 -1.5 -0.895 -1.5 -2 0 -1.105 0.672 -2 1.5 -2 0.828 0 1.5 0.895 1.5 2 z" transform="matrix(15.333333,0,0,11.5,414.99999,878.8622)" fill="#1890d0"/></g></clipPath><clipPath><path d="m 9 9 l 30 0 l 0 30 l -30 0 m 0 -30"/></clipPath><clipPath><path d="m 24 9 l -3.16 7.371 l -7.445 -2.977 l 2.98 7.445 l -7.375 3.16 l 7.375 3.16 l -2.98 7.445 l 7.445 -2.98 l 3.16 7.375 l 3.16 -7.375 l 7.445 2.98 l -2.977 -7.445 l 7.371 -3.16 l -7.371 -3.16 l 2.977 -7.445 l -7.445 2.977 m -6.266 0.129 l 6.211 0 l 4.395 4.395 l 0 6.211 l -4.395 4.395 l -6.211 0 l -4.395 -4.395 l 0 -6.211 m 4.395 -4.395"/></clipPath><clipPath><path d="m 9 9 l 30 0 l 0 30 l -30 0 m 0 -30"/></clipPath><clipPath><path d="m 24 9 l -3.16 7.371 l -7.445 -2.977 l 2.98 7.445 l -7.375 3.16 l 7.375 3.16 l -2.98 7.445 l 7.445 -2.98 l 3.16 7.375 l 3.16 -7.375 l 7.445 2.98 l -2.977 -7.445 l 7.371 -3.16 l -7.371 -3.16 l 2.977 -7.445 l -7.445 2.977 m -6.266 0.129 l 6.211 0 l 4.395 4.395 l 0 6.211 l -4.395 4.395 l -6.211 0 l -4.395 -4.395 l 0 -6.211 m 4.395 -4.395"/></clipPath></defs><g><path d="m 36.31 5 c 5.859 4.062 9.688 10.831 9.688 18.5 c 0 12.426 -10.07 22.5 -22.5 22.5 c -7.669 0 -14.438 -3.828 -18.5 -9.688 c 1.037 1.822 2.306 3.499 3.781 4.969 c 4.085 3.712 9.514 5.969 15.469 5.969 c 12.703 0 23 -10.298 23 -23 c 0 -5.954 -2.256 -11.384 -5.969 -15.469 c -1.469 -1.475 -3.147 -2.744 -4.969 -3.781 z m 4.969 3.781 c 3.854 4.113 6.219 9.637 6.219 15.719 c 0 12.703 -10.297 23 -23 23 c -6.081 0 -11.606 -2.364 -15.719 -6.219 c 4.16 4.144 9.883 6.719 16.219 6.719 c 12.703 0 23 -10.298 23 -23 c 0 -6.335 -2.575 -12.06 -6.719 -16.219 z" opacity="0.05"/><path d="m 41.28 8.781 c 3.712 4.085 5.969 9.514 5.969 15.469 c 0 12.703 -10.297 23 -23 23 c -5.954 0 -11.384 -2.256 -15.469 -5.969 c 4.113 3.854 9.637 6.219 15.719 6.219 c 12.703 0 23 -10.298 23 -23 c 0 -6.081 -2.364 -11.606 -6.219 -15.719 z" opacity="0.1"/><path d="m 31.25 2.375 c 8.615 3.154 14.75 11.417 14.75 21.13 c 0 12.426 -10.07 22.5 -22.5 22.5 c -9.708 0 -17.971 -6.135 -21.12 -14.75 a 23 23 0 0 0 44.875 -7 a 23 23 0 0 0 -16 -21.875 z" opacity="0.2"/></g><g><path d="m 24 1 c 12.703 0 23 10.297 23 23 c 0 12.703 -10.297 23 -23 23 -12.703 0 -23 -10.297 -23 -23 0 -12.703 10.297 -23 23 -23 z" fill="url(#linearGradient3764)" fill-opacity="1"/></g><g><g clip-path="url(#clipPath-333490071)"><g transform="translate(1,1)"><g opacity="0.1"><!-- color: #705cc0 --><path d="m 27.663 24.25 c -0.107 0.218 -0.266 0.528 -0.49 0.935 l -0.603 1.12 -0.148 0 -1.981 3.07 0.353 0.669 3.905 4.606 c 0.016 -0.469 0.023 -1.043 0.023 -1.72 0 -1.435 0.04 -2.609 0.091 -2.609 1.576 0.572 3.089 2.359 4.805 2.539 1.11 -1.781 2.682 -3.811 3.382 -5.841 -1.542 -1.439 -2.153 -1.479 -3.997 -2.666 l -3.108 0.416 z" fill="#000"/><path d="m 33.493 15.11 c -0.239 0.009 -0.816 0.341 -3.01 1.604 -0.584 0.337 -0.771 0.439 -1.082 0.612 l -0.307 4.086 -1.822 0.589 -0.353 0.265 c 0.104 0.181 0.222 0.382 0.342 0.566 0.685 1.05 0.711 1.129 0.364 1.685 l -0.307 0.485 0.228 0.473 c 0.129 0.256 0.406 0.621 0.615 0.82 0.314 0.299 0.483 0.369 0.945 0.369 0.587 0.001 1.043 -0.192 2.118 -0.889 0.341 -0.221 0.945 -0.568 1.344 -0.773 l 0.717 -0.381 -0.467 -0.289 c -0.263 -0.159 -0.478 -0.322 -0.478 -0.369 0 -0.047 0.142 -0.175 0.319 -0.277 2.692 -1.558 4.111 -2.437 4.224 -2.62 -0.62 -1.626 -1.698 -4.096 -3.222 -5.887 -0.053 -0.045 -0.091 -0.072 -0.171 -0.069 z" fill="#000"/><path d="m 23.291 12 c -1.355 0.013 -1.474 0.068 -1.56 0.231 -0.073 0.137 -0.114 1.242 -0.114 2.782 l 0 1.639 1.514 2.101 0.399 1.05 1.093 1.778 c 0.168 -0.003 0.344 -0.012 0.592 -0.012 l 1.401 0 0.194 0.427 c 0.251 0.536 0.575 0.727 0.74 0.439 0.066 -0.115 0.123 -0.151 0.125 -0.069 0.001 0.05 0.046 0.091 0.114 0.115 l 1.435 -0.45 c 0.049 -0.048 0.088 -0.105 0.125 -0.162 l 0.228 -0.843 c 0.039 -0.384 0.059 -0.906 0.08 -1.674 0.032 -1.187 0.043 -2.159 0.023 -2.159 -0.02 0 -0.144 0.068 -0.273 0.139 -0.229 0.124 -0.231 0.131 -0.023 0.381 l 0.216 0.254 -0.262 -0.219 c -0.213 -0.183 -0.288 -0.203 -0.433 -0.081 -0.219 0.184 -0.196 0.432 -0.216 -2.666 -0.013 -2.02 -0.058 -2.653 -0.182 -2.805 -0.142 -0.174 -0.523 -0.196 -3.404 -0.196 -0.773 0 -1.359 -0.004 -1.81 0 z" fill="#000"/><path d="m 21.97 12 c -0.068 0 -0.125 0.05 -0.125 0.115 0 0.065 0.017 0.115 0.046 0.115 0.028 0 0.086 -0.05 0.125 -0.115 0.04 -0.065 0.022 -0.115 -0.046 -0.115 z m 6.285 0 c -0.068 0 -0.097 0.05 -0.057 0.115 0.04 0.065 0.097 0.115 0.125 0.115 0.028 0 0.046 -0.05 0.046 -0.115 0 -0.065 -0.046 -0.115 -0.114 -0.115 z m -6.581 3.913 c -0.02 0.013 -0.038 0.274 -0.046 0.681 l -0.011 0.981 -0.353 -0.312 0.205 0.392 2.391 4.01 c 0.026 -0.072 0.144 -0.092 0.421 -0.092 0.257 0 0.498 -0.044 0.535 -0.104 0.14 -0.229 -0.925 -2.789 -1.287 -3.094 -0.092 -0.077 -0.171 -0.202 -0.171 -0.277 0 -0.075 -0.285 -0.447 -0.638 -0.831 -0.353 -0.384 -0.649 -0.743 -0.649 -0.796 0 -0.053 -0.067 -0.092 -0.159 -0.092 -0.102 0 -0.188 -0.159 -0.216 -0.392 -0.006 -0.053 -0.016 -0.073 -0.023 -0.069 z m 8 1.27 -0.25 0.139 c -0.248 0.135 -0.254 0.142 -0.046 0.392 0.213 0.256 0.217 0.249 -0.034 0.035 -0.201 -0.172 -0.295 -0.178 -0.467 -0.069 -0.195 0.123 -0.214 0.284 -0.182 1.697 0.02 0.878 -0.012 1.702 -0.08 1.882 -0.116 0.31 -0.154 0.312 -1.059 0.312 -1.015 0 -1.03 0.017 -0.603 0.693 0.165 0.261 0.182 0.276 0.262 0.069 0.077 -0.199 0.095 -0.209 0.102 -0.023 0.009 0.234 0.236 0.286 0.25 0.058 0.007 -0.118 0.021 -0.118 0.068 0 0.154 0.387 1.66 -0.084 1.662 -0.519 0 -0.076 0.068 -0.158 0.148 -0.185 0.108 -0.036 0.152 -0.624 0.182 -2.262 l 0.046 -2.216 z m -0.649 0.612 c 0.015 -0.006 0.029 0 0.046 0 0.068 0 0.097 0.05 0.057 0.115 -0.04 0.065 -0.097 0.115 -0.125 0.115 -0.028 0 -0.046 -0.05 -0.046 -0.115 0 -0.049 0.024 -0.097 0.068 -0.115 z" fill="#000"/><path d="m 14.979 14.726 c -1.112 0.002 -2.218 0.22 -3.245 0.658 -0.826 0.352 -0.857 0.429 -0.569 1.812 l 12.309 6.429 0.603 -0.277 -0.08 -0.681 c -0.33 -2.909 -2.072 -5.378 -4.851 -6.88 -1.3 -0.702 -2.737 -1.065 -4.167 -1.062 z m 8.551 11.278 -0.9 0.046 -1.389 0.519 -0.182 3.982 c 0.244 -0.132 0.421 -0.231 0.444 -0.231 0 0 -0.198 3.572 0.25 5.529 c 0.102 0.104 1.01 0.15 3.37 0.15 c 3.21 0 3.236 -0.005 3.416 -0.265 0.313 -2.038 0.182 -3.065 0.182 -5.529 -0.948 -0.723 -2.446 -0.957 -3.02 -1.847 -0.12 -0.267 -0.086 -0.388 0.273 -1.039 0.225 -0.408 0.41 -0.777 0.41 -0.82 0 -0.043 -0.588 -0.081 -1.309 -0.081 l -1.309 0 z" fill="#000"/><path d="m 27.762 35.917 c 0.08 -0.033 0.211 -0.033 0.291 0 0.08 0.033 0.015 0.06 -0.146 0.06 -0.16 0 -0.226 -0.027 -0.146 -0.06 z m -14.405 -8.954 c 1.284 -0.894 2.58 -1.684 3.875 -2.473 0.616 -0.376 0.713 -0.551 0.307 -0.551 -0.307 0 -2.587 -1.183 -2.514 -1.304 0.038 -0.062 -0.006 -0.083 -0.097 -0.047 -0.222 0.086 -1.998 -1.699 -2.572 -2.587 -0.245 -0.378 -0.575 -1.013 -0.735 -1.41 -0.283 -0.706 -0.689 -2.66 -0.577 -2.774 0.074 -0.075 0.772 0.344 0.772 0.464 0 0.051 0.059 0.093 0.132 0.093 0.072 0 0.794 0.38 1.603 0.845 0.809 0.465 1.629 0.935 1.821 1.045 0.192 0.11 0.973 0.581 1.735 1.046 0.762 0.465 1.411 0.846 1.443 0.846 0.032 0 0.44 0.236 0.908 0.524 0.871 0.536 1.685 0.849 1.685 0.647 0 -0.174 0.783 0.204 1.112 0.537 0.164 0.166 0.26 0.302 0.214 0.302 -0.196 0 0.513 0.62 0.98 0.856 0.469 0.237 0.492 0.27 0.297 0.415 -0.117 0.087 -0.461 0.247 -0.766 0.357 -0.305 0.11 -0.554 0.238 -0.554 0.285 0 0.047 0.287 0.58 0.637 1.184 l 0.637 1.099 -0.894 0.035 c -0.492 0.019 -0.962 0.092 -1.045 0.162 -0.111 0.094 -0.151 0.585 -0.151 1.862 l 0 1.735 c -1.61 0.866 -3.153 1.969 -4.84 2.647 -0.554 -0.457 -3.393 -5.245 -3.414 -5.841 z m 14.667 4.02 c -0.376 -0.249 -1.087 -0.661 -2.09 -1.211 -0.548 -0.301 -1.058 -0.758 -1.058 -0.948 0 -0.087 -0.052 -0.158 -0.117 -0.158 -0.227 0 -0.112 -0.874 0.204 -1.552 l 0.321 -0.688 0.551 -0.003 0.551 -0.003 -0.326 0.561 c -0.363 0.625 -0.633 1.336 -0.543 1.428 0.032 0.033 0.059 0.024 0.059 -0.019 0 -0.043 0.092 0.014 0.205 0.128 0.113 0.114 0.795 0.548 1.516 0.966 l 1.31 0.759 0 0.512 c 0 0.281 -0.039 0.509 -0.087 0.505 -0.048 -0.004 -0.271 -0.128 -0.496 -0.277 z" fill="#000"/><path d="m 17.453 32.396 c 0 -0.095 0.045 -0.144 0.099 -0.11 0.054 0.034 0.069 0.112 0.032 0.172 -0.094 0.155 -0.131 0.137 -0.131 -0.062 z m 3.109 -3.845 c 0.059 -2.244 0.069 -2.295 0.545 -2.809 0.076 -0.082 0.217 -0.148 0.314 -0.148 0.097 0 0.211 -0.056 0.253 -0.125 0.044 -0.072 0.37 -0.11 0.769 -0.09 0.573 0.029 0.724 0.082 0.868 0.306 0.096 0.149 0.138 0.331 0.094 0.404 -0.05 0.081 -0.029 0.1 0.053 0.049 0.074 -0.046 0.135 -0.028 0.135 0.041 0 0.143 -0.055 0.151 -0.94 0.127 -0.474 -0.013 -0.716 0.041 -0.901 0.197 -0.237 0.201 -0.254 0.324 -0.267 1.928 -0.013 1.609 -0.102 2.1 -0.354 1.942 -0.057 -0.036 -0.103 -0.017 -0.103 0.041 0 0.058 -0.118 0.161 -0.262 0.228 l -0.262 0.121 0.058 -2.212 z m -6.126 0.699 c -0.042 -0.069 -0.052 -0.151 -0.021 -0.182 0.031 -0.031 0.087 0.026 0.125 0.126 0.079 0.208 0.012 0.245 -0.103 0.056 z m 2.978 -4.885 c 0 -0.026 0.081 -0.078 0.181 -0.117 0.104 -0.04 0.151 -0.021 0.11 0.046 -0.068 0.112 -0.291 0.166 -0.291 0.07 z m -0.137 -0.525 c -0.579 -0.209 -0.943 -0.466 -0.445 -0.315 c 0.16 0.049 0.254 0.048 0.208 -0.001 -0.104 -0.111 0.407 -0.531 0.646 -0.531 0.097 0 0.193 -0.042 0.215 -0.094 0.021 -0.052 0.629 -0.429 1.35 -0.838 l 1.311 -0.744 0.729 0.414 c 1.112 0.632 1.658 1.073 1.866 1.508 l 0.189 0.396 -0.36 0.154 c -0.495 0.211 -0.721 0.107 -0.968 -0.448 -0.25 -0.562 -0.71 -1.058 -0.981 -1.058 -0.248 0 -0.821 0.268 -0.823 0.384 0 0.049 -0.051 0.089 -0.111 0.089 -0.144 0 -1.462 0.784 -1.667 0.991 -0.267 0.271 -0.591 0.297 -1.159 0.092 z" fill="#000"/></g></g></g></g><g><g clip-path="url(#clipPath-344731420)"><!-- color: #705cc0 --><path d="m 27.663 24.25 c -0.107 0.218 -0.266 0.528 -0.49 0.935 l -0.603 1.12 -0.148 0 -1.981 3.07 0.353 0.669 3.905 4.606 c 0.016 -0.469 0.023 -1.043 0.023 -1.72 0 -1.435 0.04 -2.609 0.091 -2.609 1.576 0.572 3.089 2.359 4.805 2.539 1.11 -1.781 2.682 -3.811 3.382 -5.841 -1.542 -1.439 -2.153 -1.479 -3.997 -2.666 l -3.108 0.416 z" fill="#b3c7e8"/><path d="m 33.493 15.11 c -0.239 0.009 -0.816 0.341 -3.01 1.604 -0.584 0.337 -0.771 0.439 -1.082 0.612 l -0.307 4.086 -1.822 0.589 -0.353 0.265 c 0.104 0.181 0.222 0.382 0.342 0.566 0.685 1.05 0.711 1.129 0.364 1.685 l -0.307 0.485 0.228 0.473 c 0.129 0.256 0.406 0.621 0.615 0.82 0.314 0.299 0.483 0.369 0.945 0.369 0.587 0.001 1.043 -0.192 2.118 -0.889 0.341 -0.221 0.945 -0.568 1.344 -0.773 l 0.717 -0.381 -0.467 -0.289 c -0.263 -0.159 -0.478 -0.322 -0.478 -0.369 0 -0.047 0.142 -0.175 0.319 -0.277 2.692 -1.558 4.111 -2.437 4.224 -2.62 -0.62 -1.626 -1.698 -4.096 -3.222 -5.887 -0.053 -0.045 -0.091 -0.072 -0.171 -0.069 z" fill="#8cace0"/><path d="m 23.291 12 c -1.355 0.013 -1.474 0.068 -1.56 0.231 -0.073 0.137 -0.114 1.242 -0.114 2.782 l 0 1.639 1.514 2.101 0.399 1.05 1.093 1.778 c 0.168 -0.003 0.344 -0.012 0.592 -0.012 l 1.401 0 0.194 0.427 c 0.251 0.536 0.575 0.727 0.74 0.439 0.066 -0.115 0.123 -0.151 0.125 -0.069 0.001 0.05 0.046 0.091 0.114 0.115 l 1.435 -0.45 c 0.049 -0.048 0.088 -0.105 0.125 -0.162 l 0.228 -0.843 c 0.039 -0.384 0.059 -0.906 0.08 -1.674 0.032 -1.187 0.043 -2.159 0.023 -2.159 -0.02 0 -0.144 0.068 -0.273 0.139 -0.229 0.124 -0.231 0.131 -0.023 0.381 l 0.216 0.254 -0.262 -0.219 c -0.213 -0.183 -0.288 -0.203 -0.433 -0.081 -0.219 0.184 -0.196 0.432 -0.216 -2.666 -0.013 -2.02 -0.058 -2.653 -0.182 -2.805 -0.142 -0.174 -0.523 -0.196 -3.404 -0.196 -0.773 0 -1.359 -0.004 -1.81 0 z" fill="#648dd2"/><path d="m 21.97 12 c -0.068 0 -0.125 0.05 -0.125 0.115 0 0.065 0.017 0.115 0.046 0.115 0.028 0 0.086 -0.05 0.125 -0.115 0.04 -0.065 0.022 -0.115 -0.046 -0.115 z m 6.285 0 c -0.068 0 -0.097 0.05 -0.057 0.115 0.04 0.065 0.097 0.115 0.125 0.115 0.028 0 0.046 -0.05 0.046 -0.115 0 -0.065 -0.046 -0.115 -0.114 -0.115 z m -6.581 3.913 c -0.02 0.013 -0.038 0.274 -0.046 0.681 l -0.011 0.981 -0.353 -0.312 0.205 0.392 2.391 4.01 c 0.026 -0.072 0.144 -0.092 0.421 -0.092 0.257 0 0.498 -0.044 0.535 -0.104 0.14 -0.229 -0.925 -2.789 -1.287 -3.094 -0.092 -0.077 -0.171 -0.202 -0.171 -0.277 0 -0.075 -0.285 -0.447 -0.638 -0.831 -0.353 -0.384 -0.649 -0.743 -0.649 -0.796 0 -0.053 -0.067 -0.092 -0.159 -0.092 -0.102 0 -0.188 -0.159 -0.216 -0.392 -0.006 -0.053 -0.016 -0.073 -0.023 -0.069 z m 8 1.27 -0.25 0.139 c -0.248 0.135 -0.254 0.142 -0.046 0.392 0.213 0.256 0.217 0.249 -0.034 0.035 -0.201 -0.172 -0.295 -0.178 -0.467 -0.069 -0.195 0.123 -0.214 0.284 -0.182 1.697 0.02 0.878 -0.012 1.702 -0.08 1.882 -0.116 0.31 -0.154 0.312 -1.059 0.312 -1.015 0 -1.03 0.017 -0.603 0.693 0.165 0.261 0.182 0.276 0.262 0.069 0.077 -0.199 0.095 -0.209 0.102 -0.023 0.009 0.234 0.236 0.286 0.25 0.058 0.007 -0.118 0.021 -0.118 0.068 0 0.154 0.387 1.66 -0.084 1.662 -0.519 0 -0.076 0.068 -0.158 0.148 -0.185 0.108 -0.036 0.152 -0.624 0.182 -2.262 l 0.046 -2.216 z m -0.649 0.612 c 0.015 -0.006 0.029 0 0.046 0 0.068 0 0.097 0.05 0.057 0.115 -0.04 0.065 -0.097 0.115 -0.125 0.115 -0.028 0 -0.046 -0.05 -0.046 -0.115 0 -0.049 0.024 -0.097 0.068 -0.115 z" fill="#5b82c6"/><path d="m 14.979 14.726 c -1.112 0.002 -2.218 0.22 -3.245 0.658 -0.826 0.352 -0.857 0.429 -0.569 1.812 l 12.309 6.429 0.603 -0.277 -0.08 -0.681 c -0.33 -2.909 -2.072 -5.378 -4.851 -6.88 -1.3 -0.702 -2.737 -1.065 -4.167 -1.062 z m 8.551 11.278 -0.9 0.046 -1.389 0.519 -0.182 3.982 c 0.244 -0.132 0.421 -0.231 0.444 -0.231 0 0 -0.198 3.572 0.25 5.529 c 0.102 0.104 1.01 0.15 3.37 0.15 c 3.21 0 3.236 -0.005 3.416 -0.265 0.313 -2.038 0.182 -3.065 0.182 -5.529 -0.948 -0.723 -2.446 -0.957 -3.02 -1.847 -0.12 -0.267 -0.086 -0.388 0.273 -1.039 0.225 -0.408 0.41 -0.777 0.41 -0.82 0 -0.043 -0.588 -0.081 -1.309 -0.081 l -1.309 0 z" fill="#74cba4"/><path d="m 27.762 35.917 c 0.08 -0.033 0.211 -0.033 0.291 0 0.08 0.033 0.015 0.06 -0.146 0.06 -0.16 0 -0.226 -0.027 -0.146 -0.06 z m -14.405 -8.954 c 1.284 -0.894 2.58 -1.684 3.875 -2.473 0.616 -0.376 0.713 -0.551 0.307 -0.551 -0.307 0 -2.587 -1.183 -2.514 -1.304 0.038 -0.062 -0.006 -0.083 -0.097 -0.047 -0.222 0.086 -1.998 -1.699 -2.572 -2.587 -0.245 -0.378 -0.575 -1.013 -0.735 -1.41 -0.283 -0.706 -0.689 -2.66 -0.577 -2.774 0.074 -0.075 0.772 0.344 0.772 0.464 0 0.051 0.059 0.093 0.132 0.093 0.072 0 0.794 0.38 1.603 0.845 0.809 0.465 1.629 0.935 1.821 1.045 0.192 0.11 0.973 0.581 1.735 1.046 0.762 0.465 1.411 0.846 1.443 0.846 0.032 0 0.44 0.236 0.908 0.524 0.871 0.536 1.685 0.849 1.685 0.647 0 -0.174 0.783 0.204 1.112 0.537 0.164 0.166 0.26 0.302 0.214 0.302 -0.196 0 0.513 0.62 0.98 0.856 0.469 0.237 0.492 0.27 0.297 0.415 -0.117 0.087 -0.461 0.247 -0.766 0.357 -0.305 0.11 -0.554 0.238 -0.554 0.285 0 0.047 0.287 0.58 0.637 1.184 l 0.637 1.099 -0.894 0.035 c -0.492 0.019 -0.962 0.092 -1.045 0.162 -0.111 0.094 -0.151 0.585 -0.151 1.862 l 0 1.735 c -1.61 0.866 -3.153 1.969 -4.84 2.647 -0.554 -0.457 -3.393 -5.245 -3.414 -5.841 z m 14.667 4.02 c -0.376 -0.249 -1.087 -0.661 -2.09 -1.211 -0.548 -0.301 -1.058 -0.758 -1.058 -0.948 0 -0.087 -0.052 -0.158 -0.117 -0.158 -0.227 0 -0.112 -0.874 0.204 -1.552 l 0.321 -0.688 0.551 -0.003 0.551 -0.003 -0.326 0.561 c -0.363 0.625 -0.633 1.336 -0.543 1.428 0.032 0.033 0.059 0.024 0.059 -0.019 0 -0.043 0.092 0.014 0.205 0.128 0.113 0.114 0.795 0.548 1.516 0.966 l 1.31 0.759 0 0.512 c 0 0.281 -0.039 0.509 -0.087 0.505 -0.048 -0.004 -0.271 -0.128 -0.496 -0.277 z" fill="#3fbd86"/><path d="m 17.453 32.396 c 0 -0.095 0.045 -0.144 0.099 -0.11 0.054 0.034 0.069 0.112 0.032 0.172 -0.094 0.155 -0.131 0.137 -0.131 -0.062 z m 3.109 -3.845 c 0.059 -2.244 0.069 -2.295 0.545 -2.809 0.076 -0.082 0.217 -0.148 0.314 -0.148 0.097 0 0.211 -0.056 0.253 -0.125 0.044 -0.072 0.37 -0.11 0.769 -0.09 0.573 0.029 0.724 0.082 0.868 0.306 0.096 0.149 0.138 0.331 0.094 0.404 -0.05 0.081 -0.029 0.1 0.053 0.049 0.074 -0.046 0.135 -0.028 0.135 0.041 0 0.143 -0.055 0.151 -0.94 0.127 -0.474 -0.013 -0.716 0.041 -0.901 0.197 -0.237 0.201 -0.254 0.324 -0.267 1.928 -0.013 1.609 -0.102 2.1 -0.354 1.942 -0.057 -0.036 -0.103 -0.017 -0.103 0.041 0 0.058 -0.118 0.161 -0.262 0.228 l -0.262 0.121 0.058 -2.212 z m -6.126 0.699 c -0.042 -0.069 -0.052 -0.151 -0.021 -0.182 0.031 -0.031 0.087 0.026 0.125 0.126 0.079 0.208 0.012 0.245 -0.103 0.056 z m 2.978 -4.885 c 0 -0.026 0.081 -0.078 0.181 -0.117 0.104 -0.04 0.151 -0.021 0.11 0.046 -0.068 0.112 -0.291 0.166 -0.291 0.07 z m -0.137 -0.525 c -0.579 -0.209 -0.943 -0.466 -0.445 -0.315 c 0.16 0.049 0.254 0.048 0.208 -0.001 -0.104 -0.111 0.407 -0.531 0.646 -0.531 0.097 0 0.193 -0.042 0.215 -0.094 0.021 -0.052 0.629 -0.429 1.35 -0.838 l 1.311 -0.744 0.729 0.414 c 1.112 0.632 1.658 1.073 1.866 1.508 l 0.189 0.396 -0.36 0.154 c -0.495 0.211 -0.721 0.107 -0.968 -0.448 -0.25 -0.562 -0.71 -1.058 -0.981 -1.058 -0.248 0 -0.821 0.268 -0.823 0.384 0 0.049 -0.051 0.089 -0.111 0.089 -0.144 0 -1.462 0.784 -1.667 0.991 -0.267 0.271 -0.591 0.297 -1.159 0.092 z" fill="#35956b"/></g></g><g><path d="m 40.03 7.531 c 3.712 4.084 5.969 9.514 5.969 15.469 0 12.703 -10.297 23 -23 23 c -5.954 0 -11.384 -2.256 -15.469 -5.969 4.178 4.291 10.01 6.969 16.469 6.969 c 12.703 0 23 -10.298 23 -23 0 -6.462 -2.677 -12.291 -6.969 -16.469 z" opacity="0.1"/></g></svg>