<svg viewBox="0 0 48 48"><defs><linearGradient id="linearGradient3764" y1="47" x2="0" y2="1" gradientUnits="userSpaceOnUse"><stop stop-color="#118cd3" stop-opacity="1"/><stop offset="1" stop-color="#129ae6" stop-opacity="1"/></linearGradient><clipPath id="clipPath-573270385"><g transform="translate(0,-1004.3622)"><path d="m -24 13 c 0 1.105 -0.672 2 -1.5 2 -0.828 0 -1.5 -0.895 -1.5 -2 0 -1.105 0.672 -2 1.5 -2 0.828 0 1.5 0.895 1.5 2 z" transform="matrix(15.333333,0,0,11.5,414.99999,878.8622)" fill="#1890d0"/></g></clipPath><clipPath id="clipPath-581405483"><g transform="translate(0,-1004.3622)"><path d="m -24 13 c 0 1.105 -0.672 2 -1.5 2 -0.828 0 -1.5 -0.895 -1.5 -2 0 -1.105 0.672 -2 1.5 -2 0.828 0 1.5 0.895 1.5 2 z" transform="matrix(15.333333,0,0,11.5,414.99999,878.8622)" fill="#1890d0"/></g></clipPath></defs><g><path d="m 36.31 5 c 5.859 4.062 9.688 10.831 9.688 18.5 c 0 12.426 -10.07 22.5 -22.5 22.5 c -7.669 0 -14.438 -3.828 -18.5 -9.688 c 1.037 1.822 2.306 3.499 3.781 4.969 c 4.085 3.712 9.514 5.969 15.469 5.969 c 12.703 0 23 -10.298 23 -23 c 0 -5.954 -2.256 -11.384 -5.969 -15.469 c -1.469 -1.475 -3.147 -2.744 -4.969 -3.781 z m 4.969 3.781 c 3.854 4.113 6.219 9.637 6.219 15.719 c 0 12.703 -10.297 23 -23 23 c -6.081 0 -11.606 -2.364 -15.719 -6.219 c 4.16 4.144 9.883 6.719 16.219 6.719 c 12.703 0 23 -10.298 23 -23 c 0 -6.335 -2.575 -12.06 -6.719 -16.219 z" opacity="0.05"/><path d="m 41.28 8.781 c 3.712 4.085 5.969 9.514 5.969 15.469 c 0 12.703 -10.297 23 -23 23 c -5.954 0 -11.384 -2.256 -15.469 -5.969 c 4.113 3.854 9.637 6.219 15.719 6.219 c 12.703 0 23 -10.298 23 -23 c 0 -6.081 -2.364 -11.606 -6.219 -15.719 z" opacity="0.1"/><path d="m 31.25 2.375 c 8.615 3.154 14.75 11.417 14.75 21.13 c 0 12.426 -10.07 22.5 -22.5 22.5 c -9.708 0 -17.971 -6.135 -21.12 -14.75 a 23 23 0 0 0 44.875 -7 a 23 23 0 0 0 -16 -21.875 z" opacity="0.2"/></g><g><path d="m 24 1 c 12.703 0 23 10.297 23 23 c 0 12.703 -10.297 23 -23 23 -12.703 0 -23 -10.297 -23 -23 0 -12.703 10.297 -23 23 -23 z" fill="url(#linearGradient3764)" fill-opacity="1"/></g><g><g clip-path="url(#clipPath-573270385)"><g transform="translate(1,1)"><g opacity="0.1"><!-- color: #129ae6 --><g><path d="m 17.977 14.227 c -6.695 3.48 -8.04 12.527 -2.629 17.684 c 3.109 2.965 7.289 3.844 11.633 2.434 c 4.16 -1.348 7.02 -5.547 7.02 -9.852 c 0 -1.652 0.184 -2.133 1.648 -2.59 c 1.352 -0.418 2.352 -1.895 2.352 -2.902 c -2.52 0.113 -7 -2 -9 -4.5 l 0 5 c 0 5.348 -0.91 6.531 -3.03 8.03 c -1.707 1.207 -4.813 1.422 -6.344 0.441 c -2.344 -1.496 -2.32 -4.355 0.055 -6.777 c 2.254 -1.789 3.895 -1.906 6.316 -1.742 l 0 -6.04 c -2.609 -0.77 -5.68 -0.359 -8.02 0.813 m 0 0" fill="#000"/></g></g></g></g></g><g><g clip-path="url(#clipPath-581405483)"><!-- color: #129ae6 --><g><path d="m 17.977 14.227 c -6.695 3.48 -8.04 12.527 -2.629 17.684 c 3.109 2.965 7.289 3.844 11.633 2.434 c 4.16 -1.348 7.02 -5.547 7.02 -9.852 c 0 -1.652 0.184 -2.133 1.648 -2.59 c 1.352 -0.418 2.352 -1.895 2.352 -2.902 c -2.52 0.113 -7 -2 -9 -4.5 l 0 5 c 0 5.348 -0.91 6.531 -3.03 8.03 c -1.707 1.207 -4.813 1.422 -6.344 0.441 c -2.344 -1.496 -2.32 -4.355 0.055 -6.777 c 2.254 -1.789 3.895 -1.906 6.316 -1.742 l 0 -6.04 c -2.609 -0.77 -5.68 -0.359 -8.02 0.813 m 0 0" fill="#f9f9f9"/></g></g></g><g><path d="m 40.03 7.531 c 3.712 4.084 5.969 9.514 5.969 15.469 0 12.703 -10.297 23 -23 23 c -5.954 0 -11.384 -2.256 -15.469 -5.969 4.178 4.291 10.01 6.969 16.469 6.969 c 12.703 0 23 -10.298 23 -23 0 -6.462 -2.677 -12.291 -6.969 -16.469 z" opacity="0.1"/></g></svg>