<svg xmlns="http://www.w3.org/2000/svg" viewBox="0 0 48 48">
  <defs>
    <linearGradient id="a" x2="47" gradientUnits="userSpaceOnUse" x1="1" gradientTransform="rotate(-90 24 24)">
      <stop stop-color="#a0beff"/>
      <stop offset="1" stop-color="#b5ccff"/>
    </linearGradient>
  </defs>
  <path d="M36.31 5c5.859 4.062 9.688 10.831 9.688 18.5 0 12.426-10.07 22.5-22.5 22.5-7.669 0-14.438-3.828-18.5-9.688a23.24 23.24 0 0 0 3.781 4.969 22.923 22.923 0 0 0 15.469 5.969c12.703 0 23-10.298 23-23a22.92 22.92 0 0 0-5.969-15.469A23.216 23.216 0 0 0 36.31 5zm4.969 3.781A22.911 22.911 0 0 1 47.498 24.5c0 12.703-10.297 23-23 23a22.909 22.909 0 0 1-15.719-6.219C12.939 45.425 18.662 48 24.998 48c12.703 0 23-10.298 23-23 0-6.335-2.575-12.06-6.719-16.219z" opacity=".05"/>
  <path d="M41.28 8.781a22.923 22.923 0 0 1 5.969 15.469c0 12.703-10.297 23-23 23A22.92 22.92 0 0 1 8.78 41.281 22.911 22.911 0 0 0 24.499 47.5c12.703 0 23-10.298 23-23A22.909 22.909 0 0 0 41.28 8.781z" opacity=".1"/>
  <path d="M31.25 2.375C39.865 5.529 46 13.792 46 23.505c0 12.426-10.07 22.5-22.5 22.5-9.708 0-17.971-6.135-21.12-14.75a23 23 0 0 0 44.875-7 23 23 0 0 0-16-21.875z" opacity=".2"/>
  <path d="M24 1c12.703 0 23 10.297 23 23S36.703 47 24 47 1 36.703 1 24 11.297 1 24 1z" fill="url(#a)"/>
  <path d="M40.03 7.531A22.922 22.922 0 0 1 45.999 23c0 12.703-10.297 23-23 23A22.92 22.92 0 0 1 7.53 40.031C11.708 44.322 17.54 47 23.999 47c12.703 0 23-10.298 23-23 0-6.462-2.677-12.291-6.969-16.469z" opacity=".1"/>
  <path d="M18 11c-2.675 0-3.744 1.566-3.957 4h-.6a.444.444 0 0 0-.443.443v8.113c0 .244.199.443.443.443H16v13s0 1 1 1h18s.996 0 .996-1v-3h1.441s.564-.328.564-2c0-1.609-.625-1.996-.625-1.996h-1.381v-8l-8-8c-2.067-.002-3.946-.002-6.123-.002-.297-1.855-1.226-3-3.873-3m0 1c1.727 0 2.488.736 2.801 2l-3.801-.002s-1 0-1 1h-.959c.153-1.833.828-3 2.959-3" opacity=".1"/>
  <path d="M16 13s-1 0-1 1v22s0 1 1 1h18s.996 0 .996-1V21.004l-8-8C23.284 13 18.254 13 16 13m0 .004" fill="#f9f9f9"/>
  <path d="M20 22v1h10v-1m-10 0M20 24v1h10v-1m-10 0M20 26v1h10v-1m-10 0" fill="#aaa"/>
  <path d="M35 21l-8-8c-.004 4 0 6 0 7s0 1 1 1 4.098.008 7 0" fill="#dedede"/>
  <g>
    <path d="M20.964 29h13.773v4H20.964m0-4" fill="#dd8a4c"/>
    <path d="M34 29v4h2.438s.563-.328.563-2c0-1.609-.625-1.996-.625-1.996h-2.371M34 29" fill="#e22852"/>
    <path d="M21 29l-4 1.996 4 2v-4M21 29" fill="#e5c789"/>
    <path d="M19 29.984L17 31l2 1.02m0-2.035" fill="#2d2d2d"/>
  </g>
  <g>
    <path d="M12.443 14h9.114c.244 0 .443.2.443.444v8.113a.444.444 0 0 1-.443.443h-9.114a.444.444 0 0 1-.443-.443v-8.113c0-.244.199-.444.443-.444" fill="#eec84a"/>
    <path d="M12.443 14h9.114c.244 0 .443.256.443.5v1c0 .244-.199.5-.443.5h-9.114c-.244 0-.443-.256-.443-.5v-1c0-.244.199-.5.443-.5" fill="#d4b142"/>
    <path d="M17 17a1 1 0 0 0-1 1c0 .319.159.59.391.773L15.5 21h3l-.891-2.227A.984.984 0 0 0 18 18a1 1 0 0 0-1-1z" fill="#705d22"/>
    <path d="M14.5 15c0 .277-.448.5-1 .5s-1-.223-1-.5.448-.5 1-.5 1 .223 1 .5M21.5 15c0 .277-.448.5-1 .5s-1-.223-1-.5.448-.5 1-.5 1 .223 1 .5" fill="#4a4a4a"/>
    <path d="M13 15c0-3 .974-5 4-5 3.5 0 4 2 4 5h-1c0-2.486-.5-4-3-4s-3 1.596-3 4" fill="#e4e4e4"/>
  </g>
</svg>
