<svg xmlns="http://www.w3.org/2000/svg" viewBox="0 0 48 48">
  <defs>
    <linearGradient id="a" x1="1" x2="47" gradientUnits="userSpaceOnUse" gradientTransform="rotate(-90 24 24)">
      <stop stop-color="#cb3131"/>
      <stop offset="1" stop-color="#d14040"/>
    </linearGradient>
  </defs>
  <path d="M36.31 5c5.859 4.062 9.688 10.831 9.688 18.5 0 12.426-10.07 22.5-22.5 22.5-7.669 0-14.438-3.828-18.5-9.688a23.24 23.24 0 0 0 3.781 4.969 22.923 22.923 0 0 0 15.469 5.969c12.703 0 23-10.298 23-23a22.92 22.92 0 0 0-5.969-15.469A23.216 23.216 0 0 0 36.31 5zm4.969 3.781A22.911 22.911 0 0 1 47.498 24.5c0 12.703-10.297 23-23 23a22.909 22.909 0 0 1-15.719-6.219C12.939 45.425 18.662 48 24.998 48c12.703 0 23-10.298 23-23 0-6.335-2.575-12.06-6.719-16.219z" opacity=".05"/>
  <path d="M41.28 8.781a22.923 22.923 0 0 1 5.969 15.469c0 12.703-10.297 23-23 23A22.92 22.92 0 0 1 8.78 41.281 22.911 22.911 0 0 0 24.499 47.5c12.703 0 23-10.298 23-23A22.909 22.909 0 0 0 41.28 8.781z" opacity=".1"/>
  <path d="M31.25 2.375C39.865 5.529 46 13.792 46 23.505c0 12.426-10.07 22.5-22.5 22.5-9.708 0-17.971-6.135-21.12-14.75a23 23 0 0 0 44.875-7 23 23 0 0 0-16-21.875z" opacity=".2"/>
  <path d="M24 1c12.703 0 23 10.297 23 23S36.703 47 24 47 1 36.703 1 24 11.297 1 24 1z" fill="url(#a)"/>
  <g>
    <path d="M40.03 7.531A22.922 22.922 0 0 1 45.999 23c0 12.703-10.297 23-23 23A22.92 22.92 0 0 1 7.53 40.031C11.708 44.322 17.54 47 23.999 47c12.703 0 23-10.298 23-23 0-6.462-2.677-12.291-6.969-16.469z" opacity=".1"/>
  </g>
  <g>
    <path d="M16 13c-.464 0-.824.43-.938 1h-.063c-1.108 0-2 .892-2 2v18c0 1.108.892 2 2 2h20c1.108 0 2-.892 2-2V16c0-1.108-.892-2-2-2h-.063c-.114-.57-.473-1-.938-1-.464 0-.824.43-.938 1h-1.125c-.114-.57-.473-1-.938-1-.464 0-.824.43-.938 1h-1.125c-.114-.57-.473-1-.938-1-.464 0-.824.43-.938 1h-1.125c-.114-.57-.473-1-.938-1-.464 0-.824.43-.938 1h-1.125c-.114-.57-.473-1-.938-1-.464 0-.824.43-.938 1h-1.125c-.114-.57-.473-1-.938-1-.464 0-.824.43-.938 1H16.93c-.114-.57-.473-1-.938-1z" fill-opacity=".12"/>
    <rect rx="2" y="15" x="12" height="20" width="24" fill="#aeb4c2"/>
    <rect width="24" height="20" x="12" y="14" rx="2" fill="#c4cad7"/>
    <rect rx="2" y="13" x="12" height="20" width="24" fill="#deece6"/>
    <path d="M14 19v10h3v-6l3 4 3-4v6h3V19h-3l-3 4-3-4h-3zm15 0v6h-2l3.5 4 3.5-4h-2v-6h-3z" fill="#2d2d2d"/>
    <rect ry="1.333" rx="1" y="12" x="14" height="4" width="2" fill="#999"/>
    <rect width="2" height="4" x="17" y="12" rx="1" ry="1.333" fill="#999"/>
    <rect ry="1.333" rx="1" y="12" x="20" height="4" width="2" fill="#999"/>
    <rect width="2" height="4" x="23" y="12" rx="1" ry="1.333" fill="#999"/>
    <rect ry="1.333" rx="1" y="12" x="26" height="4" width="2" fill="#999"/>
    <rect width="2" height="4" x="29" y="12" rx="1" ry="1.333" fill="#999"/>
    <rect ry="1.333" rx="1" y="12" x="32" height="4" width="2" fill="#999"/>
  </g>
</svg>
