<svg version="1.1" viewBox="0 0 48 48" xmlns="http://www.w3.org/2000/svg">
 <defs>
  <linearGradient id="bg" x2="0" y1="1" y2="47" gradientUnits="userSpaceOnUse">
   <stop style="stop-color:#4f6dcf" offset="0"/>
   <stop style="stop-color:#3e60cb" offset="1"/>
  </linearGradient>
 </defs>
 <path d="m36.31 5c5.859 4.062 9.688 10.831 9.688 18.5 0 12.426-10.07 22.5-22.5 22.5-7.669 0-14.438-3.828-18.5-9.688 1.037 1.822 2.306 3.499 3.781 4.969 4.085 3.712 9.514 5.969 15.469 5.969 12.703 0 23-10.298 23-23 0-5.954-2.256-11.384-5.969-15.469-1.469-1.475-3.147-2.744-4.969-3.781zm4.969 3.781c3.854 4.113 6.219 9.637 6.219 15.719 0 12.703-10.297 23-23 23-6.081 0-11.606-2.364-15.719-6.219 4.16 4.144 9.883 6.719 16.219 6.719 12.703 0 23-10.298 23-23 0-6.335-2.575-12.06-6.719-16.219z" style="opacity:.05"/>
 <path d="m41.28 8.781c3.712 4.085 5.969 9.514 5.969 15.469 0 12.703-10.297 23-23 23-5.954 0-11.384-2.256-15.469-5.969 4.113 3.854 9.637 6.219 15.719 6.219 12.703 0 23-10.298 23-23 0-6.081-2.364-11.606-6.219-15.719z" style="opacity:.1"/>
 <path d="m31.25 2.375c8.615 3.154 14.75 11.417 14.75 21.13 0 12.426-10.07 22.5-22.5 22.5-9.708 0-17.971-6.135-21.12-14.75a23 23 0 0 0 44.875-7 23 23 0 0 0-16-21.875z" style="opacity:.2"/>
 <circle cx="24" cy="24" r="23" style="fill:url(#bg)"/>
 <path d="m40.03 7.531c3.712 4.084 5.969 9.514 5.969 15.469 0 12.703-10.297 23-23 23-5.954 0-11.384-2.256-15.469-5.969 4.178 4.291 10.01 6.969 16.469 6.969 12.703 0 23-10.298 23-23 0-6.462-2.677-12.291-6.969-16.469z" style="opacity:.1"/>
 <path d="m29.949 12.5c-1.637 0.02772-2.9495 1.3628-2.9492 3 0 1.6569 1.3431 3 3 3 0.35041-8.5e-5 0.69815-0.061561 1.0273-0.18164 1.8919 1.7061 2.9721 4.1341 2.9727 6.6816 0 4.9706-4.0294 9-9 9s-9-4.0294-9-9l2 1-3.5-6-3.5 6 2-1c0 6.6274 5.3726 12 12 12s12-5.3726 12-12c-5.24e-4 -3.4351-1.4731-6.7052-4.0449-8.9824 0.02991-0.1709 0.044942-0.34408 0.044922-0.51758 0-1.6569-1.3431-3-3-3-0.01693-1.43e-4 -0.033851-1.43e-4 -0.050781 0zm-8.998 7.5c-1.0855 0.02649-1.9515 0.91421-1.9512 2 0 1.1046 0.89543 2 2 2s2-0.89543 2-2-0.89543-2-2-2c-0.01628-1.99e-4 -0.032548-1.99e-4 -0.048828 0zm7.7695 0c-0.34884 0-0.69713 0.11705-0.92969 0.34961l-7.4414 7.4414c-0.46512 0.46512-0.46512 1.3943 0 1.8594s1.3943 0.46512 1.8594 0l7.4414-7.4414c0.46512-0.46512 0.46512-1.3943 0-1.8594-0.23256-0.23256-0.58085-0.34961-0.92969-0.34961zm0.23047 6c-1.0855 0.02649-1.9515 0.91421-1.9512 2 0 1.1046 0.89543 2 2 2s2-0.89543 2-2-0.89543-2-2-2c-0.01628-1.99e-4 -0.032548-1.99e-4 -0.048828 0z" style="opacity:.1"/>
 <path d="m26.791 19.349-7.4419 7.4419c-0.46512 0.46512-0.46512 1.3953 0 1.8605s1.3953 0.46512 1.8605 0l7.4419-7.4419c0.46512-0.46512 0.46512-1.3953 0-1.8605s-1.3953-0.46512-1.8605 0z" style="fill:#a7d0fe;stroke-width:.93023"/>
 <circle cx="28" cy="27" r="2" style="fill:#a7d0fe"/>
 <circle cx="20" cy="21" r="2" style="fill:#a7d0fe"/>
 <path d="m29 11.5a3 3 0 0 0-3 3 3 3 0 0 0 3 3 3 3 0 0 0 1.0215-0.1875 9 9 0 0 1 2.9785 6.6875 9 9 0 0 1-9 9 9 9 0 0 1-9-9l2 1-3.5-6-3.5 6 2-1a12 12 0 0 0 12 12 12 12 0 0 0 12-12 12 12 0 0 0-4.0547-8.959 3 3 0 0 0 0.054688-0.54102 3 3 0 0 0-3-3z" style="fill-rule:evenodd;fill:#a7d0fe"/>
</svg>
