<svg xmlns="http://www.w3.org/2000/svg" viewBox="0 0 48 48">
  <defs>
    <linearGradient x2="13.547" gradientTransform="matrix(0 -3.5433 3.5433 0 0 48)" gradientUnits="userSpaceOnUse" id="a">
      <stop stop-color="#008ef3"/>
      <stop offset="1" stop-color="#00d4ff"/>
    </linearGradient>
  </defs>
  <path d="M36.31 5c5.859 4.062 9.688 10.831 9.688 18.5 0 12.426-10.07 22.5-22.5 22.5-7.669 0-14.438-3.828-18.5-9.688a23.24 23.24 0 0 0 3.781 4.969 22.923 22.923 0 0 0 15.469 5.969c12.703 0 23-10.298 23-23a22.92 22.92 0 0 0-5.969-15.469A23.216 23.216 0 0 0 36.31 5zm4.969 3.781A22.911 22.911 0 0 1 47.498 24.5c0 12.703-10.297 23-23 23a22.909 22.909 0 0 1-15.719-6.219C12.939 45.425 18.662 48 24.998 48c12.703 0 23-10.298 23-23 0-6.335-2.575-12.06-6.719-16.219z" opacity=".05"/>
  <path d="M41.28 8.781a22.923 22.923 0 0 1 5.969 15.469c0 12.703-10.297 23-23 23A22.92 22.92 0 0 1 8.78 41.281 22.911 22.911 0 0 0 24.499 47.5c12.703 0 23-10.298 23-23A22.909 22.909 0 0 0 41.28 8.781z" opacity=".1"/>
  <path d="M31.25 2.375C39.865 5.529 46 13.792 46 23.505c0 12.426-10.07 22.5-22.5 22.5-9.708 0-17.971-6.135-21.12-14.75a23 23 0 0 0 44.875-7 23 23 0 0 0-16-21.875z" opacity=".2"/>
  <path d="M24 1C11.297 1 1 11.297 1 24s10.297 23 23 23 23-10.297 23-23S36.703 1 24 1z" fill="url(#a)"/>
  <path d="M25 11c-4.144 0-6.855 2.38-8.137 5.174-1.596-.05-3.192-.1-4.783-.174-.586-.031-1.145.648-1.066 1.098 1.01 6.68 1.063 12.918 0 19.801-.074.453.48 1.121 1.066 1.098h25.836c.598.023 1.148-.645 1.078-1.098-1.063-6.879-1.078-13.199 0-19.801.078-.453-.48-1.133-1.078-1.098-1.598.087-3.185.136-4.773.188C31.863 13.388 29.148 11 25 11zm0 1c3.2 0 5.576 1.981 6.875 4.236-4.613.123-9.19.108-13.74-.016 1.301-2.249 3.672-4.221 6.865-4.221z" opacity=".1"/>
  <g>
    <path d="M40.03 7.531A22.922 22.922 0 0 1 45.999 23c0 12.703-10.297 23-23 23A22.92 22.92 0 0 1 7.53 40.031C11.708 44.322 17.54 47 23.999 47c12.703 0 23-10.298 23-23 0-6.462-2.677-12.291-6.969-16.469z" opacity=".1"/>
  </g>
  <g>
    <path d="M11.08 15c-.586-.031-1.145.648-1.066 1.098 1.01 6.68 1.063 12.918 0 19.801-.074.453.48 1.121 1.066 1.098h25.836c.598.023 1.148-.645 1.078-1.098-1.063-6.879-1.078-13.199 0-19.801.078-.453-.48-1.133-1.078-1.098-8.738.473-17.32.395-25.836 0m0 0" fill="#f8ecde"/>
    <path d="M17 19.5a1.5 1.5 0 1 1-3-.001 1.5 1.5 0 0 1 3 .001m0 0M34 19.5a1.5 1.5 0 1 1-3-.001 1.5 1.5 0 0 1 3 .001m0 0" fill="#a9946f"/>
    <path d="M15.5 20c-.5 0-.5-.578-.5-1 0-4.01 3-9 9-9 5.996 0 9 4.988 9 9 0 .422 0 1-.5 1s-.5-.578-.5-1c0-3.168-3-8-8-8s-8 4.832-8 8c0 .422 0 1-.496 1m0 0" fill="#e5d6be"/>
    <path d="M23.574 22c-.733.02-.683.149-.993.776-.495 1.016-.847 2.482-.776 3.346.08.925.326 1.529.803 1.984.578.547 1.28.478 1.878-.161.533-.571.73-1.166.776-2.464.03-.817.044-.914.106-.773.237.542.3 1.825.132 2.461-.138.524-.475 1.169-.75 1.421-.36.334-.75.484-1.286.507-.358.017-.5.012-.773-.079-.712-.237-1.588-.914-2.089-1.576-.712-.949-1.427-2.865-1.609-4.391-.035-.296-.085-.565-.106-.592-.129-.149-.62.466-.776.967-.103.316-.109.469-.109 3.29v2.98l.135.076c.188.123 1.014.372 1.688.507.513.106.718.138 1.928.135 1.213 0 1.436-.035 1.905-.135.76-.167 1.325-.439 1.794-.911.662-.665.908-1.336.911-2.385 0-.694-.097-1.248-.375-1.796-.1-.199-.2-.36-.188-.375.061-.061.75.765.911 1.102.99 2.095.521 3.802-1.53 5.514-.905.75-2.473 1.793-3.376 2.247-.314.161-.372.22-.293.296.02.02 1.582.038 3.481.026l3.454-.026.296-.132c.595-.284.973-.706 1.151-1.286.103-.334.106-.484.106-4.552 0-4.277-.009-4.641-.188-4.711-.044-.017-.446.026-.885.109a16.44 16.44 0 0 1-1.77.187c-1.034.052-1.559.152-2.169.401-.566.232-.896.416-1.207.671-.275.226-.314.255-.4.615-.12.498-.2.721-.402.99-.146.199-.296.296-.293.19.003-.19.18-.794.35-1.125.494-.985 1.141-1.699 2.408-2.648.392-.296.724-.55.724-.592 0-.058-.284-.079-1.556-.079-.452 0-.8-.006-1.043 0m1.05 2.516c.078 0 .084.082-.027.882-.117.85-.419 1.523-.803 1.927-.269.287-.563.363-.776.214-.12-.082-.266-.369-.266-.507 0-.07.026-.07.111-.026.161.088.23.067.422-.109.331-.293.68-1.131.861-2.086.015-.109.33-.298.481-.298m0 0" fill="#12a1dd"/>
  </g>
</svg>
