<svg xmlns="http://www.w3.org/2000/svg" viewBox="0 0 48 48">
  <defs>
    <linearGradient id="a" x1="1" x2="47" gradientUnits="userSpaceOnUse" gradientTransform="rotate(-90 24 24)">
      <stop stop-color="#642448"/>
      <stop offset="1" stop-color="#722953"/>
    </linearGradient>
  </defs>
  <path d="M36.31 5c5.859 4.062 9.688 10.831 9.688 18.5 0 12.426-10.07 22.5-22.5 22.5-7.669 0-14.438-3.828-18.5-9.688a23.24 23.24 0 0 0 3.781 4.969 22.923 22.923 0 0 0 15.469 5.969c12.703 0 23-10.298 23-23a22.92 22.92 0 0 0-5.969-15.469A23.216 23.216 0 0 0 36.31 5zm4.969 3.781A22.911 22.911 0 0 1 47.498 24.5c0 12.703-10.297 23-23 23a22.909 22.909 0 0 1-15.719-6.219C12.939 45.425 18.662 48 24.998 48c12.703 0 23-10.298 23-23 0-6.335-2.575-12.06-6.719-16.219z" opacity=".05"/>
  <path d="M41.28 8.781a22.923 22.923 0 0 1 5.969 15.469c0 12.703-10.297 23-23 23A22.92 22.92 0 0 1 8.78 41.281 22.911 22.911 0 0 0 24.499 47.5c12.703 0 23-10.298 23-23A22.909 22.909 0 0 0 41.28 8.781z" opacity=".1"/>
  <path d="M31.25 2.375C39.865 5.529 46 13.792 46 23.505c0 12.426-10.07 22.5-22.5 22.5-9.708 0-17.971-6.135-21.12-14.75a23 23 0 0 0 44.875-7 23 23 0 0 0-16-21.875z" opacity=".2"/>
  <path d="M24 1c12.703 0 23 10.297 23 23S36.703 47 24 47 1 36.703 1 24 11.297 1 24 1z" fill="url(#a)"/>
  <path d="M15 14v13.219c0 1.602.188 3.051.535 4.375.352 1.297.922 2.441 1.715 3.402.793.965 1.809 1.695 3.109 2.238 1.305.512 2.922.762 4.828.762 2.191 0 4.137-.086 5.789-.355 1.684-.273 3-.574 4.02-.813V13.996h-4v19.793c-.156.063-.875.18-1.254.242-.352.031-.73.09-1.18.152-.445.027-.887.07-1.391.102-.508.027-1.023.051-1.504.051-2.254 0-3.871-.645-4.824-1.883-.953-1.234-1.848-3.203-1.848-6.06V13.995m-3.996.008" opacity=".1"/>
  <g>
    <path d="M14 13v13.219c0 1.602.188 3.051.535 4.375.352 1.297.922 2.441 1.715 3.402.793.965 1.809 1.695 3.109 2.238 1.305.512 2.922.762 4.828.762 2.191 0 4.137-.086 5.789-.355 1.684-.273 3-.574 4.02-.813V12.996h-4v19.793c-.156.063-.875.18-1.254.242-.352.031-.73.09-1.18.152-.445.027-.887.07-1.391.102-.508.027-1.023.051-1.504.051-2.254 0-3.871-.645-4.824-1.883-.953-1.234-1.848-3.203-1.848-6.06V12.995m-3.996.008" fill="#f9f9f9"/>
  </g>
  <g>
    <path d="M40.03 7.531A22.922 22.922 0 0 1 45.999 23c0 12.703-10.297 23-23 23A22.92 22.92 0 0 1 7.53 40.031C11.708 44.322 17.54 47 23.999 47c12.703 0 23-10.298 23-23 0-6.462-2.677-12.291-6.969-16.469z" opacity=".1"/>
  </g>
</svg>
