<svg xmlns="http://www.w3.org/2000/svg" viewBox="0 0 48 48">
  <defs>
    <linearGradient id="c" y1="47" x2="0" y2="1" gradientUnits="userSpaceOnUse">
      <stop stop-color="#3d76b0"/>
      <stop offset="1" stop-color="#427fbe"/>
    </linearGradient>
    <linearGradient id="b" y1="47" x2="0" y2="1" gradientUnits="userSpaceOnUse">
      <stop stop-color="#0b2f59"/>
      <stop offset="1" stop-color="#0d386b"/>
    </linearGradient>
    <linearGradient id="a" y1="47" x2="0" y2="1" gradientUnits="userSpaceOnUse">
      <stop stop-color="#144072"/>
      <stop offset="1" stop-color="#174a83"/>
    </linearGradient>
  </defs>
  <path d="M36.31 5c5.859 4.062 9.688 10.831 9.688 18.5 0 12.426-10.07 22.5-22.5 22.5-7.669 0-14.438-3.828-18.5-9.688a23.24 23.24 0 0 0 3.781 4.969 22.923 22.923 0 0 0 15.469 5.969c12.703 0 23-10.298 23-23a22.92 22.92 0 0 0-5.969-15.469A23.216 23.216 0 0 0 36.31 5zm4.969 3.781A22.911 22.911 0 0 1 47.498 24.5c0 12.703-10.297 23-23 23a22.909 22.909 0 0 1-15.719-6.219C12.939 45.425 18.662 48 24.998 48c12.703 0 23-10.298 23-23 0-6.335-2.575-12.06-6.719-16.219z" opacity=".05"/>
  <path d="M41.28 8.781a22.923 22.923 0 0 1 5.969 15.469c0 12.703-10.297 23-23 23A22.92 22.92 0 0 1 8.78 41.281 22.911 22.911 0 0 0 24.499 47.5c12.703 0 23-10.298 23-23A22.909 22.909 0 0 0 41.28 8.781z" opacity=".1"/>
  <path d="M31.25 2.375C39.865 5.529 46 13.792 46 23.505c0 12.426-10.07 22.5-22.5 22.5-9.708 0-17.971-6.135-21.12-14.75a23 23 0 0 0 44.875-7 23 23 0 0 0-16-21.875z" opacity=".2"/>
  <path d="M18.85 1.586C8.628 3.926 1 13.069 1 24c0 8.853 5 16.532 12.336 20.377 14.532-4.205 28.22-9.298 33.473-23.24-.012-.094-.016-.191-.029-.285-7.612-7.29-11.392-16.543-27.93-19.262" fill="url(#a)"/>
  <path d="M46.814 21.13L13.335 44.38a22.89 22.89 0 0 0 10.664 2.623c12.703 0 23-10.297 23-23 0-.973-.068-1.93-.186-2.871z" fill="url(#b)"/>
  <path d="M18.85 1.586c-.121.028-.237.068-.357.098l28.3 19.494c.005-.014.012-.027.018-.041-.012-.094-.016-.191-.029-.285C39.17 13.562 35.39 4.309 18.852 1.59v-.004z" fill-opacity=".098"/>
  <path d="M24 1c-1.772 0-3.494.207-5.15.586l27.93 19.262C45.242 9.638 35.633 1 24.001 1z" fill="url(#c)"/>
  <path d="M46.813 21.13L13.336 44.38c.471.247.954.473 1.443.688l32.18-22.346a24.446 24.446 0 0 0-.145-1.59zM29 22c0 7-4 10-8 10h-7V12h7c4 0 8 3 8 10m-3 0c0-4-1.95-7-5.2-7H17v14h3.8c3.333 0 5.2-3 5.2-7z" fill-opacity=".098"/>
  <g>
    <path d="M40.03 7.531A22.922 22.922 0 0 1 45.999 23c0 12.703-10.297 23-23 23A22.92 22.92 0 0 1 7.53 40.031C11.708 44.322 17.54 47 23.999 47c12.703 0 23-10.298 23-23 0-6.462-2.677-12.291-6.969-16.469z" opacity=".1"/>
  </g>
  <path d="M28 21c0 7-4 10-8 10h-7V11h7c4 0 8 3 8 10m-3 0c0-4-1.95-7-5.2-7H16v14h3.8c3.333 0 5.2-3 5.2-7z" fill="#e6ef5d"/>
</svg>
