<svg xmlns="http://www.w3.org/2000/svg" viewBox="0 0 48 48">
  <defs>
    <linearGradient id="a" x1="1" x2="47" gradientUnits="userSpaceOnUse" gradientTransform="rotate(-90 24 24)">
      <stop stop-color="#e4e4e4"/>
      <stop offset="1" stop-color="#eee"/>
    </linearGradient>
  </defs>
  <path d="M36.31 5c5.859 4.062 9.688 10.831 9.688 18.5 0 12.426-10.07 22.5-22.5 22.5-7.669 0-14.438-3.828-18.5-9.688a23.24 23.24 0 0 0 3.781 4.969 22.923 22.923 0 0 0 15.469 5.969c12.703 0 23-10.298 23-23a22.92 22.92 0 0 0-5.969-15.469A23.216 23.216 0 0 0 36.31 5zm4.969 3.781A22.911 22.911 0 0 1 47.498 24.5c0 12.703-10.297 23-23 23a22.909 22.909 0 0 1-15.719-6.219C12.939 45.425 18.662 48 24.998 48c12.703 0 23-10.298 23-23 0-6.335-2.575-12.06-6.719-16.219z" opacity=".05"/>
  <path d="M41.28 8.781a22.923 22.923 0 0 1 5.969 15.469c0 12.703-10.297 23-23 23A22.92 22.92 0 0 1 8.78 41.281 22.911 22.911 0 0 0 24.499 47.5c12.703 0 23-10.298 23-23A22.909 22.909 0 0 0 41.28 8.781z" opacity=".1"/>
  <path d="M31.25 2.375C39.865 5.529 46 13.792 46 23.505c0 12.426-10.07 22.5-22.5 22.5-9.708 0-17.971-6.135-21.12-14.75a23 23 0 0 0 44.875-7 23 23 0 0 0-16-21.875z" opacity=".2"/>
  <path d="M24 1c12.703 0 23 10.297 23 23S36.703 47 24 47 1 36.703 1 24 11.297 1 24 1z" fill="url(#a)"/>
  <path d="M37 33.32c0 1.328-.453 2.441-1.355 3.336-.902.895-2.02 1.344-3.355 1.344-1.543 0-2.887-.566-4.03-1.703L14.94 23.094c-1.289-1.305-1.938-2.84-1.938-4.609 0-1.805.629-3.34 1.887-4.598S17.682 12 19.491 12c1.813 0 3.363.641 4.688 1.922L34.55 24.235c.105.113.172.238.172.375 0 .18-.176.445-.523.789-.352.344-.617.52-.801.52a.54.54 0 0 1-.391-.172L22.609 15.419c-.895-.875-1.938-1.313-3.102-1.313-1.215 0-2.234.426-3.07 1.277-.832.852-1.25 1.875-1.25 3.078 0 1.191.441 2.219 1.305 3.078l13.309 13.223c.719.715 1.551 1.074 2.48 1.074.73 0 1.336-.242 1.816-.719s.719-1.078.719-1.801c0-.934-.352-1.754-1.082-2.469l-9.957-9.883a1.479 1.479 0 0 0-1.02-.41c-.332 0-.605.109-.824.324a1.109 1.109 0 0 0-.324.816c0 .363.141.699.426 1l7.03 6.977a.524.524 0 0 1 .172.375c0 .184-.18.449-.531.801-.352.352-.625.527-.805.527a.519.519 0 0 1-.375-.168l-7.03-6.977c-.723-.691-1.082-1.539-1.082-2.539 0-.93.328-1.719.98-2.367.645-.645 1.445-.969 2.379-.969 1.01 0 1.859.355 2.555 1.074l9.961 9.883c1.145 1.113 1.715 2.449 1.715 4m0 0" fill-opacity=".941" opacity=".1"/>
  <g>
    <path d="M36 32.32c0 1.328-.453 2.441-1.355 3.336-.902.895-2.02 1.344-3.355 1.344-1.543 0-2.887-.566-4.03-1.703L13.94 22.094c-1.289-1.305-1.938-2.84-1.938-4.609 0-1.805.629-3.34 1.887-4.598S16.682 11 18.491 11c1.813 0 3.363.641 4.688 1.922L33.55 23.235c.105.113.172.238.172.375 0 .18-.176.445-.523.789-.352.344-.617.52-.801.52a.54.54 0 0 1-.391-.172L21.609 14.419c-.895-.875-1.938-1.313-3.102-1.313-1.215 0-2.234.426-3.07 1.277-.832.852-1.25 1.875-1.25 3.078 0 1.191.441 2.219 1.305 3.078l13.309 13.223c.719.715 1.551 1.074 2.48 1.074.73 0 1.336-.242 1.816-.719s.719-1.078.719-1.801c0-.934-.352-1.754-1.082-2.469l-9.957-9.883a1.479 1.479 0 0 0-1.02-.41c-.332 0-.605.109-.824.324a1.109 1.109 0 0 0-.324.816c0 .363.141.699.426 1l7.03 6.977a.524.524 0 0 1 .172.375c0 .184-.18.449-.531.801-.352.352-.625.527-.805.527a.519.519 0 0 1-.375-.168l-7.03-6.977c-.723-.691-1.082-1.539-1.082-2.539 0-.93.328-1.719.98-2.367.645-.645 1.445-.969 2.379-.969 1.01 0 1.859.355 2.555 1.074l9.961 9.883c1.145 1.113 1.715 2.449 1.715 4m0 0" fill="#53535f" fill-opacity=".941"/>
  </g>
  <g>
    <path d="M40.03 7.531A22.922 22.922 0 0 1 45.999 23c0 12.703-10.297 23-23 23A22.92 22.92 0 0 1 7.53 40.031C11.708 44.322 17.54 47 23.999 47c12.703 0 23-10.298 23-23 0-6.462-2.677-12.291-6.969-16.469z" opacity=".1"/>
  </g>
</svg>
