<svg xmlns="http://www.w3.org/2000/svg" viewBox="0 0 48 48">
  <defs>
    <linearGradient id="a" x1="1" x2="47" gradientUnits="userSpaceOnUse" gradientTransform="rotate(-90 24 24)">
      <stop stop-color="#0786e6"/>
      <stop offset="1" stop-color="#0991f7"/>
    </linearGradient>
  </defs>
  <path d="M36.31 5c5.859 4.062 9.688 10.831 9.688 18.5 0 12.426-10.07 22.5-22.5 22.5-7.669 0-14.438-3.828-18.5-9.688a23.24 23.24 0 0 0 3.781 4.969 22.923 22.923 0 0 0 15.469 5.969c12.703 0 23-10.298 23-23a22.92 22.92 0 0 0-5.969-15.469A23.216 23.216 0 0 0 36.31 5zm4.969 3.781A22.911 22.911 0 0 1 47.498 24.5c0 12.703-10.297 23-23 23a22.909 22.909 0 0 1-15.719-6.219C12.939 45.425 18.662 48 24.998 48c12.703 0 23-10.298 23-23 0-6.335-2.575-12.06-6.719-16.219z" opacity=".05"/>
  <path d="M41.28 8.781a22.923 22.923 0 0 1 5.969 15.469c0 12.703-10.297 23-23 23A22.92 22.92 0 0 1 8.78 41.281 22.911 22.911 0 0 0 24.499 47.5c12.703 0 23-10.298 23-23A22.909 22.909 0 0 0 41.28 8.781z" opacity=".1"/>
  <path d="M31.25 2.375C39.865 5.529 46 13.792 46 23.505c0 12.426-10.07 22.5-22.5 22.5-9.708 0-17.971-6.135-21.12-14.75a23 23 0 0 0 44.875-7 23 23 0 0 0-16-21.875z" opacity=".2"/>
  <path d="M24 1c12.703 0 23 10.297 23 23S36.703 47 24 47 1 36.703 1 24 11.297 1 24 1z" fill="url(#a)"/>
  <path d="M40.03 7.531A22.922 22.922 0 0 1 45.999 23c0 12.703-10.297 23-23 23A22.92 22.92 0 0 1 7.53 40.031C11.708 44.322 17.54 47 23.999 47c12.703 0 23-10.298 23-23 0-6.462-2.677-12.291-6.969-16.469z" opacity=".1"/>
  <path d="M17.875 16.14c-2.6 2.549-3.234 6.387.325 9.876l7.15 7.01 1.95-1.912-7.15-7.01c-1.535-1.505-2.6-3.823-.325-6.05 1.3-1.274 1.926-1.723 3.185-2.612l13.96 13.841 2.03-1.99-15.6-15.292c-2.093 1.3-3.575 2.23-5.525 4.142zM13 28.565l7.15 7.01c3.559 3.489 7.475 2.867 10.07.319 1.95-1.912 2.899-3.365 4.225-5.416l-11.7-11.469-2.03 1.99 10.22 9.861c-.907 1.234-1.365 1.848-2.665 3.122-2.275 2.23-4.64 1.186-6.175-.319l-7.15-7.01-1.95 1.912" opacity=".1"/>
  <path d="M16.875 15.14c-2.6 2.549-3.234 6.387.325 9.876l7.15 7.01 1.95-1.912-7.15-7.01c-1.535-1.505-2.6-3.823-.325-6.05 1.3-1.274 1.926-1.723 3.185-2.612l13.96 13.841 2.03-1.99-15.6-15.292c-2.093 1.3-3.575 2.23-5.525 4.142zM12 27.565l7.15 7.01c3.559 3.489 7.475 2.867 10.07.319 1.95-1.912 2.899-3.365 4.225-5.416l-11.7-11.469-2.03 1.99 10.22 9.861c-.907 1.234-1.365 1.848-2.665 3.122-2.275 2.23-4.64 1.186-6.175-.319l-7.15-7.01-1.95 1.912" fill="#f9f9f9"/>
</svg>
