<svg viewBox="0 0 48 48" xmlns="http://www.w3.org/2000/svg">
 <defs>
  <linearGradient id="linearGradient3764" x1="1" x2="47" gradientTransform="matrix(0 -1 1 0 -1.5e-6 48)" gradientUnits="userSpaceOnUse">
   <stop style="stop-color:#0786e6" offset="0"/>
   <stop style="stop-color:#0991f7" offset="1"/>
  </linearGradient>
 </defs>
 <path d="m36.31 5c5.859 4.062 9.688 10.831 9.688 18.5 0 12.426-10.07 22.5-22.5 22.5-7.669 0-14.438-3.828-18.5-9.688 1.037 1.822 2.306 3.499 3.781 4.969 4.085 3.712 9.514 5.969 15.469 5.969 12.703 0 23-10.298 23-23 0-5.954-2.256-11.384-5.969-15.469-1.469-1.475-3.147-2.744-4.969-3.781zm4.969 3.781c3.854 4.113 6.219 9.637 6.219 15.719 0 12.703-10.297 23-23 23-6.081 0-11.606-2.364-15.719-6.219 4.16 4.144 9.883 6.719 16.219 6.719 12.703 0 23-10.298 23-23 0-6.335-2.575-12.06-6.719-16.219z" style="opacity:.05"/>
 <path d="m41.28 8.781c3.712 4.085 5.969 9.514 5.969 15.469 0 12.703-10.297 23-23 23-5.954 0-11.384-2.256-15.469-5.969 4.113 3.854 9.637 6.219 15.719 6.219 12.703 0 23-10.298 23-23 0-6.081-2.364-11.606-6.219-15.719z" style="opacity:.1"/>
 <path d="m31.25 2.375c8.615 3.154 14.75 11.417 14.75 21.13 0 12.426-10.07 22.5-22.5 22.5-9.708 0-17.971-6.135-21.12-14.75a23 23 0 0 0 44.875-7 23 23 0 0 0-16-21.875z" style="opacity:.2"/>
 <path d="m24 1c12.703 0 23 10.297 23 23s-10.297 23-23 23-23-10.297-23-23 10.297-23 23-23z" style="fill:url(#linearGradient3764)"/>
 <g transform="translate(1,1)"></g>
 <path d="m40.03 7.531c3.712 4.084 5.969 9.514 5.969 15.469 0 12.703-10.297 23-23 23-5.954 0-11.384-2.256-15.469-5.969 4.178 4.291 10.01 6.969 16.469 6.969 12.703 0 23-10.298 23-23 0-6.462-2.677-12.291-6.969-16.469z" style="opacity:.1"/>
 <path d="m17.875 16.14c-2.6 2.549-3.234 6.387 0.325 9.876l7.15 7.01 1.95-1.912-7.15-7.01c-1.535-1.505-2.6-3.823-0.325-6.05 1.3-1.274 1.926-1.723 3.185-2.612l13.96 13.841 2.03-1.99-15.6-15.292c-2.093 1.3-3.575 2.23-5.525 4.142zm-4.875 12.425 7.15 7.01c3.559 3.489 7.475 2.867 10.07 0.319 1.95-1.912 2.899-3.365 4.225-5.416l-11.7-11.469-2.03 1.99 10.22 9.861c-0.907 1.234-1.365 1.848-2.665 3.122-2.275 2.23-4.64 1.186-6.175-0.319l-7.15-7.01-1.95 1.912" style="opacity:.1"/>
 <path d="m16.875 15.14c-2.6 2.549-3.234 6.387 0.325 9.876l7.15 7.01 1.95-1.912-7.15-7.01c-1.535-1.505-2.6-3.823-0.325-6.05 1.3-1.274 1.926-1.723 3.185-2.612l13.96 13.841 2.03-1.99-15.6-15.292c-2.093 1.3-3.575 2.23-5.525 4.142zm-4.875 12.425 7.15 7.01c3.559 3.489 7.475 2.867 10.07 0.319 1.95-1.912 2.899-3.365 4.225-5.416l-11.7-11.469-2.03 1.99 10.22 9.861c-0.907 1.234-1.365 1.848-2.665 3.122-2.275 2.23-4.64 1.186-6.175-0.319l-7.15-7.01-1.95 1.912" style="fill:#f9f9f9"/>
</svg>
