<svg version="1.1" viewBox="0 0 48 48" xmlns="http://www.w3.org/2000/svg">
 <defs>
  <linearGradient id="linearGradient840" x1="1" x2="47" gradientUnits="userSpaceOnUse">
   <stop style="stop-color:#dadada" offset="0"/>
   <stop style="stop-color:#e4e4e4" offset="1"/>
  </linearGradient>
 </defs>
 <path d="m36.31 5c5.859 4.062 9.688 10.831 9.688 18.5 0 12.426-10.07 22.5-22.5 22.5-7.669 0-14.438-3.828-18.5-9.688 1.037 1.822 2.306 3.499 3.781 4.969 4.085 3.712 9.514 5.969 15.469 5.969 12.703 0 23-10.298 23-23 0-5.954-2.256-11.384-5.969-15.469-1.469-1.475-3.147-2.744-4.969-3.781zm4.969 3.781c3.854 4.113 6.219 9.637 6.219 15.719 0 12.703-10.297 23-23 23-6.081 0-11.606-2.364-15.719-6.219 4.16 4.144 9.883 6.719 16.219 6.719 12.703 0 23-10.298 23-23 0-6.335-2.575-12.06-6.719-16.219z" style="opacity:.05"/>
 <path d="m41.28 8.781c3.712 4.085 5.969 9.514 5.969 15.469 0 12.703-10.297 23-23 23-5.954 0-11.384-2.256-15.469-5.969 4.113 3.854 9.637 6.219 15.719 6.219 12.703 0 23-10.298 23-23 0-6.081-2.364-11.606-6.219-15.719z" style="opacity:.1"/>
 <path d="m31.25 2.375c8.615 3.154 14.75 11.417 14.75 21.13 0 12.426-10.07 22.5-22.5 22.5-9.708 0-17.971-6.135-21.12-14.75a23 23 0 0 0 44.875-7 23 23 0 0 0-16-21.875z" style="opacity:.2"/>
 <g transform="matrix(0,-1,1,0,0,48)" style="fill:#501616">
  <path d="m24 1c12.703 0 23 10.297 23 23s-10.297 23-23 23-23-10.297-23-23 10.297-23 23-23z" style="fill:url(#linearGradient840)"/>
 </g>
 <path d="m13.475 14c-0.26617 0.01356-0.47493 0.23349-0.47461 0.5 0 1.2667-0.0044 1.9835 0.33398 2.707 0.29809 0.6373 0.86063 1.2391 1.7383 2.1699-0.889 1.8181-1.0723 3.8779-1.0723 5.623 0 2.6167 0.90154 5.8298 2.918 8.4316 2.0164 2.6018 5.185 4.5684 9.582 4.5684 3.3654 0 6.0124-1.1768 7.7969-3.0273 1.2446-1.2907 1.9069-2.9462 2.291-4.6895 0.306-1.2406 0.41666-1.759 0.41211-3.2832-0.0046-1.5242-0.95425-4.4888-2.4336-6.4863 0.21953-0.25966 0.43359-0.5689 0.43359-1.0137 0-0.44144-0.14494-0.97319-0.44531-1.4824-0.29729-0.504-0.81514-1.0014-1.5352-1.0117-0.01371-0.0012-0.09702-0.0077-0.23047-0.0039-0.30635 0.0088-0.88096 0.0819-1.5098 0.40625-2.3657-1.5756-5.15-2.4082-7.7793-2.4082-2.7175 0-4.7004 0.64588-6.1289 1.6582-1.2586-1.6166-1.886-1.965-3.6992-2.627-0.062985-0.023576-0.13008-0.034205-0.19727-0.03125z" style="color-rendering:auto;color:#000000;dominant-baseline:auto;font-feature-settings:normal;font-variant-alternates:normal;font-variant-caps:normal;font-variant-ligatures:normal;font-variant-numeric:normal;font-variant-position:normal;image-rendering:auto;isolation:auto;mix-blend-mode:normal;opacity:.1;shape-padding:0;shape-rendering:auto;solid-color:#000000;text-decoration-color:#000000;text-decoration-line:none;text-decoration-style:solid;text-indent:0;text-orientation:mixed;text-transform:none;white-space:normal"/>
 <path d="m40.03 7.531c3.712 4.084 5.969 9.514 5.969 15.469 0 12.703-10.297 23-23 23-5.954 0-11.384-2.256-15.469-5.969 4.178 4.291 10.01 6.969 16.469 6.969 12.703 0 23-10.298 23-23 0-6.462-2.677-12.291-6.969-16.469z" style="opacity:.1"/>
 <path d="m12.488 13.25c-0.13562 0.0069-0.23844 0.1142-0.23828 0.25 0 1.2672-6.34e-4 1.9362 0.31055 2.6016 0.27254 0.58268 0.81603 1.1731 1.6934 2.1035l0.11914 0.12695-0.07617 0.1543c-0.86222 1.7633-1.0469 3.7861-1.0469 5.5137 0 2.5592 0.88775 5.7277 2.8652 8.2793 1.9761 2.5498 5.0622 4.4707 9.3848 4.4707 3.3071 0 5.8818-1.1515 7.6172-2.9512 1.2012-1.2457 1.8482-2.8536 2.2266-4.5703v-2e-3l2e-3 -0.0039c0.15093-0.61193 0.25126-1.159 0.31445-1.5586 0.03159-0.19978 0.05452-0.36222 0.06836-0.47656 0.0069-0.05718 0.01077-0.10403 0.01367-0.13477 0.0013-0.01359 0.0034-0.0223 0.0039-0.0293v-0.05277c-0.0064-2.9019-0.93073-5.3505-2.3809-7.3086l-0.11723-0.15812 0.12695-0.15234c0.20808-0.24611 0.375-0.487 0.375-0.85156 0-0.38672-0.13062-0.88152-0.41016-1.3555-0.26932-0.45657-0.7176-0.87997-1.3242-0.88867h-0.0176c-0.0042-4e-4 -0.07879-0.0074-0.20117-0.0039-0.2756 0.0079-0.81508 0.07599-1.4023 0.37891l-0.13086 0.06641-0.12305-0.08008c-2.3242-1.548-5.064-2.3672-7.6406-2.3672-2.6779 0-4.604 0.6331-5.9844 1.6113l-0.19531 0.13867-0.14648-0.1875c-1.2446-1.5986-1.7838-1.8882-3.5879-2.5469h-2e-3c-0.03088-0.01153-0.06276-0.01683-0.0957-0.01563z" style="color-rendering:auto;color:#000000;dominant-baseline:auto;fill:#eee;font-feature-settings:normal;font-variant-alternates:normal;font-variant-caps:normal;font-variant-ligatures:normal;font-variant-numeric:normal;font-variant-position:normal;image-rendering:auto;isolation:auto;mix-blend-mode:normal;shape-padding:0;shape-rendering:auto;solid-color:#000000;text-decoration-color:#000000;text-decoration-line:none;text-decoration-style:solid;text-indent:0;text-orientation:mixed;text-transform:none;white-space:normal"/>
 <path d="m12.596 13.645 0.04297 2.2324 1.9004 2.2754 1.6582-1.834-2.2754-2.4082zm19.467 2.9395-0.92773 0.06641-0.68555 0.97266 2.3652 1.877 0.68555-0.99414-0.16016-1.3613z" style="fill:#f4cccc"/>
 <path d="m12.475 13c-0.26617 0.01356-0.47493 0.23349-0.47461 0.5 0 1.2667-0.0044 1.9835 0.33398 2.707 0.29809 0.6373 0.86063 1.2391 1.7383 2.1699-0.889 1.8181-1.0723 3.8779-1.0723 5.623 0 2.6167 0.90154 5.8298 2.918 8.4316 2.0164 2.6018 5.185 4.5684 9.582 4.5684 3.3654 0 6.0124-1.1768 7.7969-3.0273 1.2446-1.2907 1.9069-2.9462 2.291-4.6895 0.306-1.2406 0.41666-1.759 0.41211-3.2832-0.0046-1.5242-0.95425-4.4888-2.4336-6.4863 0.21953-0.25966 0.43359-0.5689 0.43359-1.0137 0-0.44144-0.14494-0.97319-0.44531-1.4824-0.29729-0.504-0.81514-1.0014-1.5352-1.0117-0.01371-0.0012-0.09702-0.0077-0.23047-0.0039-0.30635 0.0088-0.88096 0.0819-1.5098 0.40625-2.3657-1.5756-5.15-2.4082-7.7793-2.4082-2.7175 0-4.7004 0.64588-6.1289 1.6582-1.2586-1.6166-1.886-1.965-3.6992-2.627-0.062985-0.023576-0.13008-0.034205-0.19727-0.03125zm0.60938 1.3008c1.0088 0.39151 1.5333 0.72872 2.5176 1.9883-0.38485 0.36411-0.7281 0.75293-1.0098 1.1738-0.70512-0.76084-1.1704-1.2905-1.3516-1.6777-0.14811-0.31664-0.13451-0.94149-0.15625-1.4844zm9.8945 0.7207c0.46654 0.01913 0.93665 0.06423 1.4102 0.13867 0.95916 1.5641 0.76387 3.0266-0.38867 3.8398 1.8443 0 4 0.07734 4-2.6937 0.20572 0.10439 0.79924 0.35777 1 0.47304v1.2207c0 0.58615 0.3425 1 1 1 0 1 0 1-0.5 1-0.27952 0-0.5 0.50823-0.5 1 0 0.53795 0.35355 1 1 1 0.48519 7e-3 1 0 1-1h1.4834c0.8812 0 0.8948 0 1.4287 1.0039 0.68491 1.4537 1.0879 3.118 1.0879 4.9961 0 0.71987-0.22132 1.3804-0.37109 2.0625-0.1545 0.61458-0.27139 1.2295-0.68555 1.9336-1.1688 1.9869-3.5721 4.0039-8.9434 4.0039-6.4007 0-11-5.268-11-11 0-1.9583 0.25704-4.2342 1.416-5.9727 0.28629-0.42944 0.62684-0.83144 1.0352-1.1934 0.40715 1.4268 0.54883 3.166 0.54883 3.166 0 1 1 1 1 0 0-3 0.14654-4 1.002-4.5371 0.31339-0.09505 0.64233-0.17926 0.99805-0.24609v1.7832l2 2v-3zm9.0215 1.9785c0.29069 3e-3 0.49569 0.18696 0.69531 0.52539 0.19963 0.33843 0.30469 0.80667 0.30469 0.97461 0 0.02598-0.03152 0.10724-0.08789 0.20703-0.41903-0.47752-0.86005-0.93173-1.3379-1.3379-0.10998-0.09348-0.22918-0.17395-0.3418-0.26367 0.24728-0.07928 0.47689-0.10845 0.76758-0.10547z" style="color-rendering:auto;color:#000000;dominant-baseline:auto;font-feature-settings:normal;font-variant-alternates:normal;font-variant-caps:normal;font-variant-ligatures:normal;font-variant-numeric:normal;font-variant-position:normal;image-rendering:auto;isolation:auto;mix-blend-mode:normal;shape-padding:0;shape-rendering:auto;solid-color:#000000;text-decoration-color:#000000;text-decoration-line:none;text-decoration-style:solid;text-indent:0;text-orientation:mixed;text-transform:none;white-space:normal"/>
 <path d="m20.5 21.5c0.71875 0 1 0.32812 1 1 0 0.5-0.32812 1-1 1-0.5 0-1-0.42188-1-1 0-0.9375 0.5-1 1-1z" style="fill:#91a6ff"/>
 <path d="m21.5 25c-1.4164 0-2.558 0.71518-3.3184 1.6133-0.76037 0.8981-1.1816 1.9686-1.1816 2.8867 0 0.78176 0.06828 1.4851 0.36133 2.1426 0.29304 0.65746 0.80742 1.234 1.5918 1.7695 0.42136 0.28769 1.0111 0.46776 1.7637 0.65234s1.6497 0.34823 2.5879 0.48633c1.8764 0.27619 3.8997 0.44922 5.1953 0.44922 1.4166 0 2.6555-0.70034 3.5371-1.6035 0.88164-0.90317 1.4453-2.0043 1.4453-3.0195 0-0.83819-0.40521-1.4964-0.91211-1.9941-0.5069-0.49774-1.1159-0.88552-1.668-1.3184-1.5295-1.1991-4.8345-2.0645-9.4023-2.0645z" style="color-rendering:auto;color:#000000;dominant-baseline:auto;font-feature-settings:normal;font-variant-alternates:normal;font-variant-caps:normal;font-variant-ligatures:normal;font-variant-numeric:normal;font-variant-position:normal;image-rendering:auto;isolation:auto;mix-blend-mode:normal;opacity:.1;shape-padding:0;shape-rendering:auto;solid-color:#000000;text-decoration-color:#000000;text-decoration-line:none;text-decoration-style:solid;text-indent:0;text-orientation:mixed;text-transform:none;white-space:normal"/>
 <g transform="translate(2.8268e-6 1)">
  <path d="m20.5 23.5c4.5 0 7.7651 0.91466 9.0935 1.9561 1.1507 0.90214 2.3893 1.5439 2.3893 2.9205 0 1.6234-1.9827 4.1234-4.4827 4.1234s-8.0701-0.68372-9.2656-1.5c-1.4646-1-1.7344-1.9963-1.7344-3.5s1.5-4 4-4z" style="fill:#c89aa2"/>
  <path d="m20.5 26c1.0156 0 1.5 0.29688 1.5 1s-0.9375 1-1.5 1-1.5-0.0407-1.5-1c0-0.78742 0.5-1 1.5-1z"/>
  <path d="m27 28c0-0.60938 0.5-1 1-1 0.625 0 1 0.35938 1 1 0 1.1875-0.3094 2-1.1547 2-0.8453 0-0.8453-1.1875-0.8453-2z"/>
  <path d="m20.5 23c-1.4164 0-2.558 0.71518-3.3184 1.6133-0.76037 0.8981-1.1816 1.9686-1.1816 2.8867 0 0.78176 0.06828 1.4851 0.36133 2.1426 0.29304 0.65746 0.80742 1.234 1.5918 1.7695 0.42136 0.28769 1.0111 0.46776 1.7637 0.65234s1.6497 0.34823 2.5879 0.48633c1.8764 0.27619 3.8997 0.44922 5.1953 0.44922 1.4167 0 2.6554-0.70027 3.5371-1.6035 0.88172-0.90325 1.4453-2.0043 1.4453-3.0195 0-0.83827-0.40508-1.4982-0.91211-1.9961-0.50703-0.49787-1.1159-0.88551-1.668-1.3184-1.5296-1.1992-4.8346-2.0625-9.4023-2.0625zm0 1c4.4322 0 7.658 0.96592 8.7852 1.8496 0.59859 0.46929 1.1841 0.85339 1.584 1.2461 0.39993 0.3927 0.61328 0.74289 0.61328 1.2812 0 0.60812-0.42745 1.5677-1.1621 2.3203-0.73466 0.7526-1.737 1.3027-2.8203 1.3027-1.2044 0-3.2163-0.16972-5.0488-0.43945-0.91626-0.13487-1.7919-0.2936-2.498-0.4668s-1.2611-0.3854-1.4375-0.50586c-0.68027-0.46446-1.0323-0.88691-1.2402-1.3535s-0.27539-1.0124-0.27539-1.7344c0-0.58562 0.32873-1.5143 0.94336-2.2402 0.61463-0.72597 1.4731-1.2598 2.5566-1.2598z" style="color-rendering:auto;color:#000000;dominant-baseline:auto;font-feature-settings:normal;font-variant-alternates:normal;font-variant-caps:normal;font-variant-ligatures:normal;font-variant-numeric:normal;font-variant-position:normal;image-rendering:auto;isolation:auto;mix-blend-mode:normal;shape-padding:0;shape-rendering:auto;solid-color:#000000;text-decoration-color:#000000;text-decoration-line:none;text-decoration-style:solid;text-indent:0;text-orientation:mixed;text-transform:none;white-space:normal"/>
 </g>
 <path d="m25.5 21.5c0 1.5 0.5 2 1.5 2s1.5-0.5 1.5-1.5-0.5-1.5-1.5-1.5-1.5 0.5-1.5 1z" style="fill:#91a6ff"/>
 <path d="m27 20c-0.58333 0-1.0691 0.14461-1.4258 0.41211-0.35667 0.2675-0.57422 0.67122-0.57422 1.0879 0 0.80556 0.12264 1.4228 0.48438 1.875s0.93229 0.625 1.5156 0.625 1.1107-0.15363 1.4785-0.52148c0.36785-0.36785 0.52148-0.89518 0.52148-1.4785s-0.15363-1.1107-0.52148-1.4785c-0.36785-0.36785-0.89518-0.52148-1.4785-0.52148zm0 1c0.41667 0 0.63934 0.09637 0.77148 0.22852 0.13215 0.13215 0.22852 0.35482 0.22852 0.77148s-0.09637 0.63934-0.22852 0.77148c-0.13215 0.13215-0.35482 0.22852-0.77148 0.22852s-0.59611-0.077168-0.73438-0.25-0.26562-0.55556-0.26562-1.25c0-0.08333 0.03245-0.17961 0.17578-0.28711 0.14333-0.1075 0.40755-0.21289 0.82422-0.21289z" style="color-rendering:auto;color:#000000;dominant-baseline:auto;font-feature-settings:normal;font-variant-alternates:normal;font-variant-caps:normal;font-variant-ligatures:normal;font-variant-numeric:normal;font-variant-position:normal;image-rendering:auto;isolation:auto;mix-blend-mode:normal;shape-padding:0;shape-rendering:auto;solid-color:#000000;text-decoration-color:#000000;text-decoration-line:none;text-decoration-style:solid;text-indent:0;text-orientation:mixed;text-transform:none;white-space:normal"/>
 <path d="m20.5 21c-0.27083 0-0.63309-0.0031-0.97656 0.24023-0.34347 0.24329-0.52344 0.70213-0.52344 1.2598 0 0.86641 0.71875 1.5 1.5 1.5 0.45997 0 0.8689-0.18902 1.127-0.48047 0.25805-0.29145 0.37305-0.66016 0.37305-1.0195 0-0.4057-0.087565-0.80571-0.37109-1.0996-0.28353-0.2939-0.69344-0.40039-1.1289-0.40039zm0 1c0.28329 0 0.37337 0.05757 0.41016 0.0957 0.036784 0.038133 0.089844 0.13813 0.089844 0.4043 0 0.14062-0.04907 0.27192-0.12305 0.35547-0.073977 0.08355-0.16505 0.14453-0.37695 0.14453-0.21875 0-0.5-0.21016-0.5-0.5 0-0.37986 0.070035-0.42103 0.10156-0.44336 0.031528-0.022332 0.16927-0.056641 0.39844-0.056641z" style="color-rendering:auto;color:#000000;dominant-baseline:auto;font-feature-settings:normal;font-variant-alternates:normal;font-variant-caps:normal;font-variant-ligatures:normal;font-variant-numeric:normal;font-variant-position:normal;image-rendering:auto;isolation:auto;mix-blend-mode:normal;shape-padding:0;shape-rendering:auto;solid-color:#000000;text-decoration-color:#000000;text-decoration-line:none;text-decoration-style:solid;text-indent:0;text-orientation:mixed;text-transform:none;white-space:normal"/>
</svg>
