<svg xmlns="http://www.w3.org/2000/svg" viewBox="0 0 48 48">
  <defs>
    <linearGradient id="a" x1="1" x2="47" gradientUnits="userSpaceOnUse" gradientTransform="rotate(-90 24 24)">
      <stop stop-color="#2273ce"/>
      <stop offset="1" stop-color="#287ddc"/>
    </linearGradient>
  </defs>
  <path d="M36.31 5c5.859 4.062 9.688 10.831 9.688 18.5 0 12.426-10.07 22.5-22.5 22.5-7.669 0-14.438-3.828-18.5-9.688a23.24 23.24 0 0 0 3.781 4.969 22.923 22.923 0 0 0 15.469 5.969c12.703 0 23-10.298 23-23a22.92 22.92 0 0 0-5.969-15.469A23.216 23.216 0 0 0 36.31 5zm4.969 3.781A22.911 22.911 0 0 1 47.498 24.5c0 12.703-10.297 23-23 23a22.909 22.909 0 0 1-15.719-6.219C12.939 45.425 18.662 48 24.998 48c12.703 0 23-10.298 23-23 0-6.335-2.575-12.06-6.719-16.219z" opacity=".05"/>
  <path d="M41.28 8.781a22.923 22.923 0 0 1 5.969 15.469c0 12.703-10.297 23-23 23A22.92 22.92 0 0 1 8.78 41.281 22.911 22.911 0 0 0 24.499 47.5c12.703 0 23-10.298 23-23A22.909 22.909 0 0 0 41.28 8.781z" opacity=".1"/>
  <path d="M31.25 2.375C39.865 5.529 46 13.792 46 23.505c0 12.426-10.07 22.5-22.5 22.5-9.708 0-17.971-6.135-21.12-14.75a23 23 0 0 0 44.875-7 23 23 0 0 0-16-21.875z" opacity=".2"/>
  <path d="M24 1c12.703 0 23 10.297 23 23S36.703 47 24 47 1 36.703 1 24 11.297 1 24 1z" fill="url(#a)"/>
  <path d="M40.03 7.531A22.922 22.922 0 0 1 45.999 23c0 12.703-10.297 23-23 23A22.92 22.92 0 0 1 7.53 40.031C11.708 44.322 17.54 47 23.999 47c12.703 0 23-10.298 23-23 0-6.462-2.677-12.291-6.969-16.469z" opacity=".1"/>
  <path white-space="normal" d="M31.684 13c-.016.004-.033.008-.048.014h-.014c-.998.251-2.293.846-3.094 1.204-.063.007-.142-.04-.201-.028a3.29 3.29 0 0 0-.547.18c-.419.17-.963.439-1.606.782-1.286.686-2.978 1.675-4.797 2.783a377.432 377.432 0 0 0-10.216 6.486c-.354.243-.071.791.332.644 1.444-.556 3.766-1.435 5.786-2.097 1.01-.331 1.946-.61 2.644-.761.349-.076.644-.118.838-.125.138-.005.12-.008.118-.021-.076.281-.269.562-.381.775-.37.599-.976 1.421-1.717 2.423-1.468 1.985-3.47 4.682-5.309 7.794-.019.022-.036.05-.049.069-.199.371.285.729.581.429.014-.015.034-.047.048-.062 3.02-3.172 5.131-6.397 8.209-9.261.217-.2.372-.296.547-.429-.083.141-.137.236-.242.408-2.52 3.908-4.921 8.444-6.742 12.251-.203.377.296.735.588.422.009-.011.032-.045.042-.055v-.007c1.709-1.943 5.712-7.69 7.378-10.08.775-1.119 1.666-2.566 2.54-3.724.437-.579.872-1.085 1.267-1.433.395-.348.747-.522.976-.526.502-.007 1.088.256 1.744.817.656.561 1.367 1.414 2.104 2.513 2.503 3.977 4.171 7.897 5.447 11.538.022.062.06.117.111.159.064.052.151.1.256.118.105.017.223 0 .305-.055.289-.173.394-.473.415-.776.06-.862-.461-2.413-1.163-4.949-1.505-5.454-3.108-11.376-6.922-14.314l.215-1.364c.265-.333.645-.777.9-1.17a.365.365 0 0 0-.028-.436v-.007l-.021-.021-.007-.007-.021-.014-.007-.007-.021-.021h-.007l-.014-.007-.021-.014-.021-.014h-.007c-.009-.005-.018 0-.028-.014h-.007a.23.23 0 0 0-.028-.007h-.014c-.032-.007-.064-.009-.097-.007z" solid-color="#000000" opacity=".1" color="#000" fill-rule="evenodd"/>
  <path d="M30.684 12c-.016.004-.033.008-.048.014h-.014c-.998.251-2.293.846-3.094 1.204-.063.007-.142-.04-.201-.028a3.29 3.29 0 0 0-.547.18c-.419.17-.963.439-1.606.782-1.286.686-2.978 1.675-4.797 2.783a377.432 377.432 0 0 0-10.216 6.486c-.354.243-.071.791.332.644 1.444-.556 3.766-1.435 5.786-2.097 1.01-.331 1.946-.61 2.644-.761.349-.076.644-.118.838-.125.138-.005.12-.008.118-.021-.076.281-.269.562-.381.775-.37.599-.976 1.421-1.717 2.423-1.468 1.985-3.47 4.682-5.309 7.794-.019.022-.036.05-.049.069-.199.371.285.729.581.429.014-.015.034-.047.048-.062 3.02-3.172 5.131-6.397 8.209-9.261.217-.2.372-.296.547-.429-.083.141-.137.236-.242.408-2.52 3.908-4.921 8.444-6.742 12.251-.203.377.296.735.588.422.009-.011.032-.045.042-.055v-.007c1.709-1.943 5.712-7.69 7.378-10.08.775-1.119 1.666-2.566 2.54-3.724.437-.579.872-1.085 1.267-1.433.395-.348.747-.522.976-.526.502-.007 1.088.256 1.744.817.656.561 1.367 1.414 2.104 2.513 2.503 3.977 4.171 7.897 5.447 11.538.022.062.06.117.111.159.064.052.151.1.256.118.105.017.223 0 .305-.055.289-.173.394-.473.415-.776.06-.862-.461-2.413-1.163-4.949-1.505-5.454-3.108-11.376-6.922-14.314l.215-1.364c.265-.333.645-.777.9-1.17a.365.365 0 0 0-.028-.436v-.007l-.021-.021-.007-.007-.021-.014-.007-.007-.021-.021h-.007l-.014-.007-.021-.014-.021-.014h-.007c-.009-.005-.018 0-.028-.014h-.007a.23.23 0 0 0-.028-.007h-.014c-.032-.007-.064-.009-.097-.007z" white-space="normal" solid-color="#000000" fill="#fff8eb" color="#000" fill-rule="evenodd"/>
</svg>
