<svg xmlns="http://www.w3.org/2000/svg" viewBox="0 0 48 48">
  <defs>
    <linearGradient id="a" x1="1" x2="47" gradientUnits="userSpaceOnUse" gradientTransform="rotate(-90 24 24)">
      <stop stop-color="#e4e4e4"/>
      <stop offset="1" stop-color="#eee"/>
    </linearGradient>
  </defs>
  <path d="M36.31 5c5.859 4.062 9.688 10.831 9.688 18.5 0 12.426-10.07 22.5-22.5 22.5-7.669 0-14.438-3.828-18.5-9.688a23.24 23.24 0 0 0 3.781 4.969 22.923 22.923 0 0 0 15.469 5.969c12.703 0 23-10.298 23-23a22.92 22.92 0 0 0-5.969-15.469A23.216 23.216 0 0 0 36.31 5zm4.969 3.781A22.911 22.911 0 0 1 47.498 24.5c0 12.703-10.297 23-23 23a22.909 22.909 0 0 1-15.719-6.219C12.939 45.425 18.662 48 24.998 48c12.703 0 23-10.298 23-23 0-6.335-2.575-12.06-6.719-16.219z" opacity=".05"/>
  <path d="M41.28 8.781a22.923 22.923 0 0 1 5.969 15.469c0 12.703-10.297 23-23 23A22.92 22.92 0 0 1 8.78 41.281 22.911 22.911 0 0 0 24.499 47.5c12.703 0 23-10.298 23-23A22.909 22.909 0 0 0 41.28 8.781z" opacity=".1"/>
  <path d="M31.25 2.375C39.865 5.529 46 13.792 46 23.505c0 12.426-10.07 22.5-22.5 22.5-9.708 0-17.971-6.135-21.12-14.75a23 23 0 0 0 44.875-7 23 23 0 0 0-16-21.875z" opacity=".2"/>
  <path d="M24 1c12.703 0 23 10.297 23 23S36.703 47 24 47 1 36.703 1 24 11.297 1 24 1z" fill="url(#a)"/>
  <path d="M40.03 7.531A22.922 22.922 0 0 1 45.999 23c0 12.703-10.297 23-23 23A22.92 22.92 0 0 1 7.53 40.031C11.708 44.322 17.54 47 23.999 47c12.703 0 23-10.298 23-23 0-6.462-2.677-12.291-6.969-16.469z" opacity=".1"/>
  <path d="M26.583 10a7.992 7.992 0 0 0-2.57.484c-1.103.407 3.462.7 5.088 1.125 2.294.6 3.899 1.911 5.35 3.662 1.381 1.668 1.686 3.589 1.529 5.67-.164 2.167-.024 4.378-.727 6.471-.882 2.625-2.624 5.02-5.244 6.242-2.539 1.189-5.562 1.198-8.05-.221-1.083-.617-2.812-3.295-2.832-2.629-.081 2.744 3.155 4.301 5.656 5.342 1.938.807 3.918-.002 5.818-.156 1.854-.151 3.407-1.106 4.734-2.328 1.922-1.77 3.432-3.894 4.195-6.41 1.277-4.208-.164-8.694-2.877-12.01-2.412-2.951-6.3-5.332-10.07-5.238zm-1.152 3.623c-1.4.024-2.802.409-4.158.541-2.812.273-4.535 2.632-6.354 4.457-1.945 1.952-2.14 4.701-2.717 7.189-.348 1.502-3.671 2.831-1.434 4.133 1.264.736 3.836 1.622 2.713 3.414-1.608 2.565 1.384 1.579 2.854 2.213 1.697.732.977 3.499 2.564 3.244 1.95-.313 3.604.778 5.463.92 1.484.113 3.172.601 4.449-.137.487-.281-2.644-.112-3.643-.58-1.834-.859-4.287-.615-5.643-2.285-1.468-1.809-3.729-3.676-3.275-6.223.376-2.11-.078-4.238.404-6.334.811-3.524 3.888-6.209 7.426-7.02 1.598-.368 3.343-1.14 4.951-.207 1.723 1 3.304 2.202 4.254 3.947 1.114 2.046.044-1.49-.203-2.248-.731-2.237-2.98-3.549-5.145-4.541-.828-.379-1.668-.495-2.508-.48m1.291 5.191c-1.821 0-4.107.625-5.04 1.67-1.246 1.393-2.01 1.871-2.146 3.459-.132 1.588.134 3.644.934 5.293s2.591 2.704 4.25 3.152c1.659.448 3.192.369 4.637-.232 1.445-.602 2.097-2.16 2.914-3.193.817-1.034.552-1.881.514-3.234-.039-1.353-.497-3.341-1.246-4.635-.749-1.294-1.468-1.475-3.215-2.063-.437-.147-.993-.217-1.6-.217zm-.543 3.137c1.216.087 2.471.751 3.088 1.857.988 1.77-.692 4.72-1.965 5.297-1.273.577-1.015.219-1.992.088-.977-.131-2.094-1.102-2.451-2.453-.357-1.351-.16-3.245 1.32-4.293.555-.393 1.271-.548 2-.496z" opacity=".1"/>
  <path d="M23.719 31.391c-1.659-.448-3.451-1.504-4.251-3.153-.8-1.649-1.065-3.705-.934-5.293.132-1.588.901-2.067 2.146-3.46 1.246-1.393 4.894-2.041 6.64-1.453 1.746.588 2.467.768 3.216 2.062.749 1.294 1.208 3.283 1.247 4.636.039 1.353.303 2.2-.514 3.233-.817 1.034-1.47 2.593-2.915 3.195-1.445.602-2.976.68-4.636.232zm2.583-3.283c1.273-.577 2.952-3.526 1.965-5.296-.988-1.77-3.607-2.41-5.087-1.362-1.48 1.048-1.678 2.943-1.321 4.294.357 1.351 1.475 2.321 2.452 2.453.977.131.718.489 1.991-.088z" fill="#6f6f6f"/>
  <path d="M23.781 35.15c-2.501-1.041-5.736-2.598-5.655-5.342.02-.666 1.749 2.01 2.832 2.629 2.491 1.418 5.512 1.409 8.05.221 2.62-1.227 4.364-3.618 5.246-6.243.703-2.092.562-4.302.726-6.469.157-2.081-.148-4-1.529-5.671-1.45-1.751-3.056-3.061-5.35-3.662-1.625-.425-6.19-.718-5.087-1.125 4.466-1.647 9.669 1.123 12.638 4.755 2.713 3.319 4.155 7.804 2.877 12.01-.764 2.516-2.273 4.641-4.196 6.41-1.328 1.222-2.879 2.177-4.734 2.328-1.901.155-3.881.964-5.819.157z" fill="#065072"/>
  <path d="M23.363 38.737c-1.859-.142-3.512-1.233-5.462-.92-1.588.255-.867-2.512-2.564-3.244-1.469-.634-4.462.352-2.854-2.213 1.123-1.792-1.449-2.679-2.713-3.415-2.238-1.302 1.087-2.631 1.434-4.133.576-2.489.771-5.237 2.717-7.19 1.819-1.825 3.542-4.184 6.354-4.457 2.169-.211 4.458-1.072 6.665-.06 2.164.992 4.414 2.305 5.145 4.542.248.758 1.317 4.292.203 2.246-.95-1.745-2.53-2.946-4.253-3.946-1.608-.933-3.354-.161-4.952.207-3.538.815-6.615 3.499-7.426 7.02-.482 2.096-.028 4.225-.404 6.335-.454 2.546 1.808 4.414 3.276 6.223 1.356 1.67 3.808 1.424 5.642 2.284.999.468 4.129.3 3.642.581-1.277.738-2.966.251-4.449.137z" fill="#078907"/>
</svg>
