<svg xmlns="http://www.w3.org/2000/svg" viewBox="0 0 48 48">
  <defs>
    <linearGradient id="a" x1="1" x2="47" gradientUnits="userSpaceOnUse" gradientTransform="rotate(-90 24 24)">
      <stop stop-color="#e4e4e4"/>
      <stop offset="1" stop-color="#eee"/>
    </linearGradient>
  </defs>
  <path d="M36.31 5c5.859 4.062 9.688 10.831 9.688 18.5 0 12.426-10.07 22.5-22.5 22.5-7.669 0-14.438-3.828-18.5-9.688a23.24 23.24 0 0 0 3.781 4.969 22.923 22.923 0 0 0 15.469 5.969c12.703 0 23-10.298 23-23a22.92 22.92 0 0 0-5.969-15.469A23.216 23.216 0 0 0 36.31 5zm4.969 3.781A22.911 22.911 0 0 1 47.498 24.5c0 12.703-10.297 23-23 23a22.909 22.909 0 0 1-15.719-6.219C12.939 45.425 18.662 48 24.998 48c12.703 0 23-10.298 23-23 0-6.335-2.575-12.06-6.719-16.219z" opacity=".05"/>
  <path d="M41.28 8.781a22.923 22.923 0 0 1 5.969 15.469c0 12.703-10.297 23-23 23A22.92 22.92 0 0 1 8.78 41.281 22.911 22.911 0 0 0 24.499 47.5c12.703 0 23-10.298 23-23A22.909 22.909 0 0 0 41.28 8.781z" opacity=".1"/>
  <path d="M31.25 2.375C39.865 5.529 46 13.792 46 23.505c0 12.426-10.07 22.5-22.5 22.5-9.708 0-17.971-6.135-21.12-14.75a23 23 0 0 0 44.875-7 23 23 0 0 0-16-21.875z" opacity=".2"/>
  <path d="M24 1c12.703 0 23 10.297 23 23S36.703 47 24 47 1 36.703 1 24 11.297 1 24 1z" fill="url(#a)"/>
  <path d="M40.03 7.531A22.922 22.922 0 0 1 45.999 23c0 12.703-10.297 23-23 23A22.92 22.92 0 0 1 7.53 40.031C11.708 44.322 17.54 47 23.999 47c12.703 0 23-10.298 23-23 0-6.462-2.677-12.291-6.969-16.469z" opacity=".1"/>
  <path d="M25 9.443L21.443 13H24v8.172l1 1 1-1V13h2.557L25 9.443zM14 14v5.029l1.807-1.807L21.586 23H23v-1.414l-5.778-5.78L19.03 14H14zm6.443 0l-1.806 1.807L23 20.172V14h-2.557zM27 14v6.172l4.363-4.365L29.556 14H27zm3.97 0l1.807 1.807L27 21.586V23h1.414l5.779-5.778L36 19.03V14h-5.03zm-15.163 4.636l-1.806 1.807v2.556h6.171l-4.365-4.363zm18.385 0l-4.365 4.363H36v-2.556l-1.807-1.807zM13 21.444L9.443 25 13 28.557V26h8.17l1-1-1-1H13v-2.556zm24 0V24H28.83l-1 1 1 1H37v2.556l3.557-3.556L37 21.444zm-22.998 5.555v2.557l1.807 1.806L20.174 27h-6.172zm7.586 0l-5.78 5.778-1.806-1.807v5.029h5.03l-1.807-1.807 5.777-5.779V27h-1.414zm5.414 0v1.414l5.777 5.78-1.806 1.806h5.029V30.97l-1.807 1.807-5.78-5.778h-1.413zm2.828 0l4.365 4.363 1.807-1.806v-2.557H29.83zm-4.828.829l-1 1v8.17h-2.557l3.557 3.557L28.559 37h-2.557v-8.172l-1-1zm-2 2l-4.363 4.364L20.445 36h2.557v-6.172zm4 0v6.17h2.557l1.806-1.806-4.363-4.365z" opacity=".1"/>
  <path d="M24 8.443L20.443 12H23v8.172l1 1 1-1V12h2.557z" fill="#efa724"/>
  <path d="M36 20.443V23h-8.172l-1 1 1 1H36v2.557L39.557 24" fill="#262577"/>
  <path d="M24 26.828l-1 1V36h-2.557L24 39.557 27.557 36H25v-8.172" fill="#9ccd2a"/>
  <path d="M12 20.443L8.443 24 12 27.557V25h8.172l1-1-1-1H12" fill="#932279"/>
  <path d="M26 26v1.414l5.777 5.779L29.97 35H35v-5.03l-1.807 1.807L27.414 26H26zm2.828 0l4.365 4.363L35 28.556v-2.557h-6.172zM26 28.828V35h2.557l1.807-1.807-4.363-4.365z" fill="#efa724"/>
  <path d="M13 26v2.557l1.807 1.807 4.365-4.363H13zm7.586 0l-5.779 5.777L13 29.97V35h5.03l-1.807-1.807L22 27.414V26h-1.414zM22 28.828l-4.363 4.365L19.444 35h2.557v-6.172z" fill="#262577"/>
  <path d="M26 13v6.172l4.363-4.365L28.556 13h-2.557zm3.971 0l1.807 1.807-5.777 5.779V22h1.414l5.779-5.777 1.807 1.807V13h-5.03zm3.223 4.637L28.829 22h6.172v-2.557l-1.807-1.807z" fill="#932279"/>
  <path d="M13 13v5.03l1.807-1.807L20.586 22H22v-1.414l-5.777-5.779L18.03 13H13zm6.443 0l-1.807 1.807 4.363 4.365V13h-2.557zm-4.637 4.637l-1.807 1.807v2.557h6.172l-4.365-4.363z" fill="#9ccd2a"/>
</svg>
