<svg xmlns="http://www.w3.org/2000/svg" viewBox="0 0 48 48">
  <defs>
    <linearGradient id="a" gradientUnits="userSpaceOnUse" gradientTransform="rotate(-90 24 24)" x1="1" x2="47">
      <stop stop-color="#2684da"/>
      <stop offset="1" stop-color="#3f96e5"/>
    </linearGradient>
  </defs>
  <path d="M36.31 5c5.859 4.062 9.688 10.831 9.688 18.5 0 12.426-10.07 22.5-22.5 22.5-7.669 0-14.438-3.828-18.5-9.688a23.24 23.24 0 0 0 3.781 4.969 22.923 22.923 0 0 0 15.469 5.969c12.703 0 23-10.298 23-23a22.92 22.92 0 0 0-5.969-15.469A23.216 23.216 0 0 0 36.31 5zm4.969 3.781A22.911 22.911 0 0 1 47.498 24.5c0 12.703-10.297 23-23 23a22.909 22.909 0 0 1-15.719-6.219C12.939 45.425 18.662 48 24.998 48c12.703 0 23-10.298 23-23 0-6.335-2.575-12.06-6.719-16.219z" opacity=".05"/>
  <path d="M41.28 8.781a22.923 22.923 0 0 1 5.969 15.469c0 12.703-10.297 23-23 23A22.92 22.92 0 0 1 8.78 41.281 22.911 22.911 0 0 0 24.499 47.5c12.703 0 23-10.298 23-23A22.909 22.909 0 0 0 41.28 8.781z" opacity=".1"/>
  <path d="M31.25 2.375C39.865 5.529 46 13.792 46 23.505c0 12.426-10.07 22.5-22.5 22.5-9.708 0-17.971-6.135-21.12-14.75a23 23 0 0 0 44.875-7 23 23 0 0 0-16-21.875z" opacity=".2"/>
  <path d="M24 1c12.703 0 23 10.297 23 23S36.703 47 24 47 1 36.703 1 24 11.297 1 24 1z" fill="url(#a)"/>
  <path d="M40.03 7.531A22.922 22.922 0 0 1 45.999 23c0 12.703-10.297 23-23 23A22.92 22.92 0 0 1 7.53 40.031C11.708 44.322 17.54 47 23.999 47c12.703 0 23-10.298 23-23 0-6.462-2.677-12.291-6.969-16.469z" opacity=".1"/>
  <path d="M14 16c-.5 0-1 .5-1 1v17h24V19.066c0-.533-.5-1.066-1-1.066H26l-1-2z" opacity=".1"/>
  <g>
    <path d="M12.001 16.002v14h23V23l-1-6h-9l-.999-1.998H13.004c-.5 0-1 .5-1 1z" fill="#ff8f00"/>
    <path fill="#fffdf0" d="M14 18h10.998v4H14z"/>
    <path d="M36 18.067v14.935H12.001v-14h12.001l1-1.998H35c.5 0 .999.535.999 1.067z" fill="#ffca28"/>
    <path d="M26.185 20.743c-.046 0-.078.01-.103.05-.124.219.12.927-.067 1.3-.184.372-.184.464-1.669.28-1.485-.185-3.71.464-4.51 1.264-.812.805-2.194 2.846-2.48 4.022-.274 1.176-.15 1.237.222 1.056.369-.188.68-1.828 2.867-2.906 2.197-1.08 3.22-.22 3.22-.22s-1.888-.25-3.277.897c-1.389 1.148-2.257 2.038-2.225 2.392.032.34.152.27.376 0 .216-.28 1.513-1.98 3.057-2.54 1.545-.564 2.194-.525 2.782-.217.588.309.716.61-.117.826-.84.223-1.18.124-1.18.124s.712.648 1.726.648c1.024 0 1.644-.063 1.644-.063s2.53 2.629 3.182 3.157c.645.524 1.364.276 1.364-.004 0-.308-.312-1.176-.312-1.176s.648-1.457-.1-3.094c-.74-1.64-2.78-3.334-2.78-3.334s-.217-.928-.677-1.548c-.376-.5-.755-.879-.95-.886m-10.527 7.49a.547.547 0 0 0-.27.078c-.712.4-.34 1.117.28 1.117.617 0 1.297-.252 1.297-.252s-.662-.967-1.307-.943m1.368 1.191s-1.386.213-1.542.865c-.156.648.581.836 1.045.496.465-.34.497-1.361.497-1.361m0 0" fill="#6a6034" opacity=".6"/>
  </g>
</svg>
