<svg version="1.1" viewBox="0 0 48 48" xmlns="http://www.w3.org/2000/svg">
 <defs>
  <linearGradient id="bg" x2="0" y1="1" y2="47" gradientUnits="userSpaceOnUse">
   <stop style="stop-color:#eee" offset="0"/>
   <stop style="stop-color:#e4e4e4" offset="1"/>
  </linearGradient>
 </defs>
 <path d="m36.31 5c5.859 4.062 9.688 10.831 9.688 18.5 0 12.426-10.07 22.5-22.5 22.5-7.669 0-14.438-3.828-18.5-9.688 1.037 1.822 2.306 3.499 3.781 4.969 4.085 3.712 9.514 5.969 15.469 5.969 12.703 0 23-10.298 23-23 0-5.954-2.256-11.384-5.969-15.469-1.469-1.475-3.147-2.744-4.969-3.781zm4.969 3.781c3.854 4.113 6.219 9.637 6.219 15.719 0 12.703-10.297 23-23 23-6.081 0-11.606-2.364-15.719-6.219 4.16 4.144 9.883 6.719 16.219 6.719 12.703 0 23-10.298 23-23 0-6.335-2.575-12.06-6.719-16.219z" style="opacity:.05"/>
 <path d="m41.28 8.781c3.712 4.085 5.969 9.514 5.969 15.469 0 12.703-10.297 23-23 23-5.954 0-11.384-2.256-15.469-5.969 4.113 3.854 9.637 6.219 15.719 6.219 12.703 0 23-10.298 23-23 0-6.081-2.364-11.606-6.219-15.719z" style="opacity:.1"/>
 <path d="m31.25 2.375c8.615 3.154 14.75 11.417 14.75 21.13 0 12.426-10.07 22.5-22.5 22.5-9.708 0-17.971-6.135-21.12-14.75a23 23 0 0 0 44.875-7 23 23 0 0 0-16-21.875z" style="opacity:.2"/>
 <circle cx="24" cy="24" r="23" style="fill:url(#bg)"/>
 <path d="m40.03 7.531c3.712 4.084 5.969 9.514 5.969 15.469 0 12.703-10.297 23-23 23-5.954 0-11.384-2.256-15.469-5.969 4.178 4.291 10.01 6.969 16.469 6.969 12.703 0 23-10.298 23-23 0-6.462-2.677-12.291-6.969-16.469z" style="opacity:.1"/>
 <path d="m32 12-7.1523 5.0078c-6.4103-2.2308-7.8477 1.9922-7.8477 1.9922l-4 5s0.02909 0.42471 0.27148 1.1113l-1.2715 0.88867v4l4 3 2.0625-2.0625c0.83771 0.66262 1.7986 1.3507 2.9375 2.0625 1.398 0.87375 2.6134 1.5266 3.6973 2.0371l-0.69727 2.9629 4 2 2-2 0.36523-1.459c1.2035-0.076236 1.6348-0.54102 1.6348-0.54102l3-6s2.3784-3.0141-1.209-7.1641l2.209-8.8359zm-6.6113 11.611c0.20417 0.13022 0.4053 0.24151 0.61133 0.38867 0.39125 0.27946 0.74896 0.56703 1.0918 0.85742l-1.0488 4.4629c-1.0454-0.31662-2.0815-0.74344-3.043-1.3203-0.41089-0.24654-0.78994-0.5374-1.1543-0.8457z" style="opacity:.1"/>
 <path d="m12 23 4-5s1.7125 6.4275 6 9c5 3 12 2 12 2l-3 6s-2.2693 2.4567-11-3c-8-5-8-9-8-9z" style="fill:#2d2d2d"/>
 <path d="m15 32 12-12 2-3-18 8z" style="fill:#0dc106"/>
 <path d="m15 28v4l-4-3v-4z" style="fill:#18da09"/>
 <path d="m29 17-2 3-4 17h6z" style="fill:#0a8a03"/>
 <path d="m11 25 4 3 14-11-4 17 4 3 6-24-4-2z" style="fill:#9af528"/>
 <path d="m25 34-2 3 4 2 2-2z" style="fill:#0dbc05"/>
 <path d="m12 23 4-5s2-6 12 0 6 11 6 11l-3 6s1-7-6-12-13 0-13 0z" style="fill:#454545"/>
</svg>
