<svg viewBox="0 0 48 48" xmlns="http://www.w3.org/2000/svg">
 <defs>
  <linearGradient id="linearGradient3764" x1="1" x2="47" gradientTransform="matrix(0 -1 1 0 -1.5e-6 48)" gradientUnits="userSpaceOnUse">
   <stop style="stop-color:#d0ecd7" offset="0"/>
   <stop style="stop-color:#def2e3" offset="1"/>
  </linearGradient>
 </defs>
 <path d="m36.31 5c5.859 4.062 9.688 10.831 9.688 18.5 0 12.426-10.07 22.5-22.5 22.5-7.669 0-14.438-3.828-18.5-9.688 1.037 1.822 2.306 3.499 3.781 4.969 4.085 3.712 9.514 5.969 15.469 5.969 12.703 0 23-10.298 23-23 0-5.954-2.256-11.384-5.969-15.469-1.469-1.475-3.147-2.744-4.969-3.781zm4.969 3.781c3.854 4.113 6.219 9.637 6.219 15.719 0 12.703-10.297 23-23 23-6.081 0-11.606-2.364-15.719-6.219 4.16 4.144 9.883 6.719 16.219 6.719 12.703 0 23-10.298 23-23 0-6.335-2.575-12.06-6.719-16.219z" style="opacity:.05"/>
 <path d="m41.28 8.781c3.712 4.085 5.969 9.514 5.969 15.469 0 12.703-10.297 23-23 23-5.954 0-11.384-2.256-15.469-5.969 4.113 3.854 9.637 6.219 15.719 6.219 12.703 0 23-10.298 23-23 0-6.081-2.364-11.606-6.219-15.719z" style="opacity:.1"/>
 <path d="m31.25 2.375c8.615 3.154 14.75 11.417 14.75 21.13 0 12.426-10.07 22.5-22.5 22.5-9.708 0-17.971-6.135-21.12-14.75a23 23 0 0 0 44.875-7 23 23 0 0 0-16-21.875z" style="opacity:.2"/>
 <path d="m24 1c12.703 0 23 10.297 23 23s-10.297 23-23 23-23-10.297-23-23 10.297-23 23-23z" style="fill:url(#linearGradient3764)"/>
 <path d="m40.03 7.531c3.712 4.084 5.969 9.514 5.969 15.469 0 12.703-10.297 23-23 23-5.954 0-11.384-2.256-15.469-5.969 4.178 4.291 10.01 6.969 16.469 6.969 12.703 0 23-10.298 23-23 0-6.462-2.677-12.291-6.969-16.469z" style="opacity:.1"/>
 <path d="m28 11c0.441 1.667-6.279 2.222-3 5-1.765-2.222 5.787-3 3-5zm-3 5a11 3 0 0 0-11 3 11 3 0 0 0 1.01 1.246 13 9 0 0 0-3.01 5.754 13 9 0 0 0 2.75 5.52c-0.424 1.017-0.75 2.187-0.75 3.48 1.312 0 2.995-0.579 4.486-1.225a13 9 0 0 0 6.514 1.225 13 9 0 0 0 6.518-1.223c1.491 0.645 3.171 1.223 4.482 1.223 0-1.29-0.325-2.458-0.748-3.473a13 9 0 0 0 2.748-5.527 13 9 0 0 0-3.01-5.75 11 3 0 0 0 1.014-1.25 11 3 0 0 0-6.484-2.732c2.587-1.54 6.266-2.863 3.498-5.268 0.605 1.972-4.678 3.085-6.439 5.03a11 3 0 0 0-1.574-0.033m0 1a9 2 0 0 1 1.029 0.014c-0.153 0.821 0.352 1.788 1.992 2.986-1.066-1.158-0.692-2.061 0.238-2.861a9 2 0 0 1 5.74 1.861 9 2 0 0 1-9 2 9 2 0 0 1-9-2 9 2 0 0 1 9-2z" style="opacity:.1"/>
 <path d="m24 15a11 3 0 0 0-11 3 11 3 0 0 0 1.01 1.246 13 9 0 0 0-3.01 5.754 13 9 0 0 0 2.75 5.52c-0.424 1.016-0.75 2.187-0.75 3.48 1.312 0 2.995-0.579 4.486-1.225a13 9 0 0 0 6.514 1.225 13 9 0 0 0 6.518-1.223c1.492 0.645 3.171 1.223 4.482 1.223 0-1.29-0.325-2.458-0.75-3.473a13 9 0 0 0 2.75-5.527 13 9 0 0 0-3.014-5.75 11 3 0 0 0 1.014-1.25 11 3 0 0 0-11-3m0 1a9 2 0 0 1 9 2 9 2 0 0 1-9 2 9 2 0 0 1-9-2 9 2 0 0 1 9-2z" style="fill:#f06a62"/>
 <path d="m24.19 15c0.122 0.299 0.371 0.628 0.809 0.998-0.291-0.366-0.313-0.691-0.186-0.99a11 3 0 0 0-0.623-8e-3zm3.42 0.168c-0.436 0.285-0.799 0.588-1.08 0.912a9 2 0 0 1 2.773 0.305c0.427-0.262 0.891-0.517 1.355-0.771a11 3 0 0 0-3.049-0.445zm0.252 4.635a9 2 0 0 1-0.082 8e-3c0.081 0.063 0.153 0.123 0.24 0.188-0.061-0.067-0.106-0.13-0.158-0.195z" style="opacity:.1"/>
 <path d="m27 10c0.441 1.667-6.279 2.222-3 5-1.765-2.222 5.787-3 3-5zm5.01 0c0.921 3-11.835 4-4.992 9-3.684-4 9.597-5 4.992-9z" style="fill:#9fbfaa"/>
</svg>
