<svg version="1.1" viewBox="0 0 48 48" xmlns="http://www.w3.org/2000/svg">
 <defs>
  <linearGradient id="bg" x2="0" y1="1" y2="47" gradientUnits="userSpaceOnUse">
   <stop style="stop-color:#d7ebd6" offset="0"/>
   <stop style="stop-color:#c9e4c7" offset="1"/>
  </linearGradient>
 </defs>
 <path d="m36.3 5c5.86 4.06 9.69 10.8 9.69 18.5 0 12.4-10.1 22.5-22.5 22.5-7.67 0-14.4-3.83-18.5-9.69 1.04 1.82 2.31 3.5 3.78 4.97 4.08 3.71 9.51 5.97 15.5 5.97 12.7 0 23-10.3 23-23 0-5.95-2.26-11.4-5.97-15.5-1.47-1.48-3.15-2.74-4.97-3.78zm4.97 3.78c3.85 4.11 6.22 9.64 6.22 15.7 0 12.7-10.3 23-23 23-6.08 0-11.6-2.36-15.7-6.22 4.16 4.14 9.88 6.72 16.2 6.72 12.7 0 23-10.3 23-23 0-6.34-2.58-12.1-6.72-16.2z" style="opacity:.05"/>
 <path d="m41.3 8.78c3.71 4.08 5.97 9.51 5.97 15.5 0 12.7-10.3 23-23 23-5.95 0-11.4-2.26-15.5-5.97 4.11 3.85 9.64 6.22 15.7 6.22 12.7 0 23-10.3 23-23 0-6.08-2.36-11.6-6.22-15.7z" style="opacity:.1"/>
 <path d="m31.2 2.38c8.62 3.15 14.8 11.4 14.8 21.1 0 12.4-10.1 22.5-22.5 22.5-9.71 0-18-6.14-21.1-14.8a23 23 0 0 0 44.9-7 23 23 0 0 0-16-21.9z" style="opacity:.2"/>
 <circle cx="24" cy="24" r="23" style="fill:url(#bg)"/>
 <path d="m19 15c-3.88 0-7 3.12-7 7 0 0.552 0.448 1 1 1 6.09 0 11 4.91 11 11 0 0.552 0.448 1 1 1h6c3.88 0 7-3.12 7-7v-6c0-3.88-3.12-7-7-7zm-6 11c-0.552 0-1 0.448-1 1s0.448 1 1 1c3.32 0 6 2.68 6 6 0 0.552 0.448 1 1 1s1-0.448 1-1c0-4.43-3.57-8-8-8zm0 5-1 1c0 0.552 0.448 1 1 1l1 1c0 0.552 0.448 1 1 1s1-0.448 1-1c0-1.66-1.34-3-3-3z" style="opacity:.1"/>
 <path d="m40 7.53c3.71 4.08 5.97 9.51 5.97 15.5 0 12.7-10.3 23-23 23-5.95 0-11.4-2.26-15.5-5.97 4.18 4.29 10 6.97 16.5 6.97 12.7 0 23-10.3 23-23 0-6.46-2.68-12.3-6.97-16.5z" style="opacity:.1"/>
 <path d="m18 14c-3.88 0-7 3.12-7 7a1 1 0 0 0 1 1c6.09 0 11 4.91 11 11 0 0.552 0.448 1 1 1h6c3.88 0 7-3.12 7-7v-6c0-3.88-3.12-7-7-7z" style="fill:#34ac8a"/>
 <path d="m12 30a1 1 0 0 0-1 1 1 1 0 0 0 1 1c0.554 0 1 0.446 1 1a1 1 0 0 0 1 1 1 1 0 0 0 1-1c0-1.66-1.34-3-3-3z" style="fill:#24a2ad"/>
 <path d="m12 25a1 1 0 0 0-1 1 1 1 0 0 0 1 1c3.32 0 6 2.68 6 6a1 1 0 0 0 1 1 1 1 0 0 0 1-1c0-4.43-3.57-8-8-8z" style="fill:#4eb285"/>
 <path d="m30.5 28c-2.95-3.6e-4 -5.5-2.46-5.5-5.5s2.39-5.5 5.34-5.5c2.78-7.1e-4 4.34 1.8 4.95 4.01 0.297 1.07-0.534 1.99-1.65 1.99h-5.1c-0.305 0-0.558 0.25-0.512 0.551 0.215 1.39 1.23 2.45 2.46 2.45l2.68-1.57c0.317-0.452 0.941-0.561 1.39-0.244 0.452 0.317 0.561 0.941 0.244 1.39-0.637 0.91-1.71 2.43-4.32 2.43zm2.44-7.45c-0.253-0.89-1.25-1.55-2.44-1.55-1.24 0-2.28 0.728-2.47 1.68z" style="opacity:.1"/>
 <path d="m29.5 27c-2.95-3.6e-4 -5.5-2.46-5.5-5.5s2.39-5.5 5.34-5.5c2.78-7.1e-4 4.34 1.8 4.95 4.01 0.297 1.07-0.534 1.99-1.65 1.99h-5.1c-0.305 0-0.558 0.25-0.512 0.551 0.215 1.39 1.23 2.45 2.46 2.45 1.39 0 1.94-0.511 2.68-1.57 0.317-0.452 0.941-0.561 1.39-0.244 0.452 0.317 0.561 0.941 0.244 1.39-0.637 0.91-1.71 2.43-4.32 2.43zm-2.18-7h4.23c0.249 0 0.457-0.206 0.389-0.445-0.253-0.89-1.25-1.55-2.44-1.55-1.24 0-2.28 0.728-2.47 1.68-0.0353 0.175 0.113 0.32 0.291 0.32z" style="fill:#f9f9f9"/>
</svg>
