<svg xmlns="http://www.w3.org/2000/svg" viewBox="0 0 48 48">
  <defs>
    <linearGradient id="a" y1="47" x2="0" y2="1" gradientUnits="userSpaceOnUse">
      <stop stop-color="#eaeaea"/>
      <stop offset="1" stop-color="#f4f4f4"/>
    </linearGradient>
  </defs>
  <path d="M36.31 5c5.859 4.062 9.688 10.831 9.688 18.5 0 12.426-10.07 22.5-22.5 22.5-7.669 0-14.438-3.828-18.5-9.688a23.24 23.24 0 0 0 3.781 4.969 22.923 22.923 0 0 0 15.469 5.969c12.703 0 23-10.298 23-23a22.92 22.92 0 0 0-5.969-15.469A23.216 23.216 0 0 0 36.31 5zm4.969 3.781A22.911 22.911 0 0 1 47.498 24.5c0 12.703-10.297 23-23 23a22.909 22.909 0 0 1-15.719-6.219C12.939 45.425 18.662 48 24.998 48c12.703 0 23-10.298 23-23 0-6.335-2.575-12.06-6.719-16.219z" opacity=".05"/>
  <path d="M41.28 8.781a22.923 22.923 0 0 1 5.969 15.469c0 12.703-10.297 23-23 23A22.92 22.92 0 0 1 8.78 41.281 22.911 22.911 0 0 0 24.499 47.5c12.703 0 23-10.298 23-23A22.909 22.909 0 0 0 41.28 8.781z" opacity=".1"/>
  <path d="M31.25 2.375C39.865 5.529 46 13.792 46 23.505c0 12.426-10.07 22.5-22.5 22.5-9.708 0-17.971-6.135-21.12-14.75a23 23 0 0 0 44.875-7 23 23 0 0 0-16-21.875z" opacity=".2"/>
  <path d="M24 1c12.703 0 23 10.297 23 23S36.703 47 24 47 1 36.703 1 24 11.297 1 24 1z" fill="url(#a)"/>
  <path d="M40.03 7.531A22.922 22.922 0 0 1 45.999 23c0 12.703-10.297 23-23 23A22.92 22.92 0 0 1 7.53 40.031C11.708 44.322 17.54 47 23.999 47c12.703 0 23-10.298 23-23 0-6.462-2.677-12.291-6.969-16.469z" opacity=".1"/>
  <path d="M25 10a15 15 0 0 0-15 15 15 15 0 0 0 15 15 15 15 0 0 0 15-15 15 15 0 0 0-15-15m0 2a13 13 0 0 1 13 13 13 13 0 0 1-13 13 13 13 0 0 1-13-13 13 13 0 0 1 13-13m8.975 7a.997.997 0 0 0-.676.291 75.736 75.736 0 0 1-4.842 4.4c-1.647-1.344-3.227-2.611-4.961-3.481-.968-.487-1.82-.86-2.672-1.05-.852-.186-1.734-.16-2.547.184-1.571.666-3.278 2.522-3.277 5.629 0 3.106 1.706 4.968 3.275 5.637.812.346 1.694.377 2.547.193.853-.184 1.706-.556 2.674-1.039 1.731-.864 3.312-2.126 4.959-3.469a77.02 77.02 0 0 1 4.844 4.41A.997.997 0 0 0 35 30V20a.997.997 0 0 0-1.025-.996zm-14.311 2.029c.214-.012.45.014.732.076.566.125 1.295.426 2.203.883 1.325.666 2.728 1.844 4.164 3-1.434 1.152-2.835 2.324-4.158 2.984-.907.453-1.638.753-2.203.875s-.936.094-1.344-.08c-.869-.37-2.064-1.393-2.064-3.801 0-2.407 1.193-3.428 2.059-3.793.203-.086.397-.135.611-.146zm13.342 1.219v5.494c-.964-.914-1.921-1.82-3.02-2.75 1.098-.928 2.056-1.831 3.02-2.744zM20 22.5a1 1 0 0 0-1 1 1 1 0 0 0 1 1 1 1 0 0 0 1-1 1 1 0 0 0-1-1z" white-space="normal" solid-color="#000000" fill-opacity=".098" color="#000" fill-rule="evenodd"/>
  <path d="M24 9A15 15 0 0 0 9 24a15 15 0 0 0 15 15 15 15 0 0 0 15-15A15 15 0 0 0 24 9m0 2a13 13 0 0 1 13 13 13 13 0 0 1-13 13 13 13 0 0 1-13-13 13 13 0 0 1 13-13m8.975 7a.997.997 0 0 0-.675.295 77.231 77.231 0 0 1-4.843 4.4c-1.647-1.348-3.227-2.615-4.961-3.485-.968-.487-1.82-.86-2.672-1.05-.852-.186-1.734-.16-2.547.184-1.571.666-3.278 2.522-3.277 5.629 0 3.107 1.706 4.968 3.275 5.636.815.346 1.694.378 2.547.194.853-.184 1.706-.553 2.674-1.039 1.734-.864 3.312-2.126 4.959-3.469a77.334 77.334 0 0 1 4.845 4.41A.997.997 0 0 0 34 29V19a.997.997 0 0 0-1.025-1zm-14.311 2.03c.215-.01.446.02.732.08.566.124 1.296.426 2.204.882 1.325.666 2.728 1.844 4.164 3-1.434 1.156-2.835 2.324-4.159 2.985-.907.452-1.637.753-2.203.875-.565.121-.936.093-1.342-.081-.871-.37-2.065-1.393-2.066-3.8-.001-2.408 1.196-3.428 2.056-3.793.206-.09.4-.14.614-.15zm13.346 1.222v5.494c-.97-.914-1.92-1.82-3.024-2.75 1.094-.926 2.054-1.826 3.024-2.744M19 21.5a1 1 0 0 0-1 1 1 1 0 0 0 1 1 1 1 0 0 0 1-1 1 1 0 0 0-1-1z" white-space="normal" solid-color="#000000" fill="#efb811" color="#000" fill-rule="evenodd"/>
</svg>
