<svg viewBox="0 0 48 48" xmlns="http://www.w3.org/2000/svg">
  <defs>
    <linearGradient id="a" x1="1" x2="47" gradientUnits="userSpaceOnUse">
      <stop offset="0" stop-color="#767676"/>
      <stop offset="1" stop-color="gray"/>
    </linearGradient>
  </defs>
  <path d="M36.31 5c5.859 4.062 9.688 10.831 9.688 18.5 0 12.426-10.07 22.5-22.5 22.5-7.669 0-14.438-3.828-18.5-9.688a23.24 23.24 0 0 0 3.781 4.969 22.923 22.923 0 0 0 15.469 5.969c12.703 0 23-10.298 23-23a22.92 22.92 0 0 0-5.969-15.469A23.216 23.216 0 0 0 36.31 5zm4.969 3.781A22.911 22.911 0 0 1 47.498 24.5c0 12.703-10.297 23-23 23a22.909 22.909 0 0 1-15.719-6.219C12.939 45.425 18.662 48 24.998 48c12.703 0 23-10.298 23-23 0-6.335-2.575-12.06-6.719-16.219z" opacity=".05"/>
  <path d="M41.28 8.781a22.923 22.923 0 0 1 5.969 15.469c0 12.703-10.297 23-23 23A22.92 22.92 0 0 1 8.78 41.281 22.911 22.911 0 0 0 24.499 47.5c12.703 0 23-10.298 23-23A22.909 22.909 0 0 0 41.28 8.781z" opacity=".1"/>
  <path d="M31.25 2.375C39.865 5.529 46 13.792 46 23.505c0 12.426-10.07 22.5-22.5 22.5-9.708 0-17.971-6.135-21.12-14.75a23 23 0 0 0 44.875-7 23 23 0 0 0-16-21.875z" opacity=".2"/>
  <path d="M24 1c12.703 0 23 10.297 23 23S36.703 47 24 47 1 36.703 1 24 11.297 1 24 1z" fill="url(#a)" transform="rotate(-90 24 24)"/>
  <path d="M40.03 7.531A22.922 22.922 0 0 1 45.999 23c0 12.703-10.297 23-23 23A22.92 22.92 0 0 1 7.53 40.031C11.708 44.322 17.54 47 23.999 47c12.703 0 23-10.298 23-23 0-6.462-2.677-12.291-6.969-16.469z" opacity=".1"/>
  <path d="M25 13c-2.25 0-4.456.829-6.14 2.232S16 18.667 16 21a1 1 0 1 0 2 0c0-1.667.825-3.136 2.14-4.232S23.25 15 25 15c1.835 0 3.63.472 4.902 1.426C31.174 17.38 32 18.766 32 21c0 1 .057 2.471 1.293 3.707a1 1 0 1 0 1.414-1.414C33.943 22.529 34 22 34 21c0-2.766-1.171-4.88-2.898-6.176C29.374 13.528 27.168 13 25 13zm0 4c-3.033 0-5 2.5-5 5 0 .667-.268 1.06-.805 1.418-.536.358-1.362.582-2.195.582a1 1 0 1 0 0 2c1.167 0 2.341-.276 3.305-.918C21.268 24.44 22 23.333 22 22c0-1.5 1.033-3 3-3s3 1.5 3 3c0 2.167.541 3.886 1.451 5.1.91 1.213 2.216 1.9 3.549 1.9a1 1 0 1 0 0-2c-.667 0-1.36-.313-1.95-1.1-.59-.786-1.05-2.067-1.05-3.9 0-2.5-1.967-5-5-5zm-.043 4.016A1 1 0 0 0 24 22c0 2.233-.842 3.648-2.008 4.602C20.827 27.555 19.278 28 18 28a1 1 0 1 0 0 2c1.722 0 3.673-.555 5.258-1.852.587-.48 1.022-1.178 1.455-1.869.554 1.641 1.363 3.006 2.303 4.024C28.675 32.1 30.5 33 32 33a1 1 0 1 0 0-2c-.5 0-2.174-.6-3.516-2.053C27.144 27.494 26 25.262 26 22a1 1 0 0 0-1.043-.984zM23.987 30a1 1 0 0 0-.694.293C22.529 31.057 20.667 32 19 32a1 1 0 1 0 0 2c1.904 0 3.549-.77 4.809-1.701.816 1.003 2.05 2.709 4.875 3.65a1 1 0 1 0 .632-1.898c-2.683-.895-3.373-2.522-4.609-3.758a1 1 0 0 0-.72-.293zm-1.571 4.6a4.86 4.86 0 0 0-1.863.505 1 1 0 1 0 .894 1.79c.762-.381 1.471-.379 2.153-.184a4.15 4.15 0 0 1 1.693.996 1 1 0 1 0 1.414-1.414 5.964 5.964 0 0 0-2.557-1.504 5.112 5.112 0 0 0-1.734-.19z" opacity=".1"/>
  <path d="M24 12c-2.25 0-4.456.829-6.14 2.232S15 17.667 15 20a1 1 0 1 0 2 0c0-1.667.825-3.136 2.14-4.232S22.25 14 24 14c1.835 0 3.628.472 4.9 1.426 1.272.954 2.1 2.34 2.1 4.574 0 1 .057 2.471 1.293 3.707a1 1 0 1 0 1.414-1.414C32.943 21.529 33 21 33 20c0-2.766-1.171-4.88-2.898-6.176C28.374 12.528 26.168 12 24 12zm0 4c-3.033 0-5 2.5-5 5 0 .667-.268 1.06-.805 1.418-.536.358-1.362.582-2.195.582a1 1 0 1 0 0 2c1.167 0 2.341-.276 3.305-.918C20.268 23.44 21 22.333 21 21c0-1.5 1.033-3 3-3s3 1.5 3 3c0 2.167.54 3.886 1.45 5.1.91 1.213 2.217 1.9 3.55 1.9a1 1 0 1 0 0-2c-.667 0-1.36-.313-1.95-1.1-.59-.786-1.05-2.067-1.05-3.9 0-2.5-1.967-5-5-5zm-.043 4.016A1 1 0 0 0 23 21c0 2.233-.842 3.648-2.008 4.602C19.827 26.555 18.278 27 17 27a1 1 0 1 0 0 2c1.722 0 3.673-.555 5.258-1.852.587-.48 1.022-1.178 1.455-1.869.554 1.641 1.363 3.006 2.303 4.024C27.675 31.1 29.5 32 31 32a1 1 0 1 0 0-2c-.5 0-2.174-.6-3.516-2.053C26.144 26.494 25 24.262 25 21a1 1 0 0 0-1.043-.984zM22.984 29a1 1 0 0 0-.691.293C21.529 30.057 19.667 31 18 31a1 1 0 1 0 0 2c1.904 0 3.549-.77 4.809-1.701.816 1.003 2.05 2.709 4.875 3.65a1 1 0 1 0 .632-1.898c-2.683-.895-3.373-2.522-4.609-3.758a1 1 0 0 0-.723-.293zm-1.57 4.6c-.61.04-1.242.196-1.861.505a1 1 0 1 0 .894 1.79c.762-.381 1.471-.379 2.153-.184a4.15 4.15 0 0 1 1.693.996 1 1 0 1 0 1.414-1.414 5.964 5.964 0 0 0-2.556-1.504 5.123 5.123 0 0 0-1.737-.19z" fill="#fff"/>
</svg>
