<svg viewBox="0 0 48 48" xmlns="http://www.w3.org/2000/svg">
 <defs>
  <linearGradient id="linearGradient3764" x1="1" x2="47" gradientTransform="matrix(0 -1 1 0 -1.5e-6 48)" gradientUnits="userSpaceOnUse">
   <stop style="stop-color:#e4e4e4" offset="0"/>
   <stop style="stop-color:#eee" offset="1"/>
  </linearGradient>
  <linearGradient id="linearGradient4814" x2="0" y1="36" y2="31" gradientTransform="matrix(1.0003 0 0 1 .98476 .097817)" gradientUnits="userSpaceOnUse">
   <stop style="stop-color:#347bc6" offset="0"/>
   <stop style="stop-color:#2e6cae" offset="1"/>
  </linearGradient>
  <linearGradient id="linearGradient4816" x2="0" y1="32" y2="11" gradientTransform="matrix(1 0 0 .9407 .98787 2.074)" gradientUnits="userSpaceOnUse">
   <stop style="stop-color:#224e7e" offset="0"/>
   <stop style="stop-color:#154477" offset="1"/>
  </linearGradient>
 </defs>
 <path d="m36.31 5c5.859 4.062 9.688 10.831 9.688 18.5 0 12.426-10.07 22.5-22.5 22.5-7.669 0-14.438-3.828-18.5-9.688 1.037 1.822 2.306 3.499 3.781 4.969 4.085 3.712 9.514 5.969 15.469 5.969 12.703 0 23-10.298 23-23 0-5.954-2.256-11.384-5.969-15.469-1.469-1.475-3.147-2.744-4.969-3.781zm4.969 3.781c3.854 4.113 6.219 9.637 6.219 15.719 0 12.703-10.297 23-23 23-6.081 0-11.606-2.364-15.719-6.219 4.16 4.144 9.883 6.719 16.219 6.719 12.703 0 23-10.298 23-23 0-6.335-2.575-12.06-6.719-16.219z" style="opacity:.05"/>
 <path d="m41.28 8.781c3.712 4.085 5.969 9.514 5.969 15.469 0 12.703-10.297 23-23 23-5.954 0-11.384-2.256-15.469-5.969 4.113 3.854 9.637 6.219 15.719 6.219 12.703 0 23-10.298 23-23 0-6.081-2.364-11.606-6.219-15.719z" style="opacity:.1"/>
 <path d="m31.25 2.375c8.615 3.154 14.75 11.417 14.75 21.13 0 12.426-10.07 22.5-22.5 22.5-9.708 0-17.971-6.135-21.12-14.75a23 23 0 0 0 44.875-7 23 23 0 0 0-16-21.875z" style="opacity:.2"/>
 <path d="m24 1c12.703 0 23 10.297 23 23s-10.297 23-23 23-23-10.297-23-23 10.297-23 23-23z" style="fill:url(#linearGradient3764)"/>
 <g transform="translate(.00030986 -.93818)">
  <path d="m31.928 13.94c-1.572-0.054-3.815 0.899-5.145 1.684-4.714 2.783-7.144 8.729-10.842 14.664 0 0-3e-3 0-4e-3 -2e-3 -0.793 0.914-4.227 2.328-3.918 3.367 0.309 1.035 0.619 0.902 0.619 0.902s4.059 3.786 13.178 3.348c9.844-0.473 12.262-3.169 12.18-4.43-0.081-1.317-3.963-2.226-4-2.236-0.136-0.508-1.211-4.602-1-6.43 0.395-3.489 1.19-8.769 0.514-10.06-0.288-0.551-0.864-0.782-1.578-0.807z" style="fill-opacity:.098"/>
  <path d="m25.783 14.624c-4.722 2.787-7.151 8.747-10.859 14.693 3.183 5.64 15.14 4.933 18.12 1.106l-4e-3 -2e-3s-1.271-4.669-1.051-6.614c0.395-3.489 1.189-8.768 0.513-10.06-0.922-1.762-4.788-0.264-6.722 0.877z" style="fill:url(#linearGradient4816)"/>
  <path d="m14.938 29.29c-0.793 0.914-4.228 2.328-3.919 3.367 0.309 1.035 0.619 0.902 0.619 0.902s4.059 3.786 13.178 3.348c9.844-0.473 12.262-3.169 12.18-4.429-0.082-1.321-3.995-2.235-4.01-2.239-4.906 2.347-14.682 1.927-18.05-0.949z" style="fill:url(#linearGradient4814)"/>
 </g>
 <path d="m40.03 7.531c3.712 4.084 5.969 9.514 5.969 15.469 0 12.703-10.297 23-23 23-5.954 0-11.384-2.256-15.469-5.969 4.178 4.291 10.01 6.969 16.469 6.969 12.703 0 23-10.298 23-23 0-6.462-2.677-12.291-6.969-16.469z" style="opacity:.1"/>
</svg>
