<svg viewBox="0 0 48 48" xmlns="http://www.w3.org/2000/svg">
 <defs>
  <linearGradient id="linearGradient4230" x1="1" x2="47" gradientTransform="translate(-48)" gradientUnits="userSpaceOnUse">
   <stop style="stop-color:#10741c" offset="0"/>
   <stop style="stop-color:#128620" offset="1"/>
  </linearGradient>
 </defs>
 <path d="m36.31 5c5.859 4.062 9.688 10.831 9.688 18.5 0 12.426-10.07 22.5-22.5 22.5-7.669 0-14.438-3.828-18.5-9.688 1.037 1.822 2.306 3.499 3.781 4.969 4.085 3.712 9.514 5.969 15.469 5.969 12.703 0 23-10.298 23-23 0-5.954-2.256-11.384-5.969-15.469-1.469-1.475-3.147-2.744-4.969-3.781zm4.969 3.781c3.854 4.113 6.219 9.637 6.219 15.719 0 12.703-10.297 23-23 23-6.081 0-11.606-2.364-15.719-6.219 4.16 4.144 9.883 6.719 16.219 6.719 12.703 0 23-10.298 23-23 0-6.335-2.575-12.06-6.719-16.219z" style="opacity:.05"/>
 <path d="m41.28 8.781c3.712 4.085 5.969 9.514 5.969 15.469 0 12.703-10.297 23-23 23-5.954 0-11.384-2.256-15.469-5.969 4.113 3.854 9.637 6.219 15.719 6.219 12.703 0 23-10.298 23-23 0-6.081-2.364-11.606-6.219-15.719z" style="opacity:.1"/>
 <path d="m31.25 2.375c8.615 3.154 14.75 11.417 14.75 21.13 0 12.426-10.07 22.5-22.5 22.5-9.708 0-17.971-6.135-21.12-14.75a23 23 0 0 0 44.875-7 23 23 0 0 0-16-21.875z" style="opacity:.2"/>
 <circle transform="rotate(-90)" cx="-24" cy="24" r="23" style="fill:url(#linearGradient4230)"/>
 <path d="m40.03 7.531c3.712 4.084 5.969 9.514 5.969 15.469 0 12.703-10.297 23-23 23-5.954 0-11.384-2.256-15.469-5.969 4.178 4.291 10.01 6.969 16.469 6.969 12.703 0 23-10.298 23-23 0-6.462-2.677-12.291-6.969-16.469z" style="opacity:.1"/>
 <path d="m21.5 12c-3.155 0.947-3.319 6.366-0.5 7.791v1.439l3 3.32v2.074l-6.107-4.582c0.758-2.789-2.871-6.138-5.547-4.697-1.478 2.745 2.083 6.486 4.91 5.473l3.854 2.889-2.273 0.568c-1.806-2.517-6.745-1.026-6.836 2.221 1.518 2.609 6.04 1.568 6.861-1.197l3.26-0.814-6e-3 -0.021 1.885 1.412v8.125l-3 2h8l-3-2v-8.125l1.885-1.412-6e-3 0.021 3.26 0.814c0.82 2.766 5.343 3.807 6.861 1.197-0.091-3.247-5.03-4.738-6.836-2.221l-2.273-0.568 3.854-2.889c2.828 1.014 6.388-2.728 4.91-5.473-2.676-1.441-6.305 1.908-5.547 4.697l-6.107 4.582v-2.074l3-3.32v-1.439c2.819-1.425 2.655-6.844-0.5-7.791-3.155 0.947-3.319 6.366-0.5 7.791v0.979l-3 3.572-3-3.572v-0.979c2.819-1.425 2.655-6.844-0.5-7.791z" style="opacity:.1"/>
 <g transform="translate(0,1)">
  <path d="m20.5 10c3.333 1 3.333 7 0 8-3.333-1-3.333-7 0-8z" style="fill:#f6d636"/>
  <path d="m23 22.5h2v11.5l3 2h-8l3-2z" style="fill:#f6d636"/>
  <path d="m27.5 10c3.333 1 3.333 7 0 8-3.333-1-3.333-7 0-8z" style="fill:#f6d636"/>
  <path d="m36.654 15.346c1.548 2.875-2.433 6.856-5.308 5.308-1.548-2.875 2.433-6.856 5.308-5.308z" style="fill:#f6d636"/>
  <path d="m11.346 15.346c-1.548 2.875 2.433 6.856 5.308 5.308 1.548-2.875-2.433-6.856-5.308-5.308z" style="fill:#f6d636"/>
  <path d="m20 16v3.23l4 4.428 4-4.428v-3.23h-1v2.77l-3 3.572-3-3.572v-2.77m-4.699 3.599-0.602 0.801 4.41 3.307-3.23 0.809 0.242 0.969 4-1-6e-3 -0.021 2.885 2.162 2.885-2.162-6e-3 0.021 4 1 0.242-0.969-3.23-0.809 4.41-3.307-0.602-0.801-7.699 5.775" solid-color="#000000" style="color-rendering:auto;fill-rule:evenodd;fill:#f6d636;image-rendering:auto;shape-rendering:auto" isolation="auto" mix-blend-mode="normal" white-space="normal"/>
  <path d="m11 26.496c0.093-3.346 5.343-4.839 7-1.991-0.093 3.346-5.343 4.839-7 1.991z" style="fill:#f6d636"/>
  <path d="m37 26.496c-0.093-3.346-5.343-4.839-7-1.991 0.093 3.346 5.343 4.839 7 1.991z" style="fill:#f6d636"/>
 </g>
</svg>
