<svg version="1.1" viewBox="0 0 48 48" xmlns="http://www.w3.org/2000/svg">
 <defs>
  <linearGradient id="bg" x2="0" y1="1" y2="47" gradientUnits="userSpaceOnUse">
   <stop style="stop-color:#dc2121" offset="0"/>
   <stop style="stop-color:#ca1e1e" offset="1"/>
  </linearGradient>
 </defs>
 <path d="m36.31 5c5.859 4.062 9.688 10.831 9.688 18.5 0 12.426-10.07 22.5-22.5 22.5-7.669 0-14.438-3.828-18.5-9.688 1.037 1.822 2.306 3.499 3.781 4.969 4.085 3.712 9.514 5.969 15.469 5.969 12.703 0 23-10.298 23-23 0-5.954-2.256-11.384-5.969-15.469-1.469-1.475-3.147-2.744-4.969-3.781zm4.969 3.781c3.854 4.113 6.219 9.637 6.219 15.719 0 12.703-10.297 23-23 23-6.081 0-11.606-2.364-15.719-6.219 4.16 4.144 9.883 6.719 16.219 6.719 12.703 0 23-10.298 23-23 0-6.335-2.575-12.06-6.719-16.219z" style="opacity:.05"/>
 <path d="m41.28 8.781c3.712 4.085 5.969 9.514 5.969 15.469 0 12.703-10.297 23-23 23-5.954 0-11.384-2.256-15.469-5.969 4.113 3.854 9.637 6.219 15.719 6.219 12.703 0 23-10.298 23-23 0-6.081-2.364-11.606-6.219-15.719z" style="opacity:.1"/>
 <path d="m31.25 2.375c8.615 3.154 14.75 11.417 14.75 21.13 0 12.426-10.07 22.5-22.5 22.5-9.708 0-17.971-6.135-21.12-14.75a23 23 0 0 0 44.875-7 23 23 0 0 0-16-21.875z" style="opacity:.2"/>
 <circle cx="24" cy="24" r="23" style="fill:url(#bg)"/>
 <path d="m25 15c-7 0-11 4-11 4l0.64258 1.9297c-2.0949 2.3413-3.6426 6.0703-3.6426 6.0703s2.5476-1.2419 5.1016-1.7637l0.2832 0.66016c-3.382 2.4826-3.3848 7.1035-3.3848 7.1035s1.4445-1.4309 3.6582-3.0059c0.49664 0.65132 1.2599 1.4649 2.3418 2.0059 0 0-1.3275 1.3304-1 2 0.74675 1.5268 3.3277 1.304 5 1 4.7502-0.86368 7.4432-2.4732 8.9766-4.0234l1.0234 1.0234 0.44336-2.668 0.55664 1.668 2 1-0.93555-3.2773c2.1765-1.1761 2.9355-5.7227 2.9355-5.7227s-1.5075 1.5023-3.2129 1.9004l2.2129-5.9004s-5-4-12-4z" style="opacity:.1"/>
 <path d="m40.03 7.531c3.712 4.084 5.969 9.514 5.969 15.469 0 12.703-10.297 23-23 23-5.954 0-11.384-2.256-15.469-5.969 4.178 4.291 10.01 6.969 16.469 6.969 12.703 0 23-10.298 23-23 0-6.462-2.677-12.291-6.969-16.469z" style="opacity:.1"/>
 <path d="m15 28s1 2 3 3c3-2.5452 10-6 10-6s3.0563 3 5 3c3 0 4-6 4-6s-2 2-4 2c-2.6874 0-8 1-8 1z" style="fill:#0965d0"/>
 <path d="m24 14c-7 0-11 4-11 4l2 6 3 7s-1.3275 1.3304-1 2c0.74675 1.5268 3.3277 1.304 5 1 4.7502-0.86368 7.4432-2.4732 8.9766-4.0234l1.0234 1.0234 0.54688-3.2832c0.44169-1.0056 0.45312-1.7168 0.45312-1.7168l3-8s-5-4-12-4z" style="fill:#25a4f5"/>
 <path d="m17.866 18.006c-0.61523-0.05645-1.2402-0.0034-1.8652 0.19336-3.1795 1.001-6.0004 7.8003-6.0004 7.8003s4-1.9705 7-2c-5 2-5 8-5 8s4-4 9-6c2.1884-0.87538 4-1 7 1-1-2-2-7-2-7v4s-3.8277-5.5985-8.1344-5.9937zm15.134 5.9937-1 3 1 3 2 1z" style="fill:#5fcbf8"/>
 <path d="m28 28s2 0 2 1c0 1.2018-3 2-3 2z" style="fill:#fff"/>
 <path d="m23 29 2-3s1 3.5024 0 4c-0.66731 0.33204-2-1-2-1z" style="fill:#fff"/>
 <path d="m19 29 2 1s0.10796 0.87244-0.2 1c-0.87104 0.3608-1.8-2-1.8-2z" style="fill:#fff"/>
</svg>
