<svg version="1.1" viewBox="0 0 48 48" xmlns="http://www.w3.org/2000/svg">
 <defs>
  <linearGradient id="bg" x1="1" x2="47" gradientTransform="matrix(0 -1 1 0 0 48)" gradientUnits="userSpaceOnUse">
   <stop style="stop-color:#e4e4e4" offset="0"/>
   <stop style="stop-color:#eee" offset="1"/>
  </linearGradient>
 </defs>
 <path d="m36.3 5c5.86 4.06 9.69 10.8 9.69 18.5 0 12.4-10.1 22.5-22.5 22.5-7.67 0-14.4-3.83-18.5-9.69 1.04 1.82 2.31 3.5 3.78 4.97 4.08 3.71 9.51 5.97 15.5 5.97 12.7 0 23-10.3 23-23 0-5.95-2.26-11.4-5.97-15.5-1.47-1.48-3.15-2.74-4.97-3.78zm4.97 3.78c3.85 4.11 6.22 9.64 6.22 15.7 0 12.7-10.3 23-23 23-6.08 0-11.6-2.36-15.7-6.22 4.16 4.14 9.88 6.72 16.2 6.72 12.7 0 23-10.3 23-23 0-6.34-2.58-12.1-6.72-16.2z" style="opacity:.05"/>
 <path d="m41.3 8.78c3.71 4.08 5.97 9.51 5.97 15.5 0 12.7-10.3 23-23 23-5.95 0-11.4-2.26-15.5-5.97 4.11 3.85 9.64 6.22 15.7 6.22 12.7 0 23-10.3 23-23 0-6.08-2.36-11.6-6.22-15.7z" style="opacity:.1"/>
 <path d="m31.2 2.38c8.62 3.15 14.8 11.4 14.8 21.1 0 12.4-10.1 22.5-22.5 22.5-9.71 0-18-6.14-21.1-14.8a23 23 0 0 0 44.9-7 23 23 0 0 0-16-21.9z" style="opacity:.2"/>
 <path d="m24 1c12.7 0 23 10.3 23 23s-10.3 23-23 23-23-10.3-23-23 10.3-23 23-23z" style="fill:url(#bg)"/>
 <path d="m40 7.53c3.71 4.08 5.97 9.51 5.97 15.5 0 12.7-10.3 23-23 23-5.95 0-11.4-2.26-15.5-5.97 4.18 4.29 10 6.97 16.5 6.97 12.7 0 23-10.3 23-23 0-6.46-2.68-12.3-6.97-16.5z" style="opacity:.1"/>
 <path d="m27 13c-5.2 0-9.98 2.33-12.7 6.02l-2.31 6.98c0 2.82 0.952 5.63 3.03 7.55-0.0217 0.145-0.0332 0.294-0.0332 0.445 0 1.66 1.34 3 3 3 0.937 0 1.77-0.429 2.32-1.1 0.531 0.0673 1.09 0.102 1.68 0.102 0.252 0 0.502-0.0054 0.75-0.0156 0.57 0.646 1.39 1.02 2.25 1.02 1.26 2.75e-4 2.38-0.784 2.82-1.96 0.729-0.25 1.43-0.545 2.1-0.877 0.54 0.521 1.27 0.842 2.08 0.842 1.66 0 3-1.34 3-3 0-0.491-0.117-0.954-0.326-1.36 2.09-2.26 3.33-4.97 3.33-7.64 0-0.252-0.00745-0.501-0.0215-0.746 0.626-0.55 1.02-1.36 1.02-2.25 0-1.58-1.22-2.87-2.77-2.99-1.81-2.52-4.96-4.01-9.23-4.01zm0 2c3.11 0 5.6 0.885 7.17 2.62l-1.17 2.38c0 1.66 1.34 3 3 3l-2.85 6.23-5.37 3.65c-0.457-1.14-1.56-1.88-2.79-1.88l-4 2.96c-0.0215-1.64-1.36-2.96-3-2.96l-1.97 0.738c-1.87-2.03-2.03-4.83-2.03-5.74 0-0.338 0.017-0.671 0.0508-1 1.63-0.0273 2.95-1.36 2.95-3 0-0.818-0.327-1.56-0.857-2.1 2.34-2.99 6.37-4.9 10.9-4.9z" style="opacity:.1"/>
 <path d="m26 12c-8 0-15 5.5-15 13 0 5 3 10 10 10 9 0 16-6.65 16-13 0-6-4-10-11-10zm0 2c5.46 0 9 2.72 9 8 0 4.88-5.98 11-14 11-7.57 0-8-6.51-8-8 0-6.26 5.92-11 13-11z" style="fill:#666"/>
 <path d="m35.8 17-1.86 0.766c0.654 1.15 1.01 2.56 1.01 4.23 0 0.266-0.0177 0.536-0.0527 0.809 0.337 0.126 0.693 0.191 1.05 0.191 0.326-2.57e-4 0.65-0.0537 0.959-0.158 0.0269-0.281 0.041-0.561 0.041-0.842 0-1.88-0.393-3.57-1.15-5zm-20.9 2.15-3.78 3.84c0.302 0.856 0.976 1.53 1.83 1.83 0.0365-2.11 0.747-4.04 1.95-5.67zm1.16 12.5-1.04 1.7c1.48 0.991 3.39 1.6 5.76 1.63 0.113-0.321 0.172-0.658 0.172-0.998 1.25e-4 -0.341-0.058-0.68-0.172-1-2.07-0.0274-3.6-0.551-4.72-1.32zm10.9 0.111c-1.47 0.621-3.1 1.04-4.84 1.17l-0.0293 2.01c2.08-0.133 4.04-0.621 5.81-1.37-0.0956-0.695-0.431-1.33-0.949-1.81z" style="opacity:.1"/>
 <path d="m35 16c-1.66 0-3 1.34-3 3s1.34 3 3 3 3-1.34 3-3-1.34-3-3-3zm-22 2c-1.66 0-3 1.34-3 3s1.34 3 3 3 3-1.34 3-3-1.34-3-3-3zm18 10c-1.66 0-3 1.34-3 3s1.34 3 3 3 3-1.34 3-3-1.34-3-3-3zm-14 2c-1.66 0-3 1.34-3 3s1.34 3 3 3 3-1.34 3-3-1.34-3-3-3z" style="fill:#9a99ff"/>
 <path d="m27 33a3 3 0 0 1-3 3 3 3 0 0 1-3-3 3 3 0 0 1 3-3 3 3 0 0 1 3 3z" style="fill:#aaa"/>
</svg>
