<svg xmlns="http://www.w3.org/2000/svg" viewBox="0 0 48 48">
  <defs>
    <linearGradient id="a" x1="1" x2="47" gradientUnits="userSpaceOnUse" gradientTransform="rotate(-90 24 24)">
      <stop stop-color="#bebebe"/>
      <stop offset="1" stop-color="#c8c8c8"/>
    </linearGradient>
  </defs>
  <path d="M36.31 5c5.859 4.062 9.688 10.831 9.688 18.5 0 12.426-10.07 22.5-22.5 22.5-7.669 0-14.438-3.828-18.5-9.688a23.24 23.24 0 0 0 3.781 4.969 22.923 22.923 0 0 0 15.469 5.969c12.703 0 23-10.298 23-23a22.92 22.92 0 0 0-5.969-15.469A23.216 23.216 0 0 0 36.31 5zm4.969 3.781A22.911 22.911 0 0 1 47.498 24.5c0 12.703-10.297 23-23 23a22.909 22.909 0 0 1-15.719-6.219C12.939 45.425 18.662 48 24.998 48c12.703 0 23-10.298 23-23 0-6.335-2.575-12.06-6.719-16.219z" opacity=".05"/>
  <path d="M41.28 8.781a22.923 22.923 0 0 1 5.969 15.469c0 12.703-10.297 23-23 23A22.92 22.92 0 0 1 8.78 41.281 22.911 22.911 0 0 0 24.499 47.5c12.703 0 23-10.298 23-23A22.909 22.909 0 0 0 41.28 8.781z" opacity=".1"/>
  <path d="M31.25 2.375C39.865 5.529 46 13.792 46 23.505c0 12.426-10.07 22.5-22.5 22.5-9.708 0-17.971-6.135-21.12-14.75a23 23 0 0 0 44.875-7 23 23 0 0 0-16-21.875z" opacity=".2"/>
  <path d="M24 1c12.703 0 23 10.297 23 23S36.703 47 24 47 1 36.703 1 24 11.297 1 24 1z" fill="url(#a)"/>
  <rect width="24" height="16" x="13" y="14" rx="1" fill-opacity=".098" fill-rule="evenodd"/>
  <path d="M34.437 35.997s.563-.243.563-1.496c0-1.209-.633-1.499-.633-1.499H19.004l-4 1.496 4 1.501" fill-opacity=".118"/>
  <g>
    <path d="M40.03 7.531A22.922 22.922 0 0 1 45.999 23c0 12.703-10.297 23-23 23A22.92 22.92 0 0 1 7.53 40.031C11.708 44.322 17.54 47 23.999 47c12.703 0 23-10.298 23-23 0-6.462-2.677-12.291-6.969-16.469z" opacity=".1"/>
  </g>
  <g transform="translate(0 1)">
    <rect rx="1" y="12" x="12" height="16" width="24" fill="#f9f9f9" fill-rule="evenodd"/>
    <path d="M18.477 22.212l-2.285-2.745c2.26-.012 3.35-.012 5.36-.214l-2.686 3.017" fill="#c47378" fill-opacity=".941"/>
    <path d="M18.75 15.076c1.334 0 2.414 1.123 2.414 2.508v1.132c0 1.384-1.08 2.506-2.415 2.506-1.332 0-2.414-1.122-2.414-2.506v-1.132c0-1.385 1.082-2.508 2.414-2.508m0 0" fill="#dfa470"/>
    <path d="M14 26h10v-.923c0-2.077-1-3.076-2.93-3.8l-1.31 1.275-.415-.276-1.15-.025-.367.425-1.395-1.383C15.001 22 14.001 23 14.001 25.077" fill="#1f5d8e"/>
    <path d="M20.426 20.526c.26-.254.923-.788.997-1.14l-.025-2.017-3.843-1.428-.625.53-1.037 1.348.255 1.522.135.39.782.793m3.362.002" fill="#dfa470"/>
    <path d="M16.306 19.738V17.86c.19-.82.986-1.432 1.382-1.42.676.084 1.149.464 1.552 1.044.63.603 1.78.46 2.111 0v2.103c.377-.147.695-.56.708-1.19-.096-5.826-6.4-5.718-6.578-.537.056.652.445 1.572.824 1.878" fill="#9a2f29"/>
    <path d="M17.07 20.521l1.678 1.74-.838.87-1.678-1.738m.837-.87M18.75 22.263l1.678-1.74.84.869-1.679 1.74m-.84-.87" fill="#e6e6e6"/>
    <path fill="#b4b4b4" d="M27 14h7v1h-7zM27 16h7v1h-7zM28 18h5v1h-5zM27 24h2v2h-2zM28 20h5v1h-5zM32 24h2v2h-2z"/>
  </g>
  <g>
    <path d="M31.04 34.997c.965.003.965-2.997-.07-2.994H18.009c-1 .997-1 1.997 0 2.997" fill="#cb9022"/>
    <path d="M18 32l-4 1.499 4 1.499" fill="#e1cb91"/>
    <path d="M16 32.752l-2 .745 2 .754" fill="#323232"/>
    <path d="M31 32v2.992h2.438s.563-.241.563-1.494c0-1.209-.633-1.498-.633-1.498h-2.367z" fill="#e04c4c"/>
  </g>
</svg>
