<svg viewBox="0 0 48 48" xmlns="http://www.w3.org/2000/svg">
 <defs>
  <linearGradient id="linearGradient3764" x1="1" x2="47" gradientTransform="matrix(0 -1 1 0 -1.5e-6 48)" gradientUnits="userSpaceOnUse">
   <stop style="stop-color:#706789" offset="0"/>
   <stop style="stop-color:#7a7094" offset="1"/>
  </linearGradient>
 </defs>
 <path d="m36.31 5c5.859 4.062 9.688 10.831 9.688 18.5 0 12.426-10.07 22.5-22.5 22.5-7.669 0-14.438-3.828-18.5-9.688 1.037 1.822 2.306 3.499 3.781 4.969 4.085 3.712 9.514 5.969 15.469 5.969 12.703 0 23-10.298 23-23 0-5.954-2.256-11.384-5.969-15.469-1.469-1.475-3.147-2.744-4.969-3.781zm4.969 3.781c3.854 4.113 6.219 9.637 6.219 15.719 0 12.703-10.297 23-23 23-6.081 0-11.606-2.364-15.719-6.219 4.16 4.144 9.883 6.719 16.219 6.719 12.703 0 23-10.298 23-23 0-6.335-2.575-12.06-6.719-16.219z" style="opacity:.05"/>
 <path d="m41.28 8.781c3.712 4.085 5.969 9.514 5.969 15.469 0 12.703-10.297 23-23 23-5.954 0-11.384-2.256-15.469-5.969 4.113 3.854 9.637 6.219 15.719 6.219 12.703 0 23-10.298 23-23 0-6.081-2.364-11.606-6.219-15.719z" style="opacity:.1"/>
 <path d="m31.25 2.375c8.615 3.154 14.75 11.417 14.75 21.13 0 12.426-10.07 22.5-22.5 22.5-9.708 0-17.971-6.135-21.12-14.75a23 23 0 0 0 44.875-7 23 23 0 0 0-16-21.875z" style="opacity:.2"/>
 <path d="m24 1c12.703 0 23 10.297 23 23s-10.297 23-23 23-23-10.297-23-23 10.297-23 23-23z" style="fill:url(#linearGradient3764)"/>
 <path d="m40.03 7.531c3.712 4.084 5.969 9.514 5.969 15.469 0 12.703-10.297 23-23 23-5.954 0-11.384-2.256-15.469-5.969 4.178 4.291 10.01 6.969 16.469 6.969 12.703 0 23-10.298 23-23 0-6.462-2.677-12.291-6.969-16.469z" style="opacity:.1"/>
 <path d="m33.746 12.99a0.742 0.742 0 0 0-0.074 4e-3 0.742 0.742 0 0 0-0.52 1.203c1.472 1.874 2.359 4.242 2.359 6.824 0 2.568-0.867 4.916-2.324 6.781a0.745 0.745 0 0 0 1.173 0.915c1.66-2.118 2.64-4.793 2.64-7.697 0-2.92-1.01-5.615-2.68-7.738a0.742 0.742 0 0 0-0.576-0.293zm-17.453 2e-3a0.742 0.742 0 0 0-0.068 2e-3 0.742 0.742 0 0 0-0.553 0.289c-1.672 2.124-2.672 4.817-2.672 7.737 0 2.903 0.991 5.578 2.645 7.695a0.742 0.742 0 1 0 1.168-0.912c-1.457-1.866-2.332-4.214-2.332-6.781 0-2.584 0.89-4.951 2.361-6.824a0.742 0.742 0 0 0-0.549-1.206m1.907 1.946a0.742 0.742 0 0 0-0.618 0.312c-1.191 1.613-1.875 3.613-1.875 5.771 0 2.136 0.685 4.119 1.848 5.723a0.742 0.742 0 1 0 1.197-0.871c-0.985-1.358-1.564-3.03-1.564-4.853 0-1.845 0.578-3.53 1.584-4.893a0.742 0.742 0 0 0-0.572-1.189m13.578 0a0.742 0.742 0 0 0-0.553 1.191c1 1.364 1.576 3.047 1.576 4.893 0 1.818-0.578 3.493-1.563 4.852a0.743 0.743 0 1 0 1.203 0.871c1.162-1.604 1.848-3.587 1.848-5.723 0-2.159-0.684-4.159-1.867-5.771a0.742 0.742 0 0 0-0.645-0.313zm-11.564 2.104a0.742 0.742 0 0 0-0.596 0.361c-0.651 1.044-1.037 2.289-1.037 3.619 0 1.307 0.385 2.535 1.023 3.57a0.742 0.742 0 1 0 1.26-0.781c-0.502-0.814-0.795-1.772-0.795-2.789 0-1.044 0.297-2.01 0.809-2.83a0.742 0.742 0 0 0-0.664-1.15zm9.543 0a0.742 0.742 0 0 0-0.643 1.15c0.514 0.819 0.816 1.786 0.816 2.83 0 1.02-0.288 1.977-0.789 2.789a0.742 0.742 0 1 0 1.26 0.781c0.64-1.038 1.018-2.266 1.018-3.57 0-1.33-0.389-2.574-1.045-3.619a0.742 0.742 0 0 0-0.62-0.363m-4.754 1.96c-1.105 0-2 0.895-2 2 0 0.739 0.404 1.376 1 1.723v15.211c0 0.589 0.445 1.066 1 1.066 0.551 0 0.996-0.476 0.996-1.066v-15.209c0.598-0.346 1.004-0.984 1.004-1.725 0-1.105-0.89-2-2-2" solid-color="#000000" style="color-rendering:auto;image-rendering:auto;opacity:.1;shape-rendering:auto" isolation="auto" mix-blend-mode="normal" white-space="normal"/>
 <path d="m32.746 11.99a0.742 0.742 0 0 0-0.074 4e-3 0.742 0.742 0 0 0-0.522 1.203c1.474 1.873 2.362 4.242 2.362 6.823 0 2.57-0.868 4.918-2.322 6.783a0.745 0.745 0 0 0 1.17 0.914c1.66-2.118 2.64-4.793 2.64-7.697 0-2.92-1.01-5.614-2.68-7.737a0.742 0.742 0 0 0-0.574-0.293m-17.453 2e-3a0.742 0.742 0 0 0-0.068 2e-3 0.742 0.742 0 0 0-0.553 0.289c-1.672 2.124-2.672 4.817-2.672 7.737 0 2.905 0.991 5.58 2.645 7.697a0.742 0.742 0 1 0 1.168-0.914c-1.458-1.866-2.333-4.214-2.333-6.783 0-2.582 0.891-4.95 2.362-6.823a0.742 0.742 0 0 0-0.549-1.205zm1.904 1.946a0.742 0.742 0 0 0-0.615 0.312c-1.191 1.613-1.875 3.613-1.875 5.77 0 2.14 0.685 4.12 1.848 5.724a0.742 0.742 0 1 0 1.197-0.871c-0.985-1.358-1.564-3.03-1.564-4.853 0-1.84 0.577-3.528 1.583-4.89a0.742 0.742 0 0 0-0.574-1.192zm13.578 0a0.742 0.742 0 0 0-0.555 1.192c1 1.363 1.579 3.05 1.579 4.89 0 1.82-0.579 3.495-1.559 4.853a0.743 0.743 0 1 0 1.199 0.871c1.163-1.604 1.851-3.584 1.851-5.724 0-2.157-0.687-4.157-1.87-5.77a0.742 0.742 0 0 0-0.645-0.312m-11.564 2.102a0.742 0.742 0 0 0-0.596 0.362c-0.651 1.044-1.037 2.289-1.037 3.618 0 1.309 0.385 2.536 1.024 3.572a0.742 0.742 0 1 0 1.259-0.781c-0.502-0.815-0.791-1.771-0.791-2.791 0-1.042 0.294-2.01 0.805-2.829a0.742 0.742 0 0 0-0.664-1.151m9.543 0a0.742 0.742 0 0 0-0.644 1.151c0.515 0.819 0.818 1.787 0.818 2.829 0 1.02-0.289 1.979-0.788 2.791a0.742 0.742 0 1 0 1.258 0.781c0.642-1.038 1.018-2.266 1.018-3.572 0-1.329-0.386-2.573-1.045-3.618a0.742 0.742 0 0 0-0.617-0.362" solid-color="#000000" style="color-rendering:auto;fill:#f9f9f9;image-rendering:auto;shape-rendering:auto" isolation="auto" mix-blend-mode="normal" white-space="normal"/>
 <path d="m26 20c0 1.105-0.895 2-2 2s-2-0.895-2-2 0.895-2 2-2 2 0.895 2 2" style="fill:#f9f9f9"/>
 <path d="m24 20c0.551 0 0.996 0.473 0.996 1.063v15.871c0 0.59-0.445 1.066-0.996 1.066-0.555 0-1-0.477-1-1.066v-15.871c0-0.59 0.445-1.063 1-1.063" style="fill:#f9f9f9"/>
</svg>
