<svg version="1.1" viewBox="0 0 48 48" xmlns="http://www.w3.org/2000/svg">
 <defs>
  <linearGradient id="bg" x2="0" y1="1" y2="47" gradientUnits="userSpaceOnUse">
   <stop style="stop-color:#35ca5a" offset="0"/>
   <stop style="stop-color:#31ba53" offset="1"/>
  </linearGradient>
 </defs>
 <path d="m36.3 5c5.86 4.06 9.69 10.8 9.69 18.5 0 12.4-10.1 22.5-22.5 22.5-7.67 0-14.4-3.83-18.5-9.69 1.04 1.82 2.31 3.5 3.78 4.97 4.08 3.71 9.51 5.97 15.5 5.97 12.7 0 23-10.3 23-23 0-5.95-2.26-11.4-5.97-15.5-1.47-1.48-3.15-2.74-4.97-3.78zm4.97 3.78c3.85 4.11 6.22 9.64 6.22 15.7 0 12.7-10.3 23-23 23-6.08 0-11.6-2.36-15.7-6.22 4.16 4.14 9.88 6.72 16.2 6.72 12.7 0 23-10.3 23-23 0-6.34-2.58-12.1-6.72-16.2z" style="opacity:.05"/>
 <path d="m41.3 8.78c3.71 4.08 5.97 9.51 5.97 15.5 0 12.7-10.3 23-23 23-5.95 0-11.4-2.26-15.5-5.97 4.11 3.85 9.64 6.22 15.7 6.22 12.7 0 23-10.3 23-23 0-6.08-2.36-11.6-6.22-15.7z" style="opacity:.1"/>
 <path d="m31.2 2.38c8.62 3.15 14.8 11.4 14.8 21.1 0 12.4-10.1 22.5-22.5 22.5-9.71 0-18-6.14-21.1-14.8a23 23 0 0 0 44.9-7 23 23 0 0 0-16-21.9z" style="opacity:.2"/>
 <circle cx="24" cy="24" r="23" style="fill:url(#bg)"/>
 <path d="m40 7.53c3.71 4.08 5.97 9.51 5.97 15.5 0 12.7-10.3 23-23 23-5.95 0-11.4-2.26-15.5-5.97 4.18 4.29 10 6.97 16.5 6.97 12.7 0 23-10.3 23-23 0-6.46-2.68-12.3-6.97-16.5z" style="opacity:.1"/>
 <path d="m12 22c0 1.11 0.892 2 2 2h8c1.11 0 2-0.892 2-2v-8c0-1.11-0.892-2-2-2zm14 0c0 1.11 0.892 2 2 2h8c1.11 0 2-0.892 2-2v-8c0-1.11-0.892-2-2-2zm-14 14c0 1.11 0.892 2 2 2h8c1.11 0 2-0.892 2-2v-8c0-1.11-0.892-2-2-2zm14 0c0 1.11 0.892 2 2 2h8c1.11 0 2-0.892 2-2v-8c0-1.11-0.892-2-2-2z" style="opacity:.1"/>
 <path d="m13 11c-1.11 0-2 0.892-2 2v8c0 1.11 0.892 2 2 2h8c1.11 0 2-0.892 2-2v-8c0-1.11-0.892-2-2-2zm14 0c-1.11 0-2 0.892-2 2v8c0 1.11 0.892 2 2 2h8c1.11 0 2-0.892 2-2v-8c0-1.11-0.892-2-2-2zm-14 14c-1.11 0-2 0.892-2 2v8c0 1.11 0.892 2 2 2h8c1.11 0 2-0.892 2-2v-8c0-1.11-0.892-2-2-2zm14 0c-1.11 0-2 0.892-2 2v8c0 1.11 0.892 2 2 2h8c1.11 0 2-0.892 2-2v-8c0-1.11-0.892-2-2-2z" style="fill:#f9f9f9"/>
 <path d="m14 13v5c0 0.554-0.446 1-1 1l0.469 0.939c0.879-0.211 1.53-0.994 1.53-1.94h4v1c0 0.554-0.446 1-1 1h-0.5l-0.5 1h1c1.11 0 2-0.892 2-2v-6zm1 1h4v1h-4zm0 2h4v1h-4z" style="fill:#62a0ea"/>
 <path d="m21 31-4 4-4-4 4-4z" style="fill:#f53d3d"/>
 <path d="m31.5 27c-0.271 0-0.5 0.226-0.5 0.5s0.224 0.5 0.5 0.5 0.5-0.224 0.5-0.5-0.229-0.5-0.5-0.5zm-1 1c-0.274 0-0.5 0.226-0.5 0.5s0.224 0.5 0.5 0.5 0.5-0.224 0.5-0.5-0.223-0.5-0.5-0.5zm2 0c-0.267 0-0.5 0.226-0.5 0.5s0.224 0.5 0.5 0.5 0.5-0.224 0.5-0.5-0.233-0.5-0.5-0.5zm2.5 1.5-1 0.5v2h-1v-2l-1 0.5v1.5h-2v-0.5l-1 0.5v1.5c0 0.277-0.223 0.5-0.5 0.5s-0.5-0.223-0.5-0.5v-1l-1 0.5v0.5c0 0.831 0.669 1.5 1.5 1.5s1.5-0.669 1.5-1.5v-0.5h5z" style="fill:#26a269"/>
 <circle cx="31" cy="17" r="4" style="fill:#f5c211"/>
 <path d="m29.5 15c-0.277 0-0.5 0.223-0.5 0.5v1.5h1v-1.5c0-0.277-0.223-0.5-0.5-0.5zm3 0c-0.277 0-0.5 0.223-0.5 0.5v1.5h1v-1.5c0-0.277-0.223-0.5-0.5-0.5z" style="fill:#b45600"/>
 <path d="m29.3 19c0.346 0.596 0.984 1 1.72 1s1.38-0.404 1.72-1l-1.72-0.5z" style="fill:#e11e28"/>
 <path d="m29 18c0 0.367 0.104 0.705 0.275 1h3.45c0.171-0.295 0.275-0.633 0.275-1z" style="fill:#f9f9f9"/>
</svg>
