<svg xmlns="http://www.w3.org/2000/svg" viewBox="0 0 48 48">
  <defs>
    <linearGradient id="a" x1="1" x2="47" gradientUnits="userSpaceOnUse" gradientTransform="rotate(-90 24 24)">
      <stop stop-color="#875f49"/>
      <stop offset="1" stop-color="#936750"/>
    </linearGradient>
  </defs>
  <path d="M36.31 5c5.859 4.062 9.688 10.831 9.688 18.5 0 12.426-10.07 22.5-22.5 22.5-7.669 0-14.438-3.828-18.5-9.688a23.24 23.24 0 0 0 3.781 4.969 22.923 22.923 0 0 0 15.469 5.969c12.703 0 23-10.298 23-23a22.92 22.92 0 0 0-5.969-15.469A23.216 23.216 0 0 0 36.31 5zm4.969 3.781A22.911 22.911 0 0 1 47.498 24.5c0 12.703-10.297 23-23 23a22.909 22.909 0 0 1-15.719-6.219C12.939 45.425 18.662 48 24.998 48c12.703 0 23-10.298 23-23 0-6.335-2.575-12.06-6.719-16.219z" opacity=".05"/>
  <path d="M41.28 8.781a22.923 22.923 0 0 1 5.969 15.469c0 12.703-10.297 23-23 23A22.92 22.92 0 0 1 8.78 41.281 22.911 22.911 0 0 0 24.499 47.5c12.703 0 23-10.298 23-23A22.909 22.909 0 0 0 41.28 8.781z" opacity=".1"/>
  <path d="M31.25 2.375C39.865 5.529 46 13.792 46 23.505c0 12.426-10.07 22.5-22.5 22.5-9.708 0-17.971-6.135-21.12-14.75a23 23 0 0 0 44.875-7 23 23 0 0 0-16-21.875z" opacity=".2"/>
  <path d="M24 1c12.703 0 23 10.297 23 23S36.703 47 24 47 1 36.703 1 24 11.297 1 24 1z" fill="url(#a)"/>
  <path d="M27.05 12a.796.796 0 0 0-.258.051l-11.434 3.34c-.098.02-.09.043-.012.109l10.145 8.06c.191.152.273.172.535.09l11.379-3.922c.27-.098.281-.117.02-.293l-9.988-7.27c-.156-.105-.258-.16-.387-.164m-12.412 4.042c-.02.004-.027.039-.039.105l-2.582 12.82c-.027.133-.023.164.102.27l9.789 8.391c.227.219.277.215.309-.051l2.852-13c.066-.18 0-.273-.102-.359l-10.223-8.117c-.055-.043-.082-.066-.105-.063m23.297 4.415c-.023.004-.055.016-.09.023l-11.691 4.04c-.238.098-.227.137-.27.313l-2.852 12.961c-.008.191-.082.277.148.18l11.516-4.281c.223-.105.266-.125.289-.34l2.988-12.781c.023-.09.016-.121-.047-.109" opacity=".1"/>
  <g>
    <path d="M26.05 11a.796.796 0 0 0-.258.051l-11.434 3.34c-.098.02-.09.043-.012.109l10.145 8.06c.19.152.273.172.535.09l11.379-3.922c.27-.098.28-.117.02-.293l-9.988-7.27c-.156-.105-.258-.16-.387-.164m-12.412 4.042c-.02.004-.027.039-.04.105l-2.581 12.82c-.027.133-.023.164.102.27l9.789 8.391c.227.219.277.215.309-.051l2.852-13c.066-.18 0-.273-.102-.359l-10.223-8.117c-.055-.043-.082-.066-.105-.063m23.297 4.415c-.023.004-.055.016-.09.023l-11.691 4.04c-.238.098-.227.137-.27.313l-2.852 12.961c-.008.191-.082.277.148.18l11.516-4.281c.223-.105.266-.125.289-.34l2.988-12.781c.023-.09.016-.121-.047-.109" fill="#f9f9f9"/>
    <path d="M24.736 11.979l.002.002c-.676.004-1.22.246-1.314.641-.141.532.578 1.127 1.566 1.354.992.207 1.91-.043 2.035-.566.133-.532-.578-1.137-1.566-1.352a3.336 3.336 0 0 0-.723-.078zm-6.438 1.947c-.683.005-1.217.242-1.311.633-.129.536.572 1.133 1.568 1.352.992.214 1.906-.04 2.035-.563.129-.528-.572-1.129-1.568-1.344a3.35 3.35 0 0 0-.723-.078zm9.768.496c-.683.005-1.219.246-1.313.641-.129.531.574 1.125 1.566 1.344.996.214 1.91-.035 2.039-.563.129-.524-.574-1.125-1.57-1.34a3.344 3.344 0 0 0-.721-.082zm-6.475 2.086v.004c-.683.004-1.218.242-1.316.633-.125.531.574 1.129 1.57 1.344.996.218 1.91-.036 2.039-.559.129-.524-.574-1.129-1.57-1.344a3.356 3.356 0 0 0-.723-.078zm9.867.43c-.685.005-1.219.243-1.313.633-.129.531.574 1.14 1.57 1.355.992.211 1.906-.043 2.035-.566.129-.528-.574-1.129-1.57-1.344a3.32 3.32 0 0 0-.719-.078h-.002zm-17.191.469a.835.835 0 0 0-.324.117c-.555.367-.688 1.41-.293 2.344.407.945 1.168 1.402 1.723 1.047.562-.36.687-1.403.289-2.344-.293-.703-.801-1.137-1.27-1.16a.612.612 0 0 0-.121 0zm10.703 1.691l.004.004c-.687.004-1.214.242-1.316.637-.129.524.574 1.125 1.57 1.34.996.211 1.91-.039 2.035-.559.129-.531-.574-1.125-1.57-1.344a3.177 3.177 0 0 0-.723-.078zm10.06 2.467c-.328-.003-.722.142-1.113.439-.777.598-1.215 1.575-.988 2.188.226.613 1.039.629 1.816.031.777-.594 1.215-1.576.988-2.189-.113-.305-.371-.465-.703-.469zm-14.168 1.117l-.008.004c-.031-.004-.059 0-.09.004a.813.813 0 0 0-.328.121c-.551.359-.687 1.398-.289 2.336.395.934 1.164 1.406 1.723 1.047.555-.356.683-1.406.285-2.34-.301-.715-.816-1.16-1.293-1.172zm-4.176 1.5l-.004.004c-.035-.004-.063 0-.094.004a.796.796 0 0 0-.324.121c-.555.356-.688 1.398-.293 2.336.399.934 1.168 1.406 1.723 1.047.555-.36.684-1.406.289-2.344-.305-.711-.82-1.156-1.297-1.168zm-4.113 1.48a.796.796 0 0 0-.324.121c-.555.36-.687 1.406-.289 2.344.395.934 1.164 1.402 1.719 1.043.559-.355.684-1.398.289-2.332-.297-.703-.801-1.145-1.27-1.172a.612.612 0 0 0-.121 0zm18.07 1.246a.925.925 0 0 0-.137.004c-.304.032-.648.172-.988.434-.777.598-1.219 1.575-.992 2.188.226.613 1.043.625 1.816.031.777-.594 1.219-1.575.992-2.188-.113-.3-.365-.46-.688-.469zm-11.676 4.145a.83.83 0 0 0-.328.121c-.555.356-.683 1.402-.285 2.34.395.938 1.156 1.402 1.715 1.047.551-.364.687-1.406.289-2.344-.293-.699-.805-1.14-1.27-1.16a.612.612 0 0 0-.121 0zm6.914 1.348c-.328-.003-.726.141-1.113.438-.777.598-1.218 1.575-.988 2.188.226.609 1.039.621 1.816.023.777-.594 1.215-1.575.988-2.184-.113-.309-.371-.461-.703-.465z" fill="#2d2d2d"/>
  </g>
  <g>
    <path d="M40.03 7.531A22.922 22.922 0 0 1 45.999 23c0 12.703-10.297 23-23 23A22.92 22.92 0 0 1 7.53 40.031C11.708 44.322 17.54 47 23.999 47c12.703 0 23-10.298 23-23 0-6.462-2.677-12.291-6.969-16.469z" opacity=".1"/>
  </g>
</svg>
