<svg viewBox="0 0 48 48" xmlns="http://www.w3.org/2000/svg" xmlns:xlink="http://www.w3.org/1999/xlink">
  <defs>
    <linearGradient id="a" x2="0" y2="48" gradientUnits="userSpaceOnUse">
      <stop offset="0" stop-color="#8889a3"/>
      <stop offset="1" stop-color="#7d7e9b"/>
    </linearGradient>
    <linearGradient id="b" x2="0" y1="1" y2="47" gradientUnits="userSpaceOnUse" xlink:href="#a"/>
  </defs>
  <path d="M36.31 5c5.859 4.062 9.688 10.831 9.688 18.5 0 12.426-10.07 22.5-22.5 22.5-7.669 0-14.438-3.828-18.5-9.688a23.24 23.24 0 0 0 3.781 4.969 22.923 22.923 0 0 0 15.469 5.969c12.703 0 23-10.298 23-23a22.92 22.92 0 0 0-5.969-15.469A23.216 23.216 0 0 0 36.31 5zm4.969 3.781A22.911 22.911 0 0 1 47.498 24.5c0 12.703-10.297 23-23 23a22.909 22.909 0 0 1-15.719-6.219C12.939 45.425 18.662 48 24.998 48c12.703 0 23-10.298 23-23 0-6.335-2.575-12.06-6.719-16.219z" opacity=".05"/>
  <path d="M41.28 8.781a22.923 22.923 0 0 1 5.969 15.469c0 12.703-10.297 23-23 23A22.92 22.92 0 0 1 8.78 41.281 22.911 22.911 0 0 0 24.499 47.5c12.703 0 23-10.298 23-23A22.909 22.909 0 0 0 41.28 8.781z" opacity=".1"/>
  <path d="M31.25 2.375C39.865 5.529 46 13.792 46 23.505c0 12.426-10.07 22.5-22.5 22.5-9.708 0-17.971-6.135-21.12-14.75a23 23 0 0 0 44.875-7 23 23 0 0 0-16-21.875z" opacity=".2"/>
  <path d="M24 1c12.703 0 23 10.297 23 23S36.703 47 24 47 1 36.703 1 24 11.297 1 24 1z" fill="url(#b)"/>
  <path d="M40.03 7.531A22.922 22.922 0 0 1 45.999 23c0 12.703-10.297 23-23 23A22.92 22.92 0 0 1 7.53 40.031C11.708 44.322 17.54 47 23.999 47c12.703 0 23-10.298 23-23 0-6.462-2.677-12.291-6.969-16.469z" opacity=".1"/>
  <path d="M24.528 12a6.442 6.442 0 0 0-6.437 6.436 6.119 6.119 0 0 0 1.437 3.812 20.685 20.685 0 0 0-3.125-2.312c-.641-.379-1.252-.69-1.812-.812-.281-.06-.557-.068-.813 0s-.494.248-.625.5c-.218.42-.18.921-.03 1.437.15.517.426 1.062.781 1.625a13.75 13.75 0 0 0 2.75 3.125c1.267 1.043 2.354 1.795 3.345 2.187-.262.093-.531.19-.782.344-1 .613-1.855 1.745-2.657 3.75-.651 1.63-1.16 2.848-1.437 3.75-.138.451-.198.812-.219 1.125s-.005.636.22.844.537.212.843.156.665-.182 1.093-.375c.856-.386 2.01-1.03 3.562-1.906 1.566-.884 4.172-2.197 6.563-2.219 2.344-.02 3.899.758 5.062 2 .851.91 1.556 1.532 2.156 1.906.3.187.577.292.843.344.267.051.533.025.75-.125s.367-.387.438-.656.08-.57.063-.937c-.037-.735-.217-1.685-.563-2.875-.548-1.887-1.018-3.247-2.031-4.156-.689-.617-1.603-.973-2.906-1.156.794-.402 1.512-.99 2.062-1.5 1.226-1.149 2.493-2.973 3.25-4.656.38-.84.638-1.652.688-2.344.084-.794-.166-1.433-.75-1.656-.335-.11-.644.036-.937.156a5.82 5.82 0 0 0-1 .656c-.73.584-1.615 1.395-2.624 2.22a23.235 23.235 0 0 1-2.219 1.624c.722-.964 1.258-2.24 1.5-3.875A6.441 6.441 0 0 0 24.53 12z" fill-opacity=".137"/>
  <path d="M27.853 26.993h-6.385c-2.276 0-4.028.284-5.604 4.22-2.605 6.515-2.599 6.677 3.597 3.18 1.578-.892 4.192-2.245 6.7-2.268 2.422-.022 4.092.797 5.312 2.1 3.361 3.587 4.476 2.684 3.113-2.02-1.09-3.76-1.75-5.17-6.733-5.215z" fill="#0fcd0f"/>
  <path d="M29.954 17.431c0 3.553-2.511 6.43-6.43 6.432-4.121.002-6.428-2.88-6.428-6.432a6.43 6.43 0 1 1 12.858 0z" fill="#191919"/>
  <path d="M27.998 14c-4.413 0-4.961 0-5.984 1.107a211.462 211.462 0 0 0-3.742 4.212c.371 2.023 1.828 3.71 5.174 3.68 3.319-.03 5.654-2.265 5.653-5.5 0-1.285-.292-2.326-1.1-3.5z" fill="#fed59f"/>
  <path d="M35.114 16.978c-1.4-.536-5.95 6.35-11.748 6.421-1.372.027-3.371-.279-4.896-1.738-1.32-1.263-5.294-4.283-6.016-2.889-.63 1.211 1.44 4.147 3.423 5.78 1.942 1.6 3.433 2.436 4.67 2.436h7.54c1.302 0 2.807-1.052 3.745-1.923 2.356-2.21 4.97-7.228 3.285-8.09z" fill="#e61e1e"/>
  <path d="M27 17a1 1 0 1 1-2.002-.002A1 1 0 0 1 27 17z" fill="#191919"/>
  <path d="M34.295 16.811a5.82 5.82 0 0 0-1 .656c-.73.584-1.614 1.395-2.623 2.22-2.02 1.647-4.542 3.34-7.31 3.374-1.316.026-3.217-.283-4.653-1.656-.685-.656-2.029-1.71-3.31-2.469-.642-.379-1.251-.69-1.813-.813a1.73 1.73 0 0 0-.812 0 1.004 1.004 0 0 0-.625.5c-.218.42-.181.921-.031 1.438s.426 1.062.78 1.625a13.742 13.742 0 0 0 2.749 3.125c1.266 1.043 2.352 1.795 3.342 2.188-.262.093-.53.19-.78.344-1 .613-1.854 1.745-2.655 3.75-.652 1.63-1.16 2.85-1.437 3.75-.138.451-.198.812-.219 1.125s-.005.636.219.844.537.212.843.156c.306-.056.666-.182 1.094-.375.855-.386 2.009-1.03 3.56-1.906 1.567-.884 4.17-2.197 6.56-2.219 2.345-.02 3.896.758 5.06 2 .852.91 1.556 1.532 2.155 1.906.3.187.577.292.844.344.267.051.532.025.75-.125s.366-.387.437-.656.081-.57.063-.938c-.037-.735-.217-1.685-.563-2.875-.547-1.887-1.016-3.247-2.03-4.156-.688-.617-1.602-.973-2.904-1.156.795-.402 1.511-.99 2.062-1.5 1.225-1.149 2.49-2.974 3.248-4.656.379-.84.638-1.652.688-2.344.084-.794-.165-1.433-.75-1.656-.336-.11-.643.036-.937.156zm1.021 1.507c-.04.56-.288 1.258-.646 2.055-.718 1.594-1.93 3.377-3.062 4.438-.906.841-2.407 1.844-3.529 1.844h-7.527c-1.085 0-2.544-.792-4.466-2.375-.96-.79-1.96-1.916-2.624-2.969-.332-.526-.594-1.012-.718-1.438-.123-.426-.097-.75 0-.938.184-.268.472-.255.687-.217.43.093 1.017.42 1.624.78 1.217.72 2.65 1.8 3.286 2.406 1.613 1.544 3.594 1.872 5.027 1.844 3.028-.037 5.69-1.852 7.745-3.53 1.029-.84 1.894-1.66 2.593-2.22a5.51 5.51 0 0 1 .906-.594c.842-.36.716.34.71.914zm-13.858 9.02h6.402c2.46.022 3.758.378 4.592 1.125s1.268 1.97 1.812 3.844c.337 1.161.498 2.074.53 2.72.016.321.013.58-.03.75-.045.168-.11.248-.156.28s-.105.028-.25 0-.37-.09-.625-.25c-.512-.319-1.201-.928-2.03-1.813-1.277-1.363-3.061-2.24-5.56-2.219-2.627.024-5.25 1.415-6.84 2.313-1.548.874-2.724 1.511-3.53 1.875-.402.182-.728.306-.937.344-.207.038-.248 0-.25 0 0 0-.045-.062-.03-.28s.088-.544.218-.97c.261-.852.755-2.09 1.406-3.719.771-1.93 1.567-2.925 2.404-3.438.838-.512 1.75-.563 2.874-.563z" fill="#191919"/>
</svg>
