<svg xmlns="http://www.w3.org/2000/svg" viewBox="0 0 48 48">
  <defs>
    <linearGradient id="a" y1="47" x2="0" y2="1" gradientUnits="userSpaceOnUse">
      <stop stop-color="#49753f"/>
      <stop offset="1" stop-color="#518246"/>
    </linearGradient>
    <linearGradient id="b" gradientUnits="userSpaceOnUse" y1="279.1" x2="0" y2="268.33" gradientTransform="matrix(2.79716 0 0 2.79716 -332.973 -741.653)">
      <stop stop-color="#c8c8c8"/>
      <stop offset="1" stop-color="#eaeaea"/>
    </linearGradient>
  </defs>
  <path d="M36.31 5c5.859 4.062 9.688 10.831 9.688 18.5 0 12.426-10.07 22.5-22.5 22.5-7.669 0-14.438-3.828-18.5-9.688a23.24 23.24 0 0 0 3.781 4.969 22.923 22.923 0 0 0 15.469 5.969c12.703 0 23-10.298 23-23a22.92 22.92 0 0 0-5.969-15.469A23.216 23.216 0 0 0 36.31 5zm4.969 3.781A22.911 22.911 0 0 1 47.498 24.5c0 12.703-10.297 23-23 23a22.909 22.909 0 0 1-15.719-6.219C12.939 45.425 18.662 48 24.998 48c12.703 0 23-10.298 23-23 0-6.335-2.575-12.06-6.719-16.219z" opacity=".05"/>
  <path d="M41.28 8.781a22.923 22.923 0 0 1 5.969 15.469c0 12.703-10.297 23-23 23A22.92 22.92 0 0 1 8.78 41.281 22.911 22.911 0 0 0 24.499 47.5c12.703 0 23-10.298 23-23A22.909 22.909 0 0 0 41.28 8.781z" opacity=".1"/>
  <path d="M31.25 2.375C39.865 5.529 46 13.792 46 23.505c0 12.426-10.07 22.5-22.5 22.5-9.708 0-17.971-6.135-21.12-14.75a23 23 0 0 0 44.875-7 23 23 0 0 0-16-21.875z" opacity=".2"/>
  <path d="M24 1c12.703 0 23 10.297 23 23S36.703 47 24 47 1 36.703 1 24 11.297 1 24 1z" fill="url(#a)"/>
  <path d="M40.03 7.531A22.922 22.922 0 0 1 45.999 23c0 12.703-10.297 23-23 23A22.92 22.92 0 0 1 7.53 40.031C11.708 44.322 17.54 47 23.999 47c12.703 0 23-10.298 23-23 0-6.462-2.677-12.291-6.969-16.469z" opacity=".1"/>
  <path d="M25 10c-8.285 0-15 6.715-15 15 0 8.281 6.715 14.996 15 14.996 8.281 0 14.996-6.715 14.996-14.996 0-8.285-6.715-15-14.996-15zm0 12.859c.59 0 1.129.238 1.516.621.387.387.625.926.625 1.52a2.14 2.14 0 0 1-.625 1.516 2.14 2.14 0 0 1-1.516.625 2.143 2.143 0 0 1-1.52-.625A2.154 2.154 0 0 1 22.859 25c0-.594.238-1.133.621-1.52a2.157 2.157 0 0 1 1.52-.621z" fill-opacity=".098" fill-rule="evenodd"/>
  <path d="M24 9C15.715 9 9 15.715 9 24c0 8.281 6.715 14.996 15 14.996 8.281 0 14.996-6.715 14.996-14.996 0-8.285-6.715-15-14.996-15m0 12.859c.59 0 1.129.238 1.516.621.387.387.625.926.625 1.52a2.14 2.14 0 0 1-.625 1.516 2.14 2.14 0 0 1-1.516.625 2.143 2.143 0 0 1-1.52-.625A2.154 2.154 0 0 1 21.859 24c0-.594.238-1.133.621-1.52a2.157 2.157 0 0 1 1.52-.621z" fill="url(#b)" fill-rule="evenodd"/>
  <path d="M34.47 34.68a15.326 15.326 0 0 0 3.273-4.81c.387-.902.68-1.847.883-2.831.199-.983.309-2 .309-3.039H28.3c0 .625-.16 1.226-.39 1.766-.227.54-.616 1.026-1.03 1.435l7.594 7.478M13.496 13.289a15.06 15.06 0 0 0-1.855 2.248 15.08 15.08 0 0 0-1.402 2.578c-.387.904-.68 1.851-.879 2.834-.203.986-.309 2.01-.309 3.051h10.664c0-.629.125-1.23.359-1.77a4.5 4.5 0 0 1 .973-1.44l-7.539-7.496m-.012-.004M10.343 30.21a14.962 14.962 0 0 0 3.059 4.398l7.558-7.566a4.38 4.38 0 0 1-.88-1.273M34.602 13.398L27.04 20.96c.363.363.67.801.885 1.273l9.736-4.445a15.09 15.09 0 0 0-3.059-4.395" fill="#fff" fill-opacity=".498"/>
  <path d="M28.29 24c0 .397-.071.774-.172 1.139L38.466 28c.355-1.302.535-2.647.535-4H28.29zM9.535 20.03A15.005 15.005 0 0 0 9 24.003h10.721c0-.393.069-.767.168-1.129L9.535 20.03" fill="#999" fill-opacity=".498"/>
  <path d="M24 9v10.715h.006c.392 0 .764.069 1.125.168l2.842-10.348A15.005 15.005 0 0 0 24 9M22.871 28.11l-2.844 10.352c1.293.355 2.629.535 3.973.535V28.282c-.393 0-.768-.072-1.129-.172z" fill="#ff8dff" fill-opacity=".498"/>
  <path d="M24.01 19.715a4.284 4.284 0 1 0-.001 8.569 4.284 4.284 0 0 0 .001-8.569zm-.006 2.145c.59 0 1.129.238 1.516.621.387.387.625.926.625 1.52a2.14 2.14 0 0 1-.625 1.516 2.14 2.14 0 0 1-1.516.625 2.143 2.143 0 0 1-1.52-.625 2.154 2.154 0 0 1-.621-1.516c0-.594.238-1.133.621-1.52a2.157 2.157 0 0 1 1.52-.621z" fill="#999" fill-opacity=".498"/>
</svg>
