<svg viewBox="0 0 48 48" xmlns="http://www.w3.org/2000/svg" xmlns:xlink="http://www.w3.org/1999/xlink">
 <defs>
  <linearGradient id="linearGradient3764" x1="1" x2="47" gradientTransform="matrix(0 -1 1 0 -1.5e-6 48)" gradientUnits="userSpaceOnUse">
   <stop style="stop-color:#bf1515" offset="0"/>
   <stop style="stop-color:#d01717" offset="1"/>
  </linearGradient>
 </defs>
 <path d="m36.31 5c5.859 4.062 9.688 10.831 9.688 18.5 0 12.426-10.07 22.5-22.5 22.5-7.669 0-14.438-3.828-18.5-9.688 1.037 1.822 2.306 3.499 3.781 4.969 4.085 3.712 9.514 5.969 15.469 5.969 12.703 0 23-10.298 23-23 0-5.954-2.256-11.384-5.969-15.469-1.469-1.475-3.147-2.744-4.969-3.781zm4.969 3.781c3.854 4.113 6.219 9.637 6.219 15.719 0 12.703-10.297 23-23 23-6.081 0-11.606-2.364-15.719-6.219 4.16 4.144 9.883 6.719 16.219 6.719 12.703 0 23-10.298 23-23 0-6.335-2.575-12.06-6.719-16.219z" style="opacity:.05"/>
 <path d="m41.28 8.781c3.712 4.085 5.969 9.514 5.969 15.469 0 12.703-10.297 23-23 23-5.954 0-11.384-2.256-15.469-5.969 4.113 3.854 9.637 6.219 15.719 6.219 12.703 0 23-10.298 23-23 0-6.081-2.364-11.606-6.219-15.719z" style="opacity:.1"/>
 <path d="m31.25 2.375c8.615 3.154 14.75 11.417 14.75 21.13 0 12.426-10.07 22.5-22.5 22.5-9.708 0-17.971-6.135-21.12-14.75a23 23 0 0 0 44.875-7 23 23 0 0 0-16-21.875z" style="opacity:.2"/>
 <path d="m24 1c12.703 0 23 10.297 23 23s-10.297 23-23 23-23-10.297-23-23 10.297-23 23-23z" style="fill:url(#linearGradient3764)"/>
 <g transform="translate(1,1)">
  <g style="opacity:.1">
   <path d="m16 12c-0.516 0-1 0.484-1 1v22c0 0.484 0.516 1 1 1h16c0.484 0 1-0.516 1-1v-16.5l-6.5-6.5"/>
   <use xlink:href="#SVGCleanerId_0"/>
   <use xlink:href="#SVGCleanerId_1"/>
  </g>
 </g>
 <path d="m16 12c-0.516 0-1 0.484-1 1v22c0 0.484 0.516 1 1 1h16c0.484 0 1-0.516 1-1v-16.5l-6.5-6.5m-3.313 8c0.094-0.016 0.184 0.023 0.281 0.125 0.141 0.137 0.191 0.379 0.219 0.531-0.027-0.09-0.066-0.203-0.125-0.25-0.074-0.145-0.594-0.457-0.5 0.688 0.039 0.469 0.094 1.141 0.219 1.844 0.289-1.098 0.469-1.938 0.469-1.938s0.105 1.109-0.281 2.844c0.219 0.754 0.566 1.52 1.125 2.188 0.488 0.582 1.133 1.07 1.781 1.438 0.371-0.035 0.699-0.07 1.375-0.094 1.816-0.055 2.043 0.168 2.188 0.438 0.168 0.258-0.094 0.5-0.094 0.5s0.016-0.18-0.188-0.344c-0.18-0.145-0.898-0.309-2.688-0.188 0.922 0.441 1.789 0.66 2.125 0.688 0.645 0.055 0.688-0.094 0.688-0.094s-0.281 0.535-1.531 0.281c-0.633-0.129-1.398-0.434-2.094-0.813-2.227 0.246-4.5 0.969-4.5 0.969s0.828-0.691 2.5-1c0.715-0.133 1.102-0.219 1.5-0.281-0.465-0.297-0.883-0.613-1.188-0.969-0.441-0.512-0.824-1.324-1.125-2.125-0.305 1.137-0.824 2.484-1.688 3.969-2.438 4.203-3.152 3.648-3.406 3.5-0.258-0.145-0.586-0.617 0.5-1.563 1.082-0.949 1.5-0.938 1.5-0.938s-0.988 0.605-1.375 1.188c-0.383 0.582-0.684 0.93-0.594 1.094 0.094 0.164 1.195-0.668 1.656-1.375 0.727-1.129 2.102-3.219 2.75-5.219 0.148-0.469 0.281-0.957 0.406-1.406-0.148-0.453-0.27-0.867-0.316-1.156-0.164-0.93-0.074-1.902 0.125-2.25 0.105-0.172 0.188-0.262 0.281-0.281" style="fill:#f9f9f9"/>
 <path id="SVGCleanerId_0" d="m26.5 17.5 0.031 0.031 0.078-0.031m0.891 1 5.5 5.5v-5.5m-5.5 0" style="fill-opacity:.196"/>
 <path id="SVGCleanerId_1" d="m26.5 12 6.5 6.5h-5.5c-0.484 0-1-0.52-1-1m0-5.5" style="fill-opacity:.392"/>
 <path d="m40.03 7.531c3.712 4.084 5.969 9.514 5.969 15.469 0 12.703-10.297 23-23 23-5.954 0-11.384-2.256-15.469-5.969 4.178 4.291 10.01 6.969 16.469 6.969 12.703 0 23-10.298 23-23 0-6.462-2.677-12.291-6.969-16.469z" style="opacity:.1"/>
</svg>
