<svg viewBox="0 0 48 48" xmlns="http://www.w3.org/2000/svg">
 <defs>
  <linearGradient id="linearGradient3764-5" x1="1" x2="47" gradientTransform="matrix(0 -1 1 0 -1.5e-6 48)" gradientUnits="userSpaceOnUse">
   <stop style="stop-color:#e4e4e4" offset="0"/>
   <stop style="stop-color:#eee" offset="1"/>
  </linearGradient>
 </defs>
 <path d="m36.31 5c5.859 4.062 9.688 10.831 9.688 18.5 0 12.426-10.07 22.5-22.5 22.5-7.669 0-14.438-3.828-18.5-9.688 1.037 1.822 2.306 3.499 3.781 4.969 4.085 3.712 9.514 5.969 15.469 5.969 12.703 0 23-10.298 23-23 0-5.954-2.256-11.384-5.969-15.469-1.469-1.475-3.147-2.744-4.969-3.781zm4.969 3.781c3.854 4.113 6.219 9.637 6.219 15.719 0 12.703-10.297 23-23 23-6.081 0-11.606-2.364-15.719-6.219 4.16 4.144 9.883 6.719 16.219 6.719 12.703 0 23-10.298 23-23 0-6.335-2.575-12.06-6.719-16.219z" style="opacity:.05"/>
 <path d="m41.28 8.781c3.712 4.085 5.969 9.514 5.969 15.469 0 12.703-10.297 23-23 23-5.954 0-11.384-2.256-15.469-5.969 4.113 3.854 9.637 6.219 15.719 6.219 12.703 0 23-10.298 23-23 0-6.081-2.364-11.606-6.219-15.719z" style="opacity:.1"/>
 <path d="m31.25 2.375c8.615 3.154 14.75 11.417 14.75 21.13 0 12.426-10.07 22.5-22.5 22.5-9.708 0-17.971-6.135-21.12-14.75a23 23 0 0 0 44.875-7 23 23 0 0 0-16-21.875z" style="opacity:.2"/>
 <path d="m24 1c12.703 0 23 10.297 23 23s-10.297 23-23 23-23-10.297-23-23 10.297-23 23-23z" style="fill:url(#linearGradient3764-5)"/>
 <path d="m40.03 7.531c3.712 4.084 5.969 9.514 5.969 15.469 0 12.703-10.297 23-23 23-5.954 0-11.384-2.256-15.469-5.969 4.178 4.291 10.01 6.969 16.469 6.969 12.703 0 23-10.298 23-23 0-6.462-2.677-12.291-6.969-16.469z" style="opacity:.1"/>
 <g transform="matrix(1.0002 0 0 .9998 -34.529 20.362)"></g>
 <path d="m25 14c-2 0-7 0-9 2-4 4-2 9 0 13s6 9 9 9 7-5 9-9 4-9 0-13c-2-2-7-2-9-2z" style="fill-rule:evenodd;opacity:.1"/>
 <path d="m24 13c-2 0-7 0-9 2-4 4-2 9 0 13s6 9 9 9 7-5 9-9 4-9 0-13c-2-2-7-2-9-2z" style="fill-rule:evenodd;fill:#3f3f3f"/>
 <path d="m26.414 17c-2.456 0.032-4.308 0.721-5.555 2.066-1.239 1.341-1.859 3.282-1.859 5.822v0.672c0 1.598 0.472 2.907 1.414 3.924 0.941 1.01 2.169 1.516 3.684 1.516 1.493 0 2.683-0.426 3.566-1.279 0.891-0.853 1.336-1.991 1.336-3.412 0-1.339-0.412-2.433-1.238-3.279-0.819-0.847-1.916-1.27-3.293-1.27-1.442 0-2.635 0.416-3.469 1.25 0.145-1.421 0.737-2.523 1.664-3.307 0.927-0.783 2.173-1.188 3.738-1.213h0.598v-1.49m-2.869 6.219c0.87 0 1.564 0.293 2.086 0.881 0.529 0.581 0.783 1.346 0.783 2.293 0 0.942-0.25 1.704-0.771 2.285-0.514 0.581-1.225 0.871-2.131 0.871-0.877 0-1.609-0.348-2.195-1.043-0.587-0.695-0.902-1.611-0.902-2.748v-0.643c0.224-0.543 0.649-0.995 1.229-1.355s1.214-0.541 1.902-0.541z" style="fill-opacity:.941;fill:#d74d3b"/>
</svg>
