<?xml version="1.0" encoding="UTF-8" standalone="no"?>
<svg
   xmlns:dc="http://purl.org/dc/elements/1.1/"
   xmlns:cc="http://creativecommons.org/ns#"
   xmlns:rdf="http://www.w3.org/1999/02/22-rdf-syntax-ns#"
   xmlns:svg="http://www.w3.org/2000/svg"
   xmlns="http://www.w3.org/2000/svg"
   xmlns:sodipodi="http://sodipodi.sourceforge.net/DTD/sodipodi-0.dtd"
   xmlns:inkscape="http://www.inkscape.org/namespaces/inkscape"
   version="1.1"
   viewBox="0 0 48 48"
   id="svg23"
   sodipodi:docname="48_c.svg"
   inkscape:version="0.92.4 (5da689c313, 2019-01-14)">
  <metadata
     id="metadata27">
    <rdf:RDF>
      <cc:Work
         rdf:about="">
        <dc:format>image/svg+xml</dc:format>
        <dc:type
           rdf:resource="http://purl.org/dc/dcmitype/StillImage" />
      </cc:Work>
    </rdf:RDF>
  </metadata>
  <sodipodi:namedview
     pagecolor="#ffffff"
     bordercolor="#666666"
     borderopacity="1"
     objecttolerance="10"
     gridtolerance="10"
     guidetolerance="10"
     inkscape:pageopacity="0"
     inkscape:pageshadow="2"
     inkscape:window-width="1280"
     inkscape:window-height="753"
     id="namedview25"
     showgrid="true"
     inkscape:zoom="9.8333333"
     inkscape:cx="18.439269"
     inkscape:cy="24"
     inkscape:window-x="-6"
     inkscape:window-y="-6"
     inkscape:window-maximized="1"
     inkscape:current-layer="svg23">
    <inkscape:grid
       type="xygrid"
       id="grid84" />
  </sodipodi:namedview>
  <defs
     id="defs7">
    <linearGradient
       id="bg"
       x2="0"
       y1="1"
       y2="47"
       gradientUnits="userSpaceOnUse">
      <stop
         style="stop-color:#601a1a"
         offset="0"
         id="stop2" />
      <stop
         style="stop-color:#501616"
         offset="1"
         id="stop4" />
    </linearGradient>
    <linearGradient
       gradientUnits="userSpaceOnUse"
       y2="47"
       y1="1"
       x2="0"
       id="bg-3">
      <stop
         id="stop2-5"
         offset="0"
         style="stop-color:#601a1a" />
      <stop
         id="stop4-6"
         offset="1"
         style="stop-color:#501616" />
    </linearGradient>
    <linearGradient
       id="bg-6"
       x2="0"
       y1="1"
       y2="47"
       gradientUnits="userSpaceOnUse">
      <stop
         style="stop-color:#eee"
         offset="0"
         id="stop937" />
      <stop
         style="stop-color:#e4e4e4"
         offset="1"
         id="stop939" />
    </linearGradient>
  </defs>
  <path
     d="m36.31 5c5.859 4.062 9.688 10.831 9.688 18.5 0 12.426-10.07 22.5-22.5 22.5-7.669 0-14.438-3.828-18.5-9.688 1.037 1.822 2.306 3.499 3.781 4.969 4.085 3.712 9.514 5.969 15.469 5.969 12.703 0 23-10.298 23-23 0-5.954-2.256-11.384-5.969-15.469-1.469-1.475-3.147-2.744-4.969-3.781zm4.969 3.781c3.854 4.113 6.219 9.637 6.219 15.719 0 12.703-10.297 23-23 23-6.081 0-11.606-2.364-15.719-6.219 4.16 4.144 9.883 6.719 16.219 6.719 12.703 0 23-10.298 23-23 0-6.335-2.575-12.06-6.719-16.219z"
     style="opacity:.05"
     id="path9" />
  <path
     d="m41.28 8.781c3.712 4.085 5.969 9.514 5.969 15.469 0 12.703-10.297 23-23 23-5.954 0-11.384-2.256-15.469-5.969 4.113 3.854 9.637 6.219 15.719 6.219 12.703 0 23-10.298 23-23 0-6.081-2.364-11.606-6.219-15.719z"
     style="opacity:.1"
     id="path11" />
  <path
     d="m31.25 2.375c8.615 3.154 14.75 11.417 14.75 21.13 0 12.426-10.07 22.5-22.5 22.5-9.708 0-17.971-6.135-21.12-14.75a23 23 0 0 0 44.875-7 23 23 0 0 0-16-21.875z"
     style="opacity:.2"
     id="path13" />
  <circle
     cx="24"
     cy="24"
     r="23"
     style="fill:#ffcaab"
     id="circle15" />
  <path
     d="m40.03 7.531c3.712 4.084 5.969 9.514 5.969 15.469 0 12.703-10.297 23-23 23-5.954 0-11.384-2.256-15.469-5.969 4.178 4.291 10.01 6.969 16.469 6.969 12.703 0 23-10.298 23-23 0-6.462-2.677-12.291-6.969-16.469z"
     style="opacity:.1"
     id="path17" />
  <path
     inkscape:connector-curvature="0"
     d="m -49.135593,43.008474 v 0.25 c 0,2.216 1.784,4 4,4 h 38 c 2.216,0 4,-1.784 4,-4 v -0.25 c 0,2.216 -1.784,4 -4,4 h -38 c -2.216,0 -4,-1.784 -4,-4 z m 0,0.5 v 0.5 c 0,2.216 1.784,4 4,4 h 38 c 2.216,0 4,-1.784 4,-4 v -0.5 c 0,2.216 -1.784,4 -4,4 h -38 c -2.216,0 -4,-1.784 -4,-4 z"
     style="opacity:0.02000002"
     id="path9-2" />
  <path
     inkscape:connector-curvature="0"
     d="m -49.135593,43.258474 v 0.25 c 0,2.216 1.784,4 4,4 h 38 c 2.216,0 4,-1.784 4,-4 v -0.25 c 0,2.216 -1.784,4 -4,4 h -38 c -2.216,0 -4,-1.784 -4,-4 z"
     style="opacity:0.05"
     id="path11-9" />
  <path
     inkscape:connector-curvature="0"
     d="m -49.135593,43.008474 v 0.25 c 0,2.216 1.784,4 4,4 h 38 c 2.216,0 4,-1.784 4,-4 v -0.25 c 0,2.216 -1.784,4 -4,4 h -38 c -2.216,0 -4,-1.784 -4,-4 z"
     style="opacity:0.1"
     id="path13-1" />
  <path
     style="opacity:0.1;fill-opacity:1"
     d="m 16,29 c 0,0 8,6 15,6 4,0 5,-2 5,-2 l -7,-9 -4,-4 -4,-2 -5,-1 -1,2 v 5 z"
     id="path102-7"
     inkscape:connector-curvature="0"
     sodipodi:nodetypes="cscccccccc" />
  <path
     style="fill:#f9f9f9;fill-opacity:1"
     d="m 15,28 c 0,0 8,6 15,6 4,0 5,-2 5,-2 l -7,-9 -4,-4 -4,-2 -5,-1 -1,2 v 5 z"
     id="path102"
     inkscape:connector-curvature="0"
     sodipodi:nodetypes="cscccccccc" />
  <path
     style="opacity:0.1;fill-opacity:1"
     d="m 13,13 c 0,0 6.90122,2.120976 13,7 5,4 11,11 11,11 l -2,-1 1,3 c 0,0 -5,-7 -11,-12 -3.841106,-3.200922 -9,-3 -9,-3 0,0 -1.347237,3.020163 -1,6 0.19673,1.68825 1,5 1,5 0,0 -2,-3.204945 -2,-5 v -6 l -1,-2 2,1 z"
     id="path100-5"
     inkscape:connector-curvature="0"
     sodipodi:nodetypes="cscccscscscccc" />
  <path
     style="opacity:1;fill:#6b5ca7;fill-opacity:1"
     d="M 21.496094,18.421875 C 19.931252,19.829057 19.0026,22.090375 19,24.5 c 0,4.142136 2.686292,7.5 6,7.5 2.634042,-2.41e-4 4.959939,-2.147893 5.734375,-5.294922 C 28.858609,24.558219 26.533491,22.111242 24,20 23.202992,19.335827 22.348714,18.825308 21.496094,18.421875 Z"
     id="path106"
     inkscape:connector-curvature="0"
     sodipodi:nodetypes="ccccsc" />
  <ellipse
     style="opacity:1;fill:#86bdcd;fill-opacity:1"
     id="path126"
     cx="25"
     cy="25"
     rx="3"
     ry="4" />
  <path
     style="fill:#2d2d2d;fill-opacity:1"
     d="m 12,12 c 0,0 6.90122,2.120976 13,7 5,4 11,11 11,11 l -2,-1 1,3 c 0,0 -5,-7 -11,-12 -3.841106,-3.200922 -9,-3 -9,-3 0,0 -1.347237,3.020163 -1,6 0.19673,1.68825 1,5 1,5 0,0 -2,-3.204945 -2,-5 v -6 l -1,-2 2,1 z"
     id="path100"
     inkscape:connector-curvature="0"
     sodipodi:nodetypes="cscccscscscccc" />
  <ellipse
     style="opacity:1;fill:#f9f9f9;fill-opacity:1"
     id="path130"
     cx="20"
     cy="22"
     rx="3"
     ry="2" />
</svg>
