<svg version="1.1" viewBox="0 0 48 48" xmlns="http://www.w3.org/2000/svg">
 <defs>
  <linearGradient id="bg" x2="0" y1="1" y2="47" gradientUnits="userSpaceOnUse">
   <stop style="stop-color:#83baf9" offset="0"/>
   <stop style="stop-color:#f98080" offset="1"/>
  </linearGradient>
 </defs>
 <path d="m36.31 5c5.859 4.062 9.688 10.831 9.688 18.5 0 12.426-10.07 22.5-22.5 22.5-7.669 0-14.438-3.828-18.5-9.688 1.037 1.822 2.306 3.499 3.781 4.969 4.085 3.712 9.514 5.969 15.469 5.969 12.703 0 23-10.298 23-23 0-5.954-2.256-11.384-5.969-15.469-1.469-1.475-3.147-2.744-4.969-3.781zm4.969 3.781c3.854 4.113 6.219 9.637 6.219 15.719 0 12.703-10.297 23-23 23-6.081 0-11.606-2.364-15.719-6.219 4.16 4.144 9.883 6.719 16.219 6.719 12.703 0 23-10.298 23-23 0-6.335-2.575-12.06-6.719-16.219z" style="opacity:.05"/>
 <path d="m41.28 8.781c3.712 4.085 5.969 9.514 5.969 15.469 0 12.703-10.297 23-23 23-5.954 0-11.384-2.256-15.469-5.969 4.113 3.854 9.637 6.219 15.719 6.219 12.703 0 23-10.298 23-23 0-6.081-2.364-11.606-6.219-15.719z" style="opacity:.1"/>
 <path d="m31.25 2.375c8.615 3.154 14.75 11.417 14.75 21.13 0 12.426-10.07 22.5-22.5 22.5-9.708 0-17.971-6.135-21.12-14.75a23 23 0 0 0 44.875-7 23 23 0 0 0-16-21.875z" style="opacity:.2"/>
 <circle cx="24" cy="24" r="23" style="fill:url(#bg)"/>
 <path d="m40.03 7.531c3.712 4.084 5.969 9.514 5.969 15.469 0 12.703-10.297 23-23 23-5.954 0-11.384-2.256-15.469-5.969 4.178 4.291 10.01 6.969 16.469 6.969 12.703 0 23-10.298 23-23 0-6.462-2.677-12.291-6.969-16.469z" style="opacity:.1"/>
 <path d="m24.996 13c-5.0579 0.27725-8.9037 4.0664-8.9961 9.5-1.6e-5 0.0033-1.6e-5 0.0065 0 0.0098v1.4863c-6e-6 2e-3 -6e-6 0.0039 0 0.0059 0.0031 1.1106 0.38644 2.184 1.0117 3.1465 9.26e-4 0.0053 0.0039 0.02344 0.0039 0.02344 0.0081 0.04898 0.01987 0.09729 0.03516 0.14453l0.94922 2.8456v0.83789c0 0.28355 0.05174 0.52004 0.10547 0.72461 6.56e-4 0.0026 0.0013 0.0052 2e-3 0.0078 0.01281 0.04707 0.02443 0.08693 0.03516 0.12109 4.26e-4 0.0014 0.0015 0.0025 2e-3 0.0039 5.2e-4 0.0017 0.0014 0.0042 2e-3 0.0059 0.41562 1.3534 1.4872 2.4641 2.4336 3.373 0.94873 0.91116 1.8184 1.5625 1.8184 1.5625 0.17334 0.13052 0.38443 0.20112 0.60142 0.20115h4c0.21704-7e-6 0.42818-0.07062 0.60156-0.20117 0 0 0.86963-0.65134 1.8184-1.5625 0.94639-0.90892 2.018-2.0197 2.4336-3.373l2e-3 -0.0059c0.01098-0.03491 0.02386-0.07632 0.03711-0.125 6.77e-4 -0.0026 0.0013-0.0052 2e-3 -0.0078 0.05363-0.20454 0.10537-0.44104 0.10537-0.72458v-0.83789l0.94922-2.8457c0.01614-0.04846 0.02855-0.09808 0.03711-0.14844 0 0-4.1e-5 -0.0037 0-0.0039 0.62959-0.96816 1.0141-2.0466 1.0137-3.1641 3.1e-5 -0.0046 3.1e-5 -0.0091 0-0.01367v-1.4864c-0.4719-5.1721-3.636-9.4191-8.998-9.5-2e-3 -6e-6 -0.0039-6e-6 -0.0059 0z" style="opacity:.1"/>
 <path d="m23.996 12c-5.0579 0.27725-8.9037 4.0664-8.9961 9.5-1.6e-5 0.0033-1.6e-5 0.0065 0 0.0098v1.4863c-6e-6 2e-3 -6e-6 0.0039 0 0.0059 0.0031 1.1106 0.38644 2.184 1.0117 3.1465 9.26e-4 0.0053 0.0039 0.02344 0.0039 0.02344 0.0081 0.04898 0.01987 0.09729 0.03516 0.14453l0.94922 2.8456v0.83789c0 0.28355 0.05174 0.52004 0.10547 0.72461 6.56e-4 0.0026 0.0013 0.0052 2e-3 0.0078 0.01281 0.04707 0.02443 0.08693 0.03516 0.12109 4.26e-4 0.0014 0.0015 0.0025 2e-3 0.0039 5.2e-4 0.0017 0.0014 0.0042 2e-3 0.0059 0.41562 1.3534 1.4872 2.4641 2.4336 3.373 0.94873 0.91116 1.8184 1.5625 1.8184 1.5625 0.17334 0.13052 0.38443 0.20112 0.60142 0.20115h4c0.21704-7e-6 0.42818-0.07062 0.60156-0.20117 0 0 0.86963-0.65134 1.8184-1.5625 0.94639-0.90892 2.018-2.0197 2.4336-3.373l2e-3 -0.0059c0.01098-0.03491 0.02386-0.07632 0.03711-0.125 6.77e-4 -0.0026 0.0013-0.0052 2e-3 -0.0078 0.053632-0.20454 0.10537-0.44104 0.10537-0.72458v-0.83789l0.94922-2.8457c0.01614-0.04846 0.02855-0.09808 0.03711-0.14844 0 0-4.1e-5 -0.0037 0-0.0039 0.62959-0.96816 1.0141-2.0466 1.0137-3.1641 3.1e-5 -0.0046 3.1e-5 -0.0091 0-0.01367v-1.4863c-0.4719-5.1721-3.636-9.4191-8.998-9.5-2e-3 -6e-6 -0.0039-6e-6 -0.0059 0z" style="fill:#2d2d2d"/>
 <ellipse cx="24" cy="21.5" rx="8" ry="8.5" style="fill:#f9f9f9;paint-order:stroke fill markers"/>
 <ellipse cx="24" cy="23" rx="8" ry="6" style="fill:#454545;paint-order:stroke fill markers"/>
 <path d="m24 19c-4 0-6 2-6 3v3s6.6e-5 -1-0.80078-1c-0.60593 0-0.19922 2-0.19922 2l1 3v1c0 2 4 5 4 5h4s4-3 4-5v-1l1-3s0.40671-2-0.19922-2c-0.80085 0-0.80078 1-0.80078 1v-3c0-1-2-3-6-3z" style="fill:#fdcb98"/>
 <path d="m23 21s0.5827 0.75391 1 0.75391 1-0.75391 1-0.75391-0.64393 0.375-1 0.375-1-0.375-1-0.375zm-1 1s1.2889 0.74219 2 0.74219 2-0.74219 2-0.74219-1.3244 0.32812-2 0.32812-2-0.32812-2-0.32812zm3.5137 5.8398 0.03125 1.1602 1.0254 1-1.0566-2.1602zm-3.0273 0.02539-1.084 2.1348 1.0332-1 0.050781-1.1348zm-4.4863 0.13477v2c0 1 1 2.25 2 3.25v-3.25s0-2-2-2zm12 0c-2 0-2 2-2 2v3.25c1-1 2-2.25 2-3.25v-2zm-6 3.3711c-1.3937-0.006555-1.6641 1.168-1.6641 1.168s1.01-0.26646 1.6641-0.25976c0.65404 0.006688 1.7441 0.20703 1.7441 0.20703s-0.35045-1.1086-1.7441-1.1152z" style="fill:#e9ba95"/>
 <path d="m19 20.496c-0.65516 0.53343-1 1.0992-1 1.5039v3 4 1c0 0.64651 0.43427 1.3948 1 2.1152v-11.619zm10 0v11.619c0.56573-0.72039 1-1.4687 1-2.1152v-1-4-3c0-0.40471-0.34484-0.97048-1-1.5039z" style="fill:#949596;paint-order:stroke fill markers"/>
 <path d="m20 23.316-1 0.68359v1l1 2h2l1-1 0.55078-1.5-3.5508-1.1836zm8 0-3.5508 1.1836 0.55078 1.5 1 1h2l1-2v-1l-1-0.68359zm-3 4.9453-1 0.26953-1-0.25195-0.56445 0.7207 0.56445 1h2l0.54492-1-0.54492-0.73828z" style="fill:#c79b68"/>
 <path d="m22 13.277c-1.0945 0.29888-2.1169 0.84072-3 1.5898v1.1328s1-1 3-1v-1.7227zm4 0.0039v1.7188c2 0 3 1 3 1v-1.127c-0.88293-0.74982-1.9054-1.2923-3-1.5918z" style="fill:#d6d6d6"/>
 <path d="m24 29.331c-0.53296 6.49e-4 -1.5643-0.33058-1.5643-0.33058s-1.4357 1-1.4357 2c0 0.62963 0.27612 0.58673 0.27612 0.58673s1.2609-1.1831 2.7239-1.1595c1.5644 0.02515 2.7862 1.1685 2.7862 1.1685s0.21384 0.01975 0.21384-0.59572c0-1-1.4543-2-1.4543-2s-1.0188 0.32994-1.5457 0.33058z" style="fill:#71513b"/>
 <path d="m20.332 23c-0.61907 0-1.332 1-1.332 1s0.52118-0.35509 1-0.35938c1-0.0089 2 0.85938 2 0.85938h1.5508s-2.0955-1.5-3.2188-1.5zm7.3359 0c-1.1232 0-3.2188 1.5-3.2188 1.5h1.5508s1-0.86828 2-0.85938c0.47882 0.004282 1 0.35938 1 0.35938s-0.71296-1-1.332-1z" style="fill:#71513b"/>
 <circle cx="21.5" cy="25.5" r=".5" style="fill:#1b4c96;paint-order:stroke fill markers"/>
 <circle transform="scale(-1,1)" cx="-26.5" cy="25.5" r=".5" style="fill:#1b4c96;paint-order:stroke fill markers"/>
 <path d="m21 24.684c-0.66132 0.0041-1 1.043-1 1.043s0.82038-0.33926 1.2266-0.43555c0.77318-0.1833 1.2266 0.24805 1.2266 0.24805 0 0-0.45311-0.86173-1.4531-0.85547zm6 0c-1-0.006265-1.4531 0.85547-1.4531 0.85547 0 1e-6 0.45338-0.37665 1.2266-0.19336 0.40618 0.096291 1.2266 0.38086 1.2266 0.38086s-0.33868-1.0389-1-1.043zm-3.8398 3.9062s-0.37836 0.091676-0.35938 0.23438c0.01378 0.1036 0.29688 0.095703 0.29688 0.095703s0.12266-0.15611 0.40234-0.19141c-0.14175-0.14256-0.33984-0.13867-0.33984-0.13867zm1.6797 0s-0.19809-0.003892-0.33984 0.13867c0.27968 0.035294 0.40234 0.19141 0.40234 0.19141s0.2831 0.007893 0.29688-0.095703c0.018983-0.1427-0.35938-0.23438-0.35938-0.23438z" style="fill:#2d2d2d;stroke-width:.9956"/>
</svg>
