<svg xmlns="http://www.w3.org/2000/svg" viewBox="0 0 48 48">
  <defs>
    <linearGradient id="a" x1="24.716" y1="46.866" x2="24.472" y2="1.081" gradientUnits="userSpaceOnUse">
      <stop stop-color="#366fc4"/>
      <stop offset="1" stop-color="#5a8ad2"/>
    </linearGradient>
  </defs>
  <path d="M36.31 5c5.859 4.062 9.688 10.831 9.688 18.5 0 12.426-10.07 22.5-22.5 22.5-7.669 0-14.438-3.828-18.5-9.688a23.24 23.24 0 0 0 3.781 4.969 22.923 22.923 0 0 0 15.469 5.969c12.703 0 23-10.298 23-23a22.92 22.92 0 0 0-5.969-15.469A23.216 23.216 0 0 0 36.31 5zm4.969 3.781A22.911 22.911 0 0 1 47.498 24.5c0 12.703-10.297 23-23 23a22.909 22.909 0 0 1-15.719-6.219C12.939 45.425 18.662 48 24.998 48c12.703 0 23-10.298 23-23 0-6.335-2.575-12.06-6.719-16.219z" opacity=".05"/>
  <path d="M41.28 8.781a22.923 22.923 0 0 1 5.969 15.469c0 12.703-10.297 23-23 23A22.92 22.92 0 0 1 8.78 41.281 22.911 22.911 0 0 0 24.499 47.5c12.703 0 23-10.298 23-23A22.909 22.909 0 0 0 41.28 8.781z" opacity=".1"/>
  <path d="M31.25 2.375C39.865 5.529 46 13.792 46 23.505c0 12.426-10.07 22.5-22.5 22.5-9.708 0-17.971-6.135-21.12-14.75a23 23 0 0 0 44.875-7 23 23 0 0 0-16-21.875z" opacity=".2"/>
  <path d="M24 1c12.703 0 23 10.297 23 23S36.703 47 24 47 1 36.703 1 24 11.297 1 24 1z" fill="url(#a)"/>
  <path d="M40.03 7.531A22.922 22.922 0 0 1 45.999 23c0 12.703-10.297 23-23 23A22.92 22.92 0 0 1 7.53 40.031C11.708 44.322 17.54 47 23.999 47c12.703 0 23-10.298 23-23 0-6.462-2.677-12.291-6.969-16.469z" opacity=".1"/>
  <g opacity=".1">
    <path d="M17.375 9l3 7.313c-.025.018-.038.044-.063.063l-9.188.469 5.03 4.906-7.156 2.563 6.469 2.75-5.531 3.03 6.531.813c.089.202.181.429.281.625-.949.563-1.594 1.578-1.594 2.75 0 1.778 1.479 3.219 3.281 3.219a3.302 3.302 0 0 0 2.594-1.281c.139.089.263.166.406.25a3.616 3.616 0 0 0-.156 1.063c0 1.916 1.498 3.469 3.375 3.469 1.196 0 2.238-.64 2.844-1.594.605.958 1.644 1.594 2.844 1.594 1.877 0 3.406-1.553 3.406-3.469 0-.358-.058-.706-.156-1.031a12.172 12.172 0 0 0 4.938-5.438c.112.02.226.063.344.063 1.171 0 2.125-1.04 2.125-2.313 0-.979-.582-1.823-1.375-2.156.001-.206.031-.417.031-.625 0-5.694-3.962-10.441-9.281-11.719z"/>
  </g>
  <g>
    <path d="M16.375 8l3 7.313c-.025.018-.038.044-.063.063l-9.188.469 5.03 4.906-7.156 2.563 6.469 2.75-5.531 3.03 6.531.813c.089.202.181.429.281.625-.949.563-1.594 1.578-1.594 2.75 0 1.778 1.479 3.219 3.281 3.219a3.302 3.302 0 0 0 2.594-1.281c.139.089.263.166.406.25a3.616 3.616 0 0 0-.156 1.063c0 1.916 1.498 3.469 3.375 3.469 1.196 0 2.238-.64 2.844-1.594.605.958 1.644 1.594 2.844 1.594 1.877 0 3.406-1.553 3.406-3.469 0-.358-.058-.706-.156-1.031a12.172 12.172 0 0 0 4.938-5.438c.112.02.226.063.344.063 1.171 0 2.125-1.04 2.125-2.313 0-.979-.582-1.823-1.375-2.156.001-.206.031-.417.031-.625 0-5.694-3.962-10.441-9.281-11.719l-13-5.313m13.844 11.938c.933 0 1.771.379 2.375 1.031a2.482 2.482 0 0 1 1.219-.344c1.422 0 2.594 1.186 2.594 2.656 0 1.471-1.172 2.688-2.594 2.688-.395 0-.759-.117-1.094-.281-.61.749-1.489 1.25-2.5 1.25-1.837 0-3.313-1.566-3.313-3.5s1.476-3.5 3.313-3.5z" fill="#ff80e5"/>
    <path d="M29.764 26.842c-1-.132-1.98-.886-2.456-1.897-.965-2.049.282-4.56 2.436-4.907.894-.144 1.954.164 2.566.747l.251.239.438-.173c.863-.342 1.884-.112 2.576.58 1.285 1.285.88 3.499-.781 4.263-.522.24-1.285.272-1.753.074l-.315-.134-.396.37c-.72.673-1.608.964-2.566.838z" fill="#f9f9f9"/>
    <ellipse transform="translate(7.352 .243)" cx="23.5" cy="22.96" rx=".972" ry="1.053" fill="#4d4d4d"/>
    <ellipse transform="matrix(.77128 0 0 .80687 16.015 4.745)" cx="23.5" cy="22.96" rx=".972" ry="1.053" fill="#4d4d4d"/>
  </g>
</svg>
