<svg version="1.1" viewBox="0 0 48 48" xmlns="http://www.w3.org/2000/svg">
 <defs>
  <linearGradient id="linearGradient1232" x1="1" x2="47" y1="24" y2="24" gradientUnits="userSpaceOnUse">
   <stop style="stop-color:#c1cbd7" offset="0"/>
   <stop style="stop-color:#cdd5df" offset="1"/>
  </linearGradient>
 </defs>
 <path d="m36.31 5c5.859 4.062 9.688 10.831 9.688 18.5 0 12.426-10.07 22.5-22.5 22.5-7.669 0-14.438-3.828-18.5-9.688 1.037 1.822 2.306 3.499 3.781 4.969 4.085 3.712 9.514 5.969 15.469 5.969 12.703 0 23-10.298 23-23 0-5.954-2.256-11.384-5.969-15.469-1.469-1.475-3.147-2.744-4.969-3.781zm4.969 3.781c3.854 4.113 6.219 9.637 6.219 15.719 0 12.703-10.297 23-23 23-6.081 0-11.606-2.364-15.719-6.219 4.16 4.144 9.883 6.719 16.219 6.719 12.703 0 23-10.298 23-23 0-6.335-2.575-12.06-6.719-16.219z" style="opacity:.05"/>
 <path d="m41.28 8.781c3.712 4.085 5.969 9.514 5.969 15.469 0 12.703-10.297 23-23 23-5.954 0-11.384-2.256-15.469-5.969 4.113 3.854 9.637 6.219 15.719 6.219 12.703 0 23-10.298 23-23 0-6.081-2.364-11.606-6.219-15.719z" style="opacity:.1"/>
 <path d="m31.25 2.375c8.615 3.154 14.75 11.417 14.75 21.13 0 12.426-10.07 22.5-22.5 22.5-9.708 0-17.971-6.135-21.12-14.75a23 23 0 0 0 44.875-7 23 23 0 0 0-16-21.875z" style="opacity:.2"/>
 <g transform="rotate(-90 23.81 23.805)" style="fill:url(#linearGradient1232)">
  <path d="m1 24c0-12.703 10.297-23 23-23s23 10.297 23 23-10.297 23-23 23-23-10.297-23-23z" style="fill:url(#linearGradient1232)"/>
 </g>
 <path d="m25 10c-1.9109 0.0035-3.8036 0.37207-5.5762 1.0859 0.95878 0.49716 2.0232 1.3103 2.8242 2.248 0.90134-0.21727 1.8248-0.32934 2.752-0.33398 2.9915 0.0046 5.8477 1.1333 8.0371 3.1191l-5.7871 1.7754c0.11535 0.78516 0.20531 1.5508 0.25977 2.293 3.5751-1.278 6.6859-2.989 9.1875-4.5566-2.7382-3.5154-7.9476-5.5665-11.697-5.6309zm-9.209 1.4297c-3.1577 0.08056-6.0586 2.8939-5.8418 7.7148l1.8555-0.80469c-0.0029-5.2277 5.6737-7.2705 8.502-1.7324l1.9688-0.06641c-1.4177-3.5836-4.0284-5.174-6.4844-5.1113zm21.709 5.5703c-1.3807 0-2.5 1.1193-2.5 2.5s1.1193 2.5 2.5 2.5 2.5-1.1193 2.5-2.5-1.1193-2.5-2.5-2.5zm-15.189 0.49805c-4.7144-0.0865-11.484 1.6099-15.311 4.5645 0.33606 5.9996 5.5588 13.407 12.197 16.236 1.1966-1.2377 1.8603-2.2111 3.1309-3.9395 0.0013 1.41e-4 0.0026-1.41e-4 0.0039 0 3.2294-3.9999 5.0147-9.0988 3.7305-16.359-0.67245-0.17471-1.099-0.23524-1.8672-0.35352-0.0012 2.35e-4 -0.0027-2.34e-4 -0.0039 0-0.57501-0.08664-1.2074-0.13608-1.8809-0.14844zm11.447 2.502c-1.6392 0.96556-3.8523 1.9205-6.1152 2.4219-0.0065 0.8793-0.05858 1.7265-0.15039 2.5449 2.931-0.55847 5.6101-1.2078 7.8086-2.1191-1.1305-1-1.2407-1.5196-1.543-2.8477zm6.0508 2.668c-4.3296 1.9278-8.7297 4.0772-12.807 5.0508-0.27645 0.98593-0.61811 1.9269-0.96294 2.8379 4.674 0.21719 8.8384-1.9688 10.814-3.7852-0.85856 5.7849-5.8298 10.229-11.853 10.229-0.90759-0.0039-1.8118-0.11065-2.6953-0.31836-0.91951 1.1963-1.4723 1.6728-2.2754 2.4531 1.5962 0.567 3.2768 0.85955 4.9707 0.86523 8.2843 0 15-6.7157 15-15-0.01076-0.81762-0.11281-1.6447-0.1912-2.3324zm-22.309 1.332c0.82843 0 1.5 0.67157 1.5 1.5-6.88e-4 0.52955-0.28055 1.0195-0.73633 1.2891l0.73633 2.2109h-2v-2.0879c-0.59859-0.21163-0.9991-0.7772-1-1.4121 0-0.82843 0.67157-1.5 1.5-1.5z" style="fill:#010204;opacity:.1;stroke-width:.055547"/>
 <path d="m40.03 7.531c3.712 4.084 5.969 9.514 5.969 15.469 0 12.703-10.297 23-23 23-5.954 0-11.384-2.256-15.469-5.969 4.178 4.291 10.01 6.969 16.469 6.969 12.703 0 23-10.298 23-23 0-6.462-2.677-12.291-6.969-16.469z" style="opacity:.1"/>
 <path d="m23.191 16.646c1.6235 6.7534-0.13281 12.702-1.8623 16.713-1.2705 1.7283-1.9353 2.7031-3.1319 3.9408-6.6384-2.8296-11.861-10.238-12.197-16.237 4.3733-3.3766 12.591-5.1094 17.191-4.4163zm-3.1329 2.3538-8.9686 7.0002 8.8749 4.8125z" style="fill:#73acdd;stroke-width:.055547"/>
 <path d="m23.195 16.646c-4.8865 0.94597-10.623 3.4743-16.49 7.9414 1.8564 5.8762 7.3564 7.9953 14.627 8.7715 3.2294-3.9999 5.0147-9.0988 3.7305-16.359-0.67245-0.17471-1.099-0.23524-1.8672-0.35352zm-6.6953 6.3535a1.5 1.5 0 0 1 1.5 1.5 1.5 1.5 0 0 1 -0.73633 1.2891l0.73633 2.2109h-2v-2.0879a1.5 1.5 0 0 1 -1 -1.4121 1.5 1.5 0 0 1 1.5 -1.5z" style="fill:#3a98d3;stroke-width:.054835"/>
 <path d="m39 18.5a2.5 2.5 0 0 1 -2.5 2.5 2.5 2.5 0 0 1 -2.5 -2.5 2.5 2.5 0 0 1 2.5 -2.5 2.5 2.5 0 0 1 2.5 2.5z" style="fill:#3a98d3;stroke-width:1.0537"/>
 <path d="m32.758 19c-1.6392 0.96556-3.8523 1.9205-6.1152 2.4219-0.0065 0.8793-0.05858 1.7265-0.15039 2.5449 2.931-0.55847 5.6101-1.2078 7.8086-2.1191-1.1305-1-1.2407-1.5196-1.543-2.8477z" style="fill:#3a98d3;stroke-width:.054835"/>
 <path d="m8.9489 18.145c-0.38546-8.5706 9.0869-10.794 12.327-2.6032l-1.969 0.06602c-2.8282-5.5381-8.5058-3.496-8.5029 1.7316l-1.8553 0.80556z" style="fill:#484c4c;stroke-width:.057284"/>
 <path d="m32.043 15.117-5.793 1.7773c0.11535 0.78516 0.20531 1.5508 0.25977 2.293 3.7019-1.2487 5.7976-2.4133 9.1719-4.5488-0.48479-0.56953-0.48939-0.585-0.66797-0.79492zm6.7656 6.5508c-4.3614 2.5751-8.6821 4.1512-12.807 5.0508-0.19638 0.66261-0.30288 1.0135-0.43164 1.377-3.84e-4 0.0011-0.0016 0.0028-2e-3 0.0039-0.15866 0.49875-0.33764 0.98229-0.5293 1.457 4.674 0.21719 8.8384-1.9688 10.814-3.7852z" style="fill:#484c4c"/>
 <path d="m24 9c-1.9109 0.00349-3.8036 0.37207-5.5762 1.0859 0.95878 0.49716 2.0232 1.3103 2.8242 2.248 0.90134-0.21727 1.8248-0.32934 2.752-0.33398 3.5025 0.0054 6.8278 1.5407 9.1035 4.2031 0.81515-0.47124 1.662-0.98369 2.5938-1.5723-2.8429-3.5544-7.1458-5.6258-11.697-5.6309z" style="fill:#484c4c"/>
 <path d="m38.801 21.672c-0.94533 0.5579-1.8882 1.0688-2.8281 1.5361 0.01798 0.2659 0.0271 0.52549 0.02734 0.792 0 6.6274-5.3726 12-12 12-0.90759-0.0039-1.8118-0.11065-2.6953-0.31836-0.91951 1.1963-1.4723 1.6728-2.2754 2.4531 1.5962 0.567 3.2768 0.85955 4.9707 0.86523 8.2843 0 15-6.7157 15-15-0.0058-0.78004-0.07238-1.5584-0.19922-2.3281z" style="fill:#484c4c"/>
</svg>
