<svg xmlns="http://www.w3.org/2000/svg" xmlns:xlink="http://www.w3.org/1999/xlink" viewBox="0 0 48 48">
  <defs>
    <linearGradient id="b" x1="1" x2="47" gradientUnits="userSpaceOnUse" gradientTransform="rotate(-90 24 24)">
      <stop stop-color="#e4e4e4"/>
      <stop offset="1" stop-color="#eee"/>
    </linearGradient>
    <linearGradient y2="89.29" x2="0" y1="209.78" gradientTransform="matrix(.8813 0 0 1.0409 19.369 -48.865)" gradientUnits="userSpaceOnUse" id="c" xlink:href="#a"/>
    <linearGradient id="a">
      <stop stop-color="#dfe0e2"/>
      <stop offset="1" stop-color="#fafbff"/>
    </linearGradient>
    <linearGradient xlink:href="#a" id="d" gradientUnits="userSpaceOnUse" gradientTransform="matrix(.80996 0 0 1.0409 105.378 -48.865)" y1="209.78" x2="0" y2="89.29"/>
  </defs>
  <path d="M36.31 5c5.859 4.062 9.688 10.831 9.688 18.5 0 12.426-10.07 22.5-22.5 22.5-7.669 0-14.438-3.828-18.5-9.688a23.24 23.24 0 0 0 3.781 4.969 22.923 22.923 0 0 0 15.469 5.969c12.703 0 23-10.298 23-23a22.92 22.92 0 0 0-5.969-15.469A23.216 23.216 0 0 0 36.31 5zm4.969 3.781A22.911 22.911 0 0 1 47.498 24.5c0 12.703-10.297 23-23 23a22.909 22.909 0 0 1-15.719-6.219C12.939 45.425 18.662 48 24.998 48c12.703 0 23-10.298 23-23 0-6.335-2.575-12.06-6.719-16.219z" opacity=".05"/>
  <path d="M41.28 8.781a22.923 22.923 0 0 1 5.969 15.469c0 12.703-10.297 23-23 23A22.92 22.92 0 0 1 8.78 41.281 22.911 22.911 0 0 0 24.499 47.5c12.703 0 23-10.298 23-23A22.909 22.909 0 0 0 41.28 8.781z" opacity=".1"/>
  <path d="M31.25 2.375C39.865 5.529 46 13.792 46 23.505c0 12.426-10.07 22.5-22.5 22.5-9.708 0-17.971-6.135-21.12-14.75a23 23 0 0 0 44.875-7 23 23 0 0 0-16-21.875z" opacity=".2"/>
  <path d="M24 1c12.703 0 23 10.297 23 23S36.703 47 24 47 1 36.703 1 24 11.297 1 24 1z" fill="url(#b)"/>
  <g>
    <path d="M40.03 7.531A22.922 22.922 0 0 1 45.999 23c0 12.703-10.297 23-23 23A22.92 22.92 0 0 1 7.53 40.031C11.708 44.322 17.54 47 23.999 47c12.703 0 23-10.298 23-23 0-6.462-2.677-12.291-6.969-16.469z" opacity=".1"/>
  </g>
  <g>
    <path d="M13.479 14.999h23.038c.819 0 1.481.63 1.481 1.41v17.178c0 .783-.659 1.41-1.48 1.41h-23.04c-.818 0-1.48-.63-1.48-1.41V16.409c0-.783.659-1.41 1.48-1.41z" fill-opacity=".173"/>
    <path d="M12.469 14c-.819 0-1.47.623-1.47 1.406v17.189c0 .783.648 1.407 1.47 1.407h23.063c.819 0 1.47-.624 1.47-1.407V15.406c0-.783-.648-1.406-1.47-1.406z" fill="#373737"/>
    <path d="M862.81 47.657l.002 114.53c0 2.233 1.525 4.03 3.415 4.03h13.66c1.89 0 3.415-1.801 3.415-4.03v-38.31h-3.913c-.986 0-1.79-.707-1.79-1.872l.002-74.35zM907.99 123.88h-3.977c-.99 0-1.805-.704-1.793-1.872v-74.35h-9.229l-.003 74.35c-.006 1.164-.805 1.872-1.793 1.872h-3.696v38.31c0 2.233 1.527 4.03 3.42 4.03h13.651c1.893 0 3.42-1.801 3.42-4.03zM942.4 47.657v74.35c0 1.166-.804 1.872-1.793 1.872h-3.727v38.31c0 2.233 1.527 4.03 3.42 4.03h13.651c1.893 0 3.42-1.801 3.42-4.03V47.659zM917.62 47.657v74.35c0 1.168-.802 1.872-1.79 1.872h-3.643l.004 38.31c.005 2.233 1.519 4.03 3.409 4.03h13.662c1.89 0 3.415-1.801 3.415-4.03v-38.31h-3.889c-.987 0-1.79-.706-1.79-1.872v-74.35zM792.42 47.657c-1.772 0-3.688 1.768-3.688 4v110.34c0 2.232 1.916 4.229 3.688 4.229h13.601c1.772 0 3.202-1.996 3.202-4.229v-38.12h-3.284c-.931 0-1.678-.732-1.678-1.904v-74.32zM833.91 123.88h-3.483c-.99 0-1.765-.704-1.765-1.872v-74.35h-9.864v74.32c0 1.172-.831 1.798-1.82 1.904h-3.559v38.31c0 2.233 1.527 4.03 3.42 4.03h13.651c1.893 0 3.42-1.801 3.42-4.03zM843.42 47.657v74.35c0 1.168-.803 1.872-1.793 1.872h-3.42l-.088 38.31c-.005 2.233 1.527 4.03 3.42 4.03h13.651c1.893 0 3.42-1.801 3.42-4.03.006-21.373 0-114.53 0-114.53z" fill="url(#c)" transform="matrix(.12452 0 0 .11808 -86.215 13.373)"/>
    <path d="M960.99 47.657v114.53c0 2.233 1.401 4.03 3.139 4.03h14.415c1.737 0 2.925-1.801 2.925-4.03V51.627c0-2.575-1.997-3.972-3.766-3.972z" fill="url(#d)" transform="matrix(.12452 0 0 .11808 -86.215 13.373)"/>
  </g>
</svg>
