<svg xmlns="http://www.w3.org/2000/svg" viewBox="0 0 48 48">
  <defs>
    <linearGradient id="a" y1="47" x2="0" y2="1" gradientUnits="userSpaceOnUse">
      <stop stop-color="#fdd06b"/>
      <stop offset="1" stop-color="#fdd67f"/>
    </linearGradient>
  </defs>
  <path d="M36.31 5c5.859 4.062 9.688 10.831 9.688 18.5 0 12.426-10.07 22.5-22.5 22.5-7.669 0-14.438-3.828-18.5-9.688a23.24 23.24 0 0 0 3.781 4.969 22.923 22.923 0 0 0 15.469 5.969c12.703 0 23-10.298 23-23a22.92 22.92 0 0 0-5.969-15.469A23.216 23.216 0 0 0 36.31 5zm4.969 3.781A22.911 22.911 0 0 1 47.498 24.5c0 12.703-10.297 23-23 23a22.909 22.909 0 0 1-15.719-6.219C12.939 45.425 18.662 48 24.998 48c12.703 0 23-10.298 23-23 0-6.335-2.575-12.06-6.719-16.219z" opacity=".05"/>
  <path d="M41.28 8.781a22.923 22.923 0 0 1 5.969 15.469c0 12.703-10.297 23-23 23A22.92 22.92 0 0 1 8.78 41.281 22.911 22.911 0 0 0 24.499 47.5c12.703 0 23-10.298 23-23A22.909 22.909 0 0 0 41.28 8.781z" opacity=".1"/>
  <path d="M31.25 2.375C39.865 5.529 46 13.792 46 23.505c0 12.426-10.07 22.5-22.5 22.5-9.708 0-17.971-6.135-21.12-14.75a23 23 0 0 0 44.875-7 23 23 0 0 0-16-21.875z" opacity=".2"/>
  <path d="M24 1c12.703 0 23 10.297 23 23S36.703 47 24 47 1 36.703 1 24 11.297 1 24 1z" fill="url(#a)"/>
  <path d="M26.16 11.125c4.08 3.285-4.632 3.03-4.594 5.5.015.798.245 1.175.531 1.469-4.067.413-7.094 2.038-7.094 2.906v12c0 1 5 3 9 3h1c4 0 9-2 9-3v-2c6 0 6-9 0-9v-1c0-.968-3.759-2.847-8.531-2.969-.275-1.988 3.999-2.201 3.844-3.531-.061-1.064-.342-2.15-3.156-3.375z" opacity=".1"/>
  <g>
    <path d="M40.03 7.531A22.922 22.922 0 0 1 45.999 23c0 12.703-10.297 23-23 23A22.92 22.92 0 0 1 7.53 40.031C11.708 44.322 17.54 47 23.999 47c12.703 0 23-10.298 23-23 0-6.462-2.677-12.291-6.969-16.469z" opacity=".1"/>
  </g>
  <g transform="translate(0 -1.005)">
    <path d="M23 18c-5 0-9 2-9 3v12c0 1 5 3 9 3h1c4 0 9-2 9-3v-2c6 0 6-9 0-9v-1c0-1-4-3-9-3z" fill="#855320"/>
    <path d="M22 19c-.494-.785-1.411-.759-1.441-2.388-.038-2.473 8.682-2.216 4.602-5.501 2.815 1.225 3.103 2.316 3.164 3.38.183 1.568-5.836 1.605-3.236 4.8z" fill="#a79c84"/>
    <path d="M23 19c-5 0-8 1.767-8 2.656v10.688C15 33.233 19.421 35 23 35h1c3.579 0 8-1.767 8-2.656V30c6 0 6-7 0-7v-1.344C32 20.767 29 19 24 19zm11 7.5c0 .969-.432 1.5-2 1.5v-3c1.559 0 2 .461 2 1.5z" fill="#ffffe1"/>
    <ellipse cx="23.5" cy="21.5" rx="6.5" ry="1.5" fill="#db430d"/>
  </g>
</svg>
