<svg xmlns="http://www.w3.org/2000/svg" viewBox="0 0 48 48">
  <defs>
    <linearGradient id="a" x1="1" x2="47" gradientUnits="userSpaceOnUse" gradientTransform="rotate(-90 24 24)">
      <stop stop-color="#3d3d3d"/>
      <stop offset="1" stop-color="#474747"/>
    </linearGradient>
  </defs>
  <path d="M36.31 5c5.859 4.062 9.688 10.831 9.688 18.5 0 12.426-10.07 22.5-22.5 22.5-7.669 0-14.438-3.828-18.5-9.688a23.24 23.24 0 0 0 3.781 4.969 22.923 22.923 0 0 0 15.469 5.969c12.703 0 23-10.298 23-23a22.92 22.92 0 0 0-5.969-15.469A23.216 23.216 0 0 0 36.31 5zm4.969 3.781A22.911 22.911 0 0 1 47.498 24.5c0 12.703-10.297 23-23 23a22.909 22.909 0 0 1-15.719-6.219C12.939 45.425 18.662 48 24.998 48c12.703 0 23-10.298 23-23 0-6.335-2.575-12.06-6.719-16.219z" opacity=".05"/>
  <path d="M41.28 8.781a22.923 22.923 0 0 1 5.969 15.469c0 12.703-10.297 23-23 23A22.92 22.92 0 0 1 8.78 41.281 22.911 22.911 0 0 0 24.499 47.5c12.703 0 23-10.298 23-23A22.909 22.909 0 0 0 41.28 8.781z" opacity=".1"/>
  <path d="M31.25 2.375C39.865 5.529 46 13.792 46 23.505c0 12.426-10.07 22.5-22.5 22.5-9.708 0-17.971-6.135-21.12-14.75a23 23 0 0 0 44.875-7 23 23 0 0 0-16-21.875z" opacity=".2"/>
  <path d="M24 1c12.703 0 23 10.297 23 23S36.703 47 24 47 1 36.703 1 24 11.297 1 24 1z" fill="url(#a)"/>
  <path d="M40.03 7.531A22.922 22.922 0 0 1 45.999 23c0 12.703-10.297 23-23 23A22.92 22.92 0 0 1 7.53 40.031C11.708 44.322 17.54 47 23.999 47c12.703 0 23-10.298 23-23 0-6.462-2.677-12.291-6.969-16.469z" opacity=".1"/>
  <g>
    <path d="M22.977 12.998C17.21 13.004 12.423 17.449 12 23.191a8.007 8.007 0 0 1 7.971-7.193c4.343 0 7.887 3.452 8.02 7.756a6.947 6.947 0 0 0-.768-.045c-3.758 0-6.807 2.973-6.807 6.645 0 3.672 3.049 6.646 6.807 6.646 3.762 0 6.809-2.974 6.809-6.646 0-.126-.012-.249-.02-.373l3.99-3.982h-4v-2c0-6.075-4.939-11-11.02-11m-3.164 4.09c-3.758 0-6.813 2.988-6.813 6.656 0 3.527 2.816 6.379 6.375 6.594 0-3.988 3.191-7.242 7.156-7.594-.492-3.199-3.309-5.656-6.719-5.656zm0 4.563c1.172 0 2.125.949 2.125 2.094s-.953 2.064-2.125 2.064c-1.172 0-2.125-.919-2.125-2.064s.953-2.094 2.125-2.094zm0 .439c-.941 0-1.719.736-1.719 1.654 0 .922.777 1.656 1.719 1.656.941 0 1.688-.734 1.688-1.656 0-.918-.745-1.654-1.688-1.654zm0 .625c.586 0 1.063.455 1.063 1.029 0 .574-.473 1.031-1.063 1.031-.586 0-1.064-.457-1.064-1.031 0-.574.478-1.029 1.064-1.029zm6.605 5.719l.332.332c-.709.199-1.229.827-1.229 1.588 0 .922.758 1.664 1.699 1.664.766 0 1.401-.492 1.617-1.168l.332.332a2.132 2.132 0 0 1-1.949 1.25c-1.172 0-2.125-.934-2.125-2.078 0-.868.547-1.611 1.322-1.92zm.803.881c.035 0 .064.016.098.02l.953.951c.002.024.014.044.014.068a1.05 1.05 0 0 1-1.064 1.039 1.053 1.053 0 0 1-1.064-1.039c0-.574.478-1.039 1.064-1.039z" opacity=".1"/>
  </g>
  <g>
    <path d="M18.813 16.088c-3.758 0-6.813 2.988-6.813 6.656 0 3.527 2.816 6.379 6.375 6.594 0-3.988 3.191-7.242 7.156-7.594-.492-3.199-3.309-5.656-6.719-5.656m0 4.563c1.172 0 2.125.949 2.125 2.094s-.953 2.063-2.125 2.063c-1.172 0-2.125-.918-2.125-2.063s.953-2.094 2.125-2.094m0 .438c-.941 0-1.719.738-1.719 1.656 0 .922.777 1.656 1.719 1.656.941 0 1.688-.734 1.688-1.656 0-.918-.746-1.656-1.688-1.656m0 .625c.586 0 1.063.457 1.063 1.031 0 .574-.473 1.031-1.063 1.031-.586 0-1.063-.457-1.063-1.031 0-.574.477-1.031 1.063-1.031m0 0" fill="#ff4d5b"/>
    <path d="M26.22 22.709c-3.758 0-6.805 2.973-6.805 6.645 0 3.672 3.047 6.645 6.805 6.645 3.762 0 6.809-2.973 6.809-6.645 0-3.672-3.047-6.645-6.809-6.645m0 4.57c1.176 0 2.129.93 2.129 2.074 0 1.145-.953 2.078-2.129 2.078-1.172 0-2.125-.934-2.125-2.078 0-1.145.953-2.074 2.125-2.074m0 .414c-.941 0-1.699.738-1.699 1.66 0 .922.758 1.664 1.699 1.664.945 0 1.703-.742 1.703-1.664 0-.922-.758-1.66-1.703-1.66m0 .621c.59 0 1.066.465 1.066 1.039 0 .574-.477 1.039-1.066 1.039a1.052 1.052 0 0 1-1.063-1.039c0-.574.477-1.039 1.063-1.039m0 0" fill="#4ca3e5"/>
    <path d="M27.92 22.926l.25 7.258 2.818 2.814 1.758-1.754c.182-.6.283-1.233.283-1.891 0-3.098-5.109-6.428-5.109-6.428z" fill-opacity=".098"/>
    <path d="M21.976 11.998c-5.767.006-10.553 4.451-10.976 10.193a8.008 8.008 0 0 1 7.972-7.193c4.425 0 8.03 3.582 8.03 8v2h-4.02l7.01 7 7.01-7h-4v-2c0-6.075-4.939-11-11.02-11" fill="#ea4cc5" fill-rule="evenodd"/>
  </g>
</svg>
