<svg version="1.1" viewBox="0 0 48 48" xmlns="http://www.w3.org/2000/svg">
 <defs>
  <linearGradient id="lG3764" x1="1" x2="47" gradientTransform="matrix(0,-1,1,0,0,48)" gradientUnits="userSpaceOnUse">
   <stop style="stop-color:#75ac40" offset="0"/>
   <stop style="stop-color:#7eba45" offset="1"/>
  </linearGradient>
  <linearGradient id="linear0" x2="0" y1="279" y2="268" gradientTransform="matrix(2.8 0 0 2.8 -333 -742)" gradientUnits="userSpaceOnUse">
   <stop style="stop-color:#c8c8c8" offset="0"/>
   <stop style="stop-color:#eaeaea" offset="1"/>
  </linearGradient>
 </defs>
 <path d="m36.3 5c5.86 4.06 9.69 10.8 9.69 18.5 0 12.4-10.1 22.5-22.5 22.5-7.67 0-14.4-3.83-18.5-9.69 1.04 1.82 2.31 3.5 3.78 4.97 4.08 3.71 9.51 5.97 15.5 5.97 12.7 0 23-10.3 23-23 0-5.95-2.26-11.4-5.97-15.5-1.47-1.48-3.15-2.74-4.97-3.78zm4.97 3.78c3.85 4.11 6.22 9.64 6.22 15.7 0 12.7-10.3 23-23 23-6.08 0-11.6-2.36-15.7-6.22 4.16 4.14 9.88 6.72 16.2 6.72 12.7 0 23-10.3 23-23 0-6.34-2.58-12.1-6.72-16.2z" style="opacity:.05"/>
 <path d="m41.3 8.78c3.71 4.08 5.97 9.51 5.97 15.5 0 12.7-10.3 23-23 23-5.95 0-11.4-2.26-15.5-5.97 4.11 3.85 9.64 6.22 15.7 6.22 12.7 0 23-10.3 23-23 0-6.08-2.36-11.6-6.22-15.7z" style="opacity:.1"/>
 <path d="m31.2 2.38c8.62 3.15 14.8 11.4 14.8 21.1 0 12.4-10.1 22.5-22.5 22.5-9.71 0-18-6.14-21.1-14.8a23 23 0 0 0 44.9-7 23 23 0 0 0-16-21.9z" style="opacity:.2"/>
 <path d="m24 1c12.7 0 23 10.3 23 23s-10.3 23-23 23-23-10.3-23-23 10.3-23 23-23z" style="fill:url(#lG3764)"/>
 <path d="m40 7.53c3.71 4.08 5.97 9.51 5.97 15.5 0 12.7-10.3 23-23 23-5.95 0-11.4-2.26-15.5-5.97 4.18 4.29 10 6.97 16.5 6.97 12.7 0 23-10.3 23-23 0-6.46-2.68-12.3-6.97-16.5z" style="opacity:.1"/>
 <path d="m25 10c-8.28 0-15 6.72-15 15 0 8.28 6.72 15 15 15 8.28 0 15-6.72 15-15 0-8.28-6.72-15-15-15zm0 12.9c1.18 0 2.14 0.939 2.14 2.14 0 1.19-0.955 2.14-2.14 2.14-1.2 0-2.14-0.965-2.14-2.14 0-1.19 0.948-2.14 2.14-2.14z" style="opacity:.1"/>
 <path d="m24 9c-8.28 0-15 6.72-15 15 0 8.28 6.72 15 15 15 8.28 0 15-6.72 15-15 0-8.28-6.72-15-15-15m0 12.9c1.18 0 2.14 0.939 2.14 2.14 0 1.19-0.955 2.14-2.14 2.14-1.2 0-2.14-0.965-2.14-2.14 0-1.19 0.948-2.14 2.14-2.14z" style="fill:url(#linear0)"/>
 <path d="m13.5 13.3c-2.42 2.4-4.45 6.12-4.45 10.7h10.7c0-1.45 0.671-2.55 1.33-3.21l-7.54-7.49zm21.1 0.104v0.0059l-7.56 7.56c0.363 0.363 0.672 0.799 0.887 1.27l9.73-4.45c-0.754-1.65-1.79-3.13-3.06-4.39zm-6.3 10.6c0 1.48-0.762 2.55-1.42 3.2l7.59 7.48c2.35-2.32 4.46-6.02 4.46-10.7zm6.17 10.7-2e-3 2e-3h0.0039zm-14.4-8.91-9.74 4.44c0.75 1.65 1.79 3.13 3.06 4.4l7.56-7.56c-0.359-0.363-0.67-0.801-0.881-1.27z" style="fill:#f9f9f9;opacity:.5"/>
 <path d="m9.54 20c-0.355 1.29-0.535 2.63-0.535 3.97h10.7c0-0.393 0.069-0.769 0.168-1.13l-10.4-2.84zm18.8 3.97c0 0.397-0.0709 0.774-0.172 1.14l10.3 2.86c0.355-1.3 0.535-2.65 0.535-4h-10.7z" style="fill:#999;opacity:.5"/>
 <path d="m24 9v10.7h0.00586c0.392 0 0.764 0.069 1.12 0.168l2.84-10.3c-1.29-0.355-2.63-0.535-3.97-0.535zm-1.13 19.1-2.84 10.4c1.29 0.355 2.63 0.533 3.97 0.533v-10.7c-0.393 0-0.768-0.0719-1.13-0.172z" style="fill:#ff8dff;opacity:.5"/>
 <path d="m24 19.7c-2.37 0-4.28 1.92-4.28 4.28s1.92 4.28 4.28 4.28 4.28-1.92 4.28-4.28-1.92-4.28-4.28-4.28zm-6e-3 2.14c1.18 0 2.14 0.939 2.14 2.14 0 1.19-0.955 2.14-2.14 2.14-1.2 0-2.14-0.965-2.14-2.14 0-1.19 0.948-2.14 2.14-2.14z" style="fill:#999;opacity:.5"/>
 <path d="m32.4 23-5.94 1.58v7.48l-2.5 1.93c0 1.1 0.895 2 2 2s2-0.895 2-2c0-0.015-4e-3 -0.03-4e-3 -0.045l4e-3 -6.48c1.89-1.35 3.36-1.67 5.5-1.17v4.77l-2.5 1.93c0 1.1 0.898 2 2 2 1.08 0 1.96-0.864 1.99-1.94h2e-3v-0.02c0-0.013 4e-3 -0.026 4e-3 -0.039s-4e-3 -0.026-4e-3 -0.039v-9.78c-0.951-0.086-1.79-0.15-2.56-0.17z" style="opacity:.1"/>
 <path d="m31.4 22c-2.3-0.0592-3.93 0.277-5.95 1.58v7.48c-0.159-0.0404-0.325-0.0625-0.496-0.0625-1.1 0-2 0.895-2 2s0.895 2 2 2 2-0.895 2-2c0-0.0289-0.0027-0.0574-0.00391-0.0859l0.00391-6.44c1.89-1.35 3.36-1.67 5.5-1.17v4.76c-0.16-0.0411-0.327-0.0625-0.5-0.0625-1.1 0-2 0.895-2 2s0.898 2 2 2c1.1 0 2-0.895 2-2 0-0.0429-0.00125-0.0848-0.00391-0.127v-9.7c-0.951-0.086-1.79-0.15-2.55-0.17z" style="fill:#525dc3"/>
</svg>
