<svg viewBox="0 0 48 48" xmlns="http://www.w3.org/2000/svg">
 <defs>
  <linearGradient id="linearGradient3764" x1="1" x2="47" gradientTransform="matrix(0 -1 1 0 -1.5e-6 48)" gradientUnits="userSpaceOnUse">
   <stop style="stop-color:#e4e4e4" offset="0"/>
   <stop style="stop-color:#eee" offset="1"/>
  </linearGradient>
 </defs>
 <path d="m36.31 5c5.859 4.062 9.688 10.831 9.688 18.5 0 12.426-10.07 22.5-22.5 22.5-7.669 0-14.438-3.828-18.5-9.688 1.037 1.822 2.306 3.499 3.781 4.969 4.085 3.712 9.514 5.969 15.469 5.969 12.703 0 23-10.298 23-23 0-5.954-2.256-11.384-5.969-15.469-1.469-1.475-3.147-2.744-4.969-3.781zm4.969 3.781c3.854 4.113 6.219 9.637 6.219 15.719 0 12.703-10.297 23-23 23-6.081 0-11.606-2.364-15.719-6.219 4.16 4.144 9.883 6.719 16.219 6.719 12.703 0 23-10.298 23-23 0-6.335-2.575-12.06-6.719-16.219z" style="opacity:.05"/>
 <path d="m41.28 8.781c3.712 4.085 5.969 9.514 5.969 15.469 0 12.703-10.297 23-23 23-5.954 0-11.384-2.256-15.469-5.969 4.113 3.854 9.637 6.219 15.719 6.219 12.703 0 23-10.298 23-23 0-6.081-2.364-11.606-6.219-15.719z" style="opacity:.1"/>
 <path d="m31.25 2.375c8.615 3.154 14.75 11.417 14.75 21.13 0 12.426-10.07 22.5-22.5 22.5-9.708 0-17.971-6.135-21.12-14.75a23 23 0 0 0 44.875-7 23 23 0 0 0-16-21.875z" style="opacity:.2"/>
 <path d="m24 1c12.703 0 23 10.297 23 23s-10.297 23-23 23-23-10.297-23-23 10.297-23 23-23z" style="fill:url(#linearGradient3764)"/>
 <g transform="translate(1,1)"></g>
 <path d="m40.03 7.531c3.712 4.084 5.969 9.514 5.969 15.469 0 12.703-10.297 23-23 23-5.954 0-11.384-2.256-15.469-5.969 4.178 4.291 10.01 6.969 16.469 6.969 12.703 0 23-10.298 23-23 0-6.462-2.677-12.291-6.969-16.469z" style="opacity:.1"/>
 <path d="m24.719 12-2.75 4.852-4.867-2.672c-0.121-0.066-0.272-0.022-0.338 0.1l-2.73 5c-0.066 0.122-0.021 0.272 0.1 0.338l4.709 2.586-5.836 10.172 10.15 5.625 5.768-10.264 4.979 2.734c0.121 0.066 0.272 0.022 0.338-0.1l2.729-5c0.066-0.122 0.023-0.273-0.098-0.34l-4.771-2.619 2.906-5.068m-10.11-3.773c0.414 0 0.75 0.336 0.75 0.75s-0.336 0.75-0.75 0.75-0.75-0.336-0.75-0.75 0.336-0.75 0.75-0.75zm-1.811 3.26c0.414 0 0.75 0.336 0.75 0.75 0 0.092-0.017 0.184-0.051 0.27l-1.303-0.715c0.141-0.192 0.365-0.305 0.604-0.305zm9.42 0.939c0.414 0 0.75 0.336 0.75 0.75s-0.336 0.75-0.75 0.75-0.75-0.336-0.75-0.75 0.336-0.75 0.75-0.75zm-1.83 3.311c0.414 0 0.75 0.336 0.75 0.75 0 0.067-9e-3 0.134-0.027 0.199l-1.279-0.701c0.142-0.158 0.344-0.248 0.557-0.248zm-12 3.301c0.414 0 0.75 0.336 0.75 0.75s-0.336 0.75-0.75 0.75-0.75-0.336-0.75-0.75 0.336-0.75 0.75-0.75zm-1.83 3.27c0.414 0 0.75 0.336 0.75 0.75s-0.336 0.75-0.75 0.75-0.75-0.336-0.75-0.75 0.336-0.75 0.75-0.75zm9.59 1.01c0.414 0 0.75 0.336 0.75 0.75s-0.336 0.75-0.75 0.75-0.75-0.336-0.75-0.75 0.336-0.75 0.75-0.75zm-11.59 2.391c0.414 0 0.75 0.336 0.75 0.75s-0.336 0.75-0.75 0.75-0.75-0.336-0.75-0.75 0.336-0.75 0.75-0.75zm9.801 0.949c0.414 0 0.75 0.336 0.75 0.75s-0.336 0.75-0.75 0.75c-0.36 0-0.67-0.257-0.736-0.611 0-5e-3 0-9e-3 -2e-3 -0.014-7e-3 -0.041-0.011-0.083-0.012-0.125 0-0.046 5e-3 -0.092 0.014-0.137 0-4e-3 0-8e-3 2e-3 -0.012 0.071-0.35 0.378-0.601 0.734-0.602zm-2 3.369c0.414 0 0.75 0.336 0.75 0.75s-0.336 0.75-0.75 0.75-0.75-0.336-0.75-0.75 0.336-0.75 0.75-0.75z" style="fill-rule:evenodd;opacity:.1"/>
 <path d="m21.621 20.2c-0.509 0.012-7.439 12.03-7.217 12.51l5.439 3.01c0.485-0.088 7.135-12.418 6.805-12.768z" style="fill-rule:evenodd;fill:#3b669d"/>
 <path d="m26.19 12.281c-2.599 2.495-3.175 4.309-3.779 6.559l5.063 2.691c1.632-1.827 3.162-3.754 3.75-6.625z" style="fill-rule:evenodd;fill:#3b669d"/>
 <path d="m31.22 14.906c-0.738 1.289-1.984 3.496-3.75 6.625l2.719 1.469 3.816-6.656-2.781-1.438h-4e-3zm0.289 1.863a0.75 0.75 0 0 1 0.75 0.75 0.75 0.75 0 0 1-0.75 0.75 0.75 0.75 0 0 1-0.75-0.75 0.75 0.75 0 0 1 0.75-0.75zm-1.83 3.311a0.75 0.75 0 0 1 0.75 0.75 0.75 0.75 0 0 1-0.75 0.75 0.75 0.75 0 0 1-0.75-0.75 0.75 0.75 0 0 1 0.75-0.75z" style="fill:#2f2f2f"/>
 <path d="m26.656 22.938-6.813 12.781 2.313 1.281 7.094-12.625-2.594-1.438m0.514 1.364a0.75 0.75 0 0 1 0.75 0.75 0.75 0.75 0 0 1-0.75 0.75 0.75 0.75 0 0 1-0.75-0.75 0.75 0.75 0 0 1 0.75-0.75zm-1.73 3.359a0.75 0.75 0 0 1 0.75 0.75 0.75 0.75 0 0 1-0.75 0.75 0.75 0.75 0 0 1-0.75-0.75 0.75 0.75 0 0 1 0.75-0.75zm-1.789 3.34a0.75 0.75 0 0 1 0.75 0.75 0.75 0.75 0 0 1-0.75 0.75 0.75 0.75 0 0 1-0.736-0.611c0-5e-3 0-9e-3 -2e-3 -0.014a0.75 0.75 0 0 1-0.012-0.125 0.75 0.75 0 0 1 0.014-0.137c0-4e-3 0-8e-3 2e-3 -0.012a0.75 0.75 0 0 1 0.734-0.602zm-2 3.369a0.75 0.75 0 0 1 0.75 0.75 0.75 0.75 0 0 1-0.75 0.75 0.75 0.75 0 0 1-0.75-0.75 0.75 0.75 0 0 1 0.75-0.75z" style="fill:#2f2f2f"/>
 <path d="m23.719 11-3.719 6.563 2.406 1.281 3.781-6.563-2.469-1.281zm0.182 1.57a0.75 0.75 0 0 1 0.75 0.75 0.75 0.75 0 0 1-0.75 0.75 0.75 0.75 0 0 1-0.75-0.75 0.75 0.75 0 0 1 0.75-0.75zm-1.811 3.26a0.75 0.75 0 0 1 0.75 0.75 0.75 0.75 0 0 1-0.75 0.75 0.75 0.75 0 0 1-0.75-0.75 0.75 0.75 0 0 1 0.75-0.75z" style="fill:#2f2f2f"/>
 <path d="m19.19 18.844 4e-3 2e-3v-2e-3h-4e-3zm4e-3 2e-3 -7.188 12.529 2.395 1.344 7.23-12.531-2.438-1.342zm0.287 1.414a0.75 0.75 0 0 1 0.75 0.75 0.75 0.75 0 0 1-0.75 0.75 0.75 0.75 0 0 1-0.75-0.75 0.75 0.75 0 0 1 0.75-0.75zm-1.801 3.121a0.75 0.75 0 0 1 0.75 0.75 0.75 0.75 0 0 1-0.75 0.75 0.75 0.75 0 0 1-0.75-0.75 0.75 0.75 0 0 1 0.75-0.75zm-1.83 3.27a0.75 0.75 0 0 1 0.75 0.75 0.75 0.75 0 0 1-0.75 0.75 0.75 0.75 0 0 1-0.75-0.75 0.75 0.75 0 0 1 0.75-0.75zm-2 3.4a0.75 0.75 0 0 1 0.75 0.75 0.75 0.75 0 0 1-0.75 0.75 0.75 0.75 0 0 1-0.75-0.75 0.75 0.75 0 0 1 0.75-0.75z" style="fill:#2f2f2f"/>
 <rect transform="matrix(.87661 .48121 -.47924 .87768 0 0)" x="20.2" y="3.805" width="23.05" height="6.196" rx=".249" ry=".25" style="fill-opacity:.667;fill-rule:evenodd;fill:#61171f"/>
</svg>
