<svg version="1.1" viewBox="0 0 48 48" xmlns="http://www.w3.org/2000/svg">
 <defs>
  <linearGradient id="bg" x1="1" x2="47" gradientTransform="matrix(0 -1 1 0 0 48)" gradientUnits="userSpaceOnUse">
   <stop style="stop-color:#495f46" offset="0"/>
   <stop style="stop-color:#516a4e" offset="1"/>
  </linearGradient>
  <radialGradient id="radialGradient4218" cx="25" cy="23" r="8" gradientTransform="translate(.001)" gradientUnits="userSpaceOnUse">
   <stop style="stop-color:#3ea614" offset="0"/>
   <stop style="stop-color:#82cd19" offset="1"/>
  </radialGradient>
 </defs>
 <path d="m36.3 5c5.86 4.06 9.69 10.8 9.69 18.5 0 12.4-10.1 22.5-22.5 22.5-7.67 0-14.4-3.83-18.5-9.69 1.04 1.82 2.31 3.5 3.78 4.97 4.08 3.71 9.51 5.97 15.5 5.97 12.7 0 23-10.3 23-23 0-5.95-2.26-11.4-5.97-15.5-1.47-1.48-3.15-2.74-4.97-3.78zm4.97 3.78c3.85 4.11 6.22 9.64 6.22 15.7 0 12.7-10.3 23-23 23-6.08 0-11.6-2.36-15.7-6.22 4.16 4.14 9.88 6.72 16.2 6.72 12.7 0 23-10.3 23-23 0-6.34-2.58-12.1-6.72-16.2z" style="opacity:.05"/>
 <path d="m41.3 8.78c3.71 4.08 5.97 9.51 5.97 15.5 0 12.7-10.3 23-23 23-5.95 0-11.4-2.26-15.5-5.97 4.11 3.85 9.64 6.22 15.7 6.22 12.7 0 23-10.3 23-23 0-6.08-2.36-11.6-6.22-15.7z" style="opacity:.1"/>
 <path d="m31.2 2.38c8.62 3.15 14.8 11.4 14.8 21.1 0 12.4-10.1 22.5-22.5 22.5-9.71 0-18-6.14-21.1-14.8a23 23 0 0 0 44.9-7 23 23 0 0 0-16-21.9z" style="opacity:.2"/>
 <path d="m24 1c12.7 0 23 10.3 23 23s-10.3 23-23 23-23-10.3-23-23 10.3-23 23-23z" style="fill:url(#bg)"/>
 <path d="m40 7.53c3.71 4.08 5.97 9.51 5.97 15.5 0 12.7-10.3 23-23 23-5.95 0-11.4-2.26-15.5-5.97 4.18 4.29 10 6.97 16.5 6.97 12.7 0 23-10.3 23-23 0-6.46-2.68-12.3-6.97-16.5z" style="opacity:.1"/>
 <path d="m17.2 21.5-4.19 1.06v2.6c0 0.102 0.083 0.188 0.189 0.219l3.88 0.938 0.906 2.28-2.22 3.72 1.81 1.81c0.078 0.078 0.218 0.086 0.313 0.031l3.5-2.12c0.66 0.383 1.37 0.695 2.12 0.906l0.813 3.91c0.023 0.109 0.109 0.188 0.219 0.188h2.6c0.109 0 0.195-0.081 0.219-0.188l0.969-3.88c0.801-0.211 1.54-0.5 2.25-0.906l3.41 2.19c0.094 0.059 0.203 0.047 0.281-0.031l0.469-0.469 1.19 1.19c0.047 0.047 0.148 0.047 0.191 0l0.875-0.875c0.043-0.047 0.043-0.109 0-0.156l-1.19-1.19 0.281-0.313c0.078-0.078 0.121-0.191 0.066-0.281l-2.16-3.5c0.234-0.422 0.453-0.883 0.625-1.34 8e-3 -0.031 0.012-0.066 0-0.094-0.016-0.031-0.063-0.055-0.094-0.063l-1.04-0.266c0.348-0.907 0.528-1.87 0.531-2.84 0-4.42-3.58-8-8-8z" style="fill-opacity:.098"/>
 <path d="m15 12c-0.031 0-0.0717 0.00825-0.0957 0.0312l-0.875 0.875c-0.047 0.047-0.047 0.14 0 0.188l1.22 1.22-0.346 0.344c-0.078 0.078-0.0883 0.188-0.0293 0.281l2.15 3.56c-0.363 0.621-0.637 1.28-0.844 1.97l-4 0.844c-0.109 0.023-0.188 0.109-0.188 0.219v2.61c0 0.102 0.0815 0.188 0.188 0.219l3.88 0.938c0.199 0.805 0.508 1.57 0.906 2.28l-2.25 3.41c-0.063 0.09-0.0468 0.226 0.0312 0.312l1.81 1.81c0.078 0.078 0.22 0.0862 0.314 0.0312l3.5-2.12c0.66 0.383 1.37 0.695 2.12 0.906l0.812 3.91c0.023 0.109 0.109 0.188 0.219 0.188h2.59c0.109 0 0.195-0.0815 0.219-0.188l0.969-3.88c0.801-0.211 1.54-0.5 2.25-0.906l3.41 2.19c0.094 0.059 0.203 0.0468 0.281-0.0312l0.469-0.469 1.19 1.19c0.047 0.047 0.148 0.047 0.191 0l0.875-0.875c0.043-0.047 0.043-0.109 0-0.156l-1.19-1.19 0.281-0.312c0.078-0.078 0.121-0.191 0.0664-0.281l-2.16-3.5c0.234-0.422 0.453-0.883 0.625-1.34 8e-3 -0.031 0.012-0.0658 0-0.0938-0.016-0.031-0.0628-0.0545-0.0938-0.0625l-1.1-0.281-10.2-10.1-0.25-1.16c-8e-3 -0.035-0.0354-0.0465-0.0664-0.0625-0.027-0.023-0.0588-0.02-0.0938 0-0.457 0.164-0.89 0.352-1.31 0.594-4e-3 -4e-3 8e-3 -0.0312 0-0.0312l-3.5-2.28c-0.094-0.063-0.23-0.0508-0.312 0.0312l-0.406 0.438-1.25-1.22c-0.023-0.023-0.0305-0.0312-0.0625-0.0312v-0.0137z" style="fill:#e6e6e6"/>
 <circle cx="25" cy="23" r="8" style="fill:url(#radialGradient4218)"/>
 <circle transform="rotate(270)" cx="-23" cy="25" r="5" style="fill:#e6e6e6"/>
 <path d="m27.4 20-6 1.5c-0.376 0.0945-0.506 0.563-0.232 0.838l4.5 4.5c0.275 0.274 0.743 0.144 0.838-0.232l1.5-6c0.0904-0.365-0.24-0.696-0.605-0.605z" style="fill:#555"/>
</svg>
