<svg xmlns="http://www.w3.org/2000/svg" viewBox="0 0 48 48">
  <defs>
    <linearGradient id="a" x1="1" x2="47" gradientUnits="userSpaceOnUse" gradientTransform="rotate(-90 24 24)">
      <stop stop-color="#3d3d3d"/>
      <stop offset="1" stop-color="#474747"/>
    </linearGradient>
    <radialGradient id="b" cx="25" cy="23" r="8" gradientUnits="userSpaceOnUse">
      <stop stop-color="#3ea614"/>
      <stop offset="1" stop-color="#82cd19"/>
    </radialGradient>
  </defs>
  <path d="M36.31 5c5.859 4.062 9.688 10.831 9.688 18.5 0 12.426-10.07 22.5-22.5 22.5-7.669 0-14.438-3.828-18.5-9.688a23.24 23.24 0 0 0 3.781 4.969 22.923 22.923 0 0 0 15.469 5.969c12.703 0 23-10.298 23-23a22.92 22.92 0 0 0-5.969-15.469A23.216 23.216 0 0 0 36.31 5zm4.969 3.781A22.911 22.911 0 0 1 47.498 24.5c0 12.703-10.297 23-23 23a22.909 22.909 0 0 1-15.719-6.219C12.939 45.425 18.662 48 24.998 48c12.703 0 23-10.298 23-23 0-6.335-2.575-12.06-6.719-16.219z" opacity=".05"/>
  <path d="M41.28 8.781a22.923 22.923 0 0 1 5.969 15.469c0 12.703-10.297 23-23 23A22.92 22.92 0 0 1 8.78 41.281 22.911 22.911 0 0 0 24.499 47.5c12.703 0 23-10.298 23-23A22.909 22.909 0 0 0 41.28 8.781z" opacity=".1"/>
  <path d="M31.25 2.375C39.865 5.529 46 13.792 46 23.505c0 12.426-10.07 22.5-22.5 22.5-9.708 0-17.971-6.135-21.12-14.75a23 23 0 0 0 44.875-7 23 23 0 0 0-16-21.875z" opacity=".2"/>
  <path d="M24 1c12.703 0 23 10.297 23 23S36.703 47 24 47 1 36.703 1 24 11.297 1 24 1z" fill="url(#a)"/>
  <g>
    <path d="M40.03 7.531A22.922 22.922 0 0 1 45.999 23c0 12.703-10.297 23-23 23A22.92 22.92 0 0 1 7.53 40.031C11.708 44.322 17.54 47 23.999 47c12.703 0 23-10.298 23-23 0-6.462-2.677-12.291-6.969-16.469z" opacity=".1"/>
  </g>
  <g transform="translate(.001)">
    <path d="M16 12.986c-.031 0-.07.008-.094.031l-.875.875c-.047.047-.047.14 0 .188l1.219 1.219-.344.344a.22.22 0 0 0-.031.281l2.156 3.564a8.96 8.96 0 0 0-.844 1.969l-4 .844c-.109.023-.189.109-.189.219v2.605c0 .102.083.188.189.219l3.875.938c.199.805.508 1.574.906 2.281l-2.25 3.406c-.063.09-.049.227.029.313l1.814 1.813c.078.078.218.086.313.031l3.5-2.125c.66.383 1.371.695 2.125.906l.813 3.906c.023.109.109.188.219.188h2.596c.109 0 .195-.081.219-.188l.969-3.875a9.12 9.12 0 0 0 2.25-.906l3.406 2.188a.219.219 0 0 0 .281-.031l.469-.469 1.188 1.189c.047.047.148.047.191 0l.875-.875a.11.11 0 0 0 0-.156l-1.191-1.189.281-.313c.078-.078.121-.191.066-.281l-2.156-3.5c.234-.422.453-.883.625-1.344a.15.15 0 0 0 0-.094c-.016-.031-.063-.055-.094-.063l-1.037-.266A8 8 0 0 0 34 23.986a8 8 0 0 0-8-8 8 8 0 0 0-2.793.508l-.201-.932c-.008-.035-.035-.046-.066-.063-.027-.023-.059-.02-.094 0a8.124 8.124 0 0 0-1.314.594c-.004-.004.008-.031 0-.031l-3.5-2.281a.254.254 0 0 0-.313.031l-.406.438-1.25-1.219C16.04 13.008 16.033 13 16 13v-.014z" fill-opacity=".098"/>
    <path d="M15 12c-.031 0-.07.008-.094.031l-.875.875a.143.143 0 0 0 0 .188l1.219 1.219-.344.344a.22.22 0 0 0-.031.281l2.156 3.563a8.96 8.96 0 0 0-.844 1.969l-4 .844c-.109.023-.188.109-.188.219v2.605c0 .102.082.188.188.219l3.875.938c.199.805.508 1.574.906 2.281l-2.25 3.406c-.063.09-.047.227.031.313l1.813 1.813c.078.078.219.086.313.031l3.5-2.125c.66.383 1.371.695 2.125.906l.813 3.906c.023.109.109.188.219.188h2.594c.109 0 .195-.082.219-.188l.969-3.875a9.12 9.12 0 0 0 2.25-.906l3.406 2.188a.219.219 0 0 0 .281-.031l.469-.469 1.188 1.188c.047.047.148.047.191 0l.875-.875a.11.11 0 0 0 0-.156l-1.191-1.188.281-.313c.078-.078.121-.191.066-.281l-2.156-3.5c.234-.422.453-.883.625-1.344a.15.15 0 0 0 0-.094c-.016-.031-.063-.055-.094-.063l-1.098-.281c-.004-.004-.023 0-.027 0a7.95 7.95 0 0 0 .5-2.719c0-4.316-3.516-7.844-7.848-7.844-.969 0-1.918.172-2.777.5.004-.023.004-.023 0-.031l-.25-1.156c-.008-.035-.035-.047-.066-.063-.027-.023-.059-.02-.094 0a8.113 8.113 0 0 0-1.313.594c-.004-.004.008-.031 0-.031l-3.5-2.281a.254.254 0 0 0-.313.031l-.406.438-1.25-1.219c-.023-.023-.031-.031-.063-.031" fill="#e6e6e6"/>
    <circle r="8" cy="23" cx="25" fill="url(#b)"/>
    <circle transform="rotate(-90)" r="5" cy="24.999" cx="-23" fill="#e6e6e6"/>
    <path d="M26.293 27.83l-6.124-6.124 8.365-2.242" fill="#4d4d4d"/>
  </g>
</svg>
