<svg xmlns="http://www.w3.org/2000/svg" viewBox="0 0 48 48">
  <defs>
    <linearGradient id="a" x1="1" x2="47" gradientUnits="userSpaceOnUse" gradientTransform="rotate(-90 24 24)">
      <stop stop-color="#48687c"/>
      <stop offset="1" stop-color="#4f7389"/>
    </linearGradient>
  </defs>
  <path d="M36.31 5c5.859 4.062 9.688 10.831 9.688 18.5 0 12.426-10.07 22.5-22.5 22.5-7.669 0-14.438-3.828-18.5-9.688a23.24 23.24 0 0 0 3.781 4.969 22.923 22.923 0 0 0 15.469 5.969c12.703 0 23-10.298 23-23a22.92 22.92 0 0 0-5.969-15.469A23.216 23.216 0 0 0 36.31 5zm4.969 3.781A22.911 22.911 0 0 1 47.498 24.5c0 12.703-10.297 23-23 23a22.909 22.909 0 0 1-15.719-6.219C12.939 45.425 18.662 48 24.998 48c12.703 0 23-10.298 23-23 0-6.335-2.575-12.06-6.719-16.219z" opacity=".05"/>
  <path d="M41.28 8.781a22.923 22.923 0 0 1 5.969 15.469c0 12.703-10.297 23-23 23A22.92 22.92 0 0 1 8.78 41.281 22.911 22.911 0 0 0 24.499 47.5c12.703 0 23-10.298 23-23A22.909 22.909 0 0 0 41.28 8.781z" opacity=".1"/>
  <path d="M31.25 2.375C39.865 5.529 46 13.792 46 23.505c0 12.426-10.07 22.5-22.5 22.5-9.708 0-17.971-6.135-21.12-14.75a23 23 0 0 0 44.875-7 23 23 0 0 0-16-21.875z" opacity=".2"/>
  <path d="M24 1c12.703 0 23 10.297 23 23S36.703 47 24 47 1 36.703 1 24 11.297 1 24 1z" fill="url(#a)"/>
  <path d="M26 16c-2.394 0-4.604.563-6.41 1.508-.896-.964-1.994-1.368-4.586-.508 0 .899.812 1.976 1.699 2.738C15.63 20.973 15 22.431 15 24c-1 0-2 .457-2 1 0 1.25 0 3 1.5 3 .589 0 1.268-.085 1.771-.273.877 1.207 2.164 2.23 3.729 2.973v1.184c0 2.816 3 2.816 3 .027v-.219a14.84 14.84 0 0 0 3 .309c.684 0 1.351-.052 2-.139v.021c0 2.816 3 2.816 3 .027v-.791c3.558-1.325 6-4.01 6-7.119 0-4.418-4.926-8-11-8z" opacity=".1"/>
  <g>
    <path d="M36 23c0 4.418-4.926 8-11 8s-11-3.582-11-8 4.926-8 11-8 11 3.582 11 8m0 0" fill="#ff9b76"/>
    <path d="M19 22c0 .551-.449 1-1 1-.551 0-1-.449-1-1 0-.551.449-1 1-1 .551 0 1 .449 1 1m0 0" fill="#d06237"/>
    <path d="M19 27v3.883c0 2.816 3 2.816 3 .027v-3.715M27 27v3.883c0 2.816 3 2.816 3 .027v-3.715M27 27" fill="#ff9b76"/>
    <path d="M21.711 17.824c2.84-1.09 4.734-1.09 7.578 0 .945.363.945 1.523 0 1.086-2.844-1.086-4.738-1.086-7.578 0-.945.391-.945-.699 0-1.086m0 0" fill="#d06237"/>
    <path d="M16 19c-.996-.758-1.996-2-1.996-3 3-.996 4-.301 5 1m-3 2M14 23c-1 0-2 .457-2 1 0 1.25 0 3 1.5 3 1.086 0 2.5-.27 2.5-1m-2-3" fill="#ff9b76"/>
  </g>
  <g>
    <path d="M40.03 7.531A22.922 22.922 0 0 1 45.999 23c0 12.703-10.297 23-23 23A22.92 22.92 0 0 1 7.53 40.031C11.708 44.322 17.54 47 23.999 47c12.703 0 23-10.298 23-23 0-6.462-2.677-12.291-6.969-16.469z" opacity=".1"/>
  </g>
</svg>
