<svg version="1.1" viewBox="0 0 48 48" xmlns="http://www.w3.org/2000/svg">
 <defs>
  <linearGradient id="lG3958" x2="0" y1="47" y2="1" gradientUnits="userSpaceOnUse">
   <stop style="stop-color:#7380cd" offset="0"/>
   <stop style="stop-color:#828dd2" offset="1"/>
  </linearGradient>
 </defs>
 <path d="m36.3 5c5.86 4.06 9.69 10.8 9.69 18.5 0 12.4-10.1 22.5-22.5 22.5-7.67 0-14.4-3.83-18.5-9.69 1.04 1.82 2.31 3.5 3.78 4.97 4.08 3.71 9.51 5.97 15.5 5.97 12.7 0 23-10.3 23-23 0-5.95-2.26-11.4-5.97-15.5-1.47-1.48-3.15-2.74-4.97-3.78zm4.97 3.78c3.85 4.11 6.22 9.64 6.22 15.7 0 12.7-10.3 23-23 23-6.08 0-11.6-2.36-15.7-6.22 4.16 4.14 9.88 6.72 16.2 6.72 12.7 0 23-10.3 23-23 0-6.34-2.58-12.1-6.72-16.2z" style="opacity:.05"/>
 <path d="m41.3 8.78c3.71 4.08 5.97 9.51 5.97 15.5 0 12.7-10.3 23-23 23-5.95 0-11.4-2.26-15.5-5.97 4.11 3.85 9.64 6.22 15.7 6.22 12.7 0 23-10.3 23-23 0-6.08-2.36-11.6-6.22-15.7z" style="opacity:.1"/>
 <path d="m31.2 2.38c8.62 3.15 14.8 11.4 14.8 21.1 0 12.4-10.1 22.5-22.5 22.5-9.71 0-18-6.14-21.1-14.8a23 23 0 0 0 44.9-7 23 23 0 0 0-16-21.9z" style="opacity:.2"/>
 <path d="m24 1c12.7 0 23 10.3 23 23s-10.3 23-23 23-23-10.3-23-23 10.3-23 23-23z" style="fill:url(#lG3958)"/>
 <path d="m40 7.53c3.71 4.08 5.97 9.51 5.97 15.5 0 12.7-10.3 23-23 23-5.95 0-11.4-2.26-15.5-5.97 4.18 4.29 10 6.97 16.5 6.97 12.7 0 23-10.3 23-23 0-6.46-2.68-12.3-6.97-16.5z" style="opacity:.1"/>
 <path d="m25 12-4.5 22.7c0 0.519 0.184 0.918 0.555 1.2 0.367 0.281 0.821 0.422 1.36 0.422 0.231 0.496 0.58 0.891 1.05 1.18 0.464 0.293 0.973 0.441 1.53 0.441 0.55 0 1.05-0.148 1.52-0.441 0.473-0.293 0.825-0.688 1.06-1.18 0.539 0 0.987-0.141 1.35-0.422 0.371-0.285 0.559-0.683 0.559-1.2 0-0.27-0.077-0.535-0.229-0.797 0.527-0.324 0.787-0.781 0.787-1.37 0-0.418-0.145-0.777-0.438-1.08 0.293-0.305 0.438-0.664 0.438-1.08 0-0.61-0.276-1.07-0.822-1.39h-0.051c0.012-1e-3 0.026-0.017 0.037-0.027 0.145-1.57 1.59-3.43 2.97-4.87 1.21-1.28 1.81-2.78 1.81-4.53 0-4.86-4.94-7.59-9-7.59z" style="opacity:.1"/>
 <path d="m24 11c-4.07 0-9 2.75-9 7.59 0 1.75 0.601 3.25 1.81 4.53 1.39 1.37 2.52 2.95 2.94 4.87l6.25 2 2.22-2c0.323-3.51 4.78-4.81 4.78-9.41 0-4.86-4.95-7.59-9-7.59" style="fill:#f2d473"/>
 <path d="m28.2 28c0.546 0.315 0.822 0.78 0.822 1.39 0 0.418-0.145 0.776-0.439 1.08 0.294 0.305 0.439 0.663 0.439 1.08 0 0.592-0.262 1.05-0.79 1.37 0.152 0.262 0.23 0.528 0.23 0.797 0 0.521-0.188 0.918-0.56 1.2-0.369 0.28-0.815 0.422-1.35 0.422-0.234 0.496-0.585 0.889-1.06 1.18-0.471 0.294-0.978 0.439-1.53 0.439-0.556 0-1.06-0.149-1.53-0.439-0.471-0.294-0.822-0.687-1.06-1.18-0.542 0-0.996-0.142-1.36-0.422-0.372-0.283-0.556-0.684-0.556-1.2 0-0.269 0.0709-0.535 0.227-0.797-0.528-0.322-0.794-0.78-0.794-1.37 0-0.418 0.149-0.776 0.439-1.08-0.298-0.305-0.439-0.663-0.439-1.08 0-0.609 0.276-1.07 0.829-1.39" style="fill:#ccc"/>
 <path d="m19 29c-0.0035 0.135-0.0644 0.256-0.0644 0.408 0 0.209 0.0213 0.415 0.0957 0.596h9.91c0.0744-0.181 0.125-0.387 0.125-0.596 0-0.152-0.029-0.274-0.0644-0.408zm0.0586 2c-0.0744 0.181-0.123 0.387-0.123 0.596 0 0.149 0.029 0.277 0.0644 0.408h10c0.0319-0.131 0.0644-0.259 0.0644-0.408 0-0.209-0.0541-0.415-0.125-0.596h-9.88zm0.629 2c-0.131 0.241-0.189 0.504-0.189 0.752 0 0.0886 0.0226 0.17 0.0332 0.252h8.94c0-0.0815 0.0312-0.163 0.0312-0.252 0-0.248-0.0599-0.507-0.188-0.752h-8.62z" style="fill:#e5e5e5"/>
</svg>
