<svg version="1.1" viewBox="0 0 48 48" xmlns="http://www.w3.org/2000/svg" xmlns:xlink="http://www.w3.org/1999/xlink">
 <defs>
  <linearGradient id="lG2485" x1="1" x2="47" gradientTransform="rotate(-90,24,24)" gradientUnits="userSpaceOnUse">
   <stop style="stop-color:#ffcf7f" offset="0"/>
   <stop style="stop-color:#ffd793" offset="1"/>
  </linearGradient>
 </defs>
 <path d="m36.3 5c5.86 4.06 9.69 10.8 9.69 18.5 0 12.4-10.1 22.5-22.5 22.5-7.67 0-14.4-3.83-18.5-9.69 1.04 1.82 2.31 3.5 3.78 4.97 4.08 3.71 9.51 5.97 15.5 5.97 12.7 0 23-10.3 23-23 0-5.95-2.26-11.4-5.97-15.5-1.47-1.48-3.15-2.74-4.97-3.78zm4.97 3.78c3.85 4.11 6.22 9.64 6.22 15.7 0 12.7-10.3 23-23 23-6.08 0-11.6-2.36-15.7-6.22 4.16 4.14 9.88 6.72 16.2 6.72 12.7 0 23-10.3 23-23 0-6.34-2.58-12.1-6.72-16.2z" style="opacity:.05"/>
 <path d="m41.3 8.78c3.71 4.08 5.97 9.51 5.97 15.5 0 12.7-10.3 23-23 23-5.95 0-11.4-2.26-15.5-5.97 4.11 3.85 9.64 6.22 15.7 6.22 12.7 0 23-10.3 23-23 0-6.08-2.36-11.6-6.22-15.7z" style="opacity:.1"/>
 <path d="m31.2 2.38c8.62 3.15 14.8 11.4 14.8 21.1 0 12.4-10.1 22.5-22.5 22.5-9.71 0-18-6.14-21.1-14.8a23 23 0 0 0 44.9-7 23 23 0 0 0-16-21.9z" style="opacity:.2"/>
 <path d="m1 24c0-12.7 10.3-23 23-23s23 10.3 23 23-10.3 23-23 23-23-10.3-23-23z" style="fill:url(#lG2485)"/>
 <path d="m40 7.53c3.71 4.08 5.97 9.51 5.97 15.5 0 12.7-10.3 23-23 23-5.95 0-11.4-2.26-15.5-5.97 4.18 4.29 10 6.97 16.5 6.97 12.7 0 23-10.3 23-23 0-6.46-2.68-12.3-6.97-16.5z" style="opacity:.1"/>
 <path d="m17.4 12c-0.286 0.0164-0.462 0.319-0.336 0.576 0.905 1.9 0.804 2.73 0.963 4.17 0.0283 0.251 0.279 0.413 0.52 0.336 1.42-0.455 2.07-0.739 3.07-0.842-0.671 0.626-1.09 1.45-1.09 2.41 0 2.47 1.12 3.12 2.9 3.29l-0.486 0.881-3.16-1.76c-0.0743-0.0401-0.158-0.0608-0.242-0.06h-3.21l-1.86-3.25c-0.091-0.165-0.267-0.265-0.455-0.258-0.379 0.014-0.605 0.428-0.412 0.754l2 3.5c0.089 0.156 0.255 0.252 0.434 0.252h3.37l3.24 1.8-0.115 1.2h-3.49c-0.0586-4.86e-4 -0.117 0.0093-0.172 0.029l-2.41 0.877-2.53-3.22c-0.0927-0.122-0.236-0.194-0.389-0.197-0.423-0.0059-0.662 0.484-0.396 0.814l2.75 3.5c0.133 0.17 0.36 0.235 0.563 0.162l2.67-0.971h3.49l0.193 0.826-4.45 1.71c-0.117 0.045-0.212 0.132-0.268 0.244l-2.45 4.9-2.41 1.93c-0.521 0.417 0.104 1.2 0.625 0.781l2.5-2c0.0567-0.0455 0.103-0.103 0.135-0.168l2.41-4.83 4.32-1.65-2.93 5.01c0 2.9 2.13 5.25 4.75 5.25s4.75-2.35 4.75-5.25c-0.0023-2.16-1.2-4.09-3.01-4.88v-2e-3c0.0252-0.0421 0.0499-0.0851 0.074-0.129l4.32 1.66 2.41 4.83c0.0322 0.0652 0.0783 0.122 0.135 0.168l2.5 2c0.521 0.417 1.15-0.364 0.625-0.781l-2.41-1.93-2.45-4.9c-0.0554-0.111-0.15-0.198-0.266-0.243l-4.46-1.71c0.0841-0.262 0.15-0.539 0.196-0.824h3.49l2.67 0.971c0.203 0.0736 0.431 0.0082 0.564-0.162l2.75-3.5c0.271-0.335 0.019-0.834-0.412-0.814-0.147 0.0074-0.284 0.0795-0.373 0.197l-2.53 3.22-2.41-0.877c-0.0546-0.0194-0.112-0.0292-0.17-0.029h-3.5c-9.15e-4 -0.406-0.0404-0.808-0.117-1.2l3.25-1.8h3.37c0.179-5.8e-5 0.345-0.0962 0.434-0.252l2-3.5c0.198-0.334-0.0437-0.756-0.432-0.755-0.181 5.57e-4 -0.348 0.0993-0.436 0.258l-1.86 3.25h-3.21c-0.0847 1.63e-4 -0.168 0.0218-0.242 0.063l-3.16 1.76c-0.135-0.331-0.3-0.629-0.489-0.883 1.78-0.169 2.89-0.819 2.89-3.29 0-0.964-0.42-1.79-1.09-2.41 1 0.102 1.65 0.387 3.07 0.842 0.241 0.0774 0.492-0.0849 0.52-0.336 0.159-1.44 0.058-2.26 0.963-4.17 0.137-0.277-0.0789-0.598-0.387-0.576-0.146 0.01-0.275 0.099-0.336 0.232-0.838 1.76-0.881 2.79-0.982 3.94-1.51-0.501-2.35-0.82-4.18-0.77-0.024-0.01-0.048-0.022-0.072-0.031v-1.87c0-0.277-0.223-0.5-0.5-0.5h-0.5v2.09h-2v-2.09h-0.5c-0.277 0-0.5 0.223-0.5 0.5v1.87c-0.025 0.01-0.049 0.021-0.074 0.031-1.83-0.05-2.67 0.269-4.18 0.77-0.101-1.15-0.144-2.17-0.982-3.94-0.0689-0.15-0.223-0.242-0.387-0.232z" style="opacity:.1"/>
 <path d="m16.4 11c-0.0521 0.0025-0.103 0.0151-0.15 0.0371-0.2 0.0949-0.284 0.334-0.189 0.533 0.905 1.9 0.804 2.73 0.963 4.17 0.0284 0.251 0.279 0.413 0.52 0.336 1.98-0.632 2.44-0.95 4.46-0.881 0.161 0.0058 0.301-0.086 0.369-0.221 0.046 0.0138 0.094 0.0215 0.145 0.0215 0.277 0 0.5-0.223 0.5-0.5v-2.5h-0.5c-0.277 0-0.5 0.223-0.5 0.5v1.9c-1.89-0.0631-2.72 0.263-4.26 0.771-0.101-1.15-0.145-2.17-0.982-3.94-0.0459-0.096-0.128-0.17-0.229-0.205-0.0495-0.0172-0.102-0.0245-0.154-0.0215zm15.2 0c-0.0523-3e-3 -0.105 0.0043-0.154 0.0215-0.1 0.0352-0.183 0.109-0.229 0.205-0.838 1.76-0.881 2.79-0.982 3.94-1.53-0.509-2.36-0.835-4.26-0.771v-1.9c0-0.277-0.223-0.5-0.5-0.5h-0.5v2.5c0 0.277 0.223 0.5 0.5 0.5 0.0506 0 0.0986-0.0076 0.145-0.0215 0.0683 0.135 0.208 0.226 0.369 0.221 2.03-0.0694 2.49 0.249 4.46 0.881 0.24 0.077 0.491-0.0851 0.52-0.336 0.159-1.44 0.058-2.26 0.963-4.17 0.095-0.2 0.0102-0.438-0.189-0.533-0.0472-0.022-0.0983-0.0347-0.15-0.0371zm-18.7 5.5c-0.0654 0.0084-0.128 0.0296-0.186 0.0625-0.239 0.137-0.322 0.442-0.186 0.682l2 3.5c0.0889 0.156 0.254 0.252 0.434 0.252h3.37l3.62 2.01v0.988h-3.99c-0.0579-1.47e-4 -0.115 0.0098-0.17 0.0293l-2.41 0.877-2.53-3.21c-0.0816-0.104-0.201-0.171-0.332-0.188-0.132-0.0159-0.265 0.0213-0.369 0.104-0.216 0.171-0.254 0.484-0.084 0.701l2.75 3.5c0.133 0.17 0.361 0.236 0.564 0.162l2.67-0.971h3.9v0.74l-4.67 1.79c-0.117 0.0451-0.212 0.132-0.268 0.244l-2.45 4.9-2.41 1.93c-0.216 0.173-0.251 0.487-0.0781 0.703 0.173 0.216 0.487 0.251 0.703 0.0781l2.5-2c0.0566-0.0455 0.103-0.103 0.135-0.168l2.41-4.83 5.82-2.23h0.635l5.82 2.23 2.41 4.83c0.0322 0.0651 0.0782 0.122 0.135 0.168l2.5 2c0.216 0.173 0.531 0.138 0.703-0.0781 0.173-0.216 0.138-0.531-0.0781-0.703l-2.41-1.93-2.45-4.9c-0.0556-0.112-0.151-0.199-0.268-0.244l-4.68-1.79v-0.738h3.91l2.67 0.971c0.203 0.0728 0.43 0.0075 0.562-0.162l2.75-3.5c0.17-0.217 0.132-0.531-0.084-0.701-0.104-0.0817-0.236-0.119-0.367-0.104-0.132 0.0157-0.252 0.0832-0.334 0.188l-2.53 3.21-2.41-0.877c-0.0545-0.0195-0.112-0.0294-0.17-0.0293h-4v-0.984l3.63-2.02h3.37c0.179-2.04e-4 0.345-0.0963 0.434-0.252l2-3.5c0.137-0.24 0.0537-0.544-0.186-0.682-0.0571-0.0329-0.12-0.0541-0.186-0.0625-0.2-0.025-0.396 0.0728-0.496 0.248l-1.86 3.25h-3.21c-0.0847-1.9e-5 -0.168 0.0215-0.242 0.0625l-3.49 1.94h-3.53l-3.49-1.94c-0.0741-0.041-0.157-0.0625-0.242-0.0625h-3.21l-1.86-3.25c-0.1-0.175-0.296-0.273-0.496-0.248z" style="fill:#df3420"/>
 <ellipse cx="24" cy="24" rx="2.5" ry="4" style="fill:#d65640"/>
 <ellipse cx="24" cy="31.8" rx="4.75" ry="5.25" style="fill:#c83f2b"/>
 <path d="m28.5 17.6c0 3.15-1.8 3.35-4.5 3.35s-4.5-0.2-4.5-3.35c0-2.15 2.01-3.65 4.5-3.65 2.48 0 4.5 1.5 4.5 3.65z" style="fill:#d6533e"/>
 <path d="m22 16a1 1 0 0 0-1 1 1 1 0 0 0 1 1 1 1 0 0 0 1-1 1 1 0 0 0-1-1zm4 0a1 1 0 0 0-1 1 1 1 0 0 0 1 1 1 1 0 0 0 1-1 1 1 0 0 0-1-1z" style="fill:#783737"/>
</svg>
