<svg version="1.1" viewBox="0 0 48 48" xmlns="http://www.w3.org/2000/svg">
 <defs>
  <linearGradient id="bg" x1="1" x2="47" gradientTransform="matrix(0 -1 1 0 0 48)" gradientUnits="userSpaceOnUse">
   <stop style="stop-color:#e4e4e4" offset="0"/>
   <stop style="stop-color:#eee" offset="1"/>
  </linearGradient>
 </defs>
 <path d="m36.3 5c5.86 4.06 9.69 10.8 9.69 18.5 0 12.4-10.1 22.5-22.5 22.5-7.67 0-14.4-3.83-18.5-9.69 1.04 1.82 2.31 3.5 3.78 4.97 4.08 3.71 9.51 5.97 15.5 5.97 12.7 0 23-10.3 23-23 0-5.95-2.26-11.4-5.97-15.5-1.47-1.48-3.15-2.74-4.97-3.78zm4.97 3.78c3.85 4.11 6.22 9.64 6.22 15.7 0 12.7-10.3 23-23 23-6.08 0-11.6-2.36-15.7-6.22 4.16 4.14 9.88 6.72 16.2 6.72 12.7 0 23-10.3 23-23 0-6.34-2.58-12.1-6.72-16.2z" style="opacity:.05"/>
 <path d="m41.3 8.78c3.71 4.08 5.97 9.51 5.97 15.5 0 12.7-10.3 23-23 23-5.95 0-11.4-2.26-15.5-5.97 4.11 3.85 9.64 6.22 15.7 6.22 12.7 0 23-10.3 23-23 0-6.08-2.36-11.6-6.22-15.7z" style="opacity:.1"/>
 <path d="m31.2 2.38c8.62 3.15 14.8 11.4 14.8 21.1 0 12.4-10.1 22.5-22.5 22.5-9.71 0-18-6.14-21.1-14.8a23 23 0 0 0 44.9-7 23 23 0 0 0-16-21.9z" style="opacity:.2"/>
 <path d="m24 1c12.7 0 23 10.3 23 23s-10.3 23-23 23-23-10.3-23-23 10.3-23 23-23z" style="fill:url(#bg)"/>
 <path d="m24 1v7h-7v-5.91c-0.337 0.108-0.67 0.221-1 0.344v5.56h-7v-1.44c-0.346 0.298-0.673 0.62-1 0.938v0.5h-0.5c-0.318 0.327-0.64 0.654-0.938 1h1.44v7h-5.56c-0.123 0.33-0.236 0.663-0.344 1h5.91v7h-7c0 0.334 0.017 0.669 0.031 1h6.97v7h-5.56c0.127 0.342 0.264 0.666 0.406 1h5.16v7h-0.5c0.481 0.496 0.976 0.986 1.5 1.44v-0.438h7v4.56c0.33 0.123 0.663 0.236 1 0.344v-4.91h7v6c0.334 0 0.669-0.017 1-0.031v-5.97h7v4.56c0.342-0.127 0.666-0.264 1-0.406v-4.16h6.5c0.522-0.476 1.02-0.978 1.5-1.5v-6.5h4.16c0.142-0.334 0.279-0.658 0.406-1h-4.56v-7h5.97c0.014-0.331 0.031-0.666 0.031-1h-6v-7h4.91c-0.108-0.337-0.221-0.67-0.344-1h-4.56v-7h0.438c-0.451-0.524-0.941-1.02-1.44-1.5v0.5h-7v-5.16c-0.334-0.142-0.658-0.279-1-0.406v5.56h-7v-6.97c-0.331-0.014-0.666-0.031-1-0.031zm-15 8h7v7h-7v-7zm8 0h7v7h-7v-7zm8 0h7v7h-7v-7zm8 0h7v7h-7v-7zm-24 8h7v7h-7v-7zm8 0h7v7h-7v-7zm8 0h7v7h-7v-7zm8 0h7v7h-7v-7zm-24 8h7v7h-7v-7zm8 0h7v7h-7v-7zm8 0h7v7h-7v-7zm8 0h7v7h-7v-7zm-24 8h7v7h-7v-7zm8 0h7v7h-7v-7zm8 0h7v7h-7v-7zm8 0h7v7h-7v-7z" style="fill:#a0dad0"/>
 <path d="m40 7.53c3.71 4.08 5.97 9.51 5.97 15.5 0 12.7-10.3 23-23 23-5.95 0-11.4-2.26-15.5-5.97 4.18 4.29 10 6.97 16.5 6.97 12.7 0 23-10.3 23-23 0-6.46-2.68-12.3-6.97-16.5z" style="opacity:.1"/>
 <path d="m17 14v13l4.02-2e-3c0.075 1.29 0.438 2.58 1.12 3.75 0.322 0.616 1.24 0.0868 0.865-0.5-0.589-1.02-0.898-2.13-0.973-3.25l7.97-2e-3v-7.96c1.12 0.075 2.23 0.382 3.25 0.971 2.94 1.7 4.37 5.16 3.49 8.44-0.879 3.28-3.85 5.56-7.24 5.56-0.17-0.0022-0.33 0.0826-0.424 0.225l-4.08-1.22-12 2e-3s-0.968 0.243-0.968 1.5c0 1.21 1.04 1.5 1.04 1.5h12l4.08-1.22c0.0942 0.142 0.254 0.226 0.424 0.223 3.84 0 7.21-2.59 8.21-6.3 0.249-0.928 0.334-1.87 0.27-2.79-0.194-2.76-1.73-5.33-4.23-6.77-1.17-0.678-2.46-1.04-3.75-1.12v-4.02zm1 1h11v3.02c-2.03 0.12-4 0.961-5.51 2.47-1.51 1.51-2.35 3.48-2.47 5.51h-3.02zm11 4.04v6.96h-6.96c0.119-1.76 0.837-3.48 2.16-4.8 1.32-1.32 3.04-2.04 4.8-2.16z" style="fill-opacity:.098"/>
 <path d="m16 13v13l4.02-0.00195c0.0749 1.29 0.444 2.58 1.12 3.75a0.5 0.5 0 0 0 0.682 0.184 0.5 0.5 0 0 0 0.184-0.684c-0.59-1.02-0.91-2.13-0.984-3.25l7.98-0.00195v-7.97c1.12 0.0749 2.23 0.394 3.25 0.982 2.94 1.7 4.37 5.15 3.49 8.44-0.879 3.28-3.85 5.56-7.24 5.56a0.5 0.5 0 0 0-0.5 0.5 0.5 0.5 0 0 0 0.5 0.5c3.84-1.38e-4 7.22-2.59 8.21-6.3 0.995-3.71-0.631-7.64-3.96-9.56-1.17-0.678-2.46-1.05-3.75-1.12v-4.02h-13zm1 1h11v3.02c-0.204 0.0121-0.407 0.03-0.609 0.0566-1.81 0.238-3.54 1.06-4.9 2.42-1.51 1.51-2.35 3.48-2.47 5.5h-3.02v-11zm11 4.02v6.97h-6.98c0.12-1.76 0.857-3.48 2.18-4.8 1.32-1.32 3.04-2.06 4.8-2.18z" style="fill:#555"/>
 <path d="m12 32s-0.965 0.243-0.965 1.5c0 1.21 1.04 1.5 1.04 1.5h12c0.548-1 0.481-2 0-3" style="fill:#4c61ae"/>
 <path d="m24 35 2.5-0.749c0.252-0.487 0.254-0.82 0-1.5l-2.5-0.749" style="fill:#e8d3a3"/>
 <path d="m26.5 34.2 2.5-0.751-2.5-0.748" style="fill:#555"/>
</svg>
