<svg viewBox="0 0 48 48" xmlns="http://www.w3.org/2000/svg">
 <defs>
  <linearGradient id="linearGradient3904" x2="0" y1="1" y2="47" gradientUnits="userSpaceOnUse">
   <stop style="stop-color:#00e66d" offset="0"/>
   <stop style="stop-color:#00d263" offset="1"/>
  </linearGradient>
 </defs>
 <path d="m36.31 5c5.859 4.062 9.688 10.831 9.688 18.5 0 12.426-10.07 22.5-22.5 22.5-7.669 0-14.438-3.828-18.5-9.688 1.037 1.822 2.306 3.499 3.781 4.969 4.085 3.712 9.514 5.969 15.469 5.969 12.703 0 23-10.298 23-23 0-5.954-2.256-11.384-5.969-15.469-1.469-1.475-3.147-2.744-4.969-3.781zm4.969 3.781c3.854 4.113 6.219 9.637 6.219 15.719 0 12.703-10.297 23-23 23-6.081 0-11.606-2.364-15.719-6.219 4.16 4.144 9.883 6.719 16.219 6.719 12.703 0 23-10.298 23-23 0-6.335-2.575-12.06-6.719-16.219z" style="opacity:.05"/>
 <path d="m41.28 8.781c3.712 4.085 5.969 9.514 5.969 15.469 0 12.703-10.297 23-23 23-5.954 0-11.384-2.256-15.469-5.969 4.113 3.854 9.637 6.219 15.719 6.219 12.703 0 23-10.298 23-23 0-6.081-2.364-11.606-6.219-15.719z" style="opacity:.1"/>
 <path d="m31.25 2.375c8.615 3.154 14.75 11.417 14.75 21.13 0 12.426-10.07 22.5-22.5 22.5-9.708 0-17.971-6.135-21.12-14.75a23 23 0 0 0 44.875-7 23 23 0 0 0-16-21.875z" style="opacity:.2"/>
 <path d="m24 1c12.703 0 23 10.297 23 23s-10.297 23-23 23-23-10.297-23-23 10.297-23 23-23z" style="fill:url(#linearGradient3904)"/>
 <g style="opacity:.1">
  <path d="m20 13v12.201l-4.293-4.1c-4.391 4.385-4.992 10.838-1.24 14.488 3.211 3.124 8.517 3.132 12.801 0.41h6.732v-23h-14z"/>
 </g>
 <path d="m40.03 7.531c3.712 4.084 5.969 9.514 5.969 15.469 0 12.703-10.297 23-23 23-5.954 0-11.384-2.256-15.469-5.969 4.178 4.291 10.01 6.969 16.469 6.969 12.703 0 23-10.298 23-23 0-6.462-2.677-12.291-6.969-16.469z" style="opacity:.1"/>
 <rect x="19" y="12" width="14" height="23" rx="0" style="fill:#d7f4ee"/>
 <rect x="20" y="16" width="12" height="17" style="fill:#ffd92a"/>
 <path d="m31.5 13v10l-1-10z" style="fill:#f0fbf8"/>
 <g transform="matrix(.87969 0 0 .85598 3.0785 3.6121)">
  <path transform="matrix(.72738 .72738 -.72738 .72738 29.634 -5.9246)" d="m26.989 28.399c0 6.863-4.608 12.427-10.292 12.427-5.621 0-10.203-5.446-10.291-12.233" style="fill:#df5;stroke-width:.75;stroke:#8a0"/>
  <path d="m18.327 25.635-6.523 2.796 0.932-4.287z" style="fill:#f6ffd5"/>
  <path d="m19.445 27.25-7.393 2.92 0.994 3.355z" style="fill:#f6ffd5"/>
  <path d="m20.936 28.741-6.461 5.964 3.417 1.056z" style="fill:#f6ffd5"/>
  <path d="m22.308 29.616-2.796 6.523 4.307-0.875z" style="fill:#f6ffd5"/>
 </g>
</svg>
