<svg version="1.1" viewBox="0 0 48 48" xmlns="http://www.w3.org/2000/svg">
	<defs>
		<linearGradient id="bg" gradientUnits="userSpaceOnUse" x1="0" x2="0" y1="1" y2="47">
			<stop offset="0" stop-color="#eee"/>
			<stop offset="1" stop-color="#e4e4e4"/>
		</linearGradient>
	</defs>
	<path opacity=".05" d="m36.31 5c5.859 4.062 9.688 10.831 9.688 18.5c0 12.426-10.07 22.5-22.5 22.5c -7.669 0-14.438-3.828-18.5-9.688c1.037 1.822 2.306 3.499 3.781 4.969c4.085 3.712 9.514 5.969 15.469 5.969c12.703 0 23-10.298 23-23c0-5.954-2.256-11.384-5.969-15.469c -1.469-1.475-3.147-2.744-4.969-3.781z m4.969 3.781c3.854 4.113 6.219 9.637 6.219 15.719c0 12.703-10.297 23-23 23c -6.081 0-11.606-2.364-15.719-6.219c4.16 4.144 9.883 6.719 16.219 6.719c12.703 0 23-10.298 23-23c0-6.335-2.575-12.06-6.719-16.219z"/>
	<path opacity=".1" d="m41.28 8.781c3.712 4.085 5.969 9.514 5.969 15.469c0 12.703-10.297 23-23 23c -5.954 0-11.384-2.256-15.469-5.969c4.113 3.854 9.637 6.219 15.719 6.219c12.703 0 23-10.298 23-23c0-6.081-2.364-11.606-6.219-15.719z"/>
	<path opacity=".2" d="m31.25 2.375c8.615 3.154 14.75 11.417 14.75 21.13c0 12.426-10.07 22.5-22.5 22.5c -9.708 0-17.971-6.135-21.12-14.75a23 23 0 0 0 44.875-7a23 23 0 0 0-16-21.875z"/>
	<path d="m2.0910976997933552 17a23 23 0 1 0 43.8178046004133 0 22 2 0 0 0-43.8178046004133 0z" fill="url(#bg)"/>
	<path d="m1.7963966888254816 18a23 23 0 0 0 .2947010109678736-1 22 2 0 0 1 43.8178046004133 0 23 23 0 0 0 .2947010109678736 1z" opacity=".1"/>
	<path d="m2.0910976997933552 17a23 23 0 0 1 43.8178046004133 0z" fill="#d64936"/>
	<path opacity=".1" d="m40.03 7.531c3.712 4.084 5.969 9.514 5.969 15.469 0 12.703-10.297 23-23 23c -5.954 0-11.384-2.256-15.469-5.969 4.178 4.291 10.01 6.969 16.469 6.969c12.703 0 23-10.298 23-23 0-6.462-2.677-12.291-6.969-16.469z"/>
	<circle cx="14" cy="12" r="2" fill="#7f2c20"/>
	<circle cx="19" cy="12" r="2" fill="#7f2c20"/>
	<rect x="13" y="11" width="7" height="2" rx="1" fill="#dcdcdc"/>
	<circle cx="29" cy="12" r="2" fill="#7f2c20"/>
	<circle cx="34" cy="12" r="2" fill="#7f2c20"/>
	<rect x="28" y="11" width="7" height="2" rx="1" fill="#dcdcdc"/>
	<path d="m19 22h12a2 2 0 0 1 2 2h1a2 2 0 0 1 2 2v2a2 2 0 0 1-2 2h -1a4 4 0 0 1-4 4h -1a1 1 0 0 0-1 1v2a1 1 0 0 0 1 1h1a1 1 0 0 1 1 1v1h -10v -1a1 1 0 0 1 1-1h1a1 1 0 0 0 1-1v -2a1 1 0 0 0-1-1h -1a4 4 0 0 1-4-4h -1a2 2 0 0 1-2-2v -2a2 2 0 0 1 2-2h1a2 2 0 0 1 2-2z m -2 3h -1a1 1 0 0 0-1 1v2a1 1 0 0 0 1 1h1z m16 0v4h1a1 1 0 0 0 1-1v -2a1 1 0 0 0-1-1z" opacity=".1"/>
	<path d="m18 21h12a2 2 0 0 1 2 2h1a2 2 0 0 1 2 2v2a2 2 0 0 1-2 2h -1a4 4 0 0 1-4 4h -1a1 1 0 0 0-1 1v2a1 1 0 0 0 1 1h1a1 1 0 0 1 1 1v1h -10v -1a1 1 0 0 1 1-1h1a1 1 0 0 0 1-1v -2a1 1 0 0 0-1-1h -1a4 4 0 0 1-4-4h -1a2 2 0 0 1-2-2v -2a2 2 0 0 1 2-2h1a2 2 0 0 1 2-2z m -2 3h -1a1 1 0 0 0-1 1v2a1 1 0 0 0 1 1h1z m16 0v4h1a1 1 0 0 0 1-1v -2a1 1 0 0 0-1-1z" fill="#e6c619"/>
	<g fill="#e08f24">
		<circle cx="19" cy="26" r="2"/>
		<rect x="22" y="23" width="4" height="6" rx="2"/>
		<circle cx="29" cy="26" r="2"/>
		<rect x="19" y="30" width="10" height="1" rx=".5"/>
	</g>
</svg>
