<svg version="1.1" viewBox="0 0 48 48" xmlns="http://www.w3.org/2000/svg" xmlns:xlink="http://www.w3.org/1999/xlink">
 <defs>
  <linearGradient id="bg" x1="1" x2="47" gradientTransform="matrix(0 -1 1 0 0 48)" gradientUnits="userSpaceOnUse">
   <stop style="stop-color:#3aa0b2" offset="0"/>
   <stop style="stop-color:#40acc1" offset="1"/>
  </linearGradient>
 </defs>
 <path d="m36.3 5c5.86 4.06 9.69 10.8 9.69 18.5 0 12.4-10.1 22.5-22.5 22.5-7.67 0-14.4-3.83-18.5-9.69 1.04 1.82 2.31 3.5 3.78 4.97 4.08 3.71 9.51 5.97 15.5 5.97 12.7 0 23-10.3 23-23 0-5.95-2.26-11.4-5.97-15.5-1.47-1.48-3.15-2.74-4.97-3.78zm4.97 3.78c3.85 4.11 6.22 9.64 6.22 15.7 0 12.7-10.3 23-23 23-6.08 0-11.6-2.36-15.7-6.22 4.16 4.14 9.88 6.72 16.2 6.72 12.7 0 23-10.3 23-23 0-6.34-2.58-12.1-6.72-16.2z" style="opacity:.05"/>
 <path d="m41.3 8.78c3.71 4.08 5.97 9.51 5.97 15.5 0 12.7-10.3 23-23 23-5.95 0-11.4-2.26-15.5-5.97 4.11 3.85 9.64 6.22 15.7 6.22 12.7 0 23-10.3 23-23 0-6.08-2.36-11.6-6.22-15.7z" style="opacity:.1"/>
 <path d="m31.2 2.38c8.62 3.15 14.8 11.4 14.8 21.1 0 12.4-10.1 22.5-22.5 22.5-9.71 0-18-6.14-21.1-14.8a23 23 0 0 0 44.9-7 23 23 0 0 0-16-21.9z" style="opacity:.2"/>
 <path d="m24 1c12.7 0 23 10.3 23 23s-10.3 23-23 23-23-10.3-23-23 10.3-23 23-23z" style="fill:url(#bg)"/>
 <path d="m14 13.8v22.4c0 0.98 0.801 1.78 1.78 1.78h20.4c0.984 0 1.78-0.801 1.78-1.78v-18.2l-6-6" style="opacity:.1"/>
 <use transform="translate(1,1)" width="100%" height="100%" style="opacity:.1" xlink:href="#SVGCleanerId_0"/>
 <path d="m14.8 11c-0.98 0-1.78 0.801-1.78 1.78v22.4c0 0.98 0.801 1.78 1.78 1.78h20.4c0.984 0 1.78-0.801 1.78-1.78v-18.2l-6-6" style="fill:#ecf2f2"/>
 <path id="SVGCleanerId_0" d="m37 17h-6l6 6" style="fill-opacity:.2"/>
 <path d="m16.4 14c-0.195 0-0.355 0.16-0.355 0.355v1.29c0 0.196 0.16 0.352 0.355 0.352h15.3v-2zm0 6c-0.195 0-0.355 0.157-0.355 0.352v1.29c0 0.199 0.16 0.355 0.355 0.355h15.3c0.195 0 0.355-0.156 0.355-0.355v-1.29c0-0.196-0.16-0.352-0.355-0.352zm0 6c-0.195 0-0.355 0.16-0.355 0.355v1.29c0 0.195 0.16 0.354 0.355 0.354h15.3c0.195 0 0.355-0.159 0.355-0.354v-1.29c0-0.195-0.16-0.355-0.355-0.355zm0 6c-0.195 0-0.355 0.16-0.355 0.355v1.29c0 0.195 0.16 0.354 0.355 0.354h15.3c0.195 0 0.355-0.159 0.355-0.354v-1.29c0-0.195-0.16-0.355-0.355-0.355z" style="fill:#6baaea"/>
 <path d="m37 17h-6v-6" style="fill:#f9f9f9"/>
 <path d="m40 7.53c3.71 4.08 5.97 9.51 5.97 15.5 0 12.7-10.3 23-23 23-5.95 0-11.4-2.26-15.5-5.97 4.18 4.29 10 6.97 16.5 6.97 12.7 0 23-10.3 23-23 0-6.46-2.68-12.3-6.97-16.5z" style="opacity:.1"/>
</svg>
