<svg xmlns="http://www.w3.org/2000/svg" viewBox="0 0 48 48">
  <defs>
    <linearGradient id="a" y1="1" x2="0" y2="47" gradientUnits="userSpaceOnUse">
      <stop stop-color="#cdcf7b"/>
      <stop offset="1" stop-color="#c7ca6c"/>
    </linearGradient>
  </defs>
  <path d="M36.31 5c5.859 4.062 9.688 10.831 9.688 18.5 0 12.426-10.07 22.5-22.5 22.5-7.669 0-14.438-3.828-18.5-9.688a23.24 23.24 0 0 0 3.781 4.969 22.923 22.923 0 0 0 15.469 5.969c12.703 0 23-10.298 23-23a22.92 22.92 0 0 0-5.969-15.469A23.216 23.216 0 0 0 36.31 5zm4.969 3.781A22.911 22.911 0 0 1 47.498 24.5c0 12.703-10.297 23-23 23a22.909 22.909 0 0 1-15.719-6.219C12.939 45.425 18.662 48 24.998 48c12.703 0 23-10.298 23-23 0-6.335-2.575-12.06-6.719-16.219z" opacity=".05"/>
  <path d="M41.28 8.781a22.923 22.923 0 0 1 5.969 15.469c0 12.703-10.297 23-23 23A22.92 22.92 0 0 1 8.78 41.281 22.911 22.911 0 0 0 24.499 47.5c12.703 0 23-10.298 23-23A22.909 22.909 0 0 0 41.28 8.781z" opacity=".1"/>
  <path d="M31.25 2.375C39.865 5.529 46 13.792 46 23.505c0 12.426-10.07 22.5-22.5 22.5-9.708 0-17.971-6.135-21.12-14.75a23 23 0 0 0 44.875-7 23 23 0 0 0-16-21.875z" opacity=".2"/>
  <path d="M24 1c12.703 0 23 10.297 23 23S36.703 47 24 47 1 36.703 1 24 11.297 1 24 1z" fill="url(#a)"/>
  <path d="M40.03 7.531A22.922 22.922 0 0 1 45.999 23c0 12.703-10.297 23-23 23A22.92 22.92 0 0 1 7.53 40.031C11.708 44.322 17.54 47 23.999 47c12.703 0 23-10.298 23-23 0-6.462-2.677-12.291-6.969-16.469z" opacity=".1"/>
  <g>
    <path d="M12 14.003v21h11l1 1h2l1-1h11v-21H27l-1 1h-2l-1-1" fill-rule="evenodd" opacity=".1"/>
  </g>
  <g>
    <g fill-rule="evenodd">
      <path d="M11 29v1h11l1 1H11v1h11l1 1h2l1-1h11v-1H25l1-1h11v-1z" fill="#c8bc9d"/>
      <path d="M23 34l-1-1H11v1h11l1 1h2l1-1h11v-1H26l-1 1" fill="#984108"/>
      <path d="M37 13H26l-1 1h-2l-1-1H11v16h11l1 1h2l1-1h11" fill="#f8efd8"/>
      <path d="M22 13v17h4V13l-1 1h-2" fill="#c8bc9d" fill-opacity=".471"/>
      <path d="M11 32v1h11l1 1h2l1-1h11v-1H26l-1 1h-2l-1-1H11z" fill="#f8efd8"/>
      <path d="M23 14v16h2V14" fill="#c8bc9d" fill-opacity=".688"/>
      <path d="M11 30v1h11l1 1h2l1-1h11v-1H26l-1 1h-2l-1-1H11z" fill="#f8efd8"/>
      <path d="M19 18c-2.197 0-4 1.803-4 4s1.803 4 4 4a4.017 4.017 0 0 0 3.875-3h12.13v-2h-1v-2h-1l-1 2-1-2h-1v2H22.88a4.016 4.016 0 0 0-3.875-3m0 2c1.117 0 2 .883 2 2s-.883 2-2 2-2-.883-2-2 .883-2 2-2z" fill-opacity=".116"/>
      <path d="M18 17c-2.197 0-4 1.803-4 4s1.803 4 4 4a4.017 4.017 0 0 0 3.875-3h12.13v-2h-1v-2h-1l-1 2-1-2h-1v2H21.88a4.016 4.016 0 0 0-3.875-3m0 2c1.117 0 2 .883 2 2s-.883 2-2 2-2-.883-2-2 .883-2 2-2z" fill="gray"/>
    </g>
  </g>
</svg>
