<svg viewBox="0 0 48 48" xmlns="http://www.w3.org/2000/svg">
  <defs>
    <linearGradient id="a" x1="1" x2="47" gradientTransform="rotate(-90 24 24)" gradientUnits="userSpaceOnUse">
      <stop offset="0" stop-color="#e4e4e4"/>
      <stop offset="1" stop-color="#eee"/>
    </linearGradient>
    <linearGradient id="d" x2="0" y1="47" y2="1" gradientTransform="translate(-1.044 -1.043) scale(1.0435)" gradientUnits="userSpaceOnUse">
      <stop offset="0" stop-color="#e8e8e8"/>
      <stop offset="1" stop-color="#f2f2f2"/>
    </linearGradient>
    <radialGradient id="c" cx="23.8" cy="23.8" r="12.5" gradientUnits="userSpaceOnUse">
      <stop offset="0"/>
      <stop offset="1" stop-opacity="0"/>
    </radialGradient>
    <linearGradient id="b" x2="0" y1="47" y2="1" gradientUnits="userSpaceOnUse">
      <stop offset="0" stop-color="#ed4964"/>
      <stop offset="1" stop-color="#ef5b74"/>
    </linearGradient>
  </defs>
  <path d="M36.31 5c5.859 4.062 9.688 10.831 9.688 18.5 0 12.426-10.07 22.5-22.5 22.5-7.669 0-14.438-3.828-18.5-9.688a23.24 23.24 0 0 0 3.781 4.969 22.923 22.923 0 0 0 15.469 5.969c12.703 0 23-10.298 23-23a22.92 22.92 0 0 0-5.969-15.469A23.216 23.216 0 0 0 36.31 5zm4.969 3.781A22.911 22.911 0 0 1 47.498 24.5c0 12.703-10.297 23-23 23a22.909 22.909 0 0 1-15.719-6.219C12.939 45.425 18.662 48 24.998 48c12.703 0 23-10.298 23-23 0-6.335-2.575-12.06-6.719-16.219z" opacity=".05"/>
  <path d="M41.28 8.781a22.923 22.923 0 0 1 5.969 15.469c0 12.703-10.297 23-23 23A22.92 22.92 0 0 1 8.78 41.281 22.911 22.911 0 0 0 24.499 47.5c12.703 0 23-10.298 23-23A22.909 22.909 0 0 0 41.28 8.781z" opacity=".1"/>
  <path d="M31.25 2.375C39.865 5.529 46 13.792 46 23.505c0 12.426-10.07 22.5-22.5 22.5-9.708 0-17.971-6.135-21.12-14.75a23 23 0 0 0 44.875-7 23 23 0 0 0-16-21.875z" opacity=".2"/>
  <path d="M28.412 1.428l.002.004-10.934.512a23.002 23.002 0 0 0-10.627 6.73l-5.395 10.74A23.13 23.13 0 0 0 .999 24c0 2.525.412 4.953 1.164 7.227l6.326 9.756a22.928 22.928 0 0 0 11.09 5.588l-.004-.004 11.271-.604-.002.002a23.006 23.006 0 0 0 10.355-6.701l-.004-.002 5.297-10.479.006.006C46.825 27.244 47 25.643 47 24c0-2.536-.416-4.973-1.174-7.254l-.01.01-6.697-10.07h.002l.008-.002a22.919 22.919 0 0 0-10.717-5.256z" fill="url(#a)"/>
  <path d="M24 1l-5.877 14.184a11.998 11.998 0 0 0-3.443 3.719c-3.126-2.267-7.125-7.508-7.07-11.03-.407.414-.799.843-1.174 1.287l-4.822 9.588c.734 3.042 6.267 6.464 10.115 7.426.457.114.916.204 1.375.297a12.001 12.001 0 0 0 1.465 4.428c-3.195 1.433-8.857 2.266-12.146 1.061A23.02 23.02 0 0 0 9.698 42c3.486-.351 7.935-3.02 9.699-4.9.322-.344.628-.703.936-1.061 1.459.617 3.03.939 4.611.947l-.939 10.01c2.949 0 5.765-.561 8.355-1.572.709-2.892.586-6.86-.127-9.52-.1-.374-.221-.738-.334-1.105 1.424-1 2.614-2.299 3.486-3.805 2.247 1.627 4.943 4.784 6.27 7.744a22.924 22.924 0 0 0 4.887-10.125c-2.276-2.389-6.01-4.378-8.205-4.889a33.615 33.615 0 0 0-1.439-.291 11.996 11.996 0 0 0-1.49-4.402c2.761-1.233 7.361-2.02 10.688-1.439a22.978 22.978 0 0 0-5.887-9.916l-10.615 6.246a11.998 11.998 0 0 0-4.514-.914c.34-3.56 2.394-9.04 4.992-11.197a23.037 23.037 0 0 0-6.07-.814" fill-opacity=".098"/>
  <path d="M24 1c-2.265 0-4.452.333-6.52.943-1.486 3.16-1.427 8.6-.701 11.148.709 2.492 1.71 4.884 2.74 7.248-1.774-.426-3.462-1.019-5.02-1.896-2.727-1.575-6.597-6.103-7.637-9.783A22.929 22.929 0 0 0 1.45 19.431c1.856 2.524 6.122 4.957 9.27 5.744 2.536.634 5.102.907 7.652 1.127-1.178 1.216-2.459 2.3-3.924 3.166-2.73 1.58-8.601 2.668-12.307 1.721a23.013 23.013 0 0 0 6.371 9.826c3.51-.278 8.08-2.998 9.869-4.914 1.794-1.917 3.341-4.057 4.85-6.209.456 1.689.749 3.384.764 5.105 0 3.174-1.891 8.855-4.42 11.57a23.067 23.067 0 0 0 11.27-.605c1.243-2.845 1.23-7.882.379-11.05-.691-2.578-1.701-4.995-2.746-7.371 1.777.417 3.479 1.01 5.072 1.908 2.736 1.576 6.62 6.127 7.646 9.813a22.938 22.938 0 0 0 5.297-10.479c-2.01-2.887-6.62-5.463-9.166-6.06-2.537-.59-5.144-.862-7.742-1.092 1.192-1.225 2.473-2.309 3.916-3.16 2.733-1.578 8.611-2.666 12.316-1.715a23.009 23.009 0 0 0-6.695-10.07h-.002c-3.108.37-7.312 2.832-9.553 5.148-1.834 1.897-3.366 4-4.844 6.121-.431-1.62-.708-3.261-.725-4.953-.003-3.174 1.887-8.855 4.416-11.57a23.067 23.067 0 0 0-4.42-.43V.998z" fill="url(#b)"/>
  <g>
    <path d="M40.03 7.531A22.922 22.922 0 0 1 45.999 23c0 12.703-10.297 23-23 23A22.92 22.92 0 0 1 7.53 40.031C11.708 44.322 17.54 47 23.999 47c12.703 0 23-10.298 23-23 0-6.462-2.677-12.291-6.969-16.469z" opacity=".1"/>
  </g>
  <g>
    <path d="M13.98 29.716a12.009 12.009 0 0 0 5.03 5.68c3.461-3.979 4.87-8.304 4.987-.396 0 .568-.075 1.229-.189 1.928a11.997 11.997 0 0 0 7.488-1.723c-.024-.098-.045-.202-.07-.297-1.326-5.264-5.548-9.83 2.326-5.457.594.342 1.244.833 1.906 1.416A11.967 11.967 0 0 0 36.997 25a11.942 11.942 0 0 0-.254-2.391c-4.944-1.089-10.184.022-3.232-4.137.339-.196.738-.381 1.164-.559-1.609-2.191-6.537-4.48-6.537-4.48-6.754 5.782-8.01 11.999-14.158 16.283z" fill-opacity=".098" fill-rule="evenodd"/>
    <path d="M36.3 23.8a12.5 12.5 0 0 1-25 0 12.5 12.5 0 1 1 25 0z" fill="url(#c)"/>
    <path d="M36 24a12 12 0 0 1-24 0 12 12 0 1 1 24 0z" fill="url(#d)"/>
    <path d="M31.674 25.466l-9.963 6.432c-.39.25-.711.035-.711-.591V18.706c0-.716.312-.837.711-.591l9.963 6.432c.444.287.425.643 0 .919z" opacity=".1"/>
    <path d="M30.674 24.466l-9.963 6.432c-.39.25-.711.035-.711-.591V17.706c0-.716.312-.837.711-.591l9.963 6.432c.444.287.425.643 0 .919z" fill="#ee526c"/>
  </g>
</svg>
