<svg viewBox="0 0 48 48" xmlns="http://www.w3.org/2000/svg">
  <defs>
    <linearGradient id="a" x1="1" x2="47" gradientTransform="rotate(-90 24 24)" gradientUnits="userSpaceOnUse">
      <stop offset="0" stop-color="#3d3d3d"/>
      <stop offset="1" stop-color="#474747"/>
    </linearGradient>
  </defs>
  <path d="M36.31 5c5.859 4.062 9.688 10.831 9.688 18.5 0 12.426-10.07 22.5-22.5 22.5-7.669 0-14.438-3.828-18.5-9.688a23.24 23.24 0 0 0 3.781 4.969 22.923 22.923 0 0 0 15.469 5.969c12.703 0 23-10.298 23-23a22.92 22.92 0 0 0-5.969-15.469A23.216 23.216 0 0 0 36.31 5zm4.969 3.781A22.911 22.911 0 0 1 47.498 24.5c0 12.703-10.297 23-23 23a22.909 22.909 0 0 1-15.719-6.219C12.939 45.425 18.662 48 24.998 48c12.703 0 23-10.298 23-23 0-6.335-2.575-12.06-6.719-16.219z" opacity=".05"/>
  <path d="M41.28 8.781a22.923 22.923 0 0 1 5.969 15.469c0 12.703-10.297 23-23 23A22.92 22.92 0 0 1 8.78 41.281 22.911 22.911 0 0 0 24.499 47.5c12.703 0 23-10.298 23-23A22.909 22.909 0 0 0 41.28 8.781z" opacity=".1"/>
  <path d="M31.25 2.375C39.865 5.529 46 13.792 46 23.505c0 12.426-10.07 22.5-22.5 22.5-9.708 0-17.971-6.135-21.12-14.75a23 23 0 0 0 44.875-7 23 23 0 0 0-16-21.875z" opacity=".2"/>
  <path d="M24 1c12.703 0 23 10.297 23 23S36.703 47 24 47 1 36.703 1 24 11.297 1 24 1z" fill="url(#a)"/>
  <path d="M40.03 7.531A22.922 22.922 0 0 1 45.999 23c0 12.703-10.297 23-23 23A22.92 22.92 0 0 1 7.53 40.031C11.708 44.322 17.54 47 23.999 47c12.703 0 23-10.298 23-23 0-6.462-2.677-12.291-6.969-16.469z" opacity=".1"/>
  <path d="M16 13c-2.216 0-4 .892-4 2v10c0 1.108 1.784 2 4 2h7v12h5V27h6c2.216 0 4-.892 4-2V15c0-1.108-1.784-2-4-2z" opacity=".1"/>
  <rect x="11" y="12" width="26" height="14" rx="4" ry="2" fill="#ea5656"/>
  <rect x="22" y="17" width="5" height="21" rx="0" ry="1" fill="#ea5656"/>
  <path d="M13.5 14.5v10h2V19l1.5 3.5h1l1.5-3.5v5.5h1.999v-10h-2l-2 5-2-5zm11.499 0l-3 10h1.9l.6-2h3l.6 2h1.9l-3-10h-2zm4.5 0v2h2v8h2v-8h2v-2zm-3.5 2.5l1.03 3.5h-2L26 17z" opacity=".1"/>
  <path d="M13 14v10h2v-5.5l1.5 3.5h1l1.5-3.5V24h1.999V14h-2l-2 5-2-5zm11.499 0l-3 10h1.9l.6-2h3l.6 2h1.9l-3-10h-2zm4.5 0v2h2v8h2v-8h2v-2zm-3.5 2.5l1.03 3.5h-2l.97-3.5z" fill="#f9f9f9"/>
</svg>
