<svg xmlns="http://www.w3.org/2000/svg" viewBox="0 0 48 48">
  <defs>
    <linearGradient id="a" x1="1" x2="47" gradientUnits="userSpaceOnUse" gradientTransform="rotate(-90 24 24)">
      <stop stop-color="#ac3c3c"/>
      <stop offset="1" stop-color="#bc4142"/>
    </linearGradient>
  </defs>
  <path d="M36.31 5c5.859 4.062 9.688 10.831 9.688 18.5 0 12.426-10.07 22.5-22.5 22.5-7.669 0-14.438-3.828-18.5-9.688a23.24 23.24 0 0 0 3.781 4.969 22.923 22.923 0 0 0 15.469 5.969c12.703 0 23-10.298 23-23a22.92 22.92 0 0 0-5.969-15.469A23.216 23.216 0 0 0 36.31 5zm4.969 3.781A22.911 22.911 0 0 1 47.498 24.5c0 12.703-10.297 23-23 23a22.909 22.909 0 0 1-15.719-6.219C12.939 45.425 18.662 48 24.998 48c12.703 0 23-10.298 23-23 0-6.335-2.575-12.06-6.719-16.219z" opacity=".05"/>
  <path d="M41.28 8.781a22.923 22.923 0 0 1 5.969 15.469c0 12.703-10.297 23-23 23A22.92 22.92 0 0 1 8.78 41.281 22.911 22.911 0 0 0 24.499 47.5c12.703 0 23-10.298 23-23A22.909 22.909 0 0 0 41.28 8.781z" opacity=".1"/>
  <path d="M31.25 2.375C39.865 5.529 46 13.792 46 23.505c0 12.426-10.07 22.5-22.5 22.5-9.708 0-17.971-6.135-21.12-14.75a23 23 0 0 0 44.875-7 23 23 0 0 0-16-21.875z" opacity=".2"/>
  <path d="M24 1c12.703 0 23 10.297 23 23S36.703 47 24 47 1 36.703 1 24 11.297 1 24 1z" fill="url(#a)"/>
  <g fill-rule="evenodd" opacity=".1">
    <path d="M31.996 14.309c1.996 1.297 3.188 3.113 2.98 4.379l-8.145-5.301c-.023-.016-.051-.027-.078-.047 1.09-.691 3.242-.332 5.242.969m0 0M33.77 18.5l-.52-.336c-.559-.367-1.309-.219-1.668.324l-7.09 10.711a1.187 1.187 0 0 0 .363 1.648l.52.336c.559.367 1.309.219 1.668-.324l7.09-10.711a1.187 1.187 0 0 0-.363-1.648m0 0M30.859 16.605l-.52-.336c-.559-.367-1.309-.219-1.668.328l-7.09 10.707a1.187 1.187 0 0 0 .363 1.648l.52.34c.559.363 1.309.219 1.668-.328l7.09-10.711c.359-.543.199-1.281-.363-1.648m0 0M27.949 14.715l-.52-.34c-.559-.363-1.309-.219-1.668.328l-7.09 10.711c-.359.543-.199 1.281.363 1.648l.52.336c.559.363 1.309.219 1.668-.328l7.09-10.707a1.187 1.187 0 0 0-.363-1.648m0 0M26.06 32.31l-8.301-5.402-.738 10.09 9.04-4.688"/>
  </g>
  <g>
    <g fill="#f9f9f9" fill-rule="evenodd">
      <path d="M30.996 13.309c1.996 1.297 3.188 3.113 2.98 4.379l-8.145-5.301c-.023-.016-.051-.027-.078-.047 1.09-.691 3.242-.332 5.242.969m0 0M32.77 17.5l-.52-.336c-.559-.367-1.309-.219-1.668.324l-7.09 10.711a1.187 1.187 0 0 0 .363 1.648l.52.336c.559.367 1.309.219 1.668-.324l7.09-10.711a1.187 1.187 0 0 0-.363-1.648m0 0M29.859 15.605l-.52-.336c-.559-.367-1.309-.219-1.668.328l-7.09 10.707a1.187 1.187 0 0 0 .363 1.648l.52.34c.559.363 1.309.219 1.668-.328l7.09-10.711c.359-.543.199-1.281-.363-1.648m0 0M26.949 13.715l-.52-.34c-.559-.363-1.309-.219-1.668.328l-7.09 10.711c-.359.543-.199 1.281.363 1.648l.52.336c.559.363 1.309.219 1.668-.328l7.09-10.707a1.187 1.187 0 0 0-.363-1.648m0 0M25.06 31.31l-8.301-5.402-.738 10.09 9.04-4.688"/>
    </g>
  </g>
  <g>
    <path d="M40.03 7.531A22.922 22.922 0 0 1 45.999 23c0 12.703-10.297 23-23 23A22.92 22.92 0 0 1 7.53 40.031C11.708 44.322 17.54 47 23.999 47c12.703 0 23-10.298 23-23 0-6.462-2.677-12.291-6.969-16.469z" opacity=".1"/>
  </g>
</svg>
