<svg version="1.1" viewBox="0 0 48 48" xmlns="http://www.w3.org/2000/svg">
 <defs>
  <linearGradient id="bg" x2="0" y1="1" y2="47" gradientUnits="userSpaceOnUse">
   <stop stop-color="#394560" offset="0"/>
   <stop stop-color="#323c53" offset="1"/>
  </linearGradient>
 </defs>
 <path d="m36.31 5c5.859 4.062 9.688 10.83 9.688 18.5 0 12.43-10.07 22.5-22.5 22.5-7.669 0-14.44-3.828-18.5-9.688 1.037 1.822 2.306 3.499 3.781 4.969 4.085 3.712 9.514 5.969 15.47 5.969 12.7 0 23-10.3 23-23 0-5.954-2.256-11.38-5.969-15.47-1.469-1.475-3.147-2.744-4.969-3.781zm4.969 3.781c3.854 4.113 6.219 9.637 6.219 15.72 0 12.7-10.3 23-23 23-6.081 0-11.61-2.364-15.72-6.219 4.16 4.144 9.883 6.719 16.22 6.719 12.7 0 23-10.3 23-23 0-6.335-2.575-12.06-6.719-16.22z" opacity=".05"/>
 <path d="m41.28 8.781c3.712 4.085 5.969 9.514 5.969 15.47 0 12.7-10.3 23-23 23-5.954 0-11.38-2.256-15.47-5.969 4.113 3.854 9.637 6.219 15.72 6.219 12.7 0 23-10.3 23-23 0-6.081-2.364-11.61-6.219-15.72z" opacity=".1"/>
 <path d="m31.25 2.375c8.615 3.154 14.75 11.42 14.75 21.13 0 12.43-10.07 22.5-22.5 22.5-9.708 0-17.97-6.135-21.12-14.75a23 23 0 0 0 44.88-7 23 23 0 0 0-16-21.88z" opacity=".2"/>
 <circle cx="24" cy="24" r="23" fill="url(#bg)"/>
 <path d="m40.03 7.531c3.712 4.084 5.969 9.514 5.969 15.47 0 12.7-10.3 23-23 23-5.954 0-11.38-2.256-15.47-5.969 4.178 4.291 10.01 6.969 16.47 6.969 12.7 0 23-10.3 23-23 0-6.462-2.677-12.29-6.969-16.47z" opacity=".1"/>
 <path id="shadow" d="m21 9c-3 0-6 2-6 5 0 2 1.4 3 2.4 3 0.8 0 1.6-0.4 1.6-1-0.4 0.4-0.9 0.5-1.4 0.5-1 0-1.85-1-1.85-2.5 0-2 2.25-3 4.25-3 0.9287 0 1.855 0.3853 2.428 1.033-0.8475 0.7073-1.428 1.659-1.428 2.467 0 1 0.5 1.5 1.5 1.5 0.5 0 1.5 0.5 1.5 1 0 1-1 1.5-2 2-3 1.5-7 3.925-7 10a11 11 0 0 0 11 11 11 11 0 0 0 11-11c0-5-3-9-6-9 2.5 1.666 3.609 3.335 3.91 5.58-0.9198-0.9037-2.222-1.811-3.11-2.58-0.4-0.8-1.1-2.5-2.5-2.5-0.4 0-0.7 0-1.3-0.2-0.3-0.1-0.3-0.4-0.2-1 0.1207-0.7244 0.2794-1.229 0.5391-1.516 0.3542 0.1354 0.7369 0.2156 1.161 0.2156 0.666-1.5 0.666-4.5 0-6-0.1-0.25-0.5-0.4-0.8-0.5-0.6-0.2-1.7-0.5-3.7-0.5-1-1-2-2-4-2zm2 14.7c0 0.631 0.6225 1.7 0.8848 2.861-1.172-0.04095-2.392-0.2157-2.885-0.5605 0.25-0.5 1.5-1.3 2-2.3zm7.984 1.657c0.5504 0.3849 0.9908 0.9426 1.516 0.9426-0.3246 0.1955-1.381 0.2804-2.154 0.2508-0.01294-0.1247-0.02705-0.2443-0.0457-0.3508 0.3481-0.1745 0.6188-0.4982 0.6844-0.8426zm3.949 2.662c-0.3126 2.481-1.744 4.829-3.934 6.068-0.5-0.5879-1.1-0.8879-1.3-1.788 0.1-0.4 0.4-1.2 0.1-1.3 0.3556-0.7097 0.5344-1.838 0.5809-2.891 1.936 0.1606 3.31 0.3907 4.553-0.08984zm-11 0.2539c-0.06927 0.2957-0.1981 0.5367-0.4297 0.8266-0.2 0.2-0.8 0.9-1.1 1.4s-0.4 1.2-0.4 1.926c-0.9637-1.129-1.614-2.53-1.873-3.998 1.134 0.05327 2.472-0.04032 3.803-0.1543z" opacity=".1"/>
 <path id="body-bot" d="m22.5 28.1c-0.2 0.2-0.8 0.9-1.1 1.4s-0.4 1.2-0.4 1.928c0 1.572 2 3.572 4 3.572s5-1 5-1.912c-0.5-0.5883-1.1-0.8883-1.3-1.788 0.1-0.4 0.4-1.2 0.1-1.3z" fill="#96d9c3"/>
 <path id="neck" d="m25 15-1 4c-1 1 0 2 1.5 2s2.1-1.5 1.5-1.7c-0.3-0.1-0.3-0.4-0.2-1 0.2-1.2 0.5-1.8 1.2-1.8z" fill="#dcc9a3"/>
 <path id="head" d="m28.5 17c0.666-1.5 0.666-4.5 0-6-0.1-0.25-0.5-0.4-0.8-0.5l-2.7 0.5v4c1 1 2 2 3.5 2z" fill="#e3d4b5"/>
 <path id="hair" d="m24 10c-2 0-4 2-4 3.5 0 1 0.5 1.5 1.5 1.5 0.5 0 1.5 0.5 1.5 1l2-3c1.6 0 2.699-2 2.699-2.5-0.6-0.2-1.699-0.5-3.699-0.5z" fill="#79a7be"/>
 <path id="moon-top" d="m26 14.5c0-1.5-1-3.5-2-4.5s-2-2-4-2c-3 0-6 2-6 5 0 2 1.4 3 2.4 3 0.8 0 1.6-0.4 1.6-1-0.4 0.4-0.9 0.5-1.4 0.5-1 0-1.85-1-1.85-2.5 0-2 2.25-3 4.25-3 1.5 0 3 1 3 2.5-0.5 0.5-0.5 1.5 0 2s1 0.5 1 1.5-1 1.5-2 2l2 1c1-1 3-3 3-4.5z" fill="#8fbfd1"/>
 <path id="moon-mid" d="m26 14.5c0 1.5-3 3.5-5 3.5-3 1.5-7 3.925-7 10l5-2c0-4 3-5 5-7 1-1 2-3 2-4.5z" fill="#a8d6e1"/>
 <path id="moon-low" d="m32.55 36a11 11 0 0 1-7.55 3 11 11 0 0 1-11-11c2-3.5 5-4 5-2 0 4 3 8 7.5 8z" fill="#c3e8ee"/>
 <path id="moon-end" d="m34 26c0-3-1-5-4-7 3 0 6 4 6 9a11 11 0 0 1-3.45 8c-1.55 0-4.55 0-6.05-2 4.5 0 7.5-4 7.5-8z" fill="#e2f7f8"/>
 <path id="r-up-arm" d="m28 22 1 2c1.1 0 1.7 1.3 2.5 1.3l3.5 1.1c0-1.4-2.7-3.1-4.2-4.4-0.4-0.8-1.1-2.5-2.5-2.5z" fill="#dcc9a3"/>
 <path id="l-up-arm" d="m22 19.25 2 0.75v2l-2 0.7c-0.5 1-1.75 1.8-2 2.3l-3 2c0-1 1-3.5 2.1-4.5 0.4-1 1.05-3.25 2.9-3.25" fill="#dcc9a3"/>
 <path id="body" d="m27 19.3c0 1.3-3 1.3-3-0.3-0.5 0.25-1.5 0.25-2 0.25 1 0.75 1 2.75 0 3.45 0 0.8 1 2.3 1 3.8 0 0.75-0.1 1.1-0.5 1.6 2.5 2 5.7 3.1 6.3 1.9s0.7-3.6 0.5-4.8c0.4-0.2 0.7-0.6 0.7-1 0-1-0.8-1.9-1-2.2-0.3-0.45-0.25-1.7-0.7-2.5-0.4 0-0.7 0-1.3-0.2z" fill="#8dc997"/>
 <path id="arms-low" d="m27 21c-0.5 0-0.75 1.95-1 2.2 0 0.8-0.125 1.8-0.5 2.1-0.5 0.4-4.5 0.4-5.5-0.3-1.5 0-2.7 1-3 2 2 1 7 0 10 0 4 0 6 1 8-0.6-0.4-0.4-2-1.85-3.5-1.1-0.5 0.3-2.75 0.35-3 0.1-0.4-0.4-0.65-1.4-0.65-2.4-0.25-0.5-0.35-2-0.85-2z" fill="#e3d4b5"/>
</svg>
