<svg xmlns="http://www.w3.org/2000/svg" viewBox="0 0 48 48">
  <path d="M24 1C11.297 1 1 11.297 1 24h23V1z" fill="#1793cf" fill-rule="evenodd"/>
  <path d="M36.31 5c5.859 4.062 9.688 10.831 9.688 18.5 0 12.426-10.07 22.5-22.5 22.5-7.669 0-14.438-3.828-18.5-9.688a23.24 23.24 0 0 0 3.781 4.969 22.923 22.923 0 0 0 15.469 5.969c12.703 0 23-10.298 23-23a22.92 22.92 0 0 0-5.969-15.469A23.216 23.216 0 0 0 36.31 5zm4.969 3.781A22.911 22.911 0 0 1 47.498 24.5c0 12.703-10.297 23-23 23a22.909 22.909 0 0 1-15.719-6.219C12.939 45.425 18.662 48 24.998 48c12.703 0 23-10.298 23-23 0-6.335-2.575-12.06-6.719-16.219z" opacity=".05"/>
  <path d="M41.28 8.781a22.923 22.923 0 0 1 5.969 15.469c0 12.703-10.297 23-23 23A22.92 22.92 0 0 1 8.78 41.281 22.911 22.911 0 0 0 24.499 47.5c12.703 0 23-10.298 23-23A22.909 22.909 0 0 0 41.28 8.781z" opacity=".1"/>
  <path d="M31.25 2.375C39.865 5.529 46 13.792 46 23.505c0 12.426-10.07 22.5-22.5 22.5-9.708 0-17.971-6.135-21.12-14.75a23 23 0 0 0 44.875-7 23 23 0 0 0-16-21.875z" opacity=".2"/>
  <path d="M24 24v23c12.703 0 23-10.297 23-23H24z" fill="#dd4512" fill-rule="evenodd"/>
  <path d="M24 1v23h23C47 11.297 36.703 1 24 1z" fill="#a8a2f4" fill-rule="evenodd"/>
  <path d="M1 24c0 12.703 10.297 23 23 23V24H1z" fill="#283e70" fill-rule="evenodd"/>
  <path d="M16 10c-.535 1.313-.844 2.163-1.438 3.438.363.387.809.832 1.531 1.344-.781-.324-1.321-.637-1.719-.969-.762 1.59-1.953 3.84-4.375 8.188 1.902-1.098 3.375-1.773 4.75-2.031a3.622 3.622 0 0 1-.094-.813v-.063c.027-1.219.652-2.156 1.406-2.094.75.066 1.343 1.095 1.313 2.313-.004.23-.02.453-.063.656 1.359.266 2.813.953 4.688 2.031-.367-.68-.714-1.289-1.031-1.875-.496-.383-1-.895-2.063-1.438.723.188 1.254.414 1.656.656-3.207-5.973-3.462-6.766-4.563-9.344zm16.75 0c-2.586.121-4.605 2.446-4.5 3.719.102 1.238 3.254 2.336 3.219 2.375-.645.543-1.086.914-1.625 1.406-1.293 1.176-2.173 2.024-1.719 3.25.52 1.41 1.66 1.356 3 1.094 3.457-.68 9.164-5.05 8.875-6.656-.234-1.297-3.429-3.859-5.313-4.781a4.035 4.035 0 0 0-1.938-.406zm.531 2.219c.324-.031.707.074 1.125.281.918.441 1.867 1.613 0 2.281-.508.18-2.145-.457-2.094-1.313.043-.793.43-1.199.969-1.25zM18.593 28a3.38 3.38 0 0 0-3.125 2.063c-.004.008.004.023 0 .031a3.488 3.488 0 0 0-.281 1.313v1.813h-1.781c-1.867 0-3.406 1.508-3.406 3.375 0 1.74 1.336 3.186 3.03 3.375.12.017.232.031.375.031a3.414 3.414 0 0 0 3.406-3.406v-1.781h1.781a3.422 3.422 0 0 0 3.406-3.406c0-1.599-1.127-2.957-2.625-3.313a3.54 3.54 0 0 0-.313-.063c-.02-.003-.042.003-.063 0a3.134 3.134 0 0 0-.406-.031zm15.406 0c-3.313 0-6 2.688-6 6 0 3.313 2.688 6 6 6 3.313 0 6-2.688 6-6 0-3.313-2.688-6-6-6zm-15.406 1.625c.243 0 .342.019.469.031a1.79 1.79 0 0 1 1.344 1.75 1.8 1.8 0 0 1-1.813 1.813h-1.531a.246.246 0 0 1-.25-.25v-1.563c0-.247.034-.473.125-.688.003-.009-.004-.023 0-.031a1.804 1.804 0 0 1 1.656-1.063zm17.469.031a.781.781 0 0 1 .375.125.808.808 0 0 1 .313 1.094.799.799 0 0 1-1.094.281.809.809 0 0 1-.313-1.094.82.82 0 0 1 .719-.406zm-2.063.875c.32 0 .641.043.938.125.055.32.226.601.531.781.305.176.664.211.969.094.59.578.973 1.367 1.031 2.25h-1.125a2.349 2.349 0 0 0-2.344-2.125c-.352 0-.669.078-.969.219l-.563-1c.465-.23.972-.344 1.531-.344zm-1.938.594l.594.969c-.602.422-1 1.109-1 1.906 0 .789.402 1.48 1 1.906l-.594 1a3.517 3.517 0 0 1-1.438-2.031c.25-.207.406-.527.406-.875 0-.352-.156-.668-.406-.875a3.425 3.425 0 0 1 1.438-2zm-2.156 2.094c.441 0 .813.335.813.781 0 .441-.37.813-.813.813-.445 0-.781-.37-.781-.813 0-.445.335-.781.781-.781zm6.438 1h1.125a3.48 3.48 0 0 1-1.031 2.25 1.152 1.152 0 0 0-.969.094c-.305.176-.48.457-.531.781a3.55 3.55 0 0 1-.938.125 3.56 3.56 0 0 1-1.563-.344l.594-1c.301.145.614.219.969.219a2.351 2.351 0 0 0 2.344-2.125zm-22.938.594h1.594c.11.029.219.101.219.219v1.563c0 .988-.82 1.813-1.813 1.813-.208 0-.298-.02-.406-.031a1.767 1.767 0 0 1-1.406-1.75c0-1 .8-1.813 1.813-1.813zm22.625 1.938a.736.736 0 0 1 .688.375c.219.383.102.902-.281 1.125-.383.219-.867.071-1.094-.313a.8.8 0 0 1 .281-1.094.877.877 0 0 1 .406-.094z" opacity=".1" fill-rule="evenodd"/>
  <path d="M31.754 9c-2.586.121-4.613 2.457-4.508 3.73.102 1.238 3.246 2.32 3.211 2.359-.645.543-1.066.906-1.605 1.398-1.293 1.176-2.184 2.047-1.73 3.273.52 1.41 1.66 1.352 3 1.09 3.457-.68 9.156-5.04 8.867-6.648-.234-1.297-3.418-3.871-5.301-4.793a4.021 4.021 0 0 0-1.934-.406m.531 2.227c.324-.031.703.051 1.121.258.918.441 1.867 1.613 0 2.281-.508.18-2.137-.438-2.086-1.293.043-.793.426-1.195.965-1.246m0 0" fill="#fff" fill-rule="evenodd"/>
  <path d="M17.598 33.797A3.411 3.411 0 0 0 21 30.399a3.411 3.411 0 0 0-3.402-3.398 3.41 3.41 0 0 0-3.398 3.398v3.398m3.398-1.59h-1.809v-1.813c0-1.012.801-1.813 1.809-1.813a1.8 1.8 0 0 1 1.813 1.813 1.8 1.8 0 0 1-1.813 1.813m0 0" fill="#3c6eb2"/>
  <path d="M12.402 32.21A3.414 3.414 0 0 0 9 35.608a3.411 3.411 0 0 0 3.402 3.398 3.414 3.414 0 0 0 3.402-3.398V32.21m-3.402 1.594h1.809v1.809a1.8 1.8 0 0 1-1.809 1.813 1.8 1.8 0 0 1-1.813-1.813c0-1 .801-1.809 1.813-1.809m0 0" fill="#3c6eb2"/>
  <path d="M17.598 27a3.4 3.4 0 0 0-3.398 3.398v1.809h-1.426a.793.793 0 0 0-.801.793.79.79 0 0 0 .793.789h1.18c.145 0 .258.113.258.254v1.559c0 .988-.805 1.793-1.797 1.793-.336 0-.418-.039-.648-.039-.484 0-.801.32-.801.762 0 .367.313.684.695.785.266.066.469.102.754.102a3.404 3.404 0 0 0 3.402-3.398v-1.805h1.422a.797.797 0 0 0 .805-.793.791.791 0 0 0-.793-.793h-1.18a.253.253 0 0 1-.254-.254v-1.559c0-.988.801-1.793 1.793-1.793.34 0 .418.043.648.043.484 0 .805-.324.805-.766 0-.367-.313-.684-.695-.785a2.85 2.85 0 0 0-.754-.098M33 27a5.998 5.998 0 1 0-.004 11.996A5.998 5.998 0 0 0 33 27m2.063 1.664a.806.806 0 0 1 .672 1.207.804.804 0 1 1-1.391-.805.817.817 0 0 1 .719-.402M33 29.519c.32 0 .633.047.93.129.055.32.242.613.547.793.305.176.656.195.961.078.59.578.977 1.375 1.035 2.258l-1.141.016A2.344 2.344 0 0 0 33 30.66c-.352 0-.684.078-.984.219l-.559-.996c.465-.23.984-.359 1.543-.359m-1.934.582l.59.98a2.334 2.334 0 0 0-.996 1.918c0 .789.398 1.488.996 1.914l-.59.984a3.5 3.5 0 0 1-1.438-2.023 1.133 1.133 0 0 0 0-1.746 3.476 3.476 0 0 1 1.438-2.023m-2.148 2.094c.441 0 .805.355.805.801a.806.806 0 0 1-.805.801.8.8 0 0 1-.801-.801c0-.445.355-.801.801-.801m6.414 1l1.141.02a3.504 3.504 0 0 1-1.035 2.258 1.13 1.13 0 0 0-.961.078 1.11 1.11 0 0 0-.547.793 3.498 3.498 0 0 1-2.477-.234l.563-.996c.301.145.629.227.984.227a2.347 2.347 0 0 0 2.332-2.133m-.313 2.52a.8.8 0 0 1 .715.402.808.808 0 0 1-.293 1.098.81.81 0 0 1-1.098-.297.804.804 0 0 1 .676-1.203m0 0" fill="#f9f9f9"/>
  <g>
    <path d="M40.03 7.531A22.922 22.922 0 0 1 45.999 23c0 12.703-10.297 23-23 23A22.92 22.92 0 0 1 7.53 40.031C11.708 44.322 17.54 47 23.999 47c12.703 0 23-10.298 23-23 0-6.462-2.677-12.291-6.969-16.469z" opacity=".1"/>
  </g>
  <path d="M15 9c-.535 1.313-.859 2.164-1.453 3.438.363.387.813.836 1.535 1.348-.781-.324-1.313-.648-1.711-.98-.762 1.59-1.949 3.852-4.371 8.199 1.902-1.098 3.375-1.773 4.75-2.031a3.657 3.657 0 0 1-.09-.816v-.063c.027-1.219.66-2.152 1.414-2.09.75.066 1.336 1.102 1.305 2.32-.004.23-.035.453-.078.656 1.359.266 2.816.945 4.691 2.023l-1.016-1.879c-.496-.383-1.012-.883-2.07-1.426.723.188 1.246.406 1.648.648-3.207-5.973-3.465-6.762-4.566-9.34M15 8.999" fill="#f9f9f9" fill-rule="evenodd"/>
</svg>
