<?xml version="1.0" encoding="UTF-8"?>
<svg version="1.1" viewBox="0 0 48 48" xmlns="http://www.w3.org/2000/svg" xmlns:cc="http://creativecommons.org/ns#" xmlns:dc="http://purl.org/dc/elements/1.1/" xmlns:rdf="http://www.w3.org/1999/02/22-rdf-syntax-ns#">
 <metadata>
  <rdf:RDF>
   <cc:Work rdf:about="">
    <dc:format>image/svg+xml</dc:format>
    <dc:type rdf:resource="http://purl.org/dc/dcmitype/StillImage"/>
    <dc:title/>
   </cc:Work>
  </rdf:RDF>
 </metadata>
 <defs>
  <linearGradient id="linearGradient3764" x2="0" y1="47" y2="1" gradientUnits="userSpaceOnUse">
   <stop stop-color="#1491a4" offset="0"/>
   <stop stop-color="#16a3b6" offset="1"/>
  </linearGradient>
  <clipPath id="clipPath-034094846">
   <g transform="translate(0 -1004.4)">
    <path transform="matrix(15.333 0 0 11.5 415 878.86)" d="m-24 13c0 1.105-0.672 2-1.5 2s-1.5-0.895-1.5-2 0.672-2 1.5-2 1.5 0.895 1.5 2z" fill="#1890d0"/>
   </g>
  </clipPath>
  <clipPath id="clipPath-057859029">
   <g transform="translate(0 -1004.4)">
    <path transform="matrix(15.333 0 0 11.5 415 878.86)" d="m-24 13c0 1.105-0.672 2-1.5 2s-1.5-0.895-1.5-2 0.672-2 1.5-2 1.5 0.895 1.5 2z" fill="#1890d0"/>
   </g>
  </clipPath>
 </defs>
 <path d="m36.31 5c5.859 4.062 9.688 10.831 9.688 18.5 0 12.426-10.07 22.5-22.5 22.5-7.669 0-14.438-3.828-18.5-9.688 1.037 1.822 2.306 3.499 3.781 4.969 4.085 3.712 9.514 5.969 15.469 5.969 12.703 0 23-10.298 23-23 0-5.954-2.256-11.384-5.969-15.469-1.469-1.475-3.147-2.744-4.969-3.781zm4.969 3.781c3.854 4.113 6.219 9.637 6.219 15.719 0 12.703-10.297 23-23 23-6.081 0-11.606-2.364-15.719-6.219 4.16 4.144 9.883 6.719 16.219 6.719 12.703 0 23-10.298 23-23 0-6.335-2.575-12.06-6.719-16.219z" opacity=".05"/>
 <path d="m41.28 8.781c3.712 4.085 5.969 9.514 5.969 15.469 0 12.703-10.297 23-23 23-5.954 0-11.384-2.256-15.469-5.969 4.113 3.854 9.637 6.219 15.719 6.219 12.703 0 23-10.298 23-23 0-6.081-2.364-11.606-6.219-15.719z" opacity=".1"/>
 <path d="m31.25 2.375c8.615 3.154 14.75 11.417 14.75 21.13 0 12.426-10.07 22.5-22.5 22.5-9.708 0-17.971-6.135-21.12-14.75a23 23 0 0 0 44.875-7 23 23 0 0 0-16-21.875z" opacity=".2"/>
 <path d="m24 1c12.703 0 23 10.297 23 23s-10.297 23-23 23-23-10.297-23-23 10.297-23 23-23z" fill="url(#linearGradient3764)"/>
 <g clip-path="url(#clipPath-034094846)">
  <g transform="translate(1,1)">
   <g opacity=".1">
    <path d="m24.684 11.648c-0.375 1.301-0.641 2.172-0.684 3.352-0.047 4.383 0.117 8.617 0 13-8e-3 1.438-1 1-2 1-2 0-3.715 0.426-5.05 1.859-1.043 1.141-1.52 2.945-0.313 4.141 1.07 1.043 2.723 1.234 4.137 1 1.516-0.34 2.922-0.949 4.059-1.996 0.883-0.801 1.059-1.988 1.094-3.172 0.055-1.641-0.023-3.289 0.098-4.922-4e-3 -1.195-0.148-3.03 1.305-2.465 1.023 0.719 1.934 1.68 2.555 2.773 0.563 1.238 1 2.605 0.801 3.98-0.129 1.094 1.082 0.793 1.043-0.074 0.664-1.969 0.121-4.211-1.211-5.77-1.375-1.906-3.391-3.344-4.324-5.563-0.621-1.34 0.863-2.172 1.832-1.086 1.01 0.984 2.035 2.043 2.371 3.461 0.375 0.977 0.453 2.031 0.359 3.066 0.539 1.383 1.25-0.496 1.242-1.184 0.32-1.805-0.352-3.676-1.535-5.04-2.461-2.457-3.461-5.01-5.777-6.363" fill-rule="evenodd"/>
   </g>
  </g>
 </g>
 <g clip-path="url(#clipPath-057859029)">
  <path d="m24.684 11.648c-0.375 1.301-0.641 2.172-0.684 3.352-0.047 4.383 0.117 8.617 0 13-8e-3 1.438-1 1-2 1-2 0-3.715 0.426-5.05 1.859-1.043 1.141-1.52 2.945-0.313 4.141 1.07 1.043 2.723 1.234 4.137 1 1.516-0.34 2.922-0.949 4.059-1.996 0.883-0.801 1.059-1.988 1.094-3.172 0.055-1.641-0.023-3.289 0.098-4.922-4e-3 -1.195-0.148-3.03 1.305-2.465 1.023 0.719 1.934 1.68 2.555 2.773 0.563 1.238 1 2.605 0.801 3.98-0.129 1.094 1.082 0.793 1.043-0.074 0.664-1.969 0.121-4.211-1.211-5.77-1.375-1.906-3.391-3.344-4.324-5.563-0.621-1.34 0.863-2.172 1.832-1.086 1.01 0.984 2.035 2.043 2.371 3.461 0.375 0.977 0.453 2.031 0.359 3.066 0.539 1.383 1.25-0.496 1.242-1.184 0.32-1.805-0.352-3.676-1.535-5.04-2.461-2.457-3.461-5.01-5.777-6.363" fill="#fff" fill-rule="evenodd"/>
 </g>
 <path d="m40.03 7.531c3.712 4.084 5.969 9.514 5.969 15.469 0 12.703-10.297 23-23 23-5.954 0-11.384-2.256-15.469-5.969 4.178 4.291 10.01 6.969 16.469 6.969 12.703 0 23-10.298 23-23 0-6.462-2.677-12.291-6.969-16.469z" opacity=".1"/>
</svg>
