<svg xmlns="http://www.w3.org/2000/svg" viewBox="0 0 48 48">
  <defs>
    <linearGradient id="a" x1="1" x2="47" gradientUnits="userSpaceOnUse" gradientTransform="rotate(-90 24 24)">
      <stop stop-color="#d6740a"/>
      <stop offset="1" stop-color="#e87e0b"/>
    </linearGradient>
  </defs>
  <path d="M36.31 5c5.859 4.062 9.688 10.831 9.688 18.5 0 12.426-10.07 22.5-22.5 22.5-7.669 0-14.438-3.828-18.5-9.688a23.24 23.24 0 0 0 3.781 4.969 22.923 22.923 0 0 0 15.469 5.969c12.703 0 23-10.298 23-23a22.92 22.92 0 0 0-5.969-15.469A23.216 23.216 0 0 0 36.31 5zm4.969 3.781A22.911 22.911 0 0 1 47.498 24.5c0 12.703-10.297 23-23 23a22.909 22.909 0 0 1-15.719-6.219C12.939 45.425 18.662 48 24.998 48c12.703 0 23-10.298 23-23 0-6.335-2.575-12.06-6.719-16.219z" opacity=".05"/>
  <path d="M41.28 8.781a22.923 22.923 0 0 1 5.969 15.469c0 12.703-10.297 23-23 23A22.92 22.92 0 0 1 8.78 41.281 22.911 22.911 0 0 0 24.499 47.5c12.703 0 23-10.298 23-23A22.909 22.909 0 0 0 41.28 8.781z" opacity=".1"/>
  <path d="M31.25 2.375C39.865 5.529 46 13.792 46 23.505c0 12.426-10.07 22.5-22.5 22.5-9.708 0-17.971-6.135-21.12-14.75a23 23 0 0 0 44.875-7 23 23 0 0 0-16-21.875z" opacity=".2"/>
  <path d="M24 1c12.703 0 23 10.297 23 23S36.703 47 24 47 1 36.703 1 24 11.297 1 24 1z" fill="url(#a)"/>
  <path d="M21.84 28.984c-1.02-.074-1.844-.387-2.516-.945a3.737 3.737 0 0 1-.816-1c-.047-.082-.105-.16-.113-.172v1.949h-2.867l-.008-2.25c-.008-2.332-.008-2.445-.074-2.727-.117-.512-.539-.707-.984-.707-.516-.016-.906.211-1.137.73-.098.277-.09.121-.098 2.645l-.004 2.313h-2.879c-.043-2.125.043-4.25-.035-6.367a4.164 4.164 0 0 0-.234-1.031l-.074-.227 2.801.012.07.156c.043.094.082.215.098.293a.512.512 0 0 0 .039.141c.008 0 .102-.07.215-.145.43-.313.871-.492 1.43-.578.297-.047 1.043-.043 1.355.008.688.117 1.25.375 1.68.777.313.297.539.754.641 1.289l.035.191.074-.148c.141-.293.313-.543.543-.797.688-.77 1.637-1.219 2.859-1.359a8.872 8.872 0 0 1 1.324.004c.621.078 1.137.234 1.602.496.367.207.641.426.93.742.27.297.504.668.66 1.02l.055.121v-.355c0-.75-.035-1.164-.141-1.598l-.066-.277 2.832.023.035.129c.059.195.102.449.113.664l.012.199.102-.148c.336-.492.75-.797 1.27-.938.25-.07.477-.09.82-.082.289.004.477.035.809.121l.086.02v.906c.004 0 .078-.043.141-.09 1.074-.832 2.613-1.172 4.07-.902.805.148 1.563.484 2.137.949.996.805 1.488 2.02 1.363 3.379a3.637 3.637 0 0 1-1.156 2.375c-.883.813-2.145 1.246-3.523 1.207-.898-.027-1.66-.227-2.363-.625a3.954 3.954 0 0 1-1.426-1.359c-.645-1.043-.73-2.445-.219-3.613.039-.094.074-.172.074-.176a1.56 1.56 0 0 0-.887-.035c-.18.059-.293.121-.449.25-.375.305-.598.75-.688 1.398-.051.34-.059.668-.059 2.32v1.66h-2.875v-1.855l-.086.152a3.054 3.054 0 0 1-.469.641c-.684.734-1.652 1.137-2.949 1.23-.27.02-.797.02-1.066 0m2.113-2.559l2.457.047v-.863h-5.566l.012.113c.008.063.027.184.047.27.137.578.547.938 1.199 1.051.734.074 1.348.035 1.852-.617m12.293.445c.473-.316.762-.914.816-1.688.039-.563-.09-1.156-.352-1.566a1.831 1.831 0 0 0-.371-.414c-.383-.285-.852-.32-1.297-.219-.688.227-1.105.922-1.141 1.887-.023.707.156 1.313.52 1.719.23.254.434.379.754.453.363.063.738.016 1.07-.172m-12.523-2.941c.023-.027-.066-.363-.137-.512-.074-.152-.262-.332-.441-.426-.523-.273-1.313-.219-1.754.117a1.506 1.506 0 0 0-.492.77l-.02.074 1.414-.008a65.875 65.875 0 0 0 1.43-.016m0 0" opacity=".1"/>
  <g>
    <path d="M20.84 27.984c-1.02-.074-1.844-.387-2.516-.945a3.737 3.737 0 0 1-.816-1c-.047-.082-.105-.16-.113-.172v1.949h-2.867l-.008-2.25c-.008-2.332-.008-2.445-.074-2.727-.117-.512-.539-.707-.984-.707-.516-.016-.906.211-1.137.73-.098.277-.09.121-.098 2.645l-.004 2.313H9.344c-.043-2.125.043-4.25-.035-6.367a4.164 4.164 0 0 0-.234-1.031l-.074-.227 2.801.012.07.156c.043.094.082.215.098.293a.512.512 0 0 0 .039.141c.008 0 .102-.07.215-.145.43-.313.871-.492 1.43-.578.297-.047 1.043-.043 1.355.008.688.117 1.25.375 1.68.777.313.297.539.754.641 1.289l.035.191.074-.148c.141-.293.313-.543.543-.797.688-.77 1.637-1.219 2.859-1.359a8.872 8.872 0 0 1 1.324.004c.621.078 1.137.234 1.602.496.367.207.641.426.93.742.27.297.504.668.66 1.02l.055.121v-.355c0-.75-.035-1.164-.141-1.598l-.066-.277 2.832.023.035.129c.059.195.102.449.113.664l.012.199.102-.148c.336-.492.75-.797 1.27-.938.25-.07.477-.09.82-.082.289.004.477.035.809.121l.086.02v.906c.004 0 .078-.043.141-.09 1.074-.832 2.613-1.172 4.07-.902.805.148 1.563.484 2.137.949.996.805 1.488 2.02 1.363 3.379a3.637 3.637 0 0 1-1.156 2.375c-.883.813-2.145 1.246-3.523 1.207-.898-.027-1.66-.227-2.363-.625a3.954 3.954 0 0 1-1.426-1.359c-.645-1.043-.73-2.445-.219-3.613.039-.094.074-.172.074-.176a1.56 1.56 0 0 0-.887-.035c-.18.059-.293.121-.449.25-.375.305-.598.75-.688 1.398-.051.34-.059.668-.059 2.32v1.66h-2.875v-1.855l-.086.152a3.054 3.054 0 0 1-.469.641c-.684.734-1.652 1.137-2.949 1.23-.27.02-.797.02-1.066 0m2.113-2.559l2.457.047v-.863h-5.566l.012.113c.008.063.027.184.047.27.137.578.547.938 1.199 1.051.734.074 1.348.035 1.852-.617m12.293.445c.473-.316.762-.914.816-1.688.039-.563-.09-1.156-.352-1.566a1.831 1.831 0 0 0-.371-.414c-.383-.285-.852-.32-1.297-.219-.688.227-1.105.922-1.141 1.887-.023.707.156 1.313.52 1.719.23.254.434.379.754.453.363.063.738.016 1.07-.172m-12.523-2.941c.023-.027-.066-.363-.137-.512-.074-.152-.262-.332-.441-.426-.523-.273-1.313-.219-1.754.117a1.506 1.506 0 0 0-.492.77l-.02.074 1.414-.008a65.875 65.875 0 0 0 1.43-.016m0 0" fill="#f9f9f9"/>
  </g>
  <g>
    <path d="M40.03 7.531A22.922 22.922 0 0 1 45.999 23c0 12.703-10.297 23-23 23A22.92 22.92 0 0 1 7.53 40.031C11.708 44.322 17.54 47 23.999 47c12.703 0 23-10.298 23-23 0-6.462-2.677-12.291-6.969-16.469z" opacity=".1"/>
  </g>
</svg>
