<svg xmlns="http://www.w3.org/2000/svg" viewBox="0 0 48 48">
  <defs>
    <linearGradient id="a" x1="1" x2="47" gradientUnits="userSpaceOnUse" gradientTransform="rotate(-90 24 24)">
      <stop stop-color="#287298"/>
      <stop offset="1" stop-color="#2c7ea8"/>
    </linearGradient>
  </defs>
  <path d="M36.31 5c5.859 4.062 9.688 10.831 9.688 18.5 0 12.426-10.07 22.5-22.5 22.5-7.669 0-14.438-3.828-18.5-9.688a23.24 23.24 0 0 0 3.781 4.969 22.923 22.923 0 0 0 15.469 5.969c12.703 0 23-10.298 23-23a22.92 22.92 0 0 0-5.969-15.469A23.216 23.216 0 0 0 36.31 5zm4.969 3.781A22.911 22.911 0 0 1 47.498 24.5c0 12.703-10.297 23-23 23a22.909 22.909 0 0 1-15.719-6.219C12.939 45.425 18.662 48 24.998 48c12.703 0 23-10.298 23-23 0-6.335-2.575-12.06-6.719-16.219z" opacity=".05"/>
  <path d="M41.28 8.781a22.923 22.923 0 0 1 5.969 15.469c0 12.703-10.297 23-23 23A22.92 22.92 0 0 1 8.78 41.281 22.911 22.911 0 0 0 24.499 47.5c12.703 0 23-10.298 23-23A22.909 22.909 0 0 0 41.28 8.781z" opacity=".1"/>
  <path d="M31.25 2.375C39.865 5.529 46 13.792 46 23.505c0 12.426-10.07 22.5-22.5 22.5-9.708 0-17.971-6.135-21.12-14.75a23 23 0 0 0 44.875-7 23 23 0 0 0-16-21.875z" opacity=".2"/>
  <path d="M24 1c12.703 0 23 10.297 23 23S36.703 47 24 47 1 36.703 1 24 11.297 1 24 1z" fill="url(#a)"/>
  <path d="M21.395 13a.379.379 0 0 0-.364.297c-.027.156.008.23.074.363.309.555.617.984.734 1.316.203.457.199.879.145 1.164l-.371 1.75c-1.855.426-3.645.859-5.438 1.461a5.075 5.075 0 0 0-.883.363.23.23 0 0 0-.074 0c-.094.059-.098.141-.148.219-.023.043-.066.09-.074.148a.332.332 0 0 0 .074.219c.156.211.367.301.664.438.293.137.633.273.883.367a19.24 19.24 0 0 0 4.117.949c-.344 1.527-.672 3.035-1.18 4.52-.121.363-.277.742-.438 1.098-.461 1.02-1.051 1.949-1.617 2.844-.602.836-1.105 1.652-1.762 2.406-.125.129-.32.242-.441.363-.059.066-.102.164-.148.223-.02.027-.055.039-.074.074-.02.031-.008.051 0 .145a.23.23 0 0 0 0 .074.227.227 0 0 0 .074.074c.02.027.043.055.074.074a.23.23 0 0 0 .074 0c.133.02.242-.031.367-.074.129-.039.219-.074.371-.145.305-.145.695-.301 1.027-.512.473-.297.828-.602 1.102-.801.484-.352 1.574-1.355 2.133-2.039.641-.723 1.32-1.5 1.84-2.48.008-.02-.012-.055 0-.074.035-.063.238-.449.293-.586.109-.273.184-.547.219-.656l1.617-4.887 5.66-1.313c-.141 1.18-.297 2.32-.438 3.5-.109.973-.184 1.363-.293 2.406-.004.031.004.039 0 .074-.066.32-.246 1.223-.297 1.461-.375 1.809-.777 3.453-1.613 4.887-.203.277-.434.57-.664.801-.23-.113-.555-.27-1.027-.293h-.074a.23.23 0 0 0-.074 0s-.074.07-.074.074c-.027.02-.059.043-.074.074-.031.168.023.297.074.441.051.145.09.305.145.438.426.953.926 1.781 1.398 2.625a.17.17 0 0 0 .074.074.17.17 0 0 0 .074.074.23.23 0 0 0 .074 0 .23.23 0 0 0 .074 0 .194.194 0 0 0 .074-.074c.703-.66 1.535-1.73 2.133-2.625a23.091 23.091 0 0 0 2.867-5.906c.105-.344.191-.691.293-1.094l2.203-8.387c.094-.371.203-.785.219-1.098a.23.23 0 0 0 0-.074c-.043-.105-.145-.16-.219-.227-.074-.051-.125-.098-.219-.145a6.372 6.372 0 0 0-.664-.289 33.984 33.984 0 0 0-3.453-.949.756.756 0 0 0-.367-.078 5.536 5.536 0 0 0-.516.078c-.32.066-.648.168-.883.227l-2.941.648c.125-.387.332-.961.145-1.676-.25-.816-.898-1.293-1.613-1.531-.613-.207-1.211-.391-1.84-.586-.102-.023-.563-.188-1.027-.219m-.008-.023" opacity=".1"/>
  <g>
    <path d="M20.395 12a.379.379 0 0 0-.364.297c-.027.156.008.23.074.363.309.555.617.984.734 1.316.203.457.199.879.145 1.164l-.371 1.75c-1.855.426-3.645.859-5.438 1.461a5.075 5.075 0 0 0-.883.363.23.23 0 0 0-.074 0c-.094.059-.098.141-.148.219-.023.043-.066.09-.074.148a.332.332 0 0 0 .074.219c.156.211.367.301.664.438.293.137.633.273.883.367a19.24 19.24 0 0 0 4.117.949c-.344 1.527-.672 3.035-1.18 4.52-.121.363-.277.742-.438 1.098-.461 1.02-1.051 1.949-1.617 2.844-.602.836-1.105 1.652-1.762 2.406-.125.129-.32.242-.441.363-.059.066-.102.164-.148.223-.02.027-.055.039-.074.074-.02.031-.008.051 0 .145a.23.23 0 0 0 0 .074.227.227 0 0 0 .074.074c.02.027.043.055.074.074a.23.23 0 0 0 .074 0c.133.02.242-.031.367-.074.129-.039.219-.074.371-.145.305-.145.695-.301 1.027-.512.473-.297.828-.602 1.102-.801.484-.352 1.574-1.355 2.133-2.039.641-.723 1.32-1.5 1.84-2.48.008-.02-.012-.055 0-.074.035-.063.238-.449.293-.586.109-.273.184-.547.219-.656l1.617-4.887 5.66-1.313c-.141 1.18-.297 2.32-.438 3.5-.109.973-.184 1.363-.293 2.406-.004.031.004.039 0 .074-.066.32-.246 1.223-.297 1.461-.375 1.809-.777 3.453-1.613 4.887-.203.277-.434.57-.664.801-.23-.113-.555-.27-1.027-.293h-.074a.23.23 0 0 0-.074 0s-.074.07-.074.074c-.027.02-.059.043-.074.074-.031.168.023.297.074.441.051.145.09.305.145.438.426.953.926 1.781 1.398 2.625a.17.17 0 0 0 .074.074.17.17 0 0 0 .074.074.23.23 0 0 0 .074 0 .23.23 0 0 0 .074 0 .194.194 0 0 0 .074-.074c.703-.66 1.535-1.73 2.133-2.625a23.091 23.091 0 0 0 2.867-5.906c.105-.344.191-.691.293-1.094l2.203-8.387c.094-.371.203-.785.219-1.098a.23.23 0 0 0 0-.074c-.043-.105-.145-.16-.219-.227-.074-.051-.125-.098-.219-.145a6.372 6.372 0 0 0-.664-.289 33.984 33.984 0 0 0-3.453-.949.756.756 0 0 0-.367-.078 5.536 5.536 0 0 0-.516.078c-.32.066-.648.168-.883.227l-2.941.648c.125-.387.332-.961.145-1.676-.25-.816-.898-1.293-1.613-1.531-.613-.207-1.211-.391-1.84-.586-.102-.023-.563-.188-1.027-.219m-.008-.023" fill="#f9f9f9"/>
  </g>
  <g>
    <path d="M40.03 7.531A22.922 22.922 0 0 1 45.999 23c0 12.703-10.297 23-23 23A22.92 22.92 0 0 1 7.53 40.031C11.708 44.322 17.54 47 23.999 47c12.703 0 23-10.298 23-23 0-6.462-2.677-12.291-6.969-16.469z" opacity=".1"/>
  </g>
</svg>
