<svg xmlns="http://www.w3.org/2000/svg" viewBox="0 0 48 48">
  <defs>
    <linearGradient id="a" x1="1" x2="47" gradientUnits="userSpaceOnUse" gradientTransform="rotate(-90 24 24)">
      <stop stop-color="#ff821d"/>
      <stop offset="1" stop-color="#ff8c32"/>
    </linearGradient>
  </defs>
  <path d="M36.31 5c5.859 4.062 9.688 10.831 9.688 18.5 0 12.426-10.07 22.5-22.5 22.5-7.669 0-14.438-3.828-18.5-9.688a23.24 23.24 0 0 0 3.781 4.969 22.923 22.923 0 0 0 15.469 5.969c12.703 0 23-10.298 23-23a22.92 22.92 0 0 0-5.969-15.469A23.216 23.216 0 0 0 36.31 5zm4.969 3.781A22.911 22.911 0 0 1 47.498 24.5c0 12.703-10.297 23-23 23a22.909 22.909 0 0 1-15.719-6.219C12.939 45.425 18.662 48 24.998 48c12.703 0 23-10.298 23-23 0-6.335-2.575-12.06-6.719-16.219z" opacity=".05"/>
  <path d="M41.28 8.781a22.923 22.923 0 0 1 5.969 15.469c0 12.703-10.297 23-23 23A22.92 22.92 0 0 1 8.78 41.281 22.911 22.911 0 0 0 24.499 47.5c12.703 0 23-10.298 23-23A22.909 22.909 0 0 0 41.28 8.781z" opacity=".1"/>
  <path d="M31.25 2.375C39.865 5.529 46 13.792 46 23.505c0 12.426-10.07 22.5-22.5 22.5-9.708 0-17.971-6.135-21.12-14.75a23 23 0 0 0 44.875-7 23 23 0 0 0-16-21.875z" opacity=".2"/>
  <path d="M24 1c12.703 0 23 10.297 23 23S36.703 47 24 47 1 36.703 1 24 11.297 1 24 1z" fill="url(#a)"/>
  <path d="M24.996 11.992c-4.781 0-8.656 4.227-8.656 9.441 0 .507.041 1.01.111 1.492l-.002.012c0 .012.007.023.008.035a.642.642 0 0 0 .94.526c.08 1.694.673 3.01 1.408 3.03.043.433.372.779.781.779h.066c.813 1.25 1.795 2.379 1.795 2.379v2.078l-6.43 3.465v2.773h19.988v-2.773l-6.428-3.465v-2.078s.979-1.129 1.791-2.379h.037c.409 0 .735-.346.777-.779.745-.019 1.346-1.375 1.412-3.104.09.048.19.082.299.082a.63.63 0 0 0 .623-.535h.014a10 10 0 0 0 .117-1.539c0-5.215-3.875-9.441-8.652-9.441zm0 1.4c3.982 0 7.217 3.454 7.35 7.77-.23-.775-.593-1.3-1.01-1.416-.245-1.407-1.166-3.918-4.699-3.918h-3.244c-3.53 0-4.453 2.5-4.699 3.908-.436.092-.816.629-1.053 1.434.128-4.315 3.367-7.777 7.355-7.777z" opacity=".1"/>
  <g>
    <g fill="#333">
      <path d="M22.367 14.828h3.27c4.895 0 4.797 4.852 4.797 4.852v4.156c0 1.582-2.855 4.852-2.855 4.852v2.078l6.426 3.465v2.773H14.017v-2.773l6.43-3.465v-2.078s-2.867-3.27-2.852-4.852V19.68s-.105-4.852 4.797-4.852m-.023 0"/>
      <path d="M18.586 17.938h.988c.438 0 .793.387.793.867v6.637c0 .477-.355.867-.793.867h-.988c-.438 0-.797-.391-.797-.867v-6.637c0-.48.359-.867.797-.867m0 0"/>
      <path d="M19.266 22.12c0 1.887-.648 3.414-1.445 3.414s-1.441-1.527-1.441-3.414c0-1.887.645-3.414 1.441-3.414.797 0 1.445 1.527 1.445 3.414m0 0"/>
      <path d="M16.754 21.938a.645.645 0 0 1-.652.637.645.645 0 0 1-.652-.637c0-.352.293-.637.652-.637.359 0 .652.285.652.637m0 0"/>
      <path d="M23.996 10.992c-4.781 0-8.656 4.227-8.656 9.441 0 .523.043 1.039.117 1.539h1.309a9.016 9.016 0 0 1-.137-1.539c0-4.438 3.297-8.04 7.367-8.04 4.066 0 7.363 3.598 7.363 8.04 0 .527-.047 1.043-.137 1.539h1.309a10 10 0 0 0 .117-1.539c0-5.215-3.875-9.441-8.652-9.441m0 0"/>
      <path d="M32.539 21.871a.639.639 0 0 1-.645.637.642.642 0 0 1-.645-.637c0-.352.289-.637.645-.637a.64.64 0 0 1 .645.637m0 0M29.406 17.938h-.988c-.441 0-.797.387-.797.867v6.637c0 .477.355.867.797.867h.988c.438 0 .793-.391.793-.867v-6.637c0-.48-.355-.867-.793-.867m0 0"/>
      <path d="M28.727 22.12c0 1.887.645 3.414 1.441 3.414.797 0 1.441-1.527 1.441-3.414 0-1.887-.645-3.414-1.441-3.414-.797 0-1.441 1.527-1.441 3.414m0 0"/>
    </g>
  </g>
  <g>
    <path d="M40.03 7.531A22.922 22.922 0 0 1 45.999 23c0 12.703-10.297 23-23 23A22.92 22.92 0 0 1 7.53 40.031C11.708 44.322 17.54 47 23.999 47c12.703 0 23-10.298 23-23 0-6.462-2.677-12.291-6.969-16.469z" opacity=".1"/>
  </g>
</svg>
