<svg xmlns="http://www.w3.org/2000/svg" viewBox="0 0 48 48">
  <defs>
    <linearGradient id="a" x1="1" x2="47" gradientUnits="userSpaceOnUse" gradientTransform="rotate(-90 24 24)">
      <stop stop-color="#336bc7"/>
      <stop offset="1" stop-color="#4077ce"/>
    </linearGradient>
  </defs>
  <path d="M36.31 5c5.859 4.062 9.688 10.831 9.688 18.5 0 12.426-10.07 22.5-22.5 22.5-7.669 0-14.438-3.828-18.5-9.688a23.24 23.24 0 0 0 3.781 4.969 22.923 22.923 0 0 0 15.469 5.969c12.703 0 23-10.298 23-23a22.92 22.92 0 0 0-5.969-15.469A23.216 23.216 0 0 0 36.31 5zm4.969 3.781A22.911 22.911 0 0 1 47.498 24.5c0 12.703-10.297 23-23 23a22.909 22.909 0 0 1-15.719-6.219C12.939 45.425 18.662 48 24.998 48c12.703 0 23-10.298 23-23 0-6.335-2.575-12.06-6.719-16.219z" opacity=".05"/>
  <path d="M41.28 8.781a22.923 22.923 0 0 1 5.969 15.469c0 12.703-10.297 23-23 23A22.92 22.92 0 0 1 8.78 41.281 22.911 22.911 0 0 0 24.499 47.5c12.703 0 23-10.298 23-23A22.909 22.909 0 0 0 41.28 8.781z" opacity=".1"/>
  <path d="M31.25 2.375C39.865 5.529 46 13.792 46 23.505c0 12.426-10.07 22.5-22.5 22.5-9.708 0-17.971-6.135-21.12-14.75a23 23 0 0 0 44.875-7 23 23 0 0 0-16-21.875z" opacity=".2"/>
  <path d="M24 1c12.703 0 23 10.297 23 23S36.703 47 24 47 1 36.703 1 24 11.297 1 24 1z" fill="url(#a)"/>
  <g opacity=".1">
    <path d="M21.43 31.902c-1.57-.41-2.449-1.711-2.449-3.641 0-.617.039-.914.191-1.309.359-.977 1.324-1.711 2.59-1.98.629-.133.82-.277.82-.613 0-.105.074-.418.168-.691.414-1.258 1.188-2.309 2.01-2.738.852-.449 1.297-.547 2.34-.543 1.477.004 2.219.344 3.246 1.469l.563.621.516-.184c2.465-.887 4.914.621 5.105 3.141l.063.691.477.18c1.395.52 2.035 1.602 1.918 3.195-.078 1.039-.547 1.875-1.277 2.285l-.355.195-7.75.012c-5.953.012-7.844-.008-8.176-.094m-.004.004"/>
    <path d="M15.621 30.789c-.918-.227-1.895-1.07-2.352-2.039-.258-.543-.273-.625-.273-1.598 0-.922.023-1.07.227-1.527a3.483 3.483 0 0 1 2.313-1.934c.219-.059.43-.148.461-.207.031-.051.066-.352.082-.664.074-1.93 1.289-3.629 2.984-4.176.918-.293 2.074-.223 3.07.191.316.133.281.16.949-.754.398-.539 1.199-1.211 1.848-1.555.707-.367 1.445-.539 2.324-.539 2.453.008 4.574 1.605 5.355 4.04.254.781.238 1-.055 1-.129.004-.496.078-.82.16l-.586.16-.535-.555c-1.504-1.566-3.969-1.906-6.06-.836a5.031 5.031 0 0 0-2.01 1.844c-.359.57-.82 1.637-.82 1.902 0 .191-.148.281-.77.496-1.934.66-3.063 2.184-3.059 4.129 0 .711.176 1.578.418 2.074.094.188.141.363.113.395-.074.078-2.477.055-2.809-.031m.004.016"/>
  </g>
  <g>
    <g fill="#f9f9f9">
      <path d="M20.43 30.902c-1.57-.41-2.449-1.711-2.449-3.641 0-.617.039-.914.191-1.309.359-.977 1.324-1.711 2.59-1.98.629-.133.82-.277.82-.613 0-.105.074-.418.168-.691.414-1.258 1.188-2.309 2.01-2.738.852-.449 1.297-.547 2.34-.543 1.477.004 2.219.344 3.246 1.469l.563.621.516-.184c2.465-.887 4.914.621 5.105 3.141l.063.691.477.18c1.395.52 2.035 1.602 1.918 3.195-.078 1.039-.547 1.875-1.277 2.285l-.355.195-7.75.012c-5.953.012-7.844-.008-8.176-.094m-.004.004"/>
      <path d="M14.621 29.789c-.918-.227-1.895-1.07-2.352-2.039-.258-.543-.273-.625-.273-1.598 0-.922.023-1.07.227-1.527a3.483 3.483 0 0 1 2.313-1.934c.219-.059.43-.148.461-.207.031-.051.066-.352.082-.664.074-1.93 1.289-3.629 2.984-4.176.918-.293 2.074-.223 3.07.191.316.133.281.16.949-.754.398-.539 1.199-1.211 1.848-1.555.707-.367 1.445-.539 2.324-.539 2.453.008 4.574 1.605 5.355 4.04.254.781.238 1-.055 1-.129.004-.496.078-.82.16l-.586.16-.535-.555c-1.504-1.566-3.969-1.906-6.06-.836a5.031 5.031 0 0 0-2.01 1.844c-.359.57-.82 1.637-.82 1.902 0 .191-.148.281-.77.496-1.934.66-3.063 2.184-3.059 4.129 0 .711.176 1.578.418 2.074.094.188.141.363.113.395-.074.078-2.477.055-2.809-.031m.004.016"/>
    </g>
  </g>
  <g>
    <path d="M40.03 7.531A22.922 22.922 0 0 1 45.999 23c0 12.703-10.297 23-23 23A22.92 22.92 0 0 1 7.53 40.031C11.708 44.322 17.54 47 23.999 47c12.703 0 23-10.298 23-23 0-6.462-2.677-12.291-6.969-16.469z" opacity=".1"/>
  </g>
</svg>
