<svg xmlns="http://www.w3.org/2000/svg" viewBox="0 0 48 48">
  <defs>
    <linearGradient id="a" x1="1" x2="47" gradientUnits="userSpaceOnUse" gradientTransform="rotate(-90 24 24)">
      <stop stop-color="#e4e4e4"/>
      <stop offset="1" stop-color="#eee"/>
    </linearGradient>
  </defs>
  <path d="M36.31 5c5.859 4.062 9.688 10.831 9.688 18.5 0 12.426-10.07 22.5-22.5 22.5-7.669 0-14.438-3.828-18.5-9.688a23.24 23.24 0 0 0 3.781 4.969 22.923 22.923 0 0 0 15.469 5.969c12.703 0 23-10.298 23-23a22.92 22.92 0 0 0-5.969-15.469A23.216 23.216 0 0 0 36.31 5zm4.969 3.781A22.911 22.911 0 0 1 47.498 24.5c0 12.703-10.297 23-23 23a22.909 22.909 0 0 1-15.719-6.219C12.939 45.425 18.662 48 24.998 48c12.703 0 23-10.298 23-23 0-6.335-2.575-12.06-6.719-16.219z" opacity=".05"/>
  <path d="M41.28 8.781a22.923 22.923 0 0 1 5.969 15.469c0 12.703-10.297 23-23 23A22.92 22.92 0 0 1 8.78 41.281 22.911 22.911 0 0 0 24.499 47.5c12.703 0 23-10.298 23-23A22.909 22.909 0 0 0 41.28 8.781z" opacity=".1"/>
  <path d="M31.25 2.375C39.865 5.529 46 13.792 46 23.505c0 12.426-10.07 22.5-22.5 22.5-9.708 0-17.971-6.135-21.12-14.75a23 23 0 0 0 44.875-7 23 23 0 0 0-16-21.875z" opacity=".2"/>
  <path d="M24 1c12.703 0 23 10.297 23 23S36.703 47 24 47 1 36.703 1 24 11.297 1 24 1z" fill="url(#a)"/>
  <g opacity=".1">
    <path d="M37.18 17a8.54 8.54 0 0 0-4.379 1.133 8.577 8.577 0 0 0-8.179-.114.15.15 0 0 0-.059.117c0 .082.066.141.145.141h.027c.004 0 .008-.004.008-.004a8.772 8.772 0 0 1 2.359-.102c2.258.211 4.23.906 5.613 2.461.07.074.133.066.203-.004 1.742-1.996 4.406-2.789 7.27-2.52.16.016.32.031.477.059.055.008.141.02.191.023.094.012.145-.063.145-.141 0-.063-.023-.105-.078-.129-.055-.027-.109-.063-.164-.082a8.735 8.735 0 0 0-3.582-.852m.004.004M31.938 23.84a14.82 14.82 0 0 0-8.555 2.711 14.8 14.8 0 0 0-6.03-1.277 14.75 14.75 0 0 0-8.242 2.5l-.02.016a.197.197 0 0 0-.082.168c0 .121.098.219.215.219.016 0 .031-.004.043-.004.012 0 .02-.004.023-.008a14.821 14.821 0 0 1 4.27-.621c3.934 0 7.449.926 10.09 3.391.008.004.016.012.023.016.039.035.086.047.145.047.066 0 .125-.02.164-.07 0 0 .086-.113.129-.18 2.691-3.641 7.121-5.438 12.04-5.438.352 0 .703.008 1.051.035.098.004.313.023.316.023a.218.218 0 0 0 .215-.219.203.203 0 0 0-.125-.188 14.87 14.87 0 0 0-5.656-1.125m-.008.004"/>
  </g>
  <g>
    <g fill="#2d2d2d">
      <path d="M36.18 16a8.54 8.54 0 0 0-4.379 1.133 8.577 8.577 0 0 0-8.179-.114.15.15 0 0 0-.059.117c0 .082.066.141.145.141h.027c.004 0 .008-.004.008-.004a8.772 8.772 0 0 1 2.359-.102c2.258.211 4.23.906 5.613 2.461.07.074.133.066.203-.004 1.742-1.996 4.406-2.789 7.27-2.52.16.016.32.031.477.059.055.008.141.02.191.023.094.012.145-.063.145-.141 0-.063-.023-.105-.078-.129-.055-.027-.109-.063-.164-.082a8.735 8.735 0 0 0-3.582-.852m.004.004M30.938 22.84a14.82 14.82 0 0 0-8.555 2.711 14.8 14.8 0 0 0-6.03-1.277 14.75 14.75 0 0 0-8.242 2.5l-.02.016a.197.197 0 0 0-.082.168c0 .121.098.219.215.219.016 0 .031-.004.043-.004.012 0 .02-.004.023-.008a14.821 14.821 0 0 1 4.27-.621c3.934 0 7.449.926 10.09 3.391.008.004.016.012.023.016.039.035.086.047.145.047.066 0 .125-.02.164-.07 0 0 .086-.113.129-.18 2.691-3.641 7.121-5.438 12.04-5.438.352 0 .703.008 1.051.035.098.004.313.023.316.023a.218.218 0 0 0 .215-.219.203.203 0 0 0-.125-.188 14.87 14.87 0 0 0-5.656-1.125m-.008.004"/>
    </g>
  </g>
  <g>
    <path d="M40.03 7.531A22.922 22.922 0 0 1 45.999 23c0 12.703-10.297 23-23 23A22.92 22.92 0 0 1 7.53 40.031C11.708 44.322 17.54 47 23.999 47c12.703 0 23-10.298 23-23 0-6.462-2.677-12.291-6.969-16.469z" opacity=".1"/>
  </g>
</svg>
