<svg viewBox="0 0 48 48" xmlns="http://www.w3.org/2000/svg">
 <defs>
  <linearGradient id="linearGradient3945" x1="1" x2="47" gradientTransform="matrix(0 -1 1 0 -1.5e-6 48)" gradientUnits="userSpaceOnUse">
   <stop style="stop-color:#3d3d3d" offset="0"/>
   <stop style="stop-color:#474747" offset="1"/>
  </linearGradient>
 </defs>
 <path d="m36.31 5c5.859 4.062 9.688 10.831 9.688 18.5 0 12.426-10.07 22.5-22.5 22.5-7.669 0-14.438-3.828-18.5-9.688 1.037 1.822 2.306 3.499 3.781 4.969 4.085 3.712 9.514 5.969 15.469 5.969 12.703 0 23-10.298 23-23 0-5.954-2.256-11.384-5.969-15.469-1.469-1.475-3.147-2.744-4.969-3.781zm4.969 3.781c3.854 4.113 6.219 9.637 6.219 15.719 0 12.703-10.297 23-23 23-6.081 0-11.606-2.364-15.719-6.219 4.16 4.144 9.883 6.719 16.219 6.719 12.703 0 23-10.298 23-23 0-6.335-2.575-12.06-6.719-16.219z" style="opacity:.05"/>
 <path d="m41.28 8.781c3.712 4.085 5.969 9.514 5.969 15.469 0 12.703-10.297 23-23 23-5.954 0-11.384-2.256-15.469-5.969 4.113 3.854 9.637 6.219 15.719 6.219 12.703 0 23-10.298 23-23 0-6.081-2.364-11.606-6.219-15.719z" style="opacity:.1"/>
 <path d="m31.25 2.375c8.615 3.154 14.75 11.417 14.75 21.13 0 12.426-10.07 22.5-22.5 22.5-9.708 0-17.971-6.135-21.12-14.75a23 23 0 0 0 44.875-7 23 23 0 0 0-16-21.875z" style="opacity:.2"/>
 <path d="m24 1c12.703 0 23 10.297 23 23s-10.297 23-23 23-23-10.297-23-23 10.297-23 23-23z" style="fill:url(#linearGradient3945)"/>
 <path d="m28 12c-10 0-15 7-15 13s5 13 15 13c-6-3.569-9-7-9-13s3-9.431 9-13zm-2 4c0.583 1.353 1.464 2.865 1.281 5.219-1.962-0.79-4.912-0.905-7.563 1.875 1.465 0.172 3.208 0.163 5.156 1.5-1.672 1.3-3.242 3.802-2.156 7.5 0.876-1.176 1.738-2.7 3.844-3.719 0.288 2.099 1.688 4.716 5.438 5.625-0.583-1.353-1.464-2.865-1.281-5.219 1.962 0.79 4.912 0.905 7.563-1.875-1.465-0.172-3.208-0.163-5.156-1.5 1.672-1.3 3.242-3.802 2.156-7.5-0.876 1.176-1.738 2.7-3.844 3.719-0.288-2.099-1.688-4.716-5.438-5.625z" style="opacity:.1"/>
 <path d="m40.03 7.531c3.712 4.084 5.969 9.514 5.969 15.469 0 12.703-10.297 23-23 23-5.954 0-11.384-2.256-15.469-5.969 4.178 4.291 10.01 6.969 16.469 6.969 12.703 0 23-10.298 23-23 0-6.462-2.677-12.291-6.969-16.469z" style="opacity:.1"/>
 <path d="m27 11c-10 0-15 7-15 13s5 13 15 13c-6-3.569-9-7-9-13s3-9.431 9-13z" style="fill:#352217"/>
 <path d="m27 11c-10 0-15 7-15 13s5 13 15 13c-8-2-12-7-12-13s4-11 12-13z" style="fill:#aba674"/>
 <path d="m21.706 31.1c-1.341-4.567 1.375-7.366 3.321-8.247l2.973 1.149c-4.155 2.804-5.452 4.999-6.294 7.098z" style="fill:#352217"/>
 <path d="m34.29 16.902c1.341 4.567-1.375 7.366-3.321 8.247l-2.973-1.149c4.155-2.804 5.452-4.999 6.294-7.098z" style="fill:#352217"/>
 <path d="m25 15c4.626 1.122 5.692 4.874 5.482 7l-2.482 2c-0.35-5-1.603-7.222-3-9z" style="fill:#352217"/>
 <path d="m28 24v-4c0-2-0.809-3.236-3-5 0.61 1.414 1.566 3 1.27 5.54z" style="fill:#71b8d0"/>
 <path d="m28 24 3.464-2c1.732-1 2.398-2.319 2.83-5.098-0.92 1.235-1.815 2.856-4.163 3.87z" style="fill:#aba674"/>
 <path d="m31 33c-4.626-1.122-5.692-4.874-5.482-7l2.482-2c0.35 5 1.603 7.222 3 9z" style="fill:#be71d0"/>
 <path d="m28 24v4c0 2 0.809 3.236 3 5-0.61-1.414-1.566-3-1.27-5.54z" style="fill:#71b8d0"/>
 <path d="m31 33c-4.626-1.122-5.692-4.874-5.482-7l2.482-2c0.35 5 1.603 7.222 3 9z" style="fill:#352217"/>
 <path d="m18.706 22.1c3.284-3.445 7.07-2.493 8.803-1.247l0.491 3.149c-4.506-2.197-7.06-2.222-9.294-1.902z" style="fill:#352217"/>
 <path d="m28 24-3.464 2c-1.732 1-2.398 2.319-2.83 5.098 0.92-1.235 1.815-2.856 4.163-3.87z" style="fill:#aba674"/>
 <path d="m28 24-3.464-2c-1.732-1-3.207-0.917-5.83 0.098 1.53 0.179 3.381 0.144 5.433 1.67z" style="fill:#aba674"/>
 <path d="m28 24v-4c0-2-0.809-3.236-3-5 0.61 1.414 1.566 3 1.27 5.54z" style="fill:#aba674"/>
 <path d="m37.29 25.902c-3.284 3.445-7.07 2.493-8.803 1.247l-0.491-3.149c4.506 2.197 7.06 2.222 9.294 1.902z" style="fill:#352217"/>
 <path d="m28 24 3.464 2c1.732 1 3.207 0.917 5.83-0.098-1.53-0.179-3.381-0.144-5.433-1.67z" style="fill:#aba674"/>
 <path d="m28 24v4c0 2 0.809 3.236 3 5-0.61-1.414-1.566-3-1.27-5.54z" style="fill:#aba674"/>
</svg>
