<svg viewBox="0 0 48 48" xmlns="http://www.w3.org/2000/svg">
 <defs>
  <linearGradient id="linearGradient3764" x1="1" x2="47" gradientTransform="matrix(0 -1 1 0 -1.5e-6 48)" gradientUnits="userSpaceOnUse">
   <stop style="stop-color:#4e5b62" offset="0"/>
   <stop style="stop-color:#56656d" offset="1"/>
  </linearGradient>
 </defs>
 <path d="m36.31 5c5.859 4.062 9.688 10.831 9.688 18.5 0 12.426-10.07 22.5-22.5 22.5-7.669 0-14.438-3.828-18.5-9.688 1.037 1.822 2.306 3.499 3.781 4.969 4.085 3.712 9.514 5.969 15.469 5.969 12.703 0 23-10.298 23-23 0-5.954-2.256-11.384-5.969-15.469-1.469-1.475-3.147-2.744-4.969-3.781zm4.969 3.781c3.854 4.113 6.219 9.637 6.219 15.719 0 12.703-10.297 23-23 23-6.081 0-11.606-2.364-15.719-6.219 4.16 4.144 9.883 6.719 16.219 6.719 12.703 0 23-10.298 23-23 0-6.335-2.575-12.06-6.719-16.219z" style="opacity:.05"/>
 <path d="m41.28 8.781c3.712 4.085 5.969 9.514 5.969 15.469 0 12.703-10.297 23-23 23-5.954 0-11.384-2.256-15.469-5.969 4.113 3.854 9.637 6.219 15.719 6.219 12.703 0 23-10.298 23-23 0-6.081-2.364-11.606-6.219-15.719z" style="opacity:.1"/>
 <path d="m31.25 2.375c8.615 3.154 14.75 11.417 14.75 21.13 0 12.426-10.07 22.5-22.5 22.5-9.708 0-17.971-6.135-21.12-14.75a23 23 0 0 0 44.875-7 23 23 0 0 0-16-21.875z" style="opacity:.2"/>
 <path d="m24 1c12.703 0 23 10.297 23 23s-10.297 23-23 23-23-10.297-23-23 10.297-23 23-23z" style="fill:url(#linearGradient3764)"/>
 <g transform="translate(1,1)">
  <g style="opacity:.1">
   <path d="m23.531 16.07c-1.395 0.426-0.172 2.414-2.164 3.391-2.281 1.109-3.418-1.699-4.785 0.309-1.371 2 1.891 1.691 1.801 4.055-0.094 2.359-3.316 1.859-2.109 3.945 1.211 2.082 2.555-0.652 4.746 0.594 2.188 1.246 0.094 3.543 2.676 3.633 2.578 0.078 0.664-2.348 2.941-3.457 2.285-1.113 3.418 1.695 4.785-0.309 1.371-2.01-1.887-1.695-1.801-4.059 0.094-2.359 3.316-1.859 2.109-3.945-1.211-2.082-2.555 0.652-4.746-0.594-2.188-1.246-0.094-3.543-2.672-3.633-0.324-8e-3 -0.578 8e-3 -0.781 0.07"/>
   <path d="m24 9c-1.16 2.84-1.863 4.695-3.152 7.449 0.793 0.836 1.762 1.809 3.336 2.906-1.695-0.695-2.848-1.395-3.711-2.117-1.648 3.441-4.234 8.34-9.477 17.75 4.121-2.375 7.313-3.844 10.289-4.402-0.129-0.551-0.195-1.145-0.191-1.766l4e-3 -0.129c0.063-2.641 1.438-4.672 3.063-4.531 1.629 0.137 2.898 2.391 2.828 5.03-8e-3 0.496-0.07 0.973-0.164 1.414 2.941 0.578 6.105 2.039 10.172 4.383-0.801-1.473-1.52-2.805-2.203-4.07-1.078-0.832-2.199-1.918-4.492-3.094 1.574 0.41 2.703 0.883 3.582 1.41-6.945-12.93-7.512-14.648-9.891-20.242m8e-3 8e-3" style="fill-rule:evenodd"/>
  </g>
 </g>
 <path d="m23.531 16.07c-1.395 0.426-0.172 2.414-2.164 3.391-2.281 1.109-3.418-1.699-4.785 0.309-1.371 2 1.891 1.691 1.801 4.055-0.094 2.359-3.316 1.859-2.109 3.945 1.211 2.082 2.555-0.652 4.746 0.594 2.188 1.246 0.094 3.543 2.676 3.633 2.578 0.078 0.664-2.348 2.941-3.457 2.285-1.113 3.418 1.695 4.785-0.309 1.371-2.01-1.887-1.695-1.801-4.059 0.094-2.359 3.316-1.859 2.109-3.945-1.211-2.082-2.555 0.652-4.746-0.594-2.188-1.246-0.094-3.543-2.672-3.633-0.324-8e-3 -0.578 8e-3 -0.781 0.07" style="fill:#eaeaea"/>
 <path d="m24 9c-1.16 2.84-1.863 4.695-3.152 7.449 0.793 0.836 1.762 1.809 3.336 2.906-1.695-0.695-2.848-1.395-3.711-2.117-1.648 3.441-4.234 8.34-9.477 17.75 4.121-2.375 7.313-3.844 10.289-4.402-0.129-0.551-0.195-1.145-0.191-1.766l4e-3 -0.129c0.063-2.641 1.438-4.672 3.063-4.531 1.629 0.137 2.898 2.391 2.828 5.03-8e-3 0.496-0.07 0.973-0.164 1.414 2.941 0.578 6.105 2.039 10.172 4.383-0.801-1.473-1.52-2.805-2.203-4.07-1.078-0.832-2.199-1.918-4.492-3.094 1.574 0.41 2.703 0.883 3.582 1.41-6.945-12.93-7.512-14.648-9.891-20.242m8e-3 8e-3" style="fill-rule:evenodd;fill:#1793cf"/>
 <path d="m40.03 7.531c3.712 4.084 5.969 9.514 5.969 15.469 0 12.703-10.297 23-23 23-5.954 0-11.384-2.256-15.469-5.969 4.178 4.291 10.01 6.969 16.469 6.969 12.703 0 23-10.298 23-23 0-6.462-2.677-12.291-6.969-16.469z" style="opacity:.1"/>
</svg>
