<svg xmlns="http://www.w3.org/2000/svg" viewBox="0 0 48 48">
  <defs>
    <linearGradient id="a" x1="1" x2="47" gradientUnits="userSpaceOnUse" gradientTransform="rotate(-90 24 24)">
      <stop stop-color="#3d3d3d"/>
      <stop offset="1" stop-color="#474747"/>
    </linearGradient>
  </defs>
  <path d="M36.31 5c5.859 4.062 9.688 10.831 9.688 18.5 0 12.426-10.07 22.5-22.5 22.5-7.669 0-14.438-3.828-18.5-9.688a23.24 23.24 0 0 0 3.781 4.969 22.923 22.923 0 0 0 15.469 5.969c12.703 0 23-10.298 23-23a22.92 22.92 0 0 0-5.969-15.469A23.216 23.216 0 0 0 36.31 5zm4.969 3.781A22.911 22.911 0 0 1 47.498 24.5c0 12.703-10.297 23-23 23a22.909 22.909 0 0 1-15.719-6.219C12.939 45.425 18.662 48 24.998 48c12.703 0 23-10.298 23-23 0-6.335-2.575-12.06-6.719-16.219z" opacity=".05"/>
  <path d="M41.28 8.781a22.923 22.923 0 0 1 5.969 15.469c0 12.703-10.297 23-23 23A22.92 22.92 0 0 1 8.78 41.281 22.911 22.911 0 0 0 24.499 47.5c12.703 0 23-10.298 23-23A22.909 22.909 0 0 0 41.28 8.781z" opacity=".1"/>
  <path d="M31.25 2.375C39.865 5.529 46 13.792 46 23.505c0 12.426-10.07 22.5-22.5 22.5-9.708 0-17.971-6.135-21.12-14.75a23 23 0 0 0 44.875-7 23 23 0 0 0-16-21.875z" opacity=".2"/>
  <path d="M24 1C11.297 1 1 11.297 1 24c0 3.985 1.014 7.732 2.797 11 2.203 2 38.2 2 40.41 0a22.881 22.881 0 0 0 2.797-11c0-12.703-10.297-23-23-23" fill="url(#a)"/>
  <path d="M3.797 35c3.901 7.149 11.485 12 20.2 12 8.718 0 16.302-4.851 20.2-12H3.787z" fill="#e5e5e5"/>
  <g>
    <path d="M20 11v19.996L34.996 21M20 11" opacity=".1"/>
  </g>
  <g>
    <path d="M19 10v19.996L33.996 20M19 10" fill="#e5265b"/>
    <path d="M16.594 37h14.813c.879 0 1.594.715 1.594 1.594v.813c0 .879-.715 1.594-1.594 1.594H16.594A1.593 1.593 0 0 1 15 39.407v-.813c0-.879.711-1.594 1.594-1.594m0 0" fill="#9d9d9d"/>
    <path d="M16.594 37A1.59 1.59 0 0 0 15 38.594v.813a1.59 1.59 0 0 0 1.594 1.594H24v-4m-7.406 0" fill="#e5265b"/>
  </g>
  <g>
    <path d="M40.03 7.531A22.922 22.922 0 0 1 45.999 23c0 12.703-10.297 23-23 23A22.92 22.92 0 0 1 7.53 40.031C11.708 44.322 17.54 47 23.999 47c12.703 0 23-10.298 23-23 0-6.462-2.677-12.291-6.969-16.469z" opacity=".1"/>
  </g>
</svg>
