<svg xmlns="http://www.w3.org/2000/svg" viewBox="0 0 48 48">
  <defs>
    <linearGradient id="a" x1="1" x2="47" gradientUnits="userSpaceOnUse" gradientTransform="rotate(-90 24 24)">
      <stop stop-color="#6f6f6f"/>
      <stop offset="1" stop-color="#797979"/>
    </linearGradient>
  </defs>
  <path d="M36.31 5c5.859 4.062 9.688 10.831 9.688 18.5 0 12.426-10.07 22.5-22.5 22.5-7.669 0-14.438-3.828-18.5-9.688a23.24 23.24 0 0 0 3.781 4.969 22.923 22.923 0 0 0 15.469 5.969c12.703 0 23-10.298 23-23a22.92 22.92 0 0 0-5.969-15.469A23.216 23.216 0 0 0 36.31 5zm4.969 3.781A22.911 22.911 0 0 1 47.498 24.5c0 12.703-10.297 23-23 23a22.909 22.909 0 0 1-15.719-6.219C12.939 45.425 18.662 48 24.998 48c12.703 0 23-10.298 23-23 0-6.335-2.575-12.06-6.719-16.219z" opacity=".05"/>
  <path d="M41.28 8.781a22.923 22.923 0 0 1 5.969 15.469c0 12.703-10.297 23-23 23A22.92 22.92 0 0 1 8.78 41.281 22.911 22.911 0 0 0 24.499 47.5c12.703 0 23-10.298 23-23A22.909 22.909 0 0 0 41.28 8.781z" opacity=".1"/>
  <path d="M31.25 2.375C39.865 5.529 46 13.792 46 23.505c0 12.426-10.07 22.5-22.5 22.5-9.708 0-17.971-6.135-21.12-14.75a23 23 0 0 0 44.875-7 23 23 0 0 0-16-21.875z" opacity=".2"/>
  <path d="M24 1c12.703 0 23 10.297 23 23S36.703 47 24 47 1 36.703 1 24 11.297 1 24 1z" fill="url(#a)"/>
  <path d="M40.03 7.531A22.922 22.922 0 0 1 45.999 23c0 12.703-10.297 23-23 23A22.92 22.92 0 0 1 7.53 40.031C11.708 44.322 17.54 47 23.999 47c12.703 0 23-10.298 23-23 0-6.462-2.677-12.291-6.969-16.469z" opacity=".1"/>
  <path opacity=".1" d="M13 13h24v24H13z"/>
  <g>
    <path d="M24 24c-2 0-6 4-6 6h6v-6zm0 6h6v-6c-2 0-6 4-6 6zm6 0c-2 0-6 4-6 6h6v-6zm0 6h6v-6c-2 0-6 4-6 6z" fill="#7398c3"/>
    <path d="M18 24v6l6-6h-6zm6 0v6l6-6h-6zm0 6v6l6-6h-6zm6 0v6l6-6h-6z" fill="#8fb3dd"/>
    <path d="M19 25v4h4v-4h-4zm6 0v4h4v-4h-4zm0 6v4h4v-4h-4zm6 0v4h4v-4h-4z" fill="#65a2e7"/>
    <g>
      <path d="M18 12c-2 0-6 4-6 6h6v-6zm0 6h6v-6c-2 0-6 4-6 6zm6 0c-2 0-6 4-6 6h6v-6zm0 6h6v-6c-2 0-6 4-6 6z" fill="#e26868"/>
      <path d="M12 12v6l6-6h-6zm6 0v6l6-6h-6zm0 6v6l6-6h-6zm6 0v6l6-6h-6z" fill="#e97f7f"/>
      <path d="M18 18c-2 0-6 4-6 6h6v-6zm0 6c-2 0-6 4-6 6h6v-6zm0 6c-2 0-6 4-6 6h6v-6zm0 6h6v-6c-2 0-6 4-6 6z" fill="#d5d53e"/>
      <path d="M12 18v6l6-6h-6zm0 6v6l6-6h-6zm0 6v6l6-6h-6zm6 0v6l6-6h-6z" fill="#e3e26d"/>
      <path d="M13 19v4h4v-4h-4zm0 6v4h4v-4h-4zm0 6v4h4v-4h-4zm6 0v4h4v-4h-4z" fill="#dedd4e"/>
      <path d="M13 13v4h4v-4h-4zm6 0v4h4v-4h-4zm0 6v4h4v-4h-4zm6 0v4h4v-4h-4z" fill="#e87676"/>
      <g>
        <path d="M30 12c-2 0-6 4-6 6h6v-6zm0 6h6v-6c-2 0-6 4-6 6zm6 0c-2 0-6 4-6 6h6v-6zm0 6c-2 0-6 4-6 6h6v-6z" fill="#61d565"/>
        <path d="M24 12v6l6-6h-6zm6 0v6l6-6h-6zm0 6v6l6-6h-6zm0 6v6l6-6h-6z" fill="#7ae87c"/>
        <path d="M25 13v4h4v-4h-4zm6 0v4h4v-4h-4zm0 6v4h4v-4h-4zm0 6v4h4v-4h-4z" fill="#66e068"/>
      </g>
    </g>
  </g>
</svg>
