<svg viewBox="0 0 48 48" xmlns="http://www.w3.org/2000/svg">
 <defs>
  <linearGradient id="linearGradient3764" x1="1" x2="47" gradientTransform="matrix(0 -1 1 0 -1.5e-6 48)" gradientUnits="userSpaceOnUse">
   <stop style="stop-color:#c6e2f6" offset="0"/>
   <stop style="stop-color:#d7ebf9" offset="1"/>
  </linearGradient>
 </defs>
 <path d="m36.31 5c5.859 4.062 9.688 10.831 9.688 18.5 0 12.426-10.07 22.5-22.5 22.5-7.669 0-14.438-3.828-18.5-9.688 1.037 1.822 2.306 3.499 3.781 4.969 4.085 3.712 9.514 5.969 15.469 5.969 12.703 0 23-10.298 23-23 0-5.954-2.256-11.384-5.969-15.469-1.469-1.475-3.147-2.744-4.969-3.781zm4.969 3.781c3.854 4.113 6.219 9.637 6.219 15.719 0 12.703-10.297 23-23 23-6.081 0-11.606-2.364-15.719-6.219 4.16 4.144 9.883 6.719 16.219 6.719 12.703 0 23-10.298 23-23 0-6.335-2.575-12.06-6.719-16.219z" style="opacity:.05"/>
 <path d="m41.28 8.781c3.712 4.085 5.969 9.514 5.969 15.469 0 12.703-10.297 23-23 23-5.954 0-11.384-2.256-15.469-5.969 4.113 3.854 9.637 6.219 15.719 6.219 12.703 0 23-10.298 23-23 0-6.081-2.364-11.606-6.219-15.719z" style="opacity:.1"/>
 <path d="m31.25 2.375c8.615 3.154 14.75 11.417 14.75 21.13 0 12.426-10.07 22.5-22.5 22.5-9.708 0-17.971-6.135-21.12-14.75a23 23 0 0 0 44.875-7 23 23 0 0 0-16-21.875z" style="opacity:.2"/>
 <path d="m24 1c12.703 0 23 10.297 23 23s-10.297 23-23 23-23-10.297-23-23 10.297-23 23-23z" style="fill:url(#linearGradient3764)"/>
 <path d="m40.03 7.531c3.712 4.084 5.969 9.514 5.969 15.469 0 12.703-10.297 23-23 23-5.954 0-11.384-2.256-15.469-5.969 4.178 4.291 10.01 6.969 16.469 6.969 12.703 0 23-10.298 23-23 0-6.462-2.677-12.291-6.969-16.469z" style="opacity:.1"/>
 <path d="m25 11c-0.592 1.776-3.622 5.313-6.01 9.141l4.408 7.559 5.627-10.531c-1.841-2.608-3.594-4.868-4.03-6.168m4.867 7.363-3.867 6.637h7.434c-0.741-2.203-2.117-4.506-3.566-6.637m-11.555 2.889c-1.321 2.294-2.313 4.644-2.313 6.748 0 1.054 0.191 2.06 0.523 3h7.477l-5.688-9.748zm10.488 4.748 4.01 6.461c0.753-1.316 1.189-2.836 1.189-4.461 0-0.645-0.107-1.317-0.273-2h-4.926zm1.199 4-3.842 6.916c2.388-0.308 4.48-1.547 5.902-3.348l-2.061-3.568m-13.05 2c1.414 2.841 4.28 4.823 7.631 4.979l2.822-4.979h-10.453z" style="opacity:.1"/>
 <path d="m24 10c-0.592 1.776-3.622 5.313-6.01 9.141l4.408 7.559 5.627-10.531c-1.841-2.608-3.594-4.868-4.03-6.168m4.867 7.363-3.867 6.637h7.434c-0.741-2.203-2.117-4.506-3.566-6.637m-11.555 2.889c-1.321 2.294-2.313 4.644-2.313 6.748 0 1.054 0.191 2.06 0.523 3h7.477l-5.688-9.748zm10.488 4.748 4.01 6.461c0.753-1.316 1.189-2.836 1.189-4.461 0-0.645-0.107-1.317-0.273-2h-4.926zm1.199 4-3.842 6.916c2.388-0.308 4.48-1.547 5.902-3.348l-2.061-3.568m-13.05 2c1.414 2.841 4.28 4.823 7.631 4.979l2.822-4.979h-10.453z" style="fill:#3f7dd7"/>
</svg>
