<svg xmlns="http://www.w3.org/2000/svg" viewBox="0 0 48 48">
  <defs>
    <linearGradient id="a" x1="1" x2="47" gradientUnits="userSpaceOnUse" gradientTransform="rotate(-90 24 24)">
      <stop stop-color="#57b1cf"/>
      <stop offset="1" stop-color="#67b8d3"/>
    </linearGradient>
    <linearGradient id="b" gradientUnits="userSpaceOnUse" x1="6.905" y1="10.308" x2="6.712" y2="4.634" gradientTransform="matrix(1.02632 0 0 1.02 -.178 -.135)">
      <stop stop-color="#d5ecf1"/>
      <stop offset="1" stop-color="#f9f9f9"/>
    </linearGradient>
  </defs>
  <path d="M36.31 5c5.859 4.062 9.688 10.831 9.688 18.5 0 12.426-10.07 22.5-22.5 22.5-7.669 0-14.438-3.828-18.5-9.688a23.24 23.24 0 0 0 3.781 4.969 22.923 22.923 0 0 0 15.469 5.969c12.703 0 23-10.298 23-23a22.92 22.92 0 0 0-5.969-15.469A23.216 23.216 0 0 0 36.31 5zm4.969 3.781A22.911 22.911 0 0 1 47.498 24.5c0 12.703-10.297 23-23 23a22.909 22.909 0 0 1-15.719-6.219C12.939 45.425 18.662 48 24.998 48c12.703 0 23-10.298 23-23 0-6.335-2.575-12.06-6.719-16.219z" opacity=".05"/>
  <path d="M41.28 8.781a22.923 22.923 0 0 1 5.969 15.469c0 12.703-10.297 23-23 23A22.92 22.92 0 0 1 8.78 41.281 22.911 22.911 0 0 0 24.499 47.5c12.703 0 23-10.298 23-23A22.909 22.909 0 0 0 41.28 8.781z" opacity=".1"/>
  <path d="M31.25 2.375C39.865 5.529 46 13.792 46 23.505c0 12.426-10.07 22.5-22.5 22.5-9.708 0-17.971-6.135-21.12-14.75a23 23 0 0 0 44.875-7 23 23 0 0 0-16-21.875z" opacity=".2"/>
  <path d="M24 1c12.703 0 23 10.297 23 23S36.703 47 24 47 1 36.703 1 24 11.297 1 24 1z" fill="url(#a)"/>
  <path d="M24.984 12a3.643 3.643 0 0 0-1.625.354c-1.965.939-3.049 3.694-2.01 7.445l-5.73 5.287-.008.008c-.235.258-.4.482-.504.686-.104.204-.151.408-.098.602.053.194.207.329.375.408.168.079.36.119.58.145.882.104 2.234-.037 3.467.021h.021c-.035.86 0 1.568.049 2.098.04.549.05.926-.021 1.127a.415.415 0 0 1-.166.223c-.456.222-.979.193-1.488.213h-.289c-.256 0-.49 0-.805-.006l-.221-.008c-.216 1.054-.084 2.246.127 3.184a4.745 4.745 0 0 0 .42.969 4.76 4.76 0 0 0 1.26 1.42c1.508 1.139 3.784 1.662 6.65 1.813l.068.006.063-.033c1.076-.595 1.76-1.047 2.34-1.17.58-.123 1.113.021 2.035.727l.125.098.145-.076c1.739-.943 3.805-2.138 4.748-3.51.471-.686.648-1.467.275-2.207-.355-.704-1.226-1.334-2.594-1.932l-.596-3.287c.612-.008 1.153-.03 1.48-.109a1.28 1.28 0 0 0 .479-.209.54.54 0 0 0 .221-.408c0-.318-.22-.529-.492-.762a9.028 9.028 0 0 0-1.051-.74c-.827-.517-1.854-1.085-2.686-1.639-.416-.277-.783-.547-1.045-.797-.257-.245-.395-.462-.422-.602-.036-.701.019-1.119.131-1.322.113-.205.277-.278.645-.34.735-.123 2.114-.064 4.186-.713l.152-.041.021-.158c.058-.455.053-.845-.049-1.184a1.694 1.694 0 0 0-.588-.846c-.56-.448-1.439-.728-2.719-1.113-.902-1.591-1.985-2.676-3.115-3.205a4.244 4.244 0 0 0-1.746-.414" white-space="normal" solid-color="#000000" fill="#2d2d2d" color="#000" opacity=".1"/>
  <g>
    <path d="M4.437 8.43c1.184.039.794-.119.842-1.121.977-.742.775-.911-.073-.053-.711-.034-1.54.154-1.029-.407l1.637-1.51c-.637-2.139 1.279-3 2.292-1.15.742.223.975.324.912.815-1.15.36-1.494-.082-1.45.743.088.531 2.8 1.428.98 1.414l.186 1.031c1.659.691.323 1.529-.655 2.059-.535-.409-.708-.214-1.31.119-1.604-.084-2.519-.602-2.337-1.938m-.001-.002" transform="matrix(3.5433 0 0 3.5433 0 0)" fill="url(#b)" stroke="#2d2d2d" stroke-width=".141"/>
    <path d="M18.566 29.725a6.179 6.179 0 0 1-1.084.12l-.262.014-.383.011h-.297c-.259 0-.493-.003-.808-.01-.195 1.47-.04 2.66.464 3.614l.113-.025c1.372-.564 1.953-2.133 2.254-3.735m.003 0M26.443 23.446c-2.983-.1-5.39 5.343-.375 11.888.719-1.743 1.555-5.68 4.737-6.406-1.035-3.852-2.806-5.418-4.369-5.482m-.003 0M28.661 14.719l-.085.092c-2.016.29-4.305 3.281-1.364 3.667l.418-.028c.762-.188 2.133-.039 4.34-.73.224-1.726-.602-2.105-3.234-2.895-.032-.039-.043-.078-.075-.117m0 0" fill="none" stroke="#2d2d2d" stroke-width=".49960670999999995"/>
    <path d="M26 15a1.001 1.001 0 1 1-2 0 .998.998 0 0 1 1.504-.883A1 1 0 0 1 26 15m0 0" fill="#2d2d2d"/>
  </g>
  <g>
    <path d="M40.03 7.531A22.922 22.922 0 0 1 45.999 23c0 12.703-10.297 23-23 23A22.92 22.92 0 0 1 7.53 40.031C11.708 44.322 17.54 47 23.999 47c12.703 0 23-10.298 23-23 0-6.462-2.677-12.291-6.969-16.469z" opacity=".1"/>
  </g>
</svg>
