<svg xmlns="http://www.w3.org/2000/svg" viewBox="0 0 48 48">
  <defs>
    <linearGradient id="a" x1="1" x2="47" gradientUnits="userSpaceOnUse" gradientTransform="rotate(-90 24 24)">
      <stop stop-color="#d52f3f"/>
      <stop offset="1" stop-color="#d8404d"/>
    </linearGradient>
  </defs>
  <path d="M36.31 5c5.859 4.062 9.688 10.831 9.688 18.5 0 12.426-10.07 22.5-22.5 22.5-7.669 0-14.438-3.828-18.5-9.688a23.24 23.24 0 0 0 3.781 4.969 22.923 22.923 0 0 0 15.469 5.969c12.703 0 23-10.298 23-23a22.92 22.92 0 0 0-5.969-15.469A23.216 23.216 0 0 0 36.31 5zm4.969 3.781A22.911 22.911 0 0 1 47.498 24.5c0 12.703-10.297 23-23 23a22.909 22.909 0 0 1-15.719-6.219C12.939 45.425 18.662 48 24.998 48c12.703 0 23-10.298 23-23 0-6.335-2.575-12.06-6.719-16.219z" opacity=".05"/>
  <path d="M41.28 8.781a22.923 22.923 0 0 1 5.969 15.469c0 12.703-10.297 23-23 23A22.92 22.92 0 0 1 8.78 41.281 22.911 22.911 0 0 0 24.499 47.5c12.703 0 23-10.298 23-23A22.909 22.909 0 0 0 41.28 8.781z" opacity=".1"/>
  <path d="M31.25 2.375C39.865 5.529 46 13.792 46 23.505c0 12.426-10.07 22.5-22.5 22.5-9.708 0-17.971-6.135-21.12-14.75a23 23 0 0 0 44.875-7 23 23 0 0 0-16-21.875z" opacity=".2"/>
  <path d="M24 1c12.703 0 23 10.297 23 23S36.703 47 24 47 1 36.703 1 24 11.297 1 24 1z" fill="url(#a)"/>
  <path d="M27.996 13.996c-3.798 0-6.972 2.651-7.789 6.201-.871-.736-1.981-1.197-3.211-1.197-2.758 0-5 2.238-5 5 0 1.938 1.118 3.602 2.732 4.432A4.945 4.945 0 0 0 13.996 31c0 2.758 2.242 5 5 5a4.958 4.958 0 0 0 3.32-1.289c2.608 1.157 5.68 1.027 8.18-.406.738.43 1.585.695 2.5.695 2.762 0 5-2.242 5-5 0-1.976-1.158-3.671-2.824-4.482a7.955 7.955 0 0 0 .824-3.521 8 8 0 0 0-8-8z" opacity=".1"/>
  <g>
    <path d="M20.996 23c0 2.758-2.238 5-5 5-2.758 0-5-2.242-5-5 0-2.762 2.242-5 5-5 2.762 0 5 2.242 5 5m0 0" fill="#f4e5d6"/>
    <path d="M34.996 20.996a8 8 0 1 1-16 0 8 8 0 0 1 16 0m0 0" fill="#f4e5d6"/>
    <path d="M36.996 29c0 2.758-2.238 5-5 5-2.758 0-5-2.242-5-5 0-2.762 2.242-5 5-5 2.762 0 5 2.242 5 5m0 0M22.996 30c0 2.758-2.238 5-5 5-2.758 0-5-2.242-5-5 0-2.762 2.242-5 5-5 2.762 0 5 2.242 5 5m0 0" fill="#f4e5d6"/>
    <path d="M20 24h9.996v9c-3 1.996-7 1.996-9.996 0m0-9" fill="#f4e5d6"/>
    <path d="M21 23.5a2.5 2.5 0 1 1-5 0 2.5 2.5 0 0 1 5 0m0 0M31 23.5a2.5 2.5 0 1 1-5 0 2.5 2.5 0 0 1 5 0m0 0" fill="#2d2d2d"/>
    <path d="M21.5 27h5c0 6-5 6-5 0m0 0" fill="#e5043e"/>
    <path d="M19.5 24c0 .551-.449 1-1 1-.551 0-1-.449-1-1 0-.551.449-1 1-1 .551 0 1 .449 1 1m0 0M29.5 24c0 .551-.449 1-1 1-.551 0-1-.449-1-1 0-.551.449-1 1-1 .551 0 1 .449 1 1m0 0" fill="#f9f9f9"/>
  </g>
  <g>
    <path d="M40.03 7.531A22.922 22.922 0 0 1 45.999 23c0 12.703-10.297 23-23 23A22.92 22.92 0 0 1 7.53 40.031C11.708 44.322 17.54 47 23.999 47c12.703 0 23-10.298 23-23 0-6.462-2.677-12.291-6.969-16.469z" opacity=".1"/>
  </g>
</svg>
