<svg viewBox="0 0 48 48" xmlns="http://www.w3.org/2000/svg">
 <path d="m36.31 5c5.859 4.062 9.688 10.831 9.688 18.5 0 12.426-10.07 22.5-22.5 22.5-7.669 0-14.438-3.828-18.5-9.688 1.037 1.822 2.306 3.499 3.781 4.969 4.085 3.712 9.514 5.969 15.469 5.969 12.703 0 23-10.298 23-23 0-5.954-2.256-11.384-5.969-15.469-1.469-1.475-3.147-2.744-4.969-3.781zm4.969 3.781c3.854 4.113 6.219 9.637 6.219 15.719 0 12.703-10.297 23-23 23-6.081 0-11.606-2.364-15.719-6.219 4.16 4.144 9.883 6.719 16.219 6.719 12.703 0 23-10.298 23-23 0-6.335-2.575-12.06-6.719-16.219z" style="opacity:.05"/>
 <path d="m41.28 8.781c3.712 4.085 5.969 9.514 5.969 15.469 0 12.703-10.297 23-23 23-5.954 0-11.384-2.256-15.469-5.969 4.113 3.854 9.637 6.219 15.719 6.219 12.703 0 23-10.298 23-23 0-6.081-2.364-11.606-6.219-15.719z" style="opacity:.1"/>
 <path d="m31.25 2.375c8.615 3.154 14.75 11.417 14.75 21.13 0 12.426-10.07 22.5-22.5 22.5-9.708 0-17.971-6.135-21.12-14.75a23 23 0 0 0 44.875-7 23 23 0 0 0-16-21.875z" style="opacity:.2"/>
 <path d="m24 1c-12.703 0-23 10.297-23 23h23v-23z" style="fill-rule:evenodd;fill:#4cbed6"/>
 <path d="m24 24v23c12.703 0 23-10.297 23-23h-23z" style="fill-rule:evenodd;fill:#f4ba5f"/>
 <path d="m24 1v23h23c0-12.703-10.297-23-23-23z" style="fill-rule:evenodd;fill:#86d0e3"/>
 <path d="m1 24c0 12.703 10.297 23 23 23v-23h-23z" style="fill-rule:evenodd;fill:#28a9c8"/>
 <path d="m36.926 13v3.715h-5.664l-0.492 7.727c-0.098 1.34-0.145 2.504-0.145 3.484 0 2.355 0.258 3.793 0.781 4.324 0.539 0.508 1.18 0.762 1.926 0.762 1.563 0 2.492-1.027 2.785-3.078h0.879c-0.539 4.715-2.34 7.07-5.422 7.07-1.43 0-2.586-0.457-3.465-1.371-0.859-0.914-1.293-2.273-1.293-4.066 0-1.188 0.172-3.699 0.516-7.527l0.656-7.32h-5.176c-0.34 6.168-0.758 10.664-1.242 13.523-0.473 2.848-1 4.688-1.59 5.52-0.57 0.828-1.348 1.246-2.34 1.246-0.75 0-1.383-0.23-1.902-0.688-0.504-0.457-0.762-1.059-0.762-1.805 0-0.711 0.441-1.688 1.32-2.922 1.285-1.797 2.246-3.66 2.879-5.598 0.637-1.945 1.117-5.04 1.445-9.277h-1.664c-1.336 0-2.359 0.313-3.074 0.938-0.703 0.609-1.367 1.492-2 2.645h-0.879c0.473-1.816 1.082-3.305 1.832-4.477 0.75-1.168 1.516-1.93 2.297-2.289 0.797-0.352 2.203-0.535 4.223-0.535h15.578" style="opacity:.1"/>
 <path d="m35.926 12v3.715h-5.664l-0.492 7.727c-0.098 1.34-0.145 2.504-0.145 3.484 0 2.355 0.258 3.793 0.781 4.324 0.539 0.508 1.18 0.762 1.926 0.762 1.563 0 2.492-1.027 2.785-3.078h0.879c-0.539 4.715-2.34 7.07-5.422 7.07-1.43 0-2.586-0.457-3.465-1.371-0.859-0.914-1.293-2.273-1.293-4.066 0-1.188 0.172-3.699 0.516-7.527l0.656-7.32h-5.176c-0.34 6.168-0.758 10.664-1.242 13.523-0.473 2.848-1 4.688-1.59 5.52-0.57 0.828-1.348 1.246-2.34 1.246-0.75 0-1.383-0.23-1.902-0.688-0.504-0.457-0.762-1.059-0.762-1.805 0-0.711 0.441-1.688 1.32-2.922 1.285-1.797 2.246-3.66 2.879-5.598 0.637-1.945 1.117-5.04 1.445-9.277h-1.664c-1.336 0-2.359 0.313-3.074 0.938-0.703 0.609-1.367 1.492-2 2.645h-0.879c0.473-1.816 1.082-3.305 1.832-4.477 0.75-1.168 1.516-1.93 2.297-2.289 0.797-0.352 2.203-0.535 4.223-0.535h15.578" style="fill:#f9f9f9"/>
 <path d="m40.03 7.531c3.712 4.084 5.969 9.514 5.969 15.469 0 12.703-10.297 23-23 23-5.954 0-11.384-2.256-15.469-5.969 4.178 4.291 10.01 6.969 16.469 6.969 12.703 0 23-10.298 23-23 0-6.462-2.677-12.291-6.969-16.469z" style="opacity:.1"/>
</svg>
