<svg xmlns="http://www.w3.org/2000/svg" xmlns:xlink="http://www.w3.org/1999/xlink" viewBox="0 0 48 48">
  <defs>
    <linearGradient id="c" gradientUnits="userSpaceOnUse" gradientTransform="scale(3.5433)" x1="4.798" x2="9.596">
      <stop stop-color="#868bec"/>
      <stop offset="1" stop-color="#868bec" stop-opacity="0"/>
    </linearGradient>
    <linearGradient id="b" gradientUnits="userSpaceOnUse" gradientTransform="scale(3.5433)" x1="5.08" x2="8.467">
      <stop stop-color="#3cb943"/>
      <stop offset="1" stop-color="#3cb943" stop-opacity="0"/>
    </linearGradient>
    <linearGradient id="a" gradientUnits="userSpaceOnUse" gradientTransform="rotate(-90 24 24)" x1="1" x2="47">
      <stop stop-color="#c5c5c5"/>
      <stop offset="1" stop-color="#cfcfcf"/>
    </linearGradient>
  </defs>
  <path d="M36.31 5c5.859 4.062 9.688 10.831 9.688 18.5 0 12.426-10.07 22.5-22.5 22.5-7.669 0-14.438-3.828-18.5-9.688a23.24 23.24 0 0 0 3.781 4.969 22.923 22.923 0 0 0 15.469 5.969c12.703 0 23-10.298 23-23a22.92 22.92 0 0 0-5.969-15.469A23.216 23.216 0 0 0 36.31 5zm4.969 3.781A22.911 22.911 0 0 1 47.498 24.5c0 12.703-10.297 23-23 23a22.909 22.909 0 0 1-15.719-6.219C12.939 45.425 18.662 48 24.998 48c12.703 0 23-10.298 23-23 0-6.335-2.575-12.06-6.719-16.219z" opacity=".05"/>
  <path d="M41.28 8.781a22.923 22.923 0 0 1 5.969 15.469c0 12.703-10.297 23-23 23A22.92 22.92 0 0 1 8.78 41.281 22.911 22.911 0 0 0 24.499 47.5c12.703 0 23-10.298 23-23A22.909 22.909 0 0 0 41.28 8.781z" opacity=".1"/>
  <path d="M31.25 2.375C39.865 5.529 46 13.792 46 23.505c0 12.426-10.07 22.5-22.5 22.5-9.708 0-17.971-6.135-21.12-14.75a23 23 0 0 0 44.875-7 23 23 0 0 0-16-21.875z" opacity=".2"/>
  <path d="M24 1a22.86 22.86 0 0 0-9.344 2v42c2.859 1.275 6.01 2 9.344 2 12.703 0 23-10.297 23-23S36.703 1 24 1z" fill="url(#a)"/>
  <path d="M24 1C11.297 1 1 11.297 1 24c0 7.114 3.24 13.469 8.313 17.688l16.06-12.563 7.781 9.281v-35.5A22.871 22.871 0 0 0 23.998 1z" fill="url(#b)"/>
  <path d="M25.375 29.13L9.315 41.693a22.883 22.883 0 0 0 14.688 5.313c4.821 0 9.303-1.496 13-4.03L25.378 29.132z" id="d" fill="url(#c)"/>
  <path d="M43 11.06L7.437 39.935a23.194 23.194 0 0 0 3.094 2.719l34.406-28.16a23.175 23.175 0 0 0-1.938-3.438z" id="e" fill="#ffe68e"/>
  <path d="M26.969 27.813l-2.625 2.5 11.219 13.563a22.742 22.742 0 0 0 2.688-1.844L26.97 27.813z" id="f" fill="#ffe68e"/>
  <path id="g" d="M17.965 23h13.773v4H17.965m0-4" fill="#ff6f03"/>
  <path id="h" d="M31 23v4h2.438s.563-.324.563-2c0-1.609-.621-1.996-.621-1.996h-2.375M31.001 23" fill="#ff2d5b"/>
  <path id="i" d="M18 23l-4 1.996 4 2v-4M18 23" fill="#ffc13d"/>
  <path d="M43.75 12.25L29.312 24H18.968l-3.969 2 3.969 2h5.406l-9.719 9.5v3.594l11.188-9.156 9.844 11.875a22.698 22.698 0 0 0 2.688-1.875l-9.75-12.281 2.031-1.656h3.782s.041-.006.094-.063c.158-.17.469-.68.469-1.938 0-.653-.097-1.069-.219-1.375l10.719-8.781a22.745 22.745 0 0 0-1.75-3.594z" opacity=".1"/>
  <path id="j" d="M16 23.98l-1.996 1.016L16 26.016m0-2.035" fill="#2d2d2d"/>
  <use xlink:href="#d"/>
  <use xlink:href="#e"/>
  <path d="M40.03 7.531A22.922 22.922 0 0 1 45.999 23c0 12.703-10.297 23-23 23A22.92 22.92 0 0 1 7.53 40.031C11.708 44.322 17.54 47 23.999 47c12.703 0 23-10.298 23-23 0-6.462-2.677-12.291-6.969-16.469z" opacity=".1"/>
  <use xlink:href="#f"/>
  <use xlink:href="#g"/>
  <use xlink:href="#h"/>
  <use xlink:href="#i"/>
  <use xlink:href="#j"/>
</svg>
