<svg viewBox="0 0 48 48" xmlns="http://www.w3.org/2000/svg">
  <defs>
    <linearGradient id="a" x1="1" x2="47" y1="24" y2="24" gradientUnits="userSpaceOnUse">
      <stop offset="0" stop-color="#333"/>
      <stop offset="1" stop-color="#333" stop-opacity="0"/>
    </linearGradient>
    <linearGradient id="b" x1="1" x2="47" gradientUnits="userSpaceOnUse">
      <stop offset="0" stop-color="#323232"/>
      <stop offset="1" stop-color="#3c3c3c"/>
    </linearGradient>
  </defs>
  <path d="M36.31 5c5.859 4.062 9.688 10.831 9.688 18.5 0 12.426-10.07 22.5-22.5 22.5-7.669 0-14.438-3.828-18.5-9.688a23.24 23.24 0 0 0 3.781 4.969 22.923 22.923 0 0 0 15.469 5.969c12.703 0 23-10.298 23-23a22.92 22.92 0 0 0-5.969-15.469A23.216 23.216 0 0 0 36.31 5zm4.969 3.781A22.911 22.911 0 0 1 47.498 24.5c0 12.703-10.297 23-23 23a22.909 22.909 0 0 1-15.719-6.219C12.939 45.425 18.662 48 24.998 48c12.703 0 23-10.298 23-23 0-6.335-2.575-12.06-6.719-16.219z" opacity=".05"/>
  <path d="M41.28 8.781a22.923 22.923 0 0 1 5.969 15.469c0 12.703-10.297 23-23 23A22.92 22.92 0 0 1 8.78 41.281 22.911 22.911 0 0 0 24.499 47.5c12.703 0 23-10.298 23-23A22.909 22.909 0 0 0 41.28 8.781z" opacity=".1"/>
  <path d="M31.25 2.375C39.865 5.529 46 13.792 46 23.505c0 12.426-10.07 22.5-22.5 22.5-9.708 0-17.971-6.135-21.12-14.75a23 23 0 0 0 44.875-7 23 23 0 0 0-16-21.875z" opacity=".2"/>
  <path d="M24 1c12.703 0 23 10.297 23 23S36.703 47 24 47 1 36.703 1 24 11.297 1 24 1z" fill="url(#b)" transform="rotate(-90 24 24)"/>
  <path d="M40 25a15 15 0 0 1-15 15 15 15 0 0 1-15-15 15 15 0 0 1 15-15 15 15 0 0 1 15 15z" opacity=".1"/>
  <path d="M15 12.018A15 15 0 0 0 9 24a15 15 0 0 0 6 11.977c2.512-7.473 2.817-15.297 0-23.959z" fill-rule="evenodd" fill="#ff5656"/>
  <path d="M21 9.32a15 15 0 0 0-6 2.698v23.959a15 15 0 0 0 6 2.718c2.272-8.79 3.034-17.986 0-29.375z" fill-rule="evenodd" fill="#ffa656"/>
  <path d="M24 9a15 15 0 0 0-3 .32v29.375A15 15 0 0 0 24 39a15.002 15.002 0 0 0 3-.32c1.526-9.823 1.14-19.633 0-29.375A15 15 0 0 0 24 9z" fill-rule="evenodd" fill="#fffe69"/>
  <path d="M27 9.305V38.68a15 15 0 0 0 6-2.698c2.183-7.17 3.113-14.812 0-23.959a15 15 0 0 0-6-2.718z" fill-rule="evenodd" fill="#71f286"/>
  <path d="M33 12.023v23.959A15 15 0 0 0 39 24a15 15 0 0 0-6-11.977z" fill-rule="evenodd" fill="#77baff"/>
  <path d="M40.03 7.531A22.922 22.922 0 0 1 45.999 23c0 12.703-10.297 23-23 23A22.92 22.92 0 0 1 7.53 40.031C11.708 44.322 17.54 47 23.999 47c12.703 0 23-10.298 23-23 0-6.462-2.677-12.291-6.969-16.469z" opacity=".1"/>
  <path d="M32 25a7 7 0 0 1-7 7 7 7 0 0 1-7-7 7 7 0 0 1 7-7 7 7 0 0 1 7 7z" fill-rule="evenodd" fill="#1a1a1a" opacity=".1" paint-order="markers stroke fill"/>
  <path d="M31 24a7 7 0 0 1-7 7 7 7 0 0 1-7-7 7 7 0 0 1 7-7 7 7 0 0 1 7 7z" fill-rule="evenodd" fill="#1a1a1a" paint-order="markers stroke fill"/>
  <path d="M26.996 18.809l-.998 1.73a4 4 0 0 1 1.46 1.463l1.731-.998a6 6 0 0 0-2.193-2.195z" fill-rule="evenodd" fill="#fff"/>
</svg>
