<svg xmlns="http://www.w3.org/2000/svg" xmlns:xlink="http://www.w3.org/1999/xlink" viewBox="0 0 48 48">
  <defs>
    <linearGradient id="a" x1="1" x2="47" gradientUnits="userSpaceOnUse" gradientTransform="rotate(-90 24 24)">
      <stop stop-color="#48a113"/>
      <stop offset="1" stop-color="#4fb215"/>
    </linearGradient>
  </defs>
  <path d="M36.31 5c5.859 4.062 9.688 10.831 9.688 18.5 0 12.426-10.07 22.5-22.5 22.5-7.669 0-14.438-3.828-18.5-9.688a23.24 23.24 0 0 0 3.781 4.969 22.923 22.923 0 0 0 15.469 5.969c12.703 0 23-10.298 23-23a22.92 22.92 0 0 0-5.969-15.469A23.216 23.216 0 0 0 36.31 5zm4.969 3.781A22.911 22.911 0 0 1 47.498 24.5c0 12.703-10.297 23-23 23a22.909 22.909 0 0 1-15.719-6.219C12.939 45.425 18.662 48 24.998 48c12.703 0 23-10.298 23-23 0-6.335-2.575-12.06-6.719-16.219z" opacity=".05"/>
  <path d="M41.28 8.781a22.923 22.923 0 0 1 5.969 15.469c0 12.703-10.297 23-23 23A22.92 22.92 0 0 1 8.78 41.281 22.911 22.911 0 0 0 24.499 47.5c12.703 0 23-10.298 23-23A22.909 22.909 0 0 0 41.28 8.781z" opacity=".1"/>
  <path d="M31.25 2.375C39.865 5.529 46 13.792 46 23.505c0 12.426-10.07 22.5-22.5 22.5-9.708 0-17.971-6.135-21.12-14.75a23 23 0 0 0 44.875-7 23 23 0 0 0-16-21.875z" opacity=".2"/>
  <path d="M24 1c12.703 0 23 10.297 23 23S36.703 47 24 47 1 36.703 1 24 11.297 1 24 1z" fill="url(#a)"/>
  <g transform="translate(1 1)" opacity=".1">
    <use xlink:href="#b"/>
    <path d="M29.2 28.551v-7.098h-1.434v-2.367c2.148 0 1.434 0 2.508-4.055h2.863v4.055h2.867v2.367h-2.867v6.082c0 .633.141 1.105.418 1.426.273.316.641.48 1.094.48.574.051 1.355-.215 1.355-.215v2.363c-.07.051-3.527 1.043-5.371 0-1.793-1.012-1.434-3.039-1.434-3.039m0 0M19.2 12.01c-2.422 0-4.227.867-5.418 2.602-1.188 1.719-1.781 4.207-1.781 7.465 0 3.328.594 5.855 1.781 7.605.828 1.219 1.941 2.01 3.332 2.375 0 0 .281-.012.305.27.48 3.68 2.914 3.684 5.688 3.684 0 0 .359 0 .359-.336v-2.027c0-.34-.359-.34-.359-.34-1.387 0-1.746.086-2.113-1.227a6.359 6.359 0 0 0 1.316-.453 5.787 5.787 0 0 0 2.258-1.965c.598-.867 1.035-1.938 1.32-3.211.297-1.27.441-2.727.441-4.375 0-3.293-.602-5.797-1.813-7.5-1.207-1.711-2.984-2.566-5.316-2.566m-.02 1.648c.512 0 .895.168 1.223.52.191.199.359.457.52.77.086.227.176.473.242.75.191.746.324 1.648.402 2.723.078 1.074.109 2.293.109 3.656 0 1.371-.031 2.605-.109 3.695-.078 1.086-.215 2-.402 2.766-.07.285-.152.547-.242.785-.02.027-.027.063-.043.094a3.307 3.307 0 0 1-.477.695c-.324.367-.715.539-1.223.539-.504 0-.898-.172-1.219-.539-.32-.375-.582-.918-.773-1.648-.191-.742-.324-1.645-.402-2.715a53.659 53.659 0 0 1-.125-3.676c0-1.355.043-2.563.125-3.625.078-1.059.211-1.953.402-2.672.191-.719.457-1.254.773-1.605.32-.348.711-.52 1.219-.52m0 .008"/>
  </g>
  <g>
    <path d="M23.996 9C15.715 9 9 15.715 9 23.996c0 8.285 6.715 15 14.996 15 8.285 0 15-6.715 15-15 0-8.281-6.715-14.996-15-14.996m3.125 5.609a2.056 2.056 0 0 1 2.813-.758 2.068 2.068 0 0 1 .758 2.816 2.064 2.064 0 0 1-2.816.758 2.064 2.064 0 0 1-.758-2.816M14.122 26.242a2.066 2.066 0 0 1-2.066-2.063 2.07 2.07 0 0 1 2.066-2.066c1.137 0 2.063.926 2.063 2.066a2.066 2.066 0 0 1-2.063 2.063m3.766 4.03a8.6 8.6 0 0 1-2.164-3.605 2.95 2.95 0 0 0 1.355-2.484 2.95 2.95 0 0 0-1.355-2.484 8.632 8.632 0 0 1 3.336-4.589l1.77 3.063a5.09 5.09 0 0 0-1.945 4.01c0 1.625.766 3.074 1.945 4.01l-1.77 3.066a8.933 8.933 0 0 1-1.168-.98m12.05 4.23a2.068 2.068 0 0 1-2.816-.754 2.066 2.066 0 0 1 .758-2.816 2.06 2.06 0 0 1 2.059 3.566m.316-4.418a2.964 2.964 0 0 0-2.824.066 2.964 2.964 0 0 0-1.477 2.414 8.77 8.77 0 0 1-1.977.23 8.567 8.567 0 0 1-3.668-.816l1.766-3.066c.59.238 1.23.371 1.902.371a5.106 5.106 0 0 0 5.05-4.387h3.535a8.578 8.578 0 0 1-2.309 5.188m-1.223-6.625a5.11 5.11 0 0 0-5.05-4.383 5.14 5.14 0 0 0-1.902.367l-1.77-3.063a8.676 8.676 0 0 1 5.645-.589 2.944 2.944 0 0 0 1.477 2.41 2.933 2.933 0 0 0 2.82.074 8.552 8.552 0 0 1 2.316 5.184h-3.539m.004 0" id="b" fill-opacity=".392"/>
    <path d="M29.2 28.551v-7.098h-1.434v-2.367c2.148 0 1.434 0 2.508-4.055h2.863v4.055h2.867v2.367h-2.867v6.082c0 .633.141 1.105.418 1.426.273.316.641.48 1.094.48.574.051 1.355-.215 1.355-.215v2.363c-.07.051-3.527 1.043-5.371 0-1.793-1.012-1.434-3.039-1.434-3.039m0 0M19.2 12.01c-2.422 0-4.227.867-5.418 2.602-1.188 1.719-1.781 4.207-1.781 7.465 0 3.328.594 5.855 1.781 7.605.828 1.219 1.941 2.01 3.332 2.375 0 0 .281-.012.305.27.48 3.68 2.914 3.684 5.688 3.684 0 0 .359 0 .359-.336v-2.027c0-.34-.359-.34-.359-.34-1.387 0-1.746.086-2.113-1.227a6.359 6.359 0 0 0 1.316-.453 5.787 5.787 0 0 0 2.258-1.965c.598-.867 1.035-1.938 1.32-3.211.297-1.27.441-2.727.441-4.375 0-3.293-.602-5.797-1.813-7.5-1.207-1.711-2.984-2.566-5.316-2.566m-.02 1.648c.512 0 .895.168 1.223.52.191.199.359.457.52.77.086.227.176.473.242.75.191.746.324 1.648.402 2.723.078 1.074.109 2.293.109 3.656 0 1.371-.031 2.605-.109 3.695-.078 1.086-.215 2-.402 2.766-.07.285-.152.547-.242.785-.02.027-.027.063-.043.094a3.307 3.307 0 0 1-.477.695c-.324.367-.715.539-1.223.539-.504 0-.898-.172-1.219-.539-.32-.375-.582-.918-.773-1.648-.191-.742-.324-1.645-.402-2.715a53.659 53.659 0 0 1-.125-3.676c0-1.355.043-2.563.125-3.625.078-1.059.211-1.953.402-2.672.191-.719.457-1.254.773-1.605.32-.348.711-.52 1.219-.52m0 .008" fill="#fff"/>
  </g>
  <g>
    <path d="M40.03 7.531A22.922 22.922 0 0 1 45.999 23c0 12.703-10.297 23-23 23A22.92 22.92 0 0 1 7.53 40.031C11.708 44.322 17.54 47 23.999 47c12.703 0 23-10.298 23-23 0-6.462-2.677-12.291-6.969-16.469z" opacity=".1"/>
  </g>
</svg>
