<svg version="1.1" viewBox="0 0 48 48" xmlns="http://www.w3.org/2000/svg">
 <path d="m36.3 5c5.86 4.06 9.69 10.8 9.69 18.5 0 12.4-10.1 22.5-22.5 22.5-7.67 0-14.4-3.83-18.5-9.69 1.04 1.82 2.31 3.5 3.78 4.97 4.08 3.71 9.51 5.97 15.5 5.97 12.7 0 23-10.3 23-23 0-5.95-2.26-11.4-5.97-15.5-1.47-1.48-3.15-2.74-4.97-3.78zm4.97 3.78c3.85 4.11 6.22 9.64 6.22 15.7 0 12.7-10.3 23-23 23-6.08 0-11.6-2.36-15.7-6.22 4.16 4.14 9.88 6.72 16.2 6.72 12.7 0 23-10.3 23-23 0-6.34-2.58-12.1-6.72-16.2z" style="opacity:.05"/>
 <path d="m41.3 8.78c3.71 4.08 5.97 9.51 5.97 15.5 0 12.7-10.3 23-23 23-5.95 0-11.4-2.26-15.5-5.97 4.11 3.85 9.64 6.22 15.7 6.22 12.7 0 23-10.3 23-23 0-6.08-2.36-11.6-6.22-15.7z" style="opacity:.1"/>
 <path d="m31.2 2.38c8.62 3.15 14.8 11.4 14.8 21.1 0 12.4-10.1 22.5-22.5 22.5-9.71 0-18-6.14-21.1-14.8a23 23 0 0 0 44.9-7 23 23 0 0 0-16-21.9z" style="opacity:.2"/>
 <path d="m1 24c0 1.14 0.087 2.26 0.248 3.36 1.12 5.33 5.81 9.64 11.3 9.64 6.35 0 11.5-5.65 11.5-12v-24c-12.7 0-23 10.3-23 23" style="fill:#f5f473"/>
 <path d="m24 1c-1.14 0-2.26 0.087-3.36 0.248-5.33 1.12-9.64 5.81-9.64 11.3 0 6.35 5.65 11.5 12 11.5h24c0-12.7-10.3-23-23-23z" style="fill:#f48b61"/>
 <path d="m47 24c0-1.14-0.087-2.26-0.248-3.36-1.12-5.33-5.81-9.64-11.3-9.64-6.35 0-11.5 5.65-11.5 12v24c12.7 0 23-10.3 23-23" style="fill:#afc6df"/>
 <path d="m1 24c0 12.7 10.3 23 23 23 1.14 0 2.26-0.087 3.36-0.248 5.33-1.12 9.64-5.81 9.64-11.3 0-6.35-5.65-11.5-12-11.5h-1c0 6.35-5.15 12-11.5 12s-11.5-5.65-11.5-12z" style="fill:#7fe490"/>
 <path d="m40 7.53c3.71 4.08 5.97 9.51 5.97 15.5 0 12.7-10.3 23-23 23-5.95 0-11.4-2.26-15.5-5.97 4.18 4.29 10 6.97 16.5 6.97 12.7 0 23-10.3 23-23 0-6.46-2.68-12.3-6.97-16.5z" style="opacity:.1"/>
 <circle cx="25" cy="25" r="12" style="opacity:.1"/>
 <circle cx="24" cy="24" r="12" style="fill:#555"/>
 <path d="m24 14c-5.52 0-10 4.48-10 10s4.48 10 10 10v-12a3 3 0 0 1-3-3 3 3 0 0 1 3-3zm0 2v6a3 3 0 0 0 3-3 3 3 0 0 0-3-3zm-5 8a3 3 0 0 1 3 3 3 3 0 0 1-3 3 3 3 0 0 1-3-3 3 3 0 0 1 3-3zm10 0a3 3 0 0 0-3 3 3 3 0 0 0 3 3 3 3 0 0 0 3-3 3 3 0 0 0-3-3z" style="fill:#eee"/>
</svg>
