<svg viewBox="0 0 48 48" xmlns="http://www.w3.org/2000/svg">
 <defs>
  <linearGradient id="linearGradient3764" x1="1" x2="47" gradientTransform="matrix(0 -1 1 0 -1.5e-6 48)" gradientUnits="userSpaceOnUse">
   <stop style="stop-color:#1c8dec" offset="0"/>
   <stop style="stop-color:#2f95ee" offset="1"/>
  </linearGradient>
 </defs>
 <path d="m36.31 5c5.859 4.062 9.688 10.831 9.688 18.5 0 12.426-10.07 22.5-22.5 22.5-7.669 0-14.438-3.828-18.5-9.688 1.037 1.822 2.306 3.499 3.781 4.969 4.085 3.712 9.514 5.969 15.469 5.969 12.703 0 23-10.298 23-23 0-5.954-2.256-11.384-5.969-15.469-1.469-1.475-3.147-2.744-4.969-3.781zm4.969 3.781c3.854 4.113 6.219 9.637 6.219 15.719 0 12.703-10.297 23-23 23-6.081 0-11.606-2.364-15.719-6.219 4.16 4.144 9.883 6.719 16.219 6.719 12.703 0 23-10.298 23-23 0-6.335-2.575-12.06-6.719-16.219z" style="opacity:.05"/>
 <path d="m41.28 8.781c3.712 4.085 5.969 9.514 5.969 15.469 0 12.703-10.297 23-23 23-5.954 0-11.384-2.256-15.469-5.969 4.113 3.854 9.637 6.219 15.719 6.219 12.703 0 23-10.298 23-23 0-6.081-2.364-11.606-6.219-15.719z" style="opacity:.1"/>
 <path d="m31.25 2.375c8.615 3.154 14.75 11.417 14.75 21.13 0 12.426-10.07 22.5-22.5 22.5-9.708 0-17.971-6.135-21.12-14.75a23 23 0 0 0 44.875-7 23 23 0 0 0-16-21.875z" style="opacity:.2"/>
 <path d="m24 1c12.703 0 23 10.297 23 23s-10.297 23-23 23-23-10.297-23-23 10.297-23 23-23z" style="fill:url(#linearGradient3764)"/>
 <g transform="translate(1,1)">
  <g style="opacity:.1">
   <path transform="matrix(.40006 0 0 .50007 24.101 18.498)" d="m-24 24c0 1.101-1.123 2-2.5 2s-2.5-0.898-2.5-2c0-1.101 1.123-2 2.5-2s2.5 0.898 2.5 2" style="stroke-width:2.235;stroke:#e5ecf4"/>
   <path d="m9.387 31.867c-1.684-0.395-1.832-1.48-0.445-3.266 0.629-0.816 3.848-3.262 4.281-3.262 0.094 0-0.285 0.586-0.84 1.297-1.203 1.551-1.242 1.945-0.273 2.566 0.59 0.379 1.141 0.441 2.816 0.293 5.477-0.465 13.949-3.813 18.887-7.453l1.398-1.027-1.156 1.191c-3.094 3.184-11.133 7.121-18.203 8.883-3.504 0.879-5.176 1.078-6.465 0.773m8.777-0.535c0.316-0.145 2.656-0.914 5.199-1.715 6.945-2.184 11.469-4.484 13.676-6.953 1.25-1.398 1.207-2.25-0.145-2.949-0.348-0.18-0.996-0.328-1.449-0.332-0.742-8e-3 -0.762-0.035-0.254-0.328 0.309-0.176 1.695-0.328 3.078-0.344 2.895-0.035 3.73 0.398 3.73 1.914 0 2.676-9.121 7.535-18.391 9.801-3.629 0.887-6.469 1.363-5.449 0.91m-3.23-5.34c-0.84-0.156-1.074-1.313-0.684-3.398 0.645-3.441 2.617-6.02 5.84-7.637 2.18-1.094 5.477-1.27 8.277-0.434 2.309 0.688 4.488 2.391 5.734 4.48l0.75 1.258-0.66 0.688c-0.875 0.91-5.301 3.01-8.273 3.918-3.465 1.063-8.563 1.578-10.984 1.117m0 4e-3"/>
  </g>
 </g>
 <path transform="matrix(.40006 0 0 .50007 24.101 18.498)" d="m-24 24c0 1.101-1.123 2-2.5 2s-2.5-0.898-2.5-2c0-1.101 1.123-2 2.5-2s2.5 0.898 2.5 2" style="fill:none;stroke-width:2.235;stroke:#e5ecf4"/>
 <path d="m9.387 31.867c-1.684-0.395-1.832-1.48-0.445-3.266 0.629-0.816 3.848-3.262 4.281-3.262 0.094 0-0.285 0.586-0.84 1.297-1.203 1.551-1.242 1.945-0.273 2.566 0.59 0.379 1.141 0.441 2.816 0.293 5.477-0.465 13.949-3.813 18.887-7.453l1.398-1.027-1.156 1.191c-3.094 3.184-11.133 7.121-18.203 8.883-3.504 0.879-5.176 1.078-6.465 0.773m8.777-0.535c0.316-0.145 2.656-0.914 5.199-1.715 6.945-2.184 11.469-4.484 13.676-6.953 1.25-1.398 1.207-2.25-0.145-2.949-0.348-0.18-0.996-0.328-1.449-0.332-0.742-8e-3 -0.762-0.035-0.254-0.328 0.309-0.176 1.695-0.328 3.078-0.344 2.895-0.035 3.73 0.398 3.73 1.914 0 2.676-9.121 7.535-18.391 9.801-3.629 0.887-6.469 1.363-5.449 0.91m-3.23-5.34c-0.84-0.156-1.074-1.313-0.684-3.398 0.645-3.441 2.617-6.02 5.84-7.637 2.18-1.094 5.477-1.27 8.277-0.434 2.309 0.688 4.488 2.391 5.734 4.48l0.75 1.258-0.66 0.688c-0.875 0.91-5.301 3.01-8.273 3.918-3.465 1.063-8.563 1.578-10.984 1.117m0 4e-3" style="fill:#fff"/>
 <path d="m40.03 7.531c3.712 4.084 5.969 9.514 5.969 15.469 0 12.703-10.297 23-23 23-5.954 0-11.384-2.256-15.469-5.969 4.178 4.291 10.01 6.969 16.469 6.969 12.703 0 23-10.298 23-23 0-6.462-2.677-12.291-6.969-16.469z" style="opacity:.1"/>
</svg>
