<svg viewBox="0 0 48 48" xmlns="http://www.w3.org/2000/svg">
 <defs>
  <linearGradient id="linearGradient4189" x2="0" y1="47" y2="1" gradientUnits="userSpaceOnUse">
   <stop style="stop-color:#708a27" offset="0"/>
   <stop style="stop-color:#708a27" offset="1"/>
  </linearGradient>
 </defs>
 <path d="m36.31 5c5.859 4.062 9.688 10.831 9.688 18.5 0 12.426-10.07 22.5-22.5 22.5-7.669 0-14.438-3.828-18.5-9.688 1.037 1.822 2.306 3.499 3.781 4.969 4.085 3.712 9.514 5.969 15.469 5.969 12.703 0 23-10.298 23-23 0-5.954-2.256-11.384-5.969-15.469-1.469-1.475-3.147-2.744-4.969-3.781zm4.969 3.781c3.854 4.113 6.219 9.637 6.219 15.719 0 12.703-10.297 23-23 23-6.081 0-11.606-2.364-15.719-6.219 4.16 4.144 9.883 6.719 16.219 6.719 12.703 0 23-10.298 23-23 0-6.335-2.575-12.06-6.719-16.219z" style="opacity:.05"/>
 <path d="m41.28 8.781c3.712 4.085 5.969 9.514 5.969 15.469 0 12.703-10.297 23-23 23-5.954 0-11.384-2.256-15.469-5.969 4.113 3.854 9.637 6.219 15.719 6.219 12.703 0 23-10.298 23-23 0-6.081-2.364-11.606-6.219-15.719z" style="opacity:.1"/>
 <path d="m31.25 2.375c8.615 3.154 14.75 11.417 14.75 21.13 0 12.426-10.07 22.5-22.5 22.5-9.708 0-17.971-6.135-21.12-14.75a23 23 0 0 0 44.875-7 23 23 0 0 0-16-21.875z" style="opacity:.2"/>
 <path d="m24 1c12.703 0 23 10.297 23 23s-10.297 23-23 23-23-10.297-23-23 10.297-23 23-23z" style="fill:url(#linearGradient4189)"/>
 <path d="m40.03 7.531c3.712 4.084 5.969 9.514 5.969 15.469 0 12.703-10.297 23-23 23-5.954 0-11.384-2.256-15.469-5.969 4.178 4.291 10.01 6.969 16.469 6.969 12.703 0 23-10.298 23-23 0-6.462-2.677-12.291-6.969-16.469z" style="opacity:.1"/>
 <path d="m15 13c-1.108 0-2 0.892-2 2v20c0 1.108 0.892 2 2 2h20c1.108 0 2-0.892 2-2v-20c0-1.108-0.892-2-2-2h-20zm5.324 4c1.13 0.018 2.618 2.08 2.709 3.758 0.05 0.926-0.257 1.276-1.4 1.58-0.845 0.383-0.973 0.713-0.748 1.76 0.554 1.331 2.222 3.198 3.914 4.381 0.914 0.46 2.289 1.198 2.713-0.135 0.34-0.838 0.664-1.127 1.291-1.135 1.74-0.024 4.234 1.692 4.197 2.889-0.019 0.612-1.032 1.894-1.885 2.387-1.112 0.643-3.047 0.827-5.24-0.289-4.491-2.283-8.998-6.393-8.873-11.564 0.061-1.266 0.449-2.049 1.348-2.721 0.673-0.504 1.567-0.916 1.975-0.91z" style="opacity:.1"/>
 <path d="m14 12c-1.108 0-2 0.892-2 2v20c0 1.108 0.892 2 2 2h20c1.108 0 2-0.892 2-2v-20c0-1.108-0.892-2-2-2h-20zm5.324 4c1.13 0.018 2.618 2.08 2.709 3.758 0.05 0.926-0.257 1.276-1.4 1.58-0.845 0.383-0.973 0.713-0.748 1.76 0.554 1.331 2.222 3.198 3.914 4.381 0.914 0.46 2.289 1.198 2.713-0.135 0.34-0.838 0.664-1.127 1.291-1.135 1.74-0.024 4.234 1.692 4.197 2.889-0.019 0.612-1.032 1.894-1.885 2.387-1.112 0.643-3.047 0.827-5.24-0.289-4.491-2.283-8.998-6.393-8.873-11.564 0.061-1.266 0.449-2.049 1.348-2.721 0.673-0.504 1.567-0.916 1.975-0.91z" style="fill:#bce742"/>
</svg>
