<svg xmlns="http://www.w3.org/2000/svg" viewBox="0 0 48 48">
  <defs>
    <linearGradient id="a" x1="1" x2="47" gradientUnits="userSpaceOnUse" gradientTransform="rotate(-90 24 24)">
      <stop stop-color="#3590bf"/>
      <stop offset="1" stop-color="#3f99ca"/>
    </linearGradient>
  </defs>
  <path d="M36.31 5c5.859 4.062 9.688 10.831 9.688 18.5 0 12.426-10.07 22.5-22.5 22.5-7.669 0-14.438-3.828-18.5-9.688a23.24 23.24 0 0 0 3.781 4.969 22.923 22.923 0 0 0 15.469 5.969c12.703 0 23-10.298 23-23a22.92 22.92 0 0 0-5.969-15.469A23.216 23.216 0 0 0 36.31 5zm4.969 3.781A22.911 22.911 0 0 1 47.498 24.5c0 12.703-10.297 23-23 23a22.909 22.909 0 0 1-15.719-6.219C12.939 45.425 18.662 48 24.998 48c12.703 0 23-10.298 23-23 0-6.335-2.575-12.06-6.719-16.219z" opacity=".05"/>
  <path d="M41.28 8.781a22.923 22.923 0 0 1 5.969 15.469c0 12.703-10.297 23-23 23A22.92 22.92 0 0 1 8.78 41.281 22.911 22.911 0 0 0 24.499 47.5c12.703 0 23-10.298 23-23A22.909 22.909 0 0 0 41.28 8.781z" opacity=".1"/>
  <path d="M31.25 2.375C39.865 5.529 46 13.792 46 23.505c0 12.426-10.07 22.5-22.5 22.5-9.708 0-17.971-6.135-21.12-14.75a23 23 0 0 0 44.875-7 23 23 0 0 0-16-21.875z" opacity=".2"/>
  <path d="M24 1c12.703 0 23 10.297 23 23S36.703 47 24 47 1 36.703 1 24 11.297 1 24 1z" fill="url(#a)"/>
  <path d="M40.03 7.531A22.922 22.922 0 0 1 45.999 23c0 12.703-10.297 23-23 23A22.92 22.92 0 0 1 7.53 40.031C11.708 44.322 17.54 47 23.999 47c12.703 0 23-10.298 23-23 0-6.462-2.677-12.291-6.969-16.469z" opacity=".1"/>
  <path d="M22.297 9c-5.321 1.789-11.07 6.711-12.645 10.566 2.739-4.191 7.77-8.218 12.645-10.566zm6.418 1.029c-14.684.93-17.789 12.4-19.551 15.08 3.891-3.85 6.129-11.256 19.551-15.08zm.957 1.732c-10.977.133-15.404 8.631-19.01 18.328 5.01-6.933 5.848-15.82 21.297-18.242a23.34 23.34 0 0 0-2.285-.086zm.488 1.9c-8.366.108-13.814 8.883-17.15 19.883 4.574-7.605 7.086-18.773 22.1-19.01-1.755-.615-3.404-.893-4.953-.873zm2.67 2.592c-9.286-.349-15.679 9.412-17.03 20.07 3.613-8.906 10.602-20.563 21.18-19.27-1.438-.489-2.824-.747-4.15-.797zm.826 2.359c-7.648.203-13.55 10.17-14.66 19.1 4.797-7.805 6.699-18.04 19.07-18.14-1.517-.701-2.994-.999-4.41-.961zm1.717 2.164c-6.982.245-11.664 9.299-13.369 18.06 5.258-7.48 6.82-17.324 16.5-17.602-1.089-.351-2.133-.496-3.131-.461zm3.26 1.469c-7.519.714-11.434 7.724-14.188 16.754 4.316-6.06 7.368-13.578 14.188-16.754zm.203.719c-5.992 2.598-8.871 8.652-11.203 15.32 2.934-4.969 5.145-9.824 11.203-15.32zm-.051 2c-3.043 2.152-6.352 7.41-7.813 11.82 2.137-4.148 5.645-9.539 7.813-11.82z" fill="#21546f"/>
  <path d="M23.965 10.164c2.598 5.992 8.652 8.871 15.32 11.203-4.969-2.934-9.824-5.145-15.32-11.203zm2 .051c2.152 3.043 7.41 6.351 11.82 7.812-4.148-2.137-9.539-5.645-11.82-7.813zm-2.723.152c.714 7.519 7.724 11.434 16.754 14.188-6.06-4.316-13.578-7.368-16.754-14.188m-1.01.129c-2.809 8.715 7.586 14.551 17.602 16.5-7.48-5.258-17.324-6.82-17.602-16.5zm-1.664.438c-4.484 9.707 7.556 17.754 18.14 19.07-7.805-4.797-18.04-6.699-18.14-19.07zm-2.523 1.086c-3.914 11.508 7.094 19.637 19.27 21.18-8.906-3.613-20.563-10.602-19.27-21.18zm-2.516 1.867c-3.938 11.23 5.973 18.15 19.01 22.1-7.605-4.574-18.773-7.086-19.01-22.1zm-2.688 3.156c-1.082 12.668 7.898 17.449 18.242 21.297-6.933-5.01-15.82-5.848-18.242-21.297zm-1.818 3.242c.93 14.684 12.4 17.789 15.08 19.551-3.85-3.891-11.256-6.129-15.08-19.551zm-1.029 6.418c1.789 5.321 6.711 11.07 10.566 12.645-4.191-2.739-8.218-7.77-10.566-12.645" opacity=".1"/>
  <g fill="#f9f9f9" fill-opacity=".886">
    <path d="M17.05 11.02c-3.914 11.508 7.094 19.637 19.27 21.18-8.906-3.613-20.563-10.602-19.27-21.18m0 0"/>
    <path d="M19.574 9.934c-4.484 9.707 7.555 17.754 18.14 19.07-7.805-4.797-18.04-6.699-18.14-19.07m0 0"/>
    <path d="M21.238 9.496c-2.809 8.715 7.586 14.551 17.602 16.5-7.48-5.258-17.324-6.82-17.602-16.5m0 0"/>
    <path d="M22.246 9.367c3.176 6.82 10.695 9.871 16.754 14.187-9.03-2.754-16.04-6.668-16.754-14.187m0 0"/>
    <path d="M22.965 9.164c2.598 5.992 8.652 8.871 15.32 11.203-4.969-2.934-9.824-5.145-15.32-11.203m0 0M24.969 9.215c2.281 2.168 7.672 5.676 11.82 7.813-4.41-1.461-9.668-4.77-11.82-7.813m0 0M14.535 12.887c-3.938 11.23 5.973 18.15 19.01 22.1-7.605-4.574-18.773-7.086-19.01-22.1m0 0"/>
    <path d="M30.09 37.34c-10.344-3.848-19.324-8.629-18.242-21.297C14.27 31.492 23.157 32.332 30.09 37.34m0 0"/>
    <path d="M10.03 19.285c3.824 13.422 11.23 15.66 15.08 19.551-2.68-1.762-14.15-4.867-15.08-19.551m0 0"/>
    <path d="M9 25.703c2.348 4.875 6.375 9.906 10.566 12.645C15.711 36.77 10.789 31.024 9 25.703m0 0"/>
  </g>
</svg>
