<svg viewBox="0 0 48 48" xmlns="http://www.w3.org/2000/svg">
 <defs>
  <linearGradient id="linearGradient3764" x1="1" x2="47" gradientTransform="matrix(0 -1 1 0 -1.5e-6 48)" gradientUnits="userSpaceOnUse">
   <stop style="stop-color:#ecc85c" offset="0"/>
   <stop style="stop-color:#eecf6d" offset="1"/>
  </linearGradient>
 </defs>
 <path d="m36.31 5c5.859 4.062 9.688 10.831 9.688 18.5 0 12.426-10.07 22.5-22.5 22.5-7.669 0-14.438-3.828-18.5-9.688 1.037 1.822 2.306 3.499 3.781 4.969 4.085 3.712 9.514 5.969 15.469 5.969 12.703 0 23-10.298 23-23 0-5.954-2.256-11.384-5.969-15.469-1.469-1.475-3.147-2.744-4.969-3.781zm4.969 3.781c3.854 4.113 6.219 9.637 6.219 15.719 0 12.703-10.297 23-23 23-6.081 0-11.606-2.364-15.719-6.219 4.16 4.144 9.883 6.719 16.219 6.719 12.703 0 23-10.298 23-23 0-6.335-2.575-12.06-6.719-16.219z" style="opacity:.05"/>
 <path d="m41.28 8.781c3.712 4.085 5.969 9.514 5.969 15.469 0 12.703-10.297 23-23 23-5.954 0-11.384-2.256-15.469-5.969 4.113 3.854 9.637 6.219 15.719 6.219 12.703 0 23-10.298 23-23 0-6.081-2.364-11.606-6.219-15.719z" style="opacity:.1"/>
 <path d="m31.25 2.375c8.615 3.154 14.75 11.417 14.75 21.13 0 12.426-10.07 22.5-22.5 22.5-9.708 0-17.971-6.135-21.12-14.75a23 23 0 0 0 44.875-7 23 23 0 0 0-16-21.875z" style="opacity:.2"/>
 <path d="m24 1c12.703 0 23 10.297 23 23s-10.297 23-23 23-23-10.297-23-23 10.297-23 23-23z" style="fill:url(#linearGradient3764)"/>
 <g transform="translate(-44.441 2.7458)"></g>
 <path d="m40.03 7.531c3.712 4.084 5.969 9.514 5.969 15.469 0 12.703-10.297 23-23 23-5.954 0-11.384-2.256-15.469-5.969 4.178 4.291 10.01 6.969 16.469 6.969 12.703 0 23-10.298 23-23 0-6.462-2.677-12.291-6.969-16.469z" style="opacity:.1"/>
 <path d="m20.551 15c-1.516 0-3.677 1.123-3.987 3.148-0.204 1.334-0.276 1.395-1.652 1.395-1.244 0-2.571 1.325-2.571 2.477 0 0.418-0.018 0.613-0.699 0.613-0.342 0-0.643 0.243-0.643 0.728 0 0.661 0.375 0.581 2.48 0.581 2.34 0 2.458 0.044 2.851-0.611 1.754-2.516 4.988-2.433 6.688-1.169 0.441-1.29 1.024-2.118 2-2.973-0.495-2.824-2.627-4.141-4.469-4.189m8.565 3.927c-3.205 0.147-5.133 2.261-5.669 5.154-1.729-2.343-4.471-1.851-5.741-0.74s-1.754 2.895-1.344 4.085c0.287 0.831 0.286 0.924-0.942 1.684-2.367 1.465-1.046 4.962 2.085 4.889 1.55-0.036 2.044-0.358 5.01-3.68 3.798-4.256 4.25-4.47 6.198-4.47 2.468 0.072 3.617 2.085 3.558 3.827-0.075 2.201-2.167 2.415-2.839 1.548-1.108-1.252-0.151-2.814 0.715-2.988-0.866-0.407-3.27 0.146-3.27 2.765 0 2.911 2.655 2.998 2.935 2.998h6.428c0.559 0 1.149-0.552 1.546-0.966 0.988-1.029 1.449-2.4 1.103-3.679-0.698-2.584-2.884-3.642-4.346-1.62 1.755-5.432-2.258-8.86-5.424-8.808z" style="fill-opacity:.098"/>
 <path d="m19.551 14c-1.516 0-3.677 1.123-3.987 3.148-0.204 1.334-0.276 1.395-1.652 1.395-1.244 0-2.571 1.325-2.571 2.477 0 0.418-0.018 0.613-0.699 0.613-0.342 0-0.643 0.243-0.643 0.728 0 0.661 0.375 0.581 2.48 0.581 2.34 0 2.458 0.044 2.851-0.611 1.754-2.516 4.988-2.433 6.688-1.169 0.441-1.29 1.024-2.118 2-2.973-0.495-2.824-2.627-4.141-4.469-4.189m8.565 3.927c-3.205 0.147-5.133 2.261-5.669 5.154-1.729-2.343-4.471-1.851-5.741-0.74s-1.754 2.895-1.344 4.085c0.287 0.831 0.286 0.924-0.942 1.684-2.367 1.465-1.046 4.962 2.085 4.889 1.55-0.036 2.044-0.358 5.01-3.68 3.798-4.256 4.25-4.47 6.198-4.47 2.468 0.072 3.617 2.085 3.558 3.827-0.075 2.201-2.167 2.415-2.839 1.548-1.108-1.252-0.151-2.814 0.715-2.988-0.866-0.407-3.27 0.146-3.27 2.765 0 2.911 2.655 2.998 2.935 2.998h6.428c0.559 0 1.149-0.552 1.546-0.966 0.988-1.029 1.449-2.4 1.103-3.679-0.698-2.584-2.884-3.642-4.346-1.62 1.755-5.432-2.258-8.86-5.424-8.808z" style="fill:#f9f9f9"/>
</svg>
