<svg xmlns="http://www.w3.org/2000/svg" viewBox="0 0 48 48">
  <defs>
    <linearGradient id="a" y1="1" x2="0" y2="47" gradientUnits="userSpaceOnUse">
      <stop stop-color="#ff8275"/>
      <stop offset="1" stop-color="#ff7061"/>
    </linearGradient>
  </defs>
  <path d="M36.31 5c5.859 4.062 9.688 10.831 9.688 18.5 0 12.426-10.07 22.5-22.5 22.5-7.669 0-14.438-3.828-18.5-9.688a23.24 23.24 0 0 0 3.781 4.969 22.923 22.923 0 0 0 15.469 5.969c12.703 0 23-10.298 23-23a22.92 22.92 0 0 0-5.969-15.469A23.216 23.216 0 0 0 36.31 5zm4.969 3.781A22.911 22.911 0 0 1 47.498 24.5c0 12.703-10.297 23-23 23a22.909 22.909 0 0 1-15.719-6.219C12.939 45.425 18.662 48 24.998 48c12.703 0 23-10.298 23-23 0-6.335-2.575-12.06-6.719-16.219z" opacity=".05"/>
  <path d="M41.28 8.781a22.923 22.923 0 0 1 5.969 15.469c0 12.703-10.297 23-23 23A22.92 22.92 0 0 1 8.78 41.281 22.911 22.911 0 0 0 24.499 47.5c12.703 0 23-10.298 23-23A22.909 22.909 0 0 0 41.28 8.781z" opacity=".1"/>
  <path d="M31.25 2.375C39.865 5.529 46 13.792 46 23.505c0 12.426-10.07 22.5-22.5 22.5-9.708 0-17.971-6.135-21.12-14.75a23 23 0 0 0 44.875-7 23 23 0 0 0-16-21.875z" opacity=".2"/>
  <path d="M24 1c12.703 0 23 10.297 23 23S36.703 47 24 47 1 36.703 1 24 11.297 1 24 1z" fill="url(#a)"/>
  <path d="M40.03 7.531A22.922 22.922 0 0 1 45.999 23c0 12.703-10.297 23-23 23A22.92 22.92 0 0 1 7.53 40.031C11.708 44.322 17.54 47 23.999 47c12.703 0 23-10.298 23-23 0-6.462-2.677-12.291-6.969-16.469z" opacity=".1"/>
  <g>
    <rect rx="2" y="13" x="13" height="24" width="24" fill-opacity=".098" fill-rule="evenodd"/>
    <rect width="24" height="24" x="12" y="12" rx="2" fill="#afafaf" fill-rule="evenodd"/>
    <rect rx="1" y="14" x="14" height="6" width="6" fill="#8e8e8e"/>
    <rect width="6" height="6" x="21" y="14" rx="1" fill="#ececec"/>
    <rect rx="1" y="14" x="28" height="6" width="6" fill="#ececec"/>
    <rect width="6" height="6" x="14" y="21" rx="1" fill="#8e8e8e"/>
    <rect rx="1" y="21" x="21" height="6" width="6" fill="#8e8e8e"/>
    <rect width="6" height="6" x="28" y="21" rx="1" fill="#ececec"/>
    <rect rx="1" y="28" x="14" height="6" width="6" fill="#ececec"/>
    <rect width="6" height="6" x="21" y="28" rx="1" fill="#ececec"/>
    <rect rx="1" y="28" x="28" height="6" width="6" fill="#8e8e8e"/>
    <g fill="#292929">
      <path d="M17.05 17.019c-.17 0-.298.057-.383.171a.837.837 0 0 0-.146.507c0 .226.062.396.146.509.086.112.213.168.383.168.172 0 .3-.056.384-.168a.832.832 0 0 0 .148-.51.83.83 0 0 0-.148-.506c-.084-.113-.213-.171-.384-.171zm1.202-1.854v.714a2.418 2.418 0 0 0-.452-.171 1.616 1.616 0 0 0-.414-.057c-.29 0-.515.083-.677.248-.162.164-.256.408-.282.731.11-.084.231-.147.36-.189.13-.043.271-.065.424-.065.386 0 .696.116.932.346.237.231.356.534.356.908 0 .414-.132.746-.396.996-.264.248-.619.372-1.064.372-.49 0-.87-.169-1.138-.507-.268-.34-.401-.82-.401-1.443 0-.637.156-1.138.47-1.502.314-.366.745-.549 1.292-.549a3.057 3.057 0 0 1 .99.166z"/>
    </g>
    <g fill="#292929">
      <path d="M15.5 22h3.003v.582L16.95 26h-.997l1.47-3.242h-1.918v-.758z"/>
    </g>
    <g fill="#292929">
      <path d="M24.678 23.844q.403.1.611.351.21.248.21.633 0 .573-.453.873-.453.297-1.323.297-.307 0-.616-.05-.306-.046-.607-.141v-.767q.287.14.57.212.286.07.56.07.408 0 .625-.137.218-.137.218-.393 0-.263-.223-.397-.222-.137-.657-.137h-.41v-.64h.432q.387 0 .576-.117.189-.119.189-.359 0-.222-.184-.343-.184-.121-.52-.121-.248 0-.502.054-.253.054-.504.16v-.728q.304-.083.603-.124.299-.041.586-.041.777 0 1.16.248.388.245.388.74 0 .34-.184.556-.184.214-.544.302z"/>
    </g>
    <g fill="#292929">
      <path d="M30.683 32.253H32.5v.744h-3v-.744l1.506-1.266q.202-.173.298-.34.097-.165.097-.344 0-.276-.197-.444-.194-.17-.517-.17-.249 0-.544.103-.296.1-.633.3v-.863q.36-.113.71-.17.352-.06.689-.06.74 0 1.15.31.412.31.412.865 0 .32-.174.6-.175.276-.733.742l-.882.737z"/>
    </g>
  </g>
</svg>
