<?xml version="1.0" encoding="UTF-8" standalone="no"?>
<svg
   xmlns:dc="http://purl.org/dc/elements/1.1/"
   xmlns:cc="http://creativecommons.org/ns#"
   xmlns:rdf="http://www.w3.org/1999/02/22-rdf-syntax-ns#"
   xmlns:svg="http://www.w3.org/2000/svg"
   xmlns="http://www.w3.org/2000/svg"
   xmlns:sodipodi="http://sodipodi.sourceforge.net/DTD/sodipodi-0.dtd"
   xmlns:inkscape="http://www.inkscape.org/namespaces/inkscape"
   version="1.1"
   viewBox="0 0 48 48"
   id="svg36"
   sodipodi:docname="slack.svg"
   inkscape:version="0.92.1 unknown">
  <defs
     id="defs40" />
  <sodipodi:namedview
     pagecolor="#ffffff"
     bordercolor="#666666"
     borderopacity="1"
     objecttolerance="10"
     gridtolerance="10"
     guidetolerance="10"
     inkscape:pageopacity="0"
     inkscape:pageshadow="2"
     inkscape:window-width="1600"
     inkscape:window-height="876"
     id="namedview38"
     showgrid="true"
     inkscape:zoom="31.580876"
     inkscape:cx="23.150033"
     inkscape:cy="21.086181"
     inkscape:window-x="0"
     inkscape:window-y="24"
     inkscape:window-maximized="1"
     inkscape:current-layer="svg36">
    <inkscape:grid
       type="xygrid"
       id="grid4517" />
  </sodipodi:namedview>
  <metadata
     id="metadata2">
    <rdf:RDF>
      <cc:Work
         rdf:about="">
        <dc:format>image/svg+xml</dc:format>
        <dc:type
           rdf:resource="http://purl.org/dc/dcmitype/StillImage" />
        <dc:title />
      </cc:Work>
    </rdf:RDF>
  </metadata>
  <path
     style="opacity:.05"
     d="m36.31 5c5.859 4.062 9.688 10.831 9.688 18.5 0 12.426-10.07 22.5-22.5 22.5-7.669 0-14.438-3.828-18.5-9.688 1.037 1.822 2.306 3.499 3.781 4.969 4.085 3.712 9.514 5.969 15.469 5.969 12.703 0 23-10.298 23-23 0-5.954-2.256-11.384-5.969-15.469-1.469-1.475-3.147-2.744-4.969-3.781zm4.969 3.781c3.854 4.113 6.219 9.637 6.219 15.719 0 12.703-10.297 23-23 23-6.081 0-11.606-2.364-15.719-6.219 4.16 4.144 9.883 6.719 16.219 6.719 12.703 0 23-10.298 23-23 0-6.335-2.575-12.06-6.719-16.219z"
     id="path4" />
  <path
     style="opacity:.1"
     d="m41.28 8.781c3.712 4.085 5.969 9.514 5.969 15.469 0 12.703-10.297 23-23 23-5.954 0-11.384-2.256-15.469-5.969 4.113 3.854 9.637 6.219 15.719 6.219 12.703 0 23-10.298 23-23 0-6.081-2.364-11.606-6.219-15.719z"
     id="path6" />
  <path
     style="opacity:.2"
     d="m31.25 2.375c8.615 3.154 14.75 11.417 14.75 21.13 0 12.426-10.07 22.5-22.5 22.5-9.708 0-17.971-6.135-21.12-14.75a23 23 0 0 0 44.875 -7 23 23 0 0 0 -16 -21.875z"
     id="path8" />
  <g
     style="stroke-width:1.9951"
     transform="matrix(.50122 0 0 .50123 53.32 -44.442)"
     id="g28">
    <path
       d="m-92.166 105.47c-6.0639 6.5711-10.075 14.771-11.541 23.592 4.3126-0.25095 5.1956 3.442 17.479-5.9746 1.9243-6.5612-0.53222-12.349-5.9375-17.617z"
       style="stroke-width:1.9951;fill:#20a58f"
       transform="translate(0 -.014635)"
       id="path10" />
    <path
       d="m-50.988 91.352c-2.5076 7.1698-0.58373 13.074 5.9707 17.654 7.4765 2.1614 14.845 4.0373 17.678-6.043-6.578-6.0994-14.8-10.136-23.648-11.611z"
       style="stroke-width:1.9951;fill:#76971f"
       transform="translate(0 -.014635)"
       id="path12" />
    <path
       d="m-13.41 144.82c-8.7563-5.931-12.908 0.56939-17.5 5.8828-4.8019 7.9836 0.51458 12.595 5.8203 17.209 6.0285-6.417 10.083-14.433 11.68-23.092z"
       style="stroke-width:1.9951;fill:#d6100e"
       transform="translate(0 -.014635)"
       id="path14" />
    <path
       d="m-72.234 164.59c-6.4365-0.30137-13.607-2.9092-17.184 5.7773 6.4202 5.8707 14.377 9.7947 22.943 11.314 2.4448-6.221 2.5049-12.156-5.7598-17.092z"
       style="stroke-width:1.9951;fill:#40113f"
       transform="translate(0 -.014635)"
       id="path16" />
    <path
       d="m-30.904 150.7c-17.085-3.6909-33.837-6.5438-41.33 13.895h-0.002l5.7598 17.092c2.6321 0.47952 5.3012 0.72786 7.9766 0.74218 12.666-0.0215 24.759-5.2786 33.414-14.525z"
       style="stroke-width:1.9951;fill:#e5186b"
       transform="translate(0 -.014635)"
       id="path18" />
    <path
       d="m-58.5 90.68c-12.792 0.02088-24.994 5.3818-33.662 14.789l5.9375 17.613c17.727 6.3282 30.815-0.17015 41.219-14.09l-0.0078-0.004-5.9668-17.635c-2.484-0.428-4.999-0.654-7.52-0.671z"
       style="fill:#82d2e0"
       id="path20" />
    <path
       d="m-27.359 102.97-17.658 6.0371c-3.8981 15.1-0.52835 29.186 14.109 41.699l17.5-5.8848c0.50908-2.7188 0.77121-5.4781 0.7832-8.2441-0.02201-12.764-5.3612-24.943-14.734-33.607z"
       style="stroke-width:1.9951;fill:#edb624"
       transform="translate(0 -.014635)"
       id="path22" />
    <path
       d="m-86.229 123.09v0.006l-17.479 5.9746c-0.42694 2.4723-0.65035 4.9755-0.66797 7.4844 0.0204 12.871 5.4469 25.141 14.955 33.816l17.184-5.7773c3.2996-17.93-2.1978-31.336-13.992-41.504z"
       style="stroke-width:1.9951;fill:#49c39e"
       transform="translate(0 -.014635)"
       id="path24" />
    <path
       d="m-72.237 164.58 41.33-13.894-14.11-41.699-41.22 14.09 13.991 41.504z"
       style="stroke-width:1.9951;fill:#f5f3f1"
       id="path26" />
  </g>
  <path
     style="opacity:.1"
     d="m40.03 7.531c3.712 4.084 5.969 9.514 5.969 15.469 0 12.703-10.297 23-23 23-5.954 0-11.384-2.256-15.469-5.969 4.178 4.291 10.01 6.969 16.469 6.969 12.703 0 23-10.298 23-23 0-6.462-2.677-12.291-6.969-16.469z"
     id="path30" />
  <path
     d="M 25.083699,32.996422 C 22.746016,32.996422 20.095965,32.029176 19,31 c 0,0 -0.07019,-0.35663 0.367161,-1.36508 0.437334,-1.008564 0.885828,-1.46494 0.885828,-1.46494 1.388671,1.155199 3.137618,1.82861 4.89755,1.720375 1.422641,-0.08717 1.975654,-0.597515 1.975654,-1.508516 v -0.04453 c 0,-0.866512 -0.490318,-1.348328 -2.857281,-1.725081 -3.609771,-0.57455 -5.237334,-1.750868 -5.237334,-4.839147 v -0.04453 c 0,-2.821173 2.372575,-4.728653 5.523671,-4.728653 2.247592,0 4.327368,0.323369 5.892162,1.589551 0,0 -0.250503,0.860893 -0.566536,1.521222 -0.32387,0.673307 -0.788582,1.292798 -0.788582,1.292798 -1.365871,-0.955575 -2.671466,-1.273316 -3.971431,-1.273316 -1.299964,0 -2.318668,0.728263 -2.318668,1.483763 v 0.04453 c 0,1.021646 0.590241,1.516516 3.46891,1.893268 3.21008,0.418023 4.724751,1.871716 4.724751,4.58183 v 0.04453 c 0,3.088279 -2.585436,4.82183 -5.912654,4.82183"
     style="opacity:0.1;fill:#000000;stroke-width:0.99999994"
     id="path34-3"
     inkscape:connector-curvature="0" />
  <path
     d="M 24.083699,31.996422 C 21.746016,31.996422 19.095965,31.029176 18,30 c 0,0 -0.07019,-0.35663 0.367161,-1.36508 0.437334,-1.008564 0.885828,-1.46494 0.885828,-1.46494 1.388671,1.155199 3.137618,1.82861 4.89755,1.720375 1.422641,-0.08717 1.975654,-0.597515 1.975654,-1.508516 v -0.04453 c 0,-0.866512 -0.490318,-1.348328 -2.857281,-1.725081 -3.609771,-0.57455 -5.237334,-1.750868 -5.237334,-4.839147 v -0.04453 c 0,-2.821173 2.372575,-4.728653 5.523671,-4.728653 2.247592,0 4.327368,0.323369 5.892162,1.589551 0,0 -0.250503,0.860893 -0.566536,1.521222 -0.32387,0.673307 -0.788582,1.292798 -0.788582,1.292798 -1.365871,-0.955575 -2.671466,-1.273316 -3.971431,-1.273316 -1.299964,0 -2.318668,0.728263 -2.318668,1.483763 v 0.04453 c 0,1.021646 0.590241,1.516516 3.46891,1.893268 3.21008,0.418023 4.724751,1.871716 4.724751,4.58183 v 0.04453 c 0,3.088279 -2.585436,4.82183 -5.912654,4.82183"
     style="fill:#5c3a58;stroke-width:0.99999994"
     id="path34"
     inkscape:connector-curvature="0" />
</svg>
