<svg xmlns="http://www.w3.org/2000/svg" viewBox="0 0 48 48">
  <defs>
    <linearGradient id="a" x1="1" x2="47" gradientUnits="userSpaceOnUse" gradientTransform="rotate(-90 24 24)">
      <stop stop-color="#ee810c"/>
      <stop offset="1" stop-color="#f38b1b"/>
    </linearGradient>
  </defs>
  <path d="M36.31 5c5.859 4.062 9.688 10.831 9.688 18.5 0 12.426-10.07 22.5-22.5 22.5-7.669 0-14.438-3.828-18.5-9.688a23.24 23.24 0 0 0 3.781 4.969 22.923 22.923 0 0 0 15.469 5.969c12.703 0 23-10.298 23-23a22.92 22.92 0 0 0-5.969-15.469A23.216 23.216 0 0 0 36.31 5zm4.969 3.781A22.911 22.911 0 0 1 47.498 24.5c0 12.703-10.297 23-23 23a22.909 22.909 0 0 1-15.719-6.219C12.939 45.425 18.662 48 24.998 48c12.703 0 23-10.298 23-23 0-6.335-2.575-12.06-6.719-16.219z" opacity=".05"/>
  <path d="M41.28 8.781a22.923 22.923 0 0 1 5.969 15.469c0 12.703-10.297 23-23 23A22.92 22.92 0 0 1 8.78 41.281 22.911 22.911 0 0 0 24.499 47.5c12.703 0 23-10.298 23-23A22.909 22.909 0 0 0 41.28 8.781z" opacity=".1"/>
  <path d="M31.25 2.375C39.865 5.529 46 13.792 46 23.505c0 12.426-10.07 22.5-22.5 22.5-9.708 0-17.971-6.135-21.12-14.75a23 23 0 0 0 44.875-7 23 23 0 0 0-16-21.875z" opacity=".2"/>
  <path d="M24 1c12.703 0 23 10.297 23 23S36.703 47 24 47 1 36.703 1 24 11.297 1 24 1z" fill="url(#a)"/>
  <path d="M40.03 7.531A22.922 22.922 0 0 1 45.999 23c0 12.703-10.297 23-23 23A22.92 22.92 0 0 1 7.53 40.031C11.708 44.322 17.54 47 23.999 47c12.703 0 23-10.298 23-23 0-6.462-2.677-12.291-6.969-16.469z" opacity=".1"/>
  <path d="M28 18.998c-.723 0-1.249.12-1.693.301-.244.099-.307.304-.307.699v10.5c0 .277.223.5.5.5h8.8c1.691 0 2.7-1.625 2.7-3.5s-1.426-3.279-3.191-3.279c-.441 0-.859.094-1.238.266-.254-3.066-2.57-5.486-5.57-5.486m-3.5 1c-.277 0-.5.223-.5.5v10a.499.499 0 1 0 1 0v-10c0-.277-.223-.5-.5-.5zm-4 1c-.277 0-.5.223-.5.5v9a.499.499 0 1 0 1 0v-9c0-.277-.223-.5-.5-.5m-2 1c-.277 0-.5.223-.5.5v8a.499.499 0 1 0 1 0v-8c0-.277-.223-.5-.5-.5m4 0c-.277 0-.5.223-.5.5v8a.499.499 0 1 0 1 0v-8c0-.277-.223-.5-.5-.5m-8 2c-.277 0-.5.223-.5.5v6a.499.499 0 1 0 1 0v-6c0-.277-.223-.5-.5-.5m2 1c-.277 0-.5.223-.5.5v5a.499.499 0 1 0 1 0v-5c0-.277-.223-.5-.5-.5m-4 1c-.277 0-.5.223-.5.5v3a.499.499 0 1 0 1 0v-3c0-.277-.223-.5-.5-.5" opacity=".1"/>
  <path d="M27 17.998c-.723 0-1.249.12-1.693.301-.244.099-.307.304-.307.699v10.5c0 .277.223.5.5.5h8.8c1.691 0 2.7-1.625 2.7-3.5s-1.426-3.279-3.191-3.279c-.441 0-.859.094-1.238.266-.254-3.066-2.57-5.486-5.57-5.486m-3.5 1c-.277 0-.5.223-.5.5v10a.499.499 0 1 0 1 0v-10c0-.277-.223-.5-.5-.5zm-4 1c-.277 0-.5.223-.5.5v9a.499.499 0 1 0 1 0v-9c0-.277-.223-.5-.5-.5zm-2 1c-.277 0-.5.223-.5.5v8a.499.499 0 1 0 1 0v-8c0-.277-.223-.5-.5-.5zm4 0c-.277 0-.5.223-.5.5v8a.499.499 0 1 0 1 0v-8c0-.277-.223-.5-.5-.5zm-8 2c-.277 0-.5.223-.5.5v6a.499.499 0 1 0 1 0v-6c0-.277-.223-.5-.5-.5zm2 1c-.277 0-.5.223-.5.5v5a.499.499 0 1 0 1 0v-5c0-.277-.223-.5-.5-.5zm-4 1c-.277 0-.5.223-.5.5v3a.499.499 0 1 0 1 0v-3c0-.277-.223-.5-.5-.5z" fill="#f9f9f9"/>
</svg>
