<svg version="1.1" viewBox="0 0 48 48" xmlns="http://www.w3.org/2000/svg">
 <defs>
  <linearGradient id="lG4283" x2="0" y1="47" y2="1" gradientUnits="userSpaceOnUse">
   <stop style="stop-color:#8c456d" offset="0"/>
   <stop style="stop-color:#9a4c78" offset="1"/>
  </linearGradient>
 </defs>
 <path d="m36.3 5c5.86 4.06 9.69 10.8 9.69 18.5 0 12.4-10.1 22.5-22.5 22.5-7.67 0-14.4-3.83-18.5-9.69 1.04 1.82 2.31 3.5 3.78 4.97 4.08 3.71 9.51 5.97 15.5 5.97 12.7 0 23-10.3 23-23 0-5.95-2.26-11.4-5.97-15.5-1.47-1.48-3.15-2.74-4.97-3.78zm4.97 3.78c3.85 4.11 6.22 9.64 6.22 15.7 0 12.7-10.3 23-23 23-6.08 0-11.6-2.36-15.7-6.22 4.16 4.14 9.88 6.72 16.2 6.72 12.7 0 23-10.3 23-23 0-6.34-2.58-12.1-6.72-16.2z" style="opacity:.05"/>
 <path d="m41.3 8.78c3.71 4.08 5.97 9.51 5.97 15.5 0 12.7-10.3 23-23 23-5.95 0-11.4-2.26-15.5-5.97 4.11 3.85 9.64 6.22 15.7 6.22 12.7 0 23-10.3 23-23 0-6.08-2.36-11.6-6.22-15.7z" style="opacity:.1"/>
 <path d="m31.2 2.38c8.62 3.15 14.8 11.4 14.8 21.1 0 12.4-10.1 22.5-22.5 22.5-9.71 0-18-6.14-21.1-14.8a23 23 0 0 0 44.9-7 23 23 0 0 0-16-21.9z" style="opacity:.2"/>
 <path d="m24 1c12.7 0 23 10.3 23 23s-10.3 23-23 23-23-10.3-23-23 10.3-23 23-23z" style="fill:url(#lG4283)"/>
 <path d="m40 7.53c3.71 4.08 5.97 9.51 5.97 15.5 0 12.7-10.3 23-23 23-5.95 0-11.4-2.26-15.5-5.97 4.18 4.29 10 6.97 16.5 6.97 12.7 0 23-10.3 23-23 0-6.46-2.68-12.3-6.97-16.5z" style="opacity:.1"/>
 <path d="m31 10a2 2 0 0 0-2 2 2 2 0 0 0 2e-3 0.051l-10.3 2.94a2 2 0 0 0-1.72-0.989 2 2 0 0 0-2 2 2 2 0 0 0 0.84 1.63l-3.61 9.39a2 2 0 0 0-0.229-0.014 2 2 0 0 0-2 2 2 2 0 0 0 2 2 2 2 0 0 0 1.11-0.34l6.11 5.43a2 2 0 0 0-0.22 0.912 2 2 0 0 0 2 2 2 2 0 0 0 2-1.98l8.24-2.06a2 2 0 0 0 1.76 1.05 2 2 0 0 0 2-2 2 2 0 0 0-0.91-1.68l3.77-11.3a2 2 0 0 0 0.137 6e-3 2 2 0 0 0 2-2 2 2 0 0 0-2-2 2 2 0 0 0-1.01 0.279l-4.26-4.27a2 2 0 0 0 0.277-1.01 2 2 0 0 0-2-2m-1.72 3.01a2 2 0 0 0 0.697 0.703l-3.91 13.3a2 2 0 0 0-0.06 0 2 2 0 0 0-0.691 0.13l-6.8-9.82a2 2 0 0 0 0.486-1.31 2 2 0 0 0-2e-3 -0.051l10.3-2.94zm2.74 0.711 4.27 4.26a2 2 0 0 0-0.279 1.02 2 2 0 0 0 0.193 0.855l-9.03 7.52a2 2 0 0 0-0.139-0.094l3.91-13.3a2 2 0 0 0 0.064 4e-3 2 2 0 0 0 1.01-0.277m-14.3 4.15 6.8 9.82a2 2 0 0 0-0.218 0.309h-10.5a2 2 0 0 0-0.568-0.627l3.61-9.39a2 2 0 0 0 0.228 0.014 2 2 0 0 0 0.691-0.125m19.1 2.75a2 2 0 0 0 0.078 0.055l-3.78 11.3a2 2 0 0 0-0.134-6e-3 2 2 0 0 0-1.28 0.469l-3.85-2.75a2 2 0 0 0 0.137-0.719 2 2 0 0 0-0.193-0.85l9.03-7.52zm-22.8 8.38h10a2 2 0 0 0 0.551 1.38l-2.95 4.71a2 2 0 0 0-0.602-0.09 2 2 0 0 0-1.11 0.34l-6.11-5.43a2 2 0 0 0 0.221-0.912m13.3 1.53 3.85 2.75a2 2 0 0 0-0.137 0.703l-8.24 2.06a2 2 0 0 0-0.307-0.424l2.95-4.72a2 2 0 0 0 0.602 0.094 2 2 0 0 0 1.28-0.469" style="opacity:.1"/>
 <path d="m30 9a2 2 0 0 0-2 2 2 2 0 0 0 0 0.0508 2 2 0 0 0 0 0.00195l-10.3 2.94a2 2 0 0 0-1.72-0.988 2 2 0 0 0-2 2 2 2 0 0 0 0.842 1.63l-3.61 9.38a2 2 0 0 0-0.232-0.0137 2 2 0 0 0-2 2 2 2 0 0 0 2 2 2 2 0 0 0 1.12-0.342h0.00195l6.11 5.43v0.00195a2 2 0 0 0-0.223 0.914 2 2 0 0 0 2 2 2 2 0 0 0 2-1.98l8.24-2.06a2 2 0 0 0 1.76 1.04 2 2 0 0 0 2-2 2 2 0 0 0-0.91-1.68l3.78-11.3a2 2 0 0 0 0.135 0.00391 2 2 0 0 0 2-2 2 2 0 0 0-2-2 2 2 0 0 0-1.01 0.275l-4.26-4.26a2 2 0 0 0 0.275-1.01 2 2 0 0 0-2-2zm-1.72 3.01a2 2 0 0 0 0.701 0.705l-3.91 13.3a2 2 0 0 0-0.0684-0.00195 2 2 0 0 0-0.686 0.121l-6.8-9.82a2 2 0 0 0 0.484-1.3 2 2 0 0 0 0-0.0566l10.3-2.93zm2.74 0.709 4.26 4.26a2 2 0 0 0-0.277 1.02 2 2 0 0 0 0.195 0.863l-9.02 7.52a2 2 0 0 0-0.141-0.0938l3.9-13.3a2 2 0 0 0 0.0625 0 2 2 0 0 0 1.02-0.277zm-14.3 4.15 6.79 9.81a2 2 0 0 0-0.219 0.307h-10.5a2 2 0 0 0-0.572-0.627l3.61-9.38h0.00195a2 2 0 0 0 0.229 0.0137 2 2 0 0 0 0.691-0.123zm19.1 2.74a2 2 0 0 0 0.0742 0.0566l-3.78 11.3a2 2 0 0 0-0.137-0.00391 2 2 0 0 0-1.29 0.469l-3.85-2.75a2 2 0 0 0 0.135-0.719 2 2 0 0 0-0.195-0.854l9.03-7.53zm-22.8 8.38h10a2 2 0 0 1 0 0.00195 2 2 0 0 0 0.551 1.38l-2.95 4.71a2 2 0 0 0-0.604-0.0938 2 2 0 0 0-1.11 0.338l-6.11-5.43a2 2 0 0 0 0-0.00195 2 2 0 0 0 0.219-0.908 2 2 0 0 1 0-0.00195zm13.3 1.53 3.85 2.75a2 2 0 0 0-0.135 0.709l-8.24 2.06a2 2 0 0 0-0.305-0.422l2.95-4.72h0.00195a2 2 0 0 0 0.598 0.0918 2 2 0 0 0 1.29-0.469z" style="fill:#f9f9f9"/>
</svg>
