<svg version="1.1" viewBox="0 0 48 48" xmlns="http://www.w3.org/2000/svg">
 <defs>
  <linearGradient id="bg" x2="0" y1="1" y2="47" gradientUnits="userSpaceOnUse">
   <stop style="stop-color:#2f5384" offset="0"/>
   <stop style="stop-color:#2a4a76" offset="1"/>
  </linearGradient>
 </defs>
 <path d="m36.31 5c5.859 4.062 9.688 10.831 9.688 18.5 0 12.426-10.07 22.5-22.5 22.5-7.669 0-14.438-3.828-18.5-9.688 1.037 1.822 2.306 3.499 3.781 4.969 4.085 3.712 9.514 5.969 15.469 5.969 12.703 0 23-10.298 23-23 0-5.954-2.256-11.384-5.969-15.469-1.469-1.475-3.147-2.744-4.969-3.781zm4.969 3.781c3.854 4.113 6.219 9.637 6.219 15.719 0 12.703-10.297 23-23 23-6.081 0-11.606-2.364-15.719-6.219 4.16 4.144 9.883 6.719 16.219 6.719 12.703 0 23-10.298 23-23 0-6.335-2.575-12.06-6.719-16.219z" style="opacity:.05"/>
 <path d="m41.28 8.781c3.712 4.085 5.969 9.514 5.969 15.469 0 12.703-10.297 23-23 23-5.954 0-11.384-2.256-15.469-5.969 4.113 3.854 9.637 6.219 15.719 6.219 12.703 0 23-10.298 23-23 0-6.081-2.364-11.606-6.219-15.719z" style="opacity:.1"/>
 <path d="m31.25 2.375c8.615 3.154 14.75 11.417 14.75 21.13 0 12.426-10.07 22.5-22.5 22.5-9.708 0-17.971-6.135-21.12-14.75a23 23 0 0 0 44.875-7 23 23 0 0 0-16-21.875z" style="opacity:.2"/>
 <circle cx="24" cy="24" r="23" style="fill:url(#bg)"/>
 <path d="m40.03 7.531c3.712 4.084 5.969 9.514 5.969 15.469 0 12.703-10.297 23-23 23-5.954 0-11.384-2.256-15.469-5.969 4.178 4.291 10.01 6.969 16.469 6.969 12.703 0 23-10.298 23-23 0-6.462-2.677-12.291-6.969-16.469z" style="opacity:.1"/>
 <path d="m23.398 37-0.3983 1.5805s0 0.41949 1 0.41949c1.4853 0 1.4958-0.38136 1.4958-0.38136l-0.31216-1.6186h0.25424l-0.025423-0.64407 0.13983-0.025424-0.05225-5.3305 0.5-2 0.5 2 0.07319 5.3305 0.050844 0.66949h0.32203l0.053932 1.6441s0 0.35593 1 0.35593c1.3836 0 1.3475-0.38136 1.3475-0.38136l-0.34746-1.6186v-15.653c1 1.6525 1 3.6525 1 3.6525l0.49152 1-0.10169 2 0.61017 1s1-1 1-2c0-0.36426-0.44068-1-0.44068-1l0.44068-0.38136v-2.6186h-0.38983l-1.6102-6-1.4407-1-0.55932-1 0.4322-0.4661-0.025424-0.5339-0.40678-0.49152s0-1.5085-2-1.5085-2 1.6186-2 1.6186l-0.32203 0.38136 0.025424 0.61017 0.29661 0.38983v0.42373l-0.70339 1.1695h-0.78814l-0.50848 0.40678h-2v-2s1-1 1-2c0-0.19459-0.37288-0.44915-0.37288-0.44915l-0.62712 0.44915v-2c-2 0-2 1-2 1v6c0 1 5 1 5 3v15z" style="opacity:.1"/>
 <path d="m22.398 36-0.3983 1.5805s0 0.41949 1 0.41949c1.4853 0 1.4958-0.38136 1.4958-0.38136l-0.31216-1.6186h0.25424l-0.025423-0.64407 0.13983-0.025424-0.05225-5.3305 0.5-2 0.5 2 0.07319 5.3305 0.050844 0.66949h0.32203l0.053932 1.6441s0 0.35593 1 0.35593c1.3836 0 1.3475-0.38136 1.3475-0.38136l-0.34746-1.6186v-15.653c1 1.6525 1 3.6525 1 3.6525l0.49152 1-0.10169 2 0.61017 1s1-1 1-2c0-0.36426-0.44068-1-0.44068-1l0.44068-0.38136v-2.6186h-0.38983l-1.6102-6-1.4407-1-0.55932-1 0.4322-0.4661-0.025424-0.5339-0.40678-0.49152s0-1.5085-2-1.5085-2 1.6186-2 1.6186l-0.32203 0.38136 0.025424 0.61017 0.29661 0.38983v0.42373l-0.70339 1.1695h-0.78814l-0.50848 0.40678h-2v-2s1-1 1-2c0-0.19459-0.37288-0.44915-0.37288-0.44915l-0.62712 0.44915v-2c-2 0-2 1-2 1v6c0 1 5 1 5 3v15z" style="fill:#48ed9e"/>
</svg>
