<svg xmlns="http://www.w3.org/2000/svg" viewBox="0 0 48 48">
  <defs>
    <linearGradient id="a" x1="1" x2="47" gradientUnits="userSpaceOnUse" gradientTransform="rotate(-90 24 24)">
      <stop stop-color="#d75d5d"/>
      <stop offset="1" stop-color="#db6d6d"/>
    </linearGradient>
  </defs>
  <path d="M36.31 5c5.859 4.062 9.688 10.831 9.688 18.5 0 12.426-10.07 22.5-22.5 22.5-7.669 0-14.438-3.828-18.5-9.688a23.24 23.24 0 0 0 3.781 4.969 22.923 22.923 0 0 0 15.469 5.969c12.703 0 23-10.298 23-23a22.92 22.92 0 0 0-5.969-15.469A23.216 23.216 0 0 0 36.31 5zm4.969 3.781A22.911 22.911 0 0 1 47.498 24.5c0 12.703-10.297 23-23 23a22.909 22.909 0 0 1-15.719-6.219C12.939 45.425 18.662 48 24.998 48c12.703 0 23-10.298 23-23 0-6.335-2.575-12.06-6.719-16.219z" opacity=".05"/>
  <path d="M41.28 8.781a22.923 22.923 0 0 1 5.969 15.469c0 12.703-10.297 23-23 23A22.92 22.92 0 0 1 8.78 41.281 22.911 22.911 0 0 0 24.499 47.5c12.703 0 23-10.298 23-23A22.909 22.909 0 0 0 41.28 8.781z" opacity=".1"/>
  <path d="M31.25 2.375C39.865 5.529 46 13.792 46 23.505c0 12.426-10.07 22.5-22.5 22.5-9.708 0-17.971-6.135-21.12-14.75a23 23 0 0 0 44.875-7 23 23 0 0 0-16-21.875z" opacity=".2"/>
  <path d="M24 1c12.703 0 23 10.297 23 23S36.703 47 24 47 1 36.703 1 24 11.297 1 24 1z" fill="url(#a)"/>
  <g opacity=".1">
    <path d="M37.04 28c0 4.969-5.371 9-12 9-6.625 0-12-4.03-12-9 0-4.973 5.375-9 12-9 6.629 0 12 4.03 12 9m0 0"/>
    <path d="M16.06 32.996v-9.738s-4.063 0-4.063 4.867c0 4.871 4.063 4.871 4.063 4.871m0 0M33.938 32.996v-9.738s4.066 0 4.066 4.867c0 4.871-4.066 4.871-4.066 4.871m0 0"/>
    <path d="M25.01 12c-5.574-.055-8.402 3.082-9.605 6.109-1.191 3.035-.977 6.02-.977 6.02l1.625-.113s-.172-2.688.859-5.313c1.039-2.621 3.074-5.113 8.06-5.07 4.992.051 7.05 2.559 8.09 5.156 1.039 2.598.863 5.223.863 5.223l1.629.113s.219-2.938-.98-5.941c-1.195-3-4-6.133-9.574-6.188m0 .008"/>
  </g>
  <g>
    <path d="M36.04 27c0 4.969-5.371 9-12 9-6.625 0-12-4.03-12-9 0-4.973 5.375-9 12-9 6.629 0 12 4.03 12 9m0 0" fill="#ffdec6"/>
    <path d="M15.06 31.996v-9.738s-4.063 0-4.063 4.867c0 4.871 4.063 4.871 4.063 4.871m0 0M32.938 31.996v-9.738s4.066 0 4.066 4.867c0 4.871-4.066 4.871-4.066 4.871m0 0" fill="#2d2d2d"/>
    <path d="M24.01 11c-5.574-.055-8.402 3.082-9.605 6.109-1.191 3.035-.977 6.02-.977 6.02l1.625-.113s-.172-2.688.859-5.313c1.039-2.621 3.074-5.113 8.06-5.07 4.992.051 7.05 2.559 8.09 5.156 1.039 2.598.863 5.223.863 5.223l1.629.113s.219-2.938-.98-5.941c-1.195-3-4-6.133-9.574-6.188m0 .008" fill="#2d2d2d"/>
    <path d="M22 24.996a2 2 0 1 1-3.999.001A2 2 0 0 1 22 24.996m0 0M30 24.996a2 2 0 1 1-3.999.001A2 2 0 0 1 30 24.996m0 0" fill="#2d2d2d"/>
    <path d="M28 30.996a4 4 0 1 1-8 0 4 4 0 0 1 8 0m0 0" fill="#ffaba2"/>
    <path d="M23 31c0 .551-.449 1-1 1a1 1 0 1 1 1-1m0 0M27 31c0 .551-.449 1-1 1a1 1 0 1 1 1-1m0 0" fill="#a42828"/>
    <path d="M28 21c-1.105 0-2 .898-2 2 0 .086.023.168.031.25a1.99 1.99 0 0 1 1.973-1.75c1.02 0 1.844.766 1.969 1.75.012-.082.031-.16.031-.25 0-1.105-.895-2-1.996-2M20 21c-1.105 0-2 .898-2 2 0 .086.02.168.031.25a1.99 1.99 0 0 1 1.973-1.75c1.02 0 1.844.766 1.969 1.75.012-.082.031-.16.031-.25a2 2 0 0 0-2-2M20 21" fill="#2d2d2d"/>
  </g>
  <g>
    <path d="M40.03 7.531A22.922 22.922 0 0 1 45.999 23c0 12.703-10.297 23-23 23A22.92 22.92 0 0 1 7.53 40.031C11.708 44.322 17.54 47 23.999 47c12.703 0 23-10.298 23-23 0-6.462-2.677-12.291-6.969-16.469z" opacity=".1"/>
  </g>
</svg>
