<?xml version="1.0" encoding="UTF-8" standalone="no"?>
<svg xmlns="http://www.w3.org/2000/svg" version="1.1"
   xmlns:xlink="http://www.w3.org/1999/xlink"
   viewBox="0 0 48 48">
  <defs>
    <linearGradient id="bg" gradientUnits="userSpaceOnUse"
                    x1="50%" y1="1"
                    x2="50%" y2="47">
      <stop offset="0" stop-color="#2b1d1e"/>
      <stop offset="1" stop-color="#1f1516"/>
    </linearGradient>
  </defs>
  <!-- Background -->
  <g>
    <path opacity=".05" d="m 36.31 5 c 5.859 4.062 9.688 10.831 9.688 18.5 c 0 12.426 -10.07 22.5 -22.5 22.5 c -7.669 0 -14.438 -3.828 -18.5 -9.688 c 1.037 1.822 2.306 3.499 3.781 4.969 c 4.085 3.712 9.514 5.969 15.469 5.969 c 12.703 0 23 -10.298 23 -23 c 0 -5.954 -2.256 -11.384 -5.969 -15.469 c -1.469 -1.475 -3.147 -2.744 -4.969 -3.781 z m 4.969 3.781 c 3.854 4.113 6.219 9.637 6.219 15.719 c 0 12.703 -10.297 23 -23 23 c -6.081 0 -11.606 -2.364 -15.719 -6.219 c 4.16 4.144 9.883 6.719 16.219 6.719 c 12.703 0 23 -10.298 23 -23 c 0 -6.335 -2.575 -12.06 -6.719 -16.219 z"/>
    <path opacity=".1" d="m 41.28 8.781 c 3.712 4.085 5.969 9.514 5.969 15.469 c 0 12.703 -10.297 23 -23 23 c -5.954 0 -11.384 -2.256 -15.469 -5.969 c 4.113 3.854 9.637 6.219 15.719 6.219 c 12.703 0 23 -10.298 23 -23 c 0 -6.081 -2.364 -11.606 -6.219 -15.719 z"/>
    <path opacity=".2" d="m 31.25 2.375 c 8.615 3.154 14.75 11.417 14.75 21.13 c 0 12.426 -10.07 22.5 -22.5 22.5 c -9.708 0 -17.971 -6.135 -21.12 -14.75 a 23 23 0 0 0 44.875 -7 a 23 23 0 0 0 -16 -21.875 z"/>
    <circle fill="url(#bg)" cx="24" cy="24" r="23"/>
    <path opacity=".1" d="m 40.03 7.531 c 3.712 4.084 5.969 9.514 5.969 15.469 0 12.703 -10.297 23 -23 23 c -5.954 0 -11.384 -2.256 -15.469 -5.969 4.178 4.291 10.01 6.969 16.469 6.969 c 12.703 0 23 -10.298 23 -23 0 -6.462 -2.677 -12.291 -6.969 -16.469 z"/>
  </g>
  <!-- Dropped shadow -->
  <g opacity=".1" transform="translate(1 1)">
    <g>
      <path d="m20.897 26.514-0.25532 0.66776 1.8331 5.6387l1.525 3.179 2.0737-4.3993-0.02778-1.8902-0.74969-0.72191-2.239-0.72668z"/>
      <path d="m25.12 19.285 1.4771-2.4262-1.7726-1.6186-1.3944-0.13748-2.1211 1.2766 1.1005 1.466 1.1032 0.38534"/>
    </g>
    <path d="m26.229 17.755 0.4419 0.90344 2.5532 1.964 2.1015 3.653 0.05892 0.80524-3.1031 4.8903-5.126-1.9051-2.2782-1.8265-0.51064-0.66776-0.08312-1.2143 0.3061-0.03809 0.9456 0.70032 0.06893-0.09724-1.3554-1.1576-0.22094-1.2603 0.33878-0.44837 0.54992-0.11784 1.8065 1.5606 0.10017-0.13275-1.7669-1.7473-0.04158-0.54477 0.79809-1.074 0.45887-0.1111 1.9363 1.8562 0.09338-0.12504-1.9512-2.0483-0.11782-0.5796 0.26543-0.92546 0.93121 0.30808 1.6934 1.0869 1.47 1.4944 0.491 0.0982-1.3748-1.4141-0.13748-0.79542z"/>
    <g>
      <path d="m31.66 24.923 0.8838 0.47136-3.5941 7.4043-1.6694-0.982z"/>
      <path d="m19.069 17.532 4.3615-2.6054 1.4232 0.13818 3.1714 2.8412 1.611-4.1524l-2.635-1.754-1.961 2.073-1.25 0.389-0.986-0.556-1.486-1.847-2.902 1.597z"/>
    </g>
    <g>
      <path d="m19.993 22.036 0.80524-0.25532-0.0982-0.74632 1.0409-1.3159 0.33388-0.0982-0.13748-0.64812 0.27496-0.8838-1.0802-1.5319-1.9051 1.1195z"/>
      <path d="m26.73 17.028 1.2177 1.0802-0.37316 1.0213-0.74632-0.64812-0.41244-0.84452z"/>
    </g>
  </g>
  <!-- Symbol -->
  <g style="fill:#f00">
    <path d="m20.897 26.514-0.25532 0.66776 1.8331 5.6387l1.525 3.179 2.0737-4.3993-0.02778-1.8902-0.74969-0.72191-2.239-0.72668z"/>
    <path d="m25.12 19.285 1.4771-2.4262-1.7726-1.6186-1.3944-0.13748-2.1211 1.2766 1.1005 1.466 1.1032 0.38534"/>
  </g>
  <path style="fill:#e4a891" d="m26.229 17.755 0.4419 0.90344 2.5532 1.964 2.1015 3.653 0.05892 0.80524-3.1031 4.8903-5.126-1.9051-2.2782-1.8265-0.51064-0.66776-0.08312-1.2143 0.3061-0.03809 0.9456 0.70032 0.06893-0.09724-1.3554-1.1576-0.22094-1.2603 0.33878-0.44837 0.54992-0.11784 1.8065 1.5606 0.10017-0.13275-1.7669-1.7473-0.04158-0.54477 0.79809-1.074 0.45887-0.1111 1.9363 1.8562 0.09338-0.12504-1.9512-2.0483-0.11782-0.5796 0.26543-0.92546 0.93121 0.30808 1.6934 1.0869 1.47 1.4944 0.491 0.0982-1.3748-1.4141-0.13748-0.79542z"/>
  <g style="fill:#fff">
    <path d="m31.66 24.923 0.8838 0.47136-3.5941 7.4043-1.6694-0.982z"/>
    <path d="m19.069 17.532 4.3615-2.6054 1.4232 0.13818 3.1714 2.8412 1.611-4.1524l-2.635-1.754-1.961 2.073-1.25 0.389-0.986-0.556-1.486-1.847-2.902 1.597z"/>
  </g>
  <g style="fill:#c0c0c0">
    <path d="m19.993 22.036 0.80524-0.25532-0.0982-0.74632 1.0409-1.3159 0.33388-0.0982-0.13748-0.64812 0.27496-0.8838-1.0802-1.5319-1.9051 1.1195z"/>
    <path d="m26.73 17.028 1.2177 1.0802-0.37316 1.0213-0.74632-0.64812-0.41244-0.84452z"/>
  </g>
</svg>
