<svg viewBox="0 0 48 48" xmlns="http://www.w3.org/2000/svg">
 <defs>
  <linearGradient id="linearGradient3784" x2="0" y1="47" y2="1" gradientUnits="userSpaceOnUse">
   <stop style="stop-color:#2d2d2d" offset="0"/>
   <stop style="stop-color:#373737" offset="1"/>
  </linearGradient>
  <linearGradient id="linearGradient3803" x1="9" x2="39" gradientUnits="userSpaceOnUse">
   <stop style="stop-color:#ec6d00" offset="0"/>
   <stop style="stop-color:#3c3127" offset="1"/>
  </linearGradient>
 </defs>
 <path d="m36.31 5c5.859 4.062 9.688 10.831 9.688 18.5 0 12.426-10.07 22.5-22.5 22.5-7.669 0-14.438-3.828-18.5-9.688 1.037 1.822 2.306 3.499 3.781 4.969 4.085 3.712 9.514 5.969 15.469 5.969 12.703 0 23-10.298 23-23 0-5.954-2.256-11.384-5.969-15.469-1.469-1.475-3.147-2.744-4.969-3.781zm4.969 3.781c3.854 4.113 6.219 9.637 6.219 15.719 0 12.703-10.297 23-23 23-6.081 0-11.606-2.364-15.719-6.219 4.16 4.144 9.883 6.719 16.219 6.719 12.703 0 23-10.298 23-23 0-6.335-2.575-12.06-6.719-16.219z" style="opacity:.05"/>
 <path d="m41.28 8.781c3.712 4.085 5.969 9.514 5.969 15.469 0 12.703-10.297 23-23 23-5.954 0-11.384-2.256-15.469-5.969 4.113 3.854 9.637 6.219 15.719 6.219 12.703 0 23-10.298 23-23 0-6.081-2.364-11.606-6.219-15.719z" style="opacity:.1"/>
 <path d="m31.25 2.375c8.615 3.154 14.75 11.417 14.75 21.13 0 12.426-10.07 22.5-22.5 22.5-9.708 0-17.971-6.135-21.12-14.75a23 23 0 0 0 44.875-7 23 23 0 0 0-16-21.875z" style="opacity:.2"/>
 <path d="m24 1c12.703 0 23 10.297 23 23s-10.297 23-23 23-23-10.297-23-23 10.297-23 23-23z" style="fill:url(#linearGradient3784)"/>
 <g transform="translate(.004)"></g>
 <path d="m40.03 7.531c3.712 4.084 5.969 9.514 5.969 15.469 0 12.703-10.297 23-23 23-5.954 0-11.384-2.256-15.469-5.969 4.178 4.291 10.01 6.969 16.469 6.969 12.703 0 23-10.298 23-23 0-6.462-2.677-12.291-6.969-16.469z" style="opacity:.1"/>
 <circle cx="25" cy="25" r="15" style="fill-opacity:.11"/>
 <circle transform="matrix(-.36529 .93061 -.93061 -.36529 55.101 10.432)" cx="24" cy="24" r="15" style="fill:url(#linearGradient3803)"/>
 <path d="m23 6.5a0.5 0.5 0 1 1-1 0 0.5 0.5 0 1 1 1 0z" style="fill:#f9f9f9"/>
 <path transform="translate(8,-2)" d="m23 6.5a0.5 0.5 0 1 1-1 0 0.5 0.5 0 1 1 1 0z" style="fill:#f9f9f9"/>
 <path transform="translate(-18,10)" d="m23 6.5a0.5 0.5 0 1 1-1 0 0.5 0.5 0 1 1 1 0z" style="fill:#f9f9f9"/>
 <path transform="translate(-7)" d="m23 6.5a0.5 0.5 0 1 1-1 0 0.5 0.5 0 1 1 1 0z" style="fill:#f9f9f9"/>
 <path transform="translate(-12,6)" d="m23 6.5a0.5 0.5 0 1 1-1 0 0.5 0.5 0 1 1 1 0z" style="fill:#f9f9f9"/>
 <path transform="translate(-16,17)" d="m23 6.5a0.5 0.5 0 1 1-1 0 0.5 0.5 0 1 1 1 0z" style="fill:#f9f9f9"/>
 <path transform="translate(-18,22)" d="m23 6.5a0.5 0.5 0 1 1-1 0 0.5 0.5 0 1 1 1 0z" style="fill:#f9f9f9"/>
 <path transform="translate(-13,28)" d="m23 6.5a0.5 0.5 0 1 1-1 0 0.5 0.5 0 1 1 1 0z" style="fill:#f9f9f9"/>
 <path transform="translate(10,3)" d="m23 6.5a0.5 0.5 0 1 1-1 0 0.5 0.5 0 1 1 1 0z" style="fill:#f9f9f9"/>
 <path transform="translate(18,5)" d="m23 6.5a0.5 0.5 0 1 1-1 0 0.5 0.5 0 1 1 1 0z" style="fill:#f9f9f9"/>
 <path transform="translate(20,10)" d="m23 6.5a0.5 0.5 0 1 1-1 0 0.5 0.5 0 1 1 1 0z" style="fill:#f9f9f9"/>
 <path transform="translate(18,17)" d="m23 6.5a0.5 0.5 0 1 1-1 0 0.5 0.5 0 1 1 1 0z" style="fill:#f9f9f9"/>
 <path transform="translate(22,20)" d="m23 6.5a0.5 0.5 0 1 1-1 0 0.5 0.5 0 1 1 1 0z" style="fill:#f9f9f9"/>
 <path transform="translate(19,25)" d="m23 6.5a0.5 0.5 0 1 1-1 0 0.5 0.5 0 1 1 1 0z" style="fill:#f9f9f9"/>
 <path transform="translate(14,29)" d="m23 6.5a0.5 0.5 0 1 1-1 0 0.5 0.5 0 1 1 1 0z" style="fill:#f9f9f9"/>
 <path transform="translate(11,36)" d="m23 6.5a0.5 0.5 0 1 1-1 0 0.5 0.5 0 1 1 1 0z" style="fill:#f9f9f9"/>
 <path transform="translate(3,34)" d="m23 6.5a0.5 0.5 0 1 1-1 0 0.5 0.5 0 1 1 1 0z" style="fill:#f9f9f9"/>
 <path transform="translate(-10,34)" d="m23 6.5a0.5 0.5 0 1 1-1 0 0.5 0.5 0 1 1 1 0z" style="fill:#f9f9f9"/>
 <path transform="translate(-5,33)" d="m23 6.5a0.5 0.5 0 1 1-1 0 0.5 0.5 0 1 1 1 0z" style="fill:#f9f9f9"/>
 <path transform="translate(-1,38)" d="m23 6.5a0.5 0.5 0 1 1-1 0 0.5 0.5 0 1 1 1 0z" style="fill:#f9f9f9"/>
</svg>
