<svg xmlns="http://www.w3.org/2000/svg" viewBox="0 0 48 48">
  <defs>
    <linearGradient gradientTransform="rotate(-90 24 24)" gradientUnits="userSpaceOnUse" x2="47" x1="1" id="a">
      <stop stop-color="#e6d6e6"/>
      <stop offset="1" stop-color="#ede2ed"/>
    </linearGradient>
  </defs>
  <path d="M36.31 5c5.859 4.062 9.688 10.831 9.688 18.5 0 12.426-10.07 22.5-22.5 22.5-7.669 0-14.438-3.828-18.5-9.688a23.24 23.24 0 0 0 3.781 4.969 22.923 22.923 0 0 0 15.469 5.969c12.703 0 23-10.298 23-23a22.92 22.92 0 0 0-5.969-15.469A23.216 23.216 0 0 0 36.31 5zm4.969 3.781A22.911 22.911 0 0 1 47.498 24.5c0 12.703-10.297 23-23 23a22.909 22.909 0 0 1-15.719-6.219C12.939 45.425 18.662 48 24.998 48c12.703 0 23-10.298 23-23 0-6.335-2.575-12.06-6.719-16.219z" opacity=".05"/>
  <path d="M41.28 8.781a22.923 22.923 0 0 1 5.969 15.469c0 12.703-10.297 23-23 23A22.92 22.92 0 0 1 8.78 41.281 22.911 22.911 0 0 0 24.499 47.5c12.703 0 23-10.298 23-23A22.909 22.909 0 0 0 41.28 8.781z" opacity=".1"/>
  <path d="M31.25 2.375C39.865 5.529 46 13.792 46 23.505c0 12.426-10.07 22.5-22.5 22.5-9.708 0-17.971-6.135-21.12-14.75a23 23 0 0 0 44.875-7 23 23 0 0 0-16-21.875z" opacity=".2"/>
  <path d="M24 1c12.703 0 23 10.297 23 23S36.703 47 24 47 1 36.703 1 24 11.297 1 24 1z" fill="url(#a)"/>
  <path d="M40.03 7.531A22.922 22.922 0 0 1 45.999 23c0 12.703-10.297 23-23 23A22.92 22.92 0 0 1 7.53 40.031C11.708 44.322 17.54 47 23.999 47c12.703 0 23-10.298 23-23 0-6.462-2.677-12.291-6.969-16.469z" opacity=".1"/>
  <g opacity=".1">
    <path d="M29.355 11s-5.817 2.886-5.953 6.482c-.137 3.596 1.461 4.109 1.461 4.109s2.347-1.358 3.902-6.074c0 0-.441 4.354-2.352 6.467 0 0 3.989.682 4.633-4.775.264-2.239-.424-5.906-.424-5.906-.339.317-.838 1.081-1.229 1.113-.207-.157-.116-.915-.039-1.416zm-14.234 2.02c.019.426.228.918.057 1.277-.346.081-.459-.321-.754-.438 0 0-1.316 7.925 3.947 9.951.93.358 2.463-.291 2.463-.291s-.69-4.532-3.01-6.6c0 0 3.347 2.635 4.146 5.34 0 0 2.024-2.28.023-4.859-2.248-2.849-6.871-4.381-6.871-4.381zm16.414 7.982c-2.382-.015-4.01 3.201-4.01 3.201 1.328 1.932 6.973 1.301 6.973 1.301-1.508 1.61-6.465.582-6.465.582s.944 2.756 3.658 2.805c3.257.058 7.309-3.334 7.309-3.334-.355-.177-.754-.354-.98-.732.321-.194.523-.293.877-.367 0 0-2.882-3.427-7.361-3.455zm-7.04 1.482c-.99-.039-2.409.819-2.43 2.105-.016 1.011 1.341 2.115 2.498 2.059 1.637-.08 2.104-1.067 2.15-1.973.055-1.076-1.234-2.153-2.219-2.191zm-6.04 2.246c-1.742.033-4.227 1.321-7.463 5.908.137.281.988.119.988.119.116.46-.389.844-.389.844s1.018.576 2.084.883c1.049.302 2.125.344 3.258.393 3.305.142 5.682-2.18 5.449-5.305-3.571-.274-7.07 1.611-7.07 1.611s.887-1.849 6.141-2.828c-.259-.437-1.258-1.658-3-1.625zm7.092 2.736c-1.093 1.102 1.182 6.03 1.813 7.34-.726-.708-2.356-2.471-3.23-6.17-1.585 1.492-1.84 4.185.148 6.512C27.036 38.376 29.507 39 29.507 39c-.544-.857-.311-1.297-.311-1.297.454.02.743.21 1.053.432 0 0 1.592-5.189-.211-8.23-1-1.688-1.915-2.135-4.49-2.438z" fill-rule="evenodd"/>
  </g>
  <g fill="#e54b55" fill-rule="evenodd">
    <path d="M16.823 15.92s3.346 2.635 4.145 5.341c0 0 2.024-2.28.024-4.86-2.248-2.85-6.87-4.38-6.87-4.38.019.426.226.917.055 1.277-.345.08-.459-.321-.753-.438 0 0-1.316 7.925 3.947 9.952.93.359 2.464-.292 2.464-.292s-.69-4.532-3.011-6.6zM23.863 20.591s2.347-1.357 3.903-6.074c0 0-.442 4.354-2.352 6.467 0 0 3.99.68 4.634-4.776.265-2.24-.423-5.906-.423-5.906-.339.318-.84 1.08-1.23 1.113-.207-.158-.116-.915-.038-1.415 0 0-5.816 2.885-5.953 6.48-.137 3.597 1.46 4.11 1.46 4.11zM26.525 23.207s1.629-3.216 4.01-3.2c4.48.028 7.362 3.456 7.362 3.456-.354.074-.556.172-.876.366.226.378.625.555.98.732 0 0-4.051 3.393-7.308 3.334-2.715-.049-3.658-2.804-3.658-2.804s4.956 1.028 6.464-.582c0 0-5.646.631-6.974-1.301zM24.553 26.467c-1.092 1.102 1.183 6.035 1.814 7.34-.726-.709-2.357-2.473-3.231-6.172-1.585 1.493-1.84 4.185.149 6.512C26.043 37.375 28.513 38 28.513 38c-.544-.857-.311-1.297-.311-1.297.454.02.743.21 1.053.432 0 0 1.592-5.19-.21-8.23-1.002-1.689-1.916-2.135-4.492-2.438z"/>
    <path d="M21.39 26.573c-3.57-.274-7.068 1.61-7.068 1.61s.886-1.848 6.14-2.827c-.519-.874-3.99-4.892-10.465 4.283.137.281.988.12.988.12.116.46-.388.843-.388.843s1.018.576 2.083.882c1.05.302 2.125.344 3.259.392 3.305.142 5.676-2.18 5.448-5.303zM23.501 21.484c.985.038 2.273 1.117 2.219 2.193-.046.905-.514 1.891-2.15 1.968-1.158.057-2.516-1.045-2.5-2.057.02-1.287 1.441-2.145 2.431-2.107z"/>
  </g>
</svg>
