<svg xmlns="http://www.w3.org/2000/svg" viewBox="0 0 48 48">
  <defs>
    <linearGradient id="a" x1="1" x2="47" gradientUnits="userSpaceOnUse" gradientTransform="rotate(-90 24 24)">
      <stop stop-color="#e4e4e4"/>
      <stop offset="1" stop-color="#eee"/>
    </linearGradient>
  </defs>
  <path d="M36.31 5c5.859 4.062 9.688 10.831 9.688 18.5 0 12.426-10.07 22.5-22.5 22.5-7.669 0-14.438-3.828-18.5-9.688a23.24 23.24 0 0 0 3.781 4.969 22.923 22.923 0 0 0 15.469 5.969c12.703 0 23-10.298 23-23a22.92 22.92 0 0 0-5.969-15.469A23.216 23.216 0 0 0 36.31 5zm4.969 3.781A22.911 22.911 0 0 1 47.498 24.5c0 12.703-10.297 23-23 23a22.909 22.909 0 0 1-15.719-6.219C12.939 45.425 18.662 48 24.998 48c12.703 0 23-10.298 23-23 0-6.335-2.575-12.06-6.719-16.219z" opacity=".05"/>
  <path d="M41.28 8.781a22.923 22.923 0 0 1 5.969 15.469c0 12.703-10.297 23-23 23A22.92 22.92 0 0 1 8.78 41.281 22.911 22.911 0 0 0 24.499 47.5c12.703 0 23-10.298 23-23A22.909 22.909 0 0 0 41.28 8.781z" opacity=".1"/>
  <path d="M31.25 2.375C39.865 5.529 46 13.792 46 23.505c0 12.426-10.07 22.5-22.5 22.5-9.708 0-17.971-6.135-21.12-14.75a23 23 0 0 0 44.875-7 23 23 0 0 0-16-21.875z" opacity=".2"/>
  <path d="M24 1c12.703 0 23 10.297 23 23S36.703 47 24 47 1 36.703 1 24 11.297 1 24 1z" fill="url(#a)"/>
  <g opacity=".1">
    <path d="M25 10.03c.258.941-.203 1.211-.531 1.594.676.328 1.082.574 1.125-.125-.055-.344-.262-.313-.594-1.469m-3.125 2.375c1.039.855 1.938 1.75 1 3.03-.734.602-2.262.977-2.219-.875-.379.621-.383 1.395-.188 2.25.051.215.145.387.25.531 1.797 1.332 1.895 1.605 2.156 2.125 1.66 2.965-.98 5.066-1.156 5.344l-.125.25c1.895 2.785 3.691 2.566 4.813 2.563 1.316-.102 4.422-1.98 3.03-5.625-.039 1.914-1.586.895-1.906.25-.277-.301-.68-2.711.563-2.77.305-.148-.246-2.316-2.063-3.355 2.531 1.941-.895 4.906-1.75 1.875-.051-.176.008-4.488 1.875-3.5-.891-1.469-2.289-2.195-4.281-2.094m5.75.004c-1.141.523-.691 3.316.063 3.375-.285-.75-.609-1.145-.063-3.375m-7.156 5.441c-.199 1.113-.211 2.285.25 2.781.547.645.879.488 1.25.469.164-.082.023-.199-.188-.344.027-.059.254-.082.438-.098.066-.063.129-.125.094-.25-.031.102-.117.148-.25.191m7.344.344c-.059.031-.074.137-.031.219.047.082.129.125.188.094s.047-.137 0-.219c-.043-.082-.098-.125-.156-.094m-7.438 5.656c-.027.004.711.938.688.875-.008-.031.289-.359.344-.316a80.444 80.444 0 0 0-1.031-.563m0 0"/>
    <path d="M24.906 21.844c-.508.035-.789.363-.938.813l1.844.156c-.047-.434-.238-.82-.906-.969m-1.094 1.844c-.008.117-.027.223-.031.344v.188l2 .094.031-.344c-.004-.035 0-.082 0-.125m-2.063.969l-.031.625 1.906.094.063-.625m-2 .852l-.625 14.03c.637-.387.945-1.902 1.313-3.25l1.219-10.688m-1.906-.094"/>
  </g>
  <g>
    <path d="M24 9.03c.258.941-.203 1.211-.531 1.594.676.328 1.082.574 1.125-.125-.055-.344-.262-.313-.594-1.469m-3.125 2.375c1.039.855 1.938 1.75 1 3.03-.734.602-2.262.977-2.219-.875-.379.621-.383 1.395-.188 2.25.051.215.145.387.25.531 1.797 1.332 1.895 1.605 2.156 2.125 1.66 2.965-.98 5.066-1.156 5.344l-.125.25c1.895 2.785 3.691 2.566 4.813 2.563 1.316-.102 4.422-1.98 3.03-5.625-.039 1.914-1.586.895-1.906.25-.277-.301-.68-2.711.563-2.77.305-.148-.246-2.316-2.063-3.355 2.531 1.941-.895 4.906-1.75 1.875-.051-.176.008-4.488 1.875-3.5-.891-1.469-2.289-2.195-4.281-2.094m5.75.004c-1.141.523-.691 3.316.063 3.375-.285-.75-.609-1.145-.063-3.375m-7.156 5.441c-.199 1.113-.211 2.285.25 2.781.547.645.879.488 1.25.469.164-.082.023-.199-.188-.344.027-.059.254-.082.438-.098.066-.063.129-.125.094-.25-.031.102-.117.148-.25.191m7.344.344c-.059.031-.074.137-.031.219.047.082.129.125.188.094s.047-.137 0-.219c-.043-.082-.098-.125-.156-.094m-7.438 5.656c-.027.004.711.938.688.875-.008-.031.289-.359.344-.316a80.444 80.444 0 0 0-1.031-.563m0 0" fill="#f93"/>
    <path d="M23.906 20.844c-.508.035-.789.363-.938.813l1.844.156c-.047-.434-.238-.82-.906-.969m-1.094 1.844c-.008.117-.027.223-.031.344v.188l2 .094.031-.344c-.004-.035 0-.082 0-.125m-2.063.969l-.031.625 1.906.094.063-.625m-2 .852l-.625 14.03c.637-.387.945-1.902 1.313-3.25l1.219-10.688m-1.906-.094" fill="#2f2f2f"/>
  </g>
  <g>
    <path d="M40.03 7.531A22.922 22.922 0 0 1 45.999 23c0 12.703-10.297 23-23 23A22.92 22.92 0 0 1 7.53 40.031C11.708 44.322 17.54 47 23.999 47c12.703 0 23-10.298 23-23 0-6.462-2.677-12.291-6.969-16.469z" opacity=".1"/>
  </g>
</svg>
