<svg xmlns="http://www.w3.org/2000/svg" viewBox="0 0 48 48">
  <defs>
    <linearGradient id="a" x1="24.08" y1="46.924" x2="23.914" y2="1.165" gradientUnits="userSpaceOnUse">
      <stop stop-color="#ffe57d"/>
      <stop offset="1" stop-color="#ffe991"/>
    </linearGradient>
  </defs>
  <path d="M36.31 5c5.859 4.062 9.688 10.831 9.688 18.5 0 12.426-10.07 22.5-22.5 22.5-7.669 0-14.438-3.828-18.5-9.688a23.24 23.24 0 0 0 3.781 4.969 22.923 22.923 0 0 0 15.469 5.969c12.703 0 23-10.298 23-23a22.92 22.92 0 0 0-5.969-15.469A23.216 23.216 0 0 0 36.31 5zm4.969 3.781A22.911 22.911 0 0 1 47.498 24.5c0 12.703-10.297 23-23 23a22.909 22.909 0 0 1-15.719-6.219C12.939 45.425 18.662 48 24.998 48c12.703 0 23-10.298 23-23 0-6.335-2.575-12.06-6.719-16.219z" opacity=".05"/>
  <path d="M41.28 8.781a22.923 22.923 0 0 1 5.969 15.469c0 12.703-10.297 23-23 23A22.92 22.92 0 0 1 8.78 41.281 22.911 22.911 0 0 0 24.499 47.5c12.703 0 23-10.298 23-23A22.909 22.909 0 0 0 41.28 8.781z" opacity=".1"/>
  <path d="M31.25 2.375C39.865 5.529 46 13.792 46 23.505c0 12.426-10.07 22.5-22.5 22.5-9.708 0-17.971-6.135-21.12-14.75a23 23 0 0 0 44.875-7 23 23 0 0 0-16-21.875z" opacity=".2"/>
  <path d="M24 1c12.703 0 23 10.297 23 23S36.703 47 24 47 1 36.703 1 24 11.297 1 24 1z" fill="url(#a)"/>
  <path d="M40.03 7.531A22.922 22.922 0 0 1 45.999 23c0 12.703-10.297 23-23 23A22.92 22.92 0 0 1 7.53 40.031C11.708 44.322 17.54 47 23.999 47c12.703 0 23-10.298 23-23 0-6.462-2.677-12.291-6.969-16.469z" opacity=".1"/>
  <g opacity=".1">
    <g fill-rule="evenodd">
      <path d="M14.394 14.394L21.023 25l-6.63 10.606L25 28.977l10.606 6.63L28.977 25l6.63-10.606L25 21.023l-10.606-6.63"/>
      <path d="M25 10v15l2.813-2.813L25 10M25 25v15l-2.812-12.188L25 25M25 25h15l-12.187 2.812L25 25zM25 25l-2.812-2.813L10 25z"/>
    </g>
    <path d="M25 10l-2.812 12.187L10 25l12.188 2.812L25 40l2.813-12.188L40 25l-12.187-2.813L25 10z" fill-rule="evenodd"/>
  </g>
  <g fill-rule="evenodd">
    <path d="M13.394 13.394L20.023 24l-6.63 10.606L24 27.977l10.606 6.63L27.977 24l6.63-10.606L24 20.023l-10.606-6.63" fill="#6c5353"/>
    <path d="M24 9v15l2.813-2.813L24 9M24 24v15l-2.812-12.187L24 24M24 24h15l-12.187 2.813L24 24zM24 24l-2.812-2.813L9 24z" fill="#917c6f"/>
    <g>
      <path d="M24 9l-2.812 12.187L9 24l12.188 2.813L24 39l2.813-12.187L39 24l-12.187-2.813L24 9z" fill="#c8beb7"/>
      <path d="M24 9v15l2.813-2.813L24 9M24 24v15l-2.812-12.187L24 24M24 24h15l-12.187 2.813L24 24zM24 24l-2.812-2.813L9 24z" fill="#917c6f"/>
    </g>
  </g>
</svg>
