<svg xmlns="http://www.w3.org/2000/svg" viewBox="0 0 48 48">
  <defs>
    <linearGradient id="a" x1="1" x2="47" gradientUnits="userSpaceOnUse" gradientTransform="rotate(-90 24 24)">
      <stop stop-color="#2f1e0d"/>
      <stop offset="1" stop-color="#3f2811"/>
    </linearGradient>
  </defs>
  <path d="M36.31 5c5.859 4.062 9.688 10.831 9.688 18.5 0 12.426-10.07 22.5-22.5 22.5-7.669 0-14.438-3.828-18.5-9.688a23.24 23.24 0 0 0 3.781 4.969 22.923 22.923 0 0 0 15.469 5.969c12.703 0 23-10.298 23-23a22.92 22.92 0 0 0-5.969-15.469A23.216 23.216 0 0 0 36.31 5zm4.969 3.781A22.911 22.911 0 0 1 47.498 24.5c0 12.703-10.297 23-23 23a22.909 22.909 0 0 1-15.719-6.219C12.939 45.425 18.662 48 24.998 48c12.703 0 23-10.298 23-23 0-6.335-2.575-12.06-6.719-16.219z" opacity=".05"/>
  <path d="M41.28 8.781a22.923 22.923 0 0 1 5.969 15.469c0 12.703-10.297 23-23 23A22.92 22.92 0 0 1 8.78 41.281 22.911 22.911 0 0 0 24.499 47.5c12.703 0 23-10.298 23-23A22.909 22.909 0 0 0 41.28 8.781z" opacity=".1"/>
  <path d="M31.25 2.375C39.865 5.529 46 13.792 46 23.505c0 12.426-10.07 22.5-22.5 22.5-9.708 0-17.971-6.135-21.12-14.75a23 23 0 0 0 44.875-7 23 23 0 0 0-16-21.875z" opacity=".2"/>
  <path d="M26.447 1.131c-2.02 1.042-4.833 1.801-7.686.477a22.924 22.924 0 0 0-9.328 4.594L1.622 18.694l-.002.002a23.069 23.069 0 0 0-.621 5.305c0 5.05 1.63 9.716 4.389 13.51l.002.002 8.906 7.342.002.002c.359.167.722.324 1.09.473h.002c5.576.767 10.595.56 15.725.545h.002C40.335 42.878 47 34.22 47 24.002c0-1.896-.234-3.736-.666-5.498l-.002-.002-5.686-10.363-.002-.002c-3.66-3.839-8.631-6.415-14.197-7z" fill="url(#a)"/>
  <path d="M24 1c-.734 0-1.458.038-2.174.105-2.528 1.411-4.523 4.149-6.451 6.02-1.198 1.171-2.813 2.568-4.387 3.195.054-1.424-.228-2.874-1.018-3.912a4.78 4.78 0 0 0-.326-.373l-.002.002a23.04 23.04 0 0 0-1.471 1.285l-.041.039a23.083 23.083 0 0 0-3.722 4.592l-.002.004a22.857 22.857 0 0 0-.938 1.678l-.057.111a22.76 22.76 0 0 0-.766 1.707l-.068.176a22.74 22.74 0 0 0-1.123 3.804c.492.131.985.245 1.484.322.879.133 1.762.203 2.656.152 1.817-2.322 3.737-4.02 4.752-6.596l-.16.813c3.477.383 4.082 2.816 1.5 7.531l-.006.088c-1.116.132-2.215.412-3.246.914l.031.5c.328 2.336.688 4.748 1.75 6.854.303.598.517 1.245.689 1.904l-.063.83c-.436 1.916-2.516 4.132-4.596 5.879a23.07 23.07 0 0 0 8.961 6.633c-.161-1.543.286-3.068 2.01-4.895.28-.015.532-.015.793-.02.971.22 1.779.535 2.256 1.012 1.026 1.028.46 2.973-.531 4.861-.508.05-.915.076-1.309.1a23.05 23.05 0 0 0 5.572.684c3.281 0 6.399-.692 9.223-1.93.936-1.027 2.188-2.123 2.371-3.4.133-.934-.771-1.574-1.564-2.125-1.063-.715-1.41-2.32-.563-3.406l.016-.133c.151.435.324.86.574 1.217.547.77 1.934 1.73 3.094 2.281 2.418-2.184 5.371-4.43 6.316-7.781.484-1.703.112-4.192-1.688-4.346a2.29 2.29 0 0 0-.379.002c-3.425.276-6.071 3.332-7.637 6.332l.078-.635c.165-2.73-.663-4.901-2.307-6.609l5.465-5.463-4.283-.535c.647-1.17.922-2.351.027-3.582-1.723-.184-3.273-.992-4.719-1.906-.696-.45-1.422-.907-2.182-1.291l-.695-1.389c1.286-1.034 2.378-1.61 3.529-2.199-.075-2.616-.258-6.945-1.775-8.912A23.15 23.15 0 0 0 23.996 1m15.06 7.898c-2.781 4 .855 6.816 2.563 10 1.509.259 2.698.657 4.943.631a22.946 22.946 0 0 0-5.02-10.402c-.802-.065-1.63-.141-2.482-.229m-.5 10.73c.066.719.609 1.305 1.156 1.719.398.301.832-.367.469-.75-.43-.434-.945-1.035-1.625-.969zm-.313 21.299c-.211.004-.43.02-.625.063-.105.663.003 1.074.191 1.404a23.28 23.28 0 0 0 1.6-1.322 4.897 4.897 0 0 0-1.166-.145z" fill-opacity=".098"/>
  <path d="M24 1a23.06 23.06 0 0 0-5.238.607c-1.606 1.421-3.02 3.187-4.387 4.518-1.211 1.184-2.848 2.602-4.438 3.219l-.75 3.781c3.477.383 4.082 2.816 1.5 7.531l-.844 11.09c-.426 1.872-2.423 4.04-4.455 5.764a23.095 23.095 0 0 0 8.91 7.346c-.349-1.753-.025-3.431 1.92-5.492.441-.023.867-.031 1.25-.031 5.742.008 4.662 2.703 1.4 5.875-1.747.177-2.733.179-3.48.121a22.931 22.931 0 0 0 8.611 1.672c2.485 0 4.876-.398 7.117-1.127.151-.449.342-.882.631-1.266.91-1.18 2.631-2.438 2.846-3.938.133-.934-.771-1.574-1.564-2.125-1.063-.715-1.41-2.32-.563-3.406l.375-3.063c.215-3.551-1.238-6.163-4-8.03l-5.48-12.09c1.656-1.5 2.934-2.147 4.316-2.854-.065-2.258-.218-5.779-1.23-7.971A23.261 23.261 0 0 0 24 1zm14.06 6.898c-2.781 4 .855 6.816 2.563 10 1.671.287 2.957.741 5.715.604a22.957 22.957 0 0 0-5.689-10.367c-.834-.066-1.697-.145-2.588-.236zm-.813 32.03c-.211.004-.43.02-.625.063-.231 1.464.515 1.763 1.072 2.49a23.32 23.32 0 0 0 2.215-1.875c-.85-.38-1.79-.687-2.662-.678z" fill="#285935"/>
  <path d="M9.434 6.201a23.004 23.004 0 0 0-7.813 12.494c.106.019.212.044.318.061.879.133 1.762.203 2.656.152 1.969-2.516 4.074-4.281 5-7.25.522-1.674.593-3.841-.162-5.457zm11.754 5.551a6.23 6.23 0 0 0-.938.125c-1.176.969-1.672 2.444-2.219 3.813-.664 1.652.517 3.469-.313 4.969-.547.5-1.384.654-2.064.479-2.684-.734-5.652-.729-8.219.521l.031.5c.328 2.336.688 4.748 1.75 6.854.688 1.359.98 2.953 1.145 4.438.227 1.898-.672 3.694-.625 5.563 3.629-.184 8.06-.125 9.531 1.344 1.215 1.218.214 3.723-1.105 5.895 1.865.488 3.82.75 5.838.75.644 0 1.28-.034 1.91-.086.211-.609.35-1.227.393-1.715.113-1.453-.965-1.813-1.031-3.094-.102-2.105 1.777-3.375 2.941-4.875 1.289-1.688.652-4.23-1.031-5.566.594-2.465.828-5.063 1.625-7.527.91-2.785 5.02-5.387 2.938-8.25-1.723-.184-3.273-.992-4.719-1.906-1.738-1.125-3.664-2.309-5.844-2.219l.006-.01zm16.369 6.877c.066.719.609 1.305 1.156 1.719.398.301.832-.367.469-.75-.43-.434-.945-1.035-1.625-.969zm3.223 7.748a2.29 2.29 0 0 0-.379.002c-3.922.316-6.824 4.277-8.25 7.625.25.734.461 1.586.906 2.219.547.77 1.934 1.73 3.094 2.281 2.418-2.184 5.371-4.43 6.316-7.781.484-1.703.112-4.192-1.688-4.346z" fill="#b07845"/>
  <path d="M19 27l-2 9 8-4 7.195 3.598c.072-.159.159-.315.271-.459l.121-.992-1.588-7.146.436-.434c-.656-.958-1.523-1.796-2.594-2.52z" fill-opacity=".098"/>
  <g>
    <path d="M16 35l2-9-6-5.996 8-1 4-8 4 8 8 1L30 26l2 9-8-4m-8 4" fill="#ececeb"/>
  </g>
  <g>
    <path d="M40.03 7.531A22.922 22.922 0 0 1 45.999 23c0 12.703-10.297 23-23 23A22.92 22.92 0 0 1 7.53 40.031C11.708 44.322 17.54 47 23.999 47c12.703 0 23-10.298 23-23 0-6.462-2.677-12.291-6.969-16.469z" opacity=".1"/>
  </g>
</svg>
