<svg viewBox="0 0 48 48" xmlns="http://www.w3.org/2000/svg">
 <defs>
  <linearGradient id="linearGradient3764" x1="1" x2="47" gradientTransform="matrix(0 -1 1 0 -1.5e-6 48)" gradientUnits="userSpaceOnUse">
   <stop style="stop-color:#ffb821" offset="0"/>
   <stop style="stop-color:#ffbe34" offset="1"/>
  </linearGradient>
 </defs>
 <path d="m36.31 5c5.859 4.062 9.688 10.831 9.688 18.5 0 12.426-10.07 22.5-22.5 22.5-7.669 0-14.438-3.828-18.5-9.688 1.037 1.822 2.306 3.499 3.781 4.969 4.085 3.712 9.514 5.969 15.469 5.969 12.703 0 23-10.298 23-23 0-5.954-2.256-11.384-5.969-15.469-1.469-1.475-3.147-2.744-4.969-3.781zm4.969 3.781c3.854 4.113 6.219 9.637 6.219 15.719 0 12.703-10.297 23-23 23-6.081 0-11.606-2.364-15.719-6.219 4.16 4.144 9.883 6.719 16.219 6.719 12.703 0 23-10.298 23-23 0-6.335-2.575-12.06-6.719-16.219z" style="opacity:.05"/>
 <path d="m41.28 8.781c3.712 4.085 5.969 9.514 5.969 15.469 0 12.703-10.297 23-23 23-5.954 0-11.384-2.256-15.469-5.969 4.113 3.854 9.637 6.219 15.719 6.219 12.703 0 23-10.298 23-23 0-6.081-2.364-11.606-6.219-15.719z" style="opacity:.1"/>
 <path d="m31.25 2.375c8.615 3.154 14.75 11.417 14.75 21.13 0 12.426-10.07 22.5-22.5 22.5-9.708 0-17.971-6.135-21.12-14.75a23 23 0 0 0 44.875-7 23 23 0 0 0-16-21.875z" style="opacity:.2"/>
 <path d="m24 1c12.703 0 23 10.297 23 23s-10.297 23-23 23-23-10.297-23-23 10.297-23 23-23z" style="fill:url(#linearGradient3764)"/>
 <g transform="translate(1,1)">
  <g style="opacity:.1">
   <path d="m24.04 17c-4.18 0-7.336 2.238-9.457 3.359-2.117 1.125-3.262 2.305-3.262 2.305-0.313 0.316-0.313 0.914 0 1.23 0 0 0.426 0.414 1.164 0.965l-1.266 1.34c-0.301 0.324-0.297 0.906 8e-3 1.223 0.305 0.32 0.855 0.309 1.152-0.02l1.52-1.605c0.215 0.129 0.441 0.273 0.684 0.402 0.594 0.316 1.293 0.625 2.047 0.91l-0.48 1.93c-0.109 0.434 0.168 0.93 0.578 1.043s0.883-0.18 0.984-0.617l0.484-1.844c1.449 0.41 3.129 0.707 5.03 0.773v1.742c-8e-3 0.453 0.383 0.867 0.809 0.867s0.813-0.414 0.805-0.867v-1.742c1.984-0.07 3.723-0.367 5.211-0.805l0.48 1.906c0.109 0.434 0.59 0.727 1 0.605 0.41-0.121 0.684-0.629 0.566-1.066l-0.508-1.977c0.699-0.273 1.344-0.566 1.898-0.855 0.238-0.129 0.469-0.273 0.684-0.402l1.418 1.5c0.297 0.32 0.844 0.324 1.145 8e-3s0.309-0.891 0.016-1.211l-1.16-1.234c0.738-0.551 1.16-0.965 1.16-0.965 0.313-0.316 0.313-0.914 0-1.23 0 0-1.141-1.18-3.262-2.305s-5.277-3.359-9.457-3.359m8e-3 1.711c3.914 0 6.828 2.18 8.754 3.195 1.32 0.699 1.527 1.016 1.922 1.367-0.398 0.352-0.602 0.664-1.922 1.363-1.898 1-4.766 2.035-8.602 2.063-0.098-0.023-0.199-0.023-0.305 0-3.832-0.027-6.695-1.059-8.598-2.063-1.32-0.699-1.527-1.016-1.922-1.363 0.398-0.355 0.602-0.668 1.922-1.367 1.926-1.02 4.84-3.195 8.75-3.195"/>
  </g>
 </g>
 <path d="m24.04 17c-4.18 0-7.336 2.238-9.457 3.359-2.117 1.125-3.262 2.305-3.262 2.305-0.313 0.316-0.313 0.914 0 1.23 0 0 0.426 0.414 1.164 0.965l-1.266 1.34c-0.301 0.324-0.297 0.906 8e-3 1.223 0.305 0.32 0.855 0.309 1.152-0.02l1.52-1.605c0.215 0.129 0.441 0.273 0.684 0.402 0.594 0.316 1.293 0.625 2.047 0.91l-0.48 1.93c-0.109 0.434 0.168 0.93 0.578 1.043s0.883-0.18 0.984-0.617l0.484-1.844c1.449 0.41 3.129 0.707 5.03 0.773v1.742c-8e-3 0.453 0.383 0.867 0.809 0.867s0.813-0.414 0.805-0.867v-1.742c1.984-0.07 3.723-0.367 5.211-0.805l0.48 1.906c0.109 0.434 0.59 0.727 1 0.605 0.41-0.121 0.684-0.629 0.566-1.066l-0.508-1.977c0.699-0.273 1.344-0.566 1.898-0.855 0.238-0.129 0.469-0.273 0.684-0.402l1.418 1.5c0.297 0.32 0.844 0.324 1.145 8e-3s0.309-0.891 0.016-1.211l-1.16-1.234c0.738-0.551 1.16-0.965 1.16-0.965 0.313-0.316 0.313-0.914 0-1.23 0 0-1.141-1.18-3.262-2.305s-5.277-3.359-9.457-3.359m8e-3 1.711c3.914 0 6.828 2.18 8.754 3.195 1.32 0.699 1.527 1.016 1.922 1.367-0.398 0.352-0.602 0.664-1.922 1.363-1.898 1-4.766 2.035-8.602 2.063-0.098-0.023-0.199-0.023-0.305 0-3.832-0.027-6.695-1.059-8.598-2.063-1.32-0.699-1.527-1.016-1.922-1.363 0.398-0.355 0.602-0.668 1.922-1.367 1.926-1.02 4.84-3.195 8.75-3.195" style="fill:#2d2d2d"/>
 <path d="m40.03 7.531c3.712 4.084 5.969 9.514 5.969 15.469 0 12.703-10.297 23-23 23-5.954 0-11.384-2.256-15.469-5.969 4.178 4.291 10.01 6.969 16.469 6.969 12.703 0 23-10.298 23-23 0-6.462-2.677-12.291-6.969-16.469z" style="opacity:.1"/>
</svg>
