<svg xmlns="http://www.w3.org/2000/svg" version="1.1" viewBox="0 0 48 48">
 <defs>
  <linearGradient id="linearGradient3764" y1="47" x2="0" y2="1" gradientUnits="userSpaceOnUse">
   <stop stop-color="#58c4ec" offset="0"/>
   <stop stop-color="#6ac9ee" offset="1"/>
  </linearGradient>
 </defs>
 <path opacity=".05" d="m36.31 5c5.859 4.062 9.688 10.831 9.688 18.5 0 12.426-10.07 22.5-22.5 22.5-7.669 0-14.438-3.828-18.5-9.688 1.037 1.822 2.306 3.499 3.781 4.969 4.085 3.712 9.514 5.969 15.469 5.969 12.703 0 23-10.298 23-23 0-5.954-2.256-11.384-5.969-15.469-1.469-1.475-3.147-2.744-4.969-3.781zm4.969 3.781c3.854 4.113 6.219 9.637 6.219 15.719 0 12.703-10.297 23-23 23-6.081 0-11.606-2.364-15.719-6.219 4.16 4.144 9.883 6.719 16.219 6.719 12.703 0 23-10.298 23-23 0-6.335-2.575-12.06-6.719-16.219z"/>
 <path opacity=".1" d="m41.28 8.781c3.712 4.085 5.969 9.514 5.969 15.469 0 12.703-10.297 23-23 23-5.954 0-11.384-2.256-15.469-5.969 4.113 3.854 9.637 6.219 15.719 6.219 12.703 0 23-10.298 23-23 0-6.081-2.364-11.606-6.219-15.719z"/>
 <path opacity=".2" d="m31.25 2.375c8.615 3.154 14.75 11.417 14.75 21.13 0 12.426-10.07 22.5-22.5 22.5-9.708 0-17.971-6.135-21.12-14.75a23 23 0 0 0 44.875 -7 23 23 0 0 0 -16 -21.875z"/>
 <path d="m24 1c12.703 0 23 10.297 23 23s-10.297 23-23 23-23-10.297-23-23 10.297-23 23-23z" fill="url(#linearGradient3764)"/>
 <path d="m25 13c-6.629 0-12 5.188-12 11.586 0 3.859 1.965 7.258 4.969 9.363-0.109 0.441-0.25 0.91-0.469 1.395-0.75 1.656-1.5 1.656-1.5 1.656s2.25 0 3.75-0.828c0.316-0.172 0.594-0.461 0.844-0.801 1.367 0.523 2.848 0.801 4.406 0.801 6.629 0 12-5.188 12-11.586s-5.371-11.586-12-11.586" style="opacity:.1"/>
 <path d="m24 12c-6.629 0-12 5.188-12 11.586 0 3.859 1.965 7.258 4.969 9.363-0.109 0.441-0.25 0.91-0.469 1.395-0.75 1.656-1.5 1.656-1.5 1.656s2.25 0 3.75-0.828c0.316-0.172 0.594-0.461 0.844-0.801 1.367 0.523 2.848 0.801 4.406 0.801 6.629 0 12-5.188 12-11.586s-5.371-11.586-12-11.586" style="fill:#f9f9f9"/>
 <path d="m19 23c0-0.32669 0.08163-0.5757 0.25041-0.74303 0.173-0.171 0.414-0.257 0.728-0.257 0.32322 0 0.57364 0.08566 0.75014 0.25697 0.182 0.167 0.272 0.416 0.272 0.743 0 0.31872-0.09046 0.56374-0.27137 0.73506-0.18533 0.17132-0.43574 0.25697-0.75014 0.25697-0.2802 0-0.51738-0.07769-0.7027-0.22908-0.186-0.155-0.276-0.408-0.276-0.763" style="stroke-width:1.0482;fill:#868686"/>
 <path d="m23 23.002c0-0.32866 0.08164-0.57916 0.25041-0.74749 0.16768-0.17234 0.41368-0.25852 0.72808-0.25852 0.32322 0 0.56922 0.08617 0.75014 0.25852 0.181 0.168 0.271 0.418 0.271 0.747 0 0.321-0.09 0.567-0.271 0.739-0.186 0.173-0.436 0.259-0.751 0.259-0.28 0-0.517-0.078-0.707-0.23-0.181-0.157-0.271-0.411-0.271-0.768" style="stroke-width:1.0514;fill:#868686"/>
 <path d="m27 23.004c0-0.328 0.08164-0.578 0.25041-0.746 0.16768-0.172 0.41368-0.258 0.72808-0.258 0.32322 0 0.56922 0.086 0.74573 0.258 0.186 0.168 0.276 0.418 0.276 0.746 0 0.32-0.09 0.566-0.276 0.738-0.181 0.172-0.431 0.258-0.746 0.258-0.28 0-0.517-0.078-0.707-0.23-0.181-0.156-0.271-0.41-0.271-0.766" style="stroke-width:1.0503;fill:#868686"/>
 <path opacity=".1" d="m40.03 7.531c3.712 4.084 5.969 9.514 5.969 15.469 0 12.703-10.297 23-23 23-5.954 0-11.384-2.256-15.469-5.969 4.178 4.291 10.01 6.969 16.469 6.969 12.703 0 23-10.298 23-23 0-6.462-2.677-12.291-6.969-16.469z"/>
</svg>
