<svg viewBox="0 0 48 48" xmlns="http://www.w3.org/2000/svg">
 <defs>
  <linearGradient id="linearGradient3103" x2="0" y1="279.1" y2="268.33" gradientTransform="matrix(6.7764 0 0 20.145 -840.81 -5436.4)" gradientUnits="userSpaceOnUse">
   <stop style="stop-color:#4d200a" offset="0"/>
   <stop style="stop-color:#853711" offset="1"/>
  </linearGradient>
  <linearGradient id="linearGradient3418" x1="1" x2="47" gradientTransform="matrix(0 -1 1 0 -1.5e-6 48)" gradientUnits="userSpaceOnUse">
   <stop style="stop-color:#fff55d" offset="0"/>
   <stop style="stop-color:#fff772" offset="1"/>
  </linearGradient>
 </defs>
 <path d="m36.31 5c5.859 4.062 9.688 10.831 9.688 18.5 0 12.426-10.07 22.5-22.5 22.5-7.669 0-14.438-3.828-18.5-9.688 1.037 1.822 2.306 3.499 3.781 4.969 4.085 3.712 9.514 5.969 15.469 5.969 12.703 0 23-10.298 23-23 0-5.954-2.256-11.384-5.969-15.469-1.469-1.475-3.147-2.744-4.969-3.781zm4.969 3.781c3.854 4.113 6.219 9.637 6.219 15.719 0 12.703-10.297 23-23 23-6.081 0-11.606-2.364-15.719-6.219 4.16 4.144 9.883 6.719 16.219 6.719 12.703 0 23-10.298 23-23 0-6.335-2.575-12.06-6.719-16.219z" style="opacity:.05"/>
 <path d="m41.28 8.781c3.712 4.085 5.969 9.514 5.969 15.469 0 12.703-10.297 23-23 23-5.954 0-11.384-2.256-15.469-5.969 4.113 3.854 9.637 6.219 15.719 6.219 12.703 0 23-10.298 23-23 0-6.081-2.364-11.606-6.219-15.719z" style="opacity:.1"/>
 <path d="m31.25 2.375c8.615 3.154 14.75 11.417 14.75 21.13 0 12.426-10.07 22.5-22.5 22.5-9.708 0-17.971-6.135-21.12-14.75a23 23 0 0 0 44.875-7 23 23 0 0 0-16-21.875z" style="opacity:.2"/>
 <path d="m5.03 11c-2.535 3.697-4.03 8.179-4.03 13 0 12.703 10.297 23 23 23s23-10.297 23-23c0-4.821-1.496-9.303-4.03-13-12.72-1.238-25.41-1.984-37.94 0" style="fill:url(#linearGradient3418)"/>
 <path d="m5.03 11c-0.226 0.329-0.448 0.659-0.656 1h11.625v7h-14.438c-0.074 0.332-0.16 0.663-0.219 1h14.656v4h-15c0 0.334 0.017 0.669 0.031 1h14.969v4h-14.438c0.074 0.332 0.131 0.674 0.219 1h14.219v4h-12.688c0.162 0.335 0.322 0.674 0.5 1h12.188v4h-9.438c0.298 0.346 0.62 0.673 0.938 1h8.5v4h-3.344c0.642 0.364 1.321 0.697 2 1h1.344v0.563c0.33 0.123 0.663 0.236 1 0.344v-0.906h16.344c0.679-0.303 1.358-0.636 2-1h-18.344v-4h23.5c0.318-0.327 0.64-0.654 0.938-1h-24.438v-4h27.19c0.178-0.326 0.338-0.665 0.5-1h-27.688v-4h29.22c0.088-0.326 0.145-0.668 0.219-1h-29.438v-4h29.969c0.014-0.331 0.031-0.666 0.031-1h-30v-4h29.656c-0.059-0.337-0.145-0.668-0.219-1h-29.438v-7h26.625c-0.209-0.341-0.431-0.671-0.656-1h-37.938z" style="fill-opacity:.533;fill-rule:evenodd;opacity:.1"/>
 <path d="m1.781 18c-0.088 0.326-0.145 0.668-0.219 1h44.875c-0.074-0.332-0.131-0.674-0.219-1h-44.44zm-0.75 5c-0.014 0.331-0.031 0.666-0.031 1h46c0-0.334-0.017-0.669-0.031-1h-45.938zm0.313 5c0.059 0.337 0.145 0.668 0.219 1h44.875c0.074-0.332 0.16-0.663 0.219-1h-45.31zm1.5 5c0.143 0.335 0.311 0.673 0.469 1h41.38c0.158-0.327 0.326-0.665 0.469-1h-42.31zm2.906 5c0.26 0.339 0.534 0.677 0.813 1h34.875c0.279-0.323 0.552-0.661 0.813-1h-36.5zm5.281 5c0.523 0.357 1.072 0.686 1.625 1h22.688c0.553-0.314 1.102-0.643 1.625-1h-25.938z" style="fill-opacity:.533;fill-rule:evenodd;fill:#3d95c1"/>
 <path d="m24 1c-7.882 0-14.824 3.957-18.969 10h37.938c-4.144-6.04-11.09-10-18.969-10z" style="fill-rule:evenodd;fill:url(#linearGradient3103)"/>
 <path d="m15 11v34.17c0.328 0.14 0.66 0.27 0.996 0.395v-34.564h-0.996z" style="fill-opacity:.533;fill:#d64936"/>
 <path d="m40.03 7.531c3.712 4.084 5.969 9.514 5.969 15.469 0 12.703-10.297 23-23 23-5.954 0-11.384-2.256-15.469-5.969 4.178 4.291 10.01 6.969 16.469 6.969 12.703 0 23-10.298 23-23 0-6.462-2.677-12.291-6.969-16.469z" style="opacity:.1"/>
</svg>
