<svg version="1.1" viewBox="0 0 48 48" xmlns="http://www.w3.org/2000/svg">
 <defs>
  <linearGradient id="bg" x1="1" x2="47" gradientTransform="matrix(0 -1 1 0 0 48)" gradientUnits="userSpaceOnUse">
   <stop style="stop-color:#f4a4a4" offset="0"/>
   <stop style="stop-color:#f6b6b6" offset="1"/>
  </linearGradient>
 </defs>
 <path d="m36.3 5c5.86 4.06 9.69 10.8 9.69 18.5 0 12.4-10.1 22.5-22.5 22.5-7.67 0-14.4-3.83-18.5-9.69 1.04 1.82 2.31 3.5 3.78 4.97 4.08 3.71 9.51 5.97 15.5 5.97 12.7 0 23-10.3 23-23 0-5.95-2.26-11.4-5.97-15.5-1.47-1.48-3.15-2.74-4.97-3.78zm4.97 3.78c3.85 4.11 6.22 9.64 6.22 15.7 0 12.7-10.3 23-23 23-6.08 0-11.6-2.36-15.7-6.22 4.16 4.14 9.88 6.72 16.2 6.72 12.7 0 23-10.3 23-23 0-6.34-2.58-12.1-6.72-16.2z" style="opacity:.05"/>
 <path d="m41.3 8.78c3.71 4.08 5.97 9.51 5.97 15.5 0 12.7-10.3 23-23 23-5.95 0-11.4-2.26-15.5-5.97 4.11 3.85 9.64 6.22 15.7 6.22 12.7 0 23-10.3 23-23 0-6.08-2.36-11.6-6.22-15.7z" style="opacity:.1"/>
 <path d="m31.2 2.38c8.62 3.15 14.8 11.4 14.8 21.1 0 12.4-10.1 22.5-22.5 22.5-9.71 0-18-6.14-21.1-14.8a23 23 0 0 0 44.9-7 23 23 0 0 0-16-21.9z" style="opacity:.2"/>
 <path d="m24 1c12.7 0 23 10.3 23 23s-10.3 23-23 23-23-10.3-23-23 10.3-23 23-23z" style="fill:url(#bg)"/>
 <path d="m40 7.53c3.71 4.08 5.97 9.51 5.97 15.5 0 12.7-10.3 23-23 23-5.95 0-11.4-2.26-15.5-5.97 4.18 4.29 10 6.97 16.5 6.97 12.7 0 23-10.3 23-23 0-6.46-2.68-12.3-6.97-16.5z" style="opacity:.1"/>
 <path d="m24.5 13.5c-2.48 0-4.5 2.01-4.5 4.5 2e-3 0.34 0.042 0.679 0.12 1.01-0.04 0-0.08-1e-3 -0.12-1e-3 -1.38 0-2.5 1.12-2.5 2.5 0 1.38 1.12 2.5 2.5 2.5 0.14 0 0.265-0.018 0.395-0.039-0.255 0.631-0.395 1.32-0.395 2.04 0 2.52 1.69 4.63 4 5.29v3.71c0 1.66 1.34 3 3 3s3-1.34 3-3c0-1.27-0.806-2.41-2.01-2.83 0.062-0.414-0.15-0.824-0.252-1.15 1.92-0.86 3.26-2.78 3.26-5.02 0-2.2-1.3-4.1-3.17-4.98 0.753-0.826 1.17-1.9 1.17-3.02 0-2.48-2.01-4.5-4.5-4.5m-8.5 2.5c-1.1 0-2 0.895-2 2s0.895 2 2 2 2-0.895 2-2-0.895-2-2-2zm17 0c-1.1 0-2 0.895-2 2s0.895 2 2 2 2-0.895 2-2-0.895-2-2-2zm-16.8 6.75c-0.69 0-1.25 0.56-1.25 1.25s0.56 1.25 1.25 1.25 1.25-0.56 1.25-1.25-0.56-1.25-1.25-1.25z" style="opacity:.1"/>
 <path d="m19 18c-1.38 0-2.5 1.12-2.5 2.5s1.12 2.5 2.5 2.5c0.134 0 0.265-0.0111 0.393-0.0312-0.25 0.628-0.389 1.31-0.389 2.03 0 3.04 2.46 5.5 5.5 5.5s5.5-2.46 5.5-5.5-2.46-5.5-5.5-5.5c-1.11 0-2.14 0.33-3.01 0.895-0.0553-1.33-1.15-2.4-2.5-2.4zm-3.75 3.75a1.25 1.25 0 0 0-1.25 1.25 1.25 1.25 0 0 0 1.25 1.25 1.25 1.25 0 0 0 1.25-1.25 1.25 1.25 0 0 0-1.25-1.25z" style="fill:#cf5454"/>
 <path d="m23.5 12.5a4.5 4.5 0 0 0-4.5 4.5 4.5 4.5 0 0 0 4 4.46v12.5h0.00195a3 3 0 0 1 0 0.00195 3 3 0 0 0 3 3 3 3 0 0 0 3-3 3 3 0 0 0-2.01-2.83 2 2 0 0 0 0.0117-0.168 2 2 0 0 0-2-2 2 2 0 0 0-1 0.275v-7.81a4.5 4.5 0 0 0 4-4.46 4.5 4.5 0 0 0-4.5-4.5zm-8.5 2.5a2 2 0 0 0-2 2 2 2 0 0 0 2 2 2 2 0 0 0 2-2 2 2 0 0 0-2-2zm17 0a2 2 0 0 0-2 2 2 2 0 0 0 2 2 2 2 0 0 0 2-2 2 2 0 0 0-2-2z" style="fill:#555"/>
</svg>
