<svg xmlns="http://www.w3.org/2000/svg" viewBox="0 0 48 48">
  <defs>
    <linearGradient id="a" x1="1" x2="47" gradientUnits="userSpaceOnUse" gradientTransform="rotate(-90 24 24)">
      <stop stop-color="#6e6e6e"/>
      <stop offset="1" stop-color="#787878"/>
    </linearGradient>
  </defs>
  <path d="M36.31 5c5.859 4.062 9.688 10.831 9.688 18.5 0 12.426-10.07 22.5-22.5 22.5-7.669 0-14.438-3.828-18.5-9.688a23.24 23.24 0 0 0 3.781 4.969 22.923 22.923 0 0 0 15.469 5.969c12.703 0 23-10.298 23-23a22.92 22.92 0 0 0-5.969-15.469A23.216 23.216 0 0 0 36.31 5zm4.969 3.781A22.911 22.911 0 0 1 47.498 24.5c0 12.703-10.297 23-23 23a22.909 22.909 0 0 1-15.719-6.219C12.939 45.425 18.662 48 24.998 48c12.703 0 23-10.298 23-23 0-6.335-2.575-12.06-6.719-16.219z" opacity=".05"/>
  <path d="M41.28 8.781a22.923 22.923 0 0 1 5.969 15.469c0 12.703-10.297 23-23 23A22.92 22.92 0 0 1 8.78 41.281 22.911 22.911 0 0 0 24.499 47.5c12.703 0 23-10.298 23-23A22.909 22.909 0 0 0 41.28 8.781z" opacity=".1"/>
  <path d="M31.25 2.375C39.865 5.529 46 13.792 46 23.505c0 12.426-10.07 22.5-22.5 22.5-9.708 0-17.971-6.135-21.12-14.75a23 23 0 0 0 44.875-7 23 23 0 0 0-16-21.875z" opacity=".2"/>
  <path d="M24 1c12.703 0 23 10.297 23 23S36.703 47 24 47 1 36.703 1 24 11.297 1 24 1z" fill="url(#a)"/>
  <path d="M40.03 7.531A22.922 22.922 0 0 1 45.999 23c0 12.703-10.297 23-23 23A22.92 22.92 0 0 1 7.53 40.031C11.708 44.322 17.54 47 23.999 47c12.703 0 23-10.298 23-23 0-6.462-2.677-12.291-6.969-16.469z" opacity=".1"/>
  <path d="M35.584 36.582c-2.057 2.06-24.805-4.02-25.56-6.834-.755-2.811 15.885-19.476 18.697-18.724 2.812.752 8.92 23.498 6.863 25.558z" opacity=".1"/>
  <path d="M30.382 14.34c-7.976 4.051-12.979 10.283-17.461 16.896 2.086.867 4.79 1.754 7.588 2.529 5.139-2.713 10.192-5.532 12.332-11.936-.749-2.729-1.609-5.383-2.459-7.49z" fill="#9cc7f4"/>
  <path d="M27.417 10c-3.531.297-19.12 16.02-18.393 18.744.185.689 1.7 1.575 3.896 2.488l17.461-16.896c-.976-2.42-1.931-4.119-2.662-4.314a.89.89 0 0 0-.303-.021z" fill="#63a8d3"/>
  <path d="M32.841 21.83L20.509 33.766c6.283 1.741 13 2.892 14.07 1.816 1.056-1.057-.045-7.565-1.742-13.752z" fill="#cde4fd"/>
</svg>
