<svg viewBox="0 0 48 48" xmlns="http://www.w3.org/2000/svg">
 <defs>
  <linearGradient id="linearGradient3764" x2="0" y1="47" y2="1" gradientUnits="userSpaceOnUse">
   <stop style="stop-color:#534547" offset="0"/>
   <stop style="stop-color:#5e4e50" offset="1"/>
  </linearGradient>
 </defs>
 <path d="m36.31 5c5.859 4.062 9.688 10.831 9.688 18.5 0 12.426-10.07 22.5-22.5 22.5-7.669 0-14.438-3.828-18.5-9.688 1.037 1.822 2.306 3.499 3.781 4.969 4.085 3.712 9.514 5.969 15.469 5.969 12.703 0 23-10.298 23-23 0-5.954-2.256-11.384-5.969-15.469-1.469-1.475-3.147-2.744-4.969-3.781zm4.969 3.781c3.854 4.113 6.219 9.637 6.219 15.719 0 12.703-10.297 23-23 23-6.081 0-11.606-2.364-15.719-6.219 4.16 4.144 9.883 6.719 16.219 6.719 12.703 0 23-10.298 23-23 0-6.335-2.575-12.06-6.719-16.219z" style="opacity:.05"/>
 <path d="m41.28 8.781c3.712 4.085 5.969 9.514 5.969 15.469 0 12.703-10.297 23-23 23-5.954 0-11.384-2.256-15.469-5.969 4.113 3.854 9.637 6.219 15.719 6.219 12.703 0 23-10.298 23-23 0-6.081-2.364-11.606-6.219-15.719z" style="opacity:.1"/>
 <path d="m31.25 2.375c8.615 3.154 14.75 11.417 14.75 21.13 0 12.426-10.07 22.5-22.5 22.5-9.708 0-17.971-6.135-21.12-14.75a23 23 0 0 0 44.875-7 23 23 0 0 0-16-21.875z" style="opacity:.2"/>
 <path d="m24 1c12.703 0 23 10.297 23 23s-10.297 23-23 23-23-10.297-23-23 10.297-23 23-23z" style="fill:url(#linearGradient3764)"/>
 <path d="m21.54 36.492v-0.84c1.156-0.473 1.379-1.051 1.84-2.109 0.73-5.227 0.387-11.11-0.188-15.586-2.805-1.07-5.602 0.188-4.676 1.828 0.246 0.398 1.262 0.211 1.145-0.262-0.555-0.262 0.023-0.617 0.262-0.547 0.23 0.047 0.445 0.637-0.113 1.313-0.352 0.328-0.703 0.41-1.125 0.438-0.656 0.023-1.32-0.086-1.578-0.438-0.344-0.609-0.266-1.086-0.188-1.746 0.297-0.746 0.285-1.414 0.223-2.188-0.035-0.684-0.344-1.246-0.637-1.855 6.414 1.672 11.01 2.473 16.941 1.566-0.324 1.453-0.027 2.402 0.527 3.711l-1.203 0.055c-0.125-1.156-0.711-1.645-1.203-1.656l-3.867-0.07c-1.066 5.27-0.852 9.461-0.453 14.742 0.121 0.949 0.703 2.223 1.73 2.406l0.109 0.473c-3.07-0.277-5.094-0.02-7.547 0.766" style="opacity:.1"/>
 <path d="m20.54 35.492v-0.84c1.156-0.473 1.379-1.051 1.84-2.109 0.73-5.227 0.387-11.11-0.188-15.586-2.805-1.07-5.602 0.188-4.676 1.828 0.246 0.398 1.262 0.211 1.145-0.262-0.555-0.262 0.023-0.617 0.262-0.547 0.23 0.047 0.445 0.637-0.113 1.313-0.352 0.328-0.703 0.41-1.125 0.438-0.656 0.023-1.32-0.086-1.578-0.438-0.344-0.609-0.266-1.086-0.188-1.746 0.297-0.746 0.285-1.414 0.223-2.188-0.035-0.684-0.344-1.246-0.637-1.855 6.414 1.672 11.01 2.473 16.941 1.566-0.324 1.453-0.027 2.402 0.527 3.711l-1.203 0.055c-0.125-1.156-0.711-1.645-1.203-1.656l-3.867-0.07c-1.066 5.27-0.852 9.461-0.453 14.742 0.121 0.949 0.703 2.223 1.73 2.406l0.109 0.473c-3.07-0.277-5.094-0.02-7.547 0.766" style="fill:#cc9727"/>
 <path d="m40.03 7.531c3.712 4.084 5.969 9.514 5.969 15.469 0 12.703-10.297 23-23 23-5.954 0-11.384-2.256-15.469-5.969 4.178 4.291 10.01 6.969 16.469 6.969 12.703 0 23-10.298 23-23 0-6.462-2.677-12.291-6.969-16.469z" style="opacity:.1"/>
</svg>
