<svg xmlns="http://www.w3.org/2000/svg" viewBox="0 0 48 48">
  <defs>
    <linearGradient id="a" x1="1" x2="47" gradientUnits="userSpaceOnUse" gradientTransform="rotate(-90 24 24)">
      <stop stop-color="#3d505b"/>
      <stop offset="1" stop-color="#455b68"/>
    </linearGradient>
    <linearGradient id="b" x1="19.398" x2="28.514" gradientUnits="userSpaceOnUse">
      <stop stop-color="#87b2e3" stop-opacity=".871"/>
      <stop offset=".25" stop-color="#87e18a" stop-opacity=".871"/>
      <stop offset=".505" stop-color="#f1f074" stop-opacity=".871"/>
      <stop offset=".75" stop-color="#ebb25a" stop-opacity=".871"/>
      <stop offset="1" stop-color="#f17f51" stop-opacity=".871"/>
    </linearGradient>
  </defs>
  <path d="M36.31 5c5.859 4.062 9.688 10.831 9.688 18.5 0 12.426-10.07 22.5-22.5 22.5-7.669 0-14.438-3.828-18.5-9.688a23.24 23.24 0 0 0 3.781 4.969 22.923 22.923 0 0 0 15.469 5.969c12.703 0 23-10.298 23-23a22.92 22.92 0 0 0-5.969-15.469A23.216 23.216 0 0 0 36.31 5zm4.969 3.781A22.911 22.911 0 0 1 47.498 24.5c0 12.703-10.297 23-23 23a22.909 22.909 0 0 1-15.719-6.219C12.939 45.425 18.662 48 24.998 48c12.703 0 23-10.298 23-23 0-6.335-2.575-12.06-6.719-16.219z" opacity=".05"/>
  <path d="M41.28 8.781a22.923 22.923 0 0 1 5.969 15.469c0 12.703-10.297 23-23 23A22.92 22.92 0 0 1 8.78 41.281 22.911 22.911 0 0 0 24.499 47.5c12.703 0 23-10.298 23-23A22.909 22.909 0 0 0 41.28 8.781z" opacity=".1"/>
  <path d="M31.25 2.375C39.865 5.529 46 13.792 46 23.505c0 12.426-10.07 22.5-22.5 22.5-9.708 0-17.971-6.135-21.12-14.75a23 23 0 0 0 44.875-7 23 23 0 0 0-16-21.875z" opacity=".2"/>
  <path d="M24 1c12.703 0 23 10.297 23 23S36.703 47 24 47 1 36.703 1 24 11.297 1 24 1z" fill="url(#a)"/>
  <g>
    <path d="M40.03 7.531A22.922 22.922 0 0 1 45.999 23c0 12.703-10.297 23-23 23A22.92 22.92 0 0 1 7.53 40.031C11.708 44.322 17.54 47 23.999 47c12.703 0 23-10.298 23-23 0-6.462-2.677-12.291-6.969-16.469z" opacity=".1"/>
  </g>
  <g>
    <path d="M20.854 25.838L19 36.033c1 .332 2 .576 3 .736 1 .161 2 .235 3 .23 1-.004 2-.088 3-.25 1-.163 2-.403 3-.717l-1.854-10.195c-.37.034-.762.056-1.146.082-.963.066-1.954.113-3 .113s-2.037-.048-3-.113c-.384-.026-.777-.048-1.146-.082z" fill-opacity=".098"/>
    <path transform="translate(0 1)" d="M28.15 23.836c-1.297.12-2.683.195-4.146.195-1.464 0-2.85-.075-4.146-.195l-1.854 10.195c4.04 1.338 8.05 1.244 12 0z" fill="url(#b)"/>
    <path d="M25 14c-2.557 0-4.375 1.461-4.859 3.748C15.939 18.357 13 19.677 13 20.9c0 1.657 5.373 3.1 12 3.1s12-1.443 12-3.1c0-1.224-2.939-2.543-7.141-3.152C29.374 15.461 27.557 14 25 14" fill-opacity=".098"/>
    <g>
      <path d="M36 19.9c0 1.657-5.373 3.1-12 3.1s-12-1.443-12-3.1 5.373-3.5 12-3.5 12 1.843 12 3.5z" fill="#787878"/>
      <path d="M29 18c0 1-2.239 1.9-5 1.9s-5-.9-5-1.9c0-3 2-5 5-5s5 2 5 5z" fill="#ccc"/>
    </g>
  </g>
</svg>
