<svg xmlns="http://www.w3.org/2000/svg" viewBox="0 0 48 48">
  <defs>
    <linearGradient id="a" gradientTransform="rotate(-90 24 24)" x2="47" gradientUnits="userSpaceOnUse" x1="1">
      <stop offset="0" stop-color="#eb1a19"/>
      <stop offset="1" stop-color="#ed2c2b"/>
    </linearGradient>
  </defs>
  <path d="M36.31 5c5.859 4.062 9.688 10.831 9.688 18.5 0 12.426-10.07 22.5-22.5 22.5-7.669 0-14.438-3.828-18.5-9.688a23.24 23.24 0 0 0 3.781 4.969 22.923 22.923 0 0 0 15.469 5.969c12.703 0 23-10.298 23-23a22.92 22.92 0 0 0-5.969-15.469A23.216 23.216 0 0 0 36.31 5zm4.969 3.781A22.911 22.911 0 0 1 47.498 24.5c0 12.703-10.297 23-23 23a22.909 22.909 0 0 1-15.719-6.219C12.939 45.425 18.662 48 24.998 48c12.703 0 23-10.298 23-23 0-6.335-2.575-12.06-6.719-16.219z" opacity=".05"/>
  <path d="M41.28 8.781a22.923 22.923 0 0 1 5.969 15.469c0 12.703-10.297 23-23 23A22.92 22.92 0 0 1 8.78 41.281 22.911 22.911 0 0 0 24.499 47.5c12.703 0 23-10.298 23-23A22.909 22.909 0 0 0 41.28 8.781z" opacity=".1"/>
  <path d="M31.25 2.375C39.865 5.529 46 13.792 46 23.505c0 12.426-10.07 22.5-22.5 22.5-9.708 0-17.971-6.135-21.12-14.75a23 23 0 0 0 44.875-7 23 23 0 0 0-16-21.875z" opacity=".2"/>
  <path d="M40.03 7.531A22.922 22.922 0 0 1 45.999 23c0 12.703-10.297 23-23 23A22.92 22.92 0 0 1 7.53 40.031C11.708 44.322 17.54 47 23.999 47c12.703 0 23-10.298 23-23 0-6.462-2.677-12.291-6.969-16.469z" opacity=".1"/>
  <path d="M24 1c12.703 0 23 10.297 23 23S36.703 47 24 47 1 36.703 1 24 11.297 1 24 1z" fill="url(#a)"/>
  <path d="M46.813 21.09a22.874 22.874 0 0 0-1.125-4.75L44 15.496l-3 1.5v4l3 1.5 2.813-1.406zM41.75 38.621l-.75.375v.5c.258-.283.506-.58.75-.875zM41 8.501a23.038 23.038 0 0 0-4.03-3.5l-1.969 1v4l3 1.5 3-1.5v-1.5zm0 19.5l-3-1.5-3 1.5v4l3 1.5 3-1.5v-4zm-6-11l-3-1.5-3 1.5v4l3 1.5 3-1.5v-4zm0 22l-3-1.5-3 1.5v4l3 1.5 3-1.5v-4zm-6-33l-3-1.5-3 1.5v4l3 1.5 3-1.5v-4zm0 22l-3-1.5-3 1.5v4l3 1.5 3-1.5v-4zm-6-11l-3-1.5-3 1.5v4l3 1.5 3-1.5v-4zm0 22l-3-1.5-3 1.5v4l3 1.5 3-1.5v-4zm-6-33l-3-1.5-3 1.5v4l3 1.5 3-1.5v-4zm0 22l-3-1.5-3 1.5v4l3 1.5 3-1.5v-4zm-6-11l-3-1.5-3 1.5v4l3 1.5 3-1.5v-4zm0 22l-3-1.5-1.906.938A23.088 23.088 0 0 0 11 42.97v-3.969zm-6-11l-3-1.5-.813.406a22.75 22.75 0 0 0 1.688 6.156L5 32v-4z" fill="#d0faff"/>
  <path d="M14 4.502l-3 1.5v4l1 .5V7l3-1.5 2 1v-.498l-3-1.5zm12 0l-3 1.5v4l1 .5V7l3-1.5 2 1v-.498l-3-1.5zm10.971.5l-1.969 1v4L36 10.5V7l2.193-1.098a23.459 23.459 0 0 0-1.222-.9zM44 15.496l-3 1.5v4l1 .5V18l3-1.5.883.441c-.065-.2-.126-.403-.195-.601L44 15.496zm-36 .006l-3 1.5v4l1 .5V18l3-1.5 2 1v-.498l-3-1.5zm12 0l-3 1.5v4l1 .5V18l3-1.5 2 1v-.498l-3-1.5zm12 0l-3 1.5v4l1 .5V18l3-1.5 2 1v-.498l-3-1.5zm-30 11l-.813.404c.06.468.14.929.227 1.387L3 27.5l2 1v-.498l-3-1.5zm12 0l-3 1.5v4l1 .5V29l3-1.5 2 1v-.498l-3-1.5zm12 0l-3 1.5v4l1 .5V29l3-1.5 2 1v-.498l-3-1.5zm12 0l-3 1.5v4l1 .5V29l3-1.5 2 1v-.498l-3-1.5zm-30 11l-1.906.937c.293.364.603.711.918 1.055L9 38.5l2 1v-.498l-3-1.5zm12 0l-3 1.5v4l1 .5V40l3-1.5 2 1v-.498l-3-1.5zm12 0l-3 1.5v4l1 .5V40l3-1.5 2 1v-.498l-3-1.5zm9.75 1.119l-.75.375v.5c.258-.283.506-.58.75-.875z" opacity=".1"/>
</svg>
