<svg xmlns="http://www.w3.org/2000/svg" viewBox="0 0 48 48">
  <defs>
    <linearGradient id="a" x1="1" x2="47" gradientUnits="userSpaceOnUse" gradientTransform="rotate(-90 24 24)">
      <stop stop-color="#e4e4e4"/>
      <stop offset="1" stop-color="#eee"/>
    </linearGradient>
  </defs>
  <path d="M36.31 5c5.859 4.062 9.688 10.831 9.688 18.5 0 12.426-10.07 22.5-22.5 22.5-7.669 0-14.438-3.828-18.5-9.688a23.24 23.24 0 0 0 3.781 4.969 22.923 22.923 0 0 0 15.469 5.969c12.703 0 23-10.298 23-23a22.92 22.92 0 0 0-5.969-15.469A23.216 23.216 0 0 0 36.31 5zm4.969 3.781A22.911 22.911 0 0 1 47.498 24.5c0 12.703-10.297 23-23 23a22.909 22.909 0 0 1-15.719-6.219C12.939 45.425 18.662 48 24.998 48c12.703 0 23-10.298 23-23 0-6.335-2.575-12.06-6.719-16.219z" opacity=".05"/>
  <path d="M41.28 8.781a22.923 22.923 0 0 1 5.969 15.469c0 12.703-10.297 23-23 23A22.92 22.92 0 0 1 8.78 41.281 22.911 22.911 0 0 0 24.499 47.5c12.703 0 23-10.298 23-23A22.909 22.909 0 0 0 41.28 8.781z" opacity=".1"/>
  <path d="M31.25 2.375C39.865 5.529 46 13.792 46 23.505c0 12.426-10.07 22.5-22.5 22.5-9.708 0-17.971-6.135-21.12-14.75a23 23 0 0 0 44.875-7 23 23 0 0 0-16-21.875z" opacity=".2"/>
  <path d="M24 1c12.703 0 23 10.297 23 23S36.703 47 24 47 1 36.703 1 24 11.297 1 24 1z" fill="url(#a)"/>
  <path d="M33.393 12.996l.002.004c-.961.016-1.91.656-2.063 1.844-.242 1.902 1.577 1.188 3.03 1.188 1.453 0 1.941 3.09 1.574 4.754-.198.904-1.442 2.473-3.936 3.088v1.215c1.197.212 1.998.777 2 1.412-.002.635-.803 1.2-2 1.412v6.469c3.602-2.851 5.996-7.605 5.996-12.11 0-.809-.039-1.621-.24-2.375-.256-.956-.605-1.922-.91-2.793-.71-1.551-1.791-3.03-2.85-4.04-.004-.008-.025.012-.029 0a2.37 2.37 0 0 0-.574-.061zm-3.971 1.43a.511.511 0 0 0-.516.508c0 .277.231.504.516.504a.51.51 0 0 0 .516-.504.512.512 0 0 0-.516-.508zm1.246 2.379a.72.72 0 0 0-.73.711c0 .395.328.715.73.715.399 0 .727-.32.727-.715a.72.72 0 0 0-.727-.711zM18 21.254c-3.889-.042-5.872 2.288-6.01 2.352.426 3.983 2.722 8.171 6.01 10.781v-6.475c-1.197-.212-1.998-.777-2-1.412.002-.635.803-1.2 2-1.412v-3.834zm2 .227v3.607c1.197.212 1.998.777 2 1.412-.002.635-.803 1.2-2 1.412v7.787a10.73 10.73 0 0 0 4 1.236v-2.023c-1.197-.212-1.998-.777-2-1.412.002-.635.803-1.2 2-1.412v-9.219c-.341-.135-.676-.263-1.033-.424A13.964 13.964 0 0 0 20 21.48zm6 2.084v8.523c1.197.212 1.998.777 2 1.412-.002.635-.803 1.2-2 1.412v2.02a10.937 10.937 0 0 0 4-1.225v-7.791c-1.197-.212-1.998-.777-2-1.412.002-.635.803-1.2 2-1.412v-.963c-1.152.024-2.476-.13-4-.561z" opacity=".1"/>
  <g>
    <path d="M32.393 11.996l.002.004c-.961.016-1.91.656-2.063 1.844-.242 1.902 1.577 1.188 3.03 1.188 1.453 0 1.941 3.09 1.574 4.754-.198.904-1.442 2.473-3.936 3.088v1.215c1.197.212 1.998.777 2 1.412-.002.635-.803 1.2-2 1.412v6.469c3.602-2.851 5.996-7.605 5.996-12.11 0-.809-.039-1.621-.24-2.375-.256-.956-.605-1.922-.91-2.793-.71-1.551-1.791-3.03-2.85-4.04-.004-.008-.025.012-.029 0a2.37 2.37 0 0 0-.574-.061zM17 20.254c-3.889-.042-5.872 2.288-6.01 2.352.426 3.983 2.722 8.171 6.01 10.781v-6.475c-1.197-.212-1.998-.777-2-1.412.002-.635.803-1.2 2-1.412zm2 .227v3.607c1.197.212 1.998.777 2 1.412-.002.635-.803 1.2-2 1.412v7.787a10.73 10.73 0 0 0 4 1.236v-2.023c-1.197-.212-1.998-.777-2-1.412.002-.635.803-1.2 2-1.412v-9.219c-.341-.135-.676-.263-1.033-.424A13.964 13.964 0 0 0 19 20.48m6 2.084v8.523c1.197.212 1.998.777 2 1.412-.002.635-.803 1.2-2 1.412v2.02a10.937 10.937 0 0 0 4-1.225v-7.791c-1.197-.212-1.998-.777-2-1.412.002-.635.803-1.2 2-1.412v-.963c-1.152.024-2.476-.13-4-.561z" fill="#494c86"/>
    <path d="M30.395 16.516a.723.723 0 0 1-.727.715.723.723 0 0 1-.73-.715.72.72 0 0 1 .73-.711.72.72 0 0 1 .727.711m0 0M28.938 13.934a.51.51 0 0 1-.516.504.511.511 0 0 1-.516-.504c0-.281.23-.508.516-.508.285 0 .516.227.516.508m0 0" fill="#434a8e"/>
  </g>
  <g>
    <path d="M40.03 7.531A22.922 22.922 0 0 1 45.999 23c0 12.703-10.297 23-23 23A22.92 22.92 0 0 1 7.53 40.031C11.708 44.322 17.54 47 23.999 47c12.703 0 23-10.298 23-23 0-6.462-2.677-12.291-6.969-16.469z" opacity=".1"/>
  </g>
</svg>
