<svg version="1.1" viewBox="0 0 48 48" xmlns="http://www.w3.org/2000/svg">
 <defs>
  <linearGradient id="lG3784" x2="0" y1="47" y2="1" gradientUnits="userSpaceOnUse">
   <stop style="stop-color:#3d3d3d" offset="0"/>
   <stop style="stop-color:#555" offset="1"/>
  </linearGradient>
  <linearGradient id="lG3803" x1="9" x2="39" gradientUnits="userSpaceOnUse">
   <stop style="stop-color:#f3872b" offset="0"/>
   <stop style="stop-color:#5d4f3c" offset="1"/>
  </linearGradient>
 </defs>
 <path d="m36.3 5c5.86 4.06 9.69 10.8 9.69 18.5 0 12.4-10.1 22.5-22.5 22.5-7.67 0-14.4-3.83-18.5-9.69 1.04 1.82 2.31 3.5 3.78 4.97 4.08 3.71 9.51 5.97 15.5 5.97 12.7 0 23-10.3 23-23 0-5.95-2.26-11.4-5.97-15.5-1.47-1.48-3.15-2.74-4.97-3.78zm4.97 3.78c3.85 4.11 6.22 9.64 6.22 15.7 0 12.7-10.3 23-23 23-6.08 0-11.6-2.36-15.7-6.22 4.16 4.14 9.88 6.72 16.2 6.72 12.7 0 23-10.3 23-23 0-6.34-2.58-12.1-6.72-16.2z" style="opacity:.05"/>
 <path d="m41.3 8.78c3.71 4.08 5.97 9.51 5.97 15.5 0 12.7-10.3 23-23 23-5.95 0-11.4-2.26-15.5-5.97 4.11 3.85 9.64 6.22 15.7 6.22 12.7 0 23-10.3 23-23 0-6.08-2.36-11.6-6.22-15.7z" style="opacity:.1"/>
 <path d="m31.2 2.38c8.62 3.15 14.8 11.4 14.8 21.1 0 12.4-10.1 22.5-22.5 22.5-9.71 0-18-6.14-21.1-14.8a23 23 0 0 0 44.9-7 23 23 0 0 0-16-21.9z" style="opacity:.2"/>
 <path d="m24 1c12.7 0 23 10.3 23 23s-10.3 23-23 23-23-10.3-23-23 10.3-23 23-23z" style="fill:url(#lG3784)"/>
 <path d="m40 7.53c3.71 4.08 5.97 9.51 5.97 15.5 0 12.7-10.3 23-23 23-5.95 0-11.4-2.26-15.5-5.97 4.18 4.29 10 6.97 16.5 6.97 12.7 0 23-10.3 23-23 0-6.46-2.68-12.3-6.97-16.5z" style="opacity:.1"/>
 <circle cx="25" cy="25" r="15" style="fill-opacity:.11"/>
 <circle transform="matrix(-.365 .931 -.931 -.365 55.1 10.4)" cx="24" cy="24" r="15" style="fill:url(#lG3803)"/>
 <path d="m30.5 4a0.5 0.5 0 0 0-0.467 0.498 0.5 0.5 0 0 0 1 0 0.5 0.5 0 0 0-0.533-0.498zm-15 2a0.5 0.5 0 0 0-0.467 0.498 0.5 0.5 0 0 0 1 0 0.5 0.5 0 0 0-0.533-0.498zm7 0a0.5 0.5 0 0 0-0.467 0.498 0.5 0.5 0 0 0 1 0 0.5 0.5 0 0 0-0.533-0.498zm10 3a0.5 0.5 0 0 0-0.467 0.498 0.5 0.5 0 0 0 1 0 0.5 0.5 0 0 0-0.533-0.498zm8 2a0.5 0.5 0 0 0-0.467 0.498 0.5 0.5 0 0 0 1 0 0.5 0.5 0 0 0-0.533-0.498zm-30 1a0.5 0.5 0 0 0-0.467 0.498 0.5 0.5 0 0 0 1 0 0.5 0.5 0 0 0-0.533-0.498zm-6 4a0.5 0.5 0 0 0-0.467 0.498 0.5 0.5 0 0 0 1 0 0.5 0.5 0 0 0-0.533-0.498zm38 0a0.5 0.5 0 0 0-0.467 0.498 0.5 0.5 0 0 0 1 0 0.5 0.5 0 0 0-0.533-0.498zm-36 7a0.5 0.5 0 0 0-0.467 0.498 0.5 0.5 0 0 0 1 0 0.5 0.5 0 0 0-0.533-0.498zm34 0a0.5 0.5 0 0 0-0.467 0.498 0.5 0.5 0 0 0 1 0 0.5 0.5 0 0 0-0.533-0.498zm4 3a0.5 0.5 0 0 0-0.467 0.498 0.5 0.5 0 0 0 1 0 0.5 0.5 0 0 0-0.533-0.498zm-40 2a0.5 0.5 0 0 0-0.467 0.498 0.5 0.5 0 0 0 1 0 0.5 0.5 0 0 0-0.533-0.498zm37 3a0.5 0.5 0 0 0-0.467 0.498 0.5 0.5 0 0 0 1 0 0.5 0.5 0 0 0-0.533-0.498zm-32 3a0.5 0.5 0 0 0-0.467 0.498 0.5 0.5 0 0 0 1 0 0.5 0.5 0 0 0-0.533-0.498zm27 1a0.5 0.5 0 0 0-0.467 0.498 0.5 0.5 0 0 0 1 0 0.5 0.5 0 0 0-0.533-0.498zm-19 4a0.5 0.5 0 0 0-0.467 0.498 0.5 0.5 0 0 0 1 0 0.5 0.5 0 0 0-0.533-0.498zm-5 1a0.5 0.5 0 0 0-0.467 0.498 0.5 0.5 0 0 0 1 0 0.5 0.5 0 0 0-0.533-0.498zm13 0a0.5 0.5 0 0 0-0.467 0.498 0.5 0.5 0 0 0 1 0 0.5 0.5 0 0 0-0.533-0.498zm8 2a0.5 0.5 0 0 0-0.467 0.498 0.5 0.5 0 0 0 1 0 0.5 0.5 0 0 0-0.533-0.498z" style="fill:#f9f9f9"/>
 <path transform="translate(-1,38)" d="m23 6.5a0.5 0.5 0 1 1-1 0 0.5 0.5 0 1 1 1 0z" style="fill:#f9f9f9"/>
</svg>
