<svg xmlns="http://www.w3.org/2000/svg" version="1.1" viewBox="0 0 48 48">
 <defs>
  <linearGradient id="linearGradient3764" y1="47" x2="0" y2="1" gradientUnits="userSpaceOnUse">
   <stop stop-color="#7046ae" offset="0"/>
   <stop stop-color="#7950b8" offset="1"/>
  </linearGradient>
  <clipPath id="clipPath-079348444">
   <g transform="translate(0 -1004.4)">
    <path fill="#1890d0" d="m-24 13c0 1.105-0.672 2-1.5 2s-1.5-0.895-1.5-2 0.672-2 1.5-2 1.5 0.895 1.5 2z" transform="matrix(15.333 0 0 11.5 415 878.86)"/>
   </g>
  </clipPath>
 </defs>
 <path opacity=".05" d="m36.31 5c5.859 4.062 9.688 10.831 9.688 18.5 0 12.426-10.07 22.5-22.5 22.5-7.669 0-14.438-3.828-18.5-9.688 1.037 1.822 2.306 3.499 3.781 4.969 4.085 3.712 9.514 5.969 15.469 5.969 12.703 0 23-10.298 23-23 0-5.954-2.256-11.384-5.969-15.469-1.469-1.475-3.147-2.744-4.969-3.781zm4.969 3.781c3.854 4.113 6.219 9.637 6.219 15.719 0 12.703-10.297 23-23 23-6.081 0-11.606-2.364-15.719-6.219 4.16 4.144 9.883 6.719 16.219 6.719 12.703 0 23-10.298 23-23 0-6.335-2.575-12.06-6.719-16.219z"/>
 <path opacity=".1" d="m41.28 8.781c3.712 4.085 5.969 9.514 5.969 15.469 0 12.703-10.297 23-23 23-5.954 0-11.384-2.256-15.469-5.969 4.113 3.854 9.637 6.219 15.719 6.219 12.703 0 23-10.298 23-23 0-6.081-2.364-11.606-6.219-15.719z"/>
 <path opacity=".2" d="m31.25 2.375c8.615 3.154 14.75 11.417 14.75 21.13 0 12.426-10.07 22.5-22.5 22.5-9.708 0-17.971-6.135-21.12-14.75a23 23 0 0 0 44.875 -7 23 23 0 0 0 -16 -21.875z"/>
 <path d="m24 1c12.703 0 23 10.297 23 23s-10.297 23-23 23-23-10.297-23-23 10.297-23 23-23z" fill="url(#linearGradient3764)"/>
 <path d="m14 16h22c0.551 0 1 0.445 1 0.996v16c0 0.551-0.449 1-1 1h-22c-0.551 0-1-0.449-1-1v-16c0-0.551 0.449-0.996 1-0.996" style="opacity:.1"/>
 <g clip-path="url(#clipPath-079348444)">
  <path d="m13 15h22c0.551 0 1 0.445 1 0.996v16c0 0.551-0.449 1-1 1h-22c-0.551 0-1-0.449-1-1v-16c0-0.551 0.449-0.996 1-0.996" fill="#f9f9f9"/>
  <path d="m13 16h22v2l-11 8-11-8m0-2" fill="#0579c9"/>
 </g>
 <path opacity=".1" d="m40.03 7.531c3.712 4.084 5.969 9.514 5.969 15.469 0 12.703-10.297 23-23 23-5.954 0-11.384-2.256-15.469-5.969 4.178 4.291 10.01 6.969 16.469 6.969 12.703 0 23-10.298 23-23 0-6.462-2.677-12.291-6.969-16.469z"/>
</svg>
