<svg xmlns="http://www.w3.org/2000/svg" viewBox="0 0 48 48">
  <defs>
    <linearGradient id="a" x1="1" x2="47" gradientUnits="userSpaceOnUse" gradientTransform="rotate(-90 24 24)">
      <stop stop-color="#3c6178"/>
      <stop offset="1" stop-color="#436c85"/>
    </linearGradient>
    <linearGradient id="b" y1="34" x2="0" y2="14" gradientUnits="userSpaceOnUse">
      <stop stop-color="#fbedd1"/>
      <stop offset="1" stop-color="#fef4e2"/>
    </linearGradient>
  </defs>
  <path d="M36.31 5c5.859 4.062 9.688 10.831 9.688 18.5 0 12.426-10.07 22.5-22.5 22.5-7.669 0-14.438-3.828-18.5-9.688a23.24 23.24 0 0 0 3.781 4.969 22.923 22.923 0 0 0 15.469 5.969c12.703 0 23-10.298 23-23a22.92 22.92 0 0 0-5.969-15.469A23.216 23.216 0 0 0 36.31 5zm4.969 3.781A22.911 22.911 0 0 1 47.498 24.5c0 12.703-10.297 23-23 23a22.909 22.909 0 0 1-15.719-6.219C12.939 45.425 18.662 48 24.998 48c12.703 0 23-10.298 23-23 0-6.335-2.575-12.06-6.719-16.219z" opacity=".05"/>
  <path d="M41.28 8.781a22.923 22.923 0 0 1 5.969 15.469c0 12.703-10.297 23-23 23A22.92 22.92 0 0 1 8.78 41.281 22.911 22.911 0 0 0 24.499 47.5c12.703 0 23-10.298 23-23A22.909 22.909 0 0 0 41.28 8.781z" opacity=".1"/>
  <path d="M31.25 2.375C39.865 5.529 46 13.792 46 23.505c0 12.426-10.07 22.5-22.5 22.5-9.708 0-17.971-6.135-21.12-14.75a23 23 0 0 0 44.875-7 23 23 0 0 0-16-21.875z" opacity=".2"/>
  <path d="M12.645 4C5.693 7.956 1 15.427 1 23.998c0 .133.008.264.01.396 7.51 20.07 10.7 14.711 23.02 22.604h.002c9.592-.014 17.804-5.899 21.242-14.254-.275-9.746-.275-14.746-.559-18.746C41.21 6.75 34.013 1.626 25.565 1.057 20.333 1.793 16.073 2.736 12.642 4" fill="url(#a)"/>
  <path d="M24 1c-3.396 0-6.616.741-9.518 2.063-1.336 2.091-1.679 5.844.375 5.32 1.744-.445.416-5.655 3.098-2.961 1.479 1.486 3.467 1.551 3.314 2.215-1.067 4.626 3.504 2.47 5.695.361 4.122-3.967 5.368-4.754-.955-4.03-2.616.299 1.523-3.48 2.873-2.234.23-.003.402-.036.531-.086a23.053 23.053 0 0 0-5.414-.646zm-1.434 2.09c.156.01.331.036.525.084-.981 3.523-2.86-.231-.525-.084zm11.529 2.348c-2.87.031-.687 3.479 1.885 3.125 3.673-.506.394-2.874-1.242-3.084a4.76 4.76 0 0 0-.643-.041zm-20.848 4.967c-1.352.219-1.275 4.248-1.578 5.537-.908 3.86-8.528 2.689-6.234 7.148.638 1.24 2.665-1.501 4.096.229 1.913 1.452 3.887 1.305 5.465.17 0 .208.004.29.004.512 0 5 3 9 5.5 11 1.799-1.439 2.817-2.724 3.621-4.076.757.193 1.497.445 2.207.711.74 1.1 1.69 2.18 3.172 3.365 2.167-1.734 4.707-4.971 5.346-9.06.571 2.102.762 4.632 2.023 4.166 8.04-2.973-.302 5.614 7.779 4.03A22.895 22.895 0 0 0 47 24a22.91 22.91 0 0 0-2-9.381c-2.402-1.231-5.01-2.074-7.801-2.326a7.604 7.604 0 0 0-.664-.033c-2.485-.015-4.159 1.216-5.436 2.74h-1.1v1.4c.021.005.034.011.055.016-1.489 2.236-2.455 4.493-3.979 4.254-1.716-.269 1.322-8.449-4.305-1.135-1.016 1.321-.314 2.044-.041 3.539v.002c-.13.445-.066 1.14.076 1.496-.046.646-.191 1.402-.512 2.322-.311.892-1.058 2.466.494 3.373a56.392 56.392 0 0 1-1.289 2.232c-2.5-3.5-2.5-6.5-2.5-7.5 0-8 0-8.1 2-8.6v-1.4H16.34c.181-.314.511-.685 1.09-1.164 1.203-.906.573-3.125-1.291-2.193-.687.361-1.238-.282-1.705-.701-.487-.436-.875-.588-1.188-.537zm25.08 7.04c.651.129 1.549 2.216 1.787 3.727.421 2.67-2.825.253-2.412-2.652.1-.703.28-1.021.498-1.072a.286.286 0 0 1 .127-.002zm-6.338 6.05c.001.55.01.861.01 1.512 0 .111-.014.33-.018.488-.54-.933-.95-1.556-.301-1.871.107-.052.209-.091.309-.129zM1.018 24.79C1.428 37.032 11.4 46.84 23.705 47c-3.199-2.201-1.138-6.982-4.127-9.381-3.351-2.254-8.942.462-12.342-2.064-2.087-1.551.659-4.779 2.168-5.953 1.564-1.25-2.257-.529-3.383-1.365-1.601-1.188-3.251-2.422-5-3.445zm32.07 10.803c-4.233.769 1.402 7.343 1.738 2.596.013-.873-.866-2.754-1.738-2.596z" fill-opacity=".098"/>
  <path d="M24 1c-4.132 0-8 1.095-11.355 3-.507 1.866-.286 3.763 1.213 3.381 1.744-.445.416-5.653 3.098-2.959 1.479 1.486 3.467 1.549 3.314 2.213-1.067 4.626 3.504 2.472 5.695.363 4.122-3.967 5.368-4.756-.955-4.03-1.58.181-.687-1.119.558-1.908A23.247 23.247 0 0 0 24 1.001m-2.434 1.09c.156.01.331.036.525.084-.981 3.523-2.86-.231-.525-.084zm11.529 2.348c-2.87.031-.687 3.479 1.885 3.125 3.673-.506.394-2.874-1.242-3.084a4.76 4.76 0 0 0-.643-.041M12.247 9.406c-1.352.219-1.275 4.248-1.578 5.537-.908 3.86-8.528 2.689-6.234 7.148.638 1.24 2.665-1.501 4.096.229 3.284 2.493 6.759.298 8.07-3.578 1.29-3.809-3.657-3.02-.172-5.904 1.203-.906.573-3.125-1.291-2.193-.687.361-1.238-.282-1.705-.701-.487-.436-.875-.588-1.188-.537zm23.287 1.855c-6.665-.04-7.505 8.873-10.459 8.41-1.716-.269 1.322-8.449-4.305-1.135-1.626 2.114 1.149 2.698-.477 7.359-.361 1.034-1.315 2.988 1.42 3.752 5.063.602 9.73 5.499 10.344-1.408.277-3.12-2.678-4.987-1.377-5.619 4.191-2.037 2.856 7.35 5.188 6.488 8.529-3.152-1.393 6.706 9.406 3.639a22.924 22.924 0 0 0 1.725-8.746c0-3.585-.821-6.976-2.283-10-2.595-1.44-5.449-2.43-8.518-2.707a7.604 7.604 0 0 0-.664-.033zm1.666 5.182c.655-.153 1.66 2.113 1.914 3.725.421 2.67-2.825.253-2.412-2.652.1-.703.28-1.021.498-1.072zM1.01 24.398C1.222 36.917 11.43 47.002 24 47.002h.033c-.488-.403-.95-.758-1.279-.971-3.273-2.185-1.168-7.01-4.174-9.418-3.351-2.254-8.942.462-12.342-2.064-2.087-1.551.659-4.779 2.168-5.953 1.564-1.25-2.257-.529-3.383-1.365-1.295-.962-2.626-1.946-4.01-2.832m31.08 10.189c-4.233.769 1.402 7.343 1.738 2.596.013-.873-.866-2.754-1.738-2.596z" fill="#5eac5e"/>
  <path d="M13 15v1.4c1.71.428 1.947.703 1.982 5.191.681-.766 1.243-1.735 1.621-2.852.796-2.349-.773-2.949-1.281-3.74m14.678 0v1.4c1.714.429 1.947.876 1.982 5.945 1.691.241 1.974 3.267 2.508 5.205.321-1.111.51-2.299.51-3.551 0-7.199 0-7.1 2-7.6v-1.4m-12 7c-1 0-2.01.338-3 .699-.57.208-.331 2.133 0 2.102l1.5-.201c0 1.829-.597 3.498-1.414 5.109.809.129 1.594.364 2.363.627.187-.341.373-.679.551-1.035.261.522.523 1.024.811 1.516 1.228.471 2.363.919 3.311 1.037-1.361-2.288-2.621-4.603-2.621-7.254l1.5.201c.331.031.557-1.86 0-2.102-1.01-.438-2-.699-3-.699" fill-opacity=".098"/>
  <g>
    <path d="M40.03 7.531A22.922 22.922 0 0 1 45.999 23c0 12.703-10.297 23-23 23A22.92 22.92 0 0 1 7.53 40.031C11.708 44.322 17.54 47 23.999 47c12.703 0 23-10.298 23-23 0-6.462-2.677-12.291-6.969-16.469z" opacity=".1"/>
  </g>
  <path d="M12 14v1.4c2 .5 2 .401 2 7.6 0 5 3 9 5.5 11 2.5-2 3.5-3.7 4.5-5.7 1 2 2 3.7 4.5 5.7C31 32 34 28 34 23c0-7.199 0-7.1 2-7.6V14h-7v1.4c2 .5 2 .6 2 8.6 0 1 0 4-2.5 7.5-1.5-2.5-3-5-3-7.9l1.5.201c.331.031.557-1.86 0-2.102-1.01-.438-2-.699-3-.699s-2.01.338-3 .699c-.57.208-.331 2.133 0 2.102l1.5-.201c0 2.9-1.5 5.4-3 7.9C17 28 17 25 17 24c0-8 0-8.1 2-8.6V14" fill="url(#b)"/>
</svg>
