<svg xmlns="http://www.w3.org/2000/svg" viewBox="0 0 48 48">
  <path d="M24 1C11.297 1 1 11.297 1 24h23V1z" fill="#f15119" fill-rule="evenodd"/>
  <path d="M36.31 5c5.859 4.062 9.688 10.831 9.688 18.5 0 12.426-10.07 22.5-22.5 22.5-7.669 0-14.438-3.828-18.5-9.688a23.24 23.24 0 0 0 3.781 4.969 22.923 22.923 0 0 0 15.469 5.969c12.703 0 23-10.298 23-23a22.92 22.92 0 0 0-5.969-15.469A23.216 23.216 0 0 0 36.31 5zm4.969 3.781A22.911 22.911 0 0 1 47.498 24.5c0 12.703-10.297 23-23 23a22.909 22.909 0 0 1-15.719-6.219C12.939 45.425 18.662 48 24.998 48c12.703 0 23-10.298 23-23 0-6.335-2.575-12.06-6.719-16.219z" opacity=".05"/>
  <path d="M41.28 8.781a22.923 22.923 0 0 1 5.969 15.469c0 12.703-10.297 23-23 23A22.92 22.92 0 0 1 8.78 41.281 22.911 22.911 0 0 0 24.499 47.5c12.703 0 23-10.298 23-23A22.909 22.909 0 0 0 41.28 8.781z" opacity=".1"/>
  <path d="M31.25 2.375C39.865 5.529 46 13.792 46 23.505c0 12.426-10.07 22.5-22.5 22.5-9.708 0-17.971-6.135-21.12-14.75a23 23 0 0 0 44.875-7 23 23 0 0 0-16-21.875z" opacity=".2"/>
  <path d="M24 1v23h23C47 11.297 36.703 1 24 1z" fill="#7fcc28" fill-rule="evenodd"/>
  <path d="M24 24v23c12.703 0 23-10.297 23-23H24z" fill="#fbb909" fill-rule="evenodd"/>
  <path d="M1 24c0 12.703 10.297 23 23 23V24H1z" fill="#00abec" fill-rule="evenodd"/>
  <path d="M33.406 13c-.965.02-1.91.645-2.063 1.844-.242 1.898 1.575 1.188 3.03 1.188 1.457 0 1.922 3.09 1.563 4.75-.188.849-1.299 2.287-3.5 2.969l-2.75-2.75-2.781 2.781c-1.186-.266-2.49-.693-3.938-1.344a14.753 14.753 0 0 0-1.906-.688l-.75-.75-.438.438c-5.123-.981-7.723 2.115-7.875 2.188.381 3.601 2.302 7.348 5.094 9.969l-.094.094 3.313 3.313.781-.781a10.19 10.19 0 0 0 3.875.781c1.372 0 2.695-.279 3.938-.781l.781.781 3.313-3.313-.094-.094c3.087-2.894 5.094-7.2 5.094-11.313 0-.813-.106-1.605-.25-2.375a18.182 18.182 0 0 1-.344-1.125c-.18-.633-.391-1.192-.563-1.688-.008-.02.008-.043 0-.063a12.77 12.77 0 0 0-2.844-3.969c-.008-.012-.027.008-.031 0a2.278 2.278 0 0 0-.563-.063z" opacity=".1"/>
  <path d="M31.395 17.531a.72.72 0 0 1-.727.711.722.722 0 0 1-.727-.711c0-.395.328-.715.727-.715a.72.72 0 0 1 .727.715m0 0M29.938 14.941a.51.51 0 0 1-.512.508.512.512 0 0 1-.516-.508.51.51 0 0 1 .516-.504.51.51 0 0 1 .512.504m0 0" opacity=".1"/>
  <path d="M32.395 12.01c-.965.02-1.91.645-2.063 1.844-.242 1.898 1.574 1.188 3.03 1.188 1.457 0 1.938 3.09 1.578 4.75-.367 1.66-4.23 5.59-12.969 1.66-7.195-3.234-10.789 1.074-10.969 1.16.68 6.426 6.227 13.398 12.969 13.398 7.188 0 13.03-7.688 13.03-14.734 0-.813-.098-1.609-.242-2.379-.133-.387-.266-.773-.363-1.129-.18-.633-.375-1.164-.547-1.66-.008-.02.008-.043 0-.063a12.829 12.829 0 0 0-2.848-3.98c-.008-.012-.027.008-.031 0a2.371 2.371 0 0 0-.574-.063m.004.004" fill="#8e0317"/>
  <path d="M30.395 16.531a.72.72 0 0 1-.727.711.722.722 0 0 1-.727-.711c0-.395.328-.715.727-.715a.72.72 0 0 1 .727.715m0 0M28.938 13.941a.51.51 0 0 1-.512.508.512.512 0 0 1-.516-.508.51.51 0 0 1 .516-.504.51.51 0 0 1 .512.504m0 0" fill="#8e0317"/>
  <path d="M28.68 20L24 24.68 19.316 20l-3.32 3.32L20.68 28l-4.684 4.68 3.32 3.32L24 31.32 28.68 36 32 32.68 27.32 28 32 23.32M28.68 20" fill="#f9f9f9"/>
  <g>
    <path d="M40.03 7.531A22.922 22.922 0 0 1 45.999 23c0 12.703-10.297 23-23 23A22.92 22.92 0 0 1 7.53 40.031C11.708 44.322 17.54 47 23.999 47c12.703 0 23-10.298 23-23 0-6.462-2.677-12.291-6.969-16.469z" opacity=".1"/>
  </g>
</svg>
