<svg viewBox="0 0 48 48" xmlns="http://www.w3.org/2000/svg">
 <defs>
  <linearGradient id="linearGradient3948" x2="0" y1="47" y2="1" gradientUnits="userSpaceOnUse">
   <stop style="stop-color:#d7c1f7" offset="0"/>
   <stop style="stop-color:#e2d1fa" offset="1"/>
  </linearGradient>
 </defs>
 <path d="m36.31 5c5.859 4.062 9.688 10.831 9.688 18.5 0 12.426-10.07 22.5-22.5 22.5-7.669 0-14.438-3.828-18.5-9.688 1.037 1.822 2.306 3.499 3.781 4.969 4.085 3.712 9.514 5.969 15.469 5.969 12.703 0 23-10.298 23-23 0-5.954-2.256-11.384-5.969-15.469-1.469-1.475-3.147-2.744-4.969-3.781zm4.969 3.781c3.854 4.113 6.219 9.637 6.219 15.719 0 12.703-10.297 23-23 23-6.081 0-11.606-2.364-15.719-6.219 4.16 4.144 9.883 6.719 16.219 6.719 12.703 0 23-10.298 23-23 0-6.335-2.575-12.06-6.719-16.219z" style="opacity:.05"/>
 <path d="m41.28 8.781c3.712 4.085 5.969 9.514 5.969 15.469 0 12.703-10.297 23-23 23-5.954 0-11.384-2.256-15.469-5.969 4.113 3.854 9.637 6.219 15.719 6.219 12.703 0 23-10.298 23-23 0-6.081-2.364-11.606-6.219-15.719z" style="opacity:.1"/>
 <path d="m31.25 2.375c8.615 3.154 14.75 11.417 14.75 21.13 0 12.426-10.07 22.5-22.5 22.5-9.708 0-17.971-6.135-21.12-14.75a23 23 0 0 0 44.875-7 23 23 0 0 0-16-21.875z" style="opacity:.2"/>
 <g style="fill:#e3d7f4">
  <path d="m24 1c12.703 0 23 10.297 23 23s-10.297 23-23 23-23-10.297-23-23 10.297-23 23-23z" style="fill:url(#linearGradient3948)"/>
 </g>
 <path d="m40.03 7.531c3.712 4.084 5.969 9.514 5.969 15.469 0 12.703-10.297 23-23 23-5.954 0-11.384-2.256-15.469-5.969 4.178 4.291 10.01 6.969 16.469 6.969 12.703 0 23-10.298 23-23 0-6.462-2.677-12.291-6.969-16.469z" style="opacity:.1"/>
 <g transform="translate(1 1)" style="opacity:.1">
  <g transform="scale(.99502 1.005)">
   <path transform="matrix(1.005 0 0 .99502 -1.005 -.99502)" d="m26.1 15.996v2.453l1.283 2.053-2.469 6.365-3.051-8.02c0.397-0.135 0.811-0.267 1.242-0.395v-2.451h-9.684v2.451h4.266v0.422c-0.74 0.352-1.455 0.72-2.115 1.125-0.916 0.56-1.717 1.189-2.4 1.889-0.684 0.699-1.217 1.459-1.598 2.281-0.381 0.821-0.57 1.727-0.57 2.715 0 1.985 0.628 3.487 1.883 4.51 1.264 1.023 3.01 1.587 5.244 1.691l4e-3 -2e-3c0.623 0.035 1.123 0.144 1.504 0.328 0.381 0.192 0.572 0.502 0.572 0.93 0 0.376-0.129 0.669-0.389 0.879-0.26 0.219-0.699 0.367-1.313 0.445l0.313 2.334c0.692-0.017 1.292-0.135 1.803-0.354 0.519-0.21 0.95-0.485 1.287-0.826 0.338-0.341 0.584-0.729 0.74-1.166 0.156-0.429 0.232-0.866 0.232-1.313 0-1.023-0.362-1.852-1.09-2.49-0.299-0.269-0.684-0.48-1.121-0.652v-0.012l-0.047-8e-3c-0.487-0.186-1.061-0.311-1.715-0.379v-10.73c0.077-0.039 0.159-0.077 0.238-0.115l4.605 12.05h0.539 2e-3l3.947-10.123 0.994 1.59v2.207l-3.139 4.998v2.438h10.904v-5.795h-2.428v3.355h-2.254v-4.832l0.773-1.268-0.773-1.271v-4.852h2.254v3.332h2.428v-5.783h-10.904zm-8.412 4.76v9.91c-2.651-0.34-3.992-1.594-3.992-3.785 0-0.821 0.164-1.625 0.492-2.412 0.329-0.796 0.865-1.553 1.609-2.27 0.519-0.504 1.154-0.985 1.891-1.443z"/>
  </g>
 </g>
 <g transform="scale(.99502 1.005)" style="fill:#9191ff">
  <path d="m17.212 31.924c-2.244-0.104-4-0.665-5.27-1.683-1.261-1.018-1.892-2.513-1.892-4.488 0-0.983 0.191-1.883 0.574-2.7 0.383-0.818 0.918-1.574 1.605-2.27s1.492-1.322 2.413-1.879c0.931-0.565 1.939-1.078 3.03-1.539h-5.192v-2.44h9.732v2.44c-1.748 0.513-3.222 1.083-4.422 1.709s-2.174 1.3-2.922 2.02c-0.748 0.713-1.287 1.465-1.618 2.257-0.33 0.783-0.496 1.583-0.496 2.4 0 2.383 1.592 3.666 4.775 3.848 1.522 0.087 2.644 0.452 3.366 1.096 0.731 0.635 1.096 1.461 1.096 2.479 0 0.444-0.078 0.878-0.235 1.305-0.157 0.435-0.404 0.822-0.744 1.161-0.339 0.339-0.77 0.613-1.292 0.822-0.513 0.217-1.118 0.335-1.813 0.352l-0.313-2.322c0.617-0.078 1.057-0.226 1.318-0.444 0.261-0.209 0.391-0.5 0.391-0.874 0-0.426-0.191-0.735-0.574-0.926-0.383-0.183-0.887-0.291-1.513-0.326"/>
  <path d="m36.18 31.95h-10.958v-2.426l3.848-6.07-3.848-6.092v-2.44h10.958v5.753h-2.44v-3.314h-5.231l3.744 6.092-3.744 6.07h5.231v-3.34h2.44v5.766"/>
 </g>
 <g transform="scale(.93544 1.069)" style="fill:#c83737">
  <path d="m24.898 28.999h-0.575l-5.179-11.855v10.809l1.883 0.283v0.764h-4.991v-0.764l1.8-0.283v-11.949l-1.8-0.272v-0.764h5.514l4.01 9.229 4.091-9.229h5.629v0.764l-1.8 0.272v11.949l1.8 0.283v0.764h-6.979v-0.764l1.883-0.283v-10.809l-5.284 11.855"/>
 </g>
</svg>
