<svg viewBox="0 0 48 48" xmlns="http://www.w3.org/2000/svg">
 <defs>
  <linearGradient id="linearGradient3764" x1="1" x2="47" gradientTransform="matrix(0 -1 1 0 -1.5e-6 48)" gradientUnits="userSpaceOnUse">
   <stop style="stop-color:#db3771" offset="0"/>
   <stop style="stop-color:#de487e" offset="1"/>
  </linearGradient>
 </defs>
 <path d="m36.31 5c5.859 4.062 9.688 10.831 9.688 18.5 0 12.426-10.07 22.5-22.5 22.5-7.669 0-14.438-3.828-18.5-9.688 1.037 1.822 2.306 3.499 3.781 4.969 4.085 3.712 9.514 5.969 15.469 5.969 12.703 0 23-10.298 23-23 0-5.954-2.256-11.384-5.969-15.469-1.469-1.475-3.147-2.744-4.969-3.781zm4.969 3.781c3.854 4.113 6.219 9.637 6.219 15.719 0 12.703-10.297 23-23 23-6.081 0-11.606-2.364-15.719-6.219 4.16 4.144 9.883 6.719 16.219 6.719 12.703 0 23-10.298 23-23 0-6.335-2.575-12.06-6.719-16.219z" style="opacity:.05"/>
 <path d="m41.28 8.781c3.712 4.085 5.969 9.514 5.969 15.469 0 12.703-10.297 23-23 23-5.954 0-11.384-2.256-15.469-5.969 4.113 3.854 9.637 6.219 15.719 6.219 12.703 0 23-10.298 23-23 0-6.081-2.364-11.606-6.219-15.719z" style="opacity:.1"/>
 <path d="m31.25 2.375c8.615 3.154 14.75 11.417 14.75 21.13 0 12.426-10.07 22.5-22.5 22.5-9.708 0-17.971-6.135-21.12-14.75a23 23 0 0 0 44.875-7 23 23 0 0 0-16-21.875z" style="opacity:.2"/>
 <path d="m24 1c12.703 0 23 10.297 23 23s-10.297 23-23 23-23-10.297-23-23 10.297-23 23-23z" style="fill:url(#linearGradient3764)"/>
 <path d="m40.03 7.531c3.712 4.084 5.969 9.514 5.969 15.469 0 12.703-10.297 23-23 23-5.954 0-11.384-2.256-15.469-5.969 4.178 4.291 10.01 6.969 16.469 6.969 12.703 0 23-10.298 23-23 0-6.462-2.677-12.291-6.969-16.469z" style="opacity:.1"/>
 <path d="m15.02 16c-2.699 0-2.699 4 0 4h1.097c0.605 0 0.998 0.181 1.51 0.617 0.512 0.437 1.055 1.152 1.576 1.965 0.498 0.777 0.973 1.62 1.561 2.418-0.588 0.798-1.063 1.641-1.561 2.418-0.521 0.813-1.064 1.528-1.576 1.965s-0.905 0.617-1.51 0.617h-1.097c-2.699 0-2.699 4 0 4h1.097c1.64 0 3.068-0.694 4.096-1.57s1.709-1.934 2.346-2.848c0.773-1.108 1.442-2.582 2.437-2.582s1.918 1.71 2.499 2.598c0.613 0.937 1.344 1.968 2.379 2.84 1.035 0.871 2.462 1.563 4.102 1.563h0.995c2.699 0 2.699-4 0-4h-0.995c-0.605 0-1.012-0.184-1.536-0.625s-1.078-1.159-1.612-1.973c-0.507-0.773-0.991-1.612-1.582-2.402 0.592-0.791 1.075-1.629 1.582-2.402 0.534-0.814 1.088-1.532 1.612-1.973s0.93-0.625 1.536-0.625h0.995c2.699 0 2.699-4 0-4h-0.995c-1.64 0-3.067 0.691-4.102 1.563-1.035 0.871-1.73 1.928-2.379 2.84-0.789 1.107-1.505 2.598-2.499 2.598-0.995 0-1.87-1.698-2.437-2.582-0.601-0.938-1.318-1.972-2.346-2.848s-2.456-1.57-4.096-1.57" solid-color="#000000" style="color-rendering:auto;fill-rule:evenodd;image-rendering:auto;opacity:.1;shape-rendering:auto" isolation="auto" mix-blend-mode="normal" white-space="normal"/>
 <path d="m14.02 15c-2.699 0-2.699 4 0 4h1.097c0.605 0 0.998 0.181 1.51 0.617 0.512 0.437 1.055 1.152 1.576 1.965 0.498 0.777 0.973 1.62 1.561 2.418-0.588 0.798-1.063 1.641-1.561 2.418-0.521 0.813-1.064 1.528-1.576 1.965s-0.905 0.617-1.51 0.617h-1.097c-2.699 0-2.699 4 0 4h1.097c1.64 0 3.068-0.694 4.096-1.57s1.709-1.934 2.346-2.848c0.773-1.108 1.442-2.582 2.437-2.582s1.918 1.71 2.499 2.598c0.613 0.937 1.344 1.968 2.379 2.84 1.035 0.871 2.462 1.563 4.102 1.563h0.995c2.699 0 2.699-4 0-4h-0.995c-0.605 0-1.012-0.184-1.536-0.625s-1.078-1.159-1.612-1.973c-0.507-0.773-0.991-1.612-1.582-2.402 0.592-0.791 1.075-1.629 1.582-2.402 0.534-0.814 1.088-1.532 1.612-1.973s0.93-0.625 1.536-0.625h0.995c2.699 0 2.699-4 0-4h-0.995c-1.64 0-3.067 0.691-4.102 1.563-1.035 0.871-1.73 1.928-2.379 2.84-0.789 1.107-1.505 2.598-2.499 2.598-0.995 0-1.87-1.698-2.437-2.582-0.601-0.938-1.318-1.972-2.346-2.848s-2.456-1.57-4.096-1.57" solid-color="#000000" style="color-rendering:auto;fill-rule:evenodd;fill:#f9f9f9;image-rendering:auto;shape-rendering:auto" isolation="auto" mix-blend-mode="normal" white-space="normal"/>
</svg>
