<svg xmlns="http://www.w3.org/2000/svg" viewBox="0 0 48 48">
  <defs>
    <linearGradient id="a" x1="1" x2="47" gradientUnits="userSpaceOnUse" gradientTransform="rotate(-90 24 24)">
      <stop stop-color="#739bd7"/>
      <stop offset="1" stop-color="#82a5dc"/>
    </linearGradient>
  </defs>
  <path d="M36.31 5c5.859 4.062 9.688 10.831 9.688 18.5 0 12.426-10.07 22.5-22.5 22.5-7.669 0-14.438-3.828-18.5-9.688a23.24 23.24 0 0 0 3.781 4.969 22.923 22.923 0 0 0 15.469 5.969c12.703 0 23-10.298 23-23a22.92 22.92 0 0 0-5.969-15.469A23.216 23.216 0 0 0 36.31 5zm4.969 3.781A22.911 22.911 0 0 1 47.498 24.5c0 12.703-10.297 23-23 23a22.909 22.909 0 0 1-15.719-6.219C12.939 45.425 18.662 48 24.998 48c12.703 0 23-10.298 23-23 0-6.335-2.575-12.06-6.719-16.219z" opacity=".05"/>
  <path d="M41.28 8.781a22.923 22.923 0 0 1 5.969 15.469c0 12.703-10.297 23-23 23A22.92 22.92 0 0 1 8.78 41.281 22.911 22.911 0 0 0 24.499 47.5c12.703 0 23-10.298 23-23A22.909 22.909 0 0 0 41.28 8.781z" opacity=".1"/>
  <path d="M31.25 2.375C39.865 5.529 46 13.792 46 23.505c0 12.426-10.07 22.5-22.5 22.5-9.708 0-17.971-6.135-21.12-14.75a23 23 0 0 0 44.875-7 23 23 0 0 0-16-21.875z" opacity=".2"/>
  <path d="M24 1c12.703 0 23 10.297 23 23S36.703 47 24 47 1 36.703 1 24 11.297 1 24 1z" fill="url(#a)"/>
  <path d="M22.523 14.359c-.719.797-1.035 1.867-1.188 2.316-.461 1.25.77 1.148 1.586-.148 1.281-1.945 1.793-.25 1.844 5.887.051 5.191-.102 6.191-1.176 8.285-1.488 2.996-3.176 4.195-4.867 3.445-.922-.398-1.434-.348-2.098.102-.77.547-.82.746-.203 1.695 1.84 2.844 6.297-.148 11.52-7.785 3.352-4.84 4.484-11.141 4.777-12.08.254-1.01.547-2.98-.168-2.98-2.453 1.602-4.211 12.875-5.387 13.01-.125-4.984-.066-17.15-4.645-11.738m.004.004" opacity=".1"/>
  <g>
    <path d="M21.523 13.359c-.719.797-1.035 1.867-1.188 2.316-.461 1.25.77 1.148 1.586-.148 1.281-1.945 1.793-.25 1.844 5.887.051 5.191-.102 6.191-1.176 8.285-1.488 2.996-3.176 4.195-4.867 3.445-.922-.398-1.434-.348-2.098.102-.77.547-.82.746-.203 1.695 1.84 2.844 6.297-.148 11.52-7.785 3.352-4.84 4.484-11.141 4.777-12.08.254-1.01.547-2.98-.168-2.98-2.453 1.602-4.211 12.875-5.387 13.01-.125-4.984-.066-17.15-4.645-11.738m.004.004" fill="#2d2d2d"/>
  </g>
  <g>
    <path d="M40.03 7.531A22.922 22.922 0 0 1 45.999 23c0 12.703-10.297 23-23 23A22.92 22.92 0 0 1 7.53 40.031C11.708 44.322 17.54 47 23.999 47c12.703 0 23-10.298 23-23 0-6.462-2.677-12.291-6.969-16.469z" opacity=".1"/>
  </g>
</svg>
