<svg viewBox="0 0 48 48" xmlns="http://www.w3.org/2000/svg">
  <defs>
    <linearGradient id="a" x2="0" y1="47" y2="1" gradientUnits="userSpaceOnUse">
      <stop offset="0" stop-color="#c9c9df"/>
      <stop offset="1" stop-color="#d5d5e7"/>
    </linearGradient>
  </defs>
  <path d="M36.31 5c5.859 4.062 9.688 10.831 9.688 18.5 0 12.426-10.07 22.5-22.5 22.5-7.669 0-14.438-3.828-18.5-9.688a23.24 23.24 0 0 0 3.781 4.969 22.923 22.923 0 0 0 15.469 5.969c12.703 0 23-10.298 23-23a22.92 22.92 0 0 0-5.969-15.469A23.216 23.216 0 0 0 36.31 5zm4.969 3.781A22.911 22.911 0 0 1 47.498 24.5c0 12.703-10.297 23-23 23a22.909 22.909 0 0 1-15.719-6.219C12.939 45.425 18.662 48 24.998 48c12.703 0 23-10.298 23-23 0-6.335-2.575-12.06-6.719-16.219z" opacity=".05"/>
  <path d="M41.28 8.781a22.923 22.923 0 0 1 5.969 15.469c0 12.703-10.297 23-23 23A22.92 22.92 0 0 1 8.78 41.281 22.911 22.911 0 0 0 24.499 47.5c12.703 0 23-10.298 23-23A22.909 22.909 0 0 0 41.28 8.781z" opacity=".1"/>
  <path d="M31.25 2.375C39.865 5.529 46 13.792 46 23.505c0 12.426-10.07 22.5-22.5 22.5-9.708 0-17.971-6.135-21.12-14.75a23 23 0 0 0 44.875-7 23 23 0 0 0-16-21.875z" opacity=".2"/>
  <path d="M24 1c12.703 0 23 10.297 23 23S36.703 47 24 47 1 36.703 1 24 11.297 1 24 1z" fill="url(#a)"/>
  <path d="M40.03 7.531A22.922 22.922 0 0 1 45.999 23c0 12.703-10.297 23-23 23A22.92 22.92 0 0 1 7.53 40.031C11.708 44.322 17.54 47 23.999 47c12.703 0 23-10.298 23-23 0-6.462-2.677-12.291-6.969-16.469z" opacity=".1"/>
  <path d="M21.6 13c-.886 0-1.6.669-1.6 1.5V24h1v-9h8v9h1v-9.5c0-.831-.713-1.5-1.6-1.5h-6.801zm2.9 3.5v.809a2.25 2.25 0 0 0-.695.289l-.572-.572-.707.707.57.57a2.25 2.25 0 0 0-.287.697H22v1h.809a2.25 2.25 0 0 0 .289.695l-.572.572.707.707.572-.572a2.25 2.25 0 0 0 .695.289v.809h1v-.809a2.25 2.25 0 0 0 .695-.289l.572.572.707-.707-.57-.57a2.25 2.25 0 0 0 .287-.697H28v-1h-.809a2.25 2.25 0 0 0-.289-.695l.572-.572-.707-.707-.57.57a2.25 2.25 0 0 0-.697-.287V16.5h-1zm-11 .5a1 1 0 0 0-1 1 1 1 0 0 0 .5.865v7.738a2.5 2.5 0 0 0-.5 1.496 2.5 2.5 0 0 0 2.5 2.5v4.873c4 2.042 16 2.041 20-.029v-4.844a2.5 2.5 0 0 0 2.5-2.5 2.5 2.5 0 0 0-.5-1.496v-7.738a1 1 0 0 0 .5-.865 1 1 0 0 0-1-1 1 1 0 0 0-1 1 1 1 0 0 0 .5.863v6.947a2.5 2.5 0 0 0-1-.211v-2.1c0-1.385-1.115-2.5-2.5-2.5H31v2c.554 0 1 .446 1 1s-.446 1-1 1H19c-.554 0-1-.446-1-1s.446-1 1-1v-2h-1.5a2.495 2.495 0 0 0-2.5 2.5v2.1a2.5 2.5 0 0 0-1 .211v-6.947a1 1 0 0 0 .5-.863 1 1 0 0 0-1-1M25 18.25a1.25 1.25 0 0 1 1.25 1.25A1.25 1.25 0 0 1 25 20.75a1.25 1.25 0 0 1-1.25-1.25A1.25 1.25 0 0 1 25 18.25M21 27a2.5 2.5 0 1 1 0 5 2.5 2.5 0 0 1 0-5zm8 0a2.5 2.5 0 1 1 0 5 2.5 2.5 0 0 1 0-5z" fill-opacity=".098" fill-rule="evenodd"/>
  <path d="M16.5 20a2.495 2.495 0 0 0-2.5 2.5V34.473c4 2.042 16 2.041 20-.029V22.5c0-1.385-1.115-2.5-2.5-2.5H30v2c.554 0 1 .446 1 1s-.446 1-1 1H18c-.554 0-1-.446-1-1s.446-1 1-1v-2zm3.5 6a2.5 2.5 0 1 1 0 5 2.5 2.5 0 0 1 0-5zm8 0a2.5 2.5 0 1 1 0 5 2.5 2.5 0 0 1 0-5z" fill-rule="evenodd" fill="#3c3c3c"/>
  <path d="M12.5 16a1 1 0 0 0-1 1 1 1 0 0 0 .5.865v7.739a2.5 2.5 0 0 0-.5 1.496 2.5 2.5 0 0 0 2.5 2.5 2.5 2.5 0 0 0 2.5-2.5 2.5 2.5 0 0 0-2.5-2.5 2.5 2.5 0 0 0-1 .211v-6.948a1 1 0 0 0 .5-.863 1 1 0 0 0-1-1zm23 0a1 1 0 0 0-1 1 1 1 0 0 0 .5.863v6.948a2.5 2.5 0 0 0-1-.211 2.5 2.5 0 0 0-2.5 2.5 2.5 2.5 0 0 0 2.5 2.5 2.5 2.5 0 0 0 2.5-2.5 2.5 2.5 0 0 0-.5-1.496v-7.739a1 1 0 0 0 .5-.865 1 1 0 0 0-1-1zM20.6 12c-.886 0-1.6.669-1.6 1.5V23h1v-9h8v9h1v-9.5c0-.831-.713-1.5-1.6-1.5h-6.801z" fill="#3c3c3c"/>
  <path d="M23.5 15.5v.809a2.25 2.25 0 0 0-.699.291l-.568-.568-.707.707.568.568a2.25 2.25 0 0 0-.285.693H21v1h.809a2.25 2.25 0 0 0 .289.695l-.572.572.707.707.572-.572a2.25 2.25 0 0 0 .695.289v.809h1v-.809a2.25 2.25 0 0 0 .691-.287l.576.576.707-.707-.574-.574a2.25 2.25 0 0 0 .291-.699H27v-1h-.809a2.25 2.25 0 0 0-.285-.693l.568-.568-.707-.707-.566.566a2.25 2.25 0 0 0-.701-.289V15.5h-1zm.5 1.75a1.25 1.25 0 0 1 1.25 1.25A1.25 1.25 0 0 1 24 19.75a1.25 1.25 0 0 1-1.25-1.25A1.25 1.25 0 0 1 24 17.25z" fill="#b56533"/>
</svg>
